<?xml version="1.0" encoding="UTF-8"?>
<svg xmlns="http://www.w3.org/2000/svg" version="1.1" width="1200" height="1200">
  <g fill="none" stroke-linecap="round" stroke-linejoin="round">
  <text x="10" y="20" font-size="24" fill="#555">Layer 103 Z=32.600 mm</text>
  <g transform="translate(473.679,-412.535)">
    <g stroke="#2E7D32" stroke-width="0.4">
      <line x1="108.276" y1="988.449" x2="106.263" y2="988.449"/>
      <line x1="109.885" y1="989.049" x2="104.698" y2="989.049"/>
      <line x1="110.790" y1="989.649" x2="105.070" y2="989.649"/>
      <line x1="111.440" y1="990.249" x2="105.670" y2="990.249"/>
      <line x1="111.963" y1="990.849" x2="106.270" y2="990.849"/>
      <line x1="112.395" y1="991.449" x2="106.870" y2="991.449"/>
      <line x1="112.779" y1="992.049" x2="107.470" y2="992.049"/>
      <line x1="113.161" y1="992.649" x2="108.070" y2="992.649"/>
      <line x1="113.527" y1="993.249" x2="108.670" y2="993.249"/>
      <line x1="113.893" y1="993.849" x2="109.270" y2="993.849"/>
      <line x1="114.274" y1="994.449" x2="109.870" y2="994.449"/>
      <line x1="114.657" y1="995.049" x2="110.470" y2="995.049"/>
      <line x1="115.051" y1="995.649" x2="111.070" y2="995.649"/>
      <line x1="115.454" y1="996.249" x2="111.670" y2="996.249"/>
      <line x1="115.857" y1="996.849" x2="112.270" y2="996.849"/>
      <line x1="116.259" y1="997.449" x2="112.870" y2="997.449"/>
      <line x1="116.662" y1="998.049" x2="113.470" y2="998.049"/>
      <line x1="117.065" y1="998.649" x2="114.070" y2="998.649"/>
      <line x1="117.468" y1="999.249" x2="114.670" y2="999.249"/>
      <line x1="117.874" y1="999.849" x2="115.270" y2="999.849"/>
      <line x1="118.334" y1="1000.449" x2="115.870" y2="1000.449"/>
      <line x1="118.814" y1="1001.049" x2="116.470" y2="1001.049"/>
      <line x1="119.293" y1="1001.649" x2="117.070" y2="1001.649"/>
      <line x1="119.773" y1="1002.249" x2="117.670" y2="1002.249"/>
      <line x1="120.252" y1="1002.849" x2="118.270" y2="1002.849"/>
      <line x1="120.732" y1="1003.449" x2="118.870" y2="1003.449"/>
      <line x1="121.211" y1="1004.049" x2="119.470" y2="1004.049"/>
      <line x1="121.392" y1="1004.649" x2="120.070" y2="1004.649"/>
      <line x1="120.765" y1="1005.249" x2="120.670" y2="1005.249"/>
      <line x1="131.492" y1="1014.285" x2="130.192" y2="1014.285"/>
      <line x1="132.218" y1="1014.885" x2="130.306" y2="1014.885"/>
      <line x1="132.965" y1="1015.485" x2="130.906" y2="1015.485"/>
      <line x1="133.729" y1="1016.085" x2="131.506" y2="1016.085"/>
      <line x1="134.526" y1="1016.685" x2="132.106" y2="1016.685"/>
      <line x1="135.410" y1="1017.285" x2="132.706" y2="1017.285"/>
      <line x1="136.214" y1="1017.885" x2="133.306" y2="1017.885"/>
      <line x1="137.031" y1="1018.485" x2="133.906" y2="1018.485"/>
      <line x1="137.965" y1="1019.085" x2="134.506" y2="1019.085"/>
      <line x1="138.840" y1="1019.685" x2="135.106" y2="1019.685"/>
      <line x1="139.764" y1="1020.285" x2="135.706" y2="1020.285"/>
      <line x1="140.799" y1="1020.885" x2="136.306" y2="1020.885"/>
      <line x1="141.733" y1="1021.485" x2="136.906" y2="1021.485"/>
      <line x1="142.684" y1="1022.085" x2="137.506" y2="1022.085"/>
      <line x1="143.689" y1="1022.685" x2="138.106" y2="1022.685"/>
      <line x1="144.663" y1="1023.285" x2="138.706" y2="1023.285"/>
      <line x1="145.585" y1="1023.885" x2="139.306" y2="1023.885"/>
      <line x1="146.392" y1="1024.485" x2="139.906" y2="1024.485"/>
      <line x1="147.119" y1="1025.085" x2="140.506" y2="1025.085"/>
      <line x1="147.807" y1="1025.685" x2="141.106" y2="1025.685"/>
      <line x1="148.383" y1="1026.285" x2="141.706" y2="1026.285"/>
      <line x1="148.956" y1="1026.885" x2="142.306" y2="1026.885"/>
      <line x1="149.444" y1="1027.485" x2="142.906" y2="1027.485"/>
      <line x1="149.847" y1="1028.085" x2="143.506" y2="1028.085"/>
      <line x1="150.159" y1="1028.685" x2="144.106" y2="1028.685"/>
      <line x1="150.386" y1="1029.285" x2="144.706" y2="1029.285"/>
      <line x1="150.579" y1="1029.885" x2="145.306" y2="1029.885"/>
      <line x1="150.683" y1="1030.485" x2="145.906" y2="1030.485"/>
      <line x1="150.716" y1="1031.085" x2="146.506" y2="1031.085"/>
      <line x1="150.715" y1="1031.685" x2="147.106" y2="1031.685"/>
      <line x1="150.628" y1="1032.285" x2="147.706" y2="1032.285"/>
      <line x1="150.502" y1="1032.885" x2="148.306" y2="1032.885"/>
      <line x1="150.314" y1="1033.485" x2="148.906" y2="1033.485"/>
      <line x1="149.989" y1="1034.085" x2="149.506" y2="1034.085"/>
    </g>
    <g stroke="#1976D2" stroke-width="0.4">
      <polyline points="103.175,991.796 103.906,991.454 147.857,1035.406 147.196,1036.422 149.603,1038.829 150.362,1037.590 151.586,1035.652 151.651,1035.533 151.882,1035.005 152.224,1034.410 152.628,1033.124 152.824,1031.771 152.808,1030.450 152.578,1029.119 152.530,1028.971 152.311,1028.446 152.226,1028.181 152.114,1027.894 151.633,1026.952 151.493,1026.716 150.995,1026.053 150.744,1025.685 150.453,1025.412 149.283,1024.185 147.974,1023.044 146.588,1022.014 145.135,1021.102 143.399,1020.066 142.247,1019.311 141.700,1018.972 140.581,1018.332 138.779,1017.097 138.135,1016.698 136.628,1015.574 135.765,1014.989 134.753,1014.227 133.489,1013.211 132.280,1012.211 131.725,1011.790 129.519,1009.783 128.825,1009.110 127.117,1007.430 126.817,1007.118 123.175,1003.142 119.723,998.823 119.543,998.573 116.584,994.166 115.708,992.793 114.882,991.439 114.026,990.102 113.551,989.465 113.295,989.157 112.769,988.595 112.196,988.083 111.773,987.750 111.633,987.655 111.201,987.374 110.610,987.052 110.002,986.781 109.380,986.563 108.750,986.399 108.114,986.291 107.479,986.241 106.850,986.247 106.222,986.313 105.489,986.464 105.149,986.569 104.213,986.920 103.962,987.040 103.877,987.094 102.725,987.568 102.297,987.784 101.777,988.010 101.119,988.368 100.275,988.756 99.819,989.045 102.492,991.718" fill="none"/>
      <polyline points="102.492,991.718 102.762,991.988 103.175,991.796" fill="none"/>
      <polyline points="149.852,1037.273 151.069,1035.347 151.112,1035.268 151.345,1034.734 151.671,1034.168 152.041,1032.990 152.224,1031.731 152.208,1030.505 151.994,1029.263 151.967,1029.179 151.747,1028.653 151.661,1028.382 151.566,1028.141 151.107,1027.241 150.994,1027.050 150.507,1026.403 150.285,1026.078 150.030,1025.838 148.868,1024.619 147.598,1023.512 146.249,1022.509 144.822,1021.614 143.081,1020.575 141.924,1019.817 141.393,1019.488 140.262,1018.841 138.452,1017.600 137.797,1017.195 136.281,1016.063 135.416,1015.477 134.385,1014.701 133.109,1013.676 131.908,1012.681 131.341,1012.252 129.109,1010.220 128.406,1009.539 126.690,1007.852 126.379,1007.529 122.719,1003.532 119.245,999.186 119.051,998.916 116.082,994.494 115.199,993.110 114.374,991.757 113.532,990.443 113.080,989.837 112.845,989.555 112.349,989.024 111.810,988.543 111.419,988.235 111.301,988.155 110.893,987.890 110.344,987.591 109.780,987.339 109.205,987.137 108.624,986.986 108.040,986.887 107.459,986.841 106.884,986.847 106.314,986.907 105.638,987.046 105.344,987.137 104.448,987.473 104.252,987.567 104.153,987.629 102.975,988.115 102.551,988.327 102.041,988.549 101.388,988.905 100.799,989.176 102.889,991.267 104.033,990.733 148.625,1035.325 147.964,1036.342 149.489,1037.866 149.852,1037.273" fill="none"/>
      <polyline points="150.551,1035.043 150.573,1035.004 150.809,1034.464 151.119,1033.926 151.454,1032.856 151.623,1031.692 151.609,1030.560 151.409,1029.400 151.184,1028.860 151.095,1028.584 151.018,1028.387 150.582,1027.531 150.495,1027.385 150.019,1026.752 149.826,1026.470 149.607,1026.264 148.453,1025.054 147.221,1023.980 145.910,1023.005 144.508,1022.125 142.763,1021.083 141.602,1020.324 141.086,1020.004 139.942,1019.350 138.124,1018.102 137.459,1017.691 135.933,1016.552 135.067,1015.966 134.016,1015.175 132.730,1014.141 131.535,1013.152 130.957,1012.713 128.698,1010.657 127.987,1009.969 126.263,1008.274 125.942,1007.939 122.263,1003.923 118.767,999.549 118.558,999.258 115.580,994.823 114.690,993.428 113.865,992.075 113.038,990.785 112.608,990.208 112.395,989.952 111.929,989.454 111.424,989.003 111.065,988.720 110.969,988.655 110.585,988.405 110.078,988.129 109.558,987.897 109.030,987.712 108.498,987.574 107.966,987.483 107.438,987.441 106.919,987.447 106.406,987.500 105.788,987.628 105.538,987.705 104.684,988.025 104.543,988.093 104.429,988.164 103.224,988.661 102.806,988.871 102.305,989.089 101.823,989.351 103.017,990.545 104.160,990.012 149.393,1035.244 148.732,1036.261 149.376,1036.904 150.551,1035.043" fill="none"/>
      <polyline points="150.272,1034.193 150.566,1033.683 150.867,1032.722 151.023,1031.652 151.010,1030.615 150.829,1029.568 150.620,1029.068 150.529,1028.785 150.470,1028.634 150.056,1027.821 149.995,1027.719 149.532,1027.102 149.368,1026.862 149.184,1026.690 148.038,1025.488 146.844,1024.447 145.571,1023.500 144.195,1022.637 142.445,1021.592 141.279,1020.830 140.778,1020.519 139.623,1019.858 137.797,1018.605 137.121,1018.188 135.585,1017.041 134.718,1016.454 133.648,1015.648 132.351,1014.606 131.162,1013.622 130.573,1013.175 128.287,1011.095 127.568,1010.398 125.837,1008.696 125.504,1008.350 121.807,1004.313 118.289,999.912 118.065,999.601 115.078,995.151 114.181,993.746 113.356,992.393 112.544,991.126 112.137,990.580 111.945,990.349 111.509,989.883 111.039,989.463 110.711,989.205 110.638,989.155 110.277,988.921 109.812,988.667 109.336,988.455 108.855,988.286 108.372,988.161 107.892,988.079 107.418,988.041 106.953,988.046 106.498,988.094 105.938,988.210 105.732,988.273 104.919,988.578 104.833,988.619 104.705,988.699 103.991,988.994 149.943,1034.946 150.272,1034.193" fill="none"/>
      <polyline points="130.124,1013.921 127.761,1011.666 127.750,1011.656 127.033,1010.949 127.030,1010.947 125.302,1009.233 125.293,1009.224 124.952,1008.876 124.944,1008.868 121.346,1005.108" fill="none"/>
      <polyline points="149.874,1035.301 149.219,1036.324" fill="none"/>
    </g>
    <g stroke="#C62828" stroke-width="0.4" fill="none">
    </g>
    <g stroke="#EF6C00" stroke-width="0.4" fill="none">
    </g>
  </g>
  <g stroke="#000000" stroke-width="0.4">
    <line x1="300.000" y1="600.000" x2="900.000" y2="600.000"/>
  </g>
  <g stroke="#000000" stroke-width="0.4">
    <line x1="600.000" y1="300.000" x2="600.000" y2="900.000"/>
  </g>
  <circle cx="600.000" cy="600.000" r="600.000" stroke="red" stroke-width="1" fill="none"/>
  </g>
</svg>
