<?xml version="1.0" encoding="UTF-8"?>
<svg xmlns="http://www.w3.org/2000/svg" version="1.1" width="1200" height="1200">
  <g fill="none" stroke-linecap="round" stroke-linejoin="round">
  <text x="10" y="20" font-size="24" fill="#555">Layer 119 Z=35.800 mm</text>
  <g transform="translate(465.762,-418.407)">
    <g stroke="#2E7D32" stroke-width="0.4">
      <line x1="143.997" y1="1025.700" x2="143.921" y2="1025.700"/>
      <line x1="144.420" y1="1026.300" x2="143.686" y2="1026.300"/>
      <line x1="144.669" y1="1026.900" x2="143.451" y2="1026.900"/>
      <line x1="144.785" y1="1027.500" x2="143.971" y2="1027.500"/>
      <line x1="144.756" y1="1028.100" x2="144.571" y2="1028.100"/>
    </g>
    <g stroke="#1976D2" stroke-width="0.4">
      <polyline points="142.104,1027.754 144.796,1030.446 145.512,1029.543 145.557,1029.512 145.853,1029.060 145.996,1028.793 146.111,1028.521 146.204,1028.220 146.267,1027.898 146.291,1027.401 146.215,1026.836 145.992,1026.084 145.706,1025.519 145.344,1025.007 144.956,1024.593 141.720,1021.616 140.896,1020.842 135.331,1015.502 133.966,1014.236 132.283,1012.715 129.245,1010.023 127.358,1008.403 126.595,1007.716 126.482,1007.601 125.997,1007.222 125.523,1006.905 125.058,1006.652 124.838,1006.556 124.622,1006.476 124.411,1006.418 124.205,1006.381 124.011,1006.368 123.946,1006.373 123.819,1006.386 123.644,1006.434 123.429,1006.543 123.351,1006.667 122.744,1007.251 122.185,1007.836 126.066,1011.716" fill="none"/>
      <polyline points="126.066,1011.716 127.674,1013.324 128.237,1013.282" fill="none"/>
      <polyline points="128.237,1013.282 128.954,1013.227 129.248,1013.221 142.146,1026.119 141.845,1026.890" fill="none"/>
      <polyline points="141.845,1026.890 141.674,1027.325 142.104,1027.754" fill="none"/>
      <polyline points="145.095,1029.104 145.117,1029.089 145.337,1028.753 145.454,1028.535 145.546,1028.315 145.621,1028.073 145.670,1027.825 145.689,1027.427 145.627,1026.963 145.432,1026.307 145.190,1025.829 144.878,1025.388 144.534,1025.020 141.312,1022.055 140.483,1021.277 134.920,1015.938 133.561,1014.679 131.883,1013.163 128.850,1010.475 126.962,1008.853 126.180,1008.150 126.081,1008.049 125.646,1007.708 125.213,1007.420 124.793,1007.191 124.614,1007.112 124.438,1007.048 124.277,1007.003 124.132,1006.977 123.909,1006.962 123.018,1007.820 127.903,1012.705 128.925,1012.628 129.491,1012.616 142.848,1025.972 142.376,1027.178 144.744,1029.546 145.095,1029.104" fill="none"/>
      <polyline points="144.911,1028.276 144.982,1028.109 145.038,1027.926 145.073,1027.752 145.087,1027.452 145.038,1027.089 144.872,1026.530 144.675,1026.139 144.412,1025.768 144.111,1025.446 142.738,1024.183 142.331,1024.607 143.550,1025.826 143.078,1027.031 144.706,1028.660 144.911,1028.276" fill="none"/>
      <polyline points="128.896,1012.028 129.680,1012.012 128.456,1010.927 126.566,1009.304 125.765,1008.584 125.681,1008.498 125.294,1008.195 124.902,1007.934 124.475,1007.702 124.164,1008.118 128.133,1012.086 128.896,1012.028" fill="none"/>
      <polyline points="128.568,1011.752 128.111,1011.322 126.283,1009.628 126.281,1009.626 125.490,1008.876 125.485,1008.871 125.412,1008.798 125.074,1008.498" fill="none"/>
      <polyline points="142.318,1024.187 140.740,1022.674 140.737,1022.670 139.918,1021.877 139.914,1021.873 134.409,1016.480 133.081,1015.202" fill="none"/>
      <polyline points="133.081,1015.202 131.448,1013.649 130.020,1012.304" fill="none"/>
    </g>
    <g stroke="#C62828" stroke-width="0.4" fill="none">
    </g>
    <g stroke="#EF6C00" stroke-width="0.4" fill="none">
    </g>
  </g>
  <g stroke="#000000" stroke-width="0.4">
    <line x1="300.000" y1="600.000" x2="900.000" y2="600.000"/>
  </g>
  <g stroke="#000000" stroke-width="0.4">
    <line x1="600.000" y1="300.000" x2="600.000" y2="900.000"/>
  </g>
  <circle cx="600.000" cy="600.000" r="600.000" stroke="red" stroke-width="1" fill="none"/>
  </g>
</svg>
