<?xml version="1.0" encoding="UTF-8"?>
<svg xmlns="http://www.w3.org/2000/svg" version="1.1" width="1200" height="1200">
  <g fill="none" stroke-linecap="round" stroke-linejoin="round">
  <text x="10" y="20" font-size="24" fill="#555">Layer 104 Z=32.800 mm</text>
  <g transform="translate(473.353,-412.650)">
    <g stroke="#2E7D32" stroke-width="0.4">
      <line x1="107.373" y1="991.728" x2="107.373" y2="988.924"/>
      <line x1="107.973" y1="992.328" x2="107.973" y2="988.927"/>
      <line x1="108.573" y1="992.928" x2="108.573" y2="989.001"/>
      <line x1="106.773" y1="991.128" x2="106.773" y2="989.014"/>
      <line x1="109.173" y1="993.528" x2="109.173" y2="989.153"/>
      <line x1="106.173" y1="990.528" x2="106.173" y2="989.162"/>
      <line x1="109.773" y1="994.128" x2="109.773" y2="989.393"/>
      <line x1="105.573" y1="989.928" x2="105.573" y2="989.414"/>
      <line x1="110.373" y1="994.728" x2="110.373" y2="989.692"/>
      <line x1="110.973" y1="995.328" x2="110.973" y2="990.090"/>
      <line x1="111.573" y1="995.928" x2="111.573" y2="990.587"/>
      <line x1="112.173" y1="996.528" x2="112.173" y2="991.208"/>
      <line x1="112.773" y1="997.128" x2="112.773" y2="992.001"/>
      <line x1="113.373" y1="997.728" x2="113.373" y2="992.928"/>
      <line x1="113.973" y1="998.328" x2="113.973" y2="993.892"/>
      <line x1="114.573" y1="998.928" x2="114.573" y2="994.857"/>
      <line x1="115.173" y1="999.528" x2="115.173" y2="995.768"/>
      <line x1="115.773" y1="1000.128" x2="115.773" y2="996.666"/>
      <line x1="116.373" y1="1000.728" x2="116.373" y2="997.558"/>
      <line x1="116.973" y1="1001.328" x2="116.973" y2="998.450"/>
      <line x1="117.573" y1="1001.928" x2="117.573" y2="999.329"/>
      <line x1="118.173" y1="1002.528" x2="118.173" y2="1000.172"/>
      <line x1="118.773" y1="1003.128" x2="118.773" y2="1000.936"/>
      <line x1="119.373" y1="1003.728" x2="119.373" y2="1001.688"/>
      <line x1="119.973" y1="1004.328" x2="119.973" y2="1002.440"/>
      <line x1="120.573" y1="1003.928" x2="120.573" y2="1003.192"/>
      <line x1="132.171" y1="1016.526" x2="132.171" y2="1014.822"/>
      <line x1="131.571" y1="1015.926" x2="131.571" y2="1014.960"/>
      <line x1="132.771" y1="1017.126" x2="132.771" y2="1015.307"/>
      <line x1="133.371" y1="1017.726" x2="133.371" y2="1015.790"/>
      <line x1="133.971" y1="1018.326" x2="133.971" y2="1016.272"/>
      <line x1="134.571" y1="1018.926" x2="134.571" y2="1016.731"/>
      <line x1="135.171" y1="1019.526" x2="135.171" y2="1017.151"/>
      <line x1="135.771" y1="1020.126" x2="135.771" y2="1017.599"/>
      <line x1="136.371" y1="1020.726" x2="136.371" y2="1018.047"/>
      <line x1="136.971" y1="1021.326" x2="136.971" y2="1018.495"/>
      <line x1="137.571" y1="1021.926" x2="137.571" y2="1018.898"/>
      <line x1="138.171" y1="1022.526" x2="138.171" y2="1019.311"/>
      <line x1="138.771" y1="1023.126" x2="138.771" y2="1019.724"/>
      <line x1="139.371" y1="1023.726" x2="139.371" y2="1020.138"/>
      <line x1="139.971" y1="1024.326" x2="139.971" y2="1020.525"/>
      <line x1="140.571" y1="1024.926" x2="140.571" y2="1020.904"/>
      <line x1="141.171" y1="1025.526" x2="141.171" y2="1021.284"/>
      <line x1="141.771" y1="1026.126" x2="141.771" y2="1021.673"/>
      <line x1="142.371" y1="1026.726" x2="142.371" y2="1022.070"/>
      <line x1="142.971" y1="1027.326" x2="142.971" y2="1022.427"/>
      <line x1="143.571" y1="1027.926" x2="143.571" y2="1022.777"/>
      <line x1="144.171" y1="1028.526" x2="144.171" y2="1023.130"/>
      <line x1="144.771" y1="1029.126" x2="144.771" y2="1023.516"/>
      <line x1="145.371" y1="1029.726" x2="145.371" y2="1023.902"/>
      <line x1="145.971" y1="1030.326" x2="145.971" y2="1024.341"/>
      <line x1="146.571" y1="1030.926" x2="146.571" y2="1024.792"/>
      <line x1="147.171" y1="1031.526" x2="147.171" y2="1025.297"/>
      <line x1="147.771" y1="1032.126" x2="147.771" y2="1025.823"/>
      <line x1="148.371" y1="1032.726" x2="148.371" y2="1026.422"/>
      <line x1="148.971" y1="1033.326" x2="148.971" y2="1027.042"/>
      <line x1="149.571" y1="1033.926" x2="149.571" y2="1027.819"/>
      <line x1="150.171" y1="1033.109" x2="150.171" y2="1029.076"/>
    </g>
    <g stroke="#1976D2" stroke-width="0.4">
      <polyline points="104.117,992.514 104.863,992.187 147.727,1035.052 147.063,1036.065 149.482,1038.484 150.125,1037.437 151.350,1035.465 151.617,1034.976 151.752,1034.666 151.992,1034.242 152.171,1033.754 152.410,1032.992 152.514,1032.437 152.517,1032.299 152.622,1031.565 152.621,1030.391 152.522,1029.730 152.411,1029.098 152.267,1028.655 152.157,1028.391 152.043,1028.037 151.984,1027.886 151.456,1026.858 151.389,1026.745 150.655,1025.755 150.544,1025.650 149.363,1024.426 148.057,1023.282 146.676,1022.245 145.239,1021.320 143.573,1020.346 143.151,1020.077 142.823,1019.844 140.667,1018.480 138.398,1016.918 138.226,1016.811 136.276,1015.356 135.875,1015.084 135.411,1014.734 133.615,1013.292 132.928,1012.723 132.087,1012.085 129.882,1010.077 128.748,1008.978 127.250,1007.505 126.701,1006.935 126.202,1006.376 123.192,1003.092 122.756,1002.560 120.067,999.191 119.762,998.794 119.091,997.837 117.134,994.928 116.280,993.631 115.230,991.932 114.535,990.856 114.318,990.542 113.822,989.896 113.115,989.142 112.339,988.482 112.198,988.379 111.416,987.864 111.109,987.700 110.327,987.333 110.243,987.311 109.832,987.157 109.190,986.977 108.554,986.867 107.920,986.816 107.290,986.822 106.664,986.886 105.638,987.116 105.372,987.215 104.272,987.683 104.147,987.710 103.807,987.867 103.447,988.054 103.181,988.214 102.809,988.394 102.600,988.534 102.176,988.751 102.025,988.861 101.563,989.111 100.673,989.675 103.366,992.369" fill="none"/>
      <polyline points="103.366,992.369 103.696,992.698 104.117,992.514" fill="none"/>
      <polyline points="149.614,1037.122 150.832,1035.163 151.078,1034.712 151.215,1034.398 151.446,1033.989 151.603,1033.560 151.827,1032.847 151.915,1032.374 151.918,1032.249 152.022,1031.523 152.021,1030.436 151.930,1029.826 151.827,1029.244 151.704,1028.863 151.593,1028.598 151.478,1028.238 151.437,1028.133 150.931,1027.148 150.889,1027.078 150.205,1026.155 150.122,1026.077 148.948,1024.860 147.679,1023.748 146.334,1022.737 144.925,1021.832 143.260,1020.858 142.816,1020.575 142.489,1020.343 140.336,1018.981 138.070,1017.421 137.888,1017.308 135.928,1015.845 135.527,1015.573 135.042,1015.208 133.236,1013.757 132.556,1013.194 131.703,1012.547 129.471,1010.515 128.329,1009.407 126.823,1007.927 126.261,1007.343 125.757,1006.779 122.739,1003.485 122.289,1002.937 119.595,999.561 119.278,999.149 118.597,998.177 116.635,995.260 115.774,993.954 114.723,992.253 114.035,991.189 113.833,990.895 113.364,990.285 112.701,989.577 111.966,988.953 111.855,988.871 111.108,988.380 110.840,988.236 110.120,987.899 110.060,987.883 109.646,987.728 109.057,987.563 108.479,987.463 107.898,987.416 107.324,987.421 106.761,987.479 105.809,987.693 105.594,987.773 104.455,988.257 104.339,988.282 104.071,988.406 103.740,988.578 103.466,988.742 103.108,988.915 102.905,989.052 102.492,989.263 102.346,989.370 101.612,989.766 103.830,991.984 104.997,991.474 148.496,1034.973 147.832,1035.986 149.368,1037.522 149.614,1037.122" fill="none"/>
      <polyline points="150.313,1034.861 150.538,1034.448 150.677,1034.130 150.899,1033.736 151.035,1033.367 151.244,1032.702 151.316,1032.312 151.319,1032.200 151.422,1031.480 151.421,1030.481 151.338,1029.923 151.243,1029.389 151.141,1029.072 151.030,1028.805 150.912,1028.440 150.889,1028.381 150.405,1027.439 150.389,1027.410 149.755,1026.556 149.700,1026.504 148.534,1025.295 147.300,1024.214 145.991,1023.230 144.612,1022.343 142.947,1021.370 142.481,1021.073 142.154,1020.841 140.005,1019.482 137.742,1017.923 137.550,1017.804 135.580,1016.334 135.178,1016.061 134.674,1015.682 132.857,1014.222 132.183,1013.664 131.319,1013.009 129.061,1010.952 127.909,1009.837 126.396,1008.349 125.821,1007.751 125.312,1007.181 122.285,1003.878 121.823,1003.315 119.122,999.931 118.794,999.504 118.102,998.516 116.135,995.593 115.268,994.277 114.216,992.573 113.536,991.522 113.348,991.248 112.906,990.674 112.286,990.012 111.594,989.424 111.513,989.364 110.801,988.896 110.571,988.773 109.913,988.465 109.876,988.455 109.459,988.299 108.925,988.149 108.403,988.059 107.877,988.016 107.357,988.021 106.858,988.073 105.980,988.269 105.816,988.330 104.638,988.831 104.531,988.854 104.335,988.945 104.033,989.101 103.752,989.270 103.407,989.437 103.210,989.570 102.584,989.890 103.965,991.270 105.132,990.760 149.266,1034.894 148.602,1035.907 149.256,1036.561 150.313,1034.861" fill="none"/>
      <polyline points="149.999,1034.183 150.140,1033.861 150.353,1033.484 150.467,1033.174 150.660,1032.557 150.717,1032.250 150.720,1032.150 150.822,1031.438 150.821,1030.525 150.745,1030.019 150.660,1029.534 150.577,1029.280 150.466,1029.013 150.344,1028.633 149.885,1027.738 149.305,1026.956 149.279,1026.931 148.119,1025.730 146.922,1024.680 145.648,1023.723 144.298,1022.855 142.634,1021.882 142.145,1021.571 141.820,1021.340 139.675,1019.982 137.414,1018.426 137.212,1018.301 135.233,1016.823 134.829,1016.549 134.305,1016.155 132.477,1014.687 131.810,1014.134 130.935,1013.471 128.650,1011.389 127.490,1010.266 125.970,1008.771 125.381,1008.159 124.867,1007.584 121.832,1004.272 121.356,1003.692 118.650,1000.301 118.310,999.859 117.607,998.856 115.636,995.925 114.763,994.600 113.708,992.894 113.037,991.855 112.863,991.602 112.448,991.063 111.871,990.447 111.222,989.895 111.171,989.857 110.494,989.412 110.302,989.309 109.706,989.030 109.693,989.027 109.273,988.870 108.792,988.735 108.328,988.655 107.855,988.616 107.391,988.621 106.954,988.666 106.151,988.846 106.038,988.888 104.821,989.405 104.723,989.427 104.599,989.484 104.327,989.625 104.038,989.799 103.569,990.026 104.100,990.557 105.267,990.046 149.789,1034.568 149.999,1034.183" fill="none"/>
      <polyline points="131.285,1014.831 130.443,1014.097 130.410,1014.067 128.161,1011.920 128.151,1011.911 126.997,1010.774 126.994,1010.772 125.476,1009.266 125.468,1009.258 124.867,1008.646 124.857,1008.635 124.326,1008.074 121.216,1004.825 121.196,1004.803 120.681,1004.235" fill="none"/>
      <polyline points="149.747,1034.951 149.093,1035.974" fill="none"/>
    </g>
    <g stroke="#C62828" stroke-width="0.4" fill="none">
    </g>
    <g stroke="#EF6C00" stroke-width="0.4" fill="none">
    </g>
  </g>
  <g stroke="#000000" stroke-width="0.4">
    <line x1="300.000" y1="600.000" x2="900.000" y2="600.000"/>
  </g>
  <g stroke="#000000" stroke-width="0.4">
    <line x1="600.000" y1="300.000" x2="600.000" y2="900.000"/>
  </g>
  <circle cx="600.000" cy="600.000" r="600.000" stroke="red" stroke-width="1" fill="none"/>
  </g>
</svg>
