<?xml version="1.0" encoding="UTF-8"?>
<svg xmlns="http://www.w3.org/2000/svg" version="1.1" width="1200" height="1200">
  <g fill="none" stroke-linecap="round" stroke-linejoin="round">
  <text x="10" y="20" font-size="24" fill="#555">Layer 111 Z=34.200 mm</text>
  <g transform="translate(470.375,-414.644)">
    <g stroke="#2E7D32" stroke-width="0.4">
      <line x1="113.159" y1="995.880" x2="112.149" y2="995.880"/>
      <line x1="114.451" y1="996.480" x2="112.012" y2="996.480"/>
      <line x1="114.186" y1="997.080" x2="112.612" y2="997.080"/>
      <line x1="141.637" y1="1022.778" x2="141.508" y2="1022.778"/>
      <line x1="142.488" y1="1023.378" x2="141.001" y2="1023.378"/>
      <line x1="143.345" y1="1023.978" x2="141.187" y2="1023.978"/>
      <line x1="144.193" y1="1024.578" x2="141.787" y2="1024.578"/>
      <line x1="145.012" y1="1025.178" x2="142.387" y2="1025.178"/>
      <line x1="145.788" y1="1025.778" x2="142.987" y2="1025.778"/>
      <line x1="146.515" y1="1026.378" x2="143.587" y2="1026.378"/>
      <line x1="147.179" y1="1026.978" x2="144.187" y2="1026.978"/>
      <line x1="147.791" y1="1027.578" x2="144.787" y2="1027.578"/>
      <line x1="148.185" y1="1028.178" x2="145.387" y2="1028.178"/>
      <line x1="148.421" y1="1028.778" x2="145.987" y2="1028.778"/>
      <line x1="148.539" y1="1029.378" x2="146.587" y2="1029.378"/>
      <line x1="148.551" y1="1029.978" x2="147.187" y2="1029.978"/>
      <line x1="148.456" y1="1030.578" x2="147.787" y2="1030.578"/>
    </g>
    <g stroke="#1976D2" stroke-width="0.4">
      <polyline points="113.014,999.846 113.850,999.611 146.224,1031.985 145.595,1033.033 148.118,1035.557 149.201,1033.748 149.566,1033.136 149.965,1032.410 150.321,1031.652 150.465,1031.209 150.569,1030.760 150.635,1030.303 150.662,1029.842 150.651,1029.380 150.602,1028.921 150.515,1028.469 150.392,1028.028 150.233,1027.601 150.042,1027.191 149.820,1026.802 149.567,1026.434 149.297,1026.102 148.999,1025.799 148.025,1024.901 146.731,1023.834 145.191,1022.706 143.261,1021.357 141.458,1020.074 141.157,1019.813 140.558,1019.256 138.806,1017.904 138.552,1017.658 136.752,1016.158 136.050,1015.471 134.378,1013.997 133.941,1013.569 132.279,1012.035 130.976,1010.743 128.179,1008.029 125.909,1005.673 123.039,1002.596 121.085,1000.302 120.643,999.738 119.112,997.883 117.944,996.383 117.701,996.090 117.392,995.766 117.032,995.440 116.624,995.120 116.167,994.813 115.662,994.526 115.111,994.267 114.525,994.049 113.921,993.882 113.294,993.772 112.663,993.730 112.041,993.764 111.444,993.877 110.887,994.073 110.395,994.346 110.067,994.576 109.920,994.693 108.587,996.025 111.678,999.116" fill="none"/>
      <polyline points="111.678,999.116 112.541,999.979 113.014,999.846" fill="none"/>
      <polyline points="148.686,1033.441 149.046,1032.838 149.430,1032.137 149.762,1031.431 149.886,1031.048 149.979,1030.649 150.038,1030.243 150.062,1029.831 150.052,1029.419 150.008,1029.010 149.930,1028.607 149.820,1028.213 149.679,1027.833 149.509,1027.467 149.311,1027.121 149.087,1026.794 148.850,1026.503 148.582,1026.231 147.630,1025.353 146.363,1024.308 144.842,1023.194 142.916,1021.847 141.086,1020.547 140.755,1020.259 140.170,1019.714 138.413,1018.359 138.151,1018.105 136.349,1016.603 135.642,1015.911 133.970,1014.437 133.527,1014.004 131.864,1012.468 130.556,1011.172 127.754,1008.452 125.474,1006.086 122.591,1002.996 120.620,1000.682 120.175,1000.114 118.644,998.259 117.476,996.759 117.253,996.489 116.973,996.196 116.645,995.899 116.272,995.606 115.852,995.324 115.386,995.059 114.878,994.821 114.340,994.620 113.789,994.468 113.223,994.369 112.659,994.332 112.113,994.361 111.600,994.458 111.134,994.622 110.714,994.855 110.427,995.056 110.322,995.141 109.435,996.025 112.717,999.307 114.026,998.938 146.980,1031.892 146.350,1032.940 147.999,1034.588 148.686,1033.441" fill="none"/>
      <polyline points="148.171,1033.133 148.525,1032.540 148.895,1031.865 149.203,1031.210 149.308,1030.888 149.389,1030.538 149.440,1030.182 149.462,1029.821 149.453,1029.459 149.414,1029.099 149.346,1028.745 149.249,1028.399 149.125,1028.064 148.976,1027.743 148.803,1027.440 148.606,1027.154 148.402,1026.904 148.164,1026.662 147.236,1025.806 145.994,1024.782 144.493,1023.682 142.570,1022.337 140.715,1021.019 140.354,1020.706 139.781,1020.172 138.020,1018.814 137.749,1018.551 135.946,1017.049 135.233,1016.350 133.561,1014.877 133.114,1014.439 131.449,1012.902 130.135,1011.600 127.329,1008.876 125.039,1006.499 122.143,1003.395 120.156,1001.062 119.708,1000.490 118.176,998.634 117.008,997.134 116.804,996.888 116.554,996.626 116.258,996.358 115.919,996.092 115.536,995.835 115.110,995.593 114.645,995.374 114.155,995.191 113.658,995.054 113.151,994.965 112.655,994.933 112.185,994.958 111.757,995.039 111.381,995.171 111.032,995.365 110.788,995.536 110.723,995.588 110.284,996.025 112.893,998.634 114.201,998.265 147.735,1031.799 147.106,1032.847 147.879,1033.620 148.171,1033.133" fill="none"/>
      <polyline points="148.644,1030.989 148.729,1030.727 148.799,1030.428 148.843,1030.121 148.861,1029.810 148.854,1029.498 148.820,1029.188 148.761,1028.882 148.678,1028.584 148.571,1028.295 148.442,1028.019 148.294,1027.759 148.125,1027.513 147.955,1027.305 147.747,1027.093 146.841,1026.258 145.626,1025.256 144.143,1024.170 142.224,1022.828 140.344,1021.491 139.953,1021.152 139.393,1020.630 137.627,1019.268 137.348,1018.998 135.543,1017.494 134.825,1016.790 133.153,1015.317 132.700,1014.874 131.034,1013.336 129.715,1012.029 127.672,1010.045 127.254,1010.469 148.366,1031.581 148.644,1030.989" fill="none"/>
      <polyline points="126.351,1008.725 124.603,1006.912 121.695,1003.795 119.691,1001.441 119.240,1000.866 117.708,999.009 116.540,997.510 116.355,997.286 116.135,997.056 115.871,996.817 115.566,996.578 115.220,996.345 114.834,996.126 114.412,995.928 113.970,995.763 113.526,995.640 113.079,995.562 112.651,995.534 112.258,995.555 111.913,995.620 111.628,995.720 111.113,996.006 113.068,997.961 114.377,997.592 125.926,1009.141 126.351,1008.725" fill="none"/>
      <polyline points="114.534,997.325 114.714,997.293 114.894,997.261" fill="none"/>
      <polyline points="114.894,997.261 115.074,997.229 115.109,997.215 115.353,997.432 115.569,997.637 115.751,997.823 115.919,998.008 117.175,999.430 117.182,999.438 118.801,1001.220" fill="none"/>
      <polyline points="118.801,1001.220 119.286,1001.766 119.292,1001.773 121.399,1004.056" fill="none"/>
      <polyline points="140.955,1022.968 139.906,1022.082 139.875,1022.054 139.482,1021.687 139.471,1021.677 138.939,1021.165 137.273,1019.699" fill="none"/>
      <polyline points="137.273,1019.699 137.252,1019.680 136.978,1019.410 135.248,1017.830 135.239,1017.822 134.524,1017.114 132.901,1015.590" fill="none"/>
      <polyline points="148.274,1031.914 148.065,1032.277 147.652,1032.968" fill="none"/>
    </g>
    <g stroke="#C62828" stroke-width="0.4" fill="none">
    </g>
    <g stroke="#EF6C00" stroke-width="0.4" fill="none">
    </g>
  </g>
  <g stroke="#000000" stroke-width="0.4">
    <line x1="300.000" y1="600.000" x2="900.000" y2="600.000"/>
  </g>
  <g stroke="#000000" stroke-width="0.4">
    <line x1="600.000" y1="300.000" x2="600.000" y2="900.000"/>
  </g>
  <circle cx="600.000" cy="600.000" r="600.000" stroke="red" stroke-width="1" fill="none"/>
  </g>
</svg>
