<?xml version="1.0" encoding="UTF-8"?>
<svg xmlns="http://www.w3.org/2000/svg" version="1.1" width="1200" height="1200">
  <g fill="none" stroke-linecap="round" stroke-linejoin="round">
  <text x="10" y="20" font-size="24" fill="#555">Layer 97 Z=31.400 mm</text>
  <g transform="translate(475.361,-412.038)">
    <g stroke="#2E7D32" stroke-width="0.4">
      <line x1="122.955" y1="1006.789" x2="120.870" y2="1006.789"/>
      <line x1="123.510" y1="1007.389" x2="121.470" y2="1007.389"/>
      <line x1="124.065" y1="1007.989" x2="122.070" y2="1007.989"/>
      <line x1="124.620" y1="1008.589" x2="122.670" y2="1008.589"/>
      <line x1="125.238" y1="1009.189" x2="123.270" y2="1009.189"/>
      <line x1="125.858" y1="1009.789" x2="123.870" y2="1009.789"/>
      <line x1="126.478" y1="1010.389" x2="124.470" y2="1010.389"/>
      <line x1="127.130" y1="1010.989" x2="125.070" y2="1010.989"/>
      <line x1="127.811" y1="1011.589" x2="125.670" y2="1011.589"/>
      <line x1="128.492" y1="1012.189" x2="126.270" y2="1012.189"/>
      <line x1="129.195" y1="1012.789" x2="126.870" y2="1012.789"/>
      <line x1="129.956" y1="1013.389" x2="127.470" y2="1013.389"/>
      <line x1="130.717" y1="1013.989" x2="128.070" y2="1013.989"/>
      <line x1="130.732" y1="1014.589" x2="128.670" y2="1014.589"/>
      <line x1="130.732" y1="1015.189" x2="129.270" y2="1015.189"/>
      <line x1="130.732" y1="1015.789" x2="129.870" y2="1015.789"/>
      <line x1="130.732" y1="1016.389" x2="130.470" y2="1016.389"/>
      <line x1="131.487" y1="1014.589" x2="130.792" y2="1014.589"/>
      <line x1="132.321" y1="1015.189" x2="130.792" y2="1015.189"/>
      <line x1="133.186" y1="1015.789" x2="130.792" y2="1015.789"/>
      <line x1="134.060" y1="1016.389" x2="130.792" y2="1016.389"/>
      <line x1="134.972" y1="1016.989" x2="131.070" y2="1016.989"/>
      <line x1="135.939" y1="1017.589" x2="131.670" y2="1017.589"/>
      <line x1="136.917" y1="1018.189" x2="132.270" y2="1018.189"/>
      <line x1="137.917" y1="1018.789" x2="132.870" y2="1018.789"/>
      <line x1="138.980" y1="1019.389" x2="133.470" y2="1019.389"/>
      <line x1="140.104" y1="1019.989" x2="134.070" y2="1019.989"/>
      <line x1="141.234" y1="1020.589" x2="134.670" y2="1020.589"/>
      <line x1="142.363" y1="1021.189" x2="135.270" y2="1021.189"/>
      <line x1="143.454" y1="1021.789" x2="135.870" y2="1021.789"/>
      <line x1="144.450" y1="1022.389" x2="136.470" y2="1022.389"/>
      <line x1="145.398" y1="1022.989" x2="137.070" y2="1022.989"/>
      <line x1="146.203" y1="1023.589" x2="137.670" y2="1023.589"/>
      <line x1="146.927" y1="1024.189" x2="138.270" y2="1024.189"/>
      <line x1="147.550" y1="1024.789" x2="138.870" y2="1024.789"/>
      <line x1="148.136" y1="1025.389" x2="139.470" y2="1025.389"/>
      <line x1="148.722" y1="1025.989" x2="140.070" y2="1025.989"/>
      <line x1="149.276" y1="1026.589" x2="140.670" y2="1026.589"/>
      <line x1="149.750" y1="1027.189" x2="141.270" y2="1027.189"/>
      <line x1="150.164" y1="1027.789" x2="141.870" y2="1027.789"/>
      <line x1="150.491" y1="1028.389" x2="142.470" y2="1028.389"/>
      <line x1="150.786" y1="1028.989" x2="143.070" y2="1028.989"/>
      <line x1="150.990" y1="1029.589" x2="143.670" y2="1029.589"/>
      <line x1="151.175" y1="1030.189" x2="144.270" y2="1030.189"/>
      <line x1="151.276" y1="1030.789" x2="144.870" y2="1030.789"/>
      <line x1="151.378" y1="1031.389" x2="145.470" y2="1031.389"/>
      <line x1="151.390" y1="1031.989" x2="146.070" y2="1031.989"/>
      <line x1="151.395" y1="1032.589" x2="146.670" y2="1032.589"/>
      <line x1="151.334" y1="1033.189" x2="147.270" y2="1033.189"/>
      <line x1="151.243" y1="1033.789" x2="147.870" y2="1033.789"/>
      <line x1="151.106" y1="1034.389" x2="148.470" y2="1034.389"/>
      <line x1="150.914" y1="1034.989" x2="149.070" y2="1034.989"/>
      <line x1="150.703" y1="1035.589" x2="149.670" y2="1035.589"/>
      <line x1="150.427" y1="1036.189" x2="150.270" y2="1036.189"/>
      <line x1="106.552" y1="985.789" x2="102.987" y2="985.789"/>
      <line x1="107.836" y1="986.389" x2="101.395" y2="986.389"/>
      <line x1="108.671" y1="986.989" x2="101.070" y2="986.989"/>
      <line x1="109.293" y1="987.589" x2="101.670" y2="987.589"/>
      <line x1="109.778" y1="988.189" x2="102.270" y2="988.189"/>
      <line x1="110.208" y1="988.789" x2="102.870" y2="988.789"/>
      <line x1="110.598" y1="989.389" x2="103.470" y2="989.389"/>
      <line x1="110.989" y1="989.989" x2="104.070" y2="989.989"/>
      <line x1="111.371" y1="990.589" x2="104.670" y2="990.589"/>
      <line x1="111.721" y1="991.189" x2="105.270" y2="991.189"/>
      <line x1="112.071" y1="991.789" x2="105.870" y2="991.789"/>
      <line x1="112.421" y1="992.389" x2="106.470" y2="992.389"/>
      <line x1="112.771" y1="992.989" x2="107.070" y2="992.989"/>
      <line x1="113.121" y1="993.589" x2="107.670" y2="993.589"/>
      <line x1="113.453" y1="994.189" x2="108.270" y2="994.189"/>
      <line x1="113.780" y1="994.789" x2="108.870" y2="994.789"/>
      <line x1="114.144" y1="995.389" x2="109.470" y2="995.389"/>
      <line x1="114.517" y1="995.989" x2="110.070" y2="995.989"/>
      <line x1="114.891" y1="996.589" x2="110.670" y2="996.589"/>
      <line x1="115.266" y1="997.189" x2="111.270" y2="997.189"/>
      <line x1="115.675" y1="997.789" x2="111.870" y2="997.789"/>
      <line x1="116.089" y1="998.389" x2="112.470" y2="998.389"/>
      <line x1="116.504" y1="998.989" x2="113.070" y2="998.989"/>
      <line x1="116.918" y1="999.589" x2="113.670" y2="999.589"/>
      <line x1="117.381" y1="1000.189" x2="114.270" y2="1000.189"/>
      <line x1="117.859" y1="1000.789" x2="114.870" y2="1000.789"/>
      <line x1="118.337" y1="1001.389" x2="115.470" y2="1001.389"/>
      <line x1="118.814" y1="1001.989" x2="116.070" y2="1001.989"/>
      <line x1="119.292" y1="1002.589" x2="116.670" y2="1002.589"/>
      <line x1="119.770" y1="1003.189" x2="117.270" y2="1003.189"/>
      <line x1="120.248" y1="1003.789" x2="117.870" y2="1003.789"/>
      <line x1="120.734" y1="1004.389" x2="118.470" y2="1004.389"/>
      <line x1="121.289" y1="1004.989" x2="119.070" y2="1004.989"/>
      <line x1="121.844" y1="1005.589" x2="119.670" y2="1005.589"/>
      <line x1="122.400" y1="1006.189" x2="120.270" y2="1006.189"/>
    </g>
    <g stroke="#1976D2" stroke-width="0.4">
      <polyline points="150.476,1040.135 150.760,1039.692 151.961,1037.741 152.366,1036.998 152.724,1036.221 153.243,1034.606 153.498,1032.931 153.484,1031.250 153.208,1029.617 153.120,1029.314 152.793,1028.358 152.678,1028.055 152.533,1027.750 152.093,1026.928 151.918,1026.625 151.460,1025.969 150.973,1025.334 150.832,1025.189 150.499,1024.804 148.546,1022.804 147.193,1021.682 146.397,1021.125 145.711,1020.692 145.244,1020.424 144.247,1019.812 140.075,1017.596 138.806,1016.880 137.497,1016.085 135.917,1015.104 135.005,1014.496 133.194,1013.239 132.618,1012.814 130.653,1011.274 130.349,1011.026 128.197,1009.131 126.142,1007.142 122.265,1002.952 118.700,998.474 117.069,996.112 115.978,994.363 115.544,993.649 115.093,992.802 113.084,989.359 111.899,987.538 111.275,986.677 111.053,986.401 110.494,985.795 110.229,985.544 109.420,984.900 109.234,984.771 108.231,984.194 107.465,983.889 107.019,983.722 106.937,983.700 105.794,983.463 105.558,983.438 104.530,983.394 104.157,983.417 103.663,983.473 103.258,983.533 102.798,983.643 102.043,983.888 101.495,984.092 95.781,986.347 98.412,988.979 99.485,988.374 148.416,1037.305 147.740,1038.306 150.116,1040.682 150.476,1040.135" fill="none"/>
      <polyline points="150.252,1039.373 151.442,1037.440 151.830,1036.729 152.164,1036.003 152.657,1034.468 152.897,1032.888 152.884,1031.303 152.622,1029.752 152.547,1029.495 152.228,1028.562 152.126,1028.291 151.997,1028.020 151.569,1027.220 151.411,1026.947 150.976,1026.324 150.519,1025.727 150.391,1025.596 150.057,1025.210 148.139,1023.245 146.829,1022.160 146.064,1021.625 145.402,1021.206 144.938,1020.940 143.949,1020.333 139.786,1018.122 138.503,1017.398 137.183,1016.596 135.593,1015.609 134.668,1014.992 132.845,1013.727 132.255,1013.292 130.279,1011.743 129.961,1011.484 127.790,1009.572 125.713,1007.562 121.809,1003.343 118.218,998.832 116.567,996.442 115.467,994.678 115.023,993.946 114.569,993.094 112.573,989.674 111.404,987.878 110.798,987.041 110.598,986.793 110.066,986.216 109.835,985.997 109.063,985.382 108.914,985.279 107.969,984.735 107.249,984.449 106.835,984.294 106.798,984.284 105.702,984.057 105.514,984.037 104.536,983.995 104.210,984.015 103.741,984.068 103.372,984.122 102.961,984.221 102.241,984.455 101.710,984.653 96.852,986.570 98.514,988.232 99.587,987.627 149.190,1037.231 148.514,1038.232 150.018,1039.736 150.252,1039.373" fill="none"/>
      <polyline points="150.923,1037.138 151.293,1036.459 151.603,1035.785 152.071,1034.330 152.297,1032.845 152.285,1031.356 152.036,1029.886 151.975,1029.676 151.664,1028.766 151.573,1028.526 151.461,1028.290 151.044,1027.511 150.905,1027.269 150.492,1026.678 150.065,1026.120 149.949,1026.002 149.615,1025.616 147.731,1023.687 146.465,1022.637 145.732,1022.124 145.092,1021.720 144.632,1021.456 143.651,1020.854 139.498,1018.649 138.200,1017.915 136.869,1017.108 135.268,1016.114 134.330,1015.488 132.496,1014.215 131.892,1013.770 129.904,1012.212 129.573,1011.942 127.383,1010.013 125.284,1007.981 121.354,1003.734 117.736,999.190 116.065,996.771 114.956,994.992 114.501,994.243 114.044,993.386 112.062,989.989 110.909,988.218 110.321,987.405 110.144,987.185 109.639,986.638 109.441,986.451 108.705,985.864 108.593,985.787 107.707,985.277 107.033,985.009 106.654,984.867 105.609,984.650 105.470,984.636 104.541,984.596 104.262,984.613 103.818,984.663 103.486,984.712 103.124,984.799 102.438,985.021 101.924,985.213 97.923,986.792 98.616,987.486 99.689,986.881 149.964,1037.156 149.288,1038.158 149.911,1038.781 150.923,1037.138" fill="none"/>
      <polyline points="150.757,1036.190 151.043,1035.567 151.485,1034.192 151.697,1032.802 151.685,1031.409 151.451,1030.020 151.403,1029.857 151.099,1028.969 151.021,1028.762 150.925,1028.561 150.520,1027.803 150.398,1027.592 150.007,1027.032 149.610,1026.514 149.507,1026.408 149.173,1026.023 147.324,1024.129 146.101,1023.115 145.399,1022.624 144.782,1022.234 144.326,1021.972 143.353,1021.375 139.210,1019.175 137.896,1018.433 136.555,1017.619 134.943,1016.618 133.993,1015.984 132.147,1014.703 131.529,1014.247 129.529,1012.680 129.185,1012.399 126.976,1010.454 124.855,1008.401 120.898,1004.125 117.254,999.548 115.564,997.100 114.445,995.307 113.979,994.541 113.520,993.679 111.551,990.304 110.415,988.558 109.844,987.769 109.689,987.576 109.212,987.060 109.047,986.904 108.347,986.346 108.272,986.295 107.445,985.818 106.817,985.568 106.487,985.445 105.517,985.244 105.426,985.234 104.547,985.197 104.314,985.211 103.895,985.258 103.600,985.302 103.287,985.377 102.636,985.588 102.139,985.773 100.196,986.540 150.435,1036.779 150.757,1036.190" fill="none"/>
    </g>
    <g stroke="#C62828" stroke-width="0.4" fill="none">
    </g>
    <g stroke="#EF6C00" stroke-width="0.4" fill="none">
    </g>
  </g>
  <g stroke="#000000" stroke-width="0.4">
    <line x1="300.000" y1="600.000" x2="900.000" y2="600.000"/>
  </g>
  <g stroke="#000000" stroke-width="0.4">
    <line x1="600.000" y1="300.000" x2="600.000" y2="900.000"/>
  </g>
  <circle cx="600.000" cy="600.000" r="600.000" stroke="red" stroke-width="1" fill="none"/>
  </g>
</svg>
