<?xml version="1.0" encoding="UTF-8"?>
<svg xmlns="http://www.w3.org/2000/svg" version="1.1" width="1200" height="1200">
  <g fill="none" stroke-linecap="round" stroke-linejoin="round">
  <text x="10" y="20" font-size="24" fill="#555">Layer 106 Z=33.200 mm</text>
  <g transform="translate(472.594,-412.933)">
    <g stroke="#2E7D32" stroke-width="0.4">
      <line x1="108.110" y1="992.019" x2="108.110" y2="990.238"/>
      <line x1="108.710" y1="992.618" x2="108.710" y2="990.256"/>
      <line x1="107.510" y1="991.419" x2="107.510" y2="990.319"/>
      <line x1="109.310" y1="993.218" x2="109.310" y2="990.350"/>
      <line x1="109.910" y1="993.818" x2="109.910" y2="990.517"/>
      <line x1="106.910" y1="991.616" x2="106.910" y2="990.518"/>
      <line x1="110.510" y1="994.418" x2="110.510" y2="990.758"/>
      <line x1="106.310" y1="991.860" x2="106.310" y2="990.806"/>
      <line x1="111.110" y1="995.018" x2="111.110" y2="991.091"/>
      <line x1="105.710" y1="991.295" x2="105.710" y2="991.193"/>
      <line x1="111.710" y1="995.618" x2="111.710" y2="991.499"/>
      <line x1="112.310" y1="996.218" x2="112.310" y2="991.957"/>
      <line x1="112.910" y1="996.818" x2="112.910" y2="992.535"/>
      <line x1="113.510" y1="997.418" x2="113.510" y2="993.216"/>
      <line x1="114.110" y1="998.018" x2="114.110" y2="994.070"/>
      <line x1="114.710" y1="998.618" x2="114.710" y2="994.990"/>
      <line x1="115.310" y1="999.218" x2="115.310" y2="995.903"/>
      <line x1="115.910" y1="999.818" x2="115.910" y2="996.795"/>
      <line x1="116.510" y1="1000.418" x2="116.510" y2="997.643"/>
      <line x1="117.110" y1="1001.018" x2="117.110" y2="998.501"/>
      <line x1="117.710" y1="1001.618" x2="117.710" y2="999.357"/>
      <line x1="118.310" y1="1002.218" x2="118.310" y2="1000.191"/>
      <line x1="118.910" y1="1002.561" x2="118.910" y2="1000.972"/>
      <line x1="119.510" y1="1002.025" x2="119.510" y2="1001.734"/>
      <line x1="134.285" y1="1018.193" x2="134.285" y2="1016.674"/>
      <line x1="134.885" y1="1018.793" x2="134.885" y2="1017.034"/>
      <line x1="133.685" y1="1017.593" x2="133.685" y2="1017.338"/>
      <line x1="135.485" y1="1019.393" x2="135.485" y2="1017.482"/>
      <line x1="136.085" y1="1019.993" x2="136.085" y2="1017.931"/>
      <line x1="136.685" y1="1020.593" x2="136.685" y2="1018.403"/>
      <line x1="137.285" y1="1021.193" x2="137.285" y2="1018.876"/>
      <line x1="137.885" y1="1021.793" x2="137.885" y2="1019.288"/>
      <line x1="138.485" y1="1022.393" x2="138.485" y2="1019.700"/>
      <line x1="139.085" y1="1022.993" x2="139.085" y2="1020.153"/>
      <line x1="139.685" y1="1023.593" x2="139.685" y2="1020.596"/>
      <line x1="140.285" y1="1024.193" x2="140.285" y2="1020.976"/>
      <line x1="140.885" y1="1024.793" x2="140.885" y2="1021.360"/>
      <line x1="141.485" y1="1025.393" x2="141.485" y2="1021.786"/>
      <line x1="142.085" y1="1025.993" x2="142.085" y2="1022.208"/>
      <line x1="142.685" y1="1026.593" x2="142.685" y2="1022.590"/>
      <line x1="143.285" y1="1027.193" x2="143.285" y2="1022.973"/>
      <line x1="143.885" y1="1027.793" x2="143.885" y2="1023.344"/>
      <line x1="144.485" y1="1028.393" x2="144.485" y2="1023.722"/>
      <line x1="145.085" y1="1028.993" x2="145.085" y2="1024.124"/>
      <line x1="145.685" y1="1029.593" x2="145.685" y2="1024.524"/>
      <line x1="146.285" y1="1030.193" x2="146.285" y2="1024.987"/>
      <line x1="146.885" y1="1030.793" x2="146.885" y2="1025.461"/>
      <line x1="147.485" y1="1031.393" x2="147.485" y2="1025.997"/>
      <line x1="148.085" y1="1031.993" x2="148.085" y2="1026.544"/>
      <line x1="148.685" y1="1032.593" x2="148.685" y2="1027.140"/>
      <line x1="149.285" y1="1033.193" x2="149.285" y2="1027.891"/>
      <line x1="149.885" y1="1032.223" x2="149.885" y2="1029.201"/>
    </g>
    <g stroke="#1976D2" stroke-width="0.4">
      <polyline points="106.215,994.165 106.977,993.855 147.399,1034.276 146.745,1035.301 149.180,1037.736 150.372,1035.837 151.188,1034.470 151.460,1033.959 151.576,1033.727 151.903,1032.836 151.985,1032.564 152.178,1031.504 152.194,1031.333 152.208,1030.287 152.193,1030.091 152.080,1029.348 152.033,1029.149 151.992,1028.888 151.770,1028.211 151.676,1027.982 151.595,1027.740 151.289,1027.153 151.132,1026.901 151.025,1026.698 150.836,1026.452 150.599,1026.194 150.346,1025.830 149.417,1024.908 148.139,1023.766 147.425,1023.224 146.781,1022.716 145.997,1022.214 145.360,1021.774 144.770,1021.429 143.197,1020.426 141.998,1019.574 140.750,1018.785 139.828,1018.075 138.381,1017.081 137.701,1016.518 136.081,1015.306 134.202,1013.771 133.854,1013.466 132.811,1012.676 130.608,1010.667 127.516,1007.655 126.473,1006.571 125.528,1005.513 123.638,1003.456 123.222,1002.987 122.263,1001.817 120.751,999.922 119.947,998.876 119.167,997.786 118.555,996.898 117.513,995.425 116.608,994.063 116.132,993.311 115.570,992.482 115.175,991.933 114.580,991.230 113.759,990.434 113.565,990.267 112.556,989.507 111.736,989.020 111.427,988.866 110.786,988.594 110.096,988.369 109.379,988.212 109.127,988.178 108.668,988.153 108.503,988.131 108.276,988.141 108.111,988.130 107.880,988.135 107.488,988.174 107.238,988.215 106.368,988.457 106.113,988.556 106.063,988.596 105.670,988.767 105.326,988.941 104.996,989.131 104.421,989.532 103.915,989.949 103.842,989.996 103.403,990.399 103.073,990.663 102.605,991.160 105.319,993.875" fill="none"/>
      <polyline points="105.319,993.875 105.785,994.340 106.215,994.165" fill="none"/>
      <polyline points="149.860,1035.524 150.665,1034.175 150.927,1033.684 151.025,1033.489 151.334,1032.646 151.401,1032.423 151.583,1031.424 151.594,1031.302 151.607,1030.305 151.597,1030.158 151.490,1029.462 151.443,1029.264 151.407,1029.029 151.207,1028.419 151.113,1028.192 151.041,1027.975 150.767,1027.451 150.612,1027.200 150.518,1027.024 150.376,1026.838 150.130,1026.569 149.885,1026.217 149.005,1025.345 147.758,1024.229 147.058,1023.699 146.433,1023.206 145.664,1022.714 145.038,1022.280 144.457,1021.941 142.862,1020.924 141.663,1020.073 140.406,1019.277 139.475,1018.561 138.019,1017.560 137.330,1016.989 135.711,1015.779 133.814,1014.229 133.474,1013.932 132.427,1013.138 130.196,1011.103 127.090,1008.078 126.033,1006.979 125.083,1005.916 123.193,1003.858 122.766,1003.377 121.797,1002.195 120.278,1000.292 119.465,999.233 118.676,998.131 118.063,997.242 117.018,995.765 116.105,994.390 115.630,993.640 115.078,992.825 114.702,992.303 114.141,991.640 113.355,990.877 113.189,990.735 112.221,990.006 111.449,989.547 111.176,989.411 110.576,989.156 109.939,988.949 109.274,988.804 109.070,988.776 108.613,988.751 108.477,988.733 108.269,988.741 108.098,988.731 107.916,988.734 107.567,988.769 107.368,988.802 106.557,989.028 106.415,989.083 106.375,989.115 105.926,989.310 105.611,989.469 105.318,989.639 104.784,990.010 104.269,990.436 104.208,990.474 103.793,990.854 103.435,991.142 105.927,993.634 107.120,993.150 148.163,1034.193 147.510,1035.217 149.072,1036.779 149.860,1035.524" fill="none"/>
      <polyline points="149.348,1035.211 150.143,1033.880 150.394,1033.408 150.473,1033.251 150.764,1032.456 150.817,1032.282 150.988,1031.343 150.994,1031.271 151.007,1030.323 151.000,1030.226 150.901,1029.577 150.854,1029.379 150.821,1029.169 150.644,1028.627 150.550,1028.401 150.487,1028.210 150.246,1027.748 150.091,1027.499 150.012,1027.349 149.916,1027.224 149.660,1026.945 149.424,1026.605 148.594,1025.782 147.376,1024.693 146.691,1024.173 146.085,1023.695 145.332,1023.213 144.715,1022.787 144.145,1022.453 142.527,1021.422 141.329,1020.571 140.062,1019.770 139.122,1019.046 137.657,1018.039 136.959,1017.461 135.342,1016.252 133.427,1014.687 133.095,1014.397 132.042,1013.599 129.785,1011.540 126.665,1008.501 125.593,1007.387 124.638,1006.319 122.747,1004.260 122.309,1003.766 121.330,1002.572 119.806,1000.662 118.983,999.591 118.185,998.476 117.571,997.586 116.523,996.104 115.602,994.716 115.128,993.969 114.587,993.169 114.228,992.672 113.702,992.051 112.950,991.321 112.813,991.203 111.887,990.505 111.162,990.075 110.924,989.957 110.365,989.719 109.781,989.529 109.169,989.395 109.013,989.374 108.558,989.348 108.450,989.335 108.262,989.342 108.085,989.331 107.951,989.334 107.645,989.364 107.497,989.388 106.723,989.604 106.686,989.633 106.182,989.853 105.897,989.997 105.639,990.146 105.147,990.488 104.622,990.922 104.574,990.952 104.324,991.182 106.070,992.929 107.263,992.444 148.929,1034.109 148.275,1035.133 148.964,1035.823 149.348,1035.211" fill="none"/>
      <polyline points="149.861,1033.133 149.921,1033.013 150.195,1032.267 150.232,1032.141 150.394,1031.253 150.407,1030.341 150.403,1030.293 150.311,1029.691 150.265,1029.495 150.236,1029.310 150.081,1028.836 149.988,1028.611 149.933,1028.445 149.724,1028.045 149.571,1027.798 149.505,1027.675 149.456,1027.610 149.191,1027.321 148.962,1026.993 148.182,1026.218 146.994,1025.156 146.324,1024.648 145.736,1024.185 144.999,1023.713 144.393,1023.293 143.832,1022.965 142.192,1021.920 140.994,1021.070 139.718,1020.262 138.769,1019.531 137.295,1018.519 136.587,1017.932 134.972,1016.724 133.039,1015.146 132.716,1014.863 131.658,1014.061 129.373,1011.977 126.239,1008.924 125.153,1007.795 124.194,1006.721 122.302,1004.662 121.853,1004.156 120.864,1002.949 119.333,1001.032 118.501,999.948 117.694,998.821 117.079,997.929 116.028,996.443 115.098,995.043 114.626,994.297 114.095,993.513 113.755,993.042 113.263,992.461 112.545,991.764 112.436,991.671 111.552,991.004 110.874,990.602 110.673,990.502 110.154,990.281 109.624,990.109 109.065,989.986 108.956,989.971 108.503,989.946 108.424,989.936 108.255,989.943 108.072,989.931 107.987,989.933 107.724,989.959 107.627,989.975 107.009,990.148 106.437,990.396 106.182,990.525 105.961,990.653 105.510,990.967 105.207,991.217 106.213,992.223 107.406,991.738 149.492,1033.824 149.861,1033.133" fill="none"/>
      <polyline points="133.734,1016.836 132.536,1015.753 132.524,1015.742 132.226,1015.463 131.234,1014.598" fill="none"/>
      <polyline points="131.234,1014.598 131.208,1014.575 128.957,1012.425 128.950,1012.418 125.829,1009.338 125.823,1009.331 124.719,1008.206 124.711,1008.198 123.721,1007.150 121.786,1005.132 121.782,1005.127 121.311,1004.628 121.300,1004.616 120.247,1003.453 120.242,1003.448" fill="none"/>
      <polyline points="120.242,1003.448 119.410,1002.517" fill="none"/>
      <polyline points="149.426,1034.183 148.945,1034.964 148.784,1035.218" fill="none"/>
    </g>
    <g stroke="#C62828" stroke-width="0.4" fill="none">
    </g>
    <g stroke="#EF6C00" stroke-width="0.4" fill="none">
    </g>
  </g>
  <g stroke="#000000" stroke-width="0.4">
    <line x1="300.000" y1="600.000" x2="900.000" y2="600.000"/>
  </g>
  <g stroke="#000000" stroke-width="0.4">
    <line x1="600.000" y1="300.000" x2="600.000" y2="900.000"/>
  </g>
  <circle cx="600.000" cy="600.000" r="600.000" stroke="red" stroke-width="1" fill="none"/>
  </g>
</svg>
