<?xml version="1.0" encoding="UTF-8"?>
<svg xmlns="http://www.w3.org/2000/svg" version="1.1" width="1200" height="1200">
  <g fill="none" stroke-linecap="round" stroke-linejoin="round">
  <text x="10" y="20" font-size="24" fill="#555">Layer 88 Z=29.600 mm</text>
  <g transform="translate(520.812,-447.555)">
    <g stroke="#2E7D32" stroke-width="0.4">
      <line x1="119.264" y1="1008.872" x2="119.264" y2="1008.617"/>
      <line x1="119.864" y1="1009.472" x2="119.864" y2="1008.617"/>
      <line x1="120.464" y1="1010.072" x2="120.464" y2="1008.617"/>
      <line x1="121.064" y1="1010.672" x2="121.064" y2="1008.617"/>
      <line x1="121.664" y1="1011.272" x2="121.664" y2="1008.617"/>
      <line x1="122.264" y1="1011.872" x2="122.264" y2="1008.617"/>
      <line x1="122.864" y1="1012.472" x2="122.864" y2="1009.003"/>
      <line x1="123.464" y1="1013.072" x2="123.464" y2="1009.561"/>
      <line x1="124.064" y1="1013.672" x2="124.064" y2="1010.119"/>
      <line x1="124.664" y1="1014.272" x2="124.664" y2="1010.677"/>
      <line x1="125.264" y1="1014.872" x2="125.264" y2="1011.183"/>
      <line x1="125.864" y1="1015.472" x2="125.864" y2="1011.677"/>
      <line x1="126.464" y1="1015.313" x2="126.464" y2="1012.171"/>
      <line x1="127.064" y1="1014.995" x2="127.064" y2="1012.665"/>
      <line x1="127.664" y1="1015.595" x2="127.664" y2="1013.093"/>
      <line x1="128.264" y1="1016.195" x2="128.264" y2="1013.516"/>
      <line x1="128.864" y1="1016.795" x2="128.864" y2="1013.938"/>
      <line x1="129.464" y1="1017.395" x2="129.464" y2="1014.361"/>
      <line x1="130.064" y1="1017.995" x2="130.064" y2="1014.745"/>
      <line x1="130.664" y1="1018.595" x2="130.664" y2="1015.109"/>
      <line x1="131.264" y1="1019.195" x2="131.264" y2="1015.466"/>
      <line x1="131.864" y1="1019.795" x2="131.864" y2="1015.823"/>
      <line x1="132.464" y1="1020.395" x2="132.464" y2="1016.170"/>
      <line x1="133.064" y1="1020.995" x2="133.064" y2="1016.496"/>
      <line x1="133.664" y1="1021.595" x2="133.664" y2="1016.817"/>
      <line x1="134.264" y1="1022.195" x2="134.264" y2="1017.128"/>
      <line x1="134.864" y1="1022.795" x2="134.864" y2="1017.439"/>
      <line x1="135.464" y1="1023.395" x2="135.464" y2="1017.738"/>
      <line x1="136.064" y1="1023.995" x2="136.064" y2="1018.033"/>
      <line x1="136.664" y1="1024.595" x2="136.664" y2="1018.327"/>
      <line x1="137.264" y1="1025.195" x2="137.264" y2="1018.609"/>
      <line x1="137.864" y1="1025.795" x2="137.864" y2="1018.890"/>
      <line x1="138.464" y1="1026.395" x2="138.464" y2="1019.151"/>
      <line x1="139.064" y1="1026.995" x2="139.064" y2="1019.410"/>
      <line x1="139.664" y1="1027.595" x2="139.664" y2="1019.670"/>
      <line x1="140.264" y1="1028.195" x2="140.264" y2="1019.930"/>
      <line x1="140.864" y1="1028.795" x2="140.864" y2="1020.215"/>
      <line x1="141.464" y1="1029.395" x2="141.464" y2="1020.514"/>
      <line x1="142.064" y1="1029.995" x2="142.064" y2="1020.825"/>
      <line x1="142.664" y1="1030.595" x2="142.664" y2="1021.178"/>
      <line x1="143.264" y1="1031.195" x2="143.264" y2="1021.560"/>
      <line x1="143.864" y1="1031.795" x2="143.864" y2="1021.970"/>
      <line x1="144.464" y1="1032.395" x2="144.464" y2="1022.437"/>
      <line x1="145.064" y1="1032.995" x2="145.064" y2="1022.936"/>
      <line x1="145.664" y1="1033.595" x2="145.664" y2="1023.457"/>
      <line x1="146.264" y1="1034.195" x2="146.264" y2="1024.005"/>
      <line x1="146.864" y1="1034.795" x2="146.864" y2="1024.647"/>
      <line x1="147.464" y1="1035.395" x2="147.464" y2="1025.289"/>
      <line x1="148.064" y1="1035.995" x2="148.064" y2="1025.931"/>
      <line x1="148.664" y1="1036.595" x2="148.664" y2="1026.559"/>
      <line x1="149.264" y1="1037.195" x2="149.264" y2="1027.292"/>
      <line x1="149.864" y1="1037.795" x2="149.864" y2="1028.091"/>
      <line x1="150.464" y1="1038.395" x2="150.464" y2="1029.137"/>
      <line x1="151.064" y1="1037.457" x2="151.064" y2="1030.593"/>
      <line x1="100.064" y1="987.995" x2="100.064" y2="983.245"/>
      <line x1="99.464" y1="987.395" x2="99.464" y2="983.256"/>
      <line x1="100.664" y1="988.595" x2="100.664" y2="983.273"/>
      <line x1="98.864" y1="986.795" x2="98.864" y2="983.304"/>
      <line x1="101.264" y1="989.195" x2="101.264" y2="983.343"/>
      <line x1="98.264" y1="986.195" x2="98.264" y2="983.391"/>
      <line x1="101.864" y1="989.795" x2="101.864" y2="983.457"/>
      <line x1="97.664" y1="985.595" x2="97.664" y2="983.517"/>
      <line x1="102.464" y1="990.395" x2="102.464" y2="983.614"/>
      <line x1="97.064" y1="984.995" x2="97.064" y2="983.684"/>
      <line x1="103.064" y1="990.995" x2="103.064" y2="983.819"/>
      <line x1="96.464" y1="984.395" x2="96.464" y2="983.887"/>
      <line x1="103.664" y1="991.595" x2="103.664" y2="984.077"/>
      <line x1="104.264" y1="992.195" x2="104.264" y2="984.397"/>
      <line x1="104.864" y1="994.472" x2="104.864" y2="984.826"/>
      <line x1="105.464" y1="995.072" x2="105.464" y2="985.366"/>
      <line x1="106.064" y1="995.672" x2="106.064" y2="986.023"/>
      <line x1="106.664" y1="996.272" x2="106.664" y2="986.752"/>
      <line x1="107.264" y1="996.872" x2="107.264" y2="987.504"/>
      <line x1="107.864" y1="997.472" x2="107.864" y2="988.256"/>
      <line x1="108.464" y1="998.072" x2="108.464" y2="989.094"/>
      <line x1="109.064" y1="998.672" x2="109.064" y2="989.991"/>
      <line x1="109.664" y1="999.272" x2="109.664" y2="990.976"/>
      <line x1="110.264" y1="999.872" x2="110.264" y2="992.080"/>
      <line x1="104.264" y1="993.872" x2="104.264" y2="993.169"/>
      <line x1="110.864" y1="1000.472" x2="110.864" y2="993.219"/>
      <line x1="111.464" y1="1001.072" x2="111.464" y2="994.399"/>
      <line x1="112.064" y1="1001.672" x2="112.064" y2="995.452"/>
      <line x1="112.664" y1="1002.272" x2="112.664" y2="996.457"/>
      <line x1="113.264" y1="1002.872" x2="113.264" y2="997.452"/>
      <line x1="113.864" y1="1003.472" x2="113.864" y2="998.337"/>
      <line x1="114.464" y1="1004.072" x2="114.464" y2="999.223"/>
      <line x1="115.064" y1="1004.672" x2="115.064" y2="1000.073"/>
      <line x1="115.664" y1="1005.272" x2="115.664" y2="1000.826"/>
      <line x1="116.264" y1="1005.872" x2="116.264" y2="1001.579"/>
      <line x1="116.864" y1="1006.472" x2="116.864" y2="1002.333"/>
      <line x1="117.464" y1="1007.072" x2="117.464" y2="1003.086"/>
      <line x1="118.064" y1="1007.672" x2="118.064" y2="1003.839"/>
      <line x1="118.664" y1="1008.272" x2="118.664" y2="1004.575"/>
      <line x1="119.264" y1="1008.557" x2="119.264" y2="1005.213"/>
      <line x1="119.864" y1="1008.557" x2="119.864" y2="1005.851"/>
      <line x1="120.464" y1="1008.557" x2="120.464" y2="1006.488"/>
      <line x1="121.064" y1="1008.557" x2="121.064" y2="1007.126"/>
      <line x1="121.664" y1="1008.557" x2="121.664" y2="1007.764"/>
      <line x1="122.264" y1="1008.557" x2="122.264" y2="1008.402"/>
      <line x1="7.872" y1="1034.727" x2="7.872" y2="1029.111"/>
      <line x1="8.472" y1="1035.869" x2="8.472" y2="1029.711"/>
      <line x1="7.272" y1="1033.415" x2="7.272" y2="1029.766"/>
      <line x1="9.072" y1="1037.011" x2="9.072" y2="1030.311"/>
      <line x1="9.672" y1="1038.033" x2="9.672" y2="1030.911"/>
      <line x1="10.272" y1="1038.979" x2="10.272" y2="1031.511"/>
      <line x1="10.872" y1="1039.926" x2="10.872" y2="1032.111"/>
      <line x1="11.472" y1="1040.735" x2="11.472" y2="1032.711"/>
      <line x1="12.072" y1="1041.536" x2="12.072" y2="1033.311"/>
      <line x1="12.672" y1="1042.338" x2="12.672" y2="1033.911"/>
      <line x1="13.272" y1="1043.045" x2="13.272" y2="1034.511"/>
      <line x1="13.872" y1="1043.740" x2="13.872" y2="1035.111"/>
      <line x1="14.472" y1="1044.434" x2="14.472" y2="1035.711"/>
      <line x1="15.072" y1="1045.106" x2="15.072" y2="1036.311"/>
      <line x1="15.672" y1="1045.752" x2="15.672" y2="1036.911"/>
      <line x1="16.272" y1="1046.375" x2="16.272" y2="1037.511"/>
      <line x1="16.872" y1="1046.975" x2="16.872" y2="1038.111"/>
      <line x1="17.472" y1="1047.541" x2="17.472" y2="1038.711"/>
      <line x1="18.072" y1="1048.107" x2="18.072" y2="1039.311"/>
      <line x1="18.672" y1="1048.673" x2="18.672" y2="1039.911"/>
      <line x1="19.272" y1="1049.239" x2="19.272" y2="1040.511"/>
      <line x1="19.872" y1="1049.786" x2="19.872" y2="1041.111"/>
      <line x1="20.472" y1="1050.258" x2="20.472" y2="1041.711"/>
      <line x1="21.072" y1="1050.652" x2="21.072" y2="1042.311"/>
      <line x1="21.672" y1="1050.970" x2="21.672" y2="1042.911"/>
      <line x1="22.272" y1="1051.260" x2="22.272" y2="1043.511"/>
      <line x1="22.872" y1="1051.461" x2="22.872" y2="1044.111"/>
      <line x1="23.472" y1="1051.662" x2="23.472" y2="1044.711"/>
      <line x1="24.072" y1="1051.751" x2="24.072" y2="1045.311"/>
      <line x1="24.672" y1="1051.839" x2="24.672" y2="1045.911"/>
      <line x1="25.272" y1="1051.913" x2="25.272" y2="1046.511"/>
      <line x1="25.872" y1="1051.968" x2="25.872" y2="1047.111"/>
      <line x1="26.472" y1="1052.023" x2="26.472" y2="1047.711"/>
      <line x1="27.072" y1="1052.073" x2="27.072" y2="1048.311"/>
      <line x1="27.672" y1="1052.121" x2="27.672" y2="1048.911"/>
      <line x1="28.272" y1="1052.179" x2="28.272" y2="1049.511"/>
      <line x1="28.872" y1="1052.243" x2="28.872" y2="1050.111"/>
      <line x1="29.472" y1="1052.308" x2="29.472" y2="1050.711"/>
      <line x1="30.072" y1="1052.372" x2="30.072" y2="1051.311"/>
      <line x1="30.672" y1="1052.392" x2="30.672" y2="1051.911"/>
      <line x1="69.344" y1="1096.620" x2="69.344" y2="1090.583"/>
      <line x1="69.944" y1="1098.198" x2="69.944" y2="1091.183"/>
      <line x1="70.544" y1="1099.188" x2="70.544" y2="1091.783"/>
      <line x1="71.144" y1="1099.926" x2="71.144" y2="1092.383"/>
      <line x1="71.744" y1="1100.581" x2="71.744" y2="1092.983"/>
      <line x1="72.344" y1="1101.199" x2="72.344" y2="1093.583"/>
      <line x1="72.944" y1="1101.805" x2="72.944" y2="1094.183"/>
      <line x1="73.544" y1="1102.399" x2="73.544" y2="1094.783"/>
      <line x1="74.144" y1="1102.985" x2="74.144" y2="1095.383"/>
      <line x1="74.744" y1="1103.545" x2="74.744" y2="1095.983"/>
      <line x1="75.344" y1="1104.084" x2="75.344" y2="1096.583"/>
      <line x1="75.944" y1="1104.623" x2="75.944" y2="1097.183"/>
      <line x1="76.544" y1="1105.163" x2="76.544" y2="1097.783"/>
      <line x1="77.144" y1="1105.702" x2="77.144" y2="1098.383"/>
      <line x1="77.744" y1="1106.241" x2="77.744" y2="1098.983"/>
      <line x1="78.344" y1="1106.762" x2="78.344" y2="1099.583"/>
      <line x1="78.944" y1="1107.244" x2="78.944" y2="1100.183"/>
      <line x1="79.544" y1="1107.725" x2="79.544" y2="1100.783"/>
      <line x1="80.144" y1="1108.205" x2="80.144" y2="1101.383"/>
      <line x1="80.744" y1="1108.670" x2="80.744" y2="1101.983"/>
      <line x1="81.344" y1="1109.115" x2="81.344" y2="1102.583"/>
      <line x1="81.944" y1="1109.555" x2="81.944" y2="1103.183"/>
      <line x1="82.544" y1="1109.995" x2="82.544" y2="1103.783"/>
      <line x1="83.144" y1="1110.372" x2="83.144" y2="1104.383"/>
      <line x1="83.744" y1="1110.731" x2="83.744" y2="1104.983"/>
      <line x1="84.344" y1="1111.057" x2="84.344" y2="1105.583"/>
      <line x1="84.944" y1="1111.328" x2="84.944" y2="1106.183"/>
      <line x1="85.544" y1="1111.526" x2="85.544" y2="1106.783"/>
      <line x1="86.144" y1="1111.695" x2="86.144" y2="1107.383"/>
      <line x1="86.744" y1="1111.823" x2="86.744" y2="1107.983"/>
      <line x1="87.344" y1="1111.869" x2="87.344" y2="1108.583"/>
      <line x1="87.944" y1="1111.835" x2="87.944" y2="1109.183"/>
      <line x1="88.544" y1="1111.748" x2="88.544" y2="1109.783"/>
      <line x1="89.144" y1="1111.616" x2="89.144" y2="1110.383"/>
      <line x1="89.744" y1="1111.367" x2="89.744" y2="1110.983"/>
      <line x1="102.275" y1="983.563" x2="102.275" y2="983.563"/>
      <line x1="69.282" y1="1090.521" x2="69.282" y2="1090.521"/>
    </g>
    <g stroke="#1976D2" stroke-width="0.4">
      <polyline points="151.335,1041.742 151.748,1041.084 152.708,1039.193 153.367,1037.166 153.698,1035.084 153.698,1032.998 153.374,1030.967 152.962,1029.618 152.752,1028.983 151.822,1027.201 150.628,1025.610 150.533,1025.517 150.174,1025.094 149.596,1024.495 147.623,1022.384 147.378,1022.142 146.669,1021.569 146.291,1021.198 144.885,1020.103 143.385,1019.147 142.661,1018.765 141.804,1018.336 141.107,1018.006 138.766,1016.994 137.613,1016.453 135.992,1015.659 134.422,1014.845 133.312,1014.241 131.438,1013.126 130.766,1012.709 128.385,1011.033 126.165,1009.206 124.071,1007.258 120.161,1003.101 116.596,998.626 114.985,996.248 113.496,993.754 113.150,993.091 112.587,991.970 111.566,990.062 110.677,988.601 109.703,987.194 108.087,985.168 107.374,984.317 107.083,984.027 106.943,983.869 106.552,983.492 105.974,983.022 105.503,982.697 105.342,982.592 104.666,982.225 103.953,981.907 103.203,981.639 102.422,981.426 101.616,981.270 100.788,981.174 99.946,981.139 99.095,981.167 98.241,981.259 97.391,981.417 96.555,981.639 95.750,981.912 91.154,983.732 93.718,986.296 94.760,985.660 101.622,992.522 100.662,993.240 126.337,1018.915 127.068,1017.968 148.808,1039.708 148.137,1040.715 150.506,1043.084 151.335,1041.742" fill="none"/>
      <polyline points="150.825,1041.425 151.226,1040.788 152.152,1038.963 152.782,1037.026 153.098,1035.036 153.098,1033.046 152.788,1031.102 152.390,1029.799 152.198,1029.217 151.313,1027.522 150.174,1026.006 150.093,1025.925 149.729,1025.497 149.161,1024.908 147.193,1022.802 146.977,1022.590 146.269,1022.017 145.895,1021.650 144.538,1020.594 143.083,1019.666 142.387,1019.299 141.541,1018.876 140.859,1018.552 138.520,1017.541 137.353,1016.994 135.722,1016.195 134.141,1015.375 133.016,1014.763 131.126,1013.639 130.434,1013.210 128.021,1011.510 125.770,1009.657 123.648,1007.684 119.707,1003.494 116.112,998.981 114.479,996.570 112.972,994.046 112.616,993.365 112.054,992.246 111.045,990.360 110.173,988.928 109.221,987.553 107.622,985.547 106.931,984.722 106.646,984.438 106.510,984.284 106.154,983.942 105.614,983.502 105.169,983.196 105.034,983.108 104.400,982.764 103.729,982.464 103.023,982.212 102.286,982.011 101.524,981.864 100.741,981.772 99.944,981.739 99.138,981.766 98.328,981.853 97.523,982.003 96.728,982.214 95.957,982.475 92.224,983.954 93.809,985.538 94.850,984.902 102.536,992.588 101.576,993.306 126.279,1018.008 127.009,1017.061 149.580,1039.632 148.909,1040.638 150.394,1042.123 150.825,1041.425" fill="none"/>
      <polyline points="150.703,1040.492 151.596,1038.733 152.196,1036.885 152.498,1034.989 152.498,1033.093 152.202,1031.238 151.818,1029.981 151.643,1029.451 150.804,1027.843 149.721,1026.402 149.652,1026.334 149.284,1025.900 148.726,1025.321 146.763,1023.221 146.577,1023.038 145.870,1022.466 145.499,1022.102 144.192,1021.085 142.781,1020.185 142.113,1019.833 141.278,1019.415 140.611,1019.099 138.273,1018.088 137.094,1017.535 135.452,1016.730 133.859,1015.904 132.719,1015.284 130.815,1014.152 130.103,1013.710 127.657,1011.988 125.375,1010.109 123.225,1008.110 119.253,1003.887 115.629,999.337 113.972,996.893 112.448,994.339 112.082,993.638 111.522,992.522 110.524,990.657 109.670,989.255 108.739,987.911 107.157,985.927 106.488,985.128 106.209,984.849 106.076,984.699 105.756,984.392 105.254,983.983 104.835,983.694 104.726,983.624 104.134,983.302 103.506,983.022 102.843,982.785 102.150,982.596 101.432,982.457 100.694,982.371 99.941,982.339 99.180,982.365 98.415,982.447 97.655,982.588 96.902,982.788 96.163,983.039 94.835,983.565 93.294,984.175 93.899,984.780 94.940,984.144 103.450,992.654 102.491,993.371 126.221,1017.101 126.951,1016.154 150.352,1039.555 149.681,1040.562 150.282,1041.162 150.703,1040.492" fill="none"/>
      <polyline points="151.039,1038.503 151.611,1036.744 151.898,1034.941 151.898,1033.140 151.616,1031.373 151.246,1030.162 151.089,1029.686 150.295,1028.165 149.268,1026.797 149.212,1026.742 148.839,1026.303 148.291,1025.734 146.333,1023.639 146.177,1023.486 145.470,1022.914 145.103,1022.554 143.846,1021.575 142.480,1020.705 141.838,1020.366 141.015,1019.954 140.364,1019.645 138.027,1018.635 136.835,1018.076 135.182,1017.266 133.578,1016.434 132.422,1015.806 130.503,1014.665 129.772,1014.211 127.293,1012.465 124.980,1010.561 122.801,1008.535 118.799,1004.280 115.145,999.693 113.466,997.215 111.924,994.632 111.548,993.912 110.989,992.799 110.003,990.955 109.167,989.583 108.258,988.269 106.693,986.307 106.046,985.534 105.771,985.261 105.643,985.115 105.358,984.841 104.894,984.463 104.501,984.193 104.419,984.139 103.868,983.840 103.283,983.579 102.663,983.358 102.014,983.181 101.340,983.050 100.646,982.969 99.939,982.940 99.222,982.964 98.503,983.041 97.786,983.174 97.075,983.363 96.370,983.602 95.566,983.921 104.365,992.719 103.405,993.437 126.162,1016.195 126.893,1015.248 150.740,1039.094 151.039,1038.503" fill="none"/>
      <polyline points="10.592,1028.861 7.826,1026.095 6.601,1027.382 6.234,1027.685 5.954,1028.056 5.810,1028.212 5.675,1028.385 5.389,1028.795 5.063,1029.470 4.842,1030.142 4.752,1030.549 4.683,1031.247 4.678,1031.811 4.697,1032.062 4.930,1033.278 5.126,1033.803 5.244,1034.012 5.640,1034.943 5.953,1035.589 7.484,1038.504 9.172,1041.167 11.034,1043.654 11.401,1044.092 13.046,1045.995 13.879,1046.918 15.155,1048.243 18.377,1051.281 19.197,1051.928 19.739,1052.323 21.293,1053.146 22.982,1053.713 24.776,1053.976 26.494,1054.133 27.705,1054.230 31.146,1054.599 31.843,1054.636 32.361,1054.623 32.456,1054.629 32.890,1054.586 33.043,1054.585 33.409,1054.518 33.611,1054.501 33.916,1054.416 34.157,1054.376 34.407,1054.279 34.674,1054.208 35.527,1053.796 31.515,1049.784" fill="none"/>
      <polyline points="31.515,1049.784 10.592,1028.861" fill="none"/>
      <polyline points="10.204,1029.322 7.836,1026.954 7.010,1027.822 6.671,1028.102 6.415,1028.442 6.268,1028.600 6.159,1028.741 5.908,1029.099 5.621,1029.695 5.421,1030.300 5.346,1030.644 5.283,1031.280 5.278,1031.791 5.293,1031.983 5.510,1033.116 5.671,1033.549 5.783,1033.745 6.186,1034.695 6.488,1035.319 8.004,1038.204 9.667,1040.826 11.505,1043.281 11.858,1043.703 13.496,1045.598 14.318,1046.508 15.577,1047.816 18.769,1050.827 19.560,1051.450 20.058,1051.813 21.531,1052.593 23.122,1053.127 24.847,1053.380 26.546,1053.536 27.761,1053.633 31.194,1054.001 31.852,1054.036 32.372,1054.022 32.445,1054.027 32.858,1053.986 32.986,1053.985 33.330,1053.922 33.505,1053.908 33.785,1053.830 33.997,1053.794 34.487,1053.605 31.051,1050.169" fill="none"/>
      <polyline points="31.051,1050.169 10.204,1029.322" fill="none"/>
      <polyline points="32.383,1053.422 32.434,1053.425 33.366,1053.332 7.847,1027.813 7.420,1028.261 7.107,1028.520 6.875,1028.828 6.725,1028.989 6.642,1029.097 6.428,1029.403 6.178,1029.921 6.001,1030.459 5.939,1030.738 5.882,1031.312 5.878,1031.771 5.888,1031.903 6.089,1032.953 6.217,1033.294 6.321,1033.479 6.733,1034.446 7.024,1035.048 8.524,1037.903 10.161,1040.485 11.975,1042.909 12.315,1043.314 13.945,1045.201 14.757,1046.099 15.999,1047.389 19.162,1050.372 19.922,1050.971 20.376,1051.302 21.768,1052.040 23.262,1052.541 24.918,1052.784 26.597,1052.938 27.817,1053.035 31.242,1053.403 31.860,1053.435 32.383,1053.422" fill="none"/>
      <polyline points="31.623,1052.437 7.861,1028.676 7.544,1028.937 7.336,1029.214 7.183,1029.378 7.125,1029.453 6.947,1029.707 6.736,1030.146 6.580,1030.618 6.533,1030.833 6.482,1031.344 6.479,1031.751 6.484,1031.824 6.669,1032.791 6.762,1033.040 6.860,1033.213 7.279,1034.198 7.560,1034.778 9.044,1037.602 10.655,1040.144 12.446,1042.536 12.772,1042.925 14.395,1044.804 15.195,1045.690 16.421,1046.963 19.554,1049.917 20.285,1050.493 20.695,1050.792 22.006,1051.487 23.402,1051.955 24.989,1052.188 26.648,1052.340 27.872,1052.438 31.440,1052.820 31.623,1052.437" fill="none"/>
      <polyline points="69.158,1087.427 67.257,1085.526 67.088,1086.306 66.963,1086.761 66.850,1087.415 66.754,1088.360 66.763,1088.998 66.721,1089.543 66.751,1089.801 66.842,1092.151 67.036,1095.559 67.081,1095.791 67.095,1096.041 67.125,1096.252 67.249,1096.914 67.302,1097.134 67.482,1097.758 67.645,1098.263 67.771,1098.589 68.597,1100.128 69.370,1101.064 69.700,1101.491 71.192,1103.026 72.499,1104.318 73.098,1104.889 76.541,1107.983 77.041,1108.410 78.929,1109.922 79.609,1110.446 81.389,1111.751 81.579,1111.883 83.070,1112.774 83.318,1112.886 83.824,1113.140 84.579,1113.446 85.348,1113.643 85.963,1113.844 86.247,1113.889 87.132,1113.972 87.547,1113.966 87.889,1113.934 88.328,1113.941 89.743,1113.641 90.694,1113.247 91.175,1112.986 92.166,1112.286 92.504,1111.981 93.109,1111.378 89.920,1108.189" fill="none"/>
      <polyline points="89.920,1108.189 69.158,1087.427" fill="none"/>
      <polyline points="68.773,1087.891 67.583,1086.701 67.445,1087.497 67.354,1088.386 67.363,1089.017 67.323,1089.531 67.349,1089.755 67.442,1092.123 67.633,1095.485 67.677,1095.717 67.693,1095.982 67.717,1096.155 67.836,1096.788 67.883,1096.980 68.056,1097.583 68.211,1098.062 68.318,1098.338 69.097,1099.792 69.839,1100.690 70.154,1101.098 71.618,1102.604 72.916,1103.887 73.506,1104.449 76.937,1107.532 77.423,1107.948 79.300,1109.450 79.970,1109.967 81.737,1111.263 81.904,1111.378 83.348,1112.241 83.576,1112.344 84.071,1112.593 84.767,1112.875 85.516,1113.067 86.104,1113.259 86.322,1113.293 87.156,1113.371 87.514,1113.366 87.866,1113.334 88.270,1113.340 89.564,1113.065 90.435,1112.705 90.858,1112.475 91.790,1111.816 92.268,1111.386 89.460,1108.577" fill="none"/>
      <polyline points="89.460,1108.577 68.773,1087.891" fill="none"/>
      <polyline points="87.482,1112.767 87.843,1112.733 88.212,1112.739 89.386,1112.490 90.177,1112.162 90.541,1111.965 91.395,1111.361 67.947,1087.914 67.963,1089.035 67.926,1089.520 67.948,1089.709 68.041,1092.094 68.230,1095.412 68.274,1095.643 68.291,1095.922 68.310,1096.058 68.423,1096.662 68.463,1096.827 68.630,1097.408 68.776,1097.861 68.864,1098.087 69.598,1099.456 70.308,1100.315 70.608,1100.704 72.044,1102.181 73.334,1103.457 73.913,1104.008 77.333,1107.081 77.806,1107.486 79.671,1108.979 80.330,1109.487 82.085,1110.774 82.229,1110.873 83.626,1111.709 83.834,1111.802 84.319,1112.046 84.955,1112.304 85.683,1112.491 86.244,1112.674 86.396,1112.698 87.180,1112.771 87.482,1112.767" fill="none"/>
      <polyline points="87.450,1112.167 87.820,1112.133 88.154,1112.138 89.207,1111.914 89.918,1111.620 90.493,1111.308 68.534,1089.349 68.640,1092.065 68.827,1095.339 68.871,1095.569 68.888,1095.863 68.902,1095.962 69.010,1096.536 69.043,1096.673 69.204,1097.233 69.342,1097.661 69.410,1097.835 70.099,1099.120 70.777,1099.940 71.062,1100.310 72.471,1101.759 73.752,1103.026 74.321,1103.568 77.728,1106.630 78.188,1107.024 80.042,1108.507 80.691,1109.008 82.433,1110.285 82.554,1110.368 83.905,1111.176 84.092,1111.261 84.566,1111.499 85.143,1111.732 85.851,1111.914 86.385,1112.088 86.471,1112.102 87.204,1112.171 87.450,1112.167" fill="none"/>
      <polyline points="32.658,1053.101 32.397,1052.983 31.813,1052.735" fill="none"/>
    </g>
    <g stroke="#C62828" stroke-width="0.4" fill="none">
    </g>
    <g stroke="#EF6C00" stroke-width="0.4" fill="none">
    </g>
  </g>
  <g stroke="#000000" stroke-width="0.4">
    <line x1="300.000" y1="600.000" x2="900.000" y2="600.000"/>
  </g>
  <g stroke="#000000" stroke-width="0.4">
    <line x1="600.000" y1="300.000" x2="600.000" y2="900.000"/>
  </g>
  <circle cx="600.000" cy="600.000" r="600.000" stroke="red" stroke-width="1" fill="none"/>
  </g>
</svg>
