<?xml version="1.0" encoding="UTF-8"?>
<svg xmlns="http://www.w3.org/2000/svg" version="1.1" width="1200" height="1200">
  <g fill="none" stroke-linecap="round" stroke-linejoin="round">
  <text x="10" y="20" font-size="24" fill="#555">Layer 114 Z=34.800 mm</text>
  <g transform="translate(468.735,-415.792)">
    <g stroke="#2E7D32" stroke-width="0.4">
    </g>
    <g stroke="#1976D2" stroke-width="0.4">
      <polyline points="144.600,1031.367 147.184,1033.951 147.401,1033.631 147.963,1032.654 148.707,1031.317 148.771,1031.164 149.081,1030.530 149.196,1030.143 149.273,1029.764 149.316,1029.379 149.326,1028.988 149.302,1028.596 149.244,1028.207 149.154,1027.825 149.029,1027.440 148.847,1027.026 148.697,1026.734 148.432,1026.328 148.263,1026.099 147.789,1025.587 146.273,1024.275 144.956,1023.243 143.661,1022.265 143.247,1021.930 142.222,1021.215 141.491,1020.581 140.109,1019.295 139.133,1018.541 138.442,1017.873 137.494,1017.083 135.219,1014.854 134.641,1014.344 133.929,1013.636 131.784,1011.554 131.120,1010.927 126.480,1006.417 125.910,1005.803 122.218,1002.057 120.320,999.926 119.646,999.189 119.399,998.924 118.943,998.527 118.431,998.178 117.888,997.913 117.253,997.717 116.747,997.643 116.583,997.632 116.094,997.657 115.903,997.692 115.777,997.730 115.476,997.825 115.164,998.008 114.945,998.175 114.012,999.106 113.205,999.972 116.416,1003.184" fill="none"/>
      <polyline points="116.416,1003.184 117.404,1004.172 117.910,1004.072" fill="none"/>
      <polyline points="117.910,1004.072 118.257,1004.003 118.791,1003.881 145.179,1030.269 144.794,1030.956" fill="none"/>
      <polyline points="144.794,1030.956 144.576,1031.343 144.600,1031.367" fill="none"/>
      <polyline points="147.441,1032.359 148.167,1031.054 148.225,1030.915 148.520,1030.311 148.614,1029.997 148.680,1029.671 148.717,1029.338 148.725,1028.999 148.704,1028.659 148.654,1028.320 148.575,1027.987 148.467,1027.654 148.305,1027.284 148.177,1027.036 147.939,1026.670 147.801,1026.483 147.371,1026.019 145.891,1024.738 144.590,1023.718 143.292,1022.737 142.886,1022.410 141.853,1021.689 141.090,1021.028 139.720,1019.753 138.740,1018.996 138.041,1018.320 137.092,1017.529 134.811,1015.293 134.230,1014.782 133.508,1014.064 131.369,1011.988 130.704,1011.360 126.051,1006.836 125.477,1006.218 121.780,1002.467 119.875,1000.328 119.205,999.596 118.982,999.357 118.575,999.003 118.129,998.698 117.667,998.473 117.120,998.304 116.684,998.240 116.579,998.233 116.164,998.254 116.043,998.277 115.953,998.303 115.721,998.377 115.500,998.507 115.342,998.628 114.444,999.524 114.039,999.958 117.602,1003.521 118.132,1003.416 118.981,1003.222 145.925,1030.167 145.322,1031.241 147.075,1032.994 147.441,1032.359" fill="none"/>
      <polyline points="147.626,1030.791 147.678,1030.667 147.959,1030.092 148.031,1029.852 148.087,1029.578 148.118,1029.297 148.125,1029.010 148.107,1028.721 148.064,1028.433 147.997,1028.148 147.906,1027.867 147.763,1027.542 147.658,1027.338 147.446,1027.013 147.338,1026.866 146.953,1026.451 145.510,1025.201 144.224,1024.194 142.922,1023.210 142.525,1022.890 141.484,1022.163 140.689,1021.474 139.332,1020.211 138.346,1019.451 137.640,1018.766 136.689,1017.974 134.402,1015.733 133.820,1015.220 133.088,1014.492 130.954,1012.421 130.289,1011.794 125.622,1007.256 125.043,1006.633 121.342,1002.878 119.429,1000.730 118.765,1000.004 118.564,999.789 118.208,999.478 117.826,999.218 117.445,999.032 116.987,998.891 116.620,998.837 116.574,998.834 116.234,998.852 116.183,998.861 116.129,998.877 115.967,998.928 115.835,999.005 115.738,999.080 114.873,999.943 117.800,1002.870 118.007,1002.829 119.170,1002.564 146.671,1030.064 146.068,1031.138 146.945,1032.016 147.626,1030.791" fill="none"/>
      <polyline points="147.519,1029.256 147.525,1029.022 147.510,1028.784 147.474,1028.546 147.419,1028.310 147.344,1028.081 147.221,1027.800 147.139,1027.640 146.953,1027.355 146.875,1027.249 146.536,1026.883 145.128,1025.665 143.858,1024.670 142.553,1023.683 142.165,1023.370 141.115,1022.637 140.288,1021.920 139.147,1020.858 138.738,1021.282 147.437,1029.982 147.519,1029.256" fill="none"/>
      <polyline points="119.619,1001.846 118.984,1001.132 118.324,1000.411 118.147,1000.221 117.841,999.954 117.524,999.738 117.224,999.592 116.855,999.478 116.565,999.435 116.312,999.448 116.195,999.485 116.134,999.532 115.722,999.944 117.995,1002.217 119.619,1001.846" fill="none"/>
      <polyline points="118.583,1001.775 117.769,1000.923 117.618,1000.767 117.383,1000.547 117.161,1000.363 116.324,999.766" fill="none"/>
      <polyline points="138.725,1020.863 137.837,1020.083 137.796,1020.044 137.104,1019.363 136.202,1018.540 136.176,1018.515 133.905,1016.267 133.347,1015.743 133.330,1015.726 132.595,1014.994 130.483,1012.913" fill="none"/>
      <polyline points="130.483,1012.913 129.829,1012.278 129.825,1012.274 125.183,1007.697 125.172,1007.685 124.583,1007.074 120.869,1003.333 120.856,1003.320 119.731,1002.128" fill="none"/>
      <polyline points="147.224,1029.058 146.575,1028.108 146.503,1028.010 146.325,1027.790 146.282,1027.740 145.995,1027.442 144.675,1026.214 143.483,1025.157 142.246,1024.081" fill="none"/>
      <polyline points="142.246,1024.081 142.241,1024.076 141.879,1023.750 140.894,1022.926 140.889,1022.921 140.747,1022.789" fill="none"/>
      <polyline points="147.245,1030.214 147.091,1030.530 146.658,1031.305" fill="none"/>
    </g>
    <g stroke="#C62828" stroke-width="0.4" fill="none">
    </g>
    <g stroke="#EF6C00" stroke-width="0.4" fill="none">
    </g>
  </g>
  <g stroke="#000000" stroke-width="0.4">
    <line x1="300.000" y1="600.000" x2="900.000" y2="600.000"/>
  </g>
  <g stroke="#000000" stroke-width="0.4">
    <line x1="600.000" y1="300.000" x2="600.000" y2="900.000"/>
  </g>
  <circle cx="600.000" cy="600.000" r="600.000" stroke="red" stroke-width="1" fill="none"/>
  </g>
</svg>
