<?xml version="1.0" encoding="UTF-8"?>
<svg xmlns="http://www.w3.org/2000/svg" version="1.1" width="1200" height="1200">
  <g fill="none" stroke-linecap="round" stroke-linejoin="round">
  <text x="10" y="20" font-size="24" fill="#555">Layer 110 Z=34.000 mm</text>
  <g transform="translate(470.872,-414.268)">
    <g stroke="#2E7D32" stroke-width="0.4">
      <line x1="111.378" y1="996.070" x2="111.378" y2="994.595"/>
      <line x1="111.978" y1="996.229" x2="111.978" y2="994.629"/>
      <line x1="110.778" y1="995.470" x2="110.778" y2="994.662"/>
      <line x1="112.578" y1="996.061" x2="112.578" y2="994.753"/>
      <line x1="110.178" y1="994.870" x2="110.178" y2="994.858"/>
      <line x1="113.178" y1="996.193" x2="113.178" y2="994.949"/>
      <line x1="113.778" y1="996.793" x2="113.778" y2="995.215"/>
      <line x1="114.378" y1="997.393" x2="114.378" y2="995.560"/>
      <line x1="114.978" y1="997.993" x2="114.978" y2="996.005"/>
      <line x1="115.578" y1="998.593" x2="115.578" y2="996.589"/>
      <line x1="116.178" y1="998.737" x2="116.178" y2="997.363"/>
      <line x1="116.778" y1="998.209" x2="116.778" y2="998.141"/>
      <line x1="140.242" y1="1023.257" x2="140.242" y2="1021.589"/>
      <line x1="139.642" y1="1022.657" x2="139.642" y2="1022.016"/>
      <line x1="140.842" y1="1023.857" x2="140.842" y2="1022.017"/>
      <line x1="141.442" y1="1024.457" x2="141.442" y2="1022.446"/>
      <line x1="142.042" y1="1025.057" x2="142.042" y2="1022.875"/>
      <line x1="142.642" y1="1025.657" x2="142.642" y2="1023.295"/>
      <line x1="143.242" y1="1026.257" x2="143.242" y2="1023.714"/>
      <line x1="143.842" y1="1026.857" x2="143.842" y2="1024.121"/>
      <line x1="144.442" y1="1027.457" x2="144.442" y2="1024.533"/>
      <line x1="145.042" y1="1028.057" x2="145.042" y2="1024.978"/>
      <line x1="145.642" y1="1028.657" x2="145.642" y2="1025.412"/>
      <line x1="146.242" y1="1029.257" x2="146.242" y2="1025.908"/>
      <line x1="146.842" y1="1029.857" x2="146.842" y2="1026.400"/>
      <line x1="147.442" y1="1030.457" x2="147.442" y2="1026.945"/>
      <line x1="148.042" y1="1031.057" x2="148.042" y2="1027.527"/>
      <line x1="148.642" y1="1031.487" x2="148.642" y2="1028.491"/>
    </g>
    <g stroke="#1976D2" stroke-width="0.4">
      <polyline points="111.490,998.546 112.328,998.312 146.499,1032.483 145.871,1033.533 148.389,1036.050 149.955,1033.387 150.281,1032.841 150.542,1032.318 150.677,1032.024 150.832,1031.554 150.945,1031.080 151.017,1030.598 151.049,1030.110 151.039,1029.619 150.989,1029.134 150.900,1028.656 150.772,1028.189 150.606,1027.735 150.406,1027.300 150.172,1026.886 149.908,1026.496 149.619,1026.137 149.347,1025.838 148.076,1024.683 147.656,1024.352 146.766,1023.616 146.357,1023.338 145.422,1022.645 144.722,1022.186 143.259,1021.163 141.202,1019.694 140.709,1019.244 138.698,1017.692 138.589,1017.587 136.503,1015.849 136.328,1015.677 134.251,1013.850 132.061,1011.847 128.048,1007.955 126.017,1005.844 124.089,1003.686 123.205,1002.738 121.228,1000.438 120.767,999.873 117.203,995.253 116.852,994.872 116.441,994.487 115.978,994.114 115.465,993.758 114.892,993.422 114.273,993.121 113.615,992.866 112.926,992.668 112.220,992.538 111.509,992.486 110.812,992.520 110.141,992.645 109.518,992.864 108.971,993.171 108.876,993.237 108.504,993.573 107.207,994.869 110.211,997.873" fill="none"/>
      <polyline points="110.211,997.873 111.017,998.679 111.490,998.546" fill="none"/>
      <polyline points="149.439,1033.081 149.754,1032.553 150.001,1032.060 150.117,1031.804 150.254,1031.390 150.355,1030.966 150.420,1030.534 150.448,1030.097 150.440,1029.656 150.395,1029.220 150.315,1028.791 150.199,1028.371 150.051,1027.964 149.871,1027.574 149.661,1027.202 149.425,1026.853 149.163,1026.527 148.922,1026.263 147.688,1025.141 147.279,1024.819 146.405,1024.097 146.010,1023.828 145.078,1023.138 144.385,1022.683 142.912,1021.653 140.824,1020.161 140.323,1019.704 138.305,1018.147 138.187,1018.033 136.100,1016.294 135.920,1016.117 133.850,1014.297 131.649,1012.283 127.623,1008.379 125.577,1006.252 123.646,1004.090 122.758,1003.139 120.768,1000.824 120.297,1000.245 116.744,995.640 116.426,995.295 116.047,994.940 115.618,994.594 115.142,994.264 114.609,993.951 114.033,993.671 113.423,993.435 112.789,993.253 112.143,993.134 111.501,993.087 110.882,993.117 110.297,993.226 109.766,993.413 109.290,993.680 109.250,993.707 108.917,994.008 108.056,994.869 111.194,998.007 112.504,997.639 147.254,1032.390 146.627,1033.440 148.265,1035.078 149.439,1033.081" fill="none"/>
      <polyline points="148.923,1032.775 149.228,1032.265 149.459,1031.801 149.558,1031.585 149.676,1031.226 149.765,1030.852 149.823,1030.470 149.848,1030.083 149.840,1029.692 149.801,1029.307 149.729,1028.926 149.627,1028.554 149.496,1028.193 149.336,1027.847 149.151,1027.518 148.942,1027.210 148.706,1026.917 148.498,1026.688 147.300,1025.600 146.902,1025.286 146.044,1024.577 145.662,1024.317 144.735,1023.630 144.049,1023.180 142.566,1022.143 140.446,1020.628 139.937,1020.164 137.912,1018.601 137.786,1018.480 135.697,1016.739 135.511,1016.557 133.450,1014.744 131.238,1012.720 127.197,1008.802 125.137,1006.660 123.202,1004.495 122.311,1003.539 120.308,1001.209 119.827,1000.618 116.285,996.027 115.999,995.717 115.653,995.393 115.258,995.075 114.818,994.770 114.325,994.480 113.793,994.222 113.232,994.004 112.652,993.838 112.067,993.730 111.494,993.688 110.952,993.714 110.453,993.808 110.014,993.962 109.619,994.183 109.331,994.443 108.905,994.869 111.370,997.334 112.680,996.967 148.010,1032.297 147.382,1033.346 148.141,1034.105 148.923,1032.775" fill="none"/>
      <polyline points="148.917,1031.543 148.998,1031.366 149.099,1031.062 149.176,1030.738 149.226,1030.406 149.248,1030.069 149.241,1029.729 149.206,1029.393 149.144,1029.061 149.055,1028.736 148.940,1028.422 148.802,1028.120 148.640,1027.834 148.459,1027.567 148.250,1027.308 148.073,1027.112 146.912,1026.058 146.525,1025.753 145.684,1025.057 145.315,1024.806 144.392,1024.122 143.712,1023.677 142.220,1022.633 140.069,1021.096 139.551,1020.624 137.518,1019.056 137.385,1018.927 135.295,1017.185 135.103,1016.997 133.049,1015.190 130.827,1013.157 126.772,1009.225 124.697,1007.068 122.759,1004.900 121.864,1003.940 119.848,1001.594 119.356,1000.991 115.826,996.414 115.573,996.140 115.259,995.847 114.899,995.556 114.495,995.276 114.041,995.010 113.553,994.772 113.040,994.574 112.514,994.422 111.990,994.326 111.486,994.289 111.022,994.312 110.608,994.389 110.262,994.511 109.706,994.822 111.546,996.662 112.856,996.295 148.647,1032.085 148.917,1031.543" fill="none"/>
      <polyline points="124.419,1007.324 122.420,1005.209 121.507,1004.264 121.502,1004.258 119.391,1001.982 119.385,1001.976" fill="none"/>
      <polyline points="119.385,1001.976 118.858,1001.392 118.852,1001.385 117.712,1000.088" fill="none"/>
      <polyline points="117.712,1000.088 116.571,998.791" fill="none"/>
      <polyline points="139.499,1021.732 139.012,1021.266 138.053,1020.423 137.094,1019.579" fill="none"/>
      <polyline points="137.094,1019.579 137.063,1019.551 136.936,1019.426 134.935,1017.598 134.920,1017.584 134.731,1017.397 132.744,1015.533" fill="none"/>
      <polyline points="132.744,1015.533 132.741,1015.531 130.559,1013.443 130.557,1013.441 127.345,1010.279" fill="none"/>
      <polyline points="148.543,1032.406 147.919,1033.459" fill="none"/>
    </g>
    <g stroke="#C62828" stroke-width="0.4" fill="none">
    </g>
    <g stroke="#EF6C00" stroke-width="0.4" fill="none">
    </g>
  </g>
  <g stroke="#000000" stroke-width="0.4">
    <line x1="300.000" y1="600.000" x2="900.000" y2="600.000"/>
  </g>
  <g stroke="#000000" stroke-width="0.4">
    <line x1="600.000" y1="300.000" x2="600.000" y2="900.000"/>
  </g>
  <circle cx="600.000" cy="600.000" r="600.000" stroke="red" stroke-width="1" fill="none"/>
  </g>
</svg>
