<?xml version="1.0" encoding="UTF-8"?>
<svg xmlns="http://www.w3.org/2000/svg" version="1.1" width="1200" height="1200">
  <g fill="none" stroke-linecap="round" stroke-linejoin="round">
  <text x="10" y="20" font-size="24" fill="#555">Layer 105 Z=33.000 mm</text>
  <g transform="translate(472.981,-412.770)">
    <g stroke="#2E7D32" stroke-width="0.4">
      <line x1="109.550" y1="989.764" x2="106.616" y2="989.764"/>
      <line x1="110.820" y1="990.364" x2="106.462" y2="990.364"/>
      <line x1="111.639" y1="990.964" x2="106.831" y2="990.964"/>
      <line x1="112.278" y1="991.564" x2="107.432" y2="991.564"/>
      <line x1="112.797" y1="992.164" x2="108.032" y2="992.164"/>
      <line x1="113.253" y1="992.764" x2="108.632" y2="992.764"/>
      <line x1="113.656" y1="993.364" x2="109.232" y2="993.364"/>
      <line x1="114.043" y1="993.964" x2="109.832" y2="993.964"/>
      <line x1="114.422" y1="994.564" x2="110.432" y2="994.564"/>
      <line x1="114.806" y1="995.164" x2="111.032" y2="995.164"/>
      <line x1="115.195" y1="995.764" x2="111.632" y2="995.764"/>
      <line x1="115.604" y1="996.364" x2="112.232" y2="996.364"/>
      <line x1="116.013" y1="996.964" x2="112.832" y2="996.964"/>
      <line x1="116.422" y1="997.564" x2="113.432" y2="997.564"/>
      <line x1="116.830" y1="998.164" x2="114.032" y2="998.164"/>
      <line x1="117.239" y1="998.764" x2="114.632" y2="998.764"/>
      <line x1="117.651" y1="999.364" x2="115.232" y2="999.364"/>
      <line x1="118.081" y1="999.964" x2="115.832" y2="999.964"/>
      <line x1="118.535" y1="1000.564" x2="116.432" y2="1000.564"/>
      <line x1="119.005" y1="1001.164" x2="117.032" y2="1001.164"/>
      <line x1="119.484" y1="1001.764" x2="117.632" y2="1001.764"/>
      <line x1="119.962" y1="1002.364" x2="118.232" y2="1002.364"/>
      <line x1="120.056" y1="1002.964" x2="118.832" y2="1002.964"/>
      <line x1="133.255" y1="1015.676" x2="133.048" y2="1015.676"/>
      <line x1="133.997" y1="1016.276" x2="132.144" y2="1016.276"/>
      <line x1="134.741" y1="1016.876" x2="132.744" y2="1016.876"/>
      <line x1="135.544" y1="1017.476" x2="133.344" y2="1017.476"/>
      <line x1="136.346" y1="1018.076" x2="133.944" y2="1018.076"/>
      <line x1="137.123" y1="1018.676" x2="134.544" y2="1018.676"/>
      <line x1="137.996" y1="1019.276" x2="135.144" y2="1019.276"/>
      <line x1="138.869" y1="1019.876" x2="135.744" y2="1019.876"/>
      <line x1="139.695" y1="1020.476" x2="136.344" y2="1020.476"/>
      <line x1="140.643" y1="1021.076" x2="136.944" y2="1021.076"/>
      <line x1="141.553" y1="1021.676" x2="137.544" y2="1021.676"/>
      <line x1="142.443" y1="1022.276" x2="138.144" y2="1022.276"/>
      <line x1="143.412" y1="1022.876" x2="138.744" y2="1022.876"/>
      <line x1="144.416" y1="1023.476" x2="139.344" y2="1023.476"/>
      <line x1="145.343" y1="1024.076" x2="139.944" y2="1024.076"/>
      <line x1="146.159" y1="1024.676" x2="140.544" y2="1024.676"/>
      <line x1="146.921" y1="1025.276" x2="141.144" y2="1025.276"/>
      <line x1="147.597" y1="1025.876" x2="141.744" y2="1025.876"/>
      <line x1="148.235" y1="1026.476" x2="142.344" y2="1026.476"/>
      <line x1="148.830" y1="1027.076" x2="142.944" y2="1027.076"/>
      <line x1="149.312" y1="1027.676" x2="143.544" y2="1027.676"/>
      <line x1="149.685" y1="1028.276" x2="144.144" y2="1028.276"/>
      <line x1="149.968" y1="1028.876" x2="144.744" y2="1028.876"/>
      <line x1="150.164" y1="1029.476" x2="145.344" y2="1029.476"/>
      <line x1="150.270" y1="1030.076" x2="145.944" y2="1030.076"/>
      <line x1="150.329" y1="1030.676" x2="146.544" y2="1030.676"/>
      <line x1="150.311" y1="1031.276" x2="147.144" y2="1031.276"/>
      <line x1="150.239" y1="1031.876" x2="147.744" y2="1031.876"/>
      <line x1="150.106" y1="1032.476" x2="148.344" y2="1032.476"/>
      <line x1="149.889" y1="1033.076" x2="148.944" y2="1033.076"/>
      <line x1="149.598" y1="1033.676" x2="149.544" y2="1033.676"/>
    </g>
    <g stroke="#1976D2" stroke-width="0.4">
      <polyline points="105.129,993.303 105.875,992.976 147.563,1034.664 146.922,1035.701 149.345,1038.124 149.774,1037.440 151.049,1035.371 151.343,1034.869 151.759,1034.079 152.111,1033.122 152.191,1032.867 152.386,1031.819 152.392,1031.555 152.420,1031.359 152.433,1030.335 152.242,1029.074 151.851,1027.876 151.256,1026.758 150.813,1026.194 150.520,1025.797 149.396,1024.665 148.112,1023.525 146.746,1022.483 145.306,1021.551 144.171,1020.887 143.174,1020.252 142.410,1019.709 140.705,1018.630 140.211,1018.251 138.314,1016.946 138.056,1016.733 135.994,1015.190 133.578,1013.237 132.449,1012.381 130.245,1010.372 128.670,1008.846 127.383,1007.580 126.587,1006.753 125.865,1005.944 123.508,1003.378 123.206,1003.039 122.509,1002.189 120.409,999.557 119.855,998.836 119.315,998.082 116.879,994.506 115.976,993.098 115.644,992.558 115.057,991.671 114.843,991.368 114.625,991.076 113.924,990.237 113.583,989.909 113.325,989.642 112.766,989.164 112.454,988.929 112.096,988.683 111.675,988.425 111.156,988.150 110.862,988.027 110.759,987.972 110.628,987.931 110.393,987.830 110.006,987.703 109.611,987.619 109.329,987.539 108.149,987.417 107.566,987.447 107.047,987.490 106.288,987.661 105.885,987.794 105.152,988.109 105.015,988.140 104.858,988.218 104.649,988.341 104.204,988.563 104.067,988.661 103.575,988.941 103.493,989.009 102.951,989.352 102.383,989.757 101.605,990.384 104.307,993.086" fill="none"/>
      <polyline points="104.307,993.086 104.708,993.487 105.129,993.303" fill="none"/>
      <polyline points="150.535,1035.062 150.819,1034.577 151.210,1033.835 151.543,1032.929 151.608,1032.722 151.787,1031.756 151.793,1031.506 151.821,1031.312 151.833,1030.377 151.656,1029.213 151.297,1028.112 150.751,1027.087 150.336,1026.557 150.063,1026.189 148.983,1025.101 147.730,1023.989 146.401,1022.974 144.992,1022.062 143.859,1021.400 142.839,1020.750 142.076,1020.208 140.361,1019.123 139.858,1018.736 137.952,1017.426 137.685,1017.204 135.625,1015.664 133.208,1013.709 132.065,1012.842 129.834,1010.809 128.251,1009.275 126.956,1008.002 126.147,1007.161 125.420,1006.347 123.062,1003.780 122.750,1003.428 122.043,1002.566 119.936,999.927 119.373,999.193 118.824,998.425 116.378,994.837 115.468,993.417 115.138,992.881 114.561,992.009 114.358,991.720 114.154,991.448 113.485,990.647 113.158,990.333 112.914,990.079 112.390,989.632 112.103,989.416 111.769,989.186 111.378,988.946 110.899,988.693 110.604,988.570 110.526,988.528 110.420,988.495 110.181,988.392 109.850,988.283 109.467,988.202 109.216,988.131 108.133,988.019 107.606,988.046 107.137,988.084 106.448,988.239 106.098,988.355 105.337,988.683 105.216,988.710 105.145,988.745 104.936,988.869 104.515,989.078 104.391,989.167 103.917,989.437 103.846,989.496 103.286,989.850 102.488,990.419 104.843,992.773 106.010,992.262 148.323,1034.576 147.682,1035.613 149.237,1037.167 150.535,1035.062" fill="none"/>
      <polyline points="150.020,1034.753 150.294,1034.286 150.660,1033.590 150.974,1032.735 151.024,1032.576 151.188,1031.694 151.194,1031.456 151.221,1031.266 151.232,1030.418 151.071,1029.352 150.742,1028.348 150.247,1027.415 149.859,1026.921 149.607,1026.581 148.571,1025.537 147.349,1024.452 146.055,1023.465 144.677,1022.573 143.546,1021.912 142.504,1021.248 141.741,1020.706 140.017,1019.615 139.505,1019.221 137.590,1017.905 137.313,1017.676 135.257,1016.138 132.838,1014.181 131.680,1013.304 129.423,1011.247 127.832,1009.704 126.529,1008.424 125.707,1007.569 124.976,1006.750 122.617,1004.182 122.293,1003.818 121.577,1002.943 119.464,1000.297 118.891,999.550 118.332,998.769 115.877,995.168 114.960,993.737 114.632,993.204 114.065,992.347 113.872,992.073 113.683,991.821 113.045,991.057 112.734,990.758 112.502,990.517 112.014,990.100 111.752,989.902 111.443,989.690 111.080,989.468 110.642,989.236 110.346,989.112 110.293,989.084 110.212,989.058 109.968,988.954 109.693,988.863 109.322,988.784 109.102,988.722 108.118,988.620 107.646,988.645 107.228,988.679 106.609,988.818 106.311,988.917 105.522,989.257 105.421,989.279 105.223,989.396 104.826,989.594 104.716,989.673 104.259,989.933 104.199,989.982 103.404,990.486 104.978,992.059 106.144,991.548 149.083,1034.488 148.442,1035.524 149.125,1036.206 150.020,1034.753" fill="none"/>
      <polyline points="150.111,1033.346 150.406,1032.542 150.441,1032.431 150.590,1031.632 150.595,1031.406 150.622,1031.219 150.632,1030.459 150.485,1029.491 150.188,1028.584 149.742,1027.744 149.382,1027.285 149.151,1026.973 148.158,1025.973 146.967,1024.916 145.710,1023.956 144.363,1023.084 143.233,1022.424 142.169,1021.745 141.407,1021.205 139.673,1020.107 139.152,1019.707 137.228,1018.384 136.942,1018.147 134.888,1016.611 132.468,1014.654 131.296,1013.766 129.012,1011.684 127.413,1010.134 126.103,1008.846 125.267,1007.977 124.531,1007.153 122.172,1004.584 121.837,1004.207 121.110,1003.321 118.991,1000.666 118.409,999.908 117.840,999.112 115.377,995.499 114.452,994.056 114.127,993.527 113.570,992.685 113.387,992.425 113.213,992.193 112.606,991.467 112.310,991.182 112.090,990.954 111.638,990.568 111.401,990.389 111.116,990.193 110.783,989.989 110.386,989.779 110.088,989.655 110.060,989.639 110.004,989.622 109.756,989.516 109.536,989.443 109.178,989.367 108.989,989.314 108.102,989.222 107.686,989.244 107.319,989.273 106.769,989.397 106.525,989.478 105.706,989.831 105.643,989.844 105.510,989.924 105.137,990.109 105.040,990.179 104.342,990.575 105.112,991.345 106.279,990.834 149.655,1034.211 150.111,1033.346" fill="none"/>
      <polyline points="105.939,990.071 105.864,990.387 105.858,990.389 105.792,990.422 105.774,990.431 105.429,990.592 105.351,990.637 105.327,990.650 105.003,990.812" fill="none"/>
      <polyline points="132.705,1015.231 131.936,1015.304 130.838,1014.347 130.809,1014.321 128.560,1012.173" fill="none"/>
      <polyline points="128.560,1012.173 128.552,1012.166 126.960,1010.599 126.959,1010.597 125.650,1009.300 125.643,1009.293 124.793,1008.426 124.784,1008.416 124.024,1007.612 121.611,1005.095 121.606,1005.090 121.254,1004.716 121.242,1004.703" fill="none"/>
      <polyline points="121.242,1004.703 120.466,1003.846 120.461,1003.841 120.045,1003.376" fill="none"/>
      <polyline points="149.586,1034.566 148.945,1035.603" fill="none"/>
    </g>
    <g stroke="#C62828" stroke-width="0.4" fill="none">
    </g>
    <g stroke="#EF6C00" stroke-width="0.4" fill="none">
    </g>
  </g>
  <g stroke="#000000" stroke-width="0.4">
    <line x1="300.000" y1="600.000" x2="900.000" y2="600.000"/>
  </g>
  <g stroke="#000000" stroke-width="0.4">
    <line x1="600.000" y1="300.000" x2="600.000" y2="900.000"/>
  </g>
  <circle cx="600.000" cy="600.000" r="600.000" stroke="red" stroke-width="1" fill="none"/>
  </g>
</svg>
