<?xml version="1.0" encoding="UTF-8"?>
<svg xmlns="http://www.w3.org/2000/svg" version="1.1" width="1200" height="1200">
  <g fill="none" stroke-linecap="round" stroke-linejoin="round">
  <text x="10" y="20" font-size="24" fill="#555">Layer 120 Z=36.000 mm</text>
  <g transform="translate(465.024,-419.022)">
    <g stroke="#2E7D32" stroke-width="0.4">
    </g>
    <g stroke="#1976D2" stroke-width="0.4">
      <polyline points="141.274,1026.701 144.041,1029.468 144.308,1029.193 144.690,1028.719 144.903,1028.541 144.950,1028.472 145.112,1028.292 145.269,1028.043 145.396,1027.773 145.439,1027.662 145.482,1027.497 145.530,1027.263 145.557,1026.941 145.529,1026.575 145.293,1025.748 144.979,1025.147 144.703,1024.754 144.258,1024.262 140.942,1021.120 137.571,1017.866 135.898,1016.288 134.165,1014.677 131.088,1011.954 128.805,1009.987 128.304,1009.578 128.072,1009.406 127.600,1009.095 127.373,1008.966 127.148,1008.852 126.928,1008.757 126.715,1008.680 126.508,1008.624 126.307,1008.589 126.114,1008.577 125.926,1008.592 125.748,1008.637 125.628,1008.694 125.494,1008.740 125.422,1008.793 124.721,1009.460 124.627,1009.589 124.395,1009.822 128.440,1013.867" fill="none"/>
      <polyline points="128.440,1013.867 130.094,1015.521 130.610,1015.510 130.683,1015.504" fill="none"/>
      <polyline points="130.683,1015.504 131.680,1015.430 141.008,1024.758 140.772,1025.594" fill="none"/>
      <polyline points="140.772,1025.594 140.639,1026.066 141.274,1026.701" fill="none"/>
      <polyline points="144.260,1028.297 144.454,1028.135 144.476,1028.101 144.632,1027.929 144.742,1027.754 144.844,1027.539 144.866,1027.479 144.897,1027.360 144.935,1027.177 144.955,1026.939 144.936,1026.681 144.733,1025.972 144.465,1025.460 144.233,1025.129 143.829,1024.682 140.528,1021.553 137.157,1018.300 135.488,1016.726 133.762,1015.122 130.693,1012.406 128.419,1010.446 127.935,1010.052 127.728,1009.897 127.286,1009.606 127.089,1009.495 126.893,1009.396 126.707,1009.315 126.534,1009.253 126.377,1009.210 126.237,1009.186 126.119,1009.179 126.023,1009.186 125.952,1009.204 125.856,1009.250 125.787,1009.274 125.228,1009.806 130.337,1014.915 130.581,1014.910 131.910,1014.811 141.682,1024.582 141.312,1025.890 144.018,1028.597 144.260,1028.297" fill="none"/>
      <polyline points="144.293,1027.300 144.313,1027.223 144.341,1027.090 144.354,1026.937 144.342,1026.788 144.173,1026.196 143.951,1025.773 143.763,1025.503 143.399,1025.101 142.421,1024.174 141.985,1025.715 144.061,1027.791 144.293,1027.300" fill="none"/>
      <polyline points="131.832,1014.215 130.299,1012.858 128.033,1010.906 127.755,1010.679 127.372,1011.102 130.579,1014.309 131.832,1014.215" fill="none"/>
      <polyline points="130.892,1013.984 130.026,1013.170 128.865,1012.093" fill="none"/>
      <polyline points="142.143,1024.052 140.070,1022.034 140.068,1022.031 136.728,1018.750 135.086,1017.155 133.396,1015.526" fill="none"/>
      <polyline points="133.396,1015.526 132.286,1014.482" fill="none"/>
      <polyline points="144.043,1027.050 143.366,1026.129 143.211,1025.944 142.886,1025.603 142.449,1025.177" fill="none"/>
    </g>
    <g stroke="#C62828" stroke-width="0.4" fill="none">
    </g>
    <g stroke="#EF6C00" stroke-width="0.4" fill="none">
    </g>
  </g>
  <g stroke="#000000" stroke-width="0.4">
    <line x1="300.000" y1="600.000" x2="900.000" y2="600.000"/>
  </g>
  <g stroke="#000000" stroke-width="0.4">
    <line x1="600.000" y1="300.000" x2="600.000" y2="900.000"/>
  </g>
  <circle cx="600.000" cy="600.000" r="600.000" stroke="red" stroke-width="1" fill="none"/>
  </g>
</svg>
