<?xml version="1.0" encoding="UTF-8"?>
<svg xmlns="http://www.w3.org/2000/svg" version="1.1" width="1200" height="1200">
  <g fill="none" stroke-linecap="round" stroke-linejoin="round">
  <text x="10" y="20" font-size="24" fill="#555">Layer 91 Z=30.200 mm</text>
  <g transform="translate(518.791,-445.181)">
    <g stroke="#2E7D32" stroke-width="0.4">
      <line x1="123.117" y1="1008.389" x2="121.129" y2="1008.389"/>
      <line x1="123.722" y1="1008.989" x2="121.729" y2="1008.989"/>
      <line x1="124.358" y1="1009.589" x2="122.329" y2="1009.589"/>
      <line x1="124.994" y1="1010.189" x2="122.929" y2="1010.189"/>
      <line x1="125.645" y1="1010.789" x2="123.529" y2="1010.789"/>
      <line x1="126.362" y1="1011.389" x2="124.129" y2="1011.389"/>
      <line x1="127.079" y1="1011.989" x2="124.729" y2="1011.989"/>
      <line x1="127.550" y1="1012.589" x2="125.329" y2="1012.589"/>
      <line x1="127.550" y1="1013.189" x2="125.929" y2="1013.189"/>
      <line x1="127.550" y1="1013.789" x2="126.529" y2="1013.789"/>
      <line x1="127.550" y1="1014.389" x2="127.129" y2="1014.389"/>
      <line x1="127.805" y1="1012.589" x2="127.610" y2="1012.589"/>
      <line x1="128.632" y1="1013.189" x2="127.610" y2="1013.189"/>
      <line x1="129.464" y1="1013.789" x2="127.610" y2="1013.789"/>
      <line x1="130.296" y1="1014.389" x2="127.610" y2="1014.389"/>
      <line x1="131.255" y1="1014.989" x2="127.729" y2="1014.989"/>
      <line x1="132.215" y1="1015.589" x2="128.329" y2="1015.589"/>
      <line x1="133.193" y1="1016.189" x2="128.929" y2="1016.189"/>
      <line x1="134.254" y1="1016.789" x2="129.529" y2="1016.789"/>
      <line x1="135.315" y1="1017.389" x2="130.129" y2="1017.389"/>
      <line x1="136.424" y1="1017.989" x2="130.729" y2="1017.989"/>
      <line x1="137.593" y1="1018.589" x2="131.329" y2="1018.589"/>
      <line x1="138.777" y1="1019.189" x2="131.929" y2="1019.189"/>
      <line x1="139.995" y1="1019.789" x2="132.529" y2="1019.789"/>
      <line x1="141.318" y1="1020.389" x2="133.129" y2="1020.389"/>
      <line x1="142.453" y1="1020.989" x2="133.729" y2="1020.989"/>
      <line x1="143.512" y1="1021.589" x2="134.329" y2="1021.589"/>
      <line x1="144.444" y1="1022.189" x2="134.929" y2="1022.189"/>
      <line x1="145.233" y1="1022.789" x2="135.529" y2="1022.789"/>
      <line x1="145.959" y1="1023.389" x2="136.129" y2="1023.389"/>
      <line x1="146.570" y1="1023.989" x2="136.729" y2="1023.989"/>
      <line x1="147.185" y1="1024.589" x2="137.329" y2="1024.589"/>
      <line x1="147.766" y1="1025.189" x2="137.929" y2="1025.189"/>
      <line x1="148.347" y1="1025.789" x2="138.529" y2="1025.789"/>
      <line x1="148.918" y1="1026.389" x2="139.129" y2="1026.389"/>
      <line x1="149.410" y1="1026.989" x2="139.729" y2="1026.989"/>
      <line x1="149.865" y1="1027.589" x2="140.329" y2="1027.589"/>
      <line x1="150.270" y1="1028.189" x2="140.929" y2="1028.189"/>
      <line x1="150.585" y1="1028.789" x2="141.529" y2="1028.789"/>
      <line x1="150.892" y1="1029.389" x2="142.129" y2="1029.389"/>
      <line x1="151.093" y1="1029.989" x2="142.729" y2="1029.989"/>
      <line x1="151.293" y1="1030.589" x2="143.329" y2="1030.589"/>
      <line x1="151.436" y1="1031.189" x2="143.929" y2="1031.189"/>
      <line x1="151.534" y1="1031.789" x2="144.529" y2="1031.789"/>
      <line x1="151.633" y1="1032.389" x2="145.129" y2="1032.389"/>
      <line x1="151.640" y1="1032.989" x2="145.729" y2="1032.989"/>
      <line x1="151.640" y1="1033.589" x2="146.329" y2="1033.589"/>
      <line x1="151.624" y1="1034.189" x2="146.929" y2="1034.189"/>
      <line x1="151.531" y1="1034.789" x2="147.529" y2="1034.789"/>
      <line x1="151.438" y1="1035.389" x2="148.129" y2="1035.389"/>
      <line x1="151.298" y1="1035.989" x2="148.729" y2="1035.989"/>
      <line x1="151.104" y1="1036.589" x2="149.329" y2="1036.589"/>
      <line x1="150.910" y1="1037.189" x2="149.929" y2="1037.189"/>
      <line x1="150.624" y1="1037.789" x2="150.529" y2="1037.789"/>
      <line x1="102.513" y1="983.789" x2="101.134" y2="983.789"/>
      <line x1="104.738" y1="984.389" x2="98.598" y2="984.389"/>
      <line x1="105.785" y1="984.989" x2="97.729" y2="984.989"/>
      <line x1="106.538" y1="985.589" x2="98.329" y2="985.589"/>
      <line x1="107.112" y1="986.189" x2="98.929" y2="986.189"/>
      <line x1="107.579" y1="986.789" x2="99.529" y2="986.789"/>
      <line x1="108.044" y1="987.389" x2="100.129" y2="987.389"/>
      <line x1="108.516" y1="987.989" x2="100.729" y2="987.989"/>
      <line x1="108.946" y1="988.589" x2="101.329" y2="988.589"/>
      <line x1="109.352" y1="989.189" x2="101.929" y2="989.189"/>
      <line x1="109.753" y1="989.789" x2="102.529" y2="989.789"/>
      <line x1="110.097" y1="990.389" x2="103.129" y2="990.389"/>
      <line x1="110.442" y1="990.989" x2="103.729" y2="990.989"/>
      <line x1="110.786" y1="991.589" x2="104.329" y2="991.589"/>
      <line x1="111.130" y1="992.189" x2="104.929" y2="992.189"/>
      <line x1="111.464" y1="992.789" x2="105.529" y2="992.789"/>
      <line x1="111.777" y1="993.389" x2="106.129" y2="993.389"/>
      <line x1="112.090" y1="993.989" x2="106.729" y2="993.989"/>
      <line x1="112.403" y1="994.589" x2="107.329" y2="994.589"/>
      <line x1="112.758" y1="995.189" x2="107.929" y2="995.189"/>
      <line x1="113.120" y1="995.789" x2="108.529" y2="995.789"/>
      <line x1="113.481" y1="996.389" x2="109.129" y2="996.389"/>
      <line x1="113.843" y1="996.989" x2="109.729" y2="996.989"/>
      <line x1="114.230" y1="997.589" x2="110.329" y2="997.589"/>
      <line x1="114.639" y1="998.189" x2="110.929" y2="998.189"/>
      <line x1="115.047" y1="998.789" x2="111.529" y2="998.789"/>
      <line x1="115.455" y1="999.389" x2="112.129" y2="999.389"/>
      <line x1="115.892" y1="999.989" x2="112.729" y2="999.989"/>
      <line x1="116.368" y1="1000.589" x2="113.329" y2="1000.589"/>
      <line x1="116.845" y1="1001.189" x2="113.929" y2="1001.189"/>
      <line x1="117.322" y1="1001.789" x2="114.529" y2="1001.789"/>
      <line x1="117.799" y1="1002.389" x2="115.129" y2="1002.389"/>
      <line x1="118.276" y1="1002.989" x2="115.729" y2="1002.989"/>
      <line x1="118.752" y1="1003.589" x2="116.329" y2="1003.589"/>
      <line x1="119.229" y1="1004.189" x2="116.929" y2="1004.189"/>
      <line x1="119.766" y1="1004.789" x2="117.529" y2="1004.789"/>
      <line x1="120.325" y1="1005.389" x2="118.129" y2="1005.389"/>
      <line x1="120.883" y1="1005.989" x2="118.729" y2="1005.989"/>
      <line x1="121.442" y1="1006.589" x2="119.329" y2="1006.589"/>
      <line x1="122.000" y1="1007.189" x2="119.929" y2="1007.189"/>
      <line x1="122.559" y1="1007.789" x2="120.529" y2="1007.789"/>
      <line x1="11.147" y1="1032.499" x2="10.764" y2="1032.499"/>
      <line x1="11.747" y1="1033.099" x2="10.807" y2="1033.099"/>
      <line x1="12.347" y1="1033.699" x2="10.903" y2="1033.699"/>
      <line x1="12.947" y1="1034.299" x2="11.127" y2="1034.299"/>
      <line x1="13.547" y1="1034.899" x2="11.384" y2="1034.899"/>
      <line x1="14.147" y1="1035.499" x2="11.669" y2="1035.499"/>
      <line x1="14.747" y1="1036.099" x2="12.013" y2="1036.099"/>
      <line x1="15.347" y1="1036.699" x2="12.384" y2="1036.699"/>
      <line x1="15.947" y1="1037.299" x2="12.755" y2="1037.299"/>
      <line x1="16.547" y1="1037.899" x2="13.150" y2="1037.899"/>
      <line x1="17.147" y1="1038.499" x2="13.570" y2="1038.499"/>
      <line x1="17.747" y1="1039.099" x2="14.003" y2="1039.099"/>
      <line x1="18.347" y1="1039.699" x2="14.436" y2="1039.699"/>
      <line x1="18.947" y1="1040.299" x2="14.890" y2="1040.299"/>
      <line x1="19.547" y1="1040.899" x2="15.377" y2="1040.899"/>
      <line x1="20.147" y1="1041.499" x2="15.879" y2="1041.499"/>
      <line x1="20.747" y1="1042.099" x2="16.381" y2="1042.099"/>
      <line x1="21.347" y1="1042.699" x2="16.892" y2="1042.699"/>
      <line x1="21.947" y1="1043.299" x2="17.436" y2="1043.299"/>
      <line x1="22.547" y1="1043.899" x2="17.969" y2="1043.899"/>
      <line x1="23.147" y1="1044.499" x2="18.486" y2="1044.499"/>
      <line x1="23.747" y1="1045.099" x2="19.075" y2="1045.099"/>
      <line x1="24.347" y1="1045.699" x2="19.695" y2="1045.699"/>
      <line x1="24.947" y1="1046.299" x2="20.315" y2="1046.299"/>
      <line x1="25.547" y1="1046.899" x2="20.935" y2="1046.899"/>
      <line x1="26.147" y1="1047.499" x2="21.620" y2="1047.499"/>
      <line x1="26.747" y1="1048.099" x2="22.454" y2="1048.099"/>
      <line x1="27.347" y1="1048.699" x2="23.588" y2="1048.699"/>
      <line x1="27.947" y1="1049.299" x2="25.988" y2="1049.299"/>
      <line x1="73.014" y1="1094.366" x2="72.872" y2="1094.366"/>
      <line x1="73.614" y1="1094.966" x2="72.839" y2="1094.966"/>
      <line x1="74.214" y1="1095.566" x2="72.843" y2="1095.566"/>
      <line x1="74.814" y1="1096.166" x2="72.949" y2="1096.166"/>
      <line x1="75.414" y1="1096.766" x2="73.136" y2="1096.766"/>
      <line x1="76.014" y1="1097.366" x2="73.408" y2="1097.366"/>
      <line x1="76.614" y1="1097.966" x2="73.804" y2="1097.966"/>
      <line x1="77.214" y1="1098.566" x2="74.308" y2="1098.566"/>
      <line x1="77.814" y1="1099.166" x2="74.812" y2="1099.166"/>
      <line x1="78.414" y1="1099.766" x2="75.384" y2="1099.766"/>
      <line x1="79.014" y1="1100.366" x2="75.976" y2="1100.366"/>
      <line x1="79.614" y1="1100.966" x2="76.586" y2="1100.966"/>
      <line x1="80.214" y1="1101.566" x2="77.259" y2="1101.566"/>
      <line x1="80.814" y1="1102.166" x2="77.932" y2="1102.166"/>
      <line x1="81.414" y1="1102.766" x2="78.606" y2="1102.766"/>
      <line x1="82.014" y1="1103.366" x2="79.294" y2="1103.366"/>
      <line x1="82.614" y1="1103.966" x2="80.051" y2="1103.966"/>
      <line x1="83.214" y1="1104.566" x2="80.874" y2="1104.566"/>
      <line x1="83.330" y1="1105.166" x2="81.770" y2="1105.166"/>
      <line x1="82.929" y1="1105.766" x2="82.811" y2="1105.766"/>
    </g>
    <g stroke="#1976D2" stroke-width="0.4">
      <polyline points="151.895,1039.913 152.818,1038.113 153.437,1036.201 153.740,1034.245 153.740,1032.266 153.426,1030.347 152.817,1028.523 151.934,1026.843 150.801,1025.349 150.722,1025.270 150.391,1024.882 150.024,1024.492 148.436,1022.864 148.350,1022.795 147.186,1021.651 145.782,1020.553 144.288,1019.591 143.606,1019.231 142.971,1018.848 142.758,1018.737 140.820,1017.858 139.305,1017.108 137.098,1015.975 136.604,1015.706 134.071,1014.273 131.474,1012.650 129.119,1010.951 128.640,1010.557 126.912,1009.111 124.835,1007.154 120.946,1002.974 117.386,998.494 115.770,996.119 114.273,993.635 113.199,991.576 111.506,988.624 110.542,987.201 110.081,986.572 109.500,985.849 108.967,985.143 108.669,984.777 108.399,984.501 108.231,984.310 107.910,983.993 107.373,983.543 106.795,983.131 106.178,982.761 105.528,982.437 104.849,982.162 104.129,981.946 103.395,981.789 102.644,981.688 102.348,981.671 101.095,981.684 100.113,981.776 99.580,981.870 98.828,982.066 98.090,982.330 92.618,984.525 95.193,987.101 96.242,986.472 148.710,1038.940 148.038,1039.945 150.397,1042.304 151.895,1039.913" fill="none"/>
      <polyline points="151.373,1039.617 152.262,1037.882 152.851,1036.062 153.140,1034.199 153.140,1032.315 152.842,1030.492 152.263,1028.760 151.426,1027.166 150.349,1025.745 150.282,1025.679 149.943,1025.282 149.591,1024.907 148.032,1023.308 147.951,1023.243 146.790,1022.102 145.434,1021.043 143.985,1020.110 143.311,1019.754 142.677,1019.371 142.495,1019.276 140.563,1018.400 139.035,1017.644 136.817,1016.505 136.312,1016.230 133.764,1014.789 131.139,1013.148 128.752,1011.427 128.257,1011.019 126.513,1009.560 124.410,1007.577 120.490,1003.366 116.902,998.850 115.264,996.443 113.750,993.928 112.673,991.864 110.996,988.942 110.052,987.547 109.605,986.938 109.027,986.218 108.495,985.514 108.221,985.177 107.960,984.910 107.794,984.723 107.505,984.437 107.006,984.017 106.466,983.633 105.890,983.288 105.281,982.984 104.650,982.729 103.980,982.528 103.293,982.381 102.586,982.286 102.333,982.271 101.126,982.284 100.194,982.371 99.708,982.456 99.005,982.640 98.303,982.892 93.685,984.744 95.286,986.345 96.335,985.716 149.483,1038.864 148.810,1039.869 150.288,1041.347 151.373,1039.617" fill="none"/>
      <polyline points="150.851,1039.320 151.706,1037.651 152.266,1035.923 152.540,1034.153 152.540,1032.364 152.257,1030.636 151.709,1028.996 150.918,1027.489 149.897,1026.142 149.842,1026.088 149.496,1025.682 149.157,1025.322 147.627,1023.753 147.551,1023.691 146.393,1022.554 145.086,1021.533 143.682,1020.629 143.015,1020.277 142.383,1019.894 142.232,1019.816 140.306,1018.942 138.765,1018.179 136.536,1017.036 136.021,1016.755 133.457,1015.305 130.804,1013.646 128.386,1011.902 127.874,1011.481 126.115,1010.009 123.984,1008.000 120.035,1003.757 116.419,999.206 114.759,996.767 113.226,994.222 112.147,992.152 110.487,989.260 109.561,987.892 109.129,987.303 108.553,986.587 108.023,985.884 107.773,985.577 107.520,985.319 107.358,985.135 107.101,984.881 106.638,984.492 106.137,984.136 105.602,983.814 105.035,983.532 104.450,983.296 103.831,983.109 103.190,982.973 102.529,982.884 102.319,982.871 101.157,982.883 100.274,982.966 99.836,983.043 99.183,983.214 98.516,983.453 95.949,984.482 94.752,984.962 95.380,985.590 96.428,984.961 150.255,1038.788 149.583,1039.793 150.180,1040.390 150.851,1039.320" fill="none"/>
      <polyline points="151.150,1037.420 151.680,1035.784 151.940,1034.106 151.940,1032.412 151.673,1030.781 151.156,1029.232 150.410,1027.812 149.444,1026.538 149.402,1026.496 149.049,1026.083 148.724,1025.736 147.222,1024.197 147.151,1024.140 145.997,1023.006 144.738,1022.022 143.379,1021.147 142.720,1020.799 142.088,1020.418 141.969,1020.355 140.049,1019.484 138.495,1018.715 136.256,1017.566 135.730,1017.280 133.150,1015.820 130.470,1014.145 128.019,1012.378 127.491,1011.943 125.716,1010.458 123.558,1008.423 119.580,1004.149 115.935,999.562 114.254,997.090 112.703,994.516 111.620,992.441 109.978,989.578 109.071,988.238 108.653,987.669 108.080,986.955 107.550,986.254 107.325,985.977 107.081,985.728 106.922,985.548 106.696,985.325 106.270,984.967 105.808,984.638 105.313,984.341 104.788,984.080 104.251,983.862 103.681,983.691 103.087,983.564 102.471,983.481 102.304,983.471 101.188,983.483 100.354,983.561 99.964,983.630 99.360,983.787 98.729,984.014 97.016,984.701 150.671,1038.355 151.150,1037.420" fill="none"/>
      <polyline points="26.996,1051.441 28.383,1051.407 28.631,1051.379 29.599,1051.209 29.963,1051.110 30.175,1051.043 30.616,1050.859 30.920,1050.690 31.061,1050.623 31.758,1050.141 10.703,1029.086 9.726,1030.125 9.294,1030.547 9.255,1030.600 8.933,1031.253 8.773,1031.848 8.741,1031.976 8.677,1032.763 8.738,1033.594 8.888,1034.329 8.941,1034.501 9.373,1035.559 9.839,1036.556 9.938,1036.737 11.159,1038.712 11.707,1039.506 12.822,1041.051 13.404,1041.813 15.126,1043.871 15.644,1044.460 16.119,1044.964 16.831,1045.806 17.311,1046.313 18.644,1047.614 20.008,1048.924 20.225,1049.107 20.765,1049.439 21.382,1049.930 21.764,1050.170 22.324,1050.414 22.960,1050.734 23.280,1050.870 24.896,1051.300 26.345,1051.446 26.553,1051.455 26.996,1051.441" fill="none"/>
      <polyline points="26.979,1050.841 28.343,1050.808 28.546,1050.785 29.468,1050.623 29.793,1050.535 29.968,1050.479 30.354,1050.319 30.825,1050.056 10.716,1029.948 10.154,1030.545 9.763,1030.928 9.497,1031.466 9.354,1031.998 9.335,1032.073 9.279,1032.766 9.333,1033.511 9.470,1034.180 9.506,1034.299 9.923,1035.319 10.374,1036.285 10.456,1036.434 11.662,1038.384 12.197,1039.160 13.304,1040.693 13.873,1041.438 15.581,1043.480 16.088,1044.056 16.567,1044.565 17.279,1045.406 17.738,1045.893 19.061,1047.183 20.409,1048.478 20.577,1048.619 21.110,1048.947 21.729,1049.440 22.045,1049.638 22.579,1049.870 23.212,1050.190 23.475,1050.301 25.004,1050.708 26.388,1050.847 26.556,1050.854 26.979,1050.841" fill="none"/>
      <polyline points="26.962,1050.241 28.302,1050.208 28.461,1050.190 29.865,1049.945 10.736,1030.816 10.255,1031.285 10.061,1031.679 9.930,1032.168 9.881,1032.768 9.929,1033.429 10.052,1034.032 10.072,1034.097 10.473,1035.078 10.909,1036.013 10.975,1036.132 12.164,1038.055 12.688,1038.815 13.785,1040.336 14.341,1041.063 16.036,1043.089 16.532,1043.652 17.015,1044.165 17.726,1045.006 18.166,1045.472 19.478,1046.752 20.810,1048.031 20.929,1048.131 21.456,1048.455 22.077,1048.950 22.325,1049.106 22.834,1049.327 23.464,1049.645 23.671,1049.732 25.112,1050.116 26.431,1050.249 26.559,1050.254 26.962,1050.241" fill="none"/>
      <polyline points="26.945,1049.641 28.671,1049.599 10.697,1031.625 10.523,1032.271 10.483,1032.771 10.525,1033.347 10.635,1033.890 11.023,1034.838 11.445,1035.741 11.493,1035.829 12.667,1037.727 13.178,1038.469 14.267,1039.978 14.810,1040.688 16.492,1042.699 16.975,1043.248 17.463,1043.765 18.173,1044.606 18.594,1045.051 19.896,1046.321 21.211,1047.584 21.281,1047.643 21.801,1047.963 22.425,1048.460 22.606,1048.574 23.089,1048.783 23.717,1049.100 23.866,1049.163 25.220,1049.523 26.473,1049.650 26.562,1049.654 26.945,1049.641" fill="none"/>
      <polyline points="86.084,1108.680 87.002,1108.508 87.562,1108.366 87.757,1108.245 88.141,1108.040 89.074,1107.456 71.896,1090.278 71.344,1091.570 71.182,1092.015 70.998,1092.714 70.802,1094.008 70.773,1094.288 70.710,1095.440 70.818,1096.280 70.965,1096.901 71.212,1097.630 71.547,1098.350 72.011,1099.096 73.373,1100.719 74.992,1102.358 77.179,1104.308 78.324,1105.306 80.074,1106.581 81.143,1107.252 82.029,1107.731 83.261,1108.244 84.610,1108.622 84.883,1108.664 85.105,1108.691 86.084,1108.680" fill="none"/>
      <polyline points="86.025,1108.081 86.873,1107.921 87.325,1107.807 87.457,1107.725 88.133,1107.364 72.099,1091.330 71.902,1091.790 71.755,1092.194 71.587,1092.835 71.397,1094.084 71.372,1094.335 71.312,1095.418 71.409,1096.172 71.542,1096.735 71.770,1097.407 72.076,1098.064 72.498,1098.743 73.817,1100.315 75.405,1101.923 77.575,1103.858 78.698,1104.836 80.410,1106.084 81.446,1106.733 82.288,1107.188 83.458,1107.676 84.738,1108.034 84.965,1108.070 85.138,1108.090 86.025,1108.081" fill="none"/>
      <polyline points="85.965,1107.481 87.174,1107.254 72.321,1092.401 72.175,1092.957 71.993,1094.160 71.970,1094.382 71.914,1095.396 72.000,1096.065 72.119,1096.570 72.328,1097.183 72.605,1097.778 72.985,1098.390 74.261,1099.910 75.819,1101.487 77.972,1103.408 79.073,1104.367 80.747,1105.587 81.748,1106.215 82.547,1106.646 83.655,1107.108 84.865,1107.447 85.046,1107.475 85.170,1107.490 85.965,1107.481" fill="none"/>
      <polyline points="85.953,1106.881 72.683,1093.611 72.588,1094.235 72.568,1094.429 72.516,1095.374 72.591,1095.958 72.697,1096.404 72.885,1096.959 73.133,1097.492 73.472,1098.037 74.705,1099.506 76.232,1101.052 78.369,1102.958 79.447,1103.897 81.083,1105.090 82.050,1105.696 82.805,1106.104 83.852,1106.540 84.992,1106.860 85.128,1106.881 85.203,1106.890 85.953,1106.881" fill="none"/>
      <polyline points="85.012,1106.553 83.459,1105.513" fill="none"/>
    </g>
    <g stroke="#C62828" stroke-width="0.4" fill="none">
    </g>
    <g stroke="#EF6C00" stroke-width="0.4" fill="none">
    </g>
  </g>
  <g stroke="#000000" stroke-width="0.4">
    <line x1="300.000" y1="600.000" x2="900.000" y2="600.000"/>
  </g>
  <g stroke="#000000" stroke-width="0.4">
    <line x1="600.000" y1="300.000" x2="600.000" y2="900.000"/>
  </g>
  <circle cx="600.000" cy="600.000" r="600.000" stroke="red" stroke-width="1" fill="none"/>
  </g>
</svg>
