<?xml version="1.0" encoding="UTF-8"?>
<svg xmlns="http://www.w3.org/2000/svg" version="1.1" width="1200" height="1200">
  <g fill="none" stroke-linecap="round" stroke-linejoin="round">
  <text x="10" y="20" font-size="24" fill="#555">Layer 100 Z=32.000 mm</text>
  <g transform="translate(474.599,-412.226)">
    <g stroke="#2E7D32" stroke-width="0.4">
      <line x1="120.419" y1="1005.668" x2="120.419" y2="1005.431"/>
      <line x1="121.019" y1="1006.268" x2="121.019" y2="1005.431"/>
      <line x1="121.619" y1="1006.868" x2="121.619" y2="1005.431"/>
      <line x1="122.219" y1="1007.468" x2="122.219" y2="1005.552"/>
      <line x1="122.819" y1="1008.068" x2="122.819" y2="1006.202"/>
      <line x1="123.419" y1="1008.668" x2="123.419" y2="1006.853"/>
      <line x1="124.019" y1="1009.268" x2="124.019" y2="1007.503"/>
      <line x1="124.619" y1="1009.868" x2="124.619" y2="1008.153"/>
      <line x1="125.219" y1="1010.468" x2="125.219" y2="1008.796"/>
      <line x1="125.819" y1="1011.068" x2="125.819" y2="1009.379"/>
      <line x1="126.419" y1="1011.668" x2="126.419" y2="1009.963"/>
      <line x1="127.019" y1="1012.268" x2="127.019" y2="1010.546"/>
      <line x1="127.619" y1="1012.868" x2="127.619" y2="1011.101"/>
      <line x1="128.219" y1="1013.468" x2="128.219" y2="1011.636"/>
      <line x1="128.819" y1="1014.068" x2="128.819" y2="1012.171"/>
      <line x1="129.419" y1="1014.668" x2="129.419" y2="1012.706"/>
      <line x1="130.019" y1="1015.268" x2="130.019" y2="1013.198"/>
      <line x1="130.619" y1="1015.868" x2="130.619" y2="1013.684"/>
      <line x1="131.219" y1="1016.468" x2="131.219" y2="1014.171"/>
      <line x1="131.819" y1="1017.068" x2="131.819" y2="1014.656"/>
      <line x1="132.419" y1="1017.668" x2="132.419" y2="1015.098"/>
      <line x1="133.019" y1="1018.268" x2="133.019" y2="1015.541"/>
      <line x1="133.619" y1="1018.868" x2="133.619" y2="1015.983"/>
      <line x1="134.219" y1="1019.468" x2="134.219" y2="1016.421"/>
      <line x1="134.819" y1="1020.068" x2="134.819" y2="1016.826"/>
      <line x1="135.419" y1="1020.668" x2="135.419" y2="1017.231"/>
      <line x1="136.019" y1="1021.268" x2="136.019" y2="1017.637"/>
      <line x1="136.619" y1="1021.868" x2="136.619" y2="1018.052"/>
      <line x1="137.219" y1="1022.468" x2="137.219" y2="1018.431"/>
      <line x1="137.819" y1="1023.068" x2="137.819" y2="1018.801"/>
      <line x1="138.419" y1="1023.668" x2="138.419" y2="1019.172"/>
      <line x1="139.019" y1="1024.268" x2="139.019" y2="1019.559"/>
      <line x1="139.619" y1="1024.868" x2="139.619" y2="1019.928"/>
      <line x1="140.219" y1="1025.468" x2="140.219" y2="1020.270"/>
      <line x1="140.819" y1="1026.068" x2="140.819" y2="1020.611"/>
      <line x1="141.419" y1="1026.668" x2="141.419" y2="1020.953"/>
      <line x1="142.019" y1="1027.268" x2="142.019" y2="1021.294"/>
      <line x1="142.619" y1="1027.868" x2="142.619" y2="1021.636"/>
      <line x1="143.219" y1="1028.468" x2="143.219" y2="1021.977"/>
      <line x1="143.819" y1="1029.068" x2="143.819" y2="1022.327"/>
      <line x1="144.419" y1="1029.668" x2="144.419" y2="1022.702"/>
      <line x1="145.019" y1="1030.268" x2="145.019" y2="1023.047"/>
      <line x1="145.619" y1="1030.868" x2="145.619" y2="1023.465"/>
      <line x1="146.219" y1="1031.468" x2="146.219" y2="1023.896"/>
      <line x1="146.819" y1="1032.068" x2="146.819" y2="1024.387"/>
      <line x1="147.419" y1="1032.668" x2="147.419" y2="1024.897"/>
      <line x1="148.019" y1="1033.268" x2="148.019" y2="1025.509"/>
      <line x1="148.619" y1="1033.868" x2="148.619" y2="1026.111"/>
      <line x1="149.219" y1="1034.468" x2="149.219" y2="1026.746"/>
      <line x1="149.819" y1="1035.068" x2="149.819" y2="1027.458"/>
      <line x1="150.419" y1="1034.916" x2="150.419" y2="1028.443"/>
      <line x1="151.019" y1="1033.009" x2="151.019" y2="1030.303"/>
      <line x1="106.019" y1="991.268" x2="106.019" y2="986.762"/>
      <line x1="106.619" y1="991.868" x2="106.619" y2="986.799"/>
      <line x1="105.419" y1="990.668" x2="105.419" y2="986.807"/>
      <line x1="107.219" y1="992.468" x2="107.219" y2="986.907"/>
      <line x1="104.819" y1="990.068" x2="104.819" y2="986.927"/>
      <line x1="107.819" y1="993.068" x2="107.819" y2="987.080"/>
      <line x1="104.219" y1="989.468" x2="104.219" y2="987.121"/>
      <line x1="108.419" y1="993.668" x2="108.419" y2="987.324"/>
      <line x1="103.619" y1="988.868" x2="103.619" y2="987.347"/>
      <line x1="103.019" y1="988.268" x2="103.019" y2="987.584"/>
      <line x1="109.019" y1="994.268" x2="109.019" y2="987.652"/>
      <line x1="109.619" y1="994.868" x2="109.619" y2="988.063"/>
      <line x1="110.219" y1="995.468" x2="110.219" y2="988.589"/>
      <line x1="110.819" y1="996.068" x2="110.819" y2="989.277"/>
      <line x1="111.419" y1="996.668" x2="111.419" y2="990.173"/>
      <line x1="112.019" y1="997.268" x2="112.019" y2="991.114"/>
      <line x1="112.619" y1="997.868" x2="112.619" y2="992.102"/>
      <line x1="113.219" y1="998.468" x2="113.219" y2="993.108"/>
      <line x1="113.819" y1="999.068" x2="113.819" y2="994.102"/>
      <line x1="114.419" y1="999.668" x2="114.419" y2="995.152"/>
      <line x1="115.019" y1="1000.268" x2="115.019" y2="996.124"/>
      <line x1="115.619" y1="1000.868" x2="115.619" y2="997.042"/>
      <line x1="116.219" y1="1001.468" x2="116.219" y2="997.911"/>
      <line x1="116.819" y1="1002.068" x2="116.819" y2="998.796"/>
      <line x1="117.419" y1="1002.668" x2="117.419" y2="999.684"/>
      <line x1="118.019" y1="1003.268" x2="118.019" y2="1000.455"/>
      <line x1="118.619" y1="1003.868" x2="118.619" y2="1001.201"/>
      <line x1="119.219" y1="1004.468" x2="119.219" y2="1001.948"/>
      <line x1="119.819" y1="1005.068" x2="119.819" y2="1002.706"/>
      <line x1="120.419" y1="1005.371" x2="120.419" y2="1003.464"/>
      <line x1="121.019" y1="1005.371" x2="121.019" y2="1004.221"/>
      <line x1="121.619" y1="1005.371" x2="121.619" y2="1004.902"/>
    </g>
    <g stroke="#1976D2" stroke-width="0.4">
      <polyline points="100.721,990.011 100.735,990.003 101.431,989.650 148.183,1036.402 147.510,1037.406 149.898,1039.794 150.933,1038.159 152.005,1036.433 152.224,1036.017 152.546,1035.316 153.013,1033.860 153.244,1032.347 153.234,1030.824 152.988,1029.342 152.777,1028.619 152.502,1027.921 152.167,1027.238 151.798,1026.618 151.303,1025.922 150.929,1025.486 150.381,1024.939 150.194,1024.711 149.808,1024.346 148.989,1023.475 147.657,1022.343 146.241,1021.327 145.463,1020.881 144.762,1020.440 140.369,1017.939 139.922,1017.632 137.861,1016.359 137.685,1016.228 135.358,1014.657 133.081,1012.977 130.844,1011.164 130.319,1010.701 128.704,1009.256 126.657,1007.265 122.783,1003.066 120.820,1000.588 119.217,998.594 118.040,996.853 117.064,995.440 116.041,993.782 115.554,992.901 115.088,992.144 113.921,990.187 113.482,989.517 112.926,988.619 112.526,988.048 112.070,987.485 111.983,987.383 111.500,986.901 110.982,986.459 110.433,986.057 110.095,985.848 109.859,985.703 109.262,985.396 108.647,985.140 108.019,984.937 107.382,984.788 106.742,984.695 106.102,984.658 105.748,984.668 105.475,984.681 104.823,984.767 104.232,984.908 103.618,985.104 103.027,985.323 98.529,987.100 97.558,987.455 100.233,990.129" fill="none"/>
      <polyline points="100.233,990.129 100.322,990.218 100.603,990.084 100.721,990.011" fill="none"/>
      <polyline points="150.425,1037.840 151.484,1036.135 151.685,1035.752 151.986,1035.098 152.427,1033.722 152.644,1032.303 152.634,1030.876 152.402,1029.476 152.208,1028.814 151.953,1028.164 151.639,1027.524 151.295,1026.945 150.830,1026.292 150.488,1025.894 149.935,1025.342 149.754,1025.120 149.383,1024.770 148.575,1023.911 147.287,1022.816 145.916,1021.832 145.154,1021.395 144.454,1020.954 140.050,1018.448 139.595,1018.135 137.524,1016.856 137.338,1016.717 135.012,1015.147 132.714,1013.452 130.457,1011.622 129.920,1011.150 128.295,1009.694 126.227,1007.684 122.327,1003.457 120.351,1000.962 118.734,998.951 117.544,997.191 116.562,995.768 115.523,994.084 115.036,993.203 114.575,992.454 113.413,990.505 112.976,989.839 112.425,988.949 112.046,988.409 111.609,987.869 111.543,987.792 111.092,987.342 110.610,986.929 110.098,986.555 109.780,986.358 109.565,986.226 109.009,985.941 108.439,985.704 107.858,985.516 107.270,985.379 106.681,985.292 106.093,985.258 105.771,985.268 105.528,985.279 104.932,985.358 104.393,985.486 103.814,985.672 103.241,985.884 98.650,987.697 100.435,989.482 101.548,988.918 148.956,1036.326 148.283,1037.331 149.792,1038.839 150.425,1037.840" fill="none"/>
      <polyline points="149.917,1037.521 150.963,1035.837 151.146,1035.488 151.426,1034.880 151.841,1033.585 152.044,1032.259 152.035,1030.927 151.816,1029.610 151.640,1029.008 151.403,1028.406 151.111,1027.810 150.791,1027.273 150.357,1026.662 150.048,1026.302 149.490,1025.745 149.314,1025.530 148.958,1025.194 148.161,1024.346 146.917,1023.289 145.590,1022.338 144.844,1021.909 144.146,1021.469 139.731,1018.957 139.267,1018.638 137.186,1017.352 136.990,1017.206 134.666,1015.637 132.347,1013.927 130.069,1012.081 129.522,1011.599 127.885,1010.133 125.797,1008.103 121.870,1003.847 119.882,1001.337 118.250,999.307 117.049,997.530 116.059,996.097 115.004,994.387 114.517,993.506 114.062,992.765 112.904,990.823 112.470,990.162 111.924,989.280 111.567,988.770 111.149,988.253 111.103,988.201 110.685,987.783 110.237,987.400 109.762,987.053 109.465,986.869 109.270,986.750 108.756,986.486 108.231,986.267 107.697,986.095 107.159,985.969 106.620,985.890 106.085,985.859 105.794,985.868 105.581,985.877 105.041,985.949 104.554,986.065 104.010,986.239 103.455,986.444 99.720,987.919 100.551,988.750 101.665,988.186 149.729,1036.251 149.056,1037.255 149.686,1037.885 149.917,1037.521" fill="none"/>
      <polyline points="150.442,1035.539 150.608,1035.223 150.865,1034.662 151.255,1033.447 151.443,1032.216 151.435,1030.979 151.230,1029.744 151.072,1029.202 150.854,1028.648 150.583,1028.096 150.288,1027.601 149.884,1027.032 149.608,1026.710 149.045,1026.149 148.874,1025.940 148.533,1025.618 147.747,1024.782 146.547,1023.762 145.265,1022.843 144.535,1022.423 143.837,1021.984 139.413,1019.466 138.939,1019.141 136.848,1017.849 136.643,1017.696 134.320,1016.128 131.979,1014.402 129.682,1012.539 129.124,1012.047 127.476,1010.572 125.367,1008.522 121.414,1004.237 119.413,1001.711 117.767,999.664 116.554,997.868 115.557,996.425 114.486,994.690 113.999,993.808 113.549,993.076 112.395,991.142 111.964,990.484 111.423,989.610 111.088,989.132 110.688,988.638 110.663,988.609 110.277,988.224 109.865,987.871 109.427,987.551 109.150,987.380 108.976,987.273 108.504,987.031 108.023,986.830 107.536,986.673 107.047,986.559 106.559,986.487 106.077,986.459 105.817,986.467 105.635,986.476 105.150,986.540 104.716,986.643 104.205,986.807 103.670,987.005 101.994,987.667 150.221,1035.894 150.442,1035.539" fill="none"/>
      <polyline points="101.593,987.690 100.436,988.211" fill="none"/>
    </g>
    <g stroke="#C62828" stroke-width="0.4" fill="none">
    </g>
    <g stroke="#EF6C00" stroke-width="0.4" fill="none">
    </g>
  </g>
  <g stroke="#000000" stroke-width="0.4">
    <line x1="300.000" y1="600.000" x2="900.000" y2="600.000"/>
  </g>
  <g stroke="#000000" stroke-width="0.4">
    <line x1="600.000" y1="300.000" x2="600.000" y2="900.000"/>
  </g>
  <circle cx="600.000" cy="600.000" r="600.000" stroke="red" stroke-width="1" fill="none"/>
  </g>
</svg>
