<?xml version="1.0" encoding="UTF-8"?>
<svg xmlns="http://www.w3.org/2000/svg" version="1.1" width="1200" height="1200">
  <g fill="none" stroke-linecap="round" stroke-linejoin="round">
  <text x="10" y="20" font-size="24" fill="#555">Layer 85 Z=29.000 mm</text>
  <g transform="translate(521.869,-448.632)">
    <g stroke="#2E7D32" stroke-width="0.4">
      <line x1="122.469" y1="1009.735" x2="119.456" y2="1009.735"/>
      <line x1="123.120" y1="1010.335" x2="120.056" y2="1010.335"/>
      <line x1="123.771" y1="1010.935" x2="120.656" y2="1010.935"/>
      <line x1="124.505" y1="1011.535" x2="121.256" y2="1011.535"/>
      <line x1="124.756" y1="1012.135" x2="121.856" y2="1012.135"/>
      <line x1="124.756" y1="1012.735" x2="122.456" y2="1012.735"/>
      <line x1="124.756" y1="1013.335" x2="123.056" y2="1013.335"/>
      <line x1="124.756" y1="1013.935" x2="123.656" y2="1013.935"/>
      <line x1="124.756" y1="1014.535" x2="124.256" y2="1014.535"/>
      <line x1="125.256" y1="1012.135" x2="124.816" y2="1012.135"/>
      <line x1="126.007" y1="1012.735" x2="124.816" y2="1012.735"/>
      <line x1="126.852" y1="1013.335" x2="124.816" y2="1013.335"/>
      <line x1="127.742" y1="1013.935" x2="124.816" y2="1013.935"/>
      <line x1="128.632" y1="1014.535" x2="124.816" y2="1014.535"/>
      <line x1="129.657" y1="1015.135" x2="124.856" y2="1015.135"/>
      <line x1="130.718" y1="1015.735" x2="125.456" y2="1015.735"/>
      <line x1="131.812" y1="1016.335" x2="126.056" y2="1016.335"/>
      <line x1="133.032" y1="1016.935" x2="126.656" y2="1016.935"/>
      <line x1="128.909" y1="1017.535" x2="127.256" y2="1017.535"/>
      <line x1="134.263" y1="1017.535" x2="128.934" y2="1017.535"/>
      <line x1="128.309" y1="1018.135" x2="127.856" y2="1018.135"/>
      <line x1="135.612" y1="1018.135" x2="129.534" y2="1018.135"/>
      <line x1="136.975" y1="1018.735" x2="130.134" y2="1018.735"/>
      <line x1="138.363" y1="1019.335" x2="130.734" y2="1019.335"/>
      <line x1="139.759" y1="1019.935" x2="131.334" y2="1019.935"/>
      <line x1="141.039" y1="1020.535" x2="131.934" y2="1020.535"/>
      <line x1="142.094" y1="1021.135" x2="132.534" y2="1021.135"/>
      <line x1="143.007" y1="1021.735" x2="133.134" y2="1021.735"/>
      <line x1="143.807" y1="1022.335" x2="133.734" y2="1022.335"/>
      <line x1="144.464" y1="1022.935" x2="134.334" y2="1022.935"/>
      <line x1="145.091" y1="1023.535" x2="134.934" y2="1023.535"/>
      <line x1="145.675" y1="1024.135" x2="135.534" y2="1024.135"/>
      <line x1="146.258" y1="1024.735" x2="136.134" y2="1024.735"/>
      <line x1="146.841" y1="1025.335" x2="136.734" y2="1025.335"/>
      <line x1="147.422" y1="1025.935" x2="137.334" y2="1025.935"/>
      <line x1="147.990" y1="1026.535" x2="137.934" y2="1026.535"/>
      <line x1="148.528" y1="1027.135" x2="138.534" y2="1027.135"/>
      <line x1="149.022" y1="1027.735" x2="139.134" y2="1027.735"/>
      <line x1="149.469" y1="1028.335" x2="139.734" y2="1028.335"/>
      <line x1="149.902" y1="1028.935" x2="140.334" y2="1028.935"/>
      <line x1="150.213" y1="1029.535" x2="140.934" y2="1029.535"/>
      <line x1="150.523" y1="1030.135" x2="141.534" y2="1030.135"/>
      <line x1="150.777" y1="1030.735" x2="142.134" y2="1030.735"/>
      <line x1="150.973" y1="1031.335" x2="142.734" y2="1031.335"/>
      <line x1="151.169" y1="1031.935" x2="143.334" y2="1031.935"/>
      <line x1="151.296" y1="1032.535" x2="143.934" y2="1032.535"/>
      <line x1="151.387" y1="1033.135" x2="144.534" y2="1033.135"/>
      <line x1="151.478" y1="1033.735" x2="145.134" y2="1033.735"/>
      <line x1="151.510" y1="1034.335" x2="145.734" y2="1034.335"/>
      <line x1="151.506" y1="1034.935" x2="146.334" y2="1034.935"/>
      <line x1="151.501" y1="1035.535" x2="146.934" y2="1035.535"/>
      <line x1="151.452" y1="1036.135" x2="147.534" y2="1036.135"/>
      <line x1="151.353" y1="1036.735" x2="148.134" y2="1036.735"/>
      <line x1="151.255" y1="1037.335" x2="148.734" y2="1037.335"/>
      <line x1="151.124" y1="1037.935" x2="149.334" y2="1037.935"/>
      <line x1="150.927" y1="1038.535" x2="149.934" y2="1038.535"/>
      <line x1="150.730" y1="1039.135" x2="150.534" y2="1039.135"/>
      <line x1="101.042" y1="983.335" x2="94.836" y2="983.335"/>
      <line x1="102.405" y1="983.935" x2="95.334" y2="983.935"/>
      <line x1="103.350" y1="984.535" x2="95.934" y2="984.535"/>
      <line x1="104.061" y1="985.135" x2="96.534" y2="985.135"/>
      <line x1="104.673" y1="985.735" x2="97.134" y2="985.735"/>
      <line x1="105.185" y1="986.335" x2="97.734" y2="986.335"/>
      <line x1="105.677" y1="986.935" x2="98.334" y2="986.935"/>
      <line x1="106.173" y1="987.535" x2="98.934" y2="987.535"/>
      <line x1="106.692" y1="988.135" x2="99.534" y2="988.135"/>
      <line x1="107.194" y1="988.735" x2="100.134" y2="988.735"/>
      <line x1="107.620" y1="989.335" x2="100.734" y2="989.335"/>
      <line x1="108.046" y1="989.935" x2="101.334" y2="989.935"/>
      <line x1="108.416" y1="990.535" x2="100.905" y2="990.535"/>
      <line x1="108.785" y1="991.135" x2="100.856" y2="991.135"/>
      <line x1="109.112" y1="991.735" x2="101.456" y2="991.735"/>
      <line x1="109.426" y1="992.335" x2="102.056" y2="992.335"/>
      <line x1="109.741" y1="992.935" x2="102.656" y2="992.935"/>
      <line x1="110.056" y1="993.535" x2="103.256" y2="993.535"/>
      <line x1="110.371" y1="994.135" x2="103.856" y2="994.135"/>
      <line x1="110.685" y1="994.735" x2="104.456" y2="994.735"/>
      <line x1="111.024" y1="995.335" x2="105.056" y2="995.335"/>
      <line x1="111.379" y1="995.935" x2="105.656" y2="995.935"/>
      <line x1="111.733" y1="996.535" x2="106.256" y2="996.535"/>
      <line x1="112.088" y1="997.135" x2="106.856" y2="997.135"/>
      <line x1="112.456" y1="997.735" x2="107.456" y2="997.735"/>
      <line x1="112.858" y1="998.335" x2="108.056" y2="998.335"/>
      <line x1="113.260" y1="998.935" x2="108.656" y2="998.935"/>
      <line x1="113.663" y1="999.535" x2="109.256" y2="999.535"/>
      <line x1="114.073" y1="1000.135" x2="109.856" y2="1000.135"/>
      <line x1="114.545" y1="1000.735" x2="110.456" y2="1000.735"/>
      <line x1="115.018" y1="1001.335" x2="111.056" y2="1001.335"/>
      <line x1="115.490" y1="1001.935" x2="111.656" y2="1001.935"/>
      <line x1="115.962" y1="1002.535" x2="112.256" y2="1002.535"/>
      <line x1="116.435" y1="1003.135" x2="112.856" y2="1003.135"/>
      <line x1="116.907" y1="1003.735" x2="113.456" y2="1003.735"/>
      <line x1="117.379" y1="1004.335" x2="114.056" y2="1004.335"/>
      <line x1="117.886" y1="1004.935" x2="114.656" y2="1004.935"/>
      <line x1="118.445" y1="1005.535" x2="115.256" y2="1005.535"/>
      <line x1="119.003" y1="1006.135" x2="115.856" y2="1006.135"/>
      <line x1="119.562" y1="1006.735" x2="116.456" y2="1006.735"/>
      <line x1="120.121" y1="1007.335" x2="117.056" y2="1007.335"/>
      <line x1="120.680" y1="1007.935" x2="117.656" y2="1007.935"/>
      <line x1="121.238" y1="1008.535" x2="118.256" y2="1008.535"/>
      <line x1="121.818" y1="1009.135" x2="118.856" y2="1009.135"/>
      <line x1="5.816" y1="1029.080" x2="5.505" y2="1029.080"/>
      <line x1="6.416" y1="1029.680" x2="5.224" y2="1029.680"/>
      <line x1="7.016" y1="1030.280" x2="5.009" y2="1030.280"/>
      <line x1="7.616" y1="1030.880" x2="4.850" y2="1030.880"/>
      <line x1="8.216" y1="1031.480" x2="4.761" y2="1031.480"/>
      <line x1="8.816" y1="1032.080" x2="4.752" y2="1032.080"/>
      <line x1="9.416" y1="1032.680" x2="4.780" y2="1032.680"/>
      <line x1="10.016" y1="1033.280" x2="4.890" y2="1033.280"/>
      <line x1="10.616" y1="1033.880" x2="5.066" y2="1033.880"/>
      <line x1="11.216" y1="1034.480" x2="5.309" y2="1034.480"/>
      <line x1="11.816" y1="1035.080" x2="5.584" y2="1035.080"/>
      <line x1="12.416" y1="1035.680" x2="5.858" y2="1035.680"/>
      <line x1="13.016" y1="1036.280" x2="6.148" y2="1036.280"/>
      <line x1="13.616" y1="1036.880" x2="6.475" y2="1036.880"/>
      <line x1="14.216" y1="1037.480" x2="6.802" y2="1037.480"/>
      <line x1="14.816" y1="1038.080" x2="7.129" y2="1038.080"/>
      <line x1="15.416" y1="1038.680" x2="7.456" y2="1038.680"/>
      <line x1="16.016" y1="1039.280" x2="7.825" y2="1039.280"/>
      <line x1="16.616" y1="1039.880" x2="8.219" y2="1039.880"/>
      <line x1="17.216" y1="1040.480" x2="8.614" y2="1040.480"/>
      <line x1="17.816" y1="1041.080" x2="9.009" y2="1041.080"/>
      <line x1="18.416" y1="1041.680" x2="9.436" y2="1041.680"/>
      <line x1="19.016" y1="1042.280" x2="9.899" y2="1042.280"/>
      <line x1="19.616" y1="1042.880" x2="10.361" y2="1042.880"/>
      <line x1="20.216" y1="1043.480" x2="10.824" y2="1043.480"/>
      <line x1="20.816" y1="1044.080" x2="11.321" y2="1044.080"/>
      <line x1="21.416" y1="1044.680" x2="11.849" y2="1044.680"/>
      <line x1="22.016" y1="1045.280" x2="12.377" y2="1045.280"/>
      <line x1="22.616" y1="1045.880" x2="12.905" y2="1045.880"/>
      <line x1="23.216" y1="1046.480" x2="13.461" y2="1046.480"/>
      <line x1="23.816" y1="1047.080" x2="14.044" y2="1047.080"/>
      <line x1="24.416" y1="1047.680" x2="14.628" y2="1047.680"/>
      <line x1="25.016" y1="1048.280" x2="15.230" y2="1048.280"/>
      <line x1="25.616" y1="1048.880" x2="15.876" y2="1048.880"/>
      <line x1="26.216" y1="1049.480" x2="16.521" y2="1049.480"/>
      <line x1="26.816" y1="1050.080" x2="17.166" y2="1050.080"/>
      <line x1="27.416" y1="1050.680" x2="17.811" y2="1050.680"/>
      <line x1="28.016" y1="1051.280" x2="18.457" y2="1051.280"/>
      <line x1="28.616" y1="1051.880" x2="19.234" y2="1051.880"/>
      <line x1="29.216" y1="1052.480" x2="20.117" y2="1052.480"/>
      <line x1="29.816" y1="1053.080" x2="21.342" y2="1053.080"/>
      <line x1="30.416" y1="1053.680" x2="23.654" y2="1053.680"/>
      <line x1="31.016" y1="1054.280" x2="27.747" y2="1054.280"/>
      <line x1="39.556" y1="1054.951" x2="39.228" y2="1054.951"/>
      <line x1="40.163" y1="1055.551" x2="38.577" y2="1055.551"/>
      <line x1="40.770" y1="1056.151" x2="37.925" y2="1056.151"/>
      <line x1="41.378" y1="1056.751" x2="38.209" y2="1056.751"/>
      <line x1="41.985" y1="1057.351" x2="39.283" y2="1057.351"/>
      <line x1="42.592" y1="1057.951" x2="40.784" y2="1057.951"/>
      <line x1="66.210" y1="1089.474" x2="65.964" y2="1089.474"/>
      <line x1="66.810" y1="1090.074" x2="65.835" y2="1090.074"/>
      <line x1="67.410" y1="1090.674" x2="65.935" y2="1090.674"/>
      <line x1="68.010" y1="1091.274" x2="66.036" y2="1091.274"/>
      <line x1="68.610" y1="1091.874" x2="66.146" y2="1091.874"/>
      <line x1="69.210" y1="1092.474" x2="66.247" y2="1092.474"/>
      <line x1="69.810" y1="1093.074" x2="66.326" y2="1093.074"/>
      <line x1="70.410" y1="1093.674" x2="66.405" y2="1093.674"/>
      <line x1="71.010" y1="1094.274" x2="66.484" y2="1094.274"/>
      <line x1="71.610" y1="1094.874" x2="66.563" y2="1094.874"/>
      <line x1="72.210" y1="1095.474" x2="66.642" y2="1095.474"/>
      <line x1="72.810" y1="1096.074" x2="66.733" y2="1096.074"/>
      <line x1="73.410" y1="1096.674" x2="66.840" y2="1096.674"/>
      <line x1="74.010" y1="1097.274" x2="66.947" y2="1097.274"/>
      <line x1="74.610" y1="1097.874" x2="67.161" y2="1097.874"/>
      <line x1="75.210" y1="1098.474" x2="67.382" y2="1098.474"/>
      <line x1="75.810" y1="1099.074" x2="67.687" y2="1099.074"/>
      <line x1="76.410" y1="1099.674" x2="68.035" y2="1099.674"/>
      <line x1="77.010" y1="1100.274" x2="68.492" y2="1100.274"/>
      <line x1="77.610" y1="1100.874" x2="68.958" y2="1100.874"/>
      <line x1="78.210" y1="1101.474" x2="69.513" y2="1101.474"/>
      <line x1="78.810" y1="1102.074" x2="70.091" y2="1102.074"/>
      <line x1="79.410" y1="1102.674" x2="70.668" y2="1102.674"/>
      <line x1="80.010" y1="1103.274" x2="71.245" y2="1103.274"/>
      <line x1="80.610" y1="1103.874" x2="71.823" y2="1103.874"/>
      <line x1="81.210" y1="1104.474" x2="72.400" y2="1104.474"/>
      <line x1="81.810" y1="1105.074" x2="73.050" y2="1105.074"/>
      <line x1="82.410" y1="1105.674" x2="73.708" y2="1105.674"/>
      <line x1="83.010" y1="1106.274" x2="74.367" y2="1106.274"/>
      <line x1="83.610" y1="1106.874" x2="75.026" y2="1106.874"/>
      <line x1="84.210" y1="1107.474" x2="75.685" y2="1107.474"/>
      <line x1="84.810" y1="1108.074" x2="76.344" y2="1108.074"/>
      <line x1="85.410" y1="1108.674" x2="77.078" y2="1108.674"/>
      <line x1="86.010" y1="1109.274" x2="77.825" y2="1109.274"/>
      <line x1="86.610" y1="1109.874" x2="78.609" y2="1109.874"/>
      <line x1="87.210" y1="1110.474" x2="79.424" y2="1110.474"/>
      <line x1="87.810" y1="1111.074" x2="80.238" y2="1111.074"/>
      <line x1="88.410" y1="1111.674" x2="81.093" y2="1111.674"/>
      <line x1="89.010" y1="1112.274" x2="81.985" y2="1112.274"/>
      <line x1="89.610" y1="1112.874" x2="82.878" y2="1112.874"/>
      <line x1="90.210" y1="1113.474" x2="83.837" y2="1113.474"/>
      <line x1="89.606" y1="1114.074" x2="85.137" y2="1114.074"/>
    </g>
    <g stroke="#1976D2" stroke-width="0.4">
      <polyline points="151.521,1042.369 152.530,1040.386 153.235,1038.239 153.597,1036.029 153.614,1033.817 153.287,1031.656 152.623,1029.623 151.655,1027.753 150.411,1026.085 150.256,1025.927 149.843,1025.437 148.864,1024.403 146.588,1022.060 145.306,1020.834 143.875,1019.761 142.346,1018.829 140.731,1018.067 138.141,1016.954 135.288,1015.698 134.739,1015.434 132.532,1014.349 129.925,1012.874 127.499,1011.239 125.250,1009.442 123.151,1007.507 119.260,1003.329 115.720,998.832 114.120,996.447 112.641,993.942 110.696,990.234 109.802,988.781 108.774,987.334 107.710,986.101 106.535,984.671 106.173,984.258 106.061,984.137 105.682,983.773 105.112,983.246 104.480,982.753 103.799,982.305 103.070,981.904 102.298,981.556 101.489,981.264 100.642,981.028 99.749,980.873 98.840,980.782 97.912,980.757 96.974,980.799 96.031,980.910 95.092,981.091 94.166,981.341 93.251,981.662 89.787,983.035 92.315,985.563 93.354,984.924 98.450,990.021 97.611,990.859 128.083,1021.331 128.921,1020.492 148.905,1040.476 148.235,1041.483 150.608,1043.856 151.521,1042.369" fill="none"/>
      <polyline points="150.997,1042.076 151.974,1040.155 152.650,1038.096 152.998,1035.978 153.014,1033.860 152.701,1031.795 152.068,1029.856 151.145,1028.073 149.954,1026.476 149.812,1026.331 149.396,1025.837 148.431,1024.819 146.165,1022.486 144.917,1021.293 143.538,1020.258 142.061,1019.358 140.484,1018.614 137.901,1017.504 135.038,1016.243 134.476,1015.974 132.252,1014.879 129.610,1013.385 127.144,1011.723 124.859,1009.898 122.727,1007.933 118.804,1003.720 115.234,999.186 113.613,996.767 112.117,994.234 110.174,990.531 109.302,989.112 108.302,987.704 107.251,986.488 106.078,985.059 105.726,984.660 105.632,984.557 105.270,984.210 104.723,983.704 104.130,983.241 103.489,982.819 102.802,982.442 102.072,982.113 101.307,981.836 100.510,981.614 99.668,981.468 98.802,981.381 97.918,981.357 97.022,981.397 96.123,981.503 95.227,981.676 94.344,981.914 93.461,982.224 90.857,983.257 92.404,984.804 93.443,984.165 99.298,990.021 98.460,990.859 128.083,1020.482 128.921,1019.643 149.677,1040.399 149.007,1041.407 150.495,1042.894 150.997,1042.076" fill="none"/>
      <polyline points="151.418,1039.924 152.065,1037.953 152.398,1035.926 152.414,1033.903 152.115,1031.934 151.512,1030.088 150.634,1028.392 149.497,1026.867 149.368,1026.735 148.948,1026.237 147.998,1025.234 145.743,1022.912 144.529,1021.751 143.201,1020.756 141.776,1019.887 140.237,1019.161 137.662,1018.054 134.787,1016.788 134.214,1016.514 131.971,1015.410 129.294,1013.895 126.788,1012.207 124.468,1010.353 122.304,1008.358 118.348,1004.111 114.749,999.539 113.105,997.087 111.592,994.527 109.652,990.828 108.801,989.443 107.829,988.075 106.792,986.874 105.621,985.448 105.280,985.061 105.203,984.976 104.859,984.646 104.334,984.161 103.780,983.729 103.179,983.333 102.533,982.979 101.847,982.669 101.124,982.408 100.378,982.201 99.586,982.063 98.764,981.980 97.923,981.958 97.071,981.996 96.215,982.097 95.362,982.261 94.521,982.487 93.671,982.786 93.168,982.986 91.927,983.478 92.493,984.045 93.415,983.477 93.225,983.098 100.147,990.021 99.308,990.859 128.083,1019.634 128.921,1018.795 150.449,1040.322 149.779,1041.330 150.392,1041.943 151.418,1039.924" fill="none"/>
      <polyline points="151.481,1037.810 151.798,1035.875 151.813,1033.946 151.529,1032.073 150.957,1030.321 150.124,1028.711 149.040,1027.258 148.924,1027.139 148.501,1026.638 147.565,1025.649 145.320,1023.338 144.140,1022.209 142.865,1021.253 141.491,1020.416 139.991,1019.708 137.423,1018.604 134.536,1017.333 133.952,1017.053 131.691,1015.941 128.978,1014.406 126.433,1012.691 124.077,1010.809 121.880,1008.784 117.892,1004.501 114.263,999.892 112.597,997.407 111.068,994.819 109.130,991.125 108.300,989.775 107.356,988.446 106.333,987.261 105.164,985.837 104.834,985.462 104.774,985.396 104.447,985.083 103.945,984.619 103.430,984.217 102.869,983.848 102.265,983.516 101.621,983.225 100.942,982.980 100.245,982.787 99.505,982.658 98.726,982.580 97.928,982.558 97.120,982.594 96.307,982.690 95.497,982.846 94.699,983.061 94.208,983.234 100.995,990.021 100.157,990.859 128.083,1018.785 128.921,1017.946 150.815,1039.840 151.481,1037.810" fill="none"/>
      <polyline points="33.876,1053.283 33.426,1053.721 7.202,1027.496 8.264,1026.420 6.496,1024.652 6.238,1024.920 5.489,1025.668 4.826,1026.389 4.407,1026.872 3.712,1027.958 3.188,1029.076 2.824,1030.222 2.648,1031.416 2.654,1032.594 2.726,1033.183 2.840,1033.755 3.099,1034.635 3.122,1034.746 4.038,1036.750 4.248,1037.182 5.779,1039.991 7.506,1042.616 9.400,1045.072 9.537,1045.231 11.434,1047.388 11.788,1047.772 13.571,1049.604 17.199,1052.978 18.561,1054.001 19.300,1054.436 19.851,1054.734 20.756,1055.111 21.404,1055.340 21.783,1055.440 22.636,1055.597 23.489,1055.799 25.024,1056.005 28.765,1056.550 34.008,1057.616 34.862,1057.802 35.156,1057.844 35.558,1057.921 35.929,1058.044 36.220,1058.110 36.586,1058.259 37.012,1058.480 37.880,1059.012 39.087,1059.579 40.354,1060.026 41.681,1060.364 42.328,1060.426 42.564,1060.377 42.654,1060.373 42.932,1060.320 43.093,1060.276 43.606,1059.933 44.382,1059.157 45.020,1058.628 45.090,1058.232 45.091,1058.182 45.048,1057.905 44.966,1057.664 44.858,1057.445 44.613,1057.073 44.453,1056.866 44.033,1056.423 40.440,1052.871 40.293,1052.734 40.051,1052.551 39.845,1052.436 39.695,1052.384 39.563,1052.353 39.337,1052.337 39.174,1052.354 39.081,1052.374 38.963,1052.413 38.902,1052.442 38.730,1052.554 36.476,1054.631 34.510,1052.666 34.134,1053.032" fill="none"/>
      <polyline points="34.134,1053.032 33.876,1053.283" fill="none"/>
      <polyline points="42.489,1059.779 42.585,1059.775 42.834,1059.728 43.223,1059.467 43.977,1058.713 44.499,1058.280 44.463,1058.049 44.411,1057.894 44.337,1057.744 44.125,1057.422 43.997,1057.257 43.605,1056.843 40.024,1053.304 39.906,1053.194 39.722,1053.055 39.599,1052.986 39.527,1052.961 39.472,1052.948 39.347,1052.939 39.218,1052.953 39.100,1053.029 36.459,1055.462 34.505,1053.509 33.421,1054.563 6.357,1027.499 7.419,1026.423 6.501,1025.505 5.922,1026.083 5.274,1026.789 4.889,1027.232 4.238,1028.248 3.748,1029.295 3.411,1030.357 3.248,1031.458 3.254,1032.556 3.318,1033.088 3.424,1033.611 3.682,1034.490 3.696,1034.559 4.581,1036.495 4.781,1036.907 6.294,1039.682 7.995,1042.267 9.865,1044.693 9.989,1044.837 11.880,1046.987 12.223,1047.359 13.990,1049.175 17.585,1052.517 18.895,1053.501 19.595,1053.913 20.110,1054.191 20.971,1054.551 21.581,1054.766 21.914,1054.854 22.759,1055.010 23.598,1055.208 25.107,1055.411 28.868,1055.959 34.132,1057.029 34.968,1057.211 35.255,1057.252 35.709,1057.339 36.091,1057.465 36.401,1057.536 36.837,1057.713 37.307,1057.957 38.166,1058.483 39.315,1059.023 40.528,1059.451 41.784,1059.771 42.295,1059.820 42.489,1059.779" fill="none"/>
      <polyline points="42.414,1059.182 42.515,1059.178 42.601,1059.161 42.841,1059.001 43.573,1058.269 43.826,1058.059 43.636,1057.771 43.541,1057.647 43.176,1057.263 39.420,1053.551 36.441,1056.294 34.499,1054.351 33.415,1055.406 5.460,1027.452 4.765,1028.539 4.308,1029.514 3.997,1030.492 3.849,1031.501 3.854,1032.519 3.911,1032.993 4.007,1033.467 4.265,1034.344 4.270,1034.371 5.124,1036.239 5.315,1036.632 6.809,1039.373 8.484,1041.919 10.330,1044.314 10.442,1044.444 12.326,1046.585 12.659,1046.947 14.410,1048.746 17.970,1052.057 19.228,1053.001 19.890,1053.391 20.369,1053.649 21.187,1053.990 21.758,1054.192 22.045,1054.268 22.883,1054.422 23.707,1054.617 25.190,1054.817 28.972,1055.368 34.256,1056.442 35.075,1056.620 35.354,1056.660 35.860,1056.757 35.918,1056.776 35.888,1056.803 36.252,1056.887 36.445,1056.950 36.456,1056.933 36.582,1056.962 37.089,1057.168 37.602,1057.434 38.451,1057.954 39.543,1058.467 40.702,1058.876 41.888,1059.178 42.261,1059.214 42.414,1059.182" fill="none"/>
      <polyline points="42.427,1058.566 43.021,1057.972 42.747,1057.683 39.405,1054.380 37.104,1056.500 37.898,1056.912 38.736,1057.425 39.771,1057.911 40.877,1058.301 41.991,1058.586 42.227,1058.608 42.427,1058.566" fill="none"/>
      <polyline points="32.120,1054.960 5.564,1028.403 5.291,1028.829 4.868,1029.733 4.584,1030.628 4.449,1031.543 4.454,1032.481 4.504,1032.898 4.590,1033.323 4.840,1034.175 5.667,1035.983 5.848,1036.358 7.324,1039.064 8.972,1041.570 10.796,1043.935 10.895,1044.050 12.772,1046.184 13.095,1046.534 14.829,1048.317 18.355,1051.596 19.562,1052.501 20.185,1052.868 20.627,1053.107 21.402,1053.430 21.935,1053.618 22.177,1053.682 23.006,1053.835 23.817,1054.027 25.273,1054.223 29.075,1054.776 31.909,1055.352 32.120,1054.960" fill="none"/>
      <polyline points="65.910,1084.807 66.276,1084.431 64.619,1082.775 65.086,1082.481 65.448,1082.139 66.756,1080.736 66.840,1080.616 66.881,1080.548 66.945,1080.407 66.987,1080.242 67.000,1080.147 67.001,1079.989 66.989,1079.874 66.941,1079.680 66.907,1079.585 66.789,1079.372 66.714,1079.263 66.611,1079.135 66.435,1078.948 63.962,1076.429 63.525,1076.011 63.165,1075.739 62.864,1075.555 62.570,1075.433 62.332,1075.373 62.063,1075.368 61.617,1075.515 61.647,1075.661 60.668,1076.641 60.394,1077.005 60.256,1077.386 60.200,1077.631 60.241,1078.322 60.401,1078.796 60.459,1078.944 60.549,1079.125 61.470,1080.734 62.436,1082.050 62.679,1082.425 62.767,1082.710 62.849,1083.037 62.894,1083.577 62.901,1084.732 63.019,1085.912 63.033,1086.166 63.199,1086.965 63.297,1087.644 64.019,1091.942 64.141,1092.562 64.610,1096.132 64.917,1097.857 65.519,1099.491 66.014,1100.388 66.280,1100.830 66.426,1101.038 67.462,1102.370 70.998,1106.045 75.034,1109.722 76.507,1110.912 76.837,1111.150 77.188,1111.435 79.415,1113.076 81.719,1114.625 82.028,1114.855 82.467,1115.129 83.943,1115.891 84.811,1116.177 85.552,1116.344 85.825,1116.391 86.517,1116.479 87.681,1116.508 87.803,1116.485 88.413,1116.427 89.304,1116.321 90.451,1116.024 91.063,1115.797 91.540,1115.588 91.961,1115.387 92.905,1114.793 93.274,1114.543 94.001,1113.932 94.879,1113.034 92.666,1110.821 91.584,1111.878 65.221,1085.515 65.658,1085.066" fill="none"/>
      <polyline points="65.658,1085.066 65.910,1084.807" fill="none"/>
      <polyline points="87.719,1115.891 88.349,1115.830 89.193,1115.730 90.272,1115.451 90.839,1115.240 91.291,1115.042 91.671,1114.860 92.577,1114.290 92.912,1114.064 93.592,1113.491 94.035,1113.039 92.661,1111.665 91.579,1112.722 64.378,1085.521 65.433,1084.437 63.664,1082.668 64.716,1082.004 65.022,1081.716 66.289,1080.356 66.345,1080.277 66.376,1080.208 66.400,1080.115 66.401,1080.017 66.397,1079.977 66.363,1079.840 66.278,1079.688 66.233,1079.622 66.158,1079.530 66.003,1079.364 63.541,1076.856 63.136,1076.469 62.827,1076.236 62.591,1076.091 62.220,1075.937 61.122,1077.035 60.927,1077.293 60.833,1077.555 60.804,1077.681 60.835,1078.206 60.965,1078.590 61.008,1078.700 61.079,1078.843 61.974,1080.407 62.930,1081.709 63.227,1082.168 63.428,1082.817 63.433,1082.813 63.494,1083.550 63.501,1084.700 63.618,1085.865 63.630,1086.088 63.790,1086.861 63.890,1087.551 64.610,1091.835 64.733,1092.465 65.203,1096.040 65.499,1097.699 66.066,1099.241 66.533,1100.088 66.783,1100.502 66.909,1100.681 67.916,1101.977 71.417,1105.615 75.425,1109.266 76.872,1110.435 77.201,1110.673 77.556,1110.961 79.761,1112.585 82.065,1114.135 82.367,1114.359 82.764,1114.608 84.176,1115.336 84.971,1115.598 85.670,1115.755 85.914,1115.798 86.562,1115.880 87.633,1115.907 87.719,1115.891" fill="none"/>
      <polyline points="87.636,1115.296 88.285,1115.234 89.082,1115.139 90.092,1114.877 90.614,1114.684 91.041,1114.497 91.381,1114.334 91.971,1113.962 92.249,1113.787 92.550,1113.584 93.192,1113.044 92.656,1112.509 91.575,1113.566 64.801,1086.792 64.414,1086.986 64.482,1087.458 65.200,1091.727 65.325,1092.368 65.796,1095.948 66.080,1097.542 66.614,1098.991 67.053,1099.788 67.286,1100.174 67.391,1100.324 68.370,1101.583 71.835,1105.185 75.816,1108.811 77.236,1109.958 77.566,1110.196 77.923,1110.486 80.106,1112.094 82.411,1113.645 82.706,1113.863 83.061,1114.086 84.409,1114.781 85.131,1115.019 85.787,1115.167 86.003,1115.204 86.608,1115.281 87.585,1115.305 87.636,1115.296" fill="none"/>
      <polyline points="88.221,1114.637 88.971,1114.548 89.912,1114.304 90.389,1114.127 91.014,1113.854 65.695,1088.535 65.305,1088.735 65.790,1091.620 65.918,1092.271 66.390,1095.857 66.662,1097.384 67.161,1098.741 67.573,1099.489 67.789,1099.846 67.873,1099.967 68.824,1101.190 72.254,1104.755 76.207,1108.355 77.600,1109.481 77.931,1109.720 78.290,1110.011 80.452,1111.604 82.758,1113.155 83.044,1113.367 83.359,1113.564 84.642,1114.226 85.291,1114.440 85.904,1114.578 86.092,1114.611 86.653,1114.682 87.527,1114.704 88.221,1114.637" fill="none"/>
      <polyline points="64.347,1081.528 64.596,1081.292 65.789,1080.013 65.570,1079.780 63.119,1077.283 62.747,1076.927 62.366,1076.640 61.576,1077.430 61.461,1077.582 61.408,1077.729 61.429,1078.090 61.529,1078.384 61.557,1078.457 61.608,1078.560 62.478,1080.079 63.424,1081.368 63.765,1081.895 64.347,1081.528" fill="none"/>
      <polyline points="64.964,1080.019 62.697,1077.710 62.415,1077.440 61.987,1077.867 62.092,1078.178 62.106,1078.214 62.138,1078.277 62.981,1079.752 63.964,1081.090 64.964,1080.019" fill="none"/>
      <polyline points="6.748,1026.177 6.392,1026.535 5.697,1027.264" fill="none"/>
      <polyline points="64.272,1080.320 63.502,1079.414 62.999,1078.750" fill="none"/>
      <polyline points="62.999,1078.750 62.497,1078.086 62.472,1078.051 62.466,1078.042 62.429,1077.982 62.378,1077.901" fill="none"/>
      <polyline points="64.433,1086.641 63.876,1085.430" fill="none"/>
    </g>
    <g stroke="#C62828" stroke-width="0.4" fill="none">
    </g>
    <g stroke="#EF6C00" stroke-width="0.4" fill="none">
    </g>
  </g>
  <g stroke="#000000" stroke-width="0.4">
    <line x1="300.000" y1="600.000" x2="900.000" y2="600.000"/>
  </g>
  <g stroke="#000000" stroke-width="0.4">
    <line x1="600.000" y1="300.000" x2="600.000" y2="900.000"/>
  </g>
  <circle cx="600.000" cy="600.000" r="600.000" stroke="red" stroke-width="1" fill="none"/>
  </g>
</svg>
