<?xml version="1.0" encoding="UTF-8"?>
<svg xmlns="http://www.w3.org/2000/svg" version="1.1" width="1200" height="1200">
  <g fill="none" stroke-linecap="round" stroke-linejoin="round">
  <text x="10" y="20" font-size="24" fill="#555">Layer 123 Z=36.600 mm</text>
  <g transform="translate(463.494,-420.390)">
    <g stroke="#2E7D32" stroke-width="0.4">
    </g>
    <g stroke="#1976D2" stroke-width="0.4">
      <polyline points="140.707,1024.846 140.910,1024.739 140.975,1024.660 141.028,1024.626 141.207,1024.244 141.258,1024.016 141.269,1023.777 141.244,1023.528 141.187,1023.270 141.160,1023.187 141.059,1022.954 140.910,1022.658 140.782,1022.436 140.495,1021.991 140.413,1021.878 139.805,1021.135 139.106,1020.388 138.836,1020.108 138.215,1019.512 137.035,1018.390 136.606,1017.999 135.817,1017.311 135.405,1016.975 134.880,1016.579 134.401,1016.242 134.011,1016.027 133.659,1015.871 133.517,1015.815 133.290,1015.747 133.074,1015.706 132.867,1015.695 132.668,1015.720 132.484,1015.789 132.304,1015.915 132.306,1016.038 132.010,1016.210 131.743,1016.500 140.328,1025.085 140.707,1024.846" fill="none"/>
      <polyline points="140.668,1023.793 140.650,1023.623 140.604,1023.413 140.515,1023.209 140.381,1022.943 140.270,1022.748 140.000,1022.330 139.937,1022.244 139.353,1021.531 138.671,1020.801 138.413,1020.533 137.800,1019.946 136.627,1018.829 136.207,1018.447 135.430,1017.769 135.035,1017.447 134.527,1017.064 134.082,1016.751 133.744,1016.565 133.429,1016.425 133.322,1016.383 133.028,1016.295 132.788,1016.696 140.634,1024.542 140.668,1023.793" fill="none"/>
      <polyline points="140.363,1023.761 140.115,1023.397 139.953,1023.173 139.832,1023.015 139.536,1022.648 139.487,1022.591" fill="none"/>
      <polyline points="139.487,1022.591 138.892,1021.934 138.215,1021.234 137.966,1020.981 137.370,1020.397 136.216,1019.271 135.814,1018.888 135.072,1018.194 134.707,1017.865 134.240,1017.458 133.847,1017.128" fill="none"/>
      <polyline points="133.847,1017.128 133.568,1016.918 133.354,1016.771" fill="none"/>
    </g>
    <g stroke="#C62828" stroke-width="0.4" fill="none">
    </g>
    <g stroke="#EF6C00" stroke-width="0.4" fill="none">
    </g>
  </g>
  <g stroke="#000000" stroke-width="0.4">
    <line x1="300.000" y1="600.000" x2="900.000" y2="600.000"/>
  </g>
  <g stroke="#000000" stroke-width="0.4">
    <line x1="600.000" y1="300.000" x2="600.000" y2="900.000"/>
  </g>
  <circle cx="600.000" cy="600.000" r="600.000" stroke="red" stroke-width="1" fill="none"/>
  </g>
</svg>
