<?xml version="1.0" encoding="UTF-8"?>
<svg xmlns="http://www.w3.org/2000/svg" version="1.1" width="1200" height="1200">
  <g fill="none" stroke-linecap="round" stroke-linejoin="round">
  <text x="10" y="20" font-size="24" fill="#555">Layer 99 Z=31.800 mm</text>
  <g transform="translate(474.874,-412.159)">
    <g stroke="#2E7D32" stroke-width="0.4">
      <line x1="122.521" y1="1006.014" x2="120.542" y2="1006.014"/>
      <line x1="123.073" y1="1006.614" x2="121.142" y2="1006.614"/>
      <line x1="123.626" y1="1007.214" x2="121.742" y2="1007.214"/>
      <line x1="124.178" y1="1007.814" x2="122.342" y2="1007.814"/>
      <line x1="124.730" y1="1008.414" x2="122.942" y2="1008.414"/>
      <line x1="125.317" y1="1009.014" x2="123.542" y2="1009.014"/>
      <line x1="125.934" y1="1009.614" x2="124.142" y2="1009.614"/>
      <line x1="126.551" y1="1010.214" x2="124.742" y2="1010.214"/>
      <line x1="127.175" y1="1010.814" x2="125.342" y2="1010.814"/>
      <line x1="127.851" y1="1011.414" x2="125.942" y2="1011.414"/>
      <line x1="128.526" y1="1012.014" x2="126.542" y2="1012.014"/>
      <line x1="129.202" y1="1012.614" x2="127.142" y2="1012.614"/>
      <line x1="129.927" y1="1013.214" x2="127.742" y2="1013.214"/>
      <line x1="130.663" y1="1013.814" x2="128.342" y2="1013.814"/>
      <line x1="131.426" y1="1014.414" x2="128.942" y2="1014.414"/>
      <line x1="131.919" y1="1015.014" x2="129.542" y2="1015.014"/>
      <line x1="131.919" y1="1015.614" x2="130.142" y2="1015.614"/>
      <line x1="131.919" y1="1016.214" x2="130.742" y2="1016.214"/>
      <line x1="131.919" y1="1016.814" x2="131.342" y2="1016.814"/>
      <line x1="132.225" y1="1015.014" x2="131.979" y2="1015.014"/>
      <line x1="133.038" y1="1015.614" x2="131.979" y2="1015.614"/>
      <line x1="133.879" y1="1016.214" x2="131.979" y2="1016.214"/>
      <line x1="134.769" y1="1016.814" x2="131.979" y2="1016.814"/>
      <line x1="135.669" y1="1017.414" x2="131.979" y2="1017.414"/>
      <line x1="136.598" y1="1018.014" x2="132.542" y2="1018.014"/>
      <line x1="137.584" y1="1018.614" x2="133.142" y2="1018.614"/>
      <line x1="138.570" y1="1019.214" x2="133.742" y2="1019.214"/>
      <line x1="139.582" y1="1019.814" x2="134.342" y2="1019.814"/>
      <line x1="140.646" y1="1020.414" x2="134.942" y2="1020.414"/>
      <line x1="141.710" y1="1021.014" x2="135.542" y2="1021.014"/>
      <line x1="142.774" y1="1021.614" x2="136.142" y2="1021.614"/>
      <line x1="143.829" y1="1022.214" x2="136.742" y2="1022.214"/>
      <line x1="144.861" y1="1022.814" x2="137.342" y2="1022.814"/>
      <line x1="145.724" y1="1023.414" x2="137.942" y2="1023.414"/>
      <line x1="146.514" y1="1024.014" x2="138.542" y2="1024.014"/>
      <line x1="147.223" y1="1024.614" x2="139.142" y2="1024.614"/>
      <line x1="147.830" y1="1025.214" x2="139.742" y2="1025.214"/>
      <line x1="148.466" y1="1025.814" x2="140.342" y2="1025.814"/>
      <line x1="149.001" y1="1026.414" x2="140.942" y2="1026.414"/>
      <line x1="149.555" y1="1027.014" x2="141.542" y2="1027.014"/>
      <line x1="149.992" y1="1027.614" x2="142.142" y2="1027.614"/>
      <line x1="150.346" y1="1028.214" x2="142.742" y2="1028.214"/>
      <line x1="150.643" y1="1028.814" x2="143.342" y2="1028.814"/>
      <line x1="150.865" y1="1029.414" x2="143.942" y2="1029.414"/>
      <line x1="151.029" y1="1030.014" x2="144.542" y2="1030.014"/>
      <line x1="151.130" y1="1030.614" x2="145.142" y2="1030.614"/>
      <line x1="151.219" y1="1031.214" x2="145.742" y2="1031.214"/>
      <line x1="151.223" y1="1031.814" x2="146.342" y2="1031.814"/>
      <line x1="151.224" y1="1032.414" x2="146.942" y2="1032.414"/>
      <line x1="151.132" y1="1033.014" x2="147.542" y2="1033.014"/>
      <line x1="151.041" y1="1033.614" x2="148.142" y2="1033.614"/>
      <line x1="150.850" y1="1034.214" x2="148.742" y2="1034.214"/>
      <line x1="150.658" y1="1034.814" x2="149.342" y2="1034.814"/>
      <line x1="150.387" y1="1035.414" x2="149.942" y2="1035.414"/>
      <line x1="107.957" y1="986.814" x2="103.436" y2="986.814"/>
      <line x1="108.976" y1="987.414" x2="101.942" y2="987.414"/>
      <line x1="109.702" y1="988.014" x2="102.542" y2="988.014"/>
      <line x1="110.262" y1="988.614" x2="103.142" y2="988.614"/>
      <line x1="110.707" y1="989.214" x2="103.742" y2="989.214"/>
      <line x1="111.108" y1="989.814" x2="104.342" y2="989.814"/>
      <line x1="111.495" y1="990.414" x2="104.942" y2="990.414"/>
      <line x1="111.879" y1="991.014" x2="105.542" y2="991.014"/>
      <line x1="112.235" y1="991.614" x2="106.142" y2="991.614"/>
      <line x1="112.590" y1="992.214" x2="106.742" y2="992.214"/>
      <line x1="112.946" y1="992.814" x2="107.342" y2="992.814"/>
      <line x1="113.302" y1="993.414" x2="107.942" y2="993.414"/>
      <line x1="113.649" y1="994.014" x2="108.542" y2="994.014"/>
      <line x1="113.988" y1="994.614" x2="109.142" y2="994.614"/>
      <line x1="114.350" y1="995.214" x2="109.742" y2="995.214"/>
      <line x1="114.722" y1="995.814" x2="110.342" y2="995.814"/>
      <line x1="115.093" y1="996.414" x2="110.942" y2="996.414"/>
      <line x1="115.467" y1="997.014" x2="111.542" y2="997.014"/>
      <line x1="115.879" y1="997.614" x2="112.142" y2="997.614"/>
      <line x1="116.290" y1="998.214" x2="112.742" y2="998.214"/>
      <line x1="116.702" y1="998.814" x2="113.342" y2="998.814"/>
      <line x1="117.114" y1="999.414" x2="113.942" y2="999.414"/>
      <line x1="117.550" y1="1000.014" x2="114.542" y2="1000.014"/>
      <line x1="118.027" y1="1000.614" x2="115.142" y2="1000.614"/>
      <line x1="118.503" y1="1001.214" x2="115.742" y2="1001.214"/>
      <line x1="118.980" y1="1001.814" x2="116.342" y2="1001.814"/>
      <line x1="119.456" y1="1002.414" x2="116.942" y2="1002.414"/>
      <line x1="119.933" y1="1003.014" x2="117.542" y2="1003.014"/>
      <line x1="120.410" y1="1003.614" x2="118.142" y2="1003.614"/>
      <line x1="120.886" y1="1004.214" x2="118.742" y2="1004.214"/>
      <line x1="121.417" y1="1004.814" x2="119.342" y2="1004.814"/>
      <line x1="121.969" y1="1005.414" x2="119.942" y2="1005.414"/>
    </g>
    <g stroke="#1976D2" stroke-width="0.4">
      <polyline points="100.042,989.556 100.386,989.392 100.735,989.177 148.265,1036.707 147.599,1037.718 149.981,1040.101 151.254,1038.090 151.908,1037.029 152.271,1036.344 152.605,1035.617 153.090,1034.109 153.329,1032.541 153.317,1030.965 153.061,1029.434 152.892,1028.852 152.781,1028.529 152.568,1027.968 152.301,1027.406 151.859,1026.622 151.433,1026.007 151.102,1025.577 150.966,1025.419 150.434,1024.877 150.105,1024.474 149.279,1023.694 148.858,1023.247 147.523,1022.117 146.102,1021.106 144.780,1020.347 144.597,1020.231 140.288,1017.802 137.385,1016.035 135.284,1014.634 134.636,1014.183 132.928,1012.924 132.056,1012.240 130.679,1011.118 129.642,1010.205 128.535,1009.214 126.487,1007.223 122.619,1003.020 119.061,998.540 117.209,995.841 115.894,993.720 115.291,992.652 113.629,989.848 113.092,989.003 112.564,988.198 111.979,987.390 111.529,986.869 111.044,986.387 110.525,985.945 110.373,985.833 109.975,985.545 109.399,985.191 108.784,984.879 108.135,984.630 107.535,984.460 106.854,984.316 106.412,984.261 106.231,984.250 105.557,984.218 105.209,984.234 104.288,984.340 103.721,984.488 103.105,984.673 102.768,984.821 101.229,985.400 98.913,986.314 96.923,987.042 99.586,989.706" fill="none"/>
      <polyline points="99.586,989.706 99.631,989.751 100.042,989.556" fill="none"/>
      <polyline points="150.745,1037.772 151.387,1036.731 151.733,1036.078 152.045,1035.400 152.504,1033.971 152.728,1032.498 152.718,1031.017 152.475,1029.568 152.320,1029.033 152.217,1028.732 152.016,1028.203 151.768,1027.682 151.350,1026.941 150.949,1026.361 150.636,1025.955 150.524,1025.825 149.987,1025.277 149.665,1024.883 148.854,1024.118 148.445,1023.683 147.155,1022.592 145.778,1021.612 144.470,1020.861 144.289,1020.747 139.985,1018.320 137.063,1016.541 134.947,1015.130 134.286,1014.671 132.565,1013.402 131.681,1012.709 130.291,1011.575 129.243,1010.654 128.125,1009.652 126.057,1007.642 122.163,1003.410 118.578,998.897 116.706,996.169 115.378,994.026 114.771,992.952 113.117,990.162 112.588,989.329 112.070,988.539 111.508,987.763 111.090,987.278 110.637,986.829 110.152,986.416 110.019,986.318 109.641,986.044 109.106,985.715 108.540,985.428 107.945,985.200 107.391,985.043 106.755,984.908 106.357,984.858 106.199,984.849 105.556,984.818 105.258,984.832 104.399,984.931 103.884,985.066 103.312,985.238 102.995,985.377 101.445,985.960 99.127,986.875 98.012,987.283 99.756,989.027 100.099,988.864 100.824,988.418 149.035,1036.628 148.369,1037.640 149.875,1039.146 150.745,1037.772" fill="none"/>
      <polyline points="150.236,1037.454 150.866,1036.433 151.195,1035.812 151.485,1035.182 151.918,1033.833 152.128,1032.454 152.118,1031.069 151.889,1029.702 151.747,1029.214 151.652,1028.936 151.463,1028.439 151.235,1027.959 150.841,1027.260 150.464,1026.716 150.170,1026.334 150.082,1026.231 149.539,1025.678 149.225,1025.293 148.429,1024.543 148.031,1024.119 146.786,1023.066 145.453,1022.117 144.161,1021.375 143.982,1021.262 139.682,1018.838 136.740,1017.047 134.609,1015.626 133.937,1015.159 132.202,1013.879 131.306,1013.178 129.903,1012.033 128.845,1011.102 127.716,1010.091 125.627,1008.060 121.707,1003.800 118.095,999.254 116.203,996.497 114.861,994.331 114.252,993.253 112.606,990.476 112.084,989.654 111.576,988.880 111.037,988.136 110.650,987.688 110.231,987.271 109.780,986.887 109.666,986.803 109.307,986.543 108.813,986.239 108.296,985.977 107.755,985.770 107.246,985.625 106.655,985.500 106.302,985.456 106.167,985.448 105.556,985.419 105.306,985.431 104.509,985.522 104.046,985.644 103.520,985.802 103.221,985.933 101.660,986.520 99.106,987.529 99.875,988.298 100.913,987.658 149.805,1036.550 149.139,1037.561 149.769,1038.192 150.236,1037.454" fill="none"/>
      <polyline points="150.657,1035.546 150.925,1034.964 151.332,1033.695 151.528,1032.411 151.518,1031.121 151.303,1029.836 151.175,1029.395 151.088,1029.139 150.911,1028.674 150.703,1028.235 150.332,1027.579 149.979,1027.070 149.704,1026.712 149.640,1026.637 149.092,1026.079 148.784,1025.703 148.004,1024.967 147.617,1024.555 146.418,1023.540 145.129,1022.623 143.852,1021.889 143.675,1021.778 139.378,1019.355 136.418,1017.553 134.272,1016.122 133.588,1015.647 131.839,1014.357 130.932,1013.646 129.515,1012.491 128.447,1011.551 127.306,1010.530 125.197,1008.479 121.250,1004.190 117.612,999.611 115.701,996.825 114.345,994.637 113.733,993.553 112.094,990.790 111.580,989.980 111.082,989.220 110.566,988.508 110.211,988.097 109.824,987.713 109.408,987.358 109.312,987.288 108.974,987.042 108.520,986.763 108.053,986.527 107.565,986.340 107.102,986.208 106.556,986.093 106.247,986.054 106.135,986.047 105.555,986.020 105.354,986.029 104.620,986.113 104.209,986.221 103.728,986.366 103.448,986.489 101.876,987.079 101.379,987.276 150.308,1036.205 150.657,1035.546" fill="none"/>
      <polyline points="100.902,987.223 99.785,987.783" fill="none"/>
      <polyline points="149.872,1037.227 149.620,1037.618" fill="none"/>
    </g>
    <g stroke="#C62828" stroke-width="0.4" fill="none">
    </g>
    <g stroke="#EF6C00" stroke-width="0.4" fill="none">
    </g>
  </g>
  <g stroke="#000000" stroke-width="0.4">
    <line x1="300.000" y1="600.000" x2="900.000" y2="600.000"/>
  </g>
  <g stroke="#000000" stroke-width="0.4">
    <line x1="600.000" y1="300.000" x2="600.000" y2="900.000"/>
  </g>
  <circle cx="600.000" cy="600.000" r="600.000" stroke="red" stroke-width="1" fill="none"/>
  </g>
</svg>
