<?xml version="1.0" encoding="UTF-8"?>
<svg xmlns="http://www.w3.org/2000/svg" version="1.1" width="1200" height="1200">
  <g fill="none" stroke-linecap="round" stroke-linejoin="round">
  <text x="10" y="20" font-size="24" fill="#555">Layer 87 Z=29.400 mm</text>
  <g transform="translate(521.230,-448.037)">
    <g stroke="#2E7D32" stroke-width="0.4">
      <line x1="122.816" y1="1009.323" x2="119.491" y2="1009.323"/>
      <line x1="123.466" y1="1009.923" x2="120.091" y2="1009.923"/>
      <line x1="124.117" y1="1010.523" x2="120.691" y2="1010.523"/>
      <line x1="124.809" y1="1011.123" x2="121.291" y2="1011.123"/>
      <line x1="125.556" y1="1011.723" x2="121.891" y2="1011.723"/>
      <line x1="125.638" y1="1012.323" x2="122.491" y2="1012.323"/>
      <line x1="125.638" y1="1012.923" x2="123.091" y2="1012.923"/>
      <line x1="125.638" y1="1013.523" x2="123.691" y2="1013.523"/>
      <line x1="125.638" y1="1014.123" x2="124.291" y2="1014.123"/>
      <line x1="125.638" y1="1014.723" x2="124.891" y2="1014.723"/>
      <line x1="125.638" y1="1015.323" x2="125.491" y2="1015.323"/>
      <line x1="126.303" y1="1012.323" x2="125.698" y2="1012.323"/>
      <line x1="127.087" y1="1012.923" x2="125.698" y2="1012.923"/>
      <line x1="127.967" y1="1013.523" x2="125.698" y2="1013.523"/>
      <line x1="128.847" y1="1014.123" x2="125.698" y2="1014.123"/>
      <line x1="129.773" y1="1014.723" x2="125.698" y2="1014.723"/>
      <line x1="130.782" y1="1015.323" x2="125.698" y2="1015.323"/>
      <line x1="131.791" y1="1015.923" x2="127.769" y2="1015.923"/>
      <line x1="127.464" y1="1015.923" x2="126.091" y2="1015.923"/>
      <line x1="127.001" y1="1016.523" x2="126.691" y2="1016.523"/>
      <line x1="132.887" y1="1016.523" x2="128.369" y2="1016.523"/>
      <line x1="134.044" y1="1017.123" x2="128.969" y2="1017.123"/>
      <line x1="135.223" y1="1017.723" x2="129.569" y2="1017.723"/>
      <line x1="136.478" y1="1018.323" x2="130.169" y2="1018.323"/>
      <line x1="137.763" y1="1018.923" x2="130.769" y2="1018.923"/>
      <line x1="139.151" y1="1019.523" x2="131.369" y2="1019.523"/>
      <line x1="140.539" y1="1020.123" x2="131.969" y2="1020.123"/>
      <line x1="141.776" y1="1020.723" x2="132.569" y2="1020.723"/>
      <line x1="142.805" y1="1021.323" x2="133.169" y2="1021.323"/>
      <line x1="143.698" y1="1021.923" x2="133.769" y2="1021.923"/>
      <line x1="144.470" y1="1022.523" x2="134.369" y2="1022.523"/>
      <line x1="145.146" y1="1023.123" x2="134.969" y2="1023.123"/>
      <line x1="145.754" y1="1023.723" x2="135.569" y2="1023.723"/>
      <line x1="146.317" y1="1024.323" x2="136.169" y2="1024.323"/>
      <line x1="146.886" y1="1024.923" x2="136.769" y2="1024.923"/>
      <line x1="147.464" y1="1025.523" x2="137.369" y2="1025.523"/>
      <line x1="148.042" y1="1026.123" x2="137.969" y2="1026.123"/>
      <line x1="148.608" y1="1026.723" x2="138.569" y2="1026.723"/>
      <line x1="149.133" y1="1027.323" x2="139.169" y2="1027.323"/>
      <line x1="149.581" y1="1027.923" x2="139.769" y2="1027.923"/>
      <line x1="150.018" y1="1028.523" x2="140.369" y2="1028.523"/>
      <line x1="150.331" y1="1029.123" x2="140.969" y2="1029.123"/>
      <line x1="150.645" y1="1029.723" x2="141.569" y2="1029.723"/>
      <line x1="150.880" y1="1030.323" x2="142.169" y2="1030.323"/>
      <line x1="151.065" y1="1030.923" x2="142.769" y2="1030.923"/>
      <line x1="151.249" y1="1031.523" x2="143.369" y2="1031.523"/>
      <line x1="151.367" y1="1032.123" x2="143.969" y2="1032.123"/>
      <line x1="151.463" y1="1032.723" x2="144.569" y2="1032.723"/>
      <line x1="151.559" y1="1033.323" x2="145.169" y2="1033.323"/>
      <line x1="151.575" y1="1033.923" x2="145.769" y2="1033.923"/>
      <line x1="151.575" y1="1034.523" x2="146.369" y2="1034.523"/>
      <line x1="151.576" y1="1035.123" x2="146.969" y2="1035.123"/>
      <line x1="151.494" y1="1035.723" x2="147.569" y2="1035.723"/>
      <line x1="151.399" y1="1036.323" x2="148.169" y2="1036.323"/>
      <line x1="151.304" y1="1036.923" x2="148.769" y2="1036.923"/>
      <line x1="151.122" y1="1037.523" x2="149.369" y2="1037.523"/>
      <line x1="150.928" y1="1038.123" x2="149.969" y2="1038.123"/>
      <line x1="150.733" y1="1038.723" x2="150.569" y2="1038.723"/>
      <line x1="102.012" y1="983.523" x2="96.379" y2="983.523"/>
      <line x1="103.424" y1="984.123" x2="95.969" y2="984.123"/>
      <line x1="104.373" y1="984.723" x2="96.569" y2="984.723"/>
      <line x1="105.077" y1="985.323" x2="97.169" y2="985.323"/>
      <line x1="105.613" y1="985.923" x2="97.769" y2="985.923"/>
      <line x1="106.121" y1="986.523" x2="98.369" y2="986.523"/>
      <line x1="106.629" y1="987.123" x2="98.969" y2="987.123"/>
      <line x1="107.119" y1="987.723" x2="99.569" y2="987.723"/>
      <line x1="107.591" y1="988.323" x2="100.169" y2="988.323"/>
      <line x1="108.025" y1="988.923" x2="100.769" y2="988.923"/>
      <line x1="108.445" y1="989.523" x2="101.369" y2="989.523"/>
      <line x1="108.836" y1="990.123" x2="101.969" y2="990.123"/>
      <line x1="109.203" y1="990.723" x2="102.569" y2="990.723"/>
      <line x1="109.554" y1="991.323" x2="103.169" y2="991.323"/>
      <line x1="109.870" y1="991.923" x2="103.756" y2="991.923"/>
      <line x1="110.187" y1="992.523" x2="102.953" y2="992.523"/>
      <line x1="110.489" y1="993.123" x2="103.291" y2="993.123"/>
      <line x1="110.792" y1="993.723" x2="103.891" y2="993.723"/>
      <line x1="111.106" y1="994.323" x2="104.491" y2="994.323"/>
      <line x1="111.426" y1="994.923" x2="105.091" y2="994.923"/>
      <line x1="111.783" y1="995.523" x2="105.691" y2="995.523"/>
      <line x1="112.139" y1="996.123" x2="106.291" y2="996.123"/>
      <line x1="112.496" y1="996.723" x2="106.891" y2="996.723"/>
      <line x1="112.853" y1="997.323" x2="107.491" y2="997.323"/>
      <line x1="113.249" y1="997.923" x2="108.091" y2="997.923"/>
      <line x1="113.654" y1="998.523" x2="108.691" y2="998.523"/>
      <line x1="114.059" y1="999.123" x2="109.291" y2="999.123"/>
      <line x1="114.465" y1="999.723" x2="109.891" y2="999.723"/>
      <line x1="114.917" y1="1000.323" x2="110.491" y2="1000.323"/>
      <line x1="115.396" y1="1000.923" x2="111.091" y2="1000.923"/>
      <line x1="115.875" y1="1001.523" x2="111.691" y2="1001.523"/>
      <line x1="116.355" y1="1002.123" x2="112.291" y2="1002.123"/>
      <line x1="116.831" y1="1002.723" x2="112.891" y2="1002.723"/>
      <line x1="117.303" y1="1003.323" x2="113.491" y2="1003.323"/>
      <line x1="117.775" y1="1003.923" x2="114.091" y2="1003.923"/>
      <line x1="118.247" y1="1004.523" x2="114.691" y2="1004.523"/>
      <line x1="118.808" y1="1005.123" x2="115.291" y2="1005.123"/>
      <line x1="119.373" y1="1005.723" x2="115.891" y2="1005.723"/>
      <line x1="119.937" y1="1006.323" x2="116.491" y2="1006.323"/>
      <line x1="120.502" y1="1006.923" x2="117.091" y2="1006.923"/>
      <line x1="121.066" y1="1007.523" x2="117.691" y2="1007.523"/>
      <line x1="121.624" y1="1008.123" x2="118.291" y2="1008.123"/>
      <line x1="122.181" y1="1008.723" x2="118.891" y2="1008.723"/>
      <line x1="6.449" y1="1029.788" x2="6.288" y2="1029.788"/>
      <line x1="7.049" y1="1030.388" x2="6.081" y2="1030.388"/>
      <line x1="7.649" y1="1030.988" x2="5.982" y2="1030.988"/>
      <line x1="8.249" y1="1031.588" x2="5.967" y2="1031.588"/>
      <line x1="8.849" y1="1032.188" x2="6.040" y2="1032.188"/>
      <line x1="9.449" y1="1032.788" x2="6.158" y2="1032.788"/>
      <line x1="10.049" y1="1033.388" x2="6.356" y2="1033.388"/>
      <line x1="10.649" y1="1033.988" x2="6.614" y2="1033.988"/>
      <line x1="11.249" y1="1034.588" x2="6.871" y2="1034.588"/>
      <line x1="11.849" y1="1035.188" x2="7.161" y2="1035.188"/>
      <line x1="12.449" y1="1035.788" x2="7.478" y2="1035.788"/>
      <line x1="13.049" y1="1036.388" x2="7.800" y2="1036.388"/>
      <line x1="13.649" y1="1036.988" x2="8.123" y2="1036.988"/>
      <line x1="14.249" y1="1037.588" x2="8.445" y2="1037.588"/>
      <line x1="14.849" y1="1038.188" x2="8.789" y2="1038.188"/>
      <line x1="15.449" y1="1038.788" x2="9.177" y2="1038.788"/>
      <line x1="16.049" y1="1039.388" x2="9.565" y2="1039.388"/>
      <line x1="16.649" y1="1039.988" x2="9.953" y2="1039.988"/>
      <line x1="17.249" y1="1040.588" x2="10.351" y2="1040.588"/>
      <line x1="17.849" y1="1041.188" x2="10.805" y2="1041.188"/>
      <line x1="18.449" y1="1041.788" x2="11.260" y2="1041.788"/>
      <line x1="19.049" y1="1042.388" x2="11.714" y2="1042.388"/>
      <line x1="19.649" y1="1042.988" x2="12.183" y2="1042.988"/>
      <line x1="20.249" y1="1043.588" x2="12.700" y2="1043.588"/>
      <line x1="20.849" y1="1044.188" x2="13.218" y2="1044.188"/>
      <line x1="21.449" y1="1044.788" x2="13.736" y2="1044.788"/>
      <line x1="22.049" y1="1045.388" x2="14.270" y2="1045.388"/>
      <line x1="22.649" y1="1045.988" x2="14.826" y2="1045.988"/>
      <line x1="23.249" y1="1046.588" x2="15.401" y2="1046.588"/>
      <line x1="23.849" y1="1047.188" x2="15.975" y2="1047.188"/>
      <line x1="24.449" y1="1047.788" x2="16.608" y2="1047.788"/>
      <line x1="25.049" y1="1048.388" x2="17.250" y2="1048.388"/>
      <line x1="25.649" y1="1048.988" x2="17.891" y2="1048.988"/>
      <line x1="26.249" y1="1049.588" x2="18.532" y2="1049.588"/>
      <line x1="26.849" y1="1050.188" x2="19.173" y2="1050.188"/>
      <line x1="27.449" y1="1050.788" x2="19.939" y2="1050.788"/>
      <line x1="28.049" y1="1051.388" x2="20.861" y2="1051.388"/>
      <line x1="28.649" y1="1051.988" x2="22.151" y2="1051.988"/>
      <line x1="29.249" y1="1052.588" x2="24.819" y2="1052.588"/>
      <line x1="67.984" y1="1091.323" x2="67.862" y2="1091.323"/>
      <line x1="68.584" y1="1091.923" x2="67.905" y2="1091.923"/>
      <line x1="69.184" y1="1092.523" x2="67.947" y2="1092.523"/>
      <line x1="69.784" y1="1093.123" x2="67.989" y2="1093.123"/>
      <line x1="70.384" y1="1093.723" x2="68.034" y2="1093.723"/>
      <line x1="70.984" y1="1094.323" x2="68.083" y2="1094.323"/>
      <line x1="71.584" y1="1094.923" x2="68.132" y2="1094.923"/>
      <line x1="72.184" y1="1095.523" x2="68.202" y2="1095.523"/>
      <line x1="72.784" y1="1096.123" x2="68.297" y2="1096.123"/>
      <line x1="73.384" y1="1096.723" x2="68.391" y2="1096.723"/>
      <line x1="73.984" y1="1097.323" x2="68.591" y2="1097.323"/>
      <line x1="74.584" y1="1097.923" x2="68.797" y2="1097.923"/>
      <line x1="75.184" y1="1098.523" x2="69.081" y2="1098.523"/>
      <line x1="75.784" y1="1099.123" x2="69.432" y2="1099.123"/>
      <line x1="76.384" y1="1099.723" x2="69.879" y2="1099.723"/>
      <line x1="76.984" y1="1100.323" x2="70.349" y2="1100.323"/>
      <line x1="77.584" y1="1100.923" x2="70.934" y2="1100.923"/>
      <line x1="78.184" y1="1101.523" x2="71.531" y2="1101.523"/>
      <line x1="78.784" y1="1102.123" x2="72.123" y2="1102.123"/>
      <line x1="79.384" y1="1102.723" x2="72.705" y2="1102.723"/>
      <line x1="79.984" y1="1103.323" x2="73.286" y2="1103.323"/>
      <line x1="80.584" y1="1103.923" x2="73.911" y2="1103.923"/>
      <line x1="81.184" y1="1104.523" x2="74.572" y2="1104.523"/>
      <line x1="81.784" y1="1105.123" x2="75.233" y2="1105.123"/>
      <line x1="82.384" y1="1105.723" x2="75.894" y2="1105.723"/>
      <line x1="82.984" y1="1106.323" x2="76.554" y2="1106.323"/>
      <line x1="83.584" y1="1106.923" x2="77.215" y2="1106.923"/>
      <line x1="84.184" y1="1107.523" x2="77.952" y2="1107.523"/>
      <line x1="84.784" y1="1108.123" x2="78.691" y2="1108.123"/>
      <line x1="85.384" y1="1108.723" x2="79.430" y2="1108.723"/>
      <line x1="85.984" y1="1109.323" x2="80.225" y2="1109.323"/>
      <line x1="86.584" y1="1109.923" x2="81.032" y2="1109.923"/>
      <line x1="87.184" y1="1110.523" x2="81.854" y2="1110.523"/>
      <line x1="87.784" y1="1111.123" x2="82.747" y2="1111.123"/>
      <line x1="88.384" y1="1111.723" x2="83.667" y2="1111.723"/>
      <line x1="88.984" y1="1112.323" x2="84.772" y2="1112.323"/>
      <line x1="88.373" y1="1112.923" x2="86.761" y2="1112.923"/>
      <line x1="90.399" y1="1111.600" x2="90.061" y2="1111.600"/>
      <line x1="90.496" y1="1112.200" x2="89.350" y2="1112.200"/>
      <line x1="89.475" y1="1112.292" x2="89.405" y2="1112.292"/>
    </g>
    <g stroke="#1976D2" stroke-width="0.4">
      <polyline points="151.674,1041.511 152.671,1039.553 153.340,1037.491 153.676,1035.375 153.675,1033.257 153.345,1031.196 152.720,1029.161 151.775,1027.350 150.562,1025.727 150.283,1025.451 150.070,1025.201 148.146,1023.205 147.280,1022.278 146.323,1021.334 146.108,1021.160 145.993,1021.047 144.586,1019.954 143.055,1019.010 141.454,1018.231 138.564,1016.981 136.680,1016.099 135.779,1015.657 133.509,1014.480 133.087,1014.250 130.549,1012.741 128.108,1011.077 127.866,1010.885 125.863,1009.276 123.764,1007.341 122.553,1006.037 119.860,1003.177 118.312,1001.208 116.304,998.695 114.696,996.314 113.211,993.816 112.600,992.647 112.077,991.605 111.281,990.096 110.389,988.639 109.412,987.242 108.512,986.098 106.726,983.987 106.076,983.386 105.477,982.921 104.828,982.497 104.135,982.119 103.401,981.790 102.631,981.514 101.829,981.294 101.000,981.132 100.150,981.032 99.284,980.994 98.408,981.022 97.529,981.115 96.655,981.276 95.781,981.506 94.926,981.817 90.700,983.501 93.251,986.052 94.290,985.414 100.564,991.688 99.604,992.405 127.069,1019.871 127.800,1018.924 148.841,1039.964 148.170,1040.971 150.542,1043.343 151.674,1041.511" fill="none"/>
      <polyline points="151.150,1041.216 152.115,1039.323 152.755,1037.351 153.076,1035.327 153.075,1033.305 152.759,1031.333 152.163,1029.389 151.265,1027.670 150.109,1026.122 149.842,1025.859 149.625,1025.603 147.711,1023.618 146.850,1022.696 145.923,1021.782 145.709,1021.609 145.597,1021.499 144.244,1020.447 142.765,1019.536 141.204,1018.776 138.318,1017.529 136.421,1016.640 135.509,1016.193 133.227,1015.010 132.790,1014.772 130.227,1013.248 127.751,1011.561 127.491,1011.354 125.471,1009.731 123.340,1007.767 122.114,1006.447 119.405,1003.569 117.841,1001.581 115.821,999.051 114.190,996.635 112.687,994.109 112.066,992.921 111.543,991.880 110.760,990.393 109.887,988.968 108.930,987.599 108.047,986.477 106.292,984.403 105.688,983.844 105.128,983.410 104.520,983.012 103.868,982.657 103.177,982.347 102.450,982.087 101.692,981.878 100.908,981.725 100.102,981.630 99.280,981.595 98.449,981.621 97.615,981.710 96.785,981.862 95.960,982.079 95.139,982.378 91.768,983.721 93.341,985.293 94.380,984.655 101.478,991.753 100.518,992.471 127.011,1018.964 127.742,1018.017 149.613,1039.888 148.942,1040.894 150.430,1042.383 151.150,1041.216" fill="none"/>
      <polyline points="150.627,1040.922 151.559,1039.092 152.170,1037.210 152.476,1035.280 152.475,1033.353 152.173,1031.469 151.606,1029.618 150.756,1027.991 149.655,1026.518 149.402,1026.268 149.180,1026.006 147.276,1024.031 146.420,1023.115 145.523,1022.230 145.309,1022.057 145.201,1021.952 143.901,1020.941 142.476,1020.063 140.953,1019.321 138.072,1018.076 136.162,1017.181 135.239,1016.728 132.946,1015.540 132.493,1015.294 129.904,1013.754 127.395,1012.044 127.116,1011.822 125.080,1010.186 122.917,1008.192 121.676,1006.857 118.950,1003.961 117.371,1001.953 115.337,999.406 113.683,996.957 112.163,994.402 111.532,993.194 111.010,992.154 110.238,990.690 109.385,989.297 108.448,987.957 107.582,986.856 105.857,984.819 105.299,984.302 104.779,983.899 104.211,983.527 103.602,983.195 102.953,982.904 102.269,982.659 101.555,982.463 100.815,982.319 100.054,982.229 99.277,982.195 98.490,982.220 97.700,982.304 96.916,982.448 96.140,982.652 95.353,982.938 94.036,983.463 92.837,983.941 93.430,984.534 94.469,983.896 102.392,991.819 101.432,992.536 126.953,1018.057 127.684,1017.110 150.385,1039.811 149.714,1040.818 150.318,1041.422 150.627,1040.922" fill="none"/>
      <polyline points="151.003,1038.862 151.585,1037.070 151.876,1035.233 151.875,1033.401 151.588,1031.605 151.048,1029.847 150.246,1028.311 149.201,1026.913 148.962,1026.677 148.735,1026.409 146.841,1024.444 145.990,1023.534 145.122,1022.678 144.909,1022.506 144.806,1022.404 143.559,1021.435 142.187,1020.589 140.703,1019.867 137.825,1018.623 135.902,1017.722 134.969,1017.264 132.664,1016.069 132.197,1015.815 129.581,1014.260 127.039,1012.527 126.742,1012.291 124.688,1010.641 122.493,1008.617 121.238,1007.267 118.495,1004.352 116.901,1002.326 114.853,999.762 113.176,997.279 111.639,994.694 110.998,993.468 110.476,992.429 109.716,990.986 108.883,989.626 107.966,988.315 107.117,987.236 105.423,985.234 104.911,984.761 104.431,984.388 103.903,984.043 103.335,983.733 102.729,983.461 102.088,983.232 101.418,983.048 100.722,982.912 100.005,982.827 99.273,982.795 98.532,982.819 97.786,982.898 97.047,983.034 96.319,983.225 95.567,983.499 95.105,983.683 103.306,991.884 102.347,992.602 126.895,1017.151 127.626,1016.204 150.760,1039.338 151.003,1038.862" fill="none"/>
      <polyline points="9.171,1027.402 7.234,1025.465 6.327,1026.386 5.567,1027.133 4.988,1027.831 4.801,1028.113 4.573,1028.508 4.363,1028.943 4.177,1029.422 4.012,1029.978 3.981,1030.132 3.895,1030.642 3.864,1031.402 3.872,1031.972 3.882,1032.067 4.059,1033.055 4.118,1033.305 4.380,1034.109 4.973,1035.490 5.338,1036.242 6.855,1039.066 8.565,1041.708 10.439,1044.182 12.455,1046.517 13.189,1047.315 14.568,1048.755 17.941,1051.911 18.307,1052.197 19.311,1052.941 20.861,1053.769 22.548,1054.340 23.589,1054.510 24.303,1054.642 28.461,1055.137 30.030,1055.297 32.038,1055.619 32.392,1055.660 32.656,1055.671 33.011,1055.716 33.210,1055.711 33.630,1055.738 33.759,1055.725 34.247,1055.721 34.807,1055.667 35.381,1055.573 35.969,1055.424 36.331,1055.283 36.920,1055.151 33.295,1051.526" fill="none"/>
      <polyline points="33.295,1051.526 31.962,1050.193 31.277,1050.761" fill="none"/>
      <polyline points="31.277,1050.761 30.793,1051.163 9.206,1029.576 9.611,1029.095" fill="none"/>
      <polyline points="9.611,1029.095 10.184,1028.415 9.171,1027.402" fill="none"/>
      <polyline points="8.757,1027.836 7.237,1026.317 6.751,1026.810 6.010,1027.540 5.470,1028.190 5.311,1028.429 5.104,1028.789 4.914,1029.183 4.745,1029.617 4.595,1030.123 4.571,1030.241 4.493,1030.705 4.464,1031.410 4.472,1031.938 4.476,1031.985 4.647,1032.933 4.696,1033.143 4.942,1033.897 5.519,1035.241 5.872,1035.969 7.372,1038.760 9.057,1041.364 10.905,1043.804 12.903,1046.118 13.626,1046.904 14.990,1048.328 18.331,1051.455 18.670,1051.719 19.632,1052.433 21.100,1053.216 22.693,1053.756 23.692,1053.919 24.393,1054.048 28.527,1054.540 30.108,1054.702 32.120,1055.024 32.439,1055.062 32.706,1055.073 33.042,1055.115 33.221,1055.111 33.619,1055.136 33.727,1055.125 34.217,1055.121 34.729,1055.072 35.814,1054.893 32.859,1051.939" fill="none"/>
      <polyline points="32.859,1051.939 31.924,1051.004 31.703,1051.187" fill="none"/>
      <polyline points="31.703,1051.187 30.755,1051.974 8.392,1029.611 9.185,1028.669" fill="none"/>
      <polyline points="9.185,1028.669 9.370,1028.450 8.757,1027.836" fill="none"/>
      <polyline points="33.695,1054.525 34.591,1054.519 31.887,1051.815 30.718,1052.785 7.578,1029.645 8.556,1028.484 7.242,1027.170 6.452,1027.947 5.952,1028.548 5.822,1028.745 5.635,1029.070 5.465,1029.422 5.314,1029.811 5.178,1030.267 5.161,1030.349 5.091,1030.767 5.064,1031.417 5.071,1031.903 5.234,1032.811 5.274,1032.981 5.504,1033.685 6.065,1034.992 6.406,1035.696 7.889,1038.455 9.548,1041.019 11.372,1043.427 13.350,1045.719 14.064,1046.494 15.412,1047.901 18.722,1050.998 19.033,1051.242 19.954,1051.925 21.339,1052.664 22.839,1053.172 23.794,1053.328 24.483,1053.455 28.593,1053.944 30.186,1054.106 32.202,1054.430 32.487,1054.463 32.757,1054.475 33.072,1054.514 33.232,1054.510 33.608,1054.534 33.695,1054.525" fill="none"/>
      <polyline points="32.702,1053.478 31.849,1052.626 30.698,1053.581 32.285,1053.835 32.516,1053.862 32.702,1053.478" fill="none"/>
      <polyline points="6.764,1029.680 7.742,1028.519 7.238,1028.015 6.894,1028.353 6.435,1028.906 6.332,1029.061 6.165,1029.350 6.016,1029.661 5.882,1030.006 5.761,1030.412 5.752,1030.458 5.689,1030.830 5.664,1031.425 5.670,1031.845 5.822,1032.688 5.853,1032.818 6.066,1033.473 6.611,1034.742 6.941,1035.423 8.406,1038.149 10.040,1040.675 11.839,1043.049 13.798,1045.319 14.501,1046.083 15.834,1047.474 19.112,1050.542 19.397,1050.764 20.276,1051.416 21.578,1052.111 22.985,1052.588 23.897,1052.737 24.573,1052.861 28.659,1053.348 30.633,1053.549 6.764,1029.680" fill="none"/>
      <polyline points="67.416,1085.647 65.797,1084.028 65.680,1084.888 65.595,1085.200 65.509,1085.690 65.504,1085.865 65.442,1086.393 65.405,1087.129 65.455,1087.931 65.442,1088.402 65.503,1088.836 65.515,1089.115 65.560,1089.602 65.729,1090.924 65.923,1093.669 66.072,1095.498 66.344,1097.220 66.418,1097.487 66.790,1098.564 66.910,1098.883 67.102,1099.279 67.317,1099.675 67.766,1100.432 68.813,1101.768 70.460,1103.425 72.087,1105.103 76.137,1108.780 76.423,1108.987 78.279,1110.494 80.497,1112.142 82.409,1113.426 82.653,1113.569 83.430,1113.983 83.812,1114.199 84.886,1114.639 85.432,1114.821 85.608,1114.867 86.320,1114.987 86.974,1115.080 87.675,1115.073 88.306,1115.056 88.587,1115.022 89.154,1114.925 89.630,1114.806 90.332,1114.585 90.801,1114.408 90.940,1114.344 91.899,1113.830 92.290,1113.551 92.407,1113.451 92.924,1113.061 93.388,1112.612 93.562,1112.421 93.892,1112.123 91.550,1109.782" fill="none"/>
      <polyline points="91.550,1109.782 90.367,1108.598 89.687,1109.170" fill="none"/>
      <polyline points="89.687,1109.170 89.205,1109.575 67.779,1088.149 68.181,1087.664" fill="none"/>
      <polyline points="68.181,1087.664 68.749,1086.980 67.416,1085.647" fill="none"/>
      <polyline points="67.003,1086.083 66.123,1085.203 66.103,1085.908 66.040,1086.444 66.006,1087.125 66.056,1087.921 66.043,1088.369 66.101,1088.781 66.114,1089.074 66.156,1089.537 66.326,1090.865 66.521,1093.623 66.669,1095.427 66.931,1097.092 66.991,1097.308 67.354,1098.360 67.462,1098.646 67.636,1099.005 67.839,1099.379 68.263,1100.092 69.264,1101.370 70.888,1103.004 72.505,1104.672 76.515,1108.314 76.788,1108.511 78.647,1110.020 80.844,1111.651 82.728,1112.917 82.946,1113.045 83.719,1113.457 84.075,1113.658 85.095,1114.076 85.603,1114.246 85.734,1114.280 86.412,1114.394 87.013,1114.479 87.664,1114.473 88.262,1114.457 88.500,1114.428 89.031,1114.337 89.468,1114.229 90.135,1114.018 90.568,1113.854 90.673,1113.806 91.582,1113.320 91.920,1113.079 92.030,1112.984 92.533,1112.604 93.037,1112.117 91.116,1110.196" fill="none"/>
      <polyline points="91.116,1110.196 90.332,1109.411 90.113,1109.596" fill="none"/>
      <polyline points="90.113,1109.596 89.170,1110.389 66.968,1088.186 67.755,1087.238" fill="none"/>
      <polyline points="67.755,1087.238 67.938,1087.018 67.003,1086.083" fill="none"/>
      <polyline points="87.652,1113.873 88.217,1113.858 88.413,1113.834 88.908,1113.749 89.305,1113.651 89.939,1113.451 90.336,1113.301 90.406,1113.269 91.265,1112.809 91.549,1112.606 91.654,1112.516 92.186,1112.114 90.297,1110.225 89.135,1111.202 67.127,1089.194 66.742,1089.383 66.924,1090.806 67.119,1093.578 67.265,1095.356 67.518,1096.964 67.564,1097.129 67.919,1098.156 68.014,1098.409 68.170,1098.731 68.360,1099.082 68.759,1099.753 69.714,1100.972 71.316,1102.584 72.922,1104.241 76.893,1107.847 77.153,1108.034 79.015,1109.546 81.190,1111.161 83.047,1112.409 83.238,1112.521 84.008,1112.931 84.338,1113.118 85.304,1113.513 85.775,1113.670 85.860,1113.693 86.504,1113.801 87.053,1113.879 87.652,1113.873" fill="none"/>
      <polyline points="87.641,1113.273 88.173,1113.259 88.327,1113.240 88.785,1113.162 89.143,1113.073 89.742,1112.884 90.104,1112.747 90.139,1112.731 90.948,1112.298 91.282,1112.059 90.262,1111.039 89.100,1112.016 67.497,1090.413 67.717,1093.532 67.861,1095.284 68.106,1096.836 68.137,1096.950 68.483,1097.953 68.566,1098.172 68.704,1098.457 68.882,1098.786 69.255,1099.413 70.165,1100.575 71.744,1102.164 73.340,1103.809 77.272,1107.380 77.518,1107.558 79.384,1109.072 81.536,1110.671 83.366,1111.900 83.531,1111.997 84.298,1112.405 84.600,1112.577 85.513,1112.950 85.946,1113.095 85.985,1113.105 86.596,1113.208 87.092,1113.279 87.641,1113.273" fill="none"/>
      <polyline points="33.869,1054.222 33.231,1053.951 33.149,1053.918 32.755,1054.172" fill="none"/>
    </g>
    <g stroke="#C62828" stroke-width="0.4" fill="none">
    </g>
    <g stroke="#EF6C00" stroke-width="0.4" fill="none">
    </g>
  </g>
  <g stroke="#000000" stroke-width="0.4">
    <line x1="300.000" y1="600.000" x2="900.000" y2="600.000"/>
  </g>
  <g stroke="#000000" stroke-width="0.4">
    <line x1="600.000" y1="300.000" x2="600.000" y2="900.000"/>
  </g>
  <circle cx="600.000" cy="600.000" r="600.000" stroke="red" stroke-width="1" fill="none"/>
  </g>
</svg>
