<?xml version="1.0" encoding="UTF-8"?>
<svg xmlns="http://www.w3.org/2000/svg" version="1.1" width="1200" height="1200">
  <g fill="none" stroke-linecap="round" stroke-linejoin="round">
  <text x="10" y="20" font-size="24" fill="#555">Layer 94 Z=30.800 mm</text>
  <g transform="translate(476.085,-411.955)">
    <g stroke="#2E7D32" stroke-width="0.4">
      <line x1="120.942" y1="1007.532" x2="120.942" y2="1007.078"/>
      <line x1="121.542" y1="1008.132" x2="121.542" y2="1007.078"/>
      <line x1="122.142" y1="1008.732" x2="122.142" y2="1007.078"/>
      <line x1="122.742" y1="1009.332" x2="122.742" y2="1007.193"/>
      <line x1="123.342" y1="1009.932" x2="123.342" y2="1007.844"/>
      <line x1="123.942" y1="1010.532" x2="123.942" y2="1008.495"/>
      <line x1="124.542" y1="1011.132" x2="124.542" y2="1009.081"/>
      <line x1="125.142" y1="1011.732" x2="125.142" y2="1009.657"/>
      <line x1="125.742" y1="1012.332" x2="125.742" y2="1010.233"/>
      <line x1="126.342" y1="1012.932" x2="126.342" y2="1010.791"/>
      <line x1="126.942" y1="1013.532" x2="126.942" y2="1011.307"/>
      <line x1="127.542" y1="1014.132" x2="127.542" y2="1011.822"/>
      <line x1="128.142" y1="1014.732" x2="128.142" y2="1012.337"/>
      <line x1="128.742" y1="1015.332" x2="128.742" y2="1012.825"/>
      <line x1="129.342" y1="1015.932" x2="129.342" y2="1013.286"/>
      <line x1="129.942" y1="1016.532" x2="129.942" y2="1013.740"/>
      <line x1="130.542" y1="1017.132" x2="130.542" y2="1014.185"/>
      <line x1="131.142" y1="1017.732" x2="131.142" y2="1014.612"/>
      <line x1="131.742" y1="1018.332" x2="131.742" y2="1015.018"/>
      <line x1="132.342" y1="1018.932" x2="132.342" y2="1015.424"/>
      <line x1="132.942" y1="1019.532" x2="132.942" y2="1015.813"/>
      <line x1="133.542" y1="1020.132" x2="133.542" y2="1016.193"/>
      <line x1="134.142" y1="1020.732" x2="134.142" y2="1016.554"/>
      <line x1="134.742" y1="1021.332" x2="134.742" y2="1016.915"/>
      <line x1="135.342" y1="1021.932" x2="135.342" y2="1017.276"/>
      <line x1="135.942" y1="1022.532" x2="135.942" y2="1017.620"/>
      <line x1="136.542" y1="1023.132" x2="136.542" y2="1017.949"/>
      <line x1="137.142" y1="1023.732" x2="137.142" y2="1018.276"/>
      <line x1="137.742" y1="1024.332" x2="137.742" y2="1018.603"/>
      <line x1="138.342" y1="1024.932" x2="138.342" y2="1018.930"/>
      <line x1="138.942" y1="1025.532" x2="138.942" y2="1019.244"/>
      <line x1="139.542" y1="1026.132" x2="139.542" y2="1019.548"/>
      <line x1="140.142" y1="1026.732" x2="140.142" y2="1019.852"/>
      <line x1="140.742" y1="1027.332" x2="140.742" y2="1020.156"/>
      <line x1="141.342" y1="1027.932" x2="141.342" y2="1020.460"/>
      <line x1="141.942" y1="1028.532" x2="141.942" y2="1020.764"/>
      <line x1="142.542" y1="1029.132" x2="142.542" y2="1021.068"/>
      <line x1="143.142" y1="1029.732" x2="143.142" y2="1021.410"/>
      <line x1="143.742" y1="1030.332" x2="143.742" y2="1021.755"/>
      <line x1="144.342" y1="1030.932" x2="144.342" y2="1022.119"/>
      <line x1="144.942" y1="1031.532" x2="144.942" y2="1022.507"/>
      <line x1="145.542" y1="1032.132" x2="145.542" y2="1022.936"/>
      <line x1="146.142" y1="1032.732" x2="146.142" y2="1023.422"/>
      <line x1="146.742" y1="1033.332" x2="146.742" y2="1023.931"/>
      <line x1="147.342" y1="1033.932" x2="147.342" y2="1024.500"/>
      <line x1="147.942" y1="1034.532" x2="147.942" y2="1025.116"/>
      <line x1="148.542" y1="1035.132" x2="148.542" y2="1025.761"/>
      <line x1="149.142" y1="1035.732" x2="149.142" y2="1026.430"/>
      <line x1="149.742" y1="1036.332" x2="149.742" y2="1027.121"/>
      <line x1="150.342" y1="1036.932" x2="150.342" y2="1028.040"/>
      <line x1="150.942" y1="1036.100" x2="150.942" y2="1029.254"/>
      <line x1="151.542" y1="1033.556" x2="151.542" y2="1031.675"/>
      <line x1="103.542" y1="990.132" x2="103.542" y2="984.486"/>
      <line x1="102.942" y1="989.532" x2="102.942" y2="984.498"/>
      <line x1="104.142" y1="990.732" x2="104.142" y2="984.543"/>
      <line x1="102.342" y1="988.932" x2="102.342" y2="984.560"/>
      <line x1="104.742" y1="991.332" x2="104.742" y2="984.657"/>
      <line x1="101.742" y1="988.332" x2="101.742" y2="984.683"/>
      <line x1="105.342" y1="991.932" x2="105.342" y2="984.828"/>
      <line x1="101.142" y1="987.732" x2="101.142" y2="984.864"/>
      <line x1="105.942" y1="992.532" x2="105.942" y2="985.059"/>
      <line x1="100.542" y1="987.132" x2="100.542" y2="985.093"/>
      <line x1="99.942" y1="986.532" x2="99.942" y2="985.333"/>
      <line x1="106.542" y1="993.132" x2="106.542" y2="985.357"/>
      <line x1="99.342" y1="985.932" x2="99.342" y2="985.573"/>
      <line x1="107.142" y1="993.732" x2="107.142" y2="985.744"/>
      <line x1="107.742" y1="994.332" x2="107.742" y2="986.229"/>
      <line x1="108.342" y1="994.932" x2="108.342" y2="986.906"/>
      <line x1="108.942" y1="995.532" x2="108.942" y2="987.695"/>
      <line x1="109.542" y1="996.132" x2="109.542" y2="988.512"/>
      <line x1="110.142" y1="996.732" x2="110.142" y2="989.411"/>
      <line x1="110.742" y1="997.332" x2="110.742" y2="990.367"/>
      <line x1="111.342" y1="997.932" x2="111.342" y2="991.404"/>
      <line x1="111.942" y1="998.532" x2="111.942" y2="992.440"/>
      <line x1="112.542" y1="999.132" x2="112.542" y2="993.510"/>
      <line x1="113.142" y1="999.732" x2="113.142" y2="994.601"/>
      <line x1="113.742" y1="1000.332" x2="113.742" y2="995.589"/>
      <line x1="114.342" y1="1000.932" x2="114.342" y2="996.575"/>
      <line x1="114.942" y1="1001.532" x2="114.942" y2="997.521"/>
      <line x1="115.542" y1="1002.132" x2="115.542" y2="998.400"/>
      <line x1="116.142" y1="1002.732" x2="116.142" y2="999.279"/>
      <line x1="116.742" y1="1003.332" x2="116.742" y2="1000.091"/>
      <line x1="117.342" y1="1003.932" x2="117.342" y2="1000.850"/>
      <line x1="117.942" y1="1004.532" x2="117.942" y2="1001.608"/>
      <line x1="118.542" y1="1005.132" x2="118.542" y2="1002.366"/>
      <line x1="119.142" y1="1005.732" x2="119.142" y2="1003.124"/>
      <line x1="119.742" y1="1006.332" x2="119.742" y2="1003.883"/>
      <line x1="120.342" y1="1006.932" x2="120.342" y2="1004.590"/>
      <line x1="120.942" y1="1007.018" x2="120.942" y2="1005.241"/>
      <line x1="121.542" y1="1007.018" x2="121.542" y2="1005.892"/>
      <line x1="122.142" y1="1007.018" x2="122.142" y2="1006.543"/>
      <line x1="110.556" y1="990.046" x2="110.556" y2="990.046"/>
    </g>
    <g stroke="#1976D2" stroke-width="0.4">
      <polyline points="151.965,1038.805 152.807,1037.158 153.381,1035.388 153.667,1033.564 153.679,1032.563 153.676,1031.709 153.380,1029.919 152.809,1028.218 151.987,1026.656 151.572,1026.058 151.364,1025.783 150.497,1024.788 149.689,1023.901 148.846,1023.031 147.949,1022.182 146.578,1021.073 145.850,1020.588 145.079,1020.101 143.592,1019.246 139.581,1017.213 137.086,1015.854 136.519,1015.533 134.522,1014.331 133.631,1013.760 132.075,1012.707 130.953,1011.875 129.763,1010.961 127.587,1009.092 125.527,1007.116 121.656,1002.917 118.103,998.427 116.483,996.054 114.977,993.580 114.006,991.814 112.294,988.857 111.341,987.418 110.951,986.866 110.331,986.054 110.091,985.716 109.244,984.751 108.738,984.312 108.193,983.909 107.614,983.548 107.004,983.229 106.368,982.958 105.709,982.736 105.033,982.565 104.345,982.447 103.650,982.385 102.935,982.389 102.124,982.467 101.542,982.566 100.857,982.742 100.211,982.964 94.151,985.388 96.750,987.987 97.814,987.373 148.568,1038.127 147.913,1039.149 150.287,1041.524 151.965,1038.805" fill="none"/>
      <polyline points="151.441,1038.510 152.251,1036.927 152.796,1035.248 153.067,1033.514 153.079,1032.560 153.076,1031.760 152.796,1030.064 152.256,1028.455 151.473,1026.968 151.086,1026.410 150.898,1026.161 150.049,1025.187 149.252,1024.311 148.424,1023.458 147.554,1022.634 146.222,1021.557 145.523,1021.091 144.769,1020.615 143.307,1019.774 139.302,1017.745 136.795,1016.379 136.216,1016.051 134.206,1014.841 133.301,1014.261 131.728,1013.197 130.591,1012.354 129.385,1011.427 127.184,1009.537 125.098,1007.536 121.199,1003.307 117.620,998.783 115.979,996.379 114.458,993.881 113.484,992.109 111.784,989.173 110.845,987.757 110.467,987.221 109.848,986.409 109.620,986.088 108.820,985.178 108.362,984.780 107.855,984.406 107.316,984.069 106.747,983.772 106.154,983.519 105.540,983.312 104.909,983.152 104.267,983.043 103.625,982.985 102.966,982.989 102.204,983.062 101.667,983.154 101.029,983.317 100.420,983.526 95.219,985.607 96.849,987.237 97.912,986.623 149.334,1038.045 148.678,1039.067 150.175,1040.563 151.441,1038.510" fill="none"/>
      <polyline points="150.918,1038.216 151.695,1036.697 152.210,1035.108 152.468,1033.463 152.479,1032.557 152.477,1031.810 152.212,1030.209 151.703,1028.691 150.959,1027.280 150.600,1026.761 150.432,1026.540 149.601,1025.587 148.814,1024.722 148.002,1023.885 147.158,1023.086 145.866,1022.041 145.197,1021.595 144.459,1021.129 143.021,1020.302 139.022,1018.276 136.504,1016.903 135.914,1016.570 133.889,1015.351 132.971,1014.763 131.381,1013.687 130.230,1012.833 129.006,1011.893 126.780,1009.981 124.669,1007.956 120.743,1003.697 117.136,999.139 115.474,996.704 113.939,994.181 112.961,992.404 111.274,989.490 110.350,988.096 109.983,987.576 109.365,986.765 109.149,986.461 108.396,985.604 107.986,985.249 107.517,984.902 107.018,984.590 106.491,984.315 105.940,984.080 105.370,983.888 104.785,983.740 104.190,983.638 103.600,983.586 102.996,983.588 102.283,983.657 101.792,983.741 101.201,983.893 100.629,984.089 96.287,985.826 96.948,986.487 98.011,985.874 150.099,1037.962 149.444,1038.984 150.063,1039.602 150.918,1038.216" fill="none"/>
      <polyline points="151.139,1036.466 151.625,1034.968 151.868,1033.413 151.879,1032.554 151.877,1031.860 151.628,1030.355 151.149,1028.928 150.445,1027.592 150.114,1027.113 149.966,1026.918 149.153,1025.986 148.377,1025.133 147.581,1024.312 146.763,1023.538 145.510,1022.525 144.870,1022.098 144.149,1021.643 142.736,1020.830 138.743,1018.807 136.213,1017.428 135.611,1017.088 133.572,1015.861 132.641,1015.264 131.034,1014.176 129.868,1013.312 128.628,1012.358 126.377,1010.426 124.241,1008.376 120.286,1004.087 116.653,999.495 114.970,997.030 113.419,994.482 112.438,992.698 110.764,989.806 109.855,988.435 109.499,987.931 108.882,987.121 108.678,986.834 107.972,986.031 107.611,985.717 107.180,985.399 106.719,985.111 106.234,984.858 105.726,984.641 105.200,984.464 104.661,984.327 104.113,984.234 103.574,984.186 103.026,984.188 102.363,984.252 101.918,984.328 101.373,984.468 100.837,984.652 98.552,985.566 150.568,1037.582 151.139,1036.466" fill="none"/>
    </g>
    <g stroke="#C62828" stroke-width="0.4" fill="none">
    </g>
    <g stroke="#EF6C00" stroke-width="0.4" fill="none">
    </g>
  </g>
  <g stroke="#000000" stroke-width="0.4">
    <line x1="300.000" y1="600.000" x2="900.000" y2="600.000"/>
  </g>
  <g stroke="#000000" stroke-width="0.4">
    <line x1="600.000" y1="300.000" x2="600.000" y2="900.000"/>
  </g>
  <circle cx="600.000" cy="600.000" r="600.000" stroke="red" stroke-width="1" fill="none"/>
  </g>
</svg>
