<?xml version="1.0" encoding="UTF-8"?>
<svg xmlns="http://www.w3.org/2000/svg" version="1.1" width="1200" height="1200">
  <g fill="none" stroke-linecap="round" stroke-linejoin="round">
  <text x="10" y="20" font-size="24" fill="#555">Layer 98 Z=31.600 mm</text>
  <g transform="translate(475.118,-412.096)">
    <g stroke="#2E7D32" stroke-width="0.4">
      <line x1="120.898" y1="1006.594" x2="120.898" y2="1006.008"/>
      <line x1="121.498" y1="1007.194" x2="121.498" y2="1006.008"/>
      <line x1="122.098" y1="1007.794" x2="122.098" y2="1006.008"/>
      <line x1="122.698" y1="1008.394" x2="122.698" y2="1006.343"/>
      <line x1="123.298" y1="1008.994" x2="123.298" y2="1006.997"/>
      <line x1="123.898" y1="1009.594" x2="123.898" y2="1007.650"/>
      <line x1="124.498" y1="1010.194" x2="124.498" y2="1008.304"/>
      <line x1="125.098" y1="1010.794" x2="125.098" y2="1008.924"/>
      <line x1="125.698" y1="1011.394" x2="125.698" y2="1009.507"/>
      <line x1="126.298" y1="1011.994" x2="126.298" y2="1010.091"/>
      <line x1="126.898" y1="1012.594" x2="126.898" y2="1010.674"/>
      <line x1="127.498" y1="1013.194" x2="127.498" y2="1011.208"/>
      <line x1="128.098" y1="1013.794" x2="128.098" y2="1011.739"/>
      <line x1="128.698" y1="1014.394" x2="128.698" y2="1012.270"/>
      <line x1="129.298" y1="1014.994" x2="129.298" y2="1012.790"/>
      <line x1="129.898" y1="1015.594" x2="129.898" y2="1013.280"/>
      <line x1="130.498" y1="1016.194" x2="130.498" y2="1013.754"/>
      <line x1="131.098" y1="1016.794" x2="131.098" y2="1014.224"/>
      <line x1="131.698" y1="1017.394" x2="131.698" y2="1014.686"/>
      <line x1="132.298" y1="1017.994" x2="132.298" y2="1015.128"/>
      <line x1="132.898" y1="1018.594" x2="132.898" y2="1015.562"/>
      <line x1="133.498" y1="1019.194" x2="133.498" y2="1015.978"/>
      <line x1="134.098" y1="1019.794" x2="134.098" y2="1016.391"/>
      <line x1="134.698" y1="1020.394" x2="134.698" y2="1016.791"/>
      <line x1="135.298" y1="1020.994" x2="135.298" y2="1017.191"/>
      <line x1="135.898" y1="1021.594" x2="135.898" y2="1017.574"/>
      <line x1="136.498" y1="1022.194" x2="136.498" y2="1017.946"/>
      <line x1="137.098" y1="1022.794" x2="137.098" y2="1018.311"/>
      <line x1="137.698" y1="1023.394" x2="137.698" y2="1018.675"/>
      <line x1="138.298" y1="1023.994" x2="138.298" y2="1019.039"/>
      <line x1="138.898" y1="1024.594" x2="138.898" y2="1019.386"/>
      <line x1="139.498" y1="1025.194" x2="139.498" y2="1019.714"/>
      <line x1="140.098" y1="1025.794" x2="140.098" y2="1020.034"/>
      <line x1="140.698" y1="1026.394" x2="140.698" y2="1020.353"/>
      <line x1="141.298" y1="1026.994" x2="141.298" y2="1020.672"/>
      <line x1="141.898" y1="1027.594" x2="141.898" y2="1021.007"/>
      <line x1="142.498" y1="1028.194" x2="142.498" y2="1021.346"/>
      <line x1="143.098" y1="1028.794" x2="143.098" y2="1021.686"/>
      <line x1="143.698" y1="1029.394" x2="143.698" y2="1022.026"/>
      <line x1="144.298" y1="1029.994" x2="144.298" y2="1022.365"/>
      <line x1="144.898" y1="1030.594" x2="144.898" y2="1022.726"/>
      <line x1="145.498" y1="1031.194" x2="145.498" y2="1023.141"/>
      <line x1="146.098" y1="1031.794" x2="146.098" y2="1023.561"/>
      <line x1="146.698" y1="1032.394" x2="146.698" y2="1024.061"/>
      <line x1="147.298" y1="1032.994" x2="147.298" y2="1024.562"/>
      <line x1="147.898" y1="1033.594" x2="147.898" y2="1025.172"/>
      <line x1="148.498" y1="1034.194" x2="148.498" y2="1025.784"/>
      <line x1="149.098" y1="1034.794" x2="149.098" y2="1026.417"/>
      <line x1="149.698" y1="1035.394" x2="149.698" y2="1027.169"/>
      <line x1="150.298" y1="1035.994" x2="150.298" y2="1028.069"/>
      <line x1="150.898" y1="1034.551" x2="150.898" y2="1029.410"/>
      <line x1="105.298" y1="990.994" x2="105.298" y2="985.904"/>
      <line x1="104.698" y1="990.394" x2="104.698" y2="985.929"/>
      <line x1="105.898" y1="991.594" x2="105.898" y2="985.939"/>
      <line x1="104.098" y1="989.794" x2="104.098" y2="986.003"/>
      <line x1="106.498" y1="992.194" x2="106.498" y2="986.065"/>
      <line x1="103.498" y1="989.194" x2="103.498" y2="986.180"/>
      <line x1="107.098" y1="992.794" x2="107.098" y2="986.239"/>
      <line x1="102.898" y1="988.594" x2="102.898" y2="986.402"/>
      <line x1="107.698" y1="993.394" x2="107.698" y2="986.487"/>
      <line x1="102.298" y1="987.994" x2="102.298" y2="986.635"/>
      <line x1="108.298" y1="993.994" x2="108.298" y2="986.809"/>
      <line x1="101.698" y1="987.394" x2="101.698" y2="986.863"/>
      <line x1="108.898" y1="994.594" x2="108.898" y2="987.221"/>
      <line x1="109.498" y1="995.194" x2="109.498" y2="987.750"/>
      <line x1="110.098" y1="995.794" x2="110.098" y2="988.461"/>
      <line x1="110.698" y1="996.394" x2="110.698" y2="989.360"/>
      <line x1="111.298" y1="996.994" x2="111.298" y2="990.277"/>
      <line x1="111.898" y1="997.594" x2="111.898" y2="991.251"/>
      <line x1="112.498" y1="998.194" x2="112.498" y2="992.272"/>
      <line x1="113.098" y1="998.794" x2="113.098" y2="993.293"/>
      <line x1="113.698" y1="999.394" x2="113.698" y2="994.342"/>
      <line x1="114.298" y1="999.994" x2="114.298" y2="995.341"/>
      <line x1="114.898" y1="1000.594" x2="114.898" y2="996.305"/>
      <line x1="115.498" y1="1001.194" x2="115.498" y2="997.269"/>
      <line x1="116.098" y1="1001.794" x2="116.098" y2="998.136"/>
      <line x1="116.698" y1="1002.394" x2="116.698" y2="999.002"/>
      <line x1="117.298" y1="1002.994" x2="117.298" y2="999.851"/>
      <line x1="117.898" y1="1003.594" x2="117.898" y2="1000.608"/>
      <line x1="118.498" y1="1004.194" x2="118.498" y2="1001.364"/>
      <line x1="119.098" y1="1004.794" x2="119.098" y2="1002.120"/>
      <line x1="119.698" y1="1005.394" x2="119.698" y2="1002.876"/>
      <line x1="120.298" y1="1005.948" x2="120.298" y2="1003.633"/>
      <line x1="120.898" y1="1005.948" x2="120.898" y2="1004.382"/>
      <line x1="121.498" y1="1005.948" x2="121.498" y2="1005.035"/>
      <line x1="122.098" y1="1005.948" x2="122.098" y2="1005.689"/>
    </g>
    <g stroke="#1976D2" stroke-width="0.4">
      <polyline points="99.390,989.127 100.073,988.739 148.345,1037.011 147.677,1038.020 150.064,1040.407 150.314,1040.014 151.934,1037.386 152.319,1036.671 152.665,1035.919 153.166,1034.357 153.413,1032.736 153.401,1031.108 153.135,1029.526 153.006,1029.083 152.787,1028.443 152.623,1028.011 152.416,1027.576 152.132,1027.046 151.889,1026.624 151.603,1026.209 151.448,1025.990 150.979,1025.379 150.480,1024.805 148.731,1023.022 147.376,1021.892 146.135,1021.023 145.920,1020.888 145.434,1020.595 142.457,1018.910 140.178,1017.697 139.547,1017.341 137.619,1016.170 136.651,1015.569 135.145,1014.565 133.915,1013.711 132.773,1012.869 131.355,1011.757 130.513,1011.072 128.366,1009.172 126.318,1007.181 122.455,1002.972 118.899,998.490 117.263,996.131 115.736,993.678 115.032,992.439 113.353,989.582 111.887,987.341 111.529,986.878 111.074,986.354 110.845,986.127 110.594,985.889 110.014,985.423 109.577,985.122 108.820,984.686 108.646,984.616 108.304,984.454 107.563,984.167 107.268,984.100 107.037,984.033 106.286,983.869 106.127,983.849 105.012,983.784 103.826,983.908 103.683,983.936 102.589,984.259 101.997,984.502 99.334,985.516 96.350,986.694 98.997,989.341" fill="none"/>
      <polyline points="98.997,989.341 99.004,989.347 99.390,989.127" fill="none"/>
      <polyline points="151.414,1037.086 151.781,1036.404 152.104,1035.701 152.580,1034.219 152.813,1032.693 152.801,1031.160 152.549,1029.660 152.433,1029.264 152.223,1028.647 152.071,1028.247 151.880,1027.847 151.608,1027.337 151.381,1026.945 151.111,1026.553 150.964,1026.346 150.514,1025.759 150.039,1025.212 148.323,1023.463 147.012,1022.369 145.802,1021.523 145.605,1021.398 145.131,1021.113 142.169,1019.436 139.890,1018.223 139.244,1017.859 137.305,1016.682 136.326,1016.074 134.807,1015.061 133.566,1014.199 132.410,1013.347 130.980,1012.226 130.125,1011.529 127.958,1009.613 125.887,1007.599 121.999,1003.362 118.417,998.848 116.762,996.461 115.221,993.985 114.513,992.740 112.843,989.899 111.397,987.689 111.065,987.259 110.636,986.764 110.428,986.558 110.199,986.341 109.655,985.905 109.256,985.629 108.558,985.227 108.406,985.167 108.067,985.006 107.387,984.743 107.117,984.681 106.889,984.615 106.184,984.461 106.073,984.447 105.026,984.386 103.915,984.502 103.826,984.520 102.788,984.826 102.217,985.060 99.551,986.075 97.421,986.916 99.105,988.599 100.174,987.991 149.116,1036.933 148.448,1037.942 149.956,1039.451 151.414,1037.086" fill="none"/>
      <polyline points="150.894,1036.786 151.244,1036.136 151.544,1035.483 151.994,1034.082 152.212,1032.649 152.201,1031.213 151.963,1029.794 151.861,1029.445 151.658,1028.851 151.518,1028.483 151.345,1028.117 151.083,1027.629 150.874,1027.266 150.619,1026.896 150.481,1026.701 150.049,1026.139 149.597,1025.619 147.916,1023.905 146.647,1022.846 145.470,1022.023 145.290,1021.909 144.828,1021.631 141.880,1019.962 139.601,1018.750 138.940,1018.376 136.991,1017.193 136.001,1016.579 134.470,1015.557 133.217,1014.687 132.047,1013.824 130.605,1012.695 129.737,1011.986 127.550,1010.053 125.457,1008.017 121.542,1003.752 117.934,999.205 116.260,996.791 114.705,994.292 113.993,993.040 112.334,990.215 110.908,988.038 110.600,987.639 110.198,987.175 110.010,986.989 109.804,986.794 109.296,986.386 108.935,986.137 108.296,985.769 108.166,985.717 107.830,985.557 107.211,985.318 106.966,985.262 106.741,985.196 106.083,985.053 106.018,985.045 105.040,984.988 104.004,985.096 103.969,985.103 102.988,985.393 102.438,985.618 99.768,986.635 98.492,987.138 99.206,987.852 100.275,987.243 149.887,1036.856 149.219,1037.865 149.844,1038.490 150.894,1036.786" fill="none"/>
      <polyline points="150.707,1035.868 150.984,1035.265 151.408,1033.944 151.612,1032.606 151.602,1031.265 151.377,1029.928 151.289,1029.626 151.094,1029.054 150.966,1028.718 150.809,1028.387 150.559,1027.920 150.367,1027.587 150.127,1027.240 149.998,1027.057 149.584,1026.519 149.156,1026.026 147.509,1024.347 146.282,1023.323 145.138,1022.523 144.975,1022.420 144.526,1022.149 141.591,1020.488 139.313,1019.276 138.637,1018.894 136.677,1017.704 135.676,1017.083 134.132,1016.053 132.867,1015.175 131.684,1014.302 130.231,1013.163 129.348,1012.444 127.142,1010.493 125.026,1008.436 121.085,1004.142 117.452,999.563 115.759,997.120 114.189,994.599 113.474,993.340 111.824,990.532 110.419,988.386 110.136,988.019 109.759,987.585 109.593,987.420 109.409,987.246 108.938,986.868 108.615,986.645 108.034,986.310 107.926,986.267 107.592,986.109 107.036,985.893 106.815,985.843 106.593,985.778 105.974,985.643 105.054,985.590 104.102,985.689 103.187,985.959 102.659,986.176 100.774,986.894 150.371,1036.491 150.707,1035.868" fill="none"/>
      <polyline points="99.909,987.000 99.145,987.366" fill="none"/>
    </g>
    <g stroke="#C62828" stroke-width="0.4" fill="none">
    </g>
    <g stroke="#EF6C00" stroke-width="0.4" fill="none">
    </g>
  </g>
  <g stroke="#000000" stroke-width="0.4">
    <line x1="300.000" y1="600.000" x2="900.000" y2="600.000"/>
  </g>
  <g stroke="#000000" stroke-width="0.4">
    <line x1="600.000" y1="300.000" x2="600.000" y2="900.000"/>
  </g>
  <circle cx="600.000" cy="600.000" r="600.000" stroke="red" stroke-width="1" fill="none"/>
  </g>
</svg>
