<?xml version="1.0" encoding="UTF-8"?>
<svg xmlns="http://www.w3.org/2000/svg" version="1.1" width="1200" height="1200">
  <g fill="none" stroke-linecap="round" stroke-linejoin="round">
  <text x="10" y="20" font-size="24" fill="#555">Layer 109 Z=33.800 mm</text>
  <g transform="translate(471.353,-413.900)">
    <g stroke="#2E7D32" stroke-width="0.4">
      <line x1="111.951" y1="993.654" x2="109.266" y2="993.654"/>
      <line x1="113.265" y1="994.254" x2="109.338" y2="994.254"/>
      <line x1="114.145" y1="994.854" x2="111.615" y2="994.854"/>
      <line x1="110.749" y1="994.854" x2="109.938" y2="994.854"/>
      <line x1="114.812" y1="995.454" x2="112.215" y2="995.454"/>
      <line x1="115.303" y1="996.054" x2="112.816" y2="996.054"/>
      <line x1="115.743" y1="996.654" x2="113.416" y2="996.654"/>
      <line x1="116.190" y1="997.254" x2="114.016" y2="997.254"/>
      <line x1="116.647" y1="997.854" x2="114.616" y2="997.854"/>
      <line x1="117.083" y1="998.454" x2="115.216" y2="998.454"/>
      <line x1="117.519" y1="999.054" x2="115.816" y2="999.054"/>
      <line x1="117.317" y1="999.654" x2="116.416" y2="999.654"/>
      <line x1="138.380" y1="1019.975" x2="138.378" y2="1019.975"/>
      <line x1="139.162" y1="1020.576" x2="137.852" y2="1020.576"/>
      <line x1="139.942" y1="1021.175" x2="137.938" y2="1021.175"/>
      <line x1="140.783" y1="1021.775" x2="138.538" y2="1021.775"/>
      <line x1="141.624" y1="1022.375" x2="139.138" y2="1022.375"/>
      <line x1="142.465" y1="1022.975" x2="139.738" y2="1022.975"/>
      <line x1="143.351" y1="1023.576" x2="140.338" y2="1023.576"/>
      <line x1="144.253" y1="1024.175" x2="140.938" y2="1024.175"/>
      <line x1="145.089" y1="1024.775" x2="141.538" y2="1024.775"/>
      <line x1="145.894" y1="1025.375" x2="142.138" y2="1025.375"/>
      <line x1="146.650" y1="1025.975" x2="142.738" y2="1025.975"/>
      <line x1="147.327" y1="1026.576" x2="143.338" y2="1026.576"/>
      <line x1="147.983" y1="1027.175" x2="143.938" y2="1027.175"/>
      <line x1="148.529" y1="1027.775" x2="144.538" y2="1027.775"/>
      <line x1="148.883" y1="1028.375" x2="145.138" y2="1028.375"/>
      <line x1="149.113" y1="1028.975" x2="145.738" y2="1028.975"/>
      <line x1="149.241" y1="1029.576" x2="146.338" y2="1029.576"/>
      <line x1="149.279" y1="1030.175" x2="146.938" y2="1030.175"/>
      <line x1="149.232" y1="1030.775" x2="147.538" y2="1030.775"/>
      <line x1="149.086" y1="1031.375" x2="148.138" y2="1031.375"/>
      <line x1="148.833" y1="1031.975" x2="148.738" y2="1031.975"/>
    </g>
    <g stroke="#1976D2" stroke-width="0.4">
      <polyline points="110.021,997.300 110.829,997.036 146.774,1032.981 146.131,1034.016 148.615,1036.500 149.101,1035.668 149.195,1035.541 150.553,1033.237 150.969,1032.389 151.187,1031.695 151.260,1031.393 151.341,1030.887 151.381,1030.373 151.378,1029.859 151.333,1029.347 151.247,1028.843 151.120,1028.349 150.955,1027.871 150.753,1027.412 150.514,1026.972 150.245,1026.560 149.940,1026.172 149.393,1025.615 148.123,1024.463 147.314,1023.824 146.801,1023.400 145.959,1022.827 145.434,1022.437 143.901,1021.421 140.953,1019.318 140.855,1019.228 138.577,1017.480 136.638,1015.873 136.344,1015.654 136.012,1015.382 134.168,1013.768 133.897,1013.562 131.697,1011.551 127.915,1007.880 126.131,1006.026 124.516,1004.218 124.030,1003.689 123.270,1002.833 122.329,1001.685 121.369,1000.572 120.549,999.567 119.604,998.351 118.290,996.542 117.696,995.767 116.717,994.432 116.323,993.993 115.861,993.550 115.340,993.117 114.759,992.703 114.122,992.318 113.432,991.973 112.707,991.685 111.930,991.468 111.272,991.349 110.412,991.300 109.852,991.335 109.019,991.491 108.207,991.816 107.934,991.971 107.497,992.302 107.258,992.464 105.913,993.798 108.824,996.709" fill="none"/>
      <polyline points="108.824,996.709 109.564,997.449 110.021,997.300" fill="none"/>
      <polyline points="148.694,1035.209 150.025,1032.952 150.410,1032.166 150.608,1031.534 150.671,1031.274 150.745,1030.816 150.780,1030.352 150.778,1029.887 150.737,1029.424 150.659,1028.968 150.545,1028.522 150.396,1028.090 150.214,1027.676 149.999,1027.279 149.757,1026.910 149.489,1026.568 148.977,1026.047 147.736,1024.921 146.937,1024.291 146.440,1023.880 145.611,1023.316 145.089,1022.928 143.561,1021.915 140.576,1019.785 140.470,1019.689 138.202,1017.949 136.266,1016.345 135.975,1016.126 135.625,1015.841 133.789,1014.233 133.512,1014.024 131.286,1011.988 127.490,1008.304 125.691,1006.434 124.071,1004.621 123.584,1004.091 122.813,1003.222 121.870,1002.071 120.909,1000.958 120.080,999.941 119.124,998.712 117.809,996.901 117.216,996.126 116.251,994.811 115.891,994.411 115.461,993.997 114.974,993.592 114.430,993.205 113.832,992.844 113.187,992.521 112.515,992.254 111.796,992.054 111.201,991.946 110.413,991.901 109.926,991.932 109.187,992.070 108.468,992.358 108.265,992.473 107.846,992.790 107.640,992.929 106.763,993.800 109.728,996.764 110.993,996.352 147.534,1032.893 146.892,1033.928 148.472,1035.509 148.694,1035.209" fill="none"/>
      <polyline points="149.496,1032.668 149.851,1031.943 150.030,1031.373 150.083,1031.156 150.148,1030.746 150.180,1030.331 150.178,1029.915 150.142,1029.501 150.072,1029.093 149.970,1028.695 149.837,1028.309 149.674,1027.940 149.483,1027.587 149.269,1027.260 149.037,1026.965 148.561,1026.480 147.348,1025.379 146.560,1024.758 146.079,1024.361 145.263,1023.805 144.744,1023.420 143.221,1022.409 140.198,1020.253 140.084,1020.149 137.828,1018.418 135.895,1016.816 135.605,1016.599 135.237,1016.299 133.409,1014.699 133.128,1014.485 130.874,1012.425 127.064,1008.727 125.251,1006.842 123.626,1005.024 123.139,1004.493 122.357,1003.612 121.410,1002.457 120.450,1001.343 119.611,1000.314 118.645,999.072 117.328,997.260 116.736,996.486 115.785,995.190 115.460,994.828 115.061,994.445 114.607,994.068 114.100,993.707 113.543,993.370 112.941,993.069 112.323,992.823 111.662,992.639 111.130,992.543 110.415,992.502 110.000,992.528 109.356,992.649 108.728,992.900 108.595,992.975 108.196,993.278 108.023,993.395 107.613,993.801 109.892,996.080 111.156,995.667 148.295,1032.806 147.653,1033.840 148.377,1034.565 149.496,1032.668" fill="none"/>
      <polyline points="149.292,1031.720 149.452,1031.213 149.494,1031.038 149.552,1030.675 149.580,1030.309 149.578,1029.943 149.546,1029.578 149.485,1029.218 149.395,1028.868 149.278,1028.528 149.135,1028.205 148.967,1027.895 148.781,1027.611 148.586,1027.362 148.145,1026.913 146.960,1025.838 146.183,1025.225 145.719,1024.841 144.915,1024.294 144.399,1023.911 142.881,1022.904 139.821,1020.721 139.699,1020.610 137.454,1018.887 135.524,1017.288 135.236,1017.072 134.850,1016.757 133.030,1015.164 132.744,1014.947 130.463,1012.861 126.639,1009.150 124.811,1007.250 123.182,1005.427 122.694,1004.895 121.900,1004.001 120.951,1002.843 119.990,1001.729 119.141,1000.688 118.165,999.433 116.847,997.618 116.256,996.846 115.319,995.569 115.028,995.246 114.661,994.893 114.241,994.544 113.770,994.208 113.253,993.896 112.696,993.618 112.131,993.393 111.527,993.224 111.060,993.140 110.417,993.103 110.074,993.125 109.524,993.228 108.989,993.442 108.926,993.477 108.478,993.817 110.056,995.395 111.320,994.982 148.887,1032.548 149.292,1031.720" fill="none"/>
      <polyline points="137.770,1020.214 136.968,1019.511 136.954,1019.499 135.107,1017.817" fill="none"/>
      <polyline points="135.107,1017.817 134.842,1017.587 134.831,1017.578 134.453,1017.235 134.444,1017.228 132.688,1015.584 132.420,1015.351" fill="none"/>
      <polyline points="132.420,1015.351 132.405,1015.337 130.158,1013.188 130.155,1013.185 126.352,1009.439 126.349,1009.436 124.496,1007.546 124.492,1007.542 122.810,1005.763 122.311,1005.243 122.309,1005.240 121.483,1004.364 121.476,1004.356 120.471,1003.247" fill="none"/>
      <polyline points="120.471,1003.247 119.471,1002.171 119.464,1002.163 118.558,1001.159 118.551,1001.152 117.466,999.923" fill="none"/>
      <polyline points="148.806,1032.893 148.174,1033.938" fill="none"/>
    </g>
    <g stroke="#C62828" stroke-width="0.4" fill="none">
    </g>
    <g stroke="#EF6C00" stroke-width="0.4" fill="none">
    </g>
  </g>
  <g stroke="#000000" stroke-width="0.4">
    <line x1="300.000" y1="600.000" x2="900.000" y2="600.000"/>
  </g>
  <g stroke="#000000" stroke-width="0.4">
    <line x1="600.000" y1="300.000" x2="600.000" y2="900.000"/>
  </g>
  <circle cx="600.000" cy="600.000" r="600.000" stroke="red" stroke-width="1" fill="none"/>
  </g>
</svg>
