<?xml version="1.0" encoding="UTF-8"?>
<svg xmlns="http://www.w3.org/2000/svg" version="1.1" width="1200" height="1200">
  <g fill="none" stroke-linecap="round" stroke-linejoin="round">
  <text x="10" y="20" font-size="24" fill="#555">Layer 118 Z=35.600 mm</text>
  <g transform="translate(466.442,-417.794)">
    <g stroke="#2E7D32" stroke-width="0.4">
      <line x1="144.998" y1="1028.751" x2="144.998" y2="1027.303"/>
      <line x1="144.398" y1="1028.151" x2="144.398" y2="1027.779"/>
      <line x1="145.368" y1="1028.515" x2="145.368" y2="1028.514"/>
    </g>
    <g stroke="#1976D2" stroke-width="0.4">
      <polyline points="142.765,1028.639 145.405,1031.279 145.685,1030.907 146.162,1030.138 146.390,1029.870 146.452,1029.773 146.658,1029.352 146.765,1029.082 146.850,1028.813 146.925,1028.505 146.949,1028.234 146.966,1027.729 146.961,1027.607 146.884,1027.047 146.742,1026.581 146.688,1026.418 146.390,1025.834 146.011,1025.302 145.592,1024.859 144.379,1023.769 143.270,1022.802 142.418,1022.040 141.324,1021.047 140.514,1020.295 137.767,1017.681 136.444,1016.371 134.331,1014.364 134.139,1014.202 133.407,1013.501 130.446,1010.815 127.403,1008.092 125.517,1006.422 124.713,1005.667 124.286,1005.288 123.848,1004.956 123.408,1004.681 123.197,1004.571 122.986,1004.477 122.779,1004.403 122.577,1004.348 122.379,1004.316 122.182,1004.310 122.004,1004.332 121.831,1004.384 121.652,1004.477 121.592,1004.543 121.541,1004.621 121.026,1005.113 120.150,1006.024 123.831,1009.705" fill="none"/>
      <polyline points="123.831,1009.705 125.328,1011.202 125.872,1011.140" fill="none"/>
      <polyline points="125.872,1011.140 126.835,1011.032 143.011,1027.207 142.676,1027.944" fill="none"/>
      <polyline points="142.676,1027.944 142.487,1028.361 142.765,1028.639" fill="none"/>
      <polyline points="145.676,1029.784 145.906,1029.514 145.928,1029.479 146.109,1029.109 146.199,1028.881 146.272,1028.652 146.331,1028.408 146.350,1028.197 146.366,1027.731 146.363,1027.661 146.296,1027.177 146.169,1026.762 146.133,1026.649 145.876,1026.146 145.547,1025.684 145.172,1025.289 143.981,1024.218 142.873,1023.252 142.016,1022.486 140.918,1021.489 140.103,1020.732 137.349,1018.111 136.026,1016.802 133.931,1014.811 133.738,1014.649 132.998,1013.940 130.045,1011.260 127.004,1008.540 125.113,1006.865 124.309,1006.110 123.905,1005.752 123.507,1005.450 123.111,1005.202 122.937,1005.112 122.762,1005.034 122.599,1004.976 122.450,1004.936 122.321,1004.915 122.110,1004.908 121.449,1005.538 120.990,1006.016 125.548,1010.573 127.055,1010.403 143.729,1027.077 143.205,1028.230 145.325,1030.350 145.676,1029.784" fill="none"/>
      <polyline points="145.560,1028.867 145.633,1028.680 145.694,1028.490 145.737,1028.310 145.751,1028.160 145.766,1027.724 145.708,1027.306 145.597,1026.942 145.577,1026.880 145.362,1026.458 145.083,1026.067 144.753,1025.720 143.584,1024.667 142.476,1023.702 141.615,1022.932 140.512,1021.931 139.692,1021.169 136.932,1018.542 135.608,1017.233 134.861,1016.522 134.447,1016.946 144.447,1026.946 143.923,1028.100 145.274,1029.450 145.560,1028.867" fill="none"/>
      <polyline points="127.460,1009.753 126.605,1008.988 124.709,1007.308 123.904,1006.553 123.524,1006.216 123.166,1005.945 122.813,1005.723 122.677,1005.653 122.539,1005.592 122.338,1005.519 121.829,1006.005 125.768,1009.945 127.460,1009.753" fill="none"/>
      <polyline points="126.310,1009.581 124.335,1007.723 124.330,1007.718 123.540,1006.952 123.190,1006.623 122.883,1006.355 122.586,1006.119" fill="none"/>
      <polyline points="122.586,1006.119 122.487,1006.046 122.332,1005.940" fill="none"/>
      <polyline points="134.439,1016.525 133.349,1015.463 133.176,1015.304 133.149,1015.278 132.417,1014.562 129.540,1011.821 127.651,1010.034" fill="none"/>
      <polyline points="145.023,1026.980 144.946,1026.741 144.931,1026.720 144.668,1026.409 144.375,1026.108 143.252,1025.042 142.178,1024.040 142.177,1024.039 141.335,1023.243 141.334,1023.242 140.254,1022.213" fill="none"/>
    </g>
    <g stroke="#C62828" stroke-width="0.4" fill="none">
    </g>
    <g stroke="#EF6C00" stroke-width="0.4" fill="none">
    </g>
  </g>
  <g stroke="#000000" stroke-width="0.4">
    <line x1="300.000" y1="600.000" x2="900.000" y2="600.000"/>
  </g>
  <g stroke="#000000" stroke-width="0.4">
    <line x1="600.000" y1="300.000" x2="600.000" y2="900.000"/>
  </g>
  <circle cx="600.000" cy="600.000" r="600.000" stroke="red" stroke-width="1" fill="none"/>
  </g>
</svg>
