<?xml version="1.0" encoding="UTF-8"?>
<svg xmlns="http://www.w3.org/2000/svg" version="1.1" width="1200" height="1200">
  <g fill="none" stroke-linecap="round" stroke-linejoin="round">
  <text x="10" y="20" font-size="24" fill="#555">Layer 112 Z=34.400 mm</text>
  <g transform="translate(469.827,-415.029)">
    <g stroke="#2E7D32" stroke-width="0.4">
      <line x1="113.587" y1="997.832" x2="113.587" y2="997.110"/>
      <line x1="114.187" y1="998.432" x2="114.187" y2="997.117"/>
      <line x1="112.987" y1="997.232" x2="112.987" y2="997.219"/>
      <line x1="114.787" y1="998.982" x2="114.787" y2="997.242"/>
      <line x1="115.387" y1="998.824" x2="115.387" y2="997.466"/>
      <line x1="115.987" y1="998.535" x2="115.987" y2="997.799"/>
      <line x1="143.318" y1="1025.885" x2="143.318" y2="1024.163"/>
      <line x1="142.718" y1="1025.285" x2="142.718" y2="1024.198"/>
      <line x1="143.918" y1="1026.485" x2="143.918" y2="1024.616"/>
      <line x1="144.518" y1="1027.085" x2="144.518" y2="1025.069"/>
      <line x1="145.118" y1="1027.685" x2="145.118" y2="1025.515"/>
      <line x1="145.718" y1="1028.285" x2="145.718" y2="1025.994"/>
      <line x1="146.318" y1="1028.885" x2="146.318" y2="1026.496"/>
      <line x1="146.918" y1="1029.485" x2="146.918" y2="1027.027"/>
      <line x1="147.518" y1="1030.085" x2="147.518" y2="1027.650"/>
      <line x1="148.118" y1="1030.058" x2="148.118" y2="1029.038"/>
      <line x1="115.820" y1="998.684" x2="115.820" y2="998.684"/>
    </g>
    <g stroke="#1976D2" stroke-width="0.4">
      <polyline points="114.596,1001.205 115.444,1000.981 145.905,1031.442 145.289,1032.504 147.850,1035.065 148.129,1034.599 148.778,1033.432 149.129,1032.820 149.401,1032.381 149.606,1032.008 149.923,1031.365 149.957,1031.289 150.092,1030.862 150.186,1030.437 150.243,1030.004 150.263,1029.567 150.246,1029.129 150.192,1028.695 150.102,1028.267 149.976,1027.847 149.818,1027.443 149.628,1027.054 149.409,1026.685 149.161,1026.337 148.644,1025.757 147.901,1025.082 146.616,1024.008 146.157,1023.675 144.319,1022.288 141.712,1020.454 141.053,1019.874 140.408,1019.268 138.915,1018.117 138.515,1017.730 136.999,1016.466 135.773,1015.265 134.466,1014.113 133.562,1013.227 132.381,1012.138 130.270,1010.061 128.307,1008.109 127.969,1007.757 126.102,1005.923 122.873,1002.455 122.203,1001.666 120.850,1000.148 118.811,997.693 118.367,997.137 117.967,996.709 117.626,996.406 117.270,996.128 116.890,995.882 116.462,995.648 115.997,995.437 115.497,995.258 114.970,995.118 114.425,995.027 113.871,994.993 113.323,995.021 112.797,995.119 112.302,995.289 111.858,995.531 111.496,995.832 110.627,996.713 110.082,997.297 113.202,1000.417" fill="none"/>
      <polyline points="113.202,1000.417 114.116,1001.331 114.596,1001.205" fill="none"/>
      <polyline points="148.255,1033.137 148.613,1032.513 148.883,1032.078 149.074,1031.730 149.380,1031.111 149.395,1031.077 149.512,1030.706 149.595,1030.332 149.645,1029.951 149.663,1029.565 149.647,1029.178 149.600,1028.794 149.520,1028.415 149.408,1028.042 149.268,1027.684 149.100,1027.340 148.905,1027.013 148.691,1026.712 148.217,1026.180 147.506,1025.534 146.247,1024.482 145.800,1024.157 143.966,1022.773 141.340,1020.926 140.650,1020.318 140.019,1019.726 138.522,1018.571 138.114,1018.176 136.596,1016.912 135.365,1015.705 134.057,1014.553 133.148,1013.662 131.967,1012.572 129.848,1010.488 127.879,1008.530 127.542,1008.180 125.672,1006.342 122.425,1002.853 121.751,1002.060 120.395,1000.539 118.346,998.072 117.913,997.530 117.548,997.139 117.241,996.867 116.922,996.618 116.582,996.397 116.194,996.185 115.771,995.994 115.319,995.831 114.844,995.706 114.356,995.624 113.868,995.594 113.393,995.618 112.950,995.701 112.545,995.840 112.197,996.030 111.902,996.275 110.912,997.278 114.297,1000.663 115.624,1000.313 146.656,1031.344 146.040,1032.406 147.725,1034.091 148.255,1033.137" fill="none"/>
      <polyline points="148.098,1032.206 148.364,1031.776 148.542,1031.453 148.833,1030.863 148.932,1030.551 149.003,1030.228 149.047,1029.898 149.062,1029.563 149.049,1029.227 149.007,1028.893 148.938,1028.563 148.841,1028.238 148.718,1027.926 148.572,1027.626 148.402,1027.341 148.221,1027.086 147.790,1026.603 147.112,1025.986 145.878,1024.955 145.443,1024.639 143.612,1023.258 140.968,1021.398 140.246,1020.762 139.629,1020.183 138.129,1019.026 137.713,1018.623 136.194,1017.357 134.956,1016.144 133.649,1014.992 132.735,1014.097 131.554,1013.007 129.426,1010.915 127.451,1008.950 127.116,1008.602 125.241,1006.760 121.976,1003.252 121.298,1002.454 119.940,1000.931 117.880,998.450 117.459,997.922 117.128,997.570 116.857,997.328 116.574,997.107 116.275,996.913 115.926,996.722 115.546,996.550 115.140,996.405 114.717,996.293 114.288,996.221 113.865,996.195 113.464,996.216 113.102,996.282 112.788,996.391 112.536,996.528 112.309,996.717 111.758,997.275 114.477,999.995 115.804,999.644 147.406,1031.247 146.790,1032.308 147.584,1033.102 148.098,1032.206" fill="none"/>
      <polyline points="148.275,1030.638 148.352,1030.395 148.412,1030.123 148.449,1029.845 148.462,1029.561 148.450,1029.276 148.415,1028.992 148.356,1028.711 148.273,1028.434 148.169,1028.167 148.043,1027.911 147.899,1027.668 147.752,1027.461 147.363,1027.026 146.718,1026.439 145.509,1025.429 145.086,1025.122 143.259,1023.743 140.596,1021.870 139.842,1021.206 139.240,1020.641 137.736,1019.480 137.312,1019.070 135.791,1017.803 134.548,1016.584 133.426,1015.596 133.028,1016.019 148.067,1031.059 148.275,1030.638" fill="none"/>
      <polyline points="121.998,1004.156 121.528,1003.651 120.846,1002.848 119.485,1001.322 117.415,998.829 117.005,998.315 116.709,998.000 116.472,997.789 116.225,997.596 115.967,997.429 115.658,997.260 115.321,997.107 114.962,996.978 114.591,996.880 114.219,996.818 113.862,996.796 113.535,996.813 113.255,996.864 113.031,996.942 112.874,997.027 112.593,997.262 114.658,999.327 115.985,998.976 121.574,1004.566 121.998,1004.156" fill="none"/>
      <polyline points="119.174,1001.587 118.079,1000.386 116.983,999.184 116.980,999.180 116.418,998.552" fill="none"/>
      <polyline points="133.009,1015.601 132.131,1014.732 130.977,1013.624 130.965,1013.612 128.843,1011.507 128.841,1011.505 126.865,1009.535 126.857,1009.527 126.524,1009.187 124.661,1007.341 124.645,1007.324 121.994,1004.577" fill="none"/>
      <polyline points="142.364,1024.153 141.297,1023.256 140.231,1022.359" fill="none"/>
      <polyline points="140.231,1022.359 140.206,1022.337 139.458,1021.635 139.452,1021.629 138.874,1021.070 137.453,1019.820" fill="none"/>
      <polyline points="137.453,1019.820 137.441,1019.809 137.020,1019.395 135.696,1018.186" fill="none"/>
      <polyline points="147.964,1031.380 147.636,1031.926 147.632,1031.933 147.342,1032.436" fill="none"/>
    </g>
    <g stroke="#C62828" stroke-width="0.4" fill="none">
    </g>
    <g stroke="#EF6C00" stroke-width="0.4" fill="none">
    </g>
  </g>
  <g stroke="#000000" stroke-width="0.4">
    <line x1="300.000" y1="600.000" x2="900.000" y2="600.000"/>
  </g>
  <g stroke="#000000" stroke-width="0.4">
    <line x1="600.000" y1="300.000" x2="600.000" y2="900.000"/>
  </g>
  <circle cx="600.000" cy="600.000" r="600.000" stroke="red" stroke-width="1" fill="none"/>
  </g>
</svg>
