<?xml version="1.0" encoding="UTF-8"?>
<svg xmlns="http://www.w3.org/2000/svg" version="1.1" width="1200" height="1200">
  <g fill="none" stroke-linecap="round" stroke-linejoin="round">
  <text x="10" y="20" font-size="24" fill="#555">Layer 113 Z=34.600 mm</text>
  <g transform="translate(469.279,-415.401)">
    <g stroke="#2E7D32" stroke-width="0.4">
      <line x1="115.404" y1="998.394" x2="114.904" y2="998.394"/>
      <line x1="116.837" y1="998.994" x2="114.973" y2="998.994"/>
      <line x1="117.468" y1="999.594" x2="115.573" y2="999.594"/>
      <line x1="117.249" y1="1000.194" x2="116.173" y2="1000.194"/>
      <line x1="145.329" y1="1025.945" x2="144.600" y2="1025.945"/>
      <line x1="146.038" y1="1026.545" x2="144.201" y2="1026.545"/>
      <line x1="146.717" y1="1027.145" x2="144.801" y2="1027.145"/>
      <line x1="147.238" y1="1027.745" x2="145.401" y2="1027.745"/>
      <line x1="147.533" y1="1028.345" x2="146.001" y2="1028.345"/>
      <line x1="147.673" y1="1028.945" x2="146.601" y2="1028.945"/>
      <line x1="147.686" y1="1029.545" x2="147.201" y2="1029.545"/>
      <line x1="145.410" y1="1027.754" x2="145.410" y2="1027.754"/>
    </g>
    <g stroke="#1976D2" stroke-width="0.4">
      <polyline points="116.228,1002.614 117.086,1002.400 145.573,1030.887 144.956,1031.948 147.536,1034.527 148.022,1033.652 148.124,1033.495 148.788,1032.318 149.185,1031.662 149.357,1031.240 149.521,1030.905 149.644,1030.506 149.730,1030.103 149.782,1029.693 149.799,1029.280 149.780,1028.867 149.727,1028.457 149.640,1028.053 149.520,1027.659 149.369,1027.279 149.189,1026.914 148.979,1026.566 148.745,1026.240 148.229,1025.682 147.755,1025.247 146.473,1024.162 145.147,1023.148 143.450,1021.872 141.967,1020.834 141.099,1020.070 140.258,1019.281 139.024,1018.329 138.479,1017.801 137.247,1016.775 135.496,1015.059 134.554,1014.229 133.182,1012.885 132.484,1012.240 126.291,1006.170 124.007,1003.714 122.626,1002.306 120.561,999.990 118.973,998.123 118.618,997.745 118.279,997.455 118.088,997.302 117.642,997.011 117.394,996.871 116.916,996.647 116.562,996.517 116.063,996.377 115.601,996.297 115.154,996.274 114.707,996.303 114.274,996.386 113.868,996.528 113.500,996.730 113.202,996.976 111.644,998.635 114.782,1001.773" fill="none"/>
      <polyline points="114.782,1001.773 115.744,1002.735 116.228,1002.614" fill="none"/>
      <polyline points="147.610,1033.184 148.270,1032.015 148.647,1031.391 148.809,1030.995 148.961,1030.684 149.063,1030.354 149.138,1030.002 149.184,1029.644 149.198,1029.282 149.182,1028.919 149.135,1028.559 149.058,1028.204 148.953,1027.858 148.820,1027.523 148.662,1027.202 148.477,1026.896 148.280,1026.620 147.805,1026.107 147.358,1025.697 146.097,1024.630 144.784,1023.626 143.098,1022.358 141.595,1021.307 140.695,1020.514 139.869,1019.739 138.631,1018.784 138.077,1018.248 136.844,1017.220 135.088,1015.499 134.145,1014.668 132.769,1013.320 132.070,1012.675 125.861,1006.588 123.573,1004.129 122.188,1002.716 120.109,1000.384 118.526,998.523 118.203,998.180 117.897,997.918 117.736,997.789 117.330,997.524 117.119,997.405 116.685,997.202 116.377,997.088 115.930,996.963 115.535,996.895 115.158,996.875 114.783,996.899 114.431,996.967 114.113,997.078 113.839,997.229 113.614,997.415 112.480,998.622 115.928,1002.071 117.270,1001.735 146.324,1030.789 145.707,1031.850 147.387,1033.529 147.610,1033.184" fill="none"/>
      <polyline points="147.752,1031.712 148.109,1031.121 148.261,1030.749 148.401,1030.463 148.482,1030.202 148.546,1029.901 148.585,1029.594 148.597,1029.283 148.583,1028.971 148.543,1028.661 148.477,1028.355 148.386,1028.056 148.271,1027.767 148.135,1027.490 147.976,1027.226 147.814,1027.000 147.381,1026.533 146.961,1026.147 145.720,1025.097 144.422,1024.104 142.745,1022.843 141.224,1021.779 140.291,1020.958 139.479,1020.196 138.238,1019.238 137.676,1018.695 136.441,1017.666 134.679,1015.939 133.736,1015.108 132.355,1013.755 131.657,1013.110 125.431,1007.007 123.139,1004.543 121.749,1003.126 119.656,1000.778 118.078,998.923 117.789,998.615 117.514,998.380 117.384,998.275 117.019,998.037 116.844,997.939 116.454,997.756 116.192,997.660 115.798,997.549 115.468,997.492 115.162,997.476 114.859,997.495 114.588,997.548 114.358,997.628 114.177,997.728 114.025,997.853 113.315,998.609 116.112,1001.406 117.454,1001.071 147.075,1030.692 146.458,1031.752 147.271,1032.565 147.752,1031.712" fill="none"/>
      <polyline points="147.954,1029.801 147.987,1029.545 147.997,1029.285 147.985,1029.023 147.951,1028.763 147.896,1028.506 147.819,1028.254 147.723,1028.011 147.608,1027.778 147.474,1027.556 147.348,1027.380 146.958,1026.958 146.565,1026.598 145.344,1025.565 144.059,1024.582 142.393,1023.329 140.852,1022.252 139.888,1021.402 139.090,1020.654 137.845,1019.693 137.275,1019.141 136.726,1018.684 136.339,1019.107 147.791,1030.559 147.954,1029.801" fill="none"/>
      <polyline points="119.118,1001.072 117.631,999.323 117.374,999.049 117.132,998.842 117.031,998.762 116.707,998.550 116.570,998.473 116.222,998.310 116.007,998.231 115.665,998.135 115.401,998.089 115.165,998.077 114.935,998.092 114.745,998.129 114.604,998.178 114.516,998.226 114.437,998.291 114.151,998.596 116.296,1000.742 117.638,1000.406 118.695,1001.463 119.118,1001.072" fill="none"/>
      <polyline points="136.311,1018.693 135.890,1018.309 135.858,1018.278 134.111,1016.549 133.205,1015.699 133.187,1015.681 131.815,1014.323 131.134,1013.669 131.124,1013.659 124.921,1007.517 124.907,1007.504 122.574,1005.084 121.179,1003.676 121.163,1003.659 119.111,1001.487" fill="none"/>
      <polyline points="144.291,1025.843 143.577,1025.217 142.010,1023.857" fill="none"/>
      <polyline points="142.010,1023.857 141.285,1023.249 140.560,1022.640" fill="none"/>
      <polyline points="140.560,1022.640 140.544,1022.627 139.591,1021.731 139.588,1021.728 138.813,1020.979 137.965,1020.232" fill="none"/>
      <polyline points="147.637,1030.829 147.280,1031.432 147.276,1031.438 147.018,1031.888" fill="none"/>
    </g>
    <g stroke="#C62828" stroke-width="0.4" fill="none">
    </g>
    <g stroke="#EF6C00" stroke-width="0.4" fill="none">
    </g>
  </g>
  <g stroke="#000000" stroke-width="0.4">
    <line x1="300.000" y1="600.000" x2="900.000" y2="600.000"/>
  </g>
  <g stroke="#000000" stroke-width="0.4">
    <line x1="600.000" y1="300.000" x2="600.000" y2="900.000"/>
  </g>
  <circle cx="600.000" cy="600.000" r="600.000" stroke="red" stroke-width="1" fill="none"/>
  </g>
</svg>
