<?xml version="1.0" encoding="UTF-8"?>
<svg xmlns="http://www.w3.org/2000/svg" version="1.1" width="2000" height="2000">
  <g fill="none" stroke-linecap="round" stroke-linejoin="round">
  <text x="10" y="20" font-size="24" fill="#555">Layer 213 Z=54.600 mm</text>
  <g transform="translate(700.000,-602.229)">
    <g stroke="#2E7D32" stroke-width="0.4">
      <line x1="533.365" y1="1630.004" x2="483.365" y2="1630.004"/>
      <line x1="533.365" y1="1631.004" x2="483.365" y2="1631.004"/>
      <line x1="533.365" y1="1632.004" x2="483.365" y2="1632.004"/>
      <line x1="533.365" y1="1633.004" x2="483.365" y2="1633.004"/>
      <line x1="533.365" y1="1634.004" x2="483.365" y2="1634.004"/>
      <line x1="533.365" y1="1635.004" x2="483.365" y2="1635.004"/>
      <line x1="533.365" y1="1636.004" x2="483.365" y2="1636.004"/>
      <line x1="533.365" y1="1637.004" x2="483.365" y2="1637.004"/>
      <line x1="533.365" y1="1638.004" x2="483.365" y2="1638.004"/>
      <line x1="533.365" y1="1639.004" x2="483.365" y2="1639.004"/>
      <line x1="533.365" y1="1640.004" x2="483.365" y2="1640.004"/>
      <line x1="533.365" y1="1641.004" x2="483.365" y2="1641.004"/>
      <line x1="533.365" y1="1642.004" x2="483.365" y2="1642.004"/>
      <line x1="533.365" y1="1643.004" x2="483.365" y2="1643.004"/>
      <line x1="533.365" y1="1644.004" x2="483.365" y2="1644.004"/>
      <line x1="533.365" y1="1645.004" x2="483.365" y2="1645.004"/>
      <line x1="533.365" y1="1646.004" x2="483.365" y2="1646.004"/>
      <line x1="533.365" y1="1647.004" x2="483.365" y2="1647.004"/>
      <line x1="533.365" y1="1648.004" x2="483.365" y2="1648.004"/>
      <line x1="533.365" y1="1649.004" x2="483.365" y2="1649.004"/>
      <line x1="533.365" y1="1650.004" x2="483.365" y2="1650.004"/>
      <line x1="533.365" y1="1651.004" x2="483.365" y2="1651.004"/>
      <line x1="533.365" y1="1652.004" x2="483.365" y2="1652.004"/>
      <line x1="533.365" y1="1653.004" x2="483.365" y2="1653.004"/>
      <line x1="533.365" y1="1654.004" x2="483.365" y2="1654.004"/>
      <line x1="533.365" y1="1655.004" x2="483.365" y2="1655.004"/>
      <line x1="533.365" y1="1656.004" x2="483.365" y2="1656.004"/>
      <line x1="533.365" y1="1657.004" x2="483.365" y2="1657.004"/>
      <line x1="533.365" y1="1658.004" x2="483.365" y2="1658.004"/>
      <line x1="533.365" y1="1659.004" x2="483.365" y2="1659.004"/>
      <line x1="533.365" y1="1660.004" x2="483.365" y2="1660.004"/>
      <line x1="533.365" y1="1661.004" x2="483.365" y2="1661.004"/>
      <line x1="533.365" y1="1662.004" x2="483.365" y2="1662.004"/>
      <line x1="533.365" y1="1663.004" x2="483.365" y2="1663.004"/>
      <line x1="533.365" y1="1664.004" x2="483.365" y2="1664.004"/>
      <line x1="533.365" y1="1665.004" x2="483.365" y2="1665.004"/>
      <line x1="533.365" y1="1666.004" x2="483.365" y2="1666.004"/>
      <line x1="533.365" y1="1667.004" x2="483.365" y2="1667.004"/>
      <line x1="533.365" y1="1668.004" x2="483.365" y2="1668.004"/>
      <line x1="533.365" y1="1669.004" x2="483.365" y2="1669.004"/>
      <line x1="533.365" y1="1670.004" x2="483.365" y2="1670.004"/>
      <line x1="533.365" y1="1671.004" x2="483.365" y2="1671.004"/>
      <line x1="533.365" y1="1672.004" x2="483.365" y2="1672.004"/>
      <line x1="533.365" y1="1673.004" x2="483.365" y2="1673.004"/>
      <line x1="533.365" y1="1674.004" x2="483.365" y2="1674.004"/>
      <line x1="533.365" y1="1675.004" x2="483.365" y2="1675.004"/>
      <line x1="533.365" y1="1676.004" x2="483.365" y2="1676.004"/>
      <line x1="533.365" y1="1677.004" x2="483.365" y2="1677.004"/>
      <line x1="533.365" y1="1678.004" x2="483.365" y2="1678.004"/>
      <line x1="533.365" y1="1679.004" x2="483.365" y2="1679.004"/>
      <line x1="583.465" y1="1630.004" x2="533.465" y2="1630.004"/>
      <line x1="583.465" y1="1631.004" x2="533.465" y2="1631.004"/>
      <line x1="583.465" y1="1632.004" x2="533.465" y2="1632.004"/>
      <line x1="583.465" y1="1633.004" x2="533.465" y2="1633.004"/>
      <line x1="583.465" y1="1634.004" x2="533.465" y2="1634.004"/>
      <line x1="583.465" y1="1635.004" x2="533.465" y2="1635.004"/>
      <line x1="583.465" y1="1636.004" x2="533.465" y2="1636.004"/>
      <line x1="583.465" y1="1637.004" x2="533.465" y2="1637.004"/>
      <line x1="583.465" y1="1638.004" x2="533.465" y2="1638.004"/>
      <line x1="583.465" y1="1639.004" x2="533.465" y2="1639.004"/>
      <line x1="583.465" y1="1640.004" x2="533.465" y2="1640.004"/>
      <line x1="583.465" y1="1641.004" x2="533.465" y2="1641.004"/>
      <line x1="583.465" y1="1642.004" x2="533.465" y2="1642.004"/>
      <line x1="583.465" y1="1643.004" x2="533.465" y2="1643.004"/>
      <line x1="583.465" y1="1644.004" x2="533.465" y2="1644.004"/>
      <line x1="583.465" y1="1645.004" x2="533.465" y2="1645.004"/>
      <line x1="583.465" y1="1646.004" x2="533.465" y2="1646.004"/>
      <line x1="583.465" y1="1647.004" x2="533.465" y2="1647.004"/>
      <line x1="583.465" y1="1648.004" x2="533.465" y2="1648.004"/>
      <line x1="583.465" y1="1649.004" x2="533.465" y2="1649.004"/>
      <line x1="583.465" y1="1650.004" x2="533.465" y2="1650.004"/>
      <line x1="583.465" y1="1651.004" x2="533.465" y2="1651.004"/>
      <line x1="583.465" y1="1652.004" x2="533.465" y2="1652.004"/>
      <line x1="583.465" y1="1653.004" x2="533.465" y2="1653.004"/>
      <line x1="583.465" y1="1654.004" x2="533.465" y2="1654.004"/>
      <line x1="583.465" y1="1655.004" x2="533.465" y2="1655.004"/>
      <line x1="583.465" y1="1656.004" x2="533.465" y2="1656.004"/>
      <line x1="583.465" y1="1657.004" x2="533.465" y2="1657.004"/>
      <line x1="583.465" y1="1658.004" x2="533.465" y2="1658.004"/>
      <line x1="583.465" y1="1659.004" x2="533.465" y2="1659.004"/>
      <line x1="583.465" y1="1660.004" x2="533.465" y2="1660.004"/>
      <line x1="583.465" y1="1661.004" x2="533.465" y2="1661.004"/>
      <line x1="583.465" y1="1662.004" x2="533.465" y2="1662.004"/>
      <line x1="583.465" y1="1663.004" x2="533.465" y2="1663.004"/>
      <line x1="583.465" y1="1664.004" x2="533.465" y2="1664.004"/>
      <line x1="583.465" y1="1665.004" x2="533.465" y2="1665.004"/>
      <line x1="583.465" y1="1666.004" x2="533.465" y2="1666.004"/>
      <line x1="583.465" y1="1667.004" x2="533.465" y2="1667.004"/>
      <line x1="583.465" y1="1668.004" x2="533.465" y2="1668.004"/>
      <line x1="583.465" y1="1669.004" x2="533.465" y2="1669.004"/>
      <line x1="583.465" y1="1670.004" x2="533.465" y2="1670.004"/>
      <line x1="583.465" y1="1671.004" x2="533.465" y2="1671.004"/>
      <line x1="583.465" y1="1672.004" x2="533.465" y2="1672.004"/>
      <line x1="583.465" y1="1673.004" x2="533.465" y2="1673.004"/>
      <line x1="583.465" y1="1674.004" x2="533.465" y2="1674.004"/>
      <line x1="583.465" y1="1675.004" x2="533.465" y2="1675.004"/>
      <line x1="583.465" y1="1676.004" x2="533.465" y2="1676.004"/>
      <line x1="583.465" y1="1677.004" x2="533.465" y2="1677.004"/>
      <line x1="583.465" y1="1678.004" x2="533.465" y2="1678.004"/>
      <line x1="583.465" y1="1679.004" x2="533.465" y2="1679.004"/>
      <line x1="597.000" y1="1630.004" x2="583.565" y2="1630.004"/>
      <line x1="597.000" y1="1631.004" x2="583.565" y2="1631.004"/>
      <line x1="597.000" y1="1632.004" x2="583.565" y2="1632.004"/>
      <line x1="597.000" y1="1633.004" x2="583.565" y2="1633.004"/>
      <line x1="597.000" y1="1634.004" x2="583.565" y2="1634.004"/>
      <line x1="597.000" y1="1635.004" x2="583.565" y2="1635.004"/>
      <line x1="597.000" y1="1636.004" x2="583.565" y2="1636.004"/>
      <line x1="597.000" y1="1637.004" x2="583.565" y2="1637.004"/>
      <line x1="597.000" y1="1638.004" x2="583.565" y2="1638.004"/>
      <line x1="597.000" y1="1639.004" x2="583.565" y2="1639.004"/>
      <line x1="597.000" y1="1640.004" x2="583.565" y2="1640.004"/>
      <line x1="597.000" y1="1641.004" x2="583.565" y2="1641.004"/>
      <line x1="597.000" y1="1642.004" x2="583.565" y2="1642.004"/>
      <line x1="597.000" y1="1643.004" x2="583.565" y2="1643.004"/>
      <line x1="597.000" y1="1644.004" x2="583.565" y2="1644.004"/>
      <line x1="597.000" y1="1645.004" x2="583.565" y2="1645.004"/>
      <line x1="597.000" y1="1646.004" x2="583.565" y2="1646.004"/>
      <line x1="597.000" y1="1647.004" x2="583.565" y2="1647.004"/>
      <line x1="597.000" y1="1648.004" x2="583.565" y2="1648.004"/>
      <line x1="597.000" y1="1649.004" x2="583.565" y2="1649.004"/>
      <line x1="597.000" y1="1650.004" x2="583.565" y2="1650.004"/>
      <line x1="597.000" y1="1651.004" x2="583.565" y2="1651.004"/>
      <line x1="597.000" y1="1652.004" x2="583.565" y2="1652.004"/>
      <line x1="597.000" y1="1653.004" x2="583.565" y2="1653.004"/>
      <line x1="597.000" y1="1654.004" x2="583.565" y2="1654.004"/>
      <line x1="597.000" y1="1655.004" x2="583.565" y2="1655.004"/>
      <line x1="597.000" y1="1656.004" x2="583.565" y2="1656.004"/>
      <line x1="597.000" y1="1657.004" x2="583.565" y2="1657.004"/>
      <line x1="597.000" y1="1658.004" x2="583.565" y2="1658.004"/>
      <line x1="597.000" y1="1659.004" x2="583.565" y2="1659.004"/>
      <line x1="597.000" y1="1660.004" x2="583.565" y2="1660.004"/>
      <line x1="597.000" y1="1661.004" x2="583.565" y2="1661.004"/>
      <line x1="597.000" y1="1662.004" x2="583.565" y2="1662.004"/>
      <line x1="597.000" y1="1663.004" x2="583.565" y2="1663.004"/>
      <line x1="597.000" y1="1664.004" x2="583.565" y2="1664.004"/>
      <line x1="597.000" y1="1665.004" x2="583.565" y2="1665.004"/>
      <line x1="597.000" y1="1666.004" x2="583.565" y2="1666.004"/>
      <line x1="597.000" y1="1667.004" x2="583.565" y2="1667.004"/>
      <line x1="597.000" y1="1668.004" x2="583.565" y2="1668.004"/>
      <line x1="597.000" y1="1669.004" x2="583.565" y2="1669.004"/>
      <line x1="597.000" y1="1670.004" x2="583.565" y2="1670.004"/>
      <line x1="597.000" y1="1671.004" x2="583.565" y2="1671.004"/>
      <line x1="597.000" y1="1672.004" x2="583.565" y2="1672.004"/>
      <line x1="597.000" y1="1673.004" x2="583.565" y2="1673.004"/>
      <line x1="597.000" y1="1674.004" x2="583.565" y2="1674.004"/>
      <line x1="597.000" y1="1675.004" x2="583.565" y2="1675.004"/>
      <line x1="597.000" y1="1676.004" x2="583.565" y2="1676.004"/>
      <line x1="597.000" y1="1677.004" x2="583.565" y2="1677.004"/>
      <line x1="597.000" y1="1678.004" x2="583.565" y2="1678.004"/>
      <line x1="597.000" y1="1679.004" x2="583.565" y2="1679.004"/>
      <line x1="533.365" y1="1580.004" x2="483.365" y2="1580.004"/>
      <line x1="533.365" y1="1581.004" x2="483.365" y2="1581.004"/>
      <line x1="533.365" y1="1582.004" x2="483.365" y2="1582.004"/>
      <line x1="533.365" y1="1583.004" x2="483.365" y2="1583.004"/>
      <line x1="533.365" y1="1584.004" x2="483.365" y2="1584.004"/>
      <line x1="533.365" y1="1585.004" x2="483.365" y2="1585.004"/>
      <line x1="533.365" y1="1586.004" x2="483.365" y2="1586.004"/>
      <line x1="533.365" y1="1587.004" x2="483.365" y2="1587.004"/>
      <line x1="533.365" y1="1588.004" x2="483.365" y2="1588.004"/>
      <line x1="533.365" y1="1589.004" x2="483.365" y2="1589.004"/>
      <line x1="533.365" y1="1590.004" x2="483.365" y2="1590.004"/>
      <line x1="533.365" y1="1591.004" x2="483.365" y2="1591.004"/>
      <line x1="533.365" y1="1592.004" x2="483.365" y2="1592.004"/>
      <line x1="533.365" y1="1593.004" x2="483.365" y2="1593.004"/>
      <line x1="533.365" y1="1594.004" x2="483.365" y2="1594.004"/>
      <line x1="533.365" y1="1595.004" x2="483.365" y2="1595.004"/>
      <line x1="533.365" y1="1596.004" x2="483.365" y2="1596.004"/>
      <line x1="533.365" y1="1597.004" x2="483.365" y2="1597.004"/>
      <line x1="533.365" y1="1598.004" x2="483.365" y2="1598.004"/>
      <line x1="533.365" y1="1599.004" x2="483.365" y2="1599.004"/>
      <line x1="533.365" y1="1600.004" x2="483.365" y2="1600.004"/>
      <line x1="533.365" y1="1601.004" x2="483.365" y2="1601.004"/>
      <line x1="533.365" y1="1602.004" x2="483.365" y2="1602.004"/>
      <line x1="533.365" y1="1603.004" x2="483.365" y2="1603.004"/>
      <line x1="533.365" y1="1604.004" x2="483.365" y2="1604.004"/>
      <line x1="533.365" y1="1605.004" x2="483.365" y2="1605.004"/>
      <line x1="533.365" y1="1606.004" x2="483.365" y2="1606.004"/>
      <line x1="533.365" y1="1607.004" x2="483.365" y2="1607.004"/>
      <line x1="533.365" y1="1608.004" x2="483.365" y2="1608.004"/>
      <line x1="533.365" y1="1609.004" x2="483.365" y2="1609.004"/>
      <line x1="533.365" y1="1610.004" x2="483.365" y2="1610.004"/>
      <line x1="533.365" y1="1611.004" x2="483.365" y2="1611.004"/>
      <line x1="533.365" y1="1612.004" x2="483.365" y2="1612.004"/>
      <line x1="533.365" y1="1613.004" x2="483.365" y2="1613.004"/>
      <line x1="533.365" y1="1614.004" x2="483.365" y2="1614.004"/>
      <line x1="533.365" y1="1615.004" x2="483.365" y2="1615.004"/>
      <line x1="533.365" y1="1616.004" x2="483.365" y2="1616.004"/>
      <line x1="533.365" y1="1617.004" x2="483.365" y2="1617.004"/>
      <line x1="533.365" y1="1618.004" x2="483.365" y2="1618.004"/>
      <line x1="533.365" y1="1619.004" x2="483.365" y2="1619.004"/>
      <line x1="533.365" y1="1620.004" x2="483.365" y2="1620.004"/>
      <line x1="533.365" y1="1621.004" x2="483.365" y2="1621.004"/>
      <line x1="533.365" y1="1622.004" x2="483.365" y2="1622.004"/>
      <line x1="533.365" y1="1623.004" x2="483.365" y2="1623.004"/>
      <line x1="533.365" y1="1624.004" x2="483.365" y2="1624.004"/>
      <line x1="533.365" y1="1625.004" x2="483.365" y2="1625.004"/>
      <line x1="533.365" y1="1626.004" x2="483.365" y2="1626.004"/>
      <line x1="533.365" y1="1627.004" x2="483.365" y2="1627.004"/>
      <line x1="533.365" y1="1628.004" x2="483.365" y2="1628.004"/>
      <line x1="533.365" y1="1629.004" x2="483.365" y2="1629.004"/>
      <line x1="583.465" y1="1580.004" x2="533.465" y2="1580.004"/>
      <line x1="583.465" y1="1581.004" x2="533.465" y2="1581.004"/>
      <line x1="583.465" y1="1582.004" x2="533.465" y2="1582.004"/>
      <line x1="583.465" y1="1583.004" x2="533.465" y2="1583.004"/>
      <line x1="583.465" y1="1584.004" x2="533.465" y2="1584.004"/>
      <line x1="583.465" y1="1585.004" x2="533.465" y2="1585.004"/>
      <line x1="583.465" y1="1586.004" x2="533.465" y2="1586.004"/>
      <line x1="583.465" y1="1587.004" x2="533.465" y2="1587.004"/>
      <line x1="583.465" y1="1588.004" x2="533.465" y2="1588.004"/>
      <line x1="583.465" y1="1589.004" x2="533.465" y2="1589.004"/>
      <line x1="583.465" y1="1590.004" x2="533.465" y2="1590.004"/>
      <line x1="583.465" y1="1591.004" x2="533.465" y2="1591.004"/>
      <line x1="583.465" y1="1592.004" x2="533.465" y2="1592.004"/>
      <line x1="583.465" y1="1593.004" x2="533.465" y2="1593.004"/>
      <line x1="583.465" y1="1594.004" x2="533.465" y2="1594.004"/>
      <line x1="583.465" y1="1595.004" x2="533.465" y2="1595.004"/>
      <line x1="583.465" y1="1596.004" x2="533.465" y2="1596.004"/>
      <line x1="583.465" y1="1597.004" x2="533.465" y2="1597.004"/>
      <line x1="583.465" y1="1598.004" x2="533.465" y2="1598.004"/>
      <line x1="583.465" y1="1599.004" x2="533.465" y2="1599.004"/>
      <line x1="583.465" y1="1600.004" x2="533.465" y2="1600.004"/>
      <line x1="583.465" y1="1601.004" x2="533.465" y2="1601.004"/>
      <line x1="583.465" y1="1602.004" x2="533.465" y2="1602.004"/>
      <line x1="583.465" y1="1603.004" x2="533.465" y2="1603.004"/>
      <line x1="583.465" y1="1604.004" x2="533.465" y2="1604.004"/>
      <line x1="583.465" y1="1605.004" x2="533.465" y2="1605.004"/>
      <line x1="583.465" y1="1606.004" x2="533.465" y2="1606.004"/>
      <line x1="583.465" y1="1607.004" x2="533.465" y2="1607.004"/>
      <line x1="583.465" y1="1608.004" x2="533.465" y2="1608.004"/>
      <line x1="583.465" y1="1609.004" x2="533.465" y2="1609.004"/>
      <line x1="583.465" y1="1610.004" x2="533.465" y2="1610.004"/>
      <line x1="583.465" y1="1611.004" x2="533.465" y2="1611.004"/>
      <line x1="583.465" y1="1612.004" x2="533.465" y2="1612.004"/>
      <line x1="583.465" y1="1613.004" x2="533.465" y2="1613.004"/>
      <line x1="583.465" y1="1614.004" x2="533.465" y2="1614.004"/>
      <line x1="583.465" y1="1615.004" x2="533.465" y2="1615.004"/>
      <line x1="583.465" y1="1616.004" x2="533.465" y2="1616.004"/>
      <line x1="583.465" y1="1617.004" x2="533.465" y2="1617.004"/>
      <line x1="583.465" y1="1618.004" x2="533.465" y2="1618.004"/>
      <line x1="583.465" y1="1619.004" x2="533.465" y2="1619.004"/>
      <line x1="583.465" y1="1620.004" x2="533.465" y2="1620.004"/>
      <line x1="583.465" y1="1621.004" x2="533.465" y2="1621.004"/>
      <line x1="583.465" y1="1622.004" x2="533.465" y2="1622.004"/>
      <line x1="583.465" y1="1623.004" x2="533.465" y2="1623.004"/>
      <line x1="583.465" y1="1624.004" x2="533.465" y2="1624.004"/>
      <line x1="583.465" y1="1625.004" x2="533.465" y2="1625.004"/>
      <line x1="583.465" y1="1626.004" x2="533.465" y2="1626.004"/>
      <line x1="583.465" y1="1627.004" x2="533.465" y2="1627.004"/>
      <line x1="583.465" y1="1628.004" x2="533.465" y2="1628.004"/>
      <line x1="583.465" y1="1629.004" x2="533.465" y2="1629.004"/>
      <line x1="597.000" y1="1580.004" x2="583.565" y2="1580.004"/>
      <line x1="597.000" y1="1581.004" x2="583.565" y2="1581.004"/>
      <line x1="597.000" y1="1582.004" x2="583.565" y2="1582.004"/>
      <line x1="597.000" y1="1583.004" x2="583.565" y2="1583.004"/>
      <line x1="597.000" y1="1584.004" x2="583.565" y2="1584.004"/>
      <line x1="597.000" y1="1585.004" x2="583.565" y2="1585.004"/>
      <line x1="597.000" y1="1586.004" x2="583.565" y2="1586.004"/>
      <line x1="597.000" y1="1587.004" x2="583.565" y2="1587.004"/>
      <line x1="597.000" y1="1588.004" x2="583.565" y2="1588.004"/>
      <line x1="597.000" y1="1589.004" x2="583.565" y2="1589.004"/>
      <line x1="597.000" y1="1590.004" x2="583.565" y2="1590.004"/>
      <line x1="597.000" y1="1591.004" x2="583.565" y2="1591.004"/>
      <line x1="597.000" y1="1592.004" x2="583.565" y2="1592.004"/>
      <line x1="597.000" y1="1593.004" x2="583.565" y2="1593.004"/>
      <line x1="597.000" y1="1594.004" x2="583.565" y2="1594.004"/>
      <line x1="597.000" y1="1595.004" x2="583.565" y2="1595.004"/>
      <line x1="597.000" y1="1596.004" x2="583.565" y2="1596.004"/>
      <line x1="597.000" y1="1597.004" x2="583.565" y2="1597.004"/>
      <line x1="597.000" y1="1598.004" x2="583.565" y2="1598.004"/>
      <line x1="597.000" y1="1599.004" x2="583.565" y2="1599.004"/>
      <line x1="597.000" y1="1600.004" x2="583.565" y2="1600.004"/>
      <line x1="597.000" y1="1601.004" x2="583.565" y2="1601.004"/>
      <line x1="597.000" y1="1602.004" x2="583.565" y2="1602.004"/>
      <line x1="597.000" y1="1603.004" x2="583.565" y2="1603.004"/>
      <line x1="597.000" y1="1604.004" x2="583.565" y2="1604.004"/>
      <line x1="597.000" y1="1605.004" x2="583.565" y2="1605.004"/>
      <line x1="597.000" y1="1606.004" x2="583.565" y2="1606.004"/>
      <line x1="597.000" y1="1607.004" x2="583.565" y2="1607.004"/>
      <line x1="597.000" y1="1608.004" x2="583.565" y2="1608.004"/>
      <line x1="597.000" y1="1609.004" x2="583.565" y2="1609.004"/>
      <line x1="597.000" y1="1610.004" x2="583.565" y2="1610.004"/>
      <line x1="597.000" y1="1611.004" x2="583.565" y2="1611.004"/>
      <line x1="597.000" y1="1612.004" x2="583.565" y2="1612.004"/>
      <line x1="597.000" y1="1613.004" x2="583.565" y2="1613.004"/>
      <line x1="597.000" y1="1614.004" x2="583.565" y2="1614.004"/>
      <line x1="597.000" y1="1615.004" x2="583.565" y2="1615.004"/>
      <line x1="597.000" y1="1616.004" x2="583.565" y2="1616.004"/>
      <line x1="597.000" y1="1617.004" x2="583.565" y2="1617.004"/>
      <line x1="597.000" y1="1618.004" x2="583.565" y2="1618.004"/>
      <line x1="597.000" y1="1619.004" x2="583.565" y2="1619.004"/>
      <line x1="597.000" y1="1620.004" x2="583.565" y2="1620.004"/>
      <line x1="597.000" y1="1621.004" x2="583.565" y2="1621.004"/>
      <line x1="597.000" y1="1622.004" x2="583.565" y2="1622.004"/>
      <line x1="597.000" y1="1623.004" x2="583.565" y2="1623.004"/>
      <line x1="597.000" y1="1624.004" x2="583.565" y2="1624.004"/>
      <line x1="597.000" y1="1625.004" x2="583.565" y2="1625.004"/>
      <line x1="597.000" y1="1626.004" x2="583.565" y2="1626.004"/>
      <line x1="597.000" y1="1627.004" x2="583.565" y2="1627.004"/>
      <line x1="597.000" y1="1628.004" x2="583.565" y2="1628.004"/>
      <line x1="597.000" y1="1629.004" x2="583.565" y2="1629.004"/>
      <line x1="533.365" y1="1530.004" x2="483.365" y2="1530.004"/>
      <line x1="533.365" y1="1531.004" x2="483.365" y2="1531.004"/>
      <line x1="533.365" y1="1532.004" x2="483.365" y2="1532.004"/>
      <line x1="533.365" y1="1533.004" x2="483.365" y2="1533.004"/>
      <line x1="533.365" y1="1534.004" x2="483.365" y2="1534.004"/>
      <line x1="533.365" y1="1535.004" x2="483.365" y2="1535.004"/>
      <line x1="533.365" y1="1536.004" x2="483.365" y2="1536.004"/>
      <line x1="533.365" y1="1537.004" x2="483.365" y2="1537.004"/>
      <line x1="533.365" y1="1538.004" x2="483.365" y2="1538.004"/>
      <line x1="533.365" y1="1539.004" x2="483.365" y2="1539.004"/>
      <line x1="533.365" y1="1540.004" x2="483.365" y2="1540.004"/>
      <line x1="533.365" y1="1541.004" x2="483.365" y2="1541.004"/>
      <line x1="533.365" y1="1542.004" x2="483.365" y2="1542.004"/>
      <line x1="533.365" y1="1543.004" x2="483.365" y2="1543.004"/>
      <line x1="533.365" y1="1544.004" x2="483.365" y2="1544.004"/>
      <line x1="533.365" y1="1545.004" x2="483.365" y2="1545.004"/>
      <line x1="533.365" y1="1546.004" x2="483.365" y2="1546.004"/>
      <line x1="533.365" y1="1547.004" x2="483.365" y2="1547.004"/>
      <line x1="533.365" y1="1548.004" x2="483.365" y2="1548.004"/>
      <line x1="533.365" y1="1549.004" x2="483.365" y2="1549.004"/>
      <line x1="533.365" y1="1550.004" x2="483.365" y2="1550.004"/>
      <line x1="533.365" y1="1551.004" x2="483.365" y2="1551.004"/>
      <line x1="533.365" y1="1552.004" x2="483.365" y2="1552.004"/>
      <line x1="533.365" y1="1553.004" x2="483.365" y2="1553.004"/>
      <line x1="533.365" y1="1554.004" x2="483.365" y2="1554.004"/>
      <line x1="533.365" y1="1555.004" x2="483.365" y2="1555.004"/>
      <line x1="533.365" y1="1556.004" x2="483.365" y2="1556.004"/>
      <line x1="533.365" y1="1557.004" x2="483.365" y2="1557.004"/>
      <line x1="533.365" y1="1558.004" x2="483.365" y2="1558.004"/>
      <line x1="533.365" y1="1559.004" x2="483.365" y2="1559.004"/>
      <line x1="533.365" y1="1560.004" x2="483.365" y2="1560.004"/>
      <line x1="533.365" y1="1561.004" x2="483.365" y2="1561.004"/>
      <line x1="533.365" y1="1562.004" x2="483.365" y2="1562.004"/>
      <line x1="533.365" y1="1563.004" x2="483.365" y2="1563.004"/>
      <line x1="533.365" y1="1564.004" x2="483.365" y2="1564.004"/>
      <line x1="533.365" y1="1565.004" x2="483.365" y2="1565.004"/>
      <line x1="533.365" y1="1566.004" x2="483.365" y2="1566.004"/>
      <line x1="533.365" y1="1567.004" x2="483.365" y2="1567.004"/>
      <line x1="533.365" y1="1568.004" x2="483.365" y2="1568.004"/>
      <line x1="533.365" y1="1569.004" x2="483.365" y2="1569.004"/>
      <line x1="533.365" y1="1570.004" x2="483.365" y2="1570.004"/>
      <line x1="533.365" y1="1571.004" x2="483.365" y2="1571.004"/>
      <line x1="533.365" y1="1572.004" x2="483.365" y2="1572.004"/>
      <line x1="533.365" y1="1573.004" x2="483.365" y2="1573.004"/>
      <line x1="533.365" y1="1574.004" x2="483.365" y2="1574.004"/>
      <line x1="533.365" y1="1575.004" x2="483.365" y2="1575.004"/>
      <line x1="533.365" y1="1576.004" x2="483.365" y2="1576.004"/>
      <line x1="533.365" y1="1577.004" x2="483.365" y2="1577.004"/>
      <line x1="533.365" y1="1578.004" x2="483.365" y2="1578.004"/>
      <line x1="533.365" y1="1579.004" x2="483.365" y2="1579.004"/>
      <line x1="583.465" y1="1530.004" x2="533.465" y2="1530.004"/>
      <line x1="583.465" y1="1531.004" x2="533.465" y2="1531.004"/>
      <line x1="583.465" y1="1532.004" x2="533.465" y2="1532.004"/>
      <line x1="583.465" y1="1533.004" x2="533.465" y2="1533.004"/>
      <line x1="583.465" y1="1534.004" x2="533.465" y2="1534.004"/>
      <line x1="583.465" y1="1535.004" x2="533.465" y2="1535.004"/>
      <line x1="583.465" y1="1536.004" x2="533.465" y2="1536.004"/>
      <line x1="583.465" y1="1537.004" x2="533.465" y2="1537.004"/>
      <line x1="583.465" y1="1538.004" x2="533.465" y2="1538.004"/>
      <line x1="583.465" y1="1539.004" x2="533.465" y2="1539.004"/>
      <line x1="583.465" y1="1540.004" x2="533.465" y2="1540.004"/>
      <line x1="583.465" y1="1541.004" x2="533.465" y2="1541.004"/>
      <line x1="583.465" y1="1542.004" x2="533.465" y2="1542.004"/>
      <line x1="583.465" y1="1543.004" x2="533.465" y2="1543.004"/>
      <line x1="583.465" y1="1544.004" x2="533.465" y2="1544.004"/>
      <line x1="583.465" y1="1545.004" x2="533.465" y2="1545.004"/>
      <line x1="583.465" y1="1546.004" x2="533.465" y2="1546.004"/>
      <line x1="583.465" y1="1547.004" x2="533.465" y2="1547.004"/>
      <line x1="583.465" y1="1548.004" x2="533.465" y2="1548.004"/>
      <line x1="583.465" y1="1549.004" x2="533.465" y2="1549.004"/>
      <line x1="583.465" y1="1550.004" x2="533.465" y2="1550.004"/>
      <line x1="583.465" y1="1551.004" x2="533.465" y2="1551.004"/>
      <line x1="583.465" y1="1552.004" x2="533.465" y2="1552.004"/>
      <line x1="583.465" y1="1553.004" x2="533.465" y2="1553.004"/>
      <line x1="583.465" y1="1554.004" x2="533.465" y2="1554.004"/>
      <line x1="583.465" y1="1555.004" x2="533.465" y2="1555.004"/>
      <line x1="583.465" y1="1556.004" x2="533.465" y2="1556.004"/>
      <line x1="583.465" y1="1557.004" x2="533.465" y2="1557.004"/>
      <line x1="583.465" y1="1558.004" x2="533.465" y2="1558.004"/>
      <line x1="583.465" y1="1559.004" x2="533.465" y2="1559.004"/>
      <line x1="583.465" y1="1560.004" x2="533.465" y2="1560.004"/>
      <line x1="583.465" y1="1561.004" x2="533.465" y2="1561.004"/>
      <line x1="583.465" y1="1562.004" x2="533.465" y2="1562.004"/>
      <line x1="583.465" y1="1563.004" x2="533.465" y2="1563.004"/>
      <line x1="583.465" y1="1564.004" x2="533.465" y2="1564.004"/>
      <line x1="583.465" y1="1565.004" x2="533.465" y2="1565.004"/>
      <line x1="583.465" y1="1566.004" x2="533.465" y2="1566.004"/>
      <line x1="583.465" y1="1567.004" x2="533.465" y2="1567.004"/>
      <line x1="583.465" y1="1568.004" x2="533.465" y2="1568.004"/>
      <line x1="583.465" y1="1569.004" x2="533.465" y2="1569.004"/>
      <line x1="583.465" y1="1570.004" x2="533.465" y2="1570.004"/>
      <line x1="583.465" y1="1571.004" x2="533.465" y2="1571.004"/>
      <line x1="583.465" y1="1572.004" x2="533.465" y2="1572.004"/>
      <line x1="583.465" y1="1573.004" x2="533.465" y2="1573.004"/>
      <line x1="583.465" y1="1574.004" x2="533.465" y2="1574.004"/>
      <line x1="583.465" y1="1575.004" x2="533.465" y2="1575.004"/>
      <line x1="583.465" y1="1576.004" x2="533.465" y2="1576.004"/>
      <line x1="583.465" y1="1577.004" x2="533.465" y2="1577.004"/>
      <line x1="583.465" y1="1578.004" x2="533.465" y2="1578.004"/>
      <line x1="583.465" y1="1579.004" x2="533.465" y2="1579.004"/>
      <line x1="597.000" y1="1530.004" x2="583.565" y2="1530.004"/>
      <line x1="597.000" y1="1531.004" x2="583.565" y2="1531.004"/>
      <line x1="597.000" y1="1532.004" x2="583.565" y2="1532.004"/>
      <line x1="597.000" y1="1533.004" x2="583.565" y2="1533.004"/>
      <line x1="597.000" y1="1534.004" x2="583.565" y2="1534.004"/>
      <line x1="597.000" y1="1535.004" x2="583.565" y2="1535.004"/>
      <line x1="597.000" y1="1536.004" x2="583.565" y2="1536.004"/>
      <line x1="597.000" y1="1537.004" x2="583.565" y2="1537.004"/>
      <line x1="597.000" y1="1538.004" x2="583.565" y2="1538.004"/>
      <line x1="597.000" y1="1539.004" x2="583.565" y2="1539.004"/>
      <line x1="597.000" y1="1540.004" x2="583.565" y2="1540.004"/>
      <line x1="597.000" y1="1541.004" x2="583.565" y2="1541.004"/>
      <line x1="597.000" y1="1542.004" x2="583.565" y2="1542.004"/>
      <line x1="597.000" y1="1543.004" x2="583.565" y2="1543.004"/>
      <line x1="597.000" y1="1544.004" x2="583.565" y2="1544.004"/>
      <line x1="597.000" y1="1545.004" x2="583.565" y2="1545.004"/>
      <line x1="597.000" y1="1546.004" x2="583.565" y2="1546.004"/>
      <line x1="597.000" y1="1547.004" x2="583.565" y2="1547.004"/>
      <line x1="597.000" y1="1548.004" x2="583.565" y2="1548.004"/>
      <line x1="597.000" y1="1549.004" x2="583.565" y2="1549.004"/>
      <line x1="597.000" y1="1550.004" x2="583.565" y2="1550.004"/>
      <line x1="597.000" y1="1551.004" x2="583.565" y2="1551.004"/>
      <line x1="597.000" y1="1552.004" x2="583.565" y2="1552.004"/>
      <line x1="597.000" y1="1553.004" x2="583.565" y2="1553.004"/>
      <line x1="597.000" y1="1554.004" x2="583.565" y2="1554.004"/>
      <line x1="597.000" y1="1555.004" x2="583.565" y2="1555.004"/>
      <line x1="597.000" y1="1556.004" x2="583.565" y2="1556.004"/>
      <line x1="597.000" y1="1557.004" x2="583.565" y2="1557.004"/>
      <line x1="597.000" y1="1558.004" x2="583.565" y2="1558.004"/>
      <line x1="597.000" y1="1559.004" x2="583.565" y2="1559.004"/>
      <line x1="597.000" y1="1560.004" x2="583.565" y2="1560.004"/>
      <line x1="597.000" y1="1561.004" x2="583.565" y2="1561.004"/>
      <line x1="597.000" y1="1562.004" x2="583.565" y2="1562.004"/>
      <line x1="597.000" y1="1563.004" x2="583.565" y2="1563.004"/>
      <line x1="597.000" y1="1564.004" x2="583.565" y2="1564.004"/>
      <line x1="597.000" y1="1565.004" x2="583.565" y2="1565.004"/>
      <line x1="597.000" y1="1566.004" x2="583.565" y2="1566.004"/>
      <line x1="597.000" y1="1567.004" x2="583.565" y2="1567.004"/>
      <line x1="597.000" y1="1568.004" x2="583.565" y2="1568.004"/>
      <line x1="597.000" y1="1569.004" x2="583.565" y2="1569.004"/>
      <line x1="597.000" y1="1570.004" x2="583.565" y2="1570.004"/>
      <line x1="597.000" y1="1571.004" x2="583.565" y2="1571.004"/>
      <line x1="597.000" y1="1572.004" x2="583.565" y2="1572.004"/>
      <line x1="597.000" y1="1573.004" x2="583.565" y2="1573.004"/>
      <line x1="597.000" y1="1574.004" x2="583.565" y2="1574.004"/>
      <line x1="597.000" y1="1575.004" x2="583.565" y2="1575.004"/>
      <line x1="597.000" y1="1576.004" x2="583.565" y2="1576.004"/>
      <line x1="597.000" y1="1577.004" x2="583.565" y2="1577.004"/>
      <line x1="597.000" y1="1578.004" x2="583.565" y2="1578.004"/>
      <line x1="597.000" y1="1579.004" x2="583.565" y2="1579.004"/>
      <line x1="533.365" y1="1526.004" x2="483.365" y2="1526.004"/>
      <line x1="533.365" y1="1527.004" x2="483.365" y2="1527.004"/>
      <line x1="533.365" y1="1528.004" x2="483.365" y2="1528.004"/>
      <line x1="583.465" y1="1526.004" x2="533.465" y2="1526.004"/>
      <line x1="583.465" y1="1527.004" x2="533.465" y2="1527.004"/>
      <line x1="583.465" y1="1528.004" x2="533.465" y2="1528.004"/>
      <line x1="597.000" y1="1526.004" x2="583.565" y2="1526.004"/>
      <line x1="597.000" y1="1527.004" x2="583.565" y2="1527.004"/>
      <line x1="597.000" y1="1528.004" x2="583.565" y2="1528.004"/>
      <line x1="53.000" y1="1630.004" x2="3.000" y2="1630.004"/>
      <line x1="53.000" y1="1631.004" x2="3.000" y2="1631.004"/>
      <line x1="53.000" y1="1632.004" x2="3.000" y2="1632.004"/>
      <line x1="53.000" y1="1633.004" x2="3.000" y2="1633.004"/>
      <line x1="53.000" y1="1634.004" x2="3.000" y2="1634.004"/>
      <line x1="53.000" y1="1635.004" x2="3.000" y2="1635.004"/>
      <line x1="53.000" y1="1636.004" x2="3.000" y2="1636.004"/>
      <line x1="53.000" y1="1637.004" x2="3.000" y2="1637.004"/>
      <line x1="53.000" y1="1638.004" x2="3.000" y2="1638.004"/>
      <line x1="53.000" y1="1639.004" x2="3.000" y2="1639.004"/>
      <line x1="53.000" y1="1640.004" x2="3.000" y2="1640.004"/>
      <line x1="53.000" y1="1641.004" x2="3.000" y2="1641.004"/>
      <line x1="53.000" y1="1642.004" x2="3.000" y2="1642.004"/>
      <line x1="53.000" y1="1643.004" x2="3.000" y2="1643.004"/>
      <line x1="53.000" y1="1644.004" x2="3.000" y2="1644.004"/>
      <line x1="53.000" y1="1645.004" x2="3.000" y2="1645.004"/>
      <line x1="53.000" y1="1646.004" x2="3.000" y2="1646.004"/>
      <line x1="53.000" y1="1647.004" x2="3.000" y2="1647.004"/>
      <line x1="53.000" y1="1648.004" x2="3.000" y2="1648.004"/>
      <line x1="53.000" y1="1649.004" x2="3.000" y2="1649.004"/>
      <line x1="53.000" y1="1650.004" x2="3.000" y2="1650.004"/>
      <line x1="53.000" y1="1651.004" x2="3.000" y2="1651.004"/>
      <line x1="53.000" y1="1652.004" x2="3.000" y2="1652.004"/>
      <line x1="53.000" y1="1653.004" x2="3.000" y2="1653.004"/>
      <line x1="53.000" y1="1654.004" x2="3.000" y2="1654.004"/>
      <line x1="53.000" y1="1655.004" x2="3.000" y2="1655.004"/>
      <line x1="53.000" y1="1656.004" x2="3.000" y2="1656.004"/>
      <line x1="53.000" y1="1657.004" x2="3.000" y2="1657.004"/>
      <line x1="53.000" y1="1658.004" x2="3.000" y2="1658.004"/>
      <line x1="53.000" y1="1659.004" x2="3.000" y2="1659.004"/>
      <line x1="53.000" y1="1660.004" x2="3.000" y2="1660.004"/>
      <line x1="53.000" y1="1661.004" x2="3.000" y2="1661.004"/>
      <line x1="53.000" y1="1662.004" x2="3.000" y2="1662.004"/>
      <line x1="53.000" y1="1663.004" x2="3.000" y2="1663.004"/>
      <line x1="53.000" y1="1664.004" x2="3.000" y2="1664.004"/>
      <line x1="53.000" y1="1665.004" x2="3.000" y2="1665.004"/>
      <line x1="53.000" y1="1666.004" x2="3.000" y2="1666.004"/>
      <line x1="53.000" y1="1667.004" x2="3.000" y2="1667.004"/>
      <line x1="53.000" y1="1668.004" x2="3.000" y2="1668.004"/>
      <line x1="53.000" y1="1669.004" x2="3.000" y2="1669.004"/>
      <line x1="53.000" y1="1670.004" x2="3.000" y2="1670.004"/>
      <line x1="53.000" y1="1671.004" x2="3.000" y2="1671.004"/>
      <line x1="53.000" y1="1672.004" x2="3.000" y2="1672.004"/>
      <line x1="53.000" y1="1673.004" x2="3.000" y2="1673.004"/>
      <line x1="53.000" y1="1674.004" x2="3.000" y2="1674.004"/>
      <line x1="53.000" y1="1675.004" x2="3.000" y2="1675.004"/>
      <line x1="53.000" y1="1676.004" x2="3.000" y2="1676.004"/>
      <line x1="53.000" y1="1677.004" x2="3.000" y2="1677.004"/>
      <line x1="53.000" y1="1678.004" x2="3.000" y2="1678.004"/>
      <line x1="53.000" y1="1679.004" x2="3.000" y2="1679.004"/>
      <line x1="103.100" y1="1630.004" x2="53.100" y2="1630.004"/>
      <line x1="103.100" y1="1631.004" x2="53.100" y2="1631.004"/>
      <line x1="103.100" y1="1632.004" x2="53.100" y2="1632.004"/>
      <line x1="103.100" y1="1633.004" x2="53.100" y2="1633.004"/>
      <line x1="103.100" y1="1634.004" x2="53.100" y2="1634.004"/>
      <line x1="103.100" y1="1635.004" x2="53.100" y2="1635.004"/>
      <line x1="103.100" y1="1636.004" x2="53.100" y2="1636.004"/>
      <line x1="103.100" y1="1637.004" x2="53.100" y2="1637.004"/>
      <line x1="103.100" y1="1638.004" x2="53.100" y2="1638.004"/>
      <line x1="103.100" y1="1639.004" x2="53.100" y2="1639.004"/>
      <line x1="103.100" y1="1640.004" x2="53.100" y2="1640.004"/>
      <line x1="103.100" y1="1641.004" x2="53.100" y2="1641.004"/>
      <line x1="103.100" y1="1642.004" x2="53.100" y2="1642.004"/>
      <line x1="103.100" y1="1643.004" x2="53.100" y2="1643.004"/>
      <line x1="103.100" y1="1644.004" x2="53.100" y2="1644.004"/>
      <line x1="103.100" y1="1645.004" x2="53.100" y2="1645.004"/>
      <line x1="103.100" y1="1646.004" x2="53.100" y2="1646.004"/>
      <line x1="103.100" y1="1647.004" x2="53.100" y2="1647.004"/>
      <line x1="103.100" y1="1648.004" x2="53.100" y2="1648.004"/>
      <line x1="103.100" y1="1649.004" x2="53.100" y2="1649.004"/>
      <line x1="103.100" y1="1650.004" x2="53.100" y2="1650.004"/>
      <line x1="103.100" y1="1651.004" x2="53.100" y2="1651.004"/>
      <line x1="103.100" y1="1652.004" x2="53.100" y2="1652.004"/>
      <line x1="103.100" y1="1653.004" x2="53.100" y2="1653.004"/>
      <line x1="103.100" y1="1654.004" x2="53.100" y2="1654.004"/>
      <line x1="103.100" y1="1655.004" x2="53.100" y2="1655.004"/>
      <line x1="103.100" y1="1656.004" x2="53.100" y2="1656.004"/>
      <line x1="103.100" y1="1657.004" x2="53.100" y2="1657.004"/>
      <line x1="103.100" y1="1658.004" x2="53.100" y2="1658.004"/>
      <line x1="103.100" y1="1659.004" x2="53.100" y2="1659.004"/>
      <line x1="103.100" y1="1660.004" x2="53.100" y2="1660.004"/>
      <line x1="103.100" y1="1661.004" x2="53.100" y2="1661.004"/>
      <line x1="103.100" y1="1662.004" x2="53.100" y2="1662.004"/>
      <line x1="103.100" y1="1663.004" x2="53.100" y2="1663.004"/>
      <line x1="103.100" y1="1664.004" x2="53.100" y2="1664.004"/>
      <line x1="103.100" y1="1665.004" x2="53.100" y2="1665.004"/>
      <line x1="103.100" y1="1666.004" x2="53.100" y2="1666.004"/>
      <line x1="103.100" y1="1667.004" x2="53.100" y2="1667.004"/>
      <line x1="103.100" y1="1668.004" x2="53.100" y2="1668.004"/>
      <line x1="103.100" y1="1669.004" x2="53.100" y2="1669.004"/>
      <line x1="103.100" y1="1670.004" x2="53.100" y2="1670.004"/>
      <line x1="103.100" y1="1671.004" x2="53.100" y2="1671.004"/>
      <line x1="103.100" y1="1672.004" x2="53.100" y2="1672.004"/>
      <line x1="103.100" y1="1673.004" x2="53.100" y2="1673.004"/>
      <line x1="103.100" y1="1674.004" x2="53.100" y2="1674.004"/>
      <line x1="103.100" y1="1675.004" x2="53.100" y2="1675.004"/>
      <line x1="103.100" y1="1676.004" x2="53.100" y2="1676.004"/>
      <line x1="103.100" y1="1677.004" x2="53.100" y2="1677.004"/>
      <line x1="103.100" y1="1678.004" x2="53.100" y2="1678.004"/>
      <line x1="103.100" y1="1679.004" x2="53.100" y2="1679.004"/>
      <line x1="116.635" y1="1630.004" x2="103.200" y2="1630.004"/>
      <line x1="116.635" y1="1631.004" x2="103.200" y2="1631.004"/>
      <line x1="116.635" y1="1632.004" x2="103.200" y2="1632.004"/>
      <line x1="116.635" y1="1633.004" x2="103.200" y2="1633.004"/>
      <line x1="116.635" y1="1634.004" x2="103.200" y2="1634.004"/>
      <line x1="116.635" y1="1635.004" x2="103.200" y2="1635.004"/>
      <line x1="116.635" y1="1636.004" x2="103.200" y2="1636.004"/>
      <line x1="116.635" y1="1637.004" x2="103.200" y2="1637.004"/>
      <line x1="116.635" y1="1638.004" x2="103.200" y2="1638.004"/>
      <line x1="116.635" y1="1639.004" x2="103.200" y2="1639.004"/>
      <line x1="116.635" y1="1640.004" x2="103.200" y2="1640.004"/>
      <line x1="116.635" y1="1641.004" x2="103.200" y2="1641.004"/>
      <line x1="116.635" y1="1642.004" x2="103.200" y2="1642.004"/>
      <line x1="116.635" y1="1643.004" x2="103.200" y2="1643.004"/>
      <line x1="116.635" y1="1644.004" x2="103.200" y2="1644.004"/>
      <line x1="116.635" y1="1645.004" x2="103.200" y2="1645.004"/>
      <line x1="116.635" y1="1646.004" x2="103.200" y2="1646.004"/>
      <line x1="116.635" y1="1647.004" x2="103.200" y2="1647.004"/>
      <line x1="116.635" y1="1648.004" x2="103.200" y2="1648.004"/>
      <line x1="116.635" y1="1649.004" x2="103.200" y2="1649.004"/>
      <line x1="116.635" y1="1650.004" x2="103.200" y2="1650.004"/>
      <line x1="116.635" y1="1651.004" x2="103.200" y2="1651.004"/>
      <line x1="116.635" y1="1652.004" x2="103.200" y2="1652.004"/>
      <line x1="116.635" y1="1653.004" x2="103.200" y2="1653.004"/>
      <line x1="116.635" y1="1654.004" x2="103.200" y2="1654.004"/>
      <line x1="116.635" y1="1655.004" x2="103.200" y2="1655.004"/>
      <line x1="116.635" y1="1656.004" x2="103.200" y2="1656.004"/>
      <line x1="116.635" y1="1657.004" x2="103.200" y2="1657.004"/>
      <line x1="116.635" y1="1658.004" x2="103.200" y2="1658.004"/>
      <line x1="116.635" y1="1659.004" x2="103.200" y2="1659.004"/>
      <line x1="116.635" y1="1660.004" x2="103.200" y2="1660.004"/>
      <line x1="116.635" y1="1661.004" x2="103.200" y2="1661.004"/>
      <line x1="116.635" y1="1662.004" x2="103.200" y2="1662.004"/>
      <line x1="116.635" y1="1663.004" x2="103.200" y2="1663.004"/>
      <line x1="116.635" y1="1664.004" x2="103.200" y2="1664.004"/>
      <line x1="116.635" y1="1665.004" x2="103.200" y2="1665.004"/>
      <line x1="116.635" y1="1666.004" x2="103.200" y2="1666.004"/>
      <line x1="116.635" y1="1667.004" x2="103.200" y2="1667.004"/>
      <line x1="116.635" y1="1668.004" x2="103.200" y2="1668.004"/>
      <line x1="116.635" y1="1669.004" x2="103.200" y2="1669.004"/>
      <line x1="116.635" y1="1670.004" x2="103.200" y2="1670.004"/>
      <line x1="116.635" y1="1671.004" x2="103.200" y2="1671.004"/>
      <line x1="116.635" y1="1672.004" x2="103.200" y2="1672.004"/>
      <line x1="116.635" y1="1673.004" x2="103.200" y2="1673.004"/>
      <line x1="116.635" y1="1674.004" x2="103.200" y2="1674.004"/>
      <line x1="116.635" y1="1675.004" x2="103.200" y2="1675.004"/>
      <line x1="116.635" y1="1676.004" x2="103.200" y2="1676.004"/>
      <line x1="116.635" y1="1677.004" x2="103.200" y2="1677.004"/>
      <line x1="116.635" y1="1678.004" x2="103.200" y2="1678.004"/>
      <line x1="116.635" y1="1679.004" x2="103.200" y2="1679.004"/>
      <line x1="53.000" y1="1580.004" x2="3.000" y2="1580.004"/>
      <line x1="53.000" y1="1581.004" x2="3.000" y2="1581.004"/>
      <line x1="53.000" y1="1582.004" x2="3.000" y2="1582.004"/>
      <line x1="53.000" y1="1583.004" x2="3.000" y2="1583.004"/>
      <line x1="53.000" y1="1584.004" x2="3.000" y2="1584.004"/>
      <line x1="53.000" y1="1585.004" x2="3.000" y2="1585.004"/>
      <line x1="53.000" y1="1586.004" x2="3.000" y2="1586.004"/>
      <line x1="53.000" y1="1587.004" x2="3.000" y2="1587.004"/>
      <line x1="53.000" y1="1588.004" x2="3.000" y2="1588.004"/>
      <line x1="53.000" y1="1589.004" x2="3.000" y2="1589.004"/>
      <line x1="53.000" y1="1590.004" x2="3.000" y2="1590.004"/>
      <line x1="53.000" y1="1591.004" x2="3.000" y2="1591.004"/>
      <line x1="53.000" y1="1592.004" x2="3.000" y2="1592.004"/>
      <line x1="53.000" y1="1593.004" x2="3.000" y2="1593.004"/>
      <line x1="53.000" y1="1594.004" x2="3.000" y2="1594.004"/>
      <line x1="53.000" y1="1595.004" x2="3.000" y2="1595.004"/>
      <line x1="53.000" y1="1596.004" x2="3.000" y2="1596.004"/>
      <line x1="53.000" y1="1597.004" x2="3.000" y2="1597.004"/>
      <line x1="53.000" y1="1598.004" x2="3.000" y2="1598.004"/>
      <line x1="53.000" y1="1599.004" x2="3.000" y2="1599.004"/>
      <line x1="53.000" y1="1600.004" x2="3.000" y2="1600.004"/>
      <line x1="53.000" y1="1601.004" x2="3.000" y2="1601.004"/>
      <line x1="53.000" y1="1602.004" x2="3.000" y2="1602.004"/>
      <line x1="53.000" y1="1603.004" x2="3.000" y2="1603.004"/>
      <line x1="53.000" y1="1604.004" x2="3.000" y2="1604.004"/>
      <line x1="53.000" y1="1605.004" x2="3.000" y2="1605.004"/>
      <line x1="53.000" y1="1606.004" x2="3.000" y2="1606.004"/>
      <line x1="53.000" y1="1607.004" x2="3.000" y2="1607.004"/>
      <line x1="53.000" y1="1608.004" x2="3.000" y2="1608.004"/>
      <line x1="53.000" y1="1609.004" x2="3.000" y2="1609.004"/>
      <line x1="53.000" y1="1610.004" x2="3.000" y2="1610.004"/>
      <line x1="53.000" y1="1611.004" x2="3.000" y2="1611.004"/>
      <line x1="53.000" y1="1612.004" x2="3.000" y2="1612.004"/>
      <line x1="53.000" y1="1613.004" x2="3.000" y2="1613.004"/>
      <line x1="53.000" y1="1614.004" x2="3.000" y2="1614.004"/>
      <line x1="53.000" y1="1615.004" x2="3.000" y2="1615.004"/>
      <line x1="53.000" y1="1616.004" x2="3.000" y2="1616.004"/>
      <line x1="53.000" y1="1617.004" x2="3.000" y2="1617.004"/>
      <line x1="53.000" y1="1618.004" x2="3.000" y2="1618.004"/>
      <line x1="53.000" y1="1619.004" x2="3.000" y2="1619.004"/>
      <line x1="53.000" y1="1620.004" x2="3.000" y2="1620.004"/>
      <line x1="53.000" y1="1621.004" x2="3.000" y2="1621.004"/>
      <line x1="53.000" y1="1622.004" x2="3.000" y2="1622.004"/>
      <line x1="53.000" y1="1623.004" x2="3.000" y2="1623.004"/>
      <line x1="53.000" y1="1624.004" x2="3.000" y2="1624.004"/>
      <line x1="53.000" y1="1625.004" x2="3.000" y2="1625.004"/>
      <line x1="53.000" y1="1626.004" x2="3.000" y2="1626.004"/>
      <line x1="53.000" y1="1627.004" x2="3.000" y2="1627.004"/>
      <line x1="53.000" y1="1628.004" x2="3.000" y2="1628.004"/>
      <line x1="53.000" y1="1629.004" x2="3.000" y2="1629.004"/>
      <line x1="103.100" y1="1580.004" x2="53.100" y2="1580.004"/>
      <line x1="103.100" y1="1581.004" x2="53.100" y2="1581.004"/>
      <line x1="103.100" y1="1582.004" x2="53.100" y2="1582.004"/>
      <line x1="103.100" y1="1583.004" x2="53.100" y2="1583.004"/>
      <line x1="103.100" y1="1584.004" x2="53.100" y2="1584.004"/>
      <line x1="103.100" y1="1585.004" x2="53.100" y2="1585.004"/>
      <line x1="103.100" y1="1586.004" x2="53.100" y2="1586.004"/>
      <line x1="103.100" y1="1587.004" x2="53.100" y2="1587.004"/>
      <line x1="103.100" y1="1588.004" x2="53.100" y2="1588.004"/>
      <line x1="103.100" y1="1589.004" x2="53.100" y2="1589.004"/>
      <line x1="103.100" y1="1590.004" x2="53.100" y2="1590.004"/>
      <line x1="103.100" y1="1591.004" x2="53.100" y2="1591.004"/>
      <line x1="103.100" y1="1592.004" x2="53.100" y2="1592.004"/>
      <line x1="103.100" y1="1593.004" x2="53.100" y2="1593.004"/>
      <line x1="103.100" y1="1594.004" x2="53.100" y2="1594.004"/>
      <line x1="103.100" y1="1595.004" x2="53.100" y2="1595.004"/>
      <line x1="103.100" y1="1596.004" x2="53.100" y2="1596.004"/>
      <line x1="103.100" y1="1597.004" x2="53.100" y2="1597.004"/>
      <line x1="103.100" y1="1598.004" x2="53.100" y2="1598.004"/>
      <line x1="103.100" y1="1599.004" x2="53.100" y2="1599.004"/>
      <line x1="103.100" y1="1600.004" x2="53.100" y2="1600.004"/>
      <line x1="103.100" y1="1601.004" x2="53.100" y2="1601.004"/>
      <line x1="103.100" y1="1602.004" x2="53.100" y2="1602.004"/>
      <line x1="103.100" y1="1603.004" x2="53.100" y2="1603.004"/>
      <line x1="103.100" y1="1604.004" x2="53.100" y2="1604.004"/>
      <line x1="103.100" y1="1605.004" x2="53.100" y2="1605.004"/>
      <line x1="103.100" y1="1606.004" x2="53.100" y2="1606.004"/>
      <line x1="103.100" y1="1607.004" x2="53.100" y2="1607.004"/>
      <line x1="103.100" y1="1608.004" x2="53.100" y2="1608.004"/>
      <line x1="103.100" y1="1609.004" x2="53.100" y2="1609.004"/>
      <line x1="103.100" y1="1610.004" x2="53.100" y2="1610.004"/>
      <line x1="103.100" y1="1611.004" x2="53.100" y2="1611.004"/>
      <line x1="103.100" y1="1612.004" x2="53.100" y2="1612.004"/>
      <line x1="103.100" y1="1613.004" x2="53.100" y2="1613.004"/>
      <line x1="103.100" y1="1614.004" x2="53.100" y2="1614.004"/>
      <line x1="103.100" y1="1615.004" x2="53.100" y2="1615.004"/>
      <line x1="103.100" y1="1616.004" x2="53.100" y2="1616.004"/>
      <line x1="103.100" y1="1617.004" x2="53.100" y2="1617.004"/>
      <line x1="103.100" y1="1618.004" x2="53.100" y2="1618.004"/>
      <line x1="103.100" y1="1619.004" x2="53.100" y2="1619.004"/>
      <line x1="103.100" y1="1620.004" x2="53.100" y2="1620.004"/>
      <line x1="103.100" y1="1621.004" x2="53.100" y2="1621.004"/>
      <line x1="103.100" y1="1622.004" x2="53.100" y2="1622.004"/>
      <line x1="103.100" y1="1623.004" x2="53.100" y2="1623.004"/>
      <line x1="103.100" y1="1624.004" x2="53.100" y2="1624.004"/>
      <line x1="103.100" y1="1625.004" x2="53.100" y2="1625.004"/>
      <line x1="103.100" y1="1626.004" x2="53.100" y2="1626.004"/>
      <line x1="103.100" y1="1627.004" x2="53.100" y2="1627.004"/>
      <line x1="103.100" y1="1628.004" x2="53.100" y2="1628.004"/>
      <line x1="103.100" y1="1629.004" x2="53.100" y2="1629.004"/>
      <line x1="116.635" y1="1580.004" x2="103.200" y2="1580.004"/>
      <line x1="116.635" y1="1581.004" x2="103.200" y2="1581.004"/>
      <line x1="116.635" y1="1582.004" x2="103.200" y2="1582.004"/>
      <line x1="116.635" y1="1583.004" x2="103.200" y2="1583.004"/>
      <line x1="116.635" y1="1584.004" x2="103.200" y2="1584.004"/>
      <line x1="116.635" y1="1585.004" x2="103.200" y2="1585.004"/>
      <line x1="116.635" y1="1586.004" x2="103.200" y2="1586.004"/>
      <line x1="116.635" y1="1587.004" x2="103.200" y2="1587.004"/>
      <line x1="116.635" y1="1588.004" x2="103.200" y2="1588.004"/>
      <line x1="116.635" y1="1589.004" x2="103.200" y2="1589.004"/>
      <line x1="116.635" y1="1590.004" x2="103.200" y2="1590.004"/>
      <line x1="116.635" y1="1591.004" x2="103.200" y2="1591.004"/>
      <line x1="116.635" y1="1592.004" x2="103.200" y2="1592.004"/>
      <line x1="116.635" y1="1593.004" x2="103.200" y2="1593.004"/>
      <line x1="116.635" y1="1594.004" x2="103.200" y2="1594.004"/>
      <line x1="116.635" y1="1595.004" x2="103.200" y2="1595.004"/>
      <line x1="116.635" y1="1596.004" x2="103.200" y2="1596.004"/>
      <line x1="116.635" y1="1597.004" x2="103.200" y2="1597.004"/>
      <line x1="116.635" y1="1598.004" x2="103.200" y2="1598.004"/>
      <line x1="116.635" y1="1599.004" x2="103.200" y2="1599.004"/>
      <line x1="116.635" y1="1600.004" x2="103.200" y2="1600.004"/>
      <line x1="116.635" y1="1601.004" x2="103.200" y2="1601.004"/>
      <line x1="116.635" y1="1602.004" x2="103.200" y2="1602.004"/>
      <line x1="116.635" y1="1603.004" x2="103.200" y2="1603.004"/>
      <line x1="116.635" y1="1604.004" x2="103.200" y2="1604.004"/>
      <line x1="116.635" y1="1605.004" x2="103.200" y2="1605.004"/>
      <line x1="116.635" y1="1606.004" x2="103.200" y2="1606.004"/>
      <line x1="116.635" y1="1607.004" x2="103.200" y2="1607.004"/>
      <line x1="116.635" y1="1608.004" x2="103.200" y2="1608.004"/>
      <line x1="116.635" y1="1609.004" x2="103.200" y2="1609.004"/>
      <line x1="116.635" y1="1610.004" x2="103.200" y2="1610.004"/>
      <line x1="116.635" y1="1611.004" x2="103.200" y2="1611.004"/>
      <line x1="116.635" y1="1612.004" x2="103.200" y2="1612.004"/>
      <line x1="116.635" y1="1613.004" x2="103.200" y2="1613.004"/>
      <line x1="116.635" y1="1614.004" x2="103.200" y2="1614.004"/>
      <line x1="116.635" y1="1615.004" x2="103.200" y2="1615.004"/>
      <line x1="116.635" y1="1616.004" x2="103.200" y2="1616.004"/>
      <line x1="116.635" y1="1617.004" x2="103.200" y2="1617.004"/>
      <line x1="116.635" y1="1618.004" x2="103.200" y2="1618.004"/>
      <line x1="116.635" y1="1619.004" x2="103.200" y2="1619.004"/>
      <line x1="116.635" y1="1620.004" x2="103.200" y2="1620.004"/>
      <line x1="116.635" y1="1621.004" x2="103.200" y2="1621.004"/>
      <line x1="116.635" y1="1622.004" x2="103.200" y2="1622.004"/>
      <line x1="116.635" y1="1623.004" x2="103.200" y2="1623.004"/>
      <line x1="116.635" y1="1624.004" x2="103.200" y2="1624.004"/>
      <line x1="116.635" y1="1625.004" x2="103.200" y2="1625.004"/>
      <line x1="116.635" y1="1626.004" x2="103.200" y2="1626.004"/>
      <line x1="116.635" y1="1627.004" x2="103.200" y2="1627.004"/>
      <line x1="116.635" y1="1628.004" x2="103.200" y2="1628.004"/>
      <line x1="116.635" y1="1629.004" x2="103.200" y2="1629.004"/>
      <line x1="53.000" y1="1530.004" x2="3.000" y2="1530.004"/>
      <line x1="53.000" y1="1531.004" x2="3.000" y2="1531.004"/>
      <line x1="53.000" y1="1532.004" x2="3.000" y2="1532.004"/>
      <line x1="53.000" y1="1533.004" x2="3.000" y2="1533.004"/>
      <line x1="53.000" y1="1534.004" x2="3.000" y2="1534.004"/>
      <line x1="53.000" y1="1535.004" x2="3.000" y2="1535.004"/>
      <line x1="53.000" y1="1536.004" x2="3.000" y2="1536.004"/>
      <line x1="53.000" y1="1537.004" x2="3.000" y2="1537.004"/>
      <line x1="53.000" y1="1538.004" x2="3.000" y2="1538.004"/>
      <line x1="53.000" y1="1539.004" x2="3.000" y2="1539.004"/>
      <line x1="53.000" y1="1540.004" x2="3.000" y2="1540.004"/>
      <line x1="53.000" y1="1541.004" x2="3.000" y2="1541.004"/>
      <line x1="53.000" y1="1542.004" x2="3.000" y2="1542.004"/>
      <line x1="53.000" y1="1543.004" x2="3.000" y2="1543.004"/>
      <line x1="53.000" y1="1544.004" x2="3.000" y2="1544.004"/>
      <line x1="53.000" y1="1545.004" x2="3.000" y2="1545.004"/>
      <line x1="53.000" y1="1546.004" x2="3.000" y2="1546.004"/>
      <line x1="53.000" y1="1547.004" x2="3.000" y2="1547.004"/>
      <line x1="53.000" y1="1548.004" x2="3.000" y2="1548.004"/>
      <line x1="53.000" y1="1549.004" x2="3.000" y2="1549.004"/>
      <line x1="53.000" y1="1550.004" x2="3.000" y2="1550.004"/>
      <line x1="53.000" y1="1551.004" x2="3.000" y2="1551.004"/>
      <line x1="53.000" y1="1552.004" x2="3.000" y2="1552.004"/>
      <line x1="53.000" y1="1553.004" x2="3.000" y2="1553.004"/>
      <line x1="53.000" y1="1554.004" x2="3.000" y2="1554.004"/>
      <line x1="53.000" y1="1555.004" x2="3.000" y2="1555.004"/>
      <line x1="53.000" y1="1556.004" x2="3.000" y2="1556.004"/>
      <line x1="53.000" y1="1557.004" x2="3.000" y2="1557.004"/>
      <line x1="53.000" y1="1558.004" x2="3.000" y2="1558.004"/>
      <line x1="53.000" y1="1559.004" x2="3.000" y2="1559.004"/>
      <line x1="53.000" y1="1560.004" x2="3.000" y2="1560.004"/>
      <line x1="53.000" y1="1561.004" x2="3.000" y2="1561.004"/>
      <line x1="53.000" y1="1562.004" x2="3.000" y2="1562.004"/>
      <line x1="53.000" y1="1563.004" x2="3.000" y2="1563.004"/>
      <line x1="53.000" y1="1564.004" x2="3.000" y2="1564.004"/>
      <line x1="53.000" y1="1565.004" x2="3.000" y2="1565.004"/>
      <line x1="53.000" y1="1566.004" x2="3.000" y2="1566.004"/>
      <line x1="53.000" y1="1567.004" x2="3.000" y2="1567.004"/>
      <line x1="53.000" y1="1568.004" x2="3.000" y2="1568.004"/>
      <line x1="53.000" y1="1569.004" x2="3.000" y2="1569.004"/>
      <line x1="53.000" y1="1570.004" x2="3.000" y2="1570.004"/>
      <line x1="53.000" y1="1571.004" x2="3.000" y2="1571.004"/>
      <line x1="53.000" y1="1572.004" x2="3.000" y2="1572.004"/>
      <line x1="53.000" y1="1573.004" x2="3.000" y2="1573.004"/>
      <line x1="53.000" y1="1574.004" x2="3.000" y2="1574.004"/>
      <line x1="53.000" y1="1575.004" x2="3.000" y2="1575.004"/>
      <line x1="53.000" y1="1576.004" x2="3.000" y2="1576.004"/>
      <line x1="53.000" y1="1577.004" x2="3.000" y2="1577.004"/>
      <line x1="53.000" y1="1578.004" x2="3.000" y2="1578.004"/>
      <line x1="53.000" y1="1579.004" x2="3.000" y2="1579.004"/>
      <line x1="103.100" y1="1530.004" x2="53.100" y2="1530.004"/>
      <line x1="103.100" y1="1531.004" x2="53.100" y2="1531.004"/>
      <line x1="103.100" y1="1532.004" x2="53.100" y2="1532.004"/>
      <line x1="103.100" y1="1533.004" x2="53.100" y2="1533.004"/>
      <line x1="103.100" y1="1534.004" x2="53.100" y2="1534.004"/>
      <line x1="103.100" y1="1535.004" x2="53.100" y2="1535.004"/>
      <line x1="103.100" y1="1536.004" x2="53.100" y2="1536.004"/>
      <line x1="103.100" y1="1537.004" x2="53.100" y2="1537.004"/>
      <line x1="103.100" y1="1538.004" x2="53.100" y2="1538.004"/>
      <line x1="103.100" y1="1539.004" x2="53.100" y2="1539.004"/>
      <line x1="103.100" y1="1540.004" x2="53.100" y2="1540.004"/>
      <line x1="103.100" y1="1541.004" x2="53.100" y2="1541.004"/>
      <line x1="103.100" y1="1542.004" x2="53.100" y2="1542.004"/>
      <line x1="103.100" y1="1543.004" x2="53.100" y2="1543.004"/>
      <line x1="103.100" y1="1544.004" x2="53.100" y2="1544.004"/>
      <line x1="103.100" y1="1545.004" x2="53.100" y2="1545.004"/>
      <line x1="103.100" y1="1546.004" x2="53.100" y2="1546.004"/>
      <line x1="103.100" y1="1547.004" x2="53.100" y2="1547.004"/>
      <line x1="103.100" y1="1548.004" x2="53.100" y2="1548.004"/>
      <line x1="103.100" y1="1549.004" x2="53.100" y2="1549.004"/>
      <line x1="103.100" y1="1550.004" x2="53.100" y2="1550.004"/>
      <line x1="103.100" y1="1551.004" x2="53.100" y2="1551.004"/>
      <line x1="103.100" y1="1552.004" x2="53.100" y2="1552.004"/>
      <line x1="103.100" y1="1553.004" x2="53.100" y2="1553.004"/>
      <line x1="103.100" y1="1554.004" x2="53.100" y2="1554.004"/>
      <line x1="103.100" y1="1555.004" x2="53.100" y2="1555.004"/>
      <line x1="103.100" y1="1556.004" x2="53.100" y2="1556.004"/>
      <line x1="103.100" y1="1557.004" x2="53.100" y2="1557.004"/>
      <line x1="103.100" y1="1558.004" x2="53.100" y2="1558.004"/>
      <line x1="103.100" y1="1559.004" x2="53.100" y2="1559.004"/>
      <line x1="103.100" y1="1560.004" x2="53.100" y2="1560.004"/>
      <line x1="103.100" y1="1561.004" x2="53.100" y2="1561.004"/>
      <line x1="103.100" y1="1562.004" x2="53.100" y2="1562.004"/>
      <line x1="103.100" y1="1563.004" x2="53.100" y2="1563.004"/>
      <line x1="103.100" y1="1564.004" x2="53.100" y2="1564.004"/>
      <line x1="103.100" y1="1565.004" x2="53.100" y2="1565.004"/>
      <line x1="103.100" y1="1566.004" x2="53.100" y2="1566.004"/>
      <line x1="103.100" y1="1567.004" x2="53.100" y2="1567.004"/>
      <line x1="103.100" y1="1568.004" x2="53.100" y2="1568.004"/>
      <line x1="103.100" y1="1569.004" x2="53.100" y2="1569.004"/>
      <line x1="103.100" y1="1570.004" x2="53.100" y2="1570.004"/>
      <line x1="103.100" y1="1571.004" x2="53.100" y2="1571.004"/>
      <line x1="103.100" y1="1572.004" x2="53.100" y2="1572.004"/>
      <line x1="103.100" y1="1573.004" x2="53.100" y2="1573.004"/>
      <line x1="103.100" y1="1574.004" x2="53.100" y2="1574.004"/>
      <line x1="103.100" y1="1575.004" x2="53.100" y2="1575.004"/>
      <line x1="103.100" y1="1576.004" x2="53.100" y2="1576.004"/>
      <line x1="103.100" y1="1577.004" x2="53.100" y2="1577.004"/>
      <line x1="103.100" y1="1578.004" x2="53.100" y2="1578.004"/>
      <line x1="103.100" y1="1579.004" x2="53.100" y2="1579.004"/>
      <line x1="116.635" y1="1530.004" x2="103.200" y2="1530.004"/>
      <line x1="116.635" y1="1531.004" x2="103.200" y2="1531.004"/>
      <line x1="116.635" y1="1532.004" x2="103.200" y2="1532.004"/>
      <line x1="116.635" y1="1533.004" x2="103.200" y2="1533.004"/>
      <line x1="116.635" y1="1534.004" x2="103.200" y2="1534.004"/>
      <line x1="116.635" y1="1535.004" x2="103.200" y2="1535.004"/>
      <line x1="116.635" y1="1536.004" x2="103.200" y2="1536.004"/>
      <line x1="116.635" y1="1537.004" x2="103.200" y2="1537.004"/>
      <line x1="116.635" y1="1538.004" x2="103.200" y2="1538.004"/>
      <line x1="116.635" y1="1539.004" x2="103.200" y2="1539.004"/>
      <line x1="116.635" y1="1540.004" x2="103.200" y2="1540.004"/>
      <line x1="116.635" y1="1541.004" x2="103.200" y2="1541.004"/>
      <line x1="116.635" y1="1542.004" x2="103.200" y2="1542.004"/>
      <line x1="116.635" y1="1543.004" x2="103.200" y2="1543.004"/>
      <line x1="116.635" y1="1544.004" x2="103.200" y2="1544.004"/>
      <line x1="116.635" y1="1545.004" x2="103.200" y2="1545.004"/>
      <line x1="116.635" y1="1546.004" x2="103.200" y2="1546.004"/>
      <line x1="116.635" y1="1547.004" x2="103.200" y2="1547.004"/>
      <line x1="116.635" y1="1548.004" x2="103.200" y2="1548.004"/>
      <line x1="116.635" y1="1549.004" x2="103.200" y2="1549.004"/>
      <line x1="116.635" y1="1550.004" x2="103.200" y2="1550.004"/>
      <line x1="116.635" y1="1551.004" x2="103.200" y2="1551.004"/>
      <line x1="116.635" y1="1552.004" x2="103.200" y2="1552.004"/>
      <line x1="116.635" y1="1553.004" x2="103.200" y2="1553.004"/>
      <line x1="116.635" y1="1554.004" x2="103.200" y2="1554.004"/>
      <line x1="116.635" y1="1555.004" x2="103.200" y2="1555.004"/>
      <line x1="116.635" y1="1556.004" x2="103.200" y2="1556.004"/>
      <line x1="116.635" y1="1557.004" x2="103.200" y2="1557.004"/>
      <line x1="116.635" y1="1558.004" x2="103.200" y2="1558.004"/>
      <line x1="116.635" y1="1559.004" x2="103.200" y2="1559.004"/>
      <line x1="116.635" y1="1560.004" x2="103.200" y2="1560.004"/>
      <line x1="116.635" y1="1561.004" x2="103.200" y2="1561.004"/>
      <line x1="116.635" y1="1562.004" x2="103.200" y2="1562.004"/>
      <line x1="116.635" y1="1563.004" x2="103.200" y2="1563.004"/>
      <line x1="116.635" y1="1564.004" x2="103.200" y2="1564.004"/>
      <line x1="116.635" y1="1565.004" x2="103.200" y2="1565.004"/>
      <line x1="116.635" y1="1566.004" x2="103.200" y2="1566.004"/>
      <line x1="116.635" y1="1567.004" x2="103.200" y2="1567.004"/>
      <line x1="116.635" y1="1568.004" x2="103.200" y2="1568.004"/>
      <line x1="116.635" y1="1569.004" x2="103.200" y2="1569.004"/>
      <line x1="116.635" y1="1570.004" x2="103.200" y2="1570.004"/>
      <line x1="116.635" y1="1571.004" x2="103.200" y2="1571.004"/>
      <line x1="116.635" y1="1572.004" x2="103.200" y2="1572.004"/>
      <line x1="116.635" y1="1573.004" x2="103.200" y2="1573.004"/>
      <line x1="116.635" y1="1574.004" x2="103.200" y2="1574.004"/>
      <line x1="116.635" y1="1575.004" x2="103.200" y2="1575.004"/>
      <line x1="116.635" y1="1576.004" x2="103.200" y2="1576.004"/>
      <line x1="116.635" y1="1577.004" x2="103.200" y2="1577.004"/>
      <line x1="116.635" y1="1578.004" x2="103.200" y2="1578.004"/>
      <line x1="116.635" y1="1579.004" x2="103.200" y2="1579.004"/>
      <line x1="53.000" y1="1526.004" x2="3.000" y2="1526.004"/>
      <line x1="53.000" y1="1527.004" x2="3.000" y2="1527.004"/>
      <line x1="53.000" y1="1528.004" x2="3.000" y2="1528.004"/>
      <line x1="103.100" y1="1526.004" x2="53.100" y2="1526.004"/>
      <line x1="103.100" y1="1527.004" x2="53.100" y2="1527.004"/>
      <line x1="103.100" y1="1528.004" x2="53.100" y2="1528.004"/>
      <line x1="116.635" y1="1526.004" x2="103.200" y2="1526.004"/>
      <line x1="116.635" y1="1527.004" x2="103.200" y2="1527.004"/>
      <line x1="116.635" y1="1528.004" x2="103.200" y2="1528.004"/>
    </g>
    <g stroke="#1976D2" stroke-width="0.4">
      <polyline points="481.722,1682.729 600.500,1682.729 600.500,1521.729 481.722,1521.729" fill="none"/>
      <polyline points="481.722,1521.729 479.866,1521.729 479.866,1682.729 481.722,1682.729" fill="none"/>
      <polyline points="481.722,1681.730 599.500,1681.730 599.500,1522.729 481.722,1522.729" fill="none"/>
      <polyline points="481.722,1522.729 480.866,1522.729 480.866,1681.730 481.722,1681.730" fill="none"/>
      <polyline points="598.500,1523.729 481.866,1523.729 481.866,1680.730 598.500,1680.730 598.500,1523.729" fill="none"/>
      <polyline points="597.500,1524.729 482.866,1524.729 482.866,1679.729 597.500,1679.729 597.500,1524.729" fill="none"/>
      <polyline points="118.278,1521.729 -0.500,1521.729 -0.500,1682.729 118.278,1682.729" fill="none"/>
      <polyline points="118.278,1682.729 120.134,1682.729 120.134,1521.729 118.278,1521.729" fill="none"/>
      <polyline points="118.278,1522.729 0.500,1522.729 0.500,1681.730 118.278,1681.730" fill="none"/>
      <polyline points="118.278,1681.730 119.134,1681.730 119.134,1522.729 118.278,1522.729" fill="none"/>
      <polyline points="118.134,1523.729 1.500,1523.729 1.500,1680.730 118.134,1680.730 118.134,1523.729" fill="none"/>
      <polyline points="117.134,1524.729 2.500,1524.729 2.500,1679.729 117.134,1679.729 117.134,1524.729" fill="none"/>
    </g>
    <g stroke="#C62828" stroke-width="0.4" fill="none">
      <polygon points="293.949,1533.797 295.319,1532.882 296.234,1531.512 296.556,1529.896 296.234,1528.280 295.319,1526.911 293.949,1525.995 292.333,1525.674 290.718,1525.995 289.348,1526.911 288.433,1528.280 288.111,1529.896 288.433,1531.512 289.348,1532.882 290.718,1533.797 292.333,1534.118"/>
      <polygon points="313.913,1533.709 315.252,1532.815 316.147,1531.476 316.461,1529.896 316.147,1528.317 315.252,1526.978 313.913,1526.083 312.333,1525.769 310.754,1526.083 309.415,1526.978 308.520,1528.317 308.206,1529.896 308.520,1531.476 309.415,1532.815 310.754,1533.709 312.333,1534.024"/>
      <polygon points="273.548,1533.635 274.964,1532.817 275.925,1531.495 276.264,1529.896 275.925,1528.297 274.964,1526.975 273.548,1526.158 271.922,1525.987 270.368,1526.492 269.153,1527.586 268.488,1529.079 268.488,1530.713 269.153,1532.207 270.368,1533.301 271.922,1533.806"/>
      <polygon points="333.517,1533.538 334.896,1532.742 335.832,1531.454 336.163,1529.896 335.832,1528.339 334.896,1527.050 333.517,1526.254 331.933,1526.088 330.419,1526.580 329.235,1527.645 328.588,1529.100 328.588,1530.692 329.235,1532.147 330.419,1533.213 331.933,1533.705"/>
      <polygon points="353.452,1533.338 354.755,1532.586 355.639,1531.368 355.952,1529.896 355.639,1528.424 354.755,1527.207 353.452,1526.454 351.955,1526.297 350.524,1526.762 349.405,1527.769 348.793,1529.144 348.793,1530.649 349.405,1532.023 350.524,1533.030 351.955,1533.495"/>
      <polygon points="253.452,1533.338 254.755,1532.586 255.639,1531.368 255.952,1529.896 255.639,1528.424 254.755,1527.207 253.452,1526.454 251.955,1526.297 250.524,1526.762 249.405,1527.769 248.793,1529.144 248.793,1530.649 249.405,1532.023 250.524,1533.030 251.955,1533.495"/>
      <polygon points="234.452,1532.553 235.395,1531.371 235.732,1529.896 235.395,1528.422 234.452,1527.239 233.090,1526.583 231.577,1526.583 230.214,1527.239 229.272,1528.422 228.935,1529.896 229.272,1531.371 230.214,1532.553 231.577,1533.209 233.090,1533.209"/>
      <polygon points="374.381,1532.464 375.292,1531.321 375.617,1529.896 375.292,1528.471 374.381,1527.329 373.064,1526.695 371.603,1526.695 370.286,1527.329 369.375,1528.471 369.049,1529.896 369.375,1531.321 370.286,1532.464 371.603,1533.098 373.064,1533.098"/>
      <polygon points="214.233,1532.278 215.078,1531.218 215.380,1529.896 215.078,1528.574 214.233,1527.514 213.011,1526.926 211.655,1526.926 210.434,1527.514 209.589,1528.574 209.287,1529.896 209.589,1531.218 210.434,1532.278 211.655,1532.866 213.011,1532.866"/>
      <polygon points="393.994,1532.302 394.922,1531.255 395.256,1529.896 394.922,1528.538 393.994,1527.491 392.686,1526.994 391.297,1527.163 390.145,1527.958 389.495,1529.197 389.495,1530.596 390.145,1531.835 391.297,1532.629 392.686,1532.798"/>
      <polygon points="193.848,1532.091 194.695,1531.135 195.000,1529.896 194.695,1528.657 193.848,1527.702 192.655,1527.249 191.388,1527.403 190.337,1528.128 189.744,1529.258 189.744,1530.534 190.337,1531.665 191.388,1532.390 192.655,1532.543"/>
      <polygon points="413.848,1532.091 414.695,1531.135 415.000,1529.896 414.695,1528.657 413.848,1527.702 412.655,1527.249 411.388,1527.403 410.337,1528.128 409.744,1529.258 409.744,1530.534 410.337,1531.665 411.388,1532.390 412.655,1532.543"/>
      <polygon points="173.532,1531.972 174.409,1531.094 174.730,1529.896 174.409,1528.698 173.532,1527.821 172.333,1527.500 171.135,1527.821 170.258,1528.698 169.937,1529.896 170.258,1531.094 171.135,1531.972 172.333,1532.293"/>
      <polygon points="433.461,1531.850 434.287,1531.024 434.589,1529.896 434.287,1528.768 433.461,1527.943 432.333,1527.640 431.205,1527.943 430.380,1528.768 430.078,1529.896 430.380,1531.024 431.205,1531.850 432.333,1532.152"/>
      <polygon points="153.333,1531.628 154.065,1530.896 154.333,1529.896 154.065,1528.896 153.333,1528.164 152.333,1527.896 151.333,1528.164 150.601,1528.896 150.333,1529.896 150.601,1530.896 151.333,1531.628 152.333,1531.896"/>
      <polygon points="453.333,1531.628 454.065,1530.896 454.333,1529.896 454.065,1528.896 453.333,1528.164 452.333,1527.896 451.333,1528.164 450.601,1528.896 450.333,1529.896 450.601,1530.896 451.333,1531.628 452.333,1531.896"/>
      <polygon points="293.949,1553.797 295.319,1552.882 296.234,1551.512 296.556,1549.896 296.234,1548.280 295.319,1546.911 293.949,1545.995 292.333,1545.674 290.718,1545.995 289.348,1546.911 288.433,1548.280 288.111,1549.896 288.433,1551.512 289.348,1552.882 290.718,1553.797 292.333,1554.118"/>
      <polygon points="313.913,1553.709 315.252,1552.815 316.147,1551.476 316.461,1549.896 316.147,1548.317 315.252,1546.978 313.913,1546.083 312.333,1545.769 310.754,1546.083 309.415,1546.978 308.520,1548.317 308.206,1549.896 308.520,1551.476 309.415,1552.815 310.754,1553.709 312.333,1554.024"/>
      <polygon points="273.548,1553.635 274.964,1552.817 275.925,1551.495 276.264,1549.896 275.925,1548.297 274.964,1546.975 273.548,1546.158 271.922,1545.987 270.368,1546.492 269.153,1547.586 268.488,1549.079 268.488,1550.713 269.153,1552.207 270.368,1553.301 271.922,1553.806"/>
      <polygon points="333.517,1553.538 334.896,1552.742 335.832,1551.454 336.163,1549.896 335.832,1548.339 334.896,1547.050 333.517,1546.254 331.933,1546.088 330.419,1546.580 329.235,1547.645 328.588,1549.100 328.588,1550.692 329.235,1552.147 330.419,1553.213 331.933,1553.705"/>
      <polygon points="253.452,1553.338 254.755,1552.586 255.639,1551.368 255.952,1549.896 255.639,1548.424 254.755,1547.207 253.452,1546.454 251.955,1546.297 250.524,1546.762 249.405,1547.769 248.793,1549.144 248.793,1550.649 249.405,1552.023 250.524,1553.030 251.955,1553.495"/>
      <polygon points="353.452,1553.338 354.755,1552.586 355.639,1551.368 355.952,1549.896 355.639,1548.424 354.755,1547.207 353.452,1546.454 351.955,1546.297 350.524,1546.762 349.405,1547.769 348.793,1549.144 348.793,1550.649 349.405,1552.023 350.524,1553.030 351.955,1553.495"/>
      <polygon points="234.452,1552.553 235.395,1551.371 235.732,1549.896 235.395,1548.422 234.452,1547.239 233.090,1546.583 231.577,1546.583 230.214,1547.239 229.272,1548.422 228.935,1549.896 229.272,1551.371 230.214,1552.553 231.577,1553.209 233.090,1553.209"/>
      <polygon points="374.381,1552.464 375.292,1551.321 375.617,1549.896 375.292,1548.471 374.381,1547.329 373.064,1546.695 371.603,1546.695 370.286,1547.329 369.375,1548.471 369.049,1549.896 369.375,1551.321 370.286,1552.464 371.603,1553.098 373.064,1553.098"/>
      <polygon points="214.233,1552.278 215.078,1551.218 215.380,1549.896 215.078,1548.574 214.233,1547.514 213.011,1546.926 211.655,1546.926 210.434,1547.514 209.589,1548.574 209.287,1549.896 209.589,1551.218 210.434,1552.278 211.655,1552.866 213.011,1552.866"/>
      <polygon points="393.994,1552.302 394.922,1551.255 395.256,1549.896 394.922,1548.538 393.994,1547.491 392.686,1546.994 391.297,1547.163 390.145,1547.958 389.495,1549.197 389.495,1550.596 390.145,1551.835 391.297,1552.629 392.686,1552.798"/>
      <polygon points="193.848,1552.091 194.695,1551.135 195.000,1549.896 194.695,1548.657 193.848,1547.702 192.655,1547.249 191.388,1547.403 190.337,1548.128 189.744,1549.258 189.744,1550.534 190.337,1551.665 191.388,1552.390 192.655,1552.543"/>
      <polygon points="413.848,1552.091 414.695,1551.135 415.000,1549.896 414.695,1548.657 413.848,1547.702 412.655,1547.249 411.388,1547.403 410.337,1548.128 409.744,1549.258 409.744,1550.534 410.337,1551.665 411.388,1552.390 412.655,1552.543"/>
      <polygon points="173.532,1551.972 174.409,1551.094 174.730,1549.896 174.409,1548.698 173.532,1547.821 172.333,1547.500 171.135,1547.821 170.258,1548.698 169.937,1549.896 170.258,1551.094 171.135,1551.972 172.333,1552.293"/>
      <polygon points="433.461,1551.850 434.287,1551.024 434.589,1549.896 434.287,1548.768 433.461,1547.943 432.333,1547.640 431.205,1547.943 430.380,1548.768 430.078,1549.896 430.380,1551.024 431.205,1551.850 432.333,1552.152"/>
      <polygon points="153.333,1551.628 154.065,1550.896 154.333,1549.896 154.065,1548.896 153.333,1548.164 152.333,1547.896 151.333,1548.164 150.601,1548.896 150.333,1549.896 150.601,1550.896 151.333,1551.628 152.333,1551.896"/>
      <polygon points="453.333,1551.628 454.065,1550.896 454.333,1549.896 454.065,1548.896 453.333,1548.164 452.333,1547.896 451.333,1548.164 450.601,1548.896 450.333,1549.896 450.601,1550.896 451.333,1551.628 452.333,1551.896"/>
      <polygon points="293.949,1573.797 295.319,1572.882 296.234,1571.512 296.556,1569.896 296.234,1568.280 295.319,1566.911 293.949,1565.995 292.333,1565.674 290.718,1565.995 289.348,1566.911 288.433,1568.280 288.111,1569.896 288.433,1571.512 289.348,1572.882 290.718,1573.797 292.333,1574.118"/>
      <polygon points="313.913,1573.709 315.252,1572.815 316.147,1571.476 316.461,1569.896 316.147,1568.317 315.252,1566.978 313.913,1566.083 312.333,1565.769 310.754,1566.083 309.415,1566.978 308.520,1568.317 308.206,1569.896 308.520,1571.476 309.415,1572.815 310.754,1573.709 312.333,1574.024"/>
      <polygon points="273.548,1573.635 274.964,1572.817 275.925,1571.495 276.264,1569.896 275.925,1568.297 274.964,1566.975 273.548,1566.158 271.922,1565.987 270.368,1566.492 269.153,1567.586 268.488,1569.079 268.488,1570.713 269.153,1572.207 270.368,1573.301 271.922,1573.806"/>
      <polygon points="333.517,1573.538 334.896,1572.742 335.832,1571.454 336.163,1569.896 335.832,1568.339 334.896,1567.050 333.517,1566.254 331.933,1566.088 330.419,1566.580 329.235,1567.645 328.588,1569.100 328.588,1570.692 329.235,1572.147 330.419,1573.213 331.933,1573.705"/>
      <polygon points="353.452,1573.338 354.755,1572.586 355.639,1571.368 355.952,1569.896 355.639,1568.424 354.755,1567.207 353.452,1566.454 351.955,1566.297 350.524,1566.762 349.405,1567.769 348.793,1569.144 348.793,1570.649 349.405,1572.023 350.524,1573.030 351.955,1573.495"/>
      <polygon points="253.452,1573.338 254.755,1572.586 255.639,1571.368 255.952,1569.896 255.639,1568.424 254.755,1567.207 253.452,1566.454 251.955,1566.297 250.524,1566.762 249.405,1567.769 248.793,1569.144 248.793,1570.649 249.405,1572.023 250.524,1573.030 251.955,1573.495"/>
      <polygon points="234.452,1572.553 235.395,1571.371 235.732,1569.896 235.395,1568.422 234.452,1567.239 233.090,1566.583 231.577,1566.583 230.214,1567.239 229.272,1568.422 228.935,1569.896 229.272,1571.371 230.214,1572.553 231.577,1573.209 233.090,1573.209"/>
      <polygon points="374.381,1572.464 375.292,1571.321 375.617,1569.896 375.292,1568.471 374.381,1567.329 373.064,1566.695 371.603,1566.695 370.286,1567.329 369.375,1568.471 369.049,1569.896 369.375,1571.321 370.286,1572.464 371.603,1573.098 373.064,1573.098"/>
      <polygon points="214.233,1572.278 215.078,1571.218 215.380,1569.896 215.078,1568.574 214.233,1567.514 213.011,1566.926 211.655,1566.926 210.434,1567.514 209.589,1568.574 209.287,1569.896 209.589,1571.218 210.434,1572.278 211.655,1572.866 213.011,1572.866"/>
      <polygon points="393.994,1572.302 394.922,1571.255 395.256,1569.896 394.922,1568.538 393.994,1567.491 392.686,1566.994 391.297,1567.163 390.145,1567.958 389.495,1569.197 389.495,1570.596 390.145,1571.835 391.297,1572.629 392.686,1572.798"/>
      <polygon points="413.848,1572.091 414.695,1571.135 415.000,1569.896 414.695,1568.657 413.848,1567.702 412.655,1567.249 411.388,1567.403 410.337,1568.128 409.744,1569.258 409.744,1570.534 410.337,1571.665 411.388,1572.390 412.655,1572.543"/>
      <polygon points="193.848,1572.091 194.695,1571.135 195.000,1569.896 194.695,1568.657 193.848,1567.702 192.655,1567.249 191.388,1567.403 190.337,1568.128 189.744,1569.258 189.744,1570.534 190.337,1571.665 191.388,1572.390 192.655,1572.543"/>
      <polygon points="173.532,1571.972 174.409,1571.094 174.730,1569.896 174.409,1568.698 173.532,1567.821 172.333,1567.500 171.135,1567.821 170.258,1568.698 169.937,1569.896 170.258,1571.094 171.135,1571.972 172.333,1572.293"/>
      <polygon points="433.461,1571.850 434.287,1571.024 434.589,1569.896 434.287,1568.768 433.461,1567.943 432.333,1567.640 431.205,1567.943 430.380,1568.768 430.078,1569.896 430.380,1571.024 431.205,1571.850 432.333,1572.152"/>
      <polygon points="153.333,1571.628 154.065,1570.896 154.333,1569.896 154.065,1568.896 153.333,1568.164 152.333,1567.896 151.333,1568.164 150.601,1568.896 150.333,1569.896 150.601,1570.896 151.333,1571.628 152.333,1571.896"/>
      <polygon points="453.333,1571.628 454.065,1570.896 454.333,1569.896 454.065,1568.896 453.333,1568.164 452.333,1567.896 451.333,1568.164 450.601,1568.896 450.333,1569.896 450.601,1570.896 451.333,1571.628 452.333,1571.896"/>
      <polygon points="293.949,1593.797 295.319,1592.882 296.234,1591.512 296.556,1589.896 296.234,1588.280 295.319,1586.911 293.949,1585.995 292.333,1585.674 290.718,1585.995 289.348,1586.911 288.433,1588.280 288.111,1589.896 288.433,1591.512 289.348,1592.882 290.718,1593.797 292.333,1594.118"/>
      <polygon points="313.913,1593.709 315.252,1592.815 316.147,1591.476 316.461,1589.896 316.147,1588.317 315.252,1586.978 313.913,1586.083 312.333,1585.769 310.754,1586.083 309.415,1586.978 308.520,1588.317 308.206,1589.896 308.520,1591.476 309.415,1592.815 310.754,1593.709 312.333,1594.024"/>
      <polygon points="273.548,1593.635 274.964,1592.817 275.925,1591.495 276.264,1589.896 275.925,1588.297 274.964,1586.975 273.548,1586.158 271.922,1585.987 270.368,1586.492 269.153,1587.586 268.488,1589.079 268.488,1590.713 269.153,1592.207 270.368,1593.301 271.922,1593.806"/>
      <polygon points="333.517,1593.538 334.896,1592.742 335.832,1591.454 336.163,1589.896 335.832,1588.339 334.896,1587.050 333.517,1586.254 331.933,1586.088 330.419,1586.580 329.235,1587.645 328.588,1589.100 328.588,1590.692 329.235,1592.147 330.419,1593.213 331.933,1593.705"/>
      <polygon points="353.452,1593.338 354.755,1592.586 355.639,1591.368 355.952,1589.896 355.639,1588.424 354.755,1587.207 353.452,1586.454 351.955,1586.297 350.524,1586.762 349.405,1587.769 348.793,1589.144 348.793,1590.649 349.405,1592.023 350.524,1593.030 351.955,1593.495"/>
      <polygon points="253.452,1593.338 254.755,1592.586 255.639,1591.368 255.952,1589.896 255.639,1588.424 254.755,1587.207 253.452,1586.454 251.955,1586.297 250.524,1586.762 249.405,1587.769 248.793,1589.144 248.793,1590.649 249.405,1592.023 250.524,1593.030 251.955,1593.495"/>
      <polygon points="234.452,1592.553 235.395,1591.371 235.732,1589.896 235.395,1588.422 234.452,1587.239 233.090,1586.583 231.577,1586.583 230.214,1587.239 229.272,1588.422 228.935,1589.896 229.272,1591.371 230.214,1592.553 231.577,1593.209 233.090,1593.209"/>
      <polygon points="374.381,1592.464 375.292,1591.321 375.617,1589.896 375.292,1588.471 374.381,1587.329 373.064,1586.695 371.603,1586.695 370.286,1587.329 369.375,1588.471 369.049,1589.896 369.375,1591.321 370.286,1592.464 371.603,1593.098 373.064,1593.098"/>
      <polygon points="214.233,1592.278 215.078,1591.218 215.380,1589.896 215.078,1588.574 214.233,1587.514 213.011,1586.926 211.655,1586.926 210.434,1587.514 209.589,1588.574 209.287,1589.896 209.589,1591.218 210.434,1592.278 211.655,1592.866 213.011,1592.866"/>
      <polygon points="393.994,1592.302 394.922,1591.255 395.256,1589.896 394.922,1588.538 393.994,1587.491 392.686,1586.994 391.297,1587.163 390.145,1587.958 389.495,1589.197 389.495,1590.596 390.145,1591.835 391.297,1592.629 392.686,1592.798"/>
      <polygon points="413.848,1592.091 414.695,1591.135 415.000,1589.896 414.695,1588.657 413.848,1587.702 412.655,1587.249 411.388,1587.403 410.337,1588.128 409.744,1589.258 409.744,1590.534 410.337,1591.665 411.388,1592.390 412.655,1592.543"/>
      <polygon points="193.848,1592.091 194.695,1591.135 195.000,1589.896 194.695,1588.657 193.848,1587.702 192.655,1587.249 191.388,1587.403 190.337,1588.128 189.744,1589.258 189.744,1590.534 190.337,1591.665 191.388,1592.390 192.655,1592.543"/>
      <polygon points="173.532,1591.972 174.409,1591.094 174.730,1589.896 174.409,1588.698 173.532,1587.821 172.333,1587.500 171.135,1587.821 170.258,1588.698 169.937,1589.896 170.258,1591.094 171.135,1591.972 172.333,1592.293"/>
      <polygon points="433.461,1591.850 434.287,1591.024 434.589,1589.896 434.287,1588.768 433.461,1587.943 432.333,1587.640 431.205,1587.943 430.380,1588.768 430.078,1589.896 430.380,1591.024 431.205,1591.850 432.333,1592.152"/>
      <polygon points="453.333,1591.628 454.065,1590.896 454.333,1589.896 454.065,1588.896 453.333,1588.164 452.333,1587.896 451.333,1588.164 450.601,1588.896 450.333,1589.896 450.601,1590.896 451.333,1591.628 452.333,1591.896"/>
      <polygon points="153.333,1591.628 154.065,1590.896 154.333,1589.896 154.065,1588.896 153.333,1588.164 152.333,1587.896 151.333,1588.164 150.601,1588.896 150.333,1589.896 150.601,1590.896 151.333,1591.628 152.333,1591.896"/>
      <polygon points="293.949,1613.797 295.319,1612.882 296.234,1611.512 296.556,1609.896 296.234,1608.280 295.319,1606.911 293.949,1605.995 292.333,1605.674 290.718,1605.995 289.348,1606.911 288.433,1608.280 288.111,1609.896 288.433,1611.512 289.348,1612.882 290.718,1613.797 292.333,1614.118"/>
      <polygon points="313.913,1613.709 315.252,1612.815 316.147,1611.476 316.461,1609.896 316.147,1608.317 315.252,1606.978 313.913,1606.083 312.333,1605.769 310.754,1606.083 309.415,1606.978 308.520,1608.317 308.206,1609.896 308.520,1611.476 309.415,1612.815 310.754,1613.709 312.333,1614.024"/>
      <polygon points="273.548,1613.635 274.964,1612.817 275.925,1611.495 276.264,1609.896 275.925,1608.297 274.964,1606.975 273.548,1606.158 271.922,1605.987 270.368,1606.492 269.153,1607.586 268.488,1609.079 268.488,1610.713 269.153,1612.207 270.368,1613.301 271.922,1613.806"/>
      <polygon points="333.517,1613.538 334.896,1612.742 335.832,1611.454 336.163,1609.896 335.832,1608.339 334.896,1607.050 333.517,1606.254 331.933,1606.088 330.419,1606.580 329.235,1607.645 328.588,1609.100 328.588,1610.692 329.235,1612.147 330.419,1613.213 331.933,1613.705"/>
      <polygon points="353.452,1613.338 354.755,1612.586 355.639,1611.368 355.952,1609.896 355.639,1608.424 354.755,1607.207 353.452,1606.454 351.955,1606.297 350.524,1606.762 349.405,1607.769 348.793,1609.144 348.793,1610.649 349.405,1612.023 350.524,1613.030 351.955,1613.495"/>
      <polygon points="253.452,1613.338 254.755,1612.586 255.639,1611.368 255.952,1609.896 255.639,1608.424 254.755,1607.207 253.452,1606.454 251.955,1606.297 250.524,1606.762 249.405,1607.769 248.793,1609.144 248.793,1610.649 249.405,1612.023 250.524,1613.030 251.955,1613.495"/>
      <polygon points="234.452,1612.553 235.395,1611.371 235.732,1609.896 235.395,1608.422 234.452,1607.239 233.090,1606.583 231.577,1606.583 230.214,1607.239 229.272,1608.422 228.935,1609.896 229.272,1611.371 230.214,1612.553 231.577,1613.209 233.090,1613.209"/>
      <polygon points="374.381,1612.464 375.292,1611.321 375.617,1609.896 375.292,1608.471 374.381,1607.329 373.064,1606.695 371.603,1606.695 370.286,1607.329 369.375,1608.471 369.049,1609.896 369.375,1611.321 370.286,1612.464 371.603,1613.098 373.064,1613.098"/>
      <polygon points="214.233,1612.278 215.078,1611.218 215.380,1609.896 215.078,1608.574 214.233,1607.514 213.011,1606.926 211.655,1606.926 210.434,1607.514 209.589,1608.574 209.287,1609.896 209.589,1611.218 210.434,1612.278 211.655,1612.866 213.011,1612.866"/>
      <polygon points="393.994,1612.302 394.922,1611.255 395.256,1609.896 394.922,1608.538 393.994,1607.491 392.686,1606.994 391.297,1607.163 390.145,1607.958 389.495,1609.197 389.495,1610.596 390.145,1611.835 391.297,1612.629 392.686,1612.798"/>
      <polygon points="413.848,1612.091 414.695,1611.135 415.000,1609.896 414.695,1608.657 413.848,1607.702 412.655,1607.249 411.388,1607.403 410.337,1608.128 409.744,1609.258 409.744,1610.534 410.337,1611.665 411.388,1612.390 412.655,1612.543"/>
      <polygon points="193.848,1612.091 194.695,1611.135 195.000,1609.896 194.695,1608.657 193.848,1607.702 192.655,1607.249 191.388,1607.403 190.337,1608.128 189.744,1609.258 189.744,1610.534 190.337,1611.665 191.388,1612.390 192.655,1612.543"/>
      <polygon points="173.532,1611.972 174.409,1611.094 174.730,1609.896 174.409,1608.698 173.532,1607.821 172.333,1607.500 171.135,1607.821 170.258,1608.698 169.937,1609.896 170.258,1611.094 171.135,1611.972 172.333,1612.293"/>
      <polygon points="433.461,1611.850 434.287,1611.024 434.589,1609.896 434.287,1608.768 433.461,1607.943 432.333,1607.640 431.205,1607.943 430.380,1608.768 430.078,1609.896 430.380,1611.024 431.205,1611.850 432.333,1612.152"/>
      <polygon points="453.333,1611.628 454.065,1610.896 454.333,1609.896 454.065,1608.896 453.333,1608.164 452.333,1607.896 451.333,1608.164 450.601,1608.896 450.333,1609.896 450.601,1610.896 451.333,1611.628 452.333,1611.896"/>
      <polygon points="153.333,1611.628 154.065,1610.896 154.333,1609.896 154.065,1608.896 153.333,1608.164 152.333,1607.896 151.333,1608.164 150.601,1608.896 150.333,1609.896 150.601,1610.896 151.333,1611.628 152.333,1611.896"/>
      <polygon points="293.949,1633.797 295.319,1632.882 296.234,1631.512 296.556,1629.896 296.234,1628.280 295.319,1626.911 293.949,1625.995 292.333,1625.674 290.718,1625.995 289.348,1626.911 288.433,1628.280 288.111,1629.896 288.433,1631.512 289.348,1632.882 290.718,1633.797 292.333,1634.118"/>
      <polygon points="313.913,1633.709 315.252,1632.815 316.147,1631.476 316.461,1629.896 316.147,1628.317 315.252,1626.978 313.913,1626.083 312.333,1625.769 310.754,1626.083 309.415,1626.978 308.520,1628.317 308.206,1629.896 308.520,1631.476 309.415,1632.815 310.754,1633.709 312.333,1634.024"/>
      <polygon points="273.548,1633.635 274.964,1632.817 275.925,1631.495 276.264,1629.896 275.925,1628.297 274.964,1626.975 273.548,1626.158 271.922,1625.987 270.368,1626.492 269.153,1627.586 268.488,1629.079 268.488,1630.713 269.153,1632.207 270.368,1633.301 271.922,1633.806"/>
      <polygon points="333.517,1633.538 334.896,1632.742 335.832,1631.454 336.163,1629.896 335.832,1628.339 334.896,1627.050 333.517,1626.254 331.933,1626.088 330.419,1626.580 329.235,1627.645 328.588,1629.100 328.588,1630.692 329.235,1632.147 330.419,1633.213 331.933,1633.705"/>
      <polygon points="253.452,1633.338 254.755,1632.586 255.639,1631.368 255.952,1629.896 255.639,1628.424 254.755,1627.207 253.452,1626.454 251.955,1626.297 250.524,1626.762 249.405,1627.769 248.793,1629.144 248.793,1630.649 249.405,1632.023 250.524,1633.030 251.955,1633.495"/>
      <polygon points="353.452,1633.338 354.755,1632.586 355.639,1631.368 355.952,1629.896 355.639,1628.424 354.755,1627.207 353.452,1626.454 351.955,1626.297 350.524,1626.762 349.405,1627.769 348.793,1629.144 348.793,1630.649 349.405,1632.023 350.524,1633.030 351.955,1633.495"/>
      <polygon points="234.452,1632.553 235.395,1631.371 235.732,1629.896 235.395,1628.422 234.452,1627.239 233.090,1626.583 231.577,1626.583 230.214,1627.239 229.272,1628.422 228.935,1629.896 229.272,1631.371 230.214,1632.553 231.577,1633.209 233.090,1633.209"/>
      <polygon points="374.381,1632.464 375.292,1631.321 375.617,1629.896 375.292,1628.471 374.381,1627.329 373.064,1626.695 371.603,1626.695 370.286,1627.329 369.375,1628.471 369.049,1629.896 369.375,1631.321 370.286,1632.464 371.603,1633.098 373.064,1633.098"/>
      <polygon points="214.233,1632.278 215.078,1631.218 215.380,1629.896 215.078,1628.574 214.233,1627.514 213.011,1626.926 211.655,1626.926 210.434,1627.514 209.589,1628.574 209.287,1629.896 209.589,1631.218 210.434,1632.278 211.655,1632.866 213.011,1632.866"/>
      <polygon points="393.994,1632.302 394.922,1631.255 395.256,1629.896 394.922,1628.538 393.994,1627.491 392.686,1626.994 391.297,1627.163 390.145,1627.958 389.495,1629.197 389.495,1630.596 390.145,1631.835 391.297,1632.629 392.686,1632.798"/>
      <polygon points="193.848,1632.091 194.695,1631.135 195.000,1629.896 194.695,1628.657 193.848,1627.702 192.655,1627.249 191.388,1627.403 190.337,1628.128 189.744,1629.258 189.744,1630.534 190.337,1631.665 191.388,1632.390 192.655,1632.543"/>
      <polygon points="413.848,1632.091 414.695,1631.135 415.000,1629.896 414.695,1628.657 413.848,1627.702 412.655,1627.249 411.388,1627.403 410.337,1628.128 409.744,1629.258 409.744,1630.534 410.337,1631.665 411.388,1632.390 412.655,1632.543"/>
      <polygon points="173.532,1631.972 174.409,1631.094 174.730,1629.896 174.409,1628.698 173.532,1627.821 172.333,1627.500 171.135,1627.821 170.258,1628.698 169.937,1629.896 170.258,1631.094 171.135,1631.972 172.333,1632.293"/>
      <polygon points="433.461,1631.850 434.287,1631.024 434.589,1629.896 434.287,1628.768 433.461,1627.943 432.333,1627.640 431.205,1627.943 430.380,1628.768 430.078,1629.896 430.380,1631.024 431.205,1631.850 432.333,1632.152"/>
      <polygon points="153.333,1631.628 154.065,1630.896 154.333,1629.896 154.065,1628.896 153.333,1628.164 152.333,1627.896 151.333,1628.164 150.601,1628.896 150.333,1629.896 150.601,1630.896 151.333,1631.628 152.333,1631.896"/>
      <polygon points="453.333,1631.628 454.065,1630.896 454.333,1629.896 454.065,1628.896 453.333,1628.164 452.333,1627.896 451.333,1628.164 450.601,1628.896 450.333,1629.896 450.601,1630.896 451.333,1631.628 452.333,1631.896"/>
      <polygon points="293.949,1653.797 295.319,1652.882 296.234,1651.512 296.556,1649.896 296.234,1648.280 295.319,1646.911 293.949,1645.995 292.333,1645.674 290.718,1645.995 289.348,1646.911 288.433,1648.280 288.111,1649.896 288.433,1651.512 289.348,1652.882 290.718,1653.797 292.333,1654.118"/>
      <polygon points="313.913,1653.709 315.252,1652.815 316.147,1651.476 316.461,1649.896 316.147,1648.317 315.252,1646.978 313.913,1646.083 312.333,1645.769 310.754,1646.083 309.415,1646.978 308.520,1648.317 308.206,1649.896 308.520,1651.476 309.415,1652.815 310.754,1653.709 312.333,1654.024"/>
      <polygon points="273.548,1653.635 274.964,1652.817 275.925,1651.495 276.264,1649.896 275.925,1648.297 274.964,1646.975 273.548,1646.158 271.922,1645.987 270.368,1646.492 269.153,1647.586 268.488,1649.079 268.488,1650.713 269.153,1652.207 270.368,1653.301 271.922,1653.806"/>
      <polygon points="333.517,1653.538 334.896,1652.742 335.832,1651.454 336.163,1649.896 335.832,1648.339 334.896,1647.050 333.517,1646.254 331.933,1646.088 330.419,1646.580 329.235,1647.645 328.588,1649.100 328.588,1650.692 329.235,1652.147 330.419,1653.213 331.933,1653.705"/>
      <polygon points="353.452,1653.338 354.755,1652.586 355.639,1651.368 355.952,1649.896 355.639,1648.424 354.755,1647.207 353.452,1646.454 351.955,1646.297 350.524,1646.762 349.405,1647.769 348.793,1649.144 348.793,1650.649 349.405,1652.023 350.524,1653.030 351.955,1653.495"/>
      <polygon points="253.452,1653.338 254.755,1652.586 255.639,1651.368 255.952,1649.896 255.639,1648.424 254.755,1647.207 253.452,1646.454 251.955,1646.297 250.524,1646.762 249.405,1647.769 248.793,1649.144 248.793,1650.649 249.405,1652.023 250.524,1653.030 251.955,1653.495"/>
      <polygon points="234.452,1652.553 235.395,1651.371 235.732,1649.896 235.395,1648.422 234.452,1647.239 233.090,1646.583 231.577,1646.583 230.214,1647.239 229.272,1648.422 228.935,1649.896 229.272,1651.371 230.214,1652.553 231.577,1653.209 233.090,1653.209"/>
      <polygon points="374.381,1652.464 375.292,1651.321 375.617,1649.896 375.292,1648.471 374.381,1647.329 373.064,1646.695 371.603,1646.695 370.286,1647.329 369.375,1648.471 369.049,1649.896 369.375,1651.321 370.286,1652.464 371.603,1653.098 373.064,1653.098"/>
      <polygon points="214.233,1652.278 215.078,1651.218 215.380,1649.896 215.078,1648.574 214.233,1647.514 213.011,1646.926 211.655,1646.926 210.434,1647.514 209.589,1648.574 209.287,1649.896 209.589,1651.218 210.434,1652.278 211.655,1652.866 213.011,1652.866"/>
      <polygon points="393.994,1652.302 394.922,1651.255 395.256,1649.896 394.922,1648.538 393.994,1647.491 392.686,1646.994 391.297,1647.163 390.145,1647.958 389.495,1649.197 389.495,1650.596 390.145,1651.835 391.297,1652.629 392.686,1652.798"/>
      <polygon points="413.848,1652.091 414.695,1651.135 415.000,1649.896 414.695,1648.657 413.848,1647.702 412.655,1647.249 411.388,1647.403 410.337,1648.128 409.744,1649.258 409.744,1650.534 410.337,1651.665 411.388,1652.390 412.655,1652.543"/>
      <polygon points="193.848,1652.091 194.695,1651.135 195.000,1649.896 194.695,1648.657 193.848,1647.702 192.655,1647.249 191.388,1647.403 190.337,1648.128 189.744,1649.258 189.744,1650.534 190.337,1651.665 191.388,1652.390 192.655,1652.543"/>
      <polygon points="173.532,1651.972 174.409,1651.094 174.730,1649.896 174.409,1648.698 173.532,1647.821 172.333,1647.500 171.135,1647.821 170.258,1648.698 169.937,1649.896 170.258,1651.094 171.135,1651.972 172.333,1652.293"/>
      <polygon points="433.461,1651.850 434.287,1651.024 434.589,1649.896 434.287,1648.768 433.461,1647.943 432.333,1647.640 431.205,1647.943 430.380,1648.768 430.078,1649.896 430.380,1651.024 431.205,1651.850 432.333,1652.152"/>
      <polygon points="153.333,1651.628 154.065,1650.896 154.333,1649.896 154.065,1648.896 153.333,1648.164 152.333,1647.896 151.333,1648.164 150.601,1648.896 150.333,1649.896 150.601,1650.896 151.333,1651.628 152.333,1651.896"/>
      <polygon points="453.333,1651.628 454.065,1650.896 454.333,1649.896 454.065,1648.896 453.333,1648.164 452.333,1647.896 451.333,1648.164 450.601,1648.896 450.333,1649.896 450.601,1650.896 451.333,1651.628 452.333,1651.896"/>
      <polygon points="293.949,1673.797 295.319,1672.882 296.234,1671.512 296.556,1669.896 296.234,1668.280 295.319,1666.911 293.949,1665.995 292.333,1665.674 290.718,1665.995 289.348,1666.911 288.433,1668.280 288.111,1669.896 288.433,1671.512 289.348,1672.882 290.718,1673.797 292.333,1674.118"/>
      <polygon points="313.913,1673.709 315.252,1672.815 316.147,1671.476 316.461,1669.896 316.147,1668.317 315.252,1666.978 313.913,1666.083 312.333,1665.769 310.754,1666.083 309.415,1666.978 308.520,1668.317 308.206,1669.896 308.520,1671.476 309.415,1672.815 310.754,1673.709 312.333,1674.024"/>
      <polygon points="273.548,1673.635 274.964,1672.817 275.925,1671.495 276.264,1669.896 275.925,1668.297 274.964,1666.975 273.548,1666.158 271.922,1665.987 270.368,1666.492 269.153,1667.586 268.488,1669.079 268.488,1670.713 269.153,1672.207 270.368,1673.301 271.922,1673.806"/>
      <polygon points="333.517,1673.538 334.896,1672.742 335.832,1671.454 336.163,1669.896 335.832,1668.339 334.896,1667.050 333.517,1666.254 331.933,1666.088 330.419,1666.580 329.235,1667.645 328.588,1669.100 328.588,1670.692 329.235,1672.147 330.419,1673.213 331.933,1673.705"/>
      <polygon points="353.452,1673.338 354.755,1672.586 355.639,1671.368 355.952,1669.896 355.639,1668.424 354.755,1667.207 353.452,1666.454 351.955,1666.297 350.524,1666.762 349.405,1667.769 348.793,1669.144 348.793,1670.649 349.405,1672.023 350.524,1673.030 351.955,1673.495"/>
      <polygon points="253.452,1673.338 254.755,1672.586 255.639,1671.368 255.952,1669.896 255.639,1668.424 254.755,1667.207 253.452,1666.454 251.955,1666.297 250.524,1666.762 249.405,1667.769 248.793,1669.144 248.793,1670.649 249.405,1672.023 250.524,1673.030 251.955,1673.495"/>
      <polygon points="234.452,1672.553 235.395,1671.371 235.732,1669.896 235.395,1668.422 234.452,1667.239 233.090,1666.583 231.577,1666.583 230.214,1667.239 229.272,1668.422 228.935,1669.896 229.272,1671.371 230.214,1672.553 231.577,1673.209 233.090,1673.209"/>
      <polygon points="374.381,1672.464 375.292,1671.321 375.617,1669.896 375.292,1668.471 374.381,1667.329 373.064,1666.695 371.603,1666.695 370.286,1667.329 369.375,1668.471 369.049,1669.896 369.375,1671.321 370.286,1672.464 371.603,1673.098 373.064,1673.098"/>
      <polygon points="214.233,1672.278 215.078,1671.218 215.380,1669.896 215.078,1668.574 214.233,1667.514 213.011,1666.926 211.655,1666.926 210.434,1667.514 209.589,1668.574 209.287,1669.896 209.589,1671.218 210.434,1672.278 211.655,1672.866 213.011,1672.866"/>
      <polygon points="393.994,1672.302 394.922,1671.255 395.256,1669.896 394.922,1668.538 393.994,1667.491 392.686,1666.994 391.297,1667.163 390.145,1667.958 389.495,1669.197 389.495,1670.596 390.145,1671.835 391.297,1672.629 392.686,1672.798"/>
      <polygon points="413.848,1672.091 414.695,1671.135 415.000,1669.896 414.695,1668.657 413.848,1667.702 412.655,1667.249 411.388,1667.403 410.337,1668.128 409.744,1669.258 409.744,1670.534 410.337,1671.665 411.388,1672.390 412.655,1672.543"/>
      <polygon points="193.848,1672.091 194.695,1671.135 195.000,1669.896 194.695,1668.657 193.848,1667.702 192.655,1667.249 191.388,1667.403 190.337,1668.128 189.744,1669.258 189.744,1670.534 190.337,1671.665 191.388,1672.390 192.655,1672.543"/>
      <polygon points="173.532,1671.972 174.409,1671.094 174.730,1669.896 174.409,1668.698 173.532,1667.821 172.333,1667.500 171.135,1667.821 170.258,1668.698 169.937,1669.896 170.258,1671.094 171.135,1671.972 172.333,1672.293"/>
      <polygon points="433.461,1671.850 434.287,1671.024 434.589,1669.896 434.287,1668.768 433.461,1667.943 432.333,1667.640 431.205,1667.943 430.380,1668.768 430.078,1669.896 430.380,1671.024 431.205,1671.850 432.333,1672.152"/>
      <polygon points="453.333,1671.628 454.065,1670.896 454.333,1669.896 454.065,1668.896 453.333,1668.164 452.333,1667.896 451.333,1668.164 450.601,1668.896 450.333,1669.896 450.601,1670.896 451.333,1671.628 452.333,1671.896"/>
      <polygon points="153.333,1671.628 154.065,1670.896 154.333,1669.896 154.065,1668.896 153.333,1668.164 152.333,1667.896 151.333,1668.164 150.601,1668.896 150.333,1669.896 150.601,1670.896 151.333,1671.628 152.333,1671.896"/>
    </g>
    <g stroke="#EF6C00" stroke-width="0.4" fill="none">
    </g>
  </g>
  <g stroke="#000000" stroke-width="0.4">
    <line x1="500.000" y1="1000.000" x2="1500.000" y2="1000.000"/>
  </g>
  <g stroke="#000000" stroke-width="0.4">
    <line x1="1000.000" y1="500.000" x2="1000.000" y2="1500.000"/>
  </g>
  <circle cx="1000.000" cy="1000.000" r="1000.000" stroke="red" stroke-width="1" fill="none"/>
  </g>
</svg>
