<?xml version="1.0" encoding="UTF-8"?>
<svg xmlns="http://www.w3.org/2000/svg" version="1.1" width="2000" height="2000">
  <g fill="none" stroke-linecap="round" stroke-linejoin="round">
  <text x="10" y="20" font-size="24" fill="#555">Layer 200 Z=52.000 mm</text>
  <g transform="translate(700.000,-602.229)">
    <g stroke="#2E7D32" stroke-width="0.4">
      <line x1="520.660" y1="1679.230" x2="520.660" y2="1629.230"/>
      <line x1="521.660" y1="1679.230" x2="521.660" y2="1629.230"/>
      <line x1="522.660" y1="1679.230" x2="522.660" y2="1629.230"/>
      <line x1="523.660" y1="1679.230" x2="523.660" y2="1629.230"/>
      <line x1="524.660" y1="1679.230" x2="524.660" y2="1629.230"/>
      <line x1="525.660" y1="1679.230" x2="525.660" y2="1629.230"/>
      <line x1="526.660" y1="1679.230" x2="526.660" y2="1629.230"/>
      <line x1="527.660" y1="1679.230" x2="527.660" y2="1629.230"/>
      <line x1="528.660" y1="1679.230" x2="528.660" y2="1629.230"/>
      <line x1="529.660" y1="1679.230" x2="529.660" y2="1629.230"/>
      <line x1="530.660" y1="1679.230" x2="530.660" y2="1629.230"/>
      <line x1="531.660" y1="1679.230" x2="531.660" y2="1629.230"/>
      <line x1="532.660" y1="1679.230" x2="532.660" y2="1629.230"/>
      <line x1="533.660" y1="1679.230" x2="533.660" y2="1629.230"/>
      <line x1="534.660" y1="1679.230" x2="534.660" y2="1629.230"/>
      <line x1="535.660" y1="1679.230" x2="535.660" y2="1629.230"/>
      <line x1="536.660" y1="1679.230" x2="536.660" y2="1629.230"/>
      <line x1="537.660" y1="1679.230" x2="537.660" y2="1629.230"/>
      <line x1="538.660" y1="1679.230" x2="538.660" y2="1629.230"/>
      <line x1="539.660" y1="1679.230" x2="539.660" y2="1629.230"/>
      <line x1="540.660" y1="1679.230" x2="540.660" y2="1629.230"/>
      <line x1="541.660" y1="1679.230" x2="541.660" y2="1629.230"/>
      <line x1="542.660" y1="1679.230" x2="542.660" y2="1629.230"/>
      <line x1="543.660" y1="1679.230" x2="543.660" y2="1629.230"/>
      <line x1="544.660" y1="1679.230" x2="544.660" y2="1629.230"/>
      <line x1="545.660" y1="1679.230" x2="545.660" y2="1629.230"/>
      <line x1="546.660" y1="1679.230" x2="546.660" y2="1629.230"/>
      <line x1="547.660" y1="1679.230" x2="547.660" y2="1629.230"/>
      <line x1="548.660" y1="1679.230" x2="548.660" y2="1629.230"/>
      <line x1="549.660" y1="1679.230" x2="549.660" y2="1629.230"/>
      <line x1="550.660" y1="1679.230" x2="550.660" y2="1629.230"/>
      <line x1="551.660" y1="1679.230" x2="551.660" y2="1629.230"/>
      <line x1="552.660" y1="1679.230" x2="552.660" y2="1629.230"/>
      <line x1="553.660" y1="1679.230" x2="553.660" y2="1629.230"/>
      <line x1="554.660" y1="1679.230" x2="554.660" y2="1629.230"/>
      <line x1="555.660" y1="1679.230" x2="555.660" y2="1629.230"/>
      <line x1="556.660" y1="1679.230" x2="556.660" y2="1629.230"/>
      <line x1="557.660" y1="1679.230" x2="557.660" y2="1629.230"/>
      <line x1="558.660" y1="1679.230" x2="558.660" y2="1629.230"/>
      <line x1="559.660" y1="1679.230" x2="559.660" y2="1629.230"/>
      <line x1="560.660" y1="1679.230" x2="560.660" y2="1629.230"/>
      <line x1="561.660" y1="1679.230" x2="561.660" y2="1629.230"/>
      <line x1="562.660" y1="1679.230" x2="562.660" y2="1629.230"/>
      <line x1="563.660" y1="1679.230" x2="563.660" y2="1629.230"/>
      <line x1="564.660" y1="1679.230" x2="564.660" y2="1629.230"/>
      <line x1="565.660" y1="1679.230" x2="565.660" y2="1629.230"/>
      <line x1="566.660" y1="1679.230" x2="566.660" y2="1629.230"/>
      <line x1="567.660" y1="1679.230" x2="567.660" y2="1629.230"/>
      <line x1="568.660" y1="1679.230" x2="568.660" y2="1629.230"/>
      <line x1="569.660" y1="1679.230" x2="569.660" y2="1629.230"/>
      <line x1="570.660" y1="1679.230" x2="570.660" y2="1629.230"/>
      <line x1="571.660" y1="1679.230" x2="571.660" y2="1629.230"/>
      <line x1="572.660" y1="1679.230" x2="572.660" y2="1629.230"/>
      <line x1="573.660" y1="1679.230" x2="573.660" y2="1629.230"/>
      <line x1="574.660" y1="1679.230" x2="574.660" y2="1629.230"/>
      <line x1="575.660" y1="1679.230" x2="575.660" y2="1629.230"/>
      <line x1="576.660" y1="1679.230" x2="576.660" y2="1629.230"/>
      <line x1="577.660" y1="1679.230" x2="577.660" y2="1629.230"/>
      <line x1="578.660" y1="1679.230" x2="578.660" y2="1629.230"/>
      <line x1="579.660" y1="1679.230" x2="579.660" y2="1629.230"/>
      <line x1="580.660" y1="1679.230" x2="580.660" y2="1629.230"/>
      <line x1="581.660" y1="1679.230" x2="581.660" y2="1629.230"/>
      <line x1="582.660" y1="1679.230" x2="582.660" y2="1629.230"/>
      <line x1="583.660" y1="1679.230" x2="583.660" y2="1629.230"/>
      <line x1="584.660" y1="1679.230" x2="584.660" y2="1629.230"/>
      <line x1="585.660" y1="1679.230" x2="585.660" y2="1629.230"/>
      <line x1="586.660" y1="1679.230" x2="586.660" y2="1629.230"/>
      <line x1="587.660" y1="1679.230" x2="587.660" y2="1629.230"/>
      <line x1="588.660" y1="1679.230" x2="588.660" y2="1629.230"/>
      <line x1="589.660" y1="1679.230" x2="589.660" y2="1629.230"/>
      <line x1="590.660" y1="1679.230" x2="590.660" y2="1629.230"/>
      <line x1="591.660" y1="1679.230" x2="591.660" y2="1629.230"/>
      <line x1="592.660" y1="1679.230" x2="592.660" y2="1629.230"/>
      <line x1="593.660" y1="1679.230" x2="593.660" y2="1629.230"/>
      <line x1="594.660" y1="1679.230" x2="594.660" y2="1629.230"/>
      <line x1="595.660" y1="1679.230" x2="595.660" y2="1629.230"/>
      <line x1="596.660" y1="1679.230" x2="596.660" y2="1629.230"/>
      <line x1="520.660" y1="1629.130" x2="520.660" y2="1579.130"/>
      <line x1="521.660" y1="1629.130" x2="521.660" y2="1579.130"/>
      <line x1="522.660" y1="1629.130" x2="522.660" y2="1579.130"/>
      <line x1="523.660" y1="1629.130" x2="523.660" y2="1579.130"/>
      <line x1="524.660" y1="1629.130" x2="524.660" y2="1579.130"/>
      <line x1="525.660" y1="1629.130" x2="525.660" y2="1579.130"/>
      <line x1="526.660" y1="1629.130" x2="526.660" y2="1579.130"/>
      <line x1="527.660" y1="1629.130" x2="527.660" y2="1579.130"/>
      <line x1="528.660" y1="1629.130" x2="528.660" y2="1579.130"/>
      <line x1="529.660" y1="1629.130" x2="529.660" y2="1579.130"/>
      <line x1="530.660" y1="1629.130" x2="530.660" y2="1579.130"/>
      <line x1="531.660" y1="1629.130" x2="531.660" y2="1579.130"/>
      <line x1="532.660" y1="1629.130" x2="532.660" y2="1579.130"/>
      <line x1="533.660" y1="1629.130" x2="533.660" y2="1579.130"/>
      <line x1="534.660" y1="1629.130" x2="534.660" y2="1579.130"/>
      <line x1="535.660" y1="1629.130" x2="535.660" y2="1579.130"/>
      <line x1="536.660" y1="1629.130" x2="536.660" y2="1579.130"/>
      <line x1="537.660" y1="1629.130" x2="537.660" y2="1579.130"/>
      <line x1="538.660" y1="1629.130" x2="538.660" y2="1579.130"/>
      <line x1="539.660" y1="1629.130" x2="539.660" y2="1579.130"/>
      <line x1="540.660" y1="1629.130" x2="540.660" y2="1579.130"/>
      <line x1="541.660" y1="1629.130" x2="541.660" y2="1579.130"/>
      <line x1="542.660" y1="1629.130" x2="542.660" y2="1579.130"/>
      <line x1="543.660" y1="1629.130" x2="543.660" y2="1579.130"/>
      <line x1="544.660" y1="1629.130" x2="544.660" y2="1579.130"/>
      <line x1="545.660" y1="1629.130" x2="545.660" y2="1579.130"/>
      <line x1="546.660" y1="1629.130" x2="546.660" y2="1579.130"/>
      <line x1="547.660" y1="1629.130" x2="547.660" y2="1579.130"/>
      <line x1="548.660" y1="1629.130" x2="548.660" y2="1579.130"/>
      <line x1="549.660" y1="1629.130" x2="549.660" y2="1579.130"/>
      <line x1="550.660" y1="1629.130" x2="550.660" y2="1579.130"/>
      <line x1="551.660" y1="1629.130" x2="551.660" y2="1579.130"/>
      <line x1="552.660" y1="1629.130" x2="552.660" y2="1579.130"/>
      <line x1="553.660" y1="1629.130" x2="553.660" y2="1579.130"/>
      <line x1="554.660" y1="1629.130" x2="554.660" y2="1579.130"/>
      <line x1="555.660" y1="1629.130" x2="555.660" y2="1579.130"/>
      <line x1="556.660" y1="1629.130" x2="556.660" y2="1579.130"/>
      <line x1="557.660" y1="1629.130" x2="557.660" y2="1579.130"/>
      <line x1="558.660" y1="1629.130" x2="558.660" y2="1579.130"/>
      <line x1="559.660" y1="1629.130" x2="559.660" y2="1579.130"/>
      <line x1="560.660" y1="1629.130" x2="560.660" y2="1579.130"/>
      <line x1="561.660" y1="1629.130" x2="561.660" y2="1579.130"/>
      <line x1="562.660" y1="1629.130" x2="562.660" y2="1579.130"/>
      <line x1="563.660" y1="1629.130" x2="563.660" y2="1579.130"/>
      <line x1="564.660" y1="1629.130" x2="564.660" y2="1579.130"/>
      <line x1="565.660" y1="1629.130" x2="565.660" y2="1579.130"/>
      <line x1="566.660" y1="1629.130" x2="566.660" y2="1579.130"/>
      <line x1="567.660" y1="1629.130" x2="567.660" y2="1579.130"/>
      <line x1="568.660" y1="1629.130" x2="568.660" y2="1579.130"/>
      <line x1="569.660" y1="1629.130" x2="569.660" y2="1579.130"/>
      <line x1="570.660" y1="1629.130" x2="570.660" y2="1579.130"/>
      <line x1="571.660" y1="1629.130" x2="571.660" y2="1579.130"/>
      <line x1="572.660" y1="1629.130" x2="572.660" y2="1579.130"/>
      <line x1="573.660" y1="1629.130" x2="573.660" y2="1579.130"/>
      <line x1="574.660" y1="1629.130" x2="574.660" y2="1579.130"/>
      <line x1="575.660" y1="1629.130" x2="575.660" y2="1579.130"/>
      <line x1="576.660" y1="1629.130" x2="576.660" y2="1579.130"/>
      <line x1="577.660" y1="1629.130" x2="577.660" y2="1579.130"/>
      <line x1="578.660" y1="1629.130" x2="578.660" y2="1579.130"/>
      <line x1="579.660" y1="1629.130" x2="579.660" y2="1579.130"/>
      <line x1="580.660" y1="1629.130" x2="580.660" y2="1579.130"/>
      <line x1="581.660" y1="1629.130" x2="581.660" y2="1579.130"/>
      <line x1="582.660" y1="1629.130" x2="582.660" y2="1579.130"/>
      <line x1="583.660" y1="1629.130" x2="583.660" y2="1579.130"/>
      <line x1="584.660" y1="1629.130" x2="584.660" y2="1579.130"/>
      <line x1="585.660" y1="1629.130" x2="585.660" y2="1579.130"/>
      <line x1="586.660" y1="1629.130" x2="586.660" y2="1579.130"/>
      <line x1="587.660" y1="1629.130" x2="587.660" y2="1579.130"/>
      <line x1="588.660" y1="1629.130" x2="588.660" y2="1579.130"/>
      <line x1="589.660" y1="1629.130" x2="589.660" y2="1579.130"/>
      <line x1="590.660" y1="1629.130" x2="590.660" y2="1579.130"/>
      <line x1="591.660" y1="1629.130" x2="591.660" y2="1579.130"/>
      <line x1="592.660" y1="1629.130" x2="592.660" y2="1579.130"/>
      <line x1="593.660" y1="1629.130" x2="593.660" y2="1579.130"/>
      <line x1="594.660" y1="1629.130" x2="594.660" y2="1579.130"/>
      <line x1="595.660" y1="1629.130" x2="595.660" y2="1579.130"/>
      <line x1="596.660" y1="1629.130" x2="596.660" y2="1579.130"/>
      <line x1="520.660" y1="1579.030" x2="520.660" y2="1529.030"/>
      <line x1="521.660" y1="1579.030" x2="521.660" y2="1529.030"/>
      <line x1="522.660" y1="1579.030" x2="522.660" y2="1529.030"/>
      <line x1="523.660" y1="1579.030" x2="523.660" y2="1529.030"/>
      <line x1="524.660" y1="1579.030" x2="524.660" y2="1529.030"/>
      <line x1="525.660" y1="1579.030" x2="525.660" y2="1529.030"/>
      <line x1="526.660" y1="1579.030" x2="526.660" y2="1529.030"/>
      <line x1="527.660" y1="1579.030" x2="527.660" y2="1529.030"/>
      <line x1="528.660" y1="1579.030" x2="528.660" y2="1529.030"/>
      <line x1="529.660" y1="1579.030" x2="529.660" y2="1529.030"/>
      <line x1="530.660" y1="1579.030" x2="530.660" y2="1529.030"/>
      <line x1="531.660" y1="1579.030" x2="531.660" y2="1529.030"/>
      <line x1="532.660" y1="1579.030" x2="532.660" y2="1529.030"/>
      <line x1="533.660" y1="1579.030" x2="533.660" y2="1529.030"/>
      <line x1="534.660" y1="1579.030" x2="534.660" y2="1529.030"/>
      <line x1="535.660" y1="1579.030" x2="535.660" y2="1529.030"/>
      <line x1="536.660" y1="1579.030" x2="536.660" y2="1529.030"/>
      <line x1="537.660" y1="1579.030" x2="537.660" y2="1529.030"/>
      <line x1="538.660" y1="1579.030" x2="538.660" y2="1529.030"/>
      <line x1="539.660" y1="1579.030" x2="539.660" y2="1529.030"/>
      <line x1="540.660" y1="1579.030" x2="540.660" y2="1529.030"/>
      <line x1="541.660" y1="1579.030" x2="541.660" y2="1529.030"/>
      <line x1="542.660" y1="1579.030" x2="542.660" y2="1529.030"/>
      <line x1="543.660" y1="1579.030" x2="543.660" y2="1529.030"/>
      <line x1="544.660" y1="1579.030" x2="544.660" y2="1529.030"/>
      <line x1="545.660" y1="1579.030" x2="545.660" y2="1529.030"/>
      <line x1="546.660" y1="1579.030" x2="546.660" y2="1529.030"/>
      <line x1="547.660" y1="1579.030" x2="547.660" y2="1529.030"/>
      <line x1="548.660" y1="1579.030" x2="548.660" y2="1529.030"/>
      <line x1="549.660" y1="1579.030" x2="549.660" y2="1529.030"/>
      <line x1="550.660" y1="1579.030" x2="550.660" y2="1529.030"/>
      <line x1="551.660" y1="1579.030" x2="551.660" y2="1529.030"/>
      <line x1="552.660" y1="1579.030" x2="552.660" y2="1529.030"/>
      <line x1="553.660" y1="1579.030" x2="553.660" y2="1529.030"/>
      <line x1="554.660" y1="1579.030" x2="554.660" y2="1529.030"/>
      <line x1="555.660" y1="1579.030" x2="555.660" y2="1529.030"/>
      <line x1="556.660" y1="1579.030" x2="556.660" y2="1529.030"/>
      <line x1="557.660" y1="1579.030" x2="557.660" y2="1529.030"/>
      <line x1="558.660" y1="1579.030" x2="558.660" y2="1529.030"/>
      <line x1="559.660" y1="1579.030" x2="559.660" y2="1529.030"/>
      <line x1="560.660" y1="1579.030" x2="560.660" y2="1529.030"/>
      <line x1="561.660" y1="1579.030" x2="561.660" y2="1529.030"/>
      <line x1="562.660" y1="1579.030" x2="562.660" y2="1529.030"/>
      <line x1="563.660" y1="1579.030" x2="563.660" y2="1529.030"/>
      <line x1="564.660" y1="1579.030" x2="564.660" y2="1529.030"/>
      <line x1="565.660" y1="1579.030" x2="565.660" y2="1529.030"/>
      <line x1="566.660" y1="1579.030" x2="566.660" y2="1529.030"/>
      <line x1="567.660" y1="1579.030" x2="567.660" y2="1529.030"/>
      <line x1="568.660" y1="1579.030" x2="568.660" y2="1529.030"/>
      <line x1="569.660" y1="1579.030" x2="569.660" y2="1529.030"/>
      <line x1="570.660" y1="1579.030" x2="570.660" y2="1529.030"/>
      <line x1="571.660" y1="1579.030" x2="571.660" y2="1529.030"/>
      <line x1="572.660" y1="1579.030" x2="572.660" y2="1529.030"/>
      <line x1="573.660" y1="1579.030" x2="573.660" y2="1529.030"/>
      <line x1="574.660" y1="1579.030" x2="574.660" y2="1529.030"/>
      <line x1="575.660" y1="1579.030" x2="575.660" y2="1529.030"/>
      <line x1="576.660" y1="1579.030" x2="576.660" y2="1529.030"/>
      <line x1="577.660" y1="1579.030" x2="577.660" y2="1529.030"/>
      <line x1="578.660" y1="1579.030" x2="578.660" y2="1529.030"/>
      <line x1="579.660" y1="1579.030" x2="579.660" y2="1529.030"/>
      <line x1="580.660" y1="1579.030" x2="580.660" y2="1529.030"/>
      <line x1="581.660" y1="1579.030" x2="581.660" y2="1529.030"/>
      <line x1="582.660" y1="1579.030" x2="582.660" y2="1529.030"/>
      <line x1="583.660" y1="1579.030" x2="583.660" y2="1529.030"/>
      <line x1="584.660" y1="1579.030" x2="584.660" y2="1529.030"/>
      <line x1="585.660" y1="1579.030" x2="585.660" y2="1529.030"/>
      <line x1="586.660" y1="1579.030" x2="586.660" y2="1529.030"/>
      <line x1="587.660" y1="1579.030" x2="587.660" y2="1529.030"/>
      <line x1="588.660" y1="1579.030" x2="588.660" y2="1529.030"/>
      <line x1="589.660" y1="1579.030" x2="589.660" y2="1529.030"/>
      <line x1="590.660" y1="1579.030" x2="590.660" y2="1529.030"/>
      <line x1="591.660" y1="1579.030" x2="591.660" y2="1529.030"/>
      <line x1="592.660" y1="1579.030" x2="592.660" y2="1529.030"/>
      <line x1="593.660" y1="1579.030" x2="593.660" y2="1529.030"/>
      <line x1="594.660" y1="1579.030" x2="594.660" y2="1529.030"/>
      <line x1="595.660" y1="1579.030" x2="595.660" y2="1529.030"/>
      <line x1="596.660" y1="1579.030" x2="596.660" y2="1529.030"/>
      <line x1="547.660" y1="1528.930" x2="547.660" y2="1525.229"/>
      <line x1="521.660" y1="1528.930" x2="521.660" y2="1525.229"/>
      <line x1="520.660" y1="1528.930" x2="520.660" y2="1525.229"/>
      <line x1="524.660" y1="1528.930" x2="524.660" y2="1525.229"/>
      <line x1="523.660" y1="1528.930" x2="523.660" y2="1525.229"/>
      <line x1="527.660" y1="1528.930" x2="527.660" y2="1525.229"/>
      <line x1="526.660" y1="1528.930" x2="526.660" y2="1525.229"/>
      <line x1="530.660" y1="1528.930" x2="530.660" y2="1525.229"/>
      <line x1="529.660" y1="1528.930" x2="529.660" y2="1525.229"/>
      <line x1="535.660" y1="1528.930" x2="535.660" y2="1525.229"/>
      <line x1="546.660" y1="1528.930" x2="546.660" y2="1525.229"/>
      <line x1="548.660" y1="1528.930" x2="548.660" y2="1525.229"/>
      <line x1="543.660" y1="1528.930" x2="543.660" y2="1525.229"/>
      <line x1="544.660" y1="1528.930" x2="544.660" y2="1525.229"/>
      <line x1="541.660" y1="1528.930" x2="541.660" y2="1525.229"/>
      <line x1="532.660" y1="1528.930" x2="532.660" y2="1525.229"/>
      <line x1="538.660" y1="1528.930" x2="538.660" y2="1525.229"/>
      <line x1="540.660" y1="1528.930" x2="540.660" y2="1525.229"/>
      <line x1="537.660" y1="1528.930" x2="537.660" y2="1525.229"/>
      <line x1="522.660" y1="1528.930" x2="522.660" y2="1525.229"/>
      <line x1="545.660" y1="1528.930" x2="545.660" y2="1525.229"/>
      <line x1="542.660" y1="1528.930" x2="542.660" y2="1525.229"/>
      <line x1="539.660" y1="1528.930" x2="539.660" y2="1525.229"/>
      <line x1="536.660" y1="1528.930" x2="536.660" y2="1525.229"/>
      <line x1="533.660" y1="1528.930" x2="533.660" y2="1525.229"/>
      <line x1="534.660" y1="1528.930" x2="534.660" y2="1525.229"/>
      <line x1="531.660" y1="1528.930" x2="531.660" y2="1525.229"/>
      <line x1="528.660" y1="1528.930" x2="528.660" y2="1525.229"/>
      <line x1="525.660" y1="1528.930" x2="525.660" y2="1525.229"/>
      <line x1="563.660" y1="1528.930" x2="563.660" y2="1525.229"/>
      <line x1="549.660" y1="1528.930" x2="549.660" y2="1525.229"/>
      <line x1="550.660" y1="1528.930" x2="550.660" y2="1525.229"/>
      <line x1="551.660" y1="1528.930" x2="551.660" y2="1525.229"/>
      <line x1="552.660" y1="1528.930" x2="552.660" y2="1525.229"/>
      <line x1="553.660" y1="1528.930" x2="553.660" y2="1525.229"/>
      <line x1="554.660" y1="1528.930" x2="554.660" y2="1525.229"/>
      <line x1="555.660" y1="1528.930" x2="555.660" y2="1525.229"/>
      <line x1="556.660" y1="1528.930" x2="556.660" y2="1525.229"/>
      <line x1="557.660" y1="1528.930" x2="557.660" y2="1525.229"/>
      <line x1="558.660" y1="1528.930" x2="558.660" y2="1525.229"/>
      <line x1="559.660" y1="1528.930" x2="559.660" y2="1525.229"/>
      <line x1="560.660" y1="1528.930" x2="560.660" y2="1525.229"/>
      <line x1="561.660" y1="1528.930" x2="561.660" y2="1525.229"/>
      <line x1="562.660" y1="1528.930" x2="562.660" y2="1525.229"/>
      <line x1="564.660" y1="1528.930" x2="564.660" y2="1525.229"/>
      <line x1="565.660" y1="1528.930" x2="565.660" y2="1525.229"/>
      <line x1="566.660" y1="1528.930" x2="566.660" y2="1525.229"/>
      <line x1="567.660" y1="1528.930" x2="567.660" y2="1525.229"/>
      <line x1="568.660" y1="1528.930" x2="568.660" y2="1525.229"/>
      <line x1="569.660" y1="1528.930" x2="569.660" y2="1525.229"/>
      <line x1="592.660" y1="1528.930" x2="592.660" y2="1525.229"/>
      <line x1="578.660" y1="1528.930" x2="578.660" y2="1525.229"/>
      <line x1="579.660" y1="1528.930" x2="579.660" y2="1525.229"/>
      <line x1="580.660" y1="1528.930" x2="580.660" y2="1525.229"/>
      <line x1="581.660" y1="1528.930" x2="581.660" y2="1525.229"/>
      <line x1="582.660" y1="1528.930" x2="582.660" y2="1525.229"/>
      <line x1="583.660" y1="1528.930" x2="583.660" y2="1525.229"/>
      <line x1="584.660" y1="1528.930" x2="584.660" y2="1525.229"/>
      <line x1="585.660" y1="1528.930" x2="585.660" y2="1525.229"/>
      <line x1="586.660" y1="1528.930" x2="586.660" y2="1525.229"/>
      <line x1="587.660" y1="1528.930" x2="587.660" y2="1525.229"/>
      <line x1="588.660" y1="1528.930" x2="588.660" y2="1525.229"/>
      <line x1="589.660" y1="1528.930" x2="589.660" y2="1525.229"/>
      <line x1="590.660" y1="1528.930" x2="590.660" y2="1525.229"/>
      <line x1="591.660" y1="1528.930" x2="591.660" y2="1525.229"/>
      <line x1="593.660" y1="1528.930" x2="593.660" y2="1525.229"/>
      <line x1="594.660" y1="1528.930" x2="594.660" y2="1525.229"/>
      <line x1="595.660" y1="1528.930" x2="595.660" y2="1525.229"/>
      <line x1="596.660" y1="1528.930" x2="596.660" y2="1525.229"/>
      <line x1="577.660" y1="1528.930" x2="577.660" y2="1525.229"/>
      <line x1="570.660" y1="1528.930" x2="570.660" y2="1525.229"/>
      <line x1="571.660" y1="1528.930" x2="571.660" y2="1525.229"/>
      <line x1="572.660" y1="1528.930" x2="572.660" y2="1525.229"/>
      <line x1="573.660" y1="1528.930" x2="573.660" y2="1525.229"/>
      <line x1="574.660" y1="1528.930" x2="574.660" y2="1525.229"/>
      <line x1="575.660" y1="1528.930" x2="575.660" y2="1525.229"/>
      <line x1="576.660" y1="1528.930" x2="576.660" y2="1525.229"/>
      <line x1="3.163" y1="1679.230" x2="3.163" y2="1629.230"/>
      <line x1="4.163" y1="1679.230" x2="4.163" y2="1629.230"/>
      <line x1="5.163" y1="1679.230" x2="5.163" y2="1629.230"/>
      <line x1="6.163" y1="1679.230" x2="6.163" y2="1629.230"/>
      <line x1="7.163" y1="1679.230" x2="7.163" y2="1629.230"/>
      <line x1="8.163" y1="1679.230" x2="8.163" y2="1629.230"/>
      <line x1="9.163" y1="1679.230" x2="9.163" y2="1629.230"/>
      <line x1="10.163" y1="1679.230" x2="10.163" y2="1629.230"/>
      <line x1="11.163" y1="1679.230" x2="11.163" y2="1629.230"/>
      <line x1="12.163" y1="1679.230" x2="12.163" y2="1629.230"/>
      <line x1="13.163" y1="1679.230" x2="13.163" y2="1629.230"/>
      <line x1="14.163" y1="1679.230" x2="14.163" y2="1629.230"/>
      <line x1="15.163" y1="1679.230" x2="15.163" y2="1629.230"/>
      <line x1="16.163" y1="1679.230" x2="16.163" y2="1629.230"/>
      <line x1="17.163" y1="1679.230" x2="17.163" y2="1629.230"/>
      <line x1="18.163" y1="1679.230" x2="18.163" y2="1629.230"/>
      <line x1="19.163" y1="1679.230" x2="19.163" y2="1629.230"/>
      <line x1="20.163" y1="1679.230" x2="20.163" y2="1629.230"/>
      <line x1="21.163" y1="1679.230" x2="21.163" y2="1629.230"/>
      <line x1="22.163" y1="1679.230" x2="22.163" y2="1629.230"/>
      <line x1="23.163" y1="1679.230" x2="23.163" y2="1629.230"/>
      <line x1="24.163" y1="1679.230" x2="24.163" y2="1629.230"/>
      <line x1="25.163" y1="1679.230" x2="25.163" y2="1629.230"/>
      <line x1="26.163" y1="1679.230" x2="26.163" y2="1629.230"/>
      <line x1="27.163" y1="1679.230" x2="27.163" y2="1629.230"/>
      <line x1="28.163" y1="1679.230" x2="28.163" y2="1629.230"/>
      <line x1="29.163" y1="1679.230" x2="29.163" y2="1629.230"/>
      <line x1="30.163" y1="1679.230" x2="30.163" y2="1629.230"/>
      <line x1="31.163" y1="1679.230" x2="31.163" y2="1629.230"/>
      <line x1="32.163" y1="1679.230" x2="32.163" y2="1629.230"/>
      <line x1="33.163" y1="1679.230" x2="33.163" y2="1629.230"/>
      <line x1="34.163" y1="1679.230" x2="34.163" y2="1629.230"/>
      <line x1="35.163" y1="1679.230" x2="35.163" y2="1629.230"/>
      <line x1="36.163" y1="1679.230" x2="36.163" y2="1629.230"/>
      <line x1="37.163" y1="1679.230" x2="37.163" y2="1629.230"/>
      <line x1="38.163" y1="1679.230" x2="38.163" y2="1629.230"/>
      <line x1="39.163" y1="1679.230" x2="39.163" y2="1629.230"/>
      <line x1="40.163" y1="1679.230" x2="40.163" y2="1629.230"/>
      <line x1="41.163" y1="1679.230" x2="41.163" y2="1629.230"/>
      <line x1="42.163" y1="1679.230" x2="42.163" y2="1629.230"/>
      <line x1="43.163" y1="1679.230" x2="43.163" y2="1629.230"/>
      <line x1="44.163" y1="1679.230" x2="44.163" y2="1629.230"/>
      <line x1="45.163" y1="1679.230" x2="45.163" y2="1629.230"/>
      <line x1="46.163" y1="1679.230" x2="46.163" y2="1629.230"/>
      <line x1="47.163" y1="1679.230" x2="47.163" y2="1629.230"/>
      <line x1="48.163" y1="1679.230" x2="48.163" y2="1629.230"/>
      <line x1="49.163" y1="1679.230" x2="49.163" y2="1629.230"/>
      <line x1="50.163" y1="1679.230" x2="50.163" y2="1629.230"/>
      <line x1="51.163" y1="1679.230" x2="51.163" y2="1629.230"/>
      <line x1="52.163" y1="1679.230" x2="52.163" y2="1629.230"/>
      <line x1="53.163" y1="1679.230" x2="53.163" y2="1629.230"/>
      <line x1="54.163" y1="1679.230" x2="54.163" y2="1629.230"/>
      <line x1="55.163" y1="1679.230" x2="55.163" y2="1629.230"/>
      <line x1="56.163" y1="1679.230" x2="56.163" y2="1629.230"/>
      <line x1="57.163" y1="1679.230" x2="57.163" y2="1629.230"/>
      <line x1="58.163" y1="1679.230" x2="58.163" y2="1629.230"/>
      <line x1="59.163" y1="1679.230" x2="59.163" y2="1629.230"/>
      <line x1="60.163" y1="1679.230" x2="60.163" y2="1629.230"/>
      <line x1="61.163" y1="1679.230" x2="61.163" y2="1629.230"/>
      <line x1="62.163" y1="1679.230" x2="62.163" y2="1629.230"/>
      <line x1="63.163" y1="1679.230" x2="63.163" y2="1629.230"/>
      <line x1="64.163" y1="1679.230" x2="64.163" y2="1629.230"/>
      <line x1="65.163" y1="1679.230" x2="65.163" y2="1629.230"/>
      <line x1="66.163" y1="1679.230" x2="66.163" y2="1629.230"/>
      <line x1="67.163" y1="1679.230" x2="67.163" y2="1629.230"/>
      <line x1="68.163" y1="1679.230" x2="68.163" y2="1629.230"/>
      <line x1="69.163" y1="1679.230" x2="69.163" y2="1629.230"/>
      <line x1="70.163" y1="1679.230" x2="70.163" y2="1629.230"/>
      <line x1="71.163" y1="1679.230" x2="71.163" y2="1629.230"/>
      <line x1="72.163" y1="1679.230" x2="72.163" y2="1629.230"/>
      <line x1="73.163" y1="1679.230" x2="73.163" y2="1629.230"/>
      <line x1="74.163" y1="1679.230" x2="74.163" y2="1629.230"/>
      <line x1="75.163" y1="1679.230" x2="75.163" y2="1629.230"/>
      <line x1="76.163" y1="1679.230" x2="76.163" y2="1629.230"/>
      <line x1="77.163" y1="1679.230" x2="77.163" y2="1629.230"/>
      <line x1="78.163" y1="1679.230" x2="78.163" y2="1629.230"/>
      <line x1="79.163" y1="1679.230" x2="79.163" y2="1629.230"/>
      <line x1="3.163" y1="1629.130" x2="3.163" y2="1579.130"/>
      <line x1="4.163" y1="1629.130" x2="4.163" y2="1579.130"/>
      <line x1="5.163" y1="1629.130" x2="5.163" y2="1579.130"/>
      <line x1="6.163" y1="1629.130" x2="6.163" y2="1579.130"/>
      <line x1="7.163" y1="1629.130" x2="7.163" y2="1579.130"/>
      <line x1="8.163" y1="1629.130" x2="8.163" y2="1579.130"/>
      <line x1="9.163" y1="1629.130" x2="9.163" y2="1579.130"/>
      <line x1="10.163" y1="1629.130" x2="10.163" y2="1579.130"/>
      <line x1="11.163" y1="1629.130" x2="11.163" y2="1579.130"/>
      <line x1="12.163" y1="1629.130" x2="12.163" y2="1579.130"/>
      <line x1="13.163" y1="1629.130" x2="13.163" y2="1579.130"/>
      <line x1="14.163" y1="1629.130" x2="14.163" y2="1579.130"/>
      <line x1="15.163" y1="1629.130" x2="15.163" y2="1579.130"/>
      <line x1="16.163" y1="1629.130" x2="16.163" y2="1579.130"/>
      <line x1="17.163" y1="1629.130" x2="17.163" y2="1579.130"/>
      <line x1="18.163" y1="1629.130" x2="18.163" y2="1579.130"/>
      <line x1="19.163" y1="1629.130" x2="19.163" y2="1579.130"/>
      <line x1="20.163" y1="1629.130" x2="20.163" y2="1579.130"/>
      <line x1="21.163" y1="1629.130" x2="21.163" y2="1579.130"/>
      <line x1="22.163" y1="1629.130" x2="22.163" y2="1579.130"/>
      <line x1="23.163" y1="1629.130" x2="23.163" y2="1579.130"/>
      <line x1="24.163" y1="1629.130" x2="24.163" y2="1579.130"/>
      <line x1="25.163" y1="1629.130" x2="25.163" y2="1579.130"/>
      <line x1="26.163" y1="1629.130" x2="26.163" y2="1579.130"/>
      <line x1="27.163" y1="1629.130" x2="27.163" y2="1579.130"/>
      <line x1="28.163" y1="1629.130" x2="28.163" y2="1579.130"/>
      <line x1="29.163" y1="1629.130" x2="29.163" y2="1579.130"/>
      <line x1="30.163" y1="1629.130" x2="30.163" y2="1579.130"/>
      <line x1="31.163" y1="1629.130" x2="31.163" y2="1579.130"/>
      <line x1="32.163" y1="1629.130" x2="32.163" y2="1579.130"/>
      <line x1="33.163" y1="1629.130" x2="33.163" y2="1579.130"/>
      <line x1="34.163" y1="1629.130" x2="34.163" y2="1579.130"/>
      <line x1="35.163" y1="1629.130" x2="35.163" y2="1579.130"/>
      <line x1="36.163" y1="1629.130" x2="36.163" y2="1579.130"/>
      <line x1="37.163" y1="1629.130" x2="37.163" y2="1579.130"/>
      <line x1="38.163" y1="1629.130" x2="38.163" y2="1579.130"/>
      <line x1="39.163" y1="1629.130" x2="39.163" y2="1579.130"/>
      <line x1="40.163" y1="1629.130" x2="40.163" y2="1579.130"/>
      <line x1="41.163" y1="1629.130" x2="41.163" y2="1579.130"/>
      <line x1="42.163" y1="1629.130" x2="42.163" y2="1579.130"/>
      <line x1="43.163" y1="1629.130" x2="43.163" y2="1579.130"/>
      <line x1="44.163" y1="1629.130" x2="44.163" y2="1579.130"/>
      <line x1="45.163" y1="1629.130" x2="45.163" y2="1579.130"/>
      <line x1="46.163" y1="1629.130" x2="46.163" y2="1579.130"/>
      <line x1="47.163" y1="1629.130" x2="47.163" y2="1579.130"/>
      <line x1="48.163" y1="1629.130" x2="48.163" y2="1579.130"/>
      <line x1="49.163" y1="1629.130" x2="49.163" y2="1579.130"/>
      <line x1="50.163" y1="1629.130" x2="50.163" y2="1579.130"/>
      <line x1="51.163" y1="1629.130" x2="51.163" y2="1579.130"/>
      <line x1="52.163" y1="1629.130" x2="52.163" y2="1579.130"/>
      <line x1="53.163" y1="1629.130" x2="53.163" y2="1579.130"/>
      <line x1="54.163" y1="1629.130" x2="54.163" y2="1579.130"/>
      <line x1="55.163" y1="1629.130" x2="55.163" y2="1579.130"/>
      <line x1="56.163" y1="1629.130" x2="56.163" y2="1579.130"/>
      <line x1="57.163" y1="1629.130" x2="57.163" y2="1579.130"/>
      <line x1="58.163" y1="1629.130" x2="58.163" y2="1579.130"/>
      <line x1="59.163" y1="1629.130" x2="59.163" y2="1579.130"/>
      <line x1="60.163" y1="1629.130" x2="60.163" y2="1579.130"/>
      <line x1="61.163" y1="1629.130" x2="61.163" y2="1579.130"/>
      <line x1="62.163" y1="1629.130" x2="62.163" y2="1579.130"/>
      <line x1="63.163" y1="1629.130" x2="63.163" y2="1579.130"/>
      <line x1="64.163" y1="1629.130" x2="64.163" y2="1579.130"/>
      <line x1="65.163" y1="1629.130" x2="65.163" y2="1579.130"/>
      <line x1="66.163" y1="1629.130" x2="66.163" y2="1579.130"/>
      <line x1="67.163" y1="1629.130" x2="67.163" y2="1579.130"/>
      <line x1="68.163" y1="1629.130" x2="68.163" y2="1579.130"/>
      <line x1="69.163" y1="1629.130" x2="69.163" y2="1579.130"/>
      <line x1="70.163" y1="1629.130" x2="70.163" y2="1579.130"/>
      <line x1="71.163" y1="1629.130" x2="71.163" y2="1579.130"/>
      <line x1="72.163" y1="1629.130" x2="72.163" y2="1579.130"/>
      <line x1="73.163" y1="1629.130" x2="73.163" y2="1579.130"/>
      <line x1="74.163" y1="1629.130" x2="74.163" y2="1579.130"/>
      <line x1="75.163" y1="1629.130" x2="75.163" y2="1579.130"/>
      <line x1="76.163" y1="1629.130" x2="76.163" y2="1579.130"/>
      <line x1="77.163" y1="1629.130" x2="77.163" y2="1579.130"/>
      <line x1="78.163" y1="1629.130" x2="78.163" y2="1579.130"/>
      <line x1="79.163" y1="1629.130" x2="79.163" y2="1579.130"/>
      <line x1="3.163" y1="1579.030" x2="3.163" y2="1529.030"/>
      <line x1="4.163" y1="1579.030" x2="4.163" y2="1529.030"/>
      <line x1="5.163" y1="1579.030" x2="5.163" y2="1529.030"/>
      <line x1="6.163" y1="1579.030" x2="6.163" y2="1529.030"/>
      <line x1="7.163" y1="1579.030" x2="7.163" y2="1529.030"/>
      <line x1="8.163" y1="1579.030" x2="8.163" y2="1529.030"/>
      <line x1="9.163" y1="1579.030" x2="9.163" y2="1529.030"/>
      <line x1="10.163" y1="1579.030" x2="10.163" y2="1529.030"/>
      <line x1="11.163" y1="1579.030" x2="11.163" y2="1529.030"/>
      <line x1="12.163" y1="1579.030" x2="12.163" y2="1529.030"/>
      <line x1="13.163" y1="1579.030" x2="13.163" y2="1529.030"/>
      <line x1="14.163" y1="1579.030" x2="14.163" y2="1529.030"/>
      <line x1="15.163" y1="1579.030" x2="15.163" y2="1529.030"/>
      <line x1="16.163" y1="1579.030" x2="16.163" y2="1529.030"/>
      <line x1="17.163" y1="1579.030" x2="17.163" y2="1529.030"/>
      <line x1="18.163" y1="1579.030" x2="18.163" y2="1529.030"/>
      <line x1="19.163" y1="1579.030" x2="19.163" y2="1529.030"/>
      <line x1="20.163" y1="1579.030" x2="20.163" y2="1529.030"/>
      <line x1="21.163" y1="1579.030" x2="21.163" y2="1529.030"/>
      <line x1="22.163" y1="1579.030" x2="22.163" y2="1529.030"/>
      <line x1="23.163" y1="1579.030" x2="23.163" y2="1529.030"/>
      <line x1="24.163" y1="1579.030" x2="24.163" y2="1529.030"/>
      <line x1="25.163" y1="1579.030" x2="25.163" y2="1529.030"/>
      <line x1="26.163" y1="1579.030" x2="26.163" y2="1529.030"/>
      <line x1="27.163" y1="1579.030" x2="27.163" y2="1529.030"/>
      <line x1="28.163" y1="1579.030" x2="28.163" y2="1529.030"/>
      <line x1="29.163" y1="1579.030" x2="29.163" y2="1529.030"/>
      <line x1="30.163" y1="1579.030" x2="30.163" y2="1529.030"/>
      <line x1="31.163" y1="1579.030" x2="31.163" y2="1529.030"/>
      <line x1="32.163" y1="1579.030" x2="32.163" y2="1529.030"/>
      <line x1="33.163" y1="1579.030" x2="33.163" y2="1529.030"/>
      <line x1="34.163" y1="1579.030" x2="34.163" y2="1529.030"/>
      <line x1="35.163" y1="1579.030" x2="35.163" y2="1529.030"/>
      <line x1="36.163" y1="1579.030" x2="36.163" y2="1529.030"/>
      <line x1="37.163" y1="1579.030" x2="37.163" y2="1529.030"/>
      <line x1="38.163" y1="1579.030" x2="38.163" y2="1529.030"/>
      <line x1="39.163" y1="1579.030" x2="39.163" y2="1529.030"/>
      <line x1="40.163" y1="1579.030" x2="40.163" y2="1529.030"/>
      <line x1="41.163" y1="1579.030" x2="41.163" y2="1529.030"/>
      <line x1="42.163" y1="1579.030" x2="42.163" y2="1529.030"/>
      <line x1="43.163" y1="1579.030" x2="43.163" y2="1529.030"/>
      <line x1="44.163" y1="1579.030" x2="44.163" y2="1529.030"/>
      <line x1="45.163" y1="1579.030" x2="45.163" y2="1529.030"/>
      <line x1="46.163" y1="1579.030" x2="46.163" y2="1529.030"/>
      <line x1="47.163" y1="1579.030" x2="47.163" y2="1529.030"/>
      <line x1="48.163" y1="1579.030" x2="48.163" y2="1529.030"/>
      <line x1="49.163" y1="1579.030" x2="49.163" y2="1529.030"/>
      <line x1="50.163" y1="1579.030" x2="50.163" y2="1529.030"/>
      <line x1="51.163" y1="1579.030" x2="51.163" y2="1529.030"/>
      <line x1="52.163" y1="1579.030" x2="52.163" y2="1529.030"/>
      <line x1="53.163" y1="1579.030" x2="53.163" y2="1529.030"/>
      <line x1="54.163" y1="1579.030" x2="54.163" y2="1529.030"/>
      <line x1="55.163" y1="1579.030" x2="55.163" y2="1529.030"/>
      <line x1="56.163" y1="1579.030" x2="56.163" y2="1529.030"/>
      <line x1="57.163" y1="1579.030" x2="57.163" y2="1529.030"/>
      <line x1="58.163" y1="1579.030" x2="58.163" y2="1529.030"/>
      <line x1="59.163" y1="1579.030" x2="59.163" y2="1529.030"/>
      <line x1="60.163" y1="1579.030" x2="60.163" y2="1529.030"/>
      <line x1="61.163" y1="1579.030" x2="61.163" y2="1529.030"/>
      <line x1="62.163" y1="1579.030" x2="62.163" y2="1529.030"/>
      <line x1="63.163" y1="1579.030" x2="63.163" y2="1529.030"/>
      <line x1="64.163" y1="1579.030" x2="64.163" y2="1529.030"/>
      <line x1="65.163" y1="1579.030" x2="65.163" y2="1529.030"/>
      <line x1="66.163" y1="1579.030" x2="66.163" y2="1529.030"/>
      <line x1="67.163" y1="1579.030" x2="67.163" y2="1529.030"/>
      <line x1="68.163" y1="1579.030" x2="68.163" y2="1529.030"/>
      <line x1="69.163" y1="1579.030" x2="69.163" y2="1529.030"/>
      <line x1="70.163" y1="1579.030" x2="70.163" y2="1529.030"/>
      <line x1="71.163" y1="1579.030" x2="71.163" y2="1529.030"/>
      <line x1="72.163" y1="1579.030" x2="72.163" y2="1529.030"/>
      <line x1="73.163" y1="1579.030" x2="73.163" y2="1529.030"/>
      <line x1="74.163" y1="1579.030" x2="74.163" y2="1529.030"/>
      <line x1="75.163" y1="1579.030" x2="75.163" y2="1529.030"/>
      <line x1="76.163" y1="1579.030" x2="76.163" y2="1529.030"/>
      <line x1="77.163" y1="1579.030" x2="77.163" y2="1529.030"/>
      <line x1="78.163" y1="1579.030" x2="78.163" y2="1529.030"/>
      <line x1="79.163" y1="1579.030" x2="79.163" y2="1529.030"/>
      <line x1="52.163" y1="1528.930" x2="52.163" y2="1525.229"/>
      <line x1="51.163" y1="1528.930" x2="51.163" y2="1525.229"/>
      <line x1="17.163" y1="1528.930" x2="17.163" y2="1525.229"/>
      <line x1="31.163" y1="1528.930" x2="31.163" y2="1525.229"/>
      <line x1="30.163" y1="1528.930" x2="30.163" y2="1525.229"/>
      <line x1="29.163" y1="1528.930" x2="29.163" y2="1525.229"/>
      <line x1="28.163" y1="1528.930" x2="28.163" y2="1525.229"/>
      <line x1="27.163" y1="1528.930" x2="27.163" y2="1525.229"/>
      <line x1="26.163" y1="1528.930" x2="26.163" y2="1525.229"/>
      <line x1="25.163" y1="1528.930" x2="25.163" y2="1525.229"/>
      <line x1="24.163" y1="1528.930" x2="24.163" y2="1525.229"/>
      <line x1="23.163" y1="1528.930" x2="23.163" y2="1525.229"/>
      <line x1="22.163" y1="1528.930" x2="22.163" y2="1525.229"/>
      <line x1="21.163" y1="1528.930" x2="21.163" y2="1525.229"/>
      <line x1="20.163" y1="1528.930" x2="20.163" y2="1525.229"/>
      <line x1="19.163" y1="1528.930" x2="19.163" y2="1525.229"/>
      <line x1="18.163" y1="1528.930" x2="18.163" y2="1525.229"/>
      <line x1="3.163" y1="1528.930" x2="3.163" y2="1525.229"/>
      <line x1="16.163" y1="1528.930" x2="16.163" y2="1525.229"/>
      <line x1="15.163" y1="1528.930" x2="15.163" y2="1525.229"/>
      <line x1="14.163" y1="1528.930" x2="14.163" y2="1525.229"/>
      <line x1="13.163" y1="1528.930" x2="13.163" y2="1525.229"/>
      <line x1="12.163" y1="1528.930" x2="12.163" y2="1525.229"/>
      <line x1="11.163" y1="1528.930" x2="11.163" y2="1525.229"/>
      <line x1="10.163" y1="1528.930" x2="10.163" y2="1525.229"/>
      <line x1="9.163" y1="1528.930" x2="9.163" y2="1525.229"/>
      <line x1="8.163" y1="1528.930" x2="8.163" y2="1525.229"/>
      <line x1="7.163" y1="1528.930" x2="7.163" y2="1525.229"/>
      <line x1="6.163" y1="1528.930" x2="6.163" y2="1525.229"/>
      <line x1="5.163" y1="1528.930" x2="5.163" y2="1525.229"/>
      <line x1="4.163" y1="1528.930" x2="4.163" y2="1525.229"/>
      <line x1="46.163" y1="1528.930" x2="46.163" y2="1525.229"/>
      <line x1="50.163" y1="1528.930" x2="50.163" y2="1525.229"/>
      <line x1="49.163" y1="1528.930" x2="49.163" y2="1525.229"/>
      <line x1="48.163" y1="1528.930" x2="48.163" y2="1525.229"/>
      <line x1="47.163" y1="1528.930" x2="47.163" y2="1525.229"/>
      <line x1="32.163" y1="1528.930" x2="32.163" y2="1525.229"/>
      <line x1="45.163" y1="1528.930" x2="45.163" y2="1525.229"/>
      <line x1="44.163" y1="1528.930" x2="44.163" y2="1525.229"/>
      <line x1="43.163" y1="1528.930" x2="43.163" y2="1525.229"/>
      <line x1="42.163" y1="1528.930" x2="42.163" y2="1525.229"/>
      <line x1="41.163" y1="1528.930" x2="41.163" y2="1525.229"/>
      <line x1="40.163" y1="1528.930" x2="40.163" y2="1525.229"/>
      <line x1="39.163" y1="1528.930" x2="39.163" y2="1525.229"/>
      <line x1="38.163" y1="1528.930" x2="38.163" y2="1525.229"/>
      <line x1="37.163" y1="1528.930" x2="37.163" y2="1525.229"/>
      <line x1="36.163" y1="1528.930" x2="36.163" y2="1525.229"/>
      <line x1="35.163" y1="1528.930" x2="35.163" y2="1525.229"/>
      <line x1="34.163" y1="1528.930" x2="34.163" y2="1525.229"/>
      <line x1="33.163" y1="1528.930" x2="33.163" y2="1525.229"/>
      <line x1="79.163" y1="1528.930" x2="79.163" y2="1525.229"/>
      <line x1="53.163" y1="1528.930" x2="53.163" y2="1525.229"/>
      <line x1="56.163" y1="1528.930" x2="56.163" y2="1525.229"/>
      <line x1="55.163" y1="1528.930" x2="55.163" y2="1525.229"/>
      <line x1="59.163" y1="1528.930" x2="59.163" y2="1525.229"/>
      <line x1="58.163" y1="1528.930" x2="58.163" y2="1525.229"/>
      <line x1="62.163" y1="1528.930" x2="62.163" y2="1525.229"/>
      <line x1="65.163" y1="1528.930" x2="65.163" y2="1525.229"/>
      <line x1="78.163" y1="1528.930" x2="78.163" y2="1525.229"/>
      <line x1="75.163" y1="1528.930" x2="75.163" y2="1525.229"/>
      <line x1="76.163" y1="1528.930" x2="76.163" y2="1525.229"/>
      <line x1="72.163" y1="1528.930" x2="72.163" y2="1525.229"/>
      <line x1="70.163" y1="1528.930" x2="70.163" y2="1525.229"/>
      <line x1="61.163" y1="1528.930" x2="61.163" y2="1525.229"/>
      <line x1="64.163" y1="1528.930" x2="64.163" y2="1525.229"/>
      <line x1="73.163" y1="1528.930" x2="73.163" y2="1525.229"/>
      <line x1="67.163" y1="1528.930" x2="67.163" y2="1525.229"/>
      <line x1="77.163" y1="1528.930" x2="77.163" y2="1525.229"/>
      <line x1="74.163" y1="1528.930" x2="74.163" y2="1525.229"/>
      <line x1="71.163" y1="1528.930" x2="71.163" y2="1525.229"/>
      <line x1="68.163" y1="1528.930" x2="68.163" y2="1525.229"/>
      <line x1="69.163" y1="1528.930" x2="69.163" y2="1525.229"/>
      <line x1="66.163" y1="1528.930" x2="66.163" y2="1525.229"/>
      <line x1="63.163" y1="1528.930" x2="63.163" y2="1525.229"/>
      <line x1="60.163" y1="1528.930" x2="60.163" y2="1525.229"/>
      <line x1="57.163" y1="1528.930" x2="57.163" y2="1525.229"/>
      <line x1="54.163" y1="1528.930" x2="54.163" y2="1525.229"/>
    </g>
    <g stroke="#1976D2" stroke-width="0.4">
      <polyline points="518.854,1682.729 600.500,1682.729 600.500,1521.729 518.854,1521.729" fill="none"/>
      <polyline points="518.854,1521.729 516.997,1521.729 516.997,1682.729 518.854,1682.729" fill="none"/>
      <polyline points="518.854,1681.730 599.500,1681.730 599.500,1522.729 518.854,1522.729" fill="none"/>
      <polyline points="518.854,1522.729 517.997,1522.729 517.997,1681.730 518.854,1681.730" fill="none"/>
      <polyline points="598.500,1523.729 518.997,1523.729 518.997,1680.730 598.500,1680.730 598.500,1523.729" fill="none"/>
      <polyline points="597.500,1524.729 519.997,1524.729 519.997,1679.729 597.500,1679.729 597.500,1524.729" fill="none"/>
      <polyline points="81.146,1521.729 -0.500,1521.729 -0.500,1682.729 81.146,1682.729" fill="none"/>
      <polyline points="81.146,1682.729 83.003,1682.729 83.003,1521.729 81.146,1521.729" fill="none"/>
      <polyline points="81.146,1522.729 0.500,1522.729 0.500,1681.730 81.146,1681.730" fill="none"/>
      <polyline points="81.146,1681.730 82.003,1681.730 82.003,1522.729 81.146,1522.729" fill="none"/>
      <polyline points="81.003,1523.729 1.500,1523.729 1.500,1680.730 81.003,1680.730 81.003,1523.729" fill="none"/>
      <polyline points="80.003,1524.729 2.500,1524.729 2.500,1679.729 80.003,1679.729 80.003,1524.729" fill="none"/>
    </g>
    <g stroke="#C62828" stroke-width="0.4" fill="none">
      <polygon points="294.233,1535.743 295.947,1534.870 297.307,1533.510 298.181,1531.796 298.481,1529.896 298.181,1527.996 297.307,1526.282 295.947,1524.922 294.233,1524.049 292.333,1523.748 290.433,1524.049 288.720,1524.922 287.359,1526.282 286.486,1527.996 286.185,1529.896 286.486,1531.796 287.359,1533.510 288.720,1534.870 290.433,1535.743 292.333,1536.044"/>
      <polygon points="314.211,1535.674 315.904,1534.811 317.248,1533.467 318.111,1531.773 318.408,1529.896 318.111,1528.019 317.248,1526.325 315.904,1524.981 314.211,1524.119 312.333,1523.821 310.456,1524.119 308.763,1524.981 307.419,1526.325 306.556,1528.019 306.258,1529.896 306.556,1531.773 307.419,1533.467 308.763,1534.811 310.456,1535.674 312.333,1535.971"/>
      <polygon points="273.787,1535.638 275.573,1534.855 277.008,1533.534 277.936,1531.819 278.257,1529.896 277.936,1527.973 277.008,1526.258 275.573,1524.937 273.787,1524.154 271.844,1523.993 269.954,1524.472 268.322,1525.538 267.124,1527.077 266.491,1528.921 266.491,1530.871 267.124,1532.715 268.322,1534.254 269.954,1535.321 271.844,1535.799"/>
      <polygon points="333.768,1535.562 335.530,1534.789 336.946,1533.486 337.862,1531.794 338.178,1529.896 337.862,1527.998 336.946,1526.306 335.530,1525.003 333.768,1524.230 331.851,1524.071 329.985,1524.543 328.375,1525.596 327.193,1527.114 326.568,1528.934 326.568,1530.858 327.193,1532.678 328.375,1534.196 329.985,1535.249 331.851,1535.721"/>
      <polygon points="253.728,1535.405 255.441,1534.653 256.818,1533.386 257.708,1531.741 258.016,1529.896 257.708,1528.051 256.818,1526.406 255.441,1525.139 253.728,1524.388 251.864,1524.233 250.051,1524.692 248.485,1525.715 247.336,1527.192 246.728,1528.961 246.728,1530.831 247.336,1532.601 248.485,1534.077 250.051,1535.100 251.864,1535.559"/>
      <polygon points="353.728,1535.405 355.441,1534.653 356.818,1533.386 357.708,1531.741 358.016,1529.896 357.708,1528.051 356.818,1526.406 355.441,1525.139 353.728,1524.388 351.864,1524.233 350.051,1524.692 348.485,1525.715 347.336,1527.192 346.728,1528.961 346.728,1530.831 347.336,1532.601 348.485,1534.077 350.051,1535.100 351.864,1535.559"/>
      <polygon points="233.687,1535.240 235.348,1534.511 236.683,1533.282 237.547,1531.686 237.846,1529.896 237.547,1528.106 236.683,1526.511 235.348,1525.282 233.687,1524.553 231.878,1524.403 230.119,1524.848 228.600,1525.841 227.486,1527.273 226.896,1528.989 226.896,1530.803 227.486,1532.520 228.600,1533.952 230.119,1534.944 231.878,1535.390"/>
      <polygon points="375.045,1534.593 376.488,1533.383 377.430,1531.751 377.757,1529.896 377.430,1528.041 376.488,1526.410 375.045,1525.199 373.275,1524.555 371.391,1524.555 369.621,1525.199 368.178,1526.410 367.237,1528.041 366.909,1529.896 367.237,1531.751 368.178,1533.383 369.621,1534.593 371.391,1535.238 373.275,1535.238"/>
      <polygon points="214.954,1534.435 216.348,1533.265 217.258,1531.689 217.574,1529.896 217.258,1528.104 216.348,1526.528 214.954,1525.358 213.243,1524.735 211.423,1524.735 209.713,1525.358 208.319,1526.528 207.409,1528.104 207.093,1529.896 207.409,1531.689 208.319,1533.265 209.713,1534.435 211.423,1535.057 213.243,1535.057"/>
      <polygon points="394.906,1534.352 396.275,1533.204 397.168,1531.656 397.479,1529.896 397.168,1528.136 396.275,1526.589 394.906,1525.440 393.227,1524.829 391.440,1524.829 389.761,1525.440 388.392,1526.589 387.498,1528.136 387.188,1529.896 387.498,1531.656 388.392,1533.204 389.761,1534.352 391.440,1534.963 393.227,1534.963"/>
      <polygon points="414.539,1534.325 415.989,1533.229 416.947,1531.683 417.281,1529.896 416.947,1528.109 415.989,1526.563 414.539,1525.467 412.790,1524.970 410.979,1525.138 409.352,1525.948 408.127,1527.292 407.470,1528.987 407.470,1530.805 408.127,1532.501 409.352,1533.844 410.979,1534.655 412.790,1534.822"/>
      <polygon points="194.539,1534.325 195.989,1533.229 196.947,1531.683 197.281,1529.896 196.947,1528.109 195.989,1526.563 194.539,1525.467 192.790,1524.970 190.979,1525.138 189.352,1525.948 188.127,1527.292 187.470,1528.987 187.470,1530.805 188.127,1532.501 189.352,1533.844 190.979,1534.655 192.790,1534.822"/>
      <polygon points="174.446,1534.138 175.835,1533.089 176.752,1531.608 177.072,1529.896 176.752,1528.184 175.835,1526.704 174.446,1525.654 172.771,1525.178 171.037,1525.338 169.478,1526.115 168.304,1527.402 167.675,1529.025 167.675,1530.767 168.304,1532.391 169.478,1533.678 171.037,1534.454 172.771,1534.615"/>
      <polygon points="434.397,1534.041 435.755,1533.015 436.651,1531.569 436.963,1529.896 436.651,1528.224 435.755,1526.777 434.397,1525.751 432.761,1525.286 431.066,1525.443 429.543,1526.201 428.397,1527.459 427.782,1529.045 427.782,1530.747 428.397,1532.334 429.543,1533.591 431.066,1534.350 432.761,1534.507"/>
      <polygon points="153.927,1533.743 155.278,1532.841 156.181,1531.490 156.498,1529.896 156.181,1528.303 155.278,1526.952 153.927,1526.049 152.333,1525.732 150.740,1526.049 149.389,1526.952 148.486,1528.303 148.169,1529.896 148.486,1531.490 149.389,1532.841 150.740,1533.743 152.333,1534.060"/>
      <polygon points="453.542,1533.615 454.950,1532.802 455.906,1531.487 456.244,1529.896 455.906,1528.306 454.950,1526.990 453.542,1526.177 451.925,1526.007 450.378,1526.510 449.170,1527.598 448.508,1529.083 448.508,1530.709 449.170,1532.195 450.378,1533.283 451.925,1533.785"/>
      <polygon points="134.331,1532.401 135.220,1531.286 135.538,1529.896 135.220,1528.506 134.331,1527.391 133.046,1526.772 131.620,1526.772 130.335,1527.391 129.446,1528.506 129.129,1529.896 129.446,1531.286 130.335,1532.401 131.620,1533.020 133.046,1533.020"/>
      <polygon points="473.974,1532.274 474.891,1531.239 475.222,1529.896 474.891,1528.554 473.974,1527.519 472.682,1527.028 471.309,1527.195 470.171,1527.980 469.528,1529.205 469.528,1530.588 470.171,1531.812 471.309,1532.597 472.682,1532.764"/>
      <polygon points="493.333,1531.628 494.065,1530.896 494.333,1529.896 494.065,1528.896 493.333,1528.164 492.333,1527.896 491.333,1528.164 490.601,1528.896 490.333,1529.896 490.601,1530.896 491.333,1531.628 492.333,1531.896"/>
      <polygon points="113.164,1531.715 114.016,1530.977 114.333,1529.896 114.016,1528.815 113.164,1528.077 112.049,1527.917 111.024,1528.385 110.414,1529.333 110.414,1530.460 111.024,1531.408 112.049,1531.876"/>
      <polygon points="294.233,1555.743 295.947,1554.870 297.307,1553.510 298.181,1551.796 298.481,1549.896 298.181,1547.996 297.307,1546.282 295.947,1544.922 294.233,1544.049 292.333,1543.748 290.433,1544.049 288.720,1544.922 287.359,1546.282 286.486,1547.996 286.185,1549.896 286.486,1551.796 287.359,1553.510 288.720,1554.870 290.433,1555.743 292.333,1556.044"/>
      <polygon points="314.211,1555.674 315.904,1554.811 317.248,1553.467 318.111,1551.773 318.408,1549.896 318.111,1548.019 317.248,1546.325 315.904,1544.981 314.211,1544.119 312.333,1543.821 310.456,1544.119 308.763,1544.981 307.419,1546.325 306.556,1548.019 306.258,1549.896 306.556,1551.773 307.419,1553.467 308.763,1554.811 310.456,1555.674 312.333,1555.971"/>
      <polygon points="273.787,1555.638 275.573,1554.855 277.008,1553.534 277.936,1551.819 278.257,1549.896 277.936,1547.973 277.008,1546.258 275.573,1544.937 273.787,1544.154 271.844,1543.993 269.954,1544.472 268.322,1545.538 267.124,1547.077 266.491,1548.921 266.491,1550.871 267.124,1552.715 268.322,1554.254 269.954,1555.321 271.844,1555.799"/>
      <polygon points="333.768,1555.562 335.530,1554.789 336.946,1553.486 337.862,1551.794 338.178,1549.896 337.862,1547.998 336.946,1546.306 335.530,1545.003 333.768,1544.230 331.851,1544.071 329.985,1544.543 328.375,1545.596 327.193,1547.114 326.568,1548.934 326.568,1550.858 327.193,1552.678 328.375,1554.196 329.985,1555.249 331.851,1555.721"/>
      <polygon points="253.728,1555.405 255.441,1554.653 256.818,1553.386 257.708,1551.741 258.016,1549.896 257.708,1548.051 256.818,1546.406 255.441,1545.139 253.728,1544.388 251.864,1544.233 250.051,1544.692 248.485,1545.715 247.336,1547.192 246.728,1548.961 246.728,1550.831 247.336,1552.601 248.485,1554.077 250.051,1555.100 251.864,1555.559"/>
      <polygon points="353.728,1555.405 355.441,1554.653 356.818,1553.386 357.708,1551.741 358.016,1549.896 357.708,1548.051 356.818,1546.406 355.441,1545.139 353.728,1544.388 351.864,1544.233 350.051,1544.692 348.485,1545.715 347.336,1547.192 346.728,1548.961 346.728,1550.831 347.336,1552.601 348.485,1554.077 350.051,1555.100 351.864,1555.559"/>
      <polygon points="233.687,1555.240 235.348,1554.511 236.683,1553.282 237.547,1551.686 237.846,1549.896 237.547,1548.106 236.683,1546.511 235.348,1545.282 233.687,1544.553 231.878,1544.403 230.119,1544.848 228.600,1545.841 227.486,1547.273 226.896,1548.989 226.896,1550.803 227.486,1552.520 228.600,1553.952 230.119,1554.944 231.878,1555.390"/>
      <polygon points="375.045,1554.593 376.488,1553.383 377.430,1551.751 377.757,1549.896 377.430,1548.041 376.488,1546.410 375.045,1545.199 373.275,1544.555 371.391,1544.555 369.621,1545.199 368.178,1546.410 367.237,1548.041 366.909,1549.896 367.237,1551.751 368.178,1553.383 369.621,1554.593 371.391,1555.238 373.275,1555.238"/>
      <polygon points="214.954,1554.435 216.348,1553.265 217.258,1551.689 217.574,1549.896 217.258,1548.104 216.348,1546.528 214.954,1545.358 213.243,1544.735 211.423,1544.735 209.713,1545.358 208.319,1546.528 207.409,1548.104 207.093,1549.896 207.409,1551.689 208.319,1553.265 209.713,1554.435 211.423,1555.057 213.243,1555.057"/>
      <polygon points="394.906,1554.352 396.275,1553.204 397.168,1551.656 397.479,1549.896 397.168,1548.136 396.275,1546.589 394.906,1545.440 393.227,1544.829 391.440,1544.829 389.761,1545.440 388.392,1546.589 387.498,1548.136 387.188,1549.896 387.498,1551.656 388.392,1553.204 389.761,1554.352 391.440,1554.963 393.227,1554.963"/>
      <polygon points="194.539,1554.325 195.989,1553.229 196.947,1551.683 197.281,1549.896 196.947,1548.109 195.989,1546.563 194.539,1545.467 192.790,1544.970 190.979,1545.138 189.352,1545.948 188.127,1547.292 187.470,1548.987 187.470,1550.805 188.127,1552.501 189.352,1553.844 190.979,1554.655 192.790,1554.822"/>
      <polygon points="414.539,1554.325 415.989,1553.229 416.947,1551.683 417.281,1549.896 416.947,1548.109 415.989,1546.563 414.539,1545.467 412.790,1544.970 410.979,1545.138 409.352,1545.948 408.127,1547.292 407.470,1548.987 407.470,1550.805 408.127,1552.501 409.352,1553.844 410.979,1554.655 412.790,1554.822"/>
      <polygon points="174.446,1554.138 175.835,1553.089 176.752,1551.608 177.072,1549.896 176.752,1548.184 175.835,1546.704 174.446,1545.654 172.771,1545.178 171.037,1545.338 169.478,1546.115 168.304,1547.402 167.675,1549.025 167.675,1550.767 168.304,1552.391 169.478,1553.678 171.037,1554.454 172.771,1554.615"/>
      <polygon points="434.397,1554.041 435.755,1553.015 436.651,1551.569 436.963,1549.896 436.651,1548.224 435.755,1546.777 434.397,1545.751 432.761,1545.286 431.066,1545.443 429.543,1546.201 428.397,1547.459 427.782,1549.045 427.782,1550.747 428.397,1552.334 429.543,1553.591 431.066,1554.350 432.761,1554.507"/>
      <polygon points="153.927,1553.743 155.278,1552.841 156.181,1551.490 156.498,1549.896 156.181,1548.303 155.278,1546.952 153.927,1546.049 152.333,1545.732 150.740,1546.049 149.389,1546.952 148.486,1548.303 148.169,1549.896 148.486,1551.490 149.389,1552.841 150.740,1553.743 152.333,1554.060"/>
      <polygon points="453.542,1553.615 454.950,1552.802 455.906,1551.487 456.244,1549.896 455.906,1548.306 454.950,1546.990 453.542,1546.177 451.925,1546.007 450.378,1546.510 449.170,1547.598 448.508,1549.083 448.508,1550.709 449.170,1552.195 450.378,1553.283 451.925,1553.785"/>
      <polygon points="134.331,1552.401 135.220,1551.286 135.538,1549.896 135.220,1548.506 134.331,1547.391 133.046,1546.772 131.620,1546.772 130.335,1547.391 129.446,1548.506 129.129,1549.896 129.446,1551.286 130.335,1552.401 131.620,1553.020 133.046,1553.020"/>
      <polygon points="473.974,1552.274 474.891,1551.239 475.222,1549.896 474.891,1548.554 473.974,1547.519 472.682,1547.028 471.309,1547.195 470.171,1547.980 469.528,1549.205 469.528,1550.588 470.171,1551.812 471.309,1552.597 472.682,1552.764"/>
      <polygon points="493.333,1551.628 494.065,1550.896 494.333,1549.896 494.065,1548.896 493.333,1548.164 492.333,1547.896 491.333,1548.164 490.601,1548.896 490.333,1549.896 490.601,1550.896 491.333,1551.628 492.333,1551.896"/>
      <polygon points="113.164,1551.715 114.016,1550.977 114.333,1549.896 114.016,1548.815 113.164,1548.077 112.049,1547.917 111.024,1548.385 110.414,1549.333 110.414,1550.460 111.024,1551.408 112.049,1551.876"/>
      <polygon points="294.233,1575.743 295.947,1574.870 297.307,1573.510 298.181,1571.796 298.481,1569.896 298.181,1567.996 297.307,1566.282 295.947,1564.922 294.233,1564.049 292.333,1563.748 290.433,1564.049 288.720,1564.922 287.359,1566.282 286.486,1567.996 286.185,1569.896 286.486,1571.796 287.359,1573.510 288.720,1574.870 290.433,1575.743 292.333,1576.044"/>
      <polygon points="314.211,1575.674 315.904,1574.811 317.248,1573.467 318.111,1571.773 318.408,1569.896 318.111,1568.019 317.248,1566.325 315.904,1564.981 314.211,1564.119 312.333,1563.821 310.456,1564.119 308.763,1564.981 307.419,1566.325 306.556,1568.019 306.258,1569.896 306.556,1571.773 307.419,1573.467 308.763,1574.811 310.456,1575.674 312.333,1575.971"/>
      <polygon points="273.787,1575.638 275.573,1574.855 277.008,1573.534 277.936,1571.819 278.257,1569.896 277.936,1567.973 277.008,1566.258 275.573,1564.937 273.787,1564.154 271.844,1563.993 269.954,1564.472 268.322,1565.538 267.124,1567.077 266.491,1568.921 266.491,1570.871 267.124,1572.715 268.322,1574.254 269.954,1575.321 271.844,1575.799"/>
      <polygon points="333.768,1575.562 335.530,1574.789 336.946,1573.486 337.862,1571.794 338.178,1569.896 337.862,1567.998 336.946,1566.306 335.530,1565.003 333.768,1564.230 331.851,1564.071 329.985,1564.543 328.375,1565.596 327.193,1567.114 326.568,1568.934 326.568,1570.858 327.193,1572.678 328.375,1574.196 329.985,1575.249 331.851,1575.721"/>
      <polygon points="353.728,1575.405 355.441,1574.653 356.818,1573.386 357.708,1571.741 358.016,1569.896 357.708,1568.051 356.818,1566.406 355.441,1565.139 353.728,1564.388 351.864,1564.233 350.051,1564.692 348.485,1565.715 347.336,1567.192 346.728,1568.961 346.728,1570.831 347.336,1572.601 348.485,1574.077 350.051,1575.100 351.864,1575.559"/>
      <polygon points="253.728,1575.405 255.441,1574.653 256.818,1573.386 257.708,1571.741 258.016,1569.896 257.708,1568.051 256.818,1566.406 255.441,1565.139 253.728,1564.388 251.864,1564.233 250.051,1564.692 248.485,1565.715 247.336,1567.192 246.728,1568.961 246.728,1570.831 247.336,1572.601 248.485,1574.077 250.051,1575.100 251.864,1575.559"/>
      <polygon points="233.687,1575.240 235.348,1574.511 236.683,1573.282 237.547,1571.686 237.846,1569.896 237.547,1568.106 236.683,1566.511 235.348,1565.282 233.687,1564.553 231.878,1564.403 230.119,1564.848 228.600,1565.841 227.486,1567.273 226.896,1568.989 226.896,1570.803 227.486,1572.520 228.600,1573.952 230.119,1574.944 231.878,1575.390"/>
      <polygon points="375.045,1574.593 376.488,1573.383 377.430,1571.751 377.757,1569.896 377.430,1568.041 376.488,1566.410 375.045,1565.199 373.275,1564.555 371.391,1564.555 369.621,1565.199 368.178,1566.410 367.237,1568.041 366.909,1569.896 367.237,1571.751 368.178,1573.383 369.621,1574.593 371.391,1575.238 373.275,1575.238"/>
      <polygon points="214.954,1574.435 216.348,1573.265 217.258,1571.689 217.574,1569.896 217.258,1568.104 216.348,1566.528 214.954,1565.358 213.243,1564.735 211.423,1564.735 209.713,1565.358 208.319,1566.528 207.409,1568.104 207.093,1569.896 207.409,1571.689 208.319,1573.265 209.713,1574.435 211.423,1575.057 213.243,1575.057"/>
      <polygon points="394.906,1574.352 396.275,1573.204 397.168,1571.656 397.479,1569.896 397.168,1568.136 396.275,1566.589 394.906,1565.440 393.227,1564.829 391.440,1564.829 389.761,1565.440 388.392,1566.589 387.498,1568.136 387.188,1569.896 387.498,1571.656 388.392,1573.204 389.761,1574.352 391.440,1574.963 393.227,1574.963"/>
      <polygon points="194.539,1574.325 195.989,1573.229 196.947,1571.683 197.281,1569.896 196.947,1568.109 195.989,1566.563 194.539,1565.467 192.790,1564.970 190.979,1565.138 189.352,1565.948 188.127,1567.292 187.470,1568.987 187.470,1570.805 188.127,1572.501 189.352,1573.844 190.979,1574.655 192.790,1574.822"/>
      <polygon points="414.539,1574.325 415.989,1573.229 416.947,1571.683 417.281,1569.896 416.947,1568.109 415.989,1566.563 414.539,1565.467 412.790,1564.970 410.979,1565.138 409.352,1565.948 408.127,1567.292 407.470,1568.987 407.470,1570.805 408.127,1572.501 409.352,1573.844 410.979,1574.655 412.790,1574.822"/>
      <polygon points="174.446,1574.138 175.835,1573.089 176.752,1571.608 177.072,1569.896 176.752,1568.184 175.835,1566.704 174.446,1565.654 172.771,1565.178 171.037,1565.338 169.478,1566.115 168.304,1567.402 167.675,1569.025 167.675,1570.767 168.304,1572.391 169.478,1573.678 171.037,1574.454 172.771,1574.615"/>
      <polygon points="434.397,1574.041 435.755,1573.015 436.651,1571.569 436.963,1569.896 436.651,1568.224 435.755,1566.777 434.397,1565.751 432.761,1565.286 431.066,1565.443 429.543,1566.201 428.397,1567.459 427.782,1569.045 427.782,1570.747 428.397,1572.334 429.543,1573.591 431.066,1574.350 432.761,1574.507"/>
      <polygon points="153.927,1573.743 155.278,1572.841 156.181,1571.490 156.498,1569.896 156.181,1568.303 155.278,1566.952 153.927,1566.049 152.333,1565.732 150.740,1566.049 149.389,1566.952 148.486,1568.303 148.169,1569.896 148.486,1571.490 149.389,1572.841 150.740,1573.743 152.333,1574.060"/>
      <polygon points="453.542,1573.615 454.950,1572.802 455.906,1571.487 456.244,1569.896 455.906,1568.306 454.950,1566.990 453.542,1566.177 451.925,1566.007 450.378,1566.510 449.170,1567.598 448.508,1569.083 448.508,1570.709 449.170,1572.195 450.378,1573.283 451.925,1573.785"/>
      <polygon points="134.331,1572.401 135.220,1571.286 135.538,1569.896 135.220,1568.506 134.331,1567.391 133.046,1566.772 131.620,1566.772 130.335,1567.391 129.446,1568.506 129.129,1569.896 129.446,1571.286 130.335,1572.401 131.620,1573.020 133.046,1573.020"/>
      <polygon points="473.974,1572.274 474.891,1571.239 475.222,1569.896 474.891,1568.554 473.974,1567.519 472.682,1567.028 471.309,1567.195 470.171,1567.980 469.528,1569.205 469.528,1570.588 470.171,1571.812 471.309,1572.597 472.682,1572.764"/>
      <polygon points="493.333,1571.628 494.065,1570.896 494.333,1569.896 494.065,1568.896 493.333,1568.164 492.333,1567.896 491.333,1568.164 490.601,1568.896 490.333,1569.896 490.601,1570.896 491.333,1571.628 492.333,1571.896"/>
      <polygon points="113.164,1571.715 114.016,1570.977 114.333,1569.896 114.016,1568.815 113.164,1568.077 112.049,1567.917 111.024,1568.385 110.414,1569.333 110.414,1570.460 111.024,1571.408 112.049,1571.876"/>
      <polygon points="294.233,1595.743 295.947,1594.870 297.307,1593.510 298.181,1591.796 298.481,1589.896 298.181,1587.996 297.307,1586.282 295.947,1584.922 294.233,1584.049 292.333,1583.748 290.433,1584.049 288.720,1584.922 287.359,1586.282 286.486,1587.996 286.185,1589.896 286.486,1591.796 287.359,1593.510 288.720,1594.870 290.433,1595.743 292.333,1596.044"/>
      <polygon points="314.211,1595.674 315.904,1594.811 317.248,1593.467 318.111,1591.773 318.408,1589.896 318.111,1588.019 317.248,1586.325 315.904,1584.981 314.211,1584.119 312.333,1583.821 310.456,1584.119 308.763,1584.981 307.419,1586.325 306.556,1588.019 306.258,1589.896 306.556,1591.773 307.419,1593.467 308.763,1594.811 310.456,1595.674 312.333,1595.971"/>
      <polygon points="273.787,1595.638 275.573,1594.855 277.008,1593.534 277.936,1591.819 278.257,1589.896 277.936,1587.973 277.008,1586.258 275.573,1584.937 273.787,1584.154 271.844,1583.993 269.954,1584.472 268.322,1585.538 267.124,1587.077 266.491,1588.921 266.491,1590.871 267.124,1592.715 268.322,1594.254 269.954,1595.321 271.844,1595.799"/>
      <polygon points="333.768,1595.562 335.530,1594.789 336.946,1593.486 337.862,1591.794 338.178,1589.896 337.862,1587.998 336.946,1586.306 335.530,1585.003 333.768,1584.230 331.851,1584.071 329.985,1584.543 328.375,1585.596 327.193,1587.114 326.568,1588.934 326.568,1590.858 327.193,1592.678 328.375,1594.196 329.985,1595.249 331.851,1595.721"/>
      <polygon points="253.728,1595.405 255.441,1594.653 256.818,1593.386 257.708,1591.741 258.016,1589.896 257.708,1588.051 256.818,1586.406 255.441,1585.139 253.728,1584.388 251.864,1584.233 250.051,1584.692 248.485,1585.715 247.336,1587.192 246.728,1588.961 246.728,1590.831 247.336,1592.601 248.485,1594.077 250.051,1595.100 251.864,1595.559"/>
      <polygon points="353.728,1595.405 355.441,1594.653 356.818,1593.386 357.708,1591.741 358.016,1589.896 357.708,1588.051 356.818,1586.406 355.441,1585.139 353.728,1584.388 351.864,1584.233 350.051,1584.692 348.485,1585.715 347.336,1587.192 346.728,1588.961 346.728,1590.831 347.336,1592.601 348.485,1594.077 350.051,1595.100 351.864,1595.559"/>
      <polygon points="233.687,1595.240 235.348,1594.511 236.683,1593.282 237.547,1591.686 237.846,1589.896 237.547,1588.106 236.683,1586.511 235.348,1585.282 233.687,1584.553 231.878,1584.403 230.119,1584.848 228.600,1585.841 227.486,1587.273 226.896,1588.989 226.896,1590.803 227.486,1592.520 228.600,1593.952 230.119,1594.944 231.878,1595.390"/>
      <polygon points="375.045,1594.593 376.488,1593.383 377.430,1591.751 377.757,1589.896 377.430,1588.041 376.488,1586.410 375.045,1585.199 373.275,1584.555 371.391,1584.555 369.621,1585.199 368.178,1586.410 367.237,1588.041 366.909,1589.896 367.237,1591.751 368.178,1593.383 369.621,1594.593 371.391,1595.238 373.275,1595.238"/>
      <polygon points="214.954,1594.435 216.348,1593.265 217.258,1591.689 217.574,1589.896 217.258,1588.104 216.348,1586.528 214.954,1585.358 213.243,1584.735 211.423,1584.735 209.713,1585.358 208.319,1586.528 207.409,1588.104 207.093,1589.896 207.409,1591.689 208.319,1593.265 209.713,1594.435 211.423,1595.057 213.243,1595.057"/>
      <polygon points="394.906,1594.352 396.275,1593.204 397.168,1591.656 397.479,1589.896 397.168,1588.136 396.275,1586.589 394.906,1585.440 393.227,1584.829 391.440,1584.829 389.761,1585.440 388.392,1586.589 387.498,1588.136 387.188,1589.896 387.498,1591.656 388.392,1593.204 389.761,1594.352 391.440,1594.963 393.227,1594.963"/>
      <polygon points="194.539,1594.325 195.989,1593.229 196.947,1591.683 197.281,1589.896 196.947,1588.109 195.989,1586.563 194.539,1585.467 192.790,1584.970 190.979,1585.138 189.352,1585.948 188.127,1587.292 187.470,1588.987 187.470,1590.805 188.127,1592.501 189.352,1593.844 190.979,1594.655 192.790,1594.822"/>
      <polygon points="414.539,1594.325 415.989,1593.229 416.947,1591.683 417.281,1589.896 416.947,1588.109 415.989,1586.563 414.539,1585.467 412.790,1584.970 410.979,1585.138 409.352,1585.948 408.127,1587.292 407.470,1588.987 407.470,1590.805 408.127,1592.501 409.352,1593.844 410.979,1594.655 412.790,1594.822"/>
      <polygon points="174.446,1594.138 175.835,1593.089 176.752,1591.608 177.072,1589.896 176.752,1588.184 175.835,1586.704 174.446,1585.654 172.771,1585.178 171.037,1585.338 169.478,1586.115 168.304,1587.402 167.675,1589.025 167.675,1590.767 168.304,1592.391 169.478,1593.678 171.037,1594.454 172.771,1594.615"/>
      <polygon points="434.397,1594.041 435.755,1593.015 436.651,1591.569 436.963,1589.896 436.651,1588.224 435.755,1586.777 434.397,1585.751 432.761,1585.286 431.066,1585.443 429.543,1586.201 428.397,1587.459 427.782,1589.045 427.782,1590.747 428.397,1592.334 429.543,1593.591 431.066,1594.350 432.761,1594.507"/>
      <polygon points="153.927,1593.743 155.278,1592.841 156.181,1591.490 156.498,1589.896 156.181,1588.303 155.278,1586.952 153.927,1586.049 152.333,1585.732 150.740,1586.049 149.389,1586.952 148.486,1588.303 148.169,1589.896 148.486,1591.490 149.389,1592.841 150.740,1593.743 152.333,1594.060"/>
      <polygon points="453.542,1593.615 454.950,1592.802 455.906,1591.487 456.244,1589.896 455.906,1588.306 454.950,1586.990 453.542,1586.177 451.925,1586.007 450.378,1586.510 449.170,1587.598 448.508,1589.083 448.508,1590.709 449.170,1592.195 450.378,1593.283 451.925,1593.785"/>
      <polygon points="134.331,1592.401 135.220,1591.286 135.538,1589.896 135.220,1588.506 134.331,1587.391 133.046,1586.772 131.620,1586.772 130.335,1587.391 129.446,1588.506 129.129,1589.896 129.446,1591.286 130.335,1592.401 131.620,1593.020 133.046,1593.020"/>
      <polygon points="473.974,1592.274 474.891,1591.239 475.222,1589.896 474.891,1588.554 473.974,1587.519 472.682,1587.028 471.309,1587.195 470.171,1587.980 469.528,1589.205 469.528,1590.588 470.171,1591.812 471.309,1592.597 472.682,1592.764"/>
      <polygon points="493.333,1591.628 494.065,1590.896 494.333,1589.896 494.065,1588.896 493.333,1588.164 492.333,1587.896 491.333,1588.164 490.601,1588.896 490.333,1589.896 490.601,1590.896 491.333,1591.628 492.333,1591.896"/>
      <polygon points="113.164,1591.715 114.016,1590.977 114.333,1589.896 114.016,1588.815 113.164,1588.077 112.049,1587.917 111.024,1588.385 110.414,1589.333 110.414,1590.460 111.024,1591.408 112.049,1591.876"/>
      <polygon points="294.233,1615.743 295.947,1614.870 297.307,1613.510 298.181,1611.796 298.481,1609.896 298.181,1607.996 297.307,1606.282 295.947,1604.922 294.233,1604.049 292.333,1603.748 290.433,1604.049 288.720,1604.922 287.359,1606.282 286.486,1607.996 286.185,1609.896 286.486,1611.796 287.359,1613.510 288.720,1614.870 290.433,1615.743 292.333,1616.044"/>
      <polygon points="314.211,1615.674 315.904,1614.811 317.248,1613.467 318.111,1611.773 318.408,1609.896 318.111,1608.019 317.248,1606.325 315.904,1604.981 314.211,1604.119 312.333,1603.821 310.456,1604.119 308.763,1604.981 307.419,1606.325 306.556,1608.019 306.258,1609.896 306.556,1611.773 307.419,1613.467 308.763,1614.811 310.456,1615.674 312.333,1615.971"/>
      <polygon points="273.787,1615.638 275.573,1614.855 277.008,1613.534 277.936,1611.819 278.257,1609.896 277.936,1607.973 277.008,1606.258 275.573,1604.937 273.787,1604.154 271.844,1603.993 269.954,1604.472 268.322,1605.538 267.124,1607.077 266.491,1608.921 266.491,1610.871 267.124,1612.715 268.322,1614.254 269.954,1615.321 271.844,1615.799"/>
      <polygon points="333.768,1615.562 335.530,1614.789 336.946,1613.486 337.862,1611.794 338.178,1609.896 337.862,1607.998 336.946,1606.306 335.530,1605.003 333.768,1604.230 331.851,1604.071 329.985,1604.543 328.375,1605.596 327.193,1607.114 326.568,1608.934 326.568,1610.858 327.193,1612.678 328.375,1614.196 329.985,1615.249 331.851,1615.721"/>
      <polygon points="353.728,1615.405 355.441,1614.653 356.818,1613.386 357.708,1611.741 358.016,1609.896 357.708,1608.051 356.818,1606.406 355.441,1605.139 353.728,1604.388 351.864,1604.233 350.051,1604.692 348.485,1605.715 347.336,1607.192 346.728,1608.961 346.728,1610.831 347.336,1612.601 348.485,1614.077 350.051,1615.100 351.864,1615.559"/>
      <polygon points="253.728,1615.405 255.441,1614.653 256.818,1613.386 257.708,1611.741 258.016,1609.896 257.708,1608.051 256.818,1606.406 255.441,1605.139 253.728,1604.388 251.864,1604.233 250.051,1604.692 248.485,1605.715 247.336,1607.192 246.728,1608.961 246.728,1610.831 247.336,1612.601 248.485,1614.077 250.051,1615.100 251.864,1615.559"/>
      <polygon points="233.687,1615.240 235.348,1614.511 236.683,1613.282 237.547,1611.686 237.846,1609.896 237.547,1608.106 236.683,1606.511 235.348,1605.282 233.687,1604.553 231.878,1604.403 230.119,1604.848 228.600,1605.841 227.486,1607.273 226.896,1608.989 226.896,1610.803 227.486,1612.520 228.600,1613.952 230.119,1614.944 231.878,1615.390"/>
      <polygon points="375.045,1614.593 376.488,1613.383 377.430,1611.751 377.757,1609.896 377.430,1608.041 376.488,1606.410 375.045,1605.199 373.275,1604.555 371.391,1604.555 369.621,1605.199 368.178,1606.410 367.237,1608.041 366.909,1609.896 367.237,1611.751 368.178,1613.383 369.621,1614.593 371.391,1615.238 373.275,1615.238"/>
      <polygon points="214.954,1614.435 216.348,1613.265 217.258,1611.689 217.574,1609.896 217.258,1608.104 216.348,1606.528 214.954,1605.358 213.243,1604.735 211.423,1604.735 209.713,1605.358 208.319,1606.528 207.409,1608.104 207.093,1609.896 207.409,1611.689 208.319,1613.265 209.713,1614.435 211.423,1615.057 213.243,1615.057"/>
      <polygon points="394.906,1614.352 396.275,1613.204 397.168,1611.656 397.479,1609.896 397.168,1608.136 396.275,1606.589 394.906,1605.440 393.227,1604.829 391.440,1604.829 389.761,1605.440 388.392,1606.589 387.498,1608.136 387.188,1609.896 387.498,1611.656 388.392,1613.204 389.761,1614.352 391.440,1614.963 393.227,1614.963"/>
      <polygon points="194.539,1614.325 195.989,1613.229 196.947,1611.683 197.281,1609.896 196.947,1608.109 195.989,1606.563 194.539,1605.467 192.790,1604.970 190.979,1605.138 189.352,1605.948 188.127,1607.292 187.470,1608.987 187.470,1610.805 188.127,1612.501 189.352,1613.844 190.979,1614.655 192.790,1614.822"/>
      <polygon points="414.539,1614.325 415.989,1613.229 416.947,1611.683 417.281,1609.896 416.947,1608.109 415.989,1606.563 414.539,1605.467 412.790,1604.970 410.979,1605.138 409.352,1605.948 408.127,1607.292 407.470,1608.987 407.470,1610.805 408.127,1612.501 409.352,1613.844 410.979,1614.655 412.790,1614.822"/>
      <polygon points="174.446,1614.138 175.835,1613.089 176.752,1611.608 177.072,1609.896 176.752,1608.184 175.835,1606.704 174.446,1605.654 172.771,1605.178 171.037,1605.338 169.478,1606.115 168.304,1607.402 167.675,1609.025 167.675,1610.767 168.304,1612.391 169.478,1613.678 171.037,1614.454 172.771,1614.615"/>
      <polygon points="434.397,1614.041 435.755,1613.015 436.651,1611.569 436.963,1609.896 436.651,1608.224 435.755,1606.777 434.397,1605.751 432.761,1605.286 431.066,1605.443 429.543,1606.201 428.397,1607.459 427.782,1609.045 427.782,1610.747 428.397,1612.334 429.543,1613.591 431.066,1614.350 432.761,1614.507"/>
      <polygon points="153.927,1613.743 155.278,1612.841 156.181,1611.490 156.498,1609.896 156.181,1608.303 155.278,1606.952 153.927,1606.049 152.333,1605.732 150.740,1606.049 149.389,1606.952 148.486,1608.303 148.169,1609.896 148.486,1611.490 149.389,1612.841 150.740,1613.743 152.333,1614.060"/>
      <polygon points="453.542,1613.615 454.950,1612.802 455.906,1611.487 456.244,1609.896 455.906,1608.306 454.950,1606.990 453.542,1606.177 451.925,1606.007 450.378,1606.510 449.170,1607.598 448.508,1609.083 448.508,1610.709 449.170,1612.195 450.378,1613.283 451.925,1613.785"/>
      <polygon points="134.331,1612.401 135.220,1611.286 135.538,1609.896 135.220,1608.506 134.331,1607.391 133.046,1606.772 131.620,1606.772 130.335,1607.391 129.446,1608.506 129.129,1609.896 129.446,1611.286 130.335,1612.401 131.620,1613.020 133.046,1613.020"/>
      <polygon points="473.974,1612.274 474.891,1611.239 475.222,1609.896 474.891,1608.554 473.974,1607.519 472.682,1607.028 471.309,1607.195 470.171,1607.980 469.528,1609.205 469.528,1610.588 470.171,1611.812 471.309,1612.597 472.682,1612.764"/>
      <polygon points="493.333,1611.628 494.065,1610.896 494.333,1609.896 494.065,1608.896 493.333,1608.164 492.333,1607.896 491.333,1608.164 490.601,1608.896 490.333,1609.896 490.601,1610.896 491.333,1611.628 492.333,1611.896"/>
      <polygon points="113.164,1611.715 114.016,1610.977 114.333,1609.896 114.016,1608.815 113.164,1608.077 112.049,1607.917 111.024,1608.385 110.414,1609.333 110.414,1610.460 111.024,1611.408 112.049,1611.876"/>
      <polygon points="294.233,1635.743 295.947,1634.870 297.307,1633.510 298.181,1631.796 298.481,1629.896 298.181,1627.996 297.307,1626.282 295.947,1624.922 294.233,1624.049 292.333,1623.748 290.433,1624.049 288.720,1624.922 287.359,1626.282 286.486,1627.996 286.185,1629.896 286.486,1631.796 287.359,1633.510 288.720,1634.870 290.433,1635.743 292.333,1636.044"/>
      <polygon points="314.211,1635.674 315.904,1634.811 317.248,1633.467 318.111,1631.773 318.408,1629.896 318.111,1628.019 317.248,1626.325 315.904,1624.981 314.211,1624.119 312.333,1623.821 310.456,1624.119 308.763,1624.981 307.419,1626.325 306.556,1628.019 306.258,1629.896 306.556,1631.773 307.419,1633.467 308.763,1634.811 310.456,1635.674 312.333,1635.971"/>
      <polygon points="273.787,1635.638 275.573,1634.855 277.008,1633.534 277.936,1631.819 278.257,1629.896 277.936,1627.973 277.008,1626.258 275.573,1624.937 273.787,1624.154 271.844,1623.993 269.954,1624.472 268.322,1625.538 267.124,1627.077 266.491,1628.921 266.491,1630.871 267.124,1632.715 268.322,1634.254 269.954,1635.321 271.844,1635.799"/>
      <polygon points="333.768,1635.562 335.530,1634.789 336.946,1633.486 337.862,1631.794 338.178,1629.896 337.862,1627.998 336.946,1626.306 335.530,1625.003 333.768,1624.230 331.851,1624.071 329.985,1624.543 328.375,1625.596 327.193,1627.114 326.568,1628.934 326.568,1630.858 327.193,1632.678 328.375,1634.196 329.985,1635.249 331.851,1635.721"/>
      <polygon points="253.728,1635.405 255.441,1634.653 256.818,1633.386 257.708,1631.741 258.016,1629.896 257.708,1628.051 256.818,1626.406 255.441,1625.139 253.728,1624.388 251.864,1624.233 250.051,1624.692 248.485,1625.715 247.336,1627.192 246.728,1628.961 246.728,1630.831 247.336,1632.601 248.485,1634.077 250.051,1635.100 251.864,1635.559"/>
      <polygon points="353.728,1635.405 355.441,1634.653 356.818,1633.386 357.708,1631.741 358.016,1629.896 357.708,1628.051 356.818,1626.406 355.441,1625.139 353.728,1624.388 351.864,1624.233 350.051,1624.692 348.485,1625.715 347.336,1627.192 346.728,1628.961 346.728,1630.831 347.336,1632.601 348.485,1634.077 350.051,1635.100 351.864,1635.559"/>
      <polygon points="233.687,1635.240 235.348,1634.511 236.683,1633.282 237.547,1631.686 237.846,1629.896 237.547,1628.106 236.683,1626.511 235.348,1625.282 233.687,1624.553 231.878,1624.403 230.119,1624.848 228.600,1625.841 227.486,1627.273 226.896,1628.989 226.896,1630.803 227.486,1632.520 228.600,1633.952 230.119,1634.944 231.878,1635.390"/>
      <polygon points="375.045,1634.593 376.488,1633.383 377.430,1631.751 377.757,1629.896 377.430,1628.041 376.488,1626.410 375.045,1625.199 373.275,1624.555 371.391,1624.555 369.621,1625.199 368.178,1626.410 367.237,1628.041 366.909,1629.896 367.237,1631.751 368.178,1633.383 369.621,1634.593 371.391,1635.238 373.275,1635.238"/>
      <polygon points="214.954,1634.435 216.348,1633.265 217.258,1631.689 217.574,1629.896 217.258,1628.104 216.348,1626.528 214.954,1625.358 213.243,1624.735 211.423,1624.735 209.713,1625.358 208.319,1626.528 207.409,1628.104 207.093,1629.896 207.409,1631.689 208.319,1633.265 209.713,1634.435 211.423,1635.057 213.243,1635.057"/>
      <polygon points="394.906,1634.352 396.275,1633.204 397.168,1631.656 397.479,1629.896 397.168,1628.136 396.275,1626.589 394.906,1625.440 393.227,1624.829 391.440,1624.829 389.761,1625.440 388.392,1626.589 387.498,1628.136 387.188,1629.896 387.498,1631.656 388.392,1633.204 389.761,1634.352 391.440,1634.963 393.227,1634.963"/>
      <polygon points="414.539,1634.325 415.989,1633.229 416.947,1631.683 417.281,1629.896 416.947,1628.109 415.989,1626.563 414.539,1625.467 412.790,1624.970 410.979,1625.138 409.352,1625.948 408.127,1627.292 407.470,1628.987 407.470,1630.805 408.127,1632.501 409.352,1633.844 410.979,1634.655 412.790,1634.822"/>
      <polygon points="194.539,1634.325 195.989,1633.229 196.947,1631.683 197.281,1629.896 196.947,1628.109 195.989,1626.563 194.539,1625.467 192.790,1624.970 190.979,1625.138 189.352,1625.948 188.127,1627.292 187.470,1628.987 187.470,1630.805 188.127,1632.501 189.352,1633.844 190.979,1634.655 192.790,1634.822"/>
      <polygon points="174.446,1634.138 175.835,1633.089 176.752,1631.608 177.072,1629.896 176.752,1628.184 175.835,1626.704 174.446,1625.654 172.771,1625.178 171.037,1625.338 169.478,1626.115 168.304,1627.402 167.675,1629.025 167.675,1630.767 168.304,1632.391 169.478,1633.678 171.037,1634.454 172.771,1634.615"/>
      <polygon points="434.397,1634.041 435.755,1633.015 436.651,1631.569 436.963,1629.896 436.651,1628.224 435.755,1626.777 434.397,1625.751 432.761,1625.286 431.066,1625.443 429.543,1626.201 428.397,1627.459 427.782,1629.045 427.782,1630.747 428.397,1632.334 429.543,1633.591 431.066,1634.350 432.761,1634.507"/>
      <polygon points="153.927,1633.743 155.278,1632.841 156.181,1631.490 156.498,1629.896 156.181,1628.303 155.278,1626.952 153.927,1626.049 152.333,1625.732 150.740,1626.049 149.389,1626.952 148.486,1628.303 148.169,1629.896 148.486,1631.490 149.389,1632.841 150.740,1633.743 152.333,1634.060"/>
      <polygon points="453.542,1633.615 454.950,1632.802 455.906,1631.487 456.244,1629.896 455.906,1628.306 454.950,1626.990 453.542,1626.177 451.925,1626.007 450.378,1626.510 449.170,1627.598 448.508,1629.083 448.508,1630.709 449.170,1632.195 450.378,1633.283 451.925,1633.785"/>
      <polygon points="134.331,1632.401 135.220,1631.286 135.538,1629.896 135.220,1628.506 134.331,1627.391 133.046,1626.772 131.620,1626.772 130.335,1627.391 129.446,1628.506 129.129,1629.896 129.446,1631.286 130.335,1632.401 131.620,1633.020 133.046,1633.020"/>
      <polygon points="473.974,1632.274 474.891,1631.239 475.222,1629.896 474.891,1628.554 473.974,1627.519 472.682,1627.028 471.309,1627.195 470.171,1627.980 469.528,1629.205 469.528,1630.588 470.171,1631.812 471.309,1632.597 472.682,1632.764"/>
      <polygon points="493.333,1631.628 494.065,1630.896 494.333,1629.896 494.065,1628.896 493.333,1628.164 492.333,1627.896 491.333,1628.164 490.601,1628.896 490.333,1629.896 490.601,1630.896 491.333,1631.628 492.333,1631.896"/>
      <polygon points="113.164,1631.715 114.016,1630.977 114.333,1629.896 114.016,1628.815 113.164,1628.077 112.049,1627.917 111.024,1628.385 110.414,1629.333 110.414,1630.460 111.024,1631.408 112.049,1631.876"/>
      <polygon points="294.233,1655.743 295.947,1654.870 297.307,1653.510 298.181,1651.796 298.481,1649.896 298.181,1647.996 297.307,1646.282 295.947,1644.922 294.233,1644.049 292.333,1643.748 290.433,1644.049 288.720,1644.922 287.359,1646.282 286.486,1647.996 286.185,1649.896 286.486,1651.796 287.359,1653.510 288.720,1654.870 290.433,1655.743 292.333,1656.044"/>
      <polygon points="314.211,1655.674 315.904,1654.811 317.248,1653.467 318.111,1651.773 318.408,1649.896 318.111,1648.019 317.248,1646.325 315.904,1644.981 314.211,1644.119 312.333,1643.821 310.456,1644.119 308.763,1644.981 307.419,1646.325 306.556,1648.019 306.258,1649.896 306.556,1651.773 307.419,1653.467 308.763,1654.811 310.456,1655.674 312.333,1655.971"/>
      <polygon points="273.787,1655.638 275.573,1654.855 277.008,1653.534 277.936,1651.819 278.257,1649.896 277.936,1647.973 277.008,1646.258 275.573,1644.937 273.787,1644.154 271.844,1643.993 269.954,1644.472 268.322,1645.538 267.124,1647.077 266.491,1648.921 266.491,1650.871 267.124,1652.715 268.322,1654.254 269.954,1655.321 271.844,1655.799"/>
      <polygon points="333.768,1655.562 335.530,1654.789 336.946,1653.486 337.862,1651.794 338.178,1649.896 337.862,1647.998 336.946,1646.306 335.530,1645.003 333.768,1644.230 331.851,1644.071 329.985,1644.543 328.375,1645.596 327.193,1647.114 326.568,1648.934 326.568,1650.858 327.193,1652.678 328.375,1654.196 329.985,1655.249 331.851,1655.721"/>
      <polygon points="253.728,1655.405 255.441,1654.653 256.818,1653.386 257.708,1651.741 258.016,1649.896 257.708,1648.051 256.818,1646.406 255.441,1645.139 253.728,1644.388 251.864,1644.233 250.051,1644.692 248.485,1645.715 247.336,1647.192 246.728,1648.961 246.728,1650.831 247.336,1652.601 248.485,1654.077 250.051,1655.100 251.864,1655.559"/>
      <polygon points="353.728,1655.405 355.441,1654.653 356.818,1653.386 357.708,1651.741 358.016,1649.896 357.708,1648.051 356.818,1646.406 355.441,1645.139 353.728,1644.388 351.864,1644.233 350.051,1644.692 348.485,1645.715 347.336,1647.192 346.728,1648.961 346.728,1650.831 347.336,1652.601 348.485,1654.077 350.051,1655.100 351.864,1655.559"/>
      <polygon points="233.687,1655.240 235.348,1654.511 236.683,1653.282 237.547,1651.686 237.846,1649.896 237.547,1648.106 236.683,1646.511 235.348,1645.282 233.687,1644.553 231.878,1644.403 230.119,1644.848 228.600,1645.841 227.486,1647.273 226.896,1648.989 226.896,1650.803 227.486,1652.520 228.600,1653.952 230.119,1654.944 231.878,1655.390"/>
      <polygon points="375.045,1654.593 376.488,1653.383 377.430,1651.751 377.757,1649.896 377.430,1648.041 376.488,1646.410 375.045,1645.199 373.275,1644.555 371.391,1644.555 369.621,1645.199 368.178,1646.410 367.237,1648.041 366.909,1649.896 367.237,1651.751 368.178,1653.383 369.621,1654.593 371.391,1655.238 373.275,1655.238"/>
      <polygon points="214.954,1654.435 216.348,1653.265 217.258,1651.689 217.574,1649.896 217.258,1648.104 216.348,1646.528 214.954,1645.358 213.243,1644.735 211.423,1644.735 209.713,1645.358 208.319,1646.528 207.409,1648.104 207.093,1649.896 207.409,1651.689 208.319,1653.265 209.713,1654.435 211.423,1655.057 213.243,1655.057"/>
      <polygon points="394.906,1654.352 396.275,1653.204 397.168,1651.656 397.479,1649.896 397.168,1648.136 396.275,1646.589 394.906,1645.440 393.227,1644.829 391.440,1644.829 389.761,1645.440 388.392,1646.589 387.498,1648.136 387.188,1649.896 387.498,1651.656 388.392,1653.204 389.761,1654.352 391.440,1654.963 393.227,1654.963"/>
      <polygon points="194.539,1654.325 195.989,1653.229 196.947,1651.683 197.281,1649.896 196.947,1648.109 195.989,1646.563 194.539,1645.467 192.790,1644.970 190.979,1645.138 189.352,1645.948 188.127,1647.292 187.470,1648.987 187.470,1650.805 188.127,1652.501 189.352,1653.844 190.979,1654.655 192.790,1654.822"/>
      <polygon points="414.539,1654.325 415.989,1653.229 416.947,1651.683 417.281,1649.896 416.947,1648.109 415.989,1646.563 414.539,1645.467 412.790,1644.970 410.979,1645.138 409.352,1645.948 408.127,1647.292 407.470,1648.987 407.470,1650.805 408.127,1652.501 409.352,1653.844 410.979,1654.655 412.790,1654.822"/>
      <polygon points="174.446,1654.138 175.835,1653.089 176.752,1651.608 177.072,1649.896 176.752,1648.184 175.835,1646.704 174.446,1645.654 172.771,1645.178 171.037,1645.338 169.478,1646.115 168.304,1647.402 167.675,1649.025 167.675,1650.767 168.304,1652.391 169.478,1653.678 171.037,1654.454 172.771,1654.615"/>
      <polygon points="434.397,1654.041 435.755,1653.015 436.651,1651.569 436.963,1649.896 436.651,1648.224 435.755,1646.777 434.397,1645.751 432.761,1645.286 431.066,1645.443 429.543,1646.201 428.397,1647.459 427.782,1649.045 427.782,1650.747 428.397,1652.334 429.543,1653.591 431.066,1654.350 432.761,1654.507"/>
      <polygon points="153.927,1653.743 155.278,1652.841 156.181,1651.490 156.498,1649.896 156.181,1648.303 155.278,1646.952 153.927,1646.049 152.333,1645.732 150.740,1646.049 149.389,1646.952 148.486,1648.303 148.169,1649.896 148.486,1651.490 149.389,1652.841 150.740,1653.743 152.333,1654.060"/>
      <polygon points="453.542,1653.615 454.950,1652.802 455.906,1651.487 456.244,1649.896 455.906,1648.306 454.950,1646.990 453.542,1646.177 451.925,1646.007 450.378,1646.510 449.170,1647.598 448.508,1649.083 448.508,1650.709 449.170,1652.195 450.378,1653.283 451.925,1653.785"/>
      <polygon points="134.331,1652.401 135.220,1651.286 135.538,1649.896 135.220,1648.506 134.331,1647.391 133.046,1646.772 131.620,1646.772 130.335,1647.391 129.446,1648.506 129.129,1649.896 129.446,1651.286 130.335,1652.401 131.620,1653.020 133.046,1653.020"/>
      <polygon points="473.974,1652.274 474.891,1651.239 475.222,1649.896 474.891,1648.554 473.974,1647.519 472.682,1647.028 471.309,1647.195 470.171,1647.980 469.528,1649.205 469.528,1650.588 470.171,1651.812 471.309,1652.597 472.682,1652.764"/>
      <polygon points="493.333,1651.628 494.065,1650.896 494.333,1649.896 494.065,1648.896 493.333,1648.164 492.333,1647.896 491.333,1648.164 490.601,1648.896 490.333,1649.896 490.601,1650.896 491.333,1651.628 492.333,1651.896"/>
      <polygon points="113.164,1651.715 114.016,1650.977 114.333,1649.896 114.016,1648.815 113.164,1648.077 112.049,1647.917 111.024,1648.385 110.414,1649.333 110.414,1650.460 111.024,1651.408 112.049,1651.876"/>
      <polygon points="294.233,1675.743 295.947,1674.870 297.307,1673.510 298.181,1671.796 298.481,1669.896 298.181,1667.996 297.307,1666.282 295.947,1664.922 294.233,1664.049 292.333,1663.748 290.433,1664.049 288.720,1664.922 287.359,1666.282 286.486,1667.996 286.185,1669.896 286.486,1671.796 287.359,1673.510 288.720,1674.870 290.433,1675.743 292.333,1676.044"/>
      <polygon points="314.211,1675.674 315.904,1674.811 317.248,1673.467 318.111,1671.773 318.408,1669.896 318.111,1668.019 317.248,1666.325 315.904,1664.981 314.211,1664.119 312.333,1663.821 310.456,1664.119 308.763,1664.981 307.419,1666.325 306.556,1668.019 306.258,1669.896 306.556,1671.773 307.419,1673.467 308.763,1674.811 310.456,1675.674 312.333,1675.971"/>
      <polygon points="273.787,1675.638 275.573,1674.855 277.008,1673.534 277.936,1671.819 278.257,1669.896 277.936,1667.973 277.008,1666.258 275.573,1664.937 273.787,1664.154 271.844,1663.993 269.954,1664.472 268.322,1665.538 267.124,1667.077 266.491,1668.921 266.491,1670.871 267.124,1672.715 268.322,1674.254 269.954,1675.321 271.844,1675.799"/>
      <polygon points="333.768,1675.562 335.530,1674.789 336.946,1673.486 337.862,1671.794 338.178,1669.896 337.862,1667.998 336.946,1666.306 335.530,1665.003 333.768,1664.230 331.851,1664.071 329.985,1664.543 328.375,1665.596 327.193,1667.114 326.568,1668.934 326.568,1670.858 327.193,1672.678 328.375,1674.196 329.985,1675.249 331.851,1675.721"/>
      <polygon points="253.728,1675.405 255.441,1674.653 256.818,1673.386 257.708,1671.741 258.016,1669.896 257.708,1668.051 256.818,1666.406 255.441,1665.139 253.728,1664.388 251.864,1664.233 250.051,1664.692 248.485,1665.715 247.336,1667.192 246.728,1668.961 246.728,1670.831 247.336,1672.601 248.485,1674.077 250.051,1675.100 251.864,1675.559"/>
      <polygon points="353.728,1675.405 355.441,1674.653 356.818,1673.386 357.708,1671.741 358.016,1669.896 357.708,1668.051 356.818,1666.406 355.441,1665.139 353.728,1664.388 351.864,1664.233 350.051,1664.692 348.485,1665.715 347.336,1667.192 346.728,1668.961 346.728,1670.831 347.336,1672.601 348.485,1674.077 350.051,1675.100 351.864,1675.559"/>
      <polygon points="233.687,1675.240 235.348,1674.511 236.683,1673.282 237.547,1671.686 237.846,1669.896 237.547,1668.106 236.683,1666.511 235.348,1665.282 233.687,1664.553 231.878,1664.403 230.119,1664.848 228.600,1665.841 227.486,1667.273 226.896,1668.989 226.896,1670.803 227.486,1672.520 228.600,1673.952 230.119,1674.944 231.878,1675.390"/>
      <polygon points="375.045,1674.593 376.488,1673.383 377.430,1671.751 377.757,1669.896 377.430,1668.041 376.488,1666.410 375.045,1665.199 373.275,1664.555 371.391,1664.555 369.621,1665.199 368.178,1666.410 367.237,1668.041 366.909,1669.896 367.237,1671.751 368.178,1673.383 369.621,1674.593 371.391,1675.238 373.275,1675.238"/>
      <polygon points="214.954,1674.435 216.348,1673.265 217.258,1671.689 217.574,1669.896 217.258,1668.104 216.348,1666.528 214.954,1665.358 213.243,1664.735 211.423,1664.735 209.713,1665.358 208.319,1666.528 207.409,1668.104 207.093,1669.896 207.409,1671.689 208.319,1673.265 209.713,1674.435 211.423,1675.057 213.243,1675.057"/>
      <polygon points="394.906,1674.352 396.275,1673.204 397.168,1671.656 397.479,1669.896 397.168,1668.136 396.275,1666.589 394.906,1665.440 393.227,1664.829 391.440,1664.829 389.761,1665.440 388.392,1666.589 387.498,1668.136 387.188,1669.896 387.498,1671.656 388.392,1673.204 389.761,1674.352 391.440,1674.963 393.227,1674.963"/>
      <polygon points="414.539,1674.325 415.989,1673.229 416.947,1671.683 417.281,1669.896 416.947,1668.109 415.989,1666.563 414.539,1665.467 412.790,1664.970 410.979,1665.138 409.352,1665.948 408.127,1667.292 407.470,1668.987 407.470,1670.805 408.127,1672.501 409.352,1673.844 410.979,1674.655 412.790,1674.822"/>
      <polygon points="194.539,1674.325 195.989,1673.229 196.947,1671.683 197.281,1669.896 196.947,1668.109 195.989,1666.563 194.539,1665.467 192.790,1664.970 190.979,1665.138 189.352,1665.948 188.127,1667.292 187.470,1668.987 187.470,1670.805 188.127,1672.501 189.352,1673.844 190.979,1674.655 192.790,1674.822"/>
      <polygon points="174.446,1674.138 175.835,1673.089 176.752,1671.608 177.072,1669.896 176.752,1668.184 175.835,1666.704 174.446,1665.654 172.771,1665.178 171.037,1665.338 169.478,1666.115 168.304,1667.402 167.675,1669.025 167.675,1670.767 168.304,1672.391 169.478,1673.678 171.037,1674.454 172.771,1674.615"/>
      <polygon points="434.397,1674.041 435.755,1673.015 436.651,1671.569 436.963,1669.896 436.651,1668.224 435.755,1666.777 434.397,1665.751 432.761,1665.286 431.066,1665.443 429.543,1666.201 428.397,1667.459 427.782,1669.045 427.782,1670.747 428.397,1672.334 429.543,1673.591 431.066,1674.350 432.761,1674.507"/>
      <polygon points="153.927,1673.743 155.278,1672.841 156.181,1671.490 156.498,1669.896 156.181,1668.303 155.278,1666.952 153.927,1666.049 152.333,1665.732 150.740,1666.049 149.389,1666.952 148.486,1668.303 148.169,1669.896 148.486,1671.490 149.389,1672.841 150.740,1673.743 152.333,1674.060"/>
      <polygon points="453.542,1673.615 454.950,1672.802 455.906,1671.487 456.244,1669.896 455.906,1668.306 454.950,1666.990 453.542,1666.177 451.925,1666.007 450.378,1666.510 449.170,1667.598 448.508,1669.083 448.508,1670.709 449.170,1672.195 450.378,1673.283 451.925,1673.785"/>
      <polygon points="134.331,1672.401 135.220,1671.286 135.538,1669.896 135.220,1668.506 134.331,1667.391 133.046,1666.772 131.620,1666.772 130.335,1667.391 129.446,1668.506 129.129,1669.896 129.446,1671.286 130.335,1672.401 131.620,1673.020 133.046,1673.020"/>
      <polygon points="473.974,1672.274 474.891,1671.239 475.222,1669.896 474.891,1668.554 473.974,1667.519 472.682,1667.028 471.309,1667.195 470.171,1667.980 469.528,1669.205 469.528,1670.588 470.171,1671.812 471.309,1672.597 472.682,1672.764"/>
      <polygon points="493.333,1671.628 494.065,1670.896 494.333,1669.896 494.065,1668.896 493.333,1668.164 492.333,1667.896 491.333,1668.164 490.601,1668.896 490.333,1669.896 490.601,1670.896 491.333,1671.628 492.333,1671.896"/>
      <polygon points="113.164,1671.715 114.016,1670.977 114.333,1669.896 114.016,1668.815 113.164,1668.077 112.049,1667.917 111.024,1668.385 110.414,1669.333 110.414,1670.460 111.024,1671.408 112.049,1671.876"/>
    </g>
    <g stroke="#EF6C00" stroke-width="0.4" fill="none">
    </g>
  </g>
  <g stroke="#000000" stroke-width="0.4">
    <line x1="500.000" y1="1000.000" x2="1500.000" y2="1000.000"/>
  </g>
  <g stroke="#000000" stroke-width="0.4">
    <line x1="1000.000" y1="500.000" x2="1000.000" y2="1500.000"/>
  </g>
  <circle cx="1000.000" cy="1000.000" r="1000.000" stroke="red" stroke-width="1" fill="none"/>
  </g>
</svg>
