<?xml version="1.0" encoding="UTF-8"?>
<svg xmlns="http://www.w3.org/2000/svg" version="1.1" width="2000" height="2000">
  <g fill="none" stroke-linecap="round" stroke-linejoin="round">
  <text x="10" y="20" font-size="24" fill="#555">Layer 260 Z=64.000 mm</text>
  <g transform="translate(700.000,-602.229)">
    <g stroke="#2E7D32" stroke-width="0.4">
      <line x1="121.889" y1="1679.230" x2="121.889" y2="1629.230"/>
      <line x1="122.889" y1="1679.230" x2="122.889" y2="1629.230"/>
      <line x1="123.889" y1="1679.230" x2="123.889" y2="1629.230"/>
      <line x1="124.889" y1="1679.230" x2="124.889" y2="1629.230"/>
      <line x1="125.889" y1="1679.230" x2="125.889" y2="1629.230"/>
      <line x1="126.889" y1="1679.230" x2="126.889" y2="1629.230"/>
      <line x1="127.889" y1="1679.230" x2="127.889" y2="1629.230"/>
      <line x1="128.889" y1="1679.230" x2="128.889" y2="1629.230"/>
      <line x1="129.889" y1="1679.230" x2="129.889" y2="1629.230"/>
      <line x1="130.889" y1="1679.230" x2="130.889" y2="1629.230"/>
      <line x1="131.889" y1="1679.230" x2="131.889" y2="1629.230"/>
      <line x1="132.889" y1="1679.230" x2="132.889" y2="1629.230"/>
      <line x1="133.889" y1="1679.230" x2="133.889" y2="1629.230"/>
      <line x1="134.889" y1="1679.230" x2="134.889" y2="1629.230"/>
      <line x1="135.889" y1="1679.230" x2="135.889" y2="1629.230"/>
      <line x1="136.889" y1="1679.230" x2="136.889" y2="1629.230"/>
      <line x1="137.889" y1="1679.230" x2="137.889" y2="1629.230"/>
      <line x1="138.889" y1="1679.230" x2="138.889" y2="1629.230"/>
      <line x1="139.889" y1="1679.230" x2="139.889" y2="1629.230"/>
      <line x1="140.889" y1="1679.230" x2="140.889" y2="1629.230"/>
      <line x1="141.889" y1="1679.230" x2="141.889" y2="1629.230"/>
      <line x1="142.889" y1="1679.230" x2="142.889" y2="1629.230"/>
      <line x1="143.889" y1="1679.230" x2="143.889" y2="1629.230"/>
      <line x1="144.889" y1="1679.230" x2="144.889" y2="1629.230"/>
      <line x1="145.889" y1="1679.230" x2="145.889" y2="1629.230"/>
      <line x1="146.889" y1="1679.230" x2="146.889" y2="1629.230"/>
      <line x1="147.889" y1="1679.230" x2="147.889" y2="1629.230"/>
      <line x1="148.889" y1="1679.230" x2="148.889" y2="1629.230"/>
      <line x1="149.889" y1="1679.230" x2="149.889" y2="1629.230"/>
      <line x1="150.889" y1="1679.230" x2="150.889" y2="1629.230"/>
      <line x1="151.889" y1="1679.230" x2="151.889" y2="1629.230"/>
      <line x1="152.889" y1="1679.230" x2="152.889" y2="1629.230"/>
      <line x1="153.889" y1="1679.230" x2="153.889" y2="1629.230"/>
      <line x1="154.889" y1="1679.230" x2="154.889" y2="1629.230"/>
      <line x1="155.889" y1="1679.230" x2="155.889" y2="1629.230"/>
      <line x1="156.889" y1="1679.230" x2="156.889" y2="1629.230"/>
      <line x1="157.889" y1="1679.230" x2="157.889" y2="1629.230"/>
      <line x1="158.889" y1="1679.230" x2="158.889" y2="1629.230"/>
      <line x1="159.889" y1="1679.230" x2="159.889" y2="1629.230"/>
      <line x1="160.889" y1="1679.230" x2="160.889" y2="1629.230"/>
      <line x1="161.889" y1="1679.230" x2="161.889" y2="1629.230"/>
      <line x1="162.889" y1="1679.230" x2="162.889" y2="1629.230"/>
      <line x1="163.889" y1="1679.230" x2="163.889" y2="1629.230"/>
      <line x1="164.889" y1="1679.230" x2="164.889" y2="1629.230"/>
      <line x1="165.889" y1="1679.230" x2="165.889" y2="1629.230"/>
      <line x1="166.889" y1="1679.230" x2="166.889" y2="1629.230"/>
      <line x1="167.889" y1="1679.230" x2="167.889" y2="1629.230"/>
      <line x1="168.889" y1="1679.230" x2="168.889" y2="1629.230"/>
      <line x1="169.889" y1="1679.230" x2="169.889" y2="1629.230"/>
      <line x1="170.889" y1="1679.230" x2="170.889" y2="1629.230"/>
      <line x1="171.889" y1="1679.230" x2="171.889" y2="1629.230"/>
      <line x1="172.889" y1="1679.230" x2="172.889" y2="1629.230"/>
      <line x1="173.889" y1="1679.230" x2="173.889" y2="1629.230"/>
      <line x1="174.889" y1="1679.230" x2="174.889" y2="1629.230"/>
      <line x1="175.889" y1="1679.230" x2="175.889" y2="1629.230"/>
      <line x1="176.889" y1="1679.230" x2="176.889" y2="1629.230"/>
      <line x1="177.889" y1="1679.230" x2="177.889" y2="1629.230"/>
      <line x1="178.889" y1="1679.230" x2="178.889" y2="1629.230"/>
      <line x1="179.889" y1="1679.230" x2="179.889" y2="1629.230"/>
      <line x1="180.889" y1="1679.230" x2="180.889" y2="1629.230"/>
      <line x1="181.889" y1="1679.230" x2="181.889" y2="1629.230"/>
      <line x1="182.889" y1="1679.230" x2="182.889" y2="1629.230"/>
      <line x1="183.889" y1="1679.230" x2="183.889" y2="1629.230"/>
      <line x1="184.889" y1="1679.230" x2="184.889" y2="1629.230"/>
      <line x1="185.889" y1="1679.230" x2="185.889" y2="1629.230"/>
      <line x1="186.889" y1="1679.230" x2="186.889" y2="1629.230"/>
      <line x1="187.889" y1="1679.230" x2="187.889" y2="1629.230"/>
      <line x1="188.889" y1="1679.230" x2="188.889" y2="1629.230"/>
      <line x1="189.889" y1="1679.230" x2="189.889" y2="1629.230"/>
      <line x1="190.889" y1="1679.230" x2="190.889" y2="1629.230"/>
      <line x1="191.889" y1="1679.230" x2="191.889" y2="1629.230"/>
      <line x1="192.889" y1="1679.230" x2="192.889" y2="1629.230"/>
      <line x1="193.889" y1="1679.230" x2="193.889" y2="1629.230"/>
      <line x1="194.889" y1="1679.230" x2="194.889" y2="1629.230"/>
      <line x1="195.889" y1="1679.230" x2="195.889" y2="1629.230"/>
      <line x1="196.889" y1="1679.230" x2="196.889" y2="1629.230"/>
      <line x1="197.889" y1="1679.230" x2="197.889" y2="1629.230"/>
      <line x1="198.889" y1="1679.230" x2="198.889" y2="1629.230"/>
      <line x1="199.889" y1="1679.230" x2="199.889" y2="1629.230"/>
      <line x1="200.889" y1="1679.230" x2="200.889" y2="1629.230"/>
      <line x1="201.889" y1="1679.230" x2="201.889" y2="1629.230"/>
      <line x1="202.889" y1="1679.230" x2="202.889" y2="1629.230"/>
      <line x1="203.889" y1="1679.230" x2="203.889" y2="1629.230"/>
      <line x1="204.889" y1="1679.230" x2="204.889" y2="1629.230"/>
      <line x1="205.889" y1="1679.230" x2="205.889" y2="1629.230"/>
      <line x1="206.889" y1="1679.230" x2="206.889" y2="1629.230"/>
      <line x1="207.889" y1="1679.230" x2="207.889" y2="1629.230"/>
      <line x1="208.889" y1="1679.230" x2="208.889" y2="1629.230"/>
      <line x1="209.889" y1="1679.230" x2="209.889" y2="1629.230"/>
      <line x1="210.889" y1="1679.230" x2="210.889" y2="1629.230"/>
      <line x1="211.889" y1="1679.230" x2="211.889" y2="1629.230"/>
      <line x1="212.889" y1="1679.230" x2="212.889" y2="1629.230"/>
      <line x1="213.889" y1="1679.230" x2="213.889" y2="1629.230"/>
      <line x1="214.889" y1="1679.230" x2="214.889" y2="1629.230"/>
      <line x1="215.889" y1="1679.230" x2="215.889" y2="1629.230"/>
      <line x1="216.889" y1="1679.230" x2="216.889" y2="1629.230"/>
      <line x1="217.889" y1="1679.230" x2="217.889" y2="1629.230"/>
      <line x1="218.889" y1="1679.230" x2="218.889" y2="1629.230"/>
      <line x1="219.889" y1="1679.230" x2="219.889" y2="1629.230"/>
      <line x1="220.889" y1="1679.230" x2="220.889" y2="1629.230"/>
      <line x1="222.889" y1="1679.230" x2="222.889" y2="1629.230"/>
      <line x1="223.889" y1="1679.230" x2="223.889" y2="1629.230"/>
      <line x1="224.889" y1="1679.230" x2="224.889" y2="1629.230"/>
      <line x1="225.889" y1="1679.230" x2="225.889" y2="1629.230"/>
      <line x1="226.889" y1="1679.230" x2="226.889" y2="1629.230"/>
      <line x1="227.889" y1="1679.230" x2="227.889" y2="1629.230"/>
      <line x1="228.889" y1="1679.230" x2="228.889" y2="1629.230"/>
      <line x1="229.889" y1="1679.230" x2="229.889" y2="1629.230"/>
      <line x1="230.889" y1="1679.230" x2="230.889" y2="1629.230"/>
      <line x1="231.889" y1="1679.230" x2="231.889" y2="1629.230"/>
      <line x1="232.889" y1="1679.230" x2="232.889" y2="1629.230"/>
      <line x1="233.889" y1="1679.230" x2="233.889" y2="1629.230"/>
      <line x1="234.889" y1="1679.230" x2="234.889" y2="1629.230"/>
      <line x1="235.889" y1="1679.230" x2="235.889" y2="1629.230"/>
      <line x1="236.889" y1="1679.230" x2="236.889" y2="1629.230"/>
      <line x1="237.889" y1="1679.230" x2="237.889" y2="1629.230"/>
      <line x1="238.889" y1="1679.230" x2="238.889" y2="1629.230"/>
      <line x1="239.889" y1="1679.230" x2="239.889" y2="1629.230"/>
      <line x1="240.889" y1="1679.230" x2="240.889" y2="1629.230"/>
      <line x1="241.889" y1="1679.230" x2="241.889" y2="1629.230"/>
      <line x1="242.889" y1="1679.230" x2="242.889" y2="1629.230"/>
      <line x1="243.889" y1="1679.230" x2="243.889" y2="1629.230"/>
      <line x1="244.889" y1="1679.230" x2="244.889" y2="1629.230"/>
      <line x1="245.889" y1="1679.230" x2="245.889" y2="1629.230"/>
      <line x1="246.889" y1="1679.230" x2="246.889" y2="1629.230"/>
      <line x1="247.889" y1="1679.230" x2="247.889" y2="1629.230"/>
      <line x1="248.889" y1="1679.230" x2="248.889" y2="1629.230"/>
      <line x1="249.889" y1="1679.230" x2="249.889" y2="1629.230"/>
      <line x1="250.889" y1="1679.230" x2="250.889" y2="1629.230"/>
      <line x1="251.889" y1="1679.230" x2="251.889" y2="1629.230"/>
      <line x1="252.889" y1="1679.230" x2="252.889" y2="1629.230"/>
      <line x1="253.889" y1="1679.230" x2="253.889" y2="1629.230"/>
      <line x1="254.889" y1="1679.230" x2="254.889" y2="1629.230"/>
      <line x1="255.889" y1="1679.230" x2="255.889" y2="1629.230"/>
      <line x1="256.889" y1="1679.230" x2="256.889" y2="1629.230"/>
      <line x1="257.889" y1="1679.230" x2="257.889" y2="1629.230"/>
      <line x1="258.889" y1="1679.230" x2="258.889" y2="1629.230"/>
      <line x1="259.889" y1="1679.230" x2="259.889" y2="1629.230"/>
      <line x1="260.889" y1="1679.230" x2="260.889" y2="1629.230"/>
      <line x1="261.889" y1="1679.230" x2="261.889" y2="1629.230"/>
      <line x1="262.889" y1="1679.230" x2="262.889" y2="1629.230"/>
      <line x1="263.889" y1="1679.230" x2="263.889" y2="1629.230"/>
      <line x1="264.889" y1="1679.230" x2="264.889" y2="1629.230"/>
      <line x1="265.889" y1="1679.230" x2="265.889" y2="1629.230"/>
      <line x1="266.889" y1="1679.230" x2="266.889" y2="1629.230"/>
      <line x1="267.889" y1="1679.230" x2="267.889" y2="1629.230"/>
      <line x1="268.889" y1="1679.230" x2="268.889" y2="1629.230"/>
      <line x1="269.889" y1="1679.230" x2="269.889" y2="1629.230"/>
      <line x1="270.889" y1="1679.230" x2="270.889" y2="1629.230"/>
      <line x1="271.889" y1="1679.230" x2="271.889" y2="1629.230"/>
      <line x1="272.889" y1="1679.230" x2="272.889" y2="1629.230"/>
      <line x1="273.889" y1="1679.230" x2="273.889" y2="1629.230"/>
      <line x1="274.889" y1="1679.230" x2="274.889" y2="1629.230"/>
      <line x1="275.889" y1="1679.230" x2="275.889" y2="1629.230"/>
      <line x1="276.889" y1="1679.230" x2="276.889" y2="1629.230"/>
      <line x1="277.889" y1="1679.230" x2="277.889" y2="1629.230"/>
      <line x1="278.889" y1="1679.230" x2="278.889" y2="1629.230"/>
      <line x1="279.889" y1="1679.230" x2="279.889" y2="1629.230"/>
      <line x1="280.889" y1="1679.230" x2="280.889" y2="1629.230"/>
      <line x1="281.889" y1="1679.230" x2="281.889" y2="1629.230"/>
      <line x1="282.889" y1="1679.230" x2="282.889" y2="1629.230"/>
      <line x1="283.889" y1="1679.230" x2="283.889" y2="1629.230"/>
      <line x1="284.889" y1="1679.230" x2="284.889" y2="1629.230"/>
      <line x1="285.889" y1="1679.230" x2="285.889" y2="1629.230"/>
      <line x1="286.889" y1="1679.230" x2="286.889" y2="1629.230"/>
      <line x1="287.889" y1="1679.230" x2="287.889" y2="1629.230"/>
      <line x1="288.889" y1="1679.230" x2="288.889" y2="1629.230"/>
      <line x1="289.889" y1="1679.230" x2="289.889" y2="1629.230"/>
      <line x1="290.889" y1="1679.230" x2="290.889" y2="1629.230"/>
      <line x1="291.889" y1="1679.230" x2="291.889" y2="1629.230"/>
      <line x1="292.889" y1="1679.230" x2="292.889" y2="1629.230"/>
      <line x1="293.889" y1="1679.230" x2="293.889" y2="1629.230"/>
      <line x1="294.889" y1="1679.230" x2="294.889" y2="1629.230"/>
      <line x1="295.889" y1="1679.230" x2="295.889" y2="1629.230"/>
      <line x1="296.889" y1="1679.230" x2="296.889" y2="1629.230"/>
      <line x1="297.889" y1="1679.230" x2="297.889" y2="1629.230"/>
      <line x1="298.889" y1="1679.230" x2="298.889" y2="1629.230"/>
      <line x1="299.889" y1="1679.230" x2="299.889" y2="1629.230"/>
      <line x1="300.889" y1="1679.230" x2="300.889" y2="1629.230"/>
      <line x1="301.889" y1="1679.230" x2="301.889" y2="1629.230"/>
      <line x1="302.889" y1="1679.230" x2="302.889" y2="1629.230"/>
      <line x1="303.889" y1="1679.230" x2="303.889" y2="1629.230"/>
      <line x1="304.889" y1="1679.230" x2="304.889" y2="1629.230"/>
      <line x1="305.889" y1="1679.230" x2="305.889" y2="1629.230"/>
      <line x1="306.889" y1="1679.230" x2="306.889" y2="1629.230"/>
      <line x1="307.889" y1="1679.230" x2="307.889" y2="1629.230"/>
      <line x1="308.889" y1="1679.230" x2="308.889" y2="1629.230"/>
      <line x1="309.889" y1="1679.230" x2="309.889" y2="1629.230"/>
      <line x1="310.889" y1="1679.230" x2="310.889" y2="1629.230"/>
      <line x1="311.889" y1="1679.230" x2="311.889" y2="1629.230"/>
      <line x1="312.889" y1="1679.230" x2="312.889" y2="1629.230"/>
      <line x1="313.889" y1="1679.230" x2="313.889" y2="1629.230"/>
      <line x1="314.889" y1="1679.230" x2="314.889" y2="1629.230"/>
      <line x1="315.889" y1="1679.230" x2="315.889" y2="1629.230"/>
      <line x1="316.889" y1="1679.230" x2="316.889" y2="1629.230"/>
      <line x1="317.889" y1="1679.230" x2="317.889" y2="1629.230"/>
      <line x1="318.889" y1="1679.230" x2="318.889" y2="1629.230"/>
      <line x1="319.889" y1="1679.230" x2="319.889" y2="1629.230"/>
      <line x1="320.889" y1="1679.230" x2="320.889" y2="1629.230"/>
      <line x1="321.889" y1="1679.230" x2="321.889" y2="1629.230"/>
      <line x1="322.889" y1="1679.230" x2="322.889" y2="1629.230"/>
      <line x1="323.889" y1="1679.230" x2="323.889" y2="1629.230"/>
      <line x1="324.889" y1="1679.230" x2="324.889" y2="1629.230"/>
      <line x1="325.889" y1="1679.230" x2="325.889" y2="1629.230"/>
      <line x1="326.889" y1="1679.230" x2="326.889" y2="1629.230"/>
      <line x1="327.889" y1="1679.230" x2="327.889" y2="1629.230"/>
      <line x1="328.889" y1="1679.230" x2="328.889" y2="1629.230"/>
      <line x1="329.889" y1="1679.230" x2="329.889" y2="1629.230"/>
      <line x1="330.889" y1="1679.230" x2="330.889" y2="1629.230"/>
      <line x1="331.889" y1="1679.230" x2="331.889" y2="1629.230"/>
      <line x1="332.889" y1="1679.230" x2="332.889" y2="1629.230"/>
      <line x1="333.889" y1="1679.230" x2="333.889" y2="1629.230"/>
      <line x1="334.889" y1="1679.230" x2="334.889" y2="1629.230"/>
      <line x1="335.889" y1="1679.230" x2="335.889" y2="1629.230"/>
      <line x1="336.889" y1="1679.230" x2="336.889" y2="1629.230"/>
      <line x1="337.889" y1="1679.230" x2="337.889" y2="1629.230"/>
      <line x1="338.889" y1="1679.230" x2="338.889" y2="1629.230"/>
      <line x1="339.889" y1="1679.230" x2="339.889" y2="1629.230"/>
      <line x1="340.889" y1="1679.230" x2="340.889" y2="1629.230"/>
      <line x1="341.889" y1="1679.230" x2="341.889" y2="1629.230"/>
      <line x1="342.889" y1="1679.230" x2="342.889" y2="1629.230"/>
      <line x1="343.889" y1="1679.230" x2="343.889" y2="1629.230"/>
      <line x1="344.889" y1="1679.230" x2="344.889" y2="1629.230"/>
      <line x1="345.889" y1="1679.230" x2="345.889" y2="1629.230"/>
      <line x1="346.889" y1="1679.230" x2="346.889" y2="1629.230"/>
      <line x1="347.889" y1="1679.230" x2="347.889" y2="1629.230"/>
      <line x1="348.889" y1="1679.230" x2="348.889" y2="1629.230"/>
      <line x1="349.889" y1="1679.230" x2="349.889" y2="1629.230"/>
      <line x1="350.889" y1="1679.230" x2="350.889" y2="1629.230"/>
      <line x1="351.889" y1="1679.230" x2="351.889" y2="1629.230"/>
      <line x1="352.889" y1="1679.230" x2="352.889" y2="1629.230"/>
      <line x1="353.889" y1="1679.230" x2="353.889" y2="1629.230"/>
      <line x1="354.889" y1="1679.230" x2="354.889" y2="1629.230"/>
      <line x1="355.889" y1="1679.230" x2="355.889" y2="1629.230"/>
      <line x1="356.889" y1="1679.230" x2="356.889" y2="1629.230"/>
      <line x1="357.889" y1="1679.230" x2="357.889" y2="1629.230"/>
      <line x1="358.889" y1="1679.230" x2="358.889" y2="1629.230"/>
      <line x1="359.889" y1="1679.230" x2="359.889" y2="1629.230"/>
      <line x1="360.889" y1="1679.230" x2="360.889" y2="1629.230"/>
      <line x1="361.889" y1="1679.230" x2="361.889" y2="1629.230"/>
      <line x1="362.889" y1="1679.230" x2="362.889" y2="1629.230"/>
      <line x1="363.889" y1="1679.230" x2="363.889" y2="1629.230"/>
      <line x1="364.889" y1="1679.230" x2="364.889" y2="1629.230"/>
      <line x1="365.889" y1="1679.230" x2="365.889" y2="1629.230"/>
      <line x1="366.889" y1="1679.230" x2="366.889" y2="1629.230"/>
      <line x1="367.889" y1="1679.230" x2="367.889" y2="1629.230"/>
      <line x1="368.889" y1="1679.230" x2="368.889" y2="1629.230"/>
      <line x1="369.889" y1="1679.230" x2="369.889" y2="1629.230"/>
      <line x1="370.889" y1="1679.230" x2="370.889" y2="1629.230"/>
      <line x1="371.889" y1="1679.230" x2="371.889" y2="1629.230"/>
      <line x1="372.889" y1="1679.230" x2="372.889" y2="1629.230"/>
      <line x1="373.889" y1="1679.230" x2="373.889" y2="1629.230"/>
      <line x1="374.889" y1="1679.230" x2="374.889" y2="1629.230"/>
      <line x1="375.889" y1="1679.230" x2="375.889" y2="1629.230"/>
      <line x1="376.889" y1="1679.230" x2="376.889" y2="1629.230"/>
      <line x1="377.889" y1="1679.230" x2="377.889" y2="1629.230"/>
      <line x1="378.889" y1="1679.230" x2="378.889" y2="1629.230"/>
      <line x1="379.889" y1="1679.230" x2="379.889" y2="1629.230"/>
      <line x1="380.889" y1="1679.230" x2="380.889" y2="1629.230"/>
      <line x1="381.889" y1="1679.230" x2="381.889" y2="1629.230"/>
      <line x1="382.889" y1="1679.230" x2="382.889" y2="1629.230"/>
      <line x1="383.889" y1="1679.230" x2="383.889" y2="1629.230"/>
      <line x1="384.889" y1="1679.230" x2="384.889" y2="1629.230"/>
      <line x1="385.889" y1="1679.230" x2="385.889" y2="1629.230"/>
      <line x1="386.889" y1="1679.230" x2="386.889" y2="1629.230"/>
      <line x1="387.889" y1="1679.230" x2="387.889" y2="1629.230"/>
      <line x1="388.889" y1="1679.230" x2="388.889" y2="1629.230"/>
      <line x1="389.889" y1="1679.230" x2="389.889" y2="1629.230"/>
      <line x1="390.889" y1="1679.230" x2="390.889" y2="1629.230"/>
      <line x1="391.889" y1="1679.230" x2="391.889" y2="1629.230"/>
      <line x1="392.889" y1="1679.230" x2="392.889" y2="1629.230"/>
      <line x1="393.889" y1="1679.230" x2="393.889" y2="1629.230"/>
      <line x1="394.889" y1="1679.230" x2="394.889" y2="1629.230"/>
      <line x1="395.889" y1="1679.230" x2="395.889" y2="1629.230"/>
      <line x1="396.889" y1="1679.230" x2="396.889" y2="1629.230"/>
      <line x1="397.889" y1="1679.230" x2="397.889" y2="1629.230"/>
      <line x1="398.889" y1="1679.230" x2="398.889" y2="1629.230"/>
      <line x1="399.889" y1="1679.230" x2="399.889" y2="1629.230"/>
      <line x1="400.889" y1="1679.230" x2="400.889" y2="1629.230"/>
      <line x1="401.889" y1="1679.230" x2="401.889" y2="1629.230"/>
      <line x1="402.889" y1="1679.230" x2="402.889" y2="1629.230"/>
      <line x1="403.889" y1="1679.230" x2="403.889" y2="1629.230"/>
      <line x1="404.889" y1="1679.230" x2="404.889" y2="1629.230"/>
      <line x1="405.889" y1="1679.230" x2="405.889" y2="1629.230"/>
      <line x1="406.889" y1="1679.230" x2="406.889" y2="1629.230"/>
      <line x1="407.889" y1="1679.230" x2="407.889" y2="1629.230"/>
      <line x1="408.889" y1="1679.230" x2="408.889" y2="1629.230"/>
      <line x1="409.889" y1="1679.230" x2="409.889" y2="1629.230"/>
      <line x1="410.889" y1="1679.230" x2="410.889" y2="1629.230"/>
      <line x1="411.889" y1="1679.230" x2="411.889" y2="1629.230"/>
      <line x1="412.889" y1="1679.230" x2="412.889" y2="1629.230"/>
      <line x1="413.889" y1="1679.230" x2="413.889" y2="1629.230"/>
      <line x1="414.889" y1="1679.230" x2="414.889" y2="1629.230"/>
      <line x1="415.889" y1="1679.230" x2="415.889" y2="1629.230"/>
      <line x1="416.889" y1="1679.230" x2="416.889" y2="1629.230"/>
      <line x1="417.889" y1="1679.230" x2="417.889" y2="1629.230"/>
      <line x1="418.889" y1="1679.230" x2="418.889" y2="1629.230"/>
      <line x1="419.889" y1="1679.230" x2="419.889" y2="1629.230"/>
      <line x1="420.889" y1="1679.230" x2="420.889" y2="1629.230"/>
      <line x1="421.889" y1="1679.230" x2="421.889" y2="1629.230"/>
      <line x1="422.889" y1="1679.230" x2="422.889" y2="1629.230"/>
      <line x1="423.889" y1="1679.230" x2="423.889" y2="1629.230"/>
      <line x1="424.889" y1="1679.230" x2="424.889" y2="1629.230"/>
      <line x1="425.889" y1="1679.230" x2="425.889" y2="1629.230"/>
      <line x1="426.889" y1="1679.230" x2="426.889" y2="1629.230"/>
      <line x1="427.889" y1="1679.230" x2="427.889" y2="1629.230"/>
      <line x1="428.889" y1="1679.230" x2="428.889" y2="1629.230"/>
      <line x1="429.889" y1="1679.230" x2="429.889" y2="1629.230"/>
      <line x1="430.889" y1="1679.230" x2="430.889" y2="1629.230"/>
      <line x1="431.889" y1="1679.230" x2="431.889" y2="1629.230"/>
      <line x1="432.889" y1="1679.230" x2="432.889" y2="1629.230"/>
      <line x1="433.889" y1="1679.230" x2="433.889" y2="1629.230"/>
      <line x1="434.889" y1="1679.230" x2="434.889" y2="1629.230"/>
      <line x1="435.889" y1="1679.230" x2="435.889" y2="1629.230"/>
      <line x1="436.889" y1="1679.230" x2="436.889" y2="1629.230"/>
      <line x1="437.889" y1="1679.230" x2="437.889" y2="1629.230"/>
      <line x1="438.889" y1="1679.230" x2="438.889" y2="1629.230"/>
      <line x1="439.889" y1="1679.230" x2="439.889" y2="1629.230"/>
      <line x1="440.889" y1="1679.230" x2="440.889" y2="1629.230"/>
      <line x1="441.889" y1="1679.230" x2="441.889" y2="1629.230"/>
      <line x1="442.889" y1="1679.230" x2="442.889" y2="1629.230"/>
      <line x1="443.889" y1="1679.230" x2="443.889" y2="1629.230"/>
      <line x1="444.889" y1="1679.230" x2="444.889" y2="1629.230"/>
      <line x1="445.889" y1="1679.230" x2="445.889" y2="1629.230"/>
      <line x1="446.889" y1="1679.230" x2="446.889" y2="1629.230"/>
      <line x1="447.889" y1="1679.230" x2="447.889" y2="1629.230"/>
      <line x1="448.889" y1="1679.230" x2="448.889" y2="1629.230"/>
      <line x1="449.889" y1="1679.230" x2="449.889" y2="1629.230"/>
      <line x1="450.889" y1="1679.230" x2="450.889" y2="1629.230"/>
      <line x1="451.889" y1="1679.230" x2="451.889" y2="1629.230"/>
      <line x1="452.889" y1="1679.230" x2="452.889" y2="1629.230"/>
      <line x1="453.889" y1="1679.230" x2="453.889" y2="1629.230"/>
      <line x1="454.889" y1="1679.230" x2="454.889" y2="1629.230"/>
      <line x1="455.889" y1="1679.230" x2="455.889" y2="1629.230"/>
      <line x1="456.889" y1="1679.230" x2="456.889" y2="1629.230"/>
      <line x1="457.889" y1="1679.230" x2="457.889" y2="1629.230"/>
      <line x1="458.889" y1="1679.230" x2="458.889" y2="1629.230"/>
      <line x1="459.889" y1="1679.230" x2="459.889" y2="1629.230"/>
      <line x1="460.889" y1="1679.230" x2="460.889" y2="1629.230"/>
      <line x1="461.889" y1="1679.230" x2="461.889" y2="1629.230"/>
      <line x1="462.889" y1="1679.230" x2="462.889" y2="1629.230"/>
      <line x1="463.889" y1="1679.230" x2="463.889" y2="1629.230"/>
      <line x1="464.889" y1="1679.230" x2="464.889" y2="1629.230"/>
      <line x1="465.889" y1="1679.230" x2="465.889" y2="1629.230"/>
      <line x1="466.889" y1="1679.230" x2="466.889" y2="1629.230"/>
      <line x1="467.889" y1="1679.230" x2="467.889" y2="1629.230"/>
      <line x1="468.889" y1="1679.230" x2="468.889" y2="1629.230"/>
      <line x1="469.889" y1="1679.230" x2="469.889" y2="1629.230"/>
      <line x1="470.889" y1="1679.230" x2="470.889" y2="1629.230"/>
      <line x1="471.889" y1="1679.230" x2="471.889" y2="1629.230"/>
      <line x1="472.889" y1="1679.230" x2="472.889" y2="1629.230"/>
      <line x1="473.889" y1="1679.230" x2="473.889" y2="1629.230"/>
      <line x1="474.889" y1="1679.230" x2="474.889" y2="1629.230"/>
      <line x1="475.889" y1="1679.230" x2="475.889" y2="1629.230"/>
      <line x1="476.889" y1="1679.230" x2="476.889" y2="1629.230"/>
      <line x1="477.889" y1="1679.230" x2="477.889" y2="1629.230"/>
      <line x1="121.889" y1="1629.130" x2="121.889" y2="1579.130"/>
      <line x1="122.889" y1="1629.130" x2="122.889" y2="1579.130"/>
      <line x1="123.889" y1="1629.130" x2="123.889" y2="1579.130"/>
      <line x1="124.889" y1="1629.130" x2="124.889" y2="1579.130"/>
      <line x1="125.889" y1="1629.130" x2="125.889" y2="1579.130"/>
      <line x1="126.889" y1="1629.130" x2="126.889" y2="1579.130"/>
      <line x1="127.889" y1="1629.130" x2="127.889" y2="1579.130"/>
      <line x1="128.889" y1="1629.130" x2="128.889" y2="1579.130"/>
      <line x1="129.889" y1="1629.130" x2="129.889" y2="1579.130"/>
      <line x1="130.889" y1="1629.130" x2="130.889" y2="1579.130"/>
      <line x1="131.889" y1="1629.130" x2="131.889" y2="1579.130"/>
      <line x1="132.889" y1="1629.130" x2="132.889" y2="1579.130"/>
      <line x1="133.889" y1="1629.130" x2="133.889" y2="1579.130"/>
      <line x1="134.889" y1="1629.130" x2="134.889" y2="1579.130"/>
      <line x1="135.889" y1="1629.130" x2="135.889" y2="1579.130"/>
      <line x1="136.889" y1="1629.130" x2="136.889" y2="1579.130"/>
      <line x1="137.889" y1="1629.130" x2="137.889" y2="1579.130"/>
      <line x1="138.889" y1="1629.130" x2="138.889" y2="1579.130"/>
      <line x1="139.889" y1="1629.130" x2="139.889" y2="1579.130"/>
      <line x1="140.889" y1="1629.130" x2="140.889" y2="1579.130"/>
      <line x1="141.889" y1="1629.130" x2="141.889" y2="1579.130"/>
      <line x1="142.889" y1="1629.130" x2="142.889" y2="1579.130"/>
      <line x1="143.889" y1="1629.130" x2="143.889" y2="1579.130"/>
      <line x1="144.889" y1="1629.130" x2="144.889" y2="1579.130"/>
      <line x1="145.889" y1="1629.130" x2="145.889" y2="1579.130"/>
      <line x1="146.889" y1="1629.130" x2="146.889" y2="1579.130"/>
      <line x1="147.889" y1="1629.130" x2="147.889" y2="1579.130"/>
      <line x1="148.889" y1="1629.130" x2="148.889" y2="1579.130"/>
      <line x1="149.889" y1="1629.130" x2="149.889" y2="1579.130"/>
      <line x1="150.889" y1="1629.130" x2="150.889" y2="1579.130"/>
      <line x1="151.889" y1="1629.130" x2="151.889" y2="1579.130"/>
      <line x1="152.889" y1="1629.130" x2="152.889" y2="1579.130"/>
      <line x1="153.889" y1="1629.130" x2="153.889" y2="1579.130"/>
      <line x1="154.889" y1="1629.130" x2="154.889" y2="1579.130"/>
      <line x1="155.889" y1="1629.130" x2="155.889" y2="1579.130"/>
      <line x1="156.889" y1="1629.130" x2="156.889" y2="1579.130"/>
      <line x1="157.889" y1="1629.130" x2="157.889" y2="1579.130"/>
      <line x1="158.889" y1="1629.130" x2="158.889" y2="1579.130"/>
      <line x1="159.889" y1="1629.130" x2="159.889" y2="1579.130"/>
      <line x1="160.889" y1="1629.130" x2="160.889" y2="1579.130"/>
      <line x1="161.889" y1="1629.130" x2="161.889" y2="1579.130"/>
      <line x1="162.889" y1="1629.130" x2="162.889" y2="1579.130"/>
      <line x1="163.889" y1="1629.130" x2="163.889" y2="1579.130"/>
      <line x1="164.889" y1="1629.130" x2="164.889" y2="1579.130"/>
      <line x1="165.889" y1="1629.130" x2="165.889" y2="1579.130"/>
      <line x1="166.889" y1="1629.130" x2="166.889" y2="1579.130"/>
      <line x1="167.889" y1="1629.130" x2="167.889" y2="1579.130"/>
      <line x1="168.889" y1="1629.130" x2="168.889" y2="1579.130"/>
      <line x1="169.889" y1="1629.130" x2="169.889" y2="1579.130"/>
      <line x1="170.889" y1="1629.130" x2="170.889" y2="1579.130"/>
      <line x1="171.889" y1="1629.130" x2="171.889" y2="1579.130"/>
      <line x1="172.889" y1="1629.130" x2="172.889" y2="1579.130"/>
      <line x1="173.889" y1="1629.130" x2="173.889" y2="1579.130"/>
      <line x1="174.889" y1="1629.130" x2="174.889" y2="1579.130"/>
      <line x1="175.889" y1="1629.130" x2="175.889" y2="1579.130"/>
      <line x1="176.889" y1="1629.130" x2="176.889" y2="1579.130"/>
      <line x1="177.889" y1="1629.130" x2="177.889" y2="1579.130"/>
      <line x1="178.889" y1="1629.130" x2="178.889" y2="1579.130"/>
      <line x1="179.889" y1="1629.130" x2="179.889" y2="1579.130"/>
      <line x1="180.889" y1="1629.130" x2="180.889" y2="1579.130"/>
      <line x1="181.889" y1="1629.130" x2="181.889" y2="1579.130"/>
      <line x1="182.889" y1="1629.130" x2="182.889" y2="1579.130"/>
      <line x1="183.889" y1="1629.130" x2="183.889" y2="1579.130"/>
      <line x1="184.889" y1="1629.130" x2="184.889" y2="1579.130"/>
      <line x1="185.889" y1="1629.130" x2="185.889" y2="1579.130"/>
      <line x1="186.889" y1="1629.130" x2="186.889" y2="1579.130"/>
      <line x1="187.889" y1="1629.130" x2="187.889" y2="1579.130"/>
      <line x1="188.889" y1="1629.130" x2="188.889" y2="1579.130"/>
      <line x1="189.889" y1="1629.130" x2="189.889" y2="1579.130"/>
      <line x1="190.889" y1="1629.130" x2="190.889" y2="1579.130"/>
      <line x1="191.889" y1="1629.130" x2="191.889" y2="1579.130"/>
      <line x1="192.889" y1="1629.130" x2="192.889" y2="1579.130"/>
      <line x1="193.889" y1="1629.130" x2="193.889" y2="1579.130"/>
      <line x1="194.889" y1="1629.130" x2="194.889" y2="1579.130"/>
      <line x1="195.889" y1="1629.130" x2="195.889" y2="1579.130"/>
      <line x1="196.889" y1="1629.130" x2="196.889" y2="1579.130"/>
      <line x1="197.889" y1="1629.130" x2="197.889" y2="1579.130"/>
      <line x1="198.889" y1="1629.130" x2="198.889" y2="1579.130"/>
      <line x1="199.889" y1="1629.130" x2="199.889" y2="1579.130"/>
      <line x1="200.889" y1="1629.130" x2="200.889" y2="1579.130"/>
      <line x1="201.889" y1="1629.130" x2="201.889" y2="1579.130"/>
      <line x1="202.889" y1="1629.130" x2="202.889" y2="1579.130"/>
      <line x1="203.889" y1="1629.130" x2="203.889" y2="1579.130"/>
      <line x1="204.889" y1="1629.130" x2="204.889" y2="1579.130"/>
      <line x1="205.889" y1="1629.130" x2="205.889" y2="1579.130"/>
      <line x1="206.889" y1="1629.130" x2="206.889" y2="1579.130"/>
      <line x1="207.889" y1="1629.130" x2="207.889" y2="1579.130"/>
      <line x1="208.889" y1="1629.130" x2="208.889" y2="1579.130"/>
      <line x1="209.889" y1="1629.130" x2="209.889" y2="1579.130"/>
      <line x1="210.889" y1="1629.130" x2="210.889" y2="1579.130"/>
      <line x1="211.889" y1="1629.130" x2="211.889" y2="1579.130"/>
      <line x1="212.889" y1="1629.130" x2="212.889" y2="1579.130"/>
      <line x1="213.889" y1="1629.130" x2="213.889" y2="1579.130"/>
      <line x1="214.889" y1="1629.130" x2="214.889" y2="1579.130"/>
      <line x1="215.889" y1="1629.130" x2="215.889" y2="1579.130"/>
      <line x1="216.889" y1="1629.130" x2="216.889" y2="1579.130"/>
      <line x1="217.889" y1="1629.130" x2="217.889" y2="1579.130"/>
      <line x1="218.889" y1="1629.130" x2="218.889" y2="1579.130"/>
      <line x1="219.889" y1="1629.130" x2="219.889" y2="1579.130"/>
      <line x1="220.889" y1="1629.130" x2="220.889" y2="1579.130"/>
      <line x1="222.889" y1="1629.130" x2="222.889" y2="1579.130"/>
      <line x1="223.889" y1="1629.130" x2="223.889" y2="1579.130"/>
      <line x1="224.889" y1="1629.130" x2="224.889" y2="1579.130"/>
      <line x1="225.889" y1="1629.130" x2="225.889" y2="1579.130"/>
      <line x1="226.889" y1="1629.130" x2="226.889" y2="1579.130"/>
      <line x1="227.889" y1="1629.130" x2="227.889" y2="1579.130"/>
      <line x1="228.889" y1="1629.130" x2="228.889" y2="1579.130"/>
      <line x1="229.889" y1="1629.130" x2="229.889" y2="1579.130"/>
      <line x1="230.889" y1="1629.130" x2="230.889" y2="1579.130"/>
      <line x1="231.889" y1="1629.130" x2="231.889" y2="1579.130"/>
      <line x1="232.889" y1="1629.130" x2="232.889" y2="1579.130"/>
      <line x1="233.889" y1="1629.130" x2="233.889" y2="1579.130"/>
      <line x1="234.889" y1="1629.130" x2="234.889" y2="1579.130"/>
      <line x1="235.889" y1="1629.130" x2="235.889" y2="1579.130"/>
      <line x1="236.889" y1="1629.130" x2="236.889" y2="1579.130"/>
      <line x1="237.889" y1="1629.130" x2="237.889" y2="1579.130"/>
      <line x1="238.889" y1="1629.130" x2="238.889" y2="1579.130"/>
      <line x1="239.889" y1="1629.130" x2="239.889" y2="1579.130"/>
      <line x1="240.889" y1="1629.130" x2="240.889" y2="1579.130"/>
      <line x1="241.889" y1="1629.130" x2="241.889" y2="1579.130"/>
      <line x1="242.889" y1="1629.130" x2="242.889" y2="1579.130"/>
      <line x1="243.889" y1="1629.130" x2="243.889" y2="1579.130"/>
      <line x1="244.889" y1="1629.130" x2="244.889" y2="1579.130"/>
      <line x1="245.889" y1="1629.130" x2="245.889" y2="1579.130"/>
      <line x1="246.889" y1="1629.130" x2="246.889" y2="1579.130"/>
      <line x1="247.889" y1="1629.130" x2="247.889" y2="1579.130"/>
      <line x1="248.889" y1="1629.130" x2="248.889" y2="1579.130"/>
      <line x1="249.889" y1="1629.130" x2="249.889" y2="1579.130"/>
      <line x1="250.889" y1="1629.130" x2="250.889" y2="1579.130"/>
      <line x1="251.889" y1="1629.130" x2="251.889" y2="1579.130"/>
      <line x1="252.889" y1="1629.130" x2="252.889" y2="1579.130"/>
      <line x1="253.889" y1="1629.130" x2="253.889" y2="1579.130"/>
      <line x1="254.889" y1="1629.130" x2="254.889" y2="1579.130"/>
      <line x1="255.889" y1="1629.130" x2="255.889" y2="1579.130"/>
      <line x1="256.889" y1="1629.130" x2="256.889" y2="1579.130"/>
      <line x1="257.889" y1="1629.130" x2="257.889" y2="1579.130"/>
      <line x1="258.889" y1="1629.130" x2="258.889" y2="1579.130"/>
      <line x1="259.889" y1="1629.130" x2="259.889" y2="1579.130"/>
      <line x1="260.889" y1="1629.130" x2="260.889" y2="1579.130"/>
      <line x1="261.889" y1="1629.130" x2="261.889" y2="1579.130"/>
      <line x1="262.889" y1="1629.130" x2="262.889" y2="1579.130"/>
      <line x1="263.889" y1="1629.130" x2="263.889" y2="1579.130"/>
      <line x1="264.889" y1="1629.130" x2="264.889" y2="1579.130"/>
      <line x1="265.889" y1="1629.130" x2="265.889" y2="1579.130"/>
      <line x1="266.889" y1="1629.130" x2="266.889" y2="1579.130"/>
      <line x1="267.889" y1="1629.130" x2="267.889" y2="1579.130"/>
      <line x1="268.889" y1="1629.130" x2="268.889" y2="1579.130"/>
      <line x1="269.889" y1="1629.130" x2="269.889" y2="1579.130"/>
      <line x1="270.889" y1="1629.130" x2="270.889" y2="1579.130"/>
      <line x1="271.889" y1="1629.130" x2="271.889" y2="1579.130"/>
      <line x1="272.889" y1="1629.130" x2="272.889" y2="1579.130"/>
      <line x1="273.889" y1="1629.130" x2="273.889" y2="1579.130"/>
      <line x1="274.889" y1="1629.130" x2="274.889" y2="1579.130"/>
      <line x1="275.889" y1="1629.130" x2="275.889" y2="1579.130"/>
      <line x1="276.889" y1="1629.130" x2="276.889" y2="1579.130"/>
      <line x1="277.889" y1="1629.130" x2="277.889" y2="1579.130"/>
      <line x1="278.889" y1="1629.130" x2="278.889" y2="1579.130"/>
      <line x1="279.889" y1="1629.130" x2="279.889" y2="1579.130"/>
      <line x1="280.889" y1="1629.130" x2="280.889" y2="1579.130"/>
      <line x1="281.889" y1="1629.130" x2="281.889" y2="1579.130"/>
      <line x1="282.889" y1="1629.130" x2="282.889" y2="1579.130"/>
      <line x1="283.889" y1="1629.130" x2="283.889" y2="1579.130"/>
      <line x1="284.889" y1="1629.130" x2="284.889" y2="1579.130"/>
      <line x1="285.889" y1="1629.130" x2="285.889" y2="1579.130"/>
      <line x1="286.889" y1="1629.130" x2="286.889" y2="1579.130"/>
      <line x1="287.889" y1="1629.130" x2="287.889" y2="1579.130"/>
      <line x1="288.889" y1="1629.130" x2="288.889" y2="1579.130"/>
      <line x1="289.889" y1="1629.130" x2="289.889" y2="1579.130"/>
      <line x1="290.889" y1="1629.130" x2="290.889" y2="1579.130"/>
      <line x1="291.889" y1="1629.130" x2="291.889" y2="1579.130"/>
      <line x1="292.889" y1="1629.130" x2="292.889" y2="1579.130"/>
      <line x1="293.889" y1="1629.130" x2="293.889" y2="1579.130"/>
      <line x1="294.889" y1="1629.130" x2="294.889" y2="1579.130"/>
      <line x1="295.889" y1="1629.130" x2="295.889" y2="1579.130"/>
      <line x1="296.889" y1="1629.130" x2="296.889" y2="1579.130"/>
      <line x1="297.889" y1="1629.130" x2="297.889" y2="1579.130"/>
      <line x1="298.889" y1="1629.130" x2="298.889" y2="1579.130"/>
      <line x1="299.889" y1="1629.130" x2="299.889" y2="1579.130"/>
      <line x1="300.889" y1="1629.130" x2="300.889" y2="1579.130"/>
      <line x1="301.889" y1="1629.130" x2="301.889" y2="1579.130"/>
      <line x1="302.889" y1="1629.130" x2="302.889" y2="1579.130"/>
      <line x1="303.889" y1="1629.130" x2="303.889" y2="1579.130"/>
      <line x1="304.889" y1="1629.130" x2="304.889" y2="1579.130"/>
      <line x1="305.889" y1="1629.130" x2="305.889" y2="1579.130"/>
      <line x1="306.889" y1="1629.130" x2="306.889" y2="1579.130"/>
      <line x1="307.889" y1="1629.130" x2="307.889" y2="1579.130"/>
      <line x1="308.889" y1="1629.130" x2="308.889" y2="1579.130"/>
      <line x1="309.889" y1="1629.130" x2="309.889" y2="1579.130"/>
      <line x1="310.889" y1="1629.130" x2="310.889" y2="1579.130"/>
      <line x1="311.889" y1="1629.130" x2="311.889" y2="1579.130"/>
      <line x1="312.889" y1="1629.130" x2="312.889" y2="1579.130"/>
      <line x1="313.889" y1="1629.130" x2="313.889" y2="1579.130"/>
      <line x1="314.889" y1="1629.130" x2="314.889" y2="1579.130"/>
      <line x1="315.889" y1="1629.130" x2="315.889" y2="1579.130"/>
      <line x1="316.889" y1="1629.130" x2="316.889" y2="1579.130"/>
      <line x1="317.889" y1="1629.130" x2="317.889" y2="1579.130"/>
      <line x1="318.889" y1="1629.130" x2="318.889" y2="1579.130"/>
      <line x1="319.889" y1="1629.130" x2="319.889" y2="1579.130"/>
      <line x1="320.889" y1="1629.130" x2="320.889" y2="1579.130"/>
      <line x1="321.889" y1="1629.130" x2="321.889" y2="1579.130"/>
      <line x1="322.889" y1="1629.130" x2="322.889" y2="1579.130"/>
      <line x1="323.889" y1="1629.130" x2="323.889" y2="1579.130"/>
      <line x1="324.889" y1="1629.130" x2="324.889" y2="1579.130"/>
      <line x1="325.889" y1="1629.130" x2="325.889" y2="1579.130"/>
      <line x1="326.889" y1="1629.130" x2="326.889" y2="1579.130"/>
      <line x1="327.889" y1="1629.130" x2="327.889" y2="1579.130"/>
      <line x1="328.889" y1="1629.130" x2="328.889" y2="1579.130"/>
      <line x1="329.889" y1="1629.130" x2="329.889" y2="1579.130"/>
      <line x1="330.889" y1="1629.130" x2="330.889" y2="1579.130"/>
      <line x1="331.889" y1="1629.130" x2="331.889" y2="1579.130"/>
      <line x1="332.889" y1="1629.130" x2="332.889" y2="1579.130"/>
      <line x1="333.889" y1="1629.130" x2="333.889" y2="1579.130"/>
      <line x1="334.889" y1="1629.130" x2="334.889" y2="1579.130"/>
      <line x1="335.889" y1="1629.130" x2="335.889" y2="1579.130"/>
      <line x1="336.889" y1="1629.130" x2="336.889" y2="1579.130"/>
      <line x1="337.889" y1="1629.130" x2="337.889" y2="1579.130"/>
      <line x1="338.889" y1="1629.130" x2="338.889" y2="1579.130"/>
      <line x1="339.889" y1="1629.130" x2="339.889" y2="1579.130"/>
      <line x1="340.889" y1="1629.130" x2="340.889" y2="1579.130"/>
      <line x1="341.889" y1="1629.130" x2="341.889" y2="1579.130"/>
      <line x1="342.889" y1="1629.130" x2="342.889" y2="1579.130"/>
      <line x1="343.889" y1="1629.130" x2="343.889" y2="1579.130"/>
      <line x1="344.889" y1="1629.130" x2="344.889" y2="1579.130"/>
      <line x1="345.889" y1="1629.130" x2="345.889" y2="1579.130"/>
      <line x1="346.889" y1="1629.130" x2="346.889" y2="1579.130"/>
      <line x1="347.889" y1="1629.130" x2="347.889" y2="1579.130"/>
      <line x1="348.889" y1="1629.130" x2="348.889" y2="1579.130"/>
      <line x1="349.889" y1="1629.130" x2="349.889" y2="1579.130"/>
      <line x1="350.889" y1="1629.130" x2="350.889" y2="1579.130"/>
      <line x1="351.889" y1="1629.130" x2="351.889" y2="1579.130"/>
      <line x1="352.889" y1="1629.130" x2="352.889" y2="1579.130"/>
      <line x1="353.889" y1="1629.130" x2="353.889" y2="1579.130"/>
      <line x1="354.889" y1="1629.130" x2="354.889" y2="1579.130"/>
      <line x1="355.889" y1="1629.130" x2="355.889" y2="1579.130"/>
      <line x1="356.889" y1="1629.130" x2="356.889" y2="1579.130"/>
      <line x1="357.889" y1="1629.130" x2="357.889" y2="1579.130"/>
      <line x1="358.889" y1="1629.130" x2="358.889" y2="1579.130"/>
      <line x1="359.889" y1="1629.130" x2="359.889" y2="1579.130"/>
      <line x1="360.889" y1="1629.130" x2="360.889" y2="1579.130"/>
      <line x1="361.889" y1="1629.130" x2="361.889" y2="1579.130"/>
      <line x1="362.889" y1="1629.130" x2="362.889" y2="1579.130"/>
      <line x1="363.889" y1="1629.130" x2="363.889" y2="1579.130"/>
      <line x1="364.889" y1="1629.130" x2="364.889" y2="1579.130"/>
      <line x1="365.889" y1="1629.130" x2="365.889" y2="1579.130"/>
      <line x1="366.889" y1="1629.130" x2="366.889" y2="1579.130"/>
      <line x1="367.889" y1="1629.130" x2="367.889" y2="1579.130"/>
      <line x1="368.889" y1="1629.130" x2="368.889" y2="1579.130"/>
      <line x1="369.889" y1="1629.130" x2="369.889" y2="1579.130"/>
      <line x1="370.889" y1="1629.130" x2="370.889" y2="1579.130"/>
      <line x1="371.889" y1="1629.130" x2="371.889" y2="1579.130"/>
      <line x1="372.889" y1="1629.130" x2="372.889" y2="1579.130"/>
      <line x1="373.889" y1="1629.130" x2="373.889" y2="1579.130"/>
      <line x1="374.889" y1="1629.130" x2="374.889" y2="1579.130"/>
      <line x1="375.889" y1="1629.130" x2="375.889" y2="1579.130"/>
      <line x1="376.889" y1="1629.130" x2="376.889" y2="1579.130"/>
      <line x1="377.889" y1="1629.130" x2="377.889" y2="1579.130"/>
      <line x1="378.889" y1="1629.130" x2="378.889" y2="1579.130"/>
      <line x1="379.889" y1="1629.130" x2="379.889" y2="1579.130"/>
      <line x1="380.889" y1="1629.130" x2="380.889" y2="1579.130"/>
      <line x1="381.889" y1="1629.130" x2="381.889" y2="1579.130"/>
      <line x1="382.889" y1="1629.130" x2="382.889" y2="1579.130"/>
      <line x1="383.889" y1="1629.130" x2="383.889" y2="1579.130"/>
      <line x1="384.889" y1="1629.130" x2="384.889" y2="1579.130"/>
      <line x1="385.889" y1="1629.130" x2="385.889" y2="1579.130"/>
      <line x1="386.889" y1="1629.130" x2="386.889" y2="1579.130"/>
      <line x1="387.889" y1="1629.130" x2="387.889" y2="1579.130"/>
      <line x1="388.889" y1="1629.130" x2="388.889" y2="1579.130"/>
      <line x1="389.889" y1="1629.130" x2="389.889" y2="1579.130"/>
      <line x1="390.889" y1="1629.130" x2="390.889" y2="1579.130"/>
      <line x1="391.889" y1="1629.130" x2="391.889" y2="1579.130"/>
      <line x1="392.889" y1="1629.130" x2="392.889" y2="1579.130"/>
      <line x1="393.889" y1="1629.130" x2="393.889" y2="1579.130"/>
      <line x1="394.889" y1="1629.130" x2="394.889" y2="1579.130"/>
      <line x1="395.889" y1="1629.130" x2="395.889" y2="1579.130"/>
      <line x1="396.889" y1="1629.130" x2="396.889" y2="1579.130"/>
      <line x1="397.889" y1="1629.130" x2="397.889" y2="1579.130"/>
      <line x1="398.889" y1="1629.130" x2="398.889" y2="1579.130"/>
      <line x1="399.889" y1="1629.130" x2="399.889" y2="1579.130"/>
      <line x1="400.889" y1="1629.130" x2="400.889" y2="1579.130"/>
      <line x1="401.889" y1="1629.130" x2="401.889" y2="1579.130"/>
      <line x1="402.889" y1="1629.130" x2="402.889" y2="1579.130"/>
      <line x1="403.889" y1="1629.130" x2="403.889" y2="1579.130"/>
      <line x1="404.889" y1="1629.130" x2="404.889" y2="1579.130"/>
      <line x1="405.889" y1="1629.130" x2="405.889" y2="1579.130"/>
      <line x1="406.889" y1="1629.130" x2="406.889" y2="1579.130"/>
      <line x1="407.889" y1="1629.130" x2="407.889" y2="1579.130"/>
      <line x1="408.889" y1="1629.130" x2="408.889" y2="1579.130"/>
      <line x1="409.889" y1="1629.130" x2="409.889" y2="1579.130"/>
      <line x1="410.889" y1="1629.130" x2="410.889" y2="1579.130"/>
      <line x1="411.889" y1="1629.130" x2="411.889" y2="1579.130"/>
      <line x1="412.889" y1="1629.130" x2="412.889" y2="1579.130"/>
      <line x1="413.889" y1="1629.130" x2="413.889" y2="1579.130"/>
      <line x1="414.889" y1="1629.130" x2="414.889" y2="1579.130"/>
      <line x1="415.889" y1="1629.130" x2="415.889" y2="1579.130"/>
      <line x1="416.889" y1="1629.130" x2="416.889" y2="1579.130"/>
      <line x1="417.889" y1="1629.130" x2="417.889" y2="1579.130"/>
      <line x1="418.889" y1="1629.130" x2="418.889" y2="1579.130"/>
      <line x1="419.889" y1="1629.130" x2="419.889" y2="1579.130"/>
      <line x1="420.889" y1="1629.130" x2="420.889" y2="1579.130"/>
      <line x1="421.889" y1="1629.130" x2="421.889" y2="1579.130"/>
      <line x1="422.889" y1="1629.130" x2="422.889" y2="1579.130"/>
      <line x1="423.889" y1="1629.130" x2="423.889" y2="1579.130"/>
      <line x1="424.889" y1="1629.130" x2="424.889" y2="1579.130"/>
      <line x1="425.889" y1="1629.130" x2="425.889" y2="1579.130"/>
      <line x1="426.889" y1="1629.130" x2="426.889" y2="1579.130"/>
      <line x1="427.889" y1="1629.130" x2="427.889" y2="1579.130"/>
      <line x1="428.889" y1="1629.130" x2="428.889" y2="1579.130"/>
      <line x1="429.889" y1="1629.130" x2="429.889" y2="1579.130"/>
      <line x1="430.889" y1="1629.130" x2="430.889" y2="1579.130"/>
      <line x1="431.889" y1="1629.130" x2="431.889" y2="1579.130"/>
      <line x1="432.889" y1="1629.130" x2="432.889" y2="1579.130"/>
      <line x1="433.889" y1="1629.130" x2="433.889" y2="1579.130"/>
      <line x1="434.889" y1="1629.130" x2="434.889" y2="1579.130"/>
      <line x1="435.889" y1="1629.130" x2="435.889" y2="1579.130"/>
      <line x1="436.889" y1="1629.130" x2="436.889" y2="1579.130"/>
      <line x1="437.889" y1="1629.130" x2="437.889" y2="1579.130"/>
      <line x1="438.889" y1="1629.130" x2="438.889" y2="1579.130"/>
      <line x1="439.889" y1="1629.130" x2="439.889" y2="1579.130"/>
      <line x1="440.889" y1="1629.130" x2="440.889" y2="1579.130"/>
      <line x1="441.889" y1="1629.130" x2="441.889" y2="1579.130"/>
      <line x1="442.889" y1="1629.130" x2="442.889" y2="1579.130"/>
      <line x1="443.889" y1="1629.130" x2="443.889" y2="1579.130"/>
      <line x1="444.889" y1="1629.130" x2="444.889" y2="1579.130"/>
      <line x1="445.889" y1="1629.130" x2="445.889" y2="1579.130"/>
      <line x1="446.889" y1="1629.130" x2="446.889" y2="1579.130"/>
      <line x1="447.889" y1="1629.130" x2="447.889" y2="1579.130"/>
      <line x1="448.889" y1="1629.130" x2="448.889" y2="1579.130"/>
      <line x1="449.889" y1="1629.130" x2="449.889" y2="1579.130"/>
      <line x1="450.889" y1="1629.130" x2="450.889" y2="1579.130"/>
      <line x1="451.889" y1="1629.130" x2="451.889" y2="1579.130"/>
      <line x1="452.889" y1="1629.130" x2="452.889" y2="1579.130"/>
      <line x1="453.889" y1="1629.130" x2="453.889" y2="1579.130"/>
      <line x1="454.889" y1="1629.130" x2="454.889" y2="1579.130"/>
      <line x1="455.889" y1="1629.130" x2="455.889" y2="1579.130"/>
      <line x1="456.889" y1="1629.130" x2="456.889" y2="1579.130"/>
      <line x1="457.889" y1="1629.130" x2="457.889" y2="1579.130"/>
      <line x1="458.889" y1="1629.130" x2="458.889" y2="1579.130"/>
      <line x1="459.889" y1="1629.130" x2="459.889" y2="1579.130"/>
      <line x1="460.889" y1="1629.130" x2="460.889" y2="1579.130"/>
      <line x1="461.889" y1="1629.130" x2="461.889" y2="1579.130"/>
      <line x1="462.889" y1="1629.130" x2="462.889" y2="1579.130"/>
      <line x1="463.889" y1="1629.130" x2="463.889" y2="1579.130"/>
      <line x1="464.889" y1="1629.130" x2="464.889" y2="1579.130"/>
      <line x1="465.889" y1="1629.130" x2="465.889" y2="1579.130"/>
      <line x1="466.889" y1="1629.130" x2="466.889" y2="1579.130"/>
      <line x1="467.889" y1="1629.130" x2="467.889" y2="1579.130"/>
      <line x1="468.889" y1="1629.130" x2="468.889" y2="1579.130"/>
      <line x1="469.889" y1="1629.130" x2="469.889" y2="1579.130"/>
      <line x1="470.889" y1="1629.130" x2="470.889" y2="1579.130"/>
      <line x1="471.889" y1="1629.130" x2="471.889" y2="1579.130"/>
      <line x1="472.889" y1="1629.130" x2="472.889" y2="1579.130"/>
      <line x1="473.889" y1="1629.130" x2="473.889" y2="1579.130"/>
      <line x1="474.889" y1="1629.130" x2="474.889" y2="1579.130"/>
      <line x1="475.889" y1="1629.130" x2="475.889" y2="1579.130"/>
      <line x1="476.889" y1="1629.130" x2="476.889" y2="1579.130"/>
      <line x1="477.889" y1="1629.130" x2="477.889" y2="1579.130"/>
      <line x1="121.889" y1="1579.030" x2="121.889" y2="1529.030"/>
      <line x1="122.889" y1="1579.030" x2="122.889" y2="1529.030"/>
      <line x1="123.889" y1="1579.030" x2="123.889" y2="1529.030"/>
      <line x1="124.889" y1="1579.030" x2="124.889" y2="1529.030"/>
      <line x1="125.889" y1="1579.030" x2="125.889" y2="1529.030"/>
      <line x1="126.889" y1="1579.030" x2="126.889" y2="1529.030"/>
      <line x1="127.889" y1="1579.030" x2="127.889" y2="1529.030"/>
      <line x1="128.889" y1="1579.030" x2="128.889" y2="1529.030"/>
      <line x1="129.889" y1="1579.030" x2="129.889" y2="1529.030"/>
      <line x1="130.889" y1="1579.030" x2="130.889" y2="1529.030"/>
      <line x1="131.889" y1="1579.030" x2="131.889" y2="1529.030"/>
      <line x1="132.889" y1="1579.030" x2="132.889" y2="1529.030"/>
      <line x1="133.889" y1="1579.030" x2="133.889" y2="1529.030"/>
      <line x1="134.889" y1="1579.030" x2="134.889" y2="1529.030"/>
      <line x1="135.889" y1="1579.030" x2="135.889" y2="1529.030"/>
      <line x1="136.889" y1="1579.030" x2="136.889" y2="1529.030"/>
      <line x1="137.889" y1="1579.030" x2="137.889" y2="1529.030"/>
      <line x1="138.889" y1="1579.030" x2="138.889" y2="1529.030"/>
      <line x1="139.889" y1="1579.030" x2="139.889" y2="1529.030"/>
      <line x1="140.889" y1="1579.030" x2="140.889" y2="1529.030"/>
      <line x1="141.889" y1="1579.030" x2="141.889" y2="1529.030"/>
      <line x1="142.889" y1="1579.030" x2="142.889" y2="1529.030"/>
      <line x1="143.889" y1="1579.030" x2="143.889" y2="1529.030"/>
      <line x1="144.889" y1="1579.030" x2="144.889" y2="1529.030"/>
      <line x1="145.889" y1="1579.030" x2="145.889" y2="1529.030"/>
      <line x1="146.889" y1="1579.030" x2="146.889" y2="1529.030"/>
      <line x1="147.889" y1="1579.030" x2="147.889" y2="1529.030"/>
      <line x1="148.889" y1="1579.030" x2="148.889" y2="1529.030"/>
      <line x1="149.889" y1="1579.030" x2="149.889" y2="1529.030"/>
      <line x1="150.889" y1="1579.030" x2="150.889" y2="1529.030"/>
      <line x1="151.889" y1="1579.030" x2="151.889" y2="1529.030"/>
      <line x1="152.889" y1="1579.030" x2="152.889" y2="1529.030"/>
      <line x1="153.889" y1="1579.030" x2="153.889" y2="1529.030"/>
      <line x1="154.889" y1="1579.030" x2="154.889" y2="1529.030"/>
      <line x1="155.889" y1="1579.030" x2="155.889" y2="1529.030"/>
      <line x1="156.889" y1="1579.030" x2="156.889" y2="1529.030"/>
      <line x1="157.889" y1="1579.030" x2="157.889" y2="1529.030"/>
      <line x1="158.889" y1="1579.030" x2="158.889" y2="1529.030"/>
      <line x1="159.889" y1="1579.030" x2="159.889" y2="1529.030"/>
      <line x1="160.889" y1="1579.030" x2="160.889" y2="1529.030"/>
      <line x1="161.889" y1="1579.030" x2="161.889" y2="1529.030"/>
      <line x1="162.889" y1="1579.030" x2="162.889" y2="1529.030"/>
      <line x1="163.889" y1="1579.030" x2="163.889" y2="1529.030"/>
      <line x1="164.889" y1="1579.030" x2="164.889" y2="1529.030"/>
      <line x1="165.889" y1="1579.030" x2="165.889" y2="1529.030"/>
      <line x1="166.889" y1="1579.030" x2="166.889" y2="1529.030"/>
      <line x1="167.889" y1="1579.030" x2="167.889" y2="1529.030"/>
      <line x1="168.889" y1="1579.030" x2="168.889" y2="1529.030"/>
      <line x1="169.889" y1="1579.030" x2="169.889" y2="1529.030"/>
      <line x1="170.889" y1="1579.030" x2="170.889" y2="1529.030"/>
      <line x1="171.889" y1="1579.030" x2="171.889" y2="1529.030"/>
      <line x1="172.889" y1="1579.030" x2="172.889" y2="1529.030"/>
      <line x1="173.889" y1="1579.030" x2="173.889" y2="1529.030"/>
      <line x1="174.889" y1="1579.030" x2="174.889" y2="1529.030"/>
      <line x1="175.889" y1="1579.030" x2="175.889" y2="1529.030"/>
      <line x1="176.889" y1="1579.030" x2="176.889" y2="1529.030"/>
      <line x1="177.889" y1="1579.030" x2="177.889" y2="1529.030"/>
      <line x1="178.889" y1="1579.030" x2="178.889" y2="1529.030"/>
      <line x1="179.889" y1="1579.030" x2="179.889" y2="1529.030"/>
      <line x1="180.889" y1="1579.030" x2="180.889" y2="1529.030"/>
      <line x1="181.889" y1="1579.030" x2="181.889" y2="1529.030"/>
      <line x1="182.889" y1="1579.030" x2="182.889" y2="1529.030"/>
      <line x1="183.889" y1="1579.030" x2="183.889" y2="1529.030"/>
      <line x1="184.889" y1="1579.030" x2="184.889" y2="1529.030"/>
      <line x1="185.889" y1="1579.030" x2="185.889" y2="1529.030"/>
      <line x1="186.889" y1="1579.030" x2="186.889" y2="1529.030"/>
      <line x1="187.889" y1="1579.030" x2="187.889" y2="1529.030"/>
      <line x1="188.889" y1="1579.030" x2="188.889" y2="1529.030"/>
      <line x1="189.889" y1="1579.030" x2="189.889" y2="1529.030"/>
      <line x1="190.889" y1="1579.030" x2="190.889" y2="1529.030"/>
      <line x1="191.889" y1="1579.030" x2="191.889" y2="1529.030"/>
      <line x1="192.889" y1="1579.030" x2="192.889" y2="1529.030"/>
      <line x1="193.889" y1="1579.030" x2="193.889" y2="1529.030"/>
      <line x1="194.889" y1="1579.030" x2="194.889" y2="1529.030"/>
      <line x1="195.889" y1="1579.030" x2="195.889" y2="1529.030"/>
      <line x1="196.889" y1="1579.030" x2="196.889" y2="1529.030"/>
      <line x1="197.889" y1="1579.030" x2="197.889" y2="1529.030"/>
      <line x1="198.889" y1="1579.030" x2="198.889" y2="1529.030"/>
      <line x1="199.889" y1="1579.030" x2="199.889" y2="1529.030"/>
      <line x1="200.889" y1="1579.030" x2="200.889" y2="1529.030"/>
      <line x1="201.889" y1="1579.030" x2="201.889" y2="1529.030"/>
      <line x1="202.889" y1="1579.030" x2="202.889" y2="1529.030"/>
      <line x1="203.889" y1="1579.030" x2="203.889" y2="1529.030"/>
      <line x1="204.889" y1="1579.030" x2="204.889" y2="1529.030"/>
      <line x1="205.889" y1="1579.030" x2="205.889" y2="1529.030"/>
      <line x1="206.889" y1="1579.030" x2="206.889" y2="1529.030"/>
      <line x1="207.889" y1="1579.030" x2="207.889" y2="1529.030"/>
      <line x1="208.889" y1="1579.030" x2="208.889" y2="1529.030"/>
      <line x1="209.889" y1="1579.030" x2="209.889" y2="1529.030"/>
      <line x1="210.889" y1="1579.030" x2="210.889" y2="1529.030"/>
      <line x1="211.889" y1="1579.030" x2="211.889" y2="1529.030"/>
      <line x1="212.889" y1="1579.030" x2="212.889" y2="1529.030"/>
      <line x1="213.889" y1="1579.030" x2="213.889" y2="1529.030"/>
      <line x1="214.889" y1="1579.030" x2="214.889" y2="1529.030"/>
      <line x1="215.889" y1="1579.030" x2="215.889" y2="1529.030"/>
      <line x1="216.889" y1="1579.030" x2="216.889" y2="1529.030"/>
      <line x1="217.889" y1="1579.030" x2="217.889" y2="1529.030"/>
      <line x1="218.889" y1="1579.030" x2="218.889" y2="1529.030"/>
      <line x1="219.889" y1="1579.030" x2="219.889" y2="1529.030"/>
      <line x1="220.889" y1="1579.030" x2="220.889" y2="1529.030"/>
      <line x1="222.889" y1="1579.030" x2="222.889" y2="1529.030"/>
      <line x1="223.889" y1="1579.030" x2="223.889" y2="1529.030"/>
      <line x1="224.889" y1="1579.030" x2="224.889" y2="1529.030"/>
      <line x1="225.889" y1="1579.030" x2="225.889" y2="1529.030"/>
      <line x1="226.889" y1="1579.030" x2="226.889" y2="1529.030"/>
      <line x1="227.889" y1="1579.030" x2="227.889" y2="1529.030"/>
      <line x1="228.889" y1="1579.030" x2="228.889" y2="1529.030"/>
      <line x1="229.889" y1="1579.030" x2="229.889" y2="1529.030"/>
      <line x1="230.889" y1="1579.030" x2="230.889" y2="1529.030"/>
      <line x1="231.889" y1="1579.030" x2="231.889" y2="1529.030"/>
      <line x1="232.889" y1="1579.030" x2="232.889" y2="1529.030"/>
      <line x1="233.889" y1="1579.030" x2="233.889" y2="1529.030"/>
      <line x1="234.889" y1="1579.030" x2="234.889" y2="1529.030"/>
      <line x1="235.889" y1="1579.030" x2="235.889" y2="1529.030"/>
      <line x1="236.889" y1="1579.030" x2="236.889" y2="1529.030"/>
      <line x1="237.889" y1="1579.030" x2="237.889" y2="1529.030"/>
      <line x1="238.889" y1="1579.030" x2="238.889" y2="1529.030"/>
      <line x1="239.889" y1="1579.030" x2="239.889" y2="1529.030"/>
      <line x1="240.889" y1="1579.030" x2="240.889" y2="1529.030"/>
      <line x1="241.889" y1="1579.030" x2="241.889" y2="1529.030"/>
      <line x1="242.889" y1="1579.030" x2="242.889" y2="1529.030"/>
      <line x1="243.889" y1="1579.030" x2="243.889" y2="1529.030"/>
      <line x1="244.889" y1="1579.030" x2="244.889" y2="1529.030"/>
      <line x1="245.889" y1="1579.030" x2="245.889" y2="1529.030"/>
      <line x1="246.889" y1="1579.030" x2="246.889" y2="1529.030"/>
      <line x1="247.889" y1="1579.030" x2="247.889" y2="1529.030"/>
      <line x1="248.889" y1="1579.030" x2="248.889" y2="1529.030"/>
      <line x1="249.889" y1="1579.030" x2="249.889" y2="1529.030"/>
      <line x1="250.889" y1="1579.030" x2="250.889" y2="1529.030"/>
      <line x1="251.889" y1="1579.030" x2="251.889" y2="1529.030"/>
      <line x1="252.889" y1="1579.030" x2="252.889" y2="1529.030"/>
      <line x1="253.889" y1="1579.030" x2="253.889" y2="1529.030"/>
      <line x1="254.889" y1="1579.030" x2="254.889" y2="1529.030"/>
      <line x1="255.889" y1="1579.030" x2="255.889" y2="1529.030"/>
      <line x1="256.889" y1="1579.030" x2="256.889" y2="1529.030"/>
      <line x1="257.889" y1="1579.030" x2="257.889" y2="1529.030"/>
      <line x1="258.889" y1="1579.030" x2="258.889" y2="1529.030"/>
      <line x1="259.889" y1="1579.030" x2="259.889" y2="1529.030"/>
      <line x1="260.889" y1="1579.030" x2="260.889" y2="1529.030"/>
      <line x1="261.889" y1="1579.030" x2="261.889" y2="1529.030"/>
      <line x1="262.889" y1="1579.030" x2="262.889" y2="1529.030"/>
      <line x1="263.889" y1="1579.030" x2="263.889" y2="1529.030"/>
      <line x1="264.889" y1="1579.030" x2="264.889" y2="1529.030"/>
      <line x1="265.889" y1="1579.030" x2="265.889" y2="1529.030"/>
      <line x1="266.889" y1="1579.030" x2="266.889" y2="1529.030"/>
      <line x1="267.889" y1="1579.030" x2="267.889" y2="1529.030"/>
      <line x1="268.889" y1="1579.030" x2="268.889" y2="1529.030"/>
      <line x1="269.889" y1="1579.030" x2="269.889" y2="1529.030"/>
      <line x1="270.889" y1="1579.030" x2="270.889" y2="1529.030"/>
      <line x1="271.889" y1="1579.030" x2="271.889" y2="1529.030"/>
      <line x1="272.889" y1="1579.030" x2="272.889" y2="1529.030"/>
      <line x1="273.889" y1="1579.030" x2="273.889" y2="1529.030"/>
      <line x1="274.889" y1="1579.030" x2="274.889" y2="1529.030"/>
      <line x1="275.889" y1="1579.030" x2="275.889" y2="1529.030"/>
      <line x1="276.889" y1="1579.030" x2="276.889" y2="1529.030"/>
      <line x1="277.889" y1="1579.030" x2="277.889" y2="1529.030"/>
      <line x1="278.889" y1="1579.030" x2="278.889" y2="1529.030"/>
      <line x1="279.889" y1="1579.030" x2="279.889" y2="1529.030"/>
      <line x1="280.889" y1="1579.030" x2="280.889" y2="1529.030"/>
      <line x1="281.889" y1="1579.030" x2="281.889" y2="1529.030"/>
      <line x1="282.889" y1="1579.030" x2="282.889" y2="1529.030"/>
      <line x1="283.889" y1="1579.030" x2="283.889" y2="1529.030"/>
      <line x1="284.889" y1="1579.030" x2="284.889" y2="1529.030"/>
      <line x1="285.889" y1="1579.030" x2="285.889" y2="1529.030"/>
      <line x1="286.889" y1="1579.030" x2="286.889" y2="1529.030"/>
      <line x1="287.889" y1="1579.030" x2="287.889" y2="1529.030"/>
      <line x1="288.889" y1="1579.030" x2="288.889" y2="1529.030"/>
      <line x1="289.889" y1="1579.030" x2="289.889" y2="1529.030"/>
      <line x1="290.889" y1="1579.030" x2="290.889" y2="1529.030"/>
      <line x1="291.889" y1="1579.030" x2="291.889" y2="1529.030"/>
      <line x1="292.889" y1="1579.030" x2="292.889" y2="1529.030"/>
      <line x1="293.889" y1="1579.030" x2="293.889" y2="1529.030"/>
      <line x1="294.889" y1="1579.030" x2="294.889" y2="1529.030"/>
      <line x1="295.889" y1="1579.030" x2="295.889" y2="1529.030"/>
      <line x1="296.889" y1="1579.030" x2="296.889" y2="1529.030"/>
      <line x1="297.889" y1="1579.030" x2="297.889" y2="1529.030"/>
      <line x1="298.889" y1="1579.030" x2="298.889" y2="1529.030"/>
      <line x1="299.889" y1="1579.030" x2="299.889" y2="1529.030"/>
      <line x1="300.889" y1="1579.030" x2="300.889" y2="1529.030"/>
      <line x1="301.889" y1="1579.030" x2="301.889" y2="1529.030"/>
      <line x1="302.889" y1="1579.030" x2="302.889" y2="1529.030"/>
      <line x1="303.889" y1="1579.030" x2="303.889" y2="1529.030"/>
      <line x1="304.889" y1="1579.030" x2="304.889" y2="1529.030"/>
      <line x1="305.889" y1="1579.030" x2="305.889" y2="1529.030"/>
      <line x1="306.889" y1="1579.030" x2="306.889" y2="1529.030"/>
      <line x1="307.889" y1="1579.030" x2="307.889" y2="1529.030"/>
      <line x1="308.889" y1="1579.030" x2="308.889" y2="1529.030"/>
      <line x1="309.889" y1="1579.030" x2="309.889" y2="1529.030"/>
      <line x1="310.889" y1="1579.030" x2="310.889" y2="1529.030"/>
      <line x1="311.889" y1="1579.030" x2="311.889" y2="1529.030"/>
      <line x1="312.889" y1="1579.030" x2="312.889" y2="1529.030"/>
      <line x1="313.889" y1="1579.030" x2="313.889" y2="1529.030"/>
      <line x1="314.889" y1="1579.030" x2="314.889" y2="1529.030"/>
      <line x1="315.889" y1="1579.030" x2="315.889" y2="1529.030"/>
      <line x1="316.889" y1="1579.030" x2="316.889" y2="1529.030"/>
      <line x1="317.889" y1="1579.030" x2="317.889" y2="1529.030"/>
      <line x1="318.889" y1="1579.030" x2="318.889" y2="1529.030"/>
      <line x1="319.889" y1="1579.030" x2="319.889" y2="1529.030"/>
      <line x1="320.889" y1="1579.030" x2="320.889" y2="1529.030"/>
      <line x1="321.889" y1="1579.030" x2="321.889" y2="1529.030"/>
      <line x1="322.889" y1="1579.030" x2="322.889" y2="1529.030"/>
      <line x1="323.889" y1="1579.030" x2="323.889" y2="1529.030"/>
      <line x1="324.889" y1="1579.030" x2="324.889" y2="1529.030"/>
      <line x1="325.889" y1="1579.030" x2="325.889" y2="1529.030"/>
      <line x1="326.889" y1="1579.030" x2="326.889" y2="1529.030"/>
      <line x1="327.889" y1="1579.030" x2="327.889" y2="1529.030"/>
      <line x1="328.889" y1="1579.030" x2="328.889" y2="1529.030"/>
      <line x1="329.889" y1="1579.030" x2="329.889" y2="1529.030"/>
      <line x1="330.889" y1="1579.030" x2="330.889" y2="1529.030"/>
      <line x1="331.889" y1="1579.030" x2="331.889" y2="1529.030"/>
      <line x1="332.889" y1="1579.030" x2="332.889" y2="1529.030"/>
      <line x1="333.889" y1="1579.030" x2="333.889" y2="1529.030"/>
      <line x1="334.889" y1="1579.030" x2="334.889" y2="1529.030"/>
      <line x1="335.889" y1="1579.030" x2="335.889" y2="1529.030"/>
      <line x1="336.889" y1="1579.030" x2="336.889" y2="1529.030"/>
      <line x1="337.889" y1="1579.030" x2="337.889" y2="1529.030"/>
      <line x1="338.889" y1="1579.030" x2="338.889" y2="1529.030"/>
      <line x1="339.889" y1="1579.030" x2="339.889" y2="1529.030"/>
      <line x1="340.889" y1="1579.030" x2="340.889" y2="1529.030"/>
      <line x1="341.889" y1="1579.030" x2="341.889" y2="1529.030"/>
      <line x1="342.889" y1="1579.030" x2="342.889" y2="1529.030"/>
      <line x1="343.889" y1="1579.030" x2="343.889" y2="1529.030"/>
      <line x1="344.889" y1="1579.030" x2="344.889" y2="1529.030"/>
      <line x1="345.889" y1="1579.030" x2="345.889" y2="1529.030"/>
      <line x1="346.889" y1="1579.030" x2="346.889" y2="1529.030"/>
      <line x1="347.889" y1="1579.030" x2="347.889" y2="1529.030"/>
      <line x1="348.889" y1="1579.030" x2="348.889" y2="1529.030"/>
      <line x1="349.889" y1="1579.030" x2="349.889" y2="1529.030"/>
      <line x1="350.889" y1="1579.030" x2="350.889" y2="1529.030"/>
      <line x1="351.889" y1="1579.030" x2="351.889" y2="1529.030"/>
      <line x1="352.889" y1="1579.030" x2="352.889" y2="1529.030"/>
      <line x1="353.889" y1="1579.030" x2="353.889" y2="1529.030"/>
      <line x1="354.889" y1="1579.030" x2="354.889" y2="1529.030"/>
      <line x1="355.889" y1="1579.030" x2="355.889" y2="1529.030"/>
      <line x1="356.889" y1="1579.030" x2="356.889" y2="1529.030"/>
      <line x1="357.889" y1="1579.030" x2="357.889" y2="1529.030"/>
      <line x1="358.889" y1="1579.030" x2="358.889" y2="1529.030"/>
      <line x1="359.889" y1="1579.030" x2="359.889" y2="1529.030"/>
      <line x1="360.889" y1="1579.030" x2="360.889" y2="1529.030"/>
      <line x1="361.889" y1="1579.030" x2="361.889" y2="1529.030"/>
      <line x1="362.889" y1="1579.030" x2="362.889" y2="1529.030"/>
      <line x1="363.889" y1="1579.030" x2="363.889" y2="1529.030"/>
      <line x1="364.889" y1="1579.030" x2="364.889" y2="1529.030"/>
      <line x1="365.889" y1="1579.030" x2="365.889" y2="1529.030"/>
      <line x1="366.889" y1="1579.030" x2="366.889" y2="1529.030"/>
      <line x1="367.889" y1="1579.030" x2="367.889" y2="1529.030"/>
      <line x1="368.889" y1="1579.030" x2="368.889" y2="1529.030"/>
      <line x1="369.889" y1="1579.030" x2="369.889" y2="1529.030"/>
      <line x1="370.889" y1="1579.030" x2="370.889" y2="1529.030"/>
      <line x1="371.889" y1="1579.030" x2="371.889" y2="1529.030"/>
      <line x1="372.889" y1="1579.030" x2="372.889" y2="1529.030"/>
      <line x1="373.889" y1="1579.030" x2="373.889" y2="1529.030"/>
      <line x1="374.889" y1="1579.030" x2="374.889" y2="1529.030"/>
      <line x1="375.889" y1="1579.030" x2="375.889" y2="1529.030"/>
      <line x1="376.889" y1="1579.030" x2="376.889" y2="1529.030"/>
      <line x1="377.889" y1="1579.030" x2="377.889" y2="1529.030"/>
      <line x1="378.889" y1="1579.030" x2="378.889" y2="1529.030"/>
      <line x1="379.889" y1="1579.030" x2="379.889" y2="1529.030"/>
      <line x1="380.889" y1="1579.030" x2="380.889" y2="1529.030"/>
      <line x1="381.889" y1="1579.030" x2="381.889" y2="1529.030"/>
      <line x1="382.889" y1="1579.030" x2="382.889" y2="1529.030"/>
      <line x1="383.889" y1="1579.030" x2="383.889" y2="1529.030"/>
      <line x1="384.889" y1="1579.030" x2="384.889" y2="1529.030"/>
      <line x1="385.889" y1="1579.030" x2="385.889" y2="1529.030"/>
      <line x1="386.889" y1="1579.030" x2="386.889" y2="1529.030"/>
      <line x1="387.889" y1="1579.030" x2="387.889" y2="1529.030"/>
      <line x1="388.889" y1="1579.030" x2="388.889" y2="1529.030"/>
      <line x1="389.889" y1="1579.030" x2="389.889" y2="1529.030"/>
      <line x1="390.889" y1="1579.030" x2="390.889" y2="1529.030"/>
      <line x1="391.889" y1="1579.030" x2="391.889" y2="1529.030"/>
      <line x1="392.889" y1="1579.030" x2="392.889" y2="1529.030"/>
      <line x1="393.889" y1="1579.030" x2="393.889" y2="1529.030"/>
      <line x1="394.889" y1="1579.030" x2="394.889" y2="1529.030"/>
      <line x1="395.889" y1="1579.030" x2="395.889" y2="1529.030"/>
      <line x1="396.889" y1="1579.030" x2="396.889" y2="1529.030"/>
      <line x1="397.889" y1="1579.030" x2="397.889" y2="1529.030"/>
      <line x1="398.889" y1="1579.030" x2="398.889" y2="1529.030"/>
      <line x1="399.889" y1="1579.030" x2="399.889" y2="1529.030"/>
      <line x1="400.889" y1="1579.030" x2="400.889" y2="1529.030"/>
      <line x1="401.889" y1="1579.030" x2="401.889" y2="1529.030"/>
      <line x1="402.889" y1="1579.030" x2="402.889" y2="1529.030"/>
      <line x1="403.889" y1="1579.030" x2="403.889" y2="1529.030"/>
      <line x1="404.889" y1="1579.030" x2="404.889" y2="1529.030"/>
      <line x1="405.889" y1="1579.030" x2="405.889" y2="1529.030"/>
      <line x1="406.889" y1="1579.030" x2="406.889" y2="1529.030"/>
      <line x1="407.889" y1="1579.030" x2="407.889" y2="1529.030"/>
      <line x1="408.889" y1="1579.030" x2="408.889" y2="1529.030"/>
      <line x1="409.889" y1="1579.030" x2="409.889" y2="1529.030"/>
      <line x1="410.889" y1="1579.030" x2="410.889" y2="1529.030"/>
      <line x1="411.889" y1="1579.030" x2="411.889" y2="1529.030"/>
      <line x1="412.889" y1="1579.030" x2="412.889" y2="1529.030"/>
      <line x1="413.889" y1="1579.030" x2="413.889" y2="1529.030"/>
      <line x1="414.889" y1="1579.030" x2="414.889" y2="1529.030"/>
      <line x1="415.889" y1="1579.030" x2="415.889" y2="1529.030"/>
      <line x1="416.889" y1="1579.030" x2="416.889" y2="1529.030"/>
      <line x1="417.889" y1="1579.030" x2="417.889" y2="1529.030"/>
      <line x1="418.889" y1="1579.030" x2="418.889" y2="1529.030"/>
      <line x1="419.889" y1="1579.030" x2="419.889" y2="1529.030"/>
      <line x1="420.889" y1="1579.030" x2="420.889" y2="1529.030"/>
      <line x1="421.889" y1="1579.030" x2="421.889" y2="1529.030"/>
      <line x1="422.889" y1="1579.030" x2="422.889" y2="1529.030"/>
      <line x1="423.889" y1="1579.030" x2="423.889" y2="1529.030"/>
      <line x1="424.889" y1="1579.030" x2="424.889" y2="1529.030"/>
      <line x1="425.889" y1="1579.030" x2="425.889" y2="1529.030"/>
      <line x1="426.889" y1="1579.030" x2="426.889" y2="1529.030"/>
      <line x1="427.889" y1="1579.030" x2="427.889" y2="1529.030"/>
      <line x1="428.889" y1="1579.030" x2="428.889" y2="1529.030"/>
      <line x1="429.889" y1="1579.030" x2="429.889" y2="1529.030"/>
      <line x1="430.889" y1="1579.030" x2="430.889" y2="1529.030"/>
      <line x1="431.889" y1="1579.030" x2="431.889" y2="1529.030"/>
      <line x1="432.889" y1="1579.030" x2="432.889" y2="1529.030"/>
      <line x1="433.889" y1="1579.030" x2="433.889" y2="1529.030"/>
      <line x1="434.889" y1="1579.030" x2="434.889" y2="1529.030"/>
      <line x1="435.889" y1="1579.030" x2="435.889" y2="1529.030"/>
      <line x1="436.889" y1="1579.030" x2="436.889" y2="1529.030"/>
      <line x1="437.889" y1="1579.030" x2="437.889" y2="1529.030"/>
      <line x1="438.889" y1="1579.030" x2="438.889" y2="1529.030"/>
      <line x1="439.889" y1="1579.030" x2="439.889" y2="1529.030"/>
      <line x1="440.889" y1="1579.030" x2="440.889" y2="1529.030"/>
      <line x1="441.889" y1="1579.030" x2="441.889" y2="1529.030"/>
      <line x1="442.889" y1="1579.030" x2="442.889" y2="1529.030"/>
      <line x1="443.889" y1="1579.030" x2="443.889" y2="1529.030"/>
      <line x1="444.889" y1="1579.030" x2="444.889" y2="1529.030"/>
      <line x1="445.889" y1="1579.030" x2="445.889" y2="1529.030"/>
      <line x1="446.889" y1="1579.030" x2="446.889" y2="1529.030"/>
      <line x1="447.889" y1="1579.030" x2="447.889" y2="1529.030"/>
      <line x1="448.889" y1="1579.030" x2="448.889" y2="1529.030"/>
      <line x1="449.889" y1="1579.030" x2="449.889" y2="1529.030"/>
      <line x1="450.889" y1="1579.030" x2="450.889" y2="1529.030"/>
      <line x1="451.889" y1="1579.030" x2="451.889" y2="1529.030"/>
      <line x1="452.889" y1="1579.030" x2="452.889" y2="1529.030"/>
      <line x1="453.889" y1="1579.030" x2="453.889" y2="1529.030"/>
      <line x1="454.889" y1="1579.030" x2="454.889" y2="1529.030"/>
      <line x1="455.889" y1="1579.030" x2="455.889" y2="1529.030"/>
      <line x1="456.889" y1="1579.030" x2="456.889" y2="1529.030"/>
      <line x1="457.889" y1="1579.030" x2="457.889" y2="1529.030"/>
      <line x1="458.889" y1="1579.030" x2="458.889" y2="1529.030"/>
      <line x1="459.889" y1="1579.030" x2="459.889" y2="1529.030"/>
      <line x1="460.889" y1="1579.030" x2="460.889" y2="1529.030"/>
      <line x1="461.889" y1="1579.030" x2="461.889" y2="1529.030"/>
      <line x1="462.889" y1="1579.030" x2="462.889" y2="1529.030"/>
      <line x1="463.889" y1="1579.030" x2="463.889" y2="1529.030"/>
      <line x1="464.889" y1="1579.030" x2="464.889" y2="1529.030"/>
      <line x1="465.889" y1="1579.030" x2="465.889" y2="1529.030"/>
      <line x1="466.889" y1="1579.030" x2="466.889" y2="1529.030"/>
      <line x1="467.889" y1="1579.030" x2="467.889" y2="1529.030"/>
      <line x1="468.889" y1="1579.030" x2="468.889" y2="1529.030"/>
      <line x1="469.889" y1="1579.030" x2="469.889" y2="1529.030"/>
      <line x1="470.889" y1="1579.030" x2="470.889" y2="1529.030"/>
      <line x1="471.889" y1="1579.030" x2="471.889" y2="1529.030"/>
      <line x1="472.889" y1="1579.030" x2="472.889" y2="1529.030"/>
      <line x1="473.889" y1="1579.030" x2="473.889" y2="1529.030"/>
      <line x1="474.889" y1="1579.030" x2="474.889" y2="1529.030"/>
      <line x1="475.889" y1="1579.030" x2="475.889" y2="1529.030"/>
      <line x1="476.889" y1="1579.030" x2="476.889" y2="1529.030"/>
      <line x1="477.889" y1="1579.030" x2="477.889" y2="1529.030"/>
      <line x1="142.889" y1="1528.930" x2="142.889" y2="1525.229"/>
      <line x1="143.889" y1="1528.930" x2="143.889" y2="1525.229"/>
      <line x1="144.889" y1="1528.930" x2="144.889" y2="1525.229"/>
      <line x1="145.889" y1="1528.930" x2="145.889" y2="1525.229"/>
      <line x1="146.889" y1="1528.930" x2="146.889" y2="1525.229"/>
      <line x1="147.889" y1="1528.930" x2="147.889" y2="1525.229"/>
      <line x1="148.889" y1="1528.930" x2="148.889" y2="1525.229"/>
      <line x1="149.889" y1="1528.930" x2="149.889" y2="1525.229"/>
      <line x1="150.889" y1="1528.930" x2="150.889" y2="1525.229"/>
      <line x1="151.889" y1="1528.930" x2="151.889" y2="1525.229"/>
      <line x1="152.889" y1="1528.930" x2="152.889" y2="1525.229"/>
      <line x1="153.889" y1="1528.930" x2="153.889" y2="1525.229"/>
      <line x1="154.889" y1="1528.930" x2="154.889" y2="1525.229"/>
      <line x1="155.889" y1="1528.930" x2="155.889" y2="1525.229"/>
      <line x1="156.889" y1="1528.930" x2="156.889" y2="1525.229"/>
      <line x1="157.889" y1="1528.930" x2="157.889" y2="1525.229"/>
      <line x1="158.889" y1="1528.930" x2="158.889" y2="1525.229"/>
      <line x1="159.889" y1="1528.930" x2="159.889" y2="1525.229"/>
      <line x1="160.889" y1="1528.930" x2="160.889" y2="1525.229"/>
      <line x1="161.889" y1="1528.930" x2="161.889" y2="1525.229"/>
      <line x1="162.889" y1="1528.930" x2="162.889" y2="1525.229"/>
      <line x1="141.889" y1="1528.930" x2="141.889" y2="1525.229"/>
      <line x1="140.889" y1="1528.930" x2="140.889" y2="1525.229"/>
      <line x1="139.889" y1="1528.930" x2="139.889" y2="1525.229"/>
      <line x1="138.889" y1="1528.930" x2="138.889" y2="1525.229"/>
      <line x1="137.889" y1="1528.930" x2="137.889" y2="1525.229"/>
      <line x1="136.889" y1="1528.930" x2="136.889" y2="1525.229"/>
      <line x1="135.889" y1="1528.930" x2="135.889" y2="1525.229"/>
      <line x1="134.889" y1="1528.930" x2="134.889" y2="1525.229"/>
      <line x1="133.889" y1="1528.930" x2="133.889" y2="1525.229"/>
      <line x1="130.889" y1="1528.930" x2="130.889" y2="1525.229"/>
      <line x1="131.889" y1="1528.930" x2="131.889" y2="1525.229"/>
      <line x1="127.889" y1="1528.930" x2="127.889" y2="1525.229"/>
      <line x1="128.889" y1="1528.930" x2="128.889" y2="1525.229"/>
      <line x1="124.889" y1="1528.930" x2="124.889" y2="1525.229"/>
      <line x1="125.889" y1="1528.930" x2="125.889" y2="1525.229"/>
      <line x1="121.889" y1="1528.930" x2="121.889" y2="1525.229"/>
      <line x1="122.889" y1="1528.930" x2="122.889" y2="1525.229"/>
      <line x1="170.889" y1="1528.930" x2="170.889" y2="1525.229"/>
      <line x1="169.889" y1="1528.930" x2="169.889" y2="1525.229"/>
      <line x1="168.889" y1="1528.930" x2="168.889" y2="1525.229"/>
      <line x1="167.889" y1="1528.930" x2="167.889" y2="1525.229"/>
      <line x1="166.889" y1="1528.930" x2="166.889" y2="1525.229"/>
      <line x1="164.889" y1="1528.930" x2="164.889" y2="1525.229"/>
      <line x1="163.889" y1="1528.930" x2="163.889" y2="1525.229"/>
      <line x1="165.889" y1="1528.930" x2="165.889" y2="1525.229"/>
      <line x1="132.889" y1="1528.930" x2="132.889" y2="1525.229"/>
      <line x1="129.889" y1="1528.930" x2="129.889" y2="1525.229"/>
      <line x1="126.889" y1="1528.930" x2="126.889" y2="1525.229"/>
      <line x1="123.889" y1="1528.930" x2="123.889" y2="1525.229"/>
      <line x1="172.889" y1="1528.930" x2="172.889" y2="1525.229"/>
      <line x1="171.889" y1="1528.930" x2="171.889" y2="1525.229"/>
      <line x1="209.889" y1="1528.930" x2="209.889" y2="1525.229"/>
      <line x1="217.889" y1="1528.930" x2="217.889" y2="1525.229"/>
      <line x1="216.889" y1="1528.930" x2="216.889" y2="1525.229"/>
      <line x1="215.889" y1="1528.930" x2="215.889" y2="1525.229"/>
      <line x1="214.889" y1="1528.930" x2="214.889" y2="1525.229"/>
      <line x1="213.889" y1="1528.930" x2="213.889" y2="1525.229"/>
      <line x1="212.889" y1="1528.930" x2="212.889" y2="1525.229"/>
      <line x1="211.889" y1="1528.930" x2="211.889" y2="1525.229"/>
      <line x1="210.889" y1="1528.930" x2="210.889" y2="1525.229"/>
      <line x1="218.889" y1="1528.930" x2="218.889" y2="1525.229"/>
      <line x1="208.889" y1="1528.930" x2="208.889" y2="1525.229"/>
      <line x1="207.889" y1="1528.930" x2="207.889" y2="1525.229"/>
      <line x1="206.889" y1="1528.930" x2="206.889" y2="1525.229"/>
      <line x1="205.889" y1="1528.930" x2="205.889" y2="1525.229"/>
      <line x1="204.889" y1="1528.930" x2="204.889" y2="1525.229"/>
      <line x1="203.889" y1="1528.930" x2="203.889" y2="1525.229"/>
      <line x1="202.889" y1="1528.930" x2="202.889" y2="1525.229"/>
      <line x1="201.889" y1="1528.930" x2="201.889" y2="1525.229"/>
      <line x1="219.889" y1="1528.930" x2="219.889" y2="1525.229"/>
      <line x1="220.889" y1="1528.930" x2="220.889" y2="1525.229"/>
      <line x1="176.889" y1="1528.930" x2="176.889" y2="1525.229"/>
      <line x1="184.889" y1="1528.930" x2="184.889" y2="1525.229"/>
      <line x1="183.889" y1="1528.930" x2="183.889" y2="1525.229"/>
      <line x1="182.889" y1="1528.930" x2="182.889" y2="1525.229"/>
      <line x1="181.889" y1="1528.930" x2="181.889" y2="1525.229"/>
      <line x1="180.889" y1="1528.930" x2="180.889" y2="1525.229"/>
      <line x1="179.889" y1="1528.930" x2="179.889" y2="1525.229"/>
      <line x1="178.889" y1="1528.930" x2="178.889" y2="1525.229"/>
      <line x1="177.889" y1="1528.930" x2="177.889" y2="1525.229"/>
      <line x1="185.889" y1="1528.930" x2="185.889" y2="1525.229"/>
      <line x1="175.889" y1="1528.930" x2="175.889" y2="1525.229"/>
      <line x1="174.889" y1="1528.930" x2="174.889" y2="1525.229"/>
      <line x1="173.889" y1="1528.930" x2="173.889" y2="1525.229"/>
      <line x1="186.889" y1="1528.930" x2="186.889" y2="1525.229"/>
      <line x1="187.889" y1="1528.930" x2="187.889" y2="1525.229"/>
      <line x1="188.889" y1="1528.930" x2="188.889" y2="1525.229"/>
      <line x1="189.889" y1="1528.930" x2="189.889" y2="1525.229"/>
      <line x1="190.889" y1="1528.930" x2="190.889" y2="1525.229"/>
      <line x1="191.889" y1="1528.930" x2="191.889" y2="1525.229"/>
      <line x1="192.889" y1="1528.930" x2="192.889" y2="1525.229"/>
      <line x1="193.889" y1="1528.930" x2="193.889" y2="1525.229"/>
      <line x1="194.889" y1="1528.930" x2="194.889" y2="1525.229"/>
      <line x1="195.889" y1="1528.930" x2="195.889" y2="1525.229"/>
      <line x1="196.889" y1="1528.930" x2="196.889" y2="1525.229"/>
      <line x1="197.889" y1="1528.930" x2="197.889" y2="1525.229"/>
      <line x1="198.889" y1="1528.930" x2="198.889" y2="1525.229"/>
      <line x1="199.889" y1="1528.930" x2="199.889" y2="1525.229"/>
      <line x1="200.889" y1="1528.930" x2="200.889" y2="1525.229"/>
      <line x1="222.889" y1="1528.930" x2="222.889" y2="1525.229"/>
      <line x1="223.889" y1="1528.930" x2="223.889" y2="1525.229"/>
      <line x1="224.889" y1="1528.930" x2="224.889" y2="1525.229"/>
      <line x1="225.889" y1="1528.930" x2="225.889" y2="1525.229"/>
      <line x1="226.889" y1="1528.930" x2="226.889" y2="1525.229"/>
      <line x1="227.889" y1="1528.930" x2="227.889" y2="1525.229"/>
      <line x1="228.889" y1="1528.930" x2="228.889" y2="1525.229"/>
      <line x1="229.889" y1="1528.930" x2="229.889" y2="1525.229"/>
      <line x1="230.889" y1="1528.930" x2="230.889" y2="1525.229"/>
      <line x1="231.889" y1="1528.930" x2="231.889" y2="1525.229"/>
      <line x1="232.889" y1="1528.930" x2="232.889" y2="1525.229"/>
      <line x1="233.889" y1="1528.930" x2="233.889" y2="1525.229"/>
      <line x1="234.889" y1="1528.930" x2="234.889" y2="1525.229"/>
      <line x1="271.889" y1="1528.930" x2="271.889" y2="1525.229"/>
      <line x1="270.889" y1="1528.930" x2="270.889" y2="1525.229"/>
      <line x1="269.889" y1="1528.930" x2="269.889" y2="1525.229"/>
      <line x1="268.889" y1="1528.930" x2="268.889" y2="1525.229"/>
      <line x1="267.889" y1="1528.930" x2="267.889" y2="1525.229"/>
      <line x1="266.889" y1="1528.930" x2="266.889" y2="1525.229"/>
      <line x1="250.889" y1="1528.930" x2="250.889" y2="1525.229"/>
      <line x1="235.889" y1="1528.930" x2="235.889" y2="1525.229"/>
      <line x1="236.889" y1="1528.930" x2="236.889" y2="1525.229"/>
      <line x1="237.889" y1="1528.930" x2="237.889" y2="1525.229"/>
      <line x1="238.889" y1="1528.930" x2="238.889" y2="1525.229"/>
      <line x1="239.889" y1="1528.930" x2="239.889" y2="1525.229"/>
      <line x1="240.889" y1="1528.930" x2="240.889" y2="1525.229"/>
      <line x1="241.889" y1="1528.930" x2="241.889" y2="1525.229"/>
      <line x1="242.889" y1="1528.930" x2="242.889" y2="1525.229"/>
      <line x1="243.889" y1="1528.930" x2="243.889" y2="1525.229"/>
      <line x1="244.889" y1="1528.930" x2="244.889" y2="1525.229"/>
      <line x1="245.889" y1="1528.930" x2="245.889" y2="1525.229"/>
      <line x1="246.889" y1="1528.930" x2="246.889" y2="1525.229"/>
      <line x1="247.889" y1="1528.930" x2="247.889" y2="1525.229"/>
      <line x1="248.889" y1="1528.930" x2="248.889" y2="1525.229"/>
      <line x1="249.889" y1="1528.930" x2="249.889" y2="1525.229"/>
      <line x1="251.889" y1="1528.930" x2="251.889" y2="1525.229"/>
      <line x1="252.889" y1="1528.930" x2="252.889" y2="1525.229"/>
      <line x1="253.889" y1="1528.930" x2="253.889" y2="1525.229"/>
      <line x1="254.889" y1="1528.930" x2="254.889" y2="1525.229"/>
      <line x1="255.889" y1="1528.930" x2="255.889" y2="1525.229"/>
      <line x1="256.889" y1="1528.930" x2="256.889" y2="1525.229"/>
      <line x1="257.889" y1="1528.930" x2="257.889" y2="1525.229"/>
      <line x1="258.889" y1="1528.930" x2="258.889" y2="1525.229"/>
      <line x1="259.889" y1="1528.930" x2="259.889" y2="1525.229"/>
      <line x1="260.889" y1="1528.930" x2="260.889" y2="1525.229"/>
      <line x1="261.889" y1="1528.930" x2="261.889" y2="1525.229"/>
      <line x1="262.889" y1="1528.930" x2="262.889" y2="1525.229"/>
      <line x1="263.889" y1="1528.930" x2="263.889" y2="1525.229"/>
      <line x1="264.889" y1="1528.930" x2="264.889" y2="1525.229"/>
      <line x1="265.889" y1="1528.930" x2="265.889" y2="1525.229"/>
      <line x1="300.889" y1="1528.930" x2="300.889" y2="1525.229"/>
      <line x1="307.889" y1="1528.930" x2="307.889" y2="1525.229"/>
      <line x1="315.889" y1="1528.930" x2="315.889" y2="1525.229"/>
      <line x1="314.889" y1="1528.930" x2="314.889" y2="1525.229"/>
      <line x1="313.889" y1="1528.930" x2="313.889" y2="1525.229"/>
      <line x1="312.889" y1="1528.930" x2="312.889" y2="1525.229"/>
      <line x1="311.889" y1="1528.930" x2="311.889" y2="1525.229"/>
      <line x1="310.889" y1="1528.930" x2="310.889" y2="1525.229"/>
      <line x1="309.889" y1="1528.930" x2="309.889" y2="1525.229"/>
      <line x1="308.889" y1="1528.930" x2="308.889" y2="1525.229"/>
      <line x1="316.889" y1="1528.930" x2="316.889" y2="1525.229"/>
      <line x1="306.889" y1="1528.930" x2="306.889" y2="1525.229"/>
      <line x1="305.889" y1="1528.930" x2="305.889" y2="1525.229"/>
      <line x1="304.889" y1="1528.930" x2="304.889" y2="1525.229"/>
      <line x1="303.889" y1="1528.930" x2="303.889" y2="1525.229"/>
      <line x1="302.889" y1="1528.930" x2="302.889" y2="1525.229"/>
      <line x1="301.889" y1="1528.930" x2="301.889" y2="1525.229"/>
      <line x1="299.889" y1="1528.930" x2="299.889" y2="1525.229"/>
      <line x1="317.889" y1="1528.930" x2="317.889" y2="1525.229"/>
      <line x1="318.889" y1="1528.930" x2="318.889" y2="1525.229"/>
      <line x1="319.889" y1="1528.930" x2="319.889" y2="1525.229"/>
      <line x1="320.889" y1="1528.930" x2="320.889" y2="1525.229"/>
      <line x1="321.889" y1="1528.930" x2="321.889" y2="1525.229"/>
      <line x1="274.889" y1="1528.930" x2="274.889" y2="1525.229"/>
      <line x1="282.889" y1="1528.930" x2="282.889" y2="1525.229"/>
      <line x1="281.889" y1="1528.930" x2="281.889" y2="1525.229"/>
      <line x1="280.889" y1="1528.930" x2="280.889" y2="1525.229"/>
      <line x1="279.889" y1="1528.930" x2="279.889" y2="1525.229"/>
      <line x1="278.889" y1="1528.930" x2="278.889" y2="1525.229"/>
      <line x1="277.889" y1="1528.930" x2="277.889" y2="1525.229"/>
      <line x1="276.889" y1="1528.930" x2="276.889" y2="1525.229"/>
      <line x1="275.889" y1="1528.930" x2="275.889" y2="1525.229"/>
      <line x1="283.889" y1="1528.930" x2="283.889" y2="1525.229"/>
      <line x1="273.889" y1="1528.930" x2="273.889" y2="1525.229"/>
      <line x1="272.889" y1="1528.930" x2="272.889" y2="1525.229"/>
      <line x1="284.889" y1="1528.930" x2="284.889" y2="1525.229"/>
      <line x1="285.889" y1="1528.930" x2="285.889" y2="1525.229"/>
      <line x1="286.889" y1="1528.930" x2="286.889" y2="1525.229"/>
      <line x1="287.889" y1="1528.930" x2="287.889" y2="1525.229"/>
      <line x1="288.889" y1="1528.930" x2="288.889" y2="1525.229"/>
      <line x1="289.889" y1="1528.930" x2="289.889" y2="1525.229"/>
      <line x1="290.889" y1="1528.930" x2="290.889" y2="1525.229"/>
      <line x1="291.889" y1="1528.930" x2="291.889" y2="1525.229"/>
      <line x1="292.889" y1="1528.930" x2="292.889" y2="1525.229"/>
      <line x1="293.889" y1="1528.930" x2="293.889" y2="1525.229"/>
      <line x1="294.889" y1="1528.930" x2="294.889" y2="1525.229"/>
      <line x1="295.889" y1="1528.930" x2="295.889" y2="1525.229"/>
      <line x1="296.889" y1="1528.930" x2="296.889" y2="1525.229"/>
      <line x1="297.889" y1="1528.930" x2="297.889" y2="1525.229"/>
      <line x1="298.889" y1="1528.930" x2="298.889" y2="1525.229"/>
      <line x1="348.889" y1="1528.930" x2="348.889" y2="1525.229"/>
      <line x1="333.889" y1="1528.930" x2="333.889" y2="1525.229"/>
      <line x1="347.889" y1="1528.930" x2="347.889" y2="1525.229"/>
      <line x1="346.889" y1="1528.930" x2="346.889" y2="1525.229"/>
      <line x1="345.889" y1="1528.930" x2="345.889" y2="1525.229"/>
      <line x1="344.889" y1="1528.930" x2="344.889" y2="1525.229"/>
      <line x1="343.889" y1="1528.930" x2="343.889" y2="1525.229"/>
      <line x1="342.889" y1="1528.930" x2="342.889" y2="1525.229"/>
      <line x1="341.889" y1="1528.930" x2="341.889" y2="1525.229"/>
      <line x1="340.889" y1="1528.930" x2="340.889" y2="1525.229"/>
      <line x1="339.889" y1="1528.930" x2="339.889" y2="1525.229"/>
      <line x1="338.889" y1="1528.930" x2="338.889" y2="1525.229"/>
      <line x1="337.889" y1="1528.930" x2="337.889" y2="1525.229"/>
      <line x1="336.889" y1="1528.930" x2="336.889" y2="1525.229"/>
      <line x1="335.889" y1="1528.930" x2="335.889" y2="1525.229"/>
      <line x1="334.889" y1="1528.930" x2="334.889" y2="1525.229"/>
      <line x1="364.889" y1="1528.930" x2="364.889" y2="1525.229"/>
      <line x1="349.889" y1="1528.930" x2="349.889" y2="1525.229"/>
      <line x1="350.889" y1="1528.930" x2="350.889" y2="1525.229"/>
      <line x1="351.889" y1="1528.930" x2="351.889" y2="1525.229"/>
      <line x1="352.889" y1="1528.930" x2="352.889" y2="1525.229"/>
      <line x1="353.889" y1="1528.930" x2="353.889" y2="1525.229"/>
      <line x1="354.889" y1="1528.930" x2="354.889" y2="1525.229"/>
      <line x1="355.889" y1="1528.930" x2="355.889" y2="1525.229"/>
      <line x1="356.889" y1="1528.930" x2="356.889" y2="1525.229"/>
      <line x1="357.889" y1="1528.930" x2="357.889" y2="1525.229"/>
      <line x1="358.889" y1="1528.930" x2="358.889" y2="1525.229"/>
      <line x1="359.889" y1="1528.930" x2="359.889" y2="1525.229"/>
      <line x1="360.889" y1="1528.930" x2="360.889" y2="1525.229"/>
      <line x1="361.889" y1="1528.930" x2="361.889" y2="1525.229"/>
      <line x1="362.889" y1="1528.930" x2="362.889" y2="1525.229"/>
      <line x1="363.889" y1="1528.930" x2="363.889" y2="1525.229"/>
      <line x1="332.889" y1="1528.930" x2="332.889" y2="1525.229"/>
      <line x1="322.889" y1="1528.930" x2="322.889" y2="1525.229"/>
      <line x1="323.889" y1="1528.930" x2="323.889" y2="1525.229"/>
      <line x1="324.889" y1="1528.930" x2="324.889" y2="1525.229"/>
      <line x1="325.889" y1="1528.930" x2="325.889" y2="1525.229"/>
      <line x1="326.889" y1="1528.930" x2="326.889" y2="1525.229"/>
      <line x1="327.889" y1="1528.930" x2="327.889" y2="1525.229"/>
      <line x1="328.889" y1="1528.930" x2="328.889" y2="1525.229"/>
      <line x1="329.889" y1="1528.930" x2="329.889" y2="1525.229"/>
      <line x1="330.889" y1="1528.930" x2="330.889" y2="1525.229"/>
      <line x1="331.889" y1="1528.930" x2="331.889" y2="1525.229"/>
      <line x1="366.889" y1="1528.930" x2="366.889" y2="1525.229"/>
      <line x1="367.889" y1="1528.930" x2="367.889" y2="1525.229"/>
      <line x1="368.889" y1="1528.930" x2="368.889" y2="1525.229"/>
      <line x1="369.889" y1="1528.930" x2="369.889" y2="1525.229"/>
      <line x1="370.889" y1="1528.930" x2="370.889" y2="1525.229"/>
      <line x1="371.889" y1="1528.930" x2="371.889" y2="1525.229"/>
      <line x1="365.889" y1="1528.930" x2="365.889" y2="1525.229"/>
      <line x1="405.889" y1="1528.930" x2="405.889" y2="1525.229"/>
      <line x1="413.889" y1="1528.930" x2="413.889" y2="1525.229"/>
      <line x1="412.889" y1="1528.930" x2="412.889" y2="1525.229"/>
      <line x1="411.889" y1="1528.930" x2="411.889" y2="1525.229"/>
      <line x1="410.889" y1="1528.930" x2="410.889" y2="1525.229"/>
      <line x1="409.889" y1="1528.930" x2="409.889" y2="1525.229"/>
      <line x1="408.889" y1="1528.930" x2="408.889" y2="1525.229"/>
      <line x1="407.889" y1="1528.930" x2="407.889" y2="1525.229"/>
      <line x1="406.889" y1="1528.930" x2="406.889" y2="1525.229"/>
      <line x1="414.889" y1="1528.930" x2="414.889" y2="1525.229"/>
      <line x1="404.889" y1="1528.930" x2="404.889" y2="1525.229"/>
      <line x1="403.889" y1="1528.930" x2="403.889" y2="1525.229"/>
      <line x1="402.889" y1="1528.930" x2="402.889" y2="1525.229"/>
      <line x1="401.889" y1="1528.930" x2="401.889" y2="1525.229"/>
      <line x1="400.889" y1="1528.930" x2="400.889" y2="1525.229"/>
      <line x1="399.889" y1="1528.930" x2="399.889" y2="1525.229"/>
      <line x1="398.889" y1="1528.930" x2="398.889" y2="1525.229"/>
      <line x1="397.889" y1="1528.930" x2="397.889" y2="1525.229"/>
      <line x1="415.889" y1="1528.930" x2="415.889" y2="1525.229"/>
      <line x1="416.889" y1="1528.930" x2="416.889" y2="1525.229"/>
      <line x1="417.889" y1="1528.930" x2="417.889" y2="1525.229"/>
      <line x1="418.889" y1="1528.930" x2="418.889" y2="1525.229"/>
      <line x1="419.889" y1="1528.930" x2="419.889" y2="1525.229"/>
      <line x1="420.889" y1="1528.930" x2="420.889" y2="1525.229"/>
      <line x1="421.889" y1="1528.930" x2="421.889" y2="1525.229"/>
      <line x1="381.889" y1="1528.930" x2="381.889" y2="1525.229"/>
      <line x1="372.889" y1="1528.930" x2="372.889" y2="1525.229"/>
      <line x1="373.889" y1="1528.930" x2="373.889" y2="1525.229"/>
      <line x1="374.889" y1="1528.930" x2="374.889" y2="1525.229"/>
      <line x1="375.889" y1="1528.930" x2="375.889" y2="1525.229"/>
      <line x1="376.889" y1="1528.930" x2="376.889" y2="1525.229"/>
      <line x1="377.889" y1="1528.930" x2="377.889" y2="1525.229"/>
      <line x1="378.889" y1="1528.930" x2="378.889" y2="1525.229"/>
      <line x1="379.889" y1="1528.930" x2="379.889" y2="1525.229"/>
      <line x1="380.889" y1="1528.930" x2="380.889" y2="1525.229"/>
      <line x1="382.889" y1="1528.930" x2="382.889" y2="1525.229"/>
      <line x1="383.889" y1="1528.930" x2="383.889" y2="1525.229"/>
      <line x1="384.889" y1="1528.930" x2="384.889" y2="1525.229"/>
      <line x1="385.889" y1="1528.930" x2="385.889" y2="1525.229"/>
      <line x1="386.889" y1="1528.930" x2="386.889" y2="1525.229"/>
      <line x1="387.889" y1="1528.930" x2="387.889" y2="1525.229"/>
      <line x1="388.889" y1="1528.930" x2="388.889" y2="1525.229"/>
      <line x1="389.889" y1="1528.930" x2="389.889" y2="1525.229"/>
      <line x1="390.889" y1="1528.930" x2="390.889" y2="1525.229"/>
      <line x1="391.889" y1="1528.930" x2="391.889" y2="1525.229"/>
      <line x1="392.889" y1="1528.930" x2="392.889" y2="1525.229"/>
      <line x1="393.889" y1="1528.930" x2="393.889" y2="1525.229"/>
      <line x1="394.889" y1="1528.930" x2="394.889" y2="1525.229"/>
      <line x1="395.889" y1="1528.930" x2="395.889" y2="1525.229"/>
      <line x1="396.889" y1="1528.930" x2="396.889" y2="1525.229"/>
      <line x1="437.889" y1="1528.930" x2="437.889" y2="1525.229"/>
      <line x1="458.889" y1="1528.930" x2="458.889" y2="1525.229"/>
      <line x1="436.889" y1="1528.930" x2="436.889" y2="1525.229"/>
      <line x1="438.889" y1="1528.930" x2="438.889" y2="1525.229"/>
      <line x1="439.889" y1="1528.930" x2="439.889" y2="1525.229"/>
      <line x1="440.889" y1="1528.930" x2="440.889" y2="1525.229"/>
      <line x1="441.889" y1="1528.930" x2="441.889" y2="1525.229"/>
      <line x1="442.889" y1="1528.930" x2="442.889" y2="1525.229"/>
      <line x1="443.889" y1="1528.930" x2="443.889" y2="1525.229"/>
      <line x1="444.889" y1="1528.930" x2="444.889" y2="1525.229"/>
      <line x1="445.889" y1="1528.930" x2="445.889" y2="1525.229"/>
      <line x1="446.889" y1="1528.930" x2="446.889" y2="1525.229"/>
      <line x1="447.889" y1="1528.930" x2="447.889" y2="1525.229"/>
      <line x1="449.889" y1="1528.930" x2="449.889" y2="1525.229"/>
      <line x1="457.889" y1="1528.930" x2="457.889" y2="1525.229"/>
      <line x1="456.889" y1="1528.930" x2="456.889" y2="1525.229"/>
      <line x1="455.889" y1="1528.930" x2="455.889" y2="1525.229"/>
      <line x1="454.889" y1="1528.930" x2="454.889" y2="1525.229"/>
      <line x1="452.889" y1="1528.930" x2="452.889" y2="1525.229"/>
      <line x1="448.889" y1="1528.930" x2="448.889" y2="1525.229"/>
      <line x1="450.889" y1="1528.930" x2="450.889" y2="1525.229"/>
      <line x1="451.889" y1="1528.930" x2="451.889" y2="1525.229"/>
      <line x1="453.889" y1="1528.930" x2="453.889" y2="1525.229"/>
      <line x1="459.889" y1="1528.930" x2="459.889" y2="1525.229"/>
      <line x1="470.889" y1="1528.930" x2="470.889" y2="1525.229"/>
      <line x1="471.889" y1="1528.930" x2="471.889" y2="1525.229"/>
      <line x1="468.889" y1="1528.930" x2="468.889" y2="1525.229"/>
      <line x1="460.889" y1="1528.930" x2="460.889" y2="1525.229"/>
      <line x1="461.889" y1="1528.930" x2="461.889" y2="1525.229"/>
      <line x1="462.889" y1="1528.930" x2="462.889" y2="1525.229"/>
      <line x1="463.889" y1="1528.930" x2="463.889" y2="1525.229"/>
      <line x1="464.889" y1="1528.930" x2="464.889" y2="1525.229"/>
      <line x1="465.889" y1="1528.930" x2="465.889" y2="1525.229"/>
      <line x1="435.889" y1="1528.930" x2="435.889" y2="1525.229"/>
      <line x1="434.889" y1="1528.930" x2="434.889" y2="1525.229"/>
      <line x1="433.889" y1="1528.930" x2="433.889" y2="1525.229"/>
      <line x1="432.889" y1="1528.930" x2="432.889" y2="1525.229"/>
      <line x1="431.889" y1="1528.930" x2="431.889" y2="1525.229"/>
      <line x1="430.889" y1="1528.930" x2="430.889" y2="1525.229"/>
      <line x1="428.889" y1="1528.930" x2="428.889" y2="1525.229"/>
      <line x1="429.889" y1="1528.930" x2="429.889" y2="1525.229"/>
      <line x1="427.889" y1="1528.930" x2="427.889" y2="1525.229"/>
      <line x1="426.889" y1="1528.930" x2="426.889" y2="1525.229"/>
      <line x1="422.889" y1="1528.930" x2="422.889" y2="1525.229"/>
      <line x1="423.889" y1="1528.930" x2="423.889" y2="1525.229"/>
      <line x1="424.889" y1="1528.930" x2="424.889" y2="1525.229"/>
      <line x1="425.889" y1="1528.930" x2="425.889" y2="1525.229"/>
      <line x1="467.889" y1="1528.930" x2="467.889" y2="1525.229"/>
      <line x1="466.889" y1="1528.930" x2="466.889" y2="1525.229"/>
      <line x1="469.889" y1="1528.930" x2="469.889" y2="1525.229"/>
      <line x1="473.889" y1="1528.930" x2="473.889" y2="1525.229"/>
      <line x1="474.889" y1="1528.930" x2="474.889" y2="1525.229"/>
      <line x1="476.889" y1="1528.930" x2="476.889" y2="1525.229"/>
      <line x1="477.889" y1="1528.930" x2="477.889" y2="1525.229"/>
      <line x1="472.889" y1="1528.930" x2="472.889" y2="1525.229"/>
      <line x1="475.889" y1="1528.930" x2="475.889" y2="1525.229"/>
    </g>
    <g stroke="#1976D2" stroke-width="0.4">
      <polyline points="481.806,1521.729 118.194,1521.729 118.194,1682.729 481.806,1682.729 481.806,1521.729" fill="none"/>
      <polyline points="480.806,1522.729 119.194,1522.729 119.194,1681.730 480.806,1681.730 480.806,1522.729" fill="none"/>
      <polyline points="479.806,1523.729 120.194,1523.729 120.194,1680.730 479.806,1680.730 479.806,1523.729" fill="none"/>
      <polyline points="478.806,1524.729 121.194,1524.729 121.194,1679.729 478.806,1679.729 478.806,1524.729" fill="none"/>
    </g>
    <g stroke="#C62828" stroke-width="0.4" fill="none">
    </g>
    <g stroke="#EF6C00" stroke-width="0.4" fill="none">
    </g>
  </g>
  <g stroke="#000000" stroke-width="0.4">
    <line x1="500.000" y1="1000.000" x2="1500.000" y2="1000.000"/>
  </g>
  <g stroke="#000000" stroke-width="0.4">
    <line x1="1000.000" y1="500.000" x2="1000.000" y2="1500.000"/>
  </g>
  <circle cx="1000.000" cy="1000.000" r="1000.000" stroke="red" stroke-width="1" fill="none"/>
  </g>
</svg>
