<?xml version="1.0" encoding="UTF-8"?>
<svg xmlns="http://www.w3.org/2000/svg" version="1.1" width="2000" height="2000">
  <g fill="none" stroke-linecap="round" stroke-linejoin="round">
  <text x="10" y="20" font-size="24" fill="#555">Layer 219 Z=55.800 mm</text>
  <g transform="translate(700.000,-602.229)">
    <g stroke="#2E7D32" stroke-width="0.4">
      <line x1="516.228" y1="1629.252" x2="466.228" y2="1629.252"/>
      <line x1="516.228" y1="1630.252" x2="466.228" y2="1630.252"/>
      <line x1="516.228" y1="1631.252" x2="466.228" y2="1631.252"/>
      <line x1="516.228" y1="1632.252" x2="466.228" y2="1632.252"/>
      <line x1="516.228" y1="1633.252" x2="466.228" y2="1633.252"/>
      <line x1="516.228" y1="1634.252" x2="466.228" y2="1634.252"/>
      <line x1="516.228" y1="1635.252" x2="466.228" y2="1635.252"/>
      <line x1="516.228" y1="1636.252" x2="466.228" y2="1636.252"/>
      <line x1="516.228" y1="1637.252" x2="466.228" y2="1637.252"/>
      <line x1="516.228" y1="1638.252" x2="466.228" y2="1638.252"/>
      <line x1="516.228" y1="1639.252" x2="466.228" y2="1639.252"/>
      <line x1="516.228" y1="1640.252" x2="466.228" y2="1640.252"/>
      <line x1="516.228" y1="1641.252" x2="466.228" y2="1641.252"/>
      <line x1="516.228" y1="1642.252" x2="466.228" y2="1642.252"/>
      <line x1="516.228" y1="1643.252" x2="466.228" y2="1643.252"/>
      <line x1="516.228" y1="1644.252" x2="466.228" y2="1644.252"/>
      <line x1="516.228" y1="1645.252" x2="466.228" y2="1645.252"/>
      <line x1="516.228" y1="1646.252" x2="466.228" y2="1646.252"/>
      <line x1="516.228" y1="1647.252" x2="466.228" y2="1647.252"/>
      <line x1="516.228" y1="1648.252" x2="466.228" y2="1648.252"/>
      <line x1="516.228" y1="1649.252" x2="466.228" y2="1649.252"/>
      <line x1="516.228" y1="1650.252" x2="466.228" y2="1650.252"/>
      <line x1="516.228" y1="1651.252" x2="466.228" y2="1651.252"/>
      <line x1="516.228" y1="1652.252" x2="466.228" y2="1652.252"/>
      <line x1="516.228" y1="1653.252" x2="466.228" y2="1653.252"/>
      <line x1="516.228" y1="1654.252" x2="466.228" y2="1654.252"/>
      <line x1="516.228" y1="1655.252" x2="466.228" y2="1655.252"/>
      <line x1="516.228" y1="1656.252" x2="466.228" y2="1656.252"/>
      <line x1="516.228" y1="1657.252" x2="466.228" y2="1657.252"/>
      <line x1="516.228" y1="1658.252" x2="466.228" y2="1658.252"/>
      <line x1="516.228" y1="1659.252" x2="466.228" y2="1659.252"/>
      <line x1="516.228" y1="1660.252" x2="466.228" y2="1660.252"/>
      <line x1="516.228" y1="1661.252" x2="466.228" y2="1661.252"/>
      <line x1="516.228" y1="1662.252" x2="466.228" y2="1662.252"/>
      <line x1="516.228" y1="1663.252" x2="466.228" y2="1663.252"/>
      <line x1="516.228" y1="1664.252" x2="466.228" y2="1664.252"/>
      <line x1="516.228" y1="1665.252" x2="466.228" y2="1665.252"/>
      <line x1="516.228" y1="1666.252" x2="466.228" y2="1666.252"/>
      <line x1="516.228" y1="1667.252" x2="466.228" y2="1667.252"/>
      <line x1="516.228" y1="1668.252" x2="466.228" y2="1668.252"/>
      <line x1="516.228" y1="1669.252" x2="466.228" y2="1669.252"/>
      <line x1="516.228" y1="1670.252" x2="466.228" y2="1670.252"/>
      <line x1="516.228" y1="1671.252" x2="466.228" y2="1671.252"/>
      <line x1="516.228" y1="1672.252" x2="466.228" y2="1672.252"/>
      <line x1="516.228" y1="1673.252" x2="466.228" y2="1673.252"/>
      <line x1="516.228" y1="1674.252" x2="466.228" y2="1674.252"/>
      <line x1="516.228" y1="1675.252" x2="466.228" y2="1675.252"/>
      <line x1="516.228" y1="1676.252" x2="466.228" y2="1676.252"/>
      <line x1="516.228" y1="1677.252" x2="466.228" y2="1677.252"/>
      <line x1="516.228" y1="1678.252" x2="466.228" y2="1678.252"/>
      <line x1="566.328" y1="1629.252" x2="516.328" y2="1629.252"/>
      <line x1="566.328" y1="1630.252" x2="516.328" y2="1630.252"/>
      <line x1="566.328" y1="1631.252" x2="516.328" y2="1631.252"/>
      <line x1="566.328" y1="1632.252" x2="516.328" y2="1632.252"/>
      <line x1="566.328" y1="1633.252" x2="516.328" y2="1633.252"/>
      <line x1="566.328" y1="1634.252" x2="516.328" y2="1634.252"/>
      <line x1="566.328" y1="1635.252" x2="516.328" y2="1635.252"/>
      <line x1="566.328" y1="1636.252" x2="516.328" y2="1636.252"/>
      <line x1="566.328" y1="1637.252" x2="516.328" y2="1637.252"/>
      <line x1="566.328" y1="1638.252" x2="516.328" y2="1638.252"/>
      <line x1="566.328" y1="1639.252" x2="516.328" y2="1639.252"/>
      <line x1="566.328" y1="1640.252" x2="516.328" y2="1640.252"/>
      <line x1="566.328" y1="1641.252" x2="516.328" y2="1641.252"/>
      <line x1="566.328" y1="1642.252" x2="516.328" y2="1642.252"/>
      <line x1="566.328" y1="1643.252" x2="516.328" y2="1643.252"/>
      <line x1="566.328" y1="1644.252" x2="516.328" y2="1644.252"/>
      <line x1="566.328" y1="1645.252" x2="516.328" y2="1645.252"/>
      <line x1="566.328" y1="1646.252" x2="516.328" y2="1646.252"/>
      <line x1="566.328" y1="1647.252" x2="516.328" y2="1647.252"/>
      <line x1="566.328" y1="1648.252" x2="516.328" y2="1648.252"/>
      <line x1="566.328" y1="1649.252" x2="516.328" y2="1649.252"/>
      <line x1="566.328" y1="1650.252" x2="516.328" y2="1650.252"/>
      <line x1="566.328" y1="1651.252" x2="516.328" y2="1651.252"/>
      <line x1="566.328" y1="1652.252" x2="516.328" y2="1652.252"/>
      <line x1="566.328" y1="1653.252" x2="516.328" y2="1653.252"/>
      <line x1="566.328" y1="1654.252" x2="516.328" y2="1654.252"/>
      <line x1="566.328" y1="1655.252" x2="516.328" y2="1655.252"/>
      <line x1="566.328" y1="1656.252" x2="516.328" y2="1656.252"/>
      <line x1="566.328" y1="1657.252" x2="516.328" y2="1657.252"/>
      <line x1="566.328" y1="1658.252" x2="516.328" y2="1658.252"/>
      <line x1="566.328" y1="1659.252" x2="516.328" y2="1659.252"/>
      <line x1="566.328" y1="1660.252" x2="516.328" y2="1660.252"/>
      <line x1="566.328" y1="1661.252" x2="516.328" y2="1661.252"/>
      <line x1="566.328" y1="1662.252" x2="516.328" y2="1662.252"/>
      <line x1="566.328" y1="1663.252" x2="516.328" y2="1663.252"/>
      <line x1="566.328" y1="1664.252" x2="516.328" y2="1664.252"/>
      <line x1="566.328" y1="1665.252" x2="516.328" y2="1665.252"/>
      <line x1="566.328" y1="1666.252" x2="516.328" y2="1666.252"/>
      <line x1="566.328" y1="1667.252" x2="516.328" y2="1667.252"/>
      <line x1="566.328" y1="1668.252" x2="516.328" y2="1668.252"/>
      <line x1="566.328" y1="1669.252" x2="516.328" y2="1669.252"/>
      <line x1="566.328" y1="1670.252" x2="516.328" y2="1670.252"/>
      <line x1="566.328" y1="1671.252" x2="516.328" y2="1671.252"/>
      <line x1="566.328" y1="1672.252" x2="516.328" y2="1672.252"/>
      <line x1="566.328" y1="1673.252" x2="516.328" y2="1673.252"/>
      <line x1="566.328" y1="1674.252" x2="516.328" y2="1674.252"/>
      <line x1="566.328" y1="1675.252" x2="516.328" y2="1675.252"/>
      <line x1="566.328" y1="1676.252" x2="516.328" y2="1676.252"/>
      <line x1="566.328" y1="1677.252" x2="516.328" y2="1677.252"/>
      <line x1="566.328" y1="1678.252" x2="516.328" y2="1678.252"/>
      <line x1="595.415" y1="1629.252" x2="566.428" y2="1629.252"/>
      <line x1="595.415" y1="1630.252" x2="566.428" y2="1630.252"/>
      <line x1="595.415" y1="1631.252" x2="566.428" y2="1631.252"/>
      <line x1="595.415" y1="1632.252" x2="566.428" y2="1632.252"/>
      <line x1="595.415" y1="1633.252" x2="566.428" y2="1633.252"/>
      <line x1="595.415" y1="1634.252" x2="566.428" y2="1634.252"/>
      <line x1="595.415" y1="1635.252" x2="566.428" y2="1635.252"/>
      <line x1="595.415" y1="1636.252" x2="566.428" y2="1636.252"/>
      <line x1="595.415" y1="1637.252" x2="566.428" y2="1637.252"/>
      <line x1="595.415" y1="1638.252" x2="566.428" y2="1638.252"/>
      <line x1="595.415" y1="1639.252" x2="566.428" y2="1639.252"/>
      <line x1="595.415" y1="1640.252" x2="566.428" y2="1640.252"/>
      <line x1="595.415" y1="1641.252" x2="566.428" y2="1641.252"/>
      <line x1="595.415" y1="1642.252" x2="566.428" y2="1642.252"/>
      <line x1="595.415" y1="1643.252" x2="566.428" y2="1643.252"/>
      <line x1="595.415" y1="1644.252" x2="566.428" y2="1644.252"/>
      <line x1="595.415" y1="1645.252" x2="566.428" y2="1645.252"/>
      <line x1="595.415" y1="1646.252" x2="566.428" y2="1646.252"/>
      <line x1="595.415" y1="1647.252" x2="566.428" y2="1647.252"/>
      <line x1="595.415" y1="1648.252" x2="566.428" y2="1648.252"/>
      <line x1="595.415" y1="1649.252" x2="566.428" y2="1649.252"/>
      <line x1="595.415" y1="1650.252" x2="566.428" y2="1650.252"/>
      <line x1="595.415" y1="1651.252" x2="566.428" y2="1651.252"/>
      <line x1="595.415" y1="1652.252" x2="566.428" y2="1652.252"/>
      <line x1="595.415" y1="1653.252" x2="566.428" y2="1653.252"/>
      <line x1="595.415" y1="1654.252" x2="566.428" y2="1654.252"/>
      <line x1="595.415" y1="1655.252" x2="566.428" y2="1655.252"/>
      <line x1="595.415" y1="1656.252" x2="566.428" y2="1656.252"/>
      <line x1="595.415" y1="1657.252" x2="566.428" y2="1657.252"/>
      <line x1="595.415" y1="1658.252" x2="566.428" y2="1658.252"/>
      <line x1="595.415" y1="1659.252" x2="566.428" y2="1659.252"/>
      <line x1="595.415" y1="1660.252" x2="566.428" y2="1660.252"/>
      <line x1="595.415" y1="1661.252" x2="566.428" y2="1661.252"/>
      <line x1="595.415" y1="1662.252" x2="566.428" y2="1662.252"/>
      <line x1="595.415" y1="1663.252" x2="566.428" y2="1663.252"/>
      <line x1="595.415" y1="1664.252" x2="566.428" y2="1664.252"/>
      <line x1="595.415" y1="1665.252" x2="566.428" y2="1665.252"/>
      <line x1="595.415" y1="1666.252" x2="566.428" y2="1666.252"/>
      <line x1="595.415" y1="1667.252" x2="566.428" y2="1667.252"/>
      <line x1="595.415" y1="1668.252" x2="566.428" y2="1668.252"/>
      <line x1="595.415" y1="1669.252" x2="566.428" y2="1669.252"/>
      <line x1="595.415" y1="1670.252" x2="566.428" y2="1670.252"/>
      <line x1="595.415" y1="1671.252" x2="566.428" y2="1671.252"/>
      <line x1="595.415" y1="1672.252" x2="566.428" y2="1672.252"/>
      <line x1="595.415" y1="1673.252" x2="566.428" y2="1673.252"/>
      <line x1="595.415" y1="1674.252" x2="566.428" y2="1674.252"/>
      <line x1="595.415" y1="1675.252" x2="566.428" y2="1675.252"/>
      <line x1="595.415" y1="1676.252" x2="566.428" y2="1676.252"/>
      <line x1="595.415" y1="1677.252" x2="566.428" y2="1677.252"/>
      <line x1="595.415" y1="1678.252" x2="566.428" y2="1678.252"/>
      <line x1="516.228" y1="1579.252" x2="466.228" y2="1579.252"/>
      <line x1="516.228" y1="1580.252" x2="466.228" y2="1580.252"/>
      <line x1="516.228" y1="1581.252" x2="466.228" y2="1581.252"/>
      <line x1="516.228" y1="1582.252" x2="466.228" y2="1582.252"/>
      <line x1="516.228" y1="1583.252" x2="466.228" y2="1583.252"/>
      <line x1="516.228" y1="1584.252" x2="466.228" y2="1584.252"/>
      <line x1="516.228" y1="1585.252" x2="466.228" y2="1585.252"/>
      <line x1="516.228" y1="1586.252" x2="466.228" y2="1586.252"/>
      <line x1="516.228" y1="1587.252" x2="466.228" y2="1587.252"/>
      <line x1="516.228" y1="1588.252" x2="466.228" y2="1588.252"/>
      <line x1="516.228" y1="1589.252" x2="466.228" y2="1589.252"/>
      <line x1="516.228" y1="1590.252" x2="466.228" y2="1590.252"/>
      <line x1="516.228" y1="1591.252" x2="466.228" y2="1591.252"/>
      <line x1="516.228" y1="1592.252" x2="466.228" y2="1592.252"/>
      <line x1="516.228" y1="1593.252" x2="466.228" y2="1593.252"/>
      <line x1="516.228" y1="1594.252" x2="466.228" y2="1594.252"/>
      <line x1="516.228" y1="1595.252" x2="466.228" y2="1595.252"/>
      <line x1="516.228" y1="1596.252" x2="466.228" y2="1596.252"/>
      <line x1="516.228" y1="1597.252" x2="466.228" y2="1597.252"/>
      <line x1="516.228" y1="1598.252" x2="466.228" y2="1598.252"/>
      <line x1="516.228" y1="1599.252" x2="466.228" y2="1599.252"/>
      <line x1="516.228" y1="1600.252" x2="466.228" y2="1600.252"/>
      <line x1="516.228" y1="1601.252" x2="466.228" y2="1601.252"/>
      <line x1="516.228" y1="1602.252" x2="466.228" y2="1602.252"/>
      <line x1="516.228" y1="1603.252" x2="466.228" y2="1603.252"/>
      <line x1="516.228" y1="1604.252" x2="466.228" y2="1604.252"/>
      <line x1="516.228" y1="1605.252" x2="466.228" y2="1605.252"/>
      <line x1="516.228" y1="1606.252" x2="466.228" y2="1606.252"/>
      <line x1="516.228" y1="1607.252" x2="466.228" y2="1607.252"/>
      <line x1="516.228" y1="1608.252" x2="466.228" y2="1608.252"/>
      <line x1="516.228" y1="1609.252" x2="466.228" y2="1609.252"/>
      <line x1="516.228" y1="1610.252" x2="466.228" y2="1610.252"/>
      <line x1="516.228" y1="1611.252" x2="466.228" y2="1611.252"/>
      <line x1="516.228" y1="1612.252" x2="466.228" y2="1612.252"/>
      <line x1="516.228" y1="1613.252" x2="466.228" y2="1613.252"/>
      <line x1="516.228" y1="1614.252" x2="466.228" y2="1614.252"/>
      <line x1="516.228" y1="1615.252" x2="466.228" y2="1615.252"/>
      <line x1="516.228" y1="1616.252" x2="466.228" y2="1616.252"/>
      <line x1="516.228" y1="1617.252" x2="466.228" y2="1617.252"/>
      <line x1="516.228" y1="1618.252" x2="466.228" y2="1618.252"/>
      <line x1="516.228" y1="1619.252" x2="466.228" y2="1619.252"/>
      <line x1="516.228" y1="1620.252" x2="466.228" y2="1620.252"/>
      <line x1="516.228" y1="1621.252" x2="466.228" y2="1621.252"/>
      <line x1="516.228" y1="1622.252" x2="466.228" y2="1622.252"/>
      <line x1="516.228" y1="1623.252" x2="466.228" y2="1623.252"/>
      <line x1="516.228" y1="1624.252" x2="466.228" y2="1624.252"/>
      <line x1="516.228" y1="1625.252" x2="466.228" y2="1625.252"/>
      <line x1="516.228" y1="1626.252" x2="466.228" y2="1626.252"/>
      <line x1="516.228" y1="1627.252" x2="466.228" y2="1627.252"/>
      <line x1="516.228" y1="1628.252" x2="466.228" y2="1628.252"/>
      <line x1="566.328" y1="1579.252" x2="516.328" y2="1579.252"/>
      <line x1="566.328" y1="1580.252" x2="516.328" y2="1580.252"/>
      <line x1="566.328" y1="1581.252" x2="516.328" y2="1581.252"/>
      <line x1="566.328" y1="1582.252" x2="516.328" y2="1582.252"/>
      <line x1="566.328" y1="1583.252" x2="516.328" y2="1583.252"/>
      <line x1="566.328" y1="1584.252" x2="516.328" y2="1584.252"/>
      <line x1="566.328" y1="1585.252" x2="516.328" y2="1585.252"/>
      <line x1="566.328" y1="1586.252" x2="516.328" y2="1586.252"/>
      <line x1="566.328" y1="1587.252" x2="516.328" y2="1587.252"/>
      <line x1="566.328" y1="1588.252" x2="516.328" y2="1588.252"/>
      <line x1="566.328" y1="1589.252" x2="516.328" y2="1589.252"/>
      <line x1="566.328" y1="1590.252" x2="516.328" y2="1590.252"/>
      <line x1="566.328" y1="1591.252" x2="516.328" y2="1591.252"/>
      <line x1="566.328" y1="1592.252" x2="516.328" y2="1592.252"/>
      <line x1="566.328" y1="1593.252" x2="516.328" y2="1593.252"/>
      <line x1="566.328" y1="1594.252" x2="516.328" y2="1594.252"/>
      <line x1="566.328" y1="1595.252" x2="516.328" y2="1595.252"/>
      <line x1="566.328" y1="1596.252" x2="516.328" y2="1596.252"/>
      <line x1="566.328" y1="1597.252" x2="516.328" y2="1597.252"/>
      <line x1="566.328" y1="1598.252" x2="516.328" y2="1598.252"/>
      <line x1="566.328" y1="1599.252" x2="516.328" y2="1599.252"/>
      <line x1="566.328" y1="1600.252" x2="516.328" y2="1600.252"/>
      <line x1="566.328" y1="1601.252" x2="516.328" y2="1601.252"/>
      <line x1="566.328" y1="1602.252" x2="516.328" y2="1602.252"/>
      <line x1="566.328" y1="1603.252" x2="516.328" y2="1603.252"/>
      <line x1="566.328" y1="1604.252" x2="516.328" y2="1604.252"/>
      <line x1="566.328" y1="1605.252" x2="516.328" y2="1605.252"/>
      <line x1="566.328" y1="1606.252" x2="516.328" y2="1606.252"/>
      <line x1="566.328" y1="1607.252" x2="516.328" y2="1607.252"/>
      <line x1="566.328" y1="1608.252" x2="516.328" y2="1608.252"/>
      <line x1="566.328" y1="1609.252" x2="516.328" y2="1609.252"/>
      <line x1="566.328" y1="1610.252" x2="516.328" y2="1610.252"/>
      <line x1="566.328" y1="1611.252" x2="516.328" y2="1611.252"/>
      <line x1="566.328" y1="1612.252" x2="516.328" y2="1612.252"/>
      <line x1="566.328" y1="1613.252" x2="516.328" y2="1613.252"/>
      <line x1="566.328" y1="1614.252" x2="516.328" y2="1614.252"/>
      <line x1="566.328" y1="1615.252" x2="516.328" y2="1615.252"/>
      <line x1="566.328" y1="1616.252" x2="516.328" y2="1616.252"/>
      <line x1="566.328" y1="1617.252" x2="516.328" y2="1617.252"/>
      <line x1="566.328" y1="1618.252" x2="516.328" y2="1618.252"/>
      <line x1="566.328" y1="1619.252" x2="516.328" y2="1619.252"/>
      <line x1="566.328" y1="1620.252" x2="516.328" y2="1620.252"/>
      <line x1="566.328" y1="1621.252" x2="516.328" y2="1621.252"/>
      <line x1="566.328" y1="1622.252" x2="516.328" y2="1622.252"/>
      <line x1="566.328" y1="1623.252" x2="516.328" y2="1623.252"/>
      <line x1="566.328" y1="1624.252" x2="516.328" y2="1624.252"/>
      <line x1="566.328" y1="1625.252" x2="516.328" y2="1625.252"/>
      <line x1="566.328" y1="1626.252" x2="516.328" y2="1626.252"/>
      <line x1="566.328" y1="1627.252" x2="516.328" y2="1627.252"/>
      <line x1="566.328" y1="1628.252" x2="516.328" y2="1628.252"/>
      <line x1="595.415" y1="1579.252" x2="566.428" y2="1579.252"/>
      <line x1="595.415" y1="1580.252" x2="566.428" y2="1580.252"/>
      <line x1="595.415" y1="1581.252" x2="566.428" y2="1581.252"/>
      <line x1="595.415" y1="1582.252" x2="566.428" y2="1582.252"/>
      <line x1="595.415" y1="1583.252" x2="566.428" y2="1583.252"/>
      <line x1="595.415" y1="1584.252" x2="566.428" y2="1584.252"/>
      <line x1="595.415" y1="1585.252" x2="566.428" y2="1585.252"/>
      <line x1="595.415" y1="1586.252" x2="566.428" y2="1586.252"/>
      <line x1="595.415" y1="1587.252" x2="566.428" y2="1587.252"/>
      <line x1="595.415" y1="1588.252" x2="566.428" y2="1588.252"/>
      <line x1="595.415" y1="1589.252" x2="566.428" y2="1589.252"/>
      <line x1="595.415" y1="1590.252" x2="566.428" y2="1590.252"/>
      <line x1="595.415" y1="1591.252" x2="566.428" y2="1591.252"/>
      <line x1="595.415" y1="1592.252" x2="566.428" y2="1592.252"/>
      <line x1="595.415" y1="1593.252" x2="566.428" y2="1593.252"/>
      <line x1="595.415" y1="1594.252" x2="566.428" y2="1594.252"/>
      <line x1="595.415" y1="1595.252" x2="566.428" y2="1595.252"/>
      <line x1="595.415" y1="1596.252" x2="566.428" y2="1596.252"/>
      <line x1="595.415" y1="1597.252" x2="566.428" y2="1597.252"/>
      <line x1="595.415" y1="1598.252" x2="566.428" y2="1598.252"/>
      <line x1="595.415" y1="1599.252" x2="566.428" y2="1599.252"/>
      <line x1="595.415" y1="1600.252" x2="566.428" y2="1600.252"/>
      <line x1="595.415" y1="1601.252" x2="566.428" y2="1601.252"/>
      <line x1="595.415" y1="1602.252" x2="566.428" y2="1602.252"/>
      <line x1="595.415" y1="1603.252" x2="566.428" y2="1603.252"/>
      <line x1="595.415" y1="1604.252" x2="566.428" y2="1604.252"/>
      <line x1="595.415" y1="1605.252" x2="566.428" y2="1605.252"/>
      <line x1="595.415" y1="1606.252" x2="566.428" y2="1606.252"/>
      <line x1="595.415" y1="1607.252" x2="566.428" y2="1607.252"/>
      <line x1="595.415" y1="1608.252" x2="566.428" y2="1608.252"/>
      <line x1="595.415" y1="1609.252" x2="566.428" y2="1609.252"/>
      <line x1="595.415" y1="1610.252" x2="566.428" y2="1610.252"/>
      <line x1="595.415" y1="1611.252" x2="566.428" y2="1611.252"/>
      <line x1="595.415" y1="1612.252" x2="566.428" y2="1612.252"/>
      <line x1="595.415" y1="1613.252" x2="566.428" y2="1613.252"/>
      <line x1="595.415" y1="1614.252" x2="566.428" y2="1614.252"/>
      <line x1="595.415" y1="1615.252" x2="566.428" y2="1615.252"/>
      <line x1="595.415" y1="1616.252" x2="566.428" y2="1616.252"/>
      <line x1="595.415" y1="1617.252" x2="566.428" y2="1617.252"/>
      <line x1="595.415" y1="1618.252" x2="566.428" y2="1618.252"/>
      <line x1="595.415" y1="1619.252" x2="566.428" y2="1619.252"/>
      <line x1="595.415" y1="1620.252" x2="566.428" y2="1620.252"/>
      <line x1="595.415" y1="1621.252" x2="566.428" y2="1621.252"/>
      <line x1="595.415" y1="1622.252" x2="566.428" y2="1622.252"/>
      <line x1="595.415" y1="1623.252" x2="566.428" y2="1623.252"/>
      <line x1="595.415" y1="1624.252" x2="566.428" y2="1624.252"/>
      <line x1="595.415" y1="1625.252" x2="566.428" y2="1625.252"/>
      <line x1="595.415" y1="1626.252" x2="566.428" y2="1626.252"/>
      <line x1="595.415" y1="1627.252" x2="566.428" y2="1627.252"/>
      <line x1="595.415" y1="1628.252" x2="566.428" y2="1628.252"/>
      <line x1="516.228" y1="1529.252" x2="466.228" y2="1529.252"/>
      <line x1="516.228" y1="1530.252" x2="466.228" y2="1530.252"/>
      <line x1="516.228" y1="1531.252" x2="466.228" y2="1531.252"/>
      <line x1="516.228" y1="1532.252" x2="466.228" y2="1532.252"/>
      <line x1="516.228" y1="1533.252" x2="466.228" y2="1533.252"/>
      <line x1="516.228" y1="1534.252" x2="466.228" y2="1534.252"/>
      <line x1="516.228" y1="1535.252" x2="466.228" y2="1535.252"/>
      <line x1="516.228" y1="1536.252" x2="466.228" y2="1536.252"/>
      <line x1="516.228" y1="1537.252" x2="466.228" y2="1537.252"/>
      <line x1="516.228" y1="1538.252" x2="466.228" y2="1538.252"/>
      <line x1="516.228" y1="1539.252" x2="466.228" y2="1539.252"/>
      <line x1="516.228" y1="1540.252" x2="466.228" y2="1540.252"/>
      <line x1="516.228" y1="1541.252" x2="466.228" y2="1541.252"/>
      <line x1="516.228" y1="1542.252" x2="466.228" y2="1542.252"/>
      <line x1="516.228" y1="1543.252" x2="466.228" y2="1543.252"/>
      <line x1="516.228" y1="1544.252" x2="466.228" y2="1544.252"/>
      <line x1="516.228" y1="1545.252" x2="466.228" y2="1545.252"/>
      <line x1="516.228" y1="1546.252" x2="466.228" y2="1546.252"/>
      <line x1="516.228" y1="1547.252" x2="466.228" y2="1547.252"/>
      <line x1="516.228" y1="1548.252" x2="466.228" y2="1548.252"/>
      <line x1="516.228" y1="1549.252" x2="466.228" y2="1549.252"/>
      <line x1="516.228" y1="1550.252" x2="466.228" y2="1550.252"/>
      <line x1="516.228" y1="1551.252" x2="466.228" y2="1551.252"/>
      <line x1="516.228" y1="1552.252" x2="466.228" y2="1552.252"/>
      <line x1="516.228" y1="1553.252" x2="466.228" y2="1553.252"/>
      <line x1="516.228" y1="1554.252" x2="466.228" y2="1554.252"/>
      <line x1="516.228" y1="1555.252" x2="466.228" y2="1555.252"/>
      <line x1="516.228" y1="1556.252" x2="466.228" y2="1556.252"/>
      <line x1="516.228" y1="1557.252" x2="466.228" y2="1557.252"/>
      <line x1="516.228" y1="1558.252" x2="466.228" y2="1558.252"/>
      <line x1="516.228" y1="1559.252" x2="466.228" y2="1559.252"/>
      <line x1="516.228" y1="1560.252" x2="466.228" y2="1560.252"/>
      <line x1="516.228" y1="1561.252" x2="466.228" y2="1561.252"/>
      <line x1="516.228" y1="1562.252" x2="466.228" y2="1562.252"/>
      <line x1="516.228" y1="1563.252" x2="466.228" y2="1563.252"/>
      <line x1="516.228" y1="1564.252" x2="466.228" y2="1564.252"/>
      <line x1="516.228" y1="1565.252" x2="466.228" y2="1565.252"/>
      <line x1="516.228" y1="1566.252" x2="466.228" y2="1566.252"/>
      <line x1="516.228" y1="1567.252" x2="466.228" y2="1567.252"/>
      <line x1="516.228" y1="1568.252" x2="466.228" y2="1568.252"/>
      <line x1="516.228" y1="1569.252" x2="466.228" y2="1569.252"/>
      <line x1="516.228" y1="1570.252" x2="466.228" y2="1570.252"/>
      <line x1="516.228" y1="1571.252" x2="466.228" y2="1571.252"/>
      <line x1="516.228" y1="1572.252" x2="466.228" y2="1572.252"/>
      <line x1="516.228" y1="1573.252" x2="466.228" y2="1573.252"/>
      <line x1="516.228" y1="1574.252" x2="466.228" y2="1574.252"/>
      <line x1="516.228" y1="1575.252" x2="466.228" y2="1575.252"/>
      <line x1="516.228" y1="1576.252" x2="466.228" y2="1576.252"/>
      <line x1="516.228" y1="1577.252" x2="466.228" y2="1577.252"/>
      <line x1="516.228" y1="1578.252" x2="466.228" y2="1578.252"/>
      <line x1="566.328" y1="1529.252" x2="516.328" y2="1529.252"/>
      <line x1="566.328" y1="1530.252" x2="516.328" y2="1530.252"/>
      <line x1="566.328" y1="1531.252" x2="516.328" y2="1531.252"/>
      <line x1="566.328" y1="1532.252" x2="516.328" y2="1532.252"/>
      <line x1="566.328" y1="1533.252" x2="516.328" y2="1533.252"/>
      <line x1="566.328" y1="1534.252" x2="516.328" y2="1534.252"/>
      <line x1="566.328" y1="1535.252" x2="516.328" y2="1535.252"/>
      <line x1="566.328" y1="1536.252" x2="516.328" y2="1536.252"/>
      <line x1="566.328" y1="1537.252" x2="516.328" y2="1537.252"/>
      <line x1="566.328" y1="1538.252" x2="516.328" y2="1538.252"/>
      <line x1="566.328" y1="1539.252" x2="516.328" y2="1539.252"/>
      <line x1="566.328" y1="1540.252" x2="516.328" y2="1540.252"/>
      <line x1="566.328" y1="1541.252" x2="516.328" y2="1541.252"/>
      <line x1="566.328" y1="1542.252" x2="516.328" y2="1542.252"/>
      <line x1="566.328" y1="1543.252" x2="516.328" y2="1543.252"/>
      <line x1="566.328" y1="1544.252" x2="516.328" y2="1544.252"/>
      <line x1="566.328" y1="1545.252" x2="516.328" y2="1545.252"/>
      <line x1="566.328" y1="1546.252" x2="516.328" y2="1546.252"/>
      <line x1="566.328" y1="1547.252" x2="516.328" y2="1547.252"/>
      <line x1="566.328" y1="1548.252" x2="516.328" y2="1548.252"/>
      <line x1="566.328" y1="1549.252" x2="516.328" y2="1549.252"/>
      <line x1="566.328" y1="1550.252" x2="516.328" y2="1550.252"/>
      <line x1="566.328" y1="1551.252" x2="516.328" y2="1551.252"/>
      <line x1="566.328" y1="1552.252" x2="516.328" y2="1552.252"/>
      <line x1="566.328" y1="1553.252" x2="516.328" y2="1553.252"/>
      <line x1="566.328" y1="1554.252" x2="516.328" y2="1554.252"/>
      <line x1="566.328" y1="1555.252" x2="516.328" y2="1555.252"/>
      <line x1="566.328" y1="1556.252" x2="516.328" y2="1556.252"/>
      <line x1="566.328" y1="1557.252" x2="516.328" y2="1557.252"/>
      <line x1="566.328" y1="1558.252" x2="516.328" y2="1558.252"/>
      <line x1="566.328" y1="1559.252" x2="516.328" y2="1559.252"/>
      <line x1="566.328" y1="1560.252" x2="516.328" y2="1560.252"/>
      <line x1="566.328" y1="1561.252" x2="516.328" y2="1561.252"/>
      <line x1="566.328" y1="1562.252" x2="516.328" y2="1562.252"/>
      <line x1="566.328" y1="1563.252" x2="516.328" y2="1563.252"/>
      <line x1="566.328" y1="1564.252" x2="516.328" y2="1564.252"/>
      <line x1="566.328" y1="1565.252" x2="516.328" y2="1565.252"/>
      <line x1="566.328" y1="1566.252" x2="516.328" y2="1566.252"/>
      <line x1="566.328" y1="1567.252" x2="516.328" y2="1567.252"/>
      <line x1="566.328" y1="1568.252" x2="516.328" y2="1568.252"/>
      <line x1="566.328" y1="1569.252" x2="516.328" y2="1569.252"/>
      <line x1="566.328" y1="1570.252" x2="516.328" y2="1570.252"/>
      <line x1="566.328" y1="1571.252" x2="516.328" y2="1571.252"/>
      <line x1="566.328" y1="1572.252" x2="516.328" y2="1572.252"/>
      <line x1="566.328" y1="1573.252" x2="516.328" y2="1573.252"/>
      <line x1="566.328" y1="1574.252" x2="516.328" y2="1574.252"/>
      <line x1="566.328" y1="1575.252" x2="516.328" y2="1575.252"/>
      <line x1="566.328" y1="1576.252" x2="516.328" y2="1576.252"/>
      <line x1="566.328" y1="1577.252" x2="516.328" y2="1577.252"/>
      <line x1="566.328" y1="1578.252" x2="516.328" y2="1578.252"/>
      <line x1="595.415" y1="1529.252" x2="566.428" y2="1529.252"/>
      <line x1="595.415" y1="1530.252" x2="566.428" y2="1530.252"/>
      <line x1="595.415" y1="1531.252" x2="566.428" y2="1531.252"/>
      <line x1="595.415" y1="1532.252" x2="566.428" y2="1532.252"/>
      <line x1="595.415" y1="1533.252" x2="566.428" y2="1533.252"/>
      <line x1="595.415" y1="1534.252" x2="566.428" y2="1534.252"/>
      <line x1="595.415" y1="1535.252" x2="566.428" y2="1535.252"/>
      <line x1="595.415" y1="1536.252" x2="566.428" y2="1536.252"/>
      <line x1="595.415" y1="1537.252" x2="566.428" y2="1537.252"/>
      <line x1="595.415" y1="1538.252" x2="566.428" y2="1538.252"/>
      <line x1="595.415" y1="1539.252" x2="566.428" y2="1539.252"/>
      <line x1="595.415" y1="1540.252" x2="566.428" y2="1540.252"/>
      <line x1="595.415" y1="1541.252" x2="566.428" y2="1541.252"/>
      <line x1="595.415" y1="1542.252" x2="566.428" y2="1542.252"/>
      <line x1="595.415" y1="1543.252" x2="566.428" y2="1543.252"/>
      <line x1="595.415" y1="1544.252" x2="566.428" y2="1544.252"/>
      <line x1="595.415" y1="1545.252" x2="566.428" y2="1545.252"/>
      <line x1="595.415" y1="1546.252" x2="566.428" y2="1546.252"/>
      <line x1="595.415" y1="1547.252" x2="566.428" y2="1547.252"/>
      <line x1="595.415" y1="1548.252" x2="566.428" y2="1548.252"/>
      <line x1="595.415" y1="1549.252" x2="566.428" y2="1549.252"/>
      <line x1="595.415" y1="1550.252" x2="566.428" y2="1550.252"/>
      <line x1="595.415" y1="1551.252" x2="566.428" y2="1551.252"/>
      <line x1="595.415" y1="1552.252" x2="566.428" y2="1552.252"/>
      <line x1="595.415" y1="1553.252" x2="566.428" y2="1553.252"/>
      <line x1="595.415" y1="1554.252" x2="566.428" y2="1554.252"/>
      <line x1="595.415" y1="1555.252" x2="566.428" y2="1555.252"/>
      <line x1="595.415" y1="1556.252" x2="566.428" y2="1556.252"/>
      <line x1="595.415" y1="1557.252" x2="566.428" y2="1557.252"/>
      <line x1="595.415" y1="1558.252" x2="566.428" y2="1558.252"/>
      <line x1="595.415" y1="1559.252" x2="566.428" y2="1559.252"/>
      <line x1="595.415" y1="1560.252" x2="566.428" y2="1560.252"/>
      <line x1="595.415" y1="1561.252" x2="566.428" y2="1561.252"/>
      <line x1="595.415" y1="1562.252" x2="566.428" y2="1562.252"/>
      <line x1="595.415" y1="1563.252" x2="566.428" y2="1563.252"/>
      <line x1="595.415" y1="1564.252" x2="566.428" y2="1564.252"/>
      <line x1="595.415" y1="1565.252" x2="566.428" y2="1565.252"/>
      <line x1="595.415" y1="1566.252" x2="566.428" y2="1566.252"/>
      <line x1="595.415" y1="1567.252" x2="566.428" y2="1567.252"/>
      <line x1="595.415" y1="1568.252" x2="566.428" y2="1568.252"/>
      <line x1="595.415" y1="1569.252" x2="566.428" y2="1569.252"/>
      <line x1="595.415" y1="1570.252" x2="566.428" y2="1570.252"/>
      <line x1="595.415" y1="1571.252" x2="566.428" y2="1571.252"/>
      <line x1="595.415" y1="1572.252" x2="566.428" y2="1572.252"/>
      <line x1="595.415" y1="1573.252" x2="566.428" y2="1573.252"/>
      <line x1="595.415" y1="1574.252" x2="566.428" y2="1574.252"/>
      <line x1="595.415" y1="1575.252" x2="566.428" y2="1575.252"/>
      <line x1="595.415" y1="1576.252" x2="566.428" y2="1576.252"/>
      <line x1="595.415" y1="1577.252" x2="566.428" y2="1577.252"/>
      <line x1="595.415" y1="1578.252" x2="566.428" y2="1578.252"/>
      <line x1="516.228" y1="1525.252" x2="466.228" y2="1525.252"/>
      <line x1="516.228" y1="1526.252" x2="466.228" y2="1526.252"/>
      <line x1="516.228" y1="1527.252" x2="466.228" y2="1527.252"/>
      <line x1="516.228" y1="1528.252" x2="466.228" y2="1528.252"/>
      <line x1="566.328" y1="1525.252" x2="516.328" y2="1525.252"/>
      <line x1="566.328" y1="1526.252" x2="516.328" y2="1526.252"/>
      <line x1="566.328" y1="1527.252" x2="516.328" y2="1527.252"/>
      <line x1="566.328" y1="1528.252" x2="516.328" y2="1528.252"/>
      <line x1="595.415" y1="1525.252" x2="566.428" y2="1525.252"/>
      <line x1="595.415" y1="1526.252" x2="566.428" y2="1526.252"/>
      <line x1="595.415" y1="1527.252" x2="566.428" y2="1527.252"/>
      <line x1="595.415" y1="1528.252" x2="566.428" y2="1528.252"/>
      <line x1="54.585" y1="1629.252" x2="4.585" y2="1629.252"/>
      <line x1="54.585" y1="1630.252" x2="4.585" y2="1630.252"/>
      <line x1="54.585" y1="1631.252" x2="4.585" y2="1631.252"/>
      <line x1="54.585" y1="1632.252" x2="4.585" y2="1632.252"/>
      <line x1="54.585" y1="1633.252" x2="4.585" y2="1633.252"/>
      <line x1="54.585" y1="1634.252" x2="4.585" y2="1634.252"/>
      <line x1="54.585" y1="1635.252" x2="4.585" y2="1635.252"/>
      <line x1="54.585" y1="1636.252" x2="4.585" y2="1636.252"/>
      <line x1="54.585" y1="1637.252" x2="4.585" y2="1637.252"/>
      <line x1="54.585" y1="1638.252" x2="4.585" y2="1638.252"/>
      <line x1="54.585" y1="1639.252" x2="4.585" y2="1639.252"/>
      <line x1="54.585" y1="1640.252" x2="4.585" y2="1640.252"/>
      <line x1="54.585" y1="1641.252" x2="4.585" y2="1641.252"/>
      <line x1="54.585" y1="1642.252" x2="4.585" y2="1642.252"/>
      <line x1="54.585" y1="1643.252" x2="4.585" y2="1643.252"/>
      <line x1="54.585" y1="1644.252" x2="4.585" y2="1644.252"/>
      <line x1="54.585" y1="1645.252" x2="4.585" y2="1645.252"/>
      <line x1="54.585" y1="1646.252" x2="4.585" y2="1646.252"/>
      <line x1="54.585" y1="1647.252" x2="4.585" y2="1647.252"/>
      <line x1="54.585" y1="1648.252" x2="4.585" y2="1648.252"/>
      <line x1="54.585" y1="1649.252" x2="4.585" y2="1649.252"/>
      <line x1="54.585" y1="1650.252" x2="4.585" y2="1650.252"/>
      <line x1="54.585" y1="1651.252" x2="4.585" y2="1651.252"/>
      <line x1="54.585" y1="1652.252" x2="4.585" y2="1652.252"/>
      <line x1="54.585" y1="1653.252" x2="4.585" y2="1653.252"/>
      <line x1="54.585" y1="1654.252" x2="4.585" y2="1654.252"/>
      <line x1="54.585" y1="1655.252" x2="4.585" y2="1655.252"/>
      <line x1="54.585" y1="1656.252" x2="4.585" y2="1656.252"/>
      <line x1="54.585" y1="1657.252" x2="4.585" y2="1657.252"/>
      <line x1="54.585" y1="1658.252" x2="4.585" y2="1658.252"/>
      <line x1="54.585" y1="1659.252" x2="4.585" y2="1659.252"/>
      <line x1="54.585" y1="1660.252" x2="4.585" y2="1660.252"/>
      <line x1="54.585" y1="1661.252" x2="4.585" y2="1661.252"/>
      <line x1="54.585" y1="1662.252" x2="4.585" y2="1662.252"/>
      <line x1="54.585" y1="1663.252" x2="4.585" y2="1663.252"/>
      <line x1="54.585" y1="1664.252" x2="4.585" y2="1664.252"/>
      <line x1="54.585" y1="1665.252" x2="4.585" y2="1665.252"/>
      <line x1="54.585" y1="1666.252" x2="4.585" y2="1666.252"/>
      <line x1="54.585" y1="1667.252" x2="4.585" y2="1667.252"/>
      <line x1="54.585" y1="1668.252" x2="4.585" y2="1668.252"/>
      <line x1="54.585" y1="1669.252" x2="4.585" y2="1669.252"/>
      <line x1="54.585" y1="1670.252" x2="4.585" y2="1670.252"/>
      <line x1="54.585" y1="1671.252" x2="4.585" y2="1671.252"/>
      <line x1="54.585" y1="1672.252" x2="4.585" y2="1672.252"/>
      <line x1="54.585" y1="1673.252" x2="4.585" y2="1673.252"/>
      <line x1="54.585" y1="1674.252" x2="4.585" y2="1674.252"/>
      <line x1="54.585" y1="1675.252" x2="4.585" y2="1675.252"/>
      <line x1="54.585" y1="1676.252" x2="4.585" y2="1676.252"/>
      <line x1="54.585" y1="1677.252" x2="4.585" y2="1677.252"/>
      <line x1="54.585" y1="1678.252" x2="4.585" y2="1678.252"/>
      <line x1="104.685" y1="1629.252" x2="54.685" y2="1629.252"/>
      <line x1="104.685" y1="1630.252" x2="54.685" y2="1630.252"/>
      <line x1="104.685" y1="1631.252" x2="54.685" y2="1631.252"/>
      <line x1="104.685" y1="1632.252" x2="54.685" y2="1632.252"/>
      <line x1="104.685" y1="1633.252" x2="54.685" y2="1633.252"/>
      <line x1="104.685" y1="1634.252" x2="54.685" y2="1634.252"/>
      <line x1="104.685" y1="1635.252" x2="54.685" y2="1635.252"/>
      <line x1="104.685" y1="1636.252" x2="54.685" y2="1636.252"/>
      <line x1="104.685" y1="1637.252" x2="54.685" y2="1637.252"/>
      <line x1="104.685" y1="1638.252" x2="54.685" y2="1638.252"/>
      <line x1="104.685" y1="1639.252" x2="54.685" y2="1639.252"/>
      <line x1="104.685" y1="1640.252" x2="54.685" y2="1640.252"/>
      <line x1="104.685" y1="1641.252" x2="54.685" y2="1641.252"/>
      <line x1="104.685" y1="1642.252" x2="54.685" y2="1642.252"/>
      <line x1="104.685" y1="1643.252" x2="54.685" y2="1643.252"/>
      <line x1="104.685" y1="1644.252" x2="54.685" y2="1644.252"/>
      <line x1="104.685" y1="1645.252" x2="54.685" y2="1645.252"/>
      <line x1="104.685" y1="1646.252" x2="54.685" y2="1646.252"/>
      <line x1="104.685" y1="1647.252" x2="54.685" y2="1647.252"/>
      <line x1="104.685" y1="1648.252" x2="54.685" y2="1648.252"/>
      <line x1="104.685" y1="1649.252" x2="54.685" y2="1649.252"/>
      <line x1="104.685" y1="1650.252" x2="54.685" y2="1650.252"/>
      <line x1="104.685" y1="1651.252" x2="54.685" y2="1651.252"/>
      <line x1="104.685" y1="1652.252" x2="54.685" y2="1652.252"/>
      <line x1="104.685" y1="1653.252" x2="54.685" y2="1653.252"/>
      <line x1="104.685" y1="1654.252" x2="54.685" y2="1654.252"/>
      <line x1="104.685" y1="1655.252" x2="54.685" y2="1655.252"/>
      <line x1="104.685" y1="1656.252" x2="54.685" y2="1656.252"/>
      <line x1="104.685" y1="1657.252" x2="54.685" y2="1657.252"/>
      <line x1="104.685" y1="1658.252" x2="54.685" y2="1658.252"/>
      <line x1="104.685" y1="1659.252" x2="54.685" y2="1659.252"/>
      <line x1="104.685" y1="1660.252" x2="54.685" y2="1660.252"/>
      <line x1="104.685" y1="1661.252" x2="54.685" y2="1661.252"/>
      <line x1="104.685" y1="1662.252" x2="54.685" y2="1662.252"/>
      <line x1="104.685" y1="1663.252" x2="54.685" y2="1663.252"/>
      <line x1="104.685" y1="1664.252" x2="54.685" y2="1664.252"/>
      <line x1="104.685" y1="1665.252" x2="54.685" y2="1665.252"/>
      <line x1="104.685" y1="1666.252" x2="54.685" y2="1666.252"/>
      <line x1="104.685" y1="1667.252" x2="54.685" y2="1667.252"/>
      <line x1="104.685" y1="1668.252" x2="54.685" y2="1668.252"/>
      <line x1="104.685" y1="1669.252" x2="54.685" y2="1669.252"/>
      <line x1="104.685" y1="1670.252" x2="54.685" y2="1670.252"/>
      <line x1="104.685" y1="1671.252" x2="54.685" y2="1671.252"/>
      <line x1="104.685" y1="1672.252" x2="54.685" y2="1672.252"/>
      <line x1="104.685" y1="1673.252" x2="54.685" y2="1673.252"/>
      <line x1="104.685" y1="1674.252" x2="54.685" y2="1674.252"/>
      <line x1="104.685" y1="1675.252" x2="54.685" y2="1675.252"/>
      <line x1="104.685" y1="1676.252" x2="54.685" y2="1676.252"/>
      <line x1="104.685" y1="1677.252" x2="54.685" y2="1677.252"/>
      <line x1="104.685" y1="1678.252" x2="54.685" y2="1678.252"/>
      <line x1="133.772" y1="1629.252" x2="104.785" y2="1629.252"/>
      <line x1="133.772" y1="1630.252" x2="104.785" y2="1630.252"/>
      <line x1="133.772" y1="1631.252" x2="104.785" y2="1631.252"/>
      <line x1="133.772" y1="1632.252" x2="104.785" y2="1632.252"/>
      <line x1="133.772" y1="1633.252" x2="104.785" y2="1633.252"/>
      <line x1="133.772" y1="1634.252" x2="104.785" y2="1634.252"/>
      <line x1="133.772" y1="1635.252" x2="104.785" y2="1635.252"/>
      <line x1="133.772" y1="1636.252" x2="104.785" y2="1636.252"/>
      <line x1="133.772" y1="1637.252" x2="104.785" y2="1637.252"/>
      <line x1="133.772" y1="1638.252" x2="104.785" y2="1638.252"/>
      <line x1="133.772" y1="1639.252" x2="104.785" y2="1639.252"/>
      <line x1="133.772" y1="1640.252" x2="104.785" y2="1640.252"/>
      <line x1="133.772" y1="1641.252" x2="104.785" y2="1641.252"/>
      <line x1="133.772" y1="1642.252" x2="104.785" y2="1642.252"/>
      <line x1="133.772" y1="1643.252" x2="104.785" y2="1643.252"/>
      <line x1="133.772" y1="1644.252" x2="104.785" y2="1644.252"/>
      <line x1="133.772" y1="1645.252" x2="104.785" y2="1645.252"/>
      <line x1="133.772" y1="1646.252" x2="104.785" y2="1646.252"/>
      <line x1="133.772" y1="1647.252" x2="104.785" y2="1647.252"/>
      <line x1="133.772" y1="1648.252" x2="104.785" y2="1648.252"/>
      <line x1="133.772" y1="1649.252" x2="104.785" y2="1649.252"/>
      <line x1="133.772" y1="1650.252" x2="104.785" y2="1650.252"/>
      <line x1="133.772" y1="1651.252" x2="104.785" y2="1651.252"/>
      <line x1="133.772" y1="1652.252" x2="104.785" y2="1652.252"/>
      <line x1="133.772" y1="1653.252" x2="104.785" y2="1653.252"/>
      <line x1="133.772" y1="1654.252" x2="104.785" y2="1654.252"/>
      <line x1="133.772" y1="1655.252" x2="104.785" y2="1655.252"/>
      <line x1="133.772" y1="1656.252" x2="104.785" y2="1656.252"/>
      <line x1="133.772" y1="1657.252" x2="104.785" y2="1657.252"/>
      <line x1="133.772" y1="1658.252" x2="104.785" y2="1658.252"/>
      <line x1="133.772" y1="1659.252" x2="104.785" y2="1659.252"/>
      <line x1="133.772" y1="1660.252" x2="104.785" y2="1660.252"/>
      <line x1="133.772" y1="1661.252" x2="104.785" y2="1661.252"/>
      <line x1="133.772" y1="1662.252" x2="104.785" y2="1662.252"/>
      <line x1="133.772" y1="1663.252" x2="104.785" y2="1663.252"/>
      <line x1="133.772" y1="1664.252" x2="104.785" y2="1664.252"/>
      <line x1="133.772" y1="1665.252" x2="104.785" y2="1665.252"/>
      <line x1="133.772" y1="1666.252" x2="104.785" y2="1666.252"/>
      <line x1="133.772" y1="1667.252" x2="104.785" y2="1667.252"/>
      <line x1="133.772" y1="1668.252" x2="104.785" y2="1668.252"/>
      <line x1="133.772" y1="1669.252" x2="104.785" y2="1669.252"/>
      <line x1="133.772" y1="1670.252" x2="104.785" y2="1670.252"/>
      <line x1="133.772" y1="1671.252" x2="104.785" y2="1671.252"/>
      <line x1="133.772" y1="1672.252" x2="104.785" y2="1672.252"/>
      <line x1="133.772" y1="1673.252" x2="104.785" y2="1673.252"/>
      <line x1="133.772" y1="1674.252" x2="104.785" y2="1674.252"/>
      <line x1="133.772" y1="1675.252" x2="104.785" y2="1675.252"/>
      <line x1="133.772" y1="1676.252" x2="104.785" y2="1676.252"/>
      <line x1="133.772" y1="1677.252" x2="104.785" y2="1677.252"/>
      <line x1="133.772" y1="1678.252" x2="104.785" y2="1678.252"/>
      <line x1="54.585" y1="1579.252" x2="4.585" y2="1579.252"/>
      <line x1="54.585" y1="1580.252" x2="4.585" y2="1580.252"/>
      <line x1="54.585" y1="1581.252" x2="4.585" y2="1581.252"/>
      <line x1="54.585" y1="1582.252" x2="4.585" y2="1582.252"/>
      <line x1="54.585" y1="1583.252" x2="4.585" y2="1583.252"/>
      <line x1="54.585" y1="1584.252" x2="4.585" y2="1584.252"/>
      <line x1="54.585" y1="1585.252" x2="4.585" y2="1585.252"/>
      <line x1="54.585" y1="1586.252" x2="4.585" y2="1586.252"/>
      <line x1="54.585" y1="1587.252" x2="4.585" y2="1587.252"/>
      <line x1="54.585" y1="1588.252" x2="4.585" y2="1588.252"/>
      <line x1="54.585" y1="1589.252" x2="4.585" y2="1589.252"/>
      <line x1="54.585" y1="1590.252" x2="4.585" y2="1590.252"/>
      <line x1="54.585" y1="1591.252" x2="4.585" y2="1591.252"/>
      <line x1="54.585" y1="1592.252" x2="4.585" y2="1592.252"/>
      <line x1="54.585" y1="1593.252" x2="4.585" y2="1593.252"/>
      <line x1="54.585" y1="1594.252" x2="4.585" y2="1594.252"/>
      <line x1="54.585" y1="1595.252" x2="4.585" y2="1595.252"/>
      <line x1="54.585" y1="1596.252" x2="4.585" y2="1596.252"/>
      <line x1="54.585" y1="1597.252" x2="4.585" y2="1597.252"/>
      <line x1="54.585" y1="1598.252" x2="4.585" y2="1598.252"/>
      <line x1="54.585" y1="1599.252" x2="4.585" y2="1599.252"/>
      <line x1="54.585" y1="1600.252" x2="4.585" y2="1600.252"/>
      <line x1="54.585" y1="1601.252" x2="4.585" y2="1601.252"/>
      <line x1="54.585" y1="1602.252" x2="4.585" y2="1602.252"/>
      <line x1="54.585" y1="1603.252" x2="4.585" y2="1603.252"/>
      <line x1="54.585" y1="1604.252" x2="4.585" y2="1604.252"/>
      <line x1="54.585" y1="1605.252" x2="4.585" y2="1605.252"/>
      <line x1="54.585" y1="1606.252" x2="4.585" y2="1606.252"/>
      <line x1="54.585" y1="1607.252" x2="4.585" y2="1607.252"/>
      <line x1="54.585" y1="1608.252" x2="4.585" y2="1608.252"/>
      <line x1="54.585" y1="1609.252" x2="4.585" y2="1609.252"/>
      <line x1="54.585" y1="1610.252" x2="4.585" y2="1610.252"/>
      <line x1="54.585" y1="1611.252" x2="4.585" y2="1611.252"/>
      <line x1="54.585" y1="1612.252" x2="4.585" y2="1612.252"/>
      <line x1="54.585" y1="1613.252" x2="4.585" y2="1613.252"/>
      <line x1="54.585" y1="1614.252" x2="4.585" y2="1614.252"/>
      <line x1="54.585" y1="1615.252" x2="4.585" y2="1615.252"/>
      <line x1="54.585" y1="1616.252" x2="4.585" y2="1616.252"/>
      <line x1="54.585" y1="1617.252" x2="4.585" y2="1617.252"/>
      <line x1="54.585" y1="1618.252" x2="4.585" y2="1618.252"/>
      <line x1="54.585" y1="1619.252" x2="4.585" y2="1619.252"/>
      <line x1="54.585" y1="1620.252" x2="4.585" y2="1620.252"/>
      <line x1="54.585" y1="1621.252" x2="4.585" y2="1621.252"/>
      <line x1="54.585" y1="1622.252" x2="4.585" y2="1622.252"/>
      <line x1="54.585" y1="1623.252" x2="4.585" y2="1623.252"/>
      <line x1="54.585" y1="1624.252" x2="4.585" y2="1624.252"/>
      <line x1="54.585" y1="1625.252" x2="4.585" y2="1625.252"/>
      <line x1="54.585" y1="1626.252" x2="4.585" y2="1626.252"/>
      <line x1="54.585" y1="1627.252" x2="4.585" y2="1627.252"/>
      <line x1="54.585" y1="1628.252" x2="4.585" y2="1628.252"/>
      <line x1="104.685" y1="1579.252" x2="54.685" y2="1579.252"/>
      <line x1="104.685" y1="1580.252" x2="54.685" y2="1580.252"/>
      <line x1="104.685" y1="1581.252" x2="54.685" y2="1581.252"/>
      <line x1="104.685" y1="1582.252" x2="54.685" y2="1582.252"/>
      <line x1="104.685" y1="1583.252" x2="54.685" y2="1583.252"/>
      <line x1="104.685" y1="1584.252" x2="54.685" y2="1584.252"/>
      <line x1="104.685" y1="1585.252" x2="54.685" y2="1585.252"/>
      <line x1="104.685" y1="1586.252" x2="54.685" y2="1586.252"/>
      <line x1="104.685" y1="1587.252" x2="54.685" y2="1587.252"/>
      <line x1="104.685" y1="1588.252" x2="54.685" y2="1588.252"/>
      <line x1="104.685" y1="1589.252" x2="54.685" y2="1589.252"/>
      <line x1="104.685" y1="1590.252" x2="54.685" y2="1590.252"/>
      <line x1="104.685" y1="1591.252" x2="54.685" y2="1591.252"/>
      <line x1="104.685" y1="1592.252" x2="54.685" y2="1592.252"/>
      <line x1="104.685" y1="1593.252" x2="54.685" y2="1593.252"/>
      <line x1="104.685" y1="1594.252" x2="54.685" y2="1594.252"/>
      <line x1="104.685" y1="1595.252" x2="54.685" y2="1595.252"/>
      <line x1="104.685" y1="1596.252" x2="54.685" y2="1596.252"/>
      <line x1="104.685" y1="1597.252" x2="54.685" y2="1597.252"/>
      <line x1="104.685" y1="1598.252" x2="54.685" y2="1598.252"/>
      <line x1="104.685" y1="1599.252" x2="54.685" y2="1599.252"/>
      <line x1="104.685" y1="1600.252" x2="54.685" y2="1600.252"/>
      <line x1="104.685" y1="1601.252" x2="54.685" y2="1601.252"/>
      <line x1="104.685" y1="1602.252" x2="54.685" y2="1602.252"/>
      <line x1="104.685" y1="1603.252" x2="54.685" y2="1603.252"/>
      <line x1="104.685" y1="1604.252" x2="54.685" y2="1604.252"/>
      <line x1="104.685" y1="1605.252" x2="54.685" y2="1605.252"/>
      <line x1="104.685" y1="1606.252" x2="54.685" y2="1606.252"/>
      <line x1="104.685" y1="1607.252" x2="54.685" y2="1607.252"/>
      <line x1="104.685" y1="1608.252" x2="54.685" y2="1608.252"/>
      <line x1="104.685" y1="1609.252" x2="54.685" y2="1609.252"/>
      <line x1="104.685" y1="1610.252" x2="54.685" y2="1610.252"/>
      <line x1="104.685" y1="1611.252" x2="54.685" y2="1611.252"/>
      <line x1="104.685" y1="1612.252" x2="54.685" y2="1612.252"/>
      <line x1="104.685" y1="1613.252" x2="54.685" y2="1613.252"/>
      <line x1="104.685" y1="1614.252" x2="54.685" y2="1614.252"/>
      <line x1="104.685" y1="1615.252" x2="54.685" y2="1615.252"/>
      <line x1="104.685" y1="1616.252" x2="54.685" y2="1616.252"/>
      <line x1="104.685" y1="1617.252" x2="54.685" y2="1617.252"/>
      <line x1="104.685" y1="1618.252" x2="54.685" y2="1618.252"/>
      <line x1="104.685" y1="1619.252" x2="54.685" y2="1619.252"/>
      <line x1="104.685" y1="1620.252" x2="54.685" y2="1620.252"/>
      <line x1="104.685" y1="1621.252" x2="54.685" y2="1621.252"/>
      <line x1="104.685" y1="1622.252" x2="54.685" y2="1622.252"/>
      <line x1="104.685" y1="1623.252" x2="54.685" y2="1623.252"/>
      <line x1="104.685" y1="1624.252" x2="54.685" y2="1624.252"/>
      <line x1="104.685" y1="1625.252" x2="54.685" y2="1625.252"/>
      <line x1="104.685" y1="1626.252" x2="54.685" y2="1626.252"/>
      <line x1="104.685" y1="1627.252" x2="54.685" y2="1627.252"/>
      <line x1="104.685" y1="1628.252" x2="54.685" y2="1628.252"/>
      <line x1="133.772" y1="1579.252" x2="104.785" y2="1579.252"/>
      <line x1="133.772" y1="1580.252" x2="104.785" y2="1580.252"/>
      <line x1="133.772" y1="1581.252" x2="104.785" y2="1581.252"/>
      <line x1="133.772" y1="1582.252" x2="104.785" y2="1582.252"/>
      <line x1="133.772" y1="1583.252" x2="104.785" y2="1583.252"/>
      <line x1="133.772" y1="1584.252" x2="104.785" y2="1584.252"/>
      <line x1="133.772" y1="1585.252" x2="104.785" y2="1585.252"/>
      <line x1="133.772" y1="1586.252" x2="104.785" y2="1586.252"/>
      <line x1="133.772" y1="1587.252" x2="104.785" y2="1587.252"/>
      <line x1="133.772" y1="1588.252" x2="104.785" y2="1588.252"/>
      <line x1="133.772" y1="1589.252" x2="104.785" y2="1589.252"/>
      <line x1="133.772" y1="1590.252" x2="104.785" y2="1590.252"/>
      <line x1="133.772" y1="1591.252" x2="104.785" y2="1591.252"/>
      <line x1="133.772" y1="1592.252" x2="104.785" y2="1592.252"/>
      <line x1="133.772" y1="1593.252" x2="104.785" y2="1593.252"/>
      <line x1="133.772" y1="1594.252" x2="104.785" y2="1594.252"/>
      <line x1="133.772" y1="1595.252" x2="104.785" y2="1595.252"/>
      <line x1="133.772" y1="1596.252" x2="104.785" y2="1596.252"/>
      <line x1="133.772" y1="1597.252" x2="104.785" y2="1597.252"/>
      <line x1="133.772" y1="1598.252" x2="104.785" y2="1598.252"/>
      <line x1="133.772" y1="1599.252" x2="104.785" y2="1599.252"/>
      <line x1="133.772" y1="1600.252" x2="104.785" y2="1600.252"/>
      <line x1="133.772" y1="1601.252" x2="104.785" y2="1601.252"/>
      <line x1="133.772" y1="1602.252" x2="104.785" y2="1602.252"/>
      <line x1="133.772" y1="1603.252" x2="104.785" y2="1603.252"/>
      <line x1="133.772" y1="1604.252" x2="104.785" y2="1604.252"/>
      <line x1="133.772" y1="1605.252" x2="104.785" y2="1605.252"/>
      <line x1="133.772" y1="1606.252" x2="104.785" y2="1606.252"/>
      <line x1="133.772" y1="1607.252" x2="104.785" y2="1607.252"/>
      <line x1="133.772" y1="1608.252" x2="104.785" y2="1608.252"/>
      <line x1="133.772" y1="1609.252" x2="104.785" y2="1609.252"/>
      <line x1="133.772" y1="1610.252" x2="104.785" y2="1610.252"/>
      <line x1="133.772" y1="1611.252" x2="104.785" y2="1611.252"/>
      <line x1="133.772" y1="1612.252" x2="104.785" y2="1612.252"/>
      <line x1="133.772" y1="1613.252" x2="104.785" y2="1613.252"/>
      <line x1="133.772" y1="1614.252" x2="104.785" y2="1614.252"/>
      <line x1="133.772" y1="1615.252" x2="104.785" y2="1615.252"/>
      <line x1="133.772" y1="1616.252" x2="104.785" y2="1616.252"/>
      <line x1="133.772" y1="1617.252" x2="104.785" y2="1617.252"/>
      <line x1="133.772" y1="1618.252" x2="104.785" y2="1618.252"/>
      <line x1="133.772" y1="1619.252" x2="104.785" y2="1619.252"/>
      <line x1="133.772" y1="1620.252" x2="104.785" y2="1620.252"/>
      <line x1="133.772" y1="1621.252" x2="104.785" y2="1621.252"/>
      <line x1="133.772" y1="1622.252" x2="104.785" y2="1622.252"/>
      <line x1="133.772" y1="1623.252" x2="104.785" y2="1623.252"/>
      <line x1="133.772" y1="1624.252" x2="104.785" y2="1624.252"/>
      <line x1="133.772" y1="1625.252" x2="104.785" y2="1625.252"/>
      <line x1="133.772" y1="1626.252" x2="104.785" y2="1626.252"/>
      <line x1="133.772" y1="1627.252" x2="104.785" y2="1627.252"/>
      <line x1="133.772" y1="1628.252" x2="104.785" y2="1628.252"/>
      <line x1="54.585" y1="1529.252" x2="4.585" y2="1529.252"/>
      <line x1="54.585" y1="1530.252" x2="4.585" y2="1530.252"/>
      <line x1="54.585" y1="1531.252" x2="4.585" y2="1531.252"/>
      <line x1="54.585" y1="1532.252" x2="4.585" y2="1532.252"/>
      <line x1="54.585" y1="1533.252" x2="4.585" y2="1533.252"/>
      <line x1="54.585" y1="1534.252" x2="4.585" y2="1534.252"/>
      <line x1="54.585" y1="1535.252" x2="4.585" y2="1535.252"/>
      <line x1="54.585" y1="1536.252" x2="4.585" y2="1536.252"/>
      <line x1="54.585" y1="1537.252" x2="4.585" y2="1537.252"/>
      <line x1="54.585" y1="1538.252" x2="4.585" y2="1538.252"/>
      <line x1="54.585" y1="1539.252" x2="4.585" y2="1539.252"/>
      <line x1="54.585" y1="1540.252" x2="4.585" y2="1540.252"/>
      <line x1="54.585" y1="1541.252" x2="4.585" y2="1541.252"/>
      <line x1="54.585" y1="1542.252" x2="4.585" y2="1542.252"/>
      <line x1="54.585" y1="1543.252" x2="4.585" y2="1543.252"/>
      <line x1="54.585" y1="1544.252" x2="4.585" y2="1544.252"/>
      <line x1="54.585" y1="1545.252" x2="4.585" y2="1545.252"/>
      <line x1="54.585" y1="1546.252" x2="4.585" y2="1546.252"/>
      <line x1="54.585" y1="1547.252" x2="4.585" y2="1547.252"/>
      <line x1="54.585" y1="1548.252" x2="4.585" y2="1548.252"/>
      <line x1="54.585" y1="1549.252" x2="4.585" y2="1549.252"/>
      <line x1="54.585" y1="1550.252" x2="4.585" y2="1550.252"/>
      <line x1="54.585" y1="1551.252" x2="4.585" y2="1551.252"/>
      <line x1="54.585" y1="1552.252" x2="4.585" y2="1552.252"/>
      <line x1="54.585" y1="1553.252" x2="4.585" y2="1553.252"/>
      <line x1="54.585" y1="1554.252" x2="4.585" y2="1554.252"/>
      <line x1="54.585" y1="1555.252" x2="4.585" y2="1555.252"/>
      <line x1="54.585" y1="1556.252" x2="4.585" y2="1556.252"/>
      <line x1="54.585" y1="1557.252" x2="4.585" y2="1557.252"/>
      <line x1="54.585" y1="1558.252" x2="4.585" y2="1558.252"/>
      <line x1="54.585" y1="1559.252" x2="4.585" y2="1559.252"/>
      <line x1="54.585" y1="1560.252" x2="4.585" y2="1560.252"/>
      <line x1="54.585" y1="1561.252" x2="4.585" y2="1561.252"/>
      <line x1="54.585" y1="1562.252" x2="4.585" y2="1562.252"/>
      <line x1="54.585" y1="1563.252" x2="4.585" y2="1563.252"/>
      <line x1="54.585" y1="1564.252" x2="4.585" y2="1564.252"/>
      <line x1="54.585" y1="1565.252" x2="4.585" y2="1565.252"/>
      <line x1="54.585" y1="1566.252" x2="4.585" y2="1566.252"/>
      <line x1="54.585" y1="1567.252" x2="4.585" y2="1567.252"/>
      <line x1="54.585" y1="1568.252" x2="4.585" y2="1568.252"/>
      <line x1="54.585" y1="1569.252" x2="4.585" y2="1569.252"/>
      <line x1="54.585" y1="1570.252" x2="4.585" y2="1570.252"/>
      <line x1="54.585" y1="1571.252" x2="4.585" y2="1571.252"/>
      <line x1="54.585" y1="1572.252" x2="4.585" y2="1572.252"/>
      <line x1="54.585" y1="1573.252" x2="4.585" y2="1573.252"/>
      <line x1="54.585" y1="1574.252" x2="4.585" y2="1574.252"/>
      <line x1="54.585" y1="1575.252" x2="4.585" y2="1575.252"/>
      <line x1="54.585" y1="1576.252" x2="4.585" y2="1576.252"/>
      <line x1="54.585" y1="1577.252" x2="4.585" y2="1577.252"/>
      <line x1="54.585" y1="1578.252" x2="4.585" y2="1578.252"/>
      <line x1="104.685" y1="1529.252" x2="54.685" y2="1529.252"/>
      <line x1="104.685" y1="1530.252" x2="54.685" y2="1530.252"/>
      <line x1="104.685" y1="1531.252" x2="54.685" y2="1531.252"/>
      <line x1="104.685" y1="1532.252" x2="54.685" y2="1532.252"/>
      <line x1="104.685" y1="1533.252" x2="54.685" y2="1533.252"/>
      <line x1="104.685" y1="1534.252" x2="54.685" y2="1534.252"/>
      <line x1="104.685" y1="1535.252" x2="54.685" y2="1535.252"/>
      <line x1="104.685" y1="1536.252" x2="54.685" y2="1536.252"/>
      <line x1="104.685" y1="1537.252" x2="54.685" y2="1537.252"/>
      <line x1="104.685" y1="1538.252" x2="54.685" y2="1538.252"/>
      <line x1="104.685" y1="1539.252" x2="54.685" y2="1539.252"/>
      <line x1="104.685" y1="1540.252" x2="54.685" y2="1540.252"/>
      <line x1="104.685" y1="1541.252" x2="54.685" y2="1541.252"/>
      <line x1="104.685" y1="1542.252" x2="54.685" y2="1542.252"/>
      <line x1="104.685" y1="1543.252" x2="54.685" y2="1543.252"/>
      <line x1="104.685" y1="1544.252" x2="54.685" y2="1544.252"/>
      <line x1="104.685" y1="1545.252" x2="54.685" y2="1545.252"/>
      <line x1="104.685" y1="1546.252" x2="54.685" y2="1546.252"/>
      <line x1="104.685" y1="1547.252" x2="54.685" y2="1547.252"/>
      <line x1="104.685" y1="1548.252" x2="54.685" y2="1548.252"/>
      <line x1="104.685" y1="1549.252" x2="54.685" y2="1549.252"/>
      <line x1="104.685" y1="1550.252" x2="54.685" y2="1550.252"/>
      <line x1="104.685" y1="1551.252" x2="54.685" y2="1551.252"/>
      <line x1="104.685" y1="1552.252" x2="54.685" y2="1552.252"/>
      <line x1="104.685" y1="1553.252" x2="54.685" y2="1553.252"/>
      <line x1="104.685" y1="1554.252" x2="54.685" y2="1554.252"/>
      <line x1="104.685" y1="1555.252" x2="54.685" y2="1555.252"/>
      <line x1="104.685" y1="1556.252" x2="54.685" y2="1556.252"/>
      <line x1="104.685" y1="1557.252" x2="54.685" y2="1557.252"/>
      <line x1="104.685" y1="1558.252" x2="54.685" y2="1558.252"/>
      <line x1="104.685" y1="1559.252" x2="54.685" y2="1559.252"/>
      <line x1="104.685" y1="1560.252" x2="54.685" y2="1560.252"/>
      <line x1="104.685" y1="1561.252" x2="54.685" y2="1561.252"/>
      <line x1="104.685" y1="1562.252" x2="54.685" y2="1562.252"/>
      <line x1="104.685" y1="1563.252" x2="54.685" y2="1563.252"/>
      <line x1="104.685" y1="1564.252" x2="54.685" y2="1564.252"/>
      <line x1="104.685" y1="1565.252" x2="54.685" y2="1565.252"/>
      <line x1="104.685" y1="1566.252" x2="54.685" y2="1566.252"/>
      <line x1="104.685" y1="1567.252" x2="54.685" y2="1567.252"/>
      <line x1="104.685" y1="1568.252" x2="54.685" y2="1568.252"/>
      <line x1="104.685" y1="1569.252" x2="54.685" y2="1569.252"/>
      <line x1="104.685" y1="1570.252" x2="54.685" y2="1570.252"/>
      <line x1="104.685" y1="1571.252" x2="54.685" y2="1571.252"/>
      <line x1="104.685" y1="1572.252" x2="54.685" y2="1572.252"/>
      <line x1="104.685" y1="1573.252" x2="54.685" y2="1573.252"/>
      <line x1="104.685" y1="1574.252" x2="54.685" y2="1574.252"/>
      <line x1="104.685" y1="1575.252" x2="54.685" y2="1575.252"/>
      <line x1="104.685" y1="1576.252" x2="54.685" y2="1576.252"/>
      <line x1="104.685" y1="1577.252" x2="54.685" y2="1577.252"/>
      <line x1="104.685" y1="1578.252" x2="54.685" y2="1578.252"/>
      <line x1="133.772" y1="1529.252" x2="104.785" y2="1529.252"/>
      <line x1="133.772" y1="1530.252" x2="104.785" y2="1530.252"/>
      <line x1="133.772" y1="1531.252" x2="104.785" y2="1531.252"/>
      <line x1="133.772" y1="1532.252" x2="104.785" y2="1532.252"/>
      <line x1="133.772" y1="1533.252" x2="104.785" y2="1533.252"/>
      <line x1="133.772" y1="1534.252" x2="104.785" y2="1534.252"/>
      <line x1="133.772" y1="1535.252" x2="104.785" y2="1535.252"/>
      <line x1="133.772" y1="1536.252" x2="104.785" y2="1536.252"/>
      <line x1="133.772" y1="1537.252" x2="104.785" y2="1537.252"/>
      <line x1="133.772" y1="1538.252" x2="104.785" y2="1538.252"/>
      <line x1="133.772" y1="1539.252" x2="104.785" y2="1539.252"/>
      <line x1="133.772" y1="1540.252" x2="104.785" y2="1540.252"/>
      <line x1="133.772" y1="1541.252" x2="104.785" y2="1541.252"/>
      <line x1="133.772" y1="1542.252" x2="104.785" y2="1542.252"/>
      <line x1="133.772" y1="1543.252" x2="104.785" y2="1543.252"/>
      <line x1="133.772" y1="1544.252" x2="104.785" y2="1544.252"/>
      <line x1="133.772" y1="1545.252" x2="104.785" y2="1545.252"/>
      <line x1="133.772" y1="1546.252" x2="104.785" y2="1546.252"/>
      <line x1="133.772" y1="1547.252" x2="104.785" y2="1547.252"/>
      <line x1="133.772" y1="1548.252" x2="104.785" y2="1548.252"/>
      <line x1="133.772" y1="1549.252" x2="104.785" y2="1549.252"/>
      <line x1="133.772" y1="1550.252" x2="104.785" y2="1550.252"/>
      <line x1="133.772" y1="1551.252" x2="104.785" y2="1551.252"/>
      <line x1="133.772" y1="1552.252" x2="104.785" y2="1552.252"/>
      <line x1="133.772" y1="1553.252" x2="104.785" y2="1553.252"/>
      <line x1="133.772" y1="1554.252" x2="104.785" y2="1554.252"/>
      <line x1="133.772" y1="1555.252" x2="104.785" y2="1555.252"/>
      <line x1="133.772" y1="1556.252" x2="104.785" y2="1556.252"/>
      <line x1="133.772" y1="1557.252" x2="104.785" y2="1557.252"/>
      <line x1="133.772" y1="1558.252" x2="104.785" y2="1558.252"/>
      <line x1="133.772" y1="1559.252" x2="104.785" y2="1559.252"/>
      <line x1="133.772" y1="1560.252" x2="104.785" y2="1560.252"/>
      <line x1="133.772" y1="1561.252" x2="104.785" y2="1561.252"/>
      <line x1="133.772" y1="1562.252" x2="104.785" y2="1562.252"/>
      <line x1="133.772" y1="1563.252" x2="104.785" y2="1563.252"/>
      <line x1="133.772" y1="1564.252" x2="104.785" y2="1564.252"/>
      <line x1="133.772" y1="1565.252" x2="104.785" y2="1565.252"/>
      <line x1="133.772" y1="1566.252" x2="104.785" y2="1566.252"/>
      <line x1="133.772" y1="1567.252" x2="104.785" y2="1567.252"/>
      <line x1="133.772" y1="1568.252" x2="104.785" y2="1568.252"/>
      <line x1="133.772" y1="1569.252" x2="104.785" y2="1569.252"/>
      <line x1="133.772" y1="1570.252" x2="104.785" y2="1570.252"/>
      <line x1="133.772" y1="1571.252" x2="104.785" y2="1571.252"/>
      <line x1="133.772" y1="1572.252" x2="104.785" y2="1572.252"/>
      <line x1="133.772" y1="1573.252" x2="104.785" y2="1573.252"/>
      <line x1="133.772" y1="1574.252" x2="104.785" y2="1574.252"/>
      <line x1="133.772" y1="1575.252" x2="104.785" y2="1575.252"/>
      <line x1="133.772" y1="1576.252" x2="104.785" y2="1576.252"/>
      <line x1="133.772" y1="1577.252" x2="104.785" y2="1577.252"/>
      <line x1="133.772" y1="1578.252" x2="104.785" y2="1578.252"/>
      <line x1="54.585" y1="1525.252" x2="4.585" y2="1525.252"/>
      <line x1="54.585" y1="1526.252" x2="4.585" y2="1526.252"/>
      <line x1="54.585" y1="1527.252" x2="4.585" y2="1527.252"/>
      <line x1="54.585" y1="1528.252" x2="4.585" y2="1528.252"/>
      <line x1="104.685" y1="1525.252" x2="54.685" y2="1525.252"/>
      <line x1="104.685" y1="1526.252" x2="54.685" y2="1526.252"/>
      <line x1="104.685" y1="1527.252" x2="54.685" y2="1527.252"/>
      <line x1="104.685" y1="1528.252" x2="54.685" y2="1528.252"/>
      <line x1="133.772" y1="1525.252" x2="104.785" y2="1525.252"/>
      <line x1="133.772" y1="1526.252" x2="104.785" y2="1526.252"/>
      <line x1="133.772" y1="1527.252" x2="104.785" y2="1527.252"/>
      <line x1="133.772" y1="1528.252" x2="104.785" y2="1528.252"/>
    </g>
    <g stroke="#1976D2" stroke-width="0.4">
      <polyline points="464.584,1682.729 598.914,1682.729 598.914,1521.729 464.584,1521.729" fill="none"/>
      <polyline points="464.584,1521.729 462.728,1521.729 462.728,1682.729 464.584,1682.729" fill="none"/>
      <polyline points="464.584,1681.730 597.914,1681.730 597.914,1522.729 464.584,1522.729" fill="none"/>
      <polyline points="464.584,1522.729 463.728,1522.729 463.728,1681.730 464.584,1681.730" fill="none"/>
      <polyline points="596.914,1523.729 464.728,1523.729 464.728,1680.730 596.914,1680.730 596.914,1523.729" fill="none"/>
      <polyline points="595.914,1524.729 465.728,1524.729 465.728,1679.729 595.914,1679.729 595.914,1524.729" fill="none"/>
      <polyline points="135.416,1521.729 1.086,1521.729 1.086,1682.729 135.416,1682.729" fill="none"/>
      <polyline points="135.416,1682.729 137.272,1682.729 137.272,1521.729 135.416,1521.729" fill="none"/>
      <polyline points="135.416,1522.729 2.086,1522.729 2.086,1681.730 135.416,1681.730" fill="none"/>
      <polyline points="135.416,1681.730 136.272,1681.730 136.272,1522.729 135.416,1522.729" fill="none"/>
      <polyline points="135.272,1523.729 3.086,1523.729 3.086,1680.730 135.272,1680.730 135.272,1523.729" fill="none"/>
      <polyline points="134.272,1524.729 4.086,1524.729 4.086,1679.729 134.272,1679.729 134.272,1524.729" fill="none"/>
    </g>
    <g stroke="#C62828" stroke-width="0.4" fill="none">
      <polygon points="294.412,1532.502 295.337,1531.342 295.667,1529.896 295.337,1528.450 294.412,1527.290 293.075,1526.646 291.592,1526.646 290.255,1527.290 289.330,1528.450 289.000,1529.896 289.330,1531.342 290.255,1532.502 291.592,1533.146 293.075,1533.146"/>
      <polygon points="314.346,1532.420 315.242,1531.297 315.562,1529.896 315.242,1528.495 314.346,1527.372 313.052,1526.749 311.615,1526.749 310.320,1527.372 309.425,1528.495 309.105,1529.896 309.425,1531.297 310.320,1532.420 311.615,1533.044 313.052,1533.044"/>
      <polygon points="274.211,1532.251 275.047,1531.203 275.345,1529.896 275.047,1528.590 274.211,1527.542 273.003,1526.960 271.663,1526.960 270.456,1527.542 269.620,1528.590 269.322,1529.896 269.620,1531.203 270.456,1532.251 271.663,1532.832 273.003,1532.832"/>
      <polygon points="333.980,1532.282 334.900,1531.244 335.233,1529.896 334.900,1528.549 333.980,1527.510 332.683,1527.018 331.305,1527.185 330.163,1527.974 329.518,1529.202 329.518,1530.590 330.163,1531.819 331.305,1532.607 332.683,1532.774"/>
      <polygon points="353.848,1532.091 354.695,1531.135 355.000,1529.896 354.695,1528.657 353.848,1527.702 352.655,1527.249 351.388,1527.403 350.337,1528.128 349.744,1529.258 349.744,1530.534 350.337,1531.665 351.388,1532.390 352.655,1532.543"/>
      <polygon points="253.848,1532.091 254.695,1531.135 255.000,1529.896 254.695,1528.657 253.848,1527.702 252.655,1527.249 251.388,1527.403 250.337,1528.128 249.744,1529.258 249.744,1530.534 250.337,1531.665 251.388,1532.390 252.655,1532.543"/>
      <polygon points="233.545,1531.994 234.432,1531.108 234.756,1529.896 234.432,1528.685 233.545,1527.798 232.333,1527.473 231.122,1527.798 230.235,1528.685 229.911,1529.896 230.235,1531.108 231.122,1531.994 232.333,1532.319"/>
      <polygon points="373.481,1531.885 374.322,1531.044 374.630,1529.896 374.322,1528.748 373.481,1527.908 372.333,1527.600 371.185,1527.908 370.345,1528.748 370.037,1529.896 370.345,1531.044 371.185,1531.885 372.333,1532.192"/>
      <polygon points="213.350,1531.657 214.095,1530.913 214.367,1529.896 214.095,1528.879 213.350,1528.135 212.333,1527.862 211.316,1528.135 210.572,1528.879 210.300,1529.896 210.572,1530.913 211.316,1531.657 212.333,1531.930"/>
      <polygon points="393.333,1531.628 394.065,1530.896 394.333,1529.896 394.065,1528.896 393.333,1528.164 392.333,1527.896 391.333,1528.164 390.601,1528.896 390.333,1529.896 390.601,1530.896 391.333,1531.628 392.333,1531.896"/>
      <polygon points="173.333,1531.628 174.065,1530.896 174.333,1529.896 174.065,1528.896 173.333,1528.164 172.333,1527.896 171.333,1528.164 170.601,1528.896 170.333,1529.896 170.601,1530.896 171.333,1531.628 172.333,1531.896"/>
      <polygon points="193.333,1531.628 194.065,1530.896 194.333,1529.896 194.065,1528.896 193.333,1528.164 192.333,1527.896 191.333,1528.164 190.601,1528.896 190.333,1529.896 190.601,1530.896 191.333,1531.628 192.333,1531.896"/>
      <polygon points="413.333,1531.628 414.065,1530.896 414.333,1529.896 414.065,1528.896 413.333,1528.164 412.333,1527.896 411.333,1528.164 410.601,1528.896 410.333,1529.896 410.601,1530.896 411.333,1531.628 412.333,1531.896"/>
      <polygon points="433.333,1531.628 434.065,1530.896 434.333,1529.896 434.065,1528.896 433.333,1528.164 432.333,1527.896 431.333,1528.164 430.601,1528.896 430.333,1529.896 430.601,1530.896 431.333,1531.628 432.333,1531.896"/>
      <polygon points="294.412,1552.502 295.337,1551.342 295.667,1549.896 295.337,1548.450 294.412,1547.290 293.075,1546.646 291.592,1546.646 290.255,1547.290 289.330,1548.450 289.000,1549.896 289.330,1551.342 290.255,1552.502 291.592,1553.146 293.075,1553.146"/>
      <polygon points="314.346,1552.420 315.242,1551.297 315.562,1549.896 315.242,1548.495 314.346,1547.372 313.052,1546.749 311.615,1546.749 310.320,1547.372 309.425,1548.495 309.105,1549.896 309.425,1551.297 310.320,1552.420 311.615,1553.044 313.052,1553.044"/>
      <polygon points="274.211,1552.251 275.047,1551.203 275.345,1549.896 275.047,1548.590 274.211,1547.542 273.003,1546.960 271.663,1546.960 270.456,1547.542 269.620,1548.590 269.322,1549.896 269.620,1551.203 270.456,1552.251 271.663,1552.832 273.003,1552.832"/>
      <polygon points="333.980,1552.282 334.900,1551.244 335.233,1549.896 334.900,1548.549 333.980,1547.510 332.683,1547.018 331.305,1547.185 330.163,1547.974 329.518,1549.202 329.518,1550.590 330.163,1551.819 331.305,1552.607 332.683,1552.774"/>
      <polygon points="353.848,1552.091 354.695,1551.135 355.000,1549.896 354.695,1548.657 353.848,1547.702 352.655,1547.249 351.388,1547.403 350.337,1548.128 349.744,1549.258 349.744,1550.534 350.337,1551.665 351.388,1552.390 352.655,1552.543"/>
      <polygon points="253.848,1552.091 254.695,1551.135 255.000,1549.896 254.695,1548.657 253.848,1547.702 252.655,1547.249 251.388,1547.403 250.337,1548.128 249.744,1549.258 249.744,1550.534 250.337,1551.665 251.388,1552.390 252.655,1552.543"/>
      <polygon points="233.545,1551.994 234.432,1551.108 234.756,1549.896 234.432,1548.685 233.545,1547.798 232.333,1547.473 231.122,1547.798 230.235,1548.685 229.911,1549.896 230.235,1551.108 231.122,1551.994 232.333,1552.319"/>
      <polygon points="373.481,1551.885 374.322,1551.044 374.630,1549.896 374.322,1548.748 373.481,1547.908 372.333,1547.600 371.185,1547.908 370.345,1548.748 370.037,1549.896 370.345,1551.044 371.185,1551.885 372.333,1552.192"/>
      <polygon points="213.350,1551.657 214.095,1550.913 214.367,1549.896 214.095,1548.879 213.350,1548.135 212.333,1547.862 211.316,1548.135 210.572,1548.879 210.300,1549.896 210.572,1550.913 211.316,1551.657 212.333,1551.930"/>
      <polygon points="173.333,1551.628 174.065,1550.896 174.333,1549.896 174.065,1548.896 173.333,1548.164 172.333,1547.896 171.333,1548.164 170.601,1548.896 170.333,1549.896 170.601,1550.896 171.333,1551.628 172.333,1551.896"/>
      <polygon points="193.333,1551.628 194.065,1550.896 194.333,1549.896 194.065,1548.896 193.333,1548.164 192.333,1547.896 191.333,1548.164 190.601,1548.896 190.333,1549.896 190.601,1550.896 191.333,1551.628 192.333,1551.896"/>
      <polygon points="413.333,1551.628 414.065,1550.896 414.333,1549.896 414.065,1548.896 413.333,1548.164 412.333,1547.896 411.333,1548.164 410.601,1548.896 410.333,1549.896 410.601,1550.896 411.333,1551.628 412.333,1551.896"/>
      <polygon points="433.333,1551.628 434.065,1550.896 434.333,1549.896 434.065,1548.896 433.333,1548.164 432.333,1547.896 431.333,1548.164 430.601,1548.896 430.333,1549.896 430.601,1550.896 431.333,1551.628 432.333,1551.896"/>
      <polygon points="393.333,1551.628 394.065,1550.896 394.333,1549.896 394.065,1548.896 393.333,1548.164 392.333,1547.896 391.333,1548.164 390.601,1548.896 390.333,1549.896 390.601,1550.896 391.333,1551.628 392.333,1551.896"/>
      <polygon points="294.412,1572.502 295.337,1571.342 295.667,1569.896 295.337,1568.450 294.412,1567.290 293.075,1566.646 291.592,1566.646 290.255,1567.290 289.330,1568.450 289.000,1569.896 289.330,1571.342 290.255,1572.502 291.592,1573.146 293.075,1573.146"/>
      <polygon points="314.346,1572.420 315.242,1571.297 315.562,1569.896 315.242,1568.495 314.346,1567.372 313.052,1566.749 311.615,1566.749 310.320,1567.372 309.425,1568.495 309.105,1569.896 309.425,1571.297 310.320,1572.420 311.615,1573.044 313.052,1573.044"/>
      <polygon points="274.211,1572.251 275.047,1571.203 275.345,1569.896 275.047,1568.590 274.211,1567.542 273.003,1566.960 271.663,1566.960 270.456,1567.542 269.620,1568.590 269.322,1569.896 269.620,1571.203 270.456,1572.251 271.663,1572.832 273.003,1572.832"/>
      <polygon points="333.980,1572.282 334.900,1571.244 335.233,1569.896 334.900,1568.549 333.980,1567.510 332.683,1567.018 331.305,1567.185 330.163,1567.974 329.518,1569.202 329.518,1570.590 330.163,1571.819 331.305,1572.607 332.683,1572.774"/>
      <polygon points="353.848,1572.091 354.695,1571.135 355.000,1569.896 354.695,1568.657 353.848,1567.702 352.655,1567.249 351.388,1567.403 350.337,1568.128 349.744,1569.258 349.744,1570.534 350.337,1571.665 351.388,1572.390 352.655,1572.543"/>
      <polygon points="253.848,1572.091 254.695,1571.135 255.000,1569.896 254.695,1568.657 253.848,1567.702 252.655,1567.249 251.388,1567.403 250.337,1568.128 249.744,1569.258 249.744,1570.534 250.337,1571.665 251.388,1572.390 252.655,1572.543"/>
      <polygon points="233.545,1571.994 234.432,1571.108 234.756,1569.896 234.432,1568.685 233.545,1567.798 232.333,1567.473 231.122,1567.798 230.235,1568.685 229.911,1569.896 230.235,1571.108 231.122,1571.994 232.333,1572.319"/>
      <polygon points="373.481,1571.885 374.322,1571.044 374.630,1569.896 374.322,1568.748 373.481,1567.908 372.333,1567.600 371.185,1567.908 370.345,1568.748 370.037,1569.896 370.345,1571.044 371.185,1571.885 372.333,1572.192"/>
      <polygon points="213.350,1571.657 214.095,1570.913 214.367,1569.896 214.095,1568.879 213.350,1568.135 212.333,1567.862 211.316,1568.135 210.572,1568.879 210.300,1569.896 210.572,1570.913 211.316,1571.657 212.333,1571.930"/>
      <polygon points="193.333,1571.628 194.065,1570.896 194.333,1569.896 194.065,1568.896 193.333,1568.164 192.333,1567.896 191.333,1568.164 190.601,1568.896 190.333,1569.896 190.601,1570.896 191.333,1571.628 192.333,1571.896"/>
      <polygon points="393.333,1571.628 394.065,1570.896 394.333,1569.896 394.065,1568.896 393.333,1568.164 392.333,1567.896 391.333,1568.164 390.601,1568.896 390.333,1569.896 390.601,1570.896 391.333,1571.628 392.333,1571.896"/>
      <polygon points="173.333,1571.628 174.065,1570.896 174.333,1569.896 174.065,1568.896 173.333,1568.164 172.333,1567.896 171.333,1568.164 170.601,1568.896 170.333,1569.896 170.601,1570.896 171.333,1571.628 172.333,1571.896"/>
      <polygon points="413.333,1571.628 414.065,1570.896 414.333,1569.896 414.065,1568.896 413.333,1568.164 412.333,1567.896 411.333,1568.164 410.601,1568.896 410.333,1569.896 410.601,1570.896 411.333,1571.628 412.333,1571.896"/>
      <polygon points="433.333,1571.628 434.065,1570.896 434.333,1569.896 434.065,1568.896 433.333,1568.164 432.333,1567.896 431.333,1568.164 430.601,1568.896 430.333,1569.896 430.601,1570.896 431.333,1571.628 432.333,1571.896"/>
      <polygon points="294.412,1592.502 295.337,1591.342 295.667,1589.896 295.337,1588.450 294.412,1587.290 293.075,1586.646 291.592,1586.646 290.255,1587.290 289.330,1588.450 289.000,1589.896 289.330,1591.342 290.255,1592.502 291.592,1593.146 293.075,1593.146"/>
      <polygon points="314.346,1592.420 315.242,1591.297 315.562,1589.896 315.242,1588.495 314.346,1587.372 313.052,1586.749 311.615,1586.749 310.320,1587.372 309.425,1588.495 309.105,1589.896 309.425,1591.297 310.320,1592.420 311.615,1593.044 313.052,1593.044"/>
      <polygon points="274.211,1592.251 275.047,1591.203 275.345,1589.896 275.047,1588.590 274.211,1587.542 273.003,1586.960 271.663,1586.960 270.456,1587.542 269.620,1588.590 269.322,1589.896 269.620,1591.203 270.456,1592.251 271.663,1592.832 273.003,1592.832"/>
      <polygon points="333.980,1592.282 334.900,1591.244 335.233,1589.896 334.900,1588.549 333.980,1587.510 332.683,1587.018 331.305,1587.185 330.163,1587.974 329.518,1589.202 329.518,1590.590 330.163,1591.819 331.305,1592.607 332.683,1592.774"/>
      <polygon points="253.848,1592.091 254.695,1591.135 255.000,1589.896 254.695,1588.657 253.848,1587.702 252.655,1587.249 251.388,1587.403 250.337,1588.128 249.744,1589.258 249.744,1590.534 250.337,1591.665 251.388,1592.390 252.655,1592.543"/>
      <polygon points="353.848,1592.091 354.695,1591.135 355.000,1589.896 354.695,1588.657 353.848,1587.702 352.655,1587.249 351.388,1587.403 350.337,1588.128 349.744,1589.258 349.744,1590.534 350.337,1591.665 351.388,1592.390 352.655,1592.543"/>
      <polygon points="233.545,1591.994 234.432,1591.108 234.756,1589.896 234.432,1588.685 233.545,1587.798 232.333,1587.473 231.122,1587.798 230.235,1588.685 229.911,1589.896 230.235,1591.108 231.122,1591.994 232.333,1592.319"/>
      <polygon points="373.481,1591.885 374.322,1591.044 374.630,1589.896 374.322,1588.748 373.481,1587.908 372.333,1587.600 371.185,1587.908 370.345,1588.748 370.037,1589.896 370.345,1591.044 371.185,1591.885 372.333,1592.192"/>
      <polygon points="213.350,1591.657 214.095,1590.913 214.367,1589.896 214.095,1588.879 213.350,1588.135 212.333,1587.862 211.316,1588.135 210.572,1588.879 210.300,1589.896 210.572,1590.913 211.316,1591.657 212.333,1591.930"/>
      <polygon points="393.333,1591.628 394.065,1590.896 394.333,1589.896 394.065,1588.896 393.333,1588.164 392.333,1587.896 391.333,1588.164 390.601,1588.896 390.333,1589.896 390.601,1590.896 391.333,1591.628 392.333,1591.896"/>
      <polygon points="413.333,1591.628 414.065,1590.896 414.333,1589.896 414.065,1588.896 413.333,1588.164 412.333,1587.896 411.333,1588.164 410.601,1588.896 410.333,1589.896 410.601,1590.896 411.333,1591.628 412.333,1591.896"/>
      <polygon points="433.333,1591.628 434.065,1590.896 434.333,1589.896 434.065,1588.896 433.333,1588.164 432.333,1587.896 431.333,1588.164 430.601,1588.896 430.333,1589.896 430.601,1590.896 431.333,1591.628 432.333,1591.896"/>
      <polygon points="193.333,1591.628 194.065,1590.896 194.333,1589.896 194.065,1588.896 193.333,1588.164 192.333,1587.896 191.333,1588.164 190.601,1588.896 190.333,1589.896 190.601,1590.896 191.333,1591.628 192.333,1591.896"/>
      <polygon points="173.333,1591.628 174.065,1590.896 174.333,1589.896 174.065,1588.896 173.333,1588.164 172.333,1587.896 171.333,1588.164 170.601,1588.896 170.333,1589.896 170.601,1590.896 171.333,1591.628 172.333,1591.896"/>
      <polygon points="294.412,1612.502 295.337,1611.342 295.667,1609.896 295.337,1608.450 294.412,1607.290 293.075,1606.646 291.592,1606.646 290.255,1607.290 289.330,1608.450 289.000,1609.896 289.330,1611.342 290.255,1612.502 291.592,1613.146 293.075,1613.146"/>
      <polygon points="314.346,1612.420 315.242,1611.297 315.562,1609.896 315.242,1608.495 314.346,1607.372 313.052,1606.749 311.615,1606.749 310.320,1607.372 309.425,1608.495 309.105,1609.896 309.425,1611.297 310.320,1612.420 311.615,1613.044 313.052,1613.044"/>
      <polygon points="274.211,1612.251 275.047,1611.203 275.345,1609.896 275.047,1608.590 274.211,1607.542 273.003,1606.960 271.663,1606.960 270.456,1607.542 269.620,1608.590 269.322,1609.896 269.620,1611.203 270.456,1612.251 271.663,1612.832 273.003,1612.832"/>
      <polygon points="333.980,1612.282 334.900,1611.244 335.233,1609.896 334.900,1608.549 333.980,1607.510 332.683,1607.018 331.305,1607.185 330.163,1607.974 329.518,1609.202 329.518,1610.590 330.163,1611.819 331.305,1612.607 332.683,1612.774"/>
      <polygon points="353.848,1612.091 354.695,1611.135 355.000,1609.896 354.695,1608.657 353.848,1607.702 352.655,1607.249 351.388,1607.403 350.337,1608.128 349.744,1609.258 349.744,1610.534 350.337,1611.665 351.388,1612.390 352.655,1612.543"/>
      <polygon points="253.848,1612.091 254.695,1611.135 255.000,1609.896 254.695,1608.657 253.848,1607.702 252.655,1607.249 251.388,1607.403 250.337,1608.128 249.744,1609.258 249.744,1610.534 250.337,1611.665 251.388,1612.390 252.655,1612.543"/>
      <polygon points="233.545,1611.994 234.432,1611.108 234.756,1609.896 234.432,1608.685 233.545,1607.798 232.333,1607.473 231.122,1607.798 230.235,1608.685 229.911,1609.896 230.235,1611.108 231.122,1611.994 232.333,1612.319"/>
      <polygon points="373.481,1611.885 374.322,1611.044 374.630,1609.896 374.322,1608.748 373.481,1607.908 372.333,1607.600 371.185,1607.908 370.345,1608.748 370.037,1609.896 370.345,1611.044 371.185,1611.885 372.333,1612.192"/>
      <polygon points="213.350,1611.657 214.095,1610.913 214.367,1609.896 214.095,1608.879 213.350,1608.135 212.333,1607.862 211.316,1608.135 210.572,1608.879 210.300,1609.896 210.572,1610.913 211.316,1611.657 212.333,1611.930"/>
      <polygon points="393.333,1611.628 394.065,1610.896 394.333,1609.896 394.065,1608.896 393.333,1608.164 392.333,1607.896 391.333,1608.164 390.601,1608.896 390.333,1609.896 390.601,1610.896 391.333,1611.628 392.333,1611.896"/>
      <polygon points="173.333,1611.628 174.065,1610.896 174.333,1609.896 174.065,1608.896 173.333,1608.164 172.333,1607.896 171.333,1608.164 170.601,1608.896 170.333,1609.896 170.601,1610.896 171.333,1611.628 172.333,1611.896"/>
      <polygon points="413.333,1611.628 414.065,1610.896 414.333,1609.896 414.065,1608.896 413.333,1608.164 412.333,1607.896 411.333,1608.164 410.601,1608.896 410.333,1609.896 410.601,1610.896 411.333,1611.628 412.333,1611.896"/>
      <polygon points="193.333,1611.628 194.065,1610.896 194.333,1609.896 194.065,1608.896 193.333,1608.164 192.333,1607.896 191.333,1608.164 190.601,1608.896 190.333,1609.896 190.601,1610.896 191.333,1611.628 192.333,1611.896"/>
      <polygon points="433.333,1611.628 434.065,1610.896 434.333,1609.896 434.065,1608.896 433.333,1608.164 432.333,1607.896 431.333,1608.164 430.601,1608.896 430.333,1609.896 430.601,1610.896 431.333,1611.628 432.333,1611.896"/>
      <polygon points="294.412,1632.502 295.337,1631.342 295.667,1629.896 295.337,1628.450 294.412,1627.290 293.075,1626.646 291.592,1626.646 290.255,1627.290 289.330,1628.450 289.000,1629.896 289.330,1631.342 290.255,1632.502 291.592,1633.146 293.075,1633.146"/>
      <polygon points="314.346,1632.420 315.242,1631.297 315.562,1629.896 315.242,1628.495 314.346,1627.372 313.052,1626.749 311.615,1626.749 310.320,1627.372 309.425,1628.495 309.105,1629.896 309.425,1631.297 310.320,1632.420 311.615,1633.044 313.052,1633.044"/>
      <polygon points="274.211,1632.251 275.047,1631.203 275.345,1629.896 275.047,1628.590 274.211,1627.542 273.003,1626.960 271.663,1626.960 270.456,1627.542 269.620,1628.590 269.322,1629.896 269.620,1631.203 270.456,1632.251 271.663,1632.832 273.003,1632.832"/>
      <polygon points="333.980,1632.282 334.900,1631.244 335.233,1629.896 334.900,1628.549 333.980,1627.510 332.683,1627.018 331.305,1627.185 330.163,1627.974 329.518,1629.202 329.518,1630.590 330.163,1631.819 331.305,1632.607 332.683,1632.774"/>
      <polygon points="353.848,1632.091 354.695,1631.135 355.000,1629.896 354.695,1628.657 353.848,1627.702 352.655,1627.249 351.388,1627.403 350.337,1628.128 349.744,1629.258 349.744,1630.534 350.337,1631.665 351.388,1632.390 352.655,1632.543"/>
      <polygon points="253.848,1632.091 254.695,1631.135 255.000,1629.896 254.695,1628.657 253.848,1627.702 252.655,1627.249 251.388,1627.403 250.337,1628.128 249.744,1629.258 249.744,1630.534 250.337,1631.665 251.388,1632.390 252.655,1632.543"/>
      <polygon points="233.545,1631.994 234.432,1631.108 234.756,1629.896 234.432,1628.685 233.545,1627.798 232.333,1627.473 231.122,1627.798 230.235,1628.685 229.911,1629.896 230.235,1631.108 231.122,1631.994 232.333,1632.319"/>
      <polygon points="373.481,1631.885 374.322,1631.044 374.630,1629.896 374.322,1628.748 373.481,1627.908 372.333,1627.600 371.185,1627.908 370.345,1628.748 370.037,1629.896 370.345,1631.044 371.185,1631.885 372.333,1632.192"/>
      <polygon points="213.350,1631.657 214.095,1630.913 214.367,1629.896 214.095,1628.879 213.350,1628.135 212.333,1627.862 211.316,1628.135 210.572,1628.879 210.300,1629.896 210.572,1630.913 211.316,1631.657 212.333,1631.930"/>
      <polygon points="173.333,1631.628 174.065,1630.896 174.333,1629.896 174.065,1628.896 173.333,1628.164 172.333,1627.896 171.333,1628.164 170.601,1628.896 170.333,1629.896 170.601,1630.896 171.333,1631.628 172.333,1631.896"/>
      <polygon points="193.333,1631.628 194.065,1630.896 194.333,1629.896 194.065,1628.896 193.333,1628.164 192.333,1627.896 191.333,1628.164 190.601,1628.896 190.333,1629.896 190.601,1630.896 191.333,1631.628 192.333,1631.896"/>
      <polygon points="413.333,1631.628 414.065,1630.896 414.333,1629.896 414.065,1628.896 413.333,1628.164 412.333,1627.896 411.333,1628.164 410.601,1628.896 410.333,1629.896 410.601,1630.896 411.333,1631.628 412.333,1631.896"/>
      <polygon points="433.333,1631.628 434.065,1630.896 434.333,1629.896 434.065,1628.896 433.333,1628.164 432.333,1627.896 431.333,1628.164 430.601,1628.896 430.333,1629.896 430.601,1630.896 431.333,1631.628 432.333,1631.896"/>
      <polygon points="393.333,1631.628 394.065,1630.896 394.333,1629.896 394.065,1628.896 393.333,1628.164 392.333,1627.896 391.333,1628.164 390.601,1628.896 390.333,1629.896 390.601,1630.896 391.333,1631.628 392.333,1631.896"/>
      <polygon points="294.412,1652.502 295.337,1651.342 295.667,1649.896 295.337,1648.450 294.412,1647.290 293.075,1646.646 291.592,1646.646 290.255,1647.290 289.330,1648.450 289.000,1649.896 289.330,1651.342 290.255,1652.502 291.592,1653.146 293.075,1653.146"/>
      <polygon points="314.346,1652.420 315.242,1651.297 315.562,1649.896 315.242,1648.495 314.346,1647.372 313.052,1646.749 311.615,1646.749 310.320,1647.372 309.425,1648.495 309.105,1649.896 309.425,1651.297 310.320,1652.420 311.615,1653.044 313.052,1653.044"/>
      <polygon points="274.211,1652.251 275.047,1651.203 275.345,1649.896 275.047,1648.590 274.211,1647.542 273.003,1646.960 271.663,1646.960 270.456,1647.542 269.620,1648.590 269.322,1649.896 269.620,1651.203 270.456,1652.251 271.663,1652.832 273.003,1652.832"/>
      <polygon points="333.980,1652.282 334.900,1651.244 335.233,1649.896 334.900,1648.549 333.980,1647.510 332.683,1647.018 331.305,1647.185 330.163,1647.974 329.518,1649.202 329.518,1650.590 330.163,1651.819 331.305,1652.607 332.683,1652.774"/>
      <polygon points="353.848,1652.091 354.695,1651.135 355.000,1649.896 354.695,1648.657 353.848,1647.702 352.655,1647.249 351.388,1647.403 350.337,1648.128 349.744,1649.258 349.744,1650.534 350.337,1651.665 351.388,1652.390 352.655,1652.543"/>
      <polygon points="253.848,1652.091 254.695,1651.135 255.000,1649.896 254.695,1648.657 253.848,1647.702 252.655,1647.249 251.388,1647.403 250.337,1648.128 249.744,1649.258 249.744,1650.534 250.337,1651.665 251.388,1652.390 252.655,1652.543"/>
      <polygon points="233.545,1651.994 234.432,1651.108 234.756,1649.896 234.432,1648.685 233.545,1647.798 232.333,1647.473 231.122,1647.798 230.235,1648.685 229.911,1649.896 230.235,1651.108 231.122,1651.994 232.333,1652.319"/>
      <polygon points="373.481,1651.885 374.322,1651.044 374.630,1649.896 374.322,1648.748 373.481,1647.908 372.333,1647.600 371.185,1647.908 370.345,1648.748 370.037,1649.896 370.345,1651.044 371.185,1651.885 372.333,1652.192"/>
      <polygon points="213.350,1651.657 214.095,1650.913 214.367,1649.896 214.095,1648.879 213.350,1648.135 212.333,1647.862 211.316,1648.135 210.572,1648.879 210.300,1649.896 210.572,1650.913 211.316,1651.657 212.333,1651.930"/>
      <polygon points="193.333,1651.628 194.065,1650.896 194.333,1649.896 194.065,1648.896 193.333,1648.164 192.333,1647.896 191.333,1648.164 190.601,1648.896 190.333,1649.896 190.601,1650.896 191.333,1651.628 192.333,1651.896"/>
      <polygon points="173.333,1651.628 174.065,1650.896 174.333,1649.896 174.065,1648.896 173.333,1648.164 172.333,1647.896 171.333,1648.164 170.601,1648.896 170.333,1649.896 170.601,1650.896 171.333,1651.628 172.333,1651.896"/>
      <polygon points="413.333,1651.628 414.065,1650.896 414.333,1649.896 414.065,1648.896 413.333,1648.164 412.333,1647.896 411.333,1648.164 410.601,1648.896 410.333,1649.896 410.601,1650.896 411.333,1651.628 412.333,1651.896"/>
      <polygon points="433.333,1651.628 434.065,1650.896 434.333,1649.896 434.065,1648.896 433.333,1648.164 432.333,1647.896 431.333,1648.164 430.601,1648.896 430.333,1649.896 430.601,1650.896 431.333,1651.628 432.333,1651.896"/>
      <polygon points="393.333,1651.628 394.065,1650.896 394.333,1649.896 394.065,1648.896 393.333,1648.164 392.333,1647.896 391.333,1648.164 390.601,1648.896 390.333,1649.896 390.601,1650.896 391.333,1651.628 392.333,1651.896"/>
      <polygon points="294.412,1672.502 295.337,1671.342 295.667,1669.896 295.337,1668.450 294.412,1667.290 293.075,1666.646 291.592,1666.646 290.255,1667.290 289.330,1668.450 289.000,1669.896 289.330,1671.342 290.255,1672.502 291.592,1673.146 293.075,1673.146"/>
      <polygon points="314.346,1672.420 315.242,1671.297 315.562,1669.896 315.242,1668.495 314.346,1667.372 313.052,1666.749 311.615,1666.749 310.320,1667.372 309.425,1668.495 309.105,1669.896 309.425,1671.297 310.320,1672.420 311.615,1673.044 313.052,1673.044"/>
      <polygon points="274.211,1672.251 275.047,1671.203 275.345,1669.896 275.047,1668.590 274.211,1667.542 273.003,1666.960 271.663,1666.960 270.456,1667.542 269.620,1668.590 269.322,1669.896 269.620,1671.203 270.456,1672.251 271.663,1672.832 273.003,1672.832"/>
      <polygon points="333.980,1672.282 334.900,1671.244 335.233,1669.896 334.900,1668.549 333.980,1667.510 332.683,1667.018 331.305,1667.185 330.163,1667.974 329.518,1669.202 329.518,1670.590 330.163,1671.819 331.305,1672.607 332.683,1672.774"/>
      <polygon points="353.848,1672.091 354.695,1671.135 355.000,1669.896 354.695,1668.657 353.848,1667.702 352.655,1667.249 351.388,1667.403 350.337,1668.128 349.744,1669.258 349.744,1670.534 350.337,1671.665 351.388,1672.390 352.655,1672.543"/>
      <polygon points="253.848,1672.091 254.695,1671.135 255.000,1669.896 254.695,1668.657 253.848,1667.702 252.655,1667.249 251.388,1667.403 250.337,1668.128 249.744,1669.258 249.744,1670.534 250.337,1671.665 251.388,1672.390 252.655,1672.543"/>
      <polygon points="233.545,1671.994 234.432,1671.108 234.756,1669.896 234.432,1668.685 233.545,1667.798 232.333,1667.473 231.122,1667.798 230.235,1668.685 229.911,1669.896 230.235,1671.108 231.122,1671.994 232.333,1672.319"/>
      <polygon points="373.481,1671.885 374.322,1671.044 374.630,1669.896 374.322,1668.748 373.481,1667.908 372.333,1667.600 371.185,1667.908 370.345,1668.748 370.037,1669.896 370.345,1671.044 371.185,1671.885 372.333,1672.192"/>
      <polygon points="213.350,1671.657 214.095,1670.913 214.367,1669.896 214.095,1668.879 213.350,1668.135 212.333,1667.862 211.316,1668.135 210.572,1668.879 210.300,1669.896 210.572,1670.913 211.316,1671.657 212.333,1671.930"/>
      <polygon points="393.333,1671.628 394.065,1670.896 394.333,1669.896 394.065,1668.896 393.333,1668.164 392.333,1667.896 391.333,1668.164 390.601,1668.896 390.333,1669.896 390.601,1670.896 391.333,1671.628 392.333,1671.896"/>
      <polygon points="413.333,1671.628 414.065,1670.896 414.333,1669.896 414.065,1668.896 413.333,1668.164 412.333,1667.896 411.333,1668.164 410.601,1668.896 410.333,1669.896 410.601,1670.896 411.333,1671.628 412.333,1671.896"/>
      <polygon points="433.333,1671.628 434.065,1670.896 434.333,1669.896 434.065,1668.896 433.333,1668.164 432.333,1667.896 431.333,1668.164 430.601,1668.896 430.333,1669.896 430.601,1670.896 431.333,1671.628 432.333,1671.896"/>
      <polygon points="193.333,1671.628 194.065,1670.896 194.333,1669.896 194.065,1668.896 193.333,1668.164 192.333,1667.896 191.333,1668.164 190.601,1668.896 190.333,1669.896 190.601,1670.896 191.333,1671.628 192.333,1671.896"/>
      <polygon points="173.333,1671.628 174.065,1670.896 174.333,1669.896 174.065,1668.896 173.333,1668.164 172.333,1667.896 171.333,1668.164 170.601,1668.896 170.333,1669.896 170.601,1670.896 171.333,1671.628 172.333,1671.896"/>
    </g>
    <g stroke="#EF6C00" stroke-width="0.4" fill="none">
    </g>
  </g>
  <g stroke="#000000" stroke-width="0.4">
    <line x1="500.000" y1="1000.000" x2="1500.000" y2="1000.000"/>
  </g>
  <g stroke="#000000" stroke-width="0.4">
    <line x1="1000.000" y1="500.000" x2="1000.000" y2="1500.000"/>
  </g>
  <circle cx="1000.000" cy="1000.000" r="1000.000" stroke="red" stroke-width="1" fill="none"/>
  </g>
</svg>
