<?xml version="1.0" encoding="UTF-8"?>
<svg xmlns="http://www.w3.org/2000/svg" version="1.1" width="2000" height="2000">
  <g fill="none" stroke-linecap="round" stroke-linejoin="round">
  <text x="10" y="20" font-size="24" fill="#555">Layer 188 Z=49.600 mm</text>
  <g transform="translate(700.000,-602.229)">
    <g stroke="#2E7D32" stroke-width="0.4">
      <line x1="553.325" y1="1679.230" x2="553.325" y2="1629.230"/>
      <line x1="554.325" y1="1679.230" x2="554.325" y2="1629.230"/>
      <line x1="555.325" y1="1679.230" x2="555.325" y2="1629.230"/>
      <line x1="556.325" y1="1679.230" x2="556.325" y2="1629.230"/>
      <line x1="557.325" y1="1679.230" x2="557.325" y2="1629.230"/>
      <line x1="558.325" y1="1679.230" x2="558.325" y2="1629.230"/>
      <line x1="559.325" y1="1679.230" x2="559.325" y2="1629.230"/>
      <line x1="560.325" y1="1679.230" x2="560.325" y2="1629.230"/>
      <line x1="561.325" y1="1679.230" x2="561.325" y2="1629.230"/>
      <line x1="562.325" y1="1679.230" x2="562.325" y2="1629.230"/>
      <line x1="563.325" y1="1679.230" x2="563.325" y2="1629.230"/>
      <line x1="564.325" y1="1679.230" x2="564.325" y2="1629.230"/>
      <line x1="565.325" y1="1679.230" x2="565.325" y2="1629.230"/>
      <line x1="566.325" y1="1679.230" x2="566.325" y2="1629.230"/>
      <line x1="567.325" y1="1679.230" x2="567.325" y2="1629.230"/>
      <line x1="568.325" y1="1679.230" x2="568.325" y2="1629.230"/>
      <line x1="569.325" y1="1679.230" x2="569.325" y2="1629.230"/>
      <line x1="570.325" y1="1679.230" x2="570.325" y2="1629.230"/>
      <line x1="571.325" y1="1679.230" x2="571.325" y2="1629.230"/>
      <line x1="572.325" y1="1679.230" x2="572.325" y2="1629.230"/>
      <line x1="573.325" y1="1679.230" x2="573.325" y2="1629.230"/>
      <line x1="574.325" y1="1679.230" x2="574.325" y2="1629.230"/>
      <line x1="575.325" y1="1679.230" x2="575.325" y2="1629.230"/>
      <line x1="576.325" y1="1679.230" x2="576.325" y2="1629.230"/>
      <line x1="577.325" y1="1679.230" x2="577.325" y2="1629.230"/>
      <line x1="578.325" y1="1679.230" x2="578.325" y2="1629.230"/>
      <line x1="579.325" y1="1679.230" x2="579.325" y2="1629.230"/>
      <line x1="580.325" y1="1679.230" x2="580.325" y2="1629.230"/>
      <line x1="581.325" y1="1679.230" x2="581.325" y2="1629.230"/>
      <line x1="582.325" y1="1679.230" x2="582.325" y2="1629.230"/>
      <line x1="583.325" y1="1679.230" x2="583.325" y2="1629.230"/>
      <line x1="584.325" y1="1679.230" x2="584.325" y2="1629.230"/>
      <line x1="585.325" y1="1679.230" x2="585.325" y2="1629.230"/>
      <line x1="586.325" y1="1679.230" x2="586.325" y2="1629.230"/>
      <line x1="587.325" y1="1679.230" x2="587.325" y2="1629.230"/>
      <line x1="588.325" y1="1679.230" x2="588.325" y2="1629.230"/>
      <line x1="589.325" y1="1679.230" x2="589.325" y2="1629.230"/>
      <line x1="590.325" y1="1679.230" x2="590.325" y2="1629.230"/>
      <line x1="591.325" y1="1679.230" x2="591.325" y2="1629.230"/>
      <line x1="592.325" y1="1679.230" x2="592.325" y2="1629.230"/>
      <line x1="593.325" y1="1679.230" x2="593.325" y2="1629.230"/>
      <line x1="594.325" y1="1679.230" x2="594.325" y2="1629.230"/>
      <line x1="595.325" y1="1679.230" x2="595.325" y2="1629.230"/>
      <line x1="596.325" y1="1679.230" x2="596.325" y2="1629.230"/>
      <line x1="553.325" y1="1629.130" x2="553.325" y2="1579.130"/>
      <line x1="554.325" y1="1629.130" x2="554.325" y2="1579.130"/>
      <line x1="555.325" y1="1629.130" x2="555.325" y2="1579.130"/>
      <line x1="556.325" y1="1629.130" x2="556.325" y2="1579.130"/>
      <line x1="557.325" y1="1629.130" x2="557.325" y2="1579.130"/>
      <line x1="558.325" y1="1629.130" x2="558.325" y2="1579.130"/>
      <line x1="559.325" y1="1629.130" x2="559.325" y2="1579.130"/>
      <line x1="560.325" y1="1629.130" x2="560.325" y2="1579.130"/>
      <line x1="561.325" y1="1629.130" x2="561.325" y2="1579.130"/>
      <line x1="562.325" y1="1629.130" x2="562.325" y2="1579.130"/>
      <line x1="563.325" y1="1629.130" x2="563.325" y2="1579.130"/>
      <line x1="564.325" y1="1629.130" x2="564.325" y2="1579.130"/>
      <line x1="565.325" y1="1629.130" x2="565.325" y2="1579.130"/>
      <line x1="566.325" y1="1629.130" x2="566.325" y2="1579.130"/>
      <line x1="567.325" y1="1629.130" x2="567.325" y2="1579.130"/>
      <line x1="568.325" y1="1629.130" x2="568.325" y2="1579.130"/>
      <line x1="569.325" y1="1629.130" x2="569.325" y2="1579.130"/>
      <line x1="570.325" y1="1629.130" x2="570.325" y2="1579.130"/>
      <line x1="571.325" y1="1629.130" x2="571.325" y2="1579.130"/>
      <line x1="572.325" y1="1629.130" x2="572.325" y2="1579.130"/>
      <line x1="573.325" y1="1629.130" x2="573.325" y2="1579.130"/>
      <line x1="574.325" y1="1629.130" x2="574.325" y2="1579.130"/>
      <line x1="575.325" y1="1629.130" x2="575.325" y2="1579.130"/>
      <line x1="576.325" y1="1629.130" x2="576.325" y2="1579.130"/>
      <line x1="577.325" y1="1629.130" x2="577.325" y2="1579.130"/>
      <line x1="578.325" y1="1629.130" x2="578.325" y2="1579.130"/>
      <line x1="579.325" y1="1629.130" x2="579.325" y2="1579.130"/>
      <line x1="580.325" y1="1629.130" x2="580.325" y2="1579.130"/>
      <line x1="581.325" y1="1629.130" x2="581.325" y2="1579.130"/>
      <line x1="582.325" y1="1629.130" x2="582.325" y2="1579.130"/>
      <line x1="583.325" y1="1629.130" x2="583.325" y2="1579.130"/>
      <line x1="584.325" y1="1629.130" x2="584.325" y2="1579.130"/>
      <line x1="585.325" y1="1629.130" x2="585.325" y2="1579.130"/>
      <line x1="586.325" y1="1629.130" x2="586.325" y2="1579.130"/>
      <line x1="587.325" y1="1629.130" x2="587.325" y2="1579.130"/>
      <line x1="588.325" y1="1629.130" x2="588.325" y2="1579.130"/>
      <line x1="589.325" y1="1629.130" x2="589.325" y2="1579.130"/>
      <line x1="590.325" y1="1629.130" x2="590.325" y2="1579.130"/>
      <line x1="591.325" y1="1629.130" x2="591.325" y2="1579.130"/>
      <line x1="592.325" y1="1629.130" x2="592.325" y2="1579.130"/>
      <line x1="593.325" y1="1629.130" x2="593.325" y2="1579.130"/>
      <line x1="594.325" y1="1629.130" x2="594.325" y2="1579.130"/>
      <line x1="595.325" y1="1629.130" x2="595.325" y2="1579.130"/>
      <line x1="596.325" y1="1629.130" x2="596.325" y2="1579.130"/>
      <line x1="553.325" y1="1579.030" x2="553.325" y2="1529.030"/>
      <line x1="554.325" y1="1579.030" x2="554.325" y2="1529.030"/>
      <line x1="555.325" y1="1579.030" x2="555.325" y2="1529.030"/>
      <line x1="556.325" y1="1579.030" x2="556.325" y2="1529.030"/>
      <line x1="557.325" y1="1579.030" x2="557.325" y2="1529.030"/>
      <line x1="558.325" y1="1579.030" x2="558.325" y2="1529.030"/>
      <line x1="559.325" y1="1579.030" x2="559.325" y2="1529.030"/>
      <line x1="560.325" y1="1579.030" x2="560.325" y2="1529.030"/>
      <line x1="561.325" y1="1579.030" x2="561.325" y2="1529.030"/>
      <line x1="562.325" y1="1579.030" x2="562.325" y2="1529.030"/>
      <line x1="563.325" y1="1579.030" x2="563.325" y2="1529.030"/>
      <line x1="564.325" y1="1579.030" x2="564.325" y2="1529.030"/>
      <line x1="565.325" y1="1579.030" x2="565.325" y2="1529.030"/>
      <line x1="566.325" y1="1579.030" x2="566.325" y2="1529.030"/>
      <line x1="567.325" y1="1579.030" x2="567.325" y2="1529.030"/>
      <line x1="568.325" y1="1579.030" x2="568.325" y2="1529.030"/>
      <line x1="569.325" y1="1579.030" x2="569.325" y2="1529.030"/>
      <line x1="570.325" y1="1579.030" x2="570.325" y2="1529.030"/>
      <line x1="571.325" y1="1579.030" x2="571.325" y2="1529.030"/>
      <line x1="572.325" y1="1579.030" x2="572.325" y2="1529.030"/>
      <line x1="573.325" y1="1579.030" x2="573.325" y2="1529.030"/>
      <line x1="574.325" y1="1579.030" x2="574.325" y2="1529.030"/>
      <line x1="575.325" y1="1579.030" x2="575.325" y2="1529.030"/>
      <line x1="576.325" y1="1579.030" x2="576.325" y2="1529.030"/>
      <line x1="577.325" y1="1579.030" x2="577.325" y2="1529.030"/>
      <line x1="578.325" y1="1579.030" x2="578.325" y2="1529.030"/>
      <line x1="579.325" y1="1579.030" x2="579.325" y2="1529.030"/>
      <line x1="580.325" y1="1579.030" x2="580.325" y2="1529.030"/>
      <line x1="581.325" y1="1579.030" x2="581.325" y2="1529.030"/>
      <line x1="582.325" y1="1579.030" x2="582.325" y2="1529.030"/>
      <line x1="583.325" y1="1579.030" x2="583.325" y2="1529.030"/>
      <line x1="584.325" y1="1579.030" x2="584.325" y2="1529.030"/>
      <line x1="585.325" y1="1579.030" x2="585.325" y2="1529.030"/>
      <line x1="586.325" y1="1579.030" x2="586.325" y2="1529.030"/>
      <line x1="587.325" y1="1579.030" x2="587.325" y2="1529.030"/>
      <line x1="588.325" y1="1579.030" x2="588.325" y2="1529.030"/>
      <line x1="589.325" y1="1579.030" x2="589.325" y2="1529.030"/>
      <line x1="590.325" y1="1579.030" x2="590.325" y2="1529.030"/>
      <line x1="591.325" y1="1579.030" x2="591.325" y2="1529.030"/>
      <line x1="592.325" y1="1579.030" x2="592.325" y2="1529.030"/>
      <line x1="593.325" y1="1579.030" x2="593.325" y2="1529.030"/>
      <line x1="594.325" y1="1579.030" x2="594.325" y2="1529.030"/>
      <line x1="595.325" y1="1579.030" x2="595.325" y2="1529.030"/>
      <line x1="596.325" y1="1579.030" x2="596.325" y2="1529.030"/>
      <line x1="576.325" y1="1528.930" x2="576.325" y2="1525.229"/>
      <line x1="575.325" y1="1528.930" x2="575.325" y2="1525.229"/>
      <line x1="577.325" y1="1528.930" x2="577.325" y2="1525.229"/>
      <line x1="578.325" y1="1528.930" x2="578.325" y2="1525.229"/>
      <line x1="579.325" y1="1528.930" x2="579.325" y2="1525.229"/>
      <line x1="580.325" y1="1528.930" x2="580.325" y2="1525.229"/>
      <line x1="581.325" y1="1528.930" x2="581.325" y2="1525.229"/>
      <line x1="582.325" y1="1528.930" x2="582.325" y2="1525.229"/>
      <line x1="583.325" y1="1528.930" x2="583.325" y2="1525.229"/>
      <line x1="584.325" y1="1528.930" x2="584.325" y2="1525.229"/>
      <line x1="585.325" y1="1528.930" x2="585.325" y2="1525.229"/>
      <line x1="586.325" y1="1528.930" x2="586.325" y2="1525.229"/>
      <line x1="587.325" y1="1528.930" x2="587.325" y2="1525.229"/>
      <line x1="588.325" y1="1528.930" x2="588.325" y2="1525.229"/>
      <line x1="589.325" y1="1528.930" x2="589.325" y2="1525.229"/>
      <line x1="590.325" y1="1528.930" x2="590.325" y2="1525.229"/>
      <line x1="591.325" y1="1528.930" x2="591.325" y2="1525.229"/>
      <line x1="592.325" y1="1528.930" x2="592.325" y2="1525.229"/>
      <line x1="593.325" y1="1528.930" x2="593.325" y2="1525.229"/>
      <line x1="594.325" y1="1528.930" x2="594.325" y2="1525.229"/>
      <line x1="595.325" y1="1528.930" x2="595.325" y2="1525.229"/>
      <line x1="596.325" y1="1528.930" x2="596.325" y2="1525.229"/>
      <line x1="564.325" y1="1528.930" x2="564.325" y2="1525.229"/>
      <line x1="554.325" y1="1528.930" x2="554.325" y2="1525.229"/>
      <line x1="555.325" y1="1528.930" x2="555.325" y2="1525.229"/>
      <line x1="556.325" y1="1528.930" x2="556.325" y2="1525.229"/>
      <line x1="557.325" y1="1528.930" x2="557.325" y2="1525.229"/>
      <line x1="558.325" y1="1528.930" x2="558.325" y2="1525.229"/>
      <line x1="559.325" y1="1528.930" x2="559.325" y2="1525.229"/>
      <line x1="560.325" y1="1528.930" x2="560.325" y2="1525.229"/>
      <line x1="561.325" y1="1528.930" x2="561.325" y2="1525.229"/>
      <line x1="562.325" y1="1528.930" x2="562.325" y2="1525.229"/>
      <line x1="563.325" y1="1528.930" x2="563.325" y2="1525.229"/>
      <line x1="553.325" y1="1528.930" x2="553.325" y2="1525.229"/>
      <line x1="565.325" y1="1528.930" x2="565.325" y2="1525.229"/>
      <line x1="566.325" y1="1528.930" x2="566.325" y2="1525.229"/>
      <line x1="567.325" y1="1528.930" x2="567.325" y2="1525.229"/>
      <line x1="568.325" y1="1528.930" x2="568.325" y2="1525.229"/>
      <line x1="569.325" y1="1528.930" x2="569.325" y2="1525.229"/>
      <line x1="570.325" y1="1528.930" x2="570.325" y2="1525.229"/>
      <line x1="571.325" y1="1528.930" x2="571.325" y2="1525.229"/>
      <line x1="572.325" y1="1528.930" x2="572.325" y2="1525.229"/>
      <line x1="573.325" y1="1528.930" x2="573.325" y2="1525.229"/>
      <line x1="574.325" y1="1528.930" x2="574.325" y2="1525.229"/>
      <line x1="3.325" y1="1679.230" x2="3.325" y2="1629.230"/>
      <line x1="4.325" y1="1679.230" x2="4.325" y2="1629.230"/>
      <line x1="5.325" y1="1679.230" x2="5.325" y2="1629.230"/>
      <line x1="6.325" y1="1679.230" x2="6.325" y2="1629.230"/>
      <line x1="7.325" y1="1679.230" x2="7.325" y2="1629.230"/>
      <line x1="8.325" y1="1679.230" x2="8.325" y2="1629.230"/>
      <line x1="9.325" y1="1679.230" x2="9.325" y2="1629.230"/>
      <line x1="10.325" y1="1679.230" x2="10.325" y2="1629.230"/>
      <line x1="11.325" y1="1679.230" x2="11.325" y2="1629.230"/>
      <line x1="12.325" y1="1679.230" x2="12.325" y2="1629.230"/>
      <line x1="13.325" y1="1679.230" x2="13.325" y2="1629.230"/>
      <line x1="14.325" y1="1679.230" x2="14.325" y2="1629.230"/>
      <line x1="15.325" y1="1679.230" x2="15.325" y2="1629.230"/>
      <line x1="16.325" y1="1679.230" x2="16.325" y2="1629.230"/>
      <line x1="17.325" y1="1679.230" x2="17.325" y2="1629.230"/>
      <line x1="18.325" y1="1679.230" x2="18.325" y2="1629.230"/>
      <line x1="19.325" y1="1679.230" x2="19.325" y2="1629.230"/>
      <line x1="20.325" y1="1679.230" x2="20.325" y2="1629.230"/>
      <line x1="21.325" y1="1679.230" x2="21.325" y2="1629.230"/>
      <line x1="22.325" y1="1679.230" x2="22.325" y2="1629.230"/>
      <line x1="23.325" y1="1679.230" x2="23.325" y2="1629.230"/>
      <line x1="24.325" y1="1679.230" x2="24.325" y2="1629.230"/>
      <line x1="25.325" y1="1679.230" x2="25.325" y2="1629.230"/>
      <line x1="26.325" y1="1679.230" x2="26.325" y2="1629.230"/>
      <line x1="27.325" y1="1679.230" x2="27.325" y2="1629.230"/>
      <line x1="28.325" y1="1679.230" x2="28.325" y2="1629.230"/>
      <line x1="29.325" y1="1679.230" x2="29.325" y2="1629.230"/>
      <line x1="30.325" y1="1679.230" x2="30.325" y2="1629.230"/>
      <line x1="31.325" y1="1679.230" x2="31.325" y2="1629.230"/>
      <line x1="32.325" y1="1679.230" x2="32.325" y2="1629.230"/>
      <line x1="33.325" y1="1679.230" x2="33.325" y2="1629.230"/>
      <line x1="34.325" y1="1679.230" x2="34.325" y2="1629.230"/>
      <line x1="35.325" y1="1679.230" x2="35.325" y2="1629.230"/>
      <line x1="36.325" y1="1679.230" x2="36.325" y2="1629.230"/>
      <line x1="37.325" y1="1679.230" x2="37.325" y2="1629.230"/>
      <line x1="38.325" y1="1679.230" x2="38.325" y2="1629.230"/>
      <line x1="39.325" y1="1679.230" x2="39.325" y2="1629.230"/>
      <line x1="40.325" y1="1679.230" x2="40.325" y2="1629.230"/>
      <line x1="41.325" y1="1679.230" x2="41.325" y2="1629.230"/>
      <line x1="42.325" y1="1679.230" x2="42.325" y2="1629.230"/>
      <line x1="43.325" y1="1679.230" x2="43.325" y2="1629.230"/>
      <line x1="44.325" y1="1679.230" x2="44.325" y2="1629.230"/>
      <line x1="45.325" y1="1679.230" x2="45.325" y2="1629.230"/>
      <line x1="46.325" y1="1679.230" x2="46.325" y2="1629.230"/>
      <line x1="3.325" y1="1629.130" x2="3.325" y2="1579.130"/>
      <line x1="4.325" y1="1629.130" x2="4.325" y2="1579.130"/>
      <line x1="5.325" y1="1629.130" x2="5.325" y2="1579.130"/>
      <line x1="6.325" y1="1629.130" x2="6.325" y2="1579.130"/>
      <line x1="7.325" y1="1629.130" x2="7.325" y2="1579.130"/>
      <line x1="8.325" y1="1629.130" x2="8.325" y2="1579.130"/>
      <line x1="9.325" y1="1629.130" x2="9.325" y2="1579.130"/>
      <line x1="10.325" y1="1629.130" x2="10.325" y2="1579.130"/>
      <line x1="11.325" y1="1629.130" x2="11.325" y2="1579.130"/>
      <line x1="12.325" y1="1629.130" x2="12.325" y2="1579.130"/>
      <line x1="13.325" y1="1629.130" x2="13.325" y2="1579.130"/>
      <line x1="14.325" y1="1629.130" x2="14.325" y2="1579.130"/>
      <line x1="15.325" y1="1629.130" x2="15.325" y2="1579.130"/>
      <line x1="16.325" y1="1629.130" x2="16.325" y2="1579.130"/>
      <line x1="17.325" y1="1629.130" x2="17.325" y2="1579.130"/>
      <line x1="18.325" y1="1629.130" x2="18.325" y2="1579.130"/>
      <line x1="19.325" y1="1629.130" x2="19.325" y2="1579.130"/>
      <line x1="20.325" y1="1629.130" x2="20.325" y2="1579.130"/>
      <line x1="21.325" y1="1629.130" x2="21.325" y2="1579.130"/>
      <line x1="22.325" y1="1629.130" x2="22.325" y2="1579.130"/>
      <line x1="23.325" y1="1629.130" x2="23.325" y2="1579.130"/>
      <line x1="24.325" y1="1629.130" x2="24.325" y2="1579.130"/>
      <line x1="25.325" y1="1629.130" x2="25.325" y2="1579.130"/>
      <line x1="26.325" y1="1629.130" x2="26.325" y2="1579.130"/>
      <line x1="27.325" y1="1629.130" x2="27.325" y2="1579.130"/>
      <line x1="28.325" y1="1629.130" x2="28.325" y2="1579.130"/>
      <line x1="29.325" y1="1629.130" x2="29.325" y2="1579.130"/>
      <line x1="30.325" y1="1629.130" x2="30.325" y2="1579.130"/>
      <line x1="31.325" y1="1629.130" x2="31.325" y2="1579.130"/>
      <line x1="32.325" y1="1629.130" x2="32.325" y2="1579.130"/>
      <line x1="33.325" y1="1629.130" x2="33.325" y2="1579.130"/>
      <line x1="34.325" y1="1629.130" x2="34.325" y2="1579.130"/>
      <line x1="35.325" y1="1629.130" x2="35.325" y2="1579.130"/>
      <line x1="36.325" y1="1629.130" x2="36.325" y2="1579.130"/>
      <line x1="37.325" y1="1629.130" x2="37.325" y2="1579.130"/>
      <line x1="38.325" y1="1629.130" x2="38.325" y2="1579.130"/>
      <line x1="39.325" y1="1629.130" x2="39.325" y2="1579.130"/>
      <line x1="40.325" y1="1629.130" x2="40.325" y2="1579.130"/>
      <line x1="41.325" y1="1629.130" x2="41.325" y2="1579.130"/>
      <line x1="42.325" y1="1629.130" x2="42.325" y2="1579.130"/>
      <line x1="43.325" y1="1629.130" x2="43.325" y2="1579.130"/>
      <line x1="44.325" y1="1629.130" x2="44.325" y2="1579.130"/>
      <line x1="45.325" y1="1629.130" x2="45.325" y2="1579.130"/>
      <line x1="46.325" y1="1629.130" x2="46.325" y2="1579.130"/>
      <line x1="3.325" y1="1579.030" x2="3.325" y2="1529.030"/>
      <line x1="4.325" y1="1579.030" x2="4.325" y2="1529.030"/>
      <line x1="5.325" y1="1579.030" x2="5.325" y2="1529.030"/>
      <line x1="6.325" y1="1579.030" x2="6.325" y2="1529.030"/>
      <line x1="7.325" y1="1579.030" x2="7.325" y2="1529.030"/>
      <line x1="8.325" y1="1579.030" x2="8.325" y2="1529.030"/>
      <line x1="9.325" y1="1579.030" x2="9.325" y2="1529.030"/>
      <line x1="10.325" y1="1579.030" x2="10.325" y2="1529.030"/>
      <line x1="11.325" y1="1579.030" x2="11.325" y2="1529.030"/>
      <line x1="12.325" y1="1579.030" x2="12.325" y2="1529.030"/>
      <line x1="13.325" y1="1579.030" x2="13.325" y2="1529.030"/>
      <line x1="14.325" y1="1579.030" x2="14.325" y2="1529.030"/>
      <line x1="15.325" y1="1579.030" x2="15.325" y2="1529.030"/>
      <line x1="16.325" y1="1579.030" x2="16.325" y2="1529.030"/>
      <line x1="17.325" y1="1579.030" x2="17.325" y2="1529.030"/>
      <line x1="18.325" y1="1579.030" x2="18.325" y2="1529.030"/>
      <line x1="19.325" y1="1579.030" x2="19.325" y2="1529.030"/>
      <line x1="20.325" y1="1579.030" x2="20.325" y2="1529.030"/>
      <line x1="21.325" y1="1579.030" x2="21.325" y2="1529.030"/>
      <line x1="22.325" y1="1579.030" x2="22.325" y2="1529.030"/>
      <line x1="23.325" y1="1579.030" x2="23.325" y2="1529.030"/>
      <line x1="24.325" y1="1579.030" x2="24.325" y2="1529.030"/>
      <line x1="25.325" y1="1579.030" x2="25.325" y2="1529.030"/>
      <line x1="26.325" y1="1579.030" x2="26.325" y2="1529.030"/>
      <line x1="27.325" y1="1579.030" x2="27.325" y2="1529.030"/>
      <line x1="28.325" y1="1579.030" x2="28.325" y2="1529.030"/>
      <line x1="29.325" y1="1579.030" x2="29.325" y2="1529.030"/>
      <line x1="30.325" y1="1579.030" x2="30.325" y2="1529.030"/>
      <line x1="31.325" y1="1579.030" x2="31.325" y2="1529.030"/>
      <line x1="32.325" y1="1579.030" x2="32.325" y2="1529.030"/>
      <line x1="33.325" y1="1579.030" x2="33.325" y2="1529.030"/>
      <line x1="34.325" y1="1579.030" x2="34.325" y2="1529.030"/>
      <line x1="35.325" y1="1579.030" x2="35.325" y2="1529.030"/>
      <line x1="36.325" y1="1579.030" x2="36.325" y2="1529.030"/>
      <line x1="37.325" y1="1579.030" x2="37.325" y2="1529.030"/>
      <line x1="38.325" y1="1579.030" x2="38.325" y2="1529.030"/>
      <line x1="39.325" y1="1579.030" x2="39.325" y2="1529.030"/>
      <line x1="40.325" y1="1579.030" x2="40.325" y2="1529.030"/>
      <line x1="41.325" y1="1579.030" x2="41.325" y2="1529.030"/>
      <line x1="42.325" y1="1579.030" x2="42.325" y2="1529.030"/>
      <line x1="43.325" y1="1579.030" x2="43.325" y2="1529.030"/>
      <line x1="44.325" y1="1579.030" x2="44.325" y2="1529.030"/>
      <line x1="45.325" y1="1579.030" x2="45.325" y2="1529.030"/>
      <line x1="46.325" y1="1579.030" x2="46.325" y2="1529.030"/>
      <line x1="26.325" y1="1528.930" x2="26.325" y2="1525.229"/>
      <line x1="25.325" y1="1528.930" x2="25.325" y2="1525.229"/>
      <line x1="27.325" y1="1528.930" x2="27.325" y2="1525.229"/>
      <line x1="28.325" y1="1528.930" x2="28.325" y2="1525.229"/>
      <line x1="29.325" y1="1528.930" x2="29.325" y2="1525.229"/>
      <line x1="30.325" y1="1528.930" x2="30.325" y2="1525.229"/>
      <line x1="31.325" y1="1528.930" x2="31.325" y2="1525.229"/>
      <line x1="32.325" y1="1528.930" x2="32.325" y2="1525.229"/>
      <line x1="33.325" y1="1528.930" x2="33.325" y2="1525.229"/>
      <line x1="34.325" y1="1528.930" x2="34.325" y2="1525.229"/>
      <line x1="35.325" y1="1528.930" x2="35.325" y2="1525.229"/>
      <line x1="36.325" y1="1528.930" x2="36.325" y2="1525.229"/>
      <line x1="37.325" y1="1528.930" x2="37.325" y2="1525.229"/>
      <line x1="38.325" y1="1528.930" x2="38.325" y2="1525.229"/>
      <line x1="39.325" y1="1528.930" x2="39.325" y2="1525.229"/>
      <line x1="40.325" y1="1528.930" x2="40.325" y2="1525.229"/>
      <line x1="41.325" y1="1528.930" x2="41.325" y2="1525.229"/>
      <line x1="42.325" y1="1528.930" x2="42.325" y2="1525.229"/>
      <line x1="43.325" y1="1528.930" x2="43.325" y2="1525.229"/>
      <line x1="44.325" y1="1528.930" x2="44.325" y2="1525.229"/>
      <line x1="45.325" y1="1528.930" x2="45.325" y2="1525.229"/>
      <line x1="46.325" y1="1528.930" x2="46.325" y2="1525.229"/>
      <line x1="14.325" y1="1528.930" x2="14.325" y2="1525.229"/>
      <line x1="4.325" y1="1528.930" x2="4.325" y2="1525.229"/>
      <line x1="5.325" y1="1528.930" x2="5.325" y2="1525.229"/>
      <line x1="6.325" y1="1528.930" x2="6.325" y2="1525.229"/>
      <line x1="7.325" y1="1528.930" x2="7.325" y2="1525.229"/>
      <line x1="8.325" y1="1528.930" x2="8.325" y2="1525.229"/>
      <line x1="9.325" y1="1528.930" x2="9.325" y2="1525.229"/>
      <line x1="10.325" y1="1528.930" x2="10.325" y2="1525.229"/>
      <line x1="11.325" y1="1528.930" x2="11.325" y2="1525.229"/>
      <line x1="12.325" y1="1528.930" x2="12.325" y2="1525.229"/>
      <line x1="13.325" y1="1528.930" x2="13.325" y2="1525.229"/>
      <line x1="3.325" y1="1528.930" x2="3.325" y2="1525.229"/>
      <line x1="15.325" y1="1528.930" x2="15.325" y2="1525.229"/>
      <line x1="16.325" y1="1528.930" x2="16.325" y2="1525.229"/>
      <line x1="17.325" y1="1528.930" x2="17.325" y2="1525.229"/>
      <line x1="18.325" y1="1528.930" x2="18.325" y2="1525.229"/>
      <line x1="19.325" y1="1528.930" x2="19.325" y2="1525.229"/>
      <line x1="20.325" y1="1528.930" x2="20.325" y2="1525.229"/>
      <line x1="21.325" y1="1528.930" x2="21.325" y2="1525.229"/>
      <line x1="22.325" y1="1528.930" x2="22.325" y2="1525.229"/>
      <line x1="23.325" y1="1528.930" x2="23.325" y2="1525.229"/>
      <line x1="24.325" y1="1528.930" x2="24.325" y2="1525.229"/>
    </g>
    <g stroke="#1976D2" stroke-width="0.4">
      <polyline points="600.500,1521.729 549.500,1521.729 549.500,1682.729 600.500,1682.729 600.500,1521.729" fill="none"/>
      <polyline points="599.500,1522.729 550.500,1522.729 550.500,1681.730 599.500,1681.730 599.500,1522.729" fill="none"/>
      <polyline points="598.500,1523.729 551.500,1523.729 551.500,1680.730 598.500,1680.730 598.500,1523.729" fill="none"/>
      <polyline points="597.500,1524.729 552.500,1524.729 552.500,1679.729 597.500,1679.729 597.500,1524.729" fill="none"/>
      <polyline points="50.500,1521.729 -0.500,1521.729 -0.500,1682.729 50.500,1682.729 50.500,1521.729" fill="none"/>
      <polyline points="49.500,1522.729 0.500,1522.729 0.500,1681.730 49.500,1681.730 49.500,1522.729" fill="none"/>
      <polyline points="48.500,1523.729 1.500,1523.729 1.500,1680.730 48.500,1680.730 48.500,1523.729" fill="none"/>
      <polyline points="47.500,1524.729 2.500,1524.729 2.500,1679.729 47.500,1679.729 47.500,1524.729" fill="none"/>
    </g>
    <g stroke="#C62828" stroke-width="0.4" fill="none">
      <polygon points="293.946,1537.656 295.980,1536.933 297.743,1535.689 299.105,1534.014 299.965,1532.035 300.259,1529.896 299.965,1527.758 299.105,1525.778 297.743,1524.104 295.980,1522.859 293.946,1522.136 291.792,1521.989 289.679,1522.428 287.763,1523.421 286.185,1524.894 285.064,1526.738 284.481,1528.817 284.481,1530.975 285.064,1533.054 286.185,1534.898 287.763,1536.371 289.679,1537.364 291.792,1537.804"/>
      <polygon points="313.935,1537.604 315.955,1536.886 317.707,1535.650 319.060,1533.987 319.914,1532.020 320.206,1529.896 319.914,1527.772 319.060,1525.806 317.707,1524.143 315.955,1522.906 313.935,1522.188 311.796,1522.042 309.697,1522.478 307.793,1523.464 306.226,1524.928 305.112,1526.760 304.534,1528.824 304.534,1530.968 305.112,1533.033 306.226,1534.865 307.793,1536.328 309.697,1537.314 311.796,1537.750"/>
      <polygon points="273.913,1537.496 275.905,1536.788 277.632,1535.569 278.966,1533.929 279.808,1531.990 280.096,1529.896 279.808,1527.802 278.966,1525.863 277.632,1524.223 275.905,1523.004 273.913,1522.296 271.804,1522.152 269.734,1522.582 267.857,1523.554 266.312,1524.997 265.214,1526.804 264.643,1528.839 264.643,1530.953 265.214,1532.989 266.312,1534.795 267.857,1536.238 269.734,1537.210 271.804,1537.641"/>
      <polygon points="333.901,1537.440 335.878,1536.738 337.593,1535.528 338.917,1533.900 339.753,1531.975 340.039,1529.896 339.753,1527.817 338.917,1525.893 337.593,1524.265 335.878,1523.055 333.901,1522.352 331.808,1522.209 329.753,1522.636 327.890,1523.601 326.356,1525.033 325.266,1526.826 324.700,1528.847 324.700,1530.945 325.266,1532.966 326.356,1534.759 327.890,1536.191 329.753,1537.157 331.808,1537.584"/>
      <polygon points="353.877,1537.325 355.824,1536.633 357.512,1535.441 358.816,1533.838 359.639,1531.943 359.921,1529.896 359.639,1527.849 358.816,1525.954 357.512,1524.351 355.824,1523.160 353.877,1522.468 351.816,1522.327 349.793,1522.747 347.958,1523.698 346.448,1525.108 345.374,1526.873 344.817,1528.863 344.817,1530.929 345.374,1532.919 346.448,1534.684 347.958,1536.095 349.793,1537.045 351.816,1537.466"/>
      <polygon points="253.877,1537.325 255.824,1536.633 257.512,1535.441 258.816,1533.838 259.639,1531.943 259.921,1529.896 259.639,1527.849 258.816,1525.954 257.512,1524.351 255.824,1523.160 253.877,1522.468 251.816,1522.327 249.793,1522.747 247.958,1523.698 246.448,1525.108 245.374,1526.873 244.817,1528.863 244.817,1530.929 245.374,1532.919 246.448,1534.684 247.958,1536.095 249.793,1537.045 251.816,1537.466"/>
      <polygon points="235.434,1536.685 237.221,1535.537 238.612,1533.931 239.494,1531.999 239.797,1529.896 239.494,1527.793 238.612,1525.861 237.221,1524.256 235.434,1523.107 233.395,1522.509 231.271,1522.509 229.233,1523.107 227.446,1524.256 226.055,1525.861 225.172,1527.793 224.870,1529.896 225.172,1531.999 226.055,1533.931 227.446,1535.537 229.233,1536.685 231.271,1537.284 233.395,1537.284"/>
      <polygon points="375.407,1536.627 377.179,1535.488 378.558,1533.896 379.433,1531.981 379.733,1529.896 379.433,1527.812 378.558,1525.896 377.179,1524.304 375.407,1523.166 373.386,1522.572 371.280,1522.572 369.260,1523.166 367.488,1524.304 366.109,1525.896 365.234,1527.812 364.934,1529.896 365.234,1531.981 366.109,1533.896 367.488,1535.488 369.260,1536.627 371.280,1537.220 373.386,1537.220"/>
      <polygon points="215.352,1536.505 217.091,1535.387 218.446,1533.824 219.305,1531.943 219.599,1529.896 219.305,1527.849 218.446,1525.968 217.091,1524.405 215.352,1523.287 213.367,1522.704 211.299,1522.704 209.315,1523.287 207.575,1524.405 206.221,1525.968 205.362,1527.849 205.068,1529.896 205.362,1531.943 206.221,1533.824 207.575,1535.387 209.315,1536.505 211.299,1537.088 213.367,1537.088"/>
      <polygon points="395.323,1536.442 397.046,1535.335 398.387,1533.787 399.238,1531.924 399.530,1529.896 399.238,1527.869 398.387,1526.005 397.046,1524.457 395.323,1523.350 393.358,1522.773 391.309,1522.773 389.344,1523.350 387.621,1524.457 386.279,1526.005 385.428,1527.869 385.137,1529.896 385.428,1531.924 386.279,1533.787 387.621,1535.335 389.344,1536.442 391.309,1537.020 393.358,1537.020"/>
      <polygon points="415.263,1536.311 416.952,1535.226 418.266,1533.709 419.100,1531.883 419.386,1529.896 419.100,1527.909 418.266,1526.083 416.952,1524.566 415.263,1523.481 413.337,1522.915 411.330,1522.915 409.404,1523.481 407.715,1524.566 406.400,1526.083 405.566,1527.909 405.281,1529.896 405.566,1531.883 406.400,1533.709 407.715,1535.226 409.404,1536.311 411.330,1536.877 413.337,1536.877"/>
      <polygon points="195.263,1536.311 196.952,1535.226 198.266,1533.709 199.100,1531.883 199.386,1529.896 199.100,1527.909 198.266,1526.083 196.952,1524.566 195.263,1523.481 193.337,1522.915 191.330,1522.915 189.404,1523.481 187.715,1524.566 186.400,1526.083 185.566,1527.909 185.281,1529.896 185.566,1531.883 186.400,1533.709 187.715,1535.226 189.404,1536.311 191.330,1536.877 193.337,1536.877"/>
      <polygon points="174.855,1536.320 176.636,1535.292 178.035,1533.784 178.928,1531.930 179.234,1529.896 178.928,1527.862 178.035,1526.009 176.636,1524.501 174.855,1523.472 172.849,1523.015 170.798,1523.168 168.883,1523.920 167.275,1525.202 166.116,1526.902 165.510,1528.868 165.510,1530.925 166.116,1532.890 167.275,1534.590 168.883,1535.873 170.798,1536.624 172.849,1536.778"/>
      <polygon points="434.826,1536.247 436.587,1535.230 437.970,1533.739 438.852,1531.907 439.155,1529.896 438.852,1527.885 437.970,1526.053 436.587,1524.563 434.826,1523.546 432.843,1523.093 430.815,1523.245 428.922,1523.988 427.333,1525.256 426.187,1526.936 425.588,1528.879 425.588,1530.913 426.187,1532.856 427.333,1534.536 428.922,1535.804 430.815,1536.547 432.843,1536.699"/>
      <polygon points="154.337,1536.062 156.144,1535.141 157.578,1533.707 158.499,1531.900 158.816,1529.896 158.499,1527.893 157.578,1526.086 156.144,1524.651 154.337,1523.730 152.333,1523.413 150.330,1523.730 148.523,1524.651 147.088,1526.086 146.168,1527.893 145.850,1529.896 146.168,1531.900 147.088,1533.707 148.523,1535.141 150.330,1536.062 152.333,1536.379"/>
      <polygon points="454.280,1535.886 456.035,1534.992 457.429,1533.598 458.324,1531.842 458.632,1529.896 458.324,1527.950 457.429,1526.194 456.035,1524.801 454.280,1523.906 452.333,1523.598 450.387,1523.906 448.631,1524.801 447.238,1526.194 446.343,1527.950 446.035,1529.896 446.343,1531.842 447.238,1533.598 448.631,1534.992 450.387,1535.886 452.333,1536.195"/>
      <polygon points="133.753,1535.504 135.497,1534.739 136.898,1533.449 137.805,1531.775 138.118,1529.896 137.805,1528.018 136.898,1526.343 135.497,1525.053 133.753,1524.288 131.856,1524.131 130.010,1524.598 128.415,1525.640 127.246,1527.143 126.627,1528.944 126.627,1530.848 127.246,1532.649 128.415,1534.152 130.010,1535.194 131.856,1535.661"/>
      <polygon points="473.697,1535.282 475.372,1534.547 476.717,1533.308 477.588,1531.700 477.889,1529.896 477.588,1528.092 476.717,1526.484 475.372,1525.245 473.697,1524.511 471.875,1524.360 470.102,1524.809 468.571,1525.809 467.447,1527.252 466.854,1528.982 466.854,1530.811 467.447,1532.540 468.571,1533.984 470.102,1534.984 471.875,1535.433"/>
      <polygon points="114.522,1534.291 115.961,1533.203 116.911,1531.670 117.242,1529.896 116.911,1528.123 115.961,1526.589 114.522,1525.502 112.786,1525.008 110.990,1525.174 109.375,1525.979 108.160,1527.312 107.508,1528.994 107.508,1530.798 108.160,1532.480 109.375,1533.814 110.990,1534.618 112.786,1534.784"/>
      <polygon points="494.391,1534.029 495.745,1533.006 496.638,1531.564 496.950,1529.896 496.638,1528.229 495.745,1526.786 494.391,1525.764 492.759,1525.299 491.070,1525.456 489.551,1526.212 488.408,1527.466 487.796,1529.048 487.796,1530.744 488.408,1532.326 489.551,1533.580 491.070,1534.336 492.759,1534.493"/>
      <polygon points="93.501,1533.489 94.861,1532.704 95.785,1531.433 96.111,1529.896 95.785,1528.360 94.861,1527.089 93.501,1526.303 91.938,1526.139 90.444,1526.625 89.277,1527.676 88.638,1529.111 88.638,1530.682 89.277,1532.117 90.444,1533.168 91.938,1533.653"/>
      <polygon points="514.448,1532.548 515.389,1531.368 515.725,1529.896 515.389,1528.425 514.448,1527.245 513.088,1526.590 511.579,1526.590 510.219,1527.245 509.278,1528.425 508.942,1529.896 509.278,1531.368 510.219,1532.548 511.579,1533.202 513.088,1533.202"/>
      <polygon points="73.463,1531.854 74.291,1531.026 74.594,1529.896 74.291,1528.766 73.463,1527.939 72.333,1527.636 71.203,1527.939 70.376,1528.766 70.073,1529.896 70.376,1531.026 71.203,1531.854 72.333,1532.156"/>
      <polygon points="293.946,1557.656 295.980,1556.933 297.743,1555.689 299.105,1554.014 299.965,1552.035 300.259,1549.896 299.965,1547.758 299.105,1545.778 297.743,1544.104 295.980,1542.859 293.946,1542.136 291.792,1541.989 289.679,1542.428 287.763,1543.421 286.185,1544.894 285.064,1546.738 284.481,1548.817 284.481,1550.975 285.064,1553.054 286.185,1554.898 287.763,1556.371 289.679,1557.364 291.792,1557.804"/>
      <polygon points="313.935,1557.604 315.955,1556.886 317.707,1555.650 319.060,1553.987 319.914,1552.020 320.206,1549.896 319.914,1547.772 319.060,1545.806 317.707,1544.143 315.955,1542.906 313.935,1542.188 311.796,1542.042 309.697,1542.478 307.793,1543.464 306.226,1544.928 305.112,1546.760 304.534,1548.824 304.534,1550.968 305.112,1553.033 306.226,1554.865 307.793,1556.328 309.697,1557.314 311.796,1557.750"/>
      <polygon points="273.913,1557.496 275.905,1556.788 277.632,1555.569 278.966,1553.929 279.808,1551.990 280.096,1549.896 279.808,1547.802 278.966,1545.863 277.632,1544.223 275.905,1543.004 273.913,1542.296 271.804,1542.152 269.734,1542.582 267.857,1543.554 266.312,1544.997 265.214,1546.804 264.643,1548.839 264.643,1550.953 265.214,1552.989 266.312,1554.795 267.857,1556.238 269.734,1557.210 271.804,1557.641"/>
      <polygon points="333.901,1557.440 335.878,1556.738 337.593,1555.528 338.917,1553.900 339.753,1551.975 340.039,1549.896 339.753,1547.817 338.917,1545.893 337.593,1544.265 335.878,1543.055 333.901,1542.352 331.808,1542.209 329.753,1542.636 327.890,1543.601 326.356,1545.033 325.266,1546.826 324.700,1548.847 324.700,1550.945 325.266,1552.966 326.356,1554.759 327.890,1556.191 329.753,1557.157 331.808,1557.584"/>
      <polygon points="353.877,1557.325 355.824,1556.633 357.512,1555.441 358.816,1553.838 359.639,1551.943 359.921,1549.896 359.639,1547.849 358.816,1545.954 357.512,1544.351 355.824,1543.160 353.877,1542.468 351.816,1542.327 349.793,1542.747 347.958,1543.698 346.448,1545.108 345.374,1546.873 344.817,1548.863 344.817,1550.929 345.374,1552.919 346.448,1554.684 347.958,1556.095 349.793,1557.045 351.816,1557.466"/>
      <polygon points="253.877,1557.325 255.824,1556.633 257.512,1555.441 258.816,1553.838 259.639,1551.943 259.921,1549.896 259.639,1547.849 258.816,1545.954 257.512,1544.351 255.824,1543.160 253.877,1542.468 251.816,1542.327 249.793,1542.747 247.958,1543.698 246.448,1545.108 245.374,1546.873 244.817,1548.863 244.817,1550.929 245.374,1552.919 246.448,1554.684 247.958,1556.095 249.793,1557.045 251.816,1557.466"/>
      <polygon points="235.434,1556.685 237.221,1555.537 238.612,1553.931 239.494,1551.999 239.797,1549.896 239.494,1547.793 238.612,1545.861 237.221,1544.256 235.434,1543.107 233.395,1542.509 231.271,1542.509 229.233,1543.107 227.446,1544.256 226.055,1545.861 225.172,1547.793 224.870,1549.896 225.172,1551.999 226.055,1553.931 227.446,1555.537 229.233,1556.685 231.271,1557.284 233.395,1557.284"/>
      <polygon points="375.407,1556.627 377.179,1555.488 378.558,1553.896 379.433,1551.981 379.733,1549.896 379.433,1547.812 378.558,1545.896 377.179,1544.304 375.407,1543.166 373.386,1542.572 371.280,1542.572 369.260,1543.166 367.488,1544.304 366.109,1545.896 365.234,1547.812 364.934,1549.896 365.234,1551.981 366.109,1553.896 367.488,1555.488 369.260,1556.627 371.280,1557.220 373.386,1557.220"/>
      <polygon points="215.352,1556.505 217.091,1555.387 218.446,1553.824 219.305,1551.943 219.599,1549.896 219.305,1547.849 218.446,1545.968 217.091,1544.405 215.352,1543.287 213.367,1542.704 211.299,1542.704 209.315,1543.287 207.575,1544.405 206.221,1545.968 205.362,1547.849 205.068,1549.896 205.362,1551.943 206.221,1553.824 207.575,1555.387 209.315,1556.505 211.299,1557.088 213.367,1557.088"/>
      <polygon points="395.323,1556.442 397.046,1555.335 398.387,1553.787 399.238,1551.924 399.530,1549.896 399.238,1547.869 398.387,1546.005 397.046,1544.457 395.323,1543.350 393.358,1542.773 391.309,1542.773 389.344,1543.350 387.621,1544.457 386.279,1546.005 385.428,1547.869 385.137,1549.896 385.428,1551.924 386.279,1553.787 387.621,1555.335 389.344,1556.442 391.309,1557.020 393.358,1557.020"/>
      <polygon points="195.263,1556.311 196.952,1555.226 198.266,1553.709 199.100,1551.883 199.386,1549.896 199.100,1547.909 198.266,1546.083 196.952,1544.566 195.263,1543.481 193.337,1542.915 191.330,1542.915 189.404,1543.481 187.715,1544.566 186.400,1546.083 185.566,1547.909 185.281,1549.896 185.566,1551.883 186.400,1553.709 187.715,1555.226 189.404,1556.311 191.330,1556.877 193.337,1556.877"/>
      <polygon points="415.263,1556.311 416.952,1555.226 418.266,1553.709 419.100,1551.883 419.386,1549.896 419.100,1547.909 418.266,1546.083 416.952,1544.566 415.263,1543.481 413.337,1542.915 411.330,1542.915 409.404,1543.481 407.715,1544.566 406.400,1546.083 405.566,1547.909 405.281,1549.896 405.566,1551.883 406.400,1553.709 407.715,1555.226 409.404,1556.311 411.330,1556.877 413.337,1556.877"/>
      <polygon points="174.855,1556.320 176.636,1555.292 178.035,1553.784 178.928,1551.930 179.234,1549.896 178.928,1547.862 178.035,1546.009 176.636,1544.501 174.855,1543.472 172.849,1543.015 170.798,1543.168 168.883,1543.920 167.275,1545.202 166.116,1546.902 165.510,1548.868 165.510,1550.925 166.116,1552.890 167.275,1554.590 168.883,1555.873 170.798,1556.624 172.849,1556.778"/>
      <polygon points="434.826,1556.247 436.587,1555.230 437.970,1553.739 438.852,1551.907 439.155,1549.896 438.852,1547.885 437.970,1546.053 436.587,1544.563 434.826,1543.546 432.843,1543.093 430.815,1543.245 428.922,1543.988 427.333,1545.256 426.187,1546.936 425.588,1548.879 425.588,1550.913 426.187,1552.856 427.333,1554.536 428.922,1555.804 430.815,1556.547 432.843,1556.699"/>
      <polygon points="154.337,1556.062 156.144,1555.141 157.578,1553.707 158.499,1551.900 158.816,1549.896 158.499,1547.893 157.578,1546.086 156.144,1544.651 154.337,1543.730 152.333,1543.413 150.330,1543.730 148.523,1544.651 147.088,1546.086 146.168,1547.893 145.850,1549.896 146.168,1551.900 147.088,1553.707 148.523,1555.141 150.330,1556.062 152.333,1556.379"/>
      <polygon points="454.280,1555.886 456.035,1554.992 457.429,1553.598 458.324,1551.842 458.632,1549.896 458.324,1547.950 457.429,1546.194 456.035,1544.801 454.280,1543.906 452.333,1543.598 450.387,1543.906 448.631,1544.801 447.238,1546.194 446.343,1547.950 446.035,1549.896 446.343,1551.842 447.238,1553.598 448.631,1554.992 450.387,1555.886 452.333,1556.195"/>
      <polygon points="133.753,1555.504 135.497,1554.739 136.898,1553.449 137.805,1551.775 138.118,1549.896 137.805,1548.018 136.898,1546.343 135.497,1545.053 133.753,1544.288 131.856,1544.131 130.010,1544.598 128.415,1545.640 127.246,1547.143 126.627,1548.944 126.627,1550.848 127.246,1552.649 128.415,1554.152 130.010,1555.194 131.856,1555.661"/>
      <polygon points="473.697,1555.282 475.372,1554.547 476.717,1553.308 477.588,1551.700 477.889,1549.896 477.588,1548.092 476.717,1546.484 475.372,1545.245 473.697,1544.511 471.875,1544.360 470.102,1544.809 468.571,1545.809 467.447,1547.252 466.854,1548.982 466.854,1550.811 467.447,1552.540 468.571,1553.984 470.102,1554.984 471.875,1555.433"/>
      <polygon points="114.522,1554.291 115.961,1553.203 116.911,1551.670 117.242,1549.896 116.911,1548.123 115.961,1546.589 114.522,1545.502 112.786,1545.008 110.990,1545.174 109.375,1545.979 108.160,1547.312 107.508,1548.994 107.508,1550.798 108.160,1552.480 109.375,1553.814 110.990,1554.618 112.786,1554.784"/>
      <polygon points="494.391,1554.029 495.745,1553.006 496.638,1551.564 496.950,1549.896 496.638,1548.229 495.745,1546.786 494.391,1545.764 492.759,1545.299 491.070,1545.456 489.551,1546.212 488.408,1547.466 487.796,1549.048 487.796,1550.744 488.408,1552.326 489.551,1553.580 491.070,1554.336 492.759,1554.493"/>
      <polygon points="93.501,1553.489 94.861,1552.704 95.785,1551.433 96.111,1549.896 95.785,1548.360 94.861,1547.089 93.501,1546.303 91.938,1546.139 90.444,1546.625 89.277,1547.676 88.638,1549.111 88.638,1550.682 89.277,1552.117 90.444,1553.168 91.938,1553.653"/>
      <polygon points="514.448,1552.548 515.389,1551.368 515.725,1549.896 515.389,1548.425 514.448,1547.245 513.088,1546.590 511.579,1546.590 510.219,1547.245 509.278,1548.425 508.942,1549.896 509.278,1551.368 510.219,1552.548 511.579,1553.202 513.088,1553.202"/>
      <polygon points="73.463,1551.854 74.291,1551.026 74.594,1549.896 74.291,1548.766 73.463,1547.939 72.333,1547.636 71.203,1547.939 70.376,1548.766 70.073,1549.896 70.376,1551.026 71.203,1551.854 72.333,1552.156"/>
      <polygon points="293.946,1577.656 295.980,1576.933 297.743,1575.689 299.105,1574.014 299.965,1572.035 300.259,1569.896 299.965,1567.758 299.105,1565.778 297.743,1564.104 295.980,1562.859 293.946,1562.136 291.792,1561.989 289.679,1562.428 287.763,1563.421 286.185,1564.894 285.064,1566.738 284.481,1568.817 284.481,1570.975 285.064,1573.054 286.185,1574.898 287.763,1576.371 289.679,1577.364 291.792,1577.804"/>
      <polygon points="313.935,1577.604 315.955,1576.886 317.707,1575.650 319.060,1573.987 319.914,1572.020 320.206,1569.896 319.914,1567.772 319.060,1565.806 317.707,1564.143 315.955,1562.906 313.935,1562.188 311.796,1562.042 309.697,1562.478 307.793,1563.464 306.226,1564.928 305.112,1566.760 304.534,1568.824 304.534,1570.968 305.112,1573.033 306.226,1574.865 307.793,1576.328 309.697,1577.314 311.796,1577.750"/>
      <polygon points="273.913,1577.496 275.905,1576.788 277.632,1575.569 278.966,1573.929 279.808,1571.990 280.096,1569.896 279.808,1567.802 278.966,1565.863 277.632,1564.223 275.905,1563.004 273.913,1562.296 271.804,1562.152 269.734,1562.582 267.857,1563.554 266.312,1564.997 265.214,1566.804 264.643,1568.839 264.643,1570.953 265.214,1572.989 266.312,1574.795 267.857,1576.238 269.734,1577.210 271.804,1577.641"/>
      <polygon points="333.901,1577.440 335.878,1576.738 337.593,1575.528 338.917,1573.900 339.753,1571.975 340.039,1569.896 339.753,1567.817 338.917,1565.893 337.593,1564.265 335.878,1563.055 333.901,1562.352 331.808,1562.209 329.753,1562.636 327.890,1563.601 326.356,1565.033 325.266,1566.826 324.700,1568.847 324.700,1570.945 325.266,1572.966 326.356,1574.759 327.890,1576.191 329.753,1577.157 331.808,1577.584"/>
      <polygon points="353.877,1577.325 355.824,1576.633 357.512,1575.441 358.816,1573.838 359.639,1571.943 359.921,1569.896 359.639,1567.849 358.816,1565.954 357.512,1564.351 355.824,1563.160 353.877,1562.468 351.816,1562.327 349.793,1562.747 347.958,1563.698 346.448,1565.108 345.374,1566.873 344.817,1568.863 344.817,1570.929 345.374,1572.919 346.448,1574.684 347.958,1576.095 349.793,1577.045 351.816,1577.466"/>
      <polygon points="253.877,1577.325 255.824,1576.633 257.512,1575.441 258.816,1573.838 259.639,1571.943 259.921,1569.896 259.639,1567.849 258.816,1565.954 257.512,1564.351 255.824,1563.160 253.877,1562.468 251.816,1562.327 249.793,1562.747 247.958,1563.698 246.448,1565.108 245.374,1566.873 244.817,1568.863 244.817,1570.929 245.374,1572.919 246.448,1574.684 247.958,1576.095 249.793,1577.045 251.816,1577.466"/>
      <polygon points="235.434,1576.685 237.221,1575.537 238.612,1573.931 239.494,1571.999 239.797,1569.896 239.494,1567.793 238.612,1565.861 237.221,1564.256 235.434,1563.107 233.395,1562.509 231.271,1562.509 229.233,1563.107 227.446,1564.256 226.055,1565.861 225.172,1567.793 224.870,1569.896 225.172,1571.999 226.055,1573.931 227.446,1575.537 229.233,1576.685 231.271,1577.284 233.395,1577.284"/>
      <polygon points="375.407,1576.627 377.179,1575.488 378.558,1573.896 379.433,1571.981 379.733,1569.896 379.433,1567.812 378.558,1565.896 377.179,1564.304 375.407,1563.166 373.386,1562.572 371.280,1562.572 369.260,1563.166 367.488,1564.304 366.109,1565.896 365.234,1567.812 364.934,1569.896 365.234,1571.981 366.109,1573.896 367.488,1575.488 369.260,1576.627 371.280,1577.220 373.386,1577.220"/>
      <polygon points="215.352,1576.505 217.091,1575.387 218.446,1573.824 219.305,1571.943 219.599,1569.896 219.305,1567.849 218.446,1565.968 217.091,1564.405 215.352,1563.287 213.367,1562.704 211.299,1562.704 209.315,1563.287 207.575,1564.405 206.221,1565.968 205.362,1567.849 205.068,1569.896 205.362,1571.943 206.221,1573.824 207.575,1575.387 209.315,1576.505 211.299,1577.088 213.367,1577.088"/>
      <polygon points="395.323,1576.442 397.046,1575.335 398.387,1573.787 399.238,1571.924 399.530,1569.896 399.238,1567.869 398.387,1566.005 397.046,1564.457 395.323,1563.350 393.358,1562.773 391.309,1562.773 389.344,1563.350 387.621,1564.457 386.279,1566.005 385.428,1567.869 385.137,1569.896 385.428,1571.924 386.279,1573.787 387.621,1575.335 389.344,1576.442 391.309,1577.020 393.358,1577.020"/>
      <polygon points="415.263,1576.311 416.952,1575.226 418.266,1573.709 419.100,1571.883 419.386,1569.896 419.100,1567.909 418.266,1566.083 416.952,1564.566 415.263,1563.481 413.337,1562.915 411.330,1562.915 409.404,1563.481 407.715,1564.566 406.400,1566.083 405.566,1567.909 405.281,1569.896 405.566,1571.883 406.400,1573.709 407.715,1575.226 409.404,1576.311 411.330,1576.877 413.337,1576.877"/>
      <polygon points="195.263,1576.311 196.952,1575.226 198.266,1573.709 199.100,1571.883 199.386,1569.896 199.100,1567.909 198.266,1566.083 196.952,1564.566 195.263,1563.481 193.337,1562.915 191.330,1562.915 189.404,1563.481 187.715,1564.566 186.400,1566.083 185.566,1567.909 185.281,1569.896 185.566,1571.883 186.400,1573.709 187.715,1575.226 189.404,1576.311 191.330,1576.877 193.337,1576.877"/>
      <polygon points="174.855,1576.320 176.636,1575.292 178.035,1573.784 178.928,1571.930 179.234,1569.896 178.928,1567.862 178.035,1566.009 176.636,1564.501 174.855,1563.472 172.849,1563.015 170.798,1563.168 168.883,1563.920 167.275,1565.202 166.116,1566.902 165.510,1568.868 165.510,1570.925 166.116,1572.890 167.275,1574.590 168.883,1575.873 170.798,1576.624 172.849,1576.778"/>
      <polygon points="434.826,1576.247 436.587,1575.230 437.970,1573.739 438.852,1571.907 439.155,1569.896 438.852,1567.885 437.970,1566.053 436.587,1564.563 434.826,1563.546 432.843,1563.093 430.815,1563.245 428.922,1563.988 427.333,1565.256 426.187,1566.936 425.588,1568.879 425.588,1570.913 426.187,1572.856 427.333,1574.536 428.922,1575.804 430.815,1576.547 432.843,1576.699"/>
      <polygon points="154.337,1576.062 156.144,1575.141 157.578,1573.707 158.499,1571.900 158.816,1569.896 158.499,1567.893 157.578,1566.086 156.144,1564.651 154.337,1563.730 152.333,1563.413 150.330,1563.730 148.523,1564.651 147.088,1566.086 146.168,1567.893 145.850,1569.896 146.168,1571.900 147.088,1573.707 148.523,1575.141 150.330,1576.062 152.333,1576.379"/>
      <polygon points="454.280,1575.886 456.035,1574.992 457.429,1573.598 458.324,1571.842 458.632,1569.896 458.324,1567.950 457.429,1566.194 456.035,1564.801 454.280,1563.906 452.333,1563.598 450.387,1563.906 448.631,1564.801 447.238,1566.194 446.343,1567.950 446.035,1569.896 446.343,1571.842 447.238,1573.598 448.631,1574.992 450.387,1575.886 452.333,1576.195"/>
      <polygon points="133.753,1575.504 135.497,1574.739 136.898,1573.449 137.805,1571.775 138.118,1569.896 137.805,1568.018 136.898,1566.343 135.497,1565.053 133.753,1564.288 131.856,1564.131 130.010,1564.598 128.415,1565.640 127.246,1567.143 126.627,1568.944 126.627,1570.848 127.246,1572.649 128.415,1574.152 130.010,1575.194 131.856,1575.661"/>
      <polygon points="473.697,1575.282 475.372,1574.547 476.717,1573.308 477.588,1571.700 477.889,1569.896 477.588,1568.092 476.717,1566.484 475.372,1565.245 473.697,1564.511 471.875,1564.360 470.102,1564.809 468.571,1565.809 467.447,1567.252 466.854,1568.982 466.854,1570.811 467.447,1572.540 468.571,1573.984 470.102,1574.984 471.875,1575.433"/>
      <polygon points="114.522,1574.291 115.961,1573.203 116.911,1571.670 117.242,1569.896 116.911,1568.123 115.961,1566.589 114.522,1565.502 112.786,1565.008 110.990,1565.174 109.375,1565.979 108.160,1567.312 107.508,1568.994 107.508,1570.798 108.160,1572.480 109.375,1573.814 110.990,1574.618 112.786,1574.784"/>
      <polygon points="494.391,1574.029 495.745,1573.006 496.638,1571.564 496.950,1569.896 496.638,1568.229 495.745,1566.786 494.391,1565.764 492.759,1565.299 491.070,1565.456 489.551,1566.212 488.408,1567.466 487.796,1569.048 487.796,1570.744 488.408,1572.326 489.551,1573.580 491.070,1574.336 492.759,1574.493"/>
      <polygon points="93.501,1573.489 94.861,1572.704 95.785,1571.433 96.111,1569.896 95.785,1568.360 94.861,1567.089 93.501,1566.303 91.938,1566.139 90.444,1566.625 89.277,1567.676 88.638,1569.111 88.638,1570.682 89.277,1572.117 90.444,1573.168 91.938,1573.653"/>
      <polygon points="514.448,1572.548 515.389,1571.368 515.725,1569.896 515.389,1568.425 514.448,1567.245 513.088,1566.590 511.579,1566.590 510.219,1567.245 509.278,1568.425 508.942,1569.896 509.278,1571.368 510.219,1572.548 511.579,1573.202 513.088,1573.202"/>
      <polygon points="73.463,1571.854 74.291,1571.026 74.594,1569.896 74.291,1568.766 73.463,1567.939 72.333,1567.636 71.203,1567.939 70.376,1568.766 70.073,1569.896 70.376,1571.026 71.203,1571.854 72.333,1572.156"/>
      <polygon points="293.946,1597.656 295.980,1596.933 297.743,1595.689 299.105,1594.014 299.965,1592.035 300.259,1589.896 299.965,1587.758 299.105,1585.778 297.743,1584.104 295.980,1582.859 293.946,1582.136 291.792,1581.989 289.679,1582.428 287.763,1583.421 286.185,1584.894 285.064,1586.738 284.481,1588.817 284.481,1590.975 285.064,1593.054 286.185,1594.898 287.763,1596.371 289.679,1597.364 291.792,1597.804"/>
      <polygon points="313.935,1597.604 315.955,1596.886 317.707,1595.650 319.060,1593.987 319.914,1592.020 320.206,1589.896 319.914,1587.772 319.060,1585.806 317.707,1584.143 315.955,1582.906 313.935,1582.188 311.796,1582.042 309.697,1582.478 307.793,1583.464 306.226,1584.928 305.112,1586.760 304.534,1588.824 304.534,1590.968 305.112,1593.033 306.226,1594.865 307.793,1596.328 309.697,1597.314 311.796,1597.750"/>
      <polygon points="273.913,1597.496 275.905,1596.788 277.632,1595.569 278.966,1593.929 279.808,1591.990 280.096,1589.896 279.808,1587.802 278.966,1585.863 277.632,1584.223 275.905,1583.004 273.913,1582.296 271.804,1582.152 269.734,1582.582 267.857,1583.554 266.312,1584.997 265.214,1586.804 264.643,1588.839 264.643,1590.953 265.214,1592.989 266.312,1594.795 267.857,1596.238 269.734,1597.210 271.804,1597.641"/>
      <polygon points="333.901,1597.440 335.878,1596.738 337.593,1595.528 338.917,1593.900 339.753,1591.975 340.039,1589.896 339.753,1587.817 338.917,1585.893 337.593,1584.265 335.878,1583.055 333.901,1582.352 331.808,1582.209 329.753,1582.636 327.890,1583.601 326.356,1585.033 325.266,1586.826 324.700,1588.847 324.700,1590.945 325.266,1592.966 326.356,1594.759 327.890,1596.191 329.753,1597.157 331.808,1597.584"/>
      <polygon points="253.877,1597.325 255.824,1596.633 257.512,1595.441 258.816,1593.838 259.639,1591.943 259.921,1589.896 259.639,1587.849 258.816,1585.954 257.512,1584.351 255.824,1583.160 253.877,1582.468 251.816,1582.327 249.793,1582.747 247.958,1583.698 246.448,1585.108 245.374,1586.873 244.817,1588.863 244.817,1590.929 245.374,1592.919 246.448,1594.684 247.958,1596.095 249.793,1597.045 251.816,1597.466"/>
      <polygon points="353.877,1597.325 355.824,1596.633 357.512,1595.441 358.816,1593.838 359.639,1591.943 359.921,1589.896 359.639,1587.849 358.816,1585.954 357.512,1584.351 355.824,1583.160 353.877,1582.468 351.816,1582.327 349.793,1582.747 347.958,1583.698 346.448,1585.108 345.374,1586.873 344.817,1588.863 344.817,1590.929 345.374,1592.919 346.448,1594.684 347.958,1596.095 349.793,1597.045 351.816,1597.466"/>
      <polygon points="235.434,1596.685 237.221,1595.537 238.612,1593.931 239.494,1591.999 239.797,1589.896 239.494,1587.793 238.612,1585.861 237.221,1584.256 235.434,1583.107 233.395,1582.509 231.271,1582.509 229.233,1583.107 227.446,1584.256 226.055,1585.861 225.172,1587.793 224.870,1589.896 225.172,1591.999 226.055,1593.931 227.446,1595.537 229.233,1596.685 231.271,1597.284 233.395,1597.284"/>
      <polygon points="375.407,1596.627 377.179,1595.488 378.558,1593.896 379.433,1591.981 379.733,1589.896 379.433,1587.812 378.558,1585.896 377.179,1584.304 375.407,1583.166 373.386,1582.572 371.280,1582.572 369.260,1583.166 367.488,1584.304 366.109,1585.896 365.234,1587.812 364.934,1589.896 365.234,1591.981 366.109,1593.896 367.488,1595.488 369.260,1596.627 371.280,1597.220 373.386,1597.220"/>
      <polygon points="215.352,1596.505 217.091,1595.387 218.446,1593.824 219.305,1591.943 219.599,1589.896 219.305,1587.849 218.446,1585.968 217.091,1584.405 215.352,1583.287 213.367,1582.704 211.299,1582.704 209.315,1583.287 207.575,1584.405 206.221,1585.968 205.362,1587.849 205.068,1589.896 205.362,1591.943 206.221,1593.824 207.575,1595.387 209.315,1596.505 211.299,1597.088 213.367,1597.088"/>
      <polygon points="395.323,1596.442 397.046,1595.335 398.387,1593.787 399.238,1591.924 399.530,1589.896 399.238,1587.869 398.387,1586.005 397.046,1584.457 395.323,1583.350 393.358,1582.773 391.309,1582.773 389.344,1583.350 387.621,1584.457 386.279,1586.005 385.428,1587.869 385.137,1589.896 385.428,1591.924 386.279,1593.787 387.621,1595.335 389.344,1596.442 391.309,1597.020 393.358,1597.020"/>
      <polygon points="415.263,1596.311 416.952,1595.226 418.266,1593.709 419.100,1591.883 419.386,1589.896 419.100,1587.909 418.266,1586.083 416.952,1584.566 415.263,1583.481 413.337,1582.915 411.330,1582.915 409.404,1583.481 407.715,1584.566 406.400,1586.083 405.566,1587.909 405.281,1589.896 405.566,1591.883 406.400,1593.709 407.715,1595.226 409.404,1596.311 411.330,1596.877 413.337,1596.877"/>
      <polygon points="195.263,1596.311 196.952,1595.226 198.266,1593.709 199.100,1591.883 199.386,1589.896 199.100,1587.909 198.266,1586.083 196.952,1584.566 195.263,1583.481 193.337,1582.915 191.330,1582.915 189.404,1583.481 187.715,1584.566 186.400,1586.083 185.566,1587.909 185.281,1589.896 185.566,1591.883 186.400,1593.709 187.715,1595.226 189.404,1596.311 191.330,1596.877 193.337,1596.877"/>
      <polygon points="174.855,1596.320 176.636,1595.292 178.035,1593.784 178.928,1591.930 179.234,1589.896 178.928,1587.862 178.035,1586.009 176.636,1584.501 174.855,1583.472 172.849,1583.015 170.798,1583.168 168.883,1583.920 167.275,1585.202 166.116,1586.902 165.510,1588.868 165.510,1590.925 166.116,1592.890 167.275,1594.590 168.883,1595.873 170.798,1596.624 172.849,1596.778"/>
      <polygon points="434.826,1596.247 436.587,1595.230 437.970,1593.739 438.852,1591.907 439.155,1589.896 438.852,1587.885 437.970,1586.053 436.587,1584.563 434.826,1583.546 432.843,1583.093 430.815,1583.245 428.922,1583.988 427.333,1585.256 426.187,1586.936 425.588,1588.879 425.588,1590.913 426.187,1592.856 427.333,1594.536 428.922,1595.804 430.815,1596.547 432.843,1596.699"/>
      <polygon points="154.337,1596.062 156.144,1595.141 157.578,1593.707 158.499,1591.900 158.816,1589.896 158.499,1587.893 157.578,1586.086 156.144,1584.651 154.337,1583.730 152.333,1583.413 150.330,1583.730 148.523,1584.651 147.088,1586.086 146.168,1587.893 145.850,1589.896 146.168,1591.900 147.088,1593.707 148.523,1595.141 150.330,1596.062 152.333,1596.379"/>
      <polygon points="454.280,1595.886 456.035,1594.992 457.429,1593.598 458.324,1591.842 458.632,1589.896 458.324,1587.950 457.429,1586.194 456.035,1584.801 454.280,1583.906 452.333,1583.598 450.387,1583.906 448.631,1584.801 447.238,1586.194 446.343,1587.950 446.035,1589.896 446.343,1591.842 447.238,1593.598 448.631,1594.992 450.387,1595.886 452.333,1596.195"/>
      <polygon points="133.753,1595.504 135.497,1594.739 136.898,1593.449 137.805,1591.775 138.118,1589.896 137.805,1588.018 136.898,1586.343 135.497,1585.053 133.753,1584.288 131.856,1584.131 130.010,1584.598 128.415,1585.640 127.246,1587.143 126.627,1588.944 126.627,1590.848 127.246,1592.649 128.415,1594.152 130.010,1595.194 131.856,1595.661"/>
      <polygon points="473.697,1595.282 475.372,1594.547 476.717,1593.308 477.588,1591.700 477.889,1589.896 477.588,1588.092 476.717,1586.484 475.372,1585.245 473.697,1584.511 471.875,1584.360 470.102,1584.809 468.571,1585.809 467.447,1587.252 466.854,1588.982 466.854,1590.811 467.447,1592.540 468.571,1593.984 470.102,1594.984 471.875,1595.433"/>
      <polygon points="114.522,1594.291 115.961,1593.203 116.911,1591.670 117.242,1589.896 116.911,1588.123 115.961,1586.589 114.522,1585.502 112.786,1585.008 110.990,1585.174 109.375,1585.979 108.160,1587.312 107.508,1588.994 107.508,1590.798 108.160,1592.480 109.375,1593.814 110.990,1594.618 112.786,1594.784"/>
      <polygon points="494.391,1594.029 495.745,1593.006 496.638,1591.564 496.950,1589.896 496.638,1588.229 495.745,1586.786 494.391,1585.764 492.759,1585.299 491.070,1585.456 489.551,1586.212 488.408,1587.466 487.796,1589.048 487.796,1590.744 488.408,1592.326 489.551,1593.580 491.070,1594.336 492.759,1594.493"/>
      <polygon points="93.501,1593.489 94.861,1592.704 95.785,1591.433 96.111,1589.896 95.785,1588.360 94.861,1587.089 93.501,1586.303 91.938,1586.139 90.444,1586.625 89.277,1587.676 88.638,1589.111 88.638,1590.682 89.277,1592.117 90.444,1593.168 91.938,1593.653"/>
      <polygon points="514.448,1592.548 515.389,1591.368 515.725,1589.896 515.389,1588.425 514.448,1587.245 513.088,1586.590 511.579,1586.590 510.219,1587.245 509.278,1588.425 508.942,1589.896 509.278,1591.368 510.219,1592.548 511.579,1593.202 513.088,1593.202"/>
      <polygon points="73.463,1591.854 74.291,1591.026 74.594,1589.896 74.291,1588.766 73.463,1587.939 72.333,1587.636 71.203,1587.939 70.376,1588.766 70.073,1589.896 70.376,1591.026 71.203,1591.854 72.333,1592.156"/>
      <polygon points="293.946,1617.656 295.980,1616.933 297.743,1615.689 299.105,1614.014 299.965,1612.035 300.259,1609.896 299.965,1607.758 299.105,1605.778 297.743,1604.104 295.980,1602.859 293.946,1602.136 291.792,1601.989 289.679,1602.428 287.763,1603.421 286.185,1604.894 285.064,1606.738 284.481,1608.817 284.481,1610.975 285.064,1613.054 286.185,1614.898 287.763,1616.371 289.679,1617.364 291.792,1617.804"/>
      <polygon points="313.935,1617.604 315.955,1616.886 317.707,1615.650 319.060,1613.987 319.914,1612.020 320.206,1609.896 319.914,1607.772 319.060,1605.806 317.707,1604.143 315.955,1602.906 313.935,1602.188 311.796,1602.042 309.697,1602.478 307.793,1603.464 306.226,1604.928 305.112,1606.760 304.534,1608.824 304.534,1610.968 305.112,1613.033 306.226,1614.865 307.793,1616.328 309.697,1617.314 311.796,1617.750"/>
      <polygon points="273.913,1617.496 275.905,1616.788 277.632,1615.569 278.966,1613.929 279.808,1611.990 280.096,1609.896 279.808,1607.802 278.966,1605.863 277.632,1604.223 275.905,1603.004 273.913,1602.296 271.804,1602.152 269.734,1602.582 267.857,1603.554 266.312,1604.997 265.214,1606.804 264.643,1608.839 264.643,1610.953 265.214,1612.989 266.312,1614.795 267.857,1616.238 269.734,1617.210 271.804,1617.641"/>
      <polygon points="333.901,1617.440 335.878,1616.738 337.593,1615.528 338.917,1613.900 339.753,1611.975 340.039,1609.896 339.753,1607.817 338.917,1605.893 337.593,1604.265 335.878,1603.055 333.901,1602.352 331.808,1602.209 329.753,1602.636 327.890,1603.601 326.356,1605.033 325.266,1606.826 324.700,1608.847 324.700,1610.945 325.266,1612.966 326.356,1614.759 327.890,1616.191 329.753,1617.157 331.808,1617.584"/>
      <polygon points="253.877,1617.325 255.824,1616.633 257.512,1615.441 258.816,1613.838 259.639,1611.943 259.921,1609.896 259.639,1607.849 258.816,1605.954 257.512,1604.351 255.824,1603.160 253.877,1602.468 251.816,1602.327 249.793,1602.747 247.958,1603.698 246.448,1605.108 245.374,1606.873 244.817,1608.863 244.817,1610.929 245.374,1612.919 246.448,1614.684 247.958,1616.095 249.793,1617.045 251.816,1617.466"/>
      <polygon points="353.877,1617.325 355.824,1616.633 357.512,1615.441 358.816,1613.838 359.639,1611.943 359.921,1609.896 359.639,1607.849 358.816,1605.954 357.512,1604.351 355.824,1603.160 353.877,1602.468 351.816,1602.327 349.793,1602.747 347.958,1603.698 346.448,1605.108 345.374,1606.873 344.817,1608.863 344.817,1610.929 345.374,1612.919 346.448,1614.684 347.958,1616.095 349.793,1617.045 351.816,1617.466"/>
      <polygon points="235.434,1616.685 237.221,1615.537 238.612,1613.931 239.494,1611.999 239.797,1609.896 239.494,1607.793 238.612,1605.861 237.221,1604.256 235.434,1603.107 233.395,1602.509 231.271,1602.509 229.233,1603.107 227.446,1604.256 226.055,1605.861 225.172,1607.793 224.870,1609.896 225.172,1611.999 226.055,1613.931 227.446,1615.537 229.233,1616.685 231.271,1617.284 233.395,1617.284"/>
      <polygon points="375.407,1616.627 377.179,1615.488 378.558,1613.896 379.433,1611.981 379.733,1609.896 379.433,1607.812 378.558,1605.896 377.179,1604.304 375.407,1603.166 373.386,1602.572 371.280,1602.572 369.260,1603.166 367.488,1604.304 366.109,1605.896 365.234,1607.812 364.934,1609.896 365.234,1611.981 366.109,1613.896 367.488,1615.488 369.260,1616.627 371.280,1617.220 373.386,1617.220"/>
      <polygon points="215.352,1616.505 217.091,1615.387 218.446,1613.824 219.305,1611.943 219.599,1609.896 219.305,1607.849 218.446,1605.968 217.091,1604.405 215.352,1603.287 213.367,1602.704 211.299,1602.704 209.315,1603.287 207.575,1604.405 206.221,1605.968 205.362,1607.849 205.068,1609.896 205.362,1611.943 206.221,1613.824 207.575,1615.387 209.315,1616.505 211.299,1617.088 213.367,1617.088"/>
      <polygon points="395.323,1616.442 397.046,1615.335 398.387,1613.787 399.238,1611.924 399.530,1609.896 399.238,1607.869 398.387,1606.005 397.046,1604.457 395.323,1603.350 393.358,1602.773 391.309,1602.773 389.344,1603.350 387.621,1604.457 386.279,1606.005 385.428,1607.869 385.137,1609.896 385.428,1611.924 386.279,1613.787 387.621,1615.335 389.344,1616.442 391.309,1617.020 393.358,1617.020"/>
      <polygon points="415.263,1616.311 416.952,1615.226 418.266,1613.709 419.100,1611.883 419.386,1609.896 419.100,1607.909 418.266,1606.083 416.952,1604.566 415.263,1603.481 413.337,1602.915 411.330,1602.915 409.404,1603.481 407.715,1604.566 406.400,1606.083 405.566,1607.909 405.281,1609.896 405.566,1611.883 406.400,1613.709 407.715,1615.226 409.404,1616.311 411.330,1616.877 413.337,1616.877"/>
      <polygon points="195.263,1616.311 196.952,1615.226 198.266,1613.709 199.100,1611.883 199.386,1609.896 199.100,1607.909 198.266,1606.083 196.952,1604.566 195.263,1603.481 193.337,1602.915 191.330,1602.915 189.404,1603.481 187.715,1604.566 186.400,1606.083 185.566,1607.909 185.281,1609.896 185.566,1611.883 186.400,1613.709 187.715,1615.226 189.404,1616.311 191.330,1616.877 193.337,1616.877"/>
      <polygon points="174.855,1616.320 176.636,1615.292 178.035,1613.784 178.928,1611.930 179.234,1609.896 178.928,1607.862 178.035,1606.009 176.636,1604.501 174.855,1603.472 172.849,1603.015 170.798,1603.168 168.883,1603.920 167.275,1605.202 166.116,1606.902 165.510,1608.868 165.510,1610.925 166.116,1612.890 167.275,1614.590 168.883,1615.873 170.798,1616.624 172.849,1616.778"/>
      <polygon points="434.826,1616.247 436.587,1615.230 437.970,1613.739 438.852,1611.907 439.155,1609.896 438.852,1607.885 437.970,1606.053 436.587,1604.563 434.826,1603.546 432.843,1603.093 430.815,1603.245 428.922,1603.988 427.333,1605.256 426.187,1606.936 425.588,1608.879 425.588,1610.913 426.187,1612.856 427.333,1614.536 428.922,1615.804 430.815,1616.547 432.843,1616.699"/>
      <polygon points="154.337,1616.062 156.144,1615.141 157.578,1613.707 158.499,1611.900 158.816,1609.896 158.499,1607.893 157.578,1606.086 156.144,1604.651 154.337,1603.730 152.333,1603.413 150.330,1603.730 148.523,1604.651 147.088,1606.086 146.168,1607.893 145.850,1609.896 146.168,1611.900 147.088,1613.707 148.523,1615.141 150.330,1616.062 152.333,1616.379"/>
      <polygon points="454.280,1615.886 456.035,1614.992 457.429,1613.598 458.324,1611.842 458.632,1609.896 458.324,1607.950 457.429,1606.194 456.035,1604.801 454.280,1603.906 452.333,1603.598 450.387,1603.906 448.631,1604.801 447.238,1606.194 446.343,1607.950 446.035,1609.896 446.343,1611.842 447.238,1613.598 448.631,1614.992 450.387,1615.886 452.333,1616.195"/>
      <polygon points="133.753,1615.504 135.497,1614.739 136.898,1613.449 137.805,1611.775 138.118,1609.896 137.805,1608.018 136.898,1606.343 135.497,1605.053 133.753,1604.288 131.856,1604.131 130.010,1604.598 128.415,1605.640 127.246,1607.143 126.627,1608.944 126.627,1610.848 127.246,1612.649 128.415,1614.152 130.010,1615.194 131.856,1615.661"/>
      <polygon points="473.697,1615.282 475.372,1614.547 476.717,1613.308 477.588,1611.700 477.889,1609.896 477.588,1608.092 476.717,1606.484 475.372,1605.245 473.697,1604.511 471.875,1604.360 470.102,1604.809 468.571,1605.809 467.447,1607.252 466.854,1608.982 466.854,1610.811 467.447,1612.540 468.571,1613.984 470.102,1614.984 471.875,1615.433"/>
      <polygon points="114.522,1614.291 115.961,1613.203 116.911,1611.670 117.242,1609.896 116.911,1608.123 115.961,1606.589 114.522,1605.502 112.786,1605.008 110.990,1605.174 109.375,1605.979 108.160,1607.312 107.508,1608.994 107.508,1610.798 108.160,1612.480 109.375,1613.814 110.990,1614.618 112.786,1614.784"/>
      <polygon points="494.391,1614.029 495.745,1613.006 496.638,1611.564 496.950,1609.896 496.638,1608.229 495.745,1606.786 494.391,1605.764 492.759,1605.299 491.070,1605.456 489.551,1606.212 488.408,1607.466 487.796,1609.048 487.796,1610.744 488.408,1612.326 489.551,1613.580 491.070,1614.336 492.759,1614.493"/>
      <polygon points="93.501,1613.489 94.861,1612.704 95.785,1611.433 96.111,1609.896 95.785,1608.360 94.861,1607.089 93.501,1606.303 91.938,1606.139 90.444,1606.625 89.277,1607.676 88.638,1609.111 88.638,1610.682 89.277,1612.117 90.444,1613.168 91.938,1613.653"/>
      <polygon points="514.448,1612.548 515.389,1611.368 515.725,1609.896 515.389,1608.425 514.448,1607.245 513.088,1606.590 511.579,1606.590 510.219,1607.245 509.278,1608.425 508.942,1609.896 509.278,1611.368 510.219,1612.548 511.579,1613.202 513.088,1613.202"/>
      <polygon points="73.463,1611.854 74.291,1611.026 74.594,1609.896 74.291,1608.766 73.463,1607.939 72.333,1607.636 71.203,1607.939 70.376,1608.766 70.073,1609.896 70.376,1611.026 71.203,1611.854 72.333,1612.156"/>
      <polygon points="293.946,1637.656 295.980,1636.933 297.743,1635.689 299.105,1634.014 299.965,1632.035 300.259,1629.896 299.965,1627.758 299.105,1625.778 297.743,1624.104 295.980,1622.859 293.946,1622.136 291.792,1621.989 289.679,1622.428 287.763,1623.421 286.185,1624.894 285.064,1626.738 284.481,1628.817 284.481,1630.975 285.064,1633.054 286.185,1634.898 287.763,1636.371 289.679,1637.364 291.792,1637.804"/>
      <polygon points="313.935,1637.604 315.955,1636.886 317.707,1635.650 319.060,1633.987 319.914,1632.020 320.206,1629.896 319.914,1627.772 319.060,1625.806 317.707,1624.143 315.955,1622.906 313.935,1622.188 311.796,1622.042 309.697,1622.478 307.793,1623.464 306.226,1624.928 305.112,1626.760 304.534,1628.824 304.534,1630.968 305.112,1633.033 306.226,1634.865 307.793,1636.328 309.697,1637.314 311.796,1637.750"/>
      <polygon points="273.913,1637.496 275.905,1636.788 277.632,1635.569 278.966,1633.929 279.808,1631.990 280.096,1629.896 279.808,1627.802 278.966,1625.863 277.632,1624.223 275.905,1623.004 273.913,1622.296 271.804,1622.152 269.734,1622.582 267.857,1623.554 266.312,1624.997 265.214,1626.804 264.643,1628.839 264.643,1630.953 265.214,1632.989 266.312,1634.795 267.857,1636.238 269.734,1637.210 271.804,1637.641"/>
      <polygon points="333.901,1637.440 335.878,1636.738 337.593,1635.528 338.917,1633.900 339.753,1631.975 340.039,1629.896 339.753,1627.817 338.917,1625.893 337.593,1624.265 335.878,1623.055 333.901,1622.352 331.808,1622.209 329.753,1622.636 327.890,1623.601 326.356,1625.033 325.266,1626.826 324.700,1628.847 324.700,1630.945 325.266,1632.966 326.356,1634.759 327.890,1636.191 329.753,1637.157 331.808,1637.584"/>
      <polygon points="253.877,1637.325 255.824,1636.633 257.512,1635.441 258.816,1633.838 259.639,1631.943 259.921,1629.896 259.639,1627.849 258.816,1625.954 257.512,1624.351 255.824,1623.160 253.877,1622.468 251.816,1622.327 249.793,1622.747 247.958,1623.698 246.448,1625.108 245.374,1626.873 244.817,1628.863 244.817,1630.929 245.374,1632.919 246.448,1634.684 247.958,1636.095 249.793,1637.045 251.816,1637.466"/>
      <polygon points="353.877,1637.325 355.824,1636.633 357.512,1635.441 358.816,1633.838 359.639,1631.943 359.921,1629.896 359.639,1627.849 358.816,1625.954 357.512,1624.351 355.824,1623.160 353.877,1622.468 351.816,1622.327 349.793,1622.747 347.958,1623.698 346.448,1625.108 345.374,1626.873 344.817,1628.863 344.817,1630.929 345.374,1632.919 346.448,1634.684 347.958,1636.095 349.793,1637.045 351.816,1637.466"/>
      <polygon points="235.434,1636.685 237.221,1635.537 238.612,1633.931 239.494,1631.999 239.797,1629.896 239.494,1627.793 238.612,1625.861 237.221,1624.256 235.434,1623.107 233.395,1622.509 231.271,1622.509 229.233,1623.107 227.446,1624.256 226.055,1625.861 225.172,1627.793 224.870,1629.896 225.172,1631.999 226.055,1633.931 227.446,1635.537 229.233,1636.685 231.271,1637.284 233.395,1637.284"/>
      <polygon points="375.407,1636.627 377.179,1635.488 378.558,1633.896 379.433,1631.981 379.733,1629.896 379.433,1627.812 378.558,1625.896 377.179,1624.304 375.407,1623.166 373.386,1622.572 371.280,1622.572 369.260,1623.166 367.488,1624.304 366.109,1625.896 365.234,1627.812 364.934,1629.896 365.234,1631.981 366.109,1633.896 367.488,1635.488 369.260,1636.627 371.280,1637.220 373.386,1637.220"/>
      <polygon points="215.352,1636.505 217.091,1635.387 218.446,1633.824 219.305,1631.943 219.599,1629.896 219.305,1627.849 218.446,1625.968 217.091,1624.405 215.352,1623.287 213.367,1622.704 211.299,1622.704 209.315,1623.287 207.575,1624.405 206.221,1625.968 205.362,1627.849 205.068,1629.896 205.362,1631.943 206.221,1633.824 207.575,1635.387 209.315,1636.505 211.299,1637.088 213.367,1637.088"/>
      <polygon points="395.323,1636.442 397.046,1635.335 398.387,1633.787 399.238,1631.924 399.530,1629.896 399.238,1627.869 398.387,1626.005 397.046,1624.457 395.323,1623.350 393.358,1622.773 391.309,1622.773 389.344,1623.350 387.621,1624.457 386.279,1626.005 385.428,1627.869 385.137,1629.896 385.428,1631.924 386.279,1633.787 387.621,1635.335 389.344,1636.442 391.309,1637.020 393.358,1637.020"/>
      <polygon points="415.263,1636.311 416.952,1635.226 418.266,1633.709 419.100,1631.883 419.386,1629.896 419.100,1627.909 418.266,1626.083 416.952,1624.566 415.263,1623.481 413.337,1622.915 411.330,1622.915 409.404,1623.481 407.715,1624.566 406.400,1626.083 405.566,1627.909 405.281,1629.896 405.566,1631.883 406.400,1633.709 407.715,1635.226 409.404,1636.311 411.330,1636.877 413.337,1636.877"/>
      <polygon points="195.263,1636.311 196.952,1635.226 198.266,1633.709 199.100,1631.883 199.386,1629.896 199.100,1627.909 198.266,1626.083 196.952,1624.566 195.263,1623.481 193.337,1622.915 191.330,1622.915 189.404,1623.481 187.715,1624.566 186.400,1626.083 185.566,1627.909 185.281,1629.896 185.566,1631.883 186.400,1633.709 187.715,1635.226 189.404,1636.311 191.330,1636.877 193.337,1636.877"/>
      <polygon points="174.855,1636.320 176.636,1635.292 178.035,1633.784 178.928,1631.930 179.234,1629.896 178.928,1627.862 178.035,1626.009 176.636,1624.501 174.855,1623.472 172.849,1623.015 170.798,1623.168 168.883,1623.920 167.275,1625.202 166.116,1626.902 165.510,1628.868 165.510,1630.925 166.116,1632.890 167.275,1634.590 168.883,1635.873 170.798,1636.624 172.849,1636.778"/>
      <polygon points="434.826,1636.247 436.587,1635.230 437.970,1633.739 438.852,1631.907 439.155,1629.896 438.852,1627.885 437.970,1626.053 436.587,1624.563 434.826,1623.546 432.843,1623.093 430.815,1623.245 428.922,1623.988 427.333,1625.256 426.187,1626.936 425.588,1628.879 425.588,1630.913 426.187,1632.856 427.333,1634.536 428.922,1635.804 430.815,1636.547 432.843,1636.699"/>
      <polygon points="154.337,1636.062 156.144,1635.141 157.578,1633.707 158.499,1631.900 158.816,1629.896 158.499,1627.893 157.578,1626.086 156.144,1624.651 154.337,1623.730 152.333,1623.413 150.330,1623.730 148.523,1624.651 147.088,1626.086 146.168,1627.893 145.850,1629.896 146.168,1631.900 147.088,1633.707 148.523,1635.141 150.330,1636.062 152.333,1636.379"/>
      <polygon points="454.280,1635.886 456.035,1634.992 457.429,1633.598 458.324,1631.842 458.632,1629.896 458.324,1627.950 457.429,1626.194 456.035,1624.801 454.280,1623.906 452.333,1623.598 450.387,1623.906 448.631,1624.801 447.238,1626.194 446.343,1627.950 446.035,1629.896 446.343,1631.842 447.238,1633.598 448.631,1634.992 450.387,1635.886 452.333,1636.195"/>
      <polygon points="133.753,1635.504 135.497,1634.739 136.898,1633.449 137.805,1631.775 138.118,1629.896 137.805,1628.018 136.898,1626.343 135.497,1625.053 133.753,1624.288 131.856,1624.131 130.010,1624.598 128.415,1625.640 127.246,1627.143 126.627,1628.944 126.627,1630.848 127.246,1632.649 128.415,1634.152 130.010,1635.194 131.856,1635.661"/>
      <polygon points="473.697,1635.282 475.372,1634.547 476.717,1633.308 477.588,1631.700 477.889,1629.896 477.588,1628.092 476.717,1626.484 475.372,1625.245 473.697,1624.511 471.875,1624.360 470.102,1624.809 468.571,1625.809 467.447,1627.252 466.854,1628.982 466.854,1630.811 467.447,1632.540 468.571,1633.984 470.102,1634.984 471.875,1635.433"/>
      <polygon points="114.522,1634.291 115.961,1633.203 116.911,1631.670 117.242,1629.896 116.911,1628.123 115.961,1626.589 114.522,1625.502 112.786,1625.008 110.990,1625.174 109.375,1625.979 108.160,1627.312 107.508,1628.994 107.508,1630.798 108.160,1632.480 109.375,1633.814 110.990,1634.618 112.786,1634.784"/>
      <polygon points="494.391,1634.029 495.745,1633.006 496.638,1631.564 496.950,1629.896 496.638,1628.229 495.745,1626.786 494.391,1625.764 492.759,1625.299 491.070,1625.456 489.551,1626.212 488.408,1627.466 487.796,1629.048 487.796,1630.744 488.408,1632.326 489.551,1633.580 491.070,1634.336 492.759,1634.493"/>
      <polygon points="93.501,1633.489 94.861,1632.704 95.785,1631.433 96.111,1629.896 95.785,1628.360 94.861,1627.089 93.501,1626.303 91.938,1626.139 90.444,1626.625 89.277,1627.676 88.638,1629.111 88.638,1630.682 89.277,1632.117 90.444,1633.168 91.938,1633.653"/>
      <polygon points="514.448,1632.548 515.389,1631.368 515.725,1629.896 515.389,1628.425 514.448,1627.245 513.088,1626.590 511.579,1626.590 510.219,1627.245 509.278,1628.425 508.942,1629.896 509.278,1631.368 510.219,1632.548 511.579,1633.202 513.088,1633.202"/>
      <polygon points="73.463,1631.854 74.291,1631.026 74.594,1629.896 74.291,1628.766 73.463,1627.939 72.333,1627.636 71.203,1627.939 70.376,1628.766 70.073,1629.896 70.376,1631.026 71.203,1631.854 72.333,1632.156"/>
      <polygon points="293.946,1657.656 295.980,1656.933 297.743,1655.689 299.105,1654.014 299.965,1652.035 300.259,1649.896 299.965,1647.758 299.105,1645.778 297.743,1644.104 295.980,1642.859 293.946,1642.136 291.792,1641.989 289.679,1642.428 287.763,1643.421 286.185,1644.894 285.064,1646.738 284.481,1648.817 284.481,1650.975 285.064,1653.054 286.185,1654.898 287.763,1656.371 289.679,1657.364 291.792,1657.804"/>
      <polygon points="313.935,1657.604 315.955,1656.886 317.707,1655.650 319.060,1653.987 319.914,1652.020 320.206,1649.896 319.914,1647.772 319.060,1645.806 317.707,1644.143 315.955,1642.906 313.935,1642.188 311.796,1642.042 309.697,1642.478 307.793,1643.464 306.226,1644.928 305.112,1646.760 304.534,1648.824 304.534,1650.968 305.112,1653.033 306.226,1654.865 307.793,1656.328 309.697,1657.314 311.796,1657.750"/>
      <polygon points="273.913,1657.496 275.905,1656.788 277.632,1655.569 278.966,1653.929 279.808,1651.990 280.096,1649.896 279.808,1647.802 278.966,1645.863 277.632,1644.223 275.905,1643.004 273.913,1642.296 271.804,1642.152 269.734,1642.582 267.857,1643.554 266.312,1644.997 265.214,1646.804 264.643,1648.839 264.643,1650.953 265.214,1652.989 266.312,1654.795 267.857,1656.238 269.734,1657.210 271.804,1657.641"/>
      <polygon points="333.901,1657.440 335.878,1656.738 337.593,1655.528 338.917,1653.900 339.753,1651.975 340.039,1649.896 339.753,1647.817 338.917,1645.893 337.593,1644.265 335.878,1643.055 333.901,1642.352 331.808,1642.209 329.753,1642.636 327.890,1643.601 326.356,1645.033 325.266,1646.826 324.700,1648.847 324.700,1650.945 325.266,1652.966 326.356,1654.759 327.890,1656.191 329.753,1657.157 331.808,1657.584"/>
      <polygon points="253.877,1657.325 255.824,1656.633 257.512,1655.441 258.816,1653.838 259.639,1651.943 259.921,1649.896 259.639,1647.849 258.816,1645.954 257.512,1644.351 255.824,1643.160 253.877,1642.468 251.816,1642.327 249.793,1642.747 247.958,1643.698 246.448,1645.108 245.374,1646.873 244.817,1648.863 244.817,1650.929 245.374,1652.919 246.448,1654.684 247.958,1656.095 249.793,1657.045 251.816,1657.466"/>
      <polygon points="353.877,1657.325 355.824,1656.633 357.512,1655.441 358.816,1653.838 359.639,1651.943 359.921,1649.896 359.639,1647.849 358.816,1645.954 357.512,1644.351 355.824,1643.160 353.877,1642.468 351.816,1642.327 349.793,1642.747 347.958,1643.698 346.448,1645.108 345.374,1646.873 344.817,1648.863 344.817,1650.929 345.374,1652.919 346.448,1654.684 347.958,1656.095 349.793,1657.045 351.816,1657.466"/>
      <polygon points="235.434,1656.685 237.221,1655.537 238.612,1653.931 239.494,1651.999 239.797,1649.896 239.494,1647.793 238.612,1645.861 237.221,1644.256 235.434,1643.107 233.395,1642.509 231.271,1642.509 229.233,1643.107 227.446,1644.256 226.055,1645.861 225.172,1647.793 224.870,1649.896 225.172,1651.999 226.055,1653.931 227.446,1655.537 229.233,1656.685 231.271,1657.284 233.395,1657.284"/>
      <polygon points="375.407,1656.627 377.179,1655.488 378.558,1653.896 379.433,1651.981 379.733,1649.896 379.433,1647.812 378.558,1645.896 377.179,1644.304 375.407,1643.166 373.386,1642.572 371.280,1642.572 369.260,1643.166 367.488,1644.304 366.109,1645.896 365.234,1647.812 364.934,1649.896 365.234,1651.981 366.109,1653.896 367.488,1655.488 369.260,1656.627 371.280,1657.220 373.386,1657.220"/>
      <polygon points="215.352,1656.505 217.091,1655.387 218.446,1653.824 219.305,1651.943 219.599,1649.896 219.305,1647.849 218.446,1645.968 217.091,1644.405 215.352,1643.287 213.367,1642.704 211.299,1642.704 209.315,1643.287 207.575,1644.405 206.221,1645.968 205.362,1647.849 205.068,1649.896 205.362,1651.943 206.221,1653.824 207.575,1655.387 209.315,1656.505 211.299,1657.088 213.367,1657.088"/>
      <polygon points="395.323,1656.442 397.046,1655.335 398.387,1653.787 399.238,1651.924 399.530,1649.896 399.238,1647.869 398.387,1646.005 397.046,1644.457 395.323,1643.350 393.358,1642.773 391.309,1642.773 389.344,1643.350 387.621,1644.457 386.279,1646.005 385.428,1647.869 385.137,1649.896 385.428,1651.924 386.279,1653.787 387.621,1655.335 389.344,1656.442 391.309,1657.020 393.358,1657.020"/>
      <polygon points="415.263,1656.311 416.952,1655.226 418.266,1653.709 419.100,1651.883 419.386,1649.896 419.100,1647.909 418.266,1646.083 416.952,1644.566 415.263,1643.481 413.337,1642.915 411.330,1642.915 409.404,1643.481 407.715,1644.566 406.400,1646.083 405.566,1647.909 405.281,1649.896 405.566,1651.883 406.400,1653.709 407.715,1655.226 409.404,1656.311 411.330,1656.877 413.337,1656.877"/>
      <polygon points="195.263,1656.311 196.952,1655.226 198.266,1653.709 199.100,1651.883 199.386,1649.896 199.100,1647.909 198.266,1646.083 196.952,1644.566 195.263,1643.481 193.337,1642.915 191.330,1642.915 189.404,1643.481 187.715,1644.566 186.400,1646.083 185.566,1647.909 185.281,1649.896 185.566,1651.883 186.400,1653.709 187.715,1655.226 189.404,1656.311 191.330,1656.877 193.337,1656.877"/>
      <polygon points="174.855,1656.320 176.636,1655.292 178.035,1653.784 178.928,1651.930 179.234,1649.896 178.928,1647.862 178.035,1646.009 176.636,1644.501 174.855,1643.472 172.849,1643.015 170.798,1643.168 168.883,1643.920 167.275,1645.202 166.116,1646.902 165.510,1648.868 165.510,1650.925 166.116,1652.890 167.275,1654.590 168.883,1655.873 170.798,1656.624 172.849,1656.778"/>
      <polygon points="434.826,1656.247 436.587,1655.230 437.970,1653.739 438.852,1651.907 439.155,1649.896 438.852,1647.885 437.970,1646.053 436.587,1644.563 434.826,1643.546 432.843,1643.093 430.815,1643.245 428.922,1643.988 427.333,1645.256 426.187,1646.936 425.588,1648.879 425.588,1650.913 426.187,1652.856 427.333,1654.536 428.922,1655.804 430.815,1656.547 432.843,1656.699"/>
      <polygon points="154.337,1656.062 156.144,1655.141 157.578,1653.707 158.499,1651.900 158.816,1649.896 158.499,1647.893 157.578,1646.086 156.144,1644.651 154.337,1643.730 152.333,1643.413 150.330,1643.730 148.523,1644.651 147.088,1646.086 146.168,1647.893 145.850,1649.896 146.168,1651.900 147.088,1653.707 148.523,1655.141 150.330,1656.062 152.333,1656.379"/>
      <polygon points="454.280,1655.886 456.035,1654.992 457.429,1653.598 458.324,1651.842 458.632,1649.896 458.324,1647.950 457.429,1646.194 456.035,1644.801 454.280,1643.906 452.333,1643.598 450.387,1643.906 448.631,1644.801 447.238,1646.194 446.343,1647.950 446.035,1649.896 446.343,1651.842 447.238,1653.598 448.631,1654.992 450.387,1655.886 452.333,1656.195"/>
      <polygon points="133.753,1655.504 135.497,1654.739 136.898,1653.449 137.805,1651.775 138.118,1649.896 137.805,1648.018 136.898,1646.343 135.497,1645.053 133.753,1644.288 131.856,1644.131 130.010,1644.598 128.415,1645.640 127.246,1647.143 126.627,1648.944 126.627,1650.848 127.246,1652.649 128.415,1654.152 130.010,1655.194 131.856,1655.661"/>
      <polygon points="473.697,1655.282 475.372,1654.547 476.717,1653.308 477.588,1651.700 477.889,1649.896 477.588,1648.092 476.717,1646.484 475.372,1645.245 473.697,1644.511 471.875,1644.360 470.102,1644.809 468.571,1645.809 467.447,1647.252 466.854,1648.982 466.854,1650.811 467.447,1652.540 468.571,1653.984 470.102,1654.984 471.875,1655.433"/>
      <polygon points="114.522,1654.291 115.961,1653.203 116.911,1651.670 117.242,1649.896 116.911,1648.123 115.961,1646.589 114.522,1645.502 112.786,1645.008 110.990,1645.174 109.375,1645.979 108.160,1647.312 107.508,1648.994 107.508,1650.798 108.160,1652.480 109.375,1653.814 110.990,1654.618 112.786,1654.784"/>
      <polygon points="494.391,1654.029 495.745,1653.006 496.638,1651.564 496.950,1649.896 496.638,1648.229 495.745,1646.786 494.391,1645.764 492.759,1645.299 491.070,1645.456 489.551,1646.212 488.408,1647.466 487.796,1649.048 487.796,1650.744 488.408,1652.326 489.551,1653.580 491.070,1654.336 492.759,1654.493"/>
      <polygon points="93.501,1653.489 94.861,1652.704 95.785,1651.433 96.111,1649.896 95.785,1648.360 94.861,1647.089 93.501,1646.303 91.938,1646.139 90.444,1646.625 89.277,1647.676 88.638,1649.111 88.638,1650.682 89.277,1652.117 90.444,1653.168 91.938,1653.653"/>
      <polygon points="514.448,1652.548 515.389,1651.368 515.725,1649.896 515.389,1648.425 514.448,1647.245 513.088,1646.590 511.579,1646.590 510.219,1647.245 509.278,1648.425 508.942,1649.896 509.278,1651.368 510.219,1652.548 511.579,1653.202 513.088,1653.202"/>
      <polygon points="73.463,1651.854 74.291,1651.026 74.594,1649.896 74.291,1648.766 73.463,1647.939 72.333,1647.636 71.203,1647.939 70.376,1648.766 70.073,1649.896 70.376,1651.026 71.203,1651.854 72.333,1652.156"/>
      <polygon points="293.946,1677.656 295.980,1676.933 297.743,1675.689 299.105,1674.014 299.965,1672.035 300.259,1669.896 299.965,1667.758 299.105,1665.778 297.743,1664.104 295.980,1662.859 293.946,1662.136 291.792,1661.989 289.679,1662.428 287.763,1663.421 286.185,1664.894 285.064,1666.738 284.481,1668.817 284.481,1670.975 285.064,1673.054 286.185,1674.898 287.763,1676.371 289.679,1677.364 291.792,1677.804"/>
      <polygon points="313.935,1677.604 315.955,1676.886 317.707,1675.650 319.060,1673.987 319.914,1672.020 320.206,1669.896 319.914,1667.772 319.060,1665.806 317.707,1664.143 315.955,1662.906 313.935,1662.188 311.796,1662.042 309.697,1662.478 307.793,1663.464 306.226,1664.928 305.112,1666.760 304.534,1668.824 304.534,1670.968 305.112,1673.033 306.226,1674.865 307.793,1676.328 309.697,1677.314 311.796,1677.750"/>
      <polygon points="273.913,1677.496 275.905,1676.788 277.632,1675.569 278.966,1673.929 279.808,1671.990 280.096,1669.896 279.808,1667.802 278.966,1665.863 277.632,1664.223 275.905,1663.004 273.913,1662.296 271.804,1662.152 269.734,1662.582 267.857,1663.554 266.312,1664.997 265.214,1666.804 264.643,1668.839 264.643,1670.953 265.214,1672.989 266.312,1674.795 267.857,1676.238 269.734,1677.210 271.804,1677.641"/>
      <polygon points="333.901,1677.440 335.878,1676.738 337.593,1675.528 338.917,1673.900 339.753,1671.975 340.039,1669.896 339.753,1667.817 338.917,1665.893 337.593,1664.265 335.878,1663.055 333.901,1662.352 331.808,1662.209 329.753,1662.636 327.890,1663.601 326.356,1665.033 325.266,1666.826 324.700,1668.847 324.700,1670.945 325.266,1672.966 326.356,1674.759 327.890,1676.191 329.753,1677.157 331.808,1677.584"/>
      <polygon points="353.877,1677.325 355.824,1676.633 357.512,1675.441 358.816,1673.838 359.639,1671.943 359.921,1669.896 359.639,1667.849 358.816,1665.954 357.512,1664.351 355.824,1663.160 353.877,1662.468 351.816,1662.327 349.793,1662.747 347.958,1663.698 346.448,1665.108 345.374,1666.873 344.817,1668.863 344.817,1670.929 345.374,1672.919 346.448,1674.684 347.958,1676.095 349.793,1677.045 351.816,1677.466"/>
      <polygon points="253.877,1677.325 255.824,1676.633 257.512,1675.441 258.816,1673.838 259.639,1671.943 259.921,1669.896 259.639,1667.849 258.816,1665.954 257.512,1664.351 255.824,1663.160 253.877,1662.468 251.816,1662.327 249.793,1662.747 247.958,1663.698 246.448,1665.108 245.374,1666.873 244.817,1668.863 244.817,1670.929 245.374,1672.919 246.448,1674.684 247.958,1676.095 249.793,1677.045 251.816,1677.466"/>
      <polygon points="235.434,1676.685 237.221,1675.537 238.612,1673.931 239.494,1671.999 239.797,1669.896 239.494,1667.793 238.612,1665.861 237.221,1664.256 235.434,1663.107 233.395,1662.509 231.271,1662.509 229.233,1663.107 227.446,1664.256 226.055,1665.861 225.172,1667.793 224.870,1669.896 225.172,1671.999 226.055,1673.931 227.446,1675.537 229.233,1676.685 231.271,1677.284 233.395,1677.284"/>
      <polygon points="375.407,1676.627 377.179,1675.488 378.558,1673.896 379.433,1671.981 379.733,1669.896 379.433,1667.812 378.558,1665.896 377.179,1664.304 375.407,1663.166 373.386,1662.572 371.280,1662.572 369.260,1663.166 367.488,1664.304 366.109,1665.896 365.234,1667.812 364.934,1669.896 365.234,1671.981 366.109,1673.896 367.488,1675.488 369.260,1676.627 371.280,1677.220 373.386,1677.220"/>
      <polygon points="215.352,1676.505 217.091,1675.387 218.446,1673.824 219.305,1671.943 219.599,1669.896 219.305,1667.849 218.446,1665.968 217.091,1664.405 215.352,1663.287 213.367,1662.704 211.299,1662.704 209.315,1663.287 207.575,1664.405 206.221,1665.968 205.362,1667.849 205.068,1669.896 205.362,1671.943 206.221,1673.824 207.575,1675.387 209.315,1676.505 211.299,1677.088 213.367,1677.088"/>
      <polygon points="395.323,1676.442 397.046,1675.335 398.387,1673.787 399.238,1671.924 399.530,1669.896 399.238,1667.869 398.387,1666.005 397.046,1664.457 395.323,1663.350 393.358,1662.773 391.309,1662.773 389.344,1663.350 387.621,1664.457 386.279,1666.005 385.428,1667.869 385.137,1669.896 385.428,1671.924 386.279,1673.787 387.621,1675.335 389.344,1676.442 391.309,1677.020 393.358,1677.020"/>
      <polygon points="415.263,1676.311 416.952,1675.226 418.266,1673.709 419.100,1671.883 419.386,1669.896 419.100,1667.909 418.266,1666.083 416.952,1664.566 415.263,1663.481 413.337,1662.915 411.330,1662.915 409.404,1663.481 407.715,1664.566 406.400,1666.083 405.566,1667.909 405.281,1669.896 405.566,1671.883 406.400,1673.709 407.715,1675.226 409.404,1676.311 411.330,1676.877 413.337,1676.877"/>
      <polygon points="195.263,1676.311 196.952,1675.226 198.266,1673.709 199.100,1671.883 199.386,1669.896 199.100,1667.909 198.266,1666.083 196.952,1664.566 195.263,1663.481 193.337,1662.915 191.330,1662.915 189.404,1663.481 187.715,1664.566 186.400,1666.083 185.566,1667.909 185.281,1669.896 185.566,1671.883 186.400,1673.709 187.715,1675.226 189.404,1676.311 191.330,1676.877 193.337,1676.877"/>
      <polygon points="174.855,1676.320 176.636,1675.292 178.035,1673.784 178.928,1671.930 179.234,1669.896 178.928,1667.862 178.035,1666.009 176.636,1664.501 174.855,1663.472 172.849,1663.015 170.798,1663.168 168.883,1663.920 167.275,1665.202 166.116,1666.902 165.510,1668.868 165.510,1670.925 166.116,1672.890 167.275,1674.590 168.883,1675.873 170.798,1676.624 172.849,1676.778"/>
      <polygon points="434.826,1676.247 436.587,1675.230 437.970,1673.739 438.852,1671.907 439.155,1669.896 438.852,1667.885 437.970,1666.053 436.587,1664.563 434.826,1663.546 432.843,1663.093 430.815,1663.245 428.922,1663.988 427.333,1665.256 426.187,1666.936 425.588,1668.879 425.588,1670.913 426.187,1672.856 427.333,1674.536 428.922,1675.804 430.815,1676.547 432.843,1676.699"/>
      <polygon points="154.337,1676.062 156.144,1675.141 157.578,1673.707 158.499,1671.900 158.816,1669.896 158.499,1667.893 157.578,1666.086 156.144,1664.651 154.337,1663.730 152.333,1663.413 150.330,1663.730 148.523,1664.651 147.088,1666.086 146.168,1667.893 145.850,1669.896 146.168,1671.900 147.088,1673.707 148.523,1675.141 150.330,1676.062 152.333,1676.379"/>
      <polygon points="454.280,1675.886 456.035,1674.992 457.429,1673.598 458.324,1671.842 458.632,1669.896 458.324,1667.950 457.429,1666.194 456.035,1664.801 454.280,1663.906 452.333,1663.598 450.387,1663.906 448.631,1664.801 447.238,1666.194 446.343,1667.950 446.035,1669.896 446.343,1671.842 447.238,1673.598 448.631,1674.992 450.387,1675.886 452.333,1676.195"/>
      <polygon points="133.753,1675.504 135.497,1674.739 136.898,1673.449 137.805,1671.775 138.118,1669.896 137.805,1668.018 136.898,1666.343 135.497,1665.053 133.753,1664.288 131.856,1664.131 130.010,1664.598 128.415,1665.640 127.246,1667.143 126.627,1668.944 126.627,1670.848 127.246,1672.649 128.415,1674.152 130.010,1675.194 131.856,1675.661"/>
      <polygon points="473.697,1675.282 475.372,1674.547 476.717,1673.308 477.588,1671.700 477.889,1669.896 477.588,1668.092 476.717,1666.484 475.372,1665.245 473.697,1664.511 471.875,1664.360 470.102,1664.809 468.571,1665.809 467.447,1667.252 466.854,1668.982 466.854,1670.811 467.447,1672.540 468.571,1673.984 470.102,1674.984 471.875,1675.433"/>
      <polygon points="114.522,1674.291 115.961,1673.203 116.911,1671.670 117.242,1669.896 116.911,1668.123 115.961,1666.589 114.522,1665.502 112.786,1665.008 110.990,1665.174 109.375,1665.979 108.160,1667.312 107.508,1668.994 107.508,1670.798 108.160,1672.480 109.375,1673.814 110.990,1674.618 112.786,1674.784"/>
      <polygon points="494.391,1674.029 495.745,1673.006 496.638,1671.564 496.950,1669.896 496.638,1668.229 495.745,1666.786 494.391,1665.764 492.759,1665.299 491.070,1665.456 489.551,1666.212 488.408,1667.466 487.796,1669.048 487.796,1670.744 488.408,1672.326 489.551,1673.580 491.070,1674.336 492.759,1674.493"/>
      <polygon points="93.501,1673.489 94.861,1672.704 95.785,1671.433 96.111,1669.896 95.785,1668.360 94.861,1667.089 93.501,1666.303 91.938,1666.139 90.444,1666.625 89.277,1667.676 88.638,1669.111 88.638,1670.682 89.277,1672.117 90.444,1673.168 91.938,1673.653"/>
      <polygon points="514.448,1672.548 515.389,1671.368 515.725,1669.896 515.389,1668.425 514.448,1667.245 513.088,1666.590 511.579,1666.590 510.219,1667.245 509.278,1668.425 508.942,1669.896 509.278,1671.368 510.219,1672.548 511.579,1673.202 513.088,1673.202"/>
      <polygon points="73.463,1671.854 74.291,1671.026 74.594,1669.896 74.291,1668.766 73.463,1667.939 72.333,1667.636 71.203,1667.939 70.376,1668.766 70.073,1669.896 70.376,1671.026 71.203,1671.854 72.333,1672.156"/>
    </g>
    <g stroke="#EF6C00" stroke-width="0.4" fill="none">
    </g>
  </g>
  <g stroke="#000000" stroke-width="0.4">
    <line x1="500.000" y1="1000.000" x2="1500.000" y2="1000.000"/>
  </g>
  <g stroke="#000000" stroke-width="0.4">
    <line x1="1000.000" y1="500.000" x2="1000.000" y2="1500.000"/>
  </g>
  <circle cx="1000.000" cy="1000.000" r="1000.000" stroke="red" stroke-width="1" fill="none"/>
  </g>
</svg>
