<?xml version="1.0" encoding="UTF-8"?>
<svg xmlns="http://www.w3.org/2000/svg" version="1.1" width="2000" height="2000">
  <g fill="none" stroke-linecap="round" stroke-linejoin="round">
  <text x="10" y="20" font-size="24" fill="#555">Layer 266 Z=65.200 mm</text>
  <g transform="translate(700.000,-602.229)">
    <g stroke="#2E7D32" stroke-width="0.4">
      <line x1="139.472" y1="1679.230" x2="139.472" y2="1629.230"/>
      <line x1="140.472" y1="1679.230" x2="140.472" y2="1629.230"/>
      <line x1="141.472" y1="1679.230" x2="141.472" y2="1629.230"/>
      <line x1="142.472" y1="1679.230" x2="142.472" y2="1629.230"/>
      <line x1="143.472" y1="1679.230" x2="143.472" y2="1629.230"/>
      <line x1="144.472" y1="1679.230" x2="144.472" y2="1629.230"/>
      <line x1="145.472" y1="1679.230" x2="145.472" y2="1629.230"/>
      <line x1="146.472" y1="1679.230" x2="146.472" y2="1629.230"/>
      <line x1="147.472" y1="1679.230" x2="147.472" y2="1629.230"/>
      <line x1="148.472" y1="1679.230" x2="148.472" y2="1629.230"/>
      <line x1="149.472" y1="1679.230" x2="149.472" y2="1629.230"/>
      <line x1="150.472" y1="1679.230" x2="150.472" y2="1629.230"/>
      <line x1="151.472" y1="1679.230" x2="151.472" y2="1629.230"/>
      <line x1="152.472" y1="1679.230" x2="152.472" y2="1629.230"/>
      <line x1="153.472" y1="1679.230" x2="153.472" y2="1629.230"/>
      <line x1="154.472" y1="1679.230" x2="154.472" y2="1629.230"/>
      <line x1="155.472" y1="1679.230" x2="155.472" y2="1629.230"/>
      <line x1="156.472" y1="1679.230" x2="156.472" y2="1629.230"/>
      <line x1="157.472" y1="1679.230" x2="157.472" y2="1629.230"/>
      <line x1="158.472" y1="1679.230" x2="158.472" y2="1629.230"/>
      <line x1="159.472" y1="1679.230" x2="159.472" y2="1629.230"/>
      <line x1="160.472" y1="1679.230" x2="160.472" y2="1629.230"/>
      <line x1="161.472" y1="1679.230" x2="161.472" y2="1629.230"/>
      <line x1="162.472" y1="1679.230" x2="162.472" y2="1629.230"/>
      <line x1="163.472" y1="1679.230" x2="163.472" y2="1629.230"/>
      <line x1="164.472" y1="1679.230" x2="164.472" y2="1629.230"/>
      <line x1="165.472" y1="1679.230" x2="165.472" y2="1629.230"/>
      <line x1="166.472" y1="1679.230" x2="166.472" y2="1629.230"/>
      <line x1="167.472" y1="1679.230" x2="167.472" y2="1629.230"/>
      <line x1="168.472" y1="1679.230" x2="168.472" y2="1629.230"/>
      <line x1="169.472" y1="1679.230" x2="169.472" y2="1629.230"/>
      <line x1="170.472" y1="1679.230" x2="170.472" y2="1629.230"/>
      <line x1="171.472" y1="1679.230" x2="171.472" y2="1629.230"/>
      <line x1="172.472" y1="1679.230" x2="172.472" y2="1629.230"/>
      <line x1="173.472" y1="1679.230" x2="173.472" y2="1629.230"/>
      <line x1="174.472" y1="1679.230" x2="174.472" y2="1629.230"/>
      <line x1="175.472" y1="1679.230" x2="175.472" y2="1629.230"/>
      <line x1="176.472" y1="1679.230" x2="176.472" y2="1629.230"/>
      <line x1="177.472" y1="1679.230" x2="177.472" y2="1629.230"/>
      <line x1="178.472" y1="1679.230" x2="178.472" y2="1629.230"/>
      <line x1="179.472" y1="1679.230" x2="179.472" y2="1629.230"/>
      <line x1="180.472" y1="1679.230" x2="180.472" y2="1629.230"/>
      <line x1="181.472" y1="1679.230" x2="181.472" y2="1629.230"/>
      <line x1="182.472" y1="1679.230" x2="182.472" y2="1629.230"/>
      <line x1="183.472" y1="1679.230" x2="183.472" y2="1629.230"/>
      <line x1="184.472" y1="1679.230" x2="184.472" y2="1629.230"/>
      <line x1="185.472" y1="1679.230" x2="185.472" y2="1629.230"/>
      <line x1="186.472" y1="1679.230" x2="186.472" y2="1629.230"/>
      <line x1="187.472" y1="1679.230" x2="187.472" y2="1629.230"/>
      <line x1="188.472" y1="1679.230" x2="188.472" y2="1629.230"/>
      <line x1="189.472" y1="1679.230" x2="189.472" y2="1629.230"/>
      <line x1="190.472" y1="1679.230" x2="190.472" y2="1629.230"/>
      <line x1="191.472" y1="1679.230" x2="191.472" y2="1629.230"/>
      <line x1="192.472" y1="1679.230" x2="192.472" y2="1629.230"/>
      <line x1="193.472" y1="1679.230" x2="193.472" y2="1629.230"/>
      <line x1="194.472" y1="1679.230" x2="194.472" y2="1629.230"/>
      <line x1="195.472" y1="1679.230" x2="195.472" y2="1629.230"/>
      <line x1="196.472" y1="1679.230" x2="196.472" y2="1629.230"/>
      <line x1="197.472" y1="1679.230" x2="197.472" y2="1629.230"/>
      <line x1="198.472" y1="1679.230" x2="198.472" y2="1629.230"/>
      <line x1="199.472" y1="1679.230" x2="199.472" y2="1629.230"/>
      <line x1="200.472" y1="1679.230" x2="200.472" y2="1629.230"/>
      <line x1="201.472" y1="1679.230" x2="201.472" y2="1629.230"/>
      <line x1="202.472" y1="1679.230" x2="202.472" y2="1629.230"/>
      <line x1="203.472" y1="1679.230" x2="203.472" y2="1629.230"/>
      <line x1="204.472" y1="1679.230" x2="204.472" y2="1629.230"/>
      <line x1="205.472" y1="1679.230" x2="205.472" y2="1629.230"/>
      <line x1="206.472" y1="1679.230" x2="206.472" y2="1629.230"/>
      <line x1="207.472" y1="1679.230" x2="207.472" y2="1629.230"/>
      <line x1="208.472" y1="1679.230" x2="208.472" y2="1629.230"/>
      <line x1="209.472" y1="1679.230" x2="209.472" y2="1629.230"/>
      <line x1="210.472" y1="1679.230" x2="210.472" y2="1629.230"/>
      <line x1="211.472" y1="1679.230" x2="211.472" y2="1629.230"/>
      <line x1="212.472" y1="1679.230" x2="212.472" y2="1629.230"/>
      <line x1="213.472" y1="1679.230" x2="213.472" y2="1629.230"/>
      <line x1="214.472" y1="1679.230" x2="214.472" y2="1629.230"/>
      <line x1="215.472" y1="1679.230" x2="215.472" y2="1629.230"/>
      <line x1="216.472" y1="1679.230" x2="216.472" y2="1629.230"/>
      <line x1="217.472" y1="1679.230" x2="217.472" y2="1629.230"/>
      <line x1="218.472" y1="1679.230" x2="218.472" y2="1629.230"/>
      <line x1="219.472" y1="1679.230" x2="219.472" y2="1629.230"/>
      <line x1="220.472" y1="1679.230" x2="220.472" y2="1629.230"/>
      <line x1="221.472" y1="1679.230" x2="221.472" y2="1629.230"/>
      <line x1="222.472" y1="1679.230" x2="222.472" y2="1629.230"/>
      <line x1="223.472" y1="1679.230" x2="223.472" y2="1629.230"/>
      <line x1="224.472" y1="1679.230" x2="224.472" y2="1629.230"/>
      <line x1="225.472" y1="1679.230" x2="225.472" y2="1629.230"/>
      <line x1="226.472" y1="1679.230" x2="226.472" y2="1629.230"/>
      <line x1="227.472" y1="1679.230" x2="227.472" y2="1629.230"/>
      <line x1="228.472" y1="1679.230" x2="228.472" y2="1629.230"/>
      <line x1="229.472" y1="1679.230" x2="229.472" y2="1629.230"/>
      <line x1="230.472" y1="1679.230" x2="230.472" y2="1629.230"/>
      <line x1="231.472" y1="1679.230" x2="231.472" y2="1629.230"/>
      <line x1="232.472" y1="1679.230" x2="232.472" y2="1629.230"/>
      <line x1="233.472" y1="1679.230" x2="233.472" y2="1629.230"/>
      <line x1="234.472" y1="1679.230" x2="234.472" y2="1629.230"/>
      <line x1="235.472" y1="1679.230" x2="235.472" y2="1629.230"/>
      <line x1="236.472" y1="1679.230" x2="236.472" y2="1629.230"/>
      <line x1="237.472" y1="1679.230" x2="237.472" y2="1629.230"/>
      <line x1="238.472" y1="1679.230" x2="238.472" y2="1629.230"/>
      <line x1="239.472" y1="1679.230" x2="239.472" y2="1629.230"/>
      <line x1="240.472" y1="1679.230" x2="240.472" y2="1629.230"/>
      <line x1="241.472" y1="1679.230" x2="241.472" y2="1629.230"/>
      <line x1="242.472" y1="1679.230" x2="242.472" y2="1629.230"/>
      <line x1="243.472" y1="1679.230" x2="243.472" y2="1629.230"/>
      <line x1="244.472" y1="1679.230" x2="244.472" y2="1629.230"/>
      <line x1="245.472" y1="1679.230" x2="245.472" y2="1629.230"/>
      <line x1="246.472" y1="1679.230" x2="246.472" y2="1629.230"/>
      <line x1="247.472" y1="1679.230" x2="247.472" y2="1629.230"/>
      <line x1="248.472" y1="1679.230" x2="248.472" y2="1629.230"/>
      <line x1="249.472" y1="1679.230" x2="249.472" y2="1629.230"/>
      <line x1="250.472" y1="1679.230" x2="250.472" y2="1629.230"/>
      <line x1="251.472" y1="1679.230" x2="251.472" y2="1629.230"/>
      <line x1="252.472" y1="1679.230" x2="252.472" y2="1629.230"/>
      <line x1="253.472" y1="1679.230" x2="253.472" y2="1629.230"/>
      <line x1="254.472" y1="1679.230" x2="254.472" y2="1629.230"/>
      <line x1="255.472" y1="1679.230" x2="255.472" y2="1629.230"/>
      <line x1="256.472" y1="1679.230" x2="256.472" y2="1629.230"/>
      <line x1="257.472" y1="1679.230" x2="257.472" y2="1629.230"/>
      <line x1="258.472" y1="1679.230" x2="258.472" y2="1629.230"/>
      <line x1="259.472" y1="1679.230" x2="259.472" y2="1629.230"/>
      <line x1="260.472" y1="1679.230" x2="260.472" y2="1629.230"/>
      <line x1="261.472" y1="1679.230" x2="261.472" y2="1629.230"/>
      <line x1="262.472" y1="1679.230" x2="262.472" y2="1629.230"/>
      <line x1="263.472" y1="1679.230" x2="263.472" y2="1629.230"/>
      <line x1="264.472" y1="1679.230" x2="264.472" y2="1629.230"/>
      <line x1="265.472" y1="1679.230" x2="265.472" y2="1629.230"/>
      <line x1="266.472" y1="1679.230" x2="266.472" y2="1629.230"/>
      <line x1="267.472" y1="1679.230" x2="267.472" y2="1629.230"/>
      <line x1="268.472" y1="1679.230" x2="268.472" y2="1629.230"/>
      <line x1="269.472" y1="1679.230" x2="269.472" y2="1629.230"/>
      <line x1="270.472" y1="1679.230" x2="270.472" y2="1629.230"/>
      <line x1="271.472" y1="1679.230" x2="271.472" y2="1629.230"/>
      <line x1="272.472" y1="1679.230" x2="272.472" y2="1629.230"/>
      <line x1="273.472" y1="1679.230" x2="273.472" y2="1629.230"/>
      <line x1="274.472" y1="1679.230" x2="274.472" y2="1629.230"/>
      <line x1="275.472" y1="1679.230" x2="275.472" y2="1629.230"/>
      <line x1="276.472" y1="1679.230" x2="276.472" y2="1629.230"/>
      <line x1="277.472" y1="1679.230" x2="277.472" y2="1629.230"/>
      <line x1="278.472" y1="1679.230" x2="278.472" y2="1629.230"/>
      <line x1="279.472" y1="1679.230" x2="279.472" y2="1629.230"/>
      <line x1="280.472" y1="1679.230" x2="280.472" y2="1629.230"/>
      <line x1="281.472" y1="1679.230" x2="281.472" y2="1629.230"/>
      <line x1="282.472" y1="1679.230" x2="282.472" y2="1629.230"/>
      <line x1="283.472" y1="1679.230" x2="283.472" y2="1629.230"/>
      <line x1="284.472" y1="1679.230" x2="284.472" y2="1629.230"/>
      <line x1="285.472" y1="1679.230" x2="285.472" y2="1629.230"/>
      <line x1="286.472" y1="1679.230" x2="286.472" y2="1629.230"/>
      <line x1="287.472" y1="1679.230" x2="287.472" y2="1629.230"/>
      <line x1="288.472" y1="1679.230" x2="288.472" y2="1629.230"/>
      <line x1="289.472" y1="1679.230" x2="289.472" y2="1629.230"/>
      <line x1="290.472" y1="1679.230" x2="290.472" y2="1629.230"/>
      <line x1="291.472" y1="1679.230" x2="291.472" y2="1629.230"/>
      <line x1="292.472" y1="1679.230" x2="292.472" y2="1629.230"/>
      <line x1="293.472" y1="1679.230" x2="293.472" y2="1629.230"/>
      <line x1="294.472" y1="1679.230" x2="294.472" y2="1629.230"/>
      <line x1="295.472" y1="1679.230" x2="295.472" y2="1629.230"/>
      <line x1="296.472" y1="1679.230" x2="296.472" y2="1629.230"/>
      <line x1="297.472" y1="1679.230" x2="297.472" y2="1629.230"/>
      <line x1="298.472" y1="1679.230" x2="298.472" y2="1629.230"/>
      <line x1="299.472" y1="1679.230" x2="299.472" y2="1629.230"/>
      <line x1="300.472" y1="1679.230" x2="300.472" y2="1629.230"/>
      <line x1="301.472" y1="1679.230" x2="301.472" y2="1629.230"/>
      <line x1="302.472" y1="1679.230" x2="302.472" y2="1629.230"/>
      <line x1="303.472" y1="1679.230" x2="303.472" y2="1629.230"/>
      <line x1="304.472" y1="1679.230" x2="304.472" y2="1629.230"/>
      <line x1="305.472" y1="1679.230" x2="305.472" y2="1629.230"/>
      <line x1="306.472" y1="1679.230" x2="306.472" y2="1629.230"/>
      <line x1="307.472" y1="1679.230" x2="307.472" y2="1629.230"/>
      <line x1="308.472" y1="1679.230" x2="308.472" y2="1629.230"/>
      <line x1="309.472" y1="1679.230" x2="309.472" y2="1629.230"/>
      <line x1="310.472" y1="1679.230" x2="310.472" y2="1629.230"/>
      <line x1="311.472" y1="1679.230" x2="311.472" y2="1629.230"/>
      <line x1="312.472" y1="1679.230" x2="312.472" y2="1629.230"/>
      <line x1="313.472" y1="1679.230" x2="313.472" y2="1629.230"/>
      <line x1="314.472" y1="1679.230" x2="314.472" y2="1629.230"/>
      <line x1="315.472" y1="1679.230" x2="315.472" y2="1629.230"/>
      <line x1="316.472" y1="1679.230" x2="316.472" y2="1629.230"/>
      <line x1="317.472" y1="1679.230" x2="317.472" y2="1629.230"/>
      <line x1="318.472" y1="1679.230" x2="318.472" y2="1629.230"/>
      <line x1="319.472" y1="1679.230" x2="319.472" y2="1629.230"/>
      <line x1="320.472" y1="1679.230" x2="320.472" y2="1629.230"/>
      <line x1="321.472" y1="1679.230" x2="321.472" y2="1629.230"/>
      <line x1="322.472" y1="1679.230" x2="322.472" y2="1629.230"/>
      <line x1="323.472" y1="1679.230" x2="323.472" y2="1629.230"/>
      <line x1="324.472" y1="1679.230" x2="324.472" y2="1629.230"/>
      <line x1="325.472" y1="1679.230" x2="325.472" y2="1629.230"/>
      <line x1="326.472" y1="1679.230" x2="326.472" y2="1629.230"/>
      <line x1="327.472" y1="1679.230" x2="327.472" y2="1629.230"/>
      <line x1="328.472" y1="1679.230" x2="328.472" y2="1629.230"/>
      <line x1="329.472" y1="1679.230" x2="329.472" y2="1629.230"/>
      <line x1="330.472" y1="1679.230" x2="330.472" y2="1629.230"/>
      <line x1="331.472" y1="1679.230" x2="331.472" y2="1629.230"/>
      <line x1="332.472" y1="1679.230" x2="332.472" y2="1629.230"/>
      <line x1="333.472" y1="1679.230" x2="333.472" y2="1629.230"/>
      <line x1="334.472" y1="1679.230" x2="334.472" y2="1629.230"/>
      <line x1="335.472" y1="1679.230" x2="335.472" y2="1629.230"/>
      <line x1="336.472" y1="1679.230" x2="336.472" y2="1629.230"/>
      <line x1="337.472" y1="1679.230" x2="337.472" y2="1629.230"/>
      <line x1="338.472" y1="1679.230" x2="338.472" y2="1629.230"/>
      <line x1="339.472" y1="1679.230" x2="339.472" y2="1629.230"/>
      <line x1="340.472" y1="1679.230" x2="340.472" y2="1629.230"/>
      <line x1="341.472" y1="1679.230" x2="341.472" y2="1629.230"/>
      <line x1="342.472" y1="1679.230" x2="342.472" y2="1629.230"/>
      <line x1="343.472" y1="1679.230" x2="343.472" y2="1629.230"/>
      <line x1="344.472" y1="1679.230" x2="344.472" y2="1629.230"/>
      <line x1="345.472" y1="1679.230" x2="345.472" y2="1629.230"/>
      <line x1="346.472" y1="1679.230" x2="346.472" y2="1629.230"/>
      <line x1="347.472" y1="1679.230" x2="347.472" y2="1629.230"/>
      <line x1="348.472" y1="1679.230" x2="348.472" y2="1629.230"/>
      <line x1="349.472" y1="1679.230" x2="349.472" y2="1629.230"/>
      <line x1="350.472" y1="1679.230" x2="350.472" y2="1629.230"/>
      <line x1="351.472" y1="1679.230" x2="351.472" y2="1629.230"/>
      <line x1="352.472" y1="1679.230" x2="352.472" y2="1629.230"/>
      <line x1="353.472" y1="1679.230" x2="353.472" y2="1629.230"/>
      <line x1="354.472" y1="1679.230" x2="354.472" y2="1629.230"/>
      <line x1="355.472" y1="1679.230" x2="355.472" y2="1629.230"/>
      <line x1="356.472" y1="1679.230" x2="356.472" y2="1629.230"/>
      <line x1="357.472" y1="1679.230" x2="357.472" y2="1629.230"/>
      <line x1="358.472" y1="1679.230" x2="358.472" y2="1629.230"/>
      <line x1="359.472" y1="1679.230" x2="359.472" y2="1629.230"/>
      <line x1="360.472" y1="1679.230" x2="360.472" y2="1629.230"/>
      <line x1="361.472" y1="1679.230" x2="361.472" y2="1629.230"/>
      <line x1="362.472" y1="1679.230" x2="362.472" y2="1629.230"/>
      <line x1="363.472" y1="1679.230" x2="363.472" y2="1629.230"/>
      <line x1="364.472" y1="1679.230" x2="364.472" y2="1629.230"/>
      <line x1="365.472" y1="1679.230" x2="365.472" y2="1629.230"/>
      <line x1="366.472" y1="1679.230" x2="366.472" y2="1629.230"/>
      <line x1="367.472" y1="1679.230" x2="367.472" y2="1629.230"/>
      <line x1="368.472" y1="1679.230" x2="368.472" y2="1629.230"/>
      <line x1="369.472" y1="1679.230" x2="369.472" y2="1629.230"/>
      <line x1="370.472" y1="1679.230" x2="370.472" y2="1629.230"/>
      <line x1="371.472" y1="1679.230" x2="371.472" y2="1629.230"/>
      <line x1="372.472" y1="1679.230" x2="372.472" y2="1629.230"/>
      <line x1="373.472" y1="1679.230" x2="373.472" y2="1629.230"/>
      <line x1="374.472" y1="1679.230" x2="374.472" y2="1629.230"/>
      <line x1="375.472" y1="1679.230" x2="375.472" y2="1629.230"/>
      <line x1="376.472" y1="1679.230" x2="376.472" y2="1629.230"/>
      <line x1="377.472" y1="1679.230" x2="377.472" y2="1629.230"/>
      <line x1="378.472" y1="1679.230" x2="378.472" y2="1629.230"/>
      <line x1="379.472" y1="1679.230" x2="379.472" y2="1629.230"/>
      <line x1="380.472" y1="1679.230" x2="380.472" y2="1629.230"/>
      <line x1="381.472" y1="1679.230" x2="381.472" y2="1629.230"/>
      <line x1="382.472" y1="1679.230" x2="382.472" y2="1629.230"/>
      <line x1="383.472" y1="1679.230" x2="383.472" y2="1629.230"/>
      <line x1="384.472" y1="1679.230" x2="384.472" y2="1629.230"/>
      <line x1="385.472" y1="1679.230" x2="385.472" y2="1629.230"/>
      <line x1="386.472" y1="1679.230" x2="386.472" y2="1629.230"/>
      <line x1="387.472" y1="1679.230" x2="387.472" y2="1629.230"/>
      <line x1="388.472" y1="1679.230" x2="388.472" y2="1629.230"/>
      <line x1="389.472" y1="1679.230" x2="389.472" y2="1629.230"/>
      <line x1="390.472" y1="1679.230" x2="390.472" y2="1629.230"/>
      <line x1="391.472" y1="1679.230" x2="391.472" y2="1629.230"/>
      <line x1="392.472" y1="1679.230" x2="392.472" y2="1629.230"/>
      <line x1="393.472" y1="1679.230" x2="393.472" y2="1629.230"/>
      <line x1="394.472" y1="1679.230" x2="394.472" y2="1629.230"/>
      <line x1="395.472" y1="1679.230" x2="395.472" y2="1629.230"/>
      <line x1="396.472" y1="1679.230" x2="396.472" y2="1629.230"/>
      <line x1="397.472" y1="1679.230" x2="397.472" y2="1629.230"/>
      <line x1="398.472" y1="1679.230" x2="398.472" y2="1629.230"/>
      <line x1="399.472" y1="1679.230" x2="399.472" y2="1629.230"/>
      <line x1="400.472" y1="1679.230" x2="400.472" y2="1629.230"/>
      <line x1="401.472" y1="1679.230" x2="401.472" y2="1629.230"/>
      <line x1="402.472" y1="1679.230" x2="402.472" y2="1629.230"/>
      <line x1="403.472" y1="1679.230" x2="403.472" y2="1629.230"/>
      <line x1="404.472" y1="1679.230" x2="404.472" y2="1629.230"/>
      <line x1="405.472" y1="1679.230" x2="405.472" y2="1629.230"/>
      <line x1="406.472" y1="1679.230" x2="406.472" y2="1629.230"/>
      <line x1="407.472" y1="1679.230" x2="407.472" y2="1629.230"/>
      <line x1="408.472" y1="1679.230" x2="408.472" y2="1629.230"/>
      <line x1="409.472" y1="1679.230" x2="409.472" y2="1629.230"/>
      <line x1="410.472" y1="1679.230" x2="410.472" y2="1629.230"/>
      <line x1="411.472" y1="1679.230" x2="411.472" y2="1629.230"/>
      <line x1="412.472" y1="1679.230" x2="412.472" y2="1629.230"/>
      <line x1="413.472" y1="1679.230" x2="413.472" y2="1629.230"/>
      <line x1="414.472" y1="1679.230" x2="414.472" y2="1629.230"/>
      <line x1="415.472" y1="1679.230" x2="415.472" y2="1629.230"/>
      <line x1="416.472" y1="1679.230" x2="416.472" y2="1629.230"/>
      <line x1="417.472" y1="1679.230" x2="417.472" y2="1629.230"/>
      <line x1="418.472" y1="1679.230" x2="418.472" y2="1629.230"/>
      <line x1="419.472" y1="1679.230" x2="419.472" y2="1629.230"/>
      <line x1="420.472" y1="1679.230" x2="420.472" y2="1629.230"/>
      <line x1="421.472" y1="1679.230" x2="421.472" y2="1629.230"/>
      <line x1="422.472" y1="1679.230" x2="422.472" y2="1629.230"/>
      <line x1="423.472" y1="1679.230" x2="423.472" y2="1629.230"/>
      <line x1="424.472" y1="1679.230" x2="424.472" y2="1629.230"/>
      <line x1="425.472" y1="1679.230" x2="425.472" y2="1629.230"/>
      <line x1="426.472" y1="1679.230" x2="426.472" y2="1629.230"/>
      <line x1="427.472" y1="1679.230" x2="427.472" y2="1629.230"/>
      <line x1="428.472" y1="1679.230" x2="428.472" y2="1629.230"/>
      <line x1="429.472" y1="1679.230" x2="429.472" y2="1629.230"/>
      <line x1="430.472" y1="1679.230" x2="430.472" y2="1629.230"/>
      <line x1="431.472" y1="1679.230" x2="431.472" y2="1629.230"/>
      <line x1="432.472" y1="1679.230" x2="432.472" y2="1629.230"/>
      <line x1="433.472" y1="1679.230" x2="433.472" y2="1629.230"/>
      <line x1="434.472" y1="1679.230" x2="434.472" y2="1629.230"/>
      <line x1="435.472" y1="1679.230" x2="435.472" y2="1629.230"/>
      <line x1="436.472" y1="1679.230" x2="436.472" y2="1629.230"/>
      <line x1="437.472" y1="1679.230" x2="437.472" y2="1629.230"/>
      <line x1="438.472" y1="1679.230" x2="438.472" y2="1629.230"/>
      <line x1="439.472" y1="1679.230" x2="439.472" y2="1629.230"/>
      <line x1="440.472" y1="1679.230" x2="440.472" y2="1629.230"/>
      <line x1="441.472" y1="1679.230" x2="441.472" y2="1629.230"/>
      <line x1="442.472" y1="1679.230" x2="442.472" y2="1629.230"/>
      <line x1="443.472" y1="1679.230" x2="443.472" y2="1629.230"/>
      <line x1="444.472" y1="1679.230" x2="444.472" y2="1629.230"/>
      <line x1="445.472" y1="1679.230" x2="445.472" y2="1629.230"/>
      <line x1="446.472" y1="1679.230" x2="446.472" y2="1629.230"/>
      <line x1="447.472" y1="1679.230" x2="447.472" y2="1629.230"/>
      <line x1="448.472" y1="1679.230" x2="448.472" y2="1629.230"/>
      <line x1="449.472" y1="1679.230" x2="449.472" y2="1629.230"/>
      <line x1="450.472" y1="1679.230" x2="450.472" y2="1629.230"/>
      <line x1="451.472" y1="1679.230" x2="451.472" y2="1629.230"/>
      <line x1="452.472" y1="1679.230" x2="452.472" y2="1629.230"/>
      <line x1="453.472" y1="1679.230" x2="453.472" y2="1629.230"/>
      <line x1="454.472" y1="1679.230" x2="454.472" y2="1629.230"/>
      <line x1="455.472" y1="1679.230" x2="455.472" y2="1629.230"/>
      <line x1="456.472" y1="1679.230" x2="456.472" y2="1629.230"/>
      <line x1="457.472" y1="1679.230" x2="457.472" y2="1629.230"/>
      <line x1="458.472" y1="1679.230" x2="458.472" y2="1629.230"/>
      <line x1="459.472" y1="1679.230" x2="459.472" y2="1629.230"/>
      <line x1="460.472" y1="1679.230" x2="460.472" y2="1629.230"/>
      <line x1="139.472" y1="1629.130" x2="139.472" y2="1579.130"/>
      <line x1="140.472" y1="1629.130" x2="140.472" y2="1579.130"/>
      <line x1="141.472" y1="1629.130" x2="141.472" y2="1579.130"/>
      <line x1="142.472" y1="1629.130" x2="142.472" y2="1579.130"/>
      <line x1="143.472" y1="1629.130" x2="143.472" y2="1579.130"/>
      <line x1="144.472" y1="1629.130" x2="144.472" y2="1579.130"/>
      <line x1="145.472" y1="1629.130" x2="145.472" y2="1579.130"/>
      <line x1="146.472" y1="1629.130" x2="146.472" y2="1579.130"/>
      <line x1="147.472" y1="1629.130" x2="147.472" y2="1579.130"/>
      <line x1="148.472" y1="1629.130" x2="148.472" y2="1579.130"/>
      <line x1="149.472" y1="1629.130" x2="149.472" y2="1579.130"/>
      <line x1="150.472" y1="1629.130" x2="150.472" y2="1579.130"/>
      <line x1="151.472" y1="1629.130" x2="151.472" y2="1579.130"/>
      <line x1="152.472" y1="1629.130" x2="152.472" y2="1579.130"/>
      <line x1="153.472" y1="1629.130" x2="153.472" y2="1579.130"/>
      <line x1="154.472" y1="1629.130" x2="154.472" y2="1579.130"/>
      <line x1="155.472" y1="1629.130" x2="155.472" y2="1579.130"/>
      <line x1="156.472" y1="1629.130" x2="156.472" y2="1579.130"/>
      <line x1="157.472" y1="1629.130" x2="157.472" y2="1579.130"/>
      <line x1="158.472" y1="1629.130" x2="158.472" y2="1579.130"/>
      <line x1="159.472" y1="1629.130" x2="159.472" y2="1579.130"/>
      <line x1="160.472" y1="1629.130" x2="160.472" y2="1579.130"/>
      <line x1="161.472" y1="1629.130" x2="161.472" y2="1579.130"/>
      <line x1="162.472" y1="1629.130" x2="162.472" y2="1579.130"/>
      <line x1="163.472" y1="1629.130" x2="163.472" y2="1579.130"/>
      <line x1="164.472" y1="1629.130" x2="164.472" y2="1579.130"/>
      <line x1="165.472" y1="1629.130" x2="165.472" y2="1579.130"/>
      <line x1="166.472" y1="1629.130" x2="166.472" y2="1579.130"/>
      <line x1="167.472" y1="1629.130" x2="167.472" y2="1579.130"/>
      <line x1="168.472" y1="1629.130" x2="168.472" y2="1579.130"/>
      <line x1="169.472" y1="1629.130" x2="169.472" y2="1579.130"/>
      <line x1="170.472" y1="1629.130" x2="170.472" y2="1579.130"/>
      <line x1="171.472" y1="1629.130" x2="171.472" y2="1579.130"/>
      <line x1="172.472" y1="1629.130" x2="172.472" y2="1579.130"/>
      <line x1="173.472" y1="1629.130" x2="173.472" y2="1579.130"/>
      <line x1="174.472" y1="1629.130" x2="174.472" y2="1579.130"/>
      <line x1="175.472" y1="1629.130" x2="175.472" y2="1579.130"/>
      <line x1="176.472" y1="1629.130" x2="176.472" y2="1579.130"/>
      <line x1="177.472" y1="1629.130" x2="177.472" y2="1579.130"/>
      <line x1="178.472" y1="1629.130" x2="178.472" y2="1579.130"/>
      <line x1="179.472" y1="1629.130" x2="179.472" y2="1579.130"/>
      <line x1="180.472" y1="1629.130" x2="180.472" y2="1579.130"/>
      <line x1="181.472" y1="1629.130" x2="181.472" y2="1579.130"/>
      <line x1="182.472" y1="1629.130" x2="182.472" y2="1579.130"/>
      <line x1="183.472" y1="1629.130" x2="183.472" y2="1579.130"/>
      <line x1="184.472" y1="1629.130" x2="184.472" y2="1579.130"/>
      <line x1="185.472" y1="1629.130" x2="185.472" y2="1579.130"/>
      <line x1="186.472" y1="1629.130" x2="186.472" y2="1579.130"/>
      <line x1="187.472" y1="1629.130" x2="187.472" y2="1579.130"/>
      <line x1="188.472" y1="1629.130" x2="188.472" y2="1579.130"/>
      <line x1="189.472" y1="1629.130" x2="189.472" y2="1579.130"/>
      <line x1="190.472" y1="1629.130" x2="190.472" y2="1579.130"/>
      <line x1="191.472" y1="1629.130" x2="191.472" y2="1579.130"/>
      <line x1="192.472" y1="1629.130" x2="192.472" y2="1579.130"/>
      <line x1="193.472" y1="1629.130" x2="193.472" y2="1579.130"/>
      <line x1="194.472" y1="1629.130" x2="194.472" y2="1579.130"/>
      <line x1="195.472" y1="1629.130" x2="195.472" y2="1579.130"/>
      <line x1="196.472" y1="1629.130" x2="196.472" y2="1579.130"/>
      <line x1="197.472" y1="1629.130" x2="197.472" y2="1579.130"/>
      <line x1="198.472" y1="1629.130" x2="198.472" y2="1579.130"/>
      <line x1="199.472" y1="1629.130" x2="199.472" y2="1579.130"/>
      <line x1="200.472" y1="1629.130" x2="200.472" y2="1579.130"/>
      <line x1="201.472" y1="1629.130" x2="201.472" y2="1579.130"/>
      <line x1="202.472" y1="1629.130" x2="202.472" y2="1579.130"/>
      <line x1="203.472" y1="1629.130" x2="203.472" y2="1579.130"/>
      <line x1="204.472" y1="1629.130" x2="204.472" y2="1579.130"/>
      <line x1="205.472" y1="1629.130" x2="205.472" y2="1579.130"/>
      <line x1="206.472" y1="1629.130" x2="206.472" y2="1579.130"/>
      <line x1="207.472" y1="1629.130" x2="207.472" y2="1579.130"/>
      <line x1="208.472" y1="1629.130" x2="208.472" y2="1579.130"/>
      <line x1="209.472" y1="1629.130" x2="209.472" y2="1579.130"/>
      <line x1="210.472" y1="1629.130" x2="210.472" y2="1579.130"/>
      <line x1="211.472" y1="1629.130" x2="211.472" y2="1579.130"/>
      <line x1="212.472" y1="1629.130" x2="212.472" y2="1579.130"/>
      <line x1="213.472" y1="1629.130" x2="213.472" y2="1579.130"/>
      <line x1="214.472" y1="1629.130" x2="214.472" y2="1579.130"/>
      <line x1="215.472" y1="1629.130" x2="215.472" y2="1579.130"/>
      <line x1="216.472" y1="1629.130" x2="216.472" y2="1579.130"/>
      <line x1="217.472" y1="1629.130" x2="217.472" y2="1579.130"/>
      <line x1="218.472" y1="1629.130" x2="218.472" y2="1579.130"/>
      <line x1="219.472" y1="1629.130" x2="219.472" y2="1579.130"/>
      <line x1="220.472" y1="1629.130" x2="220.472" y2="1579.130"/>
      <line x1="221.472" y1="1629.130" x2="221.472" y2="1579.130"/>
      <line x1="222.472" y1="1629.130" x2="222.472" y2="1579.130"/>
      <line x1="223.472" y1="1629.130" x2="223.472" y2="1579.130"/>
      <line x1="224.472" y1="1629.130" x2="224.472" y2="1579.130"/>
      <line x1="225.472" y1="1629.130" x2="225.472" y2="1579.130"/>
      <line x1="226.472" y1="1629.130" x2="226.472" y2="1579.130"/>
      <line x1="227.472" y1="1629.130" x2="227.472" y2="1579.130"/>
      <line x1="228.472" y1="1629.130" x2="228.472" y2="1579.130"/>
      <line x1="229.472" y1="1629.130" x2="229.472" y2="1579.130"/>
      <line x1="230.472" y1="1629.130" x2="230.472" y2="1579.130"/>
      <line x1="231.472" y1="1629.130" x2="231.472" y2="1579.130"/>
      <line x1="232.472" y1="1629.130" x2="232.472" y2="1579.130"/>
      <line x1="233.472" y1="1629.130" x2="233.472" y2="1579.130"/>
      <line x1="234.472" y1="1629.130" x2="234.472" y2="1579.130"/>
      <line x1="235.472" y1="1629.130" x2="235.472" y2="1579.130"/>
      <line x1="236.472" y1="1629.130" x2="236.472" y2="1579.130"/>
      <line x1="237.472" y1="1629.130" x2="237.472" y2="1579.130"/>
      <line x1="238.472" y1="1629.130" x2="238.472" y2="1579.130"/>
      <line x1="239.472" y1="1629.130" x2="239.472" y2="1579.130"/>
      <line x1="240.472" y1="1629.130" x2="240.472" y2="1579.130"/>
      <line x1="241.472" y1="1629.130" x2="241.472" y2="1579.130"/>
      <line x1="242.472" y1="1629.130" x2="242.472" y2="1579.130"/>
      <line x1="243.472" y1="1629.130" x2="243.472" y2="1579.130"/>
      <line x1="244.472" y1="1629.130" x2="244.472" y2="1579.130"/>
      <line x1="245.472" y1="1629.130" x2="245.472" y2="1579.130"/>
      <line x1="246.472" y1="1629.130" x2="246.472" y2="1579.130"/>
      <line x1="247.472" y1="1629.130" x2="247.472" y2="1579.130"/>
      <line x1="248.472" y1="1629.130" x2="248.472" y2="1579.130"/>
      <line x1="249.472" y1="1629.130" x2="249.472" y2="1579.130"/>
      <line x1="250.472" y1="1629.130" x2="250.472" y2="1579.130"/>
      <line x1="251.472" y1="1629.130" x2="251.472" y2="1579.130"/>
      <line x1="252.472" y1="1629.130" x2="252.472" y2="1579.130"/>
      <line x1="253.472" y1="1629.130" x2="253.472" y2="1579.130"/>
      <line x1="254.472" y1="1629.130" x2="254.472" y2="1579.130"/>
      <line x1="255.472" y1="1629.130" x2="255.472" y2="1579.130"/>
      <line x1="256.472" y1="1629.130" x2="256.472" y2="1579.130"/>
      <line x1="257.472" y1="1629.130" x2="257.472" y2="1579.130"/>
      <line x1="258.472" y1="1629.130" x2="258.472" y2="1579.130"/>
      <line x1="259.472" y1="1629.130" x2="259.472" y2="1579.130"/>
      <line x1="260.472" y1="1629.130" x2="260.472" y2="1579.130"/>
      <line x1="261.472" y1="1629.130" x2="261.472" y2="1579.130"/>
      <line x1="262.472" y1="1629.130" x2="262.472" y2="1579.130"/>
      <line x1="263.472" y1="1629.130" x2="263.472" y2="1579.130"/>
      <line x1="264.472" y1="1629.130" x2="264.472" y2="1579.130"/>
      <line x1="265.472" y1="1629.130" x2="265.472" y2="1579.130"/>
      <line x1="266.472" y1="1629.130" x2="266.472" y2="1579.130"/>
      <line x1="267.472" y1="1629.130" x2="267.472" y2="1579.130"/>
      <line x1="268.472" y1="1629.130" x2="268.472" y2="1579.130"/>
      <line x1="269.472" y1="1629.130" x2="269.472" y2="1579.130"/>
      <line x1="270.472" y1="1629.130" x2="270.472" y2="1579.130"/>
      <line x1="271.472" y1="1629.130" x2="271.472" y2="1579.130"/>
      <line x1="272.472" y1="1629.130" x2="272.472" y2="1579.130"/>
      <line x1="273.472" y1="1629.130" x2="273.472" y2="1579.130"/>
      <line x1="274.472" y1="1629.130" x2="274.472" y2="1579.130"/>
      <line x1="275.472" y1="1629.130" x2="275.472" y2="1579.130"/>
      <line x1="276.472" y1="1629.130" x2="276.472" y2="1579.130"/>
      <line x1="277.472" y1="1629.130" x2="277.472" y2="1579.130"/>
      <line x1="278.472" y1="1629.130" x2="278.472" y2="1579.130"/>
      <line x1="279.472" y1="1629.130" x2="279.472" y2="1579.130"/>
      <line x1="280.472" y1="1629.130" x2="280.472" y2="1579.130"/>
      <line x1="281.472" y1="1629.130" x2="281.472" y2="1579.130"/>
      <line x1="282.472" y1="1629.130" x2="282.472" y2="1579.130"/>
      <line x1="283.472" y1="1629.130" x2="283.472" y2="1579.130"/>
      <line x1="284.472" y1="1629.130" x2="284.472" y2="1579.130"/>
      <line x1="285.472" y1="1629.130" x2="285.472" y2="1579.130"/>
      <line x1="286.472" y1="1629.130" x2="286.472" y2="1579.130"/>
      <line x1="287.472" y1="1629.130" x2="287.472" y2="1579.130"/>
      <line x1="288.472" y1="1629.130" x2="288.472" y2="1579.130"/>
      <line x1="289.472" y1="1629.130" x2="289.472" y2="1579.130"/>
      <line x1="290.472" y1="1629.130" x2="290.472" y2="1579.130"/>
      <line x1="291.472" y1="1629.130" x2="291.472" y2="1579.130"/>
      <line x1="292.472" y1="1629.130" x2="292.472" y2="1579.130"/>
      <line x1="293.472" y1="1629.130" x2="293.472" y2="1579.130"/>
      <line x1="294.472" y1="1629.130" x2="294.472" y2="1579.130"/>
      <line x1="295.472" y1="1629.130" x2="295.472" y2="1579.130"/>
      <line x1="296.472" y1="1629.130" x2="296.472" y2="1579.130"/>
      <line x1="297.472" y1="1629.130" x2="297.472" y2="1579.130"/>
      <line x1="298.472" y1="1629.130" x2="298.472" y2="1579.130"/>
      <line x1="299.472" y1="1629.130" x2="299.472" y2="1579.130"/>
      <line x1="300.472" y1="1629.130" x2="300.472" y2="1579.130"/>
      <line x1="301.472" y1="1629.130" x2="301.472" y2="1579.130"/>
      <line x1="302.472" y1="1629.130" x2="302.472" y2="1579.130"/>
      <line x1="303.472" y1="1629.130" x2="303.472" y2="1579.130"/>
      <line x1="304.472" y1="1629.130" x2="304.472" y2="1579.130"/>
      <line x1="305.472" y1="1629.130" x2="305.472" y2="1579.130"/>
      <line x1="306.472" y1="1629.130" x2="306.472" y2="1579.130"/>
      <line x1="307.472" y1="1629.130" x2="307.472" y2="1579.130"/>
      <line x1="308.472" y1="1629.130" x2="308.472" y2="1579.130"/>
      <line x1="309.472" y1="1629.130" x2="309.472" y2="1579.130"/>
      <line x1="310.472" y1="1629.130" x2="310.472" y2="1579.130"/>
      <line x1="311.472" y1="1629.130" x2="311.472" y2="1579.130"/>
      <line x1="312.472" y1="1629.130" x2="312.472" y2="1579.130"/>
      <line x1="313.472" y1="1629.130" x2="313.472" y2="1579.130"/>
      <line x1="314.472" y1="1629.130" x2="314.472" y2="1579.130"/>
      <line x1="315.472" y1="1629.130" x2="315.472" y2="1579.130"/>
      <line x1="316.472" y1="1629.130" x2="316.472" y2="1579.130"/>
      <line x1="317.472" y1="1629.130" x2="317.472" y2="1579.130"/>
      <line x1="318.472" y1="1629.130" x2="318.472" y2="1579.130"/>
      <line x1="319.472" y1="1629.130" x2="319.472" y2="1579.130"/>
      <line x1="320.472" y1="1629.130" x2="320.472" y2="1579.130"/>
      <line x1="321.472" y1="1629.130" x2="321.472" y2="1579.130"/>
      <line x1="322.472" y1="1629.130" x2="322.472" y2="1579.130"/>
      <line x1="323.472" y1="1629.130" x2="323.472" y2="1579.130"/>
      <line x1="324.472" y1="1629.130" x2="324.472" y2="1579.130"/>
      <line x1="325.472" y1="1629.130" x2="325.472" y2="1579.130"/>
      <line x1="326.472" y1="1629.130" x2="326.472" y2="1579.130"/>
      <line x1="327.472" y1="1629.130" x2="327.472" y2="1579.130"/>
      <line x1="328.472" y1="1629.130" x2="328.472" y2="1579.130"/>
      <line x1="329.472" y1="1629.130" x2="329.472" y2="1579.130"/>
      <line x1="330.472" y1="1629.130" x2="330.472" y2="1579.130"/>
      <line x1="331.472" y1="1629.130" x2="331.472" y2="1579.130"/>
      <line x1="332.472" y1="1629.130" x2="332.472" y2="1579.130"/>
      <line x1="333.472" y1="1629.130" x2="333.472" y2="1579.130"/>
      <line x1="334.472" y1="1629.130" x2="334.472" y2="1579.130"/>
      <line x1="335.472" y1="1629.130" x2="335.472" y2="1579.130"/>
      <line x1="336.472" y1="1629.130" x2="336.472" y2="1579.130"/>
      <line x1="337.472" y1="1629.130" x2="337.472" y2="1579.130"/>
      <line x1="338.472" y1="1629.130" x2="338.472" y2="1579.130"/>
      <line x1="339.472" y1="1629.130" x2="339.472" y2="1579.130"/>
      <line x1="340.472" y1="1629.130" x2="340.472" y2="1579.130"/>
      <line x1="341.472" y1="1629.130" x2="341.472" y2="1579.130"/>
      <line x1="342.472" y1="1629.130" x2="342.472" y2="1579.130"/>
      <line x1="343.472" y1="1629.130" x2="343.472" y2="1579.130"/>
      <line x1="344.472" y1="1629.130" x2="344.472" y2="1579.130"/>
      <line x1="345.472" y1="1629.130" x2="345.472" y2="1579.130"/>
      <line x1="346.472" y1="1629.130" x2="346.472" y2="1579.130"/>
      <line x1="347.472" y1="1629.130" x2="347.472" y2="1579.130"/>
      <line x1="348.472" y1="1629.130" x2="348.472" y2="1579.130"/>
      <line x1="349.472" y1="1629.130" x2="349.472" y2="1579.130"/>
      <line x1="350.472" y1="1629.130" x2="350.472" y2="1579.130"/>
      <line x1="351.472" y1="1629.130" x2="351.472" y2="1579.130"/>
      <line x1="352.472" y1="1629.130" x2="352.472" y2="1579.130"/>
      <line x1="353.472" y1="1629.130" x2="353.472" y2="1579.130"/>
      <line x1="354.472" y1="1629.130" x2="354.472" y2="1579.130"/>
      <line x1="355.472" y1="1629.130" x2="355.472" y2="1579.130"/>
      <line x1="356.472" y1="1629.130" x2="356.472" y2="1579.130"/>
      <line x1="357.472" y1="1629.130" x2="357.472" y2="1579.130"/>
      <line x1="358.472" y1="1629.130" x2="358.472" y2="1579.130"/>
      <line x1="359.472" y1="1629.130" x2="359.472" y2="1579.130"/>
      <line x1="360.472" y1="1629.130" x2="360.472" y2="1579.130"/>
      <line x1="361.472" y1="1629.130" x2="361.472" y2="1579.130"/>
      <line x1="362.472" y1="1629.130" x2="362.472" y2="1579.130"/>
      <line x1="363.472" y1="1629.130" x2="363.472" y2="1579.130"/>
      <line x1="364.472" y1="1629.130" x2="364.472" y2="1579.130"/>
      <line x1="365.472" y1="1629.130" x2="365.472" y2="1579.130"/>
      <line x1="366.472" y1="1629.130" x2="366.472" y2="1579.130"/>
      <line x1="367.472" y1="1629.130" x2="367.472" y2="1579.130"/>
      <line x1="368.472" y1="1629.130" x2="368.472" y2="1579.130"/>
      <line x1="369.472" y1="1629.130" x2="369.472" y2="1579.130"/>
      <line x1="370.472" y1="1629.130" x2="370.472" y2="1579.130"/>
      <line x1="371.472" y1="1629.130" x2="371.472" y2="1579.130"/>
      <line x1="372.472" y1="1629.130" x2="372.472" y2="1579.130"/>
      <line x1="373.472" y1="1629.130" x2="373.472" y2="1579.130"/>
      <line x1="374.472" y1="1629.130" x2="374.472" y2="1579.130"/>
      <line x1="375.472" y1="1629.130" x2="375.472" y2="1579.130"/>
      <line x1="376.472" y1="1629.130" x2="376.472" y2="1579.130"/>
      <line x1="377.472" y1="1629.130" x2="377.472" y2="1579.130"/>
      <line x1="378.472" y1="1629.130" x2="378.472" y2="1579.130"/>
      <line x1="379.472" y1="1629.130" x2="379.472" y2="1579.130"/>
      <line x1="380.472" y1="1629.130" x2="380.472" y2="1579.130"/>
      <line x1="381.472" y1="1629.130" x2="381.472" y2="1579.130"/>
      <line x1="382.472" y1="1629.130" x2="382.472" y2="1579.130"/>
      <line x1="383.472" y1="1629.130" x2="383.472" y2="1579.130"/>
      <line x1="384.472" y1="1629.130" x2="384.472" y2="1579.130"/>
      <line x1="385.472" y1="1629.130" x2="385.472" y2="1579.130"/>
      <line x1="386.472" y1="1629.130" x2="386.472" y2="1579.130"/>
      <line x1="387.472" y1="1629.130" x2="387.472" y2="1579.130"/>
      <line x1="388.472" y1="1629.130" x2="388.472" y2="1579.130"/>
      <line x1="389.472" y1="1629.130" x2="389.472" y2="1579.130"/>
      <line x1="390.472" y1="1629.130" x2="390.472" y2="1579.130"/>
      <line x1="391.472" y1="1629.130" x2="391.472" y2="1579.130"/>
      <line x1="392.472" y1="1629.130" x2="392.472" y2="1579.130"/>
      <line x1="393.472" y1="1629.130" x2="393.472" y2="1579.130"/>
      <line x1="394.472" y1="1629.130" x2="394.472" y2="1579.130"/>
      <line x1="395.472" y1="1629.130" x2="395.472" y2="1579.130"/>
      <line x1="396.472" y1="1629.130" x2="396.472" y2="1579.130"/>
      <line x1="397.472" y1="1629.130" x2="397.472" y2="1579.130"/>
      <line x1="398.472" y1="1629.130" x2="398.472" y2="1579.130"/>
      <line x1="399.472" y1="1629.130" x2="399.472" y2="1579.130"/>
      <line x1="400.472" y1="1629.130" x2="400.472" y2="1579.130"/>
      <line x1="401.472" y1="1629.130" x2="401.472" y2="1579.130"/>
      <line x1="402.472" y1="1629.130" x2="402.472" y2="1579.130"/>
      <line x1="403.472" y1="1629.130" x2="403.472" y2="1579.130"/>
      <line x1="404.472" y1="1629.130" x2="404.472" y2="1579.130"/>
      <line x1="405.472" y1="1629.130" x2="405.472" y2="1579.130"/>
      <line x1="406.472" y1="1629.130" x2="406.472" y2="1579.130"/>
      <line x1="407.472" y1="1629.130" x2="407.472" y2="1579.130"/>
      <line x1="408.472" y1="1629.130" x2="408.472" y2="1579.130"/>
      <line x1="409.472" y1="1629.130" x2="409.472" y2="1579.130"/>
      <line x1="410.472" y1="1629.130" x2="410.472" y2="1579.130"/>
      <line x1="411.472" y1="1629.130" x2="411.472" y2="1579.130"/>
      <line x1="412.472" y1="1629.130" x2="412.472" y2="1579.130"/>
      <line x1="413.472" y1="1629.130" x2="413.472" y2="1579.130"/>
      <line x1="414.472" y1="1629.130" x2="414.472" y2="1579.130"/>
      <line x1="415.472" y1="1629.130" x2="415.472" y2="1579.130"/>
      <line x1="416.472" y1="1629.130" x2="416.472" y2="1579.130"/>
      <line x1="417.472" y1="1629.130" x2="417.472" y2="1579.130"/>
      <line x1="418.472" y1="1629.130" x2="418.472" y2="1579.130"/>
      <line x1="419.472" y1="1629.130" x2="419.472" y2="1579.130"/>
      <line x1="420.472" y1="1629.130" x2="420.472" y2="1579.130"/>
      <line x1="421.472" y1="1629.130" x2="421.472" y2="1579.130"/>
      <line x1="422.472" y1="1629.130" x2="422.472" y2="1579.130"/>
      <line x1="423.472" y1="1629.130" x2="423.472" y2="1579.130"/>
      <line x1="424.472" y1="1629.130" x2="424.472" y2="1579.130"/>
      <line x1="425.472" y1="1629.130" x2="425.472" y2="1579.130"/>
      <line x1="426.472" y1="1629.130" x2="426.472" y2="1579.130"/>
      <line x1="427.472" y1="1629.130" x2="427.472" y2="1579.130"/>
      <line x1="428.472" y1="1629.130" x2="428.472" y2="1579.130"/>
      <line x1="429.472" y1="1629.130" x2="429.472" y2="1579.130"/>
      <line x1="430.472" y1="1629.130" x2="430.472" y2="1579.130"/>
      <line x1="431.472" y1="1629.130" x2="431.472" y2="1579.130"/>
      <line x1="432.472" y1="1629.130" x2="432.472" y2="1579.130"/>
      <line x1="433.472" y1="1629.130" x2="433.472" y2="1579.130"/>
      <line x1="434.472" y1="1629.130" x2="434.472" y2="1579.130"/>
      <line x1="435.472" y1="1629.130" x2="435.472" y2="1579.130"/>
      <line x1="436.472" y1="1629.130" x2="436.472" y2="1579.130"/>
      <line x1="437.472" y1="1629.130" x2="437.472" y2="1579.130"/>
      <line x1="438.472" y1="1629.130" x2="438.472" y2="1579.130"/>
      <line x1="439.472" y1="1629.130" x2="439.472" y2="1579.130"/>
      <line x1="440.472" y1="1629.130" x2="440.472" y2="1579.130"/>
      <line x1="441.472" y1="1629.130" x2="441.472" y2="1579.130"/>
      <line x1="442.472" y1="1629.130" x2="442.472" y2="1579.130"/>
      <line x1="443.472" y1="1629.130" x2="443.472" y2="1579.130"/>
      <line x1="444.472" y1="1629.130" x2="444.472" y2="1579.130"/>
      <line x1="445.472" y1="1629.130" x2="445.472" y2="1579.130"/>
      <line x1="446.472" y1="1629.130" x2="446.472" y2="1579.130"/>
      <line x1="447.472" y1="1629.130" x2="447.472" y2="1579.130"/>
      <line x1="448.472" y1="1629.130" x2="448.472" y2="1579.130"/>
      <line x1="449.472" y1="1629.130" x2="449.472" y2="1579.130"/>
      <line x1="450.472" y1="1629.130" x2="450.472" y2="1579.130"/>
      <line x1="451.472" y1="1629.130" x2="451.472" y2="1579.130"/>
      <line x1="452.472" y1="1629.130" x2="452.472" y2="1579.130"/>
      <line x1="453.472" y1="1629.130" x2="453.472" y2="1579.130"/>
      <line x1="454.472" y1="1629.130" x2="454.472" y2="1579.130"/>
      <line x1="455.472" y1="1629.130" x2="455.472" y2="1579.130"/>
      <line x1="456.472" y1="1629.130" x2="456.472" y2="1579.130"/>
      <line x1="457.472" y1="1629.130" x2="457.472" y2="1579.130"/>
      <line x1="458.472" y1="1629.130" x2="458.472" y2="1579.130"/>
      <line x1="459.472" y1="1629.130" x2="459.472" y2="1579.130"/>
      <line x1="460.472" y1="1629.130" x2="460.472" y2="1579.130"/>
      <line x1="139.472" y1="1579.030" x2="139.472" y2="1529.030"/>
      <line x1="140.472" y1="1579.030" x2="140.472" y2="1529.030"/>
      <line x1="141.472" y1="1579.030" x2="141.472" y2="1529.030"/>
      <line x1="142.472" y1="1579.030" x2="142.472" y2="1529.030"/>
      <line x1="143.472" y1="1579.030" x2="143.472" y2="1529.030"/>
      <line x1="144.472" y1="1579.030" x2="144.472" y2="1529.030"/>
      <line x1="145.472" y1="1579.030" x2="145.472" y2="1529.030"/>
      <line x1="146.472" y1="1579.030" x2="146.472" y2="1529.030"/>
      <line x1="147.472" y1="1579.030" x2="147.472" y2="1529.030"/>
      <line x1="148.472" y1="1579.030" x2="148.472" y2="1529.030"/>
      <line x1="149.472" y1="1579.030" x2="149.472" y2="1529.030"/>
      <line x1="150.472" y1="1579.030" x2="150.472" y2="1529.030"/>
      <line x1="151.472" y1="1579.030" x2="151.472" y2="1529.030"/>
      <line x1="152.472" y1="1579.030" x2="152.472" y2="1529.030"/>
      <line x1="153.472" y1="1579.030" x2="153.472" y2="1529.030"/>
      <line x1="154.472" y1="1579.030" x2="154.472" y2="1529.030"/>
      <line x1="155.472" y1="1579.030" x2="155.472" y2="1529.030"/>
      <line x1="156.472" y1="1579.030" x2="156.472" y2="1529.030"/>
      <line x1="157.472" y1="1579.030" x2="157.472" y2="1529.030"/>
      <line x1="158.472" y1="1579.030" x2="158.472" y2="1529.030"/>
      <line x1="159.472" y1="1579.030" x2="159.472" y2="1529.030"/>
      <line x1="160.472" y1="1579.030" x2="160.472" y2="1529.030"/>
      <line x1="161.472" y1="1579.030" x2="161.472" y2="1529.030"/>
      <line x1="162.472" y1="1579.030" x2="162.472" y2="1529.030"/>
      <line x1="163.472" y1="1579.030" x2="163.472" y2="1529.030"/>
      <line x1="164.472" y1="1579.030" x2="164.472" y2="1529.030"/>
      <line x1="165.472" y1="1579.030" x2="165.472" y2="1529.030"/>
      <line x1="166.472" y1="1579.030" x2="166.472" y2="1529.030"/>
      <line x1="167.472" y1="1579.030" x2="167.472" y2="1529.030"/>
      <line x1="168.472" y1="1579.030" x2="168.472" y2="1529.030"/>
      <line x1="169.472" y1="1579.030" x2="169.472" y2="1529.030"/>
      <line x1="170.472" y1="1579.030" x2="170.472" y2="1529.030"/>
      <line x1="171.472" y1="1579.030" x2="171.472" y2="1529.030"/>
      <line x1="172.472" y1="1579.030" x2="172.472" y2="1529.030"/>
      <line x1="173.472" y1="1579.030" x2="173.472" y2="1529.030"/>
      <line x1="174.472" y1="1579.030" x2="174.472" y2="1529.030"/>
      <line x1="175.472" y1="1579.030" x2="175.472" y2="1529.030"/>
      <line x1="176.472" y1="1579.030" x2="176.472" y2="1529.030"/>
      <line x1="177.472" y1="1579.030" x2="177.472" y2="1529.030"/>
      <line x1="178.472" y1="1579.030" x2="178.472" y2="1529.030"/>
      <line x1="179.472" y1="1579.030" x2="179.472" y2="1529.030"/>
      <line x1="180.472" y1="1579.030" x2="180.472" y2="1529.030"/>
      <line x1="181.472" y1="1579.030" x2="181.472" y2="1529.030"/>
      <line x1="182.472" y1="1579.030" x2="182.472" y2="1529.030"/>
      <line x1="183.472" y1="1579.030" x2="183.472" y2="1529.030"/>
      <line x1="184.472" y1="1579.030" x2="184.472" y2="1529.030"/>
      <line x1="185.472" y1="1579.030" x2="185.472" y2="1529.030"/>
      <line x1="186.472" y1="1579.030" x2="186.472" y2="1529.030"/>
      <line x1="187.472" y1="1579.030" x2="187.472" y2="1529.030"/>
      <line x1="188.472" y1="1579.030" x2="188.472" y2="1529.030"/>
      <line x1="189.472" y1="1579.030" x2="189.472" y2="1529.030"/>
      <line x1="190.472" y1="1579.030" x2="190.472" y2="1529.030"/>
      <line x1="191.472" y1="1579.030" x2="191.472" y2="1529.030"/>
      <line x1="192.472" y1="1579.030" x2="192.472" y2="1529.030"/>
      <line x1="193.472" y1="1579.030" x2="193.472" y2="1529.030"/>
      <line x1="194.472" y1="1579.030" x2="194.472" y2="1529.030"/>
      <line x1="195.472" y1="1579.030" x2="195.472" y2="1529.030"/>
      <line x1="196.472" y1="1579.030" x2="196.472" y2="1529.030"/>
      <line x1="197.472" y1="1579.030" x2="197.472" y2="1529.030"/>
      <line x1="198.472" y1="1579.030" x2="198.472" y2="1529.030"/>
      <line x1="199.472" y1="1579.030" x2="199.472" y2="1529.030"/>
      <line x1="200.472" y1="1579.030" x2="200.472" y2="1529.030"/>
      <line x1="201.472" y1="1579.030" x2="201.472" y2="1529.030"/>
      <line x1="202.472" y1="1579.030" x2="202.472" y2="1529.030"/>
      <line x1="203.472" y1="1579.030" x2="203.472" y2="1529.030"/>
      <line x1="204.472" y1="1579.030" x2="204.472" y2="1529.030"/>
      <line x1="205.472" y1="1579.030" x2="205.472" y2="1529.030"/>
      <line x1="206.472" y1="1579.030" x2="206.472" y2="1529.030"/>
      <line x1="207.472" y1="1579.030" x2="207.472" y2="1529.030"/>
      <line x1="208.472" y1="1579.030" x2="208.472" y2="1529.030"/>
      <line x1="209.472" y1="1579.030" x2="209.472" y2="1529.030"/>
      <line x1="210.472" y1="1579.030" x2="210.472" y2="1529.030"/>
      <line x1="211.472" y1="1579.030" x2="211.472" y2="1529.030"/>
      <line x1="212.472" y1="1579.030" x2="212.472" y2="1529.030"/>
      <line x1="213.472" y1="1579.030" x2="213.472" y2="1529.030"/>
      <line x1="214.472" y1="1579.030" x2="214.472" y2="1529.030"/>
      <line x1="215.472" y1="1579.030" x2="215.472" y2="1529.030"/>
      <line x1="216.472" y1="1579.030" x2="216.472" y2="1529.030"/>
      <line x1="217.472" y1="1579.030" x2="217.472" y2="1529.030"/>
      <line x1="218.472" y1="1579.030" x2="218.472" y2="1529.030"/>
      <line x1="219.472" y1="1579.030" x2="219.472" y2="1529.030"/>
      <line x1="220.472" y1="1579.030" x2="220.472" y2="1529.030"/>
      <line x1="221.472" y1="1579.030" x2="221.472" y2="1529.030"/>
      <line x1="222.472" y1="1579.030" x2="222.472" y2="1529.030"/>
      <line x1="223.472" y1="1579.030" x2="223.472" y2="1529.030"/>
      <line x1="224.472" y1="1579.030" x2="224.472" y2="1529.030"/>
      <line x1="225.472" y1="1579.030" x2="225.472" y2="1529.030"/>
      <line x1="226.472" y1="1579.030" x2="226.472" y2="1529.030"/>
      <line x1="227.472" y1="1579.030" x2="227.472" y2="1529.030"/>
      <line x1="228.472" y1="1579.030" x2="228.472" y2="1529.030"/>
      <line x1="229.472" y1="1579.030" x2="229.472" y2="1529.030"/>
      <line x1="230.472" y1="1579.030" x2="230.472" y2="1529.030"/>
      <line x1="231.472" y1="1579.030" x2="231.472" y2="1529.030"/>
      <line x1="232.472" y1="1579.030" x2="232.472" y2="1529.030"/>
      <line x1="233.472" y1="1579.030" x2="233.472" y2="1529.030"/>
      <line x1="234.472" y1="1579.030" x2="234.472" y2="1529.030"/>
      <line x1="235.472" y1="1579.030" x2="235.472" y2="1529.030"/>
      <line x1="236.472" y1="1579.030" x2="236.472" y2="1529.030"/>
      <line x1="237.472" y1="1579.030" x2="237.472" y2="1529.030"/>
      <line x1="238.472" y1="1579.030" x2="238.472" y2="1529.030"/>
      <line x1="239.472" y1="1579.030" x2="239.472" y2="1529.030"/>
      <line x1="240.472" y1="1579.030" x2="240.472" y2="1529.030"/>
      <line x1="241.472" y1="1579.030" x2="241.472" y2="1529.030"/>
      <line x1="242.472" y1="1579.030" x2="242.472" y2="1529.030"/>
      <line x1="243.472" y1="1579.030" x2="243.472" y2="1529.030"/>
      <line x1="244.472" y1="1579.030" x2="244.472" y2="1529.030"/>
      <line x1="245.472" y1="1579.030" x2="245.472" y2="1529.030"/>
      <line x1="246.472" y1="1579.030" x2="246.472" y2="1529.030"/>
      <line x1="247.472" y1="1579.030" x2="247.472" y2="1529.030"/>
      <line x1="248.472" y1="1579.030" x2="248.472" y2="1529.030"/>
      <line x1="249.472" y1="1579.030" x2="249.472" y2="1529.030"/>
      <line x1="250.472" y1="1579.030" x2="250.472" y2="1529.030"/>
      <line x1="251.472" y1="1579.030" x2="251.472" y2="1529.030"/>
      <line x1="252.472" y1="1579.030" x2="252.472" y2="1529.030"/>
      <line x1="253.472" y1="1579.030" x2="253.472" y2="1529.030"/>
      <line x1="254.472" y1="1579.030" x2="254.472" y2="1529.030"/>
      <line x1="255.472" y1="1579.030" x2="255.472" y2="1529.030"/>
      <line x1="256.472" y1="1579.030" x2="256.472" y2="1529.030"/>
      <line x1="257.472" y1="1579.030" x2="257.472" y2="1529.030"/>
      <line x1="258.472" y1="1579.030" x2="258.472" y2="1529.030"/>
      <line x1="259.472" y1="1579.030" x2="259.472" y2="1529.030"/>
      <line x1="260.472" y1="1579.030" x2="260.472" y2="1529.030"/>
      <line x1="261.472" y1="1579.030" x2="261.472" y2="1529.030"/>
      <line x1="262.472" y1="1579.030" x2="262.472" y2="1529.030"/>
      <line x1="263.472" y1="1579.030" x2="263.472" y2="1529.030"/>
      <line x1="264.472" y1="1579.030" x2="264.472" y2="1529.030"/>
      <line x1="265.472" y1="1579.030" x2="265.472" y2="1529.030"/>
      <line x1="266.472" y1="1579.030" x2="266.472" y2="1529.030"/>
      <line x1="267.472" y1="1579.030" x2="267.472" y2="1529.030"/>
      <line x1="268.472" y1="1579.030" x2="268.472" y2="1529.030"/>
      <line x1="269.472" y1="1579.030" x2="269.472" y2="1529.030"/>
      <line x1="270.472" y1="1579.030" x2="270.472" y2="1529.030"/>
      <line x1="271.472" y1="1579.030" x2="271.472" y2="1529.030"/>
      <line x1="272.472" y1="1579.030" x2="272.472" y2="1529.030"/>
      <line x1="273.472" y1="1579.030" x2="273.472" y2="1529.030"/>
      <line x1="274.472" y1="1579.030" x2="274.472" y2="1529.030"/>
      <line x1="275.472" y1="1579.030" x2="275.472" y2="1529.030"/>
      <line x1="276.472" y1="1579.030" x2="276.472" y2="1529.030"/>
      <line x1="277.472" y1="1579.030" x2="277.472" y2="1529.030"/>
      <line x1="278.472" y1="1579.030" x2="278.472" y2="1529.030"/>
      <line x1="279.472" y1="1579.030" x2="279.472" y2="1529.030"/>
      <line x1="280.472" y1="1579.030" x2="280.472" y2="1529.030"/>
      <line x1="281.472" y1="1579.030" x2="281.472" y2="1529.030"/>
      <line x1="282.472" y1="1579.030" x2="282.472" y2="1529.030"/>
      <line x1="283.472" y1="1579.030" x2="283.472" y2="1529.030"/>
      <line x1="284.472" y1="1579.030" x2="284.472" y2="1529.030"/>
      <line x1="285.472" y1="1579.030" x2="285.472" y2="1529.030"/>
      <line x1="286.472" y1="1579.030" x2="286.472" y2="1529.030"/>
      <line x1="287.472" y1="1579.030" x2="287.472" y2="1529.030"/>
      <line x1="288.472" y1="1579.030" x2="288.472" y2="1529.030"/>
      <line x1="289.472" y1="1579.030" x2="289.472" y2="1529.030"/>
      <line x1="290.472" y1="1579.030" x2="290.472" y2="1529.030"/>
      <line x1="291.472" y1="1579.030" x2="291.472" y2="1529.030"/>
      <line x1="292.472" y1="1579.030" x2="292.472" y2="1529.030"/>
      <line x1="293.472" y1="1579.030" x2="293.472" y2="1529.030"/>
      <line x1="294.472" y1="1579.030" x2="294.472" y2="1529.030"/>
      <line x1="295.472" y1="1579.030" x2="295.472" y2="1529.030"/>
      <line x1="296.472" y1="1579.030" x2="296.472" y2="1529.030"/>
      <line x1="297.472" y1="1579.030" x2="297.472" y2="1529.030"/>
      <line x1="298.472" y1="1579.030" x2="298.472" y2="1529.030"/>
      <line x1="299.472" y1="1579.030" x2="299.472" y2="1529.030"/>
      <line x1="300.472" y1="1579.030" x2="300.472" y2="1529.030"/>
      <line x1="301.472" y1="1579.030" x2="301.472" y2="1529.030"/>
      <line x1="302.472" y1="1579.030" x2="302.472" y2="1529.030"/>
      <line x1="303.472" y1="1579.030" x2="303.472" y2="1529.030"/>
      <line x1="304.472" y1="1579.030" x2="304.472" y2="1529.030"/>
      <line x1="305.472" y1="1579.030" x2="305.472" y2="1529.030"/>
      <line x1="306.472" y1="1579.030" x2="306.472" y2="1529.030"/>
      <line x1="307.472" y1="1579.030" x2="307.472" y2="1529.030"/>
      <line x1="308.472" y1="1579.030" x2="308.472" y2="1529.030"/>
      <line x1="309.472" y1="1579.030" x2="309.472" y2="1529.030"/>
      <line x1="310.472" y1="1579.030" x2="310.472" y2="1529.030"/>
      <line x1="311.472" y1="1579.030" x2="311.472" y2="1529.030"/>
      <line x1="312.472" y1="1579.030" x2="312.472" y2="1529.030"/>
      <line x1="313.472" y1="1579.030" x2="313.472" y2="1529.030"/>
      <line x1="314.472" y1="1579.030" x2="314.472" y2="1529.030"/>
      <line x1="315.472" y1="1579.030" x2="315.472" y2="1529.030"/>
      <line x1="316.472" y1="1579.030" x2="316.472" y2="1529.030"/>
      <line x1="317.472" y1="1579.030" x2="317.472" y2="1529.030"/>
      <line x1="318.472" y1="1579.030" x2="318.472" y2="1529.030"/>
      <line x1="319.472" y1="1579.030" x2="319.472" y2="1529.030"/>
      <line x1="320.472" y1="1579.030" x2="320.472" y2="1529.030"/>
      <line x1="321.472" y1="1579.030" x2="321.472" y2="1529.030"/>
      <line x1="322.472" y1="1579.030" x2="322.472" y2="1529.030"/>
      <line x1="323.472" y1="1579.030" x2="323.472" y2="1529.030"/>
      <line x1="324.472" y1="1579.030" x2="324.472" y2="1529.030"/>
      <line x1="325.472" y1="1579.030" x2="325.472" y2="1529.030"/>
      <line x1="326.472" y1="1579.030" x2="326.472" y2="1529.030"/>
      <line x1="327.472" y1="1579.030" x2="327.472" y2="1529.030"/>
      <line x1="328.472" y1="1579.030" x2="328.472" y2="1529.030"/>
      <line x1="329.472" y1="1579.030" x2="329.472" y2="1529.030"/>
      <line x1="330.472" y1="1579.030" x2="330.472" y2="1529.030"/>
      <line x1="331.472" y1="1579.030" x2="331.472" y2="1529.030"/>
      <line x1="332.472" y1="1579.030" x2="332.472" y2="1529.030"/>
      <line x1="333.472" y1="1579.030" x2="333.472" y2="1529.030"/>
      <line x1="334.472" y1="1579.030" x2="334.472" y2="1529.030"/>
      <line x1="335.472" y1="1579.030" x2="335.472" y2="1529.030"/>
      <line x1="336.472" y1="1579.030" x2="336.472" y2="1529.030"/>
      <line x1="337.472" y1="1579.030" x2="337.472" y2="1529.030"/>
      <line x1="338.472" y1="1579.030" x2="338.472" y2="1529.030"/>
      <line x1="339.472" y1="1579.030" x2="339.472" y2="1529.030"/>
      <line x1="340.472" y1="1579.030" x2="340.472" y2="1529.030"/>
      <line x1="341.472" y1="1579.030" x2="341.472" y2="1529.030"/>
      <line x1="342.472" y1="1579.030" x2="342.472" y2="1529.030"/>
      <line x1="343.472" y1="1579.030" x2="343.472" y2="1529.030"/>
      <line x1="344.472" y1="1579.030" x2="344.472" y2="1529.030"/>
      <line x1="345.472" y1="1579.030" x2="345.472" y2="1529.030"/>
      <line x1="346.472" y1="1579.030" x2="346.472" y2="1529.030"/>
      <line x1="347.472" y1="1579.030" x2="347.472" y2="1529.030"/>
      <line x1="348.472" y1="1579.030" x2="348.472" y2="1529.030"/>
      <line x1="349.472" y1="1579.030" x2="349.472" y2="1529.030"/>
      <line x1="350.472" y1="1579.030" x2="350.472" y2="1529.030"/>
      <line x1="351.472" y1="1579.030" x2="351.472" y2="1529.030"/>
      <line x1="352.472" y1="1579.030" x2="352.472" y2="1529.030"/>
      <line x1="353.472" y1="1579.030" x2="353.472" y2="1529.030"/>
      <line x1="354.472" y1="1579.030" x2="354.472" y2="1529.030"/>
      <line x1="355.472" y1="1579.030" x2="355.472" y2="1529.030"/>
      <line x1="356.472" y1="1579.030" x2="356.472" y2="1529.030"/>
      <line x1="357.472" y1="1579.030" x2="357.472" y2="1529.030"/>
      <line x1="358.472" y1="1579.030" x2="358.472" y2="1529.030"/>
      <line x1="359.472" y1="1579.030" x2="359.472" y2="1529.030"/>
      <line x1="360.472" y1="1579.030" x2="360.472" y2="1529.030"/>
      <line x1="361.472" y1="1579.030" x2="361.472" y2="1529.030"/>
      <line x1="362.472" y1="1579.030" x2="362.472" y2="1529.030"/>
      <line x1="363.472" y1="1579.030" x2="363.472" y2="1529.030"/>
      <line x1="364.472" y1="1579.030" x2="364.472" y2="1529.030"/>
      <line x1="365.472" y1="1579.030" x2="365.472" y2="1529.030"/>
      <line x1="366.472" y1="1579.030" x2="366.472" y2="1529.030"/>
      <line x1="367.472" y1="1579.030" x2="367.472" y2="1529.030"/>
      <line x1="368.472" y1="1579.030" x2="368.472" y2="1529.030"/>
      <line x1="369.472" y1="1579.030" x2="369.472" y2="1529.030"/>
      <line x1="370.472" y1="1579.030" x2="370.472" y2="1529.030"/>
      <line x1="371.472" y1="1579.030" x2="371.472" y2="1529.030"/>
      <line x1="372.472" y1="1579.030" x2="372.472" y2="1529.030"/>
      <line x1="373.472" y1="1579.030" x2="373.472" y2="1529.030"/>
      <line x1="374.472" y1="1579.030" x2="374.472" y2="1529.030"/>
      <line x1="375.472" y1="1579.030" x2="375.472" y2="1529.030"/>
      <line x1="376.472" y1="1579.030" x2="376.472" y2="1529.030"/>
      <line x1="377.472" y1="1579.030" x2="377.472" y2="1529.030"/>
      <line x1="378.472" y1="1579.030" x2="378.472" y2="1529.030"/>
      <line x1="379.472" y1="1579.030" x2="379.472" y2="1529.030"/>
      <line x1="380.472" y1="1579.030" x2="380.472" y2="1529.030"/>
      <line x1="381.472" y1="1579.030" x2="381.472" y2="1529.030"/>
      <line x1="382.472" y1="1579.030" x2="382.472" y2="1529.030"/>
      <line x1="383.472" y1="1579.030" x2="383.472" y2="1529.030"/>
      <line x1="384.472" y1="1579.030" x2="384.472" y2="1529.030"/>
      <line x1="385.472" y1="1579.030" x2="385.472" y2="1529.030"/>
      <line x1="386.472" y1="1579.030" x2="386.472" y2="1529.030"/>
      <line x1="387.472" y1="1579.030" x2="387.472" y2="1529.030"/>
      <line x1="388.472" y1="1579.030" x2="388.472" y2="1529.030"/>
      <line x1="389.472" y1="1579.030" x2="389.472" y2="1529.030"/>
      <line x1="390.472" y1="1579.030" x2="390.472" y2="1529.030"/>
      <line x1="391.472" y1="1579.030" x2="391.472" y2="1529.030"/>
      <line x1="392.472" y1="1579.030" x2="392.472" y2="1529.030"/>
      <line x1="393.472" y1="1579.030" x2="393.472" y2="1529.030"/>
      <line x1="394.472" y1="1579.030" x2="394.472" y2="1529.030"/>
      <line x1="395.472" y1="1579.030" x2="395.472" y2="1529.030"/>
      <line x1="396.472" y1="1579.030" x2="396.472" y2="1529.030"/>
      <line x1="397.472" y1="1579.030" x2="397.472" y2="1529.030"/>
      <line x1="398.472" y1="1579.030" x2="398.472" y2="1529.030"/>
      <line x1="399.472" y1="1579.030" x2="399.472" y2="1529.030"/>
      <line x1="400.472" y1="1579.030" x2="400.472" y2="1529.030"/>
      <line x1="401.472" y1="1579.030" x2="401.472" y2="1529.030"/>
      <line x1="402.472" y1="1579.030" x2="402.472" y2="1529.030"/>
      <line x1="403.472" y1="1579.030" x2="403.472" y2="1529.030"/>
      <line x1="404.472" y1="1579.030" x2="404.472" y2="1529.030"/>
      <line x1="405.472" y1="1579.030" x2="405.472" y2="1529.030"/>
      <line x1="406.472" y1="1579.030" x2="406.472" y2="1529.030"/>
      <line x1="407.472" y1="1579.030" x2="407.472" y2="1529.030"/>
      <line x1="408.472" y1="1579.030" x2="408.472" y2="1529.030"/>
      <line x1="409.472" y1="1579.030" x2="409.472" y2="1529.030"/>
      <line x1="410.472" y1="1579.030" x2="410.472" y2="1529.030"/>
      <line x1="411.472" y1="1579.030" x2="411.472" y2="1529.030"/>
      <line x1="412.472" y1="1579.030" x2="412.472" y2="1529.030"/>
      <line x1="413.472" y1="1579.030" x2="413.472" y2="1529.030"/>
      <line x1="414.472" y1="1579.030" x2="414.472" y2="1529.030"/>
      <line x1="415.472" y1="1579.030" x2="415.472" y2="1529.030"/>
      <line x1="416.472" y1="1579.030" x2="416.472" y2="1529.030"/>
      <line x1="417.472" y1="1579.030" x2="417.472" y2="1529.030"/>
      <line x1="418.472" y1="1579.030" x2="418.472" y2="1529.030"/>
      <line x1="419.472" y1="1579.030" x2="419.472" y2="1529.030"/>
      <line x1="420.472" y1="1579.030" x2="420.472" y2="1529.030"/>
      <line x1="421.472" y1="1579.030" x2="421.472" y2="1529.030"/>
      <line x1="422.472" y1="1579.030" x2="422.472" y2="1529.030"/>
      <line x1="423.472" y1="1579.030" x2="423.472" y2="1529.030"/>
      <line x1="424.472" y1="1579.030" x2="424.472" y2="1529.030"/>
      <line x1="425.472" y1="1579.030" x2="425.472" y2="1529.030"/>
      <line x1="426.472" y1="1579.030" x2="426.472" y2="1529.030"/>
      <line x1="427.472" y1="1579.030" x2="427.472" y2="1529.030"/>
      <line x1="428.472" y1="1579.030" x2="428.472" y2="1529.030"/>
      <line x1="429.472" y1="1579.030" x2="429.472" y2="1529.030"/>
      <line x1="430.472" y1="1579.030" x2="430.472" y2="1529.030"/>
      <line x1="431.472" y1="1579.030" x2="431.472" y2="1529.030"/>
      <line x1="432.472" y1="1579.030" x2="432.472" y2="1529.030"/>
      <line x1="433.472" y1="1579.030" x2="433.472" y2="1529.030"/>
      <line x1="434.472" y1="1579.030" x2="434.472" y2="1529.030"/>
      <line x1="435.472" y1="1579.030" x2="435.472" y2="1529.030"/>
      <line x1="436.472" y1="1579.030" x2="436.472" y2="1529.030"/>
      <line x1="437.472" y1="1579.030" x2="437.472" y2="1529.030"/>
      <line x1="438.472" y1="1579.030" x2="438.472" y2="1529.030"/>
      <line x1="439.472" y1="1579.030" x2="439.472" y2="1529.030"/>
      <line x1="440.472" y1="1579.030" x2="440.472" y2="1529.030"/>
      <line x1="441.472" y1="1579.030" x2="441.472" y2="1529.030"/>
      <line x1="442.472" y1="1579.030" x2="442.472" y2="1529.030"/>
      <line x1="443.472" y1="1579.030" x2="443.472" y2="1529.030"/>
      <line x1="444.472" y1="1579.030" x2="444.472" y2="1529.030"/>
      <line x1="445.472" y1="1579.030" x2="445.472" y2="1529.030"/>
      <line x1="446.472" y1="1579.030" x2="446.472" y2="1529.030"/>
      <line x1="447.472" y1="1579.030" x2="447.472" y2="1529.030"/>
      <line x1="448.472" y1="1579.030" x2="448.472" y2="1529.030"/>
      <line x1="449.472" y1="1579.030" x2="449.472" y2="1529.030"/>
      <line x1="450.472" y1="1579.030" x2="450.472" y2="1529.030"/>
      <line x1="451.472" y1="1579.030" x2="451.472" y2="1529.030"/>
      <line x1="452.472" y1="1579.030" x2="452.472" y2="1529.030"/>
      <line x1="453.472" y1="1579.030" x2="453.472" y2="1529.030"/>
      <line x1="454.472" y1="1579.030" x2="454.472" y2="1529.030"/>
      <line x1="455.472" y1="1579.030" x2="455.472" y2="1529.030"/>
      <line x1="456.472" y1="1579.030" x2="456.472" y2="1529.030"/>
      <line x1="457.472" y1="1579.030" x2="457.472" y2="1529.030"/>
      <line x1="458.472" y1="1579.030" x2="458.472" y2="1529.030"/>
      <line x1="459.472" y1="1579.030" x2="459.472" y2="1529.030"/>
      <line x1="460.472" y1="1579.030" x2="460.472" y2="1529.030"/>
      <line x1="179.472" y1="1528.930" x2="179.472" y2="1525.229"/>
      <line x1="152.472" y1="1528.930" x2="152.472" y2="1525.229"/>
      <line x1="178.472" y1="1528.930" x2="178.472" y2="1525.229"/>
      <line x1="177.472" y1="1528.930" x2="177.472" y2="1525.229"/>
      <line x1="176.472" y1="1528.930" x2="176.472" y2="1525.229"/>
      <line x1="175.472" y1="1528.930" x2="175.472" y2="1525.229"/>
      <line x1="174.472" y1="1528.930" x2="174.472" y2="1525.229"/>
      <line x1="173.472" y1="1528.930" x2="173.472" y2="1525.229"/>
      <line x1="172.472" y1="1528.930" x2="172.472" y2="1525.229"/>
      <line x1="171.472" y1="1528.930" x2="171.472" y2="1525.229"/>
      <line x1="170.472" y1="1528.930" x2="170.472" y2="1525.229"/>
      <line x1="169.472" y1="1528.930" x2="169.472" y2="1525.229"/>
      <line x1="168.472" y1="1528.930" x2="168.472" y2="1525.229"/>
      <line x1="167.472" y1="1528.930" x2="167.472" y2="1525.229"/>
      <line x1="166.472" y1="1528.930" x2="166.472" y2="1525.229"/>
      <line x1="165.472" y1="1528.930" x2="165.472" y2="1525.229"/>
      <line x1="164.472" y1="1528.930" x2="164.472" y2="1525.229"/>
      <line x1="163.472" y1="1528.930" x2="163.472" y2="1525.229"/>
      <line x1="162.472" y1="1528.930" x2="162.472" y2="1525.229"/>
      <line x1="161.472" y1="1528.930" x2="161.472" y2="1525.229"/>
      <line x1="160.472" y1="1528.930" x2="160.472" y2="1525.229"/>
      <line x1="159.472" y1="1528.930" x2="159.472" y2="1525.229"/>
      <line x1="158.472" y1="1528.930" x2="158.472" y2="1525.229"/>
      <line x1="157.472" y1="1528.930" x2="157.472" y2="1525.229"/>
      <line x1="156.472" y1="1528.930" x2="156.472" y2="1525.229"/>
      <line x1="155.472" y1="1528.930" x2="155.472" y2="1525.229"/>
      <line x1="154.472" y1="1528.930" x2="154.472" y2="1525.229"/>
      <line x1="153.472" y1="1528.930" x2="153.472" y2="1525.229"/>
      <line x1="180.472" y1="1528.930" x2="180.472" y2="1525.229"/>
      <line x1="188.472" y1="1528.930" x2="188.472" y2="1525.229"/>
      <line x1="187.472" y1="1528.930" x2="187.472" y2="1525.229"/>
      <line x1="186.472" y1="1528.930" x2="186.472" y2="1525.229"/>
      <line x1="185.472" y1="1528.930" x2="185.472" y2="1525.229"/>
      <line x1="184.472" y1="1528.930" x2="184.472" y2="1525.229"/>
      <line x1="183.472" y1="1528.930" x2="183.472" y2="1525.229"/>
      <line x1="182.472" y1="1528.930" x2="182.472" y2="1525.229"/>
      <line x1="181.472" y1="1528.930" x2="181.472" y2="1525.229"/>
      <line x1="151.472" y1="1528.930" x2="151.472" y2="1525.229"/>
      <line x1="150.472" y1="1528.930" x2="150.472" y2="1525.229"/>
      <line x1="149.472" y1="1528.930" x2="149.472" y2="1525.229"/>
      <line x1="148.472" y1="1528.930" x2="148.472" y2="1525.229"/>
      <line x1="147.472" y1="1528.930" x2="147.472" y2="1525.229"/>
      <line x1="146.472" y1="1528.930" x2="146.472" y2="1525.229"/>
      <line x1="145.472" y1="1528.930" x2="145.472" y2="1525.229"/>
      <line x1="144.472" y1="1528.930" x2="144.472" y2="1525.229"/>
      <line x1="143.472" y1="1528.930" x2="143.472" y2="1525.229"/>
      <line x1="142.472" y1="1528.930" x2="142.472" y2="1525.229"/>
      <line x1="141.472" y1="1528.930" x2="141.472" y2="1525.229"/>
      <line x1="140.472" y1="1528.930" x2="140.472" y2="1525.229"/>
      <line x1="139.472" y1="1528.930" x2="139.472" y2="1525.229"/>
      <line x1="194.472" y1="1528.930" x2="194.472" y2="1525.229"/>
      <line x1="207.472" y1="1528.930" x2="207.472" y2="1525.229"/>
      <line x1="206.472" y1="1528.930" x2="206.472" y2="1525.229"/>
      <line x1="205.472" y1="1528.930" x2="205.472" y2="1525.229"/>
      <line x1="204.472" y1="1528.930" x2="204.472" y2="1525.229"/>
      <line x1="203.472" y1="1528.930" x2="203.472" y2="1525.229"/>
      <line x1="202.472" y1="1528.930" x2="202.472" y2="1525.229"/>
      <line x1="201.472" y1="1528.930" x2="201.472" y2="1525.229"/>
      <line x1="200.472" y1="1528.930" x2="200.472" y2="1525.229"/>
      <line x1="199.472" y1="1528.930" x2="199.472" y2="1525.229"/>
      <line x1="198.472" y1="1528.930" x2="198.472" y2="1525.229"/>
      <line x1="197.472" y1="1528.930" x2="197.472" y2="1525.229"/>
      <line x1="196.472" y1="1528.930" x2="196.472" y2="1525.229"/>
      <line x1="195.472" y1="1528.930" x2="195.472" y2="1525.229"/>
      <line x1="193.472" y1="1528.930" x2="193.472" y2="1525.229"/>
      <line x1="192.472" y1="1528.930" x2="192.472" y2="1525.229"/>
      <line x1="191.472" y1="1528.930" x2="191.472" y2="1525.229"/>
      <line x1="190.472" y1="1528.930" x2="190.472" y2="1525.229"/>
      <line x1="189.472" y1="1528.930" x2="189.472" y2="1525.229"/>
      <line x1="209.472" y1="1528.930" x2="209.472" y2="1525.229"/>
      <line x1="210.472" y1="1528.930" x2="210.472" y2="1525.229"/>
      <line x1="211.472" y1="1528.930" x2="211.472" y2="1525.229"/>
      <line x1="212.472" y1="1528.930" x2="212.472" y2="1525.229"/>
      <line x1="213.472" y1="1528.930" x2="213.472" y2="1525.229"/>
      <line x1="214.472" y1="1528.930" x2="214.472" y2="1525.229"/>
      <line x1="215.472" y1="1528.930" x2="215.472" y2="1525.229"/>
      <line x1="216.472" y1="1528.930" x2="216.472" y2="1525.229"/>
      <line x1="217.472" y1="1528.930" x2="217.472" y2="1525.229"/>
      <line x1="208.472" y1="1528.930" x2="208.472" y2="1525.229"/>
      <line x1="238.472" y1="1528.930" x2="238.472" y2="1525.229"/>
      <line x1="237.472" y1="1528.930" x2="237.472" y2="1525.229"/>
      <line x1="227.472" y1="1528.930" x2="227.472" y2="1525.229"/>
      <line x1="218.472" y1="1528.930" x2="218.472" y2="1525.229"/>
      <line x1="219.472" y1="1528.930" x2="219.472" y2="1525.229"/>
      <line x1="220.472" y1="1528.930" x2="220.472" y2="1525.229"/>
      <line x1="221.472" y1="1528.930" x2="221.472" y2="1525.229"/>
      <line x1="222.472" y1="1528.930" x2="222.472" y2="1525.229"/>
      <line x1="223.472" y1="1528.930" x2="223.472" y2="1525.229"/>
      <line x1="224.472" y1="1528.930" x2="224.472" y2="1525.229"/>
      <line x1="225.472" y1="1528.930" x2="225.472" y2="1525.229"/>
      <line x1="226.472" y1="1528.930" x2="226.472" y2="1525.229"/>
      <line x1="228.472" y1="1528.930" x2="228.472" y2="1525.229"/>
      <line x1="229.472" y1="1528.930" x2="229.472" y2="1525.229"/>
      <line x1="230.472" y1="1528.930" x2="230.472" y2="1525.229"/>
      <line x1="231.472" y1="1528.930" x2="231.472" y2="1525.229"/>
      <line x1="232.472" y1="1528.930" x2="232.472" y2="1525.229"/>
      <line x1="233.472" y1="1528.930" x2="233.472" y2="1525.229"/>
      <line x1="234.472" y1="1528.930" x2="234.472" y2="1525.229"/>
      <line x1="235.472" y1="1528.930" x2="235.472" y2="1525.229"/>
      <line x1="236.472" y1="1528.930" x2="236.472" y2="1525.229"/>
      <line x1="248.472" y1="1528.930" x2="248.472" y2="1525.229"/>
      <line x1="239.472" y1="1528.930" x2="239.472" y2="1525.229"/>
      <line x1="240.472" y1="1528.930" x2="240.472" y2="1525.229"/>
      <line x1="241.472" y1="1528.930" x2="241.472" y2="1525.229"/>
      <line x1="242.472" y1="1528.930" x2="242.472" y2="1525.229"/>
      <line x1="243.472" y1="1528.930" x2="243.472" y2="1525.229"/>
      <line x1="244.472" y1="1528.930" x2="244.472" y2="1525.229"/>
      <line x1="245.472" y1="1528.930" x2="245.472" y2="1525.229"/>
      <line x1="246.472" y1="1528.930" x2="246.472" y2="1525.229"/>
      <line x1="247.472" y1="1528.930" x2="247.472" y2="1525.229"/>
      <line x1="249.472" y1="1528.930" x2="249.472" y2="1525.229"/>
      <line x1="250.472" y1="1528.930" x2="250.472" y2="1525.229"/>
      <line x1="251.472" y1="1528.930" x2="251.472" y2="1525.229"/>
      <line x1="252.472" y1="1528.930" x2="252.472" y2="1525.229"/>
      <line x1="253.472" y1="1528.930" x2="253.472" y2="1525.229"/>
      <line x1="254.472" y1="1528.930" x2="254.472" y2="1525.229"/>
      <line x1="255.472" y1="1528.930" x2="255.472" y2="1525.229"/>
      <line x1="256.472" y1="1528.930" x2="256.472" y2="1525.229"/>
      <line x1="257.472" y1="1528.930" x2="257.472" y2="1525.229"/>
      <line x1="258.472" y1="1528.930" x2="258.472" y2="1525.229"/>
      <line x1="279.472" y1="1528.930" x2="279.472" y2="1525.229"/>
      <line x1="280.472" y1="1528.930" x2="280.472" y2="1525.229"/>
      <line x1="281.472" y1="1528.930" x2="281.472" y2="1525.229"/>
      <line x1="282.472" y1="1528.930" x2="282.472" y2="1525.229"/>
      <line x1="283.472" y1="1528.930" x2="283.472" y2="1525.229"/>
      <line x1="284.472" y1="1528.930" x2="284.472" y2="1525.229"/>
      <line x1="285.472" y1="1528.930" x2="285.472" y2="1525.229"/>
      <line x1="286.472" y1="1528.930" x2="286.472" y2="1525.229"/>
      <line x1="287.472" y1="1528.930" x2="287.472" y2="1525.229"/>
      <line x1="288.472" y1="1528.930" x2="288.472" y2="1525.229"/>
      <line x1="278.472" y1="1528.930" x2="278.472" y2="1525.229"/>
      <line x1="268.472" y1="1528.930" x2="268.472" y2="1525.229"/>
      <line x1="259.472" y1="1528.930" x2="259.472" y2="1525.229"/>
      <line x1="260.472" y1="1528.930" x2="260.472" y2="1525.229"/>
      <line x1="261.472" y1="1528.930" x2="261.472" y2="1525.229"/>
      <line x1="262.472" y1="1528.930" x2="262.472" y2="1525.229"/>
      <line x1="263.472" y1="1528.930" x2="263.472" y2="1525.229"/>
      <line x1="264.472" y1="1528.930" x2="264.472" y2="1525.229"/>
      <line x1="265.472" y1="1528.930" x2="265.472" y2="1525.229"/>
      <line x1="266.472" y1="1528.930" x2="266.472" y2="1525.229"/>
      <line x1="267.472" y1="1528.930" x2="267.472" y2="1525.229"/>
      <line x1="269.472" y1="1528.930" x2="269.472" y2="1525.229"/>
      <line x1="270.472" y1="1528.930" x2="270.472" y2="1525.229"/>
      <line x1="271.472" y1="1528.930" x2="271.472" y2="1525.229"/>
      <line x1="272.472" y1="1528.930" x2="272.472" y2="1525.229"/>
      <line x1="273.472" y1="1528.930" x2="273.472" y2="1525.229"/>
      <line x1="274.472" y1="1528.930" x2="274.472" y2="1525.229"/>
      <line x1="275.472" y1="1528.930" x2="275.472" y2="1525.229"/>
      <line x1="276.472" y1="1528.930" x2="276.472" y2="1525.229"/>
      <line x1="277.472" y1="1528.930" x2="277.472" y2="1525.229"/>
      <line x1="330.472" y1="1528.930" x2="330.472" y2="1525.229"/>
      <line x1="320.472" y1="1528.930" x2="320.472" y2="1525.229"/>
      <line x1="321.472" y1="1528.930" x2="321.472" y2="1525.229"/>
      <line x1="322.472" y1="1528.930" x2="322.472" y2="1525.229"/>
      <line x1="323.472" y1="1528.930" x2="323.472" y2="1525.229"/>
      <line x1="324.472" y1="1528.930" x2="324.472" y2="1525.229"/>
      <line x1="325.472" y1="1528.930" x2="325.472" y2="1525.229"/>
      <line x1="326.472" y1="1528.930" x2="326.472" y2="1525.229"/>
      <line x1="327.472" y1="1528.930" x2="327.472" y2="1525.229"/>
      <line x1="328.472" y1="1528.930" x2="328.472" y2="1525.229"/>
      <line x1="329.472" y1="1528.930" x2="329.472" y2="1525.229"/>
      <line x1="319.472" y1="1528.930" x2="319.472" y2="1525.229"/>
      <line x1="331.472" y1="1528.930" x2="331.472" y2="1525.229"/>
      <line x1="332.472" y1="1528.930" x2="332.472" y2="1525.229"/>
      <line x1="333.472" y1="1528.930" x2="333.472" y2="1525.229"/>
      <line x1="334.472" y1="1528.930" x2="334.472" y2="1525.229"/>
      <line x1="335.472" y1="1528.930" x2="335.472" y2="1525.229"/>
      <line x1="336.472" y1="1528.930" x2="336.472" y2="1525.229"/>
      <line x1="337.472" y1="1528.930" x2="337.472" y2="1525.229"/>
      <line x1="338.472" y1="1528.930" x2="338.472" y2="1525.229"/>
      <line x1="309.472" y1="1528.930" x2="309.472" y2="1525.229"/>
      <line x1="300.472" y1="1528.930" x2="300.472" y2="1525.229"/>
      <line x1="301.472" y1="1528.930" x2="301.472" y2="1525.229"/>
      <line x1="302.472" y1="1528.930" x2="302.472" y2="1525.229"/>
      <line x1="303.472" y1="1528.930" x2="303.472" y2="1525.229"/>
      <line x1="304.472" y1="1528.930" x2="304.472" y2="1525.229"/>
      <line x1="305.472" y1="1528.930" x2="305.472" y2="1525.229"/>
      <line x1="306.472" y1="1528.930" x2="306.472" y2="1525.229"/>
      <line x1="307.472" y1="1528.930" x2="307.472" y2="1525.229"/>
      <line x1="308.472" y1="1528.930" x2="308.472" y2="1525.229"/>
      <line x1="310.472" y1="1528.930" x2="310.472" y2="1525.229"/>
      <line x1="311.472" y1="1528.930" x2="311.472" y2="1525.229"/>
      <line x1="312.472" y1="1528.930" x2="312.472" y2="1525.229"/>
      <line x1="313.472" y1="1528.930" x2="313.472" y2="1525.229"/>
      <line x1="314.472" y1="1528.930" x2="314.472" y2="1525.229"/>
      <line x1="315.472" y1="1528.930" x2="315.472" y2="1525.229"/>
      <line x1="316.472" y1="1528.930" x2="316.472" y2="1525.229"/>
      <line x1="317.472" y1="1528.930" x2="317.472" y2="1525.229"/>
      <line x1="318.472" y1="1528.930" x2="318.472" y2="1525.229"/>
      <line x1="289.472" y1="1528.930" x2="289.472" y2="1525.229"/>
      <line x1="290.472" y1="1528.930" x2="290.472" y2="1525.229"/>
      <line x1="291.472" y1="1528.930" x2="291.472" y2="1525.229"/>
      <line x1="292.472" y1="1528.930" x2="292.472" y2="1525.229"/>
      <line x1="293.472" y1="1528.930" x2="293.472" y2="1525.229"/>
      <line x1="294.472" y1="1528.930" x2="294.472" y2="1525.229"/>
      <line x1="295.472" y1="1528.930" x2="295.472" y2="1525.229"/>
      <line x1="296.472" y1="1528.930" x2="296.472" y2="1525.229"/>
      <line x1="297.472" y1="1528.930" x2="297.472" y2="1525.229"/>
      <line x1="298.472" y1="1528.930" x2="298.472" y2="1525.229"/>
      <line x1="299.472" y1="1528.930" x2="299.472" y2="1525.229"/>
      <line x1="382.472" y1="1528.930" x2="382.472" y2="1525.229"/>
      <line x1="383.472" y1="1528.930" x2="383.472" y2="1525.229"/>
      <line x1="384.472" y1="1528.930" x2="384.472" y2="1525.229"/>
      <line x1="385.472" y1="1528.930" x2="385.472" y2="1525.229"/>
      <line x1="386.472" y1="1528.930" x2="386.472" y2="1525.229"/>
      <line x1="388.472" y1="1528.930" x2="388.472" y2="1525.229"/>
      <line x1="387.472" y1="1528.930" x2="387.472" y2="1525.229"/>
      <line x1="339.472" y1="1528.930" x2="339.472" y2="1525.229"/>
      <line x1="340.472" y1="1528.930" x2="340.472" y2="1525.229"/>
      <line x1="371.472" y1="1528.930" x2="371.472" y2="1525.229"/>
      <line x1="361.472" y1="1528.930" x2="361.472" y2="1525.229"/>
      <line x1="362.472" y1="1528.930" x2="362.472" y2="1525.229"/>
      <line x1="363.472" y1="1528.930" x2="363.472" y2="1525.229"/>
      <line x1="364.472" y1="1528.930" x2="364.472" y2="1525.229"/>
      <line x1="365.472" y1="1528.930" x2="365.472" y2="1525.229"/>
      <line x1="366.472" y1="1528.930" x2="366.472" y2="1525.229"/>
      <line x1="367.472" y1="1528.930" x2="367.472" y2="1525.229"/>
      <line x1="368.472" y1="1528.930" x2="368.472" y2="1525.229"/>
      <line x1="369.472" y1="1528.930" x2="369.472" y2="1525.229"/>
      <line x1="370.472" y1="1528.930" x2="370.472" y2="1525.229"/>
      <line x1="360.472" y1="1528.930" x2="360.472" y2="1525.229"/>
      <line x1="372.472" y1="1528.930" x2="372.472" y2="1525.229"/>
      <line x1="373.472" y1="1528.930" x2="373.472" y2="1525.229"/>
      <line x1="374.472" y1="1528.930" x2="374.472" y2="1525.229"/>
      <line x1="375.472" y1="1528.930" x2="375.472" y2="1525.229"/>
      <line x1="376.472" y1="1528.930" x2="376.472" y2="1525.229"/>
      <line x1="377.472" y1="1528.930" x2="377.472" y2="1525.229"/>
      <line x1="378.472" y1="1528.930" x2="378.472" y2="1525.229"/>
      <line x1="379.472" y1="1528.930" x2="379.472" y2="1525.229"/>
      <line x1="380.472" y1="1528.930" x2="380.472" y2="1525.229"/>
      <line x1="350.472" y1="1528.930" x2="350.472" y2="1525.229"/>
      <line x1="341.472" y1="1528.930" x2="341.472" y2="1525.229"/>
      <line x1="342.472" y1="1528.930" x2="342.472" y2="1525.229"/>
      <line x1="343.472" y1="1528.930" x2="343.472" y2="1525.229"/>
      <line x1="344.472" y1="1528.930" x2="344.472" y2="1525.229"/>
      <line x1="345.472" y1="1528.930" x2="345.472" y2="1525.229"/>
      <line x1="346.472" y1="1528.930" x2="346.472" y2="1525.229"/>
      <line x1="347.472" y1="1528.930" x2="347.472" y2="1525.229"/>
      <line x1="348.472" y1="1528.930" x2="348.472" y2="1525.229"/>
      <line x1="349.472" y1="1528.930" x2="349.472" y2="1525.229"/>
      <line x1="381.472" y1="1528.930" x2="381.472" y2="1525.229"/>
      <line x1="351.472" y1="1528.930" x2="351.472" y2="1525.229"/>
      <line x1="352.472" y1="1528.930" x2="352.472" y2="1525.229"/>
      <line x1="353.472" y1="1528.930" x2="353.472" y2="1525.229"/>
      <line x1="354.472" y1="1528.930" x2="354.472" y2="1525.229"/>
      <line x1="355.472" y1="1528.930" x2="355.472" y2="1525.229"/>
      <line x1="356.472" y1="1528.930" x2="356.472" y2="1525.229"/>
      <line x1="357.472" y1="1528.930" x2="357.472" y2="1525.229"/>
      <line x1="358.472" y1="1528.930" x2="358.472" y2="1525.229"/>
      <line x1="359.472" y1="1528.930" x2="359.472" y2="1525.229"/>
      <line x1="393.472" y1="1528.930" x2="393.472" y2="1525.229"/>
      <line x1="406.472" y1="1528.930" x2="406.472" y2="1525.229"/>
      <line x1="420.472" y1="1528.930" x2="420.472" y2="1525.229"/>
      <line x1="419.472" y1="1528.930" x2="419.472" y2="1525.229"/>
      <line x1="418.472" y1="1528.930" x2="418.472" y2="1525.229"/>
      <line x1="417.472" y1="1528.930" x2="417.472" y2="1525.229"/>
      <line x1="416.472" y1="1528.930" x2="416.472" y2="1525.229"/>
      <line x1="415.472" y1="1528.930" x2="415.472" y2="1525.229"/>
      <line x1="414.472" y1="1528.930" x2="414.472" y2="1525.229"/>
      <line x1="413.472" y1="1528.930" x2="413.472" y2="1525.229"/>
      <line x1="412.472" y1="1528.930" x2="412.472" y2="1525.229"/>
      <line x1="411.472" y1="1528.930" x2="411.472" y2="1525.229"/>
      <line x1="410.472" y1="1528.930" x2="410.472" y2="1525.229"/>
      <line x1="409.472" y1="1528.930" x2="409.472" y2="1525.229"/>
      <line x1="408.472" y1="1528.930" x2="408.472" y2="1525.229"/>
      <line x1="407.472" y1="1528.930" x2="407.472" y2="1525.229"/>
      <line x1="405.472" y1="1528.930" x2="405.472" y2="1525.229"/>
      <line x1="404.472" y1="1528.930" x2="404.472" y2="1525.229"/>
      <line x1="403.472" y1="1528.930" x2="403.472" y2="1525.229"/>
      <line x1="402.472" y1="1528.930" x2="402.472" y2="1525.229"/>
      <line x1="401.472" y1="1528.930" x2="401.472" y2="1525.229"/>
      <line x1="400.472" y1="1528.930" x2="400.472" y2="1525.229"/>
      <line x1="399.472" y1="1528.930" x2="399.472" y2="1525.229"/>
      <line x1="398.472" y1="1528.930" x2="398.472" y2="1525.229"/>
      <line x1="397.472" y1="1528.930" x2="397.472" y2="1525.229"/>
      <line x1="396.472" y1="1528.930" x2="396.472" y2="1525.229"/>
      <line x1="395.472" y1="1528.930" x2="395.472" y2="1525.229"/>
      <line x1="394.472" y1="1528.930" x2="394.472" y2="1525.229"/>
      <line x1="392.472" y1="1528.930" x2="392.472" y2="1525.229"/>
      <line x1="422.472" y1="1528.930" x2="422.472" y2="1525.229"/>
      <line x1="438.472" y1="1528.930" x2="438.472" y2="1525.229"/>
      <line x1="437.472" y1="1528.930" x2="437.472" y2="1525.229"/>
      <line x1="436.472" y1="1528.930" x2="436.472" y2="1525.229"/>
      <line x1="434.472" y1="1528.930" x2="434.472" y2="1525.229"/>
      <line x1="421.472" y1="1528.930" x2="421.472" y2="1525.229"/>
      <line x1="423.472" y1="1528.930" x2="423.472" y2="1525.229"/>
      <line x1="424.472" y1="1528.930" x2="424.472" y2="1525.229"/>
      <line x1="425.472" y1="1528.930" x2="425.472" y2="1525.229"/>
      <line x1="426.472" y1="1528.930" x2="426.472" y2="1525.229"/>
      <line x1="427.472" y1="1528.930" x2="427.472" y2="1525.229"/>
      <line x1="429.472" y1="1528.930" x2="429.472" y2="1525.229"/>
      <line x1="435.472" y1="1528.930" x2="435.472" y2="1525.229"/>
      <line x1="433.472" y1="1528.930" x2="433.472" y2="1525.229"/>
      <line x1="432.472" y1="1528.930" x2="432.472" y2="1525.229"/>
      <line x1="430.472" y1="1528.930" x2="430.472" y2="1525.229"/>
      <line x1="428.472" y1="1528.930" x2="428.472" y2="1525.229"/>
      <line x1="431.472" y1="1528.930" x2="431.472" y2="1525.229"/>
      <line x1="391.472" y1="1528.930" x2="391.472" y2="1525.229"/>
      <line x1="390.472" y1="1528.930" x2="390.472" y2="1525.229"/>
      <line x1="389.472" y1="1528.930" x2="389.472" y2="1525.229"/>
      <line x1="448.472" y1="1528.930" x2="448.472" y2="1525.229"/>
      <line x1="447.472" y1="1528.930" x2="447.472" y2="1525.229"/>
      <line x1="446.472" y1="1528.930" x2="446.472" y2="1525.229"/>
      <line x1="445.472" y1="1528.930" x2="445.472" y2="1525.229"/>
      <line x1="444.472" y1="1528.930" x2="444.472" y2="1525.229"/>
      <line x1="443.472" y1="1528.930" x2="443.472" y2="1525.229"/>
      <line x1="442.472" y1="1528.930" x2="442.472" y2="1525.229"/>
      <line x1="441.472" y1="1528.930" x2="441.472" y2="1525.229"/>
      <line x1="440.472" y1="1528.930" x2="440.472" y2="1525.229"/>
      <line x1="439.472" y1="1528.930" x2="439.472" y2="1525.229"/>
      <line x1="450.472" y1="1528.930" x2="450.472" y2="1525.229"/>
      <line x1="449.472" y1="1528.930" x2="449.472" y2="1525.229"/>
      <line x1="451.472" y1="1528.930" x2="451.472" y2="1525.229"/>
      <line x1="452.472" y1="1528.930" x2="452.472" y2="1525.229"/>
      <line x1="453.472" y1="1528.930" x2="453.472" y2="1525.229"/>
      <line x1="454.472" y1="1528.930" x2="454.472" y2="1525.229"/>
      <line x1="455.472" y1="1528.930" x2="455.472" y2="1525.229"/>
      <line x1="456.472" y1="1528.930" x2="456.472" y2="1525.229"/>
      <line x1="457.472" y1="1528.930" x2="457.472" y2="1525.229"/>
      <line x1="458.472" y1="1528.930" x2="458.472" y2="1525.229"/>
      <line x1="459.472" y1="1528.930" x2="459.472" y2="1525.229"/>
      <line x1="460.472" y1="1528.930" x2="460.472" y2="1525.229"/>
    </g>
    <g stroke="#1976D2" stroke-width="0.4">
      <polyline points="464.668,1521.729 135.332,1521.729 135.332,1682.729 464.668,1682.729 464.668,1521.729" fill="none"/>
      <polyline points="463.668,1522.729 136.332,1522.729 136.332,1681.730 463.668,1681.730 463.668,1522.729" fill="none"/>
      <polyline points="462.668,1523.729 137.332,1523.729 137.332,1680.730 462.668,1680.730 462.668,1523.729" fill="none"/>
      <polyline points="461.668,1524.729 138.332,1524.729 138.332,1679.729 461.668,1679.729 461.668,1524.729" fill="none"/>
    </g>
    <g stroke="#C62828" stroke-width="0.4" fill="none">
    </g>
    <g stroke="#EF6C00" stroke-width="0.4" fill="none">
    </g>
  </g>
  <g stroke="#000000" stroke-width="0.4">
    <line x1="500.000" y1="1000.000" x2="1500.000" y2="1000.000"/>
  </g>
  <g stroke="#000000" stroke-width="0.4">
    <line x1="1000.000" y1="500.000" x2="1000.000" y2="1500.000"/>
  </g>
  <circle cx="1000.000" cy="1000.000" r="1000.000" stroke="red" stroke-width="1" fill="none"/>
  </g>
</svg>
