<?xml version="1.0" encoding="UTF-8"?>
<svg xmlns="http://www.w3.org/2000/svg" version="1.1" width="2000" height="2000">
  <g fill="none" stroke-linecap="round" stroke-linejoin="round">
  <text x="10" y="20" font-size="24" fill="#555">Layer 210 Z=54.000 mm</text>
  <g transform="translate(700.000,-602.229)">
    <g stroke="#2E7D32" stroke-width="0.4">
      <line x1="492.321" y1="1679.230" x2="492.321" y2="1629.230"/>
      <line x1="493.321" y1="1679.230" x2="493.321" y2="1629.230"/>
      <line x1="494.321" y1="1679.230" x2="494.321" y2="1629.230"/>
      <line x1="495.321" y1="1679.230" x2="495.321" y2="1629.230"/>
      <line x1="496.321" y1="1679.230" x2="496.321" y2="1629.230"/>
      <line x1="497.321" y1="1679.230" x2="497.321" y2="1629.230"/>
      <line x1="498.321" y1="1679.230" x2="498.321" y2="1629.230"/>
      <line x1="499.321" y1="1679.230" x2="499.321" y2="1629.230"/>
      <line x1="500.321" y1="1679.230" x2="500.321" y2="1629.230"/>
      <line x1="501.321" y1="1679.230" x2="501.321" y2="1629.230"/>
      <line x1="502.321" y1="1679.230" x2="502.321" y2="1629.230"/>
      <line x1="503.321" y1="1679.230" x2="503.321" y2="1629.230"/>
      <line x1="504.321" y1="1679.230" x2="504.321" y2="1629.230"/>
      <line x1="505.321" y1="1679.230" x2="505.321" y2="1629.230"/>
      <line x1="506.321" y1="1679.230" x2="506.321" y2="1629.230"/>
      <line x1="507.321" y1="1679.230" x2="507.321" y2="1629.230"/>
      <line x1="508.321" y1="1679.230" x2="508.321" y2="1629.230"/>
      <line x1="509.321" y1="1679.230" x2="509.321" y2="1629.230"/>
      <line x1="510.321" y1="1679.230" x2="510.321" y2="1629.230"/>
      <line x1="511.321" y1="1679.230" x2="511.321" y2="1629.230"/>
      <line x1="512.321" y1="1679.230" x2="512.321" y2="1629.230"/>
      <line x1="513.321" y1="1679.230" x2="513.321" y2="1629.230"/>
      <line x1="514.321" y1="1679.230" x2="514.321" y2="1629.230"/>
      <line x1="515.321" y1="1679.230" x2="515.321" y2="1629.230"/>
      <line x1="516.321" y1="1679.230" x2="516.321" y2="1629.230"/>
      <line x1="517.321" y1="1679.230" x2="517.321" y2="1629.230"/>
      <line x1="518.321" y1="1679.230" x2="518.321" y2="1629.230"/>
      <line x1="519.321" y1="1679.230" x2="519.321" y2="1629.230"/>
      <line x1="520.321" y1="1679.230" x2="520.321" y2="1629.230"/>
      <line x1="521.321" y1="1679.230" x2="521.321" y2="1629.230"/>
      <line x1="522.321" y1="1679.230" x2="522.321" y2="1629.230"/>
      <line x1="523.321" y1="1679.230" x2="523.321" y2="1629.230"/>
      <line x1="524.321" y1="1679.230" x2="524.321" y2="1629.230"/>
      <line x1="525.321" y1="1679.230" x2="525.321" y2="1629.230"/>
      <line x1="526.321" y1="1679.230" x2="526.321" y2="1629.230"/>
      <line x1="527.321" y1="1679.230" x2="527.321" y2="1629.230"/>
      <line x1="528.321" y1="1679.230" x2="528.321" y2="1629.230"/>
      <line x1="529.321" y1="1679.230" x2="529.321" y2="1629.230"/>
      <line x1="530.321" y1="1679.230" x2="530.321" y2="1629.230"/>
      <line x1="531.321" y1="1679.230" x2="531.321" y2="1629.230"/>
      <line x1="532.321" y1="1679.230" x2="532.321" y2="1629.230"/>
      <line x1="533.321" y1="1679.230" x2="533.321" y2="1629.230"/>
      <line x1="534.321" y1="1679.230" x2="534.321" y2="1629.230"/>
      <line x1="535.321" y1="1679.230" x2="535.321" y2="1629.230"/>
      <line x1="536.321" y1="1679.230" x2="536.321" y2="1629.230"/>
      <line x1="537.321" y1="1679.230" x2="537.321" y2="1629.230"/>
      <line x1="538.321" y1="1679.230" x2="538.321" y2="1629.230"/>
      <line x1="539.321" y1="1679.230" x2="539.321" y2="1629.230"/>
      <line x1="540.321" y1="1679.230" x2="540.321" y2="1629.230"/>
      <line x1="541.321" y1="1679.230" x2="541.321" y2="1629.230"/>
      <line x1="542.321" y1="1679.230" x2="542.321" y2="1629.230"/>
      <line x1="543.321" y1="1679.230" x2="543.321" y2="1629.230"/>
      <line x1="544.321" y1="1679.230" x2="544.321" y2="1629.230"/>
      <line x1="545.321" y1="1679.230" x2="545.321" y2="1629.230"/>
      <line x1="546.321" y1="1679.230" x2="546.321" y2="1629.230"/>
      <line x1="547.321" y1="1679.230" x2="547.321" y2="1629.230"/>
      <line x1="548.321" y1="1679.230" x2="548.321" y2="1629.230"/>
      <line x1="549.321" y1="1679.230" x2="549.321" y2="1629.230"/>
      <line x1="550.321" y1="1679.230" x2="550.321" y2="1629.230"/>
      <line x1="551.321" y1="1679.230" x2="551.321" y2="1629.230"/>
      <line x1="552.321" y1="1679.230" x2="552.321" y2="1629.230"/>
      <line x1="553.321" y1="1679.230" x2="553.321" y2="1629.230"/>
      <line x1="554.321" y1="1679.230" x2="554.321" y2="1629.230"/>
      <line x1="555.321" y1="1679.230" x2="555.321" y2="1629.230"/>
      <line x1="556.321" y1="1679.230" x2="556.321" y2="1629.230"/>
      <line x1="557.321" y1="1679.230" x2="557.321" y2="1629.230"/>
      <line x1="558.321" y1="1679.230" x2="558.321" y2="1629.230"/>
      <line x1="559.321" y1="1679.230" x2="559.321" y2="1629.230"/>
      <line x1="560.321" y1="1679.230" x2="560.321" y2="1629.230"/>
      <line x1="561.321" y1="1679.230" x2="561.321" y2="1629.230"/>
      <line x1="562.321" y1="1679.230" x2="562.321" y2="1629.230"/>
      <line x1="563.321" y1="1679.230" x2="563.321" y2="1629.230"/>
      <line x1="564.321" y1="1679.230" x2="564.321" y2="1629.230"/>
      <line x1="565.321" y1="1679.230" x2="565.321" y2="1629.230"/>
      <line x1="566.321" y1="1679.230" x2="566.321" y2="1629.230"/>
      <line x1="567.321" y1="1679.230" x2="567.321" y2="1629.230"/>
      <line x1="568.321" y1="1679.230" x2="568.321" y2="1629.230"/>
      <line x1="569.321" y1="1679.230" x2="569.321" y2="1629.230"/>
      <line x1="570.321" y1="1679.230" x2="570.321" y2="1629.230"/>
      <line x1="571.321" y1="1679.230" x2="571.321" y2="1629.230"/>
      <line x1="572.321" y1="1679.230" x2="572.321" y2="1629.230"/>
      <line x1="573.321" y1="1679.230" x2="573.321" y2="1629.230"/>
      <line x1="574.321" y1="1679.230" x2="574.321" y2="1629.230"/>
      <line x1="575.321" y1="1679.230" x2="575.321" y2="1629.230"/>
      <line x1="576.321" y1="1679.230" x2="576.321" y2="1629.230"/>
      <line x1="577.321" y1="1679.230" x2="577.321" y2="1629.230"/>
      <line x1="578.321" y1="1679.230" x2="578.321" y2="1629.230"/>
      <line x1="579.321" y1="1679.230" x2="579.321" y2="1629.230"/>
      <line x1="580.321" y1="1679.230" x2="580.321" y2="1629.230"/>
      <line x1="581.321" y1="1679.230" x2="581.321" y2="1629.230"/>
      <line x1="582.321" y1="1679.230" x2="582.321" y2="1629.230"/>
      <line x1="583.321" y1="1679.230" x2="583.321" y2="1629.230"/>
      <line x1="584.321" y1="1679.230" x2="584.321" y2="1629.230"/>
      <line x1="585.321" y1="1679.230" x2="585.321" y2="1629.230"/>
      <line x1="586.321" y1="1679.230" x2="586.321" y2="1629.230"/>
      <line x1="587.321" y1="1679.230" x2="587.321" y2="1629.230"/>
      <line x1="588.321" y1="1679.230" x2="588.321" y2="1629.230"/>
      <line x1="589.321" y1="1679.230" x2="589.321" y2="1629.230"/>
      <line x1="590.321" y1="1679.230" x2="590.321" y2="1629.230"/>
      <line x1="591.321" y1="1679.230" x2="591.321" y2="1629.230"/>
      <line x1="592.321" y1="1679.230" x2="592.321" y2="1629.230"/>
      <line x1="593.321" y1="1679.230" x2="593.321" y2="1629.230"/>
      <line x1="594.321" y1="1679.230" x2="594.321" y2="1629.230"/>
      <line x1="595.321" y1="1679.230" x2="595.321" y2="1629.230"/>
      <line x1="596.321" y1="1679.230" x2="596.321" y2="1629.230"/>
      <line x1="492.321" y1="1629.130" x2="492.321" y2="1579.130"/>
      <line x1="493.321" y1="1629.130" x2="493.321" y2="1579.130"/>
      <line x1="494.321" y1="1629.130" x2="494.321" y2="1579.130"/>
      <line x1="495.321" y1="1629.130" x2="495.321" y2="1579.130"/>
      <line x1="496.321" y1="1629.130" x2="496.321" y2="1579.130"/>
      <line x1="497.321" y1="1629.130" x2="497.321" y2="1579.130"/>
      <line x1="498.321" y1="1629.130" x2="498.321" y2="1579.130"/>
      <line x1="499.321" y1="1629.130" x2="499.321" y2="1579.130"/>
      <line x1="500.321" y1="1629.130" x2="500.321" y2="1579.130"/>
      <line x1="501.321" y1="1629.130" x2="501.321" y2="1579.130"/>
      <line x1="502.321" y1="1629.130" x2="502.321" y2="1579.130"/>
      <line x1="503.321" y1="1629.130" x2="503.321" y2="1579.130"/>
      <line x1="504.321" y1="1629.130" x2="504.321" y2="1579.130"/>
      <line x1="505.321" y1="1629.130" x2="505.321" y2="1579.130"/>
      <line x1="506.321" y1="1629.130" x2="506.321" y2="1579.130"/>
      <line x1="507.321" y1="1629.130" x2="507.321" y2="1579.130"/>
      <line x1="508.321" y1="1629.130" x2="508.321" y2="1579.130"/>
      <line x1="509.321" y1="1629.130" x2="509.321" y2="1579.130"/>
      <line x1="510.321" y1="1629.130" x2="510.321" y2="1579.130"/>
      <line x1="511.321" y1="1629.130" x2="511.321" y2="1579.130"/>
      <line x1="512.321" y1="1629.130" x2="512.321" y2="1579.130"/>
      <line x1="513.321" y1="1629.130" x2="513.321" y2="1579.130"/>
      <line x1="514.321" y1="1629.130" x2="514.321" y2="1579.130"/>
      <line x1="515.321" y1="1629.130" x2="515.321" y2="1579.130"/>
      <line x1="516.321" y1="1629.130" x2="516.321" y2="1579.130"/>
      <line x1="517.321" y1="1629.130" x2="517.321" y2="1579.130"/>
      <line x1="518.321" y1="1629.130" x2="518.321" y2="1579.130"/>
      <line x1="519.321" y1="1629.130" x2="519.321" y2="1579.130"/>
      <line x1="520.321" y1="1629.130" x2="520.321" y2="1579.130"/>
      <line x1="521.321" y1="1629.130" x2="521.321" y2="1579.130"/>
      <line x1="522.321" y1="1629.130" x2="522.321" y2="1579.130"/>
      <line x1="523.321" y1="1629.130" x2="523.321" y2="1579.130"/>
      <line x1="524.321" y1="1629.130" x2="524.321" y2="1579.130"/>
      <line x1="525.321" y1="1629.130" x2="525.321" y2="1579.130"/>
      <line x1="526.321" y1="1629.130" x2="526.321" y2="1579.130"/>
      <line x1="527.321" y1="1629.130" x2="527.321" y2="1579.130"/>
      <line x1="528.321" y1="1629.130" x2="528.321" y2="1579.130"/>
      <line x1="529.321" y1="1629.130" x2="529.321" y2="1579.130"/>
      <line x1="530.321" y1="1629.130" x2="530.321" y2="1579.130"/>
      <line x1="531.321" y1="1629.130" x2="531.321" y2="1579.130"/>
      <line x1="532.321" y1="1629.130" x2="532.321" y2="1579.130"/>
      <line x1="533.321" y1="1629.130" x2="533.321" y2="1579.130"/>
      <line x1="534.321" y1="1629.130" x2="534.321" y2="1579.130"/>
      <line x1="535.321" y1="1629.130" x2="535.321" y2="1579.130"/>
      <line x1="536.321" y1="1629.130" x2="536.321" y2="1579.130"/>
      <line x1="537.321" y1="1629.130" x2="537.321" y2="1579.130"/>
      <line x1="538.321" y1="1629.130" x2="538.321" y2="1579.130"/>
      <line x1="539.321" y1="1629.130" x2="539.321" y2="1579.130"/>
      <line x1="540.321" y1="1629.130" x2="540.321" y2="1579.130"/>
      <line x1="541.321" y1="1629.130" x2="541.321" y2="1579.130"/>
      <line x1="542.321" y1="1629.130" x2="542.321" y2="1579.130"/>
      <line x1="543.321" y1="1629.130" x2="543.321" y2="1579.130"/>
      <line x1="544.321" y1="1629.130" x2="544.321" y2="1579.130"/>
      <line x1="545.321" y1="1629.130" x2="545.321" y2="1579.130"/>
      <line x1="546.321" y1="1629.130" x2="546.321" y2="1579.130"/>
      <line x1="547.321" y1="1629.130" x2="547.321" y2="1579.130"/>
      <line x1="548.321" y1="1629.130" x2="548.321" y2="1579.130"/>
      <line x1="549.321" y1="1629.130" x2="549.321" y2="1579.130"/>
      <line x1="550.321" y1="1629.130" x2="550.321" y2="1579.130"/>
      <line x1="551.321" y1="1629.130" x2="551.321" y2="1579.130"/>
      <line x1="552.321" y1="1629.130" x2="552.321" y2="1579.130"/>
      <line x1="553.321" y1="1629.130" x2="553.321" y2="1579.130"/>
      <line x1="554.321" y1="1629.130" x2="554.321" y2="1579.130"/>
      <line x1="555.321" y1="1629.130" x2="555.321" y2="1579.130"/>
      <line x1="556.321" y1="1629.130" x2="556.321" y2="1579.130"/>
      <line x1="557.321" y1="1629.130" x2="557.321" y2="1579.130"/>
      <line x1="558.321" y1="1629.130" x2="558.321" y2="1579.130"/>
      <line x1="559.321" y1="1629.130" x2="559.321" y2="1579.130"/>
      <line x1="560.321" y1="1629.130" x2="560.321" y2="1579.130"/>
      <line x1="561.321" y1="1629.130" x2="561.321" y2="1579.130"/>
      <line x1="562.321" y1="1629.130" x2="562.321" y2="1579.130"/>
      <line x1="563.321" y1="1629.130" x2="563.321" y2="1579.130"/>
      <line x1="564.321" y1="1629.130" x2="564.321" y2="1579.130"/>
      <line x1="565.321" y1="1629.130" x2="565.321" y2="1579.130"/>
      <line x1="566.321" y1="1629.130" x2="566.321" y2="1579.130"/>
      <line x1="567.321" y1="1629.130" x2="567.321" y2="1579.130"/>
      <line x1="568.321" y1="1629.130" x2="568.321" y2="1579.130"/>
      <line x1="569.321" y1="1629.130" x2="569.321" y2="1579.130"/>
      <line x1="570.321" y1="1629.130" x2="570.321" y2="1579.130"/>
      <line x1="571.321" y1="1629.130" x2="571.321" y2="1579.130"/>
      <line x1="572.321" y1="1629.130" x2="572.321" y2="1579.130"/>
      <line x1="573.321" y1="1629.130" x2="573.321" y2="1579.130"/>
      <line x1="574.321" y1="1629.130" x2="574.321" y2="1579.130"/>
      <line x1="575.321" y1="1629.130" x2="575.321" y2="1579.130"/>
      <line x1="576.321" y1="1629.130" x2="576.321" y2="1579.130"/>
      <line x1="577.321" y1="1629.130" x2="577.321" y2="1579.130"/>
      <line x1="578.321" y1="1629.130" x2="578.321" y2="1579.130"/>
      <line x1="579.321" y1="1629.130" x2="579.321" y2="1579.130"/>
      <line x1="580.321" y1="1629.130" x2="580.321" y2="1579.130"/>
      <line x1="581.321" y1="1629.130" x2="581.321" y2="1579.130"/>
      <line x1="582.321" y1="1629.130" x2="582.321" y2="1579.130"/>
      <line x1="583.321" y1="1629.130" x2="583.321" y2="1579.130"/>
      <line x1="584.321" y1="1629.130" x2="584.321" y2="1579.130"/>
      <line x1="585.321" y1="1629.130" x2="585.321" y2="1579.130"/>
      <line x1="586.321" y1="1629.130" x2="586.321" y2="1579.130"/>
      <line x1="587.321" y1="1629.130" x2="587.321" y2="1579.130"/>
      <line x1="588.321" y1="1629.130" x2="588.321" y2="1579.130"/>
      <line x1="589.321" y1="1629.130" x2="589.321" y2="1579.130"/>
      <line x1="590.321" y1="1629.130" x2="590.321" y2="1579.130"/>
      <line x1="591.321" y1="1629.130" x2="591.321" y2="1579.130"/>
      <line x1="592.321" y1="1629.130" x2="592.321" y2="1579.130"/>
      <line x1="593.321" y1="1629.130" x2="593.321" y2="1579.130"/>
      <line x1="594.321" y1="1629.130" x2="594.321" y2="1579.130"/>
      <line x1="595.321" y1="1629.130" x2="595.321" y2="1579.130"/>
      <line x1="596.321" y1="1629.130" x2="596.321" y2="1579.130"/>
      <line x1="492.321" y1="1579.030" x2="492.321" y2="1529.030"/>
      <line x1="493.321" y1="1579.030" x2="493.321" y2="1529.030"/>
      <line x1="494.321" y1="1579.030" x2="494.321" y2="1529.030"/>
      <line x1="495.321" y1="1579.030" x2="495.321" y2="1529.030"/>
      <line x1="496.321" y1="1579.030" x2="496.321" y2="1529.030"/>
      <line x1="497.321" y1="1579.030" x2="497.321" y2="1529.030"/>
      <line x1="498.321" y1="1579.030" x2="498.321" y2="1529.030"/>
      <line x1="499.321" y1="1579.030" x2="499.321" y2="1529.030"/>
      <line x1="500.321" y1="1579.030" x2="500.321" y2="1529.030"/>
      <line x1="501.321" y1="1579.030" x2="501.321" y2="1529.030"/>
      <line x1="502.321" y1="1579.030" x2="502.321" y2="1529.030"/>
      <line x1="503.321" y1="1579.030" x2="503.321" y2="1529.030"/>
      <line x1="504.321" y1="1579.030" x2="504.321" y2="1529.030"/>
      <line x1="505.321" y1="1579.030" x2="505.321" y2="1529.030"/>
      <line x1="506.321" y1="1579.030" x2="506.321" y2="1529.030"/>
      <line x1="507.321" y1="1579.030" x2="507.321" y2="1529.030"/>
      <line x1="508.321" y1="1579.030" x2="508.321" y2="1529.030"/>
      <line x1="509.321" y1="1579.030" x2="509.321" y2="1529.030"/>
      <line x1="510.321" y1="1579.030" x2="510.321" y2="1529.030"/>
      <line x1="511.321" y1="1579.030" x2="511.321" y2="1529.030"/>
      <line x1="512.321" y1="1579.030" x2="512.321" y2="1529.030"/>
      <line x1="513.321" y1="1579.030" x2="513.321" y2="1529.030"/>
      <line x1="514.321" y1="1579.030" x2="514.321" y2="1529.030"/>
      <line x1="515.321" y1="1579.030" x2="515.321" y2="1529.030"/>
      <line x1="516.321" y1="1579.030" x2="516.321" y2="1529.030"/>
      <line x1="517.321" y1="1579.030" x2="517.321" y2="1529.030"/>
      <line x1="518.321" y1="1579.030" x2="518.321" y2="1529.030"/>
      <line x1="519.321" y1="1579.030" x2="519.321" y2="1529.030"/>
      <line x1="520.321" y1="1579.030" x2="520.321" y2="1529.030"/>
      <line x1="521.321" y1="1579.030" x2="521.321" y2="1529.030"/>
      <line x1="522.321" y1="1579.030" x2="522.321" y2="1529.030"/>
      <line x1="523.321" y1="1579.030" x2="523.321" y2="1529.030"/>
      <line x1="524.321" y1="1579.030" x2="524.321" y2="1529.030"/>
      <line x1="525.321" y1="1579.030" x2="525.321" y2="1529.030"/>
      <line x1="526.321" y1="1579.030" x2="526.321" y2="1529.030"/>
      <line x1="527.321" y1="1579.030" x2="527.321" y2="1529.030"/>
      <line x1="528.321" y1="1579.030" x2="528.321" y2="1529.030"/>
      <line x1="529.321" y1="1579.030" x2="529.321" y2="1529.030"/>
      <line x1="530.321" y1="1579.030" x2="530.321" y2="1529.030"/>
      <line x1="531.321" y1="1579.030" x2="531.321" y2="1529.030"/>
      <line x1="532.321" y1="1579.030" x2="532.321" y2="1529.030"/>
      <line x1="533.321" y1="1579.030" x2="533.321" y2="1529.030"/>
      <line x1="534.321" y1="1579.030" x2="534.321" y2="1529.030"/>
      <line x1="535.321" y1="1579.030" x2="535.321" y2="1529.030"/>
      <line x1="536.321" y1="1579.030" x2="536.321" y2="1529.030"/>
      <line x1="537.321" y1="1579.030" x2="537.321" y2="1529.030"/>
      <line x1="538.321" y1="1579.030" x2="538.321" y2="1529.030"/>
      <line x1="539.321" y1="1579.030" x2="539.321" y2="1529.030"/>
      <line x1="540.321" y1="1579.030" x2="540.321" y2="1529.030"/>
      <line x1="541.321" y1="1579.030" x2="541.321" y2="1529.030"/>
      <line x1="542.321" y1="1579.030" x2="542.321" y2="1529.030"/>
      <line x1="543.321" y1="1579.030" x2="543.321" y2="1529.030"/>
      <line x1="544.321" y1="1579.030" x2="544.321" y2="1529.030"/>
      <line x1="545.321" y1="1579.030" x2="545.321" y2="1529.030"/>
      <line x1="546.321" y1="1579.030" x2="546.321" y2="1529.030"/>
      <line x1="547.321" y1="1579.030" x2="547.321" y2="1529.030"/>
      <line x1="548.321" y1="1579.030" x2="548.321" y2="1529.030"/>
      <line x1="549.321" y1="1579.030" x2="549.321" y2="1529.030"/>
      <line x1="550.321" y1="1579.030" x2="550.321" y2="1529.030"/>
      <line x1="551.321" y1="1579.030" x2="551.321" y2="1529.030"/>
      <line x1="552.321" y1="1579.030" x2="552.321" y2="1529.030"/>
      <line x1="553.321" y1="1579.030" x2="553.321" y2="1529.030"/>
      <line x1="554.321" y1="1579.030" x2="554.321" y2="1529.030"/>
      <line x1="555.321" y1="1579.030" x2="555.321" y2="1529.030"/>
      <line x1="556.321" y1="1579.030" x2="556.321" y2="1529.030"/>
      <line x1="557.321" y1="1579.030" x2="557.321" y2="1529.030"/>
      <line x1="558.321" y1="1579.030" x2="558.321" y2="1529.030"/>
      <line x1="559.321" y1="1579.030" x2="559.321" y2="1529.030"/>
      <line x1="560.321" y1="1579.030" x2="560.321" y2="1529.030"/>
      <line x1="561.321" y1="1579.030" x2="561.321" y2="1529.030"/>
      <line x1="562.321" y1="1579.030" x2="562.321" y2="1529.030"/>
      <line x1="563.321" y1="1579.030" x2="563.321" y2="1529.030"/>
      <line x1="564.321" y1="1579.030" x2="564.321" y2="1529.030"/>
      <line x1="565.321" y1="1579.030" x2="565.321" y2="1529.030"/>
      <line x1="566.321" y1="1579.030" x2="566.321" y2="1529.030"/>
      <line x1="567.321" y1="1579.030" x2="567.321" y2="1529.030"/>
      <line x1="568.321" y1="1579.030" x2="568.321" y2="1529.030"/>
      <line x1="569.321" y1="1579.030" x2="569.321" y2="1529.030"/>
      <line x1="570.321" y1="1579.030" x2="570.321" y2="1529.030"/>
      <line x1="571.321" y1="1579.030" x2="571.321" y2="1529.030"/>
      <line x1="572.321" y1="1579.030" x2="572.321" y2="1529.030"/>
      <line x1="573.321" y1="1579.030" x2="573.321" y2="1529.030"/>
      <line x1="574.321" y1="1579.030" x2="574.321" y2="1529.030"/>
      <line x1="575.321" y1="1579.030" x2="575.321" y2="1529.030"/>
      <line x1="576.321" y1="1579.030" x2="576.321" y2="1529.030"/>
      <line x1="577.321" y1="1579.030" x2="577.321" y2="1529.030"/>
      <line x1="578.321" y1="1579.030" x2="578.321" y2="1529.030"/>
      <line x1="579.321" y1="1579.030" x2="579.321" y2="1529.030"/>
      <line x1="580.321" y1="1579.030" x2="580.321" y2="1529.030"/>
      <line x1="581.321" y1="1579.030" x2="581.321" y2="1529.030"/>
      <line x1="582.321" y1="1579.030" x2="582.321" y2="1529.030"/>
      <line x1="583.321" y1="1579.030" x2="583.321" y2="1529.030"/>
      <line x1="584.321" y1="1579.030" x2="584.321" y2="1529.030"/>
      <line x1="585.321" y1="1579.030" x2="585.321" y2="1529.030"/>
      <line x1="586.321" y1="1579.030" x2="586.321" y2="1529.030"/>
      <line x1="587.321" y1="1579.030" x2="587.321" y2="1529.030"/>
      <line x1="588.321" y1="1579.030" x2="588.321" y2="1529.030"/>
      <line x1="589.321" y1="1579.030" x2="589.321" y2="1529.030"/>
      <line x1="590.321" y1="1579.030" x2="590.321" y2="1529.030"/>
      <line x1="591.321" y1="1579.030" x2="591.321" y2="1529.030"/>
      <line x1="592.321" y1="1579.030" x2="592.321" y2="1529.030"/>
      <line x1="593.321" y1="1579.030" x2="593.321" y2="1529.030"/>
      <line x1="594.321" y1="1579.030" x2="594.321" y2="1529.030"/>
      <line x1="595.321" y1="1579.030" x2="595.321" y2="1529.030"/>
      <line x1="596.321" y1="1579.030" x2="596.321" y2="1529.030"/>
      <line x1="518.321" y1="1528.930" x2="518.321" y2="1525.229"/>
      <line x1="493.321" y1="1528.930" x2="493.321" y2="1525.229"/>
      <line x1="492.321" y1="1528.930" x2="492.321" y2="1525.229"/>
      <line x1="496.321" y1="1528.930" x2="496.321" y2="1525.229"/>
      <line x1="495.321" y1="1528.930" x2="495.321" y2="1525.229"/>
      <line x1="499.321" y1="1528.930" x2="499.321" y2="1525.229"/>
      <line x1="498.321" y1="1528.930" x2="498.321" y2="1525.229"/>
      <line x1="501.321" y1="1528.930" x2="501.321" y2="1525.229"/>
      <line x1="504.321" y1="1528.930" x2="504.321" y2="1525.229"/>
      <line x1="506.321" y1="1528.930" x2="506.321" y2="1525.229"/>
      <line x1="521.321" y1="1528.930" x2="521.321" y2="1525.229"/>
      <line x1="519.321" y1="1528.930" x2="519.321" y2="1525.229"/>
      <line x1="515.321" y1="1528.930" x2="515.321" y2="1525.229"/>
      <line x1="516.321" y1="1528.930" x2="516.321" y2="1525.229"/>
      <line x1="513.321" y1="1528.930" x2="513.321" y2="1525.229"/>
      <line x1="507.321" y1="1528.930" x2="507.321" y2="1525.229"/>
      <line x1="510.321" y1="1528.930" x2="510.321" y2="1525.229"/>
      <line x1="512.321" y1="1528.930" x2="512.321" y2="1525.229"/>
      <line x1="509.321" y1="1528.930" x2="509.321" y2="1525.229"/>
      <line x1="497.321" y1="1528.930" x2="497.321" y2="1525.229"/>
      <line x1="500.321" y1="1528.930" x2="500.321" y2="1525.229"/>
      <line x1="503.321" y1="1528.930" x2="503.321" y2="1525.229"/>
      <line x1="502.321" y1="1528.930" x2="502.321" y2="1525.229"/>
      <line x1="505.321" y1="1528.930" x2="505.321" y2="1525.229"/>
      <line x1="508.321" y1="1528.930" x2="508.321" y2="1525.229"/>
      <line x1="511.321" y1="1528.930" x2="511.321" y2="1525.229"/>
      <line x1="514.321" y1="1528.930" x2="514.321" y2="1525.229"/>
      <line x1="517.321" y1="1528.930" x2="517.321" y2="1525.229"/>
      <line x1="520.321" y1="1528.930" x2="520.321" y2="1525.229"/>
      <line x1="494.321" y1="1528.930" x2="494.321" y2="1525.229"/>
      <line x1="532.321" y1="1528.930" x2="532.321" y2="1525.229"/>
      <line x1="541.321" y1="1528.930" x2="541.321" y2="1525.229"/>
      <line x1="540.321" y1="1528.930" x2="540.321" y2="1525.229"/>
      <line x1="539.321" y1="1528.930" x2="539.321" y2="1525.229"/>
      <line x1="538.321" y1="1528.930" x2="538.321" y2="1525.229"/>
      <line x1="537.321" y1="1528.930" x2="537.321" y2="1525.229"/>
      <line x1="536.321" y1="1528.930" x2="536.321" y2="1525.229"/>
      <line x1="535.321" y1="1528.930" x2="535.321" y2="1525.229"/>
      <line x1="534.321" y1="1528.930" x2="534.321" y2="1525.229"/>
      <line x1="533.321" y1="1528.930" x2="533.321" y2="1525.229"/>
      <line x1="531.321" y1="1528.930" x2="531.321" y2="1525.229"/>
      <line x1="530.321" y1="1528.930" x2="530.321" y2="1525.229"/>
      <line x1="529.321" y1="1528.930" x2="529.321" y2="1525.229"/>
      <line x1="528.321" y1="1528.930" x2="528.321" y2="1525.229"/>
      <line x1="527.321" y1="1528.930" x2="527.321" y2="1525.229"/>
      <line x1="526.321" y1="1528.930" x2="526.321" y2="1525.229"/>
      <line x1="525.321" y1="1528.930" x2="525.321" y2="1525.229"/>
      <line x1="524.321" y1="1528.930" x2="524.321" y2="1525.229"/>
      <line x1="523.321" y1="1528.930" x2="523.321" y2="1525.229"/>
      <line x1="522.321" y1="1528.930" x2="522.321" y2="1525.229"/>
      <line x1="575.321" y1="1528.930" x2="575.321" y2="1525.229"/>
      <line x1="585.321" y1="1528.930" x2="585.321" y2="1525.229"/>
      <line x1="584.321" y1="1528.930" x2="584.321" y2="1525.229"/>
      <line x1="583.321" y1="1528.930" x2="583.321" y2="1525.229"/>
      <line x1="582.321" y1="1528.930" x2="582.321" y2="1525.229"/>
      <line x1="581.321" y1="1528.930" x2="581.321" y2="1525.229"/>
      <line x1="580.321" y1="1528.930" x2="580.321" y2="1525.229"/>
      <line x1="579.321" y1="1528.930" x2="579.321" y2="1525.229"/>
      <line x1="578.321" y1="1528.930" x2="578.321" y2="1525.229"/>
      <line x1="577.321" y1="1528.930" x2="577.321" y2="1525.229"/>
      <line x1="576.321" y1="1528.930" x2="576.321" y2="1525.229"/>
      <line x1="586.321" y1="1528.930" x2="586.321" y2="1525.229"/>
      <line x1="574.321" y1="1528.930" x2="574.321" y2="1525.229"/>
      <line x1="573.321" y1="1528.930" x2="573.321" y2="1525.229"/>
      <line x1="572.321" y1="1528.930" x2="572.321" y2="1525.229"/>
      <line x1="571.321" y1="1528.930" x2="571.321" y2="1525.229"/>
      <line x1="570.321" y1="1528.930" x2="570.321" y2="1525.229"/>
      <line x1="569.321" y1="1528.930" x2="569.321" y2="1525.229"/>
      <line x1="568.321" y1="1528.930" x2="568.321" y2="1525.229"/>
      <line x1="567.321" y1="1528.930" x2="567.321" y2="1525.229"/>
      <line x1="566.321" y1="1528.930" x2="566.321" y2="1525.229"/>
      <line x1="565.321" y1="1528.930" x2="565.321" y2="1525.229"/>
      <line x1="591.321" y1="1528.930" x2="591.321" y2="1525.229"/>
      <line x1="590.321" y1="1528.930" x2="590.321" y2="1525.229"/>
      <line x1="589.321" y1="1528.930" x2="589.321" y2="1525.229"/>
      <line x1="588.321" y1="1528.930" x2="588.321" y2="1525.229"/>
      <line x1="587.321" y1="1528.930" x2="587.321" y2="1525.229"/>
      <line x1="542.321" y1="1528.930" x2="542.321" y2="1525.229"/>
      <line x1="543.321" y1="1528.930" x2="543.321" y2="1525.229"/>
      <line x1="553.321" y1="1528.930" x2="553.321" y2="1525.229"/>
      <line x1="563.321" y1="1528.930" x2="563.321" y2="1525.229"/>
      <line x1="562.321" y1="1528.930" x2="562.321" y2="1525.229"/>
      <line x1="561.321" y1="1528.930" x2="561.321" y2="1525.229"/>
      <line x1="560.321" y1="1528.930" x2="560.321" y2="1525.229"/>
      <line x1="559.321" y1="1528.930" x2="559.321" y2="1525.229"/>
      <line x1="558.321" y1="1528.930" x2="558.321" y2="1525.229"/>
      <line x1="557.321" y1="1528.930" x2="557.321" y2="1525.229"/>
      <line x1="556.321" y1="1528.930" x2="556.321" y2="1525.229"/>
      <line x1="555.321" y1="1528.930" x2="555.321" y2="1525.229"/>
      <line x1="554.321" y1="1528.930" x2="554.321" y2="1525.229"/>
      <line x1="564.321" y1="1528.930" x2="564.321" y2="1525.229"/>
      <line x1="552.321" y1="1528.930" x2="552.321" y2="1525.229"/>
      <line x1="551.321" y1="1528.930" x2="551.321" y2="1525.229"/>
      <line x1="550.321" y1="1528.930" x2="550.321" y2="1525.229"/>
      <line x1="549.321" y1="1528.930" x2="549.321" y2="1525.229"/>
      <line x1="548.321" y1="1528.930" x2="548.321" y2="1525.229"/>
      <line x1="547.321" y1="1528.930" x2="547.321" y2="1525.229"/>
      <line x1="546.321" y1="1528.930" x2="546.321" y2="1525.229"/>
      <line x1="545.321" y1="1528.930" x2="545.321" y2="1525.229"/>
      <line x1="544.321" y1="1528.930" x2="544.321" y2="1525.229"/>
      <line x1="596.321" y1="1528.930" x2="596.321" y2="1525.229"/>
      <line x1="595.321" y1="1528.930" x2="595.321" y2="1525.229"/>
      <line x1="594.321" y1="1528.930" x2="594.321" y2="1525.229"/>
      <line x1="593.321" y1="1528.930" x2="593.321" y2="1525.229"/>
      <line x1="592.321" y1="1528.930" x2="592.321" y2="1525.229"/>
      <line x1="3.386" y1="1679.230" x2="3.386" y2="1629.230"/>
      <line x1="4.387" y1="1679.230" x2="4.387" y2="1629.230"/>
      <line x1="5.386" y1="1679.230" x2="5.386" y2="1629.230"/>
      <line x1="6.387" y1="1679.230" x2="6.387" y2="1629.230"/>
      <line x1="7.387" y1="1679.230" x2="7.387" y2="1629.230"/>
      <line x1="8.386" y1="1679.230" x2="8.386" y2="1629.230"/>
      <line x1="9.387" y1="1679.230" x2="9.387" y2="1629.230"/>
      <line x1="10.387" y1="1679.230" x2="10.387" y2="1629.230"/>
      <line x1="11.386" y1="1679.230" x2="11.386" y2="1629.230"/>
      <line x1="12.386" y1="1679.230" x2="12.386" y2="1629.230"/>
      <line x1="13.386" y1="1679.230" x2="13.386" y2="1629.230"/>
      <line x1="14.387" y1="1679.230" x2="14.387" y2="1629.230"/>
      <line x1="15.387" y1="1679.230" x2="15.387" y2="1629.230"/>
      <line x1="16.386" y1="1679.230" x2="16.386" y2="1629.230"/>
      <line x1="17.386" y1="1679.230" x2="17.386" y2="1629.230"/>
      <line x1="18.386" y1="1679.230" x2="18.386" y2="1629.230"/>
      <line x1="19.387" y1="1679.230" x2="19.387" y2="1629.230"/>
      <line x1="20.387" y1="1679.230" x2="20.387" y2="1629.230"/>
      <line x1="21.386" y1="1679.230" x2="21.386" y2="1629.230"/>
      <line x1="22.387" y1="1679.230" x2="22.387" y2="1629.230"/>
      <line x1="23.386" y1="1679.230" x2="23.386" y2="1629.230"/>
      <line x1="24.386" y1="1679.230" x2="24.386" y2="1629.230"/>
      <line x1="25.387" y1="1679.230" x2="25.387" y2="1629.230"/>
      <line x1="26.386" y1="1679.230" x2="26.386" y2="1629.230"/>
      <line x1="27.387" y1="1679.230" x2="27.387" y2="1629.230"/>
      <line x1="28.386" y1="1679.230" x2="28.386" y2="1629.230"/>
      <line x1="29.386" y1="1679.230" x2="29.386" y2="1629.230"/>
      <line x1="30.387" y1="1679.230" x2="30.387" y2="1629.230"/>
      <line x1="31.386" y1="1679.230" x2="31.386" y2="1629.230"/>
      <line x1="32.387" y1="1679.230" x2="32.387" y2="1629.230"/>
      <line x1="33.386" y1="1679.230" x2="33.386" y2="1629.230"/>
      <line x1="34.386" y1="1679.230" x2="34.386" y2="1629.230"/>
      <line x1="35.387" y1="1679.230" x2="35.387" y2="1629.230"/>
      <line x1="36.386" y1="1679.230" x2="36.386" y2="1629.230"/>
      <line x1="37.387" y1="1679.230" x2="37.387" y2="1629.230"/>
      <line x1="38.386" y1="1679.230" x2="38.386" y2="1629.230"/>
      <line x1="39.386" y1="1679.230" x2="39.386" y2="1629.230"/>
      <line x1="40.387" y1="1679.230" x2="40.387" y2="1629.230"/>
      <line x1="41.386" y1="1679.230" x2="41.386" y2="1629.230"/>
      <line x1="42.386" y1="1679.230" x2="42.386" y2="1629.230"/>
      <line x1="43.387" y1="1679.230" x2="43.387" y2="1629.230"/>
      <line x1="44.387" y1="1679.230" x2="44.387" y2="1629.230"/>
      <line x1="45.387" y1="1679.230" x2="45.387" y2="1629.230"/>
      <line x1="46.386" y1="1679.230" x2="46.386" y2="1629.230"/>
      <line x1="47.386" y1="1679.230" x2="47.386" y2="1629.230"/>
      <line x1="48.387" y1="1679.230" x2="48.387" y2="1629.230"/>
      <line x1="49.387" y1="1679.230" x2="49.387" y2="1629.230"/>
      <line x1="50.387" y1="1679.230" x2="50.387" y2="1629.230"/>
      <line x1="51.386" y1="1679.230" x2="51.386" y2="1629.230"/>
      <line x1="52.386" y1="1679.230" x2="52.386" y2="1629.230"/>
      <line x1="53.387" y1="1679.230" x2="53.387" y2="1629.230"/>
      <line x1="54.387" y1="1679.230" x2="54.387" y2="1629.230"/>
      <line x1="55.387" y1="1679.230" x2="55.387" y2="1629.230"/>
      <line x1="56.386" y1="1679.230" x2="56.386" y2="1629.230"/>
      <line x1="57.386" y1="1679.230" x2="57.386" y2="1629.230"/>
      <line x1="58.387" y1="1679.230" x2="58.387" y2="1629.230"/>
      <line x1="59.387" y1="1679.230" x2="59.387" y2="1629.230"/>
      <line x1="60.387" y1="1679.230" x2="60.387" y2="1629.230"/>
      <line x1="61.386" y1="1679.230" x2="61.386" y2="1629.230"/>
      <line x1="62.386" y1="1679.230" x2="62.386" y2="1629.230"/>
      <line x1="63.387" y1="1679.230" x2="63.387" y2="1629.230"/>
      <line x1="64.387" y1="1679.230" x2="64.387" y2="1629.230"/>
      <line x1="65.387" y1="1679.230" x2="65.387" y2="1629.230"/>
      <line x1="66.386" y1="1679.230" x2="66.386" y2="1629.230"/>
      <line x1="67.386" y1="1679.230" x2="67.386" y2="1629.230"/>
      <line x1="68.387" y1="1679.230" x2="68.387" y2="1629.230"/>
      <line x1="69.387" y1="1679.230" x2="69.387" y2="1629.230"/>
      <line x1="70.387" y1="1679.230" x2="70.387" y2="1629.230"/>
      <line x1="71.386" y1="1679.230" x2="71.386" y2="1629.230"/>
      <line x1="72.386" y1="1679.230" x2="72.386" y2="1629.230"/>
      <line x1="73.387" y1="1679.230" x2="73.387" y2="1629.230"/>
      <line x1="74.387" y1="1679.230" x2="74.387" y2="1629.230"/>
      <line x1="75.387" y1="1679.230" x2="75.387" y2="1629.230"/>
      <line x1="76.386" y1="1679.230" x2="76.386" y2="1629.230"/>
      <line x1="77.386" y1="1679.230" x2="77.386" y2="1629.230"/>
      <line x1="78.387" y1="1679.230" x2="78.387" y2="1629.230"/>
      <line x1="79.387" y1="1679.230" x2="79.387" y2="1629.230"/>
      <line x1="80.386" y1="1679.230" x2="80.386" y2="1629.230"/>
      <line x1="81.386" y1="1679.230" x2="81.386" y2="1629.230"/>
      <line x1="82.387" y1="1679.230" x2="82.387" y2="1629.230"/>
      <line x1="83.386" y1="1679.230" x2="83.386" y2="1629.230"/>
      <line x1="84.387" y1="1679.230" x2="84.387" y2="1629.230"/>
      <line x1="85.386" y1="1679.230" x2="85.386" y2="1629.230"/>
      <line x1="86.386" y1="1679.230" x2="86.386" y2="1629.230"/>
      <line x1="87.387" y1="1679.230" x2="87.387" y2="1629.230"/>
      <line x1="88.386" y1="1679.230" x2="88.386" y2="1629.230"/>
      <line x1="89.387" y1="1679.230" x2="89.387" y2="1629.230"/>
      <line x1="90.386" y1="1679.230" x2="90.386" y2="1629.230"/>
      <line x1="91.386" y1="1679.230" x2="91.386" y2="1629.230"/>
      <line x1="92.387" y1="1679.230" x2="92.387" y2="1629.230"/>
      <line x1="93.386" y1="1679.230" x2="93.386" y2="1629.230"/>
      <line x1="94.387" y1="1679.230" x2="94.387" y2="1629.230"/>
      <line x1="95.386" y1="1679.230" x2="95.386" y2="1629.230"/>
      <line x1="96.386" y1="1679.230" x2="96.386" y2="1629.230"/>
      <line x1="97.387" y1="1679.230" x2="97.387" y2="1629.230"/>
      <line x1="98.386" y1="1679.230" x2="98.386" y2="1629.230"/>
      <line x1="99.387" y1="1679.230" x2="99.387" y2="1629.230"/>
      <line x1="100.386" y1="1679.230" x2="100.386" y2="1629.230"/>
      <line x1="101.386" y1="1679.230" x2="101.386" y2="1629.230"/>
      <line x1="102.387" y1="1679.230" x2="102.387" y2="1629.230"/>
      <line x1="103.386" y1="1679.230" x2="103.386" y2="1629.230"/>
      <line x1="104.387" y1="1679.230" x2="104.387" y2="1629.230"/>
      <line x1="105.386" y1="1679.230" x2="105.386" y2="1629.230"/>
      <line x1="106.386" y1="1679.230" x2="106.386" y2="1629.230"/>
      <line x1="107.387" y1="1679.230" x2="107.387" y2="1629.230"/>
      <line x1="3.386" y1="1629.130" x2="3.386" y2="1579.130"/>
      <line x1="4.387" y1="1629.130" x2="4.387" y2="1579.130"/>
      <line x1="5.386" y1="1629.130" x2="5.386" y2="1579.130"/>
      <line x1="6.387" y1="1629.130" x2="6.387" y2="1579.130"/>
      <line x1="7.387" y1="1629.130" x2="7.387" y2="1579.130"/>
      <line x1="8.386" y1="1629.130" x2="8.386" y2="1579.130"/>
      <line x1="9.387" y1="1629.130" x2="9.387" y2="1579.130"/>
      <line x1="10.387" y1="1629.130" x2="10.387" y2="1579.130"/>
      <line x1="11.386" y1="1629.130" x2="11.386" y2="1579.130"/>
      <line x1="12.386" y1="1629.130" x2="12.386" y2="1579.130"/>
      <line x1="13.386" y1="1629.130" x2="13.386" y2="1579.130"/>
      <line x1="14.387" y1="1629.130" x2="14.387" y2="1579.130"/>
      <line x1="15.387" y1="1629.130" x2="15.387" y2="1579.130"/>
      <line x1="16.386" y1="1629.130" x2="16.386" y2="1579.130"/>
      <line x1="17.386" y1="1629.130" x2="17.386" y2="1579.130"/>
      <line x1="18.386" y1="1629.130" x2="18.386" y2="1579.130"/>
      <line x1="19.387" y1="1629.130" x2="19.387" y2="1579.130"/>
      <line x1="20.387" y1="1629.130" x2="20.387" y2="1579.130"/>
      <line x1="21.386" y1="1629.130" x2="21.386" y2="1579.130"/>
      <line x1="22.387" y1="1629.130" x2="22.387" y2="1579.130"/>
      <line x1="23.386" y1="1629.130" x2="23.386" y2="1579.130"/>
      <line x1="24.386" y1="1629.130" x2="24.386" y2="1579.130"/>
      <line x1="25.387" y1="1629.130" x2="25.387" y2="1579.130"/>
      <line x1="26.386" y1="1629.130" x2="26.386" y2="1579.130"/>
      <line x1="27.387" y1="1629.130" x2="27.387" y2="1579.130"/>
      <line x1="28.386" y1="1629.130" x2="28.386" y2="1579.130"/>
      <line x1="29.386" y1="1629.130" x2="29.386" y2="1579.130"/>
      <line x1="30.387" y1="1629.130" x2="30.387" y2="1579.130"/>
      <line x1="31.386" y1="1629.130" x2="31.386" y2="1579.130"/>
      <line x1="32.387" y1="1629.130" x2="32.387" y2="1579.130"/>
      <line x1="33.386" y1="1629.130" x2="33.386" y2="1579.130"/>
      <line x1="34.386" y1="1629.130" x2="34.386" y2="1579.130"/>
      <line x1="35.387" y1="1629.130" x2="35.387" y2="1579.130"/>
      <line x1="36.386" y1="1629.130" x2="36.386" y2="1579.130"/>
      <line x1="37.387" y1="1629.130" x2="37.387" y2="1579.130"/>
      <line x1="38.386" y1="1629.130" x2="38.386" y2="1579.130"/>
      <line x1="39.386" y1="1629.130" x2="39.386" y2="1579.130"/>
      <line x1="40.387" y1="1629.130" x2="40.387" y2="1579.130"/>
      <line x1="41.386" y1="1629.130" x2="41.386" y2="1579.130"/>
      <line x1="42.386" y1="1629.130" x2="42.386" y2="1579.130"/>
      <line x1="43.387" y1="1629.130" x2="43.387" y2="1579.130"/>
      <line x1="44.387" y1="1629.130" x2="44.387" y2="1579.130"/>
      <line x1="45.387" y1="1629.130" x2="45.387" y2="1579.130"/>
      <line x1="46.386" y1="1629.130" x2="46.386" y2="1579.130"/>
      <line x1="47.386" y1="1629.130" x2="47.386" y2="1579.130"/>
      <line x1="48.387" y1="1629.130" x2="48.387" y2="1579.130"/>
      <line x1="49.387" y1="1629.130" x2="49.387" y2="1579.130"/>
      <line x1="50.387" y1="1629.130" x2="50.387" y2="1579.130"/>
      <line x1="51.386" y1="1629.130" x2="51.386" y2="1579.130"/>
      <line x1="52.386" y1="1629.130" x2="52.386" y2="1579.130"/>
      <line x1="53.387" y1="1629.130" x2="53.387" y2="1579.130"/>
      <line x1="54.387" y1="1629.130" x2="54.387" y2="1579.130"/>
      <line x1="55.387" y1="1629.130" x2="55.387" y2="1579.130"/>
      <line x1="56.386" y1="1629.130" x2="56.386" y2="1579.130"/>
      <line x1="57.386" y1="1629.130" x2="57.386" y2="1579.130"/>
      <line x1="58.387" y1="1629.130" x2="58.387" y2="1579.130"/>
      <line x1="59.387" y1="1629.130" x2="59.387" y2="1579.130"/>
      <line x1="60.387" y1="1629.130" x2="60.387" y2="1579.130"/>
      <line x1="61.386" y1="1629.130" x2="61.386" y2="1579.130"/>
      <line x1="62.386" y1="1629.130" x2="62.386" y2="1579.130"/>
      <line x1="63.387" y1="1629.130" x2="63.387" y2="1579.130"/>
      <line x1="64.387" y1="1629.130" x2="64.387" y2="1579.130"/>
      <line x1="65.387" y1="1629.130" x2="65.387" y2="1579.130"/>
      <line x1="66.386" y1="1629.130" x2="66.386" y2="1579.130"/>
      <line x1="67.386" y1="1629.130" x2="67.386" y2="1579.130"/>
      <line x1="68.387" y1="1629.130" x2="68.387" y2="1579.130"/>
      <line x1="69.387" y1="1629.130" x2="69.387" y2="1579.130"/>
      <line x1="70.387" y1="1629.130" x2="70.387" y2="1579.130"/>
      <line x1="71.386" y1="1629.130" x2="71.386" y2="1579.130"/>
      <line x1="72.386" y1="1629.130" x2="72.386" y2="1579.130"/>
      <line x1="73.387" y1="1629.130" x2="73.387" y2="1579.130"/>
      <line x1="74.387" y1="1629.130" x2="74.387" y2="1579.130"/>
      <line x1="75.387" y1="1629.130" x2="75.387" y2="1579.130"/>
      <line x1="76.386" y1="1629.130" x2="76.386" y2="1579.130"/>
      <line x1="77.386" y1="1629.130" x2="77.386" y2="1579.130"/>
      <line x1="78.387" y1="1629.130" x2="78.387" y2="1579.130"/>
      <line x1="79.387" y1="1629.130" x2="79.387" y2="1579.130"/>
      <line x1="80.386" y1="1629.130" x2="80.386" y2="1579.130"/>
      <line x1="81.386" y1="1629.130" x2="81.386" y2="1579.130"/>
      <line x1="82.387" y1="1629.130" x2="82.387" y2="1579.130"/>
      <line x1="83.386" y1="1629.130" x2="83.386" y2="1579.130"/>
      <line x1="84.387" y1="1629.130" x2="84.387" y2="1579.130"/>
      <line x1="85.386" y1="1629.130" x2="85.386" y2="1579.130"/>
      <line x1="86.386" y1="1629.130" x2="86.386" y2="1579.130"/>
      <line x1="87.387" y1="1629.130" x2="87.387" y2="1579.130"/>
      <line x1="88.386" y1="1629.130" x2="88.386" y2="1579.130"/>
      <line x1="89.387" y1="1629.130" x2="89.387" y2="1579.130"/>
      <line x1="90.386" y1="1629.130" x2="90.386" y2="1579.130"/>
      <line x1="91.386" y1="1629.130" x2="91.386" y2="1579.130"/>
      <line x1="92.387" y1="1629.130" x2="92.387" y2="1579.130"/>
      <line x1="93.386" y1="1629.130" x2="93.386" y2="1579.130"/>
      <line x1="94.387" y1="1629.130" x2="94.387" y2="1579.130"/>
      <line x1="95.386" y1="1629.130" x2="95.386" y2="1579.130"/>
      <line x1="96.386" y1="1629.130" x2="96.386" y2="1579.130"/>
      <line x1="97.387" y1="1629.130" x2="97.387" y2="1579.130"/>
      <line x1="98.386" y1="1629.130" x2="98.386" y2="1579.130"/>
      <line x1="99.387" y1="1629.130" x2="99.387" y2="1579.130"/>
      <line x1="100.386" y1="1629.130" x2="100.386" y2="1579.130"/>
      <line x1="101.386" y1="1629.130" x2="101.386" y2="1579.130"/>
      <line x1="102.387" y1="1629.130" x2="102.387" y2="1579.130"/>
      <line x1="103.386" y1="1629.130" x2="103.386" y2="1579.130"/>
      <line x1="104.387" y1="1629.130" x2="104.387" y2="1579.130"/>
      <line x1="105.386" y1="1629.130" x2="105.386" y2="1579.130"/>
      <line x1="106.386" y1="1629.130" x2="106.386" y2="1579.130"/>
      <line x1="107.387" y1="1629.130" x2="107.387" y2="1579.130"/>
      <line x1="3.386" y1="1579.030" x2="3.386" y2="1529.030"/>
      <line x1="4.387" y1="1579.030" x2="4.387" y2="1529.030"/>
      <line x1="5.386" y1="1579.030" x2="5.386" y2="1529.030"/>
      <line x1="6.387" y1="1579.030" x2="6.387" y2="1529.030"/>
      <line x1="7.387" y1="1579.030" x2="7.387" y2="1529.030"/>
      <line x1="8.386" y1="1579.030" x2="8.386" y2="1529.030"/>
      <line x1="9.387" y1="1579.030" x2="9.387" y2="1529.030"/>
      <line x1="10.387" y1="1579.030" x2="10.387" y2="1529.030"/>
      <line x1="11.386" y1="1579.030" x2="11.386" y2="1529.030"/>
      <line x1="12.386" y1="1579.030" x2="12.386" y2="1529.030"/>
      <line x1="13.386" y1="1579.030" x2="13.386" y2="1529.030"/>
      <line x1="14.387" y1="1579.030" x2="14.387" y2="1529.030"/>
      <line x1="15.387" y1="1579.030" x2="15.387" y2="1529.030"/>
      <line x1="16.386" y1="1579.030" x2="16.386" y2="1529.030"/>
      <line x1="17.386" y1="1579.030" x2="17.386" y2="1529.030"/>
      <line x1="18.386" y1="1579.030" x2="18.386" y2="1529.030"/>
      <line x1="19.387" y1="1579.030" x2="19.387" y2="1529.030"/>
      <line x1="20.387" y1="1579.030" x2="20.387" y2="1529.030"/>
      <line x1="21.386" y1="1579.030" x2="21.386" y2="1529.030"/>
      <line x1="22.387" y1="1579.030" x2="22.387" y2="1529.030"/>
      <line x1="23.386" y1="1579.030" x2="23.386" y2="1529.030"/>
      <line x1="24.386" y1="1579.030" x2="24.386" y2="1529.030"/>
      <line x1="25.387" y1="1579.030" x2="25.387" y2="1529.030"/>
      <line x1="26.386" y1="1579.030" x2="26.386" y2="1529.030"/>
      <line x1="27.387" y1="1579.030" x2="27.387" y2="1529.030"/>
      <line x1="28.386" y1="1579.030" x2="28.386" y2="1529.030"/>
      <line x1="29.386" y1="1579.030" x2="29.386" y2="1529.030"/>
      <line x1="30.387" y1="1579.030" x2="30.387" y2="1529.030"/>
      <line x1="31.386" y1="1579.030" x2="31.386" y2="1529.030"/>
      <line x1="32.387" y1="1579.030" x2="32.387" y2="1529.030"/>
      <line x1="33.386" y1="1579.030" x2="33.386" y2="1529.030"/>
      <line x1="34.386" y1="1579.030" x2="34.386" y2="1529.030"/>
      <line x1="35.387" y1="1579.030" x2="35.387" y2="1529.030"/>
      <line x1="36.386" y1="1579.030" x2="36.386" y2="1529.030"/>
      <line x1="37.387" y1="1579.030" x2="37.387" y2="1529.030"/>
      <line x1="38.386" y1="1579.030" x2="38.386" y2="1529.030"/>
      <line x1="39.386" y1="1579.030" x2="39.386" y2="1529.030"/>
      <line x1="40.387" y1="1579.030" x2="40.387" y2="1529.030"/>
      <line x1="41.386" y1="1579.030" x2="41.386" y2="1529.030"/>
      <line x1="42.386" y1="1579.030" x2="42.386" y2="1529.030"/>
      <line x1="43.387" y1="1579.030" x2="43.387" y2="1529.030"/>
      <line x1="44.387" y1="1579.030" x2="44.387" y2="1529.030"/>
      <line x1="45.387" y1="1579.030" x2="45.387" y2="1529.030"/>
      <line x1="46.386" y1="1579.030" x2="46.386" y2="1529.030"/>
      <line x1="47.386" y1="1579.030" x2="47.386" y2="1529.030"/>
      <line x1="48.387" y1="1579.030" x2="48.387" y2="1529.030"/>
      <line x1="49.387" y1="1579.030" x2="49.387" y2="1529.030"/>
      <line x1="50.387" y1="1579.030" x2="50.387" y2="1529.030"/>
      <line x1="51.386" y1="1579.030" x2="51.386" y2="1529.030"/>
      <line x1="52.386" y1="1579.030" x2="52.386" y2="1529.030"/>
      <line x1="53.387" y1="1579.030" x2="53.387" y2="1529.030"/>
      <line x1="54.387" y1="1579.030" x2="54.387" y2="1529.030"/>
      <line x1="55.387" y1="1579.030" x2="55.387" y2="1529.030"/>
      <line x1="56.386" y1="1579.030" x2="56.386" y2="1529.030"/>
      <line x1="57.386" y1="1579.030" x2="57.386" y2="1529.030"/>
      <line x1="58.387" y1="1579.030" x2="58.387" y2="1529.030"/>
      <line x1="59.387" y1="1579.030" x2="59.387" y2="1529.030"/>
      <line x1="60.387" y1="1579.030" x2="60.387" y2="1529.030"/>
      <line x1="61.386" y1="1579.030" x2="61.386" y2="1529.030"/>
      <line x1="62.386" y1="1579.030" x2="62.386" y2="1529.030"/>
      <line x1="63.387" y1="1579.030" x2="63.387" y2="1529.030"/>
      <line x1="64.387" y1="1579.030" x2="64.387" y2="1529.030"/>
      <line x1="65.387" y1="1579.030" x2="65.387" y2="1529.030"/>
      <line x1="66.386" y1="1579.030" x2="66.386" y2="1529.030"/>
      <line x1="67.386" y1="1579.030" x2="67.386" y2="1529.030"/>
      <line x1="68.387" y1="1579.030" x2="68.387" y2="1529.030"/>
      <line x1="69.387" y1="1579.030" x2="69.387" y2="1529.030"/>
      <line x1="70.387" y1="1579.030" x2="70.387" y2="1529.030"/>
      <line x1="71.386" y1="1579.030" x2="71.386" y2="1529.030"/>
      <line x1="72.386" y1="1579.030" x2="72.386" y2="1529.030"/>
      <line x1="73.387" y1="1579.030" x2="73.387" y2="1529.030"/>
      <line x1="74.387" y1="1579.030" x2="74.387" y2="1529.030"/>
      <line x1="75.387" y1="1579.030" x2="75.387" y2="1529.030"/>
      <line x1="76.386" y1="1579.030" x2="76.386" y2="1529.030"/>
      <line x1="77.386" y1="1579.030" x2="77.386" y2="1529.030"/>
      <line x1="78.387" y1="1579.030" x2="78.387" y2="1529.030"/>
      <line x1="79.387" y1="1579.030" x2="79.387" y2="1529.030"/>
      <line x1="80.386" y1="1579.030" x2="80.386" y2="1529.030"/>
      <line x1="81.386" y1="1579.030" x2="81.386" y2="1529.030"/>
      <line x1="82.387" y1="1579.030" x2="82.387" y2="1529.030"/>
      <line x1="83.386" y1="1579.030" x2="83.386" y2="1529.030"/>
      <line x1="84.387" y1="1579.030" x2="84.387" y2="1529.030"/>
      <line x1="85.386" y1="1579.030" x2="85.386" y2="1529.030"/>
      <line x1="86.386" y1="1579.030" x2="86.386" y2="1529.030"/>
      <line x1="87.387" y1="1579.030" x2="87.387" y2="1529.030"/>
      <line x1="88.386" y1="1579.030" x2="88.386" y2="1529.030"/>
      <line x1="89.387" y1="1579.030" x2="89.387" y2="1529.030"/>
      <line x1="90.386" y1="1579.030" x2="90.386" y2="1529.030"/>
      <line x1="91.386" y1="1579.030" x2="91.386" y2="1529.030"/>
      <line x1="92.387" y1="1579.030" x2="92.387" y2="1529.030"/>
      <line x1="93.386" y1="1579.030" x2="93.386" y2="1529.030"/>
      <line x1="94.387" y1="1579.030" x2="94.387" y2="1529.030"/>
      <line x1="95.386" y1="1579.030" x2="95.386" y2="1529.030"/>
      <line x1="96.386" y1="1579.030" x2="96.386" y2="1529.030"/>
      <line x1="97.387" y1="1579.030" x2="97.387" y2="1529.030"/>
      <line x1="98.386" y1="1579.030" x2="98.386" y2="1529.030"/>
      <line x1="99.387" y1="1579.030" x2="99.387" y2="1529.030"/>
      <line x1="100.386" y1="1579.030" x2="100.386" y2="1529.030"/>
      <line x1="101.386" y1="1579.030" x2="101.386" y2="1529.030"/>
      <line x1="102.387" y1="1579.030" x2="102.387" y2="1529.030"/>
      <line x1="103.386" y1="1579.030" x2="103.386" y2="1529.030"/>
      <line x1="104.387" y1="1579.030" x2="104.387" y2="1529.030"/>
      <line x1="105.386" y1="1579.030" x2="105.386" y2="1529.030"/>
      <line x1="106.386" y1="1579.030" x2="106.386" y2="1529.030"/>
      <line x1="107.387" y1="1579.030" x2="107.387" y2="1529.030"/>
      <line x1="3.386" y1="1528.930" x2="3.386" y2="1525.229"/>
      <line x1="45.387" y1="1528.930" x2="45.387" y2="1525.229"/>
      <line x1="52.386" y1="1528.930" x2="52.386" y2="1525.229"/>
      <line x1="51.386" y1="1528.930" x2="51.386" y2="1525.229"/>
      <line x1="50.387" y1="1528.930" x2="50.387" y2="1525.229"/>
      <line x1="49.387" y1="1528.930" x2="49.387" y2="1525.229"/>
      <line x1="48.387" y1="1528.930" x2="48.387" y2="1525.229"/>
      <line x1="47.386" y1="1528.930" x2="47.386" y2="1525.229"/>
      <line x1="46.386" y1="1528.930" x2="46.386" y2="1525.229"/>
      <line x1="44.387" y1="1528.930" x2="44.387" y2="1525.229"/>
      <line x1="43.387" y1="1528.930" x2="43.387" y2="1525.229"/>
      <line x1="42.386" y1="1528.930" x2="42.386" y2="1525.229"/>
      <line x1="41.386" y1="1528.930" x2="41.386" y2="1525.229"/>
      <line x1="40.387" y1="1528.930" x2="40.387" y2="1525.229"/>
      <line x1="39.386" y1="1528.930" x2="39.386" y2="1525.229"/>
      <line x1="38.386" y1="1528.930" x2="38.386" y2="1525.229"/>
      <line x1="37.387" y1="1528.930" x2="37.387" y2="1525.229"/>
      <line x1="36.386" y1="1528.930" x2="36.386" y2="1525.229"/>
      <line x1="35.387" y1="1528.930" x2="35.387" y2="1525.229"/>
      <line x1="12.386" y1="1528.930" x2="12.386" y2="1525.229"/>
      <line x1="11.386" y1="1528.930" x2="11.386" y2="1525.229"/>
      <line x1="10.387" y1="1528.930" x2="10.387" y2="1525.229"/>
      <line x1="9.387" y1="1528.930" x2="9.387" y2="1525.229"/>
      <line x1="8.386" y1="1528.930" x2="8.386" y2="1525.229"/>
      <line x1="7.387" y1="1528.930" x2="7.387" y2="1525.229"/>
      <line x1="6.387" y1="1528.930" x2="6.387" y2="1525.229"/>
      <line x1="5.386" y1="1528.930" x2="5.386" y2="1525.229"/>
      <line x1="4.387" y1="1528.930" x2="4.387" y2="1525.229"/>
      <line x1="13.386" y1="1528.930" x2="13.386" y2="1525.229"/>
      <line x1="23.386" y1="1528.930" x2="23.386" y2="1525.229"/>
      <line x1="33.386" y1="1528.930" x2="33.386" y2="1525.229"/>
      <line x1="32.387" y1="1528.930" x2="32.387" y2="1525.229"/>
      <line x1="31.386" y1="1528.930" x2="31.386" y2="1525.229"/>
      <line x1="30.387" y1="1528.930" x2="30.387" y2="1525.229"/>
      <line x1="29.386" y1="1528.930" x2="29.386" y2="1525.229"/>
      <line x1="28.386" y1="1528.930" x2="28.386" y2="1525.229"/>
      <line x1="27.387" y1="1528.930" x2="27.387" y2="1525.229"/>
      <line x1="26.386" y1="1528.930" x2="26.386" y2="1525.229"/>
      <line x1="25.387" y1="1528.930" x2="25.387" y2="1525.229"/>
      <line x1="24.386" y1="1528.930" x2="24.386" y2="1525.229"/>
      <line x1="34.386" y1="1528.930" x2="34.386" y2="1525.229"/>
      <line x1="22.387" y1="1528.930" x2="22.387" y2="1525.229"/>
      <line x1="21.386" y1="1528.930" x2="21.386" y2="1525.229"/>
      <line x1="20.387" y1="1528.930" x2="20.387" y2="1525.229"/>
      <line x1="19.387" y1="1528.930" x2="19.387" y2="1525.229"/>
      <line x1="18.386" y1="1528.930" x2="18.386" y2="1525.229"/>
      <line x1="17.386" y1="1528.930" x2="17.386" y2="1525.229"/>
      <line x1="16.386" y1="1528.930" x2="16.386" y2="1525.229"/>
      <line x1="15.387" y1="1528.930" x2="15.387" y2="1525.229"/>
      <line x1="14.387" y1="1528.930" x2="14.387" y2="1525.229"/>
      <line x1="79.387" y1="1528.930" x2="79.387" y2="1525.229"/>
      <line x1="78.387" y1="1528.930" x2="78.387" y2="1525.229"/>
      <line x1="81.386" y1="1528.930" x2="81.386" y2="1525.229"/>
      <line x1="84.387" y1="1528.930" x2="84.387" y2="1525.229"/>
      <line x1="87.387" y1="1528.930" x2="87.387" y2="1525.229"/>
      <line x1="86.386" y1="1528.930" x2="86.386" y2="1525.229"/>
      <line x1="90.386" y1="1528.930" x2="90.386" y2="1525.229"/>
      <line x1="93.386" y1="1528.930" x2="93.386" y2="1525.229"/>
      <line x1="101.386" y1="1528.930" x2="101.386" y2="1525.229"/>
      <line x1="98.386" y1="1528.930" x2="98.386" y2="1525.229"/>
      <line x1="95.386" y1="1528.930" x2="95.386" y2="1525.229"/>
      <line x1="89.387" y1="1528.930" x2="89.387" y2="1525.229"/>
      <line x1="92.387" y1="1528.930" x2="92.387" y2="1525.229"/>
      <line x1="99.387" y1="1528.930" x2="99.387" y2="1525.229"/>
      <line x1="96.386" y1="1528.930" x2="96.386" y2="1525.229"/>
      <line x1="55.387" y1="1528.930" x2="55.387" y2="1525.229"/>
      <line x1="54.387" y1="1528.930" x2="54.387" y2="1525.229"/>
      <line x1="53.387" y1="1528.930" x2="53.387" y2="1525.229"/>
      <line x1="56.386" y1="1528.930" x2="56.386" y2="1525.229"/>
      <line x1="66.386" y1="1528.930" x2="66.386" y2="1525.229"/>
      <line x1="76.386" y1="1528.930" x2="76.386" y2="1525.229"/>
      <line x1="75.387" y1="1528.930" x2="75.387" y2="1525.229"/>
      <line x1="74.387" y1="1528.930" x2="74.387" y2="1525.229"/>
      <line x1="73.387" y1="1528.930" x2="73.387" y2="1525.229"/>
      <line x1="72.386" y1="1528.930" x2="72.386" y2="1525.229"/>
      <line x1="71.386" y1="1528.930" x2="71.386" y2="1525.229"/>
      <line x1="70.387" y1="1528.930" x2="70.387" y2="1525.229"/>
      <line x1="69.387" y1="1528.930" x2="69.387" y2="1525.229"/>
      <line x1="68.387" y1="1528.930" x2="68.387" y2="1525.229"/>
      <line x1="67.386" y1="1528.930" x2="67.386" y2="1525.229"/>
      <line x1="77.386" y1="1528.930" x2="77.386" y2="1525.229"/>
      <line x1="65.387" y1="1528.930" x2="65.387" y2="1525.229"/>
      <line x1="64.387" y1="1528.930" x2="64.387" y2="1525.229"/>
      <line x1="63.387" y1="1528.930" x2="63.387" y2="1525.229"/>
      <line x1="62.386" y1="1528.930" x2="62.386" y2="1525.229"/>
      <line x1="61.386" y1="1528.930" x2="61.386" y2="1525.229"/>
      <line x1="60.387" y1="1528.930" x2="60.387" y2="1525.229"/>
      <line x1="59.387" y1="1528.930" x2="59.387" y2="1525.229"/>
      <line x1="58.387" y1="1528.930" x2="58.387" y2="1525.229"/>
      <line x1="57.386" y1="1528.930" x2="57.386" y2="1525.229"/>
      <line x1="83.386" y1="1528.930" x2="83.386" y2="1525.229"/>
      <line x1="80.386" y1="1528.930" x2="80.386" y2="1525.229"/>
      <line x1="82.387" y1="1528.930" x2="82.387" y2="1525.229"/>
      <line x1="85.386" y1="1528.930" x2="85.386" y2="1525.229"/>
      <line x1="88.386" y1="1528.930" x2="88.386" y2="1525.229"/>
      <line x1="91.386" y1="1528.930" x2="91.386" y2="1525.229"/>
      <line x1="94.387" y1="1528.930" x2="94.387" y2="1525.229"/>
      <line x1="97.387" y1="1528.930" x2="97.387" y2="1525.229"/>
      <line x1="100.386" y1="1528.930" x2="100.386" y2="1525.229"/>
      <line x1="102.387" y1="1528.930" x2="102.387" y2="1525.229"/>
      <line x1="107.387" y1="1528.930" x2="107.387" y2="1525.229"/>
      <line x1="106.386" y1="1528.930" x2="106.386" y2="1525.229"/>
      <line x1="104.387" y1="1528.930" x2="104.387" y2="1525.229"/>
      <line x1="103.386" y1="1528.930" x2="103.386" y2="1525.229"/>
      <line x1="105.386" y1="1528.930" x2="105.386" y2="1525.229"/>
    </g>
    <g stroke="#1976D2" stroke-width="0.4">
      <polyline points="490.291,1682.729 600.500,1682.729 600.500,1521.729 490.291,1521.729" fill="none"/>
      <polyline points="490.291,1521.729 488.434,1521.729 488.434,1682.729 490.291,1682.729" fill="none"/>
      <polyline points="490.291,1681.730 599.500,1681.730 599.500,1522.729 490.291,1522.729" fill="none"/>
      <polyline points="490.291,1522.729 489.434,1522.729 489.434,1681.730 490.291,1681.730" fill="none"/>
      <polyline points="598.500,1523.729 490.434,1523.729 490.434,1680.730 598.500,1680.730 598.500,1523.729" fill="none"/>
      <polyline points="597.500,1524.729 491.434,1524.729 491.434,1679.729 597.500,1679.729 597.500,1524.729" fill="none"/>
      <polyline points="109.709,1521.729 -0.500,1521.729 -0.500,1682.729 109.709,1682.729" fill="none"/>
      <polyline points="109.709,1682.729 111.566,1682.729 111.566,1521.729 109.709,1521.729" fill="none"/>
      <polyline points="109.709,1522.729 0.500,1522.729 0.500,1681.730 109.709,1681.730" fill="none"/>
      <polyline points="109.709,1681.730 110.566,1681.730 110.566,1522.729 109.709,1522.729" fill="none"/>
      <polyline points="109.566,1523.729 1.500,1523.729 1.500,1680.730 109.566,1680.730 109.566,1523.729" fill="none"/>
      <polyline points="108.566,1524.729 2.500,1524.729 2.500,1679.729 108.566,1679.729 108.566,1524.729" fill="none"/>
    </g>
    <g stroke="#C62828" stroke-width="0.4" fill="none">
      <polygon points="294.413,1534.074 295.782,1533.040 296.685,1531.582 297.000,1529.896 296.685,1528.210 295.782,1526.752 294.413,1525.719 292.764,1525.249 291.056,1525.408 289.521,1526.172 288.366,1527.439 287.746,1529.039 287.746,1530.754 288.366,1532.353 289.521,1533.620 291.056,1534.385 292.764,1534.543"/>
      <polygon points="314.373,1533.993 315.716,1532.980 316.601,1531.549 316.910,1529.896 316.601,1528.243 315.716,1526.813 314.373,1525.799 312.756,1525.339 311.081,1525.494 309.575,1526.244 308.442,1527.487 307.834,1529.055 307.834,1530.737 308.442,1532.306 309.575,1533.549 311.081,1534.298 312.756,1534.453"/>
      <polygon points="274.014,1533.953 275.438,1533.001 276.390,1531.576 276.724,1529.896 276.390,1528.216 275.438,1526.791 274.014,1525.840 272.333,1525.505 270.653,1525.840 269.229,1526.791 268.277,1528.216 267.943,1529.896 268.277,1531.576 269.229,1533.001 270.653,1533.953 272.333,1534.287"/>
      <polygon points="333.977,1533.864 335.370,1532.933 336.301,1531.540 336.628,1529.896 336.301,1528.253 335.370,1526.859 333.977,1525.928 332.333,1525.602 330.690,1525.928 329.297,1526.859 328.366,1528.253 328.039,1529.896 328.366,1531.540 329.297,1532.933 330.690,1533.864 332.333,1534.191"/>
      <polygon points="353.901,1533.680 355.229,1532.792 356.117,1531.463 356.429,1529.896 356.117,1528.329 355.229,1527.000 353.901,1526.113 352.333,1525.801 350.766,1526.113 349.438,1527.000 348.550,1528.329 348.238,1529.896 348.550,1531.463 349.438,1532.792 350.766,1533.680 352.333,1533.991"/>
      <polygon points="253.901,1533.680 255.229,1532.792 256.117,1531.463 256.429,1529.896 256.117,1528.329 255.229,1527.000 253.901,1526.113 252.333,1525.801 250.766,1526.113 249.438,1527.000 248.550,1528.329 248.238,1529.896 248.550,1531.463 249.438,1532.792 250.766,1533.680 252.333,1533.991"/>
      <polygon points="233.534,1533.592 234.934,1532.784 235.884,1531.477 236.220,1529.896 235.884,1528.316 234.934,1527.008 233.534,1526.200 231.927,1526.031 230.390,1526.531 229.189,1527.612 228.532,1529.088 228.532,1530.704 229.189,1532.180 230.390,1533.262 231.927,1533.761"/>
      <polygon points="373.501,1533.489 374.861,1532.704 375.784,1531.433 376.111,1529.896 375.784,1528.360 374.861,1527.089 373.501,1526.303 371.938,1526.139 370.444,1526.625 369.277,1527.676 368.638,1529.111 368.638,1530.682 369.277,1532.117 370.444,1533.168 371.938,1533.653"/>
      <polygon points="213.431,1533.275 214.711,1532.536 215.579,1531.341 215.886,1529.896 215.579,1528.451 214.711,1527.256 213.431,1526.517 211.962,1526.363 210.557,1526.819 209.459,1527.808 208.858,1529.158 208.858,1530.635 209.459,1531.984 210.557,1532.973 211.962,1533.429"/>
      <polygon points="394.476,1532.582 395.429,1531.387 395.769,1529.896 395.429,1528.405 394.476,1527.210 393.098,1526.546 391.569,1526.546 390.191,1527.210 389.238,1528.405 388.897,1529.896 389.238,1531.387 390.191,1532.582 391.569,1533.246 393.098,1533.246"/>
      <polygon points="194.324,1532.393 195.210,1531.282 195.526,1529.896 195.210,1528.511 194.324,1527.400 193.044,1526.783 191.623,1526.783 190.343,1527.400 189.457,1528.511 189.140,1529.896 189.457,1531.282 190.343,1532.393 191.623,1533.009 193.044,1533.009"/>
      <polygon points="414.324,1532.393 415.210,1531.282 415.526,1529.896 415.210,1528.511 414.324,1527.400 413.044,1526.783 411.623,1526.783 410.343,1527.400 409.457,1528.511 409.140,1529.896 409.457,1531.282 410.343,1532.393 411.623,1533.009 413.044,1533.009"/>
      <polygon points="174.002,1532.313 174.934,1531.261 175.270,1529.896 174.934,1528.531 174.002,1527.479 172.687,1526.981 171.292,1527.150 170.135,1527.949 169.482,1529.193 169.482,1530.599 170.135,1531.844 171.292,1532.642 172.687,1532.812"/>
      <polygon points="433.926,1532.204 434.816,1531.199 435.137,1529.896 434.816,1528.593 433.926,1527.589 432.671,1527.113 431.339,1527.275 430.235,1528.037 429.611,1529.225 429.611,1530.567 430.235,1531.755 431.339,1532.518 432.671,1532.679"/>
      <polygon points="153.449,1531.829 154.266,1531.012 154.565,1529.896 154.266,1528.780 153.449,1527.963 152.333,1527.664 151.217,1527.963 150.400,1528.780 150.101,1529.896 150.400,1531.012 151.217,1531.829 152.333,1532.128"/>
      <polygon points="453.333,1531.628 454.065,1530.896 454.333,1529.896 454.065,1528.896 453.333,1528.164 452.333,1527.896 451.333,1528.164 450.601,1528.896 450.333,1529.896 450.601,1530.896 451.333,1531.628 452.333,1531.896"/>
      <polygon points="133.333,1531.628 134.065,1530.896 134.333,1529.896 134.065,1528.896 133.333,1528.164 132.333,1527.896 131.333,1528.164 131.066,1528.432 131.066,1531.361 131.333,1531.628 132.333,1531.896"/>
      <polygon points="294.413,1554.074 295.782,1553.040 296.685,1551.582 297.000,1549.896 296.685,1548.210 295.782,1546.752 294.413,1545.719 292.764,1545.249 291.056,1545.408 289.521,1546.172 288.366,1547.439 287.746,1549.039 287.746,1550.754 288.366,1552.353 289.521,1553.620 291.056,1554.385 292.764,1554.543"/>
      <polygon points="314.373,1553.993 315.716,1552.980 316.601,1551.549 316.910,1549.896 316.601,1548.243 315.716,1546.813 314.373,1545.799 312.756,1545.339 311.081,1545.494 309.575,1546.244 308.442,1547.487 307.834,1549.055 307.834,1550.737 308.442,1552.306 309.575,1553.549 311.081,1554.298 312.756,1554.453"/>
      <polygon points="274.014,1553.953 275.438,1553.001 276.390,1551.576 276.724,1549.896 276.390,1548.216 275.438,1546.791 274.014,1545.840 272.333,1545.505 270.653,1545.840 269.229,1546.791 268.277,1548.216 267.943,1549.896 268.277,1551.576 269.229,1553.001 270.653,1553.953 272.333,1554.287"/>
      <polygon points="333.977,1553.864 335.370,1552.933 336.301,1551.540 336.628,1549.896 336.301,1548.253 335.370,1546.859 333.977,1545.928 332.333,1545.602 330.690,1545.928 329.297,1546.859 328.366,1548.253 328.039,1549.896 328.366,1551.540 329.297,1552.933 330.690,1553.864 332.333,1554.191"/>
      <polygon points="353.901,1553.680 355.229,1552.792 356.117,1551.463 356.429,1549.896 356.117,1548.329 355.229,1547.000 353.901,1546.113 352.333,1545.801 350.766,1546.113 349.438,1547.000 348.550,1548.329 348.238,1549.896 348.550,1551.463 349.438,1552.792 350.766,1553.680 352.333,1553.991"/>
      <polygon points="253.901,1553.680 255.229,1552.792 256.117,1551.463 256.429,1549.896 256.117,1548.329 255.229,1547.000 253.901,1546.113 252.333,1545.801 250.766,1546.113 249.438,1547.000 248.550,1548.329 248.238,1549.896 248.550,1551.463 249.438,1552.792 250.766,1553.680 252.333,1553.991"/>
      <polygon points="233.534,1553.592 234.934,1552.784 235.884,1551.477 236.220,1549.896 235.884,1548.316 234.934,1547.008 233.534,1546.200 231.927,1546.031 230.390,1546.531 229.189,1547.612 228.532,1549.088 228.532,1550.704 229.189,1552.180 230.390,1553.262 231.927,1553.761"/>
      <polygon points="373.501,1553.489 374.861,1552.704 375.784,1551.433 376.111,1549.896 375.784,1548.360 374.861,1547.089 373.501,1546.303 371.938,1546.139 370.444,1546.625 369.277,1547.676 368.638,1549.111 368.638,1550.682 369.277,1552.117 370.444,1553.168 371.938,1553.653"/>
      <polygon points="213.431,1553.275 214.711,1552.536 215.579,1551.341 215.886,1549.896 215.579,1548.451 214.711,1547.256 213.431,1546.517 211.962,1546.363 210.557,1546.819 209.459,1547.808 208.858,1549.158 208.858,1550.635 209.459,1551.984 210.557,1552.973 211.962,1553.429"/>
      <polygon points="394.476,1552.582 395.429,1551.387 395.769,1549.896 395.429,1548.405 394.476,1547.210 393.098,1546.546 391.569,1546.546 390.191,1547.210 389.238,1548.405 388.897,1549.896 389.238,1551.387 390.191,1552.582 391.569,1553.246 393.098,1553.246"/>
      <polygon points="414.324,1552.393 415.210,1551.282 415.526,1549.896 415.210,1548.511 414.324,1547.400 413.044,1546.783 411.623,1546.783 410.343,1547.400 409.457,1548.511 409.140,1549.896 409.457,1551.282 410.343,1552.393 411.623,1553.009 413.044,1553.009"/>
      <polygon points="194.324,1552.393 195.210,1551.282 195.526,1549.896 195.210,1548.511 194.324,1547.400 193.044,1546.783 191.623,1546.783 190.343,1547.400 189.457,1548.511 189.140,1549.896 189.457,1551.282 190.343,1552.393 191.623,1553.009 193.044,1553.009"/>
      <polygon points="174.002,1552.313 174.934,1551.261 175.270,1549.896 174.934,1548.531 174.002,1547.479 172.687,1546.981 171.292,1547.150 170.135,1547.949 169.482,1549.193 169.482,1550.599 170.135,1551.844 171.292,1552.642 172.687,1552.812"/>
      <polygon points="433.926,1552.204 434.816,1551.199 435.137,1549.896 434.816,1548.593 433.926,1547.589 432.671,1547.113 431.339,1547.275 430.235,1548.037 429.611,1549.225 429.611,1550.567 430.235,1551.755 431.339,1552.518 432.671,1552.679"/>
      <polygon points="153.449,1551.829 154.266,1551.012 154.565,1549.896 154.266,1548.780 153.449,1547.963 152.333,1547.664 151.217,1547.963 150.400,1548.780 150.101,1549.896 150.400,1551.012 151.217,1551.829 152.333,1552.128"/>
      <polygon points="453.333,1551.628 454.065,1550.896 454.333,1549.896 454.065,1548.896 453.333,1548.164 452.333,1547.896 451.333,1548.164 450.601,1548.896 450.333,1549.896 450.601,1550.896 451.333,1551.628 452.333,1551.896"/>
      <polygon points="133.333,1551.628 134.065,1550.896 134.333,1549.896 134.065,1548.896 133.333,1548.164 132.333,1547.896 131.333,1548.164 131.066,1548.432 131.066,1551.361 131.333,1551.628 132.333,1551.896"/>
      <polygon points="294.413,1574.074 295.782,1573.040 296.685,1571.582 297.000,1569.896 296.685,1568.210 295.782,1566.752 294.413,1565.719 292.764,1565.249 291.056,1565.408 289.521,1566.172 288.366,1567.439 287.746,1569.039 287.746,1570.754 288.366,1572.353 289.521,1573.620 291.056,1574.385 292.764,1574.543"/>
      <polygon points="314.373,1573.993 315.716,1572.980 316.601,1571.549 316.910,1569.896 316.601,1568.243 315.716,1566.813 314.373,1565.799 312.756,1565.339 311.081,1565.494 309.575,1566.244 308.442,1567.487 307.834,1569.055 307.834,1570.737 308.442,1572.306 309.575,1573.549 311.081,1574.298 312.756,1574.453"/>
      <polygon points="274.014,1573.953 275.438,1573.001 276.390,1571.576 276.724,1569.896 276.390,1568.216 275.438,1566.791 274.014,1565.840 272.333,1565.505 270.653,1565.840 269.229,1566.791 268.277,1568.216 267.943,1569.896 268.277,1571.576 269.229,1573.001 270.653,1573.953 272.333,1574.287"/>
      <polygon points="333.977,1573.864 335.370,1572.933 336.301,1571.540 336.628,1569.896 336.301,1568.253 335.370,1566.859 333.977,1565.928 332.333,1565.602 330.690,1565.928 329.297,1566.859 328.366,1568.253 328.039,1569.896 328.366,1571.540 329.297,1572.933 330.690,1573.864 332.333,1574.191"/>
      <polygon points="253.901,1573.680 255.229,1572.792 256.117,1571.463 256.429,1569.896 256.117,1568.329 255.229,1567.000 253.901,1566.113 252.333,1565.801 250.766,1566.113 249.438,1567.000 248.550,1568.329 248.238,1569.896 248.550,1571.463 249.438,1572.792 250.766,1573.680 252.333,1573.991"/>
      <polygon points="353.901,1573.680 355.229,1572.792 356.117,1571.463 356.429,1569.896 356.117,1568.329 355.229,1567.000 353.901,1566.113 352.333,1565.801 350.766,1566.113 349.438,1567.000 348.550,1568.329 348.238,1569.896 348.550,1571.463 349.438,1572.792 350.766,1573.680 352.333,1573.991"/>
      <polygon points="233.534,1573.592 234.934,1572.784 235.884,1571.477 236.220,1569.896 235.884,1568.316 234.934,1567.008 233.534,1566.200 231.927,1566.031 230.390,1566.531 229.189,1567.612 228.532,1569.088 228.532,1570.704 229.189,1572.180 230.390,1573.262 231.927,1573.761"/>
      <polygon points="373.501,1573.489 374.861,1572.704 375.784,1571.433 376.111,1569.896 375.784,1568.360 374.861,1567.089 373.501,1566.303 371.938,1566.139 370.444,1566.625 369.277,1567.676 368.638,1569.111 368.638,1570.682 369.277,1572.117 370.444,1573.168 371.938,1573.653"/>
      <polygon points="213.431,1573.275 214.711,1572.536 215.579,1571.341 215.886,1569.896 215.579,1568.451 214.711,1567.256 213.431,1566.517 211.962,1566.363 210.557,1566.819 209.459,1567.808 208.858,1569.158 208.858,1570.635 209.459,1571.984 210.557,1572.973 211.962,1573.429"/>
      <polygon points="394.476,1572.582 395.429,1571.387 395.769,1569.896 395.429,1568.405 394.476,1567.210 393.098,1566.546 391.569,1566.546 390.191,1567.210 389.238,1568.405 388.897,1569.896 389.238,1571.387 390.191,1572.582 391.569,1573.246 393.098,1573.246"/>
      <polygon points="414.324,1572.393 415.210,1571.282 415.526,1569.896 415.210,1568.511 414.324,1567.400 413.044,1566.783 411.623,1566.783 410.343,1567.400 409.457,1568.511 409.140,1569.896 409.457,1571.282 410.343,1572.393 411.623,1573.009 413.044,1573.009"/>
      <polygon points="194.324,1572.393 195.210,1571.282 195.526,1569.896 195.210,1568.511 194.324,1567.400 193.044,1566.783 191.623,1566.783 190.343,1567.400 189.457,1568.511 189.140,1569.896 189.457,1571.282 190.343,1572.393 191.623,1573.009 193.044,1573.009"/>
      <polygon points="174.002,1572.313 174.934,1571.261 175.270,1569.896 174.934,1568.531 174.002,1567.479 172.687,1566.981 171.292,1567.150 170.135,1567.949 169.482,1569.193 169.482,1570.599 170.135,1571.844 171.292,1572.642 172.687,1572.812"/>
      <polygon points="433.926,1572.204 434.816,1571.199 435.137,1569.896 434.816,1568.593 433.926,1567.589 432.671,1567.113 431.339,1567.275 430.235,1568.037 429.611,1569.225 429.611,1570.567 430.235,1571.755 431.339,1572.518 432.671,1572.679"/>
      <polygon points="153.449,1571.829 154.266,1571.012 154.565,1569.896 154.266,1568.780 153.449,1567.963 152.333,1567.664 151.217,1567.963 150.400,1568.780 150.101,1569.896 150.400,1571.012 151.217,1571.829 152.333,1572.128"/>
      <polygon points="133.333,1571.628 134.065,1570.896 134.333,1569.896 134.065,1568.896 133.333,1568.164 132.333,1567.896 131.333,1568.164 131.066,1568.432 131.066,1571.361 131.333,1571.628 132.333,1571.896"/>
      <polygon points="453.333,1571.628 454.065,1570.896 454.333,1569.896 454.065,1568.896 453.333,1568.164 452.333,1567.896 451.333,1568.164 450.601,1568.896 450.333,1569.896 450.601,1570.896 451.333,1571.628 452.333,1571.896"/>
      <polygon points="294.413,1594.074 295.782,1593.040 296.685,1591.582 297.000,1589.896 296.685,1588.210 295.782,1586.752 294.413,1585.719 292.764,1585.249 291.056,1585.408 289.521,1586.172 288.366,1587.439 287.746,1589.039 287.746,1590.754 288.366,1592.353 289.521,1593.620 291.056,1594.385 292.764,1594.543"/>
      <polygon points="314.373,1593.993 315.716,1592.980 316.601,1591.549 316.910,1589.896 316.601,1588.243 315.716,1586.813 314.373,1585.799 312.756,1585.339 311.081,1585.494 309.575,1586.244 308.442,1587.487 307.834,1589.055 307.834,1590.737 308.442,1592.306 309.575,1593.549 311.081,1594.298 312.756,1594.453"/>
      <polygon points="274.014,1593.953 275.438,1593.001 276.390,1591.576 276.724,1589.896 276.390,1588.216 275.438,1586.791 274.014,1585.840 272.333,1585.505 270.653,1585.840 269.229,1586.791 268.277,1588.216 267.943,1589.896 268.277,1591.576 269.229,1593.001 270.653,1593.953 272.333,1594.287"/>
      <polygon points="333.977,1593.864 335.370,1592.933 336.301,1591.540 336.628,1589.896 336.301,1588.253 335.370,1586.859 333.977,1585.928 332.333,1585.602 330.690,1585.928 329.297,1586.859 328.366,1588.253 328.039,1589.896 328.366,1591.540 329.297,1592.933 330.690,1593.864 332.333,1594.191"/>
      <polygon points="353.901,1593.680 355.229,1592.792 356.117,1591.463 356.429,1589.896 356.117,1588.329 355.229,1587.000 353.901,1586.113 352.333,1585.801 350.766,1586.113 349.438,1587.000 348.550,1588.329 348.238,1589.896 348.550,1591.463 349.438,1592.792 350.766,1593.680 352.333,1593.991"/>
      <polygon points="253.901,1593.680 255.229,1592.792 256.117,1591.463 256.429,1589.896 256.117,1588.329 255.229,1587.000 253.901,1586.113 252.333,1585.801 250.766,1586.113 249.438,1587.000 248.550,1588.329 248.238,1589.896 248.550,1591.463 249.438,1592.792 250.766,1593.680 252.333,1593.991"/>
      <polygon points="233.534,1593.592 234.934,1592.784 235.884,1591.477 236.220,1589.896 235.884,1588.316 234.934,1587.008 233.534,1586.200 231.927,1586.031 230.390,1586.531 229.189,1587.612 228.532,1589.088 228.532,1590.704 229.189,1592.180 230.390,1593.262 231.927,1593.761"/>
      <polygon points="373.501,1593.489 374.861,1592.704 375.784,1591.433 376.111,1589.896 375.784,1588.360 374.861,1587.089 373.501,1586.303 371.938,1586.139 370.444,1586.625 369.277,1587.676 368.638,1589.111 368.638,1590.682 369.277,1592.117 370.444,1593.168 371.938,1593.653"/>
      <polygon points="213.431,1593.275 214.711,1592.536 215.579,1591.341 215.886,1589.896 215.579,1588.451 214.711,1587.256 213.431,1586.517 211.962,1586.363 210.557,1586.819 209.459,1587.808 208.858,1589.158 208.858,1590.635 209.459,1591.984 210.557,1592.973 211.962,1593.429"/>
      <polygon points="394.476,1592.582 395.429,1591.387 395.769,1589.896 395.429,1588.405 394.476,1587.210 393.098,1586.546 391.569,1586.546 390.191,1587.210 389.238,1588.405 388.897,1589.896 389.238,1591.387 390.191,1592.582 391.569,1593.246 393.098,1593.246"/>
      <polygon points="194.324,1592.393 195.210,1591.282 195.526,1589.896 195.210,1588.511 194.324,1587.400 193.044,1586.783 191.623,1586.783 190.343,1587.400 189.457,1588.511 189.140,1589.896 189.457,1591.282 190.343,1592.393 191.623,1593.009 193.044,1593.009"/>
      <polygon points="414.324,1592.393 415.210,1591.282 415.526,1589.896 415.210,1588.511 414.324,1587.400 413.044,1586.783 411.623,1586.783 410.343,1587.400 409.457,1588.511 409.140,1589.896 409.457,1591.282 410.343,1592.393 411.623,1593.009 413.044,1593.009"/>
      <polygon points="174.002,1592.313 174.934,1591.261 175.270,1589.896 174.934,1588.531 174.002,1587.479 172.687,1586.981 171.292,1587.150 170.135,1587.949 169.482,1589.193 169.482,1590.599 170.135,1591.844 171.292,1592.642 172.687,1592.812"/>
      <polygon points="433.926,1592.204 434.816,1591.199 435.137,1589.896 434.816,1588.593 433.926,1587.589 432.671,1587.113 431.339,1587.275 430.235,1588.037 429.611,1589.225 429.611,1590.567 430.235,1591.755 431.339,1592.518 432.671,1592.679"/>
      <polygon points="153.449,1591.829 154.266,1591.012 154.565,1589.896 154.266,1588.780 153.449,1587.963 152.333,1587.664 151.217,1587.963 150.400,1588.780 150.101,1589.896 150.400,1591.012 151.217,1591.829 152.333,1592.128"/>
      <polygon points="453.333,1591.628 454.065,1590.896 454.333,1589.896 454.065,1588.896 453.333,1588.164 452.333,1587.896 451.333,1588.164 450.601,1588.896 450.333,1589.896 450.601,1590.896 451.333,1591.628 452.333,1591.896"/>
      <polygon points="133.333,1591.628 134.065,1590.896 134.333,1589.896 134.065,1588.896 133.333,1588.164 132.333,1587.896 131.333,1588.164 131.066,1588.432 131.066,1591.361 131.333,1591.628 132.333,1591.896"/>
      <polygon points="294.413,1614.074 295.782,1613.040 296.685,1611.582 297.000,1609.896 296.685,1608.210 295.782,1606.752 294.413,1605.719 292.764,1605.249 291.056,1605.408 289.521,1606.172 288.366,1607.439 287.746,1609.039 287.746,1610.754 288.366,1612.353 289.521,1613.620 291.056,1614.385 292.764,1614.543"/>
      <polygon points="314.373,1613.993 315.716,1612.980 316.601,1611.549 316.910,1609.896 316.601,1608.243 315.716,1606.813 314.373,1605.799 312.756,1605.339 311.081,1605.494 309.575,1606.244 308.442,1607.487 307.834,1609.055 307.834,1610.737 308.442,1612.306 309.575,1613.549 311.081,1614.298 312.756,1614.453"/>
      <polygon points="274.014,1613.953 275.438,1613.001 276.390,1611.576 276.724,1609.896 276.390,1608.216 275.438,1606.791 274.014,1605.840 272.333,1605.505 270.653,1605.840 269.229,1606.791 268.277,1608.216 267.943,1609.896 268.277,1611.576 269.229,1613.001 270.653,1613.953 272.333,1614.287"/>
      <polygon points="333.977,1613.864 335.370,1612.933 336.301,1611.540 336.628,1609.896 336.301,1608.253 335.370,1606.859 333.977,1605.928 332.333,1605.602 330.690,1605.928 329.297,1606.859 328.366,1608.253 328.039,1609.896 328.366,1611.540 329.297,1612.933 330.690,1613.864 332.333,1614.191"/>
      <polygon points="353.901,1613.680 355.229,1612.792 356.117,1611.463 356.429,1609.896 356.117,1608.329 355.229,1607.000 353.901,1606.113 352.333,1605.801 350.766,1606.113 349.438,1607.000 348.550,1608.329 348.238,1609.896 348.550,1611.463 349.438,1612.792 350.766,1613.680 352.333,1613.991"/>
      <polygon points="253.901,1613.680 255.229,1612.792 256.117,1611.463 256.429,1609.896 256.117,1608.329 255.229,1607.000 253.901,1606.113 252.333,1605.801 250.766,1606.113 249.438,1607.000 248.550,1608.329 248.238,1609.896 248.550,1611.463 249.438,1612.792 250.766,1613.680 252.333,1613.991"/>
      <polygon points="233.534,1613.592 234.934,1612.784 235.884,1611.477 236.220,1609.896 235.884,1608.316 234.934,1607.008 233.534,1606.200 231.927,1606.031 230.390,1606.531 229.189,1607.612 228.532,1609.088 228.532,1610.704 229.189,1612.180 230.390,1613.262 231.927,1613.761"/>
      <polygon points="373.501,1613.489 374.861,1612.704 375.784,1611.433 376.111,1609.896 375.784,1608.360 374.861,1607.089 373.501,1606.303 371.938,1606.139 370.444,1606.625 369.277,1607.676 368.638,1609.111 368.638,1610.682 369.277,1612.117 370.444,1613.168 371.938,1613.653"/>
      <polygon points="213.431,1613.275 214.711,1612.536 215.579,1611.341 215.886,1609.896 215.579,1608.451 214.711,1607.256 213.431,1606.517 211.962,1606.363 210.557,1606.819 209.459,1607.808 208.858,1609.158 208.858,1610.635 209.459,1611.984 210.557,1612.973 211.962,1613.429"/>
      <polygon points="394.476,1612.582 395.429,1611.387 395.769,1609.896 395.429,1608.405 394.476,1607.210 393.098,1606.546 391.569,1606.546 390.191,1607.210 389.238,1608.405 388.897,1609.896 389.238,1611.387 390.191,1612.582 391.569,1613.246 393.098,1613.246"/>
      <polygon points="414.324,1612.393 415.210,1611.282 415.526,1609.896 415.210,1608.511 414.324,1607.400 413.044,1606.783 411.623,1606.783 410.343,1607.400 409.457,1608.511 409.140,1609.896 409.457,1611.282 410.343,1612.393 411.623,1613.009 413.044,1613.009"/>
      <polygon points="194.324,1612.393 195.210,1611.282 195.526,1609.896 195.210,1608.511 194.324,1607.400 193.044,1606.783 191.623,1606.783 190.343,1607.400 189.457,1608.511 189.140,1609.896 189.457,1611.282 190.343,1612.393 191.623,1613.009 193.044,1613.009"/>
      <polygon points="174.002,1612.313 174.934,1611.261 175.270,1609.896 174.934,1608.531 174.002,1607.479 172.687,1606.981 171.292,1607.150 170.135,1607.949 169.482,1609.193 169.482,1610.599 170.135,1611.844 171.292,1612.642 172.687,1612.812"/>
      <polygon points="433.926,1612.204 434.816,1611.199 435.137,1609.896 434.816,1608.593 433.926,1607.589 432.671,1607.113 431.339,1607.275 430.235,1608.037 429.611,1609.225 429.611,1610.567 430.235,1611.755 431.339,1612.518 432.671,1612.679"/>
      <polygon points="153.449,1611.829 154.266,1611.012 154.565,1609.896 154.266,1608.780 153.449,1607.963 152.333,1607.664 151.217,1607.963 150.400,1608.780 150.101,1609.896 150.400,1611.012 151.217,1611.829 152.333,1612.128"/>
      <polygon points="133.333,1611.628 134.065,1610.896 134.333,1609.896 134.065,1608.896 133.333,1608.164 132.333,1607.896 131.333,1608.164 131.066,1608.432 131.066,1611.361 131.333,1611.628 132.333,1611.896"/>
      <polygon points="453.333,1611.628 454.065,1610.896 454.333,1609.896 454.065,1608.896 453.333,1608.164 452.333,1607.896 451.333,1608.164 450.601,1608.896 450.333,1609.896 450.601,1610.896 451.333,1611.628 452.333,1611.896"/>
      <polygon points="294.413,1634.074 295.782,1633.040 296.685,1631.582 297.000,1629.896 296.685,1628.210 295.782,1626.752 294.413,1625.719 292.764,1625.249 291.056,1625.408 289.521,1626.172 288.366,1627.439 287.746,1629.039 287.746,1630.754 288.366,1632.353 289.521,1633.620 291.056,1634.385 292.764,1634.543"/>
      <polygon points="314.373,1633.993 315.716,1632.980 316.601,1631.549 316.910,1629.896 316.601,1628.243 315.716,1626.813 314.373,1625.799 312.756,1625.339 311.081,1625.494 309.575,1626.244 308.442,1627.487 307.834,1629.055 307.834,1630.737 308.442,1632.306 309.575,1633.549 311.081,1634.298 312.756,1634.453"/>
      <polygon points="274.014,1633.953 275.438,1633.001 276.390,1631.576 276.724,1629.896 276.390,1628.216 275.438,1626.791 274.014,1625.840 272.333,1625.505 270.653,1625.840 269.229,1626.791 268.277,1628.216 267.943,1629.896 268.277,1631.576 269.229,1633.001 270.653,1633.953 272.333,1634.287"/>
      <polygon points="333.977,1633.864 335.370,1632.933 336.301,1631.540 336.628,1629.896 336.301,1628.253 335.370,1626.859 333.977,1625.928 332.333,1625.602 330.690,1625.928 329.297,1626.859 328.366,1628.253 328.039,1629.896 328.366,1631.540 329.297,1632.933 330.690,1633.864 332.333,1634.191"/>
      <polygon points="353.901,1633.680 355.229,1632.792 356.117,1631.463 356.429,1629.896 356.117,1628.329 355.229,1627.000 353.901,1626.113 352.333,1625.801 350.766,1626.113 349.438,1627.000 348.550,1628.329 348.238,1629.896 348.550,1631.463 349.438,1632.792 350.766,1633.680 352.333,1633.991"/>
      <polygon points="253.901,1633.680 255.229,1632.792 256.117,1631.463 256.429,1629.896 256.117,1628.329 255.229,1627.000 253.901,1626.113 252.333,1625.801 250.766,1626.113 249.438,1627.000 248.550,1628.329 248.238,1629.896 248.550,1631.463 249.438,1632.792 250.766,1633.680 252.333,1633.991"/>
      <polygon points="233.534,1633.592 234.934,1632.784 235.884,1631.477 236.220,1629.896 235.884,1628.316 234.934,1627.008 233.534,1626.200 231.927,1626.031 230.390,1626.531 229.189,1627.612 228.532,1629.088 228.532,1630.704 229.189,1632.180 230.390,1633.262 231.927,1633.761"/>
      <polygon points="373.501,1633.489 374.861,1632.704 375.784,1631.433 376.111,1629.896 375.784,1628.360 374.861,1627.089 373.501,1626.303 371.938,1626.139 370.444,1626.625 369.277,1627.676 368.638,1629.111 368.638,1630.682 369.277,1632.117 370.444,1633.168 371.938,1633.653"/>
      <polygon points="213.431,1633.275 214.711,1632.536 215.579,1631.341 215.886,1629.896 215.579,1628.451 214.711,1627.256 213.431,1626.517 211.962,1626.363 210.557,1626.819 209.459,1627.808 208.858,1629.158 208.858,1630.635 209.459,1631.984 210.557,1632.973 211.962,1633.429"/>
      <polygon points="394.476,1632.582 395.429,1631.387 395.769,1629.896 395.429,1628.405 394.476,1627.210 393.098,1626.546 391.569,1626.546 390.191,1627.210 389.238,1628.405 388.897,1629.896 389.238,1631.387 390.191,1632.582 391.569,1633.246 393.098,1633.246"/>
      <polygon points="414.324,1632.393 415.210,1631.282 415.526,1629.896 415.210,1628.511 414.324,1627.400 413.044,1626.783 411.623,1626.783 410.343,1627.400 409.457,1628.511 409.140,1629.896 409.457,1631.282 410.343,1632.393 411.623,1633.009 413.044,1633.009"/>
      <polygon points="194.324,1632.393 195.210,1631.282 195.526,1629.896 195.210,1628.511 194.324,1627.400 193.044,1626.783 191.623,1626.783 190.343,1627.400 189.457,1628.511 189.140,1629.896 189.457,1631.282 190.343,1632.393 191.623,1633.009 193.044,1633.009"/>
      <polygon points="174.002,1632.313 174.934,1631.261 175.270,1629.896 174.934,1628.531 174.002,1627.479 172.687,1626.981 171.292,1627.150 170.135,1627.949 169.482,1629.193 169.482,1630.599 170.135,1631.844 171.292,1632.642 172.687,1632.812"/>
      <polygon points="433.926,1632.204 434.816,1631.199 435.137,1629.896 434.816,1628.593 433.926,1627.589 432.671,1627.113 431.339,1627.275 430.235,1628.037 429.611,1629.225 429.611,1630.567 430.235,1631.755 431.339,1632.518 432.671,1632.679"/>
      <polygon points="153.449,1631.829 154.266,1631.012 154.565,1629.896 154.266,1628.780 153.449,1627.963 152.333,1627.664 151.217,1627.963 150.400,1628.780 150.101,1629.896 150.400,1631.012 151.217,1631.829 152.333,1632.128"/>
      <polygon points="453.333,1631.628 454.065,1630.896 454.333,1629.896 454.065,1628.896 453.333,1628.164 452.333,1627.896 451.333,1628.164 450.601,1628.896 450.333,1629.896 450.601,1630.896 451.333,1631.628 452.333,1631.896"/>
      <polygon points="133.333,1631.628 134.065,1630.896 134.333,1629.896 134.065,1628.896 133.333,1628.164 132.333,1627.896 131.333,1628.164 131.066,1628.432 131.066,1631.361 131.333,1631.628 132.333,1631.896"/>
      <polygon points="294.413,1654.074 295.782,1653.040 296.685,1651.582 297.000,1649.896 296.685,1648.210 295.782,1646.752 294.413,1645.719 292.764,1645.249 291.056,1645.408 289.521,1646.172 288.366,1647.439 287.746,1649.039 287.746,1650.754 288.366,1652.353 289.521,1653.620 291.056,1654.385 292.764,1654.543"/>
      <polygon points="314.373,1653.993 315.716,1652.980 316.601,1651.549 316.910,1649.896 316.601,1648.243 315.716,1646.813 314.373,1645.799 312.756,1645.339 311.081,1645.494 309.575,1646.244 308.442,1647.487 307.834,1649.055 307.834,1650.737 308.442,1652.306 309.575,1653.549 311.081,1654.298 312.756,1654.453"/>
      <polygon points="274.014,1653.953 275.438,1653.001 276.390,1651.576 276.724,1649.896 276.390,1648.216 275.438,1646.791 274.014,1645.840 272.333,1645.505 270.653,1645.840 269.229,1646.791 268.277,1648.216 267.943,1649.896 268.277,1651.576 269.229,1653.001 270.653,1653.953 272.333,1654.287"/>
      <polygon points="333.977,1653.864 335.370,1652.933 336.301,1651.540 336.628,1649.896 336.301,1648.253 335.370,1646.859 333.977,1645.928 332.333,1645.602 330.690,1645.928 329.297,1646.859 328.366,1648.253 328.039,1649.896 328.366,1651.540 329.297,1652.933 330.690,1653.864 332.333,1654.191"/>
      <polygon points="353.901,1653.680 355.229,1652.792 356.117,1651.463 356.429,1649.896 356.117,1648.329 355.229,1647.000 353.901,1646.113 352.333,1645.801 350.766,1646.113 349.438,1647.000 348.550,1648.329 348.238,1649.896 348.550,1651.463 349.438,1652.792 350.766,1653.680 352.333,1653.991"/>
      <polygon points="253.901,1653.680 255.229,1652.792 256.117,1651.463 256.429,1649.896 256.117,1648.329 255.229,1647.000 253.901,1646.113 252.333,1645.801 250.766,1646.113 249.438,1647.000 248.550,1648.329 248.238,1649.896 248.550,1651.463 249.438,1652.792 250.766,1653.680 252.333,1653.991"/>
      <polygon points="233.534,1653.592 234.934,1652.784 235.884,1651.477 236.220,1649.896 235.884,1648.316 234.934,1647.008 233.534,1646.200 231.927,1646.031 230.390,1646.531 229.189,1647.612 228.532,1649.088 228.532,1650.704 229.189,1652.180 230.390,1653.262 231.927,1653.761"/>
      <polygon points="373.501,1653.489 374.861,1652.704 375.784,1651.433 376.111,1649.896 375.784,1648.360 374.861,1647.089 373.501,1646.303 371.938,1646.139 370.444,1646.625 369.277,1647.676 368.638,1649.111 368.638,1650.682 369.277,1652.117 370.444,1653.168 371.938,1653.653"/>
      <polygon points="213.431,1653.275 214.711,1652.536 215.579,1651.341 215.886,1649.896 215.579,1648.451 214.711,1647.256 213.431,1646.517 211.962,1646.363 210.557,1646.819 209.459,1647.808 208.858,1649.158 208.858,1650.635 209.459,1651.984 210.557,1652.973 211.962,1653.429"/>
      <polygon points="394.476,1652.582 395.429,1651.387 395.769,1649.896 395.429,1648.405 394.476,1647.210 393.098,1646.546 391.569,1646.546 390.191,1647.210 389.238,1648.405 388.897,1649.896 389.238,1651.387 390.191,1652.582 391.569,1653.246 393.098,1653.246"/>
      <polygon points="194.324,1652.393 195.210,1651.282 195.526,1649.896 195.210,1648.511 194.324,1647.400 193.044,1646.783 191.623,1646.783 190.343,1647.400 189.457,1648.511 189.140,1649.896 189.457,1651.282 190.343,1652.393 191.623,1653.009 193.044,1653.009"/>
      <polygon points="414.324,1652.393 415.210,1651.282 415.526,1649.896 415.210,1648.511 414.324,1647.400 413.044,1646.783 411.623,1646.783 410.343,1647.400 409.457,1648.511 409.140,1649.896 409.457,1651.282 410.343,1652.393 411.623,1653.009 413.044,1653.009"/>
      <polygon points="174.002,1652.313 174.934,1651.261 175.270,1649.896 174.934,1648.531 174.002,1647.479 172.687,1646.981 171.292,1647.150 170.135,1647.949 169.482,1649.193 169.482,1650.599 170.135,1651.844 171.292,1652.642 172.687,1652.812"/>
      <polygon points="433.926,1652.204 434.816,1651.199 435.137,1649.896 434.816,1648.593 433.926,1647.589 432.671,1647.113 431.339,1647.275 430.235,1648.037 429.611,1649.225 429.611,1650.567 430.235,1651.755 431.339,1652.518 432.671,1652.679"/>
      <polygon points="153.449,1651.829 154.266,1651.012 154.565,1649.896 154.266,1648.780 153.449,1647.963 152.333,1647.664 151.217,1647.963 150.400,1648.780 150.101,1649.896 150.400,1651.012 151.217,1651.829 152.333,1652.128"/>
      <polygon points="133.333,1651.628 134.065,1650.896 134.333,1649.896 134.065,1648.896 133.333,1648.164 132.333,1647.896 131.333,1648.164 131.066,1648.432 131.066,1651.361 131.333,1651.628 132.333,1651.896"/>
      <polygon points="453.333,1651.628 454.065,1650.896 454.333,1649.896 454.065,1648.896 453.333,1648.164 452.333,1647.896 451.333,1648.164 450.601,1648.896 450.333,1649.896 450.601,1650.896 451.333,1651.628 452.333,1651.896"/>
      <polygon points="294.413,1674.074 295.782,1673.040 296.685,1671.582 297.000,1669.896 296.685,1668.210 295.782,1666.752 294.413,1665.719 292.764,1665.249 291.056,1665.408 289.521,1666.172 288.366,1667.439 287.746,1669.039 287.746,1670.754 288.366,1672.353 289.521,1673.620 291.056,1674.385 292.764,1674.543"/>
      <polygon points="314.373,1673.993 315.716,1672.980 316.601,1671.549 316.910,1669.896 316.601,1668.243 315.716,1666.813 314.373,1665.799 312.756,1665.339 311.081,1665.494 309.575,1666.244 308.442,1667.487 307.834,1669.055 307.834,1670.737 308.442,1672.306 309.575,1673.549 311.081,1674.298 312.756,1674.453"/>
      <polygon points="274.014,1673.953 275.438,1673.001 276.390,1671.576 276.724,1669.896 276.390,1668.216 275.438,1666.791 274.014,1665.840 272.333,1665.505 270.653,1665.840 269.229,1666.791 268.277,1668.216 267.943,1669.896 268.277,1671.576 269.229,1673.001 270.653,1673.953 272.333,1674.287"/>
      <polygon points="333.977,1673.864 335.370,1672.933 336.301,1671.540 336.628,1669.896 336.301,1668.253 335.370,1666.859 333.977,1665.928 332.333,1665.602 330.690,1665.928 329.297,1666.859 328.366,1668.253 328.039,1669.896 328.366,1671.540 329.297,1672.933 330.690,1673.864 332.333,1674.191"/>
      <polygon points="353.901,1673.680 355.229,1672.792 356.117,1671.463 356.429,1669.896 356.117,1668.329 355.229,1667.000 353.901,1666.113 352.333,1665.801 350.766,1666.113 349.438,1667.000 348.550,1668.329 348.238,1669.896 348.550,1671.463 349.438,1672.792 350.766,1673.680 352.333,1673.991"/>
      <polygon points="253.901,1673.680 255.229,1672.792 256.117,1671.463 256.429,1669.896 256.117,1668.329 255.229,1667.000 253.901,1666.113 252.333,1665.801 250.766,1666.113 249.438,1667.000 248.550,1668.329 248.238,1669.896 248.550,1671.463 249.438,1672.792 250.766,1673.680 252.333,1673.991"/>
      <polygon points="233.534,1673.592 234.934,1672.784 235.884,1671.477 236.220,1669.896 235.884,1668.316 234.934,1667.008 233.534,1666.200 231.927,1666.031 230.390,1666.531 229.189,1667.612 228.532,1669.088 228.532,1670.704 229.189,1672.180 230.390,1673.262 231.927,1673.761"/>
      <polygon points="373.501,1673.489 374.861,1672.704 375.784,1671.433 376.111,1669.896 375.784,1668.360 374.861,1667.089 373.501,1666.303 371.938,1666.139 370.444,1666.625 369.277,1667.676 368.638,1669.111 368.638,1670.682 369.277,1672.117 370.444,1673.168 371.938,1673.653"/>
      <polygon points="213.431,1673.275 214.711,1672.536 215.579,1671.341 215.886,1669.896 215.579,1668.451 214.711,1667.256 213.431,1666.517 211.962,1666.363 210.557,1666.819 209.459,1667.808 208.858,1669.158 208.858,1670.635 209.459,1671.984 210.557,1672.973 211.962,1673.429"/>
      <polygon points="394.476,1672.582 395.429,1671.387 395.769,1669.896 395.429,1668.405 394.476,1667.210 393.098,1666.546 391.569,1666.546 390.191,1667.210 389.238,1668.405 388.897,1669.896 389.238,1671.387 390.191,1672.582 391.569,1673.246 393.098,1673.246"/>
      <polygon points="414.324,1672.393 415.210,1671.282 415.526,1669.896 415.210,1668.511 414.324,1667.400 413.044,1666.783 411.623,1666.783 410.343,1667.400 409.457,1668.511 409.140,1669.896 409.457,1671.282 410.343,1672.393 411.623,1673.009 413.044,1673.009"/>
      <polygon points="194.324,1672.393 195.210,1671.282 195.526,1669.896 195.210,1668.511 194.324,1667.400 193.044,1666.783 191.623,1666.783 190.343,1667.400 189.457,1668.511 189.140,1669.896 189.457,1671.282 190.343,1672.393 191.623,1673.009 193.044,1673.009"/>
      <polygon points="174.002,1672.313 174.934,1671.261 175.270,1669.896 174.934,1668.531 174.002,1667.479 172.687,1666.981 171.292,1667.150 170.135,1667.949 169.482,1669.193 169.482,1670.599 170.135,1671.844 171.292,1672.642 172.687,1672.812"/>
      <polygon points="433.926,1672.204 434.816,1671.199 435.137,1669.896 434.816,1668.593 433.926,1667.589 432.671,1667.113 431.339,1667.275 430.235,1668.037 429.611,1669.225 429.611,1670.567 430.235,1671.755 431.339,1672.518 432.671,1672.679"/>
      <polygon points="153.449,1671.829 154.266,1671.012 154.565,1669.896 154.266,1668.780 153.449,1667.963 152.333,1667.664 151.217,1667.963 150.400,1668.780 150.101,1669.896 150.400,1671.012 151.217,1671.829 152.333,1672.128"/>
      <polygon points="453.333,1671.628 454.065,1670.896 454.333,1669.896 454.065,1668.896 453.333,1668.164 452.333,1667.896 451.333,1668.164 450.601,1668.896 450.333,1669.896 450.601,1670.896 451.333,1671.628 452.333,1671.896"/>
      <polygon points="133.333,1671.628 134.065,1670.896 134.333,1669.896 134.065,1668.896 133.333,1668.164 132.333,1667.896 131.333,1668.164 131.066,1668.432 131.066,1671.361 131.333,1671.628 132.333,1671.896"/>
    </g>
    <g stroke="#EF6C00" stroke-width="0.4" fill="none">
    </g>
  </g>
  <g stroke="#000000" stroke-width="0.4">
    <line x1="500.000" y1="1000.000" x2="1500.000" y2="1000.000"/>
  </g>
  <g stroke="#000000" stroke-width="0.4">
    <line x1="1000.000" y1="500.000" x2="1000.000" y2="1500.000"/>
  </g>
  <circle cx="1000.000" cy="1000.000" r="1000.000" stroke="red" stroke-width="1" fill="none"/>
  </g>
</svg>
