<?xml version="1.0" encoding="UTF-8"?>
<svg xmlns="http://www.w3.org/2000/svg" version="1.1" width="2000" height="2000">
  <g fill="none" stroke-linecap="round" stroke-linejoin="round">
  <text x="10" y="20" font-size="24" fill="#555">Layer 283 Z=68.600 mm</text>
  <g transform="translate(700.000,-602.229)">
    <g stroke="#2E7D32" stroke-width="0.4">
      <line x1="314.455" y1="1629.464" x2="264.455" y2="1629.464"/>
      <line x1="314.455" y1="1630.464" x2="264.455" y2="1630.464"/>
      <line x1="314.455" y1="1631.464" x2="264.455" y2="1631.464"/>
      <line x1="314.455" y1="1632.464" x2="264.455" y2="1632.464"/>
      <line x1="314.455" y1="1633.464" x2="264.455" y2="1633.464"/>
      <line x1="314.455" y1="1634.464" x2="264.455" y2="1634.464"/>
      <line x1="314.455" y1="1635.464" x2="264.455" y2="1635.464"/>
      <line x1="314.455" y1="1636.464" x2="264.455" y2="1636.464"/>
      <line x1="314.455" y1="1637.464" x2="264.455" y2="1637.464"/>
      <line x1="314.455" y1="1638.464" x2="264.455" y2="1638.464"/>
      <line x1="314.455" y1="1639.464" x2="264.455" y2="1639.464"/>
      <line x1="314.455" y1="1640.464" x2="264.455" y2="1640.464"/>
      <line x1="314.455" y1="1641.464" x2="264.455" y2="1641.464"/>
      <line x1="314.455" y1="1642.464" x2="264.455" y2="1642.464"/>
      <line x1="314.455" y1="1643.464" x2="264.455" y2="1643.464"/>
      <line x1="314.455" y1="1644.464" x2="264.455" y2="1644.464"/>
      <line x1="314.455" y1="1645.464" x2="264.455" y2="1645.464"/>
      <line x1="314.455" y1="1646.464" x2="264.455" y2="1646.464"/>
      <line x1="314.455" y1="1647.464" x2="264.455" y2="1647.464"/>
      <line x1="314.455" y1="1648.464" x2="264.455" y2="1648.464"/>
      <line x1="314.455" y1="1649.464" x2="264.455" y2="1649.464"/>
      <line x1="314.455" y1="1650.464" x2="264.455" y2="1650.464"/>
      <line x1="314.455" y1="1651.464" x2="264.455" y2="1651.464"/>
      <line x1="314.455" y1="1652.464" x2="264.455" y2="1652.464"/>
      <line x1="314.455" y1="1653.464" x2="264.455" y2="1653.464"/>
      <line x1="314.455" y1="1654.464" x2="264.455" y2="1654.464"/>
      <line x1="314.455" y1="1655.464" x2="264.455" y2="1655.464"/>
      <line x1="314.455" y1="1656.464" x2="264.455" y2="1656.464"/>
      <line x1="314.455" y1="1657.464" x2="264.455" y2="1657.464"/>
      <line x1="314.455" y1="1658.464" x2="264.455" y2="1658.464"/>
      <line x1="314.455" y1="1659.464" x2="264.455" y2="1659.464"/>
      <line x1="314.455" y1="1660.464" x2="264.455" y2="1660.464"/>
      <line x1="314.455" y1="1661.464" x2="264.455" y2="1661.464"/>
      <line x1="314.455" y1="1662.464" x2="264.455" y2="1662.464"/>
      <line x1="314.455" y1="1663.464" x2="264.455" y2="1663.464"/>
      <line x1="314.455" y1="1664.464" x2="264.455" y2="1664.464"/>
      <line x1="314.455" y1="1665.464" x2="264.455" y2="1665.464"/>
      <line x1="314.455" y1="1666.464" x2="264.455" y2="1666.464"/>
      <line x1="314.455" y1="1667.464" x2="264.455" y2="1667.464"/>
      <line x1="314.455" y1="1668.464" x2="264.455" y2="1668.464"/>
      <line x1="314.455" y1="1669.464" x2="264.455" y2="1669.464"/>
      <line x1="314.455" y1="1670.464" x2="264.455" y2="1670.464"/>
      <line x1="314.455" y1="1671.464" x2="264.455" y2="1671.464"/>
      <line x1="314.455" y1="1672.464" x2="264.455" y2="1672.464"/>
      <line x1="314.455" y1="1673.464" x2="264.455" y2="1673.464"/>
      <line x1="314.455" y1="1674.464" x2="264.455" y2="1674.464"/>
      <line x1="314.455" y1="1675.464" x2="264.455" y2="1675.464"/>
      <line x1="314.455" y1="1676.464" x2="264.455" y2="1676.464"/>
      <line x1="314.455" y1="1677.464" x2="264.455" y2="1677.464"/>
      <line x1="314.455" y1="1678.464" x2="264.455" y2="1678.464"/>
      <line x1="335.545" y1="1629.464" x2="314.555" y2="1629.464"/>
      <line x1="335.545" y1="1630.464" x2="314.555" y2="1630.464"/>
      <line x1="335.545" y1="1631.464" x2="314.555" y2="1631.464"/>
      <line x1="335.545" y1="1632.464" x2="314.555" y2="1632.464"/>
      <line x1="335.545" y1="1633.464" x2="314.555" y2="1633.464"/>
      <line x1="335.545" y1="1634.464" x2="314.555" y2="1634.464"/>
      <line x1="335.545" y1="1635.464" x2="314.555" y2="1635.464"/>
      <line x1="335.545" y1="1636.464" x2="314.555" y2="1636.464"/>
      <line x1="335.545" y1="1637.464" x2="314.555" y2="1637.464"/>
      <line x1="335.545" y1="1638.464" x2="314.555" y2="1638.464"/>
      <line x1="335.545" y1="1639.464" x2="314.555" y2="1639.464"/>
      <line x1="335.545" y1="1640.464" x2="314.555" y2="1640.464"/>
      <line x1="335.545" y1="1641.464" x2="314.555" y2="1641.464"/>
      <line x1="335.545" y1="1642.464" x2="314.555" y2="1642.464"/>
      <line x1="335.545" y1="1643.464" x2="314.555" y2="1643.464"/>
      <line x1="335.545" y1="1644.464" x2="314.555" y2="1644.464"/>
      <line x1="335.545" y1="1645.464" x2="314.555" y2="1645.464"/>
      <line x1="335.545" y1="1646.464" x2="314.555" y2="1646.464"/>
      <line x1="335.545" y1="1647.464" x2="314.555" y2="1647.464"/>
      <line x1="335.545" y1="1648.464" x2="314.555" y2="1648.464"/>
      <line x1="335.545" y1="1649.464" x2="314.555" y2="1649.464"/>
      <line x1="335.545" y1="1650.464" x2="314.555" y2="1650.464"/>
      <line x1="335.545" y1="1651.464" x2="314.555" y2="1651.464"/>
      <line x1="335.545" y1="1652.464" x2="314.555" y2="1652.464"/>
      <line x1="335.545" y1="1653.464" x2="314.555" y2="1653.464"/>
      <line x1="335.545" y1="1654.464" x2="314.555" y2="1654.464"/>
      <line x1="335.545" y1="1655.464" x2="314.555" y2="1655.464"/>
      <line x1="335.545" y1="1656.464" x2="314.555" y2="1656.464"/>
      <line x1="335.545" y1="1657.464" x2="314.555" y2="1657.464"/>
      <line x1="335.545" y1="1658.464" x2="314.555" y2="1658.464"/>
      <line x1="335.545" y1="1659.464" x2="314.555" y2="1659.464"/>
      <line x1="335.545" y1="1660.464" x2="314.555" y2="1660.464"/>
      <line x1="335.545" y1="1661.464" x2="314.555" y2="1661.464"/>
      <line x1="335.545" y1="1662.464" x2="314.555" y2="1662.464"/>
      <line x1="335.545" y1="1663.464" x2="314.555" y2="1663.464"/>
      <line x1="335.545" y1="1664.464" x2="314.555" y2="1664.464"/>
      <line x1="335.545" y1="1665.464" x2="314.555" y2="1665.464"/>
      <line x1="335.545" y1="1666.464" x2="314.555" y2="1666.464"/>
      <line x1="335.545" y1="1667.464" x2="314.555" y2="1667.464"/>
      <line x1="335.545" y1="1668.464" x2="314.555" y2="1668.464"/>
      <line x1="335.545" y1="1669.464" x2="314.555" y2="1669.464"/>
      <line x1="335.545" y1="1670.464" x2="314.555" y2="1670.464"/>
      <line x1="335.545" y1="1671.464" x2="314.555" y2="1671.464"/>
      <line x1="335.545" y1="1672.464" x2="314.555" y2="1672.464"/>
      <line x1="335.545" y1="1673.464" x2="314.555" y2="1673.464"/>
      <line x1="335.545" y1="1674.464" x2="314.555" y2="1674.464"/>
      <line x1="335.545" y1="1675.464" x2="314.555" y2="1675.464"/>
      <line x1="335.545" y1="1676.464" x2="314.555" y2="1676.464"/>
      <line x1="335.545" y1="1677.464" x2="314.555" y2="1677.464"/>
      <line x1="335.545" y1="1678.464" x2="314.555" y2="1678.464"/>
      <line x1="314.455" y1="1579.464" x2="264.455" y2="1579.464"/>
      <line x1="314.455" y1="1580.464" x2="264.455" y2="1580.464"/>
      <line x1="314.455" y1="1581.464" x2="264.455" y2="1581.464"/>
      <line x1="314.455" y1="1582.464" x2="264.455" y2="1582.464"/>
      <line x1="314.455" y1="1583.464" x2="264.455" y2="1583.464"/>
      <line x1="314.455" y1="1584.464" x2="264.455" y2="1584.464"/>
      <line x1="314.455" y1="1585.464" x2="264.455" y2="1585.464"/>
      <line x1="314.455" y1="1586.464" x2="264.455" y2="1586.464"/>
      <line x1="314.455" y1="1587.464" x2="264.455" y2="1587.464"/>
      <line x1="314.455" y1="1588.464" x2="264.455" y2="1588.464"/>
      <line x1="314.455" y1="1589.464" x2="264.455" y2="1589.464"/>
      <line x1="314.455" y1="1590.464" x2="264.455" y2="1590.464"/>
      <line x1="314.455" y1="1591.464" x2="264.455" y2="1591.464"/>
      <line x1="314.455" y1="1592.464" x2="264.455" y2="1592.464"/>
      <line x1="314.455" y1="1593.464" x2="264.455" y2="1593.464"/>
      <line x1="314.455" y1="1594.464" x2="264.455" y2="1594.464"/>
      <line x1="314.455" y1="1595.464" x2="264.455" y2="1595.464"/>
      <line x1="314.455" y1="1596.464" x2="264.455" y2="1596.464"/>
      <line x1="314.455" y1="1597.464" x2="264.455" y2="1597.464"/>
      <line x1="314.455" y1="1598.464" x2="264.455" y2="1598.464"/>
      <line x1="314.455" y1="1599.464" x2="264.455" y2="1599.464"/>
      <line x1="314.455" y1="1600.464" x2="264.455" y2="1600.464"/>
      <line x1="314.455" y1="1601.464" x2="264.455" y2="1601.464"/>
      <line x1="314.455" y1="1602.464" x2="264.455" y2="1602.464"/>
      <line x1="314.455" y1="1603.464" x2="264.455" y2="1603.464"/>
      <line x1="314.455" y1="1604.464" x2="264.455" y2="1604.464"/>
      <line x1="314.455" y1="1605.464" x2="264.455" y2="1605.464"/>
      <line x1="314.455" y1="1606.464" x2="264.455" y2="1606.464"/>
      <line x1="314.455" y1="1607.464" x2="264.455" y2="1607.464"/>
      <line x1="314.455" y1="1608.464" x2="264.455" y2="1608.464"/>
      <line x1="314.455" y1="1609.464" x2="264.455" y2="1609.464"/>
      <line x1="314.455" y1="1610.464" x2="264.455" y2="1610.464"/>
      <line x1="314.455" y1="1611.464" x2="264.455" y2="1611.464"/>
      <line x1="314.455" y1="1612.464" x2="264.455" y2="1612.464"/>
      <line x1="314.455" y1="1613.464" x2="264.455" y2="1613.464"/>
      <line x1="314.455" y1="1614.464" x2="264.455" y2="1614.464"/>
      <line x1="314.455" y1="1615.464" x2="264.455" y2="1615.464"/>
      <line x1="314.455" y1="1616.464" x2="264.455" y2="1616.464"/>
      <line x1="314.455" y1="1617.464" x2="264.455" y2="1617.464"/>
      <line x1="314.455" y1="1618.464" x2="264.455" y2="1618.464"/>
      <line x1="314.455" y1="1619.464" x2="264.455" y2="1619.464"/>
      <line x1="314.455" y1="1620.464" x2="264.455" y2="1620.464"/>
      <line x1="314.455" y1="1621.464" x2="264.455" y2="1621.464"/>
      <line x1="314.455" y1="1622.464" x2="264.455" y2="1622.464"/>
      <line x1="314.455" y1="1623.464" x2="264.455" y2="1623.464"/>
      <line x1="314.455" y1="1624.464" x2="264.455" y2="1624.464"/>
      <line x1="314.455" y1="1625.464" x2="264.455" y2="1625.464"/>
      <line x1="314.455" y1="1626.464" x2="264.455" y2="1626.464"/>
      <line x1="314.455" y1="1627.464" x2="264.455" y2="1627.464"/>
      <line x1="314.455" y1="1628.464" x2="264.455" y2="1628.464"/>
      <line x1="335.545" y1="1579.464" x2="314.555" y2="1579.464"/>
      <line x1="335.545" y1="1580.464" x2="314.555" y2="1580.464"/>
      <line x1="335.545" y1="1581.464" x2="314.555" y2="1581.464"/>
      <line x1="335.545" y1="1582.464" x2="314.555" y2="1582.464"/>
      <line x1="335.545" y1="1583.464" x2="314.555" y2="1583.464"/>
      <line x1="335.545" y1="1584.464" x2="314.555" y2="1584.464"/>
      <line x1="335.545" y1="1585.464" x2="314.555" y2="1585.464"/>
      <line x1="335.545" y1="1586.464" x2="314.555" y2="1586.464"/>
      <line x1="335.545" y1="1587.464" x2="314.555" y2="1587.464"/>
      <line x1="335.545" y1="1588.464" x2="314.555" y2="1588.464"/>
      <line x1="335.545" y1="1589.464" x2="314.555" y2="1589.464"/>
      <line x1="335.545" y1="1590.464" x2="314.555" y2="1590.464"/>
      <line x1="335.545" y1="1591.464" x2="314.555" y2="1591.464"/>
      <line x1="335.545" y1="1592.464" x2="314.555" y2="1592.464"/>
      <line x1="335.545" y1="1593.464" x2="314.555" y2="1593.464"/>
      <line x1="335.545" y1="1594.464" x2="314.555" y2="1594.464"/>
      <line x1="335.545" y1="1595.464" x2="314.555" y2="1595.464"/>
      <line x1="335.545" y1="1596.464" x2="314.555" y2="1596.464"/>
      <line x1="335.545" y1="1597.464" x2="314.555" y2="1597.464"/>
      <line x1="335.545" y1="1598.464" x2="314.555" y2="1598.464"/>
      <line x1="335.545" y1="1599.464" x2="314.555" y2="1599.464"/>
      <line x1="335.545" y1="1600.464" x2="314.555" y2="1600.464"/>
      <line x1="335.545" y1="1601.464" x2="314.555" y2="1601.464"/>
      <line x1="335.545" y1="1602.464" x2="314.555" y2="1602.464"/>
      <line x1="335.545" y1="1603.464" x2="314.555" y2="1603.464"/>
      <line x1="335.545" y1="1604.464" x2="314.555" y2="1604.464"/>
      <line x1="335.545" y1="1605.464" x2="314.555" y2="1605.464"/>
      <line x1="335.545" y1="1606.464" x2="314.555" y2="1606.464"/>
      <line x1="335.545" y1="1607.464" x2="314.555" y2="1607.464"/>
      <line x1="335.545" y1="1608.464" x2="314.555" y2="1608.464"/>
      <line x1="335.545" y1="1609.464" x2="314.555" y2="1609.464"/>
      <line x1="335.545" y1="1610.464" x2="314.555" y2="1610.464"/>
      <line x1="335.545" y1="1611.464" x2="314.555" y2="1611.464"/>
      <line x1="335.545" y1="1612.464" x2="314.555" y2="1612.464"/>
      <line x1="335.545" y1="1613.464" x2="314.555" y2="1613.464"/>
      <line x1="335.545" y1="1614.464" x2="314.555" y2="1614.464"/>
      <line x1="335.545" y1="1615.464" x2="314.555" y2="1615.464"/>
      <line x1="335.545" y1="1616.464" x2="314.555" y2="1616.464"/>
      <line x1="335.545" y1="1617.464" x2="314.555" y2="1617.464"/>
      <line x1="335.545" y1="1618.464" x2="314.555" y2="1618.464"/>
      <line x1="335.545" y1="1619.464" x2="314.555" y2="1619.464"/>
      <line x1="335.545" y1="1620.464" x2="314.555" y2="1620.464"/>
      <line x1="335.545" y1="1621.464" x2="314.555" y2="1621.464"/>
      <line x1="335.545" y1="1622.464" x2="314.555" y2="1622.464"/>
      <line x1="335.545" y1="1623.464" x2="314.555" y2="1623.464"/>
      <line x1="335.545" y1="1624.464" x2="314.555" y2="1624.464"/>
      <line x1="335.545" y1="1625.464" x2="314.555" y2="1625.464"/>
      <line x1="335.545" y1="1626.464" x2="314.555" y2="1626.464"/>
      <line x1="335.545" y1="1627.464" x2="314.555" y2="1627.464"/>
      <line x1="335.545" y1="1628.464" x2="314.555" y2="1628.464"/>
      <line x1="314.455" y1="1529.464" x2="264.455" y2="1529.464"/>
      <line x1="314.455" y1="1530.464" x2="264.455" y2="1530.464"/>
      <line x1="314.455" y1="1531.464" x2="264.455" y2="1531.464"/>
      <line x1="314.455" y1="1532.464" x2="264.455" y2="1532.464"/>
      <line x1="314.455" y1="1533.464" x2="264.455" y2="1533.464"/>
      <line x1="314.455" y1="1534.464" x2="264.455" y2="1534.464"/>
      <line x1="314.455" y1="1535.464" x2="264.455" y2="1535.464"/>
      <line x1="314.455" y1="1536.464" x2="264.455" y2="1536.464"/>
      <line x1="314.455" y1="1537.464" x2="264.455" y2="1537.464"/>
      <line x1="314.455" y1="1538.464" x2="264.455" y2="1538.464"/>
      <line x1="314.455" y1="1539.464" x2="264.455" y2="1539.464"/>
      <line x1="314.455" y1="1540.464" x2="264.455" y2="1540.464"/>
      <line x1="314.455" y1="1541.464" x2="264.455" y2="1541.464"/>
      <line x1="314.455" y1="1542.464" x2="264.455" y2="1542.464"/>
      <line x1="314.455" y1="1543.464" x2="264.455" y2="1543.464"/>
      <line x1="314.455" y1="1544.464" x2="264.455" y2="1544.464"/>
      <line x1="314.455" y1="1545.464" x2="264.455" y2="1545.464"/>
      <line x1="314.455" y1="1546.464" x2="264.455" y2="1546.464"/>
      <line x1="314.455" y1="1547.464" x2="264.455" y2="1547.464"/>
      <line x1="314.455" y1="1548.464" x2="264.455" y2="1548.464"/>
      <line x1="314.455" y1="1549.464" x2="264.455" y2="1549.464"/>
      <line x1="314.455" y1="1550.464" x2="264.455" y2="1550.464"/>
      <line x1="314.455" y1="1551.464" x2="264.455" y2="1551.464"/>
      <line x1="314.455" y1="1552.464" x2="264.455" y2="1552.464"/>
      <line x1="314.455" y1="1553.464" x2="264.455" y2="1553.464"/>
      <line x1="314.455" y1="1554.464" x2="264.455" y2="1554.464"/>
      <line x1="314.455" y1="1555.464" x2="264.455" y2="1555.464"/>
      <line x1="314.455" y1="1556.464" x2="264.455" y2="1556.464"/>
      <line x1="314.455" y1="1557.464" x2="264.455" y2="1557.464"/>
      <line x1="314.455" y1="1558.464" x2="264.455" y2="1558.464"/>
      <line x1="314.455" y1="1559.464" x2="264.455" y2="1559.464"/>
      <line x1="314.455" y1="1560.464" x2="264.455" y2="1560.464"/>
      <line x1="314.455" y1="1561.464" x2="264.455" y2="1561.464"/>
      <line x1="314.455" y1="1562.464" x2="264.455" y2="1562.464"/>
      <line x1="314.455" y1="1563.464" x2="264.455" y2="1563.464"/>
      <line x1="314.455" y1="1564.464" x2="264.455" y2="1564.464"/>
      <line x1="314.455" y1="1565.464" x2="264.455" y2="1565.464"/>
      <line x1="314.455" y1="1566.464" x2="264.455" y2="1566.464"/>
      <line x1="314.455" y1="1567.464" x2="264.455" y2="1567.464"/>
      <line x1="314.455" y1="1568.464" x2="264.455" y2="1568.464"/>
      <line x1="314.455" y1="1569.464" x2="264.455" y2="1569.464"/>
      <line x1="314.455" y1="1570.464" x2="264.455" y2="1570.464"/>
      <line x1="314.455" y1="1571.464" x2="264.455" y2="1571.464"/>
      <line x1="314.455" y1="1572.464" x2="264.455" y2="1572.464"/>
      <line x1="314.455" y1="1573.464" x2="264.455" y2="1573.464"/>
      <line x1="314.455" y1="1574.464" x2="264.455" y2="1574.464"/>
      <line x1="314.455" y1="1575.464" x2="264.455" y2="1575.464"/>
      <line x1="314.455" y1="1576.464" x2="264.455" y2="1576.464"/>
      <line x1="314.455" y1="1577.464" x2="264.455" y2="1577.464"/>
      <line x1="314.455" y1="1578.464" x2="264.455" y2="1578.464"/>
      <line x1="335.545" y1="1529.464" x2="314.555" y2="1529.464"/>
      <line x1="335.545" y1="1530.464" x2="314.555" y2="1530.464"/>
      <line x1="335.545" y1="1531.464" x2="314.555" y2="1531.464"/>
      <line x1="335.545" y1="1532.464" x2="314.555" y2="1532.464"/>
      <line x1="335.545" y1="1533.464" x2="314.555" y2="1533.464"/>
      <line x1="335.545" y1="1534.464" x2="314.555" y2="1534.464"/>
      <line x1="335.545" y1="1535.464" x2="314.555" y2="1535.464"/>
      <line x1="335.545" y1="1536.464" x2="314.555" y2="1536.464"/>
      <line x1="335.545" y1="1537.464" x2="314.555" y2="1537.464"/>
      <line x1="335.545" y1="1538.464" x2="314.555" y2="1538.464"/>
      <line x1="335.545" y1="1539.464" x2="314.555" y2="1539.464"/>
      <line x1="335.545" y1="1540.464" x2="314.555" y2="1540.464"/>
      <line x1="335.545" y1="1541.464" x2="314.555" y2="1541.464"/>
      <line x1="335.545" y1="1542.464" x2="314.555" y2="1542.464"/>
      <line x1="335.545" y1="1543.464" x2="314.555" y2="1543.464"/>
      <line x1="335.545" y1="1544.464" x2="314.555" y2="1544.464"/>
      <line x1="335.545" y1="1545.464" x2="314.555" y2="1545.464"/>
      <line x1="335.545" y1="1546.464" x2="314.555" y2="1546.464"/>
      <line x1="335.545" y1="1547.464" x2="314.555" y2="1547.464"/>
      <line x1="335.545" y1="1548.464" x2="314.555" y2="1548.464"/>
      <line x1="335.545" y1="1549.464" x2="314.555" y2="1549.464"/>
      <line x1="335.545" y1="1550.464" x2="314.555" y2="1550.464"/>
      <line x1="335.545" y1="1551.464" x2="314.555" y2="1551.464"/>
      <line x1="335.545" y1="1552.464" x2="314.555" y2="1552.464"/>
      <line x1="335.545" y1="1553.464" x2="314.555" y2="1553.464"/>
      <line x1="335.545" y1="1554.464" x2="314.555" y2="1554.464"/>
      <line x1="335.545" y1="1555.464" x2="314.555" y2="1555.464"/>
      <line x1="335.545" y1="1556.464" x2="314.555" y2="1556.464"/>
      <line x1="335.545" y1="1557.464" x2="314.555" y2="1557.464"/>
      <line x1="335.545" y1="1558.464" x2="314.555" y2="1558.464"/>
      <line x1="335.545" y1="1559.464" x2="314.555" y2="1559.464"/>
      <line x1="335.545" y1="1560.464" x2="314.555" y2="1560.464"/>
      <line x1="335.545" y1="1561.464" x2="314.555" y2="1561.464"/>
      <line x1="335.545" y1="1562.464" x2="314.555" y2="1562.464"/>
      <line x1="335.545" y1="1563.464" x2="314.555" y2="1563.464"/>
      <line x1="335.545" y1="1564.464" x2="314.555" y2="1564.464"/>
      <line x1="335.545" y1="1565.464" x2="314.555" y2="1565.464"/>
      <line x1="335.545" y1="1566.464" x2="314.555" y2="1566.464"/>
      <line x1="335.545" y1="1567.464" x2="314.555" y2="1567.464"/>
      <line x1="335.545" y1="1568.464" x2="314.555" y2="1568.464"/>
      <line x1="335.545" y1="1569.464" x2="314.555" y2="1569.464"/>
      <line x1="335.545" y1="1570.464" x2="314.555" y2="1570.464"/>
      <line x1="335.545" y1="1571.464" x2="314.555" y2="1571.464"/>
      <line x1="335.545" y1="1572.464" x2="314.555" y2="1572.464"/>
      <line x1="335.545" y1="1573.464" x2="314.555" y2="1573.464"/>
      <line x1="335.545" y1="1574.464" x2="314.555" y2="1574.464"/>
      <line x1="335.545" y1="1575.464" x2="314.555" y2="1575.464"/>
      <line x1="335.545" y1="1576.464" x2="314.555" y2="1576.464"/>
      <line x1="335.545" y1="1577.464" x2="314.555" y2="1577.464"/>
      <line x1="335.545" y1="1578.464" x2="314.555" y2="1578.464"/>
      <line x1="314.455" y1="1525.464" x2="264.455" y2="1525.464"/>
      <line x1="314.455" y1="1526.464" x2="264.455" y2="1526.464"/>
      <line x1="314.455" y1="1527.464" x2="264.455" y2="1527.464"/>
      <line x1="314.455" y1="1528.464" x2="264.455" y2="1528.464"/>
      <line x1="335.545" y1="1525.464" x2="314.555" y2="1525.464"/>
      <line x1="335.545" y1="1526.464" x2="314.555" y2="1526.464"/>
      <line x1="335.545" y1="1527.464" x2="314.555" y2="1527.464"/>
      <line x1="335.545" y1="1528.464" x2="314.555" y2="1528.464"/>
    </g>
    <g stroke="#1976D2" stroke-width="0.4">
      <polyline points="339.045,1521.729 260.955,1521.729 260.955,1682.729 339.045,1682.729 339.045,1521.729" fill="none"/>
      <polyline points="338.045,1522.729 261.955,1522.729 261.955,1681.730 338.045,1681.730 338.045,1522.729" fill="none"/>
      <polyline points="337.045,1523.729 262.955,1523.729 262.955,1680.730 337.045,1680.730 337.045,1523.729" fill="none"/>
      <polyline points="336.045,1524.729 263.955,1524.729 263.955,1679.729 336.045,1679.729 336.045,1524.729" fill="none"/>
    </g>
    <g stroke="#C62828" stroke-width="0.4" fill="none">
    </g>
    <g stroke="#EF6C00" stroke-width="0.4" fill="none">
    </g>
  </g>
  <g stroke="#000000" stroke-width="0.4">
    <line x1="500.000" y1="1000.000" x2="1500.000" y2="1000.000"/>
  </g>
  <g stroke="#000000" stroke-width="0.4">
    <line x1="1000.000" y1="500.000" x2="1000.000" y2="1500.000"/>
  </g>
  <circle cx="1000.000" cy="1000.000" r="1000.000" stroke="red" stroke-width="1" fill="none"/>
  </g>
</svg>
