<?xml version="1.0" encoding="UTF-8"?>
<svg xmlns="http://www.w3.org/2000/svg" version="1.1" width="2000" height="2000">
  <g fill="none" stroke-linecap="round" stroke-linejoin="round">
  <text x="10" y="20" font-size="24" fill="#555">Layer 224 Z=56.800 mm</text>
  <g transform="translate(700.000,-602.229)">
    <g stroke="#2E7D32" stroke-width="0.4">
      <line x1="452.562" y1="1679.230" x2="452.562" y2="1629.230"/>
      <line x1="453.562" y1="1679.230" x2="453.562" y2="1629.230"/>
      <line x1="454.562" y1="1679.230" x2="454.562" y2="1629.230"/>
      <line x1="455.562" y1="1679.230" x2="455.562" y2="1629.230"/>
      <line x1="456.562" y1="1679.230" x2="456.562" y2="1629.230"/>
      <line x1="457.562" y1="1679.230" x2="457.562" y2="1629.230"/>
      <line x1="458.562" y1="1679.230" x2="458.562" y2="1629.230"/>
      <line x1="459.562" y1="1679.230" x2="459.562" y2="1629.230"/>
      <line x1="460.562" y1="1679.230" x2="460.562" y2="1629.230"/>
      <line x1="461.562" y1="1679.230" x2="461.562" y2="1629.230"/>
      <line x1="462.562" y1="1679.230" x2="462.562" y2="1629.230"/>
      <line x1="463.562" y1="1679.230" x2="463.562" y2="1629.230"/>
      <line x1="464.562" y1="1679.230" x2="464.562" y2="1629.230"/>
      <line x1="465.562" y1="1679.230" x2="465.562" y2="1629.230"/>
      <line x1="466.562" y1="1679.230" x2="466.562" y2="1629.230"/>
      <line x1="467.562" y1="1679.230" x2="467.562" y2="1629.230"/>
      <line x1="468.562" y1="1679.230" x2="468.562" y2="1629.230"/>
      <line x1="469.562" y1="1679.230" x2="469.562" y2="1629.230"/>
      <line x1="470.562" y1="1679.230" x2="470.562" y2="1629.230"/>
      <line x1="471.562" y1="1679.230" x2="471.562" y2="1629.230"/>
      <line x1="472.562" y1="1679.230" x2="472.562" y2="1629.230"/>
      <line x1="473.562" y1="1679.230" x2="473.562" y2="1629.230"/>
      <line x1="474.562" y1="1679.230" x2="474.562" y2="1629.230"/>
      <line x1="475.562" y1="1679.230" x2="475.562" y2="1629.230"/>
      <line x1="476.562" y1="1679.230" x2="476.562" y2="1629.230"/>
      <line x1="477.562" y1="1679.230" x2="477.562" y2="1629.230"/>
      <line x1="478.562" y1="1679.230" x2="478.562" y2="1629.230"/>
      <line x1="479.562" y1="1679.230" x2="479.562" y2="1629.230"/>
      <line x1="480.562" y1="1679.230" x2="480.562" y2="1629.230"/>
      <line x1="481.562" y1="1679.230" x2="481.562" y2="1629.230"/>
      <line x1="482.562" y1="1679.230" x2="482.562" y2="1629.230"/>
      <line x1="483.562" y1="1679.230" x2="483.562" y2="1629.230"/>
      <line x1="484.562" y1="1679.230" x2="484.562" y2="1629.230"/>
      <line x1="485.562" y1="1679.230" x2="485.562" y2="1629.230"/>
      <line x1="486.562" y1="1679.230" x2="486.562" y2="1629.230"/>
      <line x1="487.562" y1="1679.230" x2="487.562" y2="1629.230"/>
      <line x1="488.562" y1="1679.230" x2="488.562" y2="1629.230"/>
      <line x1="489.562" y1="1679.230" x2="489.562" y2="1629.230"/>
      <line x1="490.562" y1="1679.230" x2="490.562" y2="1629.230"/>
      <line x1="491.562" y1="1679.230" x2="491.562" y2="1629.230"/>
      <line x1="492.562" y1="1679.230" x2="492.562" y2="1629.230"/>
      <line x1="493.562" y1="1679.230" x2="493.562" y2="1629.230"/>
      <line x1="494.562" y1="1679.230" x2="494.562" y2="1629.230"/>
      <line x1="495.562" y1="1679.230" x2="495.562" y2="1629.230"/>
      <line x1="496.562" y1="1679.230" x2="496.562" y2="1629.230"/>
      <line x1="497.562" y1="1679.230" x2="497.562" y2="1629.230"/>
      <line x1="498.562" y1="1679.230" x2="498.562" y2="1629.230"/>
      <line x1="499.562" y1="1679.230" x2="499.562" y2="1629.230"/>
      <line x1="500.562" y1="1679.230" x2="500.562" y2="1629.230"/>
      <line x1="501.562" y1="1679.230" x2="501.562" y2="1629.230"/>
      <line x1="502.562" y1="1679.230" x2="502.562" y2="1629.230"/>
      <line x1="503.562" y1="1679.230" x2="503.562" y2="1629.230"/>
      <line x1="504.562" y1="1679.230" x2="504.562" y2="1629.230"/>
      <line x1="505.562" y1="1679.230" x2="505.562" y2="1629.230"/>
      <line x1="506.562" y1="1679.230" x2="506.562" y2="1629.230"/>
      <line x1="507.562" y1="1679.230" x2="507.562" y2="1629.230"/>
      <line x1="508.562" y1="1679.230" x2="508.562" y2="1629.230"/>
      <line x1="509.562" y1="1679.230" x2="509.562" y2="1629.230"/>
      <line x1="510.562" y1="1679.230" x2="510.562" y2="1629.230"/>
      <line x1="511.562" y1="1679.230" x2="511.562" y2="1629.230"/>
      <line x1="512.562" y1="1679.230" x2="512.562" y2="1629.230"/>
      <line x1="513.562" y1="1679.230" x2="513.562" y2="1629.230"/>
      <line x1="514.562" y1="1679.230" x2="514.562" y2="1629.230"/>
      <line x1="515.562" y1="1679.230" x2="515.562" y2="1629.230"/>
      <line x1="516.562" y1="1679.230" x2="516.562" y2="1629.230"/>
      <line x1="517.562" y1="1679.230" x2="517.562" y2="1629.230"/>
      <line x1="518.562" y1="1679.230" x2="518.562" y2="1629.230"/>
      <line x1="519.562" y1="1679.230" x2="519.562" y2="1629.230"/>
      <line x1="520.562" y1="1679.230" x2="520.562" y2="1629.230"/>
      <line x1="521.562" y1="1679.230" x2="521.562" y2="1629.230"/>
      <line x1="522.562" y1="1679.230" x2="522.562" y2="1629.230"/>
      <line x1="523.562" y1="1679.230" x2="523.562" y2="1629.230"/>
      <line x1="524.562" y1="1679.230" x2="524.562" y2="1629.230"/>
      <line x1="525.562" y1="1679.230" x2="525.562" y2="1629.230"/>
      <line x1="526.562" y1="1679.230" x2="526.562" y2="1629.230"/>
      <line x1="527.562" y1="1679.230" x2="527.562" y2="1629.230"/>
      <line x1="528.562" y1="1679.230" x2="528.562" y2="1629.230"/>
      <line x1="529.562" y1="1679.230" x2="529.562" y2="1629.230"/>
      <line x1="530.562" y1="1679.230" x2="530.562" y2="1629.230"/>
      <line x1="531.562" y1="1679.230" x2="531.562" y2="1629.230"/>
      <line x1="532.562" y1="1679.230" x2="532.562" y2="1629.230"/>
      <line x1="533.562" y1="1679.230" x2="533.562" y2="1629.230"/>
      <line x1="534.562" y1="1679.230" x2="534.562" y2="1629.230"/>
      <line x1="535.562" y1="1679.230" x2="535.562" y2="1629.230"/>
      <line x1="536.562" y1="1679.230" x2="536.562" y2="1629.230"/>
      <line x1="537.562" y1="1679.230" x2="537.562" y2="1629.230"/>
      <line x1="538.562" y1="1679.230" x2="538.562" y2="1629.230"/>
      <line x1="539.562" y1="1679.230" x2="539.562" y2="1629.230"/>
      <line x1="540.562" y1="1679.230" x2="540.562" y2="1629.230"/>
      <line x1="541.562" y1="1679.230" x2="541.562" y2="1629.230"/>
      <line x1="542.562" y1="1679.230" x2="542.562" y2="1629.230"/>
      <line x1="543.562" y1="1679.230" x2="543.562" y2="1629.230"/>
      <line x1="544.562" y1="1679.230" x2="544.562" y2="1629.230"/>
      <line x1="545.562" y1="1679.230" x2="545.562" y2="1629.230"/>
      <line x1="546.562" y1="1679.230" x2="546.562" y2="1629.230"/>
      <line x1="547.562" y1="1679.230" x2="547.562" y2="1629.230"/>
      <line x1="548.562" y1="1679.230" x2="548.562" y2="1629.230"/>
      <line x1="549.562" y1="1679.230" x2="549.562" y2="1629.230"/>
      <line x1="550.562" y1="1679.230" x2="550.562" y2="1629.230"/>
      <line x1="551.562" y1="1679.230" x2="551.562" y2="1629.230"/>
      <line x1="552.562" y1="1679.230" x2="552.562" y2="1629.230"/>
      <line x1="553.562" y1="1679.230" x2="553.562" y2="1629.230"/>
      <line x1="554.562" y1="1679.230" x2="554.562" y2="1629.230"/>
      <line x1="555.562" y1="1679.230" x2="555.562" y2="1629.230"/>
      <line x1="556.562" y1="1679.230" x2="556.562" y2="1629.230"/>
      <line x1="557.562" y1="1679.230" x2="557.562" y2="1629.230"/>
      <line x1="558.562" y1="1679.230" x2="558.562" y2="1629.230"/>
      <line x1="559.562" y1="1679.230" x2="559.562" y2="1629.230"/>
      <line x1="560.562" y1="1679.230" x2="560.562" y2="1629.230"/>
      <line x1="561.562" y1="1679.230" x2="561.562" y2="1629.230"/>
      <line x1="562.562" y1="1679.230" x2="562.562" y2="1629.230"/>
      <line x1="563.562" y1="1679.230" x2="563.562" y2="1629.230"/>
      <line x1="564.562" y1="1679.230" x2="564.562" y2="1629.230"/>
      <line x1="565.562" y1="1679.230" x2="565.562" y2="1629.230"/>
      <line x1="566.562" y1="1679.230" x2="566.562" y2="1629.230"/>
      <line x1="567.562" y1="1679.230" x2="567.562" y2="1629.230"/>
      <line x1="568.562" y1="1679.230" x2="568.562" y2="1629.230"/>
      <line x1="569.562" y1="1679.230" x2="569.562" y2="1629.230"/>
      <line x1="570.562" y1="1679.230" x2="570.562" y2="1629.230"/>
      <line x1="571.562" y1="1679.230" x2="571.562" y2="1629.230"/>
      <line x1="572.562" y1="1679.230" x2="572.562" y2="1629.230"/>
      <line x1="573.562" y1="1679.230" x2="573.562" y2="1629.230"/>
      <line x1="574.562" y1="1679.230" x2="574.562" y2="1629.230"/>
      <line x1="575.562" y1="1679.230" x2="575.562" y2="1629.230"/>
      <line x1="576.562" y1="1679.230" x2="576.562" y2="1629.230"/>
      <line x1="577.562" y1="1679.230" x2="577.562" y2="1629.230"/>
      <line x1="578.562" y1="1679.230" x2="578.562" y2="1629.230"/>
      <line x1="579.562" y1="1679.230" x2="579.562" y2="1629.230"/>
      <line x1="580.562" y1="1679.230" x2="580.562" y2="1629.230"/>
      <line x1="452.562" y1="1629.130" x2="452.562" y2="1579.130"/>
      <line x1="453.562" y1="1629.130" x2="453.562" y2="1579.130"/>
      <line x1="454.562" y1="1629.130" x2="454.562" y2="1579.130"/>
      <line x1="455.562" y1="1629.130" x2="455.562" y2="1579.130"/>
      <line x1="456.562" y1="1629.130" x2="456.562" y2="1579.130"/>
      <line x1="457.562" y1="1629.130" x2="457.562" y2="1579.130"/>
      <line x1="458.562" y1="1629.130" x2="458.562" y2="1579.130"/>
      <line x1="459.562" y1="1629.130" x2="459.562" y2="1579.130"/>
      <line x1="460.562" y1="1629.130" x2="460.562" y2="1579.130"/>
      <line x1="461.562" y1="1629.130" x2="461.562" y2="1579.130"/>
      <line x1="462.562" y1="1629.130" x2="462.562" y2="1579.130"/>
      <line x1="463.562" y1="1629.130" x2="463.562" y2="1579.130"/>
      <line x1="464.562" y1="1629.130" x2="464.562" y2="1579.130"/>
      <line x1="465.562" y1="1629.130" x2="465.562" y2="1579.130"/>
      <line x1="466.562" y1="1629.130" x2="466.562" y2="1579.130"/>
      <line x1="467.562" y1="1629.130" x2="467.562" y2="1579.130"/>
      <line x1="468.562" y1="1629.130" x2="468.562" y2="1579.130"/>
      <line x1="469.562" y1="1629.130" x2="469.562" y2="1579.130"/>
      <line x1="470.562" y1="1629.130" x2="470.562" y2="1579.130"/>
      <line x1="471.562" y1="1629.130" x2="471.562" y2="1579.130"/>
      <line x1="472.562" y1="1629.130" x2="472.562" y2="1579.130"/>
      <line x1="473.562" y1="1629.130" x2="473.562" y2="1579.130"/>
      <line x1="474.562" y1="1629.130" x2="474.562" y2="1579.130"/>
      <line x1="475.562" y1="1629.130" x2="475.562" y2="1579.130"/>
      <line x1="476.562" y1="1629.130" x2="476.562" y2="1579.130"/>
      <line x1="477.562" y1="1629.130" x2="477.562" y2="1579.130"/>
      <line x1="478.562" y1="1629.130" x2="478.562" y2="1579.130"/>
      <line x1="479.562" y1="1629.130" x2="479.562" y2="1579.130"/>
      <line x1="480.562" y1="1629.130" x2="480.562" y2="1579.130"/>
      <line x1="481.562" y1="1629.130" x2="481.562" y2="1579.130"/>
      <line x1="482.562" y1="1629.130" x2="482.562" y2="1579.130"/>
      <line x1="483.562" y1="1629.130" x2="483.562" y2="1579.130"/>
      <line x1="484.562" y1="1629.130" x2="484.562" y2="1579.130"/>
      <line x1="485.562" y1="1629.130" x2="485.562" y2="1579.130"/>
      <line x1="486.562" y1="1629.130" x2="486.562" y2="1579.130"/>
      <line x1="487.562" y1="1629.130" x2="487.562" y2="1579.130"/>
      <line x1="488.562" y1="1629.130" x2="488.562" y2="1579.130"/>
      <line x1="489.562" y1="1629.130" x2="489.562" y2="1579.130"/>
      <line x1="490.562" y1="1629.130" x2="490.562" y2="1579.130"/>
      <line x1="491.562" y1="1629.130" x2="491.562" y2="1579.130"/>
      <line x1="492.562" y1="1629.130" x2="492.562" y2="1579.130"/>
      <line x1="493.562" y1="1629.130" x2="493.562" y2="1579.130"/>
      <line x1="494.562" y1="1629.130" x2="494.562" y2="1579.130"/>
      <line x1="495.562" y1="1629.130" x2="495.562" y2="1579.130"/>
      <line x1="496.562" y1="1629.130" x2="496.562" y2="1579.130"/>
      <line x1="497.562" y1="1629.130" x2="497.562" y2="1579.130"/>
      <line x1="498.562" y1="1629.130" x2="498.562" y2="1579.130"/>
      <line x1="499.562" y1="1629.130" x2="499.562" y2="1579.130"/>
      <line x1="500.562" y1="1629.130" x2="500.562" y2="1579.130"/>
      <line x1="501.562" y1="1629.130" x2="501.562" y2="1579.130"/>
      <line x1="502.562" y1="1629.130" x2="502.562" y2="1579.130"/>
      <line x1="503.562" y1="1629.130" x2="503.562" y2="1579.130"/>
      <line x1="504.562" y1="1629.130" x2="504.562" y2="1579.130"/>
      <line x1="505.562" y1="1629.130" x2="505.562" y2="1579.130"/>
      <line x1="506.562" y1="1629.130" x2="506.562" y2="1579.130"/>
      <line x1="507.562" y1="1629.130" x2="507.562" y2="1579.130"/>
      <line x1="508.562" y1="1629.130" x2="508.562" y2="1579.130"/>
      <line x1="509.562" y1="1629.130" x2="509.562" y2="1579.130"/>
      <line x1="510.562" y1="1629.130" x2="510.562" y2="1579.130"/>
      <line x1="511.562" y1="1629.130" x2="511.562" y2="1579.130"/>
      <line x1="512.562" y1="1629.130" x2="512.562" y2="1579.130"/>
      <line x1="513.562" y1="1629.130" x2="513.562" y2="1579.130"/>
      <line x1="514.562" y1="1629.130" x2="514.562" y2="1579.130"/>
      <line x1="515.562" y1="1629.130" x2="515.562" y2="1579.130"/>
      <line x1="516.562" y1="1629.130" x2="516.562" y2="1579.130"/>
      <line x1="517.562" y1="1629.130" x2="517.562" y2="1579.130"/>
      <line x1="518.562" y1="1629.130" x2="518.562" y2="1579.130"/>
      <line x1="519.562" y1="1629.130" x2="519.562" y2="1579.130"/>
      <line x1="520.562" y1="1629.130" x2="520.562" y2="1579.130"/>
      <line x1="521.562" y1="1629.130" x2="521.562" y2="1579.130"/>
      <line x1="522.562" y1="1629.130" x2="522.562" y2="1579.130"/>
      <line x1="523.562" y1="1629.130" x2="523.562" y2="1579.130"/>
      <line x1="524.562" y1="1629.130" x2="524.562" y2="1579.130"/>
      <line x1="525.562" y1="1629.130" x2="525.562" y2="1579.130"/>
      <line x1="526.562" y1="1629.130" x2="526.562" y2="1579.130"/>
      <line x1="527.562" y1="1629.130" x2="527.562" y2="1579.130"/>
      <line x1="528.562" y1="1629.130" x2="528.562" y2="1579.130"/>
      <line x1="529.562" y1="1629.130" x2="529.562" y2="1579.130"/>
      <line x1="530.562" y1="1629.130" x2="530.562" y2="1579.130"/>
      <line x1="531.562" y1="1629.130" x2="531.562" y2="1579.130"/>
      <line x1="532.562" y1="1629.130" x2="532.562" y2="1579.130"/>
      <line x1="533.562" y1="1629.130" x2="533.562" y2="1579.130"/>
      <line x1="534.562" y1="1629.130" x2="534.562" y2="1579.130"/>
      <line x1="535.562" y1="1629.130" x2="535.562" y2="1579.130"/>
      <line x1="536.562" y1="1629.130" x2="536.562" y2="1579.130"/>
      <line x1="537.562" y1="1629.130" x2="537.562" y2="1579.130"/>
      <line x1="538.562" y1="1629.130" x2="538.562" y2="1579.130"/>
      <line x1="539.562" y1="1629.130" x2="539.562" y2="1579.130"/>
      <line x1="540.562" y1="1629.130" x2="540.562" y2="1579.130"/>
      <line x1="541.562" y1="1629.130" x2="541.562" y2="1579.130"/>
      <line x1="542.562" y1="1629.130" x2="542.562" y2="1579.130"/>
      <line x1="543.562" y1="1629.130" x2="543.562" y2="1579.130"/>
      <line x1="544.562" y1="1629.130" x2="544.562" y2="1579.130"/>
      <line x1="545.562" y1="1629.130" x2="545.562" y2="1579.130"/>
      <line x1="546.562" y1="1629.130" x2="546.562" y2="1579.130"/>
      <line x1="547.562" y1="1629.130" x2="547.562" y2="1579.130"/>
      <line x1="548.562" y1="1629.130" x2="548.562" y2="1579.130"/>
      <line x1="549.562" y1="1629.130" x2="549.562" y2="1579.130"/>
      <line x1="550.562" y1="1629.130" x2="550.562" y2="1579.130"/>
      <line x1="551.562" y1="1629.130" x2="551.562" y2="1579.130"/>
      <line x1="552.562" y1="1629.130" x2="552.562" y2="1579.130"/>
      <line x1="553.562" y1="1629.130" x2="553.562" y2="1579.130"/>
      <line x1="554.562" y1="1629.130" x2="554.562" y2="1579.130"/>
      <line x1="555.562" y1="1629.130" x2="555.562" y2="1579.130"/>
      <line x1="556.562" y1="1629.130" x2="556.562" y2="1579.130"/>
      <line x1="557.562" y1="1629.130" x2="557.562" y2="1579.130"/>
      <line x1="558.562" y1="1629.130" x2="558.562" y2="1579.130"/>
      <line x1="559.562" y1="1629.130" x2="559.562" y2="1579.130"/>
      <line x1="560.562" y1="1629.130" x2="560.562" y2="1579.130"/>
      <line x1="561.562" y1="1629.130" x2="561.562" y2="1579.130"/>
      <line x1="562.562" y1="1629.130" x2="562.562" y2="1579.130"/>
      <line x1="563.562" y1="1629.130" x2="563.562" y2="1579.130"/>
      <line x1="564.562" y1="1629.130" x2="564.562" y2="1579.130"/>
      <line x1="565.562" y1="1629.130" x2="565.562" y2="1579.130"/>
      <line x1="566.562" y1="1629.130" x2="566.562" y2="1579.130"/>
      <line x1="567.562" y1="1629.130" x2="567.562" y2="1579.130"/>
      <line x1="568.562" y1="1629.130" x2="568.562" y2="1579.130"/>
      <line x1="569.562" y1="1629.130" x2="569.562" y2="1579.130"/>
      <line x1="570.562" y1="1629.130" x2="570.562" y2="1579.130"/>
      <line x1="571.562" y1="1629.130" x2="571.562" y2="1579.130"/>
      <line x1="572.562" y1="1629.130" x2="572.562" y2="1579.130"/>
      <line x1="573.562" y1="1629.130" x2="573.562" y2="1579.130"/>
      <line x1="574.562" y1="1629.130" x2="574.562" y2="1579.130"/>
      <line x1="575.562" y1="1629.130" x2="575.562" y2="1579.130"/>
      <line x1="576.562" y1="1629.130" x2="576.562" y2="1579.130"/>
      <line x1="577.562" y1="1629.130" x2="577.562" y2="1579.130"/>
      <line x1="578.562" y1="1629.130" x2="578.562" y2="1579.130"/>
      <line x1="579.562" y1="1629.130" x2="579.562" y2="1579.130"/>
      <line x1="580.562" y1="1629.130" x2="580.562" y2="1579.130"/>
      <line x1="452.562" y1="1579.030" x2="452.562" y2="1529.030"/>
      <line x1="453.562" y1="1579.030" x2="453.562" y2="1529.030"/>
      <line x1="454.562" y1="1579.030" x2="454.562" y2="1529.030"/>
      <line x1="455.562" y1="1579.030" x2="455.562" y2="1529.030"/>
      <line x1="456.562" y1="1579.030" x2="456.562" y2="1529.030"/>
      <line x1="457.562" y1="1579.030" x2="457.562" y2="1529.030"/>
      <line x1="458.562" y1="1579.030" x2="458.562" y2="1529.030"/>
      <line x1="459.562" y1="1579.030" x2="459.562" y2="1529.030"/>
      <line x1="460.562" y1="1579.030" x2="460.562" y2="1529.030"/>
      <line x1="461.562" y1="1579.030" x2="461.562" y2="1529.030"/>
      <line x1="462.562" y1="1579.030" x2="462.562" y2="1529.030"/>
      <line x1="463.562" y1="1579.030" x2="463.562" y2="1529.030"/>
      <line x1="464.562" y1="1579.030" x2="464.562" y2="1529.030"/>
      <line x1="465.562" y1="1579.030" x2="465.562" y2="1529.030"/>
      <line x1="466.562" y1="1579.030" x2="466.562" y2="1529.030"/>
      <line x1="467.562" y1="1579.030" x2="467.562" y2="1529.030"/>
      <line x1="468.562" y1="1579.030" x2="468.562" y2="1529.030"/>
      <line x1="469.562" y1="1579.030" x2="469.562" y2="1529.030"/>
      <line x1="470.562" y1="1579.030" x2="470.562" y2="1529.030"/>
      <line x1="471.562" y1="1579.030" x2="471.562" y2="1529.030"/>
      <line x1="472.562" y1="1579.030" x2="472.562" y2="1529.030"/>
      <line x1="473.562" y1="1579.030" x2="473.562" y2="1529.030"/>
      <line x1="474.562" y1="1579.030" x2="474.562" y2="1529.030"/>
      <line x1="475.562" y1="1579.030" x2="475.562" y2="1529.030"/>
      <line x1="476.562" y1="1579.030" x2="476.562" y2="1529.030"/>
      <line x1="477.562" y1="1579.030" x2="477.562" y2="1529.030"/>
      <line x1="478.562" y1="1579.030" x2="478.562" y2="1529.030"/>
      <line x1="479.562" y1="1579.030" x2="479.562" y2="1529.030"/>
      <line x1="480.562" y1="1579.030" x2="480.562" y2="1529.030"/>
      <line x1="481.562" y1="1579.030" x2="481.562" y2="1529.030"/>
      <line x1="482.562" y1="1579.030" x2="482.562" y2="1529.030"/>
      <line x1="483.562" y1="1579.030" x2="483.562" y2="1529.030"/>
      <line x1="484.562" y1="1579.030" x2="484.562" y2="1529.030"/>
      <line x1="485.562" y1="1579.030" x2="485.562" y2="1529.030"/>
      <line x1="486.562" y1="1579.030" x2="486.562" y2="1529.030"/>
      <line x1="487.562" y1="1579.030" x2="487.562" y2="1529.030"/>
      <line x1="488.562" y1="1579.030" x2="488.562" y2="1529.030"/>
      <line x1="489.562" y1="1579.030" x2="489.562" y2="1529.030"/>
      <line x1="490.562" y1="1579.030" x2="490.562" y2="1529.030"/>
      <line x1="491.562" y1="1579.030" x2="491.562" y2="1529.030"/>
      <line x1="492.562" y1="1579.030" x2="492.562" y2="1529.030"/>
      <line x1="493.562" y1="1579.030" x2="493.562" y2="1529.030"/>
      <line x1="494.562" y1="1579.030" x2="494.562" y2="1529.030"/>
      <line x1="495.562" y1="1579.030" x2="495.562" y2="1529.030"/>
      <line x1="496.562" y1="1579.030" x2="496.562" y2="1529.030"/>
      <line x1="497.562" y1="1579.030" x2="497.562" y2="1529.030"/>
      <line x1="498.562" y1="1579.030" x2="498.562" y2="1529.030"/>
      <line x1="499.562" y1="1579.030" x2="499.562" y2="1529.030"/>
      <line x1="500.562" y1="1579.030" x2="500.562" y2="1529.030"/>
      <line x1="501.562" y1="1579.030" x2="501.562" y2="1529.030"/>
      <line x1="502.562" y1="1579.030" x2="502.562" y2="1529.030"/>
      <line x1="503.562" y1="1579.030" x2="503.562" y2="1529.030"/>
      <line x1="504.562" y1="1579.030" x2="504.562" y2="1529.030"/>
      <line x1="505.562" y1="1579.030" x2="505.562" y2="1529.030"/>
      <line x1="506.562" y1="1579.030" x2="506.562" y2="1529.030"/>
      <line x1="507.562" y1="1579.030" x2="507.562" y2="1529.030"/>
      <line x1="508.562" y1="1579.030" x2="508.562" y2="1529.030"/>
      <line x1="509.562" y1="1579.030" x2="509.562" y2="1529.030"/>
      <line x1="510.562" y1="1579.030" x2="510.562" y2="1529.030"/>
      <line x1="511.562" y1="1579.030" x2="511.562" y2="1529.030"/>
      <line x1="512.562" y1="1579.030" x2="512.562" y2="1529.030"/>
      <line x1="513.562" y1="1579.030" x2="513.562" y2="1529.030"/>
      <line x1="514.562" y1="1579.030" x2="514.562" y2="1529.030"/>
      <line x1="515.562" y1="1579.030" x2="515.562" y2="1529.030"/>
      <line x1="516.562" y1="1579.030" x2="516.562" y2="1529.030"/>
      <line x1="517.562" y1="1579.030" x2="517.562" y2="1529.030"/>
      <line x1="518.562" y1="1579.030" x2="518.562" y2="1529.030"/>
      <line x1="519.562" y1="1579.030" x2="519.562" y2="1529.030"/>
      <line x1="520.562" y1="1579.030" x2="520.562" y2="1529.030"/>
      <line x1="521.562" y1="1579.030" x2="521.562" y2="1529.030"/>
      <line x1="522.562" y1="1579.030" x2="522.562" y2="1529.030"/>
      <line x1="523.562" y1="1579.030" x2="523.562" y2="1529.030"/>
      <line x1="524.562" y1="1579.030" x2="524.562" y2="1529.030"/>
      <line x1="525.562" y1="1579.030" x2="525.562" y2="1529.030"/>
      <line x1="526.562" y1="1579.030" x2="526.562" y2="1529.030"/>
      <line x1="527.562" y1="1579.030" x2="527.562" y2="1529.030"/>
      <line x1="528.562" y1="1579.030" x2="528.562" y2="1529.030"/>
      <line x1="529.562" y1="1579.030" x2="529.562" y2="1529.030"/>
      <line x1="530.562" y1="1579.030" x2="530.562" y2="1529.030"/>
      <line x1="531.562" y1="1579.030" x2="531.562" y2="1529.030"/>
      <line x1="532.562" y1="1579.030" x2="532.562" y2="1529.030"/>
      <line x1="533.562" y1="1579.030" x2="533.562" y2="1529.030"/>
      <line x1="534.562" y1="1579.030" x2="534.562" y2="1529.030"/>
      <line x1="535.562" y1="1579.030" x2="535.562" y2="1529.030"/>
      <line x1="536.562" y1="1579.030" x2="536.562" y2="1529.030"/>
      <line x1="537.562" y1="1579.030" x2="537.562" y2="1529.030"/>
      <line x1="538.562" y1="1579.030" x2="538.562" y2="1529.030"/>
      <line x1="539.562" y1="1579.030" x2="539.562" y2="1529.030"/>
      <line x1="540.562" y1="1579.030" x2="540.562" y2="1529.030"/>
      <line x1="541.562" y1="1579.030" x2="541.562" y2="1529.030"/>
      <line x1="542.562" y1="1579.030" x2="542.562" y2="1529.030"/>
      <line x1="543.562" y1="1579.030" x2="543.562" y2="1529.030"/>
      <line x1="544.562" y1="1579.030" x2="544.562" y2="1529.030"/>
      <line x1="545.562" y1="1579.030" x2="545.562" y2="1529.030"/>
      <line x1="546.562" y1="1579.030" x2="546.562" y2="1529.030"/>
      <line x1="547.562" y1="1579.030" x2="547.562" y2="1529.030"/>
      <line x1="548.562" y1="1579.030" x2="548.562" y2="1529.030"/>
      <line x1="549.562" y1="1579.030" x2="549.562" y2="1529.030"/>
      <line x1="550.562" y1="1579.030" x2="550.562" y2="1529.030"/>
      <line x1="551.562" y1="1579.030" x2="551.562" y2="1529.030"/>
      <line x1="552.562" y1="1579.030" x2="552.562" y2="1529.030"/>
      <line x1="553.562" y1="1579.030" x2="553.562" y2="1529.030"/>
      <line x1="554.562" y1="1579.030" x2="554.562" y2="1529.030"/>
      <line x1="555.562" y1="1579.030" x2="555.562" y2="1529.030"/>
      <line x1="556.562" y1="1579.030" x2="556.562" y2="1529.030"/>
      <line x1="557.562" y1="1579.030" x2="557.562" y2="1529.030"/>
      <line x1="558.562" y1="1579.030" x2="558.562" y2="1529.030"/>
      <line x1="559.562" y1="1579.030" x2="559.562" y2="1529.030"/>
      <line x1="560.562" y1="1579.030" x2="560.562" y2="1529.030"/>
      <line x1="561.562" y1="1579.030" x2="561.562" y2="1529.030"/>
      <line x1="562.562" y1="1579.030" x2="562.562" y2="1529.030"/>
      <line x1="563.562" y1="1579.030" x2="563.562" y2="1529.030"/>
      <line x1="564.562" y1="1579.030" x2="564.562" y2="1529.030"/>
      <line x1="565.562" y1="1579.030" x2="565.562" y2="1529.030"/>
      <line x1="566.562" y1="1579.030" x2="566.562" y2="1529.030"/>
      <line x1="567.562" y1="1579.030" x2="567.562" y2="1529.030"/>
      <line x1="568.562" y1="1579.030" x2="568.562" y2="1529.030"/>
      <line x1="569.562" y1="1579.030" x2="569.562" y2="1529.030"/>
      <line x1="570.562" y1="1579.030" x2="570.562" y2="1529.030"/>
      <line x1="571.562" y1="1579.030" x2="571.562" y2="1529.030"/>
      <line x1="572.562" y1="1579.030" x2="572.562" y2="1529.030"/>
      <line x1="573.562" y1="1579.030" x2="573.562" y2="1529.030"/>
      <line x1="574.562" y1="1579.030" x2="574.562" y2="1529.030"/>
      <line x1="575.562" y1="1579.030" x2="575.562" y2="1529.030"/>
      <line x1="576.562" y1="1579.030" x2="576.562" y2="1529.030"/>
      <line x1="577.562" y1="1579.030" x2="577.562" y2="1529.030"/>
      <line x1="578.562" y1="1579.030" x2="578.562" y2="1529.030"/>
      <line x1="579.562" y1="1579.030" x2="579.562" y2="1529.030"/>
      <line x1="580.562" y1="1579.030" x2="580.562" y2="1529.030"/>
      <line x1="480.562" y1="1528.930" x2="480.562" y2="1525.229"/>
      <line x1="481.562" y1="1528.930" x2="481.562" y2="1525.229"/>
      <line x1="475.562" y1="1528.930" x2="475.562" y2="1525.229"/>
      <line x1="452.562" y1="1528.930" x2="452.562" y2="1525.229"/>
      <line x1="453.562" y1="1528.930" x2="453.562" y2="1525.229"/>
      <line x1="455.562" y1="1528.930" x2="455.562" y2="1525.229"/>
      <line x1="458.562" y1="1528.930" x2="458.562" y2="1525.229"/>
      <line x1="460.562" y1="1528.930" x2="460.562" y2="1525.229"/>
      <line x1="461.562" y1="1528.930" x2="461.562" y2="1525.229"/>
      <line x1="463.562" y1="1528.930" x2="463.562" y2="1525.229"/>
      <line x1="466.562" y1="1528.930" x2="466.562" y2="1525.229"/>
      <line x1="478.562" y1="1528.930" x2="478.562" y2="1525.229"/>
      <line x1="473.562" y1="1528.930" x2="473.562" y2="1525.229"/>
      <line x1="472.562" y1="1528.930" x2="472.562" y2="1525.229"/>
      <line x1="469.562" y1="1528.930" x2="469.562" y2="1525.229"/>
      <line x1="464.562" y1="1528.930" x2="464.562" y2="1525.229"/>
      <line x1="470.562" y1="1528.930" x2="470.562" y2="1525.229"/>
      <line x1="467.562" y1="1528.930" x2="467.562" y2="1525.229"/>
      <line x1="457.562" y1="1528.930" x2="457.562" y2="1525.229"/>
      <line x1="456.562" y1="1528.930" x2="456.562" y2="1525.229"/>
      <line x1="459.562" y1="1528.930" x2="459.562" y2="1525.229"/>
      <line x1="462.562" y1="1528.930" x2="462.562" y2="1525.229"/>
      <line x1="465.562" y1="1528.930" x2="465.562" y2="1525.229"/>
      <line x1="468.562" y1="1528.930" x2="468.562" y2="1525.229"/>
      <line x1="471.562" y1="1528.930" x2="471.562" y2="1525.229"/>
      <line x1="474.562" y1="1528.930" x2="474.562" y2="1525.229"/>
      <line x1="477.562" y1="1528.930" x2="477.562" y2="1525.229"/>
      <line x1="476.562" y1="1528.930" x2="476.562" y2="1525.229"/>
      <line x1="479.562" y1="1528.930" x2="479.562" y2="1525.229"/>
      <line x1="454.562" y1="1528.930" x2="454.562" y2="1525.229"/>
      <line x1="484.562" y1="1528.930" x2="484.562" y2="1525.229"/>
      <line x1="495.562" y1="1528.930" x2="495.562" y2="1525.229"/>
      <line x1="494.562" y1="1528.930" x2="494.562" y2="1525.229"/>
      <line x1="493.562" y1="1528.930" x2="493.562" y2="1525.229"/>
      <line x1="492.562" y1="1528.930" x2="492.562" y2="1525.229"/>
      <line x1="491.562" y1="1528.930" x2="491.562" y2="1525.229"/>
      <line x1="490.562" y1="1528.930" x2="490.562" y2="1525.229"/>
      <line x1="489.562" y1="1528.930" x2="489.562" y2="1525.229"/>
      <line x1="488.562" y1="1528.930" x2="488.562" y2="1525.229"/>
      <line x1="487.562" y1="1528.930" x2="487.562" y2="1525.229"/>
      <line x1="486.562" y1="1528.930" x2="486.562" y2="1525.229"/>
      <line x1="485.562" y1="1528.930" x2="485.562" y2="1525.229"/>
      <line x1="496.562" y1="1528.930" x2="496.562" y2="1525.229"/>
      <line x1="483.562" y1="1528.930" x2="483.562" y2="1525.229"/>
      <line x1="482.562" y1="1528.930" x2="482.562" y2="1525.229"/>
      <line x1="501.562" y1="1528.930" x2="501.562" y2="1525.229"/>
      <line x1="500.562" y1="1528.930" x2="500.562" y2="1525.229"/>
      <line x1="499.562" y1="1528.930" x2="499.562" y2="1525.229"/>
      <line x1="498.562" y1="1528.930" x2="498.562" y2="1525.229"/>
      <line x1="497.562" y1="1528.930" x2="497.562" y2="1525.229"/>
      <line x1="532.562" y1="1528.930" x2="532.562" y2="1525.229"/>
      <line x1="543.562" y1="1528.930" x2="543.562" y2="1525.229"/>
      <line x1="542.562" y1="1528.930" x2="542.562" y2="1525.229"/>
      <line x1="541.562" y1="1528.930" x2="541.562" y2="1525.229"/>
      <line x1="540.562" y1="1528.930" x2="540.562" y2="1525.229"/>
      <line x1="539.562" y1="1528.930" x2="539.562" y2="1525.229"/>
      <line x1="538.562" y1="1528.930" x2="538.562" y2="1525.229"/>
      <line x1="537.562" y1="1528.930" x2="537.562" y2="1525.229"/>
      <line x1="536.562" y1="1528.930" x2="536.562" y2="1525.229"/>
      <line x1="535.562" y1="1528.930" x2="535.562" y2="1525.229"/>
      <line x1="534.562" y1="1528.930" x2="534.562" y2="1525.229"/>
      <line x1="533.562" y1="1528.930" x2="533.562" y2="1525.229"/>
      <line x1="544.562" y1="1528.930" x2="544.562" y2="1525.229"/>
      <line x1="531.562" y1="1528.930" x2="531.562" y2="1525.229"/>
      <line x1="530.562" y1="1528.930" x2="530.562" y2="1525.229"/>
      <line x1="529.562" y1="1528.930" x2="529.562" y2="1525.229"/>
      <line x1="528.562" y1="1528.930" x2="528.562" y2="1525.229"/>
      <line x1="527.562" y1="1528.930" x2="527.562" y2="1525.229"/>
      <line x1="526.562" y1="1528.930" x2="526.562" y2="1525.229"/>
      <line x1="525.562" y1="1528.930" x2="525.562" y2="1525.229"/>
      <line x1="524.562" y1="1528.930" x2="524.562" y2="1525.229"/>
      <line x1="523.562" y1="1528.930" x2="523.562" y2="1525.229"/>
      <line x1="522.562" y1="1528.930" x2="522.562" y2="1525.229"/>
      <line x1="521.562" y1="1528.930" x2="521.562" y2="1525.229"/>
      <line x1="551.562" y1="1528.930" x2="551.562" y2="1525.229"/>
      <line x1="550.562" y1="1528.930" x2="550.562" y2="1525.229"/>
      <line x1="549.562" y1="1528.930" x2="549.562" y2="1525.229"/>
      <line x1="548.562" y1="1528.930" x2="548.562" y2="1525.229"/>
      <line x1="547.562" y1="1528.930" x2="547.562" y2="1525.229"/>
      <line x1="546.562" y1="1528.930" x2="546.562" y2="1525.229"/>
      <line x1="545.562" y1="1528.930" x2="545.562" y2="1525.229"/>
      <line x1="508.562" y1="1528.930" x2="508.562" y2="1525.229"/>
      <line x1="519.562" y1="1528.930" x2="519.562" y2="1525.229"/>
      <line x1="518.562" y1="1528.930" x2="518.562" y2="1525.229"/>
      <line x1="517.562" y1="1528.930" x2="517.562" y2="1525.229"/>
      <line x1="516.562" y1="1528.930" x2="516.562" y2="1525.229"/>
      <line x1="515.562" y1="1528.930" x2="515.562" y2="1525.229"/>
      <line x1="514.562" y1="1528.930" x2="514.562" y2="1525.229"/>
      <line x1="513.562" y1="1528.930" x2="513.562" y2="1525.229"/>
      <line x1="512.562" y1="1528.930" x2="512.562" y2="1525.229"/>
      <line x1="511.562" y1="1528.930" x2="511.562" y2="1525.229"/>
      <line x1="510.562" y1="1528.930" x2="510.562" y2="1525.229"/>
      <line x1="509.562" y1="1528.930" x2="509.562" y2="1525.229"/>
      <line x1="520.562" y1="1528.930" x2="520.562" y2="1525.229"/>
      <line x1="507.562" y1="1528.930" x2="507.562" y2="1525.229"/>
      <line x1="506.562" y1="1528.930" x2="506.562" y2="1525.229"/>
      <line x1="505.562" y1="1528.930" x2="505.562" y2="1525.229"/>
      <line x1="504.562" y1="1528.930" x2="504.562" y2="1525.229"/>
      <line x1="503.562" y1="1528.930" x2="503.562" y2="1525.229"/>
      <line x1="502.562" y1="1528.930" x2="502.562" y2="1525.229"/>
      <line x1="580.562" y1="1528.930" x2="580.562" y2="1525.229"/>
      <line x1="557.562" y1="1528.930" x2="557.562" y2="1525.229"/>
      <line x1="559.562" y1="1528.930" x2="559.562" y2="1525.229"/>
      <line x1="560.562" y1="1528.930" x2="560.562" y2="1525.229"/>
      <line x1="562.562" y1="1528.930" x2="562.562" y2="1525.229"/>
      <line x1="563.562" y1="1528.930" x2="563.562" y2="1525.229"/>
      <line x1="565.562" y1="1528.930" x2="565.562" y2="1525.229"/>
      <line x1="566.562" y1="1528.930" x2="566.562" y2="1525.229"/>
      <line x1="568.562" y1="1528.930" x2="568.562" y2="1525.229"/>
      <line x1="569.562" y1="1528.930" x2="569.562" y2="1525.229"/>
      <line x1="571.562" y1="1528.930" x2="571.562" y2="1525.229"/>
      <line x1="572.562" y1="1528.930" x2="572.562" y2="1525.229"/>
      <line x1="574.562" y1="1528.930" x2="574.562" y2="1525.229"/>
      <line x1="577.562" y1="1528.930" x2="577.562" y2="1525.229"/>
      <line x1="579.562" y1="1528.930" x2="579.562" y2="1525.229"/>
      <line x1="556.562" y1="1528.930" x2="556.562" y2="1525.229"/>
      <line x1="555.562" y1="1528.930" x2="555.562" y2="1525.229"/>
      <line x1="554.562" y1="1528.930" x2="554.562" y2="1525.229"/>
      <line x1="553.562" y1="1528.930" x2="553.562" y2="1525.229"/>
      <line x1="552.562" y1="1528.930" x2="552.562" y2="1525.229"/>
      <line x1="558.562" y1="1528.930" x2="558.562" y2="1525.229"/>
      <line x1="561.562" y1="1528.930" x2="561.562" y2="1525.229"/>
      <line x1="564.562" y1="1528.930" x2="564.562" y2="1525.229"/>
      <line x1="567.562" y1="1528.930" x2="567.562" y2="1525.229"/>
      <line x1="570.562" y1="1528.930" x2="570.562" y2="1525.229"/>
      <line x1="573.562" y1="1528.930" x2="573.562" y2="1525.229"/>
      <line x1="576.562" y1="1528.930" x2="576.562" y2="1525.229"/>
      <line x1="575.562" y1="1528.930" x2="575.562" y2="1525.229"/>
      <line x1="578.562" y1="1528.930" x2="578.562" y2="1525.229"/>
      <line x1="19.482" y1="1679.230" x2="19.482" y2="1629.230"/>
      <line x1="20.482" y1="1679.230" x2="20.482" y2="1629.230"/>
      <line x1="21.482" y1="1679.230" x2="21.482" y2="1629.230"/>
      <line x1="22.482" y1="1679.230" x2="22.482" y2="1629.230"/>
      <line x1="23.482" y1="1679.230" x2="23.482" y2="1629.230"/>
      <line x1="24.482" y1="1679.230" x2="24.482" y2="1629.230"/>
      <line x1="25.482" y1="1679.230" x2="25.482" y2="1629.230"/>
      <line x1="26.482" y1="1679.230" x2="26.482" y2="1629.230"/>
      <line x1="27.482" y1="1679.230" x2="27.482" y2="1629.230"/>
      <line x1="28.482" y1="1679.230" x2="28.482" y2="1629.230"/>
      <line x1="29.482" y1="1679.230" x2="29.482" y2="1629.230"/>
      <line x1="30.482" y1="1679.230" x2="30.482" y2="1629.230"/>
      <line x1="31.482" y1="1679.230" x2="31.482" y2="1629.230"/>
      <line x1="32.482" y1="1679.230" x2="32.482" y2="1629.230"/>
      <line x1="33.482" y1="1679.230" x2="33.482" y2="1629.230"/>
      <line x1="34.482" y1="1679.230" x2="34.482" y2="1629.230"/>
      <line x1="35.482" y1="1679.230" x2="35.482" y2="1629.230"/>
      <line x1="36.482" y1="1679.230" x2="36.482" y2="1629.230"/>
      <line x1="37.482" y1="1679.230" x2="37.482" y2="1629.230"/>
      <line x1="38.482" y1="1679.230" x2="38.482" y2="1629.230"/>
      <line x1="39.482" y1="1679.230" x2="39.482" y2="1629.230"/>
      <line x1="40.482" y1="1679.230" x2="40.482" y2="1629.230"/>
      <line x1="41.482" y1="1679.230" x2="41.482" y2="1629.230"/>
      <line x1="42.482" y1="1679.230" x2="42.482" y2="1629.230"/>
      <line x1="43.482" y1="1679.230" x2="43.482" y2="1629.230"/>
      <line x1="44.482" y1="1679.230" x2="44.482" y2="1629.230"/>
      <line x1="45.482" y1="1679.230" x2="45.482" y2="1629.230"/>
      <line x1="46.482" y1="1679.230" x2="46.482" y2="1629.230"/>
      <line x1="47.482" y1="1679.230" x2="47.482" y2="1629.230"/>
      <line x1="48.482" y1="1679.230" x2="48.482" y2="1629.230"/>
      <line x1="49.482" y1="1679.230" x2="49.482" y2="1629.230"/>
      <line x1="50.482" y1="1679.230" x2="50.482" y2="1629.230"/>
      <line x1="51.482" y1="1679.230" x2="51.482" y2="1629.230"/>
      <line x1="52.482" y1="1679.230" x2="52.482" y2="1629.230"/>
      <line x1="53.482" y1="1679.230" x2="53.482" y2="1629.230"/>
      <line x1="54.482" y1="1679.230" x2="54.482" y2="1629.230"/>
      <line x1="55.482" y1="1679.230" x2="55.482" y2="1629.230"/>
      <line x1="56.482" y1="1679.230" x2="56.482" y2="1629.230"/>
      <line x1="57.482" y1="1679.230" x2="57.482" y2="1629.230"/>
      <line x1="58.482" y1="1679.230" x2="58.482" y2="1629.230"/>
      <line x1="59.482" y1="1679.230" x2="59.482" y2="1629.230"/>
      <line x1="60.482" y1="1679.230" x2="60.482" y2="1629.230"/>
      <line x1="61.482" y1="1679.230" x2="61.482" y2="1629.230"/>
      <line x1="62.482" y1="1679.230" x2="62.482" y2="1629.230"/>
      <line x1="63.482" y1="1679.230" x2="63.482" y2="1629.230"/>
      <line x1="64.482" y1="1679.230" x2="64.482" y2="1629.230"/>
      <line x1="65.482" y1="1679.230" x2="65.482" y2="1629.230"/>
      <line x1="66.482" y1="1679.230" x2="66.482" y2="1629.230"/>
      <line x1="67.482" y1="1679.230" x2="67.482" y2="1629.230"/>
      <line x1="68.482" y1="1679.230" x2="68.482" y2="1629.230"/>
      <line x1="69.482" y1="1679.230" x2="69.482" y2="1629.230"/>
      <line x1="70.482" y1="1679.230" x2="70.482" y2="1629.230"/>
      <line x1="71.482" y1="1679.230" x2="71.482" y2="1629.230"/>
      <line x1="72.482" y1="1679.230" x2="72.482" y2="1629.230"/>
      <line x1="73.482" y1="1679.230" x2="73.482" y2="1629.230"/>
      <line x1="74.482" y1="1679.230" x2="74.482" y2="1629.230"/>
      <line x1="75.482" y1="1679.230" x2="75.482" y2="1629.230"/>
      <line x1="76.482" y1="1679.230" x2="76.482" y2="1629.230"/>
      <line x1="77.482" y1="1679.230" x2="77.482" y2="1629.230"/>
      <line x1="78.482" y1="1679.230" x2="78.482" y2="1629.230"/>
      <line x1="79.482" y1="1679.230" x2="79.482" y2="1629.230"/>
      <line x1="80.482" y1="1679.230" x2="80.482" y2="1629.230"/>
      <line x1="81.482" y1="1679.230" x2="81.482" y2="1629.230"/>
      <line x1="82.482" y1="1679.230" x2="82.482" y2="1629.230"/>
      <line x1="83.482" y1="1679.230" x2="83.482" y2="1629.230"/>
      <line x1="84.482" y1="1679.230" x2="84.482" y2="1629.230"/>
      <line x1="85.482" y1="1679.230" x2="85.482" y2="1629.230"/>
      <line x1="86.482" y1="1679.230" x2="86.482" y2="1629.230"/>
      <line x1="87.482" y1="1679.230" x2="87.482" y2="1629.230"/>
      <line x1="88.482" y1="1679.230" x2="88.482" y2="1629.230"/>
      <line x1="89.482" y1="1679.230" x2="89.482" y2="1629.230"/>
      <line x1="90.482" y1="1679.230" x2="90.482" y2="1629.230"/>
      <line x1="91.482" y1="1679.230" x2="91.482" y2="1629.230"/>
      <line x1="92.482" y1="1679.230" x2="92.482" y2="1629.230"/>
      <line x1="93.482" y1="1679.230" x2="93.482" y2="1629.230"/>
      <line x1="94.482" y1="1679.230" x2="94.482" y2="1629.230"/>
      <line x1="95.482" y1="1679.230" x2="95.482" y2="1629.230"/>
      <line x1="96.482" y1="1679.230" x2="96.482" y2="1629.230"/>
      <line x1="97.482" y1="1679.230" x2="97.482" y2="1629.230"/>
      <line x1="98.482" y1="1679.230" x2="98.482" y2="1629.230"/>
      <line x1="99.482" y1="1679.230" x2="99.482" y2="1629.230"/>
      <line x1="100.482" y1="1679.230" x2="100.482" y2="1629.230"/>
      <line x1="101.482" y1="1679.230" x2="101.482" y2="1629.230"/>
      <line x1="102.482" y1="1679.230" x2="102.482" y2="1629.230"/>
      <line x1="103.482" y1="1679.230" x2="103.482" y2="1629.230"/>
      <line x1="104.482" y1="1679.230" x2="104.482" y2="1629.230"/>
      <line x1="105.482" y1="1679.230" x2="105.482" y2="1629.230"/>
      <line x1="106.482" y1="1679.230" x2="106.482" y2="1629.230"/>
      <line x1="107.482" y1="1679.230" x2="107.482" y2="1629.230"/>
      <line x1="108.482" y1="1679.230" x2="108.482" y2="1629.230"/>
      <line x1="109.482" y1="1679.230" x2="109.482" y2="1629.230"/>
      <line x1="110.482" y1="1679.230" x2="110.482" y2="1629.230"/>
      <line x1="111.482" y1="1679.230" x2="111.482" y2="1629.230"/>
      <line x1="112.482" y1="1679.230" x2="112.482" y2="1629.230"/>
      <line x1="113.482" y1="1679.230" x2="113.482" y2="1629.230"/>
      <line x1="114.482" y1="1679.230" x2="114.482" y2="1629.230"/>
      <line x1="115.482" y1="1679.230" x2="115.482" y2="1629.230"/>
      <line x1="116.482" y1="1679.230" x2="116.482" y2="1629.230"/>
      <line x1="117.482" y1="1679.230" x2="117.482" y2="1629.230"/>
      <line x1="118.482" y1="1679.230" x2="118.482" y2="1629.230"/>
      <line x1="119.482" y1="1679.230" x2="119.482" y2="1629.230"/>
      <line x1="120.482" y1="1679.230" x2="120.482" y2="1629.230"/>
      <line x1="121.482" y1="1679.230" x2="121.482" y2="1629.230"/>
      <line x1="122.482" y1="1679.230" x2="122.482" y2="1629.230"/>
      <line x1="123.482" y1="1679.230" x2="123.482" y2="1629.230"/>
      <line x1="124.482" y1="1679.230" x2="124.482" y2="1629.230"/>
      <line x1="125.482" y1="1679.230" x2="125.482" y2="1629.230"/>
      <line x1="126.482" y1="1679.230" x2="126.482" y2="1629.230"/>
      <line x1="127.482" y1="1679.230" x2="127.482" y2="1629.230"/>
      <line x1="128.482" y1="1679.230" x2="128.482" y2="1629.230"/>
      <line x1="129.482" y1="1679.230" x2="129.482" y2="1629.230"/>
      <line x1="130.482" y1="1679.230" x2="130.482" y2="1629.230"/>
      <line x1="131.482" y1="1679.230" x2="131.482" y2="1629.230"/>
      <line x1="132.482" y1="1679.230" x2="132.482" y2="1629.230"/>
      <line x1="133.482" y1="1679.230" x2="133.482" y2="1629.230"/>
      <line x1="134.482" y1="1679.230" x2="134.482" y2="1629.230"/>
      <line x1="135.482" y1="1679.230" x2="135.482" y2="1629.230"/>
      <line x1="136.482" y1="1679.230" x2="136.482" y2="1629.230"/>
      <line x1="137.482" y1="1679.230" x2="137.482" y2="1629.230"/>
      <line x1="138.482" y1="1679.230" x2="138.482" y2="1629.230"/>
      <line x1="139.482" y1="1679.230" x2="139.482" y2="1629.230"/>
      <line x1="140.482" y1="1679.230" x2="140.482" y2="1629.230"/>
      <line x1="141.482" y1="1679.230" x2="141.482" y2="1629.230"/>
      <line x1="142.482" y1="1679.230" x2="142.482" y2="1629.230"/>
      <line x1="143.482" y1="1679.230" x2="143.482" y2="1629.230"/>
      <line x1="144.482" y1="1679.230" x2="144.482" y2="1629.230"/>
      <line x1="145.482" y1="1679.230" x2="145.482" y2="1629.230"/>
      <line x1="146.482" y1="1679.230" x2="146.482" y2="1629.230"/>
      <line x1="147.482" y1="1679.230" x2="147.482" y2="1629.230"/>
      <line x1="19.482" y1="1629.130" x2="19.482" y2="1579.130"/>
      <line x1="20.482" y1="1629.130" x2="20.482" y2="1579.130"/>
      <line x1="21.482" y1="1629.130" x2="21.482" y2="1579.130"/>
      <line x1="22.482" y1="1629.130" x2="22.482" y2="1579.130"/>
      <line x1="23.482" y1="1629.130" x2="23.482" y2="1579.130"/>
      <line x1="24.482" y1="1629.130" x2="24.482" y2="1579.130"/>
      <line x1="25.482" y1="1629.130" x2="25.482" y2="1579.130"/>
      <line x1="26.482" y1="1629.130" x2="26.482" y2="1579.130"/>
      <line x1="27.482" y1="1629.130" x2="27.482" y2="1579.130"/>
      <line x1="28.482" y1="1629.130" x2="28.482" y2="1579.130"/>
      <line x1="29.482" y1="1629.130" x2="29.482" y2="1579.130"/>
      <line x1="30.482" y1="1629.130" x2="30.482" y2="1579.130"/>
      <line x1="31.482" y1="1629.130" x2="31.482" y2="1579.130"/>
      <line x1="32.482" y1="1629.130" x2="32.482" y2="1579.130"/>
      <line x1="33.482" y1="1629.130" x2="33.482" y2="1579.130"/>
      <line x1="34.482" y1="1629.130" x2="34.482" y2="1579.130"/>
      <line x1="35.482" y1="1629.130" x2="35.482" y2="1579.130"/>
      <line x1="36.482" y1="1629.130" x2="36.482" y2="1579.130"/>
      <line x1="37.482" y1="1629.130" x2="37.482" y2="1579.130"/>
      <line x1="38.482" y1="1629.130" x2="38.482" y2="1579.130"/>
      <line x1="39.482" y1="1629.130" x2="39.482" y2="1579.130"/>
      <line x1="40.482" y1="1629.130" x2="40.482" y2="1579.130"/>
      <line x1="41.482" y1="1629.130" x2="41.482" y2="1579.130"/>
      <line x1="42.482" y1="1629.130" x2="42.482" y2="1579.130"/>
      <line x1="43.482" y1="1629.130" x2="43.482" y2="1579.130"/>
      <line x1="44.482" y1="1629.130" x2="44.482" y2="1579.130"/>
      <line x1="45.482" y1="1629.130" x2="45.482" y2="1579.130"/>
      <line x1="46.482" y1="1629.130" x2="46.482" y2="1579.130"/>
      <line x1="47.482" y1="1629.130" x2="47.482" y2="1579.130"/>
      <line x1="48.482" y1="1629.130" x2="48.482" y2="1579.130"/>
      <line x1="49.482" y1="1629.130" x2="49.482" y2="1579.130"/>
      <line x1="50.482" y1="1629.130" x2="50.482" y2="1579.130"/>
      <line x1="51.482" y1="1629.130" x2="51.482" y2="1579.130"/>
      <line x1="52.482" y1="1629.130" x2="52.482" y2="1579.130"/>
      <line x1="53.482" y1="1629.130" x2="53.482" y2="1579.130"/>
      <line x1="54.482" y1="1629.130" x2="54.482" y2="1579.130"/>
      <line x1="55.482" y1="1629.130" x2="55.482" y2="1579.130"/>
      <line x1="56.482" y1="1629.130" x2="56.482" y2="1579.130"/>
      <line x1="57.482" y1="1629.130" x2="57.482" y2="1579.130"/>
      <line x1="58.482" y1="1629.130" x2="58.482" y2="1579.130"/>
      <line x1="59.482" y1="1629.130" x2="59.482" y2="1579.130"/>
      <line x1="60.482" y1="1629.130" x2="60.482" y2="1579.130"/>
      <line x1="61.482" y1="1629.130" x2="61.482" y2="1579.130"/>
      <line x1="62.482" y1="1629.130" x2="62.482" y2="1579.130"/>
      <line x1="63.482" y1="1629.130" x2="63.482" y2="1579.130"/>
      <line x1="64.482" y1="1629.130" x2="64.482" y2="1579.130"/>
      <line x1="65.482" y1="1629.130" x2="65.482" y2="1579.130"/>
      <line x1="66.482" y1="1629.130" x2="66.482" y2="1579.130"/>
      <line x1="67.482" y1="1629.130" x2="67.482" y2="1579.130"/>
      <line x1="68.482" y1="1629.130" x2="68.482" y2="1579.130"/>
      <line x1="69.482" y1="1629.130" x2="69.482" y2="1579.130"/>
      <line x1="70.482" y1="1629.130" x2="70.482" y2="1579.130"/>
      <line x1="71.482" y1="1629.130" x2="71.482" y2="1579.130"/>
      <line x1="72.482" y1="1629.130" x2="72.482" y2="1579.130"/>
      <line x1="73.482" y1="1629.130" x2="73.482" y2="1579.130"/>
      <line x1="74.482" y1="1629.130" x2="74.482" y2="1579.130"/>
      <line x1="75.482" y1="1629.130" x2="75.482" y2="1579.130"/>
      <line x1="76.482" y1="1629.130" x2="76.482" y2="1579.130"/>
      <line x1="77.482" y1="1629.130" x2="77.482" y2="1579.130"/>
      <line x1="78.482" y1="1629.130" x2="78.482" y2="1579.130"/>
      <line x1="79.482" y1="1629.130" x2="79.482" y2="1579.130"/>
      <line x1="80.482" y1="1629.130" x2="80.482" y2="1579.130"/>
      <line x1="81.482" y1="1629.130" x2="81.482" y2="1579.130"/>
      <line x1="82.482" y1="1629.130" x2="82.482" y2="1579.130"/>
      <line x1="83.482" y1="1629.130" x2="83.482" y2="1579.130"/>
      <line x1="84.482" y1="1629.130" x2="84.482" y2="1579.130"/>
      <line x1="85.482" y1="1629.130" x2="85.482" y2="1579.130"/>
      <line x1="86.482" y1="1629.130" x2="86.482" y2="1579.130"/>
      <line x1="87.482" y1="1629.130" x2="87.482" y2="1579.130"/>
      <line x1="88.482" y1="1629.130" x2="88.482" y2="1579.130"/>
      <line x1="89.482" y1="1629.130" x2="89.482" y2="1579.130"/>
      <line x1="90.482" y1="1629.130" x2="90.482" y2="1579.130"/>
      <line x1="91.482" y1="1629.130" x2="91.482" y2="1579.130"/>
      <line x1="92.482" y1="1629.130" x2="92.482" y2="1579.130"/>
      <line x1="93.482" y1="1629.130" x2="93.482" y2="1579.130"/>
      <line x1="94.482" y1="1629.130" x2="94.482" y2="1579.130"/>
      <line x1="95.482" y1="1629.130" x2="95.482" y2="1579.130"/>
      <line x1="96.482" y1="1629.130" x2="96.482" y2="1579.130"/>
      <line x1="97.482" y1="1629.130" x2="97.482" y2="1579.130"/>
      <line x1="98.482" y1="1629.130" x2="98.482" y2="1579.130"/>
      <line x1="99.482" y1="1629.130" x2="99.482" y2="1579.130"/>
      <line x1="100.482" y1="1629.130" x2="100.482" y2="1579.130"/>
      <line x1="101.482" y1="1629.130" x2="101.482" y2="1579.130"/>
      <line x1="102.482" y1="1629.130" x2="102.482" y2="1579.130"/>
      <line x1="103.482" y1="1629.130" x2="103.482" y2="1579.130"/>
      <line x1="104.482" y1="1629.130" x2="104.482" y2="1579.130"/>
      <line x1="105.482" y1="1629.130" x2="105.482" y2="1579.130"/>
      <line x1="106.482" y1="1629.130" x2="106.482" y2="1579.130"/>
      <line x1="107.482" y1="1629.130" x2="107.482" y2="1579.130"/>
      <line x1="108.482" y1="1629.130" x2="108.482" y2="1579.130"/>
      <line x1="109.482" y1="1629.130" x2="109.482" y2="1579.130"/>
      <line x1="110.482" y1="1629.130" x2="110.482" y2="1579.130"/>
      <line x1="111.482" y1="1629.130" x2="111.482" y2="1579.130"/>
      <line x1="112.482" y1="1629.130" x2="112.482" y2="1579.130"/>
      <line x1="113.482" y1="1629.130" x2="113.482" y2="1579.130"/>
      <line x1="114.482" y1="1629.130" x2="114.482" y2="1579.130"/>
      <line x1="115.482" y1="1629.130" x2="115.482" y2="1579.130"/>
      <line x1="116.482" y1="1629.130" x2="116.482" y2="1579.130"/>
      <line x1="117.482" y1="1629.130" x2="117.482" y2="1579.130"/>
      <line x1="118.482" y1="1629.130" x2="118.482" y2="1579.130"/>
      <line x1="119.482" y1="1629.130" x2="119.482" y2="1579.130"/>
      <line x1="120.482" y1="1629.130" x2="120.482" y2="1579.130"/>
      <line x1="121.482" y1="1629.130" x2="121.482" y2="1579.130"/>
      <line x1="122.482" y1="1629.130" x2="122.482" y2="1579.130"/>
      <line x1="123.482" y1="1629.130" x2="123.482" y2="1579.130"/>
      <line x1="124.482" y1="1629.130" x2="124.482" y2="1579.130"/>
      <line x1="125.482" y1="1629.130" x2="125.482" y2="1579.130"/>
      <line x1="126.482" y1="1629.130" x2="126.482" y2="1579.130"/>
      <line x1="127.482" y1="1629.130" x2="127.482" y2="1579.130"/>
      <line x1="128.482" y1="1629.130" x2="128.482" y2="1579.130"/>
      <line x1="129.482" y1="1629.130" x2="129.482" y2="1579.130"/>
      <line x1="130.482" y1="1629.130" x2="130.482" y2="1579.130"/>
      <line x1="131.482" y1="1629.130" x2="131.482" y2="1579.130"/>
      <line x1="132.482" y1="1629.130" x2="132.482" y2="1579.130"/>
      <line x1="133.482" y1="1629.130" x2="133.482" y2="1579.130"/>
      <line x1="134.482" y1="1629.130" x2="134.482" y2="1579.130"/>
      <line x1="135.482" y1="1629.130" x2="135.482" y2="1579.130"/>
      <line x1="136.482" y1="1629.130" x2="136.482" y2="1579.130"/>
      <line x1="137.482" y1="1629.130" x2="137.482" y2="1579.130"/>
      <line x1="138.482" y1="1629.130" x2="138.482" y2="1579.130"/>
      <line x1="139.482" y1="1629.130" x2="139.482" y2="1579.130"/>
      <line x1="140.482" y1="1629.130" x2="140.482" y2="1579.130"/>
      <line x1="141.482" y1="1629.130" x2="141.482" y2="1579.130"/>
      <line x1="142.482" y1="1629.130" x2="142.482" y2="1579.130"/>
      <line x1="143.482" y1="1629.130" x2="143.482" y2="1579.130"/>
      <line x1="144.482" y1="1629.130" x2="144.482" y2="1579.130"/>
      <line x1="145.482" y1="1629.130" x2="145.482" y2="1579.130"/>
      <line x1="146.482" y1="1629.130" x2="146.482" y2="1579.130"/>
      <line x1="147.482" y1="1629.130" x2="147.482" y2="1579.130"/>
      <line x1="19.482" y1="1579.030" x2="19.482" y2="1529.030"/>
      <line x1="20.482" y1="1579.030" x2="20.482" y2="1529.030"/>
      <line x1="21.482" y1="1579.030" x2="21.482" y2="1529.030"/>
      <line x1="22.482" y1="1579.030" x2="22.482" y2="1529.030"/>
      <line x1="23.482" y1="1579.030" x2="23.482" y2="1529.030"/>
      <line x1="24.482" y1="1579.030" x2="24.482" y2="1529.030"/>
      <line x1="25.482" y1="1579.030" x2="25.482" y2="1529.030"/>
      <line x1="26.482" y1="1579.030" x2="26.482" y2="1529.030"/>
      <line x1="27.482" y1="1579.030" x2="27.482" y2="1529.030"/>
      <line x1="28.482" y1="1579.030" x2="28.482" y2="1529.030"/>
      <line x1="29.482" y1="1579.030" x2="29.482" y2="1529.030"/>
      <line x1="30.482" y1="1579.030" x2="30.482" y2="1529.030"/>
      <line x1="31.482" y1="1579.030" x2="31.482" y2="1529.030"/>
      <line x1="32.482" y1="1579.030" x2="32.482" y2="1529.030"/>
      <line x1="33.482" y1="1579.030" x2="33.482" y2="1529.030"/>
      <line x1="34.482" y1="1579.030" x2="34.482" y2="1529.030"/>
      <line x1="35.482" y1="1579.030" x2="35.482" y2="1529.030"/>
      <line x1="36.482" y1="1579.030" x2="36.482" y2="1529.030"/>
      <line x1="37.482" y1="1579.030" x2="37.482" y2="1529.030"/>
      <line x1="38.482" y1="1579.030" x2="38.482" y2="1529.030"/>
      <line x1="39.482" y1="1579.030" x2="39.482" y2="1529.030"/>
      <line x1="40.482" y1="1579.030" x2="40.482" y2="1529.030"/>
      <line x1="41.482" y1="1579.030" x2="41.482" y2="1529.030"/>
      <line x1="42.482" y1="1579.030" x2="42.482" y2="1529.030"/>
      <line x1="43.482" y1="1579.030" x2="43.482" y2="1529.030"/>
      <line x1="44.482" y1="1579.030" x2="44.482" y2="1529.030"/>
      <line x1="45.482" y1="1579.030" x2="45.482" y2="1529.030"/>
      <line x1="46.482" y1="1579.030" x2="46.482" y2="1529.030"/>
      <line x1="47.482" y1="1579.030" x2="47.482" y2="1529.030"/>
      <line x1="48.482" y1="1579.030" x2="48.482" y2="1529.030"/>
      <line x1="49.482" y1="1579.030" x2="49.482" y2="1529.030"/>
      <line x1="50.482" y1="1579.030" x2="50.482" y2="1529.030"/>
      <line x1="51.482" y1="1579.030" x2="51.482" y2="1529.030"/>
      <line x1="52.482" y1="1579.030" x2="52.482" y2="1529.030"/>
      <line x1="53.482" y1="1579.030" x2="53.482" y2="1529.030"/>
      <line x1="54.482" y1="1579.030" x2="54.482" y2="1529.030"/>
      <line x1="55.482" y1="1579.030" x2="55.482" y2="1529.030"/>
      <line x1="56.482" y1="1579.030" x2="56.482" y2="1529.030"/>
      <line x1="57.482" y1="1579.030" x2="57.482" y2="1529.030"/>
      <line x1="58.482" y1="1579.030" x2="58.482" y2="1529.030"/>
      <line x1="59.482" y1="1579.030" x2="59.482" y2="1529.030"/>
      <line x1="60.482" y1="1579.030" x2="60.482" y2="1529.030"/>
      <line x1="61.482" y1="1579.030" x2="61.482" y2="1529.030"/>
      <line x1="62.482" y1="1579.030" x2="62.482" y2="1529.030"/>
      <line x1="63.482" y1="1579.030" x2="63.482" y2="1529.030"/>
      <line x1="64.482" y1="1579.030" x2="64.482" y2="1529.030"/>
      <line x1="65.482" y1="1579.030" x2="65.482" y2="1529.030"/>
      <line x1="66.482" y1="1579.030" x2="66.482" y2="1529.030"/>
      <line x1="67.482" y1="1579.030" x2="67.482" y2="1529.030"/>
      <line x1="68.482" y1="1579.030" x2="68.482" y2="1529.030"/>
      <line x1="69.482" y1="1579.030" x2="69.482" y2="1529.030"/>
      <line x1="70.482" y1="1579.030" x2="70.482" y2="1529.030"/>
      <line x1="71.482" y1="1579.030" x2="71.482" y2="1529.030"/>
      <line x1="72.482" y1="1579.030" x2="72.482" y2="1529.030"/>
      <line x1="73.482" y1="1579.030" x2="73.482" y2="1529.030"/>
      <line x1="74.482" y1="1579.030" x2="74.482" y2="1529.030"/>
      <line x1="75.482" y1="1579.030" x2="75.482" y2="1529.030"/>
      <line x1="76.482" y1="1579.030" x2="76.482" y2="1529.030"/>
      <line x1="77.482" y1="1579.030" x2="77.482" y2="1529.030"/>
      <line x1="78.482" y1="1579.030" x2="78.482" y2="1529.030"/>
      <line x1="79.482" y1="1579.030" x2="79.482" y2="1529.030"/>
      <line x1="80.482" y1="1579.030" x2="80.482" y2="1529.030"/>
      <line x1="81.482" y1="1579.030" x2="81.482" y2="1529.030"/>
      <line x1="82.482" y1="1579.030" x2="82.482" y2="1529.030"/>
      <line x1="83.482" y1="1579.030" x2="83.482" y2="1529.030"/>
      <line x1="84.482" y1="1579.030" x2="84.482" y2="1529.030"/>
      <line x1="85.482" y1="1579.030" x2="85.482" y2="1529.030"/>
      <line x1="86.482" y1="1579.030" x2="86.482" y2="1529.030"/>
      <line x1="87.482" y1="1579.030" x2="87.482" y2="1529.030"/>
      <line x1="88.482" y1="1579.030" x2="88.482" y2="1529.030"/>
      <line x1="89.482" y1="1579.030" x2="89.482" y2="1529.030"/>
      <line x1="90.482" y1="1579.030" x2="90.482" y2="1529.030"/>
      <line x1="91.482" y1="1579.030" x2="91.482" y2="1529.030"/>
      <line x1="92.482" y1="1579.030" x2="92.482" y2="1529.030"/>
      <line x1="93.482" y1="1579.030" x2="93.482" y2="1529.030"/>
      <line x1="94.482" y1="1579.030" x2="94.482" y2="1529.030"/>
      <line x1="95.482" y1="1579.030" x2="95.482" y2="1529.030"/>
      <line x1="96.482" y1="1579.030" x2="96.482" y2="1529.030"/>
      <line x1="97.482" y1="1579.030" x2="97.482" y2="1529.030"/>
      <line x1="98.482" y1="1579.030" x2="98.482" y2="1529.030"/>
      <line x1="99.482" y1="1579.030" x2="99.482" y2="1529.030"/>
      <line x1="100.482" y1="1579.030" x2="100.482" y2="1529.030"/>
      <line x1="101.482" y1="1579.030" x2="101.482" y2="1529.030"/>
      <line x1="102.482" y1="1579.030" x2="102.482" y2="1529.030"/>
      <line x1="103.482" y1="1579.030" x2="103.482" y2="1529.030"/>
      <line x1="104.482" y1="1579.030" x2="104.482" y2="1529.030"/>
      <line x1="105.482" y1="1579.030" x2="105.482" y2="1529.030"/>
      <line x1="106.482" y1="1579.030" x2="106.482" y2="1529.030"/>
      <line x1="107.482" y1="1579.030" x2="107.482" y2="1529.030"/>
      <line x1="108.482" y1="1579.030" x2="108.482" y2="1529.030"/>
      <line x1="109.482" y1="1579.030" x2="109.482" y2="1529.030"/>
      <line x1="110.482" y1="1579.030" x2="110.482" y2="1529.030"/>
      <line x1="111.482" y1="1579.030" x2="111.482" y2="1529.030"/>
      <line x1="112.482" y1="1579.030" x2="112.482" y2="1529.030"/>
      <line x1="113.482" y1="1579.030" x2="113.482" y2="1529.030"/>
      <line x1="114.482" y1="1579.030" x2="114.482" y2="1529.030"/>
      <line x1="115.482" y1="1579.030" x2="115.482" y2="1529.030"/>
      <line x1="116.482" y1="1579.030" x2="116.482" y2="1529.030"/>
      <line x1="117.482" y1="1579.030" x2="117.482" y2="1529.030"/>
      <line x1="118.482" y1="1579.030" x2="118.482" y2="1529.030"/>
      <line x1="119.482" y1="1579.030" x2="119.482" y2="1529.030"/>
      <line x1="120.482" y1="1579.030" x2="120.482" y2="1529.030"/>
      <line x1="121.482" y1="1579.030" x2="121.482" y2="1529.030"/>
      <line x1="122.482" y1="1579.030" x2="122.482" y2="1529.030"/>
      <line x1="123.482" y1="1579.030" x2="123.482" y2="1529.030"/>
      <line x1="124.482" y1="1579.030" x2="124.482" y2="1529.030"/>
      <line x1="125.482" y1="1579.030" x2="125.482" y2="1529.030"/>
      <line x1="126.482" y1="1579.030" x2="126.482" y2="1529.030"/>
      <line x1="127.482" y1="1579.030" x2="127.482" y2="1529.030"/>
      <line x1="128.482" y1="1579.030" x2="128.482" y2="1529.030"/>
      <line x1="129.482" y1="1579.030" x2="129.482" y2="1529.030"/>
      <line x1="130.482" y1="1579.030" x2="130.482" y2="1529.030"/>
      <line x1="131.482" y1="1579.030" x2="131.482" y2="1529.030"/>
      <line x1="132.482" y1="1579.030" x2="132.482" y2="1529.030"/>
      <line x1="133.482" y1="1579.030" x2="133.482" y2="1529.030"/>
      <line x1="134.482" y1="1579.030" x2="134.482" y2="1529.030"/>
      <line x1="135.482" y1="1579.030" x2="135.482" y2="1529.030"/>
      <line x1="136.482" y1="1579.030" x2="136.482" y2="1529.030"/>
      <line x1="137.482" y1="1579.030" x2="137.482" y2="1529.030"/>
      <line x1="138.482" y1="1579.030" x2="138.482" y2="1529.030"/>
      <line x1="139.482" y1="1579.030" x2="139.482" y2="1529.030"/>
      <line x1="140.482" y1="1579.030" x2="140.482" y2="1529.030"/>
      <line x1="141.482" y1="1579.030" x2="141.482" y2="1529.030"/>
      <line x1="142.482" y1="1579.030" x2="142.482" y2="1529.030"/>
      <line x1="143.482" y1="1579.030" x2="143.482" y2="1529.030"/>
      <line x1="144.482" y1="1579.030" x2="144.482" y2="1529.030"/>
      <line x1="145.482" y1="1579.030" x2="145.482" y2="1529.030"/>
      <line x1="146.482" y1="1579.030" x2="146.482" y2="1529.030"/>
      <line x1="147.482" y1="1579.030" x2="147.482" y2="1529.030"/>
      <line x1="42.482" y1="1528.930" x2="42.482" y2="1525.229"/>
      <line x1="19.482" y1="1528.930" x2="19.482" y2="1525.229"/>
      <line x1="20.482" y1="1528.930" x2="20.482" y2="1525.229"/>
      <line x1="22.482" y1="1528.930" x2="22.482" y2="1525.229"/>
      <line x1="25.482" y1="1528.930" x2="25.482" y2="1525.229"/>
      <line x1="27.482" y1="1528.930" x2="27.482" y2="1525.229"/>
      <line x1="28.482" y1="1528.930" x2="28.482" y2="1525.229"/>
      <line x1="30.482" y1="1528.930" x2="30.482" y2="1525.229"/>
      <line x1="33.482" y1="1528.930" x2="33.482" y2="1525.229"/>
      <line x1="40.482" y1="1528.930" x2="40.482" y2="1525.229"/>
      <line x1="39.482" y1="1528.930" x2="39.482" y2="1525.229"/>
      <line x1="36.482" y1="1528.930" x2="36.482" y2="1525.229"/>
      <line x1="31.482" y1="1528.930" x2="31.482" y2="1525.229"/>
      <line x1="37.482" y1="1528.930" x2="37.482" y2="1525.229"/>
      <line x1="34.482" y1="1528.930" x2="34.482" y2="1525.229"/>
      <line x1="24.482" y1="1528.930" x2="24.482" y2="1525.229"/>
      <line x1="23.482" y1="1528.930" x2="23.482" y2="1525.229"/>
      <line x1="26.482" y1="1528.930" x2="26.482" y2="1525.229"/>
      <line x1="29.482" y1="1528.930" x2="29.482" y2="1525.229"/>
      <line x1="32.482" y1="1528.930" x2="32.482" y2="1525.229"/>
      <line x1="35.482" y1="1528.930" x2="35.482" y2="1525.229"/>
      <line x1="38.482" y1="1528.930" x2="38.482" y2="1525.229"/>
      <line x1="41.482" y1="1528.930" x2="41.482" y2="1525.229"/>
      <line x1="21.482" y1="1528.930" x2="21.482" y2="1525.229"/>
      <line x1="53.482" y1="1528.930" x2="53.482" y2="1525.229"/>
      <line x1="52.482" y1="1528.930" x2="52.482" y2="1525.229"/>
      <line x1="51.482" y1="1528.930" x2="51.482" y2="1525.229"/>
      <line x1="50.482" y1="1528.930" x2="50.482" y2="1525.229"/>
      <line x1="49.482" y1="1528.930" x2="49.482" y2="1525.229"/>
      <line x1="48.482" y1="1528.930" x2="48.482" y2="1525.229"/>
      <line x1="47.482" y1="1528.930" x2="47.482" y2="1525.229"/>
      <line x1="46.482" y1="1528.930" x2="46.482" y2="1525.229"/>
      <line x1="45.482" y1="1528.930" x2="45.482" y2="1525.229"/>
      <line x1="44.482" y1="1528.930" x2="44.482" y2="1525.229"/>
      <line x1="43.482" y1="1528.930" x2="43.482" y2="1525.229"/>
      <line x1="54.482" y1="1528.930" x2="54.482" y2="1525.229"/>
      <line x1="66.482" y1="1528.930" x2="66.482" y2="1525.229"/>
      <line x1="68.482" y1="1528.930" x2="68.482" y2="1525.229"/>
      <line x1="67.482" y1="1528.930" x2="67.482" y2="1525.229"/>
      <line x1="65.482" y1="1528.930" x2="65.482" y2="1525.229"/>
      <line x1="64.482" y1="1528.930" x2="64.482" y2="1525.229"/>
      <line x1="63.482" y1="1528.930" x2="63.482" y2="1525.229"/>
      <line x1="62.482" y1="1528.930" x2="62.482" y2="1525.229"/>
      <line x1="61.482" y1="1528.930" x2="61.482" y2="1525.229"/>
      <line x1="60.482" y1="1528.930" x2="60.482" y2="1525.229"/>
      <line x1="59.482" y1="1528.930" x2="59.482" y2="1525.229"/>
      <line x1="58.482" y1="1528.930" x2="58.482" y2="1525.229"/>
      <line x1="57.482" y1="1528.930" x2="57.482" y2="1525.229"/>
      <line x1="56.482" y1="1528.930" x2="56.482" y2="1525.229"/>
      <line x1="55.482" y1="1528.930" x2="55.482" y2="1525.229"/>
      <line x1="118.482" y1="1528.930" x2="118.482" y2="1525.229"/>
      <line x1="90.482" y1="1528.930" x2="90.482" y2="1525.229"/>
      <line x1="101.482" y1="1528.930" x2="101.482" y2="1525.229"/>
      <line x1="100.482" y1="1528.930" x2="100.482" y2="1525.229"/>
      <line x1="99.482" y1="1528.930" x2="99.482" y2="1525.229"/>
      <line x1="98.482" y1="1528.930" x2="98.482" y2="1525.229"/>
      <line x1="97.482" y1="1528.930" x2="97.482" y2="1525.229"/>
      <line x1="96.482" y1="1528.930" x2="96.482" y2="1525.229"/>
      <line x1="95.482" y1="1528.930" x2="95.482" y2="1525.229"/>
      <line x1="94.482" y1="1528.930" x2="94.482" y2="1525.229"/>
      <line x1="93.482" y1="1528.930" x2="93.482" y2="1525.229"/>
      <line x1="92.482" y1="1528.930" x2="92.482" y2="1525.229"/>
      <line x1="91.482" y1="1528.930" x2="91.482" y2="1525.229"/>
      <line x1="102.482" y1="1528.930" x2="102.482" y2="1525.229"/>
      <line x1="89.482" y1="1528.930" x2="89.482" y2="1525.229"/>
      <line x1="88.482" y1="1528.930" x2="88.482" y2="1525.229"/>
      <line x1="87.482" y1="1528.930" x2="87.482" y2="1525.229"/>
      <line x1="86.482" y1="1528.930" x2="86.482" y2="1525.229"/>
      <line x1="85.482" y1="1528.930" x2="85.482" y2="1525.229"/>
      <line x1="84.482" y1="1528.930" x2="84.482" y2="1525.229"/>
      <line x1="83.482" y1="1528.930" x2="83.482" y2="1525.229"/>
      <line x1="82.482" y1="1528.930" x2="82.482" y2="1525.229"/>
      <line x1="81.482" y1="1528.930" x2="81.482" y2="1525.229"/>
      <line x1="80.482" y1="1528.930" x2="80.482" y2="1525.229"/>
      <line x1="79.482" y1="1528.930" x2="79.482" y2="1525.229"/>
      <line x1="114.482" y1="1528.930" x2="114.482" y2="1525.229"/>
      <line x1="117.482" y1="1528.930" x2="117.482" y2="1525.229"/>
      <line x1="116.482" y1="1528.930" x2="116.482" y2="1525.229"/>
      <line x1="115.482" y1="1528.930" x2="115.482" y2="1525.229"/>
      <line x1="113.482" y1="1528.930" x2="113.482" y2="1525.229"/>
      <line x1="112.482" y1="1528.930" x2="112.482" y2="1525.229"/>
      <line x1="111.482" y1="1528.930" x2="111.482" y2="1525.229"/>
      <line x1="110.482" y1="1528.930" x2="110.482" y2="1525.229"/>
      <line x1="109.482" y1="1528.930" x2="109.482" y2="1525.229"/>
      <line x1="108.482" y1="1528.930" x2="108.482" y2="1525.229"/>
      <line x1="107.482" y1="1528.930" x2="107.482" y2="1525.229"/>
      <line x1="106.482" y1="1528.930" x2="106.482" y2="1525.229"/>
      <line x1="105.482" y1="1528.930" x2="105.482" y2="1525.229"/>
      <line x1="104.482" y1="1528.930" x2="104.482" y2="1525.229"/>
      <line x1="103.482" y1="1528.930" x2="103.482" y2="1525.229"/>
      <line x1="77.482" y1="1528.930" x2="77.482" y2="1525.229"/>
      <line x1="76.482" y1="1528.930" x2="76.482" y2="1525.229"/>
      <line x1="75.482" y1="1528.930" x2="75.482" y2="1525.229"/>
      <line x1="74.482" y1="1528.930" x2="74.482" y2="1525.229"/>
      <line x1="73.482" y1="1528.930" x2="73.482" y2="1525.229"/>
      <line x1="72.482" y1="1528.930" x2="72.482" y2="1525.229"/>
      <line x1="71.482" y1="1528.930" x2="71.482" y2="1525.229"/>
      <line x1="70.482" y1="1528.930" x2="70.482" y2="1525.229"/>
      <line x1="69.482" y1="1528.930" x2="69.482" y2="1525.229"/>
      <line x1="78.482" y1="1528.930" x2="78.482" y2="1525.229"/>
      <line x1="119.482" y1="1528.930" x2="119.482" y2="1525.229"/>
      <line x1="147.482" y1="1528.930" x2="147.482" y2="1525.229"/>
      <line x1="121.482" y1="1528.930" x2="121.482" y2="1525.229"/>
      <line x1="124.482" y1="1528.930" x2="124.482" y2="1525.229"/>
      <line x1="126.482" y1="1528.930" x2="126.482" y2="1525.229"/>
      <line x1="127.482" y1="1528.930" x2="127.482" y2="1525.229"/>
      <line x1="129.482" y1="1528.930" x2="129.482" y2="1525.229"/>
      <line x1="130.482" y1="1528.930" x2="130.482" y2="1525.229"/>
      <line x1="132.482" y1="1528.930" x2="132.482" y2="1525.229"/>
      <line x1="133.482" y1="1528.930" x2="133.482" y2="1525.229"/>
      <line x1="135.482" y1="1528.930" x2="135.482" y2="1525.229"/>
      <line x1="136.482" y1="1528.930" x2="136.482" y2="1525.229"/>
      <line x1="138.482" y1="1528.930" x2="138.482" y2="1525.229"/>
      <line x1="139.482" y1="1528.930" x2="139.482" y2="1525.229"/>
      <line x1="141.482" y1="1528.930" x2="141.482" y2="1525.229"/>
      <line x1="144.482" y1="1528.930" x2="144.482" y2="1525.229"/>
      <line x1="146.482" y1="1528.930" x2="146.482" y2="1525.229"/>
      <line x1="120.482" y1="1528.930" x2="120.482" y2="1525.229"/>
      <line x1="123.482" y1="1528.930" x2="123.482" y2="1525.229"/>
      <line x1="122.482" y1="1528.930" x2="122.482" y2="1525.229"/>
      <line x1="125.482" y1="1528.930" x2="125.482" y2="1525.229"/>
      <line x1="128.482" y1="1528.930" x2="128.482" y2="1525.229"/>
      <line x1="131.482" y1="1528.930" x2="131.482" y2="1525.229"/>
      <line x1="134.482" y1="1528.930" x2="134.482" y2="1525.229"/>
      <line x1="137.482" y1="1528.930" x2="137.482" y2="1525.229"/>
      <line x1="140.482" y1="1528.930" x2="140.482" y2="1525.229"/>
      <line x1="143.482" y1="1528.930" x2="143.482" y2="1525.229"/>
      <line x1="142.482" y1="1528.930" x2="142.482" y2="1525.229"/>
      <line x1="145.482" y1="1528.930" x2="145.482" y2="1525.229"/>
    </g>
    <g stroke="#1976D2" stroke-width="0.4">
      <polyline points="450.303,1682.729 584.633,1682.729 584.633,1521.729 450.303,1521.729" fill="none"/>
      <polyline points="450.303,1521.729 448.446,1521.729 448.446,1682.729 450.303,1682.729" fill="none"/>
      <polyline points="450.303,1681.730 583.633,1681.730 583.633,1522.729 450.303,1522.729" fill="none"/>
      <polyline points="450.303,1522.729 449.446,1522.729 449.446,1681.730 450.303,1681.730" fill="none"/>
      <polyline points="582.633,1523.729 450.446,1523.729 450.446,1680.730 582.633,1680.730 582.633,1523.729" fill="none"/>
      <polyline points="581.633,1524.729 451.446,1524.729 451.446,1679.729 581.633,1679.729 581.633,1524.729" fill="none"/>
      <polyline points="149.697,1521.729 15.367,1521.729 15.367,1682.729 149.697,1682.729" fill="none"/>
      <polyline points="149.697,1682.729 151.554,1682.729 151.554,1521.729 149.697,1521.729" fill="none"/>
      <polyline points="149.697,1522.729 16.367,1522.729 16.367,1681.730 149.697,1681.730" fill="none"/>
      <polyline points="149.697,1681.730 150.554,1681.730 150.554,1522.729 149.697,1522.729" fill="none"/>
      <polyline points="149.554,1523.729 17.367,1523.729 17.367,1680.730 149.554,1680.730 149.554,1523.729" fill="none"/>
      <polyline points="148.554,1524.729 18.367,1524.729 18.367,1679.729 148.554,1679.729 148.554,1524.729" fill="none"/>
    </g>
    <g stroke="#C62828" stroke-width="0.4" fill="none">
      <polygon points="293.806,1532.030 294.629,1531.101 294.926,1529.896 294.629,1528.691 293.806,1527.763 292.646,1527.322 291.414,1527.472 290.393,1528.177 289.816,1529.276 289.816,1530.517 290.393,1531.615 291.414,1532.320 292.646,1532.470"/>
      <polygon points="313.573,1532.043 314.481,1531.136 314.813,1529.896 314.481,1528.656 313.573,1527.749 312.333,1527.417 311.094,1527.749 310.186,1528.656 309.854,1529.896 310.186,1531.136 311.094,1532.043 312.333,1532.376"/>
      <polygon points="273.456,1531.841 274.278,1531.019 274.579,1529.896 274.278,1528.774 273.456,1527.952 272.333,1527.651 271.211,1527.952 270.389,1528.774 270.088,1529.896 270.389,1531.019 271.211,1531.841 272.333,1532.141"/>
      <polygon points="333.395,1531.736 334.173,1530.958 334.457,1529.896 334.173,1528.834 333.395,1528.057 332.333,1527.772 331.271,1528.057 330.494,1528.834 330.209,1529.896 330.494,1530.958 331.271,1531.736 332.333,1532.020"/>
      <polygon points="173.333,1531.628 174.065,1530.896 174.333,1529.896 174.065,1528.896 173.333,1528.164 172.333,1527.896 171.333,1528.164 171.054,1528.444 171.054,1531.349 171.333,1531.628 172.333,1531.896"/>
      <polygon points="413.333,1531.628 414.065,1530.896 414.333,1529.896 414.065,1528.896 413.333,1528.164 412.333,1527.896 411.333,1528.164 410.601,1528.896 410.333,1529.896 410.601,1530.896 411.333,1531.628 412.333,1531.896"/>
      <polygon points="373.333,1531.628 374.065,1530.896 374.333,1529.896 374.065,1528.896 373.333,1528.164 372.333,1527.896 371.333,1528.164 370.601,1528.896 370.333,1529.896 370.601,1530.896 371.333,1531.628 372.333,1531.896"/>
      <polygon points="193.333,1531.628 194.065,1530.896 194.333,1529.896 194.065,1528.896 193.333,1528.164 192.333,1527.896 191.333,1528.164 190.601,1528.896 190.333,1529.896 190.601,1530.896 191.333,1531.628 192.333,1531.896"/>
      <polygon points="233.333,1531.628 234.065,1530.896 234.333,1529.896 234.065,1528.896 233.333,1528.164 232.333,1527.896 231.333,1528.164 230.601,1528.896 230.333,1529.896 230.601,1530.896 231.333,1531.628 232.333,1531.896"/>
      <polygon points="253.333,1531.628 254.065,1530.896 254.333,1529.896 254.065,1528.896 253.333,1528.164 252.333,1527.896 251.333,1528.164 250.601,1528.896 250.333,1529.896 250.601,1530.896 251.333,1531.628 252.333,1531.896"/>
      <polygon points="353.333,1531.628 354.065,1530.896 354.333,1529.896 354.065,1528.896 353.333,1528.164 352.333,1527.896 351.333,1528.164 350.601,1528.896 350.333,1529.896 350.601,1530.896 351.333,1531.628 352.333,1531.896"/>
      <polygon points="393.333,1531.628 394.065,1530.896 394.333,1529.896 394.065,1528.896 393.333,1528.164 392.333,1527.896 391.333,1528.164 390.601,1528.896 390.333,1529.896 390.601,1530.896 391.333,1531.628 392.333,1531.896"/>
      <polygon points="213.333,1531.628 214.065,1530.896 214.333,1529.896 214.065,1528.896 213.333,1528.164 212.333,1527.896 211.333,1528.164 210.601,1528.896 210.333,1529.896 210.601,1530.896 211.333,1531.628 212.333,1531.896"/>
      <polygon points="293.806,1552.030 294.629,1551.101 294.926,1549.896 294.629,1548.691 293.806,1547.763 292.646,1547.322 291.414,1547.472 290.393,1548.177 289.816,1549.276 289.816,1550.517 290.393,1551.615 291.414,1552.320 292.646,1552.470"/>
      <polygon points="313.573,1552.043 314.481,1551.136 314.813,1549.896 314.481,1548.656 313.573,1547.749 312.333,1547.417 311.094,1547.749 310.186,1548.656 309.854,1549.896 310.186,1551.136 311.094,1552.043 312.333,1552.376"/>
      <polygon points="273.456,1551.841 274.278,1551.019 274.579,1549.896 274.278,1548.774 273.456,1547.952 272.333,1547.651 271.211,1547.952 270.389,1548.774 270.088,1549.896 270.389,1551.019 271.211,1551.841 272.333,1552.141"/>
      <polygon points="333.395,1551.736 334.173,1550.958 334.457,1549.896 334.173,1548.834 333.395,1548.057 332.333,1547.772 331.271,1548.057 330.494,1548.834 330.209,1549.896 330.494,1550.958 331.271,1551.736 332.333,1552.020"/>
      <polygon points="353.333,1551.628 354.065,1550.896 354.333,1549.896 354.065,1548.896 353.333,1548.164 352.333,1547.896 351.333,1548.164 350.601,1548.896 350.333,1549.896 350.601,1550.896 351.333,1551.628 352.333,1551.896"/>
      <polygon points="413.333,1551.628 414.065,1550.896 414.333,1549.896 414.065,1548.896 413.333,1548.164 412.333,1547.896 411.333,1548.164 410.601,1548.896 410.333,1549.896 410.601,1550.896 411.333,1551.628 412.333,1551.896"/>
      <polygon points="373.333,1551.628 374.065,1550.896 374.333,1549.896 374.065,1548.896 373.333,1548.164 372.333,1547.896 371.333,1548.164 370.601,1548.896 370.333,1549.896 370.601,1550.896 371.333,1551.628 372.333,1551.896"/>
      <polygon points="173.333,1551.628 174.065,1550.896 174.333,1549.896 174.065,1548.896 173.333,1548.164 172.333,1547.896 171.333,1548.164 171.054,1548.444 171.054,1551.349 171.333,1551.628 172.333,1551.896"/>
      <polygon points="193.333,1551.628 194.065,1550.896 194.333,1549.896 194.065,1548.896 193.333,1548.164 192.333,1547.896 191.333,1548.164 190.601,1548.896 190.333,1549.896 190.601,1550.896 191.333,1551.628 192.333,1551.896"/>
      <polygon points="213.333,1551.628 214.065,1550.896 214.333,1549.896 214.065,1548.896 213.333,1548.164 212.333,1547.896 211.333,1548.164 210.601,1548.896 210.333,1549.896 210.601,1550.896 211.333,1551.628 212.333,1551.896"/>
      <polygon points="233.333,1551.628 234.065,1550.896 234.333,1549.896 234.065,1548.896 233.333,1548.164 232.333,1547.896 231.333,1548.164 230.601,1548.896 230.333,1549.896 230.601,1550.896 231.333,1551.628 232.333,1551.896"/>
      <polygon points="393.333,1551.628 394.065,1550.896 394.333,1549.896 394.065,1548.896 393.333,1548.164 392.333,1547.896 391.333,1548.164 390.601,1548.896 390.333,1549.896 390.601,1550.896 391.333,1551.628 392.333,1551.896"/>
      <polygon points="253.333,1551.628 254.065,1550.896 254.333,1549.896 254.065,1548.896 253.333,1548.164 252.333,1547.896 251.333,1548.164 250.601,1548.896 250.333,1549.896 250.601,1550.896 251.333,1551.628 252.333,1551.896"/>
      <polygon points="293.806,1572.030 294.629,1571.101 294.926,1569.896 294.629,1568.691 293.806,1567.763 292.646,1567.322 291.414,1567.472 290.393,1568.177 289.816,1569.276 289.816,1570.517 290.393,1571.615 291.414,1572.320 292.646,1572.470"/>
      <polygon points="313.573,1572.043 314.481,1571.136 314.813,1569.896 314.481,1568.656 313.573,1567.749 312.333,1567.417 311.094,1567.749 310.186,1568.656 309.854,1569.896 310.186,1571.136 311.094,1572.043 312.333,1572.376"/>
      <polygon points="273.456,1571.841 274.278,1571.019 274.579,1569.896 274.278,1568.774 273.456,1567.952 272.333,1567.651 271.211,1567.952 270.389,1568.774 270.088,1569.896 270.389,1571.019 271.211,1571.841 272.333,1572.141"/>
      <polygon points="333.395,1571.736 334.173,1570.958 334.457,1569.896 334.173,1568.834 333.395,1568.057 332.333,1567.772 331.271,1568.057 330.494,1568.834 330.209,1569.896 330.494,1570.958 331.271,1571.736 332.333,1572.020"/>
      <polygon points="253.333,1571.628 254.065,1570.896 254.333,1569.896 254.065,1568.896 253.333,1568.164 252.333,1567.896 251.333,1568.164 250.601,1568.896 250.333,1569.896 250.601,1570.896 251.333,1571.628 252.333,1571.896"/>
      <polygon points="213.333,1571.628 214.065,1570.896 214.333,1569.896 214.065,1568.896 213.333,1568.164 212.333,1567.896 211.333,1568.164 210.601,1568.896 210.333,1569.896 210.601,1570.896 211.333,1571.628 212.333,1571.896"/>
      <polygon points="173.333,1571.628 174.065,1570.896 174.333,1569.896 174.065,1568.896 173.333,1568.164 172.333,1567.896 171.333,1568.164 171.054,1568.444 171.054,1571.349 171.333,1571.628 172.333,1571.896"/>
      <polygon points="193.333,1571.628 194.065,1570.896 194.333,1569.896 194.065,1568.896 193.333,1568.164 192.333,1567.896 191.333,1568.164 190.601,1568.896 190.333,1569.896 190.601,1570.896 191.333,1571.628 192.333,1571.896"/>
      <polygon points="353.333,1571.628 354.065,1570.896 354.333,1569.896 354.065,1568.896 353.333,1568.164 352.333,1567.896 351.333,1568.164 350.601,1568.896 350.333,1569.896 350.601,1570.896 351.333,1571.628 352.333,1571.896"/>
      <polygon points="233.333,1571.628 234.065,1570.896 234.333,1569.896 234.065,1568.896 233.333,1568.164 232.333,1567.896 231.333,1568.164 230.601,1568.896 230.333,1569.896 230.601,1570.896 231.333,1571.628 232.333,1571.896"/>
      <polygon points="373.333,1571.628 374.065,1570.896 374.333,1569.896 374.065,1568.896 373.333,1568.164 372.333,1567.896 371.333,1568.164 370.601,1568.896 370.333,1569.896 370.601,1570.896 371.333,1571.628 372.333,1571.896"/>
      <polygon points="393.333,1571.628 394.065,1570.896 394.333,1569.896 394.065,1568.896 393.333,1568.164 392.333,1567.896 391.333,1568.164 390.601,1568.896 390.333,1569.896 390.601,1570.896 391.333,1571.628 392.333,1571.896"/>
      <polygon points="413.333,1571.628 414.065,1570.896 414.333,1569.896 414.065,1568.896 413.333,1568.164 412.333,1567.896 411.333,1568.164 410.601,1568.896 410.333,1569.896 410.601,1570.896 411.333,1571.628 412.333,1571.896"/>
      <polygon points="293.806,1592.030 294.629,1591.101 294.926,1589.896 294.629,1588.691 293.806,1587.763 292.646,1587.322 291.414,1587.472 290.393,1588.177 289.816,1589.276 289.816,1590.517 290.393,1591.615 291.414,1592.320 292.646,1592.470"/>
      <polygon points="313.573,1592.043 314.481,1591.136 314.813,1589.896 314.481,1588.656 313.573,1587.749 312.333,1587.417 311.094,1587.749 310.186,1588.656 309.854,1589.896 310.186,1591.136 311.094,1592.043 312.333,1592.376"/>
      <polygon points="273.456,1591.841 274.278,1591.019 274.579,1589.896 274.278,1588.774 273.456,1587.952 272.333,1587.651 271.211,1587.952 270.389,1588.774 270.088,1589.896 270.389,1591.019 271.211,1591.841 272.333,1592.141"/>
      <polygon points="333.395,1591.736 334.173,1590.958 334.457,1589.896 334.173,1588.834 333.395,1588.057 332.333,1587.772 331.271,1588.057 330.494,1588.834 330.209,1589.896 330.494,1590.958 331.271,1591.736 332.333,1592.020"/>
      <polygon points="213.333,1591.628 214.065,1590.896 214.333,1589.896 214.065,1588.896 213.333,1588.164 212.333,1587.896 211.333,1588.164 210.601,1588.896 210.333,1589.896 210.601,1590.896 211.333,1591.628 212.333,1591.896"/>
      <polygon points="173.333,1591.628 174.065,1590.896 174.333,1589.896 174.065,1588.896 173.333,1588.164 172.333,1587.896 171.333,1588.164 171.054,1588.444 171.054,1591.349 171.333,1591.628 172.333,1591.896"/>
      <polygon points="393.333,1591.628 394.065,1590.896 394.333,1589.896 394.065,1588.896 393.333,1588.164 392.333,1587.896 391.333,1588.164 390.601,1588.896 390.333,1589.896 390.601,1590.896 391.333,1591.628 392.333,1591.896"/>
      <polygon points="193.333,1591.628 194.065,1590.896 194.333,1589.896 194.065,1588.896 193.333,1588.164 192.333,1587.896 191.333,1588.164 190.601,1588.896 190.333,1589.896 190.601,1590.896 191.333,1591.628 192.333,1591.896"/>
      <polygon points="233.333,1591.628 234.065,1590.896 234.333,1589.896 234.065,1588.896 233.333,1588.164 232.333,1587.896 231.333,1588.164 230.601,1588.896 230.333,1589.896 230.601,1590.896 231.333,1591.628 232.333,1591.896"/>
      <polygon points="253.333,1591.628 254.065,1590.896 254.333,1589.896 254.065,1588.896 253.333,1588.164 252.333,1587.896 251.333,1588.164 250.601,1588.896 250.333,1589.896 250.601,1590.896 251.333,1591.628 252.333,1591.896"/>
      <polygon points="353.333,1591.628 354.065,1590.896 354.333,1589.896 354.065,1588.896 353.333,1588.164 352.333,1587.896 351.333,1588.164 350.601,1588.896 350.333,1589.896 350.601,1590.896 351.333,1591.628 352.333,1591.896"/>
      <polygon points="413.333,1591.628 414.065,1590.896 414.333,1589.896 414.065,1588.896 413.333,1588.164 412.333,1587.896 411.333,1588.164 410.601,1588.896 410.333,1589.896 410.601,1590.896 411.333,1591.628 412.333,1591.896"/>
      <polygon points="373.333,1591.628 374.065,1590.896 374.333,1589.896 374.065,1588.896 373.333,1588.164 372.333,1587.896 371.333,1588.164 370.601,1588.896 370.333,1589.896 370.601,1590.896 371.333,1591.628 372.333,1591.896"/>
      <polygon points="293.806,1612.030 294.629,1611.101 294.926,1609.896 294.629,1608.691 293.806,1607.763 292.646,1607.322 291.414,1607.472 290.393,1608.177 289.816,1609.276 289.816,1610.517 290.393,1611.615 291.414,1612.320 292.646,1612.470"/>
      <polygon points="313.573,1612.043 314.481,1611.136 314.813,1609.896 314.481,1608.656 313.573,1607.749 312.333,1607.417 311.094,1607.749 310.186,1608.656 309.854,1609.896 310.186,1611.136 311.094,1612.043 312.333,1612.376"/>
      <polygon points="273.456,1611.841 274.278,1611.019 274.579,1609.896 274.278,1608.774 273.456,1607.952 272.333,1607.651 271.211,1607.952 270.389,1608.774 270.088,1609.896 270.389,1611.019 271.211,1611.841 272.333,1612.141"/>
      <polygon points="333.395,1611.736 334.173,1610.958 334.457,1609.896 334.173,1608.834 333.395,1608.057 332.333,1607.772 331.271,1608.057 330.494,1608.834 330.209,1609.896 330.494,1610.958 331.271,1611.736 332.333,1612.020"/>
      <polygon points="233.333,1611.628 234.065,1610.896 234.333,1609.896 234.065,1608.896 233.333,1608.164 232.333,1607.896 231.333,1608.164 230.601,1608.896 230.333,1609.896 230.601,1610.896 231.333,1611.628 232.333,1611.896"/>
      <polygon points="173.333,1611.628 174.065,1610.896 174.333,1609.896 174.065,1608.896 173.333,1608.164 172.333,1607.896 171.333,1608.164 171.054,1608.444 171.054,1611.349 171.333,1611.628 172.333,1611.896"/>
      <polygon points="193.333,1611.628 194.065,1610.896 194.333,1609.896 194.065,1608.896 193.333,1608.164 192.333,1607.896 191.333,1608.164 190.601,1608.896 190.333,1609.896 190.601,1610.896 191.333,1611.628 192.333,1611.896"/>
      <polygon points="413.333,1611.628 414.065,1610.896 414.333,1609.896 414.065,1608.896 413.333,1608.164 412.333,1607.896 411.333,1608.164 410.601,1608.896 410.333,1609.896 410.601,1610.896 411.333,1611.628 412.333,1611.896"/>
      <polygon points="253.333,1611.628 254.065,1610.896 254.333,1609.896 254.065,1608.896 253.333,1608.164 252.333,1607.896 251.333,1608.164 250.601,1608.896 250.333,1609.896 250.601,1610.896 251.333,1611.628 252.333,1611.896"/>
      <polygon points="373.333,1611.628 374.065,1610.896 374.333,1609.896 374.065,1608.896 373.333,1608.164 372.333,1607.896 371.333,1608.164 370.601,1608.896 370.333,1609.896 370.601,1610.896 371.333,1611.628 372.333,1611.896"/>
      <polygon points="213.333,1611.628 214.065,1610.896 214.333,1609.896 214.065,1608.896 213.333,1608.164 212.333,1607.896 211.333,1608.164 210.601,1608.896 210.333,1609.896 210.601,1610.896 211.333,1611.628 212.333,1611.896"/>
      <polygon points="393.333,1611.628 394.065,1610.896 394.333,1609.896 394.065,1608.896 393.333,1608.164 392.333,1607.896 391.333,1608.164 390.601,1608.896 390.333,1609.896 390.601,1610.896 391.333,1611.628 392.333,1611.896"/>
      <polygon points="353.333,1611.628 354.065,1610.896 354.333,1609.896 354.065,1608.896 353.333,1608.164 352.333,1607.896 351.333,1608.164 350.601,1608.896 350.333,1609.896 350.601,1610.896 351.333,1611.628 352.333,1611.896"/>
      <polygon points="293.806,1632.030 294.629,1631.101 294.926,1629.896 294.629,1628.691 293.806,1627.763 292.646,1627.322 291.414,1627.472 290.393,1628.177 289.816,1629.276 289.816,1630.517 290.393,1631.615 291.414,1632.320 292.646,1632.470"/>
      <polygon points="313.573,1632.043 314.481,1631.136 314.813,1629.896 314.481,1628.656 313.573,1627.749 312.333,1627.417 311.094,1627.749 310.186,1628.656 309.854,1629.896 310.186,1631.136 311.094,1632.043 312.333,1632.376"/>
      <polygon points="273.456,1631.841 274.278,1631.019 274.579,1629.896 274.278,1628.774 273.456,1627.952 272.333,1627.651 271.211,1627.952 270.389,1628.774 270.088,1629.896 270.389,1631.019 271.211,1631.841 272.333,1632.141"/>
      <polygon points="333.395,1631.736 334.173,1630.958 334.457,1629.896 334.173,1628.834 333.395,1628.057 332.333,1627.772 331.271,1628.057 330.494,1628.834 330.209,1629.896 330.494,1630.958 331.271,1631.736 332.333,1632.020"/>
      <polygon points="233.333,1631.628 234.065,1630.896 234.333,1629.896 234.065,1628.896 233.333,1628.164 232.333,1627.896 231.333,1628.164 230.601,1628.896 230.333,1629.896 230.601,1630.896 231.333,1631.628 232.333,1631.896"/>
      <polygon points="213.333,1631.628 214.065,1630.896 214.333,1629.896 214.065,1628.896 213.333,1628.164 212.333,1627.896 211.333,1628.164 210.601,1628.896 210.333,1629.896 210.601,1630.896 211.333,1631.628 212.333,1631.896"/>
      <polygon points="253.333,1631.628 254.065,1630.896 254.333,1629.896 254.065,1628.896 253.333,1628.164 252.333,1627.896 251.333,1628.164 250.601,1628.896 250.333,1629.896 250.601,1630.896 251.333,1631.628 252.333,1631.896"/>
      <polygon points="353.333,1631.628 354.065,1630.896 354.333,1629.896 354.065,1628.896 353.333,1628.164 352.333,1627.896 351.333,1628.164 350.601,1628.896 350.333,1629.896 350.601,1630.896 351.333,1631.628 352.333,1631.896"/>
      <polygon points="373.333,1631.628 374.065,1630.896 374.333,1629.896 374.065,1628.896 373.333,1628.164 372.333,1627.896 371.333,1628.164 370.601,1628.896 370.333,1629.896 370.601,1630.896 371.333,1631.628 372.333,1631.896"/>
      <polygon points="193.333,1631.628 194.065,1630.896 194.333,1629.896 194.065,1628.896 193.333,1628.164 192.333,1627.896 191.333,1628.164 190.601,1628.896 190.333,1629.896 190.601,1630.896 191.333,1631.628 192.333,1631.896"/>
      <polygon points="393.333,1631.628 394.065,1630.896 394.333,1629.896 394.065,1628.896 393.333,1628.164 392.333,1627.896 391.333,1628.164 390.601,1628.896 390.333,1629.896 390.601,1630.896 391.333,1631.628 392.333,1631.896"/>
      <polygon points="413.333,1631.628 414.065,1630.896 414.333,1629.896 414.065,1628.896 413.333,1628.164 412.333,1627.896 411.333,1628.164 410.601,1628.896 410.333,1629.896 410.601,1630.896 411.333,1631.628 412.333,1631.896"/>
      <polygon points="173.333,1631.628 174.065,1630.896 174.333,1629.896 174.065,1628.896 173.333,1628.164 172.333,1627.896 171.333,1628.164 171.054,1628.444 171.054,1631.349 171.333,1631.628 172.333,1631.896"/>
      <polygon points="293.806,1652.030 294.629,1651.101 294.926,1649.896 294.629,1648.691 293.806,1647.763 292.646,1647.322 291.414,1647.472 290.393,1648.177 289.816,1649.276 289.816,1650.517 290.393,1651.615 291.414,1652.320 292.646,1652.470"/>
      <polygon points="313.573,1652.043 314.481,1651.136 314.813,1649.896 314.481,1648.656 313.573,1647.749 312.333,1647.417 311.094,1647.749 310.186,1648.656 309.854,1649.896 310.186,1651.136 311.094,1652.043 312.333,1652.376"/>
      <polygon points="273.456,1651.841 274.278,1651.019 274.579,1649.896 274.278,1648.774 273.456,1647.952 272.333,1647.651 271.211,1647.952 270.389,1648.774 270.088,1649.896 270.389,1651.019 271.211,1651.841 272.333,1652.141"/>
      <polygon points="333.395,1651.736 334.173,1650.958 334.457,1649.896 334.173,1648.834 333.395,1648.057 332.333,1647.772 331.271,1648.057 330.494,1648.834 330.209,1649.896 330.494,1650.958 331.271,1651.736 332.333,1652.020"/>
      <polygon points="213.333,1651.628 214.065,1650.896 214.333,1649.896 214.065,1648.896 213.333,1648.164 212.333,1647.896 211.333,1648.164 210.601,1648.896 210.333,1649.896 210.601,1650.896 211.333,1651.628 212.333,1651.896"/>
      <polygon points="173.333,1651.628 174.065,1650.896 174.333,1649.896 174.065,1648.896 173.333,1648.164 172.333,1647.896 171.333,1648.164 171.054,1648.444 171.054,1651.349 171.333,1651.628 172.333,1651.896"/>
      <polygon points="193.333,1651.628 194.065,1650.896 194.333,1649.896 194.065,1648.896 193.333,1648.164 192.333,1647.896 191.333,1648.164 190.601,1648.896 190.333,1649.896 190.601,1650.896 191.333,1651.628 192.333,1651.896"/>
      <polygon points="233.333,1651.628 234.065,1650.896 234.333,1649.896 234.065,1648.896 233.333,1648.164 232.333,1647.896 231.333,1648.164 230.601,1648.896 230.333,1649.896 230.601,1650.896 231.333,1651.628 232.333,1651.896"/>
      <polygon points="253.333,1651.628 254.065,1650.896 254.333,1649.896 254.065,1648.896 253.333,1648.164 252.333,1647.896 251.333,1648.164 250.601,1648.896 250.333,1649.896 250.601,1650.896 251.333,1651.628 252.333,1651.896"/>
      <polygon points="373.333,1651.628 374.065,1650.896 374.333,1649.896 374.065,1648.896 373.333,1648.164 372.333,1647.896 371.333,1648.164 370.601,1648.896 370.333,1649.896 370.601,1650.896 371.333,1651.628 372.333,1651.896"/>
      <polygon points="393.333,1651.628 394.065,1650.896 394.333,1649.896 394.065,1648.896 393.333,1648.164 392.333,1647.896 391.333,1648.164 390.601,1648.896 390.333,1649.896 390.601,1650.896 391.333,1651.628 392.333,1651.896"/>
      <polygon points="413.333,1651.628 414.065,1650.896 414.333,1649.896 414.065,1648.896 413.333,1648.164 412.333,1647.896 411.333,1648.164 410.601,1648.896 410.333,1649.896 410.601,1650.896 411.333,1651.628 412.333,1651.896"/>
      <polygon points="353.333,1651.628 354.065,1650.896 354.333,1649.896 354.065,1648.896 353.333,1648.164 352.333,1647.896 351.333,1648.164 350.601,1648.896 350.333,1649.896 350.601,1650.896 351.333,1651.628 352.333,1651.896"/>
      <polygon points="293.806,1672.030 294.629,1671.101 294.926,1669.896 294.629,1668.691 293.806,1667.763 292.646,1667.322 291.414,1667.472 290.393,1668.177 289.816,1669.276 289.816,1670.517 290.393,1671.615 291.414,1672.320 292.646,1672.470"/>
      <polygon points="313.573,1672.043 314.481,1671.136 314.813,1669.896 314.481,1668.656 313.573,1667.749 312.333,1667.417 311.094,1667.749 310.186,1668.656 309.854,1669.896 310.186,1671.136 311.094,1672.043 312.333,1672.376"/>
      <polygon points="273.456,1671.841 274.278,1671.019 274.579,1669.896 274.278,1668.774 273.456,1667.952 272.333,1667.651 271.211,1667.952 270.389,1668.774 270.088,1669.896 270.389,1671.019 271.211,1671.841 272.333,1672.141"/>
      <polygon points="333.395,1671.736 334.173,1670.958 334.457,1669.896 334.173,1668.834 333.395,1668.057 332.333,1667.772 331.271,1668.057 330.494,1668.834 330.209,1669.896 330.494,1670.958 331.271,1671.736 332.333,1672.020"/>
      <polygon points="173.333,1671.628 174.065,1670.896 174.333,1669.896 174.065,1668.896 173.333,1668.164 172.333,1667.896 171.333,1668.164 171.054,1668.444 171.054,1671.349 171.333,1671.628 172.333,1671.896"/>
      <polygon points="193.333,1671.628 194.065,1670.896 194.333,1669.896 194.065,1668.896 193.333,1668.164 192.333,1667.896 191.333,1668.164 190.601,1668.896 190.333,1669.896 190.601,1670.896 191.333,1671.628 192.333,1671.896"/>
      <polygon points="213.333,1671.628 214.065,1670.896 214.333,1669.896 214.065,1668.896 213.333,1668.164 212.333,1667.896 211.333,1668.164 210.601,1668.896 210.333,1669.896 210.601,1670.896 211.333,1671.628 212.333,1671.896"/>
      <polygon points="233.333,1671.628 234.065,1670.896 234.333,1669.896 234.065,1668.896 233.333,1668.164 232.333,1667.896 231.333,1668.164 230.601,1668.896 230.333,1669.896 230.601,1670.896 231.333,1671.628 232.333,1671.896"/>
      <polygon points="253.333,1671.628 254.065,1670.896 254.333,1669.896 254.065,1668.896 253.333,1668.164 252.333,1667.896 251.333,1668.164 250.601,1668.896 250.333,1669.896 250.601,1670.896 251.333,1671.628 252.333,1671.896"/>
      <polygon points="353.333,1671.628 354.065,1670.896 354.333,1669.896 354.065,1668.896 353.333,1668.164 352.333,1667.896 351.333,1668.164 350.601,1668.896 350.333,1669.896 350.601,1670.896 351.333,1671.628 352.333,1671.896"/>
      <polygon points="373.333,1671.628 374.065,1670.896 374.333,1669.896 374.065,1668.896 373.333,1668.164 372.333,1667.896 371.333,1668.164 370.601,1668.896 370.333,1669.896 370.601,1670.896 371.333,1671.628 372.333,1671.896"/>
      <polygon points="393.333,1671.628 394.065,1670.896 394.333,1669.896 394.065,1668.896 393.333,1668.164 392.333,1667.896 391.333,1668.164 390.601,1668.896 390.333,1669.896 390.601,1670.896 391.333,1671.628 392.333,1671.896"/>
      <polygon points="413.333,1671.628 414.065,1670.896 414.333,1669.896 414.065,1668.896 413.333,1668.164 412.333,1667.896 411.333,1668.164 410.601,1668.896 410.333,1669.896 410.601,1670.896 411.333,1671.628 412.333,1671.896"/>
    </g>
    <g stroke="#EF6C00" stroke-width="0.4" fill="none">
    </g>
  </g>
  <g stroke="#000000" stroke-width="0.4">
    <line x1="500.000" y1="1000.000" x2="1500.000" y2="1000.000"/>
  </g>
  <g stroke="#000000" stroke-width="0.4">
    <line x1="1000.000" y1="500.000" x2="1000.000" y2="1500.000"/>
  </g>
  <circle cx="1000.000" cy="1000.000" r="1000.000" stroke="red" stroke-width="1" fill="none"/>
  </g>
</svg>
