<?xml version="1.0" encoding="UTF-8"?>
<svg xmlns="http://www.w3.org/2000/svg" version="1.1" width="2000" height="2000">
  <g fill="none" stroke-linecap="round" stroke-linejoin="round">
  <text x="10" y="20" font-size="24" fill="#555">Layer 230 Z=58.000 mm</text>
  <g transform="translate(700.000,-602.229)">
    <g stroke="#2E7D32" stroke-width="0.4">
      <line x1="441.478" y1="1679.230" x2="441.478" y2="1629.230"/>
      <line x1="442.478" y1="1679.230" x2="442.478" y2="1629.230"/>
      <line x1="443.478" y1="1679.230" x2="443.478" y2="1629.230"/>
      <line x1="444.478" y1="1679.230" x2="444.478" y2="1629.230"/>
      <line x1="445.478" y1="1679.230" x2="445.478" y2="1629.230"/>
      <line x1="446.478" y1="1679.230" x2="446.478" y2="1629.230"/>
      <line x1="447.478" y1="1679.230" x2="447.478" y2="1629.230"/>
      <line x1="448.478" y1="1679.230" x2="448.478" y2="1629.230"/>
      <line x1="449.478" y1="1679.230" x2="449.478" y2="1629.230"/>
      <line x1="450.478" y1="1679.230" x2="450.478" y2="1629.230"/>
      <line x1="451.478" y1="1679.230" x2="451.478" y2="1629.230"/>
      <line x1="452.478" y1="1679.230" x2="452.478" y2="1629.230"/>
      <line x1="453.478" y1="1679.230" x2="453.478" y2="1629.230"/>
      <line x1="454.478" y1="1679.230" x2="454.478" y2="1629.230"/>
      <line x1="455.478" y1="1679.230" x2="455.478" y2="1629.230"/>
      <line x1="456.478" y1="1679.230" x2="456.478" y2="1629.230"/>
      <line x1="457.478" y1="1679.230" x2="457.478" y2="1629.230"/>
      <line x1="458.478" y1="1679.230" x2="458.478" y2="1629.230"/>
      <line x1="459.478" y1="1679.230" x2="459.478" y2="1629.230"/>
      <line x1="460.478" y1="1679.230" x2="460.478" y2="1629.230"/>
      <line x1="461.478" y1="1679.230" x2="461.478" y2="1629.230"/>
      <line x1="462.478" y1="1679.230" x2="462.478" y2="1629.230"/>
      <line x1="463.478" y1="1679.230" x2="463.478" y2="1629.230"/>
      <line x1="464.478" y1="1679.230" x2="464.478" y2="1629.230"/>
      <line x1="465.478" y1="1679.230" x2="465.478" y2="1629.230"/>
      <line x1="466.478" y1="1679.230" x2="466.478" y2="1629.230"/>
      <line x1="467.478" y1="1679.230" x2="467.478" y2="1629.230"/>
      <line x1="468.478" y1="1679.230" x2="468.478" y2="1629.230"/>
      <line x1="469.478" y1="1679.230" x2="469.478" y2="1629.230"/>
      <line x1="470.478" y1="1679.230" x2="470.478" y2="1629.230"/>
      <line x1="471.478" y1="1679.230" x2="471.478" y2="1629.230"/>
      <line x1="472.478" y1="1679.230" x2="472.478" y2="1629.230"/>
      <line x1="473.478" y1="1679.230" x2="473.478" y2="1629.230"/>
      <line x1="474.478" y1="1679.230" x2="474.478" y2="1629.230"/>
      <line x1="475.478" y1="1679.230" x2="475.478" y2="1629.230"/>
      <line x1="476.478" y1="1679.230" x2="476.478" y2="1629.230"/>
      <line x1="477.478" y1="1679.230" x2="477.478" y2="1629.230"/>
      <line x1="478.478" y1="1679.230" x2="478.478" y2="1629.230"/>
      <line x1="479.478" y1="1679.230" x2="479.478" y2="1629.230"/>
      <line x1="480.478" y1="1679.230" x2="480.478" y2="1629.230"/>
      <line x1="481.478" y1="1679.230" x2="481.478" y2="1629.230"/>
      <line x1="482.478" y1="1679.230" x2="482.478" y2="1629.230"/>
      <line x1="483.478" y1="1679.230" x2="483.478" y2="1629.230"/>
      <line x1="484.478" y1="1679.230" x2="484.478" y2="1629.230"/>
      <line x1="485.478" y1="1679.230" x2="485.478" y2="1629.230"/>
      <line x1="486.478" y1="1679.230" x2="486.478" y2="1629.230"/>
      <line x1="487.478" y1="1679.230" x2="487.478" y2="1629.230"/>
      <line x1="488.478" y1="1679.230" x2="488.478" y2="1629.230"/>
      <line x1="489.478" y1="1679.230" x2="489.478" y2="1629.230"/>
      <line x1="490.478" y1="1679.230" x2="490.478" y2="1629.230"/>
      <line x1="491.478" y1="1679.230" x2="491.478" y2="1629.230"/>
      <line x1="492.478" y1="1679.230" x2="492.478" y2="1629.230"/>
      <line x1="493.478" y1="1679.230" x2="493.478" y2="1629.230"/>
      <line x1="494.478" y1="1679.230" x2="494.478" y2="1629.230"/>
      <line x1="495.478" y1="1679.230" x2="495.478" y2="1629.230"/>
      <line x1="496.478" y1="1679.230" x2="496.478" y2="1629.230"/>
      <line x1="497.478" y1="1679.230" x2="497.478" y2="1629.230"/>
      <line x1="498.478" y1="1679.230" x2="498.478" y2="1629.230"/>
      <line x1="499.478" y1="1679.230" x2="499.478" y2="1629.230"/>
      <line x1="500.478" y1="1679.230" x2="500.478" y2="1629.230"/>
      <line x1="501.478" y1="1679.230" x2="501.478" y2="1629.230"/>
      <line x1="502.478" y1="1679.230" x2="502.478" y2="1629.230"/>
      <line x1="503.478" y1="1679.230" x2="503.478" y2="1629.230"/>
      <line x1="504.478" y1="1679.230" x2="504.478" y2="1629.230"/>
      <line x1="505.478" y1="1679.230" x2="505.478" y2="1629.230"/>
      <line x1="506.478" y1="1679.230" x2="506.478" y2="1629.230"/>
      <line x1="507.478" y1="1679.230" x2="507.478" y2="1629.230"/>
      <line x1="508.478" y1="1679.230" x2="508.478" y2="1629.230"/>
      <line x1="509.478" y1="1679.230" x2="509.478" y2="1629.230"/>
      <line x1="510.478" y1="1679.230" x2="510.478" y2="1629.230"/>
      <line x1="511.478" y1="1679.230" x2="511.478" y2="1629.230"/>
      <line x1="512.478" y1="1679.230" x2="512.478" y2="1629.230"/>
      <line x1="513.478" y1="1679.230" x2="513.478" y2="1629.230"/>
      <line x1="514.478" y1="1679.230" x2="514.478" y2="1629.230"/>
      <line x1="515.478" y1="1679.230" x2="515.478" y2="1629.230"/>
      <line x1="516.478" y1="1679.230" x2="516.478" y2="1629.230"/>
      <line x1="517.478" y1="1679.230" x2="517.478" y2="1629.230"/>
      <line x1="518.478" y1="1679.230" x2="518.478" y2="1629.230"/>
      <line x1="519.478" y1="1679.230" x2="519.478" y2="1629.230"/>
      <line x1="520.478" y1="1679.230" x2="520.478" y2="1629.230"/>
      <line x1="521.478" y1="1679.230" x2="521.478" y2="1629.230"/>
      <line x1="522.478" y1="1679.230" x2="522.478" y2="1629.230"/>
      <line x1="523.478" y1="1679.230" x2="523.478" y2="1629.230"/>
      <line x1="524.478" y1="1679.230" x2="524.478" y2="1629.230"/>
      <line x1="525.478" y1="1679.230" x2="525.478" y2="1629.230"/>
      <line x1="526.478" y1="1679.230" x2="526.478" y2="1629.230"/>
      <line x1="527.478" y1="1679.230" x2="527.478" y2="1629.230"/>
      <line x1="528.478" y1="1679.230" x2="528.478" y2="1629.230"/>
      <line x1="529.478" y1="1679.230" x2="529.478" y2="1629.230"/>
      <line x1="530.478" y1="1679.230" x2="530.478" y2="1629.230"/>
      <line x1="531.478" y1="1679.230" x2="531.478" y2="1629.230"/>
      <line x1="532.478" y1="1679.230" x2="532.478" y2="1629.230"/>
      <line x1="533.478" y1="1679.230" x2="533.478" y2="1629.230"/>
      <line x1="534.478" y1="1679.230" x2="534.478" y2="1629.230"/>
      <line x1="535.478" y1="1679.230" x2="535.478" y2="1629.230"/>
      <line x1="536.478" y1="1679.230" x2="536.478" y2="1629.230"/>
      <line x1="537.478" y1="1679.230" x2="537.478" y2="1629.230"/>
      <line x1="538.478" y1="1679.230" x2="538.478" y2="1629.230"/>
      <line x1="539.478" y1="1679.230" x2="539.478" y2="1629.230"/>
      <line x1="540.478" y1="1679.230" x2="540.478" y2="1629.230"/>
      <line x1="541.478" y1="1679.230" x2="541.478" y2="1629.230"/>
      <line x1="542.478" y1="1679.230" x2="542.478" y2="1629.230"/>
      <line x1="543.478" y1="1679.230" x2="543.478" y2="1629.230"/>
      <line x1="544.478" y1="1679.230" x2="544.478" y2="1629.230"/>
      <line x1="545.478" y1="1679.230" x2="545.478" y2="1629.230"/>
      <line x1="546.478" y1="1679.230" x2="546.478" y2="1629.230"/>
      <line x1="547.478" y1="1679.230" x2="547.478" y2="1629.230"/>
      <line x1="548.478" y1="1679.230" x2="548.478" y2="1629.230"/>
      <line x1="549.478" y1="1679.230" x2="549.478" y2="1629.230"/>
      <line x1="550.478" y1="1679.230" x2="550.478" y2="1629.230"/>
      <line x1="551.478" y1="1679.230" x2="551.478" y2="1629.230"/>
      <line x1="552.478" y1="1679.230" x2="552.478" y2="1629.230"/>
      <line x1="553.478" y1="1679.230" x2="553.478" y2="1629.230"/>
      <line x1="554.478" y1="1679.230" x2="554.478" y2="1629.230"/>
      <line x1="555.478" y1="1679.230" x2="555.478" y2="1629.230"/>
      <line x1="556.478" y1="1679.230" x2="556.478" y2="1629.230"/>
      <line x1="557.478" y1="1679.230" x2="557.478" y2="1629.230"/>
      <line x1="558.478" y1="1679.230" x2="558.478" y2="1629.230"/>
      <line x1="559.478" y1="1679.230" x2="559.478" y2="1629.230"/>
      <line x1="560.478" y1="1679.230" x2="560.478" y2="1629.230"/>
      <line x1="561.478" y1="1679.230" x2="561.478" y2="1629.230"/>
      <line x1="562.478" y1="1679.230" x2="562.478" y2="1629.230"/>
      <line x1="563.478" y1="1679.230" x2="563.478" y2="1629.230"/>
      <line x1="441.478" y1="1629.130" x2="441.478" y2="1579.130"/>
      <line x1="442.478" y1="1629.130" x2="442.478" y2="1579.130"/>
      <line x1="443.478" y1="1629.130" x2="443.478" y2="1579.130"/>
      <line x1="444.478" y1="1629.130" x2="444.478" y2="1579.130"/>
      <line x1="445.478" y1="1629.130" x2="445.478" y2="1579.130"/>
      <line x1="446.478" y1="1629.130" x2="446.478" y2="1579.130"/>
      <line x1="447.478" y1="1629.130" x2="447.478" y2="1579.130"/>
      <line x1="448.478" y1="1629.130" x2="448.478" y2="1579.130"/>
      <line x1="449.478" y1="1629.130" x2="449.478" y2="1579.130"/>
      <line x1="450.478" y1="1629.130" x2="450.478" y2="1579.130"/>
      <line x1="451.478" y1="1629.130" x2="451.478" y2="1579.130"/>
      <line x1="452.478" y1="1629.130" x2="452.478" y2="1579.130"/>
      <line x1="453.478" y1="1629.130" x2="453.478" y2="1579.130"/>
      <line x1="454.478" y1="1629.130" x2="454.478" y2="1579.130"/>
      <line x1="455.478" y1="1629.130" x2="455.478" y2="1579.130"/>
      <line x1="456.478" y1="1629.130" x2="456.478" y2="1579.130"/>
      <line x1="457.478" y1="1629.130" x2="457.478" y2="1579.130"/>
      <line x1="458.478" y1="1629.130" x2="458.478" y2="1579.130"/>
      <line x1="459.478" y1="1629.130" x2="459.478" y2="1579.130"/>
      <line x1="460.478" y1="1629.130" x2="460.478" y2="1579.130"/>
      <line x1="461.478" y1="1629.130" x2="461.478" y2="1579.130"/>
      <line x1="462.478" y1="1629.130" x2="462.478" y2="1579.130"/>
      <line x1="463.478" y1="1629.130" x2="463.478" y2="1579.130"/>
      <line x1="464.478" y1="1629.130" x2="464.478" y2="1579.130"/>
      <line x1="465.478" y1="1629.130" x2="465.478" y2="1579.130"/>
      <line x1="466.478" y1="1629.130" x2="466.478" y2="1579.130"/>
      <line x1="467.478" y1="1629.130" x2="467.478" y2="1579.130"/>
      <line x1="468.478" y1="1629.130" x2="468.478" y2="1579.130"/>
      <line x1="469.478" y1="1629.130" x2="469.478" y2="1579.130"/>
      <line x1="470.478" y1="1629.130" x2="470.478" y2="1579.130"/>
      <line x1="471.478" y1="1629.130" x2="471.478" y2="1579.130"/>
      <line x1="472.478" y1="1629.130" x2="472.478" y2="1579.130"/>
      <line x1="473.478" y1="1629.130" x2="473.478" y2="1579.130"/>
      <line x1="474.478" y1="1629.130" x2="474.478" y2="1579.130"/>
      <line x1="475.478" y1="1629.130" x2="475.478" y2="1579.130"/>
      <line x1="476.478" y1="1629.130" x2="476.478" y2="1579.130"/>
      <line x1="477.478" y1="1629.130" x2="477.478" y2="1579.130"/>
      <line x1="478.478" y1="1629.130" x2="478.478" y2="1579.130"/>
      <line x1="479.478" y1="1629.130" x2="479.478" y2="1579.130"/>
      <line x1="480.478" y1="1629.130" x2="480.478" y2="1579.130"/>
      <line x1="481.478" y1="1629.130" x2="481.478" y2="1579.130"/>
      <line x1="482.478" y1="1629.130" x2="482.478" y2="1579.130"/>
      <line x1="483.478" y1="1629.130" x2="483.478" y2="1579.130"/>
      <line x1="484.478" y1="1629.130" x2="484.478" y2="1579.130"/>
      <line x1="485.478" y1="1629.130" x2="485.478" y2="1579.130"/>
      <line x1="486.478" y1="1629.130" x2="486.478" y2="1579.130"/>
      <line x1="487.478" y1="1629.130" x2="487.478" y2="1579.130"/>
      <line x1="488.478" y1="1629.130" x2="488.478" y2="1579.130"/>
      <line x1="489.478" y1="1629.130" x2="489.478" y2="1579.130"/>
      <line x1="490.478" y1="1629.130" x2="490.478" y2="1579.130"/>
      <line x1="491.478" y1="1629.130" x2="491.478" y2="1579.130"/>
      <line x1="492.478" y1="1629.130" x2="492.478" y2="1579.130"/>
      <line x1="493.478" y1="1629.130" x2="493.478" y2="1579.130"/>
      <line x1="494.478" y1="1629.130" x2="494.478" y2="1579.130"/>
      <line x1="495.478" y1="1629.130" x2="495.478" y2="1579.130"/>
      <line x1="496.478" y1="1629.130" x2="496.478" y2="1579.130"/>
      <line x1="497.478" y1="1629.130" x2="497.478" y2="1579.130"/>
      <line x1="498.478" y1="1629.130" x2="498.478" y2="1579.130"/>
      <line x1="499.478" y1="1629.130" x2="499.478" y2="1579.130"/>
      <line x1="500.478" y1="1629.130" x2="500.478" y2="1579.130"/>
      <line x1="501.478" y1="1629.130" x2="501.478" y2="1579.130"/>
      <line x1="502.478" y1="1629.130" x2="502.478" y2="1579.130"/>
      <line x1="503.478" y1="1629.130" x2="503.478" y2="1579.130"/>
      <line x1="504.478" y1="1629.130" x2="504.478" y2="1579.130"/>
      <line x1="505.478" y1="1629.130" x2="505.478" y2="1579.130"/>
      <line x1="506.478" y1="1629.130" x2="506.478" y2="1579.130"/>
      <line x1="507.478" y1="1629.130" x2="507.478" y2="1579.130"/>
      <line x1="508.478" y1="1629.130" x2="508.478" y2="1579.130"/>
      <line x1="509.478" y1="1629.130" x2="509.478" y2="1579.130"/>
      <line x1="510.478" y1="1629.130" x2="510.478" y2="1579.130"/>
      <line x1="511.478" y1="1629.130" x2="511.478" y2="1579.130"/>
      <line x1="512.478" y1="1629.130" x2="512.478" y2="1579.130"/>
      <line x1="513.478" y1="1629.130" x2="513.478" y2="1579.130"/>
      <line x1="514.478" y1="1629.130" x2="514.478" y2="1579.130"/>
      <line x1="515.478" y1="1629.130" x2="515.478" y2="1579.130"/>
      <line x1="516.478" y1="1629.130" x2="516.478" y2="1579.130"/>
      <line x1="517.478" y1="1629.130" x2="517.478" y2="1579.130"/>
      <line x1="518.478" y1="1629.130" x2="518.478" y2="1579.130"/>
      <line x1="519.478" y1="1629.130" x2="519.478" y2="1579.130"/>
      <line x1="520.478" y1="1629.130" x2="520.478" y2="1579.130"/>
      <line x1="521.478" y1="1629.130" x2="521.478" y2="1579.130"/>
      <line x1="522.478" y1="1629.130" x2="522.478" y2="1579.130"/>
      <line x1="523.478" y1="1629.130" x2="523.478" y2="1579.130"/>
      <line x1="524.478" y1="1629.130" x2="524.478" y2="1579.130"/>
      <line x1="525.478" y1="1629.130" x2="525.478" y2="1579.130"/>
      <line x1="526.478" y1="1629.130" x2="526.478" y2="1579.130"/>
      <line x1="527.478" y1="1629.130" x2="527.478" y2="1579.130"/>
      <line x1="528.478" y1="1629.130" x2="528.478" y2="1579.130"/>
      <line x1="529.478" y1="1629.130" x2="529.478" y2="1579.130"/>
      <line x1="530.478" y1="1629.130" x2="530.478" y2="1579.130"/>
      <line x1="531.478" y1="1629.130" x2="531.478" y2="1579.130"/>
      <line x1="532.478" y1="1629.130" x2="532.478" y2="1579.130"/>
      <line x1="533.478" y1="1629.130" x2="533.478" y2="1579.130"/>
      <line x1="534.478" y1="1629.130" x2="534.478" y2="1579.130"/>
      <line x1="535.478" y1="1629.130" x2="535.478" y2="1579.130"/>
      <line x1="536.478" y1="1629.130" x2="536.478" y2="1579.130"/>
      <line x1="537.478" y1="1629.130" x2="537.478" y2="1579.130"/>
      <line x1="538.478" y1="1629.130" x2="538.478" y2="1579.130"/>
      <line x1="539.478" y1="1629.130" x2="539.478" y2="1579.130"/>
      <line x1="540.478" y1="1629.130" x2="540.478" y2="1579.130"/>
      <line x1="541.478" y1="1629.130" x2="541.478" y2="1579.130"/>
      <line x1="542.478" y1="1629.130" x2="542.478" y2="1579.130"/>
      <line x1="543.478" y1="1629.130" x2="543.478" y2="1579.130"/>
      <line x1="544.478" y1="1629.130" x2="544.478" y2="1579.130"/>
      <line x1="545.478" y1="1629.130" x2="545.478" y2="1579.130"/>
      <line x1="546.478" y1="1629.130" x2="546.478" y2="1579.130"/>
      <line x1="547.478" y1="1629.130" x2="547.478" y2="1579.130"/>
      <line x1="548.478" y1="1629.130" x2="548.478" y2="1579.130"/>
      <line x1="549.478" y1="1629.130" x2="549.478" y2="1579.130"/>
      <line x1="550.478" y1="1629.130" x2="550.478" y2="1579.130"/>
      <line x1="551.478" y1="1629.130" x2="551.478" y2="1579.130"/>
      <line x1="552.478" y1="1629.130" x2="552.478" y2="1579.130"/>
      <line x1="553.478" y1="1629.130" x2="553.478" y2="1579.130"/>
      <line x1="554.478" y1="1629.130" x2="554.478" y2="1579.130"/>
      <line x1="555.478" y1="1629.130" x2="555.478" y2="1579.130"/>
      <line x1="556.478" y1="1629.130" x2="556.478" y2="1579.130"/>
      <line x1="557.478" y1="1629.130" x2="557.478" y2="1579.130"/>
      <line x1="558.478" y1="1629.130" x2="558.478" y2="1579.130"/>
      <line x1="559.478" y1="1629.130" x2="559.478" y2="1579.130"/>
      <line x1="560.478" y1="1629.130" x2="560.478" y2="1579.130"/>
      <line x1="561.478" y1="1629.130" x2="561.478" y2="1579.130"/>
      <line x1="562.478" y1="1629.130" x2="562.478" y2="1579.130"/>
      <line x1="563.478" y1="1629.130" x2="563.478" y2="1579.130"/>
      <line x1="441.478" y1="1579.030" x2="441.478" y2="1529.030"/>
      <line x1="442.478" y1="1579.030" x2="442.478" y2="1529.030"/>
      <line x1="443.478" y1="1579.030" x2="443.478" y2="1529.030"/>
      <line x1="444.478" y1="1579.030" x2="444.478" y2="1529.030"/>
      <line x1="445.478" y1="1579.030" x2="445.478" y2="1529.030"/>
      <line x1="446.478" y1="1579.030" x2="446.478" y2="1529.030"/>
      <line x1="447.478" y1="1579.030" x2="447.478" y2="1529.030"/>
      <line x1="448.478" y1="1579.030" x2="448.478" y2="1529.030"/>
      <line x1="449.478" y1="1579.030" x2="449.478" y2="1529.030"/>
      <line x1="450.478" y1="1579.030" x2="450.478" y2="1529.030"/>
      <line x1="451.478" y1="1579.030" x2="451.478" y2="1529.030"/>
      <line x1="452.478" y1="1579.030" x2="452.478" y2="1529.030"/>
      <line x1="453.478" y1="1579.030" x2="453.478" y2="1529.030"/>
      <line x1="454.478" y1="1579.030" x2="454.478" y2="1529.030"/>
      <line x1="455.478" y1="1579.030" x2="455.478" y2="1529.030"/>
      <line x1="456.478" y1="1579.030" x2="456.478" y2="1529.030"/>
      <line x1="457.478" y1="1579.030" x2="457.478" y2="1529.030"/>
      <line x1="458.478" y1="1579.030" x2="458.478" y2="1529.030"/>
      <line x1="459.478" y1="1579.030" x2="459.478" y2="1529.030"/>
      <line x1="460.478" y1="1579.030" x2="460.478" y2="1529.030"/>
      <line x1="461.478" y1="1579.030" x2="461.478" y2="1529.030"/>
      <line x1="462.478" y1="1579.030" x2="462.478" y2="1529.030"/>
      <line x1="463.478" y1="1579.030" x2="463.478" y2="1529.030"/>
      <line x1="464.478" y1="1579.030" x2="464.478" y2="1529.030"/>
      <line x1="465.478" y1="1579.030" x2="465.478" y2="1529.030"/>
      <line x1="466.478" y1="1579.030" x2="466.478" y2="1529.030"/>
      <line x1="467.478" y1="1579.030" x2="467.478" y2="1529.030"/>
      <line x1="468.478" y1="1579.030" x2="468.478" y2="1529.030"/>
      <line x1="469.478" y1="1579.030" x2="469.478" y2="1529.030"/>
      <line x1="470.478" y1="1579.030" x2="470.478" y2="1529.030"/>
      <line x1="471.478" y1="1579.030" x2="471.478" y2="1529.030"/>
      <line x1="472.478" y1="1579.030" x2="472.478" y2="1529.030"/>
      <line x1="473.478" y1="1579.030" x2="473.478" y2="1529.030"/>
      <line x1="474.478" y1="1579.030" x2="474.478" y2="1529.030"/>
      <line x1="475.478" y1="1579.030" x2="475.478" y2="1529.030"/>
      <line x1="476.478" y1="1579.030" x2="476.478" y2="1529.030"/>
      <line x1="477.478" y1="1579.030" x2="477.478" y2="1529.030"/>
      <line x1="478.478" y1="1579.030" x2="478.478" y2="1529.030"/>
      <line x1="479.478" y1="1579.030" x2="479.478" y2="1529.030"/>
      <line x1="480.478" y1="1579.030" x2="480.478" y2="1529.030"/>
      <line x1="481.478" y1="1579.030" x2="481.478" y2="1529.030"/>
      <line x1="482.478" y1="1579.030" x2="482.478" y2="1529.030"/>
      <line x1="483.478" y1="1579.030" x2="483.478" y2="1529.030"/>
      <line x1="484.478" y1="1579.030" x2="484.478" y2="1529.030"/>
      <line x1="485.478" y1="1579.030" x2="485.478" y2="1529.030"/>
      <line x1="486.478" y1="1579.030" x2="486.478" y2="1529.030"/>
      <line x1="487.478" y1="1579.030" x2="487.478" y2="1529.030"/>
      <line x1="488.478" y1="1579.030" x2="488.478" y2="1529.030"/>
      <line x1="489.478" y1="1579.030" x2="489.478" y2="1529.030"/>
      <line x1="490.478" y1="1579.030" x2="490.478" y2="1529.030"/>
      <line x1="491.478" y1="1579.030" x2="491.478" y2="1529.030"/>
      <line x1="492.478" y1="1579.030" x2="492.478" y2="1529.030"/>
      <line x1="493.478" y1="1579.030" x2="493.478" y2="1529.030"/>
      <line x1="494.478" y1="1579.030" x2="494.478" y2="1529.030"/>
      <line x1="495.478" y1="1579.030" x2="495.478" y2="1529.030"/>
      <line x1="496.478" y1="1579.030" x2="496.478" y2="1529.030"/>
      <line x1="497.478" y1="1579.030" x2="497.478" y2="1529.030"/>
      <line x1="498.478" y1="1579.030" x2="498.478" y2="1529.030"/>
      <line x1="499.478" y1="1579.030" x2="499.478" y2="1529.030"/>
      <line x1="500.478" y1="1579.030" x2="500.478" y2="1529.030"/>
      <line x1="501.478" y1="1579.030" x2="501.478" y2="1529.030"/>
      <line x1="502.478" y1="1579.030" x2="502.478" y2="1529.030"/>
      <line x1="503.478" y1="1579.030" x2="503.478" y2="1529.030"/>
      <line x1="504.478" y1="1579.030" x2="504.478" y2="1529.030"/>
      <line x1="505.478" y1="1579.030" x2="505.478" y2="1529.030"/>
      <line x1="506.478" y1="1579.030" x2="506.478" y2="1529.030"/>
      <line x1="507.478" y1="1579.030" x2="507.478" y2="1529.030"/>
      <line x1="508.478" y1="1579.030" x2="508.478" y2="1529.030"/>
      <line x1="509.478" y1="1579.030" x2="509.478" y2="1529.030"/>
      <line x1="510.478" y1="1579.030" x2="510.478" y2="1529.030"/>
      <line x1="511.478" y1="1579.030" x2="511.478" y2="1529.030"/>
      <line x1="512.478" y1="1579.030" x2="512.478" y2="1529.030"/>
      <line x1="513.478" y1="1579.030" x2="513.478" y2="1529.030"/>
      <line x1="514.478" y1="1579.030" x2="514.478" y2="1529.030"/>
      <line x1="515.478" y1="1579.030" x2="515.478" y2="1529.030"/>
      <line x1="516.478" y1="1579.030" x2="516.478" y2="1529.030"/>
      <line x1="517.478" y1="1579.030" x2="517.478" y2="1529.030"/>
      <line x1="518.478" y1="1579.030" x2="518.478" y2="1529.030"/>
      <line x1="519.478" y1="1579.030" x2="519.478" y2="1529.030"/>
      <line x1="520.478" y1="1579.030" x2="520.478" y2="1529.030"/>
      <line x1="521.478" y1="1579.030" x2="521.478" y2="1529.030"/>
      <line x1="522.478" y1="1579.030" x2="522.478" y2="1529.030"/>
      <line x1="523.478" y1="1579.030" x2="523.478" y2="1529.030"/>
      <line x1="524.478" y1="1579.030" x2="524.478" y2="1529.030"/>
      <line x1="525.478" y1="1579.030" x2="525.478" y2="1529.030"/>
      <line x1="526.478" y1="1579.030" x2="526.478" y2="1529.030"/>
      <line x1="527.478" y1="1579.030" x2="527.478" y2="1529.030"/>
      <line x1="528.478" y1="1579.030" x2="528.478" y2="1529.030"/>
      <line x1="529.478" y1="1579.030" x2="529.478" y2="1529.030"/>
      <line x1="530.478" y1="1579.030" x2="530.478" y2="1529.030"/>
      <line x1="531.478" y1="1579.030" x2="531.478" y2="1529.030"/>
      <line x1="532.478" y1="1579.030" x2="532.478" y2="1529.030"/>
      <line x1="533.478" y1="1579.030" x2="533.478" y2="1529.030"/>
      <line x1="534.478" y1="1579.030" x2="534.478" y2="1529.030"/>
      <line x1="535.478" y1="1579.030" x2="535.478" y2="1529.030"/>
      <line x1="536.478" y1="1579.030" x2="536.478" y2="1529.030"/>
      <line x1="537.478" y1="1579.030" x2="537.478" y2="1529.030"/>
      <line x1="538.478" y1="1579.030" x2="538.478" y2="1529.030"/>
      <line x1="539.478" y1="1579.030" x2="539.478" y2="1529.030"/>
      <line x1="540.478" y1="1579.030" x2="540.478" y2="1529.030"/>
      <line x1="541.478" y1="1579.030" x2="541.478" y2="1529.030"/>
      <line x1="542.478" y1="1579.030" x2="542.478" y2="1529.030"/>
      <line x1="543.478" y1="1579.030" x2="543.478" y2="1529.030"/>
      <line x1="544.478" y1="1579.030" x2="544.478" y2="1529.030"/>
      <line x1="545.478" y1="1579.030" x2="545.478" y2="1529.030"/>
      <line x1="546.478" y1="1579.030" x2="546.478" y2="1529.030"/>
      <line x1="547.478" y1="1579.030" x2="547.478" y2="1529.030"/>
      <line x1="548.478" y1="1579.030" x2="548.478" y2="1529.030"/>
      <line x1="549.478" y1="1579.030" x2="549.478" y2="1529.030"/>
      <line x1="550.478" y1="1579.030" x2="550.478" y2="1529.030"/>
      <line x1="551.478" y1="1579.030" x2="551.478" y2="1529.030"/>
      <line x1="552.478" y1="1579.030" x2="552.478" y2="1529.030"/>
      <line x1="553.478" y1="1579.030" x2="553.478" y2="1529.030"/>
      <line x1="554.478" y1="1579.030" x2="554.478" y2="1529.030"/>
      <line x1="555.478" y1="1579.030" x2="555.478" y2="1529.030"/>
      <line x1="556.478" y1="1579.030" x2="556.478" y2="1529.030"/>
      <line x1="557.478" y1="1579.030" x2="557.478" y2="1529.030"/>
      <line x1="558.478" y1="1579.030" x2="558.478" y2="1529.030"/>
      <line x1="559.478" y1="1579.030" x2="559.478" y2="1529.030"/>
      <line x1="560.478" y1="1579.030" x2="560.478" y2="1529.030"/>
      <line x1="561.478" y1="1579.030" x2="561.478" y2="1529.030"/>
      <line x1="562.478" y1="1579.030" x2="562.478" y2="1529.030"/>
      <line x1="563.478" y1="1579.030" x2="563.478" y2="1529.030"/>
      <line x1="442.478" y1="1528.930" x2="442.478" y2="1525.229"/>
      <line x1="464.478" y1="1528.930" x2="464.478" y2="1525.229"/>
      <line x1="441.478" y1="1528.930" x2="441.478" y2="1525.229"/>
      <line x1="443.478" y1="1528.930" x2="443.478" y2="1525.229"/>
      <line x1="444.478" y1="1528.930" x2="444.478" y2="1525.229"/>
      <line x1="445.478" y1="1528.930" x2="445.478" y2="1525.229"/>
      <line x1="446.478" y1="1528.930" x2="446.478" y2="1525.229"/>
      <line x1="447.478" y1="1528.930" x2="447.478" y2="1525.229"/>
      <line x1="449.478" y1="1528.930" x2="449.478" y2="1525.229"/>
      <line x1="450.478" y1="1528.930" x2="450.478" y2="1525.229"/>
      <line x1="453.478" y1="1528.930" x2="453.478" y2="1525.229"/>
      <line x1="463.478" y1="1528.930" x2="463.478" y2="1525.229"/>
      <line x1="461.478" y1="1528.930" x2="461.478" y2="1525.229"/>
      <line x1="456.478" y1="1528.930" x2="456.478" y2="1525.229"/>
      <line x1="452.478" y1="1528.930" x2="452.478" y2="1525.229"/>
      <line x1="458.478" y1="1528.930" x2="458.478" y2="1525.229"/>
      <line x1="455.478" y1="1528.930" x2="455.478" y2="1525.229"/>
      <line x1="451.478" y1="1528.930" x2="451.478" y2="1525.229"/>
      <line x1="454.478" y1="1528.930" x2="454.478" y2="1525.229"/>
      <line x1="457.478" y1="1528.930" x2="457.478" y2="1525.229"/>
      <line x1="460.478" y1="1528.930" x2="460.478" y2="1525.229"/>
      <line x1="459.478" y1="1528.930" x2="459.478" y2="1525.229"/>
      <line x1="462.478" y1="1528.930" x2="462.478" y2="1525.229"/>
      <line x1="448.478" y1="1528.930" x2="448.478" y2="1525.229"/>
      <line x1="466.478" y1="1528.930" x2="466.478" y2="1525.229"/>
      <line x1="477.478" y1="1528.930" x2="477.478" y2="1525.229"/>
      <line x1="476.478" y1="1528.930" x2="476.478" y2="1525.229"/>
      <line x1="475.478" y1="1528.930" x2="475.478" y2="1525.229"/>
      <line x1="474.478" y1="1528.930" x2="474.478" y2="1525.229"/>
      <line x1="473.478" y1="1528.930" x2="473.478" y2="1525.229"/>
      <line x1="472.478" y1="1528.930" x2="472.478" y2="1525.229"/>
      <line x1="471.478" y1="1528.930" x2="471.478" y2="1525.229"/>
      <line x1="470.478" y1="1528.930" x2="470.478" y2="1525.229"/>
      <line x1="469.478" y1="1528.930" x2="469.478" y2="1525.229"/>
      <line x1="468.478" y1="1528.930" x2="468.478" y2="1525.229"/>
      <line x1="467.478" y1="1528.930" x2="467.478" y2="1525.229"/>
      <line x1="478.478" y1="1528.930" x2="478.478" y2="1525.229"/>
      <line x1="465.478" y1="1528.930" x2="465.478" y2="1525.229"/>
      <line x1="489.478" y1="1528.930" x2="489.478" y2="1525.229"/>
      <line x1="490.478" y1="1528.930" x2="490.478" y2="1525.229"/>
      <line x1="488.478" y1="1528.930" x2="488.478" y2="1525.229"/>
      <line x1="487.478" y1="1528.930" x2="487.478" y2="1525.229"/>
      <line x1="486.478" y1="1528.930" x2="486.478" y2="1525.229"/>
      <line x1="485.478" y1="1528.930" x2="485.478" y2="1525.229"/>
      <line x1="484.478" y1="1528.930" x2="484.478" y2="1525.229"/>
      <line x1="483.478" y1="1528.930" x2="483.478" y2="1525.229"/>
      <line x1="482.478" y1="1528.930" x2="482.478" y2="1525.229"/>
      <line x1="481.478" y1="1528.930" x2="481.478" y2="1525.229"/>
      <line x1="480.478" y1="1528.930" x2="480.478" y2="1525.229"/>
      <line x1="479.478" y1="1528.930" x2="479.478" y2="1525.229"/>
      <line x1="540.478" y1="1528.930" x2="540.478" y2="1525.229"/>
      <line x1="539.478" y1="1528.930" x2="539.478" y2="1525.229"/>
      <line x1="511.478" y1="1528.930" x2="511.478" y2="1525.229"/>
      <line x1="522.478" y1="1528.930" x2="522.478" y2="1525.229"/>
      <line x1="521.478" y1="1528.930" x2="521.478" y2="1525.229"/>
      <line x1="520.478" y1="1528.930" x2="520.478" y2="1525.229"/>
      <line x1="519.478" y1="1528.930" x2="519.478" y2="1525.229"/>
      <line x1="518.478" y1="1528.930" x2="518.478" y2="1525.229"/>
      <line x1="517.478" y1="1528.930" x2="517.478" y2="1525.229"/>
      <line x1="516.478" y1="1528.930" x2="516.478" y2="1525.229"/>
      <line x1="515.478" y1="1528.930" x2="515.478" y2="1525.229"/>
      <line x1="514.478" y1="1528.930" x2="514.478" y2="1525.229"/>
      <line x1="513.478" y1="1528.930" x2="513.478" y2="1525.229"/>
      <line x1="512.478" y1="1528.930" x2="512.478" y2="1525.229"/>
      <line x1="523.478" y1="1528.930" x2="523.478" y2="1525.229"/>
      <line x1="510.478" y1="1528.930" x2="510.478" y2="1525.229"/>
      <line x1="509.478" y1="1528.930" x2="509.478" y2="1525.229"/>
      <line x1="508.478" y1="1528.930" x2="508.478" y2="1525.229"/>
      <line x1="507.478" y1="1528.930" x2="507.478" y2="1525.229"/>
      <line x1="506.478" y1="1528.930" x2="506.478" y2="1525.229"/>
      <line x1="505.478" y1="1528.930" x2="505.478" y2="1525.229"/>
      <line x1="504.478" y1="1528.930" x2="504.478" y2="1525.229"/>
      <line x1="503.478" y1="1528.930" x2="503.478" y2="1525.229"/>
      <line x1="502.478" y1="1528.930" x2="502.478" y2="1525.229"/>
      <line x1="501.478" y1="1528.930" x2="501.478" y2="1525.229"/>
      <line x1="534.478" y1="1528.930" x2="534.478" y2="1525.229"/>
      <line x1="538.478" y1="1528.930" x2="538.478" y2="1525.229"/>
      <line x1="537.478" y1="1528.930" x2="537.478" y2="1525.229"/>
      <line x1="536.478" y1="1528.930" x2="536.478" y2="1525.229"/>
      <line x1="535.478" y1="1528.930" x2="535.478" y2="1525.229"/>
      <line x1="533.478" y1="1528.930" x2="533.478" y2="1525.229"/>
      <line x1="532.478" y1="1528.930" x2="532.478" y2="1525.229"/>
      <line x1="531.478" y1="1528.930" x2="531.478" y2="1525.229"/>
      <line x1="530.478" y1="1528.930" x2="530.478" y2="1525.229"/>
      <line x1="529.478" y1="1528.930" x2="529.478" y2="1525.229"/>
      <line x1="528.478" y1="1528.930" x2="528.478" y2="1525.229"/>
      <line x1="527.478" y1="1528.930" x2="527.478" y2="1525.229"/>
      <line x1="526.478" y1="1528.930" x2="526.478" y2="1525.229"/>
      <line x1="525.478" y1="1528.930" x2="525.478" y2="1525.229"/>
      <line x1="524.478" y1="1528.930" x2="524.478" y2="1525.229"/>
      <line x1="499.478" y1="1528.930" x2="499.478" y2="1525.229"/>
      <line x1="498.478" y1="1528.930" x2="498.478" y2="1525.229"/>
      <line x1="497.478" y1="1528.930" x2="497.478" y2="1525.229"/>
      <line x1="496.478" y1="1528.930" x2="496.478" y2="1525.229"/>
      <line x1="495.478" y1="1528.930" x2="495.478" y2="1525.229"/>
      <line x1="494.478" y1="1528.930" x2="494.478" y2="1525.229"/>
      <line x1="493.478" y1="1528.930" x2="493.478" y2="1525.229"/>
      <line x1="492.478" y1="1528.930" x2="492.478" y2="1525.229"/>
      <line x1="491.478" y1="1528.930" x2="491.478" y2="1525.229"/>
      <line x1="500.478" y1="1528.930" x2="500.478" y2="1525.229"/>
      <line x1="545.478" y1="1528.930" x2="545.478" y2="1525.229"/>
      <line x1="546.478" y1="1528.930" x2="546.478" y2="1525.229"/>
      <line x1="548.478" y1="1528.930" x2="548.478" y2="1525.229"/>
      <line x1="549.478" y1="1528.930" x2="549.478" y2="1525.229"/>
      <line x1="551.478" y1="1528.930" x2="551.478" y2="1525.229"/>
      <line x1="552.478" y1="1528.930" x2="552.478" y2="1525.229"/>
      <line x1="554.478" y1="1528.930" x2="554.478" y2="1525.229"/>
      <line x1="557.478" y1="1528.930" x2="557.478" y2="1525.229"/>
      <line x1="559.478" y1="1528.930" x2="559.478" y2="1525.229"/>
      <line x1="560.478" y1="1528.930" x2="560.478" y2="1525.229"/>
      <line x1="562.478" y1="1528.930" x2="562.478" y2="1525.229"/>
      <line x1="563.478" y1="1528.930" x2="563.478" y2="1525.229"/>
      <line x1="542.478" y1="1528.930" x2="542.478" y2="1525.229"/>
      <line x1="543.478" y1="1528.930" x2="543.478" y2="1525.229"/>
      <line x1="541.478" y1="1528.930" x2="541.478" y2="1525.229"/>
      <line x1="544.478" y1="1528.930" x2="544.478" y2="1525.229"/>
      <line x1="547.478" y1="1528.930" x2="547.478" y2="1525.229"/>
      <line x1="550.478" y1="1528.930" x2="550.478" y2="1525.229"/>
      <line x1="553.478" y1="1528.930" x2="553.478" y2="1525.229"/>
      <line x1="556.478" y1="1528.930" x2="556.478" y2="1525.229"/>
      <line x1="555.478" y1="1528.930" x2="555.478" y2="1525.229"/>
      <line x1="558.478" y1="1528.930" x2="558.478" y2="1525.229"/>
      <line x1="561.478" y1="1528.930" x2="561.478" y2="1525.229"/>
      <line x1="36.219" y1="1679.230" x2="36.219" y2="1629.230"/>
      <line x1="37.219" y1="1679.230" x2="37.219" y2="1629.230"/>
      <line x1="38.219" y1="1679.230" x2="38.219" y2="1629.230"/>
      <line x1="39.219" y1="1679.230" x2="39.219" y2="1629.230"/>
      <line x1="40.219" y1="1679.230" x2="40.219" y2="1629.230"/>
      <line x1="41.219" y1="1679.230" x2="41.219" y2="1629.230"/>
      <line x1="42.219" y1="1679.230" x2="42.219" y2="1629.230"/>
      <line x1="43.219" y1="1679.230" x2="43.219" y2="1629.230"/>
      <line x1="44.219" y1="1679.230" x2="44.219" y2="1629.230"/>
      <line x1="45.219" y1="1679.230" x2="45.219" y2="1629.230"/>
      <line x1="46.219" y1="1679.230" x2="46.219" y2="1629.230"/>
      <line x1="47.219" y1="1679.230" x2="47.219" y2="1629.230"/>
      <line x1="48.219" y1="1679.230" x2="48.219" y2="1629.230"/>
      <line x1="49.219" y1="1679.230" x2="49.219" y2="1629.230"/>
      <line x1="50.219" y1="1679.230" x2="50.219" y2="1629.230"/>
      <line x1="51.219" y1="1679.230" x2="51.219" y2="1629.230"/>
      <line x1="52.219" y1="1679.230" x2="52.219" y2="1629.230"/>
      <line x1="53.219" y1="1679.230" x2="53.219" y2="1629.230"/>
      <line x1="54.219" y1="1679.230" x2="54.219" y2="1629.230"/>
      <line x1="55.219" y1="1679.230" x2="55.219" y2="1629.230"/>
      <line x1="56.219" y1="1679.230" x2="56.219" y2="1629.230"/>
      <line x1="57.219" y1="1679.230" x2="57.219" y2="1629.230"/>
      <line x1="58.219" y1="1679.230" x2="58.219" y2="1629.230"/>
      <line x1="59.219" y1="1679.230" x2="59.219" y2="1629.230"/>
      <line x1="60.219" y1="1679.230" x2="60.219" y2="1629.230"/>
      <line x1="61.219" y1="1679.230" x2="61.219" y2="1629.230"/>
      <line x1="62.219" y1="1679.230" x2="62.219" y2="1629.230"/>
      <line x1="63.219" y1="1679.230" x2="63.219" y2="1629.230"/>
      <line x1="64.219" y1="1679.230" x2="64.219" y2="1629.230"/>
      <line x1="65.219" y1="1679.230" x2="65.219" y2="1629.230"/>
      <line x1="66.219" y1="1679.230" x2="66.219" y2="1629.230"/>
      <line x1="67.219" y1="1679.230" x2="67.219" y2="1629.230"/>
      <line x1="68.219" y1="1679.230" x2="68.219" y2="1629.230"/>
      <line x1="69.219" y1="1679.230" x2="69.219" y2="1629.230"/>
      <line x1="70.219" y1="1679.230" x2="70.219" y2="1629.230"/>
      <line x1="71.219" y1="1679.230" x2="71.219" y2="1629.230"/>
      <line x1="72.219" y1="1679.230" x2="72.219" y2="1629.230"/>
      <line x1="73.219" y1="1679.230" x2="73.219" y2="1629.230"/>
      <line x1="74.219" y1="1679.230" x2="74.219" y2="1629.230"/>
      <line x1="75.219" y1="1679.230" x2="75.219" y2="1629.230"/>
      <line x1="76.219" y1="1679.230" x2="76.219" y2="1629.230"/>
      <line x1="77.219" y1="1679.230" x2="77.219" y2="1629.230"/>
      <line x1="78.219" y1="1679.230" x2="78.219" y2="1629.230"/>
      <line x1="79.219" y1="1679.230" x2="79.219" y2="1629.230"/>
      <line x1="80.219" y1="1679.230" x2="80.219" y2="1629.230"/>
      <line x1="81.219" y1="1679.230" x2="81.219" y2="1629.230"/>
      <line x1="82.219" y1="1679.230" x2="82.219" y2="1629.230"/>
      <line x1="83.219" y1="1679.230" x2="83.219" y2="1629.230"/>
      <line x1="84.219" y1="1679.230" x2="84.219" y2="1629.230"/>
      <line x1="85.219" y1="1679.230" x2="85.219" y2="1629.230"/>
      <line x1="86.219" y1="1679.230" x2="86.219" y2="1629.230"/>
      <line x1="87.219" y1="1679.230" x2="87.219" y2="1629.230"/>
      <line x1="88.219" y1="1679.230" x2="88.219" y2="1629.230"/>
      <line x1="89.219" y1="1679.230" x2="89.219" y2="1629.230"/>
      <line x1="90.219" y1="1679.230" x2="90.219" y2="1629.230"/>
      <line x1="91.219" y1="1679.230" x2="91.219" y2="1629.230"/>
      <line x1="92.219" y1="1679.230" x2="92.219" y2="1629.230"/>
      <line x1="93.219" y1="1679.230" x2="93.219" y2="1629.230"/>
      <line x1="94.219" y1="1679.230" x2="94.219" y2="1629.230"/>
      <line x1="95.219" y1="1679.230" x2="95.219" y2="1629.230"/>
      <line x1="96.219" y1="1679.230" x2="96.219" y2="1629.230"/>
      <line x1="97.219" y1="1679.230" x2="97.219" y2="1629.230"/>
      <line x1="98.219" y1="1679.230" x2="98.219" y2="1629.230"/>
      <line x1="99.219" y1="1679.230" x2="99.219" y2="1629.230"/>
      <line x1="100.219" y1="1679.230" x2="100.219" y2="1629.230"/>
      <line x1="101.219" y1="1679.230" x2="101.219" y2="1629.230"/>
      <line x1="102.219" y1="1679.230" x2="102.219" y2="1629.230"/>
      <line x1="103.219" y1="1679.230" x2="103.219" y2="1629.230"/>
      <line x1="104.219" y1="1679.230" x2="104.219" y2="1629.230"/>
      <line x1="105.219" y1="1679.230" x2="105.219" y2="1629.230"/>
      <line x1="106.219" y1="1679.230" x2="106.219" y2="1629.230"/>
      <line x1="107.219" y1="1679.230" x2="107.219" y2="1629.230"/>
      <line x1="108.219" y1="1679.230" x2="108.219" y2="1629.230"/>
      <line x1="109.219" y1="1679.230" x2="109.219" y2="1629.230"/>
      <line x1="110.219" y1="1679.230" x2="110.219" y2="1629.230"/>
      <line x1="111.219" y1="1679.230" x2="111.219" y2="1629.230"/>
      <line x1="112.219" y1="1679.230" x2="112.219" y2="1629.230"/>
      <line x1="113.219" y1="1679.230" x2="113.219" y2="1629.230"/>
      <line x1="114.219" y1="1679.230" x2="114.219" y2="1629.230"/>
      <line x1="115.219" y1="1679.230" x2="115.219" y2="1629.230"/>
      <line x1="116.219" y1="1679.230" x2="116.219" y2="1629.230"/>
      <line x1="117.219" y1="1679.230" x2="117.219" y2="1629.230"/>
      <line x1="118.219" y1="1679.230" x2="118.219" y2="1629.230"/>
      <line x1="119.219" y1="1679.230" x2="119.219" y2="1629.230"/>
      <line x1="120.219" y1="1679.230" x2="120.219" y2="1629.230"/>
      <line x1="121.219" y1="1679.230" x2="121.219" y2="1629.230"/>
      <line x1="122.219" y1="1679.230" x2="122.219" y2="1629.230"/>
      <line x1="123.219" y1="1679.230" x2="123.219" y2="1629.230"/>
      <line x1="124.219" y1="1679.230" x2="124.219" y2="1629.230"/>
      <line x1="125.219" y1="1679.230" x2="125.219" y2="1629.230"/>
      <line x1="126.219" y1="1679.230" x2="126.219" y2="1629.230"/>
      <line x1="127.219" y1="1679.230" x2="127.219" y2="1629.230"/>
      <line x1="128.219" y1="1679.230" x2="128.219" y2="1629.230"/>
      <line x1="129.219" y1="1679.230" x2="129.219" y2="1629.230"/>
      <line x1="130.219" y1="1679.230" x2="130.219" y2="1629.230"/>
      <line x1="131.219" y1="1679.230" x2="131.219" y2="1629.230"/>
      <line x1="132.219" y1="1679.230" x2="132.219" y2="1629.230"/>
      <line x1="133.219" y1="1679.230" x2="133.219" y2="1629.230"/>
      <line x1="134.219" y1="1679.230" x2="134.219" y2="1629.230"/>
      <line x1="135.219" y1="1679.230" x2="135.219" y2="1629.230"/>
      <line x1="136.219" y1="1679.230" x2="136.219" y2="1629.230"/>
      <line x1="137.219" y1="1679.230" x2="137.219" y2="1629.230"/>
      <line x1="138.219" y1="1679.230" x2="138.219" y2="1629.230"/>
      <line x1="139.219" y1="1679.230" x2="139.219" y2="1629.230"/>
      <line x1="140.219" y1="1679.230" x2="140.219" y2="1629.230"/>
      <line x1="141.219" y1="1679.230" x2="141.219" y2="1629.230"/>
      <line x1="142.219" y1="1679.230" x2="142.219" y2="1629.230"/>
      <line x1="143.219" y1="1679.230" x2="143.219" y2="1629.230"/>
      <line x1="144.219" y1="1679.230" x2="144.219" y2="1629.230"/>
      <line x1="145.219" y1="1679.230" x2="145.219" y2="1629.230"/>
      <line x1="146.219" y1="1679.230" x2="146.219" y2="1629.230"/>
      <line x1="147.219" y1="1679.230" x2="147.219" y2="1629.230"/>
      <line x1="148.219" y1="1679.230" x2="148.219" y2="1629.230"/>
      <line x1="149.219" y1="1679.230" x2="149.219" y2="1629.230"/>
      <line x1="150.219" y1="1679.230" x2="150.219" y2="1629.230"/>
      <line x1="151.219" y1="1679.230" x2="151.219" y2="1629.230"/>
      <line x1="152.219" y1="1679.230" x2="152.219" y2="1629.230"/>
      <line x1="153.219" y1="1679.230" x2="153.219" y2="1629.230"/>
      <line x1="154.219" y1="1679.230" x2="154.219" y2="1629.230"/>
      <line x1="155.219" y1="1679.230" x2="155.219" y2="1629.230"/>
      <line x1="156.219" y1="1679.230" x2="156.219" y2="1629.230"/>
      <line x1="157.219" y1="1679.230" x2="157.219" y2="1629.230"/>
      <line x1="158.219" y1="1679.230" x2="158.219" y2="1629.230"/>
      <line x1="36.219" y1="1629.130" x2="36.219" y2="1579.130"/>
      <line x1="37.219" y1="1629.130" x2="37.219" y2="1579.130"/>
      <line x1="38.219" y1="1629.130" x2="38.219" y2="1579.130"/>
      <line x1="39.219" y1="1629.130" x2="39.219" y2="1579.130"/>
      <line x1="40.219" y1="1629.130" x2="40.219" y2="1579.130"/>
      <line x1="41.219" y1="1629.130" x2="41.219" y2="1579.130"/>
      <line x1="42.219" y1="1629.130" x2="42.219" y2="1579.130"/>
      <line x1="43.219" y1="1629.130" x2="43.219" y2="1579.130"/>
      <line x1="44.219" y1="1629.130" x2="44.219" y2="1579.130"/>
      <line x1="45.219" y1="1629.130" x2="45.219" y2="1579.130"/>
      <line x1="46.219" y1="1629.130" x2="46.219" y2="1579.130"/>
      <line x1="47.219" y1="1629.130" x2="47.219" y2="1579.130"/>
      <line x1="48.219" y1="1629.130" x2="48.219" y2="1579.130"/>
      <line x1="49.219" y1="1629.130" x2="49.219" y2="1579.130"/>
      <line x1="50.219" y1="1629.130" x2="50.219" y2="1579.130"/>
      <line x1="51.219" y1="1629.130" x2="51.219" y2="1579.130"/>
      <line x1="52.219" y1="1629.130" x2="52.219" y2="1579.130"/>
      <line x1="53.219" y1="1629.130" x2="53.219" y2="1579.130"/>
      <line x1="54.219" y1="1629.130" x2="54.219" y2="1579.130"/>
      <line x1="55.219" y1="1629.130" x2="55.219" y2="1579.130"/>
      <line x1="56.219" y1="1629.130" x2="56.219" y2="1579.130"/>
      <line x1="57.219" y1="1629.130" x2="57.219" y2="1579.130"/>
      <line x1="58.219" y1="1629.130" x2="58.219" y2="1579.130"/>
      <line x1="59.219" y1="1629.130" x2="59.219" y2="1579.130"/>
      <line x1="60.219" y1="1629.130" x2="60.219" y2="1579.130"/>
      <line x1="61.219" y1="1629.130" x2="61.219" y2="1579.130"/>
      <line x1="62.219" y1="1629.130" x2="62.219" y2="1579.130"/>
      <line x1="63.219" y1="1629.130" x2="63.219" y2="1579.130"/>
      <line x1="64.219" y1="1629.130" x2="64.219" y2="1579.130"/>
      <line x1="65.219" y1="1629.130" x2="65.219" y2="1579.130"/>
      <line x1="66.219" y1="1629.130" x2="66.219" y2="1579.130"/>
      <line x1="67.219" y1="1629.130" x2="67.219" y2="1579.130"/>
      <line x1="68.219" y1="1629.130" x2="68.219" y2="1579.130"/>
      <line x1="69.219" y1="1629.130" x2="69.219" y2="1579.130"/>
      <line x1="70.219" y1="1629.130" x2="70.219" y2="1579.130"/>
      <line x1="71.219" y1="1629.130" x2="71.219" y2="1579.130"/>
      <line x1="72.219" y1="1629.130" x2="72.219" y2="1579.130"/>
      <line x1="73.219" y1="1629.130" x2="73.219" y2="1579.130"/>
      <line x1="74.219" y1="1629.130" x2="74.219" y2="1579.130"/>
      <line x1="75.219" y1="1629.130" x2="75.219" y2="1579.130"/>
      <line x1="76.219" y1="1629.130" x2="76.219" y2="1579.130"/>
      <line x1="77.219" y1="1629.130" x2="77.219" y2="1579.130"/>
      <line x1="78.219" y1="1629.130" x2="78.219" y2="1579.130"/>
      <line x1="79.219" y1="1629.130" x2="79.219" y2="1579.130"/>
      <line x1="80.219" y1="1629.130" x2="80.219" y2="1579.130"/>
      <line x1="81.219" y1="1629.130" x2="81.219" y2="1579.130"/>
      <line x1="82.219" y1="1629.130" x2="82.219" y2="1579.130"/>
      <line x1="83.219" y1="1629.130" x2="83.219" y2="1579.130"/>
      <line x1="84.219" y1="1629.130" x2="84.219" y2="1579.130"/>
      <line x1="85.219" y1="1629.130" x2="85.219" y2="1579.130"/>
      <line x1="86.219" y1="1629.130" x2="86.219" y2="1579.130"/>
      <line x1="87.219" y1="1629.130" x2="87.219" y2="1579.130"/>
      <line x1="88.219" y1="1629.130" x2="88.219" y2="1579.130"/>
      <line x1="89.219" y1="1629.130" x2="89.219" y2="1579.130"/>
      <line x1="90.219" y1="1629.130" x2="90.219" y2="1579.130"/>
      <line x1="91.219" y1="1629.130" x2="91.219" y2="1579.130"/>
      <line x1="92.219" y1="1629.130" x2="92.219" y2="1579.130"/>
      <line x1="93.219" y1="1629.130" x2="93.219" y2="1579.130"/>
      <line x1="94.219" y1="1629.130" x2="94.219" y2="1579.130"/>
      <line x1="95.219" y1="1629.130" x2="95.219" y2="1579.130"/>
      <line x1="96.219" y1="1629.130" x2="96.219" y2="1579.130"/>
      <line x1="97.219" y1="1629.130" x2="97.219" y2="1579.130"/>
      <line x1="98.219" y1="1629.130" x2="98.219" y2="1579.130"/>
      <line x1="99.219" y1="1629.130" x2="99.219" y2="1579.130"/>
      <line x1="100.219" y1="1629.130" x2="100.219" y2="1579.130"/>
      <line x1="101.219" y1="1629.130" x2="101.219" y2="1579.130"/>
      <line x1="102.219" y1="1629.130" x2="102.219" y2="1579.130"/>
      <line x1="103.219" y1="1629.130" x2="103.219" y2="1579.130"/>
      <line x1="104.219" y1="1629.130" x2="104.219" y2="1579.130"/>
      <line x1="105.219" y1="1629.130" x2="105.219" y2="1579.130"/>
      <line x1="106.219" y1="1629.130" x2="106.219" y2="1579.130"/>
      <line x1="107.219" y1="1629.130" x2="107.219" y2="1579.130"/>
      <line x1="108.219" y1="1629.130" x2="108.219" y2="1579.130"/>
      <line x1="109.219" y1="1629.130" x2="109.219" y2="1579.130"/>
      <line x1="110.219" y1="1629.130" x2="110.219" y2="1579.130"/>
      <line x1="111.219" y1="1629.130" x2="111.219" y2="1579.130"/>
      <line x1="112.219" y1="1629.130" x2="112.219" y2="1579.130"/>
      <line x1="113.219" y1="1629.130" x2="113.219" y2="1579.130"/>
      <line x1="114.219" y1="1629.130" x2="114.219" y2="1579.130"/>
      <line x1="115.219" y1="1629.130" x2="115.219" y2="1579.130"/>
      <line x1="116.219" y1="1629.130" x2="116.219" y2="1579.130"/>
      <line x1="117.219" y1="1629.130" x2="117.219" y2="1579.130"/>
      <line x1="118.219" y1="1629.130" x2="118.219" y2="1579.130"/>
      <line x1="119.219" y1="1629.130" x2="119.219" y2="1579.130"/>
      <line x1="120.219" y1="1629.130" x2="120.219" y2="1579.130"/>
      <line x1="121.219" y1="1629.130" x2="121.219" y2="1579.130"/>
      <line x1="122.219" y1="1629.130" x2="122.219" y2="1579.130"/>
      <line x1="123.219" y1="1629.130" x2="123.219" y2="1579.130"/>
      <line x1="124.219" y1="1629.130" x2="124.219" y2="1579.130"/>
      <line x1="125.219" y1="1629.130" x2="125.219" y2="1579.130"/>
      <line x1="126.219" y1="1629.130" x2="126.219" y2="1579.130"/>
      <line x1="127.219" y1="1629.130" x2="127.219" y2="1579.130"/>
      <line x1="128.219" y1="1629.130" x2="128.219" y2="1579.130"/>
      <line x1="129.219" y1="1629.130" x2="129.219" y2="1579.130"/>
      <line x1="130.219" y1="1629.130" x2="130.219" y2="1579.130"/>
      <line x1="131.219" y1="1629.130" x2="131.219" y2="1579.130"/>
      <line x1="132.219" y1="1629.130" x2="132.219" y2="1579.130"/>
      <line x1="133.219" y1="1629.130" x2="133.219" y2="1579.130"/>
      <line x1="134.219" y1="1629.130" x2="134.219" y2="1579.130"/>
      <line x1="135.219" y1="1629.130" x2="135.219" y2="1579.130"/>
      <line x1="136.219" y1="1629.130" x2="136.219" y2="1579.130"/>
      <line x1="137.219" y1="1629.130" x2="137.219" y2="1579.130"/>
      <line x1="138.219" y1="1629.130" x2="138.219" y2="1579.130"/>
      <line x1="139.219" y1="1629.130" x2="139.219" y2="1579.130"/>
      <line x1="140.219" y1="1629.130" x2="140.219" y2="1579.130"/>
      <line x1="141.219" y1="1629.130" x2="141.219" y2="1579.130"/>
      <line x1="142.219" y1="1629.130" x2="142.219" y2="1579.130"/>
      <line x1="143.219" y1="1629.130" x2="143.219" y2="1579.130"/>
      <line x1="144.219" y1="1629.130" x2="144.219" y2="1579.130"/>
      <line x1="145.219" y1="1629.130" x2="145.219" y2="1579.130"/>
      <line x1="146.219" y1="1629.130" x2="146.219" y2="1579.130"/>
      <line x1="147.219" y1="1629.130" x2="147.219" y2="1579.130"/>
      <line x1="148.219" y1="1629.130" x2="148.219" y2="1579.130"/>
      <line x1="149.219" y1="1629.130" x2="149.219" y2="1579.130"/>
      <line x1="150.219" y1="1629.130" x2="150.219" y2="1579.130"/>
      <line x1="151.219" y1="1629.130" x2="151.219" y2="1579.130"/>
      <line x1="152.219" y1="1629.130" x2="152.219" y2="1579.130"/>
      <line x1="153.219" y1="1629.130" x2="153.219" y2="1579.130"/>
      <line x1="154.219" y1="1629.130" x2="154.219" y2="1579.130"/>
      <line x1="155.219" y1="1629.130" x2="155.219" y2="1579.130"/>
      <line x1="156.219" y1="1629.130" x2="156.219" y2="1579.130"/>
      <line x1="157.219" y1="1629.130" x2="157.219" y2="1579.130"/>
      <line x1="158.219" y1="1629.130" x2="158.219" y2="1579.130"/>
      <line x1="36.219" y1="1579.030" x2="36.219" y2="1529.030"/>
      <line x1="37.219" y1="1579.030" x2="37.219" y2="1529.030"/>
      <line x1="38.219" y1="1579.030" x2="38.219" y2="1529.030"/>
      <line x1="39.219" y1="1579.030" x2="39.219" y2="1529.030"/>
      <line x1="40.219" y1="1579.030" x2="40.219" y2="1529.030"/>
      <line x1="41.219" y1="1579.030" x2="41.219" y2="1529.030"/>
      <line x1="42.219" y1="1579.030" x2="42.219" y2="1529.030"/>
      <line x1="43.219" y1="1579.030" x2="43.219" y2="1529.030"/>
      <line x1="44.219" y1="1579.030" x2="44.219" y2="1529.030"/>
      <line x1="45.219" y1="1579.030" x2="45.219" y2="1529.030"/>
      <line x1="46.219" y1="1579.030" x2="46.219" y2="1529.030"/>
      <line x1="47.219" y1="1579.030" x2="47.219" y2="1529.030"/>
      <line x1="48.219" y1="1579.030" x2="48.219" y2="1529.030"/>
      <line x1="49.219" y1="1579.030" x2="49.219" y2="1529.030"/>
      <line x1="50.219" y1="1579.030" x2="50.219" y2="1529.030"/>
      <line x1="51.219" y1="1579.030" x2="51.219" y2="1529.030"/>
      <line x1="52.219" y1="1579.030" x2="52.219" y2="1529.030"/>
      <line x1="53.219" y1="1579.030" x2="53.219" y2="1529.030"/>
      <line x1="54.219" y1="1579.030" x2="54.219" y2="1529.030"/>
      <line x1="55.219" y1="1579.030" x2="55.219" y2="1529.030"/>
      <line x1="56.219" y1="1579.030" x2="56.219" y2="1529.030"/>
      <line x1="57.219" y1="1579.030" x2="57.219" y2="1529.030"/>
      <line x1="58.219" y1="1579.030" x2="58.219" y2="1529.030"/>
      <line x1="59.219" y1="1579.030" x2="59.219" y2="1529.030"/>
      <line x1="60.219" y1="1579.030" x2="60.219" y2="1529.030"/>
      <line x1="61.219" y1="1579.030" x2="61.219" y2="1529.030"/>
      <line x1="62.219" y1="1579.030" x2="62.219" y2="1529.030"/>
      <line x1="63.219" y1="1579.030" x2="63.219" y2="1529.030"/>
      <line x1="64.219" y1="1579.030" x2="64.219" y2="1529.030"/>
      <line x1="65.219" y1="1579.030" x2="65.219" y2="1529.030"/>
      <line x1="66.219" y1="1579.030" x2="66.219" y2="1529.030"/>
      <line x1="67.219" y1="1579.030" x2="67.219" y2="1529.030"/>
      <line x1="68.219" y1="1579.030" x2="68.219" y2="1529.030"/>
      <line x1="69.219" y1="1579.030" x2="69.219" y2="1529.030"/>
      <line x1="70.219" y1="1579.030" x2="70.219" y2="1529.030"/>
      <line x1="71.219" y1="1579.030" x2="71.219" y2="1529.030"/>
      <line x1="72.219" y1="1579.030" x2="72.219" y2="1529.030"/>
      <line x1="73.219" y1="1579.030" x2="73.219" y2="1529.030"/>
      <line x1="74.219" y1="1579.030" x2="74.219" y2="1529.030"/>
      <line x1="75.219" y1="1579.030" x2="75.219" y2="1529.030"/>
      <line x1="76.219" y1="1579.030" x2="76.219" y2="1529.030"/>
      <line x1="77.219" y1="1579.030" x2="77.219" y2="1529.030"/>
      <line x1="78.219" y1="1579.030" x2="78.219" y2="1529.030"/>
      <line x1="79.219" y1="1579.030" x2="79.219" y2="1529.030"/>
      <line x1="80.219" y1="1579.030" x2="80.219" y2="1529.030"/>
      <line x1="81.219" y1="1579.030" x2="81.219" y2="1529.030"/>
      <line x1="82.219" y1="1579.030" x2="82.219" y2="1529.030"/>
      <line x1="83.219" y1="1579.030" x2="83.219" y2="1529.030"/>
      <line x1="84.219" y1="1579.030" x2="84.219" y2="1529.030"/>
      <line x1="85.219" y1="1579.030" x2="85.219" y2="1529.030"/>
      <line x1="86.219" y1="1579.030" x2="86.219" y2="1529.030"/>
      <line x1="87.219" y1="1579.030" x2="87.219" y2="1529.030"/>
      <line x1="88.219" y1="1579.030" x2="88.219" y2="1529.030"/>
      <line x1="89.219" y1="1579.030" x2="89.219" y2="1529.030"/>
      <line x1="90.219" y1="1579.030" x2="90.219" y2="1529.030"/>
      <line x1="91.219" y1="1579.030" x2="91.219" y2="1529.030"/>
      <line x1="92.219" y1="1579.030" x2="92.219" y2="1529.030"/>
      <line x1="93.219" y1="1579.030" x2="93.219" y2="1529.030"/>
      <line x1="94.219" y1="1579.030" x2="94.219" y2="1529.030"/>
      <line x1="95.219" y1="1579.030" x2="95.219" y2="1529.030"/>
      <line x1="96.219" y1="1579.030" x2="96.219" y2="1529.030"/>
      <line x1="97.219" y1="1579.030" x2="97.219" y2="1529.030"/>
      <line x1="98.219" y1="1579.030" x2="98.219" y2="1529.030"/>
      <line x1="99.219" y1="1579.030" x2="99.219" y2="1529.030"/>
      <line x1="100.219" y1="1579.030" x2="100.219" y2="1529.030"/>
      <line x1="101.219" y1="1579.030" x2="101.219" y2="1529.030"/>
      <line x1="102.219" y1="1579.030" x2="102.219" y2="1529.030"/>
      <line x1="103.219" y1="1579.030" x2="103.219" y2="1529.030"/>
      <line x1="104.219" y1="1579.030" x2="104.219" y2="1529.030"/>
      <line x1="105.219" y1="1579.030" x2="105.219" y2="1529.030"/>
      <line x1="106.219" y1="1579.030" x2="106.219" y2="1529.030"/>
      <line x1="107.219" y1="1579.030" x2="107.219" y2="1529.030"/>
      <line x1="108.219" y1="1579.030" x2="108.219" y2="1529.030"/>
      <line x1="109.219" y1="1579.030" x2="109.219" y2="1529.030"/>
      <line x1="110.219" y1="1579.030" x2="110.219" y2="1529.030"/>
      <line x1="111.219" y1="1579.030" x2="111.219" y2="1529.030"/>
      <line x1="112.219" y1="1579.030" x2="112.219" y2="1529.030"/>
      <line x1="113.219" y1="1579.030" x2="113.219" y2="1529.030"/>
      <line x1="114.219" y1="1579.030" x2="114.219" y2="1529.030"/>
      <line x1="115.219" y1="1579.030" x2="115.219" y2="1529.030"/>
      <line x1="116.219" y1="1579.030" x2="116.219" y2="1529.030"/>
      <line x1="117.219" y1="1579.030" x2="117.219" y2="1529.030"/>
      <line x1="118.219" y1="1579.030" x2="118.219" y2="1529.030"/>
      <line x1="119.219" y1="1579.030" x2="119.219" y2="1529.030"/>
      <line x1="120.219" y1="1579.030" x2="120.219" y2="1529.030"/>
      <line x1="121.219" y1="1579.030" x2="121.219" y2="1529.030"/>
      <line x1="122.219" y1="1579.030" x2="122.219" y2="1529.030"/>
      <line x1="123.219" y1="1579.030" x2="123.219" y2="1529.030"/>
      <line x1="124.219" y1="1579.030" x2="124.219" y2="1529.030"/>
      <line x1="125.219" y1="1579.030" x2="125.219" y2="1529.030"/>
      <line x1="126.219" y1="1579.030" x2="126.219" y2="1529.030"/>
      <line x1="127.219" y1="1579.030" x2="127.219" y2="1529.030"/>
      <line x1="128.219" y1="1579.030" x2="128.219" y2="1529.030"/>
      <line x1="129.219" y1="1579.030" x2="129.219" y2="1529.030"/>
      <line x1="130.219" y1="1579.030" x2="130.219" y2="1529.030"/>
      <line x1="131.219" y1="1579.030" x2="131.219" y2="1529.030"/>
      <line x1="132.219" y1="1579.030" x2="132.219" y2="1529.030"/>
      <line x1="133.219" y1="1579.030" x2="133.219" y2="1529.030"/>
      <line x1="134.219" y1="1579.030" x2="134.219" y2="1529.030"/>
      <line x1="135.219" y1="1579.030" x2="135.219" y2="1529.030"/>
      <line x1="136.219" y1="1579.030" x2="136.219" y2="1529.030"/>
      <line x1="137.219" y1="1579.030" x2="137.219" y2="1529.030"/>
      <line x1="138.219" y1="1579.030" x2="138.219" y2="1529.030"/>
      <line x1="139.219" y1="1579.030" x2="139.219" y2="1529.030"/>
      <line x1="140.219" y1="1579.030" x2="140.219" y2="1529.030"/>
      <line x1="141.219" y1="1579.030" x2="141.219" y2="1529.030"/>
      <line x1="142.219" y1="1579.030" x2="142.219" y2="1529.030"/>
      <line x1="143.219" y1="1579.030" x2="143.219" y2="1529.030"/>
      <line x1="144.219" y1="1579.030" x2="144.219" y2="1529.030"/>
      <line x1="145.219" y1="1579.030" x2="145.219" y2="1529.030"/>
      <line x1="146.219" y1="1579.030" x2="146.219" y2="1529.030"/>
      <line x1="147.219" y1="1579.030" x2="147.219" y2="1529.030"/>
      <line x1="148.219" y1="1579.030" x2="148.219" y2="1529.030"/>
      <line x1="149.219" y1="1579.030" x2="149.219" y2="1529.030"/>
      <line x1="150.219" y1="1579.030" x2="150.219" y2="1529.030"/>
      <line x1="151.219" y1="1579.030" x2="151.219" y2="1529.030"/>
      <line x1="152.219" y1="1579.030" x2="152.219" y2="1529.030"/>
      <line x1="153.219" y1="1579.030" x2="153.219" y2="1529.030"/>
      <line x1="154.219" y1="1579.030" x2="154.219" y2="1529.030"/>
      <line x1="155.219" y1="1579.030" x2="155.219" y2="1529.030"/>
      <line x1="156.219" y1="1579.030" x2="156.219" y2="1529.030"/>
      <line x1="157.219" y1="1579.030" x2="157.219" y2="1529.030"/>
      <line x1="158.219" y1="1579.030" x2="158.219" y2="1529.030"/>
      <line x1="37.219" y1="1528.930" x2="37.219" y2="1525.229"/>
      <line x1="59.219" y1="1528.930" x2="59.219" y2="1525.229"/>
      <line x1="60.219" y1="1528.930" x2="60.219" y2="1525.229"/>
      <line x1="36.219" y1="1528.930" x2="36.219" y2="1525.229"/>
      <line x1="39.219" y1="1528.930" x2="39.219" y2="1525.229"/>
      <line x1="40.219" y1="1528.930" x2="40.219" y2="1525.229"/>
      <line x1="42.219" y1="1528.930" x2="42.219" y2="1525.229"/>
      <line x1="43.219" y1="1528.930" x2="43.219" y2="1525.229"/>
      <line x1="45.219" y1="1528.930" x2="45.219" y2="1525.229"/>
      <line x1="46.219" y1="1528.930" x2="46.219" y2="1525.229"/>
      <line x1="48.219" y1="1528.930" x2="48.219" y2="1525.229"/>
      <line x1="53.219" y1="1528.930" x2="53.219" y2="1525.229"/>
      <line x1="56.219" y1="1528.930" x2="56.219" y2="1525.229"/>
      <line x1="51.219" y1="1528.930" x2="51.219" y2="1525.229"/>
      <line x1="57.219" y1="1528.930" x2="57.219" y2="1525.229"/>
      <line x1="54.219" y1="1528.930" x2="54.219" y2="1525.229"/>
      <line x1="41.219" y1="1528.930" x2="41.219" y2="1525.229"/>
      <line x1="44.219" y1="1528.930" x2="44.219" y2="1525.229"/>
      <line x1="47.219" y1="1528.930" x2="47.219" y2="1525.229"/>
      <line x1="50.219" y1="1528.930" x2="50.219" y2="1525.229"/>
      <line x1="49.219" y1="1528.930" x2="49.219" y2="1525.229"/>
      <line x1="52.219" y1="1528.930" x2="52.219" y2="1525.229"/>
      <line x1="55.219" y1="1528.930" x2="55.219" y2="1525.229"/>
      <line x1="58.219" y1="1528.930" x2="58.219" y2="1525.229"/>
      <line x1="38.219" y1="1528.930" x2="38.219" y2="1525.229"/>
      <line x1="64.219" y1="1528.930" x2="64.219" y2="1525.229"/>
      <line x1="75.219" y1="1528.930" x2="75.219" y2="1525.229"/>
      <line x1="74.219" y1="1528.930" x2="74.219" y2="1525.229"/>
      <line x1="73.219" y1="1528.930" x2="73.219" y2="1525.229"/>
      <line x1="72.219" y1="1528.930" x2="72.219" y2="1525.229"/>
      <line x1="71.219" y1="1528.930" x2="71.219" y2="1525.229"/>
      <line x1="70.219" y1="1528.930" x2="70.219" y2="1525.229"/>
      <line x1="69.219" y1="1528.930" x2="69.219" y2="1525.229"/>
      <line x1="68.219" y1="1528.930" x2="68.219" y2="1525.229"/>
      <line x1="67.219" y1="1528.930" x2="67.219" y2="1525.229"/>
      <line x1="66.219" y1="1528.930" x2="66.219" y2="1525.229"/>
      <line x1="65.219" y1="1528.930" x2="65.219" y2="1525.229"/>
      <line x1="76.219" y1="1528.930" x2="76.219" y2="1525.229"/>
      <line x1="63.219" y1="1528.930" x2="63.219" y2="1525.229"/>
      <line x1="62.219" y1="1528.930" x2="62.219" y2="1525.229"/>
      <line x1="61.219" y1="1528.930" x2="61.219" y2="1525.229"/>
      <line x1="85.219" y1="1528.930" x2="85.219" y2="1525.229"/>
      <line x1="84.219" y1="1528.930" x2="84.219" y2="1525.229"/>
      <line x1="83.219" y1="1528.930" x2="83.219" y2="1525.229"/>
      <line x1="82.219" y1="1528.930" x2="82.219" y2="1525.229"/>
      <line x1="81.219" y1="1528.930" x2="81.219" y2="1525.229"/>
      <line x1="80.219" y1="1528.930" x2="80.219" y2="1525.229"/>
      <line x1="79.219" y1="1528.930" x2="79.219" y2="1525.229"/>
      <line x1="78.219" y1="1528.930" x2="78.219" y2="1525.229"/>
      <line x1="77.219" y1="1528.930" x2="77.219" y2="1525.229"/>
      <line x1="135.219" y1="1528.930" x2="135.219" y2="1525.229"/>
      <line x1="109.219" y1="1528.930" x2="109.219" y2="1525.229"/>
      <line x1="120.219" y1="1528.930" x2="120.219" y2="1525.229"/>
      <line x1="119.219" y1="1528.930" x2="119.219" y2="1525.229"/>
      <line x1="118.219" y1="1528.930" x2="118.219" y2="1525.229"/>
      <line x1="117.219" y1="1528.930" x2="117.219" y2="1525.229"/>
      <line x1="116.219" y1="1528.930" x2="116.219" y2="1525.229"/>
      <line x1="115.219" y1="1528.930" x2="115.219" y2="1525.229"/>
      <line x1="114.219" y1="1528.930" x2="114.219" y2="1525.229"/>
      <line x1="113.219" y1="1528.930" x2="113.219" y2="1525.229"/>
      <line x1="112.219" y1="1528.930" x2="112.219" y2="1525.229"/>
      <line x1="111.219" y1="1528.930" x2="111.219" y2="1525.229"/>
      <line x1="110.219" y1="1528.930" x2="110.219" y2="1525.229"/>
      <line x1="121.219" y1="1528.930" x2="121.219" y2="1525.229"/>
      <line x1="108.219" y1="1528.930" x2="108.219" y2="1525.229"/>
      <line x1="107.219" y1="1528.930" x2="107.219" y2="1525.229"/>
      <line x1="106.219" y1="1528.930" x2="106.219" y2="1525.229"/>
      <line x1="105.219" y1="1528.930" x2="105.219" y2="1525.229"/>
      <line x1="104.219" y1="1528.930" x2="104.219" y2="1525.229"/>
      <line x1="103.219" y1="1528.930" x2="103.219" y2="1525.229"/>
      <line x1="102.219" y1="1528.930" x2="102.219" y2="1525.229"/>
      <line x1="101.219" y1="1528.930" x2="101.219" y2="1525.229"/>
      <line x1="100.219" y1="1528.930" x2="100.219" y2="1525.229"/>
      <line x1="99.219" y1="1528.930" x2="99.219" y2="1525.229"/>
      <line x1="132.219" y1="1528.930" x2="132.219" y2="1525.229"/>
      <line x1="134.219" y1="1528.930" x2="134.219" y2="1525.229"/>
      <line x1="133.219" y1="1528.930" x2="133.219" y2="1525.229"/>
      <line x1="131.219" y1="1528.930" x2="131.219" y2="1525.229"/>
      <line x1="130.219" y1="1528.930" x2="130.219" y2="1525.229"/>
      <line x1="129.219" y1="1528.930" x2="129.219" y2="1525.229"/>
      <line x1="128.219" y1="1528.930" x2="128.219" y2="1525.229"/>
      <line x1="127.219" y1="1528.930" x2="127.219" y2="1525.229"/>
      <line x1="126.219" y1="1528.930" x2="126.219" y2="1525.229"/>
      <line x1="125.219" y1="1528.930" x2="125.219" y2="1525.229"/>
      <line x1="124.219" y1="1528.930" x2="124.219" y2="1525.229"/>
      <line x1="123.219" y1="1528.930" x2="123.219" y2="1525.229"/>
      <line x1="122.219" y1="1528.930" x2="122.219" y2="1525.229"/>
      <line x1="87.219" y1="1528.930" x2="87.219" y2="1525.229"/>
      <line x1="97.219" y1="1528.930" x2="97.219" y2="1525.229"/>
      <line x1="96.219" y1="1528.930" x2="96.219" y2="1525.229"/>
      <line x1="95.219" y1="1528.930" x2="95.219" y2="1525.229"/>
      <line x1="94.219" y1="1528.930" x2="94.219" y2="1525.229"/>
      <line x1="93.219" y1="1528.930" x2="93.219" y2="1525.229"/>
      <line x1="92.219" y1="1528.930" x2="92.219" y2="1525.229"/>
      <line x1="91.219" y1="1528.930" x2="91.219" y2="1525.229"/>
      <line x1="90.219" y1="1528.930" x2="90.219" y2="1525.229"/>
      <line x1="89.219" y1="1528.930" x2="89.219" y2="1525.229"/>
      <line x1="88.219" y1="1528.930" x2="88.219" y2="1525.229"/>
      <line x1="98.219" y1="1528.930" x2="98.219" y2="1525.229"/>
      <line x1="86.219" y1="1528.930" x2="86.219" y2="1525.229"/>
      <line x1="141.219" y1="1528.930" x2="141.219" y2="1525.229"/>
      <line x1="142.219" y1="1528.930" x2="142.219" y2="1525.229"/>
      <line x1="144.219" y1="1528.930" x2="144.219" y2="1525.229"/>
      <line x1="147.219" y1="1528.930" x2="147.219" y2="1525.229"/>
      <line x1="149.219" y1="1528.930" x2="149.219" y2="1525.229"/>
      <line x1="150.219" y1="1528.930" x2="150.219" y2="1525.229"/>
      <line x1="152.219" y1="1528.930" x2="152.219" y2="1525.229"/>
      <line x1="153.219" y1="1528.930" x2="153.219" y2="1525.229"/>
      <line x1="154.219" y1="1528.930" x2="154.219" y2="1525.229"/>
      <line x1="155.219" y1="1528.930" x2="155.219" y2="1525.229"/>
      <line x1="156.219" y1="1528.930" x2="156.219" y2="1525.229"/>
      <line x1="157.219" y1="1528.930" x2="157.219" y2="1525.229"/>
      <line x1="158.219" y1="1528.930" x2="158.219" y2="1525.229"/>
      <line x1="138.219" y1="1528.930" x2="138.219" y2="1525.229"/>
      <line x1="139.219" y1="1528.930" x2="139.219" y2="1525.229"/>
      <line x1="136.219" y1="1528.930" x2="136.219" y2="1525.229"/>
      <line x1="137.219" y1="1528.930" x2="137.219" y2="1525.229"/>
      <line x1="140.219" y1="1528.930" x2="140.219" y2="1525.229"/>
      <line x1="143.219" y1="1528.930" x2="143.219" y2="1525.229"/>
      <line x1="146.219" y1="1528.930" x2="146.219" y2="1525.229"/>
      <line x1="145.219" y1="1528.930" x2="145.219" y2="1525.229"/>
      <line x1="148.219" y1="1528.930" x2="148.219" y2="1525.229"/>
      <line x1="151.219" y1="1528.930" x2="151.219" y2="1525.229"/>
      <line x1="428.707" y1="1679.230" x2="428.707" y2="1629.230"/>
      <line x1="429.707" y1="1679.230" x2="429.707" y2="1629.230"/>
      <line x1="430.707" y1="1679.230" x2="430.707" y2="1629.230"/>
      <line x1="431.707" y1="1679.230" x2="431.707" y2="1629.230"/>
      <line x1="432.707" y1="1679.230" x2="432.707" y2="1629.230"/>
      <line x1="433.707" y1="1679.230" x2="433.707" y2="1629.230"/>
      <line x1="434.707" y1="1679.230" x2="434.707" y2="1629.230"/>
      <line x1="435.707" y1="1679.230" x2="435.707" y2="1629.230"/>
      <line x1="436.707" y1="1679.230" x2="436.707" y2="1629.230"/>
      <line x1="437.707" y1="1679.230" x2="437.707" y2="1629.230"/>
      <line x1="438.707" y1="1679.230" x2="438.707" y2="1629.230"/>
      <line x1="439.707" y1="1679.230" x2="439.707" y2="1629.230"/>
      <line x1="440.707" y1="1679.230" x2="440.707" y2="1629.230"/>
      <line x1="428.707" y1="1629.130" x2="428.707" y2="1579.130"/>
      <line x1="429.707" y1="1629.130" x2="429.707" y2="1579.130"/>
      <line x1="430.707" y1="1629.130" x2="430.707" y2="1579.130"/>
      <line x1="431.707" y1="1629.130" x2="431.707" y2="1579.130"/>
      <line x1="432.707" y1="1629.130" x2="432.707" y2="1579.130"/>
      <line x1="433.707" y1="1629.130" x2="433.707" y2="1579.130"/>
      <line x1="434.707" y1="1629.130" x2="434.707" y2="1579.130"/>
      <line x1="435.707" y1="1629.130" x2="435.707" y2="1579.130"/>
      <line x1="436.707" y1="1629.130" x2="436.707" y2="1579.130"/>
      <line x1="437.707" y1="1629.130" x2="437.707" y2="1579.130"/>
      <line x1="438.707" y1="1629.130" x2="438.707" y2="1579.130"/>
      <line x1="439.707" y1="1629.130" x2="439.707" y2="1579.130"/>
      <line x1="440.707" y1="1629.130" x2="440.707" y2="1579.130"/>
      <line x1="428.707" y1="1579.030" x2="428.707" y2="1529.030"/>
      <line x1="429.707" y1="1579.030" x2="429.707" y2="1529.030"/>
      <line x1="430.707" y1="1579.030" x2="430.707" y2="1529.030"/>
      <line x1="431.707" y1="1579.030" x2="431.707" y2="1529.030"/>
      <line x1="432.707" y1="1579.030" x2="432.707" y2="1529.030"/>
      <line x1="433.707" y1="1579.030" x2="433.707" y2="1529.030"/>
      <line x1="434.707" y1="1579.030" x2="434.707" y2="1529.030"/>
      <line x1="435.707" y1="1579.030" x2="435.707" y2="1529.030"/>
      <line x1="436.707" y1="1579.030" x2="436.707" y2="1529.030"/>
      <line x1="437.707" y1="1579.030" x2="437.707" y2="1529.030"/>
      <line x1="438.707" y1="1579.030" x2="438.707" y2="1529.030"/>
      <line x1="439.707" y1="1579.030" x2="439.707" y2="1529.030"/>
      <line x1="440.707" y1="1579.030" x2="440.707" y2="1529.030"/>
      <line x1="428.707" y1="1528.930" x2="428.707" y2="1525.229"/>
      <line x1="429.707" y1="1528.930" x2="429.707" y2="1525.229"/>
      <line x1="430.707" y1="1528.930" x2="430.707" y2="1525.229"/>
      <line x1="431.707" y1="1528.930" x2="431.707" y2="1525.229"/>
      <line x1="432.707" y1="1528.930" x2="432.707" y2="1525.229"/>
      <line x1="433.707" y1="1528.930" x2="433.707" y2="1525.229"/>
      <line x1="434.707" y1="1528.930" x2="434.707" y2="1525.229"/>
      <line x1="435.707" y1="1528.930" x2="435.707" y2="1525.229"/>
      <line x1="436.707" y1="1528.930" x2="436.707" y2="1525.229"/>
      <line x1="437.707" y1="1528.930" x2="437.707" y2="1525.229"/>
      <line x1="438.707" y1="1528.930" x2="438.707" y2="1525.229"/>
      <line x1="439.707" y1="1528.930" x2="439.707" y2="1525.229"/>
      <line x1="440.707" y1="1528.930" x2="440.707" y2="1525.229"/>
      <line x1="159.644" y1="1679.230" x2="159.644" y2="1629.230"/>
      <line x1="160.644" y1="1679.230" x2="160.644" y2="1629.230"/>
      <line x1="161.644" y1="1679.230" x2="161.644" y2="1629.230"/>
      <line x1="162.644" y1="1679.230" x2="162.644" y2="1629.230"/>
      <line x1="163.644" y1="1679.230" x2="163.644" y2="1629.230"/>
      <line x1="164.644" y1="1679.230" x2="164.644" y2="1629.230"/>
      <line x1="165.644" y1="1679.230" x2="165.644" y2="1629.230"/>
      <line x1="166.644" y1="1679.230" x2="166.644" y2="1629.230"/>
      <line x1="167.644" y1="1679.230" x2="167.644" y2="1629.230"/>
      <line x1="168.644" y1="1679.230" x2="168.644" y2="1629.230"/>
      <line x1="169.644" y1="1679.230" x2="169.644" y2="1629.230"/>
      <line x1="170.644" y1="1679.230" x2="170.644" y2="1629.230"/>
      <line x1="171.644" y1="1679.230" x2="171.644" y2="1629.230"/>
      <line x1="159.644" y1="1629.130" x2="159.644" y2="1579.130"/>
      <line x1="160.644" y1="1629.130" x2="160.644" y2="1579.130"/>
      <line x1="161.644" y1="1629.130" x2="161.644" y2="1579.130"/>
      <line x1="162.644" y1="1629.130" x2="162.644" y2="1579.130"/>
      <line x1="163.644" y1="1629.130" x2="163.644" y2="1579.130"/>
      <line x1="164.644" y1="1629.130" x2="164.644" y2="1579.130"/>
      <line x1="165.644" y1="1629.130" x2="165.644" y2="1579.130"/>
      <line x1="166.644" y1="1629.130" x2="166.644" y2="1579.130"/>
      <line x1="167.644" y1="1629.130" x2="167.644" y2="1579.130"/>
      <line x1="168.644" y1="1629.130" x2="168.644" y2="1579.130"/>
      <line x1="169.644" y1="1629.130" x2="169.644" y2="1579.130"/>
      <line x1="170.644" y1="1629.130" x2="170.644" y2="1579.130"/>
      <line x1="171.644" y1="1629.130" x2="171.644" y2="1579.130"/>
      <line x1="159.644" y1="1579.030" x2="159.644" y2="1529.030"/>
      <line x1="160.644" y1="1579.030" x2="160.644" y2="1529.030"/>
      <line x1="161.644" y1="1579.030" x2="161.644" y2="1529.030"/>
      <line x1="162.644" y1="1579.030" x2="162.644" y2="1529.030"/>
      <line x1="163.644" y1="1579.030" x2="163.644" y2="1529.030"/>
      <line x1="164.644" y1="1579.030" x2="164.644" y2="1529.030"/>
      <line x1="165.644" y1="1579.030" x2="165.644" y2="1529.030"/>
      <line x1="166.644" y1="1579.030" x2="166.644" y2="1529.030"/>
      <line x1="167.644" y1="1579.030" x2="167.644" y2="1529.030"/>
      <line x1="168.644" y1="1579.030" x2="168.644" y2="1529.030"/>
      <line x1="169.644" y1="1579.030" x2="169.644" y2="1529.030"/>
      <line x1="170.644" y1="1579.030" x2="170.644" y2="1529.030"/>
      <line x1="171.644" y1="1579.030" x2="171.644" y2="1529.030"/>
      <line x1="159.644" y1="1528.930" x2="159.644" y2="1525.229"/>
      <line x1="160.644" y1="1528.930" x2="160.644" y2="1525.229"/>
      <line x1="161.644" y1="1528.930" x2="161.644" y2="1525.229"/>
      <line x1="162.644" y1="1528.930" x2="162.644" y2="1525.229"/>
      <line x1="163.644" y1="1528.930" x2="163.644" y2="1525.229"/>
      <line x1="164.644" y1="1528.930" x2="164.644" y2="1525.229"/>
      <line x1="165.644" y1="1528.930" x2="165.644" y2="1525.229"/>
      <line x1="166.644" y1="1528.930" x2="166.644" y2="1525.229"/>
      <line x1="167.644" y1="1528.930" x2="167.644" y2="1525.229"/>
      <line x1="168.644" y1="1528.930" x2="168.644" y2="1525.229"/>
      <line x1="169.644" y1="1528.930" x2="169.644" y2="1525.229"/>
      <line x1="170.644" y1="1528.930" x2="170.644" y2="1525.229"/>
      <line x1="171.644" y1="1528.930" x2="171.644" y2="1525.229"/>
    </g>
    <g stroke="#1976D2" stroke-width="0.4">
      <polyline points="430.764,1682.729 567.495,1682.729 567.495,1521.729 430.764,1521.729" fill="none"/>
      <polyline points="430.764,1521.729 424.300,1521.729 424.300,1682.729 430.764,1682.729" fill="none"/>
      <polyline points="430.764,1681.730 566.495,1681.730 566.495,1522.729 430.764,1522.729" fill="none"/>
      <polyline points="430.764,1522.729 425.300,1522.729 425.300,1681.730 430.764,1681.730" fill="none"/>
      <polyline points="430.764,1680.730 565.495,1680.730 565.495,1523.729 430.764,1523.729" fill="none"/>
      <polyline points="430.764,1523.729 426.300,1523.729 426.300,1680.730 430.764,1680.730" fill="none"/>
      <polyline points="430.764,1679.729 564.495,1679.729 564.495,1524.729 430.764,1524.729" fill="none"/>
      <polyline points="430.764,1524.729 427.300,1524.729 427.300,1679.729 430.764,1679.729" fill="none"/>
      <polyline points="169.236,1521.729 32.505,1521.729 32.505,1682.729 169.236,1682.729" fill="none"/>
      <polyline points="169.236,1682.729 175.700,1682.729 175.700,1521.729 169.236,1521.729" fill="none"/>
      <polyline points="169.236,1522.729 33.505,1522.729 33.505,1681.730 169.236,1681.730" fill="none"/>
      <polyline points="169.236,1681.730 174.700,1681.730 174.700,1522.729 169.236,1522.729" fill="none"/>
      <polyline points="169.236,1523.729 34.505,1523.729 34.505,1680.730 169.236,1680.730" fill="none"/>
      <polyline points="169.236,1680.730 173.700,1680.730 173.700,1523.729 169.236,1523.729" fill="none"/>
      <polyline points="169.236,1524.729 35.505,1524.729 35.505,1679.729 169.236,1679.729" fill="none"/>
      <polyline points="169.236,1679.729 172.700,1679.729 172.700,1524.729 169.236,1524.729" fill="none"/>
    </g>
    <g stroke="#C62828" stroke-width="0.4" fill="none">
      <polygon points="233.333,1531.628 234.065,1530.896 234.333,1529.896 234.065,1528.896 233.333,1528.164 232.333,1527.896 231.333,1528.164 230.601,1528.896 230.333,1529.896 230.601,1530.896 231.333,1531.628 232.333,1531.896"/>
      <polygon points="253.333,1531.628 254.065,1530.896 254.333,1529.896 254.065,1528.896 253.333,1528.164 252.333,1527.896 251.333,1528.164 250.601,1528.896 250.333,1529.896 250.601,1530.896 251.333,1531.628 252.333,1531.896"/>
      <polygon points="293.333,1531.628 294.065,1530.896 294.333,1529.896 294.065,1528.896 293.333,1528.164 292.333,1527.896 291.333,1528.164 290.601,1528.896 290.333,1529.896 290.601,1530.896 291.333,1531.628 292.333,1531.896"/>
      <polygon points="393.333,1531.628 394.065,1530.896 394.333,1529.896 394.065,1528.896 393.333,1528.164 392.333,1527.896 391.333,1528.164 390.601,1528.896 390.333,1529.896 390.601,1530.896 391.333,1531.628 392.333,1531.896"/>
      <polygon points="373.333,1531.628 374.065,1530.896 374.333,1529.896 374.065,1528.896 373.333,1528.164 372.333,1527.896 371.333,1528.164 370.601,1528.896 370.333,1529.896 370.601,1530.896 371.333,1531.628 372.333,1531.896"/>
      <polygon points="353.333,1531.628 354.065,1530.896 354.333,1529.896 354.065,1528.896 353.333,1528.164 352.333,1527.896 351.333,1528.164 350.601,1528.896 350.333,1529.896 350.601,1530.896 351.333,1531.628 352.333,1531.896"/>
      <polygon points="273.333,1531.628 274.065,1530.896 274.333,1529.896 274.065,1528.896 273.333,1528.164 272.333,1527.896 271.333,1528.164 270.601,1528.896 270.333,1529.896 270.601,1530.896 271.333,1531.628 272.333,1531.896"/>
      <polygon points="313.333,1531.628 314.065,1530.896 314.333,1529.896 314.065,1528.896 313.333,1528.164 312.333,1527.896 311.333,1528.164 310.601,1528.896 310.333,1529.896 310.601,1530.896 311.333,1531.628 312.333,1531.896"/>
      <polygon points="333.333,1531.628 334.065,1530.896 334.333,1529.896 334.065,1528.896 333.333,1528.164 332.333,1527.896 331.333,1528.164 330.601,1528.896 330.333,1529.896 330.601,1530.896 331.333,1531.628 332.333,1531.896"/>
      <polygon points="213.333,1531.628 214.065,1530.896 214.333,1529.896 214.065,1528.896 213.333,1528.164 212.333,1527.896 211.333,1528.164 210.601,1528.896 210.333,1529.896 210.601,1530.896 211.333,1531.628 212.333,1531.896"/>
      <polygon points="273.333,1551.628 274.065,1550.896 274.333,1549.896 274.065,1548.896 273.333,1548.164 272.333,1547.896 271.333,1548.164 270.601,1548.896 270.333,1549.896 270.601,1550.896 271.333,1551.628 272.333,1551.896"/>
      <polygon points="333.333,1551.628 334.065,1550.896 334.333,1549.896 334.065,1548.896 333.333,1548.164 332.333,1547.896 331.333,1548.164 330.601,1548.896 330.333,1549.896 330.601,1550.896 331.333,1551.628 332.333,1551.896"/>
      <polygon points="293.333,1551.628 294.065,1550.896 294.333,1549.896 294.065,1548.896 293.333,1548.164 292.333,1547.896 291.333,1548.164 290.601,1548.896 290.333,1549.896 290.601,1550.896 291.333,1551.628 292.333,1551.896"/>
      <polygon points="253.333,1551.628 254.065,1550.896 254.333,1549.896 254.065,1548.896 253.333,1548.164 252.333,1547.896 251.333,1548.164 250.601,1548.896 250.333,1549.896 250.601,1550.896 251.333,1551.628 252.333,1551.896"/>
      <polygon points="353.333,1551.628 354.065,1550.896 354.333,1549.896 354.065,1548.896 353.333,1548.164 352.333,1547.896 351.333,1548.164 350.601,1548.896 350.333,1549.896 350.601,1550.896 351.333,1551.628 352.333,1551.896"/>
      <polygon points="373.333,1551.628 374.065,1550.896 374.333,1549.896 374.065,1548.896 373.333,1548.164 372.333,1547.896 371.333,1548.164 370.601,1548.896 370.333,1549.896 370.601,1550.896 371.333,1551.628 372.333,1551.896"/>
      <polygon points="393.333,1551.628 394.065,1550.896 394.333,1549.896 394.065,1548.896 393.333,1548.164 392.333,1547.896 391.333,1548.164 390.601,1548.896 390.333,1549.896 390.601,1550.896 391.333,1551.628 392.333,1551.896"/>
      <polygon points="313.333,1551.628 314.065,1550.896 314.333,1549.896 314.065,1548.896 313.333,1548.164 312.333,1547.896 311.333,1548.164 310.601,1548.896 310.333,1549.896 310.601,1550.896 311.333,1551.628 312.333,1551.896"/>
      <polygon points="213.333,1551.628 214.065,1550.896 214.333,1549.896 214.065,1548.896 213.333,1548.164 212.333,1547.896 211.333,1548.164 210.601,1548.896 210.333,1549.896 210.601,1550.896 211.333,1551.628 212.333,1551.896"/>
      <polygon points="233.333,1551.628 234.065,1550.896 234.333,1549.896 234.065,1548.896 233.333,1548.164 232.333,1547.896 231.333,1548.164 230.601,1548.896 230.333,1549.896 230.601,1550.896 231.333,1551.628 232.333,1551.896"/>
      <polygon points="253.333,1571.628 254.065,1570.896 254.333,1569.896 254.065,1568.896 253.333,1568.164 252.333,1567.896 251.333,1568.164 250.601,1568.896 250.333,1569.896 250.601,1570.896 251.333,1571.628 252.333,1571.896"/>
      <polygon points="333.333,1571.628 334.065,1570.896 334.333,1569.896 334.065,1568.896 333.333,1568.164 332.333,1567.896 331.333,1568.164 330.601,1568.896 330.333,1569.896 330.601,1570.896 331.333,1571.628 332.333,1571.896"/>
      <polygon points="273.333,1571.628 274.065,1570.896 274.333,1569.896 274.065,1568.896 273.333,1568.164 272.333,1567.896 271.333,1568.164 270.601,1568.896 270.333,1569.896 270.601,1570.896 271.333,1571.628 272.333,1571.896"/>
      <polygon points="233.333,1571.628 234.065,1570.896 234.333,1569.896 234.065,1568.896 233.333,1568.164 232.333,1567.896 231.333,1568.164 230.601,1568.896 230.333,1569.896 230.601,1570.896 231.333,1571.628 232.333,1571.896"/>
      <polygon points="353.333,1571.628 354.065,1570.896 354.333,1569.896 354.065,1568.896 353.333,1568.164 352.333,1567.896 351.333,1568.164 350.601,1568.896 350.333,1569.896 350.601,1570.896 351.333,1571.628 352.333,1571.896"/>
      <polygon points="393.333,1571.628 394.065,1570.896 394.333,1569.896 394.065,1568.896 393.333,1568.164 392.333,1567.896 391.333,1568.164 390.601,1568.896 390.333,1569.896 390.601,1570.896 391.333,1571.628 392.333,1571.896"/>
      <polygon points="313.333,1571.628 314.065,1570.896 314.333,1569.896 314.065,1568.896 313.333,1568.164 312.333,1567.896 311.333,1568.164 310.601,1568.896 310.333,1569.896 310.601,1570.896 311.333,1571.628 312.333,1571.896"/>
      <polygon points="213.333,1571.628 214.065,1570.896 214.333,1569.896 214.065,1568.896 213.333,1568.164 212.333,1567.896 211.333,1568.164 210.601,1568.896 210.333,1569.896 210.601,1570.896 211.333,1571.628 212.333,1571.896"/>
      <polygon points="293.333,1571.628 294.065,1570.896 294.333,1569.896 294.065,1568.896 293.333,1568.164 292.333,1567.896 291.333,1568.164 290.601,1568.896 290.333,1569.896 290.601,1570.896 291.333,1571.628 292.333,1571.896"/>
      <polygon points="373.333,1571.628 374.065,1570.896 374.333,1569.896 374.065,1568.896 373.333,1568.164 372.333,1567.896 371.333,1568.164 370.601,1568.896 370.333,1569.896 370.601,1570.896 371.333,1571.628 372.333,1571.896"/>
      <polygon points="373.333,1591.628 374.065,1590.896 374.333,1589.896 374.065,1588.896 373.333,1588.164 372.333,1587.896 371.333,1588.164 370.601,1588.896 370.333,1589.896 370.601,1590.896 371.333,1591.628 372.333,1591.896"/>
      <polygon points="313.333,1591.628 314.065,1590.896 314.333,1589.896 314.065,1588.896 313.333,1588.164 312.333,1587.896 311.333,1588.164 310.601,1588.896 310.333,1589.896 310.601,1590.896 311.333,1591.628 312.333,1591.896"/>
      <polygon points="293.333,1591.628 294.065,1590.896 294.333,1589.896 294.065,1588.896 293.333,1588.164 292.333,1587.896 291.333,1588.164 290.601,1588.896 290.333,1589.896 290.601,1590.896 291.333,1591.628 292.333,1591.896"/>
      <polygon points="253.333,1591.628 254.065,1590.896 254.333,1589.896 254.065,1588.896 253.333,1588.164 252.333,1587.896 251.333,1588.164 250.601,1588.896 250.333,1589.896 250.601,1590.896 251.333,1591.628 252.333,1591.896"/>
      <polygon points="353.333,1591.628 354.065,1590.896 354.333,1589.896 354.065,1588.896 353.333,1588.164 352.333,1587.896 351.333,1588.164 350.601,1588.896 350.333,1589.896 350.601,1590.896 351.333,1591.628 352.333,1591.896"/>
      <polygon points="393.333,1591.628 394.065,1590.896 394.333,1589.896 394.065,1588.896 393.333,1588.164 392.333,1587.896 391.333,1588.164 390.601,1588.896 390.333,1589.896 390.601,1590.896 391.333,1591.628 392.333,1591.896"/>
      <polygon points="273.333,1591.628 274.065,1590.896 274.333,1589.896 274.065,1588.896 273.333,1588.164 272.333,1587.896 271.333,1588.164 270.601,1588.896 270.333,1589.896 270.601,1590.896 271.333,1591.628 272.333,1591.896"/>
      <polygon points="233.333,1591.628 234.065,1590.896 234.333,1589.896 234.065,1588.896 233.333,1588.164 232.333,1587.896 231.333,1588.164 230.601,1588.896 230.333,1589.896 230.601,1590.896 231.333,1591.628 232.333,1591.896"/>
      <polygon points="213.333,1591.628 214.065,1590.896 214.333,1589.896 214.065,1588.896 213.333,1588.164 212.333,1587.896 211.333,1588.164 210.601,1588.896 210.333,1589.896 210.601,1590.896 211.333,1591.628 212.333,1591.896"/>
      <polygon points="333.333,1591.628 334.065,1590.896 334.333,1589.896 334.065,1588.896 333.333,1588.164 332.333,1587.896 331.333,1588.164 330.601,1588.896 330.333,1589.896 330.601,1590.896 331.333,1591.628 332.333,1591.896"/>
      <polygon points="373.333,1611.628 374.065,1610.896 374.333,1609.896 374.065,1608.896 373.333,1608.164 372.333,1607.896 371.333,1608.164 370.601,1608.896 370.333,1609.896 370.601,1610.896 371.333,1611.628 372.333,1611.896"/>
      <polygon points="293.333,1611.628 294.065,1610.896 294.333,1609.896 294.065,1608.896 293.333,1608.164 292.333,1607.896 291.333,1608.164 290.601,1608.896 290.333,1609.896 290.601,1610.896 291.333,1611.628 292.333,1611.896"/>
      <polygon points="253.333,1611.628 254.065,1610.896 254.333,1609.896 254.065,1608.896 253.333,1608.164 252.333,1607.896 251.333,1608.164 250.601,1608.896 250.333,1609.896 250.601,1610.896 251.333,1611.628 252.333,1611.896"/>
      <polygon points="213.333,1611.628 214.065,1610.896 214.333,1609.896 214.065,1608.896 213.333,1608.164 212.333,1607.896 211.333,1608.164 210.601,1608.896 210.333,1609.896 210.601,1610.896 211.333,1611.628 212.333,1611.896"/>
      <polygon points="313.333,1611.628 314.065,1610.896 314.333,1609.896 314.065,1608.896 313.333,1608.164 312.333,1607.896 311.333,1608.164 310.601,1608.896 310.333,1609.896 310.601,1610.896 311.333,1611.628 312.333,1611.896"/>
      <polygon points="353.333,1611.628 354.065,1610.896 354.333,1609.896 354.065,1608.896 353.333,1608.164 352.333,1607.896 351.333,1608.164 350.601,1608.896 350.333,1609.896 350.601,1610.896 351.333,1611.628 352.333,1611.896"/>
      <polygon points="393.333,1611.628 394.065,1610.896 394.333,1609.896 394.065,1608.896 393.333,1608.164 392.333,1607.896 391.333,1608.164 390.601,1608.896 390.333,1609.896 390.601,1610.896 391.333,1611.628 392.333,1611.896"/>
      <polygon points="233.333,1611.628 234.065,1610.896 234.333,1609.896 234.065,1608.896 233.333,1608.164 232.333,1607.896 231.333,1608.164 230.601,1608.896 230.333,1609.896 230.601,1610.896 231.333,1611.628 232.333,1611.896"/>
      <polygon points="273.333,1611.628 274.065,1610.896 274.333,1609.896 274.065,1608.896 273.333,1608.164 272.333,1607.896 271.333,1608.164 270.601,1608.896 270.333,1609.896 270.601,1610.896 271.333,1611.628 272.333,1611.896"/>
      <polygon points="333.333,1611.628 334.065,1610.896 334.333,1609.896 334.065,1608.896 333.333,1608.164 332.333,1607.896 331.333,1608.164 330.601,1608.896 330.333,1609.896 330.601,1610.896 331.333,1611.628 332.333,1611.896"/>
      <polygon points="373.333,1631.628 374.065,1630.896 374.333,1629.896 374.065,1628.896 373.333,1628.164 372.333,1627.896 371.333,1628.164 370.601,1628.896 370.333,1629.896 370.601,1630.896 371.333,1631.628 372.333,1631.896"/>
      <polygon points="273.333,1631.628 274.065,1630.896 274.333,1629.896 274.065,1628.896 273.333,1628.164 272.333,1627.896 271.333,1628.164 270.601,1628.896 270.333,1629.896 270.601,1630.896 271.333,1631.628 272.333,1631.896"/>
      <polygon points="293.333,1631.628 294.065,1630.896 294.333,1629.896 294.065,1628.896 293.333,1628.164 292.333,1627.896 291.333,1628.164 290.601,1628.896 290.333,1629.896 290.601,1630.896 291.333,1631.628 292.333,1631.896"/>
      <polygon points="233.333,1631.628 234.065,1630.896 234.333,1629.896 234.065,1628.896 233.333,1628.164 232.333,1627.896 231.333,1628.164 230.601,1628.896 230.333,1629.896 230.601,1630.896 231.333,1631.628 232.333,1631.896"/>
      <polygon points="353.333,1631.628 354.065,1630.896 354.333,1629.896 354.065,1628.896 353.333,1628.164 352.333,1627.896 351.333,1628.164 350.601,1628.896 350.333,1629.896 350.601,1630.896 351.333,1631.628 352.333,1631.896"/>
      <polygon points="393.333,1631.628 394.065,1630.896 394.333,1629.896 394.065,1628.896 393.333,1628.164 392.333,1627.896 391.333,1628.164 390.601,1628.896 390.333,1629.896 390.601,1630.896 391.333,1631.628 392.333,1631.896"/>
      <polygon points="313.333,1631.628 314.065,1630.896 314.333,1629.896 314.065,1628.896 313.333,1628.164 312.333,1627.896 311.333,1628.164 310.601,1628.896 310.333,1629.896 310.601,1630.896 311.333,1631.628 312.333,1631.896"/>
      <polygon points="253.333,1631.628 254.065,1630.896 254.333,1629.896 254.065,1628.896 253.333,1628.164 252.333,1627.896 251.333,1628.164 250.601,1628.896 250.333,1629.896 250.601,1630.896 251.333,1631.628 252.333,1631.896"/>
      <polygon points="213.333,1631.628 214.065,1630.896 214.333,1629.896 214.065,1628.896 213.333,1628.164 212.333,1627.896 211.333,1628.164 210.601,1628.896 210.333,1629.896 210.601,1630.896 211.333,1631.628 212.333,1631.896"/>
      <polygon points="333.333,1631.628 334.065,1630.896 334.333,1629.896 334.065,1628.896 333.333,1628.164 332.333,1627.896 331.333,1628.164 330.601,1628.896 330.333,1629.896 330.601,1630.896 331.333,1631.628 332.333,1631.896"/>
      <polygon points="353.333,1651.628 354.065,1650.896 354.333,1649.896 354.065,1648.896 353.333,1648.164 352.333,1647.896 351.333,1648.164 350.601,1648.896 350.333,1649.896 350.601,1650.896 351.333,1651.628 352.333,1651.896"/>
      <polygon points="393.333,1651.628 394.065,1650.896 394.333,1649.896 394.065,1648.896 393.333,1648.164 392.333,1647.896 391.333,1648.164 390.601,1648.896 390.333,1649.896 390.601,1650.896 391.333,1651.628 392.333,1651.896"/>
      <polygon points="273.333,1651.628 274.065,1650.896 274.333,1649.896 274.065,1648.896 273.333,1648.164 272.333,1647.896 271.333,1648.164 270.601,1648.896 270.333,1649.896 270.601,1650.896 271.333,1651.628 272.333,1651.896"/>
      <polygon points="313.333,1651.628 314.065,1650.896 314.333,1649.896 314.065,1648.896 313.333,1648.164 312.333,1647.896 311.333,1648.164 310.601,1648.896 310.333,1649.896 310.601,1650.896 311.333,1651.628 312.333,1651.896"/>
      <polygon points="213.333,1651.628 214.065,1650.896 214.333,1649.896 214.065,1648.896 213.333,1648.164 212.333,1647.896 211.333,1648.164 210.601,1648.896 210.333,1649.896 210.601,1650.896 211.333,1651.628 212.333,1651.896"/>
      <polygon points="333.333,1651.628 334.065,1650.896 334.333,1649.896 334.065,1648.896 333.333,1648.164 332.333,1647.896 331.333,1648.164 330.601,1648.896 330.333,1649.896 330.601,1650.896 331.333,1651.628 332.333,1651.896"/>
      <polygon points="293.333,1651.628 294.065,1650.896 294.333,1649.896 294.065,1648.896 293.333,1648.164 292.333,1647.896 291.333,1648.164 290.601,1648.896 290.333,1649.896 290.601,1650.896 291.333,1651.628 292.333,1651.896"/>
      <polygon points="233.333,1651.628 234.065,1650.896 234.333,1649.896 234.065,1648.896 233.333,1648.164 232.333,1647.896 231.333,1648.164 230.601,1648.896 230.333,1649.896 230.601,1650.896 231.333,1651.628 232.333,1651.896"/>
      <polygon points="373.333,1651.628 374.065,1650.896 374.333,1649.896 374.065,1648.896 373.333,1648.164 372.333,1647.896 371.333,1648.164 370.601,1648.896 370.333,1649.896 370.601,1650.896 371.333,1651.628 372.333,1651.896"/>
      <polygon points="253.333,1651.628 254.065,1650.896 254.333,1649.896 254.065,1648.896 253.333,1648.164 252.333,1647.896 251.333,1648.164 250.601,1648.896 250.333,1649.896 250.601,1650.896 251.333,1651.628 252.333,1651.896"/>
      <polygon points="373.333,1671.628 374.065,1670.896 374.333,1669.896 374.065,1668.896 373.333,1668.164 372.333,1667.896 371.333,1668.164 370.601,1668.896 370.333,1669.896 370.601,1670.896 371.333,1671.628 372.333,1671.896"/>
      <polygon points="353.333,1671.628 354.065,1670.896 354.333,1669.896 354.065,1668.896 353.333,1668.164 352.333,1667.896 351.333,1668.164 350.601,1668.896 350.333,1669.896 350.601,1670.896 351.333,1671.628 352.333,1671.896"/>
      <polygon points="333.333,1671.628 334.065,1670.896 334.333,1669.896 334.065,1668.896 333.333,1668.164 332.333,1667.896 331.333,1668.164 330.601,1668.896 330.333,1669.896 330.601,1670.896 331.333,1671.628 332.333,1671.896"/>
      <polygon points="313.333,1671.628 314.065,1670.896 314.333,1669.896 314.065,1668.896 313.333,1668.164 312.333,1667.896 311.333,1668.164 310.601,1668.896 310.333,1669.896 310.601,1670.896 311.333,1671.628 312.333,1671.896"/>
      <polygon points="293.333,1671.628 294.065,1670.896 294.333,1669.896 294.065,1668.896 293.333,1668.164 292.333,1667.896 291.333,1668.164 290.601,1668.896 290.333,1669.896 290.601,1670.896 291.333,1671.628 292.333,1671.896"/>
      <polygon points="273.333,1671.628 274.065,1670.896 274.333,1669.896 274.065,1668.896 273.333,1668.164 272.333,1667.896 271.333,1668.164 270.601,1668.896 270.333,1669.896 270.601,1670.896 271.333,1671.628 272.333,1671.896"/>
      <polygon points="253.333,1671.628 254.065,1670.896 254.333,1669.896 254.065,1668.896 253.333,1668.164 252.333,1667.896 251.333,1668.164 250.601,1668.896 250.333,1669.896 250.601,1670.896 251.333,1671.628 252.333,1671.896"/>
      <polygon points="233.333,1671.628 234.065,1670.896 234.333,1669.896 234.065,1668.896 233.333,1668.164 232.333,1667.896 231.333,1668.164 230.601,1668.896 230.333,1669.896 230.601,1670.896 231.333,1671.628 232.333,1671.896"/>
      <polygon points="213.333,1671.628 214.065,1670.896 214.333,1669.896 214.065,1668.896 213.333,1668.164 212.333,1667.896 211.333,1668.164 210.601,1668.896 210.333,1669.896 210.601,1670.896 211.333,1671.628 212.333,1671.896"/>
      <polygon points="393.333,1671.628 394.065,1670.896 394.333,1669.896 394.065,1668.896 393.333,1668.164 392.333,1667.896 391.333,1668.164 390.601,1668.896 390.333,1669.896 390.601,1670.896 391.333,1671.628 392.333,1671.896"/>
    </g>
    <g stroke="#EF6C00" stroke-width="0.4" fill="none">
    </g>
  </g>
  <g stroke="#000000" stroke-width="0.4">
    <line x1="500.000" y1="1000.000" x2="1500.000" y2="1000.000"/>
  </g>
  <g stroke="#000000" stroke-width="0.4">
    <line x1="1000.000" y1="500.000" x2="1000.000" y2="1500.000"/>
  </g>
  <circle cx="1000.000" cy="1000.000" r="1000.000" stroke="red" stroke-width="1" fill="none"/>
  </g>
</svg>
