<?xml version="1.0" encoding="UTF-8"?>
<svg xmlns="http://www.w3.org/2000/svg" version="1.1" width="2000" height="2000">
  <g fill="none" stroke-linecap="round" stroke-linejoin="round">
  <text x="10" y="20" font-size="24" fill="#555">Layer 264 Z=64.800 mm</text>
  <g transform="translate(700.000,-602.229)">
    <g stroke="#2E7D32" stroke-width="0.4">
      <line x1="133.156" y1="1679.230" x2="133.156" y2="1629.230"/>
      <line x1="134.156" y1="1679.230" x2="134.156" y2="1629.230"/>
      <line x1="135.156" y1="1679.230" x2="135.156" y2="1629.230"/>
      <line x1="136.156" y1="1679.230" x2="136.156" y2="1629.230"/>
      <line x1="137.156" y1="1679.230" x2="137.156" y2="1629.230"/>
      <line x1="138.156" y1="1679.230" x2="138.156" y2="1629.230"/>
      <line x1="139.156" y1="1679.230" x2="139.156" y2="1629.230"/>
      <line x1="140.156" y1="1679.230" x2="140.156" y2="1629.230"/>
      <line x1="141.156" y1="1679.230" x2="141.156" y2="1629.230"/>
      <line x1="142.156" y1="1679.230" x2="142.156" y2="1629.230"/>
      <line x1="143.156" y1="1679.230" x2="143.156" y2="1629.230"/>
      <line x1="144.156" y1="1679.230" x2="144.156" y2="1629.230"/>
      <line x1="145.156" y1="1679.230" x2="145.156" y2="1629.230"/>
      <line x1="146.156" y1="1679.230" x2="146.156" y2="1629.230"/>
      <line x1="147.156" y1="1679.230" x2="147.156" y2="1629.230"/>
      <line x1="148.156" y1="1679.230" x2="148.156" y2="1629.230"/>
      <line x1="149.156" y1="1679.230" x2="149.156" y2="1629.230"/>
      <line x1="150.156" y1="1679.230" x2="150.156" y2="1629.230"/>
      <line x1="151.156" y1="1679.230" x2="151.156" y2="1629.230"/>
      <line x1="152.156" y1="1679.230" x2="152.156" y2="1629.230"/>
      <line x1="153.156" y1="1679.230" x2="153.156" y2="1629.230"/>
      <line x1="154.156" y1="1679.230" x2="154.156" y2="1629.230"/>
      <line x1="155.156" y1="1679.230" x2="155.156" y2="1629.230"/>
      <line x1="156.156" y1="1679.230" x2="156.156" y2="1629.230"/>
      <line x1="157.156" y1="1679.230" x2="157.156" y2="1629.230"/>
      <line x1="158.156" y1="1679.230" x2="158.156" y2="1629.230"/>
      <line x1="159.156" y1="1679.230" x2="159.156" y2="1629.230"/>
      <line x1="160.156" y1="1679.230" x2="160.156" y2="1629.230"/>
      <line x1="161.156" y1="1679.230" x2="161.156" y2="1629.230"/>
      <line x1="162.156" y1="1679.230" x2="162.156" y2="1629.230"/>
      <line x1="163.156" y1="1679.230" x2="163.156" y2="1629.230"/>
      <line x1="164.156" y1="1679.230" x2="164.156" y2="1629.230"/>
      <line x1="165.156" y1="1679.230" x2="165.156" y2="1629.230"/>
      <line x1="166.156" y1="1679.230" x2="166.156" y2="1629.230"/>
      <line x1="167.156" y1="1679.230" x2="167.156" y2="1629.230"/>
      <line x1="168.156" y1="1679.230" x2="168.156" y2="1629.230"/>
      <line x1="169.156" y1="1679.230" x2="169.156" y2="1629.230"/>
      <line x1="170.156" y1="1679.230" x2="170.156" y2="1629.230"/>
      <line x1="171.156" y1="1679.230" x2="171.156" y2="1629.230"/>
      <line x1="172.156" y1="1679.230" x2="172.156" y2="1629.230"/>
      <line x1="173.156" y1="1679.230" x2="173.156" y2="1629.230"/>
      <line x1="174.156" y1="1679.230" x2="174.156" y2="1629.230"/>
      <line x1="175.156" y1="1679.230" x2="175.156" y2="1629.230"/>
      <line x1="176.156" y1="1679.230" x2="176.156" y2="1629.230"/>
      <line x1="177.156" y1="1679.230" x2="177.156" y2="1629.230"/>
      <line x1="178.156" y1="1679.230" x2="178.156" y2="1629.230"/>
      <line x1="179.156" y1="1679.230" x2="179.156" y2="1629.230"/>
      <line x1="180.156" y1="1679.230" x2="180.156" y2="1629.230"/>
      <line x1="181.156" y1="1679.230" x2="181.156" y2="1629.230"/>
      <line x1="182.156" y1="1679.230" x2="182.156" y2="1629.230"/>
      <line x1="184.156" y1="1679.230" x2="184.156" y2="1629.230"/>
      <line x1="185.156" y1="1679.230" x2="185.156" y2="1629.230"/>
      <line x1="186.156" y1="1679.230" x2="186.156" y2="1629.230"/>
      <line x1="187.156" y1="1679.230" x2="187.156" y2="1629.230"/>
      <line x1="188.156" y1="1679.230" x2="188.156" y2="1629.230"/>
      <line x1="189.156" y1="1679.230" x2="189.156" y2="1629.230"/>
      <line x1="190.156" y1="1679.230" x2="190.156" y2="1629.230"/>
      <line x1="191.156" y1="1679.230" x2="191.156" y2="1629.230"/>
      <line x1="192.156" y1="1679.230" x2="192.156" y2="1629.230"/>
      <line x1="193.156" y1="1679.230" x2="193.156" y2="1629.230"/>
      <line x1="194.156" y1="1679.230" x2="194.156" y2="1629.230"/>
      <line x1="195.156" y1="1679.230" x2="195.156" y2="1629.230"/>
      <line x1="196.156" y1="1679.230" x2="196.156" y2="1629.230"/>
      <line x1="197.156" y1="1679.230" x2="197.156" y2="1629.230"/>
      <line x1="198.156" y1="1679.230" x2="198.156" y2="1629.230"/>
      <line x1="199.156" y1="1679.230" x2="199.156" y2="1629.230"/>
      <line x1="200.156" y1="1679.230" x2="200.156" y2="1629.230"/>
      <line x1="201.156" y1="1679.230" x2="201.156" y2="1629.230"/>
      <line x1="202.156" y1="1679.230" x2="202.156" y2="1629.230"/>
      <line x1="203.156" y1="1679.230" x2="203.156" y2="1629.230"/>
      <line x1="204.156" y1="1679.230" x2="204.156" y2="1629.230"/>
      <line x1="205.156" y1="1679.230" x2="205.156" y2="1629.230"/>
      <line x1="206.156" y1="1679.230" x2="206.156" y2="1629.230"/>
      <line x1="207.156" y1="1679.230" x2="207.156" y2="1629.230"/>
      <line x1="208.156" y1="1679.230" x2="208.156" y2="1629.230"/>
      <line x1="209.156" y1="1679.230" x2="209.156" y2="1629.230"/>
      <line x1="210.156" y1="1679.230" x2="210.156" y2="1629.230"/>
      <line x1="211.156" y1="1679.230" x2="211.156" y2="1629.230"/>
      <line x1="212.156" y1="1679.230" x2="212.156" y2="1629.230"/>
      <line x1="213.156" y1="1679.230" x2="213.156" y2="1629.230"/>
      <line x1="214.156" y1="1679.230" x2="214.156" y2="1629.230"/>
      <line x1="215.156" y1="1679.230" x2="215.156" y2="1629.230"/>
      <line x1="216.156" y1="1679.230" x2="216.156" y2="1629.230"/>
      <line x1="217.156" y1="1679.230" x2="217.156" y2="1629.230"/>
      <line x1="218.156" y1="1679.230" x2="218.156" y2="1629.230"/>
      <line x1="219.156" y1="1679.230" x2="219.156" y2="1629.230"/>
      <line x1="220.156" y1="1679.230" x2="220.156" y2="1629.230"/>
      <line x1="221.156" y1="1679.230" x2="221.156" y2="1629.230"/>
      <line x1="222.156" y1="1679.230" x2="222.156" y2="1629.230"/>
      <line x1="223.156" y1="1679.230" x2="223.156" y2="1629.230"/>
      <line x1="224.156" y1="1679.230" x2="224.156" y2="1629.230"/>
      <line x1="225.156" y1="1679.230" x2="225.156" y2="1629.230"/>
      <line x1="226.156" y1="1679.230" x2="226.156" y2="1629.230"/>
      <line x1="227.156" y1="1679.230" x2="227.156" y2="1629.230"/>
      <line x1="228.156" y1="1679.230" x2="228.156" y2="1629.230"/>
      <line x1="229.156" y1="1679.230" x2="229.156" y2="1629.230"/>
      <line x1="230.156" y1="1679.230" x2="230.156" y2="1629.230"/>
      <line x1="231.156" y1="1679.230" x2="231.156" y2="1629.230"/>
      <line x1="232.156" y1="1679.230" x2="232.156" y2="1629.230"/>
      <line x1="233.156" y1="1679.230" x2="233.156" y2="1629.230"/>
      <line x1="234.156" y1="1679.230" x2="234.156" y2="1629.230"/>
      <line x1="235.156" y1="1679.230" x2="235.156" y2="1629.230"/>
      <line x1="236.156" y1="1679.230" x2="236.156" y2="1629.230"/>
      <line x1="237.156" y1="1679.230" x2="237.156" y2="1629.230"/>
      <line x1="238.156" y1="1679.230" x2="238.156" y2="1629.230"/>
      <line x1="239.156" y1="1679.230" x2="239.156" y2="1629.230"/>
      <line x1="240.156" y1="1679.230" x2="240.156" y2="1629.230"/>
      <line x1="241.156" y1="1679.230" x2="241.156" y2="1629.230"/>
      <line x1="242.156" y1="1679.230" x2="242.156" y2="1629.230"/>
      <line x1="243.156" y1="1679.230" x2="243.156" y2="1629.230"/>
      <line x1="244.156" y1="1679.230" x2="244.156" y2="1629.230"/>
      <line x1="245.156" y1="1679.230" x2="245.156" y2="1629.230"/>
      <line x1="246.156" y1="1679.230" x2="246.156" y2="1629.230"/>
      <line x1="247.156" y1="1679.230" x2="247.156" y2="1629.230"/>
      <line x1="248.156" y1="1679.230" x2="248.156" y2="1629.230"/>
      <line x1="249.156" y1="1679.230" x2="249.156" y2="1629.230"/>
      <line x1="250.156" y1="1679.230" x2="250.156" y2="1629.230"/>
      <line x1="251.156" y1="1679.230" x2="251.156" y2="1629.230"/>
      <line x1="252.156" y1="1679.230" x2="252.156" y2="1629.230"/>
      <line x1="253.156" y1="1679.230" x2="253.156" y2="1629.230"/>
      <line x1="254.156" y1="1679.230" x2="254.156" y2="1629.230"/>
      <line x1="255.156" y1="1679.230" x2="255.156" y2="1629.230"/>
      <line x1="256.156" y1="1679.230" x2="256.156" y2="1629.230"/>
      <line x1="257.156" y1="1679.230" x2="257.156" y2="1629.230"/>
      <line x1="258.156" y1="1679.230" x2="258.156" y2="1629.230"/>
      <line x1="259.156" y1="1679.230" x2="259.156" y2="1629.230"/>
      <line x1="260.156" y1="1679.230" x2="260.156" y2="1629.230"/>
      <line x1="261.156" y1="1679.230" x2="261.156" y2="1629.230"/>
      <line x1="262.156" y1="1679.230" x2="262.156" y2="1629.230"/>
      <line x1="263.156" y1="1679.230" x2="263.156" y2="1629.230"/>
      <line x1="264.156" y1="1679.230" x2="264.156" y2="1629.230"/>
      <line x1="265.156" y1="1679.230" x2="265.156" y2="1629.230"/>
      <line x1="266.156" y1="1679.230" x2="266.156" y2="1629.230"/>
      <line x1="267.156" y1="1679.230" x2="267.156" y2="1629.230"/>
      <line x1="268.156" y1="1679.230" x2="268.156" y2="1629.230"/>
      <line x1="269.156" y1="1679.230" x2="269.156" y2="1629.230"/>
      <line x1="270.156" y1="1679.230" x2="270.156" y2="1629.230"/>
      <line x1="271.156" y1="1679.230" x2="271.156" y2="1629.230"/>
      <line x1="272.156" y1="1679.230" x2="272.156" y2="1629.230"/>
      <line x1="273.156" y1="1679.230" x2="273.156" y2="1629.230"/>
      <line x1="274.156" y1="1679.230" x2="274.156" y2="1629.230"/>
      <line x1="275.156" y1="1679.230" x2="275.156" y2="1629.230"/>
      <line x1="276.156" y1="1679.230" x2="276.156" y2="1629.230"/>
      <line x1="277.156" y1="1679.230" x2="277.156" y2="1629.230"/>
      <line x1="278.156" y1="1679.230" x2="278.156" y2="1629.230"/>
      <line x1="279.156" y1="1679.230" x2="279.156" y2="1629.230"/>
      <line x1="280.156" y1="1679.230" x2="280.156" y2="1629.230"/>
      <line x1="281.156" y1="1679.230" x2="281.156" y2="1629.230"/>
      <line x1="282.156" y1="1679.230" x2="282.156" y2="1629.230"/>
      <line x1="283.156" y1="1679.230" x2="283.156" y2="1629.230"/>
      <line x1="284.156" y1="1679.230" x2="284.156" y2="1629.230"/>
      <line x1="285.156" y1="1679.230" x2="285.156" y2="1629.230"/>
      <line x1="286.156" y1="1679.230" x2="286.156" y2="1629.230"/>
      <line x1="287.156" y1="1679.230" x2="287.156" y2="1629.230"/>
      <line x1="288.156" y1="1679.230" x2="288.156" y2="1629.230"/>
      <line x1="289.156" y1="1679.230" x2="289.156" y2="1629.230"/>
      <line x1="290.156" y1="1679.230" x2="290.156" y2="1629.230"/>
      <line x1="291.156" y1="1679.230" x2="291.156" y2="1629.230"/>
      <line x1="292.156" y1="1679.230" x2="292.156" y2="1629.230"/>
      <line x1="293.156" y1="1679.230" x2="293.156" y2="1629.230"/>
      <line x1="294.156" y1="1679.230" x2="294.156" y2="1629.230"/>
      <line x1="295.156" y1="1679.230" x2="295.156" y2="1629.230"/>
      <line x1="296.156" y1="1679.230" x2="296.156" y2="1629.230"/>
      <line x1="297.156" y1="1679.230" x2="297.156" y2="1629.230"/>
      <line x1="298.156" y1="1679.230" x2="298.156" y2="1629.230"/>
      <line x1="299.156" y1="1679.230" x2="299.156" y2="1629.230"/>
      <line x1="300.156" y1="1679.230" x2="300.156" y2="1629.230"/>
      <line x1="301.156" y1="1679.230" x2="301.156" y2="1629.230"/>
      <line x1="302.156" y1="1679.230" x2="302.156" y2="1629.230"/>
      <line x1="303.156" y1="1679.230" x2="303.156" y2="1629.230"/>
      <line x1="304.156" y1="1679.230" x2="304.156" y2="1629.230"/>
      <line x1="305.156" y1="1679.230" x2="305.156" y2="1629.230"/>
      <line x1="306.156" y1="1679.230" x2="306.156" y2="1629.230"/>
      <line x1="307.156" y1="1679.230" x2="307.156" y2="1629.230"/>
      <line x1="308.156" y1="1679.230" x2="308.156" y2="1629.230"/>
      <line x1="309.156" y1="1679.230" x2="309.156" y2="1629.230"/>
      <line x1="310.156" y1="1679.230" x2="310.156" y2="1629.230"/>
      <line x1="311.156" y1="1679.230" x2="311.156" y2="1629.230"/>
      <line x1="312.156" y1="1679.230" x2="312.156" y2="1629.230"/>
      <line x1="313.156" y1="1679.230" x2="313.156" y2="1629.230"/>
      <line x1="314.156" y1="1679.230" x2="314.156" y2="1629.230"/>
      <line x1="315.156" y1="1679.230" x2="315.156" y2="1629.230"/>
      <line x1="316.156" y1="1679.230" x2="316.156" y2="1629.230"/>
      <line x1="317.156" y1="1679.230" x2="317.156" y2="1629.230"/>
      <line x1="318.156" y1="1679.230" x2="318.156" y2="1629.230"/>
      <line x1="319.156" y1="1679.230" x2="319.156" y2="1629.230"/>
      <line x1="320.156" y1="1679.230" x2="320.156" y2="1629.230"/>
      <line x1="321.156" y1="1679.230" x2="321.156" y2="1629.230"/>
      <line x1="322.156" y1="1679.230" x2="322.156" y2="1629.230"/>
      <line x1="323.156" y1="1679.230" x2="323.156" y2="1629.230"/>
      <line x1="324.156" y1="1679.230" x2="324.156" y2="1629.230"/>
      <line x1="325.156" y1="1679.230" x2="325.156" y2="1629.230"/>
      <line x1="326.156" y1="1679.230" x2="326.156" y2="1629.230"/>
      <line x1="327.156" y1="1679.230" x2="327.156" y2="1629.230"/>
      <line x1="328.156" y1="1679.230" x2="328.156" y2="1629.230"/>
      <line x1="329.156" y1="1679.230" x2="329.156" y2="1629.230"/>
      <line x1="330.156" y1="1679.230" x2="330.156" y2="1629.230"/>
      <line x1="331.156" y1="1679.230" x2="331.156" y2="1629.230"/>
      <line x1="332.156" y1="1679.230" x2="332.156" y2="1629.230"/>
      <line x1="333.156" y1="1679.230" x2="333.156" y2="1629.230"/>
      <line x1="334.156" y1="1679.230" x2="334.156" y2="1629.230"/>
      <line x1="335.156" y1="1679.230" x2="335.156" y2="1629.230"/>
      <line x1="336.156" y1="1679.230" x2="336.156" y2="1629.230"/>
      <line x1="337.156" y1="1679.230" x2="337.156" y2="1629.230"/>
      <line x1="338.156" y1="1679.230" x2="338.156" y2="1629.230"/>
      <line x1="339.156" y1="1679.230" x2="339.156" y2="1629.230"/>
      <line x1="340.156" y1="1679.230" x2="340.156" y2="1629.230"/>
      <line x1="341.156" y1="1679.230" x2="341.156" y2="1629.230"/>
      <line x1="342.156" y1="1679.230" x2="342.156" y2="1629.230"/>
      <line x1="343.156" y1="1679.230" x2="343.156" y2="1629.230"/>
      <line x1="344.156" y1="1679.230" x2="344.156" y2="1629.230"/>
      <line x1="345.156" y1="1679.230" x2="345.156" y2="1629.230"/>
      <line x1="346.156" y1="1679.230" x2="346.156" y2="1629.230"/>
      <line x1="347.156" y1="1679.230" x2="347.156" y2="1629.230"/>
      <line x1="348.156" y1="1679.230" x2="348.156" y2="1629.230"/>
      <line x1="349.156" y1="1679.230" x2="349.156" y2="1629.230"/>
      <line x1="350.156" y1="1679.230" x2="350.156" y2="1629.230"/>
      <line x1="351.156" y1="1679.230" x2="351.156" y2="1629.230"/>
      <line x1="352.156" y1="1679.230" x2="352.156" y2="1629.230"/>
      <line x1="353.156" y1="1679.230" x2="353.156" y2="1629.230"/>
      <line x1="354.156" y1="1679.230" x2="354.156" y2="1629.230"/>
      <line x1="355.156" y1="1679.230" x2="355.156" y2="1629.230"/>
      <line x1="356.156" y1="1679.230" x2="356.156" y2="1629.230"/>
      <line x1="357.156" y1="1679.230" x2="357.156" y2="1629.230"/>
      <line x1="358.156" y1="1679.230" x2="358.156" y2="1629.230"/>
      <line x1="359.156" y1="1679.230" x2="359.156" y2="1629.230"/>
      <line x1="360.156" y1="1679.230" x2="360.156" y2="1629.230"/>
      <line x1="361.156" y1="1679.230" x2="361.156" y2="1629.230"/>
      <line x1="362.156" y1="1679.230" x2="362.156" y2="1629.230"/>
      <line x1="363.156" y1="1679.230" x2="363.156" y2="1629.230"/>
      <line x1="364.156" y1="1679.230" x2="364.156" y2="1629.230"/>
      <line x1="365.156" y1="1679.230" x2="365.156" y2="1629.230"/>
      <line x1="366.156" y1="1679.230" x2="366.156" y2="1629.230"/>
      <line x1="367.156" y1="1679.230" x2="367.156" y2="1629.230"/>
      <line x1="368.156" y1="1679.230" x2="368.156" y2="1629.230"/>
      <line x1="369.156" y1="1679.230" x2="369.156" y2="1629.230"/>
      <line x1="370.156" y1="1679.230" x2="370.156" y2="1629.230"/>
      <line x1="371.156" y1="1679.230" x2="371.156" y2="1629.230"/>
      <line x1="372.156" y1="1679.230" x2="372.156" y2="1629.230"/>
      <line x1="373.156" y1="1679.230" x2="373.156" y2="1629.230"/>
      <line x1="374.156" y1="1679.230" x2="374.156" y2="1629.230"/>
      <line x1="375.156" y1="1679.230" x2="375.156" y2="1629.230"/>
      <line x1="376.156" y1="1679.230" x2="376.156" y2="1629.230"/>
      <line x1="377.156" y1="1679.230" x2="377.156" y2="1629.230"/>
      <line x1="378.156" y1="1679.230" x2="378.156" y2="1629.230"/>
      <line x1="379.156" y1="1679.230" x2="379.156" y2="1629.230"/>
      <line x1="380.156" y1="1679.230" x2="380.156" y2="1629.230"/>
      <line x1="381.156" y1="1679.230" x2="381.156" y2="1629.230"/>
      <line x1="382.156" y1="1679.230" x2="382.156" y2="1629.230"/>
      <line x1="383.156" y1="1679.230" x2="383.156" y2="1629.230"/>
      <line x1="384.156" y1="1679.230" x2="384.156" y2="1629.230"/>
      <line x1="385.156" y1="1679.230" x2="385.156" y2="1629.230"/>
      <line x1="386.156" y1="1679.230" x2="386.156" y2="1629.230"/>
      <line x1="387.156" y1="1679.230" x2="387.156" y2="1629.230"/>
      <line x1="388.156" y1="1679.230" x2="388.156" y2="1629.230"/>
      <line x1="389.156" y1="1679.230" x2="389.156" y2="1629.230"/>
      <line x1="390.156" y1="1679.230" x2="390.156" y2="1629.230"/>
      <line x1="391.156" y1="1679.230" x2="391.156" y2="1629.230"/>
      <line x1="392.156" y1="1679.230" x2="392.156" y2="1629.230"/>
      <line x1="393.156" y1="1679.230" x2="393.156" y2="1629.230"/>
      <line x1="394.156" y1="1679.230" x2="394.156" y2="1629.230"/>
      <line x1="395.156" y1="1679.230" x2="395.156" y2="1629.230"/>
      <line x1="396.156" y1="1679.230" x2="396.156" y2="1629.230"/>
      <line x1="397.156" y1="1679.230" x2="397.156" y2="1629.230"/>
      <line x1="398.156" y1="1679.230" x2="398.156" y2="1629.230"/>
      <line x1="399.156" y1="1679.230" x2="399.156" y2="1629.230"/>
      <line x1="400.156" y1="1679.230" x2="400.156" y2="1629.230"/>
      <line x1="401.156" y1="1679.230" x2="401.156" y2="1629.230"/>
      <line x1="402.156" y1="1679.230" x2="402.156" y2="1629.230"/>
      <line x1="403.156" y1="1679.230" x2="403.156" y2="1629.230"/>
      <line x1="404.156" y1="1679.230" x2="404.156" y2="1629.230"/>
      <line x1="405.156" y1="1679.230" x2="405.156" y2="1629.230"/>
      <line x1="406.156" y1="1679.230" x2="406.156" y2="1629.230"/>
      <line x1="407.156" y1="1679.230" x2="407.156" y2="1629.230"/>
      <line x1="408.156" y1="1679.230" x2="408.156" y2="1629.230"/>
      <line x1="409.156" y1="1679.230" x2="409.156" y2="1629.230"/>
      <line x1="410.156" y1="1679.230" x2="410.156" y2="1629.230"/>
      <line x1="411.156" y1="1679.230" x2="411.156" y2="1629.230"/>
      <line x1="412.156" y1="1679.230" x2="412.156" y2="1629.230"/>
      <line x1="413.156" y1="1679.230" x2="413.156" y2="1629.230"/>
      <line x1="414.156" y1="1679.230" x2="414.156" y2="1629.230"/>
      <line x1="415.156" y1="1679.230" x2="415.156" y2="1629.230"/>
      <line x1="416.156" y1="1679.230" x2="416.156" y2="1629.230"/>
      <line x1="417.156" y1="1679.230" x2="417.156" y2="1629.230"/>
      <line x1="418.156" y1="1679.230" x2="418.156" y2="1629.230"/>
      <line x1="419.156" y1="1679.230" x2="419.156" y2="1629.230"/>
      <line x1="420.156" y1="1679.230" x2="420.156" y2="1629.230"/>
      <line x1="421.156" y1="1679.230" x2="421.156" y2="1629.230"/>
      <line x1="422.156" y1="1679.230" x2="422.156" y2="1629.230"/>
      <line x1="423.156" y1="1679.230" x2="423.156" y2="1629.230"/>
      <line x1="424.156" y1="1679.230" x2="424.156" y2="1629.230"/>
      <line x1="425.156" y1="1679.230" x2="425.156" y2="1629.230"/>
      <line x1="426.156" y1="1679.230" x2="426.156" y2="1629.230"/>
      <line x1="427.156" y1="1679.230" x2="427.156" y2="1629.230"/>
      <line x1="428.156" y1="1679.230" x2="428.156" y2="1629.230"/>
      <line x1="429.156" y1="1679.230" x2="429.156" y2="1629.230"/>
      <line x1="430.156" y1="1679.230" x2="430.156" y2="1629.230"/>
      <line x1="431.156" y1="1679.230" x2="431.156" y2="1629.230"/>
      <line x1="432.156" y1="1679.230" x2="432.156" y2="1629.230"/>
      <line x1="433.156" y1="1679.230" x2="433.156" y2="1629.230"/>
      <line x1="434.156" y1="1679.230" x2="434.156" y2="1629.230"/>
      <line x1="435.156" y1="1679.230" x2="435.156" y2="1629.230"/>
      <line x1="436.156" y1="1679.230" x2="436.156" y2="1629.230"/>
      <line x1="437.156" y1="1679.230" x2="437.156" y2="1629.230"/>
      <line x1="438.156" y1="1679.230" x2="438.156" y2="1629.230"/>
      <line x1="439.156" y1="1679.230" x2="439.156" y2="1629.230"/>
      <line x1="440.156" y1="1679.230" x2="440.156" y2="1629.230"/>
      <line x1="441.156" y1="1679.230" x2="441.156" y2="1629.230"/>
      <line x1="442.156" y1="1679.230" x2="442.156" y2="1629.230"/>
      <line x1="443.156" y1="1679.230" x2="443.156" y2="1629.230"/>
      <line x1="444.156" y1="1679.230" x2="444.156" y2="1629.230"/>
      <line x1="445.156" y1="1679.230" x2="445.156" y2="1629.230"/>
      <line x1="446.156" y1="1679.230" x2="446.156" y2="1629.230"/>
      <line x1="447.156" y1="1679.230" x2="447.156" y2="1629.230"/>
      <line x1="448.156" y1="1679.230" x2="448.156" y2="1629.230"/>
      <line x1="449.156" y1="1679.230" x2="449.156" y2="1629.230"/>
      <line x1="450.156" y1="1679.230" x2="450.156" y2="1629.230"/>
      <line x1="451.156" y1="1679.230" x2="451.156" y2="1629.230"/>
      <line x1="452.156" y1="1679.230" x2="452.156" y2="1629.230"/>
      <line x1="453.156" y1="1679.230" x2="453.156" y2="1629.230"/>
      <line x1="454.156" y1="1679.230" x2="454.156" y2="1629.230"/>
      <line x1="455.156" y1="1679.230" x2="455.156" y2="1629.230"/>
      <line x1="456.156" y1="1679.230" x2="456.156" y2="1629.230"/>
      <line x1="457.156" y1="1679.230" x2="457.156" y2="1629.230"/>
      <line x1="458.156" y1="1679.230" x2="458.156" y2="1629.230"/>
      <line x1="459.156" y1="1679.230" x2="459.156" y2="1629.230"/>
      <line x1="460.156" y1="1679.230" x2="460.156" y2="1629.230"/>
      <line x1="461.156" y1="1679.230" x2="461.156" y2="1629.230"/>
      <line x1="462.156" y1="1679.230" x2="462.156" y2="1629.230"/>
      <line x1="463.156" y1="1679.230" x2="463.156" y2="1629.230"/>
      <line x1="464.156" y1="1679.230" x2="464.156" y2="1629.230"/>
      <line x1="465.156" y1="1679.230" x2="465.156" y2="1629.230"/>
      <line x1="466.156" y1="1679.230" x2="466.156" y2="1629.230"/>
      <line x1="133.156" y1="1629.130" x2="133.156" y2="1579.130"/>
      <line x1="134.156" y1="1629.130" x2="134.156" y2="1579.130"/>
      <line x1="135.156" y1="1629.130" x2="135.156" y2="1579.130"/>
      <line x1="136.156" y1="1629.130" x2="136.156" y2="1579.130"/>
      <line x1="137.156" y1="1629.130" x2="137.156" y2="1579.130"/>
      <line x1="138.156" y1="1629.130" x2="138.156" y2="1579.130"/>
      <line x1="139.156" y1="1629.130" x2="139.156" y2="1579.130"/>
      <line x1="140.156" y1="1629.130" x2="140.156" y2="1579.130"/>
      <line x1="141.156" y1="1629.130" x2="141.156" y2="1579.130"/>
      <line x1="142.156" y1="1629.130" x2="142.156" y2="1579.130"/>
      <line x1="143.156" y1="1629.130" x2="143.156" y2="1579.130"/>
      <line x1="144.156" y1="1629.130" x2="144.156" y2="1579.130"/>
      <line x1="145.156" y1="1629.130" x2="145.156" y2="1579.130"/>
      <line x1="146.156" y1="1629.130" x2="146.156" y2="1579.130"/>
      <line x1="147.156" y1="1629.130" x2="147.156" y2="1579.130"/>
      <line x1="148.156" y1="1629.130" x2="148.156" y2="1579.130"/>
      <line x1="149.156" y1="1629.130" x2="149.156" y2="1579.130"/>
      <line x1="150.156" y1="1629.130" x2="150.156" y2="1579.130"/>
      <line x1="151.156" y1="1629.130" x2="151.156" y2="1579.130"/>
      <line x1="152.156" y1="1629.130" x2="152.156" y2="1579.130"/>
      <line x1="153.156" y1="1629.130" x2="153.156" y2="1579.130"/>
      <line x1="154.156" y1="1629.130" x2="154.156" y2="1579.130"/>
      <line x1="155.156" y1="1629.130" x2="155.156" y2="1579.130"/>
      <line x1="156.156" y1="1629.130" x2="156.156" y2="1579.130"/>
      <line x1="157.156" y1="1629.130" x2="157.156" y2="1579.130"/>
      <line x1="158.156" y1="1629.130" x2="158.156" y2="1579.130"/>
      <line x1="159.156" y1="1629.130" x2="159.156" y2="1579.130"/>
      <line x1="160.156" y1="1629.130" x2="160.156" y2="1579.130"/>
      <line x1="161.156" y1="1629.130" x2="161.156" y2="1579.130"/>
      <line x1="162.156" y1="1629.130" x2="162.156" y2="1579.130"/>
      <line x1="163.156" y1="1629.130" x2="163.156" y2="1579.130"/>
      <line x1="164.156" y1="1629.130" x2="164.156" y2="1579.130"/>
      <line x1="165.156" y1="1629.130" x2="165.156" y2="1579.130"/>
      <line x1="166.156" y1="1629.130" x2="166.156" y2="1579.130"/>
      <line x1="167.156" y1="1629.130" x2="167.156" y2="1579.130"/>
      <line x1="168.156" y1="1629.130" x2="168.156" y2="1579.130"/>
      <line x1="169.156" y1="1629.130" x2="169.156" y2="1579.130"/>
      <line x1="170.156" y1="1629.130" x2="170.156" y2="1579.130"/>
      <line x1="171.156" y1="1629.130" x2="171.156" y2="1579.130"/>
      <line x1="172.156" y1="1629.130" x2="172.156" y2="1579.130"/>
      <line x1="173.156" y1="1629.130" x2="173.156" y2="1579.130"/>
      <line x1="174.156" y1="1629.130" x2="174.156" y2="1579.130"/>
      <line x1="175.156" y1="1629.130" x2="175.156" y2="1579.130"/>
      <line x1="176.156" y1="1629.130" x2="176.156" y2="1579.130"/>
      <line x1="177.156" y1="1629.130" x2="177.156" y2="1579.130"/>
      <line x1="178.156" y1="1629.130" x2="178.156" y2="1579.130"/>
      <line x1="179.156" y1="1629.130" x2="179.156" y2="1579.130"/>
      <line x1="180.156" y1="1629.130" x2="180.156" y2="1579.130"/>
      <line x1="181.156" y1="1629.130" x2="181.156" y2="1579.130"/>
      <line x1="182.156" y1="1629.130" x2="182.156" y2="1579.130"/>
      <line x1="184.156" y1="1629.130" x2="184.156" y2="1579.130"/>
      <line x1="185.156" y1="1629.130" x2="185.156" y2="1579.130"/>
      <line x1="186.156" y1="1629.130" x2="186.156" y2="1579.130"/>
      <line x1="187.156" y1="1629.130" x2="187.156" y2="1579.130"/>
      <line x1="188.156" y1="1629.130" x2="188.156" y2="1579.130"/>
      <line x1="189.156" y1="1629.130" x2="189.156" y2="1579.130"/>
      <line x1="190.156" y1="1629.130" x2="190.156" y2="1579.130"/>
      <line x1="191.156" y1="1629.130" x2="191.156" y2="1579.130"/>
      <line x1="192.156" y1="1629.130" x2="192.156" y2="1579.130"/>
      <line x1="193.156" y1="1629.130" x2="193.156" y2="1579.130"/>
      <line x1="194.156" y1="1629.130" x2="194.156" y2="1579.130"/>
      <line x1="195.156" y1="1629.130" x2="195.156" y2="1579.130"/>
      <line x1="196.156" y1="1629.130" x2="196.156" y2="1579.130"/>
      <line x1="197.156" y1="1629.130" x2="197.156" y2="1579.130"/>
      <line x1="198.156" y1="1629.130" x2="198.156" y2="1579.130"/>
      <line x1="199.156" y1="1629.130" x2="199.156" y2="1579.130"/>
      <line x1="200.156" y1="1629.130" x2="200.156" y2="1579.130"/>
      <line x1="201.156" y1="1629.130" x2="201.156" y2="1579.130"/>
      <line x1="202.156" y1="1629.130" x2="202.156" y2="1579.130"/>
      <line x1="203.156" y1="1629.130" x2="203.156" y2="1579.130"/>
      <line x1="204.156" y1="1629.130" x2="204.156" y2="1579.130"/>
      <line x1="205.156" y1="1629.130" x2="205.156" y2="1579.130"/>
      <line x1="206.156" y1="1629.130" x2="206.156" y2="1579.130"/>
      <line x1="207.156" y1="1629.130" x2="207.156" y2="1579.130"/>
      <line x1="208.156" y1="1629.130" x2="208.156" y2="1579.130"/>
      <line x1="209.156" y1="1629.130" x2="209.156" y2="1579.130"/>
      <line x1="210.156" y1="1629.130" x2="210.156" y2="1579.130"/>
      <line x1="211.156" y1="1629.130" x2="211.156" y2="1579.130"/>
      <line x1="212.156" y1="1629.130" x2="212.156" y2="1579.130"/>
      <line x1="213.156" y1="1629.130" x2="213.156" y2="1579.130"/>
      <line x1="214.156" y1="1629.130" x2="214.156" y2="1579.130"/>
      <line x1="215.156" y1="1629.130" x2="215.156" y2="1579.130"/>
      <line x1="216.156" y1="1629.130" x2="216.156" y2="1579.130"/>
      <line x1="217.156" y1="1629.130" x2="217.156" y2="1579.130"/>
      <line x1="218.156" y1="1629.130" x2="218.156" y2="1579.130"/>
      <line x1="219.156" y1="1629.130" x2="219.156" y2="1579.130"/>
      <line x1="220.156" y1="1629.130" x2="220.156" y2="1579.130"/>
      <line x1="221.156" y1="1629.130" x2="221.156" y2="1579.130"/>
      <line x1="222.156" y1="1629.130" x2="222.156" y2="1579.130"/>
      <line x1="223.156" y1="1629.130" x2="223.156" y2="1579.130"/>
      <line x1="224.156" y1="1629.130" x2="224.156" y2="1579.130"/>
      <line x1="225.156" y1="1629.130" x2="225.156" y2="1579.130"/>
      <line x1="226.156" y1="1629.130" x2="226.156" y2="1579.130"/>
      <line x1="227.156" y1="1629.130" x2="227.156" y2="1579.130"/>
      <line x1="228.156" y1="1629.130" x2="228.156" y2="1579.130"/>
      <line x1="229.156" y1="1629.130" x2="229.156" y2="1579.130"/>
      <line x1="230.156" y1="1629.130" x2="230.156" y2="1579.130"/>
      <line x1="231.156" y1="1629.130" x2="231.156" y2="1579.130"/>
      <line x1="232.156" y1="1629.130" x2="232.156" y2="1579.130"/>
      <line x1="233.156" y1="1629.130" x2="233.156" y2="1579.130"/>
      <line x1="234.156" y1="1629.130" x2="234.156" y2="1579.130"/>
      <line x1="235.156" y1="1629.130" x2="235.156" y2="1579.130"/>
      <line x1="236.156" y1="1629.130" x2="236.156" y2="1579.130"/>
      <line x1="237.156" y1="1629.130" x2="237.156" y2="1579.130"/>
      <line x1="238.156" y1="1629.130" x2="238.156" y2="1579.130"/>
      <line x1="239.156" y1="1629.130" x2="239.156" y2="1579.130"/>
      <line x1="240.156" y1="1629.130" x2="240.156" y2="1579.130"/>
      <line x1="241.156" y1="1629.130" x2="241.156" y2="1579.130"/>
      <line x1="242.156" y1="1629.130" x2="242.156" y2="1579.130"/>
      <line x1="243.156" y1="1629.130" x2="243.156" y2="1579.130"/>
      <line x1="244.156" y1="1629.130" x2="244.156" y2="1579.130"/>
      <line x1="245.156" y1="1629.130" x2="245.156" y2="1579.130"/>
      <line x1="246.156" y1="1629.130" x2="246.156" y2="1579.130"/>
      <line x1="247.156" y1="1629.130" x2="247.156" y2="1579.130"/>
      <line x1="248.156" y1="1629.130" x2="248.156" y2="1579.130"/>
      <line x1="249.156" y1="1629.130" x2="249.156" y2="1579.130"/>
      <line x1="250.156" y1="1629.130" x2="250.156" y2="1579.130"/>
      <line x1="251.156" y1="1629.130" x2="251.156" y2="1579.130"/>
      <line x1="252.156" y1="1629.130" x2="252.156" y2="1579.130"/>
      <line x1="253.156" y1="1629.130" x2="253.156" y2="1579.130"/>
      <line x1="254.156" y1="1629.130" x2="254.156" y2="1579.130"/>
      <line x1="255.156" y1="1629.130" x2="255.156" y2="1579.130"/>
      <line x1="256.156" y1="1629.130" x2="256.156" y2="1579.130"/>
      <line x1="257.156" y1="1629.130" x2="257.156" y2="1579.130"/>
      <line x1="258.156" y1="1629.130" x2="258.156" y2="1579.130"/>
      <line x1="259.156" y1="1629.130" x2="259.156" y2="1579.130"/>
      <line x1="260.156" y1="1629.130" x2="260.156" y2="1579.130"/>
      <line x1="261.156" y1="1629.130" x2="261.156" y2="1579.130"/>
      <line x1="262.156" y1="1629.130" x2="262.156" y2="1579.130"/>
      <line x1="263.156" y1="1629.130" x2="263.156" y2="1579.130"/>
      <line x1="264.156" y1="1629.130" x2="264.156" y2="1579.130"/>
      <line x1="265.156" y1="1629.130" x2="265.156" y2="1579.130"/>
      <line x1="266.156" y1="1629.130" x2="266.156" y2="1579.130"/>
      <line x1="267.156" y1="1629.130" x2="267.156" y2="1579.130"/>
      <line x1="268.156" y1="1629.130" x2="268.156" y2="1579.130"/>
      <line x1="269.156" y1="1629.130" x2="269.156" y2="1579.130"/>
      <line x1="270.156" y1="1629.130" x2="270.156" y2="1579.130"/>
      <line x1="271.156" y1="1629.130" x2="271.156" y2="1579.130"/>
      <line x1="272.156" y1="1629.130" x2="272.156" y2="1579.130"/>
      <line x1="273.156" y1="1629.130" x2="273.156" y2="1579.130"/>
      <line x1="274.156" y1="1629.130" x2="274.156" y2="1579.130"/>
      <line x1="275.156" y1="1629.130" x2="275.156" y2="1579.130"/>
      <line x1="276.156" y1="1629.130" x2="276.156" y2="1579.130"/>
      <line x1="277.156" y1="1629.130" x2="277.156" y2="1579.130"/>
      <line x1="278.156" y1="1629.130" x2="278.156" y2="1579.130"/>
      <line x1="279.156" y1="1629.130" x2="279.156" y2="1579.130"/>
      <line x1="280.156" y1="1629.130" x2="280.156" y2="1579.130"/>
      <line x1="281.156" y1="1629.130" x2="281.156" y2="1579.130"/>
      <line x1="282.156" y1="1629.130" x2="282.156" y2="1579.130"/>
      <line x1="283.156" y1="1629.130" x2="283.156" y2="1579.130"/>
      <line x1="284.156" y1="1629.130" x2="284.156" y2="1579.130"/>
      <line x1="285.156" y1="1629.130" x2="285.156" y2="1579.130"/>
      <line x1="286.156" y1="1629.130" x2="286.156" y2="1579.130"/>
      <line x1="287.156" y1="1629.130" x2="287.156" y2="1579.130"/>
      <line x1="288.156" y1="1629.130" x2="288.156" y2="1579.130"/>
      <line x1="289.156" y1="1629.130" x2="289.156" y2="1579.130"/>
      <line x1="290.156" y1="1629.130" x2="290.156" y2="1579.130"/>
      <line x1="291.156" y1="1629.130" x2="291.156" y2="1579.130"/>
      <line x1="292.156" y1="1629.130" x2="292.156" y2="1579.130"/>
      <line x1="293.156" y1="1629.130" x2="293.156" y2="1579.130"/>
      <line x1="294.156" y1="1629.130" x2="294.156" y2="1579.130"/>
      <line x1="295.156" y1="1629.130" x2="295.156" y2="1579.130"/>
      <line x1="296.156" y1="1629.130" x2="296.156" y2="1579.130"/>
      <line x1="297.156" y1="1629.130" x2="297.156" y2="1579.130"/>
      <line x1="298.156" y1="1629.130" x2="298.156" y2="1579.130"/>
      <line x1="299.156" y1="1629.130" x2="299.156" y2="1579.130"/>
      <line x1="300.156" y1="1629.130" x2="300.156" y2="1579.130"/>
      <line x1="301.156" y1="1629.130" x2="301.156" y2="1579.130"/>
      <line x1="302.156" y1="1629.130" x2="302.156" y2="1579.130"/>
      <line x1="303.156" y1="1629.130" x2="303.156" y2="1579.130"/>
      <line x1="304.156" y1="1629.130" x2="304.156" y2="1579.130"/>
      <line x1="305.156" y1="1629.130" x2="305.156" y2="1579.130"/>
      <line x1="306.156" y1="1629.130" x2="306.156" y2="1579.130"/>
      <line x1="307.156" y1="1629.130" x2="307.156" y2="1579.130"/>
      <line x1="308.156" y1="1629.130" x2="308.156" y2="1579.130"/>
      <line x1="309.156" y1="1629.130" x2="309.156" y2="1579.130"/>
      <line x1="310.156" y1="1629.130" x2="310.156" y2="1579.130"/>
      <line x1="311.156" y1="1629.130" x2="311.156" y2="1579.130"/>
      <line x1="312.156" y1="1629.130" x2="312.156" y2="1579.130"/>
      <line x1="313.156" y1="1629.130" x2="313.156" y2="1579.130"/>
      <line x1="314.156" y1="1629.130" x2="314.156" y2="1579.130"/>
      <line x1="315.156" y1="1629.130" x2="315.156" y2="1579.130"/>
      <line x1="316.156" y1="1629.130" x2="316.156" y2="1579.130"/>
      <line x1="317.156" y1="1629.130" x2="317.156" y2="1579.130"/>
      <line x1="318.156" y1="1629.130" x2="318.156" y2="1579.130"/>
      <line x1="319.156" y1="1629.130" x2="319.156" y2="1579.130"/>
      <line x1="320.156" y1="1629.130" x2="320.156" y2="1579.130"/>
      <line x1="321.156" y1="1629.130" x2="321.156" y2="1579.130"/>
      <line x1="322.156" y1="1629.130" x2="322.156" y2="1579.130"/>
      <line x1="323.156" y1="1629.130" x2="323.156" y2="1579.130"/>
      <line x1="324.156" y1="1629.130" x2="324.156" y2="1579.130"/>
      <line x1="325.156" y1="1629.130" x2="325.156" y2="1579.130"/>
      <line x1="326.156" y1="1629.130" x2="326.156" y2="1579.130"/>
      <line x1="327.156" y1="1629.130" x2="327.156" y2="1579.130"/>
      <line x1="328.156" y1="1629.130" x2="328.156" y2="1579.130"/>
      <line x1="329.156" y1="1629.130" x2="329.156" y2="1579.130"/>
      <line x1="330.156" y1="1629.130" x2="330.156" y2="1579.130"/>
      <line x1="331.156" y1="1629.130" x2="331.156" y2="1579.130"/>
      <line x1="332.156" y1="1629.130" x2="332.156" y2="1579.130"/>
      <line x1="333.156" y1="1629.130" x2="333.156" y2="1579.130"/>
      <line x1="334.156" y1="1629.130" x2="334.156" y2="1579.130"/>
      <line x1="335.156" y1="1629.130" x2="335.156" y2="1579.130"/>
      <line x1="336.156" y1="1629.130" x2="336.156" y2="1579.130"/>
      <line x1="337.156" y1="1629.130" x2="337.156" y2="1579.130"/>
      <line x1="338.156" y1="1629.130" x2="338.156" y2="1579.130"/>
      <line x1="339.156" y1="1629.130" x2="339.156" y2="1579.130"/>
      <line x1="340.156" y1="1629.130" x2="340.156" y2="1579.130"/>
      <line x1="341.156" y1="1629.130" x2="341.156" y2="1579.130"/>
      <line x1="342.156" y1="1629.130" x2="342.156" y2="1579.130"/>
      <line x1="343.156" y1="1629.130" x2="343.156" y2="1579.130"/>
      <line x1="344.156" y1="1629.130" x2="344.156" y2="1579.130"/>
      <line x1="345.156" y1="1629.130" x2="345.156" y2="1579.130"/>
      <line x1="346.156" y1="1629.130" x2="346.156" y2="1579.130"/>
      <line x1="347.156" y1="1629.130" x2="347.156" y2="1579.130"/>
      <line x1="348.156" y1="1629.130" x2="348.156" y2="1579.130"/>
      <line x1="349.156" y1="1629.130" x2="349.156" y2="1579.130"/>
      <line x1="350.156" y1="1629.130" x2="350.156" y2="1579.130"/>
      <line x1="351.156" y1="1629.130" x2="351.156" y2="1579.130"/>
      <line x1="352.156" y1="1629.130" x2="352.156" y2="1579.130"/>
      <line x1="353.156" y1="1629.130" x2="353.156" y2="1579.130"/>
      <line x1="354.156" y1="1629.130" x2="354.156" y2="1579.130"/>
      <line x1="355.156" y1="1629.130" x2="355.156" y2="1579.130"/>
      <line x1="356.156" y1="1629.130" x2="356.156" y2="1579.130"/>
      <line x1="357.156" y1="1629.130" x2="357.156" y2="1579.130"/>
      <line x1="358.156" y1="1629.130" x2="358.156" y2="1579.130"/>
      <line x1="359.156" y1="1629.130" x2="359.156" y2="1579.130"/>
      <line x1="360.156" y1="1629.130" x2="360.156" y2="1579.130"/>
      <line x1="361.156" y1="1629.130" x2="361.156" y2="1579.130"/>
      <line x1="362.156" y1="1629.130" x2="362.156" y2="1579.130"/>
      <line x1="363.156" y1="1629.130" x2="363.156" y2="1579.130"/>
      <line x1="364.156" y1="1629.130" x2="364.156" y2="1579.130"/>
      <line x1="365.156" y1="1629.130" x2="365.156" y2="1579.130"/>
      <line x1="366.156" y1="1629.130" x2="366.156" y2="1579.130"/>
      <line x1="367.156" y1="1629.130" x2="367.156" y2="1579.130"/>
      <line x1="368.156" y1="1629.130" x2="368.156" y2="1579.130"/>
      <line x1="369.156" y1="1629.130" x2="369.156" y2="1579.130"/>
      <line x1="370.156" y1="1629.130" x2="370.156" y2="1579.130"/>
      <line x1="371.156" y1="1629.130" x2="371.156" y2="1579.130"/>
      <line x1="372.156" y1="1629.130" x2="372.156" y2="1579.130"/>
      <line x1="373.156" y1="1629.130" x2="373.156" y2="1579.130"/>
      <line x1="374.156" y1="1629.130" x2="374.156" y2="1579.130"/>
      <line x1="375.156" y1="1629.130" x2="375.156" y2="1579.130"/>
      <line x1="376.156" y1="1629.130" x2="376.156" y2="1579.130"/>
      <line x1="377.156" y1="1629.130" x2="377.156" y2="1579.130"/>
      <line x1="378.156" y1="1629.130" x2="378.156" y2="1579.130"/>
      <line x1="379.156" y1="1629.130" x2="379.156" y2="1579.130"/>
      <line x1="380.156" y1="1629.130" x2="380.156" y2="1579.130"/>
      <line x1="381.156" y1="1629.130" x2="381.156" y2="1579.130"/>
      <line x1="382.156" y1="1629.130" x2="382.156" y2="1579.130"/>
      <line x1="383.156" y1="1629.130" x2="383.156" y2="1579.130"/>
      <line x1="384.156" y1="1629.130" x2="384.156" y2="1579.130"/>
      <line x1="385.156" y1="1629.130" x2="385.156" y2="1579.130"/>
      <line x1="386.156" y1="1629.130" x2="386.156" y2="1579.130"/>
      <line x1="387.156" y1="1629.130" x2="387.156" y2="1579.130"/>
      <line x1="388.156" y1="1629.130" x2="388.156" y2="1579.130"/>
      <line x1="389.156" y1="1629.130" x2="389.156" y2="1579.130"/>
      <line x1="390.156" y1="1629.130" x2="390.156" y2="1579.130"/>
      <line x1="391.156" y1="1629.130" x2="391.156" y2="1579.130"/>
      <line x1="392.156" y1="1629.130" x2="392.156" y2="1579.130"/>
      <line x1="393.156" y1="1629.130" x2="393.156" y2="1579.130"/>
      <line x1="394.156" y1="1629.130" x2="394.156" y2="1579.130"/>
      <line x1="395.156" y1="1629.130" x2="395.156" y2="1579.130"/>
      <line x1="396.156" y1="1629.130" x2="396.156" y2="1579.130"/>
      <line x1="397.156" y1="1629.130" x2="397.156" y2="1579.130"/>
      <line x1="398.156" y1="1629.130" x2="398.156" y2="1579.130"/>
      <line x1="399.156" y1="1629.130" x2="399.156" y2="1579.130"/>
      <line x1="400.156" y1="1629.130" x2="400.156" y2="1579.130"/>
      <line x1="401.156" y1="1629.130" x2="401.156" y2="1579.130"/>
      <line x1="402.156" y1="1629.130" x2="402.156" y2="1579.130"/>
      <line x1="403.156" y1="1629.130" x2="403.156" y2="1579.130"/>
      <line x1="404.156" y1="1629.130" x2="404.156" y2="1579.130"/>
      <line x1="405.156" y1="1629.130" x2="405.156" y2="1579.130"/>
      <line x1="406.156" y1="1629.130" x2="406.156" y2="1579.130"/>
      <line x1="407.156" y1="1629.130" x2="407.156" y2="1579.130"/>
      <line x1="408.156" y1="1629.130" x2="408.156" y2="1579.130"/>
      <line x1="409.156" y1="1629.130" x2="409.156" y2="1579.130"/>
      <line x1="410.156" y1="1629.130" x2="410.156" y2="1579.130"/>
      <line x1="411.156" y1="1629.130" x2="411.156" y2="1579.130"/>
      <line x1="412.156" y1="1629.130" x2="412.156" y2="1579.130"/>
      <line x1="413.156" y1="1629.130" x2="413.156" y2="1579.130"/>
      <line x1="414.156" y1="1629.130" x2="414.156" y2="1579.130"/>
      <line x1="415.156" y1="1629.130" x2="415.156" y2="1579.130"/>
      <line x1="416.156" y1="1629.130" x2="416.156" y2="1579.130"/>
      <line x1="417.156" y1="1629.130" x2="417.156" y2="1579.130"/>
      <line x1="418.156" y1="1629.130" x2="418.156" y2="1579.130"/>
      <line x1="419.156" y1="1629.130" x2="419.156" y2="1579.130"/>
      <line x1="420.156" y1="1629.130" x2="420.156" y2="1579.130"/>
      <line x1="421.156" y1="1629.130" x2="421.156" y2="1579.130"/>
      <line x1="422.156" y1="1629.130" x2="422.156" y2="1579.130"/>
      <line x1="423.156" y1="1629.130" x2="423.156" y2="1579.130"/>
      <line x1="424.156" y1="1629.130" x2="424.156" y2="1579.130"/>
      <line x1="425.156" y1="1629.130" x2="425.156" y2="1579.130"/>
      <line x1="426.156" y1="1629.130" x2="426.156" y2="1579.130"/>
      <line x1="427.156" y1="1629.130" x2="427.156" y2="1579.130"/>
      <line x1="428.156" y1="1629.130" x2="428.156" y2="1579.130"/>
      <line x1="429.156" y1="1629.130" x2="429.156" y2="1579.130"/>
      <line x1="430.156" y1="1629.130" x2="430.156" y2="1579.130"/>
      <line x1="431.156" y1="1629.130" x2="431.156" y2="1579.130"/>
      <line x1="432.156" y1="1629.130" x2="432.156" y2="1579.130"/>
      <line x1="433.156" y1="1629.130" x2="433.156" y2="1579.130"/>
      <line x1="434.156" y1="1629.130" x2="434.156" y2="1579.130"/>
      <line x1="435.156" y1="1629.130" x2="435.156" y2="1579.130"/>
      <line x1="436.156" y1="1629.130" x2="436.156" y2="1579.130"/>
      <line x1="437.156" y1="1629.130" x2="437.156" y2="1579.130"/>
      <line x1="438.156" y1="1629.130" x2="438.156" y2="1579.130"/>
      <line x1="439.156" y1="1629.130" x2="439.156" y2="1579.130"/>
      <line x1="440.156" y1="1629.130" x2="440.156" y2="1579.130"/>
      <line x1="441.156" y1="1629.130" x2="441.156" y2="1579.130"/>
      <line x1="442.156" y1="1629.130" x2="442.156" y2="1579.130"/>
      <line x1="443.156" y1="1629.130" x2="443.156" y2="1579.130"/>
      <line x1="444.156" y1="1629.130" x2="444.156" y2="1579.130"/>
      <line x1="445.156" y1="1629.130" x2="445.156" y2="1579.130"/>
      <line x1="446.156" y1="1629.130" x2="446.156" y2="1579.130"/>
      <line x1="447.156" y1="1629.130" x2="447.156" y2="1579.130"/>
      <line x1="448.156" y1="1629.130" x2="448.156" y2="1579.130"/>
      <line x1="449.156" y1="1629.130" x2="449.156" y2="1579.130"/>
      <line x1="450.156" y1="1629.130" x2="450.156" y2="1579.130"/>
      <line x1="451.156" y1="1629.130" x2="451.156" y2="1579.130"/>
      <line x1="452.156" y1="1629.130" x2="452.156" y2="1579.130"/>
      <line x1="453.156" y1="1629.130" x2="453.156" y2="1579.130"/>
      <line x1="454.156" y1="1629.130" x2="454.156" y2="1579.130"/>
      <line x1="455.156" y1="1629.130" x2="455.156" y2="1579.130"/>
      <line x1="456.156" y1="1629.130" x2="456.156" y2="1579.130"/>
      <line x1="457.156" y1="1629.130" x2="457.156" y2="1579.130"/>
      <line x1="458.156" y1="1629.130" x2="458.156" y2="1579.130"/>
      <line x1="459.156" y1="1629.130" x2="459.156" y2="1579.130"/>
      <line x1="460.156" y1="1629.130" x2="460.156" y2="1579.130"/>
      <line x1="461.156" y1="1629.130" x2="461.156" y2="1579.130"/>
      <line x1="462.156" y1="1629.130" x2="462.156" y2="1579.130"/>
      <line x1="463.156" y1="1629.130" x2="463.156" y2="1579.130"/>
      <line x1="464.156" y1="1629.130" x2="464.156" y2="1579.130"/>
      <line x1="465.156" y1="1629.130" x2="465.156" y2="1579.130"/>
      <line x1="466.156" y1="1629.130" x2="466.156" y2="1579.130"/>
      <line x1="133.156" y1="1579.030" x2="133.156" y2="1529.030"/>
      <line x1="134.156" y1="1579.030" x2="134.156" y2="1529.030"/>
      <line x1="135.156" y1="1579.030" x2="135.156" y2="1529.030"/>
      <line x1="136.156" y1="1579.030" x2="136.156" y2="1529.030"/>
      <line x1="137.156" y1="1579.030" x2="137.156" y2="1529.030"/>
      <line x1="138.156" y1="1579.030" x2="138.156" y2="1529.030"/>
      <line x1="139.156" y1="1579.030" x2="139.156" y2="1529.030"/>
      <line x1="140.156" y1="1579.030" x2="140.156" y2="1529.030"/>
      <line x1="141.156" y1="1579.030" x2="141.156" y2="1529.030"/>
      <line x1="142.156" y1="1579.030" x2="142.156" y2="1529.030"/>
      <line x1="143.156" y1="1579.030" x2="143.156" y2="1529.030"/>
      <line x1="144.156" y1="1579.030" x2="144.156" y2="1529.030"/>
      <line x1="145.156" y1="1579.030" x2="145.156" y2="1529.030"/>
      <line x1="146.156" y1="1579.030" x2="146.156" y2="1529.030"/>
      <line x1="147.156" y1="1579.030" x2="147.156" y2="1529.030"/>
      <line x1="148.156" y1="1579.030" x2="148.156" y2="1529.030"/>
      <line x1="149.156" y1="1579.030" x2="149.156" y2="1529.030"/>
      <line x1="150.156" y1="1579.030" x2="150.156" y2="1529.030"/>
      <line x1="151.156" y1="1579.030" x2="151.156" y2="1529.030"/>
      <line x1="152.156" y1="1579.030" x2="152.156" y2="1529.030"/>
      <line x1="153.156" y1="1579.030" x2="153.156" y2="1529.030"/>
      <line x1="154.156" y1="1579.030" x2="154.156" y2="1529.030"/>
      <line x1="155.156" y1="1579.030" x2="155.156" y2="1529.030"/>
      <line x1="156.156" y1="1579.030" x2="156.156" y2="1529.030"/>
      <line x1="157.156" y1="1579.030" x2="157.156" y2="1529.030"/>
      <line x1="158.156" y1="1579.030" x2="158.156" y2="1529.030"/>
      <line x1="159.156" y1="1579.030" x2="159.156" y2="1529.030"/>
      <line x1="160.156" y1="1579.030" x2="160.156" y2="1529.030"/>
      <line x1="161.156" y1="1579.030" x2="161.156" y2="1529.030"/>
      <line x1="162.156" y1="1579.030" x2="162.156" y2="1529.030"/>
      <line x1="163.156" y1="1579.030" x2="163.156" y2="1529.030"/>
      <line x1="164.156" y1="1579.030" x2="164.156" y2="1529.030"/>
      <line x1="165.156" y1="1579.030" x2="165.156" y2="1529.030"/>
      <line x1="166.156" y1="1579.030" x2="166.156" y2="1529.030"/>
      <line x1="167.156" y1="1579.030" x2="167.156" y2="1529.030"/>
      <line x1="168.156" y1="1579.030" x2="168.156" y2="1529.030"/>
      <line x1="169.156" y1="1579.030" x2="169.156" y2="1529.030"/>
      <line x1="170.156" y1="1579.030" x2="170.156" y2="1529.030"/>
      <line x1="171.156" y1="1579.030" x2="171.156" y2="1529.030"/>
      <line x1="172.156" y1="1579.030" x2="172.156" y2="1529.030"/>
      <line x1="173.156" y1="1579.030" x2="173.156" y2="1529.030"/>
      <line x1="174.156" y1="1579.030" x2="174.156" y2="1529.030"/>
      <line x1="175.156" y1="1579.030" x2="175.156" y2="1529.030"/>
      <line x1="176.156" y1="1579.030" x2="176.156" y2="1529.030"/>
      <line x1="177.156" y1="1579.030" x2="177.156" y2="1529.030"/>
      <line x1="178.156" y1="1579.030" x2="178.156" y2="1529.030"/>
      <line x1="179.156" y1="1579.030" x2="179.156" y2="1529.030"/>
      <line x1="180.156" y1="1579.030" x2="180.156" y2="1529.030"/>
      <line x1="181.156" y1="1579.030" x2="181.156" y2="1529.030"/>
      <line x1="182.156" y1="1579.030" x2="182.156" y2="1529.030"/>
      <line x1="184.156" y1="1579.030" x2="184.156" y2="1529.030"/>
      <line x1="185.156" y1="1579.030" x2="185.156" y2="1529.030"/>
      <line x1="186.156" y1="1579.030" x2="186.156" y2="1529.030"/>
      <line x1="187.156" y1="1579.030" x2="187.156" y2="1529.030"/>
      <line x1="188.156" y1="1579.030" x2="188.156" y2="1529.030"/>
      <line x1="189.156" y1="1579.030" x2="189.156" y2="1529.030"/>
      <line x1="190.156" y1="1579.030" x2="190.156" y2="1529.030"/>
      <line x1="191.156" y1="1579.030" x2="191.156" y2="1529.030"/>
      <line x1="192.156" y1="1579.030" x2="192.156" y2="1529.030"/>
      <line x1="193.156" y1="1579.030" x2="193.156" y2="1529.030"/>
      <line x1="194.156" y1="1579.030" x2="194.156" y2="1529.030"/>
      <line x1="195.156" y1="1579.030" x2="195.156" y2="1529.030"/>
      <line x1="196.156" y1="1579.030" x2="196.156" y2="1529.030"/>
      <line x1="197.156" y1="1579.030" x2="197.156" y2="1529.030"/>
      <line x1="198.156" y1="1579.030" x2="198.156" y2="1529.030"/>
      <line x1="199.156" y1="1579.030" x2="199.156" y2="1529.030"/>
      <line x1="200.156" y1="1579.030" x2="200.156" y2="1529.030"/>
      <line x1="201.156" y1="1579.030" x2="201.156" y2="1529.030"/>
      <line x1="202.156" y1="1579.030" x2="202.156" y2="1529.030"/>
      <line x1="203.156" y1="1579.030" x2="203.156" y2="1529.030"/>
      <line x1="204.156" y1="1579.030" x2="204.156" y2="1529.030"/>
      <line x1="205.156" y1="1579.030" x2="205.156" y2="1529.030"/>
      <line x1="206.156" y1="1579.030" x2="206.156" y2="1529.030"/>
      <line x1="207.156" y1="1579.030" x2="207.156" y2="1529.030"/>
      <line x1="208.156" y1="1579.030" x2="208.156" y2="1529.030"/>
      <line x1="209.156" y1="1579.030" x2="209.156" y2="1529.030"/>
      <line x1="210.156" y1="1579.030" x2="210.156" y2="1529.030"/>
      <line x1="211.156" y1="1579.030" x2="211.156" y2="1529.030"/>
      <line x1="212.156" y1="1579.030" x2="212.156" y2="1529.030"/>
      <line x1="213.156" y1="1579.030" x2="213.156" y2="1529.030"/>
      <line x1="214.156" y1="1579.030" x2="214.156" y2="1529.030"/>
      <line x1="215.156" y1="1579.030" x2="215.156" y2="1529.030"/>
      <line x1="216.156" y1="1579.030" x2="216.156" y2="1529.030"/>
      <line x1="217.156" y1="1579.030" x2="217.156" y2="1529.030"/>
      <line x1="218.156" y1="1579.030" x2="218.156" y2="1529.030"/>
      <line x1="219.156" y1="1579.030" x2="219.156" y2="1529.030"/>
      <line x1="220.156" y1="1579.030" x2="220.156" y2="1529.030"/>
      <line x1="221.156" y1="1579.030" x2="221.156" y2="1529.030"/>
      <line x1="222.156" y1="1579.030" x2="222.156" y2="1529.030"/>
      <line x1="223.156" y1="1579.030" x2="223.156" y2="1529.030"/>
      <line x1="224.156" y1="1579.030" x2="224.156" y2="1529.030"/>
      <line x1="225.156" y1="1579.030" x2="225.156" y2="1529.030"/>
      <line x1="226.156" y1="1579.030" x2="226.156" y2="1529.030"/>
      <line x1="227.156" y1="1579.030" x2="227.156" y2="1529.030"/>
      <line x1="228.156" y1="1579.030" x2="228.156" y2="1529.030"/>
      <line x1="229.156" y1="1579.030" x2="229.156" y2="1529.030"/>
      <line x1="230.156" y1="1579.030" x2="230.156" y2="1529.030"/>
      <line x1="231.156" y1="1579.030" x2="231.156" y2="1529.030"/>
      <line x1="232.156" y1="1579.030" x2="232.156" y2="1529.030"/>
      <line x1="233.156" y1="1579.030" x2="233.156" y2="1529.030"/>
      <line x1="234.156" y1="1579.030" x2="234.156" y2="1529.030"/>
      <line x1="235.156" y1="1579.030" x2="235.156" y2="1529.030"/>
      <line x1="236.156" y1="1579.030" x2="236.156" y2="1529.030"/>
      <line x1="237.156" y1="1579.030" x2="237.156" y2="1529.030"/>
      <line x1="238.156" y1="1579.030" x2="238.156" y2="1529.030"/>
      <line x1="239.156" y1="1579.030" x2="239.156" y2="1529.030"/>
      <line x1="240.156" y1="1579.030" x2="240.156" y2="1529.030"/>
      <line x1="241.156" y1="1579.030" x2="241.156" y2="1529.030"/>
      <line x1="242.156" y1="1579.030" x2="242.156" y2="1529.030"/>
      <line x1="243.156" y1="1579.030" x2="243.156" y2="1529.030"/>
      <line x1="244.156" y1="1579.030" x2="244.156" y2="1529.030"/>
      <line x1="245.156" y1="1579.030" x2="245.156" y2="1529.030"/>
      <line x1="246.156" y1="1579.030" x2="246.156" y2="1529.030"/>
      <line x1="247.156" y1="1579.030" x2="247.156" y2="1529.030"/>
      <line x1="248.156" y1="1579.030" x2="248.156" y2="1529.030"/>
      <line x1="249.156" y1="1579.030" x2="249.156" y2="1529.030"/>
      <line x1="250.156" y1="1579.030" x2="250.156" y2="1529.030"/>
      <line x1="251.156" y1="1579.030" x2="251.156" y2="1529.030"/>
      <line x1="252.156" y1="1579.030" x2="252.156" y2="1529.030"/>
      <line x1="253.156" y1="1579.030" x2="253.156" y2="1529.030"/>
      <line x1="254.156" y1="1579.030" x2="254.156" y2="1529.030"/>
      <line x1="255.156" y1="1579.030" x2="255.156" y2="1529.030"/>
      <line x1="256.156" y1="1579.030" x2="256.156" y2="1529.030"/>
      <line x1="257.156" y1="1579.030" x2="257.156" y2="1529.030"/>
      <line x1="258.156" y1="1579.030" x2="258.156" y2="1529.030"/>
      <line x1="259.156" y1="1579.030" x2="259.156" y2="1529.030"/>
      <line x1="260.156" y1="1579.030" x2="260.156" y2="1529.030"/>
      <line x1="261.156" y1="1579.030" x2="261.156" y2="1529.030"/>
      <line x1="262.156" y1="1579.030" x2="262.156" y2="1529.030"/>
      <line x1="263.156" y1="1579.030" x2="263.156" y2="1529.030"/>
      <line x1="264.156" y1="1579.030" x2="264.156" y2="1529.030"/>
      <line x1="265.156" y1="1579.030" x2="265.156" y2="1529.030"/>
      <line x1="266.156" y1="1579.030" x2="266.156" y2="1529.030"/>
      <line x1="267.156" y1="1579.030" x2="267.156" y2="1529.030"/>
      <line x1="268.156" y1="1579.030" x2="268.156" y2="1529.030"/>
      <line x1="269.156" y1="1579.030" x2="269.156" y2="1529.030"/>
      <line x1="270.156" y1="1579.030" x2="270.156" y2="1529.030"/>
      <line x1="271.156" y1="1579.030" x2="271.156" y2="1529.030"/>
      <line x1="272.156" y1="1579.030" x2="272.156" y2="1529.030"/>
      <line x1="273.156" y1="1579.030" x2="273.156" y2="1529.030"/>
      <line x1="274.156" y1="1579.030" x2="274.156" y2="1529.030"/>
      <line x1="275.156" y1="1579.030" x2="275.156" y2="1529.030"/>
      <line x1="276.156" y1="1579.030" x2="276.156" y2="1529.030"/>
      <line x1="277.156" y1="1579.030" x2="277.156" y2="1529.030"/>
      <line x1="278.156" y1="1579.030" x2="278.156" y2="1529.030"/>
      <line x1="279.156" y1="1579.030" x2="279.156" y2="1529.030"/>
      <line x1="280.156" y1="1579.030" x2="280.156" y2="1529.030"/>
      <line x1="281.156" y1="1579.030" x2="281.156" y2="1529.030"/>
      <line x1="282.156" y1="1579.030" x2="282.156" y2="1529.030"/>
      <line x1="283.156" y1="1579.030" x2="283.156" y2="1529.030"/>
      <line x1="284.156" y1="1579.030" x2="284.156" y2="1529.030"/>
      <line x1="285.156" y1="1579.030" x2="285.156" y2="1529.030"/>
      <line x1="286.156" y1="1579.030" x2="286.156" y2="1529.030"/>
      <line x1="287.156" y1="1579.030" x2="287.156" y2="1529.030"/>
      <line x1="288.156" y1="1579.030" x2="288.156" y2="1529.030"/>
      <line x1="289.156" y1="1579.030" x2="289.156" y2="1529.030"/>
      <line x1="290.156" y1="1579.030" x2="290.156" y2="1529.030"/>
      <line x1="291.156" y1="1579.030" x2="291.156" y2="1529.030"/>
      <line x1="292.156" y1="1579.030" x2="292.156" y2="1529.030"/>
      <line x1="293.156" y1="1579.030" x2="293.156" y2="1529.030"/>
      <line x1="294.156" y1="1579.030" x2="294.156" y2="1529.030"/>
      <line x1="295.156" y1="1579.030" x2="295.156" y2="1529.030"/>
      <line x1="296.156" y1="1579.030" x2="296.156" y2="1529.030"/>
      <line x1="297.156" y1="1579.030" x2="297.156" y2="1529.030"/>
      <line x1="298.156" y1="1579.030" x2="298.156" y2="1529.030"/>
      <line x1="299.156" y1="1579.030" x2="299.156" y2="1529.030"/>
      <line x1="300.156" y1="1579.030" x2="300.156" y2="1529.030"/>
      <line x1="301.156" y1="1579.030" x2="301.156" y2="1529.030"/>
      <line x1="302.156" y1="1579.030" x2="302.156" y2="1529.030"/>
      <line x1="303.156" y1="1579.030" x2="303.156" y2="1529.030"/>
      <line x1="304.156" y1="1579.030" x2="304.156" y2="1529.030"/>
      <line x1="305.156" y1="1579.030" x2="305.156" y2="1529.030"/>
      <line x1="306.156" y1="1579.030" x2="306.156" y2="1529.030"/>
      <line x1="307.156" y1="1579.030" x2="307.156" y2="1529.030"/>
      <line x1="308.156" y1="1579.030" x2="308.156" y2="1529.030"/>
      <line x1="309.156" y1="1579.030" x2="309.156" y2="1529.030"/>
      <line x1="310.156" y1="1579.030" x2="310.156" y2="1529.030"/>
      <line x1="311.156" y1="1579.030" x2="311.156" y2="1529.030"/>
      <line x1="312.156" y1="1579.030" x2="312.156" y2="1529.030"/>
      <line x1="313.156" y1="1579.030" x2="313.156" y2="1529.030"/>
      <line x1="314.156" y1="1579.030" x2="314.156" y2="1529.030"/>
      <line x1="315.156" y1="1579.030" x2="315.156" y2="1529.030"/>
      <line x1="316.156" y1="1579.030" x2="316.156" y2="1529.030"/>
      <line x1="317.156" y1="1579.030" x2="317.156" y2="1529.030"/>
      <line x1="318.156" y1="1579.030" x2="318.156" y2="1529.030"/>
      <line x1="319.156" y1="1579.030" x2="319.156" y2="1529.030"/>
      <line x1="320.156" y1="1579.030" x2="320.156" y2="1529.030"/>
      <line x1="321.156" y1="1579.030" x2="321.156" y2="1529.030"/>
      <line x1="322.156" y1="1579.030" x2="322.156" y2="1529.030"/>
      <line x1="323.156" y1="1579.030" x2="323.156" y2="1529.030"/>
      <line x1="324.156" y1="1579.030" x2="324.156" y2="1529.030"/>
      <line x1="325.156" y1="1579.030" x2="325.156" y2="1529.030"/>
      <line x1="326.156" y1="1579.030" x2="326.156" y2="1529.030"/>
      <line x1="327.156" y1="1579.030" x2="327.156" y2="1529.030"/>
      <line x1="328.156" y1="1579.030" x2="328.156" y2="1529.030"/>
      <line x1="329.156" y1="1579.030" x2="329.156" y2="1529.030"/>
      <line x1="330.156" y1="1579.030" x2="330.156" y2="1529.030"/>
      <line x1="331.156" y1="1579.030" x2="331.156" y2="1529.030"/>
      <line x1="332.156" y1="1579.030" x2="332.156" y2="1529.030"/>
      <line x1="333.156" y1="1579.030" x2="333.156" y2="1529.030"/>
      <line x1="334.156" y1="1579.030" x2="334.156" y2="1529.030"/>
      <line x1="335.156" y1="1579.030" x2="335.156" y2="1529.030"/>
      <line x1="336.156" y1="1579.030" x2="336.156" y2="1529.030"/>
      <line x1="337.156" y1="1579.030" x2="337.156" y2="1529.030"/>
      <line x1="338.156" y1="1579.030" x2="338.156" y2="1529.030"/>
      <line x1="339.156" y1="1579.030" x2="339.156" y2="1529.030"/>
      <line x1="340.156" y1="1579.030" x2="340.156" y2="1529.030"/>
      <line x1="341.156" y1="1579.030" x2="341.156" y2="1529.030"/>
      <line x1="342.156" y1="1579.030" x2="342.156" y2="1529.030"/>
      <line x1="343.156" y1="1579.030" x2="343.156" y2="1529.030"/>
      <line x1="344.156" y1="1579.030" x2="344.156" y2="1529.030"/>
      <line x1="345.156" y1="1579.030" x2="345.156" y2="1529.030"/>
      <line x1="346.156" y1="1579.030" x2="346.156" y2="1529.030"/>
      <line x1="347.156" y1="1579.030" x2="347.156" y2="1529.030"/>
      <line x1="348.156" y1="1579.030" x2="348.156" y2="1529.030"/>
      <line x1="349.156" y1="1579.030" x2="349.156" y2="1529.030"/>
      <line x1="350.156" y1="1579.030" x2="350.156" y2="1529.030"/>
      <line x1="351.156" y1="1579.030" x2="351.156" y2="1529.030"/>
      <line x1="352.156" y1="1579.030" x2="352.156" y2="1529.030"/>
      <line x1="353.156" y1="1579.030" x2="353.156" y2="1529.030"/>
      <line x1="354.156" y1="1579.030" x2="354.156" y2="1529.030"/>
      <line x1="355.156" y1="1579.030" x2="355.156" y2="1529.030"/>
      <line x1="356.156" y1="1579.030" x2="356.156" y2="1529.030"/>
      <line x1="357.156" y1="1579.030" x2="357.156" y2="1529.030"/>
      <line x1="358.156" y1="1579.030" x2="358.156" y2="1529.030"/>
      <line x1="359.156" y1="1579.030" x2="359.156" y2="1529.030"/>
      <line x1="360.156" y1="1579.030" x2="360.156" y2="1529.030"/>
      <line x1="361.156" y1="1579.030" x2="361.156" y2="1529.030"/>
      <line x1="362.156" y1="1579.030" x2="362.156" y2="1529.030"/>
      <line x1="363.156" y1="1579.030" x2="363.156" y2="1529.030"/>
      <line x1="364.156" y1="1579.030" x2="364.156" y2="1529.030"/>
      <line x1="365.156" y1="1579.030" x2="365.156" y2="1529.030"/>
      <line x1="366.156" y1="1579.030" x2="366.156" y2="1529.030"/>
      <line x1="367.156" y1="1579.030" x2="367.156" y2="1529.030"/>
      <line x1="368.156" y1="1579.030" x2="368.156" y2="1529.030"/>
      <line x1="369.156" y1="1579.030" x2="369.156" y2="1529.030"/>
      <line x1="370.156" y1="1579.030" x2="370.156" y2="1529.030"/>
      <line x1="371.156" y1="1579.030" x2="371.156" y2="1529.030"/>
      <line x1="372.156" y1="1579.030" x2="372.156" y2="1529.030"/>
      <line x1="373.156" y1="1579.030" x2="373.156" y2="1529.030"/>
      <line x1="374.156" y1="1579.030" x2="374.156" y2="1529.030"/>
      <line x1="375.156" y1="1579.030" x2="375.156" y2="1529.030"/>
      <line x1="376.156" y1="1579.030" x2="376.156" y2="1529.030"/>
      <line x1="377.156" y1="1579.030" x2="377.156" y2="1529.030"/>
      <line x1="378.156" y1="1579.030" x2="378.156" y2="1529.030"/>
      <line x1="379.156" y1="1579.030" x2="379.156" y2="1529.030"/>
      <line x1="380.156" y1="1579.030" x2="380.156" y2="1529.030"/>
      <line x1="381.156" y1="1579.030" x2="381.156" y2="1529.030"/>
      <line x1="382.156" y1="1579.030" x2="382.156" y2="1529.030"/>
      <line x1="383.156" y1="1579.030" x2="383.156" y2="1529.030"/>
      <line x1="384.156" y1="1579.030" x2="384.156" y2="1529.030"/>
      <line x1="385.156" y1="1579.030" x2="385.156" y2="1529.030"/>
      <line x1="386.156" y1="1579.030" x2="386.156" y2="1529.030"/>
      <line x1="387.156" y1="1579.030" x2="387.156" y2="1529.030"/>
      <line x1="388.156" y1="1579.030" x2="388.156" y2="1529.030"/>
      <line x1="389.156" y1="1579.030" x2="389.156" y2="1529.030"/>
      <line x1="390.156" y1="1579.030" x2="390.156" y2="1529.030"/>
      <line x1="391.156" y1="1579.030" x2="391.156" y2="1529.030"/>
      <line x1="392.156" y1="1579.030" x2="392.156" y2="1529.030"/>
      <line x1="393.156" y1="1579.030" x2="393.156" y2="1529.030"/>
      <line x1="394.156" y1="1579.030" x2="394.156" y2="1529.030"/>
      <line x1="395.156" y1="1579.030" x2="395.156" y2="1529.030"/>
      <line x1="396.156" y1="1579.030" x2="396.156" y2="1529.030"/>
      <line x1="397.156" y1="1579.030" x2="397.156" y2="1529.030"/>
      <line x1="398.156" y1="1579.030" x2="398.156" y2="1529.030"/>
      <line x1="399.156" y1="1579.030" x2="399.156" y2="1529.030"/>
      <line x1="400.156" y1="1579.030" x2="400.156" y2="1529.030"/>
      <line x1="401.156" y1="1579.030" x2="401.156" y2="1529.030"/>
      <line x1="402.156" y1="1579.030" x2="402.156" y2="1529.030"/>
      <line x1="403.156" y1="1579.030" x2="403.156" y2="1529.030"/>
      <line x1="404.156" y1="1579.030" x2="404.156" y2="1529.030"/>
      <line x1="405.156" y1="1579.030" x2="405.156" y2="1529.030"/>
      <line x1="406.156" y1="1579.030" x2="406.156" y2="1529.030"/>
      <line x1="407.156" y1="1579.030" x2="407.156" y2="1529.030"/>
      <line x1="408.156" y1="1579.030" x2="408.156" y2="1529.030"/>
      <line x1="409.156" y1="1579.030" x2="409.156" y2="1529.030"/>
      <line x1="410.156" y1="1579.030" x2="410.156" y2="1529.030"/>
      <line x1="411.156" y1="1579.030" x2="411.156" y2="1529.030"/>
      <line x1="412.156" y1="1579.030" x2="412.156" y2="1529.030"/>
      <line x1="413.156" y1="1579.030" x2="413.156" y2="1529.030"/>
      <line x1="414.156" y1="1579.030" x2="414.156" y2="1529.030"/>
      <line x1="415.156" y1="1579.030" x2="415.156" y2="1529.030"/>
      <line x1="416.156" y1="1579.030" x2="416.156" y2="1529.030"/>
      <line x1="417.156" y1="1579.030" x2="417.156" y2="1529.030"/>
      <line x1="418.156" y1="1579.030" x2="418.156" y2="1529.030"/>
      <line x1="419.156" y1="1579.030" x2="419.156" y2="1529.030"/>
      <line x1="420.156" y1="1579.030" x2="420.156" y2="1529.030"/>
      <line x1="421.156" y1="1579.030" x2="421.156" y2="1529.030"/>
      <line x1="422.156" y1="1579.030" x2="422.156" y2="1529.030"/>
      <line x1="423.156" y1="1579.030" x2="423.156" y2="1529.030"/>
      <line x1="424.156" y1="1579.030" x2="424.156" y2="1529.030"/>
      <line x1="425.156" y1="1579.030" x2="425.156" y2="1529.030"/>
      <line x1="426.156" y1="1579.030" x2="426.156" y2="1529.030"/>
      <line x1="427.156" y1="1579.030" x2="427.156" y2="1529.030"/>
      <line x1="428.156" y1="1579.030" x2="428.156" y2="1529.030"/>
      <line x1="429.156" y1="1579.030" x2="429.156" y2="1529.030"/>
      <line x1="430.156" y1="1579.030" x2="430.156" y2="1529.030"/>
      <line x1="431.156" y1="1579.030" x2="431.156" y2="1529.030"/>
      <line x1="432.156" y1="1579.030" x2="432.156" y2="1529.030"/>
      <line x1="433.156" y1="1579.030" x2="433.156" y2="1529.030"/>
      <line x1="434.156" y1="1579.030" x2="434.156" y2="1529.030"/>
      <line x1="435.156" y1="1579.030" x2="435.156" y2="1529.030"/>
      <line x1="436.156" y1="1579.030" x2="436.156" y2="1529.030"/>
      <line x1="437.156" y1="1579.030" x2="437.156" y2="1529.030"/>
      <line x1="438.156" y1="1579.030" x2="438.156" y2="1529.030"/>
      <line x1="439.156" y1="1579.030" x2="439.156" y2="1529.030"/>
      <line x1="440.156" y1="1579.030" x2="440.156" y2="1529.030"/>
      <line x1="441.156" y1="1579.030" x2="441.156" y2="1529.030"/>
      <line x1="442.156" y1="1579.030" x2="442.156" y2="1529.030"/>
      <line x1="443.156" y1="1579.030" x2="443.156" y2="1529.030"/>
      <line x1="444.156" y1="1579.030" x2="444.156" y2="1529.030"/>
      <line x1="445.156" y1="1579.030" x2="445.156" y2="1529.030"/>
      <line x1="446.156" y1="1579.030" x2="446.156" y2="1529.030"/>
      <line x1="447.156" y1="1579.030" x2="447.156" y2="1529.030"/>
      <line x1="448.156" y1="1579.030" x2="448.156" y2="1529.030"/>
      <line x1="449.156" y1="1579.030" x2="449.156" y2="1529.030"/>
      <line x1="450.156" y1="1579.030" x2="450.156" y2="1529.030"/>
      <line x1="451.156" y1="1579.030" x2="451.156" y2="1529.030"/>
      <line x1="452.156" y1="1579.030" x2="452.156" y2="1529.030"/>
      <line x1="453.156" y1="1579.030" x2="453.156" y2="1529.030"/>
      <line x1="454.156" y1="1579.030" x2="454.156" y2="1529.030"/>
      <line x1="455.156" y1="1579.030" x2="455.156" y2="1529.030"/>
      <line x1="456.156" y1="1579.030" x2="456.156" y2="1529.030"/>
      <line x1="457.156" y1="1579.030" x2="457.156" y2="1529.030"/>
      <line x1="458.156" y1="1579.030" x2="458.156" y2="1529.030"/>
      <line x1="459.156" y1="1579.030" x2="459.156" y2="1529.030"/>
      <line x1="460.156" y1="1579.030" x2="460.156" y2="1529.030"/>
      <line x1="461.156" y1="1579.030" x2="461.156" y2="1529.030"/>
      <line x1="462.156" y1="1579.030" x2="462.156" y2="1529.030"/>
      <line x1="463.156" y1="1579.030" x2="463.156" y2="1529.030"/>
      <line x1="464.156" y1="1579.030" x2="464.156" y2="1529.030"/>
      <line x1="465.156" y1="1579.030" x2="465.156" y2="1529.030"/>
      <line x1="466.156" y1="1579.030" x2="466.156" y2="1529.030"/>
      <line x1="167.156" y1="1528.930" x2="167.156" y2="1525.229"/>
      <line x1="143.156" y1="1528.930" x2="143.156" y2="1525.229"/>
      <line x1="166.156" y1="1528.930" x2="166.156" y2="1525.229"/>
      <line x1="165.156" y1="1528.930" x2="165.156" y2="1525.229"/>
      <line x1="164.156" y1="1528.930" x2="164.156" y2="1525.229"/>
      <line x1="163.156" y1="1528.930" x2="163.156" y2="1525.229"/>
      <line x1="162.156" y1="1528.930" x2="162.156" y2="1525.229"/>
      <line x1="161.156" y1="1528.930" x2="161.156" y2="1525.229"/>
      <line x1="160.156" y1="1528.930" x2="160.156" y2="1525.229"/>
      <line x1="159.156" y1="1528.930" x2="159.156" y2="1525.229"/>
      <line x1="158.156" y1="1528.930" x2="158.156" y2="1525.229"/>
      <line x1="157.156" y1="1528.930" x2="157.156" y2="1525.229"/>
      <line x1="156.156" y1="1528.930" x2="156.156" y2="1525.229"/>
      <line x1="155.156" y1="1528.930" x2="155.156" y2="1525.229"/>
      <line x1="154.156" y1="1528.930" x2="154.156" y2="1525.229"/>
      <line x1="153.156" y1="1528.930" x2="153.156" y2="1525.229"/>
      <line x1="152.156" y1="1528.930" x2="152.156" y2="1525.229"/>
      <line x1="151.156" y1="1528.930" x2="151.156" y2="1525.229"/>
      <line x1="150.156" y1="1528.930" x2="150.156" y2="1525.229"/>
      <line x1="149.156" y1="1528.930" x2="149.156" y2="1525.229"/>
      <line x1="148.156" y1="1528.930" x2="148.156" y2="1525.229"/>
      <line x1="147.156" y1="1528.930" x2="147.156" y2="1525.229"/>
      <line x1="146.156" y1="1528.930" x2="146.156" y2="1525.229"/>
      <line x1="145.156" y1="1528.930" x2="145.156" y2="1525.229"/>
      <line x1="144.156" y1="1528.930" x2="144.156" y2="1525.229"/>
      <line x1="181.156" y1="1528.930" x2="181.156" y2="1525.229"/>
      <line x1="182.156" y1="1528.930" x2="182.156" y2="1525.229"/>
      <line x1="168.156" y1="1528.930" x2="168.156" y2="1525.229"/>
      <line x1="180.156" y1="1528.930" x2="180.156" y2="1525.229"/>
      <line x1="179.156" y1="1528.930" x2="179.156" y2="1525.229"/>
      <line x1="178.156" y1="1528.930" x2="178.156" y2="1525.229"/>
      <line x1="177.156" y1="1528.930" x2="177.156" y2="1525.229"/>
      <line x1="176.156" y1="1528.930" x2="176.156" y2="1525.229"/>
      <line x1="175.156" y1="1528.930" x2="175.156" y2="1525.229"/>
      <line x1="174.156" y1="1528.930" x2="174.156" y2="1525.229"/>
      <line x1="173.156" y1="1528.930" x2="173.156" y2="1525.229"/>
      <line x1="172.156" y1="1528.930" x2="172.156" y2="1525.229"/>
      <line x1="171.156" y1="1528.930" x2="171.156" y2="1525.229"/>
      <line x1="170.156" y1="1528.930" x2="170.156" y2="1525.229"/>
      <line x1="169.156" y1="1528.930" x2="169.156" y2="1525.229"/>
      <line x1="141.156" y1="1528.930" x2="141.156" y2="1525.229"/>
      <line x1="142.156" y1="1528.930" x2="142.156" y2="1525.229"/>
      <line x1="140.156" y1="1528.930" x2="140.156" y2="1525.229"/>
      <line x1="139.156" y1="1528.930" x2="139.156" y2="1525.229"/>
      <line x1="138.156" y1="1528.930" x2="138.156" y2="1525.229"/>
      <line x1="137.156" y1="1528.930" x2="137.156" y2="1525.229"/>
      <line x1="136.156" y1="1528.930" x2="136.156" y2="1525.229"/>
      <line x1="135.156" y1="1528.930" x2="135.156" y2="1525.229"/>
      <line x1="134.156" y1="1528.930" x2="134.156" y2="1525.229"/>
      <line x1="133.156" y1="1528.930" x2="133.156" y2="1525.229"/>
      <line x1="193.156" y1="1528.930" x2="193.156" y2="1525.229"/>
      <line x1="192.156" y1="1528.930" x2="192.156" y2="1525.229"/>
      <line x1="191.156" y1="1528.930" x2="191.156" y2="1525.229"/>
      <line x1="190.156" y1="1528.930" x2="190.156" y2="1525.229"/>
      <line x1="189.156" y1="1528.930" x2="189.156" y2="1525.229"/>
      <line x1="188.156" y1="1528.930" x2="188.156" y2="1525.229"/>
      <line x1="187.156" y1="1528.930" x2="187.156" y2="1525.229"/>
      <line x1="186.156" y1="1528.930" x2="186.156" y2="1525.229"/>
      <line x1="185.156" y1="1528.930" x2="185.156" y2="1525.229"/>
      <line x1="184.156" y1="1528.930" x2="184.156" y2="1525.229"/>
      <line x1="195.156" y1="1528.930" x2="195.156" y2="1525.229"/>
      <line x1="196.156" y1="1528.930" x2="196.156" y2="1525.229"/>
      <line x1="197.156" y1="1528.930" x2="197.156" y2="1525.229"/>
      <line x1="198.156" y1="1528.930" x2="198.156" y2="1525.229"/>
      <line x1="199.156" y1="1528.930" x2="199.156" y2="1525.229"/>
      <line x1="200.156" y1="1528.930" x2="200.156" y2="1525.229"/>
      <line x1="201.156" y1="1528.930" x2="201.156" y2="1525.229"/>
      <line x1="202.156" y1="1528.930" x2="202.156" y2="1525.229"/>
      <line x1="203.156" y1="1528.930" x2="203.156" y2="1525.229"/>
      <line x1="194.156" y1="1528.930" x2="194.156" y2="1525.229"/>
      <line x1="228.156" y1="1528.930" x2="228.156" y2="1525.229"/>
      <line x1="229.156" y1="1528.930" x2="229.156" y2="1525.229"/>
      <line x1="230.156" y1="1528.930" x2="230.156" y2="1525.229"/>
      <line x1="231.156" y1="1528.930" x2="231.156" y2="1525.229"/>
      <line x1="232.156" y1="1528.930" x2="232.156" y2="1525.229"/>
      <line x1="233.156" y1="1528.930" x2="233.156" y2="1525.229"/>
      <line x1="227.156" y1="1528.930" x2="227.156" y2="1525.229"/>
      <line x1="215.156" y1="1528.930" x2="215.156" y2="1525.229"/>
      <line x1="204.156" y1="1528.930" x2="204.156" y2="1525.229"/>
      <line x1="205.156" y1="1528.930" x2="205.156" y2="1525.229"/>
      <line x1="206.156" y1="1528.930" x2="206.156" y2="1525.229"/>
      <line x1="207.156" y1="1528.930" x2="207.156" y2="1525.229"/>
      <line x1="208.156" y1="1528.930" x2="208.156" y2="1525.229"/>
      <line x1="209.156" y1="1528.930" x2="209.156" y2="1525.229"/>
      <line x1="210.156" y1="1528.930" x2="210.156" y2="1525.229"/>
      <line x1="211.156" y1="1528.930" x2="211.156" y2="1525.229"/>
      <line x1="212.156" y1="1528.930" x2="212.156" y2="1525.229"/>
      <line x1="213.156" y1="1528.930" x2="213.156" y2="1525.229"/>
      <line x1="214.156" y1="1528.930" x2="214.156" y2="1525.229"/>
      <line x1="216.156" y1="1528.930" x2="216.156" y2="1525.229"/>
      <line x1="217.156" y1="1528.930" x2="217.156" y2="1525.229"/>
      <line x1="218.156" y1="1528.930" x2="218.156" y2="1525.229"/>
      <line x1="219.156" y1="1528.930" x2="219.156" y2="1525.229"/>
      <line x1="220.156" y1="1528.930" x2="220.156" y2="1525.229"/>
      <line x1="221.156" y1="1528.930" x2="221.156" y2="1525.229"/>
      <line x1="222.156" y1="1528.930" x2="222.156" y2="1525.229"/>
      <line x1="223.156" y1="1528.930" x2="223.156" y2="1525.229"/>
      <line x1="224.156" y1="1528.930" x2="224.156" y2="1525.229"/>
      <line x1="225.156" y1="1528.930" x2="225.156" y2="1525.229"/>
      <line x1="226.156" y1="1528.930" x2="226.156" y2="1525.229"/>
      <line x1="240.156" y1="1528.930" x2="240.156" y2="1525.229"/>
      <line x1="234.156" y1="1528.930" x2="234.156" y2="1525.229"/>
      <line x1="235.156" y1="1528.930" x2="235.156" y2="1525.229"/>
      <line x1="236.156" y1="1528.930" x2="236.156" y2="1525.229"/>
      <line x1="237.156" y1="1528.930" x2="237.156" y2="1525.229"/>
      <line x1="238.156" y1="1528.930" x2="238.156" y2="1525.229"/>
      <line x1="239.156" y1="1528.930" x2="239.156" y2="1525.229"/>
      <line x1="241.156" y1="1528.930" x2="241.156" y2="1525.229"/>
      <line x1="242.156" y1="1528.930" x2="242.156" y2="1525.229"/>
      <line x1="243.156" y1="1528.930" x2="243.156" y2="1525.229"/>
      <line x1="244.156" y1="1528.930" x2="244.156" y2="1525.229"/>
      <line x1="245.156" y1="1528.930" x2="245.156" y2="1525.229"/>
      <line x1="246.156" y1="1528.930" x2="246.156" y2="1525.229"/>
      <line x1="247.156" y1="1528.930" x2="247.156" y2="1525.229"/>
      <line x1="248.156" y1="1528.930" x2="248.156" y2="1525.229"/>
      <line x1="249.156" y1="1528.930" x2="249.156" y2="1525.229"/>
      <line x1="250.156" y1="1528.930" x2="250.156" y2="1525.229"/>
      <line x1="251.156" y1="1528.930" x2="251.156" y2="1525.229"/>
      <line x1="252.156" y1="1528.930" x2="252.156" y2="1525.229"/>
      <line x1="277.156" y1="1528.930" x2="277.156" y2="1525.229"/>
      <line x1="278.156" y1="1528.930" x2="278.156" y2="1525.229"/>
      <line x1="279.156" y1="1528.930" x2="279.156" y2="1525.229"/>
      <line x1="280.156" y1="1528.930" x2="280.156" y2="1525.229"/>
      <line x1="281.156" y1="1528.930" x2="281.156" y2="1525.229"/>
      <line x1="282.156" y1="1528.930" x2="282.156" y2="1525.229"/>
      <line x1="283.156" y1="1528.930" x2="283.156" y2="1525.229"/>
      <line x1="276.156" y1="1528.930" x2="276.156" y2="1525.229"/>
      <line x1="264.156" y1="1528.930" x2="264.156" y2="1525.229"/>
      <line x1="253.156" y1="1528.930" x2="253.156" y2="1525.229"/>
      <line x1="254.156" y1="1528.930" x2="254.156" y2="1525.229"/>
      <line x1="255.156" y1="1528.930" x2="255.156" y2="1525.229"/>
      <line x1="256.156" y1="1528.930" x2="256.156" y2="1525.229"/>
      <line x1="257.156" y1="1528.930" x2="257.156" y2="1525.229"/>
      <line x1="258.156" y1="1528.930" x2="258.156" y2="1525.229"/>
      <line x1="259.156" y1="1528.930" x2="259.156" y2="1525.229"/>
      <line x1="260.156" y1="1528.930" x2="260.156" y2="1525.229"/>
      <line x1="261.156" y1="1528.930" x2="261.156" y2="1525.229"/>
      <line x1="262.156" y1="1528.930" x2="262.156" y2="1525.229"/>
      <line x1="263.156" y1="1528.930" x2="263.156" y2="1525.229"/>
      <line x1="265.156" y1="1528.930" x2="265.156" y2="1525.229"/>
      <line x1="266.156" y1="1528.930" x2="266.156" y2="1525.229"/>
      <line x1="267.156" y1="1528.930" x2="267.156" y2="1525.229"/>
      <line x1="268.156" y1="1528.930" x2="268.156" y2="1525.229"/>
      <line x1="269.156" y1="1528.930" x2="269.156" y2="1525.229"/>
      <line x1="270.156" y1="1528.930" x2="270.156" y2="1525.229"/>
      <line x1="271.156" y1="1528.930" x2="271.156" y2="1525.229"/>
      <line x1="272.156" y1="1528.930" x2="272.156" y2="1525.229"/>
      <line x1="273.156" y1="1528.930" x2="273.156" y2="1525.229"/>
      <line x1="274.156" y1="1528.930" x2="274.156" y2="1525.229"/>
      <line x1="275.156" y1="1528.930" x2="275.156" y2="1525.229"/>
      <line x1="325.156" y1="1528.930" x2="325.156" y2="1525.229"/>
      <line x1="326.156" y1="1528.930" x2="326.156" y2="1525.229"/>
      <line x1="327.156" y1="1528.930" x2="327.156" y2="1525.229"/>
      <line x1="328.156" y1="1528.930" x2="328.156" y2="1525.229"/>
      <line x1="329.156" y1="1528.930" x2="329.156" y2="1525.229"/>
      <line x1="330.156" y1="1528.930" x2="330.156" y2="1525.229"/>
      <line x1="331.156" y1="1528.930" x2="331.156" y2="1525.229"/>
      <line x1="332.156" y1="1528.930" x2="332.156" y2="1525.229"/>
      <line x1="333.156" y1="1528.930" x2="333.156" y2="1525.229"/>
      <line x1="324.156" y1="1528.930" x2="324.156" y2="1525.229"/>
      <line x1="312.156" y1="1528.930" x2="312.156" y2="1525.229"/>
      <line x1="300.156" y1="1528.930" x2="300.156" y2="1525.229"/>
      <line x1="302.156" y1="1528.930" x2="302.156" y2="1525.229"/>
      <line x1="303.156" y1="1528.930" x2="303.156" y2="1525.229"/>
      <line x1="304.156" y1="1528.930" x2="304.156" y2="1525.229"/>
      <line x1="305.156" y1="1528.930" x2="305.156" y2="1525.229"/>
      <line x1="306.156" y1="1528.930" x2="306.156" y2="1525.229"/>
      <line x1="307.156" y1="1528.930" x2="307.156" y2="1525.229"/>
      <line x1="308.156" y1="1528.930" x2="308.156" y2="1525.229"/>
      <line x1="309.156" y1="1528.930" x2="309.156" y2="1525.229"/>
      <line x1="310.156" y1="1528.930" x2="310.156" y2="1525.229"/>
      <line x1="311.156" y1="1528.930" x2="311.156" y2="1525.229"/>
      <line x1="313.156" y1="1528.930" x2="313.156" y2="1525.229"/>
      <line x1="314.156" y1="1528.930" x2="314.156" y2="1525.229"/>
      <line x1="315.156" y1="1528.930" x2="315.156" y2="1525.229"/>
      <line x1="316.156" y1="1528.930" x2="316.156" y2="1525.229"/>
      <line x1="317.156" y1="1528.930" x2="317.156" y2="1525.229"/>
      <line x1="318.156" y1="1528.930" x2="318.156" y2="1525.229"/>
      <line x1="319.156" y1="1528.930" x2="319.156" y2="1525.229"/>
      <line x1="320.156" y1="1528.930" x2="320.156" y2="1525.229"/>
      <line x1="321.156" y1="1528.930" x2="321.156" y2="1525.229"/>
      <line x1="322.156" y1="1528.930" x2="322.156" y2="1525.229"/>
      <line x1="323.156" y1="1528.930" x2="323.156" y2="1525.229"/>
      <line x1="288.156" y1="1528.930" x2="288.156" y2="1525.229"/>
      <line x1="284.156" y1="1528.930" x2="284.156" y2="1525.229"/>
      <line x1="285.156" y1="1528.930" x2="285.156" y2="1525.229"/>
      <line x1="286.156" y1="1528.930" x2="286.156" y2="1525.229"/>
      <line x1="287.156" y1="1528.930" x2="287.156" y2="1525.229"/>
      <line x1="289.156" y1="1528.930" x2="289.156" y2="1525.229"/>
      <line x1="290.156" y1="1528.930" x2="290.156" y2="1525.229"/>
      <line x1="291.156" y1="1528.930" x2="291.156" y2="1525.229"/>
      <line x1="292.156" y1="1528.930" x2="292.156" y2="1525.229"/>
      <line x1="293.156" y1="1528.930" x2="293.156" y2="1525.229"/>
      <line x1="294.156" y1="1528.930" x2="294.156" y2="1525.229"/>
      <line x1="295.156" y1="1528.930" x2="295.156" y2="1525.229"/>
      <line x1="296.156" y1="1528.930" x2="296.156" y2="1525.229"/>
      <line x1="297.156" y1="1528.930" x2="297.156" y2="1525.229"/>
      <line x1="298.156" y1="1528.930" x2="298.156" y2="1525.229"/>
      <line x1="299.156" y1="1528.930" x2="299.156" y2="1525.229"/>
      <line x1="301.156" y1="1528.930" x2="301.156" y2="1525.229"/>
      <line x1="336.156" y1="1528.930" x2="336.156" y2="1525.229"/>
      <line x1="334.156" y1="1528.930" x2="334.156" y2="1525.229"/>
      <line x1="335.156" y1="1528.930" x2="335.156" y2="1525.229"/>
      <line x1="337.156" y1="1528.930" x2="337.156" y2="1525.229"/>
      <line x1="338.156" y1="1528.930" x2="338.156" y2="1525.229"/>
      <line x1="339.156" y1="1528.930" x2="339.156" y2="1525.229"/>
      <line x1="340.156" y1="1528.930" x2="340.156" y2="1525.229"/>
      <line x1="341.156" y1="1528.930" x2="341.156" y2="1525.229"/>
      <line x1="342.156" y1="1528.930" x2="342.156" y2="1525.229"/>
      <line x1="343.156" y1="1528.930" x2="343.156" y2="1525.229"/>
      <line x1="344.156" y1="1528.930" x2="344.156" y2="1525.229"/>
      <line x1="345.156" y1="1528.930" x2="345.156" y2="1525.229"/>
      <line x1="346.156" y1="1528.930" x2="346.156" y2="1525.229"/>
      <line x1="347.156" y1="1528.930" x2="347.156" y2="1525.229"/>
      <line x1="348.156" y1="1528.930" x2="348.156" y2="1525.229"/>
      <line x1="373.156" y1="1528.930" x2="373.156" y2="1525.229"/>
      <line x1="374.156" y1="1528.930" x2="374.156" y2="1525.229"/>
      <line x1="375.156" y1="1528.930" x2="375.156" y2="1525.229"/>
      <line x1="376.156" y1="1528.930" x2="376.156" y2="1525.229"/>
      <line x1="377.156" y1="1528.930" x2="377.156" y2="1525.229"/>
      <line x1="378.156" y1="1528.930" x2="378.156" y2="1525.229"/>
      <line x1="379.156" y1="1528.930" x2="379.156" y2="1525.229"/>
      <line x1="380.156" y1="1528.930" x2="380.156" y2="1525.229"/>
      <line x1="381.156" y1="1528.930" x2="381.156" y2="1525.229"/>
      <line x1="382.156" y1="1528.930" x2="382.156" y2="1525.229"/>
      <line x1="383.156" y1="1528.930" x2="383.156" y2="1525.229"/>
      <line x1="372.156" y1="1528.930" x2="372.156" y2="1525.229"/>
      <line x1="360.156" y1="1528.930" x2="360.156" y2="1525.229"/>
      <line x1="349.156" y1="1528.930" x2="349.156" y2="1525.229"/>
      <line x1="350.156" y1="1528.930" x2="350.156" y2="1525.229"/>
      <line x1="351.156" y1="1528.930" x2="351.156" y2="1525.229"/>
      <line x1="352.156" y1="1528.930" x2="352.156" y2="1525.229"/>
      <line x1="353.156" y1="1528.930" x2="353.156" y2="1525.229"/>
      <line x1="354.156" y1="1528.930" x2="354.156" y2="1525.229"/>
      <line x1="355.156" y1="1528.930" x2="355.156" y2="1525.229"/>
      <line x1="356.156" y1="1528.930" x2="356.156" y2="1525.229"/>
      <line x1="357.156" y1="1528.930" x2="357.156" y2="1525.229"/>
      <line x1="358.156" y1="1528.930" x2="358.156" y2="1525.229"/>
      <line x1="359.156" y1="1528.930" x2="359.156" y2="1525.229"/>
      <line x1="361.156" y1="1528.930" x2="361.156" y2="1525.229"/>
      <line x1="362.156" y1="1528.930" x2="362.156" y2="1525.229"/>
      <line x1="363.156" y1="1528.930" x2="363.156" y2="1525.229"/>
      <line x1="364.156" y1="1528.930" x2="364.156" y2="1525.229"/>
      <line x1="365.156" y1="1528.930" x2="365.156" y2="1525.229"/>
      <line x1="366.156" y1="1528.930" x2="366.156" y2="1525.229"/>
      <line x1="367.156" y1="1528.930" x2="367.156" y2="1525.229"/>
      <line x1="368.156" y1="1528.930" x2="368.156" y2="1525.229"/>
      <line x1="369.156" y1="1528.930" x2="369.156" y2="1525.229"/>
      <line x1="370.156" y1="1528.930" x2="370.156" y2="1525.229"/>
      <line x1="371.156" y1="1528.930" x2="371.156" y2="1525.229"/>
      <line x1="408.156" y1="1528.930" x2="408.156" y2="1525.229"/>
      <line x1="420.156" y1="1528.930" x2="420.156" y2="1525.229"/>
      <line x1="433.156" y1="1528.930" x2="433.156" y2="1525.229"/>
      <line x1="432.156" y1="1528.930" x2="432.156" y2="1525.229"/>
      <line x1="431.156" y1="1528.930" x2="431.156" y2="1525.229"/>
      <line x1="430.156" y1="1528.930" x2="430.156" y2="1525.229"/>
      <line x1="429.156" y1="1528.930" x2="429.156" y2="1525.229"/>
      <line x1="428.156" y1="1528.930" x2="428.156" y2="1525.229"/>
      <line x1="427.156" y1="1528.930" x2="427.156" y2="1525.229"/>
      <line x1="426.156" y1="1528.930" x2="426.156" y2="1525.229"/>
      <line x1="425.156" y1="1528.930" x2="425.156" y2="1525.229"/>
      <line x1="424.156" y1="1528.930" x2="424.156" y2="1525.229"/>
      <line x1="423.156" y1="1528.930" x2="423.156" y2="1525.229"/>
      <line x1="422.156" y1="1528.930" x2="422.156" y2="1525.229"/>
      <line x1="421.156" y1="1528.930" x2="421.156" y2="1525.229"/>
      <line x1="419.156" y1="1528.930" x2="419.156" y2="1525.229"/>
      <line x1="418.156" y1="1528.930" x2="418.156" y2="1525.229"/>
      <line x1="417.156" y1="1528.930" x2="417.156" y2="1525.229"/>
      <line x1="416.156" y1="1528.930" x2="416.156" y2="1525.229"/>
      <line x1="415.156" y1="1528.930" x2="415.156" y2="1525.229"/>
      <line x1="414.156" y1="1528.930" x2="414.156" y2="1525.229"/>
      <line x1="413.156" y1="1528.930" x2="413.156" y2="1525.229"/>
      <line x1="412.156" y1="1528.930" x2="412.156" y2="1525.229"/>
      <line x1="411.156" y1="1528.930" x2="411.156" y2="1525.229"/>
      <line x1="410.156" y1="1528.930" x2="410.156" y2="1525.229"/>
      <line x1="409.156" y1="1528.930" x2="409.156" y2="1525.229"/>
      <line x1="407.156" y1="1528.930" x2="407.156" y2="1525.229"/>
      <line x1="397.156" y1="1528.930" x2="397.156" y2="1525.229"/>
      <line x1="406.156" y1="1528.930" x2="406.156" y2="1525.229"/>
      <line x1="404.156" y1="1528.930" x2="404.156" y2="1525.229"/>
      <line x1="398.156" y1="1528.930" x2="398.156" y2="1525.229"/>
      <line x1="399.156" y1="1528.930" x2="399.156" y2="1525.229"/>
      <line x1="400.156" y1="1528.930" x2="400.156" y2="1525.229"/>
      <line x1="402.156" y1="1528.930" x2="402.156" y2="1525.229"/>
      <line x1="405.156" y1="1528.930" x2="405.156" y2="1525.229"/>
      <line x1="401.156" y1="1528.930" x2="401.156" y2="1525.229"/>
      <line x1="403.156" y1="1528.930" x2="403.156" y2="1525.229"/>
      <line x1="384.156" y1="1528.930" x2="384.156" y2="1525.229"/>
      <line x1="385.156" y1="1528.930" x2="385.156" y2="1525.229"/>
      <line x1="386.156" y1="1528.930" x2="386.156" y2="1525.229"/>
      <line x1="387.156" y1="1528.930" x2="387.156" y2="1525.229"/>
      <line x1="388.156" y1="1528.930" x2="388.156" y2="1525.229"/>
      <line x1="389.156" y1="1528.930" x2="389.156" y2="1525.229"/>
      <line x1="390.156" y1="1528.930" x2="390.156" y2="1525.229"/>
      <line x1="391.156" y1="1528.930" x2="391.156" y2="1525.229"/>
      <line x1="392.156" y1="1528.930" x2="392.156" y2="1525.229"/>
      <line x1="393.156" y1="1528.930" x2="393.156" y2="1525.229"/>
      <line x1="394.156" y1="1528.930" x2="394.156" y2="1525.229"/>
      <line x1="395.156" y1="1528.930" x2="395.156" y2="1525.229"/>
      <line x1="396.156" y1="1528.930" x2="396.156" y2="1525.229"/>
      <line x1="435.156" y1="1528.930" x2="435.156" y2="1525.229"/>
      <line x1="458.156" y1="1528.930" x2="458.156" y2="1525.229"/>
      <line x1="457.156" y1="1528.930" x2="457.156" y2="1525.229"/>
      <line x1="456.156" y1="1528.930" x2="456.156" y2="1525.229"/>
      <line x1="455.156" y1="1528.930" x2="455.156" y2="1525.229"/>
      <line x1="454.156" y1="1528.930" x2="454.156" y2="1525.229"/>
      <line x1="453.156" y1="1528.930" x2="453.156" y2="1525.229"/>
      <line x1="452.156" y1="1528.930" x2="452.156" y2="1525.229"/>
      <line x1="451.156" y1="1528.930" x2="451.156" y2="1525.229"/>
      <line x1="450.156" y1="1528.930" x2="450.156" y2="1525.229"/>
      <line x1="449.156" y1="1528.930" x2="449.156" y2="1525.229"/>
      <line x1="448.156" y1="1528.930" x2="448.156" y2="1525.229"/>
      <line x1="446.156" y1="1528.930" x2="446.156" y2="1525.229"/>
      <line x1="434.156" y1="1528.930" x2="434.156" y2="1525.229"/>
      <line x1="436.156" y1="1528.930" x2="436.156" y2="1525.229"/>
      <line x1="437.156" y1="1528.930" x2="437.156" y2="1525.229"/>
      <line x1="438.156" y1="1528.930" x2="438.156" y2="1525.229"/>
      <line x1="439.156" y1="1528.930" x2="439.156" y2="1525.229"/>
      <line x1="440.156" y1="1528.930" x2="440.156" y2="1525.229"/>
      <line x1="442.156" y1="1528.930" x2="442.156" y2="1525.229"/>
      <line x1="447.156" y1="1528.930" x2="447.156" y2="1525.229"/>
      <line x1="445.156" y1="1528.930" x2="445.156" y2="1525.229"/>
      <line x1="443.156" y1="1528.930" x2="443.156" y2="1525.229"/>
      <line x1="441.156" y1="1528.930" x2="441.156" y2="1525.229"/>
      <line x1="444.156" y1="1528.930" x2="444.156" y2="1525.229"/>
      <line x1="460.156" y1="1528.930" x2="460.156" y2="1525.229"/>
      <line x1="459.156" y1="1528.930" x2="459.156" y2="1525.229"/>
      <line x1="461.156" y1="1528.930" x2="461.156" y2="1525.229"/>
      <line x1="462.156" y1="1528.930" x2="462.156" y2="1525.229"/>
      <line x1="463.156" y1="1528.930" x2="463.156" y2="1525.229"/>
      <line x1="464.156" y1="1528.930" x2="464.156" y2="1525.229"/>
      <line x1="465.156" y1="1528.930" x2="465.156" y2="1525.229"/>
      <line x1="466.156" y1="1528.930" x2="466.156" y2="1525.229"/>
    </g>
    <g stroke="#1976D2" stroke-width="0.4">
      <polyline points="470.381,1521.729 129.619,1521.729 129.619,1682.729 470.381,1682.729 470.381,1521.729" fill="none"/>
      <polyline points="469.381,1522.729 130.619,1522.729 130.619,1681.730 469.381,1681.730 469.381,1522.729" fill="none"/>
      <polyline points="468.381,1523.729 131.619,1523.729 131.619,1680.730 468.381,1680.730 468.381,1523.729" fill="none"/>
      <polyline points="467.381,1524.729 132.619,1524.729 132.619,1679.729 467.381,1679.729 467.381,1524.729" fill="none"/>
    </g>
    <g stroke="#C62828" stroke-width="0.4" fill="none">
    </g>
    <g stroke="#EF6C00" stroke-width="0.4" fill="none">
    </g>
  </g>
  <g stroke="#000000" stroke-width="0.4">
    <line x1="500.000" y1="1000.000" x2="1500.000" y2="1000.000"/>
  </g>
  <g stroke="#000000" stroke-width="0.4">
    <line x1="1000.000" y1="500.000" x2="1000.000" y2="1500.000"/>
  </g>
  <circle cx="1000.000" cy="1000.000" r="1000.000" stroke="red" stroke-width="1" fill="none"/>
  </g>
</svg>
