<?xml version="1.0" encoding="UTF-8"?>
<svg xmlns="http://www.w3.org/2000/svg" version="1.1" width="2000" height="2000">
  <g fill="none" stroke-linecap="round" stroke-linejoin="round">
  <text x="10" y="20" font-size="24" fill="#555">Layer 205 Z=53.000 mm</text>
  <g transform="translate(700.000,-602.229)">
    <g stroke="#2E7D32" stroke-width="0.4">
      <line x1="556.216" y1="1629.765" x2="506.216" y2="1629.765"/>
      <line x1="556.216" y1="1630.765" x2="506.216" y2="1630.765"/>
      <line x1="556.216" y1="1631.765" x2="506.216" y2="1631.765"/>
      <line x1="556.216" y1="1632.765" x2="506.216" y2="1632.765"/>
      <line x1="556.216" y1="1633.765" x2="506.216" y2="1633.765"/>
      <line x1="556.216" y1="1634.765" x2="506.216" y2="1634.765"/>
      <line x1="556.216" y1="1635.765" x2="506.216" y2="1635.765"/>
      <line x1="556.216" y1="1636.765" x2="506.216" y2="1636.765"/>
      <line x1="556.216" y1="1637.765" x2="506.216" y2="1637.765"/>
      <line x1="556.216" y1="1638.765" x2="506.216" y2="1638.765"/>
      <line x1="556.216" y1="1639.765" x2="506.216" y2="1639.765"/>
      <line x1="556.216" y1="1640.765" x2="506.216" y2="1640.765"/>
      <line x1="556.216" y1="1641.765" x2="506.216" y2="1641.765"/>
      <line x1="556.216" y1="1642.765" x2="506.216" y2="1642.765"/>
      <line x1="556.216" y1="1643.765" x2="506.216" y2="1643.765"/>
      <line x1="556.216" y1="1644.765" x2="506.216" y2="1644.765"/>
      <line x1="556.216" y1="1645.765" x2="506.216" y2="1645.765"/>
      <line x1="556.216" y1="1646.765" x2="506.216" y2="1646.765"/>
      <line x1="556.216" y1="1647.765" x2="506.216" y2="1647.765"/>
      <line x1="556.216" y1="1648.765" x2="506.216" y2="1648.765"/>
      <line x1="556.216" y1="1649.765" x2="506.216" y2="1649.765"/>
      <line x1="556.216" y1="1650.765" x2="506.216" y2="1650.765"/>
      <line x1="556.216" y1="1651.765" x2="506.216" y2="1651.765"/>
      <line x1="556.216" y1="1652.765" x2="506.216" y2="1652.765"/>
      <line x1="556.216" y1="1653.765" x2="506.216" y2="1653.765"/>
      <line x1="556.216" y1="1654.765" x2="506.216" y2="1654.765"/>
      <line x1="556.216" y1="1655.765" x2="506.216" y2="1655.765"/>
      <line x1="556.216" y1="1656.765" x2="506.216" y2="1656.765"/>
      <line x1="556.216" y1="1657.765" x2="506.216" y2="1657.765"/>
      <line x1="556.216" y1="1658.765" x2="506.216" y2="1658.765"/>
      <line x1="556.216" y1="1659.765" x2="506.216" y2="1659.765"/>
      <line x1="556.216" y1="1660.765" x2="506.216" y2="1660.765"/>
      <line x1="556.216" y1="1661.765" x2="506.216" y2="1661.765"/>
      <line x1="556.216" y1="1662.765" x2="506.216" y2="1662.765"/>
      <line x1="556.216" y1="1663.765" x2="506.216" y2="1663.765"/>
      <line x1="556.216" y1="1664.765" x2="506.216" y2="1664.765"/>
      <line x1="556.216" y1="1665.765" x2="506.216" y2="1665.765"/>
      <line x1="556.216" y1="1666.765" x2="506.216" y2="1666.765"/>
      <line x1="556.216" y1="1667.765" x2="506.216" y2="1667.765"/>
      <line x1="556.216" y1="1668.765" x2="506.216" y2="1668.765"/>
      <line x1="556.216" y1="1669.765" x2="506.216" y2="1669.765"/>
      <line x1="556.216" y1="1670.765" x2="506.216" y2="1670.765"/>
      <line x1="556.216" y1="1671.765" x2="506.216" y2="1671.765"/>
      <line x1="556.216" y1="1672.765" x2="506.216" y2="1672.765"/>
      <line x1="556.216" y1="1673.765" x2="506.216" y2="1673.765"/>
      <line x1="556.216" y1="1674.765" x2="506.216" y2="1674.765"/>
      <line x1="556.216" y1="1675.765" x2="506.216" y2="1675.765"/>
      <line x1="556.216" y1="1676.765" x2="506.216" y2="1676.765"/>
      <line x1="556.216" y1="1677.765" x2="506.216" y2="1677.765"/>
      <line x1="556.216" y1="1678.765" x2="506.216" y2="1678.765"/>
      <line x1="597.000" y1="1629.765" x2="556.316" y2="1629.765"/>
      <line x1="597.000" y1="1630.765" x2="556.316" y2="1630.765"/>
      <line x1="597.000" y1="1631.765" x2="556.316" y2="1631.765"/>
      <line x1="597.000" y1="1632.765" x2="556.316" y2="1632.765"/>
      <line x1="597.000" y1="1633.765" x2="556.316" y2="1633.765"/>
      <line x1="597.000" y1="1634.765" x2="556.316" y2="1634.765"/>
      <line x1="597.000" y1="1635.765" x2="556.316" y2="1635.765"/>
      <line x1="597.000" y1="1636.765" x2="556.316" y2="1636.765"/>
      <line x1="597.000" y1="1637.765" x2="556.316" y2="1637.765"/>
      <line x1="597.000" y1="1638.765" x2="556.316" y2="1638.765"/>
      <line x1="597.000" y1="1639.765" x2="556.316" y2="1639.765"/>
      <line x1="597.000" y1="1640.765" x2="556.316" y2="1640.765"/>
      <line x1="597.000" y1="1641.765" x2="556.316" y2="1641.765"/>
      <line x1="597.000" y1="1642.765" x2="556.316" y2="1642.765"/>
      <line x1="597.000" y1="1643.765" x2="556.316" y2="1643.765"/>
      <line x1="597.000" y1="1644.765" x2="556.316" y2="1644.765"/>
      <line x1="597.000" y1="1645.765" x2="556.316" y2="1645.765"/>
      <line x1="597.000" y1="1646.765" x2="556.316" y2="1646.765"/>
      <line x1="597.000" y1="1647.765" x2="556.316" y2="1647.765"/>
      <line x1="597.000" y1="1648.765" x2="556.316" y2="1648.765"/>
      <line x1="597.000" y1="1649.765" x2="556.316" y2="1649.765"/>
      <line x1="597.000" y1="1650.765" x2="556.316" y2="1650.765"/>
      <line x1="597.000" y1="1651.765" x2="556.316" y2="1651.765"/>
      <line x1="597.000" y1="1652.765" x2="556.316" y2="1652.765"/>
      <line x1="597.000" y1="1653.765" x2="556.316" y2="1653.765"/>
      <line x1="597.000" y1="1654.765" x2="556.316" y2="1654.765"/>
      <line x1="597.000" y1="1655.765" x2="556.316" y2="1655.765"/>
      <line x1="597.000" y1="1656.765" x2="556.316" y2="1656.765"/>
      <line x1="597.000" y1="1657.765" x2="556.316" y2="1657.765"/>
      <line x1="597.000" y1="1658.765" x2="556.316" y2="1658.765"/>
      <line x1="597.000" y1="1659.765" x2="556.316" y2="1659.765"/>
      <line x1="597.000" y1="1660.765" x2="556.316" y2="1660.765"/>
      <line x1="597.000" y1="1661.765" x2="556.316" y2="1661.765"/>
      <line x1="597.000" y1="1662.765" x2="556.316" y2="1662.765"/>
      <line x1="597.000" y1="1663.765" x2="556.316" y2="1663.765"/>
      <line x1="597.000" y1="1664.765" x2="556.316" y2="1664.765"/>
      <line x1="597.000" y1="1665.765" x2="556.316" y2="1665.765"/>
      <line x1="597.000" y1="1666.765" x2="556.316" y2="1666.765"/>
      <line x1="597.000" y1="1667.765" x2="556.316" y2="1667.765"/>
      <line x1="597.000" y1="1668.765" x2="556.316" y2="1668.765"/>
      <line x1="597.000" y1="1669.765" x2="556.316" y2="1669.765"/>
      <line x1="597.000" y1="1670.765" x2="556.316" y2="1670.765"/>
      <line x1="597.000" y1="1671.765" x2="556.316" y2="1671.765"/>
      <line x1="597.000" y1="1672.765" x2="556.316" y2="1672.765"/>
      <line x1="597.000" y1="1673.765" x2="556.316" y2="1673.765"/>
      <line x1="597.000" y1="1674.765" x2="556.316" y2="1674.765"/>
      <line x1="597.000" y1="1675.765" x2="556.316" y2="1675.765"/>
      <line x1="597.000" y1="1676.765" x2="556.316" y2="1676.765"/>
      <line x1="597.000" y1="1677.765" x2="556.316" y2="1677.765"/>
      <line x1="597.000" y1="1678.765" x2="556.316" y2="1678.765"/>
      <line x1="556.216" y1="1579.765" x2="506.216" y2="1579.765"/>
      <line x1="556.216" y1="1580.765" x2="506.216" y2="1580.765"/>
      <line x1="556.216" y1="1581.765" x2="506.216" y2="1581.765"/>
      <line x1="556.216" y1="1582.765" x2="506.216" y2="1582.765"/>
      <line x1="556.216" y1="1583.765" x2="506.216" y2="1583.765"/>
      <line x1="556.216" y1="1584.765" x2="506.216" y2="1584.765"/>
      <line x1="556.216" y1="1585.765" x2="506.216" y2="1585.765"/>
      <line x1="556.216" y1="1586.765" x2="506.216" y2="1586.765"/>
      <line x1="556.216" y1="1587.765" x2="506.216" y2="1587.765"/>
      <line x1="556.216" y1="1588.765" x2="506.216" y2="1588.765"/>
      <line x1="556.216" y1="1589.765" x2="506.216" y2="1589.765"/>
      <line x1="556.216" y1="1590.765" x2="506.216" y2="1590.765"/>
      <line x1="556.216" y1="1591.765" x2="506.216" y2="1591.765"/>
      <line x1="556.216" y1="1592.765" x2="506.216" y2="1592.765"/>
      <line x1="556.216" y1="1593.765" x2="506.216" y2="1593.765"/>
      <line x1="556.216" y1="1594.765" x2="506.216" y2="1594.765"/>
      <line x1="556.216" y1="1595.765" x2="506.216" y2="1595.765"/>
      <line x1="556.216" y1="1596.765" x2="506.216" y2="1596.765"/>
      <line x1="556.216" y1="1597.765" x2="506.216" y2="1597.765"/>
      <line x1="556.216" y1="1598.765" x2="506.216" y2="1598.765"/>
      <line x1="556.216" y1="1599.765" x2="506.216" y2="1599.765"/>
      <line x1="556.216" y1="1600.765" x2="506.216" y2="1600.765"/>
      <line x1="556.216" y1="1601.765" x2="506.216" y2="1601.765"/>
      <line x1="556.216" y1="1602.765" x2="506.216" y2="1602.765"/>
      <line x1="556.216" y1="1603.765" x2="506.216" y2="1603.765"/>
      <line x1="556.216" y1="1604.765" x2="506.216" y2="1604.765"/>
      <line x1="556.216" y1="1605.765" x2="506.216" y2="1605.765"/>
      <line x1="556.216" y1="1606.765" x2="506.216" y2="1606.765"/>
      <line x1="556.216" y1="1607.765" x2="506.216" y2="1607.765"/>
      <line x1="556.216" y1="1608.765" x2="506.216" y2="1608.765"/>
      <line x1="556.216" y1="1609.765" x2="506.216" y2="1609.765"/>
      <line x1="556.216" y1="1610.765" x2="506.216" y2="1610.765"/>
      <line x1="556.216" y1="1611.765" x2="506.216" y2="1611.765"/>
      <line x1="556.216" y1="1612.765" x2="506.216" y2="1612.765"/>
      <line x1="556.216" y1="1613.765" x2="506.216" y2="1613.765"/>
      <line x1="556.216" y1="1614.765" x2="506.216" y2="1614.765"/>
      <line x1="556.216" y1="1615.765" x2="506.216" y2="1615.765"/>
      <line x1="556.216" y1="1616.765" x2="506.216" y2="1616.765"/>
      <line x1="556.216" y1="1617.765" x2="506.216" y2="1617.765"/>
      <line x1="556.216" y1="1618.765" x2="506.216" y2="1618.765"/>
      <line x1="556.216" y1="1619.765" x2="506.216" y2="1619.765"/>
      <line x1="556.216" y1="1620.765" x2="506.216" y2="1620.765"/>
      <line x1="556.216" y1="1621.765" x2="506.216" y2="1621.765"/>
      <line x1="556.216" y1="1622.765" x2="506.216" y2="1622.765"/>
      <line x1="556.216" y1="1623.765" x2="506.216" y2="1623.765"/>
      <line x1="556.216" y1="1624.765" x2="506.216" y2="1624.765"/>
      <line x1="556.216" y1="1625.765" x2="506.216" y2="1625.765"/>
      <line x1="556.216" y1="1626.765" x2="506.216" y2="1626.765"/>
      <line x1="556.216" y1="1627.765" x2="506.216" y2="1627.765"/>
      <line x1="556.216" y1="1628.765" x2="506.216" y2="1628.765"/>
      <line x1="597.000" y1="1579.765" x2="556.316" y2="1579.765"/>
      <line x1="597.000" y1="1580.765" x2="556.316" y2="1580.765"/>
      <line x1="597.000" y1="1581.765" x2="556.316" y2="1581.765"/>
      <line x1="597.000" y1="1582.765" x2="556.316" y2="1582.765"/>
      <line x1="597.000" y1="1583.765" x2="556.316" y2="1583.765"/>
      <line x1="597.000" y1="1584.765" x2="556.316" y2="1584.765"/>
      <line x1="597.000" y1="1585.765" x2="556.316" y2="1585.765"/>
      <line x1="597.000" y1="1586.765" x2="556.316" y2="1586.765"/>
      <line x1="597.000" y1="1587.765" x2="556.316" y2="1587.765"/>
      <line x1="597.000" y1="1588.765" x2="556.316" y2="1588.765"/>
      <line x1="597.000" y1="1589.765" x2="556.316" y2="1589.765"/>
      <line x1="597.000" y1="1590.765" x2="556.316" y2="1590.765"/>
      <line x1="597.000" y1="1591.765" x2="556.316" y2="1591.765"/>
      <line x1="597.000" y1="1592.765" x2="556.316" y2="1592.765"/>
      <line x1="597.000" y1="1593.765" x2="556.316" y2="1593.765"/>
      <line x1="597.000" y1="1594.765" x2="556.316" y2="1594.765"/>
      <line x1="597.000" y1="1595.765" x2="556.316" y2="1595.765"/>
      <line x1="597.000" y1="1596.765" x2="556.316" y2="1596.765"/>
      <line x1="597.000" y1="1597.765" x2="556.316" y2="1597.765"/>
      <line x1="597.000" y1="1598.765" x2="556.316" y2="1598.765"/>
      <line x1="597.000" y1="1599.765" x2="556.316" y2="1599.765"/>
      <line x1="597.000" y1="1600.765" x2="556.316" y2="1600.765"/>
      <line x1="597.000" y1="1601.765" x2="556.316" y2="1601.765"/>
      <line x1="597.000" y1="1602.765" x2="556.316" y2="1602.765"/>
      <line x1="597.000" y1="1603.765" x2="556.316" y2="1603.765"/>
      <line x1="597.000" y1="1604.765" x2="556.316" y2="1604.765"/>
      <line x1="597.000" y1="1605.765" x2="556.316" y2="1605.765"/>
      <line x1="597.000" y1="1606.765" x2="556.316" y2="1606.765"/>
      <line x1="597.000" y1="1607.765" x2="556.316" y2="1607.765"/>
      <line x1="597.000" y1="1608.765" x2="556.316" y2="1608.765"/>
      <line x1="597.000" y1="1609.765" x2="556.316" y2="1609.765"/>
      <line x1="597.000" y1="1610.765" x2="556.316" y2="1610.765"/>
      <line x1="597.000" y1="1611.765" x2="556.316" y2="1611.765"/>
      <line x1="597.000" y1="1612.765" x2="556.316" y2="1612.765"/>
      <line x1="597.000" y1="1613.765" x2="556.316" y2="1613.765"/>
      <line x1="597.000" y1="1614.765" x2="556.316" y2="1614.765"/>
      <line x1="597.000" y1="1615.765" x2="556.316" y2="1615.765"/>
      <line x1="597.000" y1="1616.765" x2="556.316" y2="1616.765"/>
      <line x1="597.000" y1="1617.765" x2="556.316" y2="1617.765"/>
      <line x1="597.000" y1="1618.765" x2="556.316" y2="1618.765"/>
      <line x1="597.000" y1="1619.765" x2="556.316" y2="1619.765"/>
      <line x1="597.000" y1="1620.765" x2="556.316" y2="1620.765"/>
      <line x1="597.000" y1="1621.765" x2="556.316" y2="1621.765"/>
      <line x1="597.000" y1="1622.765" x2="556.316" y2="1622.765"/>
      <line x1="597.000" y1="1623.765" x2="556.316" y2="1623.765"/>
      <line x1="597.000" y1="1624.765" x2="556.316" y2="1624.765"/>
      <line x1="597.000" y1="1625.765" x2="556.316" y2="1625.765"/>
      <line x1="597.000" y1="1626.765" x2="556.316" y2="1626.765"/>
      <line x1="597.000" y1="1627.765" x2="556.316" y2="1627.765"/>
      <line x1="597.000" y1="1628.765" x2="556.316" y2="1628.765"/>
      <line x1="556.216" y1="1529.765" x2="506.216" y2="1529.765"/>
      <line x1="556.216" y1="1530.765" x2="506.216" y2="1530.765"/>
      <line x1="556.216" y1="1531.765" x2="506.216" y2="1531.765"/>
      <line x1="556.216" y1="1532.765" x2="506.216" y2="1532.765"/>
      <line x1="556.216" y1="1533.765" x2="506.216" y2="1533.765"/>
      <line x1="556.216" y1="1534.765" x2="506.216" y2="1534.765"/>
      <line x1="556.216" y1="1535.765" x2="506.216" y2="1535.765"/>
      <line x1="556.216" y1="1536.765" x2="506.216" y2="1536.765"/>
      <line x1="556.216" y1="1537.765" x2="506.216" y2="1537.765"/>
      <line x1="556.216" y1="1538.765" x2="506.216" y2="1538.765"/>
      <line x1="556.216" y1="1539.765" x2="506.216" y2="1539.765"/>
      <line x1="556.216" y1="1540.765" x2="506.216" y2="1540.765"/>
      <line x1="556.216" y1="1541.765" x2="506.216" y2="1541.765"/>
      <line x1="556.216" y1="1542.765" x2="506.216" y2="1542.765"/>
      <line x1="556.216" y1="1543.765" x2="506.216" y2="1543.765"/>
      <line x1="556.216" y1="1544.765" x2="506.216" y2="1544.765"/>
      <line x1="556.216" y1="1545.765" x2="506.216" y2="1545.765"/>
      <line x1="556.216" y1="1546.765" x2="506.216" y2="1546.765"/>
      <line x1="556.216" y1="1547.765" x2="506.216" y2="1547.765"/>
      <line x1="556.216" y1="1548.765" x2="506.216" y2="1548.765"/>
      <line x1="556.216" y1="1549.765" x2="506.216" y2="1549.765"/>
      <line x1="556.216" y1="1550.765" x2="506.216" y2="1550.765"/>
      <line x1="556.216" y1="1551.765" x2="506.216" y2="1551.765"/>
      <line x1="556.216" y1="1552.765" x2="506.216" y2="1552.765"/>
      <line x1="556.216" y1="1553.765" x2="506.216" y2="1553.765"/>
      <line x1="556.216" y1="1554.765" x2="506.216" y2="1554.765"/>
      <line x1="556.216" y1="1555.765" x2="506.216" y2="1555.765"/>
      <line x1="556.216" y1="1556.765" x2="506.216" y2="1556.765"/>
      <line x1="556.216" y1="1557.765" x2="506.216" y2="1557.765"/>
      <line x1="556.216" y1="1558.765" x2="506.216" y2="1558.765"/>
      <line x1="556.216" y1="1559.765" x2="506.216" y2="1559.765"/>
      <line x1="556.216" y1="1560.765" x2="506.216" y2="1560.765"/>
      <line x1="556.216" y1="1561.765" x2="506.216" y2="1561.765"/>
      <line x1="556.216" y1="1562.765" x2="506.216" y2="1562.765"/>
      <line x1="556.216" y1="1563.765" x2="506.216" y2="1563.765"/>
      <line x1="556.216" y1="1564.765" x2="506.216" y2="1564.765"/>
      <line x1="556.216" y1="1565.765" x2="506.216" y2="1565.765"/>
      <line x1="556.216" y1="1566.765" x2="506.216" y2="1566.765"/>
      <line x1="556.216" y1="1567.765" x2="506.216" y2="1567.765"/>
      <line x1="556.216" y1="1568.765" x2="506.216" y2="1568.765"/>
      <line x1="556.216" y1="1569.765" x2="506.216" y2="1569.765"/>
      <line x1="556.216" y1="1570.765" x2="506.216" y2="1570.765"/>
      <line x1="556.216" y1="1571.765" x2="506.216" y2="1571.765"/>
      <line x1="556.216" y1="1572.765" x2="506.216" y2="1572.765"/>
      <line x1="556.216" y1="1573.765" x2="506.216" y2="1573.765"/>
      <line x1="556.216" y1="1574.765" x2="506.216" y2="1574.765"/>
      <line x1="556.216" y1="1575.765" x2="506.216" y2="1575.765"/>
      <line x1="556.216" y1="1576.765" x2="506.216" y2="1576.765"/>
      <line x1="556.216" y1="1577.765" x2="506.216" y2="1577.765"/>
      <line x1="556.216" y1="1578.765" x2="506.216" y2="1578.765"/>
      <line x1="597.000" y1="1529.765" x2="556.316" y2="1529.765"/>
      <line x1="597.000" y1="1530.765" x2="556.316" y2="1530.765"/>
      <line x1="597.000" y1="1531.765" x2="556.316" y2="1531.765"/>
      <line x1="597.000" y1="1532.765" x2="556.316" y2="1532.765"/>
      <line x1="597.000" y1="1533.765" x2="556.316" y2="1533.765"/>
      <line x1="597.000" y1="1534.765" x2="556.316" y2="1534.765"/>
      <line x1="597.000" y1="1535.765" x2="556.316" y2="1535.765"/>
      <line x1="597.000" y1="1536.765" x2="556.316" y2="1536.765"/>
      <line x1="597.000" y1="1537.765" x2="556.316" y2="1537.765"/>
      <line x1="597.000" y1="1538.765" x2="556.316" y2="1538.765"/>
      <line x1="597.000" y1="1539.765" x2="556.316" y2="1539.765"/>
      <line x1="597.000" y1="1540.765" x2="556.316" y2="1540.765"/>
      <line x1="597.000" y1="1541.765" x2="556.316" y2="1541.765"/>
      <line x1="597.000" y1="1542.765" x2="556.316" y2="1542.765"/>
      <line x1="597.000" y1="1543.765" x2="556.316" y2="1543.765"/>
      <line x1="597.000" y1="1544.765" x2="556.316" y2="1544.765"/>
      <line x1="597.000" y1="1545.765" x2="556.316" y2="1545.765"/>
      <line x1="597.000" y1="1546.765" x2="556.316" y2="1546.765"/>
      <line x1="597.000" y1="1547.765" x2="556.316" y2="1547.765"/>
      <line x1="597.000" y1="1548.765" x2="556.316" y2="1548.765"/>
      <line x1="597.000" y1="1549.765" x2="556.316" y2="1549.765"/>
      <line x1="597.000" y1="1550.765" x2="556.316" y2="1550.765"/>
      <line x1="597.000" y1="1551.765" x2="556.316" y2="1551.765"/>
      <line x1="597.000" y1="1552.765" x2="556.316" y2="1552.765"/>
      <line x1="597.000" y1="1553.765" x2="556.316" y2="1553.765"/>
      <line x1="597.000" y1="1554.765" x2="556.316" y2="1554.765"/>
      <line x1="597.000" y1="1555.765" x2="556.316" y2="1555.765"/>
      <line x1="597.000" y1="1556.765" x2="556.316" y2="1556.765"/>
      <line x1="597.000" y1="1557.765" x2="556.316" y2="1557.765"/>
      <line x1="597.000" y1="1558.765" x2="556.316" y2="1558.765"/>
      <line x1="597.000" y1="1559.765" x2="556.316" y2="1559.765"/>
      <line x1="597.000" y1="1560.765" x2="556.316" y2="1560.765"/>
      <line x1="597.000" y1="1561.765" x2="556.316" y2="1561.765"/>
      <line x1="597.000" y1="1562.765" x2="556.316" y2="1562.765"/>
      <line x1="597.000" y1="1563.765" x2="556.316" y2="1563.765"/>
      <line x1="597.000" y1="1564.765" x2="556.316" y2="1564.765"/>
      <line x1="597.000" y1="1565.765" x2="556.316" y2="1565.765"/>
      <line x1="597.000" y1="1566.765" x2="556.316" y2="1566.765"/>
      <line x1="597.000" y1="1567.765" x2="556.316" y2="1567.765"/>
      <line x1="597.000" y1="1568.765" x2="556.316" y2="1568.765"/>
      <line x1="597.000" y1="1569.765" x2="556.316" y2="1569.765"/>
      <line x1="597.000" y1="1570.765" x2="556.316" y2="1570.765"/>
      <line x1="597.000" y1="1571.765" x2="556.316" y2="1571.765"/>
      <line x1="597.000" y1="1572.765" x2="556.316" y2="1572.765"/>
      <line x1="597.000" y1="1573.765" x2="556.316" y2="1573.765"/>
      <line x1="597.000" y1="1574.765" x2="556.316" y2="1574.765"/>
      <line x1="597.000" y1="1575.765" x2="556.316" y2="1575.765"/>
      <line x1="597.000" y1="1576.765" x2="556.316" y2="1576.765"/>
      <line x1="597.000" y1="1577.765" x2="556.316" y2="1577.765"/>
      <line x1="597.000" y1="1578.765" x2="556.316" y2="1578.765"/>
      <line x1="556.216" y1="1525.765" x2="506.216" y2="1525.765"/>
      <line x1="556.216" y1="1526.765" x2="506.216" y2="1526.765"/>
      <line x1="556.216" y1="1527.765" x2="506.216" y2="1527.765"/>
      <line x1="556.216" y1="1528.765" x2="506.216" y2="1528.765"/>
      <line x1="597.000" y1="1525.765" x2="556.316" y2="1525.765"/>
      <line x1="597.000" y1="1526.765" x2="556.316" y2="1526.765"/>
      <line x1="597.000" y1="1527.765" x2="556.316" y2="1527.765"/>
      <line x1="597.000" y1="1528.765" x2="556.316" y2="1528.765"/>
      <line x1="53.000" y1="1629.765" x2="3.000" y2="1629.765"/>
      <line x1="53.000" y1="1630.765" x2="3.000" y2="1630.765"/>
      <line x1="53.000" y1="1631.765" x2="3.000" y2="1631.765"/>
      <line x1="53.000" y1="1632.765" x2="3.000" y2="1632.765"/>
      <line x1="53.000" y1="1633.765" x2="3.000" y2="1633.765"/>
      <line x1="53.000" y1="1634.765" x2="3.000" y2="1634.765"/>
      <line x1="53.000" y1="1635.765" x2="3.000" y2="1635.765"/>
      <line x1="53.000" y1="1636.765" x2="3.000" y2="1636.765"/>
      <line x1="53.000" y1="1637.765" x2="3.000" y2="1637.765"/>
      <line x1="53.000" y1="1638.765" x2="3.000" y2="1638.765"/>
      <line x1="53.000" y1="1639.765" x2="3.000" y2="1639.765"/>
      <line x1="53.000" y1="1640.765" x2="3.000" y2="1640.765"/>
      <line x1="53.000" y1="1641.765" x2="3.000" y2="1641.765"/>
      <line x1="53.000" y1="1642.765" x2="3.000" y2="1642.765"/>
      <line x1="53.000" y1="1643.765" x2="3.000" y2="1643.765"/>
      <line x1="53.000" y1="1644.765" x2="3.000" y2="1644.765"/>
      <line x1="53.000" y1="1645.765" x2="3.000" y2="1645.765"/>
      <line x1="53.000" y1="1646.765" x2="3.000" y2="1646.765"/>
      <line x1="53.000" y1="1647.765" x2="3.000" y2="1647.765"/>
      <line x1="53.000" y1="1648.765" x2="3.000" y2="1648.765"/>
      <line x1="53.000" y1="1649.765" x2="3.000" y2="1649.765"/>
      <line x1="53.000" y1="1650.765" x2="3.000" y2="1650.765"/>
      <line x1="53.000" y1="1651.765" x2="3.000" y2="1651.765"/>
      <line x1="53.000" y1="1652.765" x2="3.000" y2="1652.765"/>
      <line x1="53.000" y1="1653.765" x2="3.000" y2="1653.765"/>
      <line x1="53.000" y1="1654.765" x2="3.000" y2="1654.765"/>
      <line x1="53.000" y1="1655.765" x2="3.000" y2="1655.765"/>
      <line x1="53.000" y1="1656.765" x2="3.000" y2="1656.765"/>
      <line x1="53.000" y1="1657.765" x2="3.000" y2="1657.765"/>
      <line x1="53.000" y1="1658.765" x2="3.000" y2="1658.765"/>
      <line x1="53.000" y1="1659.765" x2="3.000" y2="1659.765"/>
      <line x1="53.000" y1="1660.765" x2="3.000" y2="1660.765"/>
      <line x1="53.000" y1="1661.765" x2="3.000" y2="1661.765"/>
      <line x1="53.000" y1="1662.765" x2="3.000" y2="1662.765"/>
      <line x1="53.000" y1="1663.765" x2="3.000" y2="1663.765"/>
      <line x1="53.000" y1="1664.765" x2="3.000" y2="1664.765"/>
      <line x1="53.000" y1="1665.765" x2="3.000" y2="1665.765"/>
      <line x1="53.000" y1="1666.765" x2="3.000" y2="1666.765"/>
      <line x1="53.000" y1="1667.765" x2="3.000" y2="1667.765"/>
      <line x1="53.000" y1="1668.765" x2="3.000" y2="1668.765"/>
      <line x1="53.000" y1="1669.765" x2="3.000" y2="1669.765"/>
      <line x1="53.000" y1="1670.765" x2="3.000" y2="1670.765"/>
      <line x1="53.000" y1="1671.765" x2="3.000" y2="1671.765"/>
      <line x1="53.000" y1="1672.765" x2="3.000" y2="1672.765"/>
      <line x1="53.000" y1="1673.765" x2="3.000" y2="1673.765"/>
      <line x1="53.000" y1="1674.765" x2="3.000" y2="1674.765"/>
      <line x1="53.000" y1="1675.765" x2="3.000" y2="1675.765"/>
      <line x1="53.000" y1="1676.765" x2="3.000" y2="1676.765"/>
      <line x1="53.000" y1="1677.765" x2="3.000" y2="1677.765"/>
      <line x1="53.000" y1="1678.765" x2="3.000" y2="1678.765"/>
      <line x1="93.784" y1="1629.765" x2="53.100" y2="1629.765"/>
      <line x1="93.784" y1="1630.765" x2="53.100" y2="1630.765"/>
      <line x1="93.784" y1="1631.765" x2="53.100" y2="1631.765"/>
      <line x1="93.784" y1="1632.765" x2="53.100" y2="1632.765"/>
      <line x1="93.784" y1="1633.765" x2="53.100" y2="1633.765"/>
      <line x1="93.784" y1="1634.765" x2="53.100" y2="1634.765"/>
      <line x1="93.784" y1="1635.765" x2="53.100" y2="1635.765"/>
      <line x1="93.784" y1="1636.765" x2="53.100" y2="1636.765"/>
      <line x1="93.784" y1="1637.765" x2="53.100" y2="1637.765"/>
      <line x1="93.784" y1="1638.765" x2="53.100" y2="1638.765"/>
      <line x1="93.784" y1="1639.765" x2="53.100" y2="1639.765"/>
      <line x1="93.784" y1="1640.765" x2="53.100" y2="1640.765"/>
      <line x1="93.784" y1="1641.765" x2="53.100" y2="1641.765"/>
      <line x1="93.784" y1="1642.765" x2="53.100" y2="1642.765"/>
      <line x1="93.784" y1="1643.765" x2="53.100" y2="1643.765"/>
      <line x1="93.784" y1="1644.765" x2="53.100" y2="1644.765"/>
      <line x1="93.784" y1="1645.765" x2="53.100" y2="1645.765"/>
      <line x1="93.784" y1="1646.765" x2="53.100" y2="1646.765"/>
      <line x1="93.784" y1="1647.765" x2="53.100" y2="1647.765"/>
      <line x1="93.784" y1="1648.765" x2="53.100" y2="1648.765"/>
      <line x1="93.784" y1="1649.765" x2="53.100" y2="1649.765"/>
      <line x1="93.784" y1="1650.765" x2="53.100" y2="1650.765"/>
      <line x1="93.784" y1="1651.765" x2="53.100" y2="1651.765"/>
      <line x1="93.784" y1="1652.765" x2="53.100" y2="1652.765"/>
      <line x1="93.784" y1="1653.765" x2="53.100" y2="1653.765"/>
      <line x1="93.784" y1="1654.765" x2="53.100" y2="1654.765"/>
      <line x1="93.784" y1="1655.765" x2="53.100" y2="1655.765"/>
      <line x1="93.784" y1="1656.765" x2="53.100" y2="1656.765"/>
      <line x1="93.784" y1="1657.765" x2="53.100" y2="1657.765"/>
      <line x1="93.784" y1="1658.765" x2="53.100" y2="1658.765"/>
      <line x1="93.784" y1="1659.765" x2="53.100" y2="1659.765"/>
      <line x1="93.784" y1="1660.765" x2="53.100" y2="1660.765"/>
      <line x1="93.784" y1="1661.765" x2="53.100" y2="1661.765"/>
      <line x1="93.784" y1="1662.765" x2="53.100" y2="1662.765"/>
      <line x1="93.784" y1="1663.765" x2="53.100" y2="1663.765"/>
      <line x1="93.784" y1="1664.765" x2="53.100" y2="1664.765"/>
      <line x1="93.784" y1="1665.765" x2="53.100" y2="1665.765"/>
      <line x1="93.784" y1="1666.765" x2="53.100" y2="1666.765"/>
      <line x1="93.784" y1="1667.765" x2="53.100" y2="1667.765"/>
      <line x1="93.784" y1="1668.765" x2="53.100" y2="1668.765"/>
      <line x1="93.784" y1="1669.765" x2="53.100" y2="1669.765"/>
      <line x1="93.784" y1="1670.765" x2="53.100" y2="1670.765"/>
      <line x1="93.784" y1="1671.765" x2="53.100" y2="1671.765"/>
      <line x1="93.784" y1="1672.765" x2="53.100" y2="1672.765"/>
      <line x1="93.784" y1="1673.765" x2="53.100" y2="1673.765"/>
      <line x1="93.784" y1="1674.765" x2="53.100" y2="1674.765"/>
      <line x1="93.784" y1="1675.765" x2="53.100" y2="1675.765"/>
      <line x1="93.784" y1="1676.765" x2="53.100" y2="1676.765"/>
      <line x1="93.784" y1="1677.765" x2="53.100" y2="1677.765"/>
      <line x1="93.784" y1="1678.765" x2="53.100" y2="1678.765"/>
      <line x1="53.000" y1="1579.765" x2="3.000" y2="1579.765"/>
      <line x1="53.000" y1="1580.765" x2="3.000" y2="1580.765"/>
      <line x1="53.000" y1="1581.765" x2="3.000" y2="1581.765"/>
      <line x1="53.000" y1="1582.765" x2="3.000" y2="1582.765"/>
      <line x1="53.000" y1="1583.765" x2="3.000" y2="1583.765"/>
      <line x1="53.000" y1="1584.765" x2="3.000" y2="1584.765"/>
      <line x1="53.000" y1="1585.765" x2="3.000" y2="1585.765"/>
      <line x1="53.000" y1="1586.765" x2="3.000" y2="1586.765"/>
      <line x1="53.000" y1="1587.765" x2="3.000" y2="1587.765"/>
      <line x1="53.000" y1="1588.765" x2="3.000" y2="1588.765"/>
      <line x1="53.000" y1="1589.765" x2="3.000" y2="1589.765"/>
      <line x1="53.000" y1="1590.765" x2="3.000" y2="1590.765"/>
      <line x1="53.000" y1="1591.765" x2="3.000" y2="1591.765"/>
      <line x1="53.000" y1="1592.765" x2="3.000" y2="1592.765"/>
      <line x1="53.000" y1="1593.765" x2="3.000" y2="1593.765"/>
      <line x1="53.000" y1="1594.765" x2="3.000" y2="1594.765"/>
      <line x1="53.000" y1="1595.765" x2="3.000" y2="1595.765"/>
      <line x1="53.000" y1="1596.765" x2="3.000" y2="1596.765"/>
      <line x1="53.000" y1="1597.765" x2="3.000" y2="1597.765"/>
      <line x1="53.000" y1="1598.765" x2="3.000" y2="1598.765"/>
      <line x1="53.000" y1="1599.765" x2="3.000" y2="1599.765"/>
      <line x1="53.000" y1="1600.765" x2="3.000" y2="1600.765"/>
      <line x1="53.000" y1="1601.765" x2="3.000" y2="1601.765"/>
      <line x1="53.000" y1="1602.765" x2="3.000" y2="1602.765"/>
      <line x1="53.000" y1="1603.765" x2="3.000" y2="1603.765"/>
      <line x1="53.000" y1="1604.765" x2="3.000" y2="1604.765"/>
      <line x1="53.000" y1="1605.765" x2="3.000" y2="1605.765"/>
      <line x1="53.000" y1="1606.765" x2="3.000" y2="1606.765"/>
      <line x1="53.000" y1="1607.765" x2="3.000" y2="1607.765"/>
      <line x1="53.000" y1="1608.765" x2="3.000" y2="1608.765"/>
      <line x1="53.000" y1="1609.765" x2="3.000" y2="1609.765"/>
      <line x1="53.000" y1="1610.765" x2="3.000" y2="1610.765"/>
      <line x1="53.000" y1="1611.765" x2="3.000" y2="1611.765"/>
      <line x1="53.000" y1="1612.765" x2="3.000" y2="1612.765"/>
      <line x1="53.000" y1="1613.765" x2="3.000" y2="1613.765"/>
      <line x1="53.000" y1="1614.765" x2="3.000" y2="1614.765"/>
      <line x1="53.000" y1="1615.765" x2="3.000" y2="1615.765"/>
      <line x1="53.000" y1="1616.765" x2="3.000" y2="1616.765"/>
      <line x1="53.000" y1="1617.765" x2="3.000" y2="1617.765"/>
      <line x1="53.000" y1="1618.765" x2="3.000" y2="1618.765"/>
      <line x1="53.000" y1="1619.765" x2="3.000" y2="1619.765"/>
      <line x1="53.000" y1="1620.765" x2="3.000" y2="1620.765"/>
      <line x1="53.000" y1="1621.765" x2="3.000" y2="1621.765"/>
      <line x1="53.000" y1="1622.765" x2="3.000" y2="1622.765"/>
      <line x1="53.000" y1="1623.765" x2="3.000" y2="1623.765"/>
      <line x1="53.000" y1="1624.765" x2="3.000" y2="1624.765"/>
      <line x1="53.000" y1="1625.765" x2="3.000" y2="1625.765"/>
      <line x1="53.000" y1="1626.765" x2="3.000" y2="1626.765"/>
      <line x1="53.000" y1="1627.765" x2="3.000" y2="1627.765"/>
      <line x1="53.000" y1="1628.765" x2="3.000" y2="1628.765"/>
      <line x1="93.784" y1="1579.765" x2="53.100" y2="1579.765"/>
      <line x1="93.784" y1="1580.765" x2="53.100" y2="1580.765"/>
      <line x1="93.784" y1="1581.765" x2="53.100" y2="1581.765"/>
      <line x1="93.784" y1="1582.765" x2="53.100" y2="1582.765"/>
      <line x1="93.784" y1="1583.765" x2="53.100" y2="1583.765"/>
      <line x1="93.784" y1="1584.765" x2="53.100" y2="1584.765"/>
      <line x1="93.784" y1="1585.765" x2="53.100" y2="1585.765"/>
      <line x1="93.784" y1="1586.765" x2="53.100" y2="1586.765"/>
      <line x1="93.784" y1="1587.765" x2="53.100" y2="1587.765"/>
      <line x1="93.784" y1="1588.765" x2="53.100" y2="1588.765"/>
      <line x1="93.784" y1="1589.765" x2="53.100" y2="1589.765"/>
      <line x1="93.784" y1="1590.765" x2="53.100" y2="1590.765"/>
      <line x1="93.784" y1="1591.765" x2="53.100" y2="1591.765"/>
      <line x1="93.784" y1="1592.765" x2="53.100" y2="1592.765"/>
      <line x1="93.784" y1="1593.765" x2="53.100" y2="1593.765"/>
      <line x1="93.784" y1="1594.765" x2="53.100" y2="1594.765"/>
      <line x1="93.784" y1="1595.765" x2="53.100" y2="1595.765"/>
      <line x1="93.784" y1="1596.765" x2="53.100" y2="1596.765"/>
      <line x1="93.784" y1="1597.765" x2="53.100" y2="1597.765"/>
      <line x1="93.784" y1="1598.765" x2="53.100" y2="1598.765"/>
      <line x1="93.784" y1="1599.765" x2="53.100" y2="1599.765"/>
      <line x1="93.784" y1="1600.765" x2="53.100" y2="1600.765"/>
      <line x1="93.784" y1="1601.765" x2="53.100" y2="1601.765"/>
      <line x1="93.784" y1="1602.765" x2="53.100" y2="1602.765"/>
      <line x1="93.784" y1="1603.765" x2="53.100" y2="1603.765"/>
      <line x1="93.784" y1="1604.765" x2="53.100" y2="1604.765"/>
      <line x1="93.784" y1="1605.765" x2="53.100" y2="1605.765"/>
      <line x1="93.784" y1="1606.765" x2="53.100" y2="1606.765"/>
      <line x1="93.784" y1="1607.765" x2="53.100" y2="1607.765"/>
      <line x1="93.784" y1="1608.765" x2="53.100" y2="1608.765"/>
      <line x1="93.784" y1="1609.765" x2="53.100" y2="1609.765"/>
      <line x1="93.784" y1="1610.765" x2="53.100" y2="1610.765"/>
      <line x1="93.784" y1="1611.765" x2="53.100" y2="1611.765"/>
      <line x1="93.784" y1="1612.765" x2="53.100" y2="1612.765"/>
      <line x1="93.784" y1="1613.765" x2="53.100" y2="1613.765"/>
      <line x1="93.784" y1="1614.765" x2="53.100" y2="1614.765"/>
      <line x1="93.784" y1="1615.765" x2="53.100" y2="1615.765"/>
      <line x1="93.784" y1="1616.765" x2="53.100" y2="1616.765"/>
      <line x1="93.784" y1="1617.765" x2="53.100" y2="1617.765"/>
      <line x1="93.784" y1="1618.765" x2="53.100" y2="1618.765"/>
      <line x1="93.784" y1="1619.765" x2="53.100" y2="1619.765"/>
      <line x1="93.784" y1="1620.765" x2="53.100" y2="1620.765"/>
      <line x1="93.784" y1="1621.765" x2="53.100" y2="1621.765"/>
      <line x1="93.784" y1="1622.765" x2="53.100" y2="1622.765"/>
      <line x1="93.784" y1="1623.765" x2="53.100" y2="1623.765"/>
      <line x1="93.784" y1="1624.765" x2="53.100" y2="1624.765"/>
      <line x1="93.784" y1="1625.765" x2="53.100" y2="1625.765"/>
      <line x1="93.784" y1="1626.765" x2="53.100" y2="1626.765"/>
      <line x1="93.784" y1="1627.765" x2="53.100" y2="1627.765"/>
      <line x1="93.784" y1="1628.765" x2="53.100" y2="1628.765"/>
      <line x1="53.000" y1="1529.765" x2="3.000" y2="1529.765"/>
      <line x1="53.000" y1="1530.765" x2="3.000" y2="1530.765"/>
      <line x1="53.000" y1="1531.765" x2="3.000" y2="1531.765"/>
      <line x1="53.000" y1="1532.765" x2="3.000" y2="1532.765"/>
      <line x1="53.000" y1="1533.765" x2="3.000" y2="1533.765"/>
      <line x1="53.000" y1="1534.765" x2="3.000" y2="1534.765"/>
      <line x1="53.000" y1="1535.765" x2="3.000" y2="1535.765"/>
      <line x1="53.000" y1="1536.765" x2="3.000" y2="1536.765"/>
      <line x1="53.000" y1="1537.765" x2="3.000" y2="1537.765"/>
      <line x1="53.000" y1="1538.765" x2="3.000" y2="1538.765"/>
      <line x1="53.000" y1="1539.765" x2="3.000" y2="1539.765"/>
      <line x1="53.000" y1="1540.765" x2="3.000" y2="1540.765"/>
      <line x1="53.000" y1="1541.765" x2="3.000" y2="1541.765"/>
      <line x1="53.000" y1="1542.765" x2="3.000" y2="1542.765"/>
      <line x1="53.000" y1="1543.765" x2="3.000" y2="1543.765"/>
      <line x1="53.000" y1="1544.765" x2="3.000" y2="1544.765"/>
      <line x1="53.000" y1="1545.765" x2="3.000" y2="1545.765"/>
      <line x1="53.000" y1="1546.765" x2="3.000" y2="1546.765"/>
      <line x1="53.000" y1="1547.765" x2="3.000" y2="1547.765"/>
      <line x1="53.000" y1="1548.765" x2="3.000" y2="1548.765"/>
      <line x1="53.000" y1="1549.765" x2="3.000" y2="1549.765"/>
      <line x1="53.000" y1="1550.765" x2="3.000" y2="1550.765"/>
      <line x1="53.000" y1="1551.765" x2="3.000" y2="1551.765"/>
      <line x1="53.000" y1="1552.765" x2="3.000" y2="1552.765"/>
      <line x1="53.000" y1="1553.765" x2="3.000" y2="1553.765"/>
      <line x1="53.000" y1="1554.765" x2="3.000" y2="1554.765"/>
      <line x1="53.000" y1="1555.765" x2="3.000" y2="1555.765"/>
      <line x1="53.000" y1="1556.765" x2="3.000" y2="1556.765"/>
      <line x1="53.000" y1="1557.765" x2="3.000" y2="1557.765"/>
      <line x1="53.000" y1="1558.765" x2="3.000" y2="1558.765"/>
      <line x1="53.000" y1="1559.765" x2="3.000" y2="1559.765"/>
      <line x1="53.000" y1="1560.765" x2="3.000" y2="1560.765"/>
      <line x1="53.000" y1="1561.765" x2="3.000" y2="1561.765"/>
      <line x1="53.000" y1="1562.765" x2="3.000" y2="1562.765"/>
      <line x1="53.000" y1="1563.765" x2="3.000" y2="1563.765"/>
      <line x1="53.000" y1="1564.765" x2="3.000" y2="1564.765"/>
      <line x1="53.000" y1="1565.765" x2="3.000" y2="1565.765"/>
      <line x1="53.000" y1="1566.765" x2="3.000" y2="1566.765"/>
      <line x1="53.000" y1="1567.765" x2="3.000" y2="1567.765"/>
      <line x1="53.000" y1="1568.765" x2="3.000" y2="1568.765"/>
      <line x1="53.000" y1="1569.765" x2="3.000" y2="1569.765"/>
      <line x1="53.000" y1="1570.765" x2="3.000" y2="1570.765"/>
      <line x1="53.000" y1="1571.765" x2="3.000" y2="1571.765"/>
      <line x1="53.000" y1="1572.765" x2="3.000" y2="1572.765"/>
      <line x1="53.000" y1="1573.765" x2="3.000" y2="1573.765"/>
      <line x1="53.000" y1="1574.765" x2="3.000" y2="1574.765"/>
      <line x1="53.000" y1="1575.765" x2="3.000" y2="1575.765"/>
      <line x1="53.000" y1="1576.765" x2="3.000" y2="1576.765"/>
      <line x1="53.000" y1="1577.765" x2="3.000" y2="1577.765"/>
      <line x1="53.000" y1="1578.765" x2="3.000" y2="1578.765"/>
      <line x1="93.784" y1="1529.765" x2="53.100" y2="1529.765"/>
      <line x1="93.784" y1="1530.765" x2="53.100" y2="1530.765"/>
      <line x1="93.784" y1="1531.765" x2="53.100" y2="1531.765"/>
      <line x1="93.784" y1="1532.765" x2="53.100" y2="1532.765"/>
      <line x1="93.784" y1="1533.765" x2="53.100" y2="1533.765"/>
      <line x1="93.784" y1="1534.765" x2="53.100" y2="1534.765"/>
      <line x1="93.784" y1="1535.765" x2="53.100" y2="1535.765"/>
      <line x1="93.784" y1="1536.765" x2="53.100" y2="1536.765"/>
      <line x1="93.784" y1="1537.765" x2="53.100" y2="1537.765"/>
      <line x1="93.784" y1="1538.765" x2="53.100" y2="1538.765"/>
      <line x1="93.784" y1="1539.765" x2="53.100" y2="1539.765"/>
      <line x1="93.784" y1="1540.765" x2="53.100" y2="1540.765"/>
      <line x1="93.784" y1="1541.765" x2="53.100" y2="1541.765"/>
      <line x1="93.784" y1="1542.765" x2="53.100" y2="1542.765"/>
      <line x1="93.784" y1="1543.765" x2="53.100" y2="1543.765"/>
      <line x1="93.784" y1="1544.765" x2="53.100" y2="1544.765"/>
      <line x1="93.784" y1="1545.765" x2="53.100" y2="1545.765"/>
      <line x1="93.784" y1="1546.765" x2="53.100" y2="1546.765"/>
      <line x1="93.784" y1="1547.765" x2="53.100" y2="1547.765"/>
      <line x1="93.784" y1="1548.765" x2="53.100" y2="1548.765"/>
      <line x1="93.784" y1="1549.765" x2="53.100" y2="1549.765"/>
      <line x1="93.784" y1="1550.765" x2="53.100" y2="1550.765"/>
      <line x1="93.784" y1="1551.765" x2="53.100" y2="1551.765"/>
      <line x1="93.784" y1="1552.765" x2="53.100" y2="1552.765"/>
      <line x1="93.784" y1="1553.765" x2="53.100" y2="1553.765"/>
      <line x1="93.784" y1="1554.765" x2="53.100" y2="1554.765"/>
      <line x1="93.784" y1="1555.765" x2="53.100" y2="1555.765"/>
      <line x1="93.784" y1="1556.765" x2="53.100" y2="1556.765"/>
      <line x1="93.784" y1="1557.765" x2="53.100" y2="1557.765"/>
      <line x1="93.784" y1="1558.765" x2="53.100" y2="1558.765"/>
      <line x1="93.784" y1="1559.765" x2="53.100" y2="1559.765"/>
      <line x1="93.784" y1="1560.765" x2="53.100" y2="1560.765"/>
      <line x1="93.784" y1="1561.765" x2="53.100" y2="1561.765"/>
      <line x1="93.784" y1="1562.765" x2="53.100" y2="1562.765"/>
      <line x1="93.784" y1="1563.765" x2="53.100" y2="1563.765"/>
      <line x1="93.784" y1="1564.765" x2="53.100" y2="1564.765"/>
      <line x1="93.784" y1="1565.765" x2="53.100" y2="1565.765"/>
      <line x1="93.784" y1="1566.765" x2="53.100" y2="1566.765"/>
      <line x1="93.784" y1="1567.765" x2="53.100" y2="1567.765"/>
      <line x1="93.784" y1="1568.765" x2="53.100" y2="1568.765"/>
      <line x1="93.784" y1="1569.765" x2="53.100" y2="1569.765"/>
      <line x1="93.784" y1="1570.765" x2="53.100" y2="1570.765"/>
      <line x1="93.784" y1="1571.765" x2="53.100" y2="1571.765"/>
      <line x1="93.784" y1="1572.765" x2="53.100" y2="1572.765"/>
      <line x1="93.784" y1="1573.765" x2="53.100" y2="1573.765"/>
      <line x1="93.784" y1="1574.765" x2="53.100" y2="1574.765"/>
      <line x1="93.784" y1="1575.765" x2="53.100" y2="1575.765"/>
      <line x1="93.784" y1="1576.765" x2="53.100" y2="1576.765"/>
      <line x1="93.784" y1="1577.765" x2="53.100" y2="1577.765"/>
      <line x1="93.784" y1="1578.765" x2="53.100" y2="1578.765"/>
      <line x1="53.000" y1="1525.765" x2="3.000" y2="1525.765"/>
      <line x1="53.000" y1="1526.765" x2="3.000" y2="1526.765"/>
      <line x1="53.000" y1="1527.765" x2="3.000" y2="1527.765"/>
      <line x1="53.000" y1="1528.765" x2="3.000" y2="1528.765"/>
      <line x1="93.784" y1="1525.765" x2="53.100" y2="1525.765"/>
      <line x1="93.784" y1="1526.765" x2="53.100" y2="1526.765"/>
      <line x1="93.784" y1="1527.765" x2="53.100" y2="1527.765"/>
      <line x1="93.784" y1="1528.765" x2="53.100" y2="1528.765"/>
    </g>
    <g stroke="#1976D2" stroke-width="0.4">
      <polyline points="504.572,1682.729 600.500,1682.729 600.500,1521.729 504.572,1521.729" fill="none"/>
      <polyline points="504.572,1521.729 502.716,1521.729 502.716,1682.729 504.572,1682.729" fill="none"/>
      <polyline points="504.572,1681.730 599.500,1681.730 599.500,1522.729 504.572,1522.729" fill="none"/>
      <polyline points="504.572,1522.729 503.716,1522.729 503.716,1681.730 504.572,1681.730" fill="none"/>
      <polyline points="598.500,1523.729 504.716,1523.729 504.716,1680.730 598.500,1680.730 598.500,1523.729" fill="none"/>
      <polyline points="597.500,1524.729 505.716,1524.729 505.716,1679.729 597.500,1679.729 597.500,1524.729" fill="none"/>
      <polyline points="95.428,1521.729 -0.500,1521.729 -0.500,1682.729 95.428,1682.729" fill="none"/>
      <polyline points="95.428,1682.729 97.284,1682.729 97.284,1521.729 95.428,1521.729" fill="none"/>
      <polyline points="95.428,1522.729 0.500,1522.729 0.500,1681.730 95.428,1681.730" fill="none"/>
      <polyline points="95.428,1681.730 96.284,1681.730 96.284,1522.729 95.428,1522.729" fill="none"/>
      <polyline points="95.284,1523.729 1.500,1523.729 1.500,1680.730 95.284,1680.730 95.284,1523.729" fill="none"/>
      <polyline points="94.284,1524.729 2.500,1524.729 2.500,1679.729 94.284,1679.729 94.284,1524.729" fill="none"/>
    </g>
    <g stroke="#C62828" stroke-width="0.4" fill="none">
      <polygon points="295.037,1534.579 296.476,1533.372 297.415,1531.746 297.741,1529.896 297.415,1528.047 296.476,1526.420 295.037,1525.213 293.272,1524.571 291.394,1524.571 289.630,1525.213 288.191,1526.420 287.252,1528.047 286.926,1529.896 287.252,1531.746 288.191,1533.372 289.630,1534.579 291.394,1535.221 293.272,1535.221"/>
      <polygon points="314.996,1534.508 316.413,1533.320 317.338,1531.718 317.659,1529.896 317.338,1528.075 316.413,1526.473 314.996,1525.284 313.258,1524.651 311.409,1524.651 309.670,1525.284 308.254,1526.473 307.329,1528.075 307.008,1529.896 307.329,1531.718 308.254,1533.320 309.670,1534.508 311.409,1535.141 313.258,1535.141"/>
      <polygon points="274.912,1534.362 276.284,1533.211 277.179,1531.660 277.490,1529.896 277.179,1528.132 276.284,1526.581 274.912,1525.430 273.229,1524.817 271.438,1524.817 269.755,1525.430 268.383,1526.581 267.487,1528.132 267.176,1529.896 267.487,1531.660 268.383,1533.211 269.755,1534.362 271.438,1534.975 273.229,1534.975"/>
      <polygon points="334.868,1534.287 336.217,1533.155 337.097,1531.630 337.403,1529.896 337.097,1528.162 336.217,1526.637 334.868,1525.506 333.214,1524.903 331.453,1524.903 329.798,1525.506 328.450,1526.637 327.569,1528.162 327.264,1529.896 327.569,1531.630 328.450,1533.155 329.798,1534.287 331.453,1534.889 333.214,1534.889"/>
      <polygon points="254.513,1534.273 255.946,1533.190 256.892,1531.662 257.222,1529.896 256.892,1528.130 255.946,1526.603 254.513,1525.520 252.784,1525.028 250.995,1525.194 249.387,1525.995 248.177,1527.323 247.528,1528.998 247.528,1530.794 248.177,1532.470 249.387,1533.798 250.995,1534.598 252.784,1534.764"/>
      <polygon points="354.512,1534.273 355.946,1533.190 356.892,1531.662 357.222,1529.896 356.892,1528.130 355.946,1526.603 354.512,1525.520 352.784,1525.028 350.995,1525.194 349.387,1525.995 348.177,1527.323 347.528,1528.998 347.528,1530.794 348.177,1532.470 349.387,1533.798 350.995,1534.598 352.784,1534.764"/>
      <polygon points="234.428,1534.103 235.806,1533.062 236.715,1531.594 237.033,1529.896 236.715,1528.199 235.806,1526.730 234.428,1525.690 232.767,1525.217 231.047,1525.376 229.501,1526.146 228.338,1527.422 227.714,1529.033 227.714,1530.760 228.338,1532.370 229.501,1533.646 231.047,1534.416 232.767,1534.575"/>
      <polygon points="374.384,1534.015 375.733,1532.996 376.623,1531.558 376.934,1529.896 376.623,1528.234 375.733,1526.797 374.384,1525.778 372.758,1525.315 371.074,1525.471 369.561,1526.225 368.422,1527.474 367.811,1529.051 367.811,1530.742 368.422,1532.318 369.561,1533.568 371.074,1534.321 372.758,1534.477"/>
      <polygon points="214.016,1533.958 215.442,1533.005 216.395,1531.579 216.730,1529.896 216.395,1528.214 215.442,1526.787 214.016,1525.834 212.333,1525.500 210.651,1525.834 209.224,1526.787 208.271,1528.214 207.937,1529.896 208.271,1531.579 209.224,1533.005 210.651,1533.958 212.333,1534.293"/>
      <polygon points="393.975,1533.860 395.367,1532.930 396.297,1531.538 396.624,1529.896 396.297,1528.254 395.367,1526.862 393.975,1525.932 392.333,1525.606 390.691,1525.932 389.299,1526.862 388.369,1528.254 388.043,1529.896 388.369,1531.538 389.299,1532.930 390.691,1533.860 392.333,1534.187"/>
      <polygon points="413.891,1533.657 415.211,1532.774 416.094,1531.454 416.404,1529.896 416.094,1528.339 415.211,1527.018 413.891,1526.136 412.333,1525.826 410.776,1526.136 409.455,1527.018 408.573,1528.339 408.263,1529.896 408.573,1531.454 409.455,1532.774 410.776,1533.657 412.333,1533.966"/>
      <polygon points="193.891,1533.657 195.211,1532.774 196.094,1531.454 196.404,1529.896 196.094,1528.339 195.211,1527.018 193.891,1526.136 192.333,1525.826 190.776,1526.136 189.455,1527.018 188.573,1528.339 188.263,1529.896 188.573,1531.454 189.455,1532.774 190.776,1533.657 192.333,1533.966"/>
      <polygon points="173.519,1533.546 174.901,1532.748 175.839,1531.457 176.171,1529.896 175.839,1528.335 174.901,1527.044 173.519,1526.246 171.932,1526.079 170.414,1526.572 169.228,1527.640 168.579,1529.098 168.579,1530.694 169.228,1532.152 170.414,1533.220 171.932,1533.713"/>
      <polygon points="433.482,1533.431 434.820,1532.658 435.729,1531.408 436.050,1529.896 435.729,1528.384 434.820,1527.134 433.482,1526.361 431.945,1526.200 430.475,1526.677 429.326,1527.711 428.698,1529.123 428.698,1530.669 429.326,1532.081 430.475,1533.115 431.945,1533.593"/>
      <polygon points="154.327,1532.397 155.215,1531.284 155.531,1529.896 155.215,1528.509 154.327,1527.396 153.045,1526.778 151.622,1526.778 150.339,1527.396 149.452,1528.509 149.135,1529.896 149.452,1531.284 150.339,1532.397 151.622,1533.014 153.045,1533.014"/>
      <polygon points="453.989,1532.295 454.915,1531.251 455.249,1529.896 454.915,1528.541 453.989,1527.497 452.685,1527.002 451.300,1527.170 450.151,1527.963 449.503,1529.198 449.503,1530.594 450.151,1531.829 451.300,1532.622 452.685,1532.790"/>
      <polygon points="133.398,1531.740 134.177,1530.961 134.462,1529.896 134.177,1528.832 133.398,1528.052 132.333,1527.767 131.269,1528.052 130.490,1528.832 130.204,1529.896 130.490,1530.961 131.269,1531.740 132.333,1532.025"/>
      <polygon points="473.333,1531.628 474.065,1530.896 474.333,1529.896 474.065,1528.896 473.333,1528.164 472.333,1527.896 471.333,1528.164 470.601,1528.896 470.333,1529.896 470.601,1530.896 471.333,1531.628 472.333,1531.896"/>
      <polygon points="295.037,1554.579 296.476,1553.372 297.415,1551.746 297.741,1549.896 297.415,1548.047 296.476,1546.420 295.037,1545.213 293.272,1544.571 291.394,1544.571 289.630,1545.213 288.191,1546.420 287.252,1548.047 286.926,1549.896 287.252,1551.746 288.191,1553.372 289.630,1554.579 291.394,1555.221 293.272,1555.221"/>
      <polygon points="314.996,1554.508 316.413,1553.320 317.338,1551.718 317.659,1549.896 317.338,1548.075 316.413,1546.473 314.996,1545.284 313.258,1544.651 311.409,1544.651 309.670,1545.284 308.254,1546.473 307.329,1548.075 307.008,1549.896 307.329,1551.718 308.254,1553.320 309.670,1554.508 311.409,1555.141 313.258,1555.141"/>
      <polygon points="274.912,1554.362 276.284,1553.211 277.179,1551.660 277.490,1549.896 277.179,1548.132 276.284,1546.581 274.912,1545.430 273.229,1544.817 271.438,1544.817 269.755,1545.430 268.383,1546.581 267.487,1548.132 267.176,1549.896 267.487,1551.660 268.383,1553.211 269.755,1554.362 271.438,1554.975 273.229,1554.975"/>
      <polygon points="334.868,1554.287 336.217,1553.155 337.097,1551.630 337.403,1549.896 337.097,1548.162 336.217,1546.637 334.868,1545.506 333.214,1544.903 331.453,1544.903 329.798,1545.506 328.450,1546.637 327.569,1548.162 327.264,1549.896 327.569,1551.630 328.450,1553.155 329.798,1554.287 331.453,1554.889 333.214,1554.889"/>
      <polygon points="354.512,1554.273 355.946,1553.190 356.892,1551.662 357.222,1549.896 356.892,1548.130 355.946,1546.603 354.512,1545.520 352.784,1545.028 350.995,1545.194 349.387,1545.995 348.177,1547.323 347.528,1548.998 347.528,1550.794 348.177,1552.470 349.387,1553.798 350.995,1554.598 352.784,1554.764"/>
      <polygon points="254.513,1554.273 255.946,1553.190 256.892,1551.662 257.222,1549.896 256.892,1548.130 255.946,1546.603 254.513,1545.520 252.784,1545.028 250.995,1545.194 249.387,1545.995 248.177,1547.323 247.528,1548.998 247.528,1550.794 248.177,1552.470 249.387,1553.798 250.995,1554.598 252.784,1554.764"/>
      <polygon points="234.428,1554.103 235.806,1553.062 236.715,1551.594 237.033,1549.896 236.715,1548.199 235.806,1546.730 234.428,1545.690 232.767,1545.217 231.047,1545.376 229.501,1546.146 228.338,1547.422 227.714,1549.033 227.714,1550.760 228.338,1552.370 229.501,1553.646 231.047,1554.416 232.767,1554.575"/>
      <polygon points="374.384,1554.015 375.733,1552.996 376.623,1551.558 376.934,1549.896 376.623,1548.234 375.733,1546.797 374.384,1545.778 372.758,1545.315 371.074,1545.471 369.561,1546.225 368.422,1547.474 367.811,1549.051 367.811,1550.742 368.422,1552.318 369.561,1553.568 371.074,1554.321 372.758,1554.477"/>
      <polygon points="214.016,1553.958 215.442,1553.005 216.395,1551.579 216.730,1549.896 216.395,1548.214 215.442,1546.787 214.016,1545.834 212.333,1545.500 210.651,1545.834 209.224,1546.787 208.271,1548.214 207.937,1549.896 208.271,1551.579 209.224,1553.005 210.651,1553.958 212.333,1554.293"/>
      <polygon points="393.975,1553.860 395.367,1552.930 396.297,1551.538 396.624,1549.896 396.297,1548.254 395.367,1546.862 393.975,1545.932 392.333,1545.606 390.691,1545.932 389.299,1546.862 388.369,1548.254 388.043,1549.896 388.369,1551.538 389.299,1552.930 390.691,1553.860 392.333,1554.187"/>
      <polygon points="413.891,1553.657 415.211,1552.774 416.094,1551.454 416.404,1549.896 416.094,1548.339 415.211,1547.018 413.891,1546.136 412.333,1545.826 410.776,1546.136 409.455,1547.018 408.573,1548.339 408.263,1549.896 408.573,1551.454 409.455,1552.774 410.776,1553.657 412.333,1553.966"/>
      <polygon points="193.891,1553.657 195.211,1552.774 196.094,1551.454 196.404,1549.896 196.094,1548.339 195.211,1547.018 193.891,1546.136 192.333,1545.826 190.776,1546.136 189.455,1547.018 188.573,1548.339 188.263,1549.896 188.573,1551.454 189.455,1552.774 190.776,1553.657 192.333,1553.966"/>
      <polygon points="173.519,1553.546 174.901,1552.748 175.839,1551.457 176.171,1549.896 175.839,1548.335 174.901,1547.044 173.519,1546.246 171.932,1546.079 170.414,1546.572 169.228,1547.640 168.579,1549.098 168.579,1550.694 169.228,1552.152 170.414,1553.220 171.932,1553.713"/>
      <polygon points="433.482,1553.431 434.820,1552.658 435.729,1551.408 436.050,1549.896 435.729,1548.384 434.820,1547.134 433.482,1546.361 431.945,1546.200 430.475,1546.677 429.326,1547.711 428.698,1549.123 428.698,1550.669 429.326,1552.081 430.475,1553.115 431.945,1553.593"/>
      <polygon points="154.327,1552.397 155.215,1551.284 155.531,1549.896 155.215,1548.509 154.327,1547.396 153.045,1546.778 151.622,1546.778 150.339,1547.396 149.452,1548.509 149.135,1549.896 149.452,1551.284 150.339,1552.397 151.622,1553.014 153.045,1553.014"/>
      <polygon points="453.989,1552.295 454.915,1551.251 455.249,1549.896 454.915,1548.541 453.989,1547.497 452.685,1547.002 451.300,1547.170 450.151,1547.963 449.503,1549.198 449.503,1550.594 450.151,1551.829 451.300,1552.622 452.685,1552.790"/>
      <polygon points="133.398,1551.740 134.177,1550.961 134.462,1549.896 134.177,1548.832 133.398,1548.052 132.333,1547.767 131.269,1548.052 130.490,1548.832 130.204,1549.896 130.490,1550.961 131.269,1551.740 132.333,1552.025"/>
      <polygon points="473.333,1551.628 474.065,1550.896 474.333,1549.896 474.065,1548.896 473.333,1548.164 472.333,1547.896 471.333,1548.164 470.601,1548.896 470.333,1549.896 470.601,1550.896 471.333,1551.628 472.333,1551.896"/>
      <polygon points="295.037,1574.579 296.476,1573.372 297.415,1571.746 297.741,1569.896 297.415,1568.047 296.476,1566.420 295.037,1565.213 293.272,1564.571 291.394,1564.571 289.630,1565.213 288.191,1566.420 287.252,1568.047 286.926,1569.896 287.252,1571.746 288.191,1573.372 289.630,1574.579 291.394,1575.221 293.272,1575.221"/>
      <polygon points="314.996,1574.508 316.413,1573.320 317.338,1571.718 317.659,1569.896 317.338,1568.075 316.413,1566.473 314.996,1565.284 313.258,1564.651 311.409,1564.651 309.670,1565.284 308.254,1566.473 307.329,1568.075 307.008,1569.896 307.329,1571.718 308.254,1573.320 309.670,1574.508 311.409,1575.141 313.258,1575.141"/>
      <polygon points="274.912,1574.362 276.284,1573.211 277.179,1571.660 277.490,1569.896 277.179,1568.132 276.284,1566.581 274.912,1565.430 273.229,1564.817 271.438,1564.817 269.755,1565.430 268.383,1566.581 267.487,1568.132 267.176,1569.896 267.487,1571.660 268.383,1573.211 269.755,1574.362 271.438,1574.975 273.229,1574.975"/>
      <polygon points="334.868,1574.287 336.217,1573.155 337.097,1571.630 337.403,1569.896 337.097,1568.162 336.217,1566.637 334.868,1565.506 333.214,1564.903 331.453,1564.903 329.798,1565.506 328.450,1566.637 327.569,1568.162 327.264,1569.896 327.569,1571.630 328.450,1573.155 329.798,1574.287 331.453,1574.889 333.214,1574.889"/>
      <polygon points="354.512,1574.273 355.946,1573.190 356.892,1571.662 357.222,1569.896 356.892,1568.130 355.946,1566.603 354.512,1565.520 352.784,1565.028 350.995,1565.194 349.387,1565.995 348.177,1567.323 347.528,1568.998 347.528,1570.794 348.177,1572.470 349.387,1573.798 350.995,1574.598 352.784,1574.764"/>
      <polygon points="254.513,1574.273 255.946,1573.190 256.892,1571.662 257.222,1569.896 256.892,1568.130 255.946,1566.603 254.513,1565.520 252.784,1565.028 250.995,1565.194 249.387,1565.995 248.177,1567.323 247.528,1568.998 247.528,1570.794 248.177,1572.470 249.387,1573.798 250.995,1574.598 252.784,1574.764"/>
      <polygon points="234.428,1574.103 235.806,1573.062 236.715,1571.594 237.033,1569.896 236.715,1568.199 235.806,1566.730 234.428,1565.690 232.767,1565.217 231.047,1565.376 229.501,1566.146 228.338,1567.422 227.714,1569.033 227.714,1570.760 228.338,1572.370 229.501,1573.646 231.047,1574.416 232.767,1574.575"/>
      <polygon points="374.384,1574.015 375.733,1572.996 376.623,1571.558 376.934,1569.896 376.623,1568.234 375.733,1566.797 374.384,1565.778 372.758,1565.315 371.074,1565.471 369.561,1566.225 368.422,1567.474 367.811,1569.051 367.811,1570.742 368.422,1572.318 369.561,1573.568 371.074,1574.321 372.758,1574.477"/>
      <polygon points="214.016,1573.958 215.442,1573.005 216.395,1571.579 216.730,1569.896 216.395,1568.214 215.442,1566.787 214.016,1565.834 212.333,1565.500 210.651,1565.834 209.224,1566.787 208.271,1568.214 207.937,1569.896 208.271,1571.579 209.224,1573.005 210.651,1573.958 212.333,1574.293"/>
      <polygon points="393.975,1573.860 395.367,1572.930 396.297,1571.538 396.624,1569.896 396.297,1568.254 395.367,1566.862 393.975,1565.932 392.333,1565.606 390.691,1565.932 389.299,1566.862 388.369,1568.254 388.043,1569.896 388.369,1571.538 389.299,1572.930 390.691,1573.860 392.333,1574.187"/>
      <polygon points="193.891,1573.657 195.211,1572.774 196.094,1571.454 196.404,1569.896 196.094,1568.339 195.211,1567.018 193.891,1566.136 192.333,1565.826 190.776,1566.136 189.455,1567.018 188.573,1568.339 188.263,1569.896 188.573,1571.454 189.455,1572.774 190.776,1573.657 192.333,1573.966"/>
      <polygon points="413.891,1573.657 415.211,1572.774 416.094,1571.454 416.404,1569.896 416.094,1568.339 415.211,1567.018 413.891,1566.136 412.333,1565.826 410.776,1566.136 409.455,1567.018 408.573,1568.339 408.263,1569.896 408.573,1571.454 409.455,1572.774 410.776,1573.657 412.333,1573.966"/>
      <polygon points="173.519,1573.546 174.901,1572.748 175.839,1571.457 176.171,1569.896 175.839,1568.335 174.901,1567.044 173.519,1566.246 171.932,1566.079 170.414,1566.572 169.228,1567.640 168.579,1569.098 168.579,1570.694 169.228,1572.152 170.414,1573.220 171.932,1573.713"/>
      <polygon points="433.482,1573.431 434.820,1572.658 435.729,1571.408 436.050,1569.896 435.729,1568.384 434.820,1567.134 433.482,1566.361 431.945,1566.200 430.475,1566.677 429.326,1567.711 428.698,1569.123 428.698,1570.669 429.326,1572.081 430.475,1573.115 431.945,1573.593"/>
      <polygon points="154.327,1572.397 155.215,1571.284 155.531,1569.896 155.215,1568.509 154.327,1567.396 153.045,1566.778 151.622,1566.778 150.339,1567.396 149.452,1568.509 149.135,1569.896 149.452,1571.284 150.339,1572.397 151.622,1573.014 153.045,1573.014"/>
      <polygon points="453.989,1572.295 454.915,1571.251 455.249,1569.896 454.915,1568.541 453.989,1567.497 452.685,1567.002 451.300,1567.170 450.151,1567.963 449.503,1569.198 449.503,1570.594 450.151,1571.829 451.300,1572.622 452.685,1572.790"/>
      <polygon points="133.398,1571.740 134.177,1570.961 134.462,1569.896 134.177,1568.832 133.398,1568.052 132.333,1567.767 131.269,1568.052 130.490,1568.832 130.204,1569.896 130.490,1570.961 131.269,1571.740 132.333,1572.025"/>
      <polygon points="473.333,1571.628 474.065,1570.896 474.333,1569.896 474.065,1568.896 473.333,1568.164 472.333,1567.896 471.333,1568.164 470.601,1568.896 470.333,1569.896 470.601,1570.896 471.333,1571.628 472.333,1571.896"/>
      <polygon points="295.037,1594.579 296.476,1593.372 297.415,1591.746 297.741,1589.896 297.415,1588.047 296.476,1586.420 295.037,1585.213 293.272,1584.571 291.394,1584.571 289.630,1585.213 288.191,1586.420 287.252,1588.047 286.926,1589.896 287.252,1591.746 288.191,1593.372 289.630,1594.579 291.394,1595.221 293.272,1595.221"/>
      <polygon points="314.996,1594.508 316.413,1593.320 317.338,1591.718 317.659,1589.896 317.338,1588.075 316.413,1586.473 314.996,1585.284 313.258,1584.651 311.409,1584.651 309.670,1585.284 308.254,1586.473 307.329,1588.075 307.008,1589.896 307.329,1591.718 308.254,1593.320 309.670,1594.508 311.409,1595.141 313.258,1595.141"/>
      <polygon points="274.912,1594.362 276.284,1593.211 277.179,1591.660 277.490,1589.896 277.179,1588.132 276.284,1586.581 274.912,1585.430 273.229,1584.817 271.438,1584.817 269.755,1585.430 268.383,1586.581 267.487,1588.132 267.176,1589.896 267.487,1591.660 268.383,1593.211 269.755,1594.362 271.438,1594.975 273.229,1594.975"/>
      <polygon points="334.868,1594.287 336.217,1593.155 337.097,1591.630 337.403,1589.896 337.097,1588.162 336.217,1586.637 334.868,1585.506 333.214,1584.903 331.453,1584.903 329.798,1585.506 328.450,1586.637 327.569,1588.162 327.264,1589.896 327.569,1591.630 328.450,1593.155 329.798,1594.287 331.453,1594.889 333.214,1594.889"/>
      <polygon points="354.512,1594.273 355.946,1593.190 356.892,1591.662 357.222,1589.896 356.892,1588.130 355.946,1586.603 354.512,1585.520 352.784,1585.028 350.995,1585.194 349.387,1585.995 348.177,1587.323 347.528,1588.998 347.528,1590.794 348.177,1592.470 349.387,1593.798 350.995,1594.598 352.784,1594.764"/>
      <polygon points="254.513,1594.273 255.946,1593.190 256.892,1591.662 257.222,1589.896 256.892,1588.130 255.946,1586.603 254.513,1585.520 252.784,1585.028 250.995,1585.194 249.387,1585.995 248.177,1587.323 247.528,1588.998 247.528,1590.794 248.177,1592.470 249.387,1593.798 250.995,1594.598 252.784,1594.764"/>
      <polygon points="234.428,1594.103 235.806,1593.062 236.715,1591.594 237.033,1589.896 236.715,1588.199 235.806,1586.730 234.428,1585.690 232.767,1585.217 231.047,1585.376 229.501,1586.146 228.338,1587.422 227.714,1589.033 227.714,1590.760 228.338,1592.370 229.501,1593.646 231.047,1594.416 232.767,1594.575"/>
      <polygon points="374.384,1594.015 375.733,1592.996 376.623,1591.558 376.934,1589.896 376.623,1588.234 375.733,1586.797 374.384,1585.778 372.758,1585.315 371.074,1585.471 369.561,1586.225 368.422,1587.474 367.811,1589.051 367.811,1590.742 368.422,1592.318 369.561,1593.568 371.074,1594.321 372.758,1594.477"/>
      <polygon points="214.016,1593.958 215.442,1593.005 216.395,1591.579 216.730,1589.896 216.395,1588.214 215.442,1586.787 214.016,1585.834 212.333,1585.500 210.651,1585.834 209.224,1586.787 208.271,1588.214 207.937,1589.896 208.271,1591.579 209.224,1593.005 210.651,1593.958 212.333,1594.293"/>
      <polygon points="393.975,1593.860 395.367,1592.930 396.297,1591.538 396.624,1589.896 396.297,1588.254 395.367,1586.862 393.975,1585.932 392.333,1585.606 390.691,1585.932 389.299,1586.862 388.369,1588.254 388.043,1589.896 388.369,1591.538 389.299,1592.930 390.691,1593.860 392.333,1594.187"/>
      <polygon points="193.891,1593.657 195.211,1592.774 196.094,1591.454 196.404,1589.896 196.094,1588.339 195.211,1587.018 193.891,1586.136 192.333,1585.826 190.776,1586.136 189.455,1587.018 188.573,1588.339 188.263,1589.896 188.573,1591.454 189.455,1592.774 190.776,1593.657 192.333,1593.966"/>
      <polygon points="413.891,1593.657 415.211,1592.774 416.094,1591.454 416.404,1589.896 416.094,1588.339 415.211,1587.018 413.891,1586.136 412.333,1585.826 410.776,1586.136 409.455,1587.018 408.573,1588.339 408.263,1589.896 408.573,1591.454 409.455,1592.774 410.776,1593.657 412.333,1593.966"/>
      <polygon points="173.519,1593.546 174.901,1592.748 175.839,1591.457 176.171,1589.896 175.839,1588.335 174.901,1587.044 173.519,1586.246 171.932,1586.079 170.414,1586.572 169.228,1587.640 168.579,1589.098 168.579,1590.694 169.228,1592.152 170.414,1593.220 171.932,1593.713"/>
      <polygon points="433.482,1593.431 434.820,1592.658 435.729,1591.408 436.050,1589.896 435.729,1588.384 434.820,1587.134 433.482,1586.361 431.945,1586.200 430.475,1586.677 429.326,1587.711 428.698,1589.123 428.698,1590.669 429.326,1592.081 430.475,1593.115 431.945,1593.593"/>
      <polygon points="154.327,1592.397 155.215,1591.284 155.531,1589.896 155.215,1588.509 154.327,1587.396 153.045,1586.778 151.622,1586.778 150.339,1587.396 149.452,1588.509 149.135,1589.896 149.452,1591.284 150.339,1592.397 151.622,1593.014 153.045,1593.014"/>
      <polygon points="453.989,1592.295 454.915,1591.251 455.249,1589.896 454.915,1588.541 453.989,1587.497 452.685,1587.002 451.300,1587.170 450.151,1587.963 449.503,1589.198 449.503,1590.594 450.151,1591.829 451.300,1592.622 452.685,1592.790"/>
      <polygon points="133.398,1591.740 134.177,1590.961 134.462,1589.896 134.177,1588.832 133.398,1588.052 132.333,1587.767 131.269,1588.052 130.490,1588.832 130.204,1589.896 130.490,1590.961 131.269,1591.740 132.333,1592.025"/>
      <polygon points="473.333,1591.628 474.065,1590.896 474.333,1589.896 474.065,1588.896 473.333,1588.164 472.333,1587.896 471.333,1588.164 470.601,1588.896 470.333,1589.896 470.601,1590.896 471.333,1591.628 472.333,1591.896"/>
      <polygon points="295.037,1614.579 296.476,1613.372 297.415,1611.746 297.741,1609.896 297.415,1608.047 296.476,1606.420 295.037,1605.213 293.272,1604.571 291.394,1604.571 289.630,1605.213 288.191,1606.420 287.252,1608.047 286.926,1609.896 287.252,1611.746 288.191,1613.372 289.630,1614.579 291.394,1615.221 293.272,1615.221"/>
      <polygon points="314.996,1614.508 316.413,1613.320 317.338,1611.718 317.659,1609.896 317.338,1608.075 316.413,1606.473 314.996,1605.284 313.258,1604.651 311.409,1604.651 309.670,1605.284 308.254,1606.473 307.329,1608.075 307.008,1609.896 307.329,1611.718 308.254,1613.320 309.670,1614.508 311.409,1615.141 313.258,1615.141"/>
      <polygon points="274.912,1614.362 276.284,1613.211 277.179,1611.660 277.490,1609.896 277.179,1608.132 276.284,1606.581 274.912,1605.430 273.229,1604.817 271.438,1604.817 269.755,1605.430 268.383,1606.581 267.487,1608.132 267.176,1609.896 267.487,1611.660 268.383,1613.211 269.755,1614.362 271.438,1614.975 273.229,1614.975"/>
      <polygon points="334.868,1614.287 336.217,1613.155 337.097,1611.630 337.403,1609.896 337.097,1608.162 336.217,1606.637 334.868,1605.506 333.214,1604.903 331.453,1604.903 329.798,1605.506 328.450,1606.637 327.569,1608.162 327.264,1609.896 327.569,1611.630 328.450,1613.155 329.798,1614.287 331.453,1614.889 333.214,1614.889"/>
      <polygon points="354.512,1614.273 355.946,1613.190 356.892,1611.662 357.222,1609.896 356.892,1608.130 355.946,1606.603 354.512,1605.520 352.784,1605.028 350.995,1605.194 349.387,1605.995 348.177,1607.323 347.528,1608.998 347.528,1610.794 348.177,1612.470 349.387,1613.798 350.995,1614.598 352.784,1614.764"/>
      <polygon points="254.513,1614.273 255.946,1613.190 256.892,1611.662 257.222,1609.896 256.892,1608.130 255.946,1606.603 254.513,1605.520 252.784,1605.028 250.995,1605.194 249.387,1605.995 248.177,1607.323 247.528,1608.998 247.528,1610.794 248.177,1612.470 249.387,1613.798 250.995,1614.598 252.784,1614.764"/>
      <polygon points="234.428,1614.103 235.806,1613.062 236.715,1611.594 237.033,1609.896 236.715,1608.199 235.806,1606.730 234.428,1605.690 232.767,1605.217 231.047,1605.376 229.501,1606.146 228.338,1607.422 227.714,1609.033 227.714,1610.760 228.338,1612.370 229.501,1613.646 231.047,1614.416 232.767,1614.575"/>
      <polygon points="374.384,1614.015 375.733,1612.996 376.623,1611.558 376.934,1609.896 376.623,1608.234 375.733,1606.797 374.384,1605.778 372.758,1605.315 371.074,1605.471 369.561,1606.225 368.422,1607.474 367.811,1609.051 367.811,1610.742 368.422,1612.318 369.561,1613.568 371.074,1614.321 372.758,1614.477"/>
      <polygon points="214.016,1613.958 215.442,1613.005 216.395,1611.579 216.730,1609.896 216.395,1608.214 215.442,1606.787 214.016,1605.834 212.333,1605.500 210.651,1605.834 209.224,1606.787 208.271,1608.214 207.937,1609.896 208.271,1611.579 209.224,1613.005 210.651,1613.958 212.333,1614.293"/>
      <polygon points="393.975,1613.860 395.367,1612.930 396.297,1611.538 396.624,1609.896 396.297,1608.254 395.367,1606.862 393.975,1605.932 392.333,1605.606 390.691,1605.932 389.299,1606.862 388.369,1608.254 388.043,1609.896 388.369,1611.538 389.299,1612.930 390.691,1613.860 392.333,1614.187"/>
      <polygon points="193.891,1613.657 195.211,1612.774 196.094,1611.454 196.404,1609.896 196.094,1608.339 195.211,1607.018 193.891,1606.136 192.333,1605.826 190.776,1606.136 189.455,1607.018 188.573,1608.339 188.263,1609.896 188.573,1611.454 189.455,1612.774 190.776,1613.657 192.333,1613.966"/>
      <polygon points="413.891,1613.657 415.211,1612.774 416.094,1611.454 416.404,1609.896 416.094,1608.339 415.211,1607.018 413.891,1606.136 412.333,1605.826 410.776,1606.136 409.455,1607.018 408.573,1608.339 408.263,1609.896 408.573,1611.454 409.455,1612.774 410.776,1613.657 412.333,1613.966"/>
      <polygon points="173.519,1613.546 174.901,1612.748 175.839,1611.457 176.171,1609.896 175.839,1608.335 174.901,1607.044 173.519,1606.246 171.932,1606.079 170.414,1606.572 169.228,1607.640 168.579,1609.098 168.579,1610.694 169.228,1612.152 170.414,1613.220 171.932,1613.713"/>
      <polygon points="433.482,1613.431 434.820,1612.658 435.729,1611.408 436.050,1609.896 435.729,1608.384 434.820,1607.134 433.482,1606.361 431.945,1606.200 430.475,1606.677 429.326,1607.711 428.698,1609.123 428.698,1610.669 429.326,1612.081 430.475,1613.115 431.945,1613.593"/>
      <polygon points="154.327,1612.397 155.215,1611.284 155.531,1609.896 155.215,1608.509 154.327,1607.396 153.045,1606.778 151.622,1606.778 150.339,1607.396 149.452,1608.509 149.135,1609.896 149.452,1611.284 150.339,1612.397 151.622,1613.014 153.045,1613.014"/>
      <polygon points="453.989,1612.295 454.915,1611.251 455.249,1609.896 454.915,1608.541 453.989,1607.497 452.685,1607.002 451.300,1607.170 450.151,1607.963 449.503,1609.198 449.503,1610.594 450.151,1611.829 451.300,1612.622 452.685,1612.790"/>
      <polygon points="133.398,1611.740 134.177,1610.961 134.462,1609.896 134.177,1608.832 133.398,1608.052 132.333,1607.767 131.269,1608.052 130.490,1608.832 130.204,1609.896 130.490,1610.961 131.269,1611.740 132.333,1612.025"/>
      <polygon points="473.333,1611.628 474.065,1610.896 474.333,1609.896 474.065,1608.896 473.333,1608.164 472.333,1607.896 471.333,1608.164 470.601,1608.896 470.333,1609.896 470.601,1610.896 471.333,1611.628 472.333,1611.896"/>
      <polygon points="295.037,1634.579 296.476,1633.372 297.415,1631.746 297.741,1629.896 297.415,1628.047 296.476,1626.420 295.037,1625.213 293.272,1624.571 291.394,1624.571 289.630,1625.213 288.191,1626.420 287.252,1628.047 286.926,1629.896 287.252,1631.746 288.191,1633.372 289.630,1634.579 291.394,1635.221 293.272,1635.221"/>
      <polygon points="314.996,1634.508 316.413,1633.320 317.338,1631.718 317.659,1629.896 317.338,1628.075 316.413,1626.473 314.996,1625.284 313.258,1624.651 311.409,1624.651 309.670,1625.284 308.254,1626.473 307.329,1628.075 307.008,1629.896 307.329,1631.718 308.254,1633.320 309.670,1634.508 311.409,1635.141 313.258,1635.141"/>
      <polygon points="274.912,1634.362 276.284,1633.211 277.179,1631.660 277.490,1629.896 277.179,1628.132 276.284,1626.581 274.912,1625.430 273.229,1624.817 271.438,1624.817 269.755,1625.430 268.383,1626.581 267.487,1628.132 267.176,1629.896 267.487,1631.660 268.383,1633.211 269.755,1634.362 271.438,1634.975 273.229,1634.975"/>
      <polygon points="334.868,1634.287 336.217,1633.155 337.097,1631.630 337.403,1629.896 337.097,1628.162 336.217,1626.637 334.868,1625.506 333.214,1624.903 331.453,1624.903 329.798,1625.506 328.450,1626.637 327.569,1628.162 327.264,1629.896 327.569,1631.630 328.450,1633.155 329.798,1634.287 331.453,1634.889 333.214,1634.889"/>
      <polygon points="254.513,1634.273 255.946,1633.190 256.892,1631.662 257.222,1629.896 256.892,1628.130 255.946,1626.603 254.513,1625.520 252.784,1625.028 250.995,1625.194 249.387,1625.995 248.177,1627.323 247.528,1628.998 247.528,1630.794 248.177,1632.470 249.387,1633.798 250.995,1634.598 252.784,1634.764"/>
      <polygon points="354.512,1634.273 355.946,1633.190 356.892,1631.662 357.222,1629.896 356.892,1628.130 355.946,1626.603 354.512,1625.520 352.784,1625.028 350.995,1625.194 349.387,1625.995 348.177,1627.323 347.528,1628.998 347.528,1630.794 348.177,1632.470 349.387,1633.798 350.995,1634.598 352.784,1634.764"/>
      <polygon points="234.428,1634.103 235.806,1633.062 236.715,1631.594 237.033,1629.896 236.715,1628.199 235.806,1626.730 234.428,1625.690 232.767,1625.217 231.047,1625.376 229.501,1626.146 228.338,1627.422 227.714,1629.033 227.714,1630.760 228.338,1632.370 229.501,1633.646 231.047,1634.416 232.767,1634.575"/>
      <polygon points="374.384,1634.015 375.733,1632.996 376.623,1631.558 376.934,1629.896 376.623,1628.234 375.733,1626.797 374.384,1625.778 372.758,1625.315 371.074,1625.471 369.561,1626.225 368.422,1627.474 367.811,1629.051 367.811,1630.742 368.422,1632.318 369.561,1633.568 371.074,1634.321 372.758,1634.477"/>
      <polygon points="214.016,1633.958 215.442,1633.005 216.395,1631.579 216.730,1629.896 216.395,1628.214 215.442,1626.787 214.016,1625.834 212.333,1625.500 210.651,1625.834 209.224,1626.787 208.271,1628.214 207.937,1629.896 208.271,1631.579 209.224,1633.005 210.651,1633.958 212.333,1634.293"/>
      <polygon points="393.975,1633.860 395.367,1632.930 396.297,1631.538 396.624,1629.896 396.297,1628.254 395.367,1626.862 393.975,1625.932 392.333,1625.606 390.691,1625.932 389.299,1626.862 388.369,1628.254 388.043,1629.896 388.369,1631.538 389.299,1632.930 390.691,1633.860 392.333,1634.187"/>
      <polygon points="193.891,1633.657 195.211,1632.774 196.094,1631.454 196.404,1629.896 196.094,1628.339 195.211,1627.018 193.891,1626.136 192.333,1625.826 190.776,1626.136 189.455,1627.018 188.573,1628.339 188.263,1629.896 188.573,1631.454 189.455,1632.774 190.776,1633.657 192.333,1633.966"/>
      <polygon points="413.891,1633.657 415.211,1632.774 416.094,1631.454 416.404,1629.896 416.094,1628.339 415.211,1627.018 413.891,1626.136 412.333,1625.826 410.776,1626.136 409.455,1627.018 408.573,1628.339 408.263,1629.896 408.573,1631.454 409.455,1632.774 410.776,1633.657 412.333,1633.966"/>
      <polygon points="173.519,1633.546 174.901,1632.748 175.839,1631.457 176.171,1629.896 175.839,1628.335 174.901,1627.044 173.519,1626.246 171.932,1626.079 170.414,1626.572 169.228,1627.640 168.579,1629.098 168.579,1630.694 169.228,1632.152 170.414,1633.220 171.932,1633.713"/>
      <polygon points="433.482,1633.431 434.820,1632.658 435.729,1631.408 436.050,1629.896 435.729,1628.384 434.820,1627.134 433.482,1626.361 431.945,1626.200 430.475,1626.677 429.326,1627.711 428.698,1629.123 428.698,1630.669 429.326,1632.081 430.475,1633.115 431.945,1633.593"/>
      <polygon points="154.327,1632.397 155.215,1631.284 155.531,1629.896 155.215,1628.509 154.327,1627.396 153.045,1626.778 151.622,1626.778 150.339,1627.396 149.452,1628.509 149.135,1629.896 149.452,1631.284 150.339,1632.397 151.622,1633.014 153.045,1633.014"/>
      <polygon points="453.989,1632.295 454.915,1631.251 455.249,1629.896 454.915,1628.541 453.989,1627.497 452.685,1627.002 451.300,1627.170 450.151,1627.963 449.503,1629.198 449.503,1630.594 450.151,1631.829 451.300,1632.622 452.685,1632.790"/>
      <polygon points="133.398,1631.740 134.177,1630.961 134.462,1629.896 134.177,1628.832 133.398,1628.052 132.333,1627.767 131.269,1628.052 130.490,1628.832 130.204,1629.896 130.490,1630.961 131.269,1631.740 132.333,1632.025"/>
      <polygon points="473.333,1631.628 474.065,1630.896 474.333,1629.896 474.065,1628.896 473.333,1628.164 472.333,1627.896 471.333,1628.164 470.601,1628.896 470.333,1629.896 470.601,1630.896 471.333,1631.628 472.333,1631.896"/>
      <polygon points="295.037,1654.579 296.476,1653.372 297.415,1651.746 297.741,1649.896 297.415,1648.047 296.476,1646.420 295.037,1645.213 293.272,1644.571 291.394,1644.571 289.630,1645.213 288.191,1646.420 287.252,1648.047 286.926,1649.896 287.252,1651.746 288.191,1653.372 289.630,1654.579 291.394,1655.221 293.272,1655.221"/>
      <polygon points="314.996,1654.508 316.413,1653.320 317.338,1651.718 317.659,1649.896 317.338,1648.075 316.413,1646.473 314.996,1645.284 313.258,1644.651 311.409,1644.651 309.670,1645.284 308.254,1646.473 307.329,1648.075 307.008,1649.896 307.329,1651.718 308.254,1653.320 309.670,1654.508 311.409,1655.141 313.258,1655.141"/>
      <polygon points="274.912,1654.362 276.284,1653.211 277.179,1651.660 277.490,1649.896 277.179,1648.132 276.284,1646.581 274.912,1645.430 273.229,1644.817 271.438,1644.817 269.755,1645.430 268.383,1646.581 267.487,1648.132 267.176,1649.896 267.487,1651.660 268.383,1653.211 269.755,1654.362 271.438,1654.975 273.229,1654.975"/>
      <polygon points="334.868,1654.287 336.217,1653.155 337.097,1651.630 337.403,1649.896 337.097,1648.162 336.217,1646.637 334.868,1645.506 333.214,1644.903 331.453,1644.903 329.798,1645.506 328.450,1646.637 327.569,1648.162 327.264,1649.896 327.569,1651.630 328.450,1653.155 329.798,1654.287 331.453,1654.889 333.214,1654.889"/>
      <polygon points="254.513,1654.273 255.946,1653.190 256.892,1651.662 257.222,1649.896 256.892,1648.130 255.946,1646.603 254.513,1645.520 252.784,1645.028 250.995,1645.194 249.387,1645.995 248.177,1647.323 247.528,1648.998 247.528,1650.794 248.177,1652.470 249.387,1653.798 250.995,1654.598 252.784,1654.764"/>
      <polygon points="354.512,1654.273 355.946,1653.190 356.892,1651.662 357.222,1649.896 356.892,1648.130 355.946,1646.603 354.512,1645.520 352.784,1645.028 350.995,1645.194 349.387,1645.995 348.177,1647.323 347.528,1648.998 347.528,1650.794 348.177,1652.470 349.387,1653.798 350.995,1654.598 352.784,1654.764"/>
      <polygon points="234.428,1654.103 235.806,1653.062 236.715,1651.594 237.033,1649.896 236.715,1648.199 235.806,1646.730 234.428,1645.690 232.767,1645.217 231.047,1645.376 229.501,1646.146 228.338,1647.422 227.714,1649.033 227.714,1650.760 228.338,1652.370 229.501,1653.646 231.047,1654.416 232.767,1654.575"/>
      <polygon points="374.384,1654.015 375.733,1652.996 376.623,1651.558 376.934,1649.896 376.623,1648.234 375.733,1646.797 374.384,1645.778 372.758,1645.315 371.074,1645.471 369.561,1646.225 368.422,1647.474 367.811,1649.051 367.811,1650.742 368.422,1652.318 369.561,1653.568 371.074,1654.321 372.758,1654.477"/>
      <polygon points="214.016,1653.958 215.442,1653.005 216.395,1651.579 216.730,1649.896 216.395,1648.214 215.442,1646.787 214.016,1645.834 212.333,1645.500 210.651,1645.834 209.224,1646.787 208.271,1648.214 207.937,1649.896 208.271,1651.579 209.224,1653.005 210.651,1653.958 212.333,1654.293"/>
      <polygon points="393.975,1653.860 395.367,1652.930 396.297,1651.538 396.624,1649.896 396.297,1648.254 395.367,1646.862 393.975,1645.932 392.333,1645.606 390.691,1645.932 389.299,1646.862 388.369,1648.254 388.043,1649.896 388.369,1651.538 389.299,1652.930 390.691,1653.860 392.333,1654.187"/>
      <polygon points="413.891,1653.657 415.211,1652.774 416.094,1651.454 416.404,1649.896 416.094,1648.339 415.211,1647.018 413.891,1646.136 412.333,1645.826 410.776,1646.136 409.455,1647.018 408.573,1648.339 408.263,1649.896 408.573,1651.454 409.455,1652.774 410.776,1653.657 412.333,1653.966"/>
      <polygon points="193.891,1653.657 195.211,1652.774 196.094,1651.454 196.404,1649.896 196.094,1648.339 195.211,1647.018 193.891,1646.136 192.333,1645.826 190.776,1646.136 189.455,1647.018 188.573,1648.339 188.263,1649.896 188.573,1651.454 189.455,1652.774 190.776,1653.657 192.333,1653.966"/>
      <polygon points="173.519,1653.546 174.901,1652.748 175.839,1651.457 176.171,1649.896 175.839,1648.335 174.901,1647.044 173.519,1646.246 171.932,1646.079 170.414,1646.572 169.228,1647.640 168.579,1649.098 168.579,1650.694 169.228,1652.152 170.414,1653.220 171.932,1653.713"/>
      <polygon points="433.482,1653.431 434.820,1652.658 435.729,1651.408 436.050,1649.896 435.729,1648.384 434.820,1647.134 433.482,1646.361 431.945,1646.200 430.475,1646.677 429.326,1647.711 428.698,1649.123 428.698,1650.669 429.326,1652.081 430.475,1653.115 431.945,1653.593"/>
      <polygon points="154.327,1652.397 155.215,1651.284 155.531,1649.896 155.215,1648.509 154.327,1647.396 153.045,1646.778 151.622,1646.778 150.339,1647.396 149.452,1648.509 149.135,1649.896 149.452,1651.284 150.339,1652.397 151.622,1653.014 153.045,1653.014"/>
      <polygon points="453.989,1652.295 454.915,1651.251 455.249,1649.896 454.915,1648.541 453.989,1647.497 452.685,1647.002 451.300,1647.170 450.151,1647.963 449.503,1649.198 449.503,1650.594 450.151,1651.829 451.300,1652.622 452.685,1652.790"/>
      <polygon points="133.398,1651.740 134.177,1650.961 134.462,1649.896 134.177,1648.832 133.398,1648.052 132.333,1647.767 131.269,1648.052 130.490,1648.832 130.204,1649.896 130.490,1650.961 131.269,1651.740 132.333,1652.025"/>
      <polygon points="473.333,1651.628 474.065,1650.896 474.333,1649.896 474.065,1648.896 473.333,1648.164 472.333,1647.896 471.333,1648.164 470.601,1648.896 470.333,1649.896 470.601,1650.896 471.333,1651.628 472.333,1651.896"/>
      <polygon points="295.037,1674.579 296.476,1673.372 297.415,1671.746 297.741,1669.896 297.415,1668.047 296.476,1666.420 295.037,1665.213 293.272,1664.571 291.394,1664.571 289.630,1665.213 288.191,1666.420 287.252,1668.047 286.926,1669.896 287.252,1671.746 288.191,1673.372 289.630,1674.579 291.394,1675.221 293.272,1675.221"/>
      <polygon points="314.996,1674.508 316.413,1673.320 317.338,1671.718 317.659,1669.896 317.338,1668.075 316.413,1666.473 314.996,1665.284 313.258,1664.651 311.409,1664.651 309.670,1665.284 308.254,1666.473 307.329,1668.075 307.008,1669.896 307.329,1671.718 308.254,1673.320 309.670,1674.508 311.409,1675.141 313.258,1675.141"/>
      <polygon points="274.912,1674.362 276.284,1673.211 277.179,1671.660 277.490,1669.896 277.179,1668.132 276.284,1666.581 274.912,1665.430 273.229,1664.817 271.438,1664.817 269.755,1665.430 268.383,1666.581 267.487,1668.132 267.176,1669.896 267.487,1671.660 268.383,1673.211 269.755,1674.362 271.438,1674.975 273.229,1674.975"/>
      <polygon points="334.868,1674.287 336.217,1673.155 337.097,1671.630 337.403,1669.896 337.097,1668.162 336.217,1666.637 334.868,1665.506 333.214,1664.903 331.453,1664.903 329.798,1665.506 328.450,1666.637 327.569,1668.162 327.264,1669.896 327.569,1671.630 328.450,1673.155 329.798,1674.287 331.453,1674.889 333.214,1674.889"/>
      <polygon points="354.512,1674.273 355.946,1673.190 356.892,1671.662 357.222,1669.896 356.892,1668.130 355.946,1666.603 354.512,1665.520 352.784,1665.028 350.995,1665.194 349.387,1665.995 348.177,1667.323 347.528,1668.998 347.528,1670.794 348.177,1672.470 349.387,1673.798 350.995,1674.598 352.784,1674.764"/>
      <polygon points="254.513,1674.273 255.946,1673.190 256.892,1671.662 257.222,1669.896 256.892,1668.130 255.946,1666.603 254.513,1665.520 252.784,1665.028 250.995,1665.194 249.387,1665.995 248.177,1667.323 247.528,1668.998 247.528,1670.794 248.177,1672.470 249.387,1673.798 250.995,1674.598 252.784,1674.764"/>
      <polygon points="234.428,1674.103 235.806,1673.062 236.715,1671.594 237.033,1669.896 236.715,1668.199 235.806,1666.730 234.428,1665.690 232.767,1665.217 231.047,1665.376 229.501,1666.146 228.338,1667.422 227.714,1669.033 227.714,1670.760 228.338,1672.370 229.501,1673.646 231.047,1674.416 232.767,1674.575"/>
      <polygon points="374.384,1674.015 375.733,1672.996 376.623,1671.558 376.934,1669.896 376.623,1668.234 375.733,1666.797 374.384,1665.778 372.758,1665.315 371.074,1665.471 369.561,1666.225 368.422,1667.474 367.811,1669.051 367.811,1670.742 368.422,1672.318 369.561,1673.568 371.074,1674.321 372.758,1674.477"/>
      <polygon points="214.016,1673.958 215.442,1673.005 216.395,1671.579 216.730,1669.896 216.395,1668.214 215.442,1666.787 214.016,1665.834 212.333,1665.500 210.651,1665.834 209.224,1666.787 208.271,1668.214 207.937,1669.896 208.271,1671.579 209.224,1673.005 210.651,1673.958 212.333,1674.293"/>
      <polygon points="393.975,1673.860 395.367,1672.930 396.297,1671.538 396.624,1669.896 396.297,1668.254 395.367,1666.862 393.975,1665.932 392.333,1665.606 390.691,1665.932 389.299,1666.862 388.369,1668.254 388.043,1669.896 388.369,1671.538 389.299,1672.930 390.691,1673.860 392.333,1674.187"/>
      <polygon points="413.891,1673.657 415.211,1672.774 416.094,1671.454 416.404,1669.896 416.094,1668.339 415.211,1667.018 413.891,1666.136 412.333,1665.826 410.776,1666.136 409.455,1667.018 408.573,1668.339 408.263,1669.896 408.573,1671.454 409.455,1672.774 410.776,1673.657 412.333,1673.966"/>
      <polygon points="193.891,1673.657 195.211,1672.774 196.094,1671.454 196.404,1669.896 196.094,1668.339 195.211,1667.018 193.891,1666.136 192.333,1665.826 190.776,1666.136 189.455,1667.018 188.573,1668.339 188.263,1669.896 188.573,1671.454 189.455,1672.774 190.776,1673.657 192.333,1673.966"/>
      <polygon points="173.519,1673.546 174.901,1672.748 175.839,1671.457 176.171,1669.896 175.839,1668.335 174.901,1667.044 173.519,1666.246 171.932,1666.079 170.414,1666.572 169.228,1667.640 168.579,1669.098 168.579,1670.694 169.228,1672.152 170.414,1673.220 171.932,1673.713"/>
      <polygon points="433.482,1673.431 434.820,1672.658 435.729,1671.408 436.050,1669.896 435.729,1668.384 434.820,1667.134 433.482,1666.361 431.945,1666.200 430.475,1666.677 429.326,1667.711 428.698,1669.123 428.698,1670.669 429.326,1672.081 430.475,1673.115 431.945,1673.593"/>
      <polygon points="154.327,1672.397 155.215,1671.284 155.531,1669.896 155.215,1668.509 154.327,1667.396 153.045,1666.778 151.622,1666.778 150.339,1667.396 149.452,1668.509 149.135,1669.896 149.452,1671.284 150.339,1672.397 151.622,1673.014 153.045,1673.014"/>
      <polygon points="453.989,1672.295 454.915,1671.251 455.249,1669.896 454.915,1668.541 453.989,1667.497 452.685,1667.002 451.300,1667.170 450.151,1667.963 449.503,1669.198 449.503,1670.594 450.151,1671.829 451.300,1672.622 452.685,1672.790"/>
      <polygon points="133.398,1671.740 134.177,1670.961 134.462,1669.896 134.177,1668.832 133.398,1668.052 132.333,1667.767 131.269,1668.052 130.490,1668.832 130.204,1669.896 130.490,1670.961 131.269,1671.740 132.333,1672.025"/>
      <polygon points="473.333,1671.628 474.065,1670.896 474.333,1669.896 474.065,1668.896 473.333,1668.164 472.333,1667.896 471.333,1668.164 470.601,1668.896 470.333,1669.896 470.601,1670.896 471.333,1671.628 472.333,1671.896"/>
    </g>
    <g stroke="#EF6C00" stroke-width="0.4" fill="none">
    </g>
  </g>
  <g stroke="#000000" stroke-width="0.4">
    <line x1="500.000" y1="1000.000" x2="1500.000" y2="1000.000"/>
  </g>
  <g stroke="#000000" stroke-width="0.4">
    <line x1="1000.000" y1="500.000" x2="1000.000" y2="1500.000"/>
  </g>
  <circle cx="1000.000" cy="1000.000" r="1000.000" stroke="red" stroke-width="1" fill="none"/>
  </g>
</svg>
