<?xml version="1.0" encoding="UTF-8"?>
<svg xmlns="http://www.w3.org/2000/svg" version="1.1" width="2000" height="2000">
  <g fill="none" stroke-linecap="round" stroke-linejoin="round">
  <text x="10" y="20" font-size="24" fill="#555">Layer 273 Z=66.600 mm</text>
  <g transform="translate(700.000,-602.229)">
    <g stroke="#2E7D32" stroke-width="0.4">
      <line x1="239.814" y1="1629.929" x2="189.814" y2="1629.929"/>
      <line x1="239.814" y1="1630.929" x2="189.814" y2="1630.929"/>
      <line x1="239.814" y1="1631.929" x2="189.814" y2="1631.929"/>
      <line x1="239.814" y1="1632.929" x2="189.814" y2="1632.929"/>
      <line x1="239.814" y1="1633.929" x2="189.814" y2="1633.929"/>
      <line x1="239.814" y1="1634.929" x2="189.814" y2="1634.929"/>
      <line x1="239.814" y1="1635.929" x2="189.814" y2="1635.929"/>
      <line x1="239.814" y1="1636.929" x2="189.814" y2="1636.929"/>
      <line x1="239.814" y1="1637.929" x2="189.814" y2="1637.929"/>
      <line x1="239.814" y1="1638.929" x2="189.814" y2="1638.929"/>
      <line x1="239.814" y1="1639.929" x2="189.814" y2="1639.929"/>
      <line x1="239.814" y1="1640.929" x2="189.814" y2="1640.929"/>
      <line x1="239.814" y1="1641.929" x2="189.814" y2="1641.929"/>
      <line x1="239.814" y1="1642.929" x2="189.814" y2="1642.929"/>
      <line x1="239.814" y1="1643.929" x2="189.814" y2="1643.929"/>
      <line x1="239.814" y1="1644.929" x2="189.814" y2="1644.929"/>
      <line x1="239.814" y1="1645.929" x2="189.814" y2="1645.929"/>
      <line x1="239.814" y1="1646.929" x2="189.814" y2="1646.929"/>
      <line x1="239.814" y1="1647.929" x2="189.814" y2="1647.929"/>
      <line x1="239.814" y1="1648.929" x2="189.814" y2="1648.929"/>
      <line x1="239.814" y1="1649.929" x2="189.814" y2="1649.929"/>
      <line x1="239.814" y1="1650.929" x2="189.814" y2="1650.929"/>
      <line x1="239.814" y1="1651.929" x2="189.814" y2="1651.929"/>
      <line x1="239.814" y1="1652.929" x2="189.814" y2="1652.929"/>
      <line x1="239.814" y1="1653.929" x2="189.814" y2="1653.929"/>
      <line x1="239.814" y1="1654.929" x2="189.814" y2="1654.929"/>
      <line x1="239.814" y1="1655.929" x2="189.814" y2="1655.929"/>
      <line x1="239.814" y1="1656.929" x2="189.814" y2="1656.929"/>
      <line x1="239.814" y1="1657.929" x2="189.814" y2="1657.929"/>
      <line x1="239.814" y1="1658.929" x2="189.814" y2="1658.929"/>
      <line x1="239.814" y1="1659.929" x2="189.814" y2="1659.929"/>
      <line x1="239.814" y1="1660.929" x2="189.814" y2="1660.929"/>
      <line x1="239.814" y1="1661.929" x2="189.814" y2="1661.929"/>
      <line x1="239.814" y1="1662.929" x2="189.814" y2="1662.929"/>
      <line x1="239.814" y1="1663.929" x2="189.814" y2="1663.929"/>
      <line x1="239.814" y1="1664.929" x2="189.814" y2="1664.929"/>
      <line x1="239.814" y1="1665.929" x2="189.814" y2="1665.929"/>
      <line x1="239.814" y1="1666.929" x2="189.814" y2="1666.929"/>
      <line x1="239.814" y1="1667.929" x2="189.814" y2="1667.929"/>
      <line x1="239.814" y1="1668.929" x2="189.814" y2="1668.929"/>
      <line x1="239.814" y1="1669.929" x2="189.814" y2="1669.929"/>
      <line x1="239.814" y1="1670.929" x2="189.814" y2="1670.929"/>
      <line x1="239.814" y1="1671.929" x2="189.814" y2="1671.929"/>
      <line x1="239.814" y1="1672.929" x2="189.814" y2="1672.929"/>
      <line x1="239.814" y1="1673.929" x2="189.814" y2="1673.929"/>
      <line x1="239.814" y1="1674.929" x2="189.814" y2="1674.929"/>
      <line x1="239.814" y1="1675.929" x2="189.814" y2="1675.929"/>
      <line x1="239.814" y1="1676.929" x2="189.814" y2="1676.929"/>
      <line x1="239.814" y1="1677.929" x2="189.814" y2="1677.929"/>
      <line x1="239.814" y1="1678.929" x2="189.814" y2="1678.929"/>
      <line x1="289.914" y1="1629.929" x2="239.914" y2="1629.929"/>
      <line x1="289.914" y1="1630.929" x2="239.914" y2="1630.929"/>
      <line x1="289.914" y1="1631.929" x2="239.914" y2="1631.929"/>
      <line x1="289.914" y1="1632.929" x2="239.914" y2="1632.929"/>
      <line x1="289.914" y1="1633.929" x2="239.914" y2="1633.929"/>
      <line x1="289.914" y1="1634.929" x2="239.914" y2="1634.929"/>
      <line x1="289.914" y1="1635.929" x2="239.914" y2="1635.929"/>
      <line x1="289.914" y1="1636.929" x2="239.914" y2="1636.929"/>
      <line x1="289.914" y1="1637.929" x2="239.914" y2="1637.929"/>
      <line x1="289.914" y1="1638.929" x2="239.914" y2="1638.929"/>
      <line x1="289.914" y1="1639.929" x2="239.914" y2="1639.929"/>
      <line x1="289.914" y1="1640.929" x2="239.914" y2="1640.929"/>
      <line x1="289.914" y1="1641.929" x2="239.914" y2="1641.929"/>
      <line x1="289.914" y1="1642.929" x2="239.914" y2="1642.929"/>
      <line x1="289.914" y1="1643.929" x2="239.914" y2="1643.929"/>
      <line x1="289.914" y1="1644.929" x2="239.914" y2="1644.929"/>
      <line x1="289.914" y1="1645.929" x2="239.914" y2="1645.929"/>
      <line x1="289.914" y1="1646.929" x2="239.914" y2="1646.929"/>
      <line x1="289.914" y1="1647.929" x2="239.914" y2="1647.929"/>
      <line x1="289.914" y1="1648.929" x2="239.914" y2="1648.929"/>
      <line x1="289.914" y1="1649.929" x2="239.914" y2="1649.929"/>
      <line x1="289.914" y1="1650.929" x2="239.914" y2="1650.929"/>
      <line x1="289.914" y1="1651.929" x2="239.914" y2="1651.929"/>
      <line x1="289.914" y1="1652.929" x2="239.914" y2="1652.929"/>
      <line x1="289.914" y1="1653.929" x2="239.914" y2="1653.929"/>
      <line x1="289.914" y1="1654.929" x2="239.914" y2="1654.929"/>
      <line x1="289.914" y1="1655.929" x2="239.914" y2="1655.929"/>
      <line x1="289.914" y1="1656.929" x2="239.914" y2="1656.929"/>
      <line x1="289.914" y1="1657.929" x2="239.914" y2="1657.929"/>
      <line x1="289.914" y1="1658.929" x2="239.914" y2="1658.929"/>
      <line x1="289.914" y1="1659.929" x2="239.914" y2="1659.929"/>
      <line x1="289.914" y1="1660.929" x2="239.914" y2="1660.929"/>
      <line x1="289.914" y1="1661.929" x2="239.914" y2="1661.929"/>
      <line x1="289.914" y1="1662.929" x2="239.914" y2="1662.929"/>
      <line x1="289.914" y1="1663.929" x2="239.914" y2="1663.929"/>
      <line x1="289.914" y1="1664.929" x2="239.914" y2="1664.929"/>
      <line x1="289.914" y1="1665.929" x2="239.914" y2="1665.929"/>
      <line x1="289.914" y1="1666.929" x2="239.914" y2="1666.929"/>
      <line x1="289.914" y1="1667.929" x2="239.914" y2="1667.929"/>
      <line x1="289.914" y1="1668.929" x2="239.914" y2="1668.929"/>
      <line x1="289.914" y1="1669.929" x2="239.914" y2="1669.929"/>
      <line x1="289.914" y1="1670.929" x2="239.914" y2="1670.929"/>
      <line x1="289.914" y1="1671.929" x2="239.914" y2="1671.929"/>
      <line x1="289.914" y1="1672.929" x2="239.914" y2="1672.929"/>
      <line x1="289.914" y1="1673.929" x2="239.914" y2="1673.929"/>
      <line x1="289.914" y1="1674.929" x2="239.914" y2="1674.929"/>
      <line x1="289.914" y1="1675.929" x2="239.914" y2="1675.929"/>
      <line x1="289.914" y1="1676.929" x2="239.914" y2="1676.929"/>
      <line x1="289.914" y1="1677.929" x2="239.914" y2="1677.929"/>
      <line x1="289.914" y1="1678.929" x2="239.914" y2="1678.929"/>
      <line x1="340.014" y1="1629.929" x2="290.014" y2="1629.929"/>
      <line x1="340.014" y1="1630.929" x2="290.014" y2="1630.929"/>
      <line x1="340.014" y1="1631.929" x2="290.014" y2="1631.929"/>
      <line x1="340.014" y1="1632.929" x2="290.014" y2="1632.929"/>
      <line x1="340.014" y1="1633.929" x2="290.014" y2="1633.929"/>
      <line x1="340.014" y1="1634.929" x2="290.014" y2="1634.929"/>
      <line x1="340.014" y1="1635.929" x2="290.014" y2="1635.929"/>
      <line x1="340.014" y1="1636.929" x2="290.014" y2="1636.929"/>
      <line x1="340.014" y1="1637.929" x2="290.014" y2="1637.929"/>
      <line x1="340.014" y1="1638.929" x2="290.014" y2="1638.929"/>
      <line x1="340.014" y1="1639.929" x2="290.014" y2="1639.929"/>
      <line x1="340.014" y1="1640.929" x2="290.014" y2="1640.929"/>
      <line x1="340.014" y1="1641.929" x2="290.014" y2="1641.929"/>
      <line x1="340.014" y1="1642.929" x2="290.014" y2="1642.929"/>
      <line x1="340.014" y1="1643.929" x2="290.014" y2="1643.929"/>
      <line x1="340.014" y1="1644.929" x2="290.014" y2="1644.929"/>
      <line x1="340.014" y1="1645.929" x2="290.014" y2="1645.929"/>
      <line x1="340.014" y1="1646.929" x2="290.014" y2="1646.929"/>
      <line x1="340.014" y1="1647.929" x2="290.014" y2="1647.929"/>
      <line x1="340.014" y1="1648.929" x2="290.014" y2="1648.929"/>
      <line x1="340.014" y1="1649.929" x2="290.014" y2="1649.929"/>
      <line x1="340.014" y1="1650.929" x2="290.014" y2="1650.929"/>
      <line x1="340.014" y1="1651.929" x2="290.014" y2="1651.929"/>
      <line x1="340.014" y1="1652.929" x2="290.014" y2="1652.929"/>
      <line x1="340.014" y1="1653.929" x2="290.014" y2="1653.929"/>
      <line x1="340.014" y1="1654.929" x2="290.014" y2="1654.929"/>
      <line x1="340.014" y1="1655.929" x2="290.014" y2="1655.929"/>
      <line x1="340.014" y1="1656.929" x2="290.014" y2="1656.929"/>
      <line x1="340.014" y1="1657.929" x2="290.014" y2="1657.929"/>
      <line x1="340.014" y1="1658.929" x2="290.014" y2="1658.929"/>
      <line x1="340.014" y1="1659.929" x2="290.014" y2="1659.929"/>
      <line x1="340.014" y1="1660.929" x2="290.014" y2="1660.929"/>
      <line x1="340.014" y1="1661.929" x2="290.014" y2="1661.929"/>
      <line x1="340.014" y1="1662.929" x2="290.014" y2="1662.929"/>
      <line x1="340.014" y1="1663.929" x2="290.014" y2="1663.929"/>
      <line x1="340.014" y1="1664.929" x2="290.014" y2="1664.929"/>
      <line x1="340.014" y1="1665.929" x2="290.014" y2="1665.929"/>
      <line x1="340.014" y1="1666.929" x2="290.014" y2="1666.929"/>
      <line x1="340.014" y1="1667.929" x2="290.014" y2="1667.929"/>
      <line x1="340.014" y1="1668.929" x2="290.014" y2="1668.929"/>
      <line x1="340.014" y1="1669.929" x2="290.014" y2="1669.929"/>
      <line x1="340.014" y1="1670.929" x2="290.014" y2="1670.929"/>
      <line x1="340.014" y1="1671.929" x2="290.014" y2="1671.929"/>
      <line x1="340.014" y1="1672.929" x2="290.014" y2="1672.929"/>
      <line x1="340.014" y1="1673.929" x2="290.014" y2="1673.929"/>
      <line x1="340.014" y1="1674.929" x2="290.014" y2="1674.929"/>
      <line x1="340.014" y1="1675.929" x2="290.014" y2="1675.929"/>
      <line x1="340.014" y1="1676.929" x2="290.014" y2="1676.929"/>
      <line x1="340.014" y1="1677.929" x2="290.014" y2="1677.929"/>
      <line x1="340.014" y1="1678.929" x2="290.014" y2="1678.929"/>
      <line x1="390.114" y1="1629.929" x2="340.114" y2="1629.929"/>
      <line x1="390.114" y1="1630.929" x2="340.114" y2="1630.929"/>
      <line x1="390.114" y1="1631.929" x2="340.114" y2="1631.929"/>
      <line x1="390.114" y1="1632.929" x2="340.114" y2="1632.929"/>
      <line x1="390.114" y1="1633.929" x2="340.114" y2="1633.929"/>
      <line x1="390.114" y1="1634.929" x2="340.114" y2="1634.929"/>
      <line x1="390.114" y1="1635.929" x2="340.114" y2="1635.929"/>
      <line x1="390.114" y1="1636.929" x2="340.114" y2="1636.929"/>
      <line x1="390.114" y1="1637.929" x2="340.114" y2="1637.929"/>
      <line x1="390.114" y1="1638.929" x2="340.114" y2="1638.929"/>
      <line x1="390.114" y1="1639.929" x2="340.114" y2="1639.929"/>
      <line x1="390.114" y1="1640.929" x2="340.114" y2="1640.929"/>
      <line x1="390.114" y1="1641.929" x2="340.114" y2="1641.929"/>
      <line x1="390.114" y1="1642.929" x2="340.114" y2="1642.929"/>
      <line x1="390.114" y1="1643.929" x2="340.114" y2="1643.929"/>
      <line x1="390.114" y1="1644.929" x2="340.114" y2="1644.929"/>
      <line x1="390.114" y1="1645.929" x2="340.114" y2="1645.929"/>
      <line x1="390.114" y1="1646.929" x2="340.114" y2="1646.929"/>
      <line x1="390.114" y1="1647.929" x2="340.114" y2="1647.929"/>
      <line x1="390.114" y1="1648.929" x2="340.114" y2="1648.929"/>
      <line x1="390.114" y1="1649.929" x2="340.114" y2="1649.929"/>
      <line x1="390.114" y1="1650.929" x2="340.114" y2="1650.929"/>
      <line x1="390.114" y1="1651.929" x2="340.114" y2="1651.929"/>
      <line x1="390.114" y1="1652.929" x2="340.114" y2="1652.929"/>
      <line x1="390.114" y1="1653.929" x2="340.114" y2="1653.929"/>
      <line x1="390.114" y1="1654.929" x2="340.114" y2="1654.929"/>
      <line x1="390.114" y1="1655.929" x2="340.114" y2="1655.929"/>
      <line x1="390.114" y1="1656.929" x2="340.114" y2="1656.929"/>
      <line x1="390.114" y1="1657.929" x2="340.114" y2="1657.929"/>
      <line x1="390.114" y1="1658.929" x2="340.114" y2="1658.929"/>
      <line x1="390.114" y1="1659.929" x2="340.114" y2="1659.929"/>
      <line x1="390.114" y1="1660.929" x2="340.114" y2="1660.929"/>
      <line x1="390.114" y1="1661.929" x2="340.114" y2="1661.929"/>
      <line x1="390.114" y1="1662.929" x2="340.114" y2="1662.929"/>
      <line x1="390.114" y1="1663.929" x2="340.114" y2="1663.929"/>
      <line x1="390.114" y1="1664.929" x2="340.114" y2="1664.929"/>
      <line x1="390.114" y1="1665.929" x2="340.114" y2="1665.929"/>
      <line x1="390.114" y1="1666.929" x2="340.114" y2="1666.929"/>
      <line x1="390.114" y1="1667.929" x2="340.114" y2="1667.929"/>
      <line x1="390.114" y1="1668.929" x2="340.114" y2="1668.929"/>
      <line x1="390.114" y1="1669.929" x2="340.114" y2="1669.929"/>
      <line x1="390.114" y1="1670.929" x2="340.114" y2="1670.929"/>
      <line x1="390.114" y1="1671.929" x2="340.114" y2="1671.929"/>
      <line x1="390.114" y1="1672.929" x2="340.114" y2="1672.929"/>
      <line x1="390.114" y1="1673.929" x2="340.114" y2="1673.929"/>
      <line x1="390.114" y1="1674.929" x2="340.114" y2="1674.929"/>
      <line x1="390.114" y1="1675.929" x2="340.114" y2="1675.929"/>
      <line x1="390.114" y1="1676.929" x2="340.114" y2="1676.929"/>
      <line x1="390.114" y1="1677.929" x2="340.114" y2="1677.929"/>
      <line x1="390.114" y1="1678.929" x2="340.114" y2="1678.929"/>
      <line x1="410.186" y1="1629.929" x2="390.214" y2="1629.929"/>
      <line x1="410.186" y1="1630.929" x2="390.214" y2="1630.929"/>
      <line x1="410.186" y1="1631.929" x2="390.214" y2="1631.929"/>
      <line x1="410.186" y1="1632.929" x2="390.214" y2="1632.929"/>
      <line x1="410.186" y1="1633.929" x2="390.214" y2="1633.929"/>
      <line x1="410.186" y1="1634.929" x2="390.214" y2="1634.929"/>
      <line x1="410.186" y1="1635.929" x2="390.214" y2="1635.929"/>
      <line x1="410.186" y1="1636.929" x2="390.214" y2="1636.929"/>
      <line x1="410.186" y1="1637.929" x2="390.214" y2="1637.929"/>
      <line x1="410.186" y1="1638.929" x2="390.214" y2="1638.929"/>
      <line x1="410.186" y1="1639.929" x2="390.214" y2="1639.929"/>
      <line x1="410.186" y1="1640.929" x2="390.214" y2="1640.929"/>
      <line x1="410.186" y1="1641.929" x2="390.214" y2="1641.929"/>
      <line x1="410.186" y1="1642.929" x2="390.214" y2="1642.929"/>
      <line x1="410.186" y1="1643.929" x2="390.214" y2="1643.929"/>
      <line x1="410.186" y1="1644.929" x2="390.214" y2="1644.929"/>
      <line x1="410.186" y1="1645.929" x2="390.214" y2="1645.929"/>
      <line x1="410.186" y1="1646.929" x2="390.214" y2="1646.929"/>
      <line x1="410.186" y1="1647.929" x2="390.214" y2="1647.929"/>
      <line x1="410.186" y1="1648.929" x2="390.214" y2="1648.929"/>
      <line x1="410.186" y1="1649.929" x2="390.214" y2="1649.929"/>
      <line x1="410.186" y1="1650.929" x2="390.214" y2="1650.929"/>
      <line x1="410.186" y1="1651.929" x2="390.214" y2="1651.929"/>
      <line x1="410.186" y1="1652.929" x2="390.214" y2="1652.929"/>
      <line x1="410.186" y1="1653.929" x2="390.214" y2="1653.929"/>
      <line x1="410.186" y1="1654.929" x2="390.214" y2="1654.929"/>
      <line x1="410.186" y1="1655.929" x2="390.214" y2="1655.929"/>
      <line x1="410.186" y1="1656.929" x2="390.214" y2="1656.929"/>
      <line x1="410.186" y1="1657.929" x2="390.214" y2="1657.929"/>
      <line x1="410.186" y1="1658.929" x2="390.214" y2="1658.929"/>
      <line x1="410.186" y1="1659.929" x2="390.214" y2="1659.929"/>
      <line x1="410.186" y1="1660.929" x2="390.214" y2="1660.929"/>
      <line x1="410.186" y1="1661.929" x2="390.214" y2="1661.929"/>
      <line x1="410.186" y1="1662.929" x2="390.214" y2="1662.929"/>
      <line x1="410.186" y1="1663.929" x2="390.214" y2="1663.929"/>
      <line x1="410.186" y1="1664.929" x2="390.214" y2="1664.929"/>
      <line x1="410.186" y1="1665.929" x2="390.214" y2="1665.929"/>
      <line x1="410.186" y1="1666.929" x2="390.214" y2="1666.929"/>
      <line x1="410.186" y1="1667.929" x2="390.214" y2="1667.929"/>
      <line x1="410.186" y1="1668.929" x2="390.214" y2="1668.929"/>
      <line x1="410.186" y1="1669.929" x2="390.214" y2="1669.929"/>
      <line x1="410.186" y1="1670.929" x2="390.214" y2="1670.929"/>
      <line x1="410.186" y1="1671.929" x2="390.214" y2="1671.929"/>
      <line x1="410.186" y1="1672.929" x2="390.214" y2="1672.929"/>
      <line x1="410.186" y1="1673.929" x2="390.214" y2="1673.929"/>
      <line x1="410.186" y1="1674.929" x2="390.214" y2="1674.929"/>
      <line x1="410.186" y1="1675.929" x2="390.214" y2="1675.929"/>
      <line x1="410.186" y1="1676.929" x2="390.214" y2="1676.929"/>
      <line x1="410.186" y1="1677.929" x2="390.214" y2="1677.929"/>
      <line x1="410.186" y1="1678.929" x2="390.214" y2="1678.929"/>
      <line x1="239.814" y1="1579.929" x2="189.814" y2="1579.929"/>
      <line x1="239.814" y1="1580.929" x2="189.814" y2="1580.929"/>
      <line x1="239.814" y1="1581.929" x2="189.814" y2="1581.929"/>
      <line x1="239.814" y1="1582.929" x2="189.814" y2="1582.929"/>
      <line x1="239.814" y1="1583.929" x2="189.814" y2="1583.929"/>
      <line x1="239.814" y1="1584.929" x2="189.814" y2="1584.929"/>
      <line x1="239.814" y1="1585.929" x2="189.814" y2="1585.929"/>
      <line x1="239.814" y1="1586.929" x2="189.814" y2="1586.929"/>
      <line x1="239.814" y1="1587.929" x2="189.814" y2="1587.929"/>
      <line x1="239.814" y1="1588.929" x2="189.814" y2="1588.929"/>
      <line x1="239.814" y1="1589.929" x2="189.814" y2="1589.929"/>
      <line x1="239.814" y1="1590.929" x2="189.814" y2="1590.929"/>
      <line x1="239.814" y1="1591.929" x2="189.814" y2="1591.929"/>
      <line x1="239.814" y1="1592.929" x2="189.814" y2="1592.929"/>
      <line x1="239.814" y1="1593.929" x2="189.814" y2="1593.929"/>
      <line x1="239.814" y1="1594.929" x2="189.814" y2="1594.929"/>
      <line x1="239.814" y1="1595.929" x2="189.814" y2="1595.929"/>
      <line x1="239.814" y1="1596.929" x2="189.814" y2="1596.929"/>
      <line x1="239.814" y1="1597.929" x2="189.814" y2="1597.929"/>
      <line x1="239.814" y1="1598.929" x2="189.814" y2="1598.929"/>
      <line x1="239.814" y1="1599.929" x2="189.814" y2="1599.929"/>
      <line x1="239.814" y1="1600.929" x2="189.814" y2="1600.929"/>
      <line x1="239.814" y1="1601.929" x2="189.814" y2="1601.929"/>
      <line x1="239.814" y1="1602.929" x2="189.814" y2="1602.929"/>
      <line x1="239.814" y1="1603.929" x2="189.814" y2="1603.929"/>
      <line x1="239.814" y1="1604.929" x2="189.814" y2="1604.929"/>
      <line x1="239.814" y1="1605.929" x2="189.814" y2="1605.929"/>
      <line x1="239.814" y1="1606.929" x2="189.814" y2="1606.929"/>
      <line x1="239.814" y1="1607.929" x2="189.814" y2="1607.929"/>
      <line x1="239.814" y1="1608.929" x2="189.814" y2="1608.929"/>
      <line x1="239.814" y1="1609.929" x2="189.814" y2="1609.929"/>
      <line x1="239.814" y1="1610.929" x2="189.814" y2="1610.929"/>
      <line x1="239.814" y1="1611.929" x2="189.814" y2="1611.929"/>
      <line x1="239.814" y1="1612.929" x2="189.814" y2="1612.929"/>
      <line x1="239.814" y1="1613.929" x2="189.814" y2="1613.929"/>
      <line x1="239.814" y1="1614.929" x2="189.814" y2="1614.929"/>
      <line x1="239.814" y1="1615.929" x2="189.814" y2="1615.929"/>
      <line x1="239.814" y1="1616.929" x2="189.814" y2="1616.929"/>
      <line x1="239.814" y1="1617.929" x2="189.814" y2="1617.929"/>
      <line x1="239.814" y1="1618.929" x2="189.814" y2="1618.929"/>
      <line x1="239.814" y1="1619.929" x2="189.814" y2="1619.929"/>
      <line x1="239.814" y1="1620.929" x2="189.814" y2="1620.929"/>
      <line x1="239.814" y1="1621.929" x2="189.814" y2="1621.929"/>
      <line x1="239.814" y1="1622.929" x2="189.814" y2="1622.929"/>
      <line x1="239.814" y1="1623.929" x2="189.814" y2="1623.929"/>
      <line x1="239.814" y1="1624.929" x2="189.814" y2="1624.929"/>
      <line x1="239.814" y1="1625.929" x2="189.814" y2="1625.929"/>
      <line x1="239.814" y1="1626.929" x2="189.814" y2="1626.929"/>
      <line x1="239.814" y1="1627.929" x2="189.814" y2="1627.929"/>
      <line x1="239.814" y1="1628.929" x2="189.814" y2="1628.929"/>
      <line x1="289.914" y1="1579.929" x2="239.914" y2="1579.929"/>
      <line x1="289.914" y1="1580.929" x2="239.914" y2="1580.929"/>
      <line x1="289.914" y1="1581.929" x2="239.914" y2="1581.929"/>
      <line x1="289.914" y1="1582.929" x2="239.914" y2="1582.929"/>
      <line x1="289.914" y1="1583.929" x2="239.914" y2="1583.929"/>
      <line x1="289.914" y1="1584.929" x2="239.914" y2="1584.929"/>
      <line x1="289.914" y1="1585.929" x2="239.914" y2="1585.929"/>
      <line x1="289.914" y1="1586.929" x2="239.914" y2="1586.929"/>
      <line x1="289.914" y1="1587.929" x2="239.914" y2="1587.929"/>
      <line x1="289.914" y1="1588.929" x2="239.914" y2="1588.929"/>
      <line x1="289.914" y1="1589.929" x2="239.914" y2="1589.929"/>
      <line x1="289.914" y1="1590.929" x2="239.914" y2="1590.929"/>
      <line x1="289.914" y1="1591.929" x2="239.914" y2="1591.929"/>
      <line x1="289.914" y1="1592.929" x2="239.914" y2="1592.929"/>
      <line x1="289.914" y1="1593.929" x2="239.914" y2="1593.929"/>
      <line x1="289.914" y1="1594.929" x2="239.914" y2="1594.929"/>
      <line x1="289.914" y1="1595.929" x2="239.914" y2="1595.929"/>
      <line x1="289.914" y1="1596.929" x2="239.914" y2="1596.929"/>
      <line x1="289.914" y1="1597.929" x2="239.914" y2="1597.929"/>
      <line x1="289.914" y1="1598.929" x2="239.914" y2="1598.929"/>
      <line x1="289.914" y1="1599.929" x2="239.914" y2="1599.929"/>
      <line x1="289.914" y1="1600.929" x2="239.914" y2="1600.929"/>
      <line x1="289.914" y1="1601.929" x2="239.914" y2="1601.929"/>
      <line x1="289.914" y1="1602.929" x2="239.914" y2="1602.929"/>
      <line x1="289.914" y1="1603.929" x2="239.914" y2="1603.929"/>
      <line x1="289.914" y1="1604.929" x2="239.914" y2="1604.929"/>
      <line x1="289.914" y1="1605.929" x2="239.914" y2="1605.929"/>
      <line x1="289.914" y1="1606.929" x2="239.914" y2="1606.929"/>
      <line x1="289.914" y1="1607.929" x2="239.914" y2="1607.929"/>
      <line x1="289.914" y1="1608.929" x2="239.914" y2="1608.929"/>
      <line x1="289.914" y1="1609.929" x2="239.914" y2="1609.929"/>
      <line x1="289.914" y1="1610.929" x2="239.914" y2="1610.929"/>
      <line x1="289.914" y1="1611.929" x2="239.914" y2="1611.929"/>
      <line x1="289.914" y1="1612.929" x2="239.914" y2="1612.929"/>
      <line x1="289.914" y1="1613.929" x2="239.914" y2="1613.929"/>
      <line x1="289.914" y1="1614.929" x2="239.914" y2="1614.929"/>
      <line x1="289.914" y1="1615.929" x2="239.914" y2="1615.929"/>
      <line x1="289.914" y1="1616.929" x2="239.914" y2="1616.929"/>
      <line x1="289.914" y1="1617.929" x2="239.914" y2="1617.929"/>
      <line x1="289.914" y1="1618.929" x2="239.914" y2="1618.929"/>
      <line x1="289.914" y1="1619.929" x2="239.914" y2="1619.929"/>
      <line x1="289.914" y1="1620.929" x2="239.914" y2="1620.929"/>
      <line x1="289.914" y1="1621.929" x2="239.914" y2="1621.929"/>
      <line x1="289.914" y1="1622.929" x2="239.914" y2="1622.929"/>
      <line x1="289.914" y1="1623.929" x2="239.914" y2="1623.929"/>
      <line x1="289.914" y1="1624.929" x2="239.914" y2="1624.929"/>
      <line x1="289.914" y1="1625.929" x2="239.914" y2="1625.929"/>
      <line x1="289.914" y1="1626.929" x2="239.914" y2="1626.929"/>
      <line x1="289.914" y1="1627.929" x2="239.914" y2="1627.929"/>
      <line x1="289.914" y1="1628.929" x2="239.914" y2="1628.929"/>
      <line x1="340.014" y1="1579.929" x2="290.014" y2="1579.929"/>
      <line x1="340.014" y1="1580.929" x2="290.014" y2="1580.929"/>
      <line x1="340.014" y1="1581.929" x2="290.014" y2="1581.929"/>
      <line x1="340.014" y1="1582.929" x2="290.014" y2="1582.929"/>
      <line x1="340.014" y1="1583.929" x2="290.014" y2="1583.929"/>
      <line x1="340.014" y1="1584.929" x2="290.014" y2="1584.929"/>
      <line x1="340.014" y1="1585.929" x2="290.014" y2="1585.929"/>
      <line x1="340.014" y1="1586.929" x2="290.014" y2="1586.929"/>
      <line x1="340.014" y1="1587.929" x2="290.014" y2="1587.929"/>
      <line x1="340.014" y1="1588.929" x2="290.014" y2="1588.929"/>
      <line x1="340.014" y1="1589.929" x2="290.014" y2="1589.929"/>
      <line x1="340.014" y1="1590.929" x2="290.014" y2="1590.929"/>
      <line x1="340.014" y1="1591.929" x2="290.014" y2="1591.929"/>
      <line x1="340.014" y1="1592.929" x2="290.014" y2="1592.929"/>
      <line x1="340.014" y1="1593.929" x2="290.014" y2="1593.929"/>
      <line x1="340.014" y1="1594.929" x2="290.014" y2="1594.929"/>
      <line x1="340.014" y1="1595.929" x2="290.014" y2="1595.929"/>
      <line x1="340.014" y1="1596.929" x2="290.014" y2="1596.929"/>
      <line x1="340.014" y1="1597.929" x2="290.014" y2="1597.929"/>
      <line x1="340.014" y1="1598.929" x2="290.014" y2="1598.929"/>
      <line x1="340.014" y1="1599.929" x2="290.014" y2="1599.929"/>
      <line x1="340.014" y1="1600.929" x2="290.014" y2="1600.929"/>
      <line x1="340.014" y1="1601.929" x2="290.014" y2="1601.929"/>
      <line x1="340.014" y1="1602.929" x2="290.014" y2="1602.929"/>
      <line x1="340.014" y1="1603.929" x2="290.014" y2="1603.929"/>
      <line x1="340.014" y1="1604.929" x2="290.014" y2="1604.929"/>
      <line x1="340.014" y1="1605.929" x2="290.014" y2="1605.929"/>
      <line x1="340.014" y1="1606.929" x2="290.014" y2="1606.929"/>
      <line x1="340.014" y1="1607.929" x2="290.014" y2="1607.929"/>
      <line x1="340.014" y1="1608.929" x2="290.014" y2="1608.929"/>
      <line x1="340.014" y1="1609.929" x2="290.014" y2="1609.929"/>
      <line x1="340.014" y1="1610.929" x2="290.014" y2="1610.929"/>
      <line x1="340.014" y1="1611.929" x2="290.014" y2="1611.929"/>
      <line x1="340.014" y1="1612.929" x2="290.014" y2="1612.929"/>
      <line x1="340.014" y1="1613.929" x2="290.014" y2="1613.929"/>
      <line x1="340.014" y1="1614.929" x2="290.014" y2="1614.929"/>
      <line x1="340.014" y1="1615.929" x2="290.014" y2="1615.929"/>
      <line x1="340.014" y1="1616.929" x2="290.014" y2="1616.929"/>
      <line x1="340.014" y1="1617.929" x2="290.014" y2="1617.929"/>
      <line x1="340.014" y1="1618.929" x2="290.014" y2="1618.929"/>
      <line x1="340.014" y1="1619.929" x2="290.014" y2="1619.929"/>
      <line x1="340.014" y1="1620.929" x2="290.014" y2="1620.929"/>
      <line x1="340.014" y1="1621.929" x2="290.014" y2="1621.929"/>
      <line x1="340.014" y1="1622.929" x2="290.014" y2="1622.929"/>
      <line x1="340.014" y1="1623.929" x2="290.014" y2="1623.929"/>
      <line x1="340.014" y1="1624.929" x2="290.014" y2="1624.929"/>
      <line x1="340.014" y1="1625.929" x2="290.014" y2="1625.929"/>
      <line x1="340.014" y1="1626.929" x2="290.014" y2="1626.929"/>
      <line x1="340.014" y1="1627.929" x2="290.014" y2="1627.929"/>
      <line x1="340.014" y1="1628.929" x2="290.014" y2="1628.929"/>
      <line x1="390.114" y1="1579.929" x2="340.114" y2="1579.929"/>
      <line x1="390.114" y1="1580.929" x2="340.114" y2="1580.929"/>
      <line x1="390.114" y1="1581.929" x2="340.114" y2="1581.929"/>
      <line x1="390.114" y1="1582.929" x2="340.114" y2="1582.929"/>
      <line x1="390.114" y1="1583.929" x2="340.114" y2="1583.929"/>
      <line x1="390.114" y1="1584.929" x2="340.114" y2="1584.929"/>
      <line x1="390.114" y1="1585.929" x2="340.114" y2="1585.929"/>
      <line x1="390.114" y1="1586.929" x2="340.114" y2="1586.929"/>
      <line x1="390.114" y1="1587.929" x2="340.114" y2="1587.929"/>
      <line x1="390.114" y1="1588.929" x2="340.114" y2="1588.929"/>
      <line x1="390.114" y1="1589.929" x2="340.114" y2="1589.929"/>
      <line x1="390.114" y1="1590.929" x2="340.114" y2="1590.929"/>
      <line x1="390.114" y1="1591.929" x2="340.114" y2="1591.929"/>
      <line x1="390.114" y1="1592.929" x2="340.114" y2="1592.929"/>
      <line x1="390.114" y1="1593.929" x2="340.114" y2="1593.929"/>
      <line x1="390.114" y1="1594.929" x2="340.114" y2="1594.929"/>
      <line x1="390.114" y1="1595.929" x2="340.114" y2="1595.929"/>
      <line x1="390.114" y1="1596.929" x2="340.114" y2="1596.929"/>
      <line x1="390.114" y1="1597.929" x2="340.114" y2="1597.929"/>
      <line x1="390.114" y1="1598.929" x2="340.114" y2="1598.929"/>
      <line x1="390.114" y1="1599.929" x2="340.114" y2="1599.929"/>
      <line x1="390.114" y1="1600.929" x2="340.114" y2="1600.929"/>
      <line x1="390.114" y1="1601.929" x2="340.114" y2="1601.929"/>
      <line x1="390.114" y1="1602.929" x2="340.114" y2="1602.929"/>
      <line x1="390.114" y1="1603.929" x2="340.114" y2="1603.929"/>
      <line x1="390.114" y1="1604.929" x2="340.114" y2="1604.929"/>
      <line x1="390.114" y1="1605.929" x2="340.114" y2="1605.929"/>
      <line x1="390.114" y1="1606.929" x2="340.114" y2="1606.929"/>
      <line x1="390.114" y1="1607.929" x2="340.114" y2="1607.929"/>
      <line x1="390.114" y1="1608.929" x2="340.114" y2="1608.929"/>
      <line x1="390.114" y1="1609.929" x2="340.114" y2="1609.929"/>
      <line x1="390.114" y1="1610.929" x2="340.114" y2="1610.929"/>
      <line x1="390.114" y1="1611.929" x2="340.114" y2="1611.929"/>
      <line x1="390.114" y1="1612.929" x2="340.114" y2="1612.929"/>
      <line x1="390.114" y1="1613.929" x2="340.114" y2="1613.929"/>
      <line x1="390.114" y1="1614.929" x2="340.114" y2="1614.929"/>
      <line x1="390.114" y1="1615.929" x2="340.114" y2="1615.929"/>
      <line x1="390.114" y1="1616.929" x2="340.114" y2="1616.929"/>
      <line x1="390.114" y1="1617.929" x2="340.114" y2="1617.929"/>
      <line x1="390.114" y1="1618.929" x2="340.114" y2="1618.929"/>
      <line x1="390.114" y1="1619.929" x2="340.114" y2="1619.929"/>
      <line x1="390.114" y1="1620.929" x2="340.114" y2="1620.929"/>
      <line x1="390.114" y1="1621.929" x2="340.114" y2="1621.929"/>
      <line x1="390.114" y1="1622.929" x2="340.114" y2="1622.929"/>
      <line x1="390.114" y1="1623.929" x2="340.114" y2="1623.929"/>
      <line x1="390.114" y1="1624.929" x2="340.114" y2="1624.929"/>
      <line x1="390.114" y1="1625.929" x2="340.114" y2="1625.929"/>
      <line x1="390.114" y1="1626.929" x2="340.114" y2="1626.929"/>
      <line x1="390.114" y1="1627.929" x2="340.114" y2="1627.929"/>
      <line x1="390.114" y1="1628.929" x2="340.114" y2="1628.929"/>
      <line x1="410.186" y1="1579.929" x2="390.214" y2="1579.929"/>
      <line x1="410.186" y1="1580.929" x2="390.214" y2="1580.929"/>
      <line x1="410.186" y1="1581.929" x2="390.214" y2="1581.929"/>
      <line x1="410.186" y1="1582.929" x2="390.214" y2="1582.929"/>
      <line x1="410.186" y1="1583.929" x2="390.214" y2="1583.929"/>
      <line x1="410.186" y1="1584.929" x2="390.214" y2="1584.929"/>
      <line x1="410.186" y1="1585.929" x2="390.214" y2="1585.929"/>
      <line x1="410.186" y1="1586.929" x2="390.214" y2="1586.929"/>
      <line x1="410.186" y1="1587.929" x2="390.214" y2="1587.929"/>
      <line x1="410.186" y1="1588.929" x2="390.214" y2="1588.929"/>
      <line x1="410.186" y1="1589.929" x2="390.214" y2="1589.929"/>
      <line x1="410.186" y1="1590.929" x2="390.214" y2="1590.929"/>
      <line x1="410.186" y1="1591.929" x2="390.214" y2="1591.929"/>
      <line x1="410.186" y1="1592.929" x2="390.214" y2="1592.929"/>
      <line x1="410.186" y1="1593.929" x2="390.214" y2="1593.929"/>
      <line x1="410.186" y1="1594.929" x2="390.214" y2="1594.929"/>
      <line x1="410.186" y1="1595.929" x2="390.214" y2="1595.929"/>
      <line x1="410.186" y1="1596.929" x2="390.214" y2="1596.929"/>
      <line x1="410.186" y1="1597.929" x2="390.214" y2="1597.929"/>
      <line x1="410.186" y1="1598.929" x2="390.214" y2="1598.929"/>
      <line x1="410.186" y1="1599.929" x2="390.214" y2="1599.929"/>
      <line x1="410.186" y1="1600.929" x2="390.214" y2="1600.929"/>
      <line x1="410.186" y1="1601.929" x2="390.214" y2="1601.929"/>
      <line x1="410.186" y1="1602.929" x2="390.214" y2="1602.929"/>
      <line x1="410.186" y1="1603.929" x2="390.214" y2="1603.929"/>
      <line x1="410.186" y1="1604.929" x2="390.214" y2="1604.929"/>
      <line x1="410.186" y1="1605.929" x2="390.214" y2="1605.929"/>
      <line x1="410.186" y1="1606.929" x2="390.214" y2="1606.929"/>
      <line x1="410.186" y1="1607.929" x2="390.214" y2="1607.929"/>
      <line x1="410.186" y1="1608.929" x2="390.214" y2="1608.929"/>
      <line x1="410.186" y1="1609.929" x2="390.214" y2="1609.929"/>
      <line x1="410.186" y1="1610.929" x2="390.214" y2="1610.929"/>
      <line x1="410.186" y1="1611.929" x2="390.214" y2="1611.929"/>
      <line x1="410.186" y1="1612.929" x2="390.214" y2="1612.929"/>
      <line x1="410.186" y1="1613.929" x2="390.214" y2="1613.929"/>
      <line x1="410.186" y1="1614.929" x2="390.214" y2="1614.929"/>
      <line x1="410.186" y1="1615.929" x2="390.214" y2="1615.929"/>
      <line x1="410.186" y1="1616.929" x2="390.214" y2="1616.929"/>
      <line x1="410.186" y1="1617.929" x2="390.214" y2="1617.929"/>
      <line x1="410.186" y1="1618.929" x2="390.214" y2="1618.929"/>
      <line x1="410.186" y1="1619.929" x2="390.214" y2="1619.929"/>
      <line x1="410.186" y1="1620.929" x2="390.214" y2="1620.929"/>
      <line x1="410.186" y1="1621.929" x2="390.214" y2="1621.929"/>
      <line x1="410.186" y1="1622.929" x2="390.214" y2="1622.929"/>
      <line x1="410.186" y1="1623.929" x2="390.214" y2="1623.929"/>
      <line x1="410.186" y1="1624.929" x2="390.214" y2="1624.929"/>
      <line x1="410.186" y1="1625.929" x2="390.214" y2="1625.929"/>
      <line x1="410.186" y1="1626.929" x2="390.214" y2="1626.929"/>
      <line x1="410.186" y1="1627.929" x2="390.214" y2="1627.929"/>
      <line x1="410.186" y1="1628.929" x2="390.214" y2="1628.929"/>
      <line x1="239.814" y1="1529.929" x2="189.814" y2="1529.929"/>
      <line x1="239.814" y1="1530.929" x2="189.814" y2="1530.929"/>
      <line x1="239.814" y1="1531.929" x2="189.814" y2="1531.929"/>
      <line x1="239.814" y1="1532.929" x2="189.814" y2="1532.929"/>
      <line x1="239.814" y1="1533.929" x2="189.814" y2="1533.929"/>
      <line x1="239.814" y1="1534.929" x2="189.814" y2="1534.929"/>
      <line x1="239.814" y1="1535.929" x2="189.814" y2="1535.929"/>
      <line x1="239.814" y1="1536.929" x2="189.814" y2="1536.929"/>
      <line x1="239.814" y1="1537.929" x2="189.814" y2="1537.929"/>
      <line x1="239.814" y1="1538.929" x2="189.814" y2="1538.929"/>
      <line x1="239.814" y1="1539.929" x2="189.814" y2="1539.929"/>
      <line x1="239.814" y1="1540.929" x2="189.814" y2="1540.929"/>
      <line x1="239.814" y1="1541.929" x2="189.814" y2="1541.929"/>
      <line x1="239.814" y1="1542.929" x2="189.814" y2="1542.929"/>
      <line x1="239.814" y1="1543.929" x2="189.814" y2="1543.929"/>
      <line x1="239.814" y1="1544.929" x2="189.814" y2="1544.929"/>
      <line x1="239.814" y1="1545.929" x2="189.814" y2="1545.929"/>
      <line x1="239.814" y1="1546.929" x2="189.814" y2="1546.929"/>
      <line x1="239.814" y1="1547.929" x2="189.814" y2="1547.929"/>
      <line x1="239.814" y1="1548.929" x2="189.814" y2="1548.929"/>
      <line x1="239.814" y1="1549.929" x2="189.814" y2="1549.929"/>
      <line x1="239.814" y1="1550.929" x2="189.814" y2="1550.929"/>
      <line x1="239.814" y1="1551.929" x2="189.814" y2="1551.929"/>
      <line x1="239.814" y1="1552.929" x2="189.814" y2="1552.929"/>
      <line x1="239.814" y1="1553.929" x2="189.814" y2="1553.929"/>
      <line x1="239.814" y1="1554.929" x2="189.814" y2="1554.929"/>
      <line x1="239.814" y1="1555.929" x2="189.814" y2="1555.929"/>
      <line x1="239.814" y1="1556.929" x2="189.814" y2="1556.929"/>
      <line x1="239.814" y1="1557.929" x2="189.814" y2="1557.929"/>
      <line x1="239.814" y1="1558.929" x2="189.814" y2="1558.929"/>
      <line x1="239.814" y1="1559.929" x2="189.814" y2="1559.929"/>
      <line x1="239.814" y1="1560.929" x2="189.814" y2="1560.929"/>
      <line x1="239.814" y1="1561.929" x2="189.814" y2="1561.929"/>
      <line x1="239.814" y1="1562.929" x2="189.814" y2="1562.929"/>
      <line x1="239.814" y1="1563.929" x2="189.814" y2="1563.929"/>
      <line x1="239.814" y1="1564.929" x2="189.814" y2="1564.929"/>
      <line x1="239.814" y1="1565.929" x2="189.814" y2="1565.929"/>
      <line x1="239.814" y1="1566.929" x2="189.814" y2="1566.929"/>
      <line x1="239.814" y1="1567.929" x2="189.814" y2="1567.929"/>
      <line x1="239.814" y1="1568.929" x2="189.814" y2="1568.929"/>
      <line x1="239.814" y1="1569.929" x2="189.814" y2="1569.929"/>
      <line x1="239.814" y1="1570.929" x2="189.814" y2="1570.929"/>
      <line x1="239.814" y1="1571.929" x2="189.814" y2="1571.929"/>
      <line x1="239.814" y1="1572.929" x2="189.814" y2="1572.929"/>
      <line x1="239.814" y1="1573.929" x2="189.814" y2="1573.929"/>
      <line x1="239.814" y1="1574.929" x2="189.814" y2="1574.929"/>
      <line x1="239.814" y1="1575.929" x2="189.814" y2="1575.929"/>
      <line x1="239.814" y1="1576.929" x2="189.814" y2="1576.929"/>
      <line x1="239.814" y1="1577.929" x2="189.814" y2="1577.929"/>
      <line x1="239.814" y1="1578.929" x2="189.814" y2="1578.929"/>
      <line x1="289.914" y1="1529.929" x2="239.914" y2="1529.929"/>
      <line x1="289.914" y1="1530.929" x2="239.914" y2="1530.929"/>
      <line x1="289.914" y1="1531.929" x2="239.914" y2="1531.929"/>
      <line x1="289.914" y1="1532.929" x2="239.914" y2="1532.929"/>
      <line x1="289.914" y1="1533.929" x2="239.914" y2="1533.929"/>
      <line x1="289.914" y1="1534.929" x2="239.914" y2="1534.929"/>
      <line x1="289.914" y1="1535.929" x2="239.914" y2="1535.929"/>
      <line x1="289.914" y1="1536.929" x2="239.914" y2="1536.929"/>
      <line x1="289.914" y1="1537.929" x2="239.914" y2="1537.929"/>
      <line x1="289.914" y1="1538.929" x2="239.914" y2="1538.929"/>
      <line x1="289.914" y1="1539.929" x2="239.914" y2="1539.929"/>
      <line x1="289.914" y1="1540.929" x2="239.914" y2="1540.929"/>
      <line x1="289.914" y1="1541.929" x2="239.914" y2="1541.929"/>
      <line x1="289.914" y1="1542.929" x2="239.914" y2="1542.929"/>
      <line x1="289.914" y1="1543.929" x2="239.914" y2="1543.929"/>
      <line x1="289.914" y1="1544.929" x2="239.914" y2="1544.929"/>
      <line x1="289.914" y1="1545.929" x2="239.914" y2="1545.929"/>
      <line x1="289.914" y1="1546.929" x2="239.914" y2="1546.929"/>
      <line x1="289.914" y1="1547.929" x2="239.914" y2="1547.929"/>
      <line x1="289.914" y1="1548.929" x2="239.914" y2="1548.929"/>
      <line x1="289.914" y1="1549.929" x2="239.914" y2="1549.929"/>
      <line x1="289.914" y1="1550.929" x2="239.914" y2="1550.929"/>
      <line x1="289.914" y1="1551.929" x2="239.914" y2="1551.929"/>
      <line x1="289.914" y1="1552.929" x2="239.914" y2="1552.929"/>
      <line x1="289.914" y1="1553.929" x2="239.914" y2="1553.929"/>
      <line x1="289.914" y1="1554.929" x2="239.914" y2="1554.929"/>
      <line x1="289.914" y1="1555.929" x2="239.914" y2="1555.929"/>
      <line x1="289.914" y1="1556.929" x2="239.914" y2="1556.929"/>
      <line x1="289.914" y1="1557.929" x2="239.914" y2="1557.929"/>
      <line x1="289.914" y1="1558.929" x2="239.914" y2="1558.929"/>
      <line x1="289.914" y1="1559.929" x2="239.914" y2="1559.929"/>
      <line x1="289.914" y1="1560.929" x2="239.914" y2="1560.929"/>
      <line x1="289.914" y1="1561.929" x2="239.914" y2="1561.929"/>
      <line x1="289.914" y1="1562.929" x2="239.914" y2="1562.929"/>
      <line x1="289.914" y1="1563.929" x2="239.914" y2="1563.929"/>
      <line x1="289.914" y1="1564.929" x2="239.914" y2="1564.929"/>
      <line x1="289.914" y1="1565.929" x2="239.914" y2="1565.929"/>
      <line x1="289.914" y1="1566.929" x2="239.914" y2="1566.929"/>
      <line x1="289.914" y1="1567.929" x2="239.914" y2="1567.929"/>
      <line x1="289.914" y1="1568.929" x2="239.914" y2="1568.929"/>
      <line x1="289.914" y1="1569.929" x2="239.914" y2="1569.929"/>
      <line x1="289.914" y1="1570.929" x2="239.914" y2="1570.929"/>
      <line x1="289.914" y1="1571.929" x2="239.914" y2="1571.929"/>
      <line x1="289.914" y1="1572.929" x2="239.914" y2="1572.929"/>
      <line x1="289.914" y1="1573.929" x2="239.914" y2="1573.929"/>
      <line x1="289.914" y1="1574.929" x2="239.914" y2="1574.929"/>
      <line x1="289.914" y1="1575.929" x2="239.914" y2="1575.929"/>
      <line x1="289.914" y1="1576.929" x2="239.914" y2="1576.929"/>
      <line x1="289.914" y1="1577.929" x2="239.914" y2="1577.929"/>
      <line x1="289.914" y1="1578.929" x2="239.914" y2="1578.929"/>
      <line x1="340.014" y1="1529.929" x2="290.014" y2="1529.929"/>
      <line x1="340.014" y1="1530.929" x2="290.014" y2="1530.929"/>
      <line x1="340.014" y1="1531.929" x2="290.014" y2="1531.929"/>
      <line x1="340.014" y1="1532.929" x2="290.014" y2="1532.929"/>
      <line x1="340.014" y1="1533.929" x2="290.014" y2="1533.929"/>
      <line x1="340.014" y1="1534.929" x2="290.014" y2="1534.929"/>
      <line x1="340.014" y1="1535.929" x2="290.014" y2="1535.929"/>
      <line x1="340.014" y1="1536.929" x2="290.014" y2="1536.929"/>
      <line x1="340.014" y1="1537.929" x2="290.014" y2="1537.929"/>
      <line x1="340.014" y1="1538.929" x2="290.014" y2="1538.929"/>
      <line x1="340.014" y1="1539.929" x2="290.014" y2="1539.929"/>
      <line x1="340.014" y1="1540.929" x2="290.014" y2="1540.929"/>
      <line x1="340.014" y1="1541.929" x2="290.014" y2="1541.929"/>
      <line x1="340.014" y1="1542.929" x2="290.014" y2="1542.929"/>
      <line x1="340.014" y1="1543.929" x2="290.014" y2="1543.929"/>
      <line x1="340.014" y1="1544.929" x2="290.014" y2="1544.929"/>
      <line x1="340.014" y1="1545.929" x2="290.014" y2="1545.929"/>
      <line x1="340.014" y1="1546.929" x2="290.014" y2="1546.929"/>
      <line x1="340.014" y1="1547.929" x2="290.014" y2="1547.929"/>
      <line x1="340.014" y1="1548.929" x2="290.014" y2="1548.929"/>
      <line x1="340.014" y1="1549.929" x2="290.014" y2="1549.929"/>
      <line x1="340.014" y1="1550.929" x2="290.014" y2="1550.929"/>
      <line x1="340.014" y1="1551.929" x2="290.014" y2="1551.929"/>
      <line x1="340.014" y1="1552.929" x2="290.014" y2="1552.929"/>
      <line x1="340.014" y1="1553.929" x2="290.014" y2="1553.929"/>
      <line x1="340.014" y1="1554.929" x2="290.014" y2="1554.929"/>
      <line x1="340.014" y1="1555.929" x2="290.014" y2="1555.929"/>
      <line x1="340.014" y1="1556.929" x2="290.014" y2="1556.929"/>
      <line x1="340.014" y1="1557.929" x2="290.014" y2="1557.929"/>
      <line x1="340.014" y1="1558.929" x2="290.014" y2="1558.929"/>
      <line x1="340.014" y1="1559.929" x2="290.014" y2="1559.929"/>
      <line x1="340.014" y1="1560.929" x2="290.014" y2="1560.929"/>
      <line x1="340.014" y1="1561.929" x2="290.014" y2="1561.929"/>
      <line x1="340.014" y1="1562.929" x2="290.014" y2="1562.929"/>
      <line x1="340.014" y1="1563.929" x2="290.014" y2="1563.929"/>
      <line x1="340.014" y1="1564.929" x2="290.014" y2="1564.929"/>
      <line x1="340.014" y1="1565.929" x2="290.014" y2="1565.929"/>
      <line x1="340.014" y1="1566.929" x2="290.014" y2="1566.929"/>
      <line x1="340.014" y1="1567.929" x2="290.014" y2="1567.929"/>
      <line x1="340.014" y1="1568.929" x2="290.014" y2="1568.929"/>
      <line x1="340.014" y1="1569.929" x2="290.014" y2="1569.929"/>
      <line x1="340.014" y1="1570.929" x2="290.014" y2="1570.929"/>
      <line x1="340.014" y1="1571.929" x2="290.014" y2="1571.929"/>
      <line x1="340.014" y1="1572.929" x2="290.014" y2="1572.929"/>
      <line x1="340.014" y1="1573.929" x2="290.014" y2="1573.929"/>
      <line x1="340.014" y1="1574.929" x2="290.014" y2="1574.929"/>
      <line x1="340.014" y1="1575.929" x2="290.014" y2="1575.929"/>
      <line x1="340.014" y1="1576.929" x2="290.014" y2="1576.929"/>
      <line x1="340.014" y1="1577.929" x2="290.014" y2="1577.929"/>
      <line x1="340.014" y1="1578.929" x2="290.014" y2="1578.929"/>
      <line x1="390.114" y1="1529.929" x2="340.114" y2="1529.929"/>
      <line x1="390.114" y1="1530.929" x2="340.114" y2="1530.929"/>
      <line x1="390.114" y1="1531.929" x2="340.114" y2="1531.929"/>
      <line x1="390.114" y1="1532.929" x2="340.114" y2="1532.929"/>
      <line x1="390.114" y1="1533.929" x2="340.114" y2="1533.929"/>
      <line x1="390.114" y1="1534.929" x2="340.114" y2="1534.929"/>
      <line x1="390.114" y1="1535.929" x2="340.114" y2="1535.929"/>
      <line x1="390.114" y1="1536.929" x2="340.114" y2="1536.929"/>
      <line x1="390.114" y1="1537.929" x2="340.114" y2="1537.929"/>
      <line x1="390.114" y1="1538.929" x2="340.114" y2="1538.929"/>
      <line x1="390.114" y1="1539.929" x2="340.114" y2="1539.929"/>
      <line x1="390.114" y1="1540.929" x2="340.114" y2="1540.929"/>
      <line x1="390.114" y1="1541.929" x2="340.114" y2="1541.929"/>
      <line x1="390.114" y1="1542.929" x2="340.114" y2="1542.929"/>
      <line x1="390.114" y1="1543.929" x2="340.114" y2="1543.929"/>
      <line x1="390.114" y1="1544.929" x2="340.114" y2="1544.929"/>
      <line x1="390.114" y1="1545.929" x2="340.114" y2="1545.929"/>
      <line x1="390.114" y1="1546.929" x2="340.114" y2="1546.929"/>
      <line x1="390.114" y1="1547.929" x2="340.114" y2="1547.929"/>
      <line x1="390.114" y1="1548.929" x2="340.114" y2="1548.929"/>
      <line x1="390.114" y1="1549.929" x2="340.114" y2="1549.929"/>
      <line x1="390.114" y1="1550.929" x2="340.114" y2="1550.929"/>
      <line x1="390.114" y1="1551.929" x2="340.114" y2="1551.929"/>
      <line x1="390.114" y1="1552.929" x2="340.114" y2="1552.929"/>
      <line x1="390.114" y1="1553.929" x2="340.114" y2="1553.929"/>
      <line x1="390.114" y1="1554.929" x2="340.114" y2="1554.929"/>
      <line x1="390.114" y1="1555.929" x2="340.114" y2="1555.929"/>
      <line x1="390.114" y1="1556.929" x2="340.114" y2="1556.929"/>
      <line x1="390.114" y1="1557.929" x2="340.114" y2="1557.929"/>
      <line x1="390.114" y1="1558.929" x2="340.114" y2="1558.929"/>
      <line x1="390.114" y1="1559.929" x2="340.114" y2="1559.929"/>
      <line x1="390.114" y1="1560.929" x2="340.114" y2="1560.929"/>
      <line x1="390.114" y1="1561.929" x2="340.114" y2="1561.929"/>
      <line x1="390.114" y1="1562.929" x2="340.114" y2="1562.929"/>
      <line x1="390.114" y1="1563.929" x2="340.114" y2="1563.929"/>
      <line x1="390.114" y1="1564.929" x2="340.114" y2="1564.929"/>
      <line x1="390.114" y1="1565.929" x2="340.114" y2="1565.929"/>
      <line x1="390.114" y1="1566.929" x2="340.114" y2="1566.929"/>
      <line x1="390.114" y1="1567.929" x2="340.114" y2="1567.929"/>
      <line x1="390.114" y1="1568.929" x2="340.114" y2="1568.929"/>
      <line x1="390.114" y1="1569.929" x2="340.114" y2="1569.929"/>
      <line x1="390.114" y1="1570.929" x2="340.114" y2="1570.929"/>
      <line x1="390.114" y1="1571.929" x2="340.114" y2="1571.929"/>
      <line x1="390.114" y1="1572.929" x2="340.114" y2="1572.929"/>
      <line x1="390.114" y1="1573.929" x2="340.114" y2="1573.929"/>
      <line x1="390.114" y1="1574.929" x2="340.114" y2="1574.929"/>
      <line x1="390.114" y1="1575.929" x2="340.114" y2="1575.929"/>
      <line x1="390.114" y1="1576.929" x2="340.114" y2="1576.929"/>
      <line x1="390.114" y1="1577.929" x2="340.114" y2="1577.929"/>
      <line x1="390.114" y1="1578.929" x2="340.114" y2="1578.929"/>
      <line x1="410.186" y1="1529.929" x2="390.214" y2="1529.929"/>
      <line x1="410.186" y1="1530.929" x2="390.214" y2="1530.929"/>
      <line x1="410.186" y1="1531.929" x2="390.214" y2="1531.929"/>
      <line x1="410.186" y1="1532.929" x2="390.214" y2="1532.929"/>
      <line x1="410.186" y1="1533.929" x2="390.214" y2="1533.929"/>
      <line x1="410.186" y1="1534.929" x2="390.214" y2="1534.929"/>
      <line x1="410.186" y1="1535.929" x2="390.214" y2="1535.929"/>
      <line x1="410.186" y1="1536.929" x2="390.214" y2="1536.929"/>
      <line x1="410.186" y1="1537.929" x2="390.214" y2="1537.929"/>
      <line x1="410.186" y1="1538.929" x2="390.214" y2="1538.929"/>
      <line x1="410.186" y1="1539.929" x2="390.214" y2="1539.929"/>
      <line x1="410.186" y1="1540.929" x2="390.214" y2="1540.929"/>
      <line x1="410.186" y1="1541.929" x2="390.214" y2="1541.929"/>
      <line x1="410.186" y1="1542.929" x2="390.214" y2="1542.929"/>
      <line x1="410.186" y1="1543.929" x2="390.214" y2="1543.929"/>
      <line x1="410.186" y1="1544.929" x2="390.214" y2="1544.929"/>
      <line x1="410.186" y1="1545.929" x2="390.214" y2="1545.929"/>
      <line x1="410.186" y1="1546.929" x2="390.214" y2="1546.929"/>
      <line x1="410.186" y1="1547.929" x2="390.214" y2="1547.929"/>
      <line x1="410.186" y1="1548.929" x2="390.214" y2="1548.929"/>
      <line x1="410.186" y1="1549.929" x2="390.214" y2="1549.929"/>
      <line x1="410.186" y1="1550.929" x2="390.214" y2="1550.929"/>
      <line x1="410.186" y1="1551.929" x2="390.214" y2="1551.929"/>
      <line x1="410.186" y1="1552.929" x2="390.214" y2="1552.929"/>
      <line x1="410.186" y1="1553.929" x2="390.214" y2="1553.929"/>
      <line x1="410.186" y1="1554.929" x2="390.214" y2="1554.929"/>
      <line x1="410.186" y1="1555.929" x2="390.214" y2="1555.929"/>
      <line x1="410.186" y1="1556.929" x2="390.214" y2="1556.929"/>
      <line x1="410.186" y1="1557.929" x2="390.214" y2="1557.929"/>
      <line x1="410.186" y1="1558.929" x2="390.214" y2="1558.929"/>
      <line x1="410.186" y1="1559.929" x2="390.214" y2="1559.929"/>
      <line x1="410.186" y1="1560.929" x2="390.214" y2="1560.929"/>
      <line x1="410.186" y1="1561.929" x2="390.214" y2="1561.929"/>
      <line x1="410.186" y1="1562.929" x2="390.214" y2="1562.929"/>
      <line x1="410.186" y1="1563.929" x2="390.214" y2="1563.929"/>
      <line x1="410.186" y1="1564.929" x2="390.214" y2="1564.929"/>
      <line x1="410.186" y1="1565.929" x2="390.214" y2="1565.929"/>
      <line x1="410.186" y1="1566.929" x2="390.214" y2="1566.929"/>
      <line x1="410.186" y1="1567.929" x2="390.214" y2="1567.929"/>
      <line x1="410.186" y1="1568.929" x2="390.214" y2="1568.929"/>
      <line x1="410.186" y1="1569.929" x2="390.214" y2="1569.929"/>
      <line x1="410.186" y1="1570.929" x2="390.214" y2="1570.929"/>
      <line x1="410.186" y1="1571.929" x2="390.214" y2="1571.929"/>
      <line x1="410.186" y1="1572.929" x2="390.214" y2="1572.929"/>
      <line x1="410.186" y1="1573.929" x2="390.214" y2="1573.929"/>
      <line x1="410.186" y1="1574.929" x2="390.214" y2="1574.929"/>
      <line x1="410.186" y1="1575.929" x2="390.214" y2="1575.929"/>
      <line x1="410.186" y1="1576.929" x2="390.214" y2="1576.929"/>
      <line x1="410.186" y1="1577.929" x2="390.214" y2="1577.929"/>
      <line x1="410.186" y1="1578.929" x2="390.214" y2="1578.929"/>
      <line x1="239.814" y1="1525.929" x2="189.814" y2="1525.929"/>
      <line x1="239.814" y1="1526.929" x2="189.814" y2="1526.929"/>
      <line x1="239.814" y1="1527.929" x2="189.814" y2="1527.929"/>
      <line x1="239.814" y1="1528.929" x2="189.814" y2="1528.929"/>
      <line x1="289.914" y1="1525.929" x2="239.914" y2="1525.929"/>
      <line x1="289.914" y1="1526.929" x2="239.914" y2="1526.929"/>
      <line x1="289.914" y1="1527.929" x2="239.914" y2="1527.929"/>
      <line x1="289.914" y1="1528.929" x2="239.914" y2="1528.929"/>
      <line x1="340.014" y1="1525.929" x2="290.014" y2="1525.929"/>
      <line x1="340.014" y1="1526.929" x2="290.014" y2="1526.929"/>
      <line x1="340.014" y1="1527.929" x2="290.014" y2="1527.929"/>
      <line x1="340.014" y1="1528.929" x2="290.014" y2="1528.929"/>
      <line x1="390.114" y1="1525.929" x2="340.114" y2="1525.929"/>
      <line x1="390.114" y1="1526.929" x2="340.114" y2="1526.929"/>
      <line x1="390.114" y1="1527.929" x2="340.114" y2="1527.929"/>
      <line x1="390.114" y1="1528.929" x2="340.114" y2="1528.929"/>
      <line x1="410.186" y1="1525.929" x2="390.214" y2="1525.929"/>
      <line x1="410.186" y1="1526.929" x2="390.214" y2="1526.929"/>
      <line x1="410.186" y1="1527.929" x2="390.214" y2="1527.929"/>
      <line x1="410.186" y1="1528.929" x2="390.214" y2="1528.929"/>
    </g>
    <g stroke="#1976D2" stroke-width="0.4">
      <polyline points="413.686,1521.729 186.314,1521.729 186.314,1682.729 413.686,1682.729 413.686,1521.729" fill="none"/>
      <polyline points="412.686,1522.729 187.314,1522.729 187.314,1681.730 412.686,1681.730 412.686,1522.729" fill="none"/>
      <polyline points="411.686,1523.729 188.314,1523.729 188.314,1680.730 411.686,1680.730 411.686,1523.729" fill="none"/>
      <polyline points="410.686,1524.729 189.314,1524.729 189.314,1679.729 410.686,1679.729 410.686,1524.729" fill="none"/>
    </g>
    <g stroke="#C62828" stroke-width="0.4" fill="none">
    </g>
    <g stroke="#EF6C00" stroke-width="0.4" fill="none">
    </g>
  </g>
  <g stroke="#000000" stroke-width="0.4">
    <line x1="500.000" y1="1000.000" x2="1500.000" y2="1000.000"/>
  </g>
  <g stroke="#000000" stroke-width="0.4">
    <line x1="1000.000" y1="500.000" x2="1000.000" y2="1500.000"/>
  </g>
  <circle cx="1000.000" cy="1000.000" r="1000.000" stroke="red" stroke-width="1" fill="none"/>
  </g>
</svg>
