<?xml version="1.0" encoding="UTF-8"?>
<svg xmlns="http://www.w3.org/2000/svg" version="1.1" width="2000" height="2000">
  <g fill="none" stroke-linecap="round" stroke-linejoin="round">
  <text x="10" y="20" font-size="24" fill="#555">Layer 267 Z=65.400 mm</text>
  <g transform="translate(700.000,-602.229)">
    <g stroke="#2E7D32" stroke-width="0.4">
      <line x1="195.029" y1="1629.414" x2="145.029" y2="1629.414"/>
      <line x1="195.029" y1="1630.414" x2="145.029" y2="1630.414"/>
      <line x1="195.029" y1="1631.414" x2="145.029" y2="1631.414"/>
      <line x1="195.029" y1="1632.414" x2="145.029" y2="1632.414"/>
      <line x1="195.029" y1="1633.414" x2="145.029" y2="1633.414"/>
      <line x1="195.029" y1="1634.414" x2="145.029" y2="1634.414"/>
      <line x1="195.029" y1="1635.414" x2="145.029" y2="1635.414"/>
      <line x1="195.029" y1="1636.414" x2="145.029" y2="1636.414"/>
      <line x1="195.029" y1="1637.414" x2="145.029" y2="1637.414"/>
      <line x1="195.029" y1="1638.414" x2="145.029" y2="1638.414"/>
      <line x1="195.029" y1="1639.414" x2="145.029" y2="1639.414"/>
      <line x1="195.029" y1="1640.414" x2="145.029" y2="1640.414"/>
      <line x1="195.029" y1="1641.414" x2="145.029" y2="1641.414"/>
      <line x1="195.029" y1="1642.414" x2="145.029" y2="1642.414"/>
      <line x1="195.029" y1="1643.414" x2="145.029" y2="1643.414"/>
      <line x1="195.029" y1="1644.414" x2="145.029" y2="1644.414"/>
      <line x1="195.029" y1="1645.414" x2="145.029" y2="1645.414"/>
      <line x1="195.029" y1="1646.414" x2="145.029" y2="1646.414"/>
      <line x1="195.029" y1="1647.414" x2="145.029" y2="1647.414"/>
      <line x1="195.029" y1="1648.414" x2="145.029" y2="1648.414"/>
      <line x1="195.029" y1="1649.414" x2="145.029" y2="1649.414"/>
      <line x1="195.029" y1="1650.414" x2="145.029" y2="1650.414"/>
      <line x1="195.029" y1="1651.414" x2="145.029" y2="1651.414"/>
      <line x1="195.029" y1="1652.414" x2="145.029" y2="1652.414"/>
      <line x1="195.029" y1="1653.414" x2="145.029" y2="1653.414"/>
      <line x1="195.029" y1="1654.414" x2="145.029" y2="1654.414"/>
      <line x1="195.029" y1="1655.414" x2="145.029" y2="1655.414"/>
      <line x1="195.029" y1="1656.414" x2="145.029" y2="1656.414"/>
      <line x1="195.029" y1="1657.414" x2="145.029" y2="1657.414"/>
      <line x1="195.029" y1="1658.414" x2="145.029" y2="1658.414"/>
      <line x1="195.029" y1="1659.414" x2="145.029" y2="1659.414"/>
      <line x1="195.029" y1="1660.414" x2="145.029" y2="1660.414"/>
      <line x1="195.029" y1="1661.414" x2="145.029" y2="1661.414"/>
      <line x1="195.029" y1="1662.414" x2="145.029" y2="1662.414"/>
      <line x1="195.029" y1="1663.414" x2="145.029" y2="1663.414"/>
      <line x1="195.029" y1="1664.414" x2="145.029" y2="1664.414"/>
      <line x1="195.029" y1="1665.414" x2="145.029" y2="1665.414"/>
      <line x1="195.029" y1="1666.414" x2="145.029" y2="1666.414"/>
      <line x1="195.029" y1="1667.414" x2="145.029" y2="1667.414"/>
      <line x1="195.029" y1="1668.414" x2="145.029" y2="1668.414"/>
      <line x1="195.029" y1="1669.414" x2="145.029" y2="1669.414"/>
      <line x1="195.029" y1="1670.414" x2="145.029" y2="1670.414"/>
      <line x1="195.029" y1="1671.414" x2="145.029" y2="1671.414"/>
      <line x1="195.029" y1="1672.414" x2="145.029" y2="1672.414"/>
      <line x1="195.029" y1="1673.414" x2="145.029" y2="1673.414"/>
      <line x1="195.029" y1="1674.414" x2="145.029" y2="1674.414"/>
      <line x1="195.029" y1="1675.414" x2="145.029" y2="1675.414"/>
      <line x1="195.029" y1="1676.414" x2="145.029" y2="1676.414"/>
      <line x1="195.029" y1="1677.414" x2="145.029" y2="1677.414"/>
      <line x1="195.029" y1="1678.414" x2="145.029" y2="1678.414"/>
      <line x1="245.129" y1="1629.414" x2="195.129" y2="1629.414"/>
      <line x1="245.129" y1="1630.414" x2="195.129" y2="1630.414"/>
      <line x1="245.129" y1="1631.414" x2="195.129" y2="1631.414"/>
      <line x1="245.129" y1="1632.414" x2="195.129" y2="1632.414"/>
      <line x1="245.129" y1="1633.414" x2="195.129" y2="1633.414"/>
      <line x1="245.129" y1="1634.414" x2="195.129" y2="1634.414"/>
      <line x1="245.129" y1="1635.414" x2="195.129" y2="1635.414"/>
      <line x1="245.129" y1="1636.414" x2="195.129" y2="1636.414"/>
      <line x1="245.129" y1="1637.414" x2="195.129" y2="1637.414"/>
      <line x1="245.129" y1="1638.414" x2="195.129" y2="1638.414"/>
      <line x1="245.129" y1="1639.414" x2="195.129" y2="1639.414"/>
      <line x1="245.129" y1="1640.414" x2="195.129" y2="1640.414"/>
      <line x1="245.129" y1="1641.414" x2="195.129" y2="1641.414"/>
      <line x1="245.129" y1="1642.414" x2="195.129" y2="1642.414"/>
      <line x1="245.129" y1="1643.414" x2="195.129" y2="1643.414"/>
      <line x1="245.129" y1="1644.414" x2="195.129" y2="1644.414"/>
      <line x1="245.129" y1="1645.414" x2="195.129" y2="1645.414"/>
      <line x1="245.129" y1="1646.414" x2="195.129" y2="1646.414"/>
      <line x1="245.129" y1="1647.414" x2="195.129" y2="1647.414"/>
      <line x1="245.129" y1="1648.414" x2="195.129" y2="1648.414"/>
      <line x1="245.129" y1="1649.414" x2="195.129" y2="1649.414"/>
      <line x1="245.129" y1="1650.414" x2="195.129" y2="1650.414"/>
      <line x1="245.129" y1="1651.414" x2="195.129" y2="1651.414"/>
      <line x1="245.129" y1="1652.414" x2="195.129" y2="1652.414"/>
      <line x1="245.129" y1="1653.414" x2="195.129" y2="1653.414"/>
      <line x1="245.129" y1="1654.414" x2="195.129" y2="1654.414"/>
      <line x1="245.129" y1="1655.414" x2="195.129" y2="1655.414"/>
      <line x1="245.129" y1="1656.414" x2="195.129" y2="1656.414"/>
      <line x1="245.129" y1="1657.414" x2="195.129" y2="1657.414"/>
      <line x1="245.129" y1="1658.414" x2="195.129" y2="1658.414"/>
      <line x1="245.129" y1="1659.414" x2="195.129" y2="1659.414"/>
      <line x1="245.129" y1="1660.414" x2="195.129" y2="1660.414"/>
      <line x1="245.129" y1="1661.414" x2="195.129" y2="1661.414"/>
      <line x1="245.129" y1="1662.414" x2="195.129" y2="1662.414"/>
      <line x1="245.129" y1="1663.414" x2="195.129" y2="1663.414"/>
      <line x1="245.129" y1="1664.414" x2="195.129" y2="1664.414"/>
      <line x1="245.129" y1="1665.414" x2="195.129" y2="1665.414"/>
      <line x1="245.129" y1="1666.414" x2="195.129" y2="1666.414"/>
      <line x1="245.129" y1="1667.414" x2="195.129" y2="1667.414"/>
      <line x1="245.129" y1="1668.414" x2="195.129" y2="1668.414"/>
      <line x1="245.129" y1="1669.414" x2="195.129" y2="1669.414"/>
      <line x1="245.129" y1="1670.414" x2="195.129" y2="1670.414"/>
      <line x1="245.129" y1="1671.414" x2="195.129" y2="1671.414"/>
      <line x1="245.129" y1="1672.414" x2="195.129" y2="1672.414"/>
      <line x1="245.129" y1="1673.414" x2="195.129" y2="1673.414"/>
      <line x1="245.129" y1="1674.414" x2="195.129" y2="1674.414"/>
      <line x1="245.129" y1="1675.414" x2="195.129" y2="1675.414"/>
      <line x1="245.129" y1="1676.414" x2="195.129" y2="1676.414"/>
      <line x1="245.129" y1="1677.414" x2="195.129" y2="1677.414"/>
      <line x1="245.129" y1="1678.414" x2="195.129" y2="1678.414"/>
      <line x1="295.229" y1="1629.414" x2="245.229" y2="1629.414"/>
      <line x1="295.229" y1="1630.414" x2="245.229" y2="1630.414"/>
      <line x1="295.229" y1="1631.414" x2="245.229" y2="1631.414"/>
      <line x1="295.229" y1="1632.414" x2="245.229" y2="1632.414"/>
      <line x1="295.229" y1="1633.414" x2="245.229" y2="1633.414"/>
      <line x1="295.229" y1="1634.414" x2="245.229" y2="1634.414"/>
      <line x1="295.229" y1="1635.414" x2="245.229" y2="1635.414"/>
      <line x1="295.229" y1="1636.414" x2="245.229" y2="1636.414"/>
      <line x1="295.229" y1="1637.414" x2="245.229" y2="1637.414"/>
      <line x1="295.229" y1="1638.414" x2="245.229" y2="1638.414"/>
      <line x1="295.229" y1="1639.414" x2="245.229" y2="1639.414"/>
      <line x1="295.229" y1="1640.414" x2="245.229" y2="1640.414"/>
      <line x1="295.229" y1="1641.414" x2="245.229" y2="1641.414"/>
      <line x1="295.229" y1="1642.414" x2="245.229" y2="1642.414"/>
      <line x1="295.229" y1="1643.414" x2="245.229" y2="1643.414"/>
      <line x1="295.229" y1="1644.414" x2="245.229" y2="1644.414"/>
      <line x1="295.229" y1="1645.414" x2="245.229" y2="1645.414"/>
      <line x1="295.229" y1="1646.414" x2="245.229" y2="1646.414"/>
      <line x1="295.229" y1="1647.414" x2="245.229" y2="1647.414"/>
      <line x1="295.229" y1="1648.414" x2="245.229" y2="1648.414"/>
      <line x1="295.229" y1="1649.414" x2="245.229" y2="1649.414"/>
      <line x1="295.229" y1="1650.414" x2="245.229" y2="1650.414"/>
      <line x1="295.229" y1="1651.414" x2="245.229" y2="1651.414"/>
      <line x1="295.229" y1="1652.414" x2="245.229" y2="1652.414"/>
      <line x1="295.229" y1="1653.414" x2="245.229" y2="1653.414"/>
      <line x1="295.229" y1="1654.414" x2="245.229" y2="1654.414"/>
      <line x1="295.229" y1="1655.414" x2="245.229" y2="1655.414"/>
      <line x1="295.229" y1="1656.414" x2="245.229" y2="1656.414"/>
      <line x1="295.229" y1="1657.414" x2="245.229" y2="1657.414"/>
      <line x1="295.229" y1="1658.414" x2="245.229" y2="1658.414"/>
      <line x1="295.229" y1="1659.414" x2="245.229" y2="1659.414"/>
      <line x1="295.229" y1="1660.414" x2="245.229" y2="1660.414"/>
      <line x1="295.229" y1="1661.414" x2="245.229" y2="1661.414"/>
      <line x1="295.229" y1="1662.414" x2="245.229" y2="1662.414"/>
      <line x1="295.229" y1="1663.414" x2="245.229" y2="1663.414"/>
      <line x1="295.229" y1="1664.414" x2="245.229" y2="1664.414"/>
      <line x1="295.229" y1="1665.414" x2="245.229" y2="1665.414"/>
      <line x1="295.229" y1="1666.414" x2="245.229" y2="1666.414"/>
      <line x1="295.229" y1="1667.414" x2="245.229" y2="1667.414"/>
      <line x1="295.229" y1="1668.414" x2="245.229" y2="1668.414"/>
      <line x1="295.229" y1="1669.414" x2="245.229" y2="1669.414"/>
      <line x1="295.229" y1="1670.414" x2="245.229" y2="1670.414"/>
      <line x1="295.229" y1="1671.414" x2="245.229" y2="1671.414"/>
      <line x1="295.229" y1="1672.414" x2="245.229" y2="1672.414"/>
      <line x1="295.229" y1="1673.414" x2="245.229" y2="1673.414"/>
      <line x1="295.229" y1="1674.414" x2="245.229" y2="1674.414"/>
      <line x1="295.229" y1="1675.414" x2="245.229" y2="1675.414"/>
      <line x1="295.229" y1="1676.414" x2="245.229" y2="1676.414"/>
      <line x1="295.229" y1="1677.414" x2="245.229" y2="1677.414"/>
      <line x1="295.229" y1="1678.414" x2="245.229" y2="1678.414"/>
      <line x1="345.329" y1="1629.414" x2="295.329" y2="1629.414"/>
      <line x1="345.329" y1="1630.414" x2="295.329" y2="1630.414"/>
      <line x1="345.329" y1="1631.414" x2="295.329" y2="1631.414"/>
      <line x1="345.329" y1="1632.414" x2="295.329" y2="1632.414"/>
      <line x1="345.329" y1="1633.414" x2="295.329" y2="1633.414"/>
      <line x1="345.329" y1="1634.414" x2="295.329" y2="1634.414"/>
      <line x1="345.329" y1="1635.414" x2="295.329" y2="1635.414"/>
      <line x1="345.329" y1="1636.414" x2="295.329" y2="1636.414"/>
      <line x1="345.329" y1="1637.414" x2="295.329" y2="1637.414"/>
      <line x1="345.329" y1="1638.414" x2="295.329" y2="1638.414"/>
      <line x1="345.329" y1="1639.414" x2="295.329" y2="1639.414"/>
      <line x1="345.329" y1="1640.414" x2="295.329" y2="1640.414"/>
      <line x1="345.329" y1="1641.414" x2="295.329" y2="1641.414"/>
      <line x1="345.329" y1="1642.414" x2="295.329" y2="1642.414"/>
      <line x1="345.329" y1="1643.414" x2="295.329" y2="1643.414"/>
      <line x1="345.329" y1="1644.414" x2="295.329" y2="1644.414"/>
      <line x1="345.329" y1="1645.414" x2="295.329" y2="1645.414"/>
      <line x1="345.329" y1="1646.414" x2="295.329" y2="1646.414"/>
      <line x1="345.329" y1="1647.414" x2="295.329" y2="1647.414"/>
      <line x1="345.329" y1="1648.414" x2="295.329" y2="1648.414"/>
      <line x1="345.329" y1="1649.414" x2="295.329" y2="1649.414"/>
      <line x1="345.329" y1="1650.414" x2="295.329" y2="1650.414"/>
      <line x1="345.329" y1="1651.414" x2="295.329" y2="1651.414"/>
      <line x1="345.329" y1="1652.414" x2="295.329" y2="1652.414"/>
      <line x1="345.329" y1="1653.414" x2="295.329" y2="1653.414"/>
      <line x1="345.329" y1="1654.414" x2="295.329" y2="1654.414"/>
      <line x1="345.329" y1="1655.414" x2="295.329" y2="1655.414"/>
      <line x1="345.329" y1="1656.414" x2="295.329" y2="1656.414"/>
      <line x1="345.329" y1="1657.414" x2="295.329" y2="1657.414"/>
      <line x1="345.329" y1="1658.414" x2="295.329" y2="1658.414"/>
      <line x1="345.329" y1="1659.414" x2="295.329" y2="1659.414"/>
      <line x1="345.329" y1="1660.414" x2="295.329" y2="1660.414"/>
      <line x1="345.329" y1="1661.414" x2="295.329" y2="1661.414"/>
      <line x1="345.329" y1="1662.414" x2="295.329" y2="1662.414"/>
      <line x1="345.329" y1="1663.414" x2="295.329" y2="1663.414"/>
      <line x1="345.329" y1="1664.414" x2="295.329" y2="1664.414"/>
      <line x1="345.329" y1="1665.414" x2="295.329" y2="1665.414"/>
      <line x1="345.329" y1="1666.414" x2="295.329" y2="1666.414"/>
      <line x1="345.329" y1="1667.414" x2="295.329" y2="1667.414"/>
      <line x1="345.329" y1="1668.414" x2="295.329" y2="1668.414"/>
      <line x1="345.329" y1="1669.414" x2="295.329" y2="1669.414"/>
      <line x1="345.329" y1="1670.414" x2="295.329" y2="1670.414"/>
      <line x1="345.329" y1="1671.414" x2="295.329" y2="1671.414"/>
      <line x1="345.329" y1="1672.414" x2="295.329" y2="1672.414"/>
      <line x1="345.329" y1="1673.414" x2="295.329" y2="1673.414"/>
      <line x1="345.329" y1="1674.414" x2="295.329" y2="1674.414"/>
      <line x1="345.329" y1="1675.414" x2="295.329" y2="1675.414"/>
      <line x1="345.329" y1="1676.414" x2="295.329" y2="1676.414"/>
      <line x1="345.329" y1="1677.414" x2="295.329" y2="1677.414"/>
      <line x1="345.329" y1="1678.414" x2="295.329" y2="1678.414"/>
      <line x1="395.429" y1="1629.414" x2="345.429" y2="1629.414"/>
      <line x1="395.429" y1="1630.414" x2="345.429" y2="1630.414"/>
      <line x1="395.429" y1="1631.414" x2="345.429" y2="1631.414"/>
      <line x1="395.429" y1="1632.414" x2="345.429" y2="1632.414"/>
      <line x1="395.429" y1="1633.414" x2="345.429" y2="1633.414"/>
      <line x1="395.429" y1="1634.414" x2="345.429" y2="1634.414"/>
      <line x1="395.429" y1="1635.414" x2="345.429" y2="1635.414"/>
      <line x1="395.429" y1="1636.414" x2="345.429" y2="1636.414"/>
      <line x1="395.429" y1="1637.414" x2="345.429" y2="1637.414"/>
      <line x1="395.429" y1="1638.414" x2="345.429" y2="1638.414"/>
      <line x1="395.429" y1="1639.414" x2="345.429" y2="1639.414"/>
      <line x1="395.429" y1="1640.414" x2="345.429" y2="1640.414"/>
      <line x1="395.429" y1="1641.414" x2="345.429" y2="1641.414"/>
      <line x1="395.429" y1="1642.414" x2="345.429" y2="1642.414"/>
      <line x1="395.429" y1="1643.414" x2="345.429" y2="1643.414"/>
      <line x1="395.429" y1="1644.414" x2="345.429" y2="1644.414"/>
      <line x1="395.429" y1="1645.414" x2="345.429" y2="1645.414"/>
      <line x1="395.429" y1="1646.414" x2="345.429" y2="1646.414"/>
      <line x1="395.429" y1="1647.414" x2="345.429" y2="1647.414"/>
      <line x1="395.429" y1="1648.414" x2="345.429" y2="1648.414"/>
      <line x1="395.429" y1="1649.414" x2="345.429" y2="1649.414"/>
      <line x1="395.429" y1="1650.414" x2="345.429" y2="1650.414"/>
      <line x1="395.429" y1="1651.414" x2="345.429" y2="1651.414"/>
      <line x1="395.429" y1="1652.414" x2="345.429" y2="1652.414"/>
      <line x1="395.429" y1="1653.414" x2="345.429" y2="1653.414"/>
      <line x1="395.429" y1="1654.414" x2="345.429" y2="1654.414"/>
      <line x1="395.429" y1="1655.414" x2="345.429" y2="1655.414"/>
      <line x1="395.429" y1="1656.414" x2="345.429" y2="1656.414"/>
      <line x1="395.429" y1="1657.414" x2="345.429" y2="1657.414"/>
      <line x1="395.429" y1="1658.414" x2="345.429" y2="1658.414"/>
      <line x1="395.429" y1="1659.414" x2="345.429" y2="1659.414"/>
      <line x1="395.429" y1="1660.414" x2="345.429" y2="1660.414"/>
      <line x1="395.429" y1="1661.414" x2="345.429" y2="1661.414"/>
      <line x1="395.429" y1="1662.414" x2="345.429" y2="1662.414"/>
      <line x1="395.429" y1="1663.414" x2="345.429" y2="1663.414"/>
      <line x1="395.429" y1="1664.414" x2="345.429" y2="1664.414"/>
      <line x1="395.429" y1="1665.414" x2="345.429" y2="1665.414"/>
      <line x1="395.429" y1="1666.414" x2="345.429" y2="1666.414"/>
      <line x1="395.429" y1="1667.414" x2="345.429" y2="1667.414"/>
      <line x1="395.429" y1="1668.414" x2="345.429" y2="1668.414"/>
      <line x1="395.429" y1="1669.414" x2="345.429" y2="1669.414"/>
      <line x1="395.429" y1="1670.414" x2="345.429" y2="1670.414"/>
      <line x1="395.429" y1="1671.414" x2="345.429" y2="1671.414"/>
      <line x1="395.429" y1="1672.414" x2="345.429" y2="1672.414"/>
      <line x1="395.429" y1="1673.414" x2="345.429" y2="1673.414"/>
      <line x1="395.429" y1="1674.414" x2="345.429" y2="1674.414"/>
      <line x1="395.429" y1="1675.414" x2="345.429" y2="1675.414"/>
      <line x1="395.429" y1="1676.414" x2="345.429" y2="1676.414"/>
      <line x1="395.429" y1="1677.414" x2="345.429" y2="1677.414"/>
      <line x1="395.429" y1="1678.414" x2="345.429" y2="1678.414"/>
      <line x1="445.529" y1="1629.414" x2="395.529" y2="1629.414"/>
      <line x1="445.529" y1="1630.414" x2="395.529" y2="1630.414"/>
      <line x1="445.529" y1="1631.414" x2="395.529" y2="1631.414"/>
      <line x1="445.529" y1="1632.414" x2="395.529" y2="1632.414"/>
      <line x1="445.529" y1="1633.414" x2="395.529" y2="1633.414"/>
      <line x1="445.529" y1="1634.414" x2="395.529" y2="1634.414"/>
      <line x1="445.529" y1="1635.414" x2="395.529" y2="1635.414"/>
      <line x1="445.529" y1="1636.414" x2="395.529" y2="1636.414"/>
      <line x1="445.529" y1="1637.414" x2="395.529" y2="1637.414"/>
      <line x1="445.529" y1="1638.414" x2="395.529" y2="1638.414"/>
      <line x1="445.529" y1="1639.414" x2="395.529" y2="1639.414"/>
      <line x1="445.529" y1="1640.414" x2="395.529" y2="1640.414"/>
      <line x1="445.529" y1="1641.414" x2="395.529" y2="1641.414"/>
      <line x1="445.529" y1="1642.414" x2="395.529" y2="1642.414"/>
      <line x1="445.529" y1="1643.414" x2="395.529" y2="1643.414"/>
      <line x1="445.529" y1="1644.414" x2="395.529" y2="1644.414"/>
      <line x1="445.529" y1="1645.414" x2="395.529" y2="1645.414"/>
      <line x1="445.529" y1="1646.414" x2="395.529" y2="1646.414"/>
      <line x1="445.529" y1="1647.414" x2="395.529" y2="1647.414"/>
      <line x1="445.529" y1="1648.414" x2="395.529" y2="1648.414"/>
      <line x1="445.529" y1="1649.414" x2="395.529" y2="1649.414"/>
      <line x1="445.529" y1="1650.414" x2="395.529" y2="1650.414"/>
      <line x1="445.529" y1="1651.414" x2="395.529" y2="1651.414"/>
      <line x1="445.529" y1="1652.414" x2="395.529" y2="1652.414"/>
      <line x1="445.529" y1="1653.414" x2="395.529" y2="1653.414"/>
      <line x1="445.529" y1="1654.414" x2="395.529" y2="1654.414"/>
      <line x1="445.529" y1="1655.414" x2="395.529" y2="1655.414"/>
      <line x1="445.529" y1="1656.414" x2="395.529" y2="1656.414"/>
      <line x1="445.529" y1="1657.414" x2="395.529" y2="1657.414"/>
      <line x1="445.529" y1="1658.414" x2="395.529" y2="1658.414"/>
      <line x1="445.529" y1="1659.414" x2="395.529" y2="1659.414"/>
      <line x1="445.529" y1="1660.414" x2="395.529" y2="1660.414"/>
      <line x1="445.529" y1="1661.414" x2="395.529" y2="1661.414"/>
      <line x1="445.529" y1="1662.414" x2="395.529" y2="1662.414"/>
      <line x1="445.529" y1="1663.414" x2="395.529" y2="1663.414"/>
      <line x1="445.529" y1="1664.414" x2="395.529" y2="1664.414"/>
      <line x1="445.529" y1="1665.414" x2="395.529" y2="1665.414"/>
      <line x1="445.529" y1="1666.414" x2="395.529" y2="1666.414"/>
      <line x1="445.529" y1="1667.414" x2="395.529" y2="1667.414"/>
      <line x1="445.529" y1="1668.414" x2="395.529" y2="1668.414"/>
      <line x1="445.529" y1="1669.414" x2="395.529" y2="1669.414"/>
      <line x1="445.529" y1="1670.414" x2="395.529" y2="1670.414"/>
      <line x1="445.529" y1="1671.414" x2="395.529" y2="1671.414"/>
      <line x1="445.529" y1="1672.414" x2="395.529" y2="1672.414"/>
      <line x1="445.529" y1="1673.414" x2="395.529" y2="1673.414"/>
      <line x1="445.529" y1="1674.414" x2="395.529" y2="1674.414"/>
      <line x1="445.529" y1="1675.414" x2="395.529" y2="1675.414"/>
      <line x1="445.529" y1="1676.414" x2="395.529" y2="1676.414"/>
      <line x1="445.529" y1="1677.414" x2="395.529" y2="1677.414"/>
      <line x1="445.529" y1="1678.414" x2="395.529" y2="1678.414"/>
      <line x1="454.971" y1="1629.414" x2="445.629" y2="1629.414"/>
      <line x1="454.971" y1="1630.414" x2="445.629" y2="1630.414"/>
      <line x1="454.971" y1="1631.414" x2="445.629" y2="1631.414"/>
      <line x1="454.971" y1="1632.414" x2="445.629" y2="1632.414"/>
      <line x1="454.971" y1="1633.414" x2="445.629" y2="1633.414"/>
      <line x1="454.971" y1="1634.414" x2="445.629" y2="1634.414"/>
      <line x1="454.971" y1="1635.414" x2="445.629" y2="1635.414"/>
      <line x1="454.971" y1="1636.414" x2="445.629" y2="1636.414"/>
      <line x1="454.971" y1="1637.414" x2="445.629" y2="1637.414"/>
      <line x1="454.971" y1="1638.414" x2="445.629" y2="1638.414"/>
      <line x1="454.971" y1="1639.414" x2="445.629" y2="1639.414"/>
      <line x1="454.971" y1="1640.414" x2="445.629" y2="1640.414"/>
      <line x1="454.971" y1="1641.414" x2="445.629" y2="1641.414"/>
      <line x1="454.971" y1="1642.414" x2="445.629" y2="1642.414"/>
      <line x1="454.971" y1="1643.414" x2="445.629" y2="1643.414"/>
      <line x1="454.971" y1="1644.414" x2="445.629" y2="1644.414"/>
      <line x1="454.971" y1="1645.414" x2="445.629" y2="1645.414"/>
      <line x1="454.971" y1="1646.414" x2="445.629" y2="1646.414"/>
      <line x1="454.971" y1="1647.414" x2="445.629" y2="1647.414"/>
      <line x1="454.971" y1="1648.414" x2="445.629" y2="1648.414"/>
      <line x1="454.971" y1="1649.414" x2="445.629" y2="1649.414"/>
      <line x1="454.971" y1="1650.414" x2="445.629" y2="1650.414"/>
      <line x1="454.971" y1="1651.414" x2="445.629" y2="1651.414"/>
      <line x1="454.971" y1="1652.414" x2="445.629" y2="1652.414"/>
      <line x1="454.971" y1="1653.414" x2="445.629" y2="1653.414"/>
      <line x1="454.971" y1="1654.414" x2="445.629" y2="1654.414"/>
      <line x1="454.971" y1="1655.414" x2="445.629" y2="1655.414"/>
      <line x1="454.971" y1="1656.414" x2="445.629" y2="1656.414"/>
      <line x1="454.971" y1="1657.414" x2="445.629" y2="1657.414"/>
      <line x1="454.971" y1="1658.414" x2="445.629" y2="1658.414"/>
      <line x1="454.971" y1="1659.414" x2="445.629" y2="1659.414"/>
      <line x1="454.971" y1="1660.414" x2="445.629" y2="1660.414"/>
      <line x1="454.971" y1="1661.414" x2="445.629" y2="1661.414"/>
      <line x1="454.971" y1="1662.414" x2="445.629" y2="1662.414"/>
      <line x1="454.971" y1="1663.414" x2="445.629" y2="1663.414"/>
      <line x1="454.971" y1="1664.414" x2="445.629" y2="1664.414"/>
      <line x1="454.971" y1="1665.414" x2="445.629" y2="1665.414"/>
      <line x1="454.971" y1="1666.414" x2="445.629" y2="1666.414"/>
      <line x1="454.971" y1="1667.414" x2="445.629" y2="1667.414"/>
      <line x1="454.971" y1="1668.414" x2="445.629" y2="1668.414"/>
      <line x1="454.971" y1="1669.414" x2="445.629" y2="1669.414"/>
      <line x1="454.971" y1="1670.414" x2="445.629" y2="1670.414"/>
      <line x1="454.971" y1="1671.414" x2="445.629" y2="1671.414"/>
      <line x1="454.971" y1="1672.414" x2="445.629" y2="1672.414"/>
      <line x1="454.971" y1="1673.414" x2="445.629" y2="1673.414"/>
      <line x1="454.971" y1="1674.414" x2="445.629" y2="1674.414"/>
      <line x1="454.971" y1="1675.414" x2="445.629" y2="1675.414"/>
      <line x1="454.971" y1="1676.414" x2="445.629" y2="1676.414"/>
      <line x1="454.971" y1="1677.414" x2="445.629" y2="1677.414"/>
      <line x1="454.971" y1="1678.414" x2="445.629" y2="1678.414"/>
      <line x1="195.029" y1="1579.414" x2="145.029" y2="1579.414"/>
      <line x1="195.029" y1="1580.414" x2="145.029" y2="1580.414"/>
      <line x1="195.029" y1="1581.414" x2="145.029" y2="1581.414"/>
      <line x1="195.029" y1="1582.414" x2="145.029" y2="1582.414"/>
      <line x1="195.029" y1="1583.414" x2="145.029" y2="1583.414"/>
      <line x1="195.029" y1="1584.414" x2="145.029" y2="1584.414"/>
      <line x1="195.029" y1="1585.414" x2="145.029" y2="1585.414"/>
      <line x1="195.029" y1="1586.414" x2="145.029" y2="1586.414"/>
      <line x1="195.029" y1="1587.414" x2="145.029" y2="1587.414"/>
      <line x1="195.029" y1="1588.414" x2="145.029" y2="1588.414"/>
      <line x1="195.029" y1="1589.414" x2="145.029" y2="1589.414"/>
      <line x1="195.029" y1="1590.414" x2="145.029" y2="1590.414"/>
      <line x1="195.029" y1="1591.414" x2="145.029" y2="1591.414"/>
      <line x1="195.029" y1="1592.414" x2="145.029" y2="1592.414"/>
      <line x1="195.029" y1="1593.414" x2="145.029" y2="1593.414"/>
      <line x1="195.029" y1="1594.414" x2="145.029" y2="1594.414"/>
      <line x1="195.029" y1="1595.414" x2="145.029" y2="1595.414"/>
      <line x1="195.029" y1="1596.414" x2="145.029" y2="1596.414"/>
      <line x1="195.029" y1="1597.414" x2="145.029" y2="1597.414"/>
      <line x1="195.029" y1="1598.414" x2="145.029" y2="1598.414"/>
      <line x1="195.029" y1="1599.414" x2="145.029" y2="1599.414"/>
      <line x1="195.029" y1="1600.414" x2="145.029" y2="1600.414"/>
      <line x1="195.029" y1="1601.414" x2="145.029" y2="1601.414"/>
      <line x1="195.029" y1="1602.414" x2="145.029" y2="1602.414"/>
      <line x1="195.029" y1="1603.414" x2="145.029" y2="1603.414"/>
      <line x1="195.029" y1="1604.414" x2="145.029" y2="1604.414"/>
      <line x1="195.029" y1="1605.414" x2="145.029" y2="1605.414"/>
      <line x1="195.029" y1="1606.414" x2="145.029" y2="1606.414"/>
      <line x1="195.029" y1="1607.414" x2="145.029" y2="1607.414"/>
      <line x1="195.029" y1="1608.414" x2="145.029" y2="1608.414"/>
      <line x1="195.029" y1="1609.414" x2="145.029" y2="1609.414"/>
      <line x1="195.029" y1="1610.414" x2="145.029" y2="1610.414"/>
      <line x1="195.029" y1="1611.414" x2="145.029" y2="1611.414"/>
      <line x1="195.029" y1="1612.414" x2="145.029" y2="1612.414"/>
      <line x1="195.029" y1="1613.414" x2="145.029" y2="1613.414"/>
      <line x1="195.029" y1="1614.414" x2="145.029" y2="1614.414"/>
      <line x1="195.029" y1="1615.414" x2="145.029" y2="1615.414"/>
      <line x1="195.029" y1="1616.414" x2="145.029" y2="1616.414"/>
      <line x1="195.029" y1="1617.414" x2="145.029" y2="1617.414"/>
      <line x1="195.029" y1="1618.414" x2="145.029" y2="1618.414"/>
      <line x1="195.029" y1="1619.414" x2="145.029" y2="1619.414"/>
      <line x1="195.029" y1="1620.414" x2="145.029" y2="1620.414"/>
      <line x1="195.029" y1="1621.414" x2="145.029" y2="1621.414"/>
      <line x1="195.029" y1="1622.414" x2="145.029" y2="1622.414"/>
      <line x1="195.029" y1="1623.414" x2="145.029" y2="1623.414"/>
      <line x1="195.029" y1="1624.414" x2="145.029" y2="1624.414"/>
      <line x1="195.029" y1="1625.414" x2="145.029" y2="1625.414"/>
      <line x1="195.029" y1="1626.414" x2="145.029" y2="1626.414"/>
      <line x1="195.029" y1="1627.414" x2="145.029" y2="1627.414"/>
      <line x1="195.029" y1="1628.414" x2="145.029" y2="1628.414"/>
      <line x1="245.129" y1="1579.414" x2="195.129" y2="1579.414"/>
      <line x1="245.129" y1="1580.414" x2="195.129" y2="1580.414"/>
      <line x1="245.129" y1="1581.414" x2="195.129" y2="1581.414"/>
      <line x1="245.129" y1="1582.414" x2="195.129" y2="1582.414"/>
      <line x1="245.129" y1="1583.414" x2="195.129" y2="1583.414"/>
      <line x1="245.129" y1="1584.414" x2="195.129" y2="1584.414"/>
      <line x1="245.129" y1="1585.414" x2="195.129" y2="1585.414"/>
      <line x1="245.129" y1="1586.414" x2="195.129" y2="1586.414"/>
      <line x1="245.129" y1="1587.414" x2="195.129" y2="1587.414"/>
      <line x1="245.129" y1="1588.414" x2="195.129" y2="1588.414"/>
      <line x1="245.129" y1="1589.414" x2="195.129" y2="1589.414"/>
      <line x1="245.129" y1="1590.414" x2="195.129" y2="1590.414"/>
      <line x1="245.129" y1="1591.414" x2="195.129" y2="1591.414"/>
      <line x1="245.129" y1="1592.414" x2="195.129" y2="1592.414"/>
      <line x1="245.129" y1="1593.414" x2="195.129" y2="1593.414"/>
      <line x1="245.129" y1="1594.414" x2="195.129" y2="1594.414"/>
      <line x1="245.129" y1="1595.414" x2="195.129" y2="1595.414"/>
      <line x1="245.129" y1="1596.414" x2="195.129" y2="1596.414"/>
      <line x1="245.129" y1="1597.414" x2="195.129" y2="1597.414"/>
      <line x1="245.129" y1="1598.414" x2="195.129" y2="1598.414"/>
      <line x1="245.129" y1="1599.414" x2="195.129" y2="1599.414"/>
      <line x1="245.129" y1="1600.414" x2="195.129" y2="1600.414"/>
      <line x1="245.129" y1="1601.414" x2="195.129" y2="1601.414"/>
      <line x1="245.129" y1="1602.414" x2="195.129" y2="1602.414"/>
      <line x1="245.129" y1="1603.414" x2="195.129" y2="1603.414"/>
      <line x1="245.129" y1="1604.414" x2="195.129" y2="1604.414"/>
      <line x1="245.129" y1="1605.414" x2="195.129" y2="1605.414"/>
      <line x1="245.129" y1="1606.414" x2="195.129" y2="1606.414"/>
      <line x1="245.129" y1="1607.414" x2="195.129" y2="1607.414"/>
      <line x1="245.129" y1="1608.414" x2="195.129" y2="1608.414"/>
      <line x1="245.129" y1="1609.414" x2="195.129" y2="1609.414"/>
      <line x1="245.129" y1="1610.414" x2="195.129" y2="1610.414"/>
      <line x1="245.129" y1="1611.414" x2="195.129" y2="1611.414"/>
      <line x1="245.129" y1="1612.414" x2="195.129" y2="1612.414"/>
      <line x1="245.129" y1="1613.414" x2="195.129" y2="1613.414"/>
      <line x1="245.129" y1="1614.414" x2="195.129" y2="1614.414"/>
      <line x1="245.129" y1="1615.414" x2="195.129" y2="1615.414"/>
      <line x1="245.129" y1="1616.414" x2="195.129" y2="1616.414"/>
      <line x1="245.129" y1="1617.414" x2="195.129" y2="1617.414"/>
      <line x1="245.129" y1="1618.414" x2="195.129" y2="1618.414"/>
      <line x1="245.129" y1="1619.414" x2="195.129" y2="1619.414"/>
      <line x1="245.129" y1="1620.414" x2="195.129" y2="1620.414"/>
      <line x1="245.129" y1="1621.414" x2="195.129" y2="1621.414"/>
      <line x1="245.129" y1="1622.414" x2="195.129" y2="1622.414"/>
      <line x1="245.129" y1="1623.414" x2="195.129" y2="1623.414"/>
      <line x1="245.129" y1="1624.414" x2="195.129" y2="1624.414"/>
      <line x1="245.129" y1="1625.414" x2="195.129" y2="1625.414"/>
      <line x1="245.129" y1="1626.414" x2="195.129" y2="1626.414"/>
      <line x1="245.129" y1="1627.414" x2="195.129" y2="1627.414"/>
      <line x1="245.129" y1="1628.414" x2="195.129" y2="1628.414"/>
      <line x1="295.229" y1="1579.414" x2="245.229" y2="1579.414"/>
      <line x1="295.229" y1="1580.414" x2="245.229" y2="1580.414"/>
      <line x1="295.229" y1="1581.414" x2="245.229" y2="1581.414"/>
      <line x1="295.229" y1="1582.414" x2="245.229" y2="1582.414"/>
      <line x1="295.229" y1="1583.414" x2="245.229" y2="1583.414"/>
      <line x1="295.229" y1="1584.414" x2="245.229" y2="1584.414"/>
      <line x1="295.229" y1="1585.414" x2="245.229" y2="1585.414"/>
      <line x1="295.229" y1="1586.414" x2="245.229" y2="1586.414"/>
      <line x1="295.229" y1="1587.414" x2="245.229" y2="1587.414"/>
      <line x1="295.229" y1="1588.414" x2="245.229" y2="1588.414"/>
      <line x1="295.229" y1="1589.414" x2="245.229" y2="1589.414"/>
      <line x1="295.229" y1="1590.414" x2="245.229" y2="1590.414"/>
      <line x1="295.229" y1="1591.414" x2="245.229" y2="1591.414"/>
      <line x1="295.229" y1="1592.414" x2="245.229" y2="1592.414"/>
      <line x1="295.229" y1="1593.414" x2="245.229" y2="1593.414"/>
      <line x1="295.229" y1="1594.414" x2="245.229" y2="1594.414"/>
      <line x1="295.229" y1="1595.414" x2="245.229" y2="1595.414"/>
      <line x1="295.229" y1="1596.414" x2="245.229" y2="1596.414"/>
      <line x1="295.229" y1="1597.414" x2="245.229" y2="1597.414"/>
      <line x1="295.229" y1="1598.414" x2="245.229" y2="1598.414"/>
      <line x1="295.229" y1="1599.414" x2="245.229" y2="1599.414"/>
      <line x1="295.229" y1="1600.414" x2="245.229" y2="1600.414"/>
      <line x1="295.229" y1="1601.414" x2="245.229" y2="1601.414"/>
      <line x1="295.229" y1="1602.414" x2="245.229" y2="1602.414"/>
      <line x1="295.229" y1="1603.414" x2="245.229" y2="1603.414"/>
      <line x1="295.229" y1="1604.414" x2="245.229" y2="1604.414"/>
      <line x1="295.229" y1="1605.414" x2="245.229" y2="1605.414"/>
      <line x1="295.229" y1="1606.414" x2="245.229" y2="1606.414"/>
      <line x1="295.229" y1="1607.414" x2="245.229" y2="1607.414"/>
      <line x1="295.229" y1="1608.414" x2="245.229" y2="1608.414"/>
      <line x1="295.229" y1="1609.414" x2="245.229" y2="1609.414"/>
      <line x1="295.229" y1="1610.414" x2="245.229" y2="1610.414"/>
      <line x1="295.229" y1="1611.414" x2="245.229" y2="1611.414"/>
      <line x1="295.229" y1="1612.414" x2="245.229" y2="1612.414"/>
      <line x1="295.229" y1="1613.414" x2="245.229" y2="1613.414"/>
      <line x1="295.229" y1="1614.414" x2="245.229" y2="1614.414"/>
      <line x1="295.229" y1="1615.414" x2="245.229" y2="1615.414"/>
      <line x1="295.229" y1="1616.414" x2="245.229" y2="1616.414"/>
      <line x1="295.229" y1="1617.414" x2="245.229" y2="1617.414"/>
      <line x1="295.229" y1="1618.414" x2="245.229" y2="1618.414"/>
      <line x1="295.229" y1="1619.414" x2="245.229" y2="1619.414"/>
      <line x1="295.229" y1="1620.414" x2="245.229" y2="1620.414"/>
      <line x1="295.229" y1="1621.414" x2="245.229" y2="1621.414"/>
      <line x1="295.229" y1="1622.414" x2="245.229" y2="1622.414"/>
      <line x1="295.229" y1="1623.414" x2="245.229" y2="1623.414"/>
      <line x1="295.229" y1="1624.414" x2="245.229" y2="1624.414"/>
      <line x1="295.229" y1="1625.414" x2="245.229" y2="1625.414"/>
      <line x1="295.229" y1="1626.414" x2="245.229" y2="1626.414"/>
      <line x1="295.229" y1="1627.414" x2="245.229" y2="1627.414"/>
      <line x1="295.229" y1="1628.414" x2="245.229" y2="1628.414"/>
      <line x1="345.329" y1="1579.414" x2="295.329" y2="1579.414"/>
      <line x1="345.329" y1="1580.414" x2="295.329" y2="1580.414"/>
      <line x1="345.329" y1="1581.414" x2="295.329" y2="1581.414"/>
      <line x1="345.329" y1="1582.414" x2="295.329" y2="1582.414"/>
      <line x1="345.329" y1="1583.414" x2="295.329" y2="1583.414"/>
      <line x1="345.329" y1="1584.414" x2="295.329" y2="1584.414"/>
      <line x1="345.329" y1="1585.414" x2="295.329" y2="1585.414"/>
      <line x1="345.329" y1="1586.414" x2="295.329" y2="1586.414"/>
      <line x1="345.329" y1="1587.414" x2="295.329" y2="1587.414"/>
      <line x1="345.329" y1="1588.414" x2="295.329" y2="1588.414"/>
      <line x1="345.329" y1="1589.414" x2="295.329" y2="1589.414"/>
      <line x1="345.329" y1="1590.414" x2="295.329" y2="1590.414"/>
      <line x1="345.329" y1="1591.414" x2="295.329" y2="1591.414"/>
      <line x1="345.329" y1="1592.414" x2="295.329" y2="1592.414"/>
      <line x1="345.329" y1="1593.414" x2="295.329" y2="1593.414"/>
      <line x1="345.329" y1="1594.414" x2="295.329" y2="1594.414"/>
      <line x1="345.329" y1="1595.414" x2="295.329" y2="1595.414"/>
      <line x1="345.329" y1="1596.414" x2="295.329" y2="1596.414"/>
      <line x1="345.329" y1="1597.414" x2="295.329" y2="1597.414"/>
      <line x1="345.329" y1="1598.414" x2="295.329" y2="1598.414"/>
      <line x1="345.329" y1="1599.414" x2="295.329" y2="1599.414"/>
      <line x1="345.329" y1="1600.414" x2="295.329" y2="1600.414"/>
      <line x1="345.329" y1="1601.414" x2="295.329" y2="1601.414"/>
      <line x1="345.329" y1="1602.414" x2="295.329" y2="1602.414"/>
      <line x1="345.329" y1="1603.414" x2="295.329" y2="1603.414"/>
      <line x1="345.329" y1="1604.414" x2="295.329" y2="1604.414"/>
      <line x1="345.329" y1="1605.414" x2="295.329" y2="1605.414"/>
      <line x1="345.329" y1="1606.414" x2="295.329" y2="1606.414"/>
      <line x1="345.329" y1="1607.414" x2="295.329" y2="1607.414"/>
      <line x1="345.329" y1="1608.414" x2="295.329" y2="1608.414"/>
      <line x1="345.329" y1="1609.414" x2="295.329" y2="1609.414"/>
      <line x1="345.329" y1="1610.414" x2="295.329" y2="1610.414"/>
      <line x1="345.329" y1="1611.414" x2="295.329" y2="1611.414"/>
      <line x1="345.329" y1="1612.414" x2="295.329" y2="1612.414"/>
      <line x1="345.329" y1="1613.414" x2="295.329" y2="1613.414"/>
      <line x1="345.329" y1="1614.414" x2="295.329" y2="1614.414"/>
      <line x1="345.329" y1="1615.414" x2="295.329" y2="1615.414"/>
      <line x1="345.329" y1="1616.414" x2="295.329" y2="1616.414"/>
      <line x1="345.329" y1="1617.414" x2="295.329" y2="1617.414"/>
      <line x1="345.329" y1="1618.414" x2="295.329" y2="1618.414"/>
      <line x1="345.329" y1="1619.414" x2="295.329" y2="1619.414"/>
      <line x1="345.329" y1="1620.414" x2="295.329" y2="1620.414"/>
      <line x1="345.329" y1="1621.414" x2="295.329" y2="1621.414"/>
      <line x1="345.329" y1="1622.414" x2="295.329" y2="1622.414"/>
      <line x1="345.329" y1="1623.414" x2="295.329" y2="1623.414"/>
      <line x1="345.329" y1="1624.414" x2="295.329" y2="1624.414"/>
      <line x1="345.329" y1="1625.414" x2="295.329" y2="1625.414"/>
      <line x1="345.329" y1="1626.414" x2="295.329" y2="1626.414"/>
      <line x1="345.329" y1="1627.414" x2="295.329" y2="1627.414"/>
      <line x1="345.329" y1="1628.414" x2="295.329" y2="1628.414"/>
      <line x1="395.429" y1="1579.414" x2="345.429" y2="1579.414"/>
      <line x1="395.429" y1="1580.414" x2="345.429" y2="1580.414"/>
      <line x1="395.429" y1="1581.414" x2="345.429" y2="1581.414"/>
      <line x1="395.429" y1="1582.414" x2="345.429" y2="1582.414"/>
      <line x1="395.429" y1="1583.414" x2="345.429" y2="1583.414"/>
      <line x1="395.429" y1="1584.414" x2="345.429" y2="1584.414"/>
      <line x1="395.429" y1="1585.414" x2="345.429" y2="1585.414"/>
      <line x1="395.429" y1="1586.414" x2="345.429" y2="1586.414"/>
      <line x1="395.429" y1="1587.414" x2="345.429" y2="1587.414"/>
      <line x1="395.429" y1="1588.414" x2="345.429" y2="1588.414"/>
      <line x1="395.429" y1="1589.414" x2="345.429" y2="1589.414"/>
      <line x1="395.429" y1="1590.414" x2="345.429" y2="1590.414"/>
      <line x1="395.429" y1="1591.414" x2="345.429" y2="1591.414"/>
      <line x1="395.429" y1="1592.414" x2="345.429" y2="1592.414"/>
      <line x1="395.429" y1="1593.414" x2="345.429" y2="1593.414"/>
      <line x1="395.429" y1="1594.414" x2="345.429" y2="1594.414"/>
      <line x1="395.429" y1="1595.414" x2="345.429" y2="1595.414"/>
      <line x1="395.429" y1="1596.414" x2="345.429" y2="1596.414"/>
      <line x1="395.429" y1="1597.414" x2="345.429" y2="1597.414"/>
      <line x1="395.429" y1="1598.414" x2="345.429" y2="1598.414"/>
      <line x1="395.429" y1="1599.414" x2="345.429" y2="1599.414"/>
      <line x1="395.429" y1="1600.414" x2="345.429" y2="1600.414"/>
      <line x1="395.429" y1="1601.414" x2="345.429" y2="1601.414"/>
      <line x1="395.429" y1="1602.414" x2="345.429" y2="1602.414"/>
      <line x1="395.429" y1="1603.414" x2="345.429" y2="1603.414"/>
      <line x1="395.429" y1="1604.414" x2="345.429" y2="1604.414"/>
      <line x1="395.429" y1="1605.414" x2="345.429" y2="1605.414"/>
      <line x1="395.429" y1="1606.414" x2="345.429" y2="1606.414"/>
      <line x1="395.429" y1="1607.414" x2="345.429" y2="1607.414"/>
      <line x1="395.429" y1="1608.414" x2="345.429" y2="1608.414"/>
      <line x1="395.429" y1="1609.414" x2="345.429" y2="1609.414"/>
      <line x1="395.429" y1="1610.414" x2="345.429" y2="1610.414"/>
      <line x1="395.429" y1="1611.414" x2="345.429" y2="1611.414"/>
      <line x1="395.429" y1="1612.414" x2="345.429" y2="1612.414"/>
      <line x1="395.429" y1="1613.414" x2="345.429" y2="1613.414"/>
      <line x1="395.429" y1="1614.414" x2="345.429" y2="1614.414"/>
      <line x1="395.429" y1="1615.414" x2="345.429" y2="1615.414"/>
      <line x1="395.429" y1="1616.414" x2="345.429" y2="1616.414"/>
      <line x1="395.429" y1="1617.414" x2="345.429" y2="1617.414"/>
      <line x1="395.429" y1="1618.414" x2="345.429" y2="1618.414"/>
      <line x1="395.429" y1="1619.414" x2="345.429" y2="1619.414"/>
      <line x1="395.429" y1="1620.414" x2="345.429" y2="1620.414"/>
      <line x1="395.429" y1="1621.414" x2="345.429" y2="1621.414"/>
      <line x1="395.429" y1="1622.414" x2="345.429" y2="1622.414"/>
      <line x1="395.429" y1="1623.414" x2="345.429" y2="1623.414"/>
      <line x1="395.429" y1="1624.414" x2="345.429" y2="1624.414"/>
      <line x1="395.429" y1="1625.414" x2="345.429" y2="1625.414"/>
      <line x1="395.429" y1="1626.414" x2="345.429" y2="1626.414"/>
      <line x1="395.429" y1="1627.414" x2="345.429" y2="1627.414"/>
      <line x1="395.429" y1="1628.414" x2="345.429" y2="1628.414"/>
      <line x1="445.529" y1="1579.414" x2="395.529" y2="1579.414"/>
      <line x1="445.529" y1="1580.414" x2="395.529" y2="1580.414"/>
      <line x1="445.529" y1="1581.414" x2="395.529" y2="1581.414"/>
      <line x1="445.529" y1="1582.414" x2="395.529" y2="1582.414"/>
      <line x1="445.529" y1="1583.414" x2="395.529" y2="1583.414"/>
      <line x1="445.529" y1="1584.414" x2="395.529" y2="1584.414"/>
      <line x1="445.529" y1="1585.414" x2="395.529" y2="1585.414"/>
      <line x1="445.529" y1="1586.414" x2="395.529" y2="1586.414"/>
      <line x1="445.529" y1="1587.414" x2="395.529" y2="1587.414"/>
      <line x1="445.529" y1="1588.414" x2="395.529" y2="1588.414"/>
      <line x1="445.529" y1="1589.414" x2="395.529" y2="1589.414"/>
      <line x1="445.529" y1="1590.414" x2="395.529" y2="1590.414"/>
      <line x1="445.529" y1="1591.414" x2="395.529" y2="1591.414"/>
      <line x1="445.529" y1="1592.414" x2="395.529" y2="1592.414"/>
      <line x1="445.529" y1="1593.414" x2="395.529" y2="1593.414"/>
      <line x1="445.529" y1="1594.414" x2="395.529" y2="1594.414"/>
      <line x1="445.529" y1="1595.414" x2="395.529" y2="1595.414"/>
      <line x1="445.529" y1="1596.414" x2="395.529" y2="1596.414"/>
      <line x1="445.529" y1="1597.414" x2="395.529" y2="1597.414"/>
      <line x1="445.529" y1="1598.414" x2="395.529" y2="1598.414"/>
      <line x1="445.529" y1="1599.414" x2="395.529" y2="1599.414"/>
      <line x1="445.529" y1="1600.414" x2="395.529" y2="1600.414"/>
      <line x1="445.529" y1="1601.414" x2="395.529" y2="1601.414"/>
      <line x1="445.529" y1="1602.414" x2="395.529" y2="1602.414"/>
      <line x1="445.529" y1="1603.414" x2="395.529" y2="1603.414"/>
      <line x1="445.529" y1="1604.414" x2="395.529" y2="1604.414"/>
      <line x1="445.529" y1="1605.414" x2="395.529" y2="1605.414"/>
      <line x1="445.529" y1="1606.414" x2="395.529" y2="1606.414"/>
      <line x1="445.529" y1="1607.414" x2="395.529" y2="1607.414"/>
      <line x1="445.529" y1="1608.414" x2="395.529" y2="1608.414"/>
      <line x1="445.529" y1="1609.414" x2="395.529" y2="1609.414"/>
      <line x1="445.529" y1="1610.414" x2="395.529" y2="1610.414"/>
      <line x1="445.529" y1="1611.414" x2="395.529" y2="1611.414"/>
      <line x1="445.529" y1="1612.414" x2="395.529" y2="1612.414"/>
      <line x1="445.529" y1="1613.414" x2="395.529" y2="1613.414"/>
      <line x1="445.529" y1="1614.414" x2="395.529" y2="1614.414"/>
      <line x1="445.529" y1="1615.414" x2="395.529" y2="1615.414"/>
      <line x1="445.529" y1="1616.414" x2="395.529" y2="1616.414"/>
      <line x1="445.529" y1="1617.414" x2="395.529" y2="1617.414"/>
      <line x1="445.529" y1="1618.414" x2="395.529" y2="1618.414"/>
      <line x1="445.529" y1="1619.414" x2="395.529" y2="1619.414"/>
      <line x1="445.529" y1="1620.414" x2="395.529" y2="1620.414"/>
      <line x1="445.529" y1="1621.414" x2="395.529" y2="1621.414"/>
      <line x1="445.529" y1="1622.414" x2="395.529" y2="1622.414"/>
      <line x1="445.529" y1="1623.414" x2="395.529" y2="1623.414"/>
      <line x1="445.529" y1="1624.414" x2="395.529" y2="1624.414"/>
      <line x1="445.529" y1="1625.414" x2="395.529" y2="1625.414"/>
      <line x1="445.529" y1="1626.414" x2="395.529" y2="1626.414"/>
      <line x1="445.529" y1="1627.414" x2="395.529" y2="1627.414"/>
      <line x1="445.529" y1="1628.414" x2="395.529" y2="1628.414"/>
      <line x1="454.971" y1="1579.414" x2="445.629" y2="1579.414"/>
      <line x1="454.971" y1="1580.414" x2="445.629" y2="1580.414"/>
      <line x1="454.971" y1="1581.414" x2="445.629" y2="1581.414"/>
      <line x1="454.971" y1="1582.414" x2="445.629" y2="1582.414"/>
      <line x1="454.971" y1="1583.414" x2="445.629" y2="1583.414"/>
      <line x1="454.971" y1="1584.414" x2="445.629" y2="1584.414"/>
      <line x1="454.971" y1="1585.414" x2="445.629" y2="1585.414"/>
      <line x1="454.971" y1="1586.414" x2="445.629" y2="1586.414"/>
      <line x1="454.971" y1="1587.414" x2="445.629" y2="1587.414"/>
      <line x1="454.971" y1="1588.414" x2="445.629" y2="1588.414"/>
      <line x1="454.971" y1="1589.414" x2="445.629" y2="1589.414"/>
      <line x1="454.971" y1="1590.414" x2="445.629" y2="1590.414"/>
      <line x1="454.971" y1="1591.414" x2="445.629" y2="1591.414"/>
      <line x1="454.971" y1="1592.414" x2="445.629" y2="1592.414"/>
      <line x1="454.971" y1="1593.414" x2="445.629" y2="1593.414"/>
      <line x1="454.971" y1="1594.414" x2="445.629" y2="1594.414"/>
      <line x1="454.971" y1="1595.414" x2="445.629" y2="1595.414"/>
      <line x1="454.971" y1="1596.414" x2="445.629" y2="1596.414"/>
      <line x1="454.971" y1="1597.414" x2="445.629" y2="1597.414"/>
      <line x1="454.971" y1="1598.414" x2="445.629" y2="1598.414"/>
      <line x1="454.971" y1="1599.414" x2="445.629" y2="1599.414"/>
      <line x1="454.971" y1="1600.414" x2="445.629" y2="1600.414"/>
      <line x1="454.971" y1="1601.414" x2="445.629" y2="1601.414"/>
      <line x1="454.971" y1="1602.414" x2="445.629" y2="1602.414"/>
      <line x1="454.971" y1="1603.414" x2="445.629" y2="1603.414"/>
      <line x1="454.971" y1="1604.414" x2="445.629" y2="1604.414"/>
      <line x1="454.971" y1="1605.414" x2="445.629" y2="1605.414"/>
      <line x1="454.971" y1="1606.414" x2="445.629" y2="1606.414"/>
      <line x1="454.971" y1="1607.414" x2="445.629" y2="1607.414"/>
      <line x1="454.971" y1="1608.414" x2="445.629" y2="1608.414"/>
      <line x1="454.971" y1="1609.414" x2="445.629" y2="1609.414"/>
      <line x1="454.971" y1="1610.414" x2="445.629" y2="1610.414"/>
      <line x1="454.971" y1="1611.414" x2="445.629" y2="1611.414"/>
      <line x1="454.971" y1="1612.414" x2="445.629" y2="1612.414"/>
      <line x1="454.971" y1="1613.414" x2="445.629" y2="1613.414"/>
      <line x1="454.971" y1="1614.414" x2="445.629" y2="1614.414"/>
      <line x1="454.971" y1="1615.414" x2="445.629" y2="1615.414"/>
      <line x1="454.971" y1="1616.414" x2="445.629" y2="1616.414"/>
      <line x1="454.971" y1="1617.414" x2="445.629" y2="1617.414"/>
      <line x1="454.971" y1="1618.414" x2="445.629" y2="1618.414"/>
      <line x1="454.971" y1="1619.414" x2="445.629" y2="1619.414"/>
      <line x1="454.971" y1="1620.414" x2="445.629" y2="1620.414"/>
      <line x1="454.971" y1="1621.414" x2="445.629" y2="1621.414"/>
      <line x1="454.971" y1="1622.414" x2="445.629" y2="1622.414"/>
      <line x1="454.971" y1="1623.414" x2="445.629" y2="1623.414"/>
      <line x1="454.971" y1="1624.414" x2="445.629" y2="1624.414"/>
      <line x1="454.971" y1="1625.414" x2="445.629" y2="1625.414"/>
      <line x1="454.971" y1="1626.414" x2="445.629" y2="1626.414"/>
      <line x1="454.971" y1="1627.414" x2="445.629" y2="1627.414"/>
      <line x1="454.971" y1="1628.414" x2="445.629" y2="1628.414"/>
      <line x1="195.029" y1="1529.414" x2="145.029" y2="1529.414"/>
      <line x1="195.029" y1="1530.414" x2="145.029" y2="1530.414"/>
      <line x1="195.029" y1="1531.414" x2="145.029" y2="1531.414"/>
      <line x1="195.029" y1="1532.414" x2="145.029" y2="1532.414"/>
      <line x1="195.029" y1="1533.414" x2="145.029" y2="1533.414"/>
      <line x1="195.029" y1="1534.414" x2="145.029" y2="1534.414"/>
      <line x1="195.029" y1="1535.414" x2="145.029" y2="1535.414"/>
      <line x1="195.029" y1="1536.414" x2="145.029" y2="1536.414"/>
      <line x1="195.029" y1="1537.414" x2="145.029" y2="1537.414"/>
      <line x1="195.029" y1="1538.414" x2="145.029" y2="1538.414"/>
      <line x1="195.029" y1="1539.414" x2="145.029" y2="1539.414"/>
      <line x1="195.029" y1="1540.414" x2="145.029" y2="1540.414"/>
      <line x1="195.029" y1="1541.414" x2="145.029" y2="1541.414"/>
      <line x1="195.029" y1="1542.414" x2="145.029" y2="1542.414"/>
      <line x1="195.029" y1="1543.414" x2="145.029" y2="1543.414"/>
      <line x1="195.029" y1="1544.414" x2="145.029" y2="1544.414"/>
      <line x1="195.029" y1="1545.414" x2="145.029" y2="1545.414"/>
      <line x1="195.029" y1="1546.414" x2="145.029" y2="1546.414"/>
      <line x1="195.029" y1="1547.414" x2="145.029" y2="1547.414"/>
      <line x1="195.029" y1="1548.414" x2="145.029" y2="1548.414"/>
      <line x1="195.029" y1="1549.414" x2="145.029" y2="1549.414"/>
      <line x1="195.029" y1="1550.414" x2="145.029" y2="1550.414"/>
      <line x1="195.029" y1="1551.414" x2="145.029" y2="1551.414"/>
      <line x1="195.029" y1="1552.414" x2="145.029" y2="1552.414"/>
      <line x1="195.029" y1="1553.414" x2="145.029" y2="1553.414"/>
      <line x1="195.029" y1="1554.414" x2="145.029" y2="1554.414"/>
      <line x1="195.029" y1="1555.414" x2="145.029" y2="1555.414"/>
      <line x1="195.029" y1="1556.414" x2="145.029" y2="1556.414"/>
      <line x1="195.029" y1="1557.414" x2="145.029" y2="1557.414"/>
      <line x1="195.029" y1="1558.414" x2="145.029" y2="1558.414"/>
      <line x1="195.029" y1="1559.414" x2="145.029" y2="1559.414"/>
      <line x1="195.029" y1="1560.414" x2="145.029" y2="1560.414"/>
      <line x1="195.029" y1="1561.414" x2="145.029" y2="1561.414"/>
      <line x1="195.029" y1="1562.414" x2="145.029" y2="1562.414"/>
      <line x1="195.029" y1="1563.414" x2="145.029" y2="1563.414"/>
      <line x1="195.029" y1="1564.414" x2="145.029" y2="1564.414"/>
      <line x1="195.029" y1="1565.414" x2="145.029" y2="1565.414"/>
      <line x1="195.029" y1="1566.414" x2="145.029" y2="1566.414"/>
      <line x1="195.029" y1="1567.414" x2="145.029" y2="1567.414"/>
      <line x1="195.029" y1="1568.414" x2="145.029" y2="1568.414"/>
      <line x1="195.029" y1="1569.414" x2="145.029" y2="1569.414"/>
      <line x1="195.029" y1="1570.414" x2="145.029" y2="1570.414"/>
      <line x1="195.029" y1="1571.414" x2="145.029" y2="1571.414"/>
      <line x1="195.029" y1="1572.414" x2="145.029" y2="1572.414"/>
      <line x1="195.029" y1="1573.414" x2="145.029" y2="1573.414"/>
      <line x1="195.029" y1="1574.414" x2="145.029" y2="1574.414"/>
      <line x1="195.029" y1="1575.414" x2="145.029" y2="1575.414"/>
      <line x1="195.029" y1="1576.414" x2="145.029" y2="1576.414"/>
      <line x1="195.029" y1="1577.414" x2="145.029" y2="1577.414"/>
      <line x1="195.029" y1="1578.414" x2="145.029" y2="1578.414"/>
      <line x1="245.129" y1="1529.414" x2="195.129" y2="1529.414"/>
      <line x1="245.129" y1="1530.414" x2="195.129" y2="1530.414"/>
      <line x1="245.129" y1="1531.414" x2="195.129" y2="1531.414"/>
      <line x1="245.129" y1="1532.414" x2="195.129" y2="1532.414"/>
      <line x1="245.129" y1="1533.414" x2="195.129" y2="1533.414"/>
      <line x1="245.129" y1="1534.414" x2="195.129" y2="1534.414"/>
      <line x1="245.129" y1="1535.414" x2="195.129" y2="1535.414"/>
      <line x1="245.129" y1="1536.414" x2="195.129" y2="1536.414"/>
      <line x1="245.129" y1="1537.414" x2="195.129" y2="1537.414"/>
      <line x1="245.129" y1="1538.414" x2="195.129" y2="1538.414"/>
      <line x1="245.129" y1="1539.414" x2="195.129" y2="1539.414"/>
      <line x1="245.129" y1="1540.414" x2="195.129" y2="1540.414"/>
      <line x1="245.129" y1="1541.414" x2="195.129" y2="1541.414"/>
      <line x1="245.129" y1="1542.414" x2="195.129" y2="1542.414"/>
      <line x1="245.129" y1="1543.414" x2="195.129" y2="1543.414"/>
      <line x1="245.129" y1="1544.414" x2="195.129" y2="1544.414"/>
      <line x1="245.129" y1="1545.414" x2="195.129" y2="1545.414"/>
      <line x1="245.129" y1="1546.414" x2="195.129" y2="1546.414"/>
      <line x1="245.129" y1="1547.414" x2="195.129" y2="1547.414"/>
      <line x1="245.129" y1="1548.414" x2="195.129" y2="1548.414"/>
      <line x1="245.129" y1="1549.414" x2="195.129" y2="1549.414"/>
      <line x1="245.129" y1="1550.414" x2="195.129" y2="1550.414"/>
      <line x1="245.129" y1="1551.414" x2="195.129" y2="1551.414"/>
      <line x1="245.129" y1="1552.414" x2="195.129" y2="1552.414"/>
      <line x1="245.129" y1="1553.414" x2="195.129" y2="1553.414"/>
      <line x1="245.129" y1="1554.414" x2="195.129" y2="1554.414"/>
      <line x1="245.129" y1="1555.414" x2="195.129" y2="1555.414"/>
      <line x1="245.129" y1="1556.414" x2="195.129" y2="1556.414"/>
      <line x1="245.129" y1="1557.414" x2="195.129" y2="1557.414"/>
      <line x1="245.129" y1="1558.414" x2="195.129" y2="1558.414"/>
      <line x1="245.129" y1="1559.414" x2="195.129" y2="1559.414"/>
      <line x1="245.129" y1="1560.414" x2="195.129" y2="1560.414"/>
      <line x1="245.129" y1="1561.414" x2="195.129" y2="1561.414"/>
      <line x1="245.129" y1="1562.414" x2="195.129" y2="1562.414"/>
      <line x1="245.129" y1="1563.414" x2="195.129" y2="1563.414"/>
      <line x1="245.129" y1="1564.414" x2="195.129" y2="1564.414"/>
      <line x1="245.129" y1="1565.414" x2="195.129" y2="1565.414"/>
      <line x1="245.129" y1="1566.414" x2="195.129" y2="1566.414"/>
      <line x1="245.129" y1="1567.414" x2="195.129" y2="1567.414"/>
      <line x1="245.129" y1="1568.414" x2="195.129" y2="1568.414"/>
      <line x1="245.129" y1="1569.414" x2="195.129" y2="1569.414"/>
      <line x1="245.129" y1="1570.414" x2="195.129" y2="1570.414"/>
      <line x1="245.129" y1="1571.414" x2="195.129" y2="1571.414"/>
      <line x1="245.129" y1="1572.414" x2="195.129" y2="1572.414"/>
      <line x1="245.129" y1="1573.414" x2="195.129" y2="1573.414"/>
      <line x1="245.129" y1="1574.414" x2="195.129" y2="1574.414"/>
      <line x1="245.129" y1="1575.414" x2="195.129" y2="1575.414"/>
      <line x1="245.129" y1="1576.414" x2="195.129" y2="1576.414"/>
      <line x1="245.129" y1="1577.414" x2="195.129" y2="1577.414"/>
      <line x1="245.129" y1="1578.414" x2="195.129" y2="1578.414"/>
      <line x1="295.229" y1="1529.414" x2="245.229" y2="1529.414"/>
      <line x1="295.229" y1="1530.414" x2="245.229" y2="1530.414"/>
      <line x1="295.229" y1="1531.414" x2="245.229" y2="1531.414"/>
      <line x1="295.229" y1="1532.414" x2="245.229" y2="1532.414"/>
      <line x1="295.229" y1="1533.414" x2="245.229" y2="1533.414"/>
      <line x1="295.229" y1="1534.414" x2="245.229" y2="1534.414"/>
      <line x1="295.229" y1="1535.414" x2="245.229" y2="1535.414"/>
      <line x1="295.229" y1="1536.414" x2="245.229" y2="1536.414"/>
      <line x1="295.229" y1="1537.414" x2="245.229" y2="1537.414"/>
      <line x1="295.229" y1="1538.414" x2="245.229" y2="1538.414"/>
      <line x1="295.229" y1="1539.414" x2="245.229" y2="1539.414"/>
      <line x1="295.229" y1="1540.414" x2="245.229" y2="1540.414"/>
      <line x1="295.229" y1="1541.414" x2="245.229" y2="1541.414"/>
      <line x1="295.229" y1="1542.414" x2="245.229" y2="1542.414"/>
      <line x1="295.229" y1="1543.414" x2="245.229" y2="1543.414"/>
      <line x1="295.229" y1="1544.414" x2="245.229" y2="1544.414"/>
      <line x1="295.229" y1="1545.414" x2="245.229" y2="1545.414"/>
      <line x1="295.229" y1="1546.414" x2="245.229" y2="1546.414"/>
      <line x1="295.229" y1="1547.414" x2="245.229" y2="1547.414"/>
      <line x1="295.229" y1="1548.414" x2="245.229" y2="1548.414"/>
      <line x1="295.229" y1="1549.414" x2="245.229" y2="1549.414"/>
      <line x1="295.229" y1="1550.414" x2="245.229" y2="1550.414"/>
      <line x1="295.229" y1="1551.414" x2="245.229" y2="1551.414"/>
      <line x1="295.229" y1="1552.414" x2="245.229" y2="1552.414"/>
      <line x1="295.229" y1="1553.414" x2="245.229" y2="1553.414"/>
      <line x1="295.229" y1="1554.414" x2="245.229" y2="1554.414"/>
      <line x1="295.229" y1="1555.414" x2="245.229" y2="1555.414"/>
      <line x1="295.229" y1="1556.414" x2="245.229" y2="1556.414"/>
      <line x1="295.229" y1="1557.414" x2="245.229" y2="1557.414"/>
      <line x1="295.229" y1="1558.414" x2="245.229" y2="1558.414"/>
      <line x1="295.229" y1="1559.414" x2="245.229" y2="1559.414"/>
      <line x1="295.229" y1="1560.414" x2="245.229" y2="1560.414"/>
      <line x1="295.229" y1="1561.414" x2="245.229" y2="1561.414"/>
      <line x1="295.229" y1="1562.414" x2="245.229" y2="1562.414"/>
      <line x1="295.229" y1="1563.414" x2="245.229" y2="1563.414"/>
      <line x1="295.229" y1="1564.414" x2="245.229" y2="1564.414"/>
      <line x1="295.229" y1="1565.414" x2="245.229" y2="1565.414"/>
      <line x1="295.229" y1="1566.414" x2="245.229" y2="1566.414"/>
      <line x1="295.229" y1="1567.414" x2="245.229" y2="1567.414"/>
      <line x1="295.229" y1="1568.414" x2="245.229" y2="1568.414"/>
      <line x1="295.229" y1="1569.414" x2="245.229" y2="1569.414"/>
      <line x1="295.229" y1="1570.414" x2="245.229" y2="1570.414"/>
      <line x1="295.229" y1="1571.414" x2="245.229" y2="1571.414"/>
      <line x1="295.229" y1="1572.414" x2="245.229" y2="1572.414"/>
      <line x1="295.229" y1="1573.414" x2="245.229" y2="1573.414"/>
      <line x1="295.229" y1="1574.414" x2="245.229" y2="1574.414"/>
      <line x1="295.229" y1="1575.414" x2="245.229" y2="1575.414"/>
      <line x1="295.229" y1="1576.414" x2="245.229" y2="1576.414"/>
      <line x1="295.229" y1="1577.414" x2="245.229" y2="1577.414"/>
      <line x1="295.229" y1="1578.414" x2="245.229" y2="1578.414"/>
      <line x1="345.329" y1="1529.414" x2="295.329" y2="1529.414"/>
      <line x1="345.329" y1="1530.414" x2="295.329" y2="1530.414"/>
      <line x1="345.329" y1="1531.414" x2="295.329" y2="1531.414"/>
      <line x1="345.329" y1="1532.414" x2="295.329" y2="1532.414"/>
      <line x1="345.329" y1="1533.414" x2="295.329" y2="1533.414"/>
      <line x1="345.329" y1="1534.414" x2="295.329" y2="1534.414"/>
      <line x1="345.329" y1="1535.414" x2="295.329" y2="1535.414"/>
      <line x1="345.329" y1="1536.414" x2="295.329" y2="1536.414"/>
      <line x1="345.329" y1="1537.414" x2="295.329" y2="1537.414"/>
      <line x1="345.329" y1="1538.414" x2="295.329" y2="1538.414"/>
      <line x1="345.329" y1="1539.414" x2="295.329" y2="1539.414"/>
      <line x1="345.329" y1="1540.414" x2="295.329" y2="1540.414"/>
      <line x1="345.329" y1="1541.414" x2="295.329" y2="1541.414"/>
      <line x1="345.329" y1="1542.414" x2="295.329" y2="1542.414"/>
      <line x1="345.329" y1="1543.414" x2="295.329" y2="1543.414"/>
      <line x1="345.329" y1="1544.414" x2="295.329" y2="1544.414"/>
      <line x1="345.329" y1="1545.414" x2="295.329" y2="1545.414"/>
      <line x1="345.329" y1="1546.414" x2="295.329" y2="1546.414"/>
      <line x1="345.329" y1="1547.414" x2="295.329" y2="1547.414"/>
      <line x1="345.329" y1="1548.414" x2="295.329" y2="1548.414"/>
      <line x1="345.329" y1="1549.414" x2="295.329" y2="1549.414"/>
      <line x1="345.329" y1="1550.414" x2="295.329" y2="1550.414"/>
      <line x1="345.329" y1="1551.414" x2="295.329" y2="1551.414"/>
      <line x1="345.329" y1="1552.414" x2="295.329" y2="1552.414"/>
      <line x1="345.329" y1="1553.414" x2="295.329" y2="1553.414"/>
      <line x1="345.329" y1="1554.414" x2="295.329" y2="1554.414"/>
      <line x1="345.329" y1="1555.414" x2="295.329" y2="1555.414"/>
      <line x1="345.329" y1="1556.414" x2="295.329" y2="1556.414"/>
      <line x1="345.329" y1="1557.414" x2="295.329" y2="1557.414"/>
      <line x1="345.329" y1="1558.414" x2="295.329" y2="1558.414"/>
      <line x1="345.329" y1="1559.414" x2="295.329" y2="1559.414"/>
      <line x1="345.329" y1="1560.414" x2="295.329" y2="1560.414"/>
      <line x1="345.329" y1="1561.414" x2="295.329" y2="1561.414"/>
      <line x1="345.329" y1="1562.414" x2="295.329" y2="1562.414"/>
      <line x1="345.329" y1="1563.414" x2="295.329" y2="1563.414"/>
      <line x1="345.329" y1="1564.414" x2="295.329" y2="1564.414"/>
      <line x1="345.329" y1="1565.414" x2="295.329" y2="1565.414"/>
      <line x1="345.329" y1="1566.414" x2="295.329" y2="1566.414"/>
      <line x1="345.329" y1="1567.414" x2="295.329" y2="1567.414"/>
      <line x1="345.329" y1="1568.414" x2="295.329" y2="1568.414"/>
      <line x1="345.329" y1="1569.414" x2="295.329" y2="1569.414"/>
      <line x1="345.329" y1="1570.414" x2="295.329" y2="1570.414"/>
      <line x1="345.329" y1="1571.414" x2="295.329" y2="1571.414"/>
      <line x1="345.329" y1="1572.414" x2="295.329" y2="1572.414"/>
      <line x1="345.329" y1="1573.414" x2="295.329" y2="1573.414"/>
      <line x1="345.329" y1="1574.414" x2="295.329" y2="1574.414"/>
      <line x1="345.329" y1="1575.414" x2="295.329" y2="1575.414"/>
      <line x1="345.329" y1="1576.414" x2="295.329" y2="1576.414"/>
      <line x1="345.329" y1="1577.414" x2="295.329" y2="1577.414"/>
      <line x1="345.329" y1="1578.414" x2="295.329" y2="1578.414"/>
      <line x1="395.429" y1="1529.414" x2="345.429" y2="1529.414"/>
      <line x1="395.429" y1="1530.414" x2="345.429" y2="1530.414"/>
      <line x1="395.429" y1="1531.414" x2="345.429" y2="1531.414"/>
      <line x1="395.429" y1="1532.414" x2="345.429" y2="1532.414"/>
      <line x1="395.429" y1="1533.414" x2="345.429" y2="1533.414"/>
      <line x1="395.429" y1="1534.414" x2="345.429" y2="1534.414"/>
      <line x1="395.429" y1="1535.414" x2="345.429" y2="1535.414"/>
      <line x1="395.429" y1="1536.414" x2="345.429" y2="1536.414"/>
      <line x1="395.429" y1="1537.414" x2="345.429" y2="1537.414"/>
      <line x1="395.429" y1="1538.414" x2="345.429" y2="1538.414"/>
      <line x1="395.429" y1="1539.414" x2="345.429" y2="1539.414"/>
      <line x1="395.429" y1="1540.414" x2="345.429" y2="1540.414"/>
      <line x1="395.429" y1="1541.414" x2="345.429" y2="1541.414"/>
      <line x1="395.429" y1="1542.414" x2="345.429" y2="1542.414"/>
      <line x1="395.429" y1="1543.414" x2="345.429" y2="1543.414"/>
      <line x1="395.429" y1="1544.414" x2="345.429" y2="1544.414"/>
      <line x1="395.429" y1="1545.414" x2="345.429" y2="1545.414"/>
      <line x1="395.429" y1="1546.414" x2="345.429" y2="1546.414"/>
      <line x1="395.429" y1="1547.414" x2="345.429" y2="1547.414"/>
      <line x1="395.429" y1="1548.414" x2="345.429" y2="1548.414"/>
      <line x1="395.429" y1="1549.414" x2="345.429" y2="1549.414"/>
      <line x1="395.429" y1="1550.414" x2="345.429" y2="1550.414"/>
      <line x1="395.429" y1="1551.414" x2="345.429" y2="1551.414"/>
      <line x1="395.429" y1="1552.414" x2="345.429" y2="1552.414"/>
      <line x1="395.429" y1="1553.414" x2="345.429" y2="1553.414"/>
      <line x1="395.429" y1="1554.414" x2="345.429" y2="1554.414"/>
      <line x1="395.429" y1="1555.414" x2="345.429" y2="1555.414"/>
      <line x1="395.429" y1="1556.414" x2="345.429" y2="1556.414"/>
      <line x1="395.429" y1="1557.414" x2="345.429" y2="1557.414"/>
      <line x1="395.429" y1="1558.414" x2="345.429" y2="1558.414"/>
      <line x1="395.429" y1="1559.414" x2="345.429" y2="1559.414"/>
      <line x1="395.429" y1="1560.414" x2="345.429" y2="1560.414"/>
      <line x1="395.429" y1="1561.414" x2="345.429" y2="1561.414"/>
      <line x1="395.429" y1="1562.414" x2="345.429" y2="1562.414"/>
      <line x1="395.429" y1="1563.414" x2="345.429" y2="1563.414"/>
      <line x1="395.429" y1="1564.414" x2="345.429" y2="1564.414"/>
      <line x1="395.429" y1="1565.414" x2="345.429" y2="1565.414"/>
      <line x1="395.429" y1="1566.414" x2="345.429" y2="1566.414"/>
      <line x1="395.429" y1="1567.414" x2="345.429" y2="1567.414"/>
      <line x1="395.429" y1="1568.414" x2="345.429" y2="1568.414"/>
      <line x1="395.429" y1="1569.414" x2="345.429" y2="1569.414"/>
      <line x1="395.429" y1="1570.414" x2="345.429" y2="1570.414"/>
      <line x1="395.429" y1="1571.414" x2="345.429" y2="1571.414"/>
      <line x1="395.429" y1="1572.414" x2="345.429" y2="1572.414"/>
      <line x1="395.429" y1="1573.414" x2="345.429" y2="1573.414"/>
      <line x1="395.429" y1="1574.414" x2="345.429" y2="1574.414"/>
      <line x1="395.429" y1="1575.414" x2="345.429" y2="1575.414"/>
      <line x1="395.429" y1="1576.414" x2="345.429" y2="1576.414"/>
      <line x1="395.429" y1="1577.414" x2="345.429" y2="1577.414"/>
      <line x1="395.429" y1="1578.414" x2="345.429" y2="1578.414"/>
      <line x1="445.529" y1="1529.414" x2="395.529" y2="1529.414"/>
      <line x1="445.529" y1="1530.414" x2="395.529" y2="1530.414"/>
      <line x1="445.529" y1="1531.414" x2="395.529" y2="1531.414"/>
      <line x1="445.529" y1="1532.414" x2="395.529" y2="1532.414"/>
      <line x1="445.529" y1="1533.414" x2="395.529" y2="1533.414"/>
      <line x1="445.529" y1="1534.414" x2="395.529" y2="1534.414"/>
      <line x1="445.529" y1="1535.414" x2="395.529" y2="1535.414"/>
      <line x1="445.529" y1="1536.414" x2="395.529" y2="1536.414"/>
      <line x1="445.529" y1="1537.414" x2="395.529" y2="1537.414"/>
      <line x1="445.529" y1="1538.414" x2="395.529" y2="1538.414"/>
      <line x1="445.529" y1="1539.414" x2="395.529" y2="1539.414"/>
      <line x1="445.529" y1="1540.414" x2="395.529" y2="1540.414"/>
      <line x1="445.529" y1="1541.414" x2="395.529" y2="1541.414"/>
      <line x1="445.529" y1="1542.414" x2="395.529" y2="1542.414"/>
      <line x1="445.529" y1="1543.414" x2="395.529" y2="1543.414"/>
      <line x1="445.529" y1="1544.414" x2="395.529" y2="1544.414"/>
      <line x1="445.529" y1="1545.414" x2="395.529" y2="1545.414"/>
      <line x1="445.529" y1="1546.414" x2="395.529" y2="1546.414"/>
      <line x1="445.529" y1="1547.414" x2="395.529" y2="1547.414"/>
      <line x1="445.529" y1="1548.414" x2="395.529" y2="1548.414"/>
      <line x1="445.529" y1="1549.414" x2="395.529" y2="1549.414"/>
      <line x1="445.529" y1="1550.414" x2="395.529" y2="1550.414"/>
      <line x1="445.529" y1="1551.414" x2="395.529" y2="1551.414"/>
      <line x1="445.529" y1="1552.414" x2="395.529" y2="1552.414"/>
      <line x1="445.529" y1="1553.414" x2="395.529" y2="1553.414"/>
      <line x1="445.529" y1="1554.414" x2="395.529" y2="1554.414"/>
      <line x1="445.529" y1="1555.414" x2="395.529" y2="1555.414"/>
      <line x1="445.529" y1="1556.414" x2="395.529" y2="1556.414"/>
      <line x1="445.529" y1="1557.414" x2="395.529" y2="1557.414"/>
      <line x1="445.529" y1="1558.414" x2="395.529" y2="1558.414"/>
      <line x1="445.529" y1="1559.414" x2="395.529" y2="1559.414"/>
      <line x1="445.529" y1="1560.414" x2="395.529" y2="1560.414"/>
      <line x1="445.529" y1="1561.414" x2="395.529" y2="1561.414"/>
      <line x1="445.529" y1="1562.414" x2="395.529" y2="1562.414"/>
      <line x1="445.529" y1="1563.414" x2="395.529" y2="1563.414"/>
      <line x1="445.529" y1="1564.414" x2="395.529" y2="1564.414"/>
      <line x1="445.529" y1="1565.414" x2="395.529" y2="1565.414"/>
      <line x1="445.529" y1="1566.414" x2="395.529" y2="1566.414"/>
      <line x1="445.529" y1="1567.414" x2="395.529" y2="1567.414"/>
      <line x1="445.529" y1="1568.414" x2="395.529" y2="1568.414"/>
      <line x1="445.529" y1="1569.414" x2="395.529" y2="1569.414"/>
      <line x1="445.529" y1="1570.414" x2="395.529" y2="1570.414"/>
      <line x1="445.529" y1="1571.414" x2="395.529" y2="1571.414"/>
      <line x1="445.529" y1="1572.414" x2="395.529" y2="1572.414"/>
      <line x1="445.529" y1="1573.414" x2="395.529" y2="1573.414"/>
      <line x1="445.529" y1="1574.414" x2="395.529" y2="1574.414"/>
      <line x1="445.529" y1="1575.414" x2="395.529" y2="1575.414"/>
      <line x1="445.529" y1="1576.414" x2="395.529" y2="1576.414"/>
      <line x1="445.529" y1="1577.414" x2="395.529" y2="1577.414"/>
      <line x1="445.529" y1="1578.414" x2="395.529" y2="1578.414"/>
      <line x1="454.971" y1="1529.414" x2="445.629" y2="1529.414"/>
      <line x1="454.971" y1="1530.414" x2="445.629" y2="1530.414"/>
      <line x1="454.971" y1="1531.414" x2="445.629" y2="1531.414"/>
      <line x1="454.971" y1="1532.414" x2="445.629" y2="1532.414"/>
      <line x1="454.971" y1="1533.414" x2="445.629" y2="1533.414"/>
      <line x1="454.971" y1="1534.414" x2="445.629" y2="1534.414"/>
      <line x1="454.971" y1="1535.414" x2="445.629" y2="1535.414"/>
      <line x1="454.971" y1="1536.414" x2="445.629" y2="1536.414"/>
      <line x1="454.971" y1="1537.414" x2="445.629" y2="1537.414"/>
      <line x1="454.971" y1="1538.414" x2="445.629" y2="1538.414"/>
      <line x1="454.971" y1="1539.414" x2="445.629" y2="1539.414"/>
      <line x1="454.971" y1="1540.414" x2="445.629" y2="1540.414"/>
      <line x1="454.971" y1="1541.414" x2="445.629" y2="1541.414"/>
      <line x1="454.971" y1="1542.414" x2="445.629" y2="1542.414"/>
      <line x1="454.971" y1="1543.414" x2="445.629" y2="1543.414"/>
      <line x1="454.971" y1="1544.414" x2="445.629" y2="1544.414"/>
      <line x1="454.971" y1="1545.414" x2="445.629" y2="1545.414"/>
      <line x1="454.971" y1="1546.414" x2="445.629" y2="1546.414"/>
      <line x1="454.971" y1="1547.414" x2="445.629" y2="1547.414"/>
      <line x1="454.971" y1="1548.414" x2="445.629" y2="1548.414"/>
      <line x1="454.971" y1="1549.414" x2="445.629" y2="1549.414"/>
      <line x1="454.971" y1="1550.414" x2="445.629" y2="1550.414"/>
      <line x1="454.971" y1="1551.414" x2="445.629" y2="1551.414"/>
      <line x1="454.971" y1="1552.414" x2="445.629" y2="1552.414"/>
      <line x1="454.971" y1="1553.414" x2="445.629" y2="1553.414"/>
      <line x1="454.971" y1="1554.414" x2="445.629" y2="1554.414"/>
      <line x1="454.971" y1="1555.414" x2="445.629" y2="1555.414"/>
      <line x1="454.971" y1="1556.414" x2="445.629" y2="1556.414"/>
      <line x1="454.971" y1="1557.414" x2="445.629" y2="1557.414"/>
      <line x1="454.971" y1="1558.414" x2="445.629" y2="1558.414"/>
      <line x1="454.971" y1="1559.414" x2="445.629" y2="1559.414"/>
      <line x1="454.971" y1="1560.414" x2="445.629" y2="1560.414"/>
      <line x1="454.971" y1="1561.414" x2="445.629" y2="1561.414"/>
      <line x1="454.971" y1="1562.414" x2="445.629" y2="1562.414"/>
      <line x1="454.971" y1="1563.414" x2="445.629" y2="1563.414"/>
      <line x1="454.971" y1="1564.414" x2="445.629" y2="1564.414"/>
      <line x1="454.971" y1="1565.414" x2="445.629" y2="1565.414"/>
      <line x1="454.971" y1="1566.414" x2="445.629" y2="1566.414"/>
      <line x1="454.971" y1="1567.414" x2="445.629" y2="1567.414"/>
      <line x1="454.971" y1="1568.414" x2="445.629" y2="1568.414"/>
      <line x1="454.971" y1="1569.414" x2="445.629" y2="1569.414"/>
      <line x1="454.971" y1="1570.414" x2="445.629" y2="1570.414"/>
      <line x1="454.971" y1="1571.414" x2="445.629" y2="1571.414"/>
      <line x1="454.971" y1="1572.414" x2="445.629" y2="1572.414"/>
      <line x1="454.971" y1="1573.414" x2="445.629" y2="1573.414"/>
      <line x1="454.971" y1="1574.414" x2="445.629" y2="1574.414"/>
      <line x1="454.971" y1="1575.414" x2="445.629" y2="1575.414"/>
      <line x1="454.971" y1="1576.414" x2="445.629" y2="1576.414"/>
      <line x1="454.971" y1="1577.414" x2="445.629" y2="1577.414"/>
      <line x1="454.971" y1="1578.414" x2="445.629" y2="1578.414"/>
      <line x1="195.029" y1="1525.414" x2="145.029" y2="1525.414"/>
      <line x1="195.029" y1="1526.414" x2="145.029" y2="1526.414"/>
      <line x1="195.029" y1="1527.414" x2="145.029" y2="1527.414"/>
      <line x1="195.029" y1="1528.414" x2="145.029" y2="1528.414"/>
      <line x1="245.129" y1="1525.414" x2="195.129" y2="1525.414"/>
      <line x1="245.129" y1="1526.414" x2="195.129" y2="1526.414"/>
      <line x1="245.129" y1="1527.414" x2="195.129" y2="1527.414"/>
      <line x1="245.129" y1="1528.414" x2="195.129" y2="1528.414"/>
      <line x1="295.229" y1="1525.414" x2="245.229" y2="1525.414"/>
      <line x1="295.229" y1="1526.414" x2="245.229" y2="1526.414"/>
      <line x1="295.229" y1="1527.414" x2="245.229" y2="1527.414"/>
      <line x1="295.229" y1="1528.414" x2="245.229" y2="1528.414"/>
      <line x1="345.329" y1="1525.414" x2="295.329" y2="1525.414"/>
      <line x1="345.329" y1="1526.414" x2="295.329" y2="1526.414"/>
      <line x1="345.329" y1="1527.414" x2="295.329" y2="1527.414"/>
      <line x1="345.329" y1="1528.414" x2="295.329" y2="1528.414"/>
      <line x1="395.429" y1="1525.414" x2="345.429" y2="1525.414"/>
      <line x1="395.429" y1="1526.414" x2="345.429" y2="1526.414"/>
      <line x1="395.429" y1="1527.414" x2="345.429" y2="1527.414"/>
      <line x1="395.429" y1="1528.414" x2="345.429" y2="1528.414"/>
      <line x1="445.529" y1="1525.414" x2="395.529" y2="1525.414"/>
      <line x1="445.529" y1="1526.414" x2="395.529" y2="1526.414"/>
      <line x1="445.529" y1="1527.414" x2="395.529" y2="1527.414"/>
      <line x1="445.529" y1="1528.414" x2="395.529" y2="1528.414"/>
      <line x1="454.971" y1="1525.414" x2="445.629" y2="1525.414"/>
      <line x1="454.971" y1="1526.414" x2="445.629" y2="1526.414"/>
      <line x1="454.971" y1="1527.414" x2="445.629" y2="1527.414"/>
      <line x1="454.971" y1="1528.414" x2="445.629" y2="1528.414"/>
    </g>
    <g stroke="#1976D2" stroke-width="0.4">
      <polyline points="458.471,1521.729 141.529,1521.729 141.529,1682.729 458.471,1682.729 458.471,1521.729" fill="none"/>
      <polyline points="457.471,1522.729 142.529,1522.729 142.529,1681.730 457.471,1681.730 457.471,1522.729" fill="none"/>
      <polyline points="456.471,1523.729 143.529,1523.729 143.529,1680.730 456.471,1680.730 456.471,1523.729" fill="none"/>
      <polyline points="455.471,1524.729 144.529,1524.729 144.529,1679.729 455.471,1679.729 455.471,1524.729" fill="none"/>
    </g>
    <g stroke="#C62828" stroke-width="0.4" fill="none">
    </g>
    <g stroke="#EF6C00" stroke-width="0.4" fill="none">
    </g>
  </g>
  <g stroke="#000000" stroke-width="0.4">
    <line x1="500.000" y1="1000.000" x2="1500.000" y2="1000.000"/>
  </g>
  <g stroke="#000000" stroke-width="0.4">
    <line x1="1000.000" y1="500.000" x2="1000.000" y2="1500.000"/>
  </g>
  <circle cx="1000.000" cy="1000.000" r="1000.000" stroke="red" stroke-width="1" fill="none"/>
  </g>
</svg>
