<?xml version="1.0" encoding="UTF-8"?>
<svg xmlns="http://www.w3.org/2000/svg" version="1.1" width="2000" height="2000">
  <g fill="none" stroke-linecap="round" stroke-linejoin="round">
  <text x="10" y="20" font-size="24" fill="#555">Layer 212 Z=54.400 mm</text>
  <g transform="translate(700.000,-602.229)">
    <g stroke="#2E7D32" stroke-width="0.4">
      <line x1="487.021" y1="1679.230" x2="487.021" y2="1629.230"/>
      <line x1="488.021" y1="1679.230" x2="488.021" y2="1629.230"/>
      <line x1="489.021" y1="1679.230" x2="489.021" y2="1629.230"/>
      <line x1="490.021" y1="1679.230" x2="490.021" y2="1629.230"/>
      <line x1="491.021" y1="1679.230" x2="491.021" y2="1629.230"/>
      <line x1="492.021" y1="1679.230" x2="492.021" y2="1629.230"/>
      <line x1="493.021" y1="1679.230" x2="493.021" y2="1629.230"/>
      <line x1="494.021" y1="1679.230" x2="494.021" y2="1629.230"/>
      <line x1="495.021" y1="1679.230" x2="495.021" y2="1629.230"/>
      <line x1="496.021" y1="1679.230" x2="496.021" y2="1629.230"/>
      <line x1="497.021" y1="1679.230" x2="497.021" y2="1629.230"/>
      <line x1="498.021" y1="1679.230" x2="498.021" y2="1629.230"/>
      <line x1="499.021" y1="1679.230" x2="499.021" y2="1629.230"/>
      <line x1="500.021" y1="1679.230" x2="500.021" y2="1629.230"/>
      <line x1="501.021" y1="1679.230" x2="501.021" y2="1629.230"/>
      <line x1="502.021" y1="1679.230" x2="502.021" y2="1629.230"/>
      <line x1="503.021" y1="1679.230" x2="503.021" y2="1629.230"/>
      <line x1="504.021" y1="1679.230" x2="504.021" y2="1629.230"/>
      <line x1="505.021" y1="1679.230" x2="505.021" y2="1629.230"/>
      <line x1="506.021" y1="1679.230" x2="506.021" y2="1629.230"/>
      <line x1="507.021" y1="1679.230" x2="507.021" y2="1629.230"/>
      <line x1="508.021" y1="1679.230" x2="508.021" y2="1629.230"/>
      <line x1="509.021" y1="1679.230" x2="509.021" y2="1629.230"/>
      <line x1="510.021" y1="1679.230" x2="510.021" y2="1629.230"/>
      <line x1="511.021" y1="1679.230" x2="511.021" y2="1629.230"/>
      <line x1="512.021" y1="1679.230" x2="512.021" y2="1629.230"/>
      <line x1="513.021" y1="1679.230" x2="513.021" y2="1629.230"/>
      <line x1="514.021" y1="1679.230" x2="514.021" y2="1629.230"/>
      <line x1="515.021" y1="1679.230" x2="515.021" y2="1629.230"/>
      <line x1="516.021" y1="1679.230" x2="516.021" y2="1629.230"/>
      <line x1="517.021" y1="1679.230" x2="517.021" y2="1629.230"/>
      <line x1="518.021" y1="1679.230" x2="518.021" y2="1629.230"/>
      <line x1="519.021" y1="1679.230" x2="519.021" y2="1629.230"/>
      <line x1="520.021" y1="1679.230" x2="520.021" y2="1629.230"/>
      <line x1="521.021" y1="1679.230" x2="521.021" y2="1629.230"/>
      <line x1="522.021" y1="1679.230" x2="522.021" y2="1629.230"/>
      <line x1="523.021" y1="1679.230" x2="523.021" y2="1629.230"/>
      <line x1="524.021" y1="1679.230" x2="524.021" y2="1629.230"/>
      <line x1="525.021" y1="1679.230" x2="525.021" y2="1629.230"/>
      <line x1="526.021" y1="1679.230" x2="526.021" y2="1629.230"/>
      <line x1="527.021" y1="1679.230" x2="527.021" y2="1629.230"/>
      <line x1="528.021" y1="1679.230" x2="528.021" y2="1629.230"/>
      <line x1="529.021" y1="1679.230" x2="529.021" y2="1629.230"/>
      <line x1="530.021" y1="1679.230" x2="530.021" y2="1629.230"/>
      <line x1="531.021" y1="1679.230" x2="531.021" y2="1629.230"/>
      <line x1="532.021" y1="1679.230" x2="532.021" y2="1629.230"/>
      <line x1="533.021" y1="1679.230" x2="533.021" y2="1629.230"/>
      <line x1="534.021" y1="1679.230" x2="534.021" y2="1629.230"/>
      <line x1="535.021" y1="1679.230" x2="535.021" y2="1629.230"/>
      <line x1="536.021" y1="1679.230" x2="536.021" y2="1629.230"/>
      <line x1="537.021" y1="1679.230" x2="537.021" y2="1629.230"/>
      <line x1="538.021" y1="1679.230" x2="538.021" y2="1629.230"/>
      <line x1="539.021" y1="1679.230" x2="539.021" y2="1629.230"/>
      <line x1="540.021" y1="1679.230" x2="540.021" y2="1629.230"/>
      <line x1="541.021" y1="1679.230" x2="541.021" y2="1629.230"/>
      <line x1="542.021" y1="1679.230" x2="542.021" y2="1629.230"/>
      <line x1="543.021" y1="1679.230" x2="543.021" y2="1629.230"/>
      <line x1="544.021" y1="1679.230" x2="544.021" y2="1629.230"/>
      <line x1="545.021" y1="1679.230" x2="545.021" y2="1629.230"/>
      <line x1="546.021" y1="1679.230" x2="546.021" y2="1629.230"/>
      <line x1="547.021" y1="1679.230" x2="547.021" y2="1629.230"/>
      <line x1="548.021" y1="1679.230" x2="548.021" y2="1629.230"/>
      <line x1="549.021" y1="1679.230" x2="549.021" y2="1629.230"/>
      <line x1="550.021" y1="1679.230" x2="550.021" y2="1629.230"/>
      <line x1="551.021" y1="1679.230" x2="551.021" y2="1629.230"/>
      <line x1="552.021" y1="1679.230" x2="552.021" y2="1629.230"/>
      <line x1="553.021" y1="1679.230" x2="553.021" y2="1629.230"/>
      <line x1="554.021" y1="1679.230" x2="554.021" y2="1629.230"/>
      <line x1="555.021" y1="1679.230" x2="555.021" y2="1629.230"/>
      <line x1="556.021" y1="1679.230" x2="556.021" y2="1629.230"/>
      <line x1="557.021" y1="1679.230" x2="557.021" y2="1629.230"/>
      <line x1="558.021" y1="1679.230" x2="558.021" y2="1629.230"/>
      <line x1="559.021" y1="1679.230" x2="559.021" y2="1629.230"/>
      <line x1="560.021" y1="1679.230" x2="560.021" y2="1629.230"/>
      <line x1="561.021" y1="1679.230" x2="561.021" y2="1629.230"/>
      <line x1="562.021" y1="1679.230" x2="562.021" y2="1629.230"/>
      <line x1="563.021" y1="1679.230" x2="563.021" y2="1629.230"/>
      <line x1="564.021" y1="1679.230" x2="564.021" y2="1629.230"/>
      <line x1="565.021" y1="1679.230" x2="565.021" y2="1629.230"/>
      <line x1="566.021" y1="1679.230" x2="566.021" y2="1629.230"/>
      <line x1="567.021" y1="1679.230" x2="567.021" y2="1629.230"/>
      <line x1="568.021" y1="1679.230" x2="568.021" y2="1629.230"/>
      <line x1="569.021" y1="1679.230" x2="569.021" y2="1629.230"/>
      <line x1="570.021" y1="1679.230" x2="570.021" y2="1629.230"/>
      <line x1="571.021" y1="1679.230" x2="571.021" y2="1629.230"/>
      <line x1="572.021" y1="1679.230" x2="572.021" y2="1629.230"/>
      <line x1="573.021" y1="1679.230" x2="573.021" y2="1629.230"/>
      <line x1="574.021" y1="1679.230" x2="574.021" y2="1629.230"/>
      <line x1="575.021" y1="1679.230" x2="575.021" y2="1629.230"/>
      <line x1="576.021" y1="1679.230" x2="576.021" y2="1629.230"/>
      <line x1="577.021" y1="1679.230" x2="577.021" y2="1629.230"/>
      <line x1="578.021" y1="1679.230" x2="578.021" y2="1629.230"/>
      <line x1="579.021" y1="1679.230" x2="579.021" y2="1629.230"/>
      <line x1="580.021" y1="1679.230" x2="580.021" y2="1629.230"/>
      <line x1="581.021" y1="1679.230" x2="581.021" y2="1629.230"/>
      <line x1="582.021" y1="1679.230" x2="582.021" y2="1629.230"/>
      <line x1="583.021" y1="1679.230" x2="583.021" y2="1629.230"/>
      <line x1="584.021" y1="1679.230" x2="584.021" y2="1629.230"/>
      <line x1="585.021" y1="1679.230" x2="585.021" y2="1629.230"/>
      <line x1="586.021" y1="1679.230" x2="586.021" y2="1629.230"/>
      <line x1="587.021" y1="1679.230" x2="587.021" y2="1629.230"/>
      <line x1="588.021" y1="1679.230" x2="588.021" y2="1629.230"/>
      <line x1="589.021" y1="1679.230" x2="589.021" y2="1629.230"/>
      <line x1="590.021" y1="1679.230" x2="590.021" y2="1629.230"/>
      <line x1="591.021" y1="1679.230" x2="591.021" y2="1629.230"/>
      <line x1="592.021" y1="1679.230" x2="592.021" y2="1629.230"/>
      <line x1="593.021" y1="1679.230" x2="593.021" y2="1629.230"/>
      <line x1="594.021" y1="1679.230" x2="594.021" y2="1629.230"/>
      <line x1="595.021" y1="1679.230" x2="595.021" y2="1629.230"/>
      <line x1="596.021" y1="1679.230" x2="596.021" y2="1629.230"/>
      <line x1="487.021" y1="1629.130" x2="487.021" y2="1579.130"/>
      <line x1="488.021" y1="1629.130" x2="488.021" y2="1579.130"/>
      <line x1="489.021" y1="1629.130" x2="489.021" y2="1579.130"/>
      <line x1="490.021" y1="1629.130" x2="490.021" y2="1579.130"/>
      <line x1="491.021" y1="1629.130" x2="491.021" y2="1579.130"/>
      <line x1="492.021" y1="1629.130" x2="492.021" y2="1579.130"/>
      <line x1="493.021" y1="1629.130" x2="493.021" y2="1579.130"/>
      <line x1="494.021" y1="1629.130" x2="494.021" y2="1579.130"/>
      <line x1="495.021" y1="1629.130" x2="495.021" y2="1579.130"/>
      <line x1="496.021" y1="1629.130" x2="496.021" y2="1579.130"/>
      <line x1="497.021" y1="1629.130" x2="497.021" y2="1579.130"/>
      <line x1="498.021" y1="1629.130" x2="498.021" y2="1579.130"/>
      <line x1="499.021" y1="1629.130" x2="499.021" y2="1579.130"/>
      <line x1="500.021" y1="1629.130" x2="500.021" y2="1579.130"/>
      <line x1="501.021" y1="1629.130" x2="501.021" y2="1579.130"/>
      <line x1="502.021" y1="1629.130" x2="502.021" y2="1579.130"/>
      <line x1="503.021" y1="1629.130" x2="503.021" y2="1579.130"/>
      <line x1="504.021" y1="1629.130" x2="504.021" y2="1579.130"/>
      <line x1="505.021" y1="1629.130" x2="505.021" y2="1579.130"/>
      <line x1="506.021" y1="1629.130" x2="506.021" y2="1579.130"/>
      <line x1="507.021" y1="1629.130" x2="507.021" y2="1579.130"/>
      <line x1="508.021" y1="1629.130" x2="508.021" y2="1579.130"/>
      <line x1="509.021" y1="1629.130" x2="509.021" y2="1579.130"/>
      <line x1="510.021" y1="1629.130" x2="510.021" y2="1579.130"/>
      <line x1="511.021" y1="1629.130" x2="511.021" y2="1579.130"/>
      <line x1="512.021" y1="1629.130" x2="512.021" y2="1579.130"/>
      <line x1="513.021" y1="1629.130" x2="513.021" y2="1579.130"/>
      <line x1="514.021" y1="1629.130" x2="514.021" y2="1579.130"/>
      <line x1="515.021" y1="1629.130" x2="515.021" y2="1579.130"/>
      <line x1="516.021" y1="1629.130" x2="516.021" y2="1579.130"/>
      <line x1="517.021" y1="1629.130" x2="517.021" y2="1579.130"/>
      <line x1="518.021" y1="1629.130" x2="518.021" y2="1579.130"/>
      <line x1="519.021" y1="1629.130" x2="519.021" y2="1579.130"/>
      <line x1="520.021" y1="1629.130" x2="520.021" y2="1579.130"/>
      <line x1="521.021" y1="1629.130" x2="521.021" y2="1579.130"/>
      <line x1="522.021" y1="1629.130" x2="522.021" y2="1579.130"/>
      <line x1="523.021" y1="1629.130" x2="523.021" y2="1579.130"/>
      <line x1="524.021" y1="1629.130" x2="524.021" y2="1579.130"/>
      <line x1="525.021" y1="1629.130" x2="525.021" y2="1579.130"/>
      <line x1="526.021" y1="1629.130" x2="526.021" y2="1579.130"/>
      <line x1="527.021" y1="1629.130" x2="527.021" y2="1579.130"/>
      <line x1="528.021" y1="1629.130" x2="528.021" y2="1579.130"/>
      <line x1="529.021" y1="1629.130" x2="529.021" y2="1579.130"/>
      <line x1="530.021" y1="1629.130" x2="530.021" y2="1579.130"/>
      <line x1="531.021" y1="1629.130" x2="531.021" y2="1579.130"/>
      <line x1="532.021" y1="1629.130" x2="532.021" y2="1579.130"/>
      <line x1="533.021" y1="1629.130" x2="533.021" y2="1579.130"/>
      <line x1="534.021" y1="1629.130" x2="534.021" y2="1579.130"/>
      <line x1="535.021" y1="1629.130" x2="535.021" y2="1579.130"/>
      <line x1="536.021" y1="1629.130" x2="536.021" y2="1579.130"/>
      <line x1="537.021" y1="1629.130" x2="537.021" y2="1579.130"/>
      <line x1="538.021" y1="1629.130" x2="538.021" y2="1579.130"/>
      <line x1="539.021" y1="1629.130" x2="539.021" y2="1579.130"/>
      <line x1="540.021" y1="1629.130" x2="540.021" y2="1579.130"/>
      <line x1="541.021" y1="1629.130" x2="541.021" y2="1579.130"/>
      <line x1="542.021" y1="1629.130" x2="542.021" y2="1579.130"/>
      <line x1="543.021" y1="1629.130" x2="543.021" y2="1579.130"/>
      <line x1="544.021" y1="1629.130" x2="544.021" y2="1579.130"/>
      <line x1="545.021" y1="1629.130" x2="545.021" y2="1579.130"/>
      <line x1="546.021" y1="1629.130" x2="546.021" y2="1579.130"/>
      <line x1="547.021" y1="1629.130" x2="547.021" y2="1579.130"/>
      <line x1="548.021" y1="1629.130" x2="548.021" y2="1579.130"/>
      <line x1="549.021" y1="1629.130" x2="549.021" y2="1579.130"/>
      <line x1="550.021" y1="1629.130" x2="550.021" y2="1579.130"/>
      <line x1="551.021" y1="1629.130" x2="551.021" y2="1579.130"/>
      <line x1="552.021" y1="1629.130" x2="552.021" y2="1579.130"/>
      <line x1="553.021" y1="1629.130" x2="553.021" y2="1579.130"/>
      <line x1="554.021" y1="1629.130" x2="554.021" y2="1579.130"/>
      <line x1="555.021" y1="1629.130" x2="555.021" y2="1579.130"/>
      <line x1="556.021" y1="1629.130" x2="556.021" y2="1579.130"/>
      <line x1="557.021" y1="1629.130" x2="557.021" y2="1579.130"/>
      <line x1="558.021" y1="1629.130" x2="558.021" y2="1579.130"/>
      <line x1="559.021" y1="1629.130" x2="559.021" y2="1579.130"/>
      <line x1="560.021" y1="1629.130" x2="560.021" y2="1579.130"/>
      <line x1="561.021" y1="1629.130" x2="561.021" y2="1579.130"/>
      <line x1="562.021" y1="1629.130" x2="562.021" y2="1579.130"/>
      <line x1="563.021" y1="1629.130" x2="563.021" y2="1579.130"/>
      <line x1="564.021" y1="1629.130" x2="564.021" y2="1579.130"/>
      <line x1="565.021" y1="1629.130" x2="565.021" y2="1579.130"/>
      <line x1="566.021" y1="1629.130" x2="566.021" y2="1579.130"/>
      <line x1="567.021" y1="1629.130" x2="567.021" y2="1579.130"/>
      <line x1="568.021" y1="1629.130" x2="568.021" y2="1579.130"/>
      <line x1="569.021" y1="1629.130" x2="569.021" y2="1579.130"/>
      <line x1="570.021" y1="1629.130" x2="570.021" y2="1579.130"/>
      <line x1="571.021" y1="1629.130" x2="571.021" y2="1579.130"/>
      <line x1="572.021" y1="1629.130" x2="572.021" y2="1579.130"/>
      <line x1="573.021" y1="1629.130" x2="573.021" y2="1579.130"/>
      <line x1="574.021" y1="1629.130" x2="574.021" y2="1579.130"/>
      <line x1="575.021" y1="1629.130" x2="575.021" y2="1579.130"/>
      <line x1="576.021" y1="1629.130" x2="576.021" y2="1579.130"/>
      <line x1="577.021" y1="1629.130" x2="577.021" y2="1579.130"/>
      <line x1="578.021" y1="1629.130" x2="578.021" y2="1579.130"/>
      <line x1="579.021" y1="1629.130" x2="579.021" y2="1579.130"/>
      <line x1="580.021" y1="1629.130" x2="580.021" y2="1579.130"/>
      <line x1="581.021" y1="1629.130" x2="581.021" y2="1579.130"/>
      <line x1="582.021" y1="1629.130" x2="582.021" y2="1579.130"/>
      <line x1="583.021" y1="1629.130" x2="583.021" y2="1579.130"/>
      <line x1="584.021" y1="1629.130" x2="584.021" y2="1579.130"/>
      <line x1="585.021" y1="1629.130" x2="585.021" y2="1579.130"/>
      <line x1="586.021" y1="1629.130" x2="586.021" y2="1579.130"/>
      <line x1="587.021" y1="1629.130" x2="587.021" y2="1579.130"/>
      <line x1="588.021" y1="1629.130" x2="588.021" y2="1579.130"/>
      <line x1="589.021" y1="1629.130" x2="589.021" y2="1579.130"/>
      <line x1="590.021" y1="1629.130" x2="590.021" y2="1579.130"/>
      <line x1="591.021" y1="1629.130" x2="591.021" y2="1579.130"/>
      <line x1="592.021" y1="1629.130" x2="592.021" y2="1579.130"/>
      <line x1="593.021" y1="1629.130" x2="593.021" y2="1579.130"/>
      <line x1="594.021" y1="1629.130" x2="594.021" y2="1579.130"/>
      <line x1="595.021" y1="1629.130" x2="595.021" y2="1579.130"/>
      <line x1="596.021" y1="1629.130" x2="596.021" y2="1579.130"/>
      <line x1="487.021" y1="1579.030" x2="487.021" y2="1529.030"/>
      <line x1="488.021" y1="1579.030" x2="488.021" y2="1529.030"/>
      <line x1="489.021" y1="1579.030" x2="489.021" y2="1529.030"/>
      <line x1="490.021" y1="1579.030" x2="490.021" y2="1529.030"/>
      <line x1="491.021" y1="1579.030" x2="491.021" y2="1529.030"/>
      <line x1="492.021" y1="1579.030" x2="492.021" y2="1529.030"/>
      <line x1="493.021" y1="1579.030" x2="493.021" y2="1529.030"/>
      <line x1="494.021" y1="1579.030" x2="494.021" y2="1529.030"/>
      <line x1="495.021" y1="1579.030" x2="495.021" y2="1529.030"/>
      <line x1="496.021" y1="1579.030" x2="496.021" y2="1529.030"/>
      <line x1="497.021" y1="1579.030" x2="497.021" y2="1529.030"/>
      <line x1="498.021" y1="1579.030" x2="498.021" y2="1529.030"/>
      <line x1="499.021" y1="1579.030" x2="499.021" y2="1529.030"/>
      <line x1="500.021" y1="1579.030" x2="500.021" y2="1529.030"/>
      <line x1="501.021" y1="1579.030" x2="501.021" y2="1529.030"/>
      <line x1="502.021" y1="1579.030" x2="502.021" y2="1529.030"/>
      <line x1="503.021" y1="1579.030" x2="503.021" y2="1529.030"/>
      <line x1="504.021" y1="1579.030" x2="504.021" y2="1529.030"/>
      <line x1="505.021" y1="1579.030" x2="505.021" y2="1529.030"/>
      <line x1="506.021" y1="1579.030" x2="506.021" y2="1529.030"/>
      <line x1="507.021" y1="1579.030" x2="507.021" y2="1529.030"/>
      <line x1="508.021" y1="1579.030" x2="508.021" y2="1529.030"/>
      <line x1="509.021" y1="1579.030" x2="509.021" y2="1529.030"/>
      <line x1="510.021" y1="1579.030" x2="510.021" y2="1529.030"/>
      <line x1="511.021" y1="1579.030" x2="511.021" y2="1529.030"/>
      <line x1="512.021" y1="1579.030" x2="512.021" y2="1529.030"/>
      <line x1="513.021" y1="1579.030" x2="513.021" y2="1529.030"/>
      <line x1="514.021" y1="1579.030" x2="514.021" y2="1529.030"/>
      <line x1="515.021" y1="1579.030" x2="515.021" y2="1529.030"/>
      <line x1="516.021" y1="1579.030" x2="516.021" y2="1529.030"/>
      <line x1="517.021" y1="1579.030" x2="517.021" y2="1529.030"/>
      <line x1="518.021" y1="1579.030" x2="518.021" y2="1529.030"/>
      <line x1="519.021" y1="1579.030" x2="519.021" y2="1529.030"/>
      <line x1="520.021" y1="1579.030" x2="520.021" y2="1529.030"/>
      <line x1="521.021" y1="1579.030" x2="521.021" y2="1529.030"/>
      <line x1="522.021" y1="1579.030" x2="522.021" y2="1529.030"/>
      <line x1="523.021" y1="1579.030" x2="523.021" y2="1529.030"/>
      <line x1="524.021" y1="1579.030" x2="524.021" y2="1529.030"/>
      <line x1="525.021" y1="1579.030" x2="525.021" y2="1529.030"/>
      <line x1="526.021" y1="1579.030" x2="526.021" y2="1529.030"/>
      <line x1="527.021" y1="1579.030" x2="527.021" y2="1529.030"/>
      <line x1="528.021" y1="1579.030" x2="528.021" y2="1529.030"/>
      <line x1="529.021" y1="1579.030" x2="529.021" y2="1529.030"/>
      <line x1="530.021" y1="1579.030" x2="530.021" y2="1529.030"/>
      <line x1="531.021" y1="1579.030" x2="531.021" y2="1529.030"/>
      <line x1="532.021" y1="1579.030" x2="532.021" y2="1529.030"/>
      <line x1="533.021" y1="1579.030" x2="533.021" y2="1529.030"/>
      <line x1="534.021" y1="1579.030" x2="534.021" y2="1529.030"/>
      <line x1="535.021" y1="1579.030" x2="535.021" y2="1529.030"/>
      <line x1="536.021" y1="1579.030" x2="536.021" y2="1529.030"/>
      <line x1="537.021" y1="1579.030" x2="537.021" y2="1529.030"/>
      <line x1="538.021" y1="1579.030" x2="538.021" y2="1529.030"/>
      <line x1="539.021" y1="1579.030" x2="539.021" y2="1529.030"/>
      <line x1="540.021" y1="1579.030" x2="540.021" y2="1529.030"/>
      <line x1="541.021" y1="1579.030" x2="541.021" y2="1529.030"/>
      <line x1="542.021" y1="1579.030" x2="542.021" y2="1529.030"/>
      <line x1="543.021" y1="1579.030" x2="543.021" y2="1529.030"/>
      <line x1="544.021" y1="1579.030" x2="544.021" y2="1529.030"/>
      <line x1="545.021" y1="1579.030" x2="545.021" y2="1529.030"/>
      <line x1="546.021" y1="1579.030" x2="546.021" y2="1529.030"/>
      <line x1="547.021" y1="1579.030" x2="547.021" y2="1529.030"/>
      <line x1="548.021" y1="1579.030" x2="548.021" y2="1529.030"/>
      <line x1="549.021" y1="1579.030" x2="549.021" y2="1529.030"/>
      <line x1="550.021" y1="1579.030" x2="550.021" y2="1529.030"/>
      <line x1="551.021" y1="1579.030" x2="551.021" y2="1529.030"/>
      <line x1="552.021" y1="1579.030" x2="552.021" y2="1529.030"/>
      <line x1="553.021" y1="1579.030" x2="553.021" y2="1529.030"/>
      <line x1="554.021" y1="1579.030" x2="554.021" y2="1529.030"/>
      <line x1="555.021" y1="1579.030" x2="555.021" y2="1529.030"/>
      <line x1="556.021" y1="1579.030" x2="556.021" y2="1529.030"/>
      <line x1="557.021" y1="1579.030" x2="557.021" y2="1529.030"/>
      <line x1="558.021" y1="1579.030" x2="558.021" y2="1529.030"/>
      <line x1="559.021" y1="1579.030" x2="559.021" y2="1529.030"/>
      <line x1="560.021" y1="1579.030" x2="560.021" y2="1529.030"/>
      <line x1="561.021" y1="1579.030" x2="561.021" y2="1529.030"/>
      <line x1="562.021" y1="1579.030" x2="562.021" y2="1529.030"/>
      <line x1="563.021" y1="1579.030" x2="563.021" y2="1529.030"/>
      <line x1="564.021" y1="1579.030" x2="564.021" y2="1529.030"/>
      <line x1="565.021" y1="1579.030" x2="565.021" y2="1529.030"/>
      <line x1="566.021" y1="1579.030" x2="566.021" y2="1529.030"/>
      <line x1="567.021" y1="1579.030" x2="567.021" y2="1529.030"/>
      <line x1="568.021" y1="1579.030" x2="568.021" y2="1529.030"/>
      <line x1="569.021" y1="1579.030" x2="569.021" y2="1529.030"/>
      <line x1="570.021" y1="1579.030" x2="570.021" y2="1529.030"/>
      <line x1="571.021" y1="1579.030" x2="571.021" y2="1529.030"/>
      <line x1="572.021" y1="1579.030" x2="572.021" y2="1529.030"/>
      <line x1="573.021" y1="1579.030" x2="573.021" y2="1529.030"/>
      <line x1="574.021" y1="1579.030" x2="574.021" y2="1529.030"/>
      <line x1="575.021" y1="1579.030" x2="575.021" y2="1529.030"/>
      <line x1="576.021" y1="1579.030" x2="576.021" y2="1529.030"/>
      <line x1="577.021" y1="1579.030" x2="577.021" y2="1529.030"/>
      <line x1="578.021" y1="1579.030" x2="578.021" y2="1529.030"/>
      <line x1="579.021" y1="1579.030" x2="579.021" y2="1529.030"/>
      <line x1="580.021" y1="1579.030" x2="580.021" y2="1529.030"/>
      <line x1="581.021" y1="1579.030" x2="581.021" y2="1529.030"/>
      <line x1="582.021" y1="1579.030" x2="582.021" y2="1529.030"/>
      <line x1="583.021" y1="1579.030" x2="583.021" y2="1529.030"/>
      <line x1="584.021" y1="1579.030" x2="584.021" y2="1529.030"/>
      <line x1="585.021" y1="1579.030" x2="585.021" y2="1529.030"/>
      <line x1="586.021" y1="1579.030" x2="586.021" y2="1529.030"/>
      <line x1="587.021" y1="1579.030" x2="587.021" y2="1529.030"/>
      <line x1="588.021" y1="1579.030" x2="588.021" y2="1529.030"/>
      <line x1="589.021" y1="1579.030" x2="589.021" y2="1529.030"/>
      <line x1="590.021" y1="1579.030" x2="590.021" y2="1529.030"/>
      <line x1="591.021" y1="1579.030" x2="591.021" y2="1529.030"/>
      <line x1="592.021" y1="1579.030" x2="592.021" y2="1529.030"/>
      <line x1="593.021" y1="1579.030" x2="593.021" y2="1529.030"/>
      <line x1="594.021" y1="1579.030" x2="594.021" y2="1529.030"/>
      <line x1="595.021" y1="1579.030" x2="595.021" y2="1529.030"/>
      <line x1="596.021" y1="1579.030" x2="596.021" y2="1529.030"/>
      <line x1="487.021" y1="1528.930" x2="487.021" y2="1525.229"/>
      <line x1="490.021" y1="1528.930" x2="490.021" y2="1525.229"/>
      <line x1="493.021" y1="1528.930" x2="493.021" y2="1525.229"/>
      <line x1="492.021" y1="1528.930" x2="492.021" y2="1525.229"/>
      <line x1="496.021" y1="1528.930" x2="496.021" y2="1525.229"/>
      <line x1="495.021" y1="1528.930" x2="495.021" y2="1525.229"/>
      <line x1="499.021" y1="1528.930" x2="499.021" y2="1525.229"/>
      <line x1="498.021" y1="1528.930" x2="498.021" y2="1525.229"/>
      <line x1="502.021" y1="1528.930" x2="502.021" y2="1525.229"/>
      <line x1="501.021" y1="1528.930" x2="501.021" y2="1525.229"/>
      <line x1="504.021" y1="1528.930" x2="504.021" y2="1525.229"/>
      <line x1="515.021" y1="1528.930" x2="515.021" y2="1525.229"/>
      <line x1="516.021" y1="1528.930" x2="516.021" y2="1525.229"/>
      <line x1="513.021" y1="1528.930" x2="513.021" y2="1525.229"/>
      <line x1="505.021" y1="1528.930" x2="505.021" y2="1525.229"/>
      <line x1="507.021" y1="1528.930" x2="507.021" y2="1525.229"/>
      <line x1="512.021" y1="1528.930" x2="512.021" y2="1525.229"/>
      <line x1="510.021" y1="1528.930" x2="510.021" y2="1525.229"/>
      <line x1="514.021" y1="1528.930" x2="514.021" y2="1525.229"/>
      <line x1="488.021" y1="1528.930" x2="488.021" y2="1525.229"/>
      <line x1="491.021" y1="1528.930" x2="491.021" y2="1525.229"/>
      <line x1="494.021" y1="1528.930" x2="494.021" y2="1525.229"/>
      <line x1="497.021" y1="1528.930" x2="497.021" y2="1525.229"/>
      <line x1="500.021" y1="1528.930" x2="500.021" y2="1525.229"/>
      <line x1="503.021" y1="1528.930" x2="503.021" y2="1525.229"/>
      <line x1="506.021" y1="1528.930" x2="506.021" y2="1525.229"/>
      <line x1="509.021" y1="1528.930" x2="509.021" y2="1525.229"/>
      <line x1="508.021" y1="1528.930" x2="508.021" y2="1525.229"/>
      <line x1="511.021" y1="1528.930" x2="511.021" y2="1525.229"/>
      <line x1="489.021" y1="1528.930" x2="489.021" y2="1525.229"/>
      <line x1="525.021" y1="1528.930" x2="525.021" y2="1525.229"/>
      <line x1="535.021" y1="1528.930" x2="535.021" y2="1525.229"/>
      <line x1="534.021" y1="1528.930" x2="534.021" y2="1525.229"/>
      <line x1="533.021" y1="1528.930" x2="533.021" y2="1525.229"/>
      <line x1="532.021" y1="1528.930" x2="532.021" y2="1525.229"/>
      <line x1="531.021" y1="1528.930" x2="531.021" y2="1525.229"/>
      <line x1="530.021" y1="1528.930" x2="530.021" y2="1525.229"/>
      <line x1="529.021" y1="1528.930" x2="529.021" y2="1525.229"/>
      <line x1="528.021" y1="1528.930" x2="528.021" y2="1525.229"/>
      <line x1="527.021" y1="1528.930" x2="527.021" y2="1525.229"/>
      <line x1="526.021" y1="1528.930" x2="526.021" y2="1525.229"/>
      <line x1="536.021" y1="1528.930" x2="536.021" y2="1525.229"/>
      <line x1="524.021" y1="1528.930" x2="524.021" y2="1525.229"/>
      <line x1="523.021" y1="1528.930" x2="523.021" y2="1525.229"/>
      <line x1="522.021" y1="1528.930" x2="522.021" y2="1525.229"/>
      <line x1="521.021" y1="1528.930" x2="521.021" y2="1525.229"/>
      <line x1="520.021" y1="1528.930" x2="520.021" y2="1525.229"/>
      <line x1="519.021" y1="1528.930" x2="519.021" y2="1525.229"/>
      <line x1="518.021" y1="1528.930" x2="518.021" y2="1525.229"/>
      <line x1="517.021" y1="1528.930" x2="517.021" y2="1525.229"/>
      <line x1="569.021" y1="1528.930" x2="569.021" y2="1525.229"/>
      <line x1="579.021" y1="1528.930" x2="579.021" y2="1525.229"/>
      <line x1="578.021" y1="1528.930" x2="578.021" y2="1525.229"/>
      <line x1="577.021" y1="1528.930" x2="577.021" y2="1525.229"/>
      <line x1="576.021" y1="1528.930" x2="576.021" y2="1525.229"/>
      <line x1="575.021" y1="1528.930" x2="575.021" y2="1525.229"/>
      <line x1="574.021" y1="1528.930" x2="574.021" y2="1525.229"/>
      <line x1="573.021" y1="1528.930" x2="573.021" y2="1525.229"/>
      <line x1="572.021" y1="1528.930" x2="572.021" y2="1525.229"/>
      <line x1="571.021" y1="1528.930" x2="571.021" y2="1525.229"/>
      <line x1="570.021" y1="1528.930" x2="570.021" y2="1525.229"/>
      <line x1="580.021" y1="1528.930" x2="580.021" y2="1525.229"/>
      <line x1="568.021" y1="1528.930" x2="568.021" y2="1525.229"/>
      <line x1="567.021" y1="1528.930" x2="567.021" y2="1525.229"/>
      <line x1="566.021" y1="1528.930" x2="566.021" y2="1525.229"/>
      <line x1="565.021" y1="1528.930" x2="565.021" y2="1525.229"/>
      <line x1="564.021" y1="1528.930" x2="564.021" y2="1525.229"/>
      <line x1="563.021" y1="1528.930" x2="563.021" y2="1525.229"/>
      <line x1="562.021" y1="1528.930" x2="562.021" y2="1525.229"/>
      <line x1="561.021" y1="1528.930" x2="561.021" y2="1525.229"/>
      <line x1="560.021" y1="1528.930" x2="560.021" y2="1525.229"/>
      <line x1="559.021" y1="1528.930" x2="559.021" y2="1525.229"/>
      <line x1="586.021" y1="1528.930" x2="586.021" y2="1525.229"/>
      <line x1="585.021" y1="1528.930" x2="585.021" y2="1525.229"/>
      <line x1="584.021" y1="1528.930" x2="584.021" y2="1525.229"/>
      <line x1="583.021" y1="1528.930" x2="583.021" y2="1525.229"/>
      <line x1="582.021" y1="1528.930" x2="582.021" y2="1525.229"/>
      <line x1="581.021" y1="1528.930" x2="581.021" y2="1525.229"/>
      <line x1="547.021" y1="1528.930" x2="547.021" y2="1525.229"/>
      <line x1="557.021" y1="1528.930" x2="557.021" y2="1525.229"/>
      <line x1="556.021" y1="1528.930" x2="556.021" y2="1525.229"/>
      <line x1="555.021" y1="1528.930" x2="555.021" y2="1525.229"/>
      <line x1="554.021" y1="1528.930" x2="554.021" y2="1525.229"/>
      <line x1="553.021" y1="1528.930" x2="553.021" y2="1525.229"/>
      <line x1="552.021" y1="1528.930" x2="552.021" y2="1525.229"/>
      <line x1="551.021" y1="1528.930" x2="551.021" y2="1525.229"/>
      <line x1="550.021" y1="1528.930" x2="550.021" y2="1525.229"/>
      <line x1="549.021" y1="1528.930" x2="549.021" y2="1525.229"/>
      <line x1="548.021" y1="1528.930" x2="548.021" y2="1525.229"/>
      <line x1="558.021" y1="1528.930" x2="558.021" y2="1525.229"/>
      <line x1="546.021" y1="1528.930" x2="546.021" y2="1525.229"/>
      <line x1="545.021" y1="1528.930" x2="545.021" y2="1525.229"/>
      <line x1="544.021" y1="1528.930" x2="544.021" y2="1525.229"/>
      <line x1="543.021" y1="1528.930" x2="543.021" y2="1525.229"/>
      <line x1="542.021" y1="1528.930" x2="542.021" y2="1525.229"/>
      <line x1="541.021" y1="1528.930" x2="541.021" y2="1525.229"/>
      <line x1="540.021" y1="1528.930" x2="540.021" y2="1525.229"/>
      <line x1="539.021" y1="1528.930" x2="539.021" y2="1525.229"/>
      <line x1="538.021" y1="1528.930" x2="538.021" y2="1525.229"/>
      <line x1="537.021" y1="1528.930" x2="537.021" y2="1525.229"/>
      <line x1="595.021" y1="1528.930" x2="595.021" y2="1525.229"/>
      <line x1="594.021" y1="1528.930" x2="594.021" y2="1525.229"/>
      <line x1="591.021" y1="1528.930" x2="591.021" y2="1525.229"/>
      <line x1="592.021" y1="1528.930" x2="592.021" y2="1525.229"/>
      <line x1="590.021" y1="1528.930" x2="590.021" y2="1525.229"/>
      <line x1="589.021" y1="1528.930" x2="589.021" y2="1525.229"/>
      <line x1="588.021" y1="1528.930" x2="588.021" y2="1525.229"/>
      <line x1="587.021" y1="1528.930" x2="587.021" y2="1525.229"/>
      <line x1="593.021" y1="1528.930" x2="593.021" y2="1525.229"/>
      <line x1="596.021" y1="1528.930" x2="596.021" y2="1525.229"/>
      <line x1="3.799" y1="1679.230" x2="3.799" y2="1629.230"/>
      <line x1="4.799" y1="1679.230" x2="4.799" y2="1629.230"/>
      <line x1="5.799" y1="1679.230" x2="5.799" y2="1629.230"/>
      <line x1="6.799" y1="1679.230" x2="6.799" y2="1629.230"/>
      <line x1="7.799" y1="1679.230" x2="7.799" y2="1629.230"/>
      <line x1="8.799" y1="1679.230" x2="8.799" y2="1629.230"/>
      <line x1="9.799" y1="1679.230" x2="9.799" y2="1629.230"/>
      <line x1="10.799" y1="1679.230" x2="10.799" y2="1629.230"/>
      <line x1="11.799" y1="1679.230" x2="11.799" y2="1629.230"/>
      <line x1="12.799" y1="1679.230" x2="12.799" y2="1629.230"/>
      <line x1="13.799" y1="1679.230" x2="13.799" y2="1629.230"/>
      <line x1="14.799" y1="1679.230" x2="14.799" y2="1629.230"/>
      <line x1="15.799" y1="1679.230" x2="15.799" y2="1629.230"/>
      <line x1="16.799" y1="1679.230" x2="16.799" y2="1629.230"/>
      <line x1="17.799" y1="1679.230" x2="17.799" y2="1629.230"/>
      <line x1="18.799" y1="1679.230" x2="18.799" y2="1629.230"/>
      <line x1="19.799" y1="1679.230" x2="19.799" y2="1629.230"/>
      <line x1="20.799" y1="1679.230" x2="20.799" y2="1629.230"/>
      <line x1="21.799" y1="1679.230" x2="21.799" y2="1629.230"/>
      <line x1="22.799" y1="1679.230" x2="22.799" y2="1629.230"/>
      <line x1="23.799" y1="1679.230" x2="23.799" y2="1629.230"/>
      <line x1="24.799" y1="1679.230" x2="24.799" y2="1629.230"/>
      <line x1="25.799" y1="1679.230" x2="25.799" y2="1629.230"/>
      <line x1="26.799" y1="1679.230" x2="26.799" y2="1629.230"/>
      <line x1="27.799" y1="1679.230" x2="27.799" y2="1629.230"/>
      <line x1="28.799" y1="1679.230" x2="28.799" y2="1629.230"/>
      <line x1="29.799" y1="1679.230" x2="29.799" y2="1629.230"/>
      <line x1="30.799" y1="1679.230" x2="30.799" y2="1629.230"/>
      <line x1="31.799" y1="1679.230" x2="31.799" y2="1629.230"/>
      <line x1="32.799" y1="1679.230" x2="32.799" y2="1629.230"/>
      <line x1="33.799" y1="1679.230" x2="33.799" y2="1629.230"/>
      <line x1="34.799" y1="1679.230" x2="34.799" y2="1629.230"/>
      <line x1="35.799" y1="1679.230" x2="35.799" y2="1629.230"/>
      <line x1="36.799" y1="1679.230" x2="36.799" y2="1629.230"/>
      <line x1="37.799" y1="1679.230" x2="37.799" y2="1629.230"/>
      <line x1="38.799" y1="1679.230" x2="38.799" y2="1629.230"/>
      <line x1="39.799" y1="1679.230" x2="39.799" y2="1629.230"/>
      <line x1="40.799" y1="1679.230" x2="40.799" y2="1629.230"/>
      <line x1="41.799" y1="1679.230" x2="41.799" y2="1629.230"/>
      <line x1="42.799" y1="1679.230" x2="42.799" y2="1629.230"/>
      <line x1="43.799" y1="1679.230" x2="43.799" y2="1629.230"/>
      <line x1="44.799" y1="1679.230" x2="44.799" y2="1629.230"/>
      <line x1="45.799" y1="1679.230" x2="45.799" y2="1629.230"/>
      <line x1="46.799" y1="1679.230" x2="46.799" y2="1629.230"/>
      <line x1="47.799" y1="1679.230" x2="47.799" y2="1629.230"/>
      <line x1="48.799" y1="1679.230" x2="48.799" y2="1629.230"/>
      <line x1="49.799" y1="1679.230" x2="49.799" y2="1629.230"/>
      <line x1="50.799" y1="1679.230" x2="50.799" y2="1629.230"/>
      <line x1="51.799" y1="1679.230" x2="51.799" y2="1629.230"/>
      <line x1="52.799" y1="1679.230" x2="52.799" y2="1629.230"/>
      <line x1="53.799" y1="1679.230" x2="53.799" y2="1629.230"/>
      <line x1="54.799" y1="1679.230" x2="54.799" y2="1629.230"/>
      <line x1="55.799" y1="1679.230" x2="55.799" y2="1629.230"/>
      <line x1="56.799" y1="1679.230" x2="56.799" y2="1629.230"/>
      <line x1="57.799" y1="1679.230" x2="57.799" y2="1629.230"/>
      <line x1="58.799" y1="1679.230" x2="58.799" y2="1629.230"/>
      <line x1="59.799" y1="1679.230" x2="59.799" y2="1629.230"/>
      <line x1="60.799" y1="1679.230" x2="60.799" y2="1629.230"/>
      <line x1="61.799" y1="1679.230" x2="61.799" y2="1629.230"/>
      <line x1="62.799" y1="1679.230" x2="62.799" y2="1629.230"/>
      <line x1="63.799" y1="1679.230" x2="63.799" y2="1629.230"/>
      <line x1="64.799" y1="1679.230" x2="64.799" y2="1629.230"/>
      <line x1="65.799" y1="1679.230" x2="65.799" y2="1629.230"/>
      <line x1="66.799" y1="1679.230" x2="66.799" y2="1629.230"/>
      <line x1="67.799" y1="1679.230" x2="67.799" y2="1629.230"/>
      <line x1="68.799" y1="1679.230" x2="68.799" y2="1629.230"/>
      <line x1="69.799" y1="1679.230" x2="69.799" y2="1629.230"/>
      <line x1="70.799" y1="1679.230" x2="70.799" y2="1629.230"/>
      <line x1="71.799" y1="1679.230" x2="71.799" y2="1629.230"/>
      <line x1="72.799" y1="1679.230" x2="72.799" y2="1629.230"/>
      <line x1="73.799" y1="1679.230" x2="73.799" y2="1629.230"/>
      <line x1="74.799" y1="1679.230" x2="74.799" y2="1629.230"/>
      <line x1="75.799" y1="1679.230" x2="75.799" y2="1629.230"/>
      <line x1="76.799" y1="1679.230" x2="76.799" y2="1629.230"/>
      <line x1="77.799" y1="1679.230" x2="77.799" y2="1629.230"/>
      <line x1="78.799" y1="1679.230" x2="78.799" y2="1629.230"/>
      <line x1="79.799" y1="1679.230" x2="79.799" y2="1629.230"/>
      <line x1="80.799" y1="1679.230" x2="80.799" y2="1629.230"/>
      <line x1="81.799" y1="1679.230" x2="81.799" y2="1629.230"/>
      <line x1="82.799" y1="1679.230" x2="82.799" y2="1629.230"/>
      <line x1="83.799" y1="1679.230" x2="83.799" y2="1629.230"/>
      <line x1="84.799" y1="1679.230" x2="84.799" y2="1629.230"/>
      <line x1="85.799" y1="1679.230" x2="85.799" y2="1629.230"/>
      <line x1="86.799" y1="1679.230" x2="86.799" y2="1629.230"/>
      <line x1="87.799" y1="1679.230" x2="87.799" y2="1629.230"/>
      <line x1="88.799" y1="1679.230" x2="88.799" y2="1629.230"/>
      <line x1="89.799" y1="1679.230" x2="89.799" y2="1629.230"/>
      <line x1="90.799" y1="1679.230" x2="90.799" y2="1629.230"/>
      <line x1="91.799" y1="1679.230" x2="91.799" y2="1629.230"/>
      <line x1="92.799" y1="1679.230" x2="92.799" y2="1629.230"/>
      <line x1="93.799" y1="1679.230" x2="93.799" y2="1629.230"/>
      <line x1="94.799" y1="1679.230" x2="94.799" y2="1629.230"/>
      <line x1="95.799" y1="1679.230" x2="95.799" y2="1629.230"/>
      <line x1="96.799" y1="1679.230" x2="96.799" y2="1629.230"/>
      <line x1="97.799" y1="1679.230" x2="97.799" y2="1629.230"/>
      <line x1="98.799" y1="1679.230" x2="98.799" y2="1629.230"/>
      <line x1="99.799" y1="1679.230" x2="99.799" y2="1629.230"/>
      <line x1="100.799" y1="1679.230" x2="100.799" y2="1629.230"/>
      <line x1="101.799" y1="1679.230" x2="101.799" y2="1629.230"/>
      <line x1="102.799" y1="1679.230" x2="102.799" y2="1629.230"/>
      <line x1="103.799" y1="1679.230" x2="103.799" y2="1629.230"/>
      <line x1="104.799" y1="1679.230" x2="104.799" y2="1629.230"/>
      <line x1="105.799" y1="1679.230" x2="105.799" y2="1629.230"/>
      <line x1="106.799" y1="1679.230" x2="106.799" y2="1629.230"/>
      <line x1="107.799" y1="1679.230" x2="107.799" y2="1629.230"/>
      <line x1="108.799" y1="1679.230" x2="108.799" y2="1629.230"/>
      <line x1="109.799" y1="1679.230" x2="109.799" y2="1629.230"/>
      <line x1="110.799" y1="1679.230" x2="110.799" y2="1629.230"/>
      <line x1="111.799" y1="1679.230" x2="111.799" y2="1629.230"/>
      <line x1="112.799" y1="1679.230" x2="112.799" y2="1629.230"/>
      <line x1="3.799" y1="1629.130" x2="3.799" y2="1579.130"/>
      <line x1="4.799" y1="1629.130" x2="4.799" y2="1579.130"/>
      <line x1="5.799" y1="1629.130" x2="5.799" y2="1579.130"/>
      <line x1="6.799" y1="1629.130" x2="6.799" y2="1579.130"/>
      <line x1="7.799" y1="1629.130" x2="7.799" y2="1579.130"/>
      <line x1="8.799" y1="1629.130" x2="8.799" y2="1579.130"/>
      <line x1="9.799" y1="1629.130" x2="9.799" y2="1579.130"/>
      <line x1="10.799" y1="1629.130" x2="10.799" y2="1579.130"/>
      <line x1="11.799" y1="1629.130" x2="11.799" y2="1579.130"/>
      <line x1="12.799" y1="1629.130" x2="12.799" y2="1579.130"/>
      <line x1="13.799" y1="1629.130" x2="13.799" y2="1579.130"/>
      <line x1="14.799" y1="1629.130" x2="14.799" y2="1579.130"/>
      <line x1="15.799" y1="1629.130" x2="15.799" y2="1579.130"/>
      <line x1="16.799" y1="1629.130" x2="16.799" y2="1579.130"/>
      <line x1="17.799" y1="1629.130" x2="17.799" y2="1579.130"/>
      <line x1="18.799" y1="1629.130" x2="18.799" y2="1579.130"/>
      <line x1="19.799" y1="1629.130" x2="19.799" y2="1579.130"/>
      <line x1="20.799" y1="1629.130" x2="20.799" y2="1579.130"/>
      <line x1="21.799" y1="1629.130" x2="21.799" y2="1579.130"/>
      <line x1="22.799" y1="1629.130" x2="22.799" y2="1579.130"/>
      <line x1="23.799" y1="1629.130" x2="23.799" y2="1579.130"/>
      <line x1="24.799" y1="1629.130" x2="24.799" y2="1579.130"/>
      <line x1="25.799" y1="1629.130" x2="25.799" y2="1579.130"/>
      <line x1="26.799" y1="1629.130" x2="26.799" y2="1579.130"/>
      <line x1="27.799" y1="1629.130" x2="27.799" y2="1579.130"/>
      <line x1="28.799" y1="1629.130" x2="28.799" y2="1579.130"/>
      <line x1="29.799" y1="1629.130" x2="29.799" y2="1579.130"/>
      <line x1="30.799" y1="1629.130" x2="30.799" y2="1579.130"/>
      <line x1="31.799" y1="1629.130" x2="31.799" y2="1579.130"/>
      <line x1="32.799" y1="1629.130" x2="32.799" y2="1579.130"/>
      <line x1="33.799" y1="1629.130" x2="33.799" y2="1579.130"/>
      <line x1="34.799" y1="1629.130" x2="34.799" y2="1579.130"/>
      <line x1="35.799" y1="1629.130" x2="35.799" y2="1579.130"/>
      <line x1="36.799" y1="1629.130" x2="36.799" y2="1579.130"/>
      <line x1="37.799" y1="1629.130" x2="37.799" y2="1579.130"/>
      <line x1="38.799" y1="1629.130" x2="38.799" y2="1579.130"/>
      <line x1="39.799" y1="1629.130" x2="39.799" y2="1579.130"/>
      <line x1="40.799" y1="1629.130" x2="40.799" y2="1579.130"/>
      <line x1="41.799" y1="1629.130" x2="41.799" y2="1579.130"/>
      <line x1="42.799" y1="1629.130" x2="42.799" y2="1579.130"/>
      <line x1="43.799" y1="1629.130" x2="43.799" y2="1579.130"/>
      <line x1="44.799" y1="1629.130" x2="44.799" y2="1579.130"/>
      <line x1="45.799" y1="1629.130" x2="45.799" y2="1579.130"/>
      <line x1="46.799" y1="1629.130" x2="46.799" y2="1579.130"/>
      <line x1="47.799" y1="1629.130" x2="47.799" y2="1579.130"/>
      <line x1="48.799" y1="1629.130" x2="48.799" y2="1579.130"/>
      <line x1="49.799" y1="1629.130" x2="49.799" y2="1579.130"/>
      <line x1="50.799" y1="1629.130" x2="50.799" y2="1579.130"/>
      <line x1="51.799" y1="1629.130" x2="51.799" y2="1579.130"/>
      <line x1="52.799" y1="1629.130" x2="52.799" y2="1579.130"/>
      <line x1="53.799" y1="1629.130" x2="53.799" y2="1579.130"/>
      <line x1="54.799" y1="1629.130" x2="54.799" y2="1579.130"/>
      <line x1="55.799" y1="1629.130" x2="55.799" y2="1579.130"/>
      <line x1="56.799" y1="1629.130" x2="56.799" y2="1579.130"/>
      <line x1="57.799" y1="1629.130" x2="57.799" y2="1579.130"/>
      <line x1="58.799" y1="1629.130" x2="58.799" y2="1579.130"/>
      <line x1="59.799" y1="1629.130" x2="59.799" y2="1579.130"/>
      <line x1="60.799" y1="1629.130" x2="60.799" y2="1579.130"/>
      <line x1="61.799" y1="1629.130" x2="61.799" y2="1579.130"/>
      <line x1="62.799" y1="1629.130" x2="62.799" y2="1579.130"/>
      <line x1="63.799" y1="1629.130" x2="63.799" y2="1579.130"/>
      <line x1="64.799" y1="1629.130" x2="64.799" y2="1579.130"/>
      <line x1="65.799" y1="1629.130" x2="65.799" y2="1579.130"/>
      <line x1="66.799" y1="1629.130" x2="66.799" y2="1579.130"/>
      <line x1="67.799" y1="1629.130" x2="67.799" y2="1579.130"/>
      <line x1="68.799" y1="1629.130" x2="68.799" y2="1579.130"/>
      <line x1="69.799" y1="1629.130" x2="69.799" y2="1579.130"/>
      <line x1="70.799" y1="1629.130" x2="70.799" y2="1579.130"/>
      <line x1="71.799" y1="1629.130" x2="71.799" y2="1579.130"/>
      <line x1="72.799" y1="1629.130" x2="72.799" y2="1579.130"/>
      <line x1="73.799" y1="1629.130" x2="73.799" y2="1579.130"/>
      <line x1="74.799" y1="1629.130" x2="74.799" y2="1579.130"/>
      <line x1="75.799" y1="1629.130" x2="75.799" y2="1579.130"/>
      <line x1="76.799" y1="1629.130" x2="76.799" y2="1579.130"/>
      <line x1="77.799" y1="1629.130" x2="77.799" y2="1579.130"/>
      <line x1="78.799" y1="1629.130" x2="78.799" y2="1579.130"/>
      <line x1="79.799" y1="1629.130" x2="79.799" y2="1579.130"/>
      <line x1="80.799" y1="1629.130" x2="80.799" y2="1579.130"/>
      <line x1="81.799" y1="1629.130" x2="81.799" y2="1579.130"/>
      <line x1="82.799" y1="1629.130" x2="82.799" y2="1579.130"/>
      <line x1="83.799" y1="1629.130" x2="83.799" y2="1579.130"/>
      <line x1="84.799" y1="1629.130" x2="84.799" y2="1579.130"/>
      <line x1="85.799" y1="1629.130" x2="85.799" y2="1579.130"/>
      <line x1="86.799" y1="1629.130" x2="86.799" y2="1579.130"/>
      <line x1="87.799" y1="1629.130" x2="87.799" y2="1579.130"/>
      <line x1="88.799" y1="1629.130" x2="88.799" y2="1579.130"/>
      <line x1="89.799" y1="1629.130" x2="89.799" y2="1579.130"/>
      <line x1="90.799" y1="1629.130" x2="90.799" y2="1579.130"/>
      <line x1="91.799" y1="1629.130" x2="91.799" y2="1579.130"/>
      <line x1="92.799" y1="1629.130" x2="92.799" y2="1579.130"/>
      <line x1="93.799" y1="1629.130" x2="93.799" y2="1579.130"/>
      <line x1="94.799" y1="1629.130" x2="94.799" y2="1579.130"/>
      <line x1="95.799" y1="1629.130" x2="95.799" y2="1579.130"/>
      <line x1="96.799" y1="1629.130" x2="96.799" y2="1579.130"/>
      <line x1="97.799" y1="1629.130" x2="97.799" y2="1579.130"/>
      <line x1="98.799" y1="1629.130" x2="98.799" y2="1579.130"/>
      <line x1="99.799" y1="1629.130" x2="99.799" y2="1579.130"/>
      <line x1="100.799" y1="1629.130" x2="100.799" y2="1579.130"/>
      <line x1="101.799" y1="1629.130" x2="101.799" y2="1579.130"/>
      <line x1="102.799" y1="1629.130" x2="102.799" y2="1579.130"/>
      <line x1="103.799" y1="1629.130" x2="103.799" y2="1579.130"/>
      <line x1="104.799" y1="1629.130" x2="104.799" y2="1579.130"/>
      <line x1="105.799" y1="1629.130" x2="105.799" y2="1579.130"/>
      <line x1="106.799" y1="1629.130" x2="106.799" y2="1579.130"/>
      <line x1="107.799" y1="1629.130" x2="107.799" y2="1579.130"/>
      <line x1="108.799" y1="1629.130" x2="108.799" y2="1579.130"/>
      <line x1="109.799" y1="1629.130" x2="109.799" y2="1579.130"/>
      <line x1="110.799" y1="1629.130" x2="110.799" y2="1579.130"/>
      <line x1="111.799" y1="1629.130" x2="111.799" y2="1579.130"/>
      <line x1="112.799" y1="1629.130" x2="112.799" y2="1579.130"/>
      <line x1="3.799" y1="1579.030" x2="3.799" y2="1529.030"/>
      <line x1="4.799" y1="1579.030" x2="4.799" y2="1529.030"/>
      <line x1="5.799" y1="1579.030" x2="5.799" y2="1529.030"/>
      <line x1="6.799" y1="1579.030" x2="6.799" y2="1529.030"/>
      <line x1="7.799" y1="1579.030" x2="7.799" y2="1529.030"/>
      <line x1="8.799" y1="1579.030" x2="8.799" y2="1529.030"/>
      <line x1="9.799" y1="1579.030" x2="9.799" y2="1529.030"/>
      <line x1="10.799" y1="1579.030" x2="10.799" y2="1529.030"/>
      <line x1="11.799" y1="1579.030" x2="11.799" y2="1529.030"/>
      <line x1="12.799" y1="1579.030" x2="12.799" y2="1529.030"/>
      <line x1="13.799" y1="1579.030" x2="13.799" y2="1529.030"/>
      <line x1="14.799" y1="1579.030" x2="14.799" y2="1529.030"/>
      <line x1="15.799" y1="1579.030" x2="15.799" y2="1529.030"/>
      <line x1="16.799" y1="1579.030" x2="16.799" y2="1529.030"/>
      <line x1="17.799" y1="1579.030" x2="17.799" y2="1529.030"/>
      <line x1="18.799" y1="1579.030" x2="18.799" y2="1529.030"/>
      <line x1="19.799" y1="1579.030" x2="19.799" y2="1529.030"/>
      <line x1="20.799" y1="1579.030" x2="20.799" y2="1529.030"/>
      <line x1="21.799" y1="1579.030" x2="21.799" y2="1529.030"/>
      <line x1="22.799" y1="1579.030" x2="22.799" y2="1529.030"/>
      <line x1="23.799" y1="1579.030" x2="23.799" y2="1529.030"/>
      <line x1="24.799" y1="1579.030" x2="24.799" y2="1529.030"/>
      <line x1="25.799" y1="1579.030" x2="25.799" y2="1529.030"/>
      <line x1="26.799" y1="1579.030" x2="26.799" y2="1529.030"/>
      <line x1="27.799" y1="1579.030" x2="27.799" y2="1529.030"/>
      <line x1="28.799" y1="1579.030" x2="28.799" y2="1529.030"/>
      <line x1="29.799" y1="1579.030" x2="29.799" y2="1529.030"/>
      <line x1="30.799" y1="1579.030" x2="30.799" y2="1529.030"/>
      <line x1="31.799" y1="1579.030" x2="31.799" y2="1529.030"/>
      <line x1="32.799" y1="1579.030" x2="32.799" y2="1529.030"/>
      <line x1="33.799" y1="1579.030" x2="33.799" y2="1529.030"/>
      <line x1="34.799" y1="1579.030" x2="34.799" y2="1529.030"/>
      <line x1="35.799" y1="1579.030" x2="35.799" y2="1529.030"/>
      <line x1="36.799" y1="1579.030" x2="36.799" y2="1529.030"/>
      <line x1="37.799" y1="1579.030" x2="37.799" y2="1529.030"/>
      <line x1="38.799" y1="1579.030" x2="38.799" y2="1529.030"/>
      <line x1="39.799" y1="1579.030" x2="39.799" y2="1529.030"/>
      <line x1="40.799" y1="1579.030" x2="40.799" y2="1529.030"/>
      <line x1="41.799" y1="1579.030" x2="41.799" y2="1529.030"/>
      <line x1="42.799" y1="1579.030" x2="42.799" y2="1529.030"/>
      <line x1="43.799" y1="1579.030" x2="43.799" y2="1529.030"/>
      <line x1="44.799" y1="1579.030" x2="44.799" y2="1529.030"/>
      <line x1="45.799" y1="1579.030" x2="45.799" y2="1529.030"/>
      <line x1="46.799" y1="1579.030" x2="46.799" y2="1529.030"/>
      <line x1="47.799" y1="1579.030" x2="47.799" y2="1529.030"/>
      <line x1="48.799" y1="1579.030" x2="48.799" y2="1529.030"/>
      <line x1="49.799" y1="1579.030" x2="49.799" y2="1529.030"/>
      <line x1="50.799" y1="1579.030" x2="50.799" y2="1529.030"/>
      <line x1="51.799" y1="1579.030" x2="51.799" y2="1529.030"/>
      <line x1="52.799" y1="1579.030" x2="52.799" y2="1529.030"/>
      <line x1="53.799" y1="1579.030" x2="53.799" y2="1529.030"/>
      <line x1="54.799" y1="1579.030" x2="54.799" y2="1529.030"/>
      <line x1="55.799" y1="1579.030" x2="55.799" y2="1529.030"/>
      <line x1="56.799" y1="1579.030" x2="56.799" y2="1529.030"/>
      <line x1="57.799" y1="1579.030" x2="57.799" y2="1529.030"/>
      <line x1="58.799" y1="1579.030" x2="58.799" y2="1529.030"/>
      <line x1="59.799" y1="1579.030" x2="59.799" y2="1529.030"/>
      <line x1="60.799" y1="1579.030" x2="60.799" y2="1529.030"/>
      <line x1="61.799" y1="1579.030" x2="61.799" y2="1529.030"/>
      <line x1="62.799" y1="1579.030" x2="62.799" y2="1529.030"/>
      <line x1="63.799" y1="1579.030" x2="63.799" y2="1529.030"/>
      <line x1="64.799" y1="1579.030" x2="64.799" y2="1529.030"/>
      <line x1="65.799" y1="1579.030" x2="65.799" y2="1529.030"/>
      <line x1="66.799" y1="1579.030" x2="66.799" y2="1529.030"/>
      <line x1="67.799" y1="1579.030" x2="67.799" y2="1529.030"/>
      <line x1="68.799" y1="1579.030" x2="68.799" y2="1529.030"/>
      <line x1="69.799" y1="1579.030" x2="69.799" y2="1529.030"/>
      <line x1="70.799" y1="1579.030" x2="70.799" y2="1529.030"/>
      <line x1="71.799" y1="1579.030" x2="71.799" y2="1529.030"/>
      <line x1="72.799" y1="1579.030" x2="72.799" y2="1529.030"/>
      <line x1="73.799" y1="1579.030" x2="73.799" y2="1529.030"/>
      <line x1="74.799" y1="1579.030" x2="74.799" y2="1529.030"/>
      <line x1="75.799" y1="1579.030" x2="75.799" y2="1529.030"/>
      <line x1="76.799" y1="1579.030" x2="76.799" y2="1529.030"/>
      <line x1="77.799" y1="1579.030" x2="77.799" y2="1529.030"/>
      <line x1="78.799" y1="1579.030" x2="78.799" y2="1529.030"/>
      <line x1="79.799" y1="1579.030" x2="79.799" y2="1529.030"/>
      <line x1="80.799" y1="1579.030" x2="80.799" y2="1529.030"/>
      <line x1="81.799" y1="1579.030" x2="81.799" y2="1529.030"/>
      <line x1="82.799" y1="1579.030" x2="82.799" y2="1529.030"/>
      <line x1="83.799" y1="1579.030" x2="83.799" y2="1529.030"/>
      <line x1="84.799" y1="1579.030" x2="84.799" y2="1529.030"/>
      <line x1="85.799" y1="1579.030" x2="85.799" y2="1529.030"/>
      <line x1="86.799" y1="1579.030" x2="86.799" y2="1529.030"/>
      <line x1="87.799" y1="1579.030" x2="87.799" y2="1529.030"/>
      <line x1="88.799" y1="1579.030" x2="88.799" y2="1529.030"/>
      <line x1="89.799" y1="1579.030" x2="89.799" y2="1529.030"/>
      <line x1="90.799" y1="1579.030" x2="90.799" y2="1529.030"/>
      <line x1="91.799" y1="1579.030" x2="91.799" y2="1529.030"/>
      <line x1="92.799" y1="1579.030" x2="92.799" y2="1529.030"/>
      <line x1="93.799" y1="1579.030" x2="93.799" y2="1529.030"/>
      <line x1="94.799" y1="1579.030" x2="94.799" y2="1529.030"/>
      <line x1="95.799" y1="1579.030" x2="95.799" y2="1529.030"/>
      <line x1="96.799" y1="1579.030" x2="96.799" y2="1529.030"/>
      <line x1="97.799" y1="1579.030" x2="97.799" y2="1529.030"/>
      <line x1="98.799" y1="1579.030" x2="98.799" y2="1529.030"/>
      <line x1="99.799" y1="1579.030" x2="99.799" y2="1529.030"/>
      <line x1="100.799" y1="1579.030" x2="100.799" y2="1529.030"/>
      <line x1="101.799" y1="1579.030" x2="101.799" y2="1529.030"/>
      <line x1="102.799" y1="1579.030" x2="102.799" y2="1529.030"/>
      <line x1="103.799" y1="1579.030" x2="103.799" y2="1529.030"/>
      <line x1="104.799" y1="1579.030" x2="104.799" y2="1529.030"/>
      <line x1="105.799" y1="1579.030" x2="105.799" y2="1529.030"/>
      <line x1="106.799" y1="1579.030" x2="106.799" y2="1529.030"/>
      <line x1="107.799" y1="1579.030" x2="107.799" y2="1529.030"/>
      <line x1="108.799" y1="1579.030" x2="108.799" y2="1529.030"/>
      <line x1="109.799" y1="1579.030" x2="109.799" y2="1529.030"/>
      <line x1="110.799" y1="1579.030" x2="110.799" y2="1529.030"/>
      <line x1="111.799" y1="1579.030" x2="111.799" y2="1529.030"/>
      <line x1="112.799" y1="1579.030" x2="112.799" y2="1529.030"/>
      <line x1="5.799" y1="1528.930" x2="5.799" y2="1525.229"/>
      <line x1="4.799" y1="1528.930" x2="4.799" y2="1525.229"/>
      <line x1="8.799" y1="1528.930" x2="8.799" y2="1525.229"/>
      <line x1="7.799" y1="1528.930" x2="7.799" y2="1525.229"/>
      <line x1="43.799" y1="1528.930" x2="43.799" y2="1525.229"/>
      <line x1="52.799" y1="1528.930" x2="52.799" y2="1525.229"/>
      <line x1="51.799" y1="1528.930" x2="51.799" y2="1525.229"/>
      <line x1="50.799" y1="1528.930" x2="50.799" y2="1525.229"/>
      <line x1="49.799" y1="1528.930" x2="49.799" y2="1525.229"/>
      <line x1="48.799" y1="1528.930" x2="48.799" y2="1525.229"/>
      <line x1="47.799" y1="1528.930" x2="47.799" y2="1525.229"/>
      <line x1="46.799" y1="1528.930" x2="46.799" y2="1525.229"/>
      <line x1="45.799" y1="1528.930" x2="45.799" y2="1525.229"/>
      <line x1="44.799" y1="1528.930" x2="44.799" y2="1525.229"/>
      <line x1="42.799" y1="1528.930" x2="42.799" y2="1525.229"/>
      <line x1="3.799" y1="1528.930" x2="3.799" y2="1525.229"/>
      <line x1="6.799" y1="1528.930" x2="6.799" y2="1525.229"/>
      <line x1="9.799" y1="1528.930" x2="9.799" y2="1525.229"/>
      <line x1="19.799" y1="1528.930" x2="19.799" y2="1525.229"/>
      <line x1="18.799" y1="1528.930" x2="18.799" y2="1525.229"/>
      <line x1="17.799" y1="1528.930" x2="17.799" y2="1525.229"/>
      <line x1="16.799" y1="1528.930" x2="16.799" y2="1525.229"/>
      <line x1="15.799" y1="1528.930" x2="15.799" y2="1525.229"/>
      <line x1="14.799" y1="1528.930" x2="14.799" y2="1525.229"/>
      <line x1="13.799" y1="1528.930" x2="13.799" y2="1525.229"/>
      <line x1="12.799" y1="1528.930" x2="12.799" y2="1525.229"/>
      <line x1="11.799" y1="1528.930" x2="11.799" y2="1525.229"/>
      <line x1="10.799" y1="1528.930" x2="10.799" y2="1525.229"/>
      <line x1="20.799" y1="1528.930" x2="20.799" y2="1525.229"/>
      <line x1="31.799" y1="1528.930" x2="31.799" y2="1525.229"/>
      <line x1="41.799" y1="1528.930" x2="41.799" y2="1525.229"/>
      <line x1="40.799" y1="1528.930" x2="40.799" y2="1525.229"/>
      <line x1="39.799" y1="1528.930" x2="39.799" y2="1525.229"/>
      <line x1="38.799" y1="1528.930" x2="38.799" y2="1525.229"/>
      <line x1="37.799" y1="1528.930" x2="37.799" y2="1525.229"/>
      <line x1="36.799" y1="1528.930" x2="36.799" y2="1525.229"/>
      <line x1="35.799" y1="1528.930" x2="35.799" y2="1525.229"/>
      <line x1="34.799" y1="1528.930" x2="34.799" y2="1525.229"/>
      <line x1="33.799" y1="1528.930" x2="33.799" y2="1525.229"/>
      <line x1="32.799" y1="1528.930" x2="32.799" y2="1525.229"/>
      <line x1="30.799" y1="1528.930" x2="30.799" y2="1525.229"/>
      <line x1="29.799" y1="1528.930" x2="29.799" y2="1525.229"/>
      <line x1="28.799" y1="1528.930" x2="28.799" y2="1525.229"/>
      <line x1="27.799" y1="1528.930" x2="27.799" y2="1525.229"/>
      <line x1="26.799" y1="1528.930" x2="26.799" y2="1525.229"/>
      <line x1="25.799" y1="1528.930" x2="25.799" y2="1525.229"/>
      <line x1="24.799" y1="1528.930" x2="24.799" y2="1525.229"/>
      <line x1="23.799" y1="1528.930" x2="23.799" y2="1525.229"/>
      <line x1="22.799" y1="1528.930" x2="22.799" y2="1525.229"/>
      <line x1="21.799" y1="1528.930" x2="21.799" y2="1525.229"/>
      <line x1="84.799" y1="1528.930" x2="84.799" y2="1525.229"/>
      <line x1="83.799" y1="1528.930" x2="83.799" y2="1525.229"/>
      <line x1="87.799" y1="1528.930" x2="87.799" y2="1525.229"/>
      <line x1="86.799" y1="1528.930" x2="86.799" y2="1525.229"/>
      <line x1="90.799" y1="1528.930" x2="90.799" y2="1525.229"/>
      <line x1="89.799" y1="1528.930" x2="89.799" y2="1525.229"/>
      <line x1="95.799" y1="1528.930" x2="95.799" y2="1525.229"/>
      <line x1="100.799" y1="1528.930" x2="100.799" y2="1525.229"/>
      <line x1="92.799" y1="1528.930" x2="92.799" y2="1525.229"/>
      <line x1="98.799" y1="1528.930" x2="98.799" y2="1525.229"/>
      <line x1="101.799" y1="1528.930" x2="101.799" y2="1525.229"/>
      <line x1="97.799" y1="1528.930" x2="97.799" y2="1525.229"/>
      <line x1="63.799" y1="1528.930" x2="63.799" y2="1525.229"/>
      <line x1="62.799" y1="1528.930" x2="62.799" y2="1525.229"/>
      <line x1="61.799" y1="1528.930" x2="61.799" y2="1525.229"/>
      <line x1="60.799" y1="1528.930" x2="60.799" y2="1525.229"/>
      <line x1="59.799" y1="1528.930" x2="59.799" y2="1525.229"/>
      <line x1="58.799" y1="1528.930" x2="58.799" y2="1525.229"/>
      <line x1="57.799" y1="1528.930" x2="57.799" y2="1525.229"/>
      <line x1="56.799" y1="1528.930" x2="56.799" y2="1525.229"/>
      <line x1="55.799" y1="1528.930" x2="55.799" y2="1525.229"/>
      <line x1="54.799" y1="1528.930" x2="54.799" y2="1525.229"/>
      <line x1="53.799" y1="1528.930" x2="53.799" y2="1525.229"/>
      <line x1="74.799" y1="1528.930" x2="74.799" y2="1525.229"/>
      <line x1="82.799" y1="1528.930" x2="82.799" y2="1525.229"/>
      <line x1="81.799" y1="1528.930" x2="81.799" y2="1525.229"/>
      <line x1="80.799" y1="1528.930" x2="80.799" y2="1525.229"/>
      <line x1="79.799" y1="1528.930" x2="79.799" y2="1525.229"/>
      <line x1="78.799" y1="1528.930" x2="78.799" y2="1525.229"/>
      <line x1="77.799" y1="1528.930" x2="77.799" y2="1525.229"/>
      <line x1="76.799" y1="1528.930" x2="76.799" y2="1525.229"/>
      <line x1="75.799" y1="1528.930" x2="75.799" y2="1525.229"/>
      <line x1="64.799" y1="1528.930" x2="64.799" y2="1525.229"/>
      <line x1="73.799" y1="1528.930" x2="73.799" y2="1525.229"/>
      <line x1="72.799" y1="1528.930" x2="72.799" y2="1525.229"/>
      <line x1="71.799" y1="1528.930" x2="71.799" y2="1525.229"/>
      <line x1="70.799" y1="1528.930" x2="70.799" y2="1525.229"/>
      <line x1="69.799" y1="1528.930" x2="69.799" y2="1525.229"/>
      <line x1="68.799" y1="1528.930" x2="68.799" y2="1525.229"/>
      <line x1="67.799" y1="1528.930" x2="67.799" y2="1525.229"/>
      <line x1="66.799" y1="1528.930" x2="66.799" y2="1525.229"/>
      <line x1="65.799" y1="1528.930" x2="65.799" y2="1525.229"/>
      <line x1="85.799" y1="1528.930" x2="85.799" y2="1525.229"/>
      <line x1="88.799" y1="1528.930" x2="88.799" y2="1525.229"/>
      <line x1="91.799" y1="1528.930" x2="91.799" y2="1525.229"/>
      <line x1="94.799" y1="1528.930" x2="94.799" y2="1525.229"/>
      <line x1="93.799" y1="1528.930" x2="93.799" y2="1525.229"/>
      <line x1="96.799" y1="1528.930" x2="96.799" y2="1525.229"/>
      <line x1="99.799" y1="1528.930" x2="99.799" y2="1525.229"/>
      <line x1="102.799" y1="1528.930" x2="102.799" y2="1525.229"/>
      <line x1="109.799" y1="1528.930" x2="109.799" y2="1525.229"/>
      <line x1="112.799" y1="1528.930" x2="112.799" y2="1525.229"/>
      <line x1="110.799" y1="1528.930" x2="110.799" y2="1525.229"/>
      <line x1="106.799" y1="1528.930" x2="106.799" y2="1525.229"/>
      <line x1="107.799" y1="1528.930" x2="107.799" y2="1525.229"/>
      <line x1="103.799" y1="1528.930" x2="103.799" y2="1525.229"/>
      <line x1="104.799" y1="1528.930" x2="104.799" y2="1525.229"/>
      <line x1="105.799" y1="1528.930" x2="105.799" y2="1525.229"/>
      <line x1="108.799" y1="1528.930" x2="108.799" y2="1525.229"/>
      <line x1="111.799" y1="1528.930" x2="111.799" y2="1525.229"/>
    </g>
    <g stroke="#1976D2" stroke-width="0.4">
      <polyline points="484.578,1682.729 600.500,1682.729 600.500,1521.729 484.578,1521.729" fill="none"/>
      <polyline points="484.578,1521.729 482.722,1521.729 482.722,1682.729 484.578,1682.729" fill="none"/>
      <polyline points="484.578,1681.730 599.500,1681.730 599.500,1522.729 484.578,1522.729" fill="none"/>
      <polyline points="484.578,1522.729 483.722,1522.729 483.722,1681.730 484.578,1681.730" fill="none"/>
      <polyline points="598.500,1523.729 484.722,1523.729 484.722,1680.730 598.500,1680.730 598.500,1523.729" fill="none"/>
      <polyline points="597.500,1524.729 485.722,1524.729 485.722,1679.729 597.500,1679.729 597.500,1524.729" fill="none"/>
      <polyline points="115.422,1521.729 -0.500,1521.729 -0.500,1682.729 115.422,1682.729" fill="none"/>
      <polyline points="115.422,1682.729 117.278,1682.729 117.278,1521.729 115.422,1521.729" fill="none"/>
      <polyline points="115.422,1522.729 0.500,1522.729 0.500,1681.730 115.422,1681.730" fill="none"/>
      <polyline points="115.422,1681.730 116.278,1681.730 116.278,1522.729 115.422,1522.729" fill="none"/>
      <polyline points="115.278,1523.729 1.500,1523.729 1.500,1680.730 115.278,1680.730 115.278,1523.729" fill="none"/>
      <polyline points="114.278,1524.729 2.500,1524.729 2.500,1679.729 114.278,1679.729 114.278,1524.729" fill="none"/>
    </g>
    <g stroke="#C62828" stroke-width="0.4" fill="none">
      <polygon points="294.006,1533.934 295.424,1532.986 296.371,1531.569 296.704,1529.896 296.371,1528.224 295.424,1526.806 294.006,1525.858 292.333,1525.526 290.661,1525.858 289.243,1526.806 288.296,1528.224 287.963,1529.896 288.296,1531.569 289.243,1532.986 290.661,1533.934 292.333,1534.267"/>
      <polygon points="313.970,1533.848 315.358,1532.921 316.285,1531.533 316.610,1529.896 316.285,1528.259 315.358,1526.872 313.970,1525.945 312.333,1525.619 310.697,1525.945 309.309,1526.872 308.382,1528.259 308.056,1529.896 308.382,1531.533 309.309,1532.921 310.697,1533.848 312.333,1534.173"/>
      <polygon points="273.896,1533.670 275.221,1532.784 276.107,1531.459 276.418,1529.896 276.107,1528.333 275.221,1527.008 273.896,1526.123 272.333,1525.812 270.770,1526.123 269.445,1527.008 268.560,1528.333 268.249,1529.896 268.560,1531.459 269.445,1532.784 270.770,1533.670 272.333,1533.980"/>
      <polygon points="333.565,1533.686 334.999,1532.857 335.973,1531.517 336.318,1529.896 335.973,1528.276 334.999,1526.935 333.565,1526.107 331.917,1525.933 330.341,1526.446 329.110,1527.554 328.436,1529.068 328.436,1530.725 329.110,1532.238 330.341,1533.347 331.917,1533.859"/>
      <polygon points="353.501,1533.489 354.861,1532.704 355.784,1531.433 356.111,1529.896 355.784,1528.360 354.861,1527.089 353.501,1526.303 351.938,1526.139 350.444,1526.625 349.277,1527.676 348.638,1529.111 348.638,1530.682 349.277,1532.117 350.444,1533.168 351.938,1533.653"/>
      <polygon points="253.501,1533.489 254.861,1532.704 255.784,1531.433 256.111,1529.896 255.784,1528.360 254.861,1527.089 253.501,1526.303 251.938,1526.139 250.444,1526.625 249.277,1527.676 248.638,1529.111 248.638,1530.682 249.277,1532.117 250.444,1533.168 251.938,1533.653"/>
      <polygon points="233.434,1533.283 234.716,1532.542 235.586,1531.345 235.894,1529.896 235.586,1528.448 234.716,1527.250 233.434,1526.509 231.961,1526.355 230.553,1526.812 229.452,1527.803 228.850,1529.156 228.850,1530.637 229.452,1531.989 230.553,1532.980 231.961,1533.438"/>
      <polygon points="374.483,1532.592 375.440,1531.392 375.782,1529.896 375.440,1528.400 374.483,1527.200 373.101,1526.534 371.566,1526.534 370.183,1527.200 369.226,1528.400 368.885,1529.896 369.226,1531.392 370.183,1532.592 371.566,1533.258 373.101,1533.258"/>
      <polygon points="214.338,1532.410 215.230,1531.291 215.549,1529.896 215.230,1528.501 214.338,1527.382 213.049,1526.762 211.618,1526.762 210.329,1527.382 209.437,1528.501 209.118,1529.896 209.437,1531.291 210.329,1532.410 211.618,1533.031 213.049,1533.031"/>
      <polygon points="394.262,1532.315 395.121,1531.239 395.427,1529.896 395.121,1528.554 394.262,1527.477 393.022,1526.880 391.645,1526.880 390.404,1527.477 389.546,1528.554 389.239,1529.896 389.546,1531.239 390.404,1532.315 391.645,1532.913 393.022,1532.913"/>
      <polygon points="193.948,1532.235 194.850,1531.217 195.175,1529.896 194.850,1528.575 193.948,1527.557 192.676,1527.075 191.326,1527.239 190.206,1528.012 189.574,1529.216 189.574,1530.576 190.206,1531.781 191.326,1532.554 192.676,1532.718"/>
      <polygon points="413.948,1532.235 414.850,1531.217 415.175,1529.896 414.850,1528.575 413.948,1527.557 412.676,1527.075 411.326,1527.239 410.206,1528.012 409.574,1529.216 409.574,1530.576 410.206,1531.781 411.326,1532.554 412.676,1532.718"/>
      <polygon points="173.797,1532.017 174.615,1531.094 174.910,1529.896 174.615,1528.699 173.797,1527.776 172.644,1527.338 171.420,1527.487 170.405,1528.188 169.832,1529.280 169.832,1530.513 170.405,1531.605 171.420,1532.305 172.644,1532.454"/>
      <polygon points="433.553,1532.008 434.445,1531.115 434.772,1529.896 434.445,1528.677 433.553,1527.785 432.333,1527.458 431.114,1527.785 430.222,1528.677 429.895,1529.896 430.222,1531.115 431.114,1532.008 432.333,1532.335"/>
      <polygon points="153.333,1531.628 154.065,1530.896 154.333,1529.896 154.065,1528.896 153.333,1528.164 152.333,1527.896 151.333,1528.164 150.601,1528.896 150.333,1529.896 150.601,1530.896 151.333,1531.628 152.333,1531.896"/>
      <polygon points="453.333,1531.628 454.065,1530.896 454.333,1529.896 454.065,1528.896 453.333,1528.164 452.333,1527.896 451.333,1528.164 450.601,1528.896 450.333,1529.896 450.601,1530.896 451.333,1531.628 452.333,1531.896"/>
      <polygon points="294.006,1553.934 295.424,1552.986 296.371,1551.569 296.704,1549.896 296.371,1548.224 295.424,1546.806 294.006,1545.858 292.333,1545.526 290.661,1545.858 289.243,1546.806 288.296,1548.224 287.963,1549.896 288.296,1551.569 289.243,1552.986 290.661,1553.934 292.333,1554.267"/>
      <polygon points="313.970,1553.848 315.358,1552.921 316.285,1551.533 316.610,1549.896 316.285,1548.259 315.358,1546.872 313.970,1545.945 312.333,1545.619 310.697,1545.945 309.309,1546.872 308.382,1548.259 308.056,1549.896 308.382,1551.533 309.309,1552.921 310.697,1553.848 312.333,1554.173"/>
      <polygon points="273.896,1553.670 275.221,1552.784 276.107,1551.459 276.418,1549.896 276.107,1548.333 275.221,1547.008 273.896,1546.123 272.333,1545.812 270.770,1546.123 269.445,1547.008 268.560,1548.333 268.249,1549.896 268.560,1551.459 269.445,1552.784 270.770,1553.670 272.333,1553.980"/>
      <polygon points="333.565,1553.686 334.999,1552.857 335.973,1551.517 336.318,1549.896 335.973,1548.276 334.999,1546.935 333.565,1546.107 331.917,1545.933 330.341,1546.446 329.110,1547.554 328.436,1549.068 328.436,1550.725 329.110,1552.238 330.341,1553.347 331.917,1553.859"/>
      <polygon points="253.501,1553.489 254.861,1552.704 255.784,1551.433 256.111,1549.896 255.784,1548.360 254.861,1547.089 253.501,1546.303 251.938,1546.139 250.444,1546.625 249.277,1547.676 248.638,1549.111 248.638,1550.682 249.277,1552.117 250.444,1553.168 251.938,1553.653"/>
      <polygon points="353.501,1553.489 354.861,1552.704 355.784,1551.433 356.111,1549.896 355.784,1548.360 354.861,1547.089 353.501,1546.303 351.938,1546.139 350.444,1546.625 349.277,1547.676 348.638,1549.111 348.638,1550.682 349.277,1552.117 350.444,1553.168 351.938,1553.653"/>
      <polygon points="233.434,1553.283 234.716,1552.542 235.586,1551.345 235.894,1549.896 235.586,1548.448 234.716,1547.250 233.434,1546.509 231.961,1546.355 230.553,1546.812 229.452,1547.803 228.850,1549.156 228.850,1550.637 229.452,1551.989 230.553,1552.980 231.961,1553.438"/>
      <polygon points="374.483,1552.592 375.440,1551.392 375.782,1549.896 375.440,1548.400 374.483,1547.200 373.101,1546.534 371.566,1546.534 370.183,1547.200 369.226,1548.400 368.885,1549.896 369.226,1551.392 370.183,1552.592 371.566,1553.258 373.101,1553.258"/>
      <polygon points="214.338,1552.410 215.230,1551.291 215.549,1549.896 215.230,1548.501 214.338,1547.382 213.049,1546.762 211.618,1546.762 210.329,1547.382 209.437,1548.501 209.118,1549.896 209.437,1551.291 210.329,1552.410 211.618,1553.031 213.049,1553.031"/>
      <polygon points="394.262,1552.315 395.121,1551.239 395.427,1549.896 395.121,1548.554 394.262,1547.477 393.022,1546.880 391.645,1546.880 390.404,1547.477 389.546,1548.554 389.239,1549.896 389.546,1551.239 390.404,1552.315 391.645,1552.913 393.022,1552.913"/>
      <polygon points="193.948,1552.235 194.850,1551.217 195.175,1549.896 194.850,1548.575 193.948,1547.557 192.676,1547.075 191.326,1547.239 190.206,1548.012 189.574,1549.216 189.574,1550.576 190.206,1551.781 191.326,1552.554 192.676,1552.718"/>
      <polygon points="413.948,1552.235 414.850,1551.217 415.175,1549.896 414.850,1548.575 413.948,1547.557 412.676,1547.075 411.326,1547.239 410.206,1548.012 409.574,1549.216 409.574,1550.576 410.206,1551.781 411.326,1552.554 412.676,1552.718"/>
      <polygon points="173.797,1552.017 174.615,1551.094 174.910,1549.896 174.615,1548.699 173.797,1547.776 172.644,1547.338 171.420,1547.487 170.405,1548.188 169.832,1549.280 169.832,1550.513 170.405,1551.605 171.420,1552.305 172.644,1552.454"/>
      <polygon points="433.553,1552.008 434.445,1551.115 434.772,1549.896 434.445,1548.677 433.553,1547.785 432.333,1547.458 431.114,1547.785 430.222,1548.677 429.895,1549.896 430.222,1551.115 431.114,1552.008 432.333,1552.335"/>
      <polygon points="153.333,1551.628 154.065,1550.896 154.333,1549.896 154.065,1548.896 153.333,1548.164 152.333,1547.896 151.333,1548.164 150.601,1548.896 150.333,1549.896 150.601,1550.896 151.333,1551.628 152.333,1551.896"/>
      <polygon points="453.333,1551.628 454.065,1550.896 454.333,1549.896 454.065,1548.896 453.333,1548.164 452.333,1547.896 451.333,1548.164 450.601,1548.896 450.333,1549.896 450.601,1550.896 451.333,1551.628 452.333,1551.896"/>
      <polygon points="294.006,1573.934 295.424,1572.986 296.371,1571.569 296.704,1569.896 296.371,1568.224 295.424,1566.806 294.006,1565.858 292.333,1565.526 290.661,1565.858 289.243,1566.806 288.296,1568.224 287.963,1569.896 288.296,1571.569 289.243,1572.986 290.661,1573.934 292.333,1574.267"/>
      <polygon points="313.970,1573.848 315.358,1572.921 316.285,1571.533 316.610,1569.896 316.285,1568.259 315.358,1566.872 313.970,1565.945 312.333,1565.619 310.697,1565.945 309.309,1566.872 308.382,1568.259 308.056,1569.896 308.382,1571.533 309.309,1572.921 310.697,1573.848 312.333,1574.173"/>
      <polygon points="273.896,1573.670 275.221,1572.784 276.107,1571.459 276.418,1569.896 276.107,1568.333 275.221,1567.008 273.896,1566.123 272.333,1565.812 270.770,1566.123 269.445,1567.008 268.560,1568.333 268.249,1569.896 268.560,1571.459 269.445,1572.784 270.770,1573.670 272.333,1573.980"/>
      <polygon points="333.565,1573.686 334.999,1572.857 335.973,1571.517 336.318,1569.896 335.973,1568.276 334.999,1566.935 333.565,1566.107 331.917,1565.933 330.341,1566.446 329.110,1567.554 328.436,1569.068 328.436,1570.725 329.110,1572.238 330.341,1573.347 331.917,1573.859"/>
      <polygon points="353.501,1573.489 354.861,1572.704 355.784,1571.433 356.111,1569.896 355.784,1568.360 354.861,1567.089 353.501,1566.303 351.938,1566.139 350.444,1566.625 349.277,1567.676 348.638,1569.111 348.638,1570.682 349.277,1572.117 350.444,1573.168 351.938,1573.653"/>
      <polygon points="253.501,1573.489 254.861,1572.704 255.784,1571.433 256.111,1569.896 255.784,1568.360 254.861,1567.089 253.501,1566.303 251.938,1566.139 250.444,1566.625 249.277,1567.676 248.638,1569.111 248.638,1570.682 249.277,1572.117 250.444,1573.168 251.938,1573.653"/>
      <polygon points="233.434,1573.283 234.716,1572.542 235.586,1571.345 235.894,1569.896 235.586,1568.448 234.716,1567.250 233.434,1566.509 231.961,1566.355 230.553,1566.812 229.452,1567.803 228.850,1569.156 228.850,1570.637 229.452,1571.989 230.553,1572.980 231.961,1573.438"/>
      <polygon points="374.483,1572.592 375.440,1571.392 375.782,1569.896 375.440,1568.400 374.483,1567.200 373.101,1566.534 371.566,1566.534 370.183,1567.200 369.226,1568.400 368.885,1569.896 369.226,1571.392 370.183,1572.592 371.566,1573.258 373.101,1573.258"/>
      <polygon points="214.338,1572.410 215.230,1571.291 215.549,1569.896 215.230,1568.501 214.338,1567.382 213.049,1566.762 211.618,1566.762 210.329,1567.382 209.437,1568.501 209.118,1569.896 209.437,1571.291 210.329,1572.410 211.618,1573.031 213.049,1573.031"/>
      <polygon points="394.262,1572.315 395.121,1571.239 395.427,1569.896 395.121,1568.554 394.262,1567.477 393.022,1566.880 391.645,1566.880 390.404,1567.477 389.546,1568.554 389.239,1569.896 389.546,1571.239 390.404,1572.315 391.645,1572.913 393.022,1572.913"/>
      <polygon points="413.948,1572.235 414.850,1571.217 415.175,1569.896 414.850,1568.575 413.948,1567.557 412.676,1567.075 411.326,1567.239 410.206,1568.012 409.574,1569.216 409.574,1570.576 410.206,1571.781 411.326,1572.554 412.676,1572.718"/>
      <polygon points="193.948,1572.235 194.850,1571.217 195.175,1569.896 194.850,1568.575 193.948,1567.557 192.676,1567.075 191.326,1567.239 190.206,1568.012 189.574,1569.216 189.574,1570.576 190.206,1571.781 191.326,1572.554 192.676,1572.718"/>
      <polygon points="173.797,1572.017 174.615,1571.094 174.910,1569.896 174.615,1568.699 173.797,1567.776 172.644,1567.338 171.420,1567.487 170.405,1568.188 169.832,1569.280 169.832,1570.513 170.405,1571.605 171.420,1572.305 172.644,1572.454"/>
      <polygon points="433.553,1572.008 434.445,1571.115 434.772,1569.896 434.445,1568.677 433.553,1567.785 432.333,1567.458 431.114,1567.785 430.222,1568.677 429.895,1569.896 430.222,1571.115 431.114,1572.008 432.333,1572.335"/>
      <polygon points="153.333,1571.628 154.065,1570.896 154.333,1569.896 154.065,1568.896 153.333,1568.164 152.333,1567.896 151.333,1568.164 150.601,1568.896 150.333,1569.896 150.601,1570.896 151.333,1571.628 152.333,1571.896"/>
      <polygon points="453.333,1571.628 454.065,1570.896 454.333,1569.896 454.065,1568.896 453.333,1568.164 452.333,1567.896 451.333,1568.164 450.601,1568.896 450.333,1569.896 450.601,1570.896 451.333,1571.628 452.333,1571.896"/>
      <polygon points="294.006,1593.934 295.424,1592.986 296.371,1591.569 296.704,1589.896 296.371,1588.224 295.424,1586.806 294.006,1585.858 292.333,1585.526 290.661,1585.858 289.243,1586.806 288.296,1588.224 287.963,1589.896 288.296,1591.569 289.243,1592.986 290.661,1593.934 292.333,1594.267"/>
      <polygon points="313.970,1593.848 315.358,1592.921 316.285,1591.533 316.610,1589.896 316.285,1588.259 315.358,1586.872 313.970,1585.945 312.333,1585.619 310.697,1585.945 309.309,1586.872 308.382,1588.259 308.056,1589.896 308.382,1591.533 309.309,1592.921 310.697,1593.848 312.333,1594.173"/>
      <polygon points="273.896,1593.670 275.221,1592.784 276.107,1591.459 276.418,1589.896 276.107,1588.333 275.221,1587.008 273.896,1586.123 272.333,1585.812 270.770,1586.123 269.445,1587.008 268.560,1588.333 268.249,1589.896 268.560,1591.459 269.445,1592.784 270.770,1593.670 272.333,1593.980"/>
      <polygon points="333.565,1593.686 334.999,1592.857 335.973,1591.517 336.318,1589.896 335.973,1588.276 334.999,1586.935 333.565,1586.107 331.917,1585.933 330.341,1586.446 329.110,1587.554 328.436,1589.068 328.436,1590.725 329.110,1592.238 330.341,1593.347 331.917,1593.859"/>
      <polygon points="353.501,1593.489 354.861,1592.704 355.784,1591.433 356.111,1589.896 355.784,1588.360 354.861,1587.089 353.501,1586.303 351.938,1586.139 350.444,1586.625 349.277,1587.676 348.638,1589.111 348.638,1590.682 349.277,1592.117 350.444,1593.168 351.938,1593.653"/>
      <polygon points="253.501,1593.489 254.861,1592.704 255.784,1591.433 256.111,1589.896 255.784,1588.360 254.861,1587.089 253.501,1586.303 251.938,1586.139 250.444,1586.625 249.277,1587.676 248.638,1589.111 248.638,1590.682 249.277,1592.117 250.444,1593.168 251.938,1593.653"/>
      <polygon points="233.434,1593.283 234.716,1592.542 235.586,1591.345 235.894,1589.896 235.586,1588.448 234.716,1587.250 233.434,1586.509 231.961,1586.355 230.553,1586.812 229.452,1587.803 228.850,1589.156 228.850,1590.637 229.452,1591.989 230.553,1592.980 231.961,1593.438"/>
      <polygon points="374.483,1592.592 375.440,1591.392 375.782,1589.896 375.440,1588.400 374.483,1587.200 373.101,1586.534 371.566,1586.534 370.183,1587.200 369.226,1588.400 368.885,1589.896 369.226,1591.392 370.183,1592.592 371.566,1593.258 373.101,1593.258"/>
      <polygon points="214.338,1592.410 215.230,1591.291 215.549,1589.896 215.230,1588.501 214.338,1587.382 213.049,1586.762 211.618,1586.762 210.329,1587.382 209.437,1588.501 209.118,1589.896 209.437,1591.291 210.329,1592.410 211.618,1593.031 213.049,1593.031"/>
      <polygon points="394.262,1592.315 395.121,1591.239 395.427,1589.896 395.121,1588.554 394.262,1587.477 393.022,1586.880 391.645,1586.880 390.404,1587.477 389.546,1588.554 389.239,1589.896 389.546,1591.239 390.404,1592.315 391.645,1592.913 393.022,1592.913"/>
      <polygon points="413.948,1592.235 414.850,1591.217 415.175,1589.896 414.850,1588.575 413.948,1587.557 412.676,1587.075 411.326,1587.239 410.206,1588.012 409.574,1589.216 409.574,1590.576 410.206,1591.781 411.326,1592.554 412.676,1592.718"/>
      <polygon points="193.948,1592.235 194.850,1591.217 195.175,1589.896 194.850,1588.575 193.948,1587.557 192.676,1587.075 191.326,1587.239 190.206,1588.012 189.574,1589.216 189.574,1590.576 190.206,1591.781 191.326,1592.554 192.676,1592.718"/>
      <polygon points="173.797,1592.017 174.615,1591.094 174.910,1589.896 174.615,1588.699 173.797,1587.776 172.644,1587.338 171.420,1587.487 170.405,1588.188 169.832,1589.280 169.832,1590.513 170.405,1591.605 171.420,1592.305 172.644,1592.454"/>
      <polygon points="433.553,1592.008 434.445,1591.115 434.772,1589.896 434.445,1588.677 433.553,1587.785 432.333,1587.458 431.114,1587.785 430.222,1588.677 429.895,1589.896 430.222,1591.115 431.114,1592.008 432.333,1592.335"/>
      <polygon points="453.333,1591.628 454.065,1590.896 454.333,1589.896 454.065,1588.896 453.333,1588.164 452.333,1587.896 451.333,1588.164 450.601,1588.896 450.333,1589.896 450.601,1590.896 451.333,1591.628 452.333,1591.896"/>
      <polygon points="153.333,1591.628 154.065,1590.896 154.333,1589.896 154.065,1588.896 153.333,1588.164 152.333,1587.896 151.333,1588.164 150.601,1588.896 150.333,1589.896 150.601,1590.896 151.333,1591.628 152.333,1591.896"/>
      <polygon points="294.006,1613.934 295.424,1612.986 296.371,1611.569 296.704,1609.896 296.371,1608.224 295.424,1606.806 294.006,1605.858 292.333,1605.526 290.661,1605.858 289.243,1606.806 288.296,1608.224 287.963,1609.896 288.296,1611.569 289.243,1612.986 290.661,1613.934 292.333,1614.267"/>
      <polygon points="313.970,1613.848 315.358,1612.921 316.285,1611.533 316.610,1609.896 316.285,1608.259 315.358,1606.872 313.970,1605.945 312.333,1605.619 310.697,1605.945 309.309,1606.872 308.382,1608.259 308.056,1609.896 308.382,1611.533 309.309,1612.921 310.697,1613.848 312.333,1614.173"/>
      <polygon points="273.896,1613.670 275.221,1612.784 276.107,1611.459 276.418,1609.896 276.107,1608.333 275.221,1607.008 273.896,1606.123 272.333,1605.812 270.770,1606.123 269.445,1607.008 268.560,1608.333 268.249,1609.896 268.560,1611.459 269.445,1612.784 270.770,1613.670 272.333,1613.980"/>
      <polygon points="333.565,1613.686 334.999,1612.857 335.973,1611.517 336.318,1609.896 335.973,1608.276 334.999,1606.935 333.565,1606.107 331.917,1605.933 330.341,1606.446 329.110,1607.554 328.436,1609.068 328.436,1610.725 329.110,1612.238 330.341,1613.347 331.917,1613.859"/>
      <polygon points="353.501,1613.489 354.861,1612.704 355.784,1611.433 356.111,1609.896 355.784,1608.360 354.861,1607.089 353.501,1606.303 351.938,1606.139 350.444,1606.625 349.277,1607.676 348.638,1609.111 348.638,1610.682 349.277,1612.117 350.444,1613.168 351.938,1613.653"/>
      <polygon points="253.501,1613.489 254.861,1612.704 255.784,1611.433 256.111,1609.896 255.784,1608.360 254.861,1607.089 253.501,1606.303 251.938,1606.139 250.444,1606.625 249.277,1607.676 248.638,1609.111 248.638,1610.682 249.277,1612.117 250.444,1613.168 251.938,1613.653"/>
      <polygon points="233.434,1613.283 234.716,1612.542 235.586,1611.345 235.894,1609.896 235.586,1608.448 234.716,1607.250 233.434,1606.509 231.961,1606.355 230.553,1606.812 229.452,1607.803 228.850,1609.156 228.850,1610.637 229.452,1611.989 230.553,1612.980 231.961,1613.438"/>
      <polygon points="374.483,1612.592 375.440,1611.392 375.782,1609.896 375.440,1608.400 374.483,1607.200 373.101,1606.534 371.566,1606.534 370.183,1607.200 369.226,1608.400 368.885,1609.896 369.226,1611.392 370.183,1612.592 371.566,1613.258 373.101,1613.258"/>
      <polygon points="214.338,1612.410 215.230,1611.291 215.549,1609.896 215.230,1608.501 214.338,1607.382 213.049,1606.762 211.618,1606.762 210.329,1607.382 209.437,1608.501 209.118,1609.896 209.437,1611.291 210.329,1612.410 211.618,1613.031 213.049,1613.031"/>
      <polygon points="394.262,1612.315 395.121,1611.239 395.427,1609.896 395.121,1608.554 394.262,1607.477 393.022,1606.880 391.645,1606.880 390.404,1607.477 389.546,1608.554 389.239,1609.896 389.546,1611.239 390.404,1612.315 391.645,1612.913 393.022,1612.913"/>
      <polygon points="413.948,1612.235 414.850,1611.217 415.175,1609.896 414.850,1608.575 413.948,1607.557 412.676,1607.075 411.326,1607.239 410.206,1608.012 409.574,1609.216 409.574,1610.576 410.206,1611.781 411.326,1612.554 412.676,1612.718"/>
      <polygon points="193.948,1612.235 194.850,1611.217 195.175,1609.896 194.850,1608.575 193.948,1607.557 192.676,1607.075 191.326,1607.239 190.206,1608.012 189.574,1609.216 189.574,1610.576 190.206,1611.781 191.326,1612.554 192.676,1612.718"/>
      <polygon points="173.797,1612.017 174.615,1611.094 174.910,1609.896 174.615,1608.699 173.797,1607.776 172.644,1607.338 171.420,1607.487 170.405,1608.188 169.832,1609.280 169.832,1610.513 170.405,1611.605 171.420,1612.305 172.644,1612.454"/>
      <polygon points="433.553,1612.008 434.445,1611.115 434.772,1609.896 434.445,1608.677 433.553,1607.785 432.333,1607.458 431.114,1607.785 430.222,1608.677 429.895,1609.896 430.222,1611.115 431.114,1612.008 432.333,1612.335"/>
      <polygon points="453.333,1611.628 454.065,1610.896 454.333,1609.896 454.065,1608.896 453.333,1608.164 452.333,1607.896 451.333,1608.164 450.601,1608.896 450.333,1609.896 450.601,1610.896 451.333,1611.628 452.333,1611.896"/>
      <polygon points="153.333,1611.628 154.065,1610.896 154.333,1609.896 154.065,1608.896 153.333,1608.164 152.333,1607.896 151.333,1608.164 150.601,1608.896 150.333,1609.896 150.601,1610.896 151.333,1611.628 152.333,1611.896"/>
      <polygon points="294.006,1633.934 295.424,1632.986 296.371,1631.569 296.704,1629.896 296.371,1628.224 295.424,1626.806 294.006,1625.858 292.333,1625.526 290.661,1625.858 289.243,1626.806 288.296,1628.224 287.963,1629.896 288.296,1631.569 289.243,1632.986 290.661,1633.934 292.333,1634.267"/>
      <polygon points="313.970,1633.848 315.358,1632.921 316.285,1631.533 316.610,1629.896 316.285,1628.259 315.358,1626.872 313.970,1625.945 312.333,1625.619 310.697,1625.945 309.309,1626.872 308.382,1628.259 308.056,1629.896 308.382,1631.533 309.309,1632.921 310.697,1633.848 312.333,1634.173"/>
      <polygon points="273.896,1633.670 275.221,1632.784 276.107,1631.459 276.418,1629.896 276.107,1628.333 275.221,1627.008 273.896,1626.123 272.333,1625.812 270.770,1626.123 269.445,1627.008 268.560,1628.333 268.249,1629.896 268.560,1631.459 269.445,1632.784 270.770,1633.670 272.333,1633.980"/>
      <polygon points="333.565,1633.686 334.999,1632.857 335.973,1631.517 336.318,1629.896 335.973,1628.276 334.999,1626.935 333.565,1626.107 331.917,1625.933 330.341,1626.446 329.110,1627.554 328.436,1629.068 328.436,1630.725 329.110,1632.238 330.341,1633.347 331.917,1633.859"/>
      <polygon points="253.501,1633.489 254.861,1632.704 255.784,1631.433 256.111,1629.896 255.784,1628.360 254.861,1627.089 253.501,1626.303 251.938,1626.139 250.444,1626.625 249.277,1627.676 248.638,1629.111 248.638,1630.682 249.277,1632.117 250.444,1633.168 251.938,1633.653"/>
      <polygon points="353.501,1633.489 354.861,1632.704 355.784,1631.433 356.111,1629.896 355.784,1628.360 354.861,1627.089 353.501,1626.303 351.938,1626.139 350.444,1626.625 349.277,1627.676 348.638,1629.111 348.638,1630.682 349.277,1632.117 350.444,1633.168 351.938,1633.653"/>
      <polygon points="233.434,1633.283 234.716,1632.542 235.586,1631.345 235.894,1629.896 235.586,1628.448 234.716,1627.250 233.434,1626.509 231.961,1626.355 230.553,1626.812 229.452,1627.803 228.850,1629.156 228.850,1630.637 229.452,1631.989 230.553,1632.980 231.961,1633.438"/>
      <polygon points="374.483,1632.592 375.440,1631.392 375.782,1629.896 375.440,1628.400 374.483,1627.200 373.101,1626.534 371.566,1626.534 370.183,1627.200 369.226,1628.400 368.885,1629.896 369.226,1631.392 370.183,1632.592 371.566,1633.258 373.101,1633.258"/>
      <polygon points="214.338,1632.410 215.230,1631.291 215.549,1629.896 215.230,1628.501 214.338,1627.382 213.049,1626.762 211.618,1626.762 210.329,1627.382 209.437,1628.501 209.118,1629.896 209.437,1631.291 210.329,1632.410 211.618,1633.031 213.049,1633.031"/>
      <polygon points="394.262,1632.315 395.121,1631.239 395.427,1629.896 395.121,1628.554 394.262,1627.477 393.022,1626.880 391.645,1626.880 390.404,1627.477 389.546,1628.554 389.239,1629.896 389.546,1631.239 390.404,1632.315 391.645,1632.913 393.022,1632.913"/>
      <polygon points="193.948,1632.235 194.850,1631.217 195.175,1629.896 194.850,1628.575 193.948,1627.557 192.676,1627.075 191.326,1627.239 190.206,1628.012 189.574,1629.216 189.574,1630.576 190.206,1631.781 191.326,1632.554 192.676,1632.718"/>
      <polygon points="413.948,1632.235 414.850,1631.217 415.175,1629.896 414.850,1628.575 413.948,1627.557 412.676,1627.075 411.326,1627.239 410.206,1628.012 409.574,1629.216 409.574,1630.576 410.206,1631.781 411.326,1632.554 412.676,1632.718"/>
      <polygon points="173.797,1632.017 174.615,1631.094 174.910,1629.896 174.615,1628.699 173.797,1627.776 172.644,1627.338 171.420,1627.487 170.405,1628.188 169.832,1629.280 169.832,1630.513 170.405,1631.605 171.420,1632.305 172.644,1632.454"/>
      <polygon points="433.553,1632.008 434.445,1631.115 434.772,1629.896 434.445,1628.677 433.553,1627.785 432.333,1627.458 431.114,1627.785 430.222,1628.677 429.895,1629.896 430.222,1631.115 431.114,1632.008 432.333,1632.335"/>
      <polygon points="153.333,1631.628 154.065,1630.896 154.333,1629.896 154.065,1628.896 153.333,1628.164 152.333,1627.896 151.333,1628.164 150.601,1628.896 150.333,1629.896 150.601,1630.896 151.333,1631.628 152.333,1631.896"/>
      <polygon points="453.333,1631.628 454.065,1630.896 454.333,1629.896 454.065,1628.896 453.333,1628.164 452.333,1627.896 451.333,1628.164 450.601,1628.896 450.333,1629.896 450.601,1630.896 451.333,1631.628 452.333,1631.896"/>
      <polygon points="294.006,1653.934 295.424,1652.986 296.371,1651.569 296.704,1649.896 296.371,1648.224 295.424,1646.806 294.006,1645.858 292.333,1645.526 290.661,1645.858 289.243,1646.806 288.296,1648.224 287.963,1649.896 288.296,1651.569 289.243,1652.986 290.661,1653.934 292.333,1654.267"/>
      <polygon points="313.970,1653.848 315.358,1652.921 316.285,1651.533 316.610,1649.896 316.285,1648.259 315.358,1646.872 313.970,1645.945 312.333,1645.619 310.697,1645.945 309.309,1646.872 308.382,1648.259 308.056,1649.896 308.382,1651.533 309.309,1652.921 310.697,1653.848 312.333,1654.173"/>
      <polygon points="273.896,1653.670 275.221,1652.784 276.107,1651.459 276.418,1649.896 276.107,1648.333 275.221,1647.008 273.896,1646.123 272.333,1645.812 270.770,1646.123 269.445,1647.008 268.560,1648.333 268.249,1649.896 268.560,1651.459 269.445,1652.784 270.770,1653.670 272.333,1653.980"/>
      <polygon points="333.565,1653.686 334.999,1652.857 335.973,1651.517 336.318,1649.896 335.973,1648.276 334.999,1646.935 333.565,1646.107 331.917,1645.933 330.341,1646.446 329.110,1647.554 328.436,1649.068 328.436,1650.725 329.110,1652.238 330.341,1653.347 331.917,1653.859"/>
      <polygon points="353.501,1653.489 354.861,1652.704 355.784,1651.433 356.111,1649.896 355.784,1648.360 354.861,1647.089 353.501,1646.303 351.938,1646.139 350.444,1646.625 349.277,1647.676 348.638,1649.111 348.638,1650.682 349.277,1652.117 350.444,1653.168 351.938,1653.653"/>
      <polygon points="253.501,1653.489 254.861,1652.704 255.784,1651.433 256.111,1649.896 255.784,1648.360 254.861,1647.089 253.501,1646.303 251.938,1646.139 250.444,1646.625 249.277,1647.676 248.638,1649.111 248.638,1650.682 249.277,1652.117 250.444,1653.168 251.938,1653.653"/>
      <polygon points="233.434,1653.283 234.716,1652.542 235.586,1651.345 235.894,1649.896 235.586,1648.448 234.716,1647.250 233.434,1646.509 231.961,1646.355 230.553,1646.812 229.452,1647.803 228.850,1649.156 228.850,1650.637 229.452,1651.989 230.553,1652.980 231.961,1653.438"/>
      <polygon points="374.483,1652.592 375.440,1651.392 375.782,1649.896 375.440,1648.400 374.483,1647.200 373.101,1646.534 371.566,1646.534 370.183,1647.200 369.226,1648.400 368.885,1649.896 369.226,1651.392 370.183,1652.592 371.566,1653.258 373.101,1653.258"/>
      <polygon points="214.338,1652.410 215.230,1651.291 215.549,1649.896 215.230,1648.501 214.338,1647.382 213.049,1646.762 211.618,1646.762 210.329,1647.382 209.437,1648.501 209.118,1649.896 209.437,1651.291 210.329,1652.410 211.618,1653.031 213.049,1653.031"/>
      <polygon points="394.262,1652.315 395.121,1651.239 395.427,1649.896 395.121,1648.554 394.262,1647.477 393.022,1646.880 391.645,1646.880 390.404,1647.477 389.546,1648.554 389.239,1649.896 389.546,1651.239 390.404,1652.315 391.645,1652.913 393.022,1652.913"/>
      <polygon points="413.948,1652.235 414.850,1651.217 415.175,1649.896 414.850,1648.575 413.948,1647.557 412.676,1647.075 411.326,1647.239 410.206,1648.012 409.574,1649.216 409.574,1650.576 410.206,1651.781 411.326,1652.554 412.676,1652.718"/>
      <polygon points="193.948,1652.235 194.850,1651.217 195.175,1649.896 194.850,1648.575 193.948,1647.557 192.676,1647.075 191.326,1647.239 190.206,1648.012 189.574,1649.216 189.574,1650.576 190.206,1651.781 191.326,1652.554 192.676,1652.718"/>
      <polygon points="173.797,1652.017 174.615,1651.094 174.910,1649.896 174.615,1648.699 173.797,1647.776 172.644,1647.338 171.420,1647.487 170.405,1648.188 169.832,1649.280 169.832,1650.513 170.405,1651.605 171.420,1652.305 172.644,1652.454"/>
      <polygon points="433.553,1652.008 434.445,1651.115 434.772,1649.896 434.445,1648.677 433.553,1647.785 432.333,1647.458 431.114,1647.785 430.222,1648.677 429.895,1649.896 430.222,1651.115 431.114,1652.008 432.333,1652.335"/>
      <polygon points="153.333,1651.628 154.065,1650.896 154.333,1649.896 154.065,1648.896 153.333,1648.164 152.333,1647.896 151.333,1648.164 150.601,1648.896 150.333,1649.896 150.601,1650.896 151.333,1651.628 152.333,1651.896"/>
      <polygon points="453.333,1651.628 454.065,1650.896 454.333,1649.896 454.065,1648.896 453.333,1648.164 452.333,1647.896 451.333,1648.164 450.601,1648.896 450.333,1649.896 450.601,1650.896 451.333,1651.628 452.333,1651.896"/>
      <polygon points="294.006,1673.934 295.424,1672.986 296.371,1671.569 296.704,1669.896 296.371,1668.224 295.424,1666.806 294.006,1665.858 292.333,1665.526 290.661,1665.858 289.243,1666.806 288.296,1668.224 287.963,1669.896 288.296,1671.569 289.243,1672.986 290.661,1673.934 292.333,1674.267"/>
      <polygon points="313.970,1673.848 315.358,1672.921 316.285,1671.533 316.610,1669.896 316.285,1668.259 315.358,1666.872 313.970,1665.945 312.333,1665.619 310.697,1665.945 309.309,1666.872 308.382,1668.259 308.056,1669.896 308.382,1671.533 309.309,1672.921 310.697,1673.848 312.333,1674.173"/>
      <polygon points="273.896,1673.670 275.221,1672.784 276.107,1671.459 276.418,1669.896 276.107,1668.333 275.221,1667.008 273.896,1666.123 272.333,1665.812 270.770,1666.123 269.445,1667.008 268.560,1668.333 268.249,1669.896 268.560,1671.459 269.445,1672.784 270.770,1673.670 272.333,1673.980"/>
      <polygon points="333.565,1673.686 334.999,1672.857 335.973,1671.517 336.318,1669.896 335.973,1668.276 334.999,1666.935 333.565,1666.107 331.917,1665.933 330.341,1666.446 329.110,1667.554 328.436,1669.068 328.436,1670.725 329.110,1672.238 330.341,1673.347 331.917,1673.859"/>
      <polygon points="353.501,1673.489 354.861,1672.704 355.784,1671.433 356.111,1669.896 355.784,1668.360 354.861,1667.089 353.501,1666.303 351.938,1666.139 350.444,1666.625 349.277,1667.676 348.638,1669.111 348.638,1670.682 349.277,1672.117 350.444,1673.168 351.938,1673.653"/>
      <polygon points="253.501,1673.489 254.861,1672.704 255.784,1671.433 256.111,1669.896 255.784,1668.360 254.861,1667.089 253.501,1666.303 251.938,1666.139 250.444,1666.625 249.277,1667.676 248.638,1669.111 248.638,1670.682 249.277,1672.117 250.444,1673.168 251.938,1673.653"/>
      <polygon points="233.434,1673.283 234.716,1672.542 235.586,1671.345 235.894,1669.896 235.586,1668.448 234.716,1667.250 233.434,1666.509 231.961,1666.355 230.553,1666.812 229.452,1667.803 228.850,1669.156 228.850,1670.637 229.452,1671.989 230.553,1672.980 231.961,1673.438"/>
      <polygon points="374.483,1672.592 375.440,1671.392 375.782,1669.896 375.440,1668.400 374.483,1667.200 373.101,1666.534 371.566,1666.534 370.183,1667.200 369.226,1668.400 368.885,1669.896 369.226,1671.392 370.183,1672.592 371.566,1673.258 373.101,1673.258"/>
      <polygon points="214.338,1672.410 215.230,1671.291 215.549,1669.896 215.230,1668.501 214.338,1667.382 213.049,1666.762 211.618,1666.762 210.329,1667.382 209.437,1668.501 209.118,1669.896 209.437,1671.291 210.329,1672.410 211.618,1673.031 213.049,1673.031"/>
      <polygon points="394.262,1672.315 395.121,1671.239 395.427,1669.896 395.121,1668.554 394.262,1667.477 393.022,1666.880 391.645,1666.880 390.404,1667.477 389.546,1668.554 389.239,1669.896 389.546,1671.239 390.404,1672.315 391.645,1672.913 393.022,1672.913"/>
      <polygon points="413.948,1672.235 414.850,1671.217 415.175,1669.896 414.850,1668.575 413.948,1667.557 412.676,1667.075 411.326,1667.239 410.206,1668.012 409.574,1669.216 409.574,1670.576 410.206,1671.781 411.326,1672.554 412.676,1672.718"/>
      <polygon points="193.948,1672.235 194.850,1671.217 195.175,1669.896 194.850,1668.575 193.948,1667.557 192.676,1667.075 191.326,1667.239 190.206,1668.012 189.574,1669.216 189.574,1670.576 190.206,1671.781 191.326,1672.554 192.676,1672.718"/>
      <polygon points="173.797,1672.017 174.615,1671.094 174.910,1669.896 174.615,1668.699 173.797,1667.776 172.644,1667.338 171.420,1667.487 170.405,1668.188 169.832,1669.280 169.832,1670.513 170.405,1671.605 171.420,1672.305 172.644,1672.454"/>
      <polygon points="433.553,1672.008 434.445,1671.115 434.772,1669.896 434.445,1668.677 433.553,1667.785 432.333,1667.458 431.114,1667.785 430.222,1668.677 429.895,1669.896 430.222,1671.115 431.114,1672.008 432.333,1672.335"/>
      <polygon points="453.333,1671.628 454.065,1670.896 454.333,1669.896 454.065,1668.896 453.333,1668.164 452.333,1667.896 451.333,1668.164 450.601,1668.896 450.333,1669.896 450.601,1670.896 451.333,1671.628 452.333,1671.896"/>
      <polygon points="153.333,1671.628 154.065,1670.896 154.333,1669.896 154.065,1668.896 153.333,1668.164 152.333,1667.896 151.333,1668.164 150.601,1668.896 150.333,1669.896 150.601,1670.896 151.333,1671.628 152.333,1671.896"/>
    </g>
    <g stroke="#EF6C00" stroke-width="0.4" fill="none">
    </g>
  </g>
  <g stroke="#000000" stroke-width="0.4">
    <line x1="500.000" y1="1000.000" x2="1500.000" y2="1000.000"/>
  </g>
  <g stroke="#000000" stroke-width="0.4">
    <line x1="1000.000" y1="500.000" x2="1000.000" y2="1500.000"/>
  </g>
  <circle cx="1000.000" cy="1000.000" r="1000.000" stroke="red" stroke-width="1" fill="none"/>
  </g>
</svg>
