<?xml version="1.0" encoding="UTF-8"?>
<svg xmlns="http://www.w3.org/2000/svg" version="1.1" width="2000" height="2000">
  <g fill="none" stroke-linecap="round" stroke-linejoin="round">
  <text x="10" y="20" font-size="24" fill="#555">Layer 215 Z=55.000 mm</text>
  <g transform="translate(700.000,-602.229)">
    <g stroke="#2E7D32" stroke-width="0.4">
      <line x1="527.653" y1="1629.896" x2="477.653" y2="1629.896"/>
      <line x1="527.653" y1="1630.896" x2="477.653" y2="1630.896"/>
      <line x1="527.653" y1="1631.896" x2="477.653" y2="1631.896"/>
      <line x1="527.653" y1="1632.896" x2="477.653" y2="1632.896"/>
      <line x1="527.653" y1="1633.896" x2="477.653" y2="1633.896"/>
      <line x1="527.653" y1="1634.896" x2="477.653" y2="1634.896"/>
      <line x1="527.653" y1="1635.896" x2="477.653" y2="1635.896"/>
      <line x1="527.653" y1="1636.896" x2="477.653" y2="1636.896"/>
      <line x1="527.653" y1="1637.896" x2="477.653" y2="1637.896"/>
      <line x1="527.653" y1="1638.896" x2="477.653" y2="1638.896"/>
      <line x1="527.653" y1="1639.896" x2="477.653" y2="1639.896"/>
      <line x1="527.653" y1="1640.896" x2="477.653" y2="1640.896"/>
      <line x1="527.653" y1="1641.896" x2="477.653" y2="1641.896"/>
      <line x1="527.653" y1="1642.896" x2="477.653" y2="1642.896"/>
      <line x1="527.653" y1="1643.896" x2="477.653" y2="1643.896"/>
      <line x1="527.653" y1="1644.896" x2="477.653" y2="1644.896"/>
      <line x1="527.653" y1="1645.896" x2="477.653" y2="1645.896"/>
      <line x1="527.653" y1="1646.896" x2="477.653" y2="1646.896"/>
      <line x1="527.653" y1="1647.896" x2="477.653" y2="1647.896"/>
      <line x1="527.653" y1="1648.896" x2="477.653" y2="1648.896"/>
      <line x1="527.653" y1="1649.896" x2="477.653" y2="1649.896"/>
      <line x1="527.653" y1="1650.896" x2="477.653" y2="1650.896"/>
      <line x1="527.653" y1="1651.896" x2="477.653" y2="1651.896"/>
      <line x1="527.653" y1="1652.896" x2="477.653" y2="1652.896"/>
      <line x1="527.653" y1="1653.896" x2="477.653" y2="1653.896"/>
      <line x1="527.653" y1="1654.896" x2="477.653" y2="1654.896"/>
      <line x1="527.653" y1="1655.896" x2="477.653" y2="1655.896"/>
      <line x1="527.653" y1="1656.896" x2="477.653" y2="1656.896"/>
      <line x1="527.653" y1="1657.896" x2="477.653" y2="1657.896"/>
      <line x1="527.653" y1="1658.896" x2="477.653" y2="1658.896"/>
      <line x1="527.653" y1="1659.896" x2="477.653" y2="1659.896"/>
      <line x1="527.653" y1="1660.896" x2="477.653" y2="1660.896"/>
      <line x1="527.653" y1="1661.896" x2="477.653" y2="1661.896"/>
      <line x1="527.653" y1="1662.896" x2="477.653" y2="1662.896"/>
      <line x1="527.653" y1="1663.896" x2="477.653" y2="1663.896"/>
      <line x1="527.653" y1="1664.896" x2="477.653" y2="1664.896"/>
      <line x1="527.653" y1="1665.896" x2="477.653" y2="1665.896"/>
      <line x1="527.653" y1="1666.896" x2="477.653" y2="1666.896"/>
      <line x1="527.653" y1="1667.896" x2="477.653" y2="1667.896"/>
      <line x1="527.653" y1="1668.896" x2="477.653" y2="1668.896"/>
      <line x1="527.653" y1="1669.896" x2="477.653" y2="1669.896"/>
      <line x1="527.653" y1="1670.896" x2="477.653" y2="1670.896"/>
      <line x1="527.653" y1="1671.896" x2="477.653" y2="1671.896"/>
      <line x1="527.653" y1="1672.896" x2="477.653" y2="1672.896"/>
      <line x1="527.653" y1="1673.896" x2="477.653" y2="1673.896"/>
      <line x1="527.653" y1="1674.896" x2="477.653" y2="1674.896"/>
      <line x1="527.653" y1="1675.896" x2="477.653" y2="1675.896"/>
      <line x1="527.653" y1="1676.896" x2="477.653" y2="1676.896"/>
      <line x1="527.653" y1="1677.896" x2="477.653" y2="1677.896"/>
      <line x1="527.653" y1="1678.896" x2="477.653" y2="1678.896"/>
      <line x1="577.753" y1="1629.896" x2="527.753" y2="1629.896"/>
      <line x1="577.753" y1="1630.896" x2="527.753" y2="1630.896"/>
      <line x1="577.753" y1="1631.896" x2="527.753" y2="1631.896"/>
      <line x1="577.753" y1="1632.896" x2="527.753" y2="1632.896"/>
      <line x1="577.753" y1="1633.896" x2="527.753" y2="1633.896"/>
      <line x1="577.753" y1="1634.896" x2="527.753" y2="1634.896"/>
      <line x1="577.753" y1="1635.896" x2="527.753" y2="1635.896"/>
      <line x1="577.753" y1="1636.896" x2="527.753" y2="1636.896"/>
      <line x1="577.753" y1="1637.896" x2="527.753" y2="1637.896"/>
      <line x1="577.753" y1="1638.896" x2="527.753" y2="1638.896"/>
      <line x1="577.753" y1="1639.896" x2="527.753" y2="1639.896"/>
      <line x1="577.753" y1="1640.896" x2="527.753" y2="1640.896"/>
      <line x1="577.753" y1="1641.896" x2="527.753" y2="1641.896"/>
      <line x1="577.753" y1="1642.896" x2="527.753" y2="1642.896"/>
      <line x1="577.753" y1="1643.896" x2="527.753" y2="1643.896"/>
      <line x1="577.753" y1="1644.896" x2="527.753" y2="1644.896"/>
      <line x1="577.753" y1="1645.896" x2="527.753" y2="1645.896"/>
      <line x1="577.753" y1="1646.896" x2="527.753" y2="1646.896"/>
      <line x1="577.753" y1="1647.896" x2="527.753" y2="1647.896"/>
      <line x1="577.753" y1="1648.896" x2="527.753" y2="1648.896"/>
      <line x1="577.753" y1="1649.896" x2="527.753" y2="1649.896"/>
      <line x1="577.753" y1="1650.896" x2="527.753" y2="1650.896"/>
      <line x1="577.753" y1="1651.896" x2="527.753" y2="1651.896"/>
      <line x1="577.753" y1="1652.896" x2="527.753" y2="1652.896"/>
      <line x1="577.753" y1="1653.896" x2="527.753" y2="1653.896"/>
      <line x1="577.753" y1="1654.896" x2="527.753" y2="1654.896"/>
      <line x1="577.753" y1="1655.896" x2="527.753" y2="1655.896"/>
      <line x1="577.753" y1="1656.896" x2="527.753" y2="1656.896"/>
      <line x1="577.753" y1="1657.896" x2="527.753" y2="1657.896"/>
      <line x1="577.753" y1="1658.896" x2="527.753" y2="1658.896"/>
      <line x1="577.753" y1="1659.896" x2="527.753" y2="1659.896"/>
      <line x1="577.753" y1="1660.896" x2="527.753" y2="1660.896"/>
      <line x1="577.753" y1="1661.896" x2="527.753" y2="1661.896"/>
      <line x1="577.753" y1="1662.896" x2="527.753" y2="1662.896"/>
      <line x1="577.753" y1="1663.896" x2="527.753" y2="1663.896"/>
      <line x1="577.753" y1="1664.896" x2="527.753" y2="1664.896"/>
      <line x1="577.753" y1="1665.896" x2="527.753" y2="1665.896"/>
      <line x1="577.753" y1="1666.896" x2="527.753" y2="1666.896"/>
      <line x1="577.753" y1="1667.896" x2="527.753" y2="1667.896"/>
      <line x1="577.753" y1="1668.896" x2="527.753" y2="1668.896"/>
      <line x1="577.753" y1="1669.896" x2="527.753" y2="1669.896"/>
      <line x1="577.753" y1="1670.896" x2="527.753" y2="1670.896"/>
      <line x1="577.753" y1="1671.896" x2="527.753" y2="1671.896"/>
      <line x1="577.753" y1="1672.896" x2="527.753" y2="1672.896"/>
      <line x1="577.753" y1="1673.896" x2="527.753" y2="1673.896"/>
      <line x1="577.753" y1="1674.896" x2="527.753" y2="1674.896"/>
      <line x1="577.753" y1="1675.896" x2="527.753" y2="1675.896"/>
      <line x1="577.753" y1="1676.896" x2="527.753" y2="1676.896"/>
      <line x1="577.753" y1="1677.896" x2="527.753" y2="1677.896"/>
      <line x1="577.753" y1="1678.896" x2="527.753" y2="1678.896"/>
      <line x1="597.000" y1="1629.896" x2="577.853" y2="1629.896"/>
      <line x1="597.000" y1="1630.896" x2="577.853" y2="1630.896"/>
      <line x1="597.000" y1="1631.896" x2="577.853" y2="1631.896"/>
      <line x1="597.000" y1="1632.896" x2="577.853" y2="1632.896"/>
      <line x1="597.000" y1="1633.896" x2="577.853" y2="1633.896"/>
      <line x1="597.000" y1="1634.896" x2="577.853" y2="1634.896"/>
      <line x1="597.000" y1="1635.896" x2="577.853" y2="1635.896"/>
      <line x1="597.000" y1="1636.896" x2="577.853" y2="1636.896"/>
      <line x1="597.000" y1="1637.896" x2="577.853" y2="1637.896"/>
      <line x1="597.000" y1="1638.896" x2="577.853" y2="1638.896"/>
      <line x1="597.000" y1="1639.896" x2="577.853" y2="1639.896"/>
      <line x1="597.000" y1="1640.896" x2="577.853" y2="1640.896"/>
      <line x1="597.000" y1="1641.896" x2="577.853" y2="1641.896"/>
      <line x1="597.000" y1="1642.896" x2="577.853" y2="1642.896"/>
      <line x1="597.000" y1="1643.896" x2="577.853" y2="1643.896"/>
      <line x1="597.000" y1="1644.896" x2="577.853" y2="1644.896"/>
      <line x1="597.000" y1="1645.896" x2="577.853" y2="1645.896"/>
      <line x1="597.000" y1="1646.896" x2="577.853" y2="1646.896"/>
      <line x1="597.000" y1="1647.896" x2="577.853" y2="1647.896"/>
      <line x1="597.000" y1="1648.896" x2="577.853" y2="1648.896"/>
      <line x1="597.000" y1="1649.896" x2="577.853" y2="1649.896"/>
      <line x1="597.000" y1="1650.896" x2="577.853" y2="1650.896"/>
      <line x1="597.000" y1="1651.896" x2="577.853" y2="1651.896"/>
      <line x1="597.000" y1="1652.896" x2="577.853" y2="1652.896"/>
      <line x1="597.000" y1="1653.896" x2="577.853" y2="1653.896"/>
      <line x1="597.000" y1="1654.896" x2="577.853" y2="1654.896"/>
      <line x1="597.000" y1="1655.896" x2="577.853" y2="1655.896"/>
      <line x1="597.000" y1="1656.896" x2="577.853" y2="1656.896"/>
      <line x1="597.000" y1="1657.896" x2="577.853" y2="1657.896"/>
      <line x1="597.000" y1="1658.896" x2="577.853" y2="1658.896"/>
      <line x1="597.000" y1="1659.896" x2="577.853" y2="1659.896"/>
      <line x1="597.000" y1="1660.896" x2="577.853" y2="1660.896"/>
      <line x1="597.000" y1="1661.896" x2="577.853" y2="1661.896"/>
      <line x1="597.000" y1="1662.896" x2="577.853" y2="1662.896"/>
      <line x1="597.000" y1="1663.896" x2="577.853" y2="1663.896"/>
      <line x1="597.000" y1="1664.896" x2="577.853" y2="1664.896"/>
      <line x1="597.000" y1="1665.896" x2="577.853" y2="1665.896"/>
      <line x1="597.000" y1="1666.896" x2="577.853" y2="1666.896"/>
      <line x1="597.000" y1="1667.896" x2="577.853" y2="1667.896"/>
      <line x1="597.000" y1="1668.896" x2="577.853" y2="1668.896"/>
      <line x1="597.000" y1="1669.896" x2="577.853" y2="1669.896"/>
      <line x1="597.000" y1="1670.896" x2="577.853" y2="1670.896"/>
      <line x1="597.000" y1="1671.896" x2="577.853" y2="1671.896"/>
      <line x1="597.000" y1="1672.896" x2="577.853" y2="1672.896"/>
      <line x1="597.000" y1="1673.896" x2="577.853" y2="1673.896"/>
      <line x1="597.000" y1="1674.896" x2="577.853" y2="1674.896"/>
      <line x1="597.000" y1="1675.896" x2="577.853" y2="1675.896"/>
      <line x1="597.000" y1="1676.896" x2="577.853" y2="1676.896"/>
      <line x1="597.000" y1="1677.896" x2="577.853" y2="1677.896"/>
      <line x1="597.000" y1="1678.896" x2="577.853" y2="1678.896"/>
      <line x1="527.653" y1="1579.896" x2="477.653" y2="1579.896"/>
      <line x1="527.653" y1="1580.896" x2="477.653" y2="1580.896"/>
      <line x1="527.653" y1="1581.896" x2="477.653" y2="1581.896"/>
      <line x1="527.653" y1="1582.896" x2="477.653" y2="1582.896"/>
      <line x1="527.653" y1="1583.896" x2="477.653" y2="1583.896"/>
      <line x1="527.653" y1="1584.896" x2="477.653" y2="1584.896"/>
      <line x1="527.653" y1="1585.896" x2="477.653" y2="1585.896"/>
      <line x1="527.653" y1="1586.896" x2="477.653" y2="1586.896"/>
      <line x1="527.653" y1="1587.896" x2="477.653" y2="1587.896"/>
      <line x1="527.653" y1="1588.896" x2="477.653" y2="1588.896"/>
      <line x1="527.653" y1="1589.896" x2="477.653" y2="1589.896"/>
      <line x1="527.653" y1="1590.896" x2="477.653" y2="1590.896"/>
      <line x1="527.653" y1="1591.896" x2="477.653" y2="1591.896"/>
      <line x1="527.653" y1="1592.896" x2="477.653" y2="1592.896"/>
      <line x1="527.653" y1="1593.896" x2="477.653" y2="1593.896"/>
      <line x1="527.653" y1="1594.896" x2="477.653" y2="1594.896"/>
      <line x1="527.653" y1="1595.896" x2="477.653" y2="1595.896"/>
      <line x1="527.653" y1="1596.896" x2="477.653" y2="1596.896"/>
      <line x1="527.653" y1="1597.896" x2="477.653" y2="1597.896"/>
      <line x1="527.653" y1="1598.896" x2="477.653" y2="1598.896"/>
      <line x1="527.653" y1="1599.896" x2="477.653" y2="1599.896"/>
      <line x1="527.653" y1="1600.896" x2="477.653" y2="1600.896"/>
      <line x1="527.653" y1="1601.896" x2="477.653" y2="1601.896"/>
      <line x1="527.653" y1="1602.896" x2="477.653" y2="1602.896"/>
      <line x1="527.653" y1="1603.896" x2="477.653" y2="1603.896"/>
      <line x1="527.653" y1="1604.896" x2="477.653" y2="1604.896"/>
      <line x1="527.653" y1="1605.896" x2="477.653" y2="1605.896"/>
      <line x1="527.653" y1="1606.896" x2="477.653" y2="1606.896"/>
      <line x1="527.653" y1="1607.896" x2="477.653" y2="1607.896"/>
      <line x1="527.653" y1="1608.896" x2="477.653" y2="1608.896"/>
      <line x1="527.653" y1="1609.896" x2="477.653" y2="1609.896"/>
      <line x1="527.653" y1="1610.896" x2="477.653" y2="1610.896"/>
      <line x1="527.653" y1="1611.896" x2="477.653" y2="1611.896"/>
      <line x1="527.653" y1="1612.896" x2="477.653" y2="1612.896"/>
      <line x1="527.653" y1="1613.896" x2="477.653" y2="1613.896"/>
      <line x1="527.653" y1="1614.896" x2="477.653" y2="1614.896"/>
      <line x1="527.653" y1="1615.896" x2="477.653" y2="1615.896"/>
      <line x1="527.653" y1="1616.896" x2="477.653" y2="1616.896"/>
      <line x1="527.653" y1="1617.896" x2="477.653" y2="1617.896"/>
      <line x1="527.653" y1="1618.896" x2="477.653" y2="1618.896"/>
      <line x1="527.653" y1="1619.896" x2="477.653" y2="1619.896"/>
      <line x1="527.653" y1="1620.896" x2="477.653" y2="1620.896"/>
      <line x1="527.653" y1="1621.896" x2="477.653" y2="1621.896"/>
      <line x1="527.653" y1="1622.896" x2="477.653" y2="1622.896"/>
      <line x1="527.653" y1="1623.896" x2="477.653" y2="1623.896"/>
      <line x1="527.653" y1="1624.896" x2="477.653" y2="1624.896"/>
      <line x1="527.653" y1="1625.896" x2="477.653" y2="1625.896"/>
      <line x1="527.653" y1="1626.896" x2="477.653" y2="1626.896"/>
      <line x1="527.653" y1="1627.896" x2="477.653" y2="1627.896"/>
      <line x1="527.653" y1="1628.896" x2="477.653" y2="1628.896"/>
      <line x1="577.753" y1="1579.896" x2="527.753" y2="1579.896"/>
      <line x1="577.753" y1="1580.896" x2="527.753" y2="1580.896"/>
      <line x1="577.753" y1="1581.896" x2="527.753" y2="1581.896"/>
      <line x1="577.753" y1="1582.896" x2="527.753" y2="1582.896"/>
      <line x1="577.753" y1="1583.896" x2="527.753" y2="1583.896"/>
      <line x1="577.753" y1="1584.896" x2="527.753" y2="1584.896"/>
      <line x1="577.753" y1="1585.896" x2="527.753" y2="1585.896"/>
      <line x1="577.753" y1="1586.896" x2="527.753" y2="1586.896"/>
      <line x1="577.753" y1="1587.896" x2="527.753" y2="1587.896"/>
      <line x1="577.753" y1="1588.896" x2="527.753" y2="1588.896"/>
      <line x1="577.753" y1="1589.896" x2="527.753" y2="1589.896"/>
      <line x1="577.753" y1="1590.896" x2="527.753" y2="1590.896"/>
      <line x1="577.753" y1="1591.896" x2="527.753" y2="1591.896"/>
      <line x1="577.753" y1="1592.896" x2="527.753" y2="1592.896"/>
      <line x1="577.753" y1="1593.896" x2="527.753" y2="1593.896"/>
      <line x1="577.753" y1="1594.896" x2="527.753" y2="1594.896"/>
      <line x1="577.753" y1="1595.896" x2="527.753" y2="1595.896"/>
      <line x1="577.753" y1="1596.896" x2="527.753" y2="1596.896"/>
      <line x1="577.753" y1="1597.896" x2="527.753" y2="1597.896"/>
      <line x1="577.753" y1="1598.896" x2="527.753" y2="1598.896"/>
      <line x1="577.753" y1="1599.896" x2="527.753" y2="1599.896"/>
      <line x1="577.753" y1="1600.896" x2="527.753" y2="1600.896"/>
      <line x1="577.753" y1="1601.896" x2="527.753" y2="1601.896"/>
      <line x1="577.753" y1="1602.896" x2="527.753" y2="1602.896"/>
      <line x1="577.753" y1="1603.896" x2="527.753" y2="1603.896"/>
      <line x1="577.753" y1="1604.896" x2="527.753" y2="1604.896"/>
      <line x1="577.753" y1="1605.896" x2="527.753" y2="1605.896"/>
      <line x1="577.753" y1="1606.896" x2="527.753" y2="1606.896"/>
      <line x1="577.753" y1="1607.896" x2="527.753" y2="1607.896"/>
      <line x1="577.753" y1="1608.896" x2="527.753" y2="1608.896"/>
      <line x1="577.753" y1="1609.896" x2="527.753" y2="1609.896"/>
      <line x1="577.753" y1="1610.896" x2="527.753" y2="1610.896"/>
      <line x1="577.753" y1="1611.896" x2="527.753" y2="1611.896"/>
      <line x1="577.753" y1="1612.896" x2="527.753" y2="1612.896"/>
      <line x1="577.753" y1="1613.896" x2="527.753" y2="1613.896"/>
      <line x1="577.753" y1="1614.896" x2="527.753" y2="1614.896"/>
      <line x1="577.753" y1="1615.896" x2="527.753" y2="1615.896"/>
      <line x1="577.753" y1="1616.896" x2="527.753" y2="1616.896"/>
      <line x1="577.753" y1="1617.896" x2="527.753" y2="1617.896"/>
      <line x1="577.753" y1="1618.896" x2="527.753" y2="1618.896"/>
      <line x1="577.753" y1="1619.896" x2="527.753" y2="1619.896"/>
      <line x1="577.753" y1="1620.896" x2="527.753" y2="1620.896"/>
      <line x1="577.753" y1="1621.896" x2="527.753" y2="1621.896"/>
      <line x1="577.753" y1="1622.896" x2="527.753" y2="1622.896"/>
      <line x1="577.753" y1="1623.896" x2="527.753" y2="1623.896"/>
      <line x1="577.753" y1="1624.896" x2="527.753" y2="1624.896"/>
      <line x1="577.753" y1="1625.896" x2="527.753" y2="1625.896"/>
      <line x1="577.753" y1="1626.896" x2="527.753" y2="1626.896"/>
      <line x1="577.753" y1="1627.896" x2="527.753" y2="1627.896"/>
      <line x1="577.753" y1="1628.896" x2="527.753" y2="1628.896"/>
      <line x1="597.000" y1="1579.896" x2="577.853" y2="1579.896"/>
      <line x1="597.000" y1="1580.896" x2="577.853" y2="1580.896"/>
      <line x1="597.000" y1="1581.896" x2="577.853" y2="1581.896"/>
      <line x1="597.000" y1="1582.896" x2="577.853" y2="1582.896"/>
      <line x1="597.000" y1="1583.896" x2="577.853" y2="1583.896"/>
      <line x1="597.000" y1="1584.896" x2="577.853" y2="1584.896"/>
      <line x1="597.000" y1="1585.896" x2="577.853" y2="1585.896"/>
      <line x1="597.000" y1="1586.896" x2="577.853" y2="1586.896"/>
      <line x1="597.000" y1="1587.896" x2="577.853" y2="1587.896"/>
      <line x1="597.000" y1="1588.896" x2="577.853" y2="1588.896"/>
      <line x1="597.000" y1="1589.896" x2="577.853" y2="1589.896"/>
      <line x1="597.000" y1="1590.896" x2="577.853" y2="1590.896"/>
      <line x1="597.000" y1="1591.896" x2="577.853" y2="1591.896"/>
      <line x1="597.000" y1="1592.896" x2="577.853" y2="1592.896"/>
      <line x1="597.000" y1="1593.896" x2="577.853" y2="1593.896"/>
      <line x1="597.000" y1="1594.896" x2="577.853" y2="1594.896"/>
      <line x1="597.000" y1="1595.896" x2="577.853" y2="1595.896"/>
      <line x1="597.000" y1="1596.896" x2="577.853" y2="1596.896"/>
      <line x1="597.000" y1="1597.896" x2="577.853" y2="1597.896"/>
      <line x1="597.000" y1="1598.896" x2="577.853" y2="1598.896"/>
      <line x1="597.000" y1="1599.896" x2="577.853" y2="1599.896"/>
      <line x1="597.000" y1="1600.896" x2="577.853" y2="1600.896"/>
      <line x1="597.000" y1="1601.896" x2="577.853" y2="1601.896"/>
      <line x1="597.000" y1="1602.896" x2="577.853" y2="1602.896"/>
      <line x1="597.000" y1="1603.896" x2="577.853" y2="1603.896"/>
      <line x1="597.000" y1="1604.896" x2="577.853" y2="1604.896"/>
      <line x1="597.000" y1="1605.896" x2="577.853" y2="1605.896"/>
      <line x1="597.000" y1="1606.896" x2="577.853" y2="1606.896"/>
      <line x1="597.000" y1="1607.896" x2="577.853" y2="1607.896"/>
      <line x1="597.000" y1="1608.896" x2="577.853" y2="1608.896"/>
      <line x1="597.000" y1="1609.896" x2="577.853" y2="1609.896"/>
      <line x1="597.000" y1="1610.896" x2="577.853" y2="1610.896"/>
      <line x1="597.000" y1="1611.896" x2="577.853" y2="1611.896"/>
      <line x1="597.000" y1="1612.896" x2="577.853" y2="1612.896"/>
      <line x1="597.000" y1="1613.896" x2="577.853" y2="1613.896"/>
      <line x1="597.000" y1="1614.896" x2="577.853" y2="1614.896"/>
      <line x1="597.000" y1="1615.896" x2="577.853" y2="1615.896"/>
      <line x1="597.000" y1="1616.896" x2="577.853" y2="1616.896"/>
      <line x1="597.000" y1="1617.896" x2="577.853" y2="1617.896"/>
      <line x1="597.000" y1="1618.896" x2="577.853" y2="1618.896"/>
      <line x1="597.000" y1="1619.896" x2="577.853" y2="1619.896"/>
      <line x1="597.000" y1="1620.896" x2="577.853" y2="1620.896"/>
      <line x1="597.000" y1="1621.896" x2="577.853" y2="1621.896"/>
      <line x1="597.000" y1="1622.896" x2="577.853" y2="1622.896"/>
      <line x1="597.000" y1="1623.896" x2="577.853" y2="1623.896"/>
      <line x1="597.000" y1="1624.896" x2="577.853" y2="1624.896"/>
      <line x1="597.000" y1="1625.896" x2="577.853" y2="1625.896"/>
      <line x1="597.000" y1="1626.896" x2="577.853" y2="1626.896"/>
      <line x1="597.000" y1="1627.896" x2="577.853" y2="1627.896"/>
      <line x1="597.000" y1="1628.896" x2="577.853" y2="1628.896"/>
      <line x1="527.653" y1="1529.896" x2="477.653" y2="1529.896"/>
      <line x1="527.653" y1="1530.896" x2="477.653" y2="1530.896"/>
      <line x1="527.653" y1="1531.896" x2="477.653" y2="1531.896"/>
      <line x1="527.653" y1="1532.896" x2="477.653" y2="1532.896"/>
      <line x1="527.653" y1="1533.896" x2="477.653" y2="1533.896"/>
      <line x1="527.653" y1="1534.896" x2="477.653" y2="1534.896"/>
      <line x1="527.653" y1="1535.896" x2="477.653" y2="1535.896"/>
      <line x1="527.653" y1="1536.896" x2="477.653" y2="1536.896"/>
      <line x1="527.653" y1="1537.896" x2="477.653" y2="1537.896"/>
      <line x1="527.653" y1="1538.896" x2="477.653" y2="1538.896"/>
      <line x1="527.653" y1="1539.896" x2="477.653" y2="1539.896"/>
      <line x1="527.653" y1="1540.896" x2="477.653" y2="1540.896"/>
      <line x1="527.653" y1="1541.896" x2="477.653" y2="1541.896"/>
      <line x1="527.653" y1="1542.896" x2="477.653" y2="1542.896"/>
      <line x1="527.653" y1="1543.896" x2="477.653" y2="1543.896"/>
      <line x1="527.653" y1="1544.896" x2="477.653" y2="1544.896"/>
      <line x1="527.653" y1="1545.896" x2="477.653" y2="1545.896"/>
      <line x1="527.653" y1="1546.896" x2="477.653" y2="1546.896"/>
      <line x1="527.653" y1="1547.896" x2="477.653" y2="1547.896"/>
      <line x1="527.653" y1="1548.896" x2="477.653" y2="1548.896"/>
      <line x1="527.653" y1="1549.896" x2="477.653" y2="1549.896"/>
      <line x1="527.653" y1="1550.896" x2="477.653" y2="1550.896"/>
      <line x1="527.653" y1="1551.896" x2="477.653" y2="1551.896"/>
      <line x1="527.653" y1="1552.896" x2="477.653" y2="1552.896"/>
      <line x1="527.653" y1="1553.896" x2="477.653" y2="1553.896"/>
      <line x1="527.653" y1="1554.896" x2="477.653" y2="1554.896"/>
      <line x1="527.653" y1="1555.896" x2="477.653" y2="1555.896"/>
      <line x1="527.653" y1="1556.896" x2="477.653" y2="1556.896"/>
      <line x1="527.653" y1="1557.896" x2="477.653" y2="1557.896"/>
      <line x1="527.653" y1="1558.896" x2="477.653" y2="1558.896"/>
      <line x1="527.653" y1="1559.896" x2="477.653" y2="1559.896"/>
      <line x1="527.653" y1="1560.896" x2="477.653" y2="1560.896"/>
      <line x1="527.653" y1="1561.896" x2="477.653" y2="1561.896"/>
      <line x1="527.653" y1="1562.896" x2="477.653" y2="1562.896"/>
      <line x1="527.653" y1="1563.896" x2="477.653" y2="1563.896"/>
      <line x1="527.653" y1="1564.896" x2="477.653" y2="1564.896"/>
      <line x1="527.653" y1="1565.896" x2="477.653" y2="1565.896"/>
      <line x1="527.653" y1="1566.896" x2="477.653" y2="1566.896"/>
      <line x1="527.653" y1="1567.896" x2="477.653" y2="1567.896"/>
      <line x1="527.653" y1="1568.896" x2="477.653" y2="1568.896"/>
      <line x1="527.653" y1="1569.896" x2="477.653" y2="1569.896"/>
      <line x1="527.653" y1="1570.896" x2="477.653" y2="1570.896"/>
      <line x1="527.653" y1="1571.896" x2="477.653" y2="1571.896"/>
      <line x1="527.653" y1="1572.896" x2="477.653" y2="1572.896"/>
      <line x1="527.653" y1="1573.896" x2="477.653" y2="1573.896"/>
      <line x1="527.653" y1="1574.896" x2="477.653" y2="1574.896"/>
      <line x1="527.653" y1="1575.896" x2="477.653" y2="1575.896"/>
      <line x1="527.653" y1="1576.896" x2="477.653" y2="1576.896"/>
      <line x1="527.653" y1="1577.896" x2="477.653" y2="1577.896"/>
      <line x1="527.653" y1="1578.896" x2="477.653" y2="1578.896"/>
      <line x1="577.753" y1="1529.896" x2="527.753" y2="1529.896"/>
      <line x1="577.753" y1="1530.896" x2="527.753" y2="1530.896"/>
      <line x1="577.753" y1="1531.896" x2="527.753" y2="1531.896"/>
      <line x1="577.753" y1="1532.896" x2="527.753" y2="1532.896"/>
      <line x1="577.753" y1="1533.896" x2="527.753" y2="1533.896"/>
      <line x1="577.753" y1="1534.896" x2="527.753" y2="1534.896"/>
      <line x1="577.753" y1="1535.896" x2="527.753" y2="1535.896"/>
      <line x1="577.753" y1="1536.896" x2="527.753" y2="1536.896"/>
      <line x1="577.753" y1="1537.896" x2="527.753" y2="1537.896"/>
      <line x1="577.753" y1="1538.896" x2="527.753" y2="1538.896"/>
      <line x1="577.753" y1="1539.896" x2="527.753" y2="1539.896"/>
      <line x1="577.753" y1="1540.896" x2="527.753" y2="1540.896"/>
      <line x1="577.753" y1="1541.896" x2="527.753" y2="1541.896"/>
      <line x1="577.753" y1="1542.896" x2="527.753" y2="1542.896"/>
      <line x1="577.753" y1="1543.896" x2="527.753" y2="1543.896"/>
      <line x1="577.753" y1="1544.896" x2="527.753" y2="1544.896"/>
      <line x1="577.753" y1="1545.896" x2="527.753" y2="1545.896"/>
      <line x1="577.753" y1="1546.896" x2="527.753" y2="1546.896"/>
      <line x1="577.753" y1="1547.896" x2="527.753" y2="1547.896"/>
      <line x1="577.753" y1="1548.896" x2="527.753" y2="1548.896"/>
      <line x1="577.753" y1="1549.896" x2="527.753" y2="1549.896"/>
      <line x1="577.753" y1="1550.896" x2="527.753" y2="1550.896"/>
      <line x1="577.753" y1="1551.896" x2="527.753" y2="1551.896"/>
      <line x1="577.753" y1="1552.896" x2="527.753" y2="1552.896"/>
      <line x1="577.753" y1="1553.896" x2="527.753" y2="1553.896"/>
      <line x1="577.753" y1="1554.896" x2="527.753" y2="1554.896"/>
      <line x1="577.753" y1="1555.896" x2="527.753" y2="1555.896"/>
      <line x1="577.753" y1="1556.896" x2="527.753" y2="1556.896"/>
      <line x1="577.753" y1="1557.896" x2="527.753" y2="1557.896"/>
      <line x1="577.753" y1="1558.896" x2="527.753" y2="1558.896"/>
      <line x1="577.753" y1="1559.896" x2="527.753" y2="1559.896"/>
      <line x1="577.753" y1="1560.896" x2="527.753" y2="1560.896"/>
      <line x1="577.753" y1="1561.896" x2="527.753" y2="1561.896"/>
      <line x1="577.753" y1="1562.896" x2="527.753" y2="1562.896"/>
      <line x1="577.753" y1="1563.896" x2="527.753" y2="1563.896"/>
      <line x1="577.753" y1="1564.896" x2="527.753" y2="1564.896"/>
      <line x1="577.753" y1="1565.896" x2="527.753" y2="1565.896"/>
      <line x1="577.753" y1="1566.896" x2="527.753" y2="1566.896"/>
      <line x1="577.753" y1="1567.896" x2="527.753" y2="1567.896"/>
      <line x1="577.753" y1="1568.896" x2="527.753" y2="1568.896"/>
      <line x1="577.753" y1="1569.896" x2="527.753" y2="1569.896"/>
      <line x1="577.753" y1="1570.896" x2="527.753" y2="1570.896"/>
      <line x1="577.753" y1="1571.896" x2="527.753" y2="1571.896"/>
      <line x1="577.753" y1="1572.896" x2="527.753" y2="1572.896"/>
      <line x1="577.753" y1="1573.896" x2="527.753" y2="1573.896"/>
      <line x1="577.753" y1="1574.896" x2="527.753" y2="1574.896"/>
      <line x1="577.753" y1="1575.896" x2="527.753" y2="1575.896"/>
      <line x1="577.753" y1="1576.896" x2="527.753" y2="1576.896"/>
      <line x1="577.753" y1="1577.896" x2="527.753" y2="1577.896"/>
      <line x1="577.753" y1="1578.896" x2="527.753" y2="1578.896"/>
      <line x1="597.000" y1="1529.896" x2="577.853" y2="1529.896"/>
      <line x1="597.000" y1="1530.896" x2="577.853" y2="1530.896"/>
      <line x1="597.000" y1="1531.896" x2="577.853" y2="1531.896"/>
      <line x1="597.000" y1="1532.896" x2="577.853" y2="1532.896"/>
      <line x1="597.000" y1="1533.896" x2="577.853" y2="1533.896"/>
      <line x1="597.000" y1="1534.896" x2="577.853" y2="1534.896"/>
      <line x1="597.000" y1="1535.896" x2="577.853" y2="1535.896"/>
      <line x1="597.000" y1="1536.896" x2="577.853" y2="1536.896"/>
      <line x1="597.000" y1="1537.896" x2="577.853" y2="1537.896"/>
      <line x1="597.000" y1="1538.896" x2="577.853" y2="1538.896"/>
      <line x1="597.000" y1="1539.896" x2="577.853" y2="1539.896"/>
      <line x1="597.000" y1="1540.896" x2="577.853" y2="1540.896"/>
      <line x1="597.000" y1="1541.896" x2="577.853" y2="1541.896"/>
      <line x1="597.000" y1="1542.896" x2="577.853" y2="1542.896"/>
      <line x1="597.000" y1="1543.896" x2="577.853" y2="1543.896"/>
      <line x1="597.000" y1="1544.896" x2="577.853" y2="1544.896"/>
      <line x1="597.000" y1="1545.896" x2="577.853" y2="1545.896"/>
      <line x1="597.000" y1="1546.896" x2="577.853" y2="1546.896"/>
      <line x1="597.000" y1="1547.896" x2="577.853" y2="1547.896"/>
      <line x1="597.000" y1="1548.896" x2="577.853" y2="1548.896"/>
      <line x1="597.000" y1="1549.896" x2="577.853" y2="1549.896"/>
      <line x1="597.000" y1="1550.896" x2="577.853" y2="1550.896"/>
      <line x1="597.000" y1="1551.896" x2="577.853" y2="1551.896"/>
      <line x1="597.000" y1="1552.896" x2="577.853" y2="1552.896"/>
      <line x1="597.000" y1="1553.896" x2="577.853" y2="1553.896"/>
      <line x1="597.000" y1="1554.896" x2="577.853" y2="1554.896"/>
      <line x1="597.000" y1="1555.896" x2="577.853" y2="1555.896"/>
      <line x1="597.000" y1="1556.896" x2="577.853" y2="1556.896"/>
      <line x1="597.000" y1="1557.896" x2="577.853" y2="1557.896"/>
      <line x1="597.000" y1="1558.896" x2="577.853" y2="1558.896"/>
      <line x1="597.000" y1="1559.896" x2="577.853" y2="1559.896"/>
      <line x1="597.000" y1="1560.896" x2="577.853" y2="1560.896"/>
      <line x1="597.000" y1="1561.896" x2="577.853" y2="1561.896"/>
      <line x1="597.000" y1="1562.896" x2="577.853" y2="1562.896"/>
      <line x1="597.000" y1="1563.896" x2="577.853" y2="1563.896"/>
      <line x1="597.000" y1="1564.896" x2="577.853" y2="1564.896"/>
      <line x1="597.000" y1="1565.896" x2="577.853" y2="1565.896"/>
      <line x1="597.000" y1="1566.896" x2="577.853" y2="1566.896"/>
      <line x1="597.000" y1="1567.896" x2="577.853" y2="1567.896"/>
      <line x1="597.000" y1="1568.896" x2="577.853" y2="1568.896"/>
      <line x1="597.000" y1="1569.896" x2="577.853" y2="1569.896"/>
      <line x1="597.000" y1="1570.896" x2="577.853" y2="1570.896"/>
      <line x1="597.000" y1="1571.896" x2="577.853" y2="1571.896"/>
      <line x1="597.000" y1="1572.896" x2="577.853" y2="1572.896"/>
      <line x1="597.000" y1="1573.896" x2="577.853" y2="1573.896"/>
      <line x1="597.000" y1="1574.896" x2="577.853" y2="1574.896"/>
      <line x1="597.000" y1="1575.896" x2="577.853" y2="1575.896"/>
      <line x1="597.000" y1="1576.896" x2="577.853" y2="1576.896"/>
      <line x1="597.000" y1="1577.896" x2="577.853" y2="1577.896"/>
      <line x1="597.000" y1="1578.896" x2="577.853" y2="1578.896"/>
      <line x1="527.653" y1="1525.896" x2="477.653" y2="1525.896"/>
      <line x1="527.653" y1="1526.896" x2="477.653" y2="1526.896"/>
      <line x1="527.653" y1="1527.896" x2="477.653" y2="1527.896"/>
      <line x1="527.653" y1="1528.896" x2="477.653" y2="1528.896"/>
      <line x1="577.753" y1="1525.896" x2="527.753" y2="1525.896"/>
      <line x1="577.753" y1="1526.896" x2="527.753" y2="1526.896"/>
      <line x1="577.753" y1="1527.896" x2="527.753" y2="1527.896"/>
      <line x1="577.753" y1="1528.896" x2="527.753" y2="1528.896"/>
      <line x1="597.000" y1="1525.896" x2="577.853" y2="1525.896"/>
      <line x1="597.000" y1="1526.896" x2="577.853" y2="1526.896"/>
      <line x1="597.000" y1="1527.896" x2="577.853" y2="1527.896"/>
      <line x1="597.000" y1="1528.896" x2="577.853" y2="1528.896"/>
      <line x1="53.000" y1="1629.896" x2="3.000" y2="1629.896"/>
      <line x1="53.000" y1="1630.896" x2="3.000" y2="1630.896"/>
      <line x1="53.000" y1="1631.896" x2="3.000" y2="1631.896"/>
      <line x1="53.000" y1="1632.896" x2="3.000" y2="1632.896"/>
      <line x1="53.000" y1="1633.896" x2="3.000" y2="1633.896"/>
      <line x1="53.000" y1="1634.896" x2="3.000" y2="1634.896"/>
      <line x1="53.000" y1="1635.896" x2="3.000" y2="1635.896"/>
      <line x1="53.000" y1="1636.896" x2="3.000" y2="1636.896"/>
      <line x1="53.000" y1="1637.896" x2="3.000" y2="1637.896"/>
      <line x1="53.000" y1="1638.896" x2="3.000" y2="1638.896"/>
      <line x1="53.000" y1="1639.896" x2="3.000" y2="1639.896"/>
      <line x1="53.000" y1="1640.896" x2="3.000" y2="1640.896"/>
      <line x1="53.000" y1="1641.896" x2="3.000" y2="1641.896"/>
      <line x1="53.000" y1="1642.896" x2="3.000" y2="1642.896"/>
      <line x1="53.000" y1="1643.896" x2="3.000" y2="1643.896"/>
      <line x1="53.000" y1="1644.896" x2="3.000" y2="1644.896"/>
      <line x1="53.000" y1="1645.896" x2="3.000" y2="1645.896"/>
      <line x1="53.000" y1="1646.896" x2="3.000" y2="1646.896"/>
      <line x1="53.000" y1="1647.896" x2="3.000" y2="1647.896"/>
      <line x1="53.000" y1="1648.896" x2="3.000" y2="1648.896"/>
      <line x1="53.000" y1="1649.896" x2="3.000" y2="1649.896"/>
      <line x1="53.000" y1="1650.896" x2="3.000" y2="1650.896"/>
      <line x1="53.000" y1="1651.896" x2="3.000" y2="1651.896"/>
      <line x1="53.000" y1="1652.896" x2="3.000" y2="1652.896"/>
      <line x1="53.000" y1="1653.896" x2="3.000" y2="1653.896"/>
      <line x1="53.000" y1="1654.896" x2="3.000" y2="1654.896"/>
      <line x1="53.000" y1="1655.896" x2="3.000" y2="1655.896"/>
      <line x1="53.000" y1="1656.896" x2="3.000" y2="1656.896"/>
      <line x1="53.000" y1="1657.896" x2="3.000" y2="1657.896"/>
      <line x1="53.000" y1="1658.896" x2="3.000" y2="1658.896"/>
      <line x1="53.000" y1="1659.896" x2="3.000" y2="1659.896"/>
      <line x1="53.000" y1="1660.896" x2="3.000" y2="1660.896"/>
      <line x1="53.000" y1="1661.896" x2="3.000" y2="1661.896"/>
      <line x1="53.000" y1="1662.896" x2="3.000" y2="1662.896"/>
      <line x1="53.000" y1="1663.896" x2="3.000" y2="1663.896"/>
      <line x1="53.000" y1="1664.896" x2="3.000" y2="1664.896"/>
      <line x1="53.000" y1="1665.896" x2="3.000" y2="1665.896"/>
      <line x1="53.000" y1="1666.896" x2="3.000" y2="1666.896"/>
      <line x1="53.000" y1="1667.896" x2="3.000" y2="1667.896"/>
      <line x1="53.000" y1="1668.896" x2="3.000" y2="1668.896"/>
      <line x1="53.000" y1="1669.896" x2="3.000" y2="1669.896"/>
      <line x1="53.000" y1="1670.896" x2="3.000" y2="1670.896"/>
      <line x1="53.000" y1="1671.896" x2="3.000" y2="1671.896"/>
      <line x1="53.000" y1="1672.896" x2="3.000" y2="1672.896"/>
      <line x1="53.000" y1="1673.896" x2="3.000" y2="1673.896"/>
      <line x1="53.000" y1="1674.896" x2="3.000" y2="1674.896"/>
      <line x1="53.000" y1="1675.896" x2="3.000" y2="1675.896"/>
      <line x1="53.000" y1="1676.896" x2="3.000" y2="1676.896"/>
      <line x1="53.000" y1="1677.896" x2="3.000" y2="1677.896"/>
      <line x1="53.000" y1="1678.896" x2="3.000" y2="1678.896"/>
      <line x1="103.100" y1="1629.896" x2="53.100" y2="1629.896"/>
      <line x1="103.100" y1="1630.896" x2="53.100" y2="1630.896"/>
      <line x1="103.100" y1="1631.896" x2="53.100" y2="1631.896"/>
      <line x1="103.100" y1="1632.896" x2="53.100" y2="1632.896"/>
      <line x1="103.100" y1="1633.896" x2="53.100" y2="1633.896"/>
      <line x1="103.100" y1="1634.896" x2="53.100" y2="1634.896"/>
      <line x1="103.100" y1="1635.896" x2="53.100" y2="1635.896"/>
      <line x1="103.100" y1="1636.896" x2="53.100" y2="1636.896"/>
      <line x1="103.100" y1="1637.896" x2="53.100" y2="1637.896"/>
      <line x1="103.100" y1="1638.896" x2="53.100" y2="1638.896"/>
      <line x1="103.100" y1="1639.896" x2="53.100" y2="1639.896"/>
      <line x1="103.100" y1="1640.896" x2="53.100" y2="1640.896"/>
      <line x1="103.100" y1="1641.896" x2="53.100" y2="1641.896"/>
      <line x1="103.100" y1="1642.896" x2="53.100" y2="1642.896"/>
      <line x1="103.100" y1="1643.896" x2="53.100" y2="1643.896"/>
      <line x1="103.100" y1="1644.896" x2="53.100" y2="1644.896"/>
      <line x1="103.100" y1="1645.896" x2="53.100" y2="1645.896"/>
      <line x1="103.100" y1="1646.896" x2="53.100" y2="1646.896"/>
      <line x1="103.100" y1="1647.896" x2="53.100" y2="1647.896"/>
      <line x1="103.100" y1="1648.896" x2="53.100" y2="1648.896"/>
      <line x1="103.100" y1="1649.896" x2="53.100" y2="1649.896"/>
      <line x1="103.100" y1="1650.896" x2="53.100" y2="1650.896"/>
      <line x1="103.100" y1="1651.896" x2="53.100" y2="1651.896"/>
      <line x1="103.100" y1="1652.896" x2="53.100" y2="1652.896"/>
      <line x1="103.100" y1="1653.896" x2="53.100" y2="1653.896"/>
      <line x1="103.100" y1="1654.896" x2="53.100" y2="1654.896"/>
      <line x1="103.100" y1="1655.896" x2="53.100" y2="1655.896"/>
      <line x1="103.100" y1="1656.896" x2="53.100" y2="1656.896"/>
      <line x1="103.100" y1="1657.896" x2="53.100" y2="1657.896"/>
      <line x1="103.100" y1="1658.896" x2="53.100" y2="1658.896"/>
      <line x1="103.100" y1="1659.896" x2="53.100" y2="1659.896"/>
      <line x1="103.100" y1="1660.896" x2="53.100" y2="1660.896"/>
      <line x1="103.100" y1="1661.896" x2="53.100" y2="1661.896"/>
      <line x1="103.100" y1="1662.896" x2="53.100" y2="1662.896"/>
      <line x1="103.100" y1="1663.896" x2="53.100" y2="1663.896"/>
      <line x1="103.100" y1="1664.896" x2="53.100" y2="1664.896"/>
      <line x1="103.100" y1="1665.896" x2="53.100" y2="1665.896"/>
      <line x1="103.100" y1="1666.896" x2="53.100" y2="1666.896"/>
      <line x1="103.100" y1="1667.896" x2="53.100" y2="1667.896"/>
      <line x1="103.100" y1="1668.896" x2="53.100" y2="1668.896"/>
      <line x1="103.100" y1="1669.896" x2="53.100" y2="1669.896"/>
      <line x1="103.100" y1="1670.896" x2="53.100" y2="1670.896"/>
      <line x1="103.100" y1="1671.896" x2="53.100" y2="1671.896"/>
      <line x1="103.100" y1="1672.896" x2="53.100" y2="1672.896"/>
      <line x1="103.100" y1="1673.896" x2="53.100" y2="1673.896"/>
      <line x1="103.100" y1="1674.896" x2="53.100" y2="1674.896"/>
      <line x1="103.100" y1="1675.896" x2="53.100" y2="1675.896"/>
      <line x1="103.100" y1="1676.896" x2="53.100" y2="1676.896"/>
      <line x1="103.100" y1="1677.896" x2="53.100" y2="1677.896"/>
      <line x1="103.100" y1="1678.896" x2="53.100" y2="1678.896"/>
      <line x1="122.347" y1="1629.896" x2="103.200" y2="1629.896"/>
      <line x1="122.347" y1="1630.896" x2="103.200" y2="1630.896"/>
      <line x1="122.347" y1="1631.896" x2="103.200" y2="1631.896"/>
      <line x1="122.347" y1="1632.896" x2="103.200" y2="1632.896"/>
      <line x1="122.347" y1="1633.896" x2="103.200" y2="1633.896"/>
      <line x1="122.347" y1="1634.896" x2="103.200" y2="1634.896"/>
      <line x1="122.347" y1="1635.896" x2="103.200" y2="1635.896"/>
      <line x1="122.347" y1="1636.896" x2="103.200" y2="1636.896"/>
      <line x1="122.347" y1="1637.896" x2="103.200" y2="1637.896"/>
      <line x1="122.347" y1="1638.896" x2="103.200" y2="1638.896"/>
      <line x1="122.347" y1="1639.896" x2="103.200" y2="1639.896"/>
      <line x1="122.347" y1="1640.896" x2="103.200" y2="1640.896"/>
      <line x1="122.347" y1="1641.896" x2="103.200" y2="1641.896"/>
      <line x1="122.347" y1="1642.896" x2="103.200" y2="1642.896"/>
      <line x1="122.347" y1="1643.896" x2="103.200" y2="1643.896"/>
      <line x1="122.347" y1="1644.896" x2="103.200" y2="1644.896"/>
      <line x1="122.347" y1="1645.896" x2="103.200" y2="1645.896"/>
      <line x1="122.347" y1="1646.896" x2="103.200" y2="1646.896"/>
      <line x1="122.347" y1="1647.896" x2="103.200" y2="1647.896"/>
      <line x1="122.347" y1="1648.896" x2="103.200" y2="1648.896"/>
      <line x1="122.347" y1="1649.896" x2="103.200" y2="1649.896"/>
      <line x1="122.347" y1="1650.896" x2="103.200" y2="1650.896"/>
      <line x1="122.347" y1="1651.896" x2="103.200" y2="1651.896"/>
      <line x1="122.347" y1="1652.896" x2="103.200" y2="1652.896"/>
      <line x1="122.347" y1="1653.896" x2="103.200" y2="1653.896"/>
      <line x1="122.347" y1="1654.896" x2="103.200" y2="1654.896"/>
      <line x1="122.347" y1="1655.896" x2="103.200" y2="1655.896"/>
      <line x1="122.347" y1="1656.896" x2="103.200" y2="1656.896"/>
      <line x1="122.347" y1="1657.896" x2="103.200" y2="1657.896"/>
      <line x1="122.347" y1="1658.896" x2="103.200" y2="1658.896"/>
      <line x1="122.347" y1="1659.896" x2="103.200" y2="1659.896"/>
      <line x1="122.347" y1="1660.896" x2="103.200" y2="1660.896"/>
      <line x1="122.347" y1="1661.896" x2="103.200" y2="1661.896"/>
      <line x1="122.347" y1="1662.896" x2="103.200" y2="1662.896"/>
      <line x1="122.347" y1="1663.896" x2="103.200" y2="1663.896"/>
      <line x1="122.347" y1="1664.896" x2="103.200" y2="1664.896"/>
      <line x1="122.347" y1="1665.896" x2="103.200" y2="1665.896"/>
      <line x1="122.347" y1="1666.896" x2="103.200" y2="1666.896"/>
      <line x1="122.347" y1="1667.896" x2="103.200" y2="1667.896"/>
      <line x1="122.347" y1="1668.896" x2="103.200" y2="1668.896"/>
      <line x1="122.347" y1="1669.896" x2="103.200" y2="1669.896"/>
      <line x1="122.347" y1="1670.896" x2="103.200" y2="1670.896"/>
      <line x1="122.347" y1="1671.896" x2="103.200" y2="1671.896"/>
      <line x1="122.347" y1="1672.896" x2="103.200" y2="1672.896"/>
      <line x1="122.347" y1="1673.896" x2="103.200" y2="1673.896"/>
      <line x1="122.347" y1="1674.896" x2="103.200" y2="1674.896"/>
      <line x1="122.347" y1="1675.896" x2="103.200" y2="1675.896"/>
      <line x1="122.347" y1="1676.896" x2="103.200" y2="1676.896"/>
      <line x1="122.347" y1="1677.896" x2="103.200" y2="1677.896"/>
      <line x1="122.347" y1="1678.896" x2="103.200" y2="1678.896"/>
      <line x1="53.000" y1="1579.896" x2="3.000" y2="1579.896"/>
      <line x1="53.000" y1="1580.896" x2="3.000" y2="1580.896"/>
      <line x1="53.000" y1="1581.896" x2="3.000" y2="1581.896"/>
      <line x1="53.000" y1="1582.896" x2="3.000" y2="1582.896"/>
      <line x1="53.000" y1="1583.896" x2="3.000" y2="1583.896"/>
      <line x1="53.000" y1="1584.896" x2="3.000" y2="1584.896"/>
      <line x1="53.000" y1="1585.896" x2="3.000" y2="1585.896"/>
      <line x1="53.000" y1="1586.896" x2="3.000" y2="1586.896"/>
      <line x1="53.000" y1="1587.896" x2="3.000" y2="1587.896"/>
      <line x1="53.000" y1="1588.896" x2="3.000" y2="1588.896"/>
      <line x1="53.000" y1="1589.896" x2="3.000" y2="1589.896"/>
      <line x1="53.000" y1="1590.896" x2="3.000" y2="1590.896"/>
      <line x1="53.000" y1="1591.896" x2="3.000" y2="1591.896"/>
      <line x1="53.000" y1="1592.896" x2="3.000" y2="1592.896"/>
      <line x1="53.000" y1="1593.896" x2="3.000" y2="1593.896"/>
      <line x1="53.000" y1="1594.896" x2="3.000" y2="1594.896"/>
      <line x1="53.000" y1="1595.896" x2="3.000" y2="1595.896"/>
      <line x1="53.000" y1="1596.896" x2="3.000" y2="1596.896"/>
      <line x1="53.000" y1="1597.896" x2="3.000" y2="1597.896"/>
      <line x1="53.000" y1="1598.896" x2="3.000" y2="1598.896"/>
      <line x1="53.000" y1="1599.896" x2="3.000" y2="1599.896"/>
      <line x1="53.000" y1="1600.896" x2="3.000" y2="1600.896"/>
      <line x1="53.000" y1="1601.896" x2="3.000" y2="1601.896"/>
      <line x1="53.000" y1="1602.896" x2="3.000" y2="1602.896"/>
      <line x1="53.000" y1="1603.896" x2="3.000" y2="1603.896"/>
      <line x1="53.000" y1="1604.896" x2="3.000" y2="1604.896"/>
      <line x1="53.000" y1="1605.896" x2="3.000" y2="1605.896"/>
      <line x1="53.000" y1="1606.896" x2="3.000" y2="1606.896"/>
      <line x1="53.000" y1="1607.896" x2="3.000" y2="1607.896"/>
      <line x1="53.000" y1="1608.896" x2="3.000" y2="1608.896"/>
      <line x1="53.000" y1="1609.896" x2="3.000" y2="1609.896"/>
      <line x1="53.000" y1="1610.896" x2="3.000" y2="1610.896"/>
      <line x1="53.000" y1="1611.896" x2="3.000" y2="1611.896"/>
      <line x1="53.000" y1="1612.896" x2="3.000" y2="1612.896"/>
      <line x1="53.000" y1="1613.896" x2="3.000" y2="1613.896"/>
      <line x1="53.000" y1="1614.896" x2="3.000" y2="1614.896"/>
      <line x1="53.000" y1="1615.896" x2="3.000" y2="1615.896"/>
      <line x1="53.000" y1="1616.896" x2="3.000" y2="1616.896"/>
      <line x1="53.000" y1="1617.896" x2="3.000" y2="1617.896"/>
      <line x1="53.000" y1="1618.896" x2="3.000" y2="1618.896"/>
      <line x1="53.000" y1="1619.896" x2="3.000" y2="1619.896"/>
      <line x1="53.000" y1="1620.896" x2="3.000" y2="1620.896"/>
      <line x1="53.000" y1="1621.896" x2="3.000" y2="1621.896"/>
      <line x1="53.000" y1="1622.896" x2="3.000" y2="1622.896"/>
      <line x1="53.000" y1="1623.896" x2="3.000" y2="1623.896"/>
      <line x1="53.000" y1="1624.896" x2="3.000" y2="1624.896"/>
      <line x1="53.000" y1="1625.896" x2="3.000" y2="1625.896"/>
      <line x1="53.000" y1="1626.896" x2="3.000" y2="1626.896"/>
      <line x1="53.000" y1="1627.896" x2="3.000" y2="1627.896"/>
      <line x1="53.000" y1="1628.896" x2="3.000" y2="1628.896"/>
      <line x1="103.100" y1="1579.896" x2="53.100" y2="1579.896"/>
      <line x1="103.100" y1="1580.896" x2="53.100" y2="1580.896"/>
      <line x1="103.100" y1="1581.896" x2="53.100" y2="1581.896"/>
      <line x1="103.100" y1="1582.896" x2="53.100" y2="1582.896"/>
      <line x1="103.100" y1="1583.896" x2="53.100" y2="1583.896"/>
      <line x1="103.100" y1="1584.896" x2="53.100" y2="1584.896"/>
      <line x1="103.100" y1="1585.896" x2="53.100" y2="1585.896"/>
      <line x1="103.100" y1="1586.896" x2="53.100" y2="1586.896"/>
      <line x1="103.100" y1="1587.896" x2="53.100" y2="1587.896"/>
      <line x1="103.100" y1="1588.896" x2="53.100" y2="1588.896"/>
      <line x1="103.100" y1="1589.896" x2="53.100" y2="1589.896"/>
      <line x1="103.100" y1="1590.896" x2="53.100" y2="1590.896"/>
      <line x1="103.100" y1="1591.896" x2="53.100" y2="1591.896"/>
      <line x1="103.100" y1="1592.896" x2="53.100" y2="1592.896"/>
      <line x1="103.100" y1="1593.896" x2="53.100" y2="1593.896"/>
      <line x1="103.100" y1="1594.896" x2="53.100" y2="1594.896"/>
      <line x1="103.100" y1="1595.896" x2="53.100" y2="1595.896"/>
      <line x1="103.100" y1="1596.896" x2="53.100" y2="1596.896"/>
      <line x1="103.100" y1="1597.896" x2="53.100" y2="1597.896"/>
      <line x1="103.100" y1="1598.896" x2="53.100" y2="1598.896"/>
      <line x1="103.100" y1="1599.896" x2="53.100" y2="1599.896"/>
      <line x1="103.100" y1="1600.896" x2="53.100" y2="1600.896"/>
      <line x1="103.100" y1="1601.896" x2="53.100" y2="1601.896"/>
      <line x1="103.100" y1="1602.896" x2="53.100" y2="1602.896"/>
      <line x1="103.100" y1="1603.896" x2="53.100" y2="1603.896"/>
      <line x1="103.100" y1="1604.896" x2="53.100" y2="1604.896"/>
      <line x1="103.100" y1="1605.896" x2="53.100" y2="1605.896"/>
      <line x1="103.100" y1="1606.896" x2="53.100" y2="1606.896"/>
      <line x1="103.100" y1="1607.896" x2="53.100" y2="1607.896"/>
      <line x1="103.100" y1="1608.896" x2="53.100" y2="1608.896"/>
      <line x1="103.100" y1="1609.896" x2="53.100" y2="1609.896"/>
      <line x1="103.100" y1="1610.896" x2="53.100" y2="1610.896"/>
      <line x1="103.100" y1="1611.896" x2="53.100" y2="1611.896"/>
      <line x1="103.100" y1="1612.896" x2="53.100" y2="1612.896"/>
      <line x1="103.100" y1="1613.896" x2="53.100" y2="1613.896"/>
      <line x1="103.100" y1="1614.896" x2="53.100" y2="1614.896"/>
      <line x1="103.100" y1="1615.896" x2="53.100" y2="1615.896"/>
      <line x1="103.100" y1="1616.896" x2="53.100" y2="1616.896"/>
      <line x1="103.100" y1="1617.896" x2="53.100" y2="1617.896"/>
      <line x1="103.100" y1="1618.896" x2="53.100" y2="1618.896"/>
      <line x1="103.100" y1="1619.896" x2="53.100" y2="1619.896"/>
      <line x1="103.100" y1="1620.896" x2="53.100" y2="1620.896"/>
      <line x1="103.100" y1="1621.896" x2="53.100" y2="1621.896"/>
      <line x1="103.100" y1="1622.896" x2="53.100" y2="1622.896"/>
      <line x1="103.100" y1="1623.896" x2="53.100" y2="1623.896"/>
      <line x1="103.100" y1="1624.896" x2="53.100" y2="1624.896"/>
      <line x1="103.100" y1="1625.896" x2="53.100" y2="1625.896"/>
      <line x1="103.100" y1="1626.896" x2="53.100" y2="1626.896"/>
      <line x1="103.100" y1="1627.896" x2="53.100" y2="1627.896"/>
      <line x1="103.100" y1="1628.896" x2="53.100" y2="1628.896"/>
      <line x1="122.347" y1="1579.896" x2="103.200" y2="1579.896"/>
      <line x1="122.347" y1="1580.896" x2="103.200" y2="1580.896"/>
      <line x1="122.347" y1="1581.896" x2="103.200" y2="1581.896"/>
      <line x1="122.347" y1="1582.896" x2="103.200" y2="1582.896"/>
      <line x1="122.347" y1="1583.896" x2="103.200" y2="1583.896"/>
      <line x1="122.347" y1="1584.896" x2="103.200" y2="1584.896"/>
      <line x1="122.347" y1="1585.896" x2="103.200" y2="1585.896"/>
      <line x1="122.347" y1="1586.896" x2="103.200" y2="1586.896"/>
      <line x1="122.347" y1="1587.896" x2="103.200" y2="1587.896"/>
      <line x1="122.347" y1="1588.896" x2="103.200" y2="1588.896"/>
      <line x1="122.347" y1="1589.896" x2="103.200" y2="1589.896"/>
      <line x1="122.347" y1="1590.896" x2="103.200" y2="1590.896"/>
      <line x1="122.347" y1="1591.896" x2="103.200" y2="1591.896"/>
      <line x1="122.347" y1="1592.896" x2="103.200" y2="1592.896"/>
      <line x1="122.347" y1="1593.896" x2="103.200" y2="1593.896"/>
      <line x1="122.347" y1="1594.896" x2="103.200" y2="1594.896"/>
      <line x1="122.347" y1="1595.896" x2="103.200" y2="1595.896"/>
      <line x1="122.347" y1="1596.896" x2="103.200" y2="1596.896"/>
      <line x1="122.347" y1="1597.896" x2="103.200" y2="1597.896"/>
      <line x1="122.347" y1="1598.896" x2="103.200" y2="1598.896"/>
      <line x1="122.347" y1="1599.896" x2="103.200" y2="1599.896"/>
      <line x1="122.347" y1="1600.896" x2="103.200" y2="1600.896"/>
      <line x1="122.347" y1="1601.896" x2="103.200" y2="1601.896"/>
      <line x1="122.347" y1="1602.896" x2="103.200" y2="1602.896"/>
      <line x1="122.347" y1="1603.896" x2="103.200" y2="1603.896"/>
      <line x1="122.347" y1="1604.896" x2="103.200" y2="1604.896"/>
      <line x1="122.347" y1="1605.896" x2="103.200" y2="1605.896"/>
      <line x1="122.347" y1="1606.896" x2="103.200" y2="1606.896"/>
      <line x1="122.347" y1="1607.896" x2="103.200" y2="1607.896"/>
      <line x1="122.347" y1="1608.896" x2="103.200" y2="1608.896"/>
      <line x1="122.347" y1="1609.896" x2="103.200" y2="1609.896"/>
      <line x1="122.347" y1="1610.896" x2="103.200" y2="1610.896"/>
      <line x1="122.347" y1="1611.896" x2="103.200" y2="1611.896"/>
      <line x1="122.347" y1="1612.896" x2="103.200" y2="1612.896"/>
      <line x1="122.347" y1="1613.896" x2="103.200" y2="1613.896"/>
      <line x1="122.347" y1="1614.896" x2="103.200" y2="1614.896"/>
      <line x1="122.347" y1="1615.896" x2="103.200" y2="1615.896"/>
      <line x1="122.347" y1="1616.896" x2="103.200" y2="1616.896"/>
      <line x1="122.347" y1="1617.896" x2="103.200" y2="1617.896"/>
      <line x1="122.347" y1="1618.896" x2="103.200" y2="1618.896"/>
      <line x1="122.347" y1="1619.896" x2="103.200" y2="1619.896"/>
      <line x1="122.347" y1="1620.896" x2="103.200" y2="1620.896"/>
      <line x1="122.347" y1="1621.896" x2="103.200" y2="1621.896"/>
      <line x1="122.347" y1="1622.896" x2="103.200" y2="1622.896"/>
      <line x1="122.347" y1="1623.896" x2="103.200" y2="1623.896"/>
      <line x1="122.347" y1="1624.896" x2="103.200" y2="1624.896"/>
      <line x1="122.347" y1="1625.896" x2="103.200" y2="1625.896"/>
      <line x1="122.347" y1="1626.896" x2="103.200" y2="1626.896"/>
      <line x1="122.347" y1="1627.896" x2="103.200" y2="1627.896"/>
      <line x1="122.347" y1="1628.896" x2="103.200" y2="1628.896"/>
      <line x1="53.000" y1="1529.896" x2="3.000" y2="1529.896"/>
      <line x1="53.000" y1="1530.896" x2="3.000" y2="1530.896"/>
      <line x1="53.000" y1="1531.896" x2="3.000" y2="1531.896"/>
      <line x1="53.000" y1="1532.896" x2="3.000" y2="1532.896"/>
      <line x1="53.000" y1="1533.896" x2="3.000" y2="1533.896"/>
      <line x1="53.000" y1="1534.896" x2="3.000" y2="1534.896"/>
      <line x1="53.000" y1="1535.896" x2="3.000" y2="1535.896"/>
      <line x1="53.000" y1="1536.896" x2="3.000" y2="1536.896"/>
      <line x1="53.000" y1="1537.896" x2="3.000" y2="1537.896"/>
      <line x1="53.000" y1="1538.896" x2="3.000" y2="1538.896"/>
      <line x1="53.000" y1="1539.896" x2="3.000" y2="1539.896"/>
      <line x1="53.000" y1="1540.896" x2="3.000" y2="1540.896"/>
      <line x1="53.000" y1="1541.896" x2="3.000" y2="1541.896"/>
      <line x1="53.000" y1="1542.896" x2="3.000" y2="1542.896"/>
      <line x1="53.000" y1="1543.896" x2="3.000" y2="1543.896"/>
      <line x1="53.000" y1="1544.896" x2="3.000" y2="1544.896"/>
      <line x1="53.000" y1="1545.896" x2="3.000" y2="1545.896"/>
      <line x1="53.000" y1="1546.896" x2="3.000" y2="1546.896"/>
      <line x1="53.000" y1="1547.896" x2="3.000" y2="1547.896"/>
      <line x1="53.000" y1="1548.896" x2="3.000" y2="1548.896"/>
      <line x1="53.000" y1="1549.896" x2="3.000" y2="1549.896"/>
      <line x1="53.000" y1="1550.896" x2="3.000" y2="1550.896"/>
      <line x1="53.000" y1="1551.896" x2="3.000" y2="1551.896"/>
      <line x1="53.000" y1="1552.896" x2="3.000" y2="1552.896"/>
      <line x1="53.000" y1="1553.896" x2="3.000" y2="1553.896"/>
      <line x1="53.000" y1="1554.896" x2="3.000" y2="1554.896"/>
      <line x1="53.000" y1="1555.896" x2="3.000" y2="1555.896"/>
      <line x1="53.000" y1="1556.896" x2="3.000" y2="1556.896"/>
      <line x1="53.000" y1="1557.896" x2="3.000" y2="1557.896"/>
      <line x1="53.000" y1="1558.896" x2="3.000" y2="1558.896"/>
      <line x1="53.000" y1="1559.896" x2="3.000" y2="1559.896"/>
      <line x1="53.000" y1="1560.896" x2="3.000" y2="1560.896"/>
      <line x1="53.000" y1="1561.896" x2="3.000" y2="1561.896"/>
      <line x1="53.000" y1="1562.896" x2="3.000" y2="1562.896"/>
      <line x1="53.000" y1="1563.896" x2="3.000" y2="1563.896"/>
      <line x1="53.000" y1="1564.896" x2="3.000" y2="1564.896"/>
      <line x1="53.000" y1="1565.896" x2="3.000" y2="1565.896"/>
      <line x1="53.000" y1="1566.896" x2="3.000" y2="1566.896"/>
      <line x1="53.000" y1="1567.896" x2="3.000" y2="1567.896"/>
      <line x1="53.000" y1="1568.896" x2="3.000" y2="1568.896"/>
      <line x1="53.000" y1="1569.896" x2="3.000" y2="1569.896"/>
      <line x1="53.000" y1="1570.896" x2="3.000" y2="1570.896"/>
      <line x1="53.000" y1="1571.896" x2="3.000" y2="1571.896"/>
      <line x1="53.000" y1="1572.896" x2="3.000" y2="1572.896"/>
      <line x1="53.000" y1="1573.896" x2="3.000" y2="1573.896"/>
      <line x1="53.000" y1="1574.896" x2="3.000" y2="1574.896"/>
      <line x1="53.000" y1="1575.896" x2="3.000" y2="1575.896"/>
      <line x1="53.000" y1="1576.896" x2="3.000" y2="1576.896"/>
      <line x1="53.000" y1="1577.896" x2="3.000" y2="1577.896"/>
      <line x1="53.000" y1="1578.896" x2="3.000" y2="1578.896"/>
      <line x1="103.100" y1="1529.896" x2="53.100" y2="1529.896"/>
      <line x1="103.100" y1="1530.896" x2="53.100" y2="1530.896"/>
      <line x1="103.100" y1="1531.896" x2="53.100" y2="1531.896"/>
      <line x1="103.100" y1="1532.896" x2="53.100" y2="1532.896"/>
      <line x1="103.100" y1="1533.896" x2="53.100" y2="1533.896"/>
      <line x1="103.100" y1="1534.896" x2="53.100" y2="1534.896"/>
      <line x1="103.100" y1="1535.896" x2="53.100" y2="1535.896"/>
      <line x1="103.100" y1="1536.896" x2="53.100" y2="1536.896"/>
      <line x1="103.100" y1="1537.896" x2="53.100" y2="1537.896"/>
      <line x1="103.100" y1="1538.896" x2="53.100" y2="1538.896"/>
      <line x1="103.100" y1="1539.896" x2="53.100" y2="1539.896"/>
      <line x1="103.100" y1="1540.896" x2="53.100" y2="1540.896"/>
      <line x1="103.100" y1="1541.896" x2="53.100" y2="1541.896"/>
      <line x1="103.100" y1="1542.896" x2="53.100" y2="1542.896"/>
      <line x1="103.100" y1="1543.896" x2="53.100" y2="1543.896"/>
      <line x1="103.100" y1="1544.896" x2="53.100" y2="1544.896"/>
      <line x1="103.100" y1="1545.896" x2="53.100" y2="1545.896"/>
      <line x1="103.100" y1="1546.896" x2="53.100" y2="1546.896"/>
      <line x1="103.100" y1="1547.896" x2="53.100" y2="1547.896"/>
      <line x1="103.100" y1="1548.896" x2="53.100" y2="1548.896"/>
      <line x1="103.100" y1="1549.896" x2="53.100" y2="1549.896"/>
      <line x1="103.100" y1="1550.896" x2="53.100" y2="1550.896"/>
      <line x1="103.100" y1="1551.896" x2="53.100" y2="1551.896"/>
      <line x1="103.100" y1="1552.896" x2="53.100" y2="1552.896"/>
      <line x1="103.100" y1="1553.896" x2="53.100" y2="1553.896"/>
      <line x1="103.100" y1="1554.896" x2="53.100" y2="1554.896"/>
      <line x1="103.100" y1="1555.896" x2="53.100" y2="1555.896"/>
      <line x1="103.100" y1="1556.896" x2="53.100" y2="1556.896"/>
      <line x1="103.100" y1="1557.896" x2="53.100" y2="1557.896"/>
      <line x1="103.100" y1="1558.896" x2="53.100" y2="1558.896"/>
      <line x1="103.100" y1="1559.896" x2="53.100" y2="1559.896"/>
      <line x1="103.100" y1="1560.896" x2="53.100" y2="1560.896"/>
      <line x1="103.100" y1="1561.896" x2="53.100" y2="1561.896"/>
      <line x1="103.100" y1="1562.896" x2="53.100" y2="1562.896"/>
      <line x1="103.100" y1="1563.896" x2="53.100" y2="1563.896"/>
      <line x1="103.100" y1="1564.896" x2="53.100" y2="1564.896"/>
      <line x1="103.100" y1="1565.896" x2="53.100" y2="1565.896"/>
      <line x1="103.100" y1="1566.896" x2="53.100" y2="1566.896"/>
      <line x1="103.100" y1="1567.896" x2="53.100" y2="1567.896"/>
      <line x1="103.100" y1="1568.896" x2="53.100" y2="1568.896"/>
      <line x1="103.100" y1="1569.896" x2="53.100" y2="1569.896"/>
      <line x1="103.100" y1="1570.896" x2="53.100" y2="1570.896"/>
      <line x1="103.100" y1="1571.896" x2="53.100" y2="1571.896"/>
      <line x1="103.100" y1="1572.896" x2="53.100" y2="1572.896"/>
      <line x1="103.100" y1="1573.896" x2="53.100" y2="1573.896"/>
      <line x1="103.100" y1="1574.896" x2="53.100" y2="1574.896"/>
      <line x1="103.100" y1="1575.896" x2="53.100" y2="1575.896"/>
      <line x1="103.100" y1="1576.896" x2="53.100" y2="1576.896"/>
      <line x1="103.100" y1="1577.896" x2="53.100" y2="1577.896"/>
      <line x1="103.100" y1="1578.896" x2="53.100" y2="1578.896"/>
      <line x1="122.347" y1="1529.896" x2="103.200" y2="1529.896"/>
      <line x1="122.347" y1="1530.896" x2="103.200" y2="1530.896"/>
      <line x1="122.347" y1="1531.896" x2="103.200" y2="1531.896"/>
      <line x1="122.347" y1="1532.896" x2="103.200" y2="1532.896"/>
      <line x1="122.347" y1="1533.896" x2="103.200" y2="1533.896"/>
      <line x1="122.347" y1="1534.896" x2="103.200" y2="1534.896"/>
      <line x1="122.347" y1="1535.896" x2="103.200" y2="1535.896"/>
      <line x1="122.347" y1="1536.896" x2="103.200" y2="1536.896"/>
      <line x1="122.347" y1="1537.896" x2="103.200" y2="1537.896"/>
      <line x1="122.347" y1="1538.896" x2="103.200" y2="1538.896"/>
      <line x1="122.347" y1="1539.896" x2="103.200" y2="1539.896"/>
      <line x1="122.347" y1="1540.896" x2="103.200" y2="1540.896"/>
      <line x1="122.347" y1="1541.896" x2="103.200" y2="1541.896"/>
      <line x1="122.347" y1="1542.896" x2="103.200" y2="1542.896"/>
      <line x1="122.347" y1="1543.896" x2="103.200" y2="1543.896"/>
      <line x1="122.347" y1="1544.896" x2="103.200" y2="1544.896"/>
      <line x1="122.347" y1="1545.896" x2="103.200" y2="1545.896"/>
      <line x1="122.347" y1="1546.896" x2="103.200" y2="1546.896"/>
      <line x1="122.347" y1="1547.896" x2="103.200" y2="1547.896"/>
      <line x1="122.347" y1="1548.896" x2="103.200" y2="1548.896"/>
      <line x1="122.347" y1="1549.896" x2="103.200" y2="1549.896"/>
      <line x1="122.347" y1="1550.896" x2="103.200" y2="1550.896"/>
      <line x1="122.347" y1="1551.896" x2="103.200" y2="1551.896"/>
      <line x1="122.347" y1="1552.896" x2="103.200" y2="1552.896"/>
      <line x1="122.347" y1="1553.896" x2="103.200" y2="1553.896"/>
      <line x1="122.347" y1="1554.896" x2="103.200" y2="1554.896"/>
      <line x1="122.347" y1="1555.896" x2="103.200" y2="1555.896"/>
      <line x1="122.347" y1="1556.896" x2="103.200" y2="1556.896"/>
      <line x1="122.347" y1="1557.896" x2="103.200" y2="1557.896"/>
      <line x1="122.347" y1="1558.896" x2="103.200" y2="1558.896"/>
      <line x1="122.347" y1="1559.896" x2="103.200" y2="1559.896"/>
      <line x1="122.347" y1="1560.896" x2="103.200" y2="1560.896"/>
      <line x1="122.347" y1="1561.896" x2="103.200" y2="1561.896"/>
      <line x1="122.347" y1="1562.896" x2="103.200" y2="1562.896"/>
      <line x1="122.347" y1="1563.896" x2="103.200" y2="1563.896"/>
      <line x1="122.347" y1="1564.896" x2="103.200" y2="1564.896"/>
      <line x1="122.347" y1="1565.896" x2="103.200" y2="1565.896"/>
      <line x1="122.347" y1="1566.896" x2="103.200" y2="1566.896"/>
      <line x1="122.347" y1="1567.896" x2="103.200" y2="1567.896"/>
      <line x1="122.347" y1="1568.896" x2="103.200" y2="1568.896"/>
      <line x1="122.347" y1="1569.896" x2="103.200" y2="1569.896"/>
      <line x1="122.347" y1="1570.896" x2="103.200" y2="1570.896"/>
      <line x1="122.347" y1="1571.896" x2="103.200" y2="1571.896"/>
      <line x1="122.347" y1="1572.896" x2="103.200" y2="1572.896"/>
      <line x1="122.347" y1="1573.896" x2="103.200" y2="1573.896"/>
      <line x1="122.347" y1="1574.896" x2="103.200" y2="1574.896"/>
      <line x1="122.347" y1="1575.896" x2="103.200" y2="1575.896"/>
      <line x1="122.347" y1="1576.896" x2="103.200" y2="1576.896"/>
      <line x1="122.347" y1="1577.896" x2="103.200" y2="1577.896"/>
      <line x1="122.347" y1="1578.896" x2="103.200" y2="1578.896"/>
      <line x1="53.000" y1="1525.896" x2="3.000" y2="1525.896"/>
      <line x1="53.000" y1="1526.896" x2="3.000" y2="1526.896"/>
      <line x1="53.000" y1="1527.896" x2="3.000" y2="1527.896"/>
      <line x1="53.000" y1="1528.896" x2="3.000" y2="1528.896"/>
      <line x1="103.100" y1="1525.896" x2="53.100" y2="1525.896"/>
      <line x1="103.100" y1="1526.896" x2="53.100" y2="1526.896"/>
      <line x1="103.100" y1="1527.896" x2="53.100" y2="1527.896"/>
      <line x1="103.100" y1="1528.896" x2="53.100" y2="1528.896"/>
      <line x1="122.347" y1="1525.896" x2="103.200" y2="1525.896"/>
      <line x1="122.347" y1="1526.896" x2="103.200" y2="1526.896"/>
      <line x1="122.347" y1="1527.896" x2="103.200" y2="1527.896"/>
      <line x1="122.347" y1="1528.896" x2="103.200" y2="1528.896"/>
    </g>
    <g stroke="#1976D2" stroke-width="0.4">
      <polyline points="476.009,1682.729 600.500,1682.729 600.500,1521.729 476.009,1521.729" fill="none"/>
      <polyline points="476.009,1521.729 474.153,1521.729 474.153,1682.729 476.009,1682.729" fill="none"/>
      <polyline points="476.009,1681.730 599.500,1681.730 599.500,1522.729 476.009,1522.729" fill="none"/>
      <polyline points="476.009,1522.729 475.153,1522.729 475.153,1681.730 476.009,1681.730" fill="none"/>
      <polyline points="598.500,1523.729 476.153,1523.729 476.153,1680.730 598.500,1680.730 598.500,1523.729" fill="none"/>
      <polyline points="597.500,1524.729 477.153,1524.729 477.153,1679.729 597.500,1679.729 597.500,1524.729" fill="none"/>
      <polyline points="123.991,1521.729 -0.500,1521.729 -0.500,1682.729 123.991,1682.729" fill="none"/>
      <polyline points="123.991,1682.729 125.847,1682.729 125.847,1521.729 123.991,1521.729" fill="none"/>
      <polyline points="123.991,1522.729 0.500,1522.729 0.500,1681.730 123.991,1681.730" fill="none"/>
      <polyline points="123.991,1681.730 124.847,1681.730 124.847,1522.729 123.991,1522.729" fill="none"/>
      <polyline points="123.847,1523.729 1.500,1523.729 1.500,1680.730 123.847,1680.730 123.847,1523.729" fill="none"/>
      <polyline points="122.847,1524.729 2.500,1524.729 2.500,1679.729 122.847,1679.729 122.847,1524.729" fill="none"/>
    </g>
    <g stroke="#C62828" stroke-width="0.4" fill="none">
      <polygon points="293.547,1533.630 294.960,1532.814 295.920,1531.493 296.259,1529.896 295.920,1528.299 294.960,1526.979 293.547,1526.162 291.923,1525.992 290.370,1526.496 289.157,1527.589 288.493,1529.080 288.493,1530.712 289.157,1532.204 290.370,1533.296 291.923,1533.801"/>
      <polygon points="313.516,1533.537 314.895,1532.741 315.830,1531.453 316.161,1529.896 315.830,1528.339 314.895,1527.052 313.516,1526.256 311.933,1526.089 310.419,1526.581 309.237,1527.646 308.589,1529.100 308.589,1530.692 309.237,1532.146 310.419,1533.211 311.933,1533.703"/>
      <polygon points="273.453,1533.343 274.759,1532.590 275.644,1531.370 275.958,1529.896 275.644,1528.422 274.759,1527.203 273.453,1526.449 271.954,1526.292 270.521,1526.757 269.401,1527.766 268.788,1529.143 268.788,1530.650 269.401,1532.027 270.521,1533.035 271.954,1533.501"/>
      <polygon points="333.421,1533.243 334.688,1532.512 335.548,1531.328 335.853,1529.896 335.548,1528.465 334.688,1527.281 333.421,1526.549 331.965,1526.396 330.574,1526.848 329.486,1527.828 328.891,1529.164 328.891,1530.628 329.486,1531.965 330.574,1532.944 331.965,1533.396"/>
      <polygon points="354.392,1532.477 355.308,1531.329 355.635,1529.896 355.308,1528.464 354.392,1527.315 353.068,1526.677 351.599,1526.677 350.275,1527.315 349.359,1528.464 349.032,1529.896 349.359,1531.329 350.275,1532.477 351.599,1533.115 353.068,1533.115"/>
      <polygon points="254.392,1532.477 255.308,1531.329 255.635,1529.896 255.308,1528.464 254.392,1527.315 253.068,1526.677 251.599,1526.677 250.275,1527.315 249.359,1528.464 249.032,1529.896 249.359,1531.329 250.275,1532.477 251.599,1533.115 253.068,1533.115"/>
      <polygon points="234.249,1532.299 235.102,1531.230 235.407,1529.896 235.102,1528.563 234.249,1527.493 233.017,1526.900 231.649,1526.900 230.417,1527.493 229.565,1528.563 229.260,1529.896 229.565,1531.230 230.417,1532.299 231.649,1532.892 233.017,1532.892"/>
      <polygon points="374.012,1532.328 374.950,1531.269 375.288,1529.896 374.950,1528.523 374.012,1527.464 372.689,1526.963 371.286,1527.133 370.122,1527.937 369.464,1529.189 369.464,1530.603 370.122,1531.856 371.286,1532.659 372.689,1532.829"/>
      <polygon points="213.872,1532.126 214.732,1531.155 215.042,1529.896 214.732,1528.637 213.872,1527.667 212.660,1527.207 211.373,1527.363 210.306,1528.100 209.703,1529.248 209.703,1530.544 210.306,1531.692 211.373,1532.429 212.660,1532.585"/>
      <polygon points="393.800,1532.020 394.619,1531.096 394.915,1529.896 394.619,1528.697 393.800,1527.772 392.644,1527.334 391.418,1527.483 390.401,1528.185 389.827,1529.278 389.827,1530.514 390.401,1531.608 391.418,1532.310 392.644,1532.459"/>
      <polygon points="413.491,1531.902 414.339,1531.054 414.649,1529.896 414.339,1528.738 413.491,1527.891 412.333,1527.580 411.175,1527.891 410.328,1528.738 410.018,1529.896 410.328,1531.054 411.175,1531.902 412.333,1532.212"/>
      <polygon points="193.491,1531.902 194.339,1531.054 194.649,1529.896 194.339,1528.738 193.491,1527.891 192.333,1527.580 191.175,1527.891 190.328,1528.738 190.018,1529.896 190.328,1531.054 191.175,1531.902 192.333,1532.212"/>
      <polygon points="173.351,1531.659 174.097,1530.914 174.369,1529.896 174.097,1528.878 173.351,1528.133 172.333,1527.860 171.315,1528.133 170.570,1528.878 170.297,1529.896 170.570,1530.914 171.315,1531.659 172.333,1531.932"/>
      <polygon points="153.333,1531.628 154.065,1530.896 154.333,1529.896 154.065,1528.896 153.333,1528.164 152.333,1527.896 151.333,1528.164 150.601,1528.896 150.333,1529.896 150.601,1530.896 151.333,1531.628 152.333,1531.896"/>
      <polygon points="453.333,1531.628 454.065,1530.896 454.333,1529.896 454.065,1528.896 453.333,1528.164 452.333,1527.896 451.333,1528.164 450.601,1528.896 450.333,1529.896 450.601,1530.896 451.333,1531.628 452.333,1531.896"/>
      <polygon points="433.333,1531.628 434.065,1530.896 434.333,1529.896 434.065,1528.896 433.333,1528.164 432.333,1527.896 431.333,1528.164 430.601,1528.896 430.333,1529.896 430.601,1530.896 431.333,1531.628 432.333,1531.896"/>
      <polygon points="293.547,1553.630 294.960,1552.814 295.920,1551.493 296.259,1549.896 295.920,1548.299 294.960,1546.979 293.547,1546.162 291.923,1545.992 290.370,1546.496 289.157,1547.589 288.493,1549.080 288.493,1550.712 289.157,1552.204 290.370,1553.296 291.923,1553.801"/>
      <polygon points="313.516,1553.537 314.895,1552.741 315.830,1551.453 316.161,1549.896 315.830,1548.339 314.895,1547.052 313.516,1546.256 311.933,1546.089 310.419,1546.581 309.237,1547.646 308.589,1549.100 308.589,1550.692 309.237,1552.146 310.419,1553.211 311.933,1553.703"/>
      <polygon points="273.453,1553.343 274.759,1552.590 275.644,1551.370 275.958,1549.896 275.644,1548.422 274.759,1547.203 273.453,1546.449 271.954,1546.292 270.521,1546.757 269.401,1547.766 268.788,1549.143 268.788,1550.650 269.401,1552.027 270.521,1553.035 271.954,1553.501"/>
      <polygon points="333.421,1553.243 334.688,1552.512 335.548,1551.328 335.853,1549.896 335.548,1548.465 334.688,1547.281 333.421,1546.549 331.965,1546.396 330.574,1546.848 329.486,1547.828 328.891,1549.164 328.891,1550.628 329.486,1551.965 330.574,1552.944 331.965,1553.396"/>
      <polygon points="254.392,1552.477 255.308,1551.329 255.635,1549.896 255.308,1548.464 254.392,1547.315 253.068,1546.677 251.599,1546.677 250.275,1547.315 249.359,1548.464 249.032,1549.896 249.359,1551.329 250.275,1552.477 251.599,1553.115 253.068,1553.115"/>
      <polygon points="354.392,1552.477 355.308,1551.329 355.635,1549.896 355.308,1548.464 354.392,1547.315 353.068,1546.677 351.599,1546.677 350.275,1547.315 349.359,1548.464 349.032,1549.896 349.359,1551.329 350.275,1552.477 351.599,1553.115 353.068,1553.115"/>
      <polygon points="234.249,1552.299 235.102,1551.230 235.407,1549.896 235.102,1548.563 234.249,1547.493 233.017,1546.900 231.649,1546.900 230.417,1547.493 229.565,1548.563 229.260,1549.896 229.565,1551.230 230.417,1552.299 231.649,1552.892 233.017,1552.892"/>
      <polygon points="374.012,1552.328 374.950,1551.269 375.288,1549.896 374.950,1548.523 374.012,1547.464 372.689,1546.963 371.286,1547.133 370.122,1547.937 369.464,1549.189 369.464,1550.603 370.122,1551.856 371.286,1552.659 372.689,1552.829"/>
      <polygon points="213.872,1552.126 214.732,1551.155 215.042,1549.896 214.732,1548.637 213.872,1547.667 212.660,1547.207 211.373,1547.363 210.306,1548.100 209.703,1549.248 209.703,1550.544 210.306,1551.692 211.373,1552.429 212.660,1552.585"/>
      <polygon points="393.800,1552.020 394.619,1551.096 394.915,1549.896 394.619,1548.697 393.800,1547.772 392.644,1547.334 391.418,1547.483 390.401,1548.185 389.827,1549.278 389.827,1550.514 390.401,1551.608 391.418,1552.310 392.644,1552.459"/>
      <polygon points="413.491,1551.902 414.339,1551.054 414.649,1549.896 414.339,1548.738 413.491,1547.891 412.333,1547.580 411.175,1547.891 410.328,1548.738 410.018,1549.896 410.328,1551.054 411.175,1551.902 412.333,1552.212"/>
      <polygon points="193.491,1551.902 194.339,1551.054 194.649,1549.896 194.339,1548.738 193.491,1547.891 192.333,1547.580 191.175,1547.891 190.328,1548.738 190.018,1549.896 190.328,1551.054 191.175,1551.902 192.333,1552.212"/>
      <polygon points="173.351,1551.659 174.097,1550.914 174.369,1549.896 174.097,1548.878 173.351,1548.133 172.333,1547.860 171.315,1548.133 170.570,1548.878 170.297,1549.896 170.570,1550.914 171.315,1551.659 172.333,1551.932"/>
      <polygon points="153.333,1551.628 154.065,1550.896 154.333,1549.896 154.065,1548.896 153.333,1548.164 152.333,1547.896 151.333,1548.164 150.601,1548.896 150.333,1549.896 150.601,1550.896 151.333,1551.628 152.333,1551.896"/>
      <polygon points="453.333,1551.628 454.065,1550.896 454.333,1549.896 454.065,1548.896 453.333,1548.164 452.333,1547.896 451.333,1548.164 450.601,1548.896 450.333,1549.896 450.601,1550.896 451.333,1551.628 452.333,1551.896"/>
      <polygon points="433.333,1551.628 434.065,1550.896 434.333,1549.896 434.065,1548.896 433.333,1548.164 432.333,1547.896 431.333,1548.164 430.601,1548.896 430.333,1549.896 430.601,1550.896 431.333,1551.628 432.333,1551.896"/>
      <polygon points="293.547,1573.630 294.960,1572.814 295.920,1571.493 296.259,1569.896 295.920,1568.299 294.960,1566.979 293.547,1566.162 291.923,1565.992 290.370,1566.496 289.157,1567.589 288.493,1569.080 288.493,1570.712 289.157,1572.204 290.370,1573.296 291.923,1573.801"/>
      <polygon points="313.516,1573.537 314.895,1572.741 315.830,1571.453 316.161,1569.896 315.830,1568.339 314.895,1567.052 313.516,1566.256 311.933,1566.089 310.419,1566.581 309.237,1567.646 308.589,1569.100 308.589,1570.692 309.237,1572.146 310.419,1573.211 311.933,1573.703"/>
      <polygon points="273.453,1573.343 274.759,1572.590 275.644,1571.370 275.958,1569.896 275.644,1568.422 274.759,1567.203 273.453,1566.449 271.954,1566.292 270.521,1566.757 269.401,1567.766 268.788,1569.143 268.788,1570.650 269.401,1572.027 270.521,1573.035 271.954,1573.501"/>
      <polygon points="333.421,1573.243 334.688,1572.512 335.548,1571.328 335.853,1569.896 335.548,1568.465 334.688,1567.281 333.421,1566.549 331.965,1566.396 330.574,1566.848 329.486,1567.828 328.891,1569.164 328.891,1570.628 329.486,1571.965 330.574,1572.944 331.965,1573.396"/>
      <polygon points="354.392,1572.477 355.308,1571.329 355.635,1569.896 355.308,1568.464 354.392,1567.315 353.068,1566.677 351.599,1566.677 350.275,1567.315 349.359,1568.464 349.032,1569.896 349.359,1571.329 350.275,1572.477 351.599,1573.115 353.068,1573.115"/>
      <polygon points="254.392,1572.477 255.308,1571.329 255.635,1569.896 255.308,1568.464 254.392,1567.315 253.068,1566.677 251.599,1566.677 250.275,1567.315 249.359,1568.464 249.032,1569.896 249.359,1571.329 250.275,1572.477 251.599,1573.115 253.068,1573.115"/>
      <polygon points="234.249,1572.299 235.102,1571.230 235.407,1569.896 235.102,1568.563 234.249,1567.493 233.017,1566.900 231.649,1566.900 230.417,1567.493 229.565,1568.563 229.260,1569.896 229.565,1571.230 230.417,1572.299 231.649,1572.892 233.017,1572.892"/>
      <polygon points="374.012,1572.328 374.950,1571.269 375.288,1569.896 374.950,1568.523 374.012,1567.464 372.689,1566.963 371.286,1567.133 370.122,1567.937 369.464,1569.189 369.464,1570.603 370.122,1571.856 371.286,1572.659 372.689,1572.829"/>
      <polygon points="213.872,1572.126 214.732,1571.155 215.042,1569.896 214.732,1568.637 213.872,1567.667 212.660,1567.207 211.373,1567.363 210.306,1568.100 209.703,1569.248 209.703,1570.544 210.306,1571.692 211.373,1572.429 212.660,1572.585"/>
      <polygon points="393.800,1572.020 394.619,1571.096 394.915,1569.896 394.619,1568.697 393.800,1567.772 392.644,1567.334 391.418,1567.483 390.401,1568.185 389.827,1569.278 389.827,1570.514 390.401,1571.608 391.418,1572.310 392.644,1572.459"/>
      <polygon points="193.491,1571.902 194.339,1571.054 194.649,1569.896 194.339,1568.738 193.491,1567.891 192.333,1567.580 191.175,1567.891 190.328,1568.738 190.018,1569.896 190.328,1571.054 191.175,1571.902 192.333,1572.212"/>
      <polygon points="413.491,1571.902 414.339,1571.054 414.649,1569.896 414.339,1568.738 413.491,1567.891 412.333,1567.580 411.175,1567.891 410.328,1568.738 410.018,1569.896 410.328,1571.054 411.175,1571.902 412.333,1572.212"/>
      <polygon points="173.351,1571.659 174.097,1570.914 174.369,1569.896 174.097,1568.878 173.351,1568.133 172.333,1567.860 171.315,1568.133 170.570,1568.878 170.297,1569.896 170.570,1570.914 171.315,1571.659 172.333,1571.932"/>
      <polygon points="453.333,1571.628 454.065,1570.896 454.333,1569.896 454.065,1568.896 453.333,1568.164 452.333,1567.896 451.333,1568.164 450.601,1568.896 450.333,1569.896 450.601,1570.896 451.333,1571.628 452.333,1571.896"/>
      <polygon points="153.333,1571.628 154.065,1570.896 154.333,1569.896 154.065,1568.896 153.333,1568.164 152.333,1567.896 151.333,1568.164 150.601,1568.896 150.333,1569.896 150.601,1570.896 151.333,1571.628 152.333,1571.896"/>
      <polygon points="433.333,1571.628 434.065,1570.896 434.333,1569.896 434.065,1568.896 433.333,1568.164 432.333,1567.896 431.333,1568.164 430.601,1568.896 430.333,1569.896 430.601,1570.896 431.333,1571.628 432.333,1571.896"/>
      <polygon points="293.547,1593.630 294.960,1592.814 295.920,1591.493 296.259,1589.896 295.920,1588.299 294.960,1586.979 293.547,1586.162 291.923,1585.992 290.370,1586.496 289.157,1587.589 288.493,1589.080 288.493,1590.712 289.157,1592.204 290.370,1593.296 291.923,1593.801"/>
      <polygon points="313.516,1593.537 314.895,1592.741 315.830,1591.453 316.161,1589.896 315.830,1588.339 314.895,1587.052 313.516,1586.256 311.933,1586.089 310.419,1586.581 309.237,1587.646 308.589,1589.100 308.589,1590.692 309.237,1592.146 310.419,1593.211 311.933,1593.703"/>
      <polygon points="273.453,1593.343 274.759,1592.590 275.644,1591.370 275.958,1589.896 275.644,1588.422 274.759,1587.203 273.453,1586.449 271.954,1586.292 270.521,1586.757 269.401,1587.766 268.788,1589.143 268.788,1590.650 269.401,1592.027 270.521,1593.035 271.954,1593.501"/>
      <polygon points="333.421,1593.243 334.688,1592.512 335.548,1591.328 335.853,1589.896 335.548,1588.465 334.688,1587.281 333.421,1586.549 331.965,1586.396 330.574,1586.848 329.486,1587.828 328.891,1589.164 328.891,1590.628 329.486,1591.965 330.574,1592.944 331.965,1593.396"/>
      <polygon points="254.392,1592.477 255.308,1591.329 255.635,1589.896 255.308,1588.464 254.392,1587.315 253.068,1586.677 251.599,1586.677 250.275,1587.315 249.359,1588.464 249.032,1589.896 249.359,1591.329 250.275,1592.477 251.599,1593.115 253.068,1593.115"/>
      <polygon points="354.392,1592.477 355.308,1591.329 355.635,1589.896 355.308,1588.464 354.392,1587.315 353.068,1586.677 351.599,1586.677 350.275,1587.315 349.359,1588.464 349.032,1589.896 349.359,1591.329 350.275,1592.477 351.599,1593.115 353.068,1593.115"/>
      <polygon points="234.249,1592.299 235.102,1591.230 235.407,1589.896 235.102,1588.563 234.249,1587.493 233.017,1586.900 231.649,1586.900 230.417,1587.493 229.565,1588.563 229.260,1589.896 229.565,1591.230 230.417,1592.299 231.649,1592.892 233.017,1592.892"/>
      <polygon points="374.012,1592.328 374.950,1591.269 375.288,1589.896 374.950,1588.523 374.012,1587.464 372.689,1586.963 371.286,1587.133 370.122,1587.937 369.464,1589.189 369.464,1590.603 370.122,1591.856 371.286,1592.659 372.689,1592.829"/>
      <polygon points="213.872,1592.126 214.732,1591.155 215.042,1589.896 214.732,1588.637 213.872,1587.667 212.660,1587.207 211.373,1587.363 210.306,1588.100 209.703,1589.248 209.703,1590.544 210.306,1591.692 211.373,1592.429 212.660,1592.585"/>
      <polygon points="393.800,1592.020 394.619,1591.096 394.915,1589.896 394.619,1588.697 393.800,1587.772 392.644,1587.334 391.418,1587.483 390.401,1588.185 389.827,1589.278 389.827,1590.514 390.401,1591.608 391.418,1592.310 392.644,1592.459"/>
      <polygon points="413.491,1591.902 414.339,1591.054 414.649,1589.896 414.339,1588.738 413.491,1587.891 412.333,1587.580 411.175,1587.891 410.328,1588.738 410.018,1589.896 410.328,1591.054 411.175,1591.902 412.333,1592.212"/>
      <polygon points="193.491,1591.902 194.339,1591.054 194.649,1589.896 194.339,1588.738 193.491,1587.891 192.333,1587.580 191.175,1587.891 190.328,1588.738 190.018,1589.896 190.328,1591.054 191.175,1591.902 192.333,1592.212"/>
      <polygon points="173.351,1591.659 174.097,1590.914 174.369,1589.896 174.097,1588.878 173.351,1588.133 172.333,1587.860 171.315,1588.133 170.570,1588.878 170.297,1589.896 170.570,1590.914 171.315,1591.659 172.333,1591.932"/>
      <polygon points="433.333,1591.628 434.065,1590.896 434.333,1589.896 434.065,1588.896 433.333,1588.164 432.333,1587.896 431.333,1588.164 430.601,1588.896 430.333,1589.896 430.601,1590.896 431.333,1591.628 432.333,1591.896"/>
      <polygon points="453.333,1591.628 454.065,1590.896 454.333,1589.896 454.065,1588.896 453.333,1588.164 452.333,1587.896 451.333,1588.164 450.601,1588.896 450.333,1589.896 450.601,1590.896 451.333,1591.628 452.333,1591.896"/>
      <polygon points="153.333,1591.628 154.065,1590.896 154.333,1589.896 154.065,1588.896 153.333,1588.164 152.333,1587.896 151.333,1588.164 150.601,1588.896 150.333,1589.896 150.601,1590.896 151.333,1591.628 152.333,1591.896"/>
      <polygon points="293.547,1613.630 294.960,1612.814 295.920,1611.493 296.259,1609.896 295.920,1608.299 294.960,1606.979 293.547,1606.162 291.923,1605.992 290.370,1606.496 289.157,1607.589 288.493,1609.080 288.493,1610.712 289.157,1612.204 290.370,1613.296 291.923,1613.801"/>
      <polygon points="313.516,1613.537 314.895,1612.741 315.830,1611.453 316.161,1609.896 315.830,1608.339 314.895,1607.052 313.516,1606.256 311.933,1606.089 310.419,1606.581 309.237,1607.646 308.589,1609.100 308.589,1610.692 309.237,1612.146 310.419,1613.211 311.933,1613.703"/>
      <polygon points="273.453,1613.343 274.759,1612.590 275.644,1611.370 275.958,1609.896 275.644,1608.422 274.759,1607.203 273.453,1606.449 271.954,1606.292 270.521,1606.757 269.401,1607.766 268.788,1609.143 268.788,1610.650 269.401,1612.027 270.521,1613.035 271.954,1613.501"/>
      <polygon points="333.421,1613.243 334.688,1612.512 335.548,1611.328 335.853,1609.896 335.548,1608.465 334.688,1607.281 333.421,1606.549 331.965,1606.396 330.574,1606.848 329.486,1607.828 328.891,1609.164 328.891,1610.628 329.486,1611.965 330.574,1612.944 331.965,1613.396"/>
      <polygon points="354.392,1612.477 355.308,1611.329 355.635,1609.896 355.308,1608.464 354.392,1607.315 353.068,1606.677 351.599,1606.677 350.275,1607.315 349.359,1608.464 349.032,1609.896 349.359,1611.329 350.275,1612.477 351.599,1613.115 353.068,1613.115"/>
      <polygon points="254.392,1612.477 255.308,1611.329 255.635,1609.896 255.308,1608.464 254.392,1607.315 253.068,1606.677 251.599,1606.677 250.275,1607.315 249.359,1608.464 249.032,1609.896 249.359,1611.329 250.275,1612.477 251.599,1613.115 253.068,1613.115"/>
      <polygon points="234.249,1612.299 235.102,1611.230 235.407,1609.896 235.102,1608.563 234.249,1607.493 233.017,1606.900 231.649,1606.900 230.417,1607.493 229.565,1608.563 229.260,1609.896 229.565,1611.230 230.417,1612.299 231.649,1612.892 233.017,1612.892"/>
      <polygon points="374.012,1612.328 374.950,1611.269 375.288,1609.896 374.950,1608.523 374.012,1607.464 372.689,1606.963 371.286,1607.133 370.122,1607.937 369.464,1609.189 369.464,1610.603 370.122,1611.856 371.286,1612.659 372.689,1612.829"/>
      <polygon points="213.872,1612.126 214.732,1611.155 215.042,1609.896 214.732,1608.637 213.872,1607.667 212.660,1607.207 211.373,1607.363 210.306,1608.100 209.703,1609.248 209.703,1610.544 210.306,1611.692 211.373,1612.429 212.660,1612.585"/>
      <polygon points="393.800,1612.020 394.619,1611.096 394.915,1609.896 394.619,1608.697 393.800,1607.772 392.644,1607.334 391.418,1607.483 390.401,1608.185 389.827,1609.278 389.827,1610.514 390.401,1611.608 391.418,1612.310 392.644,1612.459"/>
      <polygon points="193.491,1611.902 194.339,1611.054 194.649,1609.896 194.339,1608.738 193.491,1607.891 192.333,1607.580 191.175,1607.891 190.328,1608.738 190.018,1609.896 190.328,1611.054 191.175,1611.902 192.333,1612.212"/>
      <polygon points="413.491,1611.902 414.339,1611.054 414.649,1609.896 414.339,1608.738 413.491,1607.891 412.333,1607.580 411.175,1607.891 410.328,1608.738 410.018,1609.896 410.328,1611.054 411.175,1611.902 412.333,1612.212"/>
      <polygon points="173.351,1611.659 174.097,1610.914 174.369,1609.896 174.097,1608.878 173.351,1608.133 172.333,1607.860 171.315,1608.133 170.570,1608.878 170.297,1609.896 170.570,1610.914 171.315,1611.659 172.333,1611.932"/>
      <polygon points="453.333,1611.628 454.065,1610.896 454.333,1609.896 454.065,1608.896 453.333,1608.164 452.333,1607.896 451.333,1608.164 450.601,1608.896 450.333,1609.896 450.601,1610.896 451.333,1611.628 452.333,1611.896"/>
      <polygon points="153.333,1611.628 154.065,1610.896 154.333,1609.896 154.065,1608.896 153.333,1608.164 152.333,1607.896 151.333,1608.164 150.601,1608.896 150.333,1609.896 150.601,1610.896 151.333,1611.628 152.333,1611.896"/>
      <polygon points="433.333,1611.628 434.065,1610.896 434.333,1609.896 434.065,1608.896 433.333,1608.164 432.333,1607.896 431.333,1608.164 430.601,1608.896 430.333,1609.896 430.601,1610.896 431.333,1611.628 432.333,1611.896"/>
      <polygon points="293.547,1633.630 294.960,1632.814 295.920,1631.493 296.259,1629.896 295.920,1628.299 294.960,1626.979 293.547,1626.162 291.923,1625.992 290.370,1626.496 289.157,1627.589 288.493,1629.080 288.493,1630.712 289.157,1632.204 290.370,1633.296 291.923,1633.801"/>
      <polygon points="313.516,1633.537 314.895,1632.741 315.830,1631.453 316.161,1629.896 315.830,1628.339 314.895,1627.052 313.516,1626.256 311.933,1626.089 310.419,1626.581 309.237,1627.646 308.589,1629.100 308.589,1630.692 309.237,1632.146 310.419,1633.211 311.933,1633.703"/>
      <polygon points="273.453,1633.343 274.759,1632.590 275.644,1631.370 275.958,1629.896 275.644,1628.422 274.759,1627.203 273.453,1626.449 271.954,1626.292 270.521,1626.757 269.401,1627.766 268.788,1629.143 268.788,1630.650 269.401,1632.027 270.521,1633.035 271.954,1633.501"/>
      <polygon points="333.421,1633.243 334.688,1632.512 335.548,1631.328 335.853,1629.896 335.548,1628.465 334.688,1627.281 333.421,1626.549 331.965,1626.396 330.574,1626.848 329.486,1627.828 328.891,1629.164 328.891,1630.628 329.486,1631.965 330.574,1632.944 331.965,1633.396"/>
      <polygon points="254.392,1632.477 255.308,1631.329 255.635,1629.896 255.308,1628.464 254.392,1627.315 253.068,1626.677 251.599,1626.677 250.275,1627.315 249.359,1628.464 249.032,1629.896 249.359,1631.329 250.275,1632.477 251.599,1633.115 253.068,1633.115"/>
      <polygon points="354.392,1632.477 355.308,1631.329 355.635,1629.896 355.308,1628.464 354.392,1627.315 353.068,1626.677 351.599,1626.677 350.275,1627.315 349.359,1628.464 349.032,1629.896 349.359,1631.329 350.275,1632.477 351.599,1633.115 353.068,1633.115"/>
      <polygon points="234.249,1632.299 235.102,1631.230 235.407,1629.896 235.102,1628.563 234.249,1627.493 233.017,1626.900 231.649,1626.900 230.417,1627.493 229.565,1628.563 229.260,1629.896 229.565,1631.230 230.417,1632.299 231.649,1632.892 233.017,1632.892"/>
      <polygon points="374.012,1632.328 374.950,1631.269 375.288,1629.896 374.950,1628.523 374.012,1627.464 372.689,1626.963 371.286,1627.133 370.122,1627.937 369.464,1629.189 369.464,1630.603 370.122,1631.856 371.286,1632.659 372.689,1632.829"/>
      <polygon points="213.872,1632.126 214.732,1631.155 215.042,1629.896 214.732,1628.637 213.872,1627.667 212.660,1627.207 211.373,1627.363 210.306,1628.100 209.703,1629.248 209.703,1630.544 210.306,1631.692 211.373,1632.429 212.660,1632.585"/>
      <polygon points="393.800,1632.020 394.619,1631.096 394.915,1629.896 394.619,1628.697 393.800,1627.772 392.644,1627.334 391.418,1627.483 390.401,1628.185 389.827,1629.278 389.827,1630.514 390.401,1631.608 391.418,1632.310 392.644,1632.459"/>
      <polygon points="413.491,1631.902 414.339,1631.054 414.649,1629.896 414.339,1628.738 413.491,1627.891 412.333,1627.580 411.175,1627.891 410.328,1628.738 410.018,1629.896 410.328,1631.054 411.175,1631.902 412.333,1632.212"/>
      <polygon points="193.491,1631.902 194.339,1631.054 194.649,1629.896 194.339,1628.738 193.491,1627.891 192.333,1627.580 191.175,1627.891 190.328,1628.738 190.018,1629.896 190.328,1631.054 191.175,1631.902 192.333,1632.212"/>
      <polygon points="173.351,1631.659 174.097,1630.914 174.369,1629.896 174.097,1628.878 173.351,1628.133 172.333,1627.860 171.315,1628.133 170.570,1628.878 170.297,1629.896 170.570,1630.914 171.315,1631.659 172.333,1631.932"/>
      <polygon points="153.333,1631.628 154.065,1630.896 154.333,1629.896 154.065,1628.896 153.333,1628.164 152.333,1627.896 151.333,1628.164 150.601,1628.896 150.333,1629.896 150.601,1630.896 151.333,1631.628 152.333,1631.896"/>
      <polygon points="453.333,1631.628 454.065,1630.896 454.333,1629.896 454.065,1628.896 453.333,1628.164 452.333,1627.896 451.333,1628.164 450.601,1628.896 450.333,1629.896 450.601,1630.896 451.333,1631.628 452.333,1631.896"/>
      <polygon points="433.333,1631.628 434.065,1630.896 434.333,1629.896 434.065,1628.896 433.333,1628.164 432.333,1627.896 431.333,1628.164 430.601,1628.896 430.333,1629.896 430.601,1630.896 431.333,1631.628 432.333,1631.896"/>
      <polygon points="293.547,1653.630 294.960,1652.814 295.920,1651.493 296.259,1649.896 295.920,1648.299 294.960,1646.979 293.547,1646.162 291.923,1645.992 290.370,1646.496 289.157,1647.589 288.493,1649.080 288.493,1650.712 289.157,1652.204 290.370,1653.296 291.923,1653.801"/>
      <polygon points="313.516,1653.537 314.895,1652.741 315.830,1651.453 316.161,1649.896 315.830,1648.339 314.895,1647.052 313.516,1646.256 311.933,1646.089 310.419,1646.581 309.237,1647.646 308.589,1649.100 308.589,1650.692 309.237,1652.146 310.419,1653.211 311.933,1653.703"/>
      <polygon points="273.453,1653.343 274.759,1652.590 275.644,1651.370 275.958,1649.896 275.644,1648.422 274.759,1647.203 273.453,1646.449 271.954,1646.292 270.521,1646.757 269.401,1647.766 268.788,1649.143 268.788,1650.650 269.401,1652.027 270.521,1653.035 271.954,1653.501"/>
      <polygon points="333.421,1653.243 334.688,1652.512 335.548,1651.328 335.853,1649.896 335.548,1648.465 334.688,1647.281 333.421,1646.549 331.965,1646.396 330.574,1646.848 329.486,1647.828 328.891,1649.164 328.891,1650.628 329.486,1651.965 330.574,1652.944 331.965,1653.396"/>
      <polygon points="354.392,1652.477 355.308,1651.329 355.635,1649.896 355.308,1648.464 354.392,1647.315 353.068,1646.677 351.599,1646.677 350.275,1647.315 349.359,1648.464 349.032,1649.896 349.359,1651.329 350.275,1652.477 351.599,1653.115 353.068,1653.115"/>
      <polygon points="254.392,1652.477 255.308,1651.329 255.635,1649.896 255.308,1648.464 254.392,1647.315 253.068,1646.677 251.599,1646.677 250.275,1647.315 249.359,1648.464 249.032,1649.896 249.359,1651.329 250.275,1652.477 251.599,1653.115 253.068,1653.115"/>
      <polygon points="234.249,1652.299 235.102,1651.230 235.407,1649.896 235.102,1648.563 234.249,1647.493 233.017,1646.900 231.649,1646.900 230.417,1647.493 229.565,1648.563 229.260,1649.896 229.565,1651.230 230.417,1652.299 231.649,1652.892 233.017,1652.892"/>
      <polygon points="374.012,1652.328 374.950,1651.269 375.288,1649.896 374.950,1648.523 374.012,1647.464 372.689,1646.963 371.286,1647.133 370.122,1647.937 369.464,1649.189 369.464,1650.603 370.122,1651.856 371.286,1652.659 372.689,1652.829"/>
      <polygon points="213.872,1652.126 214.732,1651.155 215.042,1649.896 214.732,1648.637 213.872,1647.667 212.660,1647.207 211.373,1647.363 210.306,1648.100 209.703,1649.248 209.703,1650.544 210.306,1651.692 211.373,1652.429 212.660,1652.585"/>
      <polygon points="393.800,1652.020 394.619,1651.096 394.915,1649.896 394.619,1648.697 393.800,1647.772 392.644,1647.334 391.418,1647.483 390.401,1648.185 389.827,1649.278 389.827,1650.514 390.401,1651.608 391.418,1652.310 392.644,1652.459"/>
      <polygon points="193.491,1651.902 194.339,1651.054 194.649,1649.896 194.339,1648.738 193.491,1647.891 192.333,1647.580 191.175,1647.891 190.328,1648.738 190.018,1649.896 190.328,1651.054 191.175,1651.902 192.333,1652.212"/>
      <polygon points="413.491,1651.902 414.339,1651.054 414.649,1649.896 414.339,1648.738 413.491,1647.891 412.333,1647.580 411.175,1647.891 410.328,1648.738 410.018,1649.896 410.328,1651.054 411.175,1651.902 412.333,1652.212"/>
      <polygon points="173.351,1651.659 174.097,1650.914 174.369,1649.896 174.097,1648.878 173.351,1648.133 172.333,1647.860 171.315,1648.133 170.570,1648.878 170.297,1649.896 170.570,1650.914 171.315,1651.659 172.333,1651.932"/>
      <polygon points="453.333,1651.628 454.065,1650.896 454.333,1649.896 454.065,1648.896 453.333,1648.164 452.333,1647.896 451.333,1648.164 450.601,1648.896 450.333,1649.896 450.601,1650.896 451.333,1651.628 452.333,1651.896"/>
      <polygon points="153.333,1651.628 154.065,1650.896 154.333,1649.896 154.065,1648.896 153.333,1648.164 152.333,1647.896 151.333,1648.164 150.601,1648.896 150.333,1649.896 150.601,1650.896 151.333,1651.628 152.333,1651.896"/>
      <polygon points="433.333,1651.628 434.065,1650.896 434.333,1649.896 434.065,1648.896 433.333,1648.164 432.333,1647.896 431.333,1648.164 430.601,1648.896 430.333,1649.896 430.601,1650.896 431.333,1651.628 432.333,1651.896"/>
      <polygon points="293.547,1673.630 294.960,1672.814 295.920,1671.493 296.259,1669.896 295.920,1668.299 294.960,1666.979 293.547,1666.162 291.923,1665.992 290.370,1666.496 289.157,1667.589 288.493,1669.080 288.493,1670.712 289.157,1672.204 290.370,1673.296 291.923,1673.801"/>
      <polygon points="313.516,1673.537 314.895,1672.741 315.830,1671.453 316.161,1669.896 315.830,1668.339 314.895,1667.052 313.516,1666.256 311.933,1666.089 310.419,1666.581 309.237,1667.646 308.589,1669.100 308.589,1670.692 309.237,1672.146 310.419,1673.211 311.933,1673.703"/>
      <polygon points="273.453,1673.343 274.759,1672.590 275.644,1671.370 275.958,1669.896 275.644,1668.422 274.759,1667.203 273.453,1666.449 271.954,1666.292 270.521,1666.757 269.401,1667.766 268.788,1669.143 268.788,1670.650 269.401,1672.027 270.521,1673.035 271.954,1673.501"/>
      <polygon points="333.421,1673.243 334.688,1672.512 335.548,1671.328 335.853,1669.896 335.548,1668.465 334.688,1667.281 333.421,1666.549 331.965,1666.396 330.574,1666.848 329.486,1667.828 328.891,1669.164 328.891,1670.628 329.486,1671.965 330.574,1672.944 331.965,1673.396"/>
      <polygon points="254.392,1672.477 255.308,1671.329 255.635,1669.896 255.308,1668.464 254.392,1667.315 253.068,1666.677 251.599,1666.677 250.275,1667.315 249.359,1668.464 249.032,1669.896 249.359,1671.329 250.275,1672.477 251.599,1673.115 253.068,1673.115"/>
      <polygon points="354.392,1672.477 355.308,1671.329 355.635,1669.896 355.308,1668.464 354.392,1667.315 353.068,1666.677 351.599,1666.677 350.275,1667.315 349.359,1668.464 349.032,1669.896 349.359,1671.329 350.275,1672.477 351.599,1673.115 353.068,1673.115"/>
      <polygon points="234.249,1672.299 235.102,1671.230 235.407,1669.896 235.102,1668.563 234.249,1667.493 233.017,1666.900 231.649,1666.900 230.417,1667.493 229.565,1668.563 229.260,1669.896 229.565,1671.230 230.417,1672.299 231.649,1672.892 233.017,1672.892"/>
      <polygon points="374.012,1672.328 374.950,1671.269 375.288,1669.896 374.950,1668.523 374.012,1667.464 372.689,1666.963 371.286,1667.133 370.122,1667.937 369.464,1669.189 369.464,1670.603 370.122,1671.856 371.286,1672.659 372.689,1672.829"/>
      <polygon points="213.872,1672.126 214.732,1671.155 215.042,1669.896 214.732,1668.637 213.872,1667.667 212.660,1667.207 211.373,1667.363 210.306,1668.100 209.703,1669.248 209.703,1670.544 210.306,1671.692 211.373,1672.429 212.660,1672.585"/>
      <polygon points="393.800,1672.020 394.619,1671.096 394.915,1669.896 394.619,1668.697 393.800,1667.772 392.644,1667.334 391.418,1667.483 390.401,1668.185 389.827,1669.278 389.827,1670.514 390.401,1671.608 391.418,1672.310 392.644,1672.459"/>
      <polygon points="413.491,1671.902 414.339,1671.054 414.649,1669.896 414.339,1668.738 413.491,1667.891 412.333,1667.580 411.175,1667.891 410.328,1668.738 410.018,1669.896 410.328,1671.054 411.175,1671.902 412.333,1672.212"/>
      <polygon points="193.491,1671.902 194.339,1671.054 194.649,1669.896 194.339,1668.738 193.491,1667.891 192.333,1667.580 191.175,1667.891 190.328,1668.738 190.018,1669.896 190.328,1671.054 191.175,1671.902 192.333,1672.212"/>
      <polygon points="173.351,1671.659 174.097,1670.914 174.369,1669.896 174.097,1668.878 173.351,1668.133 172.333,1667.860 171.315,1668.133 170.570,1668.878 170.297,1669.896 170.570,1670.914 171.315,1671.659 172.333,1671.932"/>
      <polygon points="433.333,1671.628 434.065,1670.896 434.333,1669.896 434.065,1668.896 433.333,1668.164 432.333,1667.896 431.333,1668.164 430.601,1668.896 430.333,1669.896 430.601,1670.896 431.333,1671.628 432.333,1671.896"/>
      <polygon points="453.333,1671.628 454.065,1670.896 454.333,1669.896 454.065,1668.896 453.333,1668.164 452.333,1667.896 451.333,1668.164 450.601,1668.896 450.333,1669.896 450.601,1670.896 451.333,1671.628 452.333,1671.896"/>
      <polygon points="153.333,1671.628 154.065,1670.896 154.333,1669.896 154.065,1668.896 153.333,1668.164 152.333,1667.896 151.333,1668.164 150.601,1668.896 150.333,1669.896 150.601,1670.896 151.333,1671.628 152.333,1671.896"/>
    </g>
    <g stroke="#EF6C00" stroke-width="0.4" fill="none">
    </g>
  </g>
  <g stroke="#000000" stroke-width="0.4">
    <line x1="500.000" y1="1000.000" x2="1500.000" y2="1000.000"/>
  </g>
  <g stroke="#000000" stroke-width="0.4">
    <line x1="1000.000" y1="500.000" x2="1000.000" y2="1500.000"/>
  </g>
  <circle cx="1000.000" cy="1000.000" r="1000.000" stroke="red" stroke-width="1" fill="none"/>
  </g>
</svg>
