<?xml version="1.0" encoding="UTF-8"?>
<svg xmlns="http://www.w3.org/2000/svg" version="1.1" width="2000" height="2000">
  <g fill="none" stroke-linecap="round" stroke-linejoin="round">
  <text x="10" y="20" font-size="24" fill="#555">Layer 208 Z=53.600 mm</text>
  <g transform="translate(700.000,-602.229)">
    <g stroke="#2E7D32" stroke-width="0.4">
      <line x1="497.860" y1="1679.230" x2="497.860" y2="1629.230"/>
      <line x1="498.860" y1="1679.230" x2="498.860" y2="1629.230"/>
      <line x1="499.860" y1="1679.230" x2="499.860" y2="1629.230"/>
      <line x1="500.860" y1="1679.230" x2="500.860" y2="1629.230"/>
      <line x1="501.860" y1="1679.230" x2="501.860" y2="1629.230"/>
      <line x1="502.860" y1="1679.230" x2="502.860" y2="1629.230"/>
      <line x1="503.860" y1="1679.230" x2="503.860" y2="1629.230"/>
      <line x1="504.860" y1="1679.230" x2="504.860" y2="1629.230"/>
      <line x1="505.860" y1="1679.230" x2="505.860" y2="1629.230"/>
      <line x1="506.860" y1="1679.230" x2="506.860" y2="1629.230"/>
      <line x1="507.860" y1="1679.230" x2="507.860" y2="1629.230"/>
      <line x1="508.860" y1="1679.230" x2="508.860" y2="1629.230"/>
      <line x1="509.860" y1="1679.230" x2="509.860" y2="1629.230"/>
      <line x1="510.860" y1="1679.230" x2="510.860" y2="1629.230"/>
      <line x1="511.860" y1="1679.230" x2="511.860" y2="1629.230"/>
      <line x1="512.860" y1="1679.230" x2="512.860" y2="1629.230"/>
      <line x1="513.860" y1="1679.230" x2="513.860" y2="1629.230"/>
      <line x1="514.860" y1="1679.230" x2="514.860" y2="1629.230"/>
      <line x1="515.860" y1="1679.230" x2="515.860" y2="1629.230"/>
      <line x1="516.860" y1="1679.230" x2="516.860" y2="1629.230"/>
      <line x1="517.860" y1="1679.230" x2="517.860" y2="1629.230"/>
      <line x1="518.860" y1="1679.230" x2="518.860" y2="1629.230"/>
      <line x1="519.860" y1="1679.230" x2="519.860" y2="1629.230"/>
      <line x1="520.860" y1="1679.230" x2="520.860" y2="1629.230"/>
      <line x1="521.860" y1="1679.230" x2="521.860" y2="1629.230"/>
      <line x1="522.860" y1="1679.230" x2="522.860" y2="1629.230"/>
      <line x1="523.860" y1="1679.230" x2="523.860" y2="1629.230"/>
      <line x1="524.860" y1="1679.230" x2="524.860" y2="1629.230"/>
      <line x1="525.860" y1="1679.230" x2="525.860" y2="1629.230"/>
      <line x1="526.860" y1="1679.230" x2="526.860" y2="1629.230"/>
      <line x1="527.860" y1="1679.230" x2="527.860" y2="1629.230"/>
      <line x1="528.860" y1="1679.230" x2="528.860" y2="1629.230"/>
      <line x1="529.860" y1="1679.230" x2="529.860" y2="1629.230"/>
      <line x1="530.860" y1="1679.230" x2="530.860" y2="1629.230"/>
      <line x1="531.860" y1="1679.230" x2="531.860" y2="1629.230"/>
      <line x1="532.860" y1="1679.230" x2="532.860" y2="1629.230"/>
      <line x1="533.860" y1="1679.230" x2="533.860" y2="1629.230"/>
      <line x1="534.860" y1="1679.230" x2="534.860" y2="1629.230"/>
      <line x1="535.860" y1="1679.230" x2="535.860" y2="1629.230"/>
      <line x1="536.860" y1="1679.230" x2="536.860" y2="1629.230"/>
      <line x1="537.860" y1="1679.230" x2="537.860" y2="1629.230"/>
      <line x1="538.860" y1="1679.230" x2="538.860" y2="1629.230"/>
      <line x1="539.860" y1="1679.230" x2="539.860" y2="1629.230"/>
      <line x1="540.860" y1="1679.230" x2="540.860" y2="1629.230"/>
      <line x1="541.860" y1="1679.230" x2="541.860" y2="1629.230"/>
      <line x1="542.860" y1="1679.230" x2="542.860" y2="1629.230"/>
      <line x1="543.860" y1="1679.230" x2="543.860" y2="1629.230"/>
      <line x1="544.860" y1="1679.230" x2="544.860" y2="1629.230"/>
      <line x1="545.860" y1="1679.230" x2="545.860" y2="1629.230"/>
      <line x1="546.860" y1="1679.230" x2="546.860" y2="1629.230"/>
      <line x1="547.860" y1="1679.230" x2="547.860" y2="1629.230"/>
      <line x1="548.860" y1="1679.230" x2="548.860" y2="1629.230"/>
      <line x1="549.860" y1="1679.230" x2="549.860" y2="1629.230"/>
      <line x1="550.860" y1="1679.230" x2="550.860" y2="1629.230"/>
      <line x1="551.860" y1="1679.230" x2="551.860" y2="1629.230"/>
      <line x1="552.860" y1="1679.230" x2="552.860" y2="1629.230"/>
      <line x1="553.860" y1="1679.230" x2="553.860" y2="1629.230"/>
      <line x1="554.860" y1="1679.230" x2="554.860" y2="1629.230"/>
      <line x1="555.860" y1="1679.230" x2="555.860" y2="1629.230"/>
      <line x1="556.860" y1="1679.230" x2="556.860" y2="1629.230"/>
      <line x1="557.860" y1="1679.230" x2="557.860" y2="1629.230"/>
      <line x1="558.860" y1="1679.230" x2="558.860" y2="1629.230"/>
      <line x1="559.860" y1="1679.230" x2="559.860" y2="1629.230"/>
      <line x1="560.860" y1="1679.230" x2="560.860" y2="1629.230"/>
      <line x1="561.860" y1="1679.230" x2="561.860" y2="1629.230"/>
      <line x1="562.860" y1="1679.230" x2="562.860" y2="1629.230"/>
      <line x1="563.860" y1="1679.230" x2="563.860" y2="1629.230"/>
      <line x1="564.860" y1="1679.230" x2="564.860" y2="1629.230"/>
      <line x1="565.860" y1="1679.230" x2="565.860" y2="1629.230"/>
      <line x1="566.860" y1="1679.230" x2="566.860" y2="1629.230"/>
      <line x1="567.860" y1="1679.230" x2="567.860" y2="1629.230"/>
      <line x1="568.860" y1="1679.230" x2="568.860" y2="1629.230"/>
      <line x1="569.860" y1="1679.230" x2="569.860" y2="1629.230"/>
      <line x1="570.860" y1="1679.230" x2="570.860" y2="1629.230"/>
      <line x1="571.860" y1="1679.230" x2="571.860" y2="1629.230"/>
      <line x1="572.860" y1="1679.230" x2="572.860" y2="1629.230"/>
      <line x1="573.860" y1="1679.230" x2="573.860" y2="1629.230"/>
      <line x1="574.860" y1="1679.230" x2="574.860" y2="1629.230"/>
      <line x1="575.860" y1="1679.230" x2="575.860" y2="1629.230"/>
      <line x1="576.860" y1="1679.230" x2="576.860" y2="1629.230"/>
      <line x1="577.860" y1="1679.230" x2="577.860" y2="1629.230"/>
      <line x1="578.860" y1="1679.230" x2="578.860" y2="1629.230"/>
      <line x1="579.860" y1="1679.230" x2="579.860" y2="1629.230"/>
      <line x1="580.860" y1="1679.230" x2="580.860" y2="1629.230"/>
      <line x1="581.860" y1="1679.230" x2="581.860" y2="1629.230"/>
      <line x1="582.860" y1="1679.230" x2="582.860" y2="1629.230"/>
      <line x1="583.860" y1="1679.230" x2="583.860" y2="1629.230"/>
      <line x1="584.860" y1="1679.230" x2="584.860" y2="1629.230"/>
      <line x1="585.860" y1="1679.230" x2="585.860" y2="1629.230"/>
      <line x1="586.860" y1="1679.230" x2="586.860" y2="1629.230"/>
      <line x1="587.860" y1="1679.230" x2="587.860" y2="1629.230"/>
      <line x1="588.860" y1="1679.230" x2="588.860" y2="1629.230"/>
      <line x1="589.860" y1="1679.230" x2="589.860" y2="1629.230"/>
      <line x1="590.860" y1="1679.230" x2="590.860" y2="1629.230"/>
      <line x1="591.860" y1="1679.230" x2="591.860" y2="1629.230"/>
      <line x1="592.860" y1="1679.230" x2="592.860" y2="1629.230"/>
      <line x1="593.860" y1="1679.230" x2="593.860" y2="1629.230"/>
      <line x1="594.860" y1="1679.230" x2="594.860" y2="1629.230"/>
      <line x1="595.860" y1="1679.230" x2="595.860" y2="1629.230"/>
      <line x1="596.860" y1="1679.230" x2="596.860" y2="1629.230"/>
      <line x1="497.860" y1="1629.130" x2="497.860" y2="1579.130"/>
      <line x1="498.860" y1="1629.130" x2="498.860" y2="1579.130"/>
      <line x1="499.860" y1="1629.130" x2="499.860" y2="1579.130"/>
      <line x1="500.860" y1="1629.130" x2="500.860" y2="1579.130"/>
      <line x1="501.860" y1="1629.130" x2="501.860" y2="1579.130"/>
      <line x1="502.860" y1="1629.130" x2="502.860" y2="1579.130"/>
      <line x1="503.860" y1="1629.130" x2="503.860" y2="1579.130"/>
      <line x1="504.860" y1="1629.130" x2="504.860" y2="1579.130"/>
      <line x1="505.860" y1="1629.130" x2="505.860" y2="1579.130"/>
      <line x1="506.860" y1="1629.130" x2="506.860" y2="1579.130"/>
      <line x1="507.860" y1="1629.130" x2="507.860" y2="1579.130"/>
      <line x1="508.860" y1="1629.130" x2="508.860" y2="1579.130"/>
      <line x1="509.860" y1="1629.130" x2="509.860" y2="1579.130"/>
      <line x1="510.860" y1="1629.130" x2="510.860" y2="1579.130"/>
      <line x1="511.860" y1="1629.130" x2="511.860" y2="1579.130"/>
      <line x1="512.860" y1="1629.130" x2="512.860" y2="1579.130"/>
      <line x1="513.860" y1="1629.130" x2="513.860" y2="1579.130"/>
      <line x1="514.860" y1="1629.130" x2="514.860" y2="1579.130"/>
      <line x1="515.860" y1="1629.130" x2="515.860" y2="1579.130"/>
      <line x1="516.860" y1="1629.130" x2="516.860" y2="1579.130"/>
      <line x1="517.860" y1="1629.130" x2="517.860" y2="1579.130"/>
      <line x1="518.860" y1="1629.130" x2="518.860" y2="1579.130"/>
      <line x1="519.860" y1="1629.130" x2="519.860" y2="1579.130"/>
      <line x1="520.860" y1="1629.130" x2="520.860" y2="1579.130"/>
      <line x1="521.860" y1="1629.130" x2="521.860" y2="1579.130"/>
      <line x1="522.860" y1="1629.130" x2="522.860" y2="1579.130"/>
      <line x1="523.860" y1="1629.130" x2="523.860" y2="1579.130"/>
      <line x1="524.860" y1="1629.130" x2="524.860" y2="1579.130"/>
      <line x1="525.860" y1="1629.130" x2="525.860" y2="1579.130"/>
      <line x1="526.860" y1="1629.130" x2="526.860" y2="1579.130"/>
      <line x1="527.860" y1="1629.130" x2="527.860" y2="1579.130"/>
      <line x1="528.860" y1="1629.130" x2="528.860" y2="1579.130"/>
      <line x1="529.860" y1="1629.130" x2="529.860" y2="1579.130"/>
      <line x1="530.860" y1="1629.130" x2="530.860" y2="1579.130"/>
      <line x1="531.860" y1="1629.130" x2="531.860" y2="1579.130"/>
      <line x1="532.860" y1="1629.130" x2="532.860" y2="1579.130"/>
      <line x1="533.860" y1="1629.130" x2="533.860" y2="1579.130"/>
      <line x1="534.860" y1="1629.130" x2="534.860" y2="1579.130"/>
      <line x1="535.860" y1="1629.130" x2="535.860" y2="1579.130"/>
      <line x1="536.860" y1="1629.130" x2="536.860" y2="1579.130"/>
      <line x1="537.860" y1="1629.130" x2="537.860" y2="1579.130"/>
      <line x1="538.860" y1="1629.130" x2="538.860" y2="1579.130"/>
      <line x1="539.860" y1="1629.130" x2="539.860" y2="1579.130"/>
      <line x1="540.860" y1="1629.130" x2="540.860" y2="1579.130"/>
      <line x1="541.860" y1="1629.130" x2="541.860" y2="1579.130"/>
      <line x1="542.860" y1="1629.130" x2="542.860" y2="1579.130"/>
      <line x1="543.860" y1="1629.130" x2="543.860" y2="1579.130"/>
      <line x1="544.860" y1="1629.130" x2="544.860" y2="1579.130"/>
      <line x1="545.860" y1="1629.130" x2="545.860" y2="1579.130"/>
      <line x1="546.860" y1="1629.130" x2="546.860" y2="1579.130"/>
      <line x1="547.860" y1="1629.130" x2="547.860" y2="1579.130"/>
      <line x1="548.860" y1="1629.130" x2="548.860" y2="1579.130"/>
      <line x1="549.860" y1="1629.130" x2="549.860" y2="1579.130"/>
      <line x1="550.860" y1="1629.130" x2="550.860" y2="1579.130"/>
      <line x1="551.860" y1="1629.130" x2="551.860" y2="1579.130"/>
      <line x1="552.860" y1="1629.130" x2="552.860" y2="1579.130"/>
      <line x1="553.860" y1="1629.130" x2="553.860" y2="1579.130"/>
      <line x1="554.860" y1="1629.130" x2="554.860" y2="1579.130"/>
      <line x1="555.860" y1="1629.130" x2="555.860" y2="1579.130"/>
      <line x1="556.860" y1="1629.130" x2="556.860" y2="1579.130"/>
      <line x1="557.860" y1="1629.130" x2="557.860" y2="1579.130"/>
      <line x1="558.860" y1="1629.130" x2="558.860" y2="1579.130"/>
      <line x1="559.860" y1="1629.130" x2="559.860" y2="1579.130"/>
      <line x1="560.860" y1="1629.130" x2="560.860" y2="1579.130"/>
      <line x1="561.860" y1="1629.130" x2="561.860" y2="1579.130"/>
      <line x1="562.860" y1="1629.130" x2="562.860" y2="1579.130"/>
      <line x1="563.860" y1="1629.130" x2="563.860" y2="1579.130"/>
      <line x1="564.860" y1="1629.130" x2="564.860" y2="1579.130"/>
      <line x1="565.860" y1="1629.130" x2="565.860" y2="1579.130"/>
      <line x1="566.860" y1="1629.130" x2="566.860" y2="1579.130"/>
      <line x1="567.860" y1="1629.130" x2="567.860" y2="1579.130"/>
      <line x1="568.860" y1="1629.130" x2="568.860" y2="1579.130"/>
      <line x1="569.860" y1="1629.130" x2="569.860" y2="1579.130"/>
      <line x1="570.860" y1="1629.130" x2="570.860" y2="1579.130"/>
      <line x1="571.860" y1="1629.130" x2="571.860" y2="1579.130"/>
      <line x1="572.860" y1="1629.130" x2="572.860" y2="1579.130"/>
      <line x1="573.860" y1="1629.130" x2="573.860" y2="1579.130"/>
      <line x1="574.860" y1="1629.130" x2="574.860" y2="1579.130"/>
      <line x1="575.860" y1="1629.130" x2="575.860" y2="1579.130"/>
      <line x1="576.860" y1="1629.130" x2="576.860" y2="1579.130"/>
      <line x1="577.860" y1="1629.130" x2="577.860" y2="1579.130"/>
      <line x1="578.860" y1="1629.130" x2="578.860" y2="1579.130"/>
      <line x1="579.860" y1="1629.130" x2="579.860" y2="1579.130"/>
      <line x1="580.860" y1="1629.130" x2="580.860" y2="1579.130"/>
      <line x1="581.860" y1="1629.130" x2="581.860" y2="1579.130"/>
      <line x1="582.860" y1="1629.130" x2="582.860" y2="1579.130"/>
      <line x1="583.860" y1="1629.130" x2="583.860" y2="1579.130"/>
      <line x1="584.860" y1="1629.130" x2="584.860" y2="1579.130"/>
      <line x1="585.860" y1="1629.130" x2="585.860" y2="1579.130"/>
      <line x1="586.860" y1="1629.130" x2="586.860" y2="1579.130"/>
      <line x1="587.860" y1="1629.130" x2="587.860" y2="1579.130"/>
      <line x1="588.860" y1="1629.130" x2="588.860" y2="1579.130"/>
      <line x1="589.860" y1="1629.130" x2="589.860" y2="1579.130"/>
      <line x1="590.860" y1="1629.130" x2="590.860" y2="1579.130"/>
      <line x1="591.860" y1="1629.130" x2="591.860" y2="1579.130"/>
      <line x1="592.860" y1="1629.130" x2="592.860" y2="1579.130"/>
      <line x1="593.860" y1="1629.130" x2="593.860" y2="1579.130"/>
      <line x1="594.860" y1="1629.130" x2="594.860" y2="1579.130"/>
      <line x1="595.860" y1="1629.130" x2="595.860" y2="1579.130"/>
      <line x1="596.860" y1="1629.130" x2="596.860" y2="1579.130"/>
      <line x1="497.860" y1="1579.030" x2="497.860" y2="1529.030"/>
      <line x1="498.860" y1="1579.030" x2="498.860" y2="1529.030"/>
      <line x1="499.860" y1="1579.030" x2="499.860" y2="1529.030"/>
      <line x1="500.860" y1="1579.030" x2="500.860" y2="1529.030"/>
      <line x1="501.860" y1="1579.030" x2="501.860" y2="1529.030"/>
      <line x1="502.860" y1="1579.030" x2="502.860" y2="1529.030"/>
      <line x1="503.860" y1="1579.030" x2="503.860" y2="1529.030"/>
      <line x1="504.860" y1="1579.030" x2="504.860" y2="1529.030"/>
      <line x1="505.860" y1="1579.030" x2="505.860" y2="1529.030"/>
      <line x1="506.860" y1="1579.030" x2="506.860" y2="1529.030"/>
      <line x1="507.860" y1="1579.030" x2="507.860" y2="1529.030"/>
      <line x1="508.860" y1="1579.030" x2="508.860" y2="1529.030"/>
      <line x1="509.860" y1="1579.030" x2="509.860" y2="1529.030"/>
      <line x1="510.860" y1="1579.030" x2="510.860" y2="1529.030"/>
      <line x1="511.860" y1="1579.030" x2="511.860" y2="1529.030"/>
      <line x1="512.860" y1="1579.030" x2="512.860" y2="1529.030"/>
      <line x1="513.860" y1="1579.030" x2="513.860" y2="1529.030"/>
      <line x1="514.860" y1="1579.030" x2="514.860" y2="1529.030"/>
      <line x1="515.860" y1="1579.030" x2="515.860" y2="1529.030"/>
      <line x1="516.860" y1="1579.030" x2="516.860" y2="1529.030"/>
      <line x1="517.860" y1="1579.030" x2="517.860" y2="1529.030"/>
      <line x1="518.860" y1="1579.030" x2="518.860" y2="1529.030"/>
      <line x1="519.860" y1="1579.030" x2="519.860" y2="1529.030"/>
      <line x1="520.860" y1="1579.030" x2="520.860" y2="1529.030"/>
      <line x1="521.860" y1="1579.030" x2="521.860" y2="1529.030"/>
      <line x1="522.860" y1="1579.030" x2="522.860" y2="1529.030"/>
      <line x1="523.860" y1="1579.030" x2="523.860" y2="1529.030"/>
      <line x1="524.860" y1="1579.030" x2="524.860" y2="1529.030"/>
      <line x1="525.860" y1="1579.030" x2="525.860" y2="1529.030"/>
      <line x1="526.860" y1="1579.030" x2="526.860" y2="1529.030"/>
      <line x1="527.860" y1="1579.030" x2="527.860" y2="1529.030"/>
      <line x1="528.860" y1="1579.030" x2="528.860" y2="1529.030"/>
      <line x1="529.860" y1="1579.030" x2="529.860" y2="1529.030"/>
      <line x1="530.860" y1="1579.030" x2="530.860" y2="1529.030"/>
      <line x1="531.860" y1="1579.030" x2="531.860" y2="1529.030"/>
      <line x1="532.860" y1="1579.030" x2="532.860" y2="1529.030"/>
      <line x1="533.860" y1="1579.030" x2="533.860" y2="1529.030"/>
      <line x1="534.860" y1="1579.030" x2="534.860" y2="1529.030"/>
      <line x1="535.860" y1="1579.030" x2="535.860" y2="1529.030"/>
      <line x1="536.860" y1="1579.030" x2="536.860" y2="1529.030"/>
      <line x1="537.860" y1="1579.030" x2="537.860" y2="1529.030"/>
      <line x1="538.860" y1="1579.030" x2="538.860" y2="1529.030"/>
      <line x1="539.860" y1="1579.030" x2="539.860" y2="1529.030"/>
      <line x1="540.860" y1="1579.030" x2="540.860" y2="1529.030"/>
      <line x1="541.860" y1="1579.030" x2="541.860" y2="1529.030"/>
      <line x1="542.860" y1="1579.030" x2="542.860" y2="1529.030"/>
      <line x1="543.860" y1="1579.030" x2="543.860" y2="1529.030"/>
      <line x1="544.860" y1="1579.030" x2="544.860" y2="1529.030"/>
      <line x1="545.860" y1="1579.030" x2="545.860" y2="1529.030"/>
      <line x1="546.860" y1="1579.030" x2="546.860" y2="1529.030"/>
      <line x1="547.860" y1="1579.030" x2="547.860" y2="1529.030"/>
      <line x1="548.860" y1="1579.030" x2="548.860" y2="1529.030"/>
      <line x1="549.860" y1="1579.030" x2="549.860" y2="1529.030"/>
      <line x1="550.860" y1="1579.030" x2="550.860" y2="1529.030"/>
      <line x1="551.860" y1="1579.030" x2="551.860" y2="1529.030"/>
      <line x1="552.860" y1="1579.030" x2="552.860" y2="1529.030"/>
      <line x1="553.860" y1="1579.030" x2="553.860" y2="1529.030"/>
      <line x1="554.860" y1="1579.030" x2="554.860" y2="1529.030"/>
      <line x1="555.860" y1="1579.030" x2="555.860" y2="1529.030"/>
      <line x1="556.860" y1="1579.030" x2="556.860" y2="1529.030"/>
      <line x1="557.860" y1="1579.030" x2="557.860" y2="1529.030"/>
      <line x1="558.860" y1="1579.030" x2="558.860" y2="1529.030"/>
      <line x1="559.860" y1="1579.030" x2="559.860" y2="1529.030"/>
      <line x1="560.860" y1="1579.030" x2="560.860" y2="1529.030"/>
      <line x1="561.860" y1="1579.030" x2="561.860" y2="1529.030"/>
      <line x1="562.860" y1="1579.030" x2="562.860" y2="1529.030"/>
      <line x1="563.860" y1="1579.030" x2="563.860" y2="1529.030"/>
      <line x1="564.860" y1="1579.030" x2="564.860" y2="1529.030"/>
      <line x1="565.860" y1="1579.030" x2="565.860" y2="1529.030"/>
      <line x1="566.860" y1="1579.030" x2="566.860" y2="1529.030"/>
      <line x1="567.860" y1="1579.030" x2="567.860" y2="1529.030"/>
      <line x1="568.860" y1="1579.030" x2="568.860" y2="1529.030"/>
      <line x1="569.860" y1="1579.030" x2="569.860" y2="1529.030"/>
      <line x1="570.860" y1="1579.030" x2="570.860" y2="1529.030"/>
      <line x1="571.860" y1="1579.030" x2="571.860" y2="1529.030"/>
      <line x1="572.860" y1="1579.030" x2="572.860" y2="1529.030"/>
      <line x1="573.860" y1="1579.030" x2="573.860" y2="1529.030"/>
      <line x1="574.860" y1="1579.030" x2="574.860" y2="1529.030"/>
      <line x1="575.860" y1="1579.030" x2="575.860" y2="1529.030"/>
      <line x1="576.860" y1="1579.030" x2="576.860" y2="1529.030"/>
      <line x1="577.860" y1="1579.030" x2="577.860" y2="1529.030"/>
      <line x1="578.860" y1="1579.030" x2="578.860" y2="1529.030"/>
      <line x1="579.860" y1="1579.030" x2="579.860" y2="1529.030"/>
      <line x1="580.860" y1="1579.030" x2="580.860" y2="1529.030"/>
      <line x1="581.860" y1="1579.030" x2="581.860" y2="1529.030"/>
      <line x1="582.860" y1="1579.030" x2="582.860" y2="1529.030"/>
      <line x1="583.860" y1="1579.030" x2="583.860" y2="1529.030"/>
      <line x1="584.860" y1="1579.030" x2="584.860" y2="1529.030"/>
      <line x1="585.860" y1="1579.030" x2="585.860" y2="1529.030"/>
      <line x1="586.860" y1="1579.030" x2="586.860" y2="1529.030"/>
      <line x1="587.860" y1="1579.030" x2="587.860" y2="1529.030"/>
      <line x1="588.860" y1="1579.030" x2="588.860" y2="1529.030"/>
      <line x1="589.860" y1="1579.030" x2="589.860" y2="1529.030"/>
      <line x1="590.860" y1="1579.030" x2="590.860" y2="1529.030"/>
      <line x1="591.860" y1="1579.030" x2="591.860" y2="1529.030"/>
      <line x1="592.860" y1="1579.030" x2="592.860" y2="1529.030"/>
      <line x1="593.860" y1="1579.030" x2="593.860" y2="1529.030"/>
      <line x1="594.860" y1="1579.030" x2="594.860" y2="1529.030"/>
      <line x1="595.860" y1="1579.030" x2="595.860" y2="1529.030"/>
      <line x1="596.860" y1="1579.030" x2="596.860" y2="1529.030"/>
      <line x1="527.860" y1="1528.930" x2="527.860" y2="1525.229"/>
      <line x1="498.860" y1="1528.930" x2="498.860" y2="1525.229"/>
      <line x1="497.860" y1="1528.930" x2="497.860" y2="1525.229"/>
      <line x1="501.860" y1="1528.930" x2="501.860" y2="1525.229"/>
      <line x1="500.860" y1="1528.930" x2="500.860" y2="1525.229"/>
      <line x1="504.860" y1="1528.930" x2="504.860" y2="1525.229"/>
      <line x1="503.860" y1="1528.930" x2="503.860" y2="1525.229"/>
      <line x1="507.860" y1="1528.930" x2="507.860" y2="1525.229"/>
      <line x1="506.860" y1="1528.930" x2="506.860" y2="1525.229"/>
      <line x1="509.860" y1="1528.930" x2="509.860" y2="1525.229"/>
      <line x1="515.860" y1="1528.930" x2="515.860" y2="1525.229"/>
      <line x1="526.860" y1="1528.930" x2="526.860" y2="1525.229"/>
      <line x1="523.860" y1="1528.930" x2="523.860" y2="1525.229"/>
      <line x1="524.860" y1="1528.930" x2="524.860" y2="1525.229"/>
      <line x1="520.860" y1="1528.930" x2="520.860" y2="1525.229"/>
      <line x1="517.860" y1="1528.930" x2="517.860" y2="1525.229"/>
      <line x1="512.860" y1="1528.930" x2="512.860" y2="1525.229"/>
      <line x1="514.860" y1="1528.930" x2="514.860" y2="1525.229"/>
      <line x1="521.860" y1="1528.930" x2="521.860" y2="1525.229"/>
      <line x1="518.860" y1="1528.930" x2="518.860" y2="1525.229"/>
      <line x1="525.860" y1="1528.930" x2="525.860" y2="1525.229"/>
      <line x1="502.860" y1="1528.930" x2="502.860" y2="1525.229"/>
      <line x1="505.860" y1="1528.930" x2="505.860" y2="1525.229"/>
      <line x1="508.860" y1="1528.930" x2="508.860" y2="1525.229"/>
      <line x1="511.860" y1="1528.930" x2="511.860" y2="1525.229"/>
      <line x1="510.860" y1="1528.930" x2="510.860" y2="1525.229"/>
      <line x1="513.860" y1="1528.930" x2="513.860" y2="1525.229"/>
      <line x1="516.860" y1="1528.930" x2="516.860" y2="1525.229"/>
      <line x1="519.860" y1="1528.930" x2="519.860" y2="1525.229"/>
      <line x1="522.860" y1="1528.930" x2="522.860" y2="1525.229"/>
      <line x1="499.860" y1="1528.930" x2="499.860" y2="1525.229"/>
      <line x1="537.860" y1="1528.930" x2="537.860" y2="1525.229"/>
      <line x1="546.860" y1="1528.930" x2="546.860" y2="1525.229"/>
      <line x1="545.860" y1="1528.930" x2="545.860" y2="1525.229"/>
      <line x1="544.860" y1="1528.930" x2="544.860" y2="1525.229"/>
      <line x1="543.860" y1="1528.930" x2="543.860" y2="1525.229"/>
      <line x1="542.860" y1="1528.930" x2="542.860" y2="1525.229"/>
      <line x1="541.860" y1="1528.930" x2="541.860" y2="1525.229"/>
      <line x1="540.860" y1="1528.930" x2="540.860" y2="1525.229"/>
      <line x1="539.860" y1="1528.930" x2="539.860" y2="1525.229"/>
      <line x1="538.860" y1="1528.930" x2="538.860" y2="1525.229"/>
      <line x1="536.860" y1="1528.930" x2="536.860" y2="1525.229"/>
      <line x1="535.860" y1="1528.930" x2="535.860" y2="1525.229"/>
      <line x1="534.860" y1="1528.930" x2="534.860" y2="1525.229"/>
      <line x1="533.860" y1="1528.930" x2="533.860" y2="1525.229"/>
      <line x1="532.860" y1="1528.930" x2="532.860" y2="1525.229"/>
      <line x1="531.860" y1="1528.930" x2="531.860" y2="1525.229"/>
      <line x1="530.860" y1="1528.930" x2="530.860" y2="1525.229"/>
      <line x1="529.860" y1="1528.930" x2="529.860" y2="1525.229"/>
      <line x1="528.860" y1="1528.930" x2="528.860" y2="1525.229"/>
      <line x1="577.860" y1="1528.930" x2="577.860" y2="1525.229"/>
      <line x1="586.860" y1="1528.930" x2="586.860" y2="1525.229"/>
      <line x1="585.860" y1="1528.930" x2="585.860" y2="1525.229"/>
      <line x1="584.860" y1="1528.930" x2="584.860" y2="1525.229"/>
      <line x1="583.860" y1="1528.930" x2="583.860" y2="1525.229"/>
      <line x1="582.860" y1="1528.930" x2="582.860" y2="1525.229"/>
      <line x1="581.860" y1="1528.930" x2="581.860" y2="1525.229"/>
      <line x1="580.860" y1="1528.930" x2="580.860" y2="1525.229"/>
      <line x1="579.860" y1="1528.930" x2="579.860" y2="1525.229"/>
      <line x1="578.860" y1="1528.930" x2="578.860" y2="1525.229"/>
      <line x1="587.860" y1="1528.930" x2="587.860" y2="1525.229"/>
      <line x1="576.860" y1="1528.930" x2="576.860" y2="1525.229"/>
      <line x1="575.860" y1="1528.930" x2="575.860" y2="1525.229"/>
      <line x1="574.860" y1="1528.930" x2="574.860" y2="1525.229"/>
      <line x1="573.860" y1="1528.930" x2="573.860" y2="1525.229"/>
      <line x1="572.860" y1="1528.930" x2="572.860" y2="1525.229"/>
      <line x1="571.860" y1="1528.930" x2="571.860" y2="1525.229"/>
      <line x1="570.860" y1="1528.930" x2="570.860" y2="1525.229"/>
      <line x1="569.860" y1="1528.930" x2="569.860" y2="1525.229"/>
      <line x1="568.860" y1="1528.930" x2="568.860" y2="1525.229"/>
      <line x1="596.860" y1="1528.930" x2="596.860" y2="1525.229"/>
      <line x1="595.860" y1="1528.930" x2="595.860" y2="1525.229"/>
      <line x1="594.860" y1="1528.930" x2="594.860" y2="1525.229"/>
      <line x1="593.860" y1="1528.930" x2="593.860" y2="1525.229"/>
      <line x1="592.860" y1="1528.930" x2="592.860" y2="1525.229"/>
      <line x1="591.860" y1="1528.930" x2="591.860" y2="1525.229"/>
      <line x1="590.860" y1="1528.930" x2="590.860" y2="1525.229"/>
      <line x1="589.860" y1="1528.930" x2="589.860" y2="1525.229"/>
      <line x1="588.860" y1="1528.930" x2="588.860" y2="1525.229"/>
      <line x1="547.860" y1="1528.930" x2="547.860" y2="1525.229"/>
      <line x1="557.860" y1="1528.930" x2="557.860" y2="1525.229"/>
      <line x1="566.860" y1="1528.930" x2="566.860" y2="1525.229"/>
      <line x1="565.860" y1="1528.930" x2="565.860" y2="1525.229"/>
      <line x1="564.860" y1="1528.930" x2="564.860" y2="1525.229"/>
      <line x1="563.860" y1="1528.930" x2="563.860" y2="1525.229"/>
      <line x1="562.860" y1="1528.930" x2="562.860" y2="1525.229"/>
      <line x1="561.860" y1="1528.930" x2="561.860" y2="1525.229"/>
      <line x1="560.860" y1="1528.930" x2="560.860" y2="1525.229"/>
      <line x1="559.860" y1="1528.930" x2="559.860" y2="1525.229"/>
      <line x1="558.860" y1="1528.930" x2="558.860" y2="1525.229"/>
      <line x1="567.860" y1="1528.930" x2="567.860" y2="1525.229"/>
      <line x1="556.860" y1="1528.930" x2="556.860" y2="1525.229"/>
      <line x1="555.860" y1="1528.930" x2="555.860" y2="1525.229"/>
      <line x1="554.860" y1="1528.930" x2="554.860" y2="1525.229"/>
      <line x1="553.860" y1="1528.930" x2="553.860" y2="1525.229"/>
      <line x1="552.860" y1="1528.930" x2="552.860" y2="1525.229"/>
      <line x1="551.860" y1="1528.930" x2="551.860" y2="1525.229"/>
      <line x1="550.860" y1="1528.930" x2="550.860" y2="1525.229"/>
      <line x1="549.860" y1="1528.930" x2="549.860" y2="1525.229"/>
      <line x1="548.860" y1="1528.930" x2="548.860" y2="1525.229"/>
      <line x1="3.213" y1="1679.230" x2="3.213" y2="1629.230"/>
      <line x1="4.213" y1="1679.230" x2="4.213" y2="1629.230"/>
      <line x1="5.213" y1="1679.230" x2="5.213" y2="1629.230"/>
      <line x1="6.213" y1="1679.230" x2="6.213" y2="1629.230"/>
      <line x1="7.213" y1="1679.230" x2="7.213" y2="1629.230"/>
      <line x1="8.213" y1="1679.230" x2="8.213" y2="1629.230"/>
      <line x1="9.213" y1="1679.230" x2="9.213" y2="1629.230"/>
      <line x1="10.213" y1="1679.230" x2="10.213" y2="1629.230"/>
      <line x1="11.213" y1="1679.230" x2="11.213" y2="1629.230"/>
      <line x1="12.213" y1="1679.230" x2="12.213" y2="1629.230"/>
      <line x1="13.213" y1="1679.230" x2="13.213" y2="1629.230"/>
      <line x1="14.213" y1="1679.230" x2="14.213" y2="1629.230"/>
      <line x1="15.213" y1="1679.230" x2="15.213" y2="1629.230"/>
      <line x1="16.213" y1="1679.230" x2="16.213" y2="1629.230"/>
      <line x1="17.213" y1="1679.230" x2="17.213" y2="1629.230"/>
      <line x1="18.213" y1="1679.230" x2="18.213" y2="1629.230"/>
      <line x1="19.213" y1="1679.230" x2="19.213" y2="1629.230"/>
      <line x1="20.213" y1="1679.230" x2="20.213" y2="1629.230"/>
      <line x1="21.213" y1="1679.230" x2="21.213" y2="1629.230"/>
      <line x1="22.213" y1="1679.230" x2="22.213" y2="1629.230"/>
      <line x1="23.213" y1="1679.230" x2="23.213" y2="1629.230"/>
      <line x1="24.213" y1="1679.230" x2="24.213" y2="1629.230"/>
      <line x1="25.213" y1="1679.230" x2="25.213" y2="1629.230"/>
      <line x1="26.213" y1="1679.230" x2="26.213" y2="1629.230"/>
      <line x1="27.213" y1="1679.230" x2="27.213" y2="1629.230"/>
      <line x1="28.213" y1="1679.230" x2="28.213" y2="1629.230"/>
      <line x1="29.213" y1="1679.230" x2="29.213" y2="1629.230"/>
      <line x1="30.213" y1="1679.230" x2="30.213" y2="1629.230"/>
      <line x1="31.213" y1="1679.230" x2="31.213" y2="1629.230"/>
      <line x1="32.213" y1="1679.230" x2="32.213" y2="1629.230"/>
      <line x1="33.213" y1="1679.230" x2="33.213" y2="1629.230"/>
      <line x1="34.213" y1="1679.230" x2="34.213" y2="1629.230"/>
      <line x1="35.213" y1="1679.230" x2="35.213" y2="1629.230"/>
      <line x1="36.213" y1="1679.230" x2="36.213" y2="1629.230"/>
      <line x1="37.213" y1="1679.230" x2="37.213" y2="1629.230"/>
      <line x1="38.213" y1="1679.230" x2="38.213" y2="1629.230"/>
      <line x1="39.213" y1="1679.230" x2="39.213" y2="1629.230"/>
      <line x1="40.213" y1="1679.230" x2="40.213" y2="1629.230"/>
      <line x1="41.213" y1="1679.230" x2="41.213" y2="1629.230"/>
      <line x1="42.213" y1="1679.230" x2="42.213" y2="1629.230"/>
      <line x1="43.213" y1="1679.230" x2="43.213" y2="1629.230"/>
      <line x1="44.213" y1="1679.230" x2="44.213" y2="1629.230"/>
      <line x1="45.213" y1="1679.230" x2="45.213" y2="1629.230"/>
      <line x1="46.213" y1="1679.230" x2="46.213" y2="1629.230"/>
      <line x1="47.213" y1="1679.230" x2="47.213" y2="1629.230"/>
      <line x1="48.213" y1="1679.230" x2="48.213" y2="1629.230"/>
      <line x1="49.213" y1="1679.230" x2="49.213" y2="1629.230"/>
      <line x1="50.213" y1="1679.230" x2="50.213" y2="1629.230"/>
      <line x1="51.213" y1="1679.230" x2="51.213" y2="1629.230"/>
      <line x1="52.213" y1="1679.230" x2="52.213" y2="1629.230"/>
      <line x1="53.213" y1="1679.230" x2="53.213" y2="1629.230"/>
      <line x1="54.213" y1="1679.230" x2="54.213" y2="1629.230"/>
      <line x1="55.213" y1="1679.230" x2="55.213" y2="1629.230"/>
      <line x1="56.213" y1="1679.230" x2="56.213" y2="1629.230"/>
      <line x1="57.213" y1="1679.230" x2="57.213" y2="1629.230"/>
      <line x1="58.213" y1="1679.230" x2="58.213" y2="1629.230"/>
      <line x1="59.213" y1="1679.230" x2="59.213" y2="1629.230"/>
      <line x1="60.213" y1="1679.230" x2="60.213" y2="1629.230"/>
      <line x1="61.213" y1="1679.230" x2="61.213" y2="1629.230"/>
      <line x1="62.213" y1="1679.230" x2="62.213" y2="1629.230"/>
      <line x1="63.213" y1="1679.230" x2="63.213" y2="1629.230"/>
      <line x1="64.213" y1="1679.230" x2="64.213" y2="1629.230"/>
      <line x1="65.213" y1="1679.230" x2="65.213" y2="1629.230"/>
      <line x1="66.213" y1="1679.230" x2="66.213" y2="1629.230"/>
      <line x1="67.213" y1="1679.230" x2="67.213" y2="1629.230"/>
      <line x1="68.213" y1="1679.230" x2="68.213" y2="1629.230"/>
      <line x1="69.213" y1="1679.230" x2="69.213" y2="1629.230"/>
      <line x1="70.213" y1="1679.230" x2="70.213" y2="1629.230"/>
      <line x1="71.213" y1="1679.230" x2="71.213" y2="1629.230"/>
      <line x1="72.213" y1="1679.230" x2="72.213" y2="1629.230"/>
      <line x1="73.213" y1="1679.230" x2="73.213" y2="1629.230"/>
      <line x1="74.213" y1="1679.230" x2="74.213" y2="1629.230"/>
      <line x1="75.213" y1="1679.230" x2="75.213" y2="1629.230"/>
      <line x1="76.213" y1="1679.230" x2="76.213" y2="1629.230"/>
      <line x1="77.213" y1="1679.230" x2="77.213" y2="1629.230"/>
      <line x1="78.213" y1="1679.230" x2="78.213" y2="1629.230"/>
      <line x1="79.213" y1="1679.230" x2="79.213" y2="1629.230"/>
      <line x1="80.213" y1="1679.230" x2="80.213" y2="1629.230"/>
      <line x1="81.213" y1="1679.230" x2="81.213" y2="1629.230"/>
      <line x1="82.213" y1="1679.230" x2="82.213" y2="1629.230"/>
      <line x1="83.213" y1="1679.230" x2="83.213" y2="1629.230"/>
      <line x1="84.213" y1="1679.230" x2="84.213" y2="1629.230"/>
      <line x1="85.213" y1="1679.230" x2="85.213" y2="1629.230"/>
      <line x1="86.213" y1="1679.230" x2="86.213" y2="1629.230"/>
      <line x1="87.213" y1="1679.230" x2="87.213" y2="1629.230"/>
      <line x1="88.213" y1="1679.230" x2="88.213" y2="1629.230"/>
      <line x1="89.213" y1="1679.230" x2="89.213" y2="1629.230"/>
      <line x1="90.213" y1="1679.230" x2="90.213" y2="1629.230"/>
      <line x1="91.213" y1="1679.230" x2="91.213" y2="1629.230"/>
      <line x1="92.213" y1="1679.230" x2="92.213" y2="1629.230"/>
      <line x1="93.213" y1="1679.230" x2="93.213" y2="1629.230"/>
      <line x1="94.213" y1="1679.230" x2="94.213" y2="1629.230"/>
      <line x1="95.213" y1="1679.230" x2="95.213" y2="1629.230"/>
      <line x1="96.213" y1="1679.230" x2="96.213" y2="1629.230"/>
      <line x1="97.213" y1="1679.230" x2="97.213" y2="1629.230"/>
      <line x1="98.213" y1="1679.230" x2="98.213" y2="1629.230"/>
      <line x1="99.213" y1="1679.230" x2="99.213" y2="1629.230"/>
      <line x1="100.213" y1="1679.230" x2="100.213" y2="1629.230"/>
      <line x1="101.213" y1="1679.230" x2="101.213" y2="1629.230"/>
      <line x1="102.213" y1="1679.230" x2="102.213" y2="1629.230"/>
      <line x1="3.213" y1="1629.130" x2="3.213" y2="1579.130"/>
      <line x1="4.213" y1="1629.130" x2="4.213" y2="1579.130"/>
      <line x1="5.213" y1="1629.130" x2="5.213" y2="1579.130"/>
      <line x1="6.213" y1="1629.130" x2="6.213" y2="1579.130"/>
      <line x1="7.213" y1="1629.130" x2="7.213" y2="1579.130"/>
      <line x1="8.213" y1="1629.130" x2="8.213" y2="1579.130"/>
      <line x1="9.213" y1="1629.130" x2="9.213" y2="1579.130"/>
      <line x1="10.213" y1="1629.130" x2="10.213" y2="1579.130"/>
      <line x1="11.213" y1="1629.130" x2="11.213" y2="1579.130"/>
      <line x1="12.213" y1="1629.130" x2="12.213" y2="1579.130"/>
      <line x1="13.213" y1="1629.130" x2="13.213" y2="1579.130"/>
      <line x1="14.213" y1="1629.130" x2="14.213" y2="1579.130"/>
      <line x1="15.213" y1="1629.130" x2="15.213" y2="1579.130"/>
      <line x1="16.213" y1="1629.130" x2="16.213" y2="1579.130"/>
      <line x1="17.213" y1="1629.130" x2="17.213" y2="1579.130"/>
      <line x1="18.213" y1="1629.130" x2="18.213" y2="1579.130"/>
      <line x1="19.213" y1="1629.130" x2="19.213" y2="1579.130"/>
      <line x1="20.213" y1="1629.130" x2="20.213" y2="1579.130"/>
      <line x1="21.213" y1="1629.130" x2="21.213" y2="1579.130"/>
      <line x1="22.213" y1="1629.130" x2="22.213" y2="1579.130"/>
      <line x1="23.213" y1="1629.130" x2="23.213" y2="1579.130"/>
      <line x1="24.213" y1="1629.130" x2="24.213" y2="1579.130"/>
      <line x1="25.213" y1="1629.130" x2="25.213" y2="1579.130"/>
      <line x1="26.213" y1="1629.130" x2="26.213" y2="1579.130"/>
      <line x1="27.213" y1="1629.130" x2="27.213" y2="1579.130"/>
      <line x1="28.213" y1="1629.130" x2="28.213" y2="1579.130"/>
      <line x1="29.213" y1="1629.130" x2="29.213" y2="1579.130"/>
      <line x1="30.213" y1="1629.130" x2="30.213" y2="1579.130"/>
      <line x1="31.213" y1="1629.130" x2="31.213" y2="1579.130"/>
      <line x1="32.213" y1="1629.130" x2="32.213" y2="1579.130"/>
      <line x1="33.213" y1="1629.130" x2="33.213" y2="1579.130"/>
      <line x1="34.213" y1="1629.130" x2="34.213" y2="1579.130"/>
      <line x1="35.213" y1="1629.130" x2="35.213" y2="1579.130"/>
      <line x1="36.213" y1="1629.130" x2="36.213" y2="1579.130"/>
      <line x1="37.213" y1="1629.130" x2="37.213" y2="1579.130"/>
      <line x1="38.213" y1="1629.130" x2="38.213" y2="1579.130"/>
      <line x1="39.213" y1="1629.130" x2="39.213" y2="1579.130"/>
      <line x1="40.213" y1="1629.130" x2="40.213" y2="1579.130"/>
      <line x1="41.213" y1="1629.130" x2="41.213" y2="1579.130"/>
      <line x1="42.213" y1="1629.130" x2="42.213" y2="1579.130"/>
      <line x1="43.213" y1="1629.130" x2="43.213" y2="1579.130"/>
      <line x1="44.213" y1="1629.130" x2="44.213" y2="1579.130"/>
      <line x1="45.213" y1="1629.130" x2="45.213" y2="1579.130"/>
      <line x1="46.213" y1="1629.130" x2="46.213" y2="1579.130"/>
      <line x1="47.213" y1="1629.130" x2="47.213" y2="1579.130"/>
      <line x1="48.213" y1="1629.130" x2="48.213" y2="1579.130"/>
      <line x1="49.213" y1="1629.130" x2="49.213" y2="1579.130"/>
      <line x1="50.213" y1="1629.130" x2="50.213" y2="1579.130"/>
      <line x1="51.213" y1="1629.130" x2="51.213" y2="1579.130"/>
      <line x1="52.213" y1="1629.130" x2="52.213" y2="1579.130"/>
      <line x1="53.213" y1="1629.130" x2="53.213" y2="1579.130"/>
      <line x1="54.213" y1="1629.130" x2="54.213" y2="1579.130"/>
      <line x1="55.213" y1="1629.130" x2="55.213" y2="1579.130"/>
      <line x1="56.213" y1="1629.130" x2="56.213" y2="1579.130"/>
      <line x1="57.213" y1="1629.130" x2="57.213" y2="1579.130"/>
      <line x1="58.213" y1="1629.130" x2="58.213" y2="1579.130"/>
      <line x1="59.213" y1="1629.130" x2="59.213" y2="1579.130"/>
      <line x1="60.213" y1="1629.130" x2="60.213" y2="1579.130"/>
      <line x1="61.213" y1="1629.130" x2="61.213" y2="1579.130"/>
      <line x1="62.213" y1="1629.130" x2="62.213" y2="1579.130"/>
      <line x1="63.213" y1="1629.130" x2="63.213" y2="1579.130"/>
      <line x1="64.213" y1="1629.130" x2="64.213" y2="1579.130"/>
      <line x1="65.213" y1="1629.130" x2="65.213" y2="1579.130"/>
      <line x1="66.213" y1="1629.130" x2="66.213" y2="1579.130"/>
      <line x1="67.213" y1="1629.130" x2="67.213" y2="1579.130"/>
      <line x1="68.213" y1="1629.130" x2="68.213" y2="1579.130"/>
      <line x1="69.213" y1="1629.130" x2="69.213" y2="1579.130"/>
      <line x1="70.213" y1="1629.130" x2="70.213" y2="1579.130"/>
      <line x1="71.213" y1="1629.130" x2="71.213" y2="1579.130"/>
      <line x1="72.213" y1="1629.130" x2="72.213" y2="1579.130"/>
      <line x1="73.213" y1="1629.130" x2="73.213" y2="1579.130"/>
      <line x1="74.213" y1="1629.130" x2="74.213" y2="1579.130"/>
      <line x1="75.213" y1="1629.130" x2="75.213" y2="1579.130"/>
      <line x1="76.213" y1="1629.130" x2="76.213" y2="1579.130"/>
      <line x1="77.213" y1="1629.130" x2="77.213" y2="1579.130"/>
      <line x1="78.213" y1="1629.130" x2="78.213" y2="1579.130"/>
      <line x1="79.213" y1="1629.130" x2="79.213" y2="1579.130"/>
      <line x1="80.213" y1="1629.130" x2="80.213" y2="1579.130"/>
      <line x1="81.213" y1="1629.130" x2="81.213" y2="1579.130"/>
      <line x1="82.213" y1="1629.130" x2="82.213" y2="1579.130"/>
      <line x1="83.213" y1="1629.130" x2="83.213" y2="1579.130"/>
      <line x1="84.213" y1="1629.130" x2="84.213" y2="1579.130"/>
      <line x1="85.213" y1="1629.130" x2="85.213" y2="1579.130"/>
      <line x1="86.213" y1="1629.130" x2="86.213" y2="1579.130"/>
      <line x1="87.213" y1="1629.130" x2="87.213" y2="1579.130"/>
      <line x1="88.213" y1="1629.130" x2="88.213" y2="1579.130"/>
      <line x1="89.213" y1="1629.130" x2="89.213" y2="1579.130"/>
      <line x1="90.213" y1="1629.130" x2="90.213" y2="1579.130"/>
      <line x1="91.213" y1="1629.130" x2="91.213" y2="1579.130"/>
      <line x1="92.213" y1="1629.130" x2="92.213" y2="1579.130"/>
      <line x1="93.213" y1="1629.130" x2="93.213" y2="1579.130"/>
      <line x1="94.213" y1="1629.130" x2="94.213" y2="1579.130"/>
      <line x1="95.213" y1="1629.130" x2="95.213" y2="1579.130"/>
      <line x1="96.213" y1="1629.130" x2="96.213" y2="1579.130"/>
      <line x1="97.213" y1="1629.130" x2="97.213" y2="1579.130"/>
      <line x1="98.213" y1="1629.130" x2="98.213" y2="1579.130"/>
      <line x1="99.213" y1="1629.130" x2="99.213" y2="1579.130"/>
      <line x1="100.213" y1="1629.130" x2="100.213" y2="1579.130"/>
      <line x1="101.213" y1="1629.130" x2="101.213" y2="1579.130"/>
      <line x1="102.213" y1="1629.130" x2="102.213" y2="1579.130"/>
      <line x1="3.213" y1="1579.030" x2="3.213" y2="1529.030"/>
      <line x1="4.213" y1="1579.030" x2="4.213" y2="1529.030"/>
      <line x1="5.213" y1="1579.030" x2="5.213" y2="1529.030"/>
      <line x1="6.213" y1="1579.030" x2="6.213" y2="1529.030"/>
      <line x1="7.213" y1="1579.030" x2="7.213" y2="1529.030"/>
      <line x1="8.213" y1="1579.030" x2="8.213" y2="1529.030"/>
      <line x1="9.213" y1="1579.030" x2="9.213" y2="1529.030"/>
      <line x1="10.213" y1="1579.030" x2="10.213" y2="1529.030"/>
      <line x1="11.213" y1="1579.030" x2="11.213" y2="1529.030"/>
      <line x1="12.213" y1="1579.030" x2="12.213" y2="1529.030"/>
      <line x1="13.213" y1="1579.030" x2="13.213" y2="1529.030"/>
      <line x1="14.213" y1="1579.030" x2="14.213" y2="1529.030"/>
      <line x1="15.213" y1="1579.030" x2="15.213" y2="1529.030"/>
      <line x1="16.213" y1="1579.030" x2="16.213" y2="1529.030"/>
      <line x1="17.213" y1="1579.030" x2="17.213" y2="1529.030"/>
      <line x1="18.213" y1="1579.030" x2="18.213" y2="1529.030"/>
      <line x1="19.213" y1="1579.030" x2="19.213" y2="1529.030"/>
      <line x1="20.213" y1="1579.030" x2="20.213" y2="1529.030"/>
      <line x1="21.213" y1="1579.030" x2="21.213" y2="1529.030"/>
      <line x1="22.213" y1="1579.030" x2="22.213" y2="1529.030"/>
      <line x1="23.213" y1="1579.030" x2="23.213" y2="1529.030"/>
      <line x1="24.213" y1="1579.030" x2="24.213" y2="1529.030"/>
      <line x1="25.213" y1="1579.030" x2="25.213" y2="1529.030"/>
      <line x1="26.213" y1="1579.030" x2="26.213" y2="1529.030"/>
      <line x1="27.213" y1="1579.030" x2="27.213" y2="1529.030"/>
      <line x1="28.213" y1="1579.030" x2="28.213" y2="1529.030"/>
      <line x1="29.213" y1="1579.030" x2="29.213" y2="1529.030"/>
      <line x1="30.213" y1="1579.030" x2="30.213" y2="1529.030"/>
      <line x1="31.213" y1="1579.030" x2="31.213" y2="1529.030"/>
      <line x1="32.213" y1="1579.030" x2="32.213" y2="1529.030"/>
      <line x1="33.213" y1="1579.030" x2="33.213" y2="1529.030"/>
      <line x1="34.213" y1="1579.030" x2="34.213" y2="1529.030"/>
      <line x1="35.213" y1="1579.030" x2="35.213" y2="1529.030"/>
      <line x1="36.213" y1="1579.030" x2="36.213" y2="1529.030"/>
      <line x1="37.213" y1="1579.030" x2="37.213" y2="1529.030"/>
      <line x1="38.213" y1="1579.030" x2="38.213" y2="1529.030"/>
      <line x1="39.213" y1="1579.030" x2="39.213" y2="1529.030"/>
      <line x1="40.213" y1="1579.030" x2="40.213" y2="1529.030"/>
      <line x1="41.213" y1="1579.030" x2="41.213" y2="1529.030"/>
      <line x1="42.213" y1="1579.030" x2="42.213" y2="1529.030"/>
      <line x1="43.213" y1="1579.030" x2="43.213" y2="1529.030"/>
      <line x1="44.213" y1="1579.030" x2="44.213" y2="1529.030"/>
      <line x1="45.213" y1="1579.030" x2="45.213" y2="1529.030"/>
      <line x1="46.213" y1="1579.030" x2="46.213" y2="1529.030"/>
      <line x1="47.213" y1="1579.030" x2="47.213" y2="1529.030"/>
      <line x1="48.213" y1="1579.030" x2="48.213" y2="1529.030"/>
      <line x1="49.213" y1="1579.030" x2="49.213" y2="1529.030"/>
      <line x1="50.213" y1="1579.030" x2="50.213" y2="1529.030"/>
      <line x1="51.213" y1="1579.030" x2="51.213" y2="1529.030"/>
      <line x1="52.213" y1="1579.030" x2="52.213" y2="1529.030"/>
      <line x1="53.213" y1="1579.030" x2="53.213" y2="1529.030"/>
      <line x1="54.213" y1="1579.030" x2="54.213" y2="1529.030"/>
      <line x1="55.213" y1="1579.030" x2="55.213" y2="1529.030"/>
      <line x1="56.213" y1="1579.030" x2="56.213" y2="1529.030"/>
      <line x1="57.213" y1="1579.030" x2="57.213" y2="1529.030"/>
      <line x1="58.213" y1="1579.030" x2="58.213" y2="1529.030"/>
      <line x1="59.213" y1="1579.030" x2="59.213" y2="1529.030"/>
      <line x1="60.213" y1="1579.030" x2="60.213" y2="1529.030"/>
      <line x1="61.213" y1="1579.030" x2="61.213" y2="1529.030"/>
      <line x1="62.213" y1="1579.030" x2="62.213" y2="1529.030"/>
      <line x1="63.213" y1="1579.030" x2="63.213" y2="1529.030"/>
      <line x1="64.213" y1="1579.030" x2="64.213" y2="1529.030"/>
      <line x1="65.213" y1="1579.030" x2="65.213" y2="1529.030"/>
      <line x1="66.213" y1="1579.030" x2="66.213" y2="1529.030"/>
      <line x1="67.213" y1="1579.030" x2="67.213" y2="1529.030"/>
      <line x1="68.213" y1="1579.030" x2="68.213" y2="1529.030"/>
      <line x1="69.213" y1="1579.030" x2="69.213" y2="1529.030"/>
      <line x1="70.213" y1="1579.030" x2="70.213" y2="1529.030"/>
      <line x1="71.213" y1="1579.030" x2="71.213" y2="1529.030"/>
      <line x1="72.213" y1="1579.030" x2="72.213" y2="1529.030"/>
      <line x1="73.213" y1="1579.030" x2="73.213" y2="1529.030"/>
      <line x1="74.213" y1="1579.030" x2="74.213" y2="1529.030"/>
      <line x1="75.213" y1="1579.030" x2="75.213" y2="1529.030"/>
      <line x1="76.213" y1="1579.030" x2="76.213" y2="1529.030"/>
      <line x1="77.213" y1="1579.030" x2="77.213" y2="1529.030"/>
      <line x1="78.213" y1="1579.030" x2="78.213" y2="1529.030"/>
      <line x1="79.213" y1="1579.030" x2="79.213" y2="1529.030"/>
      <line x1="80.213" y1="1579.030" x2="80.213" y2="1529.030"/>
      <line x1="81.213" y1="1579.030" x2="81.213" y2="1529.030"/>
      <line x1="82.213" y1="1579.030" x2="82.213" y2="1529.030"/>
      <line x1="83.213" y1="1579.030" x2="83.213" y2="1529.030"/>
      <line x1="84.213" y1="1579.030" x2="84.213" y2="1529.030"/>
      <line x1="85.213" y1="1579.030" x2="85.213" y2="1529.030"/>
      <line x1="86.213" y1="1579.030" x2="86.213" y2="1529.030"/>
      <line x1="87.213" y1="1579.030" x2="87.213" y2="1529.030"/>
      <line x1="88.213" y1="1579.030" x2="88.213" y2="1529.030"/>
      <line x1="89.213" y1="1579.030" x2="89.213" y2="1529.030"/>
      <line x1="90.213" y1="1579.030" x2="90.213" y2="1529.030"/>
      <line x1="91.213" y1="1579.030" x2="91.213" y2="1529.030"/>
      <line x1="92.213" y1="1579.030" x2="92.213" y2="1529.030"/>
      <line x1="93.213" y1="1579.030" x2="93.213" y2="1529.030"/>
      <line x1="94.213" y1="1579.030" x2="94.213" y2="1529.030"/>
      <line x1="95.213" y1="1579.030" x2="95.213" y2="1529.030"/>
      <line x1="96.213" y1="1579.030" x2="96.213" y2="1529.030"/>
      <line x1="97.213" y1="1579.030" x2="97.213" y2="1529.030"/>
      <line x1="98.213" y1="1579.030" x2="98.213" y2="1529.030"/>
      <line x1="99.213" y1="1579.030" x2="99.213" y2="1529.030"/>
      <line x1="100.213" y1="1579.030" x2="100.213" y2="1529.030"/>
      <line x1="101.213" y1="1579.030" x2="101.213" y2="1529.030"/>
      <line x1="102.213" y1="1579.030" x2="102.213" y2="1529.030"/>
      <line x1="33.213" y1="1528.930" x2="33.213" y2="1525.229"/>
      <line x1="24.213" y1="1528.930" x2="24.213" y2="1525.229"/>
      <line x1="25.213" y1="1528.930" x2="25.213" y2="1525.229"/>
      <line x1="26.213" y1="1528.930" x2="26.213" y2="1525.229"/>
      <line x1="27.213" y1="1528.930" x2="27.213" y2="1525.229"/>
      <line x1="28.213" y1="1528.930" x2="28.213" y2="1525.229"/>
      <line x1="29.213" y1="1528.930" x2="29.213" y2="1525.229"/>
      <line x1="30.213" y1="1528.930" x2="30.213" y2="1525.229"/>
      <line x1="31.213" y1="1528.930" x2="31.213" y2="1525.229"/>
      <line x1="32.213" y1="1528.930" x2="32.213" y2="1525.229"/>
      <line x1="23.213" y1="1528.930" x2="23.213" y2="1525.229"/>
      <line x1="34.213" y1="1528.930" x2="34.213" y2="1525.229"/>
      <line x1="35.213" y1="1528.930" x2="35.213" y2="1525.229"/>
      <line x1="36.213" y1="1528.930" x2="36.213" y2="1525.229"/>
      <line x1="37.213" y1="1528.930" x2="37.213" y2="1525.229"/>
      <line x1="38.213" y1="1528.930" x2="38.213" y2="1525.229"/>
      <line x1="39.213" y1="1528.930" x2="39.213" y2="1525.229"/>
      <line x1="40.213" y1="1528.930" x2="40.213" y2="1525.229"/>
      <line x1="41.213" y1="1528.930" x2="41.213" y2="1525.229"/>
      <line x1="42.213" y1="1528.930" x2="42.213" y2="1525.229"/>
      <line x1="13.213" y1="1528.930" x2="13.213" y2="1525.229"/>
      <line x1="4.213" y1="1528.930" x2="4.213" y2="1525.229"/>
      <line x1="5.213" y1="1528.930" x2="5.213" y2="1525.229"/>
      <line x1="6.213" y1="1528.930" x2="6.213" y2="1525.229"/>
      <line x1="7.213" y1="1528.930" x2="7.213" y2="1525.229"/>
      <line x1="8.213" y1="1528.930" x2="8.213" y2="1525.229"/>
      <line x1="9.213" y1="1528.930" x2="9.213" y2="1525.229"/>
      <line x1="10.213" y1="1528.930" x2="10.213" y2="1525.229"/>
      <line x1="11.213" y1="1528.930" x2="11.213" y2="1525.229"/>
      <line x1="12.213" y1="1528.930" x2="12.213" y2="1525.229"/>
      <line x1="3.213" y1="1528.930" x2="3.213" y2="1525.229"/>
      <line x1="14.213" y1="1528.930" x2="14.213" y2="1525.229"/>
      <line x1="15.213" y1="1528.930" x2="15.213" y2="1525.229"/>
      <line x1="16.213" y1="1528.930" x2="16.213" y2="1525.229"/>
      <line x1="17.213" y1="1528.930" x2="17.213" y2="1525.229"/>
      <line x1="18.213" y1="1528.930" x2="18.213" y2="1525.229"/>
      <line x1="19.213" y1="1528.930" x2="19.213" y2="1525.229"/>
      <line x1="20.213" y1="1528.930" x2="20.213" y2="1525.229"/>
      <line x1="21.213" y1="1528.930" x2="21.213" y2="1525.229"/>
      <line x1="22.213" y1="1528.930" x2="22.213" y2="1525.229"/>
      <line x1="44.213" y1="1528.930" x2="44.213" y2="1525.229"/>
      <line x1="45.213" y1="1528.930" x2="45.213" y2="1525.229"/>
      <line x1="46.213" y1="1528.930" x2="46.213" y2="1525.229"/>
      <line x1="47.213" y1="1528.930" x2="47.213" y2="1525.229"/>
      <line x1="48.213" y1="1528.930" x2="48.213" y2="1525.229"/>
      <line x1="49.213" y1="1528.930" x2="49.213" y2="1525.229"/>
      <line x1="50.213" y1="1528.930" x2="50.213" y2="1525.229"/>
      <line x1="51.213" y1="1528.930" x2="51.213" y2="1525.229"/>
      <line x1="52.213" y1="1528.930" x2="52.213" y2="1525.229"/>
      <line x1="43.213" y1="1528.930" x2="43.213" y2="1525.229"/>
      <line x1="102.213" y1="1528.930" x2="102.213" y2="1525.229"/>
      <line x1="73.213" y1="1528.930" x2="73.213" y2="1525.229"/>
      <line x1="72.213" y1="1528.930" x2="72.213" y2="1525.229"/>
      <line x1="76.213" y1="1528.930" x2="76.213" y2="1525.229"/>
      <line x1="75.213" y1="1528.930" x2="75.213" y2="1525.229"/>
      <line x1="79.213" y1="1528.930" x2="79.213" y2="1525.229"/>
      <line x1="78.213" y1="1528.930" x2="78.213" y2="1525.229"/>
      <line x1="82.213" y1="1528.930" x2="82.213" y2="1525.229"/>
      <line x1="81.213" y1="1528.930" x2="81.213" y2="1525.229"/>
      <line x1="85.213" y1="1528.930" x2="85.213" y2="1525.229"/>
      <line x1="87.213" y1="1528.930" x2="87.213" y2="1525.229"/>
      <line x1="101.213" y1="1528.930" x2="101.213" y2="1525.229"/>
      <line x1="98.213" y1="1528.930" x2="98.213" y2="1525.229"/>
      <line x1="99.213" y1="1528.930" x2="99.213" y2="1525.229"/>
      <line x1="95.213" y1="1528.930" x2="95.213" y2="1525.229"/>
      <line x1="92.213" y1="1528.930" x2="92.213" y2="1525.229"/>
      <line x1="84.213" y1="1528.930" x2="84.213" y2="1525.229"/>
      <line x1="90.213" y1="1528.930" x2="90.213" y2="1525.229"/>
      <line x1="96.213" y1="1528.930" x2="96.213" y2="1525.229"/>
      <line x1="93.213" y1="1528.930" x2="93.213" y2="1525.229"/>
      <line x1="77.213" y1="1528.930" x2="77.213" y2="1525.229"/>
      <line x1="64.213" y1="1528.930" x2="64.213" y2="1525.229"/>
      <line x1="65.213" y1="1528.930" x2="65.213" y2="1525.229"/>
      <line x1="66.213" y1="1528.930" x2="66.213" y2="1525.229"/>
      <line x1="67.213" y1="1528.930" x2="67.213" y2="1525.229"/>
      <line x1="68.213" y1="1528.930" x2="68.213" y2="1525.229"/>
      <line x1="69.213" y1="1528.930" x2="69.213" y2="1525.229"/>
      <line x1="70.213" y1="1528.930" x2="70.213" y2="1525.229"/>
      <line x1="71.213" y1="1528.930" x2="71.213" y2="1525.229"/>
      <line x1="74.213" y1="1528.930" x2="74.213" y2="1525.229"/>
      <line x1="63.213" y1="1528.930" x2="63.213" y2="1525.229"/>
      <line x1="80.213" y1="1528.930" x2="80.213" y2="1525.229"/>
      <line x1="83.213" y1="1528.930" x2="83.213" y2="1525.229"/>
      <line x1="86.213" y1="1528.930" x2="86.213" y2="1525.229"/>
      <line x1="89.213" y1="1528.930" x2="89.213" y2="1525.229"/>
      <line x1="88.213" y1="1528.930" x2="88.213" y2="1525.229"/>
      <line x1="91.213" y1="1528.930" x2="91.213" y2="1525.229"/>
      <line x1="94.213" y1="1528.930" x2="94.213" y2="1525.229"/>
      <line x1="97.213" y1="1528.930" x2="97.213" y2="1525.229"/>
      <line x1="100.213" y1="1528.930" x2="100.213" y2="1525.229"/>
      <line x1="53.213" y1="1528.930" x2="53.213" y2="1525.229"/>
      <line x1="54.213" y1="1528.930" x2="54.213" y2="1525.229"/>
      <line x1="55.213" y1="1528.930" x2="55.213" y2="1525.229"/>
      <line x1="56.213" y1="1528.930" x2="56.213" y2="1525.229"/>
      <line x1="57.213" y1="1528.930" x2="57.213" y2="1525.229"/>
      <line x1="58.213" y1="1528.930" x2="58.213" y2="1525.229"/>
      <line x1="59.213" y1="1528.930" x2="59.213" y2="1525.229"/>
      <line x1="60.213" y1="1528.930" x2="60.213" y2="1525.229"/>
      <line x1="61.213" y1="1528.930" x2="61.213" y2="1525.229"/>
      <line x1="62.213" y1="1528.930" x2="62.213" y2="1525.229"/>
    </g>
    <g stroke="#1976D2" stroke-width="0.4">
      <polyline points="496.003,1682.729 600.500,1682.729 600.500,1521.729 496.003,1521.729" fill="none"/>
      <polyline points="496.003,1521.729 494.147,1521.729 494.147,1682.729 496.003,1682.729" fill="none"/>
      <polyline points="496.003,1681.730 599.500,1681.730 599.500,1522.729 496.003,1522.729" fill="none"/>
      <polyline points="496.003,1522.729 495.147,1522.729 495.147,1681.730 496.003,1681.730" fill="none"/>
      <polyline points="598.500,1523.729 496.147,1523.729 496.147,1680.730 598.500,1680.730 598.500,1523.729" fill="none"/>
      <polyline points="597.500,1524.729 497.147,1524.729 497.147,1679.729 597.500,1679.729 597.500,1524.729" fill="none"/>
      <polyline points="103.997,1521.729 -0.500,1521.729 -0.500,1682.729 103.997,1682.729" fill="none"/>
      <polyline points="103.997,1682.729 105.853,1682.729 105.853,1521.729 103.997,1521.729" fill="none"/>
      <polyline points="103.997,1522.729 0.500,1522.729 0.500,1681.730 103.997,1681.730" fill="none"/>
      <polyline points="103.997,1681.730 104.853,1681.730 104.853,1522.729 103.997,1522.729" fill="none"/>
      <polyline points="103.853,1523.729 1.500,1523.729 1.500,1680.730 103.853,1680.730 103.853,1523.729" fill="none"/>
      <polyline points="102.853,1524.729 2.500,1524.729 2.500,1679.729 102.853,1679.729 102.853,1524.729" fill="none"/>
    </g>
    <g stroke="#C62828" stroke-width="0.4" fill="none">
      <polygon points="294.546,1534.339 296.001,1533.240 296.961,1531.689 297.296,1529.896 296.961,1528.103 296.001,1526.553 294.546,1525.453 292.791,1524.954 290.975,1525.123 289.342,1525.936 288.114,1527.284 287.455,1528.984 287.455,1530.808 288.114,1532.509 289.342,1533.857 290.975,1534.670 292.791,1534.838"/>
      <polygon points="314.507,1534.261 315.937,1533.181 316.880,1531.658 317.210,1529.896 316.880,1528.135 315.937,1526.611 314.507,1525.531 312.783,1525.041 310.999,1525.206 309.395,1526.005 308.187,1527.329 307.540,1529.000 307.540,1530.792 308.187,1532.463 309.395,1533.788 310.999,1534.586 312.783,1534.752"/>
      <polygon points="274.427,1534.101 275.805,1533.061 276.713,1531.593 277.031,1529.896 276.713,1528.199 275.805,1526.732 274.427,1525.691 272.767,1525.219 271.048,1525.378 269.503,1526.148 268.340,1527.423 267.716,1529.033 267.716,1530.759 268.340,1532.369 269.503,1533.645 271.048,1534.414 272.767,1534.573"/>
      <polygon points="334.386,1534.018 335.736,1532.998 336.627,1531.560 336.938,1529.896 336.627,1528.233 335.736,1526.794 334.386,1525.774 332.758,1525.311 331.073,1525.467 329.558,1526.222 328.418,1527.472 327.807,1529.050 327.807,1530.742 328.418,1532.320 329.558,1533.571 331.073,1534.325 332.758,1534.481"/>
      <polygon points="254.022,1533.973 255.454,1533.016 256.410,1531.585 256.746,1529.896 256.410,1528.208 255.454,1526.776 254.022,1525.819 252.333,1525.483 250.645,1525.819 249.213,1526.776 248.257,1528.208 247.921,1529.896 248.257,1531.585 249.213,1533.016 250.645,1533.973 252.333,1534.309"/>
      <polygon points="354.022,1533.973 355.454,1533.016 356.410,1531.585 356.746,1529.896 356.410,1528.208 355.454,1526.776 354.022,1525.819 352.333,1525.483 350.645,1525.819 349.213,1526.776 348.257,1528.208 347.921,1529.896 348.257,1531.585 349.213,1533.016 350.645,1533.973 352.333,1534.309"/>
      <polygon points="233.945,1533.787 235.311,1532.874 236.224,1531.508 236.545,1529.896 236.224,1528.285 235.311,1526.918 233.945,1526.005 232.333,1525.685 230.722,1526.005 229.355,1526.918 228.443,1528.285 228.122,1529.896 228.443,1531.508 229.355,1532.874 230.722,1533.787 232.333,1534.108"/>
      <polygon points="373.905,1533.691 375.237,1532.800 376.128,1531.468 376.440,1529.896 376.128,1528.325 375.237,1526.992 373.905,1526.102 372.333,1525.789 370.762,1526.102 369.429,1526.992 368.539,1528.325 368.226,1529.896 368.539,1531.468 369.429,1532.800 370.762,1533.691 372.333,1534.003"/>
      <polygon points="213.536,1533.596 214.936,1532.787 215.887,1531.479 216.224,1529.896 215.887,1528.314 214.936,1527.005 213.536,1526.196 211.927,1526.027 210.388,1526.527 209.186,1527.610 208.528,1529.087 208.528,1530.705 209.186,1532.183 210.388,1533.265 211.927,1533.765"/>
      <polygon points="393.501,1533.489 394.861,1532.704 395.784,1531.433 396.111,1529.896 395.784,1528.360 394.861,1527.089 393.501,1526.303 391.938,1526.139 390.444,1526.625 389.277,1527.676 388.638,1529.111 388.638,1530.682 389.277,1532.117 390.444,1533.168 391.938,1533.653"/>
      <polygon points="413.428,1533.267 414.705,1532.530 415.571,1531.338 415.877,1529.896 415.571,1528.455 414.705,1527.263 413.428,1526.526 411.963,1526.372 410.561,1526.827 409.466,1527.813 408.867,1529.159 408.867,1530.633 409.466,1531.979 410.561,1532.965 411.963,1533.421"/>
      <polygon points="193.428,1533.267 194.705,1532.530 195.571,1531.338 195.877,1529.896 195.571,1528.455 194.705,1527.263 193.428,1526.526 191.963,1526.372 190.561,1526.827 189.466,1527.813 188.867,1529.159 188.867,1530.633 189.466,1531.979 190.561,1532.965 191.963,1533.421"/>
      <polygon points="174.389,1532.474 175.304,1531.327 175.631,1529.896 175.304,1528.466 174.389,1527.318 173.067,1526.682 171.600,1526.682 170.278,1527.318 169.363,1528.466 169.036,1529.896 169.363,1531.327 170.278,1532.474 171.600,1533.111 173.067,1533.111"/>
      <polygon points="434.309,1532.374 435.188,1531.271 435.502,1529.896 435.188,1528.521 434.309,1527.419 433.038,1526.807 431.628,1526.807 430.358,1527.419 429.478,1528.521 429.164,1529.896 429.478,1531.271 430.358,1532.374 431.628,1532.986 433.038,1532.986"/>
      <polygon points="153.821,1532.051 154.652,1531.113 154.952,1529.896 154.652,1528.679 153.821,1527.741 152.649,1527.297 151.405,1527.448 150.373,1528.160 149.791,1529.270 149.791,1530.523 150.373,1531.632 151.405,1532.344 152.649,1532.495"/>
      <polygon points="453.493,1531.904 454.341,1531.055 454.652,1529.896 454.341,1528.737 453.493,1527.888 452.333,1527.578 451.174,1527.888 450.326,1528.737 450.015,1529.896 450.326,1531.055 451.174,1531.904 452.333,1532.215"/>
      <polygon points="133.333,1531.628 134.065,1530.896 134.333,1529.896 134.065,1528.896 133.333,1528.164 132.333,1527.896 131.333,1528.164 130.601,1528.896 130.333,1529.896 130.601,1530.896 131.333,1531.628 132.333,1531.896"/>
      <polygon points="473.333,1531.628 474.065,1530.896 474.333,1529.896 474.065,1528.896 473.333,1528.164 472.333,1527.896 471.333,1528.164 470.601,1528.896 470.333,1529.896 470.601,1530.896 471.333,1531.628 472.333,1531.896"/>
      <polygon points="294.546,1554.339 296.001,1553.240 296.961,1551.689 297.296,1549.896 296.961,1548.103 296.001,1546.553 294.546,1545.453 292.791,1544.954 290.975,1545.123 289.342,1545.936 288.114,1547.284 287.455,1548.984 287.455,1550.808 288.114,1552.509 289.342,1553.857 290.975,1554.670 292.791,1554.838"/>
      <polygon points="314.507,1554.261 315.937,1553.181 316.880,1551.658 317.210,1549.896 316.880,1548.135 315.937,1546.611 314.507,1545.531 312.783,1545.041 310.999,1545.206 309.395,1546.005 308.187,1547.329 307.540,1549.000 307.540,1550.792 308.187,1552.463 309.395,1553.788 310.999,1554.586 312.783,1554.752"/>
      <polygon points="274.427,1554.101 275.805,1553.061 276.713,1551.593 277.031,1549.896 276.713,1548.199 275.805,1546.732 274.427,1545.691 272.767,1545.219 271.048,1545.378 269.503,1546.148 268.340,1547.423 267.716,1549.033 267.716,1550.759 268.340,1552.369 269.503,1553.645 271.048,1554.414 272.767,1554.573"/>
      <polygon points="334.386,1554.018 335.736,1552.998 336.627,1551.560 336.938,1549.896 336.627,1548.233 335.736,1546.794 334.386,1545.774 332.758,1545.311 331.073,1545.467 329.558,1546.222 328.418,1547.472 327.807,1549.050 327.807,1550.742 328.418,1552.320 329.558,1553.571 331.073,1554.325 332.758,1554.481"/>
      <polygon points="354.022,1553.973 355.454,1553.016 356.410,1551.585 356.746,1549.896 356.410,1548.208 355.454,1546.776 354.022,1545.819 352.333,1545.483 350.645,1545.819 349.213,1546.776 348.257,1548.208 347.921,1549.896 348.257,1551.585 349.213,1553.016 350.645,1553.973 352.333,1554.309"/>
      <polygon points="254.022,1553.973 255.454,1553.016 256.410,1551.585 256.746,1549.896 256.410,1548.208 255.454,1546.776 254.022,1545.819 252.333,1545.483 250.645,1545.819 249.213,1546.776 248.257,1548.208 247.921,1549.896 248.257,1551.585 249.213,1553.016 250.645,1553.973 252.333,1554.309"/>
      <polygon points="233.945,1553.787 235.311,1552.874 236.224,1551.508 236.545,1549.896 236.224,1548.285 235.311,1546.918 233.945,1546.005 232.333,1545.685 230.722,1546.005 229.355,1546.918 228.443,1548.285 228.122,1549.896 228.443,1551.508 229.355,1552.874 230.722,1553.787 232.333,1554.108"/>
      <polygon points="373.905,1553.691 375.237,1552.800 376.128,1551.468 376.440,1549.896 376.128,1548.325 375.237,1546.992 373.905,1546.102 372.333,1545.789 370.762,1546.102 369.429,1546.992 368.539,1548.325 368.226,1549.896 368.539,1551.468 369.429,1552.800 370.762,1553.691 372.333,1554.003"/>
      <polygon points="213.536,1553.596 214.936,1552.787 215.887,1551.479 216.224,1549.896 215.887,1548.314 214.936,1547.005 213.536,1546.196 211.927,1546.027 210.388,1546.527 209.186,1547.610 208.528,1549.087 208.528,1550.705 209.186,1552.183 210.388,1553.265 211.927,1553.765"/>
      <polygon points="393.501,1553.489 394.861,1552.704 395.784,1551.433 396.111,1549.896 395.784,1548.360 394.861,1547.089 393.501,1546.303 391.938,1546.139 390.444,1546.625 389.277,1547.676 388.638,1549.111 388.638,1550.682 389.277,1552.117 390.444,1553.168 391.938,1553.653"/>
      <polygon points="413.428,1553.267 414.705,1552.530 415.571,1551.338 415.877,1549.896 415.571,1548.455 414.705,1547.263 413.428,1546.526 411.963,1546.372 410.561,1546.827 409.466,1547.813 408.867,1549.159 408.867,1550.633 409.466,1551.979 410.561,1552.965 411.963,1553.421"/>
      <polygon points="193.428,1553.267 194.705,1552.530 195.571,1551.338 195.877,1549.896 195.571,1548.455 194.705,1547.263 193.428,1546.526 191.963,1546.372 190.561,1546.827 189.466,1547.813 188.867,1549.159 188.867,1550.633 189.466,1551.979 190.561,1552.965 191.963,1553.421"/>
      <polygon points="174.389,1552.474 175.304,1551.327 175.631,1549.896 175.304,1548.466 174.389,1547.318 173.067,1546.682 171.600,1546.682 170.278,1547.318 169.363,1548.466 169.036,1549.896 169.363,1551.327 170.278,1552.474 171.600,1553.111 173.067,1553.111"/>
      <polygon points="434.309,1552.374 435.188,1551.271 435.502,1549.896 435.188,1548.521 434.309,1547.419 433.038,1546.807 431.628,1546.807 430.358,1547.419 429.478,1548.521 429.164,1549.896 429.478,1551.271 430.358,1552.374 431.628,1552.986 433.038,1552.986"/>
      <polygon points="153.821,1552.051 154.652,1551.113 154.952,1549.896 154.652,1548.679 153.821,1547.741 152.649,1547.297 151.405,1547.448 150.373,1548.160 149.791,1549.270 149.791,1550.523 150.373,1551.632 151.405,1552.344 152.649,1552.495"/>
      <polygon points="453.493,1551.904 454.341,1551.055 454.652,1549.896 454.341,1548.737 453.493,1547.888 452.333,1547.578 451.174,1547.888 450.326,1548.737 450.015,1549.896 450.326,1551.055 451.174,1551.904 452.333,1552.215"/>
      <polygon points="133.333,1551.628 134.065,1550.896 134.333,1549.896 134.065,1548.896 133.333,1548.164 132.333,1547.896 131.333,1548.164 130.601,1548.896 130.333,1549.896 130.601,1550.896 131.333,1551.628 132.333,1551.896"/>
      <polygon points="473.333,1551.628 474.065,1550.896 474.333,1549.896 474.065,1548.896 473.333,1548.164 472.333,1547.896 471.333,1548.164 470.601,1548.896 470.333,1549.896 470.601,1550.896 471.333,1551.628 472.333,1551.896"/>
      <polygon points="294.546,1574.339 296.001,1573.240 296.961,1571.689 297.296,1569.896 296.961,1568.103 296.001,1566.553 294.546,1565.453 292.791,1564.954 290.975,1565.123 289.342,1565.936 288.114,1567.284 287.455,1568.984 287.455,1570.808 288.114,1572.509 289.342,1573.857 290.975,1574.670 292.791,1574.838"/>
      <polygon points="314.507,1574.261 315.937,1573.181 316.880,1571.658 317.210,1569.896 316.880,1568.135 315.937,1566.611 314.507,1565.531 312.783,1565.041 310.999,1565.206 309.395,1566.005 308.187,1567.329 307.540,1569.000 307.540,1570.792 308.187,1572.463 309.395,1573.788 310.999,1574.586 312.783,1574.752"/>
      <polygon points="274.427,1574.101 275.805,1573.061 276.713,1571.593 277.031,1569.896 276.713,1568.199 275.805,1566.732 274.427,1565.691 272.767,1565.219 271.048,1565.378 269.503,1566.148 268.340,1567.423 267.716,1569.033 267.716,1570.759 268.340,1572.369 269.503,1573.645 271.048,1574.414 272.767,1574.573"/>
      <polygon points="334.386,1574.018 335.736,1572.998 336.627,1571.560 336.938,1569.896 336.627,1568.233 335.736,1566.794 334.386,1565.774 332.758,1565.311 331.073,1565.467 329.558,1566.222 328.418,1567.472 327.807,1569.050 327.807,1570.742 328.418,1572.320 329.558,1573.571 331.073,1574.325 332.758,1574.481"/>
      <polygon points="254.022,1573.973 255.454,1573.016 256.410,1571.585 256.746,1569.896 256.410,1568.208 255.454,1566.776 254.022,1565.819 252.333,1565.483 250.645,1565.819 249.213,1566.776 248.257,1568.208 247.921,1569.896 248.257,1571.585 249.213,1573.016 250.645,1573.973 252.333,1574.309"/>
      <polygon points="354.022,1573.973 355.454,1573.016 356.410,1571.585 356.746,1569.896 356.410,1568.208 355.454,1566.776 354.022,1565.819 352.333,1565.483 350.645,1565.819 349.213,1566.776 348.257,1568.208 347.921,1569.896 348.257,1571.585 349.213,1573.016 350.645,1573.973 352.333,1574.309"/>
      <polygon points="233.945,1573.787 235.311,1572.874 236.224,1571.508 236.545,1569.896 236.224,1568.285 235.311,1566.918 233.945,1566.005 232.333,1565.685 230.722,1566.005 229.355,1566.918 228.443,1568.285 228.122,1569.896 228.443,1571.508 229.355,1572.874 230.722,1573.787 232.333,1574.108"/>
      <polygon points="373.905,1573.691 375.237,1572.800 376.128,1571.468 376.440,1569.896 376.128,1568.325 375.237,1566.992 373.905,1566.102 372.333,1565.789 370.762,1566.102 369.429,1566.992 368.539,1568.325 368.226,1569.896 368.539,1571.468 369.429,1572.800 370.762,1573.691 372.333,1574.003"/>
      <polygon points="213.536,1573.596 214.936,1572.787 215.887,1571.479 216.224,1569.896 215.887,1568.314 214.936,1567.005 213.536,1566.196 211.927,1566.027 210.388,1566.527 209.186,1567.610 208.528,1569.087 208.528,1570.705 209.186,1572.183 210.388,1573.265 211.927,1573.765"/>
      <polygon points="393.501,1573.489 394.861,1572.704 395.784,1571.433 396.111,1569.896 395.784,1568.360 394.861,1567.089 393.501,1566.303 391.938,1566.139 390.444,1566.625 389.277,1567.676 388.638,1569.111 388.638,1570.682 389.277,1572.117 390.444,1573.168 391.938,1573.653"/>
      <polygon points="193.428,1573.267 194.705,1572.530 195.571,1571.338 195.877,1569.896 195.571,1568.455 194.705,1567.263 193.428,1566.526 191.963,1566.372 190.561,1566.827 189.466,1567.813 188.867,1569.159 188.867,1570.633 189.466,1571.979 190.561,1572.965 191.963,1573.421"/>
      <polygon points="413.428,1573.267 414.705,1572.530 415.571,1571.338 415.877,1569.896 415.571,1568.455 414.705,1567.263 413.428,1566.526 411.963,1566.372 410.561,1566.827 409.466,1567.813 408.867,1569.159 408.867,1570.633 409.466,1571.979 410.561,1572.965 411.963,1573.421"/>
      <polygon points="174.389,1572.474 175.304,1571.327 175.631,1569.896 175.304,1568.466 174.389,1567.318 173.067,1566.682 171.600,1566.682 170.278,1567.318 169.363,1568.466 169.036,1569.896 169.363,1571.327 170.278,1572.474 171.600,1573.111 173.067,1573.111"/>
      <polygon points="434.309,1572.374 435.188,1571.271 435.502,1569.896 435.188,1568.521 434.309,1567.419 433.038,1566.807 431.628,1566.807 430.358,1567.419 429.478,1568.521 429.164,1569.896 429.478,1571.271 430.358,1572.374 431.628,1572.986 433.038,1572.986"/>
      <polygon points="153.821,1572.051 154.652,1571.113 154.952,1569.896 154.652,1568.679 153.821,1567.741 152.649,1567.297 151.405,1567.448 150.373,1568.160 149.791,1569.270 149.791,1570.523 150.373,1571.632 151.405,1572.344 152.649,1572.495"/>
      <polygon points="453.493,1571.904 454.341,1571.055 454.652,1569.896 454.341,1568.737 453.493,1567.888 452.333,1567.578 451.174,1567.888 450.326,1568.737 450.015,1569.896 450.326,1571.055 451.174,1571.904 452.333,1572.215"/>
      <polygon points="133.333,1571.628 134.065,1570.896 134.333,1569.896 134.065,1568.896 133.333,1568.164 132.333,1567.896 131.333,1568.164 130.601,1568.896 130.333,1569.896 130.601,1570.896 131.333,1571.628 132.333,1571.896"/>
      <polygon points="473.333,1571.628 474.065,1570.896 474.333,1569.896 474.065,1568.896 473.333,1568.164 472.333,1567.896 471.333,1568.164 470.601,1568.896 470.333,1569.896 470.601,1570.896 471.333,1571.628 472.333,1571.896"/>
      <polygon points="294.546,1594.339 296.001,1593.240 296.961,1591.689 297.296,1589.896 296.961,1588.103 296.001,1586.553 294.546,1585.453 292.791,1584.954 290.975,1585.123 289.342,1585.936 288.114,1587.284 287.455,1588.984 287.455,1590.808 288.114,1592.509 289.342,1593.857 290.975,1594.670 292.791,1594.838"/>
      <polygon points="314.507,1594.261 315.937,1593.181 316.880,1591.658 317.210,1589.896 316.880,1588.135 315.937,1586.611 314.507,1585.531 312.783,1585.041 310.999,1585.206 309.395,1586.005 308.187,1587.329 307.540,1589.000 307.540,1590.792 308.187,1592.463 309.395,1593.788 310.999,1594.586 312.783,1594.752"/>
      <polygon points="274.427,1594.101 275.805,1593.061 276.713,1591.593 277.031,1589.896 276.713,1588.199 275.805,1586.732 274.427,1585.691 272.767,1585.219 271.048,1585.378 269.503,1586.148 268.340,1587.423 267.716,1589.033 267.716,1590.759 268.340,1592.369 269.503,1593.645 271.048,1594.414 272.767,1594.573"/>
      <polygon points="334.386,1594.018 335.736,1592.998 336.627,1591.560 336.938,1589.896 336.627,1588.233 335.736,1586.794 334.386,1585.774 332.758,1585.311 331.073,1585.467 329.558,1586.222 328.418,1587.472 327.807,1589.050 327.807,1590.742 328.418,1592.320 329.558,1593.571 331.073,1594.325 332.758,1594.481"/>
      <polygon points="354.022,1593.973 355.454,1593.016 356.410,1591.585 356.746,1589.896 356.410,1588.208 355.454,1586.776 354.022,1585.819 352.333,1585.483 350.645,1585.819 349.213,1586.776 348.257,1588.208 347.921,1589.896 348.257,1591.585 349.213,1593.016 350.645,1593.973 352.333,1594.309"/>
      <polygon points="254.022,1593.973 255.454,1593.016 256.410,1591.585 256.746,1589.896 256.410,1588.208 255.454,1586.776 254.022,1585.819 252.333,1585.483 250.645,1585.819 249.213,1586.776 248.257,1588.208 247.921,1589.896 248.257,1591.585 249.213,1593.016 250.645,1593.973 252.333,1594.309"/>
      <polygon points="233.945,1593.787 235.311,1592.874 236.224,1591.508 236.545,1589.896 236.224,1588.285 235.311,1586.918 233.945,1586.005 232.333,1585.685 230.722,1586.005 229.355,1586.918 228.443,1588.285 228.122,1589.896 228.443,1591.508 229.355,1592.874 230.722,1593.787 232.333,1594.108"/>
      <polygon points="373.905,1593.691 375.237,1592.800 376.128,1591.468 376.440,1589.896 376.128,1588.325 375.237,1586.992 373.905,1586.102 372.333,1585.789 370.762,1586.102 369.429,1586.992 368.539,1588.325 368.226,1589.896 368.539,1591.468 369.429,1592.800 370.762,1593.691 372.333,1594.003"/>
      <polygon points="213.536,1593.596 214.936,1592.787 215.887,1591.479 216.224,1589.896 215.887,1588.314 214.936,1587.005 213.536,1586.196 211.927,1586.027 210.388,1586.527 209.186,1587.610 208.528,1589.087 208.528,1590.705 209.186,1592.183 210.388,1593.265 211.927,1593.765"/>
      <polygon points="393.501,1593.489 394.861,1592.704 395.784,1591.433 396.111,1589.896 395.784,1588.360 394.861,1587.089 393.501,1586.303 391.938,1586.139 390.444,1586.625 389.277,1587.676 388.638,1589.111 388.638,1590.682 389.277,1592.117 390.444,1593.168 391.938,1593.653"/>
      <polygon points="193.428,1593.267 194.705,1592.530 195.571,1591.338 195.877,1589.896 195.571,1588.455 194.705,1587.263 193.428,1586.526 191.963,1586.372 190.561,1586.827 189.466,1587.813 188.867,1589.159 188.867,1590.633 189.466,1591.979 190.561,1592.965 191.963,1593.421"/>
      <polygon points="413.428,1593.267 414.705,1592.530 415.571,1591.338 415.877,1589.896 415.571,1588.455 414.705,1587.263 413.428,1586.526 411.963,1586.372 410.561,1586.827 409.466,1587.813 408.867,1589.159 408.867,1590.633 409.466,1591.979 410.561,1592.965 411.963,1593.421"/>
      <polygon points="174.389,1592.474 175.304,1591.327 175.631,1589.896 175.304,1588.466 174.389,1587.318 173.067,1586.682 171.600,1586.682 170.278,1587.318 169.363,1588.466 169.036,1589.896 169.363,1591.327 170.278,1592.474 171.600,1593.111 173.067,1593.111"/>
      <polygon points="434.309,1592.374 435.188,1591.271 435.502,1589.896 435.188,1588.521 434.309,1587.419 433.038,1586.807 431.628,1586.807 430.358,1587.419 429.478,1588.521 429.164,1589.896 429.478,1591.271 430.358,1592.374 431.628,1592.986 433.038,1592.986"/>
      <polygon points="153.821,1592.051 154.652,1591.113 154.952,1589.896 154.652,1588.679 153.821,1587.741 152.649,1587.297 151.405,1587.448 150.373,1588.160 149.791,1589.270 149.791,1590.523 150.373,1591.632 151.405,1592.344 152.649,1592.495"/>
      <polygon points="453.493,1591.904 454.341,1591.055 454.652,1589.896 454.341,1588.737 453.493,1587.888 452.333,1587.578 451.174,1587.888 450.326,1588.737 450.015,1589.896 450.326,1591.055 451.174,1591.904 452.333,1592.215"/>
      <polygon points="473.333,1591.628 474.065,1590.896 474.333,1589.896 474.065,1588.896 473.333,1588.164 472.333,1587.896 471.333,1588.164 470.601,1588.896 470.333,1589.896 470.601,1590.896 471.333,1591.628 472.333,1591.896"/>
      <polygon points="133.333,1591.628 134.065,1590.896 134.333,1589.896 134.065,1588.896 133.333,1588.164 132.333,1587.896 131.333,1588.164 130.601,1588.896 130.333,1589.896 130.601,1590.896 131.333,1591.628 132.333,1591.896"/>
      <polygon points="294.546,1614.339 296.001,1613.240 296.961,1611.689 297.296,1609.896 296.961,1608.103 296.001,1606.553 294.546,1605.453 292.791,1604.954 290.975,1605.123 289.342,1605.936 288.114,1607.284 287.455,1608.984 287.455,1610.808 288.114,1612.509 289.342,1613.857 290.975,1614.670 292.791,1614.838"/>
      <polygon points="314.507,1614.261 315.937,1613.181 316.880,1611.658 317.210,1609.896 316.880,1608.135 315.937,1606.611 314.507,1605.531 312.783,1605.041 310.999,1605.206 309.395,1606.005 308.187,1607.329 307.540,1609.000 307.540,1610.792 308.187,1612.463 309.395,1613.788 310.999,1614.586 312.783,1614.752"/>
      <polygon points="274.427,1614.101 275.805,1613.061 276.713,1611.593 277.031,1609.896 276.713,1608.199 275.805,1606.732 274.427,1605.691 272.767,1605.219 271.048,1605.378 269.503,1606.148 268.340,1607.423 267.716,1609.033 267.716,1610.759 268.340,1612.369 269.503,1613.645 271.048,1614.414 272.767,1614.573"/>
      <polygon points="334.386,1614.018 335.736,1612.998 336.627,1611.560 336.938,1609.896 336.627,1608.233 335.736,1606.794 334.386,1605.774 332.758,1605.311 331.073,1605.467 329.558,1606.222 328.418,1607.472 327.807,1609.050 327.807,1610.742 328.418,1612.320 329.558,1613.571 331.073,1614.325 332.758,1614.481"/>
      <polygon points="354.022,1613.973 355.454,1613.016 356.410,1611.585 356.746,1609.896 356.410,1608.208 355.454,1606.776 354.022,1605.819 352.333,1605.483 350.645,1605.819 349.213,1606.776 348.257,1608.208 347.921,1609.896 348.257,1611.585 349.213,1613.016 350.645,1613.973 352.333,1614.309"/>
      <polygon points="254.022,1613.973 255.454,1613.016 256.410,1611.585 256.746,1609.896 256.410,1608.208 255.454,1606.776 254.022,1605.819 252.333,1605.483 250.645,1605.819 249.213,1606.776 248.257,1608.208 247.921,1609.896 248.257,1611.585 249.213,1613.016 250.645,1613.973 252.333,1614.309"/>
      <polygon points="233.945,1613.787 235.311,1612.874 236.224,1611.508 236.545,1609.896 236.224,1608.285 235.311,1606.918 233.945,1606.005 232.333,1605.685 230.722,1606.005 229.355,1606.918 228.443,1608.285 228.122,1609.896 228.443,1611.508 229.355,1612.874 230.722,1613.787 232.333,1614.108"/>
      <polygon points="373.905,1613.691 375.237,1612.800 376.128,1611.468 376.440,1609.896 376.128,1608.325 375.237,1606.992 373.905,1606.102 372.333,1605.789 370.762,1606.102 369.429,1606.992 368.539,1608.325 368.226,1609.896 368.539,1611.468 369.429,1612.800 370.762,1613.691 372.333,1614.003"/>
      <polygon points="213.536,1613.596 214.936,1612.787 215.887,1611.479 216.224,1609.896 215.887,1608.314 214.936,1607.005 213.536,1606.196 211.927,1606.027 210.388,1606.527 209.186,1607.610 208.528,1609.087 208.528,1610.705 209.186,1612.183 210.388,1613.265 211.927,1613.765"/>
      <polygon points="393.501,1613.489 394.861,1612.704 395.784,1611.433 396.111,1609.896 395.784,1608.360 394.861,1607.089 393.501,1606.303 391.938,1606.139 390.444,1606.625 389.277,1607.676 388.638,1609.111 388.638,1610.682 389.277,1612.117 390.444,1613.168 391.938,1613.653"/>
      <polygon points="193.428,1613.267 194.705,1612.530 195.571,1611.338 195.877,1609.896 195.571,1608.455 194.705,1607.263 193.428,1606.526 191.963,1606.372 190.561,1606.827 189.466,1607.813 188.867,1609.159 188.867,1610.633 189.466,1611.979 190.561,1612.965 191.963,1613.421"/>
      <polygon points="413.428,1613.267 414.705,1612.530 415.571,1611.338 415.877,1609.896 415.571,1608.455 414.705,1607.263 413.428,1606.526 411.963,1606.372 410.561,1606.827 409.466,1607.813 408.867,1609.159 408.867,1610.633 409.466,1611.979 410.561,1612.965 411.963,1613.421"/>
      <polygon points="174.389,1612.474 175.304,1611.327 175.631,1609.896 175.304,1608.466 174.389,1607.318 173.067,1606.682 171.600,1606.682 170.278,1607.318 169.363,1608.466 169.036,1609.896 169.363,1611.327 170.278,1612.474 171.600,1613.111 173.067,1613.111"/>
      <polygon points="434.309,1612.374 435.188,1611.271 435.502,1609.896 435.188,1608.521 434.309,1607.419 433.038,1606.807 431.628,1606.807 430.358,1607.419 429.478,1608.521 429.164,1609.896 429.478,1611.271 430.358,1612.374 431.628,1612.986 433.038,1612.986"/>
      <polygon points="153.821,1612.051 154.652,1611.113 154.952,1609.896 154.652,1608.679 153.821,1607.741 152.649,1607.297 151.405,1607.448 150.373,1608.160 149.791,1609.270 149.791,1610.523 150.373,1611.632 151.405,1612.344 152.649,1612.495"/>
      <polygon points="453.493,1611.904 454.341,1611.055 454.652,1609.896 454.341,1608.737 453.493,1607.888 452.333,1607.578 451.174,1607.888 450.326,1608.737 450.015,1609.896 450.326,1611.055 451.174,1611.904 452.333,1612.215"/>
      <polygon points="133.333,1611.628 134.065,1610.896 134.333,1609.896 134.065,1608.896 133.333,1608.164 132.333,1607.896 131.333,1608.164 130.601,1608.896 130.333,1609.896 130.601,1610.896 131.333,1611.628 132.333,1611.896"/>
      <polygon points="473.333,1611.628 474.065,1610.896 474.333,1609.896 474.065,1608.896 473.333,1608.164 472.333,1607.896 471.333,1608.164 470.601,1608.896 470.333,1609.896 470.601,1610.896 471.333,1611.628 472.333,1611.896"/>
      <polygon points="294.546,1634.339 296.001,1633.240 296.961,1631.689 297.296,1629.896 296.961,1628.103 296.001,1626.553 294.546,1625.453 292.791,1624.954 290.975,1625.123 289.342,1625.936 288.114,1627.284 287.455,1628.984 287.455,1630.808 288.114,1632.509 289.342,1633.857 290.975,1634.670 292.791,1634.838"/>
      <polygon points="314.507,1634.261 315.937,1633.181 316.880,1631.658 317.210,1629.896 316.880,1628.135 315.937,1626.611 314.507,1625.531 312.783,1625.041 310.999,1625.206 309.395,1626.005 308.187,1627.329 307.540,1629.000 307.540,1630.792 308.187,1632.463 309.395,1633.788 310.999,1634.586 312.783,1634.752"/>
      <polygon points="274.427,1634.101 275.805,1633.061 276.713,1631.593 277.031,1629.896 276.713,1628.199 275.805,1626.732 274.427,1625.691 272.767,1625.219 271.048,1625.378 269.503,1626.148 268.340,1627.423 267.716,1629.033 267.716,1630.759 268.340,1632.369 269.503,1633.645 271.048,1634.414 272.767,1634.573"/>
      <polygon points="334.386,1634.018 335.736,1632.998 336.627,1631.560 336.938,1629.896 336.627,1628.233 335.736,1626.794 334.386,1625.774 332.758,1625.311 331.073,1625.467 329.558,1626.222 328.418,1627.472 327.807,1629.050 327.807,1630.742 328.418,1632.320 329.558,1633.571 331.073,1634.325 332.758,1634.481"/>
      <polygon points="254.022,1633.973 255.454,1633.016 256.410,1631.585 256.746,1629.896 256.410,1628.208 255.454,1626.776 254.022,1625.819 252.333,1625.483 250.645,1625.819 249.213,1626.776 248.257,1628.208 247.921,1629.896 248.257,1631.585 249.213,1633.016 250.645,1633.973 252.333,1634.309"/>
      <polygon points="354.022,1633.973 355.454,1633.016 356.410,1631.585 356.746,1629.896 356.410,1628.208 355.454,1626.776 354.022,1625.819 352.333,1625.483 350.645,1625.819 349.213,1626.776 348.257,1628.208 347.921,1629.896 348.257,1631.585 349.213,1633.016 350.645,1633.973 352.333,1634.309"/>
      <polygon points="233.945,1633.787 235.311,1632.874 236.224,1631.508 236.545,1629.896 236.224,1628.285 235.311,1626.918 233.945,1626.005 232.333,1625.685 230.722,1626.005 229.355,1626.918 228.443,1628.285 228.122,1629.896 228.443,1631.508 229.355,1632.874 230.722,1633.787 232.333,1634.108"/>
      <polygon points="373.905,1633.691 375.237,1632.800 376.128,1631.468 376.440,1629.896 376.128,1628.325 375.237,1626.992 373.905,1626.102 372.333,1625.789 370.762,1626.102 369.429,1626.992 368.539,1628.325 368.226,1629.896 368.539,1631.468 369.429,1632.800 370.762,1633.691 372.333,1634.003"/>
      <polygon points="213.536,1633.596 214.936,1632.787 215.887,1631.479 216.224,1629.896 215.887,1628.314 214.936,1627.005 213.536,1626.196 211.927,1626.027 210.388,1626.527 209.186,1627.610 208.528,1629.087 208.528,1630.705 209.186,1632.183 210.388,1633.265 211.927,1633.765"/>
      <polygon points="393.501,1633.489 394.861,1632.704 395.784,1631.433 396.111,1629.896 395.784,1628.360 394.861,1627.089 393.501,1626.303 391.938,1626.139 390.444,1626.625 389.277,1627.676 388.638,1629.111 388.638,1630.682 389.277,1632.117 390.444,1633.168 391.938,1633.653"/>
      <polygon points="193.428,1633.267 194.705,1632.530 195.571,1631.338 195.877,1629.896 195.571,1628.455 194.705,1627.263 193.428,1626.526 191.963,1626.372 190.561,1626.827 189.466,1627.813 188.867,1629.159 188.867,1630.633 189.466,1631.979 190.561,1632.965 191.963,1633.421"/>
      <polygon points="413.428,1633.267 414.705,1632.530 415.571,1631.338 415.877,1629.896 415.571,1628.455 414.705,1627.263 413.428,1626.526 411.963,1626.372 410.561,1626.827 409.466,1627.813 408.867,1629.159 408.867,1630.633 409.466,1631.979 410.561,1632.965 411.963,1633.421"/>
      <polygon points="174.389,1632.474 175.304,1631.327 175.631,1629.896 175.304,1628.466 174.389,1627.318 173.067,1626.682 171.600,1626.682 170.278,1627.318 169.363,1628.466 169.036,1629.896 169.363,1631.327 170.278,1632.474 171.600,1633.111 173.067,1633.111"/>
      <polygon points="434.309,1632.374 435.188,1631.271 435.502,1629.896 435.188,1628.521 434.309,1627.419 433.038,1626.807 431.628,1626.807 430.358,1627.419 429.478,1628.521 429.164,1629.896 429.478,1631.271 430.358,1632.374 431.628,1632.986 433.038,1632.986"/>
      <polygon points="153.821,1632.051 154.652,1631.113 154.952,1629.896 154.652,1628.679 153.821,1627.741 152.649,1627.297 151.405,1627.448 150.373,1628.160 149.791,1629.270 149.791,1630.523 150.373,1631.632 151.405,1632.344 152.649,1632.495"/>
      <polygon points="453.493,1631.904 454.341,1631.055 454.652,1629.896 454.341,1628.737 453.493,1627.888 452.333,1627.578 451.174,1627.888 450.326,1628.737 450.015,1629.896 450.326,1631.055 451.174,1631.904 452.333,1632.215"/>
      <polygon points="473.333,1631.628 474.065,1630.896 474.333,1629.896 474.065,1628.896 473.333,1628.164 472.333,1627.896 471.333,1628.164 470.601,1628.896 470.333,1629.896 470.601,1630.896 471.333,1631.628 472.333,1631.896"/>
      <polygon points="133.333,1631.628 134.065,1630.896 134.333,1629.896 134.065,1628.896 133.333,1628.164 132.333,1627.896 131.333,1628.164 130.601,1628.896 130.333,1629.896 130.601,1630.896 131.333,1631.628 132.333,1631.896"/>
      <polygon points="294.546,1654.339 296.001,1653.240 296.961,1651.689 297.296,1649.896 296.961,1648.103 296.001,1646.553 294.546,1645.453 292.791,1644.954 290.975,1645.123 289.342,1645.936 288.114,1647.284 287.455,1648.984 287.455,1650.808 288.114,1652.509 289.342,1653.857 290.975,1654.670 292.791,1654.838"/>
      <polygon points="314.507,1654.261 315.937,1653.181 316.880,1651.658 317.210,1649.896 316.880,1648.135 315.937,1646.611 314.507,1645.531 312.783,1645.041 310.999,1645.206 309.395,1646.005 308.187,1647.329 307.540,1649.000 307.540,1650.792 308.187,1652.463 309.395,1653.788 310.999,1654.586 312.783,1654.752"/>
      <polygon points="274.427,1654.101 275.805,1653.061 276.713,1651.593 277.031,1649.896 276.713,1648.199 275.805,1646.732 274.427,1645.691 272.767,1645.219 271.048,1645.378 269.503,1646.148 268.340,1647.423 267.716,1649.033 267.716,1650.759 268.340,1652.369 269.503,1653.645 271.048,1654.414 272.767,1654.573"/>
      <polygon points="334.386,1654.018 335.736,1652.998 336.627,1651.560 336.938,1649.896 336.627,1648.233 335.736,1646.794 334.386,1645.774 332.758,1645.311 331.073,1645.467 329.558,1646.222 328.418,1647.472 327.807,1649.050 327.807,1650.742 328.418,1652.320 329.558,1653.571 331.073,1654.325 332.758,1654.481"/>
      <polygon points="354.022,1653.973 355.454,1653.016 356.410,1651.585 356.746,1649.896 356.410,1648.208 355.454,1646.776 354.022,1645.819 352.333,1645.483 350.645,1645.819 349.213,1646.776 348.257,1648.208 347.921,1649.896 348.257,1651.585 349.213,1653.016 350.645,1653.973 352.333,1654.309"/>
      <polygon points="254.022,1653.973 255.454,1653.016 256.410,1651.585 256.746,1649.896 256.410,1648.208 255.454,1646.776 254.022,1645.819 252.333,1645.483 250.645,1645.819 249.213,1646.776 248.257,1648.208 247.921,1649.896 248.257,1651.585 249.213,1653.016 250.645,1653.973 252.333,1654.309"/>
      <polygon points="233.945,1653.787 235.311,1652.874 236.224,1651.508 236.545,1649.896 236.224,1648.285 235.311,1646.918 233.945,1646.005 232.333,1645.685 230.722,1646.005 229.355,1646.918 228.443,1648.285 228.122,1649.896 228.443,1651.508 229.355,1652.874 230.722,1653.787 232.333,1654.108"/>
      <polygon points="373.905,1653.691 375.237,1652.800 376.128,1651.468 376.440,1649.896 376.128,1648.325 375.237,1646.992 373.905,1646.102 372.333,1645.789 370.762,1646.102 369.429,1646.992 368.539,1648.325 368.226,1649.896 368.539,1651.468 369.429,1652.800 370.762,1653.691 372.333,1654.003"/>
      <polygon points="213.536,1653.596 214.936,1652.787 215.887,1651.479 216.224,1649.896 215.887,1648.314 214.936,1647.005 213.536,1646.196 211.927,1646.027 210.388,1646.527 209.186,1647.610 208.528,1649.087 208.528,1650.705 209.186,1652.183 210.388,1653.265 211.927,1653.765"/>
      <polygon points="393.501,1653.489 394.861,1652.704 395.784,1651.433 396.111,1649.896 395.784,1648.360 394.861,1647.089 393.501,1646.303 391.938,1646.139 390.444,1646.625 389.277,1647.676 388.638,1649.111 388.638,1650.682 389.277,1652.117 390.444,1653.168 391.938,1653.653"/>
      <polygon points="413.428,1653.267 414.705,1652.530 415.571,1651.338 415.877,1649.896 415.571,1648.455 414.705,1647.263 413.428,1646.526 411.963,1646.372 410.561,1646.827 409.466,1647.813 408.867,1649.159 408.867,1650.633 409.466,1651.979 410.561,1652.965 411.963,1653.421"/>
      <polygon points="193.428,1653.267 194.705,1652.530 195.571,1651.338 195.877,1649.896 195.571,1648.455 194.705,1647.263 193.428,1646.526 191.963,1646.372 190.561,1646.827 189.466,1647.813 188.867,1649.159 188.867,1650.633 189.466,1651.979 190.561,1652.965 191.963,1653.421"/>
      <polygon points="174.389,1652.474 175.304,1651.327 175.631,1649.896 175.304,1648.466 174.389,1647.318 173.067,1646.682 171.600,1646.682 170.278,1647.318 169.363,1648.466 169.036,1649.896 169.363,1651.327 170.278,1652.474 171.600,1653.111 173.067,1653.111"/>
      <polygon points="434.309,1652.374 435.188,1651.271 435.502,1649.896 435.188,1648.521 434.309,1647.419 433.038,1646.807 431.628,1646.807 430.358,1647.419 429.478,1648.521 429.164,1649.896 429.478,1651.271 430.358,1652.374 431.628,1652.986 433.038,1652.986"/>
      <polygon points="153.821,1652.051 154.652,1651.113 154.952,1649.896 154.652,1648.679 153.821,1647.741 152.649,1647.297 151.405,1647.448 150.373,1648.160 149.791,1649.270 149.791,1650.523 150.373,1651.632 151.405,1652.344 152.649,1652.495"/>
      <polygon points="453.493,1651.904 454.341,1651.055 454.652,1649.896 454.341,1648.737 453.493,1647.888 452.333,1647.578 451.174,1647.888 450.326,1648.737 450.015,1649.896 450.326,1651.055 451.174,1651.904 452.333,1652.215"/>
      <polygon points="133.333,1651.628 134.065,1650.896 134.333,1649.896 134.065,1648.896 133.333,1648.164 132.333,1647.896 131.333,1648.164 130.601,1648.896 130.333,1649.896 130.601,1650.896 131.333,1651.628 132.333,1651.896"/>
      <polygon points="473.333,1651.628 474.065,1650.896 474.333,1649.896 474.065,1648.896 473.333,1648.164 472.333,1647.896 471.333,1648.164 470.601,1648.896 470.333,1649.896 470.601,1650.896 471.333,1651.628 472.333,1651.896"/>
      <polygon points="294.546,1674.339 296.001,1673.240 296.961,1671.689 297.296,1669.896 296.961,1668.103 296.001,1666.553 294.546,1665.453 292.791,1664.954 290.975,1665.123 289.342,1665.936 288.114,1667.284 287.455,1668.984 287.455,1670.808 288.114,1672.509 289.342,1673.857 290.975,1674.670 292.791,1674.838"/>
      <polygon points="314.507,1674.261 315.937,1673.181 316.880,1671.658 317.210,1669.896 316.880,1668.135 315.937,1666.611 314.507,1665.531 312.783,1665.041 310.999,1665.206 309.395,1666.005 308.187,1667.329 307.540,1669.000 307.540,1670.792 308.187,1672.463 309.395,1673.788 310.999,1674.586 312.783,1674.752"/>
      <polygon points="274.427,1674.101 275.805,1673.061 276.713,1671.593 277.031,1669.896 276.713,1668.199 275.805,1666.732 274.427,1665.691 272.767,1665.219 271.048,1665.378 269.503,1666.148 268.340,1667.423 267.716,1669.033 267.716,1670.759 268.340,1672.369 269.503,1673.645 271.048,1674.414 272.767,1674.573"/>
      <polygon points="334.386,1674.018 335.736,1672.998 336.627,1671.560 336.938,1669.896 336.627,1668.233 335.736,1666.794 334.386,1665.774 332.758,1665.311 331.073,1665.467 329.558,1666.222 328.418,1667.472 327.807,1669.050 327.807,1670.742 328.418,1672.320 329.558,1673.571 331.073,1674.325 332.758,1674.481"/>
      <polygon points="354.022,1673.973 355.454,1673.016 356.410,1671.585 356.746,1669.896 356.410,1668.208 355.454,1666.776 354.022,1665.819 352.333,1665.483 350.645,1665.819 349.213,1666.776 348.257,1668.208 347.921,1669.896 348.257,1671.585 349.213,1673.016 350.645,1673.973 352.333,1674.309"/>
      <polygon points="254.022,1673.973 255.454,1673.016 256.410,1671.585 256.746,1669.896 256.410,1668.208 255.454,1666.776 254.022,1665.819 252.333,1665.483 250.645,1665.819 249.213,1666.776 248.257,1668.208 247.921,1669.896 248.257,1671.585 249.213,1673.016 250.645,1673.973 252.333,1674.309"/>
      <polygon points="233.945,1673.787 235.311,1672.874 236.224,1671.508 236.545,1669.896 236.224,1668.285 235.311,1666.918 233.945,1666.005 232.333,1665.685 230.722,1666.005 229.355,1666.918 228.443,1668.285 228.122,1669.896 228.443,1671.508 229.355,1672.874 230.722,1673.787 232.333,1674.108"/>
      <polygon points="373.905,1673.691 375.237,1672.800 376.128,1671.468 376.440,1669.896 376.128,1668.325 375.237,1666.992 373.905,1666.102 372.333,1665.789 370.762,1666.102 369.429,1666.992 368.539,1668.325 368.226,1669.896 368.539,1671.468 369.429,1672.800 370.762,1673.691 372.333,1674.003"/>
      <polygon points="213.536,1673.596 214.936,1672.787 215.887,1671.479 216.224,1669.896 215.887,1668.314 214.936,1667.005 213.536,1666.196 211.927,1666.027 210.388,1666.527 209.186,1667.610 208.528,1669.087 208.528,1670.705 209.186,1672.183 210.388,1673.265 211.927,1673.765"/>
      <polygon points="393.501,1673.489 394.861,1672.704 395.784,1671.433 396.111,1669.896 395.784,1668.360 394.861,1667.089 393.501,1666.303 391.938,1666.139 390.444,1666.625 389.277,1667.676 388.638,1669.111 388.638,1670.682 389.277,1672.117 390.444,1673.168 391.938,1673.653"/>
      <polygon points="413.428,1673.267 414.705,1672.530 415.571,1671.338 415.877,1669.896 415.571,1668.455 414.705,1667.263 413.428,1666.526 411.963,1666.372 410.561,1666.827 409.466,1667.813 408.867,1669.159 408.867,1670.633 409.466,1671.979 410.561,1672.965 411.963,1673.421"/>
      <polygon points="193.428,1673.267 194.705,1672.530 195.571,1671.338 195.877,1669.896 195.571,1668.455 194.705,1667.263 193.428,1666.526 191.963,1666.372 190.561,1666.827 189.466,1667.813 188.867,1669.159 188.867,1670.633 189.466,1671.979 190.561,1672.965 191.963,1673.421"/>
      <polygon points="174.389,1672.474 175.304,1671.327 175.631,1669.896 175.304,1668.466 174.389,1667.318 173.067,1666.682 171.600,1666.682 170.278,1667.318 169.363,1668.466 169.036,1669.896 169.363,1671.327 170.278,1672.474 171.600,1673.111 173.067,1673.111"/>
      <polygon points="434.309,1672.374 435.188,1671.271 435.502,1669.896 435.188,1668.521 434.309,1667.419 433.038,1666.807 431.628,1666.807 430.358,1667.419 429.478,1668.521 429.164,1669.896 429.478,1671.271 430.358,1672.374 431.628,1672.986 433.038,1672.986"/>
      <polygon points="153.821,1672.051 154.652,1671.113 154.952,1669.896 154.652,1668.679 153.821,1667.741 152.649,1667.297 151.405,1667.448 150.373,1668.160 149.791,1669.270 149.791,1670.523 150.373,1671.632 151.405,1672.344 152.649,1672.495"/>
      <polygon points="453.493,1671.904 454.341,1671.055 454.652,1669.896 454.341,1668.737 453.493,1667.888 452.333,1667.578 451.174,1667.888 450.326,1668.737 450.015,1669.896 450.326,1671.055 451.174,1671.904 452.333,1672.215"/>
      <polygon points="473.333,1671.628 474.065,1670.896 474.333,1669.896 474.065,1668.896 473.333,1668.164 472.333,1667.896 471.333,1668.164 470.601,1668.896 470.333,1669.896 470.601,1670.896 471.333,1671.628 472.333,1671.896"/>
      <polygon points="133.333,1671.628 134.065,1670.896 134.333,1669.896 134.065,1668.896 133.333,1668.164 132.333,1667.896 131.333,1668.164 130.601,1668.896 130.333,1669.896 130.601,1670.896 131.333,1671.628 132.333,1671.896"/>
    </g>
    <g stroke="#EF6C00" stroke-width="0.4" fill="none">
    </g>
  </g>
  <g stroke="#000000" stroke-width="0.4">
    <line x1="500.000" y1="1000.000" x2="1500.000" y2="1000.000"/>
  </g>
  <g stroke="#000000" stroke-width="0.4">
    <line x1="1000.000" y1="500.000" x2="1000.000" y2="1500.000"/>
  </g>
  <circle cx="1000.000" cy="1000.000" r="1000.000" stroke="red" stroke-width="1" fill="none"/>
  </g>
</svg>
