<?xml version="1.0" encoding="UTF-8"?>
<svg xmlns="http://www.w3.org/2000/svg" version="1.1" width="2000" height="2000">
  <g fill="none" stroke-linecap="round" stroke-linejoin="round">
  <text x="10" y="20" font-size="24" fill="#555">Layer 287 Z=69.400 mm</text>
  <g transform="translate(700.000,-602.229)">
    <g stroke="#2E7D32" stroke-width="0.4">
      <line x1="305.689" y1="1630.070" x2="294.311" y2="1630.070"/>
      <line x1="305.689" y1="1631.070" x2="294.311" y2="1631.070"/>
      <line x1="305.689" y1="1632.070" x2="294.311" y2="1632.070"/>
      <line x1="305.689" y1="1633.070" x2="294.311" y2="1633.070"/>
      <line x1="305.689" y1="1634.070" x2="294.311" y2="1634.070"/>
      <line x1="305.689" y1="1635.070" x2="294.311" y2="1635.070"/>
      <line x1="305.689" y1="1636.070" x2="294.311" y2="1636.070"/>
      <line x1="305.689" y1="1637.070" x2="294.311" y2="1637.070"/>
      <line x1="305.689" y1="1638.070" x2="294.311" y2="1638.070"/>
      <line x1="305.689" y1="1639.070" x2="294.311" y2="1639.070"/>
      <line x1="305.689" y1="1640.070" x2="294.311" y2="1640.070"/>
      <line x1="305.689" y1="1641.070" x2="294.311" y2="1641.070"/>
      <line x1="305.689" y1="1642.070" x2="294.311" y2="1642.070"/>
      <line x1="305.689" y1="1643.070" x2="294.311" y2="1643.070"/>
      <line x1="305.689" y1="1644.070" x2="294.311" y2="1644.070"/>
      <line x1="305.689" y1="1645.070" x2="294.311" y2="1645.070"/>
      <line x1="305.689" y1="1646.070" x2="294.311" y2="1646.070"/>
      <line x1="305.689" y1="1647.070" x2="294.311" y2="1647.070"/>
      <line x1="305.689" y1="1648.070" x2="294.311" y2="1648.070"/>
      <line x1="305.689" y1="1649.070" x2="294.311" y2="1649.070"/>
      <line x1="305.689" y1="1650.070" x2="294.311" y2="1650.070"/>
      <line x1="305.689" y1="1651.070" x2="294.311" y2="1651.070"/>
      <line x1="305.689" y1="1652.070" x2="294.311" y2="1652.070"/>
      <line x1="305.689" y1="1653.070" x2="294.311" y2="1653.070"/>
      <line x1="305.689" y1="1654.070" x2="294.311" y2="1654.070"/>
      <line x1="305.689" y1="1655.070" x2="294.311" y2="1655.070"/>
      <line x1="305.689" y1="1656.070" x2="294.311" y2="1656.070"/>
      <line x1="305.689" y1="1657.070" x2="294.311" y2="1657.070"/>
      <line x1="305.689" y1="1658.070" x2="294.311" y2="1658.070"/>
      <line x1="305.689" y1="1659.070" x2="294.311" y2="1659.070"/>
      <line x1="305.689" y1="1660.070" x2="294.311" y2="1660.070"/>
      <line x1="305.689" y1="1661.070" x2="294.311" y2="1661.070"/>
      <line x1="305.689" y1="1662.070" x2="294.311" y2="1662.070"/>
      <line x1="305.689" y1="1663.070" x2="294.311" y2="1663.070"/>
      <line x1="305.689" y1="1664.070" x2="294.311" y2="1664.070"/>
      <line x1="305.689" y1="1665.070" x2="294.311" y2="1665.070"/>
      <line x1="305.689" y1="1666.070" x2="294.311" y2="1666.070"/>
      <line x1="305.689" y1="1667.070" x2="294.311" y2="1667.070"/>
      <line x1="305.689" y1="1668.070" x2="294.311" y2="1668.070"/>
      <line x1="305.689" y1="1669.070" x2="294.311" y2="1669.070"/>
      <line x1="305.689" y1="1670.070" x2="294.311" y2="1670.070"/>
      <line x1="305.689" y1="1671.070" x2="294.311" y2="1671.070"/>
      <line x1="305.689" y1="1672.070" x2="294.311" y2="1672.070"/>
      <line x1="305.689" y1="1673.070" x2="294.311" y2="1673.070"/>
      <line x1="305.689" y1="1674.070" x2="294.311" y2="1674.070"/>
      <line x1="305.689" y1="1675.070" x2="294.311" y2="1675.070"/>
      <line x1="305.689" y1="1676.070" x2="294.311" y2="1676.070"/>
      <line x1="305.689" y1="1677.070" x2="294.311" y2="1677.070"/>
      <line x1="305.689" y1="1678.070" x2="294.311" y2="1678.070"/>
      <line x1="305.689" y1="1679.070" x2="294.311" y2="1679.070"/>
      <line x1="305.689" y1="1580.070" x2="294.311" y2="1580.070"/>
      <line x1="305.689" y1="1581.070" x2="294.311" y2="1581.070"/>
      <line x1="305.689" y1="1582.070" x2="294.311" y2="1582.070"/>
      <line x1="305.689" y1="1583.070" x2="294.311" y2="1583.070"/>
      <line x1="305.689" y1="1584.070" x2="294.311" y2="1584.070"/>
      <line x1="305.689" y1="1585.070" x2="294.311" y2="1585.070"/>
      <line x1="305.689" y1="1586.070" x2="294.311" y2="1586.070"/>
      <line x1="305.689" y1="1587.070" x2="294.311" y2="1587.070"/>
      <line x1="305.689" y1="1588.070" x2="294.311" y2="1588.070"/>
      <line x1="305.689" y1="1589.070" x2="294.311" y2="1589.070"/>
      <line x1="305.689" y1="1590.070" x2="294.311" y2="1590.070"/>
      <line x1="305.689" y1="1591.070" x2="294.311" y2="1591.070"/>
      <line x1="305.689" y1="1592.070" x2="294.311" y2="1592.070"/>
      <line x1="305.689" y1="1593.070" x2="294.311" y2="1593.070"/>
      <line x1="305.689" y1="1594.070" x2="294.311" y2="1594.070"/>
      <line x1="305.689" y1="1595.070" x2="294.311" y2="1595.070"/>
      <line x1="305.689" y1="1596.070" x2="294.311" y2="1596.070"/>
      <line x1="305.689" y1="1597.070" x2="294.311" y2="1597.070"/>
      <line x1="305.689" y1="1598.070" x2="294.311" y2="1598.070"/>
      <line x1="305.689" y1="1599.070" x2="294.311" y2="1599.070"/>
      <line x1="305.689" y1="1600.070" x2="294.311" y2="1600.070"/>
      <line x1="305.689" y1="1601.070" x2="294.311" y2="1601.070"/>
      <line x1="305.689" y1="1602.070" x2="294.311" y2="1602.070"/>
      <line x1="305.689" y1="1603.070" x2="294.311" y2="1603.070"/>
      <line x1="305.689" y1="1604.070" x2="294.311" y2="1604.070"/>
      <line x1="305.689" y1="1605.070" x2="294.311" y2="1605.070"/>
      <line x1="305.689" y1="1606.070" x2="294.311" y2="1606.070"/>
      <line x1="305.689" y1="1607.070" x2="294.311" y2="1607.070"/>
      <line x1="305.689" y1="1608.070" x2="294.311" y2="1608.070"/>
      <line x1="305.689" y1="1609.070" x2="294.311" y2="1609.070"/>
      <line x1="305.689" y1="1610.070" x2="294.311" y2="1610.070"/>
      <line x1="305.689" y1="1611.070" x2="294.311" y2="1611.070"/>
      <line x1="305.689" y1="1612.070" x2="294.311" y2="1612.070"/>
      <line x1="305.689" y1="1613.070" x2="294.311" y2="1613.070"/>
      <line x1="305.689" y1="1614.070" x2="294.311" y2="1614.070"/>
      <line x1="305.689" y1="1615.070" x2="294.311" y2="1615.070"/>
      <line x1="305.689" y1="1616.070" x2="294.311" y2="1616.070"/>
      <line x1="305.689" y1="1617.070" x2="294.311" y2="1617.070"/>
      <line x1="305.689" y1="1618.070" x2="294.311" y2="1618.070"/>
      <line x1="305.689" y1="1619.070" x2="294.311" y2="1619.070"/>
      <line x1="305.689" y1="1620.070" x2="294.311" y2="1620.070"/>
      <line x1="305.689" y1="1621.070" x2="294.311" y2="1621.070"/>
      <line x1="305.689" y1="1622.070" x2="294.311" y2="1622.070"/>
      <line x1="305.689" y1="1623.070" x2="294.311" y2="1623.070"/>
      <line x1="305.689" y1="1624.070" x2="294.311" y2="1624.070"/>
      <line x1="305.689" y1="1625.070" x2="294.311" y2="1625.070"/>
      <line x1="305.689" y1="1626.070" x2="294.311" y2="1626.070"/>
      <line x1="305.689" y1="1627.070" x2="294.311" y2="1627.070"/>
      <line x1="305.689" y1="1628.070" x2="294.311" y2="1628.070"/>
      <line x1="305.689" y1="1629.070" x2="294.311" y2="1629.070"/>
      <line x1="305.689" y1="1529.070" x2="294.311" y2="1529.070"/>
      <line x1="305.689" y1="1530.070" x2="294.311" y2="1530.070"/>
      <line x1="305.689" y1="1531.070" x2="294.311" y2="1531.070"/>
      <line x1="305.689" y1="1532.070" x2="294.311" y2="1532.070"/>
      <line x1="305.689" y1="1533.070" x2="294.311" y2="1533.070"/>
      <line x1="305.689" y1="1534.070" x2="294.311" y2="1534.070"/>
      <line x1="305.689" y1="1535.070" x2="294.311" y2="1535.070"/>
      <line x1="305.689" y1="1536.070" x2="294.311" y2="1536.070"/>
      <line x1="305.689" y1="1537.070" x2="294.311" y2="1537.070"/>
      <line x1="305.689" y1="1538.070" x2="294.311" y2="1538.070"/>
      <line x1="305.689" y1="1539.070" x2="294.311" y2="1539.070"/>
      <line x1="305.689" y1="1540.070" x2="294.311" y2="1540.070"/>
      <line x1="305.689" y1="1541.070" x2="294.311" y2="1541.070"/>
      <line x1="305.689" y1="1542.070" x2="294.311" y2="1542.070"/>
      <line x1="305.689" y1="1543.070" x2="294.311" y2="1543.070"/>
      <line x1="305.689" y1="1544.070" x2="294.311" y2="1544.070"/>
      <line x1="305.689" y1="1545.070" x2="294.311" y2="1545.070"/>
      <line x1="305.689" y1="1546.070" x2="294.311" y2="1546.070"/>
      <line x1="305.689" y1="1547.070" x2="294.311" y2="1547.070"/>
      <line x1="305.689" y1="1548.070" x2="294.311" y2="1548.070"/>
      <line x1="305.689" y1="1549.070" x2="294.311" y2="1549.070"/>
      <line x1="305.689" y1="1550.070" x2="294.311" y2="1550.070"/>
      <line x1="305.689" y1="1551.070" x2="294.311" y2="1551.070"/>
      <line x1="305.689" y1="1552.070" x2="294.311" y2="1552.070"/>
      <line x1="305.689" y1="1553.070" x2="294.311" y2="1553.070"/>
      <line x1="305.689" y1="1554.070" x2="294.311" y2="1554.070"/>
      <line x1="305.689" y1="1555.070" x2="294.311" y2="1555.070"/>
      <line x1="305.689" y1="1556.070" x2="294.311" y2="1556.070"/>
      <line x1="305.689" y1="1557.070" x2="294.311" y2="1557.070"/>
      <line x1="305.689" y1="1558.070" x2="294.311" y2="1558.070"/>
      <line x1="305.689" y1="1559.070" x2="294.311" y2="1559.070"/>
      <line x1="305.689" y1="1560.070" x2="294.311" y2="1560.070"/>
      <line x1="305.689" y1="1561.070" x2="294.311" y2="1561.070"/>
      <line x1="305.689" y1="1562.070" x2="294.311" y2="1562.070"/>
      <line x1="305.689" y1="1563.070" x2="294.311" y2="1563.070"/>
      <line x1="305.689" y1="1564.070" x2="294.311" y2="1564.070"/>
      <line x1="305.689" y1="1565.070" x2="294.311" y2="1565.070"/>
      <line x1="305.689" y1="1566.070" x2="294.311" y2="1566.070"/>
      <line x1="305.689" y1="1567.070" x2="294.311" y2="1567.070"/>
      <line x1="305.689" y1="1568.070" x2="294.311" y2="1568.070"/>
      <line x1="305.689" y1="1569.070" x2="294.311" y2="1569.070"/>
      <line x1="305.689" y1="1570.070" x2="294.311" y2="1570.070"/>
      <line x1="305.689" y1="1571.070" x2="294.311" y2="1571.070"/>
      <line x1="305.689" y1="1572.070" x2="294.311" y2="1572.070"/>
      <line x1="305.689" y1="1573.070" x2="294.311" y2="1573.070"/>
      <line x1="305.689" y1="1574.070" x2="294.311" y2="1574.070"/>
      <line x1="305.689" y1="1575.070" x2="294.311" y2="1575.070"/>
      <line x1="305.689" y1="1576.070" x2="294.311" y2="1576.070"/>
      <line x1="305.689" y1="1577.070" x2="294.311" y2="1577.070"/>
      <line x1="305.689" y1="1578.070" x2="294.311" y2="1578.070"/>
      <line x1="305.689" y1="1526.070" x2="294.311" y2="1526.070"/>
      <line x1="305.689" y1="1527.070" x2="294.311" y2="1527.070"/>
      <line x1="305.689" y1="1528.070" x2="294.311" y2="1528.070"/>
    </g>
    <g stroke="#1976D2" stroke-width="0.4">
      <polyline points="309.189,1521.729 290.811,1521.729 290.811,1682.729 309.189,1682.729 309.189,1521.729" fill="none"/>
      <polyline points="308.189,1522.729 291.811,1522.729 291.811,1681.730 308.189,1681.730 308.189,1522.729" fill="none"/>
      <polyline points="307.189,1523.729 292.811,1523.729 292.811,1680.730 307.189,1680.730 307.189,1523.729" fill="none"/>
      <polyline points="306.189,1524.729 293.811,1524.729 293.811,1679.729 306.189,1679.729 306.189,1524.729" fill="none"/>
    </g>
    <g stroke="#C62828" stroke-width="0.4" fill="none">
    </g>
    <g stroke="#EF6C00" stroke-width="0.4" fill="none">
    </g>
  </g>
  <g stroke="#000000" stroke-width="0.4">
    <line x1="500.000" y1="1000.000" x2="1500.000" y2="1000.000"/>
  </g>
  <g stroke="#000000" stroke-width="0.4">
    <line x1="1000.000" y1="500.000" x2="1000.000" y2="1500.000"/>
  </g>
  <circle cx="1000.000" cy="1000.000" r="1000.000" stroke="red" stroke-width="1" fill="none"/>
  </g>
</svg>
