<?xml version="1.0" encoding="UTF-8"?>
<svg xmlns="http://www.w3.org/2000/svg" version="1.1" width="2000" height="2000">
  <g fill="none" stroke-linecap="round" stroke-linejoin="round">
  <text x="10" y="20" font-size="24" fill="#555">Layer 222 Z=56.400 mm</text>
  <g transform="translate(700.000,-602.229)">
    <g stroke="#2E7D32" stroke-width="0.4">
      <line x1="458.274" y1="1679.230" x2="458.274" y2="1629.230"/>
      <line x1="459.274" y1="1679.230" x2="459.274" y2="1629.230"/>
      <line x1="460.274" y1="1679.230" x2="460.274" y2="1629.230"/>
      <line x1="461.274" y1="1679.230" x2="461.274" y2="1629.230"/>
      <line x1="462.274" y1="1679.230" x2="462.274" y2="1629.230"/>
      <line x1="463.274" y1="1679.230" x2="463.274" y2="1629.230"/>
      <line x1="464.274" y1="1679.230" x2="464.274" y2="1629.230"/>
      <line x1="465.274" y1="1679.230" x2="465.274" y2="1629.230"/>
      <line x1="466.274" y1="1679.230" x2="466.274" y2="1629.230"/>
      <line x1="467.274" y1="1679.230" x2="467.274" y2="1629.230"/>
      <line x1="468.274" y1="1679.230" x2="468.274" y2="1629.230"/>
      <line x1="469.274" y1="1679.230" x2="469.274" y2="1629.230"/>
      <line x1="470.274" y1="1679.230" x2="470.274" y2="1629.230"/>
      <line x1="471.274" y1="1679.230" x2="471.274" y2="1629.230"/>
      <line x1="472.274" y1="1679.230" x2="472.274" y2="1629.230"/>
      <line x1="473.274" y1="1679.230" x2="473.274" y2="1629.230"/>
      <line x1="474.274" y1="1679.230" x2="474.274" y2="1629.230"/>
      <line x1="475.274" y1="1679.230" x2="475.274" y2="1629.230"/>
      <line x1="476.274" y1="1679.230" x2="476.274" y2="1629.230"/>
      <line x1="477.274" y1="1679.230" x2="477.274" y2="1629.230"/>
      <line x1="478.274" y1="1679.230" x2="478.274" y2="1629.230"/>
      <line x1="479.274" y1="1679.230" x2="479.274" y2="1629.230"/>
      <line x1="480.274" y1="1679.230" x2="480.274" y2="1629.230"/>
      <line x1="481.274" y1="1679.230" x2="481.274" y2="1629.230"/>
      <line x1="482.274" y1="1679.230" x2="482.274" y2="1629.230"/>
      <line x1="483.274" y1="1679.230" x2="483.274" y2="1629.230"/>
      <line x1="484.274" y1="1679.230" x2="484.274" y2="1629.230"/>
      <line x1="485.274" y1="1679.230" x2="485.274" y2="1629.230"/>
      <line x1="486.274" y1="1679.230" x2="486.274" y2="1629.230"/>
      <line x1="487.274" y1="1679.230" x2="487.274" y2="1629.230"/>
      <line x1="488.274" y1="1679.230" x2="488.274" y2="1629.230"/>
      <line x1="489.274" y1="1679.230" x2="489.274" y2="1629.230"/>
      <line x1="490.274" y1="1679.230" x2="490.274" y2="1629.230"/>
      <line x1="491.274" y1="1679.230" x2="491.274" y2="1629.230"/>
      <line x1="492.274" y1="1679.230" x2="492.274" y2="1629.230"/>
      <line x1="493.274" y1="1679.230" x2="493.274" y2="1629.230"/>
      <line x1="494.274" y1="1679.230" x2="494.274" y2="1629.230"/>
      <line x1="495.274" y1="1679.230" x2="495.274" y2="1629.230"/>
      <line x1="496.274" y1="1679.230" x2="496.274" y2="1629.230"/>
      <line x1="497.274" y1="1679.230" x2="497.274" y2="1629.230"/>
      <line x1="498.274" y1="1679.230" x2="498.274" y2="1629.230"/>
      <line x1="499.274" y1="1679.230" x2="499.274" y2="1629.230"/>
      <line x1="500.274" y1="1679.230" x2="500.274" y2="1629.230"/>
      <line x1="501.274" y1="1679.230" x2="501.274" y2="1629.230"/>
      <line x1="502.274" y1="1679.230" x2="502.274" y2="1629.230"/>
      <line x1="503.274" y1="1679.230" x2="503.274" y2="1629.230"/>
      <line x1="504.274" y1="1679.230" x2="504.274" y2="1629.230"/>
      <line x1="505.274" y1="1679.230" x2="505.274" y2="1629.230"/>
      <line x1="506.274" y1="1679.230" x2="506.274" y2="1629.230"/>
      <line x1="507.274" y1="1679.230" x2="507.274" y2="1629.230"/>
      <line x1="508.274" y1="1679.230" x2="508.274" y2="1629.230"/>
      <line x1="509.274" y1="1679.230" x2="509.274" y2="1629.230"/>
      <line x1="510.274" y1="1679.230" x2="510.274" y2="1629.230"/>
      <line x1="511.274" y1="1679.230" x2="511.274" y2="1629.230"/>
      <line x1="512.274" y1="1679.230" x2="512.274" y2="1629.230"/>
      <line x1="513.274" y1="1679.230" x2="513.274" y2="1629.230"/>
      <line x1="514.274" y1="1679.230" x2="514.274" y2="1629.230"/>
      <line x1="515.274" y1="1679.230" x2="515.274" y2="1629.230"/>
      <line x1="516.274" y1="1679.230" x2="516.274" y2="1629.230"/>
      <line x1="517.274" y1="1679.230" x2="517.274" y2="1629.230"/>
      <line x1="518.274" y1="1679.230" x2="518.274" y2="1629.230"/>
      <line x1="519.274" y1="1679.230" x2="519.274" y2="1629.230"/>
      <line x1="520.274" y1="1679.230" x2="520.274" y2="1629.230"/>
      <line x1="521.274" y1="1679.230" x2="521.274" y2="1629.230"/>
      <line x1="522.274" y1="1679.230" x2="522.274" y2="1629.230"/>
      <line x1="523.274" y1="1679.230" x2="523.274" y2="1629.230"/>
      <line x1="524.274" y1="1679.230" x2="524.274" y2="1629.230"/>
      <line x1="525.274" y1="1679.230" x2="525.274" y2="1629.230"/>
      <line x1="526.274" y1="1679.230" x2="526.274" y2="1629.230"/>
      <line x1="527.274" y1="1679.230" x2="527.274" y2="1629.230"/>
      <line x1="528.274" y1="1679.230" x2="528.274" y2="1629.230"/>
      <line x1="529.274" y1="1679.230" x2="529.274" y2="1629.230"/>
      <line x1="530.274" y1="1679.230" x2="530.274" y2="1629.230"/>
      <line x1="531.274" y1="1679.230" x2="531.274" y2="1629.230"/>
      <line x1="532.274" y1="1679.230" x2="532.274" y2="1629.230"/>
      <line x1="533.274" y1="1679.230" x2="533.274" y2="1629.230"/>
      <line x1="534.274" y1="1679.230" x2="534.274" y2="1629.230"/>
      <line x1="535.274" y1="1679.230" x2="535.274" y2="1629.230"/>
      <line x1="536.274" y1="1679.230" x2="536.274" y2="1629.230"/>
      <line x1="537.274" y1="1679.230" x2="537.274" y2="1629.230"/>
      <line x1="538.274" y1="1679.230" x2="538.274" y2="1629.230"/>
      <line x1="539.274" y1="1679.230" x2="539.274" y2="1629.230"/>
      <line x1="540.274" y1="1679.230" x2="540.274" y2="1629.230"/>
      <line x1="541.274" y1="1679.230" x2="541.274" y2="1629.230"/>
      <line x1="542.274" y1="1679.230" x2="542.274" y2="1629.230"/>
      <line x1="543.274" y1="1679.230" x2="543.274" y2="1629.230"/>
      <line x1="544.274" y1="1679.230" x2="544.274" y2="1629.230"/>
      <line x1="545.274" y1="1679.230" x2="545.274" y2="1629.230"/>
      <line x1="546.274" y1="1679.230" x2="546.274" y2="1629.230"/>
      <line x1="547.274" y1="1679.230" x2="547.274" y2="1629.230"/>
      <line x1="548.274" y1="1679.230" x2="548.274" y2="1629.230"/>
      <line x1="549.274" y1="1679.230" x2="549.274" y2="1629.230"/>
      <line x1="550.274" y1="1679.230" x2="550.274" y2="1629.230"/>
      <line x1="551.274" y1="1679.230" x2="551.274" y2="1629.230"/>
      <line x1="552.274" y1="1679.230" x2="552.274" y2="1629.230"/>
      <line x1="553.274" y1="1679.230" x2="553.274" y2="1629.230"/>
      <line x1="554.274" y1="1679.230" x2="554.274" y2="1629.230"/>
      <line x1="555.274" y1="1679.230" x2="555.274" y2="1629.230"/>
      <line x1="556.274" y1="1679.230" x2="556.274" y2="1629.230"/>
      <line x1="557.274" y1="1679.230" x2="557.274" y2="1629.230"/>
      <line x1="558.274" y1="1679.230" x2="558.274" y2="1629.230"/>
      <line x1="559.274" y1="1679.230" x2="559.274" y2="1629.230"/>
      <line x1="560.274" y1="1679.230" x2="560.274" y2="1629.230"/>
      <line x1="561.274" y1="1679.230" x2="561.274" y2="1629.230"/>
      <line x1="562.274" y1="1679.230" x2="562.274" y2="1629.230"/>
      <line x1="563.274" y1="1679.230" x2="563.274" y2="1629.230"/>
      <line x1="564.274" y1="1679.230" x2="564.274" y2="1629.230"/>
      <line x1="565.274" y1="1679.230" x2="565.274" y2="1629.230"/>
      <line x1="566.274" y1="1679.230" x2="566.274" y2="1629.230"/>
      <line x1="567.274" y1="1679.230" x2="567.274" y2="1629.230"/>
      <line x1="568.274" y1="1679.230" x2="568.274" y2="1629.230"/>
      <line x1="569.274" y1="1679.230" x2="569.274" y2="1629.230"/>
      <line x1="570.274" y1="1679.230" x2="570.274" y2="1629.230"/>
      <line x1="571.274" y1="1679.230" x2="571.274" y2="1629.230"/>
      <line x1="572.274" y1="1679.230" x2="572.274" y2="1629.230"/>
      <line x1="573.274" y1="1679.230" x2="573.274" y2="1629.230"/>
      <line x1="574.274" y1="1679.230" x2="574.274" y2="1629.230"/>
      <line x1="575.274" y1="1679.230" x2="575.274" y2="1629.230"/>
      <line x1="576.274" y1="1679.230" x2="576.274" y2="1629.230"/>
      <line x1="577.274" y1="1679.230" x2="577.274" y2="1629.230"/>
      <line x1="578.274" y1="1679.230" x2="578.274" y2="1629.230"/>
      <line x1="579.274" y1="1679.230" x2="579.274" y2="1629.230"/>
      <line x1="580.274" y1="1679.230" x2="580.274" y2="1629.230"/>
      <line x1="581.274" y1="1679.230" x2="581.274" y2="1629.230"/>
      <line x1="582.274" y1="1679.230" x2="582.274" y2="1629.230"/>
      <line x1="583.274" y1="1679.230" x2="583.274" y2="1629.230"/>
      <line x1="584.274" y1="1679.230" x2="584.274" y2="1629.230"/>
      <line x1="585.274" y1="1679.230" x2="585.274" y2="1629.230"/>
      <line x1="586.274" y1="1679.230" x2="586.274" y2="1629.230"/>
      <line x1="458.274" y1="1629.130" x2="458.274" y2="1579.130"/>
      <line x1="459.274" y1="1629.130" x2="459.274" y2="1579.130"/>
      <line x1="460.274" y1="1629.130" x2="460.274" y2="1579.130"/>
      <line x1="461.274" y1="1629.130" x2="461.274" y2="1579.130"/>
      <line x1="462.274" y1="1629.130" x2="462.274" y2="1579.130"/>
      <line x1="463.274" y1="1629.130" x2="463.274" y2="1579.130"/>
      <line x1="464.274" y1="1629.130" x2="464.274" y2="1579.130"/>
      <line x1="465.274" y1="1629.130" x2="465.274" y2="1579.130"/>
      <line x1="466.274" y1="1629.130" x2="466.274" y2="1579.130"/>
      <line x1="467.274" y1="1629.130" x2="467.274" y2="1579.130"/>
      <line x1="468.274" y1="1629.130" x2="468.274" y2="1579.130"/>
      <line x1="469.274" y1="1629.130" x2="469.274" y2="1579.130"/>
      <line x1="470.274" y1="1629.130" x2="470.274" y2="1579.130"/>
      <line x1="471.274" y1="1629.130" x2="471.274" y2="1579.130"/>
      <line x1="472.274" y1="1629.130" x2="472.274" y2="1579.130"/>
      <line x1="473.274" y1="1629.130" x2="473.274" y2="1579.130"/>
      <line x1="474.274" y1="1629.130" x2="474.274" y2="1579.130"/>
      <line x1="475.274" y1="1629.130" x2="475.274" y2="1579.130"/>
      <line x1="476.274" y1="1629.130" x2="476.274" y2="1579.130"/>
      <line x1="477.274" y1="1629.130" x2="477.274" y2="1579.130"/>
      <line x1="478.274" y1="1629.130" x2="478.274" y2="1579.130"/>
      <line x1="479.274" y1="1629.130" x2="479.274" y2="1579.130"/>
      <line x1="480.274" y1="1629.130" x2="480.274" y2="1579.130"/>
      <line x1="481.274" y1="1629.130" x2="481.274" y2="1579.130"/>
      <line x1="482.274" y1="1629.130" x2="482.274" y2="1579.130"/>
      <line x1="483.274" y1="1629.130" x2="483.274" y2="1579.130"/>
      <line x1="484.274" y1="1629.130" x2="484.274" y2="1579.130"/>
      <line x1="485.274" y1="1629.130" x2="485.274" y2="1579.130"/>
      <line x1="486.274" y1="1629.130" x2="486.274" y2="1579.130"/>
      <line x1="487.274" y1="1629.130" x2="487.274" y2="1579.130"/>
      <line x1="488.274" y1="1629.130" x2="488.274" y2="1579.130"/>
      <line x1="489.274" y1="1629.130" x2="489.274" y2="1579.130"/>
      <line x1="490.274" y1="1629.130" x2="490.274" y2="1579.130"/>
      <line x1="491.274" y1="1629.130" x2="491.274" y2="1579.130"/>
      <line x1="492.274" y1="1629.130" x2="492.274" y2="1579.130"/>
      <line x1="493.274" y1="1629.130" x2="493.274" y2="1579.130"/>
      <line x1="494.274" y1="1629.130" x2="494.274" y2="1579.130"/>
      <line x1="495.274" y1="1629.130" x2="495.274" y2="1579.130"/>
      <line x1="496.274" y1="1629.130" x2="496.274" y2="1579.130"/>
      <line x1="497.274" y1="1629.130" x2="497.274" y2="1579.130"/>
      <line x1="498.274" y1="1629.130" x2="498.274" y2="1579.130"/>
      <line x1="499.274" y1="1629.130" x2="499.274" y2="1579.130"/>
      <line x1="500.274" y1="1629.130" x2="500.274" y2="1579.130"/>
      <line x1="501.274" y1="1629.130" x2="501.274" y2="1579.130"/>
      <line x1="502.274" y1="1629.130" x2="502.274" y2="1579.130"/>
      <line x1="503.274" y1="1629.130" x2="503.274" y2="1579.130"/>
      <line x1="504.274" y1="1629.130" x2="504.274" y2="1579.130"/>
      <line x1="505.274" y1="1629.130" x2="505.274" y2="1579.130"/>
      <line x1="506.274" y1="1629.130" x2="506.274" y2="1579.130"/>
      <line x1="507.274" y1="1629.130" x2="507.274" y2="1579.130"/>
      <line x1="508.274" y1="1629.130" x2="508.274" y2="1579.130"/>
      <line x1="509.274" y1="1629.130" x2="509.274" y2="1579.130"/>
      <line x1="510.274" y1="1629.130" x2="510.274" y2="1579.130"/>
      <line x1="511.274" y1="1629.130" x2="511.274" y2="1579.130"/>
      <line x1="512.274" y1="1629.130" x2="512.274" y2="1579.130"/>
      <line x1="513.274" y1="1629.130" x2="513.274" y2="1579.130"/>
      <line x1="514.274" y1="1629.130" x2="514.274" y2="1579.130"/>
      <line x1="515.274" y1="1629.130" x2="515.274" y2="1579.130"/>
      <line x1="516.274" y1="1629.130" x2="516.274" y2="1579.130"/>
      <line x1="517.274" y1="1629.130" x2="517.274" y2="1579.130"/>
      <line x1="518.274" y1="1629.130" x2="518.274" y2="1579.130"/>
      <line x1="519.274" y1="1629.130" x2="519.274" y2="1579.130"/>
      <line x1="520.274" y1="1629.130" x2="520.274" y2="1579.130"/>
      <line x1="521.274" y1="1629.130" x2="521.274" y2="1579.130"/>
      <line x1="522.274" y1="1629.130" x2="522.274" y2="1579.130"/>
      <line x1="523.274" y1="1629.130" x2="523.274" y2="1579.130"/>
      <line x1="524.274" y1="1629.130" x2="524.274" y2="1579.130"/>
      <line x1="525.274" y1="1629.130" x2="525.274" y2="1579.130"/>
      <line x1="526.274" y1="1629.130" x2="526.274" y2="1579.130"/>
      <line x1="527.274" y1="1629.130" x2="527.274" y2="1579.130"/>
      <line x1="528.274" y1="1629.130" x2="528.274" y2="1579.130"/>
      <line x1="529.274" y1="1629.130" x2="529.274" y2="1579.130"/>
      <line x1="530.274" y1="1629.130" x2="530.274" y2="1579.130"/>
      <line x1="531.274" y1="1629.130" x2="531.274" y2="1579.130"/>
      <line x1="532.274" y1="1629.130" x2="532.274" y2="1579.130"/>
      <line x1="533.274" y1="1629.130" x2="533.274" y2="1579.130"/>
      <line x1="534.274" y1="1629.130" x2="534.274" y2="1579.130"/>
      <line x1="535.274" y1="1629.130" x2="535.274" y2="1579.130"/>
      <line x1="536.274" y1="1629.130" x2="536.274" y2="1579.130"/>
      <line x1="537.274" y1="1629.130" x2="537.274" y2="1579.130"/>
      <line x1="538.274" y1="1629.130" x2="538.274" y2="1579.130"/>
      <line x1="539.274" y1="1629.130" x2="539.274" y2="1579.130"/>
      <line x1="540.274" y1="1629.130" x2="540.274" y2="1579.130"/>
      <line x1="541.274" y1="1629.130" x2="541.274" y2="1579.130"/>
      <line x1="542.274" y1="1629.130" x2="542.274" y2="1579.130"/>
      <line x1="543.274" y1="1629.130" x2="543.274" y2="1579.130"/>
      <line x1="544.274" y1="1629.130" x2="544.274" y2="1579.130"/>
      <line x1="545.274" y1="1629.130" x2="545.274" y2="1579.130"/>
      <line x1="546.274" y1="1629.130" x2="546.274" y2="1579.130"/>
      <line x1="547.274" y1="1629.130" x2="547.274" y2="1579.130"/>
      <line x1="548.274" y1="1629.130" x2="548.274" y2="1579.130"/>
      <line x1="549.274" y1="1629.130" x2="549.274" y2="1579.130"/>
      <line x1="550.274" y1="1629.130" x2="550.274" y2="1579.130"/>
      <line x1="551.274" y1="1629.130" x2="551.274" y2="1579.130"/>
      <line x1="552.274" y1="1629.130" x2="552.274" y2="1579.130"/>
      <line x1="553.274" y1="1629.130" x2="553.274" y2="1579.130"/>
      <line x1="554.274" y1="1629.130" x2="554.274" y2="1579.130"/>
      <line x1="555.274" y1="1629.130" x2="555.274" y2="1579.130"/>
      <line x1="556.274" y1="1629.130" x2="556.274" y2="1579.130"/>
      <line x1="557.274" y1="1629.130" x2="557.274" y2="1579.130"/>
      <line x1="558.274" y1="1629.130" x2="558.274" y2="1579.130"/>
      <line x1="559.274" y1="1629.130" x2="559.274" y2="1579.130"/>
      <line x1="560.274" y1="1629.130" x2="560.274" y2="1579.130"/>
      <line x1="561.274" y1="1629.130" x2="561.274" y2="1579.130"/>
      <line x1="562.274" y1="1629.130" x2="562.274" y2="1579.130"/>
      <line x1="563.274" y1="1629.130" x2="563.274" y2="1579.130"/>
      <line x1="564.274" y1="1629.130" x2="564.274" y2="1579.130"/>
      <line x1="565.274" y1="1629.130" x2="565.274" y2="1579.130"/>
      <line x1="566.274" y1="1629.130" x2="566.274" y2="1579.130"/>
      <line x1="567.274" y1="1629.130" x2="567.274" y2="1579.130"/>
      <line x1="568.274" y1="1629.130" x2="568.274" y2="1579.130"/>
      <line x1="569.274" y1="1629.130" x2="569.274" y2="1579.130"/>
      <line x1="570.274" y1="1629.130" x2="570.274" y2="1579.130"/>
      <line x1="571.274" y1="1629.130" x2="571.274" y2="1579.130"/>
      <line x1="572.274" y1="1629.130" x2="572.274" y2="1579.130"/>
      <line x1="573.274" y1="1629.130" x2="573.274" y2="1579.130"/>
      <line x1="574.274" y1="1629.130" x2="574.274" y2="1579.130"/>
      <line x1="575.274" y1="1629.130" x2="575.274" y2="1579.130"/>
      <line x1="576.274" y1="1629.130" x2="576.274" y2="1579.130"/>
      <line x1="577.274" y1="1629.130" x2="577.274" y2="1579.130"/>
      <line x1="578.274" y1="1629.130" x2="578.274" y2="1579.130"/>
      <line x1="579.274" y1="1629.130" x2="579.274" y2="1579.130"/>
      <line x1="580.274" y1="1629.130" x2="580.274" y2="1579.130"/>
      <line x1="581.274" y1="1629.130" x2="581.274" y2="1579.130"/>
      <line x1="582.274" y1="1629.130" x2="582.274" y2="1579.130"/>
      <line x1="583.274" y1="1629.130" x2="583.274" y2="1579.130"/>
      <line x1="584.274" y1="1629.130" x2="584.274" y2="1579.130"/>
      <line x1="585.274" y1="1629.130" x2="585.274" y2="1579.130"/>
      <line x1="586.274" y1="1629.130" x2="586.274" y2="1579.130"/>
      <line x1="458.274" y1="1579.030" x2="458.274" y2="1529.030"/>
      <line x1="459.274" y1="1579.030" x2="459.274" y2="1529.030"/>
      <line x1="460.274" y1="1579.030" x2="460.274" y2="1529.030"/>
      <line x1="461.274" y1="1579.030" x2="461.274" y2="1529.030"/>
      <line x1="462.274" y1="1579.030" x2="462.274" y2="1529.030"/>
      <line x1="463.274" y1="1579.030" x2="463.274" y2="1529.030"/>
      <line x1="464.274" y1="1579.030" x2="464.274" y2="1529.030"/>
      <line x1="465.274" y1="1579.030" x2="465.274" y2="1529.030"/>
      <line x1="466.274" y1="1579.030" x2="466.274" y2="1529.030"/>
      <line x1="467.274" y1="1579.030" x2="467.274" y2="1529.030"/>
      <line x1="468.274" y1="1579.030" x2="468.274" y2="1529.030"/>
      <line x1="469.274" y1="1579.030" x2="469.274" y2="1529.030"/>
      <line x1="470.274" y1="1579.030" x2="470.274" y2="1529.030"/>
      <line x1="471.274" y1="1579.030" x2="471.274" y2="1529.030"/>
      <line x1="472.274" y1="1579.030" x2="472.274" y2="1529.030"/>
      <line x1="473.274" y1="1579.030" x2="473.274" y2="1529.030"/>
      <line x1="474.274" y1="1579.030" x2="474.274" y2="1529.030"/>
      <line x1="475.274" y1="1579.030" x2="475.274" y2="1529.030"/>
      <line x1="476.274" y1="1579.030" x2="476.274" y2="1529.030"/>
      <line x1="477.274" y1="1579.030" x2="477.274" y2="1529.030"/>
      <line x1="478.274" y1="1579.030" x2="478.274" y2="1529.030"/>
      <line x1="479.274" y1="1579.030" x2="479.274" y2="1529.030"/>
      <line x1="480.274" y1="1579.030" x2="480.274" y2="1529.030"/>
      <line x1="481.274" y1="1579.030" x2="481.274" y2="1529.030"/>
      <line x1="482.274" y1="1579.030" x2="482.274" y2="1529.030"/>
      <line x1="483.274" y1="1579.030" x2="483.274" y2="1529.030"/>
      <line x1="484.274" y1="1579.030" x2="484.274" y2="1529.030"/>
      <line x1="485.274" y1="1579.030" x2="485.274" y2="1529.030"/>
      <line x1="486.274" y1="1579.030" x2="486.274" y2="1529.030"/>
      <line x1="487.274" y1="1579.030" x2="487.274" y2="1529.030"/>
      <line x1="488.274" y1="1579.030" x2="488.274" y2="1529.030"/>
      <line x1="489.274" y1="1579.030" x2="489.274" y2="1529.030"/>
      <line x1="490.274" y1="1579.030" x2="490.274" y2="1529.030"/>
      <line x1="491.274" y1="1579.030" x2="491.274" y2="1529.030"/>
      <line x1="492.274" y1="1579.030" x2="492.274" y2="1529.030"/>
      <line x1="493.274" y1="1579.030" x2="493.274" y2="1529.030"/>
      <line x1="494.274" y1="1579.030" x2="494.274" y2="1529.030"/>
      <line x1="495.274" y1="1579.030" x2="495.274" y2="1529.030"/>
      <line x1="496.274" y1="1579.030" x2="496.274" y2="1529.030"/>
      <line x1="497.274" y1="1579.030" x2="497.274" y2="1529.030"/>
      <line x1="498.274" y1="1579.030" x2="498.274" y2="1529.030"/>
      <line x1="499.274" y1="1579.030" x2="499.274" y2="1529.030"/>
      <line x1="500.274" y1="1579.030" x2="500.274" y2="1529.030"/>
      <line x1="501.274" y1="1579.030" x2="501.274" y2="1529.030"/>
      <line x1="502.274" y1="1579.030" x2="502.274" y2="1529.030"/>
      <line x1="503.274" y1="1579.030" x2="503.274" y2="1529.030"/>
      <line x1="504.274" y1="1579.030" x2="504.274" y2="1529.030"/>
      <line x1="505.274" y1="1579.030" x2="505.274" y2="1529.030"/>
      <line x1="506.274" y1="1579.030" x2="506.274" y2="1529.030"/>
      <line x1="507.274" y1="1579.030" x2="507.274" y2="1529.030"/>
      <line x1="508.274" y1="1579.030" x2="508.274" y2="1529.030"/>
      <line x1="509.274" y1="1579.030" x2="509.274" y2="1529.030"/>
      <line x1="510.274" y1="1579.030" x2="510.274" y2="1529.030"/>
      <line x1="511.274" y1="1579.030" x2="511.274" y2="1529.030"/>
      <line x1="512.274" y1="1579.030" x2="512.274" y2="1529.030"/>
      <line x1="513.274" y1="1579.030" x2="513.274" y2="1529.030"/>
      <line x1="514.274" y1="1579.030" x2="514.274" y2="1529.030"/>
      <line x1="515.274" y1="1579.030" x2="515.274" y2="1529.030"/>
      <line x1="516.274" y1="1579.030" x2="516.274" y2="1529.030"/>
      <line x1="517.274" y1="1579.030" x2="517.274" y2="1529.030"/>
      <line x1="518.274" y1="1579.030" x2="518.274" y2="1529.030"/>
      <line x1="519.274" y1="1579.030" x2="519.274" y2="1529.030"/>
      <line x1="520.274" y1="1579.030" x2="520.274" y2="1529.030"/>
      <line x1="521.274" y1="1579.030" x2="521.274" y2="1529.030"/>
      <line x1="522.274" y1="1579.030" x2="522.274" y2="1529.030"/>
      <line x1="523.274" y1="1579.030" x2="523.274" y2="1529.030"/>
      <line x1="524.274" y1="1579.030" x2="524.274" y2="1529.030"/>
      <line x1="525.274" y1="1579.030" x2="525.274" y2="1529.030"/>
      <line x1="526.274" y1="1579.030" x2="526.274" y2="1529.030"/>
      <line x1="527.274" y1="1579.030" x2="527.274" y2="1529.030"/>
      <line x1="528.274" y1="1579.030" x2="528.274" y2="1529.030"/>
      <line x1="529.274" y1="1579.030" x2="529.274" y2="1529.030"/>
      <line x1="530.274" y1="1579.030" x2="530.274" y2="1529.030"/>
      <line x1="531.274" y1="1579.030" x2="531.274" y2="1529.030"/>
      <line x1="532.274" y1="1579.030" x2="532.274" y2="1529.030"/>
      <line x1="533.274" y1="1579.030" x2="533.274" y2="1529.030"/>
      <line x1="534.274" y1="1579.030" x2="534.274" y2="1529.030"/>
      <line x1="535.274" y1="1579.030" x2="535.274" y2="1529.030"/>
      <line x1="536.274" y1="1579.030" x2="536.274" y2="1529.030"/>
      <line x1="537.274" y1="1579.030" x2="537.274" y2="1529.030"/>
      <line x1="538.274" y1="1579.030" x2="538.274" y2="1529.030"/>
      <line x1="539.274" y1="1579.030" x2="539.274" y2="1529.030"/>
      <line x1="540.274" y1="1579.030" x2="540.274" y2="1529.030"/>
      <line x1="541.274" y1="1579.030" x2="541.274" y2="1529.030"/>
      <line x1="542.274" y1="1579.030" x2="542.274" y2="1529.030"/>
      <line x1="543.274" y1="1579.030" x2="543.274" y2="1529.030"/>
      <line x1="544.274" y1="1579.030" x2="544.274" y2="1529.030"/>
      <line x1="545.274" y1="1579.030" x2="545.274" y2="1529.030"/>
      <line x1="546.274" y1="1579.030" x2="546.274" y2="1529.030"/>
      <line x1="547.274" y1="1579.030" x2="547.274" y2="1529.030"/>
      <line x1="548.274" y1="1579.030" x2="548.274" y2="1529.030"/>
      <line x1="549.274" y1="1579.030" x2="549.274" y2="1529.030"/>
      <line x1="550.274" y1="1579.030" x2="550.274" y2="1529.030"/>
      <line x1="551.274" y1="1579.030" x2="551.274" y2="1529.030"/>
      <line x1="552.274" y1="1579.030" x2="552.274" y2="1529.030"/>
      <line x1="553.274" y1="1579.030" x2="553.274" y2="1529.030"/>
      <line x1="554.274" y1="1579.030" x2="554.274" y2="1529.030"/>
      <line x1="555.274" y1="1579.030" x2="555.274" y2="1529.030"/>
      <line x1="556.274" y1="1579.030" x2="556.274" y2="1529.030"/>
      <line x1="557.274" y1="1579.030" x2="557.274" y2="1529.030"/>
      <line x1="558.274" y1="1579.030" x2="558.274" y2="1529.030"/>
      <line x1="559.274" y1="1579.030" x2="559.274" y2="1529.030"/>
      <line x1="560.274" y1="1579.030" x2="560.274" y2="1529.030"/>
      <line x1="561.274" y1="1579.030" x2="561.274" y2="1529.030"/>
      <line x1="562.274" y1="1579.030" x2="562.274" y2="1529.030"/>
      <line x1="563.274" y1="1579.030" x2="563.274" y2="1529.030"/>
      <line x1="564.274" y1="1579.030" x2="564.274" y2="1529.030"/>
      <line x1="565.274" y1="1579.030" x2="565.274" y2="1529.030"/>
      <line x1="566.274" y1="1579.030" x2="566.274" y2="1529.030"/>
      <line x1="567.274" y1="1579.030" x2="567.274" y2="1529.030"/>
      <line x1="568.274" y1="1579.030" x2="568.274" y2="1529.030"/>
      <line x1="569.274" y1="1579.030" x2="569.274" y2="1529.030"/>
      <line x1="570.274" y1="1579.030" x2="570.274" y2="1529.030"/>
      <line x1="571.274" y1="1579.030" x2="571.274" y2="1529.030"/>
      <line x1="572.274" y1="1579.030" x2="572.274" y2="1529.030"/>
      <line x1="573.274" y1="1579.030" x2="573.274" y2="1529.030"/>
      <line x1="574.274" y1="1579.030" x2="574.274" y2="1529.030"/>
      <line x1="575.274" y1="1579.030" x2="575.274" y2="1529.030"/>
      <line x1="576.274" y1="1579.030" x2="576.274" y2="1529.030"/>
      <line x1="577.274" y1="1579.030" x2="577.274" y2="1529.030"/>
      <line x1="578.274" y1="1579.030" x2="578.274" y2="1529.030"/>
      <line x1="579.274" y1="1579.030" x2="579.274" y2="1529.030"/>
      <line x1="580.274" y1="1579.030" x2="580.274" y2="1529.030"/>
      <line x1="581.274" y1="1579.030" x2="581.274" y2="1529.030"/>
      <line x1="582.274" y1="1579.030" x2="582.274" y2="1529.030"/>
      <line x1="583.274" y1="1579.030" x2="583.274" y2="1529.030"/>
      <line x1="584.274" y1="1579.030" x2="584.274" y2="1529.030"/>
      <line x1="585.274" y1="1579.030" x2="585.274" y2="1529.030"/>
      <line x1="586.274" y1="1579.030" x2="586.274" y2="1529.030"/>
      <line x1="486.274" y1="1528.930" x2="486.274" y2="1525.229"/>
      <line x1="487.274" y1="1528.930" x2="487.274" y2="1525.229"/>
      <line x1="481.274" y1="1528.930" x2="481.274" y2="1525.229"/>
      <line x1="458.274" y1="1528.930" x2="458.274" y2="1525.229"/>
      <line x1="459.274" y1="1528.930" x2="459.274" y2="1525.229"/>
      <line x1="461.274" y1="1528.930" x2="461.274" y2="1525.229"/>
      <line x1="464.274" y1="1528.930" x2="464.274" y2="1525.229"/>
      <line x1="466.274" y1="1528.930" x2="466.274" y2="1525.229"/>
      <line x1="467.274" y1="1528.930" x2="467.274" y2="1525.229"/>
      <line x1="469.274" y1="1528.930" x2="469.274" y2="1525.229"/>
      <line x1="472.274" y1="1528.930" x2="472.274" y2="1525.229"/>
      <line x1="484.274" y1="1528.930" x2="484.274" y2="1525.229"/>
      <line x1="479.274" y1="1528.930" x2="479.274" y2="1525.229"/>
      <line x1="478.274" y1="1528.930" x2="478.274" y2="1525.229"/>
      <line x1="475.274" y1="1528.930" x2="475.274" y2="1525.229"/>
      <line x1="470.274" y1="1528.930" x2="470.274" y2="1525.229"/>
      <line x1="476.274" y1="1528.930" x2="476.274" y2="1525.229"/>
      <line x1="473.274" y1="1528.930" x2="473.274" y2="1525.229"/>
      <line x1="463.274" y1="1528.930" x2="463.274" y2="1525.229"/>
      <line x1="462.274" y1="1528.930" x2="462.274" y2="1525.229"/>
      <line x1="465.274" y1="1528.930" x2="465.274" y2="1525.229"/>
      <line x1="468.274" y1="1528.930" x2="468.274" y2="1525.229"/>
      <line x1="471.274" y1="1528.930" x2="471.274" y2="1525.229"/>
      <line x1="474.274" y1="1528.930" x2="474.274" y2="1525.229"/>
      <line x1="477.274" y1="1528.930" x2="477.274" y2="1525.229"/>
      <line x1="480.274" y1="1528.930" x2="480.274" y2="1525.229"/>
      <line x1="483.274" y1="1528.930" x2="483.274" y2="1525.229"/>
      <line x1="482.274" y1="1528.930" x2="482.274" y2="1525.229"/>
      <line x1="485.274" y1="1528.930" x2="485.274" y2="1525.229"/>
      <line x1="460.274" y1="1528.930" x2="460.274" y2="1525.229"/>
      <line x1="490.274" y1="1528.930" x2="490.274" y2="1525.229"/>
      <line x1="501.274" y1="1528.930" x2="501.274" y2="1525.229"/>
      <line x1="500.274" y1="1528.930" x2="500.274" y2="1525.229"/>
      <line x1="499.274" y1="1528.930" x2="499.274" y2="1525.229"/>
      <line x1="498.274" y1="1528.930" x2="498.274" y2="1525.229"/>
      <line x1="497.274" y1="1528.930" x2="497.274" y2="1525.229"/>
      <line x1="496.274" y1="1528.930" x2="496.274" y2="1525.229"/>
      <line x1="495.274" y1="1528.930" x2="495.274" y2="1525.229"/>
      <line x1="494.274" y1="1528.930" x2="494.274" y2="1525.229"/>
      <line x1="493.274" y1="1528.930" x2="493.274" y2="1525.229"/>
      <line x1="492.274" y1="1528.930" x2="492.274" y2="1525.229"/>
      <line x1="491.274" y1="1528.930" x2="491.274" y2="1525.229"/>
      <line x1="502.274" y1="1528.930" x2="502.274" y2="1525.229"/>
      <line x1="489.274" y1="1528.930" x2="489.274" y2="1525.229"/>
      <line x1="488.274" y1="1528.930" x2="488.274" y2="1525.229"/>
      <line x1="507.274" y1="1528.930" x2="507.274" y2="1525.229"/>
      <line x1="506.274" y1="1528.930" x2="506.274" y2="1525.229"/>
      <line x1="505.274" y1="1528.930" x2="505.274" y2="1525.229"/>
      <line x1="504.274" y1="1528.930" x2="504.274" y2="1525.229"/>
      <line x1="503.274" y1="1528.930" x2="503.274" y2="1525.229"/>
      <line x1="538.274" y1="1528.930" x2="538.274" y2="1525.229"/>
      <line x1="549.274" y1="1528.930" x2="549.274" y2="1525.229"/>
      <line x1="548.274" y1="1528.930" x2="548.274" y2="1525.229"/>
      <line x1="547.274" y1="1528.930" x2="547.274" y2="1525.229"/>
      <line x1="546.274" y1="1528.930" x2="546.274" y2="1525.229"/>
      <line x1="545.274" y1="1528.930" x2="545.274" y2="1525.229"/>
      <line x1="544.274" y1="1528.930" x2="544.274" y2="1525.229"/>
      <line x1="543.274" y1="1528.930" x2="543.274" y2="1525.229"/>
      <line x1="542.274" y1="1528.930" x2="542.274" y2="1525.229"/>
      <line x1="541.274" y1="1528.930" x2="541.274" y2="1525.229"/>
      <line x1="540.274" y1="1528.930" x2="540.274" y2="1525.229"/>
      <line x1="539.274" y1="1528.930" x2="539.274" y2="1525.229"/>
      <line x1="550.274" y1="1528.930" x2="550.274" y2="1525.229"/>
      <line x1="537.274" y1="1528.930" x2="537.274" y2="1525.229"/>
      <line x1="536.274" y1="1528.930" x2="536.274" y2="1525.229"/>
      <line x1="535.274" y1="1528.930" x2="535.274" y2="1525.229"/>
      <line x1="534.274" y1="1528.930" x2="534.274" y2="1525.229"/>
      <line x1="533.274" y1="1528.930" x2="533.274" y2="1525.229"/>
      <line x1="532.274" y1="1528.930" x2="532.274" y2="1525.229"/>
      <line x1="531.274" y1="1528.930" x2="531.274" y2="1525.229"/>
      <line x1="530.274" y1="1528.930" x2="530.274" y2="1525.229"/>
      <line x1="529.274" y1="1528.930" x2="529.274" y2="1525.229"/>
      <line x1="528.274" y1="1528.930" x2="528.274" y2="1525.229"/>
      <line x1="527.274" y1="1528.930" x2="527.274" y2="1525.229"/>
      <line x1="557.274" y1="1528.930" x2="557.274" y2="1525.229"/>
      <line x1="556.274" y1="1528.930" x2="556.274" y2="1525.229"/>
      <line x1="555.274" y1="1528.930" x2="555.274" y2="1525.229"/>
      <line x1="554.274" y1="1528.930" x2="554.274" y2="1525.229"/>
      <line x1="553.274" y1="1528.930" x2="553.274" y2="1525.229"/>
      <line x1="552.274" y1="1528.930" x2="552.274" y2="1525.229"/>
      <line x1="551.274" y1="1528.930" x2="551.274" y2="1525.229"/>
      <line x1="514.274" y1="1528.930" x2="514.274" y2="1525.229"/>
      <line x1="525.274" y1="1528.930" x2="525.274" y2="1525.229"/>
      <line x1="524.274" y1="1528.930" x2="524.274" y2="1525.229"/>
      <line x1="523.274" y1="1528.930" x2="523.274" y2="1525.229"/>
      <line x1="522.274" y1="1528.930" x2="522.274" y2="1525.229"/>
      <line x1="521.274" y1="1528.930" x2="521.274" y2="1525.229"/>
      <line x1="520.274" y1="1528.930" x2="520.274" y2="1525.229"/>
      <line x1="519.274" y1="1528.930" x2="519.274" y2="1525.229"/>
      <line x1="518.274" y1="1528.930" x2="518.274" y2="1525.229"/>
      <line x1="517.274" y1="1528.930" x2="517.274" y2="1525.229"/>
      <line x1="516.274" y1="1528.930" x2="516.274" y2="1525.229"/>
      <line x1="515.274" y1="1528.930" x2="515.274" y2="1525.229"/>
      <line x1="526.274" y1="1528.930" x2="526.274" y2="1525.229"/>
      <line x1="513.274" y1="1528.930" x2="513.274" y2="1525.229"/>
      <line x1="512.274" y1="1528.930" x2="512.274" y2="1525.229"/>
      <line x1="511.274" y1="1528.930" x2="511.274" y2="1525.229"/>
      <line x1="510.274" y1="1528.930" x2="510.274" y2="1525.229"/>
      <line x1="509.274" y1="1528.930" x2="509.274" y2="1525.229"/>
      <line x1="508.274" y1="1528.930" x2="508.274" y2="1525.229"/>
      <line x1="586.274" y1="1528.930" x2="586.274" y2="1525.229"/>
      <line x1="563.274" y1="1528.930" x2="563.274" y2="1525.229"/>
      <line x1="565.274" y1="1528.930" x2="565.274" y2="1525.229"/>
      <line x1="566.274" y1="1528.930" x2="566.274" y2="1525.229"/>
      <line x1="568.274" y1="1528.930" x2="568.274" y2="1525.229"/>
      <line x1="569.274" y1="1528.930" x2="569.274" y2="1525.229"/>
      <line x1="571.274" y1="1528.930" x2="571.274" y2="1525.229"/>
      <line x1="572.274" y1="1528.930" x2="572.274" y2="1525.229"/>
      <line x1="574.274" y1="1528.930" x2="574.274" y2="1525.229"/>
      <line x1="575.274" y1="1528.930" x2="575.274" y2="1525.229"/>
      <line x1="577.274" y1="1528.930" x2="577.274" y2="1525.229"/>
      <line x1="578.274" y1="1528.930" x2="578.274" y2="1525.229"/>
      <line x1="580.274" y1="1528.930" x2="580.274" y2="1525.229"/>
      <line x1="583.274" y1="1528.930" x2="583.274" y2="1525.229"/>
      <line x1="585.274" y1="1528.930" x2="585.274" y2="1525.229"/>
      <line x1="562.274" y1="1528.930" x2="562.274" y2="1525.229"/>
      <line x1="561.274" y1="1528.930" x2="561.274" y2="1525.229"/>
      <line x1="560.274" y1="1528.930" x2="560.274" y2="1525.229"/>
      <line x1="559.274" y1="1528.930" x2="559.274" y2="1525.229"/>
      <line x1="558.274" y1="1528.930" x2="558.274" y2="1525.229"/>
      <line x1="564.274" y1="1528.930" x2="564.274" y2="1525.229"/>
      <line x1="567.274" y1="1528.930" x2="567.274" y2="1525.229"/>
      <line x1="570.274" y1="1528.930" x2="570.274" y2="1525.229"/>
      <line x1="573.274" y1="1528.930" x2="573.274" y2="1525.229"/>
      <line x1="576.274" y1="1528.930" x2="576.274" y2="1525.229"/>
      <line x1="579.274" y1="1528.930" x2="579.274" y2="1525.229"/>
      <line x1="582.274" y1="1528.930" x2="582.274" y2="1525.229"/>
      <line x1="581.274" y1="1528.930" x2="581.274" y2="1525.229"/>
      <line x1="584.274" y1="1528.930" x2="584.274" y2="1525.229"/>
      <line x1="13.770" y1="1679.230" x2="13.770" y2="1629.230"/>
      <line x1="14.770" y1="1679.230" x2="14.770" y2="1629.230"/>
      <line x1="15.770" y1="1679.230" x2="15.770" y2="1629.230"/>
      <line x1="16.770" y1="1679.230" x2="16.770" y2="1629.230"/>
      <line x1="17.770" y1="1679.230" x2="17.770" y2="1629.230"/>
      <line x1="18.770" y1="1679.230" x2="18.770" y2="1629.230"/>
      <line x1="19.770" y1="1679.230" x2="19.770" y2="1629.230"/>
      <line x1="20.770" y1="1679.230" x2="20.770" y2="1629.230"/>
      <line x1="21.770" y1="1679.230" x2="21.770" y2="1629.230"/>
      <line x1="22.770" y1="1679.230" x2="22.770" y2="1629.230"/>
      <line x1="23.770" y1="1679.230" x2="23.770" y2="1629.230"/>
      <line x1="24.770" y1="1679.230" x2="24.770" y2="1629.230"/>
      <line x1="25.770" y1="1679.230" x2="25.770" y2="1629.230"/>
      <line x1="26.770" y1="1679.230" x2="26.770" y2="1629.230"/>
      <line x1="27.770" y1="1679.230" x2="27.770" y2="1629.230"/>
      <line x1="28.770" y1="1679.230" x2="28.770" y2="1629.230"/>
      <line x1="29.770" y1="1679.230" x2="29.770" y2="1629.230"/>
      <line x1="30.770" y1="1679.230" x2="30.770" y2="1629.230"/>
      <line x1="31.770" y1="1679.230" x2="31.770" y2="1629.230"/>
      <line x1="32.770" y1="1679.230" x2="32.770" y2="1629.230"/>
      <line x1="33.770" y1="1679.230" x2="33.770" y2="1629.230"/>
      <line x1="34.770" y1="1679.230" x2="34.770" y2="1629.230"/>
      <line x1="35.770" y1="1679.230" x2="35.770" y2="1629.230"/>
      <line x1="36.770" y1="1679.230" x2="36.770" y2="1629.230"/>
      <line x1="37.770" y1="1679.230" x2="37.770" y2="1629.230"/>
      <line x1="38.770" y1="1679.230" x2="38.770" y2="1629.230"/>
      <line x1="39.770" y1="1679.230" x2="39.770" y2="1629.230"/>
      <line x1="40.770" y1="1679.230" x2="40.770" y2="1629.230"/>
      <line x1="41.770" y1="1679.230" x2="41.770" y2="1629.230"/>
      <line x1="42.770" y1="1679.230" x2="42.770" y2="1629.230"/>
      <line x1="43.770" y1="1679.230" x2="43.770" y2="1629.230"/>
      <line x1="44.770" y1="1679.230" x2="44.770" y2="1629.230"/>
      <line x1="45.770" y1="1679.230" x2="45.770" y2="1629.230"/>
      <line x1="46.770" y1="1679.230" x2="46.770" y2="1629.230"/>
      <line x1="47.770" y1="1679.230" x2="47.770" y2="1629.230"/>
      <line x1="48.770" y1="1679.230" x2="48.770" y2="1629.230"/>
      <line x1="49.770" y1="1679.230" x2="49.770" y2="1629.230"/>
      <line x1="50.770" y1="1679.230" x2="50.770" y2="1629.230"/>
      <line x1="51.770" y1="1679.230" x2="51.770" y2="1629.230"/>
      <line x1="52.770" y1="1679.230" x2="52.770" y2="1629.230"/>
      <line x1="53.770" y1="1679.230" x2="53.770" y2="1629.230"/>
      <line x1="54.770" y1="1679.230" x2="54.770" y2="1629.230"/>
      <line x1="55.770" y1="1679.230" x2="55.770" y2="1629.230"/>
      <line x1="56.770" y1="1679.230" x2="56.770" y2="1629.230"/>
      <line x1="57.770" y1="1679.230" x2="57.770" y2="1629.230"/>
      <line x1="58.770" y1="1679.230" x2="58.770" y2="1629.230"/>
      <line x1="59.770" y1="1679.230" x2="59.770" y2="1629.230"/>
      <line x1="60.770" y1="1679.230" x2="60.770" y2="1629.230"/>
      <line x1="61.770" y1="1679.230" x2="61.770" y2="1629.230"/>
      <line x1="62.770" y1="1679.230" x2="62.770" y2="1629.230"/>
      <line x1="63.770" y1="1679.230" x2="63.770" y2="1629.230"/>
      <line x1="64.770" y1="1679.230" x2="64.770" y2="1629.230"/>
      <line x1="65.770" y1="1679.230" x2="65.770" y2="1629.230"/>
      <line x1="66.770" y1="1679.230" x2="66.770" y2="1629.230"/>
      <line x1="67.770" y1="1679.230" x2="67.770" y2="1629.230"/>
      <line x1="68.770" y1="1679.230" x2="68.770" y2="1629.230"/>
      <line x1="69.770" y1="1679.230" x2="69.770" y2="1629.230"/>
      <line x1="70.770" y1="1679.230" x2="70.770" y2="1629.230"/>
      <line x1="71.770" y1="1679.230" x2="71.770" y2="1629.230"/>
      <line x1="72.770" y1="1679.230" x2="72.770" y2="1629.230"/>
      <line x1="73.770" y1="1679.230" x2="73.770" y2="1629.230"/>
      <line x1="74.770" y1="1679.230" x2="74.770" y2="1629.230"/>
      <line x1="75.770" y1="1679.230" x2="75.770" y2="1629.230"/>
      <line x1="76.770" y1="1679.230" x2="76.770" y2="1629.230"/>
      <line x1="77.770" y1="1679.230" x2="77.770" y2="1629.230"/>
      <line x1="78.770" y1="1679.230" x2="78.770" y2="1629.230"/>
      <line x1="79.770" y1="1679.230" x2="79.770" y2="1629.230"/>
      <line x1="80.770" y1="1679.230" x2="80.770" y2="1629.230"/>
      <line x1="81.770" y1="1679.230" x2="81.770" y2="1629.230"/>
      <line x1="82.770" y1="1679.230" x2="82.770" y2="1629.230"/>
      <line x1="83.770" y1="1679.230" x2="83.770" y2="1629.230"/>
      <line x1="84.770" y1="1679.230" x2="84.770" y2="1629.230"/>
      <line x1="85.770" y1="1679.230" x2="85.770" y2="1629.230"/>
      <line x1="86.770" y1="1679.230" x2="86.770" y2="1629.230"/>
      <line x1="87.770" y1="1679.230" x2="87.770" y2="1629.230"/>
      <line x1="88.770" y1="1679.230" x2="88.770" y2="1629.230"/>
      <line x1="89.770" y1="1679.230" x2="89.770" y2="1629.230"/>
      <line x1="90.770" y1="1679.230" x2="90.770" y2="1629.230"/>
      <line x1="91.770" y1="1679.230" x2="91.770" y2="1629.230"/>
      <line x1="92.770" y1="1679.230" x2="92.770" y2="1629.230"/>
      <line x1="93.770" y1="1679.230" x2="93.770" y2="1629.230"/>
      <line x1="94.770" y1="1679.230" x2="94.770" y2="1629.230"/>
      <line x1="95.770" y1="1679.230" x2="95.770" y2="1629.230"/>
      <line x1="96.770" y1="1679.230" x2="96.770" y2="1629.230"/>
      <line x1="97.770" y1="1679.230" x2="97.770" y2="1629.230"/>
      <line x1="98.770" y1="1679.230" x2="98.770" y2="1629.230"/>
      <line x1="99.770" y1="1679.230" x2="99.770" y2="1629.230"/>
      <line x1="100.770" y1="1679.230" x2="100.770" y2="1629.230"/>
      <line x1="101.770" y1="1679.230" x2="101.770" y2="1629.230"/>
      <line x1="102.770" y1="1679.230" x2="102.770" y2="1629.230"/>
      <line x1="103.770" y1="1679.230" x2="103.770" y2="1629.230"/>
      <line x1="104.770" y1="1679.230" x2="104.770" y2="1629.230"/>
      <line x1="105.770" y1="1679.230" x2="105.770" y2="1629.230"/>
      <line x1="106.770" y1="1679.230" x2="106.770" y2="1629.230"/>
      <line x1="107.770" y1="1679.230" x2="107.770" y2="1629.230"/>
      <line x1="108.770" y1="1679.230" x2="108.770" y2="1629.230"/>
      <line x1="109.770" y1="1679.230" x2="109.770" y2="1629.230"/>
      <line x1="110.770" y1="1679.230" x2="110.770" y2="1629.230"/>
      <line x1="111.770" y1="1679.230" x2="111.770" y2="1629.230"/>
      <line x1="112.770" y1="1679.230" x2="112.770" y2="1629.230"/>
      <line x1="113.770" y1="1679.230" x2="113.770" y2="1629.230"/>
      <line x1="114.770" y1="1679.230" x2="114.770" y2="1629.230"/>
      <line x1="115.770" y1="1679.230" x2="115.770" y2="1629.230"/>
      <line x1="116.770" y1="1679.230" x2="116.770" y2="1629.230"/>
      <line x1="117.770" y1="1679.230" x2="117.770" y2="1629.230"/>
      <line x1="118.770" y1="1679.230" x2="118.770" y2="1629.230"/>
      <line x1="119.770" y1="1679.230" x2="119.770" y2="1629.230"/>
      <line x1="120.770" y1="1679.230" x2="120.770" y2="1629.230"/>
      <line x1="121.770" y1="1679.230" x2="121.770" y2="1629.230"/>
      <line x1="122.770" y1="1679.230" x2="122.770" y2="1629.230"/>
      <line x1="123.770" y1="1679.230" x2="123.770" y2="1629.230"/>
      <line x1="124.770" y1="1679.230" x2="124.770" y2="1629.230"/>
      <line x1="125.770" y1="1679.230" x2="125.770" y2="1629.230"/>
      <line x1="126.770" y1="1679.230" x2="126.770" y2="1629.230"/>
      <line x1="127.770" y1="1679.230" x2="127.770" y2="1629.230"/>
      <line x1="128.770" y1="1679.230" x2="128.770" y2="1629.230"/>
      <line x1="129.770" y1="1679.230" x2="129.770" y2="1629.230"/>
      <line x1="130.770" y1="1679.230" x2="130.770" y2="1629.230"/>
      <line x1="131.770" y1="1679.230" x2="131.770" y2="1629.230"/>
      <line x1="132.770" y1="1679.230" x2="132.770" y2="1629.230"/>
      <line x1="133.770" y1="1679.230" x2="133.770" y2="1629.230"/>
      <line x1="134.770" y1="1679.230" x2="134.770" y2="1629.230"/>
      <line x1="135.770" y1="1679.230" x2="135.770" y2="1629.230"/>
      <line x1="136.770" y1="1679.230" x2="136.770" y2="1629.230"/>
      <line x1="137.770" y1="1679.230" x2="137.770" y2="1629.230"/>
      <line x1="138.770" y1="1679.230" x2="138.770" y2="1629.230"/>
      <line x1="139.770" y1="1679.230" x2="139.770" y2="1629.230"/>
      <line x1="140.770" y1="1679.230" x2="140.770" y2="1629.230"/>
      <line x1="141.770" y1="1679.230" x2="141.770" y2="1629.230"/>
      <line x1="13.770" y1="1629.130" x2="13.770" y2="1579.130"/>
      <line x1="14.770" y1="1629.130" x2="14.770" y2="1579.130"/>
      <line x1="15.770" y1="1629.130" x2="15.770" y2="1579.130"/>
      <line x1="16.770" y1="1629.130" x2="16.770" y2="1579.130"/>
      <line x1="17.770" y1="1629.130" x2="17.770" y2="1579.130"/>
      <line x1="18.770" y1="1629.130" x2="18.770" y2="1579.130"/>
      <line x1="19.770" y1="1629.130" x2="19.770" y2="1579.130"/>
      <line x1="20.770" y1="1629.130" x2="20.770" y2="1579.130"/>
      <line x1="21.770" y1="1629.130" x2="21.770" y2="1579.130"/>
      <line x1="22.770" y1="1629.130" x2="22.770" y2="1579.130"/>
      <line x1="23.770" y1="1629.130" x2="23.770" y2="1579.130"/>
      <line x1="24.770" y1="1629.130" x2="24.770" y2="1579.130"/>
      <line x1="25.770" y1="1629.130" x2="25.770" y2="1579.130"/>
      <line x1="26.770" y1="1629.130" x2="26.770" y2="1579.130"/>
      <line x1="27.770" y1="1629.130" x2="27.770" y2="1579.130"/>
      <line x1="28.770" y1="1629.130" x2="28.770" y2="1579.130"/>
      <line x1="29.770" y1="1629.130" x2="29.770" y2="1579.130"/>
      <line x1="30.770" y1="1629.130" x2="30.770" y2="1579.130"/>
      <line x1="31.770" y1="1629.130" x2="31.770" y2="1579.130"/>
      <line x1="32.770" y1="1629.130" x2="32.770" y2="1579.130"/>
      <line x1="33.770" y1="1629.130" x2="33.770" y2="1579.130"/>
      <line x1="34.770" y1="1629.130" x2="34.770" y2="1579.130"/>
      <line x1="35.770" y1="1629.130" x2="35.770" y2="1579.130"/>
      <line x1="36.770" y1="1629.130" x2="36.770" y2="1579.130"/>
      <line x1="37.770" y1="1629.130" x2="37.770" y2="1579.130"/>
      <line x1="38.770" y1="1629.130" x2="38.770" y2="1579.130"/>
      <line x1="39.770" y1="1629.130" x2="39.770" y2="1579.130"/>
      <line x1="40.770" y1="1629.130" x2="40.770" y2="1579.130"/>
      <line x1="41.770" y1="1629.130" x2="41.770" y2="1579.130"/>
      <line x1="42.770" y1="1629.130" x2="42.770" y2="1579.130"/>
      <line x1="43.770" y1="1629.130" x2="43.770" y2="1579.130"/>
      <line x1="44.770" y1="1629.130" x2="44.770" y2="1579.130"/>
      <line x1="45.770" y1="1629.130" x2="45.770" y2="1579.130"/>
      <line x1="46.770" y1="1629.130" x2="46.770" y2="1579.130"/>
      <line x1="47.770" y1="1629.130" x2="47.770" y2="1579.130"/>
      <line x1="48.770" y1="1629.130" x2="48.770" y2="1579.130"/>
      <line x1="49.770" y1="1629.130" x2="49.770" y2="1579.130"/>
      <line x1="50.770" y1="1629.130" x2="50.770" y2="1579.130"/>
      <line x1="51.770" y1="1629.130" x2="51.770" y2="1579.130"/>
      <line x1="52.770" y1="1629.130" x2="52.770" y2="1579.130"/>
      <line x1="53.770" y1="1629.130" x2="53.770" y2="1579.130"/>
      <line x1="54.770" y1="1629.130" x2="54.770" y2="1579.130"/>
      <line x1="55.770" y1="1629.130" x2="55.770" y2="1579.130"/>
      <line x1="56.770" y1="1629.130" x2="56.770" y2="1579.130"/>
      <line x1="57.770" y1="1629.130" x2="57.770" y2="1579.130"/>
      <line x1="58.770" y1="1629.130" x2="58.770" y2="1579.130"/>
      <line x1="59.770" y1="1629.130" x2="59.770" y2="1579.130"/>
      <line x1="60.770" y1="1629.130" x2="60.770" y2="1579.130"/>
      <line x1="61.770" y1="1629.130" x2="61.770" y2="1579.130"/>
      <line x1="62.770" y1="1629.130" x2="62.770" y2="1579.130"/>
      <line x1="63.770" y1="1629.130" x2="63.770" y2="1579.130"/>
      <line x1="64.770" y1="1629.130" x2="64.770" y2="1579.130"/>
      <line x1="65.770" y1="1629.130" x2="65.770" y2="1579.130"/>
      <line x1="66.770" y1="1629.130" x2="66.770" y2="1579.130"/>
      <line x1="67.770" y1="1629.130" x2="67.770" y2="1579.130"/>
      <line x1="68.770" y1="1629.130" x2="68.770" y2="1579.130"/>
      <line x1="69.770" y1="1629.130" x2="69.770" y2="1579.130"/>
      <line x1="70.770" y1="1629.130" x2="70.770" y2="1579.130"/>
      <line x1="71.770" y1="1629.130" x2="71.770" y2="1579.130"/>
      <line x1="72.770" y1="1629.130" x2="72.770" y2="1579.130"/>
      <line x1="73.770" y1="1629.130" x2="73.770" y2="1579.130"/>
      <line x1="74.770" y1="1629.130" x2="74.770" y2="1579.130"/>
      <line x1="75.770" y1="1629.130" x2="75.770" y2="1579.130"/>
      <line x1="76.770" y1="1629.130" x2="76.770" y2="1579.130"/>
      <line x1="77.770" y1="1629.130" x2="77.770" y2="1579.130"/>
      <line x1="78.770" y1="1629.130" x2="78.770" y2="1579.130"/>
      <line x1="79.770" y1="1629.130" x2="79.770" y2="1579.130"/>
      <line x1="80.770" y1="1629.130" x2="80.770" y2="1579.130"/>
      <line x1="81.770" y1="1629.130" x2="81.770" y2="1579.130"/>
      <line x1="82.770" y1="1629.130" x2="82.770" y2="1579.130"/>
      <line x1="83.770" y1="1629.130" x2="83.770" y2="1579.130"/>
      <line x1="84.770" y1="1629.130" x2="84.770" y2="1579.130"/>
      <line x1="85.770" y1="1629.130" x2="85.770" y2="1579.130"/>
      <line x1="86.770" y1="1629.130" x2="86.770" y2="1579.130"/>
      <line x1="87.770" y1="1629.130" x2="87.770" y2="1579.130"/>
      <line x1="88.770" y1="1629.130" x2="88.770" y2="1579.130"/>
      <line x1="89.770" y1="1629.130" x2="89.770" y2="1579.130"/>
      <line x1="90.770" y1="1629.130" x2="90.770" y2="1579.130"/>
      <line x1="91.770" y1="1629.130" x2="91.770" y2="1579.130"/>
      <line x1="92.770" y1="1629.130" x2="92.770" y2="1579.130"/>
      <line x1="93.770" y1="1629.130" x2="93.770" y2="1579.130"/>
      <line x1="94.770" y1="1629.130" x2="94.770" y2="1579.130"/>
      <line x1="95.770" y1="1629.130" x2="95.770" y2="1579.130"/>
      <line x1="96.770" y1="1629.130" x2="96.770" y2="1579.130"/>
      <line x1="97.770" y1="1629.130" x2="97.770" y2="1579.130"/>
      <line x1="98.770" y1="1629.130" x2="98.770" y2="1579.130"/>
      <line x1="99.770" y1="1629.130" x2="99.770" y2="1579.130"/>
      <line x1="100.770" y1="1629.130" x2="100.770" y2="1579.130"/>
      <line x1="101.770" y1="1629.130" x2="101.770" y2="1579.130"/>
      <line x1="102.770" y1="1629.130" x2="102.770" y2="1579.130"/>
      <line x1="103.770" y1="1629.130" x2="103.770" y2="1579.130"/>
      <line x1="104.770" y1="1629.130" x2="104.770" y2="1579.130"/>
      <line x1="105.770" y1="1629.130" x2="105.770" y2="1579.130"/>
      <line x1="106.770" y1="1629.130" x2="106.770" y2="1579.130"/>
      <line x1="107.770" y1="1629.130" x2="107.770" y2="1579.130"/>
      <line x1="108.770" y1="1629.130" x2="108.770" y2="1579.130"/>
      <line x1="109.770" y1="1629.130" x2="109.770" y2="1579.130"/>
      <line x1="110.770" y1="1629.130" x2="110.770" y2="1579.130"/>
      <line x1="111.770" y1="1629.130" x2="111.770" y2="1579.130"/>
      <line x1="112.770" y1="1629.130" x2="112.770" y2="1579.130"/>
      <line x1="113.770" y1="1629.130" x2="113.770" y2="1579.130"/>
      <line x1="114.770" y1="1629.130" x2="114.770" y2="1579.130"/>
      <line x1="115.770" y1="1629.130" x2="115.770" y2="1579.130"/>
      <line x1="116.770" y1="1629.130" x2="116.770" y2="1579.130"/>
      <line x1="117.770" y1="1629.130" x2="117.770" y2="1579.130"/>
      <line x1="118.770" y1="1629.130" x2="118.770" y2="1579.130"/>
      <line x1="119.770" y1="1629.130" x2="119.770" y2="1579.130"/>
      <line x1="120.770" y1="1629.130" x2="120.770" y2="1579.130"/>
      <line x1="121.770" y1="1629.130" x2="121.770" y2="1579.130"/>
      <line x1="122.770" y1="1629.130" x2="122.770" y2="1579.130"/>
      <line x1="123.770" y1="1629.130" x2="123.770" y2="1579.130"/>
      <line x1="124.770" y1="1629.130" x2="124.770" y2="1579.130"/>
      <line x1="125.770" y1="1629.130" x2="125.770" y2="1579.130"/>
      <line x1="126.770" y1="1629.130" x2="126.770" y2="1579.130"/>
      <line x1="127.770" y1="1629.130" x2="127.770" y2="1579.130"/>
      <line x1="128.770" y1="1629.130" x2="128.770" y2="1579.130"/>
      <line x1="129.770" y1="1629.130" x2="129.770" y2="1579.130"/>
      <line x1="130.770" y1="1629.130" x2="130.770" y2="1579.130"/>
      <line x1="131.770" y1="1629.130" x2="131.770" y2="1579.130"/>
      <line x1="132.770" y1="1629.130" x2="132.770" y2="1579.130"/>
      <line x1="133.770" y1="1629.130" x2="133.770" y2="1579.130"/>
      <line x1="134.770" y1="1629.130" x2="134.770" y2="1579.130"/>
      <line x1="135.770" y1="1629.130" x2="135.770" y2="1579.130"/>
      <line x1="136.770" y1="1629.130" x2="136.770" y2="1579.130"/>
      <line x1="137.770" y1="1629.130" x2="137.770" y2="1579.130"/>
      <line x1="138.770" y1="1629.130" x2="138.770" y2="1579.130"/>
      <line x1="139.770" y1="1629.130" x2="139.770" y2="1579.130"/>
      <line x1="140.770" y1="1629.130" x2="140.770" y2="1579.130"/>
      <line x1="141.770" y1="1629.130" x2="141.770" y2="1579.130"/>
      <line x1="13.770" y1="1579.030" x2="13.770" y2="1529.030"/>
      <line x1="14.770" y1="1579.030" x2="14.770" y2="1529.030"/>
      <line x1="15.770" y1="1579.030" x2="15.770" y2="1529.030"/>
      <line x1="16.770" y1="1579.030" x2="16.770" y2="1529.030"/>
      <line x1="17.770" y1="1579.030" x2="17.770" y2="1529.030"/>
      <line x1="18.770" y1="1579.030" x2="18.770" y2="1529.030"/>
      <line x1="19.770" y1="1579.030" x2="19.770" y2="1529.030"/>
      <line x1="20.770" y1="1579.030" x2="20.770" y2="1529.030"/>
      <line x1="21.770" y1="1579.030" x2="21.770" y2="1529.030"/>
      <line x1="22.770" y1="1579.030" x2="22.770" y2="1529.030"/>
      <line x1="23.770" y1="1579.030" x2="23.770" y2="1529.030"/>
      <line x1="24.770" y1="1579.030" x2="24.770" y2="1529.030"/>
      <line x1="25.770" y1="1579.030" x2="25.770" y2="1529.030"/>
      <line x1="26.770" y1="1579.030" x2="26.770" y2="1529.030"/>
      <line x1="27.770" y1="1579.030" x2="27.770" y2="1529.030"/>
      <line x1="28.770" y1="1579.030" x2="28.770" y2="1529.030"/>
      <line x1="29.770" y1="1579.030" x2="29.770" y2="1529.030"/>
      <line x1="30.770" y1="1579.030" x2="30.770" y2="1529.030"/>
      <line x1="31.770" y1="1579.030" x2="31.770" y2="1529.030"/>
      <line x1="32.770" y1="1579.030" x2="32.770" y2="1529.030"/>
      <line x1="33.770" y1="1579.030" x2="33.770" y2="1529.030"/>
      <line x1="34.770" y1="1579.030" x2="34.770" y2="1529.030"/>
      <line x1="35.770" y1="1579.030" x2="35.770" y2="1529.030"/>
      <line x1="36.770" y1="1579.030" x2="36.770" y2="1529.030"/>
      <line x1="37.770" y1="1579.030" x2="37.770" y2="1529.030"/>
      <line x1="38.770" y1="1579.030" x2="38.770" y2="1529.030"/>
      <line x1="39.770" y1="1579.030" x2="39.770" y2="1529.030"/>
      <line x1="40.770" y1="1579.030" x2="40.770" y2="1529.030"/>
      <line x1="41.770" y1="1579.030" x2="41.770" y2="1529.030"/>
      <line x1="42.770" y1="1579.030" x2="42.770" y2="1529.030"/>
      <line x1="43.770" y1="1579.030" x2="43.770" y2="1529.030"/>
      <line x1="44.770" y1="1579.030" x2="44.770" y2="1529.030"/>
      <line x1="45.770" y1="1579.030" x2="45.770" y2="1529.030"/>
      <line x1="46.770" y1="1579.030" x2="46.770" y2="1529.030"/>
      <line x1="47.770" y1="1579.030" x2="47.770" y2="1529.030"/>
      <line x1="48.770" y1="1579.030" x2="48.770" y2="1529.030"/>
      <line x1="49.770" y1="1579.030" x2="49.770" y2="1529.030"/>
      <line x1="50.770" y1="1579.030" x2="50.770" y2="1529.030"/>
      <line x1="51.770" y1="1579.030" x2="51.770" y2="1529.030"/>
      <line x1="52.770" y1="1579.030" x2="52.770" y2="1529.030"/>
      <line x1="53.770" y1="1579.030" x2="53.770" y2="1529.030"/>
      <line x1="54.770" y1="1579.030" x2="54.770" y2="1529.030"/>
      <line x1="55.770" y1="1579.030" x2="55.770" y2="1529.030"/>
      <line x1="56.770" y1="1579.030" x2="56.770" y2="1529.030"/>
      <line x1="57.770" y1="1579.030" x2="57.770" y2="1529.030"/>
      <line x1="58.770" y1="1579.030" x2="58.770" y2="1529.030"/>
      <line x1="59.770" y1="1579.030" x2="59.770" y2="1529.030"/>
      <line x1="60.770" y1="1579.030" x2="60.770" y2="1529.030"/>
      <line x1="61.770" y1="1579.030" x2="61.770" y2="1529.030"/>
      <line x1="62.770" y1="1579.030" x2="62.770" y2="1529.030"/>
      <line x1="63.770" y1="1579.030" x2="63.770" y2="1529.030"/>
      <line x1="64.770" y1="1579.030" x2="64.770" y2="1529.030"/>
      <line x1="65.770" y1="1579.030" x2="65.770" y2="1529.030"/>
      <line x1="66.770" y1="1579.030" x2="66.770" y2="1529.030"/>
      <line x1="67.770" y1="1579.030" x2="67.770" y2="1529.030"/>
      <line x1="68.770" y1="1579.030" x2="68.770" y2="1529.030"/>
      <line x1="69.770" y1="1579.030" x2="69.770" y2="1529.030"/>
      <line x1="70.770" y1="1579.030" x2="70.770" y2="1529.030"/>
      <line x1="71.770" y1="1579.030" x2="71.770" y2="1529.030"/>
      <line x1="72.770" y1="1579.030" x2="72.770" y2="1529.030"/>
      <line x1="73.770" y1="1579.030" x2="73.770" y2="1529.030"/>
      <line x1="74.770" y1="1579.030" x2="74.770" y2="1529.030"/>
      <line x1="75.770" y1="1579.030" x2="75.770" y2="1529.030"/>
      <line x1="76.770" y1="1579.030" x2="76.770" y2="1529.030"/>
      <line x1="77.770" y1="1579.030" x2="77.770" y2="1529.030"/>
      <line x1="78.770" y1="1579.030" x2="78.770" y2="1529.030"/>
      <line x1="79.770" y1="1579.030" x2="79.770" y2="1529.030"/>
      <line x1="80.770" y1="1579.030" x2="80.770" y2="1529.030"/>
      <line x1="81.770" y1="1579.030" x2="81.770" y2="1529.030"/>
      <line x1="82.770" y1="1579.030" x2="82.770" y2="1529.030"/>
      <line x1="83.770" y1="1579.030" x2="83.770" y2="1529.030"/>
      <line x1="84.770" y1="1579.030" x2="84.770" y2="1529.030"/>
      <line x1="85.770" y1="1579.030" x2="85.770" y2="1529.030"/>
      <line x1="86.770" y1="1579.030" x2="86.770" y2="1529.030"/>
      <line x1="87.770" y1="1579.030" x2="87.770" y2="1529.030"/>
      <line x1="88.770" y1="1579.030" x2="88.770" y2="1529.030"/>
      <line x1="89.770" y1="1579.030" x2="89.770" y2="1529.030"/>
      <line x1="90.770" y1="1579.030" x2="90.770" y2="1529.030"/>
      <line x1="91.770" y1="1579.030" x2="91.770" y2="1529.030"/>
      <line x1="92.770" y1="1579.030" x2="92.770" y2="1529.030"/>
      <line x1="93.770" y1="1579.030" x2="93.770" y2="1529.030"/>
      <line x1="94.770" y1="1579.030" x2="94.770" y2="1529.030"/>
      <line x1="95.770" y1="1579.030" x2="95.770" y2="1529.030"/>
      <line x1="96.770" y1="1579.030" x2="96.770" y2="1529.030"/>
      <line x1="97.770" y1="1579.030" x2="97.770" y2="1529.030"/>
      <line x1="98.770" y1="1579.030" x2="98.770" y2="1529.030"/>
      <line x1="99.770" y1="1579.030" x2="99.770" y2="1529.030"/>
      <line x1="100.770" y1="1579.030" x2="100.770" y2="1529.030"/>
      <line x1="101.770" y1="1579.030" x2="101.770" y2="1529.030"/>
      <line x1="102.770" y1="1579.030" x2="102.770" y2="1529.030"/>
      <line x1="103.770" y1="1579.030" x2="103.770" y2="1529.030"/>
      <line x1="104.770" y1="1579.030" x2="104.770" y2="1529.030"/>
      <line x1="105.770" y1="1579.030" x2="105.770" y2="1529.030"/>
      <line x1="106.770" y1="1579.030" x2="106.770" y2="1529.030"/>
      <line x1="107.770" y1="1579.030" x2="107.770" y2="1529.030"/>
      <line x1="108.770" y1="1579.030" x2="108.770" y2="1529.030"/>
      <line x1="109.770" y1="1579.030" x2="109.770" y2="1529.030"/>
      <line x1="110.770" y1="1579.030" x2="110.770" y2="1529.030"/>
      <line x1="111.770" y1="1579.030" x2="111.770" y2="1529.030"/>
      <line x1="112.770" y1="1579.030" x2="112.770" y2="1529.030"/>
      <line x1="113.770" y1="1579.030" x2="113.770" y2="1529.030"/>
      <line x1="114.770" y1="1579.030" x2="114.770" y2="1529.030"/>
      <line x1="115.770" y1="1579.030" x2="115.770" y2="1529.030"/>
      <line x1="116.770" y1="1579.030" x2="116.770" y2="1529.030"/>
      <line x1="117.770" y1="1579.030" x2="117.770" y2="1529.030"/>
      <line x1="118.770" y1="1579.030" x2="118.770" y2="1529.030"/>
      <line x1="119.770" y1="1579.030" x2="119.770" y2="1529.030"/>
      <line x1="120.770" y1="1579.030" x2="120.770" y2="1529.030"/>
      <line x1="121.770" y1="1579.030" x2="121.770" y2="1529.030"/>
      <line x1="122.770" y1="1579.030" x2="122.770" y2="1529.030"/>
      <line x1="123.770" y1="1579.030" x2="123.770" y2="1529.030"/>
      <line x1="124.770" y1="1579.030" x2="124.770" y2="1529.030"/>
      <line x1="125.770" y1="1579.030" x2="125.770" y2="1529.030"/>
      <line x1="126.770" y1="1579.030" x2="126.770" y2="1529.030"/>
      <line x1="127.770" y1="1579.030" x2="127.770" y2="1529.030"/>
      <line x1="128.770" y1="1579.030" x2="128.770" y2="1529.030"/>
      <line x1="129.770" y1="1579.030" x2="129.770" y2="1529.030"/>
      <line x1="130.770" y1="1579.030" x2="130.770" y2="1529.030"/>
      <line x1="131.770" y1="1579.030" x2="131.770" y2="1529.030"/>
      <line x1="132.770" y1="1579.030" x2="132.770" y2="1529.030"/>
      <line x1="133.770" y1="1579.030" x2="133.770" y2="1529.030"/>
      <line x1="134.770" y1="1579.030" x2="134.770" y2="1529.030"/>
      <line x1="135.770" y1="1579.030" x2="135.770" y2="1529.030"/>
      <line x1="136.770" y1="1579.030" x2="136.770" y2="1529.030"/>
      <line x1="137.770" y1="1579.030" x2="137.770" y2="1529.030"/>
      <line x1="138.770" y1="1579.030" x2="138.770" y2="1529.030"/>
      <line x1="139.770" y1="1579.030" x2="139.770" y2="1529.030"/>
      <line x1="140.770" y1="1579.030" x2="140.770" y2="1529.030"/>
      <line x1="141.770" y1="1579.030" x2="141.770" y2="1529.030"/>
      <line x1="36.770" y1="1528.930" x2="36.770" y2="1525.229"/>
      <line x1="13.770" y1="1528.930" x2="13.770" y2="1525.229"/>
      <line x1="14.770" y1="1528.930" x2="14.770" y2="1525.229"/>
      <line x1="16.770" y1="1528.930" x2="16.770" y2="1525.229"/>
      <line x1="19.770" y1="1528.930" x2="19.770" y2="1525.229"/>
      <line x1="21.770" y1="1528.930" x2="21.770" y2="1525.229"/>
      <line x1="22.770" y1="1528.930" x2="22.770" y2="1525.229"/>
      <line x1="24.770" y1="1528.930" x2="24.770" y2="1525.229"/>
      <line x1="27.770" y1="1528.930" x2="27.770" y2="1525.229"/>
      <line x1="34.770" y1="1528.930" x2="34.770" y2="1525.229"/>
      <line x1="33.770" y1="1528.930" x2="33.770" y2="1525.229"/>
      <line x1="30.770" y1="1528.930" x2="30.770" y2="1525.229"/>
      <line x1="25.770" y1="1528.930" x2="25.770" y2="1525.229"/>
      <line x1="31.770" y1="1528.930" x2="31.770" y2="1525.229"/>
      <line x1="28.770" y1="1528.930" x2="28.770" y2="1525.229"/>
      <line x1="18.770" y1="1528.930" x2="18.770" y2="1525.229"/>
      <line x1="17.770" y1="1528.930" x2="17.770" y2="1525.229"/>
      <line x1="20.770" y1="1528.930" x2="20.770" y2="1525.229"/>
      <line x1="23.770" y1="1528.930" x2="23.770" y2="1525.229"/>
      <line x1="26.770" y1="1528.930" x2="26.770" y2="1525.229"/>
      <line x1="29.770" y1="1528.930" x2="29.770" y2="1525.229"/>
      <line x1="32.770" y1="1528.930" x2="32.770" y2="1525.229"/>
      <line x1="35.770" y1="1528.930" x2="35.770" y2="1525.229"/>
      <line x1="15.770" y1="1528.930" x2="15.770" y2="1525.229"/>
      <line x1="47.770" y1="1528.930" x2="47.770" y2="1525.229"/>
      <line x1="46.770" y1="1528.930" x2="46.770" y2="1525.229"/>
      <line x1="45.770" y1="1528.930" x2="45.770" y2="1525.229"/>
      <line x1="44.770" y1="1528.930" x2="44.770" y2="1525.229"/>
      <line x1="43.770" y1="1528.930" x2="43.770" y2="1525.229"/>
      <line x1="42.770" y1="1528.930" x2="42.770" y2="1525.229"/>
      <line x1="41.770" y1="1528.930" x2="41.770" y2="1525.229"/>
      <line x1="40.770" y1="1528.930" x2="40.770" y2="1525.229"/>
      <line x1="39.770" y1="1528.930" x2="39.770" y2="1525.229"/>
      <line x1="38.770" y1="1528.930" x2="38.770" y2="1525.229"/>
      <line x1="37.770" y1="1528.930" x2="37.770" y2="1525.229"/>
      <line x1="48.770" y1="1528.930" x2="48.770" y2="1525.229"/>
      <line x1="60.770" y1="1528.930" x2="60.770" y2="1525.229"/>
      <line x1="62.770" y1="1528.930" x2="62.770" y2="1525.229"/>
      <line x1="61.770" y1="1528.930" x2="61.770" y2="1525.229"/>
      <line x1="59.770" y1="1528.930" x2="59.770" y2="1525.229"/>
      <line x1="58.770" y1="1528.930" x2="58.770" y2="1525.229"/>
      <line x1="57.770" y1="1528.930" x2="57.770" y2="1525.229"/>
      <line x1="56.770" y1="1528.930" x2="56.770" y2="1525.229"/>
      <line x1="55.770" y1="1528.930" x2="55.770" y2="1525.229"/>
      <line x1="54.770" y1="1528.930" x2="54.770" y2="1525.229"/>
      <line x1="53.770" y1="1528.930" x2="53.770" y2="1525.229"/>
      <line x1="52.770" y1="1528.930" x2="52.770" y2="1525.229"/>
      <line x1="51.770" y1="1528.930" x2="51.770" y2="1525.229"/>
      <line x1="50.770" y1="1528.930" x2="50.770" y2="1525.229"/>
      <line x1="49.770" y1="1528.930" x2="49.770" y2="1525.229"/>
      <line x1="112.770" y1="1528.930" x2="112.770" y2="1525.229"/>
      <line x1="84.770" y1="1528.930" x2="84.770" y2="1525.229"/>
      <line x1="95.770" y1="1528.930" x2="95.770" y2="1525.229"/>
      <line x1="94.770" y1="1528.930" x2="94.770" y2="1525.229"/>
      <line x1="93.770" y1="1528.930" x2="93.770" y2="1525.229"/>
      <line x1="92.770" y1="1528.930" x2="92.770" y2="1525.229"/>
      <line x1="91.770" y1="1528.930" x2="91.770" y2="1525.229"/>
      <line x1="90.770" y1="1528.930" x2="90.770" y2="1525.229"/>
      <line x1="89.770" y1="1528.930" x2="89.770" y2="1525.229"/>
      <line x1="88.770" y1="1528.930" x2="88.770" y2="1525.229"/>
      <line x1="87.770" y1="1528.930" x2="87.770" y2="1525.229"/>
      <line x1="86.770" y1="1528.930" x2="86.770" y2="1525.229"/>
      <line x1="85.770" y1="1528.930" x2="85.770" y2="1525.229"/>
      <line x1="96.770" y1="1528.930" x2="96.770" y2="1525.229"/>
      <line x1="83.770" y1="1528.930" x2="83.770" y2="1525.229"/>
      <line x1="82.770" y1="1528.930" x2="82.770" y2="1525.229"/>
      <line x1="81.770" y1="1528.930" x2="81.770" y2="1525.229"/>
      <line x1="80.770" y1="1528.930" x2="80.770" y2="1525.229"/>
      <line x1="79.770" y1="1528.930" x2="79.770" y2="1525.229"/>
      <line x1="78.770" y1="1528.930" x2="78.770" y2="1525.229"/>
      <line x1="77.770" y1="1528.930" x2="77.770" y2="1525.229"/>
      <line x1="76.770" y1="1528.930" x2="76.770" y2="1525.229"/>
      <line x1="75.770" y1="1528.930" x2="75.770" y2="1525.229"/>
      <line x1="74.770" y1="1528.930" x2="74.770" y2="1525.229"/>
      <line x1="73.770" y1="1528.930" x2="73.770" y2="1525.229"/>
      <line x1="108.770" y1="1528.930" x2="108.770" y2="1525.229"/>
      <line x1="111.770" y1="1528.930" x2="111.770" y2="1525.229"/>
      <line x1="110.770" y1="1528.930" x2="110.770" y2="1525.229"/>
      <line x1="109.770" y1="1528.930" x2="109.770" y2="1525.229"/>
      <line x1="107.770" y1="1528.930" x2="107.770" y2="1525.229"/>
      <line x1="106.770" y1="1528.930" x2="106.770" y2="1525.229"/>
      <line x1="105.770" y1="1528.930" x2="105.770" y2="1525.229"/>
      <line x1="104.770" y1="1528.930" x2="104.770" y2="1525.229"/>
      <line x1="103.770" y1="1528.930" x2="103.770" y2="1525.229"/>
      <line x1="102.770" y1="1528.930" x2="102.770" y2="1525.229"/>
      <line x1="101.770" y1="1528.930" x2="101.770" y2="1525.229"/>
      <line x1="100.770" y1="1528.930" x2="100.770" y2="1525.229"/>
      <line x1="99.770" y1="1528.930" x2="99.770" y2="1525.229"/>
      <line x1="98.770" y1="1528.930" x2="98.770" y2="1525.229"/>
      <line x1="97.770" y1="1528.930" x2="97.770" y2="1525.229"/>
      <line x1="71.770" y1="1528.930" x2="71.770" y2="1525.229"/>
      <line x1="70.770" y1="1528.930" x2="70.770" y2="1525.229"/>
      <line x1="69.770" y1="1528.930" x2="69.770" y2="1525.229"/>
      <line x1="68.770" y1="1528.930" x2="68.770" y2="1525.229"/>
      <line x1="67.770" y1="1528.930" x2="67.770" y2="1525.229"/>
      <line x1="66.770" y1="1528.930" x2="66.770" y2="1525.229"/>
      <line x1="65.770" y1="1528.930" x2="65.770" y2="1525.229"/>
      <line x1="64.770" y1="1528.930" x2="64.770" y2="1525.229"/>
      <line x1="63.770" y1="1528.930" x2="63.770" y2="1525.229"/>
      <line x1="72.770" y1="1528.930" x2="72.770" y2="1525.229"/>
      <line x1="113.770" y1="1528.930" x2="113.770" y2="1525.229"/>
      <line x1="141.770" y1="1528.930" x2="141.770" y2="1525.229"/>
      <line x1="115.770" y1="1528.930" x2="115.770" y2="1525.229"/>
      <line x1="118.770" y1="1528.930" x2="118.770" y2="1525.229"/>
      <line x1="120.770" y1="1528.930" x2="120.770" y2="1525.229"/>
      <line x1="121.770" y1="1528.930" x2="121.770" y2="1525.229"/>
      <line x1="123.770" y1="1528.930" x2="123.770" y2="1525.229"/>
      <line x1="124.770" y1="1528.930" x2="124.770" y2="1525.229"/>
      <line x1="126.770" y1="1528.930" x2="126.770" y2="1525.229"/>
      <line x1="127.770" y1="1528.930" x2="127.770" y2="1525.229"/>
      <line x1="129.770" y1="1528.930" x2="129.770" y2="1525.229"/>
      <line x1="130.770" y1="1528.930" x2="130.770" y2="1525.229"/>
      <line x1="132.770" y1="1528.930" x2="132.770" y2="1525.229"/>
      <line x1="133.770" y1="1528.930" x2="133.770" y2="1525.229"/>
      <line x1="135.770" y1="1528.930" x2="135.770" y2="1525.229"/>
      <line x1="138.770" y1="1528.930" x2="138.770" y2="1525.229"/>
      <line x1="140.770" y1="1528.930" x2="140.770" y2="1525.229"/>
      <line x1="114.770" y1="1528.930" x2="114.770" y2="1525.229"/>
      <line x1="117.770" y1="1528.930" x2="117.770" y2="1525.229"/>
      <line x1="116.770" y1="1528.930" x2="116.770" y2="1525.229"/>
      <line x1="119.770" y1="1528.930" x2="119.770" y2="1525.229"/>
      <line x1="122.770" y1="1528.930" x2="122.770" y2="1525.229"/>
      <line x1="125.770" y1="1528.930" x2="125.770" y2="1525.229"/>
      <line x1="128.770" y1="1528.930" x2="128.770" y2="1525.229"/>
      <line x1="131.770" y1="1528.930" x2="131.770" y2="1525.229"/>
      <line x1="134.770" y1="1528.930" x2="134.770" y2="1525.229"/>
      <line x1="137.770" y1="1528.930" x2="137.770" y2="1525.229"/>
      <line x1="136.770" y1="1528.930" x2="136.770" y2="1525.229"/>
      <line x1="139.770" y1="1528.930" x2="139.770" y2="1525.229"/>
    </g>
    <g stroke="#1976D2" stroke-width="0.4">
      <polyline points="456.015,1682.729 590.346,1682.729 590.346,1521.729 456.015,1521.729" fill="none"/>
      <polyline points="456.015,1521.729 454.159,1521.729 454.159,1682.729 456.015,1682.729" fill="none"/>
      <polyline points="456.015,1681.730 589.346,1681.730 589.346,1522.729 456.015,1522.729" fill="none"/>
      <polyline points="456.015,1522.729 455.159,1522.729 455.159,1681.730 456.015,1681.730" fill="none"/>
      <polyline points="588.346,1523.729 456.159,1523.729 456.159,1680.730 588.346,1680.730 588.346,1523.729" fill="none"/>
      <polyline points="587.346,1524.729 457.159,1524.729 457.159,1679.729 587.346,1679.729 587.346,1524.729" fill="none"/>
      <polyline points="143.985,1521.729 9.654,1521.729 9.654,1682.729 143.985,1682.729" fill="none"/>
      <polyline points="143.985,1682.729 145.841,1682.729 145.841,1521.729 143.985,1521.729" fill="none"/>
      <polyline points="143.985,1522.729 10.654,1522.729 10.654,1681.730 143.985,1681.730" fill="none"/>
      <polyline points="143.985,1681.730 144.841,1681.730 144.841,1522.729 143.985,1522.729" fill="none"/>
      <polyline points="143.841,1523.729 11.654,1523.729 11.654,1680.730 143.841,1680.730 143.841,1523.729" fill="none"/>
      <polyline points="142.841,1524.729 12.654,1524.729 12.654,1679.729 142.841,1679.729 142.841,1524.729" fill="none"/>
    </g>
    <g stroke="#C62828" stroke-width="0.4" fill="none">
      <polygon points="293.974,1532.274 294.891,1531.239 295.222,1529.896 294.891,1528.554 293.974,1527.519 292.682,1527.028 291.309,1527.195 290.171,1527.980 289.528,1529.205 289.528,1530.588 290.171,1531.812 291.309,1532.597 292.682,1532.764"/>
      <polygon points="313.912,1532.183 314.794,1531.188 315.112,1529.896 314.794,1528.605 313.912,1527.609 312.668,1527.137 311.348,1527.298 310.253,1528.053 309.635,1529.231 309.635,1530.561 310.253,1531.739 311.348,1532.495 312.668,1532.655"/>
      <polygon points="273.783,1531.996 274.593,1531.082 274.885,1529.896 274.593,1528.710 273.783,1527.796 272.641,1527.363 271.428,1527.510 270.423,1528.204 269.856,1529.286 269.856,1530.507 270.423,1531.588 271.428,1532.282 272.641,1532.429"/>
      <polygon points="333.550,1532.004 334.441,1531.113 334.767,1529.896 334.441,1528.679 333.550,1527.788 332.333,1527.462 331.116,1527.788 330.225,1528.679 329.899,1529.896 330.225,1531.113 331.116,1532.004 332.333,1532.330"/>
      <polygon points="353.429,1531.793 354.230,1530.991 354.524,1529.896 354.230,1528.801 353.429,1527.999 352.333,1527.706 351.238,1527.999 350.436,1528.801 350.143,1529.896 350.436,1530.991 351.238,1531.793 352.333,1532.087"/>
      <polygon points="253.429,1531.793 254.230,1530.991 254.524,1529.896 254.230,1528.801 253.429,1527.999 252.333,1527.706 251.238,1527.999 250.436,1528.801 250.143,1529.896 250.436,1530.991 251.238,1531.793 252.333,1532.087"/>
      <polygon points="433.333,1531.628 434.065,1530.896 434.333,1529.896 434.065,1528.896 433.333,1528.164 432.333,1527.896 431.333,1528.164 430.601,1528.896 430.333,1529.896 430.601,1530.896 431.333,1531.628 432.333,1531.896"/>
      <polygon points="413.333,1531.628 414.065,1530.896 414.333,1529.896 414.065,1528.896 413.333,1528.164 412.333,1527.896 411.333,1528.164 410.601,1528.896 410.333,1529.896 410.601,1530.896 411.333,1531.628 412.333,1531.896"/>
      <polygon points="373.333,1531.628 374.065,1530.896 374.333,1529.896 374.065,1528.896 373.333,1528.164 372.333,1527.896 371.333,1528.164 370.601,1528.896 370.333,1529.896 370.601,1530.896 371.333,1531.628 372.333,1531.896"/>
      <polygon points="173.333,1531.628 174.065,1530.896 174.333,1529.896 174.065,1528.896 173.333,1528.164 172.333,1527.896 171.333,1528.164 170.601,1528.896 170.333,1529.896 170.601,1530.896 171.333,1531.628 172.333,1531.896"/>
      <polygon points="193.333,1531.628 194.065,1530.896 194.333,1529.896 194.065,1528.896 193.333,1528.164 192.333,1527.896 191.333,1528.164 190.601,1528.896 190.333,1529.896 190.601,1530.896 191.333,1531.628 192.333,1531.896"/>
      <polygon points="213.333,1531.628 214.065,1530.896 214.333,1529.896 214.065,1528.896 213.333,1528.164 212.333,1527.896 211.333,1528.164 210.601,1528.896 210.333,1529.896 210.601,1530.896 211.333,1531.628 212.333,1531.896"/>
      <polygon points="393.333,1531.628 394.065,1530.896 394.333,1529.896 394.065,1528.896 393.333,1528.164 392.333,1527.896 391.333,1528.164 390.601,1528.896 390.333,1529.896 390.601,1530.896 391.333,1531.628 392.333,1531.896"/>
      <polygon points="233.333,1531.628 234.065,1530.896 234.333,1529.896 234.065,1528.896 233.333,1528.164 232.333,1527.896 231.333,1528.164 230.601,1528.896 230.333,1529.896 230.601,1530.896 231.333,1531.628 232.333,1531.896"/>
      <polygon points="293.974,1552.274 294.891,1551.239 295.222,1549.896 294.891,1548.554 293.974,1547.519 292.682,1547.028 291.309,1547.195 290.171,1547.980 289.528,1549.205 289.528,1550.588 290.171,1551.812 291.309,1552.597 292.682,1552.764"/>
      <polygon points="313.912,1552.183 314.794,1551.188 315.112,1549.896 314.794,1548.605 313.912,1547.609 312.668,1547.137 311.348,1547.298 310.253,1548.053 309.635,1549.231 309.635,1550.561 310.253,1551.739 311.348,1552.495 312.668,1552.655"/>
      <polygon points="273.783,1551.996 274.593,1551.082 274.885,1549.896 274.593,1548.710 273.783,1547.796 272.641,1547.363 271.428,1547.510 270.423,1548.204 269.856,1549.286 269.856,1550.507 270.423,1551.588 271.428,1552.282 272.641,1552.429"/>
      <polygon points="333.550,1552.004 334.441,1551.113 334.767,1549.896 334.441,1548.679 333.550,1547.788 332.333,1547.462 331.116,1547.788 330.225,1548.679 329.899,1549.896 330.225,1551.113 331.116,1552.004 332.333,1552.330"/>
      <polygon points="253.429,1551.793 254.230,1550.991 254.524,1549.896 254.230,1548.801 253.429,1547.999 252.333,1547.706 251.238,1547.999 250.436,1548.801 250.143,1549.896 250.436,1550.991 251.238,1551.793 252.333,1552.087"/>
      <polygon points="353.429,1551.793 354.230,1550.991 354.524,1549.896 354.230,1548.801 353.429,1547.999 352.333,1547.706 351.238,1547.999 350.436,1548.801 350.143,1549.896 350.436,1550.991 351.238,1551.793 352.333,1552.087"/>
      <polygon points="213.333,1551.628 214.065,1550.896 214.333,1549.896 214.065,1548.896 213.333,1548.164 212.333,1547.896 211.333,1548.164 210.601,1548.896 210.333,1549.896 210.601,1550.896 211.333,1551.628 212.333,1551.896"/>
      <polygon points="173.333,1551.628 174.065,1550.896 174.333,1549.896 174.065,1548.896 173.333,1548.164 172.333,1547.896 171.333,1548.164 170.601,1548.896 170.333,1549.896 170.601,1550.896 171.333,1551.628 172.333,1551.896"/>
      <polygon points="373.333,1551.628 374.065,1550.896 374.333,1549.896 374.065,1548.896 373.333,1548.164 372.333,1547.896 371.333,1548.164 370.601,1548.896 370.333,1549.896 370.601,1550.896 371.333,1551.628 372.333,1551.896"/>
      <polygon points="433.333,1551.628 434.065,1550.896 434.333,1549.896 434.065,1548.896 433.333,1548.164 432.333,1547.896 431.333,1548.164 430.601,1548.896 430.333,1549.896 430.601,1550.896 431.333,1551.628 432.333,1551.896"/>
      <polygon points="193.333,1551.628 194.065,1550.896 194.333,1549.896 194.065,1548.896 193.333,1548.164 192.333,1547.896 191.333,1548.164 190.601,1548.896 190.333,1549.896 190.601,1550.896 191.333,1551.628 192.333,1551.896"/>
      <polygon points="233.333,1551.628 234.065,1550.896 234.333,1549.896 234.065,1548.896 233.333,1548.164 232.333,1547.896 231.333,1548.164 230.601,1548.896 230.333,1549.896 230.601,1550.896 231.333,1551.628 232.333,1551.896"/>
      <polygon points="393.333,1551.628 394.065,1550.896 394.333,1549.896 394.065,1548.896 393.333,1548.164 392.333,1547.896 391.333,1548.164 390.601,1548.896 390.333,1549.896 390.601,1550.896 391.333,1551.628 392.333,1551.896"/>
      <polygon points="413.333,1551.628 414.065,1550.896 414.333,1549.896 414.065,1548.896 413.333,1548.164 412.333,1547.896 411.333,1548.164 410.601,1548.896 410.333,1549.896 410.601,1550.896 411.333,1551.628 412.333,1551.896"/>
      <polygon points="293.974,1572.274 294.891,1571.239 295.222,1569.896 294.891,1568.554 293.974,1567.519 292.682,1567.028 291.309,1567.195 290.171,1567.980 289.528,1569.205 289.528,1570.588 290.171,1571.812 291.309,1572.597 292.682,1572.764"/>
      <polygon points="313.912,1572.183 314.794,1571.188 315.112,1569.896 314.794,1568.605 313.912,1567.609 312.668,1567.137 311.348,1567.298 310.253,1568.053 309.635,1569.231 309.635,1570.561 310.253,1571.739 311.348,1572.495 312.668,1572.655"/>
      <polygon points="273.783,1571.996 274.593,1571.082 274.885,1569.896 274.593,1568.710 273.783,1567.796 272.641,1567.363 271.428,1567.510 270.423,1568.204 269.856,1569.286 269.856,1570.507 270.423,1571.588 271.428,1572.282 272.641,1572.429"/>
      <polygon points="333.550,1572.004 334.441,1571.113 334.767,1569.896 334.441,1568.679 333.550,1567.788 332.333,1567.462 331.116,1567.788 330.225,1568.679 329.899,1569.896 330.225,1571.113 331.116,1572.004 332.333,1572.330"/>
      <polygon points="253.429,1571.793 254.230,1570.991 254.524,1569.896 254.230,1568.801 253.429,1567.999 252.333,1567.706 251.238,1567.999 250.436,1568.801 250.143,1569.896 250.436,1570.991 251.238,1571.793 252.333,1572.087"/>
      <polygon points="353.429,1571.793 354.230,1570.991 354.524,1569.896 354.230,1568.801 353.429,1567.999 352.333,1567.706 351.238,1567.999 350.436,1568.801 350.143,1569.896 350.436,1570.991 351.238,1571.793 352.333,1572.087"/>
      <polygon points="233.333,1571.628 234.065,1570.896 234.333,1569.896 234.065,1568.896 233.333,1568.164 232.333,1567.896 231.333,1568.164 230.601,1568.896 230.333,1569.896 230.601,1570.896 231.333,1571.628 232.333,1571.896"/>
      <polygon points="213.333,1571.628 214.065,1570.896 214.333,1569.896 214.065,1568.896 213.333,1568.164 212.333,1567.896 211.333,1568.164 210.601,1568.896 210.333,1569.896 210.601,1570.896 211.333,1571.628 212.333,1571.896"/>
      <polygon points="173.333,1571.628 174.065,1570.896 174.333,1569.896 174.065,1568.896 173.333,1568.164 172.333,1567.896 171.333,1568.164 170.601,1568.896 170.333,1569.896 170.601,1570.896 171.333,1571.628 172.333,1571.896"/>
      <polygon points="373.333,1571.628 374.065,1570.896 374.333,1569.896 374.065,1568.896 373.333,1568.164 372.333,1567.896 371.333,1568.164 370.601,1568.896 370.333,1569.896 370.601,1570.896 371.333,1571.628 372.333,1571.896"/>
      <polygon points="193.333,1571.628 194.065,1570.896 194.333,1569.896 194.065,1568.896 193.333,1568.164 192.333,1567.896 191.333,1568.164 190.601,1568.896 190.333,1569.896 190.601,1570.896 191.333,1571.628 192.333,1571.896"/>
      <polygon points="393.333,1571.628 394.065,1570.896 394.333,1569.896 394.065,1568.896 393.333,1568.164 392.333,1567.896 391.333,1568.164 390.601,1568.896 390.333,1569.896 390.601,1570.896 391.333,1571.628 392.333,1571.896"/>
      <polygon points="413.333,1571.628 414.065,1570.896 414.333,1569.896 414.065,1568.896 413.333,1568.164 412.333,1567.896 411.333,1568.164 410.601,1568.896 410.333,1569.896 410.601,1570.896 411.333,1571.628 412.333,1571.896"/>
      <polygon points="433.333,1571.628 434.065,1570.896 434.333,1569.896 434.065,1568.896 433.333,1568.164 432.333,1567.896 431.333,1568.164 430.601,1568.896 430.333,1569.896 430.601,1570.896 431.333,1571.628 432.333,1571.896"/>
      <polygon points="293.974,1592.274 294.891,1591.239 295.222,1589.896 294.891,1588.554 293.974,1587.519 292.682,1587.028 291.309,1587.195 290.171,1587.980 289.528,1589.205 289.528,1590.588 290.171,1591.812 291.309,1592.597 292.682,1592.764"/>
      <polygon points="313.912,1592.183 314.794,1591.188 315.112,1589.896 314.794,1588.605 313.912,1587.609 312.668,1587.137 311.348,1587.298 310.253,1588.053 309.635,1589.231 309.635,1590.561 310.253,1591.739 311.348,1592.495 312.668,1592.655"/>
      <polygon points="273.783,1591.996 274.593,1591.082 274.885,1589.896 274.593,1588.710 273.783,1587.796 272.641,1587.363 271.428,1587.510 270.423,1588.204 269.856,1589.286 269.856,1590.507 270.423,1591.588 271.428,1592.282 272.641,1592.429"/>
      <polygon points="333.550,1592.004 334.441,1591.113 334.767,1589.896 334.441,1588.679 333.550,1587.788 332.333,1587.462 331.116,1587.788 330.225,1588.679 329.899,1589.896 330.225,1591.113 331.116,1592.004 332.333,1592.330"/>
      <polygon points="353.429,1591.793 354.230,1590.991 354.524,1589.896 354.230,1588.801 353.429,1587.999 352.333,1587.706 351.238,1587.999 350.436,1588.801 350.143,1589.896 350.436,1590.991 351.238,1591.793 352.333,1592.087"/>
      <polygon points="253.429,1591.793 254.230,1590.991 254.524,1589.896 254.230,1588.801 253.429,1587.999 252.333,1587.706 251.238,1587.999 250.436,1588.801 250.143,1589.896 250.436,1590.991 251.238,1591.793 252.333,1592.087"/>
      <polygon points="173.333,1591.628 174.065,1590.896 174.333,1589.896 174.065,1588.896 173.333,1588.164 172.333,1587.896 171.333,1588.164 170.601,1588.896 170.333,1589.896 170.601,1590.896 171.333,1591.628 172.333,1591.896"/>
      <polygon points="413.333,1591.628 414.065,1590.896 414.333,1589.896 414.065,1588.896 413.333,1588.164 412.333,1587.896 411.333,1588.164 410.601,1588.896 410.333,1589.896 410.601,1590.896 411.333,1591.628 412.333,1591.896"/>
      <polygon points="193.333,1591.628 194.065,1590.896 194.333,1589.896 194.065,1588.896 193.333,1588.164 192.333,1587.896 191.333,1588.164 190.601,1588.896 190.333,1589.896 190.601,1590.896 191.333,1591.628 192.333,1591.896"/>
      <polygon points="213.333,1591.628 214.065,1590.896 214.333,1589.896 214.065,1588.896 213.333,1588.164 212.333,1587.896 211.333,1588.164 210.601,1588.896 210.333,1589.896 210.601,1590.896 211.333,1591.628 212.333,1591.896"/>
      <polygon points="233.333,1591.628 234.065,1590.896 234.333,1589.896 234.065,1588.896 233.333,1588.164 232.333,1587.896 231.333,1588.164 230.601,1588.896 230.333,1589.896 230.601,1590.896 231.333,1591.628 232.333,1591.896"/>
      <polygon points="373.333,1591.628 374.065,1590.896 374.333,1589.896 374.065,1588.896 373.333,1588.164 372.333,1587.896 371.333,1588.164 370.601,1588.896 370.333,1589.896 370.601,1590.896 371.333,1591.628 372.333,1591.896"/>
      <polygon points="433.333,1591.628 434.065,1590.896 434.333,1589.896 434.065,1588.896 433.333,1588.164 432.333,1587.896 431.333,1588.164 430.601,1588.896 430.333,1589.896 430.601,1590.896 431.333,1591.628 432.333,1591.896"/>
      <polygon points="393.333,1591.628 394.065,1590.896 394.333,1589.896 394.065,1588.896 393.333,1588.164 392.333,1587.896 391.333,1588.164 390.601,1588.896 390.333,1589.896 390.601,1590.896 391.333,1591.628 392.333,1591.896"/>
      <polygon points="293.974,1612.274 294.891,1611.239 295.222,1609.896 294.891,1608.554 293.974,1607.519 292.682,1607.028 291.309,1607.195 290.171,1607.980 289.528,1609.205 289.528,1610.588 290.171,1611.812 291.309,1612.597 292.682,1612.764"/>
      <polygon points="313.912,1612.183 314.794,1611.188 315.112,1609.896 314.794,1608.605 313.912,1607.609 312.668,1607.137 311.348,1607.298 310.253,1608.053 309.635,1609.231 309.635,1610.561 310.253,1611.739 311.348,1612.495 312.668,1612.655"/>
      <polygon points="273.783,1611.996 274.593,1611.082 274.885,1609.896 274.593,1608.710 273.783,1607.796 272.641,1607.363 271.428,1607.510 270.423,1608.204 269.856,1609.286 269.856,1610.507 270.423,1611.588 271.428,1612.282 272.641,1612.429"/>
      <polygon points="333.550,1612.004 334.441,1611.113 334.767,1609.896 334.441,1608.679 333.550,1607.788 332.333,1607.462 331.116,1607.788 330.225,1608.679 329.899,1609.896 330.225,1611.113 331.116,1612.004 332.333,1612.330"/>
      <polygon points="353.429,1611.793 354.230,1610.991 354.524,1609.896 354.230,1608.801 353.429,1607.999 352.333,1607.706 351.238,1607.999 350.436,1608.801 350.143,1609.896 350.436,1610.991 351.238,1611.793 352.333,1612.087"/>
      <polygon points="253.429,1611.793 254.230,1610.991 254.524,1609.896 254.230,1608.801 253.429,1607.999 252.333,1607.706 251.238,1607.999 250.436,1608.801 250.143,1609.896 250.436,1610.991 251.238,1611.793 252.333,1612.087"/>
      <polygon points="193.333,1611.628 194.065,1610.896 194.333,1609.896 194.065,1608.896 193.333,1608.164 192.333,1607.896 191.333,1608.164 190.601,1608.896 190.333,1609.896 190.601,1610.896 191.333,1611.628 192.333,1611.896"/>
      <polygon points="433.333,1611.628 434.065,1610.896 434.333,1609.896 434.065,1608.896 433.333,1608.164 432.333,1607.896 431.333,1608.164 430.601,1608.896 430.333,1609.896 430.601,1610.896 431.333,1611.628 432.333,1611.896"/>
      <polygon points="393.333,1611.628 394.065,1610.896 394.333,1609.896 394.065,1608.896 393.333,1608.164 392.333,1607.896 391.333,1608.164 390.601,1608.896 390.333,1609.896 390.601,1610.896 391.333,1611.628 392.333,1611.896"/>
      <polygon points="173.333,1611.628 174.065,1610.896 174.333,1609.896 174.065,1608.896 173.333,1608.164 172.333,1607.896 171.333,1608.164 170.601,1608.896 170.333,1609.896 170.601,1610.896 171.333,1611.628 172.333,1611.896"/>
      <polygon points="213.333,1611.628 214.065,1610.896 214.333,1609.896 214.065,1608.896 213.333,1608.164 212.333,1607.896 211.333,1608.164 210.601,1608.896 210.333,1609.896 210.601,1610.896 211.333,1611.628 212.333,1611.896"/>
      <polygon points="233.333,1611.628 234.065,1610.896 234.333,1609.896 234.065,1608.896 233.333,1608.164 232.333,1607.896 231.333,1608.164 230.601,1608.896 230.333,1609.896 230.601,1610.896 231.333,1611.628 232.333,1611.896"/>
      <polygon points="373.333,1611.628 374.065,1610.896 374.333,1609.896 374.065,1608.896 373.333,1608.164 372.333,1607.896 371.333,1608.164 370.601,1608.896 370.333,1609.896 370.601,1610.896 371.333,1611.628 372.333,1611.896"/>
      <polygon points="413.333,1611.628 414.065,1610.896 414.333,1609.896 414.065,1608.896 413.333,1608.164 412.333,1607.896 411.333,1608.164 410.601,1608.896 410.333,1609.896 410.601,1610.896 411.333,1611.628 412.333,1611.896"/>
      <polygon points="293.974,1632.274 294.891,1631.239 295.222,1629.896 294.891,1628.554 293.974,1627.519 292.682,1627.028 291.309,1627.195 290.171,1627.980 289.528,1629.205 289.528,1630.588 290.171,1631.812 291.309,1632.597 292.682,1632.764"/>
      <polygon points="313.912,1632.183 314.794,1631.188 315.112,1629.896 314.794,1628.605 313.912,1627.609 312.668,1627.137 311.348,1627.298 310.253,1628.053 309.635,1629.231 309.635,1630.561 310.253,1631.739 311.348,1632.495 312.668,1632.655"/>
      <polygon points="273.783,1631.996 274.593,1631.082 274.885,1629.896 274.593,1628.710 273.783,1627.796 272.641,1627.363 271.428,1627.510 270.423,1628.204 269.856,1629.286 269.856,1630.507 270.423,1631.588 271.428,1632.282 272.641,1632.429"/>
      <polygon points="333.550,1632.004 334.441,1631.113 334.767,1629.896 334.441,1628.679 333.550,1627.788 332.333,1627.462 331.116,1627.788 330.225,1628.679 329.899,1629.896 330.225,1631.113 331.116,1632.004 332.333,1632.330"/>
      <polygon points="353.429,1631.793 354.230,1630.991 354.524,1629.896 354.230,1628.801 353.429,1627.999 352.333,1627.706 351.238,1627.999 350.436,1628.801 350.143,1629.896 350.436,1630.991 351.238,1631.793 352.333,1632.087"/>
      <polygon points="253.429,1631.793 254.230,1630.991 254.524,1629.896 254.230,1628.801 253.429,1627.999 252.333,1627.706 251.238,1627.999 250.436,1628.801 250.143,1629.896 250.436,1630.991 251.238,1631.793 252.333,1632.087"/>
      <polygon points="233.333,1631.628 234.065,1630.896 234.333,1629.896 234.065,1628.896 233.333,1628.164 232.333,1627.896 231.333,1628.164 230.601,1628.896 230.333,1629.896 230.601,1630.896 231.333,1631.628 232.333,1631.896"/>
      <polygon points="393.333,1631.628 394.065,1630.896 394.333,1629.896 394.065,1628.896 393.333,1628.164 392.333,1627.896 391.333,1628.164 390.601,1628.896 390.333,1629.896 390.601,1630.896 391.333,1631.628 392.333,1631.896"/>
      <polygon points="413.333,1631.628 414.065,1630.896 414.333,1629.896 414.065,1628.896 413.333,1628.164 412.333,1627.896 411.333,1628.164 410.601,1628.896 410.333,1629.896 410.601,1630.896 411.333,1631.628 412.333,1631.896"/>
      <polygon points="173.333,1631.628 174.065,1630.896 174.333,1629.896 174.065,1628.896 173.333,1628.164 172.333,1627.896 171.333,1628.164 170.601,1628.896 170.333,1629.896 170.601,1630.896 171.333,1631.628 172.333,1631.896"/>
      <polygon points="433.333,1631.628 434.065,1630.896 434.333,1629.896 434.065,1628.896 433.333,1628.164 432.333,1627.896 431.333,1628.164 430.601,1628.896 430.333,1629.896 430.601,1630.896 431.333,1631.628 432.333,1631.896"/>
      <polygon points="193.333,1631.628 194.065,1630.896 194.333,1629.896 194.065,1628.896 193.333,1628.164 192.333,1627.896 191.333,1628.164 190.601,1628.896 190.333,1629.896 190.601,1630.896 191.333,1631.628 192.333,1631.896"/>
      <polygon points="373.333,1631.628 374.065,1630.896 374.333,1629.896 374.065,1628.896 373.333,1628.164 372.333,1627.896 371.333,1628.164 370.601,1628.896 370.333,1629.896 370.601,1630.896 371.333,1631.628 372.333,1631.896"/>
      <polygon points="213.333,1631.628 214.065,1630.896 214.333,1629.896 214.065,1628.896 213.333,1628.164 212.333,1627.896 211.333,1628.164 210.601,1628.896 210.333,1629.896 210.601,1630.896 211.333,1631.628 212.333,1631.896"/>
      <polygon points="293.974,1652.274 294.891,1651.239 295.222,1649.896 294.891,1648.554 293.974,1647.519 292.682,1647.028 291.309,1647.195 290.171,1647.980 289.528,1649.205 289.528,1650.588 290.171,1651.812 291.309,1652.597 292.682,1652.764"/>
      <polygon points="313.912,1652.183 314.794,1651.188 315.112,1649.896 314.794,1648.605 313.912,1647.609 312.668,1647.137 311.348,1647.298 310.253,1648.053 309.635,1649.231 309.635,1650.561 310.253,1651.739 311.348,1652.495 312.668,1652.655"/>
      <polygon points="273.783,1651.996 274.593,1651.082 274.885,1649.896 274.593,1648.710 273.783,1647.796 272.641,1647.363 271.428,1647.510 270.423,1648.204 269.856,1649.286 269.856,1650.507 270.423,1651.588 271.428,1652.282 272.641,1652.429"/>
      <polygon points="333.550,1652.004 334.441,1651.113 334.767,1649.896 334.441,1648.679 333.550,1647.788 332.333,1647.462 331.116,1647.788 330.225,1648.679 329.899,1649.896 330.225,1651.113 331.116,1652.004 332.333,1652.330"/>
      <polygon points="253.429,1651.793 254.230,1650.991 254.524,1649.896 254.230,1648.801 253.429,1647.999 252.333,1647.706 251.238,1647.999 250.436,1648.801 250.143,1649.896 250.436,1650.991 251.238,1651.793 252.333,1652.087"/>
      <polygon points="353.429,1651.793 354.230,1650.991 354.524,1649.896 354.230,1648.801 353.429,1647.999 352.333,1647.706 351.238,1647.999 350.436,1648.801 350.143,1649.896 350.436,1650.991 351.238,1651.793 352.333,1652.087"/>
      <polygon points="213.333,1651.628 214.065,1650.896 214.333,1649.896 214.065,1648.896 213.333,1648.164 212.333,1647.896 211.333,1648.164 210.601,1648.896 210.333,1649.896 210.601,1650.896 211.333,1651.628 212.333,1651.896"/>
      <polygon points="173.333,1651.628 174.065,1650.896 174.333,1649.896 174.065,1648.896 173.333,1648.164 172.333,1647.896 171.333,1648.164 170.601,1648.896 170.333,1649.896 170.601,1650.896 171.333,1651.628 172.333,1651.896"/>
      <polygon points="193.333,1651.628 194.065,1650.896 194.333,1649.896 194.065,1648.896 193.333,1648.164 192.333,1647.896 191.333,1648.164 190.601,1648.896 190.333,1649.896 190.601,1650.896 191.333,1651.628 192.333,1651.896"/>
      <polygon points="233.333,1651.628 234.065,1650.896 234.333,1649.896 234.065,1648.896 233.333,1648.164 232.333,1647.896 231.333,1648.164 230.601,1648.896 230.333,1649.896 230.601,1650.896 231.333,1651.628 232.333,1651.896"/>
      <polygon points="393.333,1651.628 394.065,1650.896 394.333,1649.896 394.065,1648.896 393.333,1648.164 392.333,1647.896 391.333,1648.164 390.601,1648.896 390.333,1649.896 390.601,1650.896 391.333,1651.628 392.333,1651.896"/>
      <polygon points="413.333,1651.628 414.065,1650.896 414.333,1649.896 414.065,1648.896 413.333,1648.164 412.333,1647.896 411.333,1648.164 410.601,1648.896 410.333,1649.896 410.601,1650.896 411.333,1651.628 412.333,1651.896"/>
      <polygon points="433.333,1651.628 434.065,1650.896 434.333,1649.896 434.065,1648.896 433.333,1648.164 432.333,1647.896 431.333,1648.164 430.601,1648.896 430.333,1649.896 430.601,1650.896 431.333,1651.628 432.333,1651.896"/>
      <polygon points="373.333,1651.628 374.065,1650.896 374.333,1649.896 374.065,1648.896 373.333,1648.164 372.333,1647.896 371.333,1648.164 370.601,1648.896 370.333,1649.896 370.601,1650.896 371.333,1651.628 372.333,1651.896"/>
      <polygon points="293.974,1672.274 294.891,1671.239 295.222,1669.896 294.891,1668.554 293.974,1667.519 292.682,1667.028 291.309,1667.195 290.171,1667.980 289.528,1669.205 289.528,1670.588 290.171,1671.812 291.309,1672.597 292.682,1672.764"/>
      <polygon points="313.912,1672.183 314.794,1671.188 315.112,1669.896 314.794,1668.605 313.912,1667.609 312.668,1667.137 311.348,1667.298 310.253,1668.053 309.635,1669.231 309.635,1670.561 310.253,1671.739 311.348,1672.495 312.668,1672.655"/>
      <polygon points="273.783,1671.996 274.593,1671.082 274.885,1669.896 274.593,1668.710 273.783,1667.796 272.641,1667.363 271.428,1667.510 270.423,1668.204 269.856,1669.286 269.856,1670.507 270.423,1671.588 271.428,1672.282 272.641,1672.429"/>
      <polygon points="333.550,1672.004 334.441,1671.113 334.767,1669.896 334.441,1668.679 333.550,1667.788 332.333,1667.462 331.116,1667.788 330.225,1668.679 329.899,1669.896 330.225,1671.113 331.116,1672.004 332.333,1672.330"/>
      <polygon points="253.429,1671.793 254.230,1670.991 254.524,1669.896 254.230,1668.801 253.429,1667.999 252.333,1667.706 251.238,1667.999 250.436,1668.801 250.143,1669.896 250.436,1670.991 251.238,1671.793 252.333,1672.087"/>
      <polygon points="353.429,1671.793 354.230,1670.991 354.524,1669.896 354.230,1668.801 353.429,1667.999 352.333,1667.706 351.238,1667.999 350.436,1668.801 350.143,1669.896 350.436,1670.991 351.238,1671.793 352.333,1672.087"/>
      <polygon points="173.333,1671.628 174.065,1670.896 174.333,1669.896 174.065,1668.896 173.333,1668.164 172.333,1667.896 171.333,1668.164 170.601,1668.896 170.333,1669.896 170.601,1670.896 171.333,1671.628 172.333,1671.896"/>
      <polygon points="193.333,1671.628 194.065,1670.896 194.333,1669.896 194.065,1668.896 193.333,1668.164 192.333,1667.896 191.333,1668.164 190.601,1668.896 190.333,1669.896 190.601,1670.896 191.333,1671.628 192.333,1671.896"/>
      <polygon points="213.333,1671.628 214.065,1670.896 214.333,1669.896 214.065,1668.896 213.333,1668.164 212.333,1667.896 211.333,1668.164 210.601,1668.896 210.333,1669.896 210.601,1670.896 211.333,1671.628 212.333,1671.896"/>
      <polygon points="233.333,1671.628 234.065,1670.896 234.333,1669.896 234.065,1668.896 233.333,1668.164 232.333,1667.896 231.333,1668.164 230.601,1668.896 230.333,1669.896 230.601,1670.896 231.333,1671.628 232.333,1671.896"/>
      <polygon points="373.333,1671.628 374.065,1670.896 374.333,1669.896 374.065,1668.896 373.333,1668.164 372.333,1667.896 371.333,1668.164 370.601,1668.896 370.333,1669.896 370.601,1670.896 371.333,1671.628 372.333,1671.896"/>
      <polygon points="393.333,1671.628 394.065,1670.896 394.333,1669.896 394.065,1668.896 393.333,1668.164 392.333,1667.896 391.333,1668.164 390.601,1668.896 390.333,1669.896 390.601,1670.896 391.333,1671.628 392.333,1671.896"/>
      <polygon points="413.333,1671.628 414.065,1670.896 414.333,1669.896 414.065,1668.896 413.333,1668.164 412.333,1667.896 411.333,1668.164 410.601,1668.896 410.333,1669.896 410.601,1670.896 411.333,1671.628 412.333,1671.896"/>
      <polygon points="433.333,1671.628 434.065,1670.896 434.333,1669.896 434.065,1668.896 433.333,1668.164 432.333,1667.896 431.333,1668.164 430.601,1668.896 430.333,1669.896 430.601,1670.896 431.333,1671.628 432.333,1671.896"/>
    </g>
    <g stroke="#EF6C00" stroke-width="0.4" fill="none">
    </g>
  </g>
  <g stroke="#000000" stroke-width="0.4">
    <line x1="500.000" y1="1000.000" x2="1500.000" y2="1000.000"/>
  </g>
  <g stroke="#000000" stroke-width="0.4">
    <line x1="1000.000" y1="500.000" x2="1000.000" y2="1500.000"/>
  </g>
  <circle cx="1000.000" cy="1000.000" r="1000.000" stroke="red" stroke-width="1" fill="none"/>
  </g>
</svg>
