<?xml version="1.0" encoding="UTF-8"?>
<svg xmlns="http://www.w3.org/2000/svg" version="1.1" width="2000" height="2000">
  <g fill="none" stroke-linecap="round" stroke-linejoin="round">
  <text x="10" y="20" font-size="24" fill="#555">Layer 286 Z=69.200 mm</text>
  <g transform="translate(700.000,-602.229)">
    <g stroke="#2E7D32" stroke-width="0.4">
      <line x1="287.462" y1="1679.230" x2="287.462" y2="1629.230"/>
      <line x1="288.462" y1="1679.230" x2="288.462" y2="1629.230"/>
      <line x1="289.462" y1="1679.230" x2="289.462" y2="1629.230"/>
      <line x1="290.462" y1="1679.230" x2="290.462" y2="1629.230"/>
      <line x1="291.462" y1="1679.230" x2="291.462" y2="1629.230"/>
      <line x1="292.462" y1="1679.230" x2="292.462" y2="1629.230"/>
      <line x1="293.462" y1="1679.230" x2="293.462" y2="1629.230"/>
      <line x1="294.462" y1="1679.230" x2="294.462" y2="1629.230"/>
      <line x1="295.462" y1="1679.230" x2="295.462" y2="1629.230"/>
      <line x1="296.462" y1="1679.230" x2="296.462" y2="1629.230"/>
      <line x1="297.462" y1="1679.230" x2="297.462" y2="1629.230"/>
      <line x1="298.462" y1="1679.230" x2="298.462" y2="1629.230"/>
      <line x1="299.462" y1="1679.230" x2="299.462" y2="1629.230"/>
      <line x1="300.462" y1="1679.230" x2="300.462" y2="1629.230"/>
      <line x1="301.462" y1="1679.230" x2="301.462" y2="1629.230"/>
      <line x1="302.462" y1="1679.230" x2="302.462" y2="1629.230"/>
      <line x1="303.462" y1="1679.230" x2="303.462" y2="1629.230"/>
      <line x1="304.462" y1="1679.230" x2="304.462" y2="1629.230"/>
      <line x1="305.462" y1="1679.230" x2="305.462" y2="1629.230"/>
      <line x1="306.462" y1="1679.230" x2="306.462" y2="1629.230"/>
      <line x1="307.462" y1="1679.230" x2="307.462" y2="1629.230"/>
      <line x1="308.462" y1="1679.230" x2="308.462" y2="1629.230"/>
      <line x1="309.462" y1="1679.230" x2="309.462" y2="1629.230"/>
      <line x1="310.462" y1="1679.230" x2="310.462" y2="1629.230"/>
      <line x1="311.462" y1="1679.230" x2="311.462" y2="1629.230"/>
      <line x1="312.462" y1="1679.230" x2="312.462" y2="1629.230"/>
      <line x1="287.462" y1="1629.130" x2="287.462" y2="1579.130"/>
      <line x1="288.462" y1="1629.130" x2="288.462" y2="1579.130"/>
      <line x1="289.462" y1="1629.130" x2="289.462" y2="1579.130"/>
      <line x1="290.462" y1="1629.130" x2="290.462" y2="1579.130"/>
      <line x1="291.462" y1="1629.130" x2="291.462" y2="1579.130"/>
      <line x1="292.462" y1="1629.130" x2="292.462" y2="1579.130"/>
      <line x1="293.462" y1="1629.130" x2="293.462" y2="1579.130"/>
      <line x1="294.462" y1="1629.130" x2="294.462" y2="1579.130"/>
      <line x1="295.462" y1="1629.130" x2="295.462" y2="1579.130"/>
      <line x1="296.462" y1="1629.130" x2="296.462" y2="1579.130"/>
      <line x1="297.462" y1="1629.130" x2="297.462" y2="1579.130"/>
      <line x1="298.462" y1="1629.130" x2="298.462" y2="1579.130"/>
      <line x1="299.462" y1="1629.130" x2="299.462" y2="1579.130"/>
      <line x1="300.462" y1="1629.130" x2="300.462" y2="1579.130"/>
      <line x1="301.462" y1="1629.130" x2="301.462" y2="1579.130"/>
      <line x1="302.462" y1="1629.130" x2="302.462" y2="1579.130"/>
      <line x1="303.462" y1="1629.130" x2="303.462" y2="1579.130"/>
      <line x1="304.462" y1="1629.130" x2="304.462" y2="1579.130"/>
      <line x1="305.462" y1="1629.130" x2="305.462" y2="1579.130"/>
      <line x1="306.462" y1="1629.130" x2="306.462" y2="1579.130"/>
      <line x1="307.462" y1="1629.130" x2="307.462" y2="1579.130"/>
      <line x1="308.462" y1="1629.130" x2="308.462" y2="1579.130"/>
      <line x1="309.462" y1="1629.130" x2="309.462" y2="1579.130"/>
      <line x1="310.462" y1="1629.130" x2="310.462" y2="1579.130"/>
      <line x1="311.462" y1="1629.130" x2="311.462" y2="1579.130"/>
      <line x1="312.462" y1="1629.130" x2="312.462" y2="1579.130"/>
      <line x1="287.462" y1="1579.030" x2="287.462" y2="1529.030"/>
      <line x1="288.462" y1="1579.030" x2="288.462" y2="1529.030"/>
      <line x1="289.462" y1="1579.030" x2="289.462" y2="1529.030"/>
      <line x1="290.462" y1="1579.030" x2="290.462" y2="1529.030"/>
      <line x1="291.462" y1="1579.030" x2="291.462" y2="1529.030"/>
      <line x1="292.462" y1="1579.030" x2="292.462" y2="1529.030"/>
      <line x1="293.462" y1="1579.030" x2="293.462" y2="1529.030"/>
      <line x1="294.462" y1="1579.030" x2="294.462" y2="1529.030"/>
      <line x1="295.462" y1="1579.030" x2="295.462" y2="1529.030"/>
      <line x1="296.462" y1="1579.030" x2="296.462" y2="1529.030"/>
      <line x1="297.462" y1="1579.030" x2="297.462" y2="1529.030"/>
      <line x1="298.462" y1="1579.030" x2="298.462" y2="1529.030"/>
      <line x1="299.462" y1="1579.030" x2="299.462" y2="1529.030"/>
      <line x1="300.462" y1="1579.030" x2="300.462" y2="1529.030"/>
      <line x1="301.462" y1="1579.030" x2="301.462" y2="1529.030"/>
      <line x1="302.462" y1="1579.030" x2="302.462" y2="1529.030"/>
      <line x1="303.462" y1="1579.030" x2="303.462" y2="1529.030"/>
      <line x1="304.462" y1="1579.030" x2="304.462" y2="1529.030"/>
      <line x1="305.462" y1="1579.030" x2="305.462" y2="1529.030"/>
      <line x1="306.462" y1="1579.030" x2="306.462" y2="1529.030"/>
      <line x1="307.462" y1="1579.030" x2="307.462" y2="1529.030"/>
      <line x1="308.462" y1="1579.030" x2="308.462" y2="1529.030"/>
      <line x1="309.462" y1="1579.030" x2="309.462" y2="1529.030"/>
      <line x1="310.462" y1="1579.030" x2="310.462" y2="1529.030"/>
      <line x1="311.462" y1="1579.030" x2="311.462" y2="1529.030"/>
      <line x1="312.462" y1="1579.030" x2="312.462" y2="1529.030"/>
      <line x1="300.462" y1="1528.930" x2="300.462" y2="1525.229"/>
      <line x1="312.462" y1="1528.930" x2="312.462" y2="1525.229"/>
      <line x1="311.462" y1="1528.930" x2="311.462" y2="1525.229"/>
      <line x1="310.462" y1="1528.930" x2="310.462" y2="1525.229"/>
      <line x1="309.462" y1="1528.930" x2="309.462" y2="1525.229"/>
      <line x1="308.462" y1="1528.930" x2="308.462" y2="1525.229"/>
      <line x1="307.462" y1="1528.930" x2="307.462" y2="1525.229"/>
      <line x1="306.462" y1="1528.930" x2="306.462" y2="1525.229"/>
      <line x1="305.462" y1="1528.930" x2="305.462" y2="1525.229"/>
      <line x1="304.462" y1="1528.930" x2="304.462" y2="1525.229"/>
      <line x1="303.462" y1="1528.930" x2="303.462" y2="1525.229"/>
      <line x1="302.462" y1="1528.930" x2="302.462" y2="1525.229"/>
      <line x1="301.462" y1="1528.930" x2="301.462" y2="1525.229"/>
      <line x1="287.462" y1="1528.930" x2="287.462" y2="1525.229"/>
      <line x1="299.462" y1="1528.930" x2="299.462" y2="1525.229"/>
      <line x1="298.462" y1="1528.930" x2="298.462" y2="1525.229"/>
      <line x1="297.462" y1="1528.930" x2="297.462" y2="1525.229"/>
      <line x1="296.462" y1="1528.930" x2="296.462" y2="1525.229"/>
      <line x1="295.462" y1="1528.930" x2="295.462" y2="1525.229"/>
      <line x1="294.462" y1="1528.930" x2="294.462" y2="1525.229"/>
      <line x1="293.462" y1="1528.930" x2="293.462" y2="1525.229"/>
      <line x1="292.462" y1="1528.930" x2="292.462" y2="1525.229"/>
      <line x1="291.462" y1="1528.930" x2="291.462" y2="1525.229"/>
      <line x1="290.462" y1="1528.930" x2="290.462" y2="1525.229"/>
      <line x1="289.462" y1="1528.930" x2="289.462" y2="1525.229"/>
      <line x1="288.462" y1="1528.930" x2="288.462" y2="1525.229"/>
    </g>
    <g stroke="#1976D2" stroke-width="0.4">
      <polyline points="316.653,1521.729 283.347,1521.729 283.347,1682.729 316.653,1682.729 316.653,1521.729" fill="none"/>
      <polyline points="315.653,1522.729 284.347,1522.729 284.347,1681.730 315.653,1681.730 315.653,1522.729" fill="none"/>
      <polyline points="314.653,1523.729 285.347,1523.729 285.347,1680.730 314.653,1680.730 314.653,1523.729" fill="none"/>
      <polyline points="313.653,1524.729 286.347,1524.729 286.347,1679.729 313.653,1679.729 313.653,1524.729" fill="none"/>
    </g>
    <g stroke="#C62828" stroke-width="0.4" fill="none">
    </g>
    <g stroke="#EF6C00" stroke-width="0.4" fill="none">
    </g>
  </g>
  <g stroke="#000000" stroke-width="0.4">
    <line x1="500.000" y1="1000.000" x2="1500.000" y2="1000.000"/>
  </g>
  <g stroke="#000000" stroke-width="0.4">
    <line x1="1000.000" y1="500.000" x2="1000.000" y2="1500.000"/>
  </g>
  <circle cx="1000.000" cy="1000.000" r="1000.000" stroke="red" stroke-width="1" fill="none"/>
  </g>
</svg>
