<?xml version="1.0" encoding="UTF-8"?>
<svg xmlns="http://www.w3.org/2000/svg" version="1.1" width="2000" height="2000">
  <g fill="none" stroke-linecap="round" stroke-linejoin="round">
  <text x="10" y="20" font-size="24" fill="#555">Layer 218 Z=55.600 mm</text>
  <g transform="translate(700.000,-602.229)">
    <g stroke="#2E7D32" stroke-width="0.4">
      <line x1="469.435" y1="1679.230" x2="469.435" y2="1629.230"/>
      <line x1="470.435" y1="1679.230" x2="470.435" y2="1629.230"/>
      <line x1="471.435" y1="1679.230" x2="471.435" y2="1629.230"/>
      <line x1="472.435" y1="1679.230" x2="472.435" y2="1629.230"/>
      <line x1="473.435" y1="1679.230" x2="473.435" y2="1629.230"/>
      <line x1="474.435" y1="1679.230" x2="474.435" y2="1629.230"/>
      <line x1="475.435" y1="1679.230" x2="475.435" y2="1629.230"/>
      <line x1="476.435" y1="1679.230" x2="476.435" y2="1629.230"/>
      <line x1="477.435" y1="1679.230" x2="477.435" y2="1629.230"/>
      <line x1="478.435" y1="1679.230" x2="478.435" y2="1629.230"/>
      <line x1="479.435" y1="1679.230" x2="479.435" y2="1629.230"/>
      <line x1="480.435" y1="1679.230" x2="480.435" y2="1629.230"/>
      <line x1="481.435" y1="1679.230" x2="481.435" y2="1629.230"/>
      <line x1="482.435" y1="1679.230" x2="482.435" y2="1629.230"/>
      <line x1="483.435" y1="1679.230" x2="483.435" y2="1629.230"/>
      <line x1="484.435" y1="1679.230" x2="484.435" y2="1629.230"/>
      <line x1="485.435" y1="1679.230" x2="485.435" y2="1629.230"/>
      <line x1="486.435" y1="1679.230" x2="486.435" y2="1629.230"/>
      <line x1="487.435" y1="1679.230" x2="487.435" y2="1629.230"/>
      <line x1="488.435" y1="1679.230" x2="488.435" y2="1629.230"/>
      <line x1="489.435" y1="1679.230" x2="489.435" y2="1629.230"/>
      <line x1="490.435" y1="1679.230" x2="490.435" y2="1629.230"/>
      <line x1="491.435" y1="1679.230" x2="491.435" y2="1629.230"/>
      <line x1="492.435" y1="1679.230" x2="492.435" y2="1629.230"/>
      <line x1="493.435" y1="1679.230" x2="493.435" y2="1629.230"/>
      <line x1="494.435" y1="1679.230" x2="494.435" y2="1629.230"/>
      <line x1="495.435" y1="1679.230" x2="495.435" y2="1629.230"/>
      <line x1="496.435" y1="1679.230" x2="496.435" y2="1629.230"/>
      <line x1="497.435" y1="1679.230" x2="497.435" y2="1629.230"/>
      <line x1="498.435" y1="1679.230" x2="498.435" y2="1629.230"/>
      <line x1="499.435" y1="1679.230" x2="499.435" y2="1629.230"/>
      <line x1="500.435" y1="1679.230" x2="500.435" y2="1629.230"/>
      <line x1="501.435" y1="1679.230" x2="501.435" y2="1629.230"/>
      <line x1="502.435" y1="1679.230" x2="502.435" y2="1629.230"/>
      <line x1="503.435" y1="1679.230" x2="503.435" y2="1629.230"/>
      <line x1="504.435" y1="1679.230" x2="504.435" y2="1629.230"/>
      <line x1="505.435" y1="1679.230" x2="505.435" y2="1629.230"/>
      <line x1="506.435" y1="1679.230" x2="506.435" y2="1629.230"/>
      <line x1="507.435" y1="1679.230" x2="507.435" y2="1629.230"/>
      <line x1="508.435" y1="1679.230" x2="508.435" y2="1629.230"/>
      <line x1="509.435" y1="1679.230" x2="509.435" y2="1629.230"/>
      <line x1="510.435" y1="1679.230" x2="510.435" y2="1629.230"/>
      <line x1="511.435" y1="1679.230" x2="511.435" y2="1629.230"/>
      <line x1="512.435" y1="1679.230" x2="512.435" y2="1629.230"/>
      <line x1="513.435" y1="1679.230" x2="513.435" y2="1629.230"/>
      <line x1="514.435" y1="1679.230" x2="514.435" y2="1629.230"/>
      <line x1="515.435" y1="1679.230" x2="515.435" y2="1629.230"/>
      <line x1="516.435" y1="1679.230" x2="516.435" y2="1629.230"/>
      <line x1="517.435" y1="1679.230" x2="517.435" y2="1629.230"/>
      <line x1="518.435" y1="1679.230" x2="518.435" y2="1629.230"/>
      <line x1="519.435" y1="1679.230" x2="519.435" y2="1629.230"/>
      <line x1="520.435" y1="1679.230" x2="520.435" y2="1629.230"/>
      <line x1="521.435" y1="1679.230" x2="521.435" y2="1629.230"/>
      <line x1="522.435" y1="1679.230" x2="522.435" y2="1629.230"/>
      <line x1="523.435" y1="1679.230" x2="523.435" y2="1629.230"/>
      <line x1="524.435" y1="1679.230" x2="524.435" y2="1629.230"/>
      <line x1="525.435" y1="1679.230" x2="525.435" y2="1629.230"/>
      <line x1="526.435" y1="1679.230" x2="526.435" y2="1629.230"/>
      <line x1="527.435" y1="1679.230" x2="527.435" y2="1629.230"/>
      <line x1="528.435" y1="1679.230" x2="528.435" y2="1629.230"/>
      <line x1="529.435" y1="1679.230" x2="529.435" y2="1629.230"/>
      <line x1="530.435" y1="1679.230" x2="530.435" y2="1629.230"/>
      <line x1="531.435" y1="1679.230" x2="531.435" y2="1629.230"/>
      <line x1="532.435" y1="1679.230" x2="532.435" y2="1629.230"/>
      <line x1="533.435" y1="1679.230" x2="533.435" y2="1629.230"/>
      <line x1="534.435" y1="1679.230" x2="534.435" y2="1629.230"/>
      <line x1="535.435" y1="1679.230" x2="535.435" y2="1629.230"/>
      <line x1="536.435" y1="1679.230" x2="536.435" y2="1629.230"/>
      <line x1="537.435" y1="1679.230" x2="537.435" y2="1629.230"/>
      <line x1="538.435" y1="1679.230" x2="538.435" y2="1629.230"/>
      <line x1="539.435" y1="1679.230" x2="539.435" y2="1629.230"/>
      <line x1="540.435" y1="1679.230" x2="540.435" y2="1629.230"/>
      <line x1="541.435" y1="1679.230" x2="541.435" y2="1629.230"/>
      <line x1="542.435" y1="1679.230" x2="542.435" y2="1629.230"/>
      <line x1="543.435" y1="1679.230" x2="543.435" y2="1629.230"/>
      <line x1="544.435" y1="1679.230" x2="544.435" y2="1629.230"/>
      <line x1="545.435" y1="1679.230" x2="545.435" y2="1629.230"/>
      <line x1="546.435" y1="1679.230" x2="546.435" y2="1629.230"/>
      <line x1="547.435" y1="1679.230" x2="547.435" y2="1629.230"/>
      <line x1="548.435" y1="1679.230" x2="548.435" y2="1629.230"/>
      <line x1="549.435" y1="1679.230" x2="549.435" y2="1629.230"/>
      <line x1="550.435" y1="1679.230" x2="550.435" y2="1629.230"/>
      <line x1="551.435" y1="1679.230" x2="551.435" y2="1629.230"/>
      <line x1="552.435" y1="1679.230" x2="552.435" y2="1629.230"/>
      <line x1="553.435" y1="1679.230" x2="553.435" y2="1629.230"/>
      <line x1="554.435" y1="1679.230" x2="554.435" y2="1629.230"/>
      <line x1="555.435" y1="1679.230" x2="555.435" y2="1629.230"/>
      <line x1="556.435" y1="1679.230" x2="556.435" y2="1629.230"/>
      <line x1="557.435" y1="1679.230" x2="557.435" y2="1629.230"/>
      <line x1="558.435" y1="1679.230" x2="558.435" y2="1629.230"/>
      <line x1="559.435" y1="1679.230" x2="559.435" y2="1629.230"/>
      <line x1="560.435" y1="1679.230" x2="560.435" y2="1629.230"/>
      <line x1="561.435" y1="1679.230" x2="561.435" y2="1629.230"/>
      <line x1="562.435" y1="1679.230" x2="562.435" y2="1629.230"/>
      <line x1="563.435" y1="1679.230" x2="563.435" y2="1629.230"/>
      <line x1="564.435" y1="1679.230" x2="564.435" y2="1629.230"/>
      <line x1="565.435" y1="1679.230" x2="565.435" y2="1629.230"/>
      <line x1="566.435" y1="1679.230" x2="566.435" y2="1629.230"/>
      <line x1="567.435" y1="1679.230" x2="567.435" y2="1629.230"/>
      <line x1="568.435" y1="1679.230" x2="568.435" y2="1629.230"/>
      <line x1="569.435" y1="1679.230" x2="569.435" y2="1629.230"/>
      <line x1="570.435" y1="1679.230" x2="570.435" y2="1629.230"/>
      <line x1="571.435" y1="1679.230" x2="571.435" y2="1629.230"/>
      <line x1="572.435" y1="1679.230" x2="572.435" y2="1629.230"/>
      <line x1="573.435" y1="1679.230" x2="573.435" y2="1629.230"/>
      <line x1="574.435" y1="1679.230" x2="574.435" y2="1629.230"/>
      <line x1="575.435" y1="1679.230" x2="575.435" y2="1629.230"/>
      <line x1="576.435" y1="1679.230" x2="576.435" y2="1629.230"/>
      <line x1="577.435" y1="1679.230" x2="577.435" y2="1629.230"/>
      <line x1="578.435" y1="1679.230" x2="578.435" y2="1629.230"/>
      <line x1="579.435" y1="1679.230" x2="579.435" y2="1629.230"/>
      <line x1="580.435" y1="1679.230" x2="580.435" y2="1629.230"/>
      <line x1="581.435" y1="1679.230" x2="581.435" y2="1629.230"/>
      <line x1="582.435" y1="1679.230" x2="582.435" y2="1629.230"/>
      <line x1="583.435" y1="1679.230" x2="583.435" y2="1629.230"/>
      <line x1="584.435" y1="1679.230" x2="584.435" y2="1629.230"/>
      <line x1="585.435" y1="1679.230" x2="585.435" y2="1629.230"/>
      <line x1="586.435" y1="1679.230" x2="586.435" y2="1629.230"/>
      <line x1="587.435" y1="1679.230" x2="587.435" y2="1629.230"/>
      <line x1="588.435" y1="1679.230" x2="588.435" y2="1629.230"/>
      <line x1="589.435" y1="1679.230" x2="589.435" y2="1629.230"/>
      <line x1="590.435" y1="1679.230" x2="590.435" y2="1629.230"/>
      <line x1="591.435" y1="1679.230" x2="591.435" y2="1629.230"/>
      <line x1="592.435" y1="1679.230" x2="592.435" y2="1629.230"/>
      <line x1="593.435" y1="1679.230" x2="593.435" y2="1629.230"/>
      <line x1="594.435" y1="1679.230" x2="594.435" y2="1629.230"/>
      <line x1="595.435" y1="1679.230" x2="595.435" y2="1629.230"/>
      <line x1="596.435" y1="1679.230" x2="596.435" y2="1629.230"/>
      <line x1="469.435" y1="1629.130" x2="469.435" y2="1579.130"/>
      <line x1="470.435" y1="1629.130" x2="470.435" y2="1579.130"/>
      <line x1="471.435" y1="1629.130" x2="471.435" y2="1579.130"/>
      <line x1="472.435" y1="1629.130" x2="472.435" y2="1579.130"/>
      <line x1="473.435" y1="1629.130" x2="473.435" y2="1579.130"/>
      <line x1="474.435" y1="1629.130" x2="474.435" y2="1579.130"/>
      <line x1="475.435" y1="1629.130" x2="475.435" y2="1579.130"/>
      <line x1="476.435" y1="1629.130" x2="476.435" y2="1579.130"/>
      <line x1="477.435" y1="1629.130" x2="477.435" y2="1579.130"/>
      <line x1="478.435" y1="1629.130" x2="478.435" y2="1579.130"/>
      <line x1="479.435" y1="1629.130" x2="479.435" y2="1579.130"/>
      <line x1="480.435" y1="1629.130" x2="480.435" y2="1579.130"/>
      <line x1="481.435" y1="1629.130" x2="481.435" y2="1579.130"/>
      <line x1="482.435" y1="1629.130" x2="482.435" y2="1579.130"/>
      <line x1="483.435" y1="1629.130" x2="483.435" y2="1579.130"/>
      <line x1="484.435" y1="1629.130" x2="484.435" y2="1579.130"/>
      <line x1="485.435" y1="1629.130" x2="485.435" y2="1579.130"/>
      <line x1="486.435" y1="1629.130" x2="486.435" y2="1579.130"/>
      <line x1="487.435" y1="1629.130" x2="487.435" y2="1579.130"/>
      <line x1="488.435" y1="1629.130" x2="488.435" y2="1579.130"/>
      <line x1="489.435" y1="1629.130" x2="489.435" y2="1579.130"/>
      <line x1="490.435" y1="1629.130" x2="490.435" y2="1579.130"/>
      <line x1="491.435" y1="1629.130" x2="491.435" y2="1579.130"/>
      <line x1="492.435" y1="1629.130" x2="492.435" y2="1579.130"/>
      <line x1="493.435" y1="1629.130" x2="493.435" y2="1579.130"/>
      <line x1="494.435" y1="1629.130" x2="494.435" y2="1579.130"/>
      <line x1="495.435" y1="1629.130" x2="495.435" y2="1579.130"/>
      <line x1="496.435" y1="1629.130" x2="496.435" y2="1579.130"/>
      <line x1="497.435" y1="1629.130" x2="497.435" y2="1579.130"/>
      <line x1="498.435" y1="1629.130" x2="498.435" y2="1579.130"/>
      <line x1="499.435" y1="1629.130" x2="499.435" y2="1579.130"/>
      <line x1="500.435" y1="1629.130" x2="500.435" y2="1579.130"/>
      <line x1="501.435" y1="1629.130" x2="501.435" y2="1579.130"/>
      <line x1="502.435" y1="1629.130" x2="502.435" y2="1579.130"/>
      <line x1="503.435" y1="1629.130" x2="503.435" y2="1579.130"/>
      <line x1="504.435" y1="1629.130" x2="504.435" y2="1579.130"/>
      <line x1="505.435" y1="1629.130" x2="505.435" y2="1579.130"/>
      <line x1="506.435" y1="1629.130" x2="506.435" y2="1579.130"/>
      <line x1="507.435" y1="1629.130" x2="507.435" y2="1579.130"/>
      <line x1="508.435" y1="1629.130" x2="508.435" y2="1579.130"/>
      <line x1="509.435" y1="1629.130" x2="509.435" y2="1579.130"/>
      <line x1="510.435" y1="1629.130" x2="510.435" y2="1579.130"/>
      <line x1="511.435" y1="1629.130" x2="511.435" y2="1579.130"/>
      <line x1="512.435" y1="1629.130" x2="512.435" y2="1579.130"/>
      <line x1="513.435" y1="1629.130" x2="513.435" y2="1579.130"/>
      <line x1="514.435" y1="1629.130" x2="514.435" y2="1579.130"/>
      <line x1="515.435" y1="1629.130" x2="515.435" y2="1579.130"/>
      <line x1="516.435" y1="1629.130" x2="516.435" y2="1579.130"/>
      <line x1="517.435" y1="1629.130" x2="517.435" y2="1579.130"/>
      <line x1="518.435" y1="1629.130" x2="518.435" y2="1579.130"/>
      <line x1="519.435" y1="1629.130" x2="519.435" y2="1579.130"/>
      <line x1="520.435" y1="1629.130" x2="520.435" y2="1579.130"/>
      <line x1="521.435" y1="1629.130" x2="521.435" y2="1579.130"/>
      <line x1="522.435" y1="1629.130" x2="522.435" y2="1579.130"/>
      <line x1="523.435" y1="1629.130" x2="523.435" y2="1579.130"/>
      <line x1="524.435" y1="1629.130" x2="524.435" y2="1579.130"/>
      <line x1="525.435" y1="1629.130" x2="525.435" y2="1579.130"/>
      <line x1="526.435" y1="1629.130" x2="526.435" y2="1579.130"/>
      <line x1="527.435" y1="1629.130" x2="527.435" y2="1579.130"/>
      <line x1="528.435" y1="1629.130" x2="528.435" y2="1579.130"/>
      <line x1="529.435" y1="1629.130" x2="529.435" y2="1579.130"/>
      <line x1="530.435" y1="1629.130" x2="530.435" y2="1579.130"/>
      <line x1="531.435" y1="1629.130" x2="531.435" y2="1579.130"/>
      <line x1="532.435" y1="1629.130" x2="532.435" y2="1579.130"/>
      <line x1="533.435" y1="1629.130" x2="533.435" y2="1579.130"/>
      <line x1="534.435" y1="1629.130" x2="534.435" y2="1579.130"/>
      <line x1="535.435" y1="1629.130" x2="535.435" y2="1579.130"/>
      <line x1="536.435" y1="1629.130" x2="536.435" y2="1579.130"/>
      <line x1="537.435" y1="1629.130" x2="537.435" y2="1579.130"/>
      <line x1="538.435" y1="1629.130" x2="538.435" y2="1579.130"/>
      <line x1="539.435" y1="1629.130" x2="539.435" y2="1579.130"/>
      <line x1="540.435" y1="1629.130" x2="540.435" y2="1579.130"/>
      <line x1="541.435" y1="1629.130" x2="541.435" y2="1579.130"/>
      <line x1="542.435" y1="1629.130" x2="542.435" y2="1579.130"/>
      <line x1="543.435" y1="1629.130" x2="543.435" y2="1579.130"/>
      <line x1="544.435" y1="1629.130" x2="544.435" y2="1579.130"/>
      <line x1="545.435" y1="1629.130" x2="545.435" y2="1579.130"/>
      <line x1="546.435" y1="1629.130" x2="546.435" y2="1579.130"/>
      <line x1="547.435" y1="1629.130" x2="547.435" y2="1579.130"/>
      <line x1="548.435" y1="1629.130" x2="548.435" y2="1579.130"/>
      <line x1="549.435" y1="1629.130" x2="549.435" y2="1579.130"/>
      <line x1="550.435" y1="1629.130" x2="550.435" y2="1579.130"/>
      <line x1="551.435" y1="1629.130" x2="551.435" y2="1579.130"/>
      <line x1="552.435" y1="1629.130" x2="552.435" y2="1579.130"/>
      <line x1="553.435" y1="1629.130" x2="553.435" y2="1579.130"/>
      <line x1="554.435" y1="1629.130" x2="554.435" y2="1579.130"/>
      <line x1="555.435" y1="1629.130" x2="555.435" y2="1579.130"/>
      <line x1="556.435" y1="1629.130" x2="556.435" y2="1579.130"/>
      <line x1="557.435" y1="1629.130" x2="557.435" y2="1579.130"/>
      <line x1="558.435" y1="1629.130" x2="558.435" y2="1579.130"/>
      <line x1="559.435" y1="1629.130" x2="559.435" y2="1579.130"/>
      <line x1="560.435" y1="1629.130" x2="560.435" y2="1579.130"/>
      <line x1="561.435" y1="1629.130" x2="561.435" y2="1579.130"/>
      <line x1="562.435" y1="1629.130" x2="562.435" y2="1579.130"/>
      <line x1="563.435" y1="1629.130" x2="563.435" y2="1579.130"/>
      <line x1="564.435" y1="1629.130" x2="564.435" y2="1579.130"/>
      <line x1="565.435" y1="1629.130" x2="565.435" y2="1579.130"/>
      <line x1="566.435" y1="1629.130" x2="566.435" y2="1579.130"/>
      <line x1="567.435" y1="1629.130" x2="567.435" y2="1579.130"/>
      <line x1="568.435" y1="1629.130" x2="568.435" y2="1579.130"/>
      <line x1="569.435" y1="1629.130" x2="569.435" y2="1579.130"/>
      <line x1="570.435" y1="1629.130" x2="570.435" y2="1579.130"/>
      <line x1="571.435" y1="1629.130" x2="571.435" y2="1579.130"/>
      <line x1="572.435" y1="1629.130" x2="572.435" y2="1579.130"/>
      <line x1="573.435" y1="1629.130" x2="573.435" y2="1579.130"/>
      <line x1="574.435" y1="1629.130" x2="574.435" y2="1579.130"/>
      <line x1="575.435" y1="1629.130" x2="575.435" y2="1579.130"/>
      <line x1="576.435" y1="1629.130" x2="576.435" y2="1579.130"/>
      <line x1="577.435" y1="1629.130" x2="577.435" y2="1579.130"/>
      <line x1="578.435" y1="1629.130" x2="578.435" y2="1579.130"/>
      <line x1="579.435" y1="1629.130" x2="579.435" y2="1579.130"/>
      <line x1="580.435" y1="1629.130" x2="580.435" y2="1579.130"/>
      <line x1="581.435" y1="1629.130" x2="581.435" y2="1579.130"/>
      <line x1="582.435" y1="1629.130" x2="582.435" y2="1579.130"/>
      <line x1="583.435" y1="1629.130" x2="583.435" y2="1579.130"/>
      <line x1="584.435" y1="1629.130" x2="584.435" y2="1579.130"/>
      <line x1="585.435" y1="1629.130" x2="585.435" y2="1579.130"/>
      <line x1="586.435" y1="1629.130" x2="586.435" y2="1579.130"/>
      <line x1="587.435" y1="1629.130" x2="587.435" y2="1579.130"/>
      <line x1="588.435" y1="1629.130" x2="588.435" y2="1579.130"/>
      <line x1="589.435" y1="1629.130" x2="589.435" y2="1579.130"/>
      <line x1="590.435" y1="1629.130" x2="590.435" y2="1579.130"/>
      <line x1="591.435" y1="1629.130" x2="591.435" y2="1579.130"/>
      <line x1="592.435" y1="1629.130" x2="592.435" y2="1579.130"/>
      <line x1="593.435" y1="1629.130" x2="593.435" y2="1579.130"/>
      <line x1="594.435" y1="1629.130" x2="594.435" y2="1579.130"/>
      <line x1="595.435" y1="1629.130" x2="595.435" y2="1579.130"/>
      <line x1="596.435" y1="1629.130" x2="596.435" y2="1579.130"/>
      <line x1="469.435" y1="1579.030" x2="469.435" y2="1529.030"/>
      <line x1="470.435" y1="1579.030" x2="470.435" y2="1529.030"/>
      <line x1="471.435" y1="1579.030" x2="471.435" y2="1529.030"/>
      <line x1="472.435" y1="1579.030" x2="472.435" y2="1529.030"/>
      <line x1="473.435" y1="1579.030" x2="473.435" y2="1529.030"/>
      <line x1="474.435" y1="1579.030" x2="474.435" y2="1529.030"/>
      <line x1="475.435" y1="1579.030" x2="475.435" y2="1529.030"/>
      <line x1="476.435" y1="1579.030" x2="476.435" y2="1529.030"/>
      <line x1="477.435" y1="1579.030" x2="477.435" y2="1529.030"/>
      <line x1="478.435" y1="1579.030" x2="478.435" y2="1529.030"/>
      <line x1="479.435" y1="1579.030" x2="479.435" y2="1529.030"/>
      <line x1="480.435" y1="1579.030" x2="480.435" y2="1529.030"/>
      <line x1="481.435" y1="1579.030" x2="481.435" y2="1529.030"/>
      <line x1="482.435" y1="1579.030" x2="482.435" y2="1529.030"/>
      <line x1="483.435" y1="1579.030" x2="483.435" y2="1529.030"/>
      <line x1="484.435" y1="1579.030" x2="484.435" y2="1529.030"/>
      <line x1="485.435" y1="1579.030" x2="485.435" y2="1529.030"/>
      <line x1="486.435" y1="1579.030" x2="486.435" y2="1529.030"/>
      <line x1="487.435" y1="1579.030" x2="487.435" y2="1529.030"/>
      <line x1="488.435" y1="1579.030" x2="488.435" y2="1529.030"/>
      <line x1="489.435" y1="1579.030" x2="489.435" y2="1529.030"/>
      <line x1="490.435" y1="1579.030" x2="490.435" y2="1529.030"/>
      <line x1="491.435" y1="1579.030" x2="491.435" y2="1529.030"/>
      <line x1="492.435" y1="1579.030" x2="492.435" y2="1529.030"/>
      <line x1="493.435" y1="1579.030" x2="493.435" y2="1529.030"/>
      <line x1="494.435" y1="1579.030" x2="494.435" y2="1529.030"/>
      <line x1="495.435" y1="1579.030" x2="495.435" y2="1529.030"/>
      <line x1="496.435" y1="1579.030" x2="496.435" y2="1529.030"/>
      <line x1="497.435" y1="1579.030" x2="497.435" y2="1529.030"/>
      <line x1="498.435" y1="1579.030" x2="498.435" y2="1529.030"/>
      <line x1="499.435" y1="1579.030" x2="499.435" y2="1529.030"/>
      <line x1="500.435" y1="1579.030" x2="500.435" y2="1529.030"/>
      <line x1="501.435" y1="1579.030" x2="501.435" y2="1529.030"/>
      <line x1="502.435" y1="1579.030" x2="502.435" y2="1529.030"/>
      <line x1="503.435" y1="1579.030" x2="503.435" y2="1529.030"/>
      <line x1="504.435" y1="1579.030" x2="504.435" y2="1529.030"/>
      <line x1="505.435" y1="1579.030" x2="505.435" y2="1529.030"/>
      <line x1="506.435" y1="1579.030" x2="506.435" y2="1529.030"/>
      <line x1="507.435" y1="1579.030" x2="507.435" y2="1529.030"/>
      <line x1="508.435" y1="1579.030" x2="508.435" y2="1529.030"/>
      <line x1="509.435" y1="1579.030" x2="509.435" y2="1529.030"/>
      <line x1="510.435" y1="1579.030" x2="510.435" y2="1529.030"/>
      <line x1="511.435" y1="1579.030" x2="511.435" y2="1529.030"/>
      <line x1="512.435" y1="1579.030" x2="512.435" y2="1529.030"/>
      <line x1="513.435" y1="1579.030" x2="513.435" y2="1529.030"/>
      <line x1="514.435" y1="1579.030" x2="514.435" y2="1529.030"/>
      <line x1="515.435" y1="1579.030" x2="515.435" y2="1529.030"/>
      <line x1="516.435" y1="1579.030" x2="516.435" y2="1529.030"/>
      <line x1="517.435" y1="1579.030" x2="517.435" y2="1529.030"/>
      <line x1="518.435" y1="1579.030" x2="518.435" y2="1529.030"/>
      <line x1="519.435" y1="1579.030" x2="519.435" y2="1529.030"/>
      <line x1="520.435" y1="1579.030" x2="520.435" y2="1529.030"/>
      <line x1="521.435" y1="1579.030" x2="521.435" y2="1529.030"/>
      <line x1="522.435" y1="1579.030" x2="522.435" y2="1529.030"/>
      <line x1="523.435" y1="1579.030" x2="523.435" y2="1529.030"/>
      <line x1="524.435" y1="1579.030" x2="524.435" y2="1529.030"/>
      <line x1="525.435" y1="1579.030" x2="525.435" y2="1529.030"/>
      <line x1="526.435" y1="1579.030" x2="526.435" y2="1529.030"/>
      <line x1="527.435" y1="1579.030" x2="527.435" y2="1529.030"/>
      <line x1="528.435" y1="1579.030" x2="528.435" y2="1529.030"/>
      <line x1="529.435" y1="1579.030" x2="529.435" y2="1529.030"/>
      <line x1="530.435" y1="1579.030" x2="530.435" y2="1529.030"/>
      <line x1="531.435" y1="1579.030" x2="531.435" y2="1529.030"/>
      <line x1="532.435" y1="1579.030" x2="532.435" y2="1529.030"/>
      <line x1="533.435" y1="1579.030" x2="533.435" y2="1529.030"/>
      <line x1="534.435" y1="1579.030" x2="534.435" y2="1529.030"/>
      <line x1="535.435" y1="1579.030" x2="535.435" y2="1529.030"/>
      <line x1="536.435" y1="1579.030" x2="536.435" y2="1529.030"/>
      <line x1="537.435" y1="1579.030" x2="537.435" y2="1529.030"/>
      <line x1="538.435" y1="1579.030" x2="538.435" y2="1529.030"/>
      <line x1="539.435" y1="1579.030" x2="539.435" y2="1529.030"/>
      <line x1="540.435" y1="1579.030" x2="540.435" y2="1529.030"/>
      <line x1="541.435" y1="1579.030" x2="541.435" y2="1529.030"/>
      <line x1="542.435" y1="1579.030" x2="542.435" y2="1529.030"/>
      <line x1="543.435" y1="1579.030" x2="543.435" y2="1529.030"/>
      <line x1="544.435" y1="1579.030" x2="544.435" y2="1529.030"/>
      <line x1="545.435" y1="1579.030" x2="545.435" y2="1529.030"/>
      <line x1="546.435" y1="1579.030" x2="546.435" y2="1529.030"/>
      <line x1="547.435" y1="1579.030" x2="547.435" y2="1529.030"/>
      <line x1="548.435" y1="1579.030" x2="548.435" y2="1529.030"/>
      <line x1="549.435" y1="1579.030" x2="549.435" y2="1529.030"/>
      <line x1="550.435" y1="1579.030" x2="550.435" y2="1529.030"/>
      <line x1="551.435" y1="1579.030" x2="551.435" y2="1529.030"/>
      <line x1="552.435" y1="1579.030" x2="552.435" y2="1529.030"/>
      <line x1="553.435" y1="1579.030" x2="553.435" y2="1529.030"/>
      <line x1="554.435" y1="1579.030" x2="554.435" y2="1529.030"/>
      <line x1="555.435" y1="1579.030" x2="555.435" y2="1529.030"/>
      <line x1="556.435" y1="1579.030" x2="556.435" y2="1529.030"/>
      <line x1="557.435" y1="1579.030" x2="557.435" y2="1529.030"/>
      <line x1="558.435" y1="1579.030" x2="558.435" y2="1529.030"/>
      <line x1="559.435" y1="1579.030" x2="559.435" y2="1529.030"/>
      <line x1="560.435" y1="1579.030" x2="560.435" y2="1529.030"/>
      <line x1="561.435" y1="1579.030" x2="561.435" y2="1529.030"/>
      <line x1="562.435" y1="1579.030" x2="562.435" y2="1529.030"/>
      <line x1="563.435" y1="1579.030" x2="563.435" y2="1529.030"/>
      <line x1="564.435" y1="1579.030" x2="564.435" y2="1529.030"/>
      <line x1="565.435" y1="1579.030" x2="565.435" y2="1529.030"/>
      <line x1="566.435" y1="1579.030" x2="566.435" y2="1529.030"/>
      <line x1="567.435" y1="1579.030" x2="567.435" y2="1529.030"/>
      <line x1="568.435" y1="1579.030" x2="568.435" y2="1529.030"/>
      <line x1="569.435" y1="1579.030" x2="569.435" y2="1529.030"/>
      <line x1="570.435" y1="1579.030" x2="570.435" y2="1529.030"/>
      <line x1="571.435" y1="1579.030" x2="571.435" y2="1529.030"/>
      <line x1="572.435" y1="1579.030" x2="572.435" y2="1529.030"/>
      <line x1="573.435" y1="1579.030" x2="573.435" y2="1529.030"/>
      <line x1="574.435" y1="1579.030" x2="574.435" y2="1529.030"/>
      <line x1="575.435" y1="1579.030" x2="575.435" y2="1529.030"/>
      <line x1="576.435" y1="1579.030" x2="576.435" y2="1529.030"/>
      <line x1="577.435" y1="1579.030" x2="577.435" y2="1529.030"/>
      <line x1="578.435" y1="1579.030" x2="578.435" y2="1529.030"/>
      <line x1="579.435" y1="1579.030" x2="579.435" y2="1529.030"/>
      <line x1="580.435" y1="1579.030" x2="580.435" y2="1529.030"/>
      <line x1="581.435" y1="1579.030" x2="581.435" y2="1529.030"/>
      <line x1="582.435" y1="1579.030" x2="582.435" y2="1529.030"/>
      <line x1="583.435" y1="1579.030" x2="583.435" y2="1529.030"/>
      <line x1="584.435" y1="1579.030" x2="584.435" y2="1529.030"/>
      <line x1="585.435" y1="1579.030" x2="585.435" y2="1529.030"/>
      <line x1="586.435" y1="1579.030" x2="586.435" y2="1529.030"/>
      <line x1="587.435" y1="1579.030" x2="587.435" y2="1529.030"/>
      <line x1="588.435" y1="1579.030" x2="588.435" y2="1529.030"/>
      <line x1="589.435" y1="1579.030" x2="589.435" y2="1529.030"/>
      <line x1="590.435" y1="1579.030" x2="590.435" y2="1529.030"/>
      <line x1="591.435" y1="1579.030" x2="591.435" y2="1529.030"/>
      <line x1="592.435" y1="1579.030" x2="592.435" y2="1529.030"/>
      <line x1="593.435" y1="1579.030" x2="593.435" y2="1529.030"/>
      <line x1="594.435" y1="1579.030" x2="594.435" y2="1529.030"/>
      <line x1="595.435" y1="1579.030" x2="595.435" y2="1529.030"/>
      <line x1="596.435" y1="1579.030" x2="596.435" y2="1529.030"/>
      <line x1="498.435" y1="1528.930" x2="498.435" y2="1525.229"/>
      <line x1="470.435" y1="1528.930" x2="470.435" y2="1525.229"/>
      <line x1="492.435" y1="1528.930" x2="492.435" y2="1525.229"/>
      <line x1="493.435" y1="1528.930" x2="493.435" y2="1525.229"/>
      <line x1="495.435" y1="1528.930" x2="495.435" y2="1525.229"/>
      <line x1="469.435" y1="1528.930" x2="469.435" y2="1525.229"/>
      <line x1="472.435" y1="1528.930" x2="472.435" y2="1525.229"/>
      <line x1="473.435" y1="1528.930" x2="473.435" y2="1525.229"/>
      <line x1="475.435" y1="1528.930" x2="475.435" y2="1525.229"/>
      <line x1="476.435" y1="1528.930" x2="476.435" y2="1525.229"/>
      <line x1="478.435" y1="1528.930" x2="478.435" y2="1525.229"/>
      <line x1="481.435" y1="1528.930" x2="481.435" y2="1525.229"/>
      <line x1="484.435" y1="1528.930" x2="484.435" y2="1525.229"/>
      <line x1="496.435" y1="1528.930" x2="496.435" y2="1525.229"/>
      <line x1="490.435" y1="1528.930" x2="490.435" y2="1525.229"/>
      <line x1="487.435" y1="1528.930" x2="487.435" y2="1525.229"/>
      <line x1="483.435" y1="1528.930" x2="483.435" y2="1525.229"/>
      <line x1="489.435" y1="1528.930" x2="489.435" y2="1525.229"/>
      <line x1="486.435" y1="1528.930" x2="486.435" y2="1525.229"/>
      <line x1="474.435" y1="1528.930" x2="474.435" y2="1525.229"/>
      <line x1="477.435" y1="1528.930" x2="477.435" y2="1525.229"/>
      <line x1="480.435" y1="1528.930" x2="480.435" y2="1525.229"/>
      <line x1="479.435" y1="1528.930" x2="479.435" y2="1525.229"/>
      <line x1="482.435" y1="1528.930" x2="482.435" y2="1525.229"/>
      <line x1="485.435" y1="1528.930" x2="485.435" y2="1525.229"/>
      <line x1="488.435" y1="1528.930" x2="488.435" y2="1525.229"/>
      <line x1="491.435" y1="1528.930" x2="491.435" y2="1525.229"/>
      <line x1="494.435" y1="1528.930" x2="494.435" y2="1525.229"/>
      <line x1="497.435" y1="1528.930" x2="497.435" y2="1525.229"/>
      <line x1="471.435" y1="1528.930" x2="471.435" y2="1525.229"/>
      <line x1="500.435" y1="1528.930" x2="500.435" y2="1525.229"/>
      <line x1="511.435" y1="1528.930" x2="511.435" y2="1525.229"/>
      <line x1="510.435" y1="1528.930" x2="510.435" y2="1525.229"/>
      <line x1="509.435" y1="1528.930" x2="509.435" y2="1525.229"/>
      <line x1="508.435" y1="1528.930" x2="508.435" y2="1525.229"/>
      <line x1="507.435" y1="1528.930" x2="507.435" y2="1525.229"/>
      <line x1="506.435" y1="1528.930" x2="506.435" y2="1525.229"/>
      <line x1="505.435" y1="1528.930" x2="505.435" y2="1525.229"/>
      <line x1="504.435" y1="1528.930" x2="504.435" y2="1525.229"/>
      <line x1="503.435" y1="1528.930" x2="503.435" y2="1525.229"/>
      <line x1="502.435" y1="1528.930" x2="502.435" y2="1525.229"/>
      <line x1="501.435" y1="1528.930" x2="501.435" y2="1525.229"/>
      <line x1="512.435" y1="1528.930" x2="512.435" y2="1525.229"/>
      <line x1="499.435" y1="1528.930" x2="499.435" y2="1525.229"/>
      <line x1="518.435" y1="1528.930" x2="518.435" y2="1525.229"/>
      <line x1="517.435" y1="1528.930" x2="517.435" y2="1525.229"/>
      <line x1="516.435" y1="1528.930" x2="516.435" y2="1525.229"/>
      <line x1="515.435" y1="1528.930" x2="515.435" y2="1525.229"/>
      <line x1="514.435" y1="1528.930" x2="514.435" y2="1525.229"/>
      <line x1="513.435" y1="1528.930" x2="513.435" y2="1525.229"/>
      <line x1="548.435" y1="1528.930" x2="548.435" y2="1525.229"/>
      <line x1="559.435" y1="1528.930" x2="559.435" y2="1525.229"/>
      <line x1="558.435" y1="1528.930" x2="558.435" y2="1525.229"/>
      <line x1="557.435" y1="1528.930" x2="557.435" y2="1525.229"/>
      <line x1="556.435" y1="1528.930" x2="556.435" y2="1525.229"/>
      <line x1="555.435" y1="1528.930" x2="555.435" y2="1525.229"/>
      <line x1="554.435" y1="1528.930" x2="554.435" y2="1525.229"/>
      <line x1="553.435" y1="1528.930" x2="553.435" y2="1525.229"/>
      <line x1="552.435" y1="1528.930" x2="552.435" y2="1525.229"/>
      <line x1="551.435" y1="1528.930" x2="551.435" y2="1525.229"/>
      <line x1="550.435" y1="1528.930" x2="550.435" y2="1525.229"/>
      <line x1="549.435" y1="1528.930" x2="549.435" y2="1525.229"/>
      <line x1="560.435" y1="1528.930" x2="560.435" y2="1525.229"/>
      <line x1="547.435" y1="1528.930" x2="547.435" y2="1525.229"/>
      <line x1="546.435" y1="1528.930" x2="546.435" y2="1525.229"/>
      <line x1="545.435" y1="1528.930" x2="545.435" y2="1525.229"/>
      <line x1="544.435" y1="1528.930" x2="544.435" y2="1525.229"/>
      <line x1="543.435" y1="1528.930" x2="543.435" y2="1525.229"/>
      <line x1="542.435" y1="1528.930" x2="542.435" y2="1525.229"/>
      <line x1="541.435" y1="1528.930" x2="541.435" y2="1525.229"/>
      <line x1="540.435" y1="1528.930" x2="540.435" y2="1525.229"/>
      <line x1="539.435" y1="1528.930" x2="539.435" y2="1525.229"/>
      <line x1="538.435" y1="1528.930" x2="538.435" y2="1525.229"/>
      <line x1="537.435" y1="1528.930" x2="537.435" y2="1525.229"/>
      <line x1="568.435" y1="1528.930" x2="568.435" y2="1525.229"/>
      <line x1="567.435" y1="1528.930" x2="567.435" y2="1525.229"/>
      <line x1="566.435" y1="1528.930" x2="566.435" y2="1525.229"/>
      <line x1="565.435" y1="1528.930" x2="565.435" y2="1525.229"/>
      <line x1="564.435" y1="1528.930" x2="564.435" y2="1525.229"/>
      <line x1="563.435" y1="1528.930" x2="563.435" y2="1525.229"/>
      <line x1="562.435" y1="1528.930" x2="562.435" y2="1525.229"/>
      <line x1="561.435" y1="1528.930" x2="561.435" y2="1525.229"/>
      <line x1="524.435" y1="1528.930" x2="524.435" y2="1525.229"/>
      <line x1="535.435" y1="1528.930" x2="535.435" y2="1525.229"/>
      <line x1="534.435" y1="1528.930" x2="534.435" y2="1525.229"/>
      <line x1="533.435" y1="1528.930" x2="533.435" y2="1525.229"/>
      <line x1="532.435" y1="1528.930" x2="532.435" y2="1525.229"/>
      <line x1="531.435" y1="1528.930" x2="531.435" y2="1525.229"/>
      <line x1="530.435" y1="1528.930" x2="530.435" y2="1525.229"/>
      <line x1="529.435" y1="1528.930" x2="529.435" y2="1525.229"/>
      <line x1="528.435" y1="1528.930" x2="528.435" y2="1525.229"/>
      <line x1="527.435" y1="1528.930" x2="527.435" y2="1525.229"/>
      <line x1="526.435" y1="1528.930" x2="526.435" y2="1525.229"/>
      <line x1="525.435" y1="1528.930" x2="525.435" y2="1525.229"/>
      <line x1="536.435" y1="1528.930" x2="536.435" y2="1525.229"/>
      <line x1="523.435" y1="1528.930" x2="523.435" y2="1525.229"/>
      <line x1="522.435" y1="1528.930" x2="522.435" y2="1525.229"/>
      <line x1="521.435" y1="1528.930" x2="521.435" y2="1525.229"/>
      <line x1="520.435" y1="1528.930" x2="520.435" y2="1525.229"/>
      <line x1="519.435" y1="1528.930" x2="519.435" y2="1525.229"/>
      <line x1="574.435" y1="1528.930" x2="574.435" y2="1525.229"/>
      <line x1="577.435" y1="1528.930" x2="577.435" y2="1525.229"/>
      <line x1="579.435" y1="1528.930" x2="579.435" y2="1525.229"/>
      <line x1="580.435" y1="1528.930" x2="580.435" y2="1525.229"/>
      <line x1="582.435" y1="1528.930" x2="582.435" y2="1525.229"/>
      <line x1="583.435" y1="1528.930" x2="583.435" y2="1525.229"/>
      <line x1="585.435" y1="1528.930" x2="585.435" y2="1525.229"/>
      <line x1="586.435" y1="1528.930" x2="586.435" y2="1525.229"/>
      <line x1="588.435" y1="1528.930" x2="588.435" y2="1525.229"/>
      <line x1="589.435" y1="1528.930" x2="589.435" y2="1525.229"/>
      <line x1="591.435" y1="1528.930" x2="591.435" y2="1525.229"/>
      <line x1="592.435" y1="1528.930" x2="592.435" y2="1525.229"/>
      <line x1="594.435" y1="1528.930" x2="594.435" y2="1525.229"/>
      <line x1="572.435" y1="1528.930" x2="572.435" y2="1525.229"/>
      <line x1="573.435" y1="1528.930" x2="573.435" y2="1525.229"/>
      <line x1="571.435" y1="1528.930" x2="571.435" y2="1525.229"/>
      <line x1="570.435" y1="1528.930" x2="570.435" y2="1525.229"/>
      <line x1="569.435" y1="1528.930" x2="569.435" y2="1525.229"/>
      <line x1="576.435" y1="1528.930" x2="576.435" y2="1525.229"/>
      <line x1="575.435" y1="1528.930" x2="575.435" y2="1525.229"/>
      <line x1="578.435" y1="1528.930" x2="578.435" y2="1525.229"/>
      <line x1="581.435" y1="1528.930" x2="581.435" y2="1525.229"/>
      <line x1="584.435" y1="1528.930" x2="584.435" y2="1525.229"/>
      <line x1="587.435" y1="1528.930" x2="587.435" y2="1525.229"/>
      <line x1="590.435" y1="1528.930" x2="590.435" y2="1525.229"/>
      <line x1="593.435" y1="1528.930" x2="593.435" y2="1525.229"/>
      <line x1="596.435" y1="1528.930" x2="596.435" y2="1525.229"/>
      <line x1="595.435" y1="1528.930" x2="595.435" y2="1525.229"/>
      <line x1="3.351" y1="1679.230" x2="3.351" y2="1629.230"/>
      <line x1="4.351" y1="1679.230" x2="4.351" y2="1629.230"/>
      <line x1="5.351" y1="1679.230" x2="5.351" y2="1629.230"/>
      <line x1="6.351" y1="1679.230" x2="6.351" y2="1629.230"/>
      <line x1="7.351" y1="1679.230" x2="7.351" y2="1629.230"/>
      <line x1="8.351" y1="1679.230" x2="8.351" y2="1629.230"/>
      <line x1="9.351" y1="1679.230" x2="9.351" y2="1629.230"/>
      <line x1="10.351" y1="1679.230" x2="10.351" y2="1629.230"/>
      <line x1="11.351" y1="1679.230" x2="11.351" y2="1629.230"/>
      <line x1="12.351" y1="1679.230" x2="12.351" y2="1629.230"/>
      <line x1="13.351" y1="1679.230" x2="13.351" y2="1629.230"/>
      <line x1="14.351" y1="1679.230" x2="14.351" y2="1629.230"/>
      <line x1="15.351" y1="1679.230" x2="15.351" y2="1629.230"/>
      <line x1="16.351" y1="1679.230" x2="16.351" y2="1629.230"/>
      <line x1="17.351" y1="1679.230" x2="17.351" y2="1629.230"/>
      <line x1="18.351" y1="1679.230" x2="18.351" y2="1629.230"/>
      <line x1="19.351" y1="1679.230" x2="19.351" y2="1629.230"/>
      <line x1="20.351" y1="1679.230" x2="20.351" y2="1629.230"/>
      <line x1="21.351" y1="1679.230" x2="21.351" y2="1629.230"/>
      <line x1="22.351" y1="1679.230" x2="22.351" y2="1629.230"/>
      <line x1="23.351" y1="1679.230" x2="23.351" y2="1629.230"/>
      <line x1="24.351" y1="1679.230" x2="24.351" y2="1629.230"/>
      <line x1="25.351" y1="1679.230" x2="25.351" y2="1629.230"/>
      <line x1="26.351" y1="1679.230" x2="26.351" y2="1629.230"/>
      <line x1="27.351" y1="1679.230" x2="27.351" y2="1629.230"/>
      <line x1="28.351" y1="1679.230" x2="28.351" y2="1629.230"/>
      <line x1="29.351" y1="1679.230" x2="29.351" y2="1629.230"/>
      <line x1="30.351" y1="1679.230" x2="30.351" y2="1629.230"/>
      <line x1="31.351" y1="1679.230" x2="31.351" y2="1629.230"/>
      <line x1="32.351" y1="1679.230" x2="32.351" y2="1629.230"/>
      <line x1="33.351" y1="1679.230" x2="33.351" y2="1629.230"/>
      <line x1="34.351" y1="1679.230" x2="34.351" y2="1629.230"/>
      <line x1="35.351" y1="1679.230" x2="35.351" y2="1629.230"/>
      <line x1="36.351" y1="1679.230" x2="36.351" y2="1629.230"/>
      <line x1="37.351" y1="1679.230" x2="37.351" y2="1629.230"/>
      <line x1="38.351" y1="1679.230" x2="38.351" y2="1629.230"/>
      <line x1="39.351" y1="1679.230" x2="39.351" y2="1629.230"/>
      <line x1="40.351" y1="1679.230" x2="40.351" y2="1629.230"/>
      <line x1="41.351" y1="1679.230" x2="41.351" y2="1629.230"/>
      <line x1="42.351" y1="1679.230" x2="42.351" y2="1629.230"/>
      <line x1="43.351" y1="1679.230" x2="43.351" y2="1629.230"/>
      <line x1="44.351" y1="1679.230" x2="44.351" y2="1629.230"/>
      <line x1="45.351" y1="1679.230" x2="45.351" y2="1629.230"/>
      <line x1="46.351" y1="1679.230" x2="46.351" y2="1629.230"/>
      <line x1="47.351" y1="1679.230" x2="47.351" y2="1629.230"/>
      <line x1="48.351" y1="1679.230" x2="48.351" y2="1629.230"/>
      <line x1="49.351" y1="1679.230" x2="49.351" y2="1629.230"/>
      <line x1="50.351" y1="1679.230" x2="50.351" y2="1629.230"/>
      <line x1="51.351" y1="1679.230" x2="51.351" y2="1629.230"/>
      <line x1="52.351" y1="1679.230" x2="52.351" y2="1629.230"/>
      <line x1="53.351" y1="1679.230" x2="53.351" y2="1629.230"/>
      <line x1="54.351" y1="1679.230" x2="54.351" y2="1629.230"/>
      <line x1="55.351" y1="1679.230" x2="55.351" y2="1629.230"/>
      <line x1="56.351" y1="1679.230" x2="56.351" y2="1629.230"/>
      <line x1="57.351" y1="1679.230" x2="57.351" y2="1629.230"/>
      <line x1="58.351" y1="1679.230" x2="58.351" y2="1629.230"/>
      <line x1="59.351" y1="1679.230" x2="59.351" y2="1629.230"/>
      <line x1="60.351" y1="1679.230" x2="60.351" y2="1629.230"/>
      <line x1="61.351" y1="1679.230" x2="61.351" y2="1629.230"/>
      <line x1="62.351" y1="1679.230" x2="62.351" y2="1629.230"/>
      <line x1="63.351" y1="1679.230" x2="63.351" y2="1629.230"/>
      <line x1="64.351" y1="1679.230" x2="64.351" y2="1629.230"/>
      <line x1="65.351" y1="1679.230" x2="65.351" y2="1629.230"/>
      <line x1="66.351" y1="1679.230" x2="66.351" y2="1629.230"/>
      <line x1="67.351" y1="1679.230" x2="67.351" y2="1629.230"/>
      <line x1="68.351" y1="1679.230" x2="68.351" y2="1629.230"/>
      <line x1="69.351" y1="1679.230" x2="69.351" y2="1629.230"/>
      <line x1="70.351" y1="1679.230" x2="70.351" y2="1629.230"/>
      <line x1="71.351" y1="1679.230" x2="71.351" y2="1629.230"/>
      <line x1="72.351" y1="1679.230" x2="72.351" y2="1629.230"/>
      <line x1="73.351" y1="1679.230" x2="73.351" y2="1629.230"/>
      <line x1="74.351" y1="1679.230" x2="74.351" y2="1629.230"/>
      <line x1="75.351" y1="1679.230" x2="75.351" y2="1629.230"/>
      <line x1="76.351" y1="1679.230" x2="76.351" y2="1629.230"/>
      <line x1="77.351" y1="1679.230" x2="77.351" y2="1629.230"/>
      <line x1="78.351" y1="1679.230" x2="78.351" y2="1629.230"/>
      <line x1="79.351" y1="1679.230" x2="79.351" y2="1629.230"/>
      <line x1="80.351" y1="1679.230" x2="80.351" y2="1629.230"/>
      <line x1="81.351" y1="1679.230" x2="81.351" y2="1629.230"/>
      <line x1="82.351" y1="1679.230" x2="82.351" y2="1629.230"/>
      <line x1="83.351" y1="1679.230" x2="83.351" y2="1629.230"/>
      <line x1="84.351" y1="1679.230" x2="84.351" y2="1629.230"/>
      <line x1="85.351" y1="1679.230" x2="85.351" y2="1629.230"/>
      <line x1="86.351" y1="1679.230" x2="86.351" y2="1629.230"/>
      <line x1="87.351" y1="1679.230" x2="87.351" y2="1629.230"/>
      <line x1="88.351" y1="1679.230" x2="88.351" y2="1629.230"/>
      <line x1="89.351" y1="1679.230" x2="89.351" y2="1629.230"/>
      <line x1="90.351" y1="1679.230" x2="90.351" y2="1629.230"/>
      <line x1="91.351" y1="1679.230" x2="91.351" y2="1629.230"/>
      <line x1="92.351" y1="1679.230" x2="92.351" y2="1629.230"/>
      <line x1="93.351" y1="1679.230" x2="93.351" y2="1629.230"/>
      <line x1="94.351" y1="1679.230" x2="94.351" y2="1629.230"/>
      <line x1="95.351" y1="1679.230" x2="95.351" y2="1629.230"/>
      <line x1="96.351" y1="1679.230" x2="96.351" y2="1629.230"/>
      <line x1="97.351" y1="1679.230" x2="97.351" y2="1629.230"/>
      <line x1="98.351" y1="1679.230" x2="98.351" y2="1629.230"/>
      <line x1="99.351" y1="1679.230" x2="99.351" y2="1629.230"/>
      <line x1="100.351" y1="1679.230" x2="100.351" y2="1629.230"/>
      <line x1="101.351" y1="1679.230" x2="101.351" y2="1629.230"/>
      <line x1="102.351" y1="1679.230" x2="102.351" y2="1629.230"/>
      <line x1="103.351" y1="1679.230" x2="103.351" y2="1629.230"/>
      <line x1="104.351" y1="1679.230" x2="104.351" y2="1629.230"/>
      <line x1="105.351" y1="1679.230" x2="105.351" y2="1629.230"/>
      <line x1="106.351" y1="1679.230" x2="106.351" y2="1629.230"/>
      <line x1="107.351" y1="1679.230" x2="107.351" y2="1629.230"/>
      <line x1="108.351" y1="1679.230" x2="108.351" y2="1629.230"/>
      <line x1="109.351" y1="1679.230" x2="109.351" y2="1629.230"/>
      <line x1="110.351" y1="1679.230" x2="110.351" y2="1629.230"/>
      <line x1="111.351" y1="1679.230" x2="111.351" y2="1629.230"/>
      <line x1="112.351" y1="1679.230" x2="112.351" y2="1629.230"/>
      <line x1="113.351" y1="1679.230" x2="113.351" y2="1629.230"/>
      <line x1="114.351" y1="1679.230" x2="114.351" y2="1629.230"/>
      <line x1="115.351" y1="1679.230" x2="115.351" y2="1629.230"/>
      <line x1="116.351" y1="1679.230" x2="116.351" y2="1629.230"/>
      <line x1="117.351" y1="1679.230" x2="117.351" y2="1629.230"/>
      <line x1="118.351" y1="1679.230" x2="118.351" y2="1629.230"/>
      <line x1="119.351" y1="1679.230" x2="119.351" y2="1629.230"/>
      <line x1="120.351" y1="1679.230" x2="120.351" y2="1629.230"/>
      <line x1="121.351" y1="1679.230" x2="121.351" y2="1629.230"/>
      <line x1="122.351" y1="1679.230" x2="122.351" y2="1629.230"/>
      <line x1="123.351" y1="1679.230" x2="123.351" y2="1629.230"/>
      <line x1="124.351" y1="1679.230" x2="124.351" y2="1629.230"/>
      <line x1="125.351" y1="1679.230" x2="125.351" y2="1629.230"/>
      <line x1="126.351" y1="1679.230" x2="126.351" y2="1629.230"/>
      <line x1="127.351" y1="1679.230" x2="127.351" y2="1629.230"/>
      <line x1="128.351" y1="1679.230" x2="128.351" y2="1629.230"/>
      <line x1="129.351" y1="1679.230" x2="129.351" y2="1629.230"/>
      <line x1="130.351" y1="1679.230" x2="130.351" y2="1629.230"/>
      <line x1="3.351" y1="1629.130" x2="3.351" y2="1579.130"/>
      <line x1="4.351" y1="1629.130" x2="4.351" y2="1579.130"/>
      <line x1="5.351" y1="1629.130" x2="5.351" y2="1579.130"/>
      <line x1="6.351" y1="1629.130" x2="6.351" y2="1579.130"/>
      <line x1="7.351" y1="1629.130" x2="7.351" y2="1579.130"/>
      <line x1="8.351" y1="1629.130" x2="8.351" y2="1579.130"/>
      <line x1="9.351" y1="1629.130" x2="9.351" y2="1579.130"/>
      <line x1="10.351" y1="1629.130" x2="10.351" y2="1579.130"/>
      <line x1="11.351" y1="1629.130" x2="11.351" y2="1579.130"/>
      <line x1="12.351" y1="1629.130" x2="12.351" y2="1579.130"/>
      <line x1="13.351" y1="1629.130" x2="13.351" y2="1579.130"/>
      <line x1="14.351" y1="1629.130" x2="14.351" y2="1579.130"/>
      <line x1="15.351" y1="1629.130" x2="15.351" y2="1579.130"/>
      <line x1="16.351" y1="1629.130" x2="16.351" y2="1579.130"/>
      <line x1="17.351" y1="1629.130" x2="17.351" y2="1579.130"/>
      <line x1="18.351" y1="1629.130" x2="18.351" y2="1579.130"/>
      <line x1="19.351" y1="1629.130" x2="19.351" y2="1579.130"/>
      <line x1="20.351" y1="1629.130" x2="20.351" y2="1579.130"/>
      <line x1="21.351" y1="1629.130" x2="21.351" y2="1579.130"/>
      <line x1="22.351" y1="1629.130" x2="22.351" y2="1579.130"/>
      <line x1="23.351" y1="1629.130" x2="23.351" y2="1579.130"/>
      <line x1="24.351" y1="1629.130" x2="24.351" y2="1579.130"/>
      <line x1="25.351" y1="1629.130" x2="25.351" y2="1579.130"/>
      <line x1="26.351" y1="1629.130" x2="26.351" y2="1579.130"/>
      <line x1="27.351" y1="1629.130" x2="27.351" y2="1579.130"/>
      <line x1="28.351" y1="1629.130" x2="28.351" y2="1579.130"/>
      <line x1="29.351" y1="1629.130" x2="29.351" y2="1579.130"/>
      <line x1="30.351" y1="1629.130" x2="30.351" y2="1579.130"/>
      <line x1="31.351" y1="1629.130" x2="31.351" y2="1579.130"/>
      <line x1="32.351" y1="1629.130" x2="32.351" y2="1579.130"/>
      <line x1="33.351" y1="1629.130" x2="33.351" y2="1579.130"/>
      <line x1="34.351" y1="1629.130" x2="34.351" y2="1579.130"/>
      <line x1="35.351" y1="1629.130" x2="35.351" y2="1579.130"/>
      <line x1="36.351" y1="1629.130" x2="36.351" y2="1579.130"/>
      <line x1="37.351" y1="1629.130" x2="37.351" y2="1579.130"/>
      <line x1="38.351" y1="1629.130" x2="38.351" y2="1579.130"/>
      <line x1="39.351" y1="1629.130" x2="39.351" y2="1579.130"/>
      <line x1="40.351" y1="1629.130" x2="40.351" y2="1579.130"/>
      <line x1="41.351" y1="1629.130" x2="41.351" y2="1579.130"/>
      <line x1="42.351" y1="1629.130" x2="42.351" y2="1579.130"/>
      <line x1="43.351" y1="1629.130" x2="43.351" y2="1579.130"/>
      <line x1="44.351" y1="1629.130" x2="44.351" y2="1579.130"/>
      <line x1="45.351" y1="1629.130" x2="45.351" y2="1579.130"/>
      <line x1="46.351" y1="1629.130" x2="46.351" y2="1579.130"/>
      <line x1="47.351" y1="1629.130" x2="47.351" y2="1579.130"/>
      <line x1="48.351" y1="1629.130" x2="48.351" y2="1579.130"/>
      <line x1="49.351" y1="1629.130" x2="49.351" y2="1579.130"/>
      <line x1="50.351" y1="1629.130" x2="50.351" y2="1579.130"/>
      <line x1="51.351" y1="1629.130" x2="51.351" y2="1579.130"/>
      <line x1="52.351" y1="1629.130" x2="52.351" y2="1579.130"/>
      <line x1="53.351" y1="1629.130" x2="53.351" y2="1579.130"/>
      <line x1="54.351" y1="1629.130" x2="54.351" y2="1579.130"/>
      <line x1="55.351" y1="1629.130" x2="55.351" y2="1579.130"/>
      <line x1="56.351" y1="1629.130" x2="56.351" y2="1579.130"/>
      <line x1="57.351" y1="1629.130" x2="57.351" y2="1579.130"/>
      <line x1="58.351" y1="1629.130" x2="58.351" y2="1579.130"/>
      <line x1="59.351" y1="1629.130" x2="59.351" y2="1579.130"/>
      <line x1="60.351" y1="1629.130" x2="60.351" y2="1579.130"/>
      <line x1="61.351" y1="1629.130" x2="61.351" y2="1579.130"/>
      <line x1="62.351" y1="1629.130" x2="62.351" y2="1579.130"/>
      <line x1="63.351" y1="1629.130" x2="63.351" y2="1579.130"/>
      <line x1="64.351" y1="1629.130" x2="64.351" y2="1579.130"/>
      <line x1="65.351" y1="1629.130" x2="65.351" y2="1579.130"/>
      <line x1="66.351" y1="1629.130" x2="66.351" y2="1579.130"/>
      <line x1="67.351" y1="1629.130" x2="67.351" y2="1579.130"/>
      <line x1="68.351" y1="1629.130" x2="68.351" y2="1579.130"/>
      <line x1="69.351" y1="1629.130" x2="69.351" y2="1579.130"/>
      <line x1="70.351" y1="1629.130" x2="70.351" y2="1579.130"/>
      <line x1="71.351" y1="1629.130" x2="71.351" y2="1579.130"/>
      <line x1="72.351" y1="1629.130" x2="72.351" y2="1579.130"/>
      <line x1="73.351" y1="1629.130" x2="73.351" y2="1579.130"/>
      <line x1="74.351" y1="1629.130" x2="74.351" y2="1579.130"/>
      <line x1="75.351" y1="1629.130" x2="75.351" y2="1579.130"/>
      <line x1="76.351" y1="1629.130" x2="76.351" y2="1579.130"/>
      <line x1="77.351" y1="1629.130" x2="77.351" y2="1579.130"/>
      <line x1="78.351" y1="1629.130" x2="78.351" y2="1579.130"/>
      <line x1="79.351" y1="1629.130" x2="79.351" y2="1579.130"/>
      <line x1="80.351" y1="1629.130" x2="80.351" y2="1579.130"/>
      <line x1="81.351" y1="1629.130" x2="81.351" y2="1579.130"/>
      <line x1="82.351" y1="1629.130" x2="82.351" y2="1579.130"/>
      <line x1="83.351" y1="1629.130" x2="83.351" y2="1579.130"/>
      <line x1="84.351" y1="1629.130" x2="84.351" y2="1579.130"/>
      <line x1="85.351" y1="1629.130" x2="85.351" y2="1579.130"/>
      <line x1="86.351" y1="1629.130" x2="86.351" y2="1579.130"/>
      <line x1="87.351" y1="1629.130" x2="87.351" y2="1579.130"/>
      <line x1="88.351" y1="1629.130" x2="88.351" y2="1579.130"/>
      <line x1="89.351" y1="1629.130" x2="89.351" y2="1579.130"/>
      <line x1="90.351" y1="1629.130" x2="90.351" y2="1579.130"/>
      <line x1="91.351" y1="1629.130" x2="91.351" y2="1579.130"/>
      <line x1="92.351" y1="1629.130" x2="92.351" y2="1579.130"/>
      <line x1="93.351" y1="1629.130" x2="93.351" y2="1579.130"/>
      <line x1="94.351" y1="1629.130" x2="94.351" y2="1579.130"/>
      <line x1="95.351" y1="1629.130" x2="95.351" y2="1579.130"/>
      <line x1="96.351" y1="1629.130" x2="96.351" y2="1579.130"/>
      <line x1="97.351" y1="1629.130" x2="97.351" y2="1579.130"/>
      <line x1="98.351" y1="1629.130" x2="98.351" y2="1579.130"/>
      <line x1="99.351" y1="1629.130" x2="99.351" y2="1579.130"/>
      <line x1="100.351" y1="1629.130" x2="100.351" y2="1579.130"/>
      <line x1="101.351" y1="1629.130" x2="101.351" y2="1579.130"/>
      <line x1="102.351" y1="1629.130" x2="102.351" y2="1579.130"/>
      <line x1="103.351" y1="1629.130" x2="103.351" y2="1579.130"/>
      <line x1="104.351" y1="1629.130" x2="104.351" y2="1579.130"/>
      <line x1="105.351" y1="1629.130" x2="105.351" y2="1579.130"/>
      <line x1="106.351" y1="1629.130" x2="106.351" y2="1579.130"/>
      <line x1="107.351" y1="1629.130" x2="107.351" y2="1579.130"/>
      <line x1="108.351" y1="1629.130" x2="108.351" y2="1579.130"/>
      <line x1="109.351" y1="1629.130" x2="109.351" y2="1579.130"/>
      <line x1="110.351" y1="1629.130" x2="110.351" y2="1579.130"/>
      <line x1="111.351" y1="1629.130" x2="111.351" y2="1579.130"/>
      <line x1="112.351" y1="1629.130" x2="112.351" y2="1579.130"/>
      <line x1="113.351" y1="1629.130" x2="113.351" y2="1579.130"/>
      <line x1="114.351" y1="1629.130" x2="114.351" y2="1579.130"/>
      <line x1="115.351" y1="1629.130" x2="115.351" y2="1579.130"/>
      <line x1="116.351" y1="1629.130" x2="116.351" y2="1579.130"/>
      <line x1="117.351" y1="1629.130" x2="117.351" y2="1579.130"/>
      <line x1="118.351" y1="1629.130" x2="118.351" y2="1579.130"/>
      <line x1="119.351" y1="1629.130" x2="119.351" y2="1579.130"/>
      <line x1="120.351" y1="1629.130" x2="120.351" y2="1579.130"/>
      <line x1="121.351" y1="1629.130" x2="121.351" y2="1579.130"/>
      <line x1="122.351" y1="1629.130" x2="122.351" y2="1579.130"/>
      <line x1="123.351" y1="1629.130" x2="123.351" y2="1579.130"/>
      <line x1="124.351" y1="1629.130" x2="124.351" y2="1579.130"/>
      <line x1="125.351" y1="1629.130" x2="125.351" y2="1579.130"/>
      <line x1="126.351" y1="1629.130" x2="126.351" y2="1579.130"/>
      <line x1="127.351" y1="1629.130" x2="127.351" y2="1579.130"/>
      <line x1="128.351" y1="1629.130" x2="128.351" y2="1579.130"/>
      <line x1="129.351" y1="1629.130" x2="129.351" y2="1579.130"/>
      <line x1="130.351" y1="1629.130" x2="130.351" y2="1579.130"/>
      <line x1="3.351" y1="1579.030" x2="3.351" y2="1529.030"/>
      <line x1="4.351" y1="1579.030" x2="4.351" y2="1529.030"/>
      <line x1="5.351" y1="1579.030" x2="5.351" y2="1529.030"/>
      <line x1="6.351" y1="1579.030" x2="6.351" y2="1529.030"/>
      <line x1="7.351" y1="1579.030" x2="7.351" y2="1529.030"/>
      <line x1="8.351" y1="1579.030" x2="8.351" y2="1529.030"/>
      <line x1="9.351" y1="1579.030" x2="9.351" y2="1529.030"/>
      <line x1="10.351" y1="1579.030" x2="10.351" y2="1529.030"/>
      <line x1="11.351" y1="1579.030" x2="11.351" y2="1529.030"/>
      <line x1="12.351" y1="1579.030" x2="12.351" y2="1529.030"/>
      <line x1="13.351" y1="1579.030" x2="13.351" y2="1529.030"/>
      <line x1="14.351" y1="1579.030" x2="14.351" y2="1529.030"/>
      <line x1="15.351" y1="1579.030" x2="15.351" y2="1529.030"/>
      <line x1="16.351" y1="1579.030" x2="16.351" y2="1529.030"/>
      <line x1="17.351" y1="1579.030" x2="17.351" y2="1529.030"/>
      <line x1="18.351" y1="1579.030" x2="18.351" y2="1529.030"/>
      <line x1="19.351" y1="1579.030" x2="19.351" y2="1529.030"/>
      <line x1="20.351" y1="1579.030" x2="20.351" y2="1529.030"/>
      <line x1="21.351" y1="1579.030" x2="21.351" y2="1529.030"/>
      <line x1="22.351" y1="1579.030" x2="22.351" y2="1529.030"/>
      <line x1="23.351" y1="1579.030" x2="23.351" y2="1529.030"/>
      <line x1="24.351" y1="1579.030" x2="24.351" y2="1529.030"/>
      <line x1="25.351" y1="1579.030" x2="25.351" y2="1529.030"/>
      <line x1="26.351" y1="1579.030" x2="26.351" y2="1529.030"/>
      <line x1="27.351" y1="1579.030" x2="27.351" y2="1529.030"/>
      <line x1="28.351" y1="1579.030" x2="28.351" y2="1529.030"/>
      <line x1="29.351" y1="1579.030" x2="29.351" y2="1529.030"/>
      <line x1="30.351" y1="1579.030" x2="30.351" y2="1529.030"/>
      <line x1="31.351" y1="1579.030" x2="31.351" y2="1529.030"/>
      <line x1="32.351" y1="1579.030" x2="32.351" y2="1529.030"/>
      <line x1="33.351" y1="1579.030" x2="33.351" y2="1529.030"/>
      <line x1="34.351" y1="1579.030" x2="34.351" y2="1529.030"/>
      <line x1="35.351" y1="1579.030" x2="35.351" y2="1529.030"/>
      <line x1="36.351" y1="1579.030" x2="36.351" y2="1529.030"/>
      <line x1="37.351" y1="1579.030" x2="37.351" y2="1529.030"/>
      <line x1="38.351" y1="1579.030" x2="38.351" y2="1529.030"/>
      <line x1="39.351" y1="1579.030" x2="39.351" y2="1529.030"/>
      <line x1="40.351" y1="1579.030" x2="40.351" y2="1529.030"/>
      <line x1="41.351" y1="1579.030" x2="41.351" y2="1529.030"/>
      <line x1="42.351" y1="1579.030" x2="42.351" y2="1529.030"/>
      <line x1="43.351" y1="1579.030" x2="43.351" y2="1529.030"/>
      <line x1="44.351" y1="1579.030" x2="44.351" y2="1529.030"/>
      <line x1="45.351" y1="1579.030" x2="45.351" y2="1529.030"/>
      <line x1="46.351" y1="1579.030" x2="46.351" y2="1529.030"/>
      <line x1="47.351" y1="1579.030" x2="47.351" y2="1529.030"/>
      <line x1="48.351" y1="1579.030" x2="48.351" y2="1529.030"/>
      <line x1="49.351" y1="1579.030" x2="49.351" y2="1529.030"/>
      <line x1="50.351" y1="1579.030" x2="50.351" y2="1529.030"/>
      <line x1="51.351" y1="1579.030" x2="51.351" y2="1529.030"/>
      <line x1="52.351" y1="1579.030" x2="52.351" y2="1529.030"/>
      <line x1="53.351" y1="1579.030" x2="53.351" y2="1529.030"/>
      <line x1="54.351" y1="1579.030" x2="54.351" y2="1529.030"/>
      <line x1="55.351" y1="1579.030" x2="55.351" y2="1529.030"/>
      <line x1="56.351" y1="1579.030" x2="56.351" y2="1529.030"/>
      <line x1="57.351" y1="1579.030" x2="57.351" y2="1529.030"/>
      <line x1="58.351" y1="1579.030" x2="58.351" y2="1529.030"/>
      <line x1="59.351" y1="1579.030" x2="59.351" y2="1529.030"/>
      <line x1="60.351" y1="1579.030" x2="60.351" y2="1529.030"/>
      <line x1="61.351" y1="1579.030" x2="61.351" y2="1529.030"/>
      <line x1="62.351" y1="1579.030" x2="62.351" y2="1529.030"/>
      <line x1="63.351" y1="1579.030" x2="63.351" y2="1529.030"/>
      <line x1="64.351" y1="1579.030" x2="64.351" y2="1529.030"/>
      <line x1="65.351" y1="1579.030" x2="65.351" y2="1529.030"/>
      <line x1="66.351" y1="1579.030" x2="66.351" y2="1529.030"/>
      <line x1="67.351" y1="1579.030" x2="67.351" y2="1529.030"/>
      <line x1="68.351" y1="1579.030" x2="68.351" y2="1529.030"/>
      <line x1="69.351" y1="1579.030" x2="69.351" y2="1529.030"/>
      <line x1="70.351" y1="1579.030" x2="70.351" y2="1529.030"/>
      <line x1="71.351" y1="1579.030" x2="71.351" y2="1529.030"/>
      <line x1="72.351" y1="1579.030" x2="72.351" y2="1529.030"/>
      <line x1="73.351" y1="1579.030" x2="73.351" y2="1529.030"/>
      <line x1="74.351" y1="1579.030" x2="74.351" y2="1529.030"/>
      <line x1="75.351" y1="1579.030" x2="75.351" y2="1529.030"/>
      <line x1="76.351" y1="1579.030" x2="76.351" y2="1529.030"/>
      <line x1="77.351" y1="1579.030" x2="77.351" y2="1529.030"/>
      <line x1="78.351" y1="1579.030" x2="78.351" y2="1529.030"/>
      <line x1="79.351" y1="1579.030" x2="79.351" y2="1529.030"/>
      <line x1="80.351" y1="1579.030" x2="80.351" y2="1529.030"/>
      <line x1="81.351" y1="1579.030" x2="81.351" y2="1529.030"/>
      <line x1="82.351" y1="1579.030" x2="82.351" y2="1529.030"/>
      <line x1="83.351" y1="1579.030" x2="83.351" y2="1529.030"/>
      <line x1="84.351" y1="1579.030" x2="84.351" y2="1529.030"/>
      <line x1="85.351" y1="1579.030" x2="85.351" y2="1529.030"/>
      <line x1="86.351" y1="1579.030" x2="86.351" y2="1529.030"/>
      <line x1="87.351" y1="1579.030" x2="87.351" y2="1529.030"/>
      <line x1="88.351" y1="1579.030" x2="88.351" y2="1529.030"/>
      <line x1="89.351" y1="1579.030" x2="89.351" y2="1529.030"/>
      <line x1="90.351" y1="1579.030" x2="90.351" y2="1529.030"/>
      <line x1="91.351" y1="1579.030" x2="91.351" y2="1529.030"/>
      <line x1="92.351" y1="1579.030" x2="92.351" y2="1529.030"/>
      <line x1="93.351" y1="1579.030" x2="93.351" y2="1529.030"/>
      <line x1="94.351" y1="1579.030" x2="94.351" y2="1529.030"/>
      <line x1="95.351" y1="1579.030" x2="95.351" y2="1529.030"/>
      <line x1="96.351" y1="1579.030" x2="96.351" y2="1529.030"/>
      <line x1="97.351" y1="1579.030" x2="97.351" y2="1529.030"/>
      <line x1="98.351" y1="1579.030" x2="98.351" y2="1529.030"/>
      <line x1="99.351" y1="1579.030" x2="99.351" y2="1529.030"/>
      <line x1="100.351" y1="1579.030" x2="100.351" y2="1529.030"/>
      <line x1="101.351" y1="1579.030" x2="101.351" y2="1529.030"/>
      <line x1="102.351" y1="1579.030" x2="102.351" y2="1529.030"/>
      <line x1="103.351" y1="1579.030" x2="103.351" y2="1529.030"/>
      <line x1="104.351" y1="1579.030" x2="104.351" y2="1529.030"/>
      <line x1="105.351" y1="1579.030" x2="105.351" y2="1529.030"/>
      <line x1="106.351" y1="1579.030" x2="106.351" y2="1529.030"/>
      <line x1="107.351" y1="1579.030" x2="107.351" y2="1529.030"/>
      <line x1="108.351" y1="1579.030" x2="108.351" y2="1529.030"/>
      <line x1="109.351" y1="1579.030" x2="109.351" y2="1529.030"/>
      <line x1="110.351" y1="1579.030" x2="110.351" y2="1529.030"/>
      <line x1="111.351" y1="1579.030" x2="111.351" y2="1529.030"/>
      <line x1="112.351" y1="1579.030" x2="112.351" y2="1529.030"/>
      <line x1="113.351" y1="1579.030" x2="113.351" y2="1529.030"/>
      <line x1="114.351" y1="1579.030" x2="114.351" y2="1529.030"/>
      <line x1="115.351" y1="1579.030" x2="115.351" y2="1529.030"/>
      <line x1="116.351" y1="1579.030" x2="116.351" y2="1529.030"/>
      <line x1="117.351" y1="1579.030" x2="117.351" y2="1529.030"/>
      <line x1="118.351" y1="1579.030" x2="118.351" y2="1529.030"/>
      <line x1="119.351" y1="1579.030" x2="119.351" y2="1529.030"/>
      <line x1="120.351" y1="1579.030" x2="120.351" y2="1529.030"/>
      <line x1="121.351" y1="1579.030" x2="121.351" y2="1529.030"/>
      <line x1="122.351" y1="1579.030" x2="122.351" y2="1529.030"/>
      <line x1="123.351" y1="1579.030" x2="123.351" y2="1529.030"/>
      <line x1="124.351" y1="1579.030" x2="124.351" y2="1529.030"/>
      <line x1="125.351" y1="1579.030" x2="125.351" y2="1529.030"/>
      <line x1="126.351" y1="1579.030" x2="126.351" y2="1529.030"/>
      <line x1="127.351" y1="1579.030" x2="127.351" y2="1529.030"/>
      <line x1="128.351" y1="1579.030" x2="128.351" y2="1529.030"/>
      <line x1="129.351" y1="1579.030" x2="129.351" y2="1529.030"/>
      <line x1="130.351" y1="1579.030" x2="130.351" y2="1529.030"/>
      <line x1="25.351" y1="1528.930" x2="25.351" y2="1525.229"/>
      <line x1="3.351" y1="1528.930" x2="3.351" y2="1525.229"/>
      <line x1="5.351" y1="1528.930" x2="5.351" y2="1525.229"/>
      <line x1="8.351" y1="1528.930" x2="8.351" y2="1525.229"/>
      <line x1="10.351" y1="1528.930" x2="10.351" y2="1525.229"/>
      <line x1="11.351" y1="1528.930" x2="11.351" y2="1525.229"/>
      <line x1="13.351" y1="1528.930" x2="13.351" y2="1525.229"/>
      <line x1="16.351" y1="1528.930" x2="16.351" y2="1525.229"/>
      <line x1="23.351" y1="1528.930" x2="23.351" y2="1525.229"/>
      <line x1="22.351" y1="1528.930" x2="22.351" y2="1525.229"/>
      <line x1="19.351" y1="1528.930" x2="19.351" y2="1525.229"/>
      <line x1="14.351" y1="1528.930" x2="14.351" y2="1525.229"/>
      <line x1="20.351" y1="1528.930" x2="20.351" y2="1525.229"/>
      <line x1="17.351" y1="1528.930" x2="17.351" y2="1525.229"/>
      <line x1="7.351" y1="1528.930" x2="7.351" y2="1525.229"/>
      <line x1="6.351" y1="1528.930" x2="6.351" y2="1525.229"/>
      <line x1="9.351" y1="1528.930" x2="9.351" y2="1525.229"/>
      <line x1="12.351" y1="1528.930" x2="12.351" y2="1525.229"/>
      <line x1="15.351" y1="1528.930" x2="15.351" y2="1525.229"/>
      <line x1="18.351" y1="1528.930" x2="18.351" y2="1525.229"/>
      <line x1="21.351" y1="1528.930" x2="21.351" y2="1525.229"/>
      <line x1="24.351" y1="1528.930" x2="24.351" y2="1525.229"/>
      <line x1="4.351" y1="1528.930" x2="4.351" y2="1525.229"/>
      <line x1="36.351" y1="1528.930" x2="36.351" y2="1525.229"/>
      <line x1="35.351" y1="1528.930" x2="35.351" y2="1525.229"/>
      <line x1="34.351" y1="1528.930" x2="34.351" y2="1525.229"/>
      <line x1="33.351" y1="1528.930" x2="33.351" y2="1525.229"/>
      <line x1="32.351" y1="1528.930" x2="32.351" y2="1525.229"/>
      <line x1="31.351" y1="1528.930" x2="31.351" y2="1525.229"/>
      <line x1="30.351" y1="1528.930" x2="30.351" y2="1525.229"/>
      <line x1="29.351" y1="1528.930" x2="29.351" y2="1525.229"/>
      <line x1="28.351" y1="1528.930" x2="28.351" y2="1525.229"/>
      <line x1="27.351" y1="1528.930" x2="27.351" y2="1525.229"/>
      <line x1="26.351" y1="1528.930" x2="26.351" y2="1525.229"/>
      <line x1="37.351" y1="1528.930" x2="37.351" y2="1525.229"/>
      <line x1="49.351" y1="1528.930" x2="49.351" y2="1525.229"/>
      <line x1="52.351" y1="1528.930" x2="52.351" y2="1525.229"/>
      <line x1="51.351" y1="1528.930" x2="51.351" y2="1525.229"/>
      <line x1="50.351" y1="1528.930" x2="50.351" y2="1525.229"/>
      <line x1="48.351" y1="1528.930" x2="48.351" y2="1525.229"/>
      <line x1="47.351" y1="1528.930" x2="47.351" y2="1525.229"/>
      <line x1="46.351" y1="1528.930" x2="46.351" y2="1525.229"/>
      <line x1="45.351" y1="1528.930" x2="45.351" y2="1525.229"/>
      <line x1="44.351" y1="1528.930" x2="44.351" y2="1525.229"/>
      <line x1="43.351" y1="1528.930" x2="43.351" y2="1525.229"/>
      <line x1="42.351" y1="1528.930" x2="42.351" y2="1525.229"/>
      <line x1="41.351" y1="1528.930" x2="41.351" y2="1525.229"/>
      <line x1="40.351" y1="1528.930" x2="40.351" y2="1525.229"/>
      <line x1="39.351" y1="1528.930" x2="39.351" y2="1525.229"/>
      <line x1="38.351" y1="1528.930" x2="38.351" y2="1525.229"/>
      <line x1="101.351" y1="1528.930" x2="101.351" y2="1525.229"/>
      <line x1="102.351" y1="1528.930" x2="102.351" y2="1525.229"/>
      <line x1="73.351" y1="1528.930" x2="73.351" y2="1525.229"/>
      <line x1="84.351" y1="1528.930" x2="84.351" y2="1525.229"/>
      <line x1="83.351" y1="1528.930" x2="83.351" y2="1525.229"/>
      <line x1="82.351" y1="1528.930" x2="82.351" y2="1525.229"/>
      <line x1="81.351" y1="1528.930" x2="81.351" y2="1525.229"/>
      <line x1="80.351" y1="1528.930" x2="80.351" y2="1525.229"/>
      <line x1="79.351" y1="1528.930" x2="79.351" y2="1525.229"/>
      <line x1="78.351" y1="1528.930" x2="78.351" y2="1525.229"/>
      <line x1="77.351" y1="1528.930" x2="77.351" y2="1525.229"/>
      <line x1="76.351" y1="1528.930" x2="76.351" y2="1525.229"/>
      <line x1="75.351" y1="1528.930" x2="75.351" y2="1525.229"/>
      <line x1="74.351" y1="1528.930" x2="74.351" y2="1525.229"/>
      <line x1="85.351" y1="1528.930" x2="85.351" y2="1525.229"/>
      <line x1="72.351" y1="1528.930" x2="72.351" y2="1525.229"/>
      <line x1="71.351" y1="1528.930" x2="71.351" y2="1525.229"/>
      <line x1="70.351" y1="1528.930" x2="70.351" y2="1525.229"/>
      <line x1="69.351" y1="1528.930" x2="69.351" y2="1525.229"/>
      <line x1="68.351" y1="1528.930" x2="68.351" y2="1525.229"/>
      <line x1="67.351" y1="1528.930" x2="67.351" y2="1525.229"/>
      <line x1="66.351" y1="1528.930" x2="66.351" y2="1525.229"/>
      <line x1="65.351" y1="1528.930" x2="65.351" y2="1525.229"/>
      <line x1="64.351" y1="1528.930" x2="64.351" y2="1525.229"/>
      <line x1="63.351" y1="1528.930" x2="63.351" y2="1525.229"/>
      <line x1="62.351" y1="1528.930" x2="62.351" y2="1525.229"/>
      <line x1="97.351" y1="1528.930" x2="97.351" y2="1525.229"/>
      <line x1="100.351" y1="1528.930" x2="100.351" y2="1525.229"/>
      <line x1="99.351" y1="1528.930" x2="99.351" y2="1525.229"/>
      <line x1="98.351" y1="1528.930" x2="98.351" y2="1525.229"/>
      <line x1="96.351" y1="1528.930" x2="96.351" y2="1525.229"/>
      <line x1="95.351" y1="1528.930" x2="95.351" y2="1525.229"/>
      <line x1="94.351" y1="1528.930" x2="94.351" y2="1525.229"/>
      <line x1="93.351" y1="1528.930" x2="93.351" y2="1525.229"/>
      <line x1="92.351" y1="1528.930" x2="92.351" y2="1525.229"/>
      <line x1="91.351" y1="1528.930" x2="91.351" y2="1525.229"/>
      <line x1="90.351" y1="1528.930" x2="90.351" y2="1525.229"/>
      <line x1="89.351" y1="1528.930" x2="89.351" y2="1525.229"/>
      <line x1="88.351" y1="1528.930" x2="88.351" y2="1525.229"/>
      <line x1="87.351" y1="1528.930" x2="87.351" y2="1525.229"/>
      <line x1="86.351" y1="1528.930" x2="86.351" y2="1525.229"/>
      <line x1="60.351" y1="1528.930" x2="60.351" y2="1525.229"/>
      <line x1="59.351" y1="1528.930" x2="59.351" y2="1525.229"/>
      <line x1="58.351" y1="1528.930" x2="58.351" y2="1525.229"/>
      <line x1="57.351" y1="1528.930" x2="57.351" y2="1525.229"/>
      <line x1="56.351" y1="1528.930" x2="56.351" y2="1525.229"/>
      <line x1="55.351" y1="1528.930" x2="55.351" y2="1525.229"/>
      <line x1="54.351" y1="1528.930" x2="54.351" y2="1525.229"/>
      <line x1="53.351" y1="1528.930" x2="53.351" y2="1525.229"/>
      <line x1="61.351" y1="1528.930" x2="61.351" y2="1525.229"/>
      <line x1="130.351" y1="1528.930" x2="130.351" y2="1525.229"/>
      <line x1="104.351" y1="1528.930" x2="104.351" y2="1525.229"/>
      <line x1="107.351" y1="1528.930" x2="107.351" y2="1525.229"/>
      <line x1="109.351" y1="1528.930" x2="109.351" y2="1525.229"/>
      <line x1="110.351" y1="1528.930" x2="110.351" y2="1525.229"/>
      <line x1="112.351" y1="1528.930" x2="112.351" y2="1525.229"/>
      <line x1="113.351" y1="1528.930" x2="113.351" y2="1525.229"/>
      <line x1="115.351" y1="1528.930" x2="115.351" y2="1525.229"/>
      <line x1="116.351" y1="1528.930" x2="116.351" y2="1525.229"/>
      <line x1="118.351" y1="1528.930" x2="118.351" y2="1525.229"/>
      <line x1="119.351" y1="1528.930" x2="119.351" y2="1525.229"/>
      <line x1="121.351" y1="1528.930" x2="121.351" y2="1525.229"/>
      <line x1="124.351" y1="1528.930" x2="124.351" y2="1525.229"/>
      <line x1="126.351" y1="1528.930" x2="126.351" y2="1525.229"/>
      <line x1="129.351" y1="1528.930" x2="129.351" y2="1525.229"/>
      <line x1="127.351" y1="1528.930" x2="127.351" y2="1525.229"/>
      <line x1="103.351" y1="1528.930" x2="103.351" y2="1525.229"/>
      <line x1="106.351" y1="1528.930" x2="106.351" y2="1525.229"/>
      <line x1="105.351" y1="1528.930" x2="105.351" y2="1525.229"/>
      <line x1="108.351" y1="1528.930" x2="108.351" y2="1525.229"/>
      <line x1="111.351" y1="1528.930" x2="111.351" y2="1525.229"/>
      <line x1="114.351" y1="1528.930" x2="114.351" y2="1525.229"/>
      <line x1="117.351" y1="1528.930" x2="117.351" y2="1525.229"/>
      <line x1="120.351" y1="1528.930" x2="120.351" y2="1525.229"/>
      <line x1="123.351" y1="1528.930" x2="123.351" y2="1525.229"/>
      <line x1="122.351" y1="1528.930" x2="122.351" y2="1525.229"/>
      <line x1="125.351" y1="1528.930" x2="125.351" y2="1525.229"/>
      <line x1="128.351" y1="1528.930" x2="128.351" y2="1525.229"/>
    </g>
    <g stroke="#1976D2" stroke-width="0.4">
      <polyline points="467.440,1682.729 600.500,1682.729 600.500,1521.729 467.440,1521.729" fill="none"/>
      <polyline points="467.440,1521.729 465.584,1521.729 465.584,1682.729 467.440,1682.729" fill="none"/>
      <polyline points="467.440,1681.730 599.500,1681.730 599.500,1522.729 467.440,1522.729" fill="none"/>
      <polyline points="467.440,1522.729 466.584,1522.729 466.584,1681.730 467.440,1681.730" fill="none"/>
      <polyline points="598.500,1523.729 467.584,1523.729 467.584,1680.730 598.500,1680.730 598.500,1523.729" fill="none"/>
      <polyline points="597.500,1524.729 468.584,1524.729 468.584,1679.729 597.500,1679.729 597.500,1524.729" fill="none"/>
      <polyline points="132.560,1521.729 -0.500,1521.729 -0.500,1682.729 132.560,1682.729" fill="none"/>
      <polyline points="132.560,1682.729 134.416,1682.729 134.416,1521.729 132.560,1521.729" fill="none"/>
      <polyline points="132.560,1522.729 0.500,1522.729 0.500,1681.730 132.560,1681.730" fill="none"/>
      <polyline points="132.560,1681.730 133.416,1681.730 133.416,1522.729 132.560,1522.729" fill="none"/>
      <polyline points="132.416,1523.729 1.500,1523.729 1.500,1680.730 132.416,1680.730 132.416,1523.729" fill="none"/>
      <polyline points="131.416,1524.729 2.500,1524.729 2.500,1679.729 131.416,1679.729 131.416,1524.729" fill="none"/>
    </g>
    <g stroke="#C62828" stroke-width="0.4" fill="none">
      <polygon points="294.504,1532.618 295.470,1531.407 295.815,1529.896 295.470,1528.386 294.504,1527.174 293.108,1526.502 291.559,1526.502 290.163,1527.174 289.197,1528.386 288.852,1529.896 289.197,1531.407 290.163,1532.618 291.559,1533.290 293.108,1533.290"/>
      <polygon points="314.440,1532.537 315.377,1531.362 315.712,1529.896 315.377,1528.430 314.440,1527.255 313.085,1526.603 311.582,1526.603 310.227,1527.255 309.290,1528.430 308.955,1529.896 309.290,1531.362 310.227,1532.537 311.582,1533.190 313.085,1533.190"/>
      <polygon points="274.307,1532.370 275.185,1531.269 275.498,1529.896 275.185,1528.523 274.307,1527.422 273.038,1526.811 271.629,1526.811 270.360,1527.422 269.482,1528.523 269.169,1529.896 269.482,1531.269 270.360,1532.370 271.629,1532.982 273.038,1532.982"/>
      <polygon points="334.238,1532.284 335.085,1531.221 335.388,1529.896 335.085,1528.571 334.238,1527.508 333.013,1526.918 331.654,1526.918 330.429,1527.508 329.582,1528.571 329.279,1529.896 329.582,1531.221 330.429,1532.284 331.654,1532.874 333.013,1532.874"/>
      <polygon points="353.938,1532.221 354.835,1531.209 355.159,1529.896 354.835,1528.583 353.938,1527.571 352.674,1527.091 351.331,1527.254 350.219,1528.023 349.590,1529.220 349.590,1530.572 350.219,1531.770 351.331,1532.538 352.674,1532.701"/>
      <polygon points="253.938,1532.221 254.835,1531.209 255.159,1529.896 254.835,1528.583 253.938,1527.571 252.674,1527.091 251.331,1527.254 250.219,1528.023 249.590,1529.220 249.590,1530.572 250.219,1531.770 251.331,1532.538 252.674,1532.701"/>
      <polygon points="233.802,1532.024 234.623,1531.098 234.919,1529.896 234.623,1528.695 233.802,1527.768 232.645,1527.330 231.417,1527.479 230.398,1528.182 229.823,1529.277 229.823,1530.515 230.398,1531.611 231.417,1532.314 232.645,1532.463"/>
      <polygon points="373.564,1532.027 374.465,1531.127 374.794,1529.896 374.465,1528.666 373.564,1527.765 372.333,1527.435 371.103,1527.765 370.202,1528.666 369.872,1529.896 370.202,1531.127 371.103,1532.027 372.333,1532.357"/>
      <polygon points="213.435,1531.804 214.241,1530.997 214.536,1529.896 214.241,1528.795 213.435,1527.989 212.333,1527.694 211.232,1527.989 210.426,1528.795 210.131,1529.896 210.426,1530.997 211.232,1531.804 212.333,1532.099"/>
      <polygon points="393.368,1531.687 394.125,1530.930 394.402,1529.896 394.125,1528.862 393.368,1528.105 392.333,1527.828 391.299,1528.105 390.542,1528.862 390.265,1529.896 390.542,1530.930 391.299,1531.687 392.333,1531.965"/>
      <polygon points="173.333,1531.628 174.065,1530.896 174.333,1529.896 174.065,1528.896 173.333,1528.164 172.333,1527.896 171.333,1528.164 170.601,1528.896 170.333,1529.896 170.601,1530.896 171.333,1531.628 172.333,1531.896"/>
      <polygon points="413.333,1531.628 414.065,1530.896 414.333,1529.896 414.065,1528.896 413.333,1528.164 412.333,1527.896 411.333,1528.164 410.601,1528.896 410.333,1529.896 410.601,1530.896 411.333,1531.628 412.333,1531.896"/>
      <polygon points="433.333,1531.628 434.065,1530.896 434.333,1529.896 434.065,1528.896 433.333,1528.164 432.333,1527.896 431.333,1528.164 430.601,1528.896 430.333,1529.896 430.601,1530.896 431.333,1531.628 432.333,1531.896"/>
      <polygon points="193.333,1531.628 194.065,1530.896 194.333,1529.896 194.065,1528.896 193.333,1528.164 192.333,1527.896 191.333,1528.164 190.601,1528.896 190.333,1529.896 190.601,1530.896 191.333,1531.628 192.333,1531.896"/>
      <polygon points="154.065,1530.896 154.333,1529.896 154.065,1528.896 153.916,1528.747 153.916,1531.045"/>
      <polygon points="294.504,1552.618 295.470,1551.407 295.815,1549.896 295.470,1548.386 294.504,1547.174 293.108,1546.502 291.559,1546.502 290.163,1547.174 289.197,1548.386 288.852,1549.896 289.197,1551.407 290.163,1552.618 291.559,1553.290 293.108,1553.290"/>
      <polygon points="314.440,1552.537 315.377,1551.362 315.712,1549.896 315.377,1548.430 314.440,1547.255 313.085,1546.603 311.582,1546.603 310.227,1547.255 309.290,1548.430 308.955,1549.896 309.290,1551.362 310.227,1552.537 311.582,1553.190 313.085,1553.190"/>
      <polygon points="274.307,1552.370 275.185,1551.269 275.498,1549.896 275.185,1548.523 274.307,1547.422 273.038,1546.811 271.629,1546.811 270.360,1547.422 269.482,1548.523 269.169,1549.896 269.482,1551.269 270.360,1552.370 271.629,1552.982 273.038,1552.982"/>
      <polygon points="334.238,1552.284 335.085,1551.221 335.388,1549.896 335.085,1548.571 334.238,1547.508 333.013,1546.918 331.654,1546.918 330.429,1547.508 329.582,1548.571 329.279,1549.896 329.582,1551.221 330.429,1552.284 331.654,1552.874 333.013,1552.874"/>
      <polygon points="253.938,1552.221 254.835,1551.209 255.159,1549.896 254.835,1548.583 253.938,1547.571 252.674,1547.091 251.331,1547.254 250.219,1548.023 249.590,1549.220 249.590,1550.572 250.219,1551.770 251.331,1552.538 252.674,1552.701"/>
      <polygon points="353.938,1552.221 354.835,1551.209 355.159,1549.896 354.835,1548.583 353.938,1547.571 352.674,1547.091 351.331,1547.254 350.219,1548.023 349.590,1549.220 349.590,1550.572 350.219,1551.770 351.331,1552.538 352.674,1552.701"/>
      <polygon points="233.802,1552.024 234.623,1551.098 234.919,1549.896 234.623,1548.695 233.802,1547.768 232.645,1547.330 231.417,1547.479 230.398,1548.182 229.823,1549.277 229.823,1550.515 230.398,1551.611 231.417,1552.314 232.645,1552.463"/>
      <polygon points="373.564,1552.027 374.465,1551.127 374.794,1549.896 374.465,1548.666 373.564,1547.765 372.333,1547.435 371.103,1547.765 370.202,1548.666 369.872,1549.896 370.202,1551.127 371.103,1552.027 372.333,1552.357"/>
      <polygon points="213.435,1551.804 214.241,1550.997 214.536,1549.896 214.241,1548.795 213.435,1547.989 212.333,1547.694 211.232,1547.989 210.426,1548.795 210.131,1549.896 210.426,1550.997 211.232,1551.804 212.333,1552.099"/>
      <polygon points="393.368,1551.687 394.125,1550.930 394.402,1549.896 394.125,1548.862 393.368,1548.105 392.333,1547.828 391.299,1548.105 390.542,1548.862 390.265,1549.896 390.542,1550.930 391.299,1551.687 392.333,1551.965"/>
      <polygon points="193.333,1551.628 194.065,1550.896 194.333,1549.896 194.065,1548.896 193.333,1548.164 192.333,1547.896 191.333,1548.164 190.601,1548.896 190.333,1549.896 190.601,1550.896 191.333,1551.628 192.333,1551.896"/>
      <polygon points="173.333,1551.628 174.065,1550.896 174.333,1549.896 174.065,1548.896 173.333,1548.164 172.333,1547.896 171.333,1548.164 170.601,1548.896 170.333,1549.896 170.601,1550.896 171.333,1551.628 172.333,1551.896"/>
      <polygon points="433.333,1551.628 434.065,1550.896 434.333,1549.896 434.065,1548.896 433.333,1548.164 432.333,1547.896 431.333,1548.164 430.601,1548.896 430.333,1549.896 430.601,1550.896 431.333,1551.628 432.333,1551.896"/>
      <polygon points="413.333,1551.628 414.065,1550.896 414.333,1549.896 414.065,1548.896 413.333,1548.164 412.333,1547.896 411.333,1548.164 410.601,1548.896 410.333,1549.896 410.601,1550.896 411.333,1551.628 412.333,1551.896"/>
      <polygon points="154.065,1550.896 154.333,1549.896 154.065,1548.896 153.916,1548.747 153.916,1551.045"/>
      <polygon points="294.504,1572.618 295.470,1571.407 295.815,1569.896 295.470,1568.386 294.504,1567.174 293.108,1566.502 291.559,1566.502 290.163,1567.174 289.197,1568.386 288.852,1569.896 289.197,1571.407 290.163,1572.618 291.559,1573.290 293.108,1573.290"/>
      <polygon points="314.440,1572.537 315.377,1571.362 315.712,1569.896 315.377,1568.430 314.440,1567.255 313.085,1566.603 311.582,1566.603 310.227,1567.255 309.290,1568.430 308.955,1569.896 309.290,1571.362 310.227,1572.537 311.582,1573.190 313.085,1573.190"/>
      <polygon points="274.307,1572.370 275.185,1571.269 275.498,1569.896 275.185,1568.523 274.307,1567.422 273.038,1566.811 271.629,1566.811 270.360,1567.422 269.482,1568.523 269.169,1569.896 269.482,1571.269 270.360,1572.370 271.629,1572.982 273.038,1572.982"/>
      <polygon points="334.238,1572.284 335.085,1571.221 335.388,1569.896 335.085,1568.571 334.238,1567.508 333.013,1566.918 331.654,1566.918 330.429,1567.508 329.582,1568.571 329.279,1569.896 329.582,1571.221 330.429,1572.284 331.654,1572.874 333.013,1572.874"/>
      <polygon points="253.938,1572.221 254.835,1571.209 255.159,1569.896 254.835,1568.583 253.938,1567.571 252.674,1567.091 251.331,1567.254 250.219,1568.023 249.590,1569.220 249.590,1570.572 250.219,1571.770 251.331,1572.538 252.674,1572.701"/>
      <polygon points="353.938,1572.221 354.835,1571.209 355.159,1569.896 354.835,1568.583 353.938,1567.571 352.674,1567.091 351.331,1567.254 350.219,1568.023 349.590,1569.220 349.590,1570.572 350.219,1571.770 351.331,1572.538 352.674,1572.701"/>
      <polygon points="233.802,1572.024 234.623,1571.098 234.919,1569.896 234.623,1568.695 233.802,1567.768 232.645,1567.330 231.417,1567.479 230.398,1568.182 229.823,1569.277 229.823,1570.515 230.398,1571.611 231.417,1572.314 232.645,1572.463"/>
      <polygon points="373.564,1572.027 374.465,1571.127 374.794,1569.896 374.465,1568.666 373.564,1567.765 372.333,1567.435 371.103,1567.765 370.202,1568.666 369.872,1569.896 370.202,1571.127 371.103,1572.027 372.333,1572.357"/>
      <polygon points="213.435,1571.804 214.241,1570.997 214.536,1569.896 214.241,1568.795 213.435,1567.989 212.333,1567.694 211.232,1567.989 210.426,1568.795 210.131,1569.896 210.426,1570.997 211.232,1571.804 212.333,1572.099"/>
      <polygon points="393.368,1571.687 394.125,1570.930 394.402,1569.896 394.125,1568.862 393.368,1568.105 392.333,1567.828 391.299,1568.105 390.542,1568.862 390.265,1569.896 390.542,1570.930 391.299,1571.687 392.333,1571.965"/>
      <polygon points="173.333,1571.628 174.065,1570.896 174.333,1569.896 174.065,1568.896 173.333,1568.164 172.333,1567.896 171.333,1568.164 170.601,1568.896 170.333,1569.896 170.601,1570.896 171.333,1571.628 172.333,1571.896"/>
      <polygon points="193.333,1571.628 194.065,1570.896 194.333,1569.896 194.065,1568.896 193.333,1568.164 192.333,1567.896 191.333,1568.164 190.601,1568.896 190.333,1569.896 190.601,1570.896 191.333,1571.628 192.333,1571.896"/>
      <polygon points="433.333,1571.628 434.065,1570.896 434.333,1569.896 434.065,1568.896 433.333,1568.164 432.333,1567.896 431.333,1568.164 430.601,1568.896 430.333,1569.896 430.601,1570.896 431.333,1571.628 432.333,1571.896"/>
      <polygon points="413.333,1571.628 414.065,1570.896 414.333,1569.896 414.065,1568.896 413.333,1568.164 412.333,1567.896 411.333,1568.164 410.601,1568.896 410.333,1569.896 410.601,1570.896 411.333,1571.628 412.333,1571.896"/>
      <polygon points="154.065,1570.896 154.333,1569.896 154.065,1568.896 153.916,1568.747 153.916,1571.045"/>
      <polygon points="294.504,1592.618 295.470,1591.407 295.815,1589.896 295.470,1588.386 294.504,1587.174 293.108,1586.502 291.559,1586.502 290.163,1587.174 289.197,1588.386 288.852,1589.896 289.197,1591.407 290.163,1592.618 291.559,1593.290 293.108,1593.290"/>
      <polygon points="314.440,1592.537 315.377,1591.362 315.712,1589.896 315.377,1588.430 314.440,1587.255 313.085,1586.603 311.582,1586.603 310.227,1587.255 309.290,1588.430 308.955,1589.896 309.290,1591.362 310.227,1592.537 311.582,1593.190 313.085,1593.190"/>
      <polygon points="274.307,1592.370 275.185,1591.269 275.498,1589.896 275.185,1588.523 274.307,1587.422 273.038,1586.811 271.629,1586.811 270.360,1587.422 269.482,1588.523 269.169,1589.896 269.482,1591.269 270.360,1592.370 271.629,1592.982 273.038,1592.982"/>
      <polygon points="334.238,1592.284 335.085,1591.221 335.388,1589.896 335.085,1588.571 334.238,1587.508 333.013,1586.918 331.654,1586.918 330.429,1587.508 329.582,1588.571 329.279,1589.896 329.582,1591.221 330.429,1592.284 331.654,1592.874 333.013,1592.874"/>
      <polygon points="353.938,1592.221 354.835,1591.209 355.159,1589.896 354.835,1588.583 353.938,1587.571 352.674,1587.091 351.331,1587.254 350.219,1588.023 349.590,1589.220 349.590,1590.572 350.219,1591.770 351.331,1592.538 352.674,1592.701"/>
      <polygon points="253.938,1592.221 254.835,1591.209 255.159,1589.896 254.835,1588.583 253.938,1587.571 252.674,1587.091 251.331,1587.254 250.219,1588.023 249.590,1589.220 249.590,1590.572 250.219,1591.770 251.331,1592.538 252.674,1592.701"/>
      <polygon points="233.802,1592.024 234.623,1591.098 234.919,1589.896 234.623,1588.695 233.802,1587.768 232.645,1587.330 231.417,1587.479 230.398,1588.182 229.823,1589.277 229.823,1590.515 230.398,1591.611 231.417,1592.314 232.645,1592.463"/>
      <polygon points="373.564,1592.027 374.465,1591.127 374.794,1589.896 374.465,1588.666 373.564,1587.765 372.333,1587.435 371.103,1587.765 370.202,1588.666 369.872,1589.896 370.202,1591.127 371.103,1592.027 372.333,1592.357"/>
      <polygon points="213.435,1591.804 214.241,1590.997 214.536,1589.896 214.241,1588.795 213.435,1587.989 212.333,1587.694 211.232,1587.989 210.426,1588.795 210.131,1589.896 210.426,1590.997 211.232,1591.804 212.333,1592.099"/>
      <polygon points="393.368,1591.687 394.125,1590.930 394.402,1589.896 394.125,1588.862 393.368,1588.105 392.333,1587.828 391.299,1588.105 390.542,1588.862 390.265,1589.896 390.542,1590.930 391.299,1591.687 392.333,1591.965"/>
      <polygon points="413.333,1591.628 414.065,1590.896 414.333,1589.896 414.065,1588.896 413.333,1588.164 412.333,1587.896 411.333,1588.164 410.601,1588.896 410.333,1589.896 410.601,1590.896 411.333,1591.628 412.333,1591.896"/>
      <polygon points="433.333,1591.628 434.065,1590.896 434.333,1589.896 434.065,1588.896 433.333,1588.164 432.333,1587.896 431.333,1588.164 430.601,1588.896 430.333,1589.896 430.601,1590.896 431.333,1591.628 432.333,1591.896"/>
      <polygon points="193.333,1591.628 194.065,1590.896 194.333,1589.896 194.065,1588.896 193.333,1588.164 192.333,1587.896 191.333,1588.164 190.601,1588.896 190.333,1589.896 190.601,1590.896 191.333,1591.628 192.333,1591.896"/>
      <polygon points="173.333,1591.628 174.065,1590.896 174.333,1589.896 174.065,1588.896 173.333,1588.164 172.333,1587.896 171.333,1588.164 170.601,1588.896 170.333,1589.896 170.601,1590.896 171.333,1591.628 172.333,1591.896"/>
      <polygon points="154.065,1590.896 154.333,1589.896 154.065,1588.896 153.916,1588.747 153.916,1591.045"/>
      <polygon points="294.504,1612.618 295.470,1611.407 295.815,1609.896 295.470,1608.386 294.504,1607.174 293.108,1606.502 291.559,1606.502 290.163,1607.174 289.197,1608.386 288.852,1609.896 289.197,1611.407 290.163,1612.618 291.559,1613.290 293.108,1613.290"/>
      <polygon points="314.440,1612.537 315.377,1611.362 315.712,1609.896 315.377,1608.430 314.440,1607.255 313.085,1606.603 311.582,1606.603 310.227,1607.255 309.290,1608.430 308.955,1609.896 309.290,1611.362 310.227,1612.537 311.582,1613.190 313.085,1613.190"/>
      <polygon points="274.307,1612.370 275.185,1611.269 275.498,1609.896 275.185,1608.523 274.307,1607.422 273.038,1606.811 271.629,1606.811 270.360,1607.422 269.482,1608.523 269.169,1609.896 269.482,1611.269 270.360,1612.370 271.629,1612.982 273.038,1612.982"/>
      <polygon points="334.238,1612.284 335.085,1611.221 335.388,1609.896 335.085,1608.571 334.238,1607.508 333.013,1606.918 331.654,1606.918 330.429,1607.508 329.582,1608.571 329.279,1609.896 329.582,1611.221 330.429,1612.284 331.654,1612.874 333.013,1612.874"/>
      <polygon points="353.938,1612.221 354.835,1611.209 355.159,1609.896 354.835,1608.583 353.938,1607.571 352.674,1607.091 351.331,1607.254 350.219,1608.023 349.590,1609.220 349.590,1610.572 350.219,1611.770 351.331,1612.538 352.674,1612.701"/>
      <polygon points="253.938,1612.221 254.835,1611.209 255.159,1609.896 254.835,1608.583 253.938,1607.571 252.674,1607.091 251.331,1607.254 250.219,1608.023 249.590,1609.220 249.590,1610.572 250.219,1611.770 251.331,1612.538 252.674,1612.701"/>
      <polygon points="233.802,1612.024 234.623,1611.098 234.919,1609.896 234.623,1608.695 233.802,1607.768 232.645,1607.330 231.417,1607.479 230.398,1608.182 229.823,1609.277 229.823,1610.515 230.398,1611.611 231.417,1612.314 232.645,1612.463"/>
      <polygon points="373.564,1612.027 374.465,1611.127 374.794,1609.896 374.465,1608.666 373.564,1607.765 372.333,1607.435 371.103,1607.765 370.202,1608.666 369.872,1609.896 370.202,1611.127 371.103,1612.027 372.333,1612.357"/>
      <polygon points="213.435,1611.804 214.241,1610.997 214.536,1609.896 214.241,1608.795 213.435,1607.989 212.333,1607.694 211.232,1607.989 210.426,1608.795 210.131,1609.896 210.426,1610.997 211.232,1611.804 212.333,1612.099"/>
      <polygon points="393.368,1611.687 394.125,1610.930 394.402,1609.896 394.125,1608.862 393.368,1608.105 392.333,1607.828 391.299,1608.105 390.542,1608.862 390.265,1609.896 390.542,1610.930 391.299,1611.687 392.333,1611.965"/>
      <polygon points="413.333,1611.628 414.065,1610.896 414.333,1609.896 414.065,1608.896 413.333,1608.164 412.333,1607.896 411.333,1608.164 410.601,1608.896 410.333,1609.896 410.601,1610.896 411.333,1611.628 412.333,1611.896"/>
      <polygon points="433.333,1611.628 434.065,1610.896 434.333,1609.896 434.065,1608.896 433.333,1608.164 432.333,1607.896 431.333,1608.164 430.601,1608.896 430.333,1609.896 430.601,1610.896 431.333,1611.628 432.333,1611.896"/>
      <polygon points="173.333,1611.628 174.065,1610.896 174.333,1609.896 174.065,1608.896 173.333,1608.164 172.333,1607.896 171.333,1608.164 170.601,1608.896 170.333,1609.896 170.601,1610.896 171.333,1611.628 172.333,1611.896"/>
      <polygon points="193.333,1611.628 194.065,1610.896 194.333,1609.896 194.065,1608.896 193.333,1608.164 192.333,1607.896 191.333,1608.164 190.601,1608.896 190.333,1609.896 190.601,1610.896 191.333,1611.628 192.333,1611.896"/>
      <polygon points="154.065,1610.896 154.333,1609.896 154.065,1608.896 153.916,1608.747 153.916,1611.045"/>
      <polygon points="294.504,1632.618 295.470,1631.407 295.815,1629.896 295.470,1628.386 294.504,1627.174 293.108,1626.502 291.559,1626.502 290.163,1627.174 289.197,1628.386 288.852,1629.896 289.197,1631.407 290.163,1632.618 291.559,1633.290 293.108,1633.290"/>
      <polygon points="314.440,1632.537 315.377,1631.362 315.712,1629.896 315.377,1628.430 314.440,1627.255 313.085,1626.603 311.582,1626.603 310.227,1627.255 309.290,1628.430 308.955,1629.896 309.290,1631.362 310.227,1632.537 311.582,1633.190 313.085,1633.190"/>
      <polygon points="274.307,1632.370 275.185,1631.269 275.498,1629.896 275.185,1628.523 274.307,1627.422 273.038,1626.811 271.629,1626.811 270.360,1627.422 269.482,1628.523 269.169,1629.896 269.482,1631.269 270.360,1632.370 271.629,1632.982 273.038,1632.982"/>
      <polygon points="334.238,1632.284 335.085,1631.221 335.388,1629.896 335.085,1628.571 334.238,1627.508 333.013,1626.918 331.654,1626.918 330.429,1627.508 329.582,1628.571 329.279,1629.896 329.582,1631.221 330.429,1632.284 331.654,1632.874 333.013,1632.874"/>
      <polygon points="253.938,1632.221 254.835,1631.209 255.159,1629.896 254.835,1628.583 253.938,1627.571 252.674,1627.091 251.331,1627.254 250.219,1628.023 249.590,1629.220 249.590,1630.572 250.219,1631.770 251.331,1632.538 252.674,1632.701"/>
      <polygon points="353.938,1632.221 354.835,1631.209 355.159,1629.896 354.835,1628.583 353.938,1627.571 352.674,1627.091 351.331,1627.254 350.219,1628.023 349.590,1629.220 349.590,1630.572 350.219,1631.770 351.331,1632.538 352.674,1632.701"/>
      <polygon points="233.802,1632.024 234.623,1631.098 234.919,1629.896 234.623,1628.695 233.802,1627.768 232.645,1627.330 231.417,1627.479 230.398,1628.182 229.823,1629.277 229.823,1630.515 230.398,1631.611 231.417,1632.314 232.645,1632.463"/>
      <polygon points="373.564,1632.027 374.465,1631.127 374.794,1629.896 374.465,1628.666 373.564,1627.765 372.333,1627.435 371.103,1627.765 370.202,1628.666 369.872,1629.896 370.202,1631.127 371.103,1632.027 372.333,1632.357"/>
      <polygon points="213.435,1631.804 214.241,1630.997 214.536,1629.896 214.241,1628.795 213.435,1627.989 212.333,1627.694 211.232,1627.989 210.426,1628.795 210.131,1629.896 210.426,1630.997 211.232,1631.804 212.333,1632.099"/>
      <polygon points="393.368,1631.687 394.125,1630.930 394.402,1629.896 394.125,1628.862 393.368,1628.105 392.333,1627.828 391.299,1628.105 390.542,1628.862 390.265,1629.896 390.542,1630.930 391.299,1631.687 392.333,1631.965"/>
      <polygon points="193.333,1631.628 194.065,1630.896 194.333,1629.896 194.065,1628.896 193.333,1628.164 192.333,1627.896 191.333,1628.164 190.601,1628.896 190.333,1629.896 190.601,1630.896 191.333,1631.628 192.333,1631.896"/>
      <polygon points="173.333,1631.628 174.065,1630.896 174.333,1629.896 174.065,1628.896 173.333,1628.164 172.333,1627.896 171.333,1628.164 170.601,1628.896 170.333,1629.896 170.601,1630.896 171.333,1631.628 172.333,1631.896"/>
      <polygon points="433.333,1631.628 434.065,1630.896 434.333,1629.896 434.065,1628.896 433.333,1628.164 432.333,1627.896 431.333,1628.164 430.601,1628.896 430.333,1629.896 430.601,1630.896 431.333,1631.628 432.333,1631.896"/>
      <polygon points="413.333,1631.628 414.065,1630.896 414.333,1629.896 414.065,1628.896 413.333,1628.164 412.333,1627.896 411.333,1628.164 410.601,1628.896 410.333,1629.896 410.601,1630.896 411.333,1631.628 412.333,1631.896"/>
      <polygon points="154.065,1630.896 154.333,1629.896 154.065,1628.896 153.916,1628.747 153.916,1631.045"/>
      <polygon points="294.504,1652.618 295.470,1651.407 295.815,1649.896 295.470,1648.386 294.504,1647.174 293.108,1646.502 291.559,1646.502 290.163,1647.174 289.197,1648.386 288.852,1649.896 289.197,1651.407 290.163,1652.618 291.559,1653.290 293.108,1653.290"/>
      <polygon points="314.440,1652.537 315.377,1651.362 315.712,1649.896 315.377,1648.430 314.440,1647.255 313.085,1646.603 311.582,1646.603 310.227,1647.255 309.290,1648.430 308.955,1649.896 309.290,1651.362 310.227,1652.537 311.582,1653.190 313.085,1653.190"/>
      <polygon points="274.307,1652.370 275.185,1651.269 275.498,1649.896 275.185,1648.523 274.307,1647.422 273.038,1646.811 271.629,1646.811 270.360,1647.422 269.482,1648.523 269.169,1649.896 269.482,1651.269 270.360,1652.370 271.629,1652.982 273.038,1652.982"/>
      <polygon points="334.238,1652.284 335.085,1651.221 335.388,1649.896 335.085,1648.571 334.238,1647.508 333.013,1646.918 331.654,1646.918 330.429,1647.508 329.582,1648.571 329.279,1649.896 329.582,1651.221 330.429,1652.284 331.654,1652.874 333.013,1652.874"/>
      <polygon points="253.938,1652.221 254.835,1651.209 255.159,1649.896 254.835,1648.583 253.938,1647.571 252.674,1647.091 251.331,1647.254 250.219,1648.023 249.590,1649.220 249.590,1650.572 250.219,1651.770 251.331,1652.538 252.674,1652.701"/>
      <polygon points="353.938,1652.221 354.835,1651.209 355.159,1649.896 354.835,1648.583 353.938,1647.571 352.674,1647.091 351.331,1647.254 350.219,1648.023 349.590,1649.220 349.590,1650.572 350.219,1651.770 351.331,1652.538 352.674,1652.701"/>
      <polygon points="233.802,1652.024 234.623,1651.098 234.919,1649.896 234.623,1648.695 233.802,1647.768 232.645,1647.330 231.417,1647.479 230.398,1648.182 229.823,1649.277 229.823,1650.515 230.398,1651.611 231.417,1652.314 232.645,1652.463"/>
      <polygon points="373.564,1652.027 374.465,1651.127 374.794,1649.896 374.465,1648.666 373.564,1647.765 372.333,1647.435 371.103,1647.765 370.202,1648.666 369.872,1649.896 370.202,1651.127 371.103,1652.027 372.333,1652.357"/>
      <polygon points="213.435,1651.804 214.241,1650.997 214.536,1649.896 214.241,1648.795 213.435,1647.989 212.333,1647.694 211.232,1647.989 210.426,1648.795 210.131,1649.896 210.426,1650.997 211.232,1651.804 212.333,1652.099"/>
      <polygon points="393.368,1651.687 394.125,1650.930 394.402,1649.896 394.125,1648.862 393.368,1648.105 392.333,1647.828 391.299,1648.105 390.542,1648.862 390.265,1649.896 390.542,1650.930 391.299,1651.687 392.333,1651.965"/>
      <polygon points="173.333,1651.628 174.065,1650.896 174.333,1649.896 174.065,1648.896 173.333,1648.164 172.333,1647.896 171.333,1648.164 170.601,1648.896 170.333,1649.896 170.601,1650.896 171.333,1651.628 172.333,1651.896"/>
      <polygon points="193.333,1651.628 194.065,1650.896 194.333,1649.896 194.065,1648.896 193.333,1648.164 192.333,1647.896 191.333,1648.164 190.601,1648.896 190.333,1649.896 190.601,1650.896 191.333,1651.628 192.333,1651.896"/>
      <polygon points="433.333,1651.628 434.065,1650.896 434.333,1649.896 434.065,1648.896 433.333,1648.164 432.333,1647.896 431.333,1648.164 430.601,1648.896 430.333,1649.896 430.601,1650.896 431.333,1651.628 432.333,1651.896"/>
      <polygon points="413.333,1651.628 414.065,1650.896 414.333,1649.896 414.065,1648.896 413.333,1648.164 412.333,1647.896 411.333,1648.164 410.601,1648.896 410.333,1649.896 410.601,1650.896 411.333,1651.628 412.333,1651.896"/>
      <polygon points="154.065,1650.896 154.333,1649.896 154.065,1648.896 153.916,1648.747 153.916,1651.045"/>
      <polygon points="294.504,1672.618 295.470,1671.407 295.815,1669.896 295.470,1668.386 294.504,1667.174 293.108,1666.502 291.559,1666.502 290.163,1667.174 289.197,1668.386 288.852,1669.896 289.197,1671.407 290.163,1672.618 291.559,1673.290 293.108,1673.290"/>
      <polygon points="314.440,1672.537 315.377,1671.362 315.712,1669.896 315.377,1668.430 314.440,1667.255 313.085,1666.603 311.582,1666.603 310.227,1667.255 309.290,1668.430 308.955,1669.896 309.290,1671.362 310.227,1672.537 311.582,1673.190 313.085,1673.190"/>
      <polygon points="274.307,1672.370 275.185,1671.269 275.498,1669.896 275.185,1668.523 274.307,1667.422 273.038,1666.811 271.629,1666.811 270.360,1667.422 269.482,1668.523 269.169,1669.896 269.482,1671.269 270.360,1672.370 271.629,1672.982 273.038,1672.982"/>
      <polygon points="334.238,1672.284 335.085,1671.221 335.388,1669.896 335.085,1668.571 334.238,1667.508 333.013,1666.918 331.654,1666.918 330.429,1667.508 329.582,1668.571 329.279,1669.896 329.582,1671.221 330.429,1672.284 331.654,1672.874 333.013,1672.874"/>
      <polygon points="353.938,1672.221 354.835,1671.209 355.159,1669.896 354.835,1668.583 353.938,1667.571 352.674,1667.091 351.331,1667.254 350.219,1668.023 349.590,1669.220 349.590,1670.572 350.219,1671.770 351.331,1672.538 352.674,1672.701"/>
      <polygon points="253.938,1672.221 254.835,1671.209 255.159,1669.896 254.835,1668.583 253.938,1667.571 252.674,1667.091 251.331,1667.254 250.219,1668.023 249.590,1669.220 249.590,1670.572 250.219,1671.770 251.331,1672.538 252.674,1672.701"/>
      <polygon points="233.802,1672.024 234.623,1671.098 234.919,1669.896 234.623,1668.695 233.802,1667.768 232.645,1667.330 231.417,1667.479 230.398,1668.182 229.823,1669.277 229.823,1670.515 230.398,1671.611 231.417,1672.314 232.645,1672.463"/>
      <polygon points="373.564,1672.027 374.465,1671.127 374.794,1669.896 374.465,1668.666 373.564,1667.765 372.333,1667.435 371.103,1667.765 370.202,1668.666 369.872,1669.896 370.202,1671.127 371.103,1672.027 372.333,1672.357"/>
      <polygon points="213.435,1671.804 214.241,1670.997 214.536,1669.896 214.241,1668.795 213.435,1667.989 212.333,1667.694 211.232,1667.989 210.426,1668.795 210.131,1669.896 210.426,1670.997 211.232,1671.804 212.333,1672.099"/>
      <polygon points="393.368,1671.687 394.125,1670.930 394.402,1669.896 394.125,1668.862 393.368,1668.105 392.333,1667.828 391.299,1668.105 390.542,1668.862 390.265,1669.896 390.542,1670.930 391.299,1671.687 392.333,1671.965"/>
      <polygon points="413.333,1671.628 414.065,1670.896 414.333,1669.896 414.065,1668.896 413.333,1668.164 412.333,1667.896 411.333,1668.164 410.601,1668.896 410.333,1669.896 410.601,1670.896 411.333,1671.628 412.333,1671.896"/>
      <polygon points="433.333,1671.628 434.065,1670.896 434.333,1669.896 434.065,1668.896 433.333,1668.164 432.333,1667.896 431.333,1668.164 430.601,1668.896 430.333,1669.896 430.601,1670.896 431.333,1671.628 432.333,1671.896"/>
      <polygon points="193.333,1671.628 194.065,1670.896 194.333,1669.896 194.065,1668.896 193.333,1668.164 192.333,1667.896 191.333,1668.164 190.601,1668.896 190.333,1669.896 190.601,1670.896 191.333,1671.628 192.333,1671.896"/>
      <polygon points="173.333,1671.628 174.065,1670.896 174.333,1669.896 174.065,1668.896 173.333,1668.164 172.333,1667.896 171.333,1668.164 170.601,1668.896 170.333,1669.896 170.601,1670.896 171.333,1671.628 172.333,1671.896"/>
      <polygon points="154.065,1670.896 154.333,1669.896 154.065,1668.896 153.916,1668.747 153.916,1671.045"/>
    </g>
    <g stroke="#EF6C00" stroke-width="0.4" fill="none">
    </g>
  </g>
  <g stroke="#000000" stroke-width="0.4">
    <line x1="500.000" y1="1000.000" x2="1500.000" y2="1000.000"/>
  </g>
  <g stroke="#000000" stroke-width="0.4">
    <line x1="1000.000" y1="500.000" x2="1000.000" y2="1500.000"/>
  </g>
  <circle cx="1000.000" cy="1000.000" r="1000.000" stroke="red" stroke-width="1" fill="none"/>
  </g>
</svg>
