<?xml version="1.0" encoding="UTF-8"?>
<svg xmlns="http://www.w3.org/2000/svg" version="1.1" width="2000" height="2000">
  <g fill="none" stroke-linecap="round" stroke-linejoin="round">
  <text x="10" y="20" font-size="24" fill="#555">Layer 204 Z=52.800 mm</text>
  <g transform="translate(700.000,-602.229)">
    <g stroke="#2E7D32" stroke-width="0.4">
      <line x1="509.705" y1="1679.230" x2="509.705" y2="1629.230"/>
      <line x1="510.705" y1="1679.230" x2="510.705" y2="1629.230"/>
      <line x1="511.705" y1="1679.230" x2="511.705" y2="1629.230"/>
      <line x1="512.705" y1="1679.230" x2="512.705" y2="1629.230"/>
      <line x1="513.705" y1="1679.230" x2="513.705" y2="1629.230"/>
      <line x1="514.705" y1="1679.230" x2="514.705" y2="1629.230"/>
      <line x1="515.705" y1="1679.230" x2="515.705" y2="1629.230"/>
      <line x1="516.705" y1="1679.230" x2="516.705" y2="1629.230"/>
      <line x1="517.705" y1="1679.230" x2="517.705" y2="1629.230"/>
      <line x1="518.705" y1="1679.230" x2="518.705" y2="1629.230"/>
      <line x1="519.705" y1="1679.230" x2="519.705" y2="1629.230"/>
      <line x1="520.705" y1="1679.230" x2="520.705" y2="1629.230"/>
      <line x1="521.705" y1="1679.230" x2="521.705" y2="1629.230"/>
      <line x1="522.705" y1="1679.230" x2="522.705" y2="1629.230"/>
      <line x1="523.705" y1="1679.230" x2="523.705" y2="1629.230"/>
      <line x1="524.705" y1="1679.230" x2="524.705" y2="1629.230"/>
      <line x1="525.705" y1="1679.230" x2="525.705" y2="1629.230"/>
      <line x1="526.705" y1="1679.230" x2="526.705" y2="1629.230"/>
      <line x1="527.705" y1="1679.230" x2="527.705" y2="1629.230"/>
      <line x1="528.705" y1="1679.230" x2="528.705" y2="1629.230"/>
      <line x1="529.705" y1="1679.230" x2="529.705" y2="1629.230"/>
      <line x1="530.705" y1="1679.230" x2="530.705" y2="1629.230"/>
      <line x1="531.705" y1="1679.230" x2="531.705" y2="1629.230"/>
      <line x1="532.705" y1="1679.230" x2="532.705" y2="1629.230"/>
      <line x1="533.705" y1="1679.230" x2="533.705" y2="1629.230"/>
      <line x1="534.705" y1="1679.230" x2="534.705" y2="1629.230"/>
      <line x1="535.705" y1="1679.230" x2="535.705" y2="1629.230"/>
      <line x1="536.705" y1="1679.230" x2="536.705" y2="1629.230"/>
      <line x1="537.705" y1="1679.230" x2="537.705" y2="1629.230"/>
      <line x1="538.705" y1="1679.230" x2="538.705" y2="1629.230"/>
      <line x1="539.705" y1="1679.230" x2="539.705" y2="1629.230"/>
      <line x1="540.705" y1="1679.230" x2="540.705" y2="1629.230"/>
      <line x1="541.705" y1="1679.230" x2="541.705" y2="1629.230"/>
      <line x1="542.705" y1="1679.230" x2="542.705" y2="1629.230"/>
      <line x1="543.705" y1="1679.230" x2="543.705" y2="1629.230"/>
      <line x1="544.705" y1="1679.230" x2="544.705" y2="1629.230"/>
      <line x1="545.705" y1="1679.230" x2="545.705" y2="1629.230"/>
      <line x1="546.705" y1="1679.230" x2="546.705" y2="1629.230"/>
      <line x1="547.705" y1="1679.230" x2="547.705" y2="1629.230"/>
      <line x1="548.705" y1="1679.230" x2="548.705" y2="1629.230"/>
      <line x1="549.705" y1="1679.230" x2="549.705" y2="1629.230"/>
      <line x1="550.705" y1="1679.230" x2="550.705" y2="1629.230"/>
      <line x1="551.705" y1="1679.230" x2="551.705" y2="1629.230"/>
      <line x1="552.705" y1="1679.230" x2="552.705" y2="1629.230"/>
      <line x1="553.705" y1="1679.230" x2="553.705" y2="1629.230"/>
      <line x1="554.705" y1="1679.230" x2="554.705" y2="1629.230"/>
      <line x1="555.705" y1="1679.230" x2="555.705" y2="1629.230"/>
      <line x1="556.705" y1="1679.230" x2="556.705" y2="1629.230"/>
      <line x1="557.705" y1="1679.230" x2="557.705" y2="1629.230"/>
      <line x1="558.705" y1="1679.230" x2="558.705" y2="1629.230"/>
      <line x1="559.705" y1="1679.230" x2="559.705" y2="1629.230"/>
      <line x1="560.705" y1="1679.230" x2="560.705" y2="1629.230"/>
      <line x1="561.705" y1="1679.230" x2="561.705" y2="1629.230"/>
      <line x1="562.705" y1="1679.230" x2="562.705" y2="1629.230"/>
      <line x1="563.705" y1="1679.230" x2="563.705" y2="1629.230"/>
      <line x1="564.705" y1="1679.230" x2="564.705" y2="1629.230"/>
      <line x1="565.705" y1="1679.230" x2="565.705" y2="1629.230"/>
      <line x1="566.705" y1="1679.230" x2="566.705" y2="1629.230"/>
      <line x1="567.705" y1="1679.230" x2="567.705" y2="1629.230"/>
      <line x1="568.705" y1="1679.230" x2="568.705" y2="1629.230"/>
      <line x1="569.705" y1="1679.230" x2="569.705" y2="1629.230"/>
      <line x1="570.705" y1="1679.230" x2="570.705" y2="1629.230"/>
      <line x1="571.705" y1="1679.230" x2="571.705" y2="1629.230"/>
      <line x1="572.705" y1="1679.230" x2="572.705" y2="1629.230"/>
      <line x1="573.705" y1="1679.230" x2="573.705" y2="1629.230"/>
      <line x1="574.705" y1="1679.230" x2="574.705" y2="1629.230"/>
      <line x1="575.705" y1="1679.230" x2="575.705" y2="1629.230"/>
      <line x1="576.705" y1="1679.230" x2="576.705" y2="1629.230"/>
      <line x1="577.705" y1="1679.230" x2="577.705" y2="1629.230"/>
      <line x1="578.705" y1="1679.230" x2="578.705" y2="1629.230"/>
      <line x1="579.705" y1="1679.230" x2="579.705" y2="1629.230"/>
      <line x1="580.705" y1="1679.230" x2="580.705" y2="1629.230"/>
      <line x1="581.705" y1="1679.230" x2="581.705" y2="1629.230"/>
      <line x1="582.705" y1="1679.230" x2="582.705" y2="1629.230"/>
      <line x1="583.705" y1="1679.230" x2="583.705" y2="1629.230"/>
      <line x1="584.705" y1="1679.230" x2="584.705" y2="1629.230"/>
      <line x1="585.705" y1="1679.230" x2="585.705" y2="1629.230"/>
      <line x1="586.705" y1="1679.230" x2="586.705" y2="1629.230"/>
      <line x1="587.705" y1="1679.230" x2="587.705" y2="1629.230"/>
      <line x1="588.705" y1="1679.230" x2="588.705" y2="1629.230"/>
      <line x1="589.705" y1="1679.230" x2="589.705" y2="1629.230"/>
      <line x1="590.705" y1="1679.230" x2="590.705" y2="1629.230"/>
      <line x1="591.705" y1="1679.230" x2="591.705" y2="1629.230"/>
      <line x1="592.705" y1="1679.230" x2="592.705" y2="1629.230"/>
      <line x1="593.705" y1="1679.230" x2="593.705" y2="1629.230"/>
      <line x1="594.705" y1="1679.230" x2="594.705" y2="1629.230"/>
      <line x1="595.705" y1="1679.230" x2="595.705" y2="1629.230"/>
      <line x1="596.705" y1="1679.230" x2="596.705" y2="1629.230"/>
      <line x1="509.705" y1="1629.130" x2="509.705" y2="1579.130"/>
      <line x1="510.705" y1="1629.130" x2="510.705" y2="1579.130"/>
      <line x1="511.705" y1="1629.130" x2="511.705" y2="1579.130"/>
      <line x1="512.705" y1="1629.130" x2="512.705" y2="1579.130"/>
      <line x1="513.705" y1="1629.130" x2="513.705" y2="1579.130"/>
      <line x1="514.705" y1="1629.130" x2="514.705" y2="1579.130"/>
      <line x1="515.705" y1="1629.130" x2="515.705" y2="1579.130"/>
      <line x1="516.705" y1="1629.130" x2="516.705" y2="1579.130"/>
      <line x1="517.705" y1="1629.130" x2="517.705" y2="1579.130"/>
      <line x1="518.705" y1="1629.130" x2="518.705" y2="1579.130"/>
      <line x1="519.705" y1="1629.130" x2="519.705" y2="1579.130"/>
      <line x1="520.705" y1="1629.130" x2="520.705" y2="1579.130"/>
      <line x1="521.705" y1="1629.130" x2="521.705" y2="1579.130"/>
      <line x1="522.705" y1="1629.130" x2="522.705" y2="1579.130"/>
      <line x1="523.705" y1="1629.130" x2="523.705" y2="1579.130"/>
      <line x1="524.705" y1="1629.130" x2="524.705" y2="1579.130"/>
      <line x1="525.705" y1="1629.130" x2="525.705" y2="1579.130"/>
      <line x1="526.705" y1="1629.130" x2="526.705" y2="1579.130"/>
      <line x1="527.705" y1="1629.130" x2="527.705" y2="1579.130"/>
      <line x1="528.705" y1="1629.130" x2="528.705" y2="1579.130"/>
      <line x1="529.705" y1="1629.130" x2="529.705" y2="1579.130"/>
      <line x1="530.705" y1="1629.130" x2="530.705" y2="1579.130"/>
      <line x1="531.705" y1="1629.130" x2="531.705" y2="1579.130"/>
      <line x1="532.705" y1="1629.130" x2="532.705" y2="1579.130"/>
      <line x1="533.705" y1="1629.130" x2="533.705" y2="1579.130"/>
      <line x1="534.705" y1="1629.130" x2="534.705" y2="1579.130"/>
      <line x1="535.705" y1="1629.130" x2="535.705" y2="1579.130"/>
      <line x1="536.705" y1="1629.130" x2="536.705" y2="1579.130"/>
      <line x1="537.705" y1="1629.130" x2="537.705" y2="1579.130"/>
      <line x1="538.705" y1="1629.130" x2="538.705" y2="1579.130"/>
      <line x1="539.705" y1="1629.130" x2="539.705" y2="1579.130"/>
      <line x1="540.705" y1="1629.130" x2="540.705" y2="1579.130"/>
      <line x1="541.705" y1="1629.130" x2="541.705" y2="1579.130"/>
      <line x1="542.705" y1="1629.130" x2="542.705" y2="1579.130"/>
      <line x1="543.705" y1="1629.130" x2="543.705" y2="1579.130"/>
      <line x1="544.705" y1="1629.130" x2="544.705" y2="1579.130"/>
      <line x1="545.705" y1="1629.130" x2="545.705" y2="1579.130"/>
      <line x1="546.705" y1="1629.130" x2="546.705" y2="1579.130"/>
      <line x1="547.705" y1="1629.130" x2="547.705" y2="1579.130"/>
      <line x1="548.705" y1="1629.130" x2="548.705" y2="1579.130"/>
      <line x1="549.705" y1="1629.130" x2="549.705" y2="1579.130"/>
      <line x1="550.705" y1="1629.130" x2="550.705" y2="1579.130"/>
      <line x1="551.705" y1="1629.130" x2="551.705" y2="1579.130"/>
      <line x1="552.705" y1="1629.130" x2="552.705" y2="1579.130"/>
      <line x1="553.705" y1="1629.130" x2="553.705" y2="1579.130"/>
      <line x1="554.705" y1="1629.130" x2="554.705" y2="1579.130"/>
      <line x1="555.705" y1="1629.130" x2="555.705" y2="1579.130"/>
      <line x1="556.705" y1="1629.130" x2="556.705" y2="1579.130"/>
      <line x1="557.705" y1="1629.130" x2="557.705" y2="1579.130"/>
      <line x1="558.705" y1="1629.130" x2="558.705" y2="1579.130"/>
      <line x1="559.705" y1="1629.130" x2="559.705" y2="1579.130"/>
      <line x1="560.705" y1="1629.130" x2="560.705" y2="1579.130"/>
      <line x1="561.705" y1="1629.130" x2="561.705" y2="1579.130"/>
      <line x1="562.705" y1="1629.130" x2="562.705" y2="1579.130"/>
      <line x1="563.705" y1="1629.130" x2="563.705" y2="1579.130"/>
      <line x1="564.705" y1="1629.130" x2="564.705" y2="1579.130"/>
      <line x1="565.705" y1="1629.130" x2="565.705" y2="1579.130"/>
      <line x1="566.705" y1="1629.130" x2="566.705" y2="1579.130"/>
      <line x1="567.705" y1="1629.130" x2="567.705" y2="1579.130"/>
      <line x1="568.705" y1="1629.130" x2="568.705" y2="1579.130"/>
      <line x1="569.705" y1="1629.130" x2="569.705" y2="1579.130"/>
      <line x1="570.705" y1="1629.130" x2="570.705" y2="1579.130"/>
      <line x1="571.705" y1="1629.130" x2="571.705" y2="1579.130"/>
      <line x1="572.705" y1="1629.130" x2="572.705" y2="1579.130"/>
      <line x1="573.705" y1="1629.130" x2="573.705" y2="1579.130"/>
      <line x1="574.705" y1="1629.130" x2="574.705" y2="1579.130"/>
      <line x1="575.705" y1="1629.130" x2="575.705" y2="1579.130"/>
      <line x1="576.705" y1="1629.130" x2="576.705" y2="1579.130"/>
      <line x1="577.705" y1="1629.130" x2="577.705" y2="1579.130"/>
      <line x1="578.705" y1="1629.130" x2="578.705" y2="1579.130"/>
      <line x1="579.705" y1="1629.130" x2="579.705" y2="1579.130"/>
      <line x1="580.705" y1="1629.130" x2="580.705" y2="1579.130"/>
      <line x1="581.705" y1="1629.130" x2="581.705" y2="1579.130"/>
      <line x1="582.705" y1="1629.130" x2="582.705" y2="1579.130"/>
      <line x1="583.705" y1="1629.130" x2="583.705" y2="1579.130"/>
      <line x1="584.705" y1="1629.130" x2="584.705" y2="1579.130"/>
      <line x1="585.705" y1="1629.130" x2="585.705" y2="1579.130"/>
      <line x1="586.705" y1="1629.130" x2="586.705" y2="1579.130"/>
      <line x1="587.705" y1="1629.130" x2="587.705" y2="1579.130"/>
      <line x1="588.705" y1="1629.130" x2="588.705" y2="1579.130"/>
      <line x1="589.705" y1="1629.130" x2="589.705" y2="1579.130"/>
      <line x1="590.705" y1="1629.130" x2="590.705" y2="1579.130"/>
      <line x1="591.705" y1="1629.130" x2="591.705" y2="1579.130"/>
      <line x1="592.705" y1="1629.130" x2="592.705" y2="1579.130"/>
      <line x1="593.705" y1="1629.130" x2="593.705" y2="1579.130"/>
      <line x1="594.705" y1="1629.130" x2="594.705" y2="1579.130"/>
      <line x1="595.705" y1="1629.130" x2="595.705" y2="1579.130"/>
      <line x1="596.705" y1="1629.130" x2="596.705" y2="1579.130"/>
      <line x1="509.705" y1="1579.030" x2="509.705" y2="1529.030"/>
      <line x1="510.705" y1="1579.030" x2="510.705" y2="1529.030"/>
      <line x1="511.705" y1="1579.030" x2="511.705" y2="1529.030"/>
      <line x1="512.705" y1="1579.030" x2="512.705" y2="1529.030"/>
      <line x1="513.705" y1="1579.030" x2="513.705" y2="1529.030"/>
      <line x1="514.705" y1="1579.030" x2="514.705" y2="1529.030"/>
      <line x1="515.705" y1="1579.030" x2="515.705" y2="1529.030"/>
      <line x1="516.705" y1="1579.030" x2="516.705" y2="1529.030"/>
      <line x1="517.705" y1="1579.030" x2="517.705" y2="1529.030"/>
      <line x1="518.705" y1="1579.030" x2="518.705" y2="1529.030"/>
      <line x1="519.705" y1="1579.030" x2="519.705" y2="1529.030"/>
      <line x1="520.705" y1="1579.030" x2="520.705" y2="1529.030"/>
      <line x1="521.705" y1="1579.030" x2="521.705" y2="1529.030"/>
      <line x1="522.705" y1="1579.030" x2="522.705" y2="1529.030"/>
      <line x1="523.705" y1="1579.030" x2="523.705" y2="1529.030"/>
      <line x1="524.705" y1="1579.030" x2="524.705" y2="1529.030"/>
      <line x1="525.705" y1="1579.030" x2="525.705" y2="1529.030"/>
      <line x1="526.705" y1="1579.030" x2="526.705" y2="1529.030"/>
      <line x1="527.705" y1="1579.030" x2="527.705" y2="1529.030"/>
      <line x1="528.705" y1="1579.030" x2="528.705" y2="1529.030"/>
      <line x1="529.705" y1="1579.030" x2="529.705" y2="1529.030"/>
      <line x1="530.705" y1="1579.030" x2="530.705" y2="1529.030"/>
      <line x1="531.705" y1="1579.030" x2="531.705" y2="1529.030"/>
      <line x1="532.705" y1="1579.030" x2="532.705" y2="1529.030"/>
      <line x1="533.705" y1="1579.030" x2="533.705" y2="1529.030"/>
      <line x1="534.705" y1="1579.030" x2="534.705" y2="1529.030"/>
      <line x1="535.705" y1="1579.030" x2="535.705" y2="1529.030"/>
      <line x1="536.705" y1="1579.030" x2="536.705" y2="1529.030"/>
      <line x1="537.705" y1="1579.030" x2="537.705" y2="1529.030"/>
      <line x1="538.705" y1="1579.030" x2="538.705" y2="1529.030"/>
      <line x1="539.705" y1="1579.030" x2="539.705" y2="1529.030"/>
      <line x1="540.705" y1="1579.030" x2="540.705" y2="1529.030"/>
      <line x1="541.705" y1="1579.030" x2="541.705" y2="1529.030"/>
      <line x1="542.705" y1="1579.030" x2="542.705" y2="1529.030"/>
      <line x1="543.705" y1="1579.030" x2="543.705" y2="1529.030"/>
      <line x1="544.705" y1="1579.030" x2="544.705" y2="1529.030"/>
      <line x1="545.705" y1="1579.030" x2="545.705" y2="1529.030"/>
      <line x1="546.705" y1="1579.030" x2="546.705" y2="1529.030"/>
      <line x1="547.705" y1="1579.030" x2="547.705" y2="1529.030"/>
      <line x1="548.705" y1="1579.030" x2="548.705" y2="1529.030"/>
      <line x1="549.705" y1="1579.030" x2="549.705" y2="1529.030"/>
      <line x1="550.705" y1="1579.030" x2="550.705" y2="1529.030"/>
      <line x1="551.705" y1="1579.030" x2="551.705" y2="1529.030"/>
      <line x1="552.705" y1="1579.030" x2="552.705" y2="1529.030"/>
      <line x1="553.705" y1="1579.030" x2="553.705" y2="1529.030"/>
      <line x1="554.705" y1="1579.030" x2="554.705" y2="1529.030"/>
      <line x1="555.705" y1="1579.030" x2="555.705" y2="1529.030"/>
      <line x1="556.705" y1="1579.030" x2="556.705" y2="1529.030"/>
      <line x1="557.705" y1="1579.030" x2="557.705" y2="1529.030"/>
      <line x1="558.705" y1="1579.030" x2="558.705" y2="1529.030"/>
      <line x1="559.705" y1="1579.030" x2="559.705" y2="1529.030"/>
      <line x1="560.705" y1="1579.030" x2="560.705" y2="1529.030"/>
      <line x1="561.705" y1="1579.030" x2="561.705" y2="1529.030"/>
      <line x1="562.705" y1="1579.030" x2="562.705" y2="1529.030"/>
      <line x1="563.705" y1="1579.030" x2="563.705" y2="1529.030"/>
      <line x1="564.705" y1="1579.030" x2="564.705" y2="1529.030"/>
      <line x1="565.705" y1="1579.030" x2="565.705" y2="1529.030"/>
      <line x1="566.705" y1="1579.030" x2="566.705" y2="1529.030"/>
      <line x1="567.705" y1="1579.030" x2="567.705" y2="1529.030"/>
      <line x1="568.705" y1="1579.030" x2="568.705" y2="1529.030"/>
      <line x1="569.705" y1="1579.030" x2="569.705" y2="1529.030"/>
      <line x1="570.705" y1="1579.030" x2="570.705" y2="1529.030"/>
      <line x1="571.705" y1="1579.030" x2="571.705" y2="1529.030"/>
      <line x1="572.705" y1="1579.030" x2="572.705" y2="1529.030"/>
      <line x1="573.705" y1="1579.030" x2="573.705" y2="1529.030"/>
      <line x1="574.705" y1="1579.030" x2="574.705" y2="1529.030"/>
      <line x1="575.705" y1="1579.030" x2="575.705" y2="1529.030"/>
      <line x1="576.705" y1="1579.030" x2="576.705" y2="1529.030"/>
      <line x1="577.705" y1="1579.030" x2="577.705" y2="1529.030"/>
      <line x1="578.705" y1="1579.030" x2="578.705" y2="1529.030"/>
      <line x1="579.705" y1="1579.030" x2="579.705" y2="1529.030"/>
      <line x1="580.705" y1="1579.030" x2="580.705" y2="1529.030"/>
      <line x1="581.705" y1="1579.030" x2="581.705" y2="1529.030"/>
      <line x1="582.705" y1="1579.030" x2="582.705" y2="1529.030"/>
      <line x1="583.705" y1="1579.030" x2="583.705" y2="1529.030"/>
      <line x1="584.705" y1="1579.030" x2="584.705" y2="1529.030"/>
      <line x1="585.705" y1="1579.030" x2="585.705" y2="1529.030"/>
      <line x1="586.705" y1="1579.030" x2="586.705" y2="1529.030"/>
      <line x1="587.705" y1="1579.030" x2="587.705" y2="1529.030"/>
      <line x1="588.705" y1="1579.030" x2="588.705" y2="1529.030"/>
      <line x1="589.705" y1="1579.030" x2="589.705" y2="1529.030"/>
      <line x1="590.705" y1="1579.030" x2="590.705" y2="1529.030"/>
      <line x1="591.705" y1="1579.030" x2="591.705" y2="1529.030"/>
      <line x1="592.705" y1="1579.030" x2="592.705" y2="1529.030"/>
      <line x1="593.705" y1="1579.030" x2="593.705" y2="1529.030"/>
      <line x1="594.705" y1="1579.030" x2="594.705" y2="1529.030"/>
      <line x1="595.705" y1="1579.030" x2="595.705" y2="1529.030"/>
      <line x1="596.705" y1="1579.030" x2="596.705" y2="1529.030"/>
      <line x1="538.705" y1="1528.930" x2="538.705" y2="1525.229"/>
      <line x1="510.705" y1="1528.930" x2="510.705" y2="1525.229"/>
      <line x1="509.705" y1="1528.930" x2="509.705" y2="1525.229"/>
      <line x1="512.705" y1="1528.930" x2="512.705" y2="1525.229"/>
      <line x1="515.705" y1="1528.930" x2="515.705" y2="1525.229"/>
      <line x1="518.705" y1="1528.930" x2="518.705" y2="1525.229"/>
      <line x1="517.705" y1="1528.930" x2="517.705" y2="1525.229"/>
      <line x1="521.705" y1="1528.930" x2="521.705" y2="1525.229"/>
      <line x1="520.705" y1="1528.930" x2="520.705" y2="1525.229"/>
      <line x1="523.705" y1="1528.930" x2="523.705" y2="1525.229"/>
      <line x1="537.705" y1="1528.930" x2="537.705" y2="1525.229"/>
      <line x1="535.705" y1="1528.930" x2="535.705" y2="1525.229"/>
      <line x1="532.705" y1="1528.930" x2="532.705" y2="1525.229"/>
      <line x1="529.705" y1="1528.930" x2="529.705" y2="1525.229"/>
      <line x1="526.705" y1="1528.930" x2="526.705" y2="1525.229"/>
      <line x1="524.705" y1="1528.930" x2="524.705" y2="1525.229"/>
      <line x1="530.705" y1="1528.930" x2="530.705" y2="1525.229"/>
      <line x1="527.705" y1="1528.930" x2="527.705" y2="1525.229"/>
      <line x1="534.705" y1="1528.930" x2="534.705" y2="1525.229"/>
      <line x1="514.705" y1="1528.930" x2="514.705" y2="1525.229"/>
      <line x1="513.705" y1="1528.930" x2="513.705" y2="1525.229"/>
      <line x1="516.705" y1="1528.930" x2="516.705" y2="1525.229"/>
      <line x1="519.705" y1="1528.930" x2="519.705" y2="1525.229"/>
      <line x1="522.705" y1="1528.930" x2="522.705" y2="1525.229"/>
      <line x1="525.705" y1="1528.930" x2="525.705" y2="1525.229"/>
      <line x1="528.705" y1="1528.930" x2="528.705" y2="1525.229"/>
      <line x1="531.705" y1="1528.930" x2="531.705" y2="1525.229"/>
      <line x1="511.705" y1="1528.930" x2="511.705" y2="1525.229"/>
      <line x1="533.705" y1="1528.930" x2="533.705" y2="1525.229"/>
      <line x1="536.705" y1="1528.930" x2="536.705" y2="1525.229"/>
      <line x1="547.705" y1="1528.930" x2="547.705" y2="1525.229"/>
      <line x1="555.705" y1="1528.930" x2="555.705" y2="1525.229"/>
      <line x1="554.705" y1="1528.930" x2="554.705" y2="1525.229"/>
      <line x1="553.705" y1="1528.930" x2="553.705" y2="1525.229"/>
      <line x1="552.705" y1="1528.930" x2="552.705" y2="1525.229"/>
      <line x1="551.705" y1="1528.930" x2="551.705" y2="1525.229"/>
      <line x1="550.705" y1="1528.930" x2="550.705" y2="1525.229"/>
      <line x1="549.705" y1="1528.930" x2="549.705" y2="1525.229"/>
      <line x1="548.705" y1="1528.930" x2="548.705" y2="1525.229"/>
      <line x1="556.705" y1="1528.930" x2="556.705" y2="1525.229"/>
      <line x1="546.705" y1="1528.930" x2="546.705" y2="1525.229"/>
      <line x1="545.705" y1="1528.930" x2="545.705" y2="1525.229"/>
      <line x1="544.705" y1="1528.930" x2="544.705" y2="1525.229"/>
      <line x1="543.705" y1="1528.930" x2="543.705" y2="1525.229"/>
      <line x1="542.705" y1="1528.930" x2="542.705" y2="1525.229"/>
      <line x1="541.705" y1="1528.930" x2="541.705" y2="1525.229"/>
      <line x1="540.705" y1="1528.930" x2="540.705" y2="1525.229"/>
      <line x1="539.705" y1="1528.930" x2="539.705" y2="1525.229"/>
      <line x1="558.705" y1="1528.930" x2="558.705" y2="1525.229"/>
      <line x1="557.705" y1="1528.930" x2="557.705" y2="1525.229"/>
      <line x1="582.705" y1="1528.930" x2="582.705" y2="1525.229"/>
      <line x1="590.705" y1="1528.930" x2="590.705" y2="1525.229"/>
      <line x1="589.705" y1="1528.930" x2="589.705" y2="1525.229"/>
      <line x1="588.705" y1="1528.930" x2="588.705" y2="1525.229"/>
      <line x1="587.705" y1="1528.930" x2="587.705" y2="1525.229"/>
      <line x1="586.705" y1="1528.930" x2="586.705" y2="1525.229"/>
      <line x1="585.705" y1="1528.930" x2="585.705" y2="1525.229"/>
      <line x1="584.705" y1="1528.930" x2="584.705" y2="1525.229"/>
      <line x1="583.705" y1="1528.930" x2="583.705" y2="1525.229"/>
      <line x1="591.705" y1="1528.930" x2="591.705" y2="1525.229"/>
      <line x1="581.705" y1="1528.930" x2="581.705" y2="1525.229"/>
      <line x1="580.705" y1="1528.930" x2="580.705" y2="1525.229"/>
      <line x1="579.705" y1="1528.930" x2="579.705" y2="1525.229"/>
      <line x1="578.705" y1="1528.930" x2="578.705" y2="1525.229"/>
      <line x1="577.705" y1="1528.930" x2="577.705" y2="1525.229"/>
      <line x1="576.705" y1="1528.930" x2="576.705" y2="1525.229"/>
      <line x1="575.705" y1="1528.930" x2="575.705" y2="1525.229"/>
      <line x1="574.705" y1="1528.930" x2="574.705" y2="1525.229"/>
      <line x1="596.705" y1="1528.930" x2="596.705" y2="1525.229"/>
      <line x1="595.705" y1="1528.930" x2="595.705" y2="1525.229"/>
      <line x1="594.705" y1="1528.930" x2="594.705" y2="1525.229"/>
      <line x1="593.705" y1="1528.930" x2="593.705" y2="1525.229"/>
      <line x1="592.705" y1="1528.930" x2="592.705" y2="1525.229"/>
      <line x1="564.705" y1="1528.930" x2="564.705" y2="1525.229"/>
      <line x1="572.705" y1="1528.930" x2="572.705" y2="1525.229"/>
      <line x1="571.705" y1="1528.930" x2="571.705" y2="1525.229"/>
      <line x1="570.705" y1="1528.930" x2="570.705" y2="1525.229"/>
      <line x1="569.705" y1="1528.930" x2="569.705" y2="1525.229"/>
      <line x1="568.705" y1="1528.930" x2="568.705" y2="1525.229"/>
      <line x1="567.705" y1="1528.930" x2="567.705" y2="1525.229"/>
      <line x1="566.705" y1="1528.930" x2="566.705" y2="1525.229"/>
      <line x1="565.705" y1="1528.930" x2="565.705" y2="1525.229"/>
      <line x1="573.705" y1="1528.930" x2="573.705" y2="1525.229"/>
      <line x1="563.705" y1="1528.930" x2="563.705" y2="1525.229"/>
      <line x1="562.705" y1="1528.930" x2="562.705" y2="1525.229"/>
      <line x1="561.705" y1="1528.930" x2="561.705" y2="1525.229"/>
      <line x1="560.705" y1="1528.930" x2="560.705" y2="1525.229"/>
      <line x1="559.705" y1="1528.930" x2="559.705" y2="1525.229"/>
      <line x1="3.633" y1="1679.230" x2="3.633" y2="1629.230"/>
      <line x1="4.633" y1="1679.230" x2="4.633" y2="1629.230"/>
      <line x1="5.633" y1="1679.230" x2="5.633" y2="1629.230"/>
      <line x1="6.633" y1="1679.230" x2="6.633" y2="1629.230"/>
      <line x1="7.633" y1="1679.230" x2="7.633" y2="1629.230"/>
      <line x1="8.633" y1="1679.230" x2="8.633" y2="1629.230"/>
      <line x1="9.633" y1="1679.230" x2="9.633" y2="1629.230"/>
      <line x1="10.633" y1="1679.230" x2="10.633" y2="1629.230"/>
      <line x1="11.633" y1="1679.230" x2="11.633" y2="1629.230"/>
      <line x1="12.633" y1="1679.230" x2="12.633" y2="1629.230"/>
      <line x1="13.633" y1="1679.230" x2="13.633" y2="1629.230"/>
      <line x1="14.633" y1="1679.230" x2="14.633" y2="1629.230"/>
      <line x1="15.633" y1="1679.230" x2="15.633" y2="1629.230"/>
      <line x1="16.633" y1="1679.230" x2="16.633" y2="1629.230"/>
      <line x1="17.633" y1="1679.230" x2="17.633" y2="1629.230"/>
      <line x1="18.633" y1="1679.230" x2="18.633" y2="1629.230"/>
      <line x1="19.633" y1="1679.230" x2="19.633" y2="1629.230"/>
      <line x1="20.633" y1="1679.230" x2="20.633" y2="1629.230"/>
      <line x1="21.633" y1="1679.230" x2="21.633" y2="1629.230"/>
      <line x1="22.633" y1="1679.230" x2="22.633" y2="1629.230"/>
      <line x1="23.633" y1="1679.230" x2="23.633" y2="1629.230"/>
      <line x1="24.633" y1="1679.230" x2="24.633" y2="1629.230"/>
      <line x1="25.633" y1="1679.230" x2="25.633" y2="1629.230"/>
      <line x1="26.633" y1="1679.230" x2="26.633" y2="1629.230"/>
      <line x1="27.633" y1="1679.230" x2="27.633" y2="1629.230"/>
      <line x1="28.633" y1="1679.230" x2="28.633" y2="1629.230"/>
      <line x1="29.633" y1="1679.230" x2="29.633" y2="1629.230"/>
      <line x1="30.633" y1="1679.230" x2="30.633" y2="1629.230"/>
      <line x1="31.633" y1="1679.230" x2="31.633" y2="1629.230"/>
      <line x1="32.633" y1="1679.230" x2="32.633" y2="1629.230"/>
      <line x1="33.633" y1="1679.230" x2="33.633" y2="1629.230"/>
      <line x1="34.633" y1="1679.230" x2="34.633" y2="1629.230"/>
      <line x1="35.633" y1="1679.230" x2="35.633" y2="1629.230"/>
      <line x1="36.633" y1="1679.230" x2="36.633" y2="1629.230"/>
      <line x1="37.633" y1="1679.230" x2="37.633" y2="1629.230"/>
      <line x1="38.633" y1="1679.230" x2="38.633" y2="1629.230"/>
      <line x1="39.633" y1="1679.230" x2="39.633" y2="1629.230"/>
      <line x1="40.633" y1="1679.230" x2="40.633" y2="1629.230"/>
      <line x1="41.633" y1="1679.230" x2="41.633" y2="1629.230"/>
      <line x1="42.633" y1="1679.230" x2="42.633" y2="1629.230"/>
      <line x1="43.633" y1="1679.230" x2="43.633" y2="1629.230"/>
      <line x1="44.633" y1="1679.230" x2="44.633" y2="1629.230"/>
      <line x1="45.633" y1="1679.230" x2="45.633" y2="1629.230"/>
      <line x1="46.633" y1="1679.230" x2="46.633" y2="1629.230"/>
      <line x1="47.633" y1="1679.230" x2="47.633" y2="1629.230"/>
      <line x1="48.633" y1="1679.230" x2="48.633" y2="1629.230"/>
      <line x1="49.633" y1="1679.230" x2="49.633" y2="1629.230"/>
      <line x1="50.633" y1="1679.230" x2="50.633" y2="1629.230"/>
      <line x1="51.633" y1="1679.230" x2="51.633" y2="1629.230"/>
      <line x1="52.633" y1="1679.230" x2="52.633" y2="1629.230"/>
      <line x1="53.633" y1="1679.230" x2="53.633" y2="1629.230"/>
      <line x1="54.633" y1="1679.230" x2="54.633" y2="1629.230"/>
      <line x1="55.633" y1="1679.230" x2="55.633" y2="1629.230"/>
      <line x1="56.633" y1="1679.230" x2="56.633" y2="1629.230"/>
      <line x1="57.633" y1="1679.230" x2="57.633" y2="1629.230"/>
      <line x1="58.633" y1="1679.230" x2="58.633" y2="1629.230"/>
      <line x1="59.633" y1="1679.230" x2="59.633" y2="1629.230"/>
      <line x1="60.633" y1="1679.230" x2="60.633" y2="1629.230"/>
      <line x1="61.633" y1="1679.230" x2="61.633" y2="1629.230"/>
      <line x1="62.633" y1="1679.230" x2="62.633" y2="1629.230"/>
      <line x1="63.633" y1="1679.230" x2="63.633" y2="1629.230"/>
      <line x1="64.633" y1="1679.230" x2="64.633" y2="1629.230"/>
      <line x1="65.633" y1="1679.230" x2="65.633" y2="1629.230"/>
      <line x1="66.633" y1="1679.230" x2="66.633" y2="1629.230"/>
      <line x1="67.633" y1="1679.230" x2="67.633" y2="1629.230"/>
      <line x1="68.633" y1="1679.230" x2="68.633" y2="1629.230"/>
      <line x1="69.633" y1="1679.230" x2="69.633" y2="1629.230"/>
      <line x1="70.633" y1="1679.230" x2="70.633" y2="1629.230"/>
      <line x1="71.633" y1="1679.230" x2="71.633" y2="1629.230"/>
      <line x1="72.633" y1="1679.230" x2="72.633" y2="1629.230"/>
      <line x1="73.633" y1="1679.230" x2="73.633" y2="1629.230"/>
      <line x1="74.633" y1="1679.230" x2="74.633" y2="1629.230"/>
      <line x1="75.633" y1="1679.230" x2="75.633" y2="1629.230"/>
      <line x1="76.633" y1="1679.230" x2="76.633" y2="1629.230"/>
      <line x1="77.633" y1="1679.230" x2="77.633" y2="1629.230"/>
      <line x1="78.633" y1="1679.230" x2="78.633" y2="1629.230"/>
      <line x1="79.633" y1="1679.230" x2="79.633" y2="1629.230"/>
      <line x1="80.633" y1="1679.230" x2="80.633" y2="1629.230"/>
      <line x1="81.633" y1="1679.230" x2="81.633" y2="1629.230"/>
      <line x1="82.633" y1="1679.230" x2="82.633" y2="1629.230"/>
      <line x1="83.633" y1="1679.230" x2="83.633" y2="1629.230"/>
      <line x1="84.633" y1="1679.230" x2="84.633" y2="1629.230"/>
      <line x1="85.633" y1="1679.230" x2="85.633" y2="1629.230"/>
      <line x1="86.633" y1="1679.230" x2="86.633" y2="1629.230"/>
      <line x1="87.633" y1="1679.230" x2="87.633" y2="1629.230"/>
      <line x1="88.633" y1="1679.230" x2="88.633" y2="1629.230"/>
      <line x1="89.633" y1="1679.230" x2="89.633" y2="1629.230"/>
      <line x1="90.633" y1="1679.230" x2="90.633" y2="1629.230"/>
      <line x1="3.633" y1="1629.130" x2="3.633" y2="1579.130"/>
      <line x1="4.633" y1="1629.130" x2="4.633" y2="1579.130"/>
      <line x1="5.633" y1="1629.130" x2="5.633" y2="1579.130"/>
      <line x1="6.633" y1="1629.130" x2="6.633" y2="1579.130"/>
      <line x1="7.633" y1="1629.130" x2="7.633" y2="1579.130"/>
      <line x1="8.633" y1="1629.130" x2="8.633" y2="1579.130"/>
      <line x1="9.633" y1="1629.130" x2="9.633" y2="1579.130"/>
      <line x1="10.633" y1="1629.130" x2="10.633" y2="1579.130"/>
      <line x1="11.633" y1="1629.130" x2="11.633" y2="1579.130"/>
      <line x1="12.633" y1="1629.130" x2="12.633" y2="1579.130"/>
      <line x1="13.633" y1="1629.130" x2="13.633" y2="1579.130"/>
      <line x1="14.633" y1="1629.130" x2="14.633" y2="1579.130"/>
      <line x1="15.633" y1="1629.130" x2="15.633" y2="1579.130"/>
      <line x1="16.633" y1="1629.130" x2="16.633" y2="1579.130"/>
      <line x1="17.633" y1="1629.130" x2="17.633" y2="1579.130"/>
      <line x1="18.633" y1="1629.130" x2="18.633" y2="1579.130"/>
      <line x1="19.633" y1="1629.130" x2="19.633" y2="1579.130"/>
      <line x1="20.633" y1="1629.130" x2="20.633" y2="1579.130"/>
      <line x1="21.633" y1="1629.130" x2="21.633" y2="1579.130"/>
      <line x1="22.633" y1="1629.130" x2="22.633" y2="1579.130"/>
      <line x1="23.633" y1="1629.130" x2="23.633" y2="1579.130"/>
      <line x1="24.633" y1="1629.130" x2="24.633" y2="1579.130"/>
      <line x1="25.633" y1="1629.130" x2="25.633" y2="1579.130"/>
      <line x1="26.633" y1="1629.130" x2="26.633" y2="1579.130"/>
      <line x1="27.633" y1="1629.130" x2="27.633" y2="1579.130"/>
      <line x1="28.633" y1="1629.130" x2="28.633" y2="1579.130"/>
      <line x1="29.633" y1="1629.130" x2="29.633" y2="1579.130"/>
      <line x1="30.633" y1="1629.130" x2="30.633" y2="1579.130"/>
      <line x1="31.633" y1="1629.130" x2="31.633" y2="1579.130"/>
      <line x1="32.633" y1="1629.130" x2="32.633" y2="1579.130"/>
      <line x1="33.633" y1="1629.130" x2="33.633" y2="1579.130"/>
      <line x1="34.633" y1="1629.130" x2="34.633" y2="1579.130"/>
      <line x1="35.633" y1="1629.130" x2="35.633" y2="1579.130"/>
      <line x1="36.633" y1="1629.130" x2="36.633" y2="1579.130"/>
      <line x1="37.633" y1="1629.130" x2="37.633" y2="1579.130"/>
      <line x1="38.633" y1="1629.130" x2="38.633" y2="1579.130"/>
      <line x1="39.633" y1="1629.130" x2="39.633" y2="1579.130"/>
      <line x1="40.633" y1="1629.130" x2="40.633" y2="1579.130"/>
      <line x1="41.633" y1="1629.130" x2="41.633" y2="1579.130"/>
      <line x1="42.633" y1="1629.130" x2="42.633" y2="1579.130"/>
      <line x1="43.633" y1="1629.130" x2="43.633" y2="1579.130"/>
      <line x1="44.633" y1="1629.130" x2="44.633" y2="1579.130"/>
      <line x1="45.633" y1="1629.130" x2="45.633" y2="1579.130"/>
      <line x1="46.633" y1="1629.130" x2="46.633" y2="1579.130"/>
      <line x1="47.633" y1="1629.130" x2="47.633" y2="1579.130"/>
      <line x1="48.633" y1="1629.130" x2="48.633" y2="1579.130"/>
      <line x1="49.633" y1="1629.130" x2="49.633" y2="1579.130"/>
      <line x1="50.633" y1="1629.130" x2="50.633" y2="1579.130"/>
      <line x1="51.633" y1="1629.130" x2="51.633" y2="1579.130"/>
      <line x1="52.633" y1="1629.130" x2="52.633" y2="1579.130"/>
      <line x1="53.633" y1="1629.130" x2="53.633" y2="1579.130"/>
      <line x1="54.633" y1="1629.130" x2="54.633" y2="1579.130"/>
      <line x1="55.633" y1="1629.130" x2="55.633" y2="1579.130"/>
      <line x1="56.633" y1="1629.130" x2="56.633" y2="1579.130"/>
      <line x1="57.633" y1="1629.130" x2="57.633" y2="1579.130"/>
      <line x1="58.633" y1="1629.130" x2="58.633" y2="1579.130"/>
      <line x1="59.633" y1="1629.130" x2="59.633" y2="1579.130"/>
      <line x1="60.633" y1="1629.130" x2="60.633" y2="1579.130"/>
      <line x1="61.633" y1="1629.130" x2="61.633" y2="1579.130"/>
      <line x1="62.633" y1="1629.130" x2="62.633" y2="1579.130"/>
      <line x1="63.633" y1="1629.130" x2="63.633" y2="1579.130"/>
      <line x1="64.633" y1="1629.130" x2="64.633" y2="1579.130"/>
      <line x1="65.633" y1="1629.130" x2="65.633" y2="1579.130"/>
      <line x1="66.633" y1="1629.130" x2="66.633" y2="1579.130"/>
      <line x1="67.633" y1="1629.130" x2="67.633" y2="1579.130"/>
      <line x1="68.633" y1="1629.130" x2="68.633" y2="1579.130"/>
      <line x1="69.633" y1="1629.130" x2="69.633" y2="1579.130"/>
      <line x1="70.633" y1="1629.130" x2="70.633" y2="1579.130"/>
      <line x1="71.633" y1="1629.130" x2="71.633" y2="1579.130"/>
      <line x1="72.633" y1="1629.130" x2="72.633" y2="1579.130"/>
      <line x1="73.633" y1="1629.130" x2="73.633" y2="1579.130"/>
      <line x1="74.633" y1="1629.130" x2="74.633" y2="1579.130"/>
      <line x1="75.633" y1="1629.130" x2="75.633" y2="1579.130"/>
      <line x1="76.633" y1="1629.130" x2="76.633" y2="1579.130"/>
      <line x1="77.633" y1="1629.130" x2="77.633" y2="1579.130"/>
      <line x1="78.633" y1="1629.130" x2="78.633" y2="1579.130"/>
      <line x1="79.633" y1="1629.130" x2="79.633" y2="1579.130"/>
      <line x1="80.633" y1="1629.130" x2="80.633" y2="1579.130"/>
      <line x1="81.633" y1="1629.130" x2="81.633" y2="1579.130"/>
      <line x1="82.633" y1="1629.130" x2="82.633" y2="1579.130"/>
      <line x1="83.633" y1="1629.130" x2="83.633" y2="1579.130"/>
      <line x1="84.633" y1="1629.130" x2="84.633" y2="1579.130"/>
      <line x1="85.633" y1="1629.130" x2="85.633" y2="1579.130"/>
      <line x1="86.633" y1="1629.130" x2="86.633" y2="1579.130"/>
      <line x1="87.633" y1="1629.130" x2="87.633" y2="1579.130"/>
      <line x1="88.633" y1="1629.130" x2="88.633" y2="1579.130"/>
      <line x1="89.633" y1="1629.130" x2="89.633" y2="1579.130"/>
      <line x1="90.633" y1="1629.130" x2="90.633" y2="1579.130"/>
      <line x1="3.633" y1="1579.030" x2="3.633" y2="1529.030"/>
      <line x1="4.633" y1="1579.030" x2="4.633" y2="1529.030"/>
      <line x1="5.633" y1="1579.030" x2="5.633" y2="1529.030"/>
      <line x1="6.633" y1="1579.030" x2="6.633" y2="1529.030"/>
      <line x1="7.633" y1="1579.030" x2="7.633" y2="1529.030"/>
      <line x1="8.633" y1="1579.030" x2="8.633" y2="1529.030"/>
      <line x1="9.633" y1="1579.030" x2="9.633" y2="1529.030"/>
      <line x1="10.633" y1="1579.030" x2="10.633" y2="1529.030"/>
      <line x1="11.633" y1="1579.030" x2="11.633" y2="1529.030"/>
      <line x1="12.633" y1="1579.030" x2="12.633" y2="1529.030"/>
      <line x1="13.633" y1="1579.030" x2="13.633" y2="1529.030"/>
      <line x1="14.633" y1="1579.030" x2="14.633" y2="1529.030"/>
      <line x1="15.633" y1="1579.030" x2="15.633" y2="1529.030"/>
      <line x1="16.633" y1="1579.030" x2="16.633" y2="1529.030"/>
      <line x1="17.633" y1="1579.030" x2="17.633" y2="1529.030"/>
      <line x1="18.633" y1="1579.030" x2="18.633" y2="1529.030"/>
      <line x1="19.633" y1="1579.030" x2="19.633" y2="1529.030"/>
      <line x1="20.633" y1="1579.030" x2="20.633" y2="1529.030"/>
      <line x1="21.633" y1="1579.030" x2="21.633" y2="1529.030"/>
      <line x1="22.633" y1="1579.030" x2="22.633" y2="1529.030"/>
      <line x1="23.633" y1="1579.030" x2="23.633" y2="1529.030"/>
      <line x1="24.633" y1="1579.030" x2="24.633" y2="1529.030"/>
      <line x1="25.633" y1="1579.030" x2="25.633" y2="1529.030"/>
      <line x1="26.633" y1="1579.030" x2="26.633" y2="1529.030"/>
      <line x1="27.633" y1="1579.030" x2="27.633" y2="1529.030"/>
      <line x1="28.633" y1="1579.030" x2="28.633" y2="1529.030"/>
      <line x1="29.633" y1="1579.030" x2="29.633" y2="1529.030"/>
      <line x1="30.633" y1="1579.030" x2="30.633" y2="1529.030"/>
      <line x1="31.633" y1="1579.030" x2="31.633" y2="1529.030"/>
      <line x1="32.633" y1="1579.030" x2="32.633" y2="1529.030"/>
      <line x1="33.633" y1="1579.030" x2="33.633" y2="1529.030"/>
      <line x1="34.633" y1="1579.030" x2="34.633" y2="1529.030"/>
      <line x1="35.633" y1="1579.030" x2="35.633" y2="1529.030"/>
      <line x1="36.633" y1="1579.030" x2="36.633" y2="1529.030"/>
      <line x1="37.633" y1="1579.030" x2="37.633" y2="1529.030"/>
      <line x1="38.633" y1="1579.030" x2="38.633" y2="1529.030"/>
      <line x1="39.633" y1="1579.030" x2="39.633" y2="1529.030"/>
      <line x1="40.633" y1="1579.030" x2="40.633" y2="1529.030"/>
      <line x1="41.633" y1="1579.030" x2="41.633" y2="1529.030"/>
      <line x1="42.633" y1="1579.030" x2="42.633" y2="1529.030"/>
      <line x1="43.633" y1="1579.030" x2="43.633" y2="1529.030"/>
      <line x1="44.633" y1="1579.030" x2="44.633" y2="1529.030"/>
      <line x1="45.633" y1="1579.030" x2="45.633" y2="1529.030"/>
      <line x1="46.633" y1="1579.030" x2="46.633" y2="1529.030"/>
      <line x1="47.633" y1="1579.030" x2="47.633" y2="1529.030"/>
      <line x1="48.633" y1="1579.030" x2="48.633" y2="1529.030"/>
      <line x1="49.633" y1="1579.030" x2="49.633" y2="1529.030"/>
      <line x1="50.633" y1="1579.030" x2="50.633" y2="1529.030"/>
      <line x1="51.633" y1="1579.030" x2="51.633" y2="1529.030"/>
      <line x1="52.633" y1="1579.030" x2="52.633" y2="1529.030"/>
      <line x1="53.633" y1="1579.030" x2="53.633" y2="1529.030"/>
      <line x1="54.633" y1="1579.030" x2="54.633" y2="1529.030"/>
      <line x1="55.633" y1="1579.030" x2="55.633" y2="1529.030"/>
      <line x1="56.633" y1="1579.030" x2="56.633" y2="1529.030"/>
      <line x1="57.633" y1="1579.030" x2="57.633" y2="1529.030"/>
      <line x1="58.633" y1="1579.030" x2="58.633" y2="1529.030"/>
      <line x1="59.633" y1="1579.030" x2="59.633" y2="1529.030"/>
      <line x1="60.633" y1="1579.030" x2="60.633" y2="1529.030"/>
      <line x1="61.633" y1="1579.030" x2="61.633" y2="1529.030"/>
      <line x1="62.633" y1="1579.030" x2="62.633" y2="1529.030"/>
      <line x1="63.633" y1="1579.030" x2="63.633" y2="1529.030"/>
      <line x1="64.633" y1="1579.030" x2="64.633" y2="1529.030"/>
      <line x1="65.633" y1="1579.030" x2="65.633" y2="1529.030"/>
      <line x1="66.633" y1="1579.030" x2="66.633" y2="1529.030"/>
      <line x1="67.633" y1="1579.030" x2="67.633" y2="1529.030"/>
      <line x1="68.633" y1="1579.030" x2="68.633" y2="1529.030"/>
      <line x1="69.633" y1="1579.030" x2="69.633" y2="1529.030"/>
      <line x1="70.633" y1="1579.030" x2="70.633" y2="1529.030"/>
      <line x1="71.633" y1="1579.030" x2="71.633" y2="1529.030"/>
      <line x1="72.633" y1="1579.030" x2="72.633" y2="1529.030"/>
      <line x1="73.633" y1="1579.030" x2="73.633" y2="1529.030"/>
      <line x1="74.633" y1="1579.030" x2="74.633" y2="1529.030"/>
      <line x1="75.633" y1="1579.030" x2="75.633" y2="1529.030"/>
      <line x1="76.633" y1="1579.030" x2="76.633" y2="1529.030"/>
      <line x1="77.633" y1="1579.030" x2="77.633" y2="1529.030"/>
      <line x1="78.633" y1="1579.030" x2="78.633" y2="1529.030"/>
      <line x1="79.633" y1="1579.030" x2="79.633" y2="1529.030"/>
      <line x1="80.633" y1="1579.030" x2="80.633" y2="1529.030"/>
      <line x1="81.633" y1="1579.030" x2="81.633" y2="1529.030"/>
      <line x1="82.633" y1="1579.030" x2="82.633" y2="1529.030"/>
      <line x1="83.633" y1="1579.030" x2="83.633" y2="1529.030"/>
      <line x1="84.633" y1="1579.030" x2="84.633" y2="1529.030"/>
      <line x1="85.633" y1="1579.030" x2="85.633" y2="1529.030"/>
      <line x1="86.633" y1="1579.030" x2="86.633" y2="1529.030"/>
      <line x1="87.633" y1="1579.030" x2="87.633" y2="1529.030"/>
      <line x1="88.633" y1="1579.030" x2="88.633" y2="1529.030"/>
      <line x1="89.633" y1="1579.030" x2="89.633" y2="1529.030"/>
      <line x1="90.633" y1="1579.030" x2="90.633" y2="1529.030"/>
      <line x1="29.633" y1="1528.930" x2="29.633" y2="1525.229"/>
      <line x1="21.633" y1="1528.930" x2="21.633" y2="1525.229"/>
      <line x1="22.633" y1="1528.930" x2="22.633" y2="1525.229"/>
      <line x1="23.633" y1="1528.930" x2="23.633" y2="1525.229"/>
      <line x1="24.633" y1="1528.930" x2="24.633" y2="1525.229"/>
      <line x1="25.633" y1="1528.930" x2="25.633" y2="1525.229"/>
      <line x1="26.633" y1="1528.930" x2="26.633" y2="1525.229"/>
      <line x1="27.633" y1="1528.930" x2="27.633" y2="1525.229"/>
      <line x1="28.633" y1="1528.930" x2="28.633" y2="1525.229"/>
      <line x1="20.633" y1="1528.930" x2="20.633" y2="1525.229"/>
      <line x1="30.633" y1="1528.930" x2="30.633" y2="1525.229"/>
      <line x1="31.633" y1="1528.930" x2="31.633" y2="1525.229"/>
      <line x1="32.633" y1="1528.930" x2="32.633" y2="1525.229"/>
      <line x1="33.633" y1="1528.930" x2="33.633" y2="1525.229"/>
      <line x1="34.633" y1="1528.930" x2="34.633" y2="1525.229"/>
      <line x1="35.633" y1="1528.930" x2="35.633" y2="1525.229"/>
      <line x1="37.633" y1="1528.930" x2="37.633" y2="1525.229"/>
      <line x1="12.633" y1="1528.930" x2="12.633" y2="1525.229"/>
      <line x1="4.633" y1="1528.930" x2="4.633" y2="1525.229"/>
      <line x1="5.633" y1="1528.930" x2="5.633" y2="1525.229"/>
      <line x1="6.633" y1="1528.930" x2="6.633" y2="1525.229"/>
      <line x1="7.633" y1="1528.930" x2="7.633" y2="1525.229"/>
      <line x1="8.633" y1="1528.930" x2="8.633" y2="1525.229"/>
      <line x1="9.633" y1="1528.930" x2="9.633" y2="1525.229"/>
      <line x1="10.633" y1="1528.930" x2="10.633" y2="1525.229"/>
      <line x1="11.633" y1="1528.930" x2="11.633" y2="1525.229"/>
      <line x1="3.633" y1="1528.930" x2="3.633" y2="1525.229"/>
      <line x1="13.633" y1="1528.930" x2="13.633" y2="1525.229"/>
      <line x1="14.633" y1="1528.930" x2="14.633" y2="1525.229"/>
      <line x1="15.633" y1="1528.930" x2="15.633" y2="1525.229"/>
      <line x1="16.633" y1="1528.930" x2="16.633" y2="1525.229"/>
      <line x1="17.633" y1="1528.930" x2="17.633" y2="1525.229"/>
      <line x1="18.633" y1="1528.930" x2="18.633" y2="1525.229"/>
      <line x1="19.633" y1="1528.930" x2="19.633" y2="1525.229"/>
      <line x1="46.633" y1="1528.930" x2="46.633" y2="1525.229"/>
      <line x1="38.633" y1="1528.930" x2="38.633" y2="1525.229"/>
      <line x1="39.633" y1="1528.930" x2="39.633" y2="1525.229"/>
      <line x1="40.633" y1="1528.930" x2="40.633" y2="1525.229"/>
      <line x1="41.633" y1="1528.930" x2="41.633" y2="1525.229"/>
      <line x1="42.633" y1="1528.930" x2="42.633" y2="1525.229"/>
      <line x1="43.633" y1="1528.930" x2="43.633" y2="1525.229"/>
      <line x1="44.633" y1="1528.930" x2="44.633" y2="1525.229"/>
      <line x1="45.633" y1="1528.930" x2="45.633" y2="1525.229"/>
      <line x1="36.633" y1="1528.930" x2="36.633" y2="1525.229"/>
      <line x1="47.633" y1="1528.930" x2="47.633" y2="1525.229"/>
      <line x1="48.633" y1="1528.930" x2="48.633" y2="1525.229"/>
      <line x1="49.633" y1="1528.930" x2="49.633" y2="1525.229"/>
      <line x1="50.633" y1="1528.930" x2="50.633" y2="1525.229"/>
      <line x1="51.633" y1="1528.930" x2="51.633" y2="1525.229"/>
      <line x1="52.633" y1="1528.930" x2="52.633" y2="1525.229"/>
      <line x1="90.633" y1="1528.930" x2="90.633" y2="1525.229"/>
      <line x1="61.633" y1="1528.930" x2="61.633" y2="1525.229"/>
      <line x1="64.633" y1="1528.930" x2="64.633" y2="1525.229"/>
      <line x1="63.633" y1="1528.930" x2="63.633" y2="1525.229"/>
      <line x1="67.633" y1="1528.930" x2="67.633" y2="1525.229"/>
      <line x1="66.633" y1="1528.930" x2="66.633" y2="1525.229"/>
      <line x1="70.633" y1="1528.930" x2="70.633" y2="1525.229"/>
      <line x1="69.633" y1="1528.930" x2="69.633" y2="1525.229"/>
      <line x1="73.633" y1="1528.930" x2="73.633" y2="1525.229"/>
      <line x1="76.633" y1="1528.930" x2="76.633" y2="1525.229"/>
      <line x1="89.633" y1="1528.930" x2="89.633" y2="1525.229"/>
      <line x1="86.633" y1="1528.930" x2="86.633" y2="1525.229"/>
      <line x1="87.633" y1="1528.930" x2="87.633" y2="1525.229"/>
      <line x1="83.633" y1="1528.930" x2="83.633" y2="1525.229"/>
      <line x1="81.633" y1="1528.930" x2="81.633" y2="1525.229"/>
      <line x1="72.633" y1="1528.930" x2="72.633" y2="1525.229"/>
      <line x1="75.633" y1="1528.930" x2="75.633" y2="1525.229"/>
      <line x1="84.633" y1="1528.930" x2="84.633" y2="1525.229"/>
      <line x1="78.633" y1="1528.930" x2="78.633" y2="1525.229"/>
      <line x1="68.633" y1="1528.930" x2="68.633" y2="1525.229"/>
      <line x1="55.633" y1="1528.930" x2="55.633" y2="1525.229"/>
      <line x1="56.633" y1="1528.930" x2="56.633" y2="1525.229"/>
      <line x1="57.633" y1="1528.930" x2="57.633" y2="1525.229"/>
      <line x1="58.633" y1="1528.930" x2="58.633" y2="1525.229"/>
      <line x1="59.633" y1="1528.930" x2="59.633" y2="1525.229"/>
      <line x1="60.633" y1="1528.930" x2="60.633" y2="1525.229"/>
      <line x1="62.633" y1="1528.930" x2="62.633" y2="1525.229"/>
      <line x1="65.633" y1="1528.930" x2="65.633" y2="1525.229"/>
      <line x1="54.633" y1="1528.930" x2="54.633" y2="1525.229"/>
      <line x1="71.633" y1="1528.930" x2="71.633" y2="1525.229"/>
      <line x1="74.633" y1="1528.930" x2="74.633" y2="1525.229"/>
      <line x1="77.633" y1="1528.930" x2="77.633" y2="1525.229"/>
      <line x1="80.633" y1="1528.930" x2="80.633" y2="1525.229"/>
      <line x1="79.633" y1="1528.930" x2="79.633" y2="1525.229"/>
      <line x1="82.633" y1="1528.930" x2="82.633" y2="1525.229"/>
      <line x1="85.633" y1="1528.930" x2="85.633" y2="1525.229"/>
      <line x1="88.633" y1="1528.930" x2="88.633" y2="1525.229"/>
      <line x1="53.633" y1="1528.930" x2="53.633" y2="1525.229"/>
    </g>
    <g stroke="#1976D2" stroke-width="0.4">
      <polyline points="507.429,1682.729 600.500,1682.729 600.500,1521.729 507.429,1521.729" fill="none"/>
      <polyline points="507.429,1521.729 505.572,1521.729 505.572,1682.729 507.429,1682.729" fill="none"/>
      <polyline points="507.429,1681.730 599.500,1681.730 599.500,1522.729 507.429,1522.729" fill="none"/>
      <polyline points="507.429,1522.729 506.572,1522.729 506.572,1681.730 507.429,1681.730" fill="none"/>
      <polyline points="598.500,1523.729 507.572,1523.729 507.572,1680.730 598.500,1680.730 598.500,1523.729" fill="none"/>
      <polyline points="597.500,1524.729 508.572,1524.729 508.572,1679.729 597.500,1679.729 597.500,1524.729" fill="none"/>
      <polyline points="92.571,1521.729 -0.500,1521.729 -0.500,1682.729 92.571,1682.729" fill="none"/>
      <polyline points="92.571,1682.729 94.428,1682.729 94.428,1521.729 92.571,1521.729" fill="none"/>
      <polyline points="92.571,1522.729 0.500,1522.729 0.500,1681.730 92.571,1681.730" fill="none"/>
      <polyline points="92.571,1681.730 93.428,1681.730 93.428,1522.729 92.571,1522.729" fill="none"/>
      <polyline points="92.428,1523.729 1.500,1523.729 1.500,1680.730 92.428,1680.730 92.428,1523.729" fill="none"/>
      <polyline points="91.428,1524.729 2.500,1524.729 2.500,1679.729 91.428,1679.729 91.428,1524.729" fill="none"/>
    </g>
    <g stroke="#C62828" stroke-width="0.4" fill="none">
      <polygon points="293.697,1535.282 295.372,1534.547 296.717,1533.308 297.588,1531.700 297.889,1529.896 297.588,1528.092 296.717,1526.484 295.372,1525.245 293.697,1524.511 291.875,1524.360 290.102,1524.809 288.571,1525.809 287.447,1527.252 286.854,1528.982 286.854,1530.811 287.447,1532.540 288.571,1533.984 290.102,1534.984 291.875,1535.433"/>
      <polygon points="315.071,1534.638 316.528,1533.416 317.479,1531.769 317.809,1529.896 317.479,1528.023 316.528,1526.376 315.071,1525.154 313.284,1524.504 311.383,1524.504 309.596,1525.154 308.139,1526.376 307.188,1528.023 306.858,1529.896 307.188,1531.769 308.139,1533.416 309.596,1534.638 311.383,1535.289 313.284,1535.289"/>
      <polygon points="274.989,1534.495 276.401,1533.310 277.323,1531.712 277.644,1529.896 277.323,1528.080 276.401,1526.483 274.989,1525.297 273.255,1524.667 271.411,1524.667 269.678,1525.297 268.265,1526.483 267.343,1528.080 267.023,1529.896 267.343,1531.712 268.265,1533.310 269.678,1534.495 271.411,1535.126 273.255,1535.126"/>
      <polygon points="334.946,1534.421 336.336,1533.255 337.243,1531.683 337.558,1529.896 337.243,1528.109 336.336,1526.538 334.946,1525.371 333.241,1524.751 331.426,1524.751 329.721,1525.371 328.331,1526.538 327.424,1528.109 327.109,1529.896 327.424,1531.683 328.331,1533.255 329.721,1534.421 331.426,1535.042 333.241,1535.042"/>
      <polygon points="354.857,1534.268 356.200,1533.141 357.077,1531.623 357.381,1529.896 357.077,1528.170 356.200,1526.652 354.857,1525.525 353.210,1524.925 351.457,1524.925 349.810,1525.525 348.467,1526.652 347.590,1528.170 347.286,1529.896 347.590,1531.623 348.467,1533.141 349.810,1534.268 351.457,1534.867 353.210,1534.867"/>
      <polygon points="254.857,1534.268 256.200,1533.141 257.077,1531.623 257.381,1529.896 257.077,1528.170 256.200,1526.652 254.857,1525.525 253.210,1524.925 251.457,1524.925 249.810,1525.525 248.467,1526.652 247.590,1528.170 247.286,1529.896 247.590,1531.623 248.467,1533.141 249.810,1534.268 251.457,1534.867 253.210,1534.867"/>
      <polygon points="234.500,1534.248 235.926,1533.172 236.867,1531.652 237.195,1529.896 236.867,1528.140 235.926,1526.621 234.500,1525.544 232.782,1525.055 231.003,1525.220 229.403,1526.016 228.200,1527.337 227.554,1529.003 227.554,1530.790 228.200,1532.456 229.403,1533.776 231.003,1534.572 232.782,1534.737"/>
      <polygon points="374.457,1534.162 375.855,1533.107 376.777,1531.618 377.099,1529.896 376.777,1528.175 375.855,1526.686 374.457,1525.630 372.773,1525.151 371.029,1525.313 369.462,1526.093 368.282,1527.388 367.649,1529.021 367.649,1530.772 368.282,1532.405 369.462,1533.699 371.029,1534.480 372.773,1534.641"/>
      <polygon points="214.368,1533.983 215.707,1532.972 216.590,1531.545 216.899,1529.896 216.590,1528.247 215.707,1526.820 214.368,1525.809 212.755,1525.350 211.084,1525.505 209.582,1526.253 208.452,1527.493 207.846,1529.057 207.846,1530.735 208.452,1532.300 209.582,1533.539 211.084,1534.287 212.755,1534.442"/>
      <polygon points="394.041,1534.018 395.488,1533.051 396.455,1531.604 396.795,1529.896 396.455,1528.189 395.488,1526.741 394.041,1525.774 392.333,1525.435 390.626,1525.774 389.179,1526.741 388.211,1528.189 387.872,1529.896 388.211,1531.604 389.179,1533.051 390.626,1534.018 392.333,1534.358"/>
      <polygon points="413.958,1533.819 415.335,1532.898 416.256,1531.521 416.579,1529.896 416.256,1528.271 415.335,1526.894 413.958,1525.974 412.333,1525.651 410.709,1525.974 409.331,1526.894 408.411,1528.271 408.088,1529.896 408.411,1531.521 409.331,1532.898 410.709,1533.819 412.333,1534.142"/>
      <polygon points="193.958,1533.819 195.335,1532.898 196.256,1531.521 196.579,1529.896 196.256,1528.271 195.335,1526.894 193.958,1525.974 192.333,1525.651 190.709,1525.974 189.331,1526.894 188.411,1528.271 188.088,1529.896 188.411,1531.521 189.331,1532.898 190.709,1533.819 192.333,1534.142"/>
      <polygon points="173.871,1533.608 175.175,1532.737 176.045,1531.434 176.351,1529.896 176.045,1528.359 175.175,1527.055 173.871,1526.184 172.333,1525.878 170.796,1526.184 169.492,1527.055 168.621,1528.359 168.315,1529.896 168.621,1531.434 169.492,1532.737 170.796,1533.608 172.333,1533.914"/>
      <polygon points="433.538,1533.605 434.943,1532.794 435.896,1531.482 436.233,1529.896 435.896,1528.310 434.943,1526.998 433.538,1526.187 431.926,1526.018 430.384,1526.519 429.179,1527.604 428.519,1529.085 428.519,1530.707 429.179,1532.188 430.384,1533.273 431.926,1533.774"/>
      <polygon points="154.448,1532.548 155.389,1531.368 155.725,1529.896 155.389,1528.425 154.448,1527.245 153.088,1526.590 151.579,1526.590 150.219,1527.245 149.278,1528.425 148.942,1529.896 149.278,1531.368 150.219,1532.548 151.579,1533.202 153.088,1533.202"/>
      <polygon points="454.275,1532.331 455.139,1531.247 455.448,1529.896 455.139,1528.545 454.275,1527.461 453.026,1526.860 451.640,1526.860 450.392,1527.461 449.527,1528.545 449.219,1529.896 449.527,1531.247 450.392,1532.331 451.640,1532.933 453.026,1532.933"/>
      <polygon points="133.505,1531.926 134.363,1531.068 134.677,1529.896 134.363,1528.724 133.505,1527.866 132.333,1527.552 131.161,1527.866 130.303,1528.724 129.989,1529.896 130.303,1531.068 131.161,1531.926 132.333,1532.240"/>
      <polygon points="473.164,1531.715 474.016,1530.977 474.333,1529.896 474.016,1528.815 473.164,1528.077 472.049,1527.917 471.024,1528.385 470.414,1529.333 470.414,1530.460 471.024,1531.408 472.049,1531.876"/>
      <polygon points="114.065,1530.896 114.333,1529.896 114.065,1528.896 113.928,1528.759 113.928,1531.034"/>
      <polygon points="293.697,1555.282 295.372,1554.547 296.717,1553.308 297.588,1551.700 297.889,1549.896 297.588,1548.092 296.717,1546.484 295.372,1545.245 293.697,1544.511 291.875,1544.360 290.102,1544.809 288.571,1545.809 287.447,1547.252 286.854,1548.982 286.854,1550.811 287.447,1552.540 288.571,1553.984 290.102,1554.984 291.875,1555.433"/>
      <polygon points="315.071,1554.638 316.528,1553.416 317.479,1551.769 317.809,1549.896 317.479,1548.023 316.528,1546.376 315.071,1545.154 313.284,1544.504 311.383,1544.504 309.596,1545.154 308.139,1546.376 307.188,1548.023 306.858,1549.896 307.188,1551.769 308.139,1553.416 309.596,1554.638 311.383,1555.289 313.284,1555.289"/>
      <polygon points="274.989,1554.495 276.401,1553.310 277.323,1551.712 277.644,1549.896 277.323,1548.080 276.401,1546.483 274.989,1545.297 273.255,1544.667 271.411,1544.667 269.678,1545.297 268.265,1546.483 267.343,1548.080 267.023,1549.896 267.343,1551.712 268.265,1553.310 269.678,1554.495 271.411,1555.126 273.255,1555.126"/>
      <polygon points="334.946,1554.421 336.336,1553.255 337.243,1551.683 337.558,1549.896 337.243,1548.109 336.336,1546.538 334.946,1545.371 333.241,1544.751 331.426,1544.751 329.721,1545.371 328.331,1546.538 327.424,1548.109 327.109,1549.896 327.424,1551.683 328.331,1553.255 329.721,1554.421 331.426,1555.042 333.241,1555.042"/>
      <polygon points="354.857,1554.268 356.200,1553.141 357.077,1551.623 357.381,1549.896 357.077,1548.170 356.200,1546.652 354.857,1545.525 353.210,1544.925 351.457,1544.925 349.810,1545.525 348.467,1546.652 347.590,1548.170 347.286,1549.896 347.590,1551.623 348.467,1553.141 349.810,1554.268 351.457,1554.867 353.210,1554.867"/>
      <polygon points="254.857,1554.268 256.200,1553.141 257.077,1551.623 257.381,1549.896 257.077,1548.170 256.200,1546.652 254.857,1545.525 253.210,1544.925 251.457,1544.925 249.810,1545.525 248.467,1546.652 247.590,1548.170 247.286,1549.896 247.590,1551.623 248.467,1553.141 249.810,1554.268 251.457,1554.867 253.210,1554.867"/>
      <polygon points="234.500,1554.248 235.926,1553.172 236.867,1551.652 237.195,1549.896 236.867,1548.140 235.926,1546.621 234.500,1545.544 232.782,1545.055 231.003,1545.220 229.403,1546.016 228.200,1547.337 227.554,1549.003 227.554,1550.790 228.200,1552.456 229.403,1553.776 231.003,1554.572 232.782,1554.737"/>
      <polygon points="374.457,1554.162 375.855,1553.107 376.777,1551.618 377.099,1549.896 376.777,1548.175 375.855,1546.686 374.457,1545.630 372.773,1545.151 371.029,1545.313 369.462,1546.093 368.282,1547.388 367.649,1549.021 367.649,1550.772 368.282,1552.405 369.462,1553.699 371.029,1554.480 372.773,1554.641"/>
      <polygon points="214.368,1553.983 215.707,1552.972 216.590,1551.545 216.899,1549.896 216.590,1548.247 215.707,1546.820 214.368,1545.809 212.755,1545.350 211.084,1545.505 209.582,1546.253 208.452,1547.493 207.846,1549.057 207.846,1550.735 208.452,1552.300 209.582,1553.539 211.084,1554.287 212.755,1554.442"/>
      <polygon points="394.041,1554.018 395.488,1553.051 396.455,1551.604 396.795,1549.896 396.455,1548.189 395.488,1546.741 394.041,1545.774 392.333,1545.435 390.626,1545.774 389.179,1546.741 388.211,1548.189 387.872,1549.896 388.211,1551.604 389.179,1553.051 390.626,1554.018 392.333,1554.358"/>
      <polygon points="413.958,1553.819 415.335,1552.898 416.256,1551.521 416.579,1549.896 416.256,1548.271 415.335,1546.894 413.958,1545.974 412.333,1545.651 410.709,1545.974 409.331,1546.894 408.411,1548.271 408.088,1549.896 408.411,1551.521 409.331,1552.898 410.709,1553.819 412.333,1554.142"/>
      <polygon points="193.958,1553.819 195.335,1552.898 196.256,1551.521 196.579,1549.896 196.256,1548.271 195.335,1546.894 193.958,1545.974 192.333,1545.651 190.709,1545.974 189.331,1546.894 188.411,1548.271 188.088,1549.896 188.411,1551.521 189.331,1552.898 190.709,1553.819 192.333,1554.142"/>
      <polygon points="173.871,1553.608 175.175,1552.737 176.045,1551.434 176.351,1549.896 176.045,1548.359 175.175,1547.055 173.871,1546.184 172.333,1545.878 170.796,1546.184 169.492,1547.055 168.621,1548.359 168.315,1549.896 168.621,1551.434 169.492,1552.737 170.796,1553.608 172.333,1553.914"/>
      <polygon points="433.538,1553.605 434.943,1552.794 435.896,1551.482 436.233,1549.896 435.896,1548.310 434.943,1546.998 433.538,1546.187 431.926,1546.018 430.384,1546.519 429.179,1547.604 428.519,1549.085 428.519,1550.707 429.179,1552.188 430.384,1553.273 431.926,1553.774"/>
      <polygon points="154.448,1552.548 155.389,1551.368 155.725,1549.896 155.389,1548.425 154.448,1547.245 153.088,1546.590 151.579,1546.590 150.219,1547.245 149.278,1548.425 148.942,1549.896 149.278,1551.368 150.219,1552.548 151.579,1553.202 153.088,1553.202"/>
      <polygon points="454.275,1552.331 455.139,1551.247 455.448,1549.896 455.139,1548.545 454.275,1547.461 453.026,1546.860 451.640,1546.860 450.392,1547.461 449.527,1548.545 449.219,1549.896 449.527,1551.247 450.392,1552.331 451.640,1552.933 453.026,1552.933"/>
      <polygon points="133.505,1551.926 134.363,1551.068 134.677,1549.896 134.363,1548.724 133.505,1547.866 132.333,1547.552 131.161,1547.866 130.303,1548.724 129.989,1549.896 130.303,1551.068 131.161,1551.926 132.333,1552.240"/>
      <polygon points="473.164,1551.715 474.016,1550.977 474.333,1549.896 474.016,1548.815 473.164,1548.077 472.049,1547.917 471.024,1548.385 470.414,1549.333 470.414,1550.460 471.024,1551.408 472.049,1551.876"/>
      <polygon points="114.065,1550.896 114.333,1549.896 114.065,1548.896 113.928,1548.759 113.928,1551.034"/>
      <polygon points="293.697,1575.282 295.372,1574.547 296.717,1573.308 297.588,1571.700 297.889,1569.896 297.588,1568.092 296.717,1566.484 295.372,1565.245 293.697,1564.511 291.875,1564.360 290.102,1564.809 288.571,1565.809 287.447,1567.252 286.854,1568.982 286.854,1570.811 287.447,1572.540 288.571,1573.984 290.102,1574.984 291.875,1575.433"/>
      <polygon points="315.071,1574.638 316.528,1573.416 317.479,1571.769 317.809,1569.896 317.479,1568.023 316.528,1566.376 315.071,1565.154 313.284,1564.504 311.383,1564.504 309.596,1565.154 308.139,1566.376 307.188,1568.023 306.858,1569.896 307.188,1571.769 308.139,1573.416 309.596,1574.638 311.383,1575.289 313.284,1575.289"/>
      <polygon points="274.989,1574.495 276.401,1573.310 277.323,1571.712 277.644,1569.896 277.323,1568.080 276.401,1566.483 274.989,1565.297 273.255,1564.667 271.411,1564.667 269.678,1565.297 268.265,1566.483 267.343,1568.080 267.023,1569.896 267.343,1571.712 268.265,1573.310 269.678,1574.495 271.411,1575.126 273.255,1575.126"/>
      <polygon points="334.946,1574.421 336.336,1573.255 337.243,1571.683 337.558,1569.896 337.243,1568.109 336.336,1566.538 334.946,1565.371 333.241,1564.751 331.426,1564.751 329.721,1565.371 328.331,1566.538 327.424,1568.109 327.109,1569.896 327.424,1571.683 328.331,1573.255 329.721,1574.421 331.426,1575.042 333.241,1575.042"/>
      <polygon points="254.857,1574.268 256.200,1573.141 257.077,1571.623 257.381,1569.896 257.077,1568.170 256.200,1566.652 254.857,1565.525 253.210,1564.925 251.457,1564.925 249.810,1565.525 248.467,1566.652 247.590,1568.170 247.286,1569.896 247.590,1571.623 248.467,1573.141 249.810,1574.268 251.457,1574.867 253.210,1574.867"/>
      <polygon points="354.857,1574.268 356.200,1573.141 357.077,1571.623 357.381,1569.896 357.077,1568.170 356.200,1566.652 354.857,1565.525 353.210,1564.925 351.457,1564.925 349.810,1565.525 348.467,1566.652 347.590,1568.170 347.286,1569.896 347.590,1571.623 348.467,1573.141 349.810,1574.268 351.457,1574.867 353.210,1574.867"/>
      <polygon points="234.500,1574.248 235.926,1573.172 236.867,1571.652 237.195,1569.896 236.867,1568.140 235.926,1566.621 234.500,1565.544 232.782,1565.055 231.003,1565.220 229.403,1566.016 228.200,1567.337 227.554,1569.003 227.554,1570.790 228.200,1572.456 229.403,1573.776 231.003,1574.572 232.782,1574.737"/>
      <polygon points="374.457,1574.162 375.855,1573.107 376.777,1571.618 377.099,1569.896 376.777,1568.175 375.855,1566.686 374.457,1565.630 372.773,1565.151 371.029,1565.313 369.462,1566.093 368.282,1567.388 367.649,1569.021 367.649,1570.772 368.282,1572.405 369.462,1573.699 371.029,1574.480 372.773,1574.641"/>
      <polygon points="214.368,1573.983 215.707,1572.972 216.590,1571.545 216.899,1569.896 216.590,1568.247 215.707,1566.820 214.368,1565.809 212.755,1565.350 211.084,1565.505 209.582,1566.253 208.452,1567.493 207.846,1569.057 207.846,1570.735 208.452,1572.300 209.582,1573.539 211.084,1574.287 212.755,1574.442"/>
      <polygon points="394.041,1574.018 395.488,1573.051 396.455,1571.604 396.795,1569.896 396.455,1568.189 395.488,1566.741 394.041,1565.774 392.333,1565.435 390.626,1565.774 389.179,1566.741 388.211,1568.189 387.872,1569.896 388.211,1571.604 389.179,1573.051 390.626,1574.018 392.333,1574.358"/>
      <polygon points="193.958,1573.819 195.335,1572.898 196.256,1571.521 196.579,1569.896 196.256,1568.271 195.335,1566.894 193.958,1565.974 192.333,1565.651 190.709,1565.974 189.331,1566.894 188.411,1568.271 188.088,1569.896 188.411,1571.521 189.331,1572.898 190.709,1573.819 192.333,1574.142"/>
      <polygon points="413.958,1573.819 415.335,1572.898 416.256,1571.521 416.579,1569.896 416.256,1568.271 415.335,1566.894 413.958,1565.974 412.333,1565.651 410.709,1565.974 409.331,1566.894 408.411,1568.271 408.088,1569.896 408.411,1571.521 409.331,1572.898 410.709,1573.819 412.333,1574.142"/>
      <polygon points="173.871,1573.608 175.175,1572.737 176.045,1571.434 176.351,1569.896 176.045,1568.359 175.175,1567.055 173.871,1566.184 172.333,1565.878 170.796,1566.184 169.492,1567.055 168.621,1568.359 168.315,1569.896 168.621,1571.434 169.492,1572.737 170.796,1573.608 172.333,1573.914"/>
      <polygon points="433.538,1573.605 434.943,1572.794 435.896,1571.482 436.233,1569.896 435.896,1568.310 434.943,1566.998 433.538,1566.187 431.926,1566.018 430.384,1566.519 429.179,1567.604 428.519,1569.085 428.519,1570.707 429.179,1572.188 430.384,1573.273 431.926,1573.774"/>
      <polygon points="154.448,1572.548 155.389,1571.368 155.725,1569.896 155.389,1568.425 154.448,1567.245 153.088,1566.590 151.579,1566.590 150.219,1567.245 149.278,1568.425 148.942,1569.896 149.278,1571.368 150.219,1572.548 151.579,1573.202 153.088,1573.202"/>
      <polygon points="454.275,1572.331 455.139,1571.247 455.448,1569.896 455.139,1568.545 454.275,1567.461 453.026,1566.860 451.640,1566.860 450.392,1567.461 449.527,1568.545 449.219,1569.896 449.527,1571.247 450.392,1572.331 451.640,1572.933 453.026,1572.933"/>
      <polygon points="133.505,1571.926 134.363,1571.068 134.677,1569.896 134.363,1568.724 133.505,1567.866 132.333,1567.552 131.161,1567.866 130.303,1568.724 129.989,1569.896 130.303,1571.068 131.161,1571.926 132.333,1572.240"/>
      <polygon points="473.164,1571.715 474.016,1570.977 474.333,1569.896 474.016,1568.815 473.164,1568.077 472.049,1567.917 471.024,1568.385 470.414,1569.333 470.414,1570.460 471.024,1571.408 472.049,1571.876"/>
      <polygon points="114.065,1570.896 114.333,1569.896 114.065,1568.896 113.928,1568.759 113.928,1571.034"/>
      <polygon points="293.697,1595.282 295.372,1594.547 296.717,1593.308 297.588,1591.700 297.889,1589.896 297.588,1588.092 296.717,1586.484 295.372,1585.245 293.697,1584.511 291.875,1584.360 290.102,1584.809 288.571,1585.809 287.447,1587.252 286.854,1588.982 286.854,1590.811 287.447,1592.540 288.571,1593.984 290.102,1594.984 291.875,1595.433"/>
      <polygon points="315.071,1594.638 316.528,1593.416 317.479,1591.769 317.809,1589.896 317.479,1588.023 316.528,1586.376 315.071,1585.154 313.284,1584.504 311.383,1584.504 309.596,1585.154 308.139,1586.376 307.188,1588.023 306.858,1589.896 307.188,1591.769 308.139,1593.416 309.596,1594.638 311.383,1595.289 313.284,1595.289"/>
      <polygon points="274.989,1594.495 276.401,1593.310 277.323,1591.712 277.644,1589.896 277.323,1588.080 276.401,1586.483 274.989,1585.297 273.255,1584.667 271.411,1584.667 269.678,1585.297 268.265,1586.483 267.343,1588.080 267.023,1589.896 267.343,1591.712 268.265,1593.310 269.678,1594.495 271.411,1595.126 273.255,1595.126"/>
      <polygon points="334.946,1594.421 336.336,1593.255 337.243,1591.683 337.558,1589.896 337.243,1588.109 336.336,1586.538 334.946,1585.371 333.241,1584.751 331.426,1584.751 329.721,1585.371 328.331,1586.538 327.424,1588.109 327.109,1589.896 327.424,1591.683 328.331,1593.255 329.721,1594.421 331.426,1595.042 333.241,1595.042"/>
      <polygon points="354.857,1594.268 356.200,1593.141 357.077,1591.623 357.381,1589.896 357.077,1588.170 356.200,1586.652 354.857,1585.525 353.210,1584.925 351.457,1584.925 349.810,1585.525 348.467,1586.652 347.590,1588.170 347.286,1589.896 347.590,1591.623 348.467,1593.141 349.810,1594.268 351.457,1594.867 353.210,1594.867"/>
      <polygon points="254.857,1594.268 256.200,1593.141 257.077,1591.623 257.381,1589.896 257.077,1588.170 256.200,1586.652 254.857,1585.525 253.210,1584.925 251.457,1584.925 249.810,1585.525 248.467,1586.652 247.590,1588.170 247.286,1589.896 247.590,1591.623 248.467,1593.141 249.810,1594.268 251.457,1594.867 253.210,1594.867"/>
      <polygon points="234.500,1594.248 235.926,1593.172 236.867,1591.652 237.195,1589.896 236.867,1588.140 235.926,1586.621 234.500,1585.544 232.782,1585.055 231.003,1585.220 229.403,1586.016 228.200,1587.337 227.554,1589.003 227.554,1590.790 228.200,1592.456 229.403,1593.776 231.003,1594.572 232.782,1594.737"/>
      <polygon points="374.457,1594.162 375.855,1593.107 376.777,1591.618 377.099,1589.896 376.777,1588.175 375.855,1586.686 374.457,1585.630 372.773,1585.151 371.029,1585.313 369.462,1586.093 368.282,1587.388 367.649,1589.021 367.649,1590.772 368.282,1592.405 369.462,1593.699 371.029,1594.480 372.773,1594.641"/>
      <polygon points="214.368,1593.983 215.707,1592.972 216.590,1591.545 216.899,1589.896 216.590,1588.247 215.707,1586.820 214.368,1585.809 212.755,1585.350 211.084,1585.505 209.582,1586.253 208.452,1587.493 207.846,1589.057 207.846,1590.735 208.452,1592.300 209.582,1593.539 211.084,1594.287 212.755,1594.442"/>
      <polygon points="394.041,1594.018 395.488,1593.051 396.455,1591.604 396.795,1589.896 396.455,1588.189 395.488,1586.741 394.041,1585.774 392.333,1585.435 390.626,1585.774 389.179,1586.741 388.211,1588.189 387.872,1589.896 388.211,1591.604 389.179,1593.051 390.626,1594.018 392.333,1594.358"/>
      <polygon points="193.958,1593.819 195.335,1592.898 196.256,1591.521 196.579,1589.896 196.256,1588.271 195.335,1586.894 193.958,1585.974 192.333,1585.651 190.709,1585.974 189.331,1586.894 188.411,1588.271 188.088,1589.896 188.411,1591.521 189.331,1592.898 190.709,1593.819 192.333,1594.142"/>
      <polygon points="413.958,1593.819 415.335,1592.898 416.256,1591.521 416.579,1589.896 416.256,1588.271 415.335,1586.894 413.958,1585.974 412.333,1585.651 410.709,1585.974 409.331,1586.894 408.411,1588.271 408.088,1589.896 408.411,1591.521 409.331,1592.898 410.709,1593.819 412.333,1594.142"/>
      <polygon points="173.871,1593.608 175.175,1592.737 176.045,1591.434 176.351,1589.896 176.045,1588.359 175.175,1587.055 173.871,1586.184 172.333,1585.878 170.796,1586.184 169.492,1587.055 168.621,1588.359 168.315,1589.896 168.621,1591.434 169.492,1592.737 170.796,1593.608 172.333,1593.914"/>
      <polygon points="433.538,1593.605 434.943,1592.794 435.896,1591.482 436.233,1589.896 435.896,1588.310 434.943,1586.998 433.538,1586.187 431.926,1586.018 430.384,1586.519 429.179,1587.604 428.519,1589.085 428.519,1590.707 429.179,1592.188 430.384,1593.273 431.926,1593.774"/>
      <polygon points="154.448,1592.548 155.389,1591.368 155.725,1589.896 155.389,1588.425 154.448,1587.245 153.088,1586.590 151.579,1586.590 150.219,1587.245 149.278,1588.425 148.942,1589.896 149.278,1591.368 150.219,1592.548 151.579,1593.202 153.088,1593.202"/>
      <polygon points="454.275,1592.331 455.139,1591.247 455.448,1589.896 455.139,1588.545 454.275,1587.461 453.026,1586.860 451.640,1586.860 450.392,1587.461 449.527,1588.545 449.219,1589.896 449.527,1591.247 450.392,1592.331 451.640,1592.933 453.026,1592.933"/>
      <polygon points="133.505,1591.926 134.363,1591.068 134.677,1589.896 134.363,1588.724 133.505,1587.866 132.333,1587.552 131.161,1587.866 130.303,1588.724 129.989,1589.896 130.303,1591.068 131.161,1591.926 132.333,1592.240"/>
      <polygon points="473.164,1591.715 474.016,1590.977 474.333,1589.896 474.016,1588.815 473.164,1588.077 472.049,1587.917 471.024,1588.385 470.414,1589.333 470.414,1590.460 471.024,1591.408 472.049,1591.876"/>
      <polygon points="114.065,1590.896 114.333,1589.896 114.065,1588.896 113.928,1588.759 113.928,1591.034"/>
      <polygon points="293.697,1615.282 295.372,1614.547 296.717,1613.308 297.588,1611.700 297.889,1609.896 297.588,1608.092 296.717,1606.484 295.372,1605.245 293.697,1604.511 291.875,1604.360 290.102,1604.809 288.571,1605.809 287.447,1607.252 286.854,1608.982 286.854,1610.811 287.447,1612.540 288.571,1613.984 290.102,1614.984 291.875,1615.433"/>
      <polygon points="315.071,1614.638 316.528,1613.416 317.479,1611.769 317.809,1609.896 317.479,1608.023 316.528,1606.376 315.071,1605.154 313.284,1604.504 311.383,1604.504 309.596,1605.154 308.139,1606.376 307.188,1608.023 306.858,1609.896 307.188,1611.769 308.139,1613.416 309.596,1614.638 311.383,1615.289 313.284,1615.289"/>
      <polygon points="274.989,1614.495 276.401,1613.310 277.323,1611.712 277.644,1609.896 277.323,1608.080 276.401,1606.483 274.989,1605.297 273.255,1604.667 271.411,1604.667 269.678,1605.297 268.265,1606.483 267.343,1608.080 267.023,1609.896 267.343,1611.712 268.265,1613.310 269.678,1614.495 271.411,1615.126 273.255,1615.126"/>
      <polygon points="334.946,1614.421 336.336,1613.255 337.243,1611.683 337.558,1609.896 337.243,1608.109 336.336,1606.538 334.946,1605.371 333.241,1604.751 331.426,1604.751 329.721,1605.371 328.331,1606.538 327.424,1608.109 327.109,1609.896 327.424,1611.683 328.331,1613.255 329.721,1614.421 331.426,1615.042 333.241,1615.042"/>
      <polygon points="354.857,1614.268 356.200,1613.141 357.077,1611.623 357.381,1609.896 357.077,1608.170 356.200,1606.652 354.857,1605.525 353.210,1604.925 351.457,1604.925 349.810,1605.525 348.467,1606.652 347.590,1608.170 347.286,1609.896 347.590,1611.623 348.467,1613.141 349.810,1614.268 351.457,1614.867 353.210,1614.867"/>
      <polygon points="254.857,1614.268 256.200,1613.141 257.077,1611.623 257.381,1609.896 257.077,1608.170 256.200,1606.652 254.857,1605.525 253.210,1604.925 251.457,1604.925 249.810,1605.525 248.467,1606.652 247.590,1608.170 247.286,1609.896 247.590,1611.623 248.467,1613.141 249.810,1614.268 251.457,1614.867 253.210,1614.867"/>
      <polygon points="234.500,1614.248 235.926,1613.172 236.867,1611.652 237.195,1609.896 236.867,1608.140 235.926,1606.621 234.500,1605.544 232.782,1605.055 231.003,1605.220 229.403,1606.016 228.200,1607.337 227.554,1609.003 227.554,1610.790 228.200,1612.456 229.403,1613.776 231.003,1614.572 232.782,1614.737"/>
      <polygon points="374.457,1614.162 375.855,1613.107 376.777,1611.618 377.099,1609.896 376.777,1608.175 375.855,1606.686 374.457,1605.630 372.773,1605.151 371.029,1605.313 369.462,1606.093 368.282,1607.388 367.649,1609.021 367.649,1610.772 368.282,1612.405 369.462,1613.699 371.029,1614.480 372.773,1614.641"/>
      <polygon points="214.368,1613.983 215.707,1612.972 216.590,1611.545 216.899,1609.896 216.590,1608.247 215.707,1606.820 214.368,1605.809 212.755,1605.350 211.084,1605.505 209.582,1606.253 208.452,1607.493 207.846,1609.057 207.846,1610.735 208.452,1612.300 209.582,1613.539 211.084,1614.287 212.755,1614.442"/>
      <polygon points="394.041,1614.018 395.488,1613.051 396.455,1611.604 396.795,1609.896 396.455,1608.189 395.488,1606.741 394.041,1605.774 392.333,1605.435 390.626,1605.774 389.179,1606.741 388.211,1608.189 387.872,1609.896 388.211,1611.604 389.179,1613.051 390.626,1614.018 392.333,1614.358"/>
      <polygon points="413.958,1613.819 415.335,1612.898 416.256,1611.521 416.579,1609.896 416.256,1608.271 415.335,1606.894 413.958,1605.974 412.333,1605.651 410.709,1605.974 409.331,1606.894 408.411,1608.271 408.088,1609.896 408.411,1611.521 409.331,1612.898 410.709,1613.819 412.333,1614.142"/>
      <polygon points="193.958,1613.819 195.335,1612.898 196.256,1611.521 196.579,1609.896 196.256,1608.271 195.335,1606.894 193.958,1605.974 192.333,1605.651 190.709,1605.974 189.331,1606.894 188.411,1608.271 188.088,1609.896 188.411,1611.521 189.331,1612.898 190.709,1613.819 192.333,1614.142"/>
      <polygon points="173.871,1613.608 175.175,1612.737 176.045,1611.434 176.351,1609.896 176.045,1608.359 175.175,1607.055 173.871,1606.184 172.333,1605.878 170.796,1606.184 169.492,1607.055 168.621,1608.359 168.315,1609.896 168.621,1611.434 169.492,1612.737 170.796,1613.608 172.333,1613.914"/>
      <polygon points="433.538,1613.605 434.943,1612.794 435.896,1611.482 436.233,1609.896 435.896,1608.310 434.943,1606.998 433.538,1606.187 431.926,1606.018 430.384,1606.519 429.179,1607.604 428.519,1609.085 428.519,1610.707 429.179,1612.188 430.384,1613.273 431.926,1613.774"/>
      <polygon points="154.448,1612.548 155.389,1611.368 155.725,1609.896 155.389,1608.425 154.448,1607.245 153.088,1606.590 151.579,1606.590 150.219,1607.245 149.278,1608.425 148.942,1609.896 149.278,1611.368 150.219,1612.548 151.579,1613.202 153.088,1613.202"/>
      <polygon points="454.275,1612.331 455.139,1611.247 455.448,1609.896 455.139,1608.545 454.275,1607.461 453.026,1606.860 451.640,1606.860 450.392,1607.461 449.527,1608.545 449.219,1609.896 449.527,1611.247 450.392,1612.331 451.640,1612.933 453.026,1612.933"/>
      <polygon points="133.505,1611.926 134.363,1611.068 134.677,1609.896 134.363,1608.724 133.505,1607.866 132.333,1607.552 131.161,1607.866 130.303,1608.724 129.989,1609.896 130.303,1611.068 131.161,1611.926 132.333,1612.240"/>
      <polygon points="473.164,1611.715 474.016,1610.977 474.333,1609.896 474.016,1608.815 473.164,1608.077 472.049,1607.917 471.024,1608.385 470.414,1609.333 470.414,1610.460 471.024,1611.408 472.049,1611.876"/>
      <polygon points="114.065,1610.896 114.333,1609.896 114.065,1608.896 113.928,1608.759 113.928,1611.034"/>
      <polygon points="293.697,1635.282 295.372,1634.547 296.717,1633.308 297.588,1631.700 297.889,1629.896 297.588,1628.092 296.717,1626.484 295.372,1625.245 293.697,1624.511 291.875,1624.360 290.102,1624.809 288.571,1625.809 287.447,1627.252 286.854,1628.982 286.854,1630.811 287.447,1632.540 288.571,1633.984 290.102,1634.984 291.875,1635.433"/>
      <polygon points="315.071,1634.638 316.528,1633.416 317.479,1631.769 317.809,1629.896 317.479,1628.023 316.528,1626.376 315.071,1625.154 313.284,1624.504 311.383,1624.504 309.596,1625.154 308.139,1626.376 307.188,1628.023 306.858,1629.896 307.188,1631.769 308.139,1633.416 309.596,1634.638 311.383,1635.289 313.284,1635.289"/>
      <polygon points="274.989,1634.495 276.401,1633.310 277.323,1631.712 277.644,1629.896 277.323,1628.080 276.401,1626.483 274.989,1625.297 273.255,1624.667 271.411,1624.667 269.678,1625.297 268.265,1626.483 267.343,1628.080 267.023,1629.896 267.343,1631.712 268.265,1633.310 269.678,1634.495 271.411,1635.126 273.255,1635.126"/>
      <polygon points="334.946,1634.421 336.336,1633.255 337.243,1631.683 337.558,1629.896 337.243,1628.109 336.336,1626.538 334.946,1625.371 333.241,1624.751 331.426,1624.751 329.721,1625.371 328.331,1626.538 327.424,1628.109 327.109,1629.896 327.424,1631.683 328.331,1633.255 329.721,1634.421 331.426,1635.042 333.241,1635.042"/>
      <polygon points="254.857,1634.268 256.200,1633.141 257.077,1631.623 257.381,1629.896 257.077,1628.170 256.200,1626.652 254.857,1625.525 253.210,1624.925 251.457,1624.925 249.810,1625.525 248.467,1626.652 247.590,1628.170 247.286,1629.896 247.590,1631.623 248.467,1633.141 249.810,1634.268 251.457,1634.867 253.210,1634.867"/>
      <polygon points="354.857,1634.268 356.200,1633.141 357.077,1631.623 357.381,1629.896 357.077,1628.170 356.200,1626.652 354.857,1625.525 353.210,1624.925 351.457,1624.925 349.810,1625.525 348.467,1626.652 347.590,1628.170 347.286,1629.896 347.590,1631.623 348.467,1633.141 349.810,1634.268 351.457,1634.867 353.210,1634.867"/>
      <polygon points="234.500,1634.248 235.926,1633.172 236.867,1631.652 237.195,1629.896 236.867,1628.140 235.926,1626.621 234.500,1625.544 232.782,1625.055 231.003,1625.220 229.403,1626.016 228.200,1627.337 227.554,1629.003 227.554,1630.790 228.200,1632.456 229.403,1633.776 231.003,1634.572 232.782,1634.737"/>
      <polygon points="374.457,1634.162 375.855,1633.107 376.777,1631.618 377.099,1629.896 376.777,1628.175 375.855,1626.686 374.457,1625.630 372.773,1625.151 371.029,1625.313 369.462,1626.093 368.282,1627.388 367.649,1629.021 367.649,1630.772 368.282,1632.405 369.462,1633.699 371.029,1634.480 372.773,1634.641"/>
      <polygon points="214.368,1633.983 215.707,1632.972 216.590,1631.545 216.899,1629.896 216.590,1628.247 215.707,1626.820 214.368,1625.809 212.755,1625.350 211.084,1625.505 209.582,1626.253 208.452,1627.493 207.846,1629.057 207.846,1630.735 208.452,1632.300 209.582,1633.539 211.084,1634.287 212.755,1634.442"/>
      <polygon points="394.041,1634.018 395.488,1633.051 396.455,1631.604 396.795,1629.896 396.455,1628.189 395.488,1626.741 394.041,1625.774 392.333,1625.435 390.626,1625.774 389.179,1626.741 388.211,1628.189 387.872,1629.896 388.211,1631.604 389.179,1633.051 390.626,1634.018 392.333,1634.358"/>
      <polygon points="193.958,1633.819 195.335,1632.898 196.256,1631.521 196.579,1629.896 196.256,1628.271 195.335,1626.894 193.958,1625.974 192.333,1625.651 190.709,1625.974 189.331,1626.894 188.411,1628.271 188.088,1629.896 188.411,1631.521 189.331,1632.898 190.709,1633.819 192.333,1634.142"/>
      <polygon points="413.958,1633.819 415.335,1632.898 416.256,1631.521 416.579,1629.896 416.256,1628.271 415.335,1626.894 413.958,1625.974 412.333,1625.651 410.709,1625.974 409.331,1626.894 408.411,1628.271 408.088,1629.896 408.411,1631.521 409.331,1632.898 410.709,1633.819 412.333,1634.142"/>
      <polygon points="173.871,1633.608 175.175,1632.737 176.045,1631.434 176.351,1629.896 176.045,1628.359 175.175,1627.055 173.871,1626.184 172.333,1625.878 170.796,1626.184 169.492,1627.055 168.621,1628.359 168.315,1629.896 168.621,1631.434 169.492,1632.737 170.796,1633.608 172.333,1633.914"/>
      <polygon points="433.538,1633.605 434.943,1632.794 435.896,1631.482 436.233,1629.896 435.896,1628.310 434.943,1626.998 433.538,1626.187 431.926,1626.018 430.384,1626.519 429.179,1627.604 428.519,1629.085 428.519,1630.707 429.179,1632.188 430.384,1633.273 431.926,1633.774"/>
      <polygon points="154.448,1632.548 155.389,1631.368 155.725,1629.896 155.389,1628.425 154.448,1627.245 153.088,1626.590 151.579,1626.590 150.219,1627.245 149.278,1628.425 148.942,1629.896 149.278,1631.368 150.219,1632.548 151.579,1633.202 153.088,1633.202"/>
      <polygon points="454.275,1632.331 455.139,1631.247 455.448,1629.896 455.139,1628.545 454.275,1627.461 453.026,1626.860 451.640,1626.860 450.392,1627.461 449.527,1628.545 449.219,1629.896 449.527,1631.247 450.392,1632.331 451.640,1632.933 453.026,1632.933"/>
      <polygon points="133.505,1631.926 134.363,1631.068 134.677,1629.896 134.363,1628.724 133.505,1627.866 132.333,1627.552 131.161,1627.866 130.303,1628.724 129.989,1629.896 130.303,1631.068 131.161,1631.926 132.333,1632.240"/>
      <polygon points="473.164,1631.715 474.016,1630.977 474.333,1629.896 474.016,1628.815 473.164,1628.077 472.049,1627.917 471.024,1628.385 470.414,1629.333 470.414,1630.460 471.024,1631.408 472.049,1631.876"/>
      <polygon points="114.065,1630.896 114.333,1629.896 114.065,1628.896 113.928,1628.759 113.928,1631.034"/>
      <polygon points="293.697,1655.282 295.372,1654.547 296.717,1653.308 297.588,1651.700 297.889,1649.896 297.588,1648.092 296.717,1646.484 295.372,1645.245 293.697,1644.511 291.875,1644.360 290.102,1644.809 288.571,1645.809 287.447,1647.252 286.854,1648.982 286.854,1650.811 287.447,1652.540 288.571,1653.984 290.102,1654.984 291.875,1655.433"/>
      <polygon points="315.071,1654.638 316.528,1653.416 317.479,1651.769 317.809,1649.896 317.479,1648.023 316.528,1646.376 315.071,1645.154 313.284,1644.504 311.383,1644.504 309.596,1645.154 308.139,1646.376 307.188,1648.023 306.858,1649.896 307.188,1651.769 308.139,1653.416 309.596,1654.638 311.383,1655.289 313.284,1655.289"/>
      <polygon points="274.989,1654.495 276.401,1653.310 277.323,1651.712 277.644,1649.896 277.323,1648.080 276.401,1646.483 274.989,1645.297 273.255,1644.667 271.411,1644.667 269.678,1645.297 268.265,1646.483 267.343,1648.080 267.023,1649.896 267.343,1651.712 268.265,1653.310 269.678,1654.495 271.411,1655.126 273.255,1655.126"/>
      <polygon points="334.946,1654.421 336.336,1653.255 337.243,1651.683 337.558,1649.896 337.243,1648.109 336.336,1646.538 334.946,1645.371 333.241,1644.751 331.426,1644.751 329.721,1645.371 328.331,1646.538 327.424,1648.109 327.109,1649.896 327.424,1651.683 328.331,1653.255 329.721,1654.421 331.426,1655.042 333.241,1655.042"/>
      <polygon points="254.857,1654.268 256.200,1653.141 257.077,1651.623 257.381,1649.896 257.077,1648.170 256.200,1646.652 254.857,1645.525 253.210,1644.925 251.457,1644.925 249.810,1645.525 248.467,1646.652 247.590,1648.170 247.286,1649.896 247.590,1651.623 248.467,1653.141 249.810,1654.268 251.457,1654.867 253.210,1654.867"/>
      <polygon points="354.857,1654.268 356.200,1653.141 357.077,1651.623 357.381,1649.896 357.077,1648.170 356.200,1646.652 354.857,1645.525 353.210,1644.925 351.457,1644.925 349.810,1645.525 348.467,1646.652 347.590,1648.170 347.286,1649.896 347.590,1651.623 348.467,1653.141 349.810,1654.268 351.457,1654.867 353.210,1654.867"/>
      <polygon points="234.500,1654.248 235.926,1653.172 236.867,1651.652 237.195,1649.896 236.867,1648.140 235.926,1646.621 234.500,1645.544 232.782,1645.055 231.003,1645.220 229.403,1646.016 228.200,1647.337 227.554,1649.003 227.554,1650.790 228.200,1652.456 229.403,1653.776 231.003,1654.572 232.782,1654.737"/>
      <polygon points="374.457,1654.162 375.855,1653.107 376.777,1651.618 377.099,1649.896 376.777,1648.175 375.855,1646.686 374.457,1645.630 372.773,1645.151 371.029,1645.313 369.462,1646.093 368.282,1647.388 367.649,1649.021 367.649,1650.772 368.282,1652.405 369.462,1653.699 371.029,1654.480 372.773,1654.641"/>
      <polygon points="214.368,1653.983 215.707,1652.972 216.590,1651.545 216.899,1649.896 216.590,1648.247 215.707,1646.820 214.368,1645.809 212.755,1645.350 211.084,1645.505 209.582,1646.253 208.452,1647.493 207.846,1649.057 207.846,1650.735 208.452,1652.300 209.582,1653.539 211.084,1654.287 212.755,1654.442"/>
      <polygon points="394.041,1654.018 395.488,1653.051 396.455,1651.604 396.795,1649.896 396.455,1648.189 395.488,1646.741 394.041,1645.774 392.333,1645.435 390.626,1645.774 389.179,1646.741 388.211,1648.189 387.872,1649.896 388.211,1651.604 389.179,1653.051 390.626,1654.018 392.333,1654.358"/>
      <polygon points="193.958,1653.819 195.335,1652.898 196.256,1651.521 196.579,1649.896 196.256,1648.271 195.335,1646.894 193.958,1645.974 192.333,1645.651 190.709,1645.974 189.331,1646.894 188.411,1648.271 188.088,1649.896 188.411,1651.521 189.331,1652.898 190.709,1653.819 192.333,1654.142"/>
      <polygon points="413.958,1653.819 415.335,1652.898 416.256,1651.521 416.579,1649.896 416.256,1648.271 415.335,1646.894 413.958,1645.974 412.333,1645.651 410.709,1645.974 409.331,1646.894 408.411,1648.271 408.088,1649.896 408.411,1651.521 409.331,1652.898 410.709,1653.819 412.333,1654.142"/>
      <polygon points="173.871,1653.608 175.175,1652.737 176.045,1651.434 176.351,1649.896 176.045,1648.359 175.175,1647.055 173.871,1646.184 172.333,1645.878 170.796,1646.184 169.492,1647.055 168.621,1648.359 168.315,1649.896 168.621,1651.434 169.492,1652.737 170.796,1653.608 172.333,1653.914"/>
      <polygon points="433.538,1653.605 434.943,1652.794 435.896,1651.482 436.233,1649.896 435.896,1648.310 434.943,1646.998 433.538,1646.187 431.926,1646.018 430.384,1646.519 429.179,1647.604 428.519,1649.085 428.519,1650.707 429.179,1652.188 430.384,1653.273 431.926,1653.774"/>
      <polygon points="154.448,1652.548 155.389,1651.368 155.725,1649.896 155.389,1648.425 154.448,1647.245 153.088,1646.590 151.579,1646.590 150.219,1647.245 149.278,1648.425 148.942,1649.896 149.278,1651.368 150.219,1652.548 151.579,1653.202 153.088,1653.202"/>
      <polygon points="454.275,1652.331 455.139,1651.247 455.448,1649.896 455.139,1648.545 454.275,1647.461 453.026,1646.860 451.640,1646.860 450.392,1647.461 449.527,1648.545 449.219,1649.896 449.527,1651.247 450.392,1652.331 451.640,1652.933 453.026,1652.933"/>
      <polygon points="133.505,1651.926 134.363,1651.068 134.677,1649.896 134.363,1648.724 133.505,1647.866 132.333,1647.552 131.161,1647.866 130.303,1648.724 129.989,1649.896 130.303,1651.068 131.161,1651.926 132.333,1652.240"/>
      <polygon points="473.164,1651.715 474.016,1650.977 474.333,1649.896 474.016,1648.815 473.164,1648.077 472.049,1647.917 471.024,1648.385 470.414,1649.333 470.414,1650.460 471.024,1651.408 472.049,1651.876"/>
      <polygon points="114.065,1650.896 114.333,1649.896 114.065,1648.896 113.928,1648.759 113.928,1651.034"/>
      <polygon points="293.697,1675.282 295.372,1674.547 296.717,1673.308 297.588,1671.700 297.889,1669.896 297.588,1668.092 296.717,1666.484 295.372,1665.245 293.697,1664.511 291.875,1664.360 290.102,1664.809 288.571,1665.809 287.447,1667.252 286.854,1668.982 286.854,1670.811 287.447,1672.540 288.571,1673.984 290.102,1674.984 291.875,1675.433"/>
      <polygon points="315.071,1674.638 316.528,1673.416 317.479,1671.769 317.809,1669.896 317.479,1668.023 316.528,1666.376 315.071,1665.154 313.284,1664.504 311.383,1664.504 309.596,1665.154 308.139,1666.376 307.188,1668.023 306.858,1669.896 307.188,1671.769 308.139,1673.416 309.596,1674.638 311.383,1675.289 313.284,1675.289"/>
      <polygon points="274.989,1674.495 276.401,1673.310 277.323,1671.712 277.644,1669.896 277.323,1668.080 276.401,1666.483 274.989,1665.297 273.255,1664.667 271.411,1664.667 269.678,1665.297 268.265,1666.483 267.343,1668.080 267.023,1669.896 267.343,1671.712 268.265,1673.310 269.678,1674.495 271.411,1675.126 273.255,1675.126"/>
      <polygon points="334.946,1674.421 336.336,1673.255 337.243,1671.683 337.558,1669.896 337.243,1668.109 336.336,1666.538 334.946,1665.371 333.241,1664.751 331.426,1664.751 329.721,1665.371 328.331,1666.538 327.424,1668.109 327.109,1669.896 327.424,1671.683 328.331,1673.255 329.721,1674.421 331.426,1675.042 333.241,1675.042"/>
      <polygon points="254.857,1674.268 256.200,1673.141 257.077,1671.623 257.381,1669.896 257.077,1668.170 256.200,1666.652 254.857,1665.525 253.210,1664.925 251.457,1664.925 249.810,1665.525 248.467,1666.652 247.590,1668.170 247.286,1669.896 247.590,1671.623 248.467,1673.141 249.810,1674.268 251.457,1674.867 253.210,1674.867"/>
      <polygon points="354.857,1674.268 356.200,1673.141 357.077,1671.623 357.381,1669.896 357.077,1668.170 356.200,1666.652 354.857,1665.525 353.210,1664.925 351.457,1664.925 349.810,1665.525 348.467,1666.652 347.590,1668.170 347.286,1669.896 347.590,1671.623 348.467,1673.141 349.810,1674.268 351.457,1674.867 353.210,1674.867"/>
      <polygon points="234.500,1674.248 235.926,1673.172 236.867,1671.652 237.195,1669.896 236.867,1668.140 235.926,1666.621 234.500,1665.544 232.782,1665.055 231.003,1665.220 229.403,1666.016 228.200,1667.337 227.554,1669.003 227.554,1670.790 228.200,1672.456 229.403,1673.776 231.003,1674.572 232.782,1674.737"/>
      <polygon points="374.457,1674.162 375.855,1673.107 376.777,1671.618 377.099,1669.896 376.777,1668.175 375.855,1666.686 374.457,1665.630 372.773,1665.151 371.029,1665.313 369.462,1666.093 368.282,1667.388 367.649,1669.021 367.649,1670.772 368.282,1672.405 369.462,1673.699 371.029,1674.480 372.773,1674.641"/>
      <polygon points="214.368,1673.983 215.707,1672.972 216.590,1671.545 216.899,1669.896 216.590,1668.247 215.707,1666.820 214.368,1665.809 212.755,1665.350 211.084,1665.505 209.582,1666.253 208.452,1667.493 207.846,1669.057 207.846,1670.735 208.452,1672.300 209.582,1673.539 211.084,1674.287 212.755,1674.442"/>
      <polygon points="394.041,1674.018 395.488,1673.051 396.455,1671.604 396.795,1669.896 396.455,1668.189 395.488,1666.741 394.041,1665.774 392.333,1665.435 390.626,1665.774 389.179,1666.741 388.211,1668.189 387.872,1669.896 388.211,1671.604 389.179,1673.051 390.626,1674.018 392.333,1674.358"/>
      <polygon points="413.958,1673.819 415.335,1672.898 416.256,1671.521 416.579,1669.896 416.256,1668.271 415.335,1666.894 413.958,1665.974 412.333,1665.651 410.709,1665.974 409.331,1666.894 408.411,1668.271 408.088,1669.896 408.411,1671.521 409.331,1672.898 410.709,1673.819 412.333,1674.142"/>
      <polygon points="193.958,1673.819 195.335,1672.898 196.256,1671.521 196.579,1669.896 196.256,1668.271 195.335,1666.894 193.958,1665.974 192.333,1665.651 190.709,1665.974 189.331,1666.894 188.411,1668.271 188.088,1669.896 188.411,1671.521 189.331,1672.898 190.709,1673.819 192.333,1674.142"/>
      <polygon points="173.871,1673.608 175.175,1672.737 176.045,1671.434 176.351,1669.896 176.045,1668.359 175.175,1667.055 173.871,1666.184 172.333,1665.878 170.796,1666.184 169.492,1667.055 168.621,1668.359 168.315,1669.896 168.621,1671.434 169.492,1672.737 170.796,1673.608 172.333,1673.914"/>
      <polygon points="433.538,1673.605 434.943,1672.794 435.896,1671.482 436.233,1669.896 435.896,1668.310 434.943,1666.998 433.538,1666.187 431.926,1666.018 430.384,1666.519 429.179,1667.604 428.519,1669.085 428.519,1670.707 429.179,1672.188 430.384,1673.273 431.926,1673.774"/>
      <polygon points="154.448,1672.548 155.389,1671.368 155.725,1669.896 155.389,1668.425 154.448,1667.245 153.088,1666.590 151.579,1666.590 150.219,1667.245 149.278,1668.425 148.942,1669.896 149.278,1671.368 150.219,1672.548 151.579,1673.202 153.088,1673.202"/>
      <polygon points="454.275,1672.331 455.139,1671.247 455.448,1669.896 455.139,1668.545 454.275,1667.461 453.026,1666.860 451.640,1666.860 450.392,1667.461 449.527,1668.545 449.219,1669.896 449.527,1671.247 450.392,1672.331 451.640,1672.933 453.026,1672.933"/>
      <polygon points="133.505,1671.926 134.363,1671.068 134.677,1669.896 134.363,1668.724 133.505,1667.866 132.333,1667.552 131.161,1667.866 130.303,1668.724 129.989,1669.896 130.303,1671.068 131.161,1671.926 132.333,1672.240"/>
      <polygon points="473.164,1671.715 474.016,1670.977 474.333,1669.896 474.016,1668.815 473.164,1668.077 472.049,1667.917 471.024,1668.385 470.414,1669.333 470.414,1670.460 471.024,1671.408 472.049,1671.876"/>
      <polygon points="114.065,1670.896 114.333,1669.896 114.065,1668.896 113.928,1668.759 113.928,1671.034"/>
    </g>
    <g stroke="#EF6C00" stroke-width="0.4" fill="none">
    </g>
  </g>
  <g stroke="#000000" stroke-width="0.4">
    <line x1="500.000" y1="1000.000" x2="1500.000" y2="1000.000"/>
  </g>
  <g stroke="#000000" stroke-width="0.4">
    <line x1="1000.000" y1="500.000" x2="1000.000" y2="1500.000"/>
  </g>
  <circle cx="1000.000" cy="1000.000" r="1000.000" stroke="red" stroke-width="1" fill="none"/>
  </g>
</svg>
