<?xml version="1.0" encoding="UTF-8"?>
<svg xmlns="http://www.w3.org/2000/svg" version="1.1" width="2000" height="2000">
  <g fill="none" stroke-linecap="round" stroke-linejoin="round">
  <text x="10" y="20" font-size="24" fill="#555">Layer 253 Z=62.600 mm</text>
  <g transform="translate(700.000,-602.229)">
    <g stroke="#2E7D32" stroke-width="0.4">
      <line x1="151.699" y1="1630.132" x2="101.699" y2="1630.132"/>
      <line x1="151.699" y1="1631.132" x2="101.699" y2="1631.132"/>
      <line x1="151.699" y1="1632.132" x2="101.699" y2="1632.132"/>
      <line x1="151.699" y1="1633.132" x2="101.699" y2="1633.132"/>
      <line x1="151.699" y1="1634.132" x2="101.699" y2="1634.132"/>
      <line x1="151.699" y1="1635.132" x2="101.699" y2="1635.132"/>
      <line x1="151.699" y1="1636.132" x2="101.699" y2="1636.132"/>
      <line x1="151.699" y1="1637.132" x2="101.699" y2="1637.132"/>
      <line x1="151.699" y1="1638.132" x2="101.699" y2="1638.132"/>
      <line x1="151.699" y1="1639.132" x2="101.699" y2="1639.132"/>
      <line x1="151.699" y1="1640.132" x2="101.699" y2="1640.132"/>
      <line x1="151.699" y1="1641.132" x2="101.699" y2="1641.132"/>
      <line x1="151.699" y1="1642.132" x2="101.699" y2="1642.132"/>
      <line x1="151.699" y1="1643.132" x2="101.699" y2="1643.132"/>
      <line x1="151.699" y1="1644.132" x2="101.699" y2="1644.132"/>
      <line x1="151.699" y1="1645.132" x2="101.699" y2="1645.132"/>
      <line x1="151.699" y1="1646.132" x2="101.699" y2="1646.132"/>
      <line x1="151.699" y1="1647.132" x2="101.699" y2="1647.132"/>
      <line x1="151.699" y1="1648.132" x2="101.699" y2="1648.132"/>
      <line x1="151.699" y1="1649.132" x2="101.699" y2="1649.132"/>
      <line x1="151.699" y1="1650.132" x2="101.699" y2="1650.132"/>
      <line x1="151.699" y1="1651.132" x2="101.699" y2="1651.132"/>
      <line x1="151.699" y1="1652.132" x2="101.699" y2="1652.132"/>
      <line x1="151.699" y1="1653.132" x2="101.699" y2="1653.132"/>
      <line x1="151.699" y1="1654.132" x2="101.699" y2="1654.132"/>
      <line x1="151.699" y1="1655.132" x2="101.699" y2="1655.132"/>
      <line x1="151.699" y1="1656.132" x2="101.699" y2="1656.132"/>
      <line x1="151.699" y1="1657.132" x2="101.699" y2="1657.132"/>
      <line x1="151.699" y1="1658.132" x2="101.699" y2="1658.132"/>
      <line x1="151.699" y1="1659.132" x2="101.699" y2="1659.132"/>
      <line x1="151.699" y1="1660.132" x2="101.699" y2="1660.132"/>
      <line x1="151.699" y1="1661.132" x2="101.699" y2="1661.132"/>
      <line x1="151.699" y1="1662.132" x2="101.699" y2="1662.132"/>
      <line x1="151.699" y1="1663.132" x2="101.699" y2="1663.132"/>
      <line x1="151.699" y1="1664.132" x2="101.699" y2="1664.132"/>
      <line x1="151.699" y1="1665.132" x2="101.699" y2="1665.132"/>
      <line x1="151.699" y1="1666.132" x2="101.699" y2="1666.132"/>
      <line x1="151.699" y1="1667.132" x2="101.699" y2="1667.132"/>
      <line x1="151.699" y1="1668.132" x2="101.699" y2="1668.132"/>
      <line x1="151.699" y1="1669.132" x2="101.699" y2="1669.132"/>
      <line x1="151.699" y1="1670.132" x2="101.699" y2="1670.132"/>
      <line x1="151.699" y1="1671.132" x2="101.699" y2="1671.132"/>
      <line x1="151.699" y1="1672.132" x2="101.699" y2="1672.132"/>
      <line x1="151.699" y1="1673.132" x2="101.699" y2="1673.132"/>
      <line x1="151.699" y1="1674.132" x2="101.699" y2="1674.132"/>
      <line x1="151.699" y1="1675.132" x2="101.699" y2="1675.132"/>
      <line x1="151.699" y1="1676.132" x2="101.699" y2="1676.132"/>
      <line x1="151.699" y1="1677.132" x2="101.699" y2="1677.132"/>
      <line x1="151.699" y1="1678.132" x2="101.699" y2="1678.132"/>
      <line x1="151.699" y1="1679.132" x2="101.699" y2="1679.132"/>
      <line x1="201.799" y1="1630.132" x2="151.799" y2="1630.132"/>
      <line x1="201.799" y1="1631.132" x2="151.799" y2="1631.132"/>
      <line x1="201.799" y1="1632.132" x2="151.799" y2="1632.132"/>
      <line x1="201.799" y1="1633.132" x2="151.799" y2="1633.132"/>
      <line x1="201.799" y1="1634.132" x2="151.799" y2="1634.132"/>
      <line x1="201.799" y1="1635.132" x2="151.799" y2="1635.132"/>
      <line x1="201.799" y1="1636.132" x2="151.799" y2="1636.132"/>
      <line x1="201.799" y1="1637.132" x2="151.799" y2="1637.132"/>
      <line x1="201.799" y1="1638.132" x2="151.799" y2="1638.132"/>
      <line x1="201.799" y1="1639.132" x2="151.799" y2="1639.132"/>
      <line x1="201.799" y1="1640.132" x2="151.799" y2="1640.132"/>
      <line x1="201.799" y1="1641.132" x2="151.799" y2="1641.132"/>
      <line x1="201.799" y1="1642.132" x2="151.799" y2="1642.132"/>
      <line x1="201.799" y1="1643.132" x2="151.799" y2="1643.132"/>
      <line x1="201.799" y1="1644.132" x2="151.799" y2="1644.132"/>
      <line x1="201.799" y1="1645.132" x2="151.799" y2="1645.132"/>
      <line x1="201.799" y1="1646.132" x2="151.799" y2="1646.132"/>
      <line x1="201.799" y1="1647.132" x2="151.799" y2="1647.132"/>
      <line x1="201.799" y1="1648.132" x2="151.799" y2="1648.132"/>
      <line x1="201.799" y1="1649.132" x2="151.799" y2="1649.132"/>
      <line x1="201.799" y1="1650.132" x2="151.799" y2="1650.132"/>
      <line x1="201.799" y1="1651.132" x2="151.799" y2="1651.132"/>
      <line x1="201.799" y1="1652.132" x2="151.799" y2="1652.132"/>
      <line x1="201.799" y1="1653.132" x2="151.799" y2="1653.132"/>
      <line x1="201.799" y1="1654.132" x2="151.799" y2="1654.132"/>
      <line x1="201.799" y1="1655.132" x2="151.799" y2="1655.132"/>
      <line x1="201.799" y1="1656.132" x2="151.799" y2="1656.132"/>
      <line x1="201.799" y1="1657.132" x2="151.799" y2="1657.132"/>
      <line x1="201.799" y1="1658.132" x2="151.799" y2="1658.132"/>
      <line x1="201.799" y1="1659.132" x2="151.799" y2="1659.132"/>
      <line x1="201.799" y1="1660.132" x2="151.799" y2="1660.132"/>
      <line x1="201.799" y1="1661.132" x2="151.799" y2="1661.132"/>
      <line x1="201.799" y1="1662.132" x2="151.799" y2="1662.132"/>
      <line x1="201.799" y1="1663.132" x2="151.799" y2="1663.132"/>
      <line x1="201.799" y1="1664.132" x2="151.799" y2="1664.132"/>
      <line x1="201.799" y1="1665.132" x2="151.799" y2="1665.132"/>
      <line x1="201.799" y1="1666.132" x2="151.799" y2="1666.132"/>
      <line x1="201.799" y1="1667.132" x2="151.799" y2="1667.132"/>
      <line x1="201.799" y1="1668.132" x2="151.799" y2="1668.132"/>
      <line x1="201.799" y1="1669.132" x2="151.799" y2="1669.132"/>
      <line x1="201.799" y1="1670.132" x2="151.799" y2="1670.132"/>
      <line x1="201.799" y1="1671.132" x2="151.799" y2="1671.132"/>
      <line x1="201.799" y1="1672.132" x2="151.799" y2="1672.132"/>
      <line x1="201.799" y1="1673.132" x2="151.799" y2="1673.132"/>
      <line x1="201.799" y1="1674.132" x2="151.799" y2="1674.132"/>
      <line x1="201.799" y1="1675.132" x2="151.799" y2="1675.132"/>
      <line x1="201.799" y1="1676.132" x2="151.799" y2="1676.132"/>
      <line x1="201.799" y1="1677.132" x2="151.799" y2="1677.132"/>
      <line x1="201.799" y1="1678.132" x2="151.799" y2="1678.132"/>
      <line x1="201.799" y1="1679.132" x2="151.799" y2="1679.132"/>
      <line x1="251.899" y1="1630.132" x2="201.899" y2="1630.132"/>
      <line x1="251.899" y1="1631.132" x2="201.899" y2="1631.132"/>
      <line x1="251.899" y1="1632.132" x2="201.899" y2="1632.132"/>
      <line x1="251.899" y1="1633.132" x2="201.899" y2="1633.132"/>
      <line x1="251.899" y1="1634.132" x2="201.899" y2="1634.132"/>
      <line x1="251.899" y1="1635.132" x2="201.899" y2="1635.132"/>
      <line x1="251.899" y1="1636.132" x2="201.899" y2="1636.132"/>
      <line x1="251.899" y1="1637.132" x2="201.899" y2="1637.132"/>
      <line x1="251.899" y1="1638.132" x2="201.899" y2="1638.132"/>
      <line x1="251.899" y1="1639.132" x2="201.899" y2="1639.132"/>
      <line x1="251.899" y1="1640.132" x2="201.899" y2="1640.132"/>
      <line x1="251.899" y1="1641.132" x2="201.899" y2="1641.132"/>
      <line x1="251.899" y1="1642.132" x2="201.899" y2="1642.132"/>
      <line x1="251.899" y1="1643.132" x2="201.899" y2="1643.132"/>
      <line x1="251.899" y1="1644.132" x2="201.899" y2="1644.132"/>
      <line x1="251.899" y1="1645.132" x2="201.899" y2="1645.132"/>
      <line x1="251.899" y1="1646.132" x2="201.899" y2="1646.132"/>
      <line x1="251.899" y1="1647.132" x2="201.899" y2="1647.132"/>
      <line x1="251.899" y1="1648.132" x2="201.899" y2="1648.132"/>
      <line x1="251.899" y1="1649.132" x2="201.899" y2="1649.132"/>
      <line x1="251.899" y1="1650.132" x2="201.899" y2="1650.132"/>
      <line x1="251.899" y1="1651.132" x2="201.899" y2="1651.132"/>
      <line x1="251.899" y1="1652.132" x2="201.899" y2="1652.132"/>
      <line x1="251.899" y1="1653.132" x2="201.899" y2="1653.132"/>
      <line x1="251.899" y1="1654.132" x2="201.899" y2="1654.132"/>
      <line x1="251.899" y1="1655.132" x2="201.899" y2="1655.132"/>
      <line x1="251.899" y1="1656.132" x2="201.899" y2="1656.132"/>
      <line x1="251.899" y1="1657.132" x2="201.899" y2="1657.132"/>
      <line x1="251.899" y1="1658.132" x2="201.899" y2="1658.132"/>
      <line x1="251.899" y1="1659.132" x2="201.899" y2="1659.132"/>
      <line x1="251.899" y1="1660.132" x2="201.899" y2="1660.132"/>
      <line x1="251.899" y1="1661.132" x2="201.899" y2="1661.132"/>
      <line x1="251.899" y1="1662.132" x2="201.899" y2="1662.132"/>
      <line x1="251.899" y1="1663.132" x2="201.899" y2="1663.132"/>
      <line x1="251.899" y1="1664.132" x2="201.899" y2="1664.132"/>
      <line x1="251.899" y1="1665.132" x2="201.899" y2="1665.132"/>
      <line x1="251.899" y1="1666.132" x2="201.899" y2="1666.132"/>
      <line x1="251.899" y1="1667.132" x2="201.899" y2="1667.132"/>
      <line x1="251.899" y1="1668.132" x2="201.899" y2="1668.132"/>
      <line x1="251.899" y1="1669.132" x2="201.899" y2="1669.132"/>
      <line x1="251.899" y1="1670.132" x2="201.899" y2="1670.132"/>
      <line x1="251.899" y1="1671.132" x2="201.899" y2="1671.132"/>
      <line x1="251.899" y1="1672.132" x2="201.899" y2="1672.132"/>
      <line x1="251.899" y1="1673.132" x2="201.899" y2="1673.132"/>
      <line x1="251.899" y1="1674.132" x2="201.899" y2="1674.132"/>
      <line x1="251.899" y1="1675.132" x2="201.899" y2="1675.132"/>
      <line x1="251.899" y1="1676.132" x2="201.899" y2="1676.132"/>
      <line x1="251.899" y1="1677.132" x2="201.899" y2="1677.132"/>
      <line x1="251.899" y1="1678.132" x2="201.899" y2="1678.132"/>
      <line x1="251.899" y1="1679.132" x2="201.899" y2="1679.132"/>
      <line x1="301.999" y1="1630.132" x2="251.999" y2="1630.132"/>
      <line x1="301.999" y1="1631.132" x2="251.999" y2="1631.132"/>
      <line x1="301.999" y1="1632.132" x2="251.999" y2="1632.132"/>
      <line x1="301.999" y1="1633.132" x2="251.999" y2="1633.132"/>
      <line x1="301.999" y1="1634.132" x2="251.999" y2="1634.132"/>
      <line x1="301.999" y1="1635.132" x2="251.999" y2="1635.132"/>
      <line x1="301.999" y1="1636.132" x2="251.999" y2="1636.132"/>
      <line x1="301.999" y1="1637.132" x2="251.999" y2="1637.132"/>
      <line x1="301.999" y1="1638.132" x2="251.999" y2="1638.132"/>
      <line x1="301.999" y1="1639.132" x2="251.999" y2="1639.132"/>
      <line x1="301.999" y1="1640.132" x2="251.999" y2="1640.132"/>
      <line x1="301.999" y1="1641.132" x2="251.999" y2="1641.132"/>
      <line x1="301.999" y1="1642.132" x2="251.999" y2="1642.132"/>
      <line x1="301.999" y1="1643.132" x2="251.999" y2="1643.132"/>
      <line x1="301.999" y1="1644.132" x2="251.999" y2="1644.132"/>
      <line x1="301.999" y1="1645.132" x2="251.999" y2="1645.132"/>
      <line x1="301.999" y1="1646.132" x2="251.999" y2="1646.132"/>
      <line x1="301.999" y1="1647.132" x2="251.999" y2="1647.132"/>
      <line x1="301.999" y1="1648.132" x2="251.999" y2="1648.132"/>
      <line x1="301.999" y1="1649.132" x2="251.999" y2="1649.132"/>
      <line x1="301.999" y1="1650.132" x2="251.999" y2="1650.132"/>
      <line x1="301.999" y1="1651.132" x2="251.999" y2="1651.132"/>
      <line x1="301.999" y1="1652.132" x2="251.999" y2="1652.132"/>
      <line x1="301.999" y1="1653.132" x2="251.999" y2="1653.132"/>
      <line x1="301.999" y1="1654.132" x2="251.999" y2="1654.132"/>
      <line x1="301.999" y1="1655.132" x2="251.999" y2="1655.132"/>
      <line x1="301.999" y1="1656.132" x2="251.999" y2="1656.132"/>
      <line x1="301.999" y1="1657.132" x2="251.999" y2="1657.132"/>
      <line x1="301.999" y1="1658.132" x2="251.999" y2="1658.132"/>
      <line x1="301.999" y1="1659.132" x2="251.999" y2="1659.132"/>
      <line x1="301.999" y1="1660.132" x2="251.999" y2="1660.132"/>
      <line x1="301.999" y1="1661.132" x2="251.999" y2="1661.132"/>
      <line x1="301.999" y1="1662.132" x2="251.999" y2="1662.132"/>
      <line x1="301.999" y1="1663.132" x2="251.999" y2="1663.132"/>
      <line x1="301.999" y1="1664.132" x2="251.999" y2="1664.132"/>
      <line x1="301.999" y1="1665.132" x2="251.999" y2="1665.132"/>
      <line x1="301.999" y1="1666.132" x2="251.999" y2="1666.132"/>
      <line x1="301.999" y1="1667.132" x2="251.999" y2="1667.132"/>
      <line x1="301.999" y1="1668.132" x2="251.999" y2="1668.132"/>
      <line x1="301.999" y1="1669.132" x2="251.999" y2="1669.132"/>
      <line x1="301.999" y1="1670.132" x2="251.999" y2="1670.132"/>
      <line x1="301.999" y1="1671.132" x2="251.999" y2="1671.132"/>
      <line x1="301.999" y1="1672.132" x2="251.999" y2="1672.132"/>
      <line x1="301.999" y1="1673.132" x2="251.999" y2="1673.132"/>
      <line x1="301.999" y1="1674.132" x2="251.999" y2="1674.132"/>
      <line x1="301.999" y1="1675.132" x2="251.999" y2="1675.132"/>
      <line x1="301.999" y1="1676.132" x2="251.999" y2="1676.132"/>
      <line x1="301.999" y1="1677.132" x2="251.999" y2="1677.132"/>
      <line x1="301.999" y1="1678.132" x2="251.999" y2="1678.132"/>
      <line x1="301.999" y1="1679.132" x2="251.999" y2="1679.132"/>
      <line x1="352.099" y1="1630.132" x2="302.099" y2="1630.132"/>
      <line x1="352.099" y1="1631.132" x2="302.099" y2="1631.132"/>
      <line x1="352.099" y1="1632.132" x2="302.099" y2="1632.132"/>
      <line x1="352.099" y1="1633.132" x2="302.099" y2="1633.132"/>
      <line x1="352.099" y1="1634.132" x2="302.099" y2="1634.132"/>
      <line x1="352.099" y1="1635.132" x2="302.099" y2="1635.132"/>
      <line x1="352.099" y1="1636.132" x2="302.099" y2="1636.132"/>
      <line x1="352.099" y1="1637.132" x2="302.099" y2="1637.132"/>
      <line x1="352.099" y1="1638.132" x2="302.099" y2="1638.132"/>
      <line x1="352.099" y1="1639.132" x2="302.099" y2="1639.132"/>
      <line x1="352.099" y1="1640.132" x2="302.099" y2="1640.132"/>
      <line x1="352.099" y1="1641.132" x2="302.099" y2="1641.132"/>
      <line x1="352.099" y1="1642.132" x2="302.099" y2="1642.132"/>
      <line x1="352.099" y1="1643.132" x2="302.099" y2="1643.132"/>
      <line x1="352.099" y1="1644.132" x2="302.099" y2="1644.132"/>
      <line x1="352.099" y1="1645.132" x2="302.099" y2="1645.132"/>
      <line x1="352.099" y1="1646.132" x2="302.099" y2="1646.132"/>
      <line x1="352.099" y1="1647.132" x2="302.099" y2="1647.132"/>
      <line x1="352.099" y1="1648.132" x2="302.099" y2="1648.132"/>
      <line x1="352.099" y1="1649.132" x2="302.099" y2="1649.132"/>
      <line x1="352.099" y1="1650.132" x2="302.099" y2="1650.132"/>
      <line x1="352.099" y1="1651.132" x2="302.099" y2="1651.132"/>
      <line x1="352.099" y1="1652.132" x2="302.099" y2="1652.132"/>
      <line x1="352.099" y1="1653.132" x2="302.099" y2="1653.132"/>
      <line x1="352.099" y1="1654.132" x2="302.099" y2="1654.132"/>
      <line x1="352.099" y1="1655.132" x2="302.099" y2="1655.132"/>
      <line x1="352.099" y1="1656.132" x2="302.099" y2="1656.132"/>
      <line x1="352.099" y1="1657.132" x2="302.099" y2="1657.132"/>
      <line x1="352.099" y1="1658.132" x2="302.099" y2="1658.132"/>
      <line x1="352.099" y1="1659.132" x2="302.099" y2="1659.132"/>
      <line x1="352.099" y1="1660.132" x2="302.099" y2="1660.132"/>
      <line x1="352.099" y1="1661.132" x2="302.099" y2="1661.132"/>
      <line x1="352.099" y1="1662.132" x2="302.099" y2="1662.132"/>
      <line x1="352.099" y1="1663.132" x2="302.099" y2="1663.132"/>
      <line x1="352.099" y1="1664.132" x2="302.099" y2="1664.132"/>
      <line x1="352.099" y1="1665.132" x2="302.099" y2="1665.132"/>
      <line x1="352.099" y1="1666.132" x2="302.099" y2="1666.132"/>
      <line x1="352.099" y1="1667.132" x2="302.099" y2="1667.132"/>
      <line x1="352.099" y1="1668.132" x2="302.099" y2="1668.132"/>
      <line x1="352.099" y1="1669.132" x2="302.099" y2="1669.132"/>
      <line x1="352.099" y1="1670.132" x2="302.099" y2="1670.132"/>
      <line x1="352.099" y1="1671.132" x2="302.099" y2="1671.132"/>
      <line x1="352.099" y1="1672.132" x2="302.099" y2="1672.132"/>
      <line x1="352.099" y1="1673.132" x2="302.099" y2="1673.132"/>
      <line x1="352.099" y1="1674.132" x2="302.099" y2="1674.132"/>
      <line x1="352.099" y1="1675.132" x2="302.099" y2="1675.132"/>
      <line x1="352.099" y1="1676.132" x2="302.099" y2="1676.132"/>
      <line x1="352.099" y1="1677.132" x2="302.099" y2="1677.132"/>
      <line x1="352.099" y1="1678.132" x2="302.099" y2="1678.132"/>
      <line x1="352.099" y1="1679.132" x2="302.099" y2="1679.132"/>
      <line x1="402.199" y1="1630.132" x2="352.199" y2="1630.132"/>
      <line x1="402.199" y1="1631.132" x2="352.199" y2="1631.132"/>
      <line x1="402.199" y1="1632.132" x2="352.199" y2="1632.132"/>
      <line x1="402.199" y1="1633.132" x2="352.199" y2="1633.132"/>
      <line x1="402.199" y1="1634.132" x2="352.199" y2="1634.132"/>
      <line x1="402.199" y1="1635.132" x2="352.199" y2="1635.132"/>
      <line x1="402.199" y1="1636.132" x2="352.199" y2="1636.132"/>
      <line x1="402.199" y1="1637.132" x2="352.199" y2="1637.132"/>
      <line x1="402.199" y1="1638.132" x2="352.199" y2="1638.132"/>
      <line x1="402.199" y1="1639.132" x2="352.199" y2="1639.132"/>
      <line x1="402.199" y1="1640.132" x2="352.199" y2="1640.132"/>
      <line x1="402.199" y1="1641.132" x2="352.199" y2="1641.132"/>
      <line x1="402.199" y1="1642.132" x2="352.199" y2="1642.132"/>
      <line x1="402.199" y1="1643.132" x2="352.199" y2="1643.132"/>
      <line x1="402.199" y1="1644.132" x2="352.199" y2="1644.132"/>
      <line x1="402.199" y1="1645.132" x2="352.199" y2="1645.132"/>
      <line x1="402.199" y1="1646.132" x2="352.199" y2="1646.132"/>
      <line x1="402.199" y1="1647.132" x2="352.199" y2="1647.132"/>
      <line x1="402.199" y1="1648.132" x2="352.199" y2="1648.132"/>
      <line x1="402.199" y1="1649.132" x2="352.199" y2="1649.132"/>
      <line x1="402.199" y1="1650.132" x2="352.199" y2="1650.132"/>
      <line x1="402.199" y1="1651.132" x2="352.199" y2="1651.132"/>
      <line x1="402.199" y1="1652.132" x2="352.199" y2="1652.132"/>
      <line x1="402.199" y1="1653.132" x2="352.199" y2="1653.132"/>
      <line x1="402.199" y1="1654.132" x2="352.199" y2="1654.132"/>
      <line x1="402.199" y1="1655.132" x2="352.199" y2="1655.132"/>
      <line x1="402.199" y1="1656.132" x2="352.199" y2="1656.132"/>
      <line x1="402.199" y1="1657.132" x2="352.199" y2="1657.132"/>
      <line x1="402.199" y1="1658.132" x2="352.199" y2="1658.132"/>
      <line x1="402.199" y1="1659.132" x2="352.199" y2="1659.132"/>
      <line x1="402.199" y1="1660.132" x2="352.199" y2="1660.132"/>
      <line x1="402.199" y1="1661.132" x2="352.199" y2="1661.132"/>
      <line x1="402.199" y1="1662.132" x2="352.199" y2="1662.132"/>
      <line x1="402.199" y1="1663.132" x2="352.199" y2="1663.132"/>
      <line x1="402.199" y1="1664.132" x2="352.199" y2="1664.132"/>
      <line x1="402.199" y1="1665.132" x2="352.199" y2="1665.132"/>
      <line x1="402.199" y1="1666.132" x2="352.199" y2="1666.132"/>
      <line x1="402.199" y1="1667.132" x2="352.199" y2="1667.132"/>
      <line x1="402.199" y1="1668.132" x2="352.199" y2="1668.132"/>
      <line x1="402.199" y1="1669.132" x2="352.199" y2="1669.132"/>
      <line x1="402.199" y1="1670.132" x2="352.199" y2="1670.132"/>
      <line x1="402.199" y1="1671.132" x2="352.199" y2="1671.132"/>
      <line x1="402.199" y1="1672.132" x2="352.199" y2="1672.132"/>
      <line x1="402.199" y1="1673.132" x2="352.199" y2="1673.132"/>
      <line x1="402.199" y1="1674.132" x2="352.199" y2="1674.132"/>
      <line x1="402.199" y1="1675.132" x2="352.199" y2="1675.132"/>
      <line x1="402.199" y1="1676.132" x2="352.199" y2="1676.132"/>
      <line x1="402.199" y1="1677.132" x2="352.199" y2="1677.132"/>
      <line x1="402.199" y1="1678.132" x2="352.199" y2="1678.132"/>
      <line x1="402.199" y1="1679.132" x2="352.199" y2="1679.132"/>
      <line x1="452.299" y1="1630.132" x2="402.299" y2="1630.132"/>
      <line x1="452.299" y1="1631.132" x2="402.299" y2="1631.132"/>
      <line x1="452.299" y1="1632.132" x2="402.299" y2="1632.132"/>
      <line x1="452.299" y1="1633.132" x2="402.299" y2="1633.132"/>
      <line x1="452.299" y1="1634.132" x2="402.299" y2="1634.132"/>
      <line x1="452.299" y1="1635.132" x2="402.299" y2="1635.132"/>
      <line x1="452.299" y1="1636.132" x2="402.299" y2="1636.132"/>
      <line x1="452.299" y1="1637.132" x2="402.299" y2="1637.132"/>
      <line x1="452.299" y1="1638.132" x2="402.299" y2="1638.132"/>
      <line x1="452.299" y1="1639.132" x2="402.299" y2="1639.132"/>
      <line x1="452.299" y1="1640.132" x2="402.299" y2="1640.132"/>
      <line x1="452.299" y1="1641.132" x2="402.299" y2="1641.132"/>
      <line x1="452.299" y1="1642.132" x2="402.299" y2="1642.132"/>
      <line x1="452.299" y1="1643.132" x2="402.299" y2="1643.132"/>
      <line x1="452.299" y1="1644.132" x2="402.299" y2="1644.132"/>
      <line x1="452.299" y1="1645.132" x2="402.299" y2="1645.132"/>
      <line x1="452.299" y1="1646.132" x2="402.299" y2="1646.132"/>
      <line x1="452.299" y1="1647.132" x2="402.299" y2="1647.132"/>
      <line x1="452.299" y1="1648.132" x2="402.299" y2="1648.132"/>
      <line x1="452.299" y1="1649.132" x2="402.299" y2="1649.132"/>
      <line x1="452.299" y1="1650.132" x2="402.299" y2="1650.132"/>
      <line x1="452.299" y1="1651.132" x2="402.299" y2="1651.132"/>
      <line x1="452.299" y1="1652.132" x2="402.299" y2="1652.132"/>
      <line x1="452.299" y1="1653.132" x2="402.299" y2="1653.132"/>
      <line x1="452.299" y1="1654.132" x2="402.299" y2="1654.132"/>
      <line x1="452.299" y1="1655.132" x2="402.299" y2="1655.132"/>
      <line x1="452.299" y1="1656.132" x2="402.299" y2="1656.132"/>
      <line x1="452.299" y1="1657.132" x2="402.299" y2="1657.132"/>
      <line x1="452.299" y1="1658.132" x2="402.299" y2="1658.132"/>
      <line x1="452.299" y1="1659.132" x2="402.299" y2="1659.132"/>
      <line x1="452.299" y1="1660.132" x2="402.299" y2="1660.132"/>
      <line x1="452.299" y1="1661.132" x2="402.299" y2="1661.132"/>
      <line x1="452.299" y1="1662.132" x2="402.299" y2="1662.132"/>
      <line x1="452.299" y1="1663.132" x2="402.299" y2="1663.132"/>
      <line x1="452.299" y1="1664.132" x2="402.299" y2="1664.132"/>
      <line x1="452.299" y1="1665.132" x2="402.299" y2="1665.132"/>
      <line x1="452.299" y1="1666.132" x2="402.299" y2="1666.132"/>
      <line x1="452.299" y1="1667.132" x2="402.299" y2="1667.132"/>
      <line x1="452.299" y1="1668.132" x2="402.299" y2="1668.132"/>
      <line x1="452.299" y1="1669.132" x2="402.299" y2="1669.132"/>
      <line x1="452.299" y1="1670.132" x2="402.299" y2="1670.132"/>
      <line x1="452.299" y1="1671.132" x2="402.299" y2="1671.132"/>
      <line x1="452.299" y1="1672.132" x2="402.299" y2="1672.132"/>
      <line x1="452.299" y1="1673.132" x2="402.299" y2="1673.132"/>
      <line x1="452.299" y1="1674.132" x2="402.299" y2="1674.132"/>
      <line x1="452.299" y1="1675.132" x2="402.299" y2="1675.132"/>
      <line x1="452.299" y1="1676.132" x2="402.299" y2="1676.132"/>
      <line x1="452.299" y1="1677.132" x2="402.299" y2="1677.132"/>
      <line x1="452.299" y1="1678.132" x2="402.299" y2="1678.132"/>
      <line x1="452.299" y1="1679.132" x2="402.299" y2="1679.132"/>
      <line x1="498.301" y1="1630.132" x2="452.399" y2="1630.132"/>
      <line x1="498.301" y1="1631.132" x2="452.399" y2="1631.132"/>
      <line x1="498.301" y1="1632.132" x2="452.399" y2="1632.132"/>
      <line x1="498.301" y1="1633.132" x2="452.399" y2="1633.132"/>
      <line x1="498.301" y1="1634.132" x2="452.399" y2="1634.132"/>
      <line x1="498.301" y1="1635.132" x2="452.399" y2="1635.132"/>
      <line x1="498.301" y1="1636.132" x2="452.399" y2="1636.132"/>
      <line x1="498.301" y1="1637.132" x2="452.399" y2="1637.132"/>
      <line x1="498.301" y1="1638.132" x2="452.399" y2="1638.132"/>
      <line x1="498.301" y1="1639.132" x2="452.399" y2="1639.132"/>
      <line x1="498.301" y1="1640.132" x2="452.399" y2="1640.132"/>
      <line x1="498.301" y1="1641.132" x2="452.399" y2="1641.132"/>
      <line x1="498.301" y1="1642.132" x2="452.399" y2="1642.132"/>
      <line x1="498.301" y1="1643.132" x2="452.399" y2="1643.132"/>
      <line x1="498.301" y1="1644.132" x2="452.399" y2="1644.132"/>
      <line x1="498.301" y1="1645.132" x2="452.399" y2="1645.132"/>
      <line x1="498.301" y1="1646.132" x2="452.399" y2="1646.132"/>
      <line x1="498.301" y1="1647.132" x2="452.399" y2="1647.132"/>
      <line x1="498.301" y1="1648.132" x2="452.399" y2="1648.132"/>
      <line x1="498.301" y1="1649.132" x2="452.399" y2="1649.132"/>
      <line x1="498.301" y1="1650.132" x2="452.399" y2="1650.132"/>
      <line x1="498.301" y1="1651.132" x2="452.399" y2="1651.132"/>
      <line x1="498.301" y1="1652.132" x2="452.399" y2="1652.132"/>
      <line x1="498.301" y1="1653.132" x2="452.399" y2="1653.132"/>
      <line x1="498.301" y1="1654.132" x2="452.399" y2="1654.132"/>
      <line x1="498.301" y1="1655.132" x2="452.399" y2="1655.132"/>
      <line x1="498.301" y1="1656.132" x2="452.399" y2="1656.132"/>
      <line x1="498.301" y1="1657.132" x2="452.399" y2="1657.132"/>
      <line x1="498.301" y1="1658.132" x2="452.399" y2="1658.132"/>
      <line x1="498.301" y1="1659.132" x2="452.399" y2="1659.132"/>
      <line x1="498.301" y1="1660.132" x2="452.399" y2="1660.132"/>
      <line x1="498.301" y1="1661.132" x2="452.399" y2="1661.132"/>
      <line x1="498.301" y1="1662.132" x2="452.399" y2="1662.132"/>
      <line x1="498.301" y1="1663.132" x2="452.399" y2="1663.132"/>
      <line x1="498.301" y1="1664.132" x2="452.399" y2="1664.132"/>
      <line x1="498.301" y1="1665.132" x2="452.399" y2="1665.132"/>
      <line x1="498.301" y1="1666.132" x2="452.399" y2="1666.132"/>
      <line x1="498.301" y1="1667.132" x2="452.399" y2="1667.132"/>
      <line x1="498.301" y1="1668.132" x2="452.399" y2="1668.132"/>
      <line x1="498.301" y1="1669.132" x2="452.399" y2="1669.132"/>
      <line x1="498.301" y1="1670.132" x2="452.399" y2="1670.132"/>
      <line x1="498.301" y1="1671.132" x2="452.399" y2="1671.132"/>
      <line x1="498.301" y1="1672.132" x2="452.399" y2="1672.132"/>
      <line x1="498.301" y1="1673.132" x2="452.399" y2="1673.132"/>
      <line x1="498.301" y1="1674.132" x2="452.399" y2="1674.132"/>
      <line x1="498.301" y1="1675.132" x2="452.399" y2="1675.132"/>
      <line x1="498.301" y1="1676.132" x2="452.399" y2="1676.132"/>
      <line x1="498.301" y1="1677.132" x2="452.399" y2="1677.132"/>
      <line x1="498.301" y1="1678.132" x2="452.399" y2="1678.132"/>
      <line x1="498.301" y1="1679.132" x2="452.399" y2="1679.132"/>
      <line x1="151.699" y1="1579.132" x2="101.699" y2="1579.132"/>
      <line x1="151.699" y1="1580.132" x2="101.699" y2="1580.132"/>
      <line x1="151.699" y1="1581.132" x2="101.699" y2="1581.132"/>
      <line x1="151.699" y1="1582.132" x2="101.699" y2="1582.132"/>
      <line x1="151.699" y1="1583.132" x2="101.699" y2="1583.132"/>
      <line x1="151.699" y1="1584.132" x2="101.699" y2="1584.132"/>
      <line x1="151.699" y1="1585.132" x2="101.699" y2="1585.132"/>
      <line x1="151.699" y1="1586.132" x2="101.699" y2="1586.132"/>
      <line x1="151.699" y1="1587.132" x2="101.699" y2="1587.132"/>
      <line x1="151.699" y1="1588.132" x2="101.699" y2="1588.132"/>
      <line x1="151.699" y1="1589.132" x2="101.699" y2="1589.132"/>
      <line x1="151.699" y1="1590.132" x2="101.699" y2="1590.132"/>
      <line x1="151.699" y1="1591.132" x2="101.699" y2="1591.132"/>
      <line x1="151.699" y1="1592.132" x2="101.699" y2="1592.132"/>
      <line x1="151.699" y1="1593.132" x2="101.699" y2="1593.132"/>
      <line x1="151.699" y1="1594.132" x2="101.699" y2="1594.132"/>
      <line x1="151.699" y1="1595.132" x2="101.699" y2="1595.132"/>
      <line x1="151.699" y1="1596.132" x2="101.699" y2="1596.132"/>
      <line x1="151.699" y1="1597.132" x2="101.699" y2="1597.132"/>
      <line x1="151.699" y1="1598.132" x2="101.699" y2="1598.132"/>
      <line x1="151.699" y1="1599.132" x2="101.699" y2="1599.132"/>
      <line x1="151.699" y1="1600.132" x2="101.699" y2="1600.132"/>
      <line x1="151.699" y1="1601.132" x2="101.699" y2="1601.132"/>
      <line x1="151.699" y1="1602.132" x2="101.699" y2="1602.132"/>
      <line x1="151.699" y1="1603.132" x2="101.699" y2="1603.132"/>
      <line x1="151.699" y1="1604.132" x2="101.699" y2="1604.132"/>
      <line x1="151.699" y1="1605.132" x2="101.699" y2="1605.132"/>
      <line x1="151.699" y1="1606.132" x2="101.699" y2="1606.132"/>
      <line x1="151.699" y1="1607.132" x2="101.699" y2="1607.132"/>
      <line x1="151.699" y1="1608.132" x2="101.699" y2="1608.132"/>
      <line x1="151.699" y1="1609.132" x2="101.699" y2="1609.132"/>
      <line x1="151.699" y1="1610.132" x2="101.699" y2="1610.132"/>
      <line x1="151.699" y1="1611.132" x2="101.699" y2="1611.132"/>
      <line x1="151.699" y1="1612.132" x2="101.699" y2="1612.132"/>
      <line x1="151.699" y1="1613.132" x2="101.699" y2="1613.132"/>
      <line x1="151.699" y1="1614.132" x2="101.699" y2="1614.132"/>
      <line x1="151.699" y1="1615.132" x2="101.699" y2="1615.132"/>
      <line x1="151.699" y1="1616.132" x2="101.699" y2="1616.132"/>
      <line x1="151.699" y1="1617.132" x2="101.699" y2="1617.132"/>
      <line x1="151.699" y1="1618.132" x2="101.699" y2="1618.132"/>
      <line x1="151.699" y1="1619.132" x2="101.699" y2="1619.132"/>
      <line x1="151.699" y1="1620.132" x2="101.699" y2="1620.132"/>
      <line x1="151.699" y1="1621.132" x2="101.699" y2="1621.132"/>
      <line x1="151.699" y1="1622.132" x2="101.699" y2="1622.132"/>
      <line x1="151.699" y1="1623.132" x2="101.699" y2="1623.132"/>
      <line x1="151.699" y1="1624.132" x2="101.699" y2="1624.132"/>
      <line x1="151.699" y1="1625.132" x2="101.699" y2="1625.132"/>
      <line x1="151.699" y1="1626.132" x2="101.699" y2="1626.132"/>
      <line x1="151.699" y1="1627.132" x2="101.699" y2="1627.132"/>
      <line x1="151.699" y1="1628.132" x2="101.699" y2="1628.132"/>
      <line x1="201.799" y1="1579.132" x2="151.799" y2="1579.132"/>
      <line x1="201.799" y1="1580.132" x2="151.799" y2="1580.132"/>
      <line x1="201.799" y1="1581.132" x2="151.799" y2="1581.132"/>
      <line x1="201.799" y1="1582.132" x2="151.799" y2="1582.132"/>
      <line x1="201.799" y1="1583.132" x2="151.799" y2="1583.132"/>
      <line x1="201.799" y1="1584.132" x2="151.799" y2="1584.132"/>
      <line x1="201.799" y1="1585.132" x2="151.799" y2="1585.132"/>
      <line x1="201.799" y1="1586.132" x2="151.799" y2="1586.132"/>
      <line x1="201.799" y1="1587.132" x2="151.799" y2="1587.132"/>
      <line x1="201.799" y1="1588.132" x2="151.799" y2="1588.132"/>
      <line x1="201.799" y1="1589.132" x2="151.799" y2="1589.132"/>
      <line x1="201.799" y1="1590.132" x2="151.799" y2="1590.132"/>
      <line x1="201.799" y1="1591.132" x2="151.799" y2="1591.132"/>
      <line x1="201.799" y1="1592.132" x2="151.799" y2="1592.132"/>
      <line x1="201.799" y1="1593.132" x2="151.799" y2="1593.132"/>
      <line x1="201.799" y1="1594.132" x2="151.799" y2="1594.132"/>
      <line x1="201.799" y1="1595.132" x2="151.799" y2="1595.132"/>
      <line x1="201.799" y1="1596.132" x2="151.799" y2="1596.132"/>
      <line x1="201.799" y1="1597.132" x2="151.799" y2="1597.132"/>
      <line x1="201.799" y1="1598.132" x2="151.799" y2="1598.132"/>
      <line x1="201.799" y1="1599.132" x2="151.799" y2="1599.132"/>
      <line x1="201.799" y1="1600.132" x2="151.799" y2="1600.132"/>
      <line x1="201.799" y1="1601.132" x2="151.799" y2="1601.132"/>
      <line x1="201.799" y1="1602.132" x2="151.799" y2="1602.132"/>
      <line x1="201.799" y1="1603.132" x2="151.799" y2="1603.132"/>
      <line x1="201.799" y1="1604.132" x2="151.799" y2="1604.132"/>
      <line x1="201.799" y1="1605.132" x2="151.799" y2="1605.132"/>
      <line x1="201.799" y1="1606.132" x2="151.799" y2="1606.132"/>
      <line x1="201.799" y1="1607.132" x2="151.799" y2="1607.132"/>
      <line x1="201.799" y1="1608.132" x2="151.799" y2="1608.132"/>
      <line x1="201.799" y1="1609.132" x2="151.799" y2="1609.132"/>
      <line x1="201.799" y1="1610.132" x2="151.799" y2="1610.132"/>
      <line x1="201.799" y1="1611.132" x2="151.799" y2="1611.132"/>
      <line x1="201.799" y1="1612.132" x2="151.799" y2="1612.132"/>
      <line x1="201.799" y1="1613.132" x2="151.799" y2="1613.132"/>
      <line x1="201.799" y1="1614.132" x2="151.799" y2="1614.132"/>
      <line x1="201.799" y1="1615.132" x2="151.799" y2="1615.132"/>
      <line x1="201.799" y1="1616.132" x2="151.799" y2="1616.132"/>
      <line x1="201.799" y1="1617.132" x2="151.799" y2="1617.132"/>
      <line x1="201.799" y1="1618.132" x2="151.799" y2="1618.132"/>
      <line x1="201.799" y1="1619.132" x2="151.799" y2="1619.132"/>
      <line x1="201.799" y1="1620.132" x2="151.799" y2="1620.132"/>
      <line x1="201.799" y1="1621.132" x2="151.799" y2="1621.132"/>
      <line x1="201.799" y1="1622.132" x2="151.799" y2="1622.132"/>
      <line x1="201.799" y1="1623.132" x2="151.799" y2="1623.132"/>
      <line x1="201.799" y1="1624.132" x2="151.799" y2="1624.132"/>
      <line x1="201.799" y1="1625.132" x2="151.799" y2="1625.132"/>
      <line x1="201.799" y1="1626.132" x2="151.799" y2="1626.132"/>
      <line x1="201.799" y1="1627.132" x2="151.799" y2="1627.132"/>
      <line x1="201.799" y1="1628.132" x2="151.799" y2="1628.132"/>
      <line x1="251.899" y1="1579.132" x2="201.899" y2="1579.132"/>
      <line x1="251.899" y1="1580.132" x2="201.899" y2="1580.132"/>
      <line x1="251.899" y1="1581.132" x2="201.899" y2="1581.132"/>
      <line x1="251.899" y1="1582.132" x2="201.899" y2="1582.132"/>
      <line x1="251.899" y1="1583.132" x2="201.899" y2="1583.132"/>
      <line x1="251.899" y1="1584.132" x2="201.899" y2="1584.132"/>
      <line x1="251.899" y1="1585.132" x2="201.899" y2="1585.132"/>
      <line x1="251.899" y1="1586.132" x2="201.899" y2="1586.132"/>
      <line x1="251.899" y1="1587.132" x2="201.899" y2="1587.132"/>
      <line x1="251.899" y1="1588.132" x2="201.899" y2="1588.132"/>
      <line x1="251.899" y1="1589.132" x2="201.899" y2="1589.132"/>
      <line x1="251.899" y1="1590.132" x2="201.899" y2="1590.132"/>
      <line x1="251.899" y1="1591.132" x2="201.899" y2="1591.132"/>
      <line x1="251.899" y1="1592.132" x2="201.899" y2="1592.132"/>
      <line x1="251.899" y1="1593.132" x2="201.899" y2="1593.132"/>
      <line x1="251.899" y1="1594.132" x2="201.899" y2="1594.132"/>
      <line x1="251.899" y1="1595.132" x2="201.899" y2="1595.132"/>
      <line x1="251.899" y1="1596.132" x2="201.899" y2="1596.132"/>
      <line x1="251.899" y1="1597.132" x2="201.899" y2="1597.132"/>
      <line x1="251.899" y1="1598.132" x2="201.899" y2="1598.132"/>
      <line x1="251.899" y1="1599.132" x2="201.899" y2="1599.132"/>
      <line x1="251.899" y1="1600.132" x2="201.899" y2="1600.132"/>
      <line x1="251.899" y1="1601.132" x2="201.899" y2="1601.132"/>
      <line x1="251.899" y1="1602.132" x2="201.899" y2="1602.132"/>
      <line x1="251.899" y1="1603.132" x2="201.899" y2="1603.132"/>
      <line x1="251.899" y1="1604.132" x2="201.899" y2="1604.132"/>
      <line x1="251.899" y1="1605.132" x2="201.899" y2="1605.132"/>
      <line x1="251.899" y1="1606.132" x2="201.899" y2="1606.132"/>
      <line x1="251.899" y1="1607.132" x2="201.899" y2="1607.132"/>
      <line x1="251.899" y1="1608.132" x2="201.899" y2="1608.132"/>
      <line x1="251.899" y1="1609.132" x2="201.899" y2="1609.132"/>
      <line x1="251.899" y1="1610.132" x2="201.899" y2="1610.132"/>
      <line x1="251.899" y1="1611.132" x2="201.899" y2="1611.132"/>
      <line x1="251.899" y1="1612.132" x2="201.899" y2="1612.132"/>
      <line x1="251.899" y1="1613.132" x2="201.899" y2="1613.132"/>
      <line x1="251.899" y1="1614.132" x2="201.899" y2="1614.132"/>
      <line x1="251.899" y1="1615.132" x2="201.899" y2="1615.132"/>
      <line x1="251.899" y1="1616.132" x2="201.899" y2="1616.132"/>
      <line x1="251.899" y1="1617.132" x2="201.899" y2="1617.132"/>
      <line x1="251.899" y1="1618.132" x2="201.899" y2="1618.132"/>
      <line x1="251.899" y1="1619.132" x2="201.899" y2="1619.132"/>
      <line x1="251.899" y1="1620.132" x2="201.899" y2="1620.132"/>
      <line x1="251.899" y1="1621.132" x2="201.899" y2="1621.132"/>
      <line x1="251.899" y1="1622.132" x2="201.899" y2="1622.132"/>
      <line x1="251.899" y1="1623.132" x2="201.899" y2="1623.132"/>
      <line x1="251.899" y1="1624.132" x2="201.899" y2="1624.132"/>
      <line x1="251.899" y1="1625.132" x2="201.899" y2="1625.132"/>
      <line x1="251.899" y1="1626.132" x2="201.899" y2="1626.132"/>
      <line x1="251.899" y1="1627.132" x2="201.899" y2="1627.132"/>
      <line x1="251.899" y1="1628.132" x2="201.899" y2="1628.132"/>
      <line x1="301.999" y1="1579.132" x2="251.999" y2="1579.132"/>
      <line x1="301.999" y1="1580.132" x2="251.999" y2="1580.132"/>
      <line x1="301.999" y1="1581.132" x2="251.999" y2="1581.132"/>
      <line x1="301.999" y1="1582.132" x2="251.999" y2="1582.132"/>
      <line x1="301.999" y1="1583.132" x2="251.999" y2="1583.132"/>
      <line x1="301.999" y1="1584.132" x2="251.999" y2="1584.132"/>
      <line x1="301.999" y1="1585.132" x2="251.999" y2="1585.132"/>
      <line x1="301.999" y1="1586.132" x2="251.999" y2="1586.132"/>
      <line x1="301.999" y1="1587.132" x2="251.999" y2="1587.132"/>
      <line x1="301.999" y1="1588.132" x2="251.999" y2="1588.132"/>
      <line x1="301.999" y1="1589.132" x2="251.999" y2="1589.132"/>
      <line x1="301.999" y1="1590.132" x2="251.999" y2="1590.132"/>
      <line x1="301.999" y1="1591.132" x2="251.999" y2="1591.132"/>
      <line x1="301.999" y1="1592.132" x2="251.999" y2="1592.132"/>
      <line x1="301.999" y1="1593.132" x2="251.999" y2="1593.132"/>
      <line x1="301.999" y1="1594.132" x2="251.999" y2="1594.132"/>
      <line x1="301.999" y1="1595.132" x2="251.999" y2="1595.132"/>
      <line x1="301.999" y1="1596.132" x2="251.999" y2="1596.132"/>
      <line x1="301.999" y1="1597.132" x2="251.999" y2="1597.132"/>
      <line x1="301.999" y1="1598.132" x2="251.999" y2="1598.132"/>
      <line x1="301.999" y1="1599.132" x2="251.999" y2="1599.132"/>
      <line x1="301.999" y1="1600.132" x2="251.999" y2="1600.132"/>
      <line x1="301.999" y1="1601.132" x2="251.999" y2="1601.132"/>
      <line x1="301.999" y1="1602.132" x2="251.999" y2="1602.132"/>
      <line x1="301.999" y1="1603.132" x2="251.999" y2="1603.132"/>
      <line x1="301.999" y1="1604.132" x2="251.999" y2="1604.132"/>
      <line x1="301.999" y1="1605.132" x2="251.999" y2="1605.132"/>
      <line x1="301.999" y1="1606.132" x2="251.999" y2="1606.132"/>
      <line x1="301.999" y1="1607.132" x2="251.999" y2="1607.132"/>
      <line x1="301.999" y1="1608.132" x2="251.999" y2="1608.132"/>
      <line x1="301.999" y1="1609.132" x2="251.999" y2="1609.132"/>
      <line x1="301.999" y1="1610.132" x2="251.999" y2="1610.132"/>
      <line x1="301.999" y1="1611.132" x2="251.999" y2="1611.132"/>
      <line x1="301.999" y1="1612.132" x2="251.999" y2="1612.132"/>
      <line x1="301.999" y1="1613.132" x2="251.999" y2="1613.132"/>
      <line x1="301.999" y1="1614.132" x2="251.999" y2="1614.132"/>
      <line x1="301.999" y1="1615.132" x2="251.999" y2="1615.132"/>
      <line x1="301.999" y1="1616.132" x2="251.999" y2="1616.132"/>
      <line x1="301.999" y1="1617.132" x2="251.999" y2="1617.132"/>
      <line x1="301.999" y1="1618.132" x2="251.999" y2="1618.132"/>
      <line x1="301.999" y1="1619.132" x2="251.999" y2="1619.132"/>
      <line x1="301.999" y1="1620.132" x2="251.999" y2="1620.132"/>
      <line x1="301.999" y1="1621.132" x2="251.999" y2="1621.132"/>
      <line x1="301.999" y1="1622.132" x2="251.999" y2="1622.132"/>
      <line x1="301.999" y1="1623.132" x2="251.999" y2="1623.132"/>
      <line x1="301.999" y1="1624.132" x2="251.999" y2="1624.132"/>
      <line x1="301.999" y1="1625.132" x2="251.999" y2="1625.132"/>
      <line x1="301.999" y1="1626.132" x2="251.999" y2="1626.132"/>
      <line x1="301.999" y1="1627.132" x2="251.999" y2="1627.132"/>
      <line x1="301.999" y1="1628.132" x2="251.999" y2="1628.132"/>
      <line x1="352.099" y1="1579.132" x2="302.099" y2="1579.132"/>
      <line x1="352.099" y1="1580.132" x2="302.099" y2="1580.132"/>
      <line x1="352.099" y1="1581.132" x2="302.099" y2="1581.132"/>
      <line x1="352.099" y1="1582.132" x2="302.099" y2="1582.132"/>
      <line x1="352.099" y1="1583.132" x2="302.099" y2="1583.132"/>
      <line x1="352.099" y1="1584.132" x2="302.099" y2="1584.132"/>
      <line x1="352.099" y1="1585.132" x2="302.099" y2="1585.132"/>
      <line x1="352.099" y1="1586.132" x2="302.099" y2="1586.132"/>
      <line x1="352.099" y1="1587.132" x2="302.099" y2="1587.132"/>
      <line x1="352.099" y1="1588.132" x2="302.099" y2="1588.132"/>
      <line x1="352.099" y1="1589.132" x2="302.099" y2="1589.132"/>
      <line x1="352.099" y1="1590.132" x2="302.099" y2="1590.132"/>
      <line x1="352.099" y1="1591.132" x2="302.099" y2="1591.132"/>
      <line x1="352.099" y1="1592.132" x2="302.099" y2="1592.132"/>
      <line x1="352.099" y1="1593.132" x2="302.099" y2="1593.132"/>
      <line x1="352.099" y1="1594.132" x2="302.099" y2="1594.132"/>
      <line x1="352.099" y1="1595.132" x2="302.099" y2="1595.132"/>
      <line x1="352.099" y1="1596.132" x2="302.099" y2="1596.132"/>
      <line x1="352.099" y1="1597.132" x2="302.099" y2="1597.132"/>
      <line x1="352.099" y1="1598.132" x2="302.099" y2="1598.132"/>
      <line x1="352.099" y1="1599.132" x2="302.099" y2="1599.132"/>
      <line x1="352.099" y1="1600.132" x2="302.099" y2="1600.132"/>
      <line x1="352.099" y1="1601.132" x2="302.099" y2="1601.132"/>
      <line x1="352.099" y1="1602.132" x2="302.099" y2="1602.132"/>
      <line x1="352.099" y1="1603.132" x2="302.099" y2="1603.132"/>
      <line x1="352.099" y1="1604.132" x2="302.099" y2="1604.132"/>
      <line x1="352.099" y1="1605.132" x2="302.099" y2="1605.132"/>
      <line x1="352.099" y1="1606.132" x2="302.099" y2="1606.132"/>
      <line x1="352.099" y1="1607.132" x2="302.099" y2="1607.132"/>
      <line x1="352.099" y1="1608.132" x2="302.099" y2="1608.132"/>
      <line x1="352.099" y1="1609.132" x2="302.099" y2="1609.132"/>
      <line x1="352.099" y1="1610.132" x2="302.099" y2="1610.132"/>
      <line x1="352.099" y1="1611.132" x2="302.099" y2="1611.132"/>
      <line x1="352.099" y1="1612.132" x2="302.099" y2="1612.132"/>
      <line x1="352.099" y1="1613.132" x2="302.099" y2="1613.132"/>
      <line x1="352.099" y1="1614.132" x2="302.099" y2="1614.132"/>
      <line x1="352.099" y1="1615.132" x2="302.099" y2="1615.132"/>
      <line x1="352.099" y1="1616.132" x2="302.099" y2="1616.132"/>
      <line x1="352.099" y1="1617.132" x2="302.099" y2="1617.132"/>
      <line x1="352.099" y1="1618.132" x2="302.099" y2="1618.132"/>
      <line x1="352.099" y1="1619.132" x2="302.099" y2="1619.132"/>
      <line x1="352.099" y1="1620.132" x2="302.099" y2="1620.132"/>
      <line x1="352.099" y1="1621.132" x2="302.099" y2="1621.132"/>
      <line x1="352.099" y1="1622.132" x2="302.099" y2="1622.132"/>
      <line x1="352.099" y1="1623.132" x2="302.099" y2="1623.132"/>
      <line x1="352.099" y1="1624.132" x2="302.099" y2="1624.132"/>
      <line x1="352.099" y1="1625.132" x2="302.099" y2="1625.132"/>
      <line x1="352.099" y1="1626.132" x2="302.099" y2="1626.132"/>
      <line x1="352.099" y1="1627.132" x2="302.099" y2="1627.132"/>
      <line x1="352.099" y1="1628.132" x2="302.099" y2="1628.132"/>
      <line x1="402.199" y1="1579.132" x2="352.199" y2="1579.132"/>
      <line x1="402.199" y1="1580.132" x2="352.199" y2="1580.132"/>
      <line x1="402.199" y1="1581.132" x2="352.199" y2="1581.132"/>
      <line x1="402.199" y1="1582.132" x2="352.199" y2="1582.132"/>
      <line x1="402.199" y1="1583.132" x2="352.199" y2="1583.132"/>
      <line x1="402.199" y1="1584.132" x2="352.199" y2="1584.132"/>
      <line x1="402.199" y1="1585.132" x2="352.199" y2="1585.132"/>
      <line x1="402.199" y1="1586.132" x2="352.199" y2="1586.132"/>
      <line x1="402.199" y1="1587.132" x2="352.199" y2="1587.132"/>
      <line x1="402.199" y1="1588.132" x2="352.199" y2="1588.132"/>
      <line x1="402.199" y1="1589.132" x2="352.199" y2="1589.132"/>
      <line x1="402.199" y1="1590.132" x2="352.199" y2="1590.132"/>
      <line x1="402.199" y1="1591.132" x2="352.199" y2="1591.132"/>
      <line x1="402.199" y1="1592.132" x2="352.199" y2="1592.132"/>
      <line x1="402.199" y1="1593.132" x2="352.199" y2="1593.132"/>
      <line x1="402.199" y1="1594.132" x2="352.199" y2="1594.132"/>
      <line x1="402.199" y1="1595.132" x2="352.199" y2="1595.132"/>
      <line x1="402.199" y1="1596.132" x2="352.199" y2="1596.132"/>
      <line x1="402.199" y1="1597.132" x2="352.199" y2="1597.132"/>
      <line x1="402.199" y1="1598.132" x2="352.199" y2="1598.132"/>
      <line x1="402.199" y1="1599.132" x2="352.199" y2="1599.132"/>
      <line x1="402.199" y1="1600.132" x2="352.199" y2="1600.132"/>
      <line x1="402.199" y1="1601.132" x2="352.199" y2="1601.132"/>
      <line x1="402.199" y1="1602.132" x2="352.199" y2="1602.132"/>
      <line x1="402.199" y1="1603.132" x2="352.199" y2="1603.132"/>
      <line x1="402.199" y1="1604.132" x2="352.199" y2="1604.132"/>
      <line x1="402.199" y1="1605.132" x2="352.199" y2="1605.132"/>
      <line x1="402.199" y1="1606.132" x2="352.199" y2="1606.132"/>
      <line x1="402.199" y1="1607.132" x2="352.199" y2="1607.132"/>
      <line x1="402.199" y1="1608.132" x2="352.199" y2="1608.132"/>
      <line x1="402.199" y1="1609.132" x2="352.199" y2="1609.132"/>
      <line x1="402.199" y1="1610.132" x2="352.199" y2="1610.132"/>
      <line x1="402.199" y1="1611.132" x2="352.199" y2="1611.132"/>
      <line x1="402.199" y1="1612.132" x2="352.199" y2="1612.132"/>
      <line x1="402.199" y1="1613.132" x2="352.199" y2="1613.132"/>
      <line x1="402.199" y1="1614.132" x2="352.199" y2="1614.132"/>
      <line x1="402.199" y1="1615.132" x2="352.199" y2="1615.132"/>
      <line x1="402.199" y1="1616.132" x2="352.199" y2="1616.132"/>
      <line x1="402.199" y1="1617.132" x2="352.199" y2="1617.132"/>
      <line x1="402.199" y1="1618.132" x2="352.199" y2="1618.132"/>
      <line x1="402.199" y1="1619.132" x2="352.199" y2="1619.132"/>
      <line x1="402.199" y1="1620.132" x2="352.199" y2="1620.132"/>
      <line x1="402.199" y1="1621.132" x2="352.199" y2="1621.132"/>
      <line x1="402.199" y1="1622.132" x2="352.199" y2="1622.132"/>
      <line x1="402.199" y1="1623.132" x2="352.199" y2="1623.132"/>
      <line x1="402.199" y1="1624.132" x2="352.199" y2="1624.132"/>
      <line x1="402.199" y1="1625.132" x2="352.199" y2="1625.132"/>
      <line x1="402.199" y1="1626.132" x2="352.199" y2="1626.132"/>
      <line x1="402.199" y1="1627.132" x2="352.199" y2="1627.132"/>
      <line x1="402.199" y1="1628.132" x2="352.199" y2="1628.132"/>
      <line x1="452.299" y1="1579.132" x2="402.299" y2="1579.132"/>
      <line x1="452.299" y1="1580.132" x2="402.299" y2="1580.132"/>
      <line x1="452.299" y1="1581.132" x2="402.299" y2="1581.132"/>
      <line x1="452.299" y1="1582.132" x2="402.299" y2="1582.132"/>
      <line x1="452.299" y1="1583.132" x2="402.299" y2="1583.132"/>
      <line x1="452.299" y1="1584.132" x2="402.299" y2="1584.132"/>
      <line x1="452.299" y1="1585.132" x2="402.299" y2="1585.132"/>
      <line x1="452.299" y1="1586.132" x2="402.299" y2="1586.132"/>
      <line x1="452.299" y1="1587.132" x2="402.299" y2="1587.132"/>
      <line x1="452.299" y1="1588.132" x2="402.299" y2="1588.132"/>
      <line x1="452.299" y1="1589.132" x2="402.299" y2="1589.132"/>
      <line x1="452.299" y1="1590.132" x2="402.299" y2="1590.132"/>
      <line x1="452.299" y1="1591.132" x2="402.299" y2="1591.132"/>
      <line x1="452.299" y1="1592.132" x2="402.299" y2="1592.132"/>
      <line x1="452.299" y1="1593.132" x2="402.299" y2="1593.132"/>
      <line x1="452.299" y1="1594.132" x2="402.299" y2="1594.132"/>
      <line x1="452.299" y1="1595.132" x2="402.299" y2="1595.132"/>
      <line x1="452.299" y1="1596.132" x2="402.299" y2="1596.132"/>
      <line x1="452.299" y1="1597.132" x2="402.299" y2="1597.132"/>
      <line x1="452.299" y1="1598.132" x2="402.299" y2="1598.132"/>
      <line x1="452.299" y1="1599.132" x2="402.299" y2="1599.132"/>
      <line x1="452.299" y1="1600.132" x2="402.299" y2="1600.132"/>
      <line x1="452.299" y1="1601.132" x2="402.299" y2="1601.132"/>
      <line x1="452.299" y1="1602.132" x2="402.299" y2="1602.132"/>
      <line x1="452.299" y1="1603.132" x2="402.299" y2="1603.132"/>
      <line x1="452.299" y1="1604.132" x2="402.299" y2="1604.132"/>
      <line x1="452.299" y1="1605.132" x2="402.299" y2="1605.132"/>
      <line x1="452.299" y1="1606.132" x2="402.299" y2="1606.132"/>
      <line x1="452.299" y1="1607.132" x2="402.299" y2="1607.132"/>
      <line x1="452.299" y1="1608.132" x2="402.299" y2="1608.132"/>
      <line x1="452.299" y1="1609.132" x2="402.299" y2="1609.132"/>
      <line x1="452.299" y1="1610.132" x2="402.299" y2="1610.132"/>
      <line x1="452.299" y1="1611.132" x2="402.299" y2="1611.132"/>
      <line x1="452.299" y1="1612.132" x2="402.299" y2="1612.132"/>
      <line x1="452.299" y1="1613.132" x2="402.299" y2="1613.132"/>
      <line x1="452.299" y1="1614.132" x2="402.299" y2="1614.132"/>
      <line x1="452.299" y1="1615.132" x2="402.299" y2="1615.132"/>
      <line x1="452.299" y1="1616.132" x2="402.299" y2="1616.132"/>
      <line x1="452.299" y1="1617.132" x2="402.299" y2="1617.132"/>
      <line x1="452.299" y1="1618.132" x2="402.299" y2="1618.132"/>
      <line x1="452.299" y1="1619.132" x2="402.299" y2="1619.132"/>
      <line x1="452.299" y1="1620.132" x2="402.299" y2="1620.132"/>
      <line x1="452.299" y1="1621.132" x2="402.299" y2="1621.132"/>
      <line x1="452.299" y1="1622.132" x2="402.299" y2="1622.132"/>
      <line x1="452.299" y1="1623.132" x2="402.299" y2="1623.132"/>
      <line x1="452.299" y1="1624.132" x2="402.299" y2="1624.132"/>
      <line x1="452.299" y1="1625.132" x2="402.299" y2="1625.132"/>
      <line x1="452.299" y1="1626.132" x2="402.299" y2="1626.132"/>
      <line x1="452.299" y1="1627.132" x2="402.299" y2="1627.132"/>
      <line x1="452.299" y1="1628.132" x2="402.299" y2="1628.132"/>
      <line x1="498.301" y1="1579.132" x2="452.399" y2="1579.132"/>
      <line x1="498.301" y1="1580.132" x2="452.399" y2="1580.132"/>
      <line x1="498.301" y1="1581.132" x2="452.399" y2="1581.132"/>
      <line x1="498.301" y1="1582.132" x2="452.399" y2="1582.132"/>
      <line x1="498.301" y1="1583.132" x2="452.399" y2="1583.132"/>
      <line x1="498.301" y1="1584.132" x2="452.399" y2="1584.132"/>
      <line x1="498.301" y1="1585.132" x2="452.399" y2="1585.132"/>
      <line x1="498.301" y1="1586.132" x2="452.399" y2="1586.132"/>
      <line x1="498.301" y1="1587.132" x2="452.399" y2="1587.132"/>
      <line x1="498.301" y1="1588.132" x2="452.399" y2="1588.132"/>
      <line x1="498.301" y1="1589.132" x2="452.399" y2="1589.132"/>
      <line x1="498.301" y1="1590.132" x2="452.399" y2="1590.132"/>
      <line x1="498.301" y1="1591.132" x2="452.399" y2="1591.132"/>
      <line x1="498.301" y1="1592.132" x2="452.399" y2="1592.132"/>
      <line x1="498.301" y1="1593.132" x2="452.399" y2="1593.132"/>
      <line x1="498.301" y1="1594.132" x2="452.399" y2="1594.132"/>
      <line x1="498.301" y1="1595.132" x2="452.399" y2="1595.132"/>
      <line x1="498.301" y1="1596.132" x2="452.399" y2="1596.132"/>
      <line x1="498.301" y1="1597.132" x2="452.399" y2="1597.132"/>
      <line x1="498.301" y1="1598.132" x2="452.399" y2="1598.132"/>
      <line x1="498.301" y1="1599.132" x2="452.399" y2="1599.132"/>
      <line x1="498.301" y1="1600.132" x2="452.399" y2="1600.132"/>
      <line x1="498.301" y1="1601.132" x2="452.399" y2="1601.132"/>
      <line x1="498.301" y1="1602.132" x2="452.399" y2="1602.132"/>
      <line x1="498.301" y1="1603.132" x2="452.399" y2="1603.132"/>
      <line x1="498.301" y1="1604.132" x2="452.399" y2="1604.132"/>
      <line x1="498.301" y1="1605.132" x2="452.399" y2="1605.132"/>
      <line x1="498.301" y1="1606.132" x2="452.399" y2="1606.132"/>
      <line x1="498.301" y1="1607.132" x2="452.399" y2="1607.132"/>
      <line x1="498.301" y1="1608.132" x2="452.399" y2="1608.132"/>
      <line x1="498.301" y1="1609.132" x2="452.399" y2="1609.132"/>
      <line x1="498.301" y1="1610.132" x2="452.399" y2="1610.132"/>
      <line x1="498.301" y1="1611.132" x2="452.399" y2="1611.132"/>
      <line x1="498.301" y1="1612.132" x2="452.399" y2="1612.132"/>
      <line x1="498.301" y1="1613.132" x2="452.399" y2="1613.132"/>
      <line x1="498.301" y1="1614.132" x2="452.399" y2="1614.132"/>
      <line x1="498.301" y1="1615.132" x2="452.399" y2="1615.132"/>
      <line x1="498.301" y1="1616.132" x2="452.399" y2="1616.132"/>
      <line x1="498.301" y1="1617.132" x2="452.399" y2="1617.132"/>
      <line x1="498.301" y1="1618.132" x2="452.399" y2="1618.132"/>
      <line x1="498.301" y1="1619.132" x2="452.399" y2="1619.132"/>
      <line x1="498.301" y1="1620.132" x2="452.399" y2="1620.132"/>
      <line x1="498.301" y1="1621.132" x2="452.399" y2="1621.132"/>
      <line x1="498.301" y1="1622.132" x2="452.399" y2="1622.132"/>
      <line x1="498.301" y1="1623.132" x2="452.399" y2="1623.132"/>
      <line x1="498.301" y1="1624.132" x2="452.399" y2="1624.132"/>
      <line x1="498.301" y1="1625.132" x2="452.399" y2="1625.132"/>
      <line x1="498.301" y1="1626.132" x2="452.399" y2="1626.132"/>
      <line x1="498.301" y1="1627.132" x2="452.399" y2="1627.132"/>
      <line x1="498.301" y1="1628.132" x2="452.399" y2="1628.132"/>
      <line x1="151.699" y1="1529.132" x2="101.699" y2="1529.132"/>
      <line x1="151.699" y1="1530.132" x2="101.699" y2="1530.132"/>
      <line x1="151.699" y1="1531.132" x2="101.699" y2="1531.132"/>
      <line x1="151.699" y1="1532.132" x2="101.699" y2="1532.132"/>
      <line x1="151.699" y1="1533.132" x2="101.699" y2="1533.132"/>
      <line x1="151.699" y1="1534.132" x2="101.699" y2="1534.132"/>
      <line x1="151.699" y1="1535.132" x2="101.699" y2="1535.132"/>
      <line x1="151.699" y1="1536.132" x2="101.699" y2="1536.132"/>
      <line x1="151.699" y1="1537.132" x2="101.699" y2="1537.132"/>
      <line x1="151.699" y1="1538.132" x2="101.699" y2="1538.132"/>
      <line x1="151.699" y1="1539.132" x2="101.699" y2="1539.132"/>
      <line x1="151.699" y1="1540.132" x2="101.699" y2="1540.132"/>
      <line x1="151.699" y1="1541.132" x2="101.699" y2="1541.132"/>
      <line x1="151.699" y1="1542.132" x2="101.699" y2="1542.132"/>
      <line x1="151.699" y1="1543.132" x2="101.699" y2="1543.132"/>
      <line x1="151.699" y1="1544.132" x2="101.699" y2="1544.132"/>
      <line x1="151.699" y1="1545.132" x2="101.699" y2="1545.132"/>
      <line x1="151.699" y1="1546.132" x2="101.699" y2="1546.132"/>
      <line x1="151.699" y1="1547.132" x2="101.699" y2="1547.132"/>
      <line x1="151.699" y1="1548.132" x2="101.699" y2="1548.132"/>
      <line x1="151.699" y1="1549.132" x2="101.699" y2="1549.132"/>
      <line x1="151.699" y1="1550.132" x2="101.699" y2="1550.132"/>
      <line x1="151.699" y1="1551.132" x2="101.699" y2="1551.132"/>
      <line x1="151.699" y1="1552.132" x2="101.699" y2="1552.132"/>
      <line x1="151.699" y1="1553.132" x2="101.699" y2="1553.132"/>
      <line x1="151.699" y1="1554.132" x2="101.699" y2="1554.132"/>
      <line x1="151.699" y1="1555.132" x2="101.699" y2="1555.132"/>
      <line x1="151.699" y1="1556.132" x2="101.699" y2="1556.132"/>
      <line x1="151.699" y1="1557.132" x2="101.699" y2="1557.132"/>
      <line x1="151.699" y1="1558.132" x2="101.699" y2="1558.132"/>
      <line x1="151.699" y1="1559.132" x2="101.699" y2="1559.132"/>
      <line x1="151.699" y1="1560.132" x2="101.699" y2="1560.132"/>
      <line x1="151.699" y1="1561.132" x2="101.699" y2="1561.132"/>
      <line x1="151.699" y1="1562.132" x2="101.699" y2="1562.132"/>
      <line x1="151.699" y1="1563.132" x2="101.699" y2="1563.132"/>
      <line x1="151.699" y1="1564.132" x2="101.699" y2="1564.132"/>
      <line x1="151.699" y1="1565.132" x2="101.699" y2="1565.132"/>
      <line x1="151.699" y1="1566.132" x2="101.699" y2="1566.132"/>
      <line x1="151.699" y1="1567.132" x2="101.699" y2="1567.132"/>
      <line x1="151.699" y1="1568.132" x2="101.699" y2="1568.132"/>
      <line x1="151.699" y1="1569.132" x2="101.699" y2="1569.132"/>
      <line x1="151.699" y1="1570.132" x2="101.699" y2="1570.132"/>
      <line x1="151.699" y1="1571.132" x2="101.699" y2="1571.132"/>
      <line x1="151.699" y1="1572.132" x2="101.699" y2="1572.132"/>
      <line x1="151.699" y1="1573.132" x2="101.699" y2="1573.132"/>
      <line x1="151.699" y1="1574.132" x2="101.699" y2="1574.132"/>
      <line x1="151.699" y1="1575.132" x2="101.699" y2="1575.132"/>
      <line x1="151.699" y1="1576.132" x2="101.699" y2="1576.132"/>
      <line x1="151.699" y1="1577.132" x2="101.699" y2="1577.132"/>
      <line x1="151.699" y1="1578.132" x2="101.699" y2="1578.132"/>
      <line x1="201.799" y1="1529.132" x2="151.799" y2="1529.132"/>
      <line x1="201.799" y1="1530.132" x2="151.799" y2="1530.132"/>
      <line x1="201.799" y1="1531.132" x2="151.799" y2="1531.132"/>
      <line x1="201.799" y1="1532.132" x2="151.799" y2="1532.132"/>
      <line x1="201.799" y1="1533.132" x2="151.799" y2="1533.132"/>
      <line x1="201.799" y1="1534.132" x2="151.799" y2="1534.132"/>
      <line x1="201.799" y1="1535.132" x2="151.799" y2="1535.132"/>
      <line x1="201.799" y1="1536.132" x2="151.799" y2="1536.132"/>
      <line x1="201.799" y1="1537.132" x2="151.799" y2="1537.132"/>
      <line x1="201.799" y1="1538.132" x2="151.799" y2="1538.132"/>
      <line x1="201.799" y1="1539.132" x2="151.799" y2="1539.132"/>
      <line x1="201.799" y1="1540.132" x2="151.799" y2="1540.132"/>
      <line x1="201.799" y1="1541.132" x2="151.799" y2="1541.132"/>
      <line x1="201.799" y1="1542.132" x2="151.799" y2="1542.132"/>
      <line x1="201.799" y1="1543.132" x2="151.799" y2="1543.132"/>
      <line x1="201.799" y1="1544.132" x2="151.799" y2="1544.132"/>
      <line x1="201.799" y1="1545.132" x2="151.799" y2="1545.132"/>
      <line x1="201.799" y1="1546.132" x2="151.799" y2="1546.132"/>
      <line x1="201.799" y1="1547.132" x2="151.799" y2="1547.132"/>
      <line x1="201.799" y1="1548.132" x2="151.799" y2="1548.132"/>
      <line x1="201.799" y1="1549.132" x2="151.799" y2="1549.132"/>
      <line x1="201.799" y1="1550.132" x2="151.799" y2="1550.132"/>
      <line x1="201.799" y1="1551.132" x2="151.799" y2="1551.132"/>
      <line x1="201.799" y1="1552.132" x2="151.799" y2="1552.132"/>
      <line x1="201.799" y1="1553.132" x2="151.799" y2="1553.132"/>
      <line x1="201.799" y1="1554.132" x2="151.799" y2="1554.132"/>
      <line x1="201.799" y1="1555.132" x2="151.799" y2="1555.132"/>
      <line x1="201.799" y1="1556.132" x2="151.799" y2="1556.132"/>
      <line x1="201.799" y1="1557.132" x2="151.799" y2="1557.132"/>
      <line x1="201.799" y1="1558.132" x2="151.799" y2="1558.132"/>
      <line x1="201.799" y1="1559.132" x2="151.799" y2="1559.132"/>
      <line x1="201.799" y1="1560.132" x2="151.799" y2="1560.132"/>
      <line x1="201.799" y1="1561.132" x2="151.799" y2="1561.132"/>
      <line x1="201.799" y1="1562.132" x2="151.799" y2="1562.132"/>
      <line x1="201.799" y1="1563.132" x2="151.799" y2="1563.132"/>
      <line x1="201.799" y1="1564.132" x2="151.799" y2="1564.132"/>
      <line x1="201.799" y1="1565.132" x2="151.799" y2="1565.132"/>
      <line x1="201.799" y1="1566.132" x2="151.799" y2="1566.132"/>
      <line x1="201.799" y1="1567.132" x2="151.799" y2="1567.132"/>
      <line x1="201.799" y1="1568.132" x2="151.799" y2="1568.132"/>
      <line x1="201.799" y1="1569.132" x2="151.799" y2="1569.132"/>
      <line x1="201.799" y1="1570.132" x2="151.799" y2="1570.132"/>
      <line x1="201.799" y1="1571.132" x2="151.799" y2="1571.132"/>
      <line x1="201.799" y1="1572.132" x2="151.799" y2="1572.132"/>
      <line x1="201.799" y1="1573.132" x2="151.799" y2="1573.132"/>
      <line x1="201.799" y1="1574.132" x2="151.799" y2="1574.132"/>
      <line x1="201.799" y1="1575.132" x2="151.799" y2="1575.132"/>
      <line x1="201.799" y1="1576.132" x2="151.799" y2="1576.132"/>
      <line x1="201.799" y1="1577.132" x2="151.799" y2="1577.132"/>
      <line x1="201.799" y1="1578.132" x2="151.799" y2="1578.132"/>
      <line x1="251.899" y1="1529.132" x2="201.899" y2="1529.132"/>
      <line x1="251.899" y1="1530.132" x2="201.899" y2="1530.132"/>
      <line x1="251.899" y1="1531.132" x2="201.899" y2="1531.132"/>
      <line x1="251.899" y1="1532.132" x2="201.899" y2="1532.132"/>
      <line x1="251.899" y1="1533.132" x2="201.899" y2="1533.132"/>
      <line x1="251.899" y1="1534.132" x2="201.899" y2="1534.132"/>
      <line x1="251.899" y1="1535.132" x2="201.899" y2="1535.132"/>
      <line x1="251.899" y1="1536.132" x2="201.899" y2="1536.132"/>
      <line x1="251.899" y1="1537.132" x2="201.899" y2="1537.132"/>
      <line x1="251.899" y1="1538.132" x2="201.899" y2="1538.132"/>
      <line x1="251.899" y1="1539.132" x2="201.899" y2="1539.132"/>
      <line x1="251.899" y1="1540.132" x2="201.899" y2="1540.132"/>
      <line x1="251.899" y1="1541.132" x2="201.899" y2="1541.132"/>
      <line x1="251.899" y1="1542.132" x2="201.899" y2="1542.132"/>
      <line x1="251.899" y1="1543.132" x2="201.899" y2="1543.132"/>
      <line x1="251.899" y1="1544.132" x2="201.899" y2="1544.132"/>
      <line x1="251.899" y1="1545.132" x2="201.899" y2="1545.132"/>
      <line x1="251.899" y1="1546.132" x2="201.899" y2="1546.132"/>
      <line x1="251.899" y1="1547.132" x2="201.899" y2="1547.132"/>
      <line x1="251.899" y1="1548.132" x2="201.899" y2="1548.132"/>
      <line x1="251.899" y1="1549.132" x2="201.899" y2="1549.132"/>
      <line x1="251.899" y1="1550.132" x2="201.899" y2="1550.132"/>
      <line x1="251.899" y1="1551.132" x2="201.899" y2="1551.132"/>
      <line x1="251.899" y1="1552.132" x2="201.899" y2="1552.132"/>
      <line x1="251.899" y1="1553.132" x2="201.899" y2="1553.132"/>
      <line x1="251.899" y1="1554.132" x2="201.899" y2="1554.132"/>
      <line x1="251.899" y1="1555.132" x2="201.899" y2="1555.132"/>
      <line x1="251.899" y1="1556.132" x2="201.899" y2="1556.132"/>
      <line x1="251.899" y1="1557.132" x2="201.899" y2="1557.132"/>
      <line x1="251.899" y1="1558.132" x2="201.899" y2="1558.132"/>
      <line x1="251.899" y1="1559.132" x2="201.899" y2="1559.132"/>
      <line x1="251.899" y1="1560.132" x2="201.899" y2="1560.132"/>
      <line x1="251.899" y1="1561.132" x2="201.899" y2="1561.132"/>
      <line x1="251.899" y1="1562.132" x2="201.899" y2="1562.132"/>
      <line x1="251.899" y1="1563.132" x2="201.899" y2="1563.132"/>
      <line x1="251.899" y1="1564.132" x2="201.899" y2="1564.132"/>
      <line x1="251.899" y1="1565.132" x2="201.899" y2="1565.132"/>
      <line x1="251.899" y1="1566.132" x2="201.899" y2="1566.132"/>
      <line x1="251.899" y1="1567.132" x2="201.899" y2="1567.132"/>
      <line x1="251.899" y1="1568.132" x2="201.899" y2="1568.132"/>
      <line x1="251.899" y1="1569.132" x2="201.899" y2="1569.132"/>
      <line x1="251.899" y1="1570.132" x2="201.899" y2="1570.132"/>
      <line x1="251.899" y1="1571.132" x2="201.899" y2="1571.132"/>
      <line x1="251.899" y1="1572.132" x2="201.899" y2="1572.132"/>
      <line x1="251.899" y1="1573.132" x2="201.899" y2="1573.132"/>
      <line x1="251.899" y1="1574.132" x2="201.899" y2="1574.132"/>
      <line x1="251.899" y1="1575.132" x2="201.899" y2="1575.132"/>
      <line x1="251.899" y1="1576.132" x2="201.899" y2="1576.132"/>
      <line x1="251.899" y1="1577.132" x2="201.899" y2="1577.132"/>
      <line x1="251.899" y1="1578.132" x2="201.899" y2="1578.132"/>
      <line x1="301.999" y1="1529.132" x2="251.999" y2="1529.132"/>
      <line x1="301.999" y1="1530.132" x2="251.999" y2="1530.132"/>
      <line x1="301.999" y1="1531.132" x2="251.999" y2="1531.132"/>
      <line x1="301.999" y1="1532.132" x2="251.999" y2="1532.132"/>
      <line x1="301.999" y1="1533.132" x2="251.999" y2="1533.132"/>
      <line x1="301.999" y1="1534.132" x2="251.999" y2="1534.132"/>
      <line x1="301.999" y1="1535.132" x2="251.999" y2="1535.132"/>
      <line x1="301.999" y1="1536.132" x2="251.999" y2="1536.132"/>
      <line x1="301.999" y1="1537.132" x2="251.999" y2="1537.132"/>
      <line x1="301.999" y1="1538.132" x2="251.999" y2="1538.132"/>
      <line x1="301.999" y1="1539.132" x2="251.999" y2="1539.132"/>
      <line x1="301.999" y1="1540.132" x2="251.999" y2="1540.132"/>
      <line x1="301.999" y1="1541.132" x2="251.999" y2="1541.132"/>
      <line x1="301.999" y1="1542.132" x2="251.999" y2="1542.132"/>
      <line x1="301.999" y1="1543.132" x2="251.999" y2="1543.132"/>
      <line x1="301.999" y1="1544.132" x2="251.999" y2="1544.132"/>
      <line x1="301.999" y1="1545.132" x2="251.999" y2="1545.132"/>
      <line x1="301.999" y1="1546.132" x2="251.999" y2="1546.132"/>
      <line x1="301.999" y1="1547.132" x2="251.999" y2="1547.132"/>
      <line x1="301.999" y1="1548.132" x2="251.999" y2="1548.132"/>
      <line x1="301.999" y1="1549.132" x2="251.999" y2="1549.132"/>
      <line x1="301.999" y1="1550.132" x2="251.999" y2="1550.132"/>
      <line x1="301.999" y1="1551.132" x2="251.999" y2="1551.132"/>
      <line x1="301.999" y1="1552.132" x2="251.999" y2="1552.132"/>
      <line x1="301.999" y1="1553.132" x2="251.999" y2="1553.132"/>
      <line x1="301.999" y1="1554.132" x2="251.999" y2="1554.132"/>
      <line x1="301.999" y1="1555.132" x2="251.999" y2="1555.132"/>
      <line x1="301.999" y1="1556.132" x2="251.999" y2="1556.132"/>
      <line x1="301.999" y1="1557.132" x2="251.999" y2="1557.132"/>
      <line x1="301.999" y1="1558.132" x2="251.999" y2="1558.132"/>
      <line x1="301.999" y1="1559.132" x2="251.999" y2="1559.132"/>
      <line x1="301.999" y1="1560.132" x2="251.999" y2="1560.132"/>
      <line x1="301.999" y1="1561.132" x2="251.999" y2="1561.132"/>
      <line x1="301.999" y1="1562.132" x2="251.999" y2="1562.132"/>
      <line x1="301.999" y1="1563.132" x2="251.999" y2="1563.132"/>
      <line x1="301.999" y1="1564.132" x2="251.999" y2="1564.132"/>
      <line x1="301.999" y1="1565.132" x2="251.999" y2="1565.132"/>
      <line x1="301.999" y1="1566.132" x2="251.999" y2="1566.132"/>
      <line x1="301.999" y1="1567.132" x2="251.999" y2="1567.132"/>
      <line x1="301.999" y1="1568.132" x2="251.999" y2="1568.132"/>
      <line x1="301.999" y1="1569.132" x2="251.999" y2="1569.132"/>
      <line x1="301.999" y1="1570.132" x2="251.999" y2="1570.132"/>
      <line x1="301.999" y1="1571.132" x2="251.999" y2="1571.132"/>
      <line x1="301.999" y1="1572.132" x2="251.999" y2="1572.132"/>
      <line x1="301.999" y1="1573.132" x2="251.999" y2="1573.132"/>
      <line x1="301.999" y1="1574.132" x2="251.999" y2="1574.132"/>
      <line x1="301.999" y1="1575.132" x2="251.999" y2="1575.132"/>
      <line x1="301.999" y1="1576.132" x2="251.999" y2="1576.132"/>
      <line x1="301.999" y1="1577.132" x2="251.999" y2="1577.132"/>
      <line x1="301.999" y1="1578.132" x2="251.999" y2="1578.132"/>
      <line x1="352.099" y1="1529.132" x2="302.099" y2="1529.132"/>
      <line x1="352.099" y1="1530.132" x2="302.099" y2="1530.132"/>
      <line x1="352.099" y1="1531.132" x2="302.099" y2="1531.132"/>
      <line x1="352.099" y1="1532.132" x2="302.099" y2="1532.132"/>
      <line x1="352.099" y1="1533.132" x2="302.099" y2="1533.132"/>
      <line x1="352.099" y1="1534.132" x2="302.099" y2="1534.132"/>
      <line x1="352.099" y1="1535.132" x2="302.099" y2="1535.132"/>
      <line x1="352.099" y1="1536.132" x2="302.099" y2="1536.132"/>
      <line x1="352.099" y1="1537.132" x2="302.099" y2="1537.132"/>
      <line x1="352.099" y1="1538.132" x2="302.099" y2="1538.132"/>
      <line x1="352.099" y1="1539.132" x2="302.099" y2="1539.132"/>
      <line x1="352.099" y1="1540.132" x2="302.099" y2="1540.132"/>
      <line x1="352.099" y1="1541.132" x2="302.099" y2="1541.132"/>
      <line x1="352.099" y1="1542.132" x2="302.099" y2="1542.132"/>
      <line x1="352.099" y1="1543.132" x2="302.099" y2="1543.132"/>
      <line x1="352.099" y1="1544.132" x2="302.099" y2="1544.132"/>
      <line x1="352.099" y1="1545.132" x2="302.099" y2="1545.132"/>
      <line x1="352.099" y1="1546.132" x2="302.099" y2="1546.132"/>
      <line x1="352.099" y1="1547.132" x2="302.099" y2="1547.132"/>
      <line x1="352.099" y1="1548.132" x2="302.099" y2="1548.132"/>
      <line x1="352.099" y1="1549.132" x2="302.099" y2="1549.132"/>
      <line x1="352.099" y1="1550.132" x2="302.099" y2="1550.132"/>
      <line x1="352.099" y1="1551.132" x2="302.099" y2="1551.132"/>
      <line x1="352.099" y1="1552.132" x2="302.099" y2="1552.132"/>
      <line x1="352.099" y1="1553.132" x2="302.099" y2="1553.132"/>
      <line x1="352.099" y1="1554.132" x2="302.099" y2="1554.132"/>
      <line x1="352.099" y1="1555.132" x2="302.099" y2="1555.132"/>
      <line x1="352.099" y1="1556.132" x2="302.099" y2="1556.132"/>
      <line x1="352.099" y1="1557.132" x2="302.099" y2="1557.132"/>
      <line x1="352.099" y1="1558.132" x2="302.099" y2="1558.132"/>
      <line x1="352.099" y1="1559.132" x2="302.099" y2="1559.132"/>
      <line x1="352.099" y1="1560.132" x2="302.099" y2="1560.132"/>
      <line x1="352.099" y1="1561.132" x2="302.099" y2="1561.132"/>
      <line x1="352.099" y1="1562.132" x2="302.099" y2="1562.132"/>
      <line x1="352.099" y1="1563.132" x2="302.099" y2="1563.132"/>
      <line x1="352.099" y1="1564.132" x2="302.099" y2="1564.132"/>
      <line x1="352.099" y1="1565.132" x2="302.099" y2="1565.132"/>
      <line x1="352.099" y1="1566.132" x2="302.099" y2="1566.132"/>
      <line x1="352.099" y1="1567.132" x2="302.099" y2="1567.132"/>
      <line x1="352.099" y1="1568.132" x2="302.099" y2="1568.132"/>
      <line x1="352.099" y1="1569.132" x2="302.099" y2="1569.132"/>
      <line x1="352.099" y1="1570.132" x2="302.099" y2="1570.132"/>
      <line x1="352.099" y1="1571.132" x2="302.099" y2="1571.132"/>
      <line x1="352.099" y1="1572.132" x2="302.099" y2="1572.132"/>
      <line x1="352.099" y1="1573.132" x2="302.099" y2="1573.132"/>
      <line x1="352.099" y1="1574.132" x2="302.099" y2="1574.132"/>
      <line x1="352.099" y1="1575.132" x2="302.099" y2="1575.132"/>
      <line x1="352.099" y1="1576.132" x2="302.099" y2="1576.132"/>
      <line x1="352.099" y1="1577.132" x2="302.099" y2="1577.132"/>
      <line x1="352.099" y1="1578.132" x2="302.099" y2="1578.132"/>
      <line x1="402.199" y1="1529.132" x2="352.199" y2="1529.132"/>
      <line x1="402.199" y1="1530.132" x2="352.199" y2="1530.132"/>
      <line x1="402.199" y1="1531.132" x2="352.199" y2="1531.132"/>
      <line x1="402.199" y1="1532.132" x2="352.199" y2="1532.132"/>
      <line x1="402.199" y1="1533.132" x2="352.199" y2="1533.132"/>
      <line x1="402.199" y1="1534.132" x2="352.199" y2="1534.132"/>
      <line x1="402.199" y1="1535.132" x2="352.199" y2="1535.132"/>
      <line x1="402.199" y1="1536.132" x2="352.199" y2="1536.132"/>
      <line x1="402.199" y1="1537.132" x2="352.199" y2="1537.132"/>
      <line x1="402.199" y1="1538.132" x2="352.199" y2="1538.132"/>
      <line x1="402.199" y1="1539.132" x2="352.199" y2="1539.132"/>
      <line x1="402.199" y1="1540.132" x2="352.199" y2="1540.132"/>
      <line x1="402.199" y1="1541.132" x2="352.199" y2="1541.132"/>
      <line x1="402.199" y1="1542.132" x2="352.199" y2="1542.132"/>
      <line x1="402.199" y1="1543.132" x2="352.199" y2="1543.132"/>
      <line x1="402.199" y1="1544.132" x2="352.199" y2="1544.132"/>
      <line x1="402.199" y1="1545.132" x2="352.199" y2="1545.132"/>
      <line x1="402.199" y1="1546.132" x2="352.199" y2="1546.132"/>
      <line x1="402.199" y1="1547.132" x2="352.199" y2="1547.132"/>
      <line x1="402.199" y1="1548.132" x2="352.199" y2="1548.132"/>
      <line x1="402.199" y1="1549.132" x2="352.199" y2="1549.132"/>
      <line x1="402.199" y1="1550.132" x2="352.199" y2="1550.132"/>
      <line x1="402.199" y1="1551.132" x2="352.199" y2="1551.132"/>
      <line x1="402.199" y1="1552.132" x2="352.199" y2="1552.132"/>
      <line x1="402.199" y1="1553.132" x2="352.199" y2="1553.132"/>
      <line x1="402.199" y1="1554.132" x2="352.199" y2="1554.132"/>
      <line x1="402.199" y1="1555.132" x2="352.199" y2="1555.132"/>
      <line x1="402.199" y1="1556.132" x2="352.199" y2="1556.132"/>
      <line x1="402.199" y1="1557.132" x2="352.199" y2="1557.132"/>
      <line x1="402.199" y1="1558.132" x2="352.199" y2="1558.132"/>
      <line x1="402.199" y1="1559.132" x2="352.199" y2="1559.132"/>
      <line x1="402.199" y1="1560.132" x2="352.199" y2="1560.132"/>
      <line x1="402.199" y1="1561.132" x2="352.199" y2="1561.132"/>
      <line x1="402.199" y1="1562.132" x2="352.199" y2="1562.132"/>
      <line x1="402.199" y1="1563.132" x2="352.199" y2="1563.132"/>
      <line x1="402.199" y1="1564.132" x2="352.199" y2="1564.132"/>
      <line x1="402.199" y1="1565.132" x2="352.199" y2="1565.132"/>
      <line x1="402.199" y1="1566.132" x2="352.199" y2="1566.132"/>
      <line x1="402.199" y1="1567.132" x2="352.199" y2="1567.132"/>
      <line x1="402.199" y1="1568.132" x2="352.199" y2="1568.132"/>
      <line x1="402.199" y1="1569.132" x2="352.199" y2="1569.132"/>
      <line x1="402.199" y1="1570.132" x2="352.199" y2="1570.132"/>
      <line x1="402.199" y1="1571.132" x2="352.199" y2="1571.132"/>
      <line x1="402.199" y1="1572.132" x2="352.199" y2="1572.132"/>
      <line x1="402.199" y1="1573.132" x2="352.199" y2="1573.132"/>
      <line x1="402.199" y1="1574.132" x2="352.199" y2="1574.132"/>
      <line x1="402.199" y1="1575.132" x2="352.199" y2="1575.132"/>
      <line x1="402.199" y1="1576.132" x2="352.199" y2="1576.132"/>
      <line x1="402.199" y1="1577.132" x2="352.199" y2="1577.132"/>
      <line x1="402.199" y1="1578.132" x2="352.199" y2="1578.132"/>
      <line x1="452.299" y1="1529.132" x2="402.299" y2="1529.132"/>
      <line x1="452.299" y1="1530.132" x2="402.299" y2="1530.132"/>
      <line x1="452.299" y1="1531.132" x2="402.299" y2="1531.132"/>
      <line x1="452.299" y1="1532.132" x2="402.299" y2="1532.132"/>
      <line x1="452.299" y1="1533.132" x2="402.299" y2="1533.132"/>
      <line x1="452.299" y1="1534.132" x2="402.299" y2="1534.132"/>
      <line x1="452.299" y1="1535.132" x2="402.299" y2="1535.132"/>
      <line x1="452.299" y1="1536.132" x2="402.299" y2="1536.132"/>
      <line x1="452.299" y1="1537.132" x2="402.299" y2="1537.132"/>
      <line x1="452.299" y1="1538.132" x2="402.299" y2="1538.132"/>
      <line x1="452.299" y1="1539.132" x2="402.299" y2="1539.132"/>
      <line x1="452.299" y1="1540.132" x2="402.299" y2="1540.132"/>
      <line x1="452.299" y1="1541.132" x2="402.299" y2="1541.132"/>
      <line x1="452.299" y1="1542.132" x2="402.299" y2="1542.132"/>
      <line x1="452.299" y1="1543.132" x2="402.299" y2="1543.132"/>
      <line x1="452.299" y1="1544.132" x2="402.299" y2="1544.132"/>
      <line x1="452.299" y1="1545.132" x2="402.299" y2="1545.132"/>
      <line x1="452.299" y1="1546.132" x2="402.299" y2="1546.132"/>
      <line x1="452.299" y1="1547.132" x2="402.299" y2="1547.132"/>
      <line x1="452.299" y1="1548.132" x2="402.299" y2="1548.132"/>
      <line x1="452.299" y1="1549.132" x2="402.299" y2="1549.132"/>
      <line x1="452.299" y1="1550.132" x2="402.299" y2="1550.132"/>
      <line x1="452.299" y1="1551.132" x2="402.299" y2="1551.132"/>
      <line x1="452.299" y1="1552.132" x2="402.299" y2="1552.132"/>
      <line x1="452.299" y1="1553.132" x2="402.299" y2="1553.132"/>
      <line x1="452.299" y1="1554.132" x2="402.299" y2="1554.132"/>
      <line x1="452.299" y1="1555.132" x2="402.299" y2="1555.132"/>
      <line x1="452.299" y1="1556.132" x2="402.299" y2="1556.132"/>
      <line x1="452.299" y1="1557.132" x2="402.299" y2="1557.132"/>
      <line x1="452.299" y1="1558.132" x2="402.299" y2="1558.132"/>
      <line x1="452.299" y1="1559.132" x2="402.299" y2="1559.132"/>
      <line x1="452.299" y1="1560.132" x2="402.299" y2="1560.132"/>
      <line x1="452.299" y1="1561.132" x2="402.299" y2="1561.132"/>
      <line x1="452.299" y1="1562.132" x2="402.299" y2="1562.132"/>
      <line x1="452.299" y1="1563.132" x2="402.299" y2="1563.132"/>
      <line x1="452.299" y1="1564.132" x2="402.299" y2="1564.132"/>
      <line x1="452.299" y1="1565.132" x2="402.299" y2="1565.132"/>
      <line x1="452.299" y1="1566.132" x2="402.299" y2="1566.132"/>
      <line x1="452.299" y1="1567.132" x2="402.299" y2="1567.132"/>
      <line x1="452.299" y1="1568.132" x2="402.299" y2="1568.132"/>
      <line x1="452.299" y1="1569.132" x2="402.299" y2="1569.132"/>
      <line x1="452.299" y1="1570.132" x2="402.299" y2="1570.132"/>
      <line x1="452.299" y1="1571.132" x2="402.299" y2="1571.132"/>
      <line x1="452.299" y1="1572.132" x2="402.299" y2="1572.132"/>
      <line x1="452.299" y1="1573.132" x2="402.299" y2="1573.132"/>
      <line x1="452.299" y1="1574.132" x2="402.299" y2="1574.132"/>
      <line x1="452.299" y1="1575.132" x2="402.299" y2="1575.132"/>
      <line x1="452.299" y1="1576.132" x2="402.299" y2="1576.132"/>
      <line x1="452.299" y1="1577.132" x2="402.299" y2="1577.132"/>
      <line x1="452.299" y1="1578.132" x2="402.299" y2="1578.132"/>
      <line x1="498.301" y1="1529.132" x2="452.399" y2="1529.132"/>
      <line x1="498.301" y1="1530.132" x2="452.399" y2="1530.132"/>
      <line x1="498.301" y1="1531.132" x2="452.399" y2="1531.132"/>
      <line x1="498.301" y1="1532.132" x2="452.399" y2="1532.132"/>
      <line x1="498.301" y1="1533.132" x2="452.399" y2="1533.132"/>
      <line x1="498.301" y1="1534.132" x2="452.399" y2="1534.132"/>
      <line x1="498.301" y1="1535.132" x2="452.399" y2="1535.132"/>
      <line x1="498.301" y1="1536.132" x2="452.399" y2="1536.132"/>
      <line x1="498.301" y1="1537.132" x2="452.399" y2="1537.132"/>
      <line x1="498.301" y1="1538.132" x2="452.399" y2="1538.132"/>
      <line x1="498.301" y1="1539.132" x2="452.399" y2="1539.132"/>
      <line x1="498.301" y1="1540.132" x2="452.399" y2="1540.132"/>
      <line x1="498.301" y1="1541.132" x2="452.399" y2="1541.132"/>
      <line x1="498.301" y1="1542.132" x2="452.399" y2="1542.132"/>
      <line x1="498.301" y1="1543.132" x2="452.399" y2="1543.132"/>
      <line x1="498.301" y1="1544.132" x2="452.399" y2="1544.132"/>
      <line x1="498.301" y1="1545.132" x2="452.399" y2="1545.132"/>
      <line x1="498.301" y1="1546.132" x2="452.399" y2="1546.132"/>
      <line x1="498.301" y1="1547.132" x2="452.399" y2="1547.132"/>
      <line x1="498.301" y1="1548.132" x2="452.399" y2="1548.132"/>
      <line x1="498.301" y1="1549.132" x2="452.399" y2="1549.132"/>
      <line x1="498.301" y1="1550.132" x2="452.399" y2="1550.132"/>
      <line x1="498.301" y1="1551.132" x2="452.399" y2="1551.132"/>
      <line x1="498.301" y1="1552.132" x2="452.399" y2="1552.132"/>
      <line x1="498.301" y1="1553.132" x2="452.399" y2="1553.132"/>
      <line x1="498.301" y1="1554.132" x2="452.399" y2="1554.132"/>
      <line x1="498.301" y1="1555.132" x2="452.399" y2="1555.132"/>
      <line x1="498.301" y1="1556.132" x2="452.399" y2="1556.132"/>
      <line x1="498.301" y1="1557.132" x2="452.399" y2="1557.132"/>
      <line x1="498.301" y1="1558.132" x2="452.399" y2="1558.132"/>
      <line x1="498.301" y1="1559.132" x2="452.399" y2="1559.132"/>
      <line x1="498.301" y1="1560.132" x2="452.399" y2="1560.132"/>
      <line x1="498.301" y1="1561.132" x2="452.399" y2="1561.132"/>
      <line x1="498.301" y1="1562.132" x2="452.399" y2="1562.132"/>
      <line x1="498.301" y1="1563.132" x2="452.399" y2="1563.132"/>
      <line x1="498.301" y1="1564.132" x2="452.399" y2="1564.132"/>
      <line x1="498.301" y1="1565.132" x2="452.399" y2="1565.132"/>
      <line x1="498.301" y1="1566.132" x2="452.399" y2="1566.132"/>
      <line x1="498.301" y1="1567.132" x2="452.399" y2="1567.132"/>
      <line x1="498.301" y1="1568.132" x2="452.399" y2="1568.132"/>
      <line x1="498.301" y1="1569.132" x2="452.399" y2="1569.132"/>
      <line x1="498.301" y1="1570.132" x2="452.399" y2="1570.132"/>
      <line x1="498.301" y1="1571.132" x2="452.399" y2="1571.132"/>
      <line x1="498.301" y1="1572.132" x2="452.399" y2="1572.132"/>
      <line x1="498.301" y1="1573.132" x2="452.399" y2="1573.132"/>
      <line x1="498.301" y1="1574.132" x2="452.399" y2="1574.132"/>
      <line x1="498.301" y1="1575.132" x2="452.399" y2="1575.132"/>
      <line x1="498.301" y1="1576.132" x2="452.399" y2="1576.132"/>
      <line x1="498.301" y1="1577.132" x2="452.399" y2="1577.132"/>
      <line x1="498.301" y1="1578.132" x2="452.399" y2="1578.132"/>
      <line x1="151.699" y1="1526.132" x2="101.699" y2="1526.132"/>
      <line x1="151.699" y1="1527.132" x2="101.699" y2="1527.132"/>
      <line x1="151.699" y1="1528.132" x2="101.699" y2="1528.132"/>
      <line x1="201.799" y1="1526.132" x2="151.799" y2="1526.132"/>
      <line x1="201.799" y1="1527.132" x2="151.799" y2="1527.132"/>
      <line x1="201.799" y1="1528.132" x2="151.799" y2="1528.132"/>
      <line x1="251.899" y1="1526.132" x2="201.899" y2="1526.132"/>
      <line x1="251.899" y1="1527.132" x2="201.899" y2="1527.132"/>
      <line x1="251.899" y1="1528.132" x2="201.899" y2="1528.132"/>
      <line x1="301.999" y1="1526.132" x2="251.999" y2="1526.132"/>
      <line x1="301.999" y1="1527.132" x2="251.999" y2="1527.132"/>
      <line x1="301.999" y1="1528.132" x2="251.999" y2="1528.132"/>
      <line x1="352.099" y1="1526.132" x2="302.099" y2="1526.132"/>
      <line x1="352.099" y1="1527.132" x2="302.099" y2="1527.132"/>
      <line x1="352.099" y1="1528.132" x2="302.099" y2="1528.132"/>
      <line x1="402.199" y1="1526.132" x2="352.199" y2="1526.132"/>
      <line x1="402.199" y1="1527.132" x2="352.199" y2="1527.132"/>
      <line x1="402.199" y1="1528.132" x2="352.199" y2="1528.132"/>
      <line x1="452.299" y1="1526.132" x2="402.299" y2="1526.132"/>
      <line x1="452.299" y1="1527.132" x2="402.299" y2="1527.132"/>
      <line x1="452.299" y1="1528.132" x2="402.299" y2="1528.132"/>
      <line x1="498.301" y1="1526.132" x2="452.399" y2="1526.132"/>
      <line x1="498.301" y1="1527.132" x2="452.399" y2="1527.132"/>
      <line x1="498.301" y1="1528.132" x2="452.399" y2="1528.132"/>
    </g>
    <g stroke="#1976D2" stroke-width="0.4">
      <polyline points="501.800,1521.729 98.200,1521.729 98.200,1682.729 501.800,1682.729 501.800,1521.729" fill="none"/>
      <polyline points="500.800,1522.729 99.200,1522.729 99.200,1681.730 500.800,1681.730 500.800,1522.729" fill="none"/>
      <polyline points="499.800,1523.729 100.200,1523.729 100.200,1680.730 499.800,1680.730 499.800,1523.729" fill="none"/>
      <polyline points="498.800,1524.729 101.200,1524.729 101.200,1679.729 498.800,1679.729 498.800,1524.729" fill="none"/>
    </g>
    <g stroke="#C62828" stroke-width="0.4" fill="none">
    </g>
    <g stroke="#EF6C00" stroke-width="0.4" fill="none">
    </g>
  </g>
  <g stroke="#000000" stroke-width="0.4">
    <line x1="500.000" y1="1000.000" x2="1500.000" y2="1000.000"/>
  </g>
  <g stroke="#000000" stroke-width="0.4">
    <line x1="1000.000" y1="500.000" x2="1000.000" y2="1500.000"/>
  </g>
  <circle cx="1000.000" cy="1000.000" r="1000.000" stroke="red" stroke-width="1" fill="none"/>
  </g>
</svg>
