<?xml version="1.0" encoding="UTF-8"?>
<svg xmlns="http://www.w3.org/2000/svg" version="1.1" width="2000" height="2000">
  <g fill="none" stroke-linecap="round" stroke-linejoin="round">
  <text x="10" y="20" font-size="24" fill="#555">Layer 263 Z=64.600 mm</text>
  <g transform="translate(700.000,-602.229)">
    <g stroke="#2E7D32" stroke-width="0.4">
      <line x1="180.262" y1="1629.775" x2="130.262" y2="1629.775"/>
      <line x1="180.262" y1="1630.775" x2="130.262" y2="1630.775"/>
      <line x1="180.262" y1="1631.775" x2="130.262" y2="1631.775"/>
      <line x1="180.262" y1="1632.775" x2="130.262" y2="1632.775"/>
      <line x1="180.262" y1="1633.775" x2="130.262" y2="1633.775"/>
      <line x1="180.262" y1="1634.775" x2="130.262" y2="1634.775"/>
      <line x1="180.262" y1="1635.775" x2="130.262" y2="1635.775"/>
      <line x1="180.262" y1="1636.775" x2="130.262" y2="1636.775"/>
      <line x1="180.262" y1="1637.775" x2="130.262" y2="1637.775"/>
      <line x1="180.262" y1="1638.775" x2="130.262" y2="1638.775"/>
      <line x1="180.262" y1="1639.775" x2="130.262" y2="1639.775"/>
      <line x1="180.262" y1="1640.775" x2="130.262" y2="1640.775"/>
      <line x1="180.262" y1="1641.775" x2="130.262" y2="1641.775"/>
      <line x1="180.262" y1="1642.775" x2="130.262" y2="1642.775"/>
      <line x1="180.262" y1="1643.775" x2="130.262" y2="1643.775"/>
      <line x1="180.262" y1="1644.775" x2="130.262" y2="1644.775"/>
      <line x1="180.262" y1="1645.775" x2="130.262" y2="1645.775"/>
      <line x1="180.262" y1="1646.775" x2="130.262" y2="1646.775"/>
      <line x1="180.262" y1="1647.775" x2="130.262" y2="1647.775"/>
      <line x1="180.262" y1="1648.775" x2="130.262" y2="1648.775"/>
      <line x1="180.262" y1="1649.775" x2="130.262" y2="1649.775"/>
      <line x1="180.262" y1="1650.775" x2="130.262" y2="1650.775"/>
      <line x1="180.262" y1="1651.775" x2="130.262" y2="1651.775"/>
      <line x1="180.262" y1="1652.775" x2="130.262" y2="1652.775"/>
      <line x1="180.262" y1="1653.775" x2="130.262" y2="1653.775"/>
      <line x1="180.262" y1="1654.775" x2="130.262" y2="1654.775"/>
      <line x1="180.262" y1="1655.775" x2="130.262" y2="1655.775"/>
      <line x1="180.262" y1="1656.775" x2="130.262" y2="1656.775"/>
      <line x1="180.262" y1="1657.775" x2="130.262" y2="1657.775"/>
      <line x1="180.262" y1="1658.775" x2="130.262" y2="1658.775"/>
      <line x1="180.262" y1="1659.775" x2="130.262" y2="1659.775"/>
      <line x1="180.262" y1="1660.775" x2="130.262" y2="1660.775"/>
      <line x1="180.262" y1="1661.775" x2="130.262" y2="1661.775"/>
      <line x1="180.262" y1="1662.775" x2="130.262" y2="1662.775"/>
      <line x1="180.262" y1="1663.775" x2="130.262" y2="1663.775"/>
      <line x1="180.262" y1="1664.775" x2="130.262" y2="1664.775"/>
      <line x1="180.262" y1="1665.775" x2="130.262" y2="1665.775"/>
      <line x1="180.262" y1="1666.775" x2="130.262" y2="1666.775"/>
      <line x1="180.262" y1="1667.775" x2="130.262" y2="1667.775"/>
      <line x1="180.262" y1="1668.775" x2="130.262" y2="1668.775"/>
      <line x1="180.262" y1="1669.775" x2="130.262" y2="1669.775"/>
      <line x1="180.262" y1="1670.775" x2="130.262" y2="1670.775"/>
      <line x1="180.262" y1="1671.775" x2="130.262" y2="1671.775"/>
      <line x1="180.262" y1="1672.775" x2="130.262" y2="1672.775"/>
      <line x1="180.262" y1="1673.775" x2="130.262" y2="1673.775"/>
      <line x1="180.262" y1="1674.775" x2="130.262" y2="1674.775"/>
      <line x1="180.262" y1="1675.775" x2="130.262" y2="1675.775"/>
      <line x1="180.262" y1="1676.775" x2="130.262" y2="1676.775"/>
      <line x1="180.262" y1="1677.775" x2="130.262" y2="1677.775"/>
      <line x1="180.262" y1="1678.775" x2="130.262" y2="1678.775"/>
      <line x1="230.362" y1="1629.775" x2="180.362" y2="1629.775"/>
      <line x1="230.362" y1="1630.775" x2="180.362" y2="1630.775"/>
      <line x1="230.362" y1="1631.775" x2="180.362" y2="1631.775"/>
      <line x1="230.362" y1="1632.775" x2="180.362" y2="1632.775"/>
      <line x1="230.362" y1="1633.775" x2="180.362" y2="1633.775"/>
      <line x1="230.362" y1="1634.775" x2="180.362" y2="1634.775"/>
      <line x1="230.362" y1="1635.775" x2="180.362" y2="1635.775"/>
      <line x1="230.362" y1="1636.775" x2="180.362" y2="1636.775"/>
      <line x1="230.362" y1="1637.775" x2="180.362" y2="1637.775"/>
      <line x1="230.362" y1="1638.775" x2="180.362" y2="1638.775"/>
      <line x1="230.362" y1="1639.775" x2="180.362" y2="1639.775"/>
      <line x1="230.362" y1="1640.775" x2="180.362" y2="1640.775"/>
      <line x1="230.362" y1="1641.775" x2="180.362" y2="1641.775"/>
      <line x1="230.362" y1="1642.775" x2="180.362" y2="1642.775"/>
      <line x1="230.362" y1="1643.775" x2="180.362" y2="1643.775"/>
      <line x1="230.362" y1="1644.775" x2="180.362" y2="1644.775"/>
      <line x1="230.362" y1="1645.775" x2="180.362" y2="1645.775"/>
      <line x1="230.362" y1="1646.775" x2="180.362" y2="1646.775"/>
      <line x1="230.362" y1="1647.775" x2="180.362" y2="1647.775"/>
      <line x1="230.362" y1="1648.775" x2="180.362" y2="1648.775"/>
      <line x1="230.362" y1="1649.775" x2="180.362" y2="1649.775"/>
      <line x1="230.362" y1="1650.775" x2="180.362" y2="1650.775"/>
      <line x1="230.362" y1="1651.775" x2="180.362" y2="1651.775"/>
      <line x1="230.362" y1="1652.775" x2="180.362" y2="1652.775"/>
      <line x1="230.362" y1="1653.775" x2="180.362" y2="1653.775"/>
      <line x1="230.362" y1="1654.775" x2="180.362" y2="1654.775"/>
      <line x1="230.362" y1="1655.775" x2="180.362" y2="1655.775"/>
      <line x1="230.362" y1="1656.775" x2="180.362" y2="1656.775"/>
      <line x1="230.362" y1="1657.775" x2="180.362" y2="1657.775"/>
      <line x1="230.362" y1="1658.775" x2="180.362" y2="1658.775"/>
      <line x1="230.362" y1="1659.775" x2="180.362" y2="1659.775"/>
      <line x1="230.362" y1="1660.775" x2="180.362" y2="1660.775"/>
      <line x1="230.362" y1="1661.775" x2="180.362" y2="1661.775"/>
      <line x1="230.362" y1="1662.775" x2="180.362" y2="1662.775"/>
      <line x1="230.362" y1="1663.775" x2="180.362" y2="1663.775"/>
      <line x1="230.362" y1="1664.775" x2="180.362" y2="1664.775"/>
      <line x1="230.362" y1="1665.775" x2="180.362" y2="1665.775"/>
      <line x1="230.362" y1="1666.775" x2="180.362" y2="1666.775"/>
      <line x1="230.362" y1="1667.775" x2="180.362" y2="1667.775"/>
      <line x1="230.362" y1="1668.775" x2="180.362" y2="1668.775"/>
      <line x1="230.362" y1="1669.775" x2="180.362" y2="1669.775"/>
      <line x1="230.362" y1="1670.775" x2="180.362" y2="1670.775"/>
      <line x1="230.362" y1="1671.775" x2="180.362" y2="1671.775"/>
      <line x1="230.362" y1="1672.775" x2="180.362" y2="1672.775"/>
      <line x1="230.362" y1="1673.775" x2="180.362" y2="1673.775"/>
      <line x1="230.362" y1="1674.775" x2="180.362" y2="1674.775"/>
      <line x1="230.362" y1="1675.775" x2="180.362" y2="1675.775"/>
      <line x1="230.362" y1="1676.775" x2="180.362" y2="1676.775"/>
      <line x1="230.362" y1="1677.775" x2="180.362" y2="1677.775"/>
      <line x1="230.362" y1="1678.775" x2="180.362" y2="1678.775"/>
      <line x1="280.462" y1="1629.775" x2="230.462" y2="1629.775"/>
      <line x1="280.462" y1="1630.775" x2="230.462" y2="1630.775"/>
      <line x1="280.462" y1="1631.775" x2="230.462" y2="1631.775"/>
      <line x1="280.462" y1="1632.775" x2="230.462" y2="1632.775"/>
      <line x1="280.462" y1="1633.775" x2="230.462" y2="1633.775"/>
      <line x1="280.462" y1="1634.775" x2="230.462" y2="1634.775"/>
      <line x1="280.462" y1="1635.775" x2="230.462" y2="1635.775"/>
      <line x1="280.462" y1="1636.775" x2="230.462" y2="1636.775"/>
      <line x1="280.462" y1="1637.775" x2="230.462" y2="1637.775"/>
      <line x1="280.462" y1="1638.775" x2="230.462" y2="1638.775"/>
      <line x1="280.462" y1="1639.775" x2="230.462" y2="1639.775"/>
      <line x1="280.462" y1="1640.775" x2="230.462" y2="1640.775"/>
      <line x1="280.462" y1="1641.775" x2="230.462" y2="1641.775"/>
      <line x1="280.462" y1="1642.775" x2="230.462" y2="1642.775"/>
      <line x1="280.462" y1="1643.775" x2="230.462" y2="1643.775"/>
      <line x1="280.462" y1="1644.775" x2="230.462" y2="1644.775"/>
      <line x1="280.462" y1="1645.775" x2="230.462" y2="1645.775"/>
      <line x1="280.462" y1="1646.775" x2="230.462" y2="1646.775"/>
      <line x1="280.462" y1="1647.775" x2="230.462" y2="1647.775"/>
      <line x1="280.462" y1="1648.775" x2="230.462" y2="1648.775"/>
      <line x1="280.462" y1="1649.775" x2="230.462" y2="1649.775"/>
      <line x1="280.462" y1="1650.775" x2="230.462" y2="1650.775"/>
      <line x1="280.462" y1="1651.775" x2="230.462" y2="1651.775"/>
      <line x1="280.462" y1="1652.775" x2="230.462" y2="1652.775"/>
      <line x1="280.462" y1="1653.775" x2="230.462" y2="1653.775"/>
      <line x1="280.462" y1="1654.775" x2="230.462" y2="1654.775"/>
      <line x1="280.462" y1="1655.775" x2="230.462" y2="1655.775"/>
      <line x1="280.462" y1="1656.775" x2="230.462" y2="1656.775"/>
      <line x1="280.462" y1="1657.775" x2="230.462" y2="1657.775"/>
      <line x1="280.462" y1="1658.775" x2="230.462" y2="1658.775"/>
      <line x1="280.462" y1="1659.775" x2="230.462" y2="1659.775"/>
      <line x1="280.462" y1="1660.775" x2="230.462" y2="1660.775"/>
      <line x1="280.462" y1="1661.775" x2="230.462" y2="1661.775"/>
      <line x1="280.462" y1="1662.775" x2="230.462" y2="1662.775"/>
      <line x1="280.462" y1="1663.775" x2="230.462" y2="1663.775"/>
      <line x1="280.462" y1="1664.775" x2="230.462" y2="1664.775"/>
      <line x1="280.462" y1="1665.775" x2="230.462" y2="1665.775"/>
      <line x1="280.462" y1="1666.775" x2="230.462" y2="1666.775"/>
      <line x1="280.462" y1="1667.775" x2="230.462" y2="1667.775"/>
      <line x1="280.462" y1="1668.775" x2="230.462" y2="1668.775"/>
      <line x1="280.462" y1="1669.775" x2="230.462" y2="1669.775"/>
      <line x1="280.462" y1="1670.775" x2="230.462" y2="1670.775"/>
      <line x1="280.462" y1="1671.775" x2="230.462" y2="1671.775"/>
      <line x1="280.462" y1="1672.775" x2="230.462" y2="1672.775"/>
      <line x1="280.462" y1="1673.775" x2="230.462" y2="1673.775"/>
      <line x1="280.462" y1="1674.775" x2="230.462" y2="1674.775"/>
      <line x1="280.462" y1="1675.775" x2="230.462" y2="1675.775"/>
      <line x1="280.462" y1="1676.775" x2="230.462" y2="1676.775"/>
      <line x1="280.462" y1="1677.775" x2="230.462" y2="1677.775"/>
      <line x1="280.462" y1="1678.775" x2="230.462" y2="1678.775"/>
      <line x1="330.562" y1="1629.775" x2="280.562" y2="1629.775"/>
      <line x1="330.562" y1="1630.775" x2="280.562" y2="1630.775"/>
      <line x1="330.562" y1="1631.775" x2="280.562" y2="1631.775"/>
      <line x1="330.562" y1="1632.775" x2="280.562" y2="1632.775"/>
      <line x1="330.562" y1="1633.775" x2="280.562" y2="1633.775"/>
      <line x1="330.562" y1="1634.775" x2="280.562" y2="1634.775"/>
      <line x1="330.562" y1="1635.775" x2="280.562" y2="1635.775"/>
      <line x1="330.562" y1="1636.775" x2="280.562" y2="1636.775"/>
      <line x1="330.562" y1="1637.775" x2="280.562" y2="1637.775"/>
      <line x1="330.562" y1="1638.775" x2="280.562" y2="1638.775"/>
      <line x1="330.562" y1="1639.775" x2="280.562" y2="1639.775"/>
      <line x1="330.562" y1="1640.775" x2="280.562" y2="1640.775"/>
      <line x1="330.562" y1="1641.775" x2="280.562" y2="1641.775"/>
      <line x1="330.562" y1="1642.775" x2="280.562" y2="1642.775"/>
      <line x1="330.562" y1="1643.775" x2="280.562" y2="1643.775"/>
      <line x1="330.562" y1="1644.775" x2="280.562" y2="1644.775"/>
      <line x1="330.562" y1="1645.775" x2="280.562" y2="1645.775"/>
      <line x1="330.562" y1="1646.775" x2="280.562" y2="1646.775"/>
      <line x1="330.562" y1="1647.775" x2="280.562" y2="1647.775"/>
      <line x1="330.562" y1="1648.775" x2="280.562" y2="1648.775"/>
      <line x1="330.562" y1="1649.775" x2="280.562" y2="1649.775"/>
      <line x1="330.562" y1="1650.775" x2="280.562" y2="1650.775"/>
      <line x1="330.562" y1="1651.775" x2="280.562" y2="1651.775"/>
      <line x1="330.562" y1="1652.775" x2="280.562" y2="1652.775"/>
      <line x1="330.562" y1="1653.775" x2="280.562" y2="1653.775"/>
      <line x1="330.562" y1="1654.775" x2="280.562" y2="1654.775"/>
      <line x1="330.562" y1="1655.775" x2="280.562" y2="1655.775"/>
      <line x1="330.562" y1="1656.775" x2="280.562" y2="1656.775"/>
      <line x1="330.562" y1="1657.775" x2="280.562" y2="1657.775"/>
      <line x1="330.562" y1="1658.775" x2="280.562" y2="1658.775"/>
      <line x1="330.562" y1="1659.775" x2="280.562" y2="1659.775"/>
      <line x1="330.562" y1="1660.775" x2="280.562" y2="1660.775"/>
      <line x1="330.562" y1="1661.775" x2="280.562" y2="1661.775"/>
      <line x1="330.562" y1="1662.775" x2="280.562" y2="1662.775"/>
      <line x1="330.562" y1="1663.775" x2="280.562" y2="1663.775"/>
      <line x1="330.562" y1="1664.775" x2="280.562" y2="1664.775"/>
      <line x1="330.562" y1="1665.775" x2="280.562" y2="1665.775"/>
      <line x1="330.562" y1="1666.775" x2="280.562" y2="1666.775"/>
      <line x1="330.562" y1="1667.775" x2="280.562" y2="1667.775"/>
      <line x1="330.562" y1="1668.775" x2="280.562" y2="1668.775"/>
      <line x1="330.562" y1="1669.775" x2="280.562" y2="1669.775"/>
      <line x1="330.562" y1="1670.775" x2="280.562" y2="1670.775"/>
      <line x1="330.562" y1="1671.775" x2="280.562" y2="1671.775"/>
      <line x1="330.562" y1="1672.775" x2="280.562" y2="1672.775"/>
      <line x1="330.562" y1="1673.775" x2="280.562" y2="1673.775"/>
      <line x1="330.562" y1="1674.775" x2="280.562" y2="1674.775"/>
      <line x1="330.562" y1="1675.775" x2="280.562" y2="1675.775"/>
      <line x1="330.562" y1="1676.775" x2="280.562" y2="1676.775"/>
      <line x1="330.562" y1="1677.775" x2="280.562" y2="1677.775"/>
      <line x1="330.562" y1="1678.775" x2="280.562" y2="1678.775"/>
      <line x1="380.662" y1="1629.775" x2="330.662" y2="1629.775"/>
      <line x1="380.662" y1="1630.775" x2="330.662" y2="1630.775"/>
      <line x1="380.662" y1="1631.775" x2="330.662" y2="1631.775"/>
      <line x1="380.662" y1="1632.775" x2="330.662" y2="1632.775"/>
      <line x1="380.662" y1="1633.775" x2="330.662" y2="1633.775"/>
      <line x1="380.662" y1="1634.775" x2="330.662" y2="1634.775"/>
      <line x1="380.662" y1="1635.775" x2="330.662" y2="1635.775"/>
      <line x1="380.662" y1="1636.775" x2="330.662" y2="1636.775"/>
      <line x1="380.662" y1="1637.775" x2="330.662" y2="1637.775"/>
      <line x1="380.662" y1="1638.775" x2="330.662" y2="1638.775"/>
      <line x1="380.662" y1="1639.775" x2="330.662" y2="1639.775"/>
      <line x1="380.662" y1="1640.775" x2="330.662" y2="1640.775"/>
      <line x1="380.662" y1="1641.775" x2="330.662" y2="1641.775"/>
      <line x1="380.662" y1="1642.775" x2="330.662" y2="1642.775"/>
      <line x1="380.662" y1="1643.775" x2="330.662" y2="1643.775"/>
      <line x1="380.662" y1="1644.775" x2="330.662" y2="1644.775"/>
      <line x1="380.662" y1="1645.775" x2="330.662" y2="1645.775"/>
      <line x1="380.662" y1="1646.775" x2="330.662" y2="1646.775"/>
      <line x1="380.662" y1="1647.775" x2="330.662" y2="1647.775"/>
      <line x1="380.662" y1="1648.775" x2="330.662" y2="1648.775"/>
      <line x1="380.662" y1="1649.775" x2="330.662" y2="1649.775"/>
      <line x1="380.662" y1="1650.775" x2="330.662" y2="1650.775"/>
      <line x1="380.662" y1="1651.775" x2="330.662" y2="1651.775"/>
      <line x1="380.662" y1="1652.775" x2="330.662" y2="1652.775"/>
      <line x1="380.662" y1="1653.775" x2="330.662" y2="1653.775"/>
      <line x1="380.662" y1="1654.775" x2="330.662" y2="1654.775"/>
      <line x1="380.662" y1="1655.775" x2="330.662" y2="1655.775"/>
      <line x1="380.662" y1="1656.775" x2="330.662" y2="1656.775"/>
      <line x1="380.662" y1="1657.775" x2="330.662" y2="1657.775"/>
      <line x1="380.662" y1="1658.775" x2="330.662" y2="1658.775"/>
      <line x1="380.662" y1="1659.775" x2="330.662" y2="1659.775"/>
      <line x1="380.662" y1="1660.775" x2="330.662" y2="1660.775"/>
      <line x1="380.662" y1="1661.775" x2="330.662" y2="1661.775"/>
      <line x1="380.662" y1="1662.775" x2="330.662" y2="1662.775"/>
      <line x1="380.662" y1="1663.775" x2="330.662" y2="1663.775"/>
      <line x1="380.662" y1="1664.775" x2="330.662" y2="1664.775"/>
      <line x1="380.662" y1="1665.775" x2="330.662" y2="1665.775"/>
      <line x1="380.662" y1="1666.775" x2="330.662" y2="1666.775"/>
      <line x1="380.662" y1="1667.775" x2="330.662" y2="1667.775"/>
      <line x1="380.662" y1="1668.775" x2="330.662" y2="1668.775"/>
      <line x1="380.662" y1="1669.775" x2="330.662" y2="1669.775"/>
      <line x1="380.662" y1="1670.775" x2="330.662" y2="1670.775"/>
      <line x1="380.662" y1="1671.775" x2="330.662" y2="1671.775"/>
      <line x1="380.662" y1="1672.775" x2="330.662" y2="1672.775"/>
      <line x1="380.662" y1="1673.775" x2="330.662" y2="1673.775"/>
      <line x1="380.662" y1="1674.775" x2="330.662" y2="1674.775"/>
      <line x1="380.662" y1="1675.775" x2="330.662" y2="1675.775"/>
      <line x1="380.662" y1="1676.775" x2="330.662" y2="1676.775"/>
      <line x1="380.662" y1="1677.775" x2="330.662" y2="1677.775"/>
      <line x1="380.662" y1="1678.775" x2="330.662" y2="1678.775"/>
      <line x1="430.762" y1="1629.775" x2="380.762" y2="1629.775"/>
      <line x1="430.762" y1="1630.775" x2="380.762" y2="1630.775"/>
      <line x1="430.762" y1="1631.775" x2="380.762" y2="1631.775"/>
      <line x1="430.762" y1="1632.775" x2="380.762" y2="1632.775"/>
      <line x1="430.762" y1="1633.775" x2="380.762" y2="1633.775"/>
      <line x1="430.762" y1="1634.775" x2="380.762" y2="1634.775"/>
      <line x1="430.762" y1="1635.775" x2="380.762" y2="1635.775"/>
      <line x1="430.762" y1="1636.775" x2="380.762" y2="1636.775"/>
      <line x1="430.762" y1="1637.775" x2="380.762" y2="1637.775"/>
      <line x1="430.762" y1="1638.775" x2="380.762" y2="1638.775"/>
      <line x1="430.762" y1="1639.775" x2="380.762" y2="1639.775"/>
      <line x1="430.762" y1="1640.775" x2="380.762" y2="1640.775"/>
      <line x1="430.762" y1="1641.775" x2="380.762" y2="1641.775"/>
      <line x1="430.762" y1="1642.775" x2="380.762" y2="1642.775"/>
      <line x1="430.762" y1="1643.775" x2="380.762" y2="1643.775"/>
      <line x1="430.762" y1="1644.775" x2="380.762" y2="1644.775"/>
      <line x1="430.762" y1="1645.775" x2="380.762" y2="1645.775"/>
      <line x1="430.762" y1="1646.775" x2="380.762" y2="1646.775"/>
      <line x1="430.762" y1="1647.775" x2="380.762" y2="1647.775"/>
      <line x1="430.762" y1="1648.775" x2="380.762" y2="1648.775"/>
      <line x1="430.762" y1="1649.775" x2="380.762" y2="1649.775"/>
      <line x1="430.762" y1="1650.775" x2="380.762" y2="1650.775"/>
      <line x1="430.762" y1="1651.775" x2="380.762" y2="1651.775"/>
      <line x1="430.762" y1="1652.775" x2="380.762" y2="1652.775"/>
      <line x1="430.762" y1="1653.775" x2="380.762" y2="1653.775"/>
      <line x1="430.762" y1="1654.775" x2="380.762" y2="1654.775"/>
      <line x1="430.762" y1="1655.775" x2="380.762" y2="1655.775"/>
      <line x1="430.762" y1="1656.775" x2="380.762" y2="1656.775"/>
      <line x1="430.762" y1="1657.775" x2="380.762" y2="1657.775"/>
      <line x1="430.762" y1="1658.775" x2="380.762" y2="1658.775"/>
      <line x1="430.762" y1="1659.775" x2="380.762" y2="1659.775"/>
      <line x1="430.762" y1="1660.775" x2="380.762" y2="1660.775"/>
      <line x1="430.762" y1="1661.775" x2="380.762" y2="1661.775"/>
      <line x1="430.762" y1="1662.775" x2="380.762" y2="1662.775"/>
      <line x1="430.762" y1="1663.775" x2="380.762" y2="1663.775"/>
      <line x1="430.762" y1="1664.775" x2="380.762" y2="1664.775"/>
      <line x1="430.762" y1="1665.775" x2="380.762" y2="1665.775"/>
      <line x1="430.762" y1="1666.775" x2="380.762" y2="1666.775"/>
      <line x1="430.762" y1="1667.775" x2="380.762" y2="1667.775"/>
      <line x1="430.762" y1="1668.775" x2="380.762" y2="1668.775"/>
      <line x1="430.762" y1="1669.775" x2="380.762" y2="1669.775"/>
      <line x1="430.762" y1="1670.775" x2="380.762" y2="1670.775"/>
      <line x1="430.762" y1="1671.775" x2="380.762" y2="1671.775"/>
      <line x1="430.762" y1="1672.775" x2="380.762" y2="1672.775"/>
      <line x1="430.762" y1="1673.775" x2="380.762" y2="1673.775"/>
      <line x1="430.762" y1="1674.775" x2="380.762" y2="1674.775"/>
      <line x1="430.762" y1="1675.775" x2="380.762" y2="1675.775"/>
      <line x1="430.762" y1="1676.775" x2="380.762" y2="1676.775"/>
      <line x1="430.762" y1="1677.775" x2="380.762" y2="1677.775"/>
      <line x1="430.762" y1="1678.775" x2="380.762" y2="1678.775"/>
      <line x1="469.738" y1="1629.775" x2="430.862" y2="1629.775"/>
      <line x1="469.738" y1="1630.775" x2="430.862" y2="1630.775"/>
      <line x1="469.738" y1="1631.775" x2="430.862" y2="1631.775"/>
      <line x1="469.738" y1="1632.775" x2="430.862" y2="1632.775"/>
      <line x1="469.738" y1="1633.775" x2="430.862" y2="1633.775"/>
      <line x1="469.738" y1="1634.775" x2="430.862" y2="1634.775"/>
      <line x1="469.738" y1="1635.775" x2="430.862" y2="1635.775"/>
      <line x1="469.738" y1="1636.775" x2="430.862" y2="1636.775"/>
      <line x1="469.738" y1="1637.775" x2="430.862" y2="1637.775"/>
      <line x1="469.738" y1="1638.775" x2="430.862" y2="1638.775"/>
      <line x1="469.738" y1="1639.775" x2="430.862" y2="1639.775"/>
      <line x1="469.738" y1="1640.775" x2="430.862" y2="1640.775"/>
      <line x1="469.738" y1="1641.775" x2="430.862" y2="1641.775"/>
      <line x1="469.738" y1="1642.775" x2="430.862" y2="1642.775"/>
      <line x1="469.738" y1="1643.775" x2="430.862" y2="1643.775"/>
      <line x1="469.738" y1="1644.775" x2="430.862" y2="1644.775"/>
      <line x1="469.738" y1="1645.775" x2="430.862" y2="1645.775"/>
      <line x1="469.738" y1="1646.775" x2="430.862" y2="1646.775"/>
      <line x1="469.738" y1="1647.775" x2="430.862" y2="1647.775"/>
      <line x1="469.738" y1="1648.775" x2="430.862" y2="1648.775"/>
      <line x1="469.738" y1="1649.775" x2="430.862" y2="1649.775"/>
      <line x1="469.738" y1="1650.775" x2="430.862" y2="1650.775"/>
      <line x1="469.738" y1="1651.775" x2="430.862" y2="1651.775"/>
      <line x1="469.738" y1="1652.775" x2="430.862" y2="1652.775"/>
      <line x1="469.738" y1="1653.775" x2="430.862" y2="1653.775"/>
      <line x1="469.738" y1="1654.775" x2="430.862" y2="1654.775"/>
      <line x1="469.738" y1="1655.775" x2="430.862" y2="1655.775"/>
      <line x1="469.738" y1="1656.775" x2="430.862" y2="1656.775"/>
      <line x1="469.738" y1="1657.775" x2="430.862" y2="1657.775"/>
      <line x1="469.738" y1="1658.775" x2="430.862" y2="1658.775"/>
      <line x1="469.738" y1="1659.775" x2="430.862" y2="1659.775"/>
      <line x1="469.738" y1="1660.775" x2="430.862" y2="1660.775"/>
      <line x1="469.738" y1="1661.775" x2="430.862" y2="1661.775"/>
      <line x1="469.738" y1="1662.775" x2="430.862" y2="1662.775"/>
      <line x1="469.738" y1="1663.775" x2="430.862" y2="1663.775"/>
      <line x1="469.738" y1="1664.775" x2="430.862" y2="1664.775"/>
      <line x1="469.738" y1="1665.775" x2="430.862" y2="1665.775"/>
      <line x1="469.738" y1="1666.775" x2="430.862" y2="1666.775"/>
      <line x1="469.738" y1="1667.775" x2="430.862" y2="1667.775"/>
      <line x1="469.738" y1="1668.775" x2="430.862" y2="1668.775"/>
      <line x1="469.738" y1="1669.775" x2="430.862" y2="1669.775"/>
      <line x1="469.738" y1="1670.775" x2="430.862" y2="1670.775"/>
      <line x1="469.738" y1="1671.775" x2="430.862" y2="1671.775"/>
      <line x1="469.738" y1="1672.775" x2="430.862" y2="1672.775"/>
      <line x1="469.738" y1="1673.775" x2="430.862" y2="1673.775"/>
      <line x1="469.738" y1="1674.775" x2="430.862" y2="1674.775"/>
      <line x1="469.738" y1="1675.775" x2="430.862" y2="1675.775"/>
      <line x1="469.738" y1="1676.775" x2="430.862" y2="1676.775"/>
      <line x1="469.738" y1="1677.775" x2="430.862" y2="1677.775"/>
      <line x1="469.738" y1="1678.775" x2="430.862" y2="1678.775"/>
      <line x1="180.262" y1="1579.775" x2="130.262" y2="1579.775"/>
      <line x1="180.262" y1="1580.775" x2="130.262" y2="1580.775"/>
      <line x1="180.262" y1="1581.775" x2="130.262" y2="1581.775"/>
      <line x1="180.262" y1="1582.775" x2="130.262" y2="1582.775"/>
      <line x1="180.262" y1="1583.775" x2="130.262" y2="1583.775"/>
      <line x1="180.262" y1="1584.775" x2="130.262" y2="1584.775"/>
      <line x1="180.262" y1="1585.775" x2="130.262" y2="1585.775"/>
      <line x1="180.262" y1="1586.775" x2="130.262" y2="1586.775"/>
      <line x1="180.262" y1="1587.775" x2="130.262" y2="1587.775"/>
      <line x1="180.262" y1="1588.775" x2="130.262" y2="1588.775"/>
      <line x1="180.262" y1="1589.775" x2="130.262" y2="1589.775"/>
      <line x1="180.262" y1="1590.775" x2="130.262" y2="1590.775"/>
      <line x1="180.262" y1="1591.775" x2="130.262" y2="1591.775"/>
      <line x1="180.262" y1="1592.775" x2="130.262" y2="1592.775"/>
      <line x1="180.262" y1="1593.775" x2="130.262" y2="1593.775"/>
      <line x1="180.262" y1="1594.775" x2="130.262" y2="1594.775"/>
      <line x1="180.262" y1="1595.775" x2="130.262" y2="1595.775"/>
      <line x1="180.262" y1="1596.775" x2="130.262" y2="1596.775"/>
      <line x1="180.262" y1="1597.775" x2="130.262" y2="1597.775"/>
      <line x1="180.262" y1="1598.775" x2="130.262" y2="1598.775"/>
      <line x1="180.262" y1="1599.775" x2="130.262" y2="1599.775"/>
      <line x1="180.262" y1="1600.775" x2="130.262" y2="1600.775"/>
      <line x1="180.262" y1="1601.775" x2="130.262" y2="1601.775"/>
      <line x1="180.262" y1="1602.775" x2="130.262" y2="1602.775"/>
      <line x1="180.262" y1="1603.775" x2="130.262" y2="1603.775"/>
      <line x1="180.262" y1="1604.775" x2="130.262" y2="1604.775"/>
      <line x1="180.262" y1="1605.775" x2="130.262" y2="1605.775"/>
      <line x1="180.262" y1="1606.775" x2="130.262" y2="1606.775"/>
      <line x1="180.262" y1="1607.775" x2="130.262" y2="1607.775"/>
      <line x1="180.262" y1="1608.775" x2="130.262" y2="1608.775"/>
      <line x1="180.262" y1="1609.775" x2="130.262" y2="1609.775"/>
      <line x1="180.262" y1="1610.775" x2="130.262" y2="1610.775"/>
      <line x1="180.262" y1="1611.775" x2="130.262" y2="1611.775"/>
      <line x1="180.262" y1="1612.775" x2="130.262" y2="1612.775"/>
      <line x1="180.262" y1="1613.775" x2="130.262" y2="1613.775"/>
      <line x1="180.262" y1="1614.775" x2="130.262" y2="1614.775"/>
      <line x1="180.262" y1="1615.775" x2="130.262" y2="1615.775"/>
      <line x1="180.262" y1="1616.775" x2="130.262" y2="1616.775"/>
      <line x1="180.262" y1="1617.775" x2="130.262" y2="1617.775"/>
      <line x1="180.262" y1="1618.775" x2="130.262" y2="1618.775"/>
      <line x1="180.262" y1="1619.775" x2="130.262" y2="1619.775"/>
      <line x1="180.262" y1="1620.775" x2="130.262" y2="1620.775"/>
      <line x1="180.262" y1="1621.775" x2="130.262" y2="1621.775"/>
      <line x1="180.262" y1="1622.775" x2="130.262" y2="1622.775"/>
      <line x1="180.262" y1="1623.775" x2="130.262" y2="1623.775"/>
      <line x1="180.262" y1="1624.775" x2="130.262" y2="1624.775"/>
      <line x1="180.262" y1="1625.775" x2="130.262" y2="1625.775"/>
      <line x1="180.262" y1="1626.775" x2="130.262" y2="1626.775"/>
      <line x1="180.262" y1="1627.775" x2="130.262" y2="1627.775"/>
      <line x1="180.262" y1="1628.775" x2="130.262" y2="1628.775"/>
      <line x1="230.362" y1="1579.775" x2="180.362" y2="1579.775"/>
      <line x1="230.362" y1="1580.775" x2="180.362" y2="1580.775"/>
      <line x1="230.362" y1="1581.775" x2="180.362" y2="1581.775"/>
      <line x1="230.362" y1="1582.775" x2="180.362" y2="1582.775"/>
      <line x1="230.362" y1="1583.775" x2="180.362" y2="1583.775"/>
      <line x1="230.362" y1="1584.775" x2="180.362" y2="1584.775"/>
      <line x1="230.362" y1="1585.775" x2="180.362" y2="1585.775"/>
      <line x1="230.362" y1="1586.775" x2="180.362" y2="1586.775"/>
      <line x1="230.362" y1="1587.775" x2="180.362" y2="1587.775"/>
      <line x1="230.362" y1="1588.775" x2="180.362" y2="1588.775"/>
      <line x1="230.362" y1="1589.775" x2="180.362" y2="1589.775"/>
      <line x1="230.362" y1="1590.775" x2="180.362" y2="1590.775"/>
      <line x1="230.362" y1="1591.775" x2="180.362" y2="1591.775"/>
      <line x1="230.362" y1="1592.775" x2="180.362" y2="1592.775"/>
      <line x1="230.362" y1="1593.775" x2="180.362" y2="1593.775"/>
      <line x1="230.362" y1="1594.775" x2="180.362" y2="1594.775"/>
      <line x1="230.362" y1="1595.775" x2="180.362" y2="1595.775"/>
      <line x1="230.362" y1="1596.775" x2="180.362" y2="1596.775"/>
      <line x1="230.362" y1="1597.775" x2="180.362" y2="1597.775"/>
      <line x1="230.362" y1="1598.775" x2="180.362" y2="1598.775"/>
      <line x1="230.362" y1="1599.775" x2="180.362" y2="1599.775"/>
      <line x1="230.362" y1="1600.775" x2="180.362" y2="1600.775"/>
      <line x1="230.362" y1="1601.775" x2="180.362" y2="1601.775"/>
      <line x1="230.362" y1="1602.775" x2="180.362" y2="1602.775"/>
      <line x1="230.362" y1="1603.775" x2="180.362" y2="1603.775"/>
      <line x1="230.362" y1="1604.775" x2="180.362" y2="1604.775"/>
      <line x1="230.362" y1="1605.775" x2="180.362" y2="1605.775"/>
      <line x1="230.362" y1="1606.775" x2="180.362" y2="1606.775"/>
      <line x1="230.362" y1="1607.775" x2="180.362" y2="1607.775"/>
      <line x1="230.362" y1="1608.775" x2="180.362" y2="1608.775"/>
      <line x1="230.362" y1="1609.775" x2="180.362" y2="1609.775"/>
      <line x1="230.362" y1="1610.775" x2="180.362" y2="1610.775"/>
      <line x1="230.362" y1="1611.775" x2="180.362" y2="1611.775"/>
      <line x1="230.362" y1="1612.775" x2="180.362" y2="1612.775"/>
      <line x1="230.362" y1="1613.775" x2="180.362" y2="1613.775"/>
      <line x1="230.362" y1="1614.775" x2="180.362" y2="1614.775"/>
      <line x1="230.362" y1="1615.775" x2="180.362" y2="1615.775"/>
      <line x1="230.362" y1="1616.775" x2="180.362" y2="1616.775"/>
      <line x1="230.362" y1="1617.775" x2="180.362" y2="1617.775"/>
      <line x1="230.362" y1="1618.775" x2="180.362" y2="1618.775"/>
      <line x1="230.362" y1="1619.775" x2="180.362" y2="1619.775"/>
      <line x1="230.362" y1="1620.775" x2="180.362" y2="1620.775"/>
      <line x1="230.362" y1="1621.775" x2="180.362" y2="1621.775"/>
      <line x1="230.362" y1="1622.775" x2="180.362" y2="1622.775"/>
      <line x1="230.362" y1="1623.775" x2="180.362" y2="1623.775"/>
      <line x1="230.362" y1="1624.775" x2="180.362" y2="1624.775"/>
      <line x1="230.362" y1="1625.775" x2="180.362" y2="1625.775"/>
      <line x1="230.362" y1="1626.775" x2="180.362" y2="1626.775"/>
      <line x1="230.362" y1="1627.775" x2="180.362" y2="1627.775"/>
      <line x1="230.362" y1="1628.775" x2="180.362" y2="1628.775"/>
      <line x1="280.462" y1="1579.775" x2="230.462" y2="1579.775"/>
      <line x1="280.462" y1="1580.775" x2="230.462" y2="1580.775"/>
      <line x1="280.462" y1="1581.775" x2="230.462" y2="1581.775"/>
      <line x1="280.462" y1="1582.775" x2="230.462" y2="1582.775"/>
      <line x1="280.462" y1="1583.775" x2="230.462" y2="1583.775"/>
      <line x1="280.462" y1="1584.775" x2="230.462" y2="1584.775"/>
      <line x1="280.462" y1="1585.775" x2="230.462" y2="1585.775"/>
      <line x1="280.462" y1="1586.775" x2="230.462" y2="1586.775"/>
      <line x1="280.462" y1="1587.775" x2="230.462" y2="1587.775"/>
      <line x1="280.462" y1="1588.775" x2="230.462" y2="1588.775"/>
      <line x1="280.462" y1="1589.775" x2="230.462" y2="1589.775"/>
      <line x1="280.462" y1="1590.775" x2="230.462" y2="1590.775"/>
      <line x1="280.462" y1="1591.775" x2="230.462" y2="1591.775"/>
      <line x1="280.462" y1="1592.775" x2="230.462" y2="1592.775"/>
      <line x1="280.462" y1="1593.775" x2="230.462" y2="1593.775"/>
      <line x1="280.462" y1="1594.775" x2="230.462" y2="1594.775"/>
      <line x1="280.462" y1="1595.775" x2="230.462" y2="1595.775"/>
      <line x1="280.462" y1="1596.775" x2="230.462" y2="1596.775"/>
      <line x1="280.462" y1="1597.775" x2="230.462" y2="1597.775"/>
      <line x1="280.462" y1="1598.775" x2="230.462" y2="1598.775"/>
      <line x1="280.462" y1="1599.775" x2="230.462" y2="1599.775"/>
      <line x1="280.462" y1="1600.775" x2="230.462" y2="1600.775"/>
      <line x1="280.462" y1="1601.775" x2="230.462" y2="1601.775"/>
      <line x1="280.462" y1="1602.775" x2="230.462" y2="1602.775"/>
      <line x1="280.462" y1="1603.775" x2="230.462" y2="1603.775"/>
      <line x1="280.462" y1="1604.775" x2="230.462" y2="1604.775"/>
      <line x1="280.462" y1="1605.775" x2="230.462" y2="1605.775"/>
      <line x1="280.462" y1="1606.775" x2="230.462" y2="1606.775"/>
      <line x1="280.462" y1="1607.775" x2="230.462" y2="1607.775"/>
      <line x1="280.462" y1="1608.775" x2="230.462" y2="1608.775"/>
      <line x1="280.462" y1="1609.775" x2="230.462" y2="1609.775"/>
      <line x1="280.462" y1="1610.775" x2="230.462" y2="1610.775"/>
      <line x1="280.462" y1="1611.775" x2="230.462" y2="1611.775"/>
      <line x1="280.462" y1="1612.775" x2="230.462" y2="1612.775"/>
      <line x1="280.462" y1="1613.775" x2="230.462" y2="1613.775"/>
      <line x1="280.462" y1="1614.775" x2="230.462" y2="1614.775"/>
      <line x1="280.462" y1="1615.775" x2="230.462" y2="1615.775"/>
      <line x1="280.462" y1="1616.775" x2="230.462" y2="1616.775"/>
      <line x1="280.462" y1="1617.775" x2="230.462" y2="1617.775"/>
      <line x1="280.462" y1="1618.775" x2="230.462" y2="1618.775"/>
      <line x1="280.462" y1="1619.775" x2="230.462" y2="1619.775"/>
      <line x1="280.462" y1="1620.775" x2="230.462" y2="1620.775"/>
      <line x1="280.462" y1="1621.775" x2="230.462" y2="1621.775"/>
      <line x1="280.462" y1="1622.775" x2="230.462" y2="1622.775"/>
      <line x1="280.462" y1="1623.775" x2="230.462" y2="1623.775"/>
      <line x1="280.462" y1="1624.775" x2="230.462" y2="1624.775"/>
      <line x1="280.462" y1="1625.775" x2="230.462" y2="1625.775"/>
      <line x1="280.462" y1="1626.775" x2="230.462" y2="1626.775"/>
      <line x1="280.462" y1="1627.775" x2="230.462" y2="1627.775"/>
      <line x1="280.462" y1="1628.775" x2="230.462" y2="1628.775"/>
      <line x1="330.562" y1="1579.775" x2="280.562" y2="1579.775"/>
      <line x1="330.562" y1="1580.775" x2="280.562" y2="1580.775"/>
      <line x1="330.562" y1="1581.775" x2="280.562" y2="1581.775"/>
      <line x1="330.562" y1="1582.775" x2="280.562" y2="1582.775"/>
      <line x1="330.562" y1="1583.775" x2="280.562" y2="1583.775"/>
      <line x1="330.562" y1="1584.775" x2="280.562" y2="1584.775"/>
      <line x1="330.562" y1="1585.775" x2="280.562" y2="1585.775"/>
      <line x1="330.562" y1="1586.775" x2="280.562" y2="1586.775"/>
      <line x1="330.562" y1="1587.775" x2="280.562" y2="1587.775"/>
      <line x1="330.562" y1="1588.775" x2="280.562" y2="1588.775"/>
      <line x1="330.562" y1="1589.775" x2="280.562" y2="1589.775"/>
      <line x1="330.562" y1="1590.775" x2="280.562" y2="1590.775"/>
      <line x1="330.562" y1="1591.775" x2="280.562" y2="1591.775"/>
      <line x1="330.562" y1="1592.775" x2="280.562" y2="1592.775"/>
      <line x1="330.562" y1="1593.775" x2="280.562" y2="1593.775"/>
      <line x1="330.562" y1="1594.775" x2="280.562" y2="1594.775"/>
      <line x1="330.562" y1="1595.775" x2="280.562" y2="1595.775"/>
      <line x1="330.562" y1="1596.775" x2="280.562" y2="1596.775"/>
      <line x1="330.562" y1="1597.775" x2="280.562" y2="1597.775"/>
      <line x1="330.562" y1="1598.775" x2="280.562" y2="1598.775"/>
      <line x1="330.562" y1="1599.775" x2="280.562" y2="1599.775"/>
      <line x1="330.562" y1="1600.775" x2="280.562" y2="1600.775"/>
      <line x1="330.562" y1="1601.775" x2="280.562" y2="1601.775"/>
      <line x1="330.562" y1="1602.775" x2="280.562" y2="1602.775"/>
      <line x1="330.562" y1="1603.775" x2="280.562" y2="1603.775"/>
      <line x1="330.562" y1="1604.775" x2="280.562" y2="1604.775"/>
      <line x1="330.562" y1="1605.775" x2="280.562" y2="1605.775"/>
      <line x1="330.562" y1="1606.775" x2="280.562" y2="1606.775"/>
      <line x1="330.562" y1="1607.775" x2="280.562" y2="1607.775"/>
      <line x1="330.562" y1="1608.775" x2="280.562" y2="1608.775"/>
      <line x1="330.562" y1="1609.775" x2="280.562" y2="1609.775"/>
      <line x1="330.562" y1="1610.775" x2="280.562" y2="1610.775"/>
      <line x1="330.562" y1="1611.775" x2="280.562" y2="1611.775"/>
      <line x1="330.562" y1="1612.775" x2="280.562" y2="1612.775"/>
      <line x1="330.562" y1="1613.775" x2="280.562" y2="1613.775"/>
      <line x1="330.562" y1="1614.775" x2="280.562" y2="1614.775"/>
      <line x1="330.562" y1="1615.775" x2="280.562" y2="1615.775"/>
      <line x1="330.562" y1="1616.775" x2="280.562" y2="1616.775"/>
      <line x1="330.562" y1="1617.775" x2="280.562" y2="1617.775"/>
      <line x1="330.562" y1="1618.775" x2="280.562" y2="1618.775"/>
      <line x1="330.562" y1="1619.775" x2="280.562" y2="1619.775"/>
      <line x1="330.562" y1="1620.775" x2="280.562" y2="1620.775"/>
      <line x1="330.562" y1="1621.775" x2="280.562" y2="1621.775"/>
      <line x1="330.562" y1="1622.775" x2="280.562" y2="1622.775"/>
      <line x1="330.562" y1="1623.775" x2="280.562" y2="1623.775"/>
      <line x1="330.562" y1="1624.775" x2="280.562" y2="1624.775"/>
      <line x1="330.562" y1="1625.775" x2="280.562" y2="1625.775"/>
      <line x1="330.562" y1="1626.775" x2="280.562" y2="1626.775"/>
      <line x1="330.562" y1="1627.775" x2="280.562" y2="1627.775"/>
      <line x1="330.562" y1="1628.775" x2="280.562" y2="1628.775"/>
      <line x1="380.662" y1="1579.775" x2="330.662" y2="1579.775"/>
      <line x1="380.662" y1="1580.775" x2="330.662" y2="1580.775"/>
      <line x1="380.662" y1="1581.775" x2="330.662" y2="1581.775"/>
      <line x1="380.662" y1="1582.775" x2="330.662" y2="1582.775"/>
      <line x1="380.662" y1="1583.775" x2="330.662" y2="1583.775"/>
      <line x1="380.662" y1="1584.775" x2="330.662" y2="1584.775"/>
      <line x1="380.662" y1="1585.775" x2="330.662" y2="1585.775"/>
      <line x1="380.662" y1="1586.775" x2="330.662" y2="1586.775"/>
      <line x1="380.662" y1="1587.775" x2="330.662" y2="1587.775"/>
      <line x1="380.662" y1="1588.775" x2="330.662" y2="1588.775"/>
      <line x1="380.662" y1="1589.775" x2="330.662" y2="1589.775"/>
      <line x1="380.662" y1="1590.775" x2="330.662" y2="1590.775"/>
      <line x1="380.662" y1="1591.775" x2="330.662" y2="1591.775"/>
      <line x1="380.662" y1="1592.775" x2="330.662" y2="1592.775"/>
      <line x1="380.662" y1="1593.775" x2="330.662" y2="1593.775"/>
      <line x1="380.662" y1="1594.775" x2="330.662" y2="1594.775"/>
      <line x1="380.662" y1="1595.775" x2="330.662" y2="1595.775"/>
      <line x1="380.662" y1="1596.775" x2="330.662" y2="1596.775"/>
      <line x1="380.662" y1="1597.775" x2="330.662" y2="1597.775"/>
      <line x1="380.662" y1="1598.775" x2="330.662" y2="1598.775"/>
      <line x1="380.662" y1="1599.775" x2="330.662" y2="1599.775"/>
      <line x1="380.662" y1="1600.775" x2="330.662" y2="1600.775"/>
      <line x1="380.662" y1="1601.775" x2="330.662" y2="1601.775"/>
      <line x1="380.662" y1="1602.775" x2="330.662" y2="1602.775"/>
      <line x1="380.662" y1="1603.775" x2="330.662" y2="1603.775"/>
      <line x1="380.662" y1="1604.775" x2="330.662" y2="1604.775"/>
      <line x1="380.662" y1="1605.775" x2="330.662" y2="1605.775"/>
      <line x1="380.662" y1="1606.775" x2="330.662" y2="1606.775"/>
      <line x1="380.662" y1="1607.775" x2="330.662" y2="1607.775"/>
      <line x1="380.662" y1="1608.775" x2="330.662" y2="1608.775"/>
      <line x1="380.662" y1="1609.775" x2="330.662" y2="1609.775"/>
      <line x1="380.662" y1="1610.775" x2="330.662" y2="1610.775"/>
      <line x1="380.662" y1="1611.775" x2="330.662" y2="1611.775"/>
      <line x1="380.662" y1="1612.775" x2="330.662" y2="1612.775"/>
      <line x1="380.662" y1="1613.775" x2="330.662" y2="1613.775"/>
      <line x1="380.662" y1="1614.775" x2="330.662" y2="1614.775"/>
      <line x1="380.662" y1="1615.775" x2="330.662" y2="1615.775"/>
      <line x1="380.662" y1="1616.775" x2="330.662" y2="1616.775"/>
      <line x1="380.662" y1="1617.775" x2="330.662" y2="1617.775"/>
      <line x1="380.662" y1="1618.775" x2="330.662" y2="1618.775"/>
      <line x1="380.662" y1="1619.775" x2="330.662" y2="1619.775"/>
      <line x1="380.662" y1="1620.775" x2="330.662" y2="1620.775"/>
      <line x1="380.662" y1="1621.775" x2="330.662" y2="1621.775"/>
      <line x1="380.662" y1="1622.775" x2="330.662" y2="1622.775"/>
      <line x1="380.662" y1="1623.775" x2="330.662" y2="1623.775"/>
      <line x1="380.662" y1="1624.775" x2="330.662" y2="1624.775"/>
      <line x1="380.662" y1="1625.775" x2="330.662" y2="1625.775"/>
      <line x1="380.662" y1="1626.775" x2="330.662" y2="1626.775"/>
      <line x1="380.662" y1="1627.775" x2="330.662" y2="1627.775"/>
      <line x1="380.662" y1="1628.775" x2="330.662" y2="1628.775"/>
      <line x1="430.762" y1="1579.775" x2="380.762" y2="1579.775"/>
      <line x1="430.762" y1="1580.775" x2="380.762" y2="1580.775"/>
      <line x1="430.762" y1="1581.775" x2="380.762" y2="1581.775"/>
      <line x1="430.762" y1="1582.775" x2="380.762" y2="1582.775"/>
      <line x1="430.762" y1="1583.775" x2="380.762" y2="1583.775"/>
      <line x1="430.762" y1="1584.775" x2="380.762" y2="1584.775"/>
      <line x1="430.762" y1="1585.775" x2="380.762" y2="1585.775"/>
      <line x1="430.762" y1="1586.775" x2="380.762" y2="1586.775"/>
      <line x1="430.762" y1="1587.775" x2="380.762" y2="1587.775"/>
      <line x1="430.762" y1="1588.775" x2="380.762" y2="1588.775"/>
      <line x1="430.762" y1="1589.775" x2="380.762" y2="1589.775"/>
      <line x1="430.762" y1="1590.775" x2="380.762" y2="1590.775"/>
      <line x1="430.762" y1="1591.775" x2="380.762" y2="1591.775"/>
      <line x1="430.762" y1="1592.775" x2="380.762" y2="1592.775"/>
      <line x1="430.762" y1="1593.775" x2="380.762" y2="1593.775"/>
      <line x1="430.762" y1="1594.775" x2="380.762" y2="1594.775"/>
      <line x1="430.762" y1="1595.775" x2="380.762" y2="1595.775"/>
      <line x1="430.762" y1="1596.775" x2="380.762" y2="1596.775"/>
      <line x1="430.762" y1="1597.775" x2="380.762" y2="1597.775"/>
      <line x1="430.762" y1="1598.775" x2="380.762" y2="1598.775"/>
      <line x1="430.762" y1="1599.775" x2="380.762" y2="1599.775"/>
      <line x1="430.762" y1="1600.775" x2="380.762" y2="1600.775"/>
      <line x1="430.762" y1="1601.775" x2="380.762" y2="1601.775"/>
      <line x1="430.762" y1="1602.775" x2="380.762" y2="1602.775"/>
      <line x1="430.762" y1="1603.775" x2="380.762" y2="1603.775"/>
      <line x1="430.762" y1="1604.775" x2="380.762" y2="1604.775"/>
      <line x1="430.762" y1="1605.775" x2="380.762" y2="1605.775"/>
      <line x1="430.762" y1="1606.775" x2="380.762" y2="1606.775"/>
      <line x1="430.762" y1="1607.775" x2="380.762" y2="1607.775"/>
      <line x1="430.762" y1="1608.775" x2="380.762" y2="1608.775"/>
      <line x1="430.762" y1="1609.775" x2="380.762" y2="1609.775"/>
      <line x1="430.762" y1="1610.775" x2="380.762" y2="1610.775"/>
      <line x1="430.762" y1="1611.775" x2="380.762" y2="1611.775"/>
      <line x1="430.762" y1="1612.775" x2="380.762" y2="1612.775"/>
      <line x1="430.762" y1="1613.775" x2="380.762" y2="1613.775"/>
      <line x1="430.762" y1="1614.775" x2="380.762" y2="1614.775"/>
      <line x1="430.762" y1="1615.775" x2="380.762" y2="1615.775"/>
      <line x1="430.762" y1="1616.775" x2="380.762" y2="1616.775"/>
      <line x1="430.762" y1="1617.775" x2="380.762" y2="1617.775"/>
      <line x1="430.762" y1="1618.775" x2="380.762" y2="1618.775"/>
      <line x1="430.762" y1="1619.775" x2="380.762" y2="1619.775"/>
      <line x1="430.762" y1="1620.775" x2="380.762" y2="1620.775"/>
      <line x1="430.762" y1="1621.775" x2="380.762" y2="1621.775"/>
      <line x1="430.762" y1="1622.775" x2="380.762" y2="1622.775"/>
      <line x1="430.762" y1="1623.775" x2="380.762" y2="1623.775"/>
      <line x1="430.762" y1="1624.775" x2="380.762" y2="1624.775"/>
      <line x1="430.762" y1="1625.775" x2="380.762" y2="1625.775"/>
      <line x1="430.762" y1="1626.775" x2="380.762" y2="1626.775"/>
      <line x1="430.762" y1="1627.775" x2="380.762" y2="1627.775"/>
      <line x1="430.762" y1="1628.775" x2="380.762" y2="1628.775"/>
      <line x1="469.738" y1="1579.775" x2="430.862" y2="1579.775"/>
      <line x1="469.738" y1="1580.775" x2="430.862" y2="1580.775"/>
      <line x1="469.738" y1="1581.775" x2="430.862" y2="1581.775"/>
      <line x1="469.738" y1="1582.775" x2="430.862" y2="1582.775"/>
      <line x1="469.738" y1="1583.775" x2="430.862" y2="1583.775"/>
      <line x1="469.738" y1="1584.775" x2="430.862" y2="1584.775"/>
      <line x1="469.738" y1="1585.775" x2="430.862" y2="1585.775"/>
      <line x1="469.738" y1="1586.775" x2="430.862" y2="1586.775"/>
      <line x1="469.738" y1="1587.775" x2="430.862" y2="1587.775"/>
      <line x1="469.738" y1="1588.775" x2="430.862" y2="1588.775"/>
      <line x1="469.738" y1="1589.775" x2="430.862" y2="1589.775"/>
      <line x1="469.738" y1="1590.775" x2="430.862" y2="1590.775"/>
      <line x1="469.738" y1="1591.775" x2="430.862" y2="1591.775"/>
      <line x1="469.738" y1="1592.775" x2="430.862" y2="1592.775"/>
      <line x1="469.738" y1="1593.775" x2="430.862" y2="1593.775"/>
      <line x1="469.738" y1="1594.775" x2="430.862" y2="1594.775"/>
      <line x1="469.738" y1="1595.775" x2="430.862" y2="1595.775"/>
      <line x1="469.738" y1="1596.775" x2="430.862" y2="1596.775"/>
      <line x1="469.738" y1="1597.775" x2="430.862" y2="1597.775"/>
      <line x1="469.738" y1="1598.775" x2="430.862" y2="1598.775"/>
      <line x1="469.738" y1="1599.775" x2="430.862" y2="1599.775"/>
      <line x1="469.738" y1="1600.775" x2="430.862" y2="1600.775"/>
      <line x1="469.738" y1="1601.775" x2="430.862" y2="1601.775"/>
      <line x1="469.738" y1="1602.775" x2="430.862" y2="1602.775"/>
      <line x1="469.738" y1="1603.775" x2="430.862" y2="1603.775"/>
      <line x1="469.738" y1="1604.775" x2="430.862" y2="1604.775"/>
      <line x1="469.738" y1="1605.775" x2="430.862" y2="1605.775"/>
      <line x1="469.738" y1="1606.775" x2="430.862" y2="1606.775"/>
      <line x1="469.738" y1="1607.775" x2="430.862" y2="1607.775"/>
      <line x1="469.738" y1="1608.775" x2="430.862" y2="1608.775"/>
      <line x1="469.738" y1="1609.775" x2="430.862" y2="1609.775"/>
      <line x1="469.738" y1="1610.775" x2="430.862" y2="1610.775"/>
      <line x1="469.738" y1="1611.775" x2="430.862" y2="1611.775"/>
      <line x1="469.738" y1="1612.775" x2="430.862" y2="1612.775"/>
      <line x1="469.738" y1="1613.775" x2="430.862" y2="1613.775"/>
      <line x1="469.738" y1="1614.775" x2="430.862" y2="1614.775"/>
      <line x1="469.738" y1="1615.775" x2="430.862" y2="1615.775"/>
      <line x1="469.738" y1="1616.775" x2="430.862" y2="1616.775"/>
      <line x1="469.738" y1="1617.775" x2="430.862" y2="1617.775"/>
      <line x1="469.738" y1="1618.775" x2="430.862" y2="1618.775"/>
      <line x1="469.738" y1="1619.775" x2="430.862" y2="1619.775"/>
      <line x1="469.738" y1="1620.775" x2="430.862" y2="1620.775"/>
      <line x1="469.738" y1="1621.775" x2="430.862" y2="1621.775"/>
      <line x1="469.738" y1="1622.775" x2="430.862" y2="1622.775"/>
      <line x1="469.738" y1="1623.775" x2="430.862" y2="1623.775"/>
      <line x1="469.738" y1="1624.775" x2="430.862" y2="1624.775"/>
      <line x1="469.738" y1="1625.775" x2="430.862" y2="1625.775"/>
      <line x1="469.738" y1="1626.775" x2="430.862" y2="1626.775"/>
      <line x1="469.738" y1="1627.775" x2="430.862" y2="1627.775"/>
      <line x1="469.738" y1="1628.775" x2="430.862" y2="1628.775"/>
      <line x1="180.262" y1="1529.775" x2="130.262" y2="1529.775"/>
      <line x1="180.262" y1="1530.775" x2="130.262" y2="1530.775"/>
      <line x1="180.262" y1="1531.775" x2="130.262" y2="1531.775"/>
      <line x1="180.262" y1="1532.775" x2="130.262" y2="1532.775"/>
      <line x1="180.262" y1="1533.775" x2="130.262" y2="1533.775"/>
      <line x1="180.262" y1="1534.775" x2="130.262" y2="1534.775"/>
      <line x1="180.262" y1="1535.775" x2="130.262" y2="1535.775"/>
      <line x1="180.262" y1="1536.775" x2="130.262" y2="1536.775"/>
      <line x1="180.262" y1="1537.775" x2="130.262" y2="1537.775"/>
      <line x1="180.262" y1="1538.775" x2="130.262" y2="1538.775"/>
      <line x1="180.262" y1="1539.775" x2="130.262" y2="1539.775"/>
      <line x1="180.262" y1="1540.775" x2="130.262" y2="1540.775"/>
      <line x1="180.262" y1="1541.775" x2="130.262" y2="1541.775"/>
      <line x1="180.262" y1="1542.775" x2="130.262" y2="1542.775"/>
      <line x1="180.262" y1="1543.775" x2="130.262" y2="1543.775"/>
      <line x1="180.262" y1="1544.775" x2="130.262" y2="1544.775"/>
      <line x1="180.262" y1="1545.775" x2="130.262" y2="1545.775"/>
      <line x1="180.262" y1="1546.775" x2="130.262" y2="1546.775"/>
      <line x1="180.262" y1="1547.775" x2="130.262" y2="1547.775"/>
      <line x1="180.262" y1="1548.775" x2="130.262" y2="1548.775"/>
      <line x1="180.262" y1="1549.775" x2="130.262" y2="1549.775"/>
      <line x1="180.262" y1="1550.775" x2="130.262" y2="1550.775"/>
      <line x1="180.262" y1="1551.775" x2="130.262" y2="1551.775"/>
      <line x1="180.262" y1="1552.775" x2="130.262" y2="1552.775"/>
      <line x1="180.262" y1="1553.775" x2="130.262" y2="1553.775"/>
      <line x1="180.262" y1="1554.775" x2="130.262" y2="1554.775"/>
      <line x1="180.262" y1="1555.775" x2="130.262" y2="1555.775"/>
      <line x1="180.262" y1="1556.775" x2="130.262" y2="1556.775"/>
      <line x1="180.262" y1="1557.775" x2="130.262" y2="1557.775"/>
      <line x1="180.262" y1="1558.775" x2="130.262" y2="1558.775"/>
      <line x1="180.262" y1="1559.775" x2="130.262" y2="1559.775"/>
      <line x1="180.262" y1="1560.775" x2="130.262" y2="1560.775"/>
      <line x1="180.262" y1="1561.775" x2="130.262" y2="1561.775"/>
      <line x1="180.262" y1="1562.775" x2="130.262" y2="1562.775"/>
      <line x1="180.262" y1="1563.775" x2="130.262" y2="1563.775"/>
      <line x1="180.262" y1="1564.775" x2="130.262" y2="1564.775"/>
      <line x1="180.262" y1="1565.775" x2="130.262" y2="1565.775"/>
      <line x1="180.262" y1="1566.775" x2="130.262" y2="1566.775"/>
      <line x1="180.262" y1="1567.775" x2="130.262" y2="1567.775"/>
      <line x1="180.262" y1="1568.775" x2="130.262" y2="1568.775"/>
      <line x1="180.262" y1="1569.775" x2="130.262" y2="1569.775"/>
      <line x1="180.262" y1="1570.775" x2="130.262" y2="1570.775"/>
      <line x1="180.262" y1="1571.775" x2="130.262" y2="1571.775"/>
      <line x1="180.262" y1="1572.775" x2="130.262" y2="1572.775"/>
      <line x1="180.262" y1="1573.775" x2="130.262" y2="1573.775"/>
      <line x1="180.262" y1="1574.775" x2="130.262" y2="1574.775"/>
      <line x1="180.262" y1="1575.775" x2="130.262" y2="1575.775"/>
      <line x1="180.262" y1="1576.775" x2="130.262" y2="1576.775"/>
      <line x1="180.262" y1="1577.775" x2="130.262" y2="1577.775"/>
      <line x1="180.262" y1="1578.775" x2="130.262" y2="1578.775"/>
      <line x1="230.362" y1="1529.775" x2="180.362" y2="1529.775"/>
      <line x1="230.362" y1="1530.775" x2="180.362" y2="1530.775"/>
      <line x1="230.362" y1="1531.775" x2="180.362" y2="1531.775"/>
      <line x1="230.362" y1="1532.775" x2="180.362" y2="1532.775"/>
      <line x1="230.362" y1="1533.775" x2="180.362" y2="1533.775"/>
      <line x1="230.362" y1="1534.775" x2="180.362" y2="1534.775"/>
      <line x1="230.362" y1="1535.775" x2="180.362" y2="1535.775"/>
      <line x1="230.362" y1="1536.775" x2="180.362" y2="1536.775"/>
      <line x1="230.362" y1="1537.775" x2="180.362" y2="1537.775"/>
      <line x1="230.362" y1="1538.775" x2="180.362" y2="1538.775"/>
      <line x1="230.362" y1="1539.775" x2="180.362" y2="1539.775"/>
      <line x1="230.362" y1="1540.775" x2="180.362" y2="1540.775"/>
      <line x1="230.362" y1="1541.775" x2="180.362" y2="1541.775"/>
      <line x1="230.362" y1="1542.775" x2="180.362" y2="1542.775"/>
      <line x1="230.362" y1="1543.775" x2="180.362" y2="1543.775"/>
      <line x1="230.362" y1="1544.775" x2="180.362" y2="1544.775"/>
      <line x1="230.362" y1="1545.775" x2="180.362" y2="1545.775"/>
      <line x1="230.362" y1="1546.775" x2="180.362" y2="1546.775"/>
      <line x1="230.362" y1="1547.775" x2="180.362" y2="1547.775"/>
      <line x1="230.362" y1="1548.775" x2="180.362" y2="1548.775"/>
      <line x1="230.362" y1="1549.775" x2="180.362" y2="1549.775"/>
      <line x1="230.362" y1="1550.775" x2="180.362" y2="1550.775"/>
      <line x1="230.362" y1="1551.775" x2="180.362" y2="1551.775"/>
      <line x1="230.362" y1="1552.775" x2="180.362" y2="1552.775"/>
      <line x1="230.362" y1="1553.775" x2="180.362" y2="1553.775"/>
      <line x1="230.362" y1="1554.775" x2="180.362" y2="1554.775"/>
      <line x1="230.362" y1="1555.775" x2="180.362" y2="1555.775"/>
      <line x1="230.362" y1="1556.775" x2="180.362" y2="1556.775"/>
      <line x1="230.362" y1="1557.775" x2="180.362" y2="1557.775"/>
      <line x1="230.362" y1="1558.775" x2="180.362" y2="1558.775"/>
      <line x1="230.362" y1="1559.775" x2="180.362" y2="1559.775"/>
      <line x1="230.362" y1="1560.775" x2="180.362" y2="1560.775"/>
      <line x1="230.362" y1="1561.775" x2="180.362" y2="1561.775"/>
      <line x1="230.362" y1="1562.775" x2="180.362" y2="1562.775"/>
      <line x1="230.362" y1="1563.775" x2="180.362" y2="1563.775"/>
      <line x1="230.362" y1="1564.775" x2="180.362" y2="1564.775"/>
      <line x1="230.362" y1="1565.775" x2="180.362" y2="1565.775"/>
      <line x1="230.362" y1="1566.775" x2="180.362" y2="1566.775"/>
      <line x1="230.362" y1="1567.775" x2="180.362" y2="1567.775"/>
      <line x1="230.362" y1="1568.775" x2="180.362" y2="1568.775"/>
      <line x1="230.362" y1="1569.775" x2="180.362" y2="1569.775"/>
      <line x1="230.362" y1="1570.775" x2="180.362" y2="1570.775"/>
      <line x1="230.362" y1="1571.775" x2="180.362" y2="1571.775"/>
      <line x1="230.362" y1="1572.775" x2="180.362" y2="1572.775"/>
      <line x1="230.362" y1="1573.775" x2="180.362" y2="1573.775"/>
      <line x1="230.362" y1="1574.775" x2="180.362" y2="1574.775"/>
      <line x1="230.362" y1="1575.775" x2="180.362" y2="1575.775"/>
      <line x1="230.362" y1="1576.775" x2="180.362" y2="1576.775"/>
      <line x1="230.362" y1="1577.775" x2="180.362" y2="1577.775"/>
      <line x1="230.362" y1="1578.775" x2="180.362" y2="1578.775"/>
      <line x1="280.462" y1="1529.775" x2="230.462" y2="1529.775"/>
      <line x1="280.462" y1="1530.775" x2="230.462" y2="1530.775"/>
      <line x1="280.462" y1="1531.775" x2="230.462" y2="1531.775"/>
      <line x1="280.462" y1="1532.775" x2="230.462" y2="1532.775"/>
      <line x1="280.462" y1="1533.775" x2="230.462" y2="1533.775"/>
      <line x1="280.462" y1="1534.775" x2="230.462" y2="1534.775"/>
      <line x1="280.462" y1="1535.775" x2="230.462" y2="1535.775"/>
      <line x1="280.462" y1="1536.775" x2="230.462" y2="1536.775"/>
      <line x1="280.462" y1="1537.775" x2="230.462" y2="1537.775"/>
      <line x1="280.462" y1="1538.775" x2="230.462" y2="1538.775"/>
      <line x1="280.462" y1="1539.775" x2="230.462" y2="1539.775"/>
      <line x1="280.462" y1="1540.775" x2="230.462" y2="1540.775"/>
      <line x1="280.462" y1="1541.775" x2="230.462" y2="1541.775"/>
      <line x1="280.462" y1="1542.775" x2="230.462" y2="1542.775"/>
      <line x1="280.462" y1="1543.775" x2="230.462" y2="1543.775"/>
      <line x1="280.462" y1="1544.775" x2="230.462" y2="1544.775"/>
      <line x1="280.462" y1="1545.775" x2="230.462" y2="1545.775"/>
      <line x1="280.462" y1="1546.775" x2="230.462" y2="1546.775"/>
      <line x1="280.462" y1="1547.775" x2="230.462" y2="1547.775"/>
      <line x1="280.462" y1="1548.775" x2="230.462" y2="1548.775"/>
      <line x1="280.462" y1="1549.775" x2="230.462" y2="1549.775"/>
      <line x1="280.462" y1="1550.775" x2="230.462" y2="1550.775"/>
      <line x1="280.462" y1="1551.775" x2="230.462" y2="1551.775"/>
      <line x1="280.462" y1="1552.775" x2="230.462" y2="1552.775"/>
      <line x1="280.462" y1="1553.775" x2="230.462" y2="1553.775"/>
      <line x1="280.462" y1="1554.775" x2="230.462" y2="1554.775"/>
      <line x1="280.462" y1="1555.775" x2="230.462" y2="1555.775"/>
      <line x1="280.462" y1="1556.775" x2="230.462" y2="1556.775"/>
      <line x1="280.462" y1="1557.775" x2="230.462" y2="1557.775"/>
      <line x1="280.462" y1="1558.775" x2="230.462" y2="1558.775"/>
      <line x1="280.462" y1="1559.775" x2="230.462" y2="1559.775"/>
      <line x1="280.462" y1="1560.775" x2="230.462" y2="1560.775"/>
      <line x1="280.462" y1="1561.775" x2="230.462" y2="1561.775"/>
      <line x1="280.462" y1="1562.775" x2="230.462" y2="1562.775"/>
      <line x1="280.462" y1="1563.775" x2="230.462" y2="1563.775"/>
      <line x1="280.462" y1="1564.775" x2="230.462" y2="1564.775"/>
      <line x1="280.462" y1="1565.775" x2="230.462" y2="1565.775"/>
      <line x1="280.462" y1="1566.775" x2="230.462" y2="1566.775"/>
      <line x1="280.462" y1="1567.775" x2="230.462" y2="1567.775"/>
      <line x1="280.462" y1="1568.775" x2="230.462" y2="1568.775"/>
      <line x1="280.462" y1="1569.775" x2="230.462" y2="1569.775"/>
      <line x1="280.462" y1="1570.775" x2="230.462" y2="1570.775"/>
      <line x1="280.462" y1="1571.775" x2="230.462" y2="1571.775"/>
      <line x1="280.462" y1="1572.775" x2="230.462" y2="1572.775"/>
      <line x1="280.462" y1="1573.775" x2="230.462" y2="1573.775"/>
      <line x1="280.462" y1="1574.775" x2="230.462" y2="1574.775"/>
      <line x1="280.462" y1="1575.775" x2="230.462" y2="1575.775"/>
      <line x1="280.462" y1="1576.775" x2="230.462" y2="1576.775"/>
      <line x1="280.462" y1="1577.775" x2="230.462" y2="1577.775"/>
      <line x1="280.462" y1="1578.775" x2="230.462" y2="1578.775"/>
      <line x1="330.562" y1="1529.775" x2="280.562" y2="1529.775"/>
      <line x1="330.562" y1="1530.775" x2="280.562" y2="1530.775"/>
      <line x1="330.562" y1="1531.775" x2="280.562" y2="1531.775"/>
      <line x1="330.562" y1="1532.775" x2="280.562" y2="1532.775"/>
      <line x1="330.562" y1="1533.775" x2="280.562" y2="1533.775"/>
      <line x1="330.562" y1="1534.775" x2="280.562" y2="1534.775"/>
      <line x1="330.562" y1="1535.775" x2="280.562" y2="1535.775"/>
      <line x1="330.562" y1="1536.775" x2="280.562" y2="1536.775"/>
      <line x1="330.562" y1="1537.775" x2="280.562" y2="1537.775"/>
      <line x1="330.562" y1="1538.775" x2="280.562" y2="1538.775"/>
      <line x1="330.562" y1="1539.775" x2="280.562" y2="1539.775"/>
      <line x1="330.562" y1="1540.775" x2="280.562" y2="1540.775"/>
      <line x1="330.562" y1="1541.775" x2="280.562" y2="1541.775"/>
      <line x1="330.562" y1="1542.775" x2="280.562" y2="1542.775"/>
      <line x1="330.562" y1="1543.775" x2="280.562" y2="1543.775"/>
      <line x1="330.562" y1="1544.775" x2="280.562" y2="1544.775"/>
      <line x1="330.562" y1="1545.775" x2="280.562" y2="1545.775"/>
      <line x1="330.562" y1="1546.775" x2="280.562" y2="1546.775"/>
      <line x1="330.562" y1="1547.775" x2="280.562" y2="1547.775"/>
      <line x1="330.562" y1="1548.775" x2="280.562" y2="1548.775"/>
      <line x1="330.562" y1="1549.775" x2="280.562" y2="1549.775"/>
      <line x1="330.562" y1="1550.775" x2="280.562" y2="1550.775"/>
      <line x1="330.562" y1="1551.775" x2="280.562" y2="1551.775"/>
      <line x1="330.562" y1="1552.775" x2="280.562" y2="1552.775"/>
      <line x1="330.562" y1="1553.775" x2="280.562" y2="1553.775"/>
      <line x1="330.562" y1="1554.775" x2="280.562" y2="1554.775"/>
      <line x1="330.562" y1="1555.775" x2="280.562" y2="1555.775"/>
      <line x1="330.562" y1="1556.775" x2="280.562" y2="1556.775"/>
      <line x1="330.562" y1="1557.775" x2="280.562" y2="1557.775"/>
      <line x1="330.562" y1="1558.775" x2="280.562" y2="1558.775"/>
      <line x1="330.562" y1="1559.775" x2="280.562" y2="1559.775"/>
      <line x1="330.562" y1="1560.775" x2="280.562" y2="1560.775"/>
      <line x1="330.562" y1="1561.775" x2="280.562" y2="1561.775"/>
      <line x1="330.562" y1="1562.775" x2="280.562" y2="1562.775"/>
      <line x1="330.562" y1="1563.775" x2="280.562" y2="1563.775"/>
      <line x1="330.562" y1="1564.775" x2="280.562" y2="1564.775"/>
      <line x1="330.562" y1="1565.775" x2="280.562" y2="1565.775"/>
      <line x1="330.562" y1="1566.775" x2="280.562" y2="1566.775"/>
      <line x1="330.562" y1="1567.775" x2="280.562" y2="1567.775"/>
      <line x1="330.562" y1="1568.775" x2="280.562" y2="1568.775"/>
      <line x1="330.562" y1="1569.775" x2="280.562" y2="1569.775"/>
      <line x1="330.562" y1="1570.775" x2="280.562" y2="1570.775"/>
      <line x1="330.562" y1="1571.775" x2="280.562" y2="1571.775"/>
      <line x1="330.562" y1="1572.775" x2="280.562" y2="1572.775"/>
      <line x1="330.562" y1="1573.775" x2="280.562" y2="1573.775"/>
      <line x1="330.562" y1="1574.775" x2="280.562" y2="1574.775"/>
      <line x1="330.562" y1="1575.775" x2="280.562" y2="1575.775"/>
      <line x1="330.562" y1="1576.775" x2="280.562" y2="1576.775"/>
      <line x1="330.562" y1="1577.775" x2="280.562" y2="1577.775"/>
      <line x1="330.562" y1="1578.775" x2="280.562" y2="1578.775"/>
      <line x1="380.662" y1="1529.775" x2="330.662" y2="1529.775"/>
      <line x1="380.662" y1="1530.775" x2="330.662" y2="1530.775"/>
      <line x1="380.662" y1="1531.775" x2="330.662" y2="1531.775"/>
      <line x1="380.662" y1="1532.775" x2="330.662" y2="1532.775"/>
      <line x1="380.662" y1="1533.775" x2="330.662" y2="1533.775"/>
      <line x1="380.662" y1="1534.775" x2="330.662" y2="1534.775"/>
      <line x1="380.662" y1="1535.775" x2="330.662" y2="1535.775"/>
      <line x1="380.662" y1="1536.775" x2="330.662" y2="1536.775"/>
      <line x1="380.662" y1="1537.775" x2="330.662" y2="1537.775"/>
      <line x1="380.662" y1="1538.775" x2="330.662" y2="1538.775"/>
      <line x1="380.662" y1="1539.775" x2="330.662" y2="1539.775"/>
      <line x1="380.662" y1="1540.775" x2="330.662" y2="1540.775"/>
      <line x1="380.662" y1="1541.775" x2="330.662" y2="1541.775"/>
      <line x1="380.662" y1="1542.775" x2="330.662" y2="1542.775"/>
      <line x1="380.662" y1="1543.775" x2="330.662" y2="1543.775"/>
      <line x1="380.662" y1="1544.775" x2="330.662" y2="1544.775"/>
      <line x1="380.662" y1="1545.775" x2="330.662" y2="1545.775"/>
      <line x1="380.662" y1="1546.775" x2="330.662" y2="1546.775"/>
      <line x1="380.662" y1="1547.775" x2="330.662" y2="1547.775"/>
      <line x1="380.662" y1="1548.775" x2="330.662" y2="1548.775"/>
      <line x1="380.662" y1="1549.775" x2="330.662" y2="1549.775"/>
      <line x1="380.662" y1="1550.775" x2="330.662" y2="1550.775"/>
      <line x1="380.662" y1="1551.775" x2="330.662" y2="1551.775"/>
      <line x1="380.662" y1="1552.775" x2="330.662" y2="1552.775"/>
      <line x1="380.662" y1="1553.775" x2="330.662" y2="1553.775"/>
      <line x1="380.662" y1="1554.775" x2="330.662" y2="1554.775"/>
      <line x1="380.662" y1="1555.775" x2="330.662" y2="1555.775"/>
      <line x1="380.662" y1="1556.775" x2="330.662" y2="1556.775"/>
      <line x1="380.662" y1="1557.775" x2="330.662" y2="1557.775"/>
      <line x1="380.662" y1="1558.775" x2="330.662" y2="1558.775"/>
      <line x1="380.662" y1="1559.775" x2="330.662" y2="1559.775"/>
      <line x1="380.662" y1="1560.775" x2="330.662" y2="1560.775"/>
      <line x1="380.662" y1="1561.775" x2="330.662" y2="1561.775"/>
      <line x1="380.662" y1="1562.775" x2="330.662" y2="1562.775"/>
      <line x1="380.662" y1="1563.775" x2="330.662" y2="1563.775"/>
      <line x1="380.662" y1="1564.775" x2="330.662" y2="1564.775"/>
      <line x1="380.662" y1="1565.775" x2="330.662" y2="1565.775"/>
      <line x1="380.662" y1="1566.775" x2="330.662" y2="1566.775"/>
      <line x1="380.662" y1="1567.775" x2="330.662" y2="1567.775"/>
      <line x1="380.662" y1="1568.775" x2="330.662" y2="1568.775"/>
      <line x1="380.662" y1="1569.775" x2="330.662" y2="1569.775"/>
      <line x1="380.662" y1="1570.775" x2="330.662" y2="1570.775"/>
      <line x1="380.662" y1="1571.775" x2="330.662" y2="1571.775"/>
      <line x1="380.662" y1="1572.775" x2="330.662" y2="1572.775"/>
      <line x1="380.662" y1="1573.775" x2="330.662" y2="1573.775"/>
      <line x1="380.662" y1="1574.775" x2="330.662" y2="1574.775"/>
      <line x1="380.662" y1="1575.775" x2="330.662" y2="1575.775"/>
      <line x1="380.662" y1="1576.775" x2="330.662" y2="1576.775"/>
      <line x1="380.662" y1="1577.775" x2="330.662" y2="1577.775"/>
      <line x1="380.662" y1="1578.775" x2="330.662" y2="1578.775"/>
      <line x1="430.762" y1="1529.775" x2="380.762" y2="1529.775"/>
      <line x1="430.762" y1="1530.775" x2="380.762" y2="1530.775"/>
      <line x1="430.762" y1="1531.775" x2="380.762" y2="1531.775"/>
      <line x1="430.762" y1="1532.775" x2="380.762" y2="1532.775"/>
      <line x1="430.762" y1="1533.775" x2="380.762" y2="1533.775"/>
      <line x1="430.762" y1="1534.775" x2="380.762" y2="1534.775"/>
      <line x1="430.762" y1="1535.775" x2="380.762" y2="1535.775"/>
      <line x1="430.762" y1="1536.775" x2="380.762" y2="1536.775"/>
      <line x1="430.762" y1="1537.775" x2="380.762" y2="1537.775"/>
      <line x1="430.762" y1="1538.775" x2="380.762" y2="1538.775"/>
      <line x1="430.762" y1="1539.775" x2="380.762" y2="1539.775"/>
      <line x1="430.762" y1="1540.775" x2="380.762" y2="1540.775"/>
      <line x1="430.762" y1="1541.775" x2="380.762" y2="1541.775"/>
      <line x1="430.762" y1="1542.775" x2="380.762" y2="1542.775"/>
      <line x1="430.762" y1="1543.775" x2="380.762" y2="1543.775"/>
      <line x1="430.762" y1="1544.775" x2="380.762" y2="1544.775"/>
      <line x1="430.762" y1="1545.775" x2="380.762" y2="1545.775"/>
      <line x1="430.762" y1="1546.775" x2="380.762" y2="1546.775"/>
      <line x1="430.762" y1="1547.775" x2="380.762" y2="1547.775"/>
      <line x1="430.762" y1="1548.775" x2="380.762" y2="1548.775"/>
      <line x1="430.762" y1="1549.775" x2="380.762" y2="1549.775"/>
      <line x1="430.762" y1="1550.775" x2="380.762" y2="1550.775"/>
      <line x1="430.762" y1="1551.775" x2="380.762" y2="1551.775"/>
      <line x1="430.762" y1="1552.775" x2="380.762" y2="1552.775"/>
      <line x1="430.762" y1="1553.775" x2="380.762" y2="1553.775"/>
      <line x1="430.762" y1="1554.775" x2="380.762" y2="1554.775"/>
      <line x1="430.762" y1="1555.775" x2="380.762" y2="1555.775"/>
      <line x1="430.762" y1="1556.775" x2="380.762" y2="1556.775"/>
      <line x1="430.762" y1="1557.775" x2="380.762" y2="1557.775"/>
      <line x1="430.762" y1="1558.775" x2="380.762" y2="1558.775"/>
      <line x1="430.762" y1="1559.775" x2="380.762" y2="1559.775"/>
      <line x1="430.762" y1="1560.775" x2="380.762" y2="1560.775"/>
      <line x1="430.762" y1="1561.775" x2="380.762" y2="1561.775"/>
      <line x1="430.762" y1="1562.775" x2="380.762" y2="1562.775"/>
      <line x1="430.762" y1="1563.775" x2="380.762" y2="1563.775"/>
      <line x1="430.762" y1="1564.775" x2="380.762" y2="1564.775"/>
      <line x1="430.762" y1="1565.775" x2="380.762" y2="1565.775"/>
      <line x1="430.762" y1="1566.775" x2="380.762" y2="1566.775"/>
      <line x1="430.762" y1="1567.775" x2="380.762" y2="1567.775"/>
      <line x1="430.762" y1="1568.775" x2="380.762" y2="1568.775"/>
      <line x1="430.762" y1="1569.775" x2="380.762" y2="1569.775"/>
      <line x1="430.762" y1="1570.775" x2="380.762" y2="1570.775"/>
      <line x1="430.762" y1="1571.775" x2="380.762" y2="1571.775"/>
      <line x1="430.762" y1="1572.775" x2="380.762" y2="1572.775"/>
      <line x1="430.762" y1="1573.775" x2="380.762" y2="1573.775"/>
      <line x1="430.762" y1="1574.775" x2="380.762" y2="1574.775"/>
      <line x1="430.762" y1="1575.775" x2="380.762" y2="1575.775"/>
      <line x1="430.762" y1="1576.775" x2="380.762" y2="1576.775"/>
      <line x1="430.762" y1="1577.775" x2="380.762" y2="1577.775"/>
      <line x1="430.762" y1="1578.775" x2="380.762" y2="1578.775"/>
      <line x1="469.738" y1="1529.775" x2="430.862" y2="1529.775"/>
      <line x1="469.738" y1="1530.775" x2="430.862" y2="1530.775"/>
      <line x1="469.738" y1="1531.775" x2="430.862" y2="1531.775"/>
      <line x1="469.738" y1="1532.775" x2="430.862" y2="1532.775"/>
      <line x1="469.738" y1="1533.775" x2="430.862" y2="1533.775"/>
      <line x1="469.738" y1="1534.775" x2="430.862" y2="1534.775"/>
      <line x1="469.738" y1="1535.775" x2="430.862" y2="1535.775"/>
      <line x1="469.738" y1="1536.775" x2="430.862" y2="1536.775"/>
      <line x1="469.738" y1="1537.775" x2="430.862" y2="1537.775"/>
      <line x1="469.738" y1="1538.775" x2="430.862" y2="1538.775"/>
      <line x1="469.738" y1="1539.775" x2="430.862" y2="1539.775"/>
      <line x1="469.738" y1="1540.775" x2="430.862" y2="1540.775"/>
      <line x1="469.738" y1="1541.775" x2="430.862" y2="1541.775"/>
      <line x1="469.738" y1="1542.775" x2="430.862" y2="1542.775"/>
      <line x1="469.738" y1="1543.775" x2="430.862" y2="1543.775"/>
      <line x1="469.738" y1="1544.775" x2="430.862" y2="1544.775"/>
      <line x1="469.738" y1="1545.775" x2="430.862" y2="1545.775"/>
      <line x1="469.738" y1="1546.775" x2="430.862" y2="1546.775"/>
      <line x1="469.738" y1="1547.775" x2="430.862" y2="1547.775"/>
      <line x1="469.738" y1="1548.775" x2="430.862" y2="1548.775"/>
      <line x1="469.738" y1="1549.775" x2="430.862" y2="1549.775"/>
      <line x1="469.738" y1="1550.775" x2="430.862" y2="1550.775"/>
      <line x1="469.738" y1="1551.775" x2="430.862" y2="1551.775"/>
      <line x1="469.738" y1="1552.775" x2="430.862" y2="1552.775"/>
      <line x1="469.738" y1="1553.775" x2="430.862" y2="1553.775"/>
      <line x1="469.738" y1="1554.775" x2="430.862" y2="1554.775"/>
      <line x1="469.738" y1="1555.775" x2="430.862" y2="1555.775"/>
      <line x1="469.738" y1="1556.775" x2="430.862" y2="1556.775"/>
      <line x1="469.738" y1="1557.775" x2="430.862" y2="1557.775"/>
      <line x1="469.738" y1="1558.775" x2="430.862" y2="1558.775"/>
      <line x1="469.738" y1="1559.775" x2="430.862" y2="1559.775"/>
      <line x1="469.738" y1="1560.775" x2="430.862" y2="1560.775"/>
      <line x1="469.738" y1="1561.775" x2="430.862" y2="1561.775"/>
      <line x1="469.738" y1="1562.775" x2="430.862" y2="1562.775"/>
      <line x1="469.738" y1="1563.775" x2="430.862" y2="1563.775"/>
      <line x1="469.738" y1="1564.775" x2="430.862" y2="1564.775"/>
      <line x1="469.738" y1="1565.775" x2="430.862" y2="1565.775"/>
      <line x1="469.738" y1="1566.775" x2="430.862" y2="1566.775"/>
      <line x1="469.738" y1="1567.775" x2="430.862" y2="1567.775"/>
      <line x1="469.738" y1="1568.775" x2="430.862" y2="1568.775"/>
      <line x1="469.738" y1="1569.775" x2="430.862" y2="1569.775"/>
      <line x1="469.738" y1="1570.775" x2="430.862" y2="1570.775"/>
      <line x1="469.738" y1="1571.775" x2="430.862" y2="1571.775"/>
      <line x1="469.738" y1="1572.775" x2="430.862" y2="1572.775"/>
      <line x1="469.738" y1="1573.775" x2="430.862" y2="1573.775"/>
      <line x1="469.738" y1="1574.775" x2="430.862" y2="1574.775"/>
      <line x1="469.738" y1="1575.775" x2="430.862" y2="1575.775"/>
      <line x1="469.738" y1="1576.775" x2="430.862" y2="1576.775"/>
      <line x1="469.738" y1="1577.775" x2="430.862" y2="1577.775"/>
      <line x1="469.738" y1="1578.775" x2="430.862" y2="1578.775"/>
      <line x1="180.262" y1="1525.775" x2="130.262" y2="1525.775"/>
      <line x1="180.262" y1="1526.775" x2="130.262" y2="1526.775"/>
      <line x1="180.262" y1="1527.775" x2="130.262" y2="1527.775"/>
      <line x1="180.262" y1="1528.775" x2="130.262" y2="1528.775"/>
      <line x1="230.362" y1="1525.775" x2="180.362" y2="1525.775"/>
      <line x1="230.362" y1="1526.775" x2="180.362" y2="1526.775"/>
      <line x1="230.362" y1="1527.775" x2="180.362" y2="1527.775"/>
      <line x1="230.362" y1="1528.775" x2="180.362" y2="1528.775"/>
      <line x1="280.462" y1="1525.775" x2="230.462" y2="1525.775"/>
      <line x1="280.462" y1="1526.775" x2="230.462" y2="1526.775"/>
      <line x1="280.462" y1="1527.775" x2="230.462" y2="1527.775"/>
      <line x1="280.462" y1="1528.775" x2="230.462" y2="1528.775"/>
      <line x1="330.562" y1="1525.775" x2="280.562" y2="1525.775"/>
      <line x1="330.562" y1="1526.775" x2="280.562" y2="1526.775"/>
      <line x1="330.562" y1="1527.775" x2="280.562" y2="1527.775"/>
      <line x1="330.562" y1="1528.775" x2="280.562" y2="1528.775"/>
      <line x1="380.662" y1="1525.775" x2="330.662" y2="1525.775"/>
      <line x1="380.662" y1="1526.775" x2="330.662" y2="1526.775"/>
      <line x1="380.662" y1="1527.775" x2="330.662" y2="1527.775"/>
      <line x1="380.662" y1="1528.775" x2="330.662" y2="1528.775"/>
      <line x1="430.762" y1="1525.775" x2="380.762" y2="1525.775"/>
      <line x1="430.762" y1="1526.775" x2="380.762" y2="1526.775"/>
      <line x1="430.762" y1="1527.775" x2="380.762" y2="1527.775"/>
      <line x1="430.762" y1="1528.775" x2="380.762" y2="1528.775"/>
      <line x1="469.738" y1="1525.775" x2="430.862" y2="1525.775"/>
      <line x1="469.738" y1="1526.775" x2="430.862" y2="1526.775"/>
      <line x1="469.738" y1="1527.775" x2="430.862" y2="1527.775"/>
      <line x1="469.738" y1="1528.775" x2="430.862" y2="1528.775"/>
    </g>
    <g stroke="#1976D2" stroke-width="0.4">
      <polyline points="473.237,1521.729 126.763,1521.729 126.763,1682.729 473.237,1682.729 473.237,1521.729" fill="none"/>
      <polyline points="472.237,1522.729 127.763,1522.729 127.763,1681.730 472.237,1681.730 472.237,1522.729" fill="none"/>
      <polyline points="471.237,1523.729 128.763,1523.729 128.763,1680.730 471.237,1680.730 471.237,1523.729" fill="none"/>
      <polyline points="470.237,1524.729 129.763,1524.729 129.763,1679.729 470.237,1679.729 470.237,1524.729" fill="none"/>
    </g>
    <g stroke="#C62828" stroke-width="0.4" fill="none">
    </g>
    <g stroke="#EF6C00" stroke-width="0.4" fill="none">
    </g>
  </g>
  <g stroke="#000000" stroke-width="0.4">
    <line x1="500.000" y1="1000.000" x2="1500.000" y2="1000.000"/>
  </g>
  <g stroke="#000000" stroke-width="0.4">
    <line x1="1000.000" y1="500.000" x2="1000.000" y2="1500.000"/>
  </g>
  <circle cx="1000.000" cy="1000.000" r="1000.000" stroke="red" stroke-width="1" fill="none"/>
  </g>
</svg>
