<?xml version="1.0" encoding="UTF-8"?>
<svg xmlns="http://www.w3.org/2000/svg" version="1.1" width="2000" height="2000">
  <g fill="none" stroke-linecap="round" stroke-linejoin="round">
  <text x="10" y="20" font-size="24" fill="#555">Layer 274 Z=66.800 mm</text>
  <g transform="translate(700.000,-602.229)">
    <g stroke="#2E7D32" stroke-width="0.4">
      <line x1="197.511" y1="1679.230" x2="197.511" y2="1629.230"/>
      <line x1="198.511" y1="1679.230" x2="198.511" y2="1629.230"/>
      <line x1="199.511" y1="1679.230" x2="199.511" y2="1629.230"/>
      <line x1="200.511" y1="1679.230" x2="200.511" y2="1629.230"/>
      <line x1="201.511" y1="1679.230" x2="201.511" y2="1629.230"/>
      <line x1="202.511" y1="1679.230" x2="202.511" y2="1629.230"/>
      <line x1="203.511" y1="1679.230" x2="203.511" y2="1629.230"/>
      <line x1="204.511" y1="1679.230" x2="204.511" y2="1629.230"/>
      <line x1="205.511" y1="1679.230" x2="205.511" y2="1629.230"/>
      <line x1="206.511" y1="1679.230" x2="206.511" y2="1629.230"/>
      <line x1="207.511" y1="1679.230" x2="207.511" y2="1629.230"/>
      <line x1="208.511" y1="1679.230" x2="208.511" y2="1629.230"/>
      <line x1="209.511" y1="1679.230" x2="209.511" y2="1629.230"/>
      <line x1="210.511" y1="1679.230" x2="210.511" y2="1629.230"/>
      <line x1="211.511" y1="1679.230" x2="211.511" y2="1629.230"/>
      <line x1="212.511" y1="1679.230" x2="212.511" y2="1629.230"/>
      <line x1="213.511" y1="1679.230" x2="213.511" y2="1629.230"/>
      <line x1="214.511" y1="1679.230" x2="214.511" y2="1629.230"/>
      <line x1="215.511" y1="1679.230" x2="215.511" y2="1629.230"/>
      <line x1="216.511" y1="1679.230" x2="216.511" y2="1629.230"/>
      <line x1="217.511" y1="1679.230" x2="217.511" y2="1629.230"/>
      <line x1="218.511" y1="1679.230" x2="218.511" y2="1629.230"/>
      <line x1="219.511" y1="1679.230" x2="219.511" y2="1629.230"/>
      <line x1="220.511" y1="1679.230" x2="220.511" y2="1629.230"/>
      <line x1="221.511" y1="1679.230" x2="221.511" y2="1629.230"/>
      <line x1="222.511" y1="1679.230" x2="222.511" y2="1629.230"/>
      <line x1="223.511" y1="1679.230" x2="223.511" y2="1629.230"/>
      <line x1="224.511" y1="1679.230" x2="224.511" y2="1629.230"/>
      <line x1="225.511" y1="1679.230" x2="225.511" y2="1629.230"/>
      <line x1="226.511" y1="1679.230" x2="226.511" y2="1629.230"/>
      <line x1="227.511" y1="1679.230" x2="227.511" y2="1629.230"/>
      <line x1="228.511" y1="1679.230" x2="228.511" y2="1629.230"/>
      <line x1="229.511" y1="1679.230" x2="229.511" y2="1629.230"/>
      <line x1="230.511" y1="1679.230" x2="230.511" y2="1629.230"/>
      <line x1="231.511" y1="1679.230" x2="231.511" y2="1629.230"/>
      <line x1="232.511" y1="1679.230" x2="232.511" y2="1629.230"/>
      <line x1="233.511" y1="1679.230" x2="233.511" y2="1629.230"/>
      <line x1="234.511" y1="1679.230" x2="234.511" y2="1629.230"/>
      <line x1="235.511" y1="1679.230" x2="235.511" y2="1629.230"/>
      <line x1="236.511" y1="1679.230" x2="236.511" y2="1629.230"/>
      <line x1="237.511" y1="1679.230" x2="237.511" y2="1629.230"/>
      <line x1="238.511" y1="1679.230" x2="238.511" y2="1629.230"/>
      <line x1="239.511" y1="1679.230" x2="239.511" y2="1629.230"/>
      <line x1="240.511" y1="1679.230" x2="240.511" y2="1629.230"/>
      <line x1="241.511" y1="1679.230" x2="241.511" y2="1629.230"/>
      <line x1="242.511" y1="1679.230" x2="242.511" y2="1629.230"/>
      <line x1="243.511" y1="1679.230" x2="243.511" y2="1629.230"/>
      <line x1="244.511" y1="1679.230" x2="244.511" y2="1629.230"/>
      <line x1="245.511" y1="1679.230" x2="245.511" y2="1629.230"/>
      <line x1="246.511" y1="1679.230" x2="246.511" y2="1629.230"/>
      <line x1="247.511" y1="1679.230" x2="247.511" y2="1629.230"/>
      <line x1="248.511" y1="1679.230" x2="248.511" y2="1629.230"/>
      <line x1="249.511" y1="1679.230" x2="249.511" y2="1629.230"/>
      <line x1="250.511" y1="1679.230" x2="250.511" y2="1629.230"/>
      <line x1="251.511" y1="1679.230" x2="251.511" y2="1629.230"/>
      <line x1="252.511" y1="1679.230" x2="252.511" y2="1629.230"/>
      <line x1="253.511" y1="1679.230" x2="253.511" y2="1629.230"/>
      <line x1="254.511" y1="1679.230" x2="254.511" y2="1629.230"/>
      <line x1="255.511" y1="1679.230" x2="255.511" y2="1629.230"/>
      <line x1="256.511" y1="1679.230" x2="256.511" y2="1629.230"/>
      <line x1="257.511" y1="1679.230" x2="257.511" y2="1629.230"/>
      <line x1="258.511" y1="1679.230" x2="258.511" y2="1629.230"/>
      <line x1="259.511" y1="1679.230" x2="259.511" y2="1629.230"/>
      <line x1="260.511" y1="1679.230" x2="260.511" y2="1629.230"/>
      <line x1="261.511" y1="1679.230" x2="261.511" y2="1629.230"/>
      <line x1="262.511" y1="1679.230" x2="262.511" y2="1629.230"/>
      <line x1="263.511" y1="1679.230" x2="263.511" y2="1629.230"/>
      <line x1="264.511" y1="1679.230" x2="264.511" y2="1629.230"/>
      <line x1="265.511" y1="1679.230" x2="265.511" y2="1629.230"/>
      <line x1="266.511" y1="1679.230" x2="266.511" y2="1629.230"/>
      <line x1="267.511" y1="1679.230" x2="267.511" y2="1629.230"/>
      <line x1="268.511" y1="1679.230" x2="268.511" y2="1629.230"/>
      <line x1="269.511" y1="1679.230" x2="269.511" y2="1629.230"/>
      <line x1="270.511" y1="1679.230" x2="270.511" y2="1629.230"/>
      <line x1="271.511" y1="1679.230" x2="271.511" y2="1629.230"/>
      <line x1="272.511" y1="1679.230" x2="272.511" y2="1629.230"/>
      <line x1="273.511" y1="1679.230" x2="273.511" y2="1629.230"/>
      <line x1="274.511" y1="1679.230" x2="274.511" y2="1629.230"/>
      <line x1="275.511" y1="1679.230" x2="275.511" y2="1629.230"/>
      <line x1="276.511" y1="1679.230" x2="276.511" y2="1629.230"/>
      <line x1="277.511" y1="1679.230" x2="277.511" y2="1629.230"/>
      <line x1="278.511" y1="1679.230" x2="278.511" y2="1629.230"/>
      <line x1="279.511" y1="1679.230" x2="279.511" y2="1629.230"/>
      <line x1="280.511" y1="1679.230" x2="280.511" y2="1629.230"/>
      <line x1="281.511" y1="1679.230" x2="281.511" y2="1629.230"/>
      <line x1="282.511" y1="1679.230" x2="282.511" y2="1629.230"/>
      <line x1="283.511" y1="1679.230" x2="283.511" y2="1629.230"/>
      <line x1="284.511" y1="1679.230" x2="284.511" y2="1629.230"/>
      <line x1="285.511" y1="1679.230" x2="285.511" y2="1629.230"/>
      <line x1="286.511" y1="1679.230" x2="286.511" y2="1629.230"/>
      <line x1="287.511" y1="1679.230" x2="287.511" y2="1629.230"/>
      <line x1="288.511" y1="1679.230" x2="288.511" y2="1629.230"/>
      <line x1="289.511" y1="1679.230" x2="289.511" y2="1629.230"/>
      <line x1="290.511" y1="1679.230" x2="290.511" y2="1629.230"/>
      <line x1="291.511" y1="1679.230" x2="291.511" y2="1629.230"/>
      <line x1="292.511" y1="1679.230" x2="292.511" y2="1629.230"/>
      <line x1="293.511" y1="1679.230" x2="293.511" y2="1629.230"/>
      <line x1="294.511" y1="1679.230" x2="294.511" y2="1629.230"/>
      <line x1="295.511" y1="1679.230" x2="295.511" y2="1629.230"/>
      <line x1="296.511" y1="1679.230" x2="296.511" y2="1629.230"/>
      <line x1="297.511" y1="1679.230" x2="297.511" y2="1629.230"/>
      <line x1="298.511" y1="1679.230" x2="298.511" y2="1629.230"/>
      <line x1="299.511" y1="1679.230" x2="299.511" y2="1629.230"/>
      <line x1="300.511" y1="1679.230" x2="300.511" y2="1629.230"/>
      <line x1="301.511" y1="1679.230" x2="301.511" y2="1629.230"/>
      <line x1="302.511" y1="1679.230" x2="302.511" y2="1629.230"/>
      <line x1="303.511" y1="1679.230" x2="303.511" y2="1629.230"/>
      <line x1="304.511" y1="1679.230" x2="304.511" y2="1629.230"/>
      <line x1="305.511" y1="1679.230" x2="305.511" y2="1629.230"/>
      <line x1="306.511" y1="1679.230" x2="306.511" y2="1629.230"/>
      <line x1="307.511" y1="1679.230" x2="307.511" y2="1629.230"/>
      <line x1="308.511" y1="1679.230" x2="308.511" y2="1629.230"/>
      <line x1="309.511" y1="1679.230" x2="309.511" y2="1629.230"/>
      <line x1="310.511" y1="1679.230" x2="310.511" y2="1629.230"/>
      <line x1="311.511" y1="1679.230" x2="311.511" y2="1629.230"/>
      <line x1="312.511" y1="1679.230" x2="312.511" y2="1629.230"/>
      <line x1="313.511" y1="1679.230" x2="313.511" y2="1629.230"/>
      <line x1="314.511" y1="1679.230" x2="314.511" y2="1629.230"/>
      <line x1="315.511" y1="1679.230" x2="315.511" y2="1629.230"/>
      <line x1="316.511" y1="1679.230" x2="316.511" y2="1629.230"/>
      <line x1="317.511" y1="1679.230" x2="317.511" y2="1629.230"/>
      <line x1="318.511" y1="1679.230" x2="318.511" y2="1629.230"/>
      <line x1="319.511" y1="1679.230" x2="319.511" y2="1629.230"/>
      <line x1="320.511" y1="1679.230" x2="320.511" y2="1629.230"/>
      <line x1="321.511" y1="1679.230" x2="321.511" y2="1629.230"/>
      <line x1="322.511" y1="1679.230" x2="322.511" y2="1629.230"/>
      <line x1="323.511" y1="1679.230" x2="323.511" y2="1629.230"/>
      <line x1="324.511" y1="1679.230" x2="324.511" y2="1629.230"/>
      <line x1="325.511" y1="1679.230" x2="325.511" y2="1629.230"/>
      <line x1="326.511" y1="1679.230" x2="326.511" y2="1629.230"/>
      <line x1="327.511" y1="1679.230" x2="327.511" y2="1629.230"/>
      <line x1="328.511" y1="1679.230" x2="328.511" y2="1629.230"/>
      <line x1="329.511" y1="1679.230" x2="329.511" y2="1629.230"/>
      <line x1="330.511" y1="1679.230" x2="330.511" y2="1629.230"/>
      <line x1="331.511" y1="1679.230" x2="331.511" y2="1629.230"/>
      <line x1="332.511" y1="1679.230" x2="332.511" y2="1629.230"/>
      <line x1="333.511" y1="1679.230" x2="333.511" y2="1629.230"/>
      <line x1="334.511" y1="1679.230" x2="334.511" y2="1629.230"/>
      <line x1="335.511" y1="1679.230" x2="335.511" y2="1629.230"/>
      <line x1="336.511" y1="1679.230" x2="336.511" y2="1629.230"/>
      <line x1="337.511" y1="1679.230" x2="337.511" y2="1629.230"/>
      <line x1="338.511" y1="1679.230" x2="338.511" y2="1629.230"/>
      <line x1="339.511" y1="1679.230" x2="339.511" y2="1629.230"/>
      <line x1="340.511" y1="1679.230" x2="340.511" y2="1629.230"/>
      <line x1="341.511" y1="1679.230" x2="341.511" y2="1629.230"/>
      <line x1="342.511" y1="1679.230" x2="342.511" y2="1629.230"/>
      <line x1="343.511" y1="1679.230" x2="343.511" y2="1629.230"/>
      <line x1="344.511" y1="1679.230" x2="344.511" y2="1629.230"/>
      <line x1="345.511" y1="1679.230" x2="345.511" y2="1629.230"/>
      <line x1="346.511" y1="1679.230" x2="346.511" y2="1629.230"/>
      <line x1="348.511" y1="1679.230" x2="348.511" y2="1629.230"/>
      <line x1="349.511" y1="1679.230" x2="349.511" y2="1629.230"/>
      <line x1="350.511" y1="1679.230" x2="350.511" y2="1629.230"/>
      <line x1="351.511" y1="1679.230" x2="351.511" y2="1629.230"/>
      <line x1="352.511" y1="1679.230" x2="352.511" y2="1629.230"/>
      <line x1="353.511" y1="1679.230" x2="353.511" y2="1629.230"/>
      <line x1="354.511" y1="1679.230" x2="354.511" y2="1629.230"/>
      <line x1="355.511" y1="1679.230" x2="355.511" y2="1629.230"/>
      <line x1="356.511" y1="1679.230" x2="356.511" y2="1629.230"/>
      <line x1="357.511" y1="1679.230" x2="357.511" y2="1629.230"/>
      <line x1="358.511" y1="1679.230" x2="358.511" y2="1629.230"/>
      <line x1="359.511" y1="1679.230" x2="359.511" y2="1629.230"/>
      <line x1="360.511" y1="1679.230" x2="360.511" y2="1629.230"/>
      <line x1="361.511" y1="1679.230" x2="361.511" y2="1629.230"/>
      <line x1="362.511" y1="1679.230" x2="362.511" y2="1629.230"/>
      <line x1="363.511" y1="1679.230" x2="363.511" y2="1629.230"/>
      <line x1="364.511" y1="1679.230" x2="364.511" y2="1629.230"/>
      <line x1="365.511" y1="1679.230" x2="365.511" y2="1629.230"/>
      <line x1="366.511" y1="1679.230" x2="366.511" y2="1629.230"/>
      <line x1="367.511" y1="1679.230" x2="367.511" y2="1629.230"/>
      <line x1="368.511" y1="1679.230" x2="368.511" y2="1629.230"/>
      <line x1="369.511" y1="1679.230" x2="369.511" y2="1629.230"/>
      <line x1="370.511" y1="1679.230" x2="370.511" y2="1629.230"/>
      <line x1="371.511" y1="1679.230" x2="371.511" y2="1629.230"/>
      <line x1="372.511" y1="1679.230" x2="372.511" y2="1629.230"/>
      <line x1="373.511" y1="1679.230" x2="373.511" y2="1629.230"/>
      <line x1="374.511" y1="1679.230" x2="374.511" y2="1629.230"/>
      <line x1="375.511" y1="1679.230" x2="375.511" y2="1629.230"/>
      <line x1="376.511" y1="1679.230" x2="376.511" y2="1629.230"/>
      <line x1="377.511" y1="1679.230" x2="377.511" y2="1629.230"/>
      <line x1="378.511" y1="1679.230" x2="378.511" y2="1629.230"/>
      <line x1="379.511" y1="1679.230" x2="379.511" y2="1629.230"/>
      <line x1="380.511" y1="1679.230" x2="380.511" y2="1629.230"/>
      <line x1="381.511" y1="1679.230" x2="381.511" y2="1629.230"/>
      <line x1="382.511" y1="1679.230" x2="382.511" y2="1629.230"/>
      <line x1="383.511" y1="1679.230" x2="383.511" y2="1629.230"/>
      <line x1="384.511" y1="1679.230" x2="384.511" y2="1629.230"/>
      <line x1="385.511" y1="1679.230" x2="385.511" y2="1629.230"/>
      <line x1="386.511" y1="1679.230" x2="386.511" y2="1629.230"/>
      <line x1="387.511" y1="1679.230" x2="387.511" y2="1629.230"/>
      <line x1="388.511" y1="1679.230" x2="388.511" y2="1629.230"/>
      <line x1="389.511" y1="1679.230" x2="389.511" y2="1629.230"/>
      <line x1="390.511" y1="1679.230" x2="390.511" y2="1629.230"/>
      <line x1="391.511" y1="1679.230" x2="391.511" y2="1629.230"/>
      <line x1="392.511" y1="1679.230" x2="392.511" y2="1629.230"/>
      <line x1="393.511" y1="1679.230" x2="393.511" y2="1629.230"/>
      <line x1="394.511" y1="1679.230" x2="394.511" y2="1629.230"/>
      <line x1="395.511" y1="1679.230" x2="395.511" y2="1629.230"/>
      <line x1="396.511" y1="1679.230" x2="396.511" y2="1629.230"/>
      <line x1="397.511" y1="1679.230" x2="397.511" y2="1629.230"/>
      <line x1="398.511" y1="1679.230" x2="398.511" y2="1629.230"/>
      <line x1="399.511" y1="1679.230" x2="399.511" y2="1629.230"/>
      <line x1="400.511" y1="1679.230" x2="400.511" y2="1629.230"/>
      <line x1="401.511" y1="1679.230" x2="401.511" y2="1629.230"/>
      <line x1="402.511" y1="1679.230" x2="402.511" y2="1629.230"/>
      <line x1="197.511" y1="1629.130" x2="197.511" y2="1579.130"/>
      <line x1="198.511" y1="1629.130" x2="198.511" y2="1579.130"/>
      <line x1="199.511" y1="1629.130" x2="199.511" y2="1579.130"/>
      <line x1="200.511" y1="1629.130" x2="200.511" y2="1579.130"/>
      <line x1="201.511" y1="1629.130" x2="201.511" y2="1579.130"/>
      <line x1="202.511" y1="1629.130" x2="202.511" y2="1579.130"/>
      <line x1="203.511" y1="1629.130" x2="203.511" y2="1579.130"/>
      <line x1="204.511" y1="1629.130" x2="204.511" y2="1579.130"/>
      <line x1="205.511" y1="1629.130" x2="205.511" y2="1579.130"/>
      <line x1="206.511" y1="1629.130" x2="206.511" y2="1579.130"/>
      <line x1="207.511" y1="1629.130" x2="207.511" y2="1579.130"/>
      <line x1="208.511" y1="1629.130" x2="208.511" y2="1579.130"/>
      <line x1="209.511" y1="1629.130" x2="209.511" y2="1579.130"/>
      <line x1="210.511" y1="1629.130" x2="210.511" y2="1579.130"/>
      <line x1="211.511" y1="1629.130" x2="211.511" y2="1579.130"/>
      <line x1="212.511" y1="1629.130" x2="212.511" y2="1579.130"/>
      <line x1="213.511" y1="1629.130" x2="213.511" y2="1579.130"/>
      <line x1="214.511" y1="1629.130" x2="214.511" y2="1579.130"/>
      <line x1="215.511" y1="1629.130" x2="215.511" y2="1579.130"/>
      <line x1="216.511" y1="1629.130" x2="216.511" y2="1579.130"/>
      <line x1="217.511" y1="1629.130" x2="217.511" y2="1579.130"/>
      <line x1="218.511" y1="1629.130" x2="218.511" y2="1579.130"/>
      <line x1="219.511" y1="1629.130" x2="219.511" y2="1579.130"/>
      <line x1="220.511" y1="1629.130" x2="220.511" y2="1579.130"/>
      <line x1="221.511" y1="1629.130" x2="221.511" y2="1579.130"/>
      <line x1="222.511" y1="1629.130" x2="222.511" y2="1579.130"/>
      <line x1="223.511" y1="1629.130" x2="223.511" y2="1579.130"/>
      <line x1="224.511" y1="1629.130" x2="224.511" y2="1579.130"/>
      <line x1="225.511" y1="1629.130" x2="225.511" y2="1579.130"/>
      <line x1="226.511" y1="1629.130" x2="226.511" y2="1579.130"/>
      <line x1="227.511" y1="1629.130" x2="227.511" y2="1579.130"/>
      <line x1="228.511" y1="1629.130" x2="228.511" y2="1579.130"/>
      <line x1="229.511" y1="1629.130" x2="229.511" y2="1579.130"/>
      <line x1="230.511" y1="1629.130" x2="230.511" y2="1579.130"/>
      <line x1="231.511" y1="1629.130" x2="231.511" y2="1579.130"/>
      <line x1="232.511" y1="1629.130" x2="232.511" y2="1579.130"/>
      <line x1="233.511" y1="1629.130" x2="233.511" y2="1579.130"/>
      <line x1="234.511" y1="1629.130" x2="234.511" y2="1579.130"/>
      <line x1="235.511" y1="1629.130" x2="235.511" y2="1579.130"/>
      <line x1="236.511" y1="1629.130" x2="236.511" y2="1579.130"/>
      <line x1="237.511" y1="1629.130" x2="237.511" y2="1579.130"/>
      <line x1="238.511" y1="1629.130" x2="238.511" y2="1579.130"/>
      <line x1="239.511" y1="1629.130" x2="239.511" y2="1579.130"/>
      <line x1="240.511" y1="1629.130" x2="240.511" y2="1579.130"/>
      <line x1="241.511" y1="1629.130" x2="241.511" y2="1579.130"/>
      <line x1="242.511" y1="1629.130" x2="242.511" y2="1579.130"/>
      <line x1="243.511" y1="1629.130" x2="243.511" y2="1579.130"/>
      <line x1="244.511" y1="1629.130" x2="244.511" y2="1579.130"/>
      <line x1="245.511" y1="1629.130" x2="245.511" y2="1579.130"/>
      <line x1="246.511" y1="1629.130" x2="246.511" y2="1579.130"/>
      <line x1="247.511" y1="1629.130" x2="247.511" y2="1579.130"/>
      <line x1="248.511" y1="1629.130" x2="248.511" y2="1579.130"/>
      <line x1="249.511" y1="1629.130" x2="249.511" y2="1579.130"/>
      <line x1="250.511" y1="1629.130" x2="250.511" y2="1579.130"/>
      <line x1="251.511" y1="1629.130" x2="251.511" y2="1579.130"/>
      <line x1="252.511" y1="1629.130" x2="252.511" y2="1579.130"/>
      <line x1="253.511" y1="1629.130" x2="253.511" y2="1579.130"/>
      <line x1="254.511" y1="1629.130" x2="254.511" y2="1579.130"/>
      <line x1="255.511" y1="1629.130" x2="255.511" y2="1579.130"/>
      <line x1="256.511" y1="1629.130" x2="256.511" y2="1579.130"/>
      <line x1="257.511" y1="1629.130" x2="257.511" y2="1579.130"/>
      <line x1="258.511" y1="1629.130" x2="258.511" y2="1579.130"/>
      <line x1="259.511" y1="1629.130" x2="259.511" y2="1579.130"/>
      <line x1="260.511" y1="1629.130" x2="260.511" y2="1579.130"/>
      <line x1="261.511" y1="1629.130" x2="261.511" y2="1579.130"/>
      <line x1="262.511" y1="1629.130" x2="262.511" y2="1579.130"/>
      <line x1="263.511" y1="1629.130" x2="263.511" y2="1579.130"/>
      <line x1="264.511" y1="1629.130" x2="264.511" y2="1579.130"/>
      <line x1="265.511" y1="1629.130" x2="265.511" y2="1579.130"/>
      <line x1="266.511" y1="1629.130" x2="266.511" y2="1579.130"/>
      <line x1="267.511" y1="1629.130" x2="267.511" y2="1579.130"/>
      <line x1="268.511" y1="1629.130" x2="268.511" y2="1579.130"/>
      <line x1="269.511" y1="1629.130" x2="269.511" y2="1579.130"/>
      <line x1="270.511" y1="1629.130" x2="270.511" y2="1579.130"/>
      <line x1="271.511" y1="1629.130" x2="271.511" y2="1579.130"/>
      <line x1="272.511" y1="1629.130" x2="272.511" y2="1579.130"/>
      <line x1="273.511" y1="1629.130" x2="273.511" y2="1579.130"/>
      <line x1="274.511" y1="1629.130" x2="274.511" y2="1579.130"/>
      <line x1="275.511" y1="1629.130" x2="275.511" y2="1579.130"/>
      <line x1="276.511" y1="1629.130" x2="276.511" y2="1579.130"/>
      <line x1="277.511" y1="1629.130" x2="277.511" y2="1579.130"/>
      <line x1="278.511" y1="1629.130" x2="278.511" y2="1579.130"/>
      <line x1="279.511" y1="1629.130" x2="279.511" y2="1579.130"/>
      <line x1="280.511" y1="1629.130" x2="280.511" y2="1579.130"/>
      <line x1="281.511" y1="1629.130" x2="281.511" y2="1579.130"/>
      <line x1="282.511" y1="1629.130" x2="282.511" y2="1579.130"/>
      <line x1="283.511" y1="1629.130" x2="283.511" y2="1579.130"/>
      <line x1="284.511" y1="1629.130" x2="284.511" y2="1579.130"/>
      <line x1="285.511" y1="1629.130" x2="285.511" y2="1579.130"/>
      <line x1="286.511" y1="1629.130" x2="286.511" y2="1579.130"/>
      <line x1="287.511" y1="1629.130" x2="287.511" y2="1579.130"/>
      <line x1="288.511" y1="1629.130" x2="288.511" y2="1579.130"/>
      <line x1="289.511" y1="1629.130" x2="289.511" y2="1579.130"/>
      <line x1="290.511" y1="1629.130" x2="290.511" y2="1579.130"/>
      <line x1="291.511" y1="1629.130" x2="291.511" y2="1579.130"/>
      <line x1="292.511" y1="1629.130" x2="292.511" y2="1579.130"/>
      <line x1="293.511" y1="1629.130" x2="293.511" y2="1579.130"/>
      <line x1="294.511" y1="1629.130" x2="294.511" y2="1579.130"/>
      <line x1="295.511" y1="1629.130" x2="295.511" y2="1579.130"/>
      <line x1="296.511" y1="1629.130" x2="296.511" y2="1579.130"/>
      <line x1="297.511" y1="1629.130" x2="297.511" y2="1579.130"/>
      <line x1="298.511" y1="1629.130" x2="298.511" y2="1579.130"/>
      <line x1="299.511" y1="1629.130" x2="299.511" y2="1579.130"/>
      <line x1="300.511" y1="1629.130" x2="300.511" y2="1579.130"/>
      <line x1="301.511" y1="1629.130" x2="301.511" y2="1579.130"/>
      <line x1="302.511" y1="1629.130" x2="302.511" y2="1579.130"/>
      <line x1="303.511" y1="1629.130" x2="303.511" y2="1579.130"/>
      <line x1="304.511" y1="1629.130" x2="304.511" y2="1579.130"/>
      <line x1="305.511" y1="1629.130" x2="305.511" y2="1579.130"/>
      <line x1="306.511" y1="1629.130" x2="306.511" y2="1579.130"/>
      <line x1="307.511" y1="1629.130" x2="307.511" y2="1579.130"/>
      <line x1="308.511" y1="1629.130" x2="308.511" y2="1579.130"/>
      <line x1="309.511" y1="1629.130" x2="309.511" y2="1579.130"/>
      <line x1="310.511" y1="1629.130" x2="310.511" y2="1579.130"/>
      <line x1="311.511" y1="1629.130" x2="311.511" y2="1579.130"/>
      <line x1="312.511" y1="1629.130" x2="312.511" y2="1579.130"/>
      <line x1="313.511" y1="1629.130" x2="313.511" y2="1579.130"/>
      <line x1="314.511" y1="1629.130" x2="314.511" y2="1579.130"/>
      <line x1="315.511" y1="1629.130" x2="315.511" y2="1579.130"/>
      <line x1="316.511" y1="1629.130" x2="316.511" y2="1579.130"/>
      <line x1="317.511" y1="1629.130" x2="317.511" y2="1579.130"/>
      <line x1="318.511" y1="1629.130" x2="318.511" y2="1579.130"/>
      <line x1="319.511" y1="1629.130" x2="319.511" y2="1579.130"/>
      <line x1="320.511" y1="1629.130" x2="320.511" y2="1579.130"/>
      <line x1="321.511" y1="1629.130" x2="321.511" y2="1579.130"/>
      <line x1="322.511" y1="1629.130" x2="322.511" y2="1579.130"/>
      <line x1="323.511" y1="1629.130" x2="323.511" y2="1579.130"/>
      <line x1="324.511" y1="1629.130" x2="324.511" y2="1579.130"/>
      <line x1="325.511" y1="1629.130" x2="325.511" y2="1579.130"/>
      <line x1="326.511" y1="1629.130" x2="326.511" y2="1579.130"/>
      <line x1="327.511" y1="1629.130" x2="327.511" y2="1579.130"/>
      <line x1="328.511" y1="1629.130" x2="328.511" y2="1579.130"/>
      <line x1="329.511" y1="1629.130" x2="329.511" y2="1579.130"/>
      <line x1="330.511" y1="1629.130" x2="330.511" y2="1579.130"/>
      <line x1="331.511" y1="1629.130" x2="331.511" y2="1579.130"/>
      <line x1="332.511" y1="1629.130" x2="332.511" y2="1579.130"/>
      <line x1="333.511" y1="1629.130" x2="333.511" y2="1579.130"/>
      <line x1="334.511" y1="1629.130" x2="334.511" y2="1579.130"/>
      <line x1="335.511" y1="1629.130" x2="335.511" y2="1579.130"/>
      <line x1="336.511" y1="1629.130" x2="336.511" y2="1579.130"/>
      <line x1="337.511" y1="1629.130" x2="337.511" y2="1579.130"/>
      <line x1="338.511" y1="1629.130" x2="338.511" y2="1579.130"/>
      <line x1="339.511" y1="1629.130" x2="339.511" y2="1579.130"/>
      <line x1="340.511" y1="1629.130" x2="340.511" y2="1579.130"/>
      <line x1="341.511" y1="1629.130" x2="341.511" y2="1579.130"/>
      <line x1="342.511" y1="1629.130" x2="342.511" y2="1579.130"/>
      <line x1="343.511" y1="1629.130" x2="343.511" y2="1579.130"/>
      <line x1="344.511" y1="1629.130" x2="344.511" y2="1579.130"/>
      <line x1="345.511" y1="1629.130" x2="345.511" y2="1579.130"/>
      <line x1="346.511" y1="1629.130" x2="346.511" y2="1579.130"/>
      <line x1="348.511" y1="1629.130" x2="348.511" y2="1579.130"/>
      <line x1="349.511" y1="1629.130" x2="349.511" y2="1579.130"/>
      <line x1="350.511" y1="1629.130" x2="350.511" y2="1579.130"/>
      <line x1="351.511" y1="1629.130" x2="351.511" y2="1579.130"/>
      <line x1="352.511" y1="1629.130" x2="352.511" y2="1579.130"/>
      <line x1="353.511" y1="1629.130" x2="353.511" y2="1579.130"/>
      <line x1="354.511" y1="1629.130" x2="354.511" y2="1579.130"/>
      <line x1="355.511" y1="1629.130" x2="355.511" y2="1579.130"/>
      <line x1="356.511" y1="1629.130" x2="356.511" y2="1579.130"/>
      <line x1="357.511" y1="1629.130" x2="357.511" y2="1579.130"/>
      <line x1="358.511" y1="1629.130" x2="358.511" y2="1579.130"/>
      <line x1="359.511" y1="1629.130" x2="359.511" y2="1579.130"/>
      <line x1="360.511" y1="1629.130" x2="360.511" y2="1579.130"/>
      <line x1="361.511" y1="1629.130" x2="361.511" y2="1579.130"/>
      <line x1="362.511" y1="1629.130" x2="362.511" y2="1579.130"/>
      <line x1="363.511" y1="1629.130" x2="363.511" y2="1579.130"/>
      <line x1="364.511" y1="1629.130" x2="364.511" y2="1579.130"/>
      <line x1="365.511" y1="1629.130" x2="365.511" y2="1579.130"/>
      <line x1="366.511" y1="1629.130" x2="366.511" y2="1579.130"/>
      <line x1="367.511" y1="1629.130" x2="367.511" y2="1579.130"/>
      <line x1="368.511" y1="1629.130" x2="368.511" y2="1579.130"/>
      <line x1="369.511" y1="1629.130" x2="369.511" y2="1579.130"/>
      <line x1="370.511" y1="1629.130" x2="370.511" y2="1579.130"/>
      <line x1="371.511" y1="1629.130" x2="371.511" y2="1579.130"/>
      <line x1="372.511" y1="1629.130" x2="372.511" y2="1579.130"/>
      <line x1="373.511" y1="1629.130" x2="373.511" y2="1579.130"/>
      <line x1="374.511" y1="1629.130" x2="374.511" y2="1579.130"/>
      <line x1="375.511" y1="1629.130" x2="375.511" y2="1579.130"/>
      <line x1="376.511" y1="1629.130" x2="376.511" y2="1579.130"/>
      <line x1="377.511" y1="1629.130" x2="377.511" y2="1579.130"/>
      <line x1="378.511" y1="1629.130" x2="378.511" y2="1579.130"/>
      <line x1="379.511" y1="1629.130" x2="379.511" y2="1579.130"/>
      <line x1="380.511" y1="1629.130" x2="380.511" y2="1579.130"/>
      <line x1="381.511" y1="1629.130" x2="381.511" y2="1579.130"/>
      <line x1="382.511" y1="1629.130" x2="382.511" y2="1579.130"/>
      <line x1="383.511" y1="1629.130" x2="383.511" y2="1579.130"/>
      <line x1="384.511" y1="1629.130" x2="384.511" y2="1579.130"/>
      <line x1="385.511" y1="1629.130" x2="385.511" y2="1579.130"/>
      <line x1="386.511" y1="1629.130" x2="386.511" y2="1579.130"/>
      <line x1="387.511" y1="1629.130" x2="387.511" y2="1579.130"/>
      <line x1="388.511" y1="1629.130" x2="388.511" y2="1579.130"/>
      <line x1="389.511" y1="1629.130" x2="389.511" y2="1579.130"/>
      <line x1="390.511" y1="1629.130" x2="390.511" y2="1579.130"/>
      <line x1="391.511" y1="1629.130" x2="391.511" y2="1579.130"/>
      <line x1="392.511" y1="1629.130" x2="392.511" y2="1579.130"/>
      <line x1="393.511" y1="1629.130" x2="393.511" y2="1579.130"/>
      <line x1="394.511" y1="1629.130" x2="394.511" y2="1579.130"/>
      <line x1="395.511" y1="1629.130" x2="395.511" y2="1579.130"/>
      <line x1="396.511" y1="1629.130" x2="396.511" y2="1579.130"/>
      <line x1="397.511" y1="1629.130" x2="397.511" y2="1579.130"/>
      <line x1="398.511" y1="1629.130" x2="398.511" y2="1579.130"/>
      <line x1="399.511" y1="1629.130" x2="399.511" y2="1579.130"/>
      <line x1="400.511" y1="1629.130" x2="400.511" y2="1579.130"/>
      <line x1="401.511" y1="1629.130" x2="401.511" y2="1579.130"/>
      <line x1="402.511" y1="1629.130" x2="402.511" y2="1579.130"/>
      <line x1="197.511" y1="1579.030" x2="197.511" y2="1529.030"/>
      <line x1="198.511" y1="1579.030" x2="198.511" y2="1529.030"/>
      <line x1="199.511" y1="1579.030" x2="199.511" y2="1529.030"/>
      <line x1="200.511" y1="1579.030" x2="200.511" y2="1529.030"/>
      <line x1="201.511" y1="1579.030" x2="201.511" y2="1529.030"/>
      <line x1="202.511" y1="1579.030" x2="202.511" y2="1529.030"/>
      <line x1="203.511" y1="1579.030" x2="203.511" y2="1529.030"/>
      <line x1="204.511" y1="1579.030" x2="204.511" y2="1529.030"/>
      <line x1="205.511" y1="1579.030" x2="205.511" y2="1529.030"/>
      <line x1="206.511" y1="1579.030" x2="206.511" y2="1529.030"/>
      <line x1="207.511" y1="1579.030" x2="207.511" y2="1529.030"/>
      <line x1="208.511" y1="1579.030" x2="208.511" y2="1529.030"/>
      <line x1="209.511" y1="1579.030" x2="209.511" y2="1529.030"/>
      <line x1="210.511" y1="1579.030" x2="210.511" y2="1529.030"/>
      <line x1="211.511" y1="1579.030" x2="211.511" y2="1529.030"/>
      <line x1="212.511" y1="1579.030" x2="212.511" y2="1529.030"/>
      <line x1="213.511" y1="1579.030" x2="213.511" y2="1529.030"/>
      <line x1="214.511" y1="1579.030" x2="214.511" y2="1529.030"/>
      <line x1="215.511" y1="1579.030" x2="215.511" y2="1529.030"/>
      <line x1="216.511" y1="1579.030" x2="216.511" y2="1529.030"/>
      <line x1="217.511" y1="1579.030" x2="217.511" y2="1529.030"/>
      <line x1="218.511" y1="1579.030" x2="218.511" y2="1529.030"/>
      <line x1="219.511" y1="1579.030" x2="219.511" y2="1529.030"/>
      <line x1="220.511" y1="1579.030" x2="220.511" y2="1529.030"/>
      <line x1="221.511" y1="1579.030" x2="221.511" y2="1529.030"/>
      <line x1="222.511" y1="1579.030" x2="222.511" y2="1529.030"/>
      <line x1="223.511" y1="1579.030" x2="223.511" y2="1529.030"/>
      <line x1="224.511" y1="1579.030" x2="224.511" y2="1529.030"/>
      <line x1="225.511" y1="1579.030" x2="225.511" y2="1529.030"/>
      <line x1="226.511" y1="1579.030" x2="226.511" y2="1529.030"/>
      <line x1="227.511" y1="1579.030" x2="227.511" y2="1529.030"/>
      <line x1="228.511" y1="1579.030" x2="228.511" y2="1529.030"/>
      <line x1="229.511" y1="1579.030" x2="229.511" y2="1529.030"/>
      <line x1="230.511" y1="1579.030" x2="230.511" y2="1529.030"/>
      <line x1="231.511" y1="1579.030" x2="231.511" y2="1529.030"/>
      <line x1="232.511" y1="1579.030" x2="232.511" y2="1529.030"/>
      <line x1="233.511" y1="1579.030" x2="233.511" y2="1529.030"/>
      <line x1="234.511" y1="1579.030" x2="234.511" y2="1529.030"/>
      <line x1="235.511" y1="1579.030" x2="235.511" y2="1529.030"/>
      <line x1="236.511" y1="1579.030" x2="236.511" y2="1529.030"/>
      <line x1="237.511" y1="1579.030" x2="237.511" y2="1529.030"/>
      <line x1="238.511" y1="1579.030" x2="238.511" y2="1529.030"/>
      <line x1="239.511" y1="1579.030" x2="239.511" y2="1529.030"/>
      <line x1="240.511" y1="1579.030" x2="240.511" y2="1529.030"/>
      <line x1="241.511" y1="1579.030" x2="241.511" y2="1529.030"/>
      <line x1="242.511" y1="1579.030" x2="242.511" y2="1529.030"/>
      <line x1="243.511" y1="1579.030" x2="243.511" y2="1529.030"/>
      <line x1="244.511" y1="1579.030" x2="244.511" y2="1529.030"/>
      <line x1="245.511" y1="1579.030" x2="245.511" y2="1529.030"/>
      <line x1="246.511" y1="1579.030" x2="246.511" y2="1529.030"/>
      <line x1="247.511" y1="1579.030" x2="247.511" y2="1529.030"/>
      <line x1="248.511" y1="1579.030" x2="248.511" y2="1529.030"/>
      <line x1="249.511" y1="1579.030" x2="249.511" y2="1529.030"/>
      <line x1="250.511" y1="1579.030" x2="250.511" y2="1529.030"/>
      <line x1="251.511" y1="1579.030" x2="251.511" y2="1529.030"/>
      <line x1="252.511" y1="1579.030" x2="252.511" y2="1529.030"/>
      <line x1="253.511" y1="1579.030" x2="253.511" y2="1529.030"/>
      <line x1="254.511" y1="1579.030" x2="254.511" y2="1529.030"/>
      <line x1="255.511" y1="1579.030" x2="255.511" y2="1529.030"/>
      <line x1="256.511" y1="1579.030" x2="256.511" y2="1529.030"/>
      <line x1="257.511" y1="1579.030" x2="257.511" y2="1529.030"/>
      <line x1="258.511" y1="1579.030" x2="258.511" y2="1529.030"/>
      <line x1="259.511" y1="1579.030" x2="259.511" y2="1529.030"/>
      <line x1="260.511" y1="1579.030" x2="260.511" y2="1529.030"/>
      <line x1="261.511" y1="1579.030" x2="261.511" y2="1529.030"/>
      <line x1="262.511" y1="1579.030" x2="262.511" y2="1529.030"/>
      <line x1="263.511" y1="1579.030" x2="263.511" y2="1529.030"/>
      <line x1="264.511" y1="1579.030" x2="264.511" y2="1529.030"/>
      <line x1="265.511" y1="1579.030" x2="265.511" y2="1529.030"/>
      <line x1="266.511" y1="1579.030" x2="266.511" y2="1529.030"/>
      <line x1="267.511" y1="1579.030" x2="267.511" y2="1529.030"/>
      <line x1="268.511" y1="1579.030" x2="268.511" y2="1529.030"/>
      <line x1="269.511" y1="1579.030" x2="269.511" y2="1529.030"/>
      <line x1="270.511" y1="1579.030" x2="270.511" y2="1529.030"/>
      <line x1="271.511" y1="1579.030" x2="271.511" y2="1529.030"/>
      <line x1="272.511" y1="1579.030" x2="272.511" y2="1529.030"/>
      <line x1="273.511" y1="1579.030" x2="273.511" y2="1529.030"/>
      <line x1="274.511" y1="1579.030" x2="274.511" y2="1529.030"/>
      <line x1="275.511" y1="1579.030" x2="275.511" y2="1529.030"/>
      <line x1="276.511" y1="1579.030" x2="276.511" y2="1529.030"/>
      <line x1="277.511" y1="1579.030" x2="277.511" y2="1529.030"/>
      <line x1="278.511" y1="1579.030" x2="278.511" y2="1529.030"/>
      <line x1="279.511" y1="1579.030" x2="279.511" y2="1529.030"/>
      <line x1="280.511" y1="1579.030" x2="280.511" y2="1529.030"/>
      <line x1="281.511" y1="1579.030" x2="281.511" y2="1529.030"/>
      <line x1="282.511" y1="1579.030" x2="282.511" y2="1529.030"/>
      <line x1="283.511" y1="1579.030" x2="283.511" y2="1529.030"/>
      <line x1="284.511" y1="1579.030" x2="284.511" y2="1529.030"/>
      <line x1="285.511" y1="1579.030" x2="285.511" y2="1529.030"/>
      <line x1="286.511" y1="1579.030" x2="286.511" y2="1529.030"/>
      <line x1="287.511" y1="1579.030" x2="287.511" y2="1529.030"/>
      <line x1="288.511" y1="1579.030" x2="288.511" y2="1529.030"/>
      <line x1="289.511" y1="1579.030" x2="289.511" y2="1529.030"/>
      <line x1="290.511" y1="1579.030" x2="290.511" y2="1529.030"/>
      <line x1="291.511" y1="1579.030" x2="291.511" y2="1529.030"/>
      <line x1="292.511" y1="1579.030" x2="292.511" y2="1529.030"/>
      <line x1="293.511" y1="1579.030" x2="293.511" y2="1529.030"/>
      <line x1="294.511" y1="1579.030" x2="294.511" y2="1529.030"/>
      <line x1="295.511" y1="1579.030" x2="295.511" y2="1529.030"/>
      <line x1="296.511" y1="1579.030" x2="296.511" y2="1529.030"/>
      <line x1="297.511" y1="1579.030" x2="297.511" y2="1529.030"/>
      <line x1="298.511" y1="1579.030" x2="298.511" y2="1529.030"/>
      <line x1="299.511" y1="1579.030" x2="299.511" y2="1529.030"/>
      <line x1="300.511" y1="1579.030" x2="300.511" y2="1529.030"/>
      <line x1="301.511" y1="1579.030" x2="301.511" y2="1529.030"/>
      <line x1="302.511" y1="1579.030" x2="302.511" y2="1529.030"/>
      <line x1="303.511" y1="1579.030" x2="303.511" y2="1529.030"/>
      <line x1="304.511" y1="1579.030" x2="304.511" y2="1529.030"/>
      <line x1="305.511" y1="1579.030" x2="305.511" y2="1529.030"/>
      <line x1="306.511" y1="1579.030" x2="306.511" y2="1529.030"/>
      <line x1="307.511" y1="1579.030" x2="307.511" y2="1529.030"/>
      <line x1="308.511" y1="1579.030" x2="308.511" y2="1529.030"/>
      <line x1="309.511" y1="1579.030" x2="309.511" y2="1529.030"/>
      <line x1="310.511" y1="1579.030" x2="310.511" y2="1529.030"/>
      <line x1="311.511" y1="1579.030" x2="311.511" y2="1529.030"/>
      <line x1="312.511" y1="1579.030" x2="312.511" y2="1529.030"/>
      <line x1="313.511" y1="1579.030" x2="313.511" y2="1529.030"/>
      <line x1="314.511" y1="1579.030" x2="314.511" y2="1529.030"/>
      <line x1="315.511" y1="1579.030" x2="315.511" y2="1529.030"/>
      <line x1="316.511" y1="1579.030" x2="316.511" y2="1529.030"/>
      <line x1="317.511" y1="1579.030" x2="317.511" y2="1529.030"/>
      <line x1="318.511" y1="1579.030" x2="318.511" y2="1529.030"/>
      <line x1="319.511" y1="1579.030" x2="319.511" y2="1529.030"/>
      <line x1="320.511" y1="1579.030" x2="320.511" y2="1529.030"/>
      <line x1="321.511" y1="1579.030" x2="321.511" y2="1529.030"/>
      <line x1="322.511" y1="1579.030" x2="322.511" y2="1529.030"/>
      <line x1="323.511" y1="1579.030" x2="323.511" y2="1529.030"/>
      <line x1="324.511" y1="1579.030" x2="324.511" y2="1529.030"/>
      <line x1="325.511" y1="1579.030" x2="325.511" y2="1529.030"/>
      <line x1="326.511" y1="1579.030" x2="326.511" y2="1529.030"/>
      <line x1="327.511" y1="1579.030" x2="327.511" y2="1529.030"/>
      <line x1="328.511" y1="1579.030" x2="328.511" y2="1529.030"/>
      <line x1="329.511" y1="1579.030" x2="329.511" y2="1529.030"/>
      <line x1="330.511" y1="1579.030" x2="330.511" y2="1529.030"/>
      <line x1="331.511" y1="1579.030" x2="331.511" y2="1529.030"/>
      <line x1="332.511" y1="1579.030" x2="332.511" y2="1529.030"/>
      <line x1="333.511" y1="1579.030" x2="333.511" y2="1529.030"/>
      <line x1="334.511" y1="1579.030" x2="334.511" y2="1529.030"/>
      <line x1="335.511" y1="1579.030" x2="335.511" y2="1529.030"/>
      <line x1="336.511" y1="1579.030" x2="336.511" y2="1529.030"/>
      <line x1="337.511" y1="1579.030" x2="337.511" y2="1529.030"/>
      <line x1="338.511" y1="1579.030" x2="338.511" y2="1529.030"/>
      <line x1="339.511" y1="1579.030" x2="339.511" y2="1529.030"/>
      <line x1="340.511" y1="1579.030" x2="340.511" y2="1529.030"/>
      <line x1="341.511" y1="1579.030" x2="341.511" y2="1529.030"/>
      <line x1="342.511" y1="1579.030" x2="342.511" y2="1529.030"/>
      <line x1="343.511" y1="1579.030" x2="343.511" y2="1529.030"/>
      <line x1="344.511" y1="1579.030" x2="344.511" y2="1529.030"/>
      <line x1="345.511" y1="1579.030" x2="345.511" y2="1529.030"/>
      <line x1="346.511" y1="1579.030" x2="346.511" y2="1529.030"/>
      <line x1="348.511" y1="1579.030" x2="348.511" y2="1529.030"/>
      <line x1="349.511" y1="1579.030" x2="349.511" y2="1529.030"/>
      <line x1="350.511" y1="1579.030" x2="350.511" y2="1529.030"/>
      <line x1="351.511" y1="1579.030" x2="351.511" y2="1529.030"/>
      <line x1="352.511" y1="1579.030" x2="352.511" y2="1529.030"/>
      <line x1="353.511" y1="1579.030" x2="353.511" y2="1529.030"/>
      <line x1="354.511" y1="1579.030" x2="354.511" y2="1529.030"/>
      <line x1="355.511" y1="1579.030" x2="355.511" y2="1529.030"/>
      <line x1="356.511" y1="1579.030" x2="356.511" y2="1529.030"/>
      <line x1="357.511" y1="1579.030" x2="357.511" y2="1529.030"/>
      <line x1="358.511" y1="1579.030" x2="358.511" y2="1529.030"/>
      <line x1="359.511" y1="1579.030" x2="359.511" y2="1529.030"/>
      <line x1="360.511" y1="1579.030" x2="360.511" y2="1529.030"/>
      <line x1="361.511" y1="1579.030" x2="361.511" y2="1529.030"/>
      <line x1="362.511" y1="1579.030" x2="362.511" y2="1529.030"/>
      <line x1="363.511" y1="1579.030" x2="363.511" y2="1529.030"/>
      <line x1="364.511" y1="1579.030" x2="364.511" y2="1529.030"/>
      <line x1="365.511" y1="1579.030" x2="365.511" y2="1529.030"/>
      <line x1="366.511" y1="1579.030" x2="366.511" y2="1529.030"/>
      <line x1="367.511" y1="1579.030" x2="367.511" y2="1529.030"/>
      <line x1="368.511" y1="1579.030" x2="368.511" y2="1529.030"/>
      <line x1="369.511" y1="1579.030" x2="369.511" y2="1529.030"/>
      <line x1="370.511" y1="1579.030" x2="370.511" y2="1529.030"/>
      <line x1="371.511" y1="1579.030" x2="371.511" y2="1529.030"/>
      <line x1="372.511" y1="1579.030" x2="372.511" y2="1529.030"/>
      <line x1="373.511" y1="1579.030" x2="373.511" y2="1529.030"/>
      <line x1="374.511" y1="1579.030" x2="374.511" y2="1529.030"/>
      <line x1="375.511" y1="1579.030" x2="375.511" y2="1529.030"/>
      <line x1="376.511" y1="1579.030" x2="376.511" y2="1529.030"/>
      <line x1="377.511" y1="1579.030" x2="377.511" y2="1529.030"/>
      <line x1="378.511" y1="1579.030" x2="378.511" y2="1529.030"/>
      <line x1="379.511" y1="1579.030" x2="379.511" y2="1529.030"/>
      <line x1="380.511" y1="1579.030" x2="380.511" y2="1529.030"/>
      <line x1="381.511" y1="1579.030" x2="381.511" y2="1529.030"/>
      <line x1="382.511" y1="1579.030" x2="382.511" y2="1529.030"/>
      <line x1="383.511" y1="1579.030" x2="383.511" y2="1529.030"/>
      <line x1="384.511" y1="1579.030" x2="384.511" y2="1529.030"/>
      <line x1="385.511" y1="1579.030" x2="385.511" y2="1529.030"/>
      <line x1="386.511" y1="1579.030" x2="386.511" y2="1529.030"/>
      <line x1="387.511" y1="1579.030" x2="387.511" y2="1529.030"/>
      <line x1="388.511" y1="1579.030" x2="388.511" y2="1529.030"/>
      <line x1="389.511" y1="1579.030" x2="389.511" y2="1529.030"/>
      <line x1="390.511" y1="1579.030" x2="390.511" y2="1529.030"/>
      <line x1="391.511" y1="1579.030" x2="391.511" y2="1529.030"/>
      <line x1="392.511" y1="1579.030" x2="392.511" y2="1529.030"/>
      <line x1="393.511" y1="1579.030" x2="393.511" y2="1529.030"/>
      <line x1="394.511" y1="1579.030" x2="394.511" y2="1529.030"/>
      <line x1="395.511" y1="1579.030" x2="395.511" y2="1529.030"/>
      <line x1="396.511" y1="1579.030" x2="396.511" y2="1529.030"/>
      <line x1="397.511" y1="1579.030" x2="397.511" y2="1529.030"/>
      <line x1="398.511" y1="1579.030" x2="398.511" y2="1529.030"/>
      <line x1="399.511" y1="1579.030" x2="399.511" y2="1529.030"/>
      <line x1="400.511" y1="1579.030" x2="400.511" y2="1529.030"/>
      <line x1="401.511" y1="1579.030" x2="401.511" y2="1529.030"/>
      <line x1="402.511" y1="1579.030" x2="402.511" y2="1529.030"/>
      <line x1="211.511" y1="1528.930" x2="211.511" y2="1525.229"/>
      <line x1="225.511" y1="1528.930" x2="225.511" y2="1525.229"/>
      <line x1="239.511" y1="1528.930" x2="239.511" y2="1525.229"/>
      <line x1="238.511" y1="1528.930" x2="238.511" y2="1525.229"/>
      <line x1="237.511" y1="1528.930" x2="237.511" y2="1525.229"/>
      <line x1="236.511" y1="1528.930" x2="236.511" y2="1525.229"/>
      <line x1="235.511" y1="1528.930" x2="235.511" y2="1525.229"/>
      <line x1="234.511" y1="1528.930" x2="234.511" y2="1525.229"/>
      <line x1="233.511" y1="1528.930" x2="233.511" y2="1525.229"/>
      <line x1="232.511" y1="1528.930" x2="232.511" y2="1525.229"/>
      <line x1="231.511" y1="1528.930" x2="231.511" y2="1525.229"/>
      <line x1="230.511" y1="1528.930" x2="230.511" y2="1525.229"/>
      <line x1="229.511" y1="1528.930" x2="229.511" y2="1525.229"/>
      <line x1="228.511" y1="1528.930" x2="228.511" y2="1525.229"/>
      <line x1="227.511" y1="1528.930" x2="227.511" y2="1525.229"/>
      <line x1="226.511" y1="1528.930" x2="226.511" y2="1525.229"/>
      <line x1="224.511" y1="1528.930" x2="224.511" y2="1525.229"/>
      <line x1="223.511" y1="1528.930" x2="223.511" y2="1525.229"/>
      <line x1="222.511" y1="1528.930" x2="222.511" y2="1525.229"/>
      <line x1="221.511" y1="1528.930" x2="221.511" y2="1525.229"/>
      <line x1="220.511" y1="1528.930" x2="220.511" y2="1525.229"/>
      <line x1="219.511" y1="1528.930" x2="219.511" y2="1525.229"/>
      <line x1="218.511" y1="1528.930" x2="218.511" y2="1525.229"/>
      <line x1="217.511" y1="1528.930" x2="217.511" y2="1525.229"/>
      <line x1="216.511" y1="1528.930" x2="216.511" y2="1525.229"/>
      <line x1="215.511" y1="1528.930" x2="215.511" y2="1525.229"/>
      <line x1="214.511" y1="1528.930" x2="214.511" y2="1525.229"/>
      <line x1="213.511" y1="1528.930" x2="213.511" y2="1525.229"/>
      <line x1="212.511" y1="1528.930" x2="212.511" y2="1525.229"/>
      <line x1="241.511" y1="1528.930" x2="241.511" y2="1525.229"/>
      <line x1="240.511" y1="1528.930" x2="240.511" y2="1525.229"/>
      <line x1="242.511" y1="1528.930" x2="242.511" y2="1525.229"/>
      <line x1="243.511" y1="1528.930" x2="243.511" y2="1525.229"/>
      <line x1="244.511" y1="1528.930" x2="244.511" y2="1525.229"/>
      <line x1="245.511" y1="1528.930" x2="245.511" y2="1525.229"/>
      <line x1="246.511" y1="1528.930" x2="246.511" y2="1525.229"/>
      <line x1="198.511" y1="1528.930" x2="198.511" y2="1525.229"/>
      <line x1="210.511" y1="1528.930" x2="210.511" y2="1525.229"/>
      <line x1="209.511" y1="1528.930" x2="209.511" y2="1525.229"/>
      <line x1="208.511" y1="1528.930" x2="208.511" y2="1525.229"/>
      <line x1="207.511" y1="1528.930" x2="207.511" y2="1525.229"/>
      <line x1="206.511" y1="1528.930" x2="206.511" y2="1525.229"/>
      <line x1="205.511" y1="1528.930" x2="205.511" y2="1525.229"/>
      <line x1="204.511" y1="1528.930" x2="204.511" y2="1525.229"/>
      <line x1="203.511" y1="1528.930" x2="203.511" y2="1525.229"/>
      <line x1="202.511" y1="1528.930" x2="202.511" y2="1525.229"/>
      <line x1="201.511" y1="1528.930" x2="201.511" y2="1525.229"/>
      <line x1="200.511" y1="1528.930" x2="200.511" y2="1525.229"/>
      <line x1="199.511" y1="1528.930" x2="199.511" y2="1525.229"/>
      <line x1="197.511" y1="1528.930" x2="197.511" y2="1525.229"/>
      <line x1="267.511" y1="1528.930" x2="267.511" y2="1525.229"/>
      <line x1="266.511" y1="1528.930" x2="266.511" y2="1525.229"/>
      <line x1="265.511" y1="1528.930" x2="265.511" y2="1525.229"/>
      <line x1="264.511" y1="1528.930" x2="264.511" y2="1525.229"/>
      <line x1="263.511" y1="1528.930" x2="263.511" y2="1525.229"/>
      <line x1="262.511" y1="1528.930" x2="262.511" y2="1525.229"/>
      <line x1="261.511" y1="1528.930" x2="261.511" y2="1525.229"/>
      <line x1="260.511" y1="1528.930" x2="260.511" y2="1525.229"/>
      <line x1="259.511" y1="1528.930" x2="259.511" y2="1525.229"/>
      <line x1="258.511" y1="1528.930" x2="258.511" y2="1525.229"/>
      <line x1="257.511" y1="1528.930" x2="257.511" y2="1525.229"/>
      <line x1="256.511" y1="1528.930" x2="256.511" y2="1525.229"/>
      <line x1="255.511" y1="1528.930" x2="255.511" y2="1525.229"/>
      <line x1="253.511" y1="1528.930" x2="253.511" y2="1525.229"/>
      <line x1="248.511" y1="1528.930" x2="248.511" y2="1525.229"/>
      <line x1="254.511" y1="1528.930" x2="254.511" y2="1525.229"/>
      <line x1="252.511" y1="1528.930" x2="252.511" y2="1525.229"/>
      <line x1="251.511" y1="1528.930" x2="251.511" y2="1525.229"/>
      <line x1="249.511" y1="1528.930" x2="249.511" y2="1525.229"/>
      <line x1="247.511" y1="1528.930" x2="247.511" y2="1525.229"/>
      <line x1="250.511" y1="1528.930" x2="250.511" y2="1525.229"/>
      <line x1="272.511" y1="1528.930" x2="272.511" y2="1525.229"/>
      <line x1="273.511" y1="1528.930" x2="273.511" y2="1525.229"/>
      <line x1="274.511" y1="1528.930" x2="274.511" y2="1525.229"/>
      <line x1="275.511" y1="1528.930" x2="275.511" y2="1525.229"/>
      <line x1="276.511" y1="1528.930" x2="276.511" y2="1525.229"/>
      <line x1="277.511" y1="1528.930" x2="277.511" y2="1525.229"/>
      <line x1="270.511" y1="1528.930" x2="270.511" y2="1525.229"/>
      <line x1="271.511" y1="1528.930" x2="271.511" y2="1525.229"/>
      <line x1="269.511" y1="1528.930" x2="269.511" y2="1525.229"/>
      <line x1="268.511" y1="1528.930" x2="268.511" y2="1525.229"/>
      <line x1="279.511" y1="1528.930" x2="279.511" y2="1525.229"/>
      <line x1="278.511" y1="1528.930" x2="278.511" y2="1525.229"/>
      <line x1="280.511" y1="1528.930" x2="280.511" y2="1525.229"/>
      <line x1="281.511" y1="1528.930" x2="281.511" y2="1525.229"/>
      <line x1="282.511" y1="1528.930" x2="282.511" y2="1525.229"/>
      <line x1="283.511" y1="1528.930" x2="283.511" y2="1525.229"/>
      <line x1="284.511" y1="1528.930" x2="284.511" y2="1525.229"/>
      <line x1="285.511" y1="1528.930" x2="285.511" y2="1525.229"/>
      <line x1="286.511" y1="1528.930" x2="286.511" y2="1525.229"/>
      <line x1="287.511" y1="1528.930" x2="287.511" y2="1525.229"/>
      <line x1="288.511" y1="1528.930" x2="288.511" y2="1525.229"/>
      <line x1="289.511" y1="1528.930" x2="289.511" y2="1525.229"/>
      <line x1="290.511" y1="1528.930" x2="290.511" y2="1525.229"/>
      <line x1="291.511" y1="1528.930" x2="291.511" y2="1525.229"/>
      <line x1="292.511" y1="1528.930" x2="292.511" y2="1525.229"/>
      <line x1="293.511" y1="1528.930" x2="293.511" y2="1525.229"/>
      <line x1="294.511" y1="1528.930" x2="294.511" y2="1525.229"/>
      <line x1="295.511" y1="1528.930" x2="295.511" y2="1525.229"/>
      <line x1="296.511" y1="1528.930" x2="296.511" y2="1525.229"/>
      <line x1="333.511" y1="1528.930" x2="333.511" y2="1525.229"/>
      <line x1="346.511" y1="1528.930" x2="346.511" y2="1525.229"/>
      <line x1="345.511" y1="1528.930" x2="345.511" y2="1525.229"/>
      <line x1="344.511" y1="1528.930" x2="344.511" y2="1525.229"/>
      <line x1="343.511" y1="1528.930" x2="343.511" y2="1525.229"/>
      <line x1="342.511" y1="1528.930" x2="342.511" y2="1525.229"/>
      <line x1="341.511" y1="1528.930" x2="341.511" y2="1525.229"/>
      <line x1="340.511" y1="1528.930" x2="340.511" y2="1525.229"/>
      <line x1="339.511" y1="1528.930" x2="339.511" y2="1525.229"/>
      <line x1="338.511" y1="1528.930" x2="338.511" y2="1525.229"/>
      <line x1="337.511" y1="1528.930" x2="337.511" y2="1525.229"/>
      <line x1="336.511" y1="1528.930" x2="336.511" y2="1525.229"/>
      <line x1="335.511" y1="1528.930" x2="335.511" y2="1525.229"/>
      <line x1="334.511" y1="1528.930" x2="334.511" y2="1525.229"/>
      <line x1="332.511" y1="1528.930" x2="332.511" y2="1525.229"/>
      <line x1="297.511" y1="1528.930" x2="297.511" y2="1525.229"/>
      <line x1="298.511" y1="1528.930" x2="298.511" y2="1525.229"/>
      <line x1="299.511" y1="1528.930" x2="299.511" y2="1525.229"/>
      <line x1="300.511" y1="1528.930" x2="300.511" y2="1525.229"/>
      <line x1="301.511" y1="1528.930" x2="301.511" y2="1525.229"/>
      <line x1="302.511" y1="1528.930" x2="302.511" y2="1525.229"/>
      <line x1="330.511" y1="1528.930" x2="330.511" y2="1525.229"/>
      <line x1="322.511" y1="1528.930" x2="322.511" y2="1525.229"/>
      <line x1="323.511" y1="1528.930" x2="323.511" y2="1525.229"/>
      <line x1="324.511" y1="1528.930" x2="324.511" y2="1525.229"/>
      <line x1="326.511" y1="1528.930" x2="326.511" y2="1525.229"/>
      <line x1="331.511" y1="1528.930" x2="331.511" y2="1525.229"/>
      <line x1="329.511" y1="1528.930" x2="329.511" y2="1525.229"/>
      <line x1="327.511" y1="1528.930" x2="327.511" y2="1525.229"/>
      <line x1="325.511" y1="1528.930" x2="325.511" y2="1525.229"/>
      <line x1="328.511" y1="1528.930" x2="328.511" y2="1525.229"/>
      <line x1="313.511" y1="1528.930" x2="313.511" y2="1525.229"/>
      <line x1="304.511" y1="1528.930" x2="304.511" y2="1525.229"/>
      <line x1="305.511" y1="1528.930" x2="305.511" y2="1525.229"/>
      <line x1="306.511" y1="1528.930" x2="306.511" y2="1525.229"/>
      <line x1="307.511" y1="1528.930" x2="307.511" y2="1525.229"/>
      <line x1="308.511" y1="1528.930" x2="308.511" y2="1525.229"/>
      <line x1="309.511" y1="1528.930" x2="309.511" y2="1525.229"/>
      <line x1="310.511" y1="1528.930" x2="310.511" y2="1525.229"/>
      <line x1="311.511" y1="1528.930" x2="311.511" y2="1525.229"/>
      <line x1="312.511" y1="1528.930" x2="312.511" y2="1525.229"/>
      <line x1="303.511" y1="1528.930" x2="303.511" y2="1525.229"/>
      <line x1="314.511" y1="1528.930" x2="314.511" y2="1525.229"/>
      <line x1="315.511" y1="1528.930" x2="315.511" y2="1525.229"/>
      <line x1="316.511" y1="1528.930" x2="316.511" y2="1525.229"/>
      <line x1="317.511" y1="1528.930" x2="317.511" y2="1525.229"/>
      <line x1="318.511" y1="1528.930" x2="318.511" y2="1525.229"/>
      <line x1="319.511" y1="1528.930" x2="319.511" y2="1525.229"/>
      <line x1="320.511" y1="1528.930" x2="320.511" y2="1525.229"/>
      <line x1="321.511" y1="1528.930" x2="321.511" y2="1525.229"/>
      <line x1="360.511" y1="1528.930" x2="360.511" y2="1525.229"/>
      <line x1="359.511" y1="1528.930" x2="359.511" y2="1525.229"/>
      <line x1="358.511" y1="1528.930" x2="358.511" y2="1525.229"/>
      <line x1="357.511" y1="1528.930" x2="357.511" y2="1525.229"/>
      <line x1="356.511" y1="1528.930" x2="356.511" y2="1525.229"/>
      <line x1="355.511" y1="1528.930" x2="355.511" y2="1525.229"/>
      <line x1="354.511" y1="1528.930" x2="354.511" y2="1525.229"/>
      <line x1="353.511" y1="1528.930" x2="353.511" y2="1525.229"/>
      <line x1="352.511" y1="1528.930" x2="352.511" y2="1525.229"/>
      <line x1="351.511" y1="1528.930" x2="351.511" y2="1525.229"/>
      <line x1="350.511" y1="1528.930" x2="350.511" y2="1525.229"/>
      <line x1="349.511" y1="1528.930" x2="349.511" y2="1525.229"/>
      <line x1="348.511" y1="1528.930" x2="348.511" y2="1525.229"/>
      <line x1="378.511" y1="1528.930" x2="378.511" y2="1525.229"/>
      <line x1="375.511" y1="1528.930" x2="375.511" y2="1525.229"/>
      <line x1="388.511" y1="1528.930" x2="388.511" y2="1525.229"/>
      <line x1="387.511" y1="1528.930" x2="387.511" y2="1525.229"/>
      <line x1="386.511" y1="1528.930" x2="386.511" y2="1525.229"/>
      <line x1="385.511" y1="1528.930" x2="385.511" y2="1525.229"/>
      <line x1="384.511" y1="1528.930" x2="384.511" y2="1525.229"/>
      <line x1="383.511" y1="1528.930" x2="383.511" y2="1525.229"/>
      <line x1="382.511" y1="1528.930" x2="382.511" y2="1525.229"/>
      <line x1="381.511" y1="1528.930" x2="381.511" y2="1525.229"/>
      <line x1="380.511" y1="1528.930" x2="380.511" y2="1525.229"/>
      <line x1="379.511" y1="1528.930" x2="379.511" y2="1525.229"/>
      <line x1="377.511" y1="1528.930" x2="377.511" y2="1525.229"/>
      <line x1="376.511" y1="1528.930" x2="376.511" y2="1525.229"/>
      <line x1="361.511" y1="1528.930" x2="361.511" y2="1525.229"/>
      <line x1="374.511" y1="1528.930" x2="374.511" y2="1525.229"/>
      <line x1="373.511" y1="1528.930" x2="373.511" y2="1525.229"/>
      <line x1="372.511" y1="1528.930" x2="372.511" y2="1525.229"/>
      <line x1="371.511" y1="1528.930" x2="371.511" y2="1525.229"/>
      <line x1="370.511" y1="1528.930" x2="370.511" y2="1525.229"/>
      <line x1="369.511" y1="1528.930" x2="369.511" y2="1525.229"/>
      <line x1="368.511" y1="1528.930" x2="368.511" y2="1525.229"/>
      <line x1="367.511" y1="1528.930" x2="367.511" y2="1525.229"/>
      <line x1="366.511" y1="1528.930" x2="366.511" y2="1525.229"/>
      <line x1="365.511" y1="1528.930" x2="365.511" y2="1525.229"/>
      <line x1="364.511" y1="1528.930" x2="364.511" y2="1525.229"/>
      <line x1="363.511" y1="1528.930" x2="363.511" y2="1525.229"/>
      <line x1="362.511" y1="1528.930" x2="362.511" y2="1525.229"/>
      <line x1="389.511" y1="1528.930" x2="389.511" y2="1525.229"/>
      <line x1="390.511" y1="1528.930" x2="390.511" y2="1525.229"/>
      <line x1="391.511" y1="1528.930" x2="391.511" y2="1525.229"/>
      <line x1="392.511" y1="1528.930" x2="392.511" y2="1525.229"/>
      <line x1="393.511" y1="1528.930" x2="393.511" y2="1525.229"/>
      <line x1="394.511" y1="1528.930" x2="394.511" y2="1525.229"/>
      <line x1="395.511" y1="1528.930" x2="395.511" y2="1525.229"/>
      <line x1="396.511" y1="1528.930" x2="396.511" y2="1525.229"/>
      <line x1="397.511" y1="1528.930" x2="397.511" y2="1525.229"/>
      <line x1="398.511" y1="1528.930" x2="398.511" y2="1525.229"/>
      <line x1="399.511" y1="1528.930" x2="399.511" y2="1525.229"/>
      <line x1="400.511" y1="1528.930" x2="400.511" y2="1525.229"/>
      <line x1="401.511" y1="1528.930" x2="401.511" y2="1525.229"/>
      <line x1="402.511" y1="1528.930" x2="402.511" y2="1525.229"/>
    </g>
    <g stroke="#1976D2" stroke-width="0.4">
      <polyline points="406.222,1521.729 193.778,1521.729 193.778,1682.729 406.222,1682.729 406.222,1521.729" fill="none"/>
      <polyline points="405.222,1522.729 194.778,1522.729 194.778,1681.730 405.222,1681.730 405.222,1522.729" fill="none"/>
      <polyline points="404.222,1523.729 195.778,1523.729 195.778,1680.730 404.222,1680.730 404.222,1523.729" fill="none"/>
      <polyline points="403.222,1524.729 196.778,1524.729 196.778,1679.729 403.222,1679.729 403.222,1524.729" fill="none"/>
    </g>
    <g stroke="#C62828" stroke-width="0.4" fill="none">
    </g>
    <g stroke="#EF6C00" stroke-width="0.4" fill="none">
    </g>
  </g>
  <g stroke="#000000" stroke-width="0.4">
    <line x1="500.000" y1="1000.000" x2="1500.000" y2="1000.000"/>
  </g>
  <g stroke="#000000" stroke-width="0.4">
    <line x1="1000.000" y1="500.000" x2="1000.000" y2="1500.000"/>
  </g>
  <circle cx="1000.000" cy="1000.000" r="1000.000" stroke="red" stroke-width="1" fill="none"/>
  </g>
</svg>
