<?xml version="1.0" encoding="UTF-8"?>
<svg xmlns="http://www.w3.org/2000/svg" version="1.1" width="2000" height="2000">
  <g fill="none" stroke-linecap="round" stroke-linejoin="round">
  <text x="10" y="20" font-size="24" fill="#555">Layer 262 Z=64.400 mm</text>
  <g transform="translate(700.000,-602.229)">
    <g stroke="#2E7D32" stroke-width="0.4">
      <line x1="127.965" y1="1679.230" x2="127.965" y2="1629.230"/>
      <line x1="128.965" y1="1679.230" x2="128.965" y2="1629.230"/>
      <line x1="129.965" y1="1679.230" x2="129.965" y2="1629.230"/>
      <line x1="130.965" y1="1679.230" x2="130.965" y2="1629.230"/>
      <line x1="131.965" y1="1679.230" x2="131.965" y2="1629.230"/>
      <line x1="132.965" y1="1679.230" x2="132.965" y2="1629.230"/>
      <line x1="133.965" y1="1679.230" x2="133.965" y2="1629.230"/>
      <line x1="134.965" y1="1679.230" x2="134.965" y2="1629.230"/>
      <line x1="135.965" y1="1679.230" x2="135.965" y2="1629.230"/>
      <line x1="136.965" y1="1679.230" x2="136.965" y2="1629.230"/>
      <line x1="137.965" y1="1679.230" x2="137.965" y2="1629.230"/>
      <line x1="138.965" y1="1679.230" x2="138.965" y2="1629.230"/>
      <line x1="139.965" y1="1679.230" x2="139.965" y2="1629.230"/>
      <line x1="140.965" y1="1679.230" x2="140.965" y2="1629.230"/>
      <line x1="141.965" y1="1679.230" x2="141.965" y2="1629.230"/>
      <line x1="142.965" y1="1679.230" x2="142.965" y2="1629.230"/>
      <line x1="143.965" y1="1679.230" x2="143.965" y2="1629.230"/>
      <line x1="144.965" y1="1679.230" x2="144.965" y2="1629.230"/>
      <line x1="145.965" y1="1679.230" x2="145.965" y2="1629.230"/>
      <line x1="146.965" y1="1679.230" x2="146.965" y2="1629.230"/>
      <line x1="147.965" y1="1679.230" x2="147.965" y2="1629.230"/>
      <line x1="148.965" y1="1679.230" x2="148.965" y2="1629.230"/>
      <line x1="149.965" y1="1679.230" x2="149.965" y2="1629.230"/>
      <line x1="150.965" y1="1679.230" x2="150.965" y2="1629.230"/>
      <line x1="151.965" y1="1679.230" x2="151.965" y2="1629.230"/>
      <line x1="152.965" y1="1679.230" x2="152.965" y2="1629.230"/>
      <line x1="153.965" y1="1679.230" x2="153.965" y2="1629.230"/>
      <line x1="154.965" y1="1679.230" x2="154.965" y2="1629.230"/>
      <line x1="155.965" y1="1679.230" x2="155.965" y2="1629.230"/>
      <line x1="156.965" y1="1679.230" x2="156.965" y2="1629.230"/>
      <line x1="157.965" y1="1679.230" x2="157.965" y2="1629.230"/>
      <line x1="158.965" y1="1679.230" x2="158.965" y2="1629.230"/>
      <line x1="159.965" y1="1679.230" x2="159.965" y2="1629.230"/>
      <line x1="160.965" y1="1679.230" x2="160.965" y2="1629.230"/>
      <line x1="161.965" y1="1679.230" x2="161.965" y2="1629.230"/>
      <line x1="162.965" y1="1679.230" x2="162.965" y2="1629.230"/>
      <line x1="163.965" y1="1679.230" x2="163.965" y2="1629.230"/>
      <line x1="164.965" y1="1679.230" x2="164.965" y2="1629.230"/>
      <line x1="165.965" y1="1679.230" x2="165.965" y2="1629.230"/>
      <line x1="166.965" y1="1679.230" x2="166.965" y2="1629.230"/>
      <line x1="167.965" y1="1679.230" x2="167.965" y2="1629.230"/>
      <line x1="168.965" y1="1679.230" x2="168.965" y2="1629.230"/>
      <line x1="169.965" y1="1679.230" x2="169.965" y2="1629.230"/>
      <line x1="170.965" y1="1679.230" x2="170.965" y2="1629.230"/>
      <line x1="171.965" y1="1679.230" x2="171.965" y2="1629.230"/>
      <line x1="172.965" y1="1679.230" x2="172.965" y2="1629.230"/>
      <line x1="173.965" y1="1679.230" x2="173.965" y2="1629.230"/>
      <line x1="174.965" y1="1679.230" x2="174.965" y2="1629.230"/>
      <line x1="175.965" y1="1679.230" x2="175.965" y2="1629.230"/>
      <line x1="176.965" y1="1679.230" x2="176.965" y2="1629.230"/>
      <line x1="177.965" y1="1679.230" x2="177.965" y2="1629.230"/>
      <line x1="178.965" y1="1679.230" x2="178.965" y2="1629.230"/>
      <line x1="179.965" y1="1679.230" x2="179.965" y2="1629.230"/>
      <line x1="180.965" y1="1679.230" x2="180.965" y2="1629.230"/>
      <line x1="181.965" y1="1679.230" x2="181.965" y2="1629.230"/>
      <line x1="182.965" y1="1679.230" x2="182.965" y2="1629.230"/>
      <line x1="183.965" y1="1679.230" x2="183.965" y2="1629.230"/>
      <line x1="184.965" y1="1679.230" x2="184.965" y2="1629.230"/>
      <line x1="185.965" y1="1679.230" x2="185.965" y2="1629.230"/>
      <line x1="186.965" y1="1679.230" x2="186.965" y2="1629.230"/>
      <line x1="187.965" y1="1679.230" x2="187.965" y2="1629.230"/>
      <line x1="188.965" y1="1679.230" x2="188.965" y2="1629.230"/>
      <line x1="189.965" y1="1679.230" x2="189.965" y2="1629.230"/>
      <line x1="190.965" y1="1679.230" x2="190.965" y2="1629.230"/>
      <line x1="191.965" y1="1679.230" x2="191.965" y2="1629.230"/>
      <line x1="192.965" y1="1679.230" x2="192.965" y2="1629.230"/>
      <line x1="193.965" y1="1679.230" x2="193.965" y2="1629.230"/>
      <line x1="194.965" y1="1679.230" x2="194.965" y2="1629.230"/>
      <line x1="195.965" y1="1679.230" x2="195.965" y2="1629.230"/>
      <line x1="196.965" y1="1679.230" x2="196.965" y2="1629.230"/>
      <line x1="197.965" y1="1679.230" x2="197.965" y2="1629.230"/>
      <line x1="198.965" y1="1679.230" x2="198.965" y2="1629.230"/>
      <line x1="199.965" y1="1679.230" x2="199.965" y2="1629.230"/>
      <line x1="200.965" y1="1679.230" x2="200.965" y2="1629.230"/>
      <line x1="201.965" y1="1679.230" x2="201.965" y2="1629.230"/>
      <line x1="202.965" y1="1679.230" x2="202.965" y2="1629.230"/>
      <line x1="203.965" y1="1679.230" x2="203.965" y2="1629.230"/>
      <line x1="204.965" y1="1679.230" x2="204.965" y2="1629.230"/>
      <line x1="205.965" y1="1679.230" x2="205.965" y2="1629.230"/>
      <line x1="206.965" y1="1679.230" x2="206.965" y2="1629.230"/>
      <line x1="207.965" y1="1679.230" x2="207.965" y2="1629.230"/>
      <line x1="208.965" y1="1679.230" x2="208.965" y2="1629.230"/>
      <line x1="209.965" y1="1679.230" x2="209.965" y2="1629.230"/>
      <line x1="210.965" y1="1679.230" x2="210.965" y2="1629.230"/>
      <line x1="211.965" y1="1679.230" x2="211.965" y2="1629.230"/>
      <line x1="212.965" y1="1679.230" x2="212.965" y2="1629.230"/>
      <line x1="213.965" y1="1679.230" x2="213.965" y2="1629.230"/>
      <line x1="214.965" y1="1679.230" x2="214.965" y2="1629.230"/>
      <line x1="215.965" y1="1679.230" x2="215.965" y2="1629.230"/>
      <line x1="216.965" y1="1679.230" x2="216.965" y2="1629.230"/>
      <line x1="217.965" y1="1679.230" x2="217.965" y2="1629.230"/>
      <line x1="218.965" y1="1679.230" x2="218.965" y2="1629.230"/>
      <line x1="219.965" y1="1679.230" x2="219.965" y2="1629.230"/>
      <line x1="220.965" y1="1679.230" x2="220.965" y2="1629.230"/>
      <line x1="221.965" y1="1679.230" x2="221.965" y2="1629.230"/>
      <line x1="222.965" y1="1679.230" x2="222.965" y2="1629.230"/>
      <line x1="223.965" y1="1679.230" x2="223.965" y2="1629.230"/>
      <line x1="224.965" y1="1679.230" x2="224.965" y2="1629.230"/>
      <line x1="225.965" y1="1679.230" x2="225.965" y2="1629.230"/>
      <line x1="226.965" y1="1679.230" x2="226.965" y2="1629.230"/>
      <line x1="227.965" y1="1679.230" x2="227.965" y2="1629.230"/>
      <line x1="228.965" y1="1679.230" x2="228.965" y2="1629.230"/>
      <line x1="229.965" y1="1679.230" x2="229.965" y2="1629.230"/>
      <line x1="230.965" y1="1679.230" x2="230.965" y2="1629.230"/>
      <line x1="231.965" y1="1679.230" x2="231.965" y2="1629.230"/>
      <line x1="232.965" y1="1679.230" x2="232.965" y2="1629.230"/>
      <line x1="233.965" y1="1679.230" x2="233.965" y2="1629.230"/>
      <line x1="234.965" y1="1679.230" x2="234.965" y2="1629.230"/>
      <line x1="235.965" y1="1679.230" x2="235.965" y2="1629.230"/>
      <line x1="236.965" y1="1679.230" x2="236.965" y2="1629.230"/>
      <line x1="237.965" y1="1679.230" x2="237.965" y2="1629.230"/>
      <line x1="238.965" y1="1679.230" x2="238.965" y2="1629.230"/>
      <line x1="239.965" y1="1679.230" x2="239.965" y2="1629.230"/>
      <line x1="240.965" y1="1679.230" x2="240.965" y2="1629.230"/>
      <line x1="241.965" y1="1679.230" x2="241.965" y2="1629.230"/>
      <line x1="242.965" y1="1679.230" x2="242.965" y2="1629.230"/>
      <line x1="243.965" y1="1679.230" x2="243.965" y2="1629.230"/>
      <line x1="244.965" y1="1679.230" x2="244.965" y2="1629.230"/>
      <line x1="245.965" y1="1679.230" x2="245.965" y2="1629.230"/>
      <line x1="246.965" y1="1679.230" x2="246.965" y2="1629.230"/>
      <line x1="247.965" y1="1679.230" x2="247.965" y2="1629.230"/>
      <line x1="248.965" y1="1679.230" x2="248.965" y2="1629.230"/>
      <line x1="249.965" y1="1679.230" x2="249.965" y2="1629.230"/>
      <line x1="250.965" y1="1679.230" x2="250.965" y2="1629.230"/>
      <line x1="251.965" y1="1679.230" x2="251.965" y2="1629.230"/>
      <line x1="252.965" y1="1679.230" x2="252.965" y2="1629.230"/>
      <line x1="253.965" y1="1679.230" x2="253.965" y2="1629.230"/>
      <line x1="254.965" y1="1679.230" x2="254.965" y2="1629.230"/>
      <line x1="255.965" y1="1679.230" x2="255.965" y2="1629.230"/>
      <line x1="256.965" y1="1679.230" x2="256.965" y2="1629.230"/>
      <line x1="257.965" y1="1679.230" x2="257.965" y2="1629.230"/>
      <line x1="258.965" y1="1679.230" x2="258.965" y2="1629.230"/>
      <line x1="259.965" y1="1679.230" x2="259.965" y2="1629.230"/>
      <line x1="260.965" y1="1679.230" x2="260.965" y2="1629.230"/>
      <line x1="261.965" y1="1679.230" x2="261.965" y2="1629.230"/>
      <line x1="262.965" y1="1679.230" x2="262.965" y2="1629.230"/>
      <line x1="263.965" y1="1679.230" x2="263.965" y2="1629.230"/>
      <line x1="264.965" y1="1679.230" x2="264.965" y2="1629.230"/>
      <line x1="265.965" y1="1679.230" x2="265.965" y2="1629.230"/>
      <line x1="266.965" y1="1679.230" x2="266.965" y2="1629.230"/>
      <line x1="267.965" y1="1679.230" x2="267.965" y2="1629.230"/>
      <line x1="268.965" y1="1679.230" x2="268.965" y2="1629.230"/>
      <line x1="269.965" y1="1679.230" x2="269.965" y2="1629.230"/>
      <line x1="270.965" y1="1679.230" x2="270.965" y2="1629.230"/>
      <line x1="271.965" y1="1679.230" x2="271.965" y2="1629.230"/>
      <line x1="272.965" y1="1679.230" x2="272.965" y2="1629.230"/>
      <line x1="273.965" y1="1679.230" x2="273.965" y2="1629.230"/>
      <line x1="274.965" y1="1679.230" x2="274.965" y2="1629.230"/>
      <line x1="275.965" y1="1679.230" x2="275.965" y2="1629.230"/>
      <line x1="276.965" y1="1679.230" x2="276.965" y2="1629.230"/>
      <line x1="277.965" y1="1679.230" x2="277.965" y2="1629.230"/>
      <line x1="278.965" y1="1679.230" x2="278.965" y2="1629.230"/>
      <line x1="279.965" y1="1679.230" x2="279.965" y2="1629.230"/>
      <line x1="280.965" y1="1679.230" x2="280.965" y2="1629.230"/>
      <line x1="281.965" y1="1679.230" x2="281.965" y2="1629.230"/>
      <line x1="282.965" y1="1679.230" x2="282.965" y2="1629.230"/>
      <line x1="283.965" y1="1679.230" x2="283.965" y2="1629.230"/>
      <line x1="284.965" y1="1679.230" x2="284.965" y2="1629.230"/>
      <line x1="285.965" y1="1679.230" x2="285.965" y2="1629.230"/>
      <line x1="286.965" y1="1679.230" x2="286.965" y2="1629.230"/>
      <line x1="287.965" y1="1679.230" x2="287.965" y2="1629.230"/>
      <line x1="288.965" y1="1679.230" x2="288.965" y2="1629.230"/>
      <line x1="289.965" y1="1679.230" x2="289.965" y2="1629.230"/>
      <line x1="290.965" y1="1679.230" x2="290.965" y2="1629.230"/>
      <line x1="291.965" y1="1679.230" x2="291.965" y2="1629.230"/>
      <line x1="292.965" y1="1679.230" x2="292.965" y2="1629.230"/>
      <line x1="293.965" y1="1679.230" x2="293.965" y2="1629.230"/>
      <line x1="294.965" y1="1679.230" x2="294.965" y2="1629.230"/>
      <line x1="295.965" y1="1679.230" x2="295.965" y2="1629.230"/>
      <line x1="296.965" y1="1679.230" x2="296.965" y2="1629.230"/>
      <line x1="297.965" y1="1679.230" x2="297.965" y2="1629.230"/>
      <line x1="298.965" y1="1679.230" x2="298.965" y2="1629.230"/>
      <line x1="299.965" y1="1679.230" x2="299.965" y2="1629.230"/>
      <line x1="300.965" y1="1679.230" x2="300.965" y2="1629.230"/>
      <line x1="301.965" y1="1679.230" x2="301.965" y2="1629.230"/>
      <line x1="302.965" y1="1679.230" x2="302.965" y2="1629.230"/>
      <line x1="303.965" y1="1679.230" x2="303.965" y2="1629.230"/>
      <line x1="304.965" y1="1679.230" x2="304.965" y2="1629.230"/>
      <line x1="305.965" y1="1679.230" x2="305.965" y2="1629.230"/>
      <line x1="306.965" y1="1679.230" x2="306.965" y2="1629.230"/>
      <line x1="307.965" y1="1679.230" x2="307.965" y2="1629.230"/>
      <line x1="308.965" y1="1679.230" x2="308.965" y2="1629.230"/>
      <line x1="309.965" y1="1679.230" x2="309.965" y2="1629.230"/>
      <line x1="310.965" y1="1679.230" x2="310.965" y2="1629.230"/>
      <line x1="311.965" y1="1679.230" x2="311.965" y2="1629.230"/>
      <line x1="312.965" y1="1679.230" x2="312.965" y2="1629.230"/>
      <line x1="313.965" y1="1679.230" x2="313.965" y2="1629.230"/>
      <line x1="314.965" y1="1679.230" x2="314.965" y2="1629.230"/>
      <line x1="315.965" y1="1679.230" x2="315.965" y2="1629.230"/>
      <line x1="316.965" y1="1679.230" x2="316.965" y2="1629.230"/>
      <line x1="317.965" y1="1679.230" x2="317.965" y2="1629.230"/>
      <line x1="318.965" y1="1679.230" x2="318.965" y2="1629.230"/>
      <line x1="319.965" y1="1679.230" x2="319.965" y2="1629.230"/>
      <line x1="320.965" y1="1679.230" x2="320.965" y2="1629.230"/>
      <line x1="321.965" y1="1679.230" x2="321.965" y2="1629.230"/>
      <line x1="322.965" y1="1679.230" x2="322.965" y2="1629.230"/>
      <line x1="323.965" y1="1679.230" x2="323.965" y2="1629.230"/>
      <line x1="324.965" y1="1679.230" x2="324.965" y2="1629.230"/>
      <line x1="325.965" y1="1679.230" x2="325.965" y2="1629.230"/>
      <line x1="326.965" y1="1679.230" x2="326.965" y2="1629.230"/>
      <line x1="327.965" y1="1679.230" x2="327.965" y2="1629.230"/>
      <line x1="328.965" y1="1679.230" x2="328.965" y2="1629.230"/>
      <line x1="329.965" y1="1679.230" x2="329.965" y2="1629.230"/>
      <line x1="330.965" y1="1679.230" x2="330.965" y2="1629.230"/>
      <line x1="331.965" y1="1679.230" x2="331.965" y2="1629.230"/>
      <line x1="332.965" y1="1679.230" x2="332.965" y2="1629.230"/>
      <line x1="333.965" y1="1679.230" x2="333.965" y2="1629.230"/>
      <line x1="334.965" y1="1679.230" x2="334.965" y2="1629.230"/>
      <line x1="335.965" y1="1679.230" x2="335.965" y2="1629.230"/>
      <line x1="336.965" y1="1679.230" x2="336.965" y2="1629.230"/>
      <line x1="337.965" y1="1679.230" x2="337.965" y2="1629.230"/>
      <line x1="338.965" y1="1679.230" x2="338.965" y2="1629.230"/>
      <line x1="339.965" y1="1679.230" x2="339.965" y2="1629.230"/>
      <line x1="340.965" y1="1679.230" x2="340.965" y2="1629.230"/>
      <line x1="341.965" y1="1679.230" x2="341.965" y2="1629.230"/>
      <line x1="342.965" y1="1679.230" x2="342.965" y2="1629.230"/>
      <line x1="343.965" y1="1679.230" x2="343.965" y2="1629.230"/>
      <line x1="344.965" y1="1679.230" x2="344.965" y2="1629.230"/>
      <line x1="345.965" y1="1679.230" x2="345.965" y2="1629.230"/>
      <line x1="346.965" y1="1679.230" x2="346.965" y2="1629.230"/>
      <line x1="347.965" y1="1679.230" x2="347.965" y2="1629.230"/>
      <line x1="348.965" y1="1679.230" x2="348.965" y2="1629.230"/>
      <line x1="349.965" y1="1679.230" x2="349.965" y2="1629.230"/>
      <line x1="350.965" y1="1679.230" x2="350.965" y2="1629.230"/>
      <line x1="351.965" y1="1679.230" x2="351.965" y2="1629.230"/>
      <line x1="352.965" y1="1679.230" x2="352.965" y2="1629.230"/>
      <line x1="353.965" y1="1679.230" x2="353.965" y2="1629.230"/>
      <line x1="354.965" y1="1679.230" x2="354.965" y2="1629.230"/>
      <line x1="355.965" y1="1679.230" x2="355.965" y2="1629.230"/>
      <line x1="356.965" y1="1679.230" x2="356.965" y2="1629.230"/>
      <line x1="357.965" y1="1679.230" x2="357.965" y2="1629.230"/>
      <line x1="358.965" y1="1679.230" x2="358.965" y2="1629.230"/>
      <line x1="359.965" y1="1679.230" x2="359.965" y2="1629.230"/>
      <line x1="360.965" y1="1679.230" x2="360.965" y2="1629.230"/>
      <line x1="361.965" y1="1679.230" x2="361.965" y2="1629.230"/>
      <line x1="362.965" y1="1679.230" x2="362.965" y2="1629.230"/>
      <line x1="363.965" y1="1679.230" x2="363.965" y2="1629.230"/>
      <line x1="364.965" y1="1679.230" x2="364.965" y2="1629.230"/>
      <line x1="365.965" y1="1679.230" x2="365.965" y2="1629.230"/>
      <line x1="366.965" y1="1679.230" x2="366.965" y2="1629.230"/>
      <line x1="367.965" y1="1679.230" x2="367.965" y2="1629.230"/>
      <line x1="368.965" y1="1679.230" x2="368.965" y2="1629.230"/>
      <line x1="369.965" y1="1679.230" x2="369.965" y2="1629.230"/>
      <line x1="370.965" y1="1679.230" x2="370.965" y2="1629.230"/>
      <line x1="371.965" y1="1679.230" x2="371.965" y2="1629.230"/>
      <line x1="372.965" y1="1679.230" x2="372.965" y2="1629.230"/>
      <line x1="373.965" y1="1679.230" x2="373.965" y2="1629.230"/>
      <line x1="374.965" y1="1679.230" x2="374.965" y2="1629.230"/>
      <line x1="375.965" y1="1679.230" x2="375.965" y2="1629.230"/>
      <line x1="376.965" y1="1679.230" x2="376.965" y2="1629.230"/>
      <line x1="377.965" y1="1679.230" x2="377.965" y2="1629.230"/>
      <line x1="378.965" y1="1679.230" x2="378.965" y2="1629.230"/>
      <line x1="379.965" y1="1679.230" x2="379.965" y2="1629.230"/>
      <line x1="380.965" y1="1679.230" x2="380.965" y2="1629.230"/>
      <line x1="381.965" y1="1679.230" x2="381.965" y2="1629.230"/>
      <line x1="382.965" y1="1679.230" x2="382.965" y2="1629.230"/>
      <line x1="383.965" y1="1679.230" x2="383.965" y2="1629.230"/>
      <line x1="384.965" y1="1679.230" x2="384.965" y2="1629.230"/>
      <line x1="385.965" y1="1679.230" x2="385.965" y2="1629.230"/>
      <line x1="386.965" y1="1679.230" x2="386.965" y2="1629.230"/>
      <line x1="387.965" y1="1679.230" x2="387.965" y2="1629.230"/>
      <line x1="388.965" y1="1679.230" x2="388.965" y2="1629.230"/>
      <line x1="389.965" y1="1679.230" x2="389.965" y2="1629.230"/>
      <line x1="390.965" y1="1679.230" x2="390.965" y2="1629.230"/>
      <line x1="391.965" y1="1679.230" x2="391.965" y2="1629.230"/>
      <line x1="392.965" y1="1679.230" x2="392.965" y2="1629.230"/>
      <line x1="393.965" y1="1679.230" x2="393.965" y2="1629.230"/>
      <line x1="394.965" y1="1679.230" x2="394.965" y2="1629.230"/>
      <line x1="395.965" y1="1679.230" x2="395.965" y2="1629.230"/>
      <line x1="396.965" y1="1679.230" x2="396.965" y2="1629.230"/>
      <line x1="397.965" y1="1679.230" x2="397.965" y2="1629.230"/>
      <line x1="398.965" y1="1679.230" x2="398.965" y2="1629.230"/>
      <line x1="399.965" y1="1679.230" x2="399.965" y2="1629.230"/>
      <line x1="400.965" y1="1679.230" x2="400.965" y2="1629.230"/>
      <line x1="401.965" y1="1679.230" x2="401.965" y2="1629.230"/>
      <line x1="402.965" y1="1679.230" x2="402.965" y2="1629.230"/>
      <line x1="403.965" y1="1679.230" x2="403.965" y2="1629.230"/>
      <line x1="404.965" y1="1679.230" x2="404.965" y2="1629.230"/>
      <line x1="405.965" y1="1679.230" x2="405.965" y2="1629.230"/>
      <line x1="406.965" y1="1679.230" x2="406.965" y2="1629.230"/>
      <line x1="407.965" y1="1679.230" x2="407.965" y2="1629.230"/>
      <line x1="408.965" y1="1679.230" x2="408.965" y2="1629.230"/>
      <line x1="409.965" y1="1679.230" x2="409.965" y2="1629.230"/>
      <line x1="410.965" y1="1679.230" x2="410.965" y2="1629.230"/>
      <line x1="411.965" y1="1679.230" x2="411.965" y2="1629.230"/>
      <line x1="412.965" y1="1679.230" x2="412.965" y2="1629.230"/>
      <line x1="413.965" y1="1679.230" x2="413.965" y2="1629.230"/>
      <line x1="414.965" y1="1679.230" x2="414.965" y2="1629.230"/>
      <line x1="415.965" y1="1679.230" x2="415.965" y2="1629.230"/>
      <line x1="416.965" y1="1679.230" x2="416.965" y2="1629.230"/>
      <line x1="417.965" y1="1679.230" x2="417.965" y2="1629.230"/>
      <line x1="418.965" y1="1679.230" x2="418.965" y2="1629.230"/>
      <line x1="419.965" y1="1679.230" x2="419.965" y2="1629.230"/>
      <line x1="420.965" y1="1679.230" x2="420.965" y2="1629.230"/>
      <line x1="421.965" y1="1679.230" x2="421.965" y2="1629.230"/>
      <line x1="422.965" y1="1679.230" x2="422.965" y2="1629.230"/>
      <line x1="423.965" y1="1679.230" x2="423.965" y2="1629.230"/>
      <line x1="424.965" y1="1679.230" x2="424.965" y2="1629.230"/>
      <line x1="425.965" y1="1679.230" x2="425.965" y2="1629.230"/>
      <line x1="426.965" y1="1679.230" x2="426.965" y2="1629.230"/>
      <line x1="428.965" y1="1679.230" x2="428.965" y2="1629.230"/>
      <line x1="429.965" y1="1679.230" x2="429.965" y2="1629.230"/>
      <line x1="430.965" y1="1679.230" x2="430.965" y2="1629.230"/>
      <line x1="431.965" y1="1679.230" x2="431.965" y2="1629.230"/>
      <line x1="432.965" y1="1679.230" x2="432.965" y2="1629.230"/>
      <line x1="433.965" y1="1679.230" x2="433.965" y2="1629.230"/>
      <line x1="434.965" y1="1679.230" x2="434.965" y2="1629.230"/>
      <line x1="435.965" y1="1679.230" x2="435.965" y2="1629.230"/>
      <line x1="436.965" y1="1679.230" x2="436.965" y2="1629.230"/>
      <line x1="437.965" y1="1679.230" x2="437.965" y2="1629.230"/>
      <line x1="438.965" y1="1679.230" x2="438.965" y2="1629.230"/>
      <line x1="439.965" y1="1679.230" x2="439.965" y2="1629.230"/>
      <line x1="440.965" y1="1679.230" x2="440.965" y2="1629.230"/>
      <line x1="441.965" y1="1679.230" x2="441.965" y2="1629.230"/>
      <line x1="442.965" y1="1679.230" x2="442.965" y2="1629.230"/>
      <line x1="443.965" y1="1679.230" x2="443.965" y2="1629.230"/>
      <line x1="444.965" y1="1679.230" x2="444.965" y2="1629.230"/>
      <line x1="445.965" y1="1679.230" x2="445.965" y2="1629.230"/>
      <line x1="446.965" y1="1679.230" x2="446.965" y2="1629.230"/>
      <line x1="447.965" y1="1679.230" x2="447.965" y2="1629.230"/>
      <line x1="448.965" y1="1679.230" x2="448.965" y2="1629.230"/>
      <line x1="449.965" y1="1679.230" x2="449.965" y2="1629.230"/>
      <line x1="450.965" y1="1679.230" x2="450.965" y2="1629.230"/>
      <line x1="451.965" y1="1679.230" x2="451.965" y2="1629.230"/>
      <line x1="452.965" y1="1679.230" x2="452.965" y2="1629.230"/>
      <line x1="453.965" y1="1679.230" x2="453.965" y2="1629.230"/>
      <line x1="454.965" y1="1679.230" x2="454.965" y2="1629.230"/>
      <line x1="455.965" y1="1679.230" x2="455.965" y2="1629.230"/>
      <line x1="456.965" y1="1679.230" x2="456.965" y2="1629.230"/>
      <line x1="457.965" y1="1679.230" x2="457.965" y2="1629.230"/>
      <line x1="458.965" y1="1679.230" x2="458.965" y2="1629.230"/>
      <line x1="459.965" y1="1679.230" x2="459.965" y2="1629.230"/>
      <line x1="460.965" y1="1679.230" x2="460.965" y2="1629.230"/>
      <line x1="461.965" y1="1679.230" x2="461.965" y2="1629.230"/>
      <line x1="462.965" y1="1679.230" x2="462.965" y2="1629.230"/>
      <line x1="463.965" y1="1679.230" x2="463.965" y2="1629.230"/>
      <line x1="464.965" y1="1679.230" x2="464.965" y2="1629.230"/>
      <line x1="465.965" y1="1679.230" x2="465.965" y2="1629.230"/>
      <line x1="466.965" y1="1679.230" x2="466.965" y2="1629.230"/>
      <line x1="467.965" y1="1679.230" x2="467.965" y2="1629.230"/>
      <line x1="468.965" y1="1679.230" x2="468.965" y2="1629.230"/>
      <line x1="469.965" y1="1679.230" x2="469.965" y2="1629.230"/>
      <line x1="470.965" y1="1679.230" x2="470.965" y2="1629.230"/>
      <line x1="471.965" y1="1679.230" x2="471.965" y2="1629.230"/>
      <line x1="127.965" y1="1629.130" x2="127.965" y2="1579.130"/>
      <line x1="128.965" y1="1629.130" x2="128.965" y2="1579.130"/>
      <line x1="129.965" y1="1629.130" x2="129.965" y2="1579.130"/>
      <line x1="130.965" y1="1629.130" x2="130.965" y2="1579.130"/>
      <line x1="131.965" y1="1629.130" x2="131.965" y2="1579.130"/>
      <line x1="132.965" y1="1629.130" x2="132.965" y2="1579.130"/>
      <line x1="133.965" y1="1629.130" x2="133.965" y2="1579.130"/>
      <line x1="134.965" y1="1629.130" x2="134.965" y2="1579.130"/>
      <line x1="135.965" y1="1629.130" x2="135.965" y2="1579.130"/>
      <line x1="136.965" y1="1629.130" x2="136.965" y2="1579.130"/>
      <line x1="137.965" y1="1629.130" x2="137.965" y2="1579.130"/>
      <line x1="138.965" y1="1629.130" x2="138.965" y2="1579.130"/>
      <line x1="139.965" y1="1629.130" x2="139.965" y2="1579.130"/>
      <line x1="140.965" y1="1629.130" x2="140.965" y2="1579.130"/>
      <line x1="141.965" y1="1629.130" x2="141.965" y2="1579.130"/>
      <line x1="142.965" y1="1629.130" x2="142.965" y2="1579.130"/>
      <line x1="143.965" y1="1629.130" x2="143.965" y2="1579.130"/>
      <line x1="144.965" y1="1629.130" x2="144.965" y2="1579.130"/>
      <line x1="145.965" y1="1629.130" x2="145.965" y2="1579.130"/>
      <line x1="146.965" y1="1629.130" x2="146.965" y2="1579.130"/>
      <line x1="147.965" y1="1629.130" x2="147.965" y2="1579.130"/>
      <line x1="148.965" y1="1629.130" x2="148.965" y2="1579.130"/>
      <line x1="149.965" y1="1629.130" x2="149.965" y2="1579.130"/>
      <line x1="150.965" y1="1629.130" x2="150.965" y2="1579.130"/>
      <line x1="151.965" y1="1629.130" x2="151.965" y2="1579.130"/>
      <line x1="152.965" y1="1629.130" x2="152.965" y2="1579.130"/>
      <line x1="153.965" y1="1629.130" x2="153.965" y2="1579.130"/>
      <line x1="154.965" y1="1629.130" x2="154.965" y2="1579.130"/>
      <line x1="155.965" y1="1629.130" x2="155.965" y2="1579.130"/>
      <line x1="156.965" y1="1629.130" x2="156.965" y2="1579.130"/>
      <line x1="157.965" y1="1629.130" x2="157.965" y2="1579.130"/>
      <line x1="158.965" y1="1629.130" x2="158.965" y2="1579.130"/>
      <line x1="159.965" y1="1629.130" x2="159.965" y2="1579.130"/>
      <line x1="160.965" y1="1629.130" x2="160.965" y2="1579.130"/>
      <line x1="161.965" y1="1629.130" x2="161.965" y2="1579.130"/>
      <line x1="162.965" y1="1629.130" x2="162.965" y2="1579.130"/>
      <line x1="163.965" y1="1629.130" x2="163.965" y2="1579.130"/>
      <line x1="164.965" y1="1629.130" x2="164.965" y2="1579.130"/>
      <line x1="165.965" y1="1629.130" x2="165.965" y2="1579.130"/>
      <line x1="166.965" y1="1629.130" x2="166.965" y2="1579.130"/>
      <line x1="167.965" y1="1629.130" x2="167.965" y2="1579.130"/>
      <line x1="168.965" y1="1629.130" x2="168.965" y2="1579.130"/>
      <line x1="169.965" y1="1629.130" x2="169.965" y2="1579.130"/>
      <line x1="170.965" y1="1629.130" x2="170.965" y2="1579.130"/>
      <line x1="171.965" y1="1629.130" x2="171.965" y2="1579.130"/>
      <line x1="172.965" y1="1629.130" x2="172.965" y2="1579.130"/>
      <line x1="173.965" y1="1629.130" x2="173.965" y2="1579.130"/>
      <line x1="174.965" y1="1629.130" x2="174.965" y2="1579.130"/>
      <line x1="175.965" y1="1629.130" x2="175.965" y2="1579.130"/>
      <line x1="176.965" y1="1629.130" x2="176.965" y2="1579.130"/>
      <line x1="177.965" y1="1629.130" x2="177.965" y2="1579.130"/>
      <line x1="178.965" y1="1629.130" x2="178.965" y2="1579.130"/>
      <line x1="179.965" y1="1629.130" x2="179.965" y2="1579.130"/>
      <line x1="180.965" y1="1629.130" x2="180.965" y2="1579.130"/>
      <line x1="181.965" y1="1629.130" x2="181.965" y2="1579.130"/>
      <line x1="182.965" y1="1629.130" x2="182.965" y2="1579.130"/>
      <line x1="183.965" y1="1629.130" x2="183.965" y2="1579.130"/>
      <line x1="184.965" y1="1629.130" x2="184.965" y2="1579.130"/>
      <line x1="185.965" y1="1629.130" x2="185.965" y2="1579.130"/>
      <line x1="186.965" y1="1629.130" x2="186.965" y2="1579.130"/>
      <line x1="187.965" y1="1629.130" x2="187.965" y2="1579.130"/>
      <line x1="188.965" y1="1629.130" x2="188.965" y2="1579.130"/>
      <line x1="189.965" y1="1629.130" x2="189.965" y2="1579.130"/>
      <line x1="190.965" y1="1629.130" x2="190.965" y2="1579.130"/>
      <line x1="191.965" y1="1629.130" x2="191.965" y2="1579.130"/>
      <line x1="192.965" y1="1629.130" x2="192.965" y2="1579.130"/>
      <line x1="193.965" y1="1629.130" x2="193.965" y2="1579.130"/>
      <line x1="194.965" y1="1629.130" x2="194.965" y2="1579.130"/>
      <line x1="195.965" y1="1629.130" x2="195.965" y2="1579.130"/>
      <line x1="196.965" y1="1629.130" x2="196.965" y2="1579.130"/>
      <line x1="197.965" y1="1629.130" x2="197.965" y2="1579.130"/>
      <line x1="198.965" y1="1629.130" x2="198.965" y2="1579.130"/>
      <line x1="199.965" y1="1629.130" x2="199.965" y2="1579.130"/>
      <line x1="200.965" y1="1629.130" x2="200.965" y2="1579.130"/>
      <line x1="201.965" y1="1629.130" x2="201.965" y2="1579.130"/>
      <line x1="202.965" y1="1629.130" x2="202.965" y2="1579.130"/>
      <line x1="203.965" y1="1629.130" x2="203.965" y2="1579.130"/>
      <line x1="204.965" y1="1629.130" x2="204.965" y2="1579.130"/>
      <line x1="205.965" y1="1629.130" x2="205.965" y2="1579.130"/>
      <line x1="206.965" y1="1629.130" x2="206.965" y2="1579.130"/>
      <line x1="207.965" y1="1629.130" x2="207.965" y2="1579.130"/>
      <line x1="208.965" y1="1629.130" x2="208.965" y2="1579.130"/>
      <line x1="209.965" y1="1629.130" x2="209.965" y2="1579.130"/>
      <line x1="210.965" y1="1629.130" x2="210.965" y2="1579.130"/>
      <line x1="211.965" y1="1629.130" x2="211.965" y2="1579.130"/>
      <line x1="212.965" y1="1629.130" x2="212.965" y2="1579.130"/>
      <line x1="213.965" y1="1629.130" x2="213.965" y2="1579.130"/>
      <line x1="214.965" y1="1629.130" x2="214.965" y2="1579.130"/>
      <line x1="215.965" y1="1629.130" x2="215.965" y2="1579.130"/>
      <line x1="216.965" y1="1629.130" x2="216.965" y2="1579.130"/>
      <line x1="217.965" y1="1629.130" x2="217.965" y2="1579.130"/>
      <line x1="218.965" y1="1629.130" x2="218.965" y2="1579.130"/>
      <line x1="219.965" y1="1629.130" x2="219.965" y2="1579.130"/>
      <line x1="220.965" y1="1629.130" x2="220.965" y2="1579.130"/>
      <line x1="221.965" y1="1629.130" x2="221.965" y2="1579.130"/>
      <line x1="222.965" y1="1629.130" x2="222.965" y2="1579.130"/>
      <line x1="223.965" y1="1629.130" x2="223.965" y2="1579.130"/>
      <line x1="224.965" y1="1629.130" x2="224.965" y2="1579.130"/>
      <line x1="225.965" y1="1629.130" x2="225.965" y2="1579.130"/>
      <line x1="226.965" y1="1629.130" x2="226.965" y2="1579.130"/>
      <line x1="227.965" y1="1629.130" x2="227.965" y2="1579.130"/>
      <line x1="228.965" y1="1629.130" x2="228.965" y2="1579.130"/>
      <line x1="229.965" y1="1629.130" x2="229.965" y2="1579.130"/>
      <line x1="230.965" y1="1629.130" x2="230.965" y2="1579.130"/>
      <line x1="231.965" y1="1629.130" x2="231.965" y2="1579.130"/>
      <line x1="232.965" y1="1629.130" x2="232.965" y2="1579.130"/>
      <line x1="233.965" y1="1629.130" x2="233.965" y2="1579.130"/>
      <line x1="234.965" y1="1629.130" x2="234.965" y2="1579.130"/>
      <line x1="235.965" y1="1629.130" x2="235.965" y2="1579.130"/>
      <line x1="236.965" y1="1629.130" x2="236.965" y2="1579.130"/>
      <line x1="237.965" y1="1629.130" x2="237.965" y2="1579.130"/>
      <line x1="238.965" y1="1629.130" x2="238.965" y2="1579.130"/>
      <line x1="239.965" y1="1629.130" x2="239.965" y2="1579.130"/>
      <line x1="240.965" y1="1629.130" x2="240.965" y2="1579.130"/>
      <line x1="241.965" y1="1629.130" x2="241.965" y2="1579.130"/>
      <line x1="242.965" y1="1629.130" x2="242.965" y2="1579.130"/>
      <line x1="243.965" y1="1629.130" x2="243.965" y2="1579.130"/>
      <line x1="244.965" y1="1629.130" x2="244.965" y2="1579.130"/>
      <line x1="245.965" y1="1629.130" x2="245.965" y2="1579.130"/>
      <line x1="246.965" y1="1629.130" x2="246.965" y2="1579.130"/>
      <line x1="247.965" y1="1629.130" x2="247.965" y2="1579.130"/>
      <line x1="248.965" y1="1629.130" x2="248.965" y2="1579.130"/>
      <line x1="249.965" y1="1629.130" x2="249.965" y2="1579.130"/>
      <line x1="250.965" y1="1629.130" x2="250.965" y2="1579.130"/>
      <line x1="251.965" y1="1629.130" x2="251.965" y2="1579.130"/>
      <line x1="252.965" y1="1629.130" x2="252.965" y2="1579.130"/>
      <line x1="253.965" y1="1629.130" x2="253.965" y2="1579.130"/>
      <line x1="254.965" y1="1629.130" x2="254.965" y2="1579.130"/>
      <line x1="255.965" y1="1629.130" x2="255.965" y2="1579.130"/>
      <line x1="256.965" y1="1629.130" x2="256.965" y2="1579.130"/>
      <line x1="257.965" y1="1629.130" x2="257.965" y2="1579.130"/>
      <line x1="258.965" y1="1629.130" x2="258.965" y2="1579.130"/>
      <line x1="259.965" y1="1629.130" x2="259.965" y2="1579.130"/>
      <line x1="260.965" y1="1629.130" x2="260.965" y2="1579.130"/>
      <line x1="261.965" y1="1629.130" x2="261.965" y2="1579.130"/>
      <line x1="262.965" y1="1629.130" x2="262.965" y2="1579.130"/>
      <line x1="263.965" y1="1629.130" x2="263.965" y2="1579.130"/>
      <line x1="264.965" y1="1629.130" x2="264.965" y2="1579.130"/>
      <line x1="265.965" y1="1629.130" x2="265.965" y2="1579.130"/>
      <line x1="266.965" y1="1629.130" x2="266.965" y2="1579.130"/>
      <line x1="267.965" y1="1629.130" x2="267.965" y2="1579.130"/>
      <line x1="268.965" y1="1629.130" x2="268.965" y2="1579.130"/>
      <line x1="269.965" y1="1629.130" x2="269.965" y2="1579.130"/>
      <line x1="270.965" y1="1629.130" x2="270.965" y2="1579.130"/>
      <line x1="271.965" y1="1629.130" x2="271.965" y2="1579.130"/>
      <line x1="272.965" y1="1629.130" x2="272.965" y2="1579.130"/>
      <line x1="273.965" y1="1629.130" x2="273.965" y2="1579.130"/>
      <line x1="274.965" y1="1629.130" x2="274.965" y2="1579.130"/>
      <line x1="275.965" y1="1629.130" x2="275.965" y2="1579.130"/>
      <line x1="276.965" y1="1629.130" x2="276.965" y2="1579.130"/>
      <line x1="277.965" y1="1629.130" x2="277.965" y2="1579.130"/>
      <line x1="278.965" y1="1629.130" x2="278.965" y2="1579.130"/>
      <line x1="279.965" y1="1629.130" x2="279.965" y2="1579.130"/>
      <line x1="280.965" y1="1629.130" x2="280.965" y2="1579.130"/>
      <line x1="281.965" y1="1629.130" x2="281.965" y2="1579.130"/>
      <line x1="282.965" y1="1629.130" x2="282.965" y2="1579.130"/>
      <line x1="283.965" y1="1629.130" x2="283.965" y2="1579.130"/>
      <line x1="284.965" y1="1629.130" x2="284.965" y2="1579.130"/>
      <line x1="285.965" y1="1629.130" x2="285.965" y2="1579.130"/>
      <line x1="286.965" y1="1629.130" x2="286.965" y2="1579.130"/>
      <line x1="287.965" y1="1629.130" x2="287.965" y2="1579.130"/>
      <line x1="288.965" y1="1629.130" x2="288.965" y2="1579.130"/>
      <line x1="289.965" y1="1629.130" x2="289.965" y2="1579.130"/>
      <line x1="290.965" y1="1629.130" x2="290.965" y2="1579.130"/>
      <line x1="291.965" y1="1629.130" x2="291.965" y2="1579.130"/>
      <line x1="292.965" y1="1629.130" x2="292.965" y2="1579.130"/>
      <line x1="293.965" y1="1629.130" x2="293.965" y2="1579.130"/>
      <line x1="294.965" y1="1629.130" x2="294.965" y2="1579.130"/>
      <line x1="295.965" y1="1629.130" x2="295.965" y2="1579.130"/>
      <line x1="296.965" y1="1629.130" x2="296.965" y2="1579.130"/>
      <line x1="297.965" y1="1629.130" x2="297.965" y2="1579.130"/>
      <line x1="298.965" y1="1629.130" x2="298.965" y2="1579.130"/>
      <line x1="299.965" y1="1629.130" x2="299.965" y2="1579.130"/>
      <line x1="300.965" y1="1629.130" x2="300.965" y2="1579.130"/>
      <line x1="301.965" y1="1629.130" x2="301.965" y2="1579.130"/>
      <line x1="302.965" y1="1629.130" x2="302.965" y2="1579.130"/>
      <line x1="303.965" y1="1629.130" x2="303.965" y2="1579.130"/>
      <line x1="304.965" y1="1629.130" x2="304.965" y2="1579.130"/>
      <line x1="305.965" y1="1629.130" x2="305.965" y2="1579.130"/>
      <line x1="306.965" y1="1629.130" x2="306.965" y2="1579.130"/>
      <line x1="307.965" y1="1629.130" x2="307.965" y2="1579.130"/>
      <line x1="308.965" y1="1629.130" x2="308.965" y2="1579.130"/>
      <line x1="309.965" y1="1629.130" x2="309.965" y2="1579.130"/>
      <line x1="310.965" y1="1629.130" x2="310.965" y2="1579.130"/>
      <line x1="311.965" y1="1629.130" x2="311.965" y2="1579.130"/>
      <line x1="312.965" y1="1629.130" x2="312.965" y2="1579.130"/>
      <line x1="313.965" y1="1629.130" x2="313.965" y2="1579.130"/>
      <line x1="314.965" y1="1629.130" x2="314.965" y2="1579.130"/>
      <line x1="315.965" y1="1629.130" x2="315.965" y2="1579.130"/>
      <line x1="316.965" y1="1629.130" x2="316.965" y2="1579.130"/>
      <line x1="317.965" y1="1629.130" x2="317.965" y2="1579.130"/>
      <line x1="318.965" y1="1629.130" x2="318.965" y2="1579.130"/>
      <line x1="319.965" y1="1629.130" x2="319.965" y2="1579.130"/>
      <line x1="320.965" y1="1629.130" x2="320.965" y2="1579.130"/>
      <line x1="321.965" y1="1629.130" x2="321.965" y2="1579.130"/>
      <line x1="322.965" y1="1629.130" x2="322.965" y2="1579.130"/>
      <line x1="323.965" y1="1629.130" x2="323.965" y2="1579.130"/>
      <line x1="324.965" y1="1629.130" x2="324.965" y2="1579.130"/>
      <line x1="325.965" y1="1629.130" x2="325.965" y2="1579.130"/>
      <line x1="326.965" y1="1629.130" x2="326.965" y2="1579.130"/>
      <line x1="327.965" y1="1629.130" x2="327.965" y2="1579.130"/>
      <line x1="328.965" y1="1629.130" x2="328.965" y2="1579.130"/>
      <line x1="329.965" y1="1629.130" x2="329.965" y2="1579.130"/>
      <line x1="330.965" y1="1629.130" x2="330.965" y2="1579.130"/>
      <line x1="331.965" y1="1629.130" x2="331.965" y2="1579.130"/>
      <line x1="332.965" y1="1629.130" x2="332.965" y2="1579.130"/>
      <line x1="333.965" y1="1629.130" x2="333.965" y2="1579.130"/>
      <line x1="334.965" y1="1629.130" x2="334.965" y2="1579.130"/>
      <line x1="335.965" y1="1629.130" x2="335.965" y2="1579.130"/>
      <line x1="336.965" y1="1629.130" x2="336.965" y2="1579.130"/>
      <line x1="337.965" y1="1629.130" x2="337.965" y2="1579.130"/>
      <line x1="338.965" y1="1629.130" x2="338.965" y2="1579.130"/>
      <line x1="339.965" y1="1629.130" x2="339.965" y2="1579.130"/>
      <line x1="340.965" y1="1629.130" x2="340.965" y2="1579.130"/>
      <line x1="341.965" y1="1629.130" x2="341.965" y2="1579.130"/>
      <line x1="342.965" y1="1629.130" x2="342.965" y2="1579.130"/>
      <line x1="343.965" y1="1629.130" x2="343.965" y2="1579.130"/>
      <line x1="344.965" y1="1629.130" x2="344.965" y2="1579.130"/>
      <line x1="345.965" y1="1629.130" x2="345.965" y2="1579.130"/>
      <line x1="346.965" y1="1629.130" x2="346.965" y2="1579.130"/>
      <line x1="347.965" y1="1629.130" x2="347.965" y2="1579.130"/>
      <line x1="348.965" y1="1629.130" x2="348.965" y2="1579.130"/>
      <line x1="349.965" y1="1629.130" x2="349.965" y2="1579.130"/>
      <line x1="350.965" y1="1629.130" x2="350.965" y2="1579.130"/>
      <line x1="351.965" y1="1629.130" x2="351.965" y2="1579.130"/>
      <line x1="352.965" y1="1629.130" x2="352.965" y2="1579.130"/>
      <line x1="353.965" y1="1629.130" x2="353.965" y2="1579.130"/>
      <line x1="354.965" y1="1629.130" x2="354.965" y2="1579.130"/>
      <line x1="355.965" y1="1629.130" x2="355.965" y2="1579.130"/>
      <line x1="356.965" y1="1629.130" x2="356.965" y2="1579.130"/>
      <line x1="357.965" y1="1629.130" x2="357.965" y2="1579.130"/>
      <line x1="358.965" y1="1629.130" x2="358.965" y2="1579.130"/>
      <line x1="359.965" y1="1629.130" x2="359.965" y2="1579.130"/>
      <line x1="360.965" y1="1629.130" x2="360.965" y2="1579.130"/>
      <line x1="361.965" y1="1629.130" x2="361.965" y2="1579.130"/>
      <line x1="362.965" y1="1629.130" x2="362.965" y2="1579.130"/>
      <line x1="363.965" y1="1629.130" x2="363.965" y2="1579.130"/>
      <line x1="364.965" y1="1629.130" x2="364.965" y2="1579.130"/>
      <line x1="365.965" y1="1629.130" x2="365.965" y2="1579.130"/>
      <line x1="366.965" y1="1629.130" x2="366.965" y2="1579.130"/>
      <line x1="367.965" y1="1629.130" x2="367.965" y2="1579.130"/>
      <line x1="368.965" y1="1629.130" x2="368.965" y2="1579.130"/>
      <line x1="369.965" y1="1629.130" x2="369.965" y2="1579.130"/>
      <line x1="370.965" y1="1629.130" x2="370.965" y2="1579.130"/>
      <line x1="371.965" y1="1629.130" x2="371.965" y2="1579.130"/>
      <line x1="372.965" y1="1629.130" x2="372.965" y2="1579.130"/>
      <line x1="373.965" y1="1629.130" x2="373.965" y2="1579.130"/>
      <line x1="374.965" y1="1629.130" x2="374.965" y2="1579.130"/>
      <line x1="375.965" y1="1629.130" x2="375.965" y2="1579.130"/>
      <line x1="376.965" y1="1629.130" x2="376.965" y2="1579.130"/>
      <line x1="377.965" y1="1629.130" x2="377.965" y2="1579.130"/>
      <line x1="378.965" y1="1629.130" x2="378.965" y2="1579.130"/>
      <line x1="379.965" y1="1629.130" x2="379.965" y2="1579.130"/>
      <line x1="380.965" y1="1629.130" x2="380.965" y2="1579.130"/>
      <line x1="381.965" y1="1629.130" x2="381.965" y2="1579.130"/>
      <line x1="382.965" y1="1629.130" x2="382.965" y2="1579.130"/>
      <line x1="383.965" y1="1629.130" x2="383.965" y2="1579.130"/>
      <line x1="384.965" y1="1629.130" x2="384.965" y2="1579.130"/>
      <line x1="385.965" y1="1629.130" x2="385.965" y2="1579.130"/>
      <line x1="386.965" y1="1629.130" x2="386.965" y2="1579.130"/>
      <line x1="387.965" y1="1629.130" x2="387.965" y2="1579.130"/>
      <line x1="388.965" y1="1629.130" x2="388.965" y2="1579.130"/>
      <line x1="389.965" y1="1629.130" x2="389.965" y2="1579.130"/>
      <line x1="390.965" y1="1629.130" x2="390.965" y2="1579.130"/>
      <line x1="391.965" y1="1629.130" x2="391.965" y2="1579.130"/>
      <line x1="392.965" y1="1629.130" x2="392.965" y2="1579.130"/>
      <line x1="393.965" y1="1629.130" x2="393.965" y2="1579.130"/>
      <line x1="394.965" y1="1629.130" x2="394.965" y2="1579.130"/>
      <line x1="395.965" y1="1629.130" x2="395.965" y2="1579.130"/>
      <line x1="396.965" y1="1629.130" x2="396.965" y2="1579.130"/>
      <line x1="397.965" y1="1629.130" x2="397.965" y2="1579.130"/>
      <line x1="398.965" y1="1629.130" x2="398.965" y2="1579.130"/>
      <line x1="399.965" y1="1629.130" x2="399.965" y2="1579.130"/>
      <line x1="400.965" y1="1629.130" x2="400.965" y2="1579.130"/>
      <line x1="401.965" y1="1629.130" x2="401.965" y2="1579.130"/>
      <line x1="402.965" y1="1629.130" x2="402.965" y2="1579.130"/>
      <line x1="403.965" y1="1629.130" x2="403.965" y2="1579.130"/>
      <line x1="404.965" y1="1629.130" x2="404.965" y2="1579.130"/>
      <line x1="405.965" y1="1629.130" x2="405.965" y2="1579.130"/>
      <line x1="406.965" y1="1629.130" x2="406.965" y2="1579.130"/>
      <line x1="407.965" y1="1629.130" x2="407.965" y2="1579.130"/>
      <line x1="408.965" y1="1629.130" x2="408.965" y2="1579.130"/>
      <line x1="409.965" y1="1629.130" x2="409.965" y2="1579.130"/>
      <line x1="410.965" y1="1629.130" x2="410.965" y2="1579.130"/>
      <line x1="411.965" y1="1629.130" x2="411.965" y2="1579.130"/>
      <line x1="412.965" y1="1629.130" x2="412.965" y2="1579.130"/>
      <line x1="413.965" y1="1629.130" x2="413.965" y2="1579.130"/>
      <line x1="414.965" y1="1629.130" x2="414.965" y2="1579.130"/>
      <line x1="415.965" y1="1629.130" x2="415.965" y2="1579.130"/>
      <line x1="416.965" y1="1629.130" x2="416.965" y2="1579.130"/>
      <line x1="417.965" y1="1629.130" x2="417.965" y2="1579.130"/>
      <line x1="418.965" y1="1629.130" x2="418.965" y2="1579.130"/>
      <line x1="419.965" y1="1629.130" x2="419.965" y2="1579.130"/>
      <line x1="420.965" y1="1629.130" x2="420.965" y2="1579.130"/>
      <line x1="421.965" y1="1629.130" x2="421.965" y2="1579.130"/>
      <line x1="422.965" y1="1629.130" x2="422.965" y2="1579.130"/>
      <line x1="423.965" y1="1629.130" x2="423.965" y2="1579.130"/>
      <line x1="424.965" y1="1629.130" x2="424.965" y2="1579.130"/>
      <line x1="425.965" y1="1629.130" x2="425.965" y2="1579.130"/>
      <line x1="426.965" y1="1629.130" x2="426.965" y2="1579.130"/>
      <line x1="428.965" y1="1629.130" x2="428.965" y2="1579.130"/>
      <line x1="429.965" y1="1629.130" x2="429.965" y2="1579.130"/>
      <line x1="430.965" y1="1629.130" x2="430.965" y2="1579.130"/>
      <line x1="431.965" y1="1629.130" x2="431.965" y2="1579.130"/>
      <line x1="432.965" y1="1629.130" x2="432.965" y2="1579.130"/>
      <line x1="433.965" y1="1629.130" x2="433.965" y2="1579.130"/>
      <line x1="434.965" y1="1629.130" x2="434.965" y2="1579.130"/>
      <line x1="435.965" y1="1629.130" x2="435.965" y2="1579.130"/>
      <line x1="436.965" y1="1629.130" x2="436.965" y2="1579.130"/>
      <line x1="437.965" y1="1629.130" x2="437.965" y2="1579.130"/>
      <line x1="438.965" y1="1629.130" x2="438.965" y2="1579.130"/>
      <line x1="439.965" y1="1629.130" x2="439.965" y2="1579.130"/>
      <line x1="440.965" y1="1629.130" x2="440.965" y2="1579.130"/>
      <line x1="441.965" y1="1629.130" x2="441.965" y2="1579.130"/>
      <line x1="442.965" y1="1629.130" x2="442.965" y2="1579.130"/>
      <line x1="443.965" y1="1629.130" x2="443.965" y2="1579.130"/>
      <line x1="444.965" y1="1629.130" x2="444.965" y2="1579.130"/>
      <line x1="445.965" y1="1629.130" x2="445.965" y2="1579.130"/>
      <line x1="446.965" y1="1629.130" x2="446.965" y2="1579.130"/>
      <line x1="447.965" y1="1629.130" x2="447.965" y2="1579.130"/>
      <line x1="448.965" y1="1629.130" x2="448.965" y2="1579.130"/>
      <line x1="449.965" y1="1629.130" x2="449.965" y2="1579.130"/>
      <line x1="450.965" y1="1629.130" x2="450.965" y2="1579.130"/>
      <line x1="451.965" y1="1629.130" x2="451.965" y2="1579.130"/>
      <line x1="452.965" y1="1629.130" x2="452.965" y2="1579.130"/>
      <line x1="453.965" y1="1629.130" x2="453.965" y2="1579.130"/>
      <line x1="454.965" y1="1629.130" x2="454.965" y2="1579.130"/>
      <line x1="455.965" y1="1629.130" x2="455.965" y2="1579.130"/>
      <line x1="456.965" y1="1629.130" x2="456.965" y2="1579.130"/>
      <line x1="457.965" y1="1629.130" x2="457.965" y2="1579.130"/>
      <line x1="458.965" y1="1629.130" x2="458.965" y2="1579.130"/>
      <line x1="459.965" y1="1629.130" x2="459.965" y2="1579.130"/>
      <line x1="460.965" y1="1629.130" x2="460.965" y2="1579.130"/>
      <line x1="461.965" y1="1629.130" x2="461.965" y2="1579.130"/>
      <line x1="462.965" y1="1629.130" x2="462.965" y2="1579.130"/>
      <line x1="463.965" y1="1629.130" x2="463.965" y2="1579.130"/>
      <line x1="464.965" y1="1629.130" x2="464.965" y2="1579.130"/>
      <line x1="465.965" y1="1629.130" x2="465.965" y2="1579.130"/>
      <line x1="466.965" y1="1629.130" x2="466.965" y2="1579.130"/>
      <line x1="467.965" y1="1629.130" x2="467.965" y2="1579.130"/>
      <line x1="468.965" y1="1629.130" x2="468.965" y2="1579.130"/>
      <line x1="469.965" y1="1629.130" x2="469.965" y2="1579.130"/>
      <line x1="470.965" y1="1629.130" x2="470.965" y2="1579.130"/>
      <line x1="471.965" y1="1629.130" x2="471.965" y2="1579.130"/>
      <line x1="127.965" y1="1579.030" x2="127.965" y2="1529.030"/>
      <line x1="128.965" y1="1579.030" x2="128.965" y2="1529.030"/>
      <line x1="129.965" y1="1579.030" x2="129.965" y2="1529.030"/>
      <line x1="130.965" y1="1579.030" x2="130.965" y2="1529.030"/>
      <line x1="131.965" y1="1579.030" x2="131.965" y2="1529.030"/>
      <line x1="132.965" y1="1579.030" x2="132.965" y2="1529.030"/>
      <line x1="133.965" y1="1579.030" x2="133.965" y2="1529.030"/>
      <line x1="134.965" y1="1579.030" x2="134.965" y2="1529.030"/>
      <line x1="135.965" y1="1579.030" x2="135.965" y2="1529.030"/>
      <line x1="136.965" y1="1579.030" x2="136.965" y2="1529.030"/>
      <line x1="137.965" y1="1579.030" x2="137.965" y2="1529.030"/>
      <line x1="138.965" y1="1579.030" x2="138.965" y2="1529.030"/>
      <line x1="139.965" y1="1579.030" x2="139.965" y2="1529.030"/>
      <line x1="140.965" y1="1579.030" x2="140.965" y2="1529.030"/>
      <line x1="141.965" y1="1579.030" x2="141.965" y2="1529.030"/>
      <line x1="142.965" y1="1579.030" x2="142.965" y2="1529.030"/>
      <line x1="143.965" y1="1579.030" x2="143.965" y2="1529.030"/>
      <line x1="144.965" y1="1579.030" x2="144.965" y2="1529.030"/>
      <line x1="145.965" y1="1579.030" x2="145.965" y2="1529.030"/>
      <line x1="146.965" y1="1579.030" x2="146.965" y2="1529.030"/>
      <line x1="147.965" y1="1579.030" x2="147.965" y2="1529.030"/>
      <line x1="148.965" y1="1579.030" x2="148.965" y2="1529.030"/>
      <line x1="149.965" y1="1579.030" x2="149.965" y2="1529.030"/>
      <line x1="150.965" y1="1579.030" x2="150.965" y2="1529.030"/>
      <line x1="151.965" y1="1579.030" x2="151.965" y2="1529.030"/>
      <line x1="152.965" y1="1579.030" x2="152.965" y2="1529.030"/>
      <line x1="153.965" y1="1579.030" x2="153.965" y2="1529.030"/>
      <line x1="154.965" y1="1579.030" x2="154.965" y2="1529.030"/>
      <line x1="155.965" y1="1579.030" x2="155.965" y2="1529.030"/>
      <line x1="156.965" y1="1579.030" x2="156.965" y2="1529.030"/>
      <line x1="157.965" y1="1579.030" x2="157.965" y2="1529.030"/>
      <line x1="158.965" y1="1579.030" x2="158.965" y2="1529.030"/>
      <line x1="159.965" y1="1579.030" x2="159.965" y2="1529.030"/>
      <line x1="160.965" y1="1579.030" x2="160.965" y2="1529.030"/>
      <line x1="161.965" y1="1579.030" x2="161.965" y2="1529.030"/>
      <line x1="162.965" y1="1579.030" x2="162.965" y2="1529.030"/>
      <line x1="163.965" y1="1579.030" x2="163.965" y2="1529.030"/>
      <line x1="164.965" y1="1579.030" x2="164.965" y2="1529.030"/>
      <line x1="165.965" y1="1579.030" x2="165.965" y2="1529.030"/>
      <line x1="166.965" y1="1579.030" x2="166.965" y2="1529.030"/>
      <line x1="167.965" y1="1579.030" x2="167.965" y2="1529.030"/>
      <line x1="168.965" y1="1579.030" x2="168.965" y2="1529.030"/>
      <line x1="169.965" y1="1579.030" x2="169.965" y2="1529.030"/>
      <line x1="170.965" y1="1579.030" x2="170.965" y2="1529.030"/>
      <line x1="171.965" y1="1579.030" x2="171.965" y2="1529.030"/>
      <line x1="172.965" y1="1579.030" x2="172.965" y2="1529.030"/>
      <line x1="173.965" y1="1579.030" x2="173.965" y2="1529.030"/>
      <line x1="174.965" y1="1579.030" x2="174.965" y2="1529.030"/>
      <line x1="175.965" y1="1579.030" x2="175.965" y2="1529.030"/>
      <line x1="176.965" y1="1579.030" x2="176.965" y2="1529.030"/>
      <line x1="177.965" y1="1579.030" x2="177.965" y2="1529.030"/>
      <line x1="178.965" y1="1579.030" x2="178.965" y2="1529.030"/>
      <line x1="179.965" y1="1579.030" x2="179.965" y2="1529.030"/>
      <line x1="180.965" y1="1579.030" x2="180.965" y2="1529.030"/>
      <line x1="181.965" y1="1579.030" x2="181.965" y2="1529.030"/>
      <line x1="182.965" y1="1579.030" x2="182.965" y2="1529.030"/>
      <line x1="183.965" y1="1579.030" x2="183.965" y2="1529.030"/>
      <line x1="184.965" y1="1579.030" x2="184.965" y2="1529.030"/>
      <line x1="185.965" y1="1579.030" x2="185.965" y2="1529.030"/>
      <line x1="186.965" y1="1579.030" x2="186.965" y2="1529.030"/>
      <line x1="187.965" y1="1579.030" x2="187.965" y2="1529.030"/>
      <line x1="188.965" y1="1579.030" x2="188.965" y2="1529.030"/>
      <line x1="189.965" y1="1579.030" x2="189.965" y2="1529.030"/>
      <line x1="190.965" y1="1579.030" x2="190.965" y2="1529.030"/>
      <line x1="191.965" y1="1579.030" x2="191.965" y2="1529.030"/>
      <line x1="192.965" y1="1579.030" x2="192.965" y2="1529.030"/>
      <line x1="193.965" y1="1579.030" x2="193.965" y2="1529.030"/>
      <line x1="194.965" y1="1579.030" x2="194.965" y2="1529.030"/>
      <line x1="195.965" y1="1579.030" x2="195.965" y2="1529.030"/>
      <line x1="196.965" y1="1579.030" x2="196.965" y2="1529.030"/>
      <line x1="197.965" y1="1579.030" x2="197.965" y2="1529.030"/>
      <line x1="198.965" y1="1579.030" x2="198.965" y2="1529.030"/>
      <line x1="199.965" y1="1579.030" x2="199.965" y2="1529.030"/>
      <line x1="200.965" y1="1579.030" x2="200.965" y2="1529.030"/>
      <line x1="201.965" y1="1579.030" x2="201.965" y2="1529.030"/>
      <line x1="202.965" y1="1579.030" x2="202.965" y2="1529.030"/>
      <line x1="203.965" y1="1579.030" x2="203.965" y2="1529.030"/>
      <line x1="204.965" y1="1579.030" x2="204.965" y2="1529.030"/>
      <line x1="205.965" y1="1579.030" x2="205.965" y2="1529.030"/>
      <line x1="206.965" y1="1579.030" x2="206.965" y2="1529.030"/>
      <line x1="207.965" y1="1579.030" x2="207.965" y2="1529.030"/>
      <line x1="208.965" y1="1579.030" x2="208.965" y2="1529.030"/>
      <line x1="209.965" y1="1579.030" x2="209.965" y2="1529.030"/>
      <line x1="210.965" y1="1579.030" x2="210.965" y2="1529.030"/>
      <line x1="211.965" y1="1579.030" x2="211.965" y2="1529.030"/>
      <line x1="212.965" y1="1579.030" x2="212.965" y2="1529.030"/>
      <line x1="213.965" y1="1579.030" x2="213.965" y2="1529.030"/>
      <line x1="214.965" y1="1579.030" x2="214.965" y2="1529.030"/>
      <line x1="215.965" y1="1579.030" x2="215.965" y2="1529.030"/>
      <line x1="216.965" y1="1579.030" x2="216.965" y2="1529.030"/>
      <line x1="217.965" y1="1579.030" x2="217.965" y2="1529.030"/>
      <line x1="218.965" y1="1579.030" x2="218.965" y2="1529.030"/>
      <line x1="219.965" y1="1579.030" x2="219.965" y2="1529.030"/>
      <line x1="220.965" y1="1579.030" x2="220.965" y2="1529.030"/>
      <line x1="221.965" y1="1579.030" x2="221.965" y2="1529.030"/>
      <line x1="222.965" y1="1579.030" x2="222.965" y2="1529.030"/>
      <line x1="223.965" y1="1579.030" x2="223.965" y2="1529.030"/>
      <line x1="224.965" y1="1579.030" x2="224.965" y2="1529.030"/>
      <line x1="225.965" y1="1579.030" x2="225.965" y2="1529.030"/>
      <line x1="226.965" y1="1579.030" x2="226.965" y2="1529.030"/>
      <line x1="227.965" y1="1579.030" x2="227.965" y2="1529.030"/>
      <line x1="228.965" y1="1579.030" x2="228.965" y2="1529.030"/>
      <line x1="229.965" y1="1579.030" x2="229.965" y2="1529.030"/>
      <line x1="230.965" y1="1579.030" x2="230.965" y2="1529.030"/>
      <line x1="231.965" y1="1579.030" x2="231.965" y2="1529.030"/>
      <line x1="232.965" y1="1579.030" x2="232.965" y2="1529.030"/>
      <line x1="233.965" y1="1579.030" x2="233.965" y2="1529.030"/>
      <line x1="234.965" y1="1579.030" x2="234.965" y2="1529.030"/>
      <line x1="235.965" y1="1579.030" x2="235.965" y2="1529.030"/>
      <line x1="236.965" y1="1579.030" x2="236.965" y2="1529.030"/>
      <line x1="237.965" y1="1579.030" x2="237.965" y2="1529.030"/>
      <line x1="238.965" y1="1579.030" x2="238.965" y2="1529.030"/>
      <line x1="239.965" y1="1579.030" x2="239.965" y2="1529.030"/>
      <line x1="240.965" y1="1579.030" x2="240.965" y2="1529.030"/>
      <line x1="241.965" y1="1579.030" x2="241.965" y2="1529.030"/>
      <line x1="242.965" y1="1579.030" x2="242.965" y2="1529.030"/>
      <line x1="243.965" y1="1579.030" x2="243.965" y2="1529.030"/>
      <line x1="244.965" y1="1579.030" x2="244.965" y2="1529.030"/>
      <line x1="245.965" y1="1579.030" x2="245.965" y2="1529.030"/>
      <line x1="246.965" y1="1579.030" x2="246.965" y2="1529.030"/>
      <line x1="247.965" y1="1579.030" x2="247.965" y2="1529.030"/>
      <line x1="248.965" y1="1579.030" x2="248.965" y2="1529.030"/>
      <line x1="249.965" y1="1579.030" x2="249.965" y2="1529.030"/>
      <line x1="250.965" y1="1579.030" x2="250.965" y2="1529.030"/>
      <line x1="251.965" y1="1579.030" x2="251.965" y2="1529.030"/>
      <line x1="252.965" y1="1579.030" x2="252.965" y2="1529.030"/>
      <line x1="253.965" y1="1579.030" x2="253.965" y2="1529.030"/>
      <line x1="254.965" y1="1579.030" x2="254.965" y2="1529.030"/>
      <line x1="255.965" y1="1579.030" x2="255.965" y2="1529.030"/>
      <line x1="256.965" y1="1579.030" x2="256.965" y2="1529.030"/>
      <line x1="257.965" y1="1579.030" x2="257.965" y2="1529.030"/>
      <line x1="258.965" y1="1579.030" x2="258.965" y2="1529.030"/>
      <line x1="259.965" y1="1579.030" x2="259.965" y2="1529.030"/>
      <line x1="260.965" y1="1579.030" x2="260.965" y2="1529.030"/>
      <line x1="261.965" y1="1579.030" x2="261.965" y2="1529.030"/>
      <line x1="262.965" y1="1579.030" x2="262.965" y2="1529.030"/>
      <line x1="263.965" y1="1579.030" x2="263.965" y2="1529.030"/>
      <line x1="264.965" y1="1579.030" x2="264.965" y2="1529.030"/>
      <line x1="265.965" y1="1579.030" x2="265.965" y2="1529.030"/>
      <line x1="266.965" y1="1579.030" x2="266.965" y2="1529.030"/>
      <line x1="267.965" y1="1579.030" x2="267.965" y2="1529.030"/>
      <line x1="268.965" y1="1579.030" x2="268.965" y2="1529.030"/>
      <line x1="269.965" y1="1579.030" x2="269.965" y2="1529.030"/>
      <line x1="270.965" y1="1579.030" x2="270.965" y2="1529.030"/>
      <line x1="271.965" y1="1579.030" x2="271.965" y2="1529.030"/>
      <line x1="272.965" y1="1579.030" x2="272.965" y2="1529.030"/>
      <line x1="273.965" y1="1579.030" x2="273.965" y2="1529.030"/>
      <line x1="274.965" y1="1579.030" x2="274.965" y2="1529.030"/>
      <line x1="275.965" y1="1579.030" x2="275.965" y2="1529.030"/>
      <line x1="276.965" y1="1579.030" x2="276.965" y2="1529.030"/>
      <line x1="277.965" y1="1579.030" x2="277.965" y2="1529.030"/>
      <line x1="278.965" y1="1579.030" x2="278.965" y2="1529.030"/>
      <line x1="279.965" y1="1579.030" x2="279.965" y2="1529.030"/>
      <line x1="280.965" y1="1579.030" x2="280.965" y2="1529.030"/>
      <line x1="281.965" y1="1579.030" x2="281.965" y2="1529.030"/>
      <line x1="282.965" y1="1579.030" x2="282.965" y2="1529.030"/>
      <line x1="283.965" y1="1579.030" x2="283.965" y2="1529.030"/>
      <line x1="284.965" y1="1579.030" x2="284.965" y2="1529.030"/>
      <line x1="285.965" y1="1579.030" x2="285.965" y2="1529.030"/>
      <line x1="286.965" y1="1579.030" x2="286.965" y2="1529.030"/>
      <line x1="287.965" y1="1579.030" x2="287.965" y2="1529.030"/>
      <line x1="288.965" y1="1579.030" x2="288.965" y2="1529.030"/>
      <line x1="289.965" y1="1579.030" x2="289.965" y2="1529.030"/>
      <line x1="290.965" y1="1579.030" x2="290.965" y2="1529.030"/>
      <line x1="291.965" y1="1579.030" x2="291.965" y2="1529.030"/>
      <line x1="292.965" y1="1579.030" x2="292.965" y2="1529.030"/>
      <line x1="293.965" y1="1579.030" x2="293.965" y2="1529.030"/>
      <line x1="294.965" y1="1579.030" x2="294.965" y2="1529.030"/>
      <line x1="295.965" y1="1579.030" x2="295.965" y2="1529.030"/>
      <line x1="296.965" y1="1579.030" x2="296.965" y2="1529.030"/>
      <line x1="297.965" y1="1579.030" x2="297.965" y2="1529.030"/>
      <line x1="298.965" y1="1579.030" x2="298.965" y2="1529.030"/>
      <line x1="299.965" y1="1579.030" x2="299.965" y2="1529.030"/>
      <line x1="300.965" y1="1579.030" x2="300.965" y2="1529.030"/>
      <line x1="301.965" y1="1579.030" x2="301.965" y2="1529.030"/>
      <line x1="302.965" y1="1579.030" x2="302.965" y2="1529.030"/>
      <line x1="303.965" y1="1579.030" x2="303.965" y2="1529.030"/>
      <line x1="304.965" y1="1579.030" x2="304.965" y2="1529.030"/>
      <line x1="305.965" y1="1579.030" x2="305.965" y2="1529.030"/>
      <line x1="306.965" y1="1579.030" x2="306.965" y2="1529.030"/>
      <line x1="307.965" y1="1579.030" x2="307.965" y2="1529.030"/>
      <line x1="308.965" y1="1579.030" x2="308.965" y2="1529.030"/>
      <line x1="309.965" y1="1579.030" x2="309.965" y2="1529.030"/>
      <line x1="310.965" y1="1579.030" x2="310.965" y2="1529.030"/>
      <line x1="311.965" y1="1579.030" x2="311.965" y2="1529.030"/>
      <line x1="312.965" y1="1579.030" x2="312.965" y2="1529.030"/>
      <line x1="313.965" y1="1579.030" x2="313.965" y2="1529.030"/>
      <line x1="314.965" y1="1579.030" x2="314.965" y2="1529.030"/>
      <line x1="315.965" y1="1579.030" x2="315.965" y2="1529.030"/>
      <line x1="316.965" y1="1579.030" x2="316.965" y2="1529.030"/>
      <line x1="317.965" y1="1579.030" x2="317.965" y2="1529.030"/>
      <line x1="318.965" y1="1579.030" x2="318.965" y2="1529.030"/>
      <line x1="319.965" y1="1579.030" x2="319.965" y2="1529.030"/>
      <line x1="320.965" y1="1579.030" x2="320.965" y2="1529.030"/>
      <line x1="321.965" y1="1579.030" x2="321.965" y2="1529.030"/>
      <line x1="322.965" y1="1579.030" x2="322.965" y2="1529.030"/>
      <line x1="323.965" y1="1579.030" x2="323.965" y2="1529.030"/>
      <line x1="324.965" y1="1579.030" x2="324.965" y2="1529.030"/>
      <line x1="325.965" y1="1579.030" x2="325.965" y2="1529.030"/>
      <line x1="326.965" y1="1579.030" x2="326.965" y2="1529.030"/>
      <line x1="327.965" y1="1579.030" x2="327.965" y2="1529.030"/>
      <line x1="328.965" y1="1579.030" x2="328.965" y2="1529.030"/>
      <line x1="329.965" y1="1579.030" x2="329.965" y2="1529.030"/>
      <line x1="330.965" y1="1579.030" x2="330.965" y2="1529.030"/>
      <line x1="331.965" y1="1579.030" x2="331.965" y2="1529.030"/>
      <line x1="332.965" y1="1579.030" x2="332.965" y2="1529.030"/>
      <line x1="333.965" y1="1579.030" x2="333.965" y2="1529.030"/>
      <line x1="334.965" y1="1579.030" x2="334.965" y2="1529.030"/>
      <line x1="335.965" y1="1579.030" x2="335.965" y2="1529.030"/>
      <line x1="336.965" y1="1579.030" x2="336.965" y2="1529.030"/>
      <line x1="337.965" y1="1579.030" x2="337.965" y2="1529.030"/>
      <line x1="338.965" y1="1579.030" x2="338.965" y2="1529.030"/>
      <line x1="339.965" y1="1579.030" x2="339.965" y2="1529.030"/>
      <line x1="340.965" y1="1579.030" x2="340.965" y2="1529.030"/>
      <line x1="341.965" y1="1579.030" x2="341.965" y2="1529.030"/>
      <line x1="342.965" y1="1579.030" x2="342.965" y2="1529.030"/>
      <line x1="343.965" y1="1579.030" x2="343.965" y2="1529.030"/>
      <line x1="344.965" y1="1579.030" x2="344.965" y2="1529.030"/>
      <line x1="345.965" y1="1579.030" x2="345.965" y2="1529.030"/>
      <line x1="346.965" y1="1579.030" x2="346.965" y2="1529.030"/>
      <line x1="347.965" y1="1579.030" x2="347.965" y2="1529.030"/>
      <line x1="348.965" y1="1579.030" x2="348.965" y2="1529.030"/>
      <line x1="349.965" y1="1579.030" x2="349.965" y2="1529.030"/>
      <line x1="350.965" y1="1579.030" x2="350.965" y2="1529.030"/>
      <line x1="351.965" y1="1579.030" x2="351.965" y2="1529.030"/>
      <line x1="352.965" y1="1579.030" x2="352.965" y2="1529.030"/>
      <line x1="353.965" y1="1579.030" x2="353.965" y2="1529.030"/>
      <line x1="354.965" y1="1579.030" x2="354.965" y2="1529.030"/>
      <line x1="355.965" y1="1579.030" x2="355.965" y2="1529.030"/>
      <line x1="356.965" y1="1579.030" x2="356.965" y2="1529.030"/>
      <line x1="357.965" y1="1579.030" x2="357.965" y2="1529.030"/>
      <line x1="358.965" y1="1579.030" x2="358.965" y2="1529.030"/>
      <line x1="359.965" y1="1579.030" x2="359.965" y2="1529.030"/>
      <line x1="360.965" y1="1579.030" x2="360.965" y2="1529.030"/>
      <line x1="361.965" y1="1579.030" x2="361.965" y2="1529.030"/>
      <line x1="362.965" y1="1579.030" x2="362.965" y2="1529.030"/>
      <line x1="363.965" y1="1579.030" x2="363.965" y2="1529.030"/>
      <line x1="364.965" y1="1579.030" x2="364.965" y2="1529.030"/>
      <line x1="365.965" y1="1579.030" x2="365.965" y2="1529.030"/>
      <line x1="366.965" y1="1579.030" x2="366.965" y2="1529.030"/>
      <line x1="367.965" y1="1579.030" x2="367.965" y2="1529.030"/>
      <line x1="368.965" y1="1579.030" x2="368.965" y2="1529.030"/>
      <line x1="369.965" y1="1579.030" x2="369.965" y2="1529.030"/>
      <line x1="370.965" y1="1579.030" x2="370.965" y2="1529.030"/>
      <line x1="371.965" y1="1579.030" x2="371.965" y2="1529.030"/>
      <line x1="372.965" y1="1579.030" x2="372.965" y2="1529.030"/>
      <line x1="373.965" y1="1579.030" x2="373.965" y2="1529.030"/>
      <line x1="374.965" y1="1579.030" x2="374.965" y2="1529.030"/>
      <line x1="375.965" y1="1579.030" x2="375.965" y2="1529.030"/>
      <line x1="376.965" y1="1579.030" x2="376.965" y2="1529.030"/>
      <line x1="377.965" y1="1579.030" x2="377.965" y2="1529.030"/>
      <line x1="378.965" y1="1579.030" x2="378.965" y2="1529.030"/>
      <line x1="379.965" y1="1579.030" x2="379.965" y2="1529.030"/>
      <line x1="380.965" y1="1579.030" x2="380.965" y2="1529.030"/>
      <line x1="381.965" y1="1579.030" x2="381.965" y2="1529.030"/>
      <line x1="382.965" y1="1579.030" x2="382.965" y2="1529.030"/>
      <line x1="383.965" y1="1579.030" x2="383.965" y2="1529.030"/>
      <line x1="384.965" y1="1579.030" x2="384.965" y2="1529.030"/>
      <line x1="385.965" y1="1579.030" x2="385.965" y2="1529.030"/>
      <line x1="386.965" y1="1579.030" x2="386.965" y2="1529.030"/>
      <line x1="387.965" y1="1579.030" x2="387.965" y2="1529.030"/>
      <line x1="388.965" y1="1579.030" x2="388.965" y2="1529.030"/>
      <line x1="389.965" y1="1579.030" x2="389.965" y2="1529.030"/>
      <line x1="390.965" y1="1579.030" x2="390.965" y2="1529.030"/>
      <line x1="391.965" y1="1579.030" x2="391.965" y2="1529.030"/>
      <line x1="392.965" y1="1579.030" x2="392.965" y2="1529.030"/>
      <line x1="393.965" y1="1579.030" x2="393.965" y2="1529.030"/>
      <line x1="394.965" y1="1579.030" x2="394.965" y2="1529.030"/>
      <line x1="395.965" y1="1579.030" x2="395.965" y2="1529.030"/>
      <line x1="396.965" y1="1579.030" x2="396.965" y2="1529.030"/>
      <line x1="397.965" y1="1579.030" x2="397.965" y2="1529.030"/>
      <line x1="398.965" y1="1579.030" x2="398.965" y2="1529.030"/>
      <line x1="399.965" y1="1579.030" x2="399.965" y2="1529.030"/>
      <line x1="400.965" y1="1579.030" x2="400.965" y2="1529.030"/>
      <line x1="401.965" y1="1579.030" x2="401.965" y2="1529.030"/>
      <line x1="402.965" y1="1579.030" x2="402.965" y2="1529.030"/>
      <line x1="403.965" y1="1579.030" x2="403.965" y2="1529.030"/>
      <line x1="404.965" y1="1579.030" x2="404.965" y2="1529.030"/>
      <line x1="405.965" y1="1579.030" x2="405.965" y2="1529.030"/>
      <line x1="406.965" y1="1579.030" x2="406.965" y2="1529.030"/>
      <line x1="407.965" y1="1579.030" x2="407.965" y2="1529.030"/>
      <line x1="408.965" y1="1579.030" x2="408.965" y2="1529.030"/>
      <line x1="409.965" y1="1579.030" x2="409.965" y2="1529.030"/>
      <line x1="410.965" y1="1579.030" x2="410.965" y2="1529.030"/>
      <line x1="411.965" y1="1579.030" x2="411.965" y2="1529.030"/>
      <line x1="412.965" y1="1579.030" x2="412.965" y2="1529.030"/>
      <line x1="413.965" y1="1579.030" x2="413.965" y2="1529.030"/>
      <line x1="414.965" y1="1579.030" x2="414.965" y2="1529.030"/>
      <line x1="415.965" y1="1579.030" x2="415.965" y2="1529.030"/>
      <line x1="416.965" y1="1579.030" x2="416.965" y2="1529.030"/>
      <line x1="417.965" y1="1579.030" x2="417.965" y2="1529.030"/>
      <line x1="418.965" y1="1579.030" x2="418.965" y2="1529.030"/>
      <line x1="419.965" y1="1579.030" x2="419.965" y2="1529.030"/>
      <line x1="420.965" y1="1579.030" x2="420.965" y2="1529.030"/>
      <line x1="421.965" y1="1579.030" x2="421.965" y2="1529.030"/>
      <line x1="422.965" y1="1579.030" x2="422.965" y2="1529.030"/>
      <line x1="423.965" y1="1579.030" x2="423.965" y2="1529.030"/>
      <line x1="424.965" y1="1579.030" x2="424.965" y2="1529.030"/>
      <line x1="425.965" y1="1579.030" x2="425.965" y2="1529.030"/>
      <line x1="426.965" y1="1579.030" x2="426.965" y2="1529.030"/>
      <line x1="428.965" y1="1579.030" x2="428.965" y2="1529.030"/>
      <line x1="429.965" y1="1579.030" x2="429.965" y2="1529.030"/>
      <line x1="430.965" y1="1579.030" x2="430.965" y2="1529.030"/>
      <line x1="431.965" y1="1579.030" x2="431.965" y2="1529.030"/>
      <line x1="432.965" y1="1579.030" x2="432.965" y2="1529.030"/>
      <line x1="433.965" y1="1579.030" x2="433.965" y2="1529.030"/>
      <line x1="434.965" y1="1579.030" x2="434.965" y2="1529.030"/>
      <line x1="435.965" y1="1579.030" x2="435.965" y2="1529.030"/>
      <line x1="436.965" y1="1579.030" x2="436.965" y2="1529.030"/>
      <line x1="437.965" y1="1579.030" x2="437.965" y2="1529.030"/>
      <line x1="438.965" y1="1579.030" x2="438.965" y2="1529.030"/>
      <line x1="439.965" y1="1579.030" x2="439.965" y2="1529.030"/>
      <line x1="440.965" y1="1579.030" x2="440.965" y2="1529.030"/>
      <line x1="441.965" y1="1579.030" x2="441.965" y2="1529.030"/>
      <line x1="442.965" y1="1579.030" x2="442.965" y2="1529.030"/>
      <line x1="443.965" y1="1579.030" x2="443.965" y2="1529.030"/>
      <line x1="444.965" y1="1579.030" x2="444.965" y2="1529.030"/>
      <line x1="445.965" y1="1579.030" x2="445.965" y2="1529.030"/>
      <line x1="446.965" y1="1579.030" x2="446.965" y2="1529.030"/>
      <line x1="447.965" y1="1579.030" x2="447.965" y2="1529.030"/>
      <line x1="448.965" y1="1579.030" x2="448.965" y2="1529.030"/>
      <line x1="449.965" y1="1579.030" x2="449.965" y2="1529.030"/>
      <line x1="450.965" y1="1579.030" x2="450.965" y2="1529.030"/>
      <line x1="451.965" y1="1579.030" x2="451.965" y2="1529.030"/>
      <line x1="452.965" y1="1579.030" x2="452.965" y2="1529.030"/>
      <line x1="453.965" y1="1579.030" x2="453.965" y2="1529.030"/>
      <line x1="454.965" y1="1579.030" x2="454.965" y2="1529.030"/>
      <line x1="455.965" y1="1579.030" x2="455.965" y2="1529.030"/>
      <line x1="456.965" y1="1579.030" x2="456.965" y2="1529.030"/>
      <line x1="457.965" y1="1579.030" x2="457.965" y2="1529.030"/>
      <line x1="458.965" y1="1579.030" x2="458.965" y2="1529.030"/>
      <line x1="459.965" y1="1579.030" x2="459.965" y2="1529.030"/>
      <line x1="460.965" y1="1579.030" x2="460.965" y2="1529.030"/>
      <line x1="461.965" y1="1579.030" x2="461.965" y2="1529.030"/>
      <line x1="462.965" y1="1579.030" x2="462.965" y2="1529.030"/>
      <line x1="463.965" y1="1579.030" x2="463.965" y2="1529.030"/>
      <line x1="464.965" y1="1579.030" x2="464.965" y2="1529.030"/>
      <line x1="465.965" y1="1579.030" x2="465.965" y2="1529.030"/>
      <line x1="466.965" y1="1579.030" x2="466.965" y2="1529.030"/>
      <line x1="467.965" y1="1579.030" x2="467.965" y2="1529.030"/>
      <line x1="468.965" y1="1579.030" x2="468.965" y2="1529.030"/>
      <line x1="469.965" y1="1579.030" x2="469.965" y2="1529.030"/>
      <line x1="470.965" y1="1579.030" x2="470.965" y2="1529.030"/>
      <line x1="471.965" y1="1579.030" x2="471.965" y2="1529.030"/>
      <line x1="159.965" y1="1528.930" x2="159.965" y2="1525.229"/>
      <line x1="142.965" y1="1528.930" x2="142.965" y2="1525.229"/>
      <line x1="158.965" y1="1528.930" x2="158.965" y2="1525.229"/>
      <line x1="157.965" y1="1528.930" x2="157.965" y2="1525.229"/>
      <line x1="156.965" y1="1528.930" x2="156.965" y2="1525.229"/>
      <line x1="155.965" y1="1528.930" x2="155.965" y2="1525.229"/>
      <line x1="154.965" y1="1528.930" x2="154.965" y2="1525.229"/>
      <line x1="153.965" y1="1528.930" x2="153.965" y2="1525.229"/>
      <line x1="152.965" y1="1528.930" x2="152.965" y2="1525.229"/>
      <line x1="151.965" y1="1528.930" x2="151.965" y2="1525.229"/>
      <line x1="150.965" y1="1528.930" x2="150.965" y2="1525.229"/>
      <line x1="149.965" y1="1528.930" x2="149.965" y2="1525.229"/>
      <line x1="148.965" y1="1528.930" x2="148.965" y2="1525.229"/>
      <line x1="147.965" y1="1528.930" x2="147.965" y2="1525.229"/>
      <line x1="146.965" y1="1528.930" x2="146.965" y2="1525.229"/>
      <line x1="145.965" y1="1528.930" x2="145.965" y2="1525.229"/>
      <line x1="144.965" y1="1528.930" x2="144.965" y2="1525.229"/>
      <line x1="143.965" y1="1528.930" x2="143.965" y2="1525.229"/>
      <line x1="169.965" y1="1528.930" x2="169.965" y2="1525.229"/>
      <line x1="176.965" y1="1528.930" x2="176.965" y2="1525.229"/>
      <line x1="175.965" y1="1528.930" x2="175.965" y2="1525.229"/>
      <line x1="174.965" y1="1528.930" x2="174.965" y2="1525.229"/>
      <line x1="173.965" y1="1528.930" x2="173.965" y2="1525.229"/>
      <line x1="172.965" y1="1528.930" x2="172.965" y2="1525.229"/>
      <line x1="171.965" y1="1528.930" x2="171.965" y2="1525.229"/>
      <line x1="170.965" y1="1528.930" x2="170.965" y2="1525.229"/>
      <line x1="160.965" y1="1528.930" x2="160.965" y2="1525.229"/>
      <line x1="168.965" y1="1528.930" x2="168.965" y2="1525.229"/>
      <line x1="167.965" y1="1528.930" x2="167.965" y2="1525.229"/>
      <line x1="166.965" y1="1528.930" x2="166.965" y2="1525.229"/>
      <line x1="165.965" y1="1528.930" x2="165.965" y2="1525.229"/>
      <line x1="164.965" y1="1528.930" x2="164.965" y2="1525.229"/>
      <line x1="163.965" y1="1528.930" x2="163.965" y2="1525.229"/>
      <line x1="162.965" y1="1528.930" x2="162.965" y2="1525.229"/>
      <line x1="161.965" y1="1528.930" x2="161.965" y2="1525.229"/>
      <line x1="141.965" y1="1528.930" x2="141.965" y2="1525.229"/>
      <line x1="140.965" y1="1528.930" x2="140.965" y2="1525.229"/>
      <line x1="139.965" y1="1528.930" x2="139.965" y2="1525.229"/>
      <line x1="138.965" y1="1528.930" x2="138.965" y2="1525.229"/>
      <line x1="137.965" y1="1528.930" x2="137.965" y2="1525.229"/>
      <line x1="136.965" y1="1528.930" x2="136.965" y2="1525.229"/>
      <line x1="135.965" y1="1528.930" x2="135.965" y2="1525.229"/>
      <line x1="134.965" y1="1528.930" x2="134.965" y2="1525.229"/>
      <line x1="133.965" y1="1528.930" x2="133.965" y2="1525.229"/>
      <line x1="130.965" y1="1528.930" x2="130.965" y2="1525.229"/>
      <line x1="131.965" y1="1528.930" x2="131.965" y2="1525.229"/>
      <line x1="127.965" y1="1528.930" x2="127.965" y2="1525.229"/>
      <line x1="128.965" y1="1528.930" x2="128.965" y2="1525.229"/>
      <line x1="132.965" y1="1528.930" x2="132.965" y2="1525.229"/>
      <line x1="129.965" y1="1528.930" x2="129.965" y2="1525.229"/>
      <line x1="177.965" y1="1528.930" x2="177.965" y2="1525.229"/>
      <line x1="183.965" y1="1528.930" x2="183.965" y2="1525.229"/>
      <line x1="184.965" y1="1528.930" x2="184.965" y2="1525.229"/>
      <line x1="185.965" y1="1528.930" x2="185.965" y2="1525.229"/>
      <line x1="186.965" y1="1528.930" x2="186.965" y2="1525.229"/>
      <line x1="187.965" y1="1528.930" x2="187.965" y2="1525.229"/>
      <line x1="181.965" y1="1528.930" x2="181.965" y2="1525.229"/>
      <line x1="182.965" y1="1528.930" x2="182.965" y2="1525.229"/>
      <line x1="180.965" y1="1528.930" x2="180.965" y2="1525.229"/>
      <line x1="179.965" y1="1528.930" x2="179.965" y2="1525.229"/>
      <line x1="178.965" y1="1528.930" x2="178.965" y2="1525.229"/>
      <line x1="213.965" y1="1528.930" x2="213.965" y2="1525.229"/>
      <line x1="214.965" y1="1528.930" x2="214.965" y2="1525.229"/>
      <line x1="215.965" y1="1528.930" x2="215.965" y2="1525.229"/>
      <line x1="216.965" y1="1528.930" x2="216.965" y2="1525.229"/>
      <line x1="217.965" y1="1528.930" x2="217.965" y2="1525.229"/>
      <line x1="218.965" y1="1528.930" x2="218.965" y2="1525.229"/>
      <line x1="219.965" y1="1528.930" x2="219.965" y2="1525.229"/>
      <line x1="220.965" y1="1528.930" x2="220.965" y2="1525.229"/>
      <line x1="221.965" y1="1528.930" x2="221.965" y2="1525.229"/>
      <line x1="222.965" y1="1528.930" x2="222.965" y2="1525.229"/>
      <line x1="223.965" y1="1528.930" x2="223.965" y2="1525.229"/>
      <line x1="224.965" y1="1528.930" x2="224.965" y2="1525.229"/>
      <line x1="225.965" y1="1528.930" x2="225.965" y2="1525.229"/>
      <line x1="226.965" y1="1528.930" x2="226.965" y2="1525.229"/>
      <line x1="212.965" y1="1528.930" x2="212.965" y2="1525.229"/>
      <line x1="198.965" y1="1528.930" x2="198.965" y2="1525.229"/>
      <line x1="188.965" y1="1528.930" x2="188.965" y2="1525.229"/>
      <line x1="189.965" y1="1528.930" x2="189.965" y2="1525.229"/>
      <line x1="190.965" y1="1528.930" x2="190.965" y2="1525.229"/>
      <line x1="191.965" y1="1528.930" x2="191.965" y2="1525.229"/>
      <line x1="192.965" y1="1528.930" x2="192.965" y2="1525.229"/>
      <line x1="193.965" y1="1528.930" x2="193.965" y2="1525.229"/>
      <line x1="194.965" y1="1528.930" x2="194.965" y2="1525.229"/>
      <line x1="195.965" y1="1528.930" x2="195.965" y2="1525.229"/>
      <line x1="196.965" y1="1528.930" x2="196.965" y2="1525.229"/>
      <line x1="197.965" y1="1528.930" x2="197.965" y2="1525.229"/>
      <line x1="199.965" y1="1528.930" x2="199.965" y2="1525.229"/>
      <line x1="200.965" y1="1528.930" x2="200.965" y2="1525.229"/>
      <line x1="201.965" y1="1528.930" x2="201.965" y2="1525.229"/>
      <line x1="202.965" y1="1528.930" x2="202.965" y2="1525.229"/>
      <line x1="203.965" y1="1528.930" x2="203.965" y2="1525.229"/>
      <line x1="204.965" y1="1528.930" x2="204.965" y2="1525.229"/>
      <line x1="205.965" y1="1528.930" x2="205.965" y2="1525.229"/>
      <line x1="206.965" y1="1528.930" x2="206.965" y2="1525.229"/>
      <line x1="207.965" y1="1528.930" x2="207.965" y2="1525.229"/>
      <line x1="208.965" y1="1528.930" x2="208.965" y2="1525.229"/>
      <line x1="209.965" y1="1528.930" x2="209.965" y2="1525.229"/>
      <line x1="210.965" y1="1528.930" x2="210.965" y2="1525.229"/>
      <line x1="211.965" y1="1528.930" x2="211.965" y2="1525.229"/>
      <line x1="227.965" y1="1528.930" x2="227.965" y2="1525.229"/>
      <line x1="228.965" y1="1528.930" x2="228.965" y2="1525.229"/>
      <line x1="229.965" y1="1528.930" x2="229.965" y2="1525.229"/>
      <line x1="230.965" y1="1528.930" x2="230.965" y2="1525.229"/>
      <line x1="231.965" y1="1528.930" x2="231.965" y2="1525.229"/>
      <line x1="232.965" y1="1528.930" x2="232.965" y2="1525.229"/>
      <line x1="233.965" y1="1528.930" x2="233.965" y2="1525.229"/>
      <line x1="234.965" y1="1528.930" x2="234.965" y2="1525.229"/>
      <line x1="235.965" y1="1528.930" x2="235.965" y2="1525.229"/>
      <line x1="236.965" y1="1528.930" x2="236.965" y2="1525.229"/>
      <line x1="237.965" y1="1528.930" x2="237.965" y2="1525.229"/>
      <line x1="238.965" y1="1528.930" x2="238.965" y2="1525.229"/>
      <line x1="239.965" y1="1528.930" x2="239.965" y2="1525.229"/>
      <line x1="240.965" y1="1528.930" x2="240.965" y2="1525.229"/>
      <line x1="241.965" y1="1528.930" x2="241.965" y2="1525.229"/>
      <line x1="270.965" y1="1528.930" x2="270.965" y2="1525.229"/>
      <line x1="271.965" y1="1528.930" x2="271.965" y2="1525.229"/>
      <line x1="272.965" y1="1528.930" x2="272.965" y2="1525.229"/>
      <line x1="273.965" y1="1528.930" x2="273.965" y2="1525.229"/>
      <line x1="274.965" y1="1528.930" x2="274.965" y2="1525.229"/>
      <line x1="275.965" y1="1528.930" x2="275.965" y2="1525.229"/>
      <line x1="276.965" y1="1528.930" x2="276.965" y2="1525.229"/>
      <line x1="269.965" y1="1528.930" x2="269.965" y2="1525.229"/>
      <line x1="255.965" y1="1528.930" x2="255.965" y2="1525.229"/>
      <line x1="242.965" y1="1528.930" x2="242.965" y2="1525.229"/>
      <line x1="243.965" y1="1528.930" x2="243.965" y2="1525.229"/>
      <line x1="244.965" y1="1528.930" x2="244.965" y2="1525.229"/>
      <line x1="245.965" y1="1528.930" x2="245.965" y2="1525.229"/>
      <line x1="246.965" y1="1528.930" x2="246.965" y2="1525.229"/>
      <line x1="247.965" y1="1528.930" x2="247.965" y2="1525.229"/>
      <line x1="248.965" y1="1528.930" x2="248.965" y2="1525.229"/>
      <line x1="249.965" y1="1528.930" x2="249.965" y2="1525.229"/>
      <line x1="250.965" y1="1528.930" x2="250.965" y2="1525.229"/>
      <line x1="251.965" y1="1528.930" x2="251.965" y2="1525.229"/>
      <line x1="252.965" y1="1528.930" x2="252.965" y2="1525.229"/>
      <line x1="253.965" y1="1528.930" x2="253.965" y2="1525.229"/>
      <line x1="254.965" y1="1528.930" x2="254.965" y2="1525.229"/>
      <line x1="256.965" y1="1528.930" x2="256.965" y2="1525.229"/>
      <line x1="257.965" y1="1528.930" x2="257.965" y2="1525.229"/>
      <line x1="258.965" y1="1528.930" x2="258.965" y2="1525.229"/>
      <line x1="259.965" y1="1528.930" x2="259.965" y2="1525.229"/>
      <line x1="260.965" y1="1528.930" x2="260.965" y2="1525.229"/>
      <line x1="261.965" y1="1528.930" x2="261.965" y2="1525.229"/>
      <line x1="262.965" y1="1528.930" x2="262.965" y2="1525.229"/>
      <line x1="263.965" y1="1528.930" x2="263.965" y2="1525.229"/>
      <line x1="264.965" y1="1528.930" x2="264.965" y2="1525.229"/>
      <line x1="265.965" y1="1528.930" x2="265.965" y2="1525.229"/>
      <line x1="266.965" y1="1528.930" x2="266.965" y2="1525.229"/>
      <line x1="267.965" y1="1528.930" x2="267.965" y2="1525.229"/>
      <line x1="268.965" y1="1528.930" x2="268.965" y2="1525.229"/>
      <line x1="326.965" y1="1528.930" x2="326.965" y2="1525.229"/>
      <line x1="312.965" y1="1528.930" x2="312.965" y2="1525.229"/>
      <line x1="299.965" y1="1528.930" x2="299.965" y2="1525.229"/>
      <line x1="300.965" y1="1528.930" x2="300.965" y2="1525.229"/>
      <line x1="301.965" y1="1528.930" x2="301.965" y2="1525.229"/>
      <line x1="302.965" y1="1528.930" x2="302.965" y2="1525.229"/>
      <line x1="303.965" y1="1528.930" x2="303.965" y2="1525.229"/>
      <line x1="304.965" y1="1528.930" x2="304.965" y2="1525.229"/>
      <line x1="305.965" y1="1528.930" x2="305.965" y2="1525.229"/>
      <line x1="306.965" y1="1528.930" x2="306.965" y2="1525.229"/>
      <line x1="307.965" y1="1528.930" x2="307.965" y2="1525.229"/>
      <line x1="308.965" y1="1528.930" x2="308.965" y2="1525.229"/>
      <line x1="309.965" y1="1528.930" x2="309.965" y2="1525.229"/>
      <line x1="310.965" y1="1528.930" x2="310.965" y2="1525.229"/>
      <line x1="311.965" y1="1528.930" x2="311.965" y2="1525.229"/>
      <line x1="313.965" y1="1528.930" x2="313.965" y2="1525.229"/>
      <line x1="314.965" y1="1528.930" x2="314.965" y2="1525.229"/>
      <line x1="315.965" y1="1528.930" x2="315.965" y2="1525.229"/>
      <line x1="316.965" y1="1528.930" x2="316.965" y2="1525.229"/>
      <line x1="317.965" y1="1528.930" x2="317.965" y2="1525.229"/>
      <line x1="318.965" y1="1528.930" x2="318.965" y2="1525.229"/>
      <line x1="319.965" y1="1528.930" x2="319.965" y2="1525.229"/>
      <line x1="320.965" y1="1528.930" x2="320.965" y2="1525.229"/>
      <line x1="321.965" y1="1528.930" x2="321.965" y2="1525.229"/>
      <line x1="322.965" y1="1528.930" x2="322.965" y2="1525.229"/>
      <line x1="323.965" y1="1528.930" x2="323.965" y2="1525.229"/>
      <line x1="324.965" y1="1528.930" x2="324.965" y2="1525.229"/>
      <line x1="325.965" y1="1528.930" x2="325.965" y2="1525.229"/>
      <line x1="284.965" y1="1528.930" x2="284.965" y2="1525.229"/>
      <line x1="277.965" y1="1528.930" x2="277.965" y2="1525.229"/>
      <line x1="278.965" y1="1528.930" x2="278.965" y2="1525.229"/>
      <line x1="279.965" y1="1528.930" x2="279.965" y2="1525.229"/>
      <line x1="280.965" y1="1528.930" x2="280.965" y2="1525.229"/>
      <line x1="281.965" y1="1528.930" x2="281.965" y2="1525.229"/>
      <line x1="282.965" y1="1528.930" x2="282.965" y2="1525.229"/>
      <line x1="283.965" y1="1528.930" x2="283.965" y2="1525.229"/>
      <line x1="285.965" y1="1528.930" x2="285.965" y2="1525.229"/>
      <line x1="286.965" y1="1528.930" x2="286.965" y2="1525.229"/>
      <line x1="287.965" y1="1528.930" x2="287.965" y2="1525.229"/>
      <line x1="288.965" y1="1528.930" x2="288.965" y2="1525.229"/>
      <line x1="289.965" y1="1528.930" x2="289.965" y2="1525.229"/>
      <line x1="290.965" y1="1528.930" x2="290.965" y2="1525.229"/>
      <line x1="291.965" y1="1528.930" x2="291.965" y2="1525.229"/>
      <line x1="292.965" y1="1528.930" x2="292.965" y2="1525.229"/>
      <line x1="293.965" y1="1528.930" x2="293.965" y2="1525.229"/>
      <line x1="294.965" y1="1528.930" x2="294.965" y2="1525.229"/>
      <line x1="295.965" y1="1528.930" x2="295.965" y2="1525.229"/>
      <line x1="296.965" y1="1528.930" x2="296.965" y2="1525.229"/>
      <line x1="297.965" y1="1528.930" x2="297.965" y2="1525.229"/>
      <line x1="298.965" y1="1528.930" x2="298.965" y2="1525.229"/>
      <line x1="341.965" y1="1528.930" x2="341.965" y2="1525.229"/>
      <line x1="327.965" y1="1528.930" x2="327.965" y2="1525.229"/>
      <line x1="328.965" y1="1528.930" x2="328.965" y2="1525.229"/>
      <line x1="329.965" y1="1528.930" x2="329.965" y2="1525.229"/>
      <line x1="330.965" y1="1528.930" x2="330.965" y2="1525.229"/>
      <line x1="331.965" y1="1528.930" x2="331.965" y2="1525.229"/>
      <line x1="332.965" y1="1528.930" x2="332.965" y2="1525.229"/>
      <line x1="333.965" y1="1528.930" x2="333.965" y2="1525.229"/>
      <line x1="334.965" y1="1528.930" x2="334.965" y2="1525.229"/>
      <line x1="335.965" y1="1528.930" x2="335.965" y2="1525.229"/>
      <line x1="336.965" y1="1528.930" x2="336.965" y2="1525.229"/>
      <line x1="337.965" y1="1528.930" x2="337.965" y2="1525.229"/>
      <line x1="338.965" y1="1528.930" x2="338.965" y2="1525.229"/>
      <line x1="339.965" y1="1528.930" x2="339.965" y2="1525.229"/>
      <line x1="340.965" y1="1528.930" x2="340.965" y2="1525.229"/>
      <line x1="342.965" y1="1528.930" x2="342.965" y2="1525.229"/>
      <line x1="343.965" y1="1528.930" x2="343.965" y2="1525.229"/>
      <line x1="344.965" y1="1528.930" x2="344.965" y2="1525.229"/>
      <line x1="345.965" y1="1528.930" x2="345.965" y2="1525.229"/>
      <line x1="346.965" y1="1528.930" x2="346.965" y2="1525.229"/>
      <line x1="347.965" y1="1528.930" x2="347.965" y2="1525.229"/>
      <line x1="348.965" y1="1528.930" x2="348.965" y2="1525.229"/>
      <line x1="349.965" y1="1528.930" x2="349.965" y2="1525.229"/>
      <line x1="350.965" y1="1528.930" x2="350.965" y2="1525.229"/>
      <line x1="351.965" y1="1528.930" x2="351.965" y2="1525.229"/>
      <line x1="352.965" y1="1528.930" x2="352.965" y2="1525.229"/>
      <line x1="353.965" y1="1528.930" x2="353.965" y2="1525.229"/>
      <line x1="354.965" y1="1528.930" x2="354.965" y2="1525.229"/>
      <line x1="355.965" y1="1528.930" x2="355.965" y2="1525.229"/>
      <line x1="369.965" y1="1528.930" x2="369.965" y2="1525.229"/>
      <line x1="356.965" y1="1528.930" x2="356.965" y2="1525.229"/>
      <line x1="357.965" y1="1528.930" x2="357.965" y2="1525.229"/>
      <line x1="358.965" y1="1528.930" x2="358.965" y2="1525.229"/>
      <line x1="359.965" y1="1528.930" x2="359.965" y2="1525.229"/>
      <line x1="360.965" y1="1528.930" x2="360.965" y2="1525.229"/>
      <line x1="361.965" y1="1528.930" x2="361.965" y2="1525.229"/>
      <line x1="362.965" y1="1528.930" x2="362.965" y2="1525.229"/>
      <line x1="363.965" y1="1528.930" x2="363.965" y2="1525.229"/>
      <line x1="364.965" y1="1528.930" x2="364.965" y2="1525.229"/>
      <line x1="365.965" y1="1528.930" x2="365.965" y2="1525.229"/>
      <line x1="366.965" y1="1528.930" x2="366.965" y2="1525.229"/>
      <line x1="367.965" y1="1528.930" x2="367.965" y2="1525.229"/>
      <line x1="368.965" y1="1528.930" x2="368.965" y2="1525.229"/>
      <line x1="370.965" y1="1528.930" x2="370.965" y2="1525.229"/>
      <line x1="371.965" y1="1528.930" x2="371.965" y2="1525.229"/>
      <line x1="372.965" y1="1528.930" x2="372.965" y2="1525.229"/>
      <line x1="373.965" y1="1528.930" x2="373.965" y2="1525.229"/>
      <line x1="374.965" y1="1528.930" x2="374.965" y2="1525.229"/>
      <line x1="375.965" y1="1528.930" x2="375.965" y2="1525.229"/>
      <line x1="376.965" y1="1528.930" x2="376.965" y2="1525.229"/>
      <line x1="422.965" y1="1528.930" x2="422.965" y2="1525.229"/>
      <line x1="426.965" y1="1528.930" x2="426.965" y2="1525.229"/>
      <line x1="425.965" y1="1528.930" x2="425.965" y2="1525.229"/>
      <line x1="424.965" y1="1528.930" x2="424.965" y2="1525.229"/>
      <line x1="423.965" y1="1528.930" x2="423.965" y2="1525.229"/>
      <line x1="421.965" y1="1528.930" x2="421.965" y2="1525.229"/>
      <line x1="420.965" y1="1528.930" x2="420.965" y2="1525.229"/>
      <line x1="419.965" y1="1528.930" x2="419.965" y2="1525.229"/>
      <line x1="418.965" y1="1528.930" x2="418.965" y2="1525.229"/>
      <line x1="417.965" y1="1528.930" x2="417.965" y2="1525.229"/>
      <line x1="415.965" y1="1528.930" x2="415.965" y2="1525.229"/>
      <line x1="412.965" y1="1528.930" x2="412.965" y2="1525.229"/>
      <line x1="416.965" y1="1528.930" x2="416.965" y2="1525.229"/>
      <line x1="414.965" y1="1528.930" x2="414.965" y2="1525.229"/>
      <line x1="411.965" y1="1528.930" x2="411.965" y2="1525.229"/>
      <line x1="413.965" y1="1528.930" x2="413.965" y2="1525.229"/>
      <line x1="398.965" y1="1528.930" x2="398.965" y2="1525.229"/>
      <line x1="384.965" y1="1528.930" x2="384.965" y2="1525.229"/>
      <line x1="385.965" y1="1528.930" x2="385.965" y2="1525.229"/>
      <line x1="386.965" y1="1528.930" x2="386.965" y2="1525.229"/>
      <line x1="387.965" y1="1528.930" x2="387.965" y2="1525.229"/>
      <line x1="388.965" y1="1528.930" x2="388.965" y2="1525.229"/>
      <line x1="389.965" y1="1528.930" x2="389.965" y2="1525.229"/>
      <line x1="390.965" y1="1528.930" x2="390.965" y2="1525.229"/>
      <line x1="391.965" y1="1528.930" x2="391.965" y2="1525.229"/>
      <line x1="392.965" y1="1528.930" x2="392.965" y2="1525.229"/>
      <line x1="393.965" y1="1528.930" x2="393.965" y2="1525.229"/>
      <line x1="394.965" y1="1528.930" x2="394.965" y2="1525.229"/>
      <line x1="395.965" y1="1528.930" x2="395.965" y2="1525.229"/>
      <line x1="396.965" y1="1528.930" x2="396.965" y2="1525.229"/>
      <line x1="397.965" y1="1528.930" x2="397.965" y2="1525.229"/>
      <line x1="383.965" y1="1528.930" x2="383.965" y2="1525.229"/>
      <line x1="399.965" y1="1528.930" x2="399.965" y2="1525.229"/>
      <line x1="400.965" y1="1528.930" x2="400.965" y2="1525.229"/>
      <line x1="401.965" y1="1528.930" x2="401.965" y2="1525.229"/>
      <line x1="402.965" y1="1528.930" x2="402.965" y2="1525.229"/>
      <line x1="403.965" y1="1528.930" x2="403.965" y2="1525.229"/>
      <line x1="404.965" y1="1528.930" x2="404.965" y2="1525.229"/>
      <line x1="405.965" y1="1528.930" x2="405.965" y2="1525.229"/>
      <line x1="406.965" y1="1528.930" x2="406.965" y2="1525.229"/>
      <line x1="407.965" y1="1528.930" x2="407.965" y2="1525.229"/>
      <line x1="408.965" y1="1528.930" x2="408.965" y2="1525.229"/>
      <line x1="409.965" y1="1528.930" x2="409.965" y2="1525.229"/>
      <line x1="410.965" y1="1528.930" x2="410.965" y2="1525.229"/>
      <line x1="377.965" y1="1528.930" x2="377.965" y2="1525.229"/>
      <line x1="378.965" y1="1528.930" x2="378.965" y2="1525.229"/>
      <line x1="379.965" y1="1528.930" x2="379.965" y2="1525.229"/>
      <line x1="380.965" y1="1528.930" x2="380.965" y2="1525.229"/>
      <line x1="381.965" y1="1528.930" x2="381.965" y2="1525.229"/>
      <line x1="382.965" y1="1528.930" x2="382.965" y2="1525.229"/>
      <line x1="430.965" y1="1528.930" x2="430.965" y2="1525.229"/>
      <line x1="439.965" y1="1528.930" x2="439.965" y2="1525.229"/>
      <line x1="438.965" y1="1528.930" x2="438.965" y2="1525.229"/>
      <line x1="437.965" y1="1528.930" x2="437.965" y2="1525.229"/>
      <line x1="436.965" y1="1528.930" x2="436.965" y2="1525.229"/>
      <line x1="435.965" y1="1528.930" x2="435.965" y2="1525.229"/>
      <line x1="434.965" y1="1528.930" x2="434.965" y2="1525.229"/>
      <line x1="433.965" y1="1528.930" x2="433.965" y2="1525.229"/>
      <line x1="432.965" y1="1528.930" x2="432.965" y2="1525.229"/>
      <line x1="431.965" y1="1528.930" x2="431.965" y2="1525.229"/>
      <line x1="458.965" y1="1528.930" x2="458.965" y2="1525.229"/>
      <line x1="429.965" y1="1528.930" x2="429.965" y2="1525.229"/>
      <line x1="428.965" y1="1528.930" x2="428.965" y2="1525.229"/>
      <line x1="441.965" y1="1528.930" x2="441.965" y2="1525.229"/>
      <line x1="457.965" y1="1528.930" x2="457.965" y2="1525.229"/>
      <line x1="456.965" y1="1528.930" x2="456.965" y2="1525.229"/>
      <line x1="455.965" y1="1528.930" x2="455.965" y2="1525.229"/>
      <line x1="454.965" y1="1528.930" x2="454.965" y2="1525.229"/>
      <line x1="453.965" y1="1528.930" x2="453.965" y2="1525.229"/>
      <line x1="452.965" y1="1528.930" x2="452.965" y2="1525.229"/>
      <line x1="451.965" y1="1528.930" x2="451.965" y2="1525.229"/>
      <line x1="450.965" y1="1528.930" x2="450.965" y2="1525.229"/>
      <line x1="448.965" y1="1528.930" x2="448.965" y2="1525.229"/>
      <line x1="440.965" y1="1528.930" x2="440.965" y2="1525.229"/>
      <line x1="442.965" y1="1528.930" x2="442.965" y2="1525.229"/>
      <line x1="443.965" y1="1528.930" x2="443.965" y2="1525.229"/>
      <line x1="444.965" y1="1528.930" x2="444.965" y2="1525.229"/>
      <line x1="446.965" y1="1528.930" x2="446.965" y2="1525.229"/>
      <line x1="449.965" y1="1528.930" x2="449.965" y2="1525.229"/>
      <line x1="447.965" y1="1528.930" x2="447.965" y2="1525.229"/>
      <line x1="445.965" y1="1528.930" x2="445.965" y2="1525.229"/>
      <line x1="459.965" y1="1528.930" x2="459.965" y2="1525.229"/>
      <line x1="468.965" y1="1528.930" x2="468.965" y2="1525.229"/>
      <line x1="470.965" y1="1528.930" x2="470.965" y2="1525.229"/>
      <line x1="471.965" y1="1528.930" x2="471.965" y2="1525.229"/>
      <line x1="460.965" y1="1528.930" x2="460.965" y2="1525.229"/>
      <line x1="461.965" y1="1528.930" x2="461.965" y2="1525.229"/>
      <line x1="462.965" y1="1528.930" x2="462.965" y2="1525.229"/>
      <line x1="463.965" y1="1528.930" x2="463.965" y2="1525.229"/>
      <line x1="464.965" y1="1528.930" x2="464.965" y2="1525.229"/>
      <line x1="465.965" y1="1528.930" x2="465.965" y2="1525.229"/>
      <line x1="469.965" y1="1528.930" x2="469.965" y2="1525.229"/>
      <line x1="466.965" y1="1528.930" x2="466.965" y2="1525.229"/>
      <line x1="467.965" y1="1528.930" x2="467.965" y2="1525.229"/>
    </g>
    <g stroke="#1976D2" stroke-width="0.4">
      <polyline points="476.094,1521.729 123.906,1521.729 123.906,1682.729 476.094,1682.729 476.094,1521.729" fill="none"/>
      <polyline points="475.094,1522.729 124.906,1522.729 124.906,1681.730 475.094,1681.730 475.094,1522.729" fill="none"/>
      <polyline points="474.094,1523.729 125.906,1523.729 125.906,1680.730 474.094,1680.730 474.094,1523.729" fill="none"/>
      <polyline points="473.094,1524.729 126.906,1524.729 126.906,1679.729 473.094,1679.729 473.094,1524.729" fill="none"/>
    </g>
    <g stroke="#C62828" stroke-width="0.4" fill="none">
    </g>
    <g stroke="#EF6C00" stroke-width="0.4" fill="none">
    </g>
  </g>
  <g stroke="#000000" stroke-width="0.4">
    <line x1="500.000" y1="1000.000" x2="1500.000" y2="1000.000"/>
  </g>
  <g stroke="#000000" stroke-width="0.4">
    <line x1="1000.000" y1="500.000" x2="1000.000" y2="1500.000"/>
  </g>
  <circle cx="1000.000" cy="1000.000" r="1000.000" stroke="red" stroke-width="1" fill="none"/>
  </g>
</svg>
