<?xml version="1.0" encoding="UTF-8"?>
<svg xmlns="http://www.w3.org/2000/svg" version="1.1" width="2000" height="2000">
  <g fill="none" stroke-linecap="round" stroke-linejoin="round">
  <text x="10" y="20" font-size="24" fill="#555">Layer 223 Z=56.600 mm</text>
  <g transform="translate(700.000,-602.229)">
    <g stroke="#2E7D32" stroke-width="0.4">
      <line x1="504.802" y1="1629.251" x2="454.802" y2="1629.251"/>
      <line x1="504.802" y1="1630.251" x2="454.802" y2="1630.251"/>
      <line x1="504.802" y1="1631.251" x2="454.802" y2="1631.251"/>
      <line x1="504.802" y1="1632.251" x2="454.802" y2="1632.251"/>
      <line x1="504.802" y1="1633.251" x2="454.802" y2="1633.251"/>
      <line x1="504.802" y1="1634.251" x2="454.802" y2="1634.251"/>
      <line x1="504.802" y1="1635.251" x2="454.802" y2="1635.251"/>
      <line x1="504.802" y1="1636.251" x2="454.802" y2="1636.251"/>
      <line x1="504.802" y1="1637.251" x2="454.802" y2="1637.251"/>
      <line x1="504.802" y1="1638.251" x2="454.802" y2="1638.251"/>
      <line x1="504.802" y1="1639.251" x2="454.802" y2="1639.251"/>
      <line x1="504.802" y1="1640.251" x2="454.802" y2="1640.251"/>
      <line x1="504.802" y1="1641.251" x2="454.802" y2="1641.251"/>
      <line x1="504.802" y1="1642.251" x2="454.802" y2="1642.251"/>
      <line x1="504.802" y1="1643.251" x2="454.802" y2="1643.251"/>
      <line x1="504.802" y1="1644.251" x2="454.802" y2="1644.251"/>
      <line x1="504.802" y1="1645.251" x2="454.802" y2="1645.251"/>
      <line x1="504.802" y1="1646.251" x2="454.802" y2="1646.251"/>
      <line x1="504.802" y1="1647.251" x2="454.802" y2="1647.251"/>
      <line x1="504.802" y1="1648.251" x2="454.802" y2="1648.251"/>
      <line x1="504.802" y1="1649.251" x2="454.802" y2="1649.251"/>
      <line x1="504.802" y1="1650.251" x2="454.802" y2="1650.251"/>
      <line x1="504.802" y1="1651.251" x2="454.802" y2="1651.251"/>
      <line x1="504.802" y1="1652.251" x2="454.802" y2="1652.251"/>
      <line x1="504.802" y1="1653.251" x2="454.802" y2="1653.251"/>
      <line x1="504.802" y1="1654.251" x2="454.802" y2="1654.251"/>
      <line x1="504.802" y1="1655.251" x2="454.802" y2="1655.251"/>
      <line x1="504.802" y1="1656.251" x2="454.802" y2="1656.251"/>
      <line x1="504.802" y1="1657.251" x2="454.802" y2="1657.251"/>
      <line x1="504.802" y1="1658.251" x2="454.802" y2="1658.251"/>
      <line x1="504.802" y1="1659.251" x2="454.802" y2="1659.251"/>
      <line x1="504.802" y1="1660.251" x2="454.802" y2="1660.251"/>
      <line x1="504.802" y1="1661.251" x2="454.802" y2="1661.251"/>
      <line x1="504.802" y1="1662.251" x2="454.802" y2="1662.251"/>
      <line x1="504.802" y1="1663.251" x2="454.802" y2="1663.251"/>
      <line x1="504.802" y1="1664.251" x2="454.802" y2="1664.251"/>
      <line x1="504.802" y1="1665.251" x2="454.802" y2="1665.251"/>
      <line x1="504.802" y1="1666.251" x2="454.802" y2="1666.251"/>
      <line x1="504.802" y1="1667.251" x2="454.802" y2="1667.251"/>
      <line x1="504.802" y1="1668.251" x2="454.802" y2="1668.251"/>
      <line x1="504.802" y1="1669.251" x2="454.802" y2="1669.251"/>
      <line x1="504.802" y1="1670.251" x2="454.802" y2="1670.251"/>
      <line x1="504.802" y1="1671.251" x2="454.802" y2="1671.251"/>
      <line x1="504.802" y1="1672.251" x2="454.802" y2="1672.251"/>
      <line x1="504.802" y1="1673.251" x2="454.802" y2="1673.251"/>
      <line x1="504.802" y1="1674.251" x2="454.802" y2="1674.251"/>
      <line x1="504.802" y1="1675.251" x2="454.802" y2="1675.251"/>
      <line x1="504.802" y1="1676.251" x2="454.802" y2="1676.251"/>
      <line x1="504.802" y1="1677.251" x2="454.802" y2="1677.251"/>
      <line x1="504.802" y1="1678.251" x2="454.802" y2="1678.251"/>
      <line x1="554.902" y1="1629.251" x2="504.902" y2="1629.251"/>
      <line x1="554.902" y1="1630.251" x2="504.902" y2="1630.251"/>
      <line x1="554.902" y1="1631.251" x2="504.902" y2="1631.251"/>
      <line x1="554.902" y1="1632.251" x2="504.902" y2="1632.251"/>
      <line x1="554.902" y1="1633.251" x2="504.902" y2="1633.251"/>
      <line x1="554.902" y1="1634.251" x2="504.902" y2="1634.251"/>
      <line x1="554.902" y1="1635.251" x2="504.902" y2="1635.251"/>
      <line x1="554.902" y1="1636.251" x2="504.902" y2="1636.251"/>
      <line x1="554.902" y1="1637.251" x2="504.902" y2="1637.251"/>
      <line x1="554.902" y1="1638.251" x2="504.902" y2="1638.251"/>
      <line x1="554.902" y1="1639.251" x2="504.902" y2="1639.251"/>
      <line x1="554.902" y1="1640.251" x2="504.902" y2="1640.251"/>
      <line x1="554.902" y1="1641.251" x2="504.902" y2="1641.251"/>
      <line x1="554.902" y1="1642.251" x2="504.902" y2="1642.251"/>
      <line x1="554.902" y1="1643.251" x2="504.902" y2="1643.251"/>
      <line x1="554.902" y1="1644.251" x2="504.902" y2="1644.251"/>
      <line x1="554.902" y1="1645.251" x2="504.902" y2="1645.251"/>
      <line x1="554.902" y1="1646.251" x2="504.902" y2="1646.251"/>
      <line x1="554.902" y1="1647.251" x2="504.902" y2="1647.251"/>
      <line x1="554.902" y1="1648.251" x2="504.902" y2="1648.251"/>
      <line x1="554.902" y1="1649.251" x2="504.902" y2="1649.251"/>
      <line x1="554.902" y1="1650.251" x2="504.902" y2="1650.251"/>
      <line x1="554.902" y1="1651.251" x2="504.902" y2="1651.251"/>
      <line x1="554.902" y1="1652.251" x2="504.902" y2="1652.251"/>
      <line x1="554.902" y1="1653.251" x2="504.902" y2="1653.251"/>
      <line x1="554.902" y1="1654.251" x2="504.902" y2="1654.251"/>
      <line x1="554.902" y1="1655.251" x2="504.902" y2="1655.251"/>
      <line x1="554.902" y1="1656.251" x2="504.902" y2="1656.251"/>
      <line x1="554.902" y1="1657.251" x2="504.902" y2="1657.251"/>
      <line x1="554.902" y1="1658.251" x2="504.902" y2="1658.251"/>
      <line x1="554.902" y1="1659.251" x2="504.902" y2="1659.251"/>
      <line x1="554.902" y1="1660.251" x2="504.902" y2="1660.251"/>
      <line x1="554.902" y1="1661.251" x2="504.902" y2="1661.251"/>
      <line x1="554.902" y1="1662.251" x2="504.902" y2="1662.251"/>
      <line x1="554.902" y1="1663.251" x2="504.902" y2="1663.251"/>
      <line x1="554.902" y1="1664.251" x2="504.902" y2="1664.251"/>
      <line x1="554.902" y1="1665.251" x2="504.902" y2="1665.251"/>
      <line x1="554.902" y1="1666.251" x2="504.902" y2="1666.251"/>
      <line x1="554.902" y1="1667.251" x2="504.902" y2="1667.251"/>
      <line x1="554.902" y1="1668.251" x2="504.902" y2="1668.251"/>
      <line x1="554.902" y1="1669.251" x2="504.902" y2="1669.251"/>
      <line x1="554.902" y1="1670.251" x2="504.902" y2="1670.251"/>
      <line x1="554.902" y1="1671.251" x2="504.902" y2="1671.251"/>
      <line x1="554.902" y1="1672.251" x2="504.902" y2="1672.251"/>
      <line x1="554.902" y1="1673.251" x2="504.902" y2="1673.251"/>
      <line x1="554.902" y1="1674.251" x2="504.902" y2="1674.251"/>
      <line x1="554.902" y1="1675.251" x2="504.902" y2="1675.251"/>
      <line x1="554.902" y1="1676.251" x2="504.902" y2="1676.251"/>
      <line x1="554.902" y1="1677.251" x2="504.902" y2="1677.251"/>
      <line x1="554.902" y1="1678.251" x2="504.902" y2="1678.251"/>
      <line x1="583.989" y1="1629.251" x2="555.002" y2="1629.251"/>
      <line x1="583.989" y1="1630.251" x2="555.002" y2="1630.251"/>
      <line x1="583.989" y1="1631.251" x2="555.002" y2="1631.251"/>
      <line x1="583.989" y1="1632.251" x2="555.002" y2="1632.251"/>
      <line x1="583.989" y1="1633.251" x2="555.002" y2="1633.251"/>
      <line x1="583.989" y1="1634.251" x2="555.002" y2="1634.251"/>
      <line x1="583.989" y1="1635.251" x2="555.002" y2="1635.251"/>
      <line x1="583.989" y1="1636.251" x2="555.002" y2="1636.251"/>
      <line x1="583.989" y1="1637.251" x2="555.002" y2="1637.251"/>
      <line x1="583.989" y1="1638.251" x2="555.002" y2="1638.251"/>
      <line x1="583.989" y1="1639.251" x2="555.002" y2="1639.251"/>
      <line x1="583.989" y1="1640.251" x2="555.002" y2="1640.251"/>
      <line x1="583.989" y1="1641.251" x2="555.002" y2="1641.251"/>
      <line x1="583.989" y1="1642.251" x2="555.002" y2="1642.251"/>
      <line x1="583.989" y1="1643.251" x2="555.002" y2="1643.251"/>
      <line x1="583.989" y1="1644.251" x2="555.002" y2="1644.251"/>
      <line x1="583.989" y1="1645.251" x2="555.002" y2="1645.251"/>
      <line x1="583.989" y1="1646.251" x2="555.002" y2="1646.251"/>
      <line x1="583.989" y1="1647.251" x2="555.002" y2="1647.251"/>
      <line x1="583.989" y1="1648.251" x2="555.002" y2="1648.251"/>
      <line x1="583.989" y1="1649.251" x2="555.002" y2="1649.251"/>
      <line x1="583.989" y1="1650.251" x2="555.002" y2="1650.251"/>
      <line x1="583.989" y1="1651.251" x2="555.002" y2="1651.251"/>
      <line x1="583.989" y1="1652.251" x2="555.002" y2="1652.251"/>
      <line x1="583.989" y1="1653.251" x2="555.002" y2="1653.251"/>
      <line x1="583.989" y1="1654.251" x2="555.002" y2="1654.251"/>
      <line x1="583.989" y1="1655.251" x2="555.002" y2="1655.251"/>
      <line x1="583.989" y1="1656.251" x2="555.002" y2="1656.251"/>
      <line x1="583.989" y1="1657.251" x2="555.002" y2="1657.251"/>
      <line x1="583.989" y1="1658.251" x2="555.002" y2="1658.251"/>
      <line x1="583.989" y1="1659.251" x2="555.002" y2="1659.251"/>
      <line x1="583.989" y1="1660.251" x2="555.002" y2="1660.251"/>
      <line x1="583.989" y1="1661.251" x2="555.002" y2="1661.251"/>
      <line x1="583.989" y1="1662.251" x2="555.002" y2="1662.251"/>
      <line x1="583.989" y1="1663.251" x2="555.002" y2="1663.251"/>
      <line x1="583.989" y1="1664.251" x2="555.002" y2="1664.251"/>
      <line x1="583.989" y1="1665.251" x2="555.002" y2="1665.251"/>
      <line x1="583.989" y1="1666.251" x2="555.002" y2="1666.251"/>
      <line x1="583.989" y1="1667.251" x2="555.002" y2="1667.251"/>
      <line x1="583.989" y1="1668.251" x2="555.002" y2="1668.251"/>
      <line x1="583.989" y1="1669.251" x2="555.002" y2="1669.251"/>
      <line x1="583.989" y1="1670.251" x2="555.002" y2="1670.251"/>
      <line x1="583.989" y1="1671.251" x2="555.002" y2="1671.251"/>
      <line x1="583.989" y1="1672.251" x2="555.002" y2="1672.251"/>
      <line x1="583.989" y1="1673.251" x2="555.002" y2="1673.251"/>
      <line x1="583.989" y1="1674.251" x2="555.002" y2="1674.251"/>
      <line x1="583.989" y1="1675.251" x2="555.002" y2="1675.251"/>
      <line x1="583.989" y1="1676.251" x2="555.002" y2="1676.251"/>
      <line x1="583.989" y1="1677.251" x2="555.002" y2="1677.251"/>
      <line x1="583.989" y1="1678.251" x2="555.002" y2="1678.251"/>
      <line x1="504.802" y1="1579.251" x2="454.802" y2="1579.251"/>
      <line x1="504.802" y1="1580.251" x2="454.802" y2="1580.251"/>
      <line x1="504.802" y1="1581.251" x2="454.802" y2="1581.251"/>
      <line x1="504.802" y1="1582.251" x2="454.802" y2="1582.251"/>
      <line x1="504.802" y1="1583.251" x2="454.802" y2="1583.251"/>
      <line x1="504.802" y1="1584.251" x2="454.802" y2="1584.251"/>
      <line x1="504.802" y1="1585.251" x2="454.802" y2="1585.251"/>
      <line x1="504.802" y1="1586.251" x2="454.802" y2="1586.251"/>
      <line x1="504.802" y1="1587.251" x2="454.802" y2="1587.251"/>
      <line x1="504.802" y1="1588.251" x2="454.802" y2="1588.251"/>
      <line x1="504.802" y1="1589.251" x2="454.802" y2="1589.251"/>
      <line x1="504.802" y1="1590.251" x2="454.802" y2="1590.251"/>
      <line x1="504.802" y1="1591.251" x2="454.802" y2="1591.251"/>
      <line x1="504.802" y1="1592.251" x2="454.802" y2="1592.251"/>
      <line x1="504.802" y1="1593.251" x2="454.802" y2="1593.251"/>
      <line x1="504.802" y1="1594.251" x2="454.802" y2="1594.251"/>
      <line x1="504.802" y1="1595.251" x2="454.802" y2="1595.251"/>
      <line x1="504.802" y1="1596.251" x2="454.802" y2="1596.251"/>
      <line x1="504.802" y1="1597.251" x2="454.802" y2="1597.251"/>
      <line x1="504.802" y1="1598.251" x2="454.802" y2="1598.251"/>
      <line x1="504.802" y1="1599.251" x2="454.802" y2="1599.251"/>
      <line x1="504.802" y1="1600.251" x2="454.802" y2="1600.251"/>
      <line x1="504.802" y1="1601.251" x2="454.802" y2="1601.251"/>
      <line x1="504.802" y1="1602.251" x2="454.802" y2="1602.251"/>
      <line x1="504.802" y1="1603.251" x2="454.802" y2="1603.251"/>
      <line x1="504.802" y1="1604.251" x2="454.802" y2="1604.251"/>
      <line x1="504.802" y1="1605.251" x2="454.802" y2="1605.251"/>
      <line x1="504.802" y1="1606.251" x2="454.802" y2="1606.251"/>
      <line x1="504.802" y1="1607.251" x2="454.802" y2="1607.251"/>
      <line x1="504.802" y1="1608.251" x2="454.802" y2="1608.251"/>
      <line x1="504.802" y1="1609.251" x2="454.802" y2="1609.251"/>
      <line x1="504.802" y1="1610.251" x2="454.802" y2="1610.251"/>
      <line x1="504.802" y1="1611.251" x2="454.802" y2="1611.251"/>
      <line x1="504.802" y1="1612.251" x2="454.802" y2="1612.251"/>
      <line x1="504.802" y1="1613.251" x2="454.802" y2="1613.251"/>
      <line x1="504.802" y1="1614.251" x2="454.802" y2="1614.251"/>
      <line x1="504.802" y1="1615.251" x2="454.802" y2="1615.251"/>
      <line x1="504.802" y1="1616.251" x2="454.802" y2="1616.251"/>
      <line x1="504.802" y1="1617.251" x2="454.802" y2="1617.251"/>
      <line x1="504.802" y1="1618.251" x2="454.802" y2="1618.251"/>
      <line x1="504.802" y1="1619.251" x2="454.802" y2="1619.251"/>
      <line x1="504.802" y1="1620.251" x2="454.802" y2="1620.251"/>
      <line x1="504.802" y1="1621.251" x2="454.802" y2="1621.251"/>
      <line x1="504.802" y1="1622.251" x2="454.802" y2="1622.251"/>
      <line x1="504.802" y1="1623.251" x2="454.802" y2="1623.251"/>
      <line x1="504.802" y1="1624.251" x2="454.802" y2="1624.251"/>
      <line x1="504.802" y1="1625.251" x2="454.802" y2="1625.251"/>
      <line x1="504.802" y1="1626.251" x2="454.802" y2="1626.251"/>
      <line x1="504.802" y1="1627.251" x2="454.802" y2="1627.251"/>
      <line x1="504.802" y1="1628.251" x2="454.802" y2="1628.251"/>
      <line x1="554.902" y1="1579.251" x2="504.902" y2="1579.251"/>
      <line x1="554.902" y1="1580.251" x2="504.902" y2="1580.251"/>
      <line x1="554.902" y1="1581.251" x2="504.902" y2="1581.251"/>
      <line x1="554.902" y1="1582.251" x2="504.902" y2="1582.251"/>
      <line x1="554.902" y1="1583.251" x2="504.902" y2="1583.251"/>
      <line x1="554.902" y1="1584.251" x2="504.902" y2="1584.251"/>
      <line x1="554.902" y1="1585.251" x2="504.902" y2="1585.251"/>
      <line x1="554.902" y1="1586.251" x2="504.902" y2="1586.251"/>
      <line x1="554.902" y1="1587.251" x2="504.902" y2="1587.251"/>
      <line x1="554.902" y1="1588.251" x2="504.902" y2="1588.251"/>
      <line x1="554.902" y1="1589.251" x2="504.902" y2="1589.251"/>
      <line x1="554.902" y1="1590.251" x2="504.902" y2="1590.251"/>
      <line x1="554.902" y1="1591.251" x2="504.902" y2="1591.251"/>
      <line x1="554.902" y1="1592.251" x2="504.902" y2="1592.251"/>
      <line x1="554.902" y1="1593.251" x2="504.902" y2="1593.251"/>
      <line x1="554.902" y1="1594.251" x2="504.902" y2="1594.251"/>
      <line x1="554.902" y1="1595.251" x2="504.902" y2="1595.251"/>
      <line x1="554.902" y1="1596.251" x2="504.902" y2="1596.251"/>
      <line x1="554.902" y1="1597.251" x2="504.902" y2="1597.251"/>
      <line x1="554.902" y1="1598.251" x2="504.902" y2="1598.251"/>
      <line x1="554.902" y1="1599.251" x2="504.902" y2="1599.251"/>
      <line x1="554.902" y1="1600.251" x2="504.902" y2="1600.251"/>
      <line x1="554.902" y1="1601.251" x2="504.902" y2="1601.251"/>
      <line x1="554.902" y1="1602.251" x2="504.902" y2="1602.251"/>
      <line x1="554.902" y1="1603.251" x2="504.902" y2="1603.251"/>
      <line x1="554.902" y1="1604.251" x2="504.902" y2="1604.251"/>
      <line x1="554.902" y1="1605.251" x2="504.902" y2="1605.251"/>
      <line x1="554.902" y1="1606.251" x2="504.902" y2="1606.251"/>
      <line x1="554.902" y1="1607.251" x2="504.902" y2="1607.251"/>
      <line x1="554.902" y1="1608.251" x2="504.902" y2="1608.251"/>
      <line x1="554.902" y1="1609.251" x2="504.902" y2="1609.251"/>
      <line x1="554.902" y1="1610.251" x2="504.902" y2="1610.251"/>
      <line x1="554.902" y1="1611.251" x2="504.902" y2="1611.251"/>
      <line x1="554.902" y1="1612.251" x2="504.902" y2="1612.251"/>
      <line x1="554.902" y1="1613.251" x2="504.902" y2="1613.251"/>
      <line x1="554.902" y1="1614.251" x2="504.902" y2="1614.251"/>
      <line x1="554.902" y1="1615.251" x2="504.902" y2="1615.251"/>
      <line x1="554.902" y1="1616.251" x2="504.902" y2="1616.251"/>
      <line x1="554.902" y1="1617.251" x2="504.902" y2="1617.251"/>
      <line x1="554.902" y1="1618.251" x2="504.902" y2="1618.251"/>
      <line x1="554.902" y1="1619.251" x2="504.902" y2="1619.251"/>
      <line x1="554.902" y1="1620.251" x2="504.902" y2="1620.251"/>
      <line x1="554.902" y1="1621.251" x2="504.902" y2="1621.251"/>
      <line x1="554.902" y1="1622.251" x2="504.902" y2="1622.251"/>
      <line x1="554.902" y1="1623.251" x2="504.902" y2="1623.251"/>
      <line x1="554.902" y1="1624.251" x2="504.902" y2="1624.251"/>
      <line x1="554.902" y1="1625.251" x2="504.902" y2="1625.251"/>
      <line x1="554.902" y1="1626.251" x2="504.902" y2="1626.251"/>
      <line x1="554.902" y1="1627.251" x2="504.902" y2="1627.251"/>
      <line x1="554.902" y1="1628.251" x2="504.902" y2="1628.251"/>
      <line x1="583.989" y1="1579.251" x2="555.002" y2="1579.251"/>
      <line x1="583.989" y1="1580.251" x2="555.002" y2="1580.251"/>
      <line x1="583.989" y1="1581.251" x2="555.002" y2="1581.251"/>
      <line x1="583.989" y1="1582.251" x2="555.002" y2="1582.251"/>
      <line x1="583.989" y1="1583.251" x2="555.002" y2="1583.251"/>
      <line x1="583.989" y1="1584.251" x2="555.002" y2="1584.251"/>
      <line x1="583.989" y1="1585.251" x2="555.002" y2="1585.251"/>
      <line x1="583.989" y1="1586.251" x2="555.002" y2="1586.251"/>
      <line x1="583.989" y1="1587.251" x2="555.002" y2="1587.251"/>
      <line x1="583.989" y1="1588.251" x2="555.002" y2="1588.251"/>
      <line x1="583.989" y1="1589.251" x2="555.002" y2="1589.251"/>
      <line x1="583.989" y1="1590.251" x2="555.002" y2="1590.251"/>
      <line x1="583.989" y1="1591.251" x2="555.002" y2="1591.251"/>
      <line x1="583.989" y1="1592.251" x2="555.002" y2="1592.251"/>
      <line x1="583.989" y1="1593.251" x2="555.002" y2="1593.251"/>
      <line x1="583.989" y1="1594.251" x2="555.002" y2="1594.251"/>
      <line x1="583.989" y1="1595.251" x2="555.002" y2="1595.251"/>
      <line x1="583.989" y1="1596.251" x2="555.002" y2="1596.251"/>
      <line x1="583.989" y1="1597.251" x2="555.002" y2="1597.251"/>
      <line x1="583.989" y1="1598.251" x2="555.002" y2="1598.251"/>
      <line x1="583.989" y1="1599.251" x2="555.002" y2="1599.251"/>
      <line x1="583.989" y1="1600.251" x2="555.002" y2="1600.251"/>
      <line x1="583.989" y1="1601.251" x2="555.002" y2="1601.251"/>
      <line x1="583.989" y1="1602.251" x2="555.002" y2="1602.251"/>
      <line x1="583.989" y1="1603.251" x2="555.002" y2="1603.251"/>
      <line x1="583.989" y1="1604.251" x2="555.002" y2="1604.251"/>
      <line x1="583.989" y1="1605.251" x2="555.002" y2="1605.251"/>
      <line x1="583.989" y1="1606.251" x2="555.002" y2="1606.251"/>
      <line x1="583.989" y1="1607.251" x2="555.002" y2="1607.251"/>
      <line x1="583.989" y1="1608.251" x2="555.002" y2="1608.251"/>
      <line x1="583.989" y1="1609.251" x2="555.002" y2="1609.251"/>
      <line x1="583.989" y1="1610.251" x2="555.002" y2="1610.251"/>
      <line x1="583.989" y1="1611.251" x2="555.002" y2="1611.251"/>
      <line x1="583.989" y1="1612.251" x2="555.002" y2="1612.251"/>
      <line x1="583.989" y1="1613.251" x2="555.002" y2="1613.251"/>
      <line x1="583.989" y1="1614.251" x2="555.002" y2="1614.251"/>
      <line x1="583.989" y1="1615.251" x2="555.002" y2="1615.251"/>
      <line x1="583.989" y1="1616.251" x2="555.002" y2="1616.251"/>
      <line x1="583.989" y1="1617.251" x2="555.002" y2="1617.251"/>
      <line x1="583.989" y1="1618.251" x2="555.002" y2="1618.251"/>
      <line x1="583.989" y1="1619.251" x2="555.002" y2="1619.251"/>
      <line x1="583.989" y1="1620.251" x2="555.002" y2="1620.251"/>
      <line x1="583.989" y1="1621.251" x2="555.002" y2="1621.251"/>
      <line x1="583.989" y1="1622.251" x2="555.002" y2="1622.251"/>
      <line x1="583.989" y1="1623.251" x2="555.002" y2="1623.251"/>
      <line x1="583.989" y1="1624.251" x2="555.002" y2="1624.251"/>
      <line x1="583.989" y1="1625.251" x2="555.002" y2="1625.251"/>
      <line x1="583.989" y1="1626.251" x2="555.002" y2="1626.251"/>
      <line x1="583.989" y1="1627.251" x2="555.002" y2="1627.251"/>
      <line x1="583.989" y1="1628.251" x2="555.002" y2="1628.251"/>
      <line x1="504.802" y1="1529.251" x2="454.802" y2="1529.251"/>
      <line x1="504.802" y1="1530.251" x2="454.802" y2="1530.251"/>
      <line x1="504.802" y1="1531.251" x2="454.802" y2="1531.251"/>
      <line x1="504.802" y1="1532.251" x2="454.802" y2="1532.251"/>
      <line x1="504.802" y1="1533.251" x2="454.802" y2="1533.251"/>
      <line x1="504.802" y1="1534.251" x2="454.802" y2="1534.251"/>
      <line x1="504.802" y1="1535.251" x2="454.802" y2="1535.251"/>
      <line x1="504.802" y1="1536.251" x2="454.802" y2="1536.251"/>
      <line x1="504.802" y1="1537.251" x2="454.802" y2="1537.251"/>
      <line x1="504.802" y1="1538.251" x2="454.802" y2="1538.251"/>
      <line x1="504.802" y1="1539.251" x2="454.802" y2="1539.251"/>
      <line x1="504.802" y1="1540.251" x2="454.802" y2="1540.251"/>
      <line x1="504.802" y1="1541.251" x2="454.802" y2="1541.251"/>
      <line x1="504.802" y1="1542.251" x2="454.802" y2="1542.251"/>
      <line x1="504.802" y1="1543.251" x2="454.802" y2="1543.251"/>
      <line x1="504.802" y1="1544.251" x2="454.802" y2="1544.251"/>
      <line x1="504.802" y1="1545.251" x2="454.802" y2="1545.251"/>
      <line x1="504.802" y1="1546.251" x2="454.802" y2="1546.251"/>
      <line x1="504.802" y1="1547.251" x2="454.802" y2="1547.251"/>
      <line x1="504.802" y1="1548.251" x2="454.802" y2="1548.251"/>
      <line x1="504.802" y1="1549.251" x2="454.802" y2="1549.251"/>
      <line x1="504.802" y1="1550.251" x2="454.802" y2="1550.251"/>
      <line x1="504.802" y1="1551.251" x2="454.802" y2="1551.251"/>
      <line x1="504.802" y1="1552.251" x2="454.802" y2="1552.251"/>
      <line x1="504.802" y1="1553.251" x2="454.802" y2="1553.251"/>
      <line x1="504.802" y1="1554.251" x2="454.802" y2="1554.251"/>
      <line x1="504.802" y1="1555.251" x2="454.802" y2="1555.251"/>
      <line x1="504.802" y1="1556.251" x2="454.802" y2="1556.251"/>
      <line x1="504.802" y1="1557.251" x2="454.802" y2="1557.251"/>
      <line x1="504.802" y1="1558.251" x2="454.802" y2="1558.251"/>
      <line x1="504.802" y1="1559.251" x2="454.802" y2="1559.251"/>
      <line x1="504.802" y1="1560.251" x2="454.802" y2="1560.251"/>
      <line x1="504.802" y1="1561.251" x2="454.802" y2="1561.251"/>
      <line x1="504.802" y1="1562.251" x2="454.802" y2="1562.251"/>
      <line x1="504.802" y1="1563.251" x2="454.802" y2="1563.251"/>
      <line x1="504.802" y1="1564.251" x2="454.802" y2="1564.251"/>
      <line x1="504.802" y1="1565.251" x2="454.802" y2="1565.251"/>
      <line x1="504.802" y1="1566.251" x2="454.802" y2="1566.251"/>
      <line x1="504.802" y1="1567.251" x2="454.802" y2="1567.251"/>
      <line x1="504.802" y1="1568.251" x2="454.802" y2="1568.251"/>
      <line x1="504.802" y1="1569.251" x2="454.802" y2="1569.251"/>
      <line x1="504.802" y1="1570.251" x2="454.802" y2="1570.251"/>
      <line x1="504.802" y1="1571.251" x2="454.802" y2="1571.251"/>
      <line x1="504.802" y1="1572.251" x2="454.802" y2="1572.251"/>
      <line x1="504.802" y1="1573.251" x2="454.802" y2="1573.251"/>
      <line x1="504.802" y1="1574.251" x2="454.802" y2="1574.251"/>
      <line x1="504.802" y1="1575.251" x2="454.802" y2="1575.251"/>
      <line x1="504.802" y1="1576.251" x2="454.802" y2="1576.251"/>
      <line x1="504.802" y1="1577.251" x2="454.802" y2="1577.251"/>
      <line x1="504.802" y1="1578.251" x2="454.802" y2="1578.251"/>
      <line x1="554.902" y1="1529.251" x2="504.902" y2="1529.251"/>
      <line x1="554.902" y1="1530.251" x2="504.902" y2="1530.251"/>
      <line x1="554.902" y1="1531.251" x2="504.902" y2="1531.251"/>
      <line x1="554.902" y1="1532.251" x2="504.902" y2="1532.251"/>
      <line x1="554.902" y1="1533.251" x2="504.902" y2="1533.251"/>
      <line x1="554.902" y1="1534.251" x2="504.902" y2="1534.251"/>
      <line x1="554.902" y1="1535.251" x2="504.902" y2="1535.251"/>
      <line x1="554.902" y1="1536.251" x2="504.902" y2="1536.251"/>
      <line x1="554.902" y1="1537.251" x2="504.902" y2="1537.251"/>
      <line x1="554.902" y1="1538.251" x2="504.902" y2="1538.251"/>
      <line x1="554.902" y1="1539.251" x2="504.902" y2="1539.251"/>
      <line x1="554.902" y1="1540.251" x2="504.902" y2="1540.251"/>
      <line x1="554.902" y1="1541.251" x2="504.902" y2="1541.251"/>
      <line x1="554.902" y1="1542.251" x2="504.902" y2="1542.251"/>
      <line x1="554.902" y1="1543.251" x2="504.902" y2="1543.251"/>
      <line x1="554.902" y1="1544.251" x2="504.902" y2="1544.251"/>
      <line x1="554.902" y1="1545.251" x2="504.902" y2="1545.251"/>
      <line x1="554.902" y1="1546.251" x2="504.902" y2="1546.251"/>
      <line x1="554.902" y1="1547.251" x2="504.902" y2="1547.251"/>
      <line x1="554.902" y1="1548.251" x2="504.902" y2="1548.251"/>
      <line x1="554.902" y1="1549.251" x2="504.902" y2="1549.251"/>
      <line x1="554.902" y1="1550.251" x2="504.902" y2="1550.251"/>
      <line x1="554.902" y1="1551.251" x2="504.902" y2="1551.251"/>
      <line x1="554.902" y1="1552.251" x2="504.902" y2="1552.251"/>
      <line x1="554.902" y1="1553.251" x2="504.902" y2="1553.251"/>
      <line x1="554.902" y1="1554.251" x2="504.902" y2="1554.251"/>
      <line x1="554.902" y1="1555.251" x2="504.902" y2="1555.251"/>
      <line x1="554.902" y1="1556.251" x2="504.902" y2="1556.251"/>
      <line x1="554.902" y1="1557.251" x2="504.902" y2="1557.251"/>
      <line x1="554.902" y1="1558.251" x2="504.902" y2="1558.251"/>
      <line x1="554.902" y1="1559.251" x2="504.902" y2="1559.251"/>
      <line x1="554.902" y1="1560.251" x2="504.902" y2="1560.251"/>
      <line x1="554.902" y1="1561.251" x2="504.902" y2="1561.251"/>
      <line x1="554.902" y1="1562.251" x2="504.902" y2="1562.251"/>
      <line x1="554.902" y1="1563.251" x2="504.902" y2="1563.251"/>
      <line x1="554.902" y1="1564.251" x2="504.902" y2="1564.251"/>
      <line x1="554.902" y1="1565.251" x2="504.902" y2="1565.251"/>
      <line x1="554.902" y1="1566.251" x2="504.902" y2="1566.251"/>
      <line x1="554.902" y1="1567.251" x2="504.902" y2="1567.251"/>
      <line x1="554.902" y1="1568.251" x2="504.902" y2="1568.251"/>
      <line x1="554.902" y1="1569.251" x2="504.902" y2="1569.251"/>
      <line x1="554.902" y1="1570.251" x2="504.902" y2="1570.251"/>
      <line x1="554.902" y1="1571.251" x2="504.902" y2="1571.251"/>
      <line x1="554.902" y1="1572.251" x2="504.902" y2="1572.251"/>
      <line x1="554.902" y1="1573.251" x2="504.902" y2="1573.251"/>
      <line x1="554.902" y1="1574.251" x2="504.902" y2="1574.251"/>
      <line x1="554.902" y1="1575.251" x2="504.902" y2="1575.251"/>
      <line x1="554.902" y1="1576.251" x2="504.902" y2="1576.251"/>
      <line x1="554.902" y1="1577.251" x2="504.902" y2="1577.251"/>
      <line x1="554.902" y1="1578.251" x2="504.902" y2="1578.251"/>
      <line x1="583.989" y1="1529.251" x2="555.002" y2="1529.251"/>
      <line x1="583.989" y1="1530.251" x2="555.002" y2="1530.251"/>
      <line x1="583.989" y1="1531.251" x2="555.002" y2="1531.251"/>
      <line x1="583.989" y1="1532.251" x2="555.002" y2="1532.251"/>
      <line x1="583.989" y1="1533.251" x2="555.002" y2="1533.251"/>
      <line x1="583.989" y1="1534.251" x2="555.002" y2="1534.251"/>
      <line x1="583.989" y1="1535.251" x2="555.002" y2="1535.251"/>
      <line x1="583.989" y1="1536.251" x2="555.002" y2="1536.251"/>
      <line x1="583.989" y1="1537.251" x2="555.002" y2="1537.251"/>
      <line x1="583.989" y1="1538.251" x2="555.002" y2="1538.251"/>
      <line x1="583.989" y1="1539.251" x2="555.002" y2="1539.251"/>
      <line x1="583.989" y1="1540.251" x2="555.002" y2="1540.251"/>
      <line x1="583.989" y1="1541.251" x2="555.002" y2="1541.251"/>
      <line x1="583.989" y1="1542.251" x2="555.002" y2="1542.251"/>
      <line x1="583.989" y1="1543.251" x2="555.002" y2="1543.251"/>
      <line x1="583.989" y1="1544.251" x2="555.002" y2="1544.251"/>
      <line x1="583.989" y1="1545.251" x2="555.002" y2="1545.251"/>
      <line x1="583.989" y1="1546.251" x2="555.002" y2="1546.251"/>
      <line x1="583.989" y1="1547.251" x2="555.002" y2="1547.251"/>
      <line x1="583.989" y1="1548.251" x2="555.002" y2="1548.251"/>
      <line x1="583.989" y1="1549.251" x2="555.002" y2="1549.251"/>
      <line x1="583.989" y1="1550.251" x2="555.002" y2="1550.251"/>
      <line x1="583.989" y1="1551.251" x2="555.002" y2="1551.251"/>
      <line x1="583.989" y1="1552.251" x2="555.002" y2="1552.251"/>
      <line x1="583.989" y1="1553.251" x2="555.002" y2="1553.251"/>
      <line x1="583.989" y1="1554.251" x2="555.002" y2="1554.251"/>
      <line x1="583.989" y1="1555.251" x2="555.002" y2="1555.251"/>
      <line x1="583.989" y1="1556.251" x2="555.002" y2="1556.251"/>
      <line x1="583.989" y1="1557.251" x2="555.002" y2="1557.251"/>
      <line x1="583.989" y1="1558.251" x2="555.002" y2="1558.251"/>
      <line x1="583.989" y1="1559.251" x2="555.002" y2="1559.251"/>
      <line x1="583.989" y1="1560.251" x2="555.002" y2="1560.251"/>
      <line x1="583.989" y1="1561.251" x2="555.002" y2="1561.251"/>
      <line x1="583.989" y1="1562.251" x2="555.002" y2="1562.251"/>
      <line x1="583.989" y1="1563.251" x2="555.002" y2="1563.251"/>
      <line x1="583.989" y1="1564.251" x2="555.002" y2="1564.251"/>
      <line x1="583.989" y1="1565.251" x2="555.002" y2="1565.251"/>
      <line x1="583.989" y1="1566.251" x2="555.002" y2="1566.251"/>
      <line x1="583.989" y1="1567.251" x2="555.002" y2="1567.251"/>
      <line x1="583.989" y1="1568.251" x2="555.002" y2="1568.251"/>
      <line x1="583.989" y1="1569.251" x2="555.002" y2="1569.251"/>
      <line x1="583.989" y1="1570.251" x2="555.002" y2="1570.251"/>
      <line x1="583.989" y1="1571.251" x2="555.002" y2="1571.251"/>
      <line x1="583.989" y1="1572.251" x2="555.002" y2="1572.251"/>
      <line x1="583.989" y1="1573.251" x2="555.002" y2="1573.251"/>
      <line x1="583.989" y1="1574.251" x2="555.002" y2="1574.251"/>
      <line x1="583.989" y1="1575.251" x2="555.002" y2="1575.251"/>
      <line x1="583.989" y1="1576.251" x2="555.002" y2="1576.251"/>
      <line x1="583.989" y1="1577.251" x2="555.002" y2="1577.251"/>
      <line x1="583.989" y1="1578.251" x2="555.002" y2="1578.251"/>
      <line x1="504.802" y1="1525.251" x2="454.802" y2="1525.251"/>
      <line x1="504.802" y1="1526.251" x2="454.802" y2="1526.251"/>
      <line x1="504.802" y1="1527.251" x2="454.802" y2="1527.251"/>
      <line x1="504.802" y1="1528.251" x2="454.802" y2="1528.251"/>
      <line x1="554.902" y1="1525.251" x2="504.902" y2="1525.251"/>
      <line x1="554.902" y1="1526.251" x2="504.902" y2="1526.251"/>
      <line x1="554.902" y1="1527.251" x2="504.902" y2="1527.251"/>
      <line x1="554.902" y1="1528.251" x2="504.902" y2="1528.251"/>
      <line x1="583.989" y1="1525.251" x2="555.002" y2="1525.251"/>
      <line x1="583.989" y1="1526.251" x2="555.002" y2="1526.251"/>
      <line x1="583.989" y1="1527.251" x2="555.002" y2="1527.251"/>
      <line x1="583.989" y1="1528.251" x2="555.002" y2="1528.251"/>
      <line x1="66.011" y1="1629.252" x2="16.011" y2="1629.252"/>
      <line x1="66.011" y1="1630.252" x2="16.011" y2="1630.252"/>
      <line x1="66.011" y1="1631.252" x2="16.011" y2="1631.252"/>
      <line x1="66.011" y1="1632.252" x2="16.011" y2="1632.252"/>
      <line x1="66.011" y1="1633.252" x2="16.011" y2="1633.252"/>
      <line x1="66.011" y1="1634.252" x2="16.011" y2="1634.252"/>
      <line x1="66.011" y1="1635.252" x2="16.011" y2="1635.252"/>
      <line x1="66.011" y1="1636.252" x2="16.011" y2="1636.252"/>
      <line x1="66.011" y1="1637.252" x2="16.011" y2="1637.252"/>
      <line x1="66.011" y1="1638.252" x2="16.011" y2="1638.252"/>
      <line x1="66.011" y1="1639.252" x2="16.011" y2="1639.252"/>
      <line x1="66.011" y1="1640.252" x2="16.011" y2="1640.252"/>
      <line x1="66.011" y1="1641.252" x2="16.011" y2="1641.252"/>
      <line x1="66.011" y1="1642.252" x2="16.011" y2="1642.252"/>
      <line x1="66.011" y1="1643.252" x2="16.011" y2="1643.252"/>
      <line x1="66.011" y1="1644.252" x2="16.011" y2="1644.252"/>
      <line x1="66.011" y1="1645.252" x2="16.011" y2="1645.252"/>
      <line x1="66.011" y1="1646.252" x2="16.011" y2="1646.252"/>
      <line x1="66.011" y1="1647.252" x2="16.011" y2="1647.252"/>
      <line x1="66.011" y1="1648.252" x2="16.011" y2="1648.252"/>
      <line x1="66.011" y1="1649.252" x2="16.011" y2="1649.252"/>
      <line x1="66.011" y1="1650.252" x2="16.011" y2="1650.252"/>
      <line x1="66.011" y1="1651.252" x2="16.011" y2="1651.252"/>
      <line x1="66.011" y1="1652.252" x2="16.011" y2="1652.252"/>
      <line x1="66.011" y1="1653.252" x2="16.011" y2="1653.252"/>
      <line x1="66.011" y1="1654.252" x2="16.011" y2="1654.252"/>
      <line x1="66.011" y1="1655.252" x2="16.011" y2="1655.252"/>
      <line x1="66.011" y1="1656.252" x2="16.011" y2="1656.252"/>
      <line x1="66.011" y1="1657.252" x2="16.011" y2="1657.252"/>
      <line x1="66.011" y1="1658.252" x2="16.011" y2="1658.252"/>
      <line x1="66.011" y1="1659.252" x2="16.011" y2="1659.252"/>
      <line x1="66.011" y1="1660.252" x2="16.011" y2="1660.252"/>
      <line x1="66.011" y1="1661.252" x2="16.011" y2="1661.252"/>
      <line x1="66.011" y1="1662.252" x2="16.011" y2="1662.252"/>
      <line x1="66.011" y1="1663.252" x2="16.011" y2="1663.252"/>
      <line x1="66.011" y1="1664.252" x2="16.011" y2="1664.252"/>
      <line x1="66.011" y1="1665.252" x2="16.011" y2="1665.252"/>
      <line x1="66.011" y1="1666.252" x2="16.011" y2="1666.252"/>
      <line x1="66.011" y1="1667.252" x2="16.011" y2="1667.252"/>
      <line x1="66.011" y1="1668.252" x2="16.011" y2="1668.252"/>
      <line x1="66.011" y1="1669.252" x2="16.011" y2="1669.252"/>
      <line x1="66.011" y1="1670.252" x2="16.011" y2="1670.252"/>
      <line x1="66.011" y1="1671.252" x2="16.011" y2="1671.252"/>
      <line x1="66.011" y1="1672.252" x2="16.011" y2="1672.252"/>
      <line x1="66.011" y1="1673.252" x2="16.011" y2="1673.252"/>
      <line x1="66.011" y1="1674.252" x2="16.011" y2="1674.252"/>
      <line x1="66.011" y1="1675.252" x2="16.011" y2="1675.252"/>
      <line x1="66.011" y1="1676.252" x2="16.011" y2="1676.252"/>
      <line x1="66.011" y1="1677.252" x2="16.011" y2="1677.252"/>
      <line x1="66.011" y1="1678.252" x2="16.011" y2="1678.252"/>
      <line x1="116.111" y1="1629.252" x2="66.111" y2="1629.252"/>
      <line x1="116.111" y1="1630.252" x2="66.111" y2="1630.252"/>
      <line x1="116.111" y1="1631.252" x2="66.111" y2="1631.252"/>
      <line x1="116.111" y1="1632.252" x2="66.111" y2="1632.252"/>
      <line x1="116.111" y1="1633.252" x2="66.111" y2="1633.252"/>
      <line x1="116.111" y1="1634.252" x2="66.111" y2="1634.252"/>
      <line x1="116.111" y1="1635.252" x2="66.111" y2="1635.252"/>
      <line x1="116.111" y1="1636.252" x2="66.111" y2="1636.252"/>
      <line x1="116.111" y1="1637.252" x2="66.111" y2="1637.252"/>
      <line x1="116.111" y1="1638.252" x2="66.111" y2="1638.252"/>
      <line x1="116.111" y1="1639.252" x2="66.111" y2="1639.252"/>
      <line x1="116.111" y1="1640.252" x2="66.111" y2="1640.252"/>
      <line x1="116.111" y1="1641.252" x2="66.111" y2="1641.252"/>
      <line x1="116.111" y1="1642.252" x2="66.111" y2="1642.252"/>
      <line x1="116.111" y1="1643.252" x2="66.111" y2="1643.252"/>
      <line x1="116.111" y1="1644.252" x2="66.111" y2="1644.252"/>
      <line x1="116.111" y1="1645.252" x2="66.111" y2="1645.252"/>
      <line x1="116.111" y1="1646.252" x2="66.111" y2="1646.252"/>
      <line x1="116.111" y1="1647.252" x2="66.111" y2="1647.252"/>
      <line x1="116.111" y1="1648.252" x2="66.111" y2="1648.252"/>
      <line x1="116.111" y1="1649.252" x2="66.111" y2="1649.252"/>
      <line x1="116.111" y1="1650.252" x2="66.111" y2="1650.252"/>
      <line x1="116.111" y1="1651.252" x2="66.111" y2="1651.252"/>
      <line x1="116.111" y1="1652.252" x2="66.111" y2="1652.252"/>
      <line x1="116.111" y1="1653.252" x2="66.111" y2="1653.252"/>
      <line x1="116.111" y1="1654.252" x2="66.111" y2="1654.252"/>
      <line x1="116.111" y1="1655.252" x2="66.111" y2="1655.252"/>
      <line x1="116.111" y1="1656.252" x2="66.111" y2="1656.252"/>
      <line x1="116.111" y1="1657.252" x2="66.111" y2="1657.252"/>
      <line x1="116.111" y1="1658.252" x2="66.111" y2="1658.252"/>
      <line x1="116.111" y1="1659.252" x2="66.111" y2="1659.252"/>
      <line x1="116.111" y1="1660.252" x2="66.111" y2="1660.252"/>
      <line x1="116.111" y1="1661.252" x2="66.111" y2="1661.252"/>
      <line x1="116.111" y1="1662.252" x2="66.111" y2="1662.252"/>
      <line x1="116.111" y1="1663.252" x2="66.111" y2="1663.252"/>
      <line x1="116.111" y1="1664.252" x2="66.111" y2="1664.252"/>
      <line x1="116.111" y1="1665.252" x2="66.111" y2="1665.252"/>
      <line x1="116.111" y1="1666.252" x2="66.111" y2="1666.252"/>
      <line x1="116.111" y1="1667.252" x2="66.111" y2="1667.252"/>
      <line x1="116.111" y1="1668.252" x2="66.111" y2="1668.252"/>
      <line x1="116.111" y1="1669.252" x2="66.111" y2="1669.252"/>
      <line x1="116.111" y1="1670.252" x2="66.111" y2="1670.252"/>
      <line x1="116.111" y1="1671.252" x2="66.111" y2="1671.252"/>
      <line x1="116.111" y1="1672.252" x2="66.111" y2="1672.252"/>
      <line x1="116.111" y1="1673.252" x2="66.111" y2="1673.252"/>
      <line x1="116.111" y1="1674.252" x2="66.111" y2="1674.252"/>
      <line x1="116.111" y1="1675.252" x2="66.111" y2="1675.252"/>
      <line x1="116.111" y1="1676.252" x2="66.111" y2="1676.252"/>
      <line x1="116.111" y1="1677.252" x2="66.111" y2="1677.252"/>
      <line x1="116.111" y1="1678.252" x2="66.111" y2="1678.252"/>
      <line x1="145.198" y1="1629.252" x2="116.211" y2="1629.252"/>
      <line x1="145.198" y1="1630.252" x2="116.211" y2="1630.252"/>
      <line x1="145.198" y1="1631.252" x2="116.211" y2="1631.252"/>
      <line x1="145.198" y1="1632.252" x2="116.211" y2="1632.252"/>
      <line x1="145.198" y1="1633.252" x2="116.211" y2="1633.252"/>
      <line x1="145.198" y1="1634.252" x2="116.211" y2="1634.252"/>
      <line x1="145.198" y1="1635.252" x2="116.211" y2="1635.252"/>
      <line x1="145.198" y1="1636.252" x2="116.211" y2="1636.252"/>
      <line x1="145.198" y1="1637.252" x2="116.211" y2="1637.252"/>
      <line x1="145.198" y1="1638.252" x2="116.211" y2="1638.252"/>
      <line x1="145.198" y1="1639.252" x2="116.211" y2="1639.252"/>
      <line x1="145.198" y1="1640.252" x2="116.211" y2="1640.252"/>
      <line x1="145.198" y1="1641.252" x2="116.211" y2="1641.252"/>
      <line x1="145.198" y1="1642.252" x2="116.211" y2="1642.252"/>
      <line x1="145.198" y1="1643.252" x2="116.211" y2="1643.252"/>
      <line x1="145.198" y1="1644.252" x2="116.211" y2="1644.252"/>
      <line x1="145.198" y1="1645.252" x2="116.211" y2="1645.252"/>
      <line x1="145.198" y1="1646.252" x2="116.211" y2="1646.252"/>
      <line x1="145.198" y1="1647.252" x2="116.211" y2="1647.252"/>
      <line x1="145.198" y1="1648.252" x2="116.211" y2="1648.252"/>
      <line x1="145.198" y1="1649.252" x2="116.211" y2="1649.252"/>
      <line x1="145.198" y1="1650.252" x2="116.211" y2="1650.252"/>
      <line x1="145.198" y1="1651.252" x2="116.211" y2="1651.252"/>
      <line x1="145.198" y1="1652.252" x2="116.211" y2="1652.252"/>
      <line x1="145.198" y1="1653.252" x2="116.211" y2="1653.252"/>
      <line x1="145.198" y1="1654.252" x2="116.211" y2="1654.252"/>
      <line x1="145.198" y1="1655.252" x2="116.211" y2="1655.252"/>
      <line x1="145.198" y1="1656.252" x2="116.211" y2="1656.252"/>
      <line x1="145.198" y1="1657.252" x2="116.211" y2="1657.252"/>
      <line x1="145.198" y1="1658.252" x2="116.211" y2="1658.252"/>
      <line x1="145.198" y1="1659.252" x2="116.211" y2="1659.252"/>
      <line x1="145.198" y1="1660.252" x2="116.211" y2="1660.252"/>
      <line x1="145.198" y1="1661.252" x2="116.211" y2="1661.252"/>
      <line x1="145.198" y1="1662.252" x2="116.211" y2="1662.252"/>
      <line x1="145.198" y1="1663.252" x2="116.211" y2="1663.252"/>
      <line x1="145.198" y1="1664.252" x2="116.211" y2="1664.252"/>
      <line x1="145.198" y1="1665.252" x2="116.211" y2="1665.252"/>
      <line x1="145.198" y1="1666.252" x2="116.211" y2="1666.252"/>
      <line x1="145.198" y1="1667.252" x2="116.211" y2="1667.252"/>
      <line x1="145.198" y1="1668.252" x2="116.211" y2="1668.252"/>
      <line x1="145.198" y1="1669.252" x2="116.211" y2="1669.252"/>
      <line x1="145.198" y1="1670.252" x2="116.211" y2="1670.252"/>
      <line x1="145.198" y1="1671.252" x2="116.211" y2="1671.252"/>
      <line x1="145.198" y1="1672.252" x2="116.211" y2="1672.252"/>
      <line x1="145.198" y1="1673.252" x2="116.211" y2="1673.252"/>
      <line x1="145.198" y1="1674.252" x2="116.211" y2="1674.252"/>
      <line x1="145.198" y1="1675.252" x2="116.211" y2="1675.252"/>
      <line x1="145.198" y1="1676.252" x2="116.211" y2="1676.252"/>
      <line x1="145.198" y1="1677.252" x2="116.211" y2="1677.252"/>
      <line x1="145.198" y1="1678.252" x2="116.211" y2="1678.252"/>
      <line x1="66.011" y1="1579.252" x2="16.011" y2="1579.252"/>
      <line x1="66.011" y1="1580.252" x2="16.011" y2="1580.252"/>
      <line x1="66.011" y1="1581.252" x2="16.011" y2="1581.252"/>
      <line x1="66.011" y1="1582.252" x2="16.011" y2="1582.252"/>
      <line x1="66.011" y1="1583.252" x2="16.011" y2="1583.252"/>
      <line x1="66.011" y1="1584.252" x2="16.011" y2="1584.252"/>
      <line x1="66.011" y1="1585.252" x2="16.011" y2="1585.252"/>
      <line x1="66.011" y1="1586.252" x2="16.011" y2="1586.252"/>
      <line x1="66.011" y1="1587.252" x2="16.011" y2="1587.252"/>
      <line x1="66.011" y1="1588.252" x2="16.011" y2="1588.252"/>
      <line x1="66.011" y1="1589.252" x2="16.011" y2="1589.252"/>
      <line x1="66.011" y1="1590.252" x2="16.011" y2="1590.252"/>
      <line x1="66.011" y1="1591.252" x2="16.011" y2="1591.252"/>
      <line x1="66.011" y1="1592.252" x2="16.011" y2="1592.252"/>
      <line x1="66.011" y1="1593.252" x2="16.011" y2="1593.252"/>
      <line x1="66.011" y1="1594.252" x2="16.011" y2="1594.252"/>
      <line x1="66.011" y1="1595.252" x2="16.011" y2="1595.252"/>
      <line x1="66.011" y1="1596.252" x2="16.011" y2="1596.252"/>
      <line x1="66.011" y1="1597.252" x2="16.011" y2="1597.252"/>
      <line x1="66.011" y1="1598.252" x2="16.011" y2="1598.252"/>
      <line x1="66.011" y1="1599.252" x2="16.011" y2="1599.252"/>
      <line x1="66.011" y1="1600.252" x2="16.011" y2="1600.252"/>
      <line x1="66.011" y1="1601.252" x2="16.011" y2="1601.252"/>
      <line x1="66.011" y1="1602.252" x2="16.011" y2="1602.252"/>
      <line x1="66.011" y1="1603.252" x2="16.011" y2="1603.252"/>
      <line x1="66.011" y1="1604.252" x2="16.011" y2="1604.252"/>
      <line x1="66.011" y1="1605.252" x2="16.011" y2="1605.252"/>
      <line x1="66.011" y1="1606.252" x2="16.011" y2="1606.252"/>
      <line x1="66.011" y1="1607.252" x2="16.011" y2="1607.252"/>
      <line x1="66.011" y1="1608.252" x2="16.011" y2="1608.252"/>
      <line x1="66.011" y1="1609.252" x2="16.011" y2="1609.252"/>
      <line x1="66.011" y1="1610.252" x2="16.011" y2="1610.252"/>
      <line x1="66.011" y1="1611.252" x2="16.011" y2="1611.252"/>
      <line x1="66.011" y1="1612.252" x2="16.011" y2="1612.252"/>
      <line x1="66.011" y1="1613.252" x2="16.011" y2="1613.252"/>
      <line x1="66.011" y1="1614.252" x2="16.011" y2="1614.252"/>
      <line x1="66.011" y1="1615.252" x2="16.011" y2="1615.252"/>
      <line x1="66.011" y1="1616.252" x2="16.011" y2="1616.252"/>
      <line x1="66.011" y1="1617.252" x2="16.011" y2="1617.252"/>
      <line x1="66.011" y1="1618.252" x2="16.011" y2="1618.252"/>
      <line x1="66.011" y1="1619.252" x2="16.011" y2="1619.252"/>
      <line x1="66.011" y1="1620.252" x2="16.011" y2="1620.252"/>
      <line x1="66.011" y1="1621.252" x2="16.011" y2="1621.252"/>
      <line x1="66.011" y1="1622.252" x2="16.011" y2="1622.252"/>
      <line x1="66.011" y1="1623.252" x2="16.011" y2="1623.252"/>
      <line x1="66.011" y1="1624.252" x2="16.011" y2="1624.252"/>
      <line x1="66.011" y1="1625.252" x2="16.011" y2="1625.252"/>
      <line x1="66.011" y1="1626.252" x2="16.011" y2="1626.252"/>
      <line x1="66.011" y1="1627.252" x2="16.011" y2="1627.252"/>
      <line x1="66.011" y1="1628.252" x2="16.011" y2="1628.252"/>
      <line x1="116.111" y1="1579.252" x2="66.111" y2="1579.252"/>
      <line x1="116.111" y1="1580.252" x2="66.111" y2="1580.252"/>
      <line x1="116.111" y1="1581.252" x2="66.111" y2="1581.252"/>
      <line x1="116.111" y1="1582.252" x2="66.111" y2="1582.252"/>
      <line x1="116.111" y1="1583.252" x2="66.111" y2="1583.252"/>
      <line x1="116.111" y1="1584.252" x2="66.111" y2="1584.252"/>
      <line x1="116.111" y1="1585.252" x2="66.111" y2="1585.252"/>
      <line x1="116.111" y1="1586.252" x2="66.111" y2="1586.252"/>
      <line x1="116.111" y1="1587.252" x2="66.111" y2="1587.252"/>
      <line x1="116.111" y1="1588.252" x2="66.111" y2="1588.252"/>
      <line x1="116.111" y1="1589.252" x2="66.111" y2="1589.252"/>
      <line x1="116.111" y1="1590.252" x2="66.111" y2="1590.252"/>
      <line x1="116.111" y1="1591.252" x2="66.111" y2="1591.252"/>
      <line x1="116.111" y1="1592.252" x2="66.111" y2="1592.252"/>
      <line x1="116.111" y1="1593.252" x2="66.111" y2="1593.252"/>
      <line x1="116.111" y1="1594.252" x2="66.111" y2="1594.252"/>
      <line x1="116.111" y1="1595.252" x2="66.111" y2="1595.252"/>
      <line x1="116.111" y1="1596.252" x2="66.111" y2="1596.252"/>
      <line x1="116.111" y1="1597.252" x2="66.111" y2="1597.252"/>
      <line x1="116.111" y1="1598.252" x2="66.111" y2="1598.252"/>
      <line x1="116.111" y1="1599.252" x2="66.111" y2="1599.252"/>
      <line x1="116.111" y1="1600.252" x2="66.111" y2="1600.252"/>
      <line x1="116.111" y1="1601.252" x2="66.111" y2="1601.252"/>
      <line x1="116.111" y1="1602.252" x2="66.111" y2="1602.252"/>
      <line x1="116.111" y1="1603.252" x2="66.111" y2="1603.252"/>
      <line x1="116.111" y1="1604.252" x2="66.111" y2="1604.252"/>
      <line x1="116.111" y1="1605.252" x2="66.111" y2="1605.252"/>
      <line x1="116.111" y1="1606.252" x2="66.111" y2="1606.252"/>
      <line x1="116.111" y1="1607.252" x2="66.111" y2="1607.252"/>
      <line x1="116.111" y1="1608.252" x2="66.111" y2="1608.252"/>
      <line x1="116.111" y1="1609.252" x2="66.111" y2="1609.252"/>
      <line x1="116.111" y1="1610.252" x2="66.111" y2="1610.252"/>
      <line x1="116.111" y1="1611.252" x2="66.111" y2="1611.252"/>
      <line x1="116.111" y1="1612.252" x2="66.111" y2="1612.252"/>
      <line x1="116.111" y1="1613.252" x2="66.111" y2="1613.252"/>
      <line x1="116.111" y1="1614.252" x2="66.111" y2="1614.252"/>
      <line x1="116.111" y1="1615.252" x2="66.111" y2="1615.252"/>
      <line x1="116.111" y1="1616.252" x2="66.111" y2="1616.252"/>
      <line x1="116.111" y1="1617.252" x2="66.111" y2="1617.252"/>
      <line x1="116.111" y1="1618.252" x2="66.111" y2="1618.252"/>
      <line x1="116.111" y1="1619.252" x2="66.111" y2="1619.252"/>
      <line x1="116.111" y1="1620.252" x2="66.111" y2="1620.252"/>
      <line x1="116.111" y1="1621.252" x2="66.111" y2="1621.252"/>
      <line x1="116.111" y1="1622.252" x2="66.111" y2="1622.252"/>
      <line x1="116.111" y1="1623.252" x2="66.111" y2="1623.252"/>
      <line x1="116.111" y1="1624.252" x2="66.111" y2="1624.252"/>
      <line x1="116.111" y1="1625.252" x2="66.111" y2="1625.252"/>
      <line x1="116.111" y1="1626.252" x2="66.111" y2="1626.252"/>
      <line x1="116.111" y1="1627.252" x2="66.111" y2="1627.252"/>
      <line x1="116.111" y1="1628.252" x2="66.111" y2="1628.252"/>
      <line x1="145.198" y1="1579.252" x2="116.211" y2="1579.252"/>
      <line x1="145.198" y1="1580.252" x2="116.211" y2="1580.252"/>
      <line x1="145.198" y1="1581.252" x2="116.211" y2="1581.252"/>
      <line x1="145.198" y1="1582.252" x2="116.211" y2="1582.252"/>
      <line x1="145.198" y1="1583.252" x2="116.211" y2="1583.252"/>
      <line x1="145.198" y1="1584.252" x2="116.211" y2="1584.252"/>
      <line x1="145.198" y1="1585.252" x2="116.211" y2="1585.252"/>
      <line x1="145.198" y1="1586.252" x2="116.211" y2="1586.252"/>
      <line x1="145.198" y1="1587.252" x2="116.211" y2="1587.252"/>
      <line x1="145.198" y1="1588.252" x2="116.211" y2="1588.252"/>
      <line x1="145.198" y1="1589.252" x2="116.211" y2="1589.252"/>
      <line x1="145.198" y1="1590.252" x2="116.211" y2="1590.252"/>
      <line x1="145.198" y1="1591.252" x2="116.211" y2="1591.252"/>
      <line x1="145.198" y1="1592.252" x2="116.211" y2="1592.252"/>
      <line x1="145.198" y1="1593.252" x2="116.211" y2="1593.252"/>
      <line x1="145.198" y1="1594.252" x2="116.211" y2="1594.252"/>
      <line x1="145.198" y1="1595.252" x2="116.211" y2="1595.252"/>
      <line x1="145.198" y1="1596.252" x2="116.211" y2="1596.252"/>
      <line x1="145.198" y1="1597.252" x2="116.211" y2="1597.252"/>
      <line x1="145.198" y1="1598.252" x2="116.211" y2="1598.252"/>
      <line x1="145.198" y1="1599.252" x2="116.211" y2="1599.252"/>
      <line x1="145.198" y1="1600.252" x2="116.211" y2="1600.252"/>
      <line x1="145.198" y1="1601.252" x2="116.211" y2="1601.252"/>
      <line x1="145.198" y1="1602.252" x2="116.211" y2="1602.252"/>
      <line x1="145.198" y1="1603.252" x2="116.211" y2="1603.252"/>
      <line x1="145.198" y1="1604.252" x2="116.211" y2="1604.252"/>
      <line x1="145.198" y1="1605.252" x2="116.211" y2="1605.252"/>
      <line x1="145.198" y1="1606.252" x2="116.211" y2="1606.252"/>
      <line x1="145.198" y1="1607.252" x2="116.211" y2="1607.252"/>
      <line x1="145.198" y1="1608.252" x2="116.211" y2="1608.252"/>
      <line x1="145.198" y1="1609.252" x2="116.211" y2="1609.252"/>
      <line x1="145.198" y1="1610.252" x2="116.211" y2="1610.252"/>
      <line x1="145.198" y1="1611.252" x2="116.211" y2="1611.252"/>
      <line x1="145.198" y1="1612.252" x2="116.211" y2="1612.252"/>
      <line x1="145.198" y1="1613.252" x2="116.211" y2="1613.252"/>
      <line x1="145.198" y1="1614.252" x2="116.211" y2="1614.252"/>
      <line x1="145.198" y1="1615.252" x2="116.211" y2="1615.252"/>
      <line x1="145.198" y1="1616.252" x2="116.211" y2="1616.252"/>
      <line x1="145.198" y1="1617.252" x2="116.211" y2="1617.252"/>
      <line x1="145.198" y1="1618.252" x2="116.211" y2="1618.252"/>
      <line x1="145.198" y1="1619.252" x2="116.211" y2="1619.252"/>
      <line x1="145.198" y1="1620.252" x2="116.211" y2="1620.252"/>
      <line x1="145.198" y1="1621.252" x2="116.211" y2="1621.252"/>
      <line x1="145.198" y1="1622.252" x2="116.211" y2="1622.252"/>
      <line x1="145.198" y1="1623.252" x2="116.211" y2="1623.252"/>
      <line x1="145.198" y1="1624.252" x2="116.211" y2="1624.252"/>
      <line x1="145.198" y1="1625.252" x2="116.211" y2="1625.252"/>
      <line x1="145.198" y1="1626.252" x2="116.211" y2="1626.252"/>
      <line x1="145.198" y1="1627.252" x2="116.211" y2="1627.252"/>
      <line x1="145.198" y1="1628.252" x2="116.211" y2="1628.252"/>
      <line x1="66.011" y1="1529.252" x2="16.011" y2="1529.252"/>
      <line x1="66.011" y1="1530.252" x2="16.011" y2="1530.252"/>
      <line x1="66.011" y1="1531.252" x2="16.011" y2="1531.252"/>
      <line x1="66.011" y1="1532.252" x2="16.011" y2="1532.252"/>
      <line x1="66.011" y1="1533.252" x2="16.011" y2="1533.252"/>
      <line x1="66.011" y1="1534.252" x2="16.011" y2="1534.252"/>
      <line x1="66.011" y1="1535.252" x2="16.011" y2="1535.252"/>
      <line x1="66.011" y1="1536.252" x2="16.011" y2="1536.252"/>
      <line x1="66.011" y1="1537.252" x2="16.011" y2="1537.252"/>
      <line x1="66.011" y1="1538.252" x2="16.011" y2="1538.252"/>
      <line x1="66.011" y1="1539.252" x2="16.011" y2="1539.252"/>
      <line x1="66.011" y1="1540.252" x2="16.011" y2="1540.252"/>
      <line x1="66.011" y1="1541.252" x2="16.011" y2="1541.252"/>
      <line x1="66.011" y1="1542.252" x2="16.011" y2="1542.252"/>
      <line x1="66.011" y1="1543.252" x2="16.011" y2="1543.252"/>
      <line x1="66.011" y1="1544.252" x2="16.011" y2="1544.252"/>
      <line x1="66.011" y1="1545.252" x2="16.011" y2="1545.252"/>
      <line x1="66.011" y1="1546.252" x2="16.011" y2="1546.252"/>
      <line x1="66.011" y1="1547.252" x2="16.011" y2="1547.252"/>
      <line x1="66.011" y1="1548.252" x2="16.011" y2="1548.252"/>
      <line x1="66.011" y1="1549.252" x2="16.011" y2="1549.252"/>
      <line x1="66.011" y1="1550.252" x2="16.011" y2="1550.252"/>
      <line x1="66.011" y1="1551.252" x2="16.011" y2="1551.252"/>
      <line x1="66.011" y1="1552.252" x2="16.011" y2="1552.252"/>
      <line x1="66.011" y1="1553.252" x2="16.011" y2="1553.252"/>
      <line x1="66.011" y1="1554.252" x2="16.011" y2="1554.252"/>
      <line x1="66.011" y1="1555.252" x2="16.011" y2="1555.252"/>
      <line x1="66.011" y1="1556.252" x2="16.011" y2="1556.252"/>
      <line x1="66.011" y1="1557.252" x2="16.011" y2="1557.252"/>
      <line x1="66.011" y1="1558.252" x2="16.011" y2="1558.252"/>
      <line x1="66.011" y1="1559.252" x2="16.011" y2="1559.252"/>
      <line x1="66.011" y1="1560.252" x2="16.011" y2="1560.252"/>
      <line x1="66.011" y1="1561.252" x2="16.011" y2="1561.252"/>
      <line x1="66.011" y1="1562.252" x2="16.011" y2="1562.252"/>
      <line x1="66.011" y1="1563.252" x2="16.011" y2="1563.252"/>
      <line x1="66.011" y1="1564.252" x2="16.011" y2="1564.252"/>
      <line x1="66.011" y1="1565.252" x2="16.011" y2="1565.252"/>
      <line x1="66.011" y1="1566.252" x2="16.011" y2="1566.252"/>
      <line x1="66.011" y1="1567.252" x2="16.011" y2="1567.252"/>
      <line x1="66.011" y1="1568.252" x2="16.011" y2="1568.252"/>
      <line x1="66.011" y1="1569.252" x2="16.011" y2="1569.252"/>
      <line x1="66.011" y1="1570.252" x2="16.011" y2="1570.252"/>
      <line x1="66.011" y1="1571.252" x2="16.011" y2="1571.252"/>
      <line x1="66.011" y1="1572.252" x2="16.011" y2="1572.252"/>
      <line x1="66.011" y1="1573.252" x2="16.011" y2="1573.252"/>
      <line x1="66.011" y1="1574.252" x2="16.011" y2="1574.252"/>
      <line x1="66.011" y1="1575.252" x2="16.011" y2="1575.252"/>
      <line x1="66.011" y1="1576.252" x2="16.011" y2="1576.252"/>
      <line x1="66.011" y1="1577.252" x2="16.011" y2="1577.252"/>
      <line x1="66.011" y1="1578.252" x2="16.011" y2="1578.252"/>
      <line x1="116.111" y1="1529.252" x2="66.111" y2="1529.252"/>
      <line x1="116.111" y1="1530.252" x2="66.111" y2="1530.252"/>
      <line x1="116.111" y1="1531.252" x2="66.111" y2="1531.252"/>
      <line x1="116.111" y1="1532.252" x2="66.111" y2="1532.252"/>
      <line x1="116.111" y1="1533.252" x2="66.111" y2="1533.252"/>
      <line x1="116.111" y1="1534.252" x2="66.111" y2="1534.252"/>
      <line x1="116.111" y1="1535.252" x2="66.111" y2="1535.252"/>
      <line x1="116.111" y1="1536.252" x2="66.111" y2="1536.252"/>
      <line x1="116.111" y1="1537.252" x2="66.111" y2="1537.252"/>
      <line x1="116.111" y1="1538.252" x2="66.111" y2="1538.252"/>
      <line x1="116.111" y1="1539.252" x2="66.111" y2="1539.252"/>
      <line x1="116.111" y1="1540.252" x2="66.111" y2="1540.252"/>
      <line x1="116.111" y1="1541.252" x2="66.111" y2="1541.252"/>
      <line x1="116.111" y1="1542.252" x2="66.111" y2="1542.252"/>
      <line x1="116.111" y1="1543.252" x2="66.111" y2="1543.252"/>
      <line x1="116.111" y1="1544.252" x2="66.111" y2="1544.252"/>
      <line x1="116.111" y1="1545.252" x2="66.111" y2="1545.252"/>
      <line x1="116.111" y1="1546.252" x2="66.111" y2="1546.252"/>
      <line x1="116.111" y1="1547.252" x2="66.111" y2="1547.252"/>
      <line x1="116.111" y1="1548.252" x2="66.111" y2="1548.252"/>
      <line x1="116.111" y1="1549.252" x2="66.111" y2="1549.252"/>
      <line x1="116.111" y1="1550.252" x2="66.111" y2="1550.252"/>
      <line x1="116.111" y1="1551.252" x2="66.111" y2="1551.252"/>
      <line x1="116.111" y1="1552.252" x2="66.111" y2="1552.252"/>
      <line x1="116.111" y1="1553.252" x2="66.111" y2="1553.252"/>
      <line x1="116.111" y1="1554.252" x2="66.111" y2="1554.252"/>
      <line x1="116.111" y1="1555.252" x2="66.111" y2="1555.252"/>
      <line x1="116.111" y1="1556.252" x2="66.111" y2="1556.252"/>
      <line x1="116.111" y1="1557.252" x2="66.111" y2="1557.252"/>
      <line x1="116.111" y1="1558.252" x2="66.111" y2="1558.252"/>
      <line x1="116.111" y1="1559.252" x2="66.111" y2="1559.252"/>
      <line x1="116.111" y1="1560.252" x2="66.111" y2="1560.252"/>
      <line x1="116.111" y1="1561.252" x2="66.111" y2="1561.252"/>
      <line x1="116.111" y1="1562.252" x2="66.111" y2="1562.252"/>
      <line x1="116.111" y1="1563.252" x2="66.111" y2="1563.252"/>
      <line x1="116.111" y1="1564.252" x2="66.111" y2="1564.252"/>
      <line x1="116.111" y1="1565.252" x2="66.111" y2="1565.252"/>
      <line x1="116.111" y1="1566.252" x2="66.111" y2="1566.252"/>
      <line x1="116.111" y1="1567.252" x2="66.111" y2="1567.252"/>
      <line x1="116.111" y1="1568.252" x2="66.111" y2="1568.252"/>
      <line x1="116.111" y1="1569.252" x2="66.111" y2="1569.252"/>
      <line x1="116.111" y1="1570.252" x2="66.111" y2="1570.252"/>
      <line x1="116.111" y1="1571.252" x2="66.111" y2="1571.252"/>
      <line x1="116.111" y1="1572.252" x2="66.111" y2="1572.252"/>
      <line x1="116.111" y1="1573.252" x2="66.111" y2="1573.252"/>
      <line x1="116.111" y1="1574.252" x2="66.111" y2="1574.252"/>
      <line x1="116.111" y1="1575.252" x2="66.111" y2="1575.252"/>
      <line x1="116.111" y1="1576.252" x2="66.111" y2="1576.252"/>
      <line x1="116.111" y1="1577.252" x2="66.111" y2="1577.252"/>
      <line x1="116.111" y1="1578.252" x2="66.111" y2="1578.252"/>
      <line x1="145.198" y1="1529.252" x2="116.211" y2="1529.252"/>
      <line x1="145.198" y1="1530.252" x2="116.211" y2="1530.252"/>
      <line x1="145.198" y1="1531.252" x2="116.211" y2="1531.252"/>
      <line x1="145.198" y1="1532.252" x2="116.211" y2="1532.252"/>
      <line x1="145.198" y1="1533.252" x2="116.211" y2="1533.252"/>
      <line x1="145.198" y1="1534.252" x2="116.211" y2="1534.252"/>
      <line x1="145.198" y1="1535.252" x2="116.211" y2="1535.252"/>
      <line x1="145.198" y1="1536.252" x2="116.211" y2="1536.252"/>
      <line x1="145.198" y1="1537.252" x2="116.211" y2="1537.252"/>
      <line x1="145.198" y1="1538.252" x2="116.211" y2="1538.252"/>
      <line x1="145.198" y1="1539.252" x2="116.211" y2="1539.252"/>
      <line x1="145.198" y1="1540.252" x2="116.211" y2="1540.252"/>
      <line x1="145.198" y1="1541.252" x2="116.211" y2="1541.252"/>
      <line x1="145.198" y1="1542.252" x2="116.211" y2="1542.252"/>
      <line x1="145.198" y1="1543.252" x2="116.211" y2="1543.252"/>
      <line x1="145.198" y1="1544.252" x2="116.211" y2="1544.252"/>
      <line x1="145.198" y1="1545.252" x2="116.211" y2="1545.252"/>
      <line x1="145.198" y1="1546.252" x2="116.211" y2="1546.252"/>
      <line x1="145.198" y1="1547.252" x2="116.211" y2="1547.252"/>
      <line x1="145.198" y1="1548.252" x2="116.211" y2="1548.252"/>
      <line x1="145.198" y1="1549.252" x2="116.211" y2="1549.252"/>
      <line x1="145.198" y1="1550.252" x2="116.211" y2="1550.252"/>
      <line x1="145.198" y1="1551.252" x2="116.211" y2="1551.252"/>
      <line x1="145.198" y1="1552.252" x2="116.211" y2="1552.252"/>
      <line x1="145.198" y1="1553.252" x2="116.211" y2="1553.252"/>
      <line x1="145.198" y1="1554.252" x2="116.211" y2="1554.252"/>
      <line x1="145.198" y1="1555.252" x2="116.211" y2="1555.252"/>
      <line x1="145.198" y1="1556.252" x2="116.211" y2="1556.252"/>
      <line x1="145.198" y1="1557.252" x2="116.211" y2="1557.252"/>
      <line x1="145.198" y1="1558.252" x2="116.211" y2="1558.252"/>
      <line x1="145.198" y1="1559.252" x2="116.211" y2="1559.252"/>
      <line x1="145.198" y1="1560.252" x2="116.211" y2="1560.252"/>
      <line x1="145.198" y1="1561.252" x2="116.211" y2="1561.252"/>
      <line x1="145.198" y1="1562.252" x2="116.211" y2="1562.252"/>
      <line x1="145.198" y1="1563.252" x2="116.211" y2="1563.252"/>
      <line x1="145.198" y1="1564.252" x2="116.211" y2="1564.252"/>
      <line x1="145.198" y1="1565.252" x2="116.211" y2="1565.252"/>
      <line x1="145.198" y1="1566.252" x2="116.211" y2="1566.252"/>
      <line x1="145.198" y1="1567.252" x2="116.211" y2="1567.252"/>
      <line x1="145.198" y1="1568.252" x2="116.211" y2="1568.252"/>
      <line x1="145.198" y1="1569.252" x2="116.211" y2="1569.252"/>
      <line x1="145.198" y1="1570.252" x2="116.211" y2="1570.252"/>
      <line x1="145.198" y1="1571.252" x2="116.211" y2="1571.252"/>
      <line x1="145.198" y1="1572.252" x2="116.211" y2="1572.252"/>
      <line x1="145.198" y1="1573.252" x2="116.211" y2="1573.252"/>
      <line x1="145.198" y1="1574.252" x2="116.211" y2="1574.252"/>
      <line x1="145.198" y1="1575.252" x2="116.211" y2="1575.252"/>
      <line x1="145.198" y1="1576.252" x2="116.211" y2="1576.252"/>
      <line x1="145.198" y1="1577.252" x2="116.211" y2="1577.252"/>
      <line x1="145.198" y1="1578.252" x2="116.211" y2="1578.252"/>
      <line x1="66.011" y1="1525.252" x2="16.011" y2="1525.252"/>
      <line x1="66.011" y1="1526.252" x2="16.011" y2="1526.252"/>
      <line x1="66.011" y1="1527.252" x2="16.011" y2="1527.252"/>
      <line x1="66.011" y1="1528.252" x2="16.011" y2="1528.252"/>
      <line x1="116.111" y1="1525.252" x2="66.111" y2="1525.252"/>
      <line x1="116.111" y1="1526.252" x2="66.111" y2="1526.252"/>
      <line x1="116.111" y1="1527.252" x2="66.111" y2="1527.252"/>
      <line x1="116.111" y1="1528.252" x2="66.111" y2="1528.252"/>
      <line x1="145.198" y1="1525.252" x2="116.211" y2="1525.252"/>
      <line x1="145.198" y1="1526.252" x2="116.211" y2="1526.252"/>
      <line x1="145.198" y1="1527.252" x2="116.211" y2="1527.252"/>
      <line x1="145.198" y1="1528.252" x2="116.211" y2="1528.252"/>
    </g>
    <g stroke="#1976D2" stroke-width="0.4">
      <polyline points="453.159,1682.729 587.489,1682.729 587.489,1521.729 453.159,1521.729" fill="none"/>
      <polyline points="453.159,1521.729 451.303,1521.729 451.303,1682.729 453.159,1682.729" fill="none"/>
      <polyline points="453.159,1681.730 586.489,1681.730 586.489,1522.729 453.159,1522.729" fill="none"/>
      <polyline points="453.159,1522.729 452.303,1522.729 452.303,1681.730 453.159,1681.730" fill="none"/>
      <polyline points="585.489,1523.729 453.303,1523.729 453.303,1680.730 585.489,1680.730 585.489,1523.729" fill="none"/>
      <polyline points="584.489,1524.729 454.303,1524.729 454.303,1679.729 584.489,1679.729 584.489,1524.729" fill="none"/>
      <polyline points="146.841,1521.729 12.511,1521.729 12.511,1682.729 146.841,1682.729" fill="none"/>
      <polyline points="146.841,1682.729 148.697,1682.729 148.697,1521.729 146.841,1521.729" fill="none"/>
      <polyline points="146.841,1522.729 13.511,1522.729 13.511,1681.730 146.841,1681.730" fill="none"/>
      <polyline points="146.841,1681.730 147.697,1681.730 147.697,1522.729 146.841,1522.729" fill="none"/>
      <polyline points="146.697,1523.729 14.511,1523.729 14.511,1680.730 146.697,1680.730 146.697,1523.729" fill="none"/>
      <polyline points="145.697,1524.729 15.511,1524.729 15.511,1679.729 145.697,1679.729 145.697,1524.729" fill="none"/>
    </g>
    <g stroke="#C62828" stroke-width="0.4" fill="none">
      <polygon points="293.890,1532.152 294.760,1531.170 295.074,1529.896 294.760,1528.622 293.890,1527.641 292.664,1527.175 291.361,1527.334 290.282,1528.079 289.672,1529.240 289.672,1530.552 290.282,1531.714 291.361,1532.459 292.664,1532.617"/>
      <polygon points="313.827,1532.060 314.661,1531.118 314.963,1529.896 314.661,1528.674 313.827,1527.732 312.650,1527.286 311.401,1527.438 310.365,1528.153 309.781,1529.267 309.781,1530.525 310.365,1531.640 311.401,1532.355 312.650,1532.506"/>
      <polygon points="273.533,1531.973 274.410,1531.095 274.732,1529.896 274.410,1528.697 273.533,1527.819 272.333,1527.498 271.134,1527.819 270.256,1528.697 269.935,1529.896 270.256,1531.095 271.134,1531.973 272.333,1532.295"/>
      <polygon points="333.473,1531.870 334.307,1531.036 334.612,1529.896 334.307,1528.757 333.473,1527.922 332.333,1527.617 331.194,1527.922 330.360,1528.757 330.054,1529.896 330.360,1531.036 331.194,1531.870 332.333,1532.175"/>
      <polygon points="353.349,1531.656 354.093,1530.912 354.365,1529.896 354.093,1528.880 353.349,1528.137 352.333,1527.864 351.317,1528.137 350.574,1528.880 350.302,1529.896 350.574,1530.912 351.317,1531.656 352.333,1531.928"/>
      <polygon points="253.349,1531.656 254.093,1530.912 254.365,1529.896 254.093,1528.880 253.349,1528.137 252.333,1527.864 251.317,1528.137 250.574,1528.880 250.302,1529.896 250.574,1530.912 251.317,1531.656 252.333,1531.928"/>
      <polygon points="413.333,1531.628 414.065,1530.896 414.333,1529.896 414.065,1528.896 413.333,1528.164 412.333,1527.896 411.333,1528.164 410.601,1528.896 410.333,1529.896 410.601,1530.896 411.333,1531.628 412.333,1531.896"/>
      <polygon points="373.333,1531.628 374.065,1530.896 374.333,1529.896 374.065,1528.896 373.333,1528.164 372.333,1527.896 371.333,1528.164 370.601,1528.896 370.333,1529.896 370.601,1530.896 371.333,1531.628 372.333,1531.896"/>
      <polygon points="173.333,1531.628 174.065,1530.896 174.333,1529.896 174.065,1528.896 173.333,1528.164 172.333,1527.896 171.333,1528.164 170.601,1528.896 170.333,1529.896 170.601,1530.896 171.333,1531.628 172.333,1531.896"/>
      <polygon points="193.333,1531.628 194.065,1530.896 194.333,1529.896 194.065,1528.896 193.333,1528.164 192.333,1527.896 191.333,1528.164 190.601,1528.896 190.333,1529.896 190.601,1530.896 191.333,1531.628 192.333,1531.896"/>
      <polygon points="213.333,1531.628 214.065,1530.896 214.333,1529.896 214.065,1528.896 213.333,1528.164 212.333,1527.896 211.333,1528.164 210.601,1528.896 210.333,1529.896 210.601,1530.896 211.333,1531.628 212.333,1531.896"/>
      <polygon points="393.333,1531.628 394.065,1530.896 394.333,1529.896 394.065,1528.896 393.333,1528.164 392.333,1527.896 391.333,1528.164 390.601,1528.896 390.333,1529.896 390.601,1530.896 391.333,1531.628 392.333,1531.896"/>
      <polygon points="233.333,1531.628 234.065,1530.896 234.333,1529.896 234.065,1528.896 233.333,1528.164 232.333,1527.896 231.333,1528.164 230.601,1528.896 230.333,1529.896 230.601,1530.896 231.333,1531.628 232.333,1531.896"/>
      <polygon points="431.802,1528.038 431.333,1528.164 430.601,1528.896 430.333,1529.896 430.601,1530.896 431.333,1531.628 431.802,1531.754"/>
      <polygon points="293.890,1552.152 294.760,1551.170 295.074,1549.896 294.760,1548.622 293.890,1547.641 292.664,1547.175 291.361,1547.334 290.282,1548.079 289.672,1549.240 289.672,1550.552 290.282,1551.714 291.361,1552.459 292.664,1552.617"/>
      <polygon points="313.827,1552.060 314.661,1551.118 314.963,1549.896 314.661,1548.674 313.827,1547.732 312.650,1547.286 311.401,1547.438 310.365,1548.153 309.781,1549.267 309.781,1550.525 310.365,1551.640 311.401,1552.355 312.650,1552.506"/>
      <polygon points="273.533,1551.973 274.410,1551.095 274.732,1549.896 274.410,1548.697 273.533,1547.819 272.333,1547.498 271.134,1547.819 270.256,1548.697 269.935,1549.896 270.256,1551.095 271.134,1551.973 272.333,1552.295"/>
      <polygon points="333.473,1551.870 334.307,1551.036 334.612,1549.896 334.307,1548.757 333.473,1547.922 332.333,1547.617 331.194,1547.922 330.360,1548.757 330.054,1549.896 330.360,1551.036 331.194,1551.870 332.333,1552.175"/>
      <polygon points="253.349,1551.656 254.093,1550.912 254.365,1549.896 254.093,1548.880 253.349,1548.137 252.333,1547.864 251.317,1548.137 250.574,1548.880 250.302,1549.896 250.574,1550.912 251.317,1551.656 252.333,1551.928"/>
      <polygon points="353.349,1551.656 354.093,1550.912 354.365,1549.896 354.093,1548.880 353.349,1548.137 352.333,1547.864 351.317,1548.137 350.574,1548.880 350.302,1549.896 350.574,1550.912 351.317,1551.656 352.333,1551.928"/>
      <polygon points="213.333,1551.628 214.065,1550.896 214.333,1549.896 214.065,1548.896 213.333,1548.164 212.333,1547.896 211.333,1548.164 210.601,1548.896 210.333,1549.896 210.601,1550.896 211.333,1551.628 212.333,1551.896"/>
      <polygon points="173.333,1551.628 174.065,1550.896 174.333,1549.896 174.065,1548.896 173.333,1548.164 172.333,1547.896 171.333,1548.164 170.601,1548.896 170.333,1549.896 170.601,1550.896 171.333,1551.628 172.333,1551.896"/>
      <polygon points="373.333,1551.628 374.065,1550.896 374.333,1549.896 374.065,1548.896 373.333,1548.164 372.333,1547.896 371.333,1548.164 370.601,1548.896 370.333,1549.896 370.601,1550.896 371.333,1551.628 372.333,1551.896"/>
      <polygon points="193.333,1551.628 194.065,1550.896 194.333,1549.896 194.065,1548.896 193.333,1548.164 192.333,1547.896 191.333,1548.164 190.601,1548.896 190.333,1549.896 190.601,1550.896 191.333,1551.628 192.333,1551.896"/>
      <polygon points="233.333,1551.628 234.065,1550.896 234.333,1549.896 234.065,1548.896 233.333,1548.164 232.333,1547.896 231.333,1548.164 230.601,1548.896 230.333,1549.896 230.601,1550.896 231.333,1551.628 232.333,1551.896"/>
      <polygon points="393.333,1551.628 394.065,1550.896 394.333,1549.896 394.065,1548.896 393.333,1548.164 392.333,1547.896 391.333,1548.164 390.601,1548.896 390.333,1549.896 390.601,1550.896 391.333,1551.628 392.333,1551.896"/>
      <polygon points="413.333,1551.628 414.065,1550.896 414.333,1549.896 414.065,1548.896 413.333,1548.164 412.333,1547.896 411.333,1548.164 410.601,1548.896 410.333,1549.896 410.601,1550.896 411.333,1551.628 412.333,1551.896"/>
      <polygon points="431.802,1548.038 431.333,1548.164 430.601,1548.896 430.333,1549.896 430.601,1550.896 431.333,1551.628 431.802,1551.754"/>
      <polygon points="293.890,1572.152 294.760,1571.170 295.074,1569.896 294.760,1568.622 293.890,1567.641 292.664,1567.175 291.361,1567.334 290.282,1568.079 289.672,1569.240 289.672,1570.552 290.282,1571.714 291.361,1572.459 292.664,1572.617"/>
      <polygon points="313.827,1572.060 314.661,1571.118 314.963,1569.896 314.661,1568.674 313.827,1567.732 312.650,1567.286 311.401,1567.438 310.365,1568.153 309.781,1569.267 309.781,1570.525 310.365,1571.640 311.401,1572.355 312.650,1572.506"/>
      <polygon points="273.533,1571.973 274.410,1571.095 274.732,1569.896 274.410,1568.697 273.533,1567.819 272.333,1567.498 271.134,1567.819 270.256,1568.697 269.935,1569.896 270.256,1571.095 271.134,1571.973 272.333,1572.295"/>
      <polygon points="333.473,1571.870 334.307,1571.036 334.612,1569.896 334.307,1568.757 333.473,1567.922 332.333,1567.617 331.194,1567.922 330.360,1568.757 330.054,1569.896 330.360,1571.036 331.194,1571.870 332.333,1572.175"/>
      <polygon points="253.349,1571.656 254.093,1570.912 254.365,1569.896 254.093,1568.880 253.349,1568.137 252.333,1567.864 251.317,1568.137 250.574,1568.880 250.302,1569.896 250.574,1570.912 251.317,1571.656 252.333,1571.928"/>
      <polygon points="353.349,1571.656 354.093,1570.912 354.365,1569.896 354.093,1568.880 353.349,1568.137 352.333,1567.864 351.317,1568.137 350.574,1568.880 350.302,1569.896 350.574,1570.912 351.317,1571.656 352.333,1571.928"/>
      <polygon points="233.333,1571.628 234.065,1570.896 234.333,1569.896 234.065,1568.896 233.333,1568.164 232.333,1567.896 231.333,1568.164 230.601,1568.896 230.333,1569.896 230.601,1570.896 231.333,1571.628 232.333,1571.896"/>
      <polygon points="213.333,1571.628 214.065,1570.896 214.333,1569.896 214.065,1568.896 213.333,1568.164 212.333,1567.896 211.333,1568.164 210.601,1568.896 210.333,1569.896 210.601,1570.896 211.333,1571.628 212.333,1571.896"/>
      <polygon points="173.333,1571.628 174.065,1570.896 174.333,1569.896 174.065,1568.896 173.333,1568.164 172.333,1567.896 171.333,1568.164 170.601,1568.896 170.333,1569.896 170.601,1570.896 171.333,1571.628 172.333,1571.896"/>
      <polygon points="373.333,1571.628 374.065,1570.896 374.333,1569.896 374.065,1568.896 373.333,1568.164 372.333,1567.896 371.333,1568.164 370.601,1568.896 370.333,1569.896 370.601,1570.896 371.333,1571.628 372.333,1571.896"/>
      <polygon points="193.333,1571.628 194.065,1570.896 194.333,1569.896 194.065,1568.896 193.333,1568.164 192.333,1567.896 191.333,1568.164 190.601,1568.896 190.333,1569.896 190.601,1570.896 191.333,1571.628 192.333,1571.896"/>
      <polygon points="393.333,1571.628 394.065,1570.896 394.333,1569.896 394.065,1568.896 393.333,1568.164 392.333,1567.896 391.333,1568.164 390.601,1568.896 390.333,1569.896 390.601,1570.896 391.333,1571.628 392.333,1571.896"/>
      <polygon points="413.333,1571.628 414.065,1570.896 414.333,1569.896 414.065,1568.896 413.333,1568.164 412.333,1567.896 411.333,1568.164 410.601,1568.896 410.333,1569.896 410.601,1570.896 411.333,1571.628 412.333,1571.896"/>
      <polygon points="431.802,1568.038 431.333,1568.164 430.601,1568.896 430.333,1569.896 430.601,1570.896 431.333,1571.628 431.802,1571.754"/>
      <polygon points="293.890,1592.152 294.760,1591.170 295.074,1589.896 294.760,1588.622 293.890,1587.641 292.664,1587.175 291.361,1587.334 290.282,1588.079 289.672,1589.240 289.672,1590.552 290.282,1591.714 291.361,1592.459 292.664,1592.617"/>
      <polygon points="313.827,1592.060 314.661,1591.118 314.963,1589.896 314.661,1588.674 313.827,1587.732 312.650,1587.286 311.401,1587.438 310.365,1588.153 309.781,1589.267 309.781,1590.525 310.365,1591.640 311.401,1592.355 312.650,1592.506"/>
      <polygon points="273.533,1591.973 274.410,1591.095 274.732,1589.896 274.410,1588.697 273.533,1587.819 272.333,1587.498 271.134,1587.819 270.256,1588.697 269.935,1589.896 270.256,1591.095 271.134,1591.973 272.333,1592.295"/>
      <polygon points="333.473,1591.870 334.307,1591.036 334.612,1589.896 334.307,1588.757 333.473,1587.922 332.333,1587.617 331.194,1587.922 330.360,1588.757 330.054,1589.896 330.360,1591.036 331.194,1591.870 332.333,1592.175"/>
      <polygon points="353.349,1591.656 354.093,1590.912 354.365,1589.896 354.093,1588.880 353.349,1588.137 352.333,1587.864 351.317,1588.137 350.574,1588.880 350.302,1589.896 350.574,1590.912 351.317,1591.656 352.333,1591.928"/>
      <polygon points="253.349,1591.656 254.093,1590.912 254.365,1589.896 254.093,1588.880 253.349,1588.137 252.333,1587.864 251.317,1588.137 250.574,1588.880 250.302,1589.896 250.574,1590.912 251.317,1591.656 252.333,1591.928"/>
      <polygon points="173.333,1591.628 174.065,1590.896 174.333,1589.896 174.065,1588.896 173.333,1588.164 172.333,1587.896 171.333,1588.164 170.601,1588.896 170.333,1589.896 170.601,1590.896 171.333,1591.628 172.333,1591.896"/>
      <polygon points="413.333,1591.628 414.065,1590.896 414.333,1589.896 414.065,1588.896 413.333,1588.164 412.333,1587.896 411.333,1588.164 410.601,1588.896 410.333,1589.896 410.601,1590.896 411.333,1591.628 412.333,1591.896"/>
      <polygon points="193.333,1591.628 194.065,1590.896 194.333,1589.896 194.065,1588.896 193.333,1588.164 192.333,1587.896 191.333,1588.164 190.601,1588.896 190.333,1589.896 190.601,1590.896 191.333,1591.628 192.333,1591.896"/>
      <polygon points="213.333,1591.628 214.065,1590.896 214.333,1589.896 214.065,1588.896 213.333,1588.164 212.333,1587.896 211.333,1588.164 210.601,1588.896 210.333,1589.896 210.601,1590.896 211.333,1591.628 212.333,1591.896"/>
      <polygon points="233.333,1591.628 234.065,1590.896 234.333,1589.896 234.065,1588.896 233.333,1588.164 232.333,1587.896 231.333,1588.164 230.601,1588.896 230.333,1589.896 230.601,1590.896 231.333,1591.628 232.333,1591.896"/>
      <polygon points="373.333,1591.628 374.065,1590.896 374.333,1589.896 374.065,1588.896 373.333,1588.164 372.333,1587.896 371.333,1588.164 370.601,1588.896 370.333,1589.896 370.601,1590.896 371.333,1591.628 372.333,1591.896"/>
      <polygon points="393.333,1591.628 394.065,1590.896 394.333,1589.896 394.065,1588.896 393.333,1588.164 392.333,1587.896 391.333,1588.164 390.601,1588.896 390.333,1589.896 390.601,1590.896 391.333,1591.628 392.333,1591.896"/>
      <polygon points="431.802,1588.038 431.333,1588.164 430.601,1588.896 430.333,1589.896 430.601,1590.896 431.333,1591.628 431.802,1591.754"/>
      <polygon points="293.890,1612.152 294.760,1611.170 295.074,1609.896 294.760,1608.622 293.890,1607.641 292.664,1607.175 291.361,1607.334 290.282,1608.079 289.672,1609.240 289.672,1610.552 290.282,1611.714 291.361,1612.459 292.664,1612.617"/>
      <polygon points="313.827,1612.060 314.661,1611.118 314.963,1609.896 314.661,1608.674 313.827,1607.732 312.650,1607.286 311.401,1607.438 310.365,1608.153 309.781,1609.267 309.781,1610.525 310.365,1611.640 311.401,1612.355 312.650,1612.506"/>
      <polygon points="273.533,1611.973 274.410,1611.095 274.732,1609.896 274.410,1608.697 273.533,1607.819 272.333,1607.498 271.134,1607.819 270.256,1608.697 269.935,1609.896 270.256,1611.095 271.134,1611.973 272.333,1612.295"/>
      <polygon points="333.473,1611.870 334.307,1611.036 334.612,1609.896 334.307,1608.757 333.473,1607.922 332.333,1607.617 331.194,1607.922 330.360,1608.757 330.054,1609.896 330.360,1611.036 331.194,1611.870 332.333,1612.175"/>
      <polygon points="353.349,1611.656 354.093,1610.912 354.365,1609.896 354.093,1608.880 353.349,1608.137 352.333,1607.864 351.317,1608.137 350.574,1608.880 350.302,1609.896 350.574,1610.912 351.317,1611.656 352.333,1611.928"/>
      <polygon points="253.349,1611.656 254.093,1610.912 254.365,1609.896 254.093,1608.880 253.349,1608.137 252.333,1607.864 251.317,1608.137 250.574,1608.880 250.302,1609.896 250.574,1610.912 251.317,1611.656 252.333,1611.928"/>
      <polygon points="193.333,1611.628 194.065,1610.896 194.333,1609.896 194.065,1608.896 193.333,1608.164 192.333,1607.896 191.333,1608.164 190.601,1608.896 190.333,1609.896 190.601,1610.896 191.333,1611.628 192.333,1611.896"/>
      <polygon points="393.333,1611.628 394.065,1610.896 394.333,1609.896 394.065,1608.896 393.333,1608.164 392.333,1607.896 391.333,1608.164 390.601,1608.896 390.333,1609.896 390.601,1610.896 391.333,1611.628 392.333,1611.896"/>
      <polygon points="173.333,1611.628 174.065,1610.896 174.333,1609.896 174.065,1608.896 173.333,1608.164 172.333,1607.896 171.333,1608.164 170.601,1608.896 170.333,1609.896 170.601,1610.896 171.333,1611.628 172.333,1611.896"/>
      <polygon points="213.333,1611.628 214.065,1610.896 214.333,1609.896 214.065,1608.896 213.333,1608.164 212.333,1607.896 211.333,1608.164 210.601,1608.896 210.333,1609.896 210.601,1610.896 211.333,1611.628 212.333,1611.896"/>
      <polygon points="233.333,1611.628 234.065,1610.896 234.333,1609.896 234.065,1608.896 233.333,1608.164 232.333,1607.896 231.333,1608.164 230.601,1608.896 230.333,1609.896 230.601,1610.896 231.333,1611.628 232.333,1611.896"/>
      <polygon points="373.333,1611.628 374.065,1610.896 374.333,1609.896 374.065,1608.896 373.333,1608.164 372.333,1607.896 371.333,1608.164 370.601,1608.896 370.333,1609.896 370.601,1610.896 371.333,1611.628 372.333,1611.896"/>
      <polygon points="413.333,1611.628 414.065,1610.896 414.333,1609.896 414.065,1608.896 413.333,1608.164 412.333,1607.896 411.333,1608.164 410.601,1608.896 410.333,1609.896 410.601,1610.896 411.333,1611.628 412.333,1611.896"/>
      <polygon points="431.802,1608.038 431.333,1608.164 430.601,1608.896 430.333,1609.896 430.601,1610.896 431.333,1611.628 431.802,1611.754"/>
      <polygon points="293.890,1632.152 294.760,1631.170 295.074,1629.896 294.760,1628.622 293.890,1627.641 292.664,1627.175 291.361,1627.334 290.282,1628.079 289.672,1629.240 289.672,1630.552 290.282,1631.714 291.361,1632.459 292.664,1632.617"/>
      <polygon points="313.827,1632.060 314.661,1631.118 314.963,1629.896 314.661,1628.674 313.827,1627.732 312.650,1627.286 311.401,1627.438 310.365,1628.153 309.781,1629.267 309.781,1630.525 310.365,1631.640 311.401,1632.355 312.650,1632.506"/>
      <polygon points="273.533,1631.973 274.410,1631.095 274.732,1629.896 274.410,1628.697 273.533,1627.819 272.333,1627.498 271.134,1627.819 270.256,1628.697 269.935,1629.896 270.256,1631.095 271.134,1631.973 272.333,1632.295"/>
      <polygon points="333.473,1631.870 334.307,1631.036 334.612,1629.896 334.307,1628.757 333.473,1627.922 332.333,1627.617 331.194,1627.922 330.360,1628.757 330.054,1629.896 330.360,1631.036 331.194,1631.870 332.333,1632.175"/>
      <polygon points="353.349,1631.656 354.093,1630.912 354.365,1629.896 354.093,1628.880 353.349,1628.137 352.333,1627.864 351.317,1628.137 350.574,1628.880 350.302,1629.896 350.574,1630.912 351.317,1631.656 352.333,1631.928"/>
      <polygon points="253.349,1631.656 254.093,1630.912 254.365,1629.896 254.093,1628.880 253.349,1628.137 252.333,1627.864 251.317,1628.137 250.574,1628.880 250.302,1629.896 250.574,1630.912 251.317,1631.656 252.333,1631.928"/>
      <polygon points="233.333,1631.628 234.065,1630.896 234.333,1629.896 234.065,1628.896 233.333,1628.164 232.333,1627.896 231.333,1628.164 230.601,1628.896 230.333,1629.896 230.601,1630.896 231.333,1631.628 232.333,1631.896"/>
      <polygon points="393.333,1631.628 394.065,1630.896 394.333,1629.896 394.065,1628.896 393.333,1628.164 392.333,1627.896 391.333,1628.164 390.601,1628.896 390.333,1629.896 390.601,1630.896 391.333,1631.628 392.333,1631.896"/>
      <polygon points="413.333,1631.628 414.065,1630.896 414.333,1629.896 414.065,1628.896 413.333,1628.164 412.333,1627.896 411.333,1628.164 410.601,1628.896 410.333,1629.896 410.601,1630.896 411.333,1631.628 412.333,1631.896"/>
      <polygon points="173.333,1631.628 174.065,1630.896 174.333,1629.896 174.065,1628.896 173.333,1628.164 172.333,1627.896 171.333,1628.164 170.601,1628.896 170.333,1629.896 170.601,1630.896 171.333,1631.628 172.333,1631.896"/>
      <polygon points="193.333,1631.628 194.065,1630.896 194.333,1629.896 194.065,1628.896 193.333,1628.164 192.333,1627.896 191.333,1628.164 190.601,1628.896 190.333,1629.896 190.601,1630.896 191.333,1631.628 192.333,1631.896"/>
      <polygon points="373.333,1631.628 374.065,1630.896 374.333,1629.896 374.065,1628.896 373.333,1628.164 372.333,1627.896 371.333,1628.164 370.601,1628.896 370.333,1629.896 370.601,1630.896 371.333,1631.628 372.333,1631.896"/>
      <polygon points="213.333,1631.628 214.065,1630.896 214.333,1629.896 214.065,1628.896 213.333,1628.164 212.333,1627.896 211.333,1628.164 210.601,1628.896 210.333,1629.896 210.601,1630.896 211.333,1631.628 212.333,1631.896"/>
      <polygon points="431.802,1628.038 431.333,1628.164 430.601,1628.896 430.333,1629.896 430.601,1630.896 431.333,1631.628 431.802,1631.754"/>
      <polygon points="293.890,1652.152 294.760,1651.170 295.074,1649.896 294.760,1648.622 293.890,1647.641 292.664,1647.175 291.361,1647.334 290.282,1648.079 289.672,1649.240 289.672,1650.552 290.282,1651.714 291.361,1652.459 292.664,1652.617"/>
      <polygon points="313.827,1652.060 314.661,1651.118 314.963,1649.896 314.661,1648.674 313.827,1647.732 312.650,1647.286 311.401,1647.438 310.365,1648.153 309.781,1649.267 309.781,1650.525 310.365,1651.640 311.401,1652.355 312.650,1652.506"/>
      <polygon points="273.533,1651.973 274.410,1651.095 274.732,1649.896 274.410,1648.697 273.533,1647.819 272.333,1647.498 271.134,1647.819 270.256,1648.697 269.935,1649.896 270.256,1651.095 271.134,1651.973 272.333,1652.295"/>
      <polygon points="333.473,1651.870 334.307,1651.036 334.612,1649.896 334.307,1648.757 333.473,1647.922 332.333,1647.617 331.194,1647.922 330.360,1648.757 330.054,1649.896 330.360,1651.036 331.194,1651.870 332.333,1652.175"/>
      <polygon points="253.349,1651.656 254.093,1650.912 254.365,1649.896 254.093,1648.880 253.349,1648.137 252.333,1647.864 251.317,1648.137 250.574,1648.880 250.302,1649.896 250.574,1650.912 251.317,1651.656 252.333,1651.928"/>
      <polygon points="353.349,1651.656 354.093,1650.912 354.365,1649.896 354.093,1648.880 353.349,1648.137 352.333,1647.864 351.317,1648.137 350.574,1648.880 350.302,1649.896 350.574,1650.912 351.317,1651.656 352.333,1651.928"/>
      <polygon points="213.333,1651.628 214.065,1650.896 214.333,1649.896 214.065,1648.896 213.333,1648.164 212.333,1647.896 211.333,1648.164 210.601,1648.896 210.333,1649.896 210.601,1650.896 211.333,1651.628 212.333,1651.896"/>
      <polygon points="173.333,1651.628 174.065,1650.896 174.333,1649.896 174.065,1648.896 173.333,1648.164 172.333,1647.896 171.333,1648.164 170.601,1648.896 170.333,1649.896 170.601,1650.896 171.333,1651.628 172.333,1651.896"/>
      <polygon points="193.333,1651.628 194.065,1650.896 194.333,1649.896 194.065,1648.896 193.333,1648.164 192.333,1647.896 191.333,1648.164 190.601,1648.896 190.333,1649.896 190.601,1650.896 191.333,1651.628 192.333,1651.896"/>
      <polygon points="233.333,1651.628 234.065,1650.896 234.333,1649.896 234.065,1648.896 233.333,1648.164 232.333,1647.896 231.333,1648.164 230.601,1648.896 230.333,1649.896 230.601,1650.896 231.333,1651.628 232.333,1651.896"/>
      <polygon points="393.333,1651.628 394.065,1650.896 394.333,1649.896 394.065,1648.896 393.333,1648.164 392.333,1647.896 391.333,1648.164 390.601,1648.896 390.333,1649.896 390.601,1650.896 391.333,1651.628 392.333,1651.896"/>
      <polygon points="413.333,1651.628 414.065,1650.896 414.333,1649.896 414.065,1648.896 413.333,1648.164 412.333,1647.896 411.333,1648.164 410.601,1648.896 410.333,1649.896 410.601,1650.896 411.333,1651.628 412.333,1651.896"/>
      <polygon points="373.333,1651.628 374.065,1650.896 374.333,1649.896 374.065,1648.896 373.333,1648.164 372.333,1647.896 371.333,1648.164 370.601,1648.896 370.333,1649.896 370.601,1650.896 371.333,1651.628 372.333,1651.896"/>
      <polygon points="431.802,1648.038 431.333,1648.164 430.601,1648.896 430.333,1649.896 430.601,1650.896 431.333,1651.628 431.802,1651.754"/>
      <polygon points="293.890,1672.152 294.760,1671.170 295.074,1669.896 294.760,1668.622 293.890,1667.641 292.664,1667.175 291.361,1667.334 290.282,1668.079 289.672,1669.240 289.672,1670.552 290.282,1671.714 291.361,1672.459 292.664,1672.617"/>
      <polygon points="313.827,1672.060 314.661,1671.118 314.963,1669.896 314.661,1668.674 313.827,1667.732 312.650,1667.286 311.401,1667.438 310.365,1668.153 309.781,1669.267 309.781,1670.525 310.365,1671.640 311.401,1672.355 312.650,1672.506"/>
      <polygon points="273.533,1671.973 274.410,1671.095 274.732,1669.896 274.410,1668.697 273.533,1667.819 272.333,1667.498 271.134,1667.819 270.256,1668.697 269.935,1669.896 270.256,1671.095 271.134,1671.973 272.333,1672.295"/>
      <polygon points="333.473,1671.870 334.307,1671.036 334.612,1669.896 334.307,1668.757 333.473,1667.922 332.333,1667.617 331.194,1667.922 330.360,1668.757 330.054,1669.896 330.360,1671.036 331.194,1671.870 332.333,1672.175"/>
      <polygon points="253.349,1671.656 254.093,1670.912 254.365,1669.896 254.093,1668.880 253.349,1668.137 252.333,1667.864 251.317,1668.137 250.574,1668.880 250.302,1669.896 250.574,1670.912 251.317,1671.656 252.333,1671.928"/>
      <polygon points="353.349,1671.656 354.093,1670.912 354.365,1669.896 354.093,1668.880 353.349,1668.137 352.333,1667.864 351.317,1668.137 350.574,1668.880 350.302,1669.896 350.574,1670.912 351.317,1671.656 352.333,1671.928"/>
      <polygon points="173.333,1671.628 174.065,1670.896 174.333,1669.896 174.065,1668.896 173.333,1668.164 172.333,1667.896 171.333,1668.164 170.601,1668.896 170.333,1669.896 170.601,1670.896 171.333,1671.628 172.333,1671.896"/>
      <polygon points="193.333,1671.628 194.065,1670.896 194.333,1669.896 194.065,1668.896 193.333,1668.164 192.333,1667.896 191.333,1668.164 190.601,1668.896 190.333,1669.896 190.601,1670.896 191.333,1671.628 192.333,1671.896"/>
      <polygon points="213.333,1671.628 214.065,1670.896 214.333,1669.896 214.065,1668.896 213.333,1668.164 212.333,1667.896 211.333,1668.164 210.601,1668.896 210.333,1669.896 210.601,1670.896 211.333,1671.628 212.333,1671.896"/>
      <polygon points="233.333,1671.628 234.065,1670.896 234.333,1669.896 234.065,1668.896 233.333,1668.164 232.333,1667.896 231.333,1668.164 230.601,1668.896 230.333,1669.896 230.601,1670.896 231.333,1671.628 232.333,1671.896"/>
      <polygon points="373.333,1671.628 374.065,1670.896 374.333,1669.896 374.065,1668.896 373.333,1668.164 372.333,1667.896 371.333,1668.164 370.601,1668.896 370.333,1669.896 370.601,1670.896 371.333,1671.628 372.333,1671.896"/>
      <polygon points="393.333,1671.628 394.065,1670.896 394.333,1669.896 394.065,1668.896 393.333,1668.164 392.333,1667.896 391.333,1668.164 390.601,1668.896 390.333,1669.896 390.601,1670.896 391.333,1671.628 392.333,1671.896"/>
      <polygon points="413.333,1671.628 414.065,1670.896 414.333,1669.896 414.065,1668.896 413.333,1668.164 412.333,1667.896 411.333,1668.164 410.601,1668.896 410.333,1669.896 410.601,1670.896 411.333,1671.628 412.333,1671.896"/>
      <polygon points="431.802,1668.038 431.333,1668.164 430.601,1668.896 430.333,1669.896 430.601,1670.896 431.333,1671.628 431.802,1671.754"/>
    </g>
    <g stroke="#EF6C00" stroke-width="0.4" fill="none">
    </g>
  </g>
  <g stroke="#000000" stroke-width="0.4">
    <line x1="500.000" y1="1000.000" x2="1500.000" y2="1000.000"/>
  </g>
  <g stroke="#000000" stroke-width="0.4">
    <line x1="1000.000" y1="500.000" x2="1000.000" y2="1500.000"/>
  </g>
  <circle cx="1000.000" cy="1000.000" r="1000.000" stroke="red" stroke-width="1" fill="none"/>
  </g>
</svg>
