<?xml version="1.0" encoding="UTF-8"?>
<svg xmlns="http://www.w3.org/2000/svg" version="1.1" width="2000" height="2000">
  <g fill="none" stroke-linecap="round" stroke-linejoin="round">
  <text x="10" y="20" font-size="24" fill="#555">Layer 269 Z=65.800 mm</text>
  <g transform="translate(700.000,-602.229)">
    <g stroke="#2E7D32" stroke-width="0.4">
      <line x1="209.957" y1="1629.491" x2="159.957" y2="1629.491"/>
      <line x1="209.957" y1="1630.491" x2="159.957" y2="1630.491"/>
      <line x1="209.957" y1="1631.491" x2="159.957" y2="1631.491"/>
      <line x1="209.957" y1="1632.491" x2="159.957" y2="1632.491"/>
      <line x1="209.957" y1="1633.491" x2="159.957" y2="1633.491"/>
      <line x1="209.957" y1="1634.491" x2="159.957" y2="1634.491"/>
      <line x1="209.957" y1="1635.491" x2="159.957" y2="1635.491"/>
      <line x1="209.957" y1="1636.491" x2="159.957" y2="1636.491"/>
      <line x1="209.957" y1="1637.491" x2="159.957" y2="1637.491"/>
      <line x1="209.957" y1="1638.491" x2="159.957" y2="1638.491"/>
      <line x1="209.957" y1="1639.491" x2="159.957" y2="1639.491"/>
      <line x1="209.957" y1="1640.491" x2="159.957" y2="1640.491"/>
      <line x1="209.957" y1="1641.491" x2="159.957" y2="1641.491"/>
      <line x1="209.957" y1="1642.491" x2="159.957" y2="1642.491"/>
      <line x1="209.957" y1="1643.491" x2="159.957" y2="1643.491"/>
      <line x1="209.957" y1="1644.491" x2="159.957" y2="1644.491"/>
      <line x1="209.957" y1="1645.491" x2="159.957" y2="1645.491"/>
      <line x1="209.957" y1="1646.491" x2="159.957" y2="1646.491"/>
      <line x1="209.957" y1="1647.491" x2="159.957" y2="1647.491"/>
      <line x1="209.957" y1="1648.491" x2="159.957" y2="1648.491"/>
      <line x1="209.957" y1="1649.491" x2="159.957" y2="1649.491"/>
      <line x1="209.957" y1="1650.491" x2="159.957" y2="1650.491"/>
      <line x1="209.957" y1="1651.491" x2="159.957" y2="1651.491"/>
      <line x1="209.957" y1="1652.491" x2="159.957" y2="1652.491"/>
      <line x1="209.957" y1="1653.491" x2="159.957" y2="1653.491"/>
      <line x1="209.957" y1="1654.491" x2="159.957" y2="1654.491"/>
      <line x1="209.957" y1="1655.491" x2="159.957" y2="1655.491"/>
      <line x1="209.957" y1="1656.491" x2="159.957" y2="1656.491"/>
      <line x1="209.957" y1="1657.491" x2="159.957" y2="1657.491"/>
      <line x1="209.957" y1="1658.491" x2="159.957" y2="1658.491"/>
      <line x1="209.957" y1="1659.491" x2="159.957" y2="1659.491"/>
      <line x1="209.957" y1="1660.491" x2="159.957" y2="1660.491"/>
      <line x1="209.957" y1="1661.491" x2="159.957" y2="1661.491"/>
      <line x1="209.957" y1="1662.491" x2="159.957" y2="1662.491"/>
      <line x1="209.957" y1="1663.491" x2="159.957" y2="1663.491"/>
      <line x1="209.957" y1="1664.491" x2="159.957" y2="1664.491"/>
      <line x1="209.957" y1="1665.491" x2="159.957" y2="1665.491"/>
      <line x1="209.957" y1="1666.491" x2="159.957" y2="1666.491"/>
      <line x1="209.957" y1="1667.491" x2="159.957" y2="1667.491"/>
      <line x1="209.957" y1="1668.491" x2="159.957" y2="1668.491"/>
      <line x1="209.957" y1="1669.491" x2="159.957" y2="1669.491"/>
      <line x1="209.957" y1="1670.491" x2="159.957" y2="1670.491"/>
      <line x1="209.957" y1="1671.491" x2="159.957" y2="1671.491"/>
      <line x1="209.957" y1="1672.491" x2="159.957" y2="1672.491"/>
      <line x1="209.957" y1="1673.491" x2="159.957" y2="1673.491"/>
      <line x1="209.957" y1="1674.491" x2="159.957" y2="1674.491"/>
      <line x1="209.957" y1="1675.491" x2="159.957" y2="1675.491"/>
      <line x1="209.957" y1="1676.491" x2="159.957" y2="1676.491"/>
      <line x1="209.957" y1="1677.491" x2="159.957" y2="1677.491"/>
      <line x1="209.957" y1="1678.491" x2="159.957" y2="1678.491"/>
      <line x1="260.057" y1="1629.491" x2="210.057" y2="1629.491"/>
      <line x1="260.057" y1="1630.491" x2="210.057" y2="1630.491"/>
      <line x1="260.057" y1="1631.491" x2="210.057" y2="1631.491"/>
      <line x1="260.057" y1="1632.491" x2="210.057" y2="1632.491"/>
      <line x1="260.057" y1="1633.491" x2="210.057" y2="1633.491"/>
      <line x1="260.057" y1="1634.491" x2="210.057" y2="1634.491"/>
      <line x1="260.057" y1="1635.491" x2="210.057" y2="1635.491"/>
      <line x1="260.057" y1="1636.491" x2="210.057" y2="1636.491"/>
      <line x1="260.057" y1="1637.491" x2="210.057" y2="1637.491"/>
      <line x1="260.057" y1="1638.491" x2="210.057" y2="1638.491"/>
      <line x1="260.057" y1="1639.491" x2="210.057" y2="1639.491"/>
      <line x1="260.057" y1="1640.491" x2="210.057" y2="1640.491"/>
      <line x1="260.057" y1="1641.491" x2="210.057" y2="1641.491"/>
      <line x1="260.057" y1="1642.491" x2="210.057" y2="1642.491"/>
      <line x1="260.057" y1="1643.491" x2="210.057" y2="1643.491"/>
      <line x1="260.057" y1="1644.491" x2="210.057" y2="1644.491"/>
      <line x1="260.057" y1="1645.491" x2="210.057" y2="1645.491"/>
      <line x1="260.057" y1="1646.491" x2="210.057" y2="1646.491"/>
      <line x1="260.057" y1="1647.491" x2="210.057" y2="1647.491"/>
      <line x1="260.057" y1="1648.491" x2="210.057" y2="1648.491"/>
      <line x1="260.057" y1="1649.491" x2="210.057" y2="1649.491"/>
      <line x1="260.057" y1="1650.491" x2="210.057" y2="1650.491"/>
      <line x1="260.057" y1="1651.491" x2="210.057" y2="1651.491"/>
      <line x1="260.057" y1="1652.491" x2="210.057" y2="1652.491"/>
      <line x1="260.057" y1="1653.491" x2="210.057" y2="1653.491"/>
      <line x1="260.057" y1="1654.491" x2="210.057" y2="1654.491"/>
      <line x1="260.057" y1="1655.491" x2="210.057" y2="1655.491"/>
      <line x1="260.057" y1="1656.491" x2="210.057" y2="1656.491"/>
      <line x1="260.057" y1="1657.491" x2="210.057" y2="1657.491"/>
      <line x1="260.057" y1="1658.491" x2="210.057" y2="1658.491"/>
      <line x1="260.057" y1="1659.491" x2="210.057" y2="1659.491"/>
      <line x1="260.057" y1="1660.491" x2="210.057" y2="1660.491"/>
      <line x1="260.057" y1="1661.491" x2="210.057" y2="1661.491"/>
      <line x1="260.057" y1="1662.491" x2="210.057" y2="1662.491"/>
      <line x1="260.057" y1="1663.491" x2="210.057" y2="1663.491"/>
      <line x1="260.057" y1="1664.491" x2="210.057" y2="1664.491"/>
      <line x1="260.057" y1="1665.491" x2="210.057" y2="1665.491"/>
      <line x1="260.057" y1="1666.491" x2="210.057" y2="1666.491"/>
      <line x1="260.057" y1="1667.491" x2="210.057" y2="1667.491"/>
      <line x1="260.057" y1="1668.491" x2="210.057" y2="1668.491"/>
      <line x1="260.057" y1="1669.491" x2="210.057" y2="1669.491"/>
      <line x1="260.057" y1="1670.491" x2="210.057" y2="1670.491"/>
      <line x1="260.057" y1="1671.491" x2="210.057" y2="1671.491"/>
      <line x1="260.057" y1="1672.491" x2="210.057" y2="1672.491"/>
      <line x1="260.057" y1="1673.491" x2="210.057" y2="1673.491"/>
      <line x1="260.057" y1="1674.491" x2="210.057" y2="1674.491"/>
      <line x1="260.057" y1="1675.491" x2="210.057" y2="1675.491"/>
      <line x1="260.057" y1="1676.491" x2="210.057" y2="1676.491"/>
      <line x1="260.057" y1="1677.491" x2="210.057" y2="1677.491"/>
      <line x1="260.057" y1="1678.491" x2="210.057" y2="1678.491"/>
      <line x1="310.157" y1="1629.491" x2="260.157" y2="1629.491"/>
      <line x1="310.157" y1="1630.491" x2="260.157" y2="1630.491"/>
      <line x1="310.157" y1="1631.491" x2="260.157" y2="1631.491"/>
      <line x1="310.157" y1="1632.491" x2="260.157" y2="1632.491"/>
      <line x1="310.157" y1="1633.491" x2="260.157" y2="1633.491"/>
      <line x1="310.157" y1="1634.491" x2="260.157" y2="1634.491"/>
      <line x1="310.157" y1="1635.491" x2="260.157" y2="1635.491"/>
      <line x1="310.157" y1="1636.491" x2="260.157" y2="1636.491"/>
      <line x1="310.157" y1="1637.491" x2="260.157" y2="1637.491"/>
      <line x1="310.157" y1="1638.491" x2="260.157" y2="1638.491"/>
      <line x1="310.157" y1="1639.491" x2="260.157" y2="1639.491"/>
      <line x1="310.157" y1="1640.491" x2="260.157" y2="1640.491"/>
      <line x1="310.157" y1="1641.491" x2="260.157" y2="1641.491"/>
      <line x1="310.157" y1="1642.491" x2="260.157" y2="1642.491"/>
      <line x1="310.157" y1="1643.491" x2="260.157" y2="1643.491"/>
      <line x1="310.157" y1="1644.491" x2="260.157" y2="1644.491"/>
      <line x1="310.157" y1="1645.491" x2="260.157" y2="1645.491"/>
      <line x1="310.157" y1="1646.491" x2="260.157" y2="1646.491"/>
      <line x1="310.157" y1="1647.491" x2="260.157" y2="1647.491"/>
      <line x1="310.157" y1="1648.491" x2="260.157" y2="1648.491"/>
      <line x1="310.157" y1="1649.491" x2="260.157" y2="1649.491"/>
      <line x1="310.157" y1="1650.491" x2="260.157" y2="1650.491"/>
      <line x1="310.157" y1="1651.491" x2="260.157" y2="1651.491"/>
      <line x1="310.157" y1="1652.491" x2="260.157" y2="1652.491"/>
      <line x1="310.157" y1="1653.491" x2="260.157" y2="1653.491"/>
      <line x1="310.157" y1="1654.491" x2="260.157" y2="1654.491"/>
      <line x1="310.157" y1="1655.491" x2="260.157" y2="1655.491"/>
      <line x1="310.157" y1="1656.491" x2="260.157" y2="1656.491"/>
      <line x1="310.157" y1="1657.491" x2="260.157" y2="1657.491"/>
      <line x1="310.157" y1="1658.491" x2="260.157" y2="1658.491"/>
      <line x1="310.157" y1="1659.491" x2="260.157" y2="1659.491"/>
      <line x1="310.157" y1="1660.491" x2="260.157" y2="1660.491"/>
      <line x1="310.157" y1="1661.491" x2="260.157" y2="1661.491"/>
      <line x1="310.157" y1="1662.491" x2="260.157" y2="1662.491"/>
      <line x1="310.157" y1="1663.491" x2="260.157" y2="1663.491"/>
      <line x1="310.157" y1="1664.491" x2="260.157" y2="1664.491"/>
      <line x1="310.157" y1="1665.491" x2="260.157" y2="1665.491"/>
      <line x1="310.157" y1="1666.491" x2="260.157" y2="1666.491"/>
      <line x1="310.157" y1="1667.491" x2="260.157" y2="1667.491"/>
      <line x1="310.157" y1="1668.491" x2="260.157" y2="1668.491"/>
      <line x1="310.157" y1="1669.491" x2="260.157" y2="1669.491"/>
      <line x1="310.157" y1="1670.491" x2="260.157" y2="1670.491"/>
      <line x1="310.157" y1="1671.491" x2="260.157" y2="1671.491"/>
      <line x1="310.157" y1="1672.491" x2="260.157" y2="1672.491"/>
      <line x1="310.157" y1="1673.491" x2="260.157" y2="1673.491"/>
      <line x1="310.157" y1="1674.491" x2="260.157" y2="1674.491"/>
      <line x1="310.157" y1="1675.491" x2="260.157" y2="1675.491"/>
      <line x1="310.157" y1="1676.491" x2="260.157" y2="1676.491"/>
      <line x1="310.157" y1="1677.491" x2="260.157" y2="1677.491"/>
      <line x1="310.157" y1="1678.491" x2="260.157" y2="1678.491"/>
      <line x1="360.257" y1="1629.491" x2="310.257" y2="1629.491"/>
      <line x1="360.257" y1="1630.491" x2="310.257" y2="1630.491"/>
      <line x1="360.257" y1="1631.491" x2="310.257" y2="1631.491"/>
      <line x1="360.257" y1="1632.491" x2="310.257" y2="1632.491"/>
      <line x1="360.257" y1="1633.491" x2="310.257" y2="1633.491"/>
      <line x1="360.257" y1="1634.491" x2="310.257" y2="1634.491"/>
      <line x1="360.257" y1="1635.491" x2="310.257" y2="1635.491"/>
      <line x1="360.257" y1="1636.491" x2="310.257" y2="1636.491"/>
      <line x1="360.257" y1="1637.491" x2="310.257" y2="1637.491"/>
      <line x1="360.257" y1="1638.491" x2="310.257" y2="1638.491"/>
      <line x1="360.257" y1="1639.491" x2="310.257" y2="1639.491"/>
      <line x1="360.257" y1="1640.491" x2="310.257" y2="1640.491"/>
      <line x1="360.257" y1="1641.491" x2="310.257" y2="1641.491"/>
      <line x1="360.257" y1="1642.491" x2="310.257" y2="1642.491"/>
      <line x1="360.257" y1="1643.491" x2="310.257" y2="1643.491"/>
      <line x1="360.257" y1="1644.491" x2="310.257" y2="1644.491"/>
      <line x1="360.257" y1="1645.491" x2="310.257" y2="1645.491"/>
      <line x1="360.257" y1="1646.491" x2="310.257" y2="1646.491"/>
      <line x1="360.257" y1="1647.491" x2="310.257" y2="1647.491"/>
      <line x1="360.257" y1="1648.491" x2="310.257" y2="1648.491"/>
      <line x1="360.257" y1="1649.491" x2="310.257" y2="1649.491"/>
      <line x1="360.257" y1="1650.491" x2="310.257" y2="1650.491"/>
      <line x1="360.257" y1="1651.491" x2="310.257" y2="1651.491"/>
      <line x1="360.257" y1="1652.491" x2="310.257" y2="1652.491"/>
      <line x1="360.257" y1="1653.491" x2="310.257" y2="1653.491"/>
      <line x1="360.257" y1="1654.491" x2="310.257" y2="1654.491"/>
      <line x1="360.257" y1="1655.491" x2="310.257" y2="1655.491"/>
      <line x1="360.257" y1="1656.491" x2="310.257" y2="1656.491"/>
      <line x1="360.257" y1="1657.491" x2="310.257" y2="1657.491"/>
      <line x1="360.257" y1="1658.491" x2="310.257" y2="1658.491"/>
      <line x1="360.257" y1="1659.491" x2="310.257" y2="1659.491"/>
      <line x1="360.257" y1="1660.491" x2="310.257" y2="1660.491"/>
      <line x1="360.257" y1="1661.491" x2="310.257" y2="1661.491"/>
      <line x1="360.257" y1="1662.491" x2="310.257" y2="1662.491"/>
      <line x1="360.257" y1="1663.491" x2="310.257" y2="1663.491"/>
      <line x1="360.257" y1="1664.491" x2="310.257" y2="1664.491"/>
      <line x1="360.257" y1="1665.491" x2="310.257" y2="1665.491"/>
      <line x1="360.257" y1="1666.491" x2="310.257" y2="1666.491"/>
      <line x1="360.257" y1="1667.491" x2="310.257" y2="1667.491"/>
      <line x1="360.257" y1="1668.491" x2="310.257" y2="1668.491"/>
      <line x1="360.257" y1="1669.491" x2="310.257" y2="1669.491"/>
      <line x1="360.257" y1="1670.491" x2="310.257" y2="1670.491"/>
      <line x1="360.257" y1="1671.491" x2="310.257" y2="1671.491"/>
      <line x1="360.257" y1="1672.491" x2="310.257" y2="1672.491"/>
      <line x1="360.257" y1="1673.491" x2="310.257" y2="1673.491"/>
      <line x1="360.257" y1="1674.491" x2="310.257" y2="1674.491"/>
      <line x1="360.257" y1="1675.491" x2="310.257" y2="1675.491"/>
      <line x1="360.257" y1="1676.491" x2="310.257" y2="1676.491"/>
      <line x1="360.257" y1="1677.491" x2="310.257" y2="1677.491"/>
      <line x1="360.257" y1="1678.491" x2="310.257" y2="1678.491"/>
      <line x1="410.357" y1="1629.491" x2="360.357" y2="1629.491"/>
      <line x1="410.357" y1="1630.491" x2="360.357" y2="1630.491"/>
      <line x1="410.357" y1="1631.491" x2="360.357" y2="1631.491"/>
      <line x1="410.357" y1="1632.491" x2="360.357" y2="1632.491"/>
      <line x1="410.357" y1="1633.491" x2="360.357" y2="1633.491"/>
      <line x1="410.357" y1="1634.491" x2="360.357" y2="1634.491"/>
      <line x1="410.357" y1="1635.491" x2="360.357" y2="1635.491"/>
      <line x1="410.357" y1="1636.491" x2="360.357" y2="1636.491"/>
      <line x1="410.357" y1="1637.491" x2="360.357" y2="1637.491"/>
      <line x1="410.357" y1="1638.491" x2="360.357" y2="1638.491"/>
      <line x1="410.357" y1="1639.491" x2="360.357" y2="1639.491"/>
      <line x1="410.357" y1="1640.491" x2="360.357" y2="1640.491"/>
      <line x1="410.357" y1="1641.491" x2="360.357" y2="1641.491"/>
      <line x1="410.357" y1="1642.491" x2="360.357" y2="1642.491"/>
      <line x1="410.357" y1="1643.491" x2="360.357" y2="1643.491"/>
      <line x1="410.357" y1="1644.491" x2="360.357" y2="1644.491"/>
      <line x1="410.357" y1="1645.491" x2="360.357" y2="1645.491"/>
      <line x1="410.357" y1="1646.491" x2="360.357" y2="1646.491"/>
      <line x1="410.357" y1="1647.491" x2="360.357" y2="1647.491"/>
      <line x1="410.357" y1="1648.491" x2="360.357" y2="1648.491"/>
      <line x1="410.357" y1="1649.491" x2="360.357" y2="1649.491"/>
      <line x1="410.357" y1="1650.491" x2="360.357" y2="1650.491"/>
      <line x1="410.357" y1="1651.491" x2="360.357" y2="1651.491"/>
      <line x1="410.357" y1="1652.491" x2="360.357" y2="1652.491"/>
      <line x1="410.357" y1="1653.491" x2="360.357" y2="1653.491"/>
      <line x1="410.357" y1="1654.491" x2="360.357" y2="1654.491"/>
      <line x1="410.357" y1="1655.491" x2="360.357" y2="1655.491"/>
      <line x1="410.357" y1="1656.491" x2="360.357" y2="1656.491"/>
      <line x1="410.357" y1="1657.491" x2="360.357" y2="1657.491"/>
      <line x1="410.357" y1="1658.491" x2="360.357" y2="1658.491"/>
      <line x1="410.357" y1="1659.491" x2="360.357" y2="1659.491"/>
      <line x1="410.357" y1="1660.491" x2="360.357" y2="1660.491"/>
      <line x1="410.357" y1="1661.491" x2="360.357" y2="1661.491"/>
      <line x1="410.357" y1="1662.491" x2="360.357" y2="1662.491"/>
      <line x1="410.357" y1="1663.491" x2="360.357" y2="1663.491"/>
      <line x1="410.357" y1="1664.491" x2="360.357" y2="1664.491"/>
      <line x1="410.357" y1="1665.491" x2="360.357" y2="1665.491"/>
      <line x1="410.357" y1="1666.491" x2="360.357" y2="1666.491"/>
      <line x1="410.357" y1="1667.491" x2="360.357" y2="1667.491"/>
      <line x1="410.357" y1="1668.491" x2="360.357" y2="1668.491"/>
      <line x1="410.357" y1="1669.491" x2="360.357" y2="1669.491"/>
      <line x1="410.357" y1="1670.491" x2="360.357" y2="1670.491"/>
      <line x1="410.357" y1="1671.491" x2="360.357" y2="1671.491"/>
      <line x1="410.357" y1="1672.491" x2="360.357" y2="1672.491"/>
      <line x1="410.357" y1="1673.491" x2="360.357" y2="1673.491"/>
      <line x1="410.357" y1="1674.491" x2="360.357" y2="1674.491"/>
      <line x1="410.357" y1="1675.491" x2="360.357" y2="1675.491"/>
      <line x1="410.357" y1="1676.491" x2="360.357" y2="1676.491"/>
      <line x1="410.357" y1="1677.491" x2="360.357" y2="1677.491"/>
      <line x1="410.357" y1="1678.491" x2="360.357" y2="1678.491"/>
      <line x1="440.043" y1="1629.491" x2="410.457" y2="1629.491"/>
      <line x1="440.043" y1="1630.491" x2="410.457" y2="1630.491"/>
      <line x1="440.043" y1="1631.491" x2="410.457" y2="1631.491"/>
      <line x1="440.043" y1="1632.491" x2="410.457" y2="1632.491"/>
      <line x1="440.043" y1="1633.491" x2="410.457" y2="1633.491"/>
      <line x1="440.043" y1="1634.491" x2="410.457" y2="1634.491"/>
      <line x1="440.043" y1="1635.491" x2="410.457" y2="1635.491"/>
      <line x1="440.043" y1="1636.491" x2="410.457" y2="1636.491"/>
      <line x1="440.043" y1="1637.491" x2="410.457" y2="1637.491"/>
      <line x1="440.043" y1="1638.491" x2="410.457" y2="1638.491"/>
      <line x1="440.043" y1="1639.491" x2="410.457" y2="1639.491"/>
      <line x1="440.043" y1="1640.491" x2="410.457" y2="1640.491"/>
      <line x1="440.043" y1="1641.491" x2="410.457" y2="1641.491"/>
      <line x1="440.043" y1="1642.491" x2="410.457" y2="1642.491"/>
      <line x1="440.043" y1="1643.491" x2="410.457" y2="1643.491"/>
      <line x1="440.043" y1="1644.491" x2="410.457" y2="1644.491"/>
      <line x1="440.043" y1="1645.491" x2="410.457" y2="1645.491"/>
      <line x1="440.043" y1="1646.491" x2="410.457" y2="1646.491"/>
      <line x1="440.043" y1="1647.491" x2="410.457" y2="1647.491"/>
      <line x1="440.043" y1="1648.491" x2="410.457" y2="1648.491"/>
      <line x1="440.043" y1="1649.491" x2="410.457" y2="1649.491"/>
      <line x1="440.043" y1="1650.491" x2="410.457" y2="1650.491"/>
      <line x1="440.043" y1="1651.491" x2="410.457" y2="1651.491"/>
      <line x1="440.043" y1="1652.491" x2="410.457" y2="1652.491"/>
      <line x1="440.043" y1="1653.491" x2="410.457" y2="1653.491"/>
      <line x1="440.043" y1="1654.491" x2="410.457" y2="1654.491"/>
      <line x1="440.043" y1="1655.491" x2="410.457" y2="1655.491"/>
      <line x1="440.043" y1="1656.491" x2="410.457" y2="1656.491"/>
      <line x1="440.043" y1="1657.491" x2="410.457" y2="1657.491"/>
      <line x1="440.043" y1="1658.491" x2="410.457" y2="1658.491"/>
      <line x1="440.043" y1="1659.491" x2="410.457" y2="1659.491"/>
      <line x1="440.043" y1="1660.491" x2="410.457" y2="1660.491"/>
      <line x1="440.043" y1="1661.491" x2="410.457" y2="1661.491"/>
      <line x1="440.043" y1="1662.491" x2="410.457" y2="1662.491"/>
      <line x1="440.043" y1="1663.491" x2="410.457" y2="1663.491"/>
      <line x1="440.043" y1="1664.491" x2="410.457" y2="1664.491"/>
      <line x1="440.043" y1="1665.491" x2="410.457" y2="1665.491"/>
      <line x1="440.043" y1="1666.491" x2="410.457" y2="1666.491"/>
      <line x1="440.043" y1="1667.491" x2="410.457" y2="1667.491"/>
      <line x1="440.043" y1="1668.491" x2="410.457" y2="1668.491"/>
      <line x1="440.043" y1="1669.491" x2="410.457" y2="1669.491"/>
      <line x1="440.043" y1="1670.491" x2="410.457" y2="1670.491"/>
      <line x1="440.043" y1="1671.491" x2="410.457" y2="1671.491"/>
      <line x1="440.043" y1="1672.491" x2="410.457" y2="1672.491"/>
      <line x1="440.043" y1="1673.491" x2="410.457" y2="1673.491"/>
      <line x1="440.043" y1="1674.491" x2="410.457" y2="1674.491"/>
      <line x1="440.043" y1="1675.491" x2="410.457" y2="1675.491"/>
      <line x1="440.043" y1="1676.491" x2="410.457" y2="1676.491"/>
      <line x1="440.043" y1="1677.491" x2="410.457" y2="1677.491"/>
      <line x1="440.043" y1="1678.491" x2="410.457" y2="1678.491"/>
      <line x1="209.957" y1="1579.491" x2="159.957" y2="1579.491"/>
      <line x1="209.957" y1="1580.491" x2="159.957" y2="1580.491"/>
      <line x1="209.957" y1="1581.491" x2="159.957" y2="1581.491"/>
      <line x1="209.957" y1="1582.491" x2="159.957" y2="1582.491"/>
      <line x1="209.957" y1="1583.491" x2="159.957" y2="1583.491"/>
      <line x1="209.957" y1="1584.491" x2="159.957" y2="1584.491"/>
      <line x1="209.957" y1="1585.491" x2="159.957" y2="1585.491"/>
      <line x1="209.957" y1="1586.491" x2="159.957" y2="1586.491"/>
      <line x1="209.957" y1="1587.491" x2="159.957" y2="1587.491"/>
      <line x1="209.957" y1="1588.491" x2="159.957" y2="1588.491"/>
      <line x1="209.957" y1="1589.491" x2="159.957" y2="1589.491"/>
      <line x1="209.957" y1="1590.491" x2="159.957" y2="1590.491"/>
      <line x1="209.957" y1="1591.491" x2="159.957" y2="1591.491"/>
      <line x1="209.957" y1="1592.491" x2="159.957" y2="1592.491"/>
      <line x1="209.957" y1="1593.491" x2="159.957" y2="1593.491"/>
      <line x1="209.957" y1="1594.491" x2="159.957" y2="1594.491"/>
      <line x1="209.957" y1="1595.491" x2="159.957" y2="1595.491"/>
      <line x1="209.957" y1="1596.491" x2="159.957" y2="1596.491"/>
      <line x1="209.957" y1="1597.491" x2="159.957" y2="1597.491"/>
      <line x1="209.957" y1="1598.491" x2="159.957" y2="1598.491"/>
      <line x1="209.957" y1="1599.491" x2="159.957" y2="1599.491"/>
      <line x1="209.957" y1="1600.491" x2="159.957" y2="1600.491"/>
      <line x1="209.957" y1="1601.491" x2="159.957" y2="1601.491"/>
      <line x1="209.957" y1="1602.491" x2="159.957" y2="1602.491"/>
      <line x1="209.957" y1="1603.491" x2="159.957" y2="1603.491"/>
      <line x1="209.957" y1="1604.491" x2="159.957" y2="1604.491"/>
      <line x1="209.957" y1="1605.491" x2="159.957" y2="1605.491"/>
      <line x1="209.957" y1="1606.491" x2="159.957" y2="1606.491"/>
      <line x1="209.957" y1="1607.491" x2="159.957" y2="1607.491"/>
      <line x1="209.957" y1="1608.491" x2="159.957" y2="1608.491"/>
      <line x1="209.957" y1="1609.491" x2="159.957" y2="1609.491"/>
      <line x1="209.957" y1="1610.491" x2="159.957" y2="1610.491"/>
      <line x1="209.957" y1="1611.491" x2="159.957" y2="1611.491"/>
      <line x1="209.957" y1="1612.491" x2="159.957" y2="1612.491"/>
      <line x1="209.957" y1="1613.491" x2="159.957" y2="1613.491"/>
      <line x1="209.957" y1="1614.491" x2="159.957" y2="1614.491"/>
      <line x1="209.957" y1="1615.491" x2="159.957" y2="1615.491"/>
      <line x1="209.957" y1="1616.491" x2="159.957" y2="1616.491"/>
      <line x1="209.957" y1="1617.491" x2="159.957" y2="1617.491"/>
      <line x1="209.957" y1="1618.491" x2="159.957" y2="1618.491"/>
      <line x1="209.957" y1="1619.491" x2="159.957" y2="1619.491"/>
      <line x1="209.957" y1="1620.491" x2="159.957" y2="1620.491"/>
      <line x1="209.957" y1="1621.491" x2="159.957" y2="1621.491"/>
      <line x1="209.957" y1="1622.491" x2="159.957" y2="1622.491"/>
      <line x1="209.957" y1="1623.491" x2="159.957" y2="1623.491"/>
      <line x1="209.957" y1="1624.491" x2="159.957" y2="1624.491"/>
      <line x1="209.957" y1="1625.491" x2="159.957" y2="1625.491"/>
      <line x1="209.957" y1="1626.491" x2="159.957" y2="1626.491"/>
      <line x1="209.957" y1="1627.491" x2="159.957" y2="1627.491"/>
      <line x1="209.957" y1="1628.491" x2="159.957" y2="1628.491"/>
      <line x1="260.057" y1="1579.491" x2="210.057" y2="1579.491"/>
      <line x1="260.057" y1="1580.491" x2="210.057" y2="1580.491"/>
      <line x1="260.057" y1="1581.491" x2="210.057" y2="1581.491"/>
      <line x1="260.057" y1="1582.491" x2="210.057" y2="1582.491"/>
      <line x1="260.057" y1="1583.491" x2="210.057" y2="1583.491"/>
      <line x1="260.057" y1="1584.491" x2="210.057" y2="1584.491"/>
      <line x1="260.057" y1="1585.491" x2="210.057" y2="1585.491"/>
      <line x1="260.057" y1="1586.491" x2="210.057" y2="1586.491"/>
      <line x1="260.057" y1="1587.491" x2="210.057" y2="1587.491"/>
      <line x1="260.057" y1="1588.491" x2="210.057" y2="1588.491"/>
      <line x1="260.057" y1="1589.491" x2="210.057" y2="1589.491"/>
      <line x1="260.057" y1="1590.491" x2="210.057" y2="1590.491"/>
      <line x1="260.057" y1="1591.491" x2="210.057" y2="1591.491"/>
      <line x1="260.057" y1="1592.491" x2="210.057" y2="1592.491"/>
      <line x1="260.057" y1="1593.491" x2="210.057" y2="1593.491"/>
      <line x1="260.057" y1="1594.491" x2="210.057" y2="1594.491"/>
      <line x1="260.057" y1="1595.491" x2="210.057" y2="1595.491"/>
      <line x1="260.057" y1="1596.491" x2="210.057" y2="1596.491"/>
      <line x1="260.057" y1="1597.491" x2="210.057" y2="1597.491"/>
      <line x1="260.057" y1="1598.491" x2="210.057" y2="1598.491"/>
      <line x1="260.057" y1="1599.491" x2="210.057" y2="1599.491"/>
      <line x1="260.057" y1="1600.491" x2="210.057" y2="1600.491"/>
      <line x1="260.057" y1="1601.491" x2="210.057" y2="1601.491"/>
      <line x1="260.057" y1="1602.491" x2="210.057" y2="1602.491"/>
      <line x1="260.057" y1="1603.491" x2="210.057" y2="1603.491"/>
      <line x1="260.057" y1="1604.491" x2="210.057" y2="1604.491"/>
      <line x1="260.057" y1="1605.491" x2="210.057" y2="1605.491"/>
      <line x1="260.057" y1="1606.491" x2="210.057" y2="1606.491"/>
      <line x1="260.057" y1="1607.491" x2="210.057" y2="1607.491"/>
      <line x1="260.057" y1="1608.491" x2="210.057" y2="1608.491"/>
      <line x1="260.057" y1="1609.491" x2="210.057" y2="1609.491"/>
      <line x1="260.057" y1="1610.491" x2="210.057" y2="1610.491"/>
      <line x1="260.057" y1="1611.491" x2="210.057" y2="1611.491"/>
      <line x1="260.057" y1="1612.491" x2="210.057" y2="1612.491"/>
      <line x1="260.057" y1="1613.491" x2="210.057" y2="1613.491"/>
      <line x1="260.057" y1="1614.491" x2="210.057" y2="1614.491"/>
      <line x1="260.057" y1="1615.491" x2="210.057" y2="1615.491"/>
      <line x1="260.057" y1="1616.491" x2="210.057" y2="1616.491"/>
      <line x1="260.057" y1="1617.491" x2="210.057" y2="1617.491"/>
      <line x1="260.057" y1="1618.491" x2="210.057" y2="1618.491"/>
      <line x1="260.057" y1="1619.491" x2="210.057" y2="1619.491"/>
      <line x1="260.057" y1="1620.491" x2="210.057" y2="1620.491"/>
      <line x1="260.057" y1="1621.491" x2="210.057" y2="1621.491"/>
      <line x1="260.057" y1="1622.491" x2="210.057" y2="1622.491"/>
      <line x1="260.057" y1="1623.491" x2="210.057" y2="1623.491"/>
      <line x1="260.057" y1="1624.491" x2="210.057" y2="1624.491"/>
      <line x1="260.057" y1="1625.491" x2="210.057" y2="1625.491"/>
      <line x1="260.057" y1="1626.491" x2="210.057" y2="1626.491"/>
      <line x1="260.057" y1="1627.491" x2="210.057" y2="1627.491"/>
      <line x1="260.057" y1="1628.491" x2="210.057" y2="1628.491"/>
      <line x1="310.157" y1="1579.491" x2="260.157" y2="1579.491"/>
      <line x1="310.157" y1="1580.491" x2="260.157" y2="1580.491"/>
      <line x1="310.157" y1="1581.491" x2="260.157" y2="1581.491"/>
      <line x1="310.157" y1="1582.491" x2="260.157" y2="1582.491"/>
      <line x1="310.157" y1="1583.491" x2="260.157" y2="1583.491"/>
      <line x1="310.157" y1="1584.491" x2="260.157" y2="1584.491"/>
      <line x1="310.157" y1="1585.491" x2="260.157" y2="1585.491"/>
      <line x1="310.157" y1="1586.491" x2="260.157" y2="1586.491"/>
      <line x1="310.157" y1="1587.491" x2="260.157" y2="1587.491"/>
      <line x1="310.157" y1="1588.491" x2="260.157" y2="1588.491"/>
      <line x1="310.157" y1="1589.491" x2="260.157" y2="1589.491"/>
      <line x1="310.157" y1="1590.491" x2="260.157" y2="1590.491"/>
      <line x1="310.157" y1="1591.491" x2="260.157" y2="1591.491"/>
      <line x1="310.157" y1="1592.491" x2="260.157" y2="1592.491"/>
      <line x1="310.157" y1="1593.491" x2="260.157" y2="1593.491"/>
      <line x1="310.157" y1="1594.491" x2="260.157" y2="1594.491"/>
      <line x1="310.157" y1="1595.491" x2="260.157" y2="1595.491"/>
      <line x1="310.157" y1="1596.491" x2="260.157" y2="1596.491"/>
      <line x1="310.157" y1="1597.491" x2="260.157" y2="1597.491"/>
      <line x1="310.157" y1="1598.491" x2="260.157" y2="1598.491"/>
      <line x1="310.157" y1="1599.491" x2="260.157" y2="1599.491"/>
      <line x1="310.157" y1="1600.491" x2="260.157" y2="1600.491"/>
      <line x1="310.157" y1="1601.491" x2="260.157" y2="1601.491"/>
      <line x1="310.157" y1="1602.491" x2="260.157" y2="1602.491"/>
      <line x1="310.157" y1="1603.491" x2="260.157" y2="1603.491"/>
      <line x1="310.157" y1="1604.491" x2="260.157" y2="1604.491"/>
      <line x1="310.157" y1="1605.491" x2="260.157" y2="1605.491"/>
      <line x1="310.157" y1="1606.491" x2="260.157" y2="1606.491"/>
      <line x1="310.157" y1="1607.491" x2="260.157" y2="1607.491"/>
      <line x1="310.157" y1="1608.491" x2="260.157" y2="1608.491"/>
      <line x1="310.157" y1="1609.491" x2="260.157" y2="1609.491"/>
      <line x1="310.157" y1="1610.491" x2="260.157" y2="1610.491"/>
      <line x1="310.157" y1="1611.491" x2="260.157" y2="1611.491"/>
      <line x1="310.157" y1="1612.491" x2="260.157" y2="1612.491"/>
      <line x1="310.157" y1="1613.491" x2="260.157" y2="1613.491"/>
      <line x1="310.157" y1="1614.491" x2="260.157" y2="1614.491"/>
      <line x1="310.157" y1="1615.491" x2="260.157" y2="1615.491"/>
      <line x1="310.157" y1="1616.491" x2="260.157" y2="1616.491"/>
      <line x1="310.157" y1="1617.491" x2="260.157" y2="1617.491"/>
      <line x1="310.157" y1="1618.491" x2="260.157" y2="1618.491"/>
      <line x1="310.157" y1="1619.491" x2="260.157" y2="1619.491"/>
      <line x1="310.157" y1="1620.491" x2="260.157" y2="1620.491"/>
      <line x1="310.157" y1="1621.491" x2="260.157" y2="1621.491"/>
      <line x1="310.157" y1="1622.491" x2="260.157" y2="1622.491"/>
      <line x1="310.157" y1="1623.491" x2="260.157" y2="1623.491"/>
      <line x1="310.157" y1="1624.491" x2="260.157" y2="1624.491"/>
      <line x1="310.157" y1="1625.491" x2="260.157" y2="1625.491"/>
      <line x1="310.157" y1="1626.491" x2="260.157" y2="1626.491"/>
      <line x1="310.157" y1="1627.491" x2="260.157" y2="1627.491"/>
      <line x1="310.157" y1="1628.491" x2="260.157" y2="1628.491"/>
      <line x1="360.257" y1="1579.491" x2="310.257" y2="1579.491"/>
      <line x1="360.257" y1="1580.491" x2="310.257" y2="1580.491"/>
      <line x1="360.257" y1="1581.491" x2="310.257" y2="1581.491"/>
      <line x1="360.257" y1="1582.491" x2="310.257" y2="1582.491"/>
      <line x1="360.257" y1="1583.491" x2="310.257" y2="1583.491"/>
      <line x1="360.257" y1="1584.491" x2="310.257" y2="1584.491"/>
      <line x1="360.257" y1="1585.491" x2="310.257" y2="1585.491"/>
      <line x1="360.257" y1="1586.491" x2="310.257" y2="1586.491"/>
      <line x1="360.257" y1="1587.491" x2="310.257" y2="1587.491"/>
      <line x1="360.257" y1="1588.491" x2="310.257" y2="1588.491"/>
      <line x1="360.257" y1="1589.491" x2="310.257" y2="1589.491"/>
      <line x1="360.257" y1="1590.491" x2="310.257" y2="1590.491"/>
      <line x1="360.257" y1="1591.491" x2="310.257" y2="1591.491"/>
      <line x1="360.257" y1="1592.491" x2="310.257" y2="1592.491"/>
      <line x1="360.257" y1="1593.491" x2="310.257" y2="1593.491"/>
      <line x1="360.257" y1="1594.491" x2="310.257" y2="1594.491"/>
      <line x1="360.257" y1="1595.491" x2="310.257" y2="1595.491"/>
      <line x1="360.257" y1="1596.491" x2="310.257" y2="1596.491"/>
      <line x1="360.257" y1="1597.491" x2="310.257" y2="1597.491"/>
      <line x1="360.257" y1="1598.491" x2="310.257" y2="1598.491"/>
      <line x1="360.257" y1="1599.491" x2="310.257" y2="1599.491"/>
      <line x1="360.257" y1="1600.491" x2="310.257" y2="1600.491"/>
      <line x1="360.257" y1="1601.491" x2="310.257" y2="1601.491"/>
      <line x1="360.257" y1="1602.491" x2="310.257" y2="1602.491"/>
      <line x1="360.257" y1="1603.491" x2="310.257" y2="1603.491"/>
      <line x1="360.257" y1="1604.491" x2="310.257" y2="1604.491"/>
      <line x1="360.257" y1="1605.491" x2="310.257" y2="1605.491"/>
      <line x1="360.257" y1="1606.491" x2="310.257" y2="1606.491"/>
      <line x1="360.257" y1="1607.491" x2="310.257" y2="1607.491"/>
      <line x1="360.257" y1="1608.491" x2="310.257" y2="1608.491"/>
      <line x1="360.257" y1="1609.491" x2="310.257" y2="1609.491"/>
      <line x1="360.257" y1="1610.491" x2="310.257" y2="1610.491"/>
      <line x1="360.257" y1="1611.491" x2="310.257" y2="1611.491"/>
      <line x1="360.257" y1="1612.491" x2="310.257" y2="1612.491"/>
      <line x1="360.257" y1="1613.491" x2="310.257" y2="1613.491"/>
      <line x1="360.257" y1="1614.491" x2="310.257" y2="1614.491"/>
      <line x1="360.257" y1="1615.491" x2="310.257" y2="1615.491"/>
      <line x1="360.257" y1="1616.491" x2="310.257" y2="1616.491"/>
      <line x1="360.257" y1="1617.491" x2="310.257" y2="1617.491"/>
      <line x1="360.257" y1="1618.491" x2="310.257" y2="1618.491"/>
      <line x1="360.257" y1="1619.491" x2="310.257" y2="1619.491"/>
      <line x1="360.257" y1="1620.491" x2="310.257" y2="1620.491"/>
      <line x1="360.257" y1="1621.491" x2="310.257" y2="1621.491"/>
      <line x1="360.257" y1="1622.491" x2="310.257" y2="1622.491"/>
      <line x1="360.257" y1="1623.491" x2="310.257" y2="1623.491"/>
      <line x1="360.257" y1="1624.491" x2="310.257" y2="1624.491"/>
      <line x1="360.257" y1="1625.491" x2="310.257" y2="1625.491"/>
      <line x1="360.257" y1="1626.491" x2="310.257" y2="1626.491"/>
      <line x1="360.257" y1="1627.491" x2="310.257" y2="1627.491"/>
      <line x1="360.257" y1="1628.491" x2="310.257" y2="1628.491"/>
      <line x1="410.357" y1="1579.491" x2="360.357" y2="1579.491"/>
      <line x1="410.357" y1="1580.491" x2="360.357" y2="1580.491"/>
      <line x1="410.357" y1="1581.491" x2="360.357" y2="1581.491"/>
      <line x1="410.357" y1="1582.491" x2="360.357" y2="1582.491"/>
      <line x1="410.357" y1="1583.491" x2="360.357" y2="1583.491"/>
      <line x1="410.357" y1="1584.491" x2="360.357" y2="1584.491"/>
      <line x1="410.357" y1="1585.491" x2="360.357" y2="1585.491"/>
      <line x1="410.357" y1="1586.491" x2="360.357" y2="1586.491"/>
      <line x1="410.357" y1="1587.491" x2="360.357" y2="1587.491"/>
      <line x1="410.357" y1="1588.491" x2="360.357" y2="1588.491"/>
      <line x1="410.357" y1="1589.491" x2="360.357" y2="1589.491"/>
      <line x1="410.357" y1="1590.491" x2="360.357" y2="1590.491"/>
      <line x1="410.357" y1="1591.491" x2="360.357" y2="1591.491"/>
      <line x1="410.357" y1="1592.491" x2="360.357" y2="1592.491"/>
      <line x1="410.357" y1="1593.491" x2="360.357" y2="1593.491"/>
      <line x1="410.357" y1="1594.491" x2="360.357" y2="1594.491"/>
      <line x1="410.357" y1="1595.491" x2="360.357" y2="1595.491"/>
      <line x1="410.357" y1="1596.491" x2="360.357" y2="1596.491"/>
      <line x1="410.357" y1="1597.491" x2="360.357" y2="1597.491"/>
      <line x1="410.357" y1="1598.491" x2="360.357" y2="1598.491"/>
      <line x1="410.357" y1="1599.491" x2="360.357" y2="1599.491"/>
      <line x1="410.357" y1="1600.491" x2="360.357" y2="1600.491"/>
      <line x1="410.357" y1="1601.491" x2="360.357" y2="1601.491"/>
      <line x1="410.357" y1="1602.491" x2="360.357" y2="1602.491"/>
      <line x1="410.357" y1="1603.491" x2="360.357" y2="1603.491"/>
      <line x1="410.357" y1="1604.491" x2="360.357" y2="1604.491"/>
      <line x1="410.357" y1="1605.491" x2="360.357" y2="1605.491"/>
      <line x1="410.357" y1="1606.491" x2="360.357" y2="1606.491"/>
      <line x1="410.357" y1="1607.491" x2="360.357" y2="1607.491"/>
      <line x1="410.357" y1="1608.491" x2="360.357" y2="1608.491"/>
      <line x1="410.357" y1="1609.491" x2="360.357" y2="1609.491"/>
      <line x1="410.357" y1="1610.491" x2="360.357" y2="1610.491"/>
      <line x1="410.357" y1="1611.491" x2="360.357" y2="1611.491"/>
      <line x1="410.357" y1="1612.491" x2="360.357" y2="1612.491"/>
      <line x1="410.357" y1="1613.491" x2="360.357" y2="1613.491"/>
      <line x1="410.357" y1="1614.491" x2="360.357" y2="1614.491"/>
      <line x1="410.357" y1="1615.491" x2="360.357" y2="1615.491"/>
      <line x1="410.357" y1="1616.491" x2="360.357" y2="1616.491"/>
      <line x1="410.357" y1="1617.491" x2="360.357" y2="1617.491"/>
      <line x1="410.357" y1="1618.491" x2="360.357" y2="1618.491"/>
      <line x1="410.357" y1="1619.491" x2="360.357" y2="1619.491"/>
      <line x1="410.357" y1="1620.491" x2="360.357" y2="1620.491"/>
      <line x1="410.357" y1="1621.491" x2="360.357" y2="1621.491"/>
      <line x1="410.357" y1="1622.491" x2="360.357" y2="1622.491"/>
      <line x1="410.357" y1="1623.491" x2="360.357" y2="1623.491"/>
      <line x1="410.357" y1="1624.491" x2="360.357" y2="1624.491"/>
      <line x1="410.357" y1="1625.491" x2="360.357" y2="1625.491"/>
      <line x1="410.357" y1="1626.491" x2="360.357" y2="1626.491"/>
      <line x1="410.357" y1="1627.491" x2="360.357" y2="1627.491"/>
      <line x1="410.357" y1="1628.491" x2="360.357" y2="1628.491"/>
      <line x1="440.043" y1="1579.491" x2="410.457" y2="1579.491"/>
      <line x1="440.043" y1="1580.491" x2="410.457" y2="1580.491"/>
      <line x1="440.043" y1="1581.491" x2="410.457" y2="1581.491"/>
      <line x1="440.043" y1="1582.491" x2="410.457" y2="1582.491"/>
      <line x1="440.043" y1="1583.491" x2="410.457" y2="1583.491"/>
      <line x1="440.043" y1="1584.491" x2="410.457" y2="1584.491"/>
      <line x1="440.043" y1="1585.491" x2="410.457" y2="1585.491"/>
      <line x1="440.043" y1="1586.491" x2="410.457" y2="1586.491"/>
      <line x1="440.043" y1="1587.491" x2="410.457" y2="1587.491"/>
      <line x1="440.043" y1="1588.491" x2="410.457" y2="1588.491"/>
      <line x1="440.043" y1="1589.491" x2="410.457" y2="1589.491"/>
      <line x1="440.043" y1="1590.491" x2="410.457" y2="1590.491"/>
      <line x1="440.043" y1="1591.491" x2="410.457" y2="1591.491"/>
      <line x1="440.043" y1="1592.491" x2="410.457" y2="1592.491"/>
      <line x1="440.043" y1="1593.491" x2="410.457" y2="1593.491"/>
      <line x1="440.043" y1="1594.491" x2="410.457" y2="1594.491"/>
      <line x1="440.043" y1="1595.491" x2="410.457" y2="1595.491"/>
      <line x1="440.043" y1="1596.491" x2="410.457" y2="1596.491"/>
      <line x1="440.043" y1="1597.491" x2="410.457" y2="1597.491"/>
      <line x1="440.043" y1="1598.491" x2="410.457" y2="1598.491"/>
      <line x1="440.043" y1="1599.491" x2="410.457" y2="1599.491"/>
      <line x1="440.043" y1="1600.491" x2="410.457" y2="1600.491"/>
      <line x1="440.043" y1="1601.491" x2="410.457" y2="1601.491"/>
      <line x1="440.043" y1="1602.491" x2="410.457" y2="1602.491"/>
      <line x1="440.043" y1="1603.491" x2="410.457" y2="1603.491"/>
      <line x1="440.043" y1="1604.491" x2="410.457" y2="1604.491"/>
      <line x1="440.043" y1="1605.491" x2="410.457" y2="1605.491"/>
      <line x1="440.043" y1="1606.491" x2="410.457" y2="1606.491"/>
      <line x1="440.043" y1="1607.491" x2="410.457" y2="1607.491"/>
      <line x1="440.043" y1="1608.491" x2="410.457" y2="1608.491"/>
      <line x1="440.043" y1="1609.491" x2="410.457" y2="1609.491"/>
      <line x1="440.043" y1="1610.491" x2="410.457" y2="1610.491"/>
      <line x1="440.043" y1="1611.491" x2="410.457" y2="1611.491"/>
      <line x1="440.043" y1="1612.491" x2="410.457" y2="1612.491"/>
      <line x1="440.043" y1="1613.491" x2="410.457" y2="1613.491"/>
      <line x1="440.043" y1="1614.491" x2="410.457" y2="1614.491"/>
      <line x1="440.043" y1="1615.491" x2="410.457" y2="1615.491"/>
      <line x1="440.043" y1="1616.491" x2="410.457" y2="1616.491"/>
      <line x1="440.043" y1="1617.491" x2="410.457" y2="1617.491"/>
      <line x1="440.043" y1="1618.491" x2="410.457" y2="1618.491"/>
      <line x1="440.043" y1="1619.491" x2="410.457" y2="1619.491"/>
      <line x1="440.043" y1="1620.491" x2="410.457" y2="1620.491"/>
      <line x1="440.043" y1="1621.491" x2="410.457" y2="1621.491"/>
      <line x1="440.043" y1="1622.491" x2="410.457" y2="1622.491"/>
      <line x1="440.043" y1="1623.491" x2="410.457" y2="1623.491"/>
      <line x1="440.043" y1="1624.491" x2="410.457" y2="1624.491"/>
      <line x1="440.043" y1="1625.491" x2="410.457" y2="1625.491"/>
      <line x1="440.043" y1="1626.491" x2="410.457" y2="1626.491"/>
      <line x1="440.043" y1="1627.491" x2="410.457" y2="1627.491"/>
      <line x1="440.043" y1="1628.491" x2="410.457" y2="1628.491"/>
      <line x1="209.957" y1="1529.491" x2="159.957" y2="1529.491"/>
      <line x1="209.957" y1="1530.491" x2="159.957" y2="1530.491"/>
      <line x1="209.957" y1="1531.491" x2="159.957" y2="1531.491"/>
      <line x1="209.957" y1="1532.491" x2="159.957" y2="1532.491"/>
      <line x1="209.957" y1="1533.491" x2="159.957" y2="1533.491"/>
      <line x1="209.957" y1="1534.491" x2="159.957" y2="1534.491"/>
      <line x1="209.957" y1="1535.491" x2="159.957" y2="1535.491"/>
      <line x1="209.957" y1="1536.491" x2="159.957" y2="1536.491"/>
      <line x1="209.957" y1="1537.491" x2="159.957" y2="1537.491"/>
      <line x1="209.957" y1="1538.491" x2="159.957" y2="1538.491"/>
      <line x1="209.957" y1="1539.491" x2="159.957" y2="1539.491"/>
      <line x1="209.957" y1="1540.491" x2="159.957" y2="1540.491"/>
      <line x1="209.957" y1="1541.491" x2="159.957" y2="1541.491"/>
      <line x1="209.957" y1="1542.491" x2="159.957" y2="1542.491"/>
      <line x1="209.957" y1="1543.491" x2="159.957" y2="1543.491"/>
      <line x1="209.957" y1="1544.491" x2="159.957" y2="1544.491"/>
      <line x1="209.957" y1="1545.491" x2="159.957" y2="1545.491"/>
      <line x1="209.957" y1="1546.491" x2="159.957" y2="1546.491"/>
      <line x1="209.957" y1="1547.491" x2="159.957" y2="1547.491"/>
      <line x1="209.957" y1="1548.491" x2="159.957" y2="1548.491"/>
      <line x1="209.957" y1="1549.491" x2="159.957" y2="1549.491"/>
      <line x1="209.957" y1="1550.491" x2="159.957" y2="1550.491"/>
      <line x1="209.957" y1="1551.491" x2="159.957" y2="1551.491"/>
      <line x1="209.957" y1="1552.491" x2="159.957" y2="1552.491"/>
      <line x1="209.957" y1="1553.491" x2="159.957" y2="1553.491"/>
      <line x1="209.957" y1="1554.491" x2="159.957" y2="1554.491"/>
      <line x1="209.957" y1="1555.491" x2="159.957" y2="1555.491"/>
      <line x1="209.957" y1="1556.491" x2="159.957" y2="1556.491"/>
      <line x1="209.957" y1="1557.491" x2="159.957" y2="1557.491"/>
      <line x1="209.957" y1="1558.491" x2="159.957" y2="1558.491"/>
      <line x1="209.957" y1="1559.491" x2="159.957" y2="1559.491"/>
      <line x1="209.957" y1="1560.491" x2="159.957" y2="1560.491"/>
      <line x1="209.957" y1="1561.491" x2="159.957" y2="1561.491"/>
      <line x1="209.957" y1="1562.491" x2="159.957" y2="1562.491"/>
      <line x1="209.957" y1="1563.491" x2="159.957" y2="1563.491"/>
      <line x1="209.957" y1="1564.491" x2="159.957" y2="1564.491"/>
      <line x1="209.957" y1="1565.491" x2="159.957" y2="1565.491"/>
      <line x1="209.957" y1="1566.491" x2="159.957" y2="1566.491"/>
      <line x1="209.957" y1="1567.491" x2="159.957" y2="1567.491"/>
      <line x1="209.957" y1="1568.491" x2="159.957" y2="1568.491"/>
      <line x1="209.957" y1="1569.491" x2="159.957" y2="1569.491"/>
      <line x1="209.957" y1="1570.491" x2="159.957" y2="1570.491"/>
      <line x1="209.957" y1="1571.491" x2="159.957" y2="1571.491"/>
      <line x1="209.957" y1="1572.491" x2="159.957" y2="1572.491"/>
      <line x1="209.957" y1="1573.491" x2="159.957" y2="1573.491"/>
      <line x1="209.957" y1="1574.491" x2="159.957" y2="1574.491"/>
      <line x1="209.957" y1="1575.491" x2="159.957" y2="1575.491"/>
      <line x1="209.957" y1="1576.491" x2="159.957" y2="1576.491"/>
      <line x1="209.957" y1="1577.491" x2="159.957" y2="1577.491"/>
      <line x1="209.957" y1="1578.491" x2="159.957" y2="1578.491"/>
      <line x1="260.057" y1="1529.491" x2="210.057" y2="1529.491"/>
      <line x1="260.057" y1="1530.491" x2="210.057" y2="1530.491"/>
      <line x1="260.057" y1="1531.491" x2="210.057" y2="1531.491"/>
      <line x1="260.057" y1="1532.491" x2="210.057" y2="1532.491"/>
      <line x1="260.057" y1="1533.491" x2="210.057" y2="1533.491"/>
      <line x1="260.057" y1="1534.491" x2="210.057" y2="1534.491"/>
      <line x1="260.057" y1="1535.491" x2="210.057" y2="1535.491"/>
      <line x1="260.057" y1="1536.491" x2="210.057" y2="1536.491"/>
      <line x1="260.057" y1="1537.491" x2="210.057" y2="1537.491"/>
      <line x1="260.057" y1="1538.491" x2="210.057" y2="1538.491"/>
      <line x1="260.057" y1="1539.491" x2="210.057" y2="1539.491"/>
      <line x1="260.057" y1="1540.491" x2="210.057" y2="1540.491"/>
      <line x1="260.057" y1="1541.491" x2="210.057" y2="1541.491"/>
      <line x1="260.057" y1="1542.491" x2="210.057" y2="1542.491"/>
      <line x1="260.057" y1="1543.491" x2="210.057" y2="1543.491"/>
      <line x1="260.057" y1="1544.491" x2="210.057" y2="1544.491"/>
      <line x1="260.057" y1="1545.491" x2="210.057" y2="1545.491"/>
      <line x1="260.057" y1="1546.491" x2="210.057" y2="1546.491"/>
      <line x1="260.057" y1="1547.491" x2="210.057" y2="1547.491"/>
      <line x1="260.057" y1="1548.491" x2="210.057" y2="1548.491"/>
      <line x1="260.057" y1="1549.491" x2="210.057" y2="1549.491"/>
      <line x1="260.057" y1="1550.491" x2="210.057" y2="1550.491"/>
      <line x1="260.057" y1="1551.491" x2="210.057" y2="1551.491"/>
      <line x1="260.057" y1="1552.491" x2="210.057" y2="1552.491"/>
      <line x1="260.057" y1="1553.491" x2="210.057" y2="1553.491"/>
      <line x1="260.057" y1="1554.491" x2="210.057" y2="1554.491"/>
      <line x1="260.057" y1="1555.491" x2="210.057" y2="1555.491"/>
      <line x1="260.057" y1="1556.491" x2="210.057" y2="1556.491"/>
      <line x1="260.057" y1="1557.491" x2="210.057" y2="1557.491"/>
      <line x1="260.057" y1="1558.491" x2="210.057" y2="1558.491"/>
      <line x1="260.057" y1="1559.491" x2="210.057" y2="1559.491"/>
      <line x1="260.057" y1="1560.491" x2="210.057" y2="1560.491"/>
      <line x1="260.057" y1="1561.491" x2="210.057" y2="1561.491"/>
      <line x1="260.057" y1="1562.491" x2="210.057" y2="1562.491"/>
      <line x1="260.057" y1="1563.491" x2="210.057" y2="1563.491"/>
      <line x1="260.057" y1="1564.491" x2="210.057" y2="1564.491"/>
      <line x1="260.057" y1="1565.491" x2="210.057" y2="1565.491"/>
      <line x1="260.057" y1="1566.491" x2="210.057" y2="1566.491"/>
      <line x1="260.057" y1="1567.491" x2="210.057" y2="1567.491"/>
      <line x1="260.057" y1="1568.491" x2="210.057" y2="1568.491"/>
      <line x1="260.057" y1="1569.491" x2="210.057" y2="1569.491"/>
      <line x1="260.057" y1="1570.491" x2="210.057" y2="1570.491"/>
      <line x1="260.057" y1="1571.491" x2="210.057" y2="1571.491"/>
      <line x1="260.057" y1="1572.491" x2="210.057" y2="1572.491"/>
      <line x1="260.057" y1="1573.491" x2="210.057" y2="1573.491"/>
      <line x1="260.057" y1="1574.491" x2="210.057" y2="1574.491"/>
      <line x1="260.057" y1="1575.491" x2="210.057" y2="1575.491"/>
      <line x1="260.057" y1="1576.491" x2="210.057" y2="1576.491"/>
      <line x1="260.057" y1="1577.491" x2="210.057" y2="1577.491"/>
      <line x1="260.057" y1="1578.491" x2="210.057" y2="1578.491"/>
      <line x1="310.157" y1="1529.491" x2="260.157" y2="1529.491"/>
      <line x1="310.157" y1="1530.491" x2="260.157" y2="1530.491"/>
      <line x1="310.157" y1="1531.491" x2="260.157" y2="1531.491"/>
      <line x1="310.157" y1="1532.491" x2="260.157" y2="1532.491"/>
      <line x1="310.157" y1="1533.491" x2="260.157" y2="1533.491"/>
      <line x1="310.157" y1="1534.491" x2="260.157" y2="1534.491"/>
      <line x1="310.157" y1="1535.491" x2="260.157" y2="1535.491"/>
      <line x1="310.157" y1="1536.491" x2="260.157" y2="1536.491"/>
      <line x1="310.157" y1="1537.491" x2="260.157" y2="1537.491"/>
      <line x1="310.157" y1="1538.491" x2="260.157" y2="1538.491"/>
      <line x1="310.157" y1="1539.491" x2="260.157" y2="1539.491"/>
      <line x1="310.157" y1="1540.491" x2="260.157" y2="1540.491"/>
      <line x1="310.157" y1="1541.491" x2="260.157" y2="1541.491"/>
      <line x1="310.157" y1="1542.491" x2="260.157" y2="1542.491"/>
      <line x1="310.157" y1="1543.491" x2="260.157" y2="1543.491"/>
      <line x1="310.157" y1="1544.491" x2="260.157" y2="1544.491"/>
      <line x1="310.157" y1="1545.491" x2="260.157" y2="1545.491"/>
      <line x1="310.157" y1="1546.491" x2="260.157" y2="1546.491"/>
      <line x1="310.157" y1="1547.491" x2="260.157" y2="1547.491"/>
      <line x1="310.157" y1="1548.491" x2="260.157" y2="1548.491"/>
      <line x1="310.157" y1="1549.491" x2="260.157" y2="1549.491"/>
      <line x1="310.157" y1="1550.491" x2="260.157" y2="1550.491"/>
      <line x1="310.157" y1="1551.491" x2="260.157" y2="1551.491"/>
      <line x1="310.157" y1="1552.491" x2="260.157" y2="1552.491"/>
      <line x1="310.157" y1="1553.491" x2="260.157" y2="1553.491"/>
      <line x1="310.157" y1="1554.491" x2="260.157" y2="1554.491"/>
      <line x1="310.157" y1="1555.491" x2="260.157" y2="1555.491"/>
      <line x1="310.157" y1="1556.491" x2="260.157" y2="1556.491"/>
      <line x1="310.157" y1="1557.491" x2="260.157" y2="1557.491"/>
      <line x1="310.157" y1="1558.491" x2="260.157" y2="1558.491"/>
      <line x1="310.157" y1="1559.491" x2="260.157" y2="1559.491"/>
      <line x1="310.157" y1="1560.491" x2="260.157" y2="1560.491"/>
      <line x1="310.157" y1="1561.491" x2="260.157" y2="1561.491"/>
      <line x1="310.157" y1="1562.491" x2="260.157" y2="1562.491"/>
      <line x1="310.157" y1="1563.491" x2="260.157" y2="1563.491"/>
      <line x1="310.157" y1="1564.491" x2="260.157" y2="1564.491"/>
      <line x1="310.157" y1="1565.491" x2="260.157" y2="1565.491"/>
      <line x1="310.157" y1="1566.491" x2="260.157" y2="1566.491"/>
      <line x1="310.157" y1="1567.491" x2="260.157" y2="1567.491"/>
      <line x1="310.157" y1="1568.491" x2="260.157" y2="1568.491"/>
      <line x1="310.157" y1="1569.491" x2="260.157" y2="1569.491"/>
      <line x1="310.157" y1="1570.491" x2="260.157" y2="1570.491"/>
      <line x1="310.157" y1="1571.491" x2="260.157" y2="1571.491"/>
      <line x1="310.157" y1="1572.491" x2="260.157" y2="1572.491"/>
      <line x1="310.157" y1="1573.491" x2="260.157" y2="1573.491"/>
      <line x1="310.157" y1="1574.491" x2="260.157" y2="1574.491"/>
      <line x1="310.157" y1="1575.491" x2="260.157" y2="1575.491"/>
      <line x1="310.157" y1="1576.491" x2="260.157" y2="1576.491"/>
      <line x1="310.157" y1="1577.491" x2="260.157" y2="1577.491"/>
      <line x1="310.157" y1="1578.491" x2="260.157" y2="1578.491"/>
      <line x1="360.257" y1="1529.491" x2="310.257" y2="1529.491"/>
      <line x1="360.257" y1="1530.491" x2="310.257" y2="1530.491"/>
      <line x1="360.257" y1="1531.491" x2="310.257" y2="1531.491"/>
      <line x1="360.257" y1="1532.491" x2="310.257" y2="1532.491"/>
      <line x1="360.257" y1="1533.491" x2="310.257" y2="1533.491"/>
      <line x1="360.257" y1="1534.491" x2="310.257" y2="1534.491"/>
      <line x1="360.257" y1="1535.491" x2="310.257" y2="1535.491"/>
      <line x1="360.257" y1="1536.491" x2="310.257" y2="1536.491"/>
      <line x1="360.257" y1="1537.491" x2="310.257" y2="1537.491"/>
      <line x1="360.257" y1="1538.491" x2="310.257" y2="1538.491"/>
      <line x1="360.257" y1="1539.491" x2="310.257" y2="1539.491"/>
      <line x1="360.257" y1="1540.491" x2="310.257" y2="1540.491"/>
      <line x1="360.257" y1="1541.491" x2="310.257" y2="1541.491"/>
      <line x1="360.257" y1="1542.491" x2="310.257" y2="1542.491"/>
      <line x1="360.257" y1="1543.491" x2="310.257" y2="1543.491"/>
      <line x1="360.257" y1="1544.491" x2="310.257" y2="1544.491"/>
      <line x1="360.257" y1="1545.491" x2="310.257" y2="1545.491"/>
      <line x1="360.257" y1="1546.491" x2="310.257" y2="1546.491"/>
      <line x1="360.257" y1="1547.491" x2="310.257" y2="1547.491"/>
      <line x1="360.257" y1="1548.491" x2="310.257" y2="1548.491"/>
      <line x1="360.257" y1="1549.491" x2="310.257" y2="1549.491"/>
      <line x1="360.257" y1="1550.491" x2="310.257" y2="1550.491"/>
      <line x1="360.257" y1="1551.491" x2="310.257" y2="1551.491"/>
      <line x1="360.257" y1="1552.491" x2="310.257" y2="1552.491"/>
      <line x1="360.257" y1="1553.491" x2="310.257" y2="1553.491"/>
      <line x1="360.257" y1="1554.491" x2="310.257" y2="1554.491"/>
      <line x1="360.257" y1="1555.491" x2="310.257" y2="1555.491"/>
      <line x1="360.257" y1="1556.491" x2="310.257" y2="1556.491"/>
      <line x1="360.257" y1="1557.491" x2="310.257" y2="1557.491"/>
      <line x1="360.257" y1="1558.491" x2="310.257" y2="1558.491"/>
      <line x1="360.257" y1="1559.491" x2="310.257" y2="1559.491"/>
      <line x1="360.257" y1="1560.491" x2="310.257" y2="1560.491"/>
      <line x1="360.257" y1="1561.491" x2="310.257" y2="1561.491"/>
      <line x1="360.257" y1="1562.491" x2="310.257" y2="1562.491"/>
      <line x1="360.257" y1="1563.491" x2="310.257" y2="1563.491"/>
      <line x1="360.257" y1="1564.491" x2="310.257" y2="1564.491"/>
      <line x1="360.257" y1="1565.491" x2="310.257" y2="1565.491"/>
      <line x1="360.257" y1="1566.491" x2="310.257" y2="1566.491"/>
      <line x1="360.257" y1="1567.491" x2="310.257" y2="1567.491"/>
      <line x1="360.257" y1="1568.491" x2="310.257" y2="1568.491"/>
      <line x1="360.257" y1="1569.491" x2="310.257" y2="1569.491"/>
      <line x1="360.257" y1="1570.491" x2="310.257" y2="1570.491"/>
      <line x1="360.257" y1="1571.491" x2="310.257" y2="1571.491"/>
      <line x1="360.257" y1="1572.491" x2="310.257" y2="1572.491"/>
      <line x1="360.257" y1="1573.491" x2="310.257" y2="1573.491"/>
      <line x1="360.257" y1="1574.491" x2="310.257" y2="1574.491"/>
      <line x1="360.257" y1="1575.491" x2="310.257" y2="1575.491"/>
      <line x1="360.257" y1="1576.491" x2="310.257" y2="1576.491"/>
      <line x1="360.257" y1="1577.491" x2="310.257" y2="1577.491"/>
      <line x1="360.257" y1="1578.491" x2="310.257" y2="1578.491"/>
      <line x1="410.357" y1="1529.491" x2="360.357" y2="1529.491"/>
      <line x1="410.357" y1="1530.491" x2="360.357" y2="1530.491"/>
      <line x1="410.357" y1="1531.491" x2="360.357" y2="1531.491"/>
      <line x1="410.357" y1="1532.491" x2="360.357" y2="1532.491"/>
      <line x1="410.357" y1="1533.491" x2="360.357" y2="1533.491"/>
      <line x1="410.357" y1="1534.491" x2="360.357" y2="1534.491"/>
      <line x1="410.357" y1="1535.491" x2="360.357" y2="1535.491"/>
      <line x1="410.357" y1="1536.491" x2="360.357" y2="1536.491"/>
      <line x1="410.357" y1="1537.491" x2="360.357" y2="1537.491"/>
      <line x1="410.357" y1="1538.491" x2="360.357" y2="1538.491"/>
      <line x1="410.357" y1="1539.491" x2="360.357" y2="1539.491"/>
      <line x1="410.357" y1="1540.491" x2="360.357" y2="1540.491"/>
      <line x1="410.357" y1="1541.491" x2="360.357" y2="1541.491"/>
      <line x1="410.357" y1="1542.491" x2="360.357" y2="1542.491"/>
      <line x1="410.357" y1="1543.491" x2="360.357" y2="1543.491"/>
      <line x1="410.357" y1="1544.491" x2="360.357" y2="1544.491"/>
      <line x1="410.357" y1="1545.491" x2="360.357" y2="1545.491"/>
      <line x1="410.357" y1="1546.491" x2="360.357" y2="1546.491"/>
      <line x1="410.357" y1="1547.491" x2="360.357" y2="1547.491"/>
      <line x1="410.357" y1="1548.491" x2="360.357" y2="1548.491"/>
      <line x1="410.357" y1="1549.491" x2="360.357" y2="1549.491"/>
      <line x1="410.357" y1="1550.491" x2="360.357" y2="1550.491"/>
      <line x1="410.357" y1="1551.491" x2="360.357" y2="1551.491"/>
      <line x1="410.357" y1="1552.491" x2="360.357" y2="1552.491"/>
      <line x1="410.357" y1="1553.491" x2="360.357" y2="1553.491"/>
      <line x1="410.357" y1="1554.491" x2="360.357" y2="1554.491"/>
      <line x1="410.357" y1="1555.491" x2="360.357" y2="1555.491"/>
      <line x1="410.357" y1="1556.491" x2="360.357" y2="1556.491"/>
      <line x1="410.357" y1="1557.491" x2="360.357" y2="1557.491"/>
      <line x1="410.357" y1="1558.491" x2="360.357" y2="1558.491"/>
      <line x1="410.357" y1="1559.491" x2="360.357" y2="1559.491"/>
      <line x1="410.357" y1="1560.491" x2="360.357" y2="1560.491"/>
      <line x1="410.357" y1="1561.491" x2="360.357" y2="1561.491"/>
      <line x1="410.357" y1="1562.491" x2="360.357" y2="1562.491"/>
      <line x1="410.357" y1="1563.491" x2="360.357" y2="1563.491"/>
      <line x1="410.357" y1="1564.491" x2="360.357" y2="1564.491"/>
      <line x1="410.357" y1="1565.491" x2="360.357" y2="1565.491"/>
      <line x1="410.357" y1="1566.491" x2="360.357" y2="1566.491"/>
      <line x1="410.357" y1="1567.491" x2="360.357" y2="1567.491"/>
      <line x1="410.357" y1="1568.491" x2="360.357" y2="1568.491"/>
      <line x1="410.357" y1="1569.491" x2="360.357" y2="1569.491"/>
      <line x1="410.357" y1="1570.491" x2="360.357" y2="1570.491"/>
      <line x1="410.357" y1="1571.491" x2="360.357" y2="1571.491"/>
      <line x1="410.357" y1="1572.491" x2="360.357" y2="1572.491"/>
      <line x1="410.357" y1="1573.491" x2="360.357" y2="1573.491"/>
      <line x1="410.357" y1="1574.491" x2="360.357" y2="1574.491"/>
      <line x1="410.357" y1="1575.491" x2="360.357" y2="1575.491"/>
      <line x1="410.357" y1="1576.491" x2="360.357" y2="1576.491"/>
      <line x1="410.357" y1="1577.491" x2="360.357" y2="1577.491"/>
      <line x1="410.357" y1="1578.491" x2="360.357" y2="1578.491"/>
      <line x1="440.043" y1="1529.491" x2="410.457" y2="1529.491"/>
      <line x1="440.043" y1="1530.491" x2="410.457" y2="1530.491"/>
      <line x1="440.043" y1="1531.491" x2="410.457" y2="1531.491"/>
      <line x1="440.043" y1="1532.491" x2="410.457" y2="1532.491"/>
      <line x1="440.043" y1="1533.491" x2="410.457" y2="1533.491"/>
      <line x1="440.043" y1="1534.491" x2="410.457" y2="1534.491"/>
      <line x1="440.043" y1="1535.491" x2="410.457" y2="1535.491"/>
      <line x1="440.043" y1="1536.491" x2="410.457" y2="1536.491"/>
      <line x1="440.043" y1="1537.491" x2="410.457" y2="1537.491"/>
      <line x1="440.043" y1="1538.491" x2="410.457" y2="1538.491"/>
      <line x1="440.043" y1="1539.491" x2="410.457" y2="1539.491"/>
      <line x1="440.043" y1="1540.491" x2="410.457" y2="1540.491"/>
      <line x1="440.043" y1="1541.491" x2="410.457" y2="1541.491"/>
      <line x1="440.043" y1="1542.491" x2="410.457" y2="1542.491"/>
      <line x1="440.043" y1="1543.491" x2="410.457" y2="1543.491"/>
      <line x1="440.043" y1="1544.491" x2="410.457" y2="1544.491"/>
      <line x1="440.043" y1="1545.491" x2="410.457" y2="1545.491"/>
      <line x1="440.043" y1="1546.491" x2="410.457" y2="1546.491"/>
      <line x1="440.043" y1="1547.491" x2="410.457" y2="1547.491"/>
      <line x1="440.043" y1="1548.491" x2="410.457" y2="1548.491"/>
      <line x1="440.043" y1="1549.491" x2="410.457" y2="1549.491"/>
      <line x1="440.043" y1="1550.491" x2="410.457" y2="1550.491"/>
      <line x1="440.043" y1="1551.491" x2="410.457" y2="1551.491"/>
      <line x1="440.043" y1="1552.491" x2="410.457" y2="1552.491"/>
      <line x1="440.043" y1="1553.491" x2="410.457" y2="1553.491"/>
      <line x1="440.043" y1="1554.491" x2="410.457" y2="1554.491"/>
      <line x1="440.043" y1="1555.491" x2="410.457" y2="1555.491"/>
      <line x1="440.043" y1="1556.491" x2="410.457" y2="1556.491"/>
      <line x1="440.043" y1="1557.491" x2="410.457" y2="1557.491"/>
      <line x1="440.043" y1="1558.491" x2="410.457" y2="1558.491"/>
      <line x1="440.043" y1="1559.491" x2="410.457" y2="1559.491"/>
      <line x1="440.043" y1="1560.491" x2="410.457" y2="1560.491"/>
      <line x1="440.043" y1="1561.491" x2="410.457" y2="1561.491"/>
      <line x1="440.043" y1="1562.491" x2="410.457" y2="1562.491"/>
      <line x1="440.043" y1="1563.491" x2="410.457" y2="1563.491"/>
      <line x1="440.043" y1="1564.491" x2="410.457" y2="1564.491"/>
      <line x1="440.043" y1="1565.491" x2="410.457" y2="1565.491"/>
      <line x1="440.043" y1="1566.491" x2="410.457" y2="1566.491"/>
      <line x1="440.043" y1="1567.491" x2="410.457" y2="1567.491"/>
      <line x1="440.043" y1="1568.491" x2="410.457" y2="1568.491"/>
      <line x1="440.043" y1="1569.491" x2="410.457" y2="1569.491"/>
      <line x1="440.043" y1="1570.491" x2="410.457" y2="1570.491"/>
      <line x1="440.043" y1="1571.491" x2="410.457" y2="1571.491"/>
      <line x1="440.043" y1="1572.491" x2="410.457" y2="1572.491"/>
      <line x1="440.043" y1="1573.491" x2="410.457" y2="1573.491"/>
      <line x1="440.043" y1="1574.491" x2="410.457" y2="1574.491"/>
      <line x1="440.043" y1="1575.491" x2="410.457" y2="1575.491"/>
      <line x1="440.043" y1="1576.491" x2="410.457" y2="1576.491"/>
      <line x1="440.043" y1="1577.491" x2="410.457" y2="1577.491"/>
      <line x1="440.043" y1="1578.491" x2="410.457" y2="1578.491"/>
      <line x1="209.957" y1="1525.491" x2="159.957" y2="1525.491"/>
      <line x1="209.957" y1="1526.491" x2="159.957" y2="1526.491"/>
      <line x1="209.957" y1="1527.491" x2="159.957" y2="1527.491"/>
      <line x1="209.957" y1="1528.491" x2="159.957" y2="1528.491"/>
      <line x1="260.057" y1="1525.491" x2="210.057" y2="1525.491"/>
      <line x1="260.057" y1="1526.491" x2="210.057" y2="1526.491"/>
      <line x1="260.057" y1="1527.491" x2="210.057" y2="1527.491"/>
      <line x1="260.057" y1="1528.491" x2="210.057" y2="1528.491"/>
      <line x1="310.157" y1="1525.491" x2="260.157" y2="1525.491"/>
      <line x1="310.157" y1="1526.491" x2="260.157" y2="1526.491"/>
      <line x1="310.157" y1="1527.491" x2="260.157" y2="1527.491"/>
      <line x1="310.157" y1="1528.491" x2="260.157" y2="1528.491"/>
      <line x1="360.257" y1="1525.491" x2="310.257" y2="1525.491"/>
      <line x1="360.257" y1="1526.491" x2="310.257" y2="1526.491"/>
      <line x1="360.257" y1="1527.491" x2="310.257" y2="1527.491"/>
      <line x1="360.257" y1="1528.491" x2="310.257" y2="1528.491"/>
      <line x1="410.357" y1="1525.491" x2="360.357" y2="1525.491"/>
      <line x1="410.357" y1="1526.491" x2="360.357" y2="1526.491"/>
      <line x1="410.357" y1="1527.491" x2="360.357" y2="1527.491"/>
      <line x1="410.357" y1="1528.491" x2="360.357" y2="1528.491"/>
      <line x1="440.043" y1="1525.491" x2="410.457" y2="1525.491"/>
      <line x1="440.043" y1="1526.491" x2="410.457" y2="1526.491"/>
      <line x1="440.043" y1="1527.491" x2="410.457" y2="1527.491"/>
      <line x1="440.043" y1="1528.491" x2="410.457" y2="1528.491"/>
    </g>
    <g stroke="#1976D2" stroke-width="0.4">
      <polyline points="443.542,1521.729 156.458,1521.729 156.458,1682.729 443.542,1682.729 443.542,1521.729" fill="none"/>
      <polyline points="442.542,1522.729 157.458,1522.729 157.458,1681.730 442.542,1681.730 442.542,1522.729" fill="none"/>
      <polyline points="441.542,1523.729 158.458,1523.729 158.458,1680.730 441.542,1680.730 441.542,1523.729" fill="none"/>
      <polyline points="440.542,1524.729 159.458,1524.729 159.458,1679.729 440.542,1679.729 440.542,1524.729" fill="none"/>
    </g>
    <g stroke="#C62828" stroke-width="0.4" fill="none">
    </g>
    <g stroke="#EF6C00" stroke-width="0.4" fill="none">
    </g>
  </g>
  <g stroke="#000000" stroke-width="0.4">
    <line x1="500.000" y1="1000.000" x2="1500.000" y2="1000.000"/>
  </g>
  <g stroke="#000000" stroke-width="0.4">
    <line x1="1000.000" y1="500.000" x2="1000.000" y2="1500.000"/>
  </g>
  <circle cx="1000.000" cy="1000.000" r="1000.000" stroke="red" stroke-width="1" fill="none"/>
  </g>
</svg>
