<?xml version="1.0" encoding="UTF-8"?>
<svg xmlns="http://www.w3.org/2000/svg" version="1.1" width="2000" height="2000">
  <g fill="none" stroke-linecap="round" stroke-linejoin="round">
  <text x="10" y="20" font-size="24" fill="#555">Layer 279 Z=67.800 mm</text>
  <g transform="translate(700.000,-602.229)">
    <g stroke="#2E7D32" stroke-width="0.4">
      <line x1="284.598" y1="1629.337" x2="234.598" y2="1629.337"/>
      <line x1="284.598" y1="1630.337" x2="234.598" y2="1630.337"/>
      <line x1="284.598" y1="1631.337" x2="234.598" y2="1631.337"/>
      <line x1="284.598" y1="1632.337" x2="234.598" y2="1632.337"/>
      <line x1="284.598" y1="1633.337" x2="234.598" y2="1633.337"/>
      <line x1="284.598" y1="1634.337" x2="234.598" y2="1634.337"/>
      <line x1="284.598" y1="1635.337" x2="234.598" y2="1635.337"/>
      <line x1="284.598" y1="1636.337" x2="234.598" y2="1636.337"/>
      <line x1="284.598" y1="1637.337" x2="234.598" y2="1637.337"/>
      <line x1="284.598" y1="1638.337" x2="234.598" y2="1638.337"/>
      <line x1="284.598" y1="1639.337" x2="234.598" y2="1639.337"/>
      <line x1="284.598" y1="1640.337" x2="234.598" y2="1640.337"/>
      <line x1="284.598" y1="1641.337" x2="234.598" y2="1641.337"/>
      <line x1="284.598" y1="1642.337" x2="234.598" y2="1642.337"/>
      <line x1="284.598" y1="1643.337" x2="234.598" y2="1643.337"/>
      <line x1="284.598" y1="1644.337" x2="234.598" y2="1644.337"/>
      <line x1="284.598" y1="1645.337" x2="234.598" y2="1645.337"/>
      <line x1="284.598" y1="1646.337" x2="234.598" y2="1646.337"/>
      <line x1="284.598" y1="1647.337" x2="234.598" y2="1647.337"/>
      <line x1="284.598" y1="1648.337" x2="234.598" y2="1648.337"/>
      <line x1="284.598" y1="1649.337" x2="234.598" y2="1649.337"/>
      <line x1="284.598" y1="1650.337" x2="234.598" y2="1650.337"/>
      <line x1="284.598" y1="1651.337" x2="234.598" y2="1651.337"/>
      <line x1="284.598" y1="1652.337" x2="234.598" y2="1652.337"/>
      <line x1="284.598" y1="1653.337" x2="234.598" y2="1653.337"/>
      <line x1="284.598" y1="1654.337" x2="234.598" y2="1654.337"/>
      <line x1="284.598" y1="1655.337" x2="234.598" y2="1655.337"/>
      <line x1="284.598" y1="1656.337" x2="234.598" y2="1656.337"/>
      <line x1="284.598" y1="1657.337" x2="234.598" y2="1657.337"/>
      <line x1="284.598" y1="1658.337" x2="234.598" y2="1658.337"/>
      <line x1="284.598" y1="1659.337" x2="234.598" y2="1659.337"/>
      <line x1="284.598" y1="1660.337" x2="234.598" y2="1660.337"/>
      <line x1="284.598" y1="1661.337" x2="234.598" y2="1661.337"/>
      <line x1="284.598" y1="1662.337" x2="234.598" y2="1662.337"/>
      <line x1="284.598" y1="1663.337" x2="234.598" y2="1663.337"/>
      <line x1="284.598" y1="1664.337" x2="234.598" y2="1664.337"/>
      <line x1="284.598" y1="1665.337" x2="234.598" y2="1665.337"/>
      <line x1="284.598" y1="1666.337" x2="234.598" y2="1666.337"/>
      <line x1="284.598" y1="1667.337" x2="234.598" y2="1667.337"/>
      <line x1="284.598" y1="1668.337" x2="234.598" y2="1668.337"/>
      <line x1="284.598" y1="1669.337" x2="234.598" y2="1669.337"/>
      <line x1="284.598" y1="1670.337" x2="234.598" y2="1670.337"/>
      <line x1="284.598" y1="1671.337" x2="234.598" y2="1671.337"/>
      <line x1="284.598" y1="1672.337" x2="234.598" y2="1672.337"/>
      <line x1="284.598" y1="1673.337" x2="234.598" y2="1673.337"/>
      <line x1="284.598" y1="1674.337" x2="234.598" y2="1674.337"/>
      <line x1="284.598" y1="1675.337" x2="234.598" y2="1675.337"/>
      <line x1="284.598" y1="1676.337" x2="234.598" y2="1676.337"/>
      <line x1="284.598" y1="1677.337" x2="234.598" y2="1677.337"/>
      <line x1="284.598" y1="1678.337" x2="234.598" y2="1678.337"/>
      <line x1="334.698" y1="1629.337" x2="284.698" y2="1629.337"/>
      <line x1="334.698" y1="1630.337" x2="284.698" y2="1630.337"/>
      <line x1="334.698" y1="1631.337" x2="284.698" y2="1631.337"/>
      <line x1="334.698" y1="1632.337" x2="284.698" y2="1632.337"/>
      <line x1="334.698" y1="1633.337" x2="284.698" y2="1633.337"/>
      <line x1="334.698" y1="1634.337" x2="284.698" y2="1634.337"/>
      <line x1="334.698" y1="1635.337" x2="284.698" y2="1635.337"/>
      <line x1="334.698" y1="1636.337" x2="284.698" y2="1636.337"/>
      <line x1="334.698" y1="1637.337" x2="284.698" y2="1637.337"/>
      <line x1="334.698" y1="1638.337" x2="284.698" y2="1638.337"/>
      <line x1="334.698" y1="1639.337" x2="284.698" y2="1639.337"/>
      <line x1="334.698" y1="1640.337" x2="284.698" y2="1640.337"/>
      <line x1="334.698" y1="1641.337" x2="284.698" y2="1641.337"/>
      <line x1="334.698" y1="1642.337" x2="284.698" y2="1642.337"/>
      <line x1="334.698" y1="1643.337" x2="284.698" y2="1643.337"/>
      <line x1="334.698" y1="1644.337" x2="284.698" y2="1644.337"/>
      <line x1="334.698" y1="1645.337" x2="284.698" y2="1645.337"/>
      <line x1="334.698" y1="1646.337" x2="284.698" y2="1646.337"/>
      <line x1="334.698" y1="1647.337" x2="284.698" y2="1647.337"/>
      <line x1="334.698" y1="1648.337" x2="284.698" y2="1648.337"/>
      <line x1="334.698" y1="1649.337" x2="284.698" y2="1649.337"/>
      <line x1="334.698" y1="1650.337" x2="284.698" y2="1650.337"/>
      <line x1="334.698" y1="1651.337" x2="284.698" y2="1651.337"/>
      <line x1="334.698" y1="1652.337" x2="284.698" y2="1652.337"/>
      <line x1="334.698" y1="1653.337" x2="284.698" y2="1653.337"/>
      <line x1="334.698" y1="1654.337" x2="284.698" y2="1654.337"/>
      <line x1="334.698" y1="1655.337" x2="284.698" y2="1655.337"/>
      <line x1="334.698" y1="1656.337" x2="284.698" y2="1656.337"/>
      <line x1="334.698" y1="1657.337" x2="284.698" y2="1657.337"/>
      <line x1="334.698" y1="1658.337" x2="284.698" y2="1658.337"/>
      <line x1="334.698" y1="1659.337" x2="284.698" y2="1659.337"/>
      <line x1="334.698" y1="1660.337" x2="284.698" y2="1660.337"/>
      <line x1="334.698" y1="1661.337" x2="284.698" y2="1661.337"/>
      <line x1="334.698" y1="1662.337" x2="284.698" y2="1662.337"/>
      <line x1="334.698" y1="1663.337" x2="284.698" y2="1663.337"/>
      <line x1="334.698" y1="1664.337" x2="284.698" y2="1664.337"/>
      <line x1="334.698" y1="1665.337" x2="284.698" y2="1665.337"/>
      <line x1="334.698" y1="1666.337" x2="284.698" y2="1666.337"/>
      <line x1="334.698" y1="1667.337" x2="284.698" y2="1667.337"/>
      <line x1="334.698" y1="1668.337" x2="284.698" y2="1668.337"/>
      <line x1="334.698" y1="1669.337" x2="284.698" y2="1669.337"/>
      <line x1="334.698" y1="1670.337" x2="284.698" y2="1670.337"/>
      <line x1="334.698" y1="1671.337" x2="284.698" y2="1671.337"/>
      <line x1="334.698" y1="1672.337" x2="284.698" y2="1672.337"/>
      <line x1="334.698" y1="1673.337" x2="284.698" y2="1673.337"/>
      <line x1="334.698" y1="1674.337" x2="284.698" y2="1674.337"/>
      <line x1="334.698" y1="1675.337" x2="284.698" y2="1675.337"/>
      <line x1="334.698" y1="1676.337" x2="284.698" y2="1676.337"/>
      <line x1="334.698" y1="1677.337" x2="284.698" y2="1677.337"/>
      <line x1="334.698" y1="1678.337" x2="284.698" y2="1678.337"/>
      <line x1="365.402" y1="1629.337" x2="334.798" y2="1629.337"/>
      <line x1="365.402" y1="1630.337" x2="334.798" y2="1630.337"/>
      <line x1="365.402" y1="1631.337" x2="334.798" y2="1631.337"/>
      <line x1="365.402" y1="1632.337" x2="334.798" y2="1632.337"/>
      <line x1="365.402" y1="1633.337" x2="334.798" y2="1633.337"/>
      <line x1="365.402" y1="1634.337" x2="334.798" y2="1634.337"/>
      <line x1="365.402" y1="1635.337" x2="334.798" y2="1635.337"/>
      <line x1="365.402" y1="1636.337" x2="334.798" y2="1636.337"/>
      <line x1="365.402" y1="1637.337" x2="334.798" y2="1637.337"/>
      <line x1="365.402" y1="1638.337" x2="334.798" y2="1638.337"/>
      <line x1="365.402" y1="1639.337" x2="334.798" y2="1639.337"/>
      <line x1="365.402" y1="1640.337" x2="334.798" y2="1640.337"/>
      <line x1="365.402" y1="1641.337" x2="334.798" y2="1641.337"/>
      <line x1="365.402" y1="1642.337" x2="334.798" y2="1642.337"/>
      <line x1="365.402" y1="1643.337" x2="334.798" y2="1643.337"/>
      <line x1="365.402" y1="1644.337" x2="334.798" y2="1644.337"/>
      <line x1="365.402" y1="1645.337" x2="334.798" y2="1645.337"/>
      <line x1="365.402" y1="1646.337" x2="334.798" y2="1646.337"/>
      <line x1="365.402" y1="1647.337" x2="334.798" y2="1647.337"/>
      <line x1="365.402" y1="1648.337" x2="334.798" y2="1648.337"/>
      <line x1="365.402" y1="1649.337" x2="334.798" y2="1649.337"/>
      <line x1="365.402" y1="1650.337" x2="334.798" y2="1650.337"/>
      <line x1="365.402" y1="1651.337" x2="334.798" y2="1651.337"/>
      <line x1="365.402" y1="1652.337" x2="334.798" y2="1652.337"/>
      <line x1="365.402" y1="1653.337" x2="334.798" y2="1653.337"/>
      <line x1="365.402" y1="1654.337" x2="334.798" y2="1654.337"/>
      <line x1="365.402" y1="1655.337" x2="334.798" y2="1655.337"/>
      <line x1="365.402" y1="1656.337" x2="334.798" y2="1656.337"/>
      <line x1="365.402" y1="1657.337" x2="334.798" y2="1657.337"/>
      <line x1="365.402" y1="1658.337" x2="334.798" y2="1658.337"/>
      <line x1="365.402" y1="1659.337" x2="334.798" y2="1659.337"/>
      <line x1="365.402" y1="1660.337" x2="334.798" y2="1660.337"/>
      <line x1="365.402" y1="1661.337" x2="334.798" y2="1661.337"/>
      <line x1="365.402" y1="1662.337" x2="334.798" y2="1662.337"/>
      <line x1="365.402" y1="1663.337" x2="334.798" y2="1663.337"/>
      <line x1="365.402" y1="1664.337" x2="334.798" y2="1664.337"/>
      <line x1="365.402" y1="1665.337" x2="334.798" y2="1665.337"/>
      <line x1="365.402" y1="1666.337" x2="334.798" y2="1666.337"/>
      <line x1="365.402" y1="1667.337" x2="334.798" y2="1667.337"/>
      <line x1="365.402" y1="1668.337" x2="334.798" y2="1668.337"/>
      <line x1="365.402" y1="1669.337" x2="334.798" y2="1669.337"/>
      <line x1="365.402" y1="1670.337" x2="334.798" y2="1670.337"/>
      <line x1="365.402" y1="1671.337" x2="334.798" y2="1671.337"/>
      <line x1="365.402" y1="1672.337" x2="334.798" y2="1672.337"/>
      <line x1="365.402" y1="1673.337" x2="334.798" y2="1673.337"/>
      <line x1="365.402" y1="1674.337" x2="334.798" y2="1674.337"/>
      <line x1="365.402" y1="1675.337" x2="334.798" y2="1675.337"/>
      <line x1="365.402" y1="1676.337" x2="334.798" y2="1676.337"/>
      <line x1="365.402" y1="1677.337" x2="334.798" y2="1677.337"/>
      <line x1="365.402" y1="1678.337" x2="334.798" y2="1678.337"/>
      <line x1="284.598" y1="1579.337" x2="234.598" y2="1579.337"/>
      <line x1="284.598" y1="1580.337" x2="234.598" y2="1580.337"/>
      <line x1="284.598" y1="1581.337" x2="234.598" y2="1581.337"/>
      <line x1="284.598" y1="1582.337" x2="234.598" y2="1582.337"/>
      <line x1="284.598" y1="1583.337" x2="234.598" y2="1583.337"/>
      <line x1="284.598" y1="1584.337" x2="234.598" y2="1584.337"/>
      <line x1="284.598" y1="1585.337" x2="234.598" y2="1585.337"/>
      <line x1="284.598" y1="1586.337" x2="234.598" y2="1586.337"/>
      <line x1="284.598" y1="1587.337" x2="234.598" y2="1587.337"/>
      <line x1="284.598" y1="1588.337" x2="234.598" y2="1588.337"/>
      <line x1="284.598" y1="1589.337" x2="234.598" y2="1589.337"/>
      <line x1="284.598" y1="1590.337" x2="234.598" y2="1590.337"/>
      <line x1="284.598" y1="1591.337" x2="234.598" y2="1591.337"/>
      <line x1="284.598" y1="1592.337" x2="234.598" y2="1592.337"/>
      <line x1="284.598" y1="1593.337" x2="234.598" y2="1593.337"/>
      <line x1="284.598" y1="1594.337" x2="234.598" y2="1594.337"/>
      <line x1="284.598" y1="1595.337" x2="234.598" y2="1595.337"/>
      <line x1="284.598" y1="1596.337" x2="234.598" y2="1596.337"/>
      <line x1="284.598" y1="1597.337" x2="234.598" y2="1597.337"/>
      <line x1="284.598" y1="1598.337" x2="234.598" y2="1598.337"/>
      <line x1="284.598" y1="1599.337" x2="234.598" y2="1599.337"/>
      <line x1="284.598" y1="1600.337" x2="234.598" y2="1600.337"/>
      <line x1="284.598" y1="1601.337" x2="234.598" y2="1601.337"/>
      <line x1="284.598" y1="1602.337" x2="234.598" y2="1602.337"/>
      <line x1="284.598" y1="1603.337" x2="234.598" y2="1603.337"/>
      <line x1="284.598" y1="1604.337" x2="234.598" y2="1604.337"/>
      <line x1="284.598" y1="1605.337" x2="234.598" y2="1605.337"/>
      <line x1="284.598" y1="1606.337" x2="234.598" y2="1606.337"/>
      <line x1="284.598" y1="1607.337" x2="234.598" y2="1607.337"/>
      <line x1="284.598" y1="1608.337" x2="234.598" y2="1608.337"/>
      <line x1="284.598" y1="1609.337" x2="234.598" y2="1609.337"/>
      <line x1="284.598" y1="1610.337" x2="234.598" y2="1610.337"/>
      <line x1="284.598" y1="1611.337" x2="234.598" y2="1611.337"/>
      <line x1="284.598" y1="1612.337" x2="234.598" y2="1612.337"/>
      <line x1="284.598" y1="1613.337" x2="234.598" y2="1613.337"/>
      <line x1="284.598" y1="1614.337" x2="234.598" y2="1614.337"/>
      <line x1="284.598" y1="1615.337" x2="234.598" y2="1615.337"/>
      <line x1="284.598" y1="1616.337" x2="234.598" y2="1616.337"/>
      <line x1="284.598" y1="1617.337" x2="234.598" y2="1617.337"/>
      <line x1="284.598" y1="1618.337" x2="234.598" y2="1618.337"/>
      <line x1="284.598" y1="1619.337" x2="234.598" y2="1619.337"/>
      <line x1="284.598" y1="1620.337" x2="234.598" y2="1620.337"/>
      <line x1="284.598" y1="1621.337" x2="234.598" y2="1621.337"/>
      <line x1="284.598" y1="1622.337" x2="234.598" y2="1622.337"/>
      <line x1="284.598" y1="1623.337" x2="234.598" y2="1623.337"/>
      <line x1="284.598" y1="1624.337" x2="234.598" y2="1624.337"/>
      <line x1="284.598" y1="1625.337" x2="234.598" y2="1625.337"/>
      <line x1="284.598" y1="1626.337" x2="234.598" y2="1626.337"/>
      <line x1="284.598" y1="1627.337" x2="234.598" y2="1627.337"/>
      <line x1="284.598" y1="1628.337" x2="234.598" y2="1628.337"/>
      <line x1="334.698" y1="1579.337" x2="284.698" y2="1579.337"/>
      <line x1="334.698" y1="1580.337" x2="284.698" y2="1580.337"/>
      <line x1="334.698" y1="1581.337" x2="284.698" y2="1581.337"/>
      <line x1="334.698" y1="1582.337" x2="284.698" y2="1582.337"/>
      <line x1="334.698" y1="1583.337" x2="284.698" y2="1583.337"/>
      <line x1="334.698" y1="1584.337" x2="284.698" y2="1584.337"/>
      <line x1="334.698" y1="1585.337" x2="284.698" y2="1585.337"/>
      <line x1="334.698" y1="1586.337" x2="284.698" y2="1586.337"/>
      <line x1="334.698" y1="1587.337" x2="284.698" y2="1587.337"/>
      <line x1="334.698" y1="1588.337" x2="284.698" y2="1588.337"/>
      <line x1="334.698" y1="1589.337" x2="284.698" y2="1589.337"/>
      <line x1="334.698" y1="1590.337" x2="284.698" y2="1590.337"/>
      <line x1="334.698" y1="1591.337" x2="284.698" y2="1591.337"/>
      <line x1="334.698" y1="1592.337" x2="284.698" y2="1592.337"/>
      <line x1="334.698" y1="1593.337" x2="284.698" y2="1593.337"/>
      <line x1="334.698" y1="1594.337" x2="284.698" y2="1594.337"/>
      <line x1="334.698" y1="1595.337" x2="284.698" y2="1595.337"/>
      <line x1="334.698" y1="1596.337" x2="284.698" y2="1596.337"/>
      <line x1="334.698" y1="1597.337" x2="284.698" y2="1597.337"/>
      <line x1="334.698" y1="1598.337" x2="284.698" y2="1598.337"/>
      <line x1="334.698" y1="1599.337" x2="284.698" y2="1599.337"/>
      <line x1="334.698" y1="1600.337" x2="284.698" y2="1600.337"/>
      <line x1="334.698" y1="1601.337" x2="284.698" y2="1601.337"/>
      <line x1="334.698" y1="1602.337" x2="284.698" y2="1602.337"/>
      <line x1="334.698" y1="1603.337" x2="284.698" y2="1603.337"/>
      <line x1="334.698" y1="1604.337" x2="284.698" y2="1604.337"/>
      <line x1="334.698" y1="1605.337" x2="284.698" y2="1605.337"/>
      <line x1="334.698" y1="1606.337" x2="284.698" y2="1606.337"/>
      <line x1="334.698" y1="1607.337" x2="284.698" y2="1607.337"/>
      <line x1="334.698" y1="1608.337" x2="284.698" y2="1608.337"/>
      <line x1="334.698" y1="1609.337" x2="284.698" y2="1609.337"/>
      <line x1="334.698" y1="1610.337" x2="284.698" y2="1610.337"/>
      <line x1="334.698" y1="1611.337" x2="284.698" y2="1611.337"/>
      <line x1="334.698" y1="1612.337" x2="284.698" y2="1612.337"/>
      <line x1="334.698" y1="1613.337" x2="284.698" y2="1613.337"/>
      <line x1="334.698" y1="1614.337" x2="284.698" y2="1614.337"/>
      <line x1="334.698" y1="1615.337" x2="284.698" y2="1615.337"/>
      <line x1="334.698" y1="1616.337" x2="284.698" y2="1616.337"/>
      <line x1="334.698" y1="1617.337" x2="284.698" y2="1617.337"/>
      <line x1="334.698" y1="1618.337" x2="284.698" y2="1618.337"/>
      <line x1="334.698" y1="1619.337" x2="284.698" y2="1619.337"/>
      <line x1="334.698" y1="1620.337" x2="284.698" y2="1620.337"/>
      <line x1="334.698" y1="1621.337" x2="284.698" y2="1621.337"/>
      <line x1="334.698" y1="1622.337" x2="284.698" y2="1622.337"/>
      <line x1="334.698" y1="1623.337" x2="284.698" y2="1623.337"/>
      <line x1="334.698" y1="1624.337" x2="284.698" y2="1624.337"/>
      <line x1="334.698" y1="1625.337" x2="284.698" y2="1625.337"/>
      <line x1="334.698" y1="1626.337" x2="284.698" y2="1626.337"/>
      <line x1="334.698" y1="1627.337" x2="284.698" y2="1627.337"/>
      <line x1="334.698" y1="1628.337" x2="284.698" y2="1628.337"/>
      <line x1="365.402" y1="1579.337" x2="334.798" y2="1579.337"/>
      <line x1="365.402" y1="1580.337" x2="334.798" y2="1580.337"/>
      <line x1="365.402" y1="1581.337" x2="334.798" y2="1581.337"/>
      <line x1="365.402" y1="1582.337" x2="334.798" y2="1582.337"/>
      <line x1="365.402" y1="1583.337" x2="334.798" y2="1583.337"/>
      <line x1="365.402" y1="1584.337" x2="334.798" y2="1584.337"/>
      <line x1="365.402" y1="1585.337" x2="334.798" y2="1585.337"/>
      <line x1="365.402" y1="1586.337" x2="334.798" y2="1586.337"/>
      <line x1="365.402" y1="1587.337" x2="334.798" y2="1587.337"/>
      <line x1="365.402" y1="1588.337" x2="334.798" y2="1588.337"/>
      <line x1="365.402" y1="1589.337" x2="334.798" y2="1589.337"/>
      <line x1="365.402" y1="1590.337" x2="334.798" y2="1590.337"/>
      <line x1="365.402" y1="1591.337" x2="334.798" y2="1591.337"/>
      <line x1="365.402" y1="1592.337" x2="334.798" y2="1592.337"/>
      <line x1="365.402" y1="1593.337" x2="334.798" y2="1593.337"/>
      <line x1="365.402" y1="1594.337" x2="334.798" y2="1594.337"/>
      <line x1="365.402" y1="1595.337" x2="334.798" y2="1595.337"/>
      <line x1="365.402" y1="1596.337" x2="334.798" y2="1596.337"/>
      <line x1="365.402" y1="1597.337" x2="334.798" y2="1597.337"/>
      <line x1="365.402" y1="1598.337" x2="334.798" y2="1598.337"/>
      <line x1="365.402" y1="1599.337" x2="334.798" y2="1599.337"/>
      <line x1="365.402" y1="1600.337" x2="334.798" y2="1600.337"/>
      <line x1="365.402" y1="1601.337" x2="334.798" y2="1601.337"/>
      <line x1="365.402" y1="1602.337" x2="334.798" y2="1602.337"/>
      <line x1="365.402" y1="1603.337" x2="334.798" y2="1603.337"/>
      <line x1="365.402" y1="1604.337" x2="334.798" y2="1604.337"/>
      <line x1="365.402" y1="1605.337" x2="334.798" y2="1605.337"/>
      <line x1="365.402" y1="1606.337" x2="334.798" y2="1606.337"/>
      <line x1="365.402" y1="1607.337" x2="334.798" y2="1607.337"/>
      <line x1="365.402" y1="1608.337" x2="334.798" y2="1608.337"/>
      <line x1="365.402" y1="1609.337" x2="334.798" y2="1609.337"/>
      <line x1="365.402" y1="1610.337" x2="334.798" y2="1610.337"/>
      <line x1="365.402" y1="1611.337" x2="334.798" y2="1611.337"/>
      <line x1="365.402" y1="1612.337" x2="334.798" y2="1612.337"/>
      <line x1="365.402" y1="1613.337" x2="334.798" y2="1613.337"/>
      <line x1="365.402" y1="1614.337" x2="334.798" y2="1614.337"/>
      <line x1="365.402" y1="1615.337" x2="334.798" y2="1615.337"/>
      <line x1="365.402" y1="1616.337" x2="334.798" y2="1616.337"/>
      <line x1="365.402" y1="1617.337" x2="334.798" y2="1617.337"/>
      <line x1="365.402" y1="1618.337" x2="334.798" y2="1618.337"/>
      <line x1="365.402" y1="1619.337" x2="334.798" y2="1619.337"/>
      <line x1="365.402" y1="1620.337" x2="334.798" y2="1620.337"/>
      <line x1="365.402" y1="1621.337" x2="334.798" y2="1621.337"/>
      <line x1="365.402" y1="1622.337" x2="334.798" y2="1622.337"/>
      <line x1="365.402" y1="1623.337" x2="334.798" y2="1623.337"/>
      <line x1="365.402" y1="1624.337" x2="334.798" y2="1624.337"/>
      <line x1="365.402" y1="1625.337" x2="334.798" y2="1625.337"/>
      <line x1="365.402" y1="1626.337" x2="334.798" y2="1626.337"/>
      <line x1="365.402" y1="1627.337" x2="334.798" y2="1627.337"/>
      <line x1="365.402" y1="1628.337" x2="334.798" y2="1628.337"/>
      <line x1="284.598" y1="1529.337" x2="234.598" y2="1529.337"/>
      <line x1="284.598" y1="1530.337" x2="234.598" y2="1530.337"/>
      <line x1="284.598" y1="1531.337" x2="234.598" y2="1531.337"/>
      <line x1="284.598" y1="1532.337" x2="234.598" y2="1532.337"/>
      <line x1="284.598" y1="1533.337" x2="234.598" y2="1533.337"/>
      <line x1="284.598" y1="1534.337" x2="234.598" y2="1534.337"/>
      <line x1="284.598" y1="1535.337" x2="234.598" y2="1535.337"/>
      <line x1="284.598" y1="1536.337" x2="234.598" y2="1536.337"/>
      <line x1="284.598" y1="1537.337" x2="234.598" y2="1537.337"/>
      <line x1="284.598" y1="1538.337" x2="234.598" y2="1538.337"/>
      <line x1="284.598" y1="1539.337" x2="234.598" y2="1539.337"/>
      <line x1="284.598" y1="1540.337" x2="234.598" y2="1540.337"/>
      <line x1="284.598" y1="1541.337" x2="234.598" y2="1541.337"/>
      <line x1="284.598" y1="1542.337" x2="234.598" y2="1542.337"/>
      <line x1="284.598" y1="1543.337" x2="234.598" y2="1543.337"/>
      <line x1="284.598" y1="1544.337" x2="234.598" y2="1544.337"/>
      <line x1="284.598" y1="1545.337" x2="234.598" y2="1545.337"/>
      <line x1="284.598" y1="1546.337" x2="234.598" y2="1546.337"/>
      <line x1="284.598" y1="1547.337" x2="234.598" y2="1547.337"/>
      <line x1="284.598" y1="1548.337" x2="234.598" y2="1548.337"/>
      <line x1="284.598" y1="1549.337" x2="234.598" y2="1549.337"/>
      <line x1="284.598" y1="1550.337" x2="234.598" y2="1550.337"/>
      <line x1="284.598" y1="1551.337" x2="234.598" y2="1551.337"/>
      <line x1="284.598" y1="1552.337" x2="234.598" y2="1552.337"/>
      <line x1="284.598" y1="1553.337" x2="234.598" y2="1553.337"/>
      <line x1="284.598" y1="1554.337" x2="234.598" y2="1554.337"/>
      <line x1="284.598" y1="1555.337" x2="234.598" y2="1555.337"/>
      <line x1="284.598" y1="1556.337" x2="234.598" y2="1556.337"/>
      <line x1="284.598" y1="1557.337" x2="234.598" y2="1557.337"/>
      <line x1="284.598" y1="1558.337" x2="234.598" y2="1558.337"/>
      <line x1="284.598" y1="1559.337" x2="234.598" y2="1559.337"/>
      <line x1="284.598" y1="1560.337" x2="234.598" y2="1560.337"/>
      <line x1="284.598" y1="1561.337" x2="234.598" y2="1561.337"/>
      <line x1="284.598" y1="1562.337" x2="234.598" y2="1562.337"/>
      <line x1="284.598" y1="1563.337" x2="234.598" y2="1563.337"/>
      <line x1="284.598" y1="1564.337" x2="234.598" y2="1564.337"/>
      <line x1="284.598" y1="1565.337" x2="234.598" y2="1565.337"/>
      <line x1="284.598" y1="1566.337" x2="234.598" y2="1566.337"/>
      <line x1="284.598" y1="1567.337" x2="234.598" y2="1567.337"/>
      <line x1="284.598" y1="1568.337" x2="234.598" y2="1568.337"/>
      <line x1="284.598" y1="1569.337" x2="234.598" y2="1569.337"/>
      <line x1="284.598" y1="1570.337" x2="234.598" y2="1570.337"/>
      <line x1="284.598" y1="1571.337" x2="234.598" y2="1571.337"/>
      <line x1="284.598" y1="1572.337" x2="234.598" y2="1572.337"/>
      <line x1="284.598" y1="1573.337" x2="234.598" y2="1573.337"/>
      <line x1="284.598" y1="1574.337" x2="234.598" y2="1574.337"/>
      <line x1="284.598" y1="1575.337" x2="234.598" y2="1575.337"/>
      <line x1="284.598" y1="1576.337" x2="234.598" y2="1576.337"/>
      <line x1="284.598" y1="1577.337" x2="234.598" y2="1577.337"/>
      <line x1="284.598" y1="1578.337" x2="234.598" y2="1578.337"/>
      <line x1="334.698" y1="1529.337" x2="284.698" y2="1529.337"/>
      <line x1="334.698" y1="1530.337" x2="284.698" y2="1530.337"/>
      <line x1="334.698" y1="1531.337" x2="284.698" y2="1531.337"/>
      <line x1="334.698" y1="1532.337" x2="284.698" y2="1532.337"/>
      <line x1="334.698" y1="1533.337" x2="284.698" y2="1533.337"/>
      <line x1="334.698" y1="1534.337" x2="284.698" y2="1534.337"/>
      <line x1="334.698" y1="1535.337" x2="284.698" y2="1535.337"/>
      <line x1="334.698" y1="1536.337" x2="284.698" y2="1536.337"/>
      <line x1="334.698" y1="1537.337" x2="284.698" y2="1537.337"/>
      <line x1="334.698" y1="1538.337" x2="284.698" y2="1538.337"/>
      <line x1="334.698" y1="1539.337" x2="284.698" y2="1539.337"/>
      <line x1="334.698" y1="1540.337" x2="284.698" y2="1540.337"/>
      <line x1="334.698" y1="1541.337" x2="284.698" y2="1541.337"/>
      <line x1="334.698" y1="1542.337" x2="284.698" y2="1542.337"/>
      <line x1="334.698" y1="1543.337" x2="284.698" y2="1543.337"/>
      <line x1="334.698" y1="1544.337" x2="284.698" y2="1544.337"/>
      <line x1="334.698" y1="1545.337" x2="284.698" y2="1545.337"/>
      <line x1="334.698" y1="1546.337" x2="284.698" y2="1546.337"/>
      <line x1="334.698" y1="1547.337" x2="284.698" y2="1547.337"/>
      <line x1="334.698" y1="1548.337" x2="284.698" y2="1548.337"/>
      <line x1="334.698" y1="1549.337" x2="284.698" y2="1549.337"/>
      <line x1="334.698" y1="1550.337" x2="284.698" y2="1550.337"/>
      <line x1="334.698" y1="1551.337" x2="284.698" y2="1551.337"/>
      <line x1="334.698" y1="1552.337" x2="284.698" y2="1552.337"/>
      <line x1="334.698" y1="1553.337" x2="284.698" y2="1553.337"/>
      <line x1="334.698" y1="1554.337" x2="284.698" y2="1554.337"/>
      <line x1="334.698" y1="1555.337" x2="284.698" y2="1555.337"/>
      <line x1="334.698" y1="1556.337" x2="284.698" y2="1556.337"/>
      <line x1="334.698" y1="1557.337" x2="284.698" y2="1557.337"/>
      <line x1="334.698" y1="1558.337" x2="284.698" y2="1558.337"/>
      <line x1="334.698" y1="1559.337" x2="284.698" y2="1559.337"/>
      <line x1="334.698" y1="1560.337" x2="284.698" y2="1560.337"/>
      <line x1="334.698" y1="1561.337" x2="284.698" y2="1561.337"/>
      <line x1="334.698" y1="1562.337" x2="284.698" y2="1562.337"/>
      <line x1="334.698" y1="1563.337" x2="284.698" y2="1563.337"/>
      <line x1="334.698" y1="1564.337" x2="284.698" y2="1564.337"/>
      <line x1="334.698" y1="1565.337" x2="284.698" y2="1565.337"/>
      <line x1="334.698" y1="1566.337" x2="284.698" y2="1566.337"/>
      <line x1="334.698" y1="1567.337" x2="284.698" y2="1567.337"/>
      <line x1="334.698" y1="1568.337" x2="284.698" y2="1568.337"/>
      <line x1="334.698" y1="1569.337" x2="284.698" y2="1569.337"/>
      <line x1="334.698" y1="1570.337" x2="284.698" y2="1570.337"/>
      <line x1="334.698" y1="1571.337" x2="284.698" y2="1571.337"/>
      <line x1="334.698" y1="1572.337" x2="284.698" y2="1572.337"/>
      <line x1="334.698" y1="1573.337" x2="284.698" y2="1573.337"/>
      <line x1="334.698" y1="1574.337" x2="284.698" y2="1574.337"/>
      <line x1="334.698" y1="1575.337" x2="284.698" y2="1575.337"/>
      <line x1="334.698" y1="1576.337" x2="284.698" y2="1576.337"/>
      <line x1="334.698" y1="1577.337" x2="284.698" y2="1577.337"/>
      <line x1="334.698" y1="1578.337" x2="284.698" y2="1578.337"/>
      <line x1="365.402" y1="1529.337" x2="334.798" y2="1529.337"/>
      <line x1="365.402" y1="1530.337" x2="334.798" y2="1530.337"/>
      <line x1="365.402" y1="1531.337" x2="334.798" y2="1531.337"/>
      <line x1="365.402" y1="1532.337" x2="334.798" y2="1532.337"/>
      <line x1="365.402" y1="1533.337" x2="334.798" y2="1533.337"/>
      <line x1="365.402" y1="1534.337" x2="334.798" y2="1534.337"/>
      <line x1="365.402" y1="1535.337" x2="334.798" y2="1535.337"/>
      <line x1="365.402" y1="1536.337" x2="334.798" y2="1536.337"/>
      <line x1="365.402" y1="1537.337" x2="334.798" y2="1537.337"/>
      <line x1="365.402" y1="1538.337" x2="334.798" y2="1538.337"/>
      <line x1="365.402" y1="1539.337" x2="334.798" y2="1539.337"/>
      <line x1="365.402" y1="1540.337" x2="334.798" y2="1540.337"/>
      <line x1="365.402" y1="1541.337" x2="334.798" y2="1541.337"/>
      <line x1="365.402" y1="1542.337" x2="334.798" y2="1542.337"/>
      <line x1="365.402" y1="1543.337" x2="334.798" y2="1543.337"/>
      <line x1="365.402" y1="1544.337" x2="334.798" y2="1544.337"/>
      <line x1="365.402" y1="1545.337" x2="334.798" y2="1545.337"/>
      <line x1="365.402" y1="1546.337" x2="334.798" y2="1546.337"/>
      <line x1="365.402" y1="1547.337" x2="334.798" y2="1547.337"/>
      <line x1="365.402" y1="1548.337" x2="334.798" y2="1548.337"/>
      <line x1="365.402" y1="1549.337" x2="334.798" y2="1549.337"/>
      <line x1="365.402" y1="1550.337" x2="334.798" y2="1550.337"/>
      <line x1="365.402" y1="1551.337" x2="334.798" y2="1551.337"/>
      <line x1="365.402" y1="1552.337" x2="334.798" y2="1552.337"/>
      <line x1="365.402" y1="1553.337" x2="334.798" y2="1553.337"/>
      <line x1="365.402" y1="1554.337" x2="334.798" y2="1554.337"/>
      <line x1="365.402" y1="1555.337" x2="334.798" y2="1555.337"/>
      <line x1="365.402" y1="1556.337" x2="334.798" y2="1556.337"/>
      <line x1="365.402" y1="1557.337" x2="334.798" y2="1557.337"/>
      <line x1="365.402" y1="1558.337" x2="334.798" y2="1558.337"/>
      <line x1="365.402" y1="1559.337" x2="334.798" y2="1559.337"/>
      <line x1="365.402" y1="1560.337" x2="334.798" y2="1560.337"/>
      <line x1="365.402" y1="1561.337" x2="334.798" y2="1561.337"/>
      <line x1="365.402" y1="1562.337" x2="334.798" y2="1562.337"/>
      <line x1="365.402" y1="1563.337" x2="334.798" y2="1563.337"/>
      <line x1="365.402" y1="1564.337" x2="334.798" y2="1564.337"/>
      <line x1="365.402" y1="1565.337" x2="334.798" y2="1565.337"/>
      <line x1="365.402" y1="1566.337" x2="334.798" y2="1566.337"/>
      <line x1="365.402" y1="1567.337" x2="334.798" y2="1567.337"/>
      <line x1="365.402" y1="1568.337" x2="334.798" y2="1568.337"/>
      <line x1="365.402" y1="1569.337" x2="334.798" y2="1569.337"/>
      <line x1="365.402" y1="1570.337" x2="334.798" y2="1570.337"/>
      <line x1="365.402" y1="1571.337" x2="334.798" y2="1571.337"/>
      <line x1="365.402" y1="1572.337" x2="334.798" y2="1572.337"/>
      <line x1="365.402" y1="1573.337" x2="334.798" y2="1573.337"/>
      <line x1="365.402" y1="1574.337" x2="334.798" y2="1574.337"/>
      <line x1="365.402" y1="1575.337" x2="334.798" y2="1575.337"/>
      <line x1="365.402" y1="1576.337" x2="334.798" y2="1576.337"/>
      <line x1="365.402" y1="1577.337" x2="334.798" y2="1577.337"/>
      <line x1="365.402" y1="1578.337" x2="334.798" y2="1578.337"/>
      <line x1="284.598" y1="1525.337" x2="234.598" y2="1525.337"/>
      <line x1="284.598" y1="1526.337" x2="234.598" y2="1526.337"/>
      <line x1="284.598" y1="1527.337" x2="234.598" y2="1527.337"/>
      <line x1="284.598" y1="1528.337" x2="234.598" y2="1528.337"/>
      <line x1="334.698" y1="1525.337" x2="284.698" y2="1525.337"/>
      <line x1="334.698" y1="1526.337" x2="284.698" y2="1526.337"/>
      <line x1="334.698" y1="1527.337" x2="284.698" y2="1527.337"/>
      <line x1="334.698" y1="1528.337" x2="284.698" y2="1528.337"/>
      <line x1="365.402" y1="1525.337" x2="334.798" y2="1525.337"/>
      <line x1="365.402" y1="1526.337" x2="334.798" y2="1526.337"/>
      <line x1="365.402" y1="1527.337" x2="334.798" y2="1527.337"/>
      <line x1="365.402" y1="1528.337" x2="334.798" y2="1528.337"/>
    </g>
    <g stroke="#1976D2" stroke-width="0.4">
      <polyline points="368.901,1521.729 231.099,1521.729 231.099,1682.729 368.901,1682.729 368.901,1521.729" fill="none"/>
      <polyline points="367.901,1522.729 232.099,1522.729 232.099,1681.730 367.901,1681.730 367.901,1522.729" fill="none"/>
      <polyline points="366.901,1523.729 233.099,1523.729 233.099,1680.730 366.901,1680.730 366.901,1523.729" fill="none"/>
      <polyline points="365.901,1524.729 234.099,1524.729 234.099,1679.729 365.901,1679.729 365.901,1524.729" fill="none"/>
    </g>
    <g stroke="#C62828" stroke-width="0.4" fill="none">
    </g>
    <g stroke="#EF6C00" stroke-width="0.4" fill="none">
    </g>
  </g>
  <g stroke="#000000" stroke-width="0.4">
    <line x1="500.000" y1="1000.000" x2="1500.000" y2="1000.000"/>
  </g>
  <g stroke="#000000" stroke-width="0.4">
    <line x1="1000.000" y1="500.000" x2="1000.000" y2="1500.000"/>
  </g>
  <circle cx="1000.000" cy="1000.000" r="1000.000" stroke="red" stroke-width="1" fill="none"/>
  </g>
</svg>
