<?xml version="1.0" encoding="UTF-8"?>
<svg xmlns="http://www.w3.org/2000/svg" version="1.1" width="2000" height="2000">
  <g fill="none" stroke-linecap="round" stroke-linejoin="round">
  <text x="10" y="20" font-size="24" fill="#555">Layer 189 Z=49.800 mm</text>
  <g transform="translate(700.000,-602.229)">
    <g stroke="#2E7D32" stroke-width="0.4">
      <line x1="597.000" y1="1630.157" x2="551.917" y2="1630.157"/>
      <line x1="597.000" y1="1631.157" x2="551.917" y2="1631.157"/>
      <line x1="597.000" y1="1632.157" x2="551.917" y2="1632.157"/>
      <line x1="597.000" y1="1633.157" x2="551.917" y2="1633.157"/>
      <line x1="597.000" y1="1634.157" x2="551.917" y2="1634.157"/>
      <line x1="597.000" y1="1635.157" x2="551.917" y2="1635.157"/>
      <line x1="597.000" y1="1636.157" x2="551.917" y2="1636.157"/>
      <line x1="597.000" y1="1637.157" x2="551.917" y2="1637.157"/>
      <line x1="597.000" y1="1638.157" x2="551.917" y2="1638.157"/>
      <line x1="597.000" y1="1639.157" x2="551.917" y2="1639.157"/>
      <line x1="597.000" y1="1640.157" x2="551.917" y2="1640.157"/>
      <line x1="597.000" y1="1641.157" x2="551.917" y2="1641.157"/>
      <line x1="597.000" y1="1642.157" x2="551.917" y2="1642.157"/>
      <line x1="597.000" y1="1643.157" x2="551.917" y2="1643.157"/>
      <line x1="597.000" y1="1644.157" x2="551.917" y2="1644.157"/>
      <line x1="597.000" y1="1645.157" x2="551.917" y2="1645.157"/>
      <line x1="597.000" y1="1646.157" x2="551.917" y2="1646.157"/>
      <line x1="597.000" y1="1647.157" x2="551.917" y2="1647.157"/>
      <line x1="597.000" y1="1648.157" x2="551.917" y2="1648.157"/>
      <line x1="597.000" y1="1649.157" x2="551.917" y2="1649.157"/>
      <line x1="597.000" y1="1650.157" x2="551.917" y2="1650.157"/>
      <line x1="597.000" y1="1651.157" x2="551.917" y2="1651.157"/>
      <line x1="597.000" y1="1652.157" x2="551.917" y2="1652.157"/>
      <line x1="597.000" y1="1653.157" x2="551.917" y2="1653.157"/>
      <line x1="597.000" y1="1654.157" x2="551.917" y2="1654.157"/>
      <line x1="597.000" y1="1655.157" x2="551.917" y2="1655.157"/>
      <line x1="597.000" y1="1656.157" x2="551.917" y2="1656.157"/>
      <line x1="597.000" y1="1657.157" x2="551.917" y2="1657.157"/>
      <line x1="597.000" y1="1658.157" x2="551.917" y2="1658.157"/>
      <line x1="597.000" y1="1659.157" x2="551.917" y2="1659.157"/>
      <line x1="597.000" y1="1660.157" x2="551.917" y2="1660.157"/>
      <line x1="597.000" y1="1661.157" x2="551.917" y2="1661.157"/>
      <line x1="597.000" y1="1662.157" x2="551.917" y2="1662.157"/>
      <line x1="597.000" y1="1663.157" x2="551.917" y2="1663.157"/>
      <line x1="597.000" y1="1664.157" x2="551.917" y2="1664.157"/>
      <line x1="597.000" y1="1665.157" x2="551.917" y2="1665.157"/>
      <line x1="597.000" y1="1666.157" x2="551.917" y2="1666.157"/>
      <line x1="597.000" y1="1667.157" x2="551.917" y2="1667.157"/>
      <line x1="597.000" y1="1668.157" x2="551.917" y2="1668.157"/>
      <line x1="597.000" y1="1669.157" x2="551.917" y2="1669.157"/>
      <line x1="597.000" y1="1670.157" x2="551.917" y2="1670.157"/>
      <line x1="597.000" y1="1671.157" x2="551.917" y2="1671.157"/>
      <line x1="597.000" y1="1672.157" x2="551.917" y2="1672.157"/>
      <line x1="597.000" y1="1673.157" x2="551.917" y2="1673.157"/>
      <line x1="597.000" y1="1674.157" x2="551.917" y2="1674.157"/>
      <line x1="597.000" y1="1675.157" x2="551.917" y2="1675.157"/>
      <line x1="597.000" y1="1676.157" x2="551.917" y2="1676.157"/>
      <line x1="597.000" y1="1677.157" x2="551.917" y2="1677.157"/>
      <line x1="597.000" y1="1678.157" x2="551.917" y2="1678.157"/>
      <line x1="597.000" y1="1679.157" x2="551.917" y2="1679.157"/>
      <line x1="597.000" y1="1579.157" x2="551.917" y2="1579.157"/>
      <line x1="597.000" y1="1580.157" x2="551.917" y2="1580.157"/>
      <line x1="597.000" y1="1581.157" x2="551.917" y2="1581.157"/>
      <line x1="597.000" y1="1582.157" x2="551.917" y2="1582.157"/>
      <line x1="597.000" y1="1583.157" x2="551.917" y2="1583.157"/>
      <line x1="597.000" y1="1584.157" x2="551.917" y2="1584.157"/>
      <line x1="597.000" y1="1585.157" x2="551.917" y2="1585.157"/>
      <line x1="597.000" y1="1586.157" x2="551.917" y2="1586.157"/>
      <line x1="597.000" y1="1587.157" x2="551.917" y2="1587.157"/>
      <line x1="597.000" y1="1588.157" x2="551.917" y2="1588.157"/>
      <line x1="597.000" y1="1589.157" x2="551.917" y2="1589.157"/>
      <line x1="597.000" y1="1590.157" x2="551.917" y2="1590.157"/>
      <line x1="597.000" y1="1591.157" x2="551.917" y2="1591.157"/>
      <line x1="597.000" y1="1592.157" x2="551.917" y2="1592.157"/>
      <line x1="597.000" y1="1593.157" x2="551.917" y2="1593.157"/>
      <line x1="597.000" y1="1594.157" x2="551.917" y2="1594.157"/>
      <line x1="597.000" y1="1595.157" x2="551.917" y2="1595.157"/>
      <line x1="597.000" y1="1596.157" x2="551.917" y2="1596.157"/>
      <line x1="597.000" y1="1597.157" x2="551.917" y2="1597.157"/>
      <line x1="597.000" y1="1598.157" x2="551.917" y2="1598.157"/>
      <line x1="597.000" y1="1599.157" x2="551.917" y2="1599.157"/>
      <line x1="597.000" y1="1600.157" x2="551.917" y2="1600.157"/>
      <line x1="597.000" y1="1601.157" x2="551.917" y2="1601.157"/>
      <line x1="597.000" y1="1602.157" x2="551.917" y2="1602.157"/>
      <line x1="597.000" y1="1603.157" x2="551.917" y2="1603.157"/>
      <line x1="597.000" y1="1604.157" x2="551.917" y2="1604.157"/>
      <line x1="597.000" y1="1605.157" x2="551.917" y2="1605.157"/>
      <line x1="597.000" y1="1606.157" x2="551.917" y2="1606.157"/>
      <line x1="597.000" y1="1607.157" x2="551.917" y2="1607.157"/>
      <line x1="597.000" y1="1608.157" x2="551.917" y2="1608.157"/>
      <line x1="597.000" y1="1609.157" x2="551.917" y2="1609.157"/>
      <line x1="597.000" y1="1610.157" x2="551.917" y2="1610.157"/>
      <line x1="597.000" y1="1611.157" x2="551.917" y2="1611.157"/>
      <line x1="597.000" y1="1612.157" x2="551.917" y2="1612.157"/>
      <line x1="597.000" y1="1613.157" x2="551.917" y2="1613.157"/>
      <line x1="597.000" y1="1614.157" x2="551.917" y2="1614.157"/>
      <line x1="597.000" y1="1615.157" x2="551.917" y2="1615.157"/>
      <line x1="597.000" y1="1616.157" x2="551.917" y2="1616.157"/>
      <line x1="597.000" y1="1617.157" x2="551.917" y2="1617.157"/>
      <line x1="597.000" y1="1618.157" x2="551.917" y2="1618.157"/>
      <line x1="597.000" y1="1619.157" x2="551.917" y2="1619.157"/>
      <line x1="597.000" y1="1620.157" x2="551.917" y2="1620.157"/>
      <line x1="597.000" y1="1621.157" x2="551.917" y2="1621.157"/>
      <line x1="597.000" y1="1622.157" x2="551.917" y2="1622.157"/>
      <line x1="597.000" y1="1623.157" x2="551.917" y2="1623.157"/>
      <line x1="597.000" y1="1624.157" x2="551.917" y2="1624.157"/>
      <line x1="597.000" y1="1625.157" x2="551.917" y2="1625.157"/>
      <line x1="597.000" y1="1626.157" x2="551.917" y2="1626.157"/>
      <line x1="597.000" y1="1627.157" x2="551.917" y2="1627.157"/>
      <line x1="597.000" y1="1628.157" x2="551.917" y2="1628.157"/>
      <line x1="597.000" y1="1529.157" x2="551.917" y2="1529.157"/>
      <line x1="597.000" y1="1530.157" x2="551.917" y2="1530.157"/>
      <line x1="597.000" y1="1531.157" x2="551.917" y2="1531.157"/>
      <line x1="597.000" y1="1532.157" x2="551.917" y2="1532.157"/>
      <line x1="597.000" y1="1533.157" x2="551.917" y2="1533.157"/>
      <line x1="597.000" y1="1534.157" x2="551.917" y2="1534.157"/>
      <line x1="597.000" y1="1535.157" x2="551.917" y2="1535.157"/>
      <line x1="597.000" y1="1536.157" x2="551.917" y2="1536.157"/>
      <line x1="597.000" y1="1537.157" x2="551.917" y2="1537.157"/>
      <line x1="597.000" y1="1538.157" x2="551.917" y2="1538.157"/>
      <line x1="597.000" y1="1539.157" x2="551.917" y2="1539.157"/>
      <line x1="597.000" y1="1540.157" x2="551.917" y2="1540.157"/>
      <line x1="597.000" y1="1541.157" x2="551.917" y2="1541.157"/>
      <line x1="597.000" y1="1542.157" x2="551.917" y2="1542.157"/>
      <line x1="597.000" y1="1543.157" x2="551.917" y2="1543.157"/>
      <line x1="597.000" y1="1544.157" x2="551.917" y2="1544.157"/>
      <line x1="597.000" y1="1545.157" x2="551.917" y2="1545.157"/>
      <line x1="597.000" y1="1546.157" x2="551.917" y2="1546.157"/>
      <line x1="597.000" y1="1547.157" x2="551.917" y2="1547.157"/>
      <line x1="597.000" y1="1548.157" x2="551.917" y2="1548.157"/>
      <line x1="597.000" y1="1549.157" x2="551.917" y2="1549.157"/>
      <line x1="597.000" y1="1550.157" x2="551.917" y2="1550.157"/>
      <line x1="597.000" y1="1551.157" x2="551.917" y2="1551.157"/>
      <line x1="597.000" y1="1552.157" x2="551.917" y2="1552.157"/>
      <line x1="597.000" y1="1553.157" x2="551.917" y2="1553.157"/>
      <line x1="597.000" y1="1554.157" x2="551.917" y2="1554.157"/>
      <line x1="597.000" y1="1555.157" x2="551.917" y2="1555.157"/>
      <line x1="597.000" y1="1556.157" x2="551.917" y2="1556.157"/>
      <line x1="597.000" y1="1557.157" x2="551.917" y2="1557.157"/>
      <line x1="597.000" y1="1558.157" x2="551.917" y2="1558.157"/>
      <line x1="597.000" y1="1559.157" x2="551.917" y2="1559.157"/>
      <line x1="597.000" y1="1560.157" x2="551.917" y2="1560.157"/>
      <line x1="597.000" y1="1561.157" x2="551.917" y2="1561.157"/>
      <line x1="597.000" y1="1562.157" x2="551.917" y2="1562.157"/>
      <line x1="597.000" y1="1563.157" x2="551.917" y2="1563.157"/>
      <line x1="597.000" y1="1564.157" x2="551.917" y2="1564.157"/>
      <line x1="597.000" y1="1565.157" x2="551.917" y2="1565.157"/>
      <line x1="597.000" y1="1566.157" x2="551.917" y2="1566.157"/>
      <line x1="597.000" y1="1567.157" x2="551.917" y2="1567.157"/>
      <line x1="597.000" y1="1568.157" x2="551.917" y2="1568.157"/>
      <line x1="597.000" y1="1569.157" x2="551.917" y2="1569.157"/>
      <line x1="597.000" y1="1570.157" x2="551.917" y2="1570.157"/>
      <line x1="597.000" y1="1571.157" x2="551.917" y2="1571.157"/>
      <line x1="597.000" y1="1572.157" x2="551.917" y2="1572.157"/>
      <line x1="597.000" y1="1573.157" x2="551.917" y2="1573.157"/>
      <line x1="597.000" y1="1574.157" x2="551.917" y2="1574.157"/>
      <line x1="597.000" y1="1575.157" x2="551.917" y2="1575.157"/>
      <line x1="597.000" y1="1576.157" x2="551.917" y2="1576.157"/>
      <line x1="597.000" y1="1577.157" x2="551.917" y2="1577.157"/>
      <line x1="597.000" y1="1578.157" x2="551.917" y2="1578.157"/>
      <line x1="597.000" y1="1526.157" x2="551.917" y2="1526.157"/>
      <line x1="597.000" y1="1527.157" x2="551.917" y2="1527.157"/>
      <line x1="597.000" y1="1528.157" x2="551.917" y2="1528.157"/>
      <line x1="48.083" y1="1630.157" x2="3.000" y2="1630.157"/>
      <line x1="48.083" y1="1631.157" x2="3.000" y2="1631.157"/>
      <line x1="48.083" y1="1632.157" x2="3.000" y2="1632.157"/>
      <line x1="48.083" y1="1633.157" x2="3.000" y2="1633.157"/>
      <line x1="48.083" y1="1634.157" x2="3.000" y2="1634.157"/>
      <line x1="48.083" y1="1635.157" x2="3.000" y2="1635.157"/>
      <line x1="48.083" y1="1636.157" x2="3.000" y2="1636.157"/>
      <line x1="48.083" y1="1637.157" x2="3.000" y2="1637.157"/>
      <line x1="48.083" y1="1638.157" x2="3.000" y2="1638.157"/>
      <line x1="48.083" y1="1639.157" x2="3.000" y2="1639.157"/>
      <line x1="48.083" y1="1640.157" x2="3.000" y2="1640.157"/>
      <line x1="48.083" y1="1641.157" x2="3.000" y2="1641.157"/>
      <line x1="48.083" y1="1642.157" x2="3.000" y2="1642.157"/>
      <line x1="48.083" y1="1643.157" x2="3.000" y2="1643.157"/>
      <line x1="48.083" y1="1644.157" x2="3.000" y2="1644.157"/>
      <line x1="48.083" y1="1645.157" x2="3.000" y2="1645.157"/>
      <line x1="48.083" y1="1646.157" x2="3.000" y2="1646.157"/>
      <line x1="48.083" y1="1647.157" x2="3.000" y2="1647.157"/>
      <line x1="48.083" y1="1648.157" x2="3.000" y2="1648.157"/>
      <line x1="48.083" y1="1649.157" x2="3.000" y2="1649.157"/>
      <line x1="48.083" y1="1650.157" x2="3.000" y2="1650.157"/>
      <line x1="48.083" y1="1651.157" x2="3.000" y2="1651.157"/>
      <line x1="48.083" y1="1652.157" x2="3.000" y2="1652.157"/>
      <line x1="48.083" y1="1653.157" x2="3.000" y2="1653.157"/>
      <line x1="48.083" y1="1654.157" x2="3.000" y2="1654.157"/>
      <line x1="48.083" y1="1655.157" x2="3.000" y2="1655.157"/>
      <line x1="48.083" y1="1656.157" x2="3.000" y2="1656.157"/>
      <line x1="48.083" y1="1657.157" x2="3.000" y2="1657.157"/>
      <line x1="48.083" y1="1658.157" x2="3.000" y2="1658.157"/>
      <line x1="48.083" y1="1659.157" x2="3.000" y2="1659.157"/>
      <line x1="48.083" y1="1660.157" x2="3.000" y2="1660.157"/>
      <line x1="48.083" y1="1661.157" x2="3.000" y2="1661.157"/>
      <line x1="48.083" y1="1662.157" x2="3.000" y2="1662.157"/>
      <line x1="48.083" y1="1663.157" x2="3.000" y2="1663.157"/>
      <line x1="48.083" y1="1664.157" x2="3.000" y2="1664.157"/>
      <line x1="48.083" y1="1665.157" x2="3.000" y2="1665.157"/>
      <line x1="48.083" y1="1666.157" x2="3.000" y2="1666.157"/>
      <line x1="48.083" y1="1667.157" x2="3.000" y2="1667.157"/>
      <line x1="48.083" y1="1668.157" x2="3.000" y2="1668.157"/>
      <line x1="48.083" y1="1669.157" x2="3.000" y2="1669.157"/>
      <line x1="48.083" y1="1670.157" x2="3.000" y2="1670.157"/>
      <line x1="48.083" y1="1671.157" x2="3.000" y2="1671.157"/>
      <line x1="48.083" y1="1672.157" x2="3.000" y2="1672.157"/>
      <line x1="48.083" y1="1673.157" x2="3.000" y2="1673.157"/>
      <line x1="48.083" y1="1674.157" x2="3.000" y2="1674.157"/>
      <line x1="48.083" y1="1675.157" x2="3.000" y2="1675.157"/>
      <line x1="48.083" y1="1676.157" x2="3.000" y2="1676.157"/>
      <line x1="48.083" y1="1677.157" x2="3.000" y2="1677.157"/>
      <line x1="48.083" y1="1678.157" x2="3.000" y2="1678.157"/>
      <line x1="48.083" y1="1679.157" x2="3.000" y2="1679.157"/>
      <line x1="48.083" y1="1579.157" x2="3.000" y2="1579.157"/>
      <line x1="48.083" y1="1580.157" x2="3.000" y2="1580.157"/>
      <line x1="48.083" y1="1581.157" x2="3.000" y2="1581.157"/>
      <line x1="48.083" y1="1582.157" x2="3.000" y2="1582.157"/>
      <line x1="48.083" y1="1583.157" x2="3.000" y2="1583.157"/>
      <line x1="48.083" y1="1584.157" x2="3.000" y2="1584.157"/>
      <line x1="48.083" y1="1585.157" x2="3.000" y2="1585.157"/>
      <line x1="48.083" y1="1586.157" x2="3.000" y2="1586.157"/>
      <line x1="48.083" y1="1587.157" x2="3.000" y2="1587.157"/>
      <line x1="48.083" y1="1588.157" x2="3.000" y2="1588.157"/>
      <line x1="48.083" y1="1589.157" x2="3.000" y2="1589.157"/>
      <line x1="48.083" y1="1590.157" x2="3.000" y2="1590.157"/>
      <line x1="48.083" y1="1591.157" x2="3.000" y2="1591.157"/>
      <line x1="48.083" y1="1592.157" x2="3.000" y2="1592.157"/>
      <line x1="48.083" y1="1593.157" x2="3.000" y2="1593.157"/>
      <line x1="48.083" y1="1594.157" x2="3.000" y2="1594.157"/>
      <line x1="48.083" y1="1595.157" x2="3.000" y2="1595.157"/>
      <line x1="48.083" y1="1596.157" x2="3.000" y2="1596.157"/>
      <line x1="48.083" y1="1597.157" x2="3.000" y2="1597.157"/>
      <line x1="48.083" y1="1598.157" x2="3.000" y2="1598.157"/>
      <line x1="48.083" y1="1599.157" x2="3.000" y2="1599.157"/>
      <line x1="48.083" y1="1600.157" x2="3.000" y2="1600.157"/>
      <line x1="48.083" y1="1601.157" x2="3.000" y2="1601.157"/>
      <line x1="48.083" y1="1602.157" x2="3.000" y2="1602.157"/>
      <line x1="48.083" y1="1603.157" x2="3.000" y2="1603.157"/>
      <line x1="48.083" y1="1604.157" x2="3.000" y2="1604.157"/>
      <line x1="48.083" y1="1605.157" x2="3.000" y2="1605.157"/>
      <line x1="48.083" y1="1606.157" x2="3.000" y2="1606.157"/>
      <line x1="48.083" y1="1607.157" x2="3.000" y2="1607.157"/>
      <line x1="48.083" y1="1608.157" x2="3.000" y2="1608.157"/>
      <line x1="48.083" y1="1609.157" x2="3.000" y2="1609.157"/>
      <line x1="48.083" y1="1610.157" x2="3.000" y2="1610.157"/>
      <line x1="48.083" y1="1611.157" x2="3.000" y2="1611.157"/>
      <line x1="48.083" y1="1612.157" x2="3.000" y2="1612.157"/>
      <line x1="48.083" y1="1613.157" x2="3.000" y2="1613.157"/>
      <line x1="48.083" y1="1614.157" x2="3.000" y2="1614.157"/>
      <line x1="48.083" y1="1615.157" x2="3.000" y2="1615.157"/>
      <line x1="48.083" y1="1616.157" x2="3.000" y2="1616.157"/>
      <line x1="48.083" y1="1617.157" x2="3.000" y2="1617.157"/>
      <line x1="48.083" y1="1618.157" x2="3.000" y2="1618.157"/>
      <line x1="48.083" y1="1619.157" x2="3.000" y2="1619.157"/>
      <line x1="48.083" y1="1620.157" x2="3.000" y2="1620.157"/>
      <line x1="48.083" y1="1621.157" x2="3.000" y2="1621.157"/>
      <line x1="48.083" y1="1622.157" x2="3.000" y2="1622.157"/>
      <line x1="48.083" y1="1623.157" x2="3.000" y2="1623.157"/>
      <line x1="48.083" y1="1624.157" x2="3.000" y2="1624.157"/>
      <line x1="48.083" y1="1625.157" x2="3.000" y2="1625.157"/>
      <line x1="48.083" y1="1626.157" x2="3.000" y2="1626.157"/>
      <line x1="48.083" y1="1627.157" x2="3.000" y2="1627.157"/>
      <line x1="48.083" y1="1628.157" x2="3.000" y2="1628.157"/>
      <line x1="48.083" y1="1529.157" x2="3.000" y2="1529.157"/>
      <line x1="48.083" y1="1530.157" x2="3.000" y2="1530.157"/>
      <line x1="48.083" y1="1531.157" x2="3.000" y2="1531.157"/>
      <line x1="48.083" y1="1532.157" x2="3.000" y2="1532.157"/>
      <line x1="48.083" y1="1533.157" x2="3.000" y2="1533.157"/>
      <line x1="48.083" y1="1534.157" x2="3.000" y2="1534.157"/>
      <line x1="48.083" y1="1535.157" x2="3.000" y2="1535.157"/>
      <line x1="48.083" y1="1536.157" x2="3.000" y2="1536.157"/>
      <line x1="48.083" y1="1537.157" x2="3.000" y2="1537.157"/>
      <line x1="48.083" y1="1538.157" x2="3.000" y2="1538.157"/>
      <line x1="48.083" y1="1539.157" x2="3.000" y2="1539.157"/>
      <line x1="48.083" y1="1540.157" x2="3.000" y2="1540.157"/>
      <line x1="48.083" y1="1541.157" x2="3.000" y2="1541.157"/>
      <line x1="48.083" y1="1542.157" x2="3.000" y2="1542.157"/>
      <line x1="48.083" y1="1543.157" x2="3.000" y2="1543.157"/>
      <line x1="48.083" y1="1544.157" x2="3.000" y2="1544.157"/>
      <line x1="48.083" y1="1545.157" x2="3.000" y2="1545.157"/>
      <line x1="48.083" y1="1546.157" x2="3.000" y2="1546.157"/>
      <line x1="48.083" y1="1547.157" x2="3.000" y2="1547.157"/>
      <line x1="48.083" y1="1548.157" x2="3.000" y2="1548.157"/>
      <line x1="48.083" y1="1549.157" x2="3.000" y2="1549.157"/>
      <line x1="48.083" y1="1550.157" x2="3.000" y2="1550.157"/>
      <line x1="48.083" y1="1551.157" x2="3.000" y2="1551.157"/>
      <line x1="48.083" y1="1552.157" x2="3.000" y2="1552.157"/>
      <line x1="48.083" y1="1553.157" x2="3.000" y2="1553.157"/>
      <line x1="48.083" y1="1554.157" x2="3.000" y2="1554.157"/>
      <line x1="48.083" y1="1555.157" x2="3.000" y2="1555.157"/>
      <line x1="48.083" y1="1556.157" x2="3.000" y2="1556.157"/>
      <line x1="48.083" y1="1557.157" x2="3.000" y2="1557.157"/>
      <line x1="48.083" y1="1558.157" x2="3.000" y2="1558.157"/>
      <line x1="48.083" y1="1559.157" x2="3.000" y2="1559.157"/>
      <line x1="48.083" y1="1560.157" x2="3.000" y2="1560.157"/>
      <line x1="48.083" y1="1561.157" x2="3.000" y2="1561.157"/>
      <line x1="48.083" y1="1562.157" x2="3.000" y2="1562.157"/>
      <line x1="48.083" y1="1563.157" x2="3.000" y2="1563.157"/>
      <line x1="48.083" y1="1564.157" x2="3.000" y2="1564.157"/>
      <line x1="48.083" y1="1565.157" x2="3.000" y2="1565.157"/>
      <line x1="48.083" y1="1566.157" x2="3.000" y2="1566.157"/>
      <line x1="48.083" y1="1567.157" x2="3.000" y2="1567.157"/>
      <line x1="48.083" y1="1568.157" x2="3.000" y2="1568.157"/>
      <line x1="48.083" y1="1569.157" x2="3.000" y2="1569.157"/>
      <line x1="48.083" y1="1570.157" x2="3.000" y2="1570.157"/>
      <line x1="48.083" y1="1571.157" x2="3.000" y2="1571.157"/>
      <line x1="48.083" y1="1572.157" x2="3.000" y2="1572.157"/>
      <line x1="48.083" y1="1573.157" x2="3.000" y2="1573.157"/>
      <line x1="48.083" y1="1574.157" x2="3.000" y2="1574.157"/>
      <line x1="48.083" y1="1575.157" x2="3.000" y2="1575.157"/>
      <line x1="48.083" y1="1576.157" x2="3.000" y2="1576.157"/>
      <line x1="48.083" y1="1577.157" x2="3.000" y2="1577.157"/>
      <line x1="48.083" y1="1578.157" x2="3.000" y2="1578.157"/>
      <line x1="48.083" y1="1526.157" x2="3.000" y2="1526.157"/>
      <line x1="48.083" y1="1527.157" x2="3.000" y2="1527.157"/>
      <line x1="48.083" y1="1528.157" x2="3.000" y2="1528.157"/>
    </g>
    <g stroke="#1976D2" stroke-width="0.4">
      <polyline points="548.500,1682.729 600.500,1682.729 600.500,1521.729 548.500,1521.729" fill="none"/>
      <polyline points="548.500,1521.729 548.417,1521.729 548.417,1682.729 548.500,1682.729" fill="none"/>
      <polyline points="599.500,1522.729 549.417,1522.729 549.417,1681.730 599.500,1681.730 599.500,1522.729" fill="none"/>
      <polyline points="598.500,1523.729 550.417,1523.729 550.417,1680.730 598.500,1680.730 598.500,1523.729" fill="none"/>
      <polyline points="597.500,1524.729 551.417,1524.729 551.417,1679.729 597.500,1679.729 597.500,1524.729" fill="none"/>
      <polyline points="51.500,1521.729 -0.500,1521.729 -0.500,1682.729 51.500,1682.729" fill="none"/>
      <polyline points="51.500,1682.729 51.583,1682.729 51.583,1521.729 51.500,1521.729" fill="none"/>
      <polyline points="50.583,1522.729 0.500,1522.729 0.500,1681.730 50.583,1681.730 50.583,1522.729" fill="none"/>
      <polyline points="49.583,1523.729 1.500,1523.729 1.500,1680.730 49.583,1680.730 49.583,1523.729" fill="none"/>
      <polyline points="48.583,1524.729 2.500,1524.729 2.500,1679.729 48.583,1679.729 48.583,1524.729" fill="none"/>
    </g>
    <g stroke="#C62828" stroke-width="0.4" fill="none">
      <polygon points="293.916,1537.511 295.912,1536.802 297.642,1535.580 298.979,1533.937 299.823,1531.995 300.111,1529.896 299.823,1527.798 298.979,1525.855 297.642,1524.212 295.912,1522.990 293.916,1522.281 291.803,1522.137 289.729,1522.567 287.848,1523.542 286.300,1524.988 285.199,1526.797 284.628,1528.837 284.628,1530.955 285.199,1532.995 286.300,1534.805 287.848,1536.250 289.729,1537.225 291.803,1537.656"/>
      <polygon points="313.905,1537.457 315.886,1536.753 317.605,1535.540 318.932,1533.909 319.770,1531.980 320.056,1529.896 319.770,1527.813 318.932,1525.884 317.605,1524.252 315.886,1523.039 313.905,1522.335 311.806,1522.191 309.747,1522.619 307.880,1523.587 306.343,1525.022 305.250,1526.819 304.682,1528.845 304.682,1530.948 305.250,1532.973 306.343,1534.770 307.880,1536.205 309.747,1537.173 311.806,1537.601"/>
      <polygon points="273.881,1537.346 275.834,1536.652 277.527,1535.457 278.835,1533.850 279.660,1531.949 279.943,1529.896 279.660,1527.843 278.835,1525.943 277.527,1524.335 275.834,1523.140 273.881,1522.446 271.814,1522.305 269.785,1522.726 267.945,1523.680 266.431,1525.094 265.354,1526.865 264.795,1528.860 264.795,1530.932 265.354,1532.928 266.431,1534.698 267.945,1536.113 269.785,1537.066 271.814,1537.488"/>
      <polygon points="333.870,1537.289 335.807,1536.600 337.487,1535.414 338.785,1533.819 339.604,1531.933 339.884,1529.896 339.604,1527.859 338.785,1525.973 337.487,1524.378 335.807,1523.192 333.870,1522.504 331.818,1522.363 329.805,1522.782 327.979,1523.728 326.476,1525.131 325.408,1526.888 324.853,1528.868 324.853,1530.924 325.408,1532.904 326.476,1534.661 327.979,1536.065 329.805,1537.011 331.818,1537.429"/>
      <polygon points="355.419,1536.653 357.198,1535.510 358.583,1533.912 359.461,1531.989 359.762,1529.896 359.461,1527.803 358.583,1525.880 357.198,1524.282 355.419,1523.139 353.391,1522.543 351.276,1522.543 349.247,1523.139 347.469,1524.282 346.084,1525.880 345.206,1527.803 344.905,1529.896 345.206,1531.989 346.084,1533.912 347.469,1535.510 349.247,1536.653 351.276,1537.249 353.391,1537.249"/>
      <polygon points="255.419,1536.653 257.198,1535.510 258.583,1533.912 259.461,1531.989 259.762,1529.896 259.461,1527.803 258.583,1525.880 257.198,1524.282 255.419,1523.139 253.391,1522.543 251.276,1522.543 249.247,1523.139 247.469,1524.282 246.084,1525.880 245.206,1527.803 244.905,1529.896 245.206,1531.989 246.084,1533.912 247.469,1535.510 249.247,1536.653 251.276,1537.249 253.391,1537.249"/>
      <polygon points="235.366,1536.537 237.114,1535.414 238.475,1533.843 239.338,1531.953 239.634,1529.896 239.338,1527.839 238.475,1525.949 237.114,1524.379 235.366,1523.255 233.372,1522.670 231.294,1522.670 229.300,1523.255 227.552,1524.379 226.192,1525.949 225.328,1527.839 225.033,1529.896 225.328,1531.953 226.192,1533.843 227.552,1535.414 229.300,1536.537 231.294,1537.123 233.372,1537.123"/>
      <polygon points="375.339,1536.477 377.071,1535.364 378.419,1533.807 379.275,1531.934 379.568,1529.896 379.275,1527.858 378.419,1525.985 377.071,1524.429 375.339,1523.315 373.363,1522.735 371.304,1522.735 369.328,1523.315 367.596,1524.429 366.247,1525.985 365.392,1527.858 365.099,1529.896 365.392,1531.934 366.247,1533.807 367.596,1535.364 369.328,1536.477 371.304,1537.057 373.363,1537.057"/>
      <polygon points="215.282,1536.352 216.981,1535.260 218.304,1533.733 219.143,1531.896 219.430,1529.896 219.143,1527.897 218.304,1526.059 216.981,1524.533 215.282,1523.440 213.343,1522.871 211.323,1522.871 209.385,1523.440 207.686,1524.533 206.363,1526.059 205.524,1527.897 205.236,1529.896 205.524,1531.896 206.363,1533.733 207.686,1535.260 209.385,1536.352 211.323,1536.921 213.343,1536.921"/>
      <polygon points="395.252,1536.287 396.934,1535.206 398.244,1533.695 399.074,1531.876 399.359,1529.896 399.074,1527.917 398.244,1526.098 396.934,1524.587 395.252,1523.505 393.333,1522.942 391.334,1522.942 389.415,1523.505 387.733,1524.587 386.423,1526.098 385.592,1527.917 385.308,1529.896 385.592,1531.876 386.423,1533.695 387.733,1535.206 389.415,1536.287 391.334,1536.850 393.333,1536.850"/>
      <polygon points="414.846,1536.298 416.621,1535.273 418.016,1533.770 418.905,1531.923 419.211,1529.896 418.905,1527.869 418.016,1526.022 416.621,1524.519 414.846,1523.494 412.847,1523.038 410.803,1523.191 408.895,1523.940 407.292,1525.219 406.137,1526.912 405.533,1528.871 405.533,1530.921 406.137,1532.880 407.292,1534.574 408.895,1535.852 410.803,1536.601 412.847,1536.754"/>
      <polygon points="194.846,1536.298 196.621,1535.273 198.016,1533.770 198.905,1531.923 199.211,1529.896 198.905,1527.869 198.016,1526.022 196.621,1524.519 194.846,1523.494 192.847,1523.038 190.803,1523.191 188.895,1523.940 187.292,1525.219 186.137,1526.912 185.533,1528.871 185.533,1530.921 186.137,1532.880 187.292,1534.574 188.895,1535.852 190.803,1536.601 192.847,1536.754"/>
      <polygon points="174.789,1536.152 176.524,1535.151 177.886,1533.682 178.755,1531.877 179.054,1529.896 178.755,1527.915 177.886,1526.110 176.524,1524.642 174.789,1523.640 172.836,1523.194 170.838,1523.344 168.973,1524.076 167.407,1525.325 166.278,1526.980 165.688,1528.895 165.688,1530.898 166.278,1532.812 167.407,1534.467 168.973,1535.716 170.838,1536.448 172.836,1536.598"/>
      <polygon points="434.759,1536.076 436.473,1535.087 437.819,1533.636 438.678,1531.853 438.973,1529.896 438.678,1527.939 437.819,1526.156 436.473,1524.705 434.759,1523.716 432.829,1523.275 430.856,1523.423 429.014,1524.146 427.466,1525.380 426.352,1527.015 425.768,1528.907 425.768,1530.886 426.352,1532.777 427.466,1534.412 429.014,1535.646 430.856,1536.369 432.829,1536.517"/>
      <polygon points="154.277,1535.878 156.030,1534.985 157.422,1533.593 158.315,1531.840 158.623,1529.896 158.315,1527.952 157.422,1526.199 156.030,1524.808 154.277,1523.914 152.333,1523.606 150.390,1523.914 148.636,1524.808 147.245,1526.199 146.351,1527.952 146.043,1529.896 146.351,1531.840 147.245,1533.593 148.636,1534.985 150.390,1535.878 152.333,1536.186"/>
      <polygon points="454.218,1535.697 455.919,1534.831 457.268,1533.481 458.134,1531.781 458.433,1529.896 458.134,1528.011 457.268,1526.311 455.919,1524.962 454.218,1524.095 452.333,1523.797 450.448,1524.095 448.748,1524.962 447.399,1526.311 446.532,1528.011 446.234,1529.896 446.532,1531.781 447.399,1533.481 448.748,1534.831 450.448,1535.697 452.333,1535.996"/>
      <polygon points="133.701,1535.296 135.380,1534.559 136.729,1533.317 137.601,1531.705 137.903,1529.896 137.601,1528.088 136.729,1526.475 135.380,1525.233 133.701,1524.497 131.873,1524.345 130.096,1524.795 128.561,1525.798 127.435,1527.245 126.839,1528.979 126.839,1530.813 127.435,1532.547 128.561,1533.994 130.096,1534.997 131.873,1535.447"/>
      <polygon points="475.000,1534.515 476.419,1533.324 477.345,1531.720 477.667,1529.896 477.345,1528.072 476.419,1526.468 475.000,1525.277 473.259,1524.644 471.407,1524.644 469.667,1525.277 468.248,1526.468 467.322,1528.072 467.000,1529.896 467.322,1531.720 468.248,1533.324 469.667,1534.515 471.407,1535.148 473.259,1535.148"/>
      <polygon points="114.413,1534.074 115.782,1533.040 116.685,1531.582 117.000,1529.896 116.685,1528.210 115.782,1526.752 114.413,1525.719 112.764,1525.249 111.056,1525.408 109.521,1526.172 108.366,1527.439 107.746,1529.039 107.746,1530.754 108.366,1532.353 109.521,1533.620 111.056,1534.385 112.764,1534.543"/>
      <polygon points="494.004,1533.929 495.420,1532.983 496.366,1531.567 496.698,1529.896 496.366,1528.226 495.420,1526.810 494.004,1525.864 492.333,1525.531 490.663,1525.864 489.247,1526.810 488.301,1528.226 487.969,1529.896 488.301,1531.567 489.247,1532.983 490.663,1533.929 492.333,1534.261"/>
      <polygon points="93.415,1533.225 94.675,1532.497 95.531,1531.320 95.833,1529.896 95.531,1528.473 94.675,1527.295 93.415,1526.567 91.967,1526.415 90.583,1526.865 89.502,1527.839 88.910,1529.168 88.910,1530.624 89.502,1531.953 90.583,1532.927 91.967,1533.377"/>
      <polygon points="514.267,1532.321 515.128,1531.242 515.435,1529.896 515.128,1528.550 514.267,1527.471 513.023,1526.872 511.643,1526.872 510.400,1527.471 509.539,1528.550 509.232,1529.896 509.539,1531.242 510.400,1532.321 511.643,1532.920 513.023,1532.920"/>
      <polygon points="73.333,1531.628 74.065,1530.896 74.333,1529.896 74.065,1528.896 73.333,1528.164 72.333,1527.896 71.333,1528.164 71.083,1528.414 71.083,1531.378 71.333,1531.628 72.333,1531.896"/>
      <polygon points="293.916,1557.511 295.912,1556.802 297.642,1555.580 298.979,1553.937 299.823,1551.995 300.111,1549.896 299.823,1547.798 298.979,1545.855 297.642,1544.212 295.912,1542.990 293.916,1542.281 291.803,1542.137 289.729,1542.567 287.848,1543.542 286.300,1544.988 285.199,1546.797 284.628,1548.837 284.628,1550.955 285.199,1552.995 286.300,1554.805 287.848,1556.250 289.729,1557.225 291.803,1557.656"/>
      <polygon points="313.905,1557.457 315.886,1556.753 317.605,1555.540 318.932,1553.909 319.770,1551.980 320.056,1549.896 319.770,1547.813 318.932,1545.884 317.605,1544.252 315.886,1543.039 313.905,1542.335 311.806,1542.191 309.747,1542.619 307.880,1543.587 306.343,1545.022 305.250,1546.819 304.682,1548.845 304.682,1550.948 305.250,1552.973 306.343,1554.770 307.880,1556.205 309.747,1557.173 311.806,1557.601"/>
      <polygon points="273.881,1557.346 275.834,1556.652 277.527,1555.457 278.835,1553.850 279.660,1551.949 279.943,1549.896 279.660,1547.843 278.835,1545.943 277.527,1544.335 275.834,1543.140 273.881,1542.446 271.814,1542.305 269.785,1542.726 267.945,1543.680 266.431,1545.094 265.354,1546.865 264.795,1548.860 264.795,1550.932 265.354,1552.928 266.431,1554.698 267.945,1556.113 269.785,1557.066 271.814,1557.488"/>
      <polygon points="333.870,1557.289 335.807,1556.600 337.487,1555.414 338.785,1553.819 339.604,1551.933 339.884,1549.896 339.604,1547.859 338.785,1545.973 337.487,1544.378 335.807,1543.192 333.870,1542.504 331.818,1542.363 329.805,1542.782 327.979,1543.728 326.476,1545.131 325.408,1546.888 324.853,1548.868 324.853,1550.924 325.408,1552.904 326.476,1554.661 327.979,1556.065 329.805,1557.011 331.818,1557.429"/>
      <polygon points="255.419,1556.653 257.198,1555.510 258.583,1553.912 259.461,1551.989 259.762,1549.896 259.461,1547.803 258.583,1545.880 257.198,1544.282 255.419,1543.139 253.391,1542.543 251.276,1542.543 249.247,1543.139 247.469,1544.282 246.084,1545.880 245.206,1547.803 244.905,1549.896 245.206,1551.989 246.084,1553.912 247.469,1555.510 249.247,1556.653 251.276,1557.249 253.391,1557.249"/>
      <polygon points="355.419,1556.653 357.198,1555.510 358.583,1553.912 359.461,1551.989 359.762,1549.896 359.461,1547.803 358.583,1545.880 357.198,1544.282 355.419,1543.139 353.391,1542.543 351.276,1542.543 349.247,1543.139 347.469,1544.282 346.084,1545.880 345.206,1547.803 344.905,1549.896 345.206,1551.989 346.084,1553.912 347.469,1555.510 349.247,1556.653 351.276,1557.249 353.391,1557.249"/>
      <polygon points="235.366,1556.537 237.114,1555.414 238.475,1553.843 239.338,1551.953 239.634,1549.896 239.338,1547.839 238.475,1545.949 237.114,1544.379 235.366,1543.255 233.372,1542.670 231.294,1542.670 229.300,1543.255 227.552,1544.379 226.192,1545.949 225.328,1547.839 225.033,1549.896 225.328,1551.953 226.192,1553.843 227.552,1555.414 229.300,1556.537 231.294,1557.123 233.372,1557.123"/>
      <polygon points="375.339,1556.477 377.071,1555.364 378.419,1553.807 379.275,1551.934 379.568,1549.896 379.275,1547.858 378.419,1545.985 377.071,1544.429 375.339,1543.315 373.363,1542.735 371.304,1542.735 369.328,1543.315 367.596,1544.429 366.247,1545.985 365.392,1547.858 365.099,1549.896 365.392,1551.934 366.247,1553.807 367.596,1555.364 369.328,1556.477 371.304,1557.057 373.363,1557.057"/>
      <polygon points="215.282,1556.352 216.981,1555.260 218.304,1553.733 219.143,1551.896 219.430,1549.896 219.143,1547.897 218.304,1546.059 216.981,1544.533 215.282,1543.440 213.343,1542.871 211.323,1542.871 209.385,1543.440 207.686,1544.533 206.363,1546.059 205.524,1547.897 205.236,1549.896 205.524,1551.896 206.363,1553.733 207.686,1555.260 209.385,1556.352 211.323,1556.921 213.343,1556.921"/>
      <polygon points="395.252,1556.287 396.934,1555.206 398.244,1553.695 399.074,1551.876 399.359,1549.896 399.074,1547.917 398.244,1546.098 396.934,1544.587 395.252,1543.505 393.333,1542.942 391.334,1542.942 389.415,1543.505 387.733,1544.587 386.423,1546.098 385.592,1547.917 385.308,1549.896 385.592,1551.876 386.423,1553.695 387.733,1555.206 389.415,1556.287 391.334,1556.850 393.333,1556.850"/>
      <polygon points="414.846,1556.298 416.621,1555.273 418.016,1553.770 418.905,1551.923 419.211,1549.896 418.905,1547.869 418.016,1546.022 416.621,1544.519 414.846,1543.494 412.847,1543.038 410.803,1543.191 408.895,1543.940 407.292,1545.219 406.137,1546.912 405.533,1548.871 405.533,1550.921 406.137,1552.880 407.292,1554.574 408.895,1555.852 410.803,1556.601 412.847,1556.754"/>
      <polygon points="194.846,1556.298 196.621,1555.273 198.016,1553.770 198.905,1551.923 199.211,1549.896 198.905,1547.869 198.016,1546.022 196.621,1544.519 194.846,1543.494 192.847,1543.038 190.803,1543.191 188.895,1543.940 187.292,1545.219 186.137,1546.912 185.533,1548.871 185.533,1550.921 186.137,1552.880 187.292,1554.574 188.895,1555.852 190.803,1556.601 192.847,1556.754"/>
      <polygon points="174.789,1556.152 176.524,1555.151 177.886,1553.682 178.755,1551.877 179.054,1549.896 178.755,1547.915 177.886,1546.110 176.524,1544.642 174.789,1543.640 172.836,1543.194 170.838,1543.344 168.973,1544.076 167.407,1545.325 166.278,1546.980 165.688,1548.895 165.688,1550.898 166.278,1552.812 167.407,1554.467 168.973,1555.716 170.838,1556.448 172.836,1556.598"/>
      <polygon points="434.759,1556.076 436.473,1555.087 437.819,1553.636 438.678,1551.853 438.973,1549.896 438.678,1547.939 437.819,1546.156 436.473,1544.705 434.759,1543.716 432.829,1543.275 430.856,1543.423 429.014,1544.146 427.466,1545.380 426.352,1547.015 425.768,1548.907 425.768,1550.886 426.352,1552.777 427.466,1554.412 429.014,1555.646 430.856,1556.369 432.829,1556.517"/>
      <polygon points="154.277,1555.878 156.030,1554.985 157.422,1553.593 158.315,1551.840 158.623,1549.896 158.315,1547.952 157.422,1546.199 156.030,1544.808 154.277,1543.914 152.333,1543.606 150.390,1543.914 148.636,1544.808 147.245,1546.199 146.351,1547.952 146.043,1549.896 146.351,1551.840 147.245,1553.593 148.636,1554.985 150.390,1555.878 152.333,1556.186"/>
      <polygon points="454.218,1555.697 455.919,1554.831 457.268,1553.481 458.134,1551.781 458.433,1549.896 458.134,1548.011 457.268,1546.311 455.919,1544.962 454.218,1544.095 452.333,1543.797 450.448,1544.095 448.748,1544.962 447.399,1546.311 446.532,1548.011 446.234,1549.896 446.532,1551.781 447.399,1553.481 448.748,1554.831 450.448,1555.697 452.333,1555.996"/>
      <polygon points="133.701,1555.296 135.380,1554.559 136.729,1553.317 137.601,1551.705 137.903,1549.896 137.601,1548.088 136.729,1546.475 135.380,1545.233 133.701,1544.497 131.873,1544.345 130.096,1544.795 128.561,1545.798 127.435,1547.245 126.839,1548.979 126.839,1550.813 127.435,1552.547 128.561,1553.994 130.096,1554.997 131.873,1555.447"/>
      <polygon points="475.000,1554.515 476.419,1553.324 477.345,1551.720 477.667,1549.896 477.345,1548.072 476.419,1546.468 475.000,1545.277 473.259,1544.644 471.407,1544.644 469.667,1545.277 468.248,1546.468 467.322,1548.072 467.000,1549.896 467.322,1551.720 468.248,1553.324 469.667,1554.515 471.407,1555.148 473.259,1555.148"/>
      <polygon points="114.413,1554.074 115.782,1553.040 116.685,1551.582 117.000,1549.896 116.685,1548.210 115.782,1546.752 114.413,1545.719 112.764,1545.249 111.056,1545.408 109.521,1546.172 108.366,1547.439 107.746,1549.039 107.746,1550.754 108.366,1552.353 109.521,1553.620 111.056,1554.385 112.764,1554.543"/>
      <polygon points="494.004,1553.929 495.420,1552.983 496.366,1551.567 496.698,1549.896 496.366,1548.226 495.420,1546.810 494.004,1545.864 492.333,1545.531 490.663,1545.864 489.247,1546.810 488.301,1548.226 487.969,1549.896 488.301,1551.567 489.247,1552.983 490.663,1553.929 492.333,1554.261"/>
      <polygon points="93.415,1553.225 94.675,1552.497 95.531,1551.320 95.833,1549.896 95.531,1548.473 94.675,1547.295 93.415,1546.567 91.967,1546.415 90.583,1546.865 89.502,1547.839 88.910,1549.168 88.910,1550.624 89.502,1551.953 90.583,1552.927 91.967,1553.377"/>
      <polygon points="514.267,1552.321 515.128,1551.242 515.435,1549.896 515.128,1548.550 514.267,1547.471 513.023,1546.872 511.643,1546.872 510.400,1547.471 509.539,1548.550 509.232,1549.896 509.539,1551.242 510.400,1552.321 511.643,1552.920 513.023,1552.920"/>
      <polygon points="73.333,1551.628 74.065,1550.896 74.333,1549.896 74.065,1548.896 73.333,1548.164 72.333,1547.896 71.333,1548.164 71.083,1548.414 71.083,1551.378 71.333,1551.628 72.333,1551.896"/>
      <polygon points="293.916,1577.511 295.912,1576.802 297.642,1575.580 298.979,1573.937 299.823,1571.995 300.111,1569.896 299.823,1567.798 298.979,1565.855 297.642,1564.212 295.912,1562.990 293.916,1562.281 291.803,1562.137 289.729,1562.567 287.848,1563.542 286.300,1564.988 285.199,1566.797 284.628,1568.837 284.628,1570.955 285.199,1572.995 286.300,1574.805 287.848,1576.250 289.729,1577.225 291.803,1577.656"/>
      <polygon points="313.905,1577.457 315.886,1576.753 317.605,1575.540 318.932,1573.909 319.770,1571.980 320.056,1569.896 319.770,1567.813 318.932,1565.884 317.605,1564.252 315.886,1563.039 313.905,1562.335 311.806,1562.191 309.747,1562.619 307.880,1563.587 306.343,1565.022 305.250,1566.819 304.682,1568.845 304.682,1570.948 305.250,1572.973 306.343,1574.770 307.880,1576.205 309.747,1577.173 311.806,1577.601"/>
      <polygon points="273.881,1577.346 275.834,1576.652 277.527,1575.457 278.835,1573.850 279.660,1571.949 279.943,1569.896 279.660,1567.843 278.835,1565.943 277.527,1564.335 275.834,1563.140 273.881,1562.446 271.814,1562.305 269.785,1562.726 267.945,1563.680 266.431,1565.094 265.354,1566.865 264.795,1568.860 264.795,1570.932 265.354,1572.928 266.431,1574.698 267.945,1576.113 269.785,1577.066 271.814,1577.488"/>
      <polygon points="333.870,1577.289 335.807,1576.600 337.487,1575.414 338.785,1573.819 339.604,1571.933 339.884,1569.896 339.604,1567.859 338.785,1565.973 337.487,1564.378 335.807,1563.192 333.870,1562.504 331.818,1562.363 329.805,1562.782 327.979,1563.728 326.476,1565.131 325.408,1566.888 324.853,1568.868 324.853,1570.924 325.408,1572.904 326.476,1574.661 327.979,1576.065 329.805,1577.011 331.818,1577.429"/>
      <polygon points="255.419,1576.653 257.198,1575.510 258.583,1573.912 259.461,1571.989 259.762,1569.896 259.461,1567.803 258.583,1565.880 257.198,1564.282 255.419,1563.139 253.391,1562.543 251.276,1562.543 249.247,1563.139 247.469,1564.282 246.084,1565.880 245.206,1567.803 244.905,1569.896 245.206,1571.989 246.084,1573.912 247.469,1575.510 249.247,1576.653 251.276,1577.249 253.391,1577.249"/>
      <polygon points="355.419,1576.653 357.198,1575.510 358.583,1573.912 359.461,1571.989 359.762,1569.896 359.461,1567.803 358.583,1565.880 357.198,1564.282 355.419,1563.139 353.391,1562.543 351.276,1562.543 349.247,1563.139 347.469,1564.282 346.084,1565.880 345.206,1567.803 344.905,1569.896 345.206,1571.989 346.084,1573.912 347.469,1575.510 349.247,1576.653 351.276,1577.249 353.391,1577.249"/>
      <polygon points="235.366,1576.537 237.114,1575.414 238.475,1573.843 239.338,1571.953 239.634,1569.896 239.338,1567.839 238.475,1565.949 237.114,1564.379 235.366,1563.255 233.372,1562.670 231.294,1562.670 229.300,1563.255 227.552,1564.379 226.192,1565.949 225.328,1567.839 225.033,1569.896 225.328,1571.953 226.192,1573.843 227.552,1575.414 229.300,1576.537 231.294,1577.123 233.372,1577.123"/>
      <polygon points="375.339,1576.477 377.071,1575.364 378.419,1573.807 379.275,1571.934 379.568,1569.896 379.275,1567.858 378.419,1565.985 377.071,1564.429 375.339,1563.315 373.363,1562.735 371.304,1562.735 369.328,1563.315 367.596,1564.429 366.247,1565.985 365.392,1567.858 365.099,1569.896 365.392,1571.934 366.247,1573.807 367.596,1575.364 369.328,1576.477 371.304,1577.057 373.363,1577.057"/>
      <polygon points="215.282,1576.352 216.981,1575.260 218.304,1573.733 219.143,1571.896 219.430,1569.896 219.143,1567.897 218.304,1566.059 216.981,1564.533 215.282,1563.440 213.343,1562.871 211.323,1562.871 209.385,1563.440 207.686,1564.533 206.363,1566.059 205.524,1567.897 205.236,1569.896 205.524,1571.896 206.363,1573.733 207.686,1575.260 209.385,1576.352 211.323,1576.921 213.343,1576.921"/>
      <polygon points="395.252,1576.287 396.934,1575.206 398.244,1573.695 399.074,1571.876 399.359,1569.896 399.074,1567.917 398.244,1566.098 396.934,1564.587 395.252,1563.505 393.333,1562.942 391.334,1562.942 389.415,1563.505 387.733,1564.587 386.423,1566.098 385.592,1567.917 385.308,1569.896 385.592,1571.876 386.423,1573.695 387.733,1575.206 389.415,1576.287 391.334,1576.850 393.333,1576.850"/>
      <polygon points="194.846,1576.298 196.621,1575.273 198.016,1573.770 198.905,1571.923 199.211,1569.896 198.905,1567.869 198.016,1566.022 196.621,1564.519 194.846,1563.494 192.847,1563.038 190.803,1563.191 188.895,1563.940 187.292,1565.219 186.137,1566.912 185.533,1568.871 185.533,1570.921 186.137,1572.880 187.292,1574.574 188.895,1575.852 190.803,1576.601 192.847,1576.754"/>
      <polygon points="414.846,1576.298 416.621,1575.273 418.016,1573.770 418.905,1571.923 419.211,1569.896 418.905,1567.869 418.016,1566.022 416.621,1564.519 414.846,1563.494 412.847,1563.038 410.803,1563.191 408.895,1563.940 407.292,1565.219 406.137,1566.912 405.533,1568.871 405.533,1570.921 406.137,1572.880 407.292,1574.574 408.895,1575.852 410.803,1576.601 412.847,1576.754"/>
      <polygon points="174.789,1576.152 176.524,1575.151 177.886,1573.682 178.755,1571.877 179.054,1569.896 178.755,1567.915 177.886,1566.110 176.524,1564.642 174.789,1563.640 172.836,1563.194 170.838,1563.344 168.973,1564.076 167.407,1565.325 166.278,1566.980 165.688,1568.895 165.688,1570.898 166.278,1572.812 167.407,1574.467 168.973,1575.716 170.838,1576.448 172.836,1576.598"/>
      <polygon points="434.759,1576.076 436.473,1575.087 437.819,1573.636 438.678,1571.853 438.973,1569.896 438.678,1567.939 437.819,1566.156 436.473,1564.705 434.759,1563.716 432.829,1563.275 430.856,1563.423 429.014,1564.146 427.466,1565.380 426.352,1567.015 425.768,1568.907 425.768,1570.886 426.352,1572.777 427.466,1574.412 429.014,1575.646 430.856,1576.369 432.829,1576.517"/>
      <polygon points="154.277,1575.878 156.030,1574.985 157.422,1573.593 158.315,1571.840 158.623,1569.896 158.315,1567.952 157.422,1566.199 156.030,1564.808 154.277,1563.914 152.333,1563.606 150.390,1563.914 148.636,1564.808 147.245,1566.199 146.351,1567.952 146.043,1569.896 146.351,1571.840 147.245,1573.593 148.636,1574.985 150.390,1575.878 152.333,1576.186"/>
      <polygon points="454.218,1575.697 455.919,1574.831 457.268,1573.481 458.134,1571.781 458.433,1569.896 458.134,1568.011 457.268,1566.311 455.919,1564.962 454.218,1564.095 452.333,1563.797 450.448,1564.095 448.748,1564.962 447.399,1566.311 446.532,1568.011 446.234,1569.896 446.532,1571.781 447.399,1573.481 448.748,1574.831 450.448,1575.697 452.333,1575.996"/>
      <polygon points="133.701,1575.296 135.380,1574.559 136.729,1573.317 137.601,1571.705 137.903,1569.896 137.601,1568.088 136.729,1566.475 135.380,1565.233 133.701,1564.497 131.873,1564.345 130.096,1564.795 128.561,1565.798 127.435,1567.245 126.839,1568.979 126.839,1570.813 127.435,1572.547 128.561,1573.994 130.096,1574.997 131.873,1575.447"/>
      <polygon points="475.000,1574.515 476.419,1573.324 477.345,1571.720 477.667,1569.896 477.345,1568.072 476.419,1566.468 475.000,1565.277 473.259,1564.644 471.407,1564.644 469.667,1565.277 468.248,1566.468 467.322,1568.072 467.000,1569.896 467.322,1571.720 468.248,1573.324 469.667,1574.515 471.407,1575.148 473.259,1575.148"/>
      <polygon points="114.413,1574.074 115.782,1573.040 116.685,1571.582 117.000,1569.896 116.685,1568.210 115.782,1566.752 114.413,1565.719 112.764,1565.249 111.056,1565.408 109.521,1566.172 108.366,1567.439 107.746,1569.039 107.746,1570.754 108.366,1572.353 109.521,1573.620 111.056,1574.385 112.764,1574.543"/>
      <polygon points="494.004,1573.929 495.420,1572.983 496.366,1571.567 496.698,1569.896 496.366,1568.226 495.420,1566.810 494.004,1565.864 492.333,1565.531 490.663,1565.864 489.247,1566.810 488.301,1568.226 487.969,1569.896 488.301,1571.567 489.247,1572.983 490.663,1573.929 492.333,1574.261"/>
      <polygon points="93.415,1573.225 94.675,1572.497 95.531,1571.320 95.833,1569.896 95.531,1568.473 94.675,1567.295 93.415,1566.567 91.967,1566.415 90.583,1566.865 89.502,1567.839 88.910,1569.168 88.910,1570.624 89.502,1571.953 90.583,1572.927 91.967,1573.377"/>
      <polygon points="514.267,1572.321 515.128,1571.242 515.435,1569.896 515.128,1568.550 514.267,1567.471 513.023,1566.872 511.643,1566.872 510.400,1567.471 509.539,1568.550 509.232,1569.896 509.539,1571.242 510.400,1572.321 511.643,1572.920 513.023,1572.920"/>
      <polygon points="73.333,1571.628 74.065,1570.896 74.333,1569.896 74.065,1568.896 73.333,1568.164 72.333,1567.896 71.333,1568.164 71.083,1568.414 71.083,1571.378 71.333,1571.628 72.333,1571.896"/>
      <polygon points="293.916,1597.511 295.912,1596.802 297.642,1595.580 298.979,1593.937 299.823,1591.995 300.111,1589.896 299.823,1587.798 298.979,1585.855 297.642,1584.212 295.912,1582.990 293.916,1582.281 291.803,1582.137 289.729,1582.567 287.848,1583.542 286.300,1584.988 285.199,1586.797 284.628,1588.837 284.628,1590.955 285.199,1592.995 286.300,1594.805 287.848,1596.250 289.729,1597.225 291.803,1597.656"/>
      <polygon points="313.905,1597.457 315.886,1596.753 317.605,1595.540 318.932,1593.909 319.770,1591.980 320.056,1589.896 319.770,1587.813 318.932,1585.884 317.605,1584.252 315.886,1583.039 313.905,1582.335 311.806,1582.191 309.747,1582.619 307.880,1583.587 306.343,1585.022 305.250,1586.819 304.682,1588.845 304.682,1590.948 305.250,1592.973 306.343,1594.770 307.880,1596.205 309.747,1597.173 311.806,1597.601"/>
      <polygon points="273.881,1597.346 275.834,1596.652 277.527,1595.457 278.835,1593.850 279.660,1591.949 279.943,1589.896 279.660,1587.843 278.835,1585.943 277.527,1584.335 275.834,1583.140 273.881,1582.446 271.814,1582.305 269.785,1582.726 267.945,1583.680 266.431,1585.094 265.354,1586.865 264.795,1588.860 264.795,1590.932 265.354,1592.928 266.431,1594.698 267.945,1596.113 269.785,1597.066 271.814,1597.488"/>
      <polygon points="333.870,1597.289 335.807,1596.600 337.487,1595.414 338.785,1593.819 339.604,1591.933 339.884,1589.896 339.604,1587.859 338.785,1585.973 337.487,1584.378 335.807,1583.192 333.870,1582.504 331.818,1582.363 329.805,1582.782 327.979,1583.728 326.476,1585.131 325.408,1586.888 324.853,1588.868 324.853,1590.924 325.408,1592.904 326.476,1594.661 327.979,1596.065 329.805,1597.011 331.818,1597.429"/>
      <polygon points="255.419,1596.653 257.198,1595.510 258.583,1593.912 259.461,1591.989 259.762,1589.896 259.461,1587.803 258.583,1585.880 257.198,1584.282 255.419,1583.139 253.391,1582.543 251.276,1582.543 249.247,1583.139 247.469,1584.282 246.084,1585.880 245.206,1587.803 244.905,1589.896 245.206,1591.989 246.084,1593.912 247.469,1595.510 249.247,1596.653 251.276,1597.249 253.391,1597.249"/>
      <polygon points="355.419,1596.653 357.198,1595.510 358.583,1593.912 359.461,1591.989 359.762,1589.896 359.461,1587.803 358.583,1585.880 357.198,1584.282 355.419,1583.139 353.391,1582.543 351.276,1582.543 349.247,1583.139 347.469,1584.282 346.084,1585.880 345.206,1587.803 344.905,1589.896 345.206,1591.989 346.084,1593.912 347.469,1595.510 349.247,1596.653 351.276,1597.249 353.391,1597.249"/>
      <polygon points="235.366,1596.537 237.114,1595.414 238.475,1593.843 239.338,1591.953 239.634,1589.896 239.338,1587.839 238.475,1585.949 237.114,1584.379 235.366,1583.255 233.372,1582.670 231.294,1582.670 229.300,1583.255 227.552,1584.379 226.192,1585.949 225.328,1587.839 225.033,1589.896 225.328,1591.953 226.192,1593.843 227.552,1595.414 229.300,1596.537 231.294,1597.123 233.372,1597.123"/>
      <polygon points="375.339,1596.477 377.071,1595.364 378.419,1593.807 379.275,1591.934 379.568,1589.896 379.275,1587.858 378.419,1585.985 377.071,1584.429 375.339,1583.315 373.363,1582.735 371.304,1582.735 369.328,1583.315 367.596,1584.429 366.247,1585.985 365.392,1587.858 365.099,1589.896 365.392,1591.934 366.247,1593.807 367.596,1595.364 369.328,1596.477 371.304,1597.057 373.363,1597.057"/>
      <polygon points="215.282,1596.352 216.981,1595.260 218.304,1593.733 219.143,1591.896 219.430,1589.896 219.143,1587.897 218.304,1586.059 216.981,1584.533 215.282,1583.440 213.343,1582.871 211.323,1582.871 209.385,1583.440 207.686,1584.533 206.363,1586.059 205.524,1587.897 205.236,1589.896 205.524,1591.896 206.363,1593.733 207.686,1595.260 209.385,1596.352 211.323,1596.921 213.343,1596.921"/>
      <polygon points="395.252,1596.287 396.934,1595.206 398.244,1593.695 399.074,1591.876 399.359,1589.896 399.074,1587.917 398.244,1586.098 396.934,1584.587 395.252,1583.505 393.333,1582.942 391.334,1582.942 389.415,1583.505 387.733,1584.587 386.423,1586.098 385.592,1587.917 385.308,1589.896 385.592,1591.876 386.423,1593.695 387.733,1595.206 389.415,1596.287 391.334,1596.850 393.333,1596.850"/>
      <polygon points="414.846,1596.298 416.621,1595.273 418.016,1593.770 418.905,1591.923 419.211,1589.896 418.905,1587.869 418.016,1586.022 416.621,1584.519 414.846,1583.494 412.847,1583.038 410.803,1583.191 408.895,1583.940 407.292,1585.219 406.137,1586.912 405.533,1588.871 405.533,1590.921 406.137,1592.880 407.292,1594.574 408.895,1595.852 410.803,1596.601 412.847,1596.754"/>
      <polygon points="194.846,1596.298 196.621,1595.273 198.016,1593.770 198.905,1591.923 199.211,1589.896 198.905,1587.869 198.016,1586.022 196.621,1584.519 194.846,1583.494 192.847,1583.038 190.803,1583.191 188.895,1583.940 187.292,1585.219 186.137,1586.912 185.533,1588.871 185.533,1590.921 186.137,1592.880 187.292,1594.574 188.895,1595.852 190.803,1596.601 192.847,1596.754"/>
      <polygon points="174.789,1596.152 176.524,1595.151 177.886,1593.682 178.755,1591.877 179.054,1589.896 178.755,1587.915 177.886,1586.110 176.524,1584.642 174.789,1583.640 172.836,1583.194 170.838,1583.344 168.973,1584.076 167.407,1585.325 166.278,1586.980 165.688,1588.895 165.688,1590.898 166.278,1592.812 167.407,1594.467 168.973,1595.716 170.838,1596.448 172.836,1596.598"/>
      <polygon points="434.759,1596.076 436.473,1595.087 437.819,1593.636 438.678,1591.853 438.973,1589.896 438.678,1587.939 437.819,1586.156 436.473,1584.705 434.759,1583.716 432.829,1583.275 430.856,1583.423 429.014,1584.146 427.466,1585.380 426.352,1587.015 425.768,1588.907 425.768,1590.886 426.352,1592.777 427.466,1594.412 429.014,1595.646 430.856,1596.369 432.829,1596.517"/>
      <polygon points="154.277,1595.878 156.030,1594.985 157.422,1593.593 158.315,1591.840 158.623,1589.896 158.315,1587.952 157.422,1586.199 156.030,1584.808 154.277,1583.914 152.333,1583.606 150.390,1583.914 148.636,1584.808 147.245,1586.199 146.351,1587.952 146.043,1589.896 146.351,1591.840 147.245,1593.593 148.636,1594.985 150.390,1595.878 152.333,1596.186"/>
      <polygon points="454.218,1595.697 455.919,1594.831 457.268,1593.481 458.134,1591.781 458.433,1589.896 458.134,1588.011 457.268,1586.311 455.919,1584.962 454.218,1584.095 452.333,1583.797 450.448,1584.095 448.748,1584.962 447.399,1586.311 446.532,1588.011 446.234,1589.896 446.532,1591.781 447.399,1593.481 448.748,1594.831 450.448,1595.697 452.333,1595.996"/>
      <polygon points="133.701,1595.296 135.380,1594.559 136.729,1593.317 137.601,1591.705 137.903,1589.896 137.601,1588.088 136.729,1586.475 135.380,1585.233 133.701,1584.497 131.873,1584.345 130.096,1584.795 128.561,1585.798 127.435,1587.245 126.839,1588.979 126.839,1590.813 127.435,1592.547 128.561,1593.994 130.096,1594.997 131.873,1595.447"/>
      <polygon points="475.000,1594.515 476.419,1593.324 477.345,1591.720 477.667,1589.896 477.345,1588.072 476.419,1586.468 475.000,1585.277 473.259,1584.644 471.407,1584.644 469.667,1585.277 468.248,1586.468 467.322,1588.072 467.000,1589.896 467.322,1591.720 468.248,1593.324 469.667,1594.515 471.407,1595.148 473.259,1595.148"/>
      <polygon points="114.413,1594.074 115.782,1593.040 116.685,1591.582 117.000,1589.896 116.685,1588.210 115.782,1586.752 114.413,1585.719 112.764,1585.249 111.056,1585.408 109.521,1586.172 108.366,1587.439 107.746,1589.039 107.746,1590.754 108.366,1592.353 109.521,1593.620 111.056,1594.385 112.764,1594.543"/>
      <polygon points="494.004,1593.929 495.420,1592.983 496.366,1591.567 496.698,1589.896 496.366,1588.226 495.420,1586.810 494.004,1585.864 492.333,1585.531 490.663,1585.864 489.247,1586.810 488.301,1588.226 487.969,1589.896 488.301,1591.567 489.247,1592.983 490.663,1593.929 492.333,1594.261"/>
      <polygon points="93.415,1593.225 94.675,1592.497 95.531,1591.320 95.833,1589.896 95.531,1588.473 94.675,1587.295 93.415,1586.567 91.967,1586.415 90.583,1586.865 89.502,1587.839 88.910,1589.168 88.910,1590.624 89.502,1591.953 90.583,1592.927 91.967,1593.377"/>
      <polygon points="514.267,1592.321 515.128,1591.242 515.435,1589.896 515.128,1588.550 514.267,1587.471 513.023,1586.872 511.643,1586.872 510.400,1587.471 509.539,1588.550 509.232,1589.896 509.539,1591.242 510.400,1592.321 511.643,1592.920 513.023,1592.920"/>
      <polygon points="73.333,1591.628 74.065,1590.896 74.333,1589.896 74.065,1588.896 73.333,1588.164 72.333,1587.896 71.333,1588.164 71.083,1588.414 71.083,1591.378 71.333,1591.628 72.333,1591.896"/>
      <polygon points="293.916,1617.511 295.912,1616.802 297.642,1615.580 298.979,1613.937 299.823,1611.995 300.111,1609.896 299.823,1607.798 298.979,1605.855 297.642,1604.212 295.912,1602.990 293.916,1602.281 291.803,1602.137 289.729,1602.567 287.848,1603.542 286.300,1604.988 285.199,1606.797 284.628,1608.837 284.628,1610.955 285.199,1612.995 286.300,1614.805 287.848,1616.250 289.729,1617.225 291.803,1617.656"/>
      <polygon points="313.905,1617.457 315.886,1616.753 317.605,1615.540 318.932,1613.909 319.770,1611.980 320.056,1609.896 319.770,1607.813 318.932,1605.884 317.605,1604.252 315.886,1603.039 313.905,1602.335 311.806,1602.191 309.747,1602.619 307.880,1603.587 306.343,1605.022 305.250,1606.819 304.682,1608.845 304.682,1610.948 305.250,1612.973 306.343,1614.770 307.880,1616.205 309.747,1617.173 311.806,1617.601"/>
      <polygon points="273.881,1617.346 275.834,1616.652 277.527,1615.457 278.835,1613.850 279.660,1611.949 279.943,1609.896 279.660,1607.843 278.835,1605.943 277.527,1604.335 275.834,1603.140 273.881,1602.446 271.814,1602.305 269.785,1602.726 267.945,1603.680 266.431,1605.094 265.354,1606.865 264.795,1608.860 264.795,1610.932 265.354,1612.928 266.431,1614.698 267.945,1616.113 269.785,1617.066 271.814,1617.488"/>
      <polygon points="333.870,1617.289 335.807,1616.600 337.487,1615.414 338.785,1613.819 339.604,1611.933 339.884,1609.896 339.604,1607.859 338.785,1605.973 337.487,1604.378 335.807,1603.192 333.870,1602.504 331.818,1602.363 329.805,1602.782 327.979,1603.728 326.476,1605.131 325.408,1606.888 324.853,1608.868 324.853,1610.924 325.408,1612.904 326.476,1614.661 327.979,1616.065 329.805,1617.011 331.818,1617.429"/>
      <polygon points="255.419,1616.653 257.198,1615.510 258.583,1613.912 259.461,1611.989 259.762,1609.896 259.461,1607.803 258.583,1605.880 257.198,1604.282 255.419,1603.139 253.391,1602.543 251.276,1602.543 249.247,1603.139 247.469,1604.282 246.084,1605.880 245.206,1607.803 244.905,1609.896 245.206,1611.989 246.084,1613.912 247.469,1615.510 249.247,1616.653 251.276,1617.249 253.391,1617.249"/>
      <polygon points="355.419,1616.653 357.198,1615.510 358.583,1613.912 359.461,1611.989 359.762,1609.896 359.461,1607.803 358.583,1605.880 357.198,1604.282 355.419,1603.139 353.391,1602.543 351.276,1602.543 349.247,1603.139 347.469,1604.282 346.084,1605.880 345.206,1607.803 344.905,1609.896 345.206,1611.989 346.084,1613.912 347.469,1615.510 349.247,1616.653 351.276,1617.249 353.391,1617.249"/>
      <polygon points="235.366,1616.537 237.114,1615.414 238.475,1613.843 239.338,1611.953 239.634,1609.896 239.338,1607.839 238.475,1605.949 237.114,1604.379 235.366,1603.255 233.372,1602.670 231.294,1602.670 229.300,1603.255 227.552,1604.379 226.192,1605.949 225.328,1607.839 225.033,1609.896 225.328,1611.953 226.192,1613.843 227.552,1615.414 229.300,1616.537 231.294,1617.123 233.372,1617.123"/>
      <polygon points="375.339,1616.477 377.071,1615.364 378.419,1613.807 379.275,1611.934 379.568,1609.896 379.275,1607.858 378.419,1605.985 377.071,1604.429 375.339,1603.315 373.363,1602.735 371.304,1602.735 369.328,1603.315 367.596,1604.429 366.247,1605.985 365.392,1607.858 365.099,1609.896 365.392,1611.934 366.247,1613.807 367.596,1615.364 369.328,1616.477 371.304,1617.057 373.363,1617.057"/>
      <polygon points="215.282,1616.352 216.981,1615.260 218.304,1613.733 219.143,1611.896 219.430,1609.896 219.143,1607.897 218.304,1606.059 216.981,1604.533 215.282,1603.440 213.343,1602.871 211.323,1602.871 209.385,1603.440 207.686,1604.533 206.363,1606.059 205.524,1607.897 205.236,1609.896 205.524,1611.896 206.363,1613.733 207.686,1615.260 209.385,1616.352 211.323,1616.921 213.343,1616.921"/>
      <polygon points="395.252,1616.287 396.934,1615.206 398.244,1613.695 399.074,1611.876 399.359,1609.896 399.074,1607.917 398.244,1606.098 396.934,1604.587 395.252,1603.505 393.333,1602.942 391.334,1602.942 389.415,1603.505 387.733,1604.587 386.423,1606.098 385.592,1607.917 385.308,1609.896 385.592,1611.876 386.423,1613.695 387.733,1615.206 389.415,1616.287 391.334,1616.850 393.333,1616.850"/>
      <polygon points="194.846,1616.298 196.621,1615.273 198.016,1613.770 198.905,1611.923 199.211,1609.896 198.905,1607.869 198.016,1606.022 196.621,1604.519 194.846,1603.494 192.847,1603.038 190.803,1603.191 188.895,1603.940 187.292,1605.219 186.137,1606.912 185.533,1608.871 185.533,1610.921 186.137,1612.880 187.292,1614.574 188.895,1615.852 190.803,1616.601 192.847,1616.754"/>
      <polygon points="414.846,1616.298 416.621,1615.273 418.016,1613.770 418.905,1611.923 419.211,1609.896 418.905,1607.869 418.016,1606.022 416.621,1604.519 414.846,1603.494 412.847,1603.038 410.803,1603.191 408.895,1603.940 407.292,1605.219 406.137,1606.912 405.533,1608.871 405.533,1610.921 406.137,1612.880 407.292,1614.574 408.895,1615.852 410.803,1616.601 412.847,1616.754"/>
      <polygon points="174.789,1616.152 176.524,1615.151 177.886,1613.682 178.755,1611.877 179.054,1609.896 178.755,1607.915 177.886,1606.110 176.524,1604.642 174.789,1603.640 172.836,1603.194 170.838,1603.344 168.973,1604.076 167.407,1605.325 166.278,1606.980 165.688,1608.895 165.688,1610.898 166.278,1612.812 167.407,1614.467 168.973,1615.716 170.838,1616.448 172.836,1616.598"/>
      <polygon points="434.759,1616.076 436.473,1615.087 437.819,1613.636 438.678,1611.853 438.973,1609.896 438.678,1607.939 437.819,1606.156 436.473,1604.705 434.759,1603.716 432.829,1603.275 430.856,1603.423 429.014,1604.146 427.466,1605.380 426.352,1607.015 425.768,1608.907 425.768,1610.886 426.352,1612.777 427.466,1614.412 429.014,1615.646 430.856,1616.369 432.829,1616.517"/>
      <polygon points="154.277,1615.878 156.030,1614.985 157.422,1613.593 158.315,1611.840 158.623,1609.896 158.315,1607.952 157.422,1606.199 156.030,1604.808 154.277,1603.914 152.333,1603.606 150.390,1603.914 148.636,1604.808 147.245,1606.199 146.351,1607.952 146.043,1609.896 146.351,1611.840 147.245,1613.593 148.636,1614.985 150.390,1615.878 152.333,1616.186"/>
      <polygon points="454.218,1615.697 455.919,1614.831 457.268,1613.481 458.134,1611.781 458.433,1609.896 458.134,1608.011 457.268,1606.311 455.919,1604.962 454.218,1604.095 452.333,1603.797 450.448,1604.095 448.748,1604.962 447.399,1606.311 446.532,1608.011 446.234,1609.896 446.532,1611.781 447.399,1613.481 448.748,1614.831 450.448,1615.697 452.333,1615.996"/>
      <polygon points="133.701,1615.296 135.380,1614.559 136.729,1613.317 137.601,1611.705 137.903,1609.896 137.601,1608.088 136.729,1606.475 135.380,1605.233 133.701,1604.497 131.873,1604.345 130.096,1604.795 128.561,1605.798 127.435,1607.245 126.839,1608.979 126.839,1610.813 127.435,1612.547 128.561,1613.994 130.096,1614.997 131.873,1615.447"/>
      <polygon points="475.000,1614.515 476.419,1613.324 477.345,1611.720 477.667,1609.896 477.345,1608.072 476.419,1606.468 475.000,1605.277 473.259,1604.644 471.407,1604.644 469.667,1605.277 468.248,1606.468 467.322,1608.072 467.000,1609.896 467.322,1611.720 468.248,1613.324 469.667,1614.515 471.407,1615.148 473.259,1615.148"/>
      <polygon points="114.413,1614.074 115.782,1613.040 116.685,1611.582 117.000,1609.896 116.685,1608.210 115.782,1606.752 114.413,1605.719 112.764,1605.249 111.056,1605.408 109.521,1606.172 108.366,1607.439 107.746,1609.039 107.746,1610.754 108.366,1612.353 109.521,1613.620 111.056,1614.385 112.764,1614.543"/>
      <polygon points="494.004,1613.929 495.420,1612.983 496.366,1611.567 496.698,1609.896 496.366,1608.226 495.420,1606.810 494.004,1605.864 492.333,1605.531 490.663,1605.864 489.247,1606.810 488.301,1608.226 487.969,1609.896 488.301,1611.567 489.247,1612.983 490.663,1613.929 492.333,1614.261"/>
      <polygon points="93.415,1613.225 94.675,1612.497 95.531,1611.320 95.833,1609.896 95.531,1608.473 94.675,1607.295 93.415,1606.567 91.967,1606.415 90.583,1606.865 89.502,1607.839 88.910,1609.168 88.910,1610.624 89.502,1611.953 90.583,1612.927 91.967,1613.377"/>
      <polygon points="514.267,1612.321 515.128,1611.242 515.435,1609.896 515.128,1608.550 514.267,1607.471 513.023,1606.872 511.643,1606.872 510.400,1607.471 509.539,1608.550 509.232,1609.896 509.539,1611.242 510.400,1612.321 511.643,1612.920 513.023,1612.920"/>
      <polygon points="73.333,1611.628 74.065,1610.896 74.333,1609.896 74.065,1608.896 73.333,1608.164 72.333,1607.896 71.333,1608.164 71.083,1608.414 71.083,1611.378 71.333,1611.628 72.333,1611.896"/>
      <polygon points="293.916,1637.511 295.912,1636.802 297.642,1635.580 298.979,1633.937 299.823,1631.995 300.111,1629.896 299.823,1627.798 298.979,1625.855 297.642,1624.212 295.912,1622.990 293.916,1622.281 291.803,1622.137 289.729,1622.567 287.848,1623.542 286.300,1624.988 285.199,1626.797 284.628,1628.837 284.628,1630.955 285.199,1632.995 286.300,1634.805 287.848,1636.250 289.729,1637.225 291.803,1637.656"/>
      <polygon points="313.905,1637.457 315.886,1636.753 317.605,1635.540 318.932,1633.909 319.770,1631.980 320.056,1629.896 319.770,1627.813 318.932,1625.884 317.605,1624.252 315.886,1623.039 313.905,1622.335 311.806,1622.191 309.747,1622.619 307.880,1623.587 306.343,1625.022 305.250,1626.819 304.682,1628.845 304.682,1630.948 305.250,1632.973 306.343,1634.770 307.880,1636.205 309.747,1637.173 311.806,1637.601"/>
      <polygon points="273.881,1637.346 275.834,1636.652 277.527,1635.457 278.835,1633.850 279.660,1631.949 279.943,1629.896 279.660,1627.843 278.835,1625.943 277.527,1624.335 275.834,1623.140 273.881,1622.446 271.814,1622.305 269.785,1622.726 267.945,1623.680 266.431,1625.094 265.354,1626.865 264.795,1628.860 264.795,1630.932 265.354,1632.928 266.431,1634.698 267.945,1636.113 269.785,1637.066 271.814,1637.488"/>
      <polygon points="333.870,1637.289 335.807,1636.600 337.487,1635.414 338.785,1633.819 339.604,1631.933 339.884,1629.896 339.604,1627.859 338.785,1625.973 337.487,1624.378 335.807,1623.192 333.870,1622.504 331.818,1622.363 329.805,1622.782 327.979,1623.728 326.476,1625.131 325.408,1626.888 324.853,1628.868 324.853,1630.924 325.408,1632.904 326.476,1634.661 327.979,1636.065 329.805,1637.011 331.818,1637.429"/>
      <polygon points="355.419,1636.653 357.198,1635.510 358.583,1633.912 359.461,1631.989 359.762,1629.896 359.461,1627.803 358.583,1625.880 357.198,1624.282 355.419,1623.139 353.391,1622.543 351.276,1622.543 349.247,1623.139 347.469,1624.282 346.084,1625.880 345.206,1627.803 344.905,1629.896 345.206,1631.989 346.084,1633.912 347.469,1635.510 349.247,1636.653 351.276,1637.249 353.391,1637.249"/>
      <polygon points="255.419,1636.653 257.198,1635.510 258.583,1633.912 259.461,1631.989 259.762,1629.896 259.461,1627.803 258.583,1625.880 257.198,1624.282 255.419,1623.139 253.391,1622.543 251.276,1622.543 249.247,1623.139 247.469,1624.282 246.084,1625.880 245.206,1627.803 244.905,1629.896 245.206,1631.989 246.084,1633.912 247.469,1635.510 249.247,1636.653 251.276,1637.249 253.391,1637.249"/>
      <polygon points="235.366,1636.537 237.114,1635.414 238.475,1633.843 239.338,1631.953 239.634,1629.896 239.338,1627.839 238.475,1625.949 237.114,1624.379 235.366,1623.255 233.372,1622.670 231.294,1622.670 229.300,1623.255 227.552,1624.379 226.192,1625.949 225.328,1627.839 225.033,1629.896 225.328,1631.953 226.192,1633.843 227.552,1635.414 229.300,1636.537 231.294,1637.123 233.372,1637.123"/>
      <polygon points="375.339,1636.477 377.071,1635.364 378.419,1633.807 379.275,1631.934 379.568,1629.896 379.275,1627.858 378.419,1625.985 377.071,1624.429 375.339,1623.315 373.363,1622.735 371.304,1622.735 369.328,1623.315 367.596,1624.429 366.247,1625.985 365.392,1627.858 365.099,1629.896 365.392,1631.934 366.247,1633.807 367.596,1635.364 369.328,1636.477 371.304,1637.057 373.363,1637.057"/>
      <polygon points="215.282,1636.352 216.981,1635.260 218.304,1633.733 219.143,1631.896 219.430,1629.896 219.143,1627.897 218.304,1626.059 216.981,1624.533 215.282,1623.440 213.343,1622.871 211.323,1622.871 209.385,1623.440 207.686,1624.533 206.363,1626.059 205.524,1627.897 205.236,1629.896 205.524,1631.896 206.363,1633.733 207.686,1635.260 209.385,1636.352 211.323,1636.921 213.343,1636.921"/>
      <polygon points="395.252,1636.287 396.934,1635.206 398.244,1633.695 399.074,1631.876 399.359,1629.896 399.074,1627.917 398.244,1626.098 396.934,1624.587 395.252,1623.505 393.333,1622.942 391.334,1622.942 389.415,1623.505 387.733,1624.587 386.423,1626.098 385.592,1627.917 385.308,1629.896 385.592,1631.876 386.423,1633.695 387.733,1635.206 389.415,1636.287 391.334,1636.850 393.333,1636.850"/>
      <polygon points="414.846,1636.298 416.621,1635.273 418.016,1633.770 418.905,1631.923 419.211,1629.896 418.905,1627.869 418.016,1626.022 416.621,1624.519 414.846,1623.494 412.847,1623.038 410.803,1623.191 408.895,1623.940 407.292,1625.219 406.137,1626.912 405.533,1628.871 405.533,1630.921 406.137,1632.880 407.292,1634.574 408.895,1635.852 410.803,1636.601 412.847,1636.754"/>
      <polygon points="194.846,1636.298 196.621,1635.273 198.016,1633.770 198.905,1631.923 199.211,1629.896 198.905,1627.869 198.016,1626.022 196.621,1624.519 194.846,1623.494 192.847,1623.038 190.803,1623.191 188.895,1623.940 187.292,1625.219 186.137,1626.912 185.533,1628.871 185.533,1630.921 186.137,1632.880 187.292,1634.574 188.895,1635.852 190.803,1636.601 192.847,1636.754"/>
      <polygon points="174.789,1636.152 176.524,1635.151 177.886,1633.682 178.755,1631.877 179.054,1629.896 178.755,1627.915 177.886,1626.110 176.524,1624.642 174.789,1623.640 172.836,1623.194 170.838,1623.344 168.973,1624.076 167.407,1625.325 166.278,1626.980 165.688,1628.895 165.688,1630.898 166.278,1632.812 167.407,1634.467 168.973,1635.716 170.838,1636.448 172.836,1636.598"/>
      <polygon points="434.759,1636.076 436.473,1635.087 437.819,1633.636 438.678,1631.853 438.973,1629.896 438.678,1627.939 437.819,1626.156 436.473,1624.705 434.759,1623.716 432.829,1623.275 430.856,1623.423 429.014,1624.146 427.466,1625.380 426.352,1627.015 425.768,1628.907 425.768,1630.886 426.352,1632.777 427.466,1634.412 429.014,1635.646 430.856,1636.369 432.829,1636.517"/>
      <polygon points="154.277,1635.878 156.030,1634.985 157.422,1633.593 158.315,1631.840 158.623,1629.896 158.315,1627.952 157.422,1626.199 156.030,1624.808 154.277,1623.914 152.333,1623.606 150.390,1623.914 148.636,1624.808 147.245,1626.199 146.351,1627.952 146.043,1629.896 146.351,1631.840 147.245,1633.593 148.636,1634.985 150.390,1635.878 152.333,1636.186"/>
      <polygon points="454.218,1635.697 455.919,1634.831 457.268,1633.481 458.134,1631.781 458.433,1629.896 458.134,1628.011 457.268,1626.311 455.919,1624.962 454.218,1624.095 452.333,1623.797 450.448,1624.095 448.748,1624.962 447.399,1626.311 446.532,1628.011 446.234,1629.896 446.532,1631.781 447.399,1633.481 448.748,1634.831 450.448,1635.697 452.333,1635.996"/>
      <polygon points="133.701,1635.296 135.380,1634.559 136.729,1633.317 137.601,1631.705 137.903,1629.896 137.601,1628.088 136.729,1626.475 135.380,1625.233 133.701,1624.497 131.873,1624.345 130.096,1624.795 128.561,1625.798 127.435,1627.245 126.839,1628.979 126.839,1630.813 127.435,1632.547 128.561,1633.994 130.096,1634.997 131.873,1635.447"/>
      <polygon points="475.000,1634.515 476.419,1633.324 477.345,1631.720 477.667,1629.896 477.345,1628.072 476.419,1626.468 475.000,1625.277 473.259,1624.644 471.407,1624.644 469.667,1625.277 468.248,1626.468 467.322,1628.072 467.000,1629.896 467.322,1631.720 468.248,1633.324 469.667,1634.515 471.407,1635.148 473.259,1635.148"/>
      <polygon points="114.413,1634.074 115.782,1633.040 116.685,1631.582 117.000,1629.896 116.685,1628.210 115.782,1626.752 114.413,1625.719 112.764,1625.249 111.056,1625.408 109.521,1626.172 108.366,1627.439 107.746,1629.039 107.746,1630.754 108.366,1632.353 109.521,1633.620 111.056,1634.385 112.764,1634.543"/>
      <polygon points="494.004,1633.929 495.420,1632.983 496.366,1631.567 496.698,1629.896 496.366,1628.226 495.420,1626.810 494.004,1625.864 492.333,1625.531 490.663,1625.864 489.247,1626.810 488.301,1628.226 487.969,1629.896 488.301,1631.567 489.247,1632.983 490.663,1633.929 492.333,1634.261"/>
      <polygon points="93.415,1633.225 94.675,1632.497 95.531,1631.320 95.833,1629.896 95.531,1628.473 94.675,1627.295 93.415,1626.567 91.967,1626.415 90.583,1626.865 89.502,1627.839 88.910,1629.168 88.910,1630.624 89.502,1631.953 90.583,1632.927 91.967,1633.377"/>
      <polygon points="514.267,1632.321 515.128,1631.242 515.435,1629.896 515.128,1628.550 514.267,1627.471 513.023,1626.872 511.643,1626.872 510.400,1627.471 509.539,1628.550 509.232,1629.896 509.539,1631.242 510.400,1632.321 511.643,1632.920 513.023,1632.920"/>
      <polygon points="73.333,1631.628 74.065,1630.896 74.333,1629.896 74.065,1628.896 73.333,1628.164 72.333,1627.896 71.333,1628.164 71.083,1628.414 71.083,1631.378 71.333,1631.628 72.333,1631.896"/>
      <polygon points="293.916,1657.511 295.912,1656.802 297.642,1655.580 298.979,1653.937 299.823,1651.995 300.111,1649.896 299.823,1647.798 298.979,1645.855 297.642,1644.212 295.912,1642.990 293.916,1642.281 291.803,1642.137 289.729,1642.567 287.848,1643.542 286.300,1644.988 285.199,1646.797 284.628,1648.837 284.628,1650.955 285.199,1652.995 286.300,1654.805 287.848,1656.250 289.729,1657.225 291.803,1657.656"/>
      <polygon points="313.905,1657.457 315.886,1656.753 317.605,1655.540 318.932,1653.909 319.770,1651.980 320.056,1649.896 319.770,1647.813 318.932,1645.884 317.605,1644.252 315.886,1643.039 313.905,1642.335 311.806,1642.191 309.747,1642.619 307.880,1643.587 306.343,1645.022 305.250,1646.819 304.682,1648.845 304.682,1650.948 305.250,1652.973 306.343,1654.770 307.880,1656.205 309.747,1657.173 311.806,1657.601"/>
      <polygon points="273.881,1657.346 275.834,1656.652 277.527,1655.457 278.835,1653.850 279.660,1651.949 279.943,1649.896 279.660,1647.843 278.835,1645.943 277.527,1644.335 275.834,1643.140 273.881,1642.446 271.814,1642.305 269.785,1642.726 267.945,1643.680 266.431,1645.094 265.354,1646.865 264.795,1648.860 264.795,1650.932 265.354,1652.928 266.431,1654.698 267.945,1656.113 269.785,1657.066 271.814,1657.488"/>
      <polygon points="333.870,1657.289 335.807,1656.600 337.487,1655.414 338.785,1653.819 339.604,1651.933 339.884,1649.896 339.604,1647.859 338.785,1645.973 337.487,1644.378 335.807,1643.192 333.870,1642.504 331.818,1642.363 329.805,1642.782 327.979,1643.728 326.476,1645.131 325.408,1646.888 324.853,1648.868 324.853,1650.924 325.408,1652.904 326.476,1654.661 327.979,1656.065 329.805,1657.011 331.818,1657.429"/>
      <polygon points="355.419,1656.653 357.198,1655.510 358.583,1653.912 359.461,1651.989 359.762,1649.896 359.461,1647.803 358.583,1645.880 357.198,1644.282 355.419,1643.139 353.391,1642.543 351.276,1642.543 349.247,1643.139 347.469,1644.282 346.084,1645.880 345.206,1647.803 344.905,1649.896 345.206,1651.989 346.084,1653.912 347.469,1655.510 349.247,1656.653 351.276,1657.249 353.391,1657.249"/>
      <polygon points="255.419,1656.653 257.198,1655.510 258.583,1653.912 259.461,1651.989 259.762,1649.896 259.461,1647.803 258.583,1645.880 257.198,1644.282 255.419,1643.139 253.391,1642.543 251.276,1642.543 249.247,1643.139 247.469,1644.282 246.084,1645.880 245.206,1647.803 244.905,1649.896 245.206,1651.989 246.084,1653.912 247.469,1655.510 249.247,1656.653 251.276,1657.249 253.391,1657.249"/>
      <polygon points="235.366,1656.537 237.114,1655.414 238.475,1653.843 239.338,1651.953 239.634,1649.896 239.338,1647.839 238.475,1645.949 237.114,1644.379 235.366,1643.255 233.372,1642.670 231.294,1642.670 229.300,1643.255 227.552,1644.379 226.192,1645.949 225.328,1647.839 225.033,1649.896 225.328,1651.953 226.192,1653.843 227.552,1655.414 229.300,1656.537 231.294,1657.123 233.372,1657.123"/>
      <polygon points="375.339,1656.477 377.071,1655.364 378.419,1653.807 379.275,1651.934 379.568,1649.896 379.275,1647.858 378.419,1645.985 377.071,1644.429 375.339,1643.315 373.363,1642.735 371.304,1642.735 369.328,1643.315 367.596,1644.429 366.247,1645.985 365.392,1647.858 365.099,1649.896 365.392,1651.934 366.247,1653.807 367.596,1655.364 369.328,1656.477 371.304,1657.057 373.363,1657.057"/>
      <polygon points="215.282,1656.352 216.981,1655.260 218.304,1653.733 219.143,1651.896 219.430,1649.896 219.143,1647.897 218.304,1646.059 216.981,1644.533 215.282,1643.440 213.343,1642.871 211.323,1642.871 209.385,1643.440 207.686,1644.533 206.363,1646.059 205.524,1647.897 205.236,1649.896 205.524,1651.896 206.363,1653.733 207.686,1655.260 209.385,1656.352 211.323,1656.921 213.343,1656.921"/>
      <polygon points="395.252,1656.287 396.934,1655.206 398.244,1653.695 399.074,1651.876 399.359,1649.896 399.074,1647.917 398.244,1646.098 396.934,1644.587 395.252,1643.505 393.333,1642.942 391.334,1642.942 389.415,1643.505 387.733,1644.587 386.423,1646.098 385.592,1647.917 385.308,1649.896 385.592,1651.876 386.423,1653.695 387.733,1655.206 389.415,1656.287 391.334,1656.850 393.333,1656.850"/>
      <polygon points="414.846,1656.298 416.621,1655.273 418.016,1653.770 418.905,1651.923 419.211,1649.896 418.905,1647.869 418.016,1646.022 416.621,1644.519 414.846,1643.494 412.847,1643.038 410.803,1643.191 408.895,1643.940 407.292,1645.219 406.137,1646.912 405.533,1648.871 405.533,1650.921 406.137,1652.880 407.292,1654.574 408.895,1655.852 410.803,1656.601 412.847,1656.754"/>
      <polygon points="194.846,1656.298 196.621,1655.273 198.016,1653.770 198.905,1651.923 199.211,1649.896 198.905,1647.869 198.016,1646.022 196.621,1644.519 194.846,1643.494 192.847,1643.038 190.803,1643.191 188.895,1643.940 187.292,1645.219 186.137,1646.912 185.533,1648.871 185.533,1650.921 186.137,1652.880 187.292,1654.574 188.895,1655.852 190.803,1656.601 192.847,1656.754"/>
      <polygon points="174.789,1656.152 176.524,1655.151 177.886,1653.682 178.755,1651.877 179.054,1649.896 178.755,1647.915 177.886,1646.110 176.524,1644.642 174.789,1643.640 172.836,1643.194 170.838,1643.344 168.973,1644.076 167.407,1645.325 166.278,1646.980 165.688,1648.895 165.688,1650.898 166.278,1652.812 167.407,1654.467 168.973,1655.716 170.838,1656.448 172.836,1656.598"/>
      <polygon points="434.759,1656.076 436.473,1655.087 437.819,1653.636 438.678,1651.853 438.973,1649.896 438.678,1647.939 437.819,1646.156 436.473,1644.705 434.759,1643.716 432.829,1643.275 430.856,1643.423 429.014,1644.146 427.466,1645.380 426.352,1647.015 425.768,1648.907 425.768,1650.886 426.352,1652.777 427.466,1654.412 429.014,1655.646 430.856,1656.369 432.829,1656.517"/>
      <polygon points="154.277,1655.878 156.030,1654.985 157.422,1653.593 158.315,1651.840 158.623,1649.896 158.315,1647.952 157.422,1646.199 156.030,1644.808 154.277,1643.914 152.333,1643.606 150.390,1643.914 148.636,1644.808 147.245,1646.199 146.351,1647.952 146.043,1649.896 146.351,1651.840 147.245,1653.593 148.636,1654.985 150.390,1655.878 152.333,1656.186"/>
      <polygon points="454.218,1655.697 455.919,1654.831 457.268,1653.481 458.134,1651.781 458.433,1649.896 458.134,1648.011 457.268,1646.311 455.919,1644.962 454.218,1644.095 452.333,1643.797 450.448,1644.095 448.748,1644.962 447.399,1646.311 446.532,1648.011 446.234,1649.896 446.532,1651.781 447.399,1653.481 448.748,1654.831 450.448,1655.697 452.333,1655.996"/>
      <polygon points="133.701,1655.296 135.380,1654.559 136.729,1653.317 137.601,1651.705 137.903,1649.896 137.601,1648.088 136.729,1646.475 135.380,1645.233 133.701,1644.497 131.873,1644.345 130.096,1644.795 128.561,1645.798 127.435,1647.245 126.839,1648.979 126.839,1650.813 127.435,1652.547 128.561,1653.994 130.096,1654.997 131.873,1655.447"/>
      <polygon points="475.000,1654.515 476.419,1653.324 477.345,1651.720 477.667,1649.896 477.345,1648.072 476.419,1646.468 475.000,1645.277 473.259,1644.644 471.407,1644.644 469.667,1645.277 468.248,1646.468 467.322,1648.072 467.000,1649.896 467.322,1651.720 468.248,1653.324 469.667,1654.515 471.407,1655.148 473.259,1655.148"/>
      <polygon points="114.413,1654.074 115.782,1653.040 116.685,1651.582 117.000,1649.896 116.685,1648.210 115.782,1646.752 114.413,1645.719 112.764,1645.249 111.056,1645.408 109.521,1646.172 108.366,1647.439 107.746,1649.039 107.746,1650.754 108.366,1652.353 109.521,1653.620 111.056,1654.385 112.764,1654.543"/>
      <polygon points="494.004,1653.929 495.420,1652.983 496.366,1651.567 496.698,1649.896 496.366,1648.226 495.420,1646.810 494.004,1645.864 492.333,1645.531 490.663,1645.864 489.247,1646.810 488.301,1648.226 487.969,1649.896 488.301,1651.567 489.247,1652.983 490.663,1653.929 492.333,1654.261"/>
      <polygon points="93.415,1653.225 94.675,1652.497 95.531,1651.320 95.833,1649.896 95.531,1648.473 94.675,1647.295 93.415,1646.567 91.967,1646.415 90.583,1646.865 89.502,1647.839 88.910,1649.168 88.910,1650.624 89.502,1651.953 90.583,1652.927 91.967,1653.377"/>
      <polygon points="514.267,1652.321 515.128,1651.242 515.435,1649.896 515.128,1648.550 514.267,1647.471 513.023,1646.872 511.643,1646.872 510.400,1647.471 509.539,1648.550 509.232,1649.896 509.539,1651.242 510.400,1652.321 511.643,1652.920 513.023,1652.920"/>
      <polygon points="73.333,1651.628 74.065,1650.896 74.333,1649.896 74.065,1648.896 73.333,1648.164 72.333,1647.896 71.333,1648.164 71.083,1648.414 71.083,1651.378 71.333,1651.628 72.333,1651.896"/>
      <polygon points="293.916,1677.511 295.912,1676.802 297.642,1675.580 298.979,1673.937 299.823,1671.995 300.111,1669.896 299.823,1667.798 298.979,1665.855 297.642,1664.212 295.912,1662.990 293.916,1662.281 291.803,1662.137 289.729,1662.567 287.848,1663.542 286.300,1664.988 285.199,1666.797 284.628,1668.837 284.628,1670.955 285.199,1672.995 286.300,1674.805 287.848,1676.250 289.729,1677.225 291.803,1677.656"/>
      <polygon points="313.905,1677.457 315.886,1676.753 317.605,1675.540 318.932,1673.909 319.770,1671.980 320.056,1669.896 319.770,1667.813 318.932,1665.884 317.605,1664.252 315.886,1663.039 313.905,1662.335 311.806,1662.191 309.747,1662.619 307.880,1663.587 306.343,1665.022 305.250,1666.819 304.682,1668.845 304.682,1670.948 305.250,1672.973 306.343,1674.770 307.880,1676.205 309.747,1677.173 311.806,1677.601"/>
      <polygon points="273.881,1677.346 275.834,1676.652 277.527,1675.457 278.835,1673.850 279.660,1671.949 279.943,1669.896 279.660,1667.843 278.835,1665.943 277.527,1664.335 275.834,1663.140 273.881,1662.446 271.814,1662.305 269.785,1662.726 267.945,1663.680 266.431,1665.094 265.354,1666.865 264.795,1668.860 264.795,1670.932 265.354,1672.928 266.431,1674.698 267.945,1676.113 269.785,1677.066 271.814,1677.488"/>
      <polygon points="333.870,1677.289 335.807,1676.600 337.487,1675.414 338.785,1673.819 339.604,1671.933 339.884,1669.896 339.604,1667.859 338.785,1665.973 337.487,1664.378 335.807,1663.192 333.870,1662.504 331.818,1662.363 329.805,1662.782 327.979,1663.728 326.476,1665.131 325.408,1666.888 324.853,1668.868 324.853,1670.924 325.408,1672.904 326.476,1674.661 327.979,1676.065 329.805,1677.011 331.818,1677.429"/>
      <polygon points="255.419,1676.653 257.198,1675.510 258.583,1673.912 259.461,1671.989 259.762,1669.896 259.461,1667.803 258.583,1665.880 257.198,1664.282 255.419,1663.139 253.391,1662.543 251.276,1662.543 249.247,1663.139 247.469,1664.282 246.084,1665.880 245.206,1667.803 244.905,1669.896 245.206,1671.989 246.084,1673.912 247.469,1675.510 249.247,1676.653 251.276,1677.249 253.391,1677.249"/>
      <polygon points="355.419,1676.653 357.198,1675.510 358.583,1673.912 359.461,1671.989 359.762,1669.896 359.461,1667.803 358.583,1665.880 357.198,1664.282 355.419,1663.139 353.391,1662.543 351.276,1662.543 349.247,1663.139 347.469,1664.282 346.084,1665.880 345.206,1667.803 344.905,1669.896 345.206,1671.989 346.084,1673.912 347.469,1675.510 349.247,1676.653 351.276,1677.249 353.391,1677.249"/>
      <polygon points="235.366,1676.537 237.114,1675.414 238.475,1673.843 239.338,1671.953 239.634,1669.896 239.338,1667.839 238.475,1665.949 237.114,1664.379 235.366,1663.255 233.372,1662.670 231.294,1662.670 229.300,1663.255 227.552,1664.379 226.192,1665.949 225.328,1667.839 225.033,1669.896 225.328,1671.953 226.192,1673.843 227.552,1675.414 229.300,1676.537 231.294,1677.123 233.372,1677.123"/>
      <polygon points="375.339,1676.477 377.071,1675.364 378.419,1673.807 379.275,1671.934 379.568,1669.896 379.275,1667.858 378.419,1665.985 377.071,1664.429 375.339,1663.315 373.363,1662.735 371.304,1662.735 369.328,1663.315 367.596,1664.429 366.247,1665.985 365.392,1667.858 365.099,1669.896 365.392,1671.934 366.247,1673.807 367.596,1675.364 369.328,1676.477 371.304,1677.057 373.363,1677.057"/>
      <polygon points="215.282,1676.352 216.981,1675.260 218.304,1673.733 219.143,1671.896 219.430,1669.896 219.143,1667.897 218.304,1666.059 216.981,1664.533 215.282,1663.440 213.343,1662.871 211.323,1662.871 209.385,1663.440 207.686,1664.533 206.363,1666.059 205.524,1667.897 205.236,1669.896 205.524,1671.896 206.363,1673.733 207.686,1675.260 209.385,1676.352 211.323,1676.921 213.343,1676.921"/>
      <polygon points="395.252,1676.287 396.934,1675.206 398.244,1673.695 399.074,1671.876 399.359,1669.896 399.074,1667.917 398.244,1666.098 396.934,1664.587 395.252,1663.505 393.333,1662.942 391.334,1662.942 389.415,1663.505 387.733,1664.587 386.423,1666.098 385.592,1667.917 385.308,1669.896 385.592,1671.876 386.423,1673.695 387.733,1675.206 389.415,1676.287 391.334,1676.850 393.333,1676.850"/>
      <polygon points="414.846,1676.298 416.621,1675.273 418.016,1673.770 418.905,1671.923 419.211,1669.896 418.905,1667.869 418.016,1666.022 416.621,1664.519 414.846,1663.494 412.847,1663.038 410.803,1663.191 408.895,1663.940 407.292,1665.219 406.137,1666.912 405.533,1668.871 405.533,1670.921 406.137,1672.880 407.292,1674.574 408.895,1675.852 410.803,1676.601 412.847,1676.754"/>
      <polygon points="194.846,1676.298 196.621,1675.273 198.016,1673.770 198.905,1671.923 199.211,1669.896 198.905,1667.869 198.016,1666.022 196.621,1664.519 194.846,1663.494 192.847,1663.038 190.803,1663.191 188.895,1663.940 187.292,1665.219 186.137,1666.912 185.533,1668.871 185.533,1670.921 186.137,1672.880 187.292,1674.574 188.895,1675.852 190.803,1676.601 192.847,1676.754"/>
      <polygon points="174.789,1676.152 176.524,1675.151 177.886,1673.682 178.755,1671.877 179.054,1669.896 178.755,1667.915 177.886,1666.110 176.524,1664.642 174.789,1663.640 172.836,1663.194 170.838,1663.344 168.973,1664.076 167.407,1665.325 166.278,1666.980 165.688,1668.895 165.688,1670.898 166.278,1672.812 167.407,1674.467 168.973,1675.716 170.838,1676.448 172.836,1676.598"/>
      <polygon points="434.759,1676.076 436.473,1675.087 437.819,1673.636 438.678,1671.853 438.973,1669.896 438.678,1667.939 437.819,1666.156 436.473,1664.705 434.759,1663.716 432.829,1663.275 430.856,1663.423 429.014,1664.146 427.466,1665.380 426.352,1667.015 425.768,1668.907 425.768,1670.886 426.352,1672.777 427.466,1674.412 429.014,1675.646 430.856,1676.369 432.829,1676.517"/>
      <polygon points="154.277,1675.878 156.030,1674.985 157.422,1673.593 158.315,1671.840 158.623,1669.896 158.315,1667.952 157.422,1666.199 156.030,1664.808 154.277,1663.914 152.333,1663.606 150.390,1663.914 148.636,1664.808 147.245,1666.199 146.351,1667.952 146.043,1669.896 146.351,1671.840 147.245,1673.593 148.636,1674.985 150.390,1675.878 152.333,1676.186"/>
      <polygon points="454.218,1675.697 455.919,1674.831 457.268,1673.481 458.134,1671.781 458.433,1669.896 458.134,1668.011 457.268,1666.311 455.919,1664.962 454.218,1664.095 452.333,1663.797 450.448,1664.095 448.748,1664.962 447.399,1666.311 446.532,1668.011 446.234,1669.896 446.532,1671.781 447.399,1673.481 448.748,1674.831 450.448,1675.697 452.333,1675.996"/>
      <polygon points="133.701,1675.296 135.380,1674.559 136.729,1673.317 137.601,1671.705 137.903,1669.896 137.601,1668.088 136.729,1666.475 135.380,1665.233 133.701,1664.497 131.873,1664.345 130.096,1664.795 128.561,1665.798 127.435,1667.245 126.839,1668.979 126.839,1670.813 127.435,1672.547 128.561,1673.994 130.096,1674.997 131.873,1675.447"/>
      <polygon points="475.000,1674.515 476.419,1673.324 477.345,1671.720 477.667,1669.896 477.345,1668.072 476.419,1666.468 475.000,1665.277 473.259,1664.644 471.407,1664.644 469.667,1665.277 468.248,1666.468 467.322,1668.072 467.000,1669.896 467.322,1671.720 468.248,1673.324 469.667,1674.515 471.407,1675.148 473.259,1675.148"/>
      <polygon points="114.413,1674.074 115.782,1673.040 116.685,1671.582 117.000,1669.896 116.685,1668.210 115.782,1666.752 114.413,1665.719 112.764,1665.249 111.056,1665.408 109.521,1666.172 108.366,1667.439 107.746,1669.039 107.746,1670.754 108.366,1672.353 109.521,1673.620 111.056,1674.385 112.764,1674.543"/>
      <polygon points="494.004,1673.929 495.420,1672.983 496.366,1671.567 496.698,1669.896 496.366,1668.226 495.420,1666.810 494.004,1665.864 492.333,1665.531 490.663,1665.864 489.247,1666.810 488.301,1668.226 487.969,1669.896 488.301,1671.567 489.247,1672.983 490.663,1673.929 492.333,1674.261"/>
      <polygon points="93.415,1673.225 94.675,1672.497 95.531,1671.320 95.833,1669.896 95.531,1668.473 94.675,1667.295 93.415,1666.567 91.967,1666.415 90.583,1666.865 89.502,1667.839 88.910,1669.168 88.910,1670.624 89.502,1671.953 90.583,1672.927 91.967,1673.377"/>
      <polygon points="514.267,1672.321 515.128,1671.242 515.435,1669.896 515.128,1668.550 514.267,1667.471 513.023,1666.872 511.643,1666.872 510.400,1667.471 509.539,1668.550 509.232,1669.896 509.539,1671.242 510.400,1672.321 511.643,1672.920 513.023,1672.920"/>
      <polygon points="73.333,1671.628 74.065,1670.896 74.333,1669.896 74.065,1668.896 73.333,1668.164 72.333,1667.896 71.333,1668.164 71.083,1668.414 71.083,1671.378 71.333,1671.628 72.333,1671.896"/>
    </g>
    <g stroke="#EF6C00" stroke-width="0.4" fill="none">
    </g>
  </g>
  <g stroke="#000000" stroke-width="0.4">
    <line x1="500.000" y1="1000.000" x2="1500.000" y2="1000.000"/>
  </g>
  <g stroke="#000000" stroke-width="0.4">
    <line x1="1000.000" y1="500.000" x2="1000.000" y2="1500.000"/>
  </g>
  <circle cx="1000.000" cy="1000.000" r="1000.000" stroke="red" stroke-width="1" fill="none"/>
  </g>
</svg>
