<?xml version="1.0" encoding="UTF-8"?>
<svg xmlns="http://www.w3.org/2000/svg" version="1.1" width="2000" height="2000">
  <g fill="none" stroke-linecap="round" stroke-linejoin="round">
  <text x="10" y="20" font-size="24" fill="#555">Layer 207 Z=53.400 mm</text>
  <g transform="translate(700.000,-602.229)">
    <g stroke="#2E7D32" stroke-width="0.4">
      <line x1="550.503" y1="1629.700" x2="500.503" y2="1629.700"/>
      <line x1="550.503" y1="1630.700" x2="500.503" y2="1630.700"/>
      <line x1="550.503" y1="1631.700" x2="500.503" y2="1631.700"/>
      <line x1="550.503" y1="1632.700" x2="500.503" y2="1632.700"/>
      <line x1="550.503" y1="1633.700" x2="500.503" y2="1633.700"/>
      <line x1="550.503" y1="1634.700" x2="500.503" y2="1634.700"/>
      <line x1="550.503" y1="1635.700" x2="500.503" y2="1635.700"/>
      <line x1="550.503" y1="1636.700" x2="500.503" y2="1636.700"/>
      <line x1="550.503" y1="1637.700" x2="500.503" y2="1637.700"/>
      <line x1="550.503" y1="1638.700" x2="500.503" y2="1638.700"/>
      <line x1="550.503" y1="1639.700" x2="500.503" y2="1639.700"/>
      <line x1="550.503" y1="1640.700" x2="500.503" y2="1640.700"/>
      <line x1="550.503" y1="1641.700" x2="500.503" y2="1641.700"/>
      <line x1="550.503" y1="1642.700" x2="500.503" y2="1642.700"/>
      <line x1="550.503" y1="1643.700" x2="500.503" y2="1643.700"/>
      <line x1="550.503" y1="1644.700" x2="500.503" y2="1644.700"/>
      <line x1="550.503" y1="1645.700" x2="500.503" y2="1645.700"/>
      <line x1="550.503" y1="1646.700" x2="500.503" y2="1646.700"/>
      <line x1="550.503" y1="1647.700" x2="500.503" y2="1647.700"/>
      <line x1="550.503" y1="1648.700" x2="500.503" y2="1648.700"/>
      <line x1="550.503" y1="1649.700" x2="500.503" y2="1649.700"/>
      <line x1="550.503" y1="1650.700" x2="500.503" y2="1650.700"/>
      <line x1="550.503" y1="1651.700" x2="500.503" y2="1651.700"/>
      <line x1="550.503" y1="1652.700" x2="500.503" y2="1652.700"/>
      <line x1="550.503" y1="1653.700" x2="500.503" y2="1653.700"/>
      <line x1="550.503" y1="1654.700" x2="500.503" y2="1654.700"/>
      <line x1="550.503" y1="1655.700" x2="500.503" y2="1655.700"/>
      <line x1="550.503" y1="1656.700" x2="500.503" y2="1656.700"/>
      <line x1="550.503" y1="1657.700" x2="500.503" y2="1657.700"/>
      <line x1="550.503" y1="1658.700" x2="500.503" y2="1658.700"/>
      <line x1="550.503" y1="1659.700" x2="500.503" y2="1659.700"/>
      <line x1="550.503" y1="1660.700" x2="500.503" y2="1660.700"/>
      <line x1="550.503" y1="1661.700" x2="500.503" y2="1661.700"/>
      <line x1="550.503" y1="1662.700" x2="500.503" y2="1662.700"/>
      <line x1="550.503" y1="1663.700" x2="500.503" y2="1663.700"/>
      <line x1="550.503" y1="1664.700" x2="500.503" y2="1664.700"/>
      <line x1="550.503" y1="1665.700" x2="500.503" y2="1665.700"/>
      <line x1="550.503" y1="1666.700" x2="500.503" y2="1666.700"/>
      <line x1="550.503" y1="1667.700" x2="500.503" y2="1667.700"/>
      <line x1="550.503" y1="1668.700" x2="500.503" y2="1668.700"/>
      <line x1="550.503" y1="1669.700" x2="500.503" y2="1669.700"/>
      <line x1="550.503" y1="1670.700" x2="500.503" y2="1670.700"/>
      <line x1="550.503" y1="1671.700" x2="500.503" y2="1671.700"/>
      <line x1="550.503" y1="1672.700" x2="500.503" y2="1672.700"/>
      <line x1="550.503" y1="1673.700" x2="500.503" y2="1673.700"/>
      <line x1="550.503" y1="1674.700" x2="500.503" y2="1674.700"/>
      <line x1="550.503" y1="1675.700" x2="500.503" y2="1675.700"/>
      <line x1="550.503" y1="1676.700" x2="500.503" y2="1676.700"/>
      <line x1="550.503" y1="1677.700" x2="500.503" y2="1677.700"/>
      <line x1="550.503" y1="1678.700" x2="500.503" y2="1678.700"/>
      <line x1="597.000" y1="1629.700" x2="550.603" y2="1629.700"/>
      <line x1="597.000" y1="1630.700" x2="550.603" y2="1630.700"/>
      <line x1="597.000" y1="1631.700" x2="550.603" y2="1631.700"/>
      <line x1="597.000" y1="1632.700" x2="550.603" y2="1632.700"/>
      <line x1="597.000" y1="1633.700" x2="550.603" y2="1633.700"/>
      <line x1="597.000" y1="1634.700" x2="550.603" y2="1634.700"/>
      <line x1="597.000" y1="1635.700" x2="550.603" y2="1635.700"/>
      <line x1="597.000" y1="1636.700" x2="550.603" y2="1636.700"/>
      <line x1="597.000" y1="1637.700" x2="550.603" y2="1637.700"/>
      <line x1="597.000" y1="1638.700" x2="550.603" y2="1638.700"/>
      <line x1="597.000" y1="1639.700" x2="550.603" y2="1639.700"/>
      <line x1="597.000" y1="1640.700" x2="550.603" y2="1640.700"/>
      <line x1="597.000" y1="1641.700" x2="550.603" y2="1641.700"/>
      <line x1="597.000" y1="1642.700" x2="550.603" y2="1642.700"/>
      <line x1="597.000" y1="1643.700" x2="550.603" y2="1643.700"/>
      <line x1="597.000" y1="1644.700" x2="550.603" y2="1644.700"/>
      <line x1="597.000" y1="1645.700" x2="550.603" y2="1645.700"/>
      <line x1="597.000" y1="1646.700" x2="550.603" y2="1646.700"/>
      <line x1="597.000" y1="1647.700" x2="550.603" y2="1647.700"/>
      <line x1="597.000" y1="1648.700" x2="550.603" y2="1648.700"/>
      <line x1="597.000" y1="1649.700" x2="550.603" y2="1649.700"/>
      <line x1="597.000" y1="1650.700" x2="550.603" y2="1650.700"/>
      <line x1="597.000" y1="1651.700" x2="550.603" y2="1651.700"/>
      <line x1="597.000" y1="1652.700" x2="550.603" y2="1652.700"/>
      <line x1="597.000" y1="1653.700" x2="550.603" y2="1653.700"/>
      <line x1="597.000" y1="1654.700" x2="550.603" y2="1654.700"/>
      <line x1="597.000" y1="1655.700" x2="550.603" y2="1655.700"/>
      <line x1="597.000" y1="1656.700" x2="550.603" y2="1656.700"/>
      <line x1="597.000" y1="1657.700" x2="550.603" y2="1657.700"/>
      <line x1="597.000" y1="1658.700" x2="550.603" y2="1658.700"/>
      <line x1="597.000" y1="1659.700" x2="550.603" y2="1659.700"/>
      <line x1="597.000" y1="1660.700" x2="550.603" y2="1660.700"/>
      <line x1="597.000" y1="1661.700" x2="550.603" y2="1661.700"/>
      <line x1="597.000" y1="1662.700" x2="550.603" y2="1662.700"/>
      <line x1="597.000" y1="1663.700" x2="550.603" y2="1663.700"/>
      <line x1="597.000" y1="1664.700" x2="550.603" y2="1664.700"/>
      <line x1="597.000" y1="1665.700" x2="550.603" y2="1665.700"/>
      <line x1="597.000" y1="1666.700" x2="550.603" y2="1666.700"/>
      <line x1="597.000" y1="1667.700" x2="550.603" y2="1667.700"/>
      <line x1="597.000" y1="1668.700" x2="550.603" y2="1668.700"/>
      <line x1="597.000" y1="1669.700" x2="550.603" y2="1669.700"/>
      <line x1="597.000" y1="1670.700" x2="550.603" y2="1670.700"/>
      <line x1="597.000" y1="1671.700" x2="550.603" y2="1671.700"/>
      <line x1="597.000" y1="1672.700" x2="550.603" y2="1672.700"/>
      <line x1="597.000" y1="1673.700" x2="550.603" y2="1673.700"/>
      <line x1="597.000" y1="1674.700" x2="550.603" y2="1674.700"/>
      <line x1="597.000" y1="1675.700" x2="550.603" y2="1675.700"/>
      <line x1="597.000" y1="1676.700" x2="550.603" y2="1676.700"/>
      <line x1="597.000" y1="1677.700" x2="550.603" y2="1677.700"/>
      <line x1="597.000" y1="1678.700" x2="550.603" y2="1678.700"/>
      <line x1="550.503" y1="1579.700" x2="500.503" y2="1579.700"/>
      <line x1="550.503" y1="1580.700" x2="500.503" y2="1580.700"/>
      <line x1="550.503" y1="1581.700" x2="500.503" y2="1581.700"/>
      <line x1="550.503" y1="1582.700" x2="500.503" y2="1582.700"/>
      <line x1="550.503" y1="1583.700" x2="500.503" y2="1583.700"/>
      <line x1="550.503" y1="1584.700" x2="500.503" y2="1584.700"/>
      <line x1="550.503" y1="1585.700" x2="500.503" y2="1585.700"/>
      <line x1="550.503" y1="1586.700" x2="500.503" y2="1586.700"/>
      <line x1="550.503" y1="1587.700" x2="500.503" y2="1587.700"/>
      <line x1="550.503" y1="1588.700" x2="500.503" y2="1588.700"/>
      <line x1="550.503" y1="1589.700" x2="500.503" y2="1589.700"/>
      <line x1="550.503" y1="1590.700" x2="500.503" y2="1590.700"/>
      <line x1="550.503" y1="1591.700" x2="500.503" y2="1591.700"/>
      <line x1="550.503" y1="1592.700" x2="500.503" y2="1592.700"/>
      <line x1="550.503" y1="1593.700" x2="500.503" y2="1593.700"/>
      <line x1="550.503" y1="1594.700" x2="500.503" y2="1594.700"/>
      <line x1="550.503" y1="1595.700" x2="500.503" y2="1595.700"/>
      <line x1="550.503" y1="1596.700" x2="500.503" y2="1596.700"/>
      <line x1="550.503" y1="1597.700" x2="500.503" y2="1597.700"/>
      <line x1="550.503" y1="1598.700" x2="500.503" y2="1598.700"/>
      <line x1="550.503" y1="1599.700" x2="500.503" y2="1599.700"/>
      <line x1="550.503" y1="1600.700" x2="500.503" y2="1600.700"/>
      <line x1="550.503" y1="1601.700" x2="500.503" y2="1601.700"/>
      <line x1="550.503" y1="1602.700" x2="500.503" y2="1602.700"/>
      <line x1="550.503" y1="1603.700" x2="500.503" y2="1603.700"/>
      <line x1="550.503" y1="1604.700" x2="500.503" y2="1604.700"/>
      <line x1="550.503" y1="1605.700" x2="500.503" y2="1605.700"/>
      <line x1="550.503" y1="1606.700" x2="500.503" y2="1606.700"/>
      <line x1="550.503" y1="1607.700" x2="500.503" y2="1607.700"/>
      <line x1="550.503" y1="1608.700" x2="500.503" y2="1608.700"/>
      <line x1="550.503" y1="1609.700" x2="500.503" y2="1609.700"/>
      <line x1="550.503" y1="1610.700" x2="500.503" y2="1610.700"/>
      <line x1="550.503" y1="1611.700" x2="500.503" y2="1611.700"/>
      <line x1="550.503" y1="1612.700" x2="500.503" y2="1612.700"/>
      <line x1="550.503" y1="1613.700" x2="500.503" y2="1613.700"/>
      <line x1="550.503" y1="1614.700" x2="500.503" y2="1614.700"/>
      <line x1="550.503" y1="1615.700" x2="500.503" y2="1615.700"/>
      <line x1="550.503" y1="1616.700" x2="500.503" y2="1616.700"/>
      <line x1="550.503" y1="1617.700" x2="500.503" y2="1617.700"/>
      <line x1="550.503" y1="1618.700" x2="500.503" y2="1618.700"/>
      <line x1="550.503" y1="1619.700" x2="500.503" y2="1619.700"/>
      <line x1="550.503" y1="1620.700" x2="500.503" y2="1620.700"/>
      <line x1="550.503" y1="1621.700" x2="500.503" y2="1621.700"/>
      <line x1="550.503" y1="1622.700" x2="500.503" y2="1622.700"/>
      <line x1="550.503" y1="1623.700" x2="500.503" y2="1623.700"/>
      <line x1="550.503" y1="1624.700" x2="500.503" y2="1624.700"/>
      <line x1="550.503" y1="1625.700" x2="500.503" y2="1625.700"/>
      <line x1="550.503" y1="1626.700" x2="500.503" y2="1626.700"/>
      <line x1="550.503" y1="1627.700" x2="500.503" y2="1627.700"/>
      <line x1="550.503" y1="1628.700" x2="500.503" y2="1628.700"/>
      <line x1="597.000" y1="1579.700" x2="550.603" y2="1579.700"/>
      <line x1="597.000" y1="1580.700" x2="550.603" y2="1580.700"/>
      <line x1="597.000" y1="1581.700" x2="550.603" y2="1581.700"/>
      <line x1="597.000" y1="1582.700" x2="550.603" y2="1582.700"/>
      <line x1="597.000" y1="1583.700" x2="550.603" y2="1583.700"/>
      <line x1="597.000" y1="1584.700" x2="550.603" y2="1584.700"/>
      <line x1="597.000" y1="1585.700" x2="550.603" y2="1585.700"/>
      <line x1="597.000" y1="1586.700" x2="550.603" y2="1586.700"/>
      <line x1="597.000" y1="1587.700" x2="550.603" y2="1587.700"/>
      <line x1="597.000" y1="1588.700" x2="550.603" y2="1588.700"/>
      <line x1="597.000" y1="1589.700" x2="550.603" y2="1589.700"/>
      <line x1="597.000" y1="1590.700" x2="550.603" y2="1590.700"/>
      <line x1="597.000" y1="1591.700" x2="550.603" y2="1591.700"/>
      <line x1="597.000" y1="1592.700" x2="550.603" y2="1592.700"/>
      <line x1="597.000" y1="1593.700" x2="550.603" y2="1593.700"/>
      <line x1="597.000" y1="1594.700" x2="550.603" y2="1594.700"/>
      <line x1="597.000" y1="1595.700" x2="550.603" y2="1595.700"/>
      <line x1="597.000" y1="1596.700" x2="550.603" y2="1596.700"/>
      <line x1="597.000" y1="1597.700" x2="550.603" y2="1597.700"/>
      <line x1="597.000" y1="1598.700" x2="550.603" y2="1598.700"/>
      <line x1="597.000" y1="1599.700" x2="550.603" y2="1599.700"/>
      <line x1="597.000" y1="1600.700" x2="550.603" y2="1600.700"/>
      <line x1="597.000" y1="1601.700" x2="550.603" y2="1601.700"/>
      <line x1="597.000" y1="1602.700" x2="550.603" y2="1602.700"/>
      <line x1="597.000" y1="1603.700" x2="550.603" y2="1603.700"/>
      <line x1="597.000" y1="1604.700" x2="550.603" y2="1604.700"/>
      <line x1="597.000" y1="1605.700" x2="550.603" y2="1605.700"/>
      <line x1="597.000" y1="1606.700" x2="550.603" y2="1606.700"/>
      <line x1="597.000" y1="1607.700" x2="550.603" y2="1607.700"/>
      <line x1="597.000" y1="1608.700" x2="550.603" y2="1608.700"/>
      <line x1="597.000" y1="1609.700" x2="550.603" y2="1609.700"/>
      <line x1="597.000" y1="1610.700" x2="550.603" y2="1610.700"/>
      <line x1="597.000" y1="1611.700" x2="550.603" y2="1611.700"/>
      <line x1="597.000" y1="1612.700" x2="550.603" y2="1612.700"/>
      <line x1="597.000" y1="1613.700" x2="550.603" y2="1613.700"/>
      <line x1="597.000" y1="1614.700" x2="550.603" y2="1614.700"/>
      <line x1="597.000" y1="1615.700" x2="550.603" y2="1615.700"/>
      <line x1="597.000" y1="1616.700" x2="550.603" y2="1616.700"/>
      <line x1="597.000" y1="1617.700" x2="550.603" y2="1617.700"/>
      <line x1="597.000" y1="1618.700" x2="550.603" y2="1618.700"/>
      <line x1="597.000" y1="1619.700" x2="550.603" y2="1619.700"/>
      <line x1="597.000" y1="1620.700" x2="550.603" y2="1620.700"/>
      <line x1="597.000" y1="1621.700" x2="550.603" y2="1621.700"/>
      <line x1="597.000" y1="1622.700" x2="550.603" y2="1622.700"/>
      <line x1="597.000" y1="1623.700" x2="550.603" y2="1623.700"/>
      <line x1="597.000" y1="1624.700" x2="550.603" y2="1624.700"/>
      <line x1="597.000" y1="1625.700" x2="550.603" y2="1625.700"/>
      <line x1="597.000" y1="1626.700" x2="550.603" y2="1626.700"/>
      <line x1="597.000" y1="1627.700" x2="550.603" y2="1627.700"/>
      <line x1="597.000" y1="1628.700" x2="550.603" y2="1628.700"/>
      <line x1="550.503" y1="1529.700" x2="500.503" y2="1529.700"/>
      <line x1="550.503" y1="1530.700" x2="500.503" y2="1530.700"/>
      <line x1="550.503" y1="1531.700" x2="500.503" y2="1531.700"/>
      <line x1="550.503" y1="1532.700" x2="500.503" y2="1532.700"/>
      <line x1="550.503" y1="1533.700" x2="500.503" y2="1533.700"/>
      <line x1="550.503" y1="1534.700" x2="500.503" y2="1534.700"/>
      <line x1="550.503" y1="1535.700" x2="500.503" y2="1535.700"/>
      <line x1="550.503" y1="1536.700" x2="500.503" y2="1536.700"/>
      <line x1="550.503" y1="1537.700" x2="500.503" y2="1537.700"/>
      <line x1="550.503" y1="1538.700" x2="500.503" y2="1538.700"/>
      <line x1="550.503" y1="1539.700" x2="500.503" y2="1539.700"/>
      <line x1="550.503" y1="1540.700" x2="500.503" y2="1540.700"/>
      <line x1="550.503" y1="1541.700" x2="500.503" y2="1541.700"/>
      <line x1="550.503" y1="1542.700" x2="500.503" y2="1542.700"/>
      <line x1="550.503" y1="1543.700" x2="500.503" y2="1543.700"/>
      <line x1="550.503" y1="1544.700" x2="500.503" y2="1544.700"/>
      <line x1="550.503" y1="1545.700" x2="500.503" y2="1545.700"/>
      <line x1="550.503" y1="1546.700" x2="500.503" y2="1546.700"/>
      <line x1="550.503" y1="1547.700" x2="500.503" y2="1547.700"/>
      <line x1="550.503" y1="1548.700" x2="500.503" y2="1548.700"/>
      <line x1="550.503" y1="1549.700" x2="500.503" y2="1549.700"/>
      <line x1="550.503" y1="1550.700" x2="500.503" y2="1550.700"/>
      <line x1="550.503" y1="1551.700" x2="500.503" y2="1551.700"/>
      <line x1="550.503" y1="1552.700" x2="500.503" y2="1552.700"/>
      <line x1="550.503" y1="1553.700" x2="500.503" y2="1553.700"/>
      <line x1="550.503" y1="1554.700" x2="500.503" y2="1554.700"/>
      <line x1="550.503" y1="1555.700" x2="500.503" y2="1555.700"/>
      <line x1="550.503" y1="1556.700" x2="500.503" y2="1556.700"/>
      <line x1="550.503" y1="1557.700" x2="500.503" y2="1557.700"/>
      <line x1="550.503" y1="1558.700" x2="500.503" y2="1558.700"/>
      <line x1="550.503" y1="1559.700" x2="500.503" y2="1559.700"/>
      <line x1="550.503" y1="1560.700" x2="500.503" y2="1560.700"/>
      <line x1="550.503" y1="1561.700" x2="500.503" y2="1561.700"/>
      <line x1="550.503" y1="1562.700" x2="500.503" y2="1562.700"/>
      <line x1="550.503" y1="1563.700" x2="500.503" y2="1563.700"/>
      <line x1="550.503" y1="1564.700" x2="500.503" y2="1564.700"/>
      <line x1="550.503" y1="1565.700" x2="500.503" y2="1565.700"/>
      <line x1="550.503" y1="1566.700" x2="500.503" y2="1566.700"/>
      <line x1="550.503" y1="1567.700" x2="500.503" y2="1567.700"/>
      <line x1="550.503" y1="1568.700" x2="500.503" y2="1568.700"/>
      <line x1="550.503" y1="1569.700" x2="500.503" y2="1569.700"/>
      <line x1="550.503" y1="1570.700" x2="500.503" y2="1570.700"/>
      <line x1="550.503" y1="1571.700" x2="500.503" y2="1571.700"/>
      <line x1="550.503" y1="1572.700" x2="500.503" y2="1572.700"/>
      <line x1="550.503" y1="1573.700" x2="500.503" y2="1573.700"/>
      <line x1="550.503" y1="1574.700" x2="500.503" y2="1574.700"/>
      <line x1="550.503" y1="1575.700" x2="500.503" y2="1575.700"/>
      <line x1="550.503" y1="1576.700" x2="500.503" y2="1576.700"/>
      <line x1="550.503" y1="1577.700" x2="500.503" y2="1577.700"/>
      <line x1="550.503" y1="1578.700" x2="500.503" y2="1578.700"/>
      <line x1="597.000" y1="1529.700" x2="550.603" y2="1529.700"/>
      <line x1="597.000" y1="1530.700" x2="550.603" y2="1530.700"/>
      <line x1="597.000" y1="1531.700" x2="550.603" y2="1531.700"/>
      <line x1="597.000" y1="1532.700" x2="550.603" y2="1532.700"/>
      <line x1="597.000" y1="1533.700" x2="550.603" y2="1533.700"/>
      <line x1="597.000" y1="1534.700" x2="550.603" y2="1534.700"/>
      <line x1="597.000" y1="1535.700" x2="550.603" y2="1535.700"/>
      <line x1="597.000" y1="1536.700" x2="550.603" y2="1536.700"/>
      <line x1="597.000" y1="1537.700" x2="550.603" y2="1537.700"/>
      <line x1="597.000" y1="1538.700" x2="550.603" y2="1538.700"/>
      <line x1="597.000" y1="1539.700" x2="550.603" y2="1539.700"/>
      <line x1="597.000" y1="1540.700" x2="550.603" y2="1540.700"/>
      <line x1="597.000" y1="1541.700" x2="550.603" y2="1541.700"/>
      <line x1="597.000" y1="1542.700" x2="550.603" y2="1542.700"/>
      <line x1="597.000" y1="1543.700" x2="550.603" y2="1543.700"/>
      <line x1="597.000" y1="1544.700" x2="550.603" y2="1544.700"/>
      <line x1="597.000" y1="1545.700" x2="550.603" y2="1545.700"/>
      <line x1="597.000" y1="1546.700" x2="550.603" y2="1546.700"/>
      <line x1="597.000" y1="1547.700" x2="550.603" y2="1547.700"/>
      <line x1="597.000" y1="1548.700" x2="550.603" y2="1548.700"/>
      <line x1="597.000" y1="1549.700" x2="550.603" y2="1549.700"/>
      <line x1="597.000" y1="1550.700" x2="550.603" y2="1550.700"/>
      <line x1="597.000" y1="1551.700" x2="550.603" y2="1551.700"/>
      <line x1="597.000" y1="1552.700" x2="550.603" y2="1552.700"/>
      <line x1="597.000" y1="1553.700" x2="550.603" y2="1553.700"/>
      <line x1="597.000" y1="1554.700" x2="550.603" y2="1554.700"/>
      <line x1="597.000" y1="1555.700" x2="550.603" y2="1555.700"/>
      <line x1="597.000" y1="1556.700" x2="550.603" y2="1556.700"/>
      <line x1="597.000" y1="1557.700" x2="550.603" y2="1557.700"/>
      <line x1="597.000" y1="1558.700" x2="550.603" y2="1558.700"/>
      <line x1="597.000" y1="1559.700" x2="550.603" y2="1559.700"/>
      <line x1="597.000" y1="1560.700" x2="550.603" y2="1560.700"/>
      <line x1="597.000" y1="1561.700" x2="550.603" y2="1561.700"/>
      <line x1="597.000" y1="1562.700" x2="550.603" y2="1562.700"/>
      <line x1="597.000" y1="1563.700" x2="550.603" y2="1563.700"/>
      <line x1="597.000" y1="1564.700" x2="550.603" y2="1564.700"/>
      <line x1="597.000" y1="1565.700" x2="550.603" y2="1565.700"/>
      <line x1="597.000" y1="1566.700" x2="550.603" y2="1566.700"/>
      <line x1="597.000" y1="1567.700" x2="550.603" y2="1567.700"/>
      <line x1="597.000" y1="1568.700" x2="550.603" y2="1568.700"/>
      <line x1="597.000" y1="1569.700" x2="550.603" y2="1569.700"/>
      <line x1="597.000" y1="1570.700" x2="550.603" y2="1570.700"/>
      <line x1="597.000" y1="1571.700" x2="550.603" y2="1571.700"/>
      <line x1="597.000" y1="1572.700" x2="550.603" y2="1572.700"/>
      <line x1="597.000" y1="1573.700" x2="550.603" y2="1573.700"/>
      <line x1="597.000" y1="1574.700" x2="550.603" y2="1574.700"/>
      <line x1="597.000" y1="1575.700" x2="550.603" y2="1575.700"/>
      <line x1="597.000" y1="1576.700" x2="550.603" y2="1576.700"/>
      <line x1="597.000" y1="1577.700" x2="550.603" y2="1577.700"/>
      <line x1="597.000" y1="1578.700" x2="550.603" y2="1578.700"/>
      <line x1="550.503" y1="1525.700" x2="500.503" y2="1525.700"/>
      <line x1="550.503" y1="1526.700" x2="500.503" y2="1526.700"/>
      <line x1="550.503" y1="1527.700" x2="500.503" y2="1527.700"/>
      <line x1="550.503" y1="1528.700" x2="500.503" y2="1528.700"/>
      <line x1="597.000" y1="1525.700" x2="550.603" y2="1525.700"/>
      <line x1="597.000" y1="1526.700" x2="550.603" y2="1526.700"/>
      <line x1="597.000" y1="1527.700" x2="550.603" y2="1527.700"/>
      <line x1="597.000" y1="1528.700" x2="550.603" y2="1528.700"/>
      <line x1="53.000" y1="1629.700" x2="3.000" y2="1629.700"/>
      <line x1="53.000" y1="1630.700" x2="3.000" y2="1630.700"/>
      <line x1="53.000" y1="1631.700" x2="3.000" y2="1631.700"/>
      <line x1="53.000" y1="1632.700" x2="3.000" y2="1632.700"/>
      <line x1="53.000" y1="1633.700" x2="3.000" y2="1633.700"/>
      <line x1="53.000" y1="1634.700" x2="3.000" y2="1634.700"/>
      <line x1="53.000" y1="1635.700" x2="3.000" y2="1635.700"/>
      <line x1="53.000" y1="1636.700" x2="3.000" y2="1636.700"/>
      <line x1="53.000" y1="1637.700" x2="3.000" y2="1637.700"/>
      <line x1="53.000" y1="1638.700" x2="3.000" y2="1638.700"/>
      <line x1="53.000" y1="1639.700" x2="3.000" y2="1639.700"/>
      <line x1="53.000" y1="1640.700" x2="3.000" y2="1640.700"/>
      <line x1="53.000" y1="1641.700" x2="3.000" y2="1641.700"/>
      <line x1="53.000" y1="1642.700" x2="3.000" y2="1642.700"/>
      <line x1="53.000" y1="1643.700" x2="3.000" y2="1643.700"/>
      <line x1="53.000" y1="1644.700" x2="3.000" y2="1644.700"/>
      <line x1="53.000" y1="1645.700" x2="3.000" y2="1645.700"/>
      <line x1="53.000" y1="1646.700" x2="3.000" y2="1646.700"/>
      <line x1="53.000" y1="1647.700" x2="3.000" y2="1647.700"/>
      <line x1="53.000" y1="1648.700" x2="3.000" y2="1648.700"/>
      <line x1="53.000" y1="1649.700" x2="3.000" y2="1649.700"/>
      <line x1="53.000" y1="1650.700" x2="3.000" y2="1650.700"/>
      <line x1="53.000" y1="1651.700" x2="3.000" y2="1651.700"/>
      <line x1="53.000" y1="1652.700" x2="3.000" y2="1652.700"/>
      <line x1="53.000" y1="1653.700" x2="3.000" y2="1653.700"/>
      <line x1="53.000" y1="1654.700" x2="3.000" y2="1654.700"/>
      <line x1="53.000" y1="1655.700" x2="3.000" y2="1655.700"/>
      <line x1="53.000" y1="1656.700" x2="3.000" y2="1656.700"/>
      <line x1="53.000" y1="1657.700" x2="3.000" y2="1657.700"/>
      <line x1="53.000" y1="1658.700" x2="3.000" y2="1658.700"/>
      <line x1="53.000" y1="1659.700" x2="3.000" y2="1659.700"/>
      <line x1="53.000" y1="1660.700" x2="3.000" y2="1660.700"/>
      <line x1="53.000" y1="1661.700" x2="3.000" y2="1661.700"/>
      <line x1="53.000" y1="1662.700" x2="3.000" y2="1662.700"/>
      <line x1="53.000" y1="1663.700" x2="3.000" y2="1663.700"/>
      <line x1="53.000" y1="1664.700" x2="3.000" y2="1664.700"/>
      <line x1="53.000" y1="1665.700" x2="3.000" y2="1665.700"/>
      <line x1="53.000" y1="1666.700" x2="3.000" y2="1666.700"/>
      <line x1="53.000" y1="1667.700" x2="3.000" y2="1667.700"/>
      <line x1="53.000" y1="1668.700" x2="3.000" y2="1668.700"/>
      <line x1="53.000" y1="1669.700" x2="3.000" y2="1669.700"/>
      <line x1="53.000" y1="1670.700" x2="3.000" y2="1670.700"/>
      <line x1="53.000" y1="1671.700" x2="3.000" y2="1671.700"/>
      <line x1="53.000" y1="1672.700" x2="3.000" y2="1672.700"/>
      <line x1="53.000" y1="1673.700" x2="3.000" y2="1673.700"/>
      <line x1="53.000" y1="1674.700" x2="3.000" y2="1674.700"/>
      <line x1="53.000" y1="1675.700" x2="3.000" y2="1675.700"/>
      <line x1="53.000" y1="1676.700" x2="3.000" y2="1676.700"/>
      <line x1="53.000" y1="1677.700" x2="3.000" y2="1677.700"/>
      <line x1="53.000" y1="1678.700" x2="3.000" y2="1678.700"/>
      <line x1="99.497" y1="1629.700" x2="53.100" y2="1629.700"/>
      <line x1="99.497" y1="1630.700" x2="53.100" y2="1630.700"/>
      <line x1="99.497" y1="1631.700" x2="53.100" y2="1631.700"/>
      <line x1="99.497" y1="1632.700" x2="53.100" y2="1632.700"/>
      <line x1="99.497" y1="1633.700" x2="53.100" y2="1633.700"/>
      <line x1="99.497" y1="1634.700" x2="53.100" y2="1634.700"/>
      <line x1="99.497" y1="1635.700" x2="53.100" y2="1635.700"/>
      <line x1="99.497" y1="1636.700" x2="53.100" y2="1636.700"/>
      <line x1="99.497" y1="1637.700" x2="53.100" y2="1637.700"/>
      <line x1="99.497" y1="1638.700" x2="53.100" y2="1638.700"/>
      <line x1="99.497" y1="1639.700" x2="53.100" y2="1639.700"/>
      <line x1="99.497" y1="1640.700" x2="53.100" y2="1640.700"/>
      <line x1="99.497" y1="1641.700" x2="53.100" y2="1641.700"/>
      <line x1="99.497" y1="1642.700" x2="53.100" y2="1642.700"/>
      <line x1="99.497" y1="1643.700" x2="53.100" y2="1643.700"/>
      <line x1="99.497" y1="1644.700" x2="53.100" y2="1644.700"/>
      <line x1="99.497" y1="1645.700" x2="53.100" y2="1645.700"/>
      <line x1="99.497" y1="1646.700" x2="53.100" y2="1646.700"/>
      <line x1="99.497" y1="1647.700" x2="53.100" y2="1647.700"/>
      <line x1="99.497" y1="1648.700" x2="53.100" y2="1648.700"/>
      <line x1="99.497" y1="1649.700" x2="53.100" y2="1649.700"/>
      <line x1="99.497" y1="1650.700" x2="53.100" y2="1650.700"/>
      <line x1="99.497" y1="1651.700" x2="53.100" y2="1651.700"/>
      <line x1="99.497" y1="1652.700" x2="53.100" y2="1652.700"/>
      <line x1="99.497" y1="1653.700" x2="53.100" y2="1653.700"/>
      <line x1="99.497" y1="1654.700" x2="53.100" y2="1654.700"/>
      <line x1="99.497" y1="1655.700" x2="53.100" y2="1655.700"/>
      <line x1="99.497" y1="1656.700" x2="53.100" y2="1656.700"/>
      <line x1="99.497" y1="1657.700" x2="53.100" y2="1657.700"/>
      <line x1="99.497" y1="1658.700" x2="53.100" y2="1658.700"/>
      <line x1="99.497" y1="1659.700" x2="53.100" y2="1659.700"/>
      <line x1="99.497" y1="1660.700" x2="53.100" y2="1660.700"/>
      <line x1="99.497" y1="1661.700" x2="53.100" y2="1661.700"/>
      <line x1="99.497" y1="1662.700" x2="53.100" y2="1662.700"/>
      <line x1="99.497" y1="1663.700" x2="53.100" y2="1663.700"/>
      <line x1="99.497" y1="1664.700" x2="53.100" y2="1664.700"/>
      <line x1="99.497" y1="1665.700" x2="53.100" y2="1665.700"/>
      <line x1="99.497" y1="1666.700" x2="53.100" y2="1666.700"/>
      <line x1="99.497" y1="1667.700" x2="53.100" y2="1667.700"/>
      <line x1="99.497" y1="1668.700" x2="53.100" y2="1668.700"/>
      <line x1="99.497" y1="1669.700" x2="53.100" y2="1669.700"/>
      <line x1="99.497" y1="1670.700" x2="53.100" y2="1670.700"/>
      <line x1="99.497" y1="1671.700" x2="53.100" y2="1671.700"/>
      <line x1="99.497" y1="1672.700" x2="53.100" y2="1672.700"/>
      <line x1="99.497" y1="1673.700" x2="53.100" y2="1673.700"/>
      <line x1="99.497" y1="1674.700" x2="53.100" y2="1674.700"/>
      <line x1="99.497" y1="1675.700" x2="53.100" y2="1675.700"/>
      <line x1="99.497" y1="1676.700" x2="53.100" y2="1676.700"/>
      <line x1="99.497" y1="1677.700" x2="53.100" y2="1677.700"/>
      <line x1="99.497" y1="1678.700" x2="53.100" y2="1678.700"/>
      <line x1="53.000" y1="1579.700" x2="3.000" y2="1579.700"/>
      <line x1="53.000" y1="1580.700" x2="3.000" y2="1580.700"/>
      <line x1="53.000" y1="1581.700" x2="3.000" y2="1581.700"/>
      <line x1="53.000" y1="1582.700" x2="3.000" y2="1582.700"/>
      <line x1="53.000" y1="1583.700" x2="3.000" y2="1583.700"/>
      <line x1="53.000" y1="1584.700" x2="3.000" y2="1584.700"/>
      <line x1="53.000" y1="1585.700" x2="3.000" y2="1585.700"/>
      <line x1="53.000" y1="1586.700" x2="3.000" y2="1586.700"/>
      <line x1="53.000" y1="1587.700" x2="3.000" y2="1587.700"/>
      <line x1="53.000" y1="1588.700" x2="3.000" y2="1588.700"/>
      <line x1="53.000" y1="1589.700" x2="3.000" y2="1589.700"/>
      <line x1="53.000" y1="1590.700" x2="3.000" y2="1590.700"/>
      <line x1="53.000" y1="1591.700" x2="3.000" y2="1591.700"/>
      <line x1="53.000" y1="1592.700" x2="3.000" y2="1592.700"/>
      <line x1="53.000" y1="1593.700" x2="3.000" y2="1593.700"/>
      <line x1="53.000" y1="1594.700" x2="3.000" y2="1594.700"/>
      <line x1="53.000" y1="1595.700" x2="3.000" y2="1595.700"/>
      <line x1="53.000" y1="1596.700" x2="3.000" y2="1596.700"/>
      <line x1="53.000" y1="1597.700" x2="3.000" y2="1597.700"/>
      <line x1="53.000" y1="1598.700" x2="3.000" y2="1598.700"/>
      <line x1="53.000" y1="1599.700" x2="3.000" y2="1599.700"/>
      <line x1="53.000" y1="1600.700" x2="3.000" y2="1600.700"/>
      <line x1="53.000" y1="1601.700" x2="3.000" y2="1601.700"/>
      <line x1="53.000" y1="1602.700" x2="3.000" y2="1602.700"/>
      <line x1="53.000" y1="1603.700" x2="3.000" y2="1603.700"/>
      <line x1="53.000" y1="1604.700" x2="3.000" y2="1604.700"/>
      <line x1="53.000" y1="1605.700" x2="3.000" y2="1605.700"/>
      <line x1="53.000" y1="1606.700" x2="3.000" y2="1606.700"/>
      <line x1="53.000" y1="1607.700" x2="3.000" y2="1607.700"/>
      <line x1="53.000" y1="1608.700" x2="3.000" y2="1608.700"/>
      <line x1="53.000" y1="1609.700" x2="3.000" y2="1609.700"/>
      <line x1="53.000" y1="1610.700" x2="3.000" y2="1610.700"/>
      <line x1="53.000" y1="1611.700" x2="3.000" y2="1611.700"/>
      <line x1="53.000" y1="1612.700" x2="3.000" y2="1612.700"/>
      <line x1="53.000" y1="1613.700" x2="3.000" y2="1613.700"/>
      <line x1="53.000" y1="1614.700" x2="3.000" y2="1614.700"/>
      <line x1="53.000" y1="1615.700" x2="3.000" y2="1615.700"/>
      <line x1="53.000" y1="1616.700" x2="3.000" y2="1616.700"/>
      <line x1="53.000" y1="1617.700" x2="3.000" y2="1617.700"/>
      <line x1="53.000" y1="1618.700" x2="3.000" y2="1618.700"/>
      <line x1="53.000" y1="1619.700" x2="3.000" y2="1619.700"/>
      <line x1="53.000" y1="1620.700" x2="3.000" y2="1620.700"/>
      <line x1="53.000" y1="1621.700" x2="3.000" y2="1621.700"/>
      <line x1="53.000" y1="1622.700" x2="3.000" y2="1622.700"/>
      <line x1="53.000" y1="1623.700" x2="3.000" y2="1623.700"/>
      <line x1="53.000" y1="1624.700" x2="3.000" y2="1624.700"/>
      <line x1="53.000" y1="1625.700" x2="3.000" y2="1625.700"/>
      <line x1="53.000" y1="1626.700" x2="3.000" y2="1626.700"/>
      <line x1="53.000" y1="1627.700" x2="3.000" y2="1627.700"/>
      <line x1="53.000" y1="1628.700" x2="3.000" y2="1628.700"/>
      <line x1="99.497" y1="1579.700" x2="53.100" y2="1579.700"/>
      <line x1="99.497" y1="1580.700" x2="53.100" y2="1580.700"/>
      <line x1="99.497" y1="1581.700" x2="53.100" y2="1581.700"/>
      <line x1="99.497" y1="1582.700" x2="53.100" y2="1582.700"/>
      <line x1="99.497" y1="1583.700" x2="53.100" y2="1583.700"/>
      <line x1="99.497" y1="1584.700" x2="53.100" y2="1584.700"/>
      <line x1="99.497" y1="1585.700" x2="53.100" y2="1585.700"/>
      <line x1="99.497" y1="1586.700" x2="53.100" y2="1586.700"/>
      <line x1="99.497" y1="1587.700" x2="53.100" y2="1587.700"/>
      <line x1="99.497" y1="1588.700" x2="53.100" y2="1588.700"/>
      <line x1="99.497" y1="1589.700" x2="53.100" y2="1589.700"/>
      <line x1="99.497" y1="1590.700" x2="53.100" y2="1590.700"/>
      <line x1="99.497" y1="1591.700" x2="53.100" y2="1591.700"/>
      <line x1="99.497" y1="1592.700" x2="53.100" y2="1592.700"/>
      <line x1="99.497" y1="1593.700" x2="53.100" y2="1593.700"/>
      <line x1="99.497" y1="1594.700" x2="53.100" y2="1594.700"/>
      <line x1="99.497" y1="1595.700" x2="53.100" y2="1595.700"/>
      <line x1="99.497" y1="1596.700" x2="53.100" y2="1596.700"/>
      <line x1="99.497" y1="1597.700" x2="53.100" y2="1597.700"/>
      <line x1="99.497" y1="1598.700" x2="53.100" y2="1598.700"/>
      <line x1="99.497" y1="1599.700" x2="53.100" y2="1599.700"/>
      <line x1="99.497" y1="1600.700" x2="53.100" y2="1600.700"/>
      <line x1="99.497" y1="1601.700" x2="53.100" y2="1601.700"/>
      <line x1="99.497" y1="1602.700" x2="53.100" y2="1602.700"/>
      <line x1="99.497" y1="1603.700" x2="53.100" y2="1603.700"/>
      <line x1="99.497" y1="1604.700" x2="53.100" y2="1604.700"/>
      <line x1="99.497" y1="1605.700" x2="53.100" y2="1605.700"/>
      <line x1="99.497" y1="1606.700" x2="53.100" y2="1606.700"/>
      <line x1="99.497" y1="1607.700" x2="53.100" y2="1607.700"/>
      <line x1="99.497" y1="1608.700" x2="53.100" y2="1608.700"/>
      <line x1="99.497" y1="1609.700" x2="53.100" y2="1609.700"/>
      <line x1="99.497" y1="1610.700" x2="53.100" y2="1610.700"/>
      <line x1="99.497" y1="1611.700" x2="53.100" y2="1611.700"/>
      <line x1="99.497" y1="1612.700" x2="53.100" y2="1612.700"/>
      <line x1="99.497" y1="1613.700" x2="53.100" y2="1613.700"/>
      <line x1="99.497" y1="1614.700" x2="53.100" y2="1614.700"/>
      <line x1="99.497" y1="1615.700" x2="53.100" y2="1615.700"/>
      <line x1="99.497" y1="1616.700" x2="53.100" y2="1616.700"/>
      <line x1="99.497" y1="1617.700" x2="53.100" y2="1617.700"/>
      <line x1="99.497" y1="1618.700" x2="53.100" y2="1618.700"/>
      <line x1="99.497" y1="1619.700" x2="53.100" y2="1619.700"/>
      <line x1="99.497" y1="1620.700" x2="53.100" y2="1620.700"/>
      <line x1="99.497" y1="1621.700" x2="53.100" y2="1621.700"/>
      <line x1="99.497" y1="1622.700" x2="53.100" y2="1622.700"/>
      <line x1="99.497" y1="1623.700" x2="53.100" y2="1623.700"/>
      <line x1="99.497" y1="1624.700" x2="53.100" y2="1624.700"/>
      <line x1="99.497" y1="1625.700" x2="53.100" y2="1625.700"/>
      <line x1="99.497" y1="1626.700" x2="53.100" y2="1626.700"/>
      <line x1="99.497" y1="1627.700" x2="53.100" y2="1627.700"/>
      <line x1="99.497" y1="1628.700" x2="53.100" y2="1628.700"/>
      <line x1="53.000" y1="1529.700" x2="3.000" y2="1529.700"/>
      <line x1="53.000" y1="1530.700" x2="3.000" y2="1530.700"/>
      <line x1="53.000" y1="1531.700" x2="3.000" y2="1531.700"/>
      <line x1="53.000" y1="1532.700" x2="3.000" y2="1532.700"/>
      <line x1="53.000" y1="1533.700" x2="3.000" y2="1533.700"/>
      <line x1="53.000" y1="1534.700" x2="3.000" y2="1534.700"/>
      <line x1="53.000" y1="1535.700" x2="3.000" y2="1535.700"/>
      <line x1="53.000" y1="1536.700" x2="3.000" y2="1536.700"/>
      <line x1="53.000" y1="1537.700" x2="3.000" y2="1537.700"/>
      <line x1="53.000" y1="1538.700" x2="3.000" y2="1538.700"/>
      <line x1="53.000" y1="1539.700" x2="3.000" y2="1539.700"/>
      <line x1="53.000" y1="1540.700" x2="3.000" y2="1540.700"/>
      <line x1="53.000" y1="1541.700" x2="3.000" y2="1541.700"/>
      <line x1="53.000" y1="1542.700" x2="3.000" y2="1542.700"/>
      <line x1="53.000" y1="1543.700" x2="3.000" y2="1543.700"/>
      <line x1="53.000" y1="1544.700" x2="3.000" y2="1544.700"/>
      <line x1="53.000" y1="1545.700" x2="3.000" y2="1545.700"/>
      <line x1="53.000" y1="1546.700" x2="3.000" y2="1546.700"/>
      <line x1="53.000" y1="1547.700" x2="3.000" y2="1547.700"/>
      <line x1="53.000" y1="1548.700" x2="3.000" y2="1548.700"/>
      <line x1="53.000" y1="1549.700" x2="3.000" y2="1549.700"/>
      <line x1="53.000" y1="1550.700" x2="3.000" y2="1550.700"/>
      <line x1="53.000" y1="1551.700" x2="3.000" y2="1551.700"/>
      <line x1="53.000" y1="1552.700" x2="3.000" y2="1552.700"/>
      <line x1="53.000" y1="1553.700" x2="3.000" y2="1553.700"/>
      <line x1="53.000" y1="1554.700" x2="3.000" y2="1554.700"/>
      <line x1="53.000" y1="1555.700" x2="3.000" y2="1555.700"/>
      <line x1="53.000" y1="1556.700" x2="3.000" y2="1556.700"/>
      <line x1="53.000" y1="1557.700" x2="3.000" y2="1557.700"/>
      <line x1="53.000" y1="1558.700" x2="3.000" y2="1558.700"/>
      <line x1="53.000" y1="1559.700" x2="3.000" y2="1559.700"/>
      <line x1="53.000" y1="1560.700" x2="3.000" y2="1560.700"/>
      <line x1="53.000" y1="1561.700" x2="3.000" y2="1561.700"/>
      <line x1="53.000" y1="1562.700" x2="3.000" y2="1562.700"/>
      <line x1="53.000" y1="1563.700" x2="3.000" y2="1563.700"/>
      <line x1="53.000" y1="1564.700" x2="3.000" y2="1564.700"/>
      <line x1="53.000" y1="1565.700" x2="3.000" y2="1565.700"/>
      <line x1="53.000" y1="1566.700" x2="3.000" y2="1566.700"/>
      <line x1="53.000" y1="1567.700" x2="3.000" y2="1567.700"/>
      <line x1="53.000" y1="1568.700" x2="3.000" y2="1568.700"/>
      <line x1="53.000" y1="1569.700" x2="3.000" y2="1569.700"/>
      <line x1="53.000" y1="1570.700" x2="3.000" y2="1570.700"/>
      <line x1="53.000" y1="1571.700" x2="3.000" y2="1571.700"/>
      <line x1="53.000" y1="1572.700" x2="3.000" y2="1572.700"/>
      <line x1="53.000" y1="1573.700" x2="3.000" y2="1573.700"/>
      <line x1="53.000" y1="1574.700" x2="3.000" y2="1574.700"/>
      <line x1="53.000" y1="1575.700" x2="3.000" y2="1575.700"/>
      <line x1="53.000" y1="1576.700" x2="3.000" y2="1576.700"/>
      <line x1="53.000" y1="1577.700" x2="3.000" y2="1577.700"/>
      <line x1="53.000" y1="1578.700" x2="3.000" y2="1578.700"/>
      <line x1="99.497" y1="1529.700" x2="53.100" y2="1529.700"/>
      <line x1="99.497" y1="1530.700" x2="53.100" y2="1530.700"/>
      <line x1="99.497" y1="1531.700" x2="53.100" y2="1531.700"/>
      <line x1="99.497" y1="1532.700" x2="53.100" y2="1532.700"/>
      <line x1="99.497" y1="1533.700" x2="53.100" y2="1533.700"/>
      <line x1="99.497" y1="1534.700" x2="53.100" y2="1534.700"/>
      <line x1="99.497" y1="1535.700" x2="53.100" y2="1535.700"/>
      <line x1="99.497" y1="1536.700" x2="53.100" y2="1536.700"/>
      <line x1="99.497" y1="1537.700" x2="53.100" y2="1537.700"/>
      <line x1="99.497" y1="1538.700" x2="53.100" y2="1538.700"/>
      <line x1="99.497" y1="1539.700" x2="53.100" y2="1539.700"/>
      <line x1="99.497" y1="1540.700" x2="53.100" y2="1540.700"/>
      <line x1="99.497" y1="1541.700" x2="53.100" y2="1541.700"/>
      <line x1="99.497" y1="1542.700" x2="53.100" y2="1542.700"/>
      <line x1="99.497" y1="1543.700" x2="53.100" y2="1543.700"/>
      <line x1="99.497" y1="1544.700" x2="53.100" y2="1544.700"/>
      <line x1="99.497" y1="1545.700" x2="53.100" y2="1545.700"/>
      <line x1="99.497" y1="1546.700" x2="53.100" y2="1546.700"/>
      <line x1="99.497" y1="1547.700" x2="53.100" y2="1547.700"/>
      <line x1="99.497" y1="1548.700" x2="53.100" y2="1548.700"/>
      <line x1="99.497" y1="1549.700" x2="53.100" y2="1549.700"/>
      <line x1="99.497" y1="1550.700" x2="53.100" y2="1550.700"/>
      <line x1="99.497" y1="1551.700" x2="53.100" y2="1551.700"/>
      <line x1="99.497" y1="1552.700" x2="53.100" y2="1552.700"/>
      <line x1="99.497" y1="1553.700" x2="53.100" y2="1553.700"/>
      <line x1="99.497" y1="1554.700" x2="53.100" y2="1554.700"/>
      <line x1="99.497" y1="1555.700" x2="53.100" y2="1555.700"/>
      <line x1="99.497" y1="1556.700" x2="53.100" y2="1556.700"/>
      <line x1="99.497" y1="1557.700" x2="53.100" y2="1557.700"/>
      <line x1="99.497" y1="1558.700" x2="53.100" y2="1558.700"/>
      <line x1="99.497" y1="1559.700" x2="53.100" y2="1559.700"/>
      <line x1="99.497" y1="1560.700" x2="53.100" y2="1560.700"/>
      <line x1="99.497" y1="1561.700" x2="53.100" y2="1561.700"/>
      <line x1="99.497" y1="1562.700" x2="53.100" y2="1562.700"/>
      <line x1="99.497" y1="1563.700" x2="53.100" y2="1563.700"/>
      <line x1="99.497" y1="1564.700" x2="53.100" y2="1564.700"/>
      <line x1="99.497" y1="1565.700" x2="53.100" y2="1565.700"/>
      <line x1="99.497" y1="1566.700" x2="53.100" y2="1566.700"/>
      <line x1="99.497" y1="1567.700" x2="53.100" y2="1567.700"/>
      <line x1="99.497" y1="1568.700" x2="53.100" y2="1568.700"/>
      <line x1="99.497" y1="1569.700" x2="53.100" y2="1569.700"/>
      <line x1="99.497" y1="1570.700" x2="53.100" y2="1570.700"/>
      <line x1="99.497" y1="1571.700" x2="53.100" y2="1571.700"/>
      <line x1="99.497" y1="1572.700" x2="53.100" y2="1572.700"/>
      <line x1="99.497" y1="1573.700" x2="53.100" y2="1573.700"/>
      <line x1="99.497" y1="1574.700" x2="53.100" y2="1574.700"/>
      <line x1="99.497" y1="1575.700" x2="53.100" y2="1575.700"/>
      <line x1="99.497" y1="1576.700" x2="53.100" y2="1576.700"/>
      <line x1="99.497" y1="1577.700" x2="53.100" y2="1577.700"/>
      <line x1="99.497" y1="1578.700" x2="53.100" y2="1578.700"/>
      <line x1="53.000" y1="1525.700" x2="3.000" y2="1525.700"/>
      <line x1="53.000" y1="1526.700" x2="3.000" y2="1526.700"/>
      <line x1="53.000" y1="1527.700" x2="3.000" y2="1527.700"/>
      <line x1="53.000" y1="1528.700" x2="3.000" y2="1528.700"/>
      <line x1="99.497" y1="1525.700" x2="53.100" y2="1525.700"/>
      <line x1="99.497" y1="1526.700" x2="53.100" y2="1526.700"/>
      <line x1="99.497" y1="1527.700" x2="53.100" y2="1527.700"/>
      <line x1="99.497" y1="1528.700" x2="53.100" y2="1528.700"/>
    </g>
    <g stroke="#1976D2" stroke-width="0.4">
      <polyline points="498.860,1682.729 600.500,1682.729 600.500,1521.729 498.860,1521.729" fill="none"/>
      <polyline points="498.860,1521.729 497.003,1521.729 497.003,1682.729 498.860,1682.729" fill="none"/>
      <polyline points="498.860,1681.730 599.500,1681.730 599.500,1522.729 498.860,1522.729" fill="none"/>
      <polyline points="498.860,1522.729 498.003,1522.729 498.003,1681.730 498.860,1681.730" fill="none"/>
      <polyline points="598.500,1523.729 499.003,1523.729 499.003,1680.730 598.500,1680.730 598.500,1523.729" fill="none"/>
      <polyline points="597.500,1524.729 500.003,1524.729 500.003,1679.729 597.500,1679.729 597.500,1524.729" fill="none"/>
      <polyline points="101.140,1521.729 -0.500,1521.729 -0.500,1682.729 101.140,1682.729" fill="none"/>
      <polyline points="101.140,1682.729 102.997,1682.729 102.997,1521.729 101.140,1521.729" fill="none"/>
      <polyline points="101.140,1522.729 0.500,1522.729 0.500,1681.730 101.140,1681.730" fill="none"/>
      <polyline points="101.140,1681.730 101.997,1681.730 101.997,1522.729 101.140,1522.729" fill="none"/>
      <polyline points="100.997,1523.729 1.500,1523.729 1.500,1680.730 100.997,1680.730 100.997,1523.729" fill="none"/>
      <polyline points="99.997,1524.729 2.500,1524.729 2.500,1679.729 99.997,1679.729 99.997,1524.729" fill="none"/>
    </g>
    <g stroke="#C62828" stroke-width="0.4" fill="none">
      <polygon points="294.889,1534.323 296.249,1533.182 297.136,1531.644 297.444,1529.896 297.136,1528.148 296.249,1526.611 294.889,1525.470 293.221,1524.863 291.446,1524.863 289.778,1525.470 288.418,1526.611 287.530,1528.148 287.222,1529.896 287.530,1531.644 288.418,1533.182 289.778,1534.323 291.446,1534.930 293.221,1534.930"/>
      <polygon points="314.846,1534.249 316.184,1533.127 317.056,1531.615 317.360,1529.896 317.056,1528.177 316.184,1526.665 314.846,1525.543 313.206,1524.946 311.461,1524.946 309.820,1525.543 308.483,1526.665 307.610,1528.177 307.307,1529.896 307.610,1531.615 308.483,1533.127 309.820,1534.249 311.461,1534.846 313.206,1534.846"/>
      <polygon points="274.495,1534.238 275.918,1533.164 276.856,1531.648 277.184,1529.896 276.856,1528.144 275.918,1526.628 274.495,1525.554 272.781,1525.066 271.006,1525.231 269.410,1526.025 268.209,1527.343 267.565,1529.005 267.565,1530.787 268.209,1532.450 269.410,1533.767 271.006,1534.562 272.781,1534.726"/>
      <polygon points="334.455,1534.157 335.851,1533.103 336.772,1531.616 337.093,1529.896 336.772,1528.177 335.851,1526.690 334.455,1525.635 332.773,1525.157 331.031,1525.318 329.465,1526.098 328.287,1527.391 327.655,1529.022 327.655,1530.771 328.287,1532.402 329.465,1533.694 331.031,1534.474 332.773,1534.636"/>
      <polygon points="254.371,1533.988 255.712,1532.976 256.596,1531.548 256.905,1529.896 256.596,1528.245 255.712,1526.816 254.371,1525.804 252.755,1525.344 251.082,1525.499 249.578,1526.248 248.447,1527.490 247.840,1529.056 247.840,1530.736 248.447,1532.303 249.578,1533.544 251.082,1534.293 252.755,1534.448"/>
      <polygon points="354.371,1533.988 355.712,1532.976 356.596,1531.548 356.905,1529.896 356.596,1528.245 355.712,1526.816 354.371,1525.804 352.755,1525.344 351.082,1525.499 349.578,1526.248 348.447,1527.490 347.840,1529.056 347.840,1530.736 348.447,1532.303 349.578,1533.544 351.082,1534.293 352.755,1534.448"/>
      <polygon points="234.007,1533.937 235.426,1532.989 236.374,1531.570 236.707,1529.896 236.374,1528.222 235.426,1526.803 234.007,1525.855 232.333,1525.522 230.659,1525.855 229.240,1526.803 228.292,1528.222 227.959,1529.896 228.292,1531.570 229.240,1532.989 230.659,1533.937 232.333,1534.270"/>
      <polygon points="373.968,1533.843 375.354,1532.917 376.280,1531.531 376.605,1529.896 376.280,1528.261 375.354,1526.876 373.968,1525.950 372.333,1525.625 370.699,1525.950 369.313,1526.876 368.387,1528.261 368.062,1529.896 368.387,1531.531 369.313,1532.917 370.699,1533.843 372.333,1534.168"/>
      <polygon points="213.887,1533.646 215.204,1532.766 216.083,1531.450 216.392,1529.896 216.083,1528.343 215.204,1527.026 213.887,1526.146 212.333,1525.837 210.780,1526.146 209.463,1527.026 208.583,1528.343 208.274,1529.896 208.583,1531.450 209.463,1532.766 210.780,1533.646 212.333,1533.955"/>
      <polygon points="393.554,1533.652 394.976,1532.831 395.941,1531.502 396.282,1529.896 395.941,1528.290 394.976,1526.962 393.554,1526.141 391.921,1525.969 390.359,1526.476 389.139,1527.575 388.471,1529.075 388.471,1530.717 389.139,1532.217 390.359,1533.316 391.921,1533.823"/>
      <polygon points="413.483,1533.433 414.822,1532.660 415.731,1531.409 416.053,1529.896 415.731,1528.383 414.822,1527.132 413.483,1526.359 411.945,1526.197 410.474,1526.675 409.324,1527.710 408.695,1529.123 408.695,1530.669 409.324,1532.082 410.474,1533.117 411.945,1533.595"/>
      <polygon points="193.483,1533.433 194.822,1532.660 195.731,1531.409 196.053,1529.896 195.731,1528.383 194.822,1527.132 193.483,1526.359 191.945,1526.197 190.474,1526.675 189.324,1527.710 188.695,1529.123 188.695,1530.669 189.324,1532.082 190.474,1533.117 191.945,1533.595"/>
      <polygon points="174.502,1532.615 175.466,1531.405 175.811,1529.896 175.466,1528.387 174.502,1527.177 173.107,1526.506 171.560,1526.506 170.165,1527.177 169.200,1528.387 168.856,1529.896 169.200,1531.405 170.165,1532.615 171.560,1533.286 173.107,1533.286"/>
      <polygon points="434.423,1532.517 435.353,1531.350 435.685,1529.896 435.353,1528.442 434.423,1527.276 433.079,1526.629 431.588,1526.629 430.244,1527.276 429.314,1528.442 428.982,1529.896 429.314,1531.350 430.244,1532.517 431.588,1533.164 433.079,1533.164"/>
      <polygon points="153.931,1532.210 154.823,1531.203 155.145,1529.896 154.823,1528.590 153.931,1527.582 152.672,1527.105 151.336,1527.267 150.229,1528.032 149.603,1529.223 149.603,1530.569 150.229,1531.761 151.336,1532.525 152.672,1532.687"/>
      <polygon points="453.763,1531.968 454.562,1531.066 454.851,1529.896 454.562,1528.726 453.763,1527.824 452.637,1527.397 451.441,1527.542 450.449,1528.227 449.889,1529.294 449.889,1530.499 450.449,1531.566 451.441,1532.250 452.637,1532.395"/>
      <polygon points="133.333,1531.628 134.065,1530.896 134.333,1529.896 134.065,1528.896 133.333,1528.164 132.333,1527.896 131.333,1528.164 130.601,1528.896 130.333,1529.896 130.601,1530.896 131.333,1531.628 132.333,1531.896"/>
      <polygon points="473.333,1531.628 474.065,1530.896 474.333,1529.896 474.065,1528.896 473.333,1528.164 472.333,1527.896 471.333,1528.164 470.601,1528.896 470.333,1529.896 470.601,1530.896 471.333,1531.628 472.333,1531.896"/>
      <polygon points="294.889,1554.323 296.249,1553.182 297.136,1551.644 297.444,1549.896 297.136,1548.148 296.249,1546.611 294.889,1545.470 293.221,1544.863 291.446,1544.863 289.778,1545.470 288.418,1546.611 287.530,1548.148 287.222,1549.896 287.530,1551.644 288.418,1553.182 289.778,1554.323 291.446,1554.930 293.221,1554.930"/>
      <polygon points="314.846,1554.249 316.184,1553.127 317.056,1551.615 317.360,1549.896 317.056,1548.177 316.184,1546.665 314.846,1545.543 313.206,1544.946 311.461,1544.946 309.820,1545.543 308.483,1546.665 307.610,1548.177 307.307,1549.896 307.610,1551.615 308.483,1553.127 309.820,1554.249 311.461,1554.846 313.206,1554.846"/>
      <polygon points="274.495,1554.238 275.918,1553.164 276.856,1551.648 277.184,1549.896 276.856,1548.144 275.918,1546.628 274.495,1545.554 272.781,1545.066 271.006,1545.231 269.410,1546.025 268.209,1547.343 267.565,1549.005 267.565,1550.787 268.209,1552.450 269.410,1553.767 271.006,1554.562 272.781,1554.726"/>
      <polygon points="334.455,1554.157 335.851,1553.103 336.772,1551.616 337.093,1549.896 336.772,1548.177 335.851,1546.690 334.455,1545.635 332.773,1545.157 331.031,1545.318 329.465,1546.098 328.287,1547.391 327.655,1549.022 327.655,1550.771 328.287,1552.402 329.465,1553.694 331.031,1554.474 332.773,1554.636"/>
      <polygon points="354.371,1553.988 355.712,1552.976 356.596,1551.548 356.905,1549.896 356.596,1548.245 355.712,1546.816 354.371,1545.804 352.755,1545.344 351.082,1545.499 349.578,1546.248 348.447,1547.490 347.840,1549.056 347.840,1550.736 348.447,1552.303 349.578,1553.544 351.082,1554.293 352.755,1554.448"/>
      <polygon points="254.371,1553.988 255.712,1552.976 256.596,1551.548 256.905,1549.896 256.596,1548.245 255.712,1546.816 254.371,1545.804 252.755,1545.344 251.082,1545.499 249.578,1546.248 248.447,1547.490 247.840,1549.056 247.840,1550.736 248.447,1552.303 249.578,1553.544 251.082,1554.293 252.755,1554.448"/>
      <polygon points="234.007,1553.937 235.426,1552.989 236.374,1551.570 236.707,1549.896 236.374,1548.222 235.426,1546.803 234.007,1545.855 232.333,1545.522 230.659,1545.855 229.240,1546.803 228.292,1548.222 227.959,1549.896 228.292,1551.570 229.240,1552.989 230.659,1553.937 232.333,1554.270"/>
      <polygon points="373.968,1553.843 375.354,1552.917 376.280,1551.531 376.605,1549.896 376.280,1548.261 375.354,1546.876 373.968,1545.950 372.333,1545.625 370.699,1545.950 369.313,1546.876 368.387,1548.261 368.062,1549.896 368.387,1551.531 369.313,1552.917 370.699,1553.843 372.333,1554.168"/>
      <polygon points="213.887,1553.646 215.204,1552.766 216.083,1551.450 216.392,1549.896 216.083,1548.343 215.204,1547.026 213.887,1546.146 212.333,1545.837 210.780,1546.146 209.463,1547.026 208.583,1548.343 208.274,1549.896 208.583,1551.450 209.463,1552.766 210.780,1553.646 212.333,1553.955"/>
      <polygon points="393.554,1553.652 394.976,1552.831 395.941,1551.502 396.282,1549.896 395.941,1548.290 394.976,1546.962 393.554,1546.141 391.921,1545.969 390.359,1546.476 389.139,1547.575 388.471,1549.075 388.471,1550.717 389.139,1552.217 390.359,1553.316 391.921,1553.823"/>
      <polygon points="413.483,1553.433 414.822,1552.660 415.731,1551.409 416.053,1549.896 415.731,1548.383 414.822,1547.132 413.483,1546.359 411.945,1546.197 410.474,1546.675 409.324,1547.710 408.695,1549.123 408.695,1550.669 409.324,1552.082 410.474,1553.117 411.945,1553.595"/>
      <polygon points="193.483,1553.433 194.822,1552.660 195.731,1551.409 196.053,1549.896 195.731,1548.383 194.822,1547.132 193.483,1546.359 191.945,1546.197 190.474,1546.675 189.324,1547.710 188.695,1549.123 188.695,1550.669 189.324,1552.082 190.474,1553.117 191.945,1553.595"/>
      <polygon points="174.502,1552.615 175.466,1551.405 175.811,1549.896 175.466,1548.387 174.502,1547.177 173.107,1546.506 171.560,1546.506 170.165,1547.177 169.200,1548.387 168.856,1549.896 169.200,1551.405 170.165,1552.615 171.560,1553.286 173.107,1553.286"/>
      <polygon points="434.423,1552.517 435.353,1551.350 435.685,1549.896 435.353,1548.442 434.423,1547.276 433.079,1546.629 431.588,1546.629 430.244,1547.276 429.314,1548.442 428.982,1549.896 429.314,1551.350 430.244,1552.517 431.588,1553.164 433.079,1553.164"/>
      <polygon points="153.931,1552.210 154.823,1551.203 155.145,1549.896 154.823,1548.590 153.931,1547.582 152.672,1547.105 151.336,1547.267 150.229,1548.032 149.603,1549.223 149.603,1550.569 150.229,1551.761 151.336,1552.525 152.672,1552.687"/>
      <polygon points="453.763,1551.968 454.562,1551.066 454.851,1549.896 454.562,1548.726 453.763,1547.824 452.637,1547.397 451.441,1547.542 450.449,1548.227 449.889,1549.294 449.889,1550.499 450.449,1551.566 451.441,1552.250 452.637,1552.395"/>
      <polygon points="133.333,1551.628 134.065,1550.896 134.333,1549.896 134.065,1548.896 133.333,1548.164 132.333,1547.896 131.333,1548.164 130.601,1548.896 130.333,1549.896 130.601,1550.896 131.333,1551.628 132.333,1551.896"/>
      <polygon points="473.333,1551.628 474.065,1550.896 474.333,1549.896 474.065,1548.896 473.333,1548.164 472.333,1547.896 471.333,1548.164 470.601,1548.896 470.333,1549.896 470.601,1550.896 471.333,1551.628 472.333,1551.896"/>
      <polygon points="294.889,1574.323 296.249,1573.182 297.136,1571.644 297.444,1569.896 297.136,1568.148 296.249,1566.611 294.889,1565.470 293.221,1564.863 291.446,1564.863 289.778,1565.470 288.418,1566.611 287.530,1568.148 287.222,1569.896 287.530,1571.644 288.418,1573.182 289.778,1574.323 291.446,1574.930 293.221,1574.930"/>
      <polygon points="314.846,1574.249 316.184,1573.127 317.056,1571.615 317.360,1569.896 317.056,1568.177 316.184,1566.665 314.846,1565.543 313.206,1564.946 311.461,1564.946 309.820,1565.543 308.483,1566.665 307.610,1568.177 307.307,1569.896 307.610,1571.615 308.483,1573.127 309.820,1574.249 311.461,1574.846 313.206,1574.846"/>
      <polygon points="274.495,1574.238 275.918,1573.164 276.856,1571.648 277.184,1569.896 276.856,1568.144 275.918,1566.628 274.495,1565.554 272.781,1565.066 271.006,1565.231 269.410,1566.025 268.209,1567.343 267.565,1569.005 267.565,1570.787 268.209,1572.450 269.410,1573.767 271.006,1574.562 272.781,1574.726"/>
      <polygon points="334.455,1574.157 335.851,1573.103 336.772,1571.616 337.093,1569.896 336.772,1568.177 335.851,1566.690 334.455,1565.635 332.773,1565.157 331.031,1565.318 329.465,1566.098 328.287,1567.391 327.655,1569.022 327.655,1570.771 328.287,1572.402 329.465,1573.694 331.031,1574.474 332.773,1574.636"/>
      <polygon points="254.371,1573.988 255.712,1572.976 256.596,1571.548 256.905,1569.896 256.596,1568.245 255.712,1566.816 254.371,1565.804 252.755,1565.344 251.082,1565.499 249.578,1566.248 248.447,1567.490 247.840,1569.056 247.840,1570.736 248.447,1572.303 249.578,1573.544 251.082,1574.293 252.755,1574.448"/>
      <polygon points="354.371,1573.988 355.712,1572.976 356.596,1571.548 356.905,1569.896 356.596,1568.245 355.712,1566.816 354.371,1565.804 352.755,1565.344 351.082,1565.499 349.578,1566.248 348.447,1567.490 347.840,1569.056 347.840,1570.736 348.447,1572.303 349.578,1573.544 351.082,1574.293 352.755,1574.448"/>
      <polygon points="234.007,1573.937 235.426,1572.989 236.374,1571.570 236.707,1569.896 236.374,1568.222 235.426,1566.803 234.007,1565.855 232.333,1565.522 230.659,1565.855 229.240,1566.803 228.292,1568.222 227.959,1569.896 228.292,1571.570 229.240,1572.989 230.659,1573.937 232.333,1574.270"/>
      <polygon points="373.968,1573.843 375.354,1572.917 376.280,1571.531 376.605,1569.896 376.280,1568.261 375.354,1566.876 373.968,1565.950 372.333,1565.625 370.699,1565.950 369.313,1566.876 368.387,1568.261 368.062,1569.896 368.387,1571.531 369.313,1572.917 370.699,1573.843 372.333,1574.168"/>
      <polygon points="213.887,1573.646 215.204,1572.766 216.083,1571.450 216.392,1569.896 216.083,1568.343 215.204,1567.026 213.887,1566.146 212.333,1565.837 210.780,1566.146 209.463,1567.026 208.583,1568.343 208.274,1569.896 208.583,1571.450 209.463,1572.766 210.780,1573.646 212.333,1573.955"/>
      <polygon points="393.554,1573.652 394.976,1572.831 395.941,1571.502 396.282,1569.896 395.941,1568.290 394.976,1566.962 393.554,1566.141 391.921,1565.969 390.359,1566.476 389.139,1567.575 388.471,1569.075 388.471,1570.717 389.139,1572.217 390.359,1573.316 391.921,1573.823"/>
      <polygon points="193.483,1573.433 194.822,1572.660 195.731,1571.409 196.053,1569.896 195.731,1568.383 194.822,1567.132 193.483,1566.359 191.945,1566.197 190.474,1566.675 189.324,1567.710 188.695,1569.123 188.695,1570.669 189.324,1572.082 190.474,1573.117 191.945,1573.595"/>
      <polygon points="413.483,1573.433 414.822,1572.660 415.731,1571.409 416.053,1569.896 415.731,1568.383 414.822,1567.132 413.483,1566.359 411.945,1566.197 410.474,1566.675 409.324,1567.710 408.695,1569.123 408.695,1570.669 409.324,1572.082 410.474,1573.117 411.945,1573.595"/>
      <polygon points="174.502,1572.615 175.466,1571.405 175.811,1569.896 175.466,1568.387 174.502,1567.177 173.107,1566.506 171.560,1566.506 170.165,1567.177 169.200,1568.387 168.856,1569.896 169.200,1571.405 170.165,1572.615 171.560,1573.286 173.107,1573.286"/>
      <polygon points="434.423,1572.517 435.353,1571.350 435.685,1569.896 435.353,1568.442 434.423,1567.276 433.079,1566.629 431.588,1566.629 430.244,1567.276 429.314,1568.442 428.982,1569.896 429.314,1571.350 430.244,1572.517 431.588,1573.164 433.079,1573.164"/>
      <polygon points="153.931,1572.210 154.823,1571.203 155.145,1569.896 154.823,1568.590 153.931,1567.582 152.672,1567.105 151.336,1567.267 150.229,1568.032 149.603,1569.223 149.603,1570.569 150.229,1571.761 151.336,1572.525 152.672,1572.687"/>
      <polygon points="453.763,1571.968 454.562,1571.066 454.851,1569.896 454.562,1568.726 453.763,1567.824 452.637,1567.397 451.441,1567.542 450.449,1568.227 449.889,1569.294 449.889,1570.499 450.449,1571.566 451.441,1572.250 452.637,1572.395"/>
      <polygon points="133.333,1571.628 134.065,1570.896 134.333,1569.896 134.065,1568.896 133.333,1568.164 132.333,1567.896 131.333,1568.164 130.601,1568.896 130.333,1569.896 130.601,1570.896 131.333,1571.628 132.333,1571.896"/>
      <polygon points="473.333,1571.628 474.065,1570.896 474.333,1569.896 474.065,1568.896 473.333,1568.164 472.333,1567.896 471.333,1568.164 470.601,1568.896 470.333,1569.896 470.601,1570.896 471.333,1571.628 472.333,1571.896"/>
      <polygon points="294.889,1594.323 296.249,1593.182 297.136,1591.644 297.444,1589.896 297.136,1588.148 296.249,1586.611 294.889,1585.470 293.221,1584.863 291.446,1584.863 289.778,1585.470 288.418,1586.611 287.530,1588.148 287.222,1589.896 287.530,1591.644 288.418,1593.182 289.778,1594.323 291.446,1594.930 293.221,1594.930"/>
      <polygon points="314.846,1594.249 316.184,1593.127 317.056,1591.615 317.360,1589.896 317.056,1588.177 316.184,1586.665 314.846,1585.543 313.206,1584.946 311.461,1584.946 309.820,1585.543 308.483,1586.665 307.610,1588.177 307.307,1589.896 307.610,1591.615 308.483,1593.127 309.820,1594.249 311.461,1594.846 313.206,1594.846"/>
      <polygon points="274.495,1594.238 275.918,1593.164 276.856,1591.648 277.184,1589.896 276.856,1588.144 275.918,1586.628 274.495,1585.554 272.781,1585.066 271.006,1585.231 269.410,1586.025 268.209,1587.343 267.565,1589.005 267.565,1590.787 268.209,1592.450 269.410,1593.767 271.006,1594.562 272.781,1594.726"/>
      <polygon points="334.455,1594.157 335.851,1593.103 336.772,1591.616 337.093,1589.896 336.772,1588.177 335.851,1586.690 334.455,1585.635 332.773,1585.157 331.031,1585.318 329.465,1586.098 328.287,1587.391 327.655,1589.022 327.655,1590.771 328.287,1592.402 329.465,1593.694 331.031,1594.474 332.773,1594.636"/>
      <polygon points="354.371,1593.988 355.712,1592.976 356.596,1591.548 356.905,1589.896 356.596,1588.245 355.712,1586.816 354.371,1585.804 352.755,1585.344 351.082,1585.499 349.578,1586.248 348.447,1587.490 347.840,1589.056 347.840,1590.736 348.447,1592.303 349.578,1593.544 351.082,1594.293 352.755,1594.448"/>
      <polygon points="254.371,1593.988 255.712,1592.976 256.596,1591.548 256.905,1589.896 256.596,1588.245 255.712,1586.816 254.371,1585.804 252.755,1585.344 251.082,1585.499 249.578,1586.248 248.447,1587.490 247.840,1589.056 247.840,1590.736 248.447,1592.303 249.578,1593.544 251.082,1594.293 252.755,1594.448"/>
      <polygon points="234.007,1593.937 235.426,1592.989 236.374,1591.570 236.707,1589.896 236.374,1588.222 235.426,1586.803 234.007,1585.855 232.333,1585.522 230.659,1585.855 229.240,1586.803 228.292,1588.222 227.959,1589.896 228.292,1591.570 229.240,1592.989 230.659,1593.937 232.333,1594.270"/>
      <polygon points="373.968,1593.843 375.354,1592.917 376.280,1591.531 376.605,1589.896 376.280,1588.261 375.354,1586.876 373.968,1585.950 372.333,1585.625 370.699,1585.950 369.313,1586.876 368.387,1588.261 368.062,1589.896 368.387,1591.531 369.313,1592.917 370.699,1593.843 372.333,1594.168"/>
      <polygon points="213.887,1593.646 215.204,1592.766 216.083,1591.450 216.392,1589.896 216.083,1588.343 215.204,1587.026 213.887,1586.146 212.333,1585.837 210.780,1586.146 209.463,1587.026 208.583,1588.343 208.274,1589.896 208.583,1591.450 209.463,1592.766 210.780,1593.646 212.333,1593.955"/>
      <polygon points="393.554,1593.652 394.976,1592.831 395.941,1591.502 396.282,1589.896 395.941,1588.290 394.976,1586.962 393.554,1586.141 391.921,1585.969 390.359,1586.476 389.139,1587.575 388.471,1589.075 388.471,1590.717 389.139,1592.217 390.359,1593.316 391.921,1593.823"/>
      <polygon points="193.483,1593.433 194.822,1592.660 195.731,1591.409 196.053,1589.896 195.731,1588.383 194.822,1587.132 193.483,1586.359 191.945,1586.197 190.474,1586.675 189.324,1587.710 188.695,1589.123 188.695,1590.669 189.324,1592.082 190.474,1593.117 191.945,1593.595"/>
      <polygon points="413.483,1593.433 414.822,1592.660 415.731,1591.409 416.053,1589.896 415.731,1588.383 414.822,1587.132 413.483,1586.359 411.945,1586.197 410.474,1586.675 409.324,1587.710 408.695,1589.123 408.695,1590.669 409.324,1592.082 410.474,1593.117 411.945,1593.595"/>
      <polygon points="174.502,1592.615 175.466,1591.405 175.811,1589.896 175.466,1588.387 174.502,1587.177 173.107,1586.506 171.560,1586.506 170.165,1587.177 169.200,1588.387 168.856,1589.896 169.200,1591.405 170.165,1592.615 171.560,1593.286 173.107,1593.286"/>
      <polygon points="434.423,1592.517 435.353,1591.350 435.685,1589.896 435.353,1588.442 434.423,1587.276 433.079,1586.629 431.588,1586.629 430.244,1587.276 429.314,1588.442 428.982,1589.896 429.314,1591.350 430.244,1592.517 431.588,1593.164 433.079,1593.164"/>
      <polygon points="153.931,1592.210 154.823,1591.203 155.145,1589.896 154.823,1588.590 153.931,1587.582 152.672,1587.105 151.336,1587.267 150.229,1588.032 149.603,1589.223 149.603,1590.569 150.229,1591.761 151.336,1592.525 152.672,1592.687"/>
      <polygon points="453.763,1591.968 454.562,1591.066 454.851,1589.896 454.562,1588.726 453.763,1587.824 452.637,1587.397 451.441,1587.542 450.449,1588.227 449.889,1589.294 449.889,1590.499 450.449,1591.566 451.441,1592.250 452.637,1592.395"/>
      <polygon points="473.333,1591.628 474.065,1590.896 474.333,1589.896 474.065,1588.896 473.333,1588.164 472.333,1587.896 471.333,1588.164 470.601,1588.896 470.333,1589.896 470.601,1590.896 471.333,1591.628 472.333,1591.896"/>
      <polygon points="133.333,1591.628 134.065,1590.896 134.333,1589.896 134.065,1588.896 133.333,1588.164 132.333,1587.896 131.333,1588.164 130.601,1588.896 130.333,1589.896 130.601,1590.896 131.333,1591.628 132.333,1591.896"/>
      <polygon points="294.889,1614.323 296.249,1613.182 297.136,1611.644 297.444,1609.896 297.136,1608.148 296.249,1606.611 294.889,1605.470 293.221,1604.863 291.446,1604.863 289.778,1605.470 288.418,1606.611 287.530,1608.148 287.222,1609.896 287.530,1611.644 288.418,1613.182 289.778,1614.323 291.446,1614.930 293.221,1614.930"/>
      <polygon points="314.846,1614.249 316.184,1613.127 317.056,1611.615 317.360,1609.896 317.056,1608.177 316.184,1606.665 314.846,1605.543 313.206,1604.946 311.461,1604.946 309.820,1605.543 308.483,1606.665 307.610,1608.177 307.307,1609.896 307.610,1611.615 308.483,1613.127 309.820,1614.249 311.461,1614.846 313.206,1614.846"/>
      <polygon points="274.495,1614.238 275.918,1613.164 276.856,1611.648 277.184,1609.896 276.856,1608.144 275.918,1606.628 274.495,1605.554 272.781,1605.066 271.006,1605.231 269.410,1606.025 268.209,1607.343 267.565,1609.005 267.565,1610.787 268.209,1612.450 269.410,1613.767 271.006,1614.562 272.781,1614.726"/>
      <polygon points="334.455,1614.157 335.851,1613.103 336.772,1611.616 337.093,1609.896 336.772,1608.177 335.851,1606.690 334.455,1605.635 332.773,1605.157 331.031,1605.318 329.465,1606.098 328.287,1607.391 327.655,1609.022 327.655,1610.771 328.287,1612.402 329.465,1613.694 331.031,1614.474 332.773,1614.636"/>
      <polygon points="354.371,1613.988 355.712,1612.976 356.596,1611.548 356.905,1609.896 356.596,1608.245 355.712,1606.816 354.371,1605.804 352.755,1605.344 351.082,1605.499 349.578,1606.248 348.447,1607.490 347.840,1609.056 347.840,1610.736 348.447,1612.303 349.578,1613.544 351.082,1614.293 352.755,1614.448"/>
      <polygon points="254.371,1613.988 255.712,1612.976 256.596,1611.548 256.905,1609.896 256.596,1608.245 255.712,1606.816 254.371,1605.804 252.755,1605.344 251.082,1605.499 249.578,1606.248 248.447,1607.490 247.840,1609.056 247.840,1610.736 248.447,1612.303 249.578,1613.544 251.082,1614.293 252.755,1614.448"/>
      <polygon points="234.007,1613.937 235.426,1612.989 236.374,1611.570 236.707,1609.896 236.374,1608.222 235.426,1606.803 234.007,1605.855 232.333,1605.522 230.659,1605.855 229.240,1606.803 228.292,1608.222 227.959,1609.896 228.292,1611.570 229.240,1612.989 230.659,1613.937 232.333,1614.270"/>
      <polygon points="373.968,1613.843 375.354,1612.917 376.280,1611.531 376.605,1609.896 376.280,1608.261 375.354,1606.876 373.968,1605.950 372.333,1605.625 370.699,1605.950 369.313,1606.876 368.387,1608.261 368.062,1609.896 368.387,1611.531 369.313,1612.917 370.699,1613.843 372.333,1614.168"/>
      <polygon points="213.887,1613.646 215.204,1612.766 216.083,1611.450 216.392,1609.896 216.083,1608.343 215.204,1607.026 213.887,1606.146 212.333,1605.837 210.780,1606.146 209.463,1607.026 208.583,1608.343 208.274,1609.896 208.583,1611.450 209.463,1612.766 210.780,1613.646 212.333,1613.955"/>
      <polygon points="393.554,1613.652 394.976,1612.831 395.941,1611.502 396.282,1609.896 395.941,1608.290 394.976,1606.962 393.554,1606.141 391.921,1605.969 390.359,1606.476 389.139,1607.575 388.471,1609.075 388.471,1610.717 389.139,1612.217 390.359,1613.316 391.921,1613.823"/>
      <polygon points="193.483,1613.433 194.822,1612.660 195.731,1611.409 196.053,1609.896 195.731,1608.383 194.822,1607.132 193.483,1606.359 191.945,1606.197 190.474,1606.675 189.324,1607.710 188.695,1609.123 188.695,1610.669 189.324,1612.082 190.474,1613.117 191.945,1613.595"/>
      <polygon points="413.483,1613.433 414.822,1612.660 415.731,1611.409 416.053,1609.896 415.731,1608.383 414.822,1607.132 413.483,1606.359 411.945,1606.197 410.474,1606.675 409.324,1607.710 408.695,1609.123 408.695,1610.669 409.324,1612.082 410.474,1613.117 411.945,1613.595"/>
      <polygon points="174.502,1612.615 175.466,1611.405 175.811,1609.896 175.466,1608.387 174.502,1607.177 173.107,1606.506 171.560,1606.506 170.165,1607.177 169.200,1608.387 168.856,1609.896 169.200,1611.405 170.165,1612.615 171.560,1613.286 173.107,1613.286"/>
      <polygon points="434.423,1612.517 435.353,1611.350 435.685,1609.896 435.353,1608.442 434.423,1607.276 433.079,1606.629 431.588,1606.629 430.244,1607.276 429.314,1608.442 428.982,1609.896 429.314,1611.350 430.244,1612.517 431.588,1613.164 433.079,1613.164"/>
      <polygon points="153.931,1612.210 154.823,1611.203 155.145,1609.896 154.823,1608.590 153.931,1607.582 152.672,1607.105 151.336,1607.267 150.229,1608.032 149.603,1609.223 149.603,1610.569 150.229,1611.761 151.336,1612.525 152.672,1612.687"/>
      <polygon points="453.763,1611.968 454.562,1611.066 454.851,1609.896 454.562,1608.726 453.763,1607.824 452.637,1607.397 451.441,1607.542 450.449,1608.227 449.889,1609.294 449.889,1610.499 450.449,1611.566 451.441,1612.250 452.637,1612.395"/>
      <polygon points="133.333,1611.628 134.065,1610.896 134.333,1609.896 134.065,1608.896 133.333,1608.164 132.333,1607.896 131.333,1608.164 130.601,1608.896 130.333,1609.896 130.601,1610.896 131.333,1611.628 132.333,1611.896"/>
      <polygon points="473.333,1611.628 474.065,1610.896 474.333,1609.896 474.065,1608.896 473.333,1608.164 472.333,1607.896 471.333,1608.164 470.601,1608.896 470.333,1609.896 470.601,1610.896 471.333,1611.628 472.333,1611.896"/>
      <polygon points="294.889,1634.323 296.249,1633.182 297.136,1631.644 297.444,1629.896 297.136,1628.148 296.249,1626.611 294.889,1625.470 293.221,1624.863 291.446,1624.863 289.778,1625.470 288.418,1626.611 287.530,1628.148 287.222,1629.896 287.530,1631.644 288.418,1633.182 289.778,1634.323 291.446,1634.930 293.221,1634.930"/>
      <polygon points="314.846,1634.249 316.184,1633.127 317.056,1631.615 317.360,1629.896 317.056,1628.177 316.184,1626.665 314.846,1625.543 313.206,1624.946 311.461,1624.946 309.820,1625.543 308.483,1626.665 307.610,1628.177 307.307,1629.896 307.610,1631.615 308.483,1633.127 309.820,1634.249 311.461,1634.846 313.206,1634.846"/>
      <polygon points="274.495,1634.238 275.918,1633.164 276.856,1631.648 277.184,1629.896 276.856,1628.144 275.918,1626.628 274.495,1625.554 272.781,1625.066 271.006,1625.231 269.410,1626.025 268.209,1627.343 267.565,1629.005 267.565,1630.787 268.209,1632.450 269.410,1633.767 271.006,1634.562 272.781,1634.726"/>
      <polygon points="334.455,1634.157 335.851,1633.103 336.772,1631.616 337.093,1629.896 336.772,1628.177 335.851,1626.690 334.455,1625.635 332.773,1625.157 331.031,1625.318 329.465,1626.098 328.287,1627.391 327.655,1629.022 327.655,1630.771 328.287,1632.402 329.465,1633.694 331.031,1634.474 332.773,1634.636"/>
      <polygon points="254.371,1633.988 255.712,1632.976 256.596,1631.548 256.905,1629.896 256.596,1628.245 255.712,1626.816 254.371,1625.804 252.755,1625.344 251.082,1625.499 249.578,1626.248 248.447,1627.490 247.840,1629.056 247.840,1630.736 248.447,1632.303 249.578,1633.544 251.082,1634.293 252.755,1634.448"/>
      <polygon points="354.371,1633.988 355.712,1632.976 356.596,1631.548 356.905,1629.896 356.596,1628.245 355.712,1626.816 354.371,1625.804 352.755,1625.344 351.082,1625.499 349.578,1626.248 348.447,1627.490 347.840,1629.056 347.840,1630.736 348.447,1632.303 349.578,1633.544 351.082,1634.293 352.755,1634.448"/>
      <polygon points="234.007,1633.937 235.426,1632.989 236.374,1631.570 236.707,1629.896 236.374,1628.222 235.426,1626.803 234.007,1625.855 232.333,1625.522 230.659,1625.855 229.240,1626.803 228.292,1628.222 227.959,1629.896 228.292,1631.570 229.240,1632.989 230.659,1633.937 232.333,1634.270"/>
      <polygon points="373.968,1633.843 375.354,1632.917 376.280,1631.531 376.605,1629.896 376.280,1628.261 375.354,1626.876 373.968,1625.950 372.333,1625.625 370.699,1625.950 369.313,1626.876 368.387,1628.261 368.062,1629.896 368.387,1631.531 369.313,1632.917 370.699,1633.843 372.333,1634.168"/>
      <polygon points="213.887,1633.646 215.204,1632.766 216.083,1631.450 216.392,1629.896 216.083,1628.343 215.204,1627.026 213.887,1626.146 212.333,1625.837 210.780,1626.146 209.463,1627.026 208.583,1628.343 208.274,1629.896 208.583,1631.450 209.463,1632.766 210.780,1633.646 212.333,1633.955"/>
      <polygon points="393.554,1633.652 394.976,1632.831 395.941,1631.502 396.282,1629.896 395.941,1628.290 394.976,1626.962 393.554,1626.141 391.921,1625.969 390.359,1626.476 389.139,1627.575 388.471,1629.075 388.471,1630.717 389.139,1632.217 390.359,1633.316 391.921,1633.823"/>
      <polygon points="193.483,1633.433 194.822,1632.660 195.731,1631.409 196.053,1629.896 195.731,1628.383 194.822,1627.132 193.483,1626.359 191.945,1626.197 190.474,1626.675 189.324,1627.710 188.695,1629.123 188.695,1630.669 189.324,1632.082 190.474,1633.117 191.945,1633.595"/>
      <polygon points="413.483,1633.433 414.822,1632.660 415.731,1631.409 416.053,1629.896 415.731,1628.383 414.822,1627.132 413.483,1626.359 411.945,1626.197 410.474,1626.675 409.324,1627.710 408.695,1629.123 408.695,1630.669 409.324,1632.082 410.474,1633.117 411.945,1633.595"/>
      <polygon points="174.502,1632.615 175.466,1631.405 175.811,1629.896 175.466,1628.387 174.502,1627.177 173.107,1626.506 171.560,1626.506 170.165,1627.177 169.200,1628.387 168.856,1629.896 169.200,1631.405 170.165,1632.615 171.560,1633.286 173.107,1633.286"/>
      <polygon points="434.423,1632.517 435.353,1631.350 435.685,1629.896 435.353,1628.442 434.423,1627.276 433.079,1626.629 431.588,1626.629 430.244,1627.276 429.314,1628.442 428.982,1629.896 429.314,1631.350 430.244,1632.517 431.588,1633.164 433.079,1633.164"/>
      <polygon points="153.931,1632.210 154.823,1631.203 155.145,1629.896 154.823,1628.590 153.931,1627.582 152.672,1627.105 151.336,1627.267 150.229,1628.032 149.603,1629.223 149.603,1630.569 150.229,1631.761 151.336,1632.525 152.672,1632.687"/>
      <polygon points="453.763,1631.968 454.562,1631.066 454.851,1629.896 454.562,1628.726 453.763,1627.824 452.637,1627.397 451.441,1627.542 450.449,1628.227 449.889,1629.294 449.889,1630.499 450.449,1631.566 451.441,1632.250 452.637,1632.395"/>
      <polygon points="473.333,1631.628 474.065,1630.896 474.333,1629.896 474.065,1628.896 473.333,1628.164 472.333,1627.896 471.333,1628.164 470.601,1628.896 470.333,1629.896 470.601,1630.896 471.333,1631.628 472.333,1631.896"/>
      <polygon points="133.333,1631.628 134.065,1630.896 134.333,1629.896 134.065,1628.896 133.333,1628.164 132.333,1627.896 131.333,1628.164 130.601,1628.896 130.333,1629.896 130.601,1630.896 131.333,1631.628 132.333,1631.896"/>
      <polygon points="294.889,1654.323 296.249,1653.182 297.136,1651.644 297.444,1649.896 297.136,1648.148 296.249,1646.611 294.889,1645.470 293.221,1644.863 291.446,1644.863 289.778,1645.470 288.418,1646.611 287.530,1648.148 287.222,1649.896 287.530,1651.644 288.418,1653.182 289.778,1654.323 291.446,1654.930 293.221,1654.930"/>
      <polygon points="314.846,1654.249 316.184,1653.127 317.056,1651.615 317.360,1649.896 317.056,1648.177 316.184,1646.665 314.846,1645.543 313.206,1644.946 311.461,1644.946 309.820,1645.543 308.483,1646.665 307.610,1648.177 307.307,1649.896 307.610,1651.615 308.483,1653.127 309.820,1654.249 311.461,1654.846 313.206,1654.846"/>
      <polygon points="274.495,1654.238 275.918,1653.164 276.856,1651.648 277.184,1649.896 276.856,1648.144 275.918,1646.628 274.495,1645.554 272.781,1645.066 271.006,1645.231 269.410,1646.025 268.209,1647.343 267.565,1649.005 267.565,1650.787 268.209,1652.450 269.410,1653.767 271.006,1654.562 272.781,1654.726"/>
      <polygon points="334.455,1654.157 335.851,1653.103 336.772,1651.616 337.093,1649.896 336.772,1648.177 335.851,1646.690 334.455,1645.635 332.773,1645.157 331.031,1645.318 329.465,1646.098 328.287,1647.391 327.655,1649.022 327.655,1650.771 328.287,1652.402 329.465,1653.694 331.031,1654.474 332.773,1654.636"/>
      <polygon points="354.371,1653.988 355.712,1652.976 356.596,1651.548 356.905,1649.896 356.596,1648.245 355.712,1646.816 354.371,1645.804 352.755,1645.344 351.082,1645.499 349.578,1646.248 348.447,1647.490 347.840,1649.056 347.840,1650.736 348.447,1652.303 349.578,1653.544 351.082,1654.293 352.755,1654.448"/>
      <polygon points="254.371,1653.988 255.712,1652.976 256.596,1651.548 256.905,1649.896 256.596,1648.245 255.712,1646.816 254.371,1645.804 252.755,1645.344 251.082,1645.499 249.578,1646.248 248.447,1647.490 247.840,1649.056 247.840,1650.736 248.447,1652.303 249.578,1653.544 251.082,1654.293 252.755,1654.448"/>
      <polygon points="234.007,1653.937 235.426,1652.989 236.374,1651.570 236.707,1649.896 236.374,1648.222 235.426,1646.803 234.007,1645.855 232.333,1645.522 230.659,1645.855 229.240,1646.803 228.292,1648.222 227.959,1649.896 228.292,1651.570 229.240,1652.989 230.659,1653.937 232.333,1654.270"/>
      <polygon points="373.968,1653.843 375.354,1652.917 376.280,1651.531 376.605,1649.896 376.280,1648.261 375.354,1646.876 373.968,1645.950 372.333,1645.625 370.699,1645.950 369.313,1646.876 368.387,1648.261 368.062,1649.896 368.387,1651.531 369.313,1652.917 370.699,1653.843 372.333,1654.168"/>
      <polygon points="213.887,1653.646 215.204,1652.766 216.083,1651.450 216.392,1649.896 216.083,1648.343 215.204,1647.026 213.887,1646.146 212.333,1645.837 210.780,1646.146 209.463,1647.026 208.583,1648.343 208.274,1649.896 208.583,1651.450 209.463,1652.766 210.780,1653.646 212.333,1653.955"/>
      <polygon points="393.554,1653.652 394.976,1652.831 395.941,1651.502 396.282,1649.896 395.941,1648.290 394.976,1646.962 393.554,1646.141 391.921,1645.969 390.359,1646.476 389.139,1647.575 388.471,1649.075 388.471,1650.717 389.139,1652.217 390.359,1653.316 391.921,1653.823"/>
      <polygon points="413.483,1653.433 414.822,1652.660 415.731,1651.409 416.053,1649.896 415.731,1648.383 414.822,1647.132 413.483,1646.359 411.945,1646.197 410.474,1646.675 409.324,1647.710 408.695,1649.123 408.695,1650.669 409.324,1652.082 410.474,1653.117 411.945,1653.595"/>
      <polygon points="193.483,1653.433 194.822,1652.660 195.731,1651.409 196.053,1649.896 195.731,1648.383 194.822,1647.132 193.483,1646.359 191.945,1646.197 190.474,1646.675 189.324,1647.710 188.695,1649.123 188.695,1650.669 189.324,1652.082 190.474,1653.117 191.945,1653.595"/>
      <polygon points="174.502,1652.615 175.466,1651.405 175.811,1649.896 175.466,1648.387 174.502,1647.177 173.107,1646.506 171.560,1646.506 170.165,1647.177 169.200,1648.387 168.856,1649.896 169.200,1651.405 170.165,1652.615 171.560,1653.286 173.107,1653.286"/>
      <polygon points="434.423,1652.517 435.353,1651.350 435.685,1649.896 435.353,1648.442 434.423,1647.276 433.079,1646.629 431.588,1646.629 430.244,1647.276 429.314,1648.442 428.982,1649.896 429.314,1651.350 430.244,1652.517 431.588,1653.164 433.079,1653.164"/>
      <polygon points="153.931,1652.210 154.823,1651.203 155.145,1649.896 154.823,1648.590 153.931,1647.582 152.672,1647.105 151.336,1647.267 150.229,1648.032 149.603,1649.223 149.603,1650.569 150.229,1651.761 151.336,1652.525 152.672,1652.687"/>
      <polygon points="453.763,1651.968 454.562,1651.066 454.851,1649.896 454.562,1648.726 453.763,1647.824 452.637,1647.397 451.441,1647.542 450.449,1648.227 449.889,1649.294 449.889,1650.499 450.449,1651.566 451.441,1652.250 452.637,1652.395"/>
      <polygon points="133.333,1651.628 134.065,1650.896 134.333,1649.896 134.065,1648.896 133.333,1648.164 132.333,1647.896 131.333,1648.164 130.601,1648.896 130.333,1649.896 130.601,1650.896 131.333,1651.628 132.333,1651.896"/>
      <polygon points="473.333,1651.628 474.065,1650.896 474.333,1649.896 474.065,1648.896 473.333,1648.164 472.333,1647.896 471.333,1648.164 470.601,1648.896 470.333,1649.896 470.601,1650.896 471.333,1651.628 472.333,1651.896"/>
      <polygon points="294.889,1674.323 296.249,1673.182 297.136,1671.644 297.444,1669.896 297.136,1668.148 296.249,1666.611 294.889,1665.470 293.221,1664.863 291.446,1664.863 289.778,1665.470 288.418,1666.611 287.530,1668.148 287.222,1669.896 287.530,1671.644 288.418,1673.182 289.778,1674.323 291.446,1674.930 293.221,1674.930"/>
      <polygon points="314.846,1674.249 316.184,1673.127 317.056,1671.615 317.360,1669.896 317.056,1668.177 316.184,1666.665 314.846,1665.543 313.206,1664.946 311.461,1664.946 309.820,1665.543 308.483,1666.665 307.610,1668.177 307.307,1669.896 307.610,1671.615 308.483,1673.127 309.820,1674.249 311.461,1674.846 313.206,1674.846"/>
      <polygon points="274.495,1674.238 275.918,1673.164 276.856,1671.648 277.184,1669.896 276.856,1668.144 275.918,1666.628 274.495,1665.554 272.781,1665.066 271.006,1665.231 269.410,1666.025 268.209,1667.343 267.565,1669.005 267.565,1670.787 268.209,1672.450 269.410,1673.767 271.006,1674.562 272.781,1674.726"/>
      <polygon points="334.455,1674.157 335.851,1673.103 336.772,1671.616 337.093,1669.896 336.772,1668.177 335.851,1666.690 334.455,1665.635 332.773,1665.157 331.031,1665.318 329.465,1666.098 328.287,1667.391 327.655,1669.022 327.655,1670.771 328.287,1672.402 329.465,1673.694 331.031,1674.474 332.773,1674.636"/>
      <polygon points="354.371,1673.988 355.712,1672.976 356.596,1671.548 356.905,1669.896 356.596,1668.245 355.712,1666.816 354.371,1665.804 352.755,1665.344 351.082,1665.499 349.578,1666.248 348.447,1667.490 347.840,1669.056 347.840,1670.736 348.447,1672.303 349.578,1673.544 351.082,1674.293 352.755,1674.448"/>
      <polygon points="254.371,1673.988 255.712,1672.976 256.596,1671.548 256.905,1669.896 256.596,1668.245 255.712,1666.816 254.371,1665.804 252.755,1665.344 251.082,1665.499 249.578,1666.248 248.447,1667.490 247.840,1669.056 247.840,1670.736 248.447,1672.303 249.578,1673.544 251.082,1674.293 252.755,1674.448"/>
      <polygon points="234.007,1673.937 235.426,1672.989 236.374,1671.570 236.707,1669.896 236.374,1668.222 235.426,1666.803 234.007,1665.855 232.333,1665.522 230.659,1665.855 229.240,1666.803 228.292,1668.222 227.959,1669.896 228.292,1671.570 229.240,1672.989 230.659,1673.937 232.333,1674.270"/>
      <polygon points="373.968,1673.843 375.354,1672.917 376.280,1671.531 376.605,1669.896 376.280,1668.261 375.354,1666.876 373.968,1665.950 372.333,1665.625 370.699,1665.950 369.313,1666.876 368.387,1668.261 368.062,1669.896 368.387,1671.531 369.313,1672.917 370.699,1673.843 372.333,1674.168"/>
      <polygon points="213.887,1673.646 215.204,1672.766 216.083,1671.450 216.392,1669.896 216.083,1668.343 215.204,1667.026 213.887,1666.146 212.333,1665.837 210.780,1666.146 209.463,1667.026 208.583,1668.343 208.274,1669.896 208.583,1671.450 209.463,1672.766 210.780,1673.646 212.333,1673.955"/>
      <polygon points="393.554,1673.652 394.976,1672.831 395.941,1671.502 396.282,1669.896 395.941,1668.290 394.976,1666.962 393.554,1666.141 391.921,1665.969 390.359,1666.476 389.139,1667.575 388.471,1669.075 388.471,1670.717 389.139,1672.217 390.359,1673.316 391.921,1673.823"/>
      <polygon points="413.483,1673.433 414.822,1672.660 415.731,1671.409 416.053,1669.896 415.731,1668.383 414.822,1667.132 413.483,1666.359 411.945,1666.197 410.474,1666.675 409.324,1667.710 408.695,1669.123 408.695,1670.669 409.324,1672.082 410.474,1673.117 411.945,1673.595"/>
      <polygon points="193.483,1673.433 194.822,1672.660 195.731,1671.409 196.053,1669.896 195.731,1668.383 194.822,1667.132 193.483,1666.359 191.945,1666.197 190.474,1666.675 189.324,1667.710 188.695,1669.123 188.695,1670.669 189.324,1672.082 190.474,1673.117 191.945,1673.595"/>
      <polygon points="174.502,1672.615 175.466,1671.405 175.811,1669.896 175.466,1668.387 174.502,1667.177 173.107,1666.506 171.560,1666.506 170.165,1667.177 169.200,1668.387 168.856,1669.896 169.200,1671.405 170.165,1672.615 171.560,1673.286 173.107,1673.286"/>
      <polygon points="434.423,1672.517 435.353,1671.350 435.685,1669.896 435.353,1668.442 434.423,1667.276 433.079,1666.629 431.588,1666.629 430.244,1667.276 429.314,1668.442 428.982,1669.896 429.314,1671.350 430.244,1672.517 431.588,1673.164 433.079,1673.164"/>
      <polygon points="153.931,1672.210 154.823,1671.203 155.145,1669.896 154.823,1668.590 153.931,1667.582 152.672,1667.105 151.336,1667.267 150.229,1668.032 149.603,1669.223 149.603,1670.569 150.229,1671.761 151.336,1672.525 152.672,1672.687"/>
      <polygon points="453.763,1671.968 454.562,1671.066 454.851,1669.896 454.562,1668.726 453.763,1667.824 452.637,1667.397 451.441,1667.542 450.449,1668.227 449.889,1669.294 449.889,1670.499 450.449,1671.566 451.441,1672.250 452.637,1672.395"/>
      <polygon points="473.333,1671.628 474.065,1670.896 474.333,1669.896 474.065,1668.896 473.333,1668.164 472.333,1667.896 471.333,1668.164 470.601,1668.896 470.333,1669.896 470.601,1670.896 471.333,1671.628 472.333,1671.896"/>
      <polygon points="133.333,1671.628 134.065,1670.896 134.333,1669.896 134.065,1668.896 133.333,1668.164 132.333,1667.896 131.333,1668.164 130.601,1668.896 130.333,1669.896 130.601,1670.896 131.333,1671.628 132.333,1671.896"/>
    </g>
    <g stroke="#EF6C00" stroke-width="0.4" fill="none">
    </g>
  </g>
  <g stroke="#000000" stroke-width="0.4">
    <line x1="500.000" y1="1000.000" x2="1500.000" y2="1000.000"/>
  </g>
  <g stroke="#000000" stroke-width="0.4">
    <line x1="1000.000" y1="500.000" x2="1000.000" y2="1500.000"/>
  </g>
  <circle cx="1000.000" cy="1000.000" r="1000.000" stroke="red" stroke-width="1" fill="none"/>
  </g>
</svg>
