<?xml version="1.0" encoding="UTF-8"?>
<svg xmlns="http://www.w3.org/2000/svg" version="1.1" width="2000" height="2000">
  <g fill="none" stroke-linecap="round" stroke-linejoin="round">
  <text x="10" y="20" font-size="24" fill="#555">Layer 255 Z=63.000 mm</text>
  <g transform="translate(700.000,-602.229)">
    <g stroke="#2E7D32" stroke-width="0.4">
      <line x1="157.412" y1="1629.872" x2="107.412" y2="1629.872"/>
      <line x1="157.412" y1="1630.872" x2="107.412" y2="1630.872"/>
      <line x1="157.412" y1="1631.872" x2="107.412" y2="1631.872"/>
      <line x1="157.412" y1="1632.872" x2="107.412" y2="1632.872"/>
      <line x1="157.412" y1="1633.872" x2="107.412" y2="1633.872"/>
      <line x1="157.412" y1="1634.872" x2="107.412" y2="1634.872"/>
      <line x1="157.412" y1="1635.872" x2="107.412" y2="1635.872"/>
      <line x1="157.412" y1="1636.872" x2="107.412" y2="1636.872"/>
      <line x1="157.412" y1="1637.872" x2="107.412" y2="1637.872"/>
      <line x1="157.412" y1="1638.872" x2="107.412" y2="1638.872"/>
      <line x1="157.412" y1="1639.872" x2="107.412" y2="1639.872"/>
      <line x1="157.412" y1="1640.872" x2="107.412" y2="1640.872"/>
      <line x1="157.412" y1="1641.872" x2="107.412" y2="1641.872"/>
      <line x1="157.412" y1="1642.872" x2="107.412" y2="1642.872"/>
      <line x1="157.412" y1="1643.872" x2="107.412" y2="1643.872"/>
      <line x1="157.412" y1="1644.872" x2="107.412" y2="1644.872"/>
      <line x1="157.412" y1="1645.872" x2="107.412" y2="1645.872"/>
      <line x1="157.412" y1="1646.872" x2="107.412" y2="1646.872"/>
      <line x1="157.412" y1="1647.872" x2="107.412" y2="1647.872"/>
      <line x1="157.412" y1="1648.872" x2="107.412" y2="1648.872"/>
      <line x1="157.412" y1="1649.872" x2="107.412" y2="1649.872"/>
      <line x1="157.412" y1="1650.872" x2="107.412" y2="1650.872"/>
      <line x1="157.412" y1="1651.872" x2="107.412" y2="1651.872"/>
      <line x1="157.412" y1="1652.872" x2="107.412" y2="1652.872"/>
      <line x1="157.412" y1="1653.872" x2="107.412" y2="1653.872"/>
      <line x1="157.412" y1="1654.872" x2="107.412" y2="1654.872"/>
      <line x1="157.412" y1="1655.872" x2="107.412" y2="1655.872"/>
      <line x1="157.412" y1="1656.872" x2="107.412" y2="1656.872"/>
      <line x1="157.412" y1="1657.872" x2="107.412" y2="1657.872"/>
      <line x1="157.412" y1="1658.872" x2="107.412" y2="1658.872"/>
      <line x1="157.412" y1="1659.872" x2="107.412" y2="1659.872"/>
      <line x1="157.412" y1="1660.872" x2="107.412" y2="1660.872"/>
      <line x1="157.412" y1="1661.872" x2="107.412" y2="1661.872"/>
      <line x1="157.412" y1="1662.872" x2="107.412" y2="1662.872"/>
      <line x1="157.412" y1="1663.872" x2="107.412" y2="1663.872"/>
      <line x1="157.412" y1="1664.872" x2="107.412" y2="1664.872"/>
      <line x1="157.412" y1="1665.872" x2="107.412" y2="1665.872"/>
      <line x1="157.412" y1="1666.872" x2="107.412" y2="1666.872"/>
      <line x1="157.412" y1="1667.872" x2="107.412" y2="1667.872"/>
      <line x1="157.412" y1="1668.872" x2="107.412" y2="1668.872"/>
      <line x1="157.412" y1="1669.872" x2="107.412" y2="1669.872"/>
      <line x1="157.412" y1="1670.872" x2="107.412" y2="1670.872"/>
      <line x1="157.412" y1="1671.872" x2="107.412" y2="1671.872"/>
      <line x1="157.412" y1="1672.872" x2="107.412" y2="1672.872"/>
      <line x1="157.412" y1="1673.872" x2="107.412" y2="1673.872"/>
      <line x1="157.412" y1="1674.872" x2="107.412" y2="1674.872"/>
      <line x1="157.412" y1="1675.872" x2="107.412" y2="1675.872"/>
      <line x1="157.412" y1="1676.872" x2="107.412" y2="1676.872"/>
      <line x1="157.412" y1="1677.872" x2="107.412" y2="1677.872"/>
      <line x1="157.412" y1="1678.872" x2="107.412" y2="1678.872"/>
      <line x1="207.512" y1="1629.872" x2="157.512" y2="1629.872"/>
      <line x1="207.512" y1="1630.872" x2="157.512" y2="1630.872"/>
      <line x1="207.512" y1="1631.872" x2="157.512" y2="1631.872"/>
      <line x1="207.512" y1="1632.872" x2="157.512" y2="1632.872"/>
      <line x1="207.512" y1="1633.872" x2="157.512" y2="1633.872"/>
      <line x1="207.512" y1="1634.872" x2="157.512" y2="1634.872"/>
      <line x1="207.512" y1="1635.872" x2="157.512" y2="1635.872"/>
      <line x1="207.512" y1="1636.872" x2="157.512" y2="1636.872"/>
      <line x1="207.512" y1="1637.872" x2="157.512" y2="1637.872"/>
      <line x1="207.512" y1="1638.872" x2="157.512" y2="1638.872"/>
      <line x1="207.512" y1="1639.872" x2="157.512" y2="1639.872"/>
      <line x1="207.512" y1="1640.872" x2="157.512" y2="1640.872"/>
      <line x1="207.512" y1="1641.872" x2="157.512" y2="1641.872"/>
      <line x1="207.512" y1="1642.872" x2="157.512" y2="1642.872"/>
      <line x1="207.512" y1="1643.872" x2="157.512" y2="1643.872"/>
      <line x1="207.512" y1="1644.872" x2="157.512" y2="1644.872"/>
      <line x1="207.512" y1="1645.872" x2="157.512" y2="1645.872"/>
      <line x1="207.512" y1="1646.872" x2="157.512" y2="1646.872"/>
      <line x1="207.512" y1="1647.872" x2="157.512" y2="1647.872"/>
      <line x1="207.512" y1="1648.872" x2="157.512" y2="1648.872"/>
      <line x1="207.512" y1="1649.872" x2="157.512" y2="1649.872"/>
      <line x1="207.512" y1="1650.872" x2="157.512" y2="1650.872"/>
      <line x1="207.512" y1="1651.872" x2="157.512" y2="1651.872"/>
      <line x1="207.512" y1="1652.872" x2="157.512" y2="1652.872"/>
      <line x1="207.512" y1="1653.872" x2="157.512" y2="1653.872"/>
      <line x1="207.512" y1="1654.872" x2="157.512" y2="1654.872"/>
      <line x1="207.512" y1="1655.872" x2="157.512" y2="1655.872"/>
      <line x1="207.512" y1="1656.872" x2="157.512" y2="1656.872"/>
      <line x1="207.512" y1="1657.872" x2="157.512" y2="1657.872"/>
      <line x1="207.512" y1="1658.872" x2="157.512" y2="1658.872"/>
      <line x1="207.512" y1="1659.872" x2="157.512" y2="1659.872"/>
      <line x1="207.512" y1="1660.872" x2="157.512" y2="1660.872"/>
      <line x1="207.512" y1="1661.872" x2="157.512" y2="1661.872"/>
      <line x1="207.512" y1="1662.872" x2="157.512" y2="1662.872"/>
      <line x1="207.512" y1="1663.872" x2="157.512" y2="1663.872"/>
      <line x1="207.512" y1="1664.872" x2="157.512" y2="1664.872"/>
      <line x1="207.512" y1="1665.872" x2="157.512" y2="1665.872"/>
      <line x1="207.512" y1="1666.872" x2="157.512" y2="1666.872"/>
      <line x1="207.512" y1="1667.872" x2="157.512" y2="1667.872"/>
      <line x1="207.512" y1="1668.872" x2="157.512" y2="1668.872"/>
      <line x1="207.512" y1="1669.872" x2="157.512" y2="1669.872"/>
      <line x1="207.512" y1="1670.872" x2="157.512" y2="1670.872"/>
      <line x1="207.512" y1="1671.872" x2="157.512" y2="1671.872"/>
      <line x1="207.512" y1="1672.872" x2="157.512" y2="1672.872"/>
      <line x1="207.512" y1="1673.872" x2="157.512" y2="1673.872"/>
      <line x1="207.512" y1="1674.872" x2="157.512" y2="1674.872"/>
      <line x1="207.512" y1="1675.872" x2="157.512" y2="1675.872"/>
      <line x1="207.512" y1="1676.872" x2="157.512" y2="1676.872"/>
      <line x1="207.512" y1="1677.872" x2="157.512" y2="1677.872"/>
      <line x1="207.512" y1="1678.872" x2="157.512" y2="1678.872"/>
      <line x1="257.612" y1="1629.872" x2="207.612" y2="1629.872"/>
      <line x1="257.612" y1="1630.872" x2="207.612" y2="1630.872"/>
      <line x1="257.612" y1="1631.872" x2="207.612" y2="1631.872"/>
      <line x1="257.612" y1="1632.872" x2="207.612" y2="1632.872"/>
      <line x1="257.612" y1="1633.872" x2="207.612" y2="1633.872"/>
      <line x1="257.612" y1="1634.872" x2="207.612" y2="1634.872"/>
      <line x1="257.612" y1="1635.872" x2="207.612" y2="1635.872"/>
      <line x1="257.612" y1="1636.872" x2="207.612" y2="1636.872"/>
      <line x1="257.612" y1="1637.872" x2="207.612" y2="1637.872"/>
      <line x1="257.612" y1="1638.872" x2="207.612" y2="1638.872"/>
      <line x1="257.612" y1="1639.872" x2="207.612" y2="1639.872"/>
      <line x1="257.612" y1="1640.872" x2="207.612" y2="1640.872"/>
      <line x1="257.612" y1="1641.872" x2="207.612" y2="1641.872"/>
      <line x1="257.612" y1="1642.872" x2="207.612" y2="1642.872"/>
      <line x1="257.612" y1="1643.872" x2="207.612" y2="1643.872"/>
      <line x1="257.612" y1="1644.872" x2="207.612" y2="1644.872"/>
      <line x1="257.612" y1="1645.872" x2="207.612" y2="1645.872"/>
      <line x1="257.612" y1="1646.872" x2="207.612" y2="1646.872"/>
      <line x1="257.612" y1="1647.872" x2="207.612" y2="1647.872"/>
      <line x1="257.612" y1="1648.872" x2="207.612" y2="1648.872"/>
      <line x1="257.612" y1="1649.872" x2="207.612" y2="1649.872"/>
      <line x1="257.612" y1="1650.872" x2="207.612" y2="1650.872"/>
      <line x1="257.612" y1="1651.872" x2="207.612" y2="1651.872"/>
      <line x1="257.612" y1="1652.872" x2="207.612" y2="1652.872"/>
      <line x1="257.612" y1="1653.872" x2="207.612" y2="1653.872"/>
      <line x1="257.612" y1="1654.872" x2="207.612" y2="1654.872"/>
      <line x1="257.612" y1="1655.872" x2="207.612" y2="1655.872"/>
      <line x1="257.612" y1="1656.872" x2="207.612" y2="1656.872"/>
      <line x1="257.612" y1="1657.872" x2="207.612" y2="1657.872"/>
      <line x1="257.612" y1="1658.872" x2="207.612" y2="1658.872"/>
      <line x1="257.612" y1="1659.872" x2="207.612" y2="1659.872"/>
      <line x1="257.612" y1="1660.872" x2="207.612" y2="1660.872"/>
      <line x1="257.612" y1="1661.872" x2="207.612" y2="1661.872"/>
      <line x1="257.612" y1="1662.872" x2="207.612" y2="1662.872"/>
      <line x1="257.612" y1="1663.872" x2="207.612" y2="1663.872"/>
      <line x1="257.612" y1="1664.872" x2="207.612" y2="1664.872"/>
      <line x1="257.612" y1="1665.872" x2="207.612" y2="1665.872"/>
      <line x1="257.612" y1="1666.872" x2="207.612" y2="1666.872"/>
      <line x1="257.612" y1="1667.872" x2="207.612" y2="1667.872"/>
      <line x1="257.612" y1="1668.872" x2="207.612" y2="1668.872"/>
      <line x1="257.612" y1="1669.872" x2="207.612" y2="1669.872"/>
      <line x1="257.612" y1="1670.872" x2="207.612" y2="1670.872"/>
      <line x1="257.612" y1="1671.872" x2="207.612" y2="1671.872"/>
      <line x1="257.612" y1="1672.872" x2="207.612" y2="1672.872"/>
      <line x1="257.612" y1="1673.872" x2="207.612" y2="1673.872"/>
      <line x1="257.612" y1="1674.872" x2="207.612" y2="1674.872"/>
      <line x1="257.612" y1="1675.872" x2="207.612" y2="1675.872"/>
      <line x1="257.612" y1="1676.872" x2="207.612" y2="1676.872"/>
      <line x1="257.612" y1="1677.872" x2="207.612" y2="1677.872"/>
      <line x1="257.612" y1="1678.872" x2="207.612" y2="1678.872"/>
      <line x1="307.712" y1="1629.872" x2="257.712" y2="1629.872"/>
      <line x1="307.712" y1="1630.872" x2="257.712" y2="1630.872"/>
      <line x1="307.712" y1="1631.872" x2="257.712" y2="1631.872"/>
      <line x1="307.712" y1="1632.872" x2="257.712" y2="1632.872"/>
      <line x1="307.712" y1="1633.872" x2="257.712" y2="1633.872"/>
      <line x1="307.712" y1="1634.872" x2="257.712" y2="1634.872"/>
      <line x1="307.712" y1="1635.872" x2="257.712" y2="1635.872"/>
      <line x1="307.712" y1="1636.872" x2="257.712" y2="1636.872"/>
      <line x1="307.712" y1="1637.872" x2="257.712" y2="1637.872"/>
      <line x1="307.712" y1="1638.872" x2="257.712" y2="1638.872"/>
      <line x1="307.712" y1="1639.872" x2="257.712" y2="1639.872"/>
      <line x1="307.712" y1="1640.872" x2="257.712" y2="1640.872"/>
      <line x1="307.712" y1="1641.872" x2="257.712" y2="1641.872"/>
      <line x1="307.712" y1="1642.872" x2="257.712" y2="1642.872"/>
      <line x1="307.712" y1="1643.872" x2="257.712" y2="1643.872"/>
      <line x1="307.712" y1="1644.872" x2="257.712" y2="1644.872"/>
      <line x1="307.712" y1="1645.872" x2="257.712" y2="1645.872"/>
      <line x1="307.712" y1="1646.872" x2="257.712" y2="1646.872"/>
      <line x1="307.712" y1="1647.872" x2="257.712" y2="1647.872"/>
      <line x1="307.712" y1="1648.872" x2="257.712" y2="1648.872"/>
      <line x1="307.712" y1="1649.872" x2="257.712" y2="1649.872"/>
      <line x1="307.712" y1="1650.872" x2="257.712" y2="1650.872"/>
      <line x1="307.712" y1="1651.872" x2="257.712" y2="1651.872"/>
      <line x1="307.712" y1="1652.872" x2="257.712" y2="1652.872"/>
      <line x1="307.712" y1="1653.872" x2="257.712" y2="1653.872"/>
      <line x1="307.712" y1="1654.872" x2="257.712" y2="1654.872"/>
      <line x1="307.712" y1="1655.872" x2="257.712" y2="1655.872"/>
      <line x1="307.712" y1="1656.872" x2="257.712" y2="1656.872"/>
      <line x1="307.712" y1="1657.872" x2="257.712" y2="1657.872"/>
      <line x1="307.712" y1="1658.872" x2="257.712" y2="1658.872"/>
      <line x1="307.712" y1="1659.872" x2="257.712" y2="1659.872"/>
      <line x1="307.712" y1="1660.872" x2="257.712" y2="1660.872"/>
      <line x1="307.712" y1="1661.872" x2="257.712" y2="1661.872"/>
      <line x1="307.712" y1="1662.872" x2="257.712" y2="1662.872"/>
      <line x1="307.712" y1="1663.872" x2="257.712" y2="1663.872"/>
      <line x1="307.712" y1="1664.872" x2="257.712" y2="1664.872"/>
      <line x1="307.712" y1="1665.872" x2="257.712" y2="1665.872"/>
      <line x1="307.712" y1="1666.872" x2="257.712" y2="1666.872"/>
      <line x1="307.712" y1="1667.872" x2="257.712" y2="1667.872"/>
      <line x1="307.712" y1="1668.872" x2="257.712" y2="1668.872"/>
      <line x1="307.712" y1="1669.872" x2="257.712" y2="1669.872"/>
      <line x1="307.712" y1="1670.872" x2="257.712" y2="1670.872"/>
      <line x1="307.712" y1="1671.872" x2="257.712" y2="1671.872"/>
      <line x1="307.712" y1="1672.872" x2="257.712" y2="1672.872"/>
      <line x1="307.712" y1="1673.872" x2="257.712" y2="1673.872"/>
      <line x1="307.712" y1="1674.872" x2="257.712" y2="1674.872"/>
      <line x1="307.712" y1="1675.872" x2="257.712" y2="1675.872"/>
      <line x1="307.712" y1="1676.872" x2="257.712" y2="1676.872"/>
      <line x1="307.712" y1="1677.872" x2="257.712" y2="1677.872"/>
      <line x1="307.712" y1="1678.872" x2="257.712" y2="1678.872"/>
      <line x1="357.812" y1="1629.872" x2="307.812" y2="1629.872"/>
      <line x1="357.812" y1="1630.872" x2="307.812" y2="1630.872"/>
      <line x1="357.812" y1="1631.872" x2="307.812" y2="1631.872"/>
      <line x1="357.812" y1="1632.872" x2="307.812" y2="1632.872"/>
      <line x1="357.812" y1="1633.872" x2="307.812" y2="1633.872"/>
      <line x1="357.812" y1="1634.872" x2="307.812" y2="1634.872"/>
      <line x1="357.812" y1="1635.872" x2="307.812" y2="1635.872"/>
      <line x1="357.812" y1="1636.872" x2="307.812" y2="1636.872"/>
      <line x1="357.812" y1="1637.872" x2="307.812" y2="1637.872"/>
      <line x1="357.812" y1="1638.872" x2="307.812" y2="1638.872"/>
      <line x1="357.812" y1="1639.872" x2="307.812" y2="1639.872"/>
      <line x1="357.812" y1="1640.872" x2="307.812" y2="1640.872"/>
      <line x1="357.812" y1="1641.872" x2="307.812" y2="1641.872"/>
      <line x1="357.812" y1="1642.872" x2="307.812" y2="1642.872"/>
      <line x1="357.812" y1="1643.872" x2="307.812" y2="1643.872"/>
      <line x1="357.812" y1="1644.872" x2="307.812" y2="1644.872"/>
      <line x1="357.812" y1="1645.872" x2="307.812" y2="1645.872"/>
      <line x1="357.812" y1="1646.872" x2="307.812" y2="1646.872"/>
      <line x1="357.812" y1="1647.872" x2="307.812" y2="1647.872"/>
      <line x1="357.812" y1="1648.872" x2="307.812" y2="1648.872"/>
      <line x1="357.812" y1="1649.872" x2="307.812" y2="1649.872"/>
      <line x1="357.812" y1="1650.872" x2="307.812" y2="1650.872"/>
      <line x1="357.812" y1="1651.872" x2="307.812" y2="1651.872"/>
      <line x1="357.812" y1="1652.872" x2="307.812" y2="1652.872"/>
      <line x1="357.812" y1="1653.872" x2="307.812" y2="1653.872"/>
      <line x1="357.812" y1="1654.872" x2="307.812" y2="1654.872"/>
      <line x1="357.812" y1="1655.872" x2="307.812" y2="1655.872"/>
      <line x1="357.812" y1="1656.872" x2="307.812" y2="1656.872"/>
      <line x1="357.812" y1="1657.872" x2="307.812" y2="1657.872"/>
      <line x1="357.812" y1="1658.872" x2="307.812" y2="1658.872"/>
      <line x1="357.812" y1="1659.872" x2="307.812" y2="1659.872"/>
      <line x1="357.812" y1="1660.872" x2="307.812" y2="1660.872"/>
      <line x1="357.812" y1="1661.872" x2="307.812" y2="1661.872"/>
      <line x1="357.812" y1="1662.872" x2="307.812" y2="1662.872"/>
      <line x1="357.812" y1="1663.872" x2="307.812" y2="1663.872"/>
      <line x1="357.812" y1="1664.872" x2="307.812" y2="1664.872"/>
      <line x1="357.812" y1="1665.872" x2="307.812" y2="1665.872"/>
      <line x1="357.812" y1="1666.872" x2="307.812" y2="1666.872"/>
      <line x1="357.812" y1="1667.872" x2="307.812" y2="1667.872"/>
      <line x1="357.812" y1="1668.872" x2="307.812" y2="1668.872"/>
      <line x1="357.812" y1="1669.872" x2="307.812" y2="1669.872"/>
      <line x1="357.812" y1="1670.872" x2="307.812" y2="1670.872"/>
      <line x1="357.812" y1="1671.872" x2="307.812" y2="1671.872"/>
      <line x1="357.812" y1="1672.872" x2="307.812" y2="1672.872"/>
      <line x1="357.812" y1="1673.872" x2="307.812" y2="1673.872"/>
      <line x1="357.812" y1="1674.872" x2="307.812" y2="1674.872"/>
      <line x1="357.812" y1="1675.872" x2="307.812" y2="1675.872"/>
      <line x1="357.812" y1="1676.872" x2="307.812" y2="1676.872"/>
      <line x1="357.812" y1="1677.872" x2="307.812" y2="1677.872"/>
      <line x1="357.812" y1="1678.872" x2="307.812" y2="1678.872"/>
      <line x1="407.912" y1="1629.872" x2="357.912" y2="1629.872"/>
      <line x1="407.912" y1="1630.872" x2="357.912" y2="1630.872"/>
      <line x1="407.912" y1="1631.872" x2="357.912" y2="1631.872"/>
      <line x1="407.912" y1="1632.872" x2="357.912" y2="1632.872"/>
      <line x1="407.912" y1="1633.872" x2="357.912" y2="1633.872"/>
      <line x1="407.912" y1="1634.872" x2="357.912" y2="1634.872"/>
      <line x1="407.912" y1="1635.872" x2="357.912" y2="1635.872"/>
      <line x1="407.912" y1="1636.872" x2="357.912" y2="1636.872"/>
      <line x1="407.912" y1="1637.872" x2="357.912" y2="1637.872"/>
      <line x1="407.912" y1="1638.872" x2="357.912" y2="1638.872"/>
      <line x1="407.912" y1="1639.872" x2="357.912" y2="1639.872"/>
      <line x1="407.912" y1="1640.872" x2="357.912" y2="1640.872"/>
      <line x1="407.912" y1="1641.872" x2="357.912" y2="1641.872"/>
      <line x1="407.912" y1="1642.872" x2="357.912" y2="1642.872"/>
      <line x1="407.912" y1="1643.872" x2="357.912" y2="1643.872"/>
      <line x1="407.912" y1="1644.872" x2="357.912" y2="1644.872"/>
      <line x1="407.912" y1="1645.872" x2="357.912" y2="1645.872"/>
      <line x1="407.912" y1="1646.872" x2="357.912" y2="1646.872"/>
      <line x1="407.912" y1="1647.872" x2="357.912" y2="1647.872"/>
      <line x1="407.912" y1="1648.872" x2="357.912" y2="1648.872"/>
      <line x1="407.912" y1="1649.872" x2="357.912" y2="1649.872"/>
      <line x1="407.912" y1="1650.872" x2="357.912" y2="1650.872"/>
      <line x1="407.912" y1="1651.872" x2="357.912" y2="1651.872"/>
      <line x1="407.912" y1="1652.872" x2="357.912" y2="1652.872"/>
      <line x1="407.912" y1="1653.872" x2="357.912" y2="1653.872"/>
      <line x1="407.912" y1="1654.872" x2="357.912" y2="1654.872"/>
      <line x1="407.912" y1="1655.872" x2="357.912" y2="1655.872"/>
      <line x1="407.912" y1="1656.872" x2="357.912" y2="1656.872"/>
      <line x1="407.912" y1="1657.872" x2="357.912" y2="1657.872"/>
      <line x1="407.912" y1="1658.872" x2="357.912" y2="1658.872"/>
      <line x1="407.912" y1="1659.872" x2="357.912" y2="1659.872"/>
      <line x1="407.912" y1="1660.872" x2="357.912" y2="1660.872"/>
      <line x1="407.912" y1="1661.872" x2="357.912" y2="1661.872"/>
      <line x1="407.912" y1="1662.872" x2="357.912" y2="1662.872"/>
      <line x1="407.912" y1="1663.872" x2="357.912" y2="1663.872"/>
      <line x1="407.912" y1="1664.872" x2="357.912" y2="1664.872"/>
      <line x1="407.912" y1="1665.872" x2="357.912" y2="1665.872"/>
      <line x1="407.912" y1="1666.872" x2="357.912" y2="1666.872"/>
      <line x1="407.912" y1="1667.872" x2="357.912" y2="1667.872"/>
      <line x1="407.912" y1="1668.872" x2="357.912" y2="1668.872"/>
      <line x1="407.912" y1="1669.872" x2="357.912" y2="1669.872"/>
      <line x1="407.912" y1="1670.872" x2="357.912" y2="1670.872"/>
      <line x1="407.912" y1="1671.872" x2="357.912" y2="1671.872"/>
      <line x1="407.912" y1="1672.872" x2="357.912" y2="1672.872"/>
      <line x1="407.912" y1="1673.872" x2="357.912" y2="1673.872"/>
      <line x1="407.912" y1="1674.872" x2="357.912" y2="1674.872"/>
      <line x1="407.912" y1="1675.872" x2="357.912" y2="1675.872"/>
      <line x1="407.912" y1="1676.872" x2="357.912" y2="1676.872"/>
      <line x1="407.912" y1="1677.872" x2="357.912" y2="1677.872"/>
      <line x1="407.912" y1="1678.872" x2="357.912" y2="1678.872"/>
      <line x1="458.012" y1="1629.872" x2="408.012" y2="1629.872"/>
      <line x1="458.012" y1="1630.872" x2="408.012" y2="1630.872"/>
      <line x1="458.012" y1="1631.872" x2="408.012" y2="1631.872"/>
      <line x1="458.012" y1="1632.872" x2="408.012" y2="1632.872"/>
      <line x1="458.012" y1="1633.872" x2="408.012" y2="1633.872"/>
      <line x1="458.012" y1="1634.872" x2="408.012" y2="1634.872"/>
      <line x1="458.012" y1="1635.872" x2="408.012" y2="1635.872"/>
      <line x1="458.012" y1="1636.872" x2="408.012" y2="1636.872"/>
      <line x1="458.012" y1="1637.872" x2="408.012" y2="1637.872"/>
      <line x1="458.012" y1="1638.872" x2="408.012" y2="1638.872"/>
      <line x1="458.012" y1="1639.872" x2="408.012" y2="1639.872"/>
      <line x1="458.012" y1="1640.872" x2="408.012" y2="1640.872"/>
      <line x1="458.012" y1="1641.872" x2="408.012" y2="1641.872"/>
      <line x1="458.012" y1="1642.872" x2="408.012" y2="1642.872"/>
      <line x1="458.012" y1="1643.872" x2="408.012" y2="1643.872"/>
      <line x1="458.012" y1="1644.872" x2="408.012" y2="1644.872"/>
      <line x1="458.012" y1="1645.872" x2="408.012" y2="1645.872"/>
      <line x1="458.012" y1="1646.872" x2="408.012" y2="1646.872"/>
      <line x1="458.012" y1="1647.872" x2="408.012" y2="1647.872"/>
      <line x1="458.012" y1="1648.872" x2="408.012" y2="1648.872"/>
      <line x1="458.012" y1="1649.872" x2="408.012" y2="1649.872"/>
      <line x1="458.012" y1="1650.872" x2="408.012" y2="1650.872"/>
      <line x1="458.012" y1="1651.872" x2="408.012" y2="1651.872"/>
      <line x1="458.012" y1="1652.872" x2="408.012" y2="1652.872"/>
      <line x1="458.012" y1="1653.872" x2="408.012" y2="1653.872"/>
      <line x1="458.012" y1="1654.872" x2="408.012" y2="1654.872"/>
      <line x1="458.012" y1="1655.872" x2="408.012" y2="1655.872"/>
      <line x1="458.012" y1="1656.872" x2="408.012" y2="1656.872"/>
      <line x1="458.012" y1="1657.872" x2="408.012" y2="1657.872"/>
      <line x1="458.012" y1="1658.872" x2="408.012" y2="1658.872"/>
      <line x1="458.012" y1="1659.872" x2="408.012" y2="1659.872"/>
      <line x1="458.012" y1="1660.872" x2="408.012" y2="1660.872"/>
      <line x1="458.012" y1="1661.872" x2="408.012" y2="1661.872"/>
      <line x1="458.012" y1="1662.872" x2="408.012" y2="1662.872"/>
      <line x1="458.012" y1="1663.872" x2="408.012" y2="1663.872"/>
      <line x1="458.012" y1="1664.872" x2="408.012" y2="1664.872"/>
      <line x1="458.012" y1="1665.872" x2="408.012" y2="1665.872"/>
      <line x1="458.012" y1="1666.872" x2="408.012" y2="1666.872"/>
      <line x1="458.012" y1="1667.872" x2="408.012" y2="1667.872"/>
      <line x1="458.012" y1="1668.872" x2="408.012" y2="1668.872"/>
      <line x1="458.012" y1="1669.872" x2="408.012" y2="1669.872"/>
      <line x1="458.012" y1="1670.872" x2="408.012" y2="1670.872"/>
      <line x1="458.012" y1="1671.872" x2="408.012" y2="1671.872"/>
      <line x1="458.012" y1="1672.872" x2="408.012" y2="1672.872"/>
      <line x1="458.012" y1="1673.872" x2="408.012" y2="1673.872"/>
      <line x1="458.012" y1="1674.872" x2="408.012" y2="1674.872"/>
      <line x1="458.012" y1="1675.872" x2="408.012" y2="1675.872"/>
      <line x1="458.012" y1="1676.872" x2="408.012" y2="1676.872"/>
      <line x1="458.012" y1="1677.872" x2="408.012" y2="1677.872"/>
      <line x1="458.012" y1="1678.872" x2="408.012" y2="1678.872"/>
      <line x1="492.588" y1="1629.872" x2="458.112" y2="1629.872"/>
      <line x1="492.588" y1="1630.872" x2="458.112" y2="1630.872"/>
      <line x1="492.588" y1="1631.872" x2="458.112" y2="1631.872"/>
      <line x1="492.588" y1="1632.872" x2="458.112" y2="1632.872"/>
      <line x1="492.588" y1="1633.872" x2="458.112" y2="1633.872"/>
      <line x1="492.588" y1="1634.872" x2="458.112" y2="1634.872"/>
      <line x1="492.588" y1="1635.872" x2="458.112" y2="1635.872"/>
      <line x1="492.588" y1="1636.872" x2="458.112" y2="1636.872"/>
      <line x1="492.588" y1="1637.872" x2="458.112" y2="1637.872"/>
      <line x1="492.588" y1="1638.872" x2="458.112" y2="1638.872"/>
      <line x1="492.588" y1="1639.872" x2="458.112" y2="1639.872"/>
      <line x1="492.588" y1="1640.872" x2="458.112" y2="1640.872"/>
      <line x1="492.588" y1="1641.872" x2="458.112" y2="1641.872"/>
      <line x1="492.588" y1="1642.872" x2="458.112" y2="1642.872"/>
      <line x1="492.588" y1="1643.872" x2="458.112" y2="1643.872"/>
      <line x1="492.588" y1="1644.872" x2="458.112" y2="1644.872"/>
      <line x1="492.588" y1="1645.872" x2="458.112" y2="1645.872"/>
      <line x1="492.588" y1="1646.872" x2="458.112" y2="1646.872"/>
      <line x1="492.588" y1="1647.872" x2="458.112" y2="1647.872"/>
      <line x1="492.588" y1="1648.872" x2="458.112" y2="1648.872"/>
      <line x1="492.588" y1="1649.872" x2="458.112" y2="1649.872"/>
      <line x1="492.588" y1="1650.872" x2="458.112" y2="1650.872"/>
      <line x1="492.588" y1="1651.872" x2="458.112" y2="1651.872"/>
      <line x1="492.588" y1="1652.872" x2="458.112" y2="1652.872"/>
      <line x1="492.588" y1="1653.872" x2="458.112" y2="1653.872"/>
      <line x1="492.588" y1="1654.872" x2="458.112" y2="1654.872"/>
      <line x1="492.588" y1="1655.872" x2="458.112" y2="1655.872"/>
      <line x1="492.588" y1="1656.872" x2="458.112" y2="1656.872"/>
      <line x1="492.588" y1="1657.872" x2="458.112" y2="1657.872"/>
      <line x1="492.588" y1="1658.872" x2="458.112" y2="1658.872"/>
      <line x1="492.588" y1="1659.872" x2="458.112" y2="1659.872"/>
      <line x1="492.588" y1="1660.872" x2="458.112" y2="1660.872"/>
      <line x1="492.588" y1="1661.872" x2="458.112" y2="1661.872"/>
      <line x1="492.588" y1="1662.872" x2="458.112" y2="1662.872"/>
      <line x1="492.588" y1="1663.872" x2="458.112" y2="1663.872"/>
      <line x1="492.588" y1="1664.872" x2="458.112" y2="1664.872"/>
      <line x1="492.588" y1="1665.872" x2="458.112" y2="1665.872"/>
      <line x1="492.588" y1="1666.872" x2="458.112" y2="1666.872"/>
      <line x1="492.588" y1="1667.872" x2="458.112" y2="1667.872"/>
      <line x1="492.588" y1="1668.872" x2="458.112" y2="1668.872"/>
      <line x1="492.588" y1="1669.872" x2="458.112" y2="1669.872"/>
      <line x1="492.588" y1="1670.872" x2="458.112" y2="1670.872"/>
      <line x1="492.588" y1="1671.872" x2="458.112" y2="1671.872"/>
      <line x1="492.588" y1="1672.872" x2="458.112" y2="1672.872"/>
      <line x1="492.588" y1="1673.872" x2="458.112" y2="1673.872"/>
      <line x1="492.588" y1="1674.872" x2="458.112" y2="1674.872"/>
      <line x1="492.588" y1="1675.872" x2="458.112" y2="1675.872"/>
      <line x1="492.588" y1="1676.872" x2="458.112" y2="1676.872"/>
      <line x1="492.588" y1="1677.872" x2="458.112" y2="1677.872"/>
      <line x1="492.588" y1="1678.872" x2="458.112" y2="1678.872"/>
      <line x1="157.412" y1="1579.872" x2="107.412" y2="1579.872"/>
      <line x1="157.412" y1="1580.872" x2="107.412" y2="1580.872"/>
      <line x1="157.412" y1="1581.872" x2="107.412" y2="1581.872"/>
      <line x1="157.412" y1="1582.872" x2="107.412" y2="1582.872"/>
      <line x1="157.412" y1="1583.872" x2="107.412" y2="1583.872"/>
      <line x1="157.412" y1="1584.872" x2="107.412" y2="1584.872"/>
      <line x1="157.412" y1="1585.872" x2="107.412" y2="1585.872"/>
      <line x1="157.412" y1="1586.872" x2="107.412" y2="1586.872"/>
      <line x1="157.412" y1="1587.872" x2="107.412" y2="1587.872"/>
      <line x1="157.412" y1="1588.872" x2="107.412" y2="1588.872"/>
      <line x1="157.412" y1="1589.872" x2="107.412" y2="1589.872"/>
      <line x1="157.412" y1="1590.872" x2="107.412" y2="1590.872"/>
      <line x1="157.412" y1="1591.872" x2="107.412" y2="1591.872"/>
      <line x1="157.412" y1="1592.872" x2="107.412" y2="1592.872"/>
      <line x1="157.412" y1="1593.872" x2="107.412" y2="1593.872"/>
      <line x1="157.412" y1="1594.872" x2="107.412" y2="1594.872"/>
      <line x1="157.412" y1="1595.872" x2="107.412" y2="1595.872"/>
      <line x1="157.412" y1="1596.872" x2="107.412" y2="1596.872"/>
      <line x1="157.412" y1="1597.872" x2="107.412" y2="1597.872"/>
      <line x1="157.412" y1="1598.872" x2="107.412" y2="1598.872"/>
      <line x1="157.412" y1="1599.872" x2="107.412" y2="1599.872"/>
      <line x1="157.412" y1="1600.872" x2="107.412" y2="1600.872"/>
      <line x1="157.412" y1="1601.872" x2="107.412" y2="1601.872"/>
      <line x1="157.412" y1="1602.872" x2="107.412" y2="1602.872"/>
      <line x1="157.412" y1="1603.872" x2="107.412" y2="1603.872"/>
      <line x1="157.412" y1="1604.872" x2="107.412" y2="1604.872"/>
      <line x1="157.412" y1="1605.872" x2="107.412" y2="1605.872"/>
      <line x1="157.412" y1="1606.872" x2="107.412" y2="1606.872"/>
      <line x1="157.412" y1="1607.872" x2="107.412" y2="1607.872"/>
      <line x1="157.412" y1="1608.872" x2="107.412" y2="1608.872"/>
      <line x1="157.412" y1="1609.872" x2="107.412" y2="1609.872"/>
      <line x1="157.412" y1="1610.872" x2="107.412" y2="1610.872"/>
      <line x1="157.412" y1="1611.872" x2="107.412" y2="1611.872"/>
      <line x1="157.412" y1="1612.872" x2="107.412" y2="1612.872"/>
      <line x1="157.412" y1="1613.872" x2="107.412" y2="1613.872"/>
      <line x1="157.412" y1="1614.872" x2="107.412" y2="1614.872"/>
      <line x1="157.412" y1="1615.872" x2="107.412" y2="1615.872"/>
      <line x1="157.412" y1="1616.872" x2="107.412" y2="1616.872"/>
      <line x1="157.412" y1="1617.872" x2="107.412" y2="1617.872"/>
      <line x1="157.412" y1="1618.872" x2="107.412" y2="1618.872"/>
      <line x1="157.412" y1="1619.872" x2="107.412" y2="1619.872"/>
      <line x1="157.412" y1="1620.872" x2="107.412" y2="1620.872"/>
      <line x1="157.412" y1="1621.872" x2="107.412" y2="1621.872"/>
      <line x1="157.412" y1="1622.872" x2="107.412" y2="1622.872"/>
      <line x1="157.412" y1="1623.872" x2="107.412" y2="1623.872"/>
      <line x1="157.412" y1="1624.872" x2="107.412" y2="1624.872"/>
      <line x1="157.412" y1="1625.872" x2="107.412" y2="1625.872"/>
      <line x1="157.412" y1="1626.872" x2="107.412" y2="1626.872"/>
      <line x1="157.412" y1="1627.872" x2="107.412" y2="1627.872"/>
      <line x1="157.412" y1="1628.872" x2="107.412" y2="1628.872"/>
      <line x1="207.512" y1="1579.872" x2="157.512" y2="1579.872"/>
      <line x1="207.512" y1="1580.872" x2="157.512" y2="1580.872"/>
      <line x1="207.512" y1="1581.872" x2="157.512" y2="1581.872"/>
      <line x1="207.512" y1="1582.872" x2="157.512" y2="1582.872"/>
      <line x1="207.512" y1="1583.872" x2="157.512" y2="1583.872"/>
      <line x1="207.512" y1="1584.872" x2="157.512" y2="1584.872"/>
      <line x1="207.512" y1="1585.872" x2="157.512" y2="1585.872"/>
      <line x1="207.512" y1="1586.872" x2="157.512" y2="1586.872"/>
      <line x1="207.512" y1="1587.872" x2="157.512" y2="1587.872"/>
      <line x1="207.512" y1="1588.872" x2="157.512" y2="1588.872"/>
      <line x1="207.512" y1="1589.872" x2="157.512" y2="1589.872"/>
      <line x1="207.512" y1="1590.872" x2="157.512" y2="1590.872"/>
      <line x1="207.512" y1="1591.872" x2="157.512" y2="1591.872"/>
      <line x1="207.512" y1="1592.872" x2="157.512" y2="1592.872"/>
      <line x1="207.512" y1="1593.872" x2="157.512" y2="1593.872"/>
      <line x1="207.512" y1="1594.872" x2="157.512" y2="1594.872"/>
      <line x1="207.512" y1="1595.872" x2="157.512" y2="1595.872"/>
      <line x1="207.512" y1="1596.872" x2="157.512" y2="1596.872"/>
      <line x1="207.512" y1="1597.872" x2="157.512" y2="1597.872"/>
      <line x1="207.512" y1="1598.872" x2="157.512" y2="1598.872"/>
      <line x1="207.512" y1="1599.872" x2="157.512" y2="1599.872"/>
      <line x1="207.512" y1="1600.872" x2="157.512" y2="1600.872"/>
      <line x1="207.512" y1="1601.872" x2="157.512" y2="1601.872"/>
      <line x1="207.512" y1="1602.872" x2="157.512" y2="1602.872"/>
      <line x1="207.512" y1="1603.872" x2="157.512" y2="1603.872"/>
      <line x1="207.512" y1="1604.872" x2="157.512" y2="1604.872"/>
      <line x1="207.512" y1="1605.872" x2="157.512" y2="1605.872"/>
      <line x1="207.512" y1="1606.872" x2="157.512" y2="1606.872"/>
      <line x1="207.512" y1="1607.872" x2="157.512" y2="1607.872"/>
      <line x1="207.512" y1="1608.872" x2="157.512" y2="1608.872"/>
      <line x1="207.512" y1="1609.872" x2="157.512" y2="1609.872"/>
      <line x1="207.512" y1="1610.872" x2="157.512" y2="1610.872"/>
      <line x1="207.512" y1="1611.872" x2="157.512" y2="1611.872"/>
      <line x1="207.512" y1="1612.872" x2="157.512" y2="1612.872"/>
      <line x1="207.512" y1="1613.872" x2="157.512" y2="1613.872"/>
      <line x1="207.512" y1="1614.872" x2="157.512" y2="1614.872"/>
      <line x1="207.512" y1="1615.872" x2="157.512" y2="1615.872"/>
      <line x1="207.512" y1="1616.872" x2="157.512" y2="1616.872"/>
      <line x1="207.512" y1="1617.872" x2="157.512" y2="1617.872"/>
      <line x1="207.512" y1="1618.872" x2="157.512" y2="1618.872"/>
      <line x1="207.512" y1="1619.872" x2="157.512" y2="1619.872"/>
      <line x1="207.512" y1="1620.872" x2="157.512" y2="1620.872"/>
      <line x1="207.512" y1="1621.872" x2="157.512" y2="1621.872"/>
      <line x1="207.512" y1="1622.872" x2="157.512" y2="1622.872"/>
      <line x1="207.512" y1="1623.872" x2="157.512" y2="1623.872"/>
      <line x1="207.512" y1="1624.872" x2="157.512" y2="1624.872"/>
      <line x1="207.512" y1="1625.872" x2="157.512" y2="1625.872"/>
      <line x1="207.512" y1="1626.872" x2="157.512" y2="1626.872"/>
      <line x1="207.512" y1="1627.872" x2="157.512" y2="1627.872"/>
      <line x1="207.512" y1="1628.872" x2="157.512" y2="1628.872"/>
      <line x1="257.612" y1="1579.872" x2="207.612" y2="1579.872"/>
      <line x1="257.612" y1="1580.872" x2="207.612" y2="1580.872"/>
      <line x1="257.612" y1="1581.872" x2="207.612" y2="1581.872"/>
      <line x1="257.612" y1="1582.872" x2="207.612" y2="1582.872"/>
      <line x1="257.612" y1="1583.872" x2="207.612" y2="1583.872"/>
      <line x1="257.612" y1="1584.872" x2="207.612" y2="1584.872"/>
      <line x1="257.612" y1="1585.872" x2="207.612" y2="1585.872"/>
      <line x1="257.612" y1="1586.872" x2="207.612" y2="1586.872"/>
      <line x1="257.612" y1="1587.872" x2="207.612" y2="1587.872"/>
      <line x1="257.612" y1="1588.872" x2="207.612" y2="1588.872"/>
      <line x1="257.612" y1="1589.872" x2="207.612" y2="1589.872"/>
      <line x1="257.612" y1="1590.872" x2="207.612" y2="1590.872"/>
      <line x1="257.612" y1="1591.872" x2="207.612" y2="1591.872"/>
      <line x1="257.612" y1="1592.872" x2="207.612" y2="1592.872"/>
      <line x1="257.612" y1="1593.872" x2="207.612" y2="1593.872"/>
      <line x1="257.612" y1="1594.872" x2="207.612" y2="1594.872"/>
      <line x1="257.612" y1="1595.872" x2="207.612" y2="1595.872"/>
      <line x1="257.612" y1="1596.872" x2="207.612" y2="1596.872"/>
      <line x1="257.612" y1="1597.872" x2="207.612" y2="1597.872"/>
      <line x1="257.612" y1="1598.872" x2="207.612" y2="1598.872"/>
      <line x1="257.612" y1="1599.872" x2="207.612" y2="1599.872"/>
      <line x1="257.612" y1="1600.872" x2="207.612" y2="1600.872"/>
      <line x1="257.612" y1="1601.872" x2="207.612" y2="1601.872"/>
      <line x1="257.612" y1="1602.872" x2="207.612" y2="1602.872"/>
      <line x1="257.612" y1="1603.872" x2="207.612" y2="1603.872"/>
      <line x1="257.612" y1="1604.872" x2="207.612" y2="1604.872"/>
      <line x1="257.612" y1="1605.872" x2="207.612" y2="1605.872"/>
      <line x1="257.612" y1="1606.872" x2="207.612" y2="1606.872"/>
      <line x1="257.612" y1="1607.872" x2="207.612" y2="1607.872"/>
      <line x1="257.612" y1="1608.872" x2="207.612" y2="1608.872"/>
      <line x1="257.612" y1="1609.872" x2="207.612" y2="1609.872"/>
      <line x1="257.612" y1="1610.872" x2="207.612" y2="1610.872"/>
      <line x1="257.612" y1="1611.872" x2="207.612" y2="1611.872"/>
      <line x1="257.612" y1="1612.872" x2="207.612" y2="1612.872"/>
      <line x1="257.612" y1="1613.872" x2="207.612" y2="1613.872"/>
      <line x1="257.612" y1="1614.872" x2="207.612" y2="1614.872"/>
      <line x1="257.612" y1="1615.872" x2="207.612" y2="1615.872"/>
      <line x1="257.612" y1="1616.872" x2="207.612" y2="1616.872"/>
      <line x1="257.612" y1="1617.872" x2="207.612" y2="1617.872"/>
      <line x1="257.612" y1="1618.872" x2="207.612" y2="1618.872"/>
      <line x1="257.612" y1="1619.872" x2="207.612" y2="1619.872"/>
      <line x1="257.612" y1="1620.872" x2="207.612" y2="1620.872"/>
      <line x1="257.612" y1="1621.872" x2="207.612" y2="1621.872"/>
      <line x1="257.612" y1="1622.872" x2="207.612" y2="1622.872"/>
      <line x1="257.612" y1="1623.872" x2="207.612" y2="1623.872"/>
      <line x1="257.612" y1="1624.872" x2="207.612" y2="1624.872"/>
      <line x1="257.612" y1="1625.872" x2="207.612" y2="1625.872"/>
      <line x1="257.612" y1="1626.872" x2="207.612" y2="1626.872"/>
      <line x1="257.612" y1="1627.872" x2="207.612" y2="1627.872"/>
      <line x1="257.612" y1="1628.872" x2="207.612" y2="1628.872"/>
      <line x1="307.712" y1="1579.872" x2="257.712" y2="1579.872"/>
      <line x1="307.712" y1="1580.872" x2="257.712" y2="1580.872"/>
      <line x1="307.712" y1="1581.872" x2="257.712" y2="1581.872"/>
      <line x1="307.712" y1="1582.872" x2="257.712" y2="1582.872"/>
      <line x1="307.712" y1="1583.872" x2="257.712" y2="1583.872"/>
      <line x1="307.712" y1="1584.872" x2="257.712" y2="1584.872"/>
      <line x1="307.712" y1="1585.872" x2="257.712" y2="1585.872"/>
      <line x1="307.712" y1="1586.872" x2="257.712" y2="1586.872"/>
      <line x1="307.712" y1="1587.872" x2="257.712" y2="1587.872"/>
      <line x1="307.712" y1="1588.872" x2="257.712" y2="1588.872"/>
      <line x1="307.712" y1="1589.872" x2="257.712" y2="1589.872"/>
      <line x1="307.712" y1="1590.872" x2="257.712" y2="1590.872"/>
      <line x1="307.712" y1="1591.872" x2="257.712" y2="1591.872"/>
      <line x1="307.712" y1="1592.872" x2="257.712" y2="1592.872"/>
      <line x1="307.712" y1="1593.872" x2="257.712" y2="1593.872"/>
      <line x1="307.712" y1="1594.872" x2="257.712" y2="1594.872"/>
      <line x1="307.712" y1="1595.872" x2="257.712" y2="1595.872"/>
      <line x1="307.712" y1="1596.872" x2="257.712" y2="1596.872"/>
      <line x1="307.712" y1="1597.872" x2="257.712" y2="1597.872"/>
      <line x1="307.712" y1="1598.872" x2="257.712" y2="1598.872"/>
      <line x1="307.712" y1="1599.872" x2="257.712" y2="1599.872"/>
      <line x1="307.712" y1="1600.872" x2="257.712" y2="1600.872"/>
      <line x1="307.712" y1="1601.872" x2="257.712" y2="1601.872"/>
      <line x1="307.712" y1="1602.872" x2="257.712" y2="1602.872"/>
      <line x1="307.712" y1="1603.872" x2="257.712" y2="1603.872"/>
      <line x1="307.712" y1="1604.872" x2="257.712" y2="1604.872"/>
      <line x1="307.712" y1="1605.872" x2="257.712" y2="1605.872"/>
      <line x1="307.712" y1="1606.872" x2="257.712" y2="1606.872"/>
      <line x1="307.712" y1="1607.872" x2="257.712" y2="1607.872"/>
      <line x1="307.712" y1="1608.872" x2="257.712" y2="1608.872"/>
      <line x1="307.712" y1="1609.872" x2="257.712" y2="1609.872"/>
      <line x1="307.712" y1="1610.872" x2="257.712" y2="1610.872"/>
      <line x1="307.712" y1="1611.872" x2="257.712" y2="1611.872"/>
      <line x1="307.712" y1="1612.872" x2="257.712" y2="1612.872"/>
      <line x1="307.712" y1="1613.872" x2="257.712" y2="1613.872"/>
      <line x1="307.712" y1="1614.872" x2="257.712" y2="1614.872"/>
      <line x1="307.712" y1="1615.872" x2="257.712" y2="1615.872"/>
      <line x1="307.712" y1="1616.872" x2="257.712" y2="1616.872"/>
      <line x1="307.712" y1="1617.872" x2="257.712" y2="1617.872"/>
      <line x1="307.712" y1="1618.872" x2="257.712" y2="1618.872"/>
      <line x1="307.712" y1="1619.872" x2="257.712" y2="1619.872"/>
      <line x1="307.712" y1="1620.872" x2="257.712" y2="1620.872"/>
      <line x1="307.712" y1="1621.872" x2="257.712" y2="1621.872"/>
      <line x1="307.712" y1="1622.872" x2="257.712" y2="1622.872"/>
      <line x1="307.712" y1="1623.872" x2="257.712" y2="1623.872"/>
      <line x1="307.712" y1="1624.872" x2="257.712" y2="1624.872"/>
      <line x1="307.712" y1="1625.872" x2="257.712" y2="1625.872"/>
      <line x1="307.712" y1="1626.872" x2="257.712" y2="1626.872"/>
      <line x1="307.712" y1="1627.872" x2="257.712" y2="1627.872"/>
      <line x1="307.712" y1="1628.872" x2="257.712" y2="1628.872"/>
      <line x1="357.812" y1="1579.872" x2="307.812" y2="1579.872"/>
      <line x1="357.812" y1="1580.872" x2="307.812" y2="1580.872"/>
      <line x1="357.812" y1="1581.872" x2="307.812" y2="1581.872"/>
      <line x1="357.812" y1="1582.872" x2="307.812" y2="1582.872"/>
      <line x1="357.812" y1="1583.872" x2="307.812" y2="1583.872"/>
      <line x1="357.812" y1="1584.872" x2="307.812" y2="1584.872"/>
      <line x1="357.812" y1="1585.872" x2="307.812" y2="1585.872"/>
      <line x1="357.812" y1="1586.872" x2="307.812" y2="1586.872"/>
      <line x1="357.812" y1="1587.872" x2="307.812" y2="1587.872"/>
      <line x1="357.812" y1="1588.872" x2="307.812" y2="1588.872"/>
      <line x1="357.812" y1="1589.872" x2="307.812" y2="1589.872"/>
      <line x1="357.812" y1="1590.872" x2="307.812" y2="1590.872"/>
      <line x1="357.812" y1="1591.872" x2="307.812" y2="1591.872"/>
      <line x1="357.812" y1="1592.872" x2="307.812" y2="1592.872"/>
      <line x1="357.812" y1="1593.872" x2="307.812" y2="1593.872"/>
      <line x1="357.812" y1="1594.872" x2="307.812" y2="1594.872"/>
      <line x1="357.812" y1="1595.872" x2="307.812" y2="1595.872"/>
      <line x1="357.812" y1="1596.872" x2="307.812" y2="1596.872"/>
      <line x1="357.812" y1="1597.872" x2="307.812" y2="1597.872"/>
      <line x1="357.812" y1="1598.872" x2="307.812" y2="1598.872"/>
      <line x1="357.812" y1="1599.872" x2="307.812" y2="1599.872"/>
      <line x1="357.812" y1="1600.872" x2="307.812" y2="1600.872"/>
      <line x1="357.812" y1="1601.872" x2="307.812" y2="1601.872"/>
      <line x1="357.812" y1="1602.872" x2="307.812" y2="1602.872"/>
      <line x1="357.812" y1="1603.872" x2="307.812" y2="1603.872"/>
      <line x1="357.812" y1="1604.872" x2="307.812" y2="1604.872"/>
      <line x1="357.812" y1="1605.872" x2="307.812" y2="1605.872"/>
      <line x1="357.812" y1="1606.872" x2="307.812" y2="1606.872"/>
      <line x1="357.812" y1="1607.872" x2="307.812" y2="1607.872"/>
      <line x1="357.812" y1="1608.872" x2="307.812" y2="1608.872"/>
      <line x1="357.812" y1="1609.872" x2="307.812" y2="1609.872"/>
      <line x1="357.812" y1="1610.872" x2="307.812" y2="1610.872"/>
      <line x1="357.812" y1="1611.872" x2="307.812" y2="1611.872"/>
      <line x1="357.812" y1="1612.872" x2="307.812" y2="1612.872"/>
      <line x1="357.812" y1="1613.872" x2="307.812" y2="1613.872"/>
      <line x1="357.812" y1="1614.872" x2="307.812" y2="1614.872"/>
      <line x1="357.812" y1="1615.872" x2="307.812" y2="1615.872"/>
      <line x1="357.812" y1="1616.872" x2="307.812" y2="1616.872"/>
      <line x1="357.812" y1="1617.872" x2="307.812" y2="1617.872"/>
      <line x1="357.812" y1="1618.872" x2="307.812" y2="1618.872"/>
      <line x1="357.812" y1="1619.872" x2="307.812" y2="1619.872"/>
      <line x1="357.812" y1="1620.872" x2="307.812" y2="1620.872"/>
      <line x1="357.812" y1="1621.872" x2="307.812" y2="1621.872"/>
      <line x1="357.812" y1="1622.872" x2="307.812" y2="1622.872"/>
      <line x1="357.812" y1="1623.872" x2="307.812" y2="1623.872"/>
      <line x1="357.812" y1="1624.872" x2="307.812" y2="1624.872"/>
      <line x1="357.812" y1="1625.872" x2="307.812" y2="1625.872"/>
      <line x1="357.812" y1="1626.872" x2="307.812" y2="1626.872"/>
      <line x1="357.812" y1="1627.872" x2="307.812" y2="1627.872"/>
      <line x1="357.812" y1="1628.872" x2="307.812" y2="1628.872"/>
      <line x1="407.912" y1="1579.872" x2="357.912" y2="1579.872"/>
      <line x1="407.912" y1="1580.872" x2="357.912" y2="1580.872"/>
      <line x1="407.912" y1="1581.872" x2="357.912" y2="1581.872"/>
      <line x1="407.912" y1="1582.872" x2="357.912" y2="1582.872"/>
      <line x1="407.912" y1="1583.872" x2="357.912" y2="1583.872"/>
      <line x1="407.912" y1="1584.872" x2="357.912" y2="1584.872"/>
      <line x1="407.912" y1="1585.872" x2="357.912" y2="1585.872"/>
      <line x1="407.912" y1="1586.872" x2="357.912" y2="1586.872"/>
      <line x1="407.912" y1="1587.872" x2="357.912" y2="1587.872"/>
      <line x1="407.912" y1="1588.872" x2="357.912" y2="1588.872"/>
      <line x1="407.912" y1="1589.872" x2="357.912" y2="1589.872"/>
      <line x1="407.912" y1="1590.872" x2="357.912" y2="1590.872"/>
      <line x1="407.912" y1="1591.872" x2="357.912" y2="1591.872"/>
      <line x1="407.912" y1="1592.872" x2="357.912" y2="1592.872"/>
      <line x1="407.912" y1="1593.872" x2="357.912" y2="1593.872"/>
      <line x1="407.912" y1="1594.872" x2="357.912" y2="1594.872"/>
      <line x1="407.912" y1="1595.872" x2="357.912" y2="1595.872"/>
      <line x1="407.912" y1="1596.872" x2="357.912" y2="1596.872"/>
      <line x1="407.912" y1="1597.872" x2="357.912" y2="1597.872"/>
      <line x1="407.912" y1="1598.872" x2="357.912" y2="1598.872"/>
      <line x1="407.912" y1="1599.872" x2="357.912" y2="1599.872"/>
      <line x1="407.912" y1="1600.872" x2="357.912" y2="1600.872"/>
      <line x1="407.912" y1="1601.872" x2="357.912" y2="1601.872"/>
      <line x1="407.912" y1="1602.872" x2="357.912" y2="1602.872"/>
      <line x1="407.912" y1="1603.872" x2="357.912" y2="1603.872"/>
      <line x1="407.912" y1="1604.872" x2="357.912" y2="1604.872"/>
      <line x1="407.912" y1="1605.872" x2="357.912" y2="1605.872"/>
      <line x1="407.912" y1="1606.872" x2="357.912" y2="1606.872"/>
      <line x1="407.912" y1="1607.872" x2="357.912" y2="1607.872"/>
      <line x1="407.912" y1="1608.872" x2="357.912" y2="1608.872"/>
      <line x1="407.912" y1="1609.872" x2="357.912" y2="1609.872"/>
      <line x1="407.912" y1="1610.872" x2="357.912" y2="1610.872"/>
      <line x1="407.912" y1="1611.872" x2="357.912" y2="1611.872"/>
      <line x1="407.912" y1="1612.872" x2="357.912" y2="1612.872"/>
      <line x1="407.912" y1="1613.872" x2="357.912" y2="1613.872"/>
      <line x1="407.912" y1="1614.872" x2="357.912" y2="1614.872"/>
      <line x1="407.912" y1="1615.872" x2="357.912" y2="1615.872"/>
      <line x1="407.912" y1="1616.872" x2="357.912" y2="1616.872"/>
      <line x1="407.912" y1="1617.872" x2="357.912" y2="1617.872"/>
      <line x1="407.912" y1="1618.872" x2="357.912" y2="1618.872"/>
      <line x1="407.912" y1="1619.872" x2="357.912" y2="1619.872"/>
      <line x1="407.912" y1="1620.872" x2="357.912" y2="1620.872"/>
      <line x1="407.912" y1="1621.872" x2="357.912" y2="1621.872"/>
      <line x1="407.912" y1="1622.872" x2="357.912" y2="1622.872"/>
      <line x1="407.912" y1="1623.872" x2="357.912" y2="1623.872"/>
      <line x1="407.912" y1="1624.872" x2="357.912" y2="1624.872"/>
      <line x1="407.912" y1="1625.872" x2="357.912" y2="1625.872"/>
      <line x1="407.912" y1="1626.872" x2="357.912" y2="1626.872"/>
      <line x1="407.912" y1="1627.872" x2="357.912" y2="1627.872"/>
      <line x1="407.912" y1="1628.872" x2="357.912" y2="1628.872"/>
      <line x1="458.012" y1="1579.872" x2="408.012" y2="1579.872"/>
      <line x1="458.012" y1="1580.872" x2="408.012" y2="1580.872"/>
      <line x1="458.012" y1="1581.872" x2="408.012" y2="1581.872"/>
      <line x1="458.012" y1="1582.872" x2="408.012" y2="1582.872"/>
      <line x1="458.012" y1="1583.872" x2="408.012" y2="1583.872"/>
      <line x1="458.012" y1="1584.872" x2="408.012" y2="1584.872"/>
      <line x1="458.012" y1="1585.872" x2="408.012" y2="1585.872"/>
      <line x1="458.012" y1="1586.872" x2="408.012" y2="1586.872"/>
      <line x1="458.012" y1="1587.872" x2="408.012" y2="1587.872"/>
      <line x1="458.012" y1="1588.872" x2="408.012" y2="1588.872"/>
      <line x1="458.012" y1="1589.872" x2="408.012" y2="1589.872"/>
      <line x1="458.012" y1="1590.872" x2="408.012" y2="1590.872"/>
      <line x1="458.012" y1="1591.872" x2="408.012" y2="1591.872"/>
      <line x1="458.012" y1="1592.872" x2="408.012" y2="1592.872"/>
      <line x1="458.012" y1="1593.872" x2="408.012" y2="1593.872"/>
      <line x1="458.012" y1="1594.872" x2="408.012" y2="1594.872"/>
      <line x1="458.012" y1="1595.872" x2="408.012" y2="1595.872"/>
      <line x1="458.012" y1="1596.872" x2="408.012" y2="1596.872"/>
      <line x1="458.012" y1="1597.872" x2="408.012" y2="1597.872"/>
      <line x1="458.012" y1="1598.872" x2="408.012" y2="1598.872"/>
      <line x1="458.012" y1="1599.872" x2="408.012" y2="1599.872"/>
      <line x1="458.012" y1="1600.872" x2="408.012" y2="1600.872"/>
      <line x1="458.012" y1="1601.872" x2="408.012" y2="1601.872"/>
      <line x1="458.012" y1="1602.872" x2="408.012" y2="1602.872"/>
      <line x1="458.012" y1="1603.872" x2="408.012" y2="1603.872"/>
      <line x1="458.012" y1="1604.872" x2="408.012" y2="1604.872"/>
      <line x1="458.012" y1="1605.872" x2="408.012" y2="1605.872"/>
      <line x1="458.012" y1="1606.872" x2="408.012" y2="1606.872"/>
      <line x1="458.012" y1="1607.872" x2="408.012" y2="1607.872"/>
      <line x1="458.012" y1="1608.872" x2="408.012" y2="1608.872"/>
      <line x1="458.012" y1="1609.872" x2="408.012" y2="1609.872"/>
      <line x1="458.012" y1="1610.872" x2="408.012" y2="1610.872"/>
      <line x1="458.012" y1="1611.872" x2="408.012" y2="1611.872"/>
      <line x1="458.012" y1="1612.872" x2="408.012" y2="1612.872"/>
      <line x1="458.012" y1="1613.872" x2="408.012" y2="1613.872"/>
      <line x1="458.012" y1="1614.872" x2="408.012" y2="1614.872"/>
      <line x1="458.012" y1="1615.872" x2="408.012" y2="1615.872"/>
      <line x1="458.012" y1="1616.872" x2="408.012" y2="1616.872"/>
      <line x1="458.012" y1="1617.872" x2="408.012" y2="1617.872"/>
      <line x1="458.012" y1="1618.872" x2="408.012" y2="1618.872"/>
      <line x1="458.012" y1="1619.872" x2="408.012" y2="1619.872"/>
      <line x1="458.012" y1="1620.872" x2="408.012" y2="1620.872"/>
      <line x1="458.012" y1="1621.872" x2="408.012" y2="1621.872"/>
      <line x1="458.012" y1="1622.872" x2="408.012" y2="1622.872"/>
      <line x1="458.012" y1="1623.872" x2="408.012" y2="1623.872"/>
      <line x1="458.012" y1="1624.872" x2="408.012" y2="1624.872"/>
      <line x1="458.012" y1="1625.872" x2="408.012" y2="1625.872"/>
      <line x1="458.012" y1="1626.872" x2="408.012" y2="1626.872"/>
      <line x1="458.012" y1="1627.872" x2="408.012" y2="1627.872"/>
      <line x1="458.012" y1="1628.872" x2="408.012" y2="1628.872"/>
      <line x1="492.588" y1="1579.872" x2="458.112" y2="1579.872"/>
      <line x1="492.588" y1="1580.872" x2="458.112" y2="1580.872"/>
      <line x1="492.588" y1="1581.872" x2="458.112" y2="1581.872"/>
      <line x1="492.588" y1="1582.872" x2="458.112" y2="1582.872"/>
      <line x1="492.588" y1="1583.872" x2="458.112" y2="1583.872"/>
      <line x1="492.588" y1="1584.872" x2="458.112" y2="1584.872"/>
      <line x1="492.588" y1="1585.872" x2="458.112" y2="1585.872"/>
      <line x1="492.588" y1="1586.872" x2="458.112" y2="1586.872"/>
      <line x1="492.588" y1="1587.872" x2="458.112" y2="1587.872"/>
      <line x1="492.588" y1="1588.872" x2="458.112" y2="1588.872"/>
      <line x1="492.588" y1="1589.872" x2="458.112" y2="1589.872"/>
      <line x1="492.588" y1="1590.872" x2="458.112" y2="1590.872"/>
      <line x1="492.588" y1="1591.872" x2="458.112" y2="1591.872"/>
      <line x1="492.588" y1="1592.872" x2="458.112" y2="1592.872"/>
      <line x1="492.588" y1="1593.872" x2="458.112" y2="1593.872"/>
      <line x1="492.588" y1="1594.872" x2="458.112" y2="1594.872"/>
      <line x1="492.588" y1="1595.872" x2="458.112" y2="1595.872"/>
      <line x1="492.588" y1="1596.872" x2="458.112" y2="1596.872"/>
      <line x1="492.588" y1="1597.872" x2="458.112" y2="1597.872"/>
      <line x1="492.588" y1="1598.872" x2="458.112" y2="1598.872"/>
      <line x1="492.588" y1="1599.872" x2="458.112" y2="1599.872"/>
      <line x1="492.588" y1="1600.872" x2="458.112" y2="1600.872"/>
      <line x1="492.588" y1="1601.872" x2="458.112" y2="1601.872"/>
      <line x1="492.588" y1="1602.872" x2="458.112" y2="1602.872"/>
      <line x1="492.588" y1="1603.872" x2="458.112" y2="1603.872"/>
      <line x1="492.588" y1="1604.872" x2="458.112" y2="1604.872"/>
      <line x1="492.588" y1="1605.872" x2="458.112" y2="1605.872"/>
      <line x1="492.588" y1="1606.872" x2="458.112" y2="1606.872"/>
      <line x1="492.588" y1="1607.872" x2="458.112" y2="1607.872"/>
      <line x1="492.588" y1="1608.872" x2="458.112" y2="1608.872"/>
      <line x1="492.588" y1="1609.872" x2="458.112" y2="1609.872"/>
      <line x1="492.588" y1="1610.872" x2="458.112" y2="1610.872"/>
      <line x1="492.588" y1="1611.872" x2="458.112" y2="1611.872"/>
      <line x1="492.588" y1="1612.872" x2="458.112" y2="1612.872"/>
      <line x1="492.588" y1="1613.872" x2="458.112" y2="1613.872"/>
      <line x1="492.588" y1="1614.872" x2="458.112" y2="1614.872"/>
      <line x1="492.588" y1="1615.872" x2="458.112" y2="1615.872"/>
      <line x1="492.588" y1="1616.872" x2="458.112" y2="1616.872"/>
      <line x1="492.588" y1="1617.872" x2="458.112" y2="1617.872"/>
      <line x1="492.588" y1="1618.872" x2="458.112" y2="1618.872"/>
      <line x1="492.588" y1="1619.872" x2="458.112" y2="1619.872"/>
      <line x1="492.588" y1="1620.872" x2="458.112" y2="1620.872"/>
      <line x1="492.588" y1="1621.872" x2="458.112" y2="1621.872"/>
      <line x1="492.588" y1="1622.872" x2="458.112" y2="1622.872"/>
      <line x1="492.588" y1="1623.872" x2="458.112" y2="1623.872"/>
      <line x1="492.588" y1="1624.872" x2="458.112" y2="1624.872"/>
      <line x1="492.588" y1="1625.872" x2="458.112" y2="1625.872"/>
      <line x1="492.588" y1="1626.872" x2="458.112" y2="1626.872"/>
      <line x1="492.588" y1="1627.872" x2="458.112" y2="1627.872"/>
      <line x1="492.588" y1="1628.872" x2="458.112" y2="1628.872"/>
      <line x1="157.412" y1="1529.872" x2="107.412" y2="1529.872"/>
      <line x1="157.412" y1="1530.872" x2="107.412" y2="1530.872"/>
      <line x1="157.412" y1="1531.872" x2="107.412" y2="1531.872"/>
      <line x1="157.412" y1="1532.872" x2="107.412" y2="1532.872"/>
      <line x1="157.412" y1="1533.872" x2="107.412" y2="1533.872"/>
      <line x1="157.412" y1="1534.872" x2="107.412" y2="1534.872"/>
      <line x1="157.412" y1="1535.872" x2="107.412" y2="1535.872"/>
      <line x1="157.412" y1="1536.872" x2="107.412" y2="1536.872"/>
      <line x1="157.412" y1="1537.872" x2="107.412" y2="1537.872"/>
      <line x1="157.412" y1="1538.872" x2="107.412" y2="1538.872"/>
      <line x1="157.412" y1="1539.872" x2="107.412" y2="1539.872"/>
      <line x1="157.412" y1="1540.872" x2="107.412" y2="1540.872"/>
      <line x1="157.412" y1="1541.872" x2="107.412" y2="1541.872"/>
      <line x1="157.412" y1="1542.872" x2="107.412" y2="1542.872"/>
      <line x1="157.412" y1="1543.872" x2="107.412" y2="1543.872"/>
      <line x1="157.412" y1="1544.872" x2="107.412" y2="1544.872"/>
      <line x1="157.412" y1="1545.872" x2="107.412" y2="1545.872"/>
      <line x1="157.412" y1="1546.872" x2="107.412" y2="1546.872"/>
      <line x1="157.412" y1="1547.872" x2="107.412" y2="1547.872"/>
      <line x1="157.412" y1="1548.872" x2="107.412" y2="1548.872"/>
      <line x1="157.412" y1="1549.872" x2="107.412" y2="1549.872"/>
      <line x1="157.412" y1="1550.872" x2="107.412" y2="1550.872"/>
      <line x1="157.412" y1="1551.872" x2="107.412" y2="1551.872"/>
      <line x1="157.412" y1="1552.872" x2="107.412" y2="1552.872"/>
      <line x1="157.412" y1="1553.872" x2="107.412" y2="1553.872"/>
      <line x1="157.412" y1="1554.872" x2="107.412" y2="1554.872"/>
      <line x1="157.412" y1="1555.872" x2="107.412" y2="1555.872"/>
      <line x1="157.412" y1="1556.872" x2="107.412" y2="1556.872"/>
      <line x1="157.412" y1="1557.872" x2="107.412" y2="1557.872"/>
      <line x1="157.412" y1="1558.872" x2="107.412" y2="1558.872"/>
      <line x1="157.412" y1="1559.872" x2="107.412" y2="1559.872"/>
      <line x1="157.412" y1="1560.872" x2="107.412" y2="1560.872"/>
      <line x1="157.412" y1="1561.872" x2="107.412" y2="1561.872"/>
      <line x1="157.412" y1="1562.872" x2="107.412" y2="1562.872"/>
      <line x1="157.412" y1="1563.872" x2="107.412" y2="1563.872"/>
      <line x1="157.412" y1="1564.872" x2="107.412" y2="1564.872"/>
      <line x1="157.412" y1="1565.872" x2="107.412" y2="1565.872"/>
      <line x1="157.412" y1="1566.872" x2="107.412" y2="1566.872"/>
      <line x1="157.412" y1="1567.872" x2="107.412" y2="1567.872"/>
      <line x1="157.412" y1="1568.872" x2="107.412" y2="1568.872"/>
      <line x1="157.412" y1="1569.872" x2="107.412" y2="1569.872"/>
      <line x1="157.412" y1="1570.872" x2="107.412" y2="1570.872"/>
      <line x1="157.412" y1="1571.872" x2="107.412" y2="1571.872"/>
      <line x1="157.412" y1="1572.872" x2="107.412" y2="1572.872"/>
      <line x1="157.412" y1="1573.872" x2="107.412" y2="1573.872"/>
      <line x1="157.412" y1="1574.872" x2="107.412" y2="1574.872"/>
      <line x1="157.412" y1="1575.872" x2="107.412" y2="1575.872"/>
      <line x1="157.412" y1="1576.872" x2="107.412" y2="1576.872"/>
      <line x1="157.412" y1="1577.872" x2="107.412" y2="1577.872"/>
      <line x1="157.412" y1="1578.872" x2="107.412" y2="1578.872"/>
      <line x1="207.512" y1="1529.872" x2="157.512" y2="1529.872"/>
      <line x1="207.512" y1="1530.872" x2="157.512" y2="1530.872"/>
      <line x1="207.512" y1="1531.872" x2="157.512" y2="1531.872"/>
      <line x1="207.512" y1="1532.872" x2="157.512" y2="1532.872"/>
      <line x1="207.512" y1="1533.872" x2="157.512" y2="1533.872"/>
      <line x1="207.512" y1="1534.872" x2="157.512" y2="1534.872"/>
      <line x1="207.512" y1="1535.872" x2="157.512" y2="1535.872"/>
      <line x1="207.512" y1="1536.872" x2="157.512" y2="1536.872"/>
      <line x1="207.512" y1="1537.872" x2="157.512" y2="1537.872"/>
      <line x1="207.512" y1="1538.872" x2="157.512" y2="1538.872"/>
      <line x1="207.512" y1="1539.872" x2="157.512" y2="1539.872"/>
      <line x1="207.512" y1="1540.872" x2="157.512" y2="1540.872"/>
      <line x1="207.512" y1="1541.872" x2="157.512" y2="1541.872"/>
      <line x1="207.512" y1="1542.872" x2="157.512" y2="1542.872"/>
      <line x1="207.512" y1="1543.872" x2="157.512" y2="1543.872"/>
      <line x1="207.512" y1="1544.872" x2="157.512" y2="1544.872"/>
      <line x1="207.512" y1="1545.872" x2="157.512" y2="1545.872"/>
      <line x1="207.512" y1="1546.872" x2="157.512" y2="1546.872"/>
      <line x1="207.512" y1="1547.872" x2="157.512" y2="1547.872"/>
      <line x1="207.512" y1="1548.872" x2="157.512" y2="1548.872"/>
      <line x1="207.512" y1="1549.872" x2="157.512" y2="1549.872"/>
      <line x1="207.512" y1="1550.872" x2="157.512" y2="1550.872"/>
      <line x1="207.512" y1="1551.872" x2="157.512" y2="1551.872"/>
      <line x1="207.512" y1="1552.872" x2="157.512" y2="1552.872"/>
      <line x1="207.512" y1="1553.872" x2="157.512" y2="1553.872"/>
      <line x1="207.512" y1="1554.872" x2="157.512" y2="1554.872"/>
      <line x1="207.512" y1="1555.872" x2="157.512" y2="1555.872"/>
      <line x1="207.512" y1="1556.872" x2="157.512" y2="1556.872"/>
      <line x1="207.512" y1="1557.872" x2="157.512" y2="1557.872"/>
      <line x1="207.512" y1="1558.872" x2="157.512" y2="1558.872"/>
      <line x1="207.512" y1="1559.872" x2="157.512" y2="1559.872"/>
      <line x1="207.512" y1="1560.872" x2="157.512" y2="1560.872"/>
      <line x1="207.512" y1="1561.872" x2="157.512" y2="1561.872"/>
      <line x1="207.512" y1="1562.872" x2="157.512" y2="1562.872"/>
      <line x1="207.512" y1="1563.872" x2="157.512" y2="1563.872"/>
      <line x1="207.512" y1="1564.872" x2="157.512" y2="1564.872"/>
      <line x1="207.512" y1="1565.872" x2="157.512" y2="1565.872"/>
      <line x1="207.512" y1="1566.872" x2="157.512" y2="1566.872"/>
      <line x1="207.512" y1="1567.872" x2="157.512" y2="1567.872"/>
      <line x1="207.512" y1="1568.872" x2="157.512" y2="1568.872"/>
      <line x1="207.512" y1="1569.872" x2="157.512" y2="1569.872"/>
      <line x1="207.512" y1="1570.872" x2="157.512" y2="1570.872"/>
      <line x1="207.512" y1="1571.872" x2="157.512" y2="1571.872"/>
      <line x1="207.512" y1="1572.872" x2="157.512" y2="1572.872"/>
      <line x1="207.512" y1="1573.872" x2="157.512" y2="1573.872"/>
      <line x1="207.512" y1="1574.872" x2="157.512" y2="1574.872"/>
      <line x1="207.512" y1="1575.872" x2="157.512" y2="1575.872"/>
      <line x1="207.512" y1="1576.872" x2="157.512" y2="1576.872"/>
      <line x1="207.512" y1="1577.872" x2="157.512" y2="1577.872"/>
      <line x1="207.512" y1="1578.872" x2="157.512" y2="1578.872"/>
      <line x1="257.612" y1="1529.872" x2="207.612" y2="1529.872"/>
      <line x1="257.612" y1="1530.872" x2="207.612" y2="1530.872"/>
      <line x1="257.612" y1="1531.872" x2="207.612" y2="1531.872"/>
      <line x1="257.612" y1="1532.872" x2="207.612" y2="1532.872"/>
      <line x1="257.612" y1="1533.872" x2="207.612" y2="1533.872"/>
      <line x1="257.612" y1="1534.872" x2="207.612" y2="1534.872"/>
      <line x1="257.612" y1="1535.872" x2="207.612" y2="1535.872"/>
      <line x1="257.612" y1="1536.872" x2="207.612" y2="1536.872"/>
      <line x1="257.612" y1="1537.872" x2="207.612" y2="1537.872"/>
      <line x1="257.612" y1="1538.872" x2="207.612" y2="1538.872"/>
      <line x1="257.612" y1="1539.872" x2="207.612" y2="1539.872"/>
      <line x1="257.612" y1="1540.872" x2="207.612" y2="1540.872"/>
      <line x1="257.612" y1="1541.872" x2="207.612" y2="1541.872"/>
      <line x1="257.612" y1="1542.872" x2="207.612" y2="1542.872"/>
      <line x1="257.612" y1="1543.872" x2="207.612" y2="1543.872"/>
      <line x1="257.612" y1="1544.872" x2="207.612" y2="1544.872"/>
      <line x1="257.612" y1="1545.872" x2="207.612" y2="1545.872"/>
      <line x1="257.612" y1="1546.872" x2="207.612" y2="1546.872"/>
      <line x1="257.612" y1="1547.872" x2="207.612" y2="1547.872"/>
      <line x1="257.612" y1="1548.872" x2="207.612" y2="1548.872"/>
      <line x1="257.612" y1="1549.872" x2="207.612" y2="1549.872"/>
      <line x1="257.612" y1="1550.872" x2="207.612" y2="1550.872"/>
      <line x1="257.612" y1="1551.872" x2="207.612" y2="1551.872"/>
      <line x1="257.612" y1="1552.872" x2="207.612" y2="1552.872"/>
      <line x1="257.612" y1="1553.872" x2="207.612" y2="1553.872"/>
      <line x1="257.612" y1="1554.872" x2="207.612" y2="1554.872"/>
      <line x1="257.612" y1="1555.872" x2="207.612" y2="1555.872"/>
      <line x1="257.612" y1="1556.872" x2="207.612" y2="1556.872"/>
      <line x1="257.612" y1="1557.872" x2="207.612" y2="1557.872"/>
      <line x1="257.612" y1="1558.872" x2="207.612" y2="1558.872"/>
      <line x1="257.612" y1="1559.872" x2="207.612" y2="1559.872"/>
      <line x1="257.612" y1="1560.872" x2="207.612" y2="1560.872"/>
      <line x1="257.612" y1="1561.872" x2="207.612" y2="1561.872"/>
      <line x1="257.612" y1="1562.872" x2="207.612" y2="1562.872"/>
      <line x1="257.612" y1="1563.872" x2="207.612" y2="1563.872"/>
      <line x1="257.612" y1="1564.872" x2="207.612" y2="1564.872"/>
      <line x1="257.612" y1="1565.872" x2="207.612" y2="1565.872"/>
      <line x1="257.612" y1="1566.872" x2="207.612" y2="1566.872"/>
      <line x1="257.612" y1="1567.872" x2="207.612" y2="1567.872"/>
      <line x1="257.612" y1="1568.872" x2="207.612" y2="1568.872"/>
      <line x1="257.612" y1="1569.872" x2="207.612" y2="1569.872"/>
      <line x1="257.612" y1="1570.872" x2="207.612" y2="1570.872"/>
      <line x1="257.612" y1="1571.872" x2="207.612" y2="1571.872"/>
      <line x1="257.612" y1="1572.872" x2="207.612" y2="1572.872"/>
      <line x1="257.612" y1="1573.872" x2="207.612" y2="1573.872"/>
      <line x1="257.612" y1="1574.872" x2="207.612" y2="1574.872"/>
      <line x1="257.612" y1="1575.872" x2="207.612" y2="1575.872"/>
      <line x1="257.612" y1="1576.872" x2="207.612" y2="1576.872"/>
      <line x1="257.612" y1="1577.872" x2="207.612" y2="1577.872"/>
      <line x1="257.612" y1="1578.872" x2="207.612" y2="1578.872"/>
      <line x1="307.712" y1="1529.872" x2="257.712" y2="1529.872"/>
      <line x1="307.712" y1="1530.872" x2="257.712" y2="1530.872"/>
      <line x1="307.712" y1="1531.872" x2="257.712" y2="1531.872"/>
      <line x1="307.712" y1="1532.872" x2="257.712" y2="1532.872"/>
      <line x1="307.712" y1="1533.872" x2="257.712" y2="1533.872"/>
      <line x1="307.712" y1="1534.872" x2="257.712" y2="1534.872"/>
      <line x1="307.712" y1="1535.872" x2="257.712" y2="1535.872"/>
      <line x1="307.712" y1="1536.872" x2="257.712" y2="1536.872"/>
      <line x1="307.712" y1="1537.872" x2="257.712" y2="1537.872"/>
      <line x1="307.712" y1="1538.872" x2="257.712" y2="1538.872"/>
      <line x1="307.712" y1="1539.872" x2="257.712" y2="1539.872"/>
      <line x1="307.712" y1="1540.872" x2="257.712" y2="1540.872"/>
      <line x1="307.712" y1="1541.872" x2="257.712" y2="1541.872"/>
      <line x1="307.712" y1="1542.872" x2="257.712" y2="1542.872"/>
      <line x1="307.712" y1="1543.872" x2="257.712" y2="1543.872"/>
      <line x1="307.712" y1="1544.872" x2="257.712" y2="1544.872"/>
      <line x1="307.712" y1="1545.872" x2="257.712" y2="1545.872"/>
      <line x1="307.712" y1="1546.872" x2="257.712" y2="1546.872"/>
      <line x1="307.712" y1="1547.872" x2="257.712" y2="1547.872"/>
      <line x1="307.712" y1="1548.872" x2="257.712" y2="1548.872"/>
      <line x1="307.712" y1="1549.872" x2="257.712" y2="1549.872"/>
      <line x1="307.712" y1="1550.872" x2="257.712" y2="1550.872"/>
      <line x1="307.712" y1="1551.872" x2="257.712" y2="1551.872"/>
      <line x1="307.712" y1="1552.872" x2="257.712" y2="1552.872"/>
      <line x1="307.712" y1="1553.872" x2="257.712" y2="1553.872"/>
      <line x1="307.712" y1="1554.872" x2="257.712" y2="1554.872"/>
      <line x1="307.712" y1="1555.872" x2="257.712" y2="1555.872"/>
      <line x1="307.712" y1="1556.872" x2="257.712" y2="1556.872"/>
      <line x1="307.712" y1="1557.872" x2="257.712" y2="1557.872"/>
      <line x1="307.712" y1="1558.872" x2="257.712" y2="1558.872"/>
      <line x1="307.712" y1="1559.872" x2="257.712" y2="1559.872"/>
      <line x1="307.712" y1="1560.872" x2="257.712" y2="1560.872"/>
      <line x1="307.712" y1="1561.872" x2="257.712" y2="1561.872"/>
      <line x1="307.712" y1="1562.872" x2="257.712" y2="1562.872"/>
      <line x1="307.712" y1="1563.872" x2="257.712" y2="1563.872"/>
      <line x1="307.712" y1="1564.872" x2="257.712" y2="1564.872"/>
      <line x1="307.712" y1="1565.872" x2="257.712" y2="1565.872"/>
      <line x1="307.712" y1="1566.872" x2="257.712" y2="1566.872"/>
      <line x1="307.712" y1="1567.872" x2="257.712" y2="1567.872"/>
      <line x1="307.712" y1="1568.872" x2="257.712" y2="1568.872"/>
      <line x1="307.712" y1="1569.872" x2="257.712" y2="1569.872"/>
      <line x1="307.712" y1="1570.872" x2="257.712" y2="1570.872"/>
      <line x1="307.712" y1="1571.872" x2="257.712" y2="1571.872"/>
      <line x1="307.712" y1="1572.872" x2="257.712" y2="1572.872"/>
      <line x1="307.712" y1="1573.872" x2="257.712" y2="1573.872"/>
      <line x1="307.712" y1="1574.872" x2="257.712" y2="1574.872"/>
      <line x1="307.712" y1="1575.872" x2="257.712" y2="1575.872"/>
      <line x1="307.712" y1="1576.872" x2="257.712" y2="1576.872"/>
      <line x1="307.712" y1="1577.872" x2="257.712" y2="1577.872"/>
      <line x1="307.712" y1="1578.872" x2="257.712" y2="1578.872"/>
      <line x1="357.812" y1="1529.872" x2="307.812" y2="1529.872"/>
      <line x1="357.812" y1="1530.872" x2="307.812" y2="1530.872"/>
      <line x1="357.812" y1="1531.872" x2="307.812" y2="1531.872"/>
      <line x1="357.812" y1="1532.872" x2="307.812" y2="1532.872"/>
      <line x1="357.812" y1="1533.872" x2="307.812" y2="1533.872"/>
      <line x1="357.812" y1="1534.872" x2="307.812" y2="1534.872"/>
      <line x1="357.812" y1="1535.872" x2="307.812" y2="1535.872"/>
      <line x1="357.812" y1="1536.872" x2="307.812" y2="1536.872"/>
      <line x1="357.812" y1="1537.872" x2="307.812" y2="1537.872"/>
      <line x1="357.812" y1="1538.872" x2="307.812" y2="1538.872"/>
      <line x1="357.812" y1="1539.872" x2="307.812" y2="1539.872"/>
      <line x1="357.812" y1="1540.872" x2="307.812" y2="1540.872"/>
      <line x1="357.812" y1="1541.872" x2="307.812" y2="1541.872"/>
      <line x1="357.812" y1="1542.872" x2="307.812" y2="1542.872"/>
      <line x1="357.812" y1="1543.872" x2="307.812" y2="1543.872"/>
      <line x1="357.812" y1="1544.872" x2="307.812" y2="1544.872"/>
      <line x1="357.812" y1="1545.872" x2="307.812" y2="1545.872"/>
      <line x1="357.812" y1="1546.872" x2="307.812" y2="1546.872"/>
      <line x1="357.812" y1="1547.872" x2="307.812" y2="1547.872"/>
      <line x1="357.812" y1="1548.872" x2="307.812" y2="1548.872"/>
      <line x1="357.812" y1="1549.872" x2="307.812" y2="1549.872"/>
      <line x1="357.812" y1="1550.872" x2="307.812" y2="1550.872"/>
      <line x1="357.812" y1="1551.872" x2="307.812" y2="1551.872"/>
      <line x1="357.812" y1="1552.872" x2="307.812" y2="1552.872"/>
      <line x1="357.812" y1="1553.872" x2="307.812" y2="1553.872"/>
      <line x1="357.812" y1="1554.872" x2="307.812" y2="1554.872"/>
      <line x1="357.812" y1="1555.872" x2="307.812" y2="1555.872"/>
      <line x1="357.812" y1="1556.872" x2="307.812" y2="1556.872"/>
      <line x1="357.812" y1="1557.872" x2="307.812" y2="1557.872"/>
      <line x1="357.812" y1="1558.872" x2="307.812" y2="1558.872"/>
      <line x1="357.812" y1="1559.872" x2="307.812" y2="1559.872"/>
      <line x1="357.812" y1="1560.872" x2="307.812" y2="1560.872"/>
      <line x1="357.812" y1="1561.872" x2="307.812" y2="1561.872"/>
      <line x1="357.812" y1="1562.872" x2="307.812" y2="1562.872"/>
      <line x1="357.812" y1="1563.872" x2="307.812" y2="1563.872"/>
      <line x1="357.812" y1="1564.872" x2="307.812" y2="1564.872"/>
      <line x1="357.812" y1="1565.872" x2="307.812" y2="1565.872"/>
      <line x1="357.812" y1="1566.872" x2="307.812" y2="1566.872"/>
      <line x1="357.812" y1="1567.872" x2="307.812" y2="1567.872"/>
      <line x1="357.812" y1="1568.872" x2="307.812" y2="1568.872"/>
      <line x1="357.812" y1="1569.872" x2="307.812" y2="1569.872"/>
      <line x1="357.812" y1="1570.872" x2="307.812" y2="1570.872"/>
      <line x1="357.812" y1="1571.872" x2="307.812" y2="1571.872"/>
      <line x1="357.812" y1="1572.872" x2="307.812" y2="1572.872"/>
      <line x1="357.812" y1="1573.872" x2="307.812" y2="1573.872"/>
      <line x1="357.812" y1="1574.872" x2="307.812" y2="1574.872"/>
      <line x1="357.812" y1="1575.872" x2="307.812" y2="1575.872"/>
      <line x1="357.812" y1="1576.872" x2="307.812" y2="1576.872"/>
      <line x1="357.812" y1="1577.872" x2="307.812" y2="1577.872"/>
      <line x1="357.812" y1="1578.872" x2="307.812" y2="1578.872"/>
      <line x1="407.912" y1="1529.872" x2="357.912" y2="1529.872"/>
      <line x1="407.912" y1="1530.872" x2="357.912" y2="1530.872"/>
      <line x1="407.912" y1="1531.872" x2="357.912" y2="1531.872"/>
      <line x1="407.912" y1="1532.872" x2="357.912" y2="1532.872"/>
      <line x1="407.912" y1="1533.872" x2="357.912" y2="1533.872"/>
      <line x1="407.912" y1="1534.872" x2="357.912" y2="1534.872"/>
      <line x1="407.912" y1="1535.872" x2="357.912" y2="1535.872"/>
      <line x1="407.912" y1="1536.872" x2="357.912" y2="1536.872"/>
      <line x1="407.912" y1="1537.872" x2="357.912" y2="1537.872"/>
      <line x1="407.912" y1="1538.872" x2="357.912" y2="1538.872"/>
      <line x1="407.912" y1="1539.872" x2="357.912" y2="1539.872"/>
      <line x1="407.912" y1="1540.872" x2="357.912" y2="1540.872"/>
      <line x1="407.912" y1="1541.872" x2="357.912" y2="1541.872"/>
      <line x1="407.912" y1="1542.872" x2="357.912" y2="1542.872"/>
      <line x1="407.912" y1="1543.872" x2="357.912" y2="1543.872"/>
      <line x1="407.912" y1="1544.872" x2="357.912" y2="1544.872"/>
      <line x1="407.912" y1="1545.872" x2="357.912" y2="1545.872"/>
      <line x1="407.912" y1="1546.872" x2="357.912" y2="1546.872"/>
      <line x1="407.912" y1="1547.872" x2="357.912" y2="1547.872"/>
      <line x1="407.912" y1="1548.872" x2="357.912" y2="1548.872"/>
      <line x1="407.912" y1="1549.872" x2="357.912" y2="1549.872"/>
      <line x1="407.912" y1="1550.872" x2="357.912" y2="1550.872"/>
      <line x1="407.912" y1="1551.872" x2="357.912" y2="1551.872"/>
      <line x1="407.912" y1="1552.872" x2="357.912" y2="1552.872"/>
      <line x1="407.912" y1="1553.872" x2="357.912" y2="1553.872"/>
      <line x1="407.912" y1="1554.872" x2="357.912" y2="1554.872"/>
      <line x1="407.912" y1="1555.872" x2="357.912" y2="1555.872"/>
      <line x1="407.912" y1="1556.872" x2="357.912" y2="1556.872"/>
      <line x1="407.912" y1="1557.872" x2="357.912" y2="1557.872"/>
      <line x1="407.912" y1="1558.872" x2="357.912" y2="1558.872"/>
      <line x1="407.912" y1="1559.872" x2="357.912" y2="1559.872"/>
      <line x1="407.912" y1="1560.872" x2="357.912" y2="1560.872"/>
      <line x1="407.912" y1="1561.872" x2="357.912" y2="1561.872"/>
      <line x1="407.912" y1="1562.872" x2="357.912" y2="1562.872"/>
      <line x1="407.912" y1="1563.872" x2="357.912" y2="1563.872"/>
      <line x1="407.912" y1="1564.872" x2="357.912" y2="1564.872"/>
      <line x1="407.912" y1="1565.872" x2="357.912" y2="1565.872"/>
      <line x1="407.912" y1="1566.872" x2="357.912" y2="1566.872"/>
      <line x1="407.912" y1="1567.872" x2="357.912" y2="1567.872"/>
      <line x1="407.912" y1="1568.872" x2="357.912" y2="1568.872"/>
      <line x1="407.912" y1="1569.872" x2="357.912" y2="1569.872"/>
      <line x1="407.912" y1="1570.872" x2="357.912" y2="1570.872"/>
      <line x1="407.912" y1="1571.872" x2="357.912" y2="1571.872"/>
      <line x1="407.912" y1="1572.872" x2="357.912" y2="1572.872"/>
      <line x1="407.912" y1="1573.872" x2="357.912" y2="1573.872"/>
      <line x1="407.912" y1="1574.872" x2="357.912" y2="1574.872"/>
      <line x1="407.912" y1="1575.872" x2="357.912" y2="1575.872"/>
      <line x1="407.912" y1="1576.872" x2="357.912" y2="1576.872"/>
      <line x1="407.912" y1="1577.872" x2="357.912" y2="1577.872"/>
      <line x1="407.912" y1="1578.872" x2="357.912" y2="1578.872"/>
      <line x1="458.012" y1="1529.872" x2="408.012" y2="1529.872"/>
      <line x1="458.012" y1="1530.872" x2="408.012" y2="1530.872"/>
      <line x1="458.012" y1="1531.872" x2="408.012" y2="1531.872"/>
      <line x1="458.012" y1="1532.872" x2="408.012" y2="1532.872"/>
      <line x1="458.012" y1="1533.872" x2="408.012" y2="1533.872"/>
      <line x1="458.012" y1="1534.872" x2="408.012" y2="1534.872"/>
      <line x1="458.012" y1="1535.872" x2="408.012" y2="1535.872"/>
      <line x1="458.012" y1="1536.872" x2="408.012" y2="1536.872"/>
      <line x1="458.012" y1="1537.872" x2="408.012" y2="1537.872"/>
      <line x1="458.012" y1="1538.872" x2="408.012" y2="1538.872"/>
      <line x1="458.012" y1="1539.872" x2="408.012" y2="1539.872"/>
      <line x1="458.012" y1="1540.872" x2="408.012" y2="1540.872"/>
      <line x1="458.012" y1="1541.872" x2="408.012" y2="1541.872"/>
      <line x1="458.012" y1="1542.872" x2="408.012" y2="1542.872"/>
      <line x1="458.012" y1="1543.872" x2="408.012" y2="1543.872"/>
      <line x1="458.012" y1="1544.872" x2="408.012" y2="1544.872"/>
      <line x1="458.012" y1="1545.872" x2="408.012" y2="1545.872"/>
      <line x1="458.012" y1="1546.872" x2="408.012" y2="1546.872"/>
      <line x1="458.012" y1="1547.872" x2="408.012" y2="1547.872"/>
      <line x1="458.012" y1="1548.872" x2="408.012" y2="1548.872"/>
      <line x1="458.012" y1="1549.872" x2="408.012" y2="1549.872"/>
      <line x1="458.012" y1="1550.872" x2="408.012" y2="1550.872"/>
      <line x1="458.012" y1="1551.872" x2="408.012" y2="1551.872"/>
      <line x1="458.012" y1="1552.872" x2="408.012" y2="1552.872"/>
      <line x1="458.012" y1="1553.872" x2="408.012" y2="1553.872"/>
      <line x1="458.012" y1="1554.872" x2="408.012" y2="1554.872"/>
      <line x1="458.012" y1="1555.872" x2="408.012" y2="1555.872"/>
      <line x1="458.012" y1="1556.872" x2="408.012" y2="1556.872"/>
      <line x1="458.012" y1="1557.872" x2="408.012" y2="1557.872"/>
      <line x1="458.012" y1="1558.872" x2="408.012" y2="1558.872"/>
      <line x1="458.012" y1="1559.872" x2="408.012" y2="1559.872"/>
      <line x1="458.012" y1="1560.872" x2="408.012" y2="1560.872"/>
      <line x1="458.012" y1="1561.872" x2="408.012" y2="1561.872"/>
      <line x1="458.012" y1="1562.872" x2="408.012" y2="1562.872"/>
      <line x1="458.012" y1="1563.872" x2="408.012" y2="1563.872"/>
      <line x1="458.012" y1="1564.872" x2="408.012" y2="1564.872"/>
      <line x1="458.012" y1="1565.872" x2="408.012" y2="1565.872"/>
      <line x1="458.012" y1="1566.872" x2="408.012" y2="1566.872"/>
      <line x1="458.012" y1="1567.872" x2="408.012" y2="1567.872"/>
      <line x1="458.012" y1="1568.872" x2="408.012" y2="1568.872"/>
      <line x1="458.012" y1="1569.872" x2="408.012" y2="1569.872"/>
      <line x1="458.012" y1="1570.872" x2="408.012" y2="1570.872"/>
      <line x1="458.012" y1="1571.872" x2="408.012" y2="1571.872"/>
      <line x1="458.012" y1="1572.872" x2="408.012" y2="1572.872"/>
      <line x1="458.012" y1="1573.872" x2="408.012" y2="1573.872"/>
      <line x1="458.012" y1="1574.872" x2="408.012" y2="1574.872"/>
      <line x1="458.012" y1="1575.872" x2="408.012" y2="1575.872"/>
      <line x1="458.012" y1="1576.872" x2="408.012" y2="1576.872"/>
      <line x1="458.012" y1="1577.872" x2="408.012" y2="1577.872"/>
      <line x1="458.012" y1="1578.872" x2="408.012" y2="1578.872"/>
      <line x1="492.588" y1="1529.872" x2="458.112" y2="1529.872"/>
      <line x1="492.588" y1="1530.872" x2="458.112" y2="1530.872"/>
      <line x1="492.588" y1="1531.872" x2="458.112" y2="1531.872"/>
      <line x1="492.588" y1="1532.872" x2="458.112" y2="1532.872"/>
      <line x1="492.588" y1="1533.872" x2="458.112" y2="1533.872"/>
      <line x1="492.588" y1="1534.872" x2="458.112" y2="1534.872"/>
      <line x1="492.588" y1="1535.872" x2="458.112" y2="1535.872"/>
      <line x1="492.588" y1="1536.872" x2="458.112" y2="1536.872"/>
      <line x1="492.588" y1="1537.872" x2="458.112" y2="1537.872"/>
      <line x1="492.588" y1="1538.872" x2="458.112" y2="1538.872"/>
      <line x1="492.588" y1="1539.872" x2="458.112" y2="1539.872"/>
      <line x1="492.588" y1="1540.872" x2="458.112" y2="1540.872"/>
      <line x1="492.588" y1="1541.872" x2="458.112" y2="1541.872"/>
      <line x1="492.588" y1="1542.872" x2="458.112" y2="1542.872"/>
      <line x1="492.588" y1="1543.872" x2="458.112" y2="1543.872"/>
      <line x1="492.588" y1="1544.872" x2="458.112" y2="1544.872"/>
      <line x1="492.588" y1="1545.872" x2="458.112" y2="1545.872"/>
      <line x1="492.588" y1="1546.872" x2="458.112" y2="1546.872"/>
      <line x1="492.588" y1="1547.872" x2="458.112" y2="1547.872"/>
      <line x1="492.588" y1="1548.872" x2="458.112" y2="1548.872"/>
      <line x1="492.588" y1="1549.872" x2="458.112" y2="1549.872"/>
      <line x1="492.588" y1="1550.872" x2="458.112" y2="1550.872"/>
      <line x1="492.588" y1="1551.872" x2="458.112" y2="1551.872"/>
      <line x1="492.588" y1="1552.872" x2="458.112" y2="1552.872"/>
      <line x1="492.588" y1="1553.872" x2="458.112" y2="1553.872"/>
      <line x1="492.588" y1="1554.872" x2="458.112" y2="1554.872"/>
      <line x1="492.588" y1="1555.872" x2="458.112" y2="1555.872"/>
      <line x1="492.588" y1="1556.872" x2="458.112" y2="1556.872"/>
      <line x1="492.588" y1="1557.872" x2="458.112" y2="1557.872"/>
      <line x1="492.588" y1="1558.872" x2="458.112" y2="1558.872"/>
      <line x1="492.588" y1="1559.872" x2="458.112" y2="1559.872"/>
      <line x1="492.588" y1="1560.872" x2="458.112" y2="1560.872"/>
      <line x1="492.588" y1="1561.872" x2="458.112" y2="1561.872"/>
      <line x1="492.588" y1="1562.872" x2="458.112" y2="1562.872"/>
      <line x1="492.588" y1="1563.872" x2="458.112" y2="1563.872"/>
      <line x1="492.588" y1="1564.872" x2="458.112" y2="1564.872"/>
      <line x1="492.588" y1="1565.872" x2="458.112" y2="1565.872"/>
      <line x1="492.588" y1="1566.872" x2="458.112" y2="1566.872"/>
      <line x1="492.588" y1="1567.872" x2="458.112" y2="1567.872"/>
      <line x1="492.588" y1="1568.872" x2="458.112" y2="1568.872"/>
      <line x1="492.588" y1="1569.872" x2="458.112" y2="1569.872"/>
      <line x1="492.588" y1="1570.872" x2="458.112" y2="1570.872"/>
      <line x1="492.588" y1="1571.872" x2="458.112" y2="1571.872"/>
      <line x1="492.588" y1="1572.872" x2="458.112" y2="1572.872"/>
      <line x1="492.588" y1="1573.872" x2="458.112" y2="1573.872"/>
      <line x1="492.588" y1="1574.872" x2="458.112" y2="1574.872"/>
      <line x1="492.588" y1="1575.872" x2="458.112" y2="1575.872"/>
      <line x1="492.588" y1="1576.872" x2="458.112" y2="1576.872"/>
      <line x1="492.588" y1="1577.872" x2="458.112" y2="1577.872"/>
      <line x1="492.588" y1="1578.872" x2="458.112" y2="1578.872"/>
      <line x1="157.412" y1="1525.872" x2="107.412" y2="1525.872"/>
      <line x1="157.412" y1="1526.872" x2="107.412" y2="1526.872"/>
      <line x1="157.412" y1="1527.872" x2="107.412" y2="1527.872"/>
      <line x1="157.412" y1="1528.872" x2="107.412" y2="1528.872"/>
      <line x1="207.512" y1="1525.872" x2="157.512" y2="1525.872"/>
      <line x1="207.512" y1="1526.872" x2="157.512" y2="1526.872"/>
      <line x1="207.512" y1="1527.872" x2="157.512" y2="1527.872"/>
      <line x1="207.512" y1="1528.872" x2="157.512" y2="1528.872"/>
      <line x1="257.612" y1="1525.872" x2="207.612" y2="1525.872"/>
      <line x1="257.612" y1="1526.872" x2="207.612" y2="1526.872"/>
      <line x1="257.612" y1="1527.872" x2="207.612" y2="1527.872"/>
      <line x1="257.612" y1="1528.872" x2="207.612" y2="1528.872"/>
      <line x1="307.712" y1="1525.872" x2="257.712" y2="1525.872"/>
      <line x1="307.712" y1="1526.872" x2="257.712" y2="1526.872"/>
      <line x1="307.712" y1="1527.872" x2="257.712" y2="1527.872"/>
      <line x1="307.712" y1="1528.872" x2="257.712" y2="1528.872"/>
      <line x1="357.812" y1="1525.872" x2="307.812" y2="1525.872"/>
      <line x1="357.812" y1="1526.872" x2="307.812" y2="1526.872"/>
      <line x1="357.812" y1="1527.872" x2="307.812" y2="1527.872"/>
      <line x1="357.812" y1="1528.872" x2="307.812" y2="1528.872"/>
      <line x1="407.912" y1="1525.872" x2="357.912" y2="1525.872"/>
      <line x1="407.912" y1="1526.872" x2="357.912" y2="1526.872"/>
      <line x1="407.912" y1="1527.872" x2="357.912" y2="1527.872"/>
      <line x1="407.912" y1="1528.872" x2="357.912" y2="1528.872"/>
      <line x1="458.012" y1="1525.872" x2="408.012" y2="1525.872"/>
      <line x1="458.012" y1="1526.872" x2="408.012" y2="1526.872"/>
      <line x1="458.012" y1="1527.872" x2="408.012" y2="1527.872"/>
      <line x1="458.012" y1="1528.872" x2="408.012" y2="1528.872"/>
      <line x1="492.588" y1="1525.872" x2="458.112" y2="1525.872"/>
      <line x1="492.588" y1="1526.872" x2="458.112" y2="1526.872"/>
      <line x1="492.588" y1="1527.872" x2="458.112" y2="1527.872"/>
      <line x1="492.588" y1="1528.872" x2="458.112" y2="1528.872"/>
    </g>
    <g stroke="#1976D2" stroke-width="0.4">
      <polyline points="496.088,1521.729 103.912,1521.729 103.912,1682.729 496.088,1682.729 496.088,1521.729" fill="none"/>
      <polyline points="495.088,1522.729 104.912,1522.729 104.912,1681.730 495.088,1681.730 495.088,1522.729" fill="none"/>
      <polyline points="494.088,1523.729 105.912,1523.729 105.912,1680.730 494.088,1680.730 494.088,1523.729" fill="none"/>
      <polyline points="493.088,1524.729 106.912,1524.729 106.912,1679.729 493.088,1679.729 493.088,1524.729" fill="none"/>
    </g>
    <g stroke="#C62828" stroke-width="0.4" fill="none">
    </g>
    <g stroke="#EF6C00" stroke-width="0.4" fill="none">
    </g>
  </g>
  <g stroke="#000000" stroke-width="0.4">
    <line x1="500.000" y1="1000.000" x2="1500.000" y2="1000.000"/>
  </g>
  <g stroke="#000000" stroke-width="0.4">
    <line x1="1000.000" y1="500.000" x2="1000.000" y2="1500.000"/>
  </g>
  <circle cx="1000.000" cy="1000.000" r="1000.000" stroke="red" stroke-width="1" fill="none"/>
  </g>
</svg>
