<?xml version="1.0" encoding="UTF-8"?>
<svg xmlns="http://www.w3.org/2000/svg" version="1.1" width="2000" height="2000">
  <g fill="none" stroke-linecap="round" stroke-linejoin="round">
  <text x="10" y="20" font-size="24" fill="#555">Layer 214 Z=54.800 mm</text>
  <g transform="translate(700.000,-602.229)">
    <g stroke="#2E7D32" stroke-width="0.4">
      <line x1="480.948" y1="1679.230" x2="480.948" y2="1629.230"/>
      <line x1="481.948" y1="1679.230" x2="481.948" y2="1629.230"/>
      <line x1="482.948" y1="1679.230" x2="482.948" y2="1629.230"/>
      <line x1="483.948" y1="1679.230" x2="483.948" y2="1629.230"/>
      <line x1="484.948" y1="1679.230" x2="484.948" y2="1629.230"/>
      <line x1="485.948" y1="1679.230" x2="485.948" y2="1629.230"/>
      <line x1="486.948" y1="1679.230" x2="486.948" y2="1629.230"/>
      <line x1="487.948" y1="1679.230" x2="487.948" y2="1629.230"/>
      <line x1="488.948" y1="1679.230" x2="488.948" y2="1629.230"/>
      <line x1="489.948" y1="1679.230" x2="489.948" y2="1629.230"/>
      <line x1="490.948" y1="1679.230" x2="490.948" y2="1629.230"/>
      <line x1="491.948" y1="1679.230" x2="491.948" y2="1629.230"/>
      <line x1="492.948" y1="1679.230" x2="492.948" y2="1629.230"/>
      <line x1="493.948" y1="1679.230" x2="493.948" y2="1629.230"/>
      <line x1="494.948" y1="1679.230" x2="494.948" y2="1629.230"/>
      <line x1="495.948" y1="1679.230" x2="495.948" y2="1629.230"/>
      <line x1="496.948" y1="1679.230" x2="496.948" y2="1629.230"/>
      <line x1="497.948" y1="1679.230" x2="497.948" y2="1629.230"/>
      <line x1="498.948" y1="1679.230" x2="498.948" y2="1629.230"/>
      <line x1="499.948" y1="1679.230" x2="499.948" y2="1629.230"/>
      <line x1="500.948" y1="1679.230" x2="500.948" y2="1629.230"/>
      <line x1="501.948" y1="1679.230" x2="501.948" y2="1629.230"/>
      <line x1="502.948" y1="1679.230" x2="502.948" y2="1629.230"/>
      <line x1="503.948" y1="1679.230" x2="503.948" y2="1629.230"/>
      <line x1="504.948" y1="1679.230" x2="504.948" y2="1629.230"/>
      <line x1="505.948" y1="1679.230" x2="505.948" y2="1629.230"/>
      <line x1="506.948" y1="1679.230" x2="506.948" y2="1629.230"/>
      <line x1="507.948" y1="1679.230" x2="507.948" y2="1629.230"/>
      <line x1="508.948" y1="1679.230" x2="508.948" y2="1629.230"/>
      <line x1="509.948" y1="1679.230" x2="509.948" y2="1629.230"/>
      <line x1="510.948" y1="1679.230" x2="510.948" y2="1629.230"/>
      <line x1="511.948" y1="1679.230" x2="511.948" y2="1629.230"/>
      <line x1="512.948" y1="1679.230" x2="512.948" y2="1629.230"/>
      <line x1="513.948" y1="1679.230" x2="513.948" y2="1629.230"/>
      <line x1="514.948" y1="1679.230" x2="514.948" y2="1629.230"/>
      <line x1="515.948" y1="1679.230" x2="515.948" y2="1629.230"/>
      <line x1="516.948" y1="1679.230" x2="516.948" y2="1629.230"/>
      <line x1="517.948" y1="1679.230" x2="517.948" y2="1629.230"/>
      <line x1="518.948" y1="1679.230" x2="518.948" y2="1629.230"/>
      <line x1="519.948" y1="1679.230" x2="519.948" y2="1629.230"/>
      <line x1="520.948" y1="1679.230" x2="520.948" y2="1629.230"/>
      <line x1="521.948" y1="1679.230" x2="521.948" y2="1629.230"/>
      <line x1="522.948" y1="1679.230" x2="522.948" y2="1629.230"/>
      <line x1="523.948" y1="1679.230" x2="523.948" y2="1629.230"/>
      <line x1="524.948" y1="1679.230" x2="524.948" y2="1629.230"/>
      <line x1="525.948" y1="1679.230" x2="525.948" y2="1629.230"/>
      <line x1="526.948" y1="1679.230" x2="526.948" y2="1629.230"/>
      <line x1="527.948" y1="1679.230" x2="527.948" y2="1629.230"/>
      <line x1="528.948" y1="1679.230" x2="528.948" y2="1629.230"/>
      <line x1="529.948" y1="1679.230" x2="529.948" y2="1629.230"/>
      <line x1="530.948" y1="1679.230" x2="530.948" y2="1629.230"/>
      <line x1="531.948" y1="1679.230" x2="531.948" y2="1629.230"/>
      <line x1="532.948" y1="1679.230" x2="532.948" y2="1629.230"/>
      <line x1="533.948" y1="1679.230" x2="533.948" y2="1629.230"/>
      <line x1="534.948" y1="1679.230" x2="534.948" y2="1629.230"/>
      <line x1="535.948" y1="1679.230" x2="535.948" y2="1629.230"/>
      <line x1="536.948" y1="1679.230" x2="536.948" y2="1629.230"/>
      <line x1="537.948" y1="1679.230" x2="537.948" y2="1629.230"/>
      <line x1="538.948" y1="1679.230" x2="538.948" y2="1629.230"/>
      <line x1="539.948" y1="1679.230" x2="539.948" y2="1629.230"/>
      <line x1="540.948" y1="1679.230" x2="540.948" y2="1629.230"/>
      <line x1="541.948" y1="1679.230" x2="541.948" y2="1629.230"/>
      <line x1="542.948" y1="1679.230" x2="542.948" y2="1629.230"/>
      <line x1="543.948" y1="1679.230" x2="543.948" y2="1629.230"/>
      <line x1="544.948" y1="1679.230" x2="544.948" y2="1629.230"/>
      <line x1="545.948" y1="1679.230" x2="545.948" y2="1629.230"/>
      <line x1="546.948" y1="1679.230" x2="546.948" y2="1629.230"/>
      <line x1="547.948" y1="1679.230" x2="547.948" y2="1629.230"/>
      <line x1="548.948" y1="1679.230" x2="548.948" y2="1629.230"/>
      <line x1="549.948" y1="1679.230" x2="549.948" y2="1629.230"/>
      <line x1="550.948" y1="1679.230" x2="550.948" y2="1629.230"/>
      <line x1="551.948" y1="1679.230" x2="551.948" y2="1629.230"/>
      <line x1="552.948" y1="1679.230" x2="552.948" y2="1629.230"/>
      <line x1="553.948" y1="1679.230" x2="553.948" y2="1629.230"/>
      <line x1="554.948" y1="1679.230" x2="554.948" y2="1629.230"/>
      <line x1="555.948" y1="1679.230" x2="555.948" y2="1629.230"/>
      <line x1="556.948" y1="1679.230" x2="556.948" y2="1629.230"/>
      <line x1="557.948" y1="1679.230" x2="557.948" y2="1629.230"/>
      <line x1="558.948" y1="1679.230" x2="558.948" y2="1629.230"/>
      <line x1="559.948" y1="1679.230" x2="559.948" y2="1629.230"/>
      <line x1="560.948" y1="1679.230" x2="560.948" y2="1629.230"/>
      <line x1="561.948" y1="1679.230" x2="561.948" y2="1629.230"/>
      <line x1="562.948" y1="1679.230" x2="562.948" y2="1629.230"/>
      <line x1="563.948" y1="1679.230" x2="563.948" y2="1629.230"/>
      <line x1="564.948" y1="1679.230" x2="564.948" y2="1629.230"/>
      <line x1="565.948" y1="1679.230" x2="565.948" y2="1629.230"/>
      <line x1="566.948" y1="1679.230" x2="566.948" y2="1629.230"/>
      <line x1="567.948" y1="1679.230" x2="567.948" y2="1629.230"/>
      <line x1="568.948" y1="1679.230" x2="568.948" y2="1629.230"/>
      <line x1="569.948" y1="1679.230" x2="569.948" y2="1629.230"/>
      <line x1="570.948" y1="1679.230" x2="570.948" y2="1629.230"/>
      <line x1="571.948" y1="1679.230" x2="571.948" y2="1629.230"/>
      <line x1="572.948" y1="1679.230" x2="572.948" y2="1629.230"/>
      <line x1="573.948" y1="1679.230" x2="573.948" y2="1629.230"/>
      <line x1="574.948" y1="1679.230" x2="574.948" y2="1629.230"/>
      <line x1="575.948" y1="1679.230" x2="575.948" y2="1629.230"/>
      <line x1="576.948" y1="1679.230" x2="576.948" y2="1629.230"/>
      <line x1="577.948" y1="1679.230" x2="577.948" y2="1629.230"/>
      <line x1="578.948" y1="1679.230" x2="578.948" y2="1629.230"/>
      <line x1="579.948" y1="1679.230" x2="579.948" y2="1629.230"/>
      <line x1="580.948" y1="1679.230" x2="580.948" y2="1629.230"/>
      <line x1="581.948" y1="1679.230" x2="581.948" y2="1629.230"/>
      <line x1="582.948" y1="1679.230" x2="582.948" y2="1629.230"/>
      <line x1="583.948" y1="1679.230" x2="583.948" y2="1629.230"/>
      <line x1="584.948" y1="1679.230" x2="584.948" y2="1629.230"/>
      <line x1="585.948" y1="1679.230" x2="585.948" y2="1629.230"/>
      <line x1="586.948" y1="1679.230" x2="586.948" y2="1629.230"/>
      <line x1="587.948" y1="1679.230" x2="587.948" y2="1629.230"/>
      <line x1="588.948" y1="1679.230" x2="588.948" y2="1629.230"/>
      <line x1="589.948" y1="1679.230" x2="589.948" y2="1629.230"/>
      <line x1="590.948" y1="1679.230" x2="590.948" y2="1629.230"/>
      <line x1="591.948" y1="1679.230" x2="591.948" y2="1629.230"/>
      <line x1="592.948" y1="1679.230" x2="592.948" y2="1629.230"/>
      <line x1="593.948" y1="1679.230" x2="593.948" y2="1629.230"/>
      <line x1="594.948" y1="1679.230" x2="594.948" y2="1629.230"/>
      <line x1="595.948" y1="1679.230" x2="595.948" y2="1629.230"/>
      <line x1="596.948" y1="1679.230" x2="596.948" y2="1629.230"/>
      <line x1="480.948" y1="1629.130" x2="480.948" y2="1579.130"/>
      <line x1="481.948" y1="1629.130" x2="481.948" y2="1579.130"/>
      <line x1="482.948" y1="1629.130" x2="482.948" y2="1579.130"/>
      <line x1="483.948" y1="1629.130" x2="483.948" y2="1579.130"/>
      <line x1="484.948" y1="1629.130" x2="484.948" y2="1579.130"/>
      <line x1="485.948" y1="1629.130" x2="485.948" y2="1579.130"/>
      <line x1="486.948" y1="1629.130" x2="486.948" y2="1579.130"/>
      <line x1="487.948" y1="1629.130" x2="487.948" y2="1579.130"/>
      <line x1="488.948" y1="1629.130" x2="488.948" y2="1579.130"/>
      <line x1="489.948" y1="1629.130" x2="489.948" y2="1579.130"/>
      <line x1="490.948" y1="1629.130" x2="490.948" y2="1579.130"/>
      <line x1="491.948" y1="1629.130" x2="491.948" y2="1579.130"/>
      <line x1="492.948" y1="1629.130" x2="492.948" y2="1579.130"/>
      <line x1="493.948" y1="1629.130" x2="493.948" y2="1579.130"/>
      <line x1="494.948" y1="1629.130" x2="494.948" y2="1579.130"/>
      <line x1="495.948" y1="1629.130" x2="495.948" y2="1579.130"/>
      <line x1="496.948" y1="1629.130" x2="496.948" y2="1579.130"/>
      <line x1="497.948" y1="1629.130" x2="497.948" y2="1579.130"/>
      <line x1="498.948" y1="1629.130" x2="498.948" y2="1579.130"/>
      <line x1="499.948" y1="1629.130" x2="499.948" y2="1579.130"/>
      <line x1="500.948" y1="1629.130" x2="500.948" y2="1579.130"/>
      <line x1="501.948" y1="1629.130" x2="501.948" y2="1579.130"/>
      <line x1="502.948" y1="1629.130" x2="502.948" y2="1579.130"/>
      <line x1="503.948" y1="1629.130" x2="503.948" y2="1579.130"/>
      <line x1="504.948" y1="1629.130" x2="504.948" y2="1579.130"/>
      <line x1="505.948" y1="1629.130" x2="505.948" y2="1579.130"/>
      <line x1="506.948" y1="1629.130" x2="506.948" y2="1579.130"/>
      <line x1="507.948" y1="1629.130" x2="507.948" y2="1579.130"/>
      <line x1="508.948" y1="1629.130" x2="508.948" y2="1579.130"/>
      <line x1="509.948" y1="1629.130" x2="509.948" y2="1579.130"/>
      <line x1="510.948" y1="1629.130" x2="510.948" y2="1579.130"/>
      <line x1="511.948" y1="1629.130" x2="511.948" y2="1579.130"/>
      <line x1="512.948" y1="1629.130" x2="512.948" y2="1579.130"/>
      <line x1="513.948" y1="1629.130" x2="513.948" y2="1579.130"/>
      <line x1="514.948" y1="1629.130" x2="514.948" y2="1579.130"/>
      <line x1="515.948" y1="1629.130" x2="515.948" y2="1579.130"/>
      <line x1="516.948" y1="1629.130" x2="516.948" y2="1579.130"/>
      <line x1="517.948" y1="1629.130" x2="517.948" y2="1579.130"/>
      <line x1="518.948" y1="1629.130" x2="518.948" y2="1579.130"/>
      <line x1="519.948" y1="1629.130" x2="519.948" y2="1579.130"/>
      <line x1="520.948" y1="1629.130" x2="520.948" y2="1579.130"/>
      <line x1="521.948" y1="1629.130" x2="521.948" y2="1579.130"/>
      <line x1="522.948" y1="1629.130" x2="522.948" y2="1579.130"/>
      <line x1="523.948" y1="1629.130" x2="523.948" y2="1579.130"/>
      <line x1="524.948" y1="1629.130" x2="524.948" y2="1579.130"/>
      <line x1="525.948" y1="1629.130" x2="525.948" y2="1579.130"/>
      <line x1="526.948" y1="1629.130" x2="526.948" y2="1579.130"/>
      <line x1="527.948" y1="1629.130" x2="527.948" y2="1579.130"/>
      <line x1="528.948" y1="1629.130" x2="528.948" y2="1579.130"/>
      <line x1="529.948" y1="1629.130" x2="529.948" y2="1579.130"/>
      <line x1="530.948" y1="1629.130" x2="530.948" y2="1579.130"/>
      <line x1="531.948" y1="1629.130" x2="531.948" y2="1579.130"/>
      <line x1="532.948" y1="1629.130" x2="532.948" y2="1579.130"/>
      <line x1="533.948" y1="1629.130" x2="533.948" y2="1579.130"/>
      <line x1="534.948" y1="1629.130" x2="534.948" y2="1579.130"/>
      <line x1="535.948" y1="1629.130" x2="535.948" y2="1579.130"/>
      <line x1="536.948" y1="1629.130" x2="536.948" y2="1579.130"/>
      <line x1="537.948" y1="1629.130" x2="537.948" y2="1579.130"/>
      <line x1="538.948" y1="1629.130" x2="538.948" y2="1579.130"/>
      <line x1="539.948" y1="1629.130" x2="539.948" y2="1579.130"/>
      <line x1="540.948" y1="1629.130" x2="540.948" y2="1579.130"/>
      <line x1="541.948" y1="1629.130" x2="541.948" y2="1579.130"/>
      <line x1="542.948" y1="1629.130" x2="542.948" y2="1579.130"/>
      <line x1="543.948" y1="1629.130" x2="543.948" y2="1579.130"/>
      <line x1="544.948" y1="1629.130" x2="544.948" y2="1579.130"/>
      <line x1="545.948" y1="1629.130" x2="545.948" y2="1579.130"/>
      <line x1="546.948" y1="1629.130" x2="546.948" y2="1579.130"/>
      <line x1="547.948" y1="1629.130" x2="547.948" y2="1579.130"/>
      <line x1="548.948" y1="1629.130" x2="548.948" y2="1579.130"/>
      <line x1="549.948" y1="1629.130" x2="549.948" y2="1579.130"/>
      <line x1="550.948" y1="1629.130" x2="550.948" y2="1579.130"/>
      <line x1="551.948" y1="1629.130" x2="551.948" y2="1579.130"/>
      <line x1="552.948" y1="1629.130" x2="552.948" y2="1579.130"/>
      <line x1="553.948" y1="1629.130" x2="553.948" y2="1579.130"/>
      <line x1="554.948" y1="1629.130" x2="554.948" y2="1579.130"/>
      <line x1="555.948" y1="1629.130" x2="555.948" y2="1579.130"/>
      <line x1="556.948" y1="1629.130" x2="556.948" y2="1579.130"/>
      <line x1="557.948" y1="1629.130" x2="557.948" y2="1579.130"/>
      <line x1="558.948" y1="1629.130" x2="558.948" y2="1579.130"/>
      <line x1="559.948" y1="1629.130" x2="559.948" y2="1579.130"/>
      <line x1="560.948" y1="1629.130" x2="560.948" y2="1579.130"/>
      <line x1="561.948" y1="1629.130" x2="561.948" y2="1579.130"/>
      <line x1="562.948" y1="1629.130" x2="562.948" y2="1579.130"/>
      <line x1="563.948" y1="1629.130" x2="563.948" y2="1579.130"/>
      <line x1="564.948" y1="1629.130" x2="564.948" y2="1579.130"/>
      <line x1="565.948" y1="1629.130" x2="565.948" y2="1579.130"/>
      <line x1="566.948" y1="1629.130" x2="566.948" y2="1579.130"/>
      <line x1="567.948" y1="1629.130" x2="567.948" y2="1579.130"/>
      <line x1="568.948" y1="1629.130" x2="568.948" y2="1579.130"/>
      <line x1="569.948" y1="1629.130" x2="569.948" y2="1579.130"/>
      <line x1="570.948" y1="1629.130" x2="570.948" y2="1579.130"/>
      <line x1="571.948" y1="1629.130" x2="571.948" y2="1579.130"/>
      <line x1="572.948" y1="1629.130" x2="572.948" y2="1579.130"/>
      <line x1="573.948" y1="1629.130" x2="573.948" y2="1579.130"/>
      <line x1="574.948" y1="1629.130" x2="574.948" y2="1579.130"/>
      <line x1="575.948" y1="1629.130" x2="575.948" y2="1579.130"/>
      <line x1="576.948" y1="1629.130" x2="576.948" y2="1579.130"/>
      <line x1="577.948" y1="1629.130" x2="577.948" y2="1579.130"/>
      <line x1="578.948" y1="1629.130" x2="578.948" y2="1579.130"/>
      <line x1="579.948" y1="1629.130" x2="579.948" y2="1579.130"/>
      <line x1="580.948" y1="1629.130" x2="580.948" y2="1579.130"/>
      <line x1="581.948" y1="1629.130" x2="581.948" y2="1579.130"/>
      <line x1="582.948" y1="1629.130" x2="582.948" y2="1579.130"/>
      <line x1="583.948" y1="1629.130" x2="583.948" y2="1579.130"/>
      <line x1="584.948" y1="1629.130" x2="584.948" y2="1579.130"/>
      <line x1="585.948" y1="1629.130" x2="585.948" y2="1579.130"/>
      <line x1="586.948" y1="1629.130" x2="586.948" y2="1579.130"/>
      <line x1="587.948" y1="1629.130" x2="587.948" y2="1579.130"/>
      <line x1="588.948" y1="1629.130" x2="588.948" y2="1579.130"/>
      <line x1="589.948" y1="1629.130" x2="589.948" y2="1579.130"/>
      <line x1="590.948" y1="1629.130" x2="590.948" y2="1579.130"/>
      <line x1="591.948" y1="1629.130" x2="591.948" y2="1579.130"/>
      <line x1="592.948" y1="1629.130" x2="592.948" y2="1579.130"/>
      <line x1="593.948" y1="1629.130" x2="593.948" y2="1579.130"/>
      <line x1="594.948" y1="1629.130" x2="594.948" y2="1579.130"/>
      <line x1="595.948" y1="1629.130" x2="595.948" y2="1579.130"/>
      <line x1="596.948" y1="1629.130" x2="596.948" y2="1579.130"/>
      <line x1="480.948" y1="1579.030" x2="480.948" y2="1529.030"/>
      <line x1="481.948" y1="1579.030" x2="481.948" y2="1529.030"/>
      <line x1="482.948" y1="1579.030" x2="482.948" y2="1529.030"/>
      <line x1="483.948" y1="1579.030" x2="483.948" y2="1529.030"/>
      <line x1="484.948" y1="1579.030" x2="484.948" y2="1529.030"/>
      <line x1="485.948" y1="1579.030" x2="485.948" y2="1529.030"/>
      <line x1="486.948" y1="1579.030" x2="486.948" y2="1529.030"/>
      <line x1="487.948" y1="1579.030" x2="487.948" y2="1529.030"/>
      <line x1="488.948" y1="1579.030" x2="488.948" y2="1529.030"/>
      <line x1="489.948" y1="1579.030" x2="489.948" y2="1529.030"/>
      <line x1="490.948" y1="1579.030" x2="490.948" y2="1529.030"/>
      <line x1="491.948" y1="1579.030" x2="491.948" y2="1529.030"/>
      <line x1="492.948" y1="1579.030" x2="492.948" y2="1529.030"/>
      <line x1="493.948" y1="1579.030" x2="493.948" y2="1529.030"/>
      <line x1="494.948" y1="1579.030" x2="494.948" y2="1529.030"/>
      <line x1="495.948" y1="1579.030" x2="495.948" y2="1529.030"/>
      <line x1="496.948" y1="1579.030" x2="496.948" y2="1529.030"/>
      <line x1="497.948" y1="1579.030" x2="497.948" y2="1529.030"/>
      <line x1="498.948" y1="1579.030" x2="498.948" y2="1529.030"/>
      <line x1="499.948" y1="1579.030" x2="499.948" y2="1529.030"/>
      <line x1="500.948" y1="1579.030" x2="500.948" y2="1529.030"/>
      <line x1="501.948" y1="1579.030" x2="501.948" y2="1529.030"/>
      <line x1="502.948" y1="1579.030" x2="502.948" y2="1529.030"/>
      <line x1="503.948" y1="1579.030" x2="503.948" y2="1529.030"/>
      <line x1="504.948" y1="1579.030" x2="504.948" y2="1529.030"/>
      <line x1="505.948" y1="1579.030" x2="505.948" y2="1529.030"/>
      <line x1="506.948" y1="1579.030" x2="506.948" y2="1529.030"/>
      <line x1="507.948" y1="1579.030" x2="507.948" y2="1529.030"/>
      <line x1="508.948" y1="1579.030" x2="508.948" y2="1529.030"/>
      <line x1="509.948" y1="1579.030" x2="509.948" y2="1529.030"/>
      <line x1="510.948" y1="1579.030" x2="510.948" y2="1529.030"/>
      <line x1="511.948" y1="1579.030" x2="511.948" y2="1529.030"/>
      <line x1="512.948" y1="1579.030" x2="512.948" y2="1529.030"/>
      <line x1="513.948" y1="1579.030" x2="513.948" y2="1529.030"/>
      <line x1="514.948" y1="1579.030" x2="514.948" y2="1529.030"/>
      <line x1="515.948" y1="1579.030" x2="515.948" y2="1529.030"/>
      <line x1="516.948" y1="1579.030" x2="516.948" y2="1529.030"/>
      <line x1="517.948" y1="1579.030" x2="517.948" y2="1529.030"/>
      <line x1="518.948" y1="1579.030" x2="518.948" y2="1529.030"/>
      <line x1="519.948" y1="1579.030" x2="519.948" y2="1529.030"/>
      <line x1="520.948" y1="1579.030" x2="520.948" y2="1529.030"/>
      <line x1="521.948" y1="1579.030" x2="521.948" y2="1529.030"/>
      <line x1="522.948" y1="1579.030" x2="522.948" y2="1529.030"/>
      <line x1="523.948" y1="1579.030" x2="523.948" y2="1529.030"/>
      <line x1="524.948" y1="1579.030" x2="524.948" y2="1529.030"/>
      <line x1="525.948" y1="1579.030" x2="525.948" y2="1529.030"/>
      <line x1="526.948" y1="1579.030" x2="526.948" y2="1529.030"/>
      <line x1="527.948" y1="1579.030" x2="527.948" y2="1529.030"/>
      <line x1="528.948" y1="1579.030" x2="528.948" y2="1529.030"/>
      <line x1="529.948" y1="1579.030" x2="529.948" y2="1529.030"/>
      <line x1="530.948" y1="1579.030" x2="530.948" y2="1529.030"/>
      <line x1="531.948" y1="1579.030" x2="531.948" y2="1529.030"/>
      <line x1="532.948" y1="1579.030" x2="532.948" y2="1529.030"/>
      <line x1="533.948" y1="1579.030" x2="533.948" y2="1529.030"/>
      <line x1="534.948" y1="1579.030" x2="534.948" y2="1529.030"/>
      <line x1="535.948" y1="1579.030" x2="535.948" y2="1529.030"/>
      <line x1="536.948" y1="1579.030" x2="536.948" y2="1529.030"/>
      <line x1="537.948" y1="1579.030" x2="537.948" y2="1529.030"/>
      <line x1="538.948" y1="1579.030" x2="538.948" y2="1529.030"/>
      <line x1="539.948" y1="1579.030" x2="539.948" y2="1529.030"/>
      <line x1="540.948" y1="1579.030" x2="540.948" y2="1529.030"/>
      <line x1="541.948" y1="1579.030" x2="541.948" y2="1529.030"/>
      <line x1="542.948" y1="1579.030" x2="542.948" y2="1529.030"/>
      <line x1="543.948" y1="1579.030" x2="543.948" y2="1529.030"/>
      <line x1="544.948" y1="1579.030" x2="544.948" y2="1529.030"/>
      <line x1="545.948" y1="1579.030" x2="545.948" y2="1529.030"/>
      <line x1="546.948" y1="1579.030" x2="546.948" y2="1529.030"/>
      <line x1="547.948" y1="1579.030" x2="547.948" y2="1529.030"/>
      <line x1="548.948" y1="1579.030" x2="548.948" y2="1529.030"/>
      <line x1="549.948" y1="1579.030" x2="549.948" y2="1529.030"/>
      <line x1="550.948" y1="1579.030" x2="550.948" y2="1529.030"/>
      <line x1="551.948" y1="1579.030" x2="551.948" y2="1529.030"/>
      <line x1="552.948" y1="1579.030" x2="552.948" y2="1529.030"/>
      <line x1="553.948" y1="1579.030" x2="553.948" y2="1529.030"/>
      <line x1="554.948" y1="1579.030" x2="554.948" y2="1529.030"/>
      <line x1="555.948" y1="1579.030" x2="555.948" y2="1529.030"/>
      <line x1="556.948" y1="1579.030" x2="556.948" y2="1529.030"/>
      <line x1="557.948" y1="1579.030" x2="557.948" y2="1529.030"/>
      <line x1="558.948" y1="1579.030" x2="558.948" y2="1529.030"/>
      <line x1="559.948" y1="1579.030" x2="559.948" y2="1529.030"/>
      <line x1="560.948" y1="1579.030" x2="560.948" y2="1529.030"/>
      <line x1="561.948" y1="1579.030" x2="561.948" y2="1529.030"/>
      <line x1="562.948" y1="1579.030" x2="562.948" y2="1529.030"/>
      <line x1="563.948" y1="1579.030" x2="563.948" y2="1529.030"/>
      <line x1="564.948" y1="1579.030" x2="564.948" y2="1529.030"/>
      <line x1="565.948" y1="1579.030" x2="565.948" y2="1529.030"/>
      <line x1="566.948" y1="1579.030" x2="566.948" y2="1529.030"/>
      <line x1="567.948" y1="1579.030" x2="567.948" y2="1529.030"/>
      <line x1="568.948" y1="1579.030" x2="568.948" y2="1529.030"/>
      <line x1="569.948" y1="1579.030" x2="569.948" y2="1529.030"/>
      <line x1="570.948" y1="1579.030" x2="570.948" y2="1529.030"/>
      <line x1="571.948" y1="1579.030" x2="571.948" y2="1529.030"/>
      <line x1="572.948" y1="1579.030" x2="572.948" y2="1529.030"/>
      <line x1="573.948" y1="1579.030" x2="573.948" y2="1529.030"/>
      <line x1="574.948" y1="1579.030" x2="574.948" y2="1529.030"/>
      <line x1="575.948" y1="1579.030" x2="575.948" y2="1529.030"/>
      <line x1="576.948" y1="1579.030" x2="576.948" y2="1529.030"/>
      <line x1="577.948" y1="1579.030" x2="577.948" y2="1529.030"/>
      <line x1="578.948" y1="1579.030" x2="578.948" y2="1529.030"/>
      <line x1="579.948" y1="1579.030" x2="579.948" y2="1529.030"/>
      <line x1="580.948" y1="1579.030" x2="580.948" y2="1529.030"/>
      <line x1="581.948" y1="1579.030" x2="581.948" y2="1529.030"/>
      <line x1="582.948" y1="1579.030" x2="582.948" y2="1529.030"/>
      <line x1="583.948" y1="1579.030" x2="583.948" y2="1529.030"/>
      <line x1="584.948" y1="1579.030" x2="584.948" y2="1529.030"/>
      <line x1="585.948" y1="1579.030" x2="585.948" y2="1529.030"/>
      <line x1="586.948" y1="1579.030" x2="586.948" y2="1529.030"/>
      <line x1="587.948" y1="1579.030" x2="587.948" y2="1529.030"/>
      <line x1="588.948" y1="1579.030" x2="588.948" y2="1529.030"/>
      <line x1="589.948" y1="1579.030" x2="589.948" y2="1529.030"/>
      <line x1="590.948" y1="1579.030" x2="590.948" y2="1529.030"/>
      <line x1="591.948" y1="1579.030" x2="591.948" y2="1529.030"/>
      <line x1="592.948" y1="1579.030" x2="592.948" y2="1529.030"/>
      <line x1="593.948" y1="1579.030" x2="593.948" y2="1529.030"/>
      <line x1="594.948" y1="1579.030" x2="594.948" y2="1529.030"/>
      <line x1="595.948" y1="1579.030" x2="595.948" y2="1529.030"/>
      <line x1="596.948" y1="1579.030" x2="596.948" y2="1529.030"/>
      <line x1="481.948" y1="1528.930" x2="481.948" y2="1525.229"/>
      <line x1="501.948" y1="1528.930" x2="501.948" y2="1525.229"/>
      <line x1="500.948" y1="1528.930" x2="500.948" y2="1525.229"/>
      <line x1="509.948" y1="1528.930" x2="509.948" y2="1525.229"/>
      <line x1="506.948" y1="1528.930" x2="506.948" y2="1525.229"/>
      <line x1="503.948" y1="1528.930" x2="503.948" y2="1525.229"/>
      <line x1="480.948" y1="1528.930" x2="480.948" y2="1525.229"/>
      <line x1="483.948" y1="1528.930" x2="483.948" y2="1525.229"/>
      <line x1="484.948" y1="1528.930" x2="484.948" y2="1525.229"/>
      <line x1="486.948" y1="1528.930" x2="486.948" y2="1525.229"/>
      <line x1="489.948" y1="1528.930" x2="489.948" y2="1525.229"/>
      <line x1="491.948" y1="1528.930" x2="491.948" y2="1525.229"/>
      <line x1="494.948" y1="1528.930" x2="494.948" y2="1525.229"/>
      <line x1="504.948" y1="1528.930" x2="504.948" y2="1525.229"/>
      <line x1="498.948" y1="1528.930" x2="498.948" y2="1525.229"/>
      <line x1="495.948" y1="1528.930" x2="495.948" y2="1525.229"/>
      <line x1="492.948" y1="1528.930" x2="492.948" y2="1525.229"/>
      <line x1="497.948" y1="1528.930" x2="497.948" y2="1525.229"/>
      <line x1="507.948" y1="1528.930" x2="507.948" y2="1525.229"/>
      <line x1="482.948" y1="1528.930" x2="482.948" y2="1525.229"/>
      <line x1="485.948" y1="1528.930" x2="485.948" y2="1525.229"/>
      <line x1="488.948" y1="1528.930" x2="488.948" y2="1525.229"/>
      <line x1="487.948" y1="1528.930" x2="487.948" y2="1525.229"/>
      <line x1="490.948" y1="1528.930" x2="490.948" y2="1525.229"/>
      <line x1="493.948" y1="1528.930" x2="493.948" y2="1525.229"/>
      <line x1="496.948" y1="1528.930" x2="496.948" y2="1525.229"/>
      <line x1="499.948" y1="1528.930" x2="499.948" y2="1525.229"/>
      <line x1="502.948" y1="1528.930" x2="502.948" y2="1525.229"/>
      <line x1="505.948" y1="1528.930" x2="505.948" y2="1525.229"/>
      <line x1="508.948" y1="1528.930" x2="508.948" y2="1525.229"/>
      <line x1="516.948" y1="1528.930" x2="516.948" y2="1525.229"/>
      <line x1="527.948" y1="1528.930" x2="527.948" y2="1525.229"/>
      <line x1="526.948" y1="1528.930" x2="526.948" y2="1525.229"/>
      <line x1="525.948" y1="1528.930" x2="525.948" y2="1525.229"/>
      <line x1="524.948" y1="1528.930" x2="524.948" y2="1525.229"/>
      <line x1="523.948" y1="1528.930" x2="523.948" y2="1525.229"/>
      <line x1="522.948" y1="1528.930" x2="522.948" y2="1525.229"/>
      <line x1="521.948" y1="1528.930" x2="521.948" y2="1525.229"/>
      <line x1="520.948" y1="1528.930" x2="520.948" y2="1525.229"/>
      <line x1="519.948" y1="1528.930" x2="519.948" y2="1525.229"/>
      <line x1="518.948" y1="1528.930" x2="518.948" y2="1525.229"/>
      <line x1="517.948" y1="1528.930" x2="517.948" y2="1525.229"/>
      <line x1="528.948" y1="1528.930" x2="528.948" y2="1525.229"/>
      <line x1="515.948" y1="1528.930" x2="515.948" y2="1525.229"/>
      <line x1="514.948" y1="1528.930" x2="514.948" y2="1525.229"/>
      <line x1="513.948" y1="1528.930" x2="513.948" y2="1525.229"/>
      <line x1="512.948" y1="1528.930" x2="512.948" y2="1525.229"/>
      <line x1="511.948" y1="1528.930" x2="511.948" y2="1525.229"/>
      <line x1="510.948" y1="1528.930" x2="510.948" y2="1525.229"/>
      <line x1="529.948" y1="1528.930" x2="529.948" y2="1525.229"/>
      <line x1="573.948" y1="1528.930" x2="573.948" y2="1525.229"/>
      <line x1="552.948" y1="1528.930" x2="552.948" y2="1525.229"/>
      <line x1="572.948" y1="1528.930" x2="572.948" y2="1525.229"/>
      <line x1="571.948" y1="1528.930" x2="571.948" y2="1525.229"/>
      <line x1="570.948" y1="1528.930" x2="570.948" y2="1525.229"/>
      <line x1="569.948" y1="1528.930" x2="569.948" y2="1525.229"/>
      <line x1="568.948" y1="1528.930" x2="568.948" y2="1525.229"/>
      <line x1="567.948" y1="1528.930" x2="567.948" y2="1525.229"/>
      <line x1="566.948" y1="1528.930" x2="566.948" y2="1525.229"/>
      <line x1="565.948" y1="1528.930" x2="565.948" y2="1525.229"/>
      <line x1="564.948" y1="1528.930" x2="564.948" y2="1525.229"/>
      <line x1="563.948" y1="1528.930" x2="563.948" y2="1525.229"/>
      <line x1="562.948" y1="1528.930" x2="562.948" y2="1525.229"/>
      <line x1="561.948" y1="1528.930" x2="561.948" y2="1525.229"/>
      <line x1="560.948" y1="1528.930" x2="560.948" y2="1525.229"/>
      <line x1="559.948" y1="1528.930" x2="559.948" y2="1525.229"/>
      <line x1="558.948" y1="1528.930" x2="558.948" y2="1525.229"/>
      <line x1="557.948" y1="1528.930" x2="557.948" y2="1525.229"/>
      <line x1="556.948" y1="1528.930" x2="556.948" y2="1525.229"/>
      <line x1="555.948" y1="1528.930" x2="555.948" y2="1525.229"/>
      <line x1="554.948" y1="1528.930" x2="554.948" y2="1525.229"/>
      <line x1="553.948" y1="1528.930" x2="553.948" y2="1525.229"/>
      <line x1="551.948" y1="1528.930" x2="551.948" y2="1525.229"/>
      <line x1="574.948" y1="1528.930" x2="574.948" y2="1525.229"/>
      <line x1="579.948" y1="1528.930" x2="579.948" y2="1525.229"/>
      <line x1="578.948" y1="1528.930" x2="578.948" y2="1525.229"/>
      <line x1="577.948" y1="1528.930" x2="577.948" y2="1525.229"/>
      <line x1="576.948" y1="1528.930" x2="576.948" y2="1525.229"/>
      <line x1="575.948" y1="1528.930" x2="575.948" y2="1525.229"/>
      <line x1="539.948" y1="1528.930" x2="539.948" y2="1525.229"/>
      <line x1="550.948" y1="1528.930" x2="550.948" y2="1525.229"/>
      <line x1="549.948" y1="1528.930" x2="549.948" y2="1525.229"/>
      <line x1="548.948" y1="1528.930" x2="548.948" y2="1525.229"/>
      <line x1="547.948" y1="1528.930" x2="547.948" y2="1525.229"/>
      <line x1="546.948" y1="1528.930" x2="546.948" y2="1525.229"/>
      <line x1="545.948" y1="1528.930" x2="545.948" y2="1525.229"/>
      <line x1="544.948" y1="1528.930" x2="544.948" y2="1525.229"/>
      <line x1="543.948" y1="1528.930" x2="543.948" y2="1525.229"/>
      <line x1="542.948" y1="1528.930" x2="542.948" y2="1525.229"/>
      <line x1="541.948" y1="1528.930" x2="541.948" y2="1525.229"/>
      <line x1="540.948" y1="1528.930" x2="540.948" y2="1525.229"/>
      <line x1="538.948" y1="1528.930" x2="538.948" y2="1525.229"/>
      <line x1="537.948" y1="1528.930" x2="537.948" y2="1525.229"/>
      <line x1="536.948" y1="1528.930" x2="536.948" y2="1525.229"/>
      <line x1="535.948" y1="1528.930" x2="535.948" y2="1525.229"/>
      <line x1="534.948" y1="1528.930" x2="534.948" y2="1525.229"/>
      <line x1="533.948" y1="1528.930" x2="533.948" y2="1525.229"/>
      <line x1="532.948" y1="1528.930" x2="532.948" y2="1525.229"/>
      <line x1="531.948" y1="1528.930" x2="531.948" y2="1525.229"/>
      <line x1="530.948" y1="1528.930" x2="530.948" y2="1525.229"/>
      <line x1="596.948" y1="1528.930" x2="596.948" y2="1525.229"/>
      <line x1="594.948" y1="1528.930" x2="594.948" y2="1525.229"/>
      <line x1="593.948" y1="1528.930" x2="593.948" y2="1525.229"/>
      <line x1="591.948" y1="1528.930" x2="591.948" y2="1525.229"/>
      <line x1="590.948" y1="1528.930" x2="590.948" y2="1525.229"/>
      <line x1="588.948" y1="1528.930" x2="588.948" y2="1525.229"/>
      <line x1="585.948" y1="1528.930" x2="585.948" y2="1525.229"/>
      <line x1="584.948" y1="1528.930" x2="584.948" y2="1525.229"/>
      <line x1="583.948" y1="1528.930" x2="583.948" y2="1525.229"/>
      <line x1="582.948" y1="1528.930" x2="582.948" y2="1525.229"/>
      <line x1="581.948" y1="1528.930" x2="581.948" y2="1525.229"/>
      <line x1="580.948" y1="1528.930" x2="580.948" y2="1525.229"/>
      <line x1="587.948" y1="1528.930" x2="587.948" y2="1525.229"/>
      <line x1="586.948" y1="1528.930" x2="586.948" y2="1525.229"/>
      <line x1="589.948" y1="1528.930" x2="589.948" y2="1525.229"/>
      <line x1="592.948" y1="1528.930" x2="592.948" y2="1525.229"/>
      <line x1="595.948" y1="1528.930" x2="595.948" y2="1525.229"/>
      <line x1="3.439" y1="1679.230" x2="3.439" y2="1629.230"/>
      <line x1="4.439" y1="1679.230" x2="4.439" y2="1629.230"/>
      <line x1="5.439" y1="1679.230" x2="5.439" y2="1629.230"/>
      <line x1="6.439" y1="1679.230" x2="6.439" y2="1629.230"/>
      <line x1="7.439" y1="1679.230" x2="7.439" y2="1629.230"/>
      <line x1="8.439" y1="1679.230" x2="8.439" y2="1629.230"/>
      <line x1="9.439" y1="1679.230" x2="9.439" y2="1629.230"/>
      <line x1="10.439" y1="1679.230" x2="10.439" y2="1629.230"/>
      <line x1="11.439" y1="1679.230" x2="11.439" y2="1629.230"/>
      <line x1="12.439" y1="1679.230" x2="12.439" y2="1629.230"/>
      <line x1="13.439" y1="1679.230" x2="13.439" y2="1629.230"/>
      <line x1="14.439" y1="1679.230" x2="14.439" y2="1629.230"/>
      <line x1="15.439" y1="1679.230" x2="15.439" y2="1629.230"/>
      <line x1="16.439" y1="1679.230" x2="16.439" y2="1629.230"/>
      <line x1="17.439" y1="1679.230" x2="17.439" y2="1629.230"/>
      <line x1="18.439" y1="1679.230" x2="18.439" y2="1629.230"/>
      <line x1="19.439" y1="1679.230" x2="19.439" y2="1629.230"/>
      <line x1="20.439" y1="1679.230" x2="20.439" y2="1629.230"/>
      <line x1="21.439" y1="1679.230" x2="21.439" y2="1629.230"/>
      <line x1="22.439" y1="1679.230" x2="22.439" y2="1629.230"/>
      <line x1="23.439" y1="1679.230" x2="23.439" y2="1629.230"/>
      <line x1="24.439" y1="1679.230" x2="24.439" y2="1629.230"/>
      <line x1="25.439" y1="1679.230" x2="25.439" y2="1629.230"/>
      <line x1="26.439" y1="1679.230" x2="26.439" y2="1629.230"/>
      <line x1="27.439" y1="1679.230" x2="27.439" y2="1629.230"/>
      <line x1="28.439" y1="1679.230" x2="28.439" y2="1629.230"/>
      <line x1="29.439" y1="1679.230" x2="29.439" y2="1629.230"/>
      <line x1="30.439" y1="1679.230" x2="30.439" y2="1629.230"/>
      <line x1="31.439" y1="1679.230" x2="31.439" y2="1629.230"/>
      <line x1="32.439" y1="1679.230" x2="32.439" y2="1629.230"/>
      <line x1="33.439" y1="1679.230" x2="33.439" y2="1629.230"/>
      <line x1="34.439" y1="1679.230" x2="34.439" y2="1629.230"/>
      <line x1="35.439" y1="1679.230" x2="35.439" y2="1629.230"/>
      <line x1="36.439" y1="1679.230" x2="36.439" y2="1629.230"/>
      <line x1="37.439" y1="1679.230" x2="37.439" y2="1629.230"/>
      <line x1="38.439" y1="1679.230" x2="38.439" y2="1629.230"/>
      <line x1="39.439" y1="1679.230" x2="39.439" y2="1629.230"/>
      <line x1="40.439" y1="1679.230" x2="40.439" y2="1629.230"/>
      <line x1="41.439" y1="1679.230" x2="41.439" y2="1629.230"/>
      <line x1="42.439" y1="1679.230" x2="42.439" y2="1629.230"/>
      <line x1="43.439" y1="1679.230" x2="43.439" y2="1629.230"/>
      <line x1="44.439" y1="1679.230" x2="44.439" y2="1629.230"/>
      <line x1="45.439" y1="1679.230" x2="45.439" y2="1629.230"/>
      <line x1="46.439" y1="1679.230" x2="46.439" y2="1629.230"/>
      <line x1="47.439" y1="1679.230" x2="47.439" y2="1629.230"/>
      <line x1="48.439" y1="1679.230" x2="48.439" y2="1629.230"/>
      <line x1="49.439" y1="1679.230" x2="49.439" y2="1629.230"/>
      <line x1="50.439" y1="1679.230" x2="50.439" y2="1629.230"/>
      <line x1="51.439" y1="1679.230" x2="51.439" y2="1629.230"/>
      <line x1="52.439" y1="1679.230" x2="52.439" y2="1629.230"/>
      <line x1="53.439" y1="1679.230" x2="53.439" y2="1629.230"/>
      <line x1="54.439" y1="1679.230" x2="54.439" y2="1629.230"/>
      <line x1="55.439" y1="1679.230" x2="55.439" y2="1629.230"/>
      <line x1="56.439" y1="1679.230" x2="56.439" y2="1629.230"/>
      <line x1="57.439" y1="1679.230" x2="57.439" y2="1629.230"/>
      <line x1="58.439" y1="1679.230" x2="58.439" y2="1629.230"/>
      <line x1="59.439" y1="1679.230" x2="59.439" y2="1629.230"/>
      <line x1="60.439" y1="1679.230" x2="60.439" y2="1629.230"/>
      <line x1="61.439" y1="1679.230" x2="61.439" y2="1629.230"/>
      <line x1="62.439" y1="1679.230" x2="62.439" y2="1629.230"/>
      <line x1="63.439" y1="1679.230" x2="63.439" y2="1629.230"/>
      <line x1="64.439" y1="1679.230" x2="64.439" y2="1629.230"/>
      <line x1="65.439" y1="1679.230" x2="65.439" y2="1629.230"/>
      <line x1="66.439" y1="1679.230" x2="66.439" y2="1629.230"/>
      <line x1="67.439" y1="1679.230" x2="67.439" y2="1629.230"/>
      <line x1="68.439" y1="1679.230" x2="68.439" y2="1629.230"/>
      <line x1="69.439" y1="1679.230" x2="69.439" y2="1629.230"/>
      <line x1="70.439" y1="1679.230" x2="70.439" y2="1629.230"/>
      <line x1="71.439" y1="1679.230" x2="71.439" y2="1629.230"/>
      <line x1="72.439" y1="1679.230" x2="72.439" y2="1629.230"/>
      <line x1="73.439" y1="1679.230" x2="73.439" y2="1629.230"/>
      <line x1="74.439" y1="1679.230" x2="74.439" y2="1629.230"/>
      <line x1="75.439" y1="1679.230" x2="75.439" y2="1629.230"/>
      <line x1="76.439" y1="1679.230" x2="76.439" y2="1629.230"/>
      <line x1="77.439" y1="1679.230" x2="77.439" y2="1629.230"/>
      <line x1="78.439" y1="1679.230" x2="78.439" y2="1629.230"/>
      <line x1="79.439" y1="1679.230" x2="79.439" y2="1629.230"/>
      <line x1="80.439" y1="1679.230" x2="80.439" y2="1629.230"/>
      <line x1="81.439" y1="1679.230" x2="81.439" y2="1629.230"/>
      <line x1="82.439" y1="1679.230" x2="82.439" y2="1629.230"/>
      <line x1="83.439" y1="1679.230" x2="83.439" y2="1629.230"/>
      <line x1="84.439" y1="1679.230" x2="84.439" y2="1629.230"/>
      <line x1="85.439" y1="1679.230" x2="85.439" y2="1629.230"/>
      <line x1="86.439" y1="1679.230" x2="86.439" y2="1629.230"/>
      <line x1="87.439" y1="1679.230" x2="87.439" y2="1629.230"/>
      <line x1="88.439" y1="1679.230" x2="88.439" y2="1629.230"/>
      <line x1="89.439" y1="1679.230" x2="89.439" y2="1629.230"/>
      <line x1="90.439" y1="1679.230" x2="90.439" y2="1629.230"/>
      <line x1="91.439" y1="1679.230" x2="91.439" y2="1629.230"/>
      <line x1="92.439" y1="1679.230" x2="92.439" y2="1629.230"/>
      <line x1="93.439" y1="1679.230" x2="93.439" y2="1629.230"/>
      <line x1="94.439" y1="1679.230" x2="94.439" y2="1629.230"/>
      <line x1="95.439" y1="1679.230" x2="95.439" y2="1629.230"/>
      <line x1="96.439" y1="1679.230" x2="96.439" y2="1629.230"/>
      <line x1="97.439" y1="1679.230" x2="97.439" y2="1629.230"/>
      <line x1="98.439" y1="1679.230" x2="98.439" y2="1629.230"/>
      <line x1="99.439" y1="1679.230" x2="99.439" y2="1629.230"/>
      <line x1="100.439" y1="1679.230" x2="100.439" y2="1629.230"/>
      <line x1="101.439" y1="1679.230" x2="101.439" y2="1629.230"/>
      <line x1="102.439" y1="1679.230" x2="102.439" y2="1629.230"/>
      <line x1="103.439" y1="1679.230" x2="103.439" y2="1629.230"/>
      <line x1="104.439" y1="1679.230" x2="104.439" y2="1629.230"/>
      <line x1="105.439" y1="1679.230" x2="105.439" y2="1629.230"/>
      <line x1="106.439" y1="1679.230" x2="106.439" y2="1629.230"/>
      <line x1="107.439" y1="1679.230" x2="107.439" y2="1629.230"/>
      <line x1="108.439" y1="1679.230" x2="108.439" y2="1629.230"/>
      <line x1="109.439" y1="1679.230" x2="109.439" y2="1629.230"/>
      <line x1="110.439" y1="1679.230" x2="110.439" y2="1629.230"/>
      <line x1="111.439" y1="1679.230" x2="111.439" y2="1629.230"/>
      <line x1="112.439" y1="1679.230" x2="112.439" y2="1629.230"/>
      <line x1="113.439" y1="1679.230" x2="113.439" y2="1629.230"/>
      <line x1="114.439" y1="1679.230" x2="114.439" y2="1629.230"/>
      <line x1="115.439" y1="1679.230" x2="115.439" y2="1629.230"/>
      <line x1="116.439" y1="1679.230" x2="116.439" y2="1629.230"/>
      <line x1="117.439" y1="1679.230" x2="117.439" y2="1629.230"/>
      <line x1="118.439" y1="1679.230" x2="118.439" y2="1629.230"/>
      <line x1="119.439" y1="1679.230" x2="119.439" y2="1629.230"/>
      <line x1="3.439" y1="1629.130" x2="3.439" y2="1579.130"/>
      <line x1="4.439" y1="1629.130" x2="4.439" y2="1579.130"/>
      <line x1="5.439" y1="1629.130" x2="5.439" y2="1579.130"/>
      <line x1="6.439" y1="1629.130" x2="6.439" y2="1579.130"/>
      <line x1="7.439" y1="1629.130" x2="7.439" y2="1579.130"/>
      <line x1="8.439" y1="1629.130" x2="8.439" y2="1579.130"/>
      <line x1="9.439" y1="1629.130" x2="9.439" y2="1579.130"/>
      <line x1="10.439" y1="1629.130" x2="10.439" y2="1579.130"/>
      <line x1="11.439" y1="1629.130" x2="11.439" y2="1579.130"/>
      <line x1="12.439" y1="1629.130" x2="12.439" y2="1579.130"/>
      <line x1="13.439" y1="1629.130" x2="13.439" y2="1579.130"/>
      <line x1="14.439" y1="1629.130" x2="14.439" y2="1579.130"/>
      <line x1="15.439" y1="1629.130" x2="15.439" y2="1579.130"/>
      <line x1="16.439" y1="1629.130" x2="16.439" y2="1579.130"/>
      <line x1="17.439" y1="1629.130" x2="17.439" y2="1579.130"/>
      <line x1="18.439" y1="1629.130" x2="18.439" y2="1579.130"/>
      <line x1="19.439" y1="1629.130" x2="19.439" y2="1579.130"/>
      <line x1="20.439" y1="1629.130" x2="20.439" y2="1579.130"/>
      <line x1="21.439" y1="1629.130" x2="21.439" y2="1579.130"/>
      <line x1="22.439" y1="1629.130" x2="22.439" y2="1579.130"/>
      <line x1="23.439" y1="1629.130" x2="23.439" y2="1579.130"/>
      <line x1="24.439" y1="1629.130" x2="24.439" y2="1579.130"/>
      <line x1="25.439" y1="1629.130" x2="25.439" y2="1579.130"/>
      <line x1="26.439" y1="1629.130" x2="26.439" y2="1579.130"/>
      <line x1="27.439" y1="1629.130" x2="27.439" y2="1579.130"/>
      <line x1="28.439" y1="1629.130" x2="28.439" y2="1579.130"/>
      <line x1="29.439" y1="1629.130" x2="29.439" y2="1579.130"/>
      <line x1="30.439" y1="1629.130" x2="30.439" y2="1579.130"/>
      <line x1="31.439" y1="1629.130" x2="31.439" y2="1579.130"/>
      <line x1="32.439" y1="1629.130" x2="32.439" y2="1579.130"/>
      <line x1="33.439" y1="1629.130" x2="33.439" y2="1579.130"/>
      <line x1="34.439" y1="1629.130" x2="34.439" y2="1579.130"/>
      <line x1="35.439" y1="1629.130" x2="35.439" y2="1579.130"/>
      <line x1="36.439" y1="1629.130" x2="36.439" y2="1579.130"/>
      <line x1="37.439" y1="1629.130" x2="37.439" y2="1579.130"/>
      <line x1="38.439" y1="1629.130" x2="38.439" y2="1579.130"/>
      <line x1="39.439" y1="1629.130" x2="39.439" y2="1579.130"/>
      <line x1="40.439" y1="1629.130" x2="40.439" y2="1579.130"/>
      <line x1="41.439" y1="1629.130" x2="41.439" y2="1579.130"/>
      <line x1="42.439" y1="1629.130" x2="42.439" y2="1579.130"/>
      <line x1="43.439" y1="1629.130" x2="43.439" y2="1579.130"/>
      <line x1="44.439" y1="1629.130" x2="44.439" y2="1579.130"/>
      <line x1="45.439" y1="1629.130" x2="45.439" y2="1579.130"/>
      <line x1="46.439" y1="1629.130" x2="46.439" y2="1579.130"/>
      <line x1="47.439" y1="1629.130" x2="47.439" y2="1579.130"/>
      <line x1="48.439" y1="1629.130" x2="48.439" y2="1579.130"/>
      <line x1="49.439" y1="1629.130" x2="49.439" y2="1579.130"/>
      <line x1="50.439" y1="1629.130" x2="50.439" y2="1579.130"/>
      <line x1="51.439" y1="1629.130" x2="51.439" y2="1579.130"/>
      <line x1="52.439" y1="1629.130" x2="52.439" y2="1579.130"/>
      <line x1="53.439" y1="1629.130" x2="53.439" y2="1579.130"/>
      <line x1="54.439" y1="1629.130" x2="54.439" y2="1579.130"/>
      <line x1="55.439" y1="1629.130" x2="55.439" y2="1579.130"/>
      <line x1="56.439" y1="1629.130" x2="56.439" y2="1579.130"/>
      <line x1="57.439" y1="1629.130" x2="57.439" y2="1579.130"/>
      <line x1="58.439" y1="1629.130" x2="58.439" y2="1579.130"/>
      <line x1="59.439" y1="1629.130" x2="59.439" y2="1579.130"/>
      <line x1="60.439" y1="1629.130" x2="60.439" y2="1579.130"/>
      <line x1="61.439" y1="1629.130" x2="61.439" y2="1579.130"/>
      <line x1="62.439" y1="1629.130" x2="62.439" y2="1579.130"/>
      <line x1="63.439" y1="1629.130" x2="63.439" y2="1579.130"/>
      <line x1="64.439" y1="1629.130" x2="64.439" y2="1579.130"/>
      <line x1="65.439" y1="1629.130" x2="65.439" y2="1579.130"/>
      <line x1="66.439" y1="1629.130" x2="66.439" y2="1579.130"/>
      <line x1="67.439" y1="1629.130" x2="67.439" y2="1579.130"/>
      <line x1="68.439" y1="1629.130" x2="68.439" y2="1579.130"/>
      <line x1="69.439" y1="1629.130" x2="69.439" y2="1579.130"/>
      <line x1="70.439" y1="1629.130" x2="70.439" y2="1579.130"/>
      <line x1="71.439" y1="1629.130" x2="71.439" y2="1579.130"/>
      <line x1="72.439" y1="1629.130" x2="72.439" y2="1579.130"/>
      <line x1="73.439" y1="1629.130" x2="73.439" y2="1579.130"/>
      <line x1="74.439" y1="1629.130" x2="74.439" y2="1579.130"/>
      <line x1="75.439" y1="1629.130" x2="75.439" y2="1579.130"/>
      <line x1="76.439" y1="1629.130" x2="76.439" y2="1579.130"/>
      <line x1="77.439" y1="1629.130" x2="77.439" y2="1579.130"/>
      <line x1="78.439" y1="1629.130" x2="78.439" y2="1579.130"/>
      <line x1="79.439" y1="1629.130" x2="79.439" y2="1579.130"/>
      <line x1="80.439" y1="1629.130" x2="80.439" y2="1579.130"/>
      <line x1="81.439" y1="1629.130" x2="81.439" y2="1579.130"/>
      <line x1="82.439" y1="1629.130" x2="82.439" y2="1579.130"/>
      <line x1="83.439" y1="1629.130" x2="83.439" y2="1579.130"/>
      <line x1="84.439" y1="1629.130" x2="84.439" y2="1579.130"/>
      <line x1="85.439" y1="1629.130" x2="85.439" y2="1579.130"/>
      <line x1="86.439" y1="1629.130" x2="86.439" y2="1579.130"/>
      <line x1="87.439" y1="1629.130" x2="87.439" y2="1579.130"/>
      <line x1="88.439" y1="1629.130" x2="88.439" y2="1579.130"/>
      <line x1="89.439" y1="1629.130" x2="89.439" y2="1579.130"/>
      <line x1="90.439" y1="1629.130" x2="90.439" y2="1579.130"/>
      <line x1="91.439" y1="1629.130" x2="91.439" y2="1579.130"/>
      <line x1="92.439" y1="1629.130" x2="92.439" y2="1579.130"/>
      <line x1="93.439" y1="1629.130" x2="93.439" y2="1579.130"/>
      <line x1="94.439" y1="1629.130" x2="94.439" y2="1579.130"/>
      <line x1="95.439" y1="1629.130" x2="95.439" y2="1579.130"/>
      <line x1="96.439" y1="1629.130" x2="96.439" y2="1579.130"/>
      <line x1="97.439" y1="1629.130" x2="97.439" y2="1579.130"/>
      <line x1="98.439" y1="1629.130" x2="98.439" y2="1579.130"/>
      <line x1="99.439" y1="1629.130" x2="99.439" y2="1579.130"/>
      <line x1="100.439" y1="1629.130" x2="100.439" y2="1579.130"/>
      <line x1="101.439" y1="1629.130" x2="101.439" y2="1579.130"/>
      <line x1="102.439" y1="1629.130" x2="102.439" y2="1579.130"/>
      <line x1="103.439" y1="1629.130" x2="103.439" y2="1579.130"/>
      <line x1="104.439" y1="1629.130" x2="104.439" y2="1579.130"/>
      <line x1="105.439" y1="1629.130" x2="105.439" y2="1579.130"/>
      <line x1="106.439" y1="1629.130" x2="106.439" y2="1579.130"/>
      <line x1="107.439" y1="1629.130" x2="107.439" y2="1579.130"/>
      <line x1="108.439" y1="1629.130" x2="108.439" y2="1579.130"/>
      <line x1="109.439" y1="1629.130" x2="109.439" y2="1579.130"/>
      <line x1="110.439" y1="1629.130" x2="110.439" y2="1579.130"/>
      <line x1="111.439" y1="1629.130" x2="111.439" y2="1579.130"/>
      <line x1="112.439" y1="1629.130" x2="112.439" y2="1579.130"/>
      <line x1="113.439" y1="1629.130" x2="113.439" y2="1579.130"/>
      <line x1="114.439" y1="1629.130" x2="114.439" y2="1579.130"/>
      <line x1="115.439" y1="1629.130" x2="115.439" y2="1579.130"/>
      <line x1="116.439" y1="1629.130" x2="116.439" y2="1579.130"/>
      <line x1="117.439" y1="1629.130" x2="117.439" y2="1579.130"/>
      <line x1="118.439" y1="1629.130" x2="118.439" y2="1579.130"/>
      <line x1="119.439" y1="1629.130" x2="119.439" y2="1579.130"/>
      <line x1="3.439" y1="1579.030" x2="3.439" y2="1529.030"/>
      <line x1="4.439" y1="1579.030" x2="4.439" y2="1529.030"/>
      <line x1="5.439" y1="1579.030" x2="5.439" y2="1529.030"/>
      <line x1="6.439" y1="1579.030" x2="6.439" y2="1529.030"/>
      <line x1="7.439" y1="1579.030" x2="7.439" y2="1529.030"/>
      <line x1="8.439" y1="1579.030" x2="8.439" y2="1529.030"/>
      <line x1="9.439" y1="1579.030" x2="9.439" y2="1529.030"/>
      <line x1="10.439" y1="1579.030" x2="10.439" y2="1529.030"/>
      <line x1="11.439" y1="1579.030" x2="11.439" y2="1529.030"/>
      <line x1="12.439" y1="1579.030" x2="12.439" y2="1529.030"/>
      <line x1="13.439" y1="1579.030" x2="13.439" y2="1529.030"/>
      <line x1="14.439" y1="1579.030" x2="14.439" y2="1529.030"/>
      <line x1="15.439" y1="1579.030" x2="15.439" y2="1529.030"/>
      <line x1="16.439" y1="1579.030" x2="16.439" y2="1529.030"/>
      <line x1="17.439" y1="1579.030" x2="17.439" y2="1529.030"/>
      <line x1="18.439" y1="1579.030" x2="18.439" y2="1529.030"/>
      <line x1="19.439" y1="1579.030" x2="19.439" y2="1529.030"/>
      <line x1="20.439" y1="1579.030" x2="20.439" y2="1529.030"/>
      <line x1="21.439" y1="1579.030" x2="21.439" y2="1529.030"/>
      <line x1="22.439" y1="1579.030" x2="22.439" y2="1529.030"/>
      <line x1="23.439" y1="1579.030" x2="23.439" y2="1529.030"/>
      <line x1="24.439" y1="1579.030" x2="24.439" y2="1529.030"/>
      <line x1="25.439" y1="1579.030" x2="25.439" y2="1529.030"/>
      <line x1="26.439" y1="1579.030" x2="26.439" y2="1529.030"/>
      <line x1="27.439" y1="1579.030" x2="27.439" y2="1529.030"/>
      <line x1="28.439" y1="1579.030" x2="28.439" y2="1529.030"/>
      <line x1="29.439" y1="1579.030" x2="29.439" y2="1529.030"/>
      <line x1="30.439" y1="1579.030" x2="30.439" y2="1529.030"/>
      <line x1="31.439" y1="1579.030" x2="31.439" y2="1529.030"/>
      <line x1="32.439" y1="1579.030" x2="32.439" y2="1529.030"/>
      <line x1="33.439" y1="1579.030" x2="33.439" y2="1529.030"/>
      <line x1="34.439" y1="1579.030" x2="34.439" y2="1529.030"/>
      <line x1="35.439" y1="1579.030" x2="35.439" y2="1529.030"/>
      <line x1="36.439" y1="1579.030" x2="36.439" y2="1529.030"/>
      <line x1="37.439" y1="1579.030" x2="37.439" y2="1529.030"/>
      <line x1="38.439" y1="1579.030" x2="38.439" y2="1529.030"/>
      <line x1="39.439" y1="1579.030" x2="39.439" y2="1529.030"/>
      <line x1="40.439" y1="1579.030" x2="40.439" y2="1529.030"/>
      <line x1="41.439" y1="1579.030" x2="41.439" y2="1529.030"/>
      <line x1="42.439" y1="1579.030" x2="42.439" y2="1529.030"/>
      <line x1="43.439" y1="1579.030" x2="43.439" y2="1529.030"/>
      <line x1="44.439" y1="1579.030" x2="44.439" y2="1529.030"/>
      <line x1="45.439" y1="1579.030" x2="45.439" y2="1529.030"/>
      <line x1="46.439" y1="1579.030" x2="46.439" y2="1529.030"/>
      <line x1="47.439" y1="1579.030" x2="47.439" y2="1529.030"/>
      <line x1="48.439" y1="1579.030" x2="48.439" y2="1529.030"/>
      <line x1="49.439" y1="1579.030" x2="49.439" y2="1529.030"/>
      <line x1="50.439" y1="1579.030" x2="50.439" y2="1529.030"/>
      <line x1="51.439" y1="1579.030" x2="51.439" y2="1529.030"/>
      <line x1="52.439" y1="1579.030" x2="52.439" y2="1529.030"/>
      <line x1="53.439" y1="1579.030" x2="53.439" y2="1529.030"/>
      <line x1="54.439" y1="1579.030" x2="54.439" y2="1529.030"/>
      <line x1="55.439" y1="1579.030" x2="55.439" y2="1529.030"/>
      <line x1="56.439" y1="1579.030" x2="56.439" y2="1529.030"/>
      <line x1="57.439" y1="1579.030" x2="57.439" y2="1529.030"/>
      <line x1="58.439" y1="1579.030" x2="58.439" y2="1529.030"/>
      <line x1="59.439" y1="1579.030" x2="59.439" y2="1529.030"/>
      <line x1="60.439" y1="1579.030" x2="60.439" y2="1529.030"/>
      <line x1="61.439" y1="1579.030" x2="61.439" y2="1529.030"/>
      <line x1="62.439" y1="1579.030" x2="62.439" y2="1529.030"/>
      <line x1="63.439" y1="1579.030" x2="63.439" y2="1529.030"/>
      <line x1="64.439" y1="1579.030" x2="64.439" y2="1529.030"/>
      <line x1="65.439" y1="1579.030" x2="65.439" y2="1529.030"/>
      <line x1="66.439" y1="1579.030" x2="66.439" y2="1529.030"/>
      <line x1="67.439" y1="1579.030" x2="67.439" y2="1529.030"/>
      <line x1="68.439" y1="1579.030" x2="68.439" y2="1529.030"/>
      <line x1="69.439" y1="1579.030" x2="69.439" y2="1529.030"/>
      <line x1="70.439" y1="1579.030" x2="70.439" y2="1529.030"/>
      <line x1="71.439" y1="1579.030" x2="71.439" y2="1529.030"/>
      <line x1="72.439" y1="1579.030" x2="72.439" y2="1529.030"/>
      <line x1="73.439" y1="1579.030" x2="73.439" y2="1529.030"/>
      <line x1="74.439" y1="1579.030" x2="74.439" y2="1529.030"/>
      <line x1="75.439" y1="1579.030" x2="75.439" y2="1529.030"/>
      <line x1="76.439" y1="1579.030" x2="76.439" y2="1529.030"/>
      <line x1="77.439" y1="1579.030" x2="77.439" y2="1529.030"/>
      <line x1="78.439" y1="1579.030" x2="78.439" y2="1529.030"/>
      <line x1="79.439" y1="1579.030" x2="79.439" y2="1529.030"/>
      <line x1="80.439" y1="1579.030" x2="80.439" y2="1529.030"/>
      <line x1="81.439" y1="1579.030" x2="81.439" y2="1529.030"/>
      <line x1="82.439" y1="1579.030" x2="82.439" y2="1529.030"/>
      <line x1="83.439" y1="1579.030" x2="83.439" y2="1529.030"/>
      <line x1="84.439" y1="1579.030" x2="84.439" y2="1529.030"/>
      <line x1="85.439" y1="1579.030" x2="85.439" y2="1529.030"/>
      <line x1="86.439" y1="1579.030" x2="86.439" y2="1529.030"/>
      <line x1="87.439" y1="1579.030" x2="87.439" y2="1529.030"/>
      <line x1="88.439" y1="1579.030" x2="88.439" y2="1529.030"/>
      <line x1="89.439" y1="1579.030" x2="89.439" y2="1529.030"/>
      <line x1="90.439" y1="1579.030" x2="90.439" y2="1529.030"/>
      <line x1="91.439" y1="1579.030" x2="91.439" y2="1529.030"/>
      <line x1="92.439" y1="1579.030" x2="92.439" y2="1529.030"/>
      <line x1="93.439" y1="1579.030" x2="93.439" y2="1529.030"/>
      <line x1="94.439" y1="1579.030" x2="94.439" y2="1529.030"/>
      <line x1="95.439" y1="1579.030" x2="95.439" y2="1529.030"/>
      <line x1="96.439" y1="1579.030" x2="96.439" y2="1529.030"/>
      <line x1="97.439" y1="1579.030" x2="97.439" y2="1529.030"/>
      <line x1="98.439" y1="1579.030" x2="98.439" y2="1529.030"/>
      <line x1="99.439" y1="1579.030" x2="99.439" y2="1529.030"/>
      <line x1="100.439" y1="1579.030" x2="100.439" y2="1529.030"/>
      <line x1="101.439" y1="1579.030" x2="101.439" y2="1529.030"/>
      <line x1="102.439" y1="1579.030" x2="102.439" y2="1529.030"/>
      <line x1="103.439" y1="1579.030" x2="103.439" y2="1529.030"/>
      <line x1="104.439" y1="1579.030" x2="104.439" y2="1529.030"/>
      <line x1="105.439" y1="1579.030" x2="105.439" y2="1529.030"/>
      <line x1="106.439" y1="1579.030" x2="106.439" y2="1529.030"/>
      <line x1="107.439" y1="1579.030" x2="107.439" y2="1529.030"/>
      <line x1="108.439" y1="1579.030" x2="108.439" y2="1529.030"/>
      <line x1="109.439" y1="1579.030" x2="109.439" y2="1529.030"/>
      <line x1="110.439" y1="1579.030" x2="110.439" y2="1529.030"/>
      <line x1="111.439" y1="1579.030" x2="111.439" y2="1529.030"/>
      <line x1="112.439" y1="1579.030" x2="112.439" y2="1529.030"/>
      <line x1="113.439" y1="1579.030" x2="113.439" y2="1529.030"/>
      <line x1="114.439" y1="1579.030" x2="114.439" y2="1529.030"/>
      <line x1="115.439" y1="1579.030" x2="115.439" y2="1529.030"/>
      <line x1="116.439" y1="1579.030" x2="116.439" y2="1529.030"/>
      <line x1="117.439" y1="1579.030" x2="117.439" y2="1529.030"/>
      <line x1="118.439" y1="1579.030" x2="118.439" y2="1529.030"/>
      <line x1="119.439" y1="1579.030" x2="119.439" y2="1529.030"/>
      <line x1="5.439" y1="1528.930" x2="5.439" y2="1525.229"/>
      <line x1="3.439" y1="1528.930" x2="3.439" y2="1525.229"/>
      <line x1="8.439" y1="1528.930" x2="8.439" y2="1525.229"/>
      <line x1="10.439" y1="1528.930" x2="10.439" y2="1525.229"/>
      <line x1="11.439" y1="1528.930" x2="11.439" y2="1525.229"/>
      <line x1="13.439" y1="1528.930" x2="13.439" y2="1525.229"/>
      <line x1="14.439" y1="1528.930" x2="14.439" y2="1525.229"/>
      <line x1="50.439" y1="1528.930" x2="50.439" y2="1525.229"/>
      <line x1="52.439" y1="1528.930" x2="52.439" y2="1525.229"/>
      <line x1="51.439" y1="1528.930" x2="51.439" y2="1525.229"/>
      <line x1="49.439" y1="1528.930" x2="49.439" y2="1525.229"/>
      <line x1="4.439" y1="1528.930" x2="4.439" y2="1525.229"/>
      <line x1="7.439" y1="1528.930" x2="7.439" y2="1525.229"/>
      <line x1="6.439" y1="1528.930" x2="6.439" y2="1525.229"/>
      <line x1="9.439" y1="1528.930" x2="9.439" y2="1525.229"/>
      <line x1="12.439" y1="1528.930" x2="12.439" y2="1525.229"/>
      <line x1="15.439" y1="1528.930" x2="15.439" y2="1525.229"/>
      <line x1="26.439" y1="1528.930" x2="26.439" y2="1525.229"/>
      <line x1="25.439" y1="1528.930" x2="25.439" y2="1525.229"/>
      <line x1="24.439" y1="1528.930" x2="24.439" y2="1525.229"/>
      <line x1="23.439" y1="1528.930" x2="23.439" y2="1525.229"/>
      <line x1="22.439" y1="1528.930" x2="22.439" y2="1525.229"/>
      <line x1="21.439" y1="1528.930" x2="21.439" y2="1525.229"/>
      <line x1="20.439" y1="1528.930" x2="20.439" y2="1525.229"/>
      <line x1="19.439" y1="1528.930" x2="19.439" y2="1525.229"/>
      <line x1="18.439" y1="1528.930" x2="18.439" y2="1525.229"/>
      <line x1="17.439" y1="1528.930" x2="17.439" y2="1525.229"/>
      <line x1="16.439" y1="1528.930" x2="16.439" y2="1525.229"/>
      <line x1="27.439" y1="1528.930" x2="27.439" y2="1525.229"/>
      <line x1="38.439" y1="1528.930" x2="38.439" y2="1525.229"/>
      <line x1="48.439" y1="1528.930" x2="48.439" y2="1525.229"/>
      <line x1="47.439" y1="1528.930" x2="47.439" y2="1525.229"/>
      <line x1="46.439" y1="1528.930" x2="46.439" y2="1525.229"/>
      <line x1="45.439" y1="1528.930" x2="45.439" y2="1525.229"/>
      <line x1="44.439" y1="1528.930" x2="44.439" y2="1525.229"/>
      <line x1="43.439" y1="1528.930" x2="43.439" y2="1525.229"/>
      <line x1="42.439" y1="1528.930" x2="42.439" y2="1525.229"/>
      <line x1="41.439" y1="1528.930" x2="41.439" y2="1525.229"/>
      <line x1="40.439" y1="1528.930" x2="40.439" y2="1525.229"/>
      <line x1="39.439" y1="1528.930" x2="39.439" y2="1525.229"/>
      <line x1="37.439" y1="1528.930" x2="37.439" y2="1525.229"/>
      <line x1="36.439" y1="1528.930" x2="36.439" y2="1525.229"/>
      <line x1="35.439" y1="1528.930" x2="35.439" y2="1525.229"/>
      <line x1="34.439" y1="1528.930" x2="34.439" y2="1525.229"/>
      <line x1="33.439" y1="1528.930" x2="33.439" y2="1525.229"/>
      <line x1="32.439" y1="1528.930" x2="32.439" y2="1525.229"/>
      <line x1="31.439" y1="1528.930" x2="31.439" y2="1525.229"/>
      <line x1="30.439" y1="1528.930" x2="30.439" y2="1525.229"/>
      <line x1="29.439" y1="1528.930" x2="29.439" y2="1525.229"/>
      <line x1="28.439" y1="1528.930" x2="28.439" y2="1525.229"/>
      <line x1="96.439" y1="1528.930" x2="96.439" y2="1525.229"/>
      <line x1="95.439" y1="1528.930" x2="95.439" y2="1525.229"/>
      <line x1="101.439" y1="1528.930" x2="101.439" y2="1525.229"/>
      <line x1="90.439" y1="1528.930" x2="90.439" y2="1525.229"/>
      <line x1="99.439" y1="1528.930" x2="99.439" y2="1525.229"/>
      <line x1="98.439" y1="1528.930" x2="98.439" y2="1525.229"/>
      <line x1="92.439" y1="1528.930" x2="92.439" y2="1525.229"/>
      <line x1="89.439" y1="1528.930" x2="89.439" y2="1525.229"/>
      <line x1="93.439" y1="1528.930" x2="93.439" y2="1525.229"/>
      <line x1="71.439" y1="1528.930" x2="71.439" y2="1525.229"/>
      <line x1="70.439" y1="1528.930" x2="70.439" y2="1525.229"/>
      <line x1="69.439" y1="1528.930" x2="69.439" y2="1525.229"/>
      <line x1="68.439" y1="1528.930" x2="68.439" y2="1525.229"/>
      <line x1="67.439" y1="1528.930" x2="67.439" y2="1525.229"/>
      <line x1="66.439" y1="1528.930" x2="66.439" y2="1525.229"/>
      <line x1="65.439" y1="1528.930" x2="65.439" y2="1525.229"/>
      <line x1="64.439" y1="1528.930" x2="64.439" y2="1525.229"/>
      <line x1="63.439" y1="1528.930" x2="63.439" y2="1525.229"/>
      <line x1="62.439" y1="1528.930" x2="62.439" y2="1525.229"/>
      <line x1="61.439" y1="1528.930" x2="61.439" y2="1525.229"/>
      <line x1="60.439" y1="1528.930" x2="60.439" y2="1525.229"/>
      <line x1="59.439" y1="1528.930" x2="59.439" y2="1525.229"/>
      <line x1="58.439" y1="1528.930" x2="58.439" y2="1525.229"/>
      <line x1="57.439" y1="1528.930" x2="57.439" y2="1525.229"/>
      <line x1="56.439" y1="1528.930" x2="56.439" y2="1525.229"/>
      <line x1="55.439" y1="1528.930" x2="55.439" y2="1525.229"/>
      <line x1="54.439" y1="1528.930" x2="54.439" y2="1525.229"/>
      <line x1="53.439" y1="1528.930" x2="53.439" y2="1525.229"/>
      <line x1="83.439" y1="1528.930" x2="83.439" y2="1525.229"/>
      <line x1="88.439" y1="1528.930" x2="88.439" y2="1525.229"/>
      <line x1="87.439" y1="1528.930" x2="87.439" y2="1525.229"/>
      <line x1="86.439" y1="1528.930" x2="86.439" y2="1525.229"/>
      <line x1="85.439" y1="1528.930" x2="85.439" y2="1525.229"/>
      <line x1="84.439" y1="1528.930" x2="84.439" y2="1525.229"/>
      <line x1="72.439" y1="1528.930" x2="72.439" y2="1525.229"/>
      <line x1="82.439" y1="1528.930" x2="82.439" y2="1525.229"/>
      <line x1="81.439" y1="1528.930" x2="81.439" y2="1525.229"/>
      <line x1="80.439" y1="1528.930" x2="80.439" y2="1525.229"/>
      <line x1="79.439" y1="1528.930" x2="79.439" y2="1525.229"/>
      <line x1="78.439" y1="1528.930" x2="78.439" y2="1525.229"/>
      <line x1="77.439" y1="1528.930" x2="77.439" y2="1525.229"/>
      <line x1="76.439" y1="1528.930" x2="76.439" y2="1525.229"/>
      <line x1="75.439" y1="1528.930" x2="75.439" y2="1525.229"/>
      <line x1="74.439" y1="1528.930" x2="74.439" y2="1525.229"/>
      <line x1="73.439" y1="1528.930" x2="73.439" y2="1525.229"/>
      <line x1="91.439" y1="1528.930" x2="91.439" y2="1525.229"/>
      <line x1="94.439" y1="1528.930" x2="94.439" y2="1525.229"/>
      <line x1="97.439" y1="1528.930" x2="97.439" y2="1525.229"/>
      <line x1="100.439" y1="1528.930" x2="100.439" y2="1525.229"/>
      <line x1="102.439" y1="1528.930" x2="102.439" y2="1525.229"/>
      <line x1="119.439" y1="1528.930" x2="119.439" y2="1525.229"/>
      <line x1="118.439" y1="1528.930" x2="118.439" y2="1525.229"/>
      <line x1="116.439" y1="1528.930" x2="116.439" y2="1525.229"/>
      <line x1="115.439" y1="1528.930" x2="115.439" y2="1525.229"/>
      <line x1="113.439" y1="1528.930" x2="113.439" y2="1525.229"/>
      <line x1="112.439" y1="1528.930" x2="112.439" y2="1525.229"/>
      <line x1="110.439" y1="1528.930" x2="110.439" y2="1525.229"/>
      <line x1="109.439" y1="1528.930" x2="109.439" y2="1525.229"/>
      <line x1="107.439" y1="1528.930" x2="107.439" y2="1525.229"/>
      <line x1="106.439" y1="1528.930" x2="106.439" y2="1525.229"/>
      <line x1="104.439" y1="1528.930" x2="104.439" y2="1525.229"/>
      <line x1="103.439" y1="1528.930" x2="103.439" y2="1525.229"/>
      <line x1="105.439" y1="1528.930" x2="105.439" y2="1525.229"/>
      <line x1="108.439" y1="1528.930" x2="108.439" y2="1525.229"/>
      <line x1="111.439" y1="1528.930" x2="111.439" y2="1525.229"/>
      <line x1="114.439" y1="1528.930" x2="114.439" y2="1525.229"/>
      <line x1="117.439" y1="1528.930" x2="117.439" y2="1525.229"/>
    </g>
    <g stroke="#1976D2" stroke-width="0.4">
      <polyline points="478.866,1682.729 600.500,1682.729 600.500,1521.729 478.866,1521.729" fill="none"/>
      <polyline points="478.866,1521.729 477.009,1521.729 477.009,1682.729 478.866,1682.729" fill="none"/>
      <polyline points="478.866,1681.730 599.500,1681.730 599.500,1522.729 478.866,1522.729" fill="none"/>
      <polyline points="478.866,1522.729 478.009,1522.729 478.009,1681.730 478.866,1681.730" fill="none"/>
      <polyline points="598.500,1523.729 479.009,1523.729 479.009,1680.730 598.500,1680.730 598.500,1523.729" fill="none"/>
      <polyline points="597.500,1524.729 480.009,1524.729 480.009,1679.729 597.500,1679.729 597.500,1524.729" fill="none"/>
      <polyline points="121.134,1521.729 -0.500,1521.729 -0.500,1682.729 121.134,1682.729" fill="none"/>
      <polyline points="121.134,1682.729 122.991,1682.729 122.991,1521.729 121.134,1521.729" fill="none"/>
      <polyline points="121.134,1522.729 0.500,1522.729 0.500,1681.730 121.134,1681.730" fill="none"/>
      <polyline points="121.134,1681.730 121.991,1681.730 121.991,1522.729 121.134,1522.729" fill="none"/>
      <polyline points="120.991,1523.729 1.500,1523.729 1.500,1680.730 120.991,1680.730 120.991,1523.729" fill="none"/>
      <polyline points="119.991,1524.729 2.500,1524.729 2.500,1679.729 119.991,1679.729 119.991,1524.729" fill="none"/>
    </g>
    <g stroke="#C62828" stroke-width="0.4" fill="none">
      <polygon points="293.892,1533.660 295.214,1532.777 296.097,1531.455 296.407,1529.896 296.097,1528.337 295.214,1527.015 293.892,1526.132 292.333,1525.822 290.774,1526.132 289.453,1527.015 288.569,1528.337 288.259,1529.896 288.569,1531.455 289.453,1532.777 290.774,1533.660 292.333,1533.970"/>
      <polygon points="313.562,1533.679 314.995,1532.852 315.967,1531.514 316.311,1529.896 315.967,1528.278 314.995,1526.940 313.562,1526.113 311.918,1525.940 310.345,1526.452 309.115,1527.558 308.443,1529.069 308.443,1530.723 309.115,1532.234 310.345,1533.341 311.918,1533.852"/>
      <polygon points="273.501,1533.489 274.861,1532.704 275.784,1531.433 276.111,1529.896 275.784,1528.360 274.861,1527.089 273.501,1526.303 271.938,1526.139 270.444,1526.625 269.277,1527.676 268.638,1529.111 268.638,1530.682 269.277,1532.117 270.444,1533.168 271.938,1533.653"/>
      <polygon points="333.469,1533.391 334.792,1532.627 335.690,1531.391 336.008,1529.896 335.690,1528.402 334.792,1527.166 333.469,1526.402 331.949,1526.242 330.496,1526.714 329.361,1527.736 328.739,1529.132 328.739,1530.660 329.361,1532.056 330.496,1533.078 331.949,1533.550"/>
      <polygon points="354.491,1532.602 355.451,1531.398 355.794,1529.896 355.451,1528.395 354.491,1527.191 353.103,1526.523 351.563,1526.523 350.176,1527.191 349.216,1528.395 348.873,1529.896 349.216,1531.398 350.176,1532.602 351.563,1533.270 353.103,1533.270"/>
      <polygon points="254.491,1532.602 255.451,1531.398 255.794,1529.896 255.451,1528.395 254.491,1527.191 253.103,1526.523 251.563,1526.523 250.176,1527.191 249.216,1528.395 248.873,1529.896 249.216,1531.398 250.176,1532.602 251.563,1533.270 253.103,1533.270"/>
      <polygon points="234.351,1532.426 235.249,1531.300 235.569,1529.896 235.249,1528.492 234.351,1527.366 233.053,1526.742 231.613,1526.742 230.316,1527.366 229.418,1528.492 229.098,1529.896 229.418,1531.300 230.316,1532.426 231.613,1533.051 233.053,1533.051"/>
      <polygon points="374.278,1532.335 375.144,1531.250 375.453,1529.896 375.144,1528.543 374.278,1527.457 373.027,1526.855 371.639,1526.855 370.388,1527.457 369.523,1528.543 369.214,1529.896 369.523,1531.250 370.388,1532.335 371.639,1532.937 373.027,1532.937"/>
      <polygon points="213.968,1532.264 214.881,1531.233 215.211,1529.896 214.881,1528.559 213.968,1527.528 212.680,1527.040 211.313,1527.206 210.179,1527.988 209.539,1529.207 209.539,1530.585 210.179,1531.804 211.313,1532.587 212.680,1532.753"/>
      <polygon points="393.897,1532.161 394.770,1531.175 395.085,1529.896 394.770,1528.617 393.897,1527.631 392.665,1527.164 391.357,1527.323 390.273,1528.071 389.661,1529.238 389.661,1530.555 390.273,1531.721 391.357,1532.469 392.665,1532.628"/>
      <polygon points="193.579,1532.054 194.491,1531.142 194.825,1529.896 194.491,1528.651 193.579,1527.739 192.333,1527.405 191.088,1527.739 190.176,1528.651 189.842,1529.896 190.176,1531.142 191.088,1532.054 192.333,1532.387"/>
      <polygon points="413.579,1532.054 414.491,1531.142 414.825,1529.896 414.491,1528.651 413.579,1527.739 412.333,1527.405 411.088,1527.739 410.176,1528.651 409.842,1529.896 410.176,1531.142 411.088,1532.054 412.333,1532.387"/>
      <polygon points="173.441,1531.815 174.253,1531.004 174.550,1529.896 174.253,1528.788 173.441,1527.977 172.333,1527.680 171.225,1527.977 170.414,1528.788 170.117,1529.896 170.414,1531.004 171.225,1531.815 172.333,1532.112"/>
      <polygon points="433.370,1531.691 434.129,1530.933 434.406,1529.896 434.129,1528.860 433.370,1528.101 432.333,1527.823 431.297,1528.101 430.538,1528.860 430.260,1529.896 430.538,1530.933 431.297,1531.691 432.333,1531.969"/>
      <polygon points="153.333,1531.628 154.065,1530.896 154.333,1529.896 154.065,1528.896 153.333,1528.164 152.333,1527.896 151.333,1528.164 150.601,1528.896 150.333,1529.896 150.601,1530.896 151.333,1531.628 152.333,1531.896"/>
      <polygon points="453.333,1531.628 454.065,1530.896 454.333,1529.896 454.065,1528.896 453.333,1528.164 452.333,1527.896 451.333,1528.164 450.601,1528.896 450.333,1529.896 450.601,1530.896 451.333,1531.628 452.333,1531.896"/>
      <polygon points="293.892,1553.660 295.214,1552.777 296.097,1551.455 296.407,1549.896 296.097,1548.337 295.214,1547.015 293.892,1546.132 292.333,1545.822 290.774,1546.132 289.453,1547.015 288.569,1548.337 288.259,1549.896 288.569,1551.455 289.453,1552.777 290.774,1553.660 292.333,1553.970"/>
      <polygon points="313.562,1553.679 314.995,1552.852 315.967,1551.514 316.311,1549.896 315.967,1548.278 314.995,1546.940 313.562,1546.113 311.918,1545.940 310.345,1546.452 309.115,1547.558 308.443,1549.069 308.443,1550.723 309.115,1552.234 310.345,1553.341 311.918,1553.852"/>
      <polygon points="273.501,1553.489 274.861,1552.704 275.784,1551.433 276.111,1549.896 275.784,1548.360 274.861,1547.089 273.501,1546.303 271.938,1546.139 270.444,1546.625 269.277,1547.676 268.638,1549.111 268.638,1550.682 269.277,1552.117 270.444,1553.168 271.938,1553.653"/>
      <polygon points="333.469,1553.391 334.792,1552.627 335.690,1551.391 336.008,1549.896 335.690,1548.402 334.792,1547.166 333.469,1546.402 331.949,1546.242 330.496,1546.714 329.361,1547.736 328.739,1549.132 328.739,1550.660 329.361,1552.056 330.496,1553.078 331.949,1553.550"/>
      <polygon points="254.491,1552.602 255.451,1551.398 255.794,1549.896 255.451,1548.395 254.491,1547.191 253.103,1546.523 251.563,1546.523 250.176,1547.191 249.216,1548.395 248.873,1549.896 249.216,1551.398 250.176,1552.602 251.563,1553.270 253.103,1553.270"/>
      <polygon points="354.491,1552.602 355.451,1551.398 355.794,1549.896 355.451,1548.395 354.491,1547.191 353.103,1546.523 351.563,1546.523 350.176,1547.191 349.216,1548.395 348.873,1549.896 349.216,1551.398 350.176,1552.602 351.563,1553.270 353.103,1553.270"/>
      <polygon points="234.351,1552.426 235.249,1551.300 235.569,1549.896 235.249,1548.492 234.351,1547.366 233.053,1546.742 231.613,1546.742 230.316,1547.366 229.418,1548.492 229.098,1549.896 229.418,1551.300 230.316,1552.426 231.613,1553.051 233.053,1553.051"/>
      <polygon points="374.278,1552.335 375.144,1551.250 375.453,1549.896 375.144,1548.543 374.278,1547.457 373.027,1546.855 371.639,1546.855 370.388,1547.457 369.523,1548.543 369.214,1549.896 369.523,1551.250 370.388,1552.335 371.639,1552.937 373.027,1552.937"/>
      <polygon points="213.968,1552.264 214.881,1551.233 215.211,1549.896 214.881,1548.559 213.968,1547.528 212.680,1547.040 211.313,1547.206 210.179,1547.988 209.539,1549.207 209.539,1550.585 210.179,1551.804 211.313,1552.587 212.680,1552.753"/>
      <polygon points="393.897,1552.161 394.770,1551.175 395.085,1549.896 394.770,1548.617 393.897,1547.631 392.665,1547.164 391.357,1547.323 390.273,1548.071 389.661,1549.238 389.661,1550.555 390.273,1551.721 391.357,1552.469 392.665,1552.628"/>
      <polygon points="193.579,1552.054 194.491,1551.142 194.825,1549.896 194.491,1548.651 193.579,1547.739 192.333,1547.405 191.088,1547.739 190.176,1548.651 189.842,1549.896 190.176,1551.142 191.088,1552.054 192.333,1552.387"/>
      <polygon points="413.579,1552.054 414.491,1551.142 414.825,1549.896 414.491,1548.651 413.579,1547.739 412.333,1547.405 411.088,1547.739 410.176,1548.651 409.842,1549.896 410.176,1551.142 411.088,1552.054 412.333,1552.387"/>
      <polygon points="173.441,1551.815 174.253,1551.004 174.550,1549.896 174.253,1548.788 173.441,1547.977 172.333,1547.680 171.225,1547.977 170.414,1548.788 170.117,1549.896 170.414,1551.004 171.225,1551.815 172.333,1552.112"/>
      <polygon points="433.370,1551.691 434.129,1550.933 434.406,1549.896 434.129,1548.860 433.370,1548.101 432.333,1547.823 431.297,1548.101 430.538,1548.860 430.260,1549.896 430.538,1550.933 431.297,1551.691 432.333,1551.969"/>
      <polygon points="153.333,1551.628 154.065,1550.896 154.333,1549.896 154.065,1548.896 153.333,1548.164 152.333,1547.896 151.333,1548.164 150.601,1548.896 150.333,1549.896 150.601,1550.896 151.333,1551.628 152.333,1551.896"/>
      <polygon points="453.333,1551.628 454.065,1550.896 454.333,1549.896 454.065,1548.896 453.333,1548.164 452.333,1547.896 451.333,1548.164 450.601,1548.896 450.333,1549.896 450.601,1550.896 451.333,1551.628 452.333,1551.896"/>
      <polygon points="293.892,1573.660 295.214,1572.777 296.097,1571.455 296.407,1569.896 296.097,1568.337 295.214,1567.015 293.892,1566.132 292.333,1565.822 290.774,1566.132 289.453,1567.015 288.569,1568.337 288.259,1569.896 288.569,1571.455 289.453,1572.777 290.774,1573.660 292.333,1573.970"/>
      <polygon points="313.562,1573.679 314.995,1572.852 315.967,1571.514 316.311,1569.896 315.967,1568.278 314.995,1566.940 313.562,1566.113 311.918,1565.940 310.345,1566.452 309.115,1567.558 308.443,1569.069 308.443,1570.723 309.115,1572.234 310.345,1573.341 311.918,1573.852"/>
      <polygon points="273.501,1573.489 274.861,1572.704 275.784,1571.433 276.111,1569.896 275.784,1568.360 274.861,1567.089 273.501,1566.303 271.938,1566.139 270.444,1566.625 269.277,1567.676 268.638,1569.111 268.638,1570.682 269.277,1572.117 270.444,1573.168 271.938,1573.653"/>
      <polygon points="333.469,1573.391 334.792,1572.627 335.690,1571.391 336.008,1569.896 335.690,1568.402 334.792,1567.166 333.469,1566.402 331.949,1566.242 330.496,1566.714 329.361,1567.736 328.739,1569.132 328.739,1570.660 329.361,1572.056 330.496,1573.078 331.949,1573.550"/>
      <polygon points="354.491,1572.602 355.451,1571.398 355.794,1569.896 355.451,1568.395 354.491,1567.191 353.103,1566.523 351.563,1566.523 350.176,1567.191 349.216,1568.395 348.873,1569.896 349.216,1571.398 350.176,1572.602 351.563,1573.270 353.103,1573.270"/>
      <polygon points="254.491,1572.602 255.451,1571.398 255.794,1569.896 255.451,1568.395 254.491,1567.191 253.103,1566.523 251.563,1566.523 250.176,1567.191 249.216,1568.395 248.873,1569.896 249.216,1571.398 250.176,1572.602 251.563,1573.270 253.103,1573.270"/>
      <polygon points="234.351,1572.426 235.249,1571.300 235.569,1569.896 235.249,1568.492 234.351,1567.366 233.053,1566.742 231.613,1566.742 230.316,1567.366 229.418,1568.492 229.098,1569.896 229.418,1571.300 230.316,1572.426 231.613,1573.051 233.053,1573.051"/>
      <polygon points="374.278,1572.335 375.144,1571.250 375.453,1569.896 375.144,1568.543 374.278,1567.457 373.027,1566.855 371.639,1566.855 370.388,1567.457 369.523,1568.543 369.214,1569.896 369.523,1571.250 370.388,1572.335 371.639,1572.937 373.027,1572.937"/>
      <polygon points="213.968,1572.264 214.881,1571.233 215.211,1569.896 214.881,1568.559 213.968,1567.528 212.680,1567.040 211.313,1567.206 210.179,1567.988 209.539,1569.207 209.539,1570.585 210.179,1571.804 211.313,1572.587 212.680,1572.753"/>
      <polygon points="393.897,1572.161 394.770,1571.175 395.085,1569.896 394.770,1568.617 393.897,1567.631 392.665,1567.164 391.357,1567.323 390.273,1568.071 389.661,1569.238 389.661,1570.555 390.273,1571.721 391.357,1572.469 392.665,1572.628"/>
      <polygon points="413.579,1572.054 414.491,1571.142 414.825,1569.896 414.491,1568.651 413.579,1567.739 412.333,1567.405 411.088,1567.739 410.176,1568.651 409.842,1569.896 410.176,1571.142 411.088,1572.054 412.333,1572.387"/>
      <polygon points="193.579,1572.054 194.491,1571.142 194.825,1569.896 194.491,1568.651 193.579,1567.739 192.333,1567.405 191.088,1567.739 190.176,1568.651 189.842,1569.896 190.176,1571.142 191.088,1572.054 192.333,1572.387"/>
      <polygon points="173.441,1571.815 174.253,1571.004 174.550,1569.896 174.253,1568.788 173.441,1567.977 172.333,1567.680 171.225,1567.977 170.414,1568.788 170.117,1569.896 170.414,1571.004 171.225,1571.815 172.333,1572.112"/>
      <polygon points="433.370,1571.691 434.129,1570.933 434.406,1569.896 434.129,1568.860 433.370,1568.101 432.333,1567.823 431.297,1568.101 430.538,1568.860 430.260,1569.896 430.538,1570.933 431.297,1571.691 432.333,1571.969"/>
      <polygon points="153.333,1571.628 154.065,1570.896 154.333,1569.896 154.065,1568.896 153.333,1568.164 152.333,1567.896 151.333,1568.164 150.601,1568.896 150.333,1569.896 150.601,1570.896 151.333,1571.628 152.333,1571.896"/>
      <polygon points="453.333,1571.628 454.065,1570.896 454.333,1569.896 454.065,1568.896 453.333,1568.164 452.333,1567.896 451.333,1568.164 450.601,1568.896 450.333,1569.896 450.601,1570.896 451.333,1571.628 452.333,1571.896"/>
      <polygon points="293.892,1593.660 295.214,1592.777 296.097,1591.455 296.407,1589.896 296.097,1588.337 295.214,1587.015 293.892,1586.132 292.333,1585.822 290.774,1586.132 289.453,1587.015 288.569,1588.337 288.259,1589.896 288.569,1591.455 289.453,1592.777 290.774,1593.660 292.333,1593.970"/>
      <polygon points="313.562,1593.679 314.995,1592.852 315.967,1591.514 316.311,1589.896 315.967,1588.278 314.995,1586.940 313.562,1586.113 311.918,1585.940 310.345,1586.452 309.115,1587.558 308.443,1589.069 308.443,1590.723 309.115,1592.234 310.345,1593.341 311.918,1593.852"/>
      <polygon points="273.501,1593.489 274.861,1592.704 275.784,1591.433 276.111,1589.896 275.784,1588.360 274.861,1587.089 273.501,1586.303 271.938,1586.139 270.444,1586.625 269.277,1587.676 268.638,1589.111 268.638,1590.682 269.277,1592.117 270.444,1593.168 271.938,1593.653"/>
      <polygon points="333.469,1593.391 334.792,1592.627 335.690,1591.391 336.008,1589.896 335.690,1588.402 334.792,1587.166 333.469,1586.402 331.949,1586.242 330.496,1586.714 329.361,1587.736 328.739,1589.132 328.739,1590.660 329.361,1592.056 330.496,1593.078 331.949,1593.550"/>
      <polygon points="354.491,1592.602 355.451,1591.398 355.794,1589.896 355.451,1588.395 354.491,1587.191 353.103,1586.523 351.563,1586.523 350.176,1587.191 349.216,1588.395 348.873,1589.896 349.216,1591.398 350.176,1592.602 351.563,1593.270 353.103,1593.270"/>
      <polygon points="254.491,1592.602 255.451,1591.398 255.794,1589.896 255.451,1588.395 254.491,1587.191 253.103,1586.523 251.563,1586.523 250.176,1587.191 249.216,1588.395 248.873,1589.896 249.216,1591.398 250.176,1592.602 251.563,1593.270 253.103,1593.270"/>
      <polygon points="234.351,1592.426 235.249,1591.300 235.569,1589.896 235.249,1588.492 234.351,1587.366 233.053,1586.742 231.613,1586.742 230.316,1587.366 229.418,1588.492 229.098,1589.896 229.418,1591.300 230.316,1592.426 231.613,1593.051 233.053,1593.051"/>
      <polygon points="374.278,1592.335 375.144,1591.250 375.453,1589.896 375.144,1588.543 374.278,1587.457 373.027,1586.855 371.639,1586.855 370.388,1587.457 369.523,1588.543 369.214,1589.896 369.523,1591.250 370.388,1592.335 371.639,1592.937 373.027,1592.937"/>
      <polygon points="213.968,1592.264 214.881,1591.233 215.211,1589.896 214.881,1588.559 213.968,1587.528 212.680,1587.040 211.313,1587.206 210.179,1587.988 209.539,1589.207 209.539,1590.585 210.179,1591.804 211.313,1592.587 212.680,1592.753"/>
      <polygon points="393.897,1592.161 394.770,1591.175 395.085,1589.896 394.770,1588.617 393.897,1587.631 392.665,1587.164 391.357,1587.323 390.273,1588.071 389.661,1589.238 389.661,1590.555 390.273,1591.721 391.357,1592.469 392.665,1592.628"/>
      <polygon points="413.579,1592.054 414.491,1591.142 414.825,1589.896 414.491,1588.651 413.579,1587.739 412.333,1587.405 411.088,1587.739 410.176,1588.651 409.842,1589.896 410.176,1591.142 411.088,1592.054 412.333,1592.387"/>
      <polygon points="193.579,1592.054 194.491,1591.142 194.825,1589.896 194.491,1588.651 193.579,1587.739 192.333,1587.405 191.088,1587.739 190.176,1588.651 189.842,1589.896 190.176,1591.142 191.088,1592.054 192.333,1592.387"/>
      <polygon points="173.441,1591.815 174.253,1591.004 174.550,1589.896 174.253,1588.788 173.441,1587.977 172.333,1587.680 171.225,1587.977 170.414,1588.788 170.117,1589.896 170.414,1591.004 171.225,1591.815 172.333,1592.112"/>
      <polygon points="433.370,1591.691 434.129,1590.933 434.406,1589.896 434.129,1588.860 433.370,1588.101 432.333,1587.823 431.297,1588.101 430.538,1588.860 430.260,1589.896 430.538,1590.933 431.297,1591.691 432.333,1591.969"/>
      <polygon points="453.333,1591.628 454.065,1590.896 454.333,1589.896 454.065,1588.896 453.333,1588.164 452.333,1587.896 451.333,1588.164 450.601,1588.896 450.333,1589.896 450.601,1590.896 451.333,1591.628 452.333,1591.896"/>
      <polygon points="153.333,1591.628 154.065,1590.896 154.333,1589.896 154.065,1588.896 153.333,1588.164 152.333,1587.896 151.333,1588.164 150.601,1588.896 150.333,1589.896 150.601,1590.896 151.333,1591.628 152.333,1591.896"/>
      <polygon points="293.892,1613.660 295.214,1612.777 296.097,1611.455 296.407,1609.896 296.097,1608.337 295.214,1607.015 293.892,1606.132 292.333,1605.822 290.774,1606.132 289.453,1607.015 288.569,1608.337 288.259,1609.896 288.569,1611.455 289.453,1612.777 290.774,1613.660 292.333,1613.970"/>
      <polygon points="313.562,1613.679 314.995,1612.852 315.967,1611.514 316.311,1609.896 315.967,1608.278 314.995,1606.940 313.562,1606.113 311.918,1605.940 310.345,1606.452 309.115,1607.558 308.443,1609.069 308.443,1610.723 309.115,1612.234 310.345,1613.341 311.918,1613.852"/>
      <polygon points="273.501,1613.489 274.861,1612.704 275.784,1611.433 276.111,1609.896 275.784,1608.360 274.861,1607.089 273.501,1606.303 271.938,1606.139 270.444,1606.625 269.277,1607.676 268.638,1609.111 268.638,1610.682 269.277,1612.117 270.444,1613.168 271.938,1613.653"/>
      <polygon points="333.469,1613.391 334.792,1612.627 335.690,1611.391 336.008,1609.896 335.690,1608.402 334.792,1607.166 333.469,1606.402 331.949,1606.242 330.496,1606.714 329.361,1607.736 328.739,1609.132 328.739,1610.660 329.361,1612.056 330.496,1613.078 331.949,1613.550"/>
      <polygon points="354.491,1612.602 355.451,1611.398 355.794,1609.896 355.451,1608.395 354.491,1607.191 353.103,1606.523 351.563,1606.523 350.176,1607.191 349.216,1608.395 348.873,1609.896 349.216,1611.398 350.176,1612.602 351.563,1613.270 353.103,1613.270"/>
      <polygon points="254.491,1612.602 255.451,1611.398 255.794,1609.896 255.451,1608.395 254.491,1607.191 253.103,1606.523 251.563,1606.523 250.176,1607.191 249.216,1608.395 248.873,1609.896 249.216,1611.398 250.176,1612.602 251.563,1613.270 253.103,1613.270"/>
      <polygon points="234.351,1612.426 235.249,1611.300 235.569,1609.896 235.249,1608.492 234.351,1607.366 233.053,1606.742 231.613,1606.742 230.316,1607.366 229.418,1608.492 229.098,1609.896 229.418,1611.300 230.316,1612.426 231.613,1613.051 233.053,1613.051"/>
      <polygon points="374.278,1612.335 375.144,1611.250 375.453,1609.896 375.144,1608.543 374.278,1607.457 373.027,1606.855 371.639,1606.855 370.388,1607.457 369.523,1608.543 369.214,1609.896 369.523,1611.250 370.388,1612.335 371.639,1612.937 373.027,1612.937"/>
      <polygon points="213.968,1612.264 214.881,1611.233 215.211,1609.896 214.881,1608.559 213.968,1607.528 212.680,1607.040 211.313,1607.206 210.179,1607.988 209.539,1609.207 209.539,1610.585 210.179,1611.804 211.313,1612.587 212.680,1612.753"/>
      <polygon points="393.897,1612.161 394.770,1611.175 395.085,1609.896 394.770,1608.617 393.897,1607.631 392.665,1607.164 391.357,1607.323 390.273,1608.071 389.661,1609.238 389.661,1610.555 390.273,1611.721 391.357,1612.469 392.665,1612.628"/>
      <polygon points="413.579,1612.054 414.491,1611.142 414.825,1609.896 414.491,1608.651 413.579,1607.739 412.333,1607.405 411.088,1607.739 410.176,1608.651 409.842,1609.896 410.176,1611.142 411.088,1612.054 412.333,1612.387"/>
      <polygon points="193.579,1612.054 194.491,1611.142 194.825,1609.896 194.491,1608.651 193.579,1607.739 192.333,1607.405 191.088,1607.739 190.176,1608.651 189.842,1609.896 190.176,1611.142 191.088,1612.054 192.333,1612.387"/>
      <polygon points="173.441,1611.815 174.253,1611.004 174.550,1609.896 174.253,1608.788 173.441,1607.977 172.333,1607.680 171.225,1607.977 170.414,1608.788 170.117,1609.896 170.414,1611.004 171.225,1611.815 172.333,1612.112"/>
      <polygon points="433.370,1611.691 434.129,1610.933 434.406,1609.896 434.129,1608.860 433.370,1608.101 432.333,1607.823 431.297,1608.101 430.538,1608.860 430.260,1609.896 430.538,1610.933 431.297,1611.691 432.333,1611.969"/>
      <polygon points="453.333,1611.628 454.065,1610.896 454.333,1609.896 454.065,1608.896 453.333,1608.164 452.333,1607.896 451.333,1608.164 450.601,1608.896 450.333,1609.896 450.601,1610.896 451.333,1611.628 452.333,1611.896"/>
      <polygon points="153.333,1611.628 154.065,1610.896 154.333,1609.896 154.065,1608.896 153.333,1608.164 152.333,1607.896 151.333,1608.164 150.601,1608.896 150.333,1609.896 150.601,1610.896 151.333,1611.628 152.333,1611.896"/>
      <polygon points="293.892,1633.660 295.214,1632.777 296.097,1631.455 296.407,1629.896 296.097,1628.337 295.214,1627.015 293.892,1626.132 292.333,1625.822 290.774,1626.132 289.453,1627.015 288.569,1628.337 288.259,1629.896 288.569,1631.455 289.453,1632.777 290.774,1633.660 292.333,1633.970"/>
      <polygon points="313.562,1633.679 314.995,1632.852 315.967,1631.514 316.311,1629.896 315.967,1628.278 314.995,1626.940 313.562,1626.113 311.918,1625.940 310.345,1626.452 309.115,1627.558 308.443,1629.069 308.443,1630.723 309.115,1632.234 310.345,1633.341 311.918,1633.852"/>
      <polygon points="273.501,1633.489 274.861,1632.704 275.784,1631.433 276.111,1629.896 275.784,1628.360 274.861,1627.089 273.501,1626.303 271.938,1626.139 270.444,1626.625 269.277,1627.676 268.638,1629.111 268.638,1630.682 269.277,1632.117 270.444,1633.168 271.938,1633.653"/>
      <polygon points="333.469,1633.391 334.792,1632.627 335.690,1631.391 336.008,1629.896 335.690,1628.402 334.792,1627.166 333.469,1626.402 331.949,1626.242 330.496,1626.714 329.361,1627.736 328.739,1629.132 328.739,1630.660 329.361,1632.056 330.496,1633.078 331.949,1633.550"/>
      <polygon points="254.491,1632.602 255.451,1631.398 255.794,1629.896 255.451,1628.395 254.491,1627.191 253.103,1626.523 251.563,1626.523 250.176,1627.191 249.216,1628.395 248.873,1629.896 249.216,1631.398 250.176,1632.602 251.563,1633.270 253.103,1633.270"/>
      <polygon points="354.491,1632.602 355.451,1631.398 355.794,1629.896 355.451,1628.395 354.491,1627.191 353.103,1626.523 351.563,1626.523 350.176,1627.191 349.216,1628.395 348.873,1629.896 349.216,1631.398 350.176,1632.602 351.563,1633.270 353.103,1633.270"/>
      <polygon points="234.351,1632.426 235.249,1631.300 235.569,1629.896 235.249,1628.492 234.351,1627.366 233.053,1626.742 231.613,1626.742 230.316,1627.366 229.418,1628.492 229.098,1629.896 229.418,1631.300 230.316,1632.426 231.613,1633.051 233.053,1633.051"/>
      <polygon points="374.278,1632.335 375.144,1631.250 375.453,1629.896 375.144,1628.543 374.278,1627.457 373.027,1626.855 371.639,1626.855 370.388,1627.457 369.523,1628.543 369.214,1629.896 369.523,1631.250 370.388,1632.335 371.639,1632.937 373.027,1632.937"/>
      <polygon points="213.968,1632.264 214.881,1631.233 215.211,1629.896 214.881,1628.559 213.968,1627.528 212.680,1627.040 211.313,1627.206 210.179,1627.988 209.539,1629.207 209.539,1630.585 210.179,1631.804 211.313,1632.587 212.680,1632.753"/>
      <polygon points="393.897,1632.161 394.770,1631.175 395.085,1629.896 394.770,1628.617 393.897,1627.631 392.665,1627.164 391.357,1627.323 390.273,1628.071 389.661,1629.238 389.661,1630.555 390.273,1631.721 391.357,1632.469 392.665,1632.628"/>
      <polygon points="193.579,1632.054 194.491,1631.142 194.825,1629.896 194.491,1628.651 193.579,1627.739 192.333,1627.405 191.088,1627.739 190.176,1628.651 189.842,1629.896 190.176,1631.142 191.088,1632.054 192.333,1632.387"/>
      <polygon points="413.579,1632.054 414.491,1631.142 414.825,1629.896 414.491,1628.651 413.579,1627.739 412.333,1627.405 411.088,1627.739 410.176,1628.651 409.842,1629.896 410.176,1631.142 411.088,1632.054 412.333,1632.387"/>
      <polygon points="173.441,1631.815 174.253,1631.004 174.550,1629.896 174.253,1628.788 173.441,1627.977 172.333,1627.680 171.225,1627.977 170.414,1628.788 170.117,1629.896 170.414,1631.004 171.225,1631.815 172.333,1632.112"/>
      <polygon points="433.370,1631.691 434.129,1630.933 434.406,1629.896 434.129,1628.860 433.370,1628.101 432.333,1627.823 431.297,1628.101 430.538,1628.860 430.260,1629.896 430.538,1630.933 431.297,1631.691 432.333,1631.969"/>
      <polygon points="153.333,1631.628 154.065,1630.896 154.333,1629.896 154.065,1628.896 153.333,1628.164 152.333,1627.896 151.333,1628.164 150.601,1628.896 150.333,1629.896 150.601,1630.896 151.333,1631.628 152.333,1631.896"/>
      <polygon points="453.333,1631.628 454.065,1630.896 454.333,1629.896 454.065,1628.896 453.333,1628.164 452.333,1627.896 451.333,1628.164 450.601,1628.896 450.333,1629.896 450.601,1630.896 451.333,1631.628 452.333,1631.896"/>
      <polygon points="293.892,1653.660 295.214,1652.777 296.097,1651.455 296.407,1649.896 296.097,1648.337 295.214,1647.015 293.892,1646.132 292.333,1645.822 290.774,1646.132 289.453,1647.015 288.569,1648.337 288.259,1649.896 288.569,1651.455 289.453,1652.777 290.774,1653.660 292.333,1653.970"/>
      <polygon points="313.562,1653.679 314.995,1652.852 315.967,1651.514 316.311,1649.896 315.967,1648.278 314.995,1646.940 313.562,1646.113 311.918,1645.940 310.345,1646.452 309.115,1647.558 308.443,1649.069 308.443,1650.723 309.115,1652.234 310.345,1653.341 311.918,1653.852"/>
      <polygon points="273.501,1653.489 274.861,1652.704 275.784,1651.433 276.111,1649.896 275.784,1648.360 274.861,1647.089 273.501,1646.303 271.938,1646.139 270.444,1646.625 269.277,1647.676 268.638,1649.111 268.638,1650.682 269.277,1652.117 270.444,1653.168 271.938,1653.653"/>
      <polygon points="333.469,1653.391 334.792,1652.627 335.690,1651.391 336.008,1649.896 335.690,1648.402 334.792,1647.166 333.469,1646.402 331.949,1646.242 330.496,1646.714 329.361,1647.736 328.739,1649.132 328.739,1650.660 329.361,1652.056 330.496,1653.078 331.949,1653.550"/>
      <polygon points="354.491,1652.602 355.451,1651.398 355.794,1649.896 355.451,1648.395 354.491,1647.191 353.103,1646.523 351.563,1646.523 350.176,1647.191 349.216,1648.395 348.873,1649.896 349.216,1651.398 350.176,1652.602 351.563,1653.270 353.103,1653.270"/>
      <polygon points="254.491,1652.602 255.451,1651.398 255.794,1649.896 255.451,1648.395 254.491,1647.191 253.103,1646.523 251.563,1646.523 250.176,1647.191 249.216,1648.395 248.873,1649.896 249.216,1651.398 250.176,1652.602 251.563,1653.270 253.103,1653.270"/>
      <polygon points="234.351,1652.426 235.249,1651.300 235.569,1649.896 235.249,1648.492 234.351,1647.366 233.053,1646.742 231.613,1646.742 230.316,1647.366 229.418,1648.492 229.098,1649.896 229.418,1651.300 230.316,1652.426 231.613,1653.051 233.053,1653.051"/>
      <polygon points="374.278,1652.335 375.144,1651.250 375.453,1649.896 375.144,1648.543 374.278,1647.457 373.027,1646.855 371.639,1646.855 370.388,1647.457 369.523,1648.543 369.214,1649.896 369.523,1651.250 370.388,1652.335 371.639,1652.937 373.027,1652.937"/>
      <polygon points="213.968,1652.264 214.881,1651.233 215.211,1649.896 214.881,1648.559 213.968,1647.528 212.680,1647.040 211.313,1647.206 210.179,1647.988 209.539,1649.207 209.539,1650.585 210.179,1651.804 211.313,1652.587 212.680,1652.753"/>
      <polygon points="393.897,1652.161 394.770,1651.175 395.085,1649.896 394.770,1648.617 393.897,1647.631 392.665,1647.164 391.357,1647.323 390.273,1648.071 389.661,1649.238 389.661,1650.555 390.273,1651.721 391.357,1652.469 392.665,1652.628"/>
      <polygon points="413.579,1652.054 414.491,1651.142 414.825,1649.896 414.491,1648.651 413.579,1647.739 412.333,1647.405 411.088,1647.739 410.176,1648.651 409.842,1649.896 410.176,1651.142 411.088,1652.054 412.333,1652.387"/>
      <polygon points="193.579,1652.054 194.491,1651.142 194.825,1649.896 194.491,1648.651 193.579,1647.739 192.333,1647.405 191.088,1647.739 190.176,1648.651 189.842,1649.896 190.176,1651.142 191.088,1652.054 192.333,1652.387"/>
      <polygon points="173.441,1651.815 174.253,1651.004 174.550,1649.896 174.253,1648.788 173.441,1647.977 172.333,1647.680 171.225,1647.977 170.414,1648.788 170.117,1649.896 170.414,1651.004 171.225,1651.815 172.333,1652.112"/>
      <polygon points="433.370,1651.691 434.129,1650.933 434.406,1649.896 434.129,1648.860 433.370,1648.101 432.333,1647.823 431.297,1648.101 430.538,1648.860 430.260,1649.896 430.538,1650.933 431.297,1651.691 432.333,1651.969"/>
      <polygon points="153.333,1651.628 154.065,1650.896 154.333,1649.896 154.065,1648.896 153.333,1648.164 152.333,1647.896 151.333,1648.164 150.601,1648.896 150.333,1649.896 150.601,1650.896 151.333,1651.628 152.333,1651.896"/>
      <polygon points="453.333,1651.628 454.065,1650.896 454.333,1649.896 454.065,1648.896 453.333,1648.164 452.333,1647.896 451.333,1648.164 450.601,1648.896 450.333,1649.896 450.601,1650.896 451.333,1651.628 452.333,1651.896"/>
      <polygon points="293.892,1673.660 295.214,1672.777 296.097,1671.455 296.407,1669.896 296.097,1668.337 295.214,1667.015 293.892,1666.132 292.333,1665.822 290.774,1666.132 289.453,1667.015 288.569,1668.337 288.259,1669.896 288.569,1671.455 289.453,1672.777 290.774,1673.660 292.333,1673.970"/>
      <polygon points="313.562,1673.679 314.995,1672.852 315.967,1671.514 316.311,1669.896 315.967,1668.278 314.995,1666.940 313.562,1666.113 311.918,1665.940 310.345,1666.452 309.115,1667.558 308.443,1669.069 308.443,1670.723 309.115,1672.234 310.345,1673.341 311.918,1673.852"/>
      <polygon points="273.501,1673.489 274.861,1672.704 275.784,1671.433 276.111,1669.896 275.784,1668.360 274.861,1667.089 273.501,1666.303 271.938,1666.139 270.444,1666.625 269.277,1667.676 268.638,1669.111 268.638,1670.682 269.277,1672.117 270.444,1673.168 271.938,1673.653"/>
      <polygon points="333.469,1673.391 334.792,1672.627 335.690,1671.391 336.008,1669.896 335.690,1668.402 334.792,1667.166 333.469,1666.402 331.949,1666.242 330.496,1666.714 329.361,1667.736 328.739,1669.132 328.739,1670.660 329.361,1672.056 330.496,1673.078 331.949,1673.550"/>
      <polygon points="354.491,1672.602 355.451,1671.398 355.794,1669.896 355.451,1668.395 354.491,1667.191 353.103,1666.523 351.563,1666.523 350.176,1667.191 349.216,1668.395 348.873,1669.896 349.216,1671.398 350.176,1672.602 351.563,1673.270 353.103,1673.270"/>
      <polygon points="254.491,1672.602 255.451,1671.398 255.794,1669.896 255.451,1668.395 254.491,1667.191 253.103,1666.523 251.563,1666.523 250.176,1667.191 249.216,1668.395 248.873,1669.896 249.216,1671.398 250.176,1672.602 251.563,1673.270 253.103,1673.270"/>
      <polygon points="234.351,1672.426 235.249,1671.300 235.569,1669.896 235.249,1668.492 234.351,1667.366 233.053,1666.742 231.613,1666.742 230.316,1667.366 229.418,1668.492 229.098,1669.896 229.418,1671.300 230.316,1672.426 231.613,1673.051 233.053,1673.051"/>
      <polygon points="374.278,1672.335 375.144,1671.250 375.453,1669.896 375.144,1668.543 374.278,1667.457 373.027,1666.855 371.639,1666.855 370.388,1667.457 369.523,1668.543 369.214,1669.896 369.523,1671.250 370.388,1672.335 371.639,1672.937 373.027,1672.937"/>
      <polygon points="213.968,1672.264 214.881,1671.233 215.211,1669.896 214.881,1668.559 213.968,1667.528 212.680,1667.040 211.313,1667.206 210.179,1667.988 209.539,1669.207 209.539,1670.585 210.179,1671.804 211.313,1672.587 212.680,1672.753"/>
      <polygon points="393.897,1672.161 394.770,1671.175 395.085,1669.896 394.770,1668.617 393.897,1667.631 392.665,1667.164 391.357,1667.323 390.273,1668.071 389.661,1669.238 389.661,1670.555 390.273,1671.721 391.357,1672.469 392.665,1672.628"/>
      <polygon points="413.579,1672.054 414.491,1671.142 414.825,1669.896 414.491,1668.651 413.579,1667.739 412.333,1667.405 411.088,1667.739 410.176,1668.651 409.842,1669.896 410.176,1671.142 411.088,1672.054 412.333,1672.387"/>
      <polygon points="193.579,1672.054 194.491,1671.142 194.825,1669.896 194.491,1668.651 193.579,1667.739 192.333,1667.405 191.088,1667.739 190.176,1668.651 189.842,1669.896 190.176,1671.142 191.088,1672.054 192.333,1672.387"/>
      <polygon points="173.441,1671.815 174.253,1671.004 174.550,1669.896 174.253,1668.788 173.441,1667.977 172.333,1667.680 171.225,1667.977 170.414,1668.788 170.117,1669.896 170.414,1671.004 171.225,1671.815 172.333,1672.112"/>
      <polygon points="433.370,1671.691 434.129,1670.933 434.406,1669.896 434.129,1668.860 433.370,1668.101 432.333,1667.823 431.297,1668.101 430.538,1668.860 430.260,1669.896 430.538,1670.933 431.297,1671.691 432.333,1671.969"/>
      <polygon points="453.333,1671.628 454.065,1670.896 454.333,1669.896 454.065,1668.896 453.333,1668.164 452.333,1667.896 451.333,1668.164 450.601,1668.896 450.333,1669.896 450.601,1670.896 451.333,1671.628 452.333,1671.896"/>
      <polygon points="153.333,1671.628 154.065,1670.896 154.333,1669.896 154.065,1668.896 153.333,1668.164 152.333,1667.896 151.333,1668.164 150.601,1668.896 150.333,1669.896 150.601,1670.896 151.333,1671.628 152.333,1671.896"/>
    </g>
    <g stroke="#EF6C00" stroke-width="0.4" fill="none">
    </g>
  </g>
  <g stroke="#000000" stroke-width="0.4">
    <line x1="500.000" y1="1000.000" x2="1500.000" y2="1000.000"/>
  </g>
  <g stroke="#000000" stroke-width="0.4">
    <line x1="1000.000" y1="500.000" x2="1000.000" y2="1500.000"/>
  </g>
  <circle cx="1000.000" cy="1000.000" r="1000.000" stroke="red" stroke-width="1" fill="none"/>
  </g>
</svg>
