<?xml version="1.0" encoding="UTF-8"?>
<svg xmlns="http://www.w3.org/2000/svg" version="1.1" width="2000" height="2000">
  <g fill="none" stroke-linecap="round" stroke-linejoin="round">
  <text x="10" y="20" font-size="24" fill="#555">Layer 281 Z=68.200 mm</text>
  <g transform="translate(700.000,-602.229)">
    <g stroke="#2E7D32" stroke-width="0.4">
      <line x1="299.527" y1="1629.503" x2="249.527" y2="1629.503"/>
      <line x1="299.527" y1="1630.503" x2="249.527" y2="1630.503"/>
      <line x1="299.527" y1="1631.503" x2="249.527" y2="1631.503"/>
      <line x1="299.527" y1="1632.503" x2="249.527" y2="1632.503"/>
      <line x1="299.527" y1="1633.503" x2="249.527" y2="1633.503"/>
      <line x1="299.527" y1="1634.503" x2="249.527" y2="1634.503"/>
      <line x1="299.527" y1="1635.503" x2="249.527" y2="1635.503"/>
      <line x1="299.527" y1="1636.503" x2="249.527" y2="1636.503"/>
      <line x1="299.527" y1="1637.503" x2="249.527" y2="1637.503"/>
      <line x1="299.527" y1="1638.503" x2="249.527" y2="1638.503"/>
      <line x1="299.527" y1="1639.503" x2="249.527" y2="1639.503"/>
      <line x1="299.527" y1="1640.503" x2="249.527" y2="1640.503"/>
      <line x1="299.527" y1="1641.503" x2="249.527" y2="1641.503"/>
      <line x1="299.527" y1="1642.503" x2="249.527" y2="1642.503"/>
      <line x1="299.527" y1="1643.503" x2="249.527" y2="1643.503"/>
      <line x1="299.527" y1="1644.503" x2="249.527" y2="1644.503"/>
      <line x1="299.527" y1="1645.503" x2="249.527" y2="1645.503"/>
      <line x1="299.527" y1="1646.503" x2="249.527" y2="1646.503"/>
      <line x1="299.527" y1="1647.503" x2="249.527" y2="1647.503"/>
      <line x1="299.527" y1="1648.503" x2="249.527" y2="1648.503"/>
      <line x1="299.527" y1="1649.503" x2="249.527" y2="1649.503"/>
      <line x1="299.527" y1="1650.503" x2="249.527" y2="1650.503"/>
      <line x1="299.527" y1="1651.503" x2="249.527" y2="1651.503"/>
      <line x1="299.527" y1="1652.503" x2="249.527" y2="1652.503"/>
      <line x1="299.527" y1="1653.503" x2="249.527" y2="1653.503"/>
      <line x1="299.527" y1="1654.503" x2="249.527" y2="1654.503"/>
      <line x1="299.527" y1="1655.503" x2="249.527" y2="1655.503"/>
      <line x1="299.527" y1="1656.503" x2="249.527" y2="1656.503"/>
      <line x1="299.527" y1="1657.503" x2="249.527" y2="1657.503"/>
      <line x1="299.527" y1="1658.503" x2="249.527" y2="1658.503"/>
      <line x1="299.527" y1="1659.503" x2="249.527" y2="1659.503"/>
      <line x1="299.527" y1="1660.503" x2="249.527" y2="1660.503"/>
      <line x1="299.527" y1="1661.503" x2="249.527" y2="1661.503"/>
      <line x1="299.527" y1="1662.503" x2="249.527" y2="1662.503"/>
      <line x1="299.527" y1="1663.503" x2="249.527" y2="1663.503"/>
      <line x1="299.527" y1="1664.503" x2="249.527" y2="1664.503"/>
      <line x1="299.527" y1="1665.503" x2="249.527" y2="1665.503"/>
      <line x1="299.527" y1="1666.503" x2="249.527" y2="1666.503"/>
      <line x1="299.527" y1="1667.503" x2="249.527" y2="1667.503"/>
      <line x1="299.527" y1="1668.503" x2="249.527" y2="1668.503"/>
      <line x1="299.527" y1="1669.503" x2="249.527" y2="1669.503"/>
      <line x1="299.527" y1="1670.503" x2="249.527" y2="1670.503"/>
      <line x1="299.527" y1="1671.503" x2="249.527" y2="1671.503"/>
      <line x1="299.527" y1="1672.503" x2="249.527" y2="1672.503"/>
      <line x1="299.527" y1="1673.503" x2="249.527" y2="1673.503"/>
      <line x1="299.527" y1="1674.503" x2="249.527" y2="1674.503"/>
      <line x1="299.527" y1="1675.503" x2="249.527" y2="1675.503"/>
      <line x1="299.527" y1="1676.503" x2="249.527" y2="1676.503"/>
      <line x1="299.527" y1="1677.503" x2="249.527" y2="1677.503"/>
      <line x1="299.527" y1="1678.503" x2="249.527" y2="1678.503"/>
      <line x1="349.627" y1="1629.503" x2="299.627" y2="1629.503"/>
      <line x1="349.627" y1="1630.503" x2="299.627" y2="1630.503"/>
      <line x1="349.627" y1="1631.503" x2="299.627" y2="1631.503"/>
      <line x1="349.627" y1="1632.503" x2="299.627" y2="1632.503"/>
      <line x1="349.627" y1="1633.503" x2="299.627" y2="1633.503"/>
      <line x1="349.627" y1="1634.503" x2="299.627" y2="1634.503"/>
      <line x1="349.627" y1="1635.503" x2="299.627" y2="1635.503"/>
      <line x1="349.627" y1="1636.503" x2="299.627" y2="1636.503"/>
      <line x1="349.627" y1="1637.503" x2="299.627" y2="1637.503"/>
      <line x1="349.627" y1="1638.503" x2="299.627" y2="1638.503"/>
      <line x1="349.627" y1="1639.503" x2="299.627" y2="1639.503"/>
      <line x1="349.627" y1="1640.503" x2="299.627" y2="1640.503"/>
      <line x1="349.627" y1="1641.503" x2="299.627" y2="1641.503"/>
      <line x1="349.627" y1="1642.503" x2="299.627" y2="1642.503"/>
      <line x1="349.627" y1="1643.503" x2="299.627" y2="1643.503"/>
      <line x1="349.627" y1="1644.503" x2="299.627" y2="1644.503"/>
      <line x1="349.627" y1="1645.503" x2="299.627" y2="1645.503"/>
      <line x1="349.627" y1="1646.503" x2="299.627" y2="1646.503"/>
      <line x1="349.627" y1="1647.503" x2="299.627" y2="1647.503"/>
      <line x1="349.627" y1="1648.503" x2="299.627" y2="1648.503"/>
      <line x1="349.627" y1="1649.503" x2="299.627" y2="1649.503"/>
      <line x1="349.627" y1="1650.503" x2="299.627" y2="1650.503"/>
      <line x1="349.627" y1="1651.503" x2="299.627" y2="1651.503"/>
      <line x1="349.627" y1="1652.503" x2="299.627" y2="1652.503"/>
      <line x1="349.627" y1="1653.503" x2="299.627" y2="1653.503"/>
      <line x1="349.627" y1="1654.503" x2="299.627" y2="1654.503"/>
      <line x1="349.627" y1="1655.503" x2="299.627" y2="1655.503"/>
      <line x1="349.627" y1="1656.503" x2="299.627" y2="1656.503"/>
      <line x1="349.627" y1="1657.503" x2="299.627" y2="1657.503"/>
      <line x1="349.627" y1="1658.503" x2="299.627" y2="1658.503"/>
      <line x1="349.627" y1="1659.503" x2="299.627" y2="1659.503"/>
      <line x1="349.627" y1="1660.503" x2="299.627" y2="1660.503"/>
      <line x1="349.627" y1="1661.503" x2="299.627" y2="1661.503"/>
      <line x1="349.627" y1="1662.503" x2="299.627" y2="1662.503"/>
      <line x1="349.627" y1="1663.503" x2="299.627" y2="1663.503"/>
      <line x1="349.627" y1="1664.503" x2="299.627" y2="1664.503"/>
      <line x1="349.627" y1="1665.503" x2="299.627" y2="1665.503"/>
      <line x1="349.627" y1="1666.503" x2="299.627" y2="1666.503"/>
      <line x1="349.627" y1="1667.503" x2="299.627" y2="1667.503"/>
      <line x1="349.627" y1="1668.503" x2="299.627" y2="1668.503"/>
      <line x1="349.627" y1="1669.503" x2="299.627" y2="1669.503"/>
      <line x1="349.627" y1="1670.503" x2="299.627" y2="1670.503"/>
      <line x1="349.627" y1="1671.503" x2="299.627" y2="1671.503"/>
      <line x1="349.627" y1="1672.503" x2="299.627" y2="1672.503"/>
      <line x1="349.627" y1="1673.503" x2="299.627" y2="1673.503"/>
      <line x1="349.627" y1="1674.503" x2="299.627" y2="1674.503"/>
      <line x1="349.627" y1="1675.503" x2="299.627" y2="1675.503"/>
      <line x1="349.627" y1="1676.503" x2="299.627" y2="1676.503"/>
      <line x1="349.627" y1="1677.503" x2="299.627" y2="1677.503"/>
      <line x1="349.627" y1="1678.503" x2="299.627" y2="1678.503"/>
      <line x1="350.473" y1="1629.503" x2="349.727" y2="1629.503"/>
      <line x1="350.473" y1="1630.503" x2="349.727" y2="1630.503"/>
      <line x1="350.473" y1="1631.503" x2="349.727" y2="1631.503"/>
      <line x1="350.473" y1="1632.503" x2="349.727" y2="1632.503"/>
      <line x1="350.473" y1="1633.503" x2="349.727" y2="1633.503"/>
      <line x1="350.473" y1="1634.503" x2="349.727" y2="1634.503"/>
      <line x1="350.473" y1="1635.503" x2="349.727" y2="1635.503"/>
      <line x1="350.473" y1="1636.503" x2="349.727" y2="1636.503"/>
      <line x1="350.473" y1="1637.503" x2="349.727" y2="1637.503"/>
      <line x1="350.473" y1="1638.503" x2="349.727" y2="1638.503"/>
      <line x1="350.473" y1="1639.503" x2="349.727" y2="1639.503"/>
      <line x1="350.473" y1="1640.503" x2="349.727" y2="1640.503"/>
      <line x1="350.473" y1="1641.503" x2="349.727" y2="1641.503"/>
      <line x1="350.473" y1="1642.503" x2="349.727" y2="1642.503"/>
      <line x1="350.473" y1="1643.503" x2="349.727" y2="1643.503"/>
      <line x1="350.473" y1="1644.503" x2="349.727" y2="1644.503"/>
      <line x1="350.473" y1="1645.503" x2="349.727" y2="1645.503"/>
      <line x1="350.473" y1="1646.503" x2="349.727" y2="1646.503"/>
      <line x1="350.473" y1="1647.503" x2="349.727" y2="1647.503"/>
      <line x1="350.473" y1="1648.503" x2="349.727" y2="1648.503"/>
      <line x1="350.473" y1="1649.503" x2="349.727" y2="1649.503"/>
      <line x1="350.473" y1="1650.503" x2="349.727" y2="1650.503"/>
      <line x1="350.473" y1="1651.503" x2="349.727" y2="1651.503"/>
      <line x1="350.473" y1="1652.503" x2="349.727" y2="1652.503"/>
      <line x1="350.473" y1="1653.503" x2="349.727" y2="1653.503"/>
      <line x1="350.473" y1="1654.503" x2="349.727" y2="1654.503"/>
      <line x1="350.473" y1="1655.503" x2="349.727" y2="1655.503"/>
      <line x1="350.473" y1="1656.503" x2="349.727" y2="1656.503"/>
      <line x1="350.473" y1="1657.503" x2="349.727" y2="1657.503"/>
      <line x1="350.473" y1="1658.503" x2="349.727" y2="1658.503"/>
      <line x1="350.473" y1="1659.503" x2="349.727" y2="1659.503"/>
      <line x1="350.473" y1="1660.503" x2="349.727" y2="1660.503"/>
      <line x1="350.473" y1="1661.503" x2="349.727" y2="1661.503"/>
      <line x1="350.473" y1="1662.503" x2="349.727" y2="1662.503"/>
      <line x1="350.473" y1="1663.503" x2="349.727" y2="1663.503"/>
      <line x1="350.473" y1="1664.503" x2="349.727" y2="1664.503"/>
      <line x1="350.473" y1="1665.503" x2="349.727" y2="1665.503"/>
      <line x1="350.473" y1="1666.503" x2="349.727" y2="1666.503"/>
      <line x1="350.473" y1="1667.503" x2="349.727" y2="1667.503"/>
      <line x1="350.473" y1="1668.503" x2="349.727" y2="1668.503"/>
      <line x1="350.473" y1="1669.503" x2="349.727" y2="1669.503"/>
      <line x1="350.473" y1="1670.503" x2="349.727" y2="1670.503"/>
      <line x1="350.473" y1="1671.503" x2="349.727" y2="1671.503"/>
      <line x1="350.473" y1="1672.503" x2="349.727" y2="1672.503"/>
      <line x1="350.473" y1="1673.503" x2="349.727" y2="1673.503"/>
      <line x1="350.473" y1="1674.503" x2="349.727" y2="1674.503"/>
      <line x1="350.473" y1="1675.503" x2="349.727" y2="1675.503"/>
      <line x1="350.473" y1="1676.503" x2="349.727" y2="1676.503"/>
      <line x1="350.473" y1="1677.503" x2="349.727" y2="1677.503"/>
      <line x1="350.473" y1="1678.503" x2="349.727" y2="1678.503"/>
      <line x1="299.527" y1="1579.503" x2="249.527" y2="1579.503"/>
      <line x1="299.527" y1="1580.503" x2="249.527" y2="1580.503"/>
      <line x1="299.527" y1="1581.503" x2="249.527" y2="1581.503"/>
      <line x1="299.527" y1="1582.503" x2="249.527" y2="1582.503"/>
      <line x1="299.527" y1="1583.503" x2="249.527" y2="1583.503"/>
      <line x1="299.527" y1="1584.503" x2="249.527" y2="1584.503"/>
      <line x1="299.527" y1="1585.503" x2="249.527" y2="1585.503"/>
      <line x1="299.527" y1="1586.503" x2="249.527" y2="1586.503"/>
      <line x1="299.527" y1="1587.503" x2="249.527" y2="1587.503"/>
      <line x1="299.527" y1="1588.503" x2="249.527" y2="1588.503"/>
      <line x1="299.527" y1="1589.503" x2="249.527" y2="1589.503"/>
      <line x1="299.527" y1="1590.503" x2="249.527" y2="1590.503"/>
      <line x1="299.527" y1="1591.503" x2="249.527" y2="1591.503"/>
      <line x1="299.527" y1="1592.503" x2="249.527" y2="1592.503"/>
      <line x1="299.527" y1="1593.503" x2="249.527" y2="1593.503"/>
      <line x1="299.527" y1="1594.503" x2="249.527" y2="1594.503"/>
      <line x1="299.527" y1="1595.503" x2="249.527" y2="1595.503"/>
      <line x1="299.527" y1="1596.503" x2="249.527" y2="1596.503"/>
      <line x1="299.527" y1="1597.503" x2="249.527" y2="1597.503"/>
      <line x1="299.527" y1="1598.503" x2="249.527" y2="1598.503"/>
      <line x1="299.527" y1="1599.503" x2="249.527" y2="1599.503"/>
      <line x1="299.527" y1="1600.503" x2="249.527" y2="1600.503"/>
      <line x1="299.527" y1="1601.503" x2="249.527" y2="1601.503"/>
      <line x1="299.527" y1="1602.503" x2="249.527" y2="1602.503"/>
      <line x1="299.527" y1="1603.503" x2="249.527" y2="1603.503"/>
      <line x1="299.527" y1="1604.503" x2="249.527" y2="1604.503"/>
      <line x1="299.527" y1="1605.503" x2="249.527" y2="1605.503"/>
      <line x1="299.527" y1="1606.503" x2="249.527" y2="1606.503"/>
      <line x1="299.527" y1="1607.503" x2="249.527" y2="1607.503"/>
      <line x1="299.527" y1="1608.503" x2="249.527" y2="1608.503"/>
      <line x1="299.527" y1="1609.503" x2="249.527" y2="1609.503"/>
      <line x1="299.527" y1="1610.503" x2="249.527" y2="1610.503"/>
      <line x1="299.527" y1="1611.503" x2="249.527" y2="1611.503"/>
      <line x1="299.527" y1="1612.503" x2="249.527" y2="1612.503"/>
      <line x1="299.527" y1="1613.503" x2="249.527" y2="1613.503"/>
      <line x1="299.527" y1="1614.503" x2="249.527" y2="1614.503"/>
      <line x1="299.527" y1="1615.503" x2="249.527" y2="1615.503"/>
      <line x1="299.527" y1="1616.503" x2="249.527" y2="1616.503"/>
      <line x1="299.527" y1="1617.503" x2="249.527" y2="1617.503"/>
      <line x1="299.527" y1="1618.503" x2="249.527" y2="1618.503"/>
      <line x1="299.527" y1="1619.503" x2="249.527" y2="1619.503"/>
      <line x1="299.527" y1="1620.503" x2="249.527" y2="1620.503"/>
      <line x1="299.527" y1="1621.503" x2="249.527" y2="1621.503"/>
      <line x1="299.527" y1="1622.503" x2="249.527" y2="1622.503"/>
      <line x1="299.527" y1="1623.503" x2="249.527" y2="1623.503"/>
      <line x1="299.527" y1="1624.503" x2="249.527" y2="1624.503"/>
      <line x1="299.527" y1="1625.503" x2="249.527" y2="1625.503"/>
      <line x1="299.527" y1="1626.503" x2="249.527" y2="1626.503"/>
      <line x1="299.527" y1="1627.503" x2="249.527" y2="1627.503"/>
      <line x1="299.527" y1="1628.503" x2="249.527" y2="1628.503"/>
      <line x1="349.627" y1="1579.503" x2="299.627" y2="1579.503"/>
      <line x1="349.627" y1="1580.503" x2="299.627" y2="1580.503"/>
      <line x1="349.627" y1="1581.503" x2="299.627" y2="1581.503"/>
      <line x1="349.627" y1="1582.503" x2="299.627" y2="1582.503"/>
      <line x1="349.627" y1="1583.503" x2="299.627" y2="1583.503"/>
      <line x1="349.627" y1="1584.503" x2="299.627" y2="1584.503"/>
      <line x1="349.627" y1="1585.503" x2="299.627" y2="1585.503"/>
      <line x1="349.627" y1="1586.503" x2="299.627" y2="1586.503"/>
      <line x1="349.627" y1="1587.503" x2="299.627" y2="1587.503"/>
      <line x1="349.627" y1="1588.503" x2="299.627" y2="1588.503"/>
      <line x1="349.627" y1="1589.503" x2="299.627" y2="1589.503"/>
      <line x1="349.627" y1="1590.503" x2="299.627" y2="1590.503"/>
      <line x1="349.627" y1="1591.503" x2="299.627" y2="1591.503"/>
      <line x1="349.627" y1="1592.503" x2="299.627" y2="1592.503"/>
      <line x1="349.627" y1="1593.503" x2="299.627" y2="1593.503"/>
      <line x1="349.627" y1="1594.503" x2="299.627" y2="1594.503"/>
      <line x1="349.627" y1="1595.503" x2="299.627" y2="1595.503"/>
      <line x1="349.627" y1="1596.503" x2="299.627" y2="1596.503"/>
      <line x1="349.627" y1="1597.503" x2="299.627" y2="1597.503"/>
      <line x1="349.627" y1="1598.503" x2="299.627" y2="1598.503"/>
      <line x1="349.627" y1="1599.503" x2="299.627" y2="1599.503"/>
      <line x1="349.627" y1="1600.503" x2="299.627" y2="1600.503"/>
      <line x1="349.627" y1="1601.503" x2="299.627" y2="1601.503"/>
      <line x1="349.627" y1="1602.503" x2="299.627" y2="1602.503"/>
      <line x1="349.627" y1="1603.503" x2="299.627" y2="1603.503"/>
      <line x1="349.627" y1="1604.503" x2="299.627" y2="1604.503"/>
      <line x1="349.627" y1="1605.503" x2="299.627" y2="1605.503"/>
      <line x1="349.627" y1="1606.503" x2="299.627" y2="1606.503"/>
      <line x1="349.627" y1="1607.503" x2="299.627" y2="1607.503"/>
      <line x1="349.627" y1="1608.503" x2="299.627" y2="1608.503"/>
      <line x1="349.627" y1="1609.503" x2="299.627" y2="1609.503"/>
      <line x1="349.627" y1="1610.503" x2="299.627" y2="1610.503"/>
      <line x1="349.627" y1="1611.503" x2="299.627" y2="1611.503"/>
      <line x1="349.627" y1="1612.503" x2="299.627" y2="1612.503"/>
      <line x1="349.627" y1="1613.503" x2="299.627" y2="1613.503"/>
      <line x1="349.627" y1="1614.503" x2="299.627" y2="1614.503"/>
      <line x1="349.627" y1="1615.503" x2="299.627" y2="1615.503"/>
      <line x1="349.627" y1="1616.503" x2="299.627" y2="1616.503"/>
      <line x1="349.627" y1="1617.503" x2="299.627" y2="1617.503"/>
      <line x1="349.627" y1="1618.503" x2="299.627" y2="1618.503"/>
      <line x1="349.627" y1="1619.503" x2="299.627" y2="1619.503"/>
      <line x1="349.627" y1="1620.503" x2="299.627" y2="1620.503"/>
      <line x1="349.627" y1="1621.503" x2="299.627" y2="1621.503"/>
      <line x1="349.627" y1="1622.503" x2="299.627" y2="1622.503"/>
      <line x1="349.627" y1="1623.503" x2="299.627" y2="1623.503"/>
      <line x1="349.627" y1="1624.503" x2="299.627" y2="1624.503"/>
      <line x1="349.627" y1="1625.503" x2="299.627" y2="1625.503"/>
      <line x1="349.627" y1="1626.503" x2="299.627" y2="1626.503"/>
      <line x1="349.627" y1="1627.503" x2="299.627" y2="1627.503"/>
      <line x1="349.627" y1="1628.503" x2="299.627" y2="1628.503"/>
      <line x1="350.473" y1="1579.503" x2="349.727" y2="1579.503"/>
      <line x1="350.473" y1="1580.503" x2="349.727" y2="1580.503"/>
      <line x1="350.473" y1="1581.503" x2="349.727" y2="1581.503"/>
      <line x1="350.473" y1="1582.503" x2="349.727" y2="1582.503"/>
      <line x1="350.473" y1="1583.503" x2="349.727" y2="1583.503"/>
      <line x1="350.473" y1="1584.503" x2="349.727" y2="1584.503"/>
      <line x1="350.473" y1="1585.503" x2="349.727" y2="1585.503"/>
      <line x1="350.473" y1="1586.503" x2="349.727" y2="1586.503"/>
      <line x1="350.473" y1="1587.503" x2="349.727" y2="1587.503"/>
      <line x1="350.473" y1="1588.503" x2="349.727" y2="1588.503"/>
      <line x1="350.473" y1="1589.503" x2="349.727" y2="1589.503"/>
      <line x1="350.473" y1="1590.503" x2="349.727" y2="1590.503"/>
      <line x1="350.473" y1="1591.503" x2="349.727" y2="1591.503"/>
      <line x1="350.473" y1="1592.503" x2="349.727" y2="1592.503"/>
      <line x1="350.473" y1="1593.503" x2="349.727" y2="1593.503"/>
      <line x1="350.473" y1="1594.503" x2="349.727" y2="1594.503"/>
      <line x1="350.473" y1="1595.503" x2="349.727" y2="1595.503"/>
      <line x1="350.473" y1="1596.503" x2="349.727" y2="1596.503"/>
      <line x1="350.473" y1="1597.503" x2="349.727" y2="1597.503"/>
      <line x1="350.473" y1="1598.503" x2="349.727" y2="1598.503"/>
      <line x1="350.473" y1="1599.503" x2="349.727" y2="1599.503"/>
      <line x1="350.473" y1="1600.503" x2="349.727" y2="1600.503"/>
      <line x1="350.473" y1="1601.503" x2="349.727" y2="1601.503"/>
      <line x1="350.473" y1="1602.503" x2="349.727" y2="1602.503"/>
      <line x1="350.473" y1="1603.503" x2="349.727" y2="1603.503"/>
      <line x1="350.473" y1="1604.503" x2="349.727" y2="1604.503"/>
      <line x1="350.473" y1="1605.503" x2="349.727" y2="1605.503"/>
      <line x1="350.473" y1="1606.503" x2="349.727" y2="1606.503"/>
      <line x1="350.473" y1="1607.503" x2="349.727" y2="1607.503"/>
      <line x1="350.473" y1="1608.503" x2="349.727" y2="1608.503"/>
      <line x1="350.473" y1="1609.503" x2="349.727" y2="1609.503"/>
      <line x1="350.473" y1="1610.503" x2="349.727" y2="1610.503"/>
      <line x1="350.473" y1="1611.503" x2="349.727" y2="1611.503"/>
      <line x1="350.473" y1="1612.503" x2="349.727" y2="1612.503"/>
      <line x1="350.473" y1="1613.503" x2="349.727" y2="1613.503"/>
      <line x1="350.473" y1="1614.503" x2="349.727" y2="1614.503"/>
      <line x1="350.473" y1="1615.503" x2="349.727" y2="1615.503"/>
      <line x1="350.473" y1="1616.503" x2="349.727" y2="1616.503"/>
      <line x1="350.473" y1="1617.503" x2="349.727" y2="1617.503"/>
      <line x1="350.473" y1="1618.503" x2="349.727" y2="1618.503"/>
      <line x1="350.473" y1="1619.503" x2="349.727" y2="1619.503"/>
      <line x1="350.473" y1="1620.503" x2="349.727" y2="1620.503"/>
      <line x1="350.473" y1="1621.503" x2="349.727" y2="1621.503"/>
      <line x1="350.473" y1="1622.503" x2="349.727" y2="1622.503"/>
      <line x1="350.473" y1="1623.503" x2="349.727" y2="1623.503"/>
      <line x1="350.473" y1="1624.503" x2="349.727" y2="1624.503"/>
      <line x1="350.473" y1="1625.503" x2="349.727" y2="1625.503"/>
      <line x1="350.473" y1="1626.503" x2="349.727" y2="1626.503"/>
      <line x1="350.473" y1="1627.503" x2="349.727" y2="1627.503"/>
      <line x1="350.473" y1="1628.503" x2="349.727" y2="1628.503"/>
      <line x1="299.527" y1="1529.503" x2="249.527" y2="1529.503"/>
      <line x1="299.527" y1="1530.503" x2="249.527" y2="1530.503"/>
      <line x1="299.527" y1="1531.503" x2="249.527" y2="1531.503"/>
      <line x1="299.527" y1="1532.503" x2="249.527" y2="1532.503"/>
      <line x1="299.527" y1="1533.503" x2="249.527" y2="1533.503"/>
      <line x1="299.527" y1="1534.503" x2="249.527" y2="1534.503"/>
      <line x1="299.527" y1="1535.503" x2="249.527" y2="1535.503"/>
      <line x1="299.527" y1="1536.503" x2="249.527" y2="1536.503"/>
      <line x1="299.527" y1="1537.503" x2="249.527" y2="1537.503"/>
      <line x1="299.527" y1="1538.503" x2="249.527" y2="1538.503"/>
      <line x1="299.527" y1="1539.503" x2="249.527" y2="1539.503"/>
      <line x1="299.527" y1="1540.503" x2="249.527" y2="1540.503"/>
      <line x1="299.527" y1="1541.503" x2="249.527" y2="1541.503"/>
      <line x1="299.527" y1="1542.503" x2="249.527" y2="1542.503"/>
      <line x1="299.527" y1="1543.503" x2="249.527" y2="1543.503"/>
      <line x1="299.527" y1="1544.503" x2="249.527" y2="1544.503"/>
      <line x1="299.527" y1="1545.503" x2="249.527" y2="1545.503"/>
      <line x1="299.527" y1="1546.503" x2="249.527" y2="1546.503"/>
      <line x1="299.527" y1="1547.503" x2="249.527" y2="1547.503"/>
      <line x1="299.527" y1="1548.503" x2="249.527" y2="1548.503"/>
      <line x1="299.527" y1="1549.503" x2="249.527" y2="1549.503"/>
      <line x1="299.527" y1="1550.503" x2="249.527" y2="1550.503"/>
      <line x1="299.527" y1="1551.503" x2="249.527" y2="1551.503"/>
      <line x1="299.527" y1="1552.503" x2="249.527" y2="1552.503"/>
      <line x1="299.527" y1="1553.503" x2="249.527" y2="1553.503"/>
      <line x1="299.527" y1="1554.503" x2="249.527" y2="1554.503"/>
      <line x1="299.527" y1="1555.503" x2="249.527" y2="1555.503"/>
      <line x1="299.527" y1="1556.503" x2="249.527" y2="1556.503"/>
      <line x1="299.527" y1="1557.503" x2="249.527" y2="1557.503"/>
      <line x1="299.527" y1="1558.503" x2="249.527" y2="1558.503"/>
      <line x1="299.527" y1="1559.503" x2="249.527" y2="1559.503"/>
      <line x1="299.527" y1="1560.503" x2="249.527" y2="1560.503"/>
      <line x1="299.527" y1="1561.503" x2="249.527" y2="1561.503"/>
      <line x1="299.527" y1="1562.503" x2="249.527" y2="1562.503"/>
      <line x1="299.527" y1="1563.503" x2="249.527" y2="1563.503"/>
      <line x1="299.527" y1="1564.503" x2="249.527" y2="1564.503"/>
      <line x1="299.527" y1="1565.503" x2="249.527" y2="1565.503"/>
      <line x1="299.527" y1="1566.503" x2="249.527" y2="1566.503"/>
      <line x1="299.527" y1="1567.503" x2="249.527" y2="1567.503"/>
      <line x1="299.527" y1="1568.503" x2="249.527" y2="1568.503"/>
      <line x1="299.527" y1="1569.503" x2="249.527" y2="1569.503"/>
      <line x1="299.527" y1="1570.503" x2="249.527" y2="1570.503"/>
      <line x1="299.527" y1="1571.503" x2="249.527" y2="1571.503"/>
      <line x1="299.527" y1="1572.503" x2="249.527" y2="1572.503"/>
      <line x1="299.527" y1="1573.503" x2="249.527" y2="1573.503"/>
      <line x1="299.527" y1="1574.503" x2="249.527" y2="1574.503"/>
      <line x1="299.527" y1="1575.503" x2="249.527" y2="1575.503"/>
      <line x1="299.527" y1="1576.503" x2="249.527" y2="1576.503"/>
      <line x1="299.527" y1="1577.503" x2="249.527" y2="1577.503"/>
      <line x1="299.527" y1="1578.503" x2="249.527" y2="1578.503"/>
      <line x1="349.627" y1="1529.503" x2="299.627" y2="1529.503"/>
      <line x1="349.627" y1="1530.503" x2="299.627" y2="1530.503"/>
      <line x1="349.627" y1="1531.503" x2="299.627" y2="1531.503"/>
      <line x1="349.627" y1="1532.503" x2="299.627" y2="1532.503"/>
      <line x1="349.627" y1="1533.503" x2="299.627" y2="1533.503"/>
      <line x1="349.627" y1="1534.503" x2="299.627" y2="1534.503"/>
      <line x1="349.627" y1="1535.503" x2="299.627" y2="1535.503"/>
      <line x1="349.627" y1="1536.503" x2="299.627" y2="1536.503"/>
      <line x1="349.627" y1="1537.503" x2="299.627" y2="1537.503"/>
      <line x1="349.627" y1="1538.503" x2="299.627" y2="1538.503"/>
      <line x1="349.627" y1="1539.503" x2="299.627" y2="1539.503"/>
      <line x1="349.627" y1="1540.503" x2="299.627" y2="1540.503"/>
      <line x1="349.627" y1="1541.503" x2="299.627" y2="1541.503"/>
      <line x1="349.627" y1="1542.503" x2="299.627" y2="1542.503"/>
      <line x1="349.627" y1="1543.503" x2="299.627" y2="1543.503"/>
      <line x1="349.627" y1="1544.503" x2="299.627" y2="1544.503"/>
      <line x1="349.627" y1="1545.503" x2="299.627" y2="1545.503"/>
      <line x1="349.627" y1="1546.503" x2="299.627" y2="1546.503"/>
      <line x1="349.627" y1="1547.503" x2="299.627" y2="1547.503"/>
      <line x1="349.627" y1="1548.503" x2="299.627" y2="1548.503"/>
      <line x1="349.627" y1="1549.503" x2="299.627" y2="1549.503"/>
      <line x1="349.627" y1="1550.503" x2="299.627" y2="1550.503"/>
      <line x1="349.627" y1="1551.503" x2="299.627" y2="1551.503"/>
      <line x1="349.627" y1="1552.503" x2="299.627" y2="1552.503"/>
      <line x1="349.627" y1="1553.503" x2="299.627" y2="1553.503"/>
      <line x1="349.627" y1="1554.503" x2="299.627" y2="1554.503"/>
      <line x1="349.627" y1="1555.503" x2="299.627" y2="1555.503"/>
      <line x1="349.627" y1="1556.503" x2="299.627" y2="1556.503"/>
      <line x1="349.627" y1="1557.503" x2="299.627" y2="1557.503"/>
      <line x1="349.627" y1="1558.503" x2="299.627" y2="1558.503"/>
      <line x1="349.627" y1="1559.503" x2="299.627" y2="1559.503"/>
      <line x1="349.627" y1="1560.503" x2="299.627" y2="1560.503"/>
      <line x1="349.627" y1="1561.503" x2="299.627" y2="1561.503"/>
      <line x1="349.627" y1="1562.503" x2="299.627" y2="1562.503"/>
      <line x1="349.627" y1="1563.503" x2="299.627" y2="1563.503"/>
      <line x1="349.627" y1="1564.503" x2="299.627" y2="1564.503"/>
      <line x1="349.627" y1="1565.503" x2="299.627" y2="1565.503"/>
      <line x1="349.627" y1="1566.503" x2="299.627" y2="1566.503"/>
      <line x1="349.627" y1="1567.503" x2="299.627" y2="1567.503"/>
      <line x1="349.627" y1="1568.503" x2="299.627" y2="1568.503"/>
      <line x1="349.627" y1="1569.503" x2="299.627" y2="1569.503"/>
      <line x1="349.627" y1="1570.503" x2="299.627" y2="1570.503"/>
      <line x1="349.627" y1="1571.503" x2="299.627" y2="1571.503"/>
      <line x1="349.627" y1="1572.503" x2="299.627" y2="1572.503"/>
      <line x1="349.627" y1="1573.503" x2="299.627" y2="1573.503"/>
      <line x1="349.627" y1="1574.503" x2="299.627" y2="1574.503"/>
      <line x1="349.627" y1="1575.503" x2="299.627" y2="1575.503"/>
      <line x1="349.627" y1="1576.503" x2="299.627" y2="1576.503"/>
      <line x1="349.627" y1="1577.503" x2="299.627" y2="1577.503"/>
      <line x1="349.627" y1="1578.503" x2="299.627" y2="1578.503"/>
      <line x1="350.473" y1="1529.503" x2="349.727" y2="1529.503"/>
      <line x1="350.473" y1="1530.503" x2="349.727" y2="1530.503"/>
      <line x1="350.473" y1="1531.503" x2="349.727" y2="1531.503"/>
      <line x1="350.473" y1="1532.503" x2="349.727" y2="1532.503"/>
      <line x1="350.473" y1="1533.503" x2="349.727" y2="1533.503"/>
      <line x1="350.473" y1="1534.503" x2="349.727" y2="1534.503"/>
      <line x1="350.473" y1="1535.503" x2="349.727" y2="1535.503"/>
      <line x1="350.473" y1="1536.503" x2="349.727" y2="1536.503"/>
      <line x1="350.473" y1="1537.503" x2="349.727" y2="1537.503"/>
      <line x1="350.473" y1="1538.503" x2="349.727" y2="1538.503"/>
      <line x1="350.473" y1="1539.503" x2="349.727" y2="1539.503"/>
      <line x1="350.473" y1="1540.503" x2="349.727" y2="1540.503"/>
      <line x1="350.473" y1="1541.503" x2="349.727" y2="1541.503"/>
      <line x1="350.473" y1="1542.503" x2="349.727" y2="1542.503"/>
      <line x1="350.473" y1="1543.503" x2="349.727" y2="1543.503"/>
      <line x1="350.473" y1="1544.503" x2="349.727" y2="1544.503"/>
      <line x1="350.473" y1="1545.503" x2="349.727" y2="1545.503"/>
      <line x1="350.473" y1="1546.503" x2="349.727" y2="1546.503"/>
      <line x1="350.473" y1="1547.503" x2="349.727" y2="1547.503"/>
      <line x1="350.473" y1="1548.503" x2="349.727" y2="1548.503"/>
      <line x1="350.473" y1="1549.503" x2="349.727" y2="1549.503"/>
      <line x1="350.473" y1="1550.503" x2="349.727" y2="1550.503"/>
      <line x1="350.473" y1="1551.503" x2="349.727" y2="1551.503"/>
      <line x1="350.473" y1="1552.503" x2="349.727" y2="1552.503"/>
      <line x1="350.473" y1="1553.503" x2="349.727" y2="1553.503"/>
      <line x1="350.473" y1="1554.503" x2="349.727" y2="1554.503"/>
      <line x1="350.473" y1="1555.503" x2="349.727" y2="1555.503"/>
      <line x1="350.473" y1="1556.503" x2="349.727" y2="1556.503"/>
      <line x1="350.473" y1="1557.503" x2="349.727" y2="1557.503"/>
      <line x1="350.473" y1="1558.503" x2="349.727" y2="1558.503"/>
      <line x1="350.473" y1="1559.503" x2="349.727" y2="1559.503"/>
      <line x1="350.473" y1="1560.503" x2="349.727" y2="1560.503"/>
      <line x1="350.473" y1="1561.503" x2="349.727" y2="1561.503"/>
      <line x1="350.473" y1="1562.503" x2="349.727" y2="1562.503"/>
      <line x1="350.473" y1="1563.503" x2="349.727" y2="1563.503"/>
      <line x1="350.473" y1="1564.503" x2="349.727" y2="1564.503"/>
      <line x1="350.473" y1="1565.503" x2="349.727" y2="1565.503"/>
      <line x1="350.473" y1="1566.503" x2="349.727" y2="1566.503"/>
      <line x1="350.473" y1="1567.503" x2="349.727" y2="1567.503"/>
      <line x1="350.473" y1="1568.503" x2="349.727" y2="1568.503"/>
      <line x1="350.473" y1="1569.503" x2="349.727" y2="1569.503"/>
      <line x1="350.473" y1="1570.503" x2="349.727" y2="1570.503"/>
      <line x1="350.473" y1="1571.503" x2="349.727" y2="1571.503"/>
      <line x1="350.473" y1="1572.503" x2="349.727" y2="1572.503"/>
      <line x1="350.473" y1="1573.503" x2="349.727" y2="1573.503"/>
      <line x1="350.473" y1="1574.503" x2="349.727" y2="1574.503"/>
      <line x1="350.473" y1="1575.503" x2="349.727" y2="1575.503"/>
      <line x1="350.473" y1="1576.503" x2="349.727" y2="1576.503"/>
      <line x1="350.473" y1="1577.503" x2="349.727" y2="1577.503"/>
      <line x1="350.473" y1="1578.503" x2="349.727" y2="1578.503"/>
      <line x1="299.527" y1="1525.503" x2="249.527" y2="1525.503"/>
      <line x1="299.527" y1="1526.503" x2="249.527" y2="1526.503"/>
      <line x1="299.527" y1="1527.503" x2="249.527" y2="1527.503"/>
      <line x1="299.527" y1="1528.503" x2="249.527" y2="1528.503"/>
      <line x1="349.627" y1="1525.503" x2="299.627" y2="1525.503"/>
      <line x1="349.627" y1="1526.503" x2="299.627" y2="1526.503"/>
      <line x1="349.627" y1="1527.503" x2="299.627" y2="1527.503"/>
      <line x1="349.627" y1="1528.503" x2="299.627" y2="1528.503"/>
      <line x1="350.473" y1="1525.503" x2="349.727" y2="1525.503"/>
      <line x1="350.473" y1="1526.503" x2="349.727" y2="1526.503"/>
      <line x1="350.473" y1="1527.503" x2="349.727" y2="1527.503"/>
      <line x1="350.473" y1="1528.503" x2="349.727" y2="1528.503"/>
    </g>
    <g stroke="#1976D2" stroke-width="0.4">
      <polyline points="353.973,1521.729 246.027,1521.729 246.027,1682.729 353.973,1682.729 353.973,1521.729" fill="none"/>
      <polyline points="352.973,1522.729 247.027,1522.729 247.027,1681.730 352.973,1681.730 352.973,1522.729" fill="none"/>
      <polyline points="351.973,1523.729 248.027,1523.729 248.027,1680.730 351.973,1680.730 351.973,1523.729" fill="none"/>
      <polyline points="350.973,1524.729 249.027,1524.729 249.027,1679.729 350.973,1679.729 350.973,1524.729" fill="none"/>
    </g>
    <g stroke="#C62828" stroke-width="0.4" fill="none">
    </g>
    <g stroke="#EF6C00" stroke-width="0.4" fill="none">
    </g>
  </g>
  <g stroke="#000000" stroke-width="0.4">
    <line x1="500.000" y1="1000.000" x2="1500.000" y2="1000.000"/>
  </g>
  <g stroke="#000000" stroke-width="0.4">
    <line x1="1000.000" y1="500.000" x2="1000.000" y2="1500.000"/>
  </g>
  <circle cx="1000.000" cy="1000.000" r="1000.000" stroke="red" stroke-width="1" fill="none"/>
  </g>
</svg>
