<?xml version="1.0" encoding="UTF-8"?>
<svg xmlns="http://www.w3.org/2000/svg" version="1.1" width="2000" height="2000">
  <g fill="none" stroke-linecap="round" stroke-linejoin="round">
  <text x="10" y="20" font-size="24" fill="#555">Layer 270 Z=66.000 mm</text>
  <g transform="translate(700.000,-602.229)">
    <g stroke="#2E7D32" stroke-width="0.4">
      <line x1="168.268" y1="1679.230" x2="168.268" y2="1629.230"/>
      <line x1="169.268" y1="1679.230" x2="169.268" y2="1629.230"/>
      <line x1="170.268" y1="1679.230" x2="170.268" y2="1629.230"/>
      <line x1="171.268" y1="1679.230" x2="171.268" y2="1629.230"/>
      <line x1="172.268" y1="1679.230" x2="172.268" y2="1629.230"/>
      <line x1="173.268" y1="1679.230" x2="173.268" y2="1629.230"/>
      <line x1="174.268" y1="1679.230" x2="174.268" y2="1629.230"/>
      <line x1="175.268" y1="1679.230" x2="175.268" y2="1629.230"/>
      <line x1="176.268" y1="1679.230" x2="176.268" y2="1629.230"/>
      <line x1="177.268" y1="1679.230" x2="177.268" y2="1629.230"/>
      <line x1="178.268" y1="1679.230" x2="178.268" y2="1629.230"/>
      <line x1="179.268" y1="1679.230" x2="179.268" y2="1629.230"/>
      <line x1="180.268" y1="1679.230" x2="180.268" y2="1629.230"/>
      <line x1="181.268" y1="1679.230" x2="181.268" y2="1629.230"/>
      <line x1="182.268" y1="1679.230" x2="182.268" y2="1629.230"/>
      <line x1="183.268" y1="1679.230" x2="183.268" y2="1629.230"/>
      <line x1="184.268" y1="1679.230" x2="184.268" y2="1629.230"/>
      <line x1="185.268" y1="1679.230" x2="185.268" y2="1629.230"/>
      <line x1="186.268" y1="1679.230" x2="186.268" y2="1629.230"/>
      <line x1="187.268" y1="1679.230" x2="187.268" y2="1629.230"/>
      <line x1="188.268" y1="1679.230" x2="188.268" y2="1629.230"/>
      <line x1="189.268" y1="1679.230" x2="189.268" y2="1629.230"/>
      <line x1="190.268" y1="1679.230" x2="190.268" y2="1629.230"/>
      <line x1="191.268" y1="1679.230" x2="191.268" y2="1629.230"/>
      <line x1="192.268" y1="1679.230" x2="192.268" y2="1629.230"/>
      <line x1="193.268" y1="1679.230" x2="193.268" y2="1629.230"/>
      <line x1="194.268" y1="1679.230" x2="194.268" y2="1629.230"/>
      <line x1="195.268" y1="1679.230" x2="195.268" y2="1629.230"/>
      <line x1="196.268" y1="1679.230" x2="196.268" y2="1629.230"/>
      <line x1="197.268" y1="1679.230" x2="197.268" y2="1629.230"/>
      <line x1="198.268" y1="1679.230" x2="198.268" y2="1629.230"/>
      <line x1="199.268" y1="1679.230" x2="199.268" y2="1629.230"/>
      <line x1="200.268" y1="1679.230" x2="200.268" y2="1629.230"/>
      <line x1="201.268" y1="1679.230" x2="201.268" y2="1629.230"/>
      <line x1="202.268" y1="1679.230" x2="202.268" y2="1629.230"/>
      <line x1="203.268" y1="1679.230" x2="203.268" y2="1629.230"/>
      <line x1="204.268" y1="1679.230" x2="204.268" y2="1629.230"/>
      <line x1="205.268" y1="1679.230" x2="205.268" y2="1629.230"/>
      <line x1="206.268" y1="1679.230" x2="206.268" y2="1629.230"/>
      <line x1="207.268" y1="1679.230" x2="207.268" y2="1629.230"/>
      <line x1="208.268" y1="1679.230" x2="208.268" y2="1629.230"/>
      <line x1="209.268" y1="1679.230" x2="209.268" y2="1629.230"/>
      <line x1="210.268" y1="1679.230" x2="210.268" y2="1629.230"/>
      <line x1="211.268" y1="1679.230" x2="211.268" y2="1629.230"/>
      <line x1="212.268" y1="1679.230" x2="212.268" y2="1629.230"/>
      <line x1="213.268" y1="1679.230" x2="213.268" y2="1629.230"/>
      <line x1="214.268" y1="1679.230" x2="214.268" y2="1629.230"/>
      <line x1="215.268" y1="1679.230" x2="215.268" y2="1629.230"/>
      <line x1="216.268" y1="1679.230" x2="216.268" y2="1629.230"/>
      <line x1="217.268" y1="1679.230" x2="217.268" y2="1629.230"/>
      <line x1="218.268" y1="1679.230" x2="218.268" y2="1629.230"/>
      <line x1="219.268" y1="1679.230" x2="219.268" y2="1629.230"/>
      <line x1="220.268" y1="1679.230" x2="220.268" y2="1629.230"/>
      <line x1="221.268" y1="1679.230" x2="221.268" y2="1629.230"/>
      <line x1="222.268" y1="1679.230" x2="222.268" y2="1629.230"/>
      <line x1="223.268" y1="1679.230" x2="223.268" y2="1629.230"/>
      <line x1="224.268" y1="1679.230" x2="224.268" y2="1629.230"/>
      <line x1="225.268" y1="1679.230" x2="225.268" y2="1629.230"/>
      <line x1="226.268" y1="1679.230" x2="226.268" y2="1629.230"/>
      <line x1="227.268" y1="1679.230" x2="227.268" y2="1629.230"/>
      <line x1="228.268" y1="1679.230" x2="228.268" y2="1629.230"/>
      <line x1="229.268" y1="1679.230" x2="229.268" y2="1629.230"/>
      <line x1="230.268" y1="1679.230" x2="230.268" y2="1629.230"/>
      <line x1="231.268" y1="1679.230" x2="231.268" y2="1629.230"/>
      <line x1="232.268" y1="1679.230" x2="232.268" y2="1629.230"/>
      <line x1="233.268" y1="1679.230" x2="233.268" y2="1629.230"/>
      <line x1="234.268" y1="1679.230" x2="234.268" y2="1629.230"/>
      <line x1="235.268" y1="1679.230" x2="235.268" y2="1629.230"/>
      <line x1="236.268" y1="1679.230" x2="236.268" y2="1629.230"/>
      <line x1="237.268" y1="1679.230" x2="237.268" y2="1629.230"/>
      <line x1="238.268" y1="1679.230" x2="238.268" y2="1629.230"/>
      <line x1="239.268" y1="1679.230" x2="239.268" y2="1629.230"/>
      <line x1="240.268" y1="1679.230" x2="240.268" y2="1629.230"/>
      <line x1="241.268" y1="1679.230" x2="241.268" y2="1629.230"/>
      <line x1="242.268" y1="1679.230" x2="242.268" y2="1629.230"/>
      <line x1="243.268" y1="1679.230" x2="243.268" y2="1629.230"/>
      <line x1="244.268" y1="1679.230" x2="244.268" y2="1629.230"/>
      <line x1="245.268" y1="1679.230" x2="245.268" y2="1629.230"/>
      <line x1="246.268" y1="1679.230" x2="246.268" y2="1629.230"/>
      <line x1="247.268" y1="1679.230" x2="247.268" y2="1629.230"/>
      <line x1="248.268" y1="1679.230" x2="248.268" y2="1629.230"/>
      <line x1="249.268" y1="1679.230" x2="249.268" y2="1629.230"/>
      <line x1="250.268" y1="1679.230" x2="250.268" y2="1629.230"/>
      <line x1="251.268" y1="1679.230" x2="251.268" y2="1629.230"/>
      <line x1="252.268" y1="1679.230" x2="252.268" y2="1629.230"/>
      <line x1="253.268" y1="1679.230" x2="253.268" y2="1629.230"/>
      <line x1="254.268" y1="1679.230" x2="254.268" y2="1629.230"/>
      <line x1="255.268" y1="1679.230" x2="255.268" y2="1629.230"/>
      <line x1="256.268" y1="1679.230" x2="256.268" y2="1629.230"/>
      <line x1="257.268" y1="1679.230" x2="257.268" y2="1629.230"/>
      <line x1="258.268" y1="1679.230" x2="258.268" y2="1629.230"/>
      <line x1="259.268" y1="1679.230" x2="259.268" y2="1629.230"/>
      <line x1="260.268" y1="1679.230" x2="260.268" y2="1629.230"/>
      <line x1="261.268" y1="1679.230" x2="261.268" y2="1629.230"/>
      <line x1="262.268" y1="1679.230" x2="262.268" y2="1629.230"/>
      <line x1="263.268" y1="1679.230" x2="263.268" y2="1629.230"/>
      <line x1="264.268" y1="1679.230" x2="264.268" y2="1629.230"/>
      <line x1="265.268" y1="1679.230" x2="265.268" y2="1629.230"/>
      <line x1="266.268" y1="1679.230" x2="266.268" y2="1629.230"/>
      <line x1="267.268" y1="1679.230" x2="267.268" y2="1629.230"/>
      <line x1="268.268" y1="1679.230" x2="268.268" y2="1629.230"/>
      <line x1="269.268" y1="1679.230" x2="269.268" y2="1629.230"/>
      <line x1="270.268" y1="1679.230" x2="270.268" y2="1629.230"/>
      <line x1="271.268" y1="1679.230" x2="271.268" y2="1629.230"/>
      <line x1="272.268" y1="1679.230" x2="272.268" y2="1629.230"/>
      <line x1="273.268" y1="1679.230" x2="273.268" y2="1629.230"/>
      <line x1="274.268" y1="1679.230" x2="274.268" y2="1629.230"/>
      <line x1="275.268" y1="1679.230" x2="275.268" y2="1629.230"/>
      <line x1="276.268" y1="1679.230" x2="276.268" y2="1629.230"/>
      <line x1="277.268" y1="1679.230" x2="277.268" y2="1629.230"/>
      <line x1="278.268" y1="1679.230" x2="278.268" y2="1629.230"/>
      <line x1="279.268" y1="1679.230" x2="279.268" y2="1629.230"/>
      <line x1="280.268" y1="1679.230" x2="280.268" y2="1629.230"/>
      <line x1="281.268" y1="1679.230" x2="281.268" y2="1629.230"/>
      <line x1="282.268" y1="1679.230" x2="282.268" y2="1629.230"/>
      <line x1="283.268" y1="1679.230" x2="283.268" y2="1629.230"/>
      <line x1="284.268" y1="1679.230" x2="284.268" y2="1629.230"/>
      <line x1="285.268" y1="1679.230" x2="285.268" y2="1629.230"/>
      <line x1="286.268" y1="1679.230" x2="286.268" y2="1629.230"/>
      <line x1="287.268" y1="1679.230" x2="287.268" y2="1629.230"/>
      <line x1="288.268" y1="1679.230" x2="288.268" y2="1629.230"/>
      <line x1="289.268" y1="1679.230" x2="289.268" y2="1629.230"/>
      <line x1="290.268" y1="1679.230" x2="290.268" y2="1629.230"/>
      <line x1="291.268" y1="1679.230" x2="291.268" y2="1629.230"/>
      <line x1="292.268" y1="1679.230" x2="292.268" y2="1629.230"/>
      <line x1="293.268" y1="1679.230" x2="293.268" y2="1629.230"/>
      <line x1="294.268" y1="1679.230" x2="294.268" y2="1629.230"/>
      <line x1="295.268" y1="1679.230" x2="295.268" y2="1629.230"/>
      <line x1="296.268" y1="1679.230" x2="296.268" y2="1629.230"/>
      <line x1="297.268" y1="1679.230" x2="297.268" y2="1629.230"/>
      <line x1="298.268" y1="1679.230" x2="298.268" y2="1629.230"/>
      <line x1="299.268" y1="1679.230" x2="299.268" y2="1629.230"/>
      <line x1="300.268" y1="1679.230" x2="300.268" y2="1629.230"/>
      <line x1="301.268" y1="1679.230" x2="301.268" y2="1629.230"/>
      <line x1="302.268" y1="1679.230" x2="302.268" y2="1629.230"/>
      <line x1="303.268" y1="1679.230" x2="303.268" y2="1629.230"/>
      <line x1="304.268" y1="1679.230" x2="304.268" y2="1629.230"/>
      <line x1="305.268" y1="1679.230" x2="305.268" y2="1629.230"/>
      <line x1="306.268" y1="1679.230" x2="306.268" y2="1629.230"/>
      <line x1="307.268" y1="1679.230" x2="307.268" y2="1629.230"/>
      <line x1="308.268" y1="1679.230" x2="308.268" y2="1629.230"/>
      <line x1="309.268" y1="1679.230" x2="309.268" y2="1629.230"/>
      <line x1="310.268" y1="1679.230" x2="310.268" y2="1629.230"/>
      <line x1="311.268" y1="1679.230" x2="311.268" y2="1629.230"/>
      <line x1="312.268" y1="1679.230" x2="312.268" y2="1629.230"/>
      <line x1="313.268" y1="1679.230" x2="313.268" y2="1629.230"/>
      <line x1="314.268" y1="1679.230" x2="314.268" y2="1629.230"/>
      <line x1="315.268" y1="1679.230" x2="315.268" y2="1629.230"/>
      <line x1="316.268" y1="1679.230" x2="316.268" y2="1629.230"/>
      <line x1="317.268" y1="1679.230" x2="317.268" y2="1629.230"/>
      <line x1="318.268" y1="1679.230" x2="318.268" y2="1629.230"/>
      <line x1="319.268" y1="1679.230" x2="319.268" y2="1629.230"/>
      <line x1="320.268" y1="1679.230" x2="320.268" y2="1629.230"/>
      <line x1="321.268" y1="1679.230" x2="321.268" y2="1629.230"/>
      <line x1="322.268" y1="1679.230" x2="322.268" y2="1629.230"/>
      <line x1="323.268" y1="1679.230" x2="323.268" y2="1629.230"/>
      <line x1="324.268" y1="1679.230" x2="324.268" y2="1629.230"/>
      <line x1="325.268" y1="1679.230" x2="325.268" y2="1629.230"/>
      <line x1="326.268" y1="1679.230" x2="326.268" y2="1629.230"/>
      <line x1="327.268" y1="1679.230" x2="327.268" y2="1629.230"/>
      <line x1="328.268" y1="1679.230" x2="328.268" y2="1629.230"/>
      <line x1="329.268" y1="1679.230" x2="329.268" y2="1629.230"/>
      <line x1="330.268" y1="1679.230" x2="330.268" y2="1629.230"/>
      <line x1="331.268" y1="1679.230" x2="331.268" y2="1629.230"/>
      <line x1="332.268" y1="1679.230" x2="332.268" y2="1629.230"/>
      <line x1="333.268" y1="1679.230" x2="333.268" y2="1629.230"/>
      <line x1="334.268" y1="1679.230" x2="334.268" y2="1629.230"/>
      <line x1="335.268" y1="1679.230" x2="335.268" y2="1629.230"/>
      <line x1="336.268" y1="1679.230" x2="336.268" y2="1629.230"/>
      <line x1="337.268" y1="1679.230" x2="337.268" y2="1629.230"/>
      <line x1="338.268" y1="1679.230" x2="338.268" y2="1629.230"/>
      <line x1="339.268" y1="1679.230" x2="339.268" y2="1629.230"/>
      <line x1="340.268" y1="1679.230" x2="340.268" y2="1629.230"/>
      <line x1="341.268" y1="1679.230" x2="341.268" y2="1629.230"/>
      <line x1="342.268" y1="1679.230" x2="342.268" y2="1629.230"/>
      <line x1="343.268" y1="1679.230" x2="343.268" y2="1629.230"/>
      <line x1="344.268" y1="1679.230" x2="344.268" y2="1629.230"/>
      <line x1="345.268" y1="1679.230" x2="345.268" y2="1629.230"/>
      <line x1="346.268" y1="1679.230" x2="346.268" y2="1629.230"/>
      <line x1="347.268" y1="1679.230" x2="347.268" y2="1629.230"/>
      <line x1="348.268" y1="1679.230" x2="348.268" y2="1629.230"/>
      <line x1="349.268" y1="1679.230" x2="349.268" y2="1629.230"/>
      <line x1="350.268" y1="1679.230" x2="350.268" y2="1629.230"/>
      <line x1="351.268" y1="1679.230" x2="351.268" y2="1629.230"/>
      <line x1="352.268" y1="1679.230" x2="352.268" y2="1629.230"/>
      <line x1="353.268" y1="1679.230" x2="353.268" y2="1629.230"/>
      <line x1="354.268" y1="1679.230" x2="354.268" y2="1629.230"/>
      <line x1="355.268" y1="1679.230" x2="355.268" y2="1629.230"/>
      <line x1="356.268" y1="1679.230" x2="356.268" y2="1629.230"/>
      <line x1="357.268" y1="1679.230" x2="357.268" y2="1629.230"/>
      <line x1="358.268" y1="1679.230" x2="358.268" y2="1629.230"/>
      <line x1="359.268" y1="1679.230" x2="359.268" y2="1629.230"/>
      <line x1="360.268" y1="1679.230" x2="360.268" y2="1629.230"/>
      <line x1="361.268" y1="1679.230" x2="361.268" y2="1629.230"/>
      <line x1="362.268" y1="1679.230" x2="362.268" y2="1629.230"/>
      <line x1="363.268" y1="1679.230" x2="363.268" y2="1629.230"/>
      <line x1="364.268" y1="1679.230" x2="364.268" y2="1629.230"/>
      <line x1="365.268" y1="1679.230" x2="365.268" y2="1629.230"/>
      <line x1="366.268" y1="1679.230" x2="366.268" y2="1629.230"/>
      <line x1="367.268" y1="1679.230" x2="367.268" y2="1629.230"/>
      <line x1="368.268" y1="1679.230" x2="368.268" y2="1629.230"/>
      <line x1="369.268" y1="1679.230" x2="369.268" y2="1629.230"/>
      <line x1="370.268" y1="1679.230" x2="370.268" y2="1629.230"/>
      <line x1="371.268" y1="1679.230" x2="371.268" y2="1629.230"/>
      <line x1="372.268" y1="1679.230" x2="372.268" y2="1629.230"/>
      <line x1="373.268" y1="1679.230" x2="373.268" y2="1629.230"/>
      <line x1="374.268" y1="1679.230" x2="374.268" y2="1629.230"/>
      <line x1="375.268" y1="1679.230" x2="375.268" y2="1629.230"/>
      <line x1="376.268" y1="1679.230" x2="376.268" y2="1629.230"/>
      <line x1="377.268" y1="1679.230" x2="377.268" y2="1629.230"/>
      <line x1="378.268" y1="1679.230" x2="378.268" y2="1629.230"/>
      <line x1="379.268" y1="1679.230" x2="379.268" y2="1629.230"/>
      <line x1="380.268" y1="1679.230" x2="380.268" y2="1629.230"/>
      <line x1="381.268" y1="1679.230" x2="381.268" y2="1629.230"/>
      <line x1="382.268" y1="1679.230" x2="382.268" y2="1629.230"/>
      <line x1="383.268" y1="1679.230" x2="383.268" y2="1629.230"/>
      <line x1="384.268" y1="1679.230" x2="384.268" y2="1629.230"/>
      <line x1="385.268" y1="1679.230" x2="385.268" y2="1629.230"/>
      <line x1="386.268" y1="1679.230" x2="386.268" y2="1629.230"/>
      <line x1="387.268" y1="1679.230" x2="387.268" y2="1629.230"/>
      <line x1="388.268" y1="1679.230" x2="388.268" y2="1629.230"/>
      <line x1="389.268" y1="1679.230" x2="389.268" y2="1629.230"/>
      <line x1="390.268" y1="1679.230" x2="390.268" y2="1629.230"/>
      <line x1="391.268" y1="1679.230" x2="391.268" y2="1629.230"/>
      <line x1="392.268" y1="1679.230" x2="392.268" y2="1629.230"/>
      <line x1="393.268" y1="1679.230" x2="393.268" y2="1629.230"/>
      <line x1="394.268" y1="1679.230" x2="394.268" y2="1629.230"/>
      <line x1="395.268" y1="1679.230" x2="395.268" y2="1629.230"/>
      <line x1="396.268" y1="1679.230" x2="396.268" y2="1629.230"/>
      <line x1="397.268" y1="1679.230" x2="397.268" y2="1629.230"/>
      <line x1="398.268" y1="1679.230" x2="398.268" y2="1629.230"/>
      <line x1="399.268" y1="1679.230" x2="399.268" y2="1629.230"/>
      <line x1="400.268" y1="1679.230" x2="400.268" y2="1629.230"/>
      <line x1="401.268" y1="1679.230" x2="401.268" y2="1629.230"/>
      <line x1="402.268" y1="1679.230" x2="402.268" y2="1629.230"/>
      <line x1="403.268" y1="1679.230" x2="403.268" y2="1629.230"/>
      <line x1="404.268" y1="1679.230" x2="404.268" y2="1629.230"/>
      <line x1="405.268" y1="1679.230" x2="405.268" y2="1629.230"/>
      <line x1="406.268" y1="1679.230" x2="406.268" y2="1629.230"/>
      <line x1="407.268" y1="1679.230" x2="407.268" y2="1629.230"/>
      <line x1="408.268" y1="1679.230" x2="408.268" y2="1629.230"/>
      <line x1="409.268" y1="1679.230" x2="409.268" y2="1629.230"/>
      <line x1="410.268" y1="1679.230" x2="410.268" y2="1629.230"/>
      <line x1="411.268" y1="1679.230" x2="411.268" y2="1629.230"/>
      <line x1="412.268" y1="1679.230" x2="412.268" y2="1629.230"/>
      <line x1="413.268" y1="1679.230" x2="413.268" y2="1629.230"/>
      <line x1="414.268" y1="1679.230" x2="414.268" y2="1629.230"/>
      <line x1="415.268" y1="1679.230" x2="415.268" y2="1629.230"/>
      <line x1="416.268" y1="1679.230" x2="416.268" y2="1629.230"/>
      <line x1="417.268" y1="1679.230" x2="417.268" y2="1629.230"/>
      <line x1="418.268" y1="1679.230" x2="418.268" y2="1629.230"/>
      <line x1="419.268" y1="1679.230" x2="419.268" y2="1629.230"/>
      <line x1="420.268" y1="1679.230" x2="420.268" y2="1629.230"/>
      <line x1="421.268" y1="1679.230" x2="421.268" y2="1629.230"/>
      <line x1="422.268" y1="1679.230" x2="422.268" y2="1629.230"/>
      <line x1="423.268" y1="1679.230" x2="423.268" y2="1629.230"/>
      <line x1="424.268" y1="1679.230" x2="424.268" y2="1629.230"/>
      <line x1="425.268" y1="1679.230" x2="425.268" y2="1629.230"/>
      <line x1="426.268" y1="1679.230" x2="426.268" y2="1629.230"/>
      <line x1="427.268" y1="1679.230" x2="427.268" y2="1629.230"/>
      <line x1="428.268" y1="1679.230" x2="428.268" y2="1629.230"/>
      <line x1="429.268" y1="1679.230" x2="429.268" y2="1629.230"/>
      <line x1="430.268" y1="1679.230" x2="430.268" y2="1629.230"/>
      <line x1="431.268" y1="1679.230" x2="431.268" y2="1629.230"/>
      <line x1="432.268" y1="1679.230" x2="432.268" y2="1629.230"/>
      <line x1="168.268" y1="1629.130" x2="168.268" y2="1579.130"/>
      <line x1="169.268" y1="1629.130" x2="169.268" y2="1579.130"/>
      <line x1="170.268" y1="1629.130" x2="170.268" y2="1579.130"/>
      <line x1="171.268" y1="1629.130" x2="171.268" y2="1579.130"/>
      <line x1="172.268" y1="1629.130" x2="172.268" y2="1579.130"/>
      <line x1="173.268" y1="1629.130" x2="173.268" y2="1579.130"/>
      <line x1="174.268" y1="1629.130" x2="174.268" y2="1579.130"/>
      <line x1="175.268" y1="1629.130" x2="175.268" y2="1579.130"/>
      <line x1="176.268" y1="1629.130" x2="176.268" y2="1579.130"/>
      <line x1="177.268" y1="1629.130" x2="177.268" y2="1579.130"/>
      <line x1="178.268" y1="1629.130" x2="178.268" y2="1579.130"/>
      <line x1="179.268" y1="1629.130" x2="179.268" y2="1579.130"/>
      <line x1="180.268" y1="1629.130" x2="180.268" y2="1579.130"/>
      <line x1="181.268" y1="1629.130" x2="181.268" y2="1579.130"/>
      <line x1="182.268" y1="1629.130" x2="182.268" y2="1579.130"/>
      <line x1="183.268" y1="1629.130" x2="183.268" y2="1579.130"/>
      <line x1="184.268" y1="1629.130" x2="184.268" y2="1579.130"/>
      <line x1="185.268" y1="1629.130" x2="185.268" y2="1579.130"/>
      <line x1="186.268" y1="1629.130" x2="186.268" y2="1579.130"/>
      <line x1="187.268" y1="1629.130" x2="187.268" y2="1579.130"/>
      <line x1="188.268" y1="1629.130" x2="188.268" y2="1579.130"/>
      <line x1="189.268" y1="1629.130" x2="189.268" y2="1579.130"/>
      <line x1="190.268" y1="1629.130" x2="190.268" y2="1579.130"/>
      <line x1="191.268" y1="1629.130" x2="191.268" y2="1579.130"/>
      <line x1="192.268" y1="1629.130" x2="192.268" y2="1579.130"/>
      <line x1="193.268" y1="1629.130" x2="193.268" y2="1579.130"/>
      <line x1="194.268" y1="1629.130" x2="194.268" y2="1579.130"/>
      <line x1="195.268" y1="1629.130" x2="195.268" y2="1579.130"/>
      <line x1="196.268" y1="1629.130" x2="196.268" y2="1579.130"/>
      <line x1="197.268" y1="1629.130" x2="197.268" y2="1579.130"/>
      <line x1="198.268" y1="1629.130" x2="198.268" y2="1579.130"/>
      <line x1="199.268" y1="1629.130" x2="199.268" y2="1579.130"/>
      <line x1="200.268" y1="1629.130" x2="200.268" y2="1579.130"/>
      <line x1="201.268" y1="1629.130" x2="201.268" y2="1579.130"/>
      <line x1="202.268" y1="1629.130" x2="202.268" y2="1579.130"/>
      <line x1="203.268" y1="1629.130" x2="203.268" y2="1579.130"/>
      <line x1="204.268" y1="1629.130" x2="204.268" y2="1579.130"/>
      <line x1="205.268" y1="1629.130" x2="205.268" y2="1579.130"/>
      <line x1="206.268" y1="1629.130" x2="206.268" y2="1579.130"/>
      <line x1="207.268" y1="1629.130" x2="207.268" y2="1579.130"/>
      <line x1="208.268" y1="1629.130" x2="208.268" y2="1579.130"/>
      <line x1="209.268" y1="1629.130" x2="209.268" y2="1579.130"/>
      <line x1="210.268" y1="1629.130" x2="210.268" y2="1579.130"/>
      <line x1="211.268" y1="1629.130" x2="211.268" y2="1579.130"/>
      <line x1="212.268" y1="1629.130" x2="212.268" y2="1579.130"/>
      <line x1="213.268" y1="1629.130" x2="213.268" y2="1579.130"/>
      <line x1="214.268" y1="1629.130" x2="214.268" y2="1579.130"/>
      <line x1="215.268" y1="1629.130" x2="215.268" y2="1579.130"/>
      <line x1="216.268" y1="1629.130" x2="216.268" y2="1579.130"/>
      <line x1="217.268" y1="1629.130" x2="217.268" y2="1579.130"/>
      <line x1="218.268" y1="1629.130" x2="218.268" y2="1579.130"/>
      <line x1="219.268" y1="1629.130" x2="219.268" y2="1579.130"/>
      <line x1="220.268" y1="1629.130" x2="220.268" y2="1579.130"/>
      <line x1="221.268" y1="1629.130" x2="221.268" y2="1579.130"/>
      <line x1="222.268" y1="1629.130" x2="222.268" y2="1579.130"/>
      <line x1="223.268" y1="1629.130" x2="223.268" y2="1579.130"/>
      <line x1="224.268" y1="1629.130" x2="224.268" y2="1579.130"/>
      <line x1="225.268" y1="1629.130" x2="225.268" y2="1579.130"/>
      <line x1="226.268" y1="1629.130" x2="226.268" y2="1579.130"/>
      <line x1="227.268" y1="1629.130" x2="227.268" y2="1579.130"/>
      <line x1="228.268" y1="1629.130" x2="228.268" y2="1579.130"/>
      <line x1="229.268" y1="1629.130" x2="229.268" y2="1579.130"/>
      <line x1="230.268" y1="1629.130" x2="230.268" y2="1579.130"/>
      <line x1="231.268" y1="1629.130" x2="231.268" y2="1579.130"/>
      <line x1="232.268" y1="1629.130" x2="232.268" y2="1579.130"/>
      <line x1="233.268" y1="1629.130" x2="233.268" y2="1579.130"/>
      <line x1="234.268" y1="1629.130" x2="234.268" y2="1579.130"/>
      <line x1="235.268" y1="1629.130" x2="235.268" y2="1579.130"/>
      <line x1="236.268" y1="1629.130" x2="236.268" y2="1579.130"/>
      <line x1="237.268" y1="1629.130" x2="237.268" y2="1579.130"/>
      <line x1="238.268" y1="1629.130" x2="238.268" y2="1579.130"/>
      <line x1="239.268" y1="1629.130" x2="239.268" y2="1579.130"/>
      <line x1="240.268" y1="1629.130" x2="240.268" y2="1579.130"/>
      <line x1="241.268" y1="1629.130" x2="241.268" y2="1579.130"/>
      <line x1="242.268" y1="1629.130" x2="242.268" y2="1579.130"/>
      <line x1="243.268" y1="1629.130" x2="243.268" y2="1579.130"/>
      <line x1="244.268" y1="1629.130" x2="244.268" y2="1579.130"/>
      <line x1="245.268" y1="1629.130" x2="245.268" y2="1579.130"/>
      <line x1="246.268" y1="1629.130" x2="246.268" y2="1579.130"/>
      <line x1="247.268" y1="1629.130" x2="247.268" y2="1579.130"/>
      <line x1="248.268" y1="1629.130" x2="248.268" y2="1579.130"/>
      <line x1="249.268" y1="1629.130" x2="249.268" y2="1579.130"/>
      <line x1="250.268" y1="1629.130" x2="250.268" y2="1579.130"/>
      <line x1="251.268" y1="1629.130" x2="251.268" y2="1579.130"/>
      <line x1="252.268" y1="1629.130" x2="252.268" y2="1579.130"/>
      <line x1="253.268" y1="1629.130" x2="253.268" y2="1579.130"/>
      <line x1="254.268" y1="1629.130" x2="254.268" y2="1579.130"/>
      <line x1="255.268" y1="1629.130" x2="255.268" y2="1579.130"/>
      <line x1="256.268" y1="1629.130" x2="256.268" y2="1579.130"/>
      <line x1="257.268" y1="1629.130" x2="257.268" y2="1579.130"/>
      <line x1="258.268" y1="1629.130" x2="258.268" y2="1579.130"/>
      <line x1="259.268" y1="1629.130" x2="259.268" y2="1579.130"/>
      <line x1="260.268" y1="1629.130" x2="260.268" y2="1579.130"/>
      <line x1="261.268" y1="1629.130" x2="261.268" y2="1579.130"/>
      <line x1="262.268" y1="1629.130" x2="262.268" y2="1579.130"/>
      <line x1="263.268" y1="1629.130" x2="263.268" y2="1579.130"/>
      <line x1="264.268" y1="1629.130" x2="264.268" y2="1579.130"/>
      <line x1="265.268" y1="1629.130" x2="265.268" y2="1579.130"/>
      <line x1="266.268" y1="1629.130" x2="266.268" y2="1579.130"/>
      <line x1="267.268" y1="1629.130" x2="267.268" y2="1579.130"/>
      <line x1="268.268" y1="1629.130" x2="268.268" y2="1579.130"/>
      <line x1="269.268" y1="1629.130" x2="269.268" y2="1579.130"/>
      <line x1="270.268" y1="1629.130" x2="270.268" y2="1579.130"/>
      <line x1="271.268" y1="1629.130" x2="271.268" y2="1579.130"/>
      <line x1="272.268" y1="1629.130" x2="272.268" y2="1579.130"/>
      <line x1="273.268" y1="1629.130" x2="273.268" y2="1579.130"/>
      <line x1="274.268" y1="1629.130" x2="274.268" y2="1579.130"/>
      <line x1="275.268" y1="1629.130" x2="275.268" y2="1579.130"/>
      <line x1="276.268" y1="1629.130" x2="276.268" y2="1579.130"/>
      <line x1="277.268" y1="1629.130" x2="277.268" y2="1579.130"/>
      <line x1="278.268" y1="1629.130" x2="278.268" y2="1579.130"/>
      <line x1="279.268" y1="1629.130" x2="279.268" y2="1579.130"/>
      <line x1="280.268" y1="1629.130" x2="280.268" y2="1579.130"/>
      <line x1="281.268" y1="1629.130" x2="281.268" y2="1579.130"/>
      <line x1="282.268" y1="1629.130" x2="282.268" y2="1579.130"/>
      <line x1="283.268" y1="1629.130" x2="283.268" y2="1579.130"/>
      <line x1="284.268" y1="1629.130" x2="284.268" y2="1579.130"/>
      <line x1="285.268" y1="1629.130" x2="285.268" y2="1579.130"/>
      <line x1="286.268" y1="1629.130" x2="286.268" y2="1579.130"/>
      <line x1="287.268" y1="1629.130" x2="287.268" y2="1579.130"/>
      <line x1="288.268" y1="1629.130" x2="288.268" y2="1579.130"/>
      <line x1="289.268" y1="1629.130" x2="289.268" y2="1579.130"/>
      <line x1="290.268" y1="1629.130" x2="290.268" y2="1579.130"/>
      <line x1="291.268" y1="1629.130" x2="291.268" y2="1579.130"/>
      <line x1="292.268" y1="1629.130" x2="292.268" y2="1579.130"/>
      <line x1="293.268" y1="1629.130" x2="293.268" y2="1579.130"/>
      <line x1="294.268" y1="1629.130" x2="294.268" y2="1579.130"/>
      <line x1="295.268" y1="1629.130" x2="295.268" y2="1579.130"/>
      <line x1="296.268" y1="1629.130" x2="296.268" y2="1579.130"/>
      <line x1="297.268" y1="1629.130" x2="297.268" y2="1579.130"/>
      <line x1="298.268" y1="1629.130" x2="298.268" y2="1579.130"/>
      <line x1="299.268" y1="1629.130" x2="299.268" y2="1579.130"/>
      <line x1="300.268" y1="1629.130" x2="300.268" y2="1579.130"/>
      <line x1="301.268" y1="1629.130" x2="301.268" y2="1579.130"/>
      <line x1="302.268" y1="1629.130" x2="302.268" y2="1579.130"/>
      <line x1="303.268" y1="1629.130" x2="303.268" y2="1579.130"/>
      <line x1="304.268" y1="1629.130" x2="304.268" y2="1579.130"/>
      <line x1="305.268" y1="1629.130" x2="305.268" y2="1579.130"/>
      <line x1="306.268" y1="1629.130" x2="306.268" y2="1579.130"/>
      <line x1="307.268" y1="1629.130" x2="307.268" y2="1579.130"/>
      <line x1="308.268" y1="1629.130" x2="308.268" y2="1579.130"/>
      <line x1="309.268" y1="1629.130" x2="309.268" y2="1579.130"/>
      <line x1="310.268" y1="1629.130" x2="310.268" y2="1579.130"/>
      <line x1="311.268" y1="1629.130" x2="311.268" y2="1579.130"/>
      <line x1="312.268" y1="1629.130" x2="312.268" y2="1579.130"/>
      <line x1="313.268" y1="1629.130" x2="313.268" y2="1579.130"/>
      <line x1="314.268" y1="1629.130" x2="314.268" y2="1579.130"/>
      <line x1="315.268" y1="1629.130" x2="315.268" y2="1579.130"/>
      <line x1="316.268" y1="1629.130" x2="316.268" y2="1579.130"/>
      <line x1="317.268" y1="1629.130" x2="317.268" y2="1579.130"/>
      <line x1="318.268" y1="1629.130" x2="318.268" y2="1579.130"/>
      <line x1="319.268" y1="1629.130" x2="319.268" y2="1579.130"/>
      <line x1="320.268" y1="1629.130" x2="320.268" y2="1579.130"/>
      <line x1="321.268" y1="1629.130" x2="321.268" y2="1579.130"/>
      <line x1="322.268" y1="1629.130" x2="322.268" y2="1579.130"/>
      <line x1="323.268" y1="1629.130" x2="323.268" y2="1579.130"/>
      <line x1="324.268" y1="1629.130" x2="324.268" y2="1579.130"/>
      <line x1="325.268" y1="1629.130" x2="325.268" y2="1579.130"/>
      <line x1="326.268" y1="1629.130" x2="326.268" y2="1579.130"/>
      <line x1="327.268" y1="1629.130" x2="327.268" y2="1579.130"/>
      <line x1="328.268" y1="1629.130" x2="328.268" y2="1579.130"/>
      <line x1="329.268" y1="1629.130" x2="329.268" y2="1579.130"/>
      <line x1="330.268" y1="1629.130" x2="330.268" y2="1579.130"/>
      <line x1="331.268" y1="1629.130" x2="331.268" y2="1579.130"/>
      <line x1="332.268" y1="1629.130" x2="332.268" y2="1579.130"/>
      <line x1="333.268" y1="1629.130" x2="333.268" y2="1579.130"/>
      <line x1="334.268" y1="1629.130" x2="334.268" y2="1579.130"/>
      <line x1="335.268" y1="1629.130" x2="335.268" y2="1579.130"/>
      <line x1="336.268" y1="1629.130" x2="336.268" y2="1579.130"/>
      <line x1="337.268" y1="1629.130" x2="337.268" y2="1579.130"/>
      <line x1="338.268" y1="1629.130" x2="338.268" y2="1579.130"/>
      <line x1="339.268" y1="1629.130" x2="339.268" y2="1579.130"/>
      <line x1="340.268" y1="1629.130" x2="340.268" y2="1579.130"/>
      <line x1="341.268" y1="1629.130" x2="341.268" y2="1579.130"/>
      <line x1="342.268" y1="1629.130" x2="342.268" y2="1579.130"/>
      <line x1="343.268" y1="1629.130" x2="343.268" y2="1579.130"/>
      <line x1="344.268" y1="1629.130" x2="344.268" y2="1579.130"/>
      <line x1="345.268" y1="1629.130" x2="345.268" y2="1579.130"/>
      <line x1="346.268" y1="1629.130" x2="346.268" y2="1579.130"/>
      <line x1="347.268" y1="1629.130" x2="347.268" y2="1579.130"/>
      <line x1="348.268" y1="1629.130" x2="348.268" y2="1579.130"/>
      <line x1="349.268" y1="1629.130" x2="349.268" y2="1579.130"/>
      <line x1="350.268" y1="1629.130" x2="350.268" y2="1579.130"/>
      <line x1="351.268" y1="1629.130" x2="351.268" y2="1579.130"/>
      <line x1="352.268" y1="1629.130" x2="352.268" y2="1579.130"/>
      <line x1="353.268" y1="1629.130" x2="353.268" y2="1579.130"/>
      <line x1="354.268" y1="1629.130" x2="354.268" y2="1579.130"/>
      <line x1="355.268" y1="1629.130" x2="355.268" y2="1579.130"/>
      <line x1="356.268" y1="1629.130" x2="356.268" y2="1579.130"/>
      <line x1="357.268" y1="1629.130" x2="357.268" y2="1579.130"/>
      <line x1="358.268" y1="1629.130" x2="358.268" y2="1579.130"/>
      <line x1="359.268" y1="1629.130" x2="359.268" y2="1579.130"/>
      <line x1="360.268" y1="1629.130" x2="360.268" y2="1579.130"/>
      <line x1="361.268" y1="1629.130" x2="361.268" y2="1579.130"/>
      <line x1="362.268" y1="1629.130" x2="362.268" y2="1579.130"/>
      <line x1="363.268" y1="1629.130" x2="363.268" y2="1579.130"/>
      <line x1="364.268" y1="1629.130" x2="364.268" y2="1579.130"/>
      <line x1="365.268" y1="1629.130" x2="365.268" y2="1579.130"/>
      <line x1="366.268" y1="1629.130" x2="366.268" y2="1579.130"/>
      <line x1="367.268" y1="1629.130" x2="367.268" y2="1579.130"/>
      <line x1="368.268" y1="1629.130" x2="368.268" y2="1579.130"/>
      <line x1="369.268" y1="1629.130" x2="369.268" y2="1579.130"/>
      <line x1="370.268" y1="1629.130" x2="370.268" y2="1579.130"/>
      <line x1="371.268" y1="1629.130" x2="371.268" y2="1579.130"/>
      <line x1="372.268" y1="1629.130" x2="372.268" y2="1579.130"/>
      <line x1="373.268" y1="1629.130" x2="373.268" y2="1579.130"/>
      <line x1="374.268" y1="1629.130" x2="374.268" y2="1579.130"/>
      <line x1="375.268" y1="1629.130" x2="375.268" y2="1579.130"/>
      <line x1="376.268" y1="1629.130" x2="376.268" y2="1579.130"/>
      <line x1="377.268" y1="1629.130" x2="377.268" y2="1579.130"/>
      <line x1="378.268" y1="1629.130" x2="378.268" y2="1579.130"/>
      <line x1="379.268" y1="1629.130" x2="379.268" y2="1579.130"/>
      <line x1="380.268" y1="1629.130" x2="380.268" y2="1579.130"/>
      <line x1="381.268" y1="1629.130" x2="381.268" y2="1579.130"/>
      <line x1="382.268" y1="1629.130" x2="382.268" y2="1579.130"/>
      <line x1="383.268" y1="1629.130" x2="383.268" y2="1579.130"/>
      <line x1="384.268" y1="1629.130" x2="384.268" y2="1579.130"/>
      <line x1="385.268" y1="1629.130" x2="385.268" y2="1579.130"/>
      <line x1="386.268" y1="1629.130" x2="386.268" y2="1579.130"/>
      <line x1="387.268" y1="1629.130" x2="387.268" y2="1579.130"/>
      <line x1="388.268" y1="1629.130" x2="388.268" y2="1579.130"/>
      <line x1="389.268" y1="1629.130" x2="389.268" y2="1579.130"/>
      <line x1="390.268" y1="1629.130" x2="390.268" y2="1579.130"/>
      <line x1="391.268" y1="1629.130" x2="391.268" y2="1579.130"/>
      <line x1="392.268" y1="1629.130" x2="392.268" y2="1579.130"/>
      <line x1="393.268" y1="1629.130" x2="393.268" y2="1579.130"/>
      <line x1="394.268" y1="1629.130" x2="394.268" y2="1579.130"/>
      <line x1="395.268" y1="1629.130" x2="395.268" y2="1579.130"/>
      <line x1="396.268" y1="1629.130" x2="396.268" y2="1579.130"/>
      <line x1="397.268" y1="1629.130" x2="397.268" y2="1579.130"/>
      <line x1="398.268" y1="1629.130" x2="398.268" y2="1579.130"/>
      <line x1="399.268" y1="1629.130" x2="399.268" y2="1579.130"/>
      <line x1="400.268" y1="1629.130" x2="400.268" y2="1579.130"/>
      <line x1="401.268" y1="1629.130" x2="401.268" y2="1579.130"/>
      <line x1="402.268" y1="1629.130" x2="402.268" y2="1579.130"/>
      <line x1="403.268" y1="1629.130" x2="403.268" y2="1579.130"/>
      <line x1="404.268" y1="1629.130" x2="404.268" y2="1579.130"/>
      <line x1="405.268" y1="1629.130" x2="405.268" y2="1579.130"/>
      <line x1="406.268" y1="1629.130" x2="406.268" y2="1579.130"/>
      <line x1="407.268" y1="1629.130" x2="407.268" y2="1579.130"/>
      <line x1="408.268" y1="1629.130" x2="408.268" y2="1579.130"/>
      <line x1="409.268" y1="1629.130" x2="409.268" y2="1579.130"/>
      <line x1="410.268" y1="1629.130" x2="410.268" y2="1579.130"/>
      <line x1="411.268" y1="1629.130" x2="411.268" y2="1579.130"/>
      <line x1="412.268" y1="1629.130" x2="412.268" y2="1579.130"/>
      <line x1="413.268" y1="1629.130" x2="413.268" y2="1579.130"/>
      <line x1="414.268" y1="1629.130" x2="414.268" y2="1579.130"/>
      <line x1="415.268" y1="1629.130" x2="415.268" y2="1579.130"/>
      <line x1="416.268" y1="1629.130" x2="416.268" y2="1579.130"/>
      <line x1="417.268" y1="1629.130" x2="417.268" y2="1579.130"/>
      <line x1="418.268" y1="1629.130" x2="418.268" y2="1579.130"/>
      <line x1="419.268" y1="1629.130" x2="419.268" y2="1579.130"/>
      <line x1="420.268" y1="1629.130" x2="420.268" y2="1579.130"/>
      <line x1="421.268" y1="1629.130" x2="421.268" y2="1579.130"/>
      <line x1="422.268" y1="1629.130" x2="422.268" y2="1579.130"/>
      <line x1="423.268" y1="1629.130" x2="423.268" y2="1579.130"/>
      <line x1="424.268" y1="1629.130" x2="424.268" y2="1579.130"/>
      <line x1="425.268" y1="1629.130" x2="425.268" y2="1579.130"/>
      <line x1="426.268" y1="1629.130" x2="426.268" y2="1579.130"/>
      <line x1="427.268" y1="1629.130" x2="427.268" y2="1579.130"/>
      <line x1="428.268" y1="1629.130" x2="428.268" y2="1579.130"/>
      <line x1="429.268" y1="1629.130" x2="429.268" y2="1579.130"/>
      <line x1="430.268" y1="1629.130" x2="430.268" y2="1579.130"/>
      <line x1="431.268" y1="1629.130" x2="431.268" y2="1579.130"/>
      <line x1="432.268" y1="1629.130" x2="432.268" y2="1579.130"/>
      <line x1="168.268" y1="1579.030" x2="168.268" y2="1529.030"/>
      <line x1="169.268" y1="1579.030" x2="169.268" y2="1529.030"/>
      <line x1="170.268" y1="1579.030" x2="170.268" y2="1529.030"/>
      <line x1="171.268" y1="1579.030" x2="171.268" y2="1529.030"/>
      <line x1="172.268" y1="1579.030" x2="172.268" y2="1529.030"/>
      <line x1="173.268" y1="1579.030" x2="173.268" y2="1529.030"/>
      <line x1="174.268" y1="1579.030" x2="174.268" y2="1529.030"/>
      <line x1="175.268" y1="1579.030" x2="175.268" y2="1529.030"/>
      <line x1="176.268" y1="1579.030" x2="176.268" y2="1529.030"/>
      <line x1="177.268" y1="1579.030" x2="177.268" y2="1529.030"/>
      <line x1="178.268" y1="1579.030" x2="178.268" y2="1529.030"/>
      <line x1="179.268" y1="1579.030" x2="179.268" y2="1529.030"/>
      <line x1="180.268" y1="1579.030" x2="180.268" y2="1529.030"/>
      <line x1="181.268" y1="1579.030" x2="181.268" y2="1529.030"/>
      <line x1="182.268" y1="1579.030" x2="182.268" y2="1529.030"/>
      <line x1="183.268" y1="1579.030" x2="183.268" y2="1529.030"/>
      <line x1="184.268" y1="1579.030" x2="184.268" y2="1529.030"/>
      <line x1="185.268" y1="1579.030" x2="185.268" y2="1529.030"/>
      <line x1="186.268" y1="1579.030" x2="186.268" y2="1529.030"/>
      <line x1="187.268" y1="1579.030" x2="187.268" y2="1529.030"/>
      <line x1="188.268" y1="1579.030" x2="188.268" y2="1529.030"/>
      <line x1="189.268" y1="1579.030" x2="189.268" y2="1529.030"/>
      <line x1="190.268" y1="1579.030" x2="190.268" y2="1529.030"/>
      <line x1="191.268" y1="1579.030" x2="191.268" y2="1529.030"/>
      <line x1="192.268" y1="1579.030" x2="192.268" y2="1529.030"/>
      <line x1="193.268" y1="1579.030" x2="193.268" y2="1529.030"/>
      <line x1="194.268" y1="1579.030" x2="194.268" y2="1529.030"/>
      <line x1="195.268" y1="1579.030" x2="195.268" y2="1529.030"/>
      <line x1="196.268" y1="1579.030" x2="196.268" y2="1529.030"/>
      <line x1="197.268" y1="1579.030" x2="197.268" y2="1529.030"/>
      <line x1="198.268" y1="1579.030" x2="198.268" y2="1529.030"/>
      <line x1="199.268" y1="1579.030" x2="199.268" y2="1529.030"/>
      <line x1="200.268" y1="1579.030" x2="200.268" y2="1529.030"/>
      <line x1="201.268" y1="1579.030" x2="201.268" y2="1529.030"/>
      <line x1="202.268" y1="1579.030" x2="202.268" y2="1529.030"/>
      <line x1="203.268" y1="1579.030" x2="203.268" y2="1529.030"/>
      <line x1="204.268" y1="1579.030" x2="204.268" y2="1529.030"/>
      <line x1="205.268" y1="1579.030" x2="205.268" y2="1529.030"/>
      <line x1="206.268" y1="1579.030" x2="206.268" y2="1529.030"/>
      <line x1="207.268" y1="1579.030" x2="207.268" y2="1529.030"/>
      <line x1="208.268" y1="1579.030" x2="208.268" y2="1529.030"/>
      <line x1="209.268" y1="1579.030" x2="209.268" y2="1529.030"/>
      <line x1="210.268" y1="1579.030" x2="210.268" y2="1529.030"/>
      <line x1="211.268" y1="1579.030" x2="211.268" y2="1529.030"/>
      <line x1="212.268" y1="1579.030" x2="212.268" y2="1529.030"/>
      <line x1="213.268" y1="1579.030" x2="213.268" y2="1529.030"/>
      <line x1="214.268" y1="1579.030" x2="214.268" y2="1529.030"/>
      <line x1="215.268" y1="1579.030" x2="215.268" y2="1529.030"/>
      <line x1="216.268" y1="1579.030" x2="216.268" y2="1529.030"/>
      <line x1="217.268" y1="1579.030" x2="217.268" y2="1529.030"/>
      <line x1="218.268" y1="1579.030" x2="218.268" y2="1529.030"/>
      <line x1="219.268" y1="1579.030" x2="219.268" y2="1529.030"/>
      <line x1="220.268" y1="1579.030" x2="220.268" y2="1529.030"/>
      <line x1="221.268" y1="1579.030" x2="221.268" y2="1529.030"/>
      <line x1="222.268" y1="1579.030" x2="222.268" y2="1529.030"/>
      <line x1="223.268" y1="1579.030" x2="223.268" y2="1529.030"/>
      <line x1="224.268" y1="1579.030" x2="224.268" y2="1529.030"/>
      <line x1="225.268" y1="1579.030" x2="225.268" y2="1529.030"/>
      <line x1="226.268" y1="1579.030" x2="226.268" y2="1529.030"/>
      <line x1="227.268" y1="1579.030" x2="227.268" y2="1529.030"/>
      <line x1="228.268" y1="1579.030" x2="228.268" y2="1529.030"/>
      <line x1="229.268" y1="1579.030" x2="229.268" y2="1529.030"/>
      <line x1="230.268" y1="1579.030" x2="230.268" y2="1529.030"/>
      <line x1="231.268" y1="1579.030" x2="231.268" y2="1529.030"/>
      <line x1="232.268" y1="1579.030" x2="232.268" y2="1529.030"/>
      <line x1="233.268" y1="1579.030" x2="233.268" y2="1529.030"/>
      <line x1="234.268" y1="1579.030" x2="234.268" y2="1529.030"/>
      <line x1="235.268" y1="1579.030" x2="235.268" y2="1529.030"/>
      <line x1="236.268" y1="1579.030" x2="236.268" y2="1529.030"/>
      <line x1="237.268" y1="1579.030" x2="237.268" y2="1529.030"/>
      <line x1="238.268" y1="1579.030" x2="238.268" y2="1529.030"/>
      <line x1="239.268" y1="1579.030" x2="239.268" y2="1529.030"/>
      <line x1="240.268" y1="1579.030" x2="240.268" y2="1529.030"/>
      <line x1="241.268" y1="1579.030" x2="241.268" y2="1529.030"/>
      <line x1="242.268" y1="1579.030" x2="242.268" y2="1529.030"/>
      <line x1="243.268" y1="1579.030" x2="243.268" y2="1529.030"/>
      <line x1="244.268" y1="1579.030" x2="244.268" y2="1529.030"/>
      <line x1="245.268" y1="1579.030" x2="245.268" y2="1529.030"/>
      <line x1="246.268" y1="1579.030" x2="246.268" y2="1529.030"/>
      <line x1="247.268" y1="1579.030" x2="247.268" y2="1529.030"/>
      <line x1="248.268" y1="1579.030" x2="248.268" y2="1529.030"/>
      <line x1="249.268" y1="1579.030" x2="249.268" y2="1529.030"/>
      <line x1="250.268" y1="1579.030" x2="250.268" y2="1529.030"/>
      <line x1="251.268" y1="1579.030" x2="251.268" y2="1529.030"/>
      <line x1="252.268" y1="1579.030" x2="252.268" y2="1529.030"/>
      <line x1="253.268" y1="1579.030" x2="253.268" y2="1529.030"/>
      <line x1="254.268" y1="1579.030" x2="254.268" y2="1529.030"/>
      <line x1="255.268" y1="1579.030" x2="255.268" y2="1529.030"/>
      <line x1="256.268" y1="1579.030" x2="256.268" y2="1529.030"/>
      <line x1="257.268" y1="1579.030" x2="257.268" y2="1529.030"/>
      <line x1="258.268" y1="1579.030" x2="258.268" y2="1529.030"/>
      <line x1="259.268" y1="1579.030" x2="259.268" y2="1529.030"/>
      <line x1="260.268" y1="1579.030" x2="260.268" y2="1529.030"/>
      <line x1="261.268" y1="1579.030" x2="261.268" y2="1529.030"/>
      <line x1="262.268" y1="1579.030" x2="262.268" y2="1529.030"/>
      <line x1="263.268" y1="1579.030" x2="263.268" y2="1529.030"/>
      <line x1="264.268" y1="1579.030" x2="264.268" y2="1529.030"/>
      <line x1="265.268" y1="1579.030" x2="265.268" y2="1529.030"/>
      <line x1="266.268" y1="1579.030" x2="266.268" y2="1529.030"/>
      <line x1="267.268" y1="1579.030" x2="267.268" y2="1529.030"/>
      <line x1="268.268" y1="1579.030" x2="268.268" y2="1529.030"/>
      <line x1="269.268" y1="1579.030" x2="269.268" y2="1529.030"/>
      <line x1="270.268" y1="1579.030" x2="270.268" y2="1529.030"/>
      <line x1="271.268" y1="1579.030" x2="271.268" y2="1529.030"/>
      <line x1="272.268" y1="1579.030" x2="272.268" y2="1529.030"/>
      <line x1="273.268" y1="1579.030" x2="273.268" y2="1529.030"/>
      <line x1="274.268" y1="1579.030" x2="274.268" y2="1529.030"/>
      <line x1="275.268" y1="1579.030" x2="275.268" y2="1529.030"/>
      <line x1="276.268" y1="1579.030" x2="276.268" y2="1529.030"/>
      <line x1="277.268" y1="1579.030" x2="277.268" y2="1529.030"/>
      <line x1="278.268" y1="1579.030" x2="278.268" y2="1529.030"/>
      <line x1="279.268" y1="1579.030" x2="279.268" y2="1529.030"/>
      <line x1="280.268" y1="1579.030" x2="280.268" y2="1529.030"/>
      <line x1="281.268" y1="1579.030" x2="281.268" y2="1529.030"/>
      <line x1="282.268" y1="1579.030" x2="282.268" y2="1529.030"/>
      <line x1="283.268" y1="1579.030" x2="283.268" y2="1529.030"/>
      <line x1="284.268" y1="1579.030" x2="284.268" y2="1529.030"/>
      <line x1="285.268" y1="1579.030" x2="285.268" y2="1529.030"/>
      <line x1="286.268" y1="1579.030" x2="286.268" y2="1529.030"/>
      <line x1="287.268" y1="1579.030" x2="287.268" y2="1529.030"/>
      <line x1="288.268" y1="1579.030" x2="288.268" y2="1529.030"/>
      <line x1="289.268" y1="1579.030" x2="289.268" y2="1529.030"/>
      <line x1="290.268" y1="1579.030" x2="290.268" y2="1529.030"/>
      <line x1="291.268" y1="1579.030" x2="291.268" y2="1529.030"/>
      <line x1="292.268" y1="1579.030" x2="292.268" y2="1529.030"/>
      <line x1="293.268" y1="1579.030" x2="293.268" y2="1529.030"/>
      <line x1="294.268" y1="1579.030" x2="294.268" y2="1529.030"/>
      <line x1="295.268" y1="1579.030" x2="295.268" y2="1529.030"/>
      <line x1="296.268" y1="1579.030" x2="296.268" y2="1529.030"/>
      <line x1="297.268" y1="1579.030" x2="297.268" y2="1529.030"/>
      <line x1="298.268" y1="1579.030" x2="298.268" y2="1529.030"/>
      <line x1="299.268" y1="1579.030" x2="299.268" y2="1529.030"/>
      <line x1="300.268" y1="1579.030" x2="300.268" y2="1529.030"/>
      <line x1="301.268" y1="1579.030" x2="301.268" y2="1529.030"/>
      <line x1="302.268" y1="1579.030" x2="302.268" y2="1529.030"/>
      <line x1="303.268" y1="1579.030" x2="303.268" y2="1529.030"/>
      <line x1="304.268" y1="1579.030" x2="304.268" y2="1529.030"/>
      <line x1="305.268" y1="1579.030" x2="305.268" y2="1529.030"/>
      <line x1="306.268" y1="1579.030" x2="306.268" y2="1529.030"/>
      <line x1="307.268" y1="1579.030" x2="307.268" y2="1529.030"/>
      <line x1="308.268" y1="1579.030" x2="308.268" y2="1529.030"/>
      <line x1="309.268" y1="1579.030" x2="309.268" y2="1529.030"/>
      <line x1="310.268" y1="1579.030" x2="310.268" y2="1529.030"/>
      <line x1="311.268" y1="1579.030" x2="311.268" y2="1529.030"/>
      <line x1="312.268" y1="1579.030" x2="312.268" y2="1529.030"/>
      <line x1="313.268" y1="1579.030" x2="313.268" y2="1529.030"/>
      <line x1="314.268" y1="1579.030" x2="314.268" y2="1529.030"/>
      <line x1="315.268" y1="1579.030" x2="315.268" y2="1529.030"/>
      <line x1="316.268" y1="1579.030" x2="316.268" y2="1529.030"/>
      <line x1="317.268" y1="1579.030" x2="317.268" y2="1529.030"/>
      <line x1="318.268" y1="1579.030" x2="318.268" y2="1529.030"/>
      <line x1="319.268" y1="1579.030" x2="319.268" y2="1529.030"/>
      <line x1="320.268" y1="1579.030" x2="320.268" y2="1529.030"/>
      <line x1="321.268" y1="1579.030" x2="321.268" y2="1529.030"/>
      <line x1="322.268" y1="1579.030" x2="322.268" y2="1529.030"/>
      <line x1="323.268" y1="1579.030" x2="323.268" y2="1529.030"/>
      <line x1="324.268" y1="1579.030" x2="324.268" y2="1529.030"/>
      <line x1="325.268" y1="1579.030" x2="325.268" y2="1529.030"/>
      <line x1="326.268" y1="1579.030" x2="326.268" y2="1529.030"/>
      <line x1="327.268" y1="1579.030" x2="327.268" y2="1529.030"/>
      <line x1="328.268" y1="1579.030" x2="328.268" y2="1529.030"/>
      <line x1="329.268" y1="1579.030" x2="329.268" y2="1529.030"/>
      <line x1="330.268" y1="1579.030" x2="330.268" y2="1529.030"/>
      <line x1="331.268" y1="1579.030" x2="331.268" y2="1529.030"/>
      <line x1="332.268" y1="1579.030" x2="332.268" y2="1529.030"/>
      <line x1="333.268" y1="1579.030" x2="333.268" y2="1529.030"/>
      <line x1="334.268" y1="1579.030" x2="334.268" y2="1529.030"/>
      <line x1="335.268" y1="1579.030" x2="335.268" y2="1529.030"/>
      <line x1="336.268" y1="1579.030" x2="336.268" y2="1529.030"/>
      <line x1="337.268" y1="1579.030" x2="337.268" y2="1529.030"/>
      <line x1="338.268" y1="1579.030" x2="338.268" y2="1529.030"/>
      <line x1="339.268" y1="1579.030" x2="339.268" y2="1529.030"/>
      <line x1="340.268" y1="1579.030" x2="340.268" y2="1529.030"/>
      <line x1="341.268" y1="1579.030" x2="341.268" y2="1529.030"/>
      <line x1="342.268" y1="1579.030" x2="342.268" y2="1529.030"/>
      <line x1="343.268" y1="1579.030" x2="343.268" y2="1529.030"/>
      <line x1="344.268" y1="1579.030" x2="344.268" y2="1529.030"/>
      <line x1="345.268" y1="1579.030" x2="345.268" y2="1529.030"/>
      <line x1="346.268" y1="1579.030" x2="346.268" y2="1529.030"/>
      <line x1="347.268" y1="1579.030" x2="347.268" y2="1529.030"/>
      <line x1="348.268" y1="1579.030" x2="348.268" y2="1529.030"/>
      <line x1="349.268" y1="1579.030" x2="349.268" y2="1529.030"/>
      <line x1="350.268" y1="1579.030" x2="350.268" y2="1529.030"/>
      <line x1="351.268" y1="1579.030" x2="351.268" y2="1529.030"/>
      <line x1="352.268" y1="1579.030" x2="352.268" y2="1529.030"/>
      <line x1="353.268" y1="1579.030" x2="353.268" y2="1529.030"/>
      <line x1="354.268" y1="1579.030" x2="354.268" y2="1529.030"/>
      <line x1="355.268" y1="1579.030" x2="355.268" y2="1529.030"/>
      <line x1="356.268" y1="1579.030" x2="356.268" y2="1529.030"/>
      <line x1="357.268" y1="1579.030" x2="357.268" y2="1529.030"/>
      <line x1="358.268" y1="1579.030" x2="358.268" y2="1529.030"/>
      <line x1="359.268" y1="1579.030" x2="359.268" y2="1529.030"/>
      <line x1="360.268" y1="1579.030" x2="360.268" y2="1529.030"/>
      <line x1="361.268" y1="1579.030" x2="361.268" y2="1529.030"/>
      <line x1="362.268" y1="1579.030" x2="362.268" y2="1529.030"/>
      <line x1="363.268" y1="1579.030" x2="363.268" y2="1529.030"/>
      <line x1="364.268" y1="1579.030" x2="364.268" y2="1529.030"/>
      <line x1="365.268" y1="1579.030" x2="365.268" y2="1529.030"/>
      <line x1="366.268" y1="1579.030" x2="366.268" y2="1529.030"/>
      <line x1="367.268" y1="1579.030" x2="367.268" y2="1529.030"/>
      <line x1="368.268" y1="1579.030" x2="368.268" y2="1529.030"/>
      <line x1="369.268" y1="1579.030" x2="369.268" y2="1529.030"/>
      <line x1="370.268" y1="1579.030" x2="370.268" y2="1529.030"/>
      <line x1="371.268" y1="1579.030" x2="371.268" y2="1529.030"/>
      <line x1="372.268" y1="1579.030" x2="372.268" y2="1529.030"/>
      <line x1="373.268" y1="1579.030" x2="373.268" y2="1529.030"/>
      <line x1="374.268" y1="1579.030" x2="374.268" y2="1529.030"/>
      <line x1="375.268" y1="1579.030" x2="375.268" y2="1529.030"/>
      <line x1="376.268" y1="1579.030" x2="376.268" y2="1529.030"/>
      <line x1="377.268" y1="1579.030" x2="377.268" y2="1529.030"/>
      <line x1="378.268" y1="1579.030" x2="378.268" y2="1529.030"/>
      <line x1="379.268" y1="1579.030" x2="379.268" y2="1529.030"/>
      <line x1="380.268" y1="1579.030" x2="380.268" y2="1529.030"/>
      <line x1="381.268" y1="1579.030" x2="381.268" y2="1529.030"/>
      <line x1="382.268" y1="1579.030" x2="382.268" y2="1529.030"/>
      <line x1="383.268" y1="1579.030" x2="383.268" y2="1529.030"/>
      <line x1="384.268" y1="1579.030" x2="384.268" y2="1529.030"/>
      <line x1="385.268" y1="1579.030" x2="385.268" y2="1529.030"/>
      <line x1="386.268" y1="1579.030" x2="386.268" y2="1529.030"/>
      <line x1="387.268" y1="1579.030" x2="387.268" y2="1529.030"/>
      <line x1="388.268" y1="1579.030" x2="388.268" y2="1529.030"/>
      <line x1="389.268" y1="1579.030" x2="389.268" y2="1529.030"/>
      <line x1="390.268" y1="1579.030" x2="390.268" y2="1529.030"/>
      <line x1="391.268" y1="1579.030" x2="391.268" y2="1529.030"/>
      <line x1="392.268" y1="1579.030" x2="392.268" y2="1529.030"/>
      <line x1="393.268" y1="1579.030" x2="393.268" y2="1529.030"/>
      <line x1="394.268" y1="1579.030" x2="394.268" y2="1529.030"/>
      <line x1="395.268" y1="1579.030" x2="395.268" y2="1529.030"/>
      <line x1="396.268" y1="1579.030" x2="396.268" y2="1529.030"/>
      <line x1="397.268" y1="1579.030" x2="397.268" y2="1529.030"/>
      <line x1="398.268" y1="1579.030" x2="398.268" y2="1529.030"/>
      <line x1="399.268" y1="1579.030" x2="399.268" y2="1529.030"/>
      <line x1="400.268" y1="1579.030" x2="400.268" y2="1529.030"/>
      <line x1="401.268" y1="1579.030" x2="401.268" y2="1529.030"/>
      <line x1="402.268" y1="1579.030" x2="402.268" y2="1529.030"/>
      <line x1="403.268" y1="1579.030" x2="403.268" y2="1529.030"/>
      <line x1="404.268" y1="1579.030" x2="404.268" y2="1529.030"/>
      <line x1="405.268" y1="1579.030" x2="405.268" y2="1529.030"/>
      <line x1="406.268" y1="1579.030" x2="406.268" y2="1529.030"/>
      <line x1="407.268" y1="1579.030" x2="407.268" y2="1529.030"/>
      <line x1="408.268" y1="1579.030" x2="408.268" y2="1529.030"/>
      <line x1="409.268" y1="1579.030" x2="409.268" y2="1529.030"/>
      <line x1="410.268" y1="1579.030" x2="410.268" y2="1529.030"/>
      <line x1="411.268" y1="1579.030" x2="411.268" y2="1529.030"/>
      <line x1="412.268" y1="1579.030" x2="412.268" y2="1529.030"/>
      <line x1="413.268" y1="1579.030" x2="413.268" y2="1529.030"/>
      <line x1="414.268" y1="1579.030" x2="414.268" y2="1529.030"/>
      <line x1="415.268" y1="1579.030" x2="415.268" y2="1529.030"/>
      <line x1="416.268" y1="1579.030" x2="416.268" y2="1529.030"/>
      <line x1="417.268" y1="1579.030" x2="417.268" y2="1529.030"/>
      <line x1="418.268" y1="1579.030" x2="418.268" y2="1529.030"/>
      <line x1="419.268" y1="1579.030" x2="419.268" y2="1529.030"/>
      <line x1="420.268" y1="1579.030" x2="420.268" y2="1529.030"/>
      <line x1="421.268" y1="1579.030" x2="421.268" y2="1529.030"/>
      <line x1="422.268" y1="1579.030" x2="422.268" y2="1529.030"/>
      <line x1="423.268" y1="1579.030" x2="423.268" y2="1529.030"/>
      <line x1="424.268" y1="1579.030" x2="424.268" y2="1529.030"/>
      <line x1="425.268" y1="1579.030" x2="425.268" y2="1529.030"/>
      <line x1="426.268" y1="1579.030" x2="426.268" y2="1529.030"/>
      <line x1="427.268" y1="1579.030" x2="427.268" y2="1529.030"/>
      <line x1="428.268" y1="1579.030" x2="428.268" y2="1529.030"/>
      <line x1="429.268" y1="1579.030" x2="429.268" y2="1529.030"/>
      <line x1="430.268" y1="1579.030" x2="430.268" y2="1529.030"/>
      <line x1="431.268" y1="1579.030" x2="431.268" y2="1529.030"/>
      <line x1="432.268" y1="1579.030" x2="432.268" y2="1529.030"/>
      <line x1="209.268" y1="1528.930" x2="209.268" y2="1525.229"/>
      <line x1="182.268" y1="1528.930" x2="182.268" y2="1525.229"/>
      <line x1="208.268" y1="1528.930" x2="208.268" y2="1525.229"/>
      <line x1="207.268" y1="1528.930" x2="207.268" y2="1525.229"/>
      <line x1="206.268" y1="1528.930" x2="206.268" y2="1525.229"/>
      <line x1="205.268" y1="1528.930" x2="205.268" y2="1525.229"/>
      <line x1="204.268" y1="1528.930" x2="204.268" y2="1525.229"/>
      <line x1="203.268" y1="1528.930" x2="203.268" y2="1525.229"/>
      <line x1="202.268" y1="1528.930" x2="202.268" y2="1525.229"/>
      <line x1="201.268" y1="1528.930" x2="201.268" y2="1525.229"/>
      <line x1="200.268" y1="1528.930" x2="200.268" y2="1525.229"/>
      <line x1="199.268" y1="1528.930" x2="199.268" y2="1525.229"/>
      <line x1="198.268" y1="1528.930" x2="198.268" y2="1525.229"/>
      <line x1="197.268" y1="1528.930" x2="197.268" y2="1525.229"/>
      <line x1="196.268" y1="1528.930" x2="196.268" y2="1525.229"/>
      <line x1="195.268" y1="1528.930" x2="195.268" y2="1525.229"/>
      <line x1="194.268" y1="1528.930" x2="194.268" y2="1525.229"/>
      <line x1="193.268" y1="1528.930" x2="193.268" y2="1525.229"/>
      <line x1="192.268" y1="1528.930" x2="192.268" y2="1525.229"/>
      <line x1="191.268" y1="1528.930" x2="191.268" y2="1525.229"/>
      <line x1="190.268" y1="1528.930" x2="190.268" y2="1525.229"/>
      <line x1="189.268" y1="1528.930" x2="189.268" y2="1525.229"/>
      <line x1="188.268" y1="1528.930" x2="188.268" y2="1525.229"/>
      <line x1="187.268" y1="1528.930" x2="187.268" y2="1525.229"/>
      <line x1="186.268" y1="1528.930" x2="186.268" y2="1525.229"/>
      <line x1="185.268" y1="1528.930" x2="185.268" y2="1525.229"/>
      <line x1="184.268" y1="1528.930" x2="184.268" y2="1525.229"/>
      <line x1="183.268" y1="1528.930" x2="183.268" y2="1525.229"/>
      <line x1="210.268" y1="1528.930" x2="210.268" y2="1525.229"/>
      <line x1="217.268" y1="1528.930" x2="217.268" y2="1525.229"/>
      <line x1="216.268" y1="1528.930" x2="216.268" y2="1525.229"/>
      <line x1="215.268" y1="1528.930" x2="215.268" y2="1525.229"/>
      <line x1="214.268" y1="1528.930" x2="214.268" y2="1525.229"/>
      <line x1="213.268" y1="1528.930" x2="213.268" y2="1525.229"/>
      <line x1="212.268" y1="1528.930" x2="212.268" y2="1525.229"/>
      <line x1="211.268" y1="1528.930" x2="211.268" y2="1525.229"/>
      <line x1="181.268" y1="1528.930" x2="181.268" y2="1525.229"/>
      <line x1="180.268" y1="1528.930" x2="180.268" y2="1525.229"/>
      <line x1="179.268" y1="1528.930" x2="179.268" y2="1525.229"/>
      <line x1="178.268" y1="1528.930" x2="178.268" y2="1525.229"/>
      <line x1="177.268" y1="1528.930" x2="177.268" y2="1525.229"/>
      <line x1="176.268" y1="1528.930" x2="176.268" y2="1525.229"/>
      <line x1="175.268" y1="1528.930" x2="175.268" y2="1525.229"/>
      <line x1="174.268" y1="1528.930" x2="174.268" y2="1525.229"/>
      <line x1="173.268" y1="1528.930" x2="173.268" y2="1525.229"/>
      <line x1="172.268" y1="1528.930" x2="172.268" y2="1525.229"/>
      <line x1="171.268" y1="1528.930" x2="171.268" y2="1525.229"/>
      <line x1="170.268" y1="1528.930" x2="170.268" y2="1525.229"/>
      <line x1="169.268" y1="1528.930" x2="169.268" y2="1525.229"/>
      <line x1="168.268" y1="1528.930" x2="168.268" y2="1525.229"/>
      <line x1="224.268" y1="1528.930" x2="224.268" y2="1525.229"/>
      <line x1="237.268" y1="1528.930" x2="237.268" y2="1525.229"/>
      <line x1="236.268" y1="1528.930" x2="236.268" y2="1525.229"/>
      <line x1="235.268" y1="1528.930" x2="235.268" y2="1525.229"/>
      <line x1="234.268" y1="1528.930" x2="234.268" y2="1525.229"/>
      <line x1="233.268" y1="1528.930" x2="233.268" y2="1525.229"/>
      <line x1="232.268" y1="1528.930" x2="232.268" y2="1525.229"/>
      <line x1="231.268" y1="1528.930" x2="231.268" y2="1525.229"/>
      <line x1="230.268" y1="1528.930" x2="230.268" y2="1525.229"/>
      <line x1="229.268" y1="1528.930" x2="229.268" y2="1525.229"/>
      <line x1="228.268" y1="1528.930" x2="228.268" y2="1525.229"/>
      <line x1="227.268" y1="1528.930" x2="227.268" y2="1525.229"/>
      <line x1="226.268" y1="1528.930" x2="226.268" y2="1525.229"/>
      <line x1="225.268" y1="1528.930" x2="225.268" y2="1525.229"/>
      <line x1="223.268" y1="1528.930" x2="223.268" y2="1525.229"/>
      <line x1="222.268" y1="1528.930" x2="222.268" y2="1525.229"/>
      <line x1="221.268" y1="1528.930" x2="221.268" y2="1525.229"/>
      <line x1="220.268" y1="1528.930" x2="220.268" y2="1525.229"/>
      <line x1="219.268" y1="1528.930" x2="219.268" y2="1525.229"/>
      <line x1="218.268" y1="1528.930" x2="218.268" y2="1525.229"/>
      <line x1="239.268" y1="1528.930" x2="239.268" y2="1525.229"/>
      <line x1="240.268" y1="1528.930" x2="240.268" y2="1525.229"/>
      <line x1="241.268" y1="1528.930" x2="241.268" y2="1525.229"/>
      <line x1="242.268" y1="1528.930" x2="242.268" y2="1525.229"/>
      <line x1="243.268" y1="1528.930" x2="243.268" y2="1525.229"/>
      <line x1="244.268" y1="1528.930" x2="244.268" y2="1525.229"/>
      <line x1="245.268" y1="1528.930" x2="245.268" y2="1525.229"/>
      <line x1="246.268" y1="1528.930" x2="246.268" y2="1525.229"/>
      <line x1="247.268" y1="1528.930" x2="247.268" y2="1525.229"/>
      <line x1="238.268" y1="1528.930" x2="238.268" y2="1525.229"/>
      <line x1="261.268" y1="1528.930" x2="261.268" y2="1525.229"/>
      <line x1="267.268" y1="1528.930" x2="267.268" y2="1525.229"/>
      <line x1="266.268" y1="1528.930" x2="266.268" y2="1525.229"/>
      <line x1="265.268" y1="1528.930" x2="265.268" y2="1525.229"/>
      <line x1="264.268" y1="1528.930" x2="264.268" y2="1525.229"/>
      <line x1="263.268" y1="1528.930" x2="263.268" y2="1525.229"/>
      <line x1="262.268" y1="1528.930" x2="262.268" y2="1525.229"/>
      <line x1="260.268" y1="1528.930" x2="260.268" y2="1525.229"/>
      <line x1="259.268" y1="1528.930" x2="259.268" y2="1525.229"/>
      <line x1="258.268" y1="1528.930" x2="258.268" y2="1525.229"/>
      <line x1="257.268" y1="1528.930" x2="257.268" y2="1525.229"/>
      <line x1="256.268" y1="1528.930" x2="256.268" y2="1525.229"/>
      <line x1="255.268" y1="1528.930" x2="255.268" y2="1525.229"/>
      <line x1="254.268" y1="1528.930" x2="254.268" y2="1525.229"/>
      <line x1="253.268" y1="1528.930" x2="253.268" y2="1525.229"/>
      <line x1="252.268" y1="1528.930" x2="252.268" y2="1525.229"/>
      <line x1="251.268" y1="1528.930" x2="251.268" y2="1525.229"/>
      <line x1="250.268" y1="1528.930" x2="250.268" y2="1525.229"/>
      <line x1="249.268" y1="1528.930" x2="249.268" y2="1525.229"/>
      <line x1="248.268" y1="1528.930" x2="248.268" y2="1525.229"/>
      <line x1="301.268" y1="1528.930" x2="301.268" y2="1525.229"/>
      <line x1="317.268" y1="1528.930" x2="317.268" y2="1525.229"/>
      <line x1="316.268" y1="1528.930" x2="316.268" y2="1525.229"/>
      <line x1="315.268" y1="1528.930" x2="315.268" y2="1525.229"/>
      <line x1="314.268" y1="1528.930" x2="314.268" y2="1525.229"/>
      <line x1="313.268" y1="1528.930" x2="313.268" y2="1525.229"/>
      <line x1="312.268" y1="1528.930" x2="312.268" y2="1525.229"/>
      <line x1="311.268" y1="1528.930" x2="311.268" y2="1525.229"/>
      <line x1="310.268" y1="1528.930" x2="310.268" y2="1525.229"/>
      <line x1="309.268" y1="1528.930" x2="309.268" y2="1525.229"/>
      <line x1="308.268" y1="1528.930" x2="308.268" y2="1525.229"/>
      <line x1="307.268" y1="1528.930" x2="307.268" y2="1525.229"/>
      <line x1="306.268" y1="1528.930" x2="306.268" y2="1525.229"/>
      <line x1="305.268" y1="1528.930" x2="305.268" y2="1525.229"/>
      <line x1="304.268" y1="1528.930" x2="304.268" y2="1525.229"/>
      <line x1="303.268" y1="1528.930" x2="303.268" y2="1525.229"/>
      <line x1="302.268" y1="1528.930" x2="302.268" y2="1525.229"/>
      <line x1="300.268" y1="1528.930" x2="300.268" y2="1525.229"/>
      <line x1="273.268" y1="1528.930" x2="273.268" y2="1525.229"/>
      <line x1="272.268" y1="1528.930" x2="272.268" y2="1525.229"/>
      <line x1="271.268" y1="1528.930" x2="271.268" y2="1525.229"/>
      <line x1="270.268" y1="1528.930" x2="270.268" y2="1525.229"/>
      <line x1="269.268" y1="1528.930" x2="269.268" y2="1525.229"/>
      <line x1="268.268" y1="1528.930" x2="268.268" y2="1525.229"/>
      <line x1="274.268" y1="1528.930" x2="274.268" y2="1525.229"/>
      <line x1="287.268" y1="1528.930" x2="287.268" y2="1525.229"/>
      <line x1="299.268" y1="1528.930" x2="299.268" y2="1525.229"/>
      <line x1="298.268" y1="1528.930" x2="298.268" y2="1525.229"/>
      <line x1="297.268" y1="1528.930" x2="297.268" y2="1525.229"/>
      <line x1="296.268" y1="1528.930" x2="296.268" y2="1525.229"/>
      <line x1="295.268" y1="1528.930" x2="295.268" y2="1525.229"/>
      <line x1="294.268" y1="1528.930" x2="294.268" y2="1525.229"/>
      <line x1="293.268" y1="1528.930" x2="293.268" y2="1525.229"/>
      <line x1="292.268" y1="1528.930" x2="292.268" y2="1525.229"/>
      <line x1="291.268" y1="1528.930" x2="291.268" y2="1525.229"/>
      <line x1="290.268" y1="1528.930" x2="290.268" y2="1525.229"/>
      <line x1="289.268" y1="1528.930" x2="289.268" y2="1525.229"/>
      <line x1="288.268" y1="1528.930" x2="288.268" y2="1525.229"/>
      <line x1="286.268" y1="1528.930" x2="286.268" y2="1525.229"/>
      <line x1="285.268" y1="1528.930" x2="285.268" y2="1525.229"/>
      <line x1="284.268" y1="1528.930" x2="284.268" y2="1525.229"/>
      <line x1="283.268" y1="1528.930" x2="283.268" y2="1525.229"/>
      <line x1="282.268" y1="1528.930" x2="282.268" y2="1525.229"/>
      <line x1="281.268" y1="1528.930" x2="281.268" y2="1525.229"/>
      <line x1="280.268" y1="1528.930" x2="280.268" y2="1525.229"/>
      <line x1="279.268" y1="1528.930" x2="279.268" y2="1525.229"/>
      <line x1="278.268" y1="1528.930" x2="278.268" y2="1525.229"/>
      <line x1="277.268" y1="1528.930" x2="277.268" y2="1525.229"/>
      <line x1="276.268" y1="1528.930" x2="276.268" y2="1525.229"/>
      <line x1="275.268" y1="1528.930" x2="275.268" y2="1525.229"/>
      <line x1="363.268" y1="1528.930" x2="363.268" y2="1525.229"/>
      <line x1="367.268" y1="1528.930" x2="367.268" y2="1525.229"/>
      <line x1="366.268" y1="1528.930" x2="366.268" y2="1525.229"/>
      <line x1="365.268" y1="1528.930" x2="365.268" y2="1525.229"/>
      <line x1="364.268" y1="1528.930" x2="364.268" y2="1525.229"/>
      <line x1="362.268" y1="1528.930" x2="362.268" y2="1525.229"/>
      <line x1="352.268" y1="1528.930" x2="352.268" y2="1525.229"/>
      <line x1="353.268" y1="1528.930" x2="353.268" y2="1525.229"/>
      <line x1="354.268" y1="1528.930" x2="354.268" y2="1525.229"/>
      <line x1="355.268" y1="1528.930" x2="355.268" y2="1525.229"/>
      <line x1="356.268" y1="1528.930" x2="356.268" y2="1525.229"/>
      <line x1="358.268" y1="1528.930" x2="358.268" y2="1525.229"/>
      <line x1="361.268" y1="1528.930" x2="361.268" y2="1525.229"/>
      <line x1="359.268" y1="1528.930" x2="359.268" y2="1525.229"/>
      <line x1="357.268" y1="1528.930" x2="357.268" y2="1525.229"/>
      <line x1="360.268" y1="1528.930" x2="360.268" y2="1525.229"/>
      <line x1="325.268" y1="1528.930" x2="325.268" y2="1525.229"/>
      <line x1="324.268" y1="1528.930" x2="324.268" y2="1525.229"/>
      <line x1="323.268" y1="1528.930" x2="323.268" y2="1525.229"/>
      <line x1="322.268" y1="1528.930" x2="322.268" y2="1525.229"/>
      <line x1="321.268" y1="1528.930" x2="321.268" y2="1525.229"/>
      <line x1="320.268" y1="1528.930" x2="320.268" y2="1525.229"/>
      <line x1="319.268" y1="1528.930" x2="319.268" y2="1525.229"/>
      <line x1="318.268" y1="1528.930" x2="318.268" y2="1525.229"/>
      <line x1="339.268" y1="1528.930" x2="339.268" y2="1525.229"/>
      <line x1="351.268" y1="1528.930" x2="351.268" y2="1525.229"/>
      <line x1="350.268" y1="1528.930" x2="350.268" y2="1525.229"/>
      <line x1="349.268" y1="1528.930" x2="349.268" y2="1525.229"/>
      <line x1="348.268" y1="1528.930" x2="348.268" y2="1525.229"/>
      <line x1="347.268" y1="1528.930" x2="347.268" y2="1525.229"/>
      <line x1="346.268" y1="1528.930" x2="346.268" y2="1525.229"/>
      <line x1="345.268" y1="1528.930" x2="345.268" y2="1525.229"/>
      <line x1="344.268" y1="1528.930" x2="344.268" y2="1525.229"/>
      <line x1="343.268" y1="1528.930" x2="343.268" y2="1525.229"/>
      <line x1="342.268" y1="1528.930" x2="342.268" y2="1525.229"/>
      <line x1="341.268" y1="1528.930" x2="341.268" y2="1525.229"/>
      <line x1="340.268" y1="1528.930" x2="340.268" y2="1525.229"/>
      <line x1="326.268" y1="1528.930" x2="326.268" y2="1525.229"/>
      <line x1="338.268" y1="1528.930" x2="338.268" y2="1525.229"/>
      <line x1="337.268" y1="1528.930" x2="337.268" y2="1525.229"/>
      <line x1="336.268" y1="1528.930" x2="336.268" y2="1525.229"/>
      <line x1="335.268" y1="1528.930" x2="335.268" y2="1525.229"/>
      <line x1="334.268" y1="1528.930" x2="334.268" y2="1525.229"/>
      <line x1="333.268" y1="1528.930" x2="333.268" y2="1525.229"/>
      <line x1="332.268" y1="1528.930" x2="332.268" y2="1525.229"/>
      <line x1="331.268" y1="1528.930" x2="331.268" y2="1525.229"/>
      <line x1="330.268" y1="1528.930" x2="330.268" y2="1525.229"/>
      <line x1="329.268" y1="1528.930" x2="329.268" y2="1525.229"/>
      <line x1="328.268" y1="1528.930" x2="328.268" y2="1525.229"/>
      <line x1="327.268" y1="1528.930" x2="327.268" y2="1525.229"/>
      <line x1="376.268" y1="1528.930" x2="376.268" y2="1525.229"/>
      <line x1="390.268" y1="1528.930" x2="390.268" y2="1525.229"/>
      <line x1="389.268" y1="1528.930" x2="389.268" y2="1525.229"/>
      <line x1="388.268" y1="1528.930" x2="388.268" y2="1525.229"/>
      <line x1="387.268" y1="1528.930" x2="387.268" y2="1525.229"/>
      <line x1="386.268" y1="1528.930" x2="386.268" y2="1525.229"/>
      <line x1="385.268" y1="1528.930" x2="385.268" y2="1525.229"/>
      <line x1="384.268" y1="1528.930" x2="384.268" y2="1525.229"/>
      <line x1="383.268" y1="1528.930" x2="383.268" y2="1525.229"/>
      <line x1="382.268" y1="1528.930" x2="382.268" y2="1525.229"/>
      <line x1="381.268" y1="1528.930" x2="381.268" y2="1525.229"/>
      <line x1="380.268" y1="1528.930" x2="380.268" y2="1525.229"/>
      <line x1="379.268" y1="1528.930" x2="379.268" y2="1525.229"/>
      <line x1="378.268" y1="1528.930" x2="378.268" y2="1525.229"/>
      <line x1="377.268" y1="1528.930" x2="377.268" y2="1525.229"/>
      <line x1="375.268" y1="1528.930" x2="375.268" y2="1525.229"/>
      <line x1="374.268" y1="1528.930" x2="374.268" y2="1525.229"/>
      <line x1="373.268" y1="1528.930" x2="373.268" y2="1525.229"/>
      <line x1="372.268" y1="1528.930" x2="372.268" y2="1525.229"/>
      <line x1="371.268" y1="1528.930" x2="371.268" y2="1525.229"/>
      <line x1="370.268" y1="1528.930" x2="370.268" y2="1525.229"/>
      <line x1="369.268" y1="1528.930" x2="369.268" y2="1525.229"/>
      <line x1="368.268" y1="1528.930" x2="368.268" y2="1525.229"/>
      <line x1="392.268" y1="1528.930" x2="392.268" y2="1525.229"/>
      <line x1="417.268" y1="1528.930" x2="417.268" y2="1525.229"/>
      <line x1="416.268" y1="1528.930" x2="416.268" y2="1525.229"/>
      <line x1="415.268" y1="1528.930" x2="415.268" y2="1525.229"/>
      <line x1="414.268" y1="1528.930" x2="414.268" y2="1525.229"/>
      <line x1="413.268" y1="1528.930" x2="413.268" y2="1525.229"/>
      <line x1="412.268" y1="1528.930" x2="412.268" y2="1525.229"/>
      <line x1="411.268" y1="1528.930" x2="411.268" y2="1525.229"/>
      <line x1="410.268" y1="1528.930" x2="410.268" y2="1525.229"/>
      <line x1="409.268" y1="1528.930" x2="409.268" y2="1525.229"/>
      <line x1="408.268" y1="1528.930" x2="408.268" y2="1525.229"/>
      <line x1="407.268" y1="1528.930" x2="407.268" y2="1525.229"/>
      <line x1="406.268" y1="1528.930" x2="406.268" y2="1525.229"/>
      <line x1="404.268" y1="1528.930" x2="404.268" y2="1525.229"/>
      <line x1="391.268" y1="1528.930" x2="391.268" y2="1525.229"/>
      <line x1="393.268" y1="1528.930" x2="393.268" y2="1525.229"/>
      <line x1="394.268" y1="1528.930" x2="394.268" y2="1525.229"/>
      <line x1="395.268" y1="1528.930" x2="395.268" y2="1525.229"/>
      <line x1="396.268" y1="1528.930" x2="396.268" y2="1525.229"/>
      <line x1="397.268" y1="1528.930" x2="397.268" y2="1525.229"/>
      <line x1="399.268" y1="1528.930" x2="399.268" y2="1525.229"/>
      <line x1="405.268" y1="1528.930" x2="405.268" y2="1525.229"/>
      <line x1="403.268" y1="1528.930" x2="403.268" y2="1525.229"/>
      <line x1="402.268" y1="1528.930" x2="402.268" y2="1525.229"/>
      <line x1="400.268" y1="1528.930" x2="400.268" y2="1525.229"/>
      <line x1="398.268" y1="1528.930" x2="398.268" y2="1525.229"/>
      <line x1="401.268" y1="1528.930" x2="401.268" y2="1525.229"/>
      <line x1="418.268" y1="1528.930" x2="418.268" y2="1525.229"/>
      <line x1="420.268" y1="1528.930" x2="420.268" y2="1525.229"/>
      <line x1="419.268" y1="1528.930" x2="419.268" y2="1525.229"/>
      <line x1="421.268" y1="1528.930" x2="421.268" y2="1525.229"/>
      <line x1="422.268" y1="1528.930" x2="422.268" y2="1525.229"/>
      <line x1="423.268" y1="1528.930" x2="423.268" y2="1525.229"/>
      <line x1="424.268" y1="1528.930" x2="424.268" y2="1525.229"/>
      <line x1="425.268" y1="1528.930" x2="425.268" y2="1525.229"/>
      <line x1="426.268" y1="1528.930" x2="426.268" y2="1525.229"/>
      <line x1="427.268" y1="1528.930" x2="427.268" y2="1525.229"/>
      <line x1="428.268" y1="1528.930" x2="428.268" y2="1525.229"/>
      <line x1="429.268" y1="1528.930" x2="429.268" y2="1525.229"/>
      <line x1="430.268" y1="1528.930" x2="430.268" y2="1525.229"/>
      <line x1="432.268" y1="1528.930" x2="432.268" y2="1525.229"/>
      <line x1="431.268" y1="1528.930" x2="431.268" y2="1525.229"/>
    </g>
    <g stroke="#1976D2" stroke-width="0.4">
      <polyline points="436.078,1521.729 163.922,1521.729 163.922,1682.729 436.078,1682.729 436.078,1521.729" fill="none"/>
      <polyline points="435.078,1522.729 164.922,1522.729 164.922,1681.730 435.078,1681.730 435.078,1522.729" fill="none"/>
      <polyline points="434.078,1523.729 165.922,1523.729 165.922,1680.730 434.078,1680.730 434.078,1523.729" fill="none"/>
      <polyline points="433.078,1524.729 166.922,1524.729 166.922,1679.729 433.078,1679.729 433.078,1524.729" fill="none"/>
    </g>
    <g stroke="#C62828" stroke-width="0.4" fill="none">
    </g>
    <g stroke="#EF6C00" stroke-width="0.4" fill="none">
    </g>
  </g>
  <g stroke="#000000" stroke-width="0.4">
    <line x1="500.000" y1="1000.000" x2="1500.000" y2="1000.000"/>
  </g>
  <g stroke="#000000" stroke-width="0.4">
    <line x1="1000.000" y1="500.000" x2="1000.000" y2="1500.000"/>
  </g>
  <circle cx="1000.000" cy="1000.000" r="1000.000" stroke="red" stroke-width="1" fill="none"/>
  </g>
</svg>
