<?xml version="1.0" encoding="UTF-8"?>
<svg xmlns="http://www.w3.org/2000/svg" version="1.1" width="2000" height="2000">
  <g fill="none" stroke-linecap="round" stroke-linejoin="round">
  <text x="10" y="20" font-size="24" fill="#555">Layer 285 Z=69.000 mm</text>
  <g transform="translate(700.000,-602.229)">
    <g stroke="#2E7D32" stroke-width="0.4">
      <line x1="320.617" y1="1630.080" x2="279.383" y2="1630.080"/>
      <line x1="320.617" y1="1631.080" x2="279.383" y2="1631.080"/>
      <line x1="320.617" y1="1632.080" x2="279.383" y2="1632.080"/>
      <line x1="320.617" y1="1633.080" x2="279.383" y2="1633.080"/>
      <line x1="320.617" y1="1634.080" x2="279.383" y2="1634.080"/>
      <line x1="320.617" y1="1635.080" x2="279.383" y2="1635.080"/>
      <line x1="320.617" y1="1636.080" x2="279.383" y2="1636.080"/>
      <line x1="320.617" y1="1637.080" x2="279.383" y2="1637.080"/>
      <line x1="320.617" y1="1638.080" x2="279.383" y2="1638.080"/>
      <line x1="320.617" y1="1639.080" x2="279.383" y2="1639.080"/>
      <line x1="320.617" y1="1640.080" x2="279.383" y2="1640.080"/>
      <line x1="320.617" y1="1641.080" x2="279.383" y2="1641.080"/>
      <line x1="320.617" y1="1642.080" x2="279.383" y2="1642.080"/>
      <line x1="320.617" y1="1643.080" x2="279.383" y2="1643.080"/>
      <line x1="320.617" y1="1644.080" x2="279.383" y2="1644.080"/>
      <line x1="320.617" y1="1645.080" x2="279.383" y2="1645.080"/>
      <line x1="320.617" y1="1646.080" x2="279.383" y2="1646.080"/>
      <line x1="320.617" y1="1647.080" x2="279.383" y2="1647.080"/>
      <line x1="320.617" y1="1648.080" x2="279.383" y2="1648.080"/>
      <line x1="320.617" y1="1649.080" x2="279.383" y2="1649.080"/>
      <line x1="320.617" y1="1650.080" x2="279.383" y2="1650.080"/>
      <line x1="320.617" y1="1651.080" x2="279.383" y2="1651.080"/>
      <line x1="320.617" y1="1652.080" x2="279.383" y2="1652.080"/>
      <line x1="320.617" y1="1653.080" x2="279.383" y2="1653.080"/>
      <line x1="320.617" y1="1654.080" x2="279.383" y2="1654.080"/>
      <line x1="320.617" y1="1655.080" x2="279.383" y2="1655.080"/>
      <line x1="320.617" y1="1656.080" x2="279.383" y2="1656.080"/>
      <line x1="320.617" y1="1657.080" x2="279.383" y2="1657.080"/>
      <line x1="320.617" y1="1658.080" x2="279.383" y2="1658.080"/>
      <line x1="320.617" y1="1659.080" x2="279.383" y2="1659.080"/>
      <line x1="320.617" y1="1660.080" x2="279.383" y2="1660.080"/>
      <line x1="320.617" y1="1661.080" x2="279.383" y2="1661.080"/>
      <line x1="320.617" y1="1662.080" x2="279.383" y2="1662.080"/>
      <line x1="320.617" y1="1663.080" x2="279.383" y2="1663.080"/>
      <line x1="320.617" y1="1664.080" x2="279.383" y2="1664.080"/>
      <line x1="320.617" y1="1665.080" x2="279.383" y2="1665.080"/>
      <line x1="320.617" y1="1666.080" x2="279.383" y2="1666.080"/>
      <line x1="320.617" y1="1667.080" x2="279.383" y2="1667.080"/>
      <line x1="320.617" y1="1668.080" x2="279.383" y2="1668.080"/>
      <line x1="320.617" y1="1669.080" x2="279.383" y2="1669.080"/>
      <line x1="320.617" y1="1670.080" x2="279.383" y2="1670.080"/>
      <line x1="320.617" y1="1671.080" x2="279.383" y2="1671.080"/>
      <line x1="320.617" y1="1672.080" x2="279.383" y2="1672.080"/>
      <line x1="320.617" y1="1673.080" x2="279.383" y2="1673.080"/>
      <line x1="320.617" y1="1674.080" x2="279.383" y2="1674.080"/>
      <line x1="320.617" y1="1675.080" x2="279.383" y2="1675.080"/>
      <line x1="320.617" y1="1676.080" x2="279.383" y2="1676.080"/>
      <line x1="320.617" y1="1677.080" x2="279.383" y2="1677.080"/>
      <line x1="320.617" y1="1678.080" x2="279.383" y2="1678.080"/>
      <line x1="320.617" y1="1679.080" x2="279.383" y2="1679.080"/>
      <line x1="320.617" y1="1580.080" x2="279.383" y2="1580.080"/>
      <line x1="320.617" y1="1581.080" x2="279.383" y2="1581.080"/>
      <line x1="320.617" y1="1582.080" x2="279.383" y2="1582.080"/>
      <line x1="320.617" y1="1583.080" x2="279.383" y2="1583.080"/>
      <line x1="320.617" y1="1584.080" x2="279.383" y2="1584.080"/>
      <line x1="320.617" y1="1585.080" x2="279.383" y2="1585.080"/>
      <line x1="320.617" y1="1586.080" x2="279.383" y2="1586.080"/>
      <line x1="320.617" y1="1587.080" x2="279.383" y2="1587.080"/>
      <line x1="320.617" y1="1588.080" x2="279.383" y2="1588.080"/>
      <line x1="320.617" y1="1589.080" x2="279.383" y2="1589.080"/>
      <line x1="320.617" y1="1590.080" x2="279.383" y2="1590.080"/>
      <line x1="320.617" y1="1591.080" x2="279.383" y2="1591.080"/>
      <line x1="320.617" y1="1592.080" x2="279.383" y2="1592.080"/>
      <line x1="320.617" y1="1593.080" x2="279.383" y2="1593.080"/>
      <line x1="320.617" y1="1594.080" x2="279.383" y2="1594.080"/>
      <line x1="320.617" y1="1595.080" x2="279.383" y2="1595.080"/>
      <line x1="320.617" y1="1596.080" x2="279.383" y2="1596.080"/>
      <line x1="320.617" y1="1597.080" x2="279.383" y2="1597.080"/>
      <line x1="320.617" y1="1598.080" x2="279.383" y2="1598.080"/>
      <line x1="320.617" y1="1599.080" x2="279.383" y2="1599.080"/>
      <line x1="320.617" y1="1600.080" x2="279.383" y2="1600.080"/>
      <line x1="320.617" y1="1601.080" x2="279.383" y2="1601.080"/>
      <line x1="320.617" y1="1602.080" x2="279.383" y2="1602.080"/>
      <line x1="320.617" y1="1603.080" x2="279.383" y2="1603.080"/>
      <line x1="320.617" y1="1604.080" x2="279.383" y2="1604.080"/>
      <line x1="320.617" y1="1605.080" x2="279.383" y2="1605.080"/>
      <line x1="320.617" y1="1606.080" x2="279.383" y2="1606.080"/>
      <line x1="320.617" y1="1607.080" x2="279.383" y2="1607.080"/>
      <line x1="320.617" y1="1608.080" x2="279.383" y2="1608.080"/>
      <line x1="320.617" y1="1609.080" x2="279.383" y2="1609.080"/>
      <line x1="320.617" y1="1610.080" x2="279.383" y2="1610.080"/>
      <line x1="320.617" y1="1611.080" x2="279.383" y2="1611.080"/>
      <line x1="320.617" y1="1612.080" x2="279.383" y2="1612.080"/>
      <line x1="320.617" y1="1613.080" x2="279.383" y2="1613.080"/>
      <line x1="320.617" y1="1614.080" x2="279.383" y2="1614.080"/>
      <line x1="320.617" y1="1615.080" x2="279.383" y2="1615.080"/>
      <line x1="320.617" y1="1616.080" x2="279.383" y2="1616.080"/>
      <line x1="320.617" y1="1617.080" x2="279.383" y2="1617.080"/>
      <line x1="320.617" y1="1618.080" x2="279.383" y2="1618.080"/>
      <line x1="320.617" y1="1619.080" x2="279.383" y2="1619.080"/>
      <line x1="320.617" y1="1620.080" x2="279.383" y2="1620.080"/>
      <line x1="320.617" y1="1621.080" x2="279.383" y2="1621.080"/>
      <line x1="320.617" y1="1622.080" x2="279.383" y2="1622.080"/>
      <line x1="320.617" y1="1623.080" x2="279.383" y2="1623.080"/>
      <line x1="320.617" y1="1624.080" x2="279.383" y2="1624.080"/>
      <line x1="320.617" y1="1625.080" x2="279.383" y2="1625.080"/>
      <line x1="320.617" y1="1626.080" x2="279.383" y2="1626.080"/>
      <line x1="320.617" y1="1627.080" x2="279.383" y2="1627.080"/>
      <line x1="320.617" y1="1628.080" x2="279.383" y2="1628.080"/>
      <line x1="320.617" y1="1629.080" x2="279.383" y2="1629.080"/>
      <line x1="320.617" y1="1529.080" x2="279.383" y2="1529.080"/>
      <line x1="320.617" y1="1530.080" x2="279.383" y2="1530.080"/>
      <line x1="320.617" y1="1531.080" x2="279.383" y2="1531.080"/>
      <line x1="320.617" y1="1532.080" x2="279.383" y2="1532.080"/>
      <line x1="320.617" y1="1533.080" x2="279.383" y2="1533.080"/>
      <line x1="320.617" y1="1534.080" x2="279.383" y2="1534.080"/>
      <line x1="320.617" y1="1535.080" x2="279.383" y2="1535.080"/>
      <line x1="320.617" y1="1536.080" x2="279.383" y2="1536.080"/>
      <line x1="320.617" y1="1537.080" x2="279.383" y2="1537.080"/>
      <line x1="320.617" y1="1538.080" x2="279.383" y2="1538.080"/>
      <line x1="320.617" y1="1539.080" x2="279.383" y2="1539.080"/>
      <line x1="320.617" y1="1540.080" x2="279.383" y2="1540.080"/>
      <line x1="320.617" y1="1541.080" x2="279.383" y2="1541.080"/>
      <line x1="320.617" y1="1542.080" x2="279.383" y2="1542.080"/>
      <line x1="320.617" y1="1543.080" x2="279.383" y2="1543.080"/>
      <line x1="320.617" y1="1544.080" x2="279.383" y2="1544.080"/>
      <line x1="320.617" y1="1545.080" x2="279.383" y2="1545.080"/>
      <line x1="320.617" y1="1546.080" x2="279.383" y2="1546.080"/>
      <line x1="320.617" y1="1547.080" x2="279.383" y2="1547.080"/>
      <line x1="320.617" y1="1548.080" x2="279.383" y2="1548.080"/>
      <line x1="320.617" y1="1549.080" x2="279.383" y2="1549.080"/>
      <line x1="320.617" y1="1550.080" x2="279.383" y2="1550.080"/>
      <line x1="320.617" y1="1551.080" x2="279.383" y2="1551.080"/>
      <line x1="320.617" y1="1552.080" x2="279.383" y2="1552.080"/>
      <line x1="320.617" y1="1553.080" x2="279.383" y2="1553.080"/>
      <line x1="320.617" y1="1554.080" x2="279.383" y2="1554.080"/>
      <line x1="320.617" y1="1555.080" x2="279.383" y2="1555.080"/>
      <line x1="320.617" y1="1556.080" x2="279.383" y2="1556.080"/>
      <line x1="320.617" y1="1557.080" x2="279.383" y2="1557.080"/>
      <line x1="320.617" y1="1558.080" x2="279.383" y2="1558.080"/>
      <line x1="320.617" y1="1559.080" x2="279.383" y2="1559.080"/>
      <line x1="320.617" y1="1560.080" x2="279.383" y2="1560.080"/>
      <line x1="320.617" y1="1561.080" x2="279.383" y2="1561.080"/>
      <line x1="320.617" y1="1562.080" x2="279.383" y2="1562.080"/>
      <line x1="320.617" y1="1563.080" x2="279.383" y2="1563.080"/>
      <line x1="320.617" y1="1564.080" x2="279.383" y2="1564.080"/>
      <line x1="320.617" y1="1565.080" x2="279.383" y2="1565.080"/>
      <line x1="320.617" y1="1566.080" x2="279.383" y2="1566.080"/>
      <line x1="320.617" y1="1567.080" x2="279.383" y2="1567.080"/>
      <line x1="320.617" y1="1568.080" x2="279.383" y2="1568.080"/>
      <line x1="320.617" y1="1569.080" x2="279.383" y2="1569.080"/>
      <line x1="320.617" y1="1570.080" x2="279.383" y2="1570.080"/>
      <line x1="320.617" y1="1571.080" x2="279.383" y2="1571.080"/>
      <line x1="320.617" y1="1572.080" x2="279.383" y2="1572.080"/>
      <line x1="320.617" y1="1573.080" x2="279.383" y2="1573.080"/>
      <line x1="320.617" y1="1574.080" x2="279.383" y2="1574.080"/>
      <line x1="320.617" y1="1575.080" x2="279.383" y2="1575.080"/>
      <line x1="320.617" y1="1576.080" x2="279.383" y2="1576.080"/>
      <line x1="320.617" y1="1577.080" x2="279.383" y2="1577.080"/>
      <line x1="320.617" y1="1578.080" x2="279.383" y2="1578.080"/>
      <line x1="320.617" y1="1526.080" x2="279.383" y2="1526.080"/>
      <line x1="320.617" y1="1527.080" x2="279.383" y2="1527.080"/>
      <line x1="320.617" y1="1528.080" x2="279.383" y2="1528.080"/>
    </g>
    <g stroke="#1976D2" stroke-width="0.4">
      <polyline points="324.117,1521.729 275.883,1521.729 275.883,1682.729 324.117,1682.729 324.117,1521.729" fill="none"/>
      <polyline points="323.117,1522.729 276.883,1522.729 276.883,1681.730 323.117,1681.730 323.117,1522.729" fill="none"/>
      <polyline points="322.117,1523.729 277.883,1523.729 277.883,1680.730 322.117,1680.730 322.117,1523.729" fill="none"/>
      <polyline points="321.117,1524.729 278.883,1524.729 278.883,1679.729 321.117,1679.729 321.117,1524.729" fill="none"/>
    </g>
    <g stroke="#C62828" stroke-width="0.4" fill="none">
    </g>
    <g stroke="#EF6C00" stroke-width="0.4" fill="none">
    </g>
  </g>
  <g stroke="#000000" stroke-width="0.4">
    <line x1="500.000" y1="1000.000" x2="1500.000" y2="1000.000"/>
  </g>
  <g stroke="#000000" stroke-width="0.4">
    <line x1="1000.000" y1="500.000" x2="1000.000" y2="1500.000"/>
  </g>
  <circle cx="1000.000" cy="1000.000" r="1000.000" stroke="red" stroke-width="1" fill="none"/>
  </g>
</svg>
