<?xml version="1.0" encoding="UTF-8"?>
<svg xmlns="http://www.w3.org/2000/svg" version="1.1" width="2000" height="2000">
  <g fill="none" stroke-linecap="round" stroke-linejoin="round">
  <text x="10" y="20" font-size="24" fill="#555">Layer 277 Z=67.400 mm</text>
  <g transform="translate(700.000,-602.229)">
    <g stroke="#2E7D32" stroke-width="0.4">
      <line x1="269.670" y1="1629.326" x2="219.670" y2="1629.326"/>
      <line x1="269.670" y1="1630.326" x2="219.670" y2="1630.326"/>
      <line x1="269.670" y1="1631.326" x2="219.670" y2="1631.326"/>
      <line x1="269.670" y1="1632.326" x2="219.670" y2="1632.326"/>
      <line x1="269.670" y1="1633.326" x2="219.670" y2="1633.326"/>
      <line x1="269.670" y1="1634.326" x2="219.670" y2="1634.326"/>
      <line x1="269.670" y1="1635.326" x2="219.670" y2="1635.326"/>
      <line x1="269.670" y1="1636.326" x2="219.670" y2="1636.326"/>
      <line x1="269.670" y1="1637.326" x2="219.670" y2="1637.326"/>
      <line x1="269.670" y1="1638.326" x2="219.670" y2="1638.326"/>
      <line x1="269.670" y1="1639.326" x2="219.670" y2="1639.326"/>
      <line x1="269.670" y1="1640.326" x2="219.670" y2="1640.326"/>
      <line x1="269.670" y1="1641.326" x2="219.670" y2="1641.326"/>
      <line x1="269.670" y1="1642.326" x2="219.670" y2="1642.326"/>
      <line x1="269.670" y1="1643.326" x2="219.670" y2="1643.326"/>
      <line x1="269.670" y1="1644.326" x2="219.670" y2="1644.326"/>
      <line x1="269.670" y1="1645.326" x2="219.670" y2="1645.326"/>
      <line x1="269.670" y1="1646.326" x2="219.670" y2="1646.326"/>
      <line x1="269.670" y1="1647.326" x2="219.670" y2="1647.326"/>
      <line x1="269.670" y1="1648.326" x2="219.670" y2="1648.326"/>
      <line x1="269.670" y1="1649.326" x2="219.670" y2="1649.326"/>
      <line x1="269.670" y1="1650.326" x2="219.670" y2="1650.326"/>
      <line x1="269.670" y1="1651.326" x2="219.670" y2="1651.326"/>
      <line x1="269.670" y1="1652.326" x2="219.670" y2="1652.326"/>
      <line x1="269.670" y1="1653.326" x2="219.670" y2="1653.326"/>
      <line x1="269.670" y1="1654.326" x2="219.670" y2="1654.326"/>
      <line x1="269.670" y1="1655.326" x2="219.670" y2="1655.326"/>
      <line x1="269.670" y1="1656.326" x2="219.670" y2="1656.326"/>
      <line x1="269.670" y1="1657.326" x2="219.670" y2="1657.326"/>
      <line x1="269.670" y1="1658.326" x2="219.670" y2="1658.326"/>
      <line x1="269.670" y1="1659.326" x2="219.670" y2="1659.326"/>
      <line x1="269.670" y1="1660.326" x2="219.670" y2="1660.326"/>
      <line x1="269.670" y1="1661.326" x2="219.670" y2="1661.326"/>
      <line x1="269.670" y1="1662.326" x2="219.670" y2="1662.326"/>
      <line x1="269.670" y1="1663.326" x2="219.670" y2="1663.326"/>
      <line x1="269.670" y1="1664.326" x2="219.670" y2="1664.326"/>
      <line x1="269.670" y1="1665.326" x2="219.670" y2="1665.326"/>
      <line x1="269.670" y1="1666.326" x2="219.670" y2="1666.326"/>
      <line x1="269.670" y1="1667.326" x2="219.670" y2="1667.326"/>
      <line x1="269.670" y1="1668.326" x2="219.670" y2="1668.326"/>
      <line x1="269.670" y1="1669.326" x2="219.670" y2="1669.326"/>
      <line x1="269.670" y1="1670.326" x2="219.670" y2="1670.326"/>
      <line x1="269.670" y1="1671.326" x2="219.670" y2="1671.326"/>
      <line x1="269.670" y1="1672.326" x2="219.670" y2="1672.326"/>
      <line x1="269.670" y1="1673.326" x2="219.670" y2="1673.326"/>
      <line x1="269.670" y1="1674.326" x2="219.670" y2="1674.326"/>
      <line x1="269.670" y1="1675.326" x2="219.670" y2="1675.326"/>
      <line x1="269.670" y1="1676.326" x2="219.670" y2="1676.326"/>
      <line x1="269.670" y1="1677.326" x2="219.670" y2="1677.326"/>
      <line x1="269.670" y1="1678.326" x2="219.670" y2="1678.326"/>
      <line x1="319.770" y1="1629.326" x2="269.770" y2="1629.326"/>
      <line x1="319.770" y1="1630.326" x2="269.770" y2="1630.326"/>
      <line x1="319.770" y1="1631.326" x2="269.770" y2="1631.326"/>
      <line x1="319.770" y1="1632.326" x2="269.770" y2="1632.326"/>
      <line x1="319.770" y1="1633.326" x2="269.770" y2="1633.326"/>
      <line x1="319.770" y1="1634.326" x2="269.770" y2="1634.326"/>
      <line x1="319.770" y1="1635.326" x2="269.770" y2="1635.326"/>
      <line x1="319.770" y1="1636.326" x2="269.770" y2="1636.326"/>
      <line x1="319.770" y1="1637.326" x2="269.770" y2="1637.326"/>
      <line x1="319.770" y1="1638.326" x2="269.770" y2="1638.326"/>
      <line x1="319.770" y1="1639.326" x2="269.770" y2="1639.326"/>
      <line x1="319.770" y1="1640.326" x2="269.770" y2="1640.326"/>
      <line x1="319.770" y1="1641.326" x2="269.770" y2="1641.326"/>
      <line x1="319.770" y1="1642.326" x2="269.770" y2="1642.326"/>
      <line x1="319.770" y1="1643.326" x2="269.770" y2="1643.326"/>
      <line x1="319.770" y1="1644.326" x2="269.770" y2="1644.326"/>
      <line x1="319.770" y1="1645.326" x2="269.770" y2="1645.326"/>
      <line x1="319.770" y1="1646.326" x2="269.770" y2="1646.326"/>
      <line x1="319.770" y1="1647.326" x2="269.770" y2="1647.326"/>
      <line x1="319.770" y1="1648.326" x2="269.770" y2="1648.326"/>
      <line x1="319.770" y1="1649.326" x2="269.770" y2="1649.326"/>
      <line x1="319.770" y1="1650.326" x2="269.770" y2="1650.326"/>
      <line x1="319.770" y1="1651.326" x2="269.770" y2="1651.326"/>
      <line x1="319.770" y1="1652.326" x2="269.770" y2="1652.326"/>
      <line x1="319.770" y1="1653.326" x2="269.770" y2="1653.326"/>
      <line x1="319.770" y1="1654.326" x2="269.770" y2="1654.326"/>
      <line x1="319.770" y1="1655.326" x2="269.770" y2="1655.326"/>
      <line x1="319.770" y1="1656.326" x2="269.770" y2="1656.326"/>
      <line x1="319.770" y1="1657.326" x2="269.770" y2="1657.326"/>
      <line x1="319.770" y1="1658.326" x2="269.770" y2="1658.326"/>
      <line x1="319.770" y1="1659.326" x2="269.770" y2="1659.326"/>
      <line x1="319.770" y1="1660.326" x2="269.770" y2="1660.326"/>
      <line x1="319.770" y1="1661.326" x2="269.770" y2="1661.326"/>
      <line x1="319.770" y1="1662.326" x2="269.770" y2="1662.326"/>
      <line x1="319.770" y1="1663.326" x2="269.770" y2="1663.326"/>
      <line x1="319.770" y1="1664.326" x2="269.770" y2="1664.326"/>
      <line x1="319.770" y1="1665.326" x2="269.770" y2="1665.326"/>
      <line x1="319.770" y1="1666.326" x2="269.770" y2="1666.326"/>
      <line x1="319.770" y1="1667.326" x2="269.770" y2="1667.326"/>
      <line x1="319.770" y1="1668.326" x2="269.770" y2="1668.326"/>
      <line x1="319.770" y1="1669.326" x2="269.770" y2="1669.326"/>
      <line x1="319.770" y1="1670.326" x2="269.770" y2="1670.326"/>
      <line x1="319.770" y1="1671.326" x2="269.770" y2="1671.326"/>
      <line x1="319.770" y1="1672.326" x2="269.770" y2="1672.326"/>
      <line x1="319.770" y1="1673.326" x2="269.770" y2="1673.326"/>
      <line x1="319.770" y1="1674.326" x2="269.770" y2="1674.326"/>
      <line x1="319.770" y1="1675.326" x2="269.770" y2="1675.326"/>
      <line x1="319.770" y1="1676.326" x2="269.770" y2="1676.326"/>
      <line x1="319.770" y1="1677.326" x2="269.770" y2="1677.326"/>
      <line x1="319.770" y1="1678.326" x2="269.770" y2="1678.326"/>
      <line x1="369.870" y1="1629.326" x2="319.870" y2="1629.326"/>
      <line x1="369.870" y1="1630.326" x2="319.870" y2="1630.326"/>
      <line x1="369.870" y1="1631.326" x2="319.870" y2="1631.326"/>
      <line x1="369.870" y1="1632.326" x2="319.870" y2="1632.326"/>
      <line x1="369.870" y1="1633.326" x2="319.870" y2="1633.326"/>
      <line x1="369.870" y1="1634.326" x2="319.870" y2="1634.326"/>
      <line x1="369.870" y1="1635.326" x2="319.870" y2="1635.326"/>
      <line x1="369.870" y1="1636.326" x2="319.870" y2="1636.326"/>
      <line x1="369.870" y1="1637.326" x2="319.870" y2="1637.326"/>
      <line x1="369.870" y1="1638.326" x2="319.870" y2="1638.326"/>
      <line x1="369.870" y1="1639.326" x2="319.870" y2="1639.326"/>
      <line x1="369.870" y1="1640.326" x2="319.870" y2="1640.326"/>
      <line x1="369.870" y1="1641.326" x2="319.870" y2="1641.326"/>
      <line x1="369.870" y1="1642.326" x2="319.870" y2="1642.326"/>
      <line x1="369.870" y1="1643.326" x2="319.870" y2="1643.326"/>
      <line x1="369.870" y1="1644.326" x2="319.870" y2="1644.326"/>
      <line x1="369.870" y1="1645.326" x2="319.870" y2="1645.326"/>
      <line x1="369.870" y1="1646.326" x2="319.870" y2="1646.326"/>
      <line x1="369.870" y1="1647.326" x2="319.870" y2="1647.326"/>
      <line x1="369.870" y1="1648.326" x2="319.870" y2="1648.326"/>
      <line x1="369.870" y1="1649.326" x2="319.870" y2="1649.326"/>
      <line x1="369.870" y1="1650.326" x2="319.870" y2="1650.326"/>
      <line x1="369.870" y1="1651.326" x2="319.870" y2="1651.326"/>
      <line x1="369.870" y1="1652.326" x2="319.870" y2="1652.326"/>
      <line x1="369.870" y1="1653.326" x2="319.870" y2="1653.326"/>
      <line x1="369.870" y1="1654.326" x2="319.870" y2="1654.326"/>
      <line x1="369.870" y1="1655.326" x2="319.870" y2="1655.326"/>
      <line x1="369.870" y1="1656.326" x2="319.870" y2="1656.326"/>
      <line x1="369.870" y1="1657.326" x2="319.870" y2="1657.326"/>
      <line x1="369.870" y1="1658.326" x2="319.870" y2="1658.326"/>
      <line x1="369.870" y1="1659.326" x2="319.870" y2="1659.326"/>
      <line x1="369.870" y1="1660.326" x2="319.870" y2="1660.326"/>
      <line x1="369.870" y1="1661.326" x2="319.870" y2="1661.326"/>
      <line x1="369.870" y1="1662.326" x2="319.870" y2="1662.326"/>
      <line x1="369.870" y1="1663.326" x2="319.870" y2="1663.326"/>
      <line x1="369.870" y1="1664.326" x2="319.870" y2="1664.326"/>
      <line x1="369.870" y1="1665.326" x2="319.870" y2="1665.326"/>
      <line x1="369.870" y1="1666.326" x2="319.870" y2="1666.326"/>
      <line x1="369.870" y1="1667.326" x2="319.870" y2="1667.326"/>
      <line x1="369.870" y1="1668.326" x2="319.870" y2="1668.326"/>
      <line x1="369.870" y1="1669.326" x2="319.870" y2="1669.326"/>
      <line x1="369.870" y1="1670.326" x2="319.870" y2="1670.326"/>
      <line x1="369.870" y1="1671.326" x2="319.870" y2="1671.326"/>
      <line x1="369.870" y1="1672.326" x2="319.870" y2="1672.326"/>
      <line x1="369.870" y1="1673.326" x2="319.870" y2="1673.326"/>
      <line x1="369.870" y1="1674.326" x2="319.870" y2="1674.326"/>
      <line x1="369.870" y1="1675.326" x2="319.870" y2="1675.326"/>
      <line x1="369.870" y1="1676.326" x2="319.870" y2="1676.326"/>
      <line x1="369.870" y1="1677.326" x2="319.870" y2="1677.326"/>
      <line x1="369.870" y1="1678.326" x2="319.870" y2="1678.326"/>
      <line x1="380.330" y1="1629.326" x2="369.970" y2="1629.326"/>
      <line x1="380.330" y1="1630.326" x2="369.970" y2="1630.326"/>
      <line x1="380.330" y1="1631.326" x2="369.970" y2="1631.326"/>
      <line x1="380.330" y1="1632.326" x2="369.970" y2="1632.326"/>
      <line x1="380.330" y1="1633.326" x2="369.970" y2="1633.326"/>
      <line x1="380.330" y1="1634.326" x2="369.970" y2="1634.326"/>
      <line x1="380.330" y1="1635.326" x2="369.970" y2="1635.326"/>
      <line x1="380.330" y1="1636.326" x2="369.970" y2="1636.326"/>
      <line x1="380.330" y1="1637.326" x2="369.970" y2="1637.326"/>
      <line x1="380.330" y1="1638.326" x2="369.970" y2="1638.326"/>
      <line x1="380.330" y1="1639.326" x2="369.970" y2="1639.326"/>
      <line x1="380.330" y1="1640.326" x2="369.970" y2="1640.326"/>
      <line x1="380.330" y1="1641.326" x2="369.970" y2="1641.326"/>
      <line x1="380.330" y1="1642.326" x2="369.970" y2="1642.326"/>
      <line x1="380.330" y1="1643.326" x2="369.970" y2="1643.326"/>
      <line x1="380.330" y1="1644.326" x2="369.970" y2="1644.326"/>
      <line x1="380.330" y1="1645.326" x2="369.970" y2="1645.326"/>
      <line x1="380.330" y1="1646.326" x2="369.970" y2="1646.326"/>
      <line x1="380.330" y1="1647.326" x2="369.970" y2="1647.326"/>
      <line x1="380.330" y1="1648.326" x2="369.970" y2="1648.326"/>
      <line x1="380.330" y1="1649.326" x2="369.970" y2="1649.326"/>
      <line x1="380.330" y1="1650.326" x2="369.970" y2="1650.326"/>
      <line x1="380.330" y1="1651.326" x2="369.970" y2="1651.326"/>
      <line x1="380.330" y1="1652.326" x2="369.970" y2="1652.326"/>
      <line x1="380.330" y1="1653.326" x2="369.970" y2="1653.326"/>
      <line x1="380.330" y1="1654.326" x2="369.970" y2="1654.326"/>
      <line x1="380.330" y1="1655.326" x2="369.970" y2="1655.326"/>
      <line x1="380.330" y1="1656.326" x2="369.970" y2="1656.326"/>
      <line x1="380.330" y1="1657.326" x2="369.970" y2="1657.326"/>
      <line x1="380.330" y1="1658.326" x2="369.970" y2="1658.326"/>
      <line x1="380.330" y1="1659.326" x2="369.970" y2="1659.326"/>
      <line x1="380.330" y1="1660.326" x2="369.970" y2="1660.326"/>
      <line x1="380.330" y1="1661.326" x2="369.970" y2="1661.326"/>
      <line x1="380.330" y1="1662.326" x2="369.970" y2="1662.326"/>
      <line x1="380.330" y1="1663.326" x2="369.970" y2="1663.326"/>
      <line x1="380.330" y1="1664.326" x2="369.970" y2="1664.326"/>
      <line x1="380.330" y1="1665.326" x2="369.970" y2="1665.326"/>
      <line x1="380.330" y1="1666.326" x2="369.970" y2="1666.326"/>
      <line x1="380.330" y1="1667.326" x2="369.970" y2="1667.326"/>
      <line x1="380.330" y1="1668.326" x2="369.970" y2="1668.326"/>
      <line x1="380.330" y1="1669.326" x2="369.970" y2="1669.326"/>
      <line x1="380.330" y1="1670.326" x2="369.970" y2="1670.326"/>
      <line x1="380.330" y1="1671.326" x2="369.970" y2="1671.326"/>
      <line x1="380.330" y1="1672.326" x2="369.970" y2="1672.326"/>
      <line x1="380.330" y1="1673.326" x2="369.970" y2="1673.326"/>
      <line x1="380.330" y1="1674.326" x2="369.970" y2="1674.326"/>
      <line x1="380.330" y1="1675.326" x2="369.970" y2="1675.326"/>
      <line x1="380.330" y1="1676.326" x2="369.970" y2="1676.326"/>
      <line x1="380.330" y1="1677.326" x2="369.970" y2="1677.326"/>
      <line x1="380.330" y1="1678.326" x2="369.970" y2="1678.326"/>
      <line x1="269.670" y1="1579.326" x2="219.670" y2="1579.326"/>
      <line x1="269.670" y1="1580.326" x2="219.670" y2="1580.326"/>
      <line x1="269.670" y1="1581.326" x2="219.670" y2="1581.326"/>
      <line x1="269.670" y1="1582.326" x2="219.670" y2="1582.326"/>
      <line x1="269.670" y1="1583.326" x2="219.670" y2="1583.326"/>
      <line x1="269.670" y1="1584.326" x2="219.670" y2="1584.326"/>
      <line x1="269.670" y1="1585.326" x2="219.670" y2="1585.326"/>
      <line x1="269.670" y1="1586.326" x2="219.670" y2="1586.326"/>
      <line x1="269.670" y1="1587.326" x2="219.670" y2="1587.326"/>
      <line x1="269.670" y1="1588.326" x2="219.670" y2="1588.326"/>
      <line x1="269.670" y1="1589.326" x2="219.670" y2="1589.326"/>
      <line x1="269.670" y1="1590.326" x2="219.670" y2="1590.326"/>
      <line x1="269.670" y1="1591.326" x2="219.670" y2="1591.326"/>
      <line x1="269.670" y1="1592.326" x2="219.670" y2="1592.326"/>
      <line x1="269.670" y1="1593.326" x2="219.670" y2="1593.326"/>
      <line x1="269.670" y1="1594.326" x2="219.670" y2="1594.326"/>
      <line x1="269.670" y1="1595.326" x2="219.670" y2="1595.326"/>
      <line x1="269.670" y1="1596.326" x2="219.670" y2="1596.326"/>
      <line x1="269.670" y1="1597.326" x2="219.670" y2="1597.326"/>
      <line x1="269.670" y1="1598.326" x2="219.670" y2="1598.326"/>
      <line x1="269.670" y1="1599.326" x2="219.670" y2="1599.326"/>
      <line x1="269.670" y1="1600.326" x2="219.670" y2="1600.326"/>
      <line x1="269.670" y1="1601.326" x2="219.670" y2="1601.326"/>
      <line x1="269.670" y1="1602.326" x2="219.670" y2="1602.326"/>
      <line x1="269.670" y1="1603.326" x2="219.670" y2="1603.326"/>
      <line x1="269.670" y1="1604.326" x2="219.670" y2="1604.326"/>
      <line x1="269.670" y1="1605.326" x2="219.670" y2="1605.326"/>
      <line x1="269.670" y1="1606.326" x2="219.670" y2="1606.326"/>
      <line x1="269.670" y1="1607.326" x2="219.670" y2="1607.326"/>
      <line x1="269.670" y1="1608.326" x2="219.670" y2="1608.326"/>
      <line x1="269.670" y1="1609.326" x2="219.670" y2="1609.326"/>
      <line x1="269.670" y1="1610.326" x2="219.670" y2="1610.326"/>
      <line x1="269.670" y1="1611.326" x2="219.670" y2="1611.326"/>
      <line x1="269.670" y1="1612.326" x2="219.670" y2="1612.326"/>
      <line x1="269.670" y1="1613.326" x2="219.670" y2="1613.326"/>
      <line x1="269.670" y1="1614.326" x2="219.670" y2="1614.326"/>
      <line x1="269.670" y1="1615.326" x2="219.670" y2="1615.326"/>
      <line x1="269.670" y1="1616.326" x2="219.670" y2="1616.326"/>
      <line x1="269.670" y1="1617.326" x2="219.670" y2="1617.326"/>
      <line x1="269.670" y1="1618.326" x2="219.670" y2="1618.326"/>
      <line x1="269.670" y1="1619.326" x2="219.670" y2="1619.326"/>
      <line x1="269.670" y1="1620.326" x2="219.670" y2="1620.326"/>
      <line x1="269.670" y1="1621.326" x2="219.670" y2="1621.326"/>
      <line x1="269.670" y1="1622.326" x2="219.670" y2="1622.326"/>
      <line x1="269.670" y1="1623.326" x2="219.670" y2="1623.326"/>
      <line x1="269.670" y1="1624.326" x2="219.670" y2="1624.326"/>
      <line x1="269.670" y1="1625.326" x2="219.670" y2="1625.326"/>
      <line x1="269.670" y1="1626.326" x2="219.670" y2="1626.326"/>
      <line x1="269.670" y1="1627.326" x2="219.670" y2="1627.326"/>
      <line x1="269.670" y1="1628.326" x2="219.670" y2="1628.326"/>
      <line x1="319.770" y1="1579.326" x2="269.770" y2="1579.326"/>
      <line x1="319.770" y1="1580.326" x2="269.770" y2="1580.326"/>
      <line x1="319.770" y1="1581.326" x2="269.770" y2="1581.326"/>
      <line x1="319.770" y1="1582.326" x2="269.770" y2="1582.326"/>
      <line x1="319.770" y1="1583.326" x2="269.770" y2="1583.326"/>
      <line x1="319.770" y1="1584.326" x2="269.770" y2="1584.326"/>
      <line x1="319.770" y1="1585.326" x2="269.770" y2="1585.326"/>
      <line x1="319.770" y1="1586.326" x2="269.770" y2="1586.326"/>
      <line x1="319.770" y1="1587.326" x2="269.770" y2="1587.326"/>
      <line x1="319.770" y1="1588.326" x2="269.770" y2="1588.326"/>
      <line x1="319.770" y1="1589.326" x2="269.770" y2="1589.326"/>
      <line x1="319.770" y1="1590.326" x2="269.770" y2="1590.326"/>
      <line x1="319.770" y1="1591.326" x2="269.770" y2="1591.326"/>
      <line x1="319.770" y1="1592.326" x2="269.770" y2="1592.326"/>
      <line x1="319.770" y1="1593.326" x2="269.770" y2="1593.326"/>
      <line x1="319.770" y1="1594.326" x2="269.770" y2="1594.326"/>
      <line x1="319.770" y1="1595.326" x2="269.770" y2="1595.326"/>
      <line x1="319.770" y1="1596.326" x2="269.770" y2="1596.326"/>
      <line x1="319.770" y1="1597.326" x2="269.770" y2="1597.326"/>
      <line x1="319.770" y1="1598.326" x2="269.770" y2="1598.326"/>
      <line x1="319.770" y1="1599.326" x2="269.770" y2="1599.326"/>
      <line x1="319.770" y1="1600.326" x2="269.770" y2="1600.326"/>
      <line x1="319.770" y1="1601.326" x2="269.770" y2="1601.326"/>
      <line x1="319.770" y1="1602.326" x2="269.770" y2="1602.326"/>
      <line x1="319.770" y1="1603.326" x2="269.770" y2="1603.326"/>
      <line x1="319.770" y1="1604.326" x2="269.770" y2="1604.326"/>
      <line x1="319.770" y1="1605.326" x2="269.770" y2="1605.326"/>
      <line x1="319.770" y1="1606.326" x2="269.770" y2="1606.326"/>
      <line x1="319.770" y1="1607.326" x2="269.770" y2="1607.326"/>
      <line x1="319.770" y1="1608.326" x2="269.770" y2="1608.326"/>
      <line x1="319.770" y1="1609.326" x2="269.770" y2="1609.326"/>
      <line x1="319.770" y1="1610.326" x2="269.770" y2="1610.326"/>
      <line x1="319.770" y1="1611.326" x2="269.770" y2="1611.326"/>
      <line x1="319.770" y1="1612.326" x2="269.770" y2="1612.326"/>
      <line x1="319.770" y1="1613.326" x2="269.770" y2="1613.326"/>
      <line x1="319.770" y1="1614.326" x2="269.770" y2="1614.326"/>
      <line x1="319.770" y1="1615.326" x2="269.770" y2="1615.326"/>
      <line x1="319.770" y1="1616.326" x2="269.770" y2="1616.326"/>
      <line x1="319.770" y1="1617.326" x2="269.770" y2="1617.326"/>
      <line x1="319.770" y1="1618.326" x2="269.770" y2="1618.326"/>
      <line x1="319.770" y1="1619.326" x2="269.770" y2="1619.326"/>
      <line x1="319.770" y1="1620.326" x2="269.770" y2="1620.326"/>
      <line x1="319.770" y1="1621.326" x2="269.770" y2="1621.326"/>
      <line x1="319.770" y1="1622.326" x2="269.770" y2="1622.326"/>
      <line x1="319.770" y1="1623.326" x2="269.770" y2="1623.326"/>
      <line x1="319.770" y1="1624.326" x2="269.770" y2="1624.326"/>
      <line x1="319.770" y1="1625.326" x2="269.770" y2="1625.326"/>
      <line x1="319.770" y1="1626.326" x2="269.770" y2="1626.326"/>
      <line x1="319.770" y1="1627.326" x2="269.770" y2="1627.326"/>
      <line x1="319.770" y1="1628.326" x2="269.770" y2="1628.326"/>
      <line x1="369.870" y1="1579.326" x2="319.870" y2="1579.326"/>
      <line x1="369.870" y1="1580.326" x2="319.870" y2="1580.326"/>
      <line x1="369.870" y1="1581.326" x2="319.870" y2="1581.326"/>
      <line x1="369.870" y1="1582.326" x2="319.870" y2="1582.326"/>
      <line x1="369.870" y1="1583.326" x2="319.870" y2="1583.326"/>
      <line x1="369.870" y1="1584.326" x2="319.870" y2="1584.326"/>
      <line x1="369.870" y1="1585.326" x2="319.870" y2="1585.326"/>
      <line x1="369.870" y1="1586.326" x2="319.870" y2="1586.326"/>
      <line x1="369.870" y1="1587.326" x2="319.870" y2="1587.326"/>
      <line x1="369.870" y1="1588.326" x2="319.870" y2="1588.326"/>
      <line x1="369.870" y1="1589.326" x2="319.870" y2="1589.326"/>
      <line x1="369.870" y1="1590.326" x2="319.870" y2="1590.326"/>
      <line x1="369.870" y1="1591.326" x2="319.870" y2="1591.326"/>
      <line x1="369.870" y1="1592.326" x2="319.870" y2="1592.326"/>
      <line x1="369.870" y1="1593.326" x2="319.870" y2="1593.326"/>
      <line x1="369.870" y1="1594.326" x2="319.870" y2="1594.326"/>
      <line x1="369.870" y1="1595.326" x2="319.870" y2="1595.326"/>
      <line x1="369.870" y1="1596.326" x2="319.870" y2="1596.326"/>
      <line x1="369.870" y1="1597.326" x2="319.870" y2="1597.326"/>
      <line x1="369.870" y1="1598.326" x2="319.870" y2="1598.326"/>
      <line x1="369.870" y1="1599.326" x2="319.870" y2="1599.326"/>
      <line x1="369.870" y1="1600.326" x2="319.870" y2="1600.326"/>
      <line x1="369.870" y1="1601.326" x2="319.870" y2="1601.326"/>
      <line x1="369.870" y1="1602.326" x2="319.870" y2="1602.326"/>
      <line x1="369.870" y1="1603.326" x2="319.870" y2="1603.326"/>
      <line x1="369.870" y1="1604.326" x2="319.870" y2="1604.326"/>
      <line x1="369.870" y1="1605.326" x2="319.870" y2="1605.326"/>
      <line x1="369.870" y1="1606.326" x2="319.870" y2="1606.326"/>
      <line x1="369.870" y1="1607.326" x2="319.870" y2="1607.326"/>
      <line x1="369.870" y1="1608.326" x2="319.870" y2="1608.326"/>
      <line x1="369.870" y1="1609.326" x2="319.870" y2="1609.326"/>
      <line x1="369.870" y1="1610.326" x2="319.870" y2="1610.326"/>
      <line x1="369.870" y1="1611.326" x2="319.870" y2="1611.326"/>
      <line x1="369.870" y1="1612.326" x2="319.870" y2="1612.326"/>
      <line x1="369.870" y1="1613.326" x2="319.870" y2="1613.326"/>
      <line x1="369.870" y1="1614.326" x2="319.870" y2="1614.326"/>
      <line x1="369.870" y1="1615.326" x2="319.870" y2="1615.326"/>
      <line x1="369.870" y1="1616.326" x2="319.870" y2="1616.326"/>
      <line x1="369.870" y1="1617.326" x2="319.870" y2="1617.326"/>
      <line x1="369.870" y1="1618.326" x2="319.870" y2="1618.326"/>
      <line x1="369.870" y1="1619.326" x2="319.870" y2="1619.326"/>
      <line x1="369.870" y1="1620.326" x2="319.870" y2="1620.326"/>
      <line x1="369.870" y1="1621.326" x2="319.870" y2="1621.326"/>
      <line x1="369.870" y1="1622.326" x2="319.870" y2="1622.326"/>
      <line x1="369.870" y1="1623.326" x2="319.870" y2="1623.326"/>
      <line x1="369.870" y1="1624.326" x2="319.870" y2="1624.326"/>
      <line x1="369.870" y1="1625.326" x2="319.870" y2="1625.326"/>
      <line x1="369.870" y1="1626.326" x2="319.870" y2="1626.326"/>
      <line x1="369.870" y1="1627.326" x2="319.870" y2="1627.326"/>
      <line x1="369.870" y1="1628.326" x2="319.870" y2="1628.326"/>
      <line x1="380.330" y1="1579.326" x2="369.970" y2="1579.326"/>
      <line x1="380.330" y1="1580.326" x2="369.970" y2="1580.326"/>
      <line x1="380.330" y1="1581.326" x2="369.970" y2="1581.326"/>
      <line x1="380.330" y1="1582.326" x2="369.970" y2="1582.326"/>
      <line x1="380.330" y1="1583.326" x2="369.970" y2="1583.326"/>
      <line x1="380.330" y1="1584.326" x2="369.970" y2="1584.326"/>
      <line x1="380.330" y1="1585.326" x2="369.970" y2="1585.326"/>
      <line x1="380.330" y1="1586.326" x2="369.970" y2="1586.326"/>
      <line x1="380.330" y1="1587.326" x2="369.970" y2="1587.326"/>
      <line x1="380.330" y1="1588.326" x2="369.970" y2="1588.326"/>
      <line x1="380.330" y1="1589.326" x2="369.970" y2="1589.326"/>
      <line x1="380.330" y1="1590.326" x2="369.970" y2="1590.326"/>
      <line x1="380.330" y1="1591.326" x2="369.970" y2="1591.326"/>
      <line x1="380.330" y1="1592.326" x2="369.970" y2="1592.326"/>
      <line x1="380.330" y1="1593.326" x2="369.970" y2="1593.326"/>
      <line x1="380.330" y1="1594.326" x2="369.970" y2="1594.326"/>
      <line x1="380.330" y1="1595.326" x2="369.970" y2="1595.326"/>
      <line x1="380.330" y1="1596.326" x2="369.970" y2="1596.326"/>
      <line x1="380.330" y1="1597.326" x2="369.970" y2="1597.326"/>
      <line x1="380.330" y1="1598.326" x2="369.970" y2="1598.326"/>
      <line x1="380.330" y1="1599.326" x2="369.970" y2="1599.326"/>
      <line x1="380.330" y1="1600.326" x2="369.970" y2="1600.326"/>
      <line x1="380.330" y1="1601.326" x2="369.970" y2="1601.326"/>
      <line x1="380.330" y1="1602.326" x2="369.970" y2="1602.326"/>
      <line x1="380.330" y1="1603.326" x2="369.970" y2="1603.326"/>
      <line x1="380.330" y1="1604.326" x2="369.970" y2="1604.326"/>
      <line x1="380.330" y1="1605.326" x2="369.970" y2="1605.326"/>
      <line x1="380.330" y1="1606.326" x2="369.970" y2="1606.326"/>
      <line x1="380.330" y1="1607.326" x2="369.970" y2="1607.326"/>
      <line x1="380.330" y1="1608.326" x2="369.970" y2="1608.326"/>
      <line x1="380.330" y1="1609.326" x2="369.970" y2="1609.326"/>
      <line x1="380.330" y1="1610.326" x2="369.970" y2="1610.326"/>
      <line x1="380.330" y1="1611.326" x2="369.970" y2="1611.326"/>
      <line x1="380.330" y1="1612.326" x2="369.970" y2="1612.326"/>
      <line x1="380.330" y1="1613.326" x2="369.970" y2="1613.326"/>
      <line x1="380.330" y1="1614.326" x2="369.970" y2="1614.326"/>
      <line x1="380.330" y1="1615.326" x2="369.970" y2="1615.326"/>
      <line x1="380.330" y1="1616.326" x2="369.970" y2="1616.326"/>
      <line x1="380.330" y1="1617.326" x2="369.970" y2="1617.326"/>
      <line x1="380.330" y1="1618.326" x2="369.970" y2="1618.326"/>
      <line x1="380.330" y1="1619.326" x2="369.970" y2="1619.326"/>
      <line x1="380.330" y1="1620.326" x2="369.970" y2="1620.326"/>
      <line x1="380.330" y1="1621.326" x2="369.970" y2="1621.326"/>
      <line x1="380.330" y1="1622.326" x2="369.970" y2="1622.326"/>
      <line x1="380.330" y1="1623.326" x2="369.970" y2="1623.326"/>
      <line x1="380.330" y1="1624.326" x2="369.970" y2="1624.326"/>
      <line x1="380.330" y1="1625.326" x2="369.970" y2="1625.326"/>
      <line x1="380.330" y1="1626.326" x2="369.970" y2="1626.326"/>
      <line x1="380.330" y1="1627.326" x2="369.970" y2="1627.326"/>
      <line x1="380.330" y1="1628.326" x2="369.970" y2="1628.326"/>
      <line x1="269.670" y1="1529.326" x2="219.670" y2="1529.326"/>
      <line x1="269.670" y1="1530.326" x2="219.670" y2="1530.326"/>
      <line x1="269.670" y1="1531.326" x2="219.670" y2="1531.326"/>
      <line x1="269.670" y1="1532.326" x2="219.670" y2="1532.326"/>
      <line x1="269.670" y1="1533.326" x2="219.670" y2="1533.326"/>
      <line x1="269.670" y1="1534.326" x2="219.670" y2="1534.326"/>
      <line x1="269.670" y1="1535.326" x2="219.670" y2="1535.326"/>
      <line x1="269.670" y1="1536.326" x2="219.670" y2="1536.326"/>
      <line x1="269.670" y1="1537.326" x2="219.670" y2="1537.326"/>
      <line x1="269.670" y1="1538.326" x2="219.670" y2="1538.326"/>
      <line x1="269.670" y1="1539.326" x2="219.670" y2="1539.326"/>
      <line x1="269.670" y1="1540.326" x2="219.670" y2="1540.326"/>
      <line x1="269.670" y1="1541.326" x2="219.670" y2="1541.326"/>
      <line x1="269.670" y1="1542.326" x2="219.670" y2="1542.326"/>
      <line x1="269.670" y1="1543.326" x2="219.670" y2="1543.326"/>
      <line x1="269.670" y1="1544.326" x2="219.670" y2="1544.326"/>
      <line x1="269.670" y1="1545.326" x2="219.670" y2="1545.326"/>
      <line x1="269.670" y1="1546.326" x2="219.670" y2="1546.326"/>
      <line x1="269.670" y1="1547.326" x2="219.670" y2="1547.326"/>
      <line x1="269.670" y1="1548.326" x2="219.670" y2="1548.326"/>
      <line x1="269.670" y1="1549.326" x2="219.670" y2="1549.326"/>
      <line x1="269.670" y1="1550.326" x2="219.670" y2="1550.326"/>
      <line x1="269.670" y1="1551.326" x2="219.670" y2="1551.326"/>
      <line x1="269.670" y1="1552.326" x2="219.670" y2="1552.326"/>
      <line x1="269.670" y1="1553.326" x2="219.670" y2="1553.326"/>
      <line x1="269.670" y1="1554.326" x2="219.670" y2="1554.326"/>
      <line x1="269.670" y1="1555.326" x2="219.670" y2="1555.326"/>
      <line x1="269.670" y1="1556.326" x2="219.670" y2="1556.326"/>
      <line x1="269.670" y1="1557.326" x2="219.670" y2="1557.326"/>
      <line x1="269.670" y1="1558.326" x2="219.670" y2="1558.326"/>
      <line x1="269.670" y1="1559.326" x2="219.670" y2="1559.326"/>
      <line x1="269.670" y1="1560.326" x2="219.670" y2="1560.326"/>
      <line x1="269.670" y1="1561.326" x2="219.670" y2="1561.326"/>
      <line x1="269.670" y1="1562.326" x2="219.670" y2="1562.326"/>
      <line x1="269.670" y1="1563.326" x2="219.670" y2="1563.326"/>
      <line x1="269.670" y1="1564.326" x2="219.670" y2="1564.326"/>
      <line x1="269.670" y1="1565.326" x2="219.670" y2="1565.326"/>
      <line x1="269.670" y1="1566.326" x2="219.670" y2="1566.326"/>
      <line x1="269.670" y1="1567.326" x2="219.670" y2="1567.326"/>
      <line x1="269.670" y1="1568.326" x2="219.670" y2="1568.326"/>
      <line x1="269.670" y1="1569.326" x2="219.670" y2="1569.326"/>
      <line x1="269.670" y1="1570.326" x2="219.670" y2="1570.326"/>
      <line x1="269.670" y1="1571.326" x2="219.670" y2="1571.326"/>
      <line x1="269.670" y1="1572.326" x2="219.670" y2="1572.326"/>
      <line x1="269.670" y1="1573.326" x2="219.670" y2="1573.326"/>
      <line x1="269.670" y1="1574.326" x2="219.670" y2="1574.326"/>
      <line x1="269.670" y1="1575.326" x2="219.670" y2="1575.326"/>
      <line x1="269.670" y1="1576.326" x2="219.670" y2="1576.326"/>
      <line x1="269.670" y1="1577.326" x2="219.670" y2="1577.326"/>
      <line x1="269.670" y1="1578.326" x2="219.670" y2="1578.326"/>
      <line x1="319.770" y1="1529.326" x2="269.770" y2="1529.326"/>
      <line x1="319.770" y1="1530.326" x2="269.770" y2="1530.326"/>
      <line x1="319.770" y1="1531.326" x2="269.770" y2="1531.326"/>
      <line x1="319.770" y1="1532.326" x2="269.770" y2="1532.326"/>
      <line x1="319.770" y1="1533.326" x2="269.770" y2="1533.326"/>
      <line x1="319.770" y1="1534.326" x2="269.770" y2="1534.326"/>
      <line x1="319.770" y1="1535.326" x2="269.770" y2="1535.326"/>
      <line x1="319.770" y1="1536.326" x2="269.770" y2="1536.326"/>
      <line x1="319.770" y1="1537.326" x2="269.770" y2="1537.326"/>
      <line x1="319.770" y1="1538.326" x2="269.770" y2="1538.326"/>
      <line x1="319.770" y1="1539.326" x2="269.770" y2="1539.326"/>
      <line x1="319.770" y1="1540.326" x2="269.770" y2="1540.326"/>
      <line x1="319.770" y1="1541.326" x2="269.770" y2="1541.326"/>
      <line x1="319.770" y1="1542.326" x2="269.770" y2="1542.326"/>
      <line x1="319.770" y1="1543.326" x2="269.770" y2="1543.326"/>
      <line x1="319.770" y1="1544.326" x2="269.770" y2="1544.326"/>
      <line x1="319.770" y1="1545.326" x2="269.770" y2="1545.326"/>
      <line x1="319.770" y1="1546.326" x2="269.770" y2="1546.326"/>
      <line x1="319.770" y1="1547.326" x2="269.770" y2="1547.326"/>
      <line x1="319.770" y1="1548.326" x2="269.770" y2="1548.326"/>
      <line x1="319.770" y1="1549.326" x2="269.770" y2="1549.326"/>
      <line x1="319.770" y1="1550.326" x2="269.770" y2="1550.326"/>
      <line x1="319.770" y1="1551.326" x2="269.770" y2="1551.326"/>
      <line x1="319.770" y1="1552.326" x2="269.770" y2="1552.326"/>
      <line x1="319.770" y1="1553.326" x2="269.770" y2="1553.326"/>
      <line x1="319.770" y1="1554.326" x2="269.770" y2="1554.326"/>
      <line x1="319.770" y1="1555.326" x2="269.770" y2="1555.326"/>
      <line x1="319.770" y1="1556.326" x2="269.770" y2="1556.326"/>
      <line x1="319.770" y1="1557.326" x2="269.770" y2="1557.326"/>
      <line x1="319.770" y1="1558.326" x2="269.770" y2="1558.326"/>
      <line x1="319.770" y1="1559.326" x2="269.770" y2="1559.326"/>
      <line x1="319.770" y1="1560.326" x2="269.770" y2="1560.326"/>
      <line x1="319.770" y1="1561.326" x2="269.770" y2="1561.326"/>
      <line x1="319.770" y1="1562.326" x2="269.770" y2="1562.326"/>
      <line x1="319.770" y1="1563.326" x2="269.770" y2="1563.326"/>
      <line x1="319.770" y1="1564.326" x2="269.770" y2="1564.326"/>
      <line x1="319.770" y1="1565.326" x2="269.770" y2="1565.326"/>
      <line x1="319.770" y1="1566.326" x2="269.770" y2="1566.326"/>
      <line x1="319.770" y1="1567.326" x2="269.770" y2="1567.326"/>
      <line x1="319.770" y1="1568.326" x2="269.770" y2="1568.326"/>
      <line x1="319.770" y1="1569.326" x2="269.770" y2="1569.326"/>
      <line x1="319.770" y1="1570.326" x2="269.770" y2="1570.326"/>
      <line x1="319.770" y1="1571.326" x2="269.770" y2="1571.326"/>
      <line x1="319.770" y1="1572.326" x2="269.770" y2="1572.326"/>
      <line x1="319.770" y1="1573.326" x2="269.770" y2="1573.326"/>
      <line x1="319.770" y1="1574.326" x2="269.770" y2="1574.326"/>
      <line x1="319.770" y1="1575.326" x2="269.770" y2="1575.326"/>
      <line x1="319.770" y1="1576.326" x2="269.770" y2="1576.326"/>
      <line x1="319.770" y1="1577.326" x2="269.770" y2="1577.326"/>
      <line x1="319.770" y1="1578.326" x2="269.770" y2="1578.326"/>
      <line x1="369.870" y1="1529.326" x2="319.870" y2="1529.326"/>
      <line x1="369.870" y1="1530.326" x2="319.870" y2="1530.326"/>
      <line x1="369.870" y1="1531.326" x2="319.870" y2="1531.326"/>
      <line x1="369.870" y1="1532.326" x2="319.870" y2="1532.326"/>
      <line x1="369.870" y1="1533.326" x2="319.870" y2="1533.326"/>
      <line x1="369.870" y1="1534.326" x2="319.870" y2="1534.326"/>
      <line x1="369.870" y1="1535.326" x2="319.870" y2="1535.326"/>
      <line x1="369.870" y1="1536.326" x2="319.870" y2="1536.326"/>
      <line x1="369.870" y1="1537.326" x2="319.870" y2="1537.326"/>
      <line x1="369.870" y1="1538.326" x2="319.870" y2="1538.326"/>
      <line x1="369.870" y1="1539.326" x2="319.870" y2="1539.326"/>
      <line x1="369.870" y1="1540.326" x2="319.870" y2="1540.326"/>
      <line x1="369.870" y1="1541.326" x2="319.870" y2="1541.326"/>
      <line x1="369.870" y1="1542.326" x2="319.870" y2="1542.326"/>
      <line x1="369.870" y1="1543.326" x2="319.870" y2="1543.326"/>
      <line x1="369.870" y1="1544.326" x2="319.870" y2="1544.326"/>
      <line x1="369.870" y1="1545.326" x2="319.870" y2="1545.326"/>
      <line x1="369.870" y1="1546.326" x2="319.870" y2="1546.326"/>
      <line x1="369.870" y1="1547.326" x2="319.870" y2="1547.326"/>
      <line x1="369.870" y1="1548.326" x2="319.870" y2="1548.326"/>
      <line x1="369.870" y1="1549.326" x2="319.870" y2="1549.326"/>
      <line x1="369.870" y1="1550.326" x2="319.870" y2="1550.326"/>
      <line x1="369.870" y1="1551.326" x2="319.870" y2="1551.326"/>
      <line x1="369.870" y1="1552.326" x2="319.870" y2="1552.326"/>
      <line x1="369.870" y1="1553.326" x2="319.870" y2="1553.326"/>
      <line x1="369.870" y1="1554.326" x2="319.870" y2="1554.326"/>
      <line x1="369.870" y1="1555.326" x2="319.870" y2="1555.326"/>
      <line x1="369.870" y1="1556.326" x2="319.870" y2="1556.326"/>
      <line x1="369.870" y1="1557.326" x2="319.870" y2="1557.326"/>
      <line x1="369.870" y1="1558.326" x2="319.870" y2="1558.326"/>
      <line x1="369.870" y1="1559.326" x2="319.870" y2="1559.326"/>
      <line x1="369.870" y1="1560.326" x2="319.870" y2="1560.326"/>
      <line x1="369.870" y1="1561.326" x2="319.870" y2="1561.326"/>
      <line x1="369.870" y1="1562.326" x2="319.870" y2="1562.326"/>
      <line x1="369.870" y1="1563.326" x2="319.870" y2="1563.326"/>
      <line x1="369.870" y1="1564.326" x2="319.870" y2="1564.326"/>
      <line x1="369.870" y1="1565.326" x2="319.870" y2="1565.326"/>
      <line x1="369.870" y1="1566.326" x2="319.870" y2="1566.326"/>
      <line x1="369.870" y1="1567.326" x2="319.870" y2="1567.326"/>
      <line x1="369.870" y1="1568.326" x2="319.870" y2="1568.326"/>
      <line x1="369.870" y1="1569.326" x2="319.870" y2="1569.326"/>
      <line x1="369.870" y1="1570.326" x2="319.870" y2="1570.326"/>
      <line x1="369.870" y1="1571.326" x2="319.870" y2="1571.326"/>
      <line x1="369.870" y1="1572.326" x2="319.870" y2="1572.326"/>
      <line x1="369.870" y1="1573.326" x2="319.870" y2="1573.326"/>
      <line x1="369.870" y1="1574.326" x2="319.870" y2="1574.326"/>
      <line x1="369.870" y1="1575.326" x2="319.870" y2="1575.326"/>
      <line x1="369.870" y1="1576.326" x2="319.870" y2="1576.326"/>
      <line x1="369.870" y1="1577.326" x2="319.870" y2="1577.326"/>
      <line x1="369.870" y1="1578.326" x2="319.870" y2="1578.326"/>
      <line x1="380.330" y1="1529.326" x2="369.970" y2="1529.326"/>
      <line x1="380.330" y1="1530.326" x2="369.970" y2="1530.326"/>
      <line x1="380.330" y1="1531.326" x2="369.970" y2="1531.326"/>
      <line x1="380.330" y1="1532.326" x2="369.970" y2="1532.326"/>
      <line x1="380.330" y1="1533.326" x2="369.970" y2="1533.326"/>
      <line x1="380.330" y1="1534.326" x2="369.970" y2="1534.326"/>
      <line x1="380.330" y1="1535.326" x2="369.970" y2="1535.326"/>
      <line x1="380.330" y1="1536.326" x2="369.970" y2="1536.326"/>
      <line x1="380.330" y1="1537.326" x2="369.970" y2="1537.326"/>
      <line x1="380.330" y1="1538.326" x2="369.970" y2="1538.326"/>
      <line x1="380.330" y1="1539.326" x2="369.970" y2="1539.326"/>
      <line x1="380.330" y1="1540.326" x2="369.970" y2="1540.326"/>
      <line x1="380.330" y1="1541.326" x2="369.970" y2="1541.326"/>
      <line x1="380.330" y1="1542.326" x2="369.970" y2="1542.326"/>
      <line x1="380.330" y1="1543.326" x2="369.970" y2="1543.326"/>
      <line x1="380.330" y1="1544.326" x2="369.970" y2="1544.326"/>
      <line x1="380.330" y1="1545.326" x2="369.970" y2="1545.326"/>
      <line x1="380.330" y1="1546.326" x2="369.970" y2="1546.326"/>
      <line x1="380.330" y1="1547.326" x2="369.970" y2="1547.326"/>
      <line x1="380.330" y1="1548.326" x2="369.970" y2="1548.326"/>
      <line x1="380.330" y1="1549.326" x2="369.970" y2="1549.326"/>
      <line x1="380.330" y1="1550.326" x2="369.970" y2="1550.326"/>
      <line x1="380.330" y1="1551.326" x2="369.970" y2="1551.326"/>
      <line x1="380.330" y1="1552.326" x2="369.970" y2="1552.326"/>
      <line x1="380.330" y1="1553.326" x2="369.970" y2="1553.326"/>
      <line x1="380.330" y1="1554.326" x2="369.970" y2="1554.326"/>
      <line x1="380.330" y1="1555.326" x2="369.970" y2="1555.326"/>
      <line x1="380.330" y1="1556.326" x2="369.970" y2="1556.326"/>
      <line x1="380.330" y1="1557.326" x2="369.970" y2="1557.326"/>
      <line x1="380.330" y1="1558.326" x2="369.970" y2="1558.326"/>
      <line x1="380.330" y1="1559.326" x2="369.970" y2="1559.326"/>
      <line x1="380.330" y1="1560.326" x2="369.970" y2="1560.326"/>
      <line x1="380.330" y1="1561.326" x2="369.970" y2="1561.326"/>
      <line x1="380.330" y1="1562.326" x2="369.970" y2="1562.326"/>
      <line x1="380.330" y1="1563.326" x2="369.970" y2="1563.326"/>
      <line x1="380.330" y1="1564.326" x2="369.970" y2="1564.326"/>
      <line x1="380.330" y1="1565.326" x2="369.970" y2="1565.326"/>
      <line x1="380.330" y1="1566.326" x2="369.970" y2="1566.326"/>
      <line x1="380.330" y1="1567.326" x2="369.970" y2="1567.326"/>
      <line x1="380.330" y1="1568.326" x2="369.970" y2="1568.326"/>
      <line x1="380.330" y1="1569.326" x2="369.970" y2="1569.326"/>
      <line x1="380.330" y1="1570.326" x2="369.970" y2="1570.326"/>
      <line x1="380.330" y1="1571.326" x2="369.970" y2="1571.326"/>
      <line x1="380.330" y1="1572.326" x2="369.970" y2="1572.326"/>
      <line x1="380.330" y1="1573.326" x2="369.970" y2="1573.326"/>
      <line x1="380.330" y1="1574.326" x2="369.970" y2="1574.326"/>
      <line x1="380.330" y1="1575.326" x2="369.970" y2="1575.326"/>
      <line x1="380.330" y1="1576.326" x2="369.970" y2="1576.326"/>
      <line x1="380.330" y1="1577.326" x2="369.970" y2="1577.326"/>
      <line x1="380.330" y1="1578.326" x2="369.970" y2="1578.326"/>
      <line x1="269.670" y1="1525.326" x2="219.670" y2="1525.326"/>
      <line x1="269.670" y1="1526.326" x2="219.670" y2="1526.326"/>
      <line x1="269.670" y1="1527.326" x2="219.670" y2="1527.326"/>
      <line x1="269.670" y1="1528.326" x2="219.670" y2="1528.326"/>
      <line x1="319.770" y1="1525.326" x2="269.770" y2="1525.326"/>
      <line x1="319.770" y1="1526.326" x2="269.770" y2="1526.326"/>
      <line x1="319.770" y1="1527.326" x2="269.770" y2="1527.326"/>
      <line x1="319.770" y1="1528.326" x2="269.770" y2="1528.326"/>
      <line x1="369.870" y1="1525.326" x2="319.870" y2="1525.326"/>
      <line x1="369.870" y1="1526.326" x2="319.870" y2="1526.326"/>
      <line x1="369.870" y1="1527.326" x2="319.870" y2="1527.326"/>
      <line x1="369.870" y1="1528.326" x2="319.870" y2="1528.326"/>
      <line x1="380.330" y1="1525.326" x2="369.970" y2="1525.326"/>
      <line x1="380.330" y1="1526.326" x2="369.970" y2="1526.326"/>
      <line x1="380.330" y1="1527.326" x2="369.970" y2="1527.326"/>
      <line x1="380.330" y1="1528.326" x2="369.970" y2="1528.326"/>
    </g>
    <g stroke="#1976D2" stroke-width="0.4">
      <polyline points="383.830,1521.729 216.170,1521.729 216.170,1682.729 383.830,1682.729 383.830,1521.729" fill="none"/>
      <polyline points="382.830,1522.729 217.170,1522.729 217.170,1681.730 382.830,1681.730 382.830,1522.729" fill="none"/>
      <polyline points="381.830,1523.729 218.170,1523.729 218.170,1680.730 381.830,1680.730 381.830,1523.729" fill="none"/>
      <polyline points="380.830,1524.729 219.170,1524.729 219.170,1679.729 380.830,1679.729 380.830,1524.729" fill="none"/>
    </g>
    <g stroke="#C62828" stroke-width="0.4" fill="none">
    </g>
    <g stroke="#EF6C00" stroke-width="0.4" fill="none">
    </g>
  </g>
  <g stroke="#000000" stroke-width="0.4">
    <line x1="500.000" y1="1000.000" x2="1500.000" y2="1000.000"/>
  </g>
  <g stroke="#000000" stroke-width="0.4">
    <line x1="1000.000" y1="500.000" x2="1000.000" y2="1500.000"/>
  </g>
  <circle cx="1000.000" cy="1000.000" r="1000.000" stroke="red" stroke-width="1" fill="none"/>
  </g>
</svg>
