<?xml version="1.0" encoding="UTF-8"?>
<svg xmlns="http://www.w3.org/2000/svg" version="1.1" width="2000" height="2000">
  <g fill="none" stroke-linecap="round" stroke-linejoin="round">
  <text x="10" y="20" font-size="24" fill="#555">Layer 194 Z=50.800 mm</text>
  <g transform="translate(700.000,-602.229)">
    <g stroke="#2E7D32" stroke-width="0.4">
      <line x1="3.775" y1="1679.230" x2="3.775" y2="1629.230"/>
      <line x1="4.775" y1="1679.230" x2="4.775" y2="1629.230"/>
      <line x1="5.775" y1="1679.230" x2="5.775" y2="1629.230"/>
      <line x1="6.775" y1="1679.230" x2="6.775" y2="1629.230"/>
      <line x1="7.775" y1="1679.230" x2="7.775" y2="1629.230"/>
      <line x1="8.775" y1="1679.230" x2="8.775" y2="1629.230"/>
      <line x1="9.775" y1="1679.230" x2="9.775" y2="1629.230"/>
      <line x1="10.775" y1="1679.230" x2="10.775" y2="1629.230"/>
      <line x1="11.775" y1="1679.230" x2="11.775" y2="1629.230"/>
      <line x1="12.775" y1="1679.230" x2="12.775" y2="1629.230"/>
      <line x1="13.775" y1="1679.230" x2="13.775" y2="1629.230"/>
      <line x1="14.775" y1="1679.230" x2="14.775" y2="1629.230"/>
      <line x1="15.775" y1="1679.230" x2="15.775" y2="1629.230"/>
      <line x1="16.775" y1="1679.230" x2="16.775" y2="1629.230"/>
      <line x1="17.775" y1="1679.230" x2="17.775" y2="1629.230"/>
      <line x1="18.775" y1="1679.230" x2="18.775" y2="1629.230"/>
      <line x1="19.775" y1="1679.230" x2="19.775" y2="1629.230"/>
      <line x1="20.775" y1="1679.230" x2="20.775" y2="1629.230"/>
      <line x1="21.775" y1="1679.230" x2="21.775" y2="1629.230"/>
      <line x1="22.775" y1="1679.230" x2="22.775" y2="1629.230"/>
      <line x1="23.775" y1="1679.230" x2="23.775" y2="1629.230"/>
      <line x1="24.775" y1="1679.230" x2="24.775" y2="1629.230"/>
      <line x1="25.775" y1="1679.230" x2="25.775" y2="1629.230"/>
      <line x1="26.775" y1="1679.230" x2="26.775" y2="1629.230"/>
      <line x1="27.775" y1="1679.230" x2="27.775" y2="1629.230"/>
      <line x1="28.775" y1="1679.230" x2="28.775" y2="1629.230"/>
      <line x1="29.775" y1="1679.230" x2="29.775" y2="1629.230"/>
      <line x1="30.775" y1="1679.230" x2="30.775" y2="1629.230"/>
      <line x1="31.775" y1="1679.230" x2="31.775" y2="1629.230"/>
      <line x1="32.775" y1="1679.230" x2="32.775" y2="1629.230"/>
      <line x1="33.775" y1="1679.230" x2="33.775" y2="1629.230"/>
      <line x1="34.775" y1="1679.230" x2="34.775" y2="1629.230"/>
      <line x1="35.775" y1="1679.230" x2="35.775" y2="1629.230"/>
      <line x1="36.775" y1="1679.230" x2="36.775" y2="1629.230"/>
      <line x1="37.775" y1="1679.230" x2="37.775" y2="1629.230"/>
      <line x1="38.775" y1="1679.230" x2="38.775" y2="1629.230"/>
      <line x1="39.775" y1="1679.230" x2="39.775" y2="1629.230"/>
      <line x1="40.775" y1="1679.230" x2="40.775" y2="1629.230"/>
      <line x1="41.775" y1="1679.230" x2="41.775" y2="1629.230"/>
      <line x1="42.775" y1="1679.230" x2="42.775" y2="1629.230"/>
      <line x1="43.775" y1="1679.230" x2="43.775" y2="1629.230"/>
      <line x1="44.775" y1="1679.230" x2="44.775" y2="1629.230"/>
      <line x1="45.775" y1="1679.230" x2="45.775" y2="1629.230"/>
      <line x1="46.775" y1="1679.230" x2="46.775" y2="1629.230"/>
      <line x1="47.775" y1="1679.230" x2="47.775" y2="1629.230"/>
      <line x1="48.775" y1="1679.230" x2="48.775" y2="1629.230"/>
      <line x1="49.775" y1="1679.230" x2="49.775" y2="1629.230"/>
      <line x1="50.775" y1="1679.230" x2="50.775" y2="1629.230"/>
      <line x1="51.775" y1="1679.230" x2="51.775" y2="1629.230"/>
      <line x1="52.775" y1="1679.230" x2="52.775" y2="1629.230"/>
      <line x1="53.775" y1="1679.230" x2="53.775" y2="1629.230"/>
      <line x1="54.775" y1="1679.230" x2="54.775" y2="1629.230"/>
      <line x1="55.775" y1="1679.230" x2="55.775" y2="1629.230"/>
      <line x1="56.775" y1="1679.230" x2="56.775" y2="1629.230"/>
      <line x1="57.775" y1="1679.230" x2="57.775" y2="1629.230"/>
      <line x1="58.775" y1="1679.230" x2="58.775" y2="1629.230"/>
      <line x1="59.775" y1="1679.230" x2="59.775" y2="1629.230"/>
      <line x1="60.775" y1="1679.230" x2="60.775" y2="1629.230"/>
      <line x1="61.775" y1="1679.230" x2="61.775" y2="1629.230"/>
      <line x1="3.775" y1="1629.130" x2="3.775" y2="1579.130"/>
      <line x1="4.775" y1="1629.130" x2="4.775" y2="1579.130"/>
      <line x1="5.775" y1="1629.130" x2="5.775" y2="1579.130"/>
      <line x1="6.775" y1="1629.130" x2="6.775" y2="1579.130"/>
      <line x1="7.775" y1="1629.130" x2="7.775" y2="1579.130"/>
      <line x1="8.775" y1="1629.130" x2="8.775" y2="1579.130"/>
      <line x1="9.775" y1="1629.130" x2="9.775" y2="1579.130"/>
      <line x1="10.775" y1="1629.130" x2="10.775" y2="1579.130"/>
      <line x1="11.775" y1="1629.130" x2="11.775" y2="1579.130"/>
      <line x1="12.775" y1="1629.130" x2="12.775" y2="1579.130"/>
      <line x1="13.775" y1="1629.130" x2="13.775" y2="1579.130"/>
      <line x1="14.775" y1="1629.130" x2="14.775" y2="1579.130"/>
      <line x1="15.775" y1="1629.130" x2="15.775" y2="1579.130"/>
      <line x1="16.775" y1="1629.130" x2="16.775" y2="1579.130"/>
      <line x1="17.775" y1="1629.130" x2="17.775" y2="1579.130"/>
      <line x1="18.775" y1="1629.130" x2="18.775" y2="1579.130"/>
      <line x1="19.775" y1="1629.130" x2="19.775" y2="1579.130"/>
      <line x1="20.775" y1="1629.130" x2="20.775" y2="1579.130"/>
      <line x1="21.775" y1="1629.130" x2="21.775" y2="1579.130"/>
      <line x1="22.775" y1="1629.130" x2="22.775" y2="1579.130"/>
      <line x1="23.775" y1="1629.130" x2="23.775" y2="1579.130"/>
      <line x1="24.775" y1="1629.130" x2="24.775" y2="1579.130"/>
      <line x1="25.775" y1="1629.130" x2="25.775" y2="1579.130"/>
      <line x1="26.775" y1="1629.130" x2="26.775" y2="1579.130"/>
      <line x1="27.775" y1="1629.130" x2="27.775" y2="1579.130"/>
      <line x1="28.775" y1="1629.130" x2="28.775" y2="1579.130"/>
      <line x1="29.775" y1="1629.130" x2="29.775" y2="1579.130"/>
      <line x1="30.775" y1="1629.130" x2="30.775" y2="1579.130"/>
      <line x1="31.775" y1="1629.130" x2="31.775" y2="1579.130"/>
      <line x1="32.775" y1="1629.130" x2="32.775" y2="1579.130"/>
      <line x1="33.775" y1="1629.130" x2="33.775" y2="1579.130"/>
      <line x1="34.775" y1="1629.130" x2="34.775" y2="1579.130"/>
      <line x1="35.775" y1="1629.130" x2="35.775" y2="1579.130"/>
      <line x1="36.775" y1="1629.130" x2="36.775" y2="1579.130"/>
      <line x1="37.775" y1="1629.130" x2="37.775" y2="1579.130"/>
      <line x1="38.775" y1="1629.130" x2="38.775" y2="1579.130"/>
      <line x1="39.775" y1="1629.130" x2="39.775" y2="1579.130"/>
      <line x1="40.775" y1="1629.130" x2="40.775" y2="1579.130"/>
      <line x1="41.775" y1="1629.130" x2="41.775" y2="1579.130"/>
      <line x1="42.775" y1="1629.130" x2="42.775" y2="1579.130"/>
      <line x1="43.775" y1="1629.130" x2="43.775" y2="1579.130"/>
      <line x1="44.775" y1="1629.130" x2="44.775" y2="1579.130"/>
      <line x1="45.775" y1="1629.130" x2="45.775" y2="1579.130"/>
      <line x1="46.775" y1="1629.130" x2="46.775" y2="1579.130"/>
      <line x1="47.775" y1="1629.130" x2="47.775" y2="1579.130"/>
      <line x1="48.775" y1="1629.130" x2="48.775" y2="1579.130"/>
      <line x1="49.775" y1="1629.130" x2="49.775" y2="1579.130"/>
      <line x1="50.775" y1="1629.130" x2="50.775" y2="1579.130"/>
      <line x1="51.775" y1="1629.130" x2="51.775" y2="1579.130"/>
      <line x1="52.775" y1="1629.130" x2="52.775" y2="1579.130"/>
      <line x1="53.775" y1="1629.130" x2="53.775" y2="1579.130"/>
      <line x1="54.775" y1="1629.130" x2="54.775" y2="1579.130"/>
      <line x1="55.775" y1="1629.130" x2="55.775" y2="1579.130"/>
      <line x1="56.775" y1="1629.130" x2="56.775" y2="1579.130"/>
      <line x1="57.775" y1="1629.130" x2="57.775" y2="1579.130"/>
      <line x1="58.775" y1="1629.130" x2="58.775" y2="1579.130"/>
      <line x1="59.775" y1="1629.130" x2="59.775" y2="1579.130"/>
      <line x1="60.775" y1="1629.130" x2="60.775" y2="1579.130"/>
      <line x1="61.775" y1="1629.130" x2="61.775" y2="1579.130"/>
      <line x1="3.775" y1="1579.030" x2="3.775" y2="1529.030"/>
      <line x1="4.775" y1="1579.030" x2="4.775" y2="1529.030"/>
      <line x1="5.775" y1="1579.030" x2="5.775" y2="1529.030"/>
      <line x1="6.775" y1="1579.030" x2="6.775" y2="1529.030"/>
      <line x1="7.775" y1="1579.030" x2="7.775" y2="1529.030"/>
      <line x1="8.775" y1="1579.030" x2="8.775" y2="1529.030"/>
      <line x1="9.775" y1="1579.030" x2="9.775" y2="1529.030"/>
      <line x1="10.775" y1="1579.030" x2="10.775" y2="1529.030"/>
      <line x1="11.775" y1="1579.030" x2="11.775" y2="1529.030"/>
      <line x1="12.775" y1="1579.030" x2="12.775" y2="1529.030"/>
      <line x1="13.775" y1="1579.030" x2="13.775" y2="1529.030"/>
      <line x1="14.775" y1="1579.030" x2="14.775" y2="1529.030"/>
      <line x1="15.775" y1="1579.030" x2="15.775" y2="1529.030"/>
      <line x1="16.775" y1="1579.030" x2="16.775" y2="1529.030"/>
      <line x1="17.775" y1="1579.030" x2="17.775" y2="1529.030"/>
      <line x1="18.775" y1="1579.030" x2="18.775" y2="1529.030"/>
      <line x1="19.775" y1="1579.030" x2="19.775" y2="1529.030"/>
      <line x1="20.775" y1="1579.030" x2="20.775" y2="1529.030"/>
      <line x1="21.775" y1="1579.030" x2="21.775" y2="1529.030"/>
      <line x1="22.775" y1="1579.030" x2="22.775" y2="1529.030"/>
      <line x1="23.775" y1="1579.030" x2="23.775" y2="1529.030"/>
      <line x1="24.775" y1="1579.030" x2="24.775" y2="1529.030"/>
      <line x1="25.775" y1="1579.030" x2="25.775" y2="1529.030"/>
      <line x1="26.775" y1="1579.030" x2="26.775" y2="1529.030"/>
      <line x1="27.775" y1="1579.030" x2="27.775" y2="1529.030"/>
      <line x1="28.775" y1="1579.030" x2="28.775" y2="1529.030"/>
      <line x1="29.775" y1="1579.030" x2="29.775" y2="1529.030"/>
      <line x1="30.775" y1="1579.030" x2="30.775" y2="1529.030"/>
      <line x1="31.775" y1="1579.030" x2="31.775" y2="1529.030"/>
      <line x1="32.775" y1="1579.030" x2="32.775" y2="1529.030"/>
      <line x1="33.775" y1="1579.030" x2="33.775" y2="1529.030"/>
      <line x1="34.775" y1="1579.030" x2="34.775" y2="1529.030"/>
      <line x1="35.775" y1="1579.030" x2="35.775" y2="1529.030"/>
      <line x1="36.775" y1="1579.030" x2="36.775" y2="1529.030"/>
      <line x1="37.775" y1="1579.030" x2="37.775" y2="1529.030"/>
      <line x1="38.775" y1="1579.030" x2="38.775" y2="1529.030"/>
      <line x1="39.775" y1="1579.030" x2="39.775" y2="1529.030"/>
      <line x1="40.775" y1="1579.030" x2="40.775" y2="1529.030"/>
      <line x1="41.775" y1="1579.030" x2="41.775" y2="1529.030"/>
      <line x1="42.775" y1="1579.030" x2="42.775" y2="1529.030"/>
      <line x1="43.775" y1="1579.030" x2="43.775" y2="1529.030"/>
      <line x1="44.775" y1="1579.030" x2="44.775" y2="1529.030"/>
      <line x1="45.775" y1="1579.030" x2="45.775" y2="1529.030"/>
      <line x1="46.775" y1="1579.030" x2="46.775" y2="1529.030"/>
      <line x1="47.775" y1="1579.030" x2="47.775" y2="1529.030"/>
      <line x1="48.775" y1="1579.030" x2="48.775" y2="1529.030"/>
      <line x1="49.775" y1="1579.030" x2="49.775" y2="1529.030"/>
      <line x1="50.775" y1="1579.030" x2="50.775" y2="1529.030"/>
      <line x1="51.775" y1="1579.030" x2="51.775" y2="1529.030"/>
      <line x1="52.775" y1="1579.030" x2="52.775" y2="1529.030"/>
      <line x1="53.775" y1="1579.030" x2="53.775" y2="1529.030"/>
      <line x1="54.775" y1="1579.030" x2="54.775" y2="1529.030"/>
      <line x1="55.775" y1="1579.030" x2="55.775" y2="1529.030"/>
      <line x1="56.775" y1="1579.030" x2="56.775" y2="1529.030"/>
      <line x1="57.775" y1="1579.030" x2="57.775" y2="1529.030"/>
      <line x1="58.775" y1="1579.030" x2="58.775" y2="1529.030"/>
      <line x1="59.775" y1="1579.030" x2="59.775" y2="1529.030"/>
      <line x1="60.775" y1="1579.030" x2="60.775" y2="1529.030"/>
      <line x1="61.775" y1="1579.030" x2="61.775" y2="1529.030"/>
      <line x1="52.775" y1="1528.930" x2="52.775" y2="1525.229"/>
      <line x1="51.775" y1="1528.930" x2="51.775" y2="1525.229"/>
      <line x1="16.775" y1="1528.930" x2="16.775" y2="1525.229"/>
      <line x1="28.775" y1="1528.930" x2="28.775" y2="1525.229"/>
      <line x1="27.775" y1="1528.930" x2="27.775" y2="1525.229"/>
      <line x1="26.775" y1="1528.930" x2="26.775" y2="1525.229"/>
      <line x1="25.775" y1="1528.930" x2="25.775" y2="1525.229"/>
      <line x1="24.775" y1="1528.930" x2="24.775" y2="1525.229"/>
      <line x1="23.775" y1="1528.930" x2="23.775" y2="1525.229"/>
      <line x1="22.775" y1="1528.930" x2="22.775" y2="1525.229"/>
      <line x1="21.775" y1="1528.930" x2="21.775" y2="1525.229"/>
      <line x1="20.775" y1="1528.930" x2="20.775" y2="1525.229"/>
      <line x1="19.775" y1="1528.930" x2="19.775" y2="1525.229"/>
      <line x1="18.775" y1="1528.930" x2="18.775" y2="1525.229"/>
      <line x1="17.775" y1="1528.930" x2="17.775" y2="1525.229"/>
      <line x1="3.775" y1="1528.930" x2="3.775" y2="1525.229"/>
      <line x1="15.775" y1="1528.930" x2="15.775" y2="1525.229"/>
      <line x1="14.775" y1="1528.930" x2="14.775" y2="1525.229"/>
      <line x1="13.775" y1="1528.930" x2="13.775" y2="1525.229"/>
      <line x1="12.775" y1="1528.930" x2="12.775" y2="1525.229"/>
      <line x1="11.775" y1="1528.930" x2="11.775" y2="1525.229"/>
      <line x1="10.775" y1="1528.930" x2="10.775" y2="1525.229"/>
      <line x1="9.775" y1="1528.930" x2="9.775" y2="1525.229"/>
      <line x1="8.775" y1="1528.930" x2="8.775" y2="1525.229"/>
      <line x1="7.775" y1="1528.930" x2="7.775" y2="1525.229"/>
      <line x1="6.775" y1="1528.930" x2="6.775" y2="1525.229"/>
      <line x1="5.775" y1="1528.930" x2="5.775" y2="1525.229"/>
      <line x1="4.775" y1="1528.930" x2="4.775" y2="1525.229"/>
      <line x1="42.775" y1="1528.930" x2="42.775" y2="1525.229"/>
      <line x1="50.775" y1="1528.930" x2="50.775" y2="1525.229"/>
      <line x1="49.775" y1="1528.930" x2="49.775" y2="1525.229"/>
      <line x1="48.775" y1="1528.930" x2="48.775" y2="1525.229"/>
      <line x1="47.775" y1="1528.930" x2="47.775" y2="1525.229"/>
      <line x1="46.775" y1="1528.930" x2="46.775" y2="1525.229"/>
      <line x1="45.775" y1="1528.930" x2="45.775" y2="1525.229"/>
      <line x1="44.775" y1="1528.930" x2="44.775" y2="1525.229"/>
      <line x1="43.775" y1="1528.930" x2="43.775" y2="1525.229"/>
      <line x1="29.775" y1="1528.930" x2="29.775" y2="1525.229"/>
      <line x1="41.775" y1="1528.930" x2="41.775" y2="1525.229"/>
      <line x1="40.775" y1="1528.930" x2="40.775" y2="1525.229"/>
      <line x1="39.775" y1="1528.930" x2="39.775" y2="1525.229"/>
      <line x1="38.775" y1="1528.930" x2="38.775" y2="1525.229"/>
      <line x1="37.775" y1="1528.930" x2="37.775" y2="1525.229"/>
      <line x1="36.775" y1="1528.930" x2="36.775" y2="1525.229"/>
      <line x1="35.775" y1="1528.930" x2="35.775" y2="1525.229"/>
      <line x1="34.775" y1="1528.930" x2="34.775" y2="1525.229"/>
      <line x1="33.775" y1="1528.930" x2="33.775" y2="1525.229"/>
      <line x1="32.775" y1="1528.930" x2="32.775" y2="1525.229"/>
      <line x1="31.775" y1="1528.930" x2="31.775" y2="1525.229"/>
      <line x1="30.775" y1="1528.930" x2="30.775" y2="1525.229"/>
      <line x1="61.775" y1="1528.930" x2="61.775" y2="1525.229"/>
      <line x1="60.775" y1="1528.930" x2="60.775" y2="1525.229"/>
      <line x1="55.775" y1="1528.930" x2="55.775" y2="1525.229"/>
      <line x1="58.775" y1="1528.930" x2="58.775" y2="1525.229"/>
      <line x1="53.775" y1="1528.930" x2="53.775" y2="1525.229"/>
      <line x1="59.775" y1="1528.930" x2="59.775" y2="1525.229"/>
      <line x1="56.775" y1="1528.930" x2="56.775" y2="1525.229"/>
      <line x1="57.775" y1="1528.930" x2="57.775" y2="1525.229"/>
      <line x1="54.775" y1="1528.930" x2="54.775" y2="1525.229"/>
      <line x1="538.411" y1="1679.230" x2="538.411" y2="1629.230"/>
      <line x1="539.411" y1="1679.230" x2="539.411" y2="1629.230"/>
      <line x1="540.411" y1="1679.230" x2="540.411" y2="1629.230"/>
      <line x1="541.411" y1="1679.230" x2="541.411" y2="1629.230"/>
      <line x1="542.411" y1="1679.230" x2="542.411" y2="1629.230"/>
      <line x1="543.411" y1="1679.230" x2="543.411" y2="1629.230"/>
      <line x1="544.411" y1="1679.230" x2="544.411" y2="1629.230"/>
      <line x1="545.411" y1="1679.230" x2="545.411" y2="1629.230"/>
      <line x1="546.411" y1="1679.230" x2="546.411" y2="1629.230"/>
      <line x1="547.411" y1="1679.230" x2="547.411" y2="1629.230"/>
      <line x1="548.411" y1="1679.230" x2="548.411" y2="1629.230"/>
      <line x1="549.411" y1="1679.230" x2="549.411" y2="1629.230"/>
      <line x1="550.411" y1="1679.230" x2="550.411" y2="1629.230"/>
      <line x1="551.411" y1="1679.230" x2="551.411" y2="1629.230"/>
      <line x1="552.411" y1="1679.230" x2="552.411" y2="1629.230"/>
      <line x1="553.411" y1="1679.230" x2="553.411" y2="1629.230"/>
      <line x1="554.411" y1="1679.230" x2="554.411" y2="1629.230"/>
      <line x1="555.411" y1="1679.230" x2="555.411" y2="1629.230"/>
      <line x1="556.411" y1="1679.230" x2="556.411" y2="1629.230"/>
      <line x1="557.411" y1="1679.230" x2="557.411" y2="1629.230"/>
      <line x1="558.411" y1="1679.230" x2="558.411" y2="1629.230"/>
      <line x1="559.411" y1="1679.230" x2="559.411" y2="1629.230"/>
      <line x1="560.411" y1="1679.230" x2="560.411" y2="1629.230"/>
      <line x1="561.411" y1="1679.230" x2="561.411" y2="1629.230"/>
      <line x1="562.411" y1="1679.230" x2="562.411" y2="1629.230"/>
      <line x1="563.411" y1="1679.230" x2="563.411" y2="1629.230"/>
      <line x1="564.411" y1="1679.230" x2="564.411" y2="1629.230"/>
      <line x1="565.411" y1="1679.230" x2="565.411" y2="1629.230"/>
      <line x1="566.411" y1="1679.230" x2="566.411" y2="1629.230"/>
      <line x1="567.411" y1="1679.230" x2="567.411" y2="1629.230"/>
      <line x1="568.411" y1="1679.230" x2="568.411" y2="1629.230"/>
      <line x1="569.411" y1="1679.230" x2="569.411" y2="1629.230"/>
      <line x1="570.411" y1="1679.230" x2="570.411" y2="1629.230"/>
      <line x1="571.411" y1="1679.230" x2="571.411" y2="1629.230"/>
      <line x1="572.411" y1="1679.230" x2="572.411" y2="1629.230"/>
      <line x1="573.411" y1="1679.230" x2="573.411" y2="1629.230"/>
      <line x1="574.411" y1="1679.230" x2="574.411" y2="1629.230"/>
      <line x1="575.411" y1="1679.230" x2="575.411" y2="1629.230"/>
      <line x1="576.411" y1="1679.230" x2="576.411" y2="1629.230"/>
      <line x1="577.411" y1="1679.230" x2="577.411" y2="1629.230"/>
      <line x1="578.411" y1="1679.230" x2="578.411" y2="1629.230"/>
      <line x1="579.411" y1="1679.230" x2="579.411" y2="1629.230"/>
      <line x1="580.411" y1="1679.230" x2="580.411" y2="1629.230"/>
      <line x1="581.411" y1="1679.230" x2="581.411" y2="1629.230"/>
      <line x1="582.411" y1="1679.230" x2="582.411" y2="1629.230"/>
      <line x1="583.411" y1="1679.230" x2="583.411" y2="1629.230"/>
      <line x1="584.411" y1="1679.230" x2="584.411" y2="1629.230"/>
      <line x1="585.411" y1="1679.230" x2="585.411" y2="1629.230"/>
      <line x1="586.411" y1="1679.230" x2="586.411" y2="1629.230"/>
      <line x1="587.411" y1="1679.230" x2="587.411" y2="1629.230"/>
      <line x1="588.411" y1="1679.230" x2="588.411" y2="1629.230"/>
      <line x1="589.411" y1="1679.230" x2="589.411" y2="1629.230"/>
      <line x1="590.411" y1="1679.230" x2="590.411" y2="1629.230"/>
      <line x1="591.411" y1="1679.230" x2="591.411" y2="1629.230"/>
      <line x1="592.411" y1="1679.230" x2="592.411" y2="1629.230"/>
      <line x1="593.411" y1="1679.230" x2="593.411" y2="1629.230"/>
      <line x1="594.411" y1="1679.230" x2="594.411" y2="1629.230"/>
      <line x1="595.411" y1="1679.230" x2="595.411" y2="1629.230"/>
      <line x1="596.411" y1="1679.230" x2="596.411" y2="1629.230"/>
      <line x1="538.411" y1="1629.130" x2="538.411" y2="1579.130"/>
      <line x1="539.411" y1="1629.130" x2="539.411" y2="1579.130"/>
      <line x1="540.411" y1="1629.130" x2="540.411" y2="1579.130"/>
      <line x1="541.411" y1="1629.130" x2="541.411" y2="1579.130"/>
      <line x1="542.411" y1="1629.130" x2="542.411" y2="1579.130"/>
      <line x1="543.411" y1="1629.130" x2="543.411" y2="1579.130"/>
      <line x1="544.411" y1="1629.130" x2="544.411" y2="1579.130"/>
      <line x1="545.411" y1="1629.130" x2="545.411" y2="1579.130"/>
      <line x1="546.411" y1="1629.130" x2="546.411" y2="1579.130"/>
      <line x1="547.411" y1="1629.130" x2="547.411" y2="1579.130"/>
      <line x1="548.411" y1="1629.130" x2="548.411" y2="1579.130"/>
      <line x1="549.411" y1="1629.130" x2="549.411" y2="1579.130"/>
      <line x1="550.411" y1="1629.130" x2="550.411" y2="1579.130"/>
      <line x1="551.411" y1="1629.130" x2="551.411" y2="1579.130"/>
      <line x1="552.411" y1="1629.130" x2="552.411" y2="1579.130"/>
      <line x1="553.411" y1="1629.130" x2="553.411" y2="1579.130"/>
      <line x1="554.411" y1="1629.130" x2="554.411" y2="1579.130"/>
      <line x1="555.411" y1="1629.130" x2="555.411" y2="1579.130"/>
      <line x1="556.411" y1="1629.130" x2="556.411" y2="1579.130"/>
      <line x1="557.411" y1="1629.130" x2="557.411" y2="1579.130"/>
      <line x1="558.411" y1="1629.130" x2="558.411" y2="1579.130"/>
      <line x1="559.411" y1="1629.130" x2="559.411" y2="1579.130"/>
      <line x1="560.411" y1="1629.130" x2="560.411" y2="1579.130"/>
      <line x1="561.411" y1="1629.130" x2="561.411" y2="1579.130"/>
      <line x1="562.411" y1="1629.130" x2="562.411" y2="1579.130"/>
      <line x1="563.411" y1="1629.130" x2="563.411" y2="1579.130"/>
      <line x1="564.411" y1="1629.130" x2="564.411" y2="1579.130"/>
      <line x1="565.411" y1="1629.130" x2="565.411" y2="1579.130"/>
      <line x1="566.411" y1="1629.130" x2="566.411" y2="1579.130"/>
      <line x1="567.411" y1="1629.130" x2="567.411" y2="1579.130"/>
      <line x1="568.411" y1="1629.130" x2="568.411" y2="1579.130"/>
      <line x1="569.411" y1="1629.130" x2="569.411" y2="1579.130"/>
      <line x1="570.411" y1="1629.130" x2="570.411" y2="1579.130"/>
      <line x1="571.411" y1="1629.130" x2="571.411" y2="1579.130"/>
      <line x1="572.411" y1="1629.130" x2="572.411" y2="1579.130"/>
      <line x1="573.411" y1="1629.130" x2="573.411" y2="1579.130"/>
      <line x1="574.411" y1="1629.130" x2="574.411" y2="1579.130"/>
      <line x1="575.411" y1="1629.130" x2="575.411" y2="1579.130"/>
      <line x1="576.411" y1="1629.130" x2="576.411" y2="1579.130"/>
      <line x1="577.411" y1="1629.130" x2="577.411" y2="1579.130"/>
      <line x1="578.411" y1="1629.130" x2="578.411" y2="1579.130"/>
      <line x1="579.411" y1="1629.130" x2="579.411" y2="1579.130"/>
      <line x1="580.411" y1="1629.130" x2="580.411" y2="1579.130"/>
      <line x1="581.411" y1="1629.130" x2="581.411" y2="1579.130"/>
      <line x1="582.411" y1="1629.130" x2="582.411" y2="1579.130"/>
      <line x1="583.411" y1="1629.130" x2="583.411" y2="1579.130"/>
      <line x1="584.411" y1="1629.130" x2="584.411" y2="1579.130"/>
      <line x1="585.411" y1="1629.130" x2="585.411" y2="1579.130"/>
      <line x1="586.411" y1="1629.130" x2="586.411" y2="1579.130"/>
      <line x1="587.411" y1="1629.130" x2="587.411" y2="1579.130"/>
      <line x1="588.411" y1="1629.130" x2="588.411" y2="1579.130"/>
      <line x1="589.411" y1="1629.130" x2="589.411" y2="1579.130"/>
      <line x1="590.411" y1="1629.130" x2="590.411" y2="1579.130"/>
      <line x1="591.411" y1="1629.130" x2="591.411" y2="1579.130"/>
      <line x1="592.411" y1="1629.130" x2="592.411" y2="1579.130"/>
      <line x1="593.411" y1="1629.130" x2="593.411" y2="1579.130"/>
      <line x1="594.411" y1="1629.130" x2="594.411" y2="1579.130"/>
      <line x1="595.411" y1="1629.130" x2="595.411" y2="1579.130"/>
      <line x1="596.411" y1="1629.130" x2="596.411" y2="1579.130"/>
      <line x1="538.411" y1="1579.030" x2="538.411" y2="1529.030"/>
      <line x1="539.411" y1="1579.030" x2="539.411" y2="1529.030"/>
      <line x1="540.411" y1="1579.030" x2="540.411" y2="1529.030"/>
      <line x1="541.411" y1="1579.030" x2="541.411" y2="1529.030"/>
      <line x1="542.411" y1="1579.030" x2="542.411" y2="1529.030"/>
      <line x1="543.411" y1="1579.030" x2="543.411" y2="1529.030"/>
      <line x1="544.411" y1="1579.030" x2="544.411" y2="1529.030"/>
      <line x1="545.411" y1="1579.030" x2="545.411" y2="1529.030"/>
      <line x1="546.411" y1="1579.030" x2="546.411" y2="1529.030"/>
      <line x1="547.411" y1="1579.030" x2="547.411" y2="1529.030"/>
      <line x1="548.411" y1="1579.030" x2="548.411" y2="1529.030"/>
      <line x1="549.411" y1="1579.030" x2="549.411" y2="1529.030"/>
      <line x1="550.411" y1="1579.030" x2="550.411" y2="1529.030"/>
      <line x1="551.411" y1="1579.030" x2="551.411" y2="1529.030"/>
      <line x1="552.411" y1="1579.030" x2="552.411" y2="1529.030"/>
      <line x1="553.411" y1="1579.030" x2="553.411" y2="1529.030"/>
      <line x1="554.411" y1="1579.030" x2="554.411" y2="1529.030"/>
      <line x1="555.411" y1="1579.030" x2="555.411" y2="1529.030"/>
      <line x1="556.411" y1="1579.030" x2="556.411" y2="1529.030"/>
      <line x1="557.411" y1="1579.030" x2="557.411" y2="1529.030"/>
      <line x1="558.411" y1="1579.030" x2="558.411" y2="1529.030"/>
      <line x1="559.411" y1="1579.030" x2="559.411" y2="1529.030"/>
      <line x1="560.411" y1="1579.030" x2="560.411" y2="1529.030"/>
      <line x1="561.411" y1="1579.030" x2="561.411" y2="1529.030"/>
      <line x1="562.411" y1="1579.030" x2="562.411" y2="1529.030"/>
      <line x1="563.411" y1="1579.030" x2="563.411" y2="1529.030"/>
      <line x1="564.411" y1="1579.030" x2="564.411" y2="1529.030"/>
      <line x1="565.411" y1="1579.030" x2="565.411" y2="1529.030"/>
      <line x1="566.411" y1="1579.030" x2="566.411" y2="1529.030"/>
      <line x1="567.411" y1="1579.030" x2="567.411" y2="1529.030"/>
      <line x1="568.411" y1="1579.030" x2="568.411" y2="1529.030"/>
      <line x1="569.411" y1="1579.030" x2="569.411" y2="1529.030"/>
      <line x1="570.411" y1="1579.030" x2="570.411" y2="1529.030"/>
      <line x1="571.411" y1="1579.030" x2="571.411" y2="1529.030"/>
      <line x1="572.411" y1="1579.030" x2="572.411" y2="1529.030"/>
      <line x1="573.411" y1="1579.030" x2="573.411" y2="1529.030"/>
      <line x1="574.411" y1="1579.030" x2="574.411" y2="1529.030"/>
      <line x1="575.411" y1="1579.030" x2="575.411" y2="1529.030"/>
      <line x1="576.411" y1="1579.030" x2="576.411" y2="1529.030"/>
      <line x1="577.411" y1="1579.030" x2="577.411" y2="1529.030"/>
      <line x1="578.411" y1="1579.030" x2="578.411" y2="1529.030"/>
      <line x1="579.411" y1="1579.030" x2="579.411" y2="1529.030"/>
      <line x1="580.411" y1="1579.030" x2="580.411" y2="1529.030"/>
      <line x1="581.411" y1="1579.030" x2="581.411" y2="1529.030"/>
      <line x1="582.411" y1="1579.030" x2="582.411" y2="1529.030"/>
      <line x1="583.411" y1="1579.030" x2="583.411" y2="1529.030"/>
      <line x1="584.411" y1="1579.030" x2="584.411" y2="1529.030"/>
      <line x1="585.411" y1="1579.030" x2="585.411" y2="1529.030"/>
      <line x1="586.411" y1="1579.030" x2="586.411" y2="1529.030"/>
      <line x1="587.411" y1="1579.030" x2="587.411" y2="1529.030"/>
      <line x1="588.411" y1="1579.030" x2="588.411" y2="1529.030"/>
      <line x1="589.411" y1="1579.030" x2="589.411" y2="1529.030"/>
      <line x1="590.411" y1="1579.030" x2="590.411" y2="1529.030"/>
      <line x1="591.411" y1="1579.030" x2="591.411" y2="1529.030"/>
      <line x1="592.411" y1="1579.030" x2="592.411" y2="1529.030"/>
      <line x1="593.411" y1="1579.030" x2="593.411" y2="1529.030"/>
      <line x1="594.411" y1="1579.030" x2="594.411" y2="1529.030"/>
      <line x1="595.411" y1="1579.030" x2="595.411" y2="1529.030"/>
      <line x1="596.411" y1="1579.030" x2="596.411" y2="1529.030"/>
      <line x1="541.411" y1="1528.930" x2="541.411" y2="1525.229"/>
      <line x1="548.411" y1="1528.930" x2="548.411" y2="1525.229"/>
      <line x1="547.411" y1="1528.930" x2="547.411" y2="1525.229"/>
      <line x1="544.411" y1="1528.930" x2="544.411" y2="1525.229"/>
      <line x1="538.411" y1="1528.930" x2="538.411" y2="1525.229"/>
      <line x1="546.411" y1="1528.930" x2="546.411" y2="1525.229"/>
      <line x1="543.411" y1="1528.930" x2="543.411" y2="1525.229"/>
      <line x1="587.411" y1="1528.930" x2="587.411" y2="1525.229"/>
      <line x1="575.411" y1="1528.930" x2="575.411" y2="1525.229"/>
      <line x1="576.411" y1="1528.930" x2="576.411" y2="1525.229"/>
      <line x1="577.411" y1="1528.930" x2="577.411" y2="1525.229"/>
      <line x1="578.411" y1="1528.930" x2="578.411" y2="1525.229"/>
      <line x1="579.411" y1="1528.930" x2="579.411" y2="1525.229"/>
      <line x1="580.411" y1="1528.930" x2="580.411" y2="1525.229"/>
      <line x1="581.411" y1="1528.930" x2="581.411" y2="1525.229"/>
      <line x1="582.411" y1="1528.930" x2="582.411" y2="1525.229"/>
      <line x1="583.411" y1="1528.930" x2="583.411" y2="1525.229"/>
      <line x1="584.411" y1="1528.930" x2="584.411" y2="1525.229"/>
      <line x1="585.411" y1="1528.930" x2="585.411" y2="1525.229"/>
      <line x1="586.411" y1="1528.930" x2="586.411" y2="1525.229"/>
      <line x1="540.411" y1="1528.930" x2="540.411" y2="1525.229"/>
      <line x1="545.411" y1="1528.930" x2="545.411" y2="1525.229"/>
      <line x1="542.411" y1="1528.930" x2="542.411" y2="1525.229"/>
      <line x1="539.411" y1="1528.930" x2="539.411" y2="1525.229"/>
      <line x1="561.411" y1="1528.930" x2="561.411" y2="1525.229"/>
      <line x1="549.411" y1="1528.930" x2="549.411" y2="1525.229"/>
      <line x1="550.411" y1="1528.930" x2="550.411" y2="1525.229"/>
      <line x1="551.411" y1="1528.930" x2="551.411" y2="1525.229"/>
      <line x1="552.411" y1="1528.930" x2="552.411" y2="1525.229"/>
      <line x1="553.411" y1="1528.930" x2="553.411" y2="1525.229"/>
      <line x1="554.411" y1="1528.930" x2="554.411" y2="1525.229"/>
      <line x1="555.411" y1="1528.930" x2="555.411" y2="1525.229"/>
      <line x1="556.411" y1="1528.930" x2="556.411" y2="1525.229"/>
      <line x1="557.411" y1="1528.930" x2="557.411" y2="1525.229"/>
      <line x1="558.411" y1="1528.930" x2="558.411" y2="1525.229"/>
      <line x1="559.411" y1="1528.930" x2="559.411" y2="1525.229"/>
      <line x1="560.411" y1="1528.930" x2="560.411" y2="1525.229"/>
      <line x1="574.411" y1="1528.930" x2="574.411" y2="1525.229"/>
      <line x1="562.411" y1="1528.930" x2="562.411" y2="1525.229"/>
      <line x1="563.411" y1="1528.930" x2="563.411" y2="1525.229"/>
      <line x1="564.411" y1="1528.930" x2="564.411" y2="1525.229"/>
      <line x1="565.411" y1="1528.930" x2="565.411" y2="1525.229"/>
      <line x1="566.411" y1="1528.930" x2="566.411" y2="1525.229"/>
      <line x1="567.411" y1="1528.930" x2="567.411" y2="1525.229"/>
      <line x1="568.411" y1="1528.930" x2="568.411" y2="1525.229"/>
      <line x1="569.411" y1="1528.930" x2="569.411" y2="1525.229"/>
      <line x1="570.411" y1="1528.930" x2="570.411" y2="1525.229"/>
      <line x1="571.411" y1="1528.930" x2="571.411" y2="1525.229"/>
      <line x1="572.411" y1="1528.930" x2="572.411" y2="1525.229"/>
      <line x1="573.411" y1="1528.930" x2="573.411" y2="1525.229"/>
      <line x1="588.411" y1="1528.930" x2="588.411" y2="1525.229"/>
      <line x1="589.411" y1="1528.930" x2="589.411" y2="1525.229"/>
      <line x1="590.411" y1="1528.930" x2="590.411" y2="1525.229"/>
      <line x1="591.411" y1="1528.930" x2="591.411" y2="1525.229"/>
      <line x1="592.411" y1="1528.930" x2="592.411" y2="1525.229"/>
      <line x1="593.411" y1="1528.930" x2="593.411" y2="1525.229"/>
      <line x1="594.411" y1="1528.930" x2="594.411" y2="1525.229"/>
      <line x1="595.411" y1="1528.930" x2="595.411" y2="1525.229"/>
      <line x1="596.411" y1="1528.930" x2="596.411" y2="1525.229"/>
    </g>
    <g stroke="#1976D2" stroke-width="0.4">
      <polyline points="535.992,1682.729 600.500,1682.729 600.500,1521.729 535.992,1521.729" fill="none"/>
      <polyline points="535.992,1521.729 534.135,1521.729 534.135,1682.729 535.992,1682.729" fill="none"/>
      <polyline points="535.992,1681.730 599.500,1681.730 599.500,1522.729 535.992,1522.729" fill="none"/>
      <polyline points="535.992,1522.729 535.135,1522.729 535.135,1681.730 535.992,1681.730" fill="none"/>
      <polyline points="598.500,1523.729 536.135,1523.729 536.135,1680.730 598.500,1680.730 598.500,1523.729" fill="none"/>
      <polyline points="597.500,1524.729 537.135,1524.729 537.135,1679.729 597.500,1679.729 597.500,1524.729" fill="none"/>
      <polyline points="64.008,1521.729 -0.500,1521.729 -0.500,1682.729 64.008,1682.729" fill="none"/>
      <polyline points="64.008,1682.729 65.865,1682.729 65.865,1521.729 64.008,1521.729" fill="none"/>
      <polyline points="64.008,1522.729 0.500,1522.729 0.500,1681.730 64.008,1681.730" fill="none"/>
      <polyline points="64.008,1681.730 64.865,1681.730 64.865,1522.729 64.008,1522.729" fill="none"/>
      <polyline points="63.865,1523.729 1.500,1523.729 1.500,1680.730 63.865,1680.730 63.865,1523.729" fill="none"/>
      <polyline points="62.865,1524.729 2.500,1524.729 2.500,1679.729 62.865,1679.729 62.865,1524.729" fill="none"/>
    </g>
    <g stroke="#C62828" stroke-width="0.4" fill="none">
      <polygon points="295.257,1536.297 296.942,1535.214 298.253,1533.701 299.085,1531.879 299.370,1529.896 299.085,1527.914 298.253,1526.092 296.942,1524.578 295.257,1523.495 293.335,1522.931 291.332,1522.931 289.410,1523.495 287.725,1524.578 286.413,1526.092 285.581,1527.914 285.296,1529.896 285.581,1531.879 286.413,1533.701 287.725,1535.214 289.410,1536.297 291.332,1536.862 293.335,1536.862"/>
      <polygon points="314.881,1536.388 316.681,1535.348 318.095,1533.825 318.997,1531.952 319.307,1529.896 318.997,1527.841 318.095,1525.968 316.681,1524.444 314.881,1523.404 312.854,1522.942 310.782,1523.097 308.846,1523.857 307.221,1525.153 306.050,1526.870 305.437,1528.857 305.437,1530.936 306.050,1532.922 307.221,1534.640 308.846,1535.936 310.782,1536.695 312.854,1536.850"/>
      <polygon points="274.833,1536.266 276.600,1535.246 277.987,1533.751 278.872,1531.913 279.176,1529.896 278.872,1527.879 277.987,1526.041 276.600,1524.546 274.833,1523.526 272.845,1523.072 270.811,1523.225 268.912,1523.970 267.317,1525.242 266.168,1526.927 265.567,1528.876 265.567,1530.916 266.168,1532.865 267.317,1534.551 268.912,1535.822 270.811,1536.567 272.845,1536.720"/>
      <polygon points="334.809,1536.203 336.558,1535.193 337.931,1533.713 338.808,1531.893 339.109,1529.896 338.808,1527.899 337.931,1526.080 336.558,1524.599 334.809,1523.589 332.840,1523.140 330.826,1523.291 328.946,1524.029 327.367,1525.288 326.229,1526.957 325.634,1528.886 325.634,1530.906 326.229,1532.836 327.367,1534.504 328.946,1535.764 330.826,1536.502 332.840,1536.652"/>
      <polygon points="354.757,1536.072 356.470,1535.084 357.815,1533.634 358.673,1531.852 358.968,1529.896 358.673,1527.940 357.815,1526.159 356.470,1524.709 354.757,1523.720 352.829,1523.280 350.857,1523.428 349.016,1524.150 347.470,1525.383 346.355,1527.017 345.773,1528.907 345.773,1530.885 346.355,1532.775 347.470,1534.409 349.016,1535.642 350.857,1536.365 352.829,1536.513"/>
      <polygon points="254.757,1536.072 256.470,1535.084 257.815,1533.634 258.673,1531.852 258.968,1529.896 258.673,1527.940 257.815,1526.159 256.470,1524.709 254.757,1523.720 252.829,1523.280 250.857,1523.428 249.016,1524.150 247.470,1525.383 246.355,1527.017 245.773,1528.907 245.773,1530.885 246.355,1532.775 247.470,1534.409 249.016,1535.642 250.857,1536.365 252.829,1536.513"/>
      <polygon points="234.338,1536.066 236.147,1535.145 237.582,1533.710 238.504,1531.901 238.821,1529.896 238.504,1527.891 237.582,1526.083 236.147,1524.647 234.338,1523.726 232.333,1523.408 230.329,1523.726 228.520,1524.647 227.085,1526.083 226.163,1527.891 225.846,1529.896 226.163,1531.901 227.085,1533.710 228.520,1535.145 230.329,1536.066 232.333,1536.384"/>
      <polygon points="374.315,1535.994 376.102,1535.083 377.520,1533.665 378.431,1531.877 378.745,1529.896 378.431,1527.915 377.520,1526.128 376.102,1524.709 374.315,1523.798 372.333,1523.485 370.352,1523.798 368.565,1524.709 367.146,1526.128 366.236,1527.915 365.922,1529.896 366.236,1531.877 367.146,1533.665 368.565,1535.083 370.352,1535.994 372.333,1536.308"/>
      <polygon points="214.266,1535.843 216.009,1534.955 217.392,1533.572 218.280,1531.828 218.587,1529.896 218.280,1527.964 217.392,1526.221 216.009,1524.837 214.266,1523.949 212.333,1523.643 210.401,1523.949 208.658,1524.837 207.274,1526.221 206.386,1527.964 206.080,1529.896 206.386,1531.828 207.274,1533.572 208.658,1534.955 210.401,1535.843 212.333,1536.149"/>
      <polygon points="394.240,1535.765 395.961,1534.889 397.326,1533.523 398.202,1531.803 398.504,1529.896 398.202,1527.989 397.326,1526.269 395.961,1524.904 394.240,1524.027 392.333,1523.725 390.426,1524.027 388.706,1524.904 387.341,1526.269 386.464,1527.989 386.162,1529.896 386.464,1531.803 387.341,1533.523 388.706,1534.889 390.426,1535.765 392.333,1536.067"/>
      <polygon points="414.187,1535.602 415.860,1534.750 417.187,1533.423 418.040,1531.750 418.333,1529.896 418.040,1528.042 417.187,1526.369 415.860,1525.042 414.187,1524.190 412.333,1523.896 410.479,1524.190 408.807,1525.042 407.479,1526.369 406.627,1528.042 406.333,1529.896 406.627,1531.750 407.479,1533.423 408.807,1534.750 410.479,1535.602 412.333,1535.896"/>
      <polygon points="194.187,1535.602 195.860,1534.750 197.187,1533.423 198.040,1531.750 198.333,1529.896 198.040,1528.042 197.187,1526.369 195.860,1525.042 194.187,1524.190 192.333,1523.896 190.479,1524.190 188.807,1525.042 187.479,1526.369 186.627,1528.042 186.333,1529.896 186.627,1531.750 187.479,1533.423 188.807,1534.750 190.479,1535.602 192.333,1535.896"/>
      <polygon points="173.762,1535.538 175.516,1534.768 176.926,1533.471 177.838,1531.786 178.153,1529.896 177.838,1528.006 176.926,1526.322 175.516,1525.024 173.762,1524.254 171.853,1524.096 169.996,1524.567 168.392,1525.614 167.215,1527.126 166.593,1528.938 166.593,1530.854 167.215,1532.666 168.392,1534.178 169.996,1535.226 171.853,1535.696"/>
      <polygon points="433.739,1535.447 435.465,1534.690 436.852,1533.413 437.749,1531.755 438.059,1529.896 437.749,1528.037 436.852,1526.379 435.465,1525.103 433.739,1524.345 431.861,1524.190 430.033,1524.652 428.455,1525.683 427.297,1527.171 426.685,1528.954 426.685,1530.839 427.297,1532.621 428.455,1534.109 430.033,1535.140 431.861,1535.603"/>
      <polygon points="154.995,1534.507 156.412,1533.318 157.336,1531.717 157.657,1529.896 157.336,1528.075 156.412,1526.474 154.995,1525.286 153.258,1524.653 151.409,1524.653 149.671,1525.286 148.255,1526.474 147.331,1528.075 147.010,1529.896 147.331,1531.717 148.255,1533.318 149.671,1534.507 151.409,1535.139 153.258,1535.139"/>
      <polygon points="454.886,1534.317 456.244,1533.177 457.130,1531.642 457.438,1529.896 457.130,1528.150 456.244,1526.615 454.886,1525.476 453.220,1524.869 451.447,1524.869 449.781,1525.476 448.423,1526.615 447.537,1528.150 447.229,1529.896 447.537,1531.642 448.423,1533.177 449.781,1534.317 451.447,1534.923 453.220,1534.923"/>
      <polygon points="134.053,1534.049 135.512,1533.074 136.486,1531.616 136.828,1529.896 136.486,1528.176 135.512,1526.718 134.053,1525.744 132.333,1525.402 130.613,1525.744 129.155,1526.718 128.181,1528.176 127.839,1529.896 128.181,1531.616 129.155,1533.074 130.613,1534.049 132.333,1534.391"/>
      <polygon points="473.949,1533.797 475.319,1532.882 476.234,1531.512 476.556,1529.896 476.234,1528.280 475.319,1526.911 473.949,1525.995 472.333,1525.674 470.718,1525.995 469.348,1526.911 468.433,1528.280 468.111,1529.896 468.433,1531.512 469.348,1532.882 470.718,1533.797 472.333,1534.118"/>
      <polygon points="114.487,1532.597 115.446,1531.395 115.788,1529.896 115.446,1528.397 114.487,1527.195 113.102,1526.528 111.565,1526.528 110.179,1527.195 109.221,1528.397 108.879,1529.896 109.221,1531.395 110.179,1532.597 111.565,1533.264 113.102,1533.264"/>
      <polygon points="494.270,1532.325 495.133,1531.244 495.440,1529.896 495.133,1528.548 494.270,1527.467 493.025,1526.867 491.642,1526.867 490.396,1527.467 489.534,1528.548 489.226,1529.896 489.534,1531.244 490.396,1532.325 491.642,1532.925 493.025,1532.925"/>
      <polygon points="93.389,1531.724 94.162,1530.952 94.444,1529.896 94.162,1528.841 93.389,1528.068 92.333,1527.785 91.278,1528.068 90.505,1528.841 90.222,1529.896 90.505,1530.952 91.278,1531.724 92.333,1532.007"/>
      <polygon points="513.333,1531.628 514.065,1530.896 514.333,1529.896 514.065,1528.896 513.333,1528.164 512.333,1527.896 511.333,1528.164 510.601,1528.896 510.333,1529.896 510.601,1530.896 511.333,1531.628 512.333,1531.896"/>
      <polygon points="295.257,1556.297 296.942,1555.214 298.253,1553.701 299.085,1551.879 299.370,1549.896 299.085,1547.914 298.253,1546.092 296.942,1544.578 295.257,1543.495 293.335,1542.931 291.332,1542.931 289.410,1543.495 287.725,1544.578 286.413,1546.092 285.581,1547.914 285.296,1549.896 285.581,1551.879 286.413,1553.701 287.725,1555.214 289.410,1556.297 291.332,1556.862 293.335,1556.862"/>
      <polygon points="314.881,1556.388 316.681,1555.348 318.095,1553.825 318.997,1551.952 319.307,1549.896 318.997,1547.841 318.095,1545.968 316.681,1544.444 314.881,1543.404 312.854,1542.942 310.782,1543.097 308.846,1543.857 307.221,1545.153 306.050,1546.870 305.437,1548.857 305.437,1550.936 306.050,1552.922 307.221,1554.640 308.846,1555.936 310.782,1556.695 312.854,1556.850"/>
      <polygon points="274.833,1556.266 276.600,1555.246 277.987,1553.751 278.872,1551.913 279.176,1549.896 278.872,1547.879 277.987,1546.041 276.600,1544.546 274.833,1543.526 272.845,1543.072 270.811,1543.225 268.912,1543.970 267.317,1545.242 266.168,1546.927 265.567,1548.876 265.567,1550.916 266.168,1552.865 267.317,1554.551 268.912,1555.822 270.811,1556.567 272.845,1556.720"/>
      <polygon points="334.809,1556.203 336.558,1555.193 337.931,1553.713 338.808,1551.893 339.109,1549.896 338.808,1547.899 337.931,1546.080 336.558,1544.599 334.809,1543.589 332.840,1543.140 330.826,1543.291 328.946,1544.029 327.367,1545.288 326.229,1546.957 325.634,1548.886 325.634,1550.906 326.229,1552.836 327.367,1554.504 328.946,1555.764 330.826,1556.502 332.840,1556.652"/>
      <polygon points="254.757,1556.072 256.470,1555.084 257.815,1553.634 258.673,1551.852 258.968,1549.896 258.673,1547.940 257.815,1546.159 256.470,1544.709 254.757,1543.720 252.829,1543.280 250.857,1543.428 249.016,1544.150 247.470,1545.383 246.355,1547.017 245.773,1548.907 245.773,1550.885 246.355,1552.775 247.470,1554.409 249.016,1555.642 250.857,1556.365 252.829,1556.513"/>
      <polygon points="354.757,1556.072 356.470,1555.084 357.815,1553.634 358.673,1551.852 358.968,1549.896 358.673,1547.940 357.815,1546.159 356.470,1544.709 354.757,1543.720 352.829,1543.280 350.857,1543.428 349.016,1544.150 347.470,1545.383 346.355,1547.017 345.773,1548.907 345.773,1550.885 346.355,1552.775 347.470,1554.409 349.016,1555.642 350.857,1556.365 352.829,1556.513"/>
      <polygon points="234.338,1556.066 236.147,1555.145 237.582,1553.710 238.504,1551.901 238.821,1549.896 238.504,1547.891 237.582,1546.083 236.147,1544.647 234.338,1543.726 232.333,1543.408 230.329,1543.726 228.520,1544.647 227.085,1546.083 226.163,1547.891 225.846,1549.896 226.163,1551.901 227.085,1553.710 228.520,1555.145 230.329,1556.066 232.333,1556.384"/>
      <polygon points="374.315,1555.994 376.102,1555.083 377.520,1553.665 378.431,1551.877 378.745,1549.896 378.431,1547.915 377.520,1546.128 376.102,1544.709 374.315,1543.798 372.333,1543.485 370.352,1543.798 368.565,1544.709 367.146,1546.128 366.236,1547.915 365.922,1549.896 366.236,1551.877 367.146,1553.665 368.565,1555.083 370.352,1555.994 372.333,1556.308"/>
      <polygon points="214.266,1555.843 216.009,1554.955 217.392,1553.572 218.280,1551.828 218.587,1549.896 218.280,1547.964 217.392,1546.221 216.009,1544.837 214.266,1543.949 212.333,1543.643 210.401,1543.949 208.658,1544.837 207.274,1546.221 206.386,1547.964 206.080,1549.896 206.386,1551.828 207.274,1553.572 208.658,1554.955 210.401,1555.843 212.333,1556.149"/>
      <polygon points="394.240,1555.765 395.961,1554.889 397.326,1553.523 398.202,1551.803 398.504,1549.896 398.202,1547.989 397.326,1546.269 395.961,1544.904 394.240,1544.027 392.333,1543.725 390.426,1544.027 388.706,1544.904 387.341,1546.269 386.464,1547.989 386.162,1549.896 386.464,1551.803 387.341,1553.523 388.706,1554.889 390.426,1555.765 392.333,1556.067"/>
      <polygon points="194.187,1555.602 195.860,1554.750 197.187,1553.423 198.040,1551.750 198.333,1549.896 198.040,1548.042 197.187,1546.369 195.860,1545.042 194.187,1544.190 192.333,1543.896 190.479,1544.190 188.807,1545.042 187.479,1546.369 186.627,1548.042 186.333,1549.896 186.627,1551.750 187.479,1553.423 188.807,1554.750 190.479,1555.602 192.333,1555.896"/>
      <polygon points="414.187,1555.602 415.860,1554.750 417.187,1553.423 418.040,1551.750 418.333,1549.896 418.040,1548.042 417.187,1546.369 415.860,1545.042 414.187,1544.190 412.333,1543.896 410.479,1544.190 408.807,1545.042 407.479,1546.369 406.627,1548.042 406.333,1549.896 406.627,1551.750 407.479,1553.423 408.807,1554.750 410.479,1555.602 412.333,1555.896"/>
      <polygon points="173.762,1555.538 175.516,1554.768 176.926,1553.471 177.838,1551.786 178.153,1549.896 177.838,1548.006 176.926,1546.322 175.516,1545.024 173.762,1544.254 171.853,1544.096 169.996,1544.567 168.392,1545.614 167.215,1547.126 166.593,1548.938 166.593,1550.854 167.215,1552.666 168.392,1554.178 169.996,1555.226 171.853,1555.696"/>
      <polygon points="433.739,1555.447 435.465,1554.690 436.852,1553.413 437.749,1551.755 438.059,1549.896 437.749,1548.037 436.852,1546.379 435.465,1545.103 433.739,1544.345 431.861,1544.190 430.033,1544.652 428.455,1545.683 427.297,1547.171 426.685,1548.954 426.685,1550.839 427.297,1552.621 428.455,1554.109 430.033,1555.140 431.861,1555.603"/>
      <polygon points="154.995,1554.507 156.412,1553.318 157.336,1551.717 157.657,1549.896 157.336,1548.075 156.412,1546.474 154.995,1545.286 153.258,1544.653 151.409,1544.653 149.671,1545.286 148.255,1546.474 147.331,1548.075 147.010,1549.896 147.331,1551.717 148.255,1553.318 149.671,1554.507 151.409,1555.139 153.258,1555.139"/>
      <polygon points="454.886,1554.317 456.244,1553.177 457.130,1551.642 457.438,1549.896 457.130,1548.150 456.244,1546.615 454.886,1545.476 453.220,1544.869 451.447,1544.869 449.781,1545.476 448.423,1546.615 447.537,1548.150 447.229,1549.896 447.537,1551.642 448.423,1553.177 449.781,1554.317 451.447,1554.923 453.220,1554.923"/>
      <polygon points="134.053,1554.049 135.512,1553.074 136.486,1551.616 136.828,1549.896 136.486,1548.176 135.512,1546.718 134.053,1545.744 132.333,1545.402 130.613,1545.744 129.155,1546.718 128.181,1548.176 127.839,1549.896 128.181,1551.616 129.155,1553.074 130.613,1554.049 132.333,1554.391"/>
      <polygon points="473.949,1553.797 475.319,1552.882 476.234,1551.512 476.556,1549.896 476.234,1548.280 475.319,1546.911 473.949,1545.995 472.333,1545.674 470.718,1545.995 469.348,1546.911 468.433,1548.280 468.111,1549.896 468.433,1551.512 469.348,1552.882 470.718,1553.797 472.333,1554.118"/>
      <polygon points="114.487,1552.597 115.446,1551.395 115.788,1549.896 115.446,1548.397 114.487,1547.195 113.102,1546.528 111.565,1546.528 110.179,1547.195 109.221,1548.397 108.879,1549.896 109.221,1551.395 110.179,1552.597 111.565,1553.264 113.102,1553.264"/>
      <polygon points="494.270,1552.325 495.133,1551.244 495.440,1549.896 495.133,1548.548 494.270,1547.467 493.025,1546.867 491.642,1546.867 490.396,1547.467 489.534,1548.548 489.226,1549.896 489.534,1551.244 490.396,1552.325 491.642,1552.925 493.025,1552.925"/>
      <polygon points="93.389,1551.724 94.162,1550.952 94.444,1549.896 94.162,1548.841 93.389,1548.068 92.333,1547.785 91.278,1548.068 90.505,1548.841 90.222,1549.896 90.505,1550.952 91.278,1551.724 92.333,1552.007"/>
      <polygon points="513.333,1551.628 514.065,1550.896 514.333,1549.896 514.065,1548.896 513.333,1548.164 512.333,1547.896 511.333,1548.164 510.601,1548.896 510.333,1549.896 510.601,1550.896 511.333,1551.628 512.333,1551.896"/>
      <polygon points="295.257,1576.297 296.942,1575.214 298.253,1573.701 299.085,1571.879 299.370,1569.896 299.085,1567.914 298.253,1566.092 296.942,1564.578 295.257,1563.495 293.335,1562.931 291.332,1562.931 289.410,1563.495 287.725,1564.578 286.413,1566.092 285.581,1567.914 285.296,1569.896 285.581,1571.879 286.413,1573.701 287.725,1575.214 289.410,1576.297 291.332,1576.862 293.335,1576.862"/>
      <polygon points="314.881,1576.388 316.681,1575.348 318.095,1573.825 318.997,1571.952 319.307,1569.896 318.997,1567.841 318.095,1565.968 316.681,1564.444 314.881,1563.404 312.854,1562.942 310.782,1563.097 308.846,1563.857 307.221,1565.153 306.050,1566.870 305.437,1568.857 305.437,1570.936 306.050,1572.922 307.221,1574.640 308.846,1575.936 310.782,1576.695 312.854,1576.850"/>
      <polygon points="274.833,1576.266 276.600,1575.246 277.987,1573.751 278.872,1571.913 279.176,1569.896 278.872,1567.879 277.987,1566.041 276.600,1564.546 274.833,1563.526 272.845,1563.072 270.811,1563.225 268.912,1563.970 267.317,1565.242 266.168,1566.927 265.567,1568.876 265.567,1570.916 266.168,1572.865 267.317,1574.551 268.912,1575.822 270.811,1576.567 272.845,1576.720"/>
      <polygon points="334.809,1576.203 336.558,1575.193 337.931,1573.713 338.808,1571.893 339.109,1569.896 338.808,1567.899 337.931,1566.080 336.558,1564.599 334.809,1563.589 332.840,1563.140 330.826,1563.291 328.946,1564.029 327.367,1565.288 326.229,1566.957 325.634,1568.886 325.634,1570.906 326.229,1572.836 327.367,1574.504 328.946,1575.764 330.826,1576.502 332.840,1576.652"/>
      <polygon points="254.757,1576.072 256.470,1575.084 257.815,1573.634 258.673,1571.852 258.968,1569.896 258.673,1567.940 257.815,1566.159 256.470,1564.709 254.757,1563.720 252.829,1563.280 250.857,1563.428 249.016,1564.150 247.470,1565.383 246.355,1567.017 245.773,1568.907 245.773,1570.885 246.355,1572.775 247.470,1574.409 249.016,1575.642 250.857,1576.365 252.829,1576.513"/>
      <polygon points="354.757,1576.072 356.470,1575.084 357.815,1573.634 358.673,1571.852 358.968,1569.896 358.673,1567.940 357.815,1566.159 356.470,1564.709 354.757,1563.720 352.829,1563.280 350.857,1563.428 349.016,1564.150 347.470,1565.383 346.355,1567.017 345.773,1568.907 345.773,1570.885 346.355,1572.775 347.470,1574.409 349.016,1575.642 350.857,1576.365 352.829,1576.513"/>
      <polygon points="234.338,1576.066 236.147,1575.145 237.582,1573.710 238.504,1571.901 238.821,1569.896 238.504,1567.891 237.582,1566.083 236.147,1564.647 234.338,1563.726 232.333,1563.408 230.329,1563.726 228.520,1564.647 227.085,1566.083 226.163,1567.891 225.846,1569.896 226.163,1571.901 227.085,1573.710 228.520,1575.145 230.329,1576.066 232.333,1576.384"/>
      <polygon points="374.315,1575.994 376.102,1575.083 377.520,1573.665 378.431,1571.877 378.745,1569.896 378.431,1567.915 377.520,1566.128 376.102,1564.709 374.315,1563.798 372.333,1563.485 370.352,1563.798 368.565,1564.709 367.146,1566.128 366.236,1567.915 365.922,1569.896 366.236,1571.877 367.146,1573.665 368.565,1575.083 370.352,1575.994 372.333,1576.308"/>
      <polygon points="214.266,1575.843 216.009,1574.955 217.392,1573.572 218.280,1571.828 218.587,1569.896 218.280,1567.964 217.392,1566.221 216.009,1564.837 214.266,1563.949 212.333,1563.643 210.401,1563.949 208.658,1564.837 207.274,1566.221 206.386,1567.964 206.080,1569.896 206.386,1571.828 207.274,1573.572 208.658,1574.955 210.401,1575.843 212.333,1576.149"/>
      <polygon points="394.240,1575.765 395.961,1574.889 397.326,1573.523 398.202,1571.803 398.504,1569.896 398.202,1567.989 397.326,1566.269 395.961,1564.904 394.240,1564.027 392.333,1563.725 390.426,1564.027 388.706,1564.904 387.341,1566.269 386.464,1567.989 386.162,1569.896 386.464,1571.803 387.341,1573.523 388.706,1574.889 390.426,1575.765 392.333,1576.067"/>
      <polygon points="194.187,1575.602 195.860,1574.750 197.187,1573.423 198.040,1571.750 198.333,1569.896 198.040,1568.042 197.187,1566.369 195.860,1565.042 194.187,1564.190 192.333,1563.896 190.479,1564.190 188.807,1565.042 187.479,1566.369 186.627,1568.042 186.333,1569.896 186.627,1571.750 187.479,1573.423 188.807,1574.750 190.479,1575.602 192.333,1575.896"/>
      <polygon points="414.187,1575.602 415.860,1574.750 417.187,1573.423 418.040,1571.750 418.333,1569.896 418.040,1568.042 417.187,1566.369 415.860,1565.042 414.187,1564.190 412.333,1563.896 410.479,1564.190 408.807,1565.042 407.479,1566.369 406.627,1568.042 406.333,1569.896 406.627,1571.750 407.479,1573.423 408.807,1574.750 410.479,1575.602 412.333,1575.896"/>
      <polygon points="173.762,1575.538 175.516,1574.768 176.926,1573.471 177.838,1571.786 178.153,1569.896 177.838,1568.006 176.926,1566.322 175.516,1565.024 173.762,1564.254 171.853,1564.096 169.996,1564.567 168.392,1565.614 167.215,1567.126 166.593,1568.938 166.593,1570.854 167.215,1572.666 168.392,1574.178 169.996,1575.226 171.853,1575.696"/>
      <polygon points="433.739,1575.447 435.465,1574.690 436.852,1573.413 437.749,1571.755 438.059,1569.896 437.749,1568.037 436.852,1566.379 435.465,1565.103 433.739,1564.345 431.861,1564.190 430.033,1564.652 428.455,1565.683 427.297,1567.171 426.685,1568.954 426.685,1570.839 427.297,1572.621 428.455,1574.109 430.033,1575.140 431.861,1575.603"/>
      <polygon points="154.995,1574.507 156.412,1573.318 157.336,1571.717 157.657,1569.896 157.336,1568.075 156.412,1566.474 154.995,1565.286 153.258,1564.653 151.409,1564.653 149.671,1565.286 148.255,1566.474 147.331,1568.075 147.010,1569.896 147.331,1571.717 148.255,1573.318 149.671,1574.507 151.409,1575.139 153.258,1575.139"/>
      <polygon points="454.886,1574.317 456.244,1573.177 457.130,1571.642 457.438,1569.896 457.130,1568.150 456.244,1566.615 454.886,1565.476 453.220,1564.869 451.447,1564.869 449.781,1565.476 448.423,1566.615 447.537,1568.150 447.229,1569.896 447.537,1571.642 448.423,1573.177 449.781,1574.317 451.447,1574.923 453.220,1574.923"/>
      <polygon points="134.053,1574.049 135.512,1573.074 136.486,1571.616 136.828,1569.896 136.486,1568.176 135.512,1566.718 134.053,1565.744 132.333,1565.402 130.613,1565.744 129.155,1566.718 128.181,1568.176 127.839,1569.896 128.181,1571.616 129.155,1573.074 130.613,1574.049 132.333,1574.391"/>
      <polygon points="473.949,1573.797 475.319,1572.882 476.234,1571.512 476.556,1569.896 476.234,1568.280 475.319,1566.911 473.949,1565.995 472.333,1565.674 470.718,1565.995 469.348,1566.911 468.433,1568.280 468.111,1569.896 468.433,1571.512 469.348,1572.882 470.718,1573.797 472.333,1574.118"/>
      <polygon points="114.487,1572.597 115.446,1571.395 115.788,1569.896 115.446,1568.397 114.487,1567.195 113.102,1566.528 111.565,1566.528 110.179,1567.195 109.221,1568.397 108.879,1569.896 109.221,1571.395 110.179,1572.597 111.565,1573.264 113.102,1573.264"/>
      <polygon points="494.270,1572.325 495.133,1571.244 495.440,1569.896 495.133,1568.548 494.270,1567.467 493.025,1566.867 491.642,1566.867 490.396,1567.467 489.534,1568.548 489.226,1569.896 489.534,1571.244 490.396,1572.325 491.642,1572.925 493.025,1572.925"/>
      <polygon points="93.389,1571.724 94.162,1570.952 94.444,1569.896 94.162,1568.841 93.389,1568.068 92.333,1567.785 91.278,1568.068 90.505,1568.841 90.222,1569.896 90.505,1570.952 91.278,1571.724 92.333,1572.007"/>
      <polygon points="513.333,1571.628 514.065,1570.896 514.333,1569.896 514.065,1568.896 513.333,1568.164 512.333,1567.896 511.333,1568.164 510.601,1568.896 510.333,1569.896 510.601,1570.896 511.333,1571.628 512.333,1571.896"/>
      <polygon points="295.257,1596.297 296.942,1595.214 298.253,1593.701 299.085,1591.879 299.370,1589.896 299.085,1587.914 298.253,1586.092 296.942,1584.578 295.257,1583.495 293.335,1582.931 291.332,1582.931 289.410,1583.495 287.725,1584.578 286.413,1586.092 285.581,1587.914 285.296,1589.896 285.581,1591.879 286.413,1593.701 287.725,1595.214 289.410,1596.297 291.332,1596.862 293.335,1596.862"/>
      <polygon points="314.881,1596.388 316.681,1595.348 318.095,1593.825 318.997,1591.952 319.307,1589.896 318.997,1587.841 318.095,1585.968 316.681,1584.444 314.881,1583.404 312.854,1582.942 310.782,1583.097 308.846,1583.857 307.221,1585.153 306.050,1586.870 305.437,1588.857 305.437,1590.936 306.050,1592.922 307.221,1594.640 308.846,1595.936 310.782,1596.695 312.854,1596.850"/>
      <polygon points="274.833,1596.266 276.600,1595.246 277.987,1593.751 278.872,1591.913 279.176,1589.896 278.872,1587.879 277.987,1586.041 276.600,1584.546 274.833,1583.526 272.845,1583.072 270.811,1583.225 268.912,1583.970 267.317,1585.242 266.168,1586.927 265.567,1588.876 265.567,1590.916 266.168,1592.865 267.317,1594.551 268.912,1595.822 270.811,1596.567 272.845,1596.720"/>
      <polygon points="334.809,1596.203 336.558,1595.193 337.931,1593.713 338.808,1591.893 339.109,1589.896 338.808,1587.899 337.931,1586.080 336.558,1584.599 334.809,1583.589 332.840,1583.140 330.826,1583.291 328.946,1584.029 327.367,1585.288 326.229,1586.957 325.634,1588.886 325.634,1590.906 326.229,1592.836 327.367,1594.504 328.946,1595.764 330.826,1596.502 332.840,1596.652"/>
      <polygon points="254.757,1596.072 256.470,1595.084 257.815,1593.634 258.673,1591.852 258.968,1589.896 258.673,1587.940 257.815,1586.159 256.470,1584.709 254.757,1583.720 252.829,1583.280 250.857,1583.428 249.016,1584.150 247.470,1585.383 246.355,1587.017 245.773,1588.907 245.773,1590.885 246.355,1592.775 247.470,1594.409 249.016,1595.642 250.857,1596.365 252.829,1596.513"/>
      <polygon points="354.757,1596.072 356.470,1595.084 357.815,1593.634 358.673,1591.852 358.968,1589.896 358.673,1587.940 357.815,1586.159 356.470,1584.709 354.757,1583.720 352.829,1583.280 350.857,1583.428 349.016,1584.150 347.470,1585.383 346.355,1587.017 345.773,1588.907 345.773,1590.885 346.355,1592.775 347.470,1594.409 349.016,1595.642 350.857,1596.365 352.829,1596.513"/>
      <polygon points="234.338,1596.066 236.147,1595.145 237.582,1593.710 238.504,1591.901 238.821,1589.896 238.504,1587.891 237.582,1586.083 236.147,1584.647 234.338,1583.726 232.333,1583.408 230.329,1583.726 228.520,1584.647 227.085,1586.083 226.163,1587.891 225.846,1589.896 226.163,1591.901 227.085,1593.710 228.520,1595.145 230.329,1596.066 232.333,1596.384"/>
      <polygon points="374.315,1595.994 376.102,1595.083 377.520,1593.665 378.431,1591.877 378.745,1589.896 378.431,1587.915 377.520,1586.128 376.102,1584.709 374.315,1583.798 372.333,1583.485 370.352,1583.798 368.565,1584.709 367.146,1586.128 366.236,1587.915 365.922,1589.896 366.236,1591.877 367.146,1593.665 368.565,1595.083 370.352,1595.994 372.333,1596.308"/>
      <polygon points="214.266,1595.843 216.009,1594.955 217.392,1593.572 218.280,1591.828 218.587,1589.896 218.280,1587.964 217.392,1586.221 216.009,1584.837 214.266,1583.949 212.333,1583.643 210.401,1583.949 208.658,1584.837 207.274,1586.221 206.386,1587.964 206.080,1589.896 206.386,1591.828 207.274,1593.572 208.658,1594.955 210.401,1595.843 212.333,1596.149"/>
      <polygon points="394.240,1595.765 395.961,1594.889 397.326,1593.523 398.202,1591.803 398.504,1589.896 398.202,1587.989 397.326,1586.269 395.961,1584.904 394.240,1584.027 392.333,1583.725 390.426,1584.027 388.706,1584.904 387.341,1586.269 386.464,1587.989 386.162,1589.896 386.464,1591.803 387.341,1593.523 388.706,1594.889 390.426,1595.765 392.333,1596.067"/>
      <polygon points="194.187,1595.602 195.860,1594.750 197.187,1593.423 198.040,1591.750 198.333,1589.896 198.040,1588.042 197.187,1586.369 195.860,1585.042 194.187,1584.190 192.333,1583.896 190.479,1584.190 188.807,1585.042 187.479,1586.369 186.627,1588.042 186.333,1589.896 186.627,1591.750 187.479,1593.423 188.807,1594.750 190.479,1595.602 192.333,1595.896"/>
      <polygon points="414.187,1595.602 415.860,1594.750 417.187,1593.423 418.040,1591.750 418.333,1589.896 418.040,1588.042 417.187,1586.369 415.860,1585.042 414.187,1584.190 412.333,1583.896 410.479,1584.190 408.807,1585.042 407.479,1586.369 406.627,1588.042 406.333,1589.896 406.627,1591.750 407.479,1593.423 408.807,1594.750 410.479,1595.602 412.333,1595.896"/>
      <polygon points="173.762,1595.538 175.516,1594.768 176.926,1593.471 177.838,1591.786 178.153,1589.896 177.838,1588.006 176.926,1586.322 175.516,1585.024 173.762,1584.254 171.853,1584.096 169.996,1584.567 168.392,1585.614 167.215,1587.126 166.593,1588.938 166.593,1590.854 167.215,1592.666 168.392,1594.178 169.996,1595.226 171.853,1595.696"/>
      <polygon points="433.739,1595.447 435.465,1594.690 436.852,1593.413 437.749,1591.755 438.059,1589.896 437.749,1588.037 436.852,1586.379 435.465,1585.103 433.739,1584.345 431.861,1584.190 430.033,1584.652 428.455,1585.683 427.297,1587.171 426.685,1588.954 426.685,1590.839 427.297,1592.621 428.455,1594.109 430.033,1595.140 431.861,1595.603"/>
      <polygon points="154.995,1594.507 156.412,1593.318 157.336,1591.717 157.657,1589.896 157.336,1588.075 156.412,1586.474 154.995,1585.286 153.258,1584.653 151.409,1584.653 149.671,1585.286 148.255,1586.474 147.331,1588.075 147.010,1589.896 147.331,1591.717 148.255,1593.318 149.671,1594.507 151.409,1595.139 153.258,1595.139"/>
      <polygon points="454.886,1594.317 456.244,1593.177 457.130,1591.642 457.438,1589.896 457.130,1588.150 456.244,1586.615 454.886,1585.476 453.220,1584.869 451.447,1584.869 449.781,1585.476 448.423,1586.615 447.537,1588.150 447.229,1589.896 447.537,1591.642 448.423,1593.177 449.781,1594.317 451.447,1594.923 453.220,1594.923"/>
      <polygon points="134.053,1594.049 135.512,1593.074 136.486,1591.616 136.828,1589.896 136.486,1588.176 135.512,1586.718 134.053,1585.744 132.333,1585.402 130.613,1585.744 129.155,1586.718 128.181,1588.176 127.839,1589.896 128.181,1591.616 129.155,1593.074 130.613,1594.049 132.333,1594.391"/>
      <polygon points="473.949,1593.797 475.319,1592.882 476.234,1591.512 476.556,1589.896 476.234,1588.280 475.319,1586.911 473.949,1585.995 472.333,1585.674 470.718,1585.995 469.348,1586.911 468.433,1588.280 468.111,1589.896 468.433,1591.512 469.348,1592.882 470.718,1593.797 472.333,1594.118"/>
      <polygon points="114.487,1592.597 115.446,1591.395 115.788,1589.896 115.446,1588.397 114.487,1587.195 113.102,1586.528 111.565,1586.528 110.179,1587.195 109.221,1588.397 108.879,1589.896 109.221,1591.395 110.179,1592.597 111.565,1593.264 113.102,1593.264"/>
      <polygon points="494.270,1592.325 495.133,1591.244 495.440,1589.896 495.133,1588.548 494.270,1587.467 493.025,1586.867 491.642,1586.867 490.396,1587.467 489.534,1588.548 489.226,1589.896 489.534,1591.244 490.396,1592.325 491.642,1592.925 493.025,1592.925"/>
      <polygon points="93.389,1591.724 94.162,1590.952 94.444,1589.896 94.162,1588.841 93.389,1588.068 92.333,1587.785 91.278,1588.068 90.505,1588.841 90.222,1589.896 90.505,1590.952 91.278,1591.724 92.333,1592.007"/>
      <polygon points="513.333,1591.628 514.065,1590.896 514.333,1589.896 514.065,1588.896 513.333,1588.164 512.333,1587.896 511.333,1588.164 510.601,1588.896 510.333,1589.896 510.601,1590.896 511.333,1591.628 512.333,1591.896"/>
      <polygon points="295.257,1616.297 296.942,1615.214 298.253,1613.701 299.085,1611.879 299.370,1609.896 299.085,1607.914 298.253,1606.092 296.942,1604.578 295.257,1603.495 293.335,1602.931 291.332,1602.931 289.410,1603.495 287.725,1604.578 286.413,1606.092 285.581,1607.914 285.296,1609.896 285.581,1611.879 286.413,1613.701 287.725,1615.214 289.410,1616.297 291.332,1616.862 293.335,1616.862"/>
      <polygon points="314.881,1616.388 316.681,1615.348 318.095,1613.825 318.997,1611.952 319.307,1609.896 318.997,1607.841 318.095,1605.968 316.681,1604.444 314.881,1603.404 312.854,1602.942 310.782,1603.097 308.846,1603.857 307.221,1605.153 306.050,1606.870 305.437,1608.857 305.437,1610.936 306.050,1612.922 307.221,1614.640 308.846,1615.936 310.782,1616.695 312.854,1616.850"/>
      <polygon points="274.833,1616.266 276.600,1615.246 277.987,1613.751 278.872,1611.913 279.176,1609.896 278.872,1607.879 277.987,1606.041 276.600,1604.546 274.833,1603.526 272.845,1603.072 270.811,1603.225 268.912,1603.970 267.317,1605.242 266.168,1606.927 265.567,1608.876 265.567,1610.916 266.168,1612.865 267.317,1614.551 268.912,1615.822 270.811,1616.567 272.845,1616.720"/>
      <polygon points="334.809,1616.203 336.558,1615.193 337.931,1613.713 338.808,1611.893 339.109,1609.896 338.808,1607.899 337.931,1606.080 336.558,1604.599 334.809,1603.589 332.840,1603.140 330.826,1603.291 328.946,1604.029 327.367,1605.288 326.229,1606.957 325.634,1608.886 325.634,1610.906 326.229,1612.836 327.367,1614.504 328.946,1615.764 330.826,1616.502 332.840,1616.652"/>
      <polygon points="254.757,1616.072 256.470,1615.084 257.815,1613.634 258.673,1611.852 258.968,1609.896 258.673,1607.940 257.815,1606.159 256.470,1604.709 254.757,1603.720 252.829,1603.280 250.857,1603.428 249.016,1604.150 247.470,1605.383 246.355,1607.017 245.773,1608.907 245.773,1610.885 246.355,1612.775 247.470,1614.409 249.016,1615.642 250.857,1616.365 252.829,1616.513"/>
      <polygon points="354.757,1616.072 356.470,1615.084 357.815,1613.634 358.673,1611.852 358.968,1609.896 358.673,1607.940 357.815,1606.159 356.470,1604.709 354.757,1603.720 352.829,1603.280 350.857,1603.428 349.016,1604.150 347.470,1605.383 346.355,1607.017 345.773,1608.907 345.773,1610.885 346.355,1612.775 347.470,1614.409 349.016,1615.642 350.857,1616.365 352.829,1616.513"/>
      <polygon points="234.338,1616.066 236.147,1615.145 237.582,1613.710 238.504,1611.901 238.821,1609.896 238.504,1607.891 237.582,1606.083 236.147,1604.647 234.338,1603.726 232.333,1603.408 230.329,1603.726 228.520,1604.647 227.085,1606.083 226.163,1607.891 225.846,1609.896 226.163,1611.901 227.085,1613.710 228.520,1615.145 230.329,1616.066 232.333,1616.384"/>
      <polygon points="374.315,1615.994 376.102,1615.083 377.520,1613.665 378.431,1611.877 378.745,1609.896 378.431,1607.915 377.520,1606.128 376.102,1604.709 374.315,1603.798 372.333,1603.485 370.352,1603.798 368.565,1604.709 367.146,1606.128 366.236,1607.915 365.922,1609.896 366.236,1611.877 367.146,1613.665 368.565,1615.083 370.352,1615.994 372.333,1616.308"/>
      <polygon points="214.266,1615.843 216.009,1614.955 217.392,1613.572 218.280,1611.828 218.587,1609.896 218.280,1607.964 217.392,1606.221 216.009,1604.837 214.266,1603.949 212.333,1603.643 210.401,1603.949 208.658,1604.837 207.274,1606.221 206.386,1607.964 206.080,1609.896 206.386,1611.828 207.274,1613.572 208.658,1614.955 210.401,1615.843 212.333,1616.149"/>
      <polygon points="394.240,1615.765 395.961,1614.889 397.326,1613.523 398.202,1611.803 398.504,1609.896 398.202,1607.989 397.326,1606.269 395.961,1604.904 394.240,1604.027 392.333,1603.725 390.426,1604.027 388.706,1604.904 387.341,1606.269 386.464,1607.989 386.162,1609.896 386.464,1611.803 387.341,1613.523 388.706,1614.889 390.426,1615.765 392.333,1616.067"/>
      <polygon points="194.187,1615.602 195.860,1614.750 197.187,1613.423 198.040,1611.750 198.333,1609.896 198.040,1608.042 197.187,1606.369 195.860,1605.042 194.187,1604.190 192.333,1603.896 190.479,1604.190 188.807,1605.042 187.479,1606.369 186.627,1608.042 186.333,1609.896 186.627,1611.750 187.479,1613.423 188.807,1614.750 190.479,1615.602 192.333,1615.896"/>
      <polygon points="414.187,1615.602 415.860,1614.750 417.187,1613.423 418.040,1611.750 418.333,1609.896 418.040,1608.042 417.187,1606.369 415.860,1605.042 414.187,1604.190 412.333,1603.896 410.479,1604.190 408.807,1605.042 407.479,1606.369 406.627,1608.042 406.333,1609.896 406.627,1611.750 407.479,1613.423 408.807,1614.750 410.479,1615.602 412.333,1615.896"/>
      <polygon points="173.762,1615.538 175.516,1614.768 176.926,1613.471 177.838,1611.786 178.153,1609.896 177.838,1608.006 176.926,1606.322 175.516,1605.024 173.762,1604.254 171.853,1604.096 169.996,1604.567 168.392,1605.614 167.215,1607.126 166.593,1608.938 166.593,1610.854 167.215,1612.666 168.392,1614.178 169.996,1615.226 171.853,1615.696"/>
      <polygon points="433.739,1615.447 435.465,1614.690 436.852,1613.413 437.749,1611.755 438.059,1609.896 437.749,1608.037 436.852,1606.379 435.465,1605.103 433.739,1604.345 431.861,1604.190 430.033,1604.652 428.455,1605.683 427.297,1607.171 426.685,1608.954 426.685,1610.839 427.297,1612.621 428.455,1614.109 430.033,1615.140 431.861,1615.603"/>
      <polygon points="154.995,1614.507 156.412,1613.318 157.336,1611.717 157.657,1609.896 157.336,1608.075 156.412,1606.474 154.995,1605.286 153.258,1604.653 151.409,1604.653 149.671,1605.286 148.255,1606.474 147.331,1608.075 147.010,1609.896 147.331,1611.717 148.255,1613.318 149.671,1614.507 151.409,1615.139 153.258,1615.139"/>
      <polygon points="454.886,1614.317 456.244,1613.177 457.130,1611.642 457.438,1609.896 457.130,1608.150 456.244,1606.615 454.886,1605.476 453.220,1604.869 451.447,1604.869 449.781,1605.476 448.423,1606.615 447.537,1608.150 447.229,1609.896 447.537,1611.642 448.423,1613.177 449.781,1614.317 451.447,1614.923 453.220,1614.923"/>
      <polygon points="134.053,1614.049 135.512,1613.074 136.486,1611.616 136.828,1609.896 136.486,1608.176 135.512,1606.718 134.053,1605.744 132.333,1605.402 130.613,1605.744 129.155,1606.718 128.181,1608.176 127.839,1609.896 128.181,1611.616 129.155,1613.074 130.613,1614.049 132.333,1614.391"/>
      <polygon points="473.949,1613.797 475.319,1612.882 476.234,1611.512 476.556,1609.896 476.234,1608.280 475.319,1606.911 473.949,1605.995 472.333,1605.674 470.718,1605.995 469.348,1606.911 468.433,1608.280 468.111,1609.896 468.433,1611.512 469.348,1612.882 470.718,1613.797 472.333,1614.118"/>
      <polygon points="114.487,1612.597 115.446,1611.395 115.788,1609.896 115.446,1608.397 114.487,1607.195 113.102,1606.528 111.565,1606.528 110.179,1607.195 109.221,1608.397 108.879,1609.896 109.221,1611.395 110.179,1612.597 111.565,1613.264 113.102,1613.264"/>
      <polygon points="494.270,1612.325 495.133,1611.244 495.440,1609.896 495.133,1608.548 494.270,1607.467 493.025,1606.867 491.642,1606.867 490.396,1607.467 489.534,1608.548 489.226,1609.896 489.534,1611.244 490.396,1612.325 491.642,1612.925 493.025,1612.925"/>
      <polygon points="93.389,1611.724 94.162,1610.952 94.444,1609.896 94.162,1608.841 93.389,1608.068 92.333,1607.785 91.278,1608.068 90.505,1608.841 90.222,1609.896 90.505,1610.952 91.278,1611.724 92.333,1612.007"/>
      <polygon points="513.333,1611.628 514.065,1610.896 514.333,1609.896 514.065,1608.896 513.333,1608.164 512.333,1607.896 511.333,1608.164 510.601,1608.896 510.333,1609.896 510.601,1610.896 511.333,1611.628 512.333,1611.896"/>
      <polygon points="295.257,1636.297 296.942,1635.214 298.253,1633.701 299.085,1631.879 299.370,1629.896 299.085,1627.914 298.253,1626.092 296.942,1624.578 295.257,1623.495 293.335,1622.931 291.332,1622.931 289.410,1623.495 287.725,1624.578 286.413,1626.092 285.581,1627.914 285.296,1629.896 285.581,1631.879 286.413,1633.701 287.725,1635.214 289.410,1636.297 291.332,1636.862 293.335,1636.862"/>
      <polygon points="314.881,1636.388 316.681,1635.348 318.095,1633.825 318.997,1631.952 319.307,1629.896 318.997,1627.841 318.095,1625.968 316.681,1624.444 314.881,1623.404 312.854,1622.942 310.782,1623.097 308.846,1623.857 307.221,1625.153 306.050,1626.870 305.437,1628.857 305.437,1630.936 306.050,1632.922 307.221,1634.640 308.846,1635.936 310.782,1636.695 312.854,1636.850"/>
      <polygon points="274.833,1636.266 276.600,1635.246 277.987,1633.751 278.872,1631.913 279.176,1629.896 278.872,1627.879 277.987,1626.041 276.600,1624.546 274.833,1623.526 272.845,1623.072 270.811,1623.225 268.912,1623.970 267.317,1625.242 266.168,1626.927 265.567,1628.876 265.567,1630.916 266.168,1632.865 267.317,1634.551 268.912,1635.822 270.811,1636.567 272.845,1636.720"/>
      <polygon points="334.809,1636.203 336.558,1635.193 337.931,1633.713 338.808,1631.893 339.109,1629.896 338.808,1627.899 337.931,1626.080 336.558,1624.599 334.809,1623.589 332.840,1623.140 330.826,1623.291 328.946,1624.029 327.367,1625.288 326.229,1626.957 325.634,1628.886 325.634,1630.906 326.229,1632.836 327.367,1634.504 328.946,1635.764 330.826,1636.502 332.840,1636.652"/>
      <polygon points="254.757,1636.072 256.470,1635.084 257.815,1633.634 258.673,1631.852 258.968,1629.896 258.673,1627.940 257.815,1626.159 256.470,1624.709 254.757,1623.720 252.829,1623.280 250.857,1623.428 249.016,1624.150 247.470,1625.383 246.355,1627.017 245.773,1628.907 245.773,1630.885 246.355,1632.775 247.470,1634.409 249.016,1635.642 250.857,1636.365 252.829,1636.513"/>
      <polygon points="354.757,1636.072 356.470,1635.084 357.815,1633.634 358.673,1631.852 358.968,1629.896 358.673,1627.940 357.815,1626.159 356.470,1624.709 354.757,1623.720 352.829,1623.280 350.857,1623.428 349.016,1624.150 347.470,1625.383 346.355,1627.017 345.773,1628.907 345.773,1630.885 346.355,1632.775 347.470,1634.409 349.016,1635.642 350.857,1636.365 352.829,1636.513"/>
      <polygon points="234.338,1636.066 236.147,1635.145 237.582,1633.710 238.504,1631.901 238.821,1629.896 238.504,1627.891 237.582,1626.083 236.147,1624.647 234.338,1623.726 232.333,1623.408 230.329,1623.726 228.520,1624.647 227.085,1626.083 226.163,1627.891 225.846,1629.896 226.163,1631.901 227.085,1633.710 228.520,1635.145 230.329,1636.066 232.333,1636.384"/>
      <polygon points="374.315,1635.994 376.102,1635.083 377.520,1633.665 378.431,1631.877 378.745,1629.896 378.431,1627.915 377.520,1626.128 376.102,1624.709 374.315,1623.798 372.333,1623.485 370.352,1623.798 368.565,1624.709 367.146,1626.128 366.236,1627.915 365.922,1629.896 366.236,1631.877 367.146,1633.665 368.565,1635.083 370.352,1635.994 372.333,1636.308"/>
      <polygon points="214.266,1635.843 216.009,1634.955 217.392,1633.572 218.280,1631.828 218.587,1629.896 218.280,1627.964 217.392,1626.221 216.009,1624.837 214.266,1623.949 212.333,1623.643 210.401,1623.949 208.658,1624.837 207.274,1626.221 206.386,1627.964 206.080,1629.896 206.386,1631.828 207.274,1633.572 208.658,1634.955 210.401,1635.843 212.333,1636.149"/>
      <polygon points="394.240,1635.765 395.961,1634.889 397.326,1633.523 398.202,1631.803 398.504,1629.896 398.202,1627.989 397.326,1626.269 395.961,1624.904 394.240,1624.027 392.333,1623.725 390.426,1624.027 388.706,1624.904 387.341,1626.269 386.464,1627.989 386.162,1629.896 386.464,1631.803 387.341,1633.523 388.706,1634.889 390.426,1635.765 392.333,1636.067"/>
      <polygon points="414.187,1635.602 415.860,1634.750 417.187,1633.423 418.040,1631.750 418.333,1629.896 418.040,1628.042 417.187,1626.369 415.860,1625.042 414.187,1624.190 412.333,1623.896 410.479,1624.190 408.807,1625.042 407.479,1626.369 406.627,1628.042 406.333,1629.896 406.627,1631.750 407.479,1633.423 408.807,1634.750 410.479,1635.602 412.333,1635.896"/>
      <polygon points="194.187,1635.602 195.860,1634.750 197.187,1633.423 198.040,1631.750 198.333,1629.896 198.040,1628.042 197.187,1626.369 195.860,1625.042 194.187,1624.190 192.333,1623.896 190.479,1624.190 188.807,1625.042 187.479,1626.369 186.627,1628.042 186.333,1629.896 186.627,1631.750 187.479,1633.423 188.807,1634.750 190.479,1635.602 192.333,1635.896"/>
      <polygon points="173.762,1635.538 175.516,1634.768 176.926,1633.471 177.838,1631.786 178.153,1629.896 177.838,1628.006 176.926,1626.322 175.516,1625.024 173.762,1624.254 171.853,1624.096 169.996,1624.567 168.392,1625.614 167.215,1627.126 166.593,1628.938 166.593,1630.854 167.215,1632.666 168.392,1634.178 169.996,1635.226 171.853,1635.696"/>
      <polygon points="433.739,1635.447 435.465,1634.690 436.852,1633.413 437.749,1631.755 438.059,1629.896 437.749,1628.037 436.852,1626.379 435.465,1625.103 433.739,1624.345 431.861,1624.190 430.033,1624.652 428.455,1625.683 427.297,1627.171 426.685,1628.954 426.685,1630.839 427.297,1632.621 428.455,1634.109 430.033,1635.140 431.861,1635.603"/>
      <polygon points="154.995,1634.507 156.412,1633.318 157.336,1631.717 157.657,1629.896 157.336,1628.075 156.412,1626.474 154.995,1625.286 153.258,1624.653 151.409,1624.653 149.671,1625.286 148.255,1626.474 147.331,1628.075 147.010,1629.896 147.331,1631.717 148.255,1633.318 149.671,1634.507 151.409,1635.139 153.258,1635.139"/>
      <polygon points="454.886,1634.317 456.244,1633.177 457.130,1631.642 457.438,1629.896 457.130,1628.150 456.244,1626.615 454.886,1625.476 453.220,1624.869 451.447,1624.869 449.781,1625.476 448.423,1626.615 447.537,1628.150 447.229,1629.896 447.537,1631.642 448.423,1633.177 449.781,1634.317 451.447,1634.923 453.220,1634.923"/>
      <polygon points="134.053,1634.049 135.512,1633.074 136.486,1631.616 136.828,1629.896 136.486,1628.176 135.512,1626.718 134.053,1625.744 132.333,1625.402 130.613,1625.744 129.155,1626.718 128.181,1628.176 127.839,1629.896 128.181,1631.616 129.155,1633.074 130.613,1634.049 132.333,1634.391"/>
      <polygon points="473.949,1633.797 475.319,1632.882 476.234,1631.512 476.556,1629.896 476.234,1628.280 475.319,1626.911 473.949,1625.995 472.333,1625.674 470.718,1625.995 469.348,1626.911 468.433,1628.280 468.111,1629.896 468.433,1631.512 469.348,1632.882 470.718,1633.797 472.333,1634.118"/>
      <polygon points="114.487,1632.597 115.446,1631.395 115.788,1629.896 115.446,1628.397 114.487,1627.195 113.102,1626.528 111.565,1626.528 110.179,1627.195 109.221,1628.397 108.879,1629.896 109.221,1631.395 110.179,1632.597 111.565,1633.264 113.102,1633.264"/>
      <polygon points="494.270,1632.325 495.133,1631.244 495.440,1629.896 495.133,1628.548 494.270,1627.467 493.025,1626.867 491.642,1626.867 490.396,1627.467 489.534,1628.548 489.226,1629.896 489.534,1631.244 490.396,1632.325 491.642,1632.925 493.025,1632.925"/>
      <polygon points="93.389,1631.724 94.162,1630.952 94.444,1629.896 94.162,1628.841 93.389,1628.068 92.333,1627.785 91.278,1628.068 90.505,1628.841 90.222,1629.896 90.505,1630.952 91.278,1631.724 92.333,1632.007"/>
      <polygon points="513.333,1631.628 514.065,1630.896 514.333,1629.896 514.065,1628.896 513.333,1628.164 512.333,1627.896 511.333,1628.164 510.601,1628.896 510.333,1629.896 510.601,1630.896 511.333,1631.628 512.333,1631.896"/>
      <polygon points="295.257,1656.297 296.942,1655.214 298.253,1653.701 299.085,1651.879 299.370,1649.896 299.085,1647.914 298.253,1646.092 296.942,1644.578 295.257,1643.495 293.335,1642.931 291.332,1642.931 289.410,1643.495 287.725,1644.578 286.413,1646.092 285.581,1647.914 285.296,1649.896 285.581,1651.879 286.413,1653.701 287.725,1655.214 289.410,1656.297 291.332,1656.862 293.335,1656.862"/>
      <polygon points="314.881,1656.388 316.681,1655.348 318.095,1653.825 318.997,1651.952 319.307,1649.896 318.997,1647.841 318.095,1645.968 316.681,1644.444 314.881,1643.404 312.854,1642.942 310.782,1643.097 308.846,1643.857 307.221,1645.153 306.050,1646.870 305.437,1648.857 305.437,1650.936 306.050,1652.922 307.221,1654.640 308.846,1655.936 310.782,1656.695 312.854,1656.850"/>
      <polygon points="274.833,1656.266 276.600,1655.246 277.987,1653.751 278.872,1651.913 279.176,1649.896 278.872,1647.879 277.987,1646.041 276.600,1644.546 274.833,1643.526 272.845,1643.072 270.811,1643.225 268.912,1643.970 267.317,1645.242 266.168,1646.927 265.567,1648.876 265.567,1650.916 266.168,1652.865 267.317,1654.551 268.912,1655.822 270.811,1656.567 272.845,1656.720"/>
      <polygon points="334.809,1656.203 336.558,1655.193 337.931,1653.713 338.808,1651.893 339.109,1649.896 338.808,1647.899 337.931,1646.080 336.558,1644.599 334.809,1643.589 332.840,1643.140 330.826,1643.291 328.946,1644.029 327.367,1645.288 326.229,1646.957 325.634,1648.886 325.634,1650.906 326.229,1652.836 327.367,1654.504 328.946,1655.764 330.826,1656.502 332.840,1656.652"/>
      <polygon points="254.757,1656.072 256.470,1655.084 257.815,1653.634 258.673,1651.852 258.968,1649.896 258.673,1647.940 257.815,1646.159 256.470,1644.709 254.757,1643.720 252.829,1643.280 250.857,1643.428 249.016,1644.150 247.470,1645.383 246.355,1647.017 245.773,1648.907 245.773,1650.885 246.355,1652.775 247.470,1654.409 249.016,1655.642 250.857,1656.365 252.829,1656.513"/>
      <polygon points="354.757,1656.072 356.470,1655.084 357.815,1653.634 358.673,1651.852 358.968,1649.896 358.673,1647.940 357.815,1646.159 356.470,1644.709 354.757,1643.720 352.829,1643.280 350.857,1643.428 349.016,1644.150 347.470,1645.383 346.355,1647.017 345.773,1648.907 345.773,1650.885 346.355,1652.775 347.470,1654.409 349.016,1655.642 350.857,1656.365 352.829,1656.513"/>
      <polygon points="234.338,1656.066 236.147,1655.145 237.582,1653.710 238.504,1651.901 238.821,1649.896 238.504,1647.891 237.582,1646.083 236.147,1644.647 234.338,1643.726 232.333,1643.408 230.329,1643.726 228.520,1644.647 227.085,1646.083 226.163,1647.891 225.846,1649.896 226.163,1651.901 227.085,1653.710 228.520,1655.145 230.329,1656.066 232.333,1656.384"/>
      <polygon points="374.315,1655.994 376.102,1655.083 377.520,1653.665 378.431,1651.877 378.745,1649.896 378.431,1647.915 377.520,1646.128 376.102,1644.709 374.315,1643.798 372.333,1643.485 370.352,1643.798 368.565,1644.709 367.146,1646.128 366.236,1647.915 365.922,1649.896 366.236,1651.877 367.146,1653.665 368.565,1655.083 370.352,1655.994 372.333,1656.308"/>
      <polygon points="214.266,1655.843 216.009,1654.955 217.392,1653.572 218.280,1651.828 218.587,1649.896 218.280,1647.964 217.392,1646.221 216.009,1644.837 214.266,1643.949 212.333,1643.643 210.401,1643.949 208.658,1644.837 207.274,1646.221 206.386,1647.964 206.080,1649.896 206.386,1651.828 207.274,1653.572 208.658,1654.955 210.401,1655.843 212.333,1656.149"/>
      <polygon points="394.240,1655.765 395.961,1654.889 397.326,1653.523 398.202,1651.803 398.504,1649.896 398.202,1647.989 397.326,1646.269 395.961,1644.904 394.240,1644.027 392.333,1643.725 390.426,1644.027 388.706,1644.904 387.341,1646.269 386.464,1647.989 386.162,1649.896 386.464,1651.803 387.341,1653.523 388.706,1654.889 390.426,1655.765 392.333,1656.067"/>
      <polygon points="414.187,1655.602 415.860,1654.750 417.187,1653.423 418.040,1651.750 418.333,1649.896 418.040,1648.042 417.187,1646.369 415.860,1645.042 414.187,1644.190 412.333,1643.896 410.479,1644.190 408.807,1645.042 407.479,1646.369 406.627,1648.042 406.333,1649.896 406.627,1651.750 407.479,1653.423 408.807,1654.750 410.479,1655.602 412.333,1655.896"/>
      <polygon points="194.187,1655.602 195.860,1654.750 197.187,1653.423 198.040,1651.750 198.333,1649.896 198.040,1648.042 197.187,1646.369 195.860,1645.042 194.187,1644.190 192.333,1643.896 190.479,1644.190 188.807,1645.042 187.479,1646.369 186.627,1648.042 186.333,1649.896 186.627,1651.750 187.479,1653.423 188.807,1654.750 190.479,1655.602 192.333,1655.896"/>
      <polygon points="173.762,1655.538 175.516,1654.768 176.926,1653.471 177.838,1651.786 178.153,1649.896 177.838,1648.006 176.926,1646.322 175.516,1645.024 173.762,1644.254 171.853,1644.096 169.996,1644.567 168.392,1645.614 167.215,1647.126 166.593,1648.938 166.593,1650.854 167.215,1652.666 168.392,1654.178 169.996,1655.226 171.853,1655.696"/>
      <polygon points="433.739,1655.447 435.465,1654.690 436.852,1653.413 437.749,1651.755 438.059,1649.896 437.749,1648.037 436.852,1646.379 435.465,1645.103 433.739,1644.345 431.861,1644.190 430.033,1644.652 428.455,1645.683 427.297,1647.171 426.685,1648.954 426.685,1650.839 427.297,1652.621 428.455,1654.109 430.033,1655.140 431.861,1655.603"/>
      <polygon points="154.995,1654.507 156.412,1653.318 157.336,1651.717 157.657,1649.896 157.336,1648.075 156.412,1646.474 154.995,1645.286 153.258,1644.653 151.409,1644.653 149.671,1645.286 148.255,1646.474 147.331,1648.075 147.010,1649.896 147.331,1651.717 148.255,1653.318 149.671,1654.507 151.409,1655.139 153.258,1655.139"/>
      <polygon points="454.886,1654.317 456.244,1653.177 457.130,1651.642 457.438,1649.896 457.130,1648.150 456.244,1646.615 454.886,1645.476 453.220,1644.869 451.447,1644.869 449.781,1645.476 448.423,1646.615 447.537,1648.150 447.229,1649.896 447.537,1651.642 448.423,1653.177 449.781,1654.317 451.447,1654.923 453.220,1654.923"/>
      <polygon points="134.053,1654.049 135.512,1653.074 136.486,1651.616 136.828,1649.896 136.486,1648.176 135.512,1646.718 134.053,1645.744 132.333,1645.402 130.613,1645.744 129.155,1646.718 128.181,1648.176 127.839,1649.896 128.181,1651.616 129.155,1653.074 130.613,1654.049 132.333,1654.391"/>
      <polygon points="473.949,1653.797 475.319,1652.882 476.234,1651.512 476.556,1649.896 476.234,1648.280 475.319,1646.911 473.949,1645.995 472.333,1645.674 470.718,1645.995 469.348,1646.911 468.433,1648.280 468.111,1649.896 468.433,1651.512 469.348,1652.882 470.718,1653.797 472.333,1654.118"/>
      <polygon points="114.487,1652.597 115.446,1651.395 115.788,1649.896 115.446,1648.397 114.487,1647.195 113.102,1646.528 111.565,1646.528 110.179,1647.195 109.221,1648.397 108.879,1649.896 109.221,1651.395 110.179,1652.597 111.565,1653.264 113.102,1653.264"/>
      <polygon points="494.270,1652.325 495.133,1651.244 495.440,1649.896 495.133,1648.548 494.270,1647.467 493.025,1646.867 491.642,1646.867 490.396,1647.467 489.534,1648.548 489.226,1649.896 489.534,1651.244 490.396,1652.325 491.642,1652.925 493.025,1652.925"/>
      <polygon points="93.389,1651.724 94.162,1650.952 94.444,1649.896 94.162,1648.841 93.389,1648.068 92.333,1647.785 91.278,1648.068 90.505,1648.841 90.222,1649.896 90.505,1650.952 91.278,1651.724 92.333,1652.007"/>
      <polygon points="513.333,1651.628 514.065,1650.896 514.333,1649.896 514.065,1648.896 513.333,1648.164 512.333,1647.896 511.333,1648.164 510.601,1648.896 510.333,1649.896 510.601,1650.896 511.333,1651.628 512.333,1651.896"/>
      <polygon points="295.257,1676.297 296.942,1675.214 298.253,1673.701 299.085,1671.879 299.370,1669.896 299.085,1667.914 298.253,1666.092 296.942,1664.578 295.257,1663.495 293.335,1662.931 291.332,1662.931 289.410,1663.495 287.725,1664.578 286.413,1666.092 285.581,1667.914 285.296,1669.896 285.581,1671.879 286.413,1673.701 287.725,1675.214 289.410,1676.297 291.332,1676.862 293.335,1676.862"/>
      <polygon points="314.881,1676.388 316.681,1675.348 318.095,1673.825 318.997,1671.952 319.307,1669.896 318.997,1667.841 318.095,1665.968 316.681,1664.444 314.881,1663.404 312.854,1662.942 310.782,1663.097 308.846,1663.857 307.221,1665.153 306.050,1666.870 305.437,1668.857 305.437,1670.936 306.050,1672.922 307.221,1674.640 308.846,1675.936 310.782,1676.695 312.854,1676.850"/>
      <polygon points="274.833,1676.266 276.600,1675.246 277.987,1673.751 278.872,1671.913 279.176,1669.896 278.872,1667.879 277.987,1666.041 276.600,1664.546 274.833,1663.526 272.845,1663.072 270.811,1663.225 268.912,1663.970 267.317,1665.242 266.168,1666.927 265.567,1668.876 265.567,1670.916 266.168,1672.865 267.317,1674.551 268.912,1675.822 270.811,1676.567 272.845,1676.720"/>
      <polygon points="334.809,1676.203 336.558,1675.193 337.931,1673.713 338.808,1671.893 339.109,1669.896 338.808,1667.899 337.931,1666.080 336.558,1664.599 334.809,1663.589 332.840,1663.140 330.826,1663.291 328.946,1664.029 327.367,1665.288 326.229,1666.957 325.634,1668.886 325.634,1670.906 326.229,1672.836 327.367,1674.504 328.946,1675.764 330.826,1676.502 332.840,1676.652"/>
      <polygon points="354.757,1676.072 356.470,1675.084 357.815,1673.634 358.673,1671.852 358.968,1669.896 358.673,1667.940 357.815,1666.159 356.470,1664.709 354.757,1663.720 352.829,1663.280 350.857,1663.428 349.016,1664.150 347.470,1665.383 346.355,1667.017 345.773,1668.907 345.773,1670.885 346.355,1672.775 347.470,1674.409 349.016,1675.642 350.857,1676.365 352.829,1676.513"/>
      <polygon points="254.757,1676.072 256.470,1675.084 257.815,1673.634 258.673,1671.852 258.968,1669.896 258.673,1667.940 257.815,1666.159 256.470,1664.709 254.757,1663.720 252.829,1663.280 250.857,1663.428 249.016,1664.150 247.470,1665.383 246.355,1667.017 245.773,1668.907 245.773,1670.885 246.355,1672.775 247.470,1674.409 249.016,1675.642 250.857,1676.365 252.829,1676.513"/>
      <polygon points="234.338,1676.066 236.147,1675.145 237.582,1673.710 238.504,1671.901 238.821,1669.896 238.504,1667.891 237.582,1666.083 236.147,1664.647 234.338,1663.726 232.333,1663.408 230.329,1663.726 228.520,1664.647 227.085,1666.083 226.163,1667.891 225.846,1669.896 226.163,1671.901 227.085,1673.710 228.520,1675.145 230.329,1676.066 232.333,1676.384"/>
      <polygon points="374.315,1675.994 376.102,1675.083 377.520,1673.665 378.431,1671.877 378.745,1669.896 378.431,1667.915 377.520,1666.128 376.102,1664.709 374.315,1663.798 372.333,1663.485 370.352,1663.798 368.565,1664.709 367.146,1666.128 366.236,1667.915 365.922,1669.896 366.236,1671.877 367.146,1673.665 368.565,1675.083 370.352,1675.994 372.333,1676.308"/>
      <polygon points="214.266,1675.843 216.009,1674.955 217.392,1673.572 218.280,1671.828 218.587,1669.896 218.280,1667.964 217.392,1666.221 216.009,1664.837 214.266,1663.949 212.333,1663.643 210.401,1663.949 208.658,1664.837 207.274,1666.221 206.386,1667.964 206.080,1669.896 206.386,1671.828 207.274,1673.572 208.658,1674.955 210.401,1675.843 212.333,1676.149"/>
      <polygon points="394.240,1675.765 395.961,1674.889 397.326,1673.523 398.202,1671.803 398.504,1669.896 398.202,1667.989 397.326,1666.269 395.961,1664.904 394.240,1664.027 392.333,1663.725 390.426,1664.027 388.706,1664.904 387.341,1666.269 386.464,1667.989 386.162,1669.896 386.464,1671.803 387.341,1673.523 388.706,1674.889 390.426,1675.765 392.333,1676.067"/>
      <polygon points="194.187,1675.602 195.860,1674.750 197.187,1673.423 198.040,1671.750 198.333,1669.896 198.040,1668.042 197.187,1666.369 195.860,1665.042 194.187,1664.190 192.333,1663.896 190.479,1664.190 188.807,1665.042 187.479,1666.369 186.627,1668.042 186.333,1669.896 186.627,1671.750 187.479,1673.423 188.807,1674.750 190.479,1675.602 192.333,1675.896"/>
      <polygon points="414.187,1675.602 415.860,1674.750 417.187,1673.423 418.040,1671.750 418.333,1669.896 418.040,1668.042 417.187,1666.369 415.860,1665.042 414.187,1664.190 412.333,1663.896 410.479,1664.190 408.807,1665.042 407.479,1666.369 406.627,1668.042 406.333,1669.896 406.627,1671.750 407.479,1673.423 408.807,1674.750 410.479,1675.602 412.333,1675.896"/>
      <polygon points="173.762,1675.538 175.516,1674.768 176.926,1673.471 177.838,1671.786 178.153,1669.896 177.838,1668.006 176.926,1666.322 175.516,1665.024 173.762,1664.254 171.853,1664.096 169.996,1664.567 168.392,1665.614 167.215,1667.126 166.593,1668.938 166.593,1670.854 167.215,1672.666 168.392,1674.178 169.996,1675.226 171.853,1675.696"/>
      <polygon points="433.739,1675.447 435.465,1674.690 436.852,1673.413 437.749,1671.755 438.059,1669.896 437.749,1668.037 436.852,1666.379 435.465,1665.103 433.739,1664.345 431.861,1664.190 430.033,1664.652 428.455,1665.683 427.297,1667.171 426.685,1668.954 426.685,1670.839 427.297,1672.621 428.455,1674.109 430.033,1675.140 431.861,1675.603"/>
      <polygon points="154.995,1674.507 156.412,1673.318 157.336,1671.717 157.657,1669.896 157.336,1668.075 156.412,1666.474 154.995,1665.286 153.258,1664.653 151.409,1664.653 149.671,1665.286 148.255,1666.474 147.331,1668.075 147.010,1669.896 147.331,1671.717 148.255,1673.318 149.671,1674.507 151.409,1675.139 153.258,1675.139"/>
      <polygon points="454.886,1674.317 456.244,1673.177 457.130,1671.642 457.438,1669.896 457.130,1668.150 456.244,1666.615 454.886,1665.476 453.220,1664.869 451.447,1664.869 449.781,1665.476 448.423,1666.615 447.537,1668.150 447.229,1669.896 447.537,1671.642 448.423,1673.177 449.781,1674.317 451.447,1674.923 453.220,1674.923"/>
      <polygon points="134.053,1674.049 135.512,1673.074 136.486,1671.616 136.828,1669.896 136.486,1668.176 135.512,1666.718 134.053,1665.744 132.333,1665.402 130.613,1665.744 129.155,1666.718 128.181,1668.176 127.839,1669.896 128.181,1671.616 129.155,1673.074 130.613,1674.049 132.333,1674.391"/>
      <polygon points="473.949,1673.797 475.319,1672.882 476.234,1671.512 476.556,1669.896 476.234,1668.280 475.319,1666.911 473.949,1665.995 472.333,1665.674 470.718,1665.995 469.348,1666.911 468.433,1668.280 468.111,1669.896 468.433,1671.512 469.348,1672.882 470.718,1673.797 472.333,1674.118"/>
      <polygon points="114.487,1672.597 115.446,1671.395 115.788,1669.896 115.446,1668.397 114.487,1667.195 113.102,1666.528 111.565,1666.528 110.179,1667.195 109.221,1668.397 108.879,1669.896 109.221,1671.395 110.179,1672.597 111.565,1673.264 113.102,1673.264"/>
      <polygon points="494.270,1672.325 495.133,1671.244 495.440,1669.896 495.133,1668.548 494.270,1667.467 493.025,1666.867 491.642,1666.867 490.396,1667.467 489.534,1668.548 489.226,1669.896 489.534,1671.244 490.396,1672.325 491.642,1672.925 493.025,1672.925"/>
      <polygon points="93.389,1671.724 94.162,1670.952 94.444,1669.896 94.162,1668.841 93.389,1668.068 92.333,1667.785 91.278,1668.068 90.505,1668.841 90.222,1669.896 90.505,1670.952 91.278,1671.724 92.333,1672.007"/>
      <polygon points="513.333,1671.628 514.065,1670.896 514.333,1669.896 514.065,1668.896 513.333,1668.164 512.333,1667.896 511.333,1668.164 510.601,1668.896 510.333,1669.896 510.601,1670.896 511.333,1671.628 512.333,1671.896"/>
    </g>
    <g stroke="#EF6C00" stroke-width="0.4" fill="none">
    </g>
  </g>
  <g stroke="#000000" stroke-width="0.4">
    <line x1="500.000" y1="1000.000" x2="1500.000" y2="1000.000"/>
  </g>
  <g stroke="#000000" stroke-width="0.4">
    <line x1="1000.000" y1="500.000" x2="1000.000" y2="1500.000"/>
  </g>
  <circle cx="1000.000" cy="1000.000" r="1000.000" stroke="red" stroke-width="1" fill="none"/>
  </g>
</svg>
