<?xml version="1.0" encoding="UTF-8"?>
<svg xmlns="http://www.w3.org/2000/svg" version="1.1" width="2000" height="2000">
  <g fill="none" stroke-linecap="round" stroke-linejoin="round">
  <text x="10" y="20" font-size="24" fill="#555">Layer 232 Z=58.400 mm</text>
  <g transform="translate(700.000,-602.229)">
    <g stroke="#2E7D32" stroke-width="0.4">
      <line x1="42.283" y1="1679.230" x2="42.283" y2="1629.230"/>
      <line x1="43.283" y1="1679.230" x2="43.283" y2="1629.230"/>
      <line x1="44.283" y1="1679.230" x2="44.283" y2="1629.230"/>
      <line x1="45.283" y1="1679.230" x2="45.283" y2="1629.230"/>
      <line x1="46.283" y1="1679.230" x2="46.283" y2="1629.230"/>
      <line x1="47.283" y1="1679.230" x2="47.283" y2="1629.230"/>
      <line x1="48.283" y1="1679.230" x2="48.283" y2="1629.230"/>
      <line x1="49.283" y1="1679.230" x2="49.283" y2="1629.230"/>
      <line x1="50.283" y1="1679.230" x2="50.283" y2="1629.230"/>
      <line x1="51.283" y1="1679.230" x2="51.283" y2="1629.230"/>
      <line x1="52.283" y1="1679.230" x2="52.283" y2="1629.230"/>
      <line x1="53.283" y1="1679.230" x2="53.283" y2="1629.230"/>
      <line x1="54.283" y1="1679.230" x2="54.283" y2="1629.230"/>
      <line x1="55.283" y1="1679.230" x2="55.283" y2="1629.230"/>
      <line x1="56.283" y1="1679.230" x2="56.283" y2="1629.230"/>
      <line x1="57.283" y1="1679.230" x2="57.283" y2="1629.230"/>
      <line x1="58.283" y1="1679.230" x2="58.283" y2="1629.230"/>
      <line x1="59.283" y1="1679.230" x2="59.283" y2="1629.230"/>
      <line x1="60.283" y1="1679.230" x2="60.283" y2="1629.230"/>
      <line x1="61.283" y1="1679.230" x2="61.283" y2="1629.230"/>
      <line x1="62.283" y1="1679.230" x2="62.283" y2="1629.230"/>
      <line x1="63.283" y1="1679.230" x2="63.283" y2="1629.230"/>
      <line x1="64.283" y1="1679.230" x2="64.283" y2="1629.230"/>
      <line x1="65.283" y1="1679.230" x2="65.283" y2="1629.230"/>
      <line x1="66.283" y1="1679.230" x2="66.283" y2="1629.230"/>
      <line x1="67.283" y1="1679.230" x2="67.283" y2="1629.230"/>
      <line x1="68.283" y1="1679.230" x2="68.283" y2="1629.230"/>
      <line x1="69.283" y1="1679.230" x2="69.283" y2="1629.230"/>
      <line x1="70.283" y1="1679.230" x2="70.283" y2="1629.230"/>
      <line x1="71.283" y1="1679.230" x2="71.283" y2="1629.230"/>
      <line x1="72.283" y1="1679.230" x2="72.283" y2="1629.230"/>
      <line x1="73.283" y1="1679.230" x2="73.283" y2="1629.230"/>
      <line x1="74.283" y1="1679.230" x2="74.283" y2="1629.230"/>
      <line x1="75.283" y1="1679.230" x2="75.283" y2="1629.230"/>
      <line x1="76.283" y1="1679.230" x2="76.283" y2="1629.230"/>
      <line x1="77.283" y1="1679.230" x2="77.283" y2="1629.230"/>
      <line x1="78.283" y1="1679.230" x2="78.283" y2="1629.230"/>
      <line x1="79.283" y1="1679.230" x2="79.283" y2="1629.230"/>
      <line x1="80.283" y1="1679.230" x2="80.283" y2="1629.230"/>
      <line x1="81.283" y1="1679.230" x2="81.283" y2="1629.230"/>
      <line x1="82.283" y1="1679.230" x2="82.283" y2="1629.230"/>
      <line x1="83.283" y1="1679.230" x2="83.283" y2="1629.230"/>
      <line x1="84.283" y1="1679.230" x2="84.283" y2="1629.230"/>
      <line x1="85.283" y1="1679.230" x2="85.283" y2="1629.230"/>
      <line x1="86.283" y1="1679.230" x2="86.283" y2="1629.230"/>
      <line x1="87.283" y1="1679.230" x2="87.283" y2="1629.230"/>
      <line x1="88.283" y1="1679.230" x2="88.283" y2="1629.230"/>
      <line x1="89.283" y1="1679.230" x2="89.283" y2="1629.230"/>
      <line x1="90.283" y1="1679.230" x2="90.283" y2="1629.230"/>
      <line x1="91.283" y1="1679.230" x2="91.283" y2="1629.230"/>
      <line x1="92.283" y1="1679.230" x2="92.283" y2="1629.230"/>
      <line x1="93.283" y1="1679.230" x2="93.283" y2="1629.230"/>
      <line x1="94.283" y1="1679.230" x2="94.283" y2="1629.230"/>
      <line x1="95.283" y1="1679.230" x2="95.283" y2="1629.230"/>
      <line x1="96.283" y1="1679.230" x2="96.283" y2="1629.230"/>
      <line x1="97.283" y1="1679.230" x2="97.283" y2="1629.230"/>
      <line x1="98.283" y1="1679.230" x2="98.283" y2="1629.230"/>
      <line x1="99.283" y1="1679.230" x2="99.283" y2="1629.230"/>
      <line x1="100.283" y1="1679.230" x2="100.283" y2="1629.230"/>
      <line x1="101.283" y1="1679.230" x2="101.283" y2="1629.230"/>
      <line x1="102.283" y1="1679.230" x2="102.283" y2="1629.230"/>
      <line x1="103.283" y1="1679.230" x2="103.283" y2="1629.230"/>
      <line x1="104.283" y1="1679.230" x2="104.283" y2="1629.230"/>
      <line x1="105.283" y1="1679.230" x2="105.283" y2="1629.230"/>
      <line x1="106.283" y1="1679.230" x2="106.283" y2="1629.230"/>
      <line x1="107.283" y1="1679.230" x2="107.283" y2="1629.230"/>
      <line x1="108.283" y1="1679.230" x2="108.283" y2="1629.230"/>
      <line x1="109.283" y1="1679.230" x2="109.283" y2="1629.230"/>
      <line x1="110.283" y1="1679.230" x2="110.283" y2="1629.230"/>
      <line x1="111.283" y1="1679.230" x2="111.283" y2="1629.230"/>
      <line x1="112.283" y1="1679.230" x2="112.283" y2="1629.230"/>
      <line x1="113.283" y1="1679.230" x2="113.283" y2="1629.230"/>
      <line x1="114.283" y1="1679.230" x2="114.283" y2="1629.230"/>
      <line x1="115.283" y1="1679.230" x2="115.283" y2="1629.230"/>
      <line x1="116.283" y1="1679.230" x2="116.283" y2="1629.230"/>
      <line x1="117.283" y1="1679.230" x2="117.283" y2="1629.230"/>
      <line x1="118.283" y1="1679.230" x2="118.283" y2="1629.230"/>
      <line x1="119.283" y1="1679.230" x2="119.283" y2="1629.230"/>
      <line x1="120.283" y1="1679.230" x2="120.283" y2="1629.230"/>
      <line x1="121.283" y1="1679.230" x2="121.283" y2="1629.230"/>
      <line x1="122.283" y1="1679.230" x2="122.283" y2="1629.230"/>
      <line x1="123.283" y1="1679.230" x2="123.283" y2="1629.230"/>
      <line x1="124.283" y1="1679.230" x2="124.283" y2="1629.230"/>
      <line x1="125.283" y1="1679.230" x2="125.283" y2="1629.230"/>
      <line x1="126.283" y1="1679.230" x2="126.283" y2="1629.230"/>
      <line x1="127.283" y1="1679.230" x2="127.283" y2="1629.230"/>
      <line x1="128.283" y1="1679.230" x2="128.283" y2="1629.230"/>
      <line x1="129.283" y1="1679.230" x2="129.283" y2="1629.230"/>
      <line x1="130.283" y1="1679.230" x2="130.283" y2="1629.230"/>
      <line x1="131.283" y1="1679.230" x2="131.283" y2="1629.230"/>
      <line x1="132.283" y1="1679.230" x2="132.283" y2="1629.230"/>
      <line x1="133.283" y1="1679.230" x2="133.283" y2="1629.230"/>
      <line x1="134.283" y1="1679.230" x2="134.283" y2="1629.230"/>
      <line x1="135.283" y1="1679.230" x2="135.283" y2="1629.230"/>
      <line x1="136.283" y1="1679.230" x2="136.283" y2="1629.230"/>
      <line x1="137.283" y1="1679.230" x2="137.283" y2="1629.230"/>
      <line x1="138.283" y1="1679.230" x2="138.283" y2="1629.230"/>
      <line x1="139.283" y1="1679.230" x2="139.283" y2="1629.230"/>
      <line x1="140.283" y1="1679.230" x2="140.283" y2="1629.230"/>
      <line x1="141.283" y1="1679.230" x2="141.283" y2="1629.230"/>
      <line x1="142.283" y1="1679.230" x2="142.283" y2="1629.230"/>
      <line x1="143.283" y1="1679.230" x2="143.283" y2="1629.230"/>
      <line x1="144.283" y1="1679.230" x2="144.283" y2="1629.230"/>
      <line x1="145.283" y1="1679.230" x2="145.283" y2="1629.230"/>
      <line x1="146.283" y1="1679.230" x2="146.283" y2="1629.230"/>
      <line x1="147.283" y1="1679.230" x2="147.283" y2="1629.230"/>
      <line x1="148.283" y1="1679.230" x2="148.283" y2="1629.230"/>
      <line x1="149.283" y1="1679.230" x2="149.283" y2="1629.230"/>
      <line x1="150.283" y1="1679.230" x2="150.283" y2="1629.230"/>
      <line x1="151.283" y1="1679.230" x2="151.283" y2="1629.230"/>
      <line x1="152.283" y1="1679.230" x2="152.283" y2="1629.230"/>
      <line x1="153.283" y1="1679.230" x2="153.283" y2="1629.230"/>
      <line x1="154.283" y1="1679.230" x2="154.283" y2="1629.230"/>
      <line x1="155.283" y1="1679.230" x2="155.283" y2="1629.230"/>
      <line x1="156.283" y1="1679.230" x2="156.283" y2="1629.230"/>
      <line x1="157.283" y1="1679.230" x2="157.283" y2="1629.230"/>
      <line x1="158.283" y1="1679.230" x2="158.283" y2="1629.230"/>
      <line x1="159.283" y1="1679.230" x2="159.283" y2="1629.230"/>
      <line x1="160.283" y1="1679.230" x2="160.283" y2="1629.230"/>
      <line x1="161.283" y1="1679.230" x2="161.283" y2="1629.230"/>
      <line x1="162.283" y1="1679.230" x2="162.283" y2="1629.230"/>
      <line x1="163.283" y1="1679.230" x2="163.283" y2="1629.230"/>
      <line x1="164.283" y1="1679.230" x2="164.283" y2="1629.230"/>
      <line x1="165.283" y1="1679.230" x2="165.283" y2="1629.230"/>
      <line x1="166.283" y1="1679.230" x2="166.283" y2="1629.230"/>
      <line x1="167.283" y1="1679.230" x2="167.283" y2="1629.230"/>
      <line x1="168.283" y1="1679.230" x2="168.283" y2="1629.230"/>
      <line x1="169.283" y1="1679.230" x2="169.283" y2="1629.230"/>
      <line x1="170.283" y1="1679.230" x2="170.283" y2="1629.230"/>
      <line x1="171.283" y1="1679.230" x2="171.283" y2="1629.230"/>
      <line x1="172.283" y1="1679.230" x2="172.283" y2="1629.230"/>
      <line x1="173.283" y1="1679.230" x2="173.283" y2="1629.230"/>
      <line x1="42.283" y1="1629.130" x2="42.283" y2="1579.130"/>
      <line x1="43.283" y1="1629.130" x2="43.283" y2="1579.130"/>
      <line x1="44.283" y1="1629.130" x2="44.283" y2="1579.130"/>
      <line x1="45.283" y1="1629.130" x2="45.283" y2="1579.130"/>
      <line x1="46.283" y1="1629.130" x2="46.283" y2="1579.130"/>
      <line x1="47.283" y1="1629.130" x2="47.283" y2="1579.130"/>
      <line x1="48.283" y1="1629.130" x2="48.283" y2="1579.130"/>
      <line x1="49.283" y1="1629.130" x2="49.283" y2="1579.130"/>
      <line x1="50.283" y1="1629.130" x2="50.283" y2="1579.130"/>
      <line x1="51.283" y1="1629.130" x2="51.283" y2="1579.130"/>
      <line x1="52.283" y1="1629.130" x2="52.283" y2="1579.130"/>
      <line x1="53.283" y1="1629.130" x2="53.283" y2="1579.130"/>
      <line x1="54.283" y1="1629.130" x2="54.283" y2="1579.130"/>
      <line x1="55.283" y1="1629.130" x2="55.283" y2="1579.130"/>
      <line x1="56.283" y1="1629.130" x2="56.283" y2="1579.130"/>
      <line x1="57.283" y1="1629.130" x2="57.283" y2="1579.130"/>
      <line x1="58.283" y1="1629.130" x2="58.283" y2="1579.130"/>
      <line x1="59.283" y1="1629.130" x2="59.283" y2="1579.130"/>
      <line x1="60.283" y1="1629.130" x2="60.283" y2="1579.130"/>
      <line x1="61.283" y1="1629.130" x2="61.283" y2="1579.130"/>
      <line x1="62.283" y1="1629.130" x2="62.283" y2="1579.130"/>
      <line x1="63.283" y1="1629.130" x2="63.283" y2="1579.130"/>
      <line x1="64.283" y1="1629.130" x2="64.283" y2="1579.130"/>
      <line x1="65.283" y1="1629.130" x2="65.283" y2="1579.130"/>
      <line x1="66.283" y1="1629.130" x2="66.283" y2="1579.130"/>
      <line x1="67.283" y1="1629.130" x2="67.283" y2="1579.130"/>
      <line x1="68.283" y1="1629.130" x2="68.283" y2="1579.130"/>
      <line x1="69.283" y1="1629.130" x2="69.283" y2="1579.130"/>
      <line x1="70.283" y1="1629.130" x2="70.283" y2="1579.130"/>
      <line x1="71.283" y1="1629.130" x2="71.283" y2="1579.130"/>
      <line x1="72.283" y1="1629.130" x2="72.283" y2="1579.130"/>
      <line x1="73.283" y1="1629.130" x2="73.283" y2="1579.130"/>
      <line x1="74.283" y1="1629.130" x2="74.283" y2="1579.130"/>
      <line x1="75.283" y1="1629.130" x2="75.283" y2="1579.130"/>
      <line x1="76.283" y1="1629.130" x2="76.283" y2="1579.130"/>
      <line x1="77.283" y1="1629.130" x2="77.283" y2="1579.130"/>
      <line x1="78.283" y1="1629.130" x2="78.283" y2="1579.130"/>
      <line x1="79.283" y1="1629.130" x2="79.283" y2="1579.130"/>
      <line x1="80.283" y1="1629.130" x2="80.283" y2="1579.130"/>
      <line x1="81.283" y1="1629.130" x2="81.283" y2="1579.130"/>
      <line x1="82.283" y1="1629.130" x2="82.283" y2="1579.130"/>
      <line x1="83.283" y1="1629.130" x2="83.283" y2="1579.130"/>
      <line x1="84.283" y1="1629.130" x2="84.283" y2="1579.130"/>
      <line x1="85.283" y1="1629.130" x2="85.283" y2="1579.130"/>
      <line x1="86.283" y1="1629.130" x2="86.283" y2="1579.130"/>
      <line x1="87.283" y1="1629.130" x2="87.283" y2="1579.130"/>
      <line x1="88.283" y1="1629.130" x2="88.283" y2="1579.130"/>
      <line x1="89.283" y1="1629.130" x2="89.283" y2="1579.130"/>
      <line x1="90.283" y1="1629.130" x2="90.283" y2="1579.130"/>
      <line x1="91.283" y1="1629.130" x2="91.283" y2="1579.130"/>
      <line x1="92.283" y1="1629.130" x2="92.283" y2="1579.130"/>
      <line x1="93.283" y1="1629.130" x2="93.283" y2="1579.130"/>
      <line x1="94.283" y1="1629.130" x2="94.283" y2="1579.130"/>
      <line x1="95.283" y1="1629.130" x2="95.283" y2="1579.130"/>
      <line x1="96.283" y1="1629.130" x2="96.283" y2="1579.130"/>
      <line x1="97.283" y1="1629.130" x2="97.283" y2="1579.130"/>
      <line x1="98.283" y1="1629.130" x2="98.283" y2="1579.130"/>
      <line x1="99.283" y1="1629.130" x2="99.283" y2="1579.130"/>
      <line x1="100.283" y1="1629.130" x2="100.283" y2="1579.130"/>
      <line x1="101.283" y1="1629.130" x2="101.283" y2="1579.130"/>
      <line x1="102.283" y1="1629.130" x2="102.283" y2="1579.130"/>
      <line x1="103.283" y1="1629.130" x2="103.283" y2="1579.130"/>
      <line x1="104.283" y1="1629.130" x2="104.283" y2="1579.130"/>
      <line x1="105.283" y1="1629.130" x2="105.283" y2="1579.130"/>
      <line x1="106.283" y1="1629.130" x2="106.283" y2="1579.130"/>
      <line x1="107.283" y1="1629.130" x2="107.283" y2="1579.130"/>
      <line x1="108.283" y1="1629.130" x2="108.283" y2="1579.130"/>
      <line x1="109.283" y1="1629.130" x2="109.283" y2="1579.130"/>
      <line x1="110.283" y1="1629.130" x2="110.283" y2="1579.130"/>
      <line x1="111.283" y1="1629.130" x2="111.283" y2="1579.130"/>
      <line x1="112.283" y1="1629.130" x2="112.283" y2="1579.130"/>
      <line x1="113.283" y1="1629.130" x2="113.283" y2="1579.130"/>
      <line x1="114.283" y1="1629.130" x2="114.283" y2="1579.130"/>
      <line x1="115.283" y1="1629.130" x2="115.283" y2="1579.130"/>
      <line x1="116.283" y1="1629.130" x2="116.283" y2="1579.130"/>
      <line x1="117.283" y1="1629.130" x2="117.283" y2="1579.130"/>
      <line x1="118.283" y1="1629.130" x2="118.283" y2="1579.130"/>
      <line x1="119.283" y1="1629.130" x2="119.283" y2="1579.130"/>
      <line x1="120.283" y1="1629.130" x2="120.283" y2="1579.130"/>
      <line x1="121.283" y1="1629.130" x2="121.283" y2="1579.130"/>
      <line x1="122.283" y1="1629.130" x2="122.283" y2="1579.130"/>
      <line x1="123.283" y1="1629.130" x2="123.283" y2="1579.130"/>
      <line x1="124.283" y1="1629.130" x2="124.283" y2="1579.130"/>
      <line x1="125.283" y1="1629.130" x2="125.283" y2="1579.130"/>
      <line x1="126.283" y1="1629.130" x2="126.283" y2="1579.130"/>
      <line x1="127.283" y1="1629.130" x2="127.283" y2="1579.130"/>
      <line x1="128.283" y1="1629.130" x2="128.283" y2="1579.130"/>
      <line x1="129.283" y1="1629.130" x2="129.283" y2="1579.130"/>
      <line x1="130.283" y1="1629.130" x2="130.283" y2="1579.130"/>
      <line x1="131.283" y1="1629.130" x2="131.283" y2="1579.130"/>
      <line x1="132.283" y1="1629.130" x2="132.283" y2="1579.130"/>
      <line x1="133.283" y1="1629.130" x2="133.283" y2="1579.130"/>
      <line x1="134.283" y1="1629.130" x2="134.283" y2="1579.130"/>
      <line x1="135.283" y1="1629.130" x2="135.283" y2="1579.130"/>
      <line x1="136.283" y1="1629.130" x2="136.283" y2="1579.130"/>
      <line x1="137.283" y1="1629.130" x2="137.283" y2="1579.130"/>
      <line x1="138.283" y1="1629.130" x2="138.283" y2="1579.130"/>
      <line x1="139.283" y1="1629.130" x2="139.283" y2="1579.130"/>
      <line x1="140.283" y1="1629.130" x2="140.283" y2="1579.130"/>
      <line x1="141.283" y1="1629.130" x2="141.283" y2="1579.130"/>
      <line x1="142.283" y1="1629.130" x2="142.283" y2="1579.130"/>
      <line x1="143.283" y1="1629.130" x2="143.283" y2="1579.130"/>
      <line x1="144.283" y1="1629.130" x2="144.283" y2="1579.130"/>
      <line x1="145.283" y1="1629.130" x2="145.283" y2="1579.130"/>
      <line x1="146.283" y1="1629.130" x2="146.283" y2="1579.130"/>
      <line x1="147.283" y1="1629.130" x2="147.283" y2="1579.130"/>
      <line x1="148.283" y1="1629.130" x2="148.283" y2="1579.130"/>
      <line x1="149.283" y1="1629.130" x2="149.283" y2="1579.130"/>
      <line x1="150.283" y1="1629.130" x2="150.283" y2="1579.130"/>
      <line x1="151.283" y1="1629.130" x2="151.283" y2="1579.130"/>
      <line x1="152.283" y1="1629.130" x2="152.283" y2="1579.130"/>
      <line x1="153.283" y1="1629.130" x2="153.283" y2="1579.130"/>
      <line x1="154.283" y1="1629.130" x2="154.283" y2="1579.130"/>
      <line x1="155.283" y1="1629.130" x2="155.283" y2="1579.130"/>
      <line x1="156.283" y1="1629.130" x2="156.283" y2="1579.130"/>
      <line x1="157.283" y1="1629.130" x2="157.283" y2="1579.130"/>
      <line x1="158.283" y1="1629.130" x2="158.283" y2="1579.130"/>
      <line x1="159.283" y1="1629.130" x2="159.283" y2="1579.130"/>
      <line x1="160.283" y1="1629.130" x2="160.283" y2="1579.130"/>
      <line x1="161.283" y1="1629.130" x2="161.283" y2="1579.130"/>
      <line x1="162.283" y1="1629.130" x2="162.283" y2="1579.130"/>
      <line x1="163.283" y1="1629.130" x2="163.283" y2="1579.130"/>
      <line x1="164.283" y1="1629.130" x2="164.283" y2="1579.130"/>
      <line x1="165.283" y1="1629.130" x2="165.283" y2="1579.130"/>
      <line x1="166.283" y1="1629.130" x2="166.283" y2="1579.130"/>
      <line x1="167.283" y1="1629.130" x2="167.283" y2="1579.130"/>
      <line x1="168.283" y1="1629.130" x2="168.283" y2="1579.130"/>
      <line x1="169.283" y1="1629.130" x2="169.283" y2="1579.130"/>
      <line x1="170.283" y1="1629.130" x2="170.283" y2="1579.130"/>
      <line x1="171.283" y1="1629.130" x2="171.283" y2="1579.130"/>
      <line x1="172.283" y1="1629.130" x2="172.283" y2="1579.130"/>
      <line x1="173.283" y1="1629.130" x2="173.283" y2="1579.130"/>
      <line x1="42.283" y1="1579.030" x2="42.283" y2="1529.030"/>
      <line x1="43.283" y1="1579.030" x2="43.283" y2="1529.030"/>
      <line x1="44.283" y1="1579.030" x2="44.283" y2="1529.030"/>
      <line x1="45.283" y1="1579.030" x2="45.283" y2="1529.030"/>
      <line x1="46.283" y1="1579.030" x2="46.283" y2="1529.030"/>
      <line x1="47.283" y1="1579.030" x2="47.283" y2="1529.030"/>
      <line x1="48.283" y1="1579.030" x2="48.283" y2="1529.030"/>
      <line x1="49.283" y1="1579.030" x2="49.283" y2="1529.030"/>
      <line x1="50.283" y1="1579.030" x2="50.283" y2="1529.030"/>
      <line x1="51.283" y1="1579.030" x2="51.283" y2="1529.030"/>
      <line x1="52.283" y1="1579.030" x2="52.283" y2="1529.030"/>
      <line x1="53.283" y1="1579.030" x2="53.283" y2="1529.030"/>
      <line x1="54.283" y1="1579.030" x2="54.283" y2="1529.030"/>
      <line x1="55.283" y1="1579.030" x2="55.283" y2="1529.030"/>
      <line x1="56.283" y1="1579.030" x2="56.283" y2="1529.030"/>
      <line x1="57.283" y1="1579.030" x2="57.283" y2="1529.030"/>
      <line x1="58.283" y1="1579.030" x2="58.283" y2="1529.030"/>
      <line x1="59.283" y1="1579.030" x2="59.283" y2="1529.030"/>
      <line x1="60.283" y1="1579.030" x2="60.283" y2="1529.030"/>
      <line x1="61.283" y1="1579.030" x2="61.283" y2="1529.030"/>
      <line x1="62.283" y1="1579.030" x2="62.283" y2="1529.030"/>
      <line x1="63.283" y1="1579.030" x2="63.283" y2="1529.030"/>
      <line x1="64.283" y1="1579.030" x2="64.283" y2="1529.030"/>
      <line x1="65.283" y1="1579.030" x2="65.283" y2="1529.030"/>
      <line x1="66.283" y1="1579.030" x2="66.283" y2="1529.030"/>
      <line x1="67.283" y1="1579.030" x2="67.283" y2="1529.030"/>
      <line x1="68.283" y1="1579.030" x2="68.283" y2="1529.030"/>
      <line x1="69.283" y1="1579.030" x2="69.283" y2="1529.030"/>
      <line x1="70.283" y1="1579.030" x2="70.283" y2="1529.030"/>
      <line x1="71.283" y1="1579.030" x2="71.283" y2="1529.030"/>
      <line x1="72.283" y1="1579.030" x2="72.283" y2="1529.030"/>
      <line x1="73.283" y1="1579.030" x2="73.283" y2="1529.030"/>
      <line x1="74.283" y1="1579.030" x2="74.283" y2="1529.030"/>
      <line x1="75.283" y1="1579.030" x2="75.283" y2="1529.030"/>
      <line x1="76.283" y1="1579.030" x2="76.283" y2="1529.030"/>
      <line x1="77.283" y1="1579.030" x2="77.283" y2="1529.030"/>
      <line x1="78.283" y1="1579.030" x2="78.283" y2="1529.030"/>
      <line x1="79.283" y1="1579.030" x2="79.283" y2="1529.030"/>
      <line x1="80.283" y1="1579.030" x2="80.283" y2="1529.030"/>
      <line x1="81.283" y1="1579.030" x2="81.283" y2="1529.030"/>
      <line x1="82.283" y1="1579.030" x2="82.283" y2="1529.030"/>
      <line x1="83.283" y1="1579.030" x2="83.283" y2="1529.030"/>
      <line x1="84.283" y1="1579.030" x2="84.283" y2="1529.030"/>
      <line x1="85.283" y1="1579.030" x2="85.283" y2="1529.030"/>
      <line x1="86.283" y1="1579.030" x2="86.283" y2="1529.030"/>
      <line x1="87.283" y1="1579.030" x2="87.283" y2="1529.030"/>
      <line x1="88.283" y1="1579.030" x2="88.283" y2="1529.030"/>
      <line x1="89.283" y1="1579.030" x2="89.283" y2="1529.030"/>
      <line x1="90.283" y1="1579.030" x2="90.283" y2="1529.030"/>
      <line x1="91.283" y1="1579.030" x2="91.283" y2="1529.030"/>
      <line x1="92.283" y1="1579.030" x2="92.283" y2="1529.030"/>
      <line x1="93.283" y1="1579.030" x2="93.283" y2="1529.030"/>
      <line x1="94.283" y1="1579.030" x2="94.283" y2="1529.030"/>
      <line x1="95.283" y1="1579.030" x2="95.283" y2="1529.030"/>
      <line x1="96.283" y1="1579.030" x2="96.283" y2="1529.030"/>
      <line x1="97.283" y1="1579.030" x2="97.283" y2="1529.030"/>
      <line x1="98.283" y1="1579.030" x2="98.283" y2="1529.030"/>
      <line x1="99.283" y1="1579.030" x2="99.283" y2="1529.030"/>
      <line x1="100.283" y1="1579.030" x2="100.283" y2="1529.030"/>
      <line x1="101.283" y1="1579.030" x2="101.283" y2="1529.030"/>
      <line x1="102.283" y1="1579.030" x2="102.283" y2="1529.030"/>
      <line x1="103.283" y1="1579.030" x2="103.283" y2="1529.030"/>
      <line x1="104.283" y1="1579.030" x2="104.283" y2="1529.030"/>
      <line x1="105.283" y1="1579.030" x2="105.283" y2="1529.030"/>
      <line x1="106.283" y1="1579.030" x2="106.283" y2="1529.030"/>
      <line x1="107.283" y1="1579.030" x2="107.283" y2="1529.030"/>
      <line x1="108.283" y1="1579.030" x2="108.283" y2="1529.030"/>
      <line x1="109.283" y1="1579.030" x2="109.283" y2="1529.030"/>
      <line x1="110.283" y1="1579.030" x2="110.283" y2="1529.030"/>
      <line x1="111.283" y1="1579.030" x2="111.283" y2="1529.030"/>
      <line x1="112.283" y1="1579.030" x2="112.283" y2="1529.030"/>
      <line x1="113.283" y1="1579.030" x2="113.283" y2="1529.030"/>
      <line x1="114.283" y1="1579.030" x2="114.283" y2="1529.030"/>
      <line x1="115.283" y1="1579.030" x2="115.283" y2="1529.030"/>
      <line x1="116.283" y1="1579.030" x2="116.283" y2="1529.030"/>
      <line x1="117.283" y1="1579.030" x2="117.283" y2="1529.030"/>
      <line x1="118.283" y1="1579.030" x2="118.283" y2="1529.030"/>
      <line x1="119.283" y1="1579.030" x2="119.283" y2="1529.030"/>
      <line x1="120.283" y1="1579.030" x2="120.283" y2="1529.030"/>
      <line x1="121.283" y1="1579.030" x2="121.283" y2="1529.030"/>
      <line x1="122.283" y1="1579.030" x2="122.283" y2="1529.030"/>
      <line x1="123.283" y1="1579.030" x2="123.283" y2="1529.030"/>
      <line x1="124.283" y1="1579.030" x2="124.283" y2="1529.030"/>
      <line x1="125.283" y1="1579.030" x2="125.283" y2="1529.030"/>
      <line x1="126.283" y1="1579.030" x2="126.283" y2="1529.030"/>
      <line x1="127.283" y1="1579.030" x2="127.283" y2="1529.030"/>
      <line x1="128.283" y1="1579.030" x2="128.283" y2="1529.030"/>
      <line x1="129.283" y1="1579.030" x2="129.283" y2="1529.030"/>
      <line x1="130.283" y1="1579.030" x2="130.283" y2="1529.030"/>
      <line x1="131.283" y1="1579.030" x2="131.283" y2="1529.030"/>
      <line x1="132.283" y1="1579.030" x2="132.283" y2="1529.030"/>
      <line x1="133.283" y1="1579.030" x2="133.283" y2="1529.030"/>
      <line x1="134.283" y1="1579.030" x2="134.283" y2="1529.030"/>
      <line x1="135.283" y1="1579.030" x2="135.283" y2="1529.030"/>
      <line x1="136.283" y1="1579.030" x2="136.283" y2="1529.030"/>
      <line x1="137.283" y1="1579.030" x2="137.283" y2="1529.030"/>
      <line x1="138.283" y1="1579.030" x2="138.283" y2="1529.030"/>
      <line x1="139.283" y1="1579.030" x2="139.283" y2="1529.030"/>
      <line x1="140.283" y1="1579.030" x2="140.283" y2="1529.030"/>
      <line x1="141.283" y1="1579.030" x2="141.283" y2="1529.030"/>
      <line x1="142.283" y1="1579.030" x2="142.283" y2="1529.030"/>
      <line x1="143.283" y1="1579.030" x2="143.283" y2="1529.030"/>
      <line x1="144.283" y1="1579.030" x2="144.283" y2="1529.030"/>
      <line x1="145.283" y1="1579.030" x2="145.283" y2="1529.030"/>
      <line x1="146.283" y1="1579.030" x2="146.283" y2="1529.030"/>
      <line x1="147.283" y1="1579.030" x2="147.283" y2="1529.030"/>
      <line x1="148.283" y1="1579.030" x2="148.283" y2="1529.030"/>
      <line x1="149.283" y1="1579.030" x2="149.283" y2="1529.030"/>
      <line x1="150.283" y1="1579.030" x2="150.283" y2="1529.030"/>
      <line x1="151.283" y1="1579.030" x2="151.283" y2="1529.030"/>
      <line x1="152.283" y1="1579.030" x2="152.283" y2="1529.030"/>
      <line x1="153.283" y1="1579.030" x2="153.283" y2="1529.030"/>
      <line x1="154.283" y1="1579.030" x2="154.283" y2="1529.030"/>
      <line x1="155.283" y1="1579.030" x2="155.283" y2="1529.030"/>
      <line x1="156.283" y1="1579.030" x2="156.283" y2="1529.030"/>
      <line x1="157.283" y1="1579.030" x2="157.283" y2="1529.030"/>
      <line x1="158.283" y1="1579.030" x2="158.283" y2="1529.030"/>
      <line x1="159.283" y1="1579.030" x2="159.283" y2="1529.030"/>
      <line x1="160.283" y1="1579.030" x2="160.283" y2="1529.030"/>
      <line x1="161.283" y1="1579.030" x2="161.283" y2="1529.030"/>
      <line x1="162.283" y1="1579.030" x2="162.283" y2="1529.030"/>
      <line x1="163.283" y1="1579.030" x2="163.283" y2="1529.030"/>
      <line x1="164.283" y1="1579.030" x2="164.283" y2="1529.030"/>
      <line x1="165.283" y1="1579.030" x2="165.283" y2="1529.030"/>
      <line x1="166.283" y1="1579.030" x2="166.283" y2="1529.030"/>
      <line x1="167.283" y1="1579.030" x2="167.283" y2="1529.030"/>
      <line x1="168.283" y1="1579.030" x2="168.283" y2="1529.030"/>
      <line x1="169.283" y1="1579.030" x2="169.283" y2="1529.030"/>
      <line x1="170.283" y1="1579.030" x2="170.283" y2="1529.030"/>
      <line x1="171.283" y1="1579.030" x2="171.283" y2="1529.030"/>
      <line x1="172.283" y1="1579.030" x2="172.283" y2="1529.030"/>
      <line x1="173.283" y1="1579.030" x2="173.283" y2="1529.030"/>
      <line x1="43.283" y1="1528.930" x2="43.283" y2="1525.229"/>
      <line x1="65.283" y1="1528.930" x2="65.283" y2="1525.229"/>
      <line x1="42.283" y1="1528.930" x2="42.283" y2="1525.229"/>
      <line x1="45.283" y1="1528.930" x2="45.283" y2="1525.229"/>
      <line x1="46.283" y1="1528.930" x2="46.283" y2="1525.229"/>
      <line x1="48.283" y1="1528.930" x2="48.283" y2="1525.229"/>
      <line x1="51.283" y1="1528.930" x2="51.283" y2="1525.229"/>
      <line x1="53.283" y1="1528.930" x2="53.283" y2="1525.229"/>
      <line x1="54.283" y1="1528.930" x2="54.283" y2="1525.229"/>
      <line x1="56.283" y1="1528.930" x2="56.283" y2="1525.229"/>
      <line x1="57.283" y1="1528.930" x2="57.283" y2="1525.229"/>
      <line x1="59.283" y1="1528.930" x2="59.283" y2="1525.229"/>
      <line x1="62.283" y1="1528.930" x2="62.283" y2="1525.229"/>
      <line x1="60.283" y1="1528.930" x2="60.283" y2="1525.229"/>
      <line x1="63.283" y1="1528.930" x2="63.283" y2="1525.229"/>
      <line x1="47.283" y1="1528.930" x2="47.283" y2="1525.229"/>
      <line x1="50.283" y1="1528.930" x2="50.283" y2="1525.229"/>
      <line x1="49.283" y1="1528.930" x2="49.283" y2="1525.229"/>
      <line x1="52.283" y1="1528.930" x2="52.283" y2="1525.229"/>
      <line x1="55.283" y1="1528.930" x2="55.283" y2="1525.229"/>
      <line x1="58.283" y1="1528.930" x2="58.283" y2="1525.229"/>
      <line x1="61.283" y1="1528.930" x2="61.283" y2="1525.229"/>
      <line x1="64.283" y1="1528.930" x2="64.283" y2="1525.229"/>
      <line x1="44.283" y1="1528.930" x2="44.283" y2="1525.229"/>
      <line x1="71.283" y1="1528.930" x2="71.283" y2="1525.229"/>
      <line x1="82.283" y1="1528.930" x2="82.283" y2="1525.229"/>
      <line x1="81.283" y1="1528.930" x2="81.283" y2="1525.229"/>
      <line x1="80.283" y1="1528.930" x2="80.283" y2="1525.229"/>
      <line x1="79.283" y1="1528.930" x2="79.283" y2="1525.229"/>
      <line x1="78.283" y1="1528.930" x2="78.283" y2="1525.229"/>
      <line x1="77.283" y1="1528.930" x2="77.283" y2="1525.229"/>
      <line x1="76.283" y1="1528.930" x2="76.283" y2="1525.229"/>
      <line x1="75.283" y1="1528.930" x2="75.283" y2="1525.229"/>
      <line x1="74.283" y1="1528.930" x2="74.283" y2="1525.229"/>
      <line x1="73.283" y1="1528.930" x2="73.283" y2="1525.229"/>
      <line x1="72.283" y1="1528.930" x2="72.283" y2="1525.229"/>
      <line x1="83.283" y1="1528.930" x2="83.283" y2="1525.229"/>
      <line x1="70.283" y1="1528.930" x2="70.283" y2="1525.229"/>
      <line x1="69.283" y1="1528.930" x2="69.283" y2="1525.229"/>
      <line x1="68.283" y1="1528.930" x2="68.283" y2="1525.229"/>
      <line x1="67.283" y1="1528.930" x2="67.283" y2="1525.229"/>
      <line x1="66.283" y1="1528.930" x2="66.283" y2="1525.229"/>
      <line x1="91.283" y1="1528.930" x2="91.283" y2="1525.229"/>
      <line x1="90.283" y1="1528.930" x2="90.283" y2="1525.229"/>
      <line x1="89.283" y1="1528.930" x2="89.283" y2="1525.229"/>
      <line x1="88.283" y1="1528.930" x2="88.283" y2="1525.229"/>
      <line x1="87.283" y1="1528.930" x2="87.283" y2="1525.229"/>
      <line x1="86.283" y1="1528.930" x2="86.283" y2="1525.229"/>
      <line x1="85.283" y1="1528.930" x2="85.283" y2="1525.229"/>
      <line x1="84.283" y1="1528.930" x2="84.283" y2="1525.229"/>
      <line x1="141.283" y1="1528.930" x2="141.283" y2="1525.229"/>
      <line x1="116.283" y1="1528.930" x2="116.283" y2="1525.229"/>
      <line x1="126.283" y1="1528.930" x2="126.283" y2="1525.229"/>
      <line x1="125.283" y1="1528.930" x2="125.283" y2="1525.229"/>
      <line x1="124.283" y1="1528.930" x2="124.283" y2="1525.229"/>
      <line x1="123.283" y1="1528.930" x2="123.283" y2="1525.229"/>
      <line x1="122.283" y1="1528.930" x2="122.283" y2="1525.229"/>
      <line x1="121.283" y1="1528.930" x2="121.283" y2="1525.229"/>
      <line x1="120.283" y1="1528.930" x2="120.283" y2="1525.229"/>
      <line x1="119.283" y1="1528.930" x2="119.283" y2="1525.229"/>
      <line x1="118.283" y1="1528.930" x2="118.283" y2="1525.229"/>
      <line x1="117.283" y1="1528.930" x2="117.283" y2="1525.229"/>
      <line x1="127.283" y1="1528.930" x2="127.283" y2="1525.229"/>
      <line x1="115.283" y1="1528.930" x2="115.283" y2="1525.229"/>
      <line x1="114.283" y1="1528.930" x2="114.283" y2="1525.229"/>
      <line x1="113.283" y1="1528.930" x2="113.283" y2="1525.229"/>
      <line x1="112.283" y1="1528.930" x2="112.283" y2="1525.229"/>
      <line x1="111.283" y1="1528.930" x2="111.283" y2="1525.229"/>
      <line x1="110.283" y1="1528.930" x2="110.283" y2="1525.229"/>
      <line x1="109.283" y1="1528.930" x2="109.283" y2="1525.229"/>
      <line x1="108.283" y1="1528.930" x2="108.283" y2="1525.229"/>
      <line x1="107.283" y1="1528.930" x2="107.283" y2="1525.229"/>
      <line x1="105.283" y1="1528.930" x2="105.283" y2="1525.229"/>
      <line x1="138.283" y1="1528.930" x2="138.283" y2="1525.229"/>
      <line x1="140.283" y1="1528.930" x2="140.283" y2="1525.229"/>
      <line x1="139.283" y1="1528.930" x2="139.283" y2="1525.229"/>
      <line x1="137.283" y1="1528.930" x2="137.283" y2="1525.229"/>
      <line x1="136.283" y1="1528.930" x2="136.283" y2="1525.229"/>
      <line x1="135.283" y1="1528.930" x2="135.283" y2="1525.229"/>
      <line x1="134.283" y1="1528.930" x2="134.283" y2="1525.229"/>
      <line x1="133.283" y1="1528.930" x2="133.283" y2="1525.229"/>
      <line x1="132.283" y1="1528.930" x2="132.283" y2="1525.229"/>
      <line x1="131.283" y1="1528.930" x2="131.283" y2="1525.229"/>
      <line x1="130.283" y1="1528.930" x2="130.283" y2="1525.229"/>
      <line x1="129.283" y1="1528.930" x2="129.283" y2="1525.229"/>
      <line x1="128.283" y1="1528.930" x2="128.283" y2="1525.229"/>
      <line x1="94.283" y1="1528.930" x2="94.283" y2="1525.229"/>
      <line x1="104.283" y1="1528.930" x2="104.283" y2="1525.229"/>
      <line x1="103.283" y1="1528.930" x2="103.283" y2="1525.229"/>
      <line x1="102.283" y1="1528.930" x2="102.283" y2="1525.229"/>
      <line x1="101.283" y1="1528.930" x2="101.283" y2="1525.229"/>
      <line x1="100.283" y1="1528.930" x2="100.283" y2="1525.229"/>
      <line x1="99.283" y1="1528.930" x2="99.283" y2="1525.229"/>
      <line x1="98.283" y1="1528.930" x2="98.283" y2="1525.229"/>
      <line x1="97.283" y1="1528.930" x2="97.283" y2="1525.229"/>
      <line x1="96.283" y1="1528.930" x2="96.283" y2="1525.229"/>
      <line x1="95.283" y1="1528.930" x2="95.283" y2="1525.229"/>
      <line x1="106.283" y1="1528.930" x2="106.283" y2="1525.229"/>
      <line x1="93.283" y1="1528.930" x2="93.283" y2="1525.229"/>
      <line x1="92.283" y1="1528.930" x2="92.283" y2="1525.229"/>
      <line x1="155.283" y1="1528.930" x2="155.283" y2="1525.229"/>
      <line x1="156.283" y1="1528.930" x2="156.283" y2="1525.229"/>
      <line x1="157.283" y1="1528.930" x2="157.283" y2="1525.229"/>
      <line x1="158.283" y1="1528.930" x2="158.283" y2="1525.229"/>
      <line x1="159.283" y1="1528.930" x2="159.283" y2="1525.229"/>
      <line x1="160.283" y1="1528.930" x2="160.283" y2="1525.229"/>
      <line x1="161.283" y1="1528.930" x2="161.283" y2="1525.229"/>
      <line x1="162.283" y1="1528.930" x2="162.283" y2="1525.229"/>
      <line x1="163.283" y1="1528.930" x2="163.283" y2="1525.229"/>
      <line x1="164.283" y1="1528.930" x2="164.283" y2="1525.229"/>
      <line x1="165.283" y1="1528.930" x2="165.283" y2="1525.229"/>
      <line x1="166.283" y1="1528.930" x2="166.283" y2="1525.229"/>
      <line x1="167.283" y1="1528.930" x2="167.283" y2="1525.229"/>
      <line x1="168.283" y1="1528.930" x2="168.283" y2="1525.229"/>
      <line x1="169.283" y1="1528.930" x2="169.283" y2="1525.229"/>
      <line x1="170.283" y1="1528.930" x2="170.283" y2="1525.229"/>
      <line x1="171.283" y1="1528.930" x2="171.283" y2="1525.229"/>
      <line x1="172.283" y1="1528.930" x2="172.283" y2="1525.229"/>
      <line x1="173.283" y1="1528.930" x2="173.283" y2="1525.229"/>
      <line x1="153.283" y1="1528.930" x2="153.283" y2="1525.229"/>
      <line x1="154.283" y1="1528.930" x2="154.283" y2="1525.229"/>
      <line x1="152.283" y1="1528.930" x2="152.283" y2="1525.229"/>
      <line x1="150.283" y1="1528.930" x2="150.283" y2="1525.229"/>
      <line x1="149.283" y1="1528.930" x2="149.283" y2="1525.229"/>
      <line x1="147.283" y1="1528.930" x2="147.283" y2="1525.229"/>
      <line x1="142.283" y1="1528.930" x2="142.283" y2="1525.229"/>
      <line x1="144.283" y1="1528.930" x2="144.283" y2="1525.229"/>
      <line x1="143.283" y1="1528.930" x2="143.283" y2="1525.229"/>
      <line x1="146.283" y1="1528.930" x2="146.283" y2="1525.229"/>
      <line x1="145.283" y1="1528.930" x2="145.283" y2="1525.229"/>
      <line x1="148.283" y1="1528.930" x2="148.283" y2="1525.229"/>
      <line x1="151.283" y1="1528.930" x2="151.283" y2="1525.229"/>
      <line x1="426.901" y1="1679.230" x2="426.901" y2="1629.230"/>
      <line x1="427.901" y1="1679.230" x2="427.901" y2="1629.230"/>
      <line x1="428.901" y1="1679.230" x2="428.901" y2="1629.230"/>
      <line x1="429.901" y1="1679.230" x2="429.901" y2="1629.230"/>
      <line x1="430.901" y1="1679.230" x2="430.901" y2="1629.230"/>
      <line x1="431.901" y1="1679.230" x2="431.901" y2="1629.230"/>
      <line x1="432.901" y1="1679.230" x2="432.901" y2="1629.230"/>
      <line x1="433.901" y1="1679.230" x2="433.901" y2="1629.230"/>
      <line x1="434.901" y1="1679.230" x2="434.901" y2="1629.230"/>
      <line x1="435.901" y1="1679.230" x2="435.901" y2="1629.230"/>
      <line x1="436.901" y1="1679.230" x2="436.901" y2="1629.230"/>
      <line x1="437.901" y1="1679.230" x2="437.901" y2="1629.230"/>
      <line x1="438.901" y1="1679.230" x2="438.901" y2="1629.230"/>
      <line x1="439.901" y1="1679.230" x2="439.901" y2="1629.230"/>
      <line x1="440.901" y1="1679.230" x2="440.901" y2="1629.230"/>
      <line x1="441.901" y1="1679.230" x2="441.901" y2="1629.230"/>
      <line x1="442.901" y1="1679.230" x2="442.901" y2="1629.230"/>
      <line x1="443.901" y1="1679.230" x2="443.901" y2="1629.230"/>
      <line x1="444.901" y1="1679.230" x2="444.901" y2="1629.230"/>
      <line x1="445.901" y1="1679.230" x2="445.901" y2="1629.230"/>
      <line x1="446.901" y1="1679.230" x2="446.901" y2="1629.230"/>
      <line x1="447.901" y1="1679.230" x2="447.901" y2="1629.230"/>
      <line x1="448.901" y1="1679.230" x2="448.901" y2="1629.230"/>
      <line x1="449.901" y1="1679.230" x2="449.901" y2="1629.230"/>
      <line x1="450.901" y1="1679.230" x2="450.901" y2="1629.230"/>
      <line x1="451.901" y1="1679.230" x2="451.901" y2="1629.230"/>
      <line x1="452.901" y1="1679.230" x2="452.901" y2="1629.230"/>
      <line x1="453.901" y1="1679.230" x2="453.901" y2="1629.230"/>
      <line x1="454.901" y1="1679.230" x2="454.901" y2="1629.230"/>
      <line x1="455.901" y1="1679.230" x2="455.901" y2="1629.230"/>
      <line x1="456.901" y1="1679.230" x2="456.901" y2="1629.230"/>
      <line x1="457.901" y1="1679.230" x2="457.901" y2="1629.230"/>
      <line x1="458.901" y1="1679.230" x2="458.901" y2="1629.230"/>
      <line x1="459.901" y1="1679.230" x2="459.901" y2="1629.230"/>
      <line x1="460.901" y1="1679.230" x2="460.901" y2="1629.230"/>
      <line x1="461.901" y1="1679.230" x2="461.901" y2="1629.230"/>
      <line x1="462.901" y1="1679.230" x2="462.901" y2="1629.230"/>
      <line x1="463.901" y1="1679.230" x2="463.901" y2="1629.230"/>
      <line x1="464.901" y1="1679.230" x2="464.901" y2="1629.230"/>
      <line x1="465.901" y1="1679.230" x2="465.901" y2="1629.230"/>
      <line x1="466.901" y1="1679.230" x2="466.901" y2="1629.230"/>
      <line x1="467.901" y1="1679.230" x2="467.901" y2="1629.230"/>
      <line x1="468.901" y1="1679.230" x2="468.901" y2="1629.230"/>
      <line x1="469.901" y1="1679.230" x2="469.901" y2="1629.230"/>
      <line x1="470.901" y1="1679.230" x2="470.901" y2="1629.230"/>
      <line x1="471.901" y1="1679.230" x2="471.901" y2="1629.230"/>
      <line x1="472.901" y1="1679.230" x2="472.901" y2="1629.230"/>
      <line x1="473.901" y1="1679.230" x2="473.901" y2="1629.230"/>
      <line x1="474.901" y1="1679.230" x2="474.901" y2="1629.230"/>
      <line x1="475.901" y1="1679.230" x2="475.901" y2="1629.230"/>
      <line x1="476.901" y1="1679.230" x2="476.901" y2="1629.230"/>
      <line x1="477.901" y1="1679.230" x2="477.901" y2="1629.230"/>
      <line x1="478.901" y1="1679.230" x2="478.901" y2="1629.230"/>
      <line x1="479.901" y1="1679.230" x2="479.901" y2="1629.230"/>
      <line x1="480.901" y1="1679.230" x2="480.901" y2="1629.230"/>
      <line x1="481.901" y1="1679.230" x2="481.901" y2="1629.230"/>
      <line x1="482.901" y1="1679.230" x2="482.901" y2="1629.230"/>
      <line x1="483.901" y1="1679.230" x2="483.901" y2="1629.230"/>
      <line x1="484.901" y1="1679.230" x2="484.901" y2="1629.230"/>
      <line x1="485.901" y1="1679.230" x2="485.901" y2="1629.230"/>
      <line x1="486.901" y1="1679.230" x2="486.901" y2="1629.230"/>
      <line x1="487.901" y1="1679.230" x2="487.901" y2="1629.230"/>
      <line x1="488.901" y1="1679.230" x2="488.901" y2="1629.230"/>
      <line x1="489.901" y1="1679.230" x2="489.901" y2="1629.230"/>
      <line x1="490.901" y1="1679.230" x2="490.901" y2="1629.230"/>
      <line x1="491.901" y1="1679.230" x2="491.901" y2="1629.230"/>
      <line x1="492.901" y1="1679.230" x2="492.901" y2="1629.230"/>
      <line x1="493.901" y1="1679.230" x2="493.901" y2="1629.230"/>
      <line x1="494.901" y1="1679.230" x2="494.901" y2="1629.230"/>
      <line x1="495.901" y1="1679.230" x2="495.901" y2="1629.230"/>
      <line x1="496.901" y1="1679.230" x2="496.901" y2="1629.230"/>
      <line x1="497.901" y1="1679.230" x2="497.901" y2="1629.230"/>
      <line x1="498.901" y1="1679.230" x2="498.901" y2="1629.230"/>
      <line x1="499.901" y1="1679.230" x2="499.901" y2="1629.230"/>
      <line x1="500.901" y1="1679.230" x2="500.901" y2="1629.230"/>
      <line x1="501.901" y1="1679.230" x2="501.901" y2="1629.230"/>
      <line x1="502.901" y1="1679.230" x2="502.901" y2="1629.230"/>
      <line x1="503.901" y1="1679.230" x2="503.901" y2="1629.230"/>
      <line x1="504.901" y1="1679.230" x2="504.901" y2="1629.230"/>
      <line x1="505.901" y1="1679.230" x2="505.901" y2="1629.230"/>
      <line x1="506.901" y1="1679.230" x2="506.901" y2="1629.230"/>
      <line x1="507.901" y1="1679.230" x2="507.901" y2="1629.230"/>
      <line x1="508.901" y1="1679.230" x2="508.901" y2="1629.230"/>
      <line x1="509.901" y1="1679.230" x2="509.901" y2="1629.230"/>
      <line x1="510.901" y1="1679.230" x2="510.901" y2="1629.230"/>
      <line x1="511.901" y1="1679.230" x2="511.901" y2="1629.230"/>
      <line x1="512.901" y1="1679.230" x2="512.901" y2="1629.230"/>
      <line x1="513.901" y1="1679.230" x2="513.901" y2="1629.230"/>
      <line x1="514.901" y1="1679.230" x2="514.901" y2="1629.230"/>
      <line x1="515.901" y1="1679.230" x2="515.901" y2="1629.230"/>
      <line x1="516.901" y1="1679.230" x2="516.901" y2="1629.230"/>
      <line x1="517.901" y1="1679.230" x2="517.901" y2="1629.230"/>
      <line x1="518.901" y1="1679.230" x2="518.901" y2="1629.230"/>
      <line x1="519.901" y1="1679.230" x2="519.901" y2="1629.230"/>
      <line x1="520.901" y1="1679.230" x2="520.901" y2="1629.230"/>
      <line x1="521.901" y1="1679.230" x2="521.901" y2="1629.230"/>
      <line x1="522.901" y1="1679.230" x2="522.901" y2="1629.230"/>
      <line x1="523.901" y1="1679.230" x2="523.901" y2="1629.230"/>
      <line x1="524.901" y1="1679.230" x2="524.901" y2="1629.230"/>
      <line x1="525.901" y1="1679.230" x2="525.901" y2="1629.230"/>
      <line x1="526.901" y1="1679.230" x2="526.901" y2="1629.230"/>
      <line x1="527.901" y1="1679.230" x2="527.901" y2="1629.230"/>
      <line x1="528.901" y1="1679.230" x2="528.901" y2="1629.230"/>
      <line x1="529.901" y1="1679.230" x2="529.901" y2="1629.230"/>
      <line x1="530.901" y1="1679.230" x2="530.901" y2="1629.230"/>
      <line x1="531.901" y1="1679.230" x2="531.901" y2="1629.230"/>
      <line x1="532.901" y1="1679.230" x2="532.901" y2="1629.230"/>
      <line x1="533.901" y1="1679.230" x2="533.901" y2="1629.230"/>
      <line x1="534.901" y1="1679.230" x2="534.901" y2="1629.230"/>
      <line x1="535.901" y1="1679.230" x2="535.901" y2="1629.230"/>
      <line x1="536.901" y1="1679.230" x2="536.901" y2="1629.230"/>
      <line x1="537.901" y1="1679.230" x2="537.901" y2="1629.230"/>
      <line x1="538.901" y1="1679.230" x2="538.901" y2="1629.230"/>
      <line x1="539.901" y1="1679.230" x2="539.901" y2="1629.230"/>
      <line x1="540.901" y1="1679.230" x2="540.901" y2="1629.230"/>
      <line x1="541.901" y1="1679.230" x2="541.901" y2="1629.230"/>
      <line x1="542.901" y1="1679.230" x2="542.901" y2="1629.230"/>
      <line x1="543.901" y1="1679.230" x2="543.901" y2="1629.230"/>
      <line x1="544.901" y1="1679.230" x2="544.901" y2="1629.230"/>
      <line x1="545.901" y1="1679.230" x2="545.901" y2="1629.230"/>
      <line x1="546.901" y1="1679.230" x2="546.901" y2="1629.230"/>
      <line x1="547.901" y1="1679.230" x2="547.901" y2="1629.230"/>
      <line x1="548.901" y1="1679.230" x2="548.901" y2="1629.230"/>
      <line x1="549.901" y1="1679.230" x2="549.901" y2="1629.230"/>
      <line x1="550.901" y1="1679.230" x2="550.901" y2="1629.230"/>
      <line x1="551.901" y1="1679.230" x2="551.901" y2="1629.230"/>
      <line x1="552.901" y1="1679.230" x2="552.901" y2="1629.230"/>
      <line x1="553.901" y1="1679.230" x2="553.901" y2="1629.230"/>
      <line x1="554.901" y1="1679.230" x2="554.901" y2="1629.230"/>
      <line x1="555.901" y1="1679.230" x2="555.901" y2="1629.230"/>
      <line x1="556.901" y1="1679.230" x2="556.901" y2="1629.230"/>
      <line x1="557.901" y1="1679.230" x2="557.901" y2="1629.230"/>
      <line x1="426.901" y1="1629.130" x2="426.901" y2="1579.130"/>
      <line x1="427.901" y1="1629.130" x2="427.901" y2="1579.130"/>
      <line x1="428.901" y1="1629.130" x2="428.901" y2="1579.130"/>
      <line x1="429.901" y1="1629.130" x2="429.901" y2="1579.130"/>
      <line x1="430.901" y1="1629.130" x2="430.901" y2="1579.130"/>
      <line x1="431.901" y1="1629.130" x2="431.901" y2="1579.130"/>
      <line x1="432.901" y1="1629.130" x2="432.901" y2="1579.130"/>
      <line x1="433.901" y1="1629.130" x2="433.901" y2="1579.130"/>
      <line x1="434.901" y1="1629.130" x2="434.901" y2="1579.130"/>
      <line x1="435.901" y1="1629.130" x2="435.901" y2="1579.130"/>
      <line x1="436.901" y1="1629.130" x2="436.901" y2="1579.130"/>
      <line x1="437.901" y1="1629.130" x2="437.901" y2="1579.130"/>
      <line x1="438.901" y1="1629.130" x2="438.901" y2="1579.130"/>
      <line x1="439.901" y1="1629.130" x2="439.901" y2="1579.130"/>
      <line x1="440.901" y1="1629.130" x2="440.901" y2="1579.130"/>
      <line x1="441.901" y1="1629.130" x2="441.901" y2="1579.130"/>
      <line x1="442.901" y1="1629.130" x2="442.901" y2="1579.130"/>
      <line x1="443.901" y1="1629.130" x2="443.901" y2="1579.130"/>
      <line x1="444.901" y1="1629.130" x2="444.901" y2="1579.130"/>
      <line x1="445.901" y1="1629.130" x2="445.901" y2="1579.130"/>
      <line x1="446.901" y1="1629.130" x2="446.901" y2="1579.130"/>
      <line x1="447.901" y1="1629.130" x2="447.901" y2="1579.130"/>
      <line x1="448.901" y1="1629.130" x2="448.901" y2="1579.130"/>
      <line x1="449.901" y1="1629.130" x2="449.901" y2="1579.130"/>
      <line x1="450.901" y1="1629.130" x2="450.901" y2="1579.130"/>
      <line x1="451.901" y1="1629.130" x2="451.901" y2="1579.130"/>
      <line x1="452.901" y1="1629.130" x2="452.901" y2="1579.130"/>
      <line x1="453.901" y1="1629.130" x2="453.901" y2="1579.130"/>
      <line x1="454.901" y1="1629.130" x2="454.901" y2="1579.130"/>
      <line x1="455.901" y1="1629.130" x2="455.901" y2="1579.130"/>
      <line x1="456.901" y1="1629.130" x2="456.901" y2="1579.130"/>
      <line x1="457.901" y1="1629.130" x2="457.901" y2="1579.130"/>
      <line x1="458.901" y1="1629.130" x2="458.901" y2="1579.130"/>
      <line x1="459.901" y1="1629.130" x2="459.901" y2="1579.130"/>
      <line x1="460.901" y1="1629.130" x2="460.901" y2="1579.130"/>
      <line x1="461.901" y1="1629.130" x2="461.901" y2="1579.130"/>
      <line x1="462.901" y1="1629.130" x2="462.901" y2="1579.130"/>
      <line x1="463.901" y1="1629.130" x2="463.901" y2="1579.130"/>
      <line x1="464.901" y1="1629.130" x2="464.901" y2="1579.130"/>
      <line x1="465.901" y1="1629.130" x2="465.901" y2="1579.130"/>
      <line x1="466.901" y1="1629.130" x2="466.901" y2="1579.130"/>
      <line x1="467.901" y1="1629.130" x2="467.901" y2="1579.130"/>
      <line x1="468.901" y1="1629.130" x2="468.901" y2="1579.130"/>
      <line x1="469.901" y1="1629.130" x2="469.901" y2="1579.130"/>
      <line x1="470.901" y1="1629.130" x2="470.901" y2="1579.130"/>
      <line x1="471.901" y1="1629.130" x2="471.901" y2="1579.130"/>
      <line x1="472.901" y1="1629.130" x2="472.901" y2="1579.130"/>
      <line x1="473.901" y1="1629.130" x2="473.901" y2="1579.130"/>
      <line x1="474.901" y1="1629.130" x2="474.901" y2="1579.130"/>
      <line x1="475.901" y1="1629.130" x2="475.901" y2="1579.130"/>
      <line x1="476.901" y1="1629.130" x2="476.901" y2="1579.130"/>
      <line x1="477.901" y1="1629.130" x2="477.901" y2="1579.130"/>
      <line x1="478.901" y1="1629.130" x2="478.901" y2="1579.130"/>
      <line x1="479.901" y1="1629.130" x2="479.901" y2="1579.130"/>
      <line x1="480.901" y1="1629.130" x2="480.901" y2="1579.130"/>
      <line x1="481.901" y1="1629.130" x2="481.901" y2="1579.130"/>
      <line x1="482.901" y1="1629.130" x2="482.901" y2="1579.130"/>
      <line x1="483.901" y1="1629.130" x2="483.901" y2="1579.130"/>
      <line x1="484.901" y1="1629.130" x2="484.901" y2="1579.130"/>
      <line x1="485.901" y1="1629.130" x2="485.901" y2="1579.130"/>
      <line x1="486.901" y1="1629.130" x2="486.901" y2="1579.130"/>
      <line x1="487.901" y1="1629.130" x2="487.901" y2="1579.130"/>
      <line x1="488.901" y1="1629.130" x2="488.901" y2="1579.130"/>
      <line x1="489.901" y1="1629.130" x2="489.901" y2="1579.130"/>
      <line x1="490.901" y1="1629.130" x2="490.901" y2="1579.130"/>
      <line x1="491.901" y1="1629.130" x2="491.901" y2="1579.130"/>
      <line x1="492.901" y1="1629.130" x2="492.901" y2="1579.130"/>
      <line x1="493.901" y1="1629.130" x2="493.901" y2="1579.130"/>
      <line x1="494.901" y1="1629.130" x2="494.901" y2="1579.130"/>
      <line x1="495.901" y1="1629.130" x2="495.901" y2="1579.130"/>
      <line x1="496.901" y1="1629.130" x2="496.901" y2="1579.130"/>
      <line x1="497.901" y1="1629.130" x2="497.901" y2="1579.130"/>
      <line x1="498.901" y1="1629.130" x2="498.901" y2="1579.130"/>
      <line x1="499.901" y1="1629.130" x2="499.901" y2="1579.130"/>
      <line x1="500.901" y1="1629.130" x2="500.901" y2="1579.130"/>
      <line x1="501.901" y1="1629.130" x2="501.901" y2="1579.130"/>
      <line x1="502.901" y1="1629.130" x2="502.901" y2="1579.130"/>
      <line x1="503.901" y1="1629.130" x2="503.901" y2="1579.130"/>
      <line x1="504.901" y1="1629.130" x2="504.901" y2="1579.130"/>
      <line x1="505.901" y1="1629.130" x2="505.901" y2="1579.130"/>
      <line x1="506.901" y1="1629.130" x2="506.901" y2="1579.130"/>
      <line x1="507.901" y1="1629.130" x2="507.901" y2="1579.130"/>
      <line x1="508.901" y1="1629.130" x2="508.901" y2="1579.130"/>
      <line x1="509.901" y1="1629.130" x2="509.901" y2="1579.130"/>
      <line x1="510.901" y1="1629.130" x2="510.901" y2="1579.130"/>
      <line x1="511.901" y1="1629.130" x2="511.901" y2="1579.130"/>
      <line x1="512.901" y1="1629.130" x2="512.901" y2="1579.130"/>
      <line x1="513.901" y1="1629.130" x2="513.901" y2="1579.130"/>
      <line x1="514.901" y1="1629.130" x2="514.901" y2="1579.130"/>
      <line x1="515.901" y1="1629.130" x2="515.901" y2="1579.130"/>
      <line x1="516.901" y1="1629.130" x2="516.901" y2="1579.130"/>
      <line x1="517.901" y1="1629.130" x2="517.901" y2="1579.130"/>
      <line x1="518.901" y1="1629.130" x2="518.901" y2="1579.130"/>
      <line x1="519.901" y1="1629.130" x2="519.901" y2="1579.130"/>
      <line x1="520.901" y1="1629.130" x2="520.901" y2="1579.130"/>
      <line x1="521.901" y1="1629.130" x2="521.901" y2="1579.130"/>
      <line x1="522.901" y1="1629.130" x2="522.901" y2="1579.130"/>
      <line x1="523.901" y1="1629.130" x2="523.901" y2="1579.130"/>
      <line x1="524.901" y1="1629.130" x2="524.901" y2="1579.130"/>
      <line x1="525.901" y1="1629.130" x2="525.901" y2="1579.130"/>
      <line x1="526.901" y1="1629.130" x2="526.901" y2="1579.130"/>
      <line x1="527.901" y1="1629.130" x2="527.901" y2="1579.130"/>
      <line x1="528.901" y1="1629.130" x2="528.901" y2="1579.130"/>
      <line x1="529.901" y1="1629.130" x2="529.901" y2="1579.130"/>
      <line x1="530.901" y1="1629.130" x2="530.901" y2="1579.130"/>
      <line x1="531.901" y1="1629.130" x2="531.901" y2="1579.130"/>
      <line x1="532.901" y1="1629.130" x2="532.901" y2="1579.130"/>
      <line x1="533.901" y1="1629.130" x2="533.901" y2="1579.130"/>
      <line x1="534.901" y1="1629.130" x2="534.901" y2="1579.130"/>
      <line x1="535.901" y1="1629.130" x2="535.901" y2="1579.130"/>
      <line x1="536.901" y1="1629.130" x2="536.901" y2="1579.130"/>
      <line x1="537.901" y1="1629.130" x2="537.901" y2="1579.130"/>
      <line x1="538.901" y1="1629.130" x2="538.901" y2="1579.130"/>
      <line x1="539.901" y1="1629.130" x2="539.901" y2="1579.130"/>
      <line x1="540.901" y1="1629.130" x2="540.901" y2="1579.130"/>
      <line x1="541.901" y1="1629.130" x2="541.901" y2="1579.130"/>
      <line x1="542.901" y1="1629.130" x2="542.901" y2="1579.130"/>
      <line x1="543.901" y1="1629.130" x2="543.901" y2="1579.130"/>
      <line x1="544.901" y1="1629.130" x2="544.901" y2="1579.130"/>
      <line x1="545.901" y1="1629.130" x2="545.901" y2="1579.130"/>
      <line x1="546.901" y1="1629.130" x2="546.901" y2="1579.130"/>
      <line x1="547.901" y1="1629.130" x2="547.901" y2="1579.130"/>
      <line x1="548.901" y1="1629.130" x2="548.901" y2="1579.130"/>
      <line x1="549.901" y1="1629.130" x2="549.901" y2="1579.130"/>
      <line x1="550.901" y1="1629.130" x2="550.901" y2="1579.130"/>
      <line x1="551.901" y1="1629.130" x2="551.901" y2="1579.130"/>
      <line x1="552.901" y1="1629.130" x2="552.901" y2="1579.130"/>
      <line x1="553.901" y1="1629.130" x2="553.901" y2="1579.130"/>
      <line x1="554.901" y1="1629.130" x2="554.901" y2="1579.130"/>
      <line x1="555.901" y1="1629.130" x2="555.901" y2="1579.130"/>
      <line x1="556.901" y1="1629.130" x2="556.901" y2="1579.130"/>
      <line x1="557.901" y1="1629.130" x2="557.901" y2="1579.130"/>
      <line x1="426.901" y1="1579.030" x2="426.901" y2="1529.030"/>
      <line x1="427.901" y1="1579.030" x2="427.901" y2="1529.030"/>
      <line x1="428.901" y1="1579.030" x2="428.901" y2="1529.030"/>
      <line x1="429.901" y1="1579.030" x2="429.901" y2="1529.030"/>
      <line x1="430.901" y1="1579.030" x2="430.901" y2="1529.030"/>
      <line x1="431.901" y1="1579.030" x2="431.901" y2="1529.030"/>
      <line x1="432.901" y1="1579.030" x2="432.901" y2="1529.030"/>
      <line x1="433.901" y1="1579.030" x2="433.901" y2="1529.030"/>
      <line x1="434.901" y1="1579.030" x2="434.901" y2="1529.030"/>
      <line x1="435.901" y1="1579.030" x2="435.901" y2="1529.030"/>
      <line x1="436.901" y1="1579.030" x2="436.901" y2="1529.030"/>
      <line x1="437.901" y1="1579.030" x2="437.901" y2="1529.030"/>
      <line x1="438.901" y1="1579.030" x2="438.901" y2="1529.030"/>
      <line x1="439.901" y1="1579.030" x2="439.901" y2="1529.030"/>
      <line x1="440.901" y1="1579.030" x2="440.901" y2="1529.030"/>
      <line x1="441.901" y1="1579.030" x2="441.901" y2="1529.030"/>
      <line x1="442.901" y1="1579.030" x2="442.901" y2="1529.030"/>
      <line x1="443.901" y1="1579.030" x2="443.901" y2="1529.030"/>
      <line x1="444.901" y1="1579.030" x2="444.901" y2="1529.030"/>
      <line x1="445.901" y1="1579.030" x2="445.901" y2="1529.030"/>
      <line x1="446.901" y1="1579.030" x2="446.901" y2="1529.030"/>
      <line x1="447.901" y1="1579.030" x2="447.901" y2="1529.030"/>
      <line x1="448.901" y1="1579.030" x2="448.901" y2="1529.030"/>
      <line x1="449.901" y1="1579.030" x2="449.901" y2="1529.030"/>
      <line x1="450.901" y1="1579.030" x2="450.901" y2="1529.030"/>
      <line x1="451.901" y1="1579.030" x2="451.901" y2="1529.030"/>
      <line x1="452.901" y1="1579.030" x2="452.901" y2="1529.030"/>
      <line x1="453.901" y1="1579.030" x2="453.901" y2="1529.030"/>
      <line x1="454.901" y1="1579.030" x2="454.901" y2="1529.030"/>
      <line x1="455.901" y1="1579.030" x2="455.901" y2="1529.030"/>
      <line x1="456.901" y1="1579.030" x2="456.901" y2="1529.030"/>
      <line x1="457.901" y1="1579.030" x2="457.901" y2="1529.030"/>
      <line x1="458.901" y1="1579.030" x2="458.901" y2="1529.030"/>
      <line x1="459.901" y1="1579.030" x2="459.901" y2="1529.030"/>
      <line x1="460.901" y1="1579.030" x2="460.901" y2="1529.030"/>
      <line x1="461.901" y1="1579.030" x2="461.901" y2="1529.030"/>
      <line x1="462.901" y1="1579.030" x2="462.901" y2="1529.030"/>
      <line x1="463.901" y1="1579.030" x2="463.901" y2="1529.030"/>
      <line x1="464.901" y1="1579.030" x2="464.901" y2="1529.030"/>
      <line x1="465.901" y1="1579.030" x2="465.901" y2="1529.030"/>
      <line x1="466.901" y1="1579.030" x2="466.901" y2="1529.030"/>
      <line x1="467.901" y1="1579.030" x2="467.901" y2="1529.030"/>
      <line x1="468.901" y1="1579.030" x2="468.901" y2="1529.030"/>
      <line x1="469.901" y1="1579.030" x2="469.901" y2="1529.030"/>
      <line x1="470.901" y1="1579.030" x2="470.901" y2="1529.030"/>
      <line x1="471.901" y1="1579.030" x2="471.901" y2="1529.030"/>
      <line x1="472.901" y1="1579.030" x2="472.901" y2="1529.030"/>
      <line x1="473.901" y1="1579.030" x2="473.901" y2="1529.030"/>
      <line x1="474.901" y1="1579.030" x2="474.901" y2="1529.030"/>
      <line x1="475.901" y1="1579.030" x2="475.901" y2="1529.030"/>
      <line x1="476.901" y1="1579.030" x2="476.901" y2="1529.030"/>
      <line x1="477.901" y1="1579.030" x2="477.901" y2="1529.030"/>
      <line x1="478.901" y1="1579.030" x2="478.901" y2="1529.030"/>
      <line x1="479.901" y1="1579.030" x2="479.901" y2="1529.030"/>
      <line x1="480.901" y1="1579.030" x2="480.901" y2="1529.030"/>
      <line x1="481.901" y1="1579.030" x2="481.901" y2="1529.030"/>
      <line x1="482.901" y1="1579.030" x2="482.901" y2="1529.030"/>
      <line x1="483.901" y1="1579.030" x2="483.901" y2="1529.030"/>
      <line x1="484.901" y1="1579.030" x2="484.901" y2="1529.030"/>
      <line x1="485.901" y1="1579.030" x2="485.901" y2="1529.030"/>
      <line x1="486.901" y1="1579.030" x2="486.901" y2="1529.030"/>
      <line x1="487.901" y1="1579.030" x2="487.901" y2="1529.030"/>
      <line x1="488.901" y1="1579.030" x2="488.901" y2="1529.030"/>
      <line x1="489.901" y1="1579.030" x2="489.901" y2="1529.030"/>
      <line x1="490.901" y1="1579.030" x2="490.901" y2="1529.030"/>
      <line x1="491.901" y1="1579.030" x2="491.901" y2="1529.030"/>
      <line x1="492.901" y1="1579.030" x2="492.901" y2="1529.030"/>
      <line x1="493.901" y1="1579.030" x2="493.901" y2="1529.030"/>
      <line x1="494.901" y1="1579.030" x2="494.901" y2="1529.030"/>
      <line x1="495.901" y1="1579.030" x2="495.901" y2="1529.030"/>
      <line x1="496.901" y1="1579.030" x2="496.901" y2="1529.030"/>
      <line x1="497.901" y1="1579.030" x2="497.901" y2="1529.030"/>
      <line x1="498.901" y1="1579.030" x2="498.901" y2="1529.030"/>
      <line x1="499.901" y1="1579.030" x2="499.901" y2="1529.030"/>
      <line x1="500.901" y1="1579.030" x2="500.901" y2="1529.030"/>
      <line x1="501.901" y1="1579.030" x2="501.901" y2="1529.030"/>
      <line x1="502.901" y1="1579.030" x2="502.901" y2="1529.030"/>
      <line x1="503.901" y1="1579.030" x2="503.901" y2="1529.030"/>
      <line x1="504.901" y1="1579.030" x2="504.901" y2="1529.030"/>
      <line x1="505.901" y1="1579.030" x2="505.901" y2="1529.030"/>
      <line x1="506.901" y1="1579.030" x2="506.901" y2="1529.030"/>
      <line x1="507.901" y1="1579.030" x2="507.901" y2="1529.030"/>
      <line x1="508.901" y1="1579.030" x2="508.901" y2="1529.030"/>
      <line x1="509.901" y1="1579.030" x2="509.901" y2="1529.030"/>
      <line x1="510.901" y1="1579.030" x2="510.901" y2="1529.030"/>
      <line x1="511.901" y1="1579.030" x2="511.901" y2="1529.030"/>
      <line x1="512.901" y1="1579.030" x2="512.901" y2="1529.030"/>
      <line x1="513.901" y1="1579.030" x2="513.901" y2="1529.030"/>
      <line x1="514.901" y1="1579.030" x2="514.901" y2="1529.030"/>
      <line x1="515.901" y1="1579.030" x2="515.901" y2="1529.030"/>
      <line x1="516.901" y1="1579.030" x2="516.901" y2="1529.030"/>
      <line x1="517.901" y1="1579.030" x2="517.901" y2="1529.030"/>
      <line x1="518.901" y1="1579.030" x2="518.901" y2="1529.030"/>
      <line x1="519.901" y1="1579.030" x2="519.901" y2="1529.030"/>
      <line x1="520.901" y1="1579.030" x2="520.901" y2="1529.030"/>
      <line x1="521.901" y1="1579.030" x2="521.901" y2="1529.030"/>
      <line x1="522.901" y1="1579.030" x2="522.901" y2="1529.030"/>
      <line x1="523.901" y1="1579.030" x2="523.901" y2="1529.030"/>
      <line x1="524.901" y1="1579.030" x2="524.901" y2="1529.030"/>
      <line x1="525.901" y1="1579.030" x2="525.901" y2="1529.030"/>
      <line x1="526.901" y1="1579.030" x2="526.901" y2="1529.030"/>
      <line x1="527.901" y1="1579.030" x2="527.901" y2="1529.030"/>
      <line x1="528.901" y1="1579.030" x2="528.901" y2="1529.030"/>
      <line x1="529.901" y1="1579.030" x2="529.901" y2="1529.030"/>
      <line x1="530.901" y1="1579.030" x2="530.901" y2="1529.030"/>
      <line x1="531.901" y1="1579.030" x2="531.901" y2="1529.030"/>
      <line x1="532.901" y1="1579.030" x2="532.901" y2="1529.030"/>
      <line x1="533.901" y1="1579.030" x2="533.901" y2="1529.030"/>
      <line x1="534.901" y1="1579.030" x2="534.901" y2="1529.030"/>
      <line x1="535.901" y1="1579.030" x2="535.901" y2="1529.030"/>
      <line x1="536.901" y1="1579.030" x2="536.901" y2="1529.030"/>
      <line x1="537.901" y1="1579.030" x2="537.901" y2="1529.030"/>
      <line x1="538.901" y1="1579.030" x2="538.901" y2="1529.030"/>
      <line x1="539.901" y1="1579.030" x2="539.901" y2="1529.030"/>
      <line x1="540.901" y1="1579.030" x2="540.901" y2="1529.030"/>
      <line x1="541.901" y1="1579.030" x2="541.901" y2="1529.030"/>
      <line x1="542.901" y1="1579.030" x2="542.901" y2="1529.030"/>
      <line x1="543.901" y1="1579.030" x2="543.901" y2="1529.030"/>
      <line x1="544.901" y1="1579.030" x2="544.901" y2="1529.030"/>
      <line x1="545.901" y1="1579.030" x2="545.901" y2="1529.030"/>
      <line x1="546.901" y1="1579.030" x2="546.901" y2="1529.030"/>
      <line x1="547.901" y1="1579.030" x2="547.901" y2="1529.030"/>
      <line x1="548.901" y1="1579.030" x2="548.901" y2="1529.030"/>
      <line x1="549.901" y1="1579.030" x2="549.901" y2="1529.030"/>
      <line x1="550.901" y1="1579.030" x2="550.901" y2="1529.030"/>
      <line x1="551.901" y1="1579.030" x2="551.901" y2="1529.030"/>
      <line x1="552.901" y1="1579.030" x2="552.901" y2="1529.030"/>
      <line x1="553.901" y1="1579.030" x2="553.901" y2="1529.030"/>
      <line x1="554.901" y1="1579.030" x2="554.901" y2="1529.030"/>
      <line x1="555.901" y1="1579.030" x2="555.901" y2="1529.030"/>
      <line x1="556.901" y1="1579.030" x2="556.901" y2="1529.030"/>
      <line x1="557.901" y1="1579.030" x2="557.901" y2="1529.030"/>
      <line x1="452.901" y1="1528.930" x2="452.901" y2="1525.229"/>
      <line x1="427.901" y1="1528.930" x2="427.901" y2="1525.229"/>
      <line x1="454.901" y1="1528.930" x2="454.901" y2="1525.229"/>
      <line x1="455.901" y1="1528.930" x2="455.901" y2="1525.229"/>
      <line x1="457.901" y1="1528.930" x2="457.901" y2="1525.229"/>
      <line x1="458.901" y1="1528.930" x2="458.901" y2="1525.229"/>
      <line x1="447.901" y1="1528.930" x2="447.901" y2="1525.229"/>
      <line x1="426.901" y1="1528.930" x2="426.901" y2="1525.229"/>
      <line x1="428.901" y1="1528.930" x2="428.901" y2="1525.229"/>
      <line x1="429.901" y1="1528.930" x2="429.901" y2="1525.229"/>
      <line x1="430.901" y1="1528.930" x2="430.901" y2="1525.229"/>
      <line x1="431.901" y1="1528.930" x2="431.901" y2="1525.229"/>
      <line x1="432.901" y1="1528.930" x2="432.901" y2="1525.229"/>
      <line x1="433.901" y1="1528.930" x2="433.901" y2="1525.229"/>
      <line x1="434.901" y1="1528.930" x2="434.901" y2="1525.229"/>
      <line x1="435.901" y1="1528.930" x2="435.901" y2="1525.229"/>
      <line x1="436.901" y1="1528.930" x2="436.901" y2="1525.229"/>
      <line x1="438.901" y1="1528.930" x2="438.901" y2="1525.229"/>
      <line x1="449.901" y1="1528.930" x2="449.901" y2="1525.229"/>
      <line x1="446.901" y1="1528.930" x2="446.901" y2="1525.229"/>
      <line x1="445.901" y1="1528.930" x2="445.901" y2="1525.229"/>
      <line x1="444.901" y1="1528.930" x2="444.901" y2="1525.229"/>
      <line x1="443.901" y1="1528.930" x2="443.901" y2="1525.229"/>
      <line x1="441.901" y1="1528.930" x2="441.901" y2="1525.229"/>
      <line x1="437.901" y1="1528.930" x2="437.901" y2="1525.229"/>
      <line x1="439.901" y1="1528.930" x2="439.901" y2="1525.229"/>
      <line x1="442.901" y1="1528.930" x2="442.901" y2="1525.229"/>
      <line x1="440.901" y1="1528.930" x2="440.901" y2="1525.229"/>
      <line x1="451.901" y1="1528.930" x2="451.901" y2="1525.229"/>
      <line x1="450.901" y1="1528.930" x2="450.901" y2="1525.229"/>
      <line x1="453.901" y1="1528.930" x2="453.901" y2="1525.229"/>
      <line x1="456.901" y1="1528.930" x2="456.901" y2="1525.229"/>
      <line x1="448.901" y1="1528.930" x2="448.901" y2="1525.229"/>
      <line x1="460.901" y1="1528.930" x2="460.901" y2="1525.229"/>
      <line x1="470.901" y1="1528.930" x2="470.901" y2="1525.229"/>
      <line x1="469.901" y1="1528.930" x2="469.901" y2="1525.229"/>
      <line x1="468.901" y1="1528.930" x2="468.901" y2="1525.229"/>
      <line x1="467.901" y1="1528.930" x2="467.901" y2="1525.229"/>
      <line x1="466.901" y1="1528.930" x2="466.901" y2="1525.229"/>
      <line x1="465.901" y1="1528.930" x2="465.901" y2="1525.229"/>
      <line x1="464.901" y1="1528.930" x2="464.901" y2="1525.229"/>
      <line x1="463.901" y1="1528.930" x2="463.901" y2="1525.229"/>
      <line x1="462.901" y1="1528.930" x2="462.901" y2="1525.229"/>
      <line x1="461.901" y1="1528.930" x2="461.901" y2="1525.229"/>
      <line x1="471.901" y1="1528.930" x2="471.901" y2="1525.229"/>
      <line x1="459.901" y1="1528.930" x2="459.901" y2="1525.229"/>
      <line x1="475.901" y1="1528.930" x2="475.901" y2="1525.229"/>
      <line x1="474.901" y1="1528.930" x2="474.901" y2="1525.229"/>
      <line x1="473.901" y1="1528.930" x2="473.901" y2="1525.229"/>
      <line x1="472.901" y1="1528.930" x2="472.901" y2="1525.229"/>
      <line x1="504.901" y1="1528.930" x2="504.901" y2="1525.229"/>
      <line x1="514.901" y1="1528.930" x2="514.901" y2="1525.229"/>
      <line x1="513.901" y1="1528.930" x2="513.901" y2="1525.229"/>
      <line x1="512.901" y1="1528.930" x2="512.901" y2="1525.229"/>
      <line x1="511.901" y1="1528.930" x2="511.901" y2="1525.229"/>
      <line x1="510.901" y1="1528.930" x2="510.901" y2="1525.229"/>
      <line x1="509.901" y1="1528.930" x2="509.901" y2="1525.229"/>
      <line x1="508.901" y1="1528.930" x2="508.901" y2="1525.229"/>
      <line x1="507.901" y1="1528.930" x2="507.901" y2="1525.229"/>
      <line x1="506.901" y1="1528.930" x2="506.901" y2="1525.229"/>
      <line x1="505.901" y1="1528.930" x2="505.901" y2="1525.229"/>
      <line x1="515.901" y1="1528.930" x2="515.901" y2="1525.229"/>
      <line x1="503.901" y1="1528.930" x2="503.901" y2="1525.229"/>
      <line x1="502.901" y1="1528.930" x2="502.901" y2="1525.229"/>
      <line x1="501.901" y1="1528.930" x2="501.901" y2="1525.229"/>
      <line x1="500.901" y1="1528.930" x2="500.901" y2="1525.229"/>
      <line x1="499.901" y1="1528.930" x2="499.901" y2="1525.229"/>
      <line x1="498.901" y1="1528.930" x2="498.901" y2="1525.229"/>
      <line x1="497.901" y1="1528.930" x2="497.901" y2="1525.229"/>
      <line x1="496.901" y1="1528.930" x2="496.901" y2="1525.229"/>
      <line x1="495.901" y1="1528.930" x2="495.901" y2="1525.229"/>
      <line x1="494.901" y1="1528.930" x2="494.901" y2="1525.229"/>
      <line x1="525.901" y1="1528.930" x2="525.901" y2="1525.229"/>
      <line x1="524.901" y1="1528.930" x2="524.901" y2="1525.229"/>
      <line x1="523.901" y1="1528.930" x2="523.901" y2="1525.229"/>
      <line x1="522.901" y1="1528.930" x2="522.901" y2="1525.229"/>
      <line x1="521.901" y1="1528.930" x2="521.901" y2="1525.229"/>
      <line x1="520.901" y1="1528.930" x2="520.901" y2="1525.229"/>
      <line x1="519.901" y1="1528.930" x2="519.901" y2="1525.229"/>
      <line x1="518.901" y1="1528.930" x2="518.901" y2="1525.229"/>
      <line x1="517.901" y1="1528.930" x2="517.901" y2="1525.229"/>
      <line x1="516.901" y1="1528.930" x2="516.901" y2="1525.229"/>
      <line x1="482.901" y1="1528.930" x2="482.901" y2="1525.229"/>
      <line x1="492.901" y1="1528.930" x2="492.901" y2="1525.229"/>
      <line x1="491.901" y1="1528.930" x2="491.901" y2="1525.229"/>
      <line x1="490.901" y1="1528.930" x2="490.901" y2="1525.229"/>
      <line x1="489.901" y1="1528.930" x2="489.901" y2="1525.229"/>
      <line x1="488.901" y1="1528.930" x2="488.901" y2="1525.229"/>
      <line x1="487.901" y1="1528.930" x2="487.901" y2="1525.229"/>
      <line x1="486.901" y1="1528.930" x2="486.901" y2="1525.229"/>
      <line x1="485.901" y1="1528.930" x2="485.901" y2="1525.229"/>
      <line x1="484.901" y1="1528.930" x2="484.901" y2="1525.229"/>
      <line x1="483.901" y1="1528.930" x2="483.901" y2="1525.229"/>
      <line x1="493.901" y1="1528.930" x2="493.901" y2="1525.229"/>
      <line x1="481.901" y1="1528.930" x2="481.901" y2="1525.229"/>
      <line x1="480.901" y1="1528.930" x2="480.901" y2="1525.229"/>
      <line x1="479.901" y1="1528.930" x2="479.901" y2="1525.229"/>
      <line x1="478.901" y1="1528.930" x2="478.901" y2="1525.229"/>
      <line x1="477.901" y1="1528.930" x2="477.901" y2="1525.229"/>
      <line x1="476.901" y1="1528.930" x2="476.901" y2="1525.229"/>
      <line x1="533.901" y1="1528.930" x2="533.901" y2="1525.229"/>
      <line x1="534.901" y1="1528.930" x2="534.901" y2="1525.229"/>
      <line x1="536.901" y1="1528.930" x2="536.901" y2="1525.229"/>
      <line x1="537.901" y1="1528.930" x2="537.901" y2="1525.229"/>
      <line x1="539.901" y1="1528.930" x2="539.901" y2="1525.229"/>
      <line x1="540.901" y1="1528.930" x2="540.901" y2="1525.229"/>
      <line x1="545.901" y1="1528.930" x2="545.901" y2="1525.229"/>
      <line x1="548.901" y1="1528.930" x2="548.901" y2="1525.229"/>
      <line x1="550.901" y1="1528.930" x2="550.901" y2="1525.229"/>
      <line x1="551.901" y1="1528.930" x2="551.901" y2="1525.229"/>
      <line x1="553.901" y1="1528.930" x2="553.901" y2="1525.229"/>
      <line x1="554.901" y1="1528.930" x2="554.901" y2="1525.229"/>
      <line x1="556.901" y1="1528.930" x2="556.901" y2="1525.229"/>
      <line x1="557.901" y1="1528.930" x2="557.901" y2="1525.229"/>
      <line x1="542.901" y1="1528.930" x2="542.901" y2="1525.229"/>
      <line x1="543.901" y1="1528.930" x2="543.901" y2="1525.229"/>
      <line x1="526.901" y1="1528.930" x2="526.901" y2="1525.229"/>
      <line x1="532.901" y1="1528.930" x2="532.901" y2="1525.229"/>
      <line x1="531.901" y1="1528.930" x2="531.901" y2="1525.229"/>
      <line x1="530.901" y1="1528.930" x2="530.901" y2="1525.229"/>
      <line x1="529.901" y1="1528.930" x2="529.901" y2="1525.229"/>
      <line x1="528.901" y1="1528.930" x2="528.901" y2="1525.229"/>
      <line x1="527.901" y1="1528.930" x2="527.901" y2="1525.229"/>
      <line x1="535.901" y1="1528.930" x2="535.901" y2="1525.229"/>
      <line x1="538.901" y1="1528.930" x2="538.901" y2="1525.229"/>
      <line x1="541.901" y1="1528.930" x2="541.901" y2="1525.229"/>
      <line x1="544.901" y1="1528.930" x2="544.901" y2="1525.229"/>
      <line x1="547.901" y1="1528.930" x2="547.901" y2="1525.229"/>
      <line x1="546.901" y1="1528.930" x2="546.901" y2="1525.229"/>
      <line x1="549.901" y1="1528.930" x2="549.901" y2="1525.229"/>
      <line x1="552.901" y1="1528.930" x2="552.901" y2="1525.229"/>
      <line x1="555.901" y1="1528.930" x2="555.901" y2="1525.229"/>
      <line x1="413.779" y1="1679.230" x2="413.779" y2="1629.230"/>
      <line x1="414.779" y1="1679.230" x2="414.779" y2="1629.230"/>
      <line x1="415.779" y1="1679.230" x2="415.779" y2="1629.230"/>
      <line x1="416.779" y1="1679.230" x2="416.779" y2="1629.230"/>
      <line x1="417.779" y1="1679.230" x2="417.779" y2="1629.230"/>
      <line x1="418.779" y1="1679.230" x2="418.779" y2="1629.230"/>
      <line x1="419.779" y1="1679.230" x2="419.779" y2="1629.230"/>
      <line x1="420.779" y1="1679.230" x2="420.779" y2="1629.230"/>
      <line x1="421.779" y1="1679.230" x2="421.779" y2="1629.230"/>
      <line x1="422.779" y1="1679.230" x2="422.779" y2="1629.230"/>
      <line x1="423.779" y1="1679.230" x2="423.779" y2="1629.230"/>
      <line x1="424.779" y1="1679.230" x2="424.779" y2="1629.230"/>
      <line x1="425.779" y1="1679.230" x2="425.779" y2="1629.230"/>
      <line x1="413.779" y1="1629.130" x2="413.779" y2="1579.130"/>
      <line x1="414.779" y1="1629.130" x2="414.779" y2="1579.130"/>
      <line x1="415.779" y1="1629.130" x2="415.779" y2="1579.130"/>
      <line x1="416.779" y1="1629.130" x2="416.779" y2="1579.130"/>
      <line x1="417.779" y1="1629.130" x2="417.779" y2="1579.130"/>
      <line x1="418.779" y1="1629.130" x2="418.779" y2="1579.130"/>
      <line x1="419.779" y1="1629.130" x2="419.779" y2="1579.130"/>
      <line x1="420.779" y1="1629.130" x2="420.779" y2="1579.130"/>
      <line x1="421.779" y1="1629.130" x2="421.779" y2="1579.130"/>
      <line x1="422.779" y1="1629.130" x2="422.779" y2="1579.130"/>
      <line x1="423.779" y1="1629.130" x2="423.779" y2="1579.130"/>
      <line x1="424.779" y1="1629.130" x2="424.779" y2="1579.130"/>
      <line x1="425.779" y1="1629.130" x2="425.779" y2="1579.130"/>
      <line x1="413.779" y1="1579.030" x2="413.779" y2="1529.030"/>
      <line x1="414.779" y1="1579.030" x2="414.779" y2="1529.030"/>
      <line x1="415.779" y1="1579.030" x2="415.779" y2="1529.030"/>
      <line x1="416.779" y1="1579.030" x2="416.779" y2="1529.030"/>
      <line x1="417.779" y1="1579.030" x2="417.779" y2="1529.030"/>
      <line x1="418.779" y1="1579.030" x2="418.779" y2="1529.030"/>
      <line x1="419.779" y1="1579.030" x2="419.779" y2="1529.030"/>
      <line x1="420.779" y1="1579.030" x2="420.779" y2="1529.030"/>
      <line x1="421.779" y1="1579.030" x2="421.779" y2="1529.030"/>
      <line x1="422.779" y1="1579.030" x2="422.779" y2="1529.030"/>
      <line x1="423.779" y1="1579.030" x2="423.779" y2="1529.030"/>
      <line x1="424.779" y1="1579.030" x2="424.779" y2="1529.030"/>
      <line x1="425.779" y1="1579.030" x2="425.779" y2="1529.030"/>
      <line x1="413.779" y1="1528.930" x2="413.779" y2="1525.229"/>
      <line x1="414.779" y1="1528.930" x2="414.779" y2="1525.229"/>
      <line x1="415.779" y1="1528.930" x2="415.779" y2="1525.229"/>
      <line x1="416.779" y1="1528.930" x2="416.779" y2="1525.229"/>
      <line x1="417.779" y1="1528.930" x2="417.779" y2="1525.229"/>
      <line x1="418.779" y1="1528.930" x2="418.779" y2="1525.229"/>
      <line x1="419.779" y1="1528.930" x2="419.779" y2="1525.229"/>
      <line x1="420.779" y1="1528.930" x2="420.779" y2="1525.229"/>
      <line x1="421.779" y1="1528.930" x2="421.779" y2="1525.229"/>
      <line x1="422.779" y1="1528.930" x2="422.779" y2="1525.229"/>
      <line x1="423.779" y1="1528.930" x2="423.779" y2="1525.229"/>
      <line x1="424.779" y1="1528.930" x2="424.779" y2="1525.229"/>
      <line x1="425.779" y1="1528.930" x2="425.779" y2="1525.229"/>
      <line x1="174.572" y1="1679.230" x2="174.572" y2="1629.230"/>
      <line x1="175.572" y1="1679.230" x2="175.572" y2="1629.230"/>
      <line x1="176.572" y1="1679.230" x2="176.572" y2="1629.230"/>
      <line x1="177.572" y1="1679.230" x2="177.572" y2="1629.230"/>
      <line x1="178.572" y1="1679.230" x2="178.572" y2="1629.230"/>
      <line x1="179.572" y1="1679.230" x2="179.572" y2="1629.230"/>
      <line x1="180.572" y1="1679.230" x2="180.572" y2="1629.230"/>
      <line x1="181.572" y1="1679.230" x2="181.572" y2="1629.230"/>
      <line x1="182.572" y1="1679.230" x2="182.572" y2="1629.230"/>
      <line x1="183.572" y1="1679.230" x2="183.572" y2="1629.230"/>
      <line x1="184.572" y1="1679.230" x2="184.572" y2="1629.230"/>
      <line x1="185.572" y1="1679.230" x2="185.572" y2="1629.230"/>
      <line x1="186.572" y1="1679.230" x2="186.572" y2="1629.230"/>
      <line x1="174.572" y1="1629.130" x2="174.572" y2="1579.130"/>
      <line x1="175.572" y1="1629.130" x2="175.572" y2="1579.130"/>
      <line x1="176.572" y1="1629.130" x2="176.572" y2="1579.130"/>
      <line x1="177.572" y1="1629.130" x2="177.572" y2="1579.130"/>
      <line x1="178.572" y1="1629.130" x2="178.572" y2="1579.130"/>
      <line x1="179.572" y1="1629.130" x2="179.572" y2="1579.130"/>
      <line x1="180.572" y1="1629.130" x2="180.572" y2="1579.130"/>
      <line x1="181.572" y1="1629.130" x2="181.572" y2="1579.130"/>
      <line x1="182.572" y1="1629.130" x2="182.572" y2="1579.130"/>
      <line x1="183.572" y1="1629.130" x2="183.572" y2="1579.130"/>
      <line x1="184.572" y1="1629.130" x2="184.572" y2="1579.130"/>
      <line x1="185.572" y1="1629.130" x2="185.572" y2="1579.130"/>
      <line x1="186.572" y1="1629.130" x2="186.572" y2="1579.130"/>
      <line x1="174.572" y1="1579.030" x2="174.572" y2="1529.030"/>
      <line x1="175.572" y1="1579.030" x2="175.572" y2="1529.030"/>
      <line x1="176.572" y1="1579.030" x2="176.572" y2="1529.030"/>
      <line x1="177.572" y1="1579.030" x2="177.572" y2="1529.030"/>
      <line x1="178.572" y1="1579.030" x2="178.572" y2="1529.030"/>
      <line x1="179.572" y1="1579.030" x2="179.572" y2="1529.030"/>
      <line x1="180.572" y1="1579.030" x2="180.572" y2="1529.030"/>
      <line x1="181.572" y1="1579.030" x2="181.572" y2="1529.030"/>
      <line x1="182.572" y1="1579.030" x2="182.572" y2="1529.030"/>
      <line x1="183.572" y1="1579.030" x2="183.572" y2="1529.030"/>
      <line x1="184.572" y1="1579.030" x2="184.572" y2="1529.030"/>
      <line x1="185.572" y1="1579.030" x2="185.572" y2="1529.030"/>
      <line x1="186.572" y1="1579.030" x2="186.572" y2="1529.030"/>
      <line x1="174.572" y1="1528.930" x2="174.572" y2="1525.229"/>
      <line x1="175.572" y1="1528.930" x2="175.572" y2="1525.229"/>
      <line x1="176.572" y1="1528.930" x2="176.572" y2="1525.229"/>
      <line x1="177.572" y1="1528.930" x2="177.572" y2="1525.229"/>
      <line x1="178.572" y1="1528.930" x2="178.572" y2="1525.229"/>
      <line x1="179.572" y1="1528.930" x2="179.572" y2="1525.229"/>
      <line x1="180.572" y1="1528.930" x2="180.572" y2="1525.229"/>
      <line x1="181.572" y1="1528.930" x2="181.572" y2="1525.229"/>
      <line x1="182.572" y1="1528.930" x2="182.572" y2="1525.229"/>
      <line x1="183.572" y1="1528.930" x2="183.572" y2="1525.229"/>
      <line x1="184.572" y1="1528.930" x2="184.572" y2="1525.229"/>
      <line x1="185.572" y1="1528.930" x2="185.572" y2="1525.229"/>
      <line x1="186.572" y1="1528.930" x2="186.572" y2="1525.229"/>
    </g>
    <g stroke="#1976D2" stroke-width="0.4">
      <polyline points="415.836,1682.729 561.783,1682.729 561.783,1521.729 415.836,1521.729" fill="none"/>
      <polyline points="415.836,1521.729 409.372,1521.729 409.372,1682.729 415.836,1682.729" fill="none"/>
      <polyline points="415.836,1681.730 560.783,1681.730 560.783,1522.729 415.836,1522.729" fill="none"/>
      <polyline points="415.836,1522.729 410.372,1522.729 410.372,1681.730 415.836,1681.730" fill="none"/>
      <polyline points="415.836,1680.730 559.783,1680.730 559.783,1523.729 415.836,1523.729" fill="none"/>
      <polyline points="415.836,1523.729 411.372,1523.729 411.372,1680.730 415.836,1680.730" fill="none"/>
      <polyline points="415.836,1679.729 558.783,1679.729 558.783,1524.729 415.836,1524.729" fill="none"/>
      <polyline points="415.836,1524.729 412.372,1524.729 412.372,1679.729 415.836,1679.729" fill="none"/>
      <polyline points="184.164,1521.729 38.217,1521.729 38.217,1682.729 184.164,1682.729" fill="none"/>
      <polyline points="184.164,1682.729 190.628,1682.729 190.628,1521.729 184.164,1521.729" fill="none"/>
      <polyline points="184.164,1522.729 39.217,1522.729 39.217,1681.730 184.164,1681.730" fill="none"/>
      <polyline points="184.164,1681.730 189.628,1681.730 189.628,1522.729 184.164,1522.729" fill="none"/>
      <polyline points="184.164,1523.729 40.217,1523.729 40.217,1680.730 184.164,1680.730" fill="none"/>
      <polyline points="184.164,1680.730 188.628,1680.730 188.628,1523.729 184.164,1523.729" fill="none"/>
      <polyline points="184.164,1524.729 41.217,1524.729 41.217,1679.729 184.164,1679.729" fill="none"/>
      <polyline points="184.164,1679.729 187.628,1679.729 187.628,1524.729 184.164,1524.729" fill="none"/>
    </g>
    <g stroke="#C62828" stroke-width="0.4" fill="none">
      <polygon points="233.333,1531.628 234.065,1530.896 234.333,1529.896 234.065,1528.896 233.333,1528.164 232.333,1527.896 231.333,1528.164 230.601,1528.896 230.333,1529.896 230.601,1530.896 231.333,1531.628 232.333,1531.896"/>
      <polygon points="253.333,1531.628 254.065,1530.896 254.333,1529.896 254.065,1528.896 253.333,1528.164 252.333,1527.896 251.333,1528.164 250.601,1528.896 250.333,1529.896 250.601,1530.896 251.333,1531.628 252.333,1531.896"/>
      <polygon points="293.333,1531.628 294.065,1530.896 294.333,1529.896 294.065,1528.896 293.333,1528.164 292.333,1527.896 291.333,1528.164 290.601,1528.896 290.333,1529.896 290.601,1530.896 291.333,1531.628 292.333,1531.896"/>
      <polygon points="373.333,1531.628 374.065,1530.896 374.333,1529.896 374.065,1528.896 373.333,1528.164 372.333,1527.896 371.333,1528.164 370.601,1528.896 370.333,1529.896 370.601,1530.896 371.333,1531.628 372.333,1531.896"/>
      <polygon points="353.333,1531.628 354.065,1530.896 354.333,1529.896 354.065,1528.896 353.333,1528.164 352.333,1527.896 351.333,1528.164 350.601,1528.896 350.333,1529.896 350.601,1530.896 351.333,1531.628 352.333,1531.896"/>
      <polygon points="273.333,1531.628 274.065,1530.896 274.333,1529.896 274.065,1528.896 273.333,1528.164 272.333,1527.896 271.333,1528.164 270.601,1528.896 270.333,1529.896 270.601,1530.896 271.333,1531.628 272.333,1531.896"/>
      <polygon points="313.333,1531.628 314.065,1530.896 314.333,1529.896 314.065,1528.896 313.333,1528.164 312.333,1527.896 311.333,1528.164 310.601,1528.896 310.333,1529.896 310.601,1530.896 311.333,1531.628 312.333,1531.896"/>
      <polygon points="333.333,1531.628 334.065,1530.896 334.333,1529.896 334.065,1528.896 333.333,1528.164 332.333,1527.896 331.333,1528.164 330.601,1528.896 330.333,1529.896 330.601,1530.896 331.333,1531.628 332.333,1531.896"/>
      <polygon points="213.333,1531.628 214.065,1530.896 214.333,1529.896 214.065,1528.896 213.333,1528.164 212.333,1527.896 211.333,1528.164 210.601,1528.896 210.333,1529.896 210.601,1530.896 211.333,1531.628 212.333,1531.896"/>
      <polygon points="233.333,1551.628 234.065,1550.896 234.333,1549.896 234.065,1548.896 233.333,1548.164 232.333,1547.896 231.333,1548.164 230.601,1548.896 230.333,1549.896 230.601,1550.896 231.333,1551.628 232.333,1551.896"/>
      <polygon points="333.333,1551.628 334.065,1550.896 334.333,1549.896 334.065,1548.896 333.333,1548.164 332.333,1547.896 331.333,1548.164 330.601,1548.896 330.333,1549.896 330.601,1550.896 331.333,1551.628 332.333,1551.896"/>
      <polygon points="273.333,1551.628 274.065,1550.896 274.333,1549.896 274.065,1548.896 273.333,1548.164 272.333,1547.896 271.333,1548.164 270.601,1548.896 270.333,1549.896 270.601,1550.896 271.333,1551.628 272.333,1551.896"/>
      <polygon points="353.333,1551.628 354.065,1550.896 354.333,1549.896 354.065,1548.896 353.333,1548.164 352.333,1547.896 351.333,1548.164 350.601,1548.896 350.333,1549.896 350.601,1550.896 351.333,1551.628 352.333,1551.896"/>
      <polygon points="373.333,1551.628 374.065,1550.896 374.333,1549.896 374.065,1548.896 373.333,1548.164 372.333,1547.896 371.333,1548.164 370.601,1548.896 370.333,1549.896 370.601,1550.896 371.333,1551.628 372.333,1551.896"/>
      <polygon points="313.333,1551.628 314.065,1550.896 314.333,1549.896 314.065,1548.896 313.333,1548.164 312.333,1547.896 311.333,1548.164 310.601,1548.896 310.333,1549.896 310.601,1550.896 311.333,1551.628 312.333,1551.896"/>
      <polygon points="293.333,1551.628 294.065,1550.896 294.333,1549.896 294.065,1548.896 293.333,1548.164 292.333,1547.896 291.333,1548.164 290.601,1548.896 290.333,1549.896 290.601,1550.896 291.333,1551.628 292.333,1551.896"/>
      <polygon points="213.333,1551.628 214.065,1550.896 214.333,1549.896 214.065,1548.896 213.333,1548.164 212.333,1547.896 211.333,1548.164 210.601,1548.896 210.333,1549.896 210.601,1550.896 211.333,1551.628 212.333,1551.896"/>
      <polygon points="253.333,1551.628 254.065,1550.896 254.333,1549.896 254.065,1548.896 253.333,1548.164 252.333,1547.896 251.333,1548.164 250.601,1548.896 250.333,1549.896 250.601,1550.896 251.333,1551.628 252.333,1551.896"/>
      <polygon points="333.333,1571.628 334.065,1570.896 334.333,1569.896 334.065,1568.896 333.333,1568.164 332.333,1567.896 331.333,1568.164 330.601,1568.896 330.333,1569.896 330.601,1570.896 331.333,1571.628 332.333,1571.896"/>
      <polygon points="273.333,1571.628 274.065,1570.896 274.333,1569.896 274.065,1568.896 273.333,1568.164 272.333,1567.896 271.333,1568.164 270.601,1568.896 270.333,1569.896 270.601,1570.896 271.333,1571.628 272.333,1571.896"/>
      <polygon points="213.333,1571.628 214.065,1570.896 214.333,1569.896 214.065,1568.896 213.333,1568.164 212.333,1567.896 211.333,1568.164 210.601,1568.896 210.333,1569.896 210.601,1570.896 211.333,1571.628 212.333,1571.896"/>
      <polygon points="293.333,1571.628 294.065,1570.896 294.333,1569.896 294.065,1568.896 293.333,1568.164 292.333,1567.896 291.333,1568.164 290.601,1568.896 290.333,1569.896 290.601,1570.896 291.333,1571.628 292.333,1571.896"/>
      <polygon points="353.333,1571.628 354.065,1570.896 354.333,1569.896 354.065,1568.896 353.333,1568.164 352.333,1567.896 351.333,1568.164 350.601,1568.896 350.333,1569.896 350.601,1570.896 351.333,1571.628 352.333,1571.896"/>
      <polygon points="253.333,1571.628 254.065,1570.896 254.333,1569.896 254.065,1568.896 253.333,1568.164 252.333,1567.896 251.333,1568.164 250.601,1568.896 250.333,1569.896 250.601,1570.896 251.333,1571.628 252.333,1571.896"/>
      <polygon points="233.333,1571.628 234.065,1570.896 234.333,1569.896 234.065,1568.896 233.333,1568.164 232.333,1567.896 231.333,1568.164 230.601,1568.896 230.333,1569.896 230.601,1570.896 231.333,1571.628 232.333,1571.896"/>
      <polygon points="313.333,1571.628 314.065,1570.896 314.333,1569.896 314.065,1568.896 313.333,1568.164 312.333,1567.896 311.333,1568.164 310.601,1568.896 310.333,1569.896 310.601,1570.896 311.333,1571.628 312.333,1571.896"/>
      <polygon points="373.333,1571.628 374.065,1570.896 374.333,1569.896 374.065,1568.896 373.333,1568.164 372.333,1567.896 371.333,1568.164 370.601,1568.896 370.333,1569.896 370.601,1570.896 371.333,1571.628 372.333,1571.896"/>
      <polygon points="353.333,1591.628 354.065,1590.896 354.333,1589.896 354.065,1588.896 353.333,1588.164 352.333,1587.896 351.333,1588.164 350.601,1588.896 350.333,1589.896 350.601,1590.896 351.333,1591.628 352.333,1591.896"/>
      <polygon points="293.333,1591.628 294.065,1590.896 294.333,1589.896 294.065,1588.896 293.333,1588.164 292.333,1587.896 291.333,1588.164 290.601,1588.896 290.333,1589.896 290.601,1590.896 291.333,1591.628 292.333,1591.896"/>
      <polygon points="253.333,1591.628 254.065,1590.896 254.333,1589.896 254.065,1588.896 253.333,1588.164 252.333,1587.896 251.333,1588.164 250.601,1588.896 250.333,1589.896 250.601,1590.896 251.333,1591.628 252.333,1591.896"/>
      <polygon points="313.333,1591.628 314.065,1590.896 314.333,1589.896 314.065,1588.896 313.333,1588.164 312.333,1587.896 311.333,1588.164 310.601,1588.896 310.333,1589.896 310.601,1590.896 311.333,1591.628 312.333,1591.896"/>
      <polygon points="373.333,1591.628 374.065,1590.896 374.333,1589.896 374.065,1588.896 373.333,1588.164 372.333,1587.896 371.333,1588.164 370.601,1588.896 370.333,1589.896 370.601,1590.896 371.333,1591.628 372.333,1591.896"/>
      <polygon points="273.333,1591.628 274.065,1590.896 274.333,1589.896 274.065,1588.896 273.333,1588.164 272.333,1587.896 271.333,1588.164 270.601,1588.896 270.333,1589.896 270.601,1590.896 271.333,1591.628 272.333,1591.896"/>
      <polygon points="233.333,1591.628 234.065,1590.896 234.333,1589.896 234.065,1588.896 233.333,1588.164 232.333,1587.896 231.333,1588.164 230.601,1588.896 230.333,1589.896 230.601,1590.896 231.333,1591.628 232.333,1591.896"/>
      <polygon points="213.333,1591.628 214.065,1590.896 214.333,1589.896 214.065,1588.896 213.333,1588.164 212.333,1587.896 211.333,1588.164 210.601,1588.896 210.333,1589.896 210.601,1590.896 211.333,1591.628 212.333,1591.896"/>
      <polygon points="333.333,1591.628 334.065,1590.896 334.333,1589.896 334.065,1588.896 333.333,1588.164 332.333,1587.896 331.333,1588.164 330.601,1588.896 330.333,1589.896 330.601,1590.896 331.333,1591.628 332.333,1591.896"/>
      <polygon points="353.333,1611.628 354.065,1610.896 354.333,1609.896 354.065,1608.896 353.333,1608.164 352.333,1607.896 351.333,1608.164 350.601,1608.896 350.333,1609.896 350.601,1610.896 351.333,1611.628 352.333,1611.896"/>
      <polygon points="253.333,1611.628 254.065,1610.896 254.333,1609.896 254.065,1608.896 253.333,1608.164 252.333,1607.896 251.333,1608.164 250.601,1608.896 250.333,1609.896 250.601,1610.896 251.333,1611.628 252.333,1611.896"/>
      <polygon points="213.333,1611.628 214.065,1610.896 214.333,1609.896 214.065,1608.896 213.333,1608.164 212.333,1607.896 211.333,1608.164 210.601,1608.896 210.333,1609.896 210.601,1610.896 211.333,1611.628 212.333,1611.896"/>
      <polygon points="273.333,1611.628 274.065,1610.896 274.333,1609.896 274.065,1608.896 273.333,1608.164 272.333,1607.896 271.333,1608.164 270.601,1608.896 270.333,1609.896 270.601,1610.896 271.333,1611.628 272.333,1611.896"/>
      <polygon points="313.333,1611.628 314.065,1610.896 314.333,1609.896 314.065,1608.896 313.333,1608.164 312.333,1607.896 311.333,1608.164 310.601,1608.896 310.333,1609.896 310.601,1610.896 311.333,1611.628 312.333,1611.896"/>
      <polygon points="373.333,1611.628 374.065,1610.896 374.333,1609.896 374.065,1608.896 373.333,1608.164 372.333,1607.896 371.333,1608.164 370.601,1608.896 370.333,1609.896 370.601,1610.896 371.333,1611.628 372.333,1611.896"/>
      <polygon points="233.333,1611.628 234.065,1610.896 234.333,1609.896 234.065,1608.896 233.333,1608.164 232.333,1607.896 231.333,1608.164 230.601,1608.896 230.333,1609.896 230.601,1610.896 231.333,1611.628 232.333,1611.896"/>
      <polygon points="293.333,1611.628 294.065,1610.896 294.333,1609.896 294.065,1608.896 293.333,1608.164 292.333,1607.896 291.333,1608.164 290.601,1608.896 290.333,1609.896 290.601,1610.896 291.333,1611.628 292.333,1611.896"/>
      <polygon points="333.333,1611.628 334.065,1610.896 334.333,1609.896 334.065,1608.896 333.333,1608.164 332.333,1607.896 331.333,1608.164 330.601,1608.896 330.333,1609.896 330.601,1610.896 331.333,1611.628 332.333,1611.896"/>
      <polygon points="353.333,1631.628 354.065,1630.896 354.333,1629.896 354.065,1628.896 353.333,1628.164 352.333,1627.896 351.333,1628.164 350.601,1628.896 350.333,1629.896 350.601,1630.896 351.333,1631.628 352.333,1631.896"/>
      <polygon points="273.333,1631.628 274.065,1630.896 274.333,1629.896 274.065,1628.896 273.333,1628.164 272.333,1627.896 271.333,1628.164 270.601,1628.896 270.333,1629.896 270.601,1630.896 271.333,1631.628 272.333,1631.896"/>
      <polygon points="233.333,1631.628 234.065,1630.896 234.333,1629.896 234.065,1628.896 233.333,1628.164 232.333,1627.896 231.333,1628.164 230.601,1628.896 230.333,1629.896 230.601,1630.896 231.333,1631.628 232.333,1631.896"/>
      <polygon points="293.333,1631.628 294.065,1630.896 294.333,1629.896 294.065,1628.896 293.333,1628.164 292.333,1627.896 291.333,1628.164 290.601,1628.896 290.333,1629.896 290.601,1630.896 291.333,1631.628 292.333,1631.896"/>
      <polygon points="373.333,1631.628 374.065,1630.896 374.333,1629.896 374.065,1628.896 373.333,1628.164 372.333,1627.896 371.333,1628.164 370.601,1628.896 370.333,1629.896 370.601,1630.896 371.333,1631.628 372.333,1631.896"/>
      <polygon points="253.333,1631.628 254.065,1630.896 254.333,1629.896 254.065,1628.896 253.333,1628.164 252.333,1627.896 251.333,1628.164 250.601,1628.896 250.333,1629.896 250.601,1630.896 251.333,1631.628 252.333,1631.896"/>
      <polygon points="213.333,1631.628 214.065,1630.896 214.333,1629.896 214.065,1628.896 213.333,1628.164 212.333,1627.896 211.333,1628.164 210.601,1628.896 210.333,1629.896 210.601,1630.896 211.333,1631.628 212.333,1631.896"/>
      <polygon points="313.333,1631.628 314.065,1630.896 314.333,1629.896 314.065,1628.896 313.333,1628.164 312.333,1627.896 311.333,1628.164 310.601,1628.896 310.333,1629.896 310.601,1630.896 311.333,1631.628 312.333,1631.896"/>
      <polygon points="333.333,1631.628 334.065,1630.896 334.333,1629.896 334.065,1628.896 333.333,1628.164 332.333,1627.896 331.333,1628.164 330.601,1628.896 330.333,1629.896 330.601,1630.896 331.333,1631.628 332.333,1631.896"/>
      <polygon points="353.333,1651.628 354.065,1650.896 354.333,1649.896 354.065,1648.896 353.333,1648.164 352.333,1647.896 351.333,1648.164 350.601,1648.896 350.333,1649.896 350.601,1650.896 351.333,1651.628 352.333,1651.896"/>
      <polygon points="213.333,1651.628 214.065,1650.896 214.333,1649.896 214.065,1648.896 213.333,1648.164 212.333,1647.896 211.333,1648.164 210.601,1648.896 210.333,1649.896 210.601,1650.896 211.333,1651.628 212.333,1651.896"/>
      <polygon points="313.333,1651.628 314.065,1650.896 314.333,1649.896 314.065,1648.896 313.333,1648.164 312.333,1647.896 311.333,1648.164 310.601,1648.896 310.333,1649.896 310.601,1650.896 311.333,1651.628 312.333,1651.896"/>
      <polygon points="273.333,1651.628 274.065,1650.896 274.333,1649.896 274.065,1648.896 273.333,1648.164 272.333,1647.896 271.333,1648.164 270.601,1648.896 270.333,1649.896 270.601,1650.896 271.333,1651.628 272.333,1651.896"/>
      <polygon points="233.333,1651.628 234.065,1650.896 234.333,1649.896 234.065,1648.896 233.333,1648.164 232.333,1647.896 231.333,1648.164 230.601,1648.896 230.333,1649.896 230.601,1650.896 231.333,1651.628 232.333,1651.896"/>
      <polygon points="373.333,1651.628 374.065,1650.896 374.333,1649.896 374.065,1648.896 373.333,1648.164 372.333,1647.896 371.333,1648.164 370.601,1648.896 370.333,1649.896 370.601,1650.896 371.333,1651.628 372.333,1651.896"/>
      <polygon points="333.333,1651.628 334.065,1650.896 334.333,1649.896 334.065,1648.896 333.333,1648.164 332.333,1647.896 331.333,1648.164 330.601,1648.896 330.333,1649.896 330.601,1650.896 331.333,1651.628 332.333,1651.896"/>
      <polygon points="293.333,1651.628 294.065,1650.896 294.333,1649.896 294.065,1648.896 293.333,1648.164 292.333,1647.896 291.333,1648.164 290.601,1648.896 290.333,1649.896 290.601,1650.896 291.333,1651.628 292.333,1651.896"/>
      <polygon points="253.333,1651.628 254.065,1650.896 254.333,1649.896 254.065,1648.896 253.333,1648.164 252.333,1647.896 251.333,1648.164 250.601,1648.896 250.333,1649.896 250.601,1650.896 251.333,1651.628 252.333,1651.896"/>
      <polygon points="333.333,1671.628 334.065,1670.896 334.333,1669.896 334.065,1668.896 333.333,1668.164 332.333,1667.896 331.333,1668.164 330.601,1668.896 330.333,1669.896 330.601,1670.896 331.333,1671.628 332.333,1671.896"/>
      <polygon points="313.333,1671.628 314.065,1670.896 314.333,1669.896 314.065,1668.896 313.333,1668.164 312.333,1667.896 311.333,1668.164 310.601,1668.896 310.333,1669.896 310.601,1670.896 311.333,1671.628 312.333,1671.896"/>
      <polygon points="293.333,1671.628 294.065,1670.896 294.333,1669.896 294.065,1668.896 293.333,1668.164 292.333,1667.896 291.333,1668.164 290.601,1668.896 290.333,1669.896 290.601,1670.896 291.333,1671.628 292.333,1671.896"/>
      <polygon points="273.333,1671.628 274.065,1670.896 274.333,1669.896 274.065,1668.896 273.333,1668.164 272.333,1667.896 271.333,1668.164 270.601,1668.896 270.333,1669.896 270.601,1670.896 271.333,1671.628 272.333,1671.896"/>
      <polygon points="253.333,1671.628 254.065,1670.896 254.333,1669.896 254.065,1668.896 253.333,1668.164 252.333,1667.896 251.333,1668.164 250.601,1668.896 250.333,1669.896 250.601,1670.896 251.333,1671.628 252.333,1671.896"/>
      <polygon points="233.333,1671.628 234.065,1670.896 234.333,1669.896 234.065,1668.896 233.333,1668.164 232.333,1667.896 231.333,1668.164 230.601,1668.896 230.333,1669.896 230.601,1670.896 231.333,1671.628 232.333,1671.896"/>
      <polygon points="213.333,1671.628 214.065,1670.896 214.333,1669.896 214.065,1668.896 213.333,1668.164 212.333,1667.896 211.333,1668.164 210.601,1668.896 210.333,1669.896 210.601,1670.896 211.333,1671.628 212.333,1671.896"/>
      <polygon points="373.333,1671.628 374.065,1670.896 374.333,1669.896 374.065,1668.896 373.333,1668.164 372.333,1667.896 371.333,1668.164 370.601,1668.896 370.333,1669.896 370.601,1670.896 371.333,1671.628 372.333,1671.896"/>
      <polygon points="353.333,1671.628 354.065,1670.896 354.333,1669.896 354.065,1668.896 353.333,1668.164 352.333,1667.896 351.333,1668.164 350.601,1668.896 350.333,1669.896 350.601,1670.896 351.333,1671.628 352.333,1671.896"/>
    </g>
    <g stroke="#EF6C00" stroke-width="0.4" fill="none">
    </g>
  </g>
  <g stroke="#000000" stroke-width="0.4">
    <line x1="500.000" y1="1000.000" x2="1500.000" y2="1000.000"/>
  </g>
  <g stroke="#000000" stroke-width="0.4">
    <line x1="1000.000" y1="500.000" x2="1000.000" y2="1500.000"/>
  </g>
  <circle cx="1000.000" cy="1000.000" r="1000.000" stroke="red" stroke-width="1" fill="none"/>
  </g>
</svg>
