<?xml version="1.0" encoding="UTF-8"?>
<svg xmlns="http://www.w3.org/2000/svg" version="1.1" width="2000" height="2000">
  <g fill="none" stroke-linecap="round" stroke-linejoin="round">
  <text x="10" y="20" font-size="24" fill="#555">Layer 184 Z=48.800 mm</text>
  <g transform="translate(700.000,-602.062)">
    <g stroke="#2E7D32" stroke-width="0.4">
      <line x1="553.325" y1="1679.230" x2="553.325" y2="1629.230"/>
      <line x1="554.325" y1="1679.230" x2="554.325" y2="1629.230"/>
      <line x1="555.325" y1="1679.230" x2="555.325" y2="1629.230"/>
      <line x1="556.325" y1="1679.230" x2="556.325" y2="1629.230"/>
      <line x1="557.325" y1="1679.230" x2="557.325" y2="1629.230"/>
      <line x1="558.325" y1="1679.230" x2="558.325" y2="1629.230"/>
      <line x1="559.325" y1="1679.230" x2="559.325" y2="1629.230"/>
      <line x1="560.325" y1="1679.230" x2="560.325" y2="1629.230"/>
      <line x1="561.325" y1="1679.230" x2="561.325" y2="1629.230"/>
      <line x1="562.325" y1="1679.230" x2="562.325" y2="1629.230"/>
      <line x1="563.325" y1="1679.230" x2="563.325" y2="1629.230"/>
      <line x1="564.325" y1="1679.230" x2="564.325" y2="1629.230"/>
      <line x1="565.325" y1="1679.230" x2="565.325" y2="1629.230"/>
      <line x1="566.325" y1="1679.230" x2="566.325" y2="1629.230"/>
      <line x1="567.325" y1="1679.230" x2="567.325" y2="1629.230"/>
      <line x1="568.325" y1="1679.230" x2="568.325" y2="1629.230"/>
      <line x1="569.325" y1="1679.230" x2="569.325" y2="1629.230"/>
      <line x1="570.325" y1="1679.230" x2="570.325" y2="1629.230"/>
      <line x1="571.325" y1="1679.230" x2="571.325" y2="1629.230"/>
      <line x1="572.325" y1="1679.230" x2="572.325" y2="1629.230"/>
      <line x1="573.325" y1="1679.230" x2="573.325" y2="1629.230"/>
      <line x1="574.325" y1="1679.230" x2="574.325" y2="1629.230"/>
      <line x1="575.325" y1="1679.230" x2="575.325" y2="1629.230"/>
      <line x1="576.325" y1="1679.230" x2="576.325" y2="1629.230"/>
      <line x1="577.325" y1="1679.230" x2="577.325" y2="1629.230"/>
      <line x1="578.325" y1="1679.230" x2="578.325" y2="1629.230"/>
      <line x1="579.325" y1="1679.230" x2="579.325" y2="1629.230"/>
      <line x1="580.325" y1="1679.230" x2="580.325" y2="1629.230"/>
      <line x1="581.325" y1="1679.230" x2="581.325" y2="1629.230"/>
      <line x1="582.325" y1="1679.230" x2="582.325" y2="1629.230"/>
      <line x1="583.325" y1="1679.230" x2="583.325" y2="1629.230"/>
      <line x1="584.325" y1="1679.230" x2="584.325" y2="1629.230"/>
      <line x1="585.325" y1="1679.230" x2="585.325" y2="1629.230"/>
      <line x1="586.325" y1="1679.230" x2="586.325" y2="1629.230"/>
      <line x1="587.325" y1="1679.230" x2="587.325" y2="1629.230"/>
      <line x1="588.325" y1="1679.230" x2="588.325" y2="1629.230"/>
      <line x1="589.325" y1="1679.230" x2="589.325" y2="1629.230"/>
      <line x1="590.325" y1="1679.230" x2="590.325" y2="1629.230"/>
      <line x1="591.325" y1="1679.230" x2="591.325" y2="1629.230"/>
      <line x1="592.325" y1="1679.230" x2="592.325" y2="1629.230"/>
      <line x1="593.325" y1="1679.230" x2="593.325" y2="1629.230"/>
      <line x1="594.325" y1="1679.230" x2="594.325" y2="1629.230"/>
      <line x1="595.325" y1="1679.230" x2="595.325" y2="1629.230"/>
      <line x1="596.325" y1="1679.230" x2="596.325" y2="1629.230"/>
      <line x1="553.325" y1="1629.130" x2="553.325" y2="1579.130"/>
      <line x1="554.325" y1="1629.130" x2="554.325" y2="1579.130"/>
      <line x1="555.325" y1="1629.130" x2="555.325" y2="1579.130"/>
      <line x1="556.325" y1="1629.130" x2="556.325" y2="1579.130"/>
      <line x1="557.325" y1="1629.130" x2="557.325" y2="1579.130"/>
      <line x1="558.325" y1="1629.130" x2="558.325" y2="1579.130"/>
      <line x1="559.325" y1="1629.130" x2="559.325" y2="1579.130"/>
      <line x1="560.325" y1="1629.130" x2="560.325" y2="1579.130"/>
      <line x1="561.325" y1="1629.130" x2="561.325" y2="1579.130"/>
      <line x1="562.325" y1="1629.130" x2="562.325" y2="1579.130"/>
      <line x1="563.325" y1="1629.130" x2="563.325" y2="1579.130"/>
      <line x1="564.325" y1="1629.130" x2="564.325" y2="1579.130"/>
      <line x1="565.325" y1="1629.130" x2="565.325" y2="1579.130"/>
      <line x1="566.325" y1="1629.130" x2="566.325" y2="1579.130"/>
      <line x1="567.325" y1="1629.130" x2="567.325" y2="1579.130"/>
      <line x1="568.325" y1="1629.130" x2="568.325" y2="1579.130"/>
      <line x1="569.325" y1="1629.130" x2="569.325" y2="1579.130"/>
      <line x1="570.325" y1="1629.130" x2="570.325" y2="1579.130"/>
      <line x1="571.325" y1="1629.130" x2="571.325" y2="1579.130"/>
      <line x1="572.325" y1="1629.130" x2="572.325" y2="1579.130"/>
      <line x1="573.325" y1="1629.130" x2="573.325" y2="1579.130"/>
      <line x1="574.325" y1="1629.130" x2="574.325" y2="1579.130"/>
      <line x1="575.325" y1="1629.130" x2="575.325" y2="1579.130"/>
      <line x1="576.325" y1="1629.130" x2="576.325" y2="1579.130"/>
      <line x1="577.325" y1="1629.130" x2="577.325" y2="1579.130"/>
      <line x1="578.325" y1="1629.130" x2="578.325" y2="1579.130"/>
      <line x1="579.325" y1="1629.130" x2="579.325" y2="1579.130"/>
      <line x1="580.325" y1="1629.130" x2="580.325" y2="1579.130"/>
      <line x1="581.325" y1="1629.130" x2="581.325" y2="1579.130"/>
      <line x1="582.325" y1="1629.130" x2="582.325" y2="1579.130"/>
      <line x1="583.325" y1="1629.130" x2="583.325" y2="1579.130"/>
      <line x1="584.325" y1="1629.130" x2="584.325" y2="1579.130"/>
      <line x1="585.325" y1="1629.130" x2="585.325" y2="1579.130"/>
      <line x1="586.325" y1="1629.130" x2="586.325" y2="1579.130"/>
      <line x1="587.325" y1="1629.130" x2="587.325" y2="1579.130"/>
      <line x1="588.325" y1="1629.130" x2="588.325" y2="1579.130"/>
      <line x1="589.325" y1="1629.130" x2="589.325" y2="1579.130"/>
      <line x1="590.325" y1="1629.130" x2="590.325" y2="1579.130"/>
      <line x1="591.325" y1="1629.130" x2="591.325" y2="1579.130"/>
      <line x1="592.325" y1="1629.130" x2="592.325" y2="1579.130"/>
      <line x1="593.325" y1="1629.130" x2="593.325" y2="1579.130"/>
      <line x1="594.325" y1="1629.130" x2="594.325" y2="1579.130"/>
      <line x1="595.325" y1="1629.130" x2="595.325" y2="1579.130"/>
      <line x1="596.325" y1="1629.130" x2="596.325" y2="1579.130"/>
      <line x1="553.325" y1="1579.030" x2="553.325" y2="1529.030"/>
      <line x1="554.325" y1="1579.030" x2="554.325" y2="1529.030"/>
      <line x1="555.325" y1="1579.030" x2="555.325" y2="1529.030"/>
      <line x1="556.325" y1="1579.030" x2="556.325" y2="1529.030"/>
      <line x1="557.325" y1="1579.030" x2="557.325" y2="1529.030"/>
      <line x1="558.325" y1="1579.030" x2="558.325" y2="1529.030"/>
      <line x1="559.325" y1="1579.030" x2="559.325" y2="1529.030"/>
      <line x1="560.325" y1="1579.030" x2="560.325" y2="1529.030"/>
      <line x1="561.325" y1="1579.030" x2="561.325" y2="1529.030"/>
      <line x1="562.325" y1="1579.030" x2="562.325" y2="1529.030"/>
      <line x1="563.325" y1="1579.030" x2="563.325" y2="1529.030"/>
      <line x1="564.325" y1="1579.030" x2="564.325" y2="1529.030"/>
      <line x1="565.325" y1="1579.030" x2="565.325" y2="1529.030"/>
      <line x1="566.325" y1="1579.030" x2="566.325" y2="1529.030"/>
      <line x1="567.325" y1="1579.030" x2="567.325" y2="1529.030"/>
      <line x1="568.325" y1="1579.030" x2="568.325" y2="1529.030"/>
      <line x1="569.325" y1="1579.030" x2="569.325" y2="1529.030"/>
      <line x1="570.325" y1="1579.030" x2="570.325" y2="1529.030"/>
      <line x1="571.325" y1="1579.030" x2="571.325" y2="1529.030"/>
      <line x1="572.325" y1="1579.030" x2="572.325" y2="1529.030"/>
      <line x1="573.325" y1="1579.030" x2="573.325" y2="1529.030"/>
      <line x1="574.325" y1="1579.030" x2="574.325" y2="1529.030"/>
      <line x1="575.325" y1="1579.030" x2="575.325" y2="1529.030"/>
      <line x1="576.325" y1="1579.030" x2="576.325" y2="1529.030"/>
      <line x1="577.325" y1="1579.030" x2="577.325" y2="1529.030"/>
      <line x1="578.325" y1="1579.030" x2="578.325" y2="1529.030"/>
      <line x1="579.325" y1="1579.030" x2="579.325" y2="1529.030"/>
      <line x1="580.325" y1="1579.030" x2="580.325" y2="1529.030"/>
      <line x1="581.325" y1="1579.030" x2="581.325" y2="1529.030"/>
      <line x1="582.325" y1="1579.030" x2="582.325" y2="1529.030"/>
      <line x1="583.325" y1="1579.030" x2="583.325" y2="1529.030"/>
      <line x1="584.325" y1="1579.030" x2="584.325" y2="1529.030"/>
      <line x1="585.325" y1="1579.030" x2="585.325" y2="1529.030"/>
      <line x1="586.325" y1="1579.030" x2="586.325" y2="1529.030"/>
      <line x1="587.325" y1="1579.030" x2="587.325" y2="1529.030"/>
      <line x1="588.325" y1="1579.030" x2="588.325" y2="1529.030"/>
      <line x1="589.325" y1="1579.030" x2="589.325" y2="1529.030"/>
      <line x1="590.325" y1="1579.030" x2="590.325" y2="1529.030"/>
      <line x1="591.325" y1="1579.030" x2="591.325" y2="1529.030"/>
      <line x1="592.325" y1="1579.030" x2="592.325" y2="1529.030"/>
      <line x1="593.325" y1="1579.030" x2="593.325" y2="1529.030"/>
      <line x1="594.325" y1="1579.030" x2="594.325" y2="1529.030"/>
      <line x1="595.325" y1="1579.030" x2="595.325" y2="1529.030"/>
      <line x1="596.325" y1="1579.030" x2="596.325" y2="1529.030"/>
      <line x1="576.325" y1="1528.930" x2="576.325" y2="1525.229"/>
      <line x1="575.325" y1="1528.930" x2="575.325" y2="1525.229"/>
      <line x1="577.325" y1="1528.930" x2="577.325" y2="1525.229"/>
      <line x1="578.325" y1="1528.930" x2="578.325" y2="1525.229"/>
      <line x1="579.325" y1="1528.930" x2="579.325" y2="1525.229"/>
      <line x1="580.325" y1="1528.930" x2="580.325" y2="1525.229"/>
      <line x1="581.325" y1="1528.930" x2="581.325" y2="1525.229"/>
      <line x1="582.325" y1="1528.930" x2="582.325" y2="1525.229"/>
      <line x1="583.325" y1="1528.930" x2="583.325" y2="1525.229"/>
      <line x1="584.325" y1="1528.930" x2="584.325" y2="1525.229"/>
      <line x1="585.325" y1="1528.930" x2="585.325" y2="1525.229"/>
      <line x1="586.325" y1="1528.930" x2="586.325" y2="1525.229"/>
      <line x1="587.325" y1="1528.930" x2="587.325" y2="1525.229"/>
      <line x1="588.325" y1="1528.930" x2="588.325" y2="1525.229"/>
      <line x1="589.325" y1="1528.930" x2="589.325" y2="1525.229"/>
      <line x1="590.325" y1="1528.930" x2="590.325" y2="1525.229"/>
      <line x1="591.325" y1="1528.930" x2="591.325" y2="1525.229"/>
      <line x1="592.325" y1="1528.930" x2="592.325" y2="1525.229"/>
      <line x1="593.325" y1="1528.930" x2="593.325" y2="1525.229"/>
      <line x1="594.325" y1="1528.930" x2="594.325" y2="1525.229"/>
      <line x1="595.325" y1="1528.930" x2="595.325" y2="1525.229"/>
      <line x1="596.325" y1="1528.930" x2="596.325" y2="1525.229"/>
      <line x1="564.325" y1="1528.930" x2="564.325" y2="1525.229"/>
      <line x1="554.325" y1="1528.930" x2="554.325" y2="1525.229"/>
      <line x1="555.325" y1="1528.930" x2="555.325" y2="1525.229"/>
      <line x1="556.325" y1="1528.930" x2="556.325" y2="1525.229"/>
      <line x1="557.325" y1="1528.930" x2="557.325" y2="1525.229"/>
      <line x1="558.325" y1="1528.930" x2="558.325" y2="1525.229"/>
      <line x1="559.325" y1="1528.930" x2="559.325" y2="1525.229"/>
      <line x1="560.325" y1="1528.930" x2="560.325" y2="1525.229"/>
      <line x1="561.325" y1="1528.930" x2="561.325" y2="1525.229"/>
      <line x1="562.325" y1="1528.930" x2="562.325" y2="1525.229"/>
      <line x1="563.325" y1="1528.930" x2="563.325" y2="1525.229"/>
      <line x1="553.325" y1="1528.930" x2="553.325" y2="1525.229"/>
      <line x1="565.325" y1="1528.930" x2="565.325" y2="1525.229"/>
      <line x1="566.325" y1="1528.930" x2="566.325" y2="1525.229"/>
      <line x1="567.325" y1="1528.930" x2="567.325" y2="1525.229"/>
      <line x1="568.325" y1="1528.930" x2="568.325" y2="1525.229"/>
      <line x1="569.325" y1="1528.930" x2="569.325" y2="1525.229"/>
      <line x1="570.325" y1="1528.930" x2="570.325" y2="1525.229"/>
      <line x1="571.325" y1="1528.930" x2="571.325" y2="1525.229"/>
      <line x1="572.325" y1="1528.930" x2="572.325" y2="1525.229"/>
      <line x1="573.325" y1="1528.930" x2="573.325" y2="1525.229"/>
      <line x1="574.325" y1="1528.930" x2="574.325" y2="1525.229"/>
      <line x1="3.325" y1="1679.230" x2="3.325" y2="1629.230"/>
      <line x1="4.325" y1="1679.230" x2="4.325" y2="1629.230"/>
      <line x1="5.325" y1="1679.230" x2="5.325" y2="1629.230"/>
      <line x1="6.325" y1="1679.230" x2="6.325" y2="1629.230"/>
      <line x1="7.325" y1="1679.230" x2="7.325" y2="1629.230"/>
      <line x1="8.325" y1="1679.230" x2="8.325" y2="1629.230"/>
      <line x1="9.325" y1="1679.230" x2="9.325" y2="1629.230"/>
      <line x1="10.325" y1="1679.230" x2="10.325" y2="1629.230"/>
      <line x1="11.325" y1="1679.230" x2="11.325" y2="1629.230"/>
      <line x1="12.325" y1="1679.230" x2="12.325" y2="1629.230"/>
      <line x1="13.325" y1="1679.230" x2="13.325" y2="1629.230"/>
      <line x1="14.325" y1="1679.230" x2="14.325" y2="1629.230"/>
      <line x1="15.325" y1="1679.230" x2="15.325" y2="1629.230"/>
      <line x1="16.325" y1="1679.230" x2="16.325" y2="1629.230"/>
      <line x1="17.325" y1="1679.230" x2="17.325" y2="1629.230"/>
      <line x1="18.325" y1="1679.230" x2="18.325" y2="1629.230"/>
      <line x1="19.325" y1="1679.230" x2="19.325" y2="1629.230"/>
      <line x1="20.325" y1="1679.230" x2="20.325" y2="1629.230"/>
      <line x1="21.325" y1="1679.230" x2="21.325" y2="1629.230"/>
      <line x1="22.325" y1="1679.230" x2="22.325" y2="1629.230"/>
      <line x1="23.325" y1="1679.230" x2="23.325" y2="1629.230"/>
      <line x1="24.325" y1="1679.230" x2="24.325" y2="1629.230"/>
      <line x1="25.325" y1="1679.230" x2="25.325" y2="1629.230"/>
      <line x1="26.325" y1="1679.230" x2="26.325" y2="1629.230"/>
      <line x1="27.325" y1="1679.230" x2="27.325" y2="1629.230"/>
      <line x1="28.325" y1="1679.230" x2="28.325" y2="1629.230"/>
      <line x1="29.325" y1="1679.230" x2="29.325" y2="1629.230"/>
      <line x1="30.325" y1="1679.230" x2="30.325" y2="1629.230"/>
      <line x1="31.325" y1="1679.230" x2="31.325" y2="1629.230"/>
      <line x1="32.325" y1="1679.230" x2="32.325" y2="1629.230"/>
      <line x1="33.325" y1="1679.230" x2="33.325" y2="1629.230"/>
      <line x1="34.325" y1="1679.230" x2="34.325" y2="1629.230"/>
      <line x1="35.325" y1="1679.230" x2="35.325" y2="1629.230"/>
      <line x1="36.325" y1="1679.230" x2="36.325" y2="1629.230"/>
      <line x1="37.325" y1="1679.230" x2="37.325" y2="1629.230"/>
      <line x1="38.325" y1="1679.230" x2="38.325" y2="1629.230"/>
      <line x1="39.325" y1="1679.230" x2="39.325" y2="1629.230"/>
      <line x1="40.325" y1="1679.230" x2="40.325" y2="1629.230"/>
      <line x1="41.325" y1="1679.230" x2="41.325" y2="1629.230"/>
      <line x1="42.325" y1="1679.230" x2="42.325" y2="1629.230"/>
      <line x1="43.325" y1="1679.230" x2="43.325" y2="1629.230"/>
      <line x1="44.325" y1="1679.230" x2="44.325" y2="1629.230"/>
      <line x1="45.325" y1="1679.230" x2="45.325" y2="1629.230"/>
      <line x1="46.325" y1="1679.230" x2="46.325" y2="1629.230"/>
      <line x1="3.325" y1="1629.130" x2="3.325" y2="1579.130"/>
      <line x1="4.325" y1="1629.130" x2="4.325" y2="1579.130"/>
      <line x1="5.325" y1="1629.130" x2="5.325" y2="1579.130"/>
      <line x1="6.325" y1="1629.130" x2="6.325" y2="1579.130"/>
      <line x1="7.325" y1="1629.130" x2="7.325" y2="1579.130"/>
      <line x1="8.325" y1="1629.130" x2="8.325" y2="1579.130"/>
      <line x1="9.325" y1="1629.130" x2="9.325" y2="1579.130"/>
      <line x1="10.325" y1="1629.130" x2="10.325" y2="1579.130"/>
      <line x1="11.325" y1="1629.130" x2="11.325" y2="1579.130"/>
      <line x1="12.325" y1="1629.130" x2="12.325" y2="1579.130"/>
      <line x1="13.325" y1="1629.130" x2="13.325" y2="1579.130"/>
      <line x1="14.325" y1="1629.130" x2="14.325" y2="1579.130"/>
      <line x1="15.325" y1="1629.130" x2="15.325" y2="1579.130"/>
      <line x1="16.325" y1="1629.130" x2="16.325" y2="1579.130"/>
      <line x1="17.325" y1="1629.130" x2="17.325" y2="1579.130"/>
      <line x1="18.325" y1="1629.130" x2="18.325" y2="1579.130"/>
      <line x1="19.325" y1="1629.130" x2="19.325" y2="1579.130"/>
      <line x1="20.325" y1="1629.130" x2="20.325" y2="1579.130"/>
      <line x1="21.325" y1="1629.130" x2="21.325" y2="1579.130"/>
      <line x1="22.325" y1="1629.130" x2="22.325" y2="1579.130"/>
      <line x1="23.325" y1="1629.130" x2="23.325" y2="1579.130"/>
      <line x1="24.325" y1="1629.130" x2="24.325" y2="1579.130"/>
      <line x1="25.325" y1="1629.130" x2="25.325" y2="1579.130"/>
      <line x1="26.325" y1="1629.130" x2="26.325" y2="1579.130"/>
      <line x1="27.325" y1="1629.130" x2="27.325" y2="1579.130"/>
      <line x1="28.325" y1="1629.130" x2="28.325" y2="1579.130"/>
      <line x1="29.325" y1="1629.130" x2="29.325" y2="1579.130"/>
      <line x1="30.325" y1="1629.130" x2="30.325" y2="1579.130"/>
      <line x1="31.325" y1="1629.130" x2="31.325" y2="1579.130"/>
      <line x1="32.325" y1="1629.130" x2="32.325" y2="1579.130"/>
      <line x1="33.325" y1="1629.130" x2="33.325" y2="1579.130"/>
      <line x1="34.325" y1="1629.130" x2="34.325" y2="1579.130"/>
      <line x1="35.325" y1="1629.130" x2="35.325" y2="1579.130"/>
      <line x1="36.325" y1="1629.130" x2="36.325" y2="1579.130"/>
      <line x1="37.325" y1="1629.130" x2="37.325" y2="1579.130"/>
      <line x1="38.325" y1="1629.130" x2="38.325" y2="1579.130"/>
      <line x1="39.325" y1="1629.130" x2="39.325" y2="1579.130"/>
      <line x1="40.325" y1="1629.130" x2="40.325" y2="1579.130"/>
      <line x1="41.325" y1="1629.130" x2="41.325" y2="1579.130"/>
      <line x1="42.325" y1="1629.130" x2="42.325" y2="1579.130"/>
      <line x1="43.325" y1="1629.130" x2="43.325" y2="1579.130"/>
      <line x1="44.325" y1="1629.130" x2="44.325" y2="1579.130"/>
      <line x1="45.325" y1="1629.130" x2="45.325" y2="1579.130"/>
      <line x1="46.325" y1="1629.130" x2="46.325" y2="1579.130"/>
      <line x1="3.325" y1="1579.030" x2="3.325" y2="1529.030"/>
      <line x1="4.325" y1="1579.030" x2="4.325" y2="1529.030"/>
      <line x1="5.325" y1="1579.030" x2="5.325" y2="1529.030"/>
      <line x1="6.325" y1="1579.030" x2="6.325" y2="1529.030"/>
      <line x1="7.325" y1="1579.030" x2="7.325" y2="1529.030"/>
      <line x1="8.325" y1="1579.030" x2="8.325" y2="1529.030"/>
      <line x1="9.325" y1="1579.030" x2="9.325" y2="1529.030"/>
      <line x1="10.325" y1="1579.030" x2="10.325" y2="1529.030"/>
      <line x1="11.325" y1="1579.030" x2="11.325" y2="1529.030"/>
      <line x1="12.325" y1="1579.030" x2="12.325" y2="1529.030"/>
      <line x1="13.325" y1="1579.030" x2="13.325" y2="1529.030"/>
      <line x1="14.325" y1="1579.030" x2="14.325" y2="1529.030"/>
      <line x1="15.325" y1="1579.030" x2="15.325" y2="1529.030"/>
      <line x1="16.325" y1="1579.030" x2="16.325" y2="1529.030"/>
      <line x1="17.325" y1="1579.030" x2="17.325" y2="1529.030"/>
      <line x1="18.325" y1="1579.030" x2="18.325" y2="1529.030"/>
      <line x1="19.325" y1="1579.030" x2="19.325" y2="1529.030"/>
      <line x1="20.325" y1="1579.030" x2="20.325" y2="1529.030"/>
      <line x1="21.325" y1="1579.030" x2="21.325" y2="1529.030"/>
      <line x1="22.325" y1="1579.030" x2="22.325" y2="1529.030"/>
      <line x1="23.325" y1="1579.030" x2="23.325" y2="1529.030"/>
      <line x1="24.325" y1="1579.030" x2="24.325" y2="1529.030"/>
      <line x1="25.325" y1="1579.030" x2="25.325" y2="1529.030"/>
      <line x1="26.325" y1="1579.030" x2="26.325" y2="1529.030"/>
      <line x1="27.325" y1="1579.030" x2="27.325" y2="1529.030"/>
      <line x1="28.325" y1="1579.030" x2="28.325" y2="1529.030"/>
      <line x1="29.325" y1="1579.030" x2="29.325" y2="1529.030"/>
      <line x1="30.325" y1="1579.030" x2="30.325" y2="1529.030"/>
      <line x1="31.325" y1="1579.030" x2="31.325" y2="1529.030"/>
      <line x1="32.325" y1="1579.030" x2="32.325" y2="1529.030"/>
      <line x1="33.325" y1="1579.030" x2="33.325" y2="1529.030"/>
      <line x1="34.325" y1="1579.030" x2="34.325" y2="1529.030"/>
      <line x1="35.325" y1="1579.030" x2="35.325" y2="1529.030"/>
      <line x1="36.325" y1="1579.030" x2="36.325" y2="1529.030"/>
      <line x1="37.325" y1="1579.030" x2="37.325" y2="1529.030"/>
      <line x1="38.325" y1="1579.030" x2="38.325" y2="1529.030"/>
      <line x1="39.325" y1="1579.030" x2="39.325" y2="1529.030"/>
      <line x1="40.325" y1="1579.030" x2="40.325" y2="1529.030"/>
      <line x1="41.325" y1="1579.030" x2="41.325" y2="1529.030"/>
      <line x1="42.325" y1="1579.030" x2="42.325" y2="1529.030"/>
      <line x1="43.325" y1="1579.030" x2="43.325" y2="1529.030"/>
      <line x1="44.325" y1="1579.030" x2="44.325" y2="1529.030"/>
      <line x1="45.325" y1="1579.030" x2="45.325" y2="1529.030"/>
      <line x1="46.325" y1="1579.030" x2="46.325" y2="1529.030"/>
      <line x1="26.325" y1="1528.930" x2="26.325" y2="1525.229"/>
      <line x1="25.325" y1="1528.930" x2="25.325" y2="1525.229"/>
      <line x1="27.325" y1="1528.930" x2="27.325" y2="1525.229"/>
      <line x1="28.325" y1="1528.930" x2="28.325" y2="1525.229"/>
      <line x1="29.325" y1="1528.930" x2="29.325" y2="1525.229"/>
      <line x1="30.325" y1="1528.930" x2="30.325" y2="1525.229"/>
      <line x1="31.325" y1="1528.930" x2="31.325" y2="1525.229"/>
      <line x1="32.325" y1="1528.930" x2="32.325" y2="1525.229"/>
      <line x1="33.325" y1="1528.930" x2="33.325" y2="1525.229"/>
      <line x1="34.325" y1="1528.930" x2="34.325" y2="1525.229"/>
      <line x1="35.325" y1="1528.930" x2="35.325" y2="1525.229"/>
      <line x1="36.325" y1="1528.930" x2="36.325" y2="1525.229"/>
      <line x1="37.325" y1="1528.930" x2="37.325" y2="1525.229"/>
      <line x1="38.325" y1="1528.930" x2="38.325" y2="1525.229"/>
      <line x1="39.325" y1="1528.930" x2="39.325" y2="1525.229"/>
      <line x1="40.325" y1="1528.930" x2="40.325" y2="1525.229"/>
      <line x1="41.325" y1="1528.930" x2="41.325" y2="1525.229"/>
      <line x1="42.325" y1="1528.930" x2="42.325" y2="1525.229"/>
      <line x1="43.325" y1="1528.930" x2="43.325" y2="1525.229"/>
      <line x1="44.325" y1="1528.930" x2="44.325" y2="1525.229"/>
      <line x1="45.325" y1="1528.930" x2="45.325" y2="1525.229"/>
      <line x1="46.325" y1="1528.930" x2="46.325" y2="1525.229"/>
      <line x1="14.325" y1="1528.930" x2="14.325" y2="1525.229"/>
      <line x1="4.325" y1="1528.930" x2="4.325" y2="1525.229"/>
      <line x1="5.325" y1="1528.930" x2="5.325" y2="1525.229"/>
      <line x1="6.325" y1="1528.930" x2="6.325" y2="1525.229"/>
      <line x1="7.325" y1="1528.930" x2="7.325" y2="1525.229"/>
      <line x1="8.325" y1="1528.930" x2="8.325" y2="1525.229"/>
      <line x1="9.325" y1="1528.930" x2="9.325" y2="1525.229"/>
      <line x1="10.325" y1="1528.930" x2="10.325" y2="1525.229"/>
      <line x1="11.325" y1="1528.930" x2="11.325" y2="1525.229"/>
      <line x1="12.325" y1="1528.930" x2="12.325" y2="1525.229"/>
      <line x1="13.325" y1="1528.930" x2="13.325" y2="1525.229"/>
      <line x1="3.325" y1="1528.930" x2="3.325" y2="1525.229"/>
      <line x1="15.325" y1="1528.930" x2="15.325" y2="1525.229"/>
      <line x1="16.325" y1="1528.930" x2="16.325" y2="1525.229"/>
      <line x1="17.325" y1="1528.930" x2="17.325" y2="1525.229"/>
      <line x1="18.325" y1="1528.930" x2="18.325" y2="1525.229"/>
      <line x1="19.325" y1="1528.930" x2="19.325" y2="1525.229"/>
      <line x1="20.325" y1="1528.930" x2="20.325" y2="1525.229"/>
      <line x1="21.325" y1="1528.930" x2="21.325" y2="1525.229"/>
      <line x1="22.325" y1="1528.930" x2="22.325" y2="1525.229"/>
      <line x1="23.325" y1="1528.930" x2="23.325" y2="1525.229"/>
      <line x1="24.325" y1="1528.930" x2="24.325" y2="1525.229"/>
    </g>
    <g stroke="#1976D2" stroke-width="0.4">
      <polyline points="600.500,1521.729 549.500,1521.729 549.500,1682.729 600.500,1682.729 600.500,1521.729" fill="none"/>
      <polyline points="599.500,1522.729 550.500,1522.729 550.500,1681.730 599.500,1681.730 599.500,1522.729" fill="none"/>
      <polyline points="598.500,1523.729 551.500,1523.729 551.500,1680.730 598.500,1680.730 598.500,1523.729" fill="none"/>
      <polyline points="597.500,1524.729 552.500,1524.729 552.500,1679.729 597.500,1679.729 597.500,1524.729" fill="none"/>
      <polyline points="50.500,1521.729 -0.500,1521.729 -0.500,1682.729 50.500,1682.729 50.500,1521.729" fill="none"/>
      <polyline points="49.500,1522.729 0.500,1522.729 0.500,1681.730 49.500,1681.730 49.500,1522.729" fill="none"/>
      <polyline points="48.500,1523.729 1.500,1523.729 1.500,1680.730 48.500,1680.730 48.500,1523.729" fill="none"/>
      <polyline points="47.500,1524.729 2.500,1524.729 2.500,1679.729 47.500,1679.729 47.500,1524.729" fill="none"/>
    </g>
    <g stroke="#C62828" stroke-width="0.4" fill="none">
      <polygon points="294.966,1537.998 296.898,1537.089 298.543,1535.728 299.798,1534.000 300.584,1532.015 300.852,1529.896 300.584,1527.778 299.798,1525.792 298.543,1524.065 296.898,1522.704 294.966,1521.795 292.868,1521.394 290.737,1521.529 288.706,1522.188 286.903,1523.333 285.442,1524.889 284.413,1526.760 283.882,1528.829 283.882,1530.964 284.413,1533.032 285.442,1534.903 286.903,1536.460 288.706,1537.604 290.737,1538.264 292.868,1538.398"/>
      <polygon points="314.526,1538.079 316.569,1537.233 318.324,1535.887 319.670,1534.132 320.517,1532.089 320.805,1529.896 320.517,1527.703 319.670,1525.660 318.324,1523.906 316.569,1522.559 314.526,1521.713 312.333,1521.424 310.141,1521.713 308.097,1522.559 306.343,1523.906 304.996,1525.660 304.150,1527.703 303.861,1529.896 304.150,1532.089 304.996,1534.132 306.343,1535.887 308.097,1537.233 310.141,1538.079 312.333,1538.368"/>
      <polygon points="274.501,1537.986 276.521,1537.150 278.256,1535.819 279.587,1534.084 280.423,1532.064 280.709,1529.896 280.423,1527.728 279.587,1525.708 278.256,1523.974 276.521,1522.643 274.501,1521.806 272.333,1521.521 270.166,1521.806 268.146,1522.643 266.411,1523.974 265.080,1525.708 264.243,1527.728 263.958,1529.896 264.243,1532.064 265.080,1534.084 266.411,1535.819 268.146,1537.150 270.166,1537.986 272.333,1538.272"/>
      <polygon points="334.488,1537.938 336.496,1537.106 338.220,1535.783 339.543,1534.059 340.375,1532.051 340.659,1529.896 340.375,1527.741 339.543,1525.733 338.220,1524.009 336.496,1522.686 334.488,1521.854 332.333,1521.571 330.179,1521.854 328.171,1522.686 326.446,1524.009 325.123,1525.733 324.291,1527.741 324.008,1529.896 324.291,1532.051 325.123,1534.059 326.446,1535.783 328.171,1537.106 330.179,1537.938 332.333,1538.222"/>
      <polygon points="354.461,1537.838 356.444,1537.017 358.147,1535.710 359.454,1534.007 360.275,1532.024 360.556,1529.896 360.275,1527.768 359.454,1525.785 358.147,1524.082 356.444,1522.776 354.461,1521.954 352.333,1521.674 350.205,1521.954 348.222,1522.776 346.519,1524.082 345.213,1525.785 344.391,1527.768 344.111,1529.896 344.391,1532.024 345.213,1534.007 346.519,1535.710 348.222,1537.017 350.205,1537.838 352.333,1538.118"/>
      <polygon points="254.461,1537.838 256.444,1537.017 258.147,1535.710 259.454,1534.007 260.275,1532.024 260.556,1529.896 260.275,1527.768 259.454,1525.785 258.147,1524.082 256.444,1522.776 254.461,1521.954 252.333,1521.674 250.205,1521.954 248.222,1522.776 246.519,1524.082 245.213,1525.785 244.391,1527.768 244.111,1529.896 244.391,1532.024 245.213,1534.007 246.519,1535.710 248.222,1537.017 250.205,1537.838 252.333,1538.118"/>
      <polygon points="234.433,1537.734 236.390,1536.923 238.071,1535.634 239.360,1533.953 240.171,1531.996 240.447,1529.896 240.171,1527.796 239.360,1525.839 238.071,1524.159 236.390,1522.869 234.433,1522.059 232.333,1521.782 230.233,1522.059 228.276,1522.869 226.596,1524.159 225.307,1525.839 224.496,1527.796 224.220,1529.896 224.496,1531.996 225.307,1533.953 226.596,1535.634 228.276,1536.923 230.233,1537.734 232.333,1538.010"/>
      <polygon points="374.419,1537.679 376.362,1536.874 378.031,1535.594 379.311,1533.925 380.116,1531.982 380.391,1529.896 380.116,1527.811 379.311,1525.867 378.031,1524.199 376.362,1522.918 374.419,1522.113 372.333,1521.839 370.248,1522.113 368.305,1522.918 366.636,1524.199 365.355,1525.867 364.550,1527.811 364.276,1529.896 364.550,1531.982 365.355,1533.925 366.636,1535.594 368.305,1536.874 370.248,1537.679 372.333,1537.954"/>
      <polygon points="213.949,1537.671 215.987,1536.947 217.753,1535.700 219.118,1534.022 219.980,1532.039 220.274,1529.896 219.980,1527.754 219.118,1525.770 217.753,1524.093 215.987,1522.846 213.949,1522.121 211.791,1521.974 209.674,1522.414 207.754,1523.409 206.173,1524.885 205.050,1526.732 204.466,1528.815 204.466,1530.977 205.050,1533.060 206.173,1534.908 207.754,1536.384 209.674,1537.379 211.791,1537.819"/>
      <polygon points="393.937,1537.612 395.959,1536.893 397.712,1535.655 399.066,1533.991 399.921,1532.022 400.214,1529.896 399.921,1527.770 399.066,1525.802 397.712,1524.137 395.959,1522.899 393.937,1522.181 391.796,1522.034 389.694,1522.471 387.789,1523.458 386.220,1524.923 385.105,1526.757 384.526,1528.823 384.526,1530.969 385.105,1533.036 386.220,1534.869 387.789,1536.334 389.694,1537.322 391.796,1537.758"/>
      <polygon points="193.911,1537.488 195.901,1536.781 197.626,1535.563 198.959,1533.925 199.800,1531.988 200.088,1529.896 199.800,1527.804 198.959,1525.867 197.626,1524.229 195.901,1523.011 193.911,1522.304 191.804,1522.160 189.737,1522.590 187.862,1523.561 186.318,1525.002 185.221,1526.807 184.651,1528.840 184.651,1530.952 185.221,1532.986 186.318,1534.790 187.862,1536.231 189.737,1537.203 191.804,1537.632"/>
      <polygon points="413.911,1537.488 415.901,1536.781 417.626,1535.563 418.959,1533.925 419.800,1531.988 420.088,1529.896 419.800,1527.804 418.959,1525.867 417.626,1524.229 415.901,1523.011 413.911,1522.304 411.804,1522.160 409.737,1522.590 407.862,1523.561 406.318,1525.002 405.221,1526.807 404.651,1528.840 404.651,1530.952 405.221,1532.986 406.318,1534.790 407.862,1536.231 409.737,1537.203 411.804,1537.632"/>
      <polygon points="173.884,1537.358 175.840,1536.663 177.535,1535.466 178.845,1533.856 179.672,1531.952 179.955,1529.896 179.672,1527.840 178.845,1525.936 177.535,1524.326 175.840,1523.129 173.884,1522.434 171.813,1522.292 169.781,1522.715 167.938,1523.670 166.421,1525.086 165.343,1526.860 164.783,1528.858 164.783,1530.934 165.343,1532.933 166.421,1534.706 167.938,1536.123 169.781,1537.078 171.813,1537.500"/>
      <polygon points="433.870,1537.291 435.808,1536.602 437.488,1535.416 438.786,1533.820 439.606,1531.934 439.886,1529.896 439.606,1527.859 438.786,1525.972 437.488,1524.377 435.808,1523.190 433.870,1522.502 431.818,1522.361 429.804,1522.780 427.978,1523.726 426.475,1525.130 425.406,1526.887 424.851,1528.868 424.851,1530.925 425.406,1532.905 426.475,1534.662 427.978,1536.066 429.804,1537.013 431.818,1537.431"/>
      <polygon points="155.348,1536.497 157.085,1535.380 158.438,1533.819 159.295,1531.940 159.589,1529.896 159.295,1527.852 158.438,1525.973 157.085,1524.412 155.348,1523.296 153.366,1522.714 151.301,1522.714 149.319,1523.296 147.582,1524.412 146.229,1525.973 145.371,1527.852 145.077,1529.896 145.371,1531.940 146.229,1533.819 147.582,1535.380 149.319,1536.497 151.301,1537.078 153.366,1537.078"/>
      <polygon points="455.280,1536.350 456.979,1535.258 458.302,1533.732 459.140,1531.895 459.428,1529.896 459.140,1527.897 458.302,1526.061 456.979,1524.534 455.280,1523.443 453.343,1522.874 451.324,1522.874 449.386,1523.443 447.687,1524.534 446.365,1526.061 445.526,1527.897 445.239,1529.896 445.526,1531.895 446.365,1533.732 447.687,1535.258 449.386,1536.350 451.324,1536.918 453.343,1536.918"/>
      <polygon points="134.761,1536.082 136.477,1535.092 137.824,1533.640 138.683,1531.855 138.979,1529.896 138.683,1527.937 137.824,1526.153 136.477,1524.701 134.761,1523.710 132.830,1523.270 130.855,1523.418 129.011,1524.141 127.462,1525.376 126.346,1527.013 125.762,1528.906 125.762,1530.887 126.346,1532.779 127.462,1534.416 129.011,1535.651 130.855,1536.375 132.830,1536.523"/>
      <polygon points="474.325,1536.025 476.121,1535.110 477.547,1533.684 478.462,1531.888 478.778,1529.896 478.462,1527.905 477.547,1526.108 476.121,1524.683 474.325,1523.767 472.333,1523.452 470.342,1523.767 468.545,1524.683 467.120,1526.108 466.204,1527.905 465.889,1529.896 466.204,1531.888 467.120,1533.684 468.545,1535.110 470.342,1536.025 472.333,1536.341"/>
      <polygon points="113.777,1535.595 115.549,1534.818 116.973,1533.507 117.894,1531.805 118.212,1529.896 117.894,1527.987 116.973,1526.285 115.549,1524.975 113.777,1524.197 111.848,1524.037 109.972,1524.513 108.352,1525.571 107.163,1527.098 106.535,1528.929 106.535,1530.864 107.163,1532.694 108.352,1534.221 109.972,1535.280 111.848,1535.755"/>
      <polygon points="493.714,1535.347 495.409,1534.603 496.770,1533.350 497.651,1531.722 497.956,1529.896 497.651,1528.070 496.770,1526.443 495.409,1525.189 493.714,1524.446 491.869,1524.293 490.075,1524.747 488.525,1525.759 487.388,1527.220 486.787,1528.971 486.787,1530.822 487.388,1532.572 488.525,1534.033 490.075,1535.045 491.869,1535.500"/>
      <polygon points="94.513,1534.273 95.946,1533.190 96.892,1531.662 97.222,1529.896 96.892,1528.130 95.946,1526.603 94.513,1525.520 92.784,1525.028 90.995,1525.194 89.387,1525.995 88.177,1527.323 87.528,1528.998 87.528,1530.794 88.177,1532.470 89.387,1533.798 90.995,1534.598 92.784,1534.764"/>
      <polygon points="514.362,1533.970 515.696,1532.962 516.577,1531.540 516.884,1529.896 516.577,1528.252 515.696,1526.830 514.362,1525.823 512.753,1525.365 511.088,1525.519 509.591,1526.265 508.464,1527.501 507.860,1529.060 507.860,1530.732 508.464,1532.292 509.591,1533.528 511.088,1534.273 512.753,1534.427"/>
      <polygon points="73.434,1533.283 74.716,1532.542 75.586,1531.345 75.894,1529.896 75.586,1528.448 74.716,1527.250 73.434,1526.509 71.961,1526.355 70.553,1526.812 70.000,1527.310 70.000,1532.482 70.553,1532.980 71.961,1533.438"/>
      <polygon points="530.000,1527.984 529.546,1528.554 529.239,1529.896 529.546,1531.239 530.000,1531.808"/>
      <polygon points="294.966,1557.998 296.898,1557.089 298.543,1555.728 299.798,1554.000 300.584,1552.015 300.852,1549.896 300.584,1547.778 299.798,1545.792 298.543,1544.065 296.898,1542.704 294.966,1541.795 292.868,1541.394 290.737,1541.529 288.706,1542.188 286.903,1543.333 285.442,1544.889 284.413,1546.760 283.882,1548.829 283.882,1550.964 284.413,1553.032 285.442,1554.903 286.903,1556.460 288.706,1557.604 290.737,1558.264 292.868,1558.398"/>
      <polygon points="314.526,1558.079 316.569,1557.233 318.324,1555.887 319.670,1554.132 320.517,1552.089 320.805,1549.896 320.517,1547.703 319.670,1545.660 318.324,1543.906 316.569,1542.559 314.526,1541.713 312.333,1541.424 310.141,1541.713 308.097,1542.559 306.343,1543.906 304.996,1545.660 304.150,1547.703 303.861,1549.896 304.150,1552.089 304.996,1554.132 306.343,1555.887 308.097,1557.233 310.141,1558.079 312.333,1558.368"/>
      <polygon points="274.501,1557.986 276.521,1557.150 278.256,1555.819 279.587,1554.084 280.423,1552.064 280.709,1549.896 280.423,1547.728 279.587,1545.708 278.256,1543.974 276.521,1542.643 274.501,1541.806 272.333,1541.521 270.166,1541.806 268.146,1542.643 266.411,1543.974 265.080,1545.708 264.243,1547.728 263.958,1549.896 264.243,1552.064 265.080,1554.084 266.411,1555.819 268.146,1557.150 270.166,1557.986 272.333,1558.272"/>
      <polygon points="334.488,1557.938 336.496,1557.106 338.220,1555.783 339.543,1554.059 340.375,1552.051 340.659,1549.896 340.375,1547.741 339.543,1545.733 338.220,1544.009 336.496,1542.686 334.488,1541.854 332.333,1541.571 330.179,1541.854 328.171,1542.686 326.446,1544.009 325.123,1545.733 324.291,1547.741 324.008,1549.896 324.291,1552.051 325.123,1554.059 326.446,1555.783 328.171,1557.106 330.179,1557.938 332.333,1558.222"/>
      <polygon points="354.461,1557.838 356.444,1557.017 358.147,1555.710 359.454,1554.007 360.275,1552.024 360.556,1549.896 360.275,1547.768 359.454,1545.785 358.147,1544.082 356.444,1542.776 354.461,1541.954 352.333,1541.674 350.205,1541.954 348.222,1542.776 346.519,1544.082 345.213,1545.785 344.391,1547.768 344.111,1549.896 344.391,1552.024 345.213,1554.007 346.519,1555.710 348.222,1557.017 350.205,1557.838 352.333,1558.118"/>
      <polygon points="254.461,1557.838 256.444,1557.017 258.147,1555.710 259.454,1554.007 260.275,1552.024 260.556,1549.896 260.275,1547.768 259.454,1545.785 258.147,1544.082 256.444,1542.776 254.461,1541.954 252.333,1541.674 250.205,1541.954 248.222,1542.776 246.519,1544.082 245.213,1545.785 244.391,1547.768 244.111,1549.896 244.391,1552.024 245.213,1554.007 246.519,1555.710 248.222,1557.017 250.205,1557.838 252.333,1558.118"/>
      <polygon points="234.433,1557.734 236.390,1556.923 238.071,1555.634 239.360,1553.953 240.171,1551.996 240.447,1549.896 240.171,1547.796 239.360,1545.839 238.071,1544.159 236.390,1542.869 234.433,1542.059 232.333,1541.782 230.233,1542.059 228.276,1542.869 226.596,1544.159 225.307,1545.839 224.496,1547.796 224.220,1549.896 224.496,1551.996 225.307,1553.953 226.596,1555.634 228.276,1556.923 230.233,1557.734 232.333,1558.010"/>
      <polygon points="374.419,1557.679 376.362,1556.874 378.031,1555.594 379.311,1553.925 380.116,1551.982 380.391,1549.896 380.116,1547.811 379.311,1545.867 378.031,1544.199 376.362,1542.918 374.419,1542.113 372.333,1541.839 370.248,1542.113 368.305,1542.918 366.636,1544.199 365.355,1545.867 364.550,1547.811 364.276,1549.896 364.550,1551.982 365.355,1553.925 366.636,1555.594 368.305,1556.874 370.248,1557.679 372.333,1557.954"/>
      <polygon points="213.949,1557.671 215.987,1556.947 217.753,1555.700 219.118,1554.022 219.980,1552.039 220.274,1549.896 219.980,1547.754 219.118,1545.770 217.753,1544.093 215.987,1542.846 213.949,1542.121 211.791,1541.974 209.674,1542.414 207.754,1543.409 206.173,1544.885 205.050,1546.732 204.466,1548.815 204.466,1550.977 205.050,1553.060 206.173,1554.908 207.754,1556.384 209.674,1557.379 211.791,1557.819"/>
      <polygon points="393.937,1557.612 395.959,1556.893 397.712,1555.655 399.066,1553.991 399.921,1552.022 400.214,1549.896 399.921,1547.770 399.066,1545.802 397.712,1544.137 395.959,1542.899 393.937,1542.181 391.796,1542.034 389.694,1542.471 387.789,1543.458 386.220,1544.923 385.105,1546.757 384.526,1548.823 384.526,1550.969 385.105,1553.036 386.220,1554.869 387.789,1556.334 389.694,1557.322 391.796,1557.758"/>
      <polygon points="193.911,1557.488 195.901,1556.781 197.626,1555.563 198.959,1553.925 199.800,1551.988 200.088,1549.896 199.800,1547.804 198.959,1545.867 197.626,1544.229 195.901,1543.011 193.911,1542.304 191.804,1542.160 189.737,1542.590 187.862,1543.561 186.318,1545.002 185.221,1546.807 184.651,1548.840 184.651,1550.952 185.221,1552.986 186.318,1554.790 187.862,1556.231 189.737,1557.203 191.804,1557.632"/>
      <polygon points="413.911,1557.488 415.901,1556.781 417.626,1555.563 418.959,1553.925 419.800,1551.988 420.088,1549.896 419.800,1547.804 418.959,1545.867 417.626,1544.229 415.901,1543.011 413.911,1542.304 411.804,1542.160 409.737,1542.590 407.862,1543.561 406.318,1545.002 405.221,1546.807 404.651,1548.840 404.651,1550.952 405.221,1552.986 406.318,1554.790 407.862,1556.231 409.737,1557.203 411.804,1557.632"/>
      <polygon points="173.884,1557.358 175.840,1556.663 177.535,1555.466 178.845,1553.856 179.672,1551.952 179.955,1549.896 179.672,1547.840 178.845,1545.936 177.535,1544.326 175.840,1543.129 173.884,1542.434 171.813,1542.292 169.781,1542.715 167.938,1543.670 166.421,1545.086 165.343,1546.860 164.783,1548.858 164.783,1550.934 165.343,1552.933 166.421,1554.706 167.938,1556.123 169.781,1557.078 171.813,1557.500"/>
      <polygon points="433.870,1557.291 435.808,1556.602 437.488,1555.416 438.786,1553.820 439.606,1551.934 439.886,1549.896 439.606,1547.859 438.786,1545.972 437.488,1544.377 435.808,1543.190 433.870,1542.502 431.818,1542.361 429.804,1542.780 427.978,1543.726 426.475,1545.130 425.406,1546.887 424.851,1548.868 424.851,1550.925 425.406,1552.905 426.475,1554.662 427.978,1556.066 429.804,1557.013 431.818,1557.431"/>
      <polygon points="155.348,1556.497 157.085,1555.380 158.438,1553.819 159.295,1551.940 159.589,1549.896 159.295,1547.852 158.438,1545.973 157.085,1544.412 155.348,1543.296 153.366,1542.714 151.301,1542.714 149.319,1543.296 147.582,1544.412 146.229,1545.973 145.371,1547.852 145.077,1549.896 145.371,1551.940 146.229,1553.819 147.582,1555.380 149.319,1556.497 151.301,1557.078 153.366,1557.078"/>
      <polygon points="455.280,1556.350 456.979,1555.258 458.302,1553.732 459.140,1551.895 459.428,1549.896 459.140,1547.897 458.302,1546.061 456.979,1544.534 455.280,1543.443 453.343,1542.874 451.324,1542.874 449.386,1543.443 447.687,1544.534 446.365,1546.061 445.526,1547.897 445.239,1549.896 445.526,1551.895 446.365,1553.732 447.687,1555.258 449.386,1556.350 451.324,1556.918 453.343,1556.918"/>
      <polygon points="134.761,1556.082 136.477,1555.092 137.824,1553.640 138.683,1551.855 138.979,1549.896 138.683,1547.937 137.824,1546.153 136.477,1544.701 134.761,1543.710 132.830,1543.270 130.855,1543.418 129.011,1544.141 127.462,1545.376 126.346,1547.013 125.762,1548.906 125.762,1550.887 126.346,1552.779 127.462,1554.416 129.011,1555.651 130.855,1556.375 132.830,1556.523"/>
      <polygon points="474.325,1556.025 476.121,1555.110 477.547,1553.684 478.462,1551.888 478.778,1549.896 478.462,1547.905 477.547,1546.108 476.121,1544.683 474.325,1543.767 472.333,1543.452 470.342,1543.767 468.545,1544.683 467.120,1546.108 466.204,1547.905 465.889,1549.896 466.204,1551.888 467.120,1553.684 468.545,1555.110 470.342,1556.025 472.333,1556.341"/>
      <polygon points="113.777,1555.595 115.549,1554.818 116.973,1553.507 117.894,1551.805 118.212,1549.896 117.894,1547.987 116.973,1546.285 115.549,1544.975 113.777,1544.197 111.848,1544.037 109.972,1544.513 108.352,1545.571 107.163,1547.098 106.535,1548.929 106.535,1550.864 107.163,1552.694 108.352,1554.221 109.972,1555.280 111.848,1555.755"/>
      <polygon points="493.714,1555.347 495.409,1554.603 496.770,1553.350 497.651,1551.722 497.956,1549.896 497.651,1548.070 496.770,1546.443 495.409,1545.189 493.714,1544.446 491.869,1544.293 490.075,1544.747 488.525,1545.759 487.388,1547.220 486.787,1548.971 486.787,1550.822 487.388,1552.572 488.525,1554.033 490.075,1555.045 491.869,1555.500"/>
      <polygon points="94.513,1554.273 95.946,1553.190 96.892,1551.662 97.222,1549.896 96.892,1548.130 95.946,1546.603 94.513,1545.520 92.784,1545.028 90.995,1545.194 89.387,1545.995 88.177,1547.323 87.528,1548.998 87.528,1550.794 88.177,1552.470 89.387,1553.798 90.995,1554.598 92.784,1554.764"/>
      <polygon points="514.362,1553.970 515.696,1552.962 516.577,1551.540 516.884,1549.896 516.577,1548.252 515.696,1546.830 514.362,1545.823 512.753,1545.365 511.088,1545.519 509.591,1546.265 508.464,1547.501 507.860,1549.060 507.860,1550.732 508.464,1552.292 509.591,1553.528 511.088,1554.273 512.753,1554.427"/>
      <polygon points="73.434,1553.283 74.716,1552.542 75.586,1551.345 75.894,1549.896 75.586,1548.448 74.716,1547.250 73.434,1546.509 71.961,1546.355 70.553,1546.812 70.000,1547.310 70.000,1552.482 70.553,1552.980 71.961,1553.438"/>
      <polygon points="530.000,1547.984 529.546,1548.554 529.239,1549.896 529.546,1551.239 530.000,1551.808"/>
      <polygon points="294.966,1577.998 296.898,1577.089 298.543,1575.728 299.798,1574.000 300.584,1572.015 300.852,1569.896 300.584,1567.778 299.798,1565.792 298.543,1564.065 296.898,1562.704 294.966,1561.795 292.868,1561.394 290.737,1561.529 288.706,1562.188 286.903,1563.333 285.442,1564.889 284.413,1566.760 283.882,1568.829 283.882,1570.964 284.413,1573.032 285.442,1574.903 286.903,1576.460 288.706,1577.604 290.737,1578.264 292.868,1578.398"/>
      <polygon points="314.526,1578.079 316.569,1577.233 318.324,1575.887 319.670,1574.132 320.517,1572.089 320.805,1569.896 320.517,1567.703 319.670,1565.660 318.324,1563.906 316.569,1562.559 314.526,1561.713 312.333,1561.424 310.141,1561.713 308.097,1562.559 306.343,1563.906 304.996,1565.660 304.150,1567.703 303.861,1569.896 304.150,1572.089 304.996,1574.132 306.343,1575.887 308.097,1577.233 310.141,1578.079 312.333,1578.368"/>
      <polygon points="274.501,1577.986 276.521,1577.150 278.256,1575.819 279.587,1574.084 280.423,1572.064 280.709,1569.896 280.423,1567.728 279.587,1565.708 278.256,1563.974 276.521,1562.643 274.501,1561.806 272.333,1561.521 270.166,1561.806 268.146,1562.643 266.411,1563.974 265.080,1565.708 264.243,1567.728 263.958,1569.896 264.243,1572.064 265.080,1574.084 266.411,1575.819 268.146,1577.150 270.166,1577.986 272.333,1578.272"/>
      <polygon points="334.488,1577.938 336.496,1577.106 338.220,1575.783 339.543,1574.059 340.375,1572.051 340.659,1569.896 340.375,1567.741 339.543,1565.733 338.220,1564.009 336.496,1562.686 334.488,1561.854 332.333,1561.571 330.179,1561.854 328.171,1562.686 326.446,1564.009 325.123,1565.733 324.291,1567.741 324.008,1569.896 324.291,1572.051 325.123,1574.059 326.446,1575.783 328.171,1577.106 330.179,1577.938 332.333,1578.222"/>
      <polygon points="354.461,1577.838 356.444,1577.017 358.147,1575.710 359.454,1574.007 360.275,1572.024 360.556,1569.896 360.275,1567.768 359.454,1565.785 358.147,1564.082 356.444,1562.776 354.461,1561.954 352.333,1561.674 350.205,1561.954 348.222,1562.776 346.519,1564.082 345.213,1565.785 344.391,1567.768 344.111,1569.896 344.391,1572.024 345.213,1574.007 346.519,1575.710 348.222,1577.017 350.205,1577.838 352.333,1578.118"/>
      <polygon points="254.461,1577.838 256.444,1577.017 258.147,1575.710 259.454,1574.007 260.275,1572.024 260.556,1569.896 260.275,1567.768 259.454,1565.785 258.147,1564.082 256.444,1562.776 254.461,1561.954 252.333,1561.674 250.205,1561.954 248.222,1562.776 246.519,1564.082 245.213,1565.785 244.391,1567.768 244.111,1569.896 244.391,1572.024 245.213,1574.007 246.519,1575.710 248.222,1577.017 250.205,1577.838 252.333,1578.118"/>
      <polygon points="234.433,1577.734 236.390,1576.923 238.071,1575.634 239.360,1573.953 240.171,1571.996 240.447,1569.896 240.171,1567.796 239.360,1565.839 238.071,1564.159 236.390,1562.869 234.433,1562.059 232.333,1561.782 230.233,1562.059 228.276,1562.869 226.596,1564.159 225.307,1565.839 224.496,1567.796 224.220,1569.896 224.496,1571.996 225.307,1573.953 226.596,1575.634 228.276,1576.923 230.233,1577.734 232.333,1578.010"/>
      <polygon points="374.419,1577.679 376.362,1576.874 378.031,1575.594 379.311,1573.925 380.116,1571.982 380.391,1569.896 380.116,1567.811 379.311,1565.867 378.031,1564.199 376.362,1562.918 374.419,1562.113 372.333,1561.839 370.248,1562.113 368.305,1562.918 366.636,1564.199 365.355,1565.867 364.550,1567.811 364.276,1569.896 364.550,1571.982 365.355,1573.925 366.636,1575.594 368.305,1576.874 370.248,1577.679 372.333,1577.954"/>
      <polygon points="213.949,1577.671 215.987,1576.947 217.753,1575.700 219.118,1574.022 219.980,1572.039 220.274,1569.896 219.980,1567.754 219.118,1565.770 217.753,1564.093 215.987,1562.846 213.949,1562.121 211.791,1561.974 209.674,1562.414 207.754,1563.409 206.173,1564.885 205.050,1566.732 204.466,1568.815 204.466,1570.977 205.050,1573.060 206.173,1574.908 207.754,1576.384 209.674,1577.379 211.791,1577.819"/>
      <polygon points="393.937,1577.612 395.959,1576.893 397.712,1575.655 399.066,1573.991 399.921,1572.022 400.214,1569.896 399.921,1567.770 399.066,1565.802 397.712,1564.137 395.959,1562.899 393.937,1562.181 391.796,1562.034 389.694,1562.471 387.789,1563.458 386.220,1564.923 385.105,1566.757 384.526,1568.823 384.526,1570.969 385.105,1573.036 386.220,1574.869 387.789,1576.334 389.694,1577.322 391.796,1577.758"/>
      <polygon points="413.911,1577.488 415.901,1576.781 417.626,1575.563 418.959,1573.925 419.800,1571.988 420.088,1569.896 419.800,1567.804 418.959,1565.867 417.626,1564.229 415.901,1563.011 413.911,1562.304 411.804,1562.160 409.737,1562.590 407.862,1563.561 406.318,1565.002 405.221,1566.807 404.651,1568.840 404.651,1570.952 405.221,1572.986 406.318,1574.790 407.862,1576.231 409.737,1577.203 411.804,1577.632"/>
      <polygon points="193.911,1577.488 195.901,1576.781 197.626,1575.563 198.959,1573.925 199.800,1571.988 200.088,1569.896 199.800,1567.804 198.959,1565.867 197.626,1564.229 195.901,1563.011 193.911,1562.304 191.804,1562.160 189.737,1562.590 187.862,1563.561 186.318,1565.002 185.221,1566.807 184.651,1568.840 184.651,1570.952 185.221,1572.986 186.318,1574.790 187.862,1576.231 189.737,1577.203 191.804,1577.632"/>
      <polygon points="173.884,1577.358 175.840,1576.663 177.535,1575.466 178.845,1573.856 179.672,1571.952 179.955,1569.896 179.672,1567.840 178.845,1565.936 177.535,1564.326 175.840,1563.129 173.884,1562.434 171.813,1562.292 169.781,1562.715 167.938,1563.670 166.421,1565.086 165.343,1566.860 164.783,1568.858 164.783,1570.934 165.343,1572.933 166.421,1574.706 167.938,1576.123 169.781,1577.078 171.813,1577.500"/>
      <polygon points="433.870,1577.291 435.808,1576.602 437.488,1575.416 438.786,1573.820 439.606,1571.934 439.886,1569.896 439.606,1567.859 438.786,1565.972 437.488,1564.377 435.808,1563.190 433.870,1562.502 431.818,1562.361 429.804,1562.780 427.978,1563.726 426.475,1565.130 425.406,1566.887 424.851,1568.868 424.851,1570.925 425.406,1572.905 426.475,1574.662 427.978,1576.066 429.804,1577.013 431.818,1577.431"/>
      <polygon points="155.348,1576.497 157.085,1575.380 158.438,1573.819 159.295,1571.940 159.589,1569.896 159.295,1567.852 158.438,1565.973 157.085,1564.412 155.348,1563.296 153.366,1562.714 151.301,1562.714 149.319,1563.296 147.582,1564.412 146.229,1565.973 145.371,1567.852 145.077,1569.896 145.371,1571.940 146.229,1573.819 147.582,1575.380 149.319,1576.497 151.301,1577.078 153.366,1577.078"/>
      <polygon points="455.280,1576.350 456.979,1575.258 458.302,1573.732 459.140,1571.895 459.428,1569.896 459.140,1567.897 458.302,1566.061 456.979,1564.534 455.280,1563.443 453.343,1562.874 451.324,1562.874 449.386,1563.443 447.687,1564.534 446.365,1566.061 445.526,1567.897 445.239,1569.896 445.526,1571.895 446.365,1573.732 447.687,1575.258 449.386,1576.350 451.324,1576.918 453.343,1576.918"/>
      <polygon points="134.761,1576.082 136.477,1575.092 137.824,1573.640 138.683,1571.855 138.979,1569.896 138.683,1567.937 137.824,1566.153 136.477,1564.701 134.761,1563.710 132.830,1563.270 130.855,1563.418 129.011,1564.141 127.462,1565.376 126.346,1567.013 125.762,1568.906 125.762,1570.887 126.346,1572.779 127.462,1574.416 129.011,1575.651 130.855,1576.375 132.830,1576.523"/>
      <polygon points="474.325,1576.025 476.121,1575.110 477.547,1573.684 478.462,1571.888 478.778,1569.896 478.462,1567.905 477.547,1566.108 476.121,1564.683 474.325,1563.767 472.333,1563.452 470.342,1563.767 468.545,1564.683 467.120,1566.108 466.204,1567.905 465.889,1569.896 466.204,1571.888 467.120,1573.684 468.545,1575.110 470.342,1576.025 472.333,1576.341"/>
      <polygon points="113.777,1575.595 115.549,1574.818 116.973,1573.507 117.894,1571.805 118.212,1569.896 117.894,1567.987 116.973,1566.285 115.549,1564.975 113.777,1564.197 111.848,1564.037 109.972,1564.513 108.352,1565.571 107.163,1567.098 106.535,1568.929 106.535,1570.864 107.163,1572.694 108.352,1574.221 109.972,1575.280 111.848,1575.755"/>
      <polygon points="493.714,1575.347 495.409,1574.603 496.770,1573.350 497.651,1571.722 497.956,1569.896 497.651,1568.070 496.770,1566.443 495.409,1565.189 493.714,1564.446 491.869,1564.293 490.075,1564.747 488.525,1565.759 487.388,1567.220 486.787,1568.971 486.787,1570.822 487.388,1572.572 488.525,1574.033 490.075,1575.045 491.869,1575.500"/>
      <polygon points="94.513,1574.273 95.946,1573.190 96.892,1571.662 97.222,1569.896 96.892,1568.130 95.946,1566.603 94.513,1565.520 92.784,1565.028 90.995,1565.194 89.387,1565.995 88.177,1567.323 87.528,1568.998 87.528,1570.794 88.177,1572.470 89.387,1573.798 90.995,1574.598 92.784,1574.764"/>
      <polygon points="514.362,1573.970 515.696,1572.962 516.577,1571.540 516.884,1569.896 516.577,1568.252 515.696,1566.830 514.362,1565.823 512.753,1565.365 511.088,1565.519 509.591,1566.265 508.464,1567.501 507.860,1569.060 507.860,1570.732 508.464,1572.292 509.591,1573.528 511.088,1574.273 512.753,1574.427"/>
      <polygon points="73.434,1573.283 74.716,1572.542 75.586,1571.345 75.894,1569.896 75.586,1568.448 74.716,1567.250 73.434,1566.509 71.961,1566.355 70.553,1566.812 70.000,1567.310 70.000,1572.482 70.553,1572.980 71.961,1573.438"/>
      <polygon points="530.000,1567.984 529.546,1568.554 529.239,1569.896 529.546,1571.239 530.000,1571.808"/>
      <polygon points="294.966,1597.998 296.898,1597.089 298.543,1595.728 299.798,1594.000 300.584,1592.015 300.852,1589.896 300.584,1587.778 299.798,1585.792 298.543,1584.065 296.898,1582.704 294.966,1581.795 292.868,1581.394 290.737,1581.529 288.706,1582.188 286.903,1583.333 285.442,1584.889 284.413,1586.760 283.882,1588.829 283.882,1590.964 284.413,1593.032 285.442,1594.903 286.903,1596.460 288.706,1597.604 290.737,1598.264 292.868,1598.398"/>
      <polygon points="314.526,1598.079 316.569,1597.233 318.324,1595.887 319.670,1594.132 320.517,1592.089 320.805,1589.896 320.517,1587.703 319.670,1585.660 318.324,1583.906 316.569,1582.559 314.526,1581.713 312.333,1581.424 310.141,1581.713 308.097,1582.559 306.343,1583.906 304.996,1585.660 304.150,1587.703 303.861,1589.896 304.150,1592.089 304.996,1594.132 306.343,1595.887 308.097,1597.233 310.141,1598.079 312.333,1598.368"/>
      <polygon points="274.501,1597.986 276.521,1597.150 278.256,1595.819 279.587,1594.084 280.423,1592.064 280.709,1589.896 280.423,1587.728 279.587,1585.708 278.256,1583.974 276.521,1582.643 274.501,1581.806 272.333,1581.521 270.166,1581.806 268.146,1582.643 266.411,1583.974 265.080,1585.708 264.243,1587.728 263.958,1589.896 264.243,1592.064 265.080,1594.084 266.411,1595.819 268.146,1597.150 270.166,1597.986 272.333,1598.272"/>
      <polygon points="334.488,1597.938 336.496,1597.106 338.220,1595.783 339.543,1594.059 340.375,1592.051 340.659,1589.896 340.375,1587.741 339.543,1585.733 338.220,1584.009 336.496,1582.686 334.488,1581.854 332.333,1581.571 330.179,1581.854 328.171,1582.686 326.446,1584.009 325.123,1585.733 324.291,1587.741 324.008,1589.896 324.291,1592.051 325.123,1594.059 326.446,1595.783 328.171,1597.106 330.179,1597.938 332.333,1598.222"/>
      <polygon points="354.461,1597.838 356.444,1597.017 358.147,1595.710 359.454,1594.007 360.275,1592.024 360.556,1589.896 360.275,1587.768 359.454,1585.785 358.147,1584.082 356.444,1582.776 354.461,1581.954 352.333,1581.674 350.205,1581.954 348.222,1582.776 346.519,1584.082 345.213,1585.785 344.391,1587.768 344.111,1589.896 344.391,1592.024 345.213,1594.007 346.519,1595.710 348.222,1597.017 350.205,1597.838 352.333,1598.118"/>
      <polygon points="254.461,1597.838 256.444,1597.017 258.147,1595.710 259.454,1594.007 260.275,1592.024 260.556,1589.896 260.275,1587.768 259.454,1585.785 258.147,1584.082 256.444,1582.776 254.461,1581.954 252.333,1581.674 250.205,1581.954 248.222,1582.776 246.519,1584.082 245.213,1585.785 244.391,1587.768 244.111,1589.896 244.391,1592.024 245.213,1594.007 246.519,1595.710 248.222,1597.017 250.205,1597.838 252.333,1598.118"/>
      <polygon points="234.433,1597.734 236.390,1596.923 238.071,1595.634 239.360,1593.953 240.171,1591.996 240.447,1589.896 240.171,1587.796 239.360,1585.839 238.071,1584.159 236.390,1582.869 234.433,1582.059 232.333,1581.782 230.233,1582.059 228.276,1582.869 226.596,1584.159 225.307,1585.839 224.496,1587.796 224.220,1589.896 224.496,1591.996 225.307,1593.953 226.596,1595.634 228.276,1596.923 230.233,1597.734 232.333,1598.010"/>
      <polygon points="374.419,1597.679 376.362,1596.874 378.031,1595.594 379.311,1593.925 380.116,1591.982 380.391,1589.896 380.116,1587.811 379.311,1585.867 378.031,1584.199 376.362,1582.918 374.419,1582.113 372.333,1581.839 370.248,1582.113 368.305,1582.918 366.636,1584.199 365.355,1585.867 364.550,1587.811 364.276,1589.896 364.550,1591.982 365.355,1593.925 366.636,1595.594 368.305,1596.874 370.248,1597.679 372.333,1597.954"/>
      <polygon points="213.949,1597.671 215.987,1596.947 217.753,1595.700 219.118,1594.022 219.980,1592.039 220.274,1589.896 219.980,1587.754 219.118,1585.770 217.753,1584.093 215.987,1582.846 213.949,1582.121 211.791,1581.974 209.674,1582.414 207.754,1583.409 206.173,1584.885 205.050,1586.732 204.466,1588.815 204.466,1590.977 205.050,1593.060 206.173,1594.908 207.754,1596.384 209.674,1597.379 211.791,1597.819"/>
      <polygon points="393.937,1597.612 395.959,1596.893 397.712,1595.655 399.066,1593.991 399.921,1592.022 400.214,1589.896 399.921,1587.770 399.066,1585.802 397.712,1584.137 395.959,1582.899 393.937,1582.181 391.796,1582.034 389.694,1582.471 387.789,1583.458 386.220,1584.923 385.105,1586.757 384.526,1588.823 384.526,1590.969 385.105,1593.036 386.220,1594.869 387.789,1596.334 389.694,1597.322 391.796,1597.758"/>
      <polygon points="413.911,1597.488 415.901,1596.781 417.626,1595.563 418.959,1593.925 419.800,1591.988 420.088,1589.896 419.800,1587.804 418.959,1585.867 417.626,1584.229 415.901,1583.011 413.911,1582.304 411.804,1582.160 409.737,1582.590 407.862,1583.561 406.318,1585.002 405.221,1586.807 404.651,1588.840 404.651,1590.952 405.221,1592.986 406.318,1594.790 407.862,1596.231 409.737,1597.203 411.804,1597.632"/>
      <polygon points="193.911,1597.488 195.901,1596.781 197.626,1595.563 198.959,1593.925 199.800,1591.988 200.088,1589.896 199.800,1587.804 198.959,1585.867 197.626,1584.229 195.901,1583.011 193.911,1582.304 191.804,1582.160 189.737,1582.590 187.862,1583.561 186.318,1585.002 185.221,1586.807 184.651,1588.840 184.651,1590.952 185.221,1592.986 186.318,1594.790 187.862,1596.231 189.737,1597.203 191.804,1597.632"/>
      <polygon points="173.884,1597.358 175.840,1596.663 177.535,1595.466 178.845,1593.856 179.672,1591.952 179.955,1589.896 179.672,1587.840 178.845,1585.936 177.535,1584.326 175.840,1583.129 173.884,1582.434 171.813,1582.292 169.781,1582.715 167.938,1583.670 166.421,1585.086 165.343,1586.860 164.783,1588.858 164.783,1590.934 165.343,1592.933 166.421,1594.706 167.938,1596.123 169.781,1597.078 171.813,1597.500"/>
      <polygon points="433.870,1597.291 435.808,1596.602 437.488,1595.416 438.786,1593.820 439.606,1591.934 439.886,1589.896 439.606,1587.859 438.786,1585.972 437.488,1584.377 435.808,1583.190 433.870,1582.502 431.818,1582.361 429.804,1582.780 427.978,1583.726 426.475,1585.130 425.406,1586.887 424.851,1588.868 424.851,1590.925 425.406,1592.905 426.475,1594.662 427.978,1596.066 429.804,1597.013 431.818,1597.431"/>
      <polygon points="155.348,1596.497 157.085,1595.380 158.438,1593.819 159.295,1591.940 159.589,1589.896 159.295,1587.852 158.438,1585.973 157.085,1584.412 155.348,1583.296 153.366,1582.714 151.301,1582.714 149.319,1583.296 147.582,1584.412 146.229,1585.973 145.371,1587.852 145.077,1589.896 145.371,1591.940 146.229,1593.819 147.582,1595.380 149.319,1596.497 151.301,1597.078 153.366,1597.078"/>
      <polygon points="455.280,1596.350 456.979,1595.258 458.302,1593.732 459.140,1591.895 459.428,1589.896 459.140,1587.897 458.302,1586.061 456.979,1584.534 455.280,1583.443 453.343,1582.874 451.324,1582.874 449.386,1583.443 447.687,1584.534 446.365,1586.061 445.526,1587.897 445.239,1589.896 445.526,1591.895 446.365,1593.732 447.687,1595.258 449.386,1596.350 451.324,1596.918 453.343,1596.918"/>
      <polygon points="134.761,1596.082 136.477,1595.092 137.824,1593.640 138.683,1591.855 138.979,1589.896 138.683,1587.937 137.824,1586.153 136.477,1584.701 134.761,1583.710 132.830,1583.270 130.855,1583.418 129.011,1584.141 127.462,1585.376 126.346,1587.013 125.762,1588.906 125.762,1590.887 126.346,1592.779 127.462,1594.416 129.011,1595.651 130.855,1596.375 132.830,1596.523"/>
      <polygon points="474.325,1596.025 476.121,1595.110 477.547,1593.684 478.462,1591.888 478.778,1589.896 478.462,1587.905 477.547,1586.108 476.121,1584.683 474.325,1583.767 472.333,1583.452 470.342,1583.767 468.545,1584.683 467.120,1586.108 466.204,1587.905 465.889,1589.896 466.204,1591.888 467.120,1593.684 468.545,1595.110 470.342,1596.025 472.333,1596.341"/>
      <polygon points="113.777,1595.595 115.549,1594.818 116.973,1593.507 117.894,1591.805 118.212,1589.896 117.894,1587.987 116.973,1586.285 115.549,1584.975 113.777,1584.197 111.848,1584.037 109.972,1584.513 108.352,1585.571 107.163,1587.098 106.535,1588.929 106.535,1590.864 107.163,1592.694 108.352,1594.221 109.972,1595.280 111.848,1595.755"/>
      <polygon points="493.714,1595.347 495.409,1594.603 496.770,1593.350 497.651,1591.722 497.956,1589.896 497.651,1588.070 496.770,1586.443 495.409,1585.189 493.714,1584.446 491.869,1584.293 490.075,1584.747 488.525,1585.759 487.388,1587.220 486.787,1588.971 486.787,1590.822 487.388,1592.572 488.525,1594.033 490.075,1595.045 491.869,1595.500"/>
      <polygon points="94.513,1594.273 95.946,1593.190 96.892,1591.662 97.222,1589.896 96.892,1588.130 95.946,1586.603 94.513,1585.520 92.784,1585.028 90.995,1585.194 89.387,1585.995 88.177,1587.323 87.528,1588.998 87.528,1590.794 88.177,1592.470 89.387,1593.798 90.995,1594.598 92.784,1594.764"/>
      <polygon points="514.362,1593.970 515.696,1592.962 516.577,1591.540 516.884,1589.896 516.577,1588.252 515.696,1586.830 514.362,1585.823 512.753,1585.365 511.088,1585.519 509.591,1586.265 508.464,1587.501 507.860,1589.060 507.860,1590.732 508.464,1592.292 509.591,1593.528 511.088,1594.273 512.753,1594.427"/>
      <polygon points="73.434,1593.283 74.716,1592.542 75.586,1591.345 75.894,1589.896 75.586,1588.448 74.716,1587.250 73.434,1586.509 71.961,1586.355 70.553,1586.812 70.000,1587.310 70.000,1592.482 70.553,1592.980 71.961,1593.438"/>
      <polygon points="530.000,1587.984 529.546,1588.554 529.239,1589.896 529.546,1591.239 530.000,1591.808"/>
      <polygon points="294.966,1617.998 296.898,1617.089 298.543,1615.728 299.798,1614.000 300.584,1612.015 300.852,1609.896 300.584,1607.778 299.798,1605.792 298.543,1604.065 296.898,1602.704 294.966,1601.795 292.868,1601.394 290.737,1601.529 288.706,1602.188 286.903,1603.333 285.442,1604.889 284.413,1606.760 283.882,1608.829 283.882,1610.964 284.413,1613.032 285.442,1614.903 286.903,1616.460 288.706,1617.604 290.737,1618.264 292.868,1618.398"/>
      <polygon points="314.526,1618.079 316.569,1617.233 318.324,1615.887 319.670,1614.132 320.517,1612.089 320.805,1609.896 320.517,1607.703 319.670,1605.660 318.324,1603.906 316.569,1602.559 314.526,1601.713 312.333,1601.424 310.141,1601.713 308.097,1602.559 306.343,1603.906 304.996,1605.660 304.150,1607.703 303.861,1609.896 304.150,1612.089 304.996,1614.132 306.343,1615.887 308.097,1617.233 310.141,1618.079 312.333,1618.368"/>
      <polygon points="274.501,1617.986 276.521,1617.150 278.256,1615.819 279.587,1614.084 280.423,1612.064 280.709,1609.896 280.423,1607.728 279.587,1605.708 278.256,1603.974 276.521,1602.643 274.501,1601.806 272.333,1601.521 270.166,1601.806 268.146,1602.643 266.411,1603.974 265.080,1605.708 264.243,1607.728 263.958,1609.896 264.243,1612.064 265.080,1614.084 266.411,1615.819 268.146,1617.150 270.166,1617.986 272.333,1618.272"/>
      <polygon points="334.488,1617.938 336.496,1617.106 338.220,1615.783 339.543,1614.059 340.375,1612.051 340.659,1609.896 340.375,1607.741 339.543,1605.733 338.220,1604.009 336.496,1602.686 334.488,1601.854 332.333,1601.571 330.179,1601.854 328.171,1602.686 326.446,1604.009 325.123,1605.733 324.291,1607.741 324.008,1609.896 324.291,1612.051 325.123,1614.059 326.446,1615.783 328.171,1617.106 330.179,1617.938 332.333,1618.222"/>
      <polygon points="254.461,1617.838 256.444,1617.017 258.147,1615.710 259.454,1614.007 260.275,1612.024 260.556,1609.896 260.275,1607.768 259.454,1605.785 258.147,1604.082 256.444,1602.776 254.461,1601.954 252.333,1601.674 250.205,1601.954 248.222,1602.776 246.519,1604.082 245.213,1605.785 244.391,1607.768 244.111,1609.896 244.391,1612.024 245.213,1614.007 246.519,1615.710 248.222,1617.017 250.205,1617.838 252.333,1618.118"/>
      <polygon points="354.461,1617.838 356.444,1617.017 358.147,1615.710 359.454,1614.007 360.275,1612.024 360.556,1609.896 360.275,1607.768 359.454,1605.785 358.147,1604.082 356.444,1602.776 354.461,1601.954 352.333,1601.674 350.205,1601.954 348.222,1602.776 346.519,1604.082 345.213,1605.785 344.391,1607.768 344.111,1609.896 344.391,1612.024 345.213,1614.007 346.519,1615.710 348.222,1617.017 350.205,1617.838 352.333,1618.118"/>
      <polygon points="234.433,1617.734 236.390,1616.923 238.071,1615.634 239.360,1613.953 240.171,1611.996 240.447,1609.896 240.171,1607.796 239.360,1605.839 238.071,1604.159 236.390,1602.869 234.433,1602.059 232.333,1601.782 230.233,1602.059 228.276,1602.869 226.596,1604.159 225.307,1605.839 224.496,1607.796 224.220,1609.896 224.496,1611.996 225.307,1613.953 226.596,1615.634 228.276,1616.923 230.233,1617.734 232.333,1618.010"/>
      <polygon points="374.419,1617.679 376.362,1616.874 378.031,1615.594 379.311,1613.925 380.116,1611.982 380.391,1609.896 380.116,1607.811 379.311,1605.867 378.031,1604.199 376.362,1602.918 374.419,1602.113 372.333,1601.839 370.248,1602.113 368.305,1602.918 366.636,1604.199 365.355,1605.867 364.550,1607.811 364.276,1609.896 364.550,1611.982 365.355,1613.925 366.636,1615.594 368.305,1616.874 370.248,1617.679 372.333,1617.954"/>
      <polygon points="213.949,1617.671 215.987,1616.947 217.753,1615.700 219.118,1614.022 219.980,1612.039 220.274,1609.896 219.980,1607.754 219.118,1605.770 217.753,1604.093 215.987,1602.846 213.949,1602.121 211.791,1601.974 209.674,1602.414 207.754,1603.409 206.173,1604.885 205.050,1606.732 204.466,1608.815 204.466,1610.977 205.050,1613.060 206.173,1614.908 207.754,1616.384 209.674,1617.379 211.791,1617.819"/>
      <polygon points="393.937,1617.612 395.959,1616.893 397.712,1615.655 399.066,1613.991 399.921,1612.022 400.214,1609.896 399.921,1607.770 399.066,1605.802 397.712,1604.137 395.959,1602.899 393.937,1602.181 391.796,1602.034 389.694,1602.471 387.789,1603.458 386.220,1604.923 385.105,1606.757 384.526,1608.823 384.526,1610.969 385.105,1613.036 386.220,1614.869 387.789,1616.334 389.694,1617.322 391.796,1617.758"/>
      <polygon points="413.911,1617.488 415.901,1616.781 417.626,1615.563 418.959,1613.925 419.800,1611.988 420.088,1609.896 419.800,1607.804 418.959,1605.867 417.626,1604.229 415.901,1603.011 413.911,1602.304 411.804,1602.160 409.737,1602.590 407.862,1603.561 406.318,1605.002 405.221,1606.807 404.651,1608.840 404.651,1610.952 405.221,1612.986 406.318,1614.790 407.862,1616.231 409.737,1617.203 411.804,1617.632"/>
      <polygon points="193.911,1617.488 195.901,1616.781 197.626,1615.563 198.959,1613.925 199.800,1611.988 200.088,1609.896 199.800,1607.804 198.959,1605.867 197.626,1604.229 195.901,1603.011 193.911,1602.304 191.804,1602.160 189.737,1602.590 187.862,1603.561 186.318,1605.002 185.221,1606.807 184.651,1608.840 184.651,1610.952 185.221,1612.986 186.318,1614.790 187.862,1616.231 189.737,1617.203 191.804,1617.632"/>
      <polygon points="173.884,1617.358 175.840,1616.663 177.535,1615.466 178.845,1613.856 179.672,1611.952 179.955,1609.896 179.672,1607.840 178.845,1605.936 177.535,1604.326 175.840,1603.129 173.884,1602.434 171.813,1602.292 169.781,1602.715 167.938,1603.670 166.421,1605.086 165.343,1606.860 164.783,1608.858 164.783,1610.934 165.343,1612.933 166.421,1614.706 167.938,1616.123 169.781,1617.078 171.813,1617.500"/>
      <polygon points="433.870,1617.291 435.808,1616.602 437.488,1615.416 438.786,1613.820 439.606,1611.934 439.886,1609.896 439.606,1607.859 438.786,1605.972 437.488,1604.377 435.808,1603.190 433.870,1602.502 431.818,1602.361 429.804,1602.780 427.978,1603.726 426.475,1605.130 425.406,1606.887 424.851,1608.868 424.851,1610.925 425.406,1612.905 426.475,1614.662 427.978,1616.066 429.804,1617.013 431.818,1617.431"/>
      <polygon points="155.348,1616.497 157.085,1615.380 158.438,1613.819 159.295,1611.940 159.589,1609.896 159.295,1607.852 158.438,1605.973 157.085,1604.412 155.348,1603.296 153.366,1602.714 151.301,1602.714 149.319,1603.296 147.582,1604.412 146.229,1605.973 145.371,1607.852 145.077,1609.896 145.371,1611.940 146.229,1613.819 147.582,1615.380 149.319,1616.497 151.301,1617.078 153.366,1617.078"/>
      <polygon points="455.280,1616.350 456.979,1615.258 458.302,1613.732 459.140,1611.895 459.428,1609.896 459.140,1607.897 458.302,1606.061 456.979,1604.534 455.280,1603.443 453.343,1602.874 451.324,1602.874 449.386,1603.443 447.687,1604.534 446.365,1606.061 445.526,1607.897 445.239,1609.896 445.526,1611.895 446.365,1613.732 447.687,1615.258 449.386,1616.350 451.324,1616.918 453.343,1616.918"/>
      <polygon points="134.761,1616.082 136.477,1615.092 137.824,1613.640 138.683,1611.855 138.979,1609.896 138.683,1607.937 137.824,1606.153 136.477,1604.701 134.761,1603.710 132.830,1603.270 130.855,1603.418 129.011,1604.141 127.462,1605.376 126.346,1607.013 125.762,1608.906 125.762,1610.887 126.346,1612.779 127.462,1614.416 129.011,1615.651 130.855,1616.375 132.830,1616.523"/>
      <polygon points="474.325,1616.025 476.121,1615.110 477.547,1613.684 478.462,1611.888 478.778,1609.896 478.462,1607.905 477.547,1606.108 476.121,1604.683 474.325,1603.767 472.333,1603.452 470.342,1603.767 468.545,1604.683 467.120,1606.108 466.204,1607.905 465.889,1609.896 466.204,1611.888 467.120,1613.684 468.545,1615.110 470.342,1616.025 472.333,1616.341"/>
      <polygon points="113.777,1615.595 115.549,1614.818 116.973,1613.507 117.894,1611.805 118.212,1609.896 117.894,1607.987 116.973,1606.285 115.549,1604.975 113.777,1604.197 111.848,1604.037 109.972,1604.513 108.352,1605.571 107.163,1607.098 106.535,1608.929 106.535,1610.864 107.163,1612.694 108.352,1614.221 109.972,1615.280 111.848,1615.755"/>
      <polygon points="493.714,1615.347 495.409,1614.603 496.770,1613.350 497.651,1611.722 497.956,1609.896 497.651,1608.070 496.770,1606.443 495.409,1605.189 493.714,1604.446 491.869,1604.293 490.075,1604.747 488.525,1605.759 487.388,1607.220 486.787,1608.971 486.787,1610.822 487.388,1612.572 488.525,1614.033 490.075,1615.045 491.869,1615.500"/>
      <polygon points="94.513,1614.273 95.946,1613.190 96.892,1611.662 97.222,1609.896 96.892,1608.130 95.946,1606.603 94.513,1605.520 92.784,1605.028 90.995,1605.194 89.387,1605.995 88.177,1607.323 87.528,1608.998 87.528,1610.794 88.177,1612.470 89.387,1613.798 90.995,1614.598 92.784,1614.764"/>
      <polygon points="514.362,1613.970 515.696,1612.962 516.577,1611.540 516.884,1609.896 516.577,1608.252 515.696,1606.830 514.362,1605.823 512.753,1605.365 511.088,1605.519 509.591,1606.265 508.464,1607.501 507.860,1609.060 507.860,1610.732 508.464,1612.292 509.591,1613.528 511.088,1614.273 512.753,1614.427"/>
      <polygon points="73.434,1613.283 74.716,1612.542 75.586,1611.345 75.894,1609.896 75.586,1608.448 74.716,1607.250 73.434,1606.509 71.961,1606.355 70.553,1606.812 70.000,1607.310 70.000,1612.482 70.553,1612.980 71.961,1613.438"/>
      <polygon points="530.000,1607.984 529.546,1608.554 529.239,1609.896 529.546,1611.239 530.000,1611.808"/>
      <polygon points="294.966,1637.998 296.898,1637.089 298.543,1635.728 299.798,1634.000 300.584,1632.015 300.852,1629.896 300.584,1627.778 299.798,1625.792 298.543,1624.065 296.898,1622.704 294.966,1621.795 292.868,1621.394 290.737,1621.529 288.706,1622.188 286.903,1623.333 285.442,1624.889 284.413,1626.760 283.882,1628.829 283.882,1630.964 284.413,1633.032 285.442,1634.903 286.903,1636.460 288.706,1637.604 290.737,1638.264 292.868,1638.398"/>
      <polygon points="314.526,1638.079 316.569,1637.233 318.324,1635.887 319.670,1634.132 320.517,1632.089 320.805,1629.896 320.517,1627.703 319.670,1625.660 318.324,1623.906 316.569,1622.559 314.526,1621.713 312.333,1621.424 310.141,1621.713 308.097,1622.559 306.343,1623.906 304.996,1625.660 304.150,1627.703 303.861,1629.896 304.150,1632.089 304.996,1634.132 306.343,1635.887 308.097,1637.233 310.141,1638.079 312.333,1638.368"/>
      <polygon points="274.501,1637.986 276.521,1637.150 278.256,1635.819 279.587,1634.084 280.423,1632.064 280.709,1629.896 280.423,1627.728 279.587,1625.708 278.256,1623.974 276.521,1622.643 274.501,1621.806 272.333,1621.521 270.166,1621.806 268.146,1622.643 266.411,1623.974 265.080,1625.708 264.243,1627.728 263.958,1629.896 264.243,1632.064 265.080,1634.084 266.411,1635.819 268.146,1637.150 270.166,1637.986 272.333,1638.272"/>
      <polygon points="334.488,1637.938 336.496,1637.106 338.220,1635.783 339.543,1634.059 340.375,1632.051 340.659,1629.896 340.375,1627.741 339.543,1625.733 338.220,1624.009 336.496,1622.686 334.488,1621.854 332.333,1621.571 330.179,1621.854 328.171,1622.686 326.446,1624.009 325.123,1625.733 324.291,1627.741 324.008,1629.896 324.291,1632.051 325.123,1634.059 326.446,1635.783 328.171,1637.106 330.179,1637.938 332.333,1638.222"/>
      <polygon points="254.461,1637.838 256.444,1637.017 258.147,1635.710 259.454,1634.007 260.275,1632.024 260.556,1629.896 260.275,1627.768 259.454,1625.785 258.147,1624.082 256.444,1622.776 254.461,1621.954 252.333,1621.674 250.205,1621.954 248.222,1622.776 246.519,1624.082 245.213,1625.785 244.391,1627.768 244.111,1629.896 244.391,1632.024 245.213,1634.007 246.519,1635.710 248.222,1637.017 250.205,1637.838 252.333,1638.118"/>
      <polygon points="354.461,1637.838 356.444,1637.017 358.147,1635.710 359.454,1634.007 360.275,1632.024 360.556,1629.896 360.275,1627.768 359.454,1625.785 358.147,1624.082 356.444,1622.776 354.461,1621.954 352.333,1621.674 350.205,1621.954 348.222,1622.776 346.519,1624.082 345.213,1625.785 344.391,1627.768 344.111,1629.896 344.391,1632.024 345.213,1634.007 346.519,1635.710 348.222,1637.017 350.205,1637.838 352.333,1638.118"/>
      <polygon points="234.433,1637.734 236.390,1636.923 238.071,1635.634 239.360,1633.953 240.171,1631.996 240.447,1629.896 240.171,1627.796 239.360,1625.839 238.071,1624.159 236.390,1622.869 234.433,1622.059 232.333,1621.782 230.233,1622.059 228.276,1622.869 226.596,1624.159 225.307,1625.839 224.496,1627.796 224.220,1629.896 224.496,1631.996 225.307,1633.953 226.596,1635.634 228.276,1636.923 230.233,1637.734 232.333,1638.010"/>
      <polygon points="374.419,1637.679 376.362,1636.874 378.031,1635.594 379.311,1633.925 380.116,1631.982 380.391,1629.896 380.116,1627.811 379.311,1625.867 378.031,1624.199 376.362,1622.918 374.419,1622.113 372.333,1621.839 370.248,1622.113 368.305,1622.918 366.636,1624.199 365.355,1625.867 364.550,1627.811 364.276,1629.896 364.550,1631.982 365.355,1633.925 366.636,1635.594 368.305,1636.874 370.248,1637.679 372.333,1637.954"/>
      <polygon points="213.949,1637.671 215.987,1636.947 217.753,1635.700 219.118,1634.022 219.980,1632.039 220.274,1629.896 219.980,1627.754 219.118,1625.770 217.753,1624.093 215.987,1622.846 213.949,1622.121 211.791,1621.974 209.674,1622.414 207.754,1623.409 206.173,1624.885 205.050,1626.732 204.466,1628.815 204.466,1630.977 205.050,1633.060 206.173,1634.908 207.754,1636.384 209.674,1637.379 211.791,1637.819"/>
      <polygon points="393.937,1637.612 395.959,1636.893 397.712,1635.655 399.066,1633.991 399.921,1632.022 400.214,1629.896 399.921,1627.770 399.066,1625.802 397.712,1624.137 395.959,1622.899 393.937,1622.181 391.796,1622.034 389.694,1622.471 387.789,1623.458 386.220,1624.923 385.105,1626.757 384.526,1628.823 384.526,1630.969 385.105,1633.036 386.220,1634.869 387.789,1636.334 389.694,1637.322 391.796,1637.758"/>
      <polygon points="193.911,1637.488 195.901,1636.781 197.626,1635.563 198.959,1633.925 199.800,1631.988 200.088,1629.896 199.800,1627.804 198.959,1625.867 197.626,1624.229 195.901,1623.011 193.911,1622.304 191.804,1622.160 189.737,1622.590 187.862,1623.561 186.318,1625.002 185.221,1626.807 184.651,1628.840 184.651,1630.952 185.221,1632.986 186.318,1634.790 187.862,1636.231 189.737,1637.203 191.804,1637.632"/>
      <polygon points="413.911,1637.488 415.901,1636.781 417.626,1635.563 418.959,1633.925 419.800,1631.988 420.088,1629.896 419.800,1627.804 418.959,1625.867 417.626,1624.229 415.901,1623.011 413.911,1622.304 411.804,1622.160 409.737,1622.590 407.862,1623.561 406.318,1625.002 405.221,1626.807 404.651,1628.840 404.651,1630.952 405.221,1632.986 406.318,1634.790 407.862,1636.231 409.737,1637.203 411.804,1637.632"/>
      <polygon points="173.884,1637.358 175.840,1636.663 177.535,1635.466 178.845,1633.856 179.672,1631.952 179.955,1629.896 179.672,1627.840 178.845,1625.936 177.535,1624.326 175.840,1623.129 173.884,1622.434 171.813,1622.292 169.781,1622.715 167.938,1623.670 166.421,1625.086 165.343,1626.860 164.783,1628.858 164.783,1630.934 165.343,1632.933 166.421,1634.706 167.938,1636.123 169.781,1637.078 171.813,1637.500"/>
      <polygon points="433.870,1637.291 435.808,1636.602 437.488,1635.416 438.786,1633.820 439.606,1631.934 439.886,1629.896 439.606,1627.859 438.786,1625.972 437.488,1624.377 435.808,1623.190 433.870,1622.502 431.818,1622.361 429.804,1622.780 427.978,1623.726 426.475,1625.130 425.406,1626.887 424.851,1628.868 424.851,1630.925 425.406,1632.905 426.475,1634.662 427.978,1636.066 429.804,1637.013 431.818,1637.431"/>
      <polygon points="155.348,1636.497 157.085,1635.380 158.438,1633.819 159.295,1631.940 159.589,1629.896 159.295,1627.852 158.438,1625.973 157.085,1624.412 155.348,1623.296 153.366,1622.714 151.301,1622.714 149.319,1623.296 147.582,1624.412 146.229,1625.973 145.371,1627.852 145.077,1629.896 145.371,1631.940 146.229,1633.819 147.582,1635.380 149.319,1636.497 151.301,1637.078 153.366,1637.078"/>
      <polygon points="455.280,1636.350 456.979,1635.258 458.302,1633.732 459.140,1631.895 459.428,1629.896 459.140,1627.897 458.302,1626.061 456.979,1624.534 455.280,1623.443 453.343,1622.874 451.324,1622.874 449.386,1623.443 447.687,1624.534 446.365,1626.061 445.526,1627.897 445.239,1629.896 445.526,1631.895 446.365,1633.732 447.687,1635.258 449.386,1636.350 451.324,1636.918 453.343,1636.918"/>
      <polygon points="134.761,1636.082 136.477,1635.092 137.824,1633.640 138.683,1631.855 138.979,1629.896 138.683,1627.937 137.824,1626.153 136.477,1624.701 134.761,1623.710 132.830,1623.270 130.855,1623.418 129.011,1624.141 127.462,1625.376 126.346,1627.013 125.762,1628.906 125.762,1630.887 126.346,1632.779 127.462,1634.416 129.011,1635.651 130.855,1636.375 132.830,1636.523"/>
      <polygon points="474.325,1636.025 476.121,1635.110 477.547,1633.684 478.462,1631.888 478.778,1629.896 478.462,1627.905 477.547,1626.108 476.121,1624.683 474.325,1623.767 472.333,1623.452 470.342,1623.767 468.545,1624.683 467.120,1626.108 466.204,1627.905 465.889,1629.896 466.204,1631.888 467.120,1633.684 468.545,1635.110 470.342,1636.025 472.333,1636.341"/>
      <polygon points="113.777,1635.595 115.549,1634.818 116.973,1633.507 117.894,1631.805 118.212,1629.896 117.894,1627.987 116.973,1626.285 115.549,1624.975 113.777,1624.197 111.848,1624.037 109.972,1624.513 108.352,1625.571 107.163,1627.098 106.535,1628.929 106.535,1630.864 107.163,1632.694 108.352,1634.221 109.972,1635.280 111.848,1635.755"/>
      <polygon points="493.714,1635.347 495.409,1634.603 496.770,1633.350 497.651,1631.722 497.956,1629.896 497.651,1628.070 496.770,1626.443 495.409,1625.189 493.714,1624.446 491.869,1624.293 490.075,1624.747 488.525,1625.759 487.388,1627.220 486.787,1628.971 486.787,1630.822 487.388,1632.572 488.525,1634.033 490.075,1635.045 491.869,1635.500"/>
      <polygon points="94.513,1634.273 95.946,1633.190 96.892,1631.662 97.222,1629.896 96.892,1628.130 95.946,1626.603 94.513,1625.520 92.784,1625.028 90.995,1625.194 89.387,1625.995 88.177,1627.323 87.528,1628.998 87.528,1630.794 88.177,1632.470 89.387,1633.798 90.995,1634.598 92.784,1634.764"/>
      <polygon points="514.362,1633.970 515.696,1632.962 516.577,1631.540 516.884,1629.896 516.577,1628.252 515.696,1626.830 514.362,1625.823 512.753,1625.365 511.088,1625.519 509.591,1626.265 508.464,1627.501 507.860,1629.060 507.860,1630.732 508.464,1632.292 509.591,1633.528 511.088,1634.273 512.753,1634.427"/>
      <polygon points="73.434,1633.283 74.716,1632.542 75.586,1631.345 75.894,1629.896 75.586,1628.448 74.716,1627.250 73.434,1626.509 71.961,1626.355 70.553,1626.812 70.000,1627.310 70.000,1632.482 70.553,1632.980 71.961,1633.438"/>
      <polygon points="530.000,1627.984 529.546,1628.554 529.239,1629.896 529.546,1631.239 530.000,1631.808"/>
      <polygon points="294.966,1657.998 296.898,1657.089 298.543,1655.728 299.798,1654.000 300.584,1652.015 300.852,1649.896 300.584,1647.778 299.798,1645.792 298.543,1644.065 296.898,1642.704 294.966,1641.795 292.868,1641.394 290.737,1641.529 288.706,1642.188 286.903,1643.333 285.442,1644.889 284.413,1646.760 283.882,1648.829 283.882,1650.964 284.413,1653.032 285.442,1654.903 286.903,1656.460 288.706,1657.604 290.737,1658.264 292.868,1658.398"/>
      <polygon points="314.526,1658.079 316.569,1657.233 318.324,1655.887 319.670,1654.132 320.517,1652.089 320.805,1649.896 320.517,1647.703 319.670,1645.660 318.324,1643.906 316.569,1642.559 314.526,1641.713 312.333,1641.424 310.141,1641.713 308.097,1642.559 306.343,1643.906 304.996,1645.660 304.150,1647.703 303.861,1649.896 304.150,1652.089 304.996,1654.132 306.343,1655.887 308.097,1657.233 310.141,1658.079 312.333,1658.368"/>
      <polygon points="274.501,1657.986 276.521,1657.150 278.256,1655.819 279.587,1654.084 280.423,1652.064 280.709,1649.896 280.423,1647.728 279.587,1645.708 278.256,1643.974 276.521,1642.643 274.501,1641.806 272.333,1641.521 270.166,1641.806 268.146,1642.643 266.411,1643.974 265.080,1645.708 264.243,1647.728 263.958,1649.896 264.243,1652.064 265.080,1654.084 266.411,1655.819 268.146,1657.150 270.166,1657.986 272.333,1658.272"/>
      <polygon points="334.488,1657.938 336.496,1657.106 338.220,1655.783 339.543,1654.059 340.375,1652.051 340.659,1649.896 340.375,1647.741 339.543,1645.733 338.220,1644.009 336.496,1642.686 334.488,1641.854 332.333,1641.571 330.179,1641.854 328.171,1642.686 326.446,1644.009 325.123,1645.733 324.291,1647.741 324.008,1649.896 324.291,1652.051 325.123,1654.059 326.446,1655.783 328.171,1657.106 330.179,1657.938 332.333,1658.222"/>
      <polygon points="254.461,1657.838 256.444,1657.017 258.147,1655.710 259.454,1654.007 260.275,1652.024 260.556,1649.896 260.275,1647.768 259.454,1645.785 258.147,1644.082 256.444,1642.776 254.461,1641.954 252.333,1641.674 250.205,1641.954 248.222,1642.776 246.519,1644.082 245.213,1645.785 244.391,1647.768 244.111,1649.896 244.391,1652.024 245.213,1654.007 246.519,1655.710 248.222,1657.017 250.205,1657.838 252.333,1658.118"/>
      <polygon points="354.461,1657.838 356.444,1657.017 358.147,1655.710 359.454,1654.007 360.275,1652.024 360.556,1649.896 360.275,1647.768 359.454,1645.785 358.147,1644.082 356.444,1642.776 354.461,1641.954 352.333,1641.674 350.205,1641.954 348.222,1642.776 346.519,1644.082 345.213,1645.785 344.391,1647.768 344.111,1649.896 344.391,1652.024 345.213,1654.007 346.519,1655.710 348.222,1657.017 350.205,1657.838 352.333,1658.118"/>
      <polygon points="234.433,1657.734 236.390,1656.923 238.071,1655.634 239.360,1653.953 240.171,1651.996 240.447,1649.896 240.171,1647.796 239.360,1645.839 238.071,1644.159 236.390,1642.869 234.433,1642.059 232.333,1641.782 230.233,1642.059 228.276,1642.869 226.596,1644.159 225.307,1645.839 224.496,1647.796 224.220,1649.896 224.496,1651.996 225.307,1653.953 226.596,1655.634 228.276,1656.923 230.233,1657.734 232.333,1658.010"/>
      <polygon points="374.419,1657.679 376.362,1656.874 378.031,1655.594 379.311,1653.925 380.116,1651.982 380.391,1649.896 380.116,1647.811 379.311,1645.867 378.031,1644.199 376.362,1642.918 374.419,1642.113 372.333,1641.839 370.248,1642.113 368.305,1642.918 366.636,1644.199 365.355,1645.867 364.550,1647.811 364.276,1649.896 364.550,1651.982 365.355,1653.925 366.636,1655.594 368.305,1656.874 370.248,1657.679 372.333,1657.954"/>
      <polygon points="213.949,1657.671 215.987,1656.947 217.753,1655.700 219.118,1654.022 219.980,1652.039 220.274,1649.896 219.980,1647.754 219.118,1645.770 217.753,1644.093 215.987,1642.846 213.949,1642.121 211.791,1641.974 209.674,1642.414 207.754,1643.409 206.173,1644.885 205.050,1646.732 204.466,1648.815 204.466,1650.977 205.050,1653.060 206.173,1654.908 207.754,1656.384 209.674,1657.379 211.791,1657.819"/>
      <polygon points="393.937,1657.612 395.959,1656.893 397.712,1655.655 399.066,1653.991 399.921,1652.022 400.214,1649.896 399.921,1647.770 399.066,1645.802 397.712,1644.137 395.959,1642.899 393.937,1642.181 391.796,1642.034 389.694,1642.471 387.789,1643.458 386.220,1644.923 385.105,1646.757 384.526,1648.823 384.526,1650.969 385.105,1653.036 386.220,1654.869 387.789,1656.334 389.694,1657.322 391.796,1657.758"/>
      <polygon points="413.911,1657.488 415.901,1656.781 417.626,1655.563 418.959,1653.925 419.800,1651.988 420.088,1649.896 419.800,1647.804 418.959,1645.867 417.626,1644.229 415.901,1643.011 413.911,1642.304 411.804,1642.160 409.737,1642.590 407.862,1643.561 406.318,1645.002 405.221,1646.807 404.651,1648.840 404.651,1650.952 405.221,1652.986 406.318,1654.790 407.862,1656.231 409.737,1657.203 411.804,1657.632"/>
      <polygon points="193.911,1657.488 195.901,1656.781 197.626,1655.563 198.959,1653.925 199.800,1651.988 200.088,1649.896 199.800,1647.804 198.959,1645.867 197.626,1644.229 195.901,1643.011 193.911,1642.304 191.804,1642.160 189.737,1642.590 187.862,1643.561 186.318,1645.002 185.221,1646.807 184.651,1648.840 184.651,1650.952 185.221,1652.986 186.318,1654.790 187.862,1656.231 189.737,1657.203 191.804,1657.632"/>
      <polygon points="173.884,1657.358 175.840,1656.663 177.535,1655.466 178.845,1653.856 179.672,1651.952 179.955,1649.896 179.672,1647.840 178.845,1645.936 177.535,1644.326 175.840,1643.129 173.884,1642.434 171.813,1642.292 169.781,1642.715 167.938,1643.670 166.421,1645.086 165.343,1646.860 164.783,1648.858 164.783,1650.934 165.343,1652.933 166.421,1654.706 167.938,1656.123 169.781,1657.078 171.813,1657.500"/>
      <polygon points="433.870,1657.291 435.808,1656.602 437.488,1655.416 438.786,1653.820 439.606,1651.934 439.886,1649.896 439.606,1647.859 438.786,1645.972 437.488,1644.377 435.808,1643.190 433.870,1642.502 431.818,1642.361 429.804,1642.780 427.978,1643.726 426.475,1645.130 425.406,1646.887 424.851,1648.868 424.851,1650.925 425.406,1652.905 426.475,1654.662 427.978,1656.066 429.804,1657.013 431.818,1657.431"/>
      <polygon points="155.348,1656.497 157.085,1655.380 158.438,1653.819 159.295,1651.940 159.589,1649.896 159.295,1647.852 158.438,1645.973 157.085,1644.412 155.348,1643.296 153.366,1642.714 151.301,1642.714 149.319,1643.296 147.582,1644.412 146.229,1645.973 145.371,1647.852 145.077,1649.896 145.371,1651.940 146.229,1653.819 147.582,1655.380 149.319,1656.497 151.301,1657.078 153.366,1657.078"/>
      <polygon points="455.280,1656.350 456.979,1655.258 458.302,1653.732 459.140,1651.895 459.428,1649.896 459.140,1647.897 458.302,1646.061 456.979,1644.534 455.280,1643.443 453.343,1642.874 451.324,1642.874 449.386,1643.443 447.687,1644.534 446.365,1646.061 445.526,1647.897 445.239,1649.896 445.526,1651.895 446.365,1653.732 447.687,1655.258 449.386,1656.350 451.324,1656.918 453.343,1656.918"/>
      <polygon points="134.761,1656.082 136.477,1655.092 137.824,1653.640 138.683,1651.855 138.979,1649.896 138.683,1647.937 137.824,1646.153 136.477,1644.701 134.761,1643.710 132.830,1643.270 130.855,1643.418 129.011,1644.141 127.462,1645.376 126.346,1647.013 125.762,1648.906 125.762,1650.887 126.346,1652.779 127.462,1654.416 129.011,1655.651 130.855,1656.375 132.830,1656.523"/>
      <polygon points="474.325,1656.025 476.121,1655.110 477.547,1653.684 478.462,1651.888 478.778,1649.896 478.462,1647.905 477.547,1646.108 476.121,1644.683 474.325,1643.767 472.333,1643.452 470.342,1643.767 468.545,1644.683 467.120,1646.108 466.204,1647.905 465.889,1649.896 466.204,1651.888 467.120,1653.684 468.545,1655.110 470.342,1656.025 472.333,1656.341"/>
      <polygon points="113.777,1655.595 115.549,1654.818 116.973,1653.507 117.894,1651.805 118.212,1649.896 117.894,1647.987 116.973,1646.285 115.549,1644.975 113.777,1644.197 111.848,1644.037 109.972,1644.513 108.352,1645.571 107.163,1647.098 106.535,1648.929 106.535,1650.864 107.163,1652.694 108.352,1654.221 109.972,1655.280 111.848,1655.755"/>
      <polygon points="493.714,1655.347 495.409,1654.603 496.770,1653.350 497.651,1651.722 497.956,1649.896 497.651,1648.070 496.770,1646.443 495.409,1645.189 493.714,1644.446 491.869,1644.293 490.075,1644.747 488.525,1645.759 487.388,1647.220 486.787,1648.971 486.787,1650.822 487.388,1652.572 488.525,1654.033 490.075,1655.045 491.869,1655.500"/>
      <polygon points="94.513,1654.273 95.946,1653.190 96.892,1651.662 97.222,1649.896 96.892,1648.130 95.946,1646.603 94.513,1645.520 92.784,1645.028 90.995,1645.194 89.387,1645.995 88.177,1647.323 87.528,1648.998 87.528,1650.794 88.177,1652.470 89.387,1653.798 90.995,1654.598 92.784,1654.764"/>
      <polygon points="514.362,1653.970 515.696,1652.962 516.577,1651.540 516.884,1649.896 516.577,1648.252 515.696,1646.830 514.362,1645.823 512.753,1645.365 511.088,1645.519 509.591,1646.265 508.464,1647.501 507.860,1649.060 507.860,1650.732 508.464,1652.292 509.591,1653.528 511.088,1654.273 512.753,1654.427"/>
      <polygon points="73.434,1653.283 74.716,1652.542 75.586,1651.345 75.894,1649.896 75.586,1648.448 74.716,1647.250 73.434,1646.509 71.961,1646.355 70.553,1646.812 70.000,1647.310 70.000,1652.482 70.553,1652.980 71.961,1653.438"/>
      <polygon points="530.000,1647.984 529.546,1648.554 529.239,1649.896 529.546,1651.239 530.000,1651.808"/>
      <polygon points="294.966,1677.998 296.898,1677.089 298.543,1675.728 299.798,1674.000 300.584,1672.015 300.852,1669.896 300.584,1667.778 299.798,1665.792 298.543,1664.065 296.898,1662.704 294.966,1661.795 292.868,1661.394 290.737,1661.529 288.706,1662.188 286.903,1663.333 285.442,1664.889 284.413,1666.760 283.882,1668.829 283.882,1670.964 284.413,1673.032 285.442,1674.903 286.903,1676.460 288.706,1677.604 290.737,1678.264 292.868,1678.398"/>
      <polygon points="314.526,1678.079 316.569,1677.233 318.324,1675.887 319.670,1674.132 320.517,1672.089 320.805,1669.896 320.517,1667.703 319.670,1665.660 318.324,1663.906 316.569,1662.559 314.526,1661.713 312.333,1661.424 310.141,1661.713 308.097,1662.559 306.343,1663.906 304.996,1665.660 304.150,1667.703 303.861,1669.896 304.150,1672.089 304.996,1674.132 306.343,1675.887 308.097,1677.233 310.141,1678.079 312.333,1678.368"/>
      <polygon points="274.501,1677.986 276.521,1677.150 278.256,1675.819 279.587,1674.084 280.423,1672.064 280.709,1669.896 280.423,1667.728 279.587,1665.708 278.256,1663.974 276.521,1662.643 274.501,1661.806 272.333,1661.521 270.166,1661.806 268.146,1662.643 266.411,1663.974 265.080,1665.708 264.243,1667.728 263.958,1669.896 264.243,1672.064 265.080,1674.084 266.411,1675.819 268.146,1677.150 270.166,1677.986 272.333,1678.272"/>
      <polygon points="334.488,1677.938 336.496,1677.106 338.220,1675.783 339.543,1674.059 340.375,1672.051 340.659,1669.896 340.375,1667.741 339.543,1665.733 338.220,1664.009 336.496,1662.686 334.488,1661.854 332.333,1661.571 330.179,1661.854 328.171,1662.686 326.446,1664.009 325.123,1665.733 324.291,1667.741 324.008,1669.896 324.291,1672.051 325.123,1674.059 326.446,1675.783 328.171,1677.106 330.179,1677.938 332.333,1678.222"/>
      <polygon points="254.461,1677.838 256.444,1677.017 258.147,1675.710 259.454,1674.007 260.275,1672.024 260.556,1669.896 260.275,1667.768 259.454,1665.785 258.147,1664.082 256.444,1662.776 254.461,1661.954 252.333,1661.674 250.205,1661.954 248.222,1662.776 246.519,1664.082 245.213,1665.785 244.391,1667.768 244.111,1669.896 244.391,1672.024 245.213,1674.007 246.519,1675.710 248.222,1677.017 250.205,1677.838 252.333,1678.118"/>
      <polygon points="354.461,1677.838 356.444,1677.017 358.147,1675.710 359.454,1674.007 360.275,1672.024 360.556,1669.896 360.275,1667.768 359.454,1665.785 358.147,1664.082 356.444,1662.776 354.461,1661.954 352.333,1661.674 350.205,1661.954 348.222,1662.776 346.519,1664.082 345.213,1665.785 344.391,1667.768 344.111,1669.896 344.391,1672.024 345.213,1674.007 346.519,1675.710 348.222,1677.017 350.205,1677.838 352.333,1678.118"/>
      <polygon points="234.433,1677.734 236.390,1676.923 238.071,1675.634 239.360,1673.953 240.171,1671.996 240.447,1669.896 240.171,1667.796 239.360,1665.839 238.071,1664.159 236.390,1662.869 234.433,1662.059 232.333,1661.782 230.233,1662.059 228.276,1662.869 226.596,1664.159 225.307,1665.839 224.496,1667.796 224.220,1669.896 224.496,1671.996 225.307,1673.953 226.596,1675.634 228.276,1676.923 230.233,1677.734 232.333,1678.010"/>
      <polygon points="374.419,1677.679 376.362,1676.874 378.031,1675.594 379.311,1673.925 380.116,1671.982 380.391,1669.896 380.116,1667.811 379.311,1665.867 378.031,1664.199 376.362,1662.918 374.419,1662.113 372.333,1661.839 370.248,1662.113 368.305,1662.918 366.636,1664.199 365.355,1665.867 364.550,1667.811 364.276,1669.896 364.550,1671.982 365.355,1673.925 366.636,1675.594 368.305,1676.874 370.248,1677.679 372.333,1677.954"/>
      <polygon points="213.949,1677.671 215.987,1676.947 217.753,1675.700 219.118,1674.022 219.980,1672.039 220.274,1669.896 219.980,1667.754 219.118,1665.770 217.753,1664.093 215.987,1662.846 213.949,1662.121 211.791,1661.974 209.674,1662.414 207.754,1663.409 206.173,1664.885 205.050,1666.732 204.466,1668.815 204.466,1670.977 205.050,1673.060 206.173,1674.908 207.754,1676.384 209.674,1677.379 211.791,1677.819"/>
      <polygon points="393.937,1677.612 395.959,1676.893 397.712,1675.655 399.066,1673.991 399.921,1672.022 400.214,1669.896 399.921,1667.770 399.066,1665.802 397.712,1664.137 395.959,1662.899 393.937,1662.181 391.796,1662.034 389.694,1662.471 387.789,1663.458 386.220,1664.923 385.105,1666.757 384.526,1668.823 384.526,1670.969 385.105,1673.036 386.220,1674.869 387.789,1676.334 389.694,1677.322 391.796,1677.758"/>
      <polygon points="413.911,1677.488 415.901,1676.781 417.626,1675.563 418.959,1673.925 419.800,1671.988 420.088,1669.896 419.800,1667.804 418.959,1665.867 417.626,1664.229 415.901,1663.011 413.911,1662.304 411.804,1662.160 409.737,1662.590 407.862,1663.561 406.318,1665.002 405.221,1666.807 404.651,1668.840 404.651,1670.952 405.221,1672.986 406.318,1674.790 407.862,1676.231 409.737,1677.203 411.804,1677.632"/>
      <polygon points="193.911,1677.488 195.901,1676.781 197.626,1675.563 198.959,1673.925 199.800,1671.988 200.088,1669.896 199.800,1667.804 198.959,1665.867 197.626,1664.229 195.901,1663.011 193.911,1662.304 191.804,1662.160 189.737,1662.590 187.862,1663.561 186.318,1665.002 185.221,1666.807 184.651,1668.840 184.651,1670.952 185.221,1672.986 186.318,1674.790 187.862,1676.231 189.737,1677.203 191.804,1677.632"/>
      <polygon points="173.884,1677.358 175.840,1676.663 177.535,1675.466 178.845,1673.856 179.672,1671.952 179.955,1669.896 179.672,1667.840 178.845,1665.936 177.535,1664.326 175.840,1663.129 173.884,1662.434 171.813,1662.292 169.781,1662.715 167.938,1663.670 166.421,1665.086 165.343,1666.860 164.783,1668.858 164.783,1670.934 165.343,1672.933 166.421,1674.706 167.938,1676.123 169.781,1677.078 171.813,1677.500"/>
      <polygon points="433.870,1677.291 435.808,1676.602 437.488,1675.416 438.786,1673.820 439.606,1671.934 439.886,1669.896 439.606,1667.859 438.786,1665.972 437.488,1664.377 435.808,1663.190 433.870,1662.502 431.818,1662.361 429.804,1662.780 427.978,1663.726 426.475,1665.130 425.406,1666.887 424.851,1668.868 424.851,1670.925 425.406,1672.905 426.475,1674.662 427.978,1676.066 429.804,1677.013 431.818,1677.431"/>
      <polygon points="155.348,1676.497 157.085,1675.380 158.438,1673.819 159.295,1671.940 159.589,1669.896 159.295,1667.852 158.438,1665.973 157.085,1664.412 155.348,1663.296 153.366,1662.714 151.301,1662.714 149.319,1663.296 147.582,1664.412 146.229,1665.973 145.371,1667.852 145.077,1669.896 145.371,1671.940 146.229,1673.819 147.582,1675.380 149.319,1676.497 151.301,1677.078 153.366,1677.078"/>
      <polygon points="455.280,1676.350 456.979,1675.258 458.302,1673.732 459.140,1671.895 459.428,1669.896 459.140,1667.897 458.302,1666.061 456.979,1664.534 455.280,1663.443 453.343,1662.874 451.324,1662.874 449.386,1663.443 447.687,1664.534 446.365,1666.061 445.526,1667.897 445.239,1669.896 445.526,1671.895 446.365,1673.732 447.687,1675.258 449.386,1676.350 451.324,1676.918 453.343,1676.918"/>
      <polygon points="134.761,1676.082 136.477,1675.092 137.824,1673.640 138.683,1671.855 138.979,1669.896 138.683,1667.937 137.824,1666.153 136.477,1664.701 134.761,1663.710 132.830,1663.270 130.855,1663.418 129.011,1664.141 127.462,1665.376 126.346,1667.013 125.762,1668.906 125.762,1670.887 126.346,1672.779 127.462,1674.416 129.011,1675.651 130.855,1676.375 132.830,1676.523"/>
      <polygon points="474.325,1676.025 476.121,1675.110 477.547,1673.684 478.462,1671.888 478.778,1669.896 478.462,1667.905 477.547,1666.108 476.121,1664.683 474.325,1663.767 472.333,1663.452 470.342,1663.767 468.545,1664.683 467.120,1666.108 466.204,1667.905 465.889,1669.896 466.204,1671.888 467.120,1673.684 468.545,1675.110 470.342,1676.025 472.333,1676.341"/>
      <polygon points="113.777,1675.595 115.549,1674.818 116.973,1673.507 117.894,1671.805 118.212,1669.896 117.894,1667.987 116.973,1666.285 115.549,1664.975 113.777,1664.197 111.848,1664.037 109.972,1664.513 108.352,1665.571 107.163,1667.098 106.535,1668.929 106.535,1670.864 107.163,1672.694 108.352,1674.221 109.972,1675.280 111.848,1675.755"/>
      <polygon points="493.714,1675.347 495.409,1674.603 496.770,1673.350 497.651,1671.722 497.956,1669.896 497.651,1668.070 496.770,1666.443 495.409,1665.189 493.714,1664.446 491.869,1664.293 490.075,1664.747 488.525,1665.759 487.388,1667.220 486.787,1668.971 486.787,1670.822 487.388,1672.572 488.525,1674.033 490.075,1675.045 491.869,1675.500"/>
      <polygon points="94.513,1674.273 95.946,1673.190 96.892,1671.662 97.222,1669.896 96.892,1668.130 95.946,1666.603 94.513,1665.520 92.784,1665.028 90.995,1665.194 89.387,1665.995 88.177,1667.323 87.528,1668.998 87.528,1670.794 88.177,1672.470 89.387,1673.798 90.995,1674.598 92.784,1674.764"/>
      <polygon points="514.362,1673.970 515.696,1672.962 516.577,1671.540 516.884,1669.896 516.577,1668.252 515.696,1666.830 514.362,1665.823 512.753,1665.365 511.088,1665.519 509.591,1666.265 508.464,1667.501 507.860,1669.060 507.860,1670.732 508.464,1672.292 509.591,1673.528 511.088,1674.273 512.753,1674.427"/>
      <polygon points="73.434,1673.283 74.716,1672.542 75.586,1671.345 75.894,1669.896 75.586,1668.448 74.716,1667.250 73.434,1666.509 71.961,1666.355 70.553,1666.812 70.000,1667.310 70.000,1672.482 70.553,1672.980 71.961,1673.438"/>
      <polygon points="530.000,1667.984 529.546,1668.554 529.239,1669.896 529.546,1671.239 530.000,1671.808"/>
    </g>
    <g stroke="#EF6C00" stroke-width="0.4" fill="none">
    </g>
  </g>
  <g stroke="#000000" stroke-width="0.4">
    <line x1="500.000" y1="1000.000" x2="1500.000" y2="1000.000"/>
  </g>
  <g stroke="#000000" stroke-width="0.4">
    <line x1="1000.000" y1="500.000" x2="1000.000" y2="1500.000"/>
  </g>
  <circle cx="1000.000" cy="1000.000" r="1000.000" stroke="red" stroke-width="1" fill="none"/>
  </g>
</svg>
