<?xml version="1.0" encoding="UTF-8"?>
<svg xmlns="http://www.w3.org/2000/svg" version="1.1" width="2000" height="2000">
  <g fill="none" stroke-linecap="round" stroke-linejoin="round">
  <text x="10" y="20" font-size="24" fill="#555">Layer 199 Z=51.800 mm</text>
  <g transform="translate(700.000,-602.229)">
    <g stroke="#2E7D32" stroke-width="0.4">
      <line x1="573.354" y1="1629.638" x2="523.354" y2="1629.638"/>
      <line x1="573.354" y1="1630.638" x2="523.354" y2="1630.638"/>
      <line x1="573.354" y1="1631.638" x2="523.354" y2="1631.638"/>
      <line x1="573.354" y1="1632.638" x2="523.354" y2="1632.638"/>
      <line x1="573.354" y1="1633.638" x2="523.354" y2="1633.638"/>
      <line x1="573.354" y1="1634.638" x2="523.354" y2="1634.638"/>
      <line x1="573.354" y1="1635.638" x2="523.354" y2="1635.638"/>
      <line x1="573.354" y1="1636.638" x2="523.354" y2="1636.638"/>
      <line x1="573.354" y1="1637.638" x2="523.354" y2="1637.638"/>
      <line x1="573.354" y1="1638.638" x2="523.354" y2="1638.638"/>
      <line x1="573.354" y1="1639.638" x2="523.354" y2="1639.638"/>
      <line x1="573.354" y1="1640.638" x2="523.354" y2="1640.638"/>
      <line x1="573.354" y1="1641.638" x2="523.354" y2="1641.638"/>
      <line x1="573.354" y1="1642.638" x2="523.354" y2="1642.638"/>
      <line x1="573.354" y1="1643.638" x2="523.354" y2="1643.638"/>
      <line x1="573.354" y1="1644.638" x2="523.354" y2="1644.638"/>
      <line x1="573.354" y1="1645.638" x2="523.354" y2="1645.638"/>
      <line x1="573.354" y1="1646.638" x2="523.354" y2="1646.638"/>
      <line x1="573.354" y1="1647.638" x2="523.354" y2="1647.638"/>
      <line x1="573.354" y1="1648.638" x2="523.354" y2="1648.638"/>
      <line x1="573.354" y1="1649.638" x2="523.354" y2="1649.638"/>
      <line x1="573.354" y1="1650.638" x2="523.354" y2="1650.638"/>
      <line x1="573.354" y1="1651.638" x2="523.354" y2="1651.638"/>
      <line x1="573.354" y1="1652.638" x2="523.354" y2="1652.638"/>
      <line x1="573.354" y1="1653.638" x2="523.354" y2="1653.638"/>
      <line x1="573.354" y1="1654.638" x2="523.354" y2="1654.638"/>
      <line x1="573.354" y1="1655.638" x2="523.354" y2="1655.638"/>
      <line x1="573.354" y1="1656.638" x2="523.354" y2="1656.638"/>
      <line x1="573.354" y1="1657.638" x2="523.354" y2="1657.638"/>
      <line x1="573.354" y1="1658.638" x2="523.354" y2="1658.638"/>
      <line x1="573.354" y1="1659.638" x2="523.354" y2="1659.638"/>
      <line x1="573.354" y1="1660.638" x2="523.354" y2="1660.638"/>
      <line x1="573.354" y1="1661.638" x2="523.354" y2="1661.638"/>
      <line x1="573.354" y1="1662.638" x2="523.354" y2="1662.638"/>
      <line x1="573.354" y1="1663.638" x2="523.354" y2="1663.638"/>
      <line x1="573.354" y1="1664.638" x2="523.354" y2="1664.638"/>
      <line x1="573.354" y1="1665.638" x2="523.354" y2="1665.638"/>
      <line x1="573.354" y1="1666.638" x2="523.354" y2="1666.638"/>
      <line x1="573.354" y1="1667.638" x2="523.354" y2="1667.638"/>
      <line x1="573.354" y1="1668.638" x2="523.354" y2="1668.638"/>
      <line x1="573.354" y1="1669.638" x2="523.354" y2="1669.638"/>
      <line x1="573.354" y1="1670.638" x2="523.354" y2="1670.638"/>
      <line x1="573.354" y1="1671.638" x2="523.354" y2="1671.638"/>
      <line x1="573.354" y1="1672.638" x2="523.354" y2="1672.638"/>
      <line x1="573.354" y1="1673.638" x2="523.354" y2="1673.638"/>
      <line x1="573.354" y1="1674.638" x2="523.354" y2="1674.638"/>
      <line x1="573.354" y1="1675.638" x2="523.354" y2="1675.638"/>
      <line x1="573.354" y1="1676.638" x2="523.354" y2="1676.638"/>
      <line x1="573.354" y1="1677.638" x2="523.354" y2="1677.638"/>
      <line x1="573.354" y1="1678.638" x2="523.354" y2="1678.638"/>
      <line x1="597.000" y1="1629.638" x2="573.454" y2="1629.638"/>
      <line x1="597.000" y1="1630.638" x2="573.454" y2="1630.638"/>
      <line x1="597.000" y1="1631.638" x2="573.454" y2="1631.638"/>
      <line x1="597.000" y1="1632.638" x2="573.454" y2="1632.638"/>
      <line x1="597.000" y1="1633.638" x2="573.454" y2="1633.638"/>
      <line x1="597.000" y1="1634.638" x2="573.454" y2="1634.638"/>
      <line x1="597.000" y1="1635.638" x2="573.454" y2="1635.638"/>
      <line x1="597.000" y1="1636.638" x2="573.454" y2="1636.638"/>
      <line x1="597.000" y1="1637.638" x2="573.454" y2="1637.638"/>
      <line x1="597.000" y1="1638.638" x2="573.454" y2="1638.638"/>
      <line x1="597.000" y1="1639.638" x2="573.454" y2="1639.638"/>
      <line x1="597.000" y1="1640.638" x2="573.454" y2="1640.638"/>
      <line x1="597.000" y1="1641.638" x2="573.454" y2="1641.638"/>
      <line x1="597.000" y1="1642.638" x2="573.454" y2="1642.638"/>
      <line x1="597.000" y1="1643.638" x2="573.454" y2="1643.638"/>
      <line x1="597.000" y1="1644.638" x2="573.454" y2="1644.638"/>
      <line x1="597.000" y1="1645.638" x2="573.454" y2="1645.638"/>
      <line x1="597.000" y1="1646.638" x2="573.454" y2="1646.638"/>
      <line x1="597.000" y1="1647.638" x2="573.454" y2="1647.638"/>
      <line x1="597.000" y1="1648.638" x2="573.454" y2="1648.638"/>
      <line x1="597.000" y1="1649.638" x2="573.454" y2="1649.638"/>
      <line x1="597.000" y1="1650.638" x2="573.454" y2="1650.638"/>
      <line x1="597.000" y1="1651.638" x2="573.454" y2="1651.638"/>
      <line x1="597.000" y1="1652.638" x2="573.454" y2="1652.638"/>
      <line x1="597.000" y1="1653.638" x2="573.454" y2="1653.638"/>
      <line x1="597.000" y1="1654.638" x2="573.454" y2="1654.638"/>
      <line x1="597.000" y1="1655.638" x2="573.454" y2="1655.638"/>
      <line x1="597.000" y1="1656.638" x2="573.454" y2="1656.638"/>
      <line x1="597.000" y1="1657.638" x2="573.454" y2="1657.638"/>
      <line x1="597.000" y1="1658.638" x2="573.454" y2="1658.638"/>
      <line x1="597.000" y1="1659.638" x2="573.454" y2="1659.638"/>
      <line x1="597.000" y1="1660.638" x2="573.454" y2="1660.638"/>
      <line x1="597.000" y1="1661.638" x2="573.454" y2="1661.638"/>
      <line x1="597.000" y1="1662.638" x2="573.454" y2="1662.638"/>
      <line x1="597.000" y1="1663.638" x2="573.454" y2="1663.638"/>
      <line x1="597.000" y1="1664.638" x2="573.454" y2="1664.638"/>
      <line x1="597.000" y1="1665.638" x2="573.454" y2="1665.638"/>
      <line x1="597.000" y1="1666.638" x2="573.454" y2="1666.638"/>
      <line x1="597.000" y1="1667.638" x2="573.454" y2="1667.638"/>
      <line x1="597.000" y1="1668.638" x2="573.454" y2="1668.638"/>
      <line x1="597.000" y1="1669.638" x2="573.454" y2="1669.638"/>
      <line x1="597.000" y1="1670.638" x2="573.454" y2="1670.638"/>
      <line x1="597.000" y1="1671.638" x2="573.454" y2="1671.638"/>
      <line x1="597.000" y1="1672.638" x2="573.454" y2="1672.638"/>
      <line x1="597.000" y1="1673.638" x2="573.454" y2="1673.638"/>
      <line x1="597.000" y1="1674.638" x2="573.454" y2="1674.638"/>
      <line x1="597.000" y1="1675.638" x2="573.454" y2="1675.638"/>
      <line x1="597.000" y1="1676.638" x2="573.454" y2="1676.638"/>
      <line x1="597.000" y1="1677.638" x2="573.454" y2="1677.638"/>
      <line x1="597.000" y1="1678.638" x2="573.454" y2="1678.638"/>
      <line x1="573.354" y1="1579.638" x2="523.354" y2="1579.638"/>
      <line x1="573.354" y1="1580.638" x2="523.354" y2="1580.638"/>
      <line x1="573.354" y1="1581.638" x2="523.354" y2="1581.638"/>
      <line x1="573.354" y1="1582.638" x2="523.354" y2="1582.638"/>
      <line x1="573.354" y1="1583.638" x2="523.354" y2="1583.638"/>
      <line x1="573.354" y1="1584.638" x2="523.354" y2="1584.638"/>
      <line x1="573.354" y1="1585.638" x2="523.354" y2="1585.638"/>
      <line x1="573.354" y1="1586.638" x2="523.354" y2="1586.638"/>
      <line x1="573.354" y1="1587.638" x2="523.354" y2="1587.638"/>
      <line x1="573.354" y1="1588.638" x2="523.354" y2="1588.638"/>
      <line x1="573.354" y1="1589.638" x2="523.354" y2="1589.638"/>
      <line x1="573.354" y1="1590.638" x2="523.354" y2="1590.638"/>
      <line x1="573.354" y1="1591.638" x2="523.354" y2="1591.638"/>
      <line x1="573.354" y1="1592.638" x2="523.354" y2="1592.638"/>
      <line x1="573.354" y1="1593.638" x2="523.354" y2="1593.638"/>
      <line x1="573.354" y1="1594.638" x2="523.354" y2="1594.638"/>
      <line x1="573.354" y1="1595.638" x2="523.354" y2="1595.638"/>
      <line x1="573.354" y1="1596.638" x2="523.354" y2="1596.638"/>
      <line x1="573.354" y1="1597.638" x2="523.354" y2="1597.638"/>
      <line x1="573.354" y1="1598.638" x2="523.354" y2="1598.638"/>
      <line x1="573.354" y1="1599.638" x2="523.354" y2="1599.638"/>
      <line x1="573.354" y1="1600.638" x2="523.354" y2="1600.638"/>
      <line x1="573.354" y1="1601.638" x2="523.354" y2="1601.638"/>
      <line x1="573.354" y1="1602.638" x2="523.354" y2="1602.638"/>
      <line x1="573.354" y1="1603.638" x2="523.354" y2="1603.638"/>
      <line x1="573.354" y1="1604.638" x2="523.354" y2="1604.638"/>
      <line x1="573.354" y1="1605.638" x2="523.354" y2="1605.638"/>
      <line x1="573.354" y1="1606.638" x2="523.354" y2="1606.638"/>
      <line x1="573.354" y1="1607.638" x2="523.354" y2="1607.638"/>
      <line x1="573.354" y1="1608.638" x2="523.354" y2="1608.638"/>
      <line x1="573.354" y1="1609.638" x2="523.354" y2="1609.638"/>
      <line x1="573.354" y1="1610.638" x2="523.354" y2="1610.638"/>
      <line x1="573.354" y1="1611.638" x2="523.354" y2="1611.638"/>
      <line x1="573.354" y1="1612.638" x2="523.354" y2="1612.638"/>
      <line x1="573.354" y1="1613.638" x2="523.354" y2="1613.638"/>
      <line x1="573.354" y1="1614.638" x2="523.354" y2="1614.638"/>
      <line x1="573.354" y1="1615.638" x2="523.354" y2="1615.638"/>
      <line x1="573.354" y1="1616.638" x2="523.354" y2="1616.638"/>
      <line x1="573.354" y1="1617.638" x2="523.354" y2="1617.638"/>
      <line x1="573.354" y1="1618.638" x2="523.354" y2="1618.638"/>
      <line x1="573.354" y1="1619.638" x2="523.354" y2="1619.638"/>
      <line x1="573.354" y1="1620.638" x2="523.354" y2="1620.638"/>
      <line x1="573.354" y1="1621.638" x2="523.354" y2="1621.638"/>
      <line x1="573.354" y1="1622.638" x2="523.354" y2="1622.638"/>
      <line x1="573.354" y1="1623.638" x2="523.354" y2="1623.638"/>
      <line x1="573.354" y1="1624.638" x2="523.354" y2="1624.638"/>
      <line x1="573.354" y1="1625.638" x2="523.354" y2="1625.638"/>
      <line x1="573.354" y1="1626.638" x2="523.354" y2="1626.638"/>
      <line x1="573.354" y1="1627.638" x2="523.354" y2="1627.638"/>
      <line x1="573.354" y1="1628.638" x2="523.354" y2="1628.638"/>
      <line x1="597.000" y1="1579.638" x2="573.454" y2="1579.638"/>
      <line x1="597.000" y1="1580.638" x2="573.454" y2="1580.638"/>
      <line x1="597.000" y1="1581.638" x2="573.454" y2="1581.638"/>
      <line x1="597.000" y1="1582.638" x2="573.454" y2="1582.638"/>
      <line x1="597.000" y1="1583.638" x2="573.454" y2="1583.638"/>
      <line x1="597.000" y1="1584.638" x2="573.454" y2="1584.638"/>
      <line x1="597.000" y1="1585.638" x2="573.454" y2="1585.638"/>
      <line x1="597.000" y1="1586.638" x2="573.454" y2="1586.638"/>
      <line x1="597.000" y1="1587.638" x2="573.454" y2="1587.638"/>
      <line x1="597.000" y1="1588.638" x2="573.454" y2="1588.638"/>
      <line x1="597.000" y1="1589.638" x2="573.454" y2="1589.638"/>
      <line x1="597.000" y1="1590.638" x2="573.454" y2="1590.638"/>
      <line x1="597.000" y1="1591.638" x2="573.454" y2="1591.638"/>
      <line x1="597.000" y1="1592.638" x2="573.454" y2="1592.638"/>
      <line x1="597.000" y1="1593.638" x2="573.454" y2="1593.638"/>
      <line x1="597.000" y1="1594.638" x2="573.454" y2="1594.638"/>
      <line x1="597.000" y1="1595.638" x2="573.454" y2="1595.638"/>
      <line x1="597.000" y1="1596.638" x2="573.454" y2="1596.638"/>
      <line x1="597.000" y1="1597.638" x2="573.454" y2="1597.638"/>
      <line x1="597.000" y1="1598.638" x2="573.454" y2="1598.638"/>
      <line x1="597.000" y1="1599.638" x2="573.454" y2="1599.638"/>
      <line x1="597.000" y1="1600.638" x2="573.454" y2="1600.638"/>
      <line x1="597.000" y1="1601.638" x2="573.454" y2="1601.638"/>
      <line x1="597.000" y1="1602.638" x2="573.454" y2="1602.638"/>
      <line x1="597.000" y1="1603.638" x2="573.454" y2="1603.638"/>
      <line x1="597.000" y1="1604.638" x2="573.454" y2="1604.638"/>
      <line x1="597.000" y1="1605.638" x2="573.454" y2="1605.638"/>
      <line x1="597.000" y1="1606.638" x2="573.454" y2="1606.638"/>
      <line x1="597.000" y1="1607.638" x2="573.454" y2="1607.638"/>
      <line x1="597.000" y1="1608.638" x2="573.454" y2="1608.638"/>
      <line x1="597.000" y1="1609.638" x2="573.454" y2="1609.638"/>
      <line x1="597.000" y1="1610.638" x2="573.454" y2="1610.638"/>
      <line x1="597.000" y1="1611.638" x2="573.454" y2="1611.638"/>
      <line x1="597.000" y1="1612.638" x2="573.454" y2="1612.638"/>
      <line x1="597.000" y1="1613.638" x2="573.454" y2="1613.638"/>
      <line x1="597.000" y1="1614.638" x2="573.454" y2="1614.638"/>
      <line x1="597.000" y1="1615.638" x2="573.454" y2="1615.638"/>
      <line x1="597.000" y1="1616.638" x2="573.454" y2="1616.638"/>
      <line x1="597.000" y1="1617.638" x2="573.454" y2="1617.638"/>
      <line x1="597.000" y1="1618.638" x2="573.454" y2="1618.638"/>
      <line x1="597.000" y1="1619.638" x2="573.454" y2="1619.638"/>
      <line x1="597.000" y1="1620.638" x2="573.454" y2="1620.638"/>
      <line x1="597.000" y1="1621.638" x2="573.454" y2="1621.638"/>
      <line x1="597.000" y1="1622.638" x2="573.454" y2="1622.638"/>
      <line x1="597.000" y1="1623.638" x2="573.454" y2="1623.638"/>
      <line x1="597.000" y1="1624.638" x2="573.454" y2="1624.638"/>
      <line x1="597.000" y1="1625.638" x2="573.454" y2="1625.638"/>
      <line x1="597.000" y1="1626.638" x2="573.454" y2="1626.638"/>
      <line x1="597.000" y1="1627.638" x2="573.454" y2="1627.638"/>
      <line x1="597.000" y1="1628.638" x2="573.454" y2="1628.638"/>
      <line x1="573.354" y1="1529.638" x2="523.354" y2="1529.638"/>
      <line x1="573.354" y1="1530.638" x2="523.354" y2="1530.638"/>
      <line x1="573.354" y1="1531.638" x2="523.354" y2="1531.638"/>
      <line x1="573.354" y1="1532.638" x2="523.354" y2="1532.638"/>
      <line x1="573.354" y1="1533.638" x2="523.354" y2="1533.638"/>
      <line x1="573.354" y1="1534.638" x2="523.354" y2="1534.638"/>
      <line x1="573.354" y1="1535.638" x2="523.354" y2="1535.638"/>
      <line x1="573.354" y1="1536.638" x2="523.354" y2="1536.638"/>
      <line x1="573.354" y1="1537.638" x2="523.354" y2="1537.638"/>
      <line x1="573.354" y1="1538.638" x2="523.354" y2="1538.638"/>
      <line x1="573.354" y1="1539.638" x2="523.354" y2="1539.638"/>
      <line x1="573.354" y1="1540.638" x2="523.354" y2="1540.638"/>
      <line x1="573.354" y1="1541.638" x2="523.354" y2="1541.638"/>
      <line x1="573.354" y1="1542.638" x2="523.354" y2="1542.638"/>
      <line x1="573.354" y1="1543.638" x2="523.354" y2="1543.638"/>
      <line x1="573.354" y1="1544.638" x2="523.354" y2="1544.638"/>
      <line x1="573.354" y1="1545.638" x2="523.354" y2="1545.638"/>
      <line x1="573.354" y1="1546.638" x2="523.354" y2="1546.638"/>
      <line x1="573.354" y1="1547.638" x2="523.354" y2="1547.638"/>
      <line x1="573.354" y1="1548.638" x2="523.354" y2="1548.638"/>
      <line x1="573.354" y1="1549.638" x2="523.354" y2="1549.638"/>
      <line x1="573.354" y1="1550.638" x2="523.354" y2="1550.638"/>
      <line x1="573.354" y1="1551.638" x2="523.354" y2="1551.638"/>
      <line x1="573.354" y1="1552.638" x2="523.354" y2="1552.638"/>
      <line x1="573.354" y1="1553.638" x2="523.354" y2="1553.638"/>
      <line x1="573.354" y1="1554.638" x2="523.354" y2="1554.638"/>
      <line x1="573.354" y1="1555.638" x2="523.354" y2="1555.638"/>
      <line x1="573.354" y1="1556.638" x2="523.354" y2="1556.638"/>
      <line x1="573.354" y1="1557.638" x2="523.354" y2="1557.638"/>
      <line x1="573.354" y1="1558.638" x2="523.354" y2="1558.638"/>
      <line x1="573.354" y1="1559.638" x2="523.354" y2="1559.638"/>
      <line x1="573.354" y1="1560.638" x2="523.354" y2="1560.638"/>
      <line x1="573.354" y1="1561.638" x2="523.354" y2="1561.638"/>
      <line x1="573.354" y1="1562.638" x2="523.354" y2="1562.638"/>
      <line x1="573.354" y1="1563.638" x2="523.354" y2="1563.638"/>
      <line x1="573.354" y1="1564.638" x2="523.354" y2="1564.638"/>
      <line x1="573.354" y1="1565.638" x2="523.354" y2="1565.638"/>
      <line x1="573.354" y1="1566.638" x2="523.354" y2="1566.638"/>
      <line x1="573.354" y1="1567.638" x2="523.354" y2="1567.638"/>
      <line x1="573.354" y1="1568.638" x2="523.354" y2="1568.638"/>
      <line x1="573.354" y1="1569.638" x2="523.354" y2="1569.638"/>
      <line x1="573.354" y1="1570.638" x2="523.354" y2="1570.638"/>
      <line x1="573.354" y1="1571.638" x2="523.354" y2="1571.638"/>
      <line x1="573.354" y1="1572.638" x2="523.354" y2="1572.638"/>
      <line x1="573.354" y1="1573.638" x2="523.354" y2="1573.638"/>
      <line x1="573.354" y1="1574.638" x2="523.354" y2="1574.638"/>
      <line x1="573.354" y1="1575.638" x2="523.354" y2="1575.638"/>
      <line x1="573.354" y1="1576.638" x2="523.354" y2="1576.638"/>
      <line x1="573.354" y1="1577.638" x2="523.354" y2="1577.638"/>
      <line x1="573.354" y1="1578.638" x2="523.354" y2="1578.638"/>
      <line x1="597.000" y1="1529.638" x2="573.454" y2="1529.638"/>
      <line x1="597.000" y1="1530.638" x2="573.454" y2="1530.638"/>
      <line x1="597.000" y1="1531.638" x2="573.454" y2="1531.638"/>
      <line x1="597.000" y1="1532.638" x2="573.454" y2="1532.638"/>
      <line x1="597.000" y1="1533.638" x2="573.454" y2="1533.638"/>
      <line x1="597.000" y1="1534.638" x2="573.454" y2="1534.638"/>
      <line x1="597.000" y1="1535.638" x2="573.454" y2="1535.638"/>
      <line x1="597.000" y1="1536.638" x2="573.454" y2="1536.638"/>
      <line x1="597.000" y1="1537.638" x2="573.454" y2="1537.638"/>
      <line x1="597.000" y1="1538.638" x2="573.454" y2="1538.638"/>
      <line x1="597.000" y1="1539.638" x2="573.454" y2="1539.638"/>
      <line x1="597.000" y1="1540.638" x2="573.454" y2="1540.638"/>
      <line x1="597.000" y1="1541.638" x2="573.454" y2="1541.638"/>
      <line x1="597.000" y1="1542.638" x2="573.454" y2="1542.638"/>
      <line x1="597.000" y1="1543.638" x2="573.454" y2="1543.638"/>
      <line x1="597.000" y1="1544.638" x2="573.454" y2="1544.638"/>
      <line x1="597.000" y1="1545.638" x2="573.454" y2="1545.638"/>
      <line x1="597.000" y1="1546.638" x2="573.454" y2="1546.638"/>
      <line x1="597.000" y1="1547.638" x2="573.454" y2="1547.638"/>
      <line x1="597.000" y1="1548.638" x2="573.454" y2="1548.638"/>
      <line x1="597.000" y1="1549.638" x2="573.454" y2="1549.638"/>
      <line x1="597.000" y1="1550.638" x2="573.454" y2="1550.638"/>
      <line x1="597.000" y1="1551.638" x2="573.454" y2="1551.638"/>
      <line x1="597.000" y1="1552.638" x2="573.454" y2="1552.638"/>
      <line x1="597.000" y1="1553.638" x2="573.454" y2="1553.638"/>
      <line x1="597.000" y1="1554.638" x2="573.454" y2="1554.638"/>
      <line x1="597.000" y1="1555.638" x2="573.454" y2="1555.638"/>
      <line x1="597.000" y1="1556.638" x2="573.454" y2="1556.638"/>
      <line x1="597.000" y1="1557.638" x2="573.454" y2="1557.638"/>
      <line x1="597.000" y1="1558.638" x2="573.454" y2="1558.638"/>
      <line x1="597.000" y1="1559.638" x2="573.454" y2="1559.638"/>
      <line x1="597.000" y1="1560.638" x2="573.454" y2="1560.638"/>
      <line x1="597.000" y1="1561.638" x2="573.454" y2="1561.638"/>
      <line x1="597.000" y1="1562.638" x2="573.454" y2="1562.638"/>
      <line x1="597.000" y1="1563.638" x2="573.454" y2="1563.638"/>
      <line x1="597.000" y1="1564.638" x2="573.454" y2="1564.638"/>
      <line x1="597.000" y1="1565.638" x2="573.454" y2="1565.638"/>
      <line x1="597.000" y1="1566.638" x2="573.454" y2="1566.638"/>
      <line x1="597.000" y1="1567.638" x2="573.454" y2="1567.638"/>
      <line x1="597.000" y1="1568.638" x2="573.454" y2="1568.638"/>
      <line x1="597.000" y1="1569.638" x2="573.454" y2="1569.638"/>
      <line x1="597.000" y1="1570.638" x2="573.454" y2="1570.638"/>
      <line x1="597.000" y1="1571.638" x2="573.454" y2="1571.638"/>
      <line x1="597.000" y1="1572.638" x2="573.454" y2="1572.638"/>
      <line x1="597.000" y1="1573.638" x2="573.454" y2="1573.638"/>
      <line x1="597.000" y1="1574.638" x2="573.454" y2="1574.638"/>
      <line x1="597.000" y1="1575.638" x2="573.454" y2="1575.638"/>
      <line x1="597.000" y1="1576.638" x2="573.454" y2="1576.638"/>
      <line x1="597.000" y1="1577.638" x2="573.454" y2="1577.638"/>
      <line x1="597.000" y1="1578.638" x2="573.454" y2="1578.638"/>
      <line x1="573.354" y1="1525.638" x2="523.354" y2="1525.638"/>
      <line x1="573.354" y1="1526.638" x2="523.354" y2="1526.638"/>
      <line x1="573.354" y1="1527.638" x2="523.354" y2="1527.638"/>
      <line x1="573.354" y1="1528.638" x2="523.354" y2="1528.638"/>
      <line x1="597.000" y1="1525.638" x2="573.454" y2="1525.638"/>
      <line x1="597.000" y1="1526.638" x2="573.454" y2="1526.638"/>
      <line x1="597.000" y1="1527.638" x2="573.454" y2="1527.638"/>
      <line x1="597.000" y1="1528.638" x2="573.454" y2="1528.638"/>
      <line x1="53.000" y1="1629.638" x2="3.000" y2="1629.638"/>
      <line x1="53.000" y1="1630.638" x2="3.000" y2="1630.638"/>
      <line x1="53.000" y1="1631.638" x2="3.000" y2="1631.638"/>
      <line x1="53.000" y1="1632.638" x2="3.000" y2="1632.638"/>
      <line x1="53.000" y1="1633.638" x2="3.000" y2="1633.638"/>
      <line x1="53.000" y1="1634.638" x2="3.000" y2="1634.638"/>
      <line x1="53.000" y1="1635.638" x2="3.000" y2="1635.638"/>
      <line x1="53.000" y1="1636.638" x2="3.000" y2="1636.638"/>
      <line x1="53.000" y1="1637.638" x2="3.000" y2="1637.638"/>
      <line x1="53.000" y1="1638.638" x2="3.000" y2="1638.638"/>
      <line x1="53.000" y1="1639.638" x2="3.000" y2="1639.638"/>
      <line x1="53.000" y1="1640.638" x2="3.000" y2="1640.638"/>
      <line x1="53.000" y1="1641.638" x2="3.000" y2="1641.638"/>
      <line x1="53.000" y1="1642.638" x2="3.000" y2="1642.638"/>
      <line x1="53.000" y1="1643.638" x2="3.000" y2="1643.638"/>
      <line x1="53.000" y1="1644.638" x2="3.000" y2="1644.638"/>
      <line x1="53.000" y1="1645.638" x2="3.000" y2="1645.638"/>
      <line x1="53.000" y1="1646.638" x2="3.000" y2="1646.638"/>
      <line x1="53.000" y1="1647.638" x2="3.000" y2="1647.638"/>
      <line x1="53.000" y1="1648.638" x2="3.000" y2="1648.638"/>
      <line x1="53.000" y1="1649.638" x2="3.000" y2="1649.638"/>
      <line x1="53.000" y1="1650.638" x2="3.000" y2="1650.638"/>
      <line x1="53.000" y1="1651.638" x2="3.000" y2="1651.638"/>
      <line x1="53.000" y1="1652.638" x2="3.000" y2="1652.638"/>
      <line x1="53.000" y1="1653.638" x2="3.000" y2="1653.638"/>
      <line x1="53.000" y1="1654.638" x2="3.000" y2="1654.638"/>
      <line x1="53.000" y1="1655.638" x2="3.000" y2="1655.638"/>
      <line x1="53.000" y1="1656.638" x2="3.000" y2="1656.638"/>
      <line x1="53.000" y1="1657.638" x2="3.000" y2="1657.638"/>
      <line x1="53.000" y1="1658.638" x2="3.000" y2="1658.638"/>
      <line x1="53.000" y1="1659.638" x2="3.000" y2="1659.638"/>
      <line x1="53.000" y1="1660.638" x2="3.000" y2="1660.638"/>
      <line x1="53.000" y1="1661.638" x2="3.000" y2="1661.638"/>
      <line x1="53.000" y1="1662.638" x2="3.000" y2="1662.638"/>
      <line x1="53.000" y1="1663.638" x2="3.000" y2="1663.638"/>
      <line x1="53.000" y1="1664.638" x2="3.000" y2="1664.638"/>
      <line x1="53.000" y1="1665.638" x2="3.000" y2="1665.638"/>
      <line x1="53.000" y1="1666.638" x2="3.000" y2="1666.638"/>
      <line x1="53.000" y1="1667.638" x2="3.000" y2="1667.638"/>
      <line x1="53.000" y1="1668.638" x2="3.000" y2="1668.638"/>
      <line x1="53.000" y1="1669.638" x2="3.000" y2="1669.638"/>
      <line x1="53.000" y1="1670.638" x2="3.000" y2="1670.638"/>
      <line x1="53.000" y1="1671.638" x2="3.000" y2="1671.638"/>
      <line x1="53.000" y1="1672.638" x2="3.000" y2="1672.638"/>
      <line x1="53.000" y1="1673.638" x2="3.000" y2="1673.638"/>
      <line x1="53.000" y1="1674.638" x2="3.000" y2="1674.638"/>
      <line x1="53.000" y1="1675.638" x2="3.000" y2="1675.638"/>
      <line x1="53.000" y1="1676.638" x2="3.000" y2="1676.638"/>
      <line x1="53.000" y1="1677.638" x2="3.000" y2="1677.638"/>
      <line x1="53.000" y1="1678.638" x2="3.000" y2="1678.638"/>
      <line x1="76.646" y1="1629.638" x2="53.100" y2="1629.638"/>
      <line x1="76.646" y1="1630.638" x2="53.100" y2="1630.638"/>
      <line x1="76.646" y1="1631.638" x2="53.100" y2="1631.638"/>
      <line x1="76.646" y1="1632.638" x2="53.100" y2="1632.638"/>
      <line x1="76.646" y1="1633.638" x2="53.100" y2="1633.638"/>
      <line x1="76.646" y1="1634.638" x2="53.100" y2="1634.638"/>
      <line x1="76.646" y1="1635.638" x2="53.100" y2="1635.638"/>
      <line x1="76.646" y1="1636.638" x2="53.100" y2="1636.638"/>
      <line x1="76.646" y1="1637.638" x2="53.100" y2="1637.638"/>
      <line x1="76.646" y1="1638.638" x2="53.100" y2="1638.638"/>
      <line x1="76.646" y1="1639.638" x2="53.100" y2="1639.638"/>
      <line x1="76.646" y1="1640.638" x2="53.100" y2="1640.638"/>
      <line x1="76.646" y1="1641.638" x2="53.100" y2="1641.638"/>
      <line x1="76.646" y1="1642.638" x2="53.100" y2="1642.638"/>
      <line x1="76.646" y1="1643.638" x2="53.100" y2="1643.638"/>
      <line x1="76.646" y1="1644.638" x2="53.100" y2="1644.638"/>
      <line x1="76.646" y1="1645.638" x2="53.100" y2="1645.638"/>
      <line x1="76.646" y1="1646.638" x2="53.100" y2="1646.638"/>
      <line x1="76.646" y1="1647.638" x2="53.100" y2="1647.638"/>
      <line x1="76.646" y1="1648.638" x2="53.100" y2="1648.638"/>
      <line x1="76.646" y1="1649.638" x2="53.100" y2="1649.638"/>
      <line x1="76.646" y1="1650.638" x2="53.100" y2="1650.638"/>
      <line x1="76.646" y1="1651.638" x2="53.100" y2="1651.638"/>
      <line x1="76.646" y1="1652.638" x2="53.100" y2="1652.638"/>
      <line x1="76.646" y1="1653.638" x2="53.100" y2="1653.638"/>
      <line x1="76.646" y1="1654.638" x2="53.100" y2="1654.638"/>
      <line x1="76.646" y1="1655.638" x2="53.100" y2="1655.638"/>
      <line x1="76.646" y1="1656.638" x2="53.100" y2="1656.638"/>
      <line x1="76.646" y1="1657.638" x2="53.100" y2="1657.638"/>
      <line x1="76.646" y1="1658.638" x2="53.100" y2="1658.638"/>
      <line x1="76.646" y1="1659.638" x2="53.100" y2="1659.638"/>
      <line x1="76.646" y1="1660.638" x2="53.100" y2="1660.638"/>
      <line x1="76.646" y1="1661.638" x2="53.100" y2="1661.638"/>
      <line x1="76.646" y1="1662.638" x2="53.100" y2="1662.638"/>
      <line x1="76.646" y1="1663.638" x2="53.100" y2="1663.638"/>
      <line x1="76.646" y1="1664.638" x2="53.100" y2="1664.638"/>
      <line x1="76.646" y1="1665.638" x2="53.100" y2="1665.638"/>
      <line x1="76.646" y1="1666.638" x2="53.100" y2="1666.638"/>
      <line x1="76.646" y1="1667.638" x2="53.100" y2="1667.638"/>
      <line x1="76.646" y1="1668.638" x2="53.100" y2="1668.638"/>
      <line x1="76.646" y1="1669.638" x2="53.100" y2="1669.638"/>
      <line x1="76.646" y1="1670.638" x2="53.100" y2="1670.638"/>
      <line x1="76.646" y1="1671.638" x2="53.100" y2="1671.638"/>
      <line x1="76.646" y1="1672.638" x2="53.100" y2="1672.638"/>
      <line x1="76.646" y1="1673.638" x2="53.100" y2="1673.638"/>
      <line x1="76.646" y1="1674.638" x2="53.100" y2="1674.638"/>
      <line x1="76.646" y1="1675.638" x2="53.100" y2="1675.638"/>
      <line x1="76.646" y1="1676.638" x2="53.100" y2="1676.638"/>
      <line x1="76.646" y1="1677.638" x2="53.100" y2="1677.638"/>
      <line x1="76.646" y1="1678.638" x2="53.100" y2="1678.638"/>
      <line x1="53.000" y1="1579.638" x2="3.000" y2="1579.638"/>
      <line x1="53.000" y1="1580.638" x2="3.000" y2="1580.638"/>
      <line x1="53.000" y1="1581.638" x2="3.000" y2="1581.638"/>
      <line x1="53.000" y1="1582.638" x2="3.000" y2="1582.638"/>
      <line x1="53.000" y1="1583.638" x2="3.000" y2="1583.638"/>
      <line x1="53.000" y1="1584.638" x2="3.000" y2="1584.638"/>
      <line x1="53.000" y1="1585.638" x2="3.000" y2="1585.638"/>
      <line x1="53.000" y1="1586.638" x2="3.000" y2="1586.638"/>
      <line x1="53.000" y1="1587.638" x2="3.000" y2="1587.638"/>
      <line x1="53.000" y1="1588.638" x2="3.000" y2="1588.638"/>
      <line x1="53.000" y1="1589.638" x2="3.000" y2="1589.638"/>
      <line x1="53.000" y1="1590.638" x2="3.000" y2="1590.638"/>
      <line x1="53.000" y1="1591.638" x2="3.000" y2="1591.638"/>
      <line x1="53.000" y1="1592.638" x2="3.000" y2="1592.638"/>
      <line x1="53.000" y1="1593.638" x2="3.000" y2="1593.638"/>
      <line x1="53.000" y1="1594.638" x2="3.000" y2="1594.638"/>
      <line x1="53.000" y1="1595.638" x2="3.000" y2="1595.638"/>
      <line x1="53.000" y1="1596.638" x2="3.000" y2="1596.638"/>
      <line x1="53.000" y1="1597.638" x2="3.000" y2="1597.638"/>
      <line x1="53.000" y1="1598.638" x2="3.000" y2="1598.638"/>
      <line x1="53.000" y1="1599.638" x2="3.000" y2="1599.638"/>
      <line x1="53.000" y1="1600.638" x2="3.000" y2="1600.638"/>
      <line x1="53.000" y1="1601.638" x2="3.000" y2="1601.638"/>
      <line x1="53.000" y1="1602.638" x2="3.000" y2="1602.638"/>
      <line x1="53.000" y1="1603.638" x2="3.000" y2="1603.638"/>
      <line x1="53.000" y1="1604.638" x2="3.000" y2="1604.638"/>
      <line x1="53.000" y1="1605.638" x2="3.000" y2="1605.638"/>
      <line x1="53.000" y1="1606.638" x2="3.000" y2="1606.638"/>
      <line x1="53.000" y1="1607.638" x2="3.000" y2="1607.638"/>
      <line x1="53.000" y1="1608.638" x2="3.000" y2="1608.638"/>
      <line x1="53.000" y1="1609.638" x2="3.000" y2="1609.638"/>
      <line x1="53.000" y1="1610.638" x2="3.000" y2="1610.638"/>
      <line x1="53.000" y1="1611.638" x2="3.000" y2="1611.638"/>
      <line x1="53.000" y1="1612.638" x2="3.000" y2="1612.638"/>
      <line x1="53.000" y1="1613.638" x2="3.000" y2="1613.638"/>
      <line x1="53.000" y1="1614.638" x2="3.000" y2="1614.638"/>
      <line x1="53.000" y1="1615.638" x2="3.000" y2="1615.638"/>
      <line x1="53.000" y1="1616.638" x2="3.000" y2="1616.638"/>
      <line x1="53.000" y1="1617.638" x2="3.000" y2="1617.638"/>
      <line x1="53.000" y1="1618.638" x2="3.000" y2="1618.638"/>
      <line x1="53.000" y1="1619.638" x2="3.000" y2="1619.638"/>
      <line x1="53.000" y1="1620.638" x2="3.000" y2="1620.638"/>
      <line x1="53.000" y1="1621.638" x2="3.000" y2="1621.638"/>
      <line x1="53.000" y1="1622.638" x2="3.000" y2="1622.638"/>
      <line x1="53.000" y1="1623.638" x2="3.000" y2="1623.638"/>
      <line x1="53.000" y1="1624.638" x2="3.000" y2="1624.638"/>
      <line x1="53.000" y1="1625.638" x2="3.000" y2="1625.638"/>
      <line x1="53.000" y1="1626.638" x2="3.000" y2="1626.638"/>
      <line x1="53.000" y1="1627.638" x2="3.000" y2="1627.638"/>
      <line x1="53.000" y1="1628.638" x2="3.000" y2="1628.638"/>
      <line x1="76.646" y1="1579.638" x2="53.100" y2="1579.638"/>
      <line x1="76.646" y1="1580.638" x2="53.100" y2="1580.638"/>
      <line x1="76.646" y1="1581.638" x2="53.100" y2="1581.638"/>
      <line x1="76.646" y1="1582.638" x2="53.100" y2="1582.638"/>
      <line x1="76.646" y1="1583.638" x2="53.100" y2="1583.638"/>
      <line x1="76.646" y1="1584.638" x2="53.100" y2="1584.638"/>
      <line x1="76.646" y1="1585.638" x2="53.100" y2="1585.638"/>
      <line x1="76.646" y1="1586.638" x2="53.100" y2="1586.638"/>
      <line x1="76.646" y1="1587.638" x2="53.100" y2="1587.638"/>
      <line x1="76.646" y1="1588.638" x2="53.100" y2="1588.638"/>
      <line x1="76.646" y1="1589.638" x2="53.100" y2="1589.638"/>
      <line x1="76.646" y1="1590.638" x2="53.100" y2="1590.638"/>
      <line x1="76.646" y1="1591.638" x2="53.100" y2="1591.638"/>
      <line x1="76.646" y1="1592.638" x2="53.100" y2="1592.638"/>
      <line x1="76.646" y1="1593.638" x2="53.100" y2="1593.638"/>
      <line x1="76.646" y1="1594.638" x2="53.100" y2="1594.638"/>
      <line x1="76.646" y1="1595.638" x2="53.100" y2="1595.638"/>
      <line x1="76.646" y1="1596.638" x2="53.100" y2="1596.638"/>
      <line x1="76.646" y1="1597.638" x2="53.100" y2="1597.638"/>
      <line x1="76.646" y1="1598.638" x2="53.100" y2="1598.638"/>
      <line x1="76.646" y1="1599.638" x2="53.100" y2="1599.638"/>
      <line x1="76.646" y1="1600.638" x2="53.100" y2="1600.638"/>
      <line x1="76.646" y1="1601.638" x2="53.100" y2="1601.638"/>
      <line x1="76.646" y1="1602.638" x2="53.100" y2="1602.638"/>
      <line x1="76.646" y1="1603.638" x2="53.100" y2="1603.638"/>
      <line x1="76.646" y1="1604.638" x2="53.100" y2="1604.638"/>
      <line x1="76.646" y1="1605.638" x2="53.100" y2="1605.638"/>
      <line x1="76.646" y1="1606.638" x2="53.100" y2="1606.638"/>
      <line x1="76.646" y1="1607.638" x2="53.100" y2="1607.638"/>
      <line x1="76.646" y1="1608.638" x2="53.100" y2="1608.638"/>
      <line x1="76.646" y1="1609.638" x2="53.100" y2="1609.638"/>
      <line x1="76.646" y1="1610.638" x2="53.100" y2="1610.638"/>
      <line x1="76.646" y1="1611.638" x2="53.100" y2="1611.638"/>
      <line x1="76.646" y1="1612.638" x2="53.100" y2="1612.638"/>
      <line x1="76.646" y1="1613.638" x2="53.100" y2="1613.638"/>
      <line x1="76.646" y1="1614.638" x2="53.100" y2="1614.638"/>
      <line x1="76.646" y1="1615.638" x2="53.100" y2="1615.638"/>
      <line x1="76.646" y1="1616.638" x2="53.100" y2="1616.638"/>
      <line x1="76.646" y1="1617.638" x2="53.100" y2="1617.638"/>
      <line x1="76.646" y1="1618.638" x2="53.100" y2="1618.638"/>
      <line x1="76.646" y1="1619.638" x2="53.100" y2="1619.638"/>
      <line x1="76.646" y1="1620.638" x2="53.100" y2="1620.638"/>
      <line x1="76.646" y1="1621.638" x2="53.100" y2="1621.638"/>
      <line x1="76.646" y1="1622.638" x2="53.100" y2="1622.638"/>
      <line x1="76.646" y1="1623.638" x2="53.100" y2="1623.638"/>
      <line x1="76.646" y1="1624.638" x2="53.100" y2="1624.638"/>
      <line x1="76.646" y1="1625.638" x2="53.100" y2="1625.638"/>
      <line x1="76.646" y1="1626.638" x2="53.100" y2="1626.638"/>
      <line x1="76.646" y1="1627.638" x2="53.100" y2="1627.638"/>
      <line x1="76.646" y1="1628.638" x2="53.100" y2="1628.638"/>
      <line x1="53.000" y1="1529.638" x2="3.000" y2="1529.638"/>
      <line x1="53.000" y1="1530.638" x2="3.000" y2="1530.638"/>
      <line x1="53.000" y1="1531.638" x2="3.000" y2="1531.638"/>
      <line x1="53.000" y1="1532.638" x2="3.000" y2="1532.638"/>
      <line x1="53.000" y1="1533.638" x2="3.000" y2="1533.638"/>
      <line x1="53.000" y1="1534.638" x2="3.000" y2="1534.638"/>
      <line x1="53.000" y1="1535.638" x2="3.000" y2="1535.638"/>
      <line x1="53.000" y1="1536.638" x2="3.000" y2="1536.638"/>
      <line x1="53.000" y1="1537.638" x2="3.000" y2="1537.638"/>
      <line x1="53.000" y1="1538.638" x2="3.000" y2="1538.638"/>
      <line x1="53.000" y1="1539.638" x2="3.000" y2="1539.638"/>
      <line x1="53.000" y1="1540.638" x2="3.000" y2="1540.638"/>
      <line x1="53.000" y1="1541.638" x2="3.000" y2="1541.638"/>
      <line x1="53.000" y1="1542.638" x2="3.000" y2="1542.638"/>
      <line x1="53.000" y1="1543.638" x2="3.000" y2="1543.638"/>
      <line x1="53.000" y1="1544.638" x2="3.000" y2="1544.638"/>
      <line x1="53.000" y1="1545.638" x2="3.000" y2="1545.638"/>
      <line x1="53.000" y1="1546.638" x2="3.000" y2="1546.638"/>
      <line x1="53.000" y1="1547.638" x2="3.000" y2="1547.638"/>
      <line x1="53.000" y1="1548.638" x2="3.000" y2="1548.638"/>
      <line x1="53.000" y1="1549.638" x2="3.000" y2="1549.638"/>
      <line x1="53.000" y1="1550.638" x2="3.000" y2="1550.638"/>
      <line x1="53.000" y1="1551.638" x2="3.000" y2="1551.638"/>
      <line x1="53.000" y1="1552.638" x2="3.000" y2="1552.638"/>
      <line x1="53.000" y1="1553.638" x2="3.000" y2="1553.638"/>
      <line x1="53.000" y1="1554.638" x2="3.000" y2="1554.638"/>
      <line x1="53.000" y1="1555.638" x2="3.000" y2="1555.638"/>
      <line x1="53.000" y1="1556.638" x2="3.000" y2="1556.638"/>
      <line x1="53.000" y1="1557.638" x2="3.000" y2="1557.638"/>
      <line x1="53.000" y1="1558.638" x2="3.000" y2="1558.638"/>
      <line x1="53.000" y1="1559.638" x2="3.000" y2="1559.638"/>
      <line x1="53.000" y1="1560.638" x2="3.000" y2="1560.638"/>
      <line x1="53.000" y1="1561.638" x2="3.000" y2="1561.638"/>
      <line x1="53.000" y1="1562.638" x2="3.000" y2="1562.638"/>
      <line x1="53.000" y1="1563.638" x2="3.000" y2="1563.638"/>
      <line x1="53.000" y1="1564.638" x2="3.000" y2="1564.638"/>
      <line x1="53.000" y1="1565.638" x2="3.000" y2="1565.638"/>
      <line x1="53.000" y1="1566.638" x2="3.000" y2="1566.638"/>
      <line x1="53.000" y1="1567.638" x2="3.000" y2="1567.638"/>
      <line x1="53.000" y1="1568.638" x2="3.000" y2="1568.638"/>
      <line x1="53.000" y1="1569.638" x2="3.000" y2="1569.638"/>
      <line x1="53.000" y1="1570.638" x2="3.000" y2="1570.638"/>
      <line x1="53.000" y1="1571.638" x2="3.000" y2="1571.638"/>
      <line x1="53.000" y1="1572.638" x2="3.000" y2="1572.638"/>
      <line x1="53.000" y1="1573.638" x2="3.000" y2="1573.638"/>
      <line x1="53.000" y1="1574.638" x2="3.000" y2="1574.638"/>
      <line x1="53.000" y1="1575.638" x2="3.000" y2="1575.638"/>
      <line x1="53.000" y1="1576.638" x2="3.000" y2="1576.638"/>
      <line x1="53.000" y1="1577.638" x2="3.000" y2="1577.638"/>
      <line x1="53.000" y1="1578.638" x2="3.000" y2="1578.638"/>
      <line x1="76.646" y1="1529.638" x2="53.100" y2="1529.638"/>
      <line x1="76.646" y1="1530.638" x2="53.100" y2="1530.638"/>
      <line x1="76.646" y1="1531.638" x2="53.100" y2="1531.638"/>
      <line x1="76.646" y1="1532.638" x2="53.100" y2="1532.638"/>
      <line x1="76.646" y1="1533.638" x2="53.100" y2="1533.638"/>
      <line x1="76.646" y1="1534.638" x2="53.100" y2="1534.638"/>
      <line x1="76.646" y1="1535.638" x2="53.100" y2="1535.638"/>
      <line x1="76.646" y1="1536.638" x2="53.100" y2="1536.638"/>
      <line x1="76.646" y1="1537.638" x2="53.100" y2="1537.638"/>
      <line x1="76.646" y1="1538.638" x2="53.100" y2="1538.638"/>
      <line x1="76.646" y1="1539.638" x2="53.100" y2="1539.638"/>
      <line x1="76.646" y1="1540.638" x2="53.100" y2="1540.638"/>
      <line x1="76.646" y1="1541.638" x2="53.100" y2="1541.638"/>
      <line x1="76.646" y1="1542.638" x2="53.100" y2="1542.638"/>
      <line x1="76.646" y1="1543.638" x2="53.100" y2="1543.638"/>
      <line x1="76.646" y1="1544.638" x2="53.100" y2="1544.638"/>
      <line x1="76.646" y1="1545.638" x2="53.100" y2="1545.638"/>
      <line x1="76.646" y1="1546.638" x2="53.100" y2="1546.638"/>
      <line x1="76.646" y1="1547.638" x2="53.100" y2="1547.638"/>
      <line x1="76.646" y1="1548.638" x2="53.100" y2="1548.638"/>
      <line x1="76.646" y1="1549.638" x2="53.100" y2="1549.638"/>
      <line x1="76.646" y1="1550.638" x2="53.100" y2="1550.638"/>
      <line x1="76.646" y1="1551.638" x2="53.100" y2="1551.638"/>
      <line x1="76.646" y1="1552.638" x2="53.100" y2="1552.638"/>
      <line x1="76.646" y1="1553.638" x2="53.100" y2="1553.638"/>
      <line x1="76.646" y1="1554.638" x2="53.100" y2="1554.638"/>
      <line x1="76.646" y1="1555.638" x2="53.100" y2="1555.638"/>
      <line x1="76.646" y1="1556.638" x2="53.100" y2="1556.638"/>
      <line x1="76.646" y1="1557.638" x2="53.100" y2="1557.638"/>
      <line x1="76.646" y1="1558.638" x2="53.100" y2="1558.638"/>
      <line x1="76.646" y1="1559.638" x2="53.100" y2="1559.638"/>
      <line x1="76.646" y1="1560.638" x2="53.100" y2="1560.638"/>
      <line x1="76.646" y1="1561.638" x2="53.100" y2="1561.638"/>
      <line x1="76.646" y1="1562.638" x2="53.100" y2="1562.638"/>
      <line x1="76.646" y1="1563.638" x2="53.100" y2="1563.638"/>
      <line x1="76.646" y1="1564.638" x2="53.100" y2="1564.638"/>
      <line x1="76.646" y1="1565.638" x2="53.100" y2="1565.638"/>
      <line x1="76.646" y1="1566.638" x2="53.100" y2="1566.638"/>
      <line x1="76.646" y1="1567.638" x2="53.100" y2="1567.638"/>
      <line x1="76.646" y1="1568.638" x2="53.100" y2="1568.638"/>
      <line x1="76.646" y1="1569.638" x2="53.100" y2="1569.638"/>
      <line x1="76.646" y1="1570.638" x2="53.100" y2="1570.638"/>
      <line x1="76.646" y1="1571.638" x2="53.100" y2="1571.638"/>
      <line x1="76.646" y1="1572.638" x2="53.100" y2="1572.638"/>
      <line x1="76.646" y1="1573.638" x2="53.100" y2="1573.638"/>
      <line x1="76.646" y1="1574.638" x2="53.100" y2="1574.638"/>
      <line x1="76.646" y1="1575.638" x2="53.100" y2="1575.638"/>
      <line x1="76.646" y1="1576.638" x2="53.100" y2="1576.638"/>
      <line x1="76.646" y1="1577.638" x2="53.100" y2="1577.638"/>
      <line x1="76.646" y1="1578.638" x2="53.100" y2="1578.638"/>
      <line x1="53.000" y1="1525.638" x2="3.000" y2="1525.638"/>
      <line x1="53.000" y1="1526.638" x2="3.000" y2="1526.638"/>
      <line x1="53.000" y1="1527.638" x2="3.000" y2="1527.638"/>
      <line x1="53.000" y1="1528.638" x2="3.000" y2="1528.638"/>
      <line x1="76.646" y1="1525.638" x2="53.100" y2="1525.638"/>
      <line x1="76.646" y1="1526.638" x2="53.100" y2="1526.638"/>
      <line x1="76.646" y1="1527.638" x2="53.100" y2="1527.638"/>
      <line x1="76.646" y1="1528.638" x2="53.100" y2="1528.638"/>
    </g>
    <g stroke="#1976D2" stroke-width="0.4">
      <polyline points="521.710,1682.729 600.500,1682.729 600.500,1521.729 521.710,1521.729" fill="none"/>
      <polyline points="521.710,1521.729 519.854,1521.729 519.854,1682.729 521.710,1682.729" fill="none"/>
      <polyline points="521.710,1681.730 599.500,1681.730 599.500,1522.729 521.710,1522.729" fill="none"/>
      <polyline points="521.710,1522.729 520.854,1522.729 520.854,1681.730 521.710,1681.730" fill="none"/>
      <polyline points="598.500,1523.729 521.854,1523.729 521.854,1680.730 598.500,1680.730 598.500,1523.729" fill="none"/>
      <polyline points="597.500,1524.729 522.854,1524.729 522.854,1679.729 597.500,1679.729 597.500,1524.729" fill="none"/>
      <polyline points="78.290,1521.729 -0.500,1521.729 -0.500,1682.729 78.290,1682.729" fill="none"/>
      <polyline points="78.290,1682.729 80.146,1682.729 80.146,1521.729 78.290,1521.729" fill="none"/>
      <polyline points="78.290,1522.729 0.500,1522.729 0.500,1681.730 78.290,1681.730" fill="none"/>
      <polyline points="78.290,1681.730 79.146,1681.730 79.146,1522.729 78.290,1522.729" fill="none"/>
      <polyline points="78.146,1523.729 1.500,1523.729 1.500,1680.730 78.146,1680.730 78.146,1523.729" fill="none"/>
      <polyline points="77.146,1524.729 2.500,1524.729 2.500,1679.729 77.146,1679.729 77.146,1524.729" fill="none"/>
    </g>
    <g stroke="#C62828" stroke-width="0.4" fill="none">
      <polygon points="294.279,1535.884 296.034,1534.990 297.427,1533.597 298.321,1531.842 298.630,1529.896 298.321,1527.951 297.427,1526.195 296.034,1524.802 294.279,1523.908 292.333,1523.600 290.388,1523.908 288.632,1524.802 287.240,1526.195 286.345,1527.951 286.037,1529.896 286.345,1531.842 287.240,1533.597 288.632,1534.990 290.388,1535.884 292.333,1536.192"/>
      <polygon points="314.257,1535.816 315.992,1534.932 317.369,1533.555 318.253,1531.820 318.558,1529.896 318.253,1527.973 317.369,1526.237 315.992,1524.860 314.257,1523.976 312.333,1523.671 310.410,1523.976 308.675,1524.860 307.297,1526.237 306.413,1527.973 306.109,1529.896 306.413,1531.820 307.297,1533.555 308.675,1534.932 310.410,1535.816 312.333,1536.121"/>
      <polygon points="274.211,1535.675 275.905,1534.812 277.249,1533.468 278.113,1531.774 278.410,1529.896 278.113,1528.018 277.249,1526.324 275.905,1524.980 274.211,1524.117 272.333,1523.820 270.456,1524.117 268.762,1524.980 267.417,1526.324 266.554,1528.018 266.257,1529.896 266.554,1531.774 267.417,1533.468 268.762,1534.812 270.456,1535.675 272.333,1535.973"/>
      <polygon points="334.187,1535.602 335.860,1534.750 337.187,1533.423 338.040,1531.750 338.333,1529.896 338.040,1528.042 337.187,1526.369 335.860,1525.042 334.187,1524.190 332.333,1523.896 330.479,1524.190 328.807,1525.042 327.479,1526.369 326.627,1528.042 326.333,1529.896 326.627,1531.750 327.479,1533.423 328.807,1534.750 330.479,1535.602 332.333,1535.896"/>
      <polygon points="353.767,1535.559 355.528,1534.786 356.943,1533.484 357.858,1531.793 358.175,1529.896 357.858,1528.000 356.943,1526.308 355.528,1525.006 353.767,1524.234 351.851,1524.075 349.987,1524.547 348.377,1525.599 347.196,1527.116 346.572,1528.935 346.572,1530.858 347.196,1532.676 348.377,1534.194 349.987,1535.245 351.851,1535.717"/>
      <polygon points="253.767,1535.559 255.528,1534.786 256.943,1533.484 257.858,1531.793 258.175,1529.896 257.858,1528.000 256.943,1526.308 255.528,1525.006 253.767,1524.234 251.851,1524.075 249.987,1524.547 248.377,1525.599 247.196,1527.116 246.572,1528.935 246.572,1530.858 247.196,1532.676 248.377,1534.194 249.987,1535.245 251.851,1535.717"/>
      <polygon points="233.726,1535.397 235.437,1534.647 236.812,1533.382 237.701,1531.739 238.008,1529.896 237.701,1528.054 236.812,1526.411 235.437,1525.145 233.726,1524.395 231.865,1524.241 230.054,1524.699 228.490,1525.721 227.343,1527.195 226.736,1528.962 226.736,1530.830 227.343,1532.597 228.490,1534.071 230.054,1535.093 231.865,1535.552"/>
      <polygon points="373.705,1535.314 375.390,1534.575 376.743,1533.329 377.619,1531.711 377.922,1529.896 377.619,1528.082 376.743,1526.464 375.390,1525.218 373.705,1524.479 371.872,1524.327 370.088,1524.778 368.548,1525.785 367.418,1527.236 366.821,1528.976 366.821,1530.816 367.418,1532.556 368.548,1534.008 370.088,1535.014 371.872,1535.466"/>
      <polygon points="215.038,1534.581 216.477,1533.373 217.416,1531.746 217.743,1529.896 217.416,1528.046 216.477,1526.419 215.038,1525.212 213.273,1524.569 211.394,1524.569 209.629,1525.212 208.190,1526.419 207.250,1528.046 206.924,1529.896 207.250,1531.746 208.190,1533.373 209.629,1534.581 211.394,1535.223 213.273,1535.223"/>
      <polygon points="394.991,1534.500 396.406,1533.313 397.329,1531.714 397.650,1529.896 397.329,1528.078 396.406,1526.479 394.991,1525.292 393.256,1524.661 391.410,1524.661 389.675,1525.292 388.261,1526.479 387.338,1528.078 387.017,1529.896 387.338,1531.714 388.261,1533.313 389.675,1534.500 391.410,1535.132 393.256,1535.132"/>
      <polygon points="194.895,1534.333 196.258,1533.189 197.147,1531.648 197.456,1529.896 197.147,1528.144 196.258,1526.603 194.895,1525.460 193.223,1524.851 191.444,1524.851 189.772,1525.460 188.409,1526.603 187.519,1528.144 187.211,1529.896 187.519,1531.648 188.409,1533.189 189.772,1534.333 191.444,1534.941 193.223,1534.941"/>
      <polygon points="414.895,1534.333 416.258,1533.189 417.147,1531.648 417.456,1529.896 417.147,1528.144 416.258,1526.603 414.895,1525.460 413.223,1524.851 411.444,1524.851 409.772,1525.460 408.409,1526.603 407.519,1528.144 407.211,1529.896 407.519,1531.648 408.409,1533.189 409.772,1534.333 411.444,1534.941 413.223,1534.941"/>
      <polygon points="174.526,1534.299 175.968,1533.210 176.920,1531.673 177.252,1529.896 176.920,1528.119 175.968,1526.582 174.526,1525.493 172.787,1524.998 170.987,1525.165 169.369,1525.971 168.151,1527.307 167.498,1528.992 167.498,1530.800 168.151,1532.486 169.369,1533.822 170.987,1534.627 172.787,1534.794"/>
      <polygon points="434.479,1534.204 435.890,1533.139 436.821,1531.635 437.146,1529.896 436.821,1528.158 435.890,1526.654 434.479,1525.588 432.777,1525.104 431.016,1525.267 429.433,1526.055 428.241,1527.363 427.603,1529.012 427.603,1530.781 428.241,1532.430 429.433,1533.737 431.016,1534.525 432.777,1534.688"/>
      <polygon points="154.001,1533.922 155.415,1532.977 156.359,1531.564 156.691,1529.896 156.359,1528.229 155.415,1526.815 154.001,1525.870 152.333,1525.539 150.666,1525.870 149.252,1526.815 148.308,1528.229 147.976,1529.896 148.308,1531.564 149.252,1532.977 150.666,1533.922 152.333,1534.254"/>
      <polygon points="453.906,1533.693 455.239,1532.802 456.130,1531.469 456.443,1529.896 456.130,1528.324 455.239,1526.990 453.906,1526.100 452.333,1525.787 450.761,1526.100 449.428,1526.990 448.537,1528.324 448.224,1529.896 448.537,1531.469 449.428,1532.802 450.761,1533.693 452.333,1534.006"/>
      <polygon points="134.465,1532.570 135.414,1531.380 135.753,1529.896 135.414,1528.413 134.465,1527.223 133.094,1526.563 131.572,1526.563 130.201,1527.223 129.253,1528.413 128.914,1529.896 129.253,1531.380 130.201,1532.570 131.572,1533.230 133.094,1533.230"/>
      <polygon points="474.273,1532.329 475.136,1531.246 475.444,1529.896 475.136,1528.546 474.273,1527.464 473.026,1526.863 471.641,1526.863 470.394,1527.464 469.530,1528.546 469.222,1529.896 469.530,1531.246 470.394,1532.329 471.641,1532.929 473.026,1532.929"/>
      <polygon points="113.455,1531.838 114.275,1531.017 114.576,1529.896 114.275,1528.775 113.455,1527.954 112.333,1527.654 111.212,1527.954 110.391,1528.775 110.091,1529.896 110.391,1531.017 111.212,1531.838 112.333,1532.139"/>
      <polygon points="493.333,1531.628 494.065,1530.896 494.333,1529.896 494.065,1528.896 493.333,1528.164 492.333,1527.896 491.333,1528.164 490.601,1528.896 490.333,1529.896 490.601,1530.896 491.333,1531.628 492.333,1531.896"/>
      <polygon points="294.279,1555.884 296.034,1554.990 297.427,1553.597 298.321,1551.842 298.630,1549.896 298.321,1547.951 297.427,1546.195 296.034,1544.802 294.279,1543.908 292.333,1543.600 290.388,1543.908 288.632,1544.802 287.240,1546.195 286.345,1547.951 286.037,1549.896 286.345,1551.842 287.240,1553.597 288.632,1554.990 290.388,1555.884 292.333,1556.192"/>
      <polygon points="314.257,1555.816 315.992,1554.932 317.369,1553.555 318.253,1551.820 318.558,1549.896 318.253,1547.973 317.369,1546.237 315.992,1544.860 314.257,1543.976 312.333,1543.671 310.410,1543.976 308.675,1544.860 307.297,1546.237 306.413,1547.973 306.109,1549.896 306.413,1551.820 307.297,1553.555 308.675,1554.932 310.410,1555.816 312.333,1556.121"/>
      <polygon points="274.211,1555.675 275.905,1554.812 277.249,1553.468 278.113,1551.774 278.410,1549.896 278.113,1548.018 277.249,1546.324 275.905,1544.980 274.211,1544.117 272.333,1543.820 270.456,1544.117 268.762,1544.980 267.417,1546.324 266.554,1548.018 266.257,1549.896 266.554,1551.774 267.417,1553.468 268.762,1554.812 270.456,1555.675 272.333,1555.973"/>
      <polygon points="334.187,1555.602 335.860,1554.750 337.187,1553.423 338.040,1551.750 338.333,1549.896 338.040,1548.042 337.187,1546.369 335.860,1545.042 334.187,1544.190 332.333,1543.896 330.479,1544.190 328.807,1545.042 327.479,1546.369 326.627,1548.042 326.333,1549.896 326.627,1551.750 327.479,1553.423 328.807,1554.750 330.479,1555.602 332.333,1555.896"/>
      <polygon points="253.767,1555.559 255.528,1554.786 256.943,1553.484 257.858,1551.793 258.175,1549.896 257.858,1548.000 256.943,1546.308 255.528,1545.006 253.767,1544.234 251.851,1544.075 249.987,1544.547 248.377,1545.599 247.196,1547.116 246.572,1548.935 246.572,1550.858 247.196,1552.676 248.377,1554.194 249.987,1555.245 251.851,1555.717"/>
      <polygon points="353.767,1555.559 355.528,1554.786 356.943,1553.484 357.858,1551.793 358.175,1549.896 357.858,1548.000 356.943,1546.308 355.528,1545.006 353.767,1544.234 351.851,1544.075 349.987,1544.547 348.377,1545.599 347.196,1547.116 346.572,1548.935 346.572,1550.858 347.196,1552.676 348.377,1554.194 349.987,1555.245 351.851,1555.717"/>
      <polygon points="233.726,1555.397 235.437,1554.647 236.812,1553.382 237.701,1551.739 238.008,1549.896 237.701,1548.054 236.812,1546.411 235.437,1545.145 233.726,1544.395 231.865,1544.241 230.054,1544.699 228.490,1545.721 227.343,1547.195 226.736,1548.962 226.736,1550.830 227.343,1552.597 228.490,1554.071 230.054,1555.093 231.865,1555.552"/>
      <polygon points="373.705,1555.314 375.390,1554.575 376.743,1553.329 377.619,1551.711 377.922,1549.896 377.619,1548.082 376.743,1546.464 375.390,1545.218 373.705,1544.479 371.872,1544.327 370.088,1544.778 368.548,1545.785 367.418,1547.236 366.821,1548.976 366.821,1550.816 367.418,1552.556 368.548,1554.008 370.088,1555.014 371.872,1555.466"/>
      <polygon points="215.038,1554.581 216.477,1553.373 217.416,1551.746 217.743,1549.896 217.416,1548.046 216.477,1546.419 215.038,1545.212 213.273,1544.569 211.394,1544.569 209.629,1545.212 208.190,1546.419 207.250,1548.046 206.924,1549.896 207.250,1551.746 208.190,1553.373 209.629,1554.581 211.394,1555.223 213.273,1555.223"/>
      <polygon points="394.991,1554.500 396.406,1553.313 397.329,1551.714 397.650,1549.896 397.329,1548.078 396.406,1546.479 394.991,1545.292 393.256,1544.661 391.410,1544.661 389.675,1545.292 388.261,1546.479 387.338,1548.078 387.017,1549.896 387.338,1551.714 388.261,1553.313 389.675,1554.500 391.410,1555.132 393.256,1555.132"/>
      <polygon points="414.895,1554.333 416.258,1553.189 417.147,1551.648 417.456,1549.896 417.147,1548.144 416.258,1546.603 414.895,1545.460 413.223,1544.851 411.444,1544.851 409.772,1545.460 408.409,1546.603 407.519,1548.144 407.211,1549.896 407.519,1551.648 408.409,1553.189 409.772,1554.333 411.444,1554.941 413.223,1554.941"/>
      <polygon points="194.895,1554.333 196.258,1553.189 197.147,1551.648 197.456,1549.896 197.147,1548.144 196.258,1546.603 194.895,1545.460 193.223,1544.851 191.444,1544.851 189.772,1545.460 188.409,1546.603 187.519,1548.144 187.211,1549.896 187.519,1551.648 188.409,1553.189 189.772,1554.333 191.444,1554.941 193.223,1554.941"/>
      <polygon points="174.526,1554.299 175.968,1553.210 176.920,1551.673 177.252,1549.896 176.920,1548.119 175.968,1546.582 174.526,1545.493 172.787,1544.998 170.987,1545.165 169.369,1545.971 168.151,1547.307 167.498,1548.992 167.498,1550.800 168.151,1552.486 169.369,1553.822 170.987,1554.627 172.787,1554.794"/>
      <polygon points="434.479,1554.204 435.890,1553.139 436.821,1551.635 437.146,1549.896 436.821,1548.158 435.890,1546.654 434.479,1545.588 432.777,1545.104 431.016,1545.267 429.433,1546.055 428.241,1547.363 427.603,1549.012 427.603,1550.781 428.241,1552.430 429.433,1553.737 431.016,1554.525 432.777,1554.688"/>
      <polygon points="154.001,1553.922 155.415,1552.977 156.359,1551.564 156.691,1549.896 156.359,1548.229 155.415,1546.815 154.001,1545.870 152.333,1545.539 150.666,1545.870 149.252,1546.815 148.308,1548.229 147.976,1549.896 148.308,1551.564 149.252,1552.977 150.666,1553.922 152.333,1554.254"/>
      <polygon points="453.906,1553.693 455.239,1552.802 456.130,1551.469 456.443,1549.896 456.130,1548.324 455.239,1546.990 453.906,1546.100 452.333,1545.787 450.761,1546.100 449.428,1546.990 448.537,1548.324 448.224,1549.896 448.537,1551.469 449.428,1552.802 450.761,1553.693 452.333,1554.006"/>
      <polygon points="134.465,1552.570 135.414,1551.380 135.753,1549.896 135.414,1548.413 134.465,1547.223 133.094,1546.563 131.572,1546.563 130.201,1547.223 129.253,1548.413 128.914,1549.896 129.253,1551.380 130.201,1552.570 131.572,1553.230 133.094,1553.230"/>
      <polygon points="474.273,1552.329 475.136,1551.246 475.444,1549.896 475.136,1548.546 474.273,1547.464 473.026,1546.863 471.641,1546.863 470.394,1547.464 469.530,1548.546 469.222,1549.896 469.530,1551.246 470.394,1552.329 471.641,1552.929 473.026,1552.929"/>
      <polygon points="113.455,1551.838 114.275,1551.017 114.576,1549.896 114.275,1548.775 113.455,1547.954 112.333,1547.654 111.212,1547.954 110.391,1548.775 110.091,1549.896 110.391,1551.017 111.212,1551.838 112.333,1552.139"/>
      <polygon points="493.333,1551.628 494.065,1550.896 494.333,1549.896 494.065,1548.896 493.333,1548.164 492.333,1547.896 491.333,1548.164 490.601,1548.896 490.333,1549.896 490.601,1550.896 491.333,1551.628 492.333,1551.896"/>
      <polygon points="294.279,1575.884 296.034,1574.990 297.427,1573.597 298.321,1571.842 298.630,1569.896 298.321,1567.951 297.427,1566.195 296.034,1564.802 294.279,1563.908 292.333,1563.600 290.388,1563.908 288.632,1564.802 287.240,1566.195 286.345,1567.951 286.037,1569.896 286.345,1571.842 287.240,1573.597 288.632,1574.990 290.388,1575.884 292.333,1576.192"/>
      <polygon points="314.257,1575.816 315.992,1574.932 317.369,1573.555 318.253,1571.820 318.558,1569.896 318.253,1567.973 317.369,1566.237 315.992,1564.860 314.257,1563.976 312.333,1563.671 310.410,1563.976 308.675,1564.860 307.297,1566.237 306.413,1567.973 306.109,1569.896 306.413,1571.820 307.297,1573.555 308.675,1574.932 310.410,1575.816 312.333,1576.121"/>
      <polygon points="274.211,1575.675 275.905,1574.812 277.249,1573.468 278.113,1571.774 278.410,1569.896 278.113,1568.018 277.249,1566.324 275.905,1564.980 274.211,1564.117 272.333,1563.820 270.456,1564.117 268.762,1564.980 267.417,1566.324 266.554,1568.018 266.257,1569.896 266.554,1571.774 267.417,1573.468 268.762,1574.812 270.456,1575.675 272.333,1575.973"/>
      <polygon points="334.187,1575.602 335.860,1574.750 337.187,1573.423 338.040,1571.750 338.333,1569.896 338.040,1568.042 337.187,1566.369 335.860,1565.042 334.187,1564.190 332.333,1563.896 330.479,1564.190 328.807,1565.042 327.479,1566.369 326.627,1568.042 326.333,1569.896 326.627,1571.750 327.479,1573.423 328.807,1574.750 330.479,1575.602 332.333,1575.896"/>
      <polygon points="353.767,1575.559 355.528,1574.786 356.943,1573.484 357.858,1571.793 358.175,1569.896 357.858,1568.000 356.943,1566.308 355.528,1565.006 353.767,1564.234 351.851,1564.075 349.987,1564.547 348.377,1565.599 347.196,1567.116 346.572,1568.935 346.572,1570.858 347.196,1572.676 348.377,1574.194 349.987,1575.245 351.851,1575.717"/>
      <polygon points="253.767,1575.559 255.528,1574.786 256.943,1573.484 257.858,1571.793 258.175,1569.896 257.858,1568.000 256.943,1566.308 255.528,1565.006 253.767,1564.234 251.851,1564.075 249.987,1564.547 248.377,1565.599 247.196,1567.116 246.572,1568.935 246.572,1570.858 247.196,1572.676 248.377,1574.194 249.987,1575.245 251.851,1575.717"/>
      <polygon points="233.726,1575.397 235.437,1574.647 236.812,1573.382 237.701,1571.739 238.008,1569.896 237.701,1568.054 236.812,1566.411 235.437,1565.145 233.726,1564.395 231.865,1564.241 230.054,1564.699 228.490,1565.721 227.343,1567.195 226.736,1568.962 226.736,1570.830 227.343,1572.597 228.490,1574.071 230.054,1575.093 231.865,1575.552"/>
      <polygon points="373.705,1575.314 375.390,1574.575 376.743,1573.329 377.619,1571.711 377.922,1569.896 377.619,1568.082 376.743,1566.464 375.390,1565.218 373.705,1564.479 371.872,1564.327 370.088,1564.778 368.548,1565.785 367.418,1567.236 366.821,1568.976 366.821,1570.816 367.418,1572.556 368.548,1574.008 370.088,1575.014 371.872,1575.466"/>
      <polygon points="215.038,1574.581 216.477,1573.373 217.416,1571.746 217.743,1569.896 217.416,1568.046 216.477,1566.419 215.038,1565.212 213.273,1564.569 211.394,1564.569 209.629,1565.212 208.190,1566.419 207.250,1568.046 206.924,1569.896 207.250,1571.746 208.190,1573.373 209.629,1574.581 211.394,1575.223 213.273,1575.223"/>
      <polygon points="394.991,1574.500 396.406,1573.313 397.329,1571.714 397.650,1569.896 397.329,1568.078 396.406,1566.479 394.991,1565.292 393.256,1564.661 391.410,1564.661 389.675,1565.292 388.261,1566.479 387.338,1568.078 387.017,1569.896 387.338,1571.714 388.261,1573.313 389.675,1574.500 391.410,1575.132 393.256,1575.132"/>
      <polygon points="194.895,1574.333 196.258,1573.189 197.147,1571.648 197.456,1569.896 197.147,1568.144 196.258,1566.603 194.895,1565.460 193.223,1564.851 191.444,1564.851 189.772,1565.460 188.409,1566.603 187.519,1568.144 187.211,1569.896 187.519,1571.648 188.409,1573.189 189.772,1574.333 191.444,1574.941 193.223,1574.941"/>
      <polygon points="414.895,1574.333 416.258,1573.189 417.147,1571.648 417.456,1569.896 417.147,1568.144 416.258,1566.603 414.895,1565.460 413.223,1564.851 411.444,1564.851 409.772,1565.460 408.409,1566.603 407.519,1568.144 407.211,1569.896 407.519,1571.648 408.409,1573.189 409.772,1574.333 411.444,1574.941 413.223,1574.941"/>
      <polygon points="174.526,1574.299 175.968,1573.210 176.920,1571.673 177.252,1569.896 176.920,1568.119 175.968,1566.582 174.526,1565.493 172.787,1564.998 170.987,1565.165 169.369,1565.971 168.151,1567.307 167.498,1568.992 167.498,1570.800 168.151,1572.486 169.369,1573.822 170.987,1574.627 172.787,1574.794"/>
      <polygon points="434.479,1574.204 435.890,1573.139 436.821,1571.635 437.146,1569.896 436.821,1568.158 435.890,1566.654 434.479,1565.588 432.777,1565.104 431.016,1565.267 429.433,1566.055 428.241,1567.363 427.603,1569.012 427.603,1570.781 428.241,1572.430 429.433,1573.737 431.016,1574.525 432.777,1574.688"/>
      <polygon points="154.001,1573.922 155.415,1572.977 156.359,1571.564 156.691,1569.896 156.359,1568.229 155.415,1566.815 154.001,1565.870 152.333,1565.539 150.666,1565.870 149.252,1566.815 148.308,1568.229 147.976,1569.896 148.308,1571.564 149.252,1572.977 150.666,1573.922 152.333,1574.254"/>
      <polygon points="453.906,1573.693 455.239,1572.802 456.130,1571.469 456.443,1569.896 456.130,1568.324 455.239,1566.990 453.906,1566.100 452.333,1565.787 450.761,1566.100 449.428,1566.990 448.537,1568.324 448.224,1569.896 448.537,1571.469 449.428,1572.802 450.761,1573.693 452.333,1574.006"/>
      <polygon points="134.465,1572.570 135.414,1571.380 135.753,1569.896 135.414,1568.413 134.465,1567.223 133.094,1566.563 131.572,1566.563 130.201,1567.223 129.253,1568.413 128.914,1569.896 129.253,1571.380 130.201,1572.570 131.572,1573.230 133.094,1573.230"/>
      <polygon points="474.273,1572.329 475.136,1571.246 475.444,1569.896 475.136,1568.546 474.273,1567.464 473.026,1566.863 471.641,1566.863 470.394,1567.464 469.530,1568.546 469.222,1569.896 469.530,1571.246 470.394,1572.329 471.641,1572.929 473.026,1572.929"/>
      <polygon points="113.455,1571.838 114.275,1571.017 114.576,1569.896 114.275,1568.775 113.455,1567.954 112.333,1567.654 111.212,1567.954 110.391,1568.775 110.091,1569.896 110.391,1571.017 111.212,1571.838 112.333,1572.139"/>
      <polygon points="493.333,1571.628 494.065,1570.896 494.333,1569.896 494.065,1568.896 493.333,1568.164 492.333,1567.896 491.333,1568.164 490.601,1568.896 490.333,1569.896 490.601,1570.896 491.333,1571.628 492.333,1571.896"/>
      <polygon points="294.279,1595.884 296.034,1594.990 297.427,1593.597 298.321,1591.842 298.630,1589.896 298.321,1587.951 297.427,1586.195 296.034,1584.802 294.279,1583.908 292.333,1583.600 290.388,1583.908 288.632,1584.802 287.240,1586.195 286.345,1587.951 286.037,1589.896 286.345,1591.842 287.240,1593.597 288.632,1594.990 290.388,1595.884 292.333,1596.192"/>
      <polygon points="314.257,1595.816 315.992,1594.932 317.369,1593.555 318.253,1591.820 318.558,1589.896 318.253,1587.973 317.369,1586.237 315.992,1584.860 314.257,1583.976 312.333,1583.671 310.410,1583.976 308.675,1584.860 307.297,1586.237 306.413,1587.973 306.109,1589.896 306.413,1591.820 307.297,1593.555 308.675,1594.932 310.410,1595.816 312.333,1596.121"/>
      <polygon points="274.211,1595.675 275.905,1594.812 277.249,1593.468 278.113,1591.774 278.410,1589.896 278.113,1588.018 277.249,1586.324 275.905,1584.980 274.211,1584.117 272.333,1583.820 270.456,1584.117 268.762,1584.980 267.417,1586.324 266.554,1588.018 266.257,1589.896 266.554,1591.774 267.417,1593.468 268.762,1594.812 270.456,1595.675 272.333,1595.973"/>
      <polygon points="334.187,1595.602 335.860,1594.750 337.187,1593.423 338.040,1591.750 338.333,1589.896 338.040,1588.042 337.187,1586.369 335.860,1585.042 334.187,1584.190 332.333,1583.896 330.479,1584.190 328.807,1585.042 327.479,1586.369 326.627,1588.042 326.333,1589.896 326.627,1591.750 327.479,1593.423 328.807,1594.750 330.479,1595.602 332.333,1595.896"/>
      <polygon points="353.767,1595.559 355.528,1594.786 356.943,1593.484 357.858,1591.793 358.175,1589.896 357.858,1588.000 356.943,1586.308 355.528,1585.006 353.767,1584.234 351.851,1584.075 349.987,1584.547 348.377,1585.599 347.196,1587.116 346.572,1588.935 346.572,1590.858 347.196,1592.676 348.377,1594.194 349.987,1595.245 351.851,1595.717"/>
      <polygon points="253.767,1595.559 255.528,1594.786 256.943,1593.484 257.858,1591.793 258.175,1589.896 257.858,1588.000 256.943,1586.308 255.528,1585.006 253.767,1584.234 251.851,1584.075 249.987,1584.547 248.377,1585.599 247.196,1587.116 246.572,1588.935 246.572,1590.858 247.196,1592.676 248.377,1594.194 249.987,1595.245 251.851,1595.717"/>
      <polygon points="233.726,1595.397 235.437,1594.647 236.812,1593.382 237.701,1591.739 238.008,1589.896 237.701,1588.054 236.812,1586.411 235.437,1585.145 233.726,1584.395 231.865,1584.241 230.054,1584.699 228.490,1585.721 227.343,1587.195 226.736,1588.962 226.736,1590.830 227.343,1592.597 228.490,1594.071 230.054,1595.093 231.865,1595.552"/>
      <polygon points="373.705,1595.314 375.390,1594.575 376.743,1593.329 377.619,1591.711 377.922,1589.896 377.619,1588.082 376.743,1586.464 375.390,1585.218 373.705,1584.479 371.872,1584.327 370.088,1584.778 368.548,1585.785 367.418,1587.236 366.821,1588.976 366.821,1590.816 367.418,1592.556 368.548,1594.008 370.088,1595.014 371.872,1595.466"/>
      <polygon points="215.038,1594.581 216.477,1593.373 217.416,1591.746 217.743,1589.896 217.416,1588.046 216.477,1586.419 215.038,1585.212 213.273,1584.569 211.394,1584.569 209.629,1585.212 208.190,1586.419 207.250,1588.046 206.924,1589.896 207.250,1591.746 208.190,1593.373 209.629,1594.581 211.394,1595.223 213.273,1595.223"/>
      <polygon points="394.991,1594.500 396.406,1593.313 397.329,1591.714 397.650,1589.896 397.329,1588.078 396.406,1586.479 394.991,1585.292 393.256,1584.661 391.410,1584.661 389.675,1585.292 388.261,1586.479 387.338,1588.078 387.017,1589.896 387.338,1591.714 388.261,1593.313 389.675,1594.500 391.410,1595.132 393.256,1595.132"/>
      <polygon points="194.895,1594.333 196.258,1593.189 197.147,1591.648 197.456,1589.896 197.147,1588.144 196.258,1586.603 194.895,1585.460 193.223,1584.851 191.444,1584.851 189.772,1585.460 188.409,1586.603 187.519,1588.144 187.211,1589.896 187.519,1591.648 188.409,1593.189 189.772,1594.333 191.444,1594.941 193.223,1594.941"/>
      <polygon points="414.895,1594.333 416.258,1593.189 417.147,1591.648 417.456,1589.896 417.147,1588.144 416.258,1586.603 414.895,1585.460 413.223,1584.851 411.444,1584.851 409.772,1585.460 408.409,1586.603 407.519,1588.144 407.211,1589.896 407.519,1591.648 408.409,1593.189 409.772,1594.333 411.444,1594.941 413.223,1594.941"/>
      <polygon points="174.526,1594.299 175.968,1593.210 176.920,1591.673 177.252,1589.896 176.920,1588.119 175.968,1586.582 174.526,1585.493 172.787,1584.998 170.987,1585.165 169.369,1585.971 168.151,1587.307 167.498,1588.992 167.498,1590.800 168.151,1592.486 169.369,1593.822 170.987,1594.627 172.787,1594.794"/>
      <polygon points="434.479,1594.204 435.890,1593.139 436.821,1591.635 437.146,1589.896 436.821,1588.158 435.890,1586.654 434.479,1585.588 432.777,1585.104 431.016,1585.267 429.433,1586.055 428.241,1587.363 427.603,1589.012 427.603,1590.781 428.241,1592.430 429.433,1593.737 431.016,1594.525 432.777,1594.688"/>
      <polygon points="154.001,1593.922 155.415,1592.977 156.359,1591.564 156.691,1589.896 156.359,1588.229 155.415,1586.815 154.001,1585.870 152.333,1585.539 150.666,1585.870 149.252,1586.815 148.308,1588.229 147.976,1589.896 148.308,1591.564 149.252,1592.977 150.666,1593.922 152.333,1594.254"/>
      <polygon points="453.906,1593.693 455.239,1592.802 456.130,1591.469 456.443,1589.896 456.130,1588.324 455.239,1586.990 453.906,1586.100 452.333,1585.787 450.761,1586.100 449.428,1586.990 448.537,1588.324 448.224,1589.896 448.537,1591.469 449.428,1592.802 450.761,1593.693 452.333,1594.006"/>
      <polygon points="134.465,1592.570 135.414,1591.380 135.753,1589.896 135.414,1588.413 134.465,1587.223 133.094,1586.563 131.572,1586.563 130.201,1587.223 129.253,1588.413 128.914,1589.896 129.253,1591.380 130.201,1592.570 131.572,1593.230 133.094,1593.230"/>
      <polygon points="474.273,1592.329 475.136,1591.246 475.444,1589.896 475.136,1588.546 474.273,1587.464 473.026,1586.863 471.641,1586.863 470.394,1587.464 469.530,1588.546 469.222,1589.896 469.530,1591.246 470.394,1592.329 471.641,1592.929 473.026,1592.929"/>
      <polygon points="113.455,1591.838 114.275,1591.017 114.576,1589.896 114.275,1588.775 113.455,1587.954 112.333,1587.654 111.212,1587.954 110.391,1588.775 110.091,1589.896 110.391,1591.017 111.212,1591.838 112.333,1592.139"/>
      <polygon points="493.333,1591.628 494.065,1590.896 494.333,1589.896 494.065,1588.896 493.333,1588.164 492.333,1587.896 491.333,1588.164 490.601,1588.896 490.333,1589.896 490.601,1590.896 491.333,1591.628 492.333,1591.896"/>
      <polygon points="294.279,1615.884 296.034,1614.990 297.427,1613.597 298.321,1611.842 298.630,1609.896 298.321,1607.951 297.427,1606.195 296.034,1604.802 294.279,1603.908 292.333,1603.600 290.388,1603.908 288.632,1604.802 287.240,1606.195 286.345,1607.951 286.037,1609.896 286.345,1611.842 287.240,1613.597 288.632,1614.990 290.388,1615.884 292.333,1616.192"/>
      <polygon points="314.257,1615.816 315.992,1614.932 317.369,1613.555 318.253,1611.820 318.558,1609.896 318.253,1607.973 317.369,1606.237 315.992,1604.860 314.257,1603.976 312.333,1603.671 310.410,1603.976 308.675,1604.860 307.297,1606.237 306.413,1607.973 306.109,1609.896 306.413,1611.820 307.297,1613.555 308.675,1614.932 310.410,1615.816 312.333,1616.121"/>
      <polygon points="274.211,1615.675 275.905,1614.812 277.249,1613.468 278.113,1611.774 278.410,1609.896 278.113,1608.018 277.249,1606.324 275.905,1604.980 274.211,1604.117 272.333,1603.820 270.456,1604.117 268.762,1604.980 267.417,1606.324 266.554,1608.018 266.257,1609.896 266.554,1611.774 267.417,1613.468 268.762,1614.812 270.456,1615.675 272.333,1615.973"/>
      <polygon points="334.187,1615.602 335.860,1614.750 337.187,1613.423 338.040,1611.750 338.333,1609.896 338.040,1608.042 337.187,1606.369 335.860,1605.042 334.187,1604.190 332.333,1603.896 330.479,1604.190 328.807,1605.042 327.479,1606.369 326.627,1608.042 326.333,1609.896 326.627,1611.750 327.479,1613.423 328.807,1614.750 330.479,1615.602 332.333,1615.896"/>
      <polygon points="253.767,1615.559 255.528,1614.786 256.943,1613.484 257.858,1611.793 258.175,1609.896 257.858,1608.000 256.943,1606.308 255.528,1605.006 253.767,1604.234 251.851,1604.075 249.987,1604.547 248.377,1605.599 247.196,1607.116 246.572,1608.935 246.572,1610.858 247.196,1612.676 248.377,1614.194 249.987,1615.245 251.851,1615.717"/>
      <polygon points="353.767,1615.559 355.528,1614.786 356.943,1613.484 357.858,1611.793 358.175,1609.896 357.858,1608.000 356.943,1606.308 355.528,1605.006 353.767,1604.234 351.851,1604.075 349.987,1604.547 348.377,1605.599 347.196,1607.116 346.572,1608.935 346.572,1610.858 347.196,1612.676 348.377,1614.194 349.987,1615.245 351.851,1615.717"/>
      <polygon points="233.726,1615.397 235.437,1614.647 236.812,1613.382 237.701,1611.739 238.008,1609.896 237.701,1608.054 236.812,1606.411 235.437,1605.145 233.726,1604.395 231.865,1604.241 230.054,1604.699 228.490,1605.721 227.343,1607.195 226.736,1608.962 226.736,1610.830 227.343,1612.597 228.490,1614.071 230.054,1615.093 231.865,1615.552"/>
      <polygon points="373.705,1615.314 375.390,1614.575 376.743,1613.329 377.619,1611.711 377.922,1609.896 377.619,1608.082 376.743,1606.464 375.390,1605.218 373.705,1604.479 371.872,1604.327 370.088,1604.778 368.548,1605.785 367.418,1607.236 366.821,1608.976 366.821,1610.816 367.418,1612.556 368.548,1614.008 370.088,1615.014 371.872,1615.466"/>
      <polygon points="215.038,1614.581 216.477,1613.373 217.416,1611.746 217.743,1609.896 217.416,1608.046 216.477,1606.419 215.038,1605.212 213.273,1604.569 211.394,1604.569 209.629,1605.212 208.190,1606.419 207.250,1608.046 206.924,1609.896 207.250,1611.746 208.190,1613.373 209.629,1614.581 211.394,1615.223 213.273,1615.223"/>
      <polygon points="394.991,1614.500 396.406,1613.313 397.329,1611.714 397.650,1609.896 397.329,1608.078 396.406,1606.479 394.991,1605.292 393.256,1604.661 391.410,1604.661 389.675,1605.292 388.261,1606.479 387.338,1608.078 387.017,1609.896 387.338,1611.714 388.261,1613.313 389.675,1614.500 391.410,1615.132 393.256,1615.132"/>
      <polygon points="414.895,1614.333 416.258,1613.189 417.147,1611.648 417.456,1609.896 417.147,1608.144 416.258,1606.603 414.895,1605.460 413.223,1604.851 411.444,1604.851 409.772,1605.460 408.409,1606.603 407.519,1608.144 407.211,1609.896 407.519,1611.648 408.409,1613.189 409.772,1614.333 411.444,1614.941 413.223,1614.941"/>
      <polygon points="194.895,1614.333 196.258,1613.189 197.147,1611.648 197.456,1609.896 197.147,1608.144 196.258,1606.603 194.895,1605.460 193.223,1604.851 191.444,1604.851 189.772,1605.460 188.409,1606.603 187.519,1608.144 187.211,1609.896 187.519,1611.648 188.409,1613.189 189.772,1614.333 191.444,1614.941 193.223,1614.941"/>
      <polygon points="174.526,1614.299 175.968,1613.210 176.920,1611.673 177.252,1609.896 176.920,1608.119 175.968,1606.582 174.526,1605.493 172.787,1604.998 170.987,1605.165 169.369,1605.971 168.151,1607.307 167.498,1608.992 167.498,1610.800 168.151,1612.486 169.369,1613.822 170.987,1614.627 172.787,1614.794"/>
      <polygon points="434.479,1614.204 435.890,1613.139 436.821,1611.635 437.146,1609.896 436.821,1608.158 435.890,1606.654 434.479,1605.588 432.777,1605.104 431.016,1605.267 429.433,1606.055 428.241,1607.363 427.603,1609.012 427.603,1610.781 428.241,1612.430 429.433,1613.737 431.016,1614.525 432.777,1614.688"/>
      <polygon points="154.001,1613.922 155.415,1612.977 156.359,1611.564 156.691,1609.896 156.359,1608.229 155.415,1606.815 154.001,1605.870 152.333,1605.539 150.666,1605.870 149.252,1606.815 148.308,1608.229 147.976,1609.896 148.308,1611.564 149.252,1612.977 150.666,1613.922 152.333,1614.254"/>
      <polygon points="453.906,1613.693 455.239,1612.802 456.130,1611.469 456.443,1609.896 456.130,1608.324 455.239,1606.990 453.906,1606.100 452.333,1605.787 450.761,1606.100 449.428,1606.990 448.537,1608.324 448.224,1609.896 448.537,1611.469 449.428,1612.802 450.761,1613.693 452.333,1614.006"/>
      <polygon points="134.465,1612.570 135.414,1611.380 135.753,1609.896 135.414,1608.413 134.465,1607.223 133.094,1606.563 131.572,1606.563 130.201,1607.223 129.253,1608.413 128.914,1609.896 129.253,1611.380 130.201,1612.570 131.572,1613.230 133.094,1613.230"/>
      <polygon points="474.273,1612.329 475.136,1611.246 475.444,1609.896 475.136,1608.546 474.273,1607.464 473.026,1606.863 471.641,1606.863 470.394,1607.464 469.530,1608.546 469.222,1609.896 469.530,1611.246 470.394,1612.329 471.641,1612.929 473.026,1612.929"/>
      <polygon points="113.455,1611.838 114.275,1611.017 114.576,1609.896 114.275,1608.775 113.455,1607.954 112.333,1607.654 111.212,1607.954 110.391,1608.775 110.091,1609.896 110.391,1611.017 111.212,1611.838 112.333,1612.139"/>
      <polygon points="493.333,1611.628 494.065,1610.896 494.333,1609.896 494.065,1608.896 493.333,1608.164 492.333,1607.896 491.333,1608.164 490.601,1608.896 490.333,1609.896 490.601,1610.896 491.333,1611.628 492.333,1611.896"/>
      <polygon points="294.279,1635.884 296.034,1634.990 297.427,1633.597 298.321,1631.842 298.630,1629.896 298.321,1627.951 297.427,1626.195 296.034,1624.802 294.279,1623.908 292.333,1623.600 290.388,1623.908 288.632,1624.802 287.240,1626.195 286.345,1627.951 286.037,1629.896 286.345,1631.842 287.240,1633.597 288.632,1634.990 290.388,1635.884 292.333,1636.192"/>
      <polygon points="314.257,1635.816 315.992,1634.932 317.369,1633.555 318.253,1631.820 318.558,1629.896 318.253,1627.973 317.369,1626.237 315.992,1624.860 314.257,1623.976 312.333,1623.671 310.410,1623.976 308.675,1624.860 307.297,1626.237 306.413,1627.973 306.109,1629.896 306.413,1631.820 307.297,1633.555 308.675,1634.932 310.410,1635.816 312.333,1636.121"/>
      <polygon points="274.211,1635.675 275.905,1634.812 277.249,1633.468 278.113,1631.774 278.410,1629.896 278.113,1628.018 277.249,1626.324 275.905,1624.980 274.211,1624.117 272.333,1623.820 270.456,1624.117 268.762,1624.980 267.417,1626.324 266.554,1628.018 266.257,1629.896 266.554,1631.774 267.417,1633.468 268.762,1634.812 270.456,1635.675 272.333,1635.973"/>
      <polygon points="334.187,1635.602 335.860,1634.750 337.187,1633.423 338.040,1631.750 338.333,1629.896 338.040,1628.042 337.187,1626.369 335.860,1625.042 334.187,1624.190 332.333,1623.896 330.479,1624.190 328.807,1625.042 327.479,1626.369 326.627,1628.042 326.333,1629.896 326.627,1631.750 327.479,1633.423 328.807,1634.750 330.479,1635.602 332.333,1635.896"/>
      <polygon points="353.767,1635.559 355.528,1634.786 356.943,1633.484 357.858,1631.793 358.175,1629.896 357.858,1628.000 356.943,1626.308 355.528,1625.006 353.767,1624.234 351.851,1624.075 349.987,1624.547 348.377,1625.599 347.196,1627.116 346.572,1628.935 346.572,1630.858 347.196,1632.676 348.377,1634.194 349.987,1635.245 351.851,1635.717"/>
      <polygon points="253.767,1635.559 255.528,1634.786 256.943,1633.484 257.858,1631.793 258.175,1629.896 257.858,1628.000 256.943,1626.308 255.528,1625.006 253.767,1624.234 251.851,1624.075 249.987,1624.547 248.377,1625.599 247.196,1627.116 246.572,1628.935 246.572,1630.858 247.196,1632.676 248.377,1634.194 249.987,1635.245 251.851,1635.717"/>
      <polygon points="233.726,1635.397 235.437,1634.647 236.812,1633.382 237.701,1631.739 238.008,1629.896 237.701,1628.054 236.812,1626.411 235.437,1625.145 233.726,1624.395 231.865,1624.241 230.054,1624.699 228.490,1625.721 227.343,1627.195 226.736,1628.962 226.736,1630.830 227.343,1632.597 228.490,1634.071 230.054,1635.093 231.865,1635.552"/>
      <polygon points="373.705,1635.314 375.390,1634.575 376.743,1633.329 377.619,1631.711 377.922,1629.896 377.619,1628.082 376.743,1626.464 375.390,1625.218 373.705,1624.479 371.872,1624.327 370.088,1624.778 368.548,1625.785 367.418,1627.236 366.821,1628.976 366.821,1630.816 367.418,1632.556 368.548,1634.008 370.088,1635.014 371.872,1635.466"/>
      <polygon points="215.038,1634.581 216.477,1633.373 217.416,1631.746 217.743,1629.896 217.416,1628.046 216.477,1626.419 215.038,1625.212 213.273,1624.569 211.394,1624.569 209.629,1625.212 208.190,1626.419 207.250,1628.046 206.924,1629.896 207.250,1631.746 208.190,1633.373 209.629,1634.581 211.394,1635.223 213.273,1635.223"/>
      <polygon points="394.991,1634.500 396.406,1633.313 397.329,1631.714 397.650,1629.896 397.329,1628.078 396.406,1626.479 394.991,1625.292 393.256,1624.661 391.410,1624.661 389.675,1625.292 388.261,1626.479 387.338,1628.078 387.017,1629.896 387.338,1631.714 388.261,1633.313 389.675,1634.500 391.410,1635.132 393.256,1635.132"/>
      <polygon points="194.895,1634.333 196.258,1633.189 197.147,1631.648 197.456,1629.896 197.147,1628.144 196.258,1626.603 194.895,1625.460 193.223,1624.851 191.444,1624.851 189.772,1625.460 188.409,1626.603 187.519,1628.144 187.211,1629.896 187.519,1631.648 188.409,1633.189 189.772,1634.333 191.444,1634.941 193.223,1634.941"/>
      <polygon points="414.895,1634.333 416.258,1633.189 417.147,1631.648 417.456,1629.896 417.147,1628.144 416.258,1626.603 414.895,1625.460 413.223,1624.851 411.444,1624.851 409.772,1625.460 408.409,1626.603 407.519,1628.144 407.211,1629.896 407.519,1631.648 408.409,1633.189 409.772,1634.333 411.444,1634.941 413.223,1634.941"/>
      <polygon points="174.526,1634.299 175.968,1633.210 176.920,1631.673 177.252,1629.896 176.920,1628.119 175.968,1626.582 174.526,1625.493 172.787,1624.998 170.987,1625.165 169.369,1625.971 168.151,1627.307 167.498,1628.992 167.498,1630.800 168.151,1632.486 169.369,1633.822 170.987,1634.627 172.787,1634.794"/>
      <polygon points="434.479,1634.204 435.890,1633.139 436.821,1631.635 437.146,1629.896 436.821,1628.158 435.890,1626.654 434.479,1625.588 432.777,1625.104 431.016,1625.267 429.433,1626.055 428.241,1627.363 427.603,1629.012 427.603,1630.781 428.241,1632.430 429.433,1633.737 431.016,1634.525 432.777,1634.688"/>
      <polygon points="154.001,1633.922 155.415,1632.977 156.359,1631.564 156.691,1629.896 156.359,1628.229 155.415,1626.815 154.001,1625.870 152.333,1625.539 150.666,1625.870 149.252,1626.815 148.308,1628.229 147.976,1629.896 148.308,1631.564 149.252,1632.977 150.666,1633.922 152.333,1634.254"/>
      <polygon points="453.906,1633.693 455.239,1632.802 456.130,1631.469 456.443,1629.896 456.130,1628.324 455.239,1626.990 453.906,1626.100 452.333,1625.787 450.761,1626.100 449.428,1626.990 448.537,1628.324 448.224,1629.896 448.537,1631.469 449.428,1632.802 450.761,1633.693 452.333,1634.006"/>
      <polygon points="134.465,1632.570 135.414,1631.380 135.753,1629.896 135.414,1628.413 134.465,1627.223 133.094,1626.563 131.572,1626.563 130.201,1627.223 129.253,1628.413 128.914,1629.896 129.253,1631.380 130.201,1632.570 131.572,1633.230 133.094,1633.230"/>
      <polygon points="474.273,1632.329 475.136,1631.246 475.444,1629.896 475.136,1628.546 474.273,1627.464 473.026,1626.863 471.641,1626.863 470.394,1627.464 469.530,1628.546 469.222,1629.896 469.530,1631.246 470.394,1632.329 471.641,1632.929 473.026,1632.929"/>
      <polygon points="113.455,1631.838 114.275,1631.017 114.576,1629.896 114.275,1628.775 113.455,1627.954 112.333,1627.654 111.212,1627.954 110.391,1628.775 110.091,1629.896 110.391,1631.017 111.212,1631.838 112.333,1632.139"/>
      <polygon points="493.333,1631.628 494.065,1630.896 494.333,1629.896 494.065,1628.896 493.333,1628.164 492.333,1627.896 491.333,1628.164 490.601,1628.896 490.333,1629.896 490.601,1630.896 491.333,1631.628 492.333,1631.896"/>
      <polygon points="294.279,1655.884 296.034,1654.990 297.427,1653.597 298.321,1651.842 298.630,1649.896 298.321,1647.951 297.427,1646.195 296.034,1644.802 294.279,1643.908 292.333,1643.600 290.388,1643.908 288.632,1644.802 287.240,1646.195 286.345,1647.951 286.037,1649.896 286.345,1651.842 287.240,1653.597 288.632,1654.990 290.388,1655.884 292.333,1656.192"/>
      <polygon points="314.257,1655.816 315.992,1654.932 317.369,1653.555 318.253,1651.820 318.558,1649.896 318.253,1647.973 317.369,1646.237 315.992,1644.860 314.257,1643.976 312.333,1643.671 310.410,1643.976 308.675,1644.860 307.297,1646.237 306.413,1647.973 306.109,1649.896 306.413,1651.820 307.297,1653.555 308.675,1654.932 310.410,1655.816 312.333,1656.121"/>
      <polygon points="274.211,1655.675 275.905,1654.812 277.249,1653.468 278.113,1651.774 278.410,1649.896 278.113,1648.018 277.249,1646.324 275.905,1644.980 274.211,1644.117 272.333,1643.820 270.456,1644.117 268.762,1644.980 267.417,1646.324 266.554,1648.018 266.257,1649.896 266.554,1651.774 267.417,1653.468 268.762,1654.812 270.456,1655.675 272.333,1655.973"/>
      <polygon points="334.187,1655.602 335.860,1654.750 337.187,1653.423 338.040,1651.750 338.333,1649.896 338.040,1648.042 337.187,1646.369 335.860,1645.042 334.187,1644.190 332.333,1643.896 330.479,1644.190 328.807,1645.042 327.479,1646.369 326.627,1648.042 326.333,1649.896 326.627,1651.750 327.479,1653.423 328.807,1654.750 330.479,1655.602 332.333,1655.896"/>
      <polygon points="253.767,1655.559 255.528,1654.786 256.943,1653.484 257.858,1651.793 258.175,1649.896 257.858,1648.000 256.943,1646.308 255.528,1645.006 253.767,1644.234 251.851,1644.075 249.987,1644.547 248.377,1645.599 247.196,1647.116 246.572,1648.935 246.572,1650.858 247.196,1652.676 248.377,1654.194 249.987,1655.245 251.851,1655.717"/>
      <polygon points="353.767,1655.559 355.528,1654.786 356.943,1653.484 357.858,1651.793 358.175,1649.896 357.858,1648.000 356.943,1646.308 355.528,1645.006 353.767,1644.234 351.851,1644.075 349.987,1644.547 348.377,1645.599 347.196,1647.116 346.572,1648.935 346.572,1650.858 347.196,1652.676 348.377,1654.194 349.987,1655.245 351.851,1655.717"/>
      <polygon points="233.726,1655.397 235.437,1654.647 236.812,1653.382 237.701,1651.739 238.008,1649.896 237.701,1648.054 236.812,1646.411 235.437,1645.145 233.726,1644.395 231.865,1644.241 230.054,1644.699 228.490,1645.721 227.343,1647.195 226.736,1648.962 226.736,1650.830 227.343,1652.597 228.490,1654.071 230.054,1655.093 231.865,1655.552"/>
      <polygon points="373.705,1655.314 375.390,1654.575 376.743,1653.329 377.619,1651.711 377.922,1649.896 377.619,1648.082 376.743,1646.464 375.390,1645.218 373.705,1644.479 371.872,1644.327 370.088,1644.778 368.548,1645.785 367.418,1647.236 366.821,1648.976 366.821,1650.816 367.418,1652.556 368.548,1654.008 370.088,1655.014 371.872,1655.466"/>
      <polygon points="215.038,1654.581 216.477,1653.373 217.416,1651.746 217.743,1649.896 217.416,1648.046 216.477,1646.419 215.038,1645.212 213.273,1644.569 211.394,1644.569 209.629,1645.212 208.190,1646.419 207.250,1648.046 206.924,1649.896 207.250,1651.746 208.190,1653.373 209.629,1654.581 211.394,1655.223 213.273,1655.223"/>
      <polygon points="394.991,1654.500 396.406,1653.313 397.329,1651.714 397.650,1649.896 397.329,1648.078 396.406,1646.479 394.991,1645.292 393.256,1644.661 391.410,1644.661 389.675,1645.292 388.261,1646.479 387.338,1648.078 387.017,1649.896 387.338,1651.714 388.261,1653.313 389.675,1654.500 391.410,1655.132 393.256,1655.132"/>
      <polygon points="414.895,1654.333 416.258,1653.189 417.147,1651.648 417.456,1649.896 417.147,1648.144 416.258,1646.603 414.895,1645.460 413.223,1644.851 411.444,1644.851 409.772,1645.460 408.409,1646.603 407.519,1648.144 407.211,1649.896 407.519,1651.648 408.409,1653.189 409.772,1654.333 411.444,1654.941 413.223,1654.941"/>
      <polygon points="194.895,1654.333 196.258,1653.189 197.147,1651.648 197.456,1649.896 197.147,1648.144 196.258,1646.603 194.895,1645.460 193.223,1644.851 191.444,1644.851 189.772,1645.460 188.409,1646.603 187.519,1648.144 187.211,1649.896 187.519,1651.648 188.409,1653.189 189.772,1654.333 191.444,1654.941 193.223,1654.941"/>
      <polygon points="174.526,1654.299 175.968,1653.210 176.920,1651.673 177.252,1649.896 176.920,1648.119 175.968,1646.582 174.526,1645.493 172.787,1644.998 170.987,1645.165 169.369,1645.971 168.151,1647.307 167.498,1648.992 167.498,1650.800 168.151,1652.486 169.369,1653.822 170.987,1654.627 172.787,1654.794"/>
      <polygon points="434.479,1654.204 435.890,1653.139 436.821,1651.635 437.146,1649.896 436.821,1648.158 435.890,1646.654 434.479,1645.588 432.777,1645.104 431.016,1645.267 429.433,1646.055 428.241,1647.363 427.603,1649.012 427.603,1650.781 428.241,1652.430 429.433,1653.737 431.016,1654.525 432.777,1654.688"/>
      <polygon points="154.001,1653.922 155.415,1652.977 156.359,1651.564 156.691,1649.896 156.359,1648.229 155.415,1646.815 154.001,1645.870 152.333,1645.539 150.666,1645.870 149.252,1646.815 148.308,1648.229 147.976,1649.896 148.308,1651.564 149.252,1652.977 150.666,1653.922 152.333,1654.254"/>
      <polygon points="453.906,1653.693 455.239,1652.802 456.130,1651.469 456.443,1649.896 456.130,1648.324 455.239,1646.990 453.906,1646.100 452.333,1645.787 450.761,1646.100 449.428,1646.990 448.537,1648.324 448.224,1649.896 448.537,1651.469 449.428,1652.802 450.761,1653.693 452.333,1654.006"/>
      <polygon points="134.465,1652.570 135.414,1651.380 135.753,1649.896 135.414,1648.413 134.465,1647.223 133.094,1646.563 131.572,1646.563 130.201,1647.223 129.253,1648.413 128.914,1649.896 129.253,1651.380 130.201,1652.570 131.572,1653.230 133.094,1653.230"/>
      <polygon points="474.273,1652.329 475.136,1651.246 475.444,1649.896 475.136,1648.546 474.273,1647.464 473.026,1646.863 471.641,1646.863 470.394,1647.464 469.530,1648.546 469.222,1649.896 469.530,1651.246 470.394,1652.329 471.641,1652.929 473.026,1652.929"/>
      <polygon points="113.455,1651.838 114.275,1651.017 114.576,1649.896 114.275,1648.775 113.455,1647.954 112.333,1647.654 111.212,1647.954 110.391,1648.775 110.091,1649.896 110.391,1651.017 111.212,1651.838 112.333,1652.139"/>
      <polygon points="493.333,1651.628 494.065,1650.896 494.333,1649.896 494.065,1648.896 493.333,1648.164 492.333,1647.896 491.333,1648.164 490.601,1648.896 490.333,1649.896 490.601,1650.896 491.333,1651.628 492.333,1651.896"/>
      <polygon points="294.279,1675.884 296.034,1674.990 297.427,1673.597 298.321,1671.842 298.630,1669.896 298.321,1667.951 297.427,1666.195 296.034,1664.802 294.279,1663.908 292.333,1663.600 290.388,1663.908 288.632,1664.802 287.240,1666.195 286.345,1667.951 286.037,1669.896 286.345,1671.842 287.240,1673.597 288.632,1674.990 290.388,1675.884 292.333,1676.192"/>
      <polygon points="314.257,1675.816 315.992,1674.932 317.369,1673.555 318.253,1671.820 318.558,1669.896 318.253,1667.973 317.369,1666.237 315.992,1664.860 314.257,1663.976 312.333,1663.671 310.410,1663.976 308.675,1664.860 307.297,1666.237 306.413,1667.973 306.109,1669.896 306.413,1671.820 307.297,1673.555 308.675,1674.932 310.410,1675.816 312.333,1676.121"/>
      <polygon points="274.211,1675.675 275.905,1674.812 277.249,1673.468 278.113,1671.774 278.410,1669.896 278.113,1668.018 277.249,1666.324 275.905,1664.980 274.211,1664.117 272.333,1663.820 270.456,1664.117 268.762,1664.980 267.417,1666.324 266.554,1668.018 266.257,1669.896 266.554,1671.774 267.417,1673.468 268.762,1674.812 270.456,1675.675 272.333,1675.973"/>
      <polygon points="334.187,1675.602 335.860,1674.750 337.187,1673.423 338.040,1671.750 338.333,1669.896 338.040,1668.042 337.187,1666.369 335.860,1665.042 334.187,1664.190 332.333,1663.896 330.479,1664.190 328.807,1665.042 327.479,1666.369 326.627,1668.042 326.333,1669.896 326.627,1671.750 327.479,1673.423 328.807,1674.750 330.479,1675.602 332.333,1675.896"/>
      <polygon points="353.767,1675.559 355.528,1674.786 356.943,1673.484 357.858,1671.793 358.175,1669.896 357.858,1668.000 356.943,1666.308 355.528,1665.006 353.767,1664.234 351.851,1664.075 349.987,1664.547 348.377,1665.599 347.196,1667.116 346.572,1668.935 346.572,1670.858 347.196,1672.676 348.377,1674.194 349.987,1675.245 351.851,1675.717"/>
      <polygon points="253.767,1675.559 255.528,1674.786 256.943,1673.484 257.858,1671.793 258.175,1669.896 257.858,1668.000 256.943,1666.308 255.528,1665.006 253.767,1664.234 251.851,1664.075 249.987,1664.547 248.377,1665.599 247.196,1667.116 246.572,1668.935 246.572,1670.858 247.196,1672.676 248.377,1674.194 249.987,1675.245 251.851,1675.717"/>
      <polygon points="233.726,1675.397 235.437,1674.647 236.812,1673.382 237.701,1671.739 238.008,1669.896 237.701,1668.054 236.812,1666.411 235.437,1665.145 233.726,1664.395 231.865,1664.241 230.054,1664.699 228.490,1665.721 227.343,1667.195 226.736,1668.962 226.736,1670.830 227.343,1672.597 228.490,1674.071 230.054,1675.093 231.865,1675.552"/>
      <polygon points="373.705,1675.314 375.390,1674.575 376.743,1673.329 377.619,1671.711 377.922,1669.896 377.619,1668.082 376.743,1666.464 375.390,1665.218 373.705,1664.479 371.872,1664.327 370.088,1664.778 368.548,1665.785 367.418,1667.236 366.821,1668.976 366.821,1670.816 367.418,1672.556 368.548,1674.008 370.088,1675.014 371.872,1675.466"/>
      <polygon points="215.038,1674.581 216.477,1673.373 217.416,1671.746 217.743,1669.896 217.416,1668.046 216.477,1666.419 215.038,1665.212 213.273,1664.569 211.394,1664.569 209.629,1665.212 208.190,1666.419 207.250,1668.046 206.924,1669.896 207.250,1671.746 208.190,1673.373 209.629,1674.581 211.394,1675.223 213.273,1675.223"/>
      <polygon points="394.991,1674.500 396.406,1673.313 397.329,1671.714 397.650,1669.896 397.329,1668.078 396.406,1666.479 394.991,1665.292 393.256,1664.661 391.410,1664.661 389.675,1665.292 388.261,1666.479 387.338,1668.078 387.017,1669.896 387.338,1671.714 388.261,1673.313 389.675,1674.500 391.410,1675.132 393.256,1675.132"/>
      <polygon points="194.895,1674.333 196.258,1673.189 197.147,1671.648 197.456,1669.896 197.147,1668.144 196.258,1666.603 194.895,1665.460 193.223,1664.851 191.444,1664.851 189.772,1665.460 188.409,1666.603 187.519,1668.144 187.211,1669.896 187.519,1671.648 188.409,1673.189 189.772,1674.333 191.444,1674.941 193.223,1674.941"/>
      <polygon points="414.895,1674.333 416.258,1673.189 417.147,1671.648 417.456,1669.896 417.147,1668.144 416.258,1666.603 414.895,1665.460 413.223,1664.851 411.444,1664.851 409.772,1665.460 408.409,1666.603 407.519,1668.144 407.211,1669.896 407.519,1671.648 408.409,1673.189 409.772,1674.333 411.444,1674.941 413.223,1674.941"/>
      <polygon points="174.526,1674.299 175.968,1673.210 176.920,1671.673 177.252,1669.896 176.920,1668.119 175.968,1666.582 174.526,1665.493 172.787,1664.998 170.987,1665.165 169.369,1665.971 168.151,1667.307 167.498,1668.992 167.498,1670.800 168.151,1672.486 169.369,1673.822 170.987,1674.627 172.787,1674.794"/>
      <polygon points="434.479,1674.204 435.890,1673.139 436.821,1671.635 437.146,1669.896 436.821,1668.158 435.890,1666.654 434.479,1665.588 432.777,1665.104 431.016,1665.267 429.433,1666.055 428.241,1667.363 427.603,1669.012 427.603,1670.781 428.241,1672.430 429.433,1673.737 431.016,1674.525 432.777,1674.688"/>
      <polygon points="154.001,1673.922 155.415,1672.977 156.359,1671.564 156.691,1669.896 156.359,1668.229 155.415,1666.815 154.001,1665.870 152.333,1665.539 150.666,1665.870 149.252,1666.815 148.308,1668.229 147.976,1669.896 148.308,1671.564 149.252,1672.977 150.666,1673.922 152.333,1674.254"/>
      <polygon points="453.906,1673.693 455.239,1672.802 456.130,1671.469 456.443,1669.896 456.130,1668.324 455.239,1666.990 453.906,1666.100 452.333,1665.787 450.761,1666.100 449.428,1666.990 448.537,1668.324 448.224,1669.896 448.537,1671.469 449.428,1672.802 450.761,1673.693 452.333,1674.006"/>
      <polygon points="134.465,1672.570 135.414,1671.380 135.753,1669.896 135.414,1668.413 134.465,1667.223 133.094,1666.563 131.572,1666.563 130.201,1667.223 129.253,1668.413 128.914,1669.896 129.253,1671.380 130.201,1672.570 131.572,1673.230 133.094,1673.230"/>
      <polygon points="474.273,1672.329 475.136,1671.246 475.444,1669.896 475.136,1668.546 474.273,1667.464 473.026,1666.863 471.641,1666.863 470.394,1667.464 469.530,1668.546 469.222,1669.896 469.530,1671.246 470.394,1672.329 471.641,1672.929 473.026,1672.929"/>
      <polygon points="113.455,1671.838 114.275,1671.017 114.576,1669.896 114.275,1668.775 113.455,1667.954 112.333,1667.654 111.212,1667.954 110.391,1668.775 110.091,1669.896 110.391,1671.017 111.212,1671.838 112.333,1672.139"/>
      <polygon points="493.333,1671.628 494.065,1670.896 494.333,1669.896 494.065,1668.896 493.333,1668.164 492.333,1667.896 491.333,1668.164 490.601,1668.896 490.333,1669.896 490.601,1670.896 491.333,1671.628 492.333,1671.896"/>
    </g>
    <g stroke="#EF6C00" stroke-width="0.4" fill="none">
    </g>
  </g>
  <g stroke="#000000" stroke-width="0.4">
    <line x1="500.000" y1="1000.000" x2="1500.000" y2="1000.000"/>
  </g>
  <g stroke="#000000" stroke-width="0.4">
    <line x1="1000.000" y1="500.000" x2="1000.000" y2="1500.000"/>
  </g>
  <circle cx="1000.000" cy="1000.000" r="1000.000" stroke="red" stroke-width="1" fill="none"/>
  </g>
</svg>
