<?xml version="1.0" encoding="UTF-8"?>
<svg xmlns="http://www.w3.org/2000/svg" version="1.1" width="2000" height="2000">
  <g fill="none" stroke-linecap="round" stroke-linejoin="round">
  <text x="10" y="20" font-size="24" fill="#555">Layer 197 Z=51.400 mm</text>
  <g transform="translate(700.000,-602.229)">
    <g stroke="#2E7D32" stroke-width="0.4">
      <line x1="579.066" y1="1629.867" x2="529.066" y2="1629.867"/>
      <line x1="579.066" y1="1630.867" x2="529.066" y2="1630.867"/>
      <line x1="579.066" y1="1631.867" x2="529.066" y2="1631.867"/>
      <line x1="579.066" y1="1632.867" x2="529.066" y2="1632.867"/>
      <line x1="579.066" y1="1633.867" x2="529.066" y2="1633.867"/>
      <line x1="579.066" y1="1634.867" x2="529.066" y2="1634.867"/>
      <line x1="579.066" y1="1635.867" x2="529.066" y2="1635.867"/>
      <line x1="579.066" y1="1636.867" x2="529.066" y2="1636.867"/>
      <line x1="579.066" y1="1637.867" x2="529.066" y2="1637.867"/>
      <line x1="579.066" y1="1638.867" x2="529.066" y2="1638.867"/>
      <line x1="579.066" y1="1639.867" x2="529.066" y2="1639.867"/>
      <line x1="579.066" y1="1640.867" x2="529.066" y2="1640.867"/>
      <line x1="579.066" y1="1641.867" x2="529.066" y2="1641.867"/>
      <line x1="579.066" y1="1642.867" x2="529.066" y2="1642.867"/>
      <line x1="579.066" y1="1643.867" x2="529.066" y2="1643.867"/>
      <line x1="579.066" y1="1644.867" x2="529.066" y2="1644.867"/>
      <line x1="579.066" y1="1645.867" x2="529.066" y2="1645.867"/>
      <line x1="579.066" y1="1646.867" x2="529.066" y2="1646.867"/>
      <line x1="579.066" y1="1647.867" x2="529.066" y2="1647.867"/>
      <line x1="579.066" y1="1648.867" x2="529.066" y2="1648.867"/>
      <line x1="579.066" y1="1649.867" x2="529.066" y2="1649.867"/>
      <line x1="579.066" y1="1650.867" x2="529.066" y2="1650.867"/>
      <line x1="579.066" y1="1651.867" x2="529.066" y2="1651.867"/>
      <line x1="579.066" y1="1652.867" x2="529.066" y2="1652.867"/>
      <line x1="579.066" y1="1653.867" x2="529.066" y2="1653.867"/>
      <line x1="579.066" y1="1654.867" x2="529.066" y2="1654.867"/>
      <line x1="579.066" y1="1655.867" x2="529.066" y2="1655.867"/>
      <line x1="579.066" y1="1656.867" x2="529.066" y2="1656.867"/>
      <line x1="579.066" y1="1657.867" x2="529.066" y2="1657.867"/>
      <line x1="579.066" y1="1658.867" x2="529.066" y2="1658.867"/>
      <line x1="579.066" y1="1659.867" x2="529.066" y2="1659.867"/>
      <line x1="579.066" y1="1660.867" x2="529.066" y2="1660.867"/>
      <line x1="579.066" y1="1661.867" x2="529.066" y2="1661.867"/>
      <line x1="579.066" y1="1662.867" x2="529.066" y2="1662.867"/>
      <line x1="579.066" y1="1663.867" x2="529.066" y2="1663.867"/>
      <line x1="579.066" y1="1664.867" x2="529.066" y2="1664.867"/>
      <line x1="579.066" y1="1665.867" x2="529.066" y2="1665.867"/>
      <line x1="579.066" y1="1666.867" x2="529.066" y2="1666.867"/>
      <line x1="579.066" y1="1667.867" x2="529.066" y2="1667.867"/>
      <line x1="579.066" y1="1668.867" x2="529.066" y2="1668.867"/>
      <line x1="579.066" y1="1669.867" x2="529.066" y2="1669.867"/>
      <line x1="579.066" y1="1670.867" x2="529.066" y2="1670.867"/>
      <line x1="579.066" y1="1671.867" x2="529.066" y2="1671.867"/>
      <line x1="579.066" y1="1672.867" x2="529.066" y2="1672.867"/>
      <line x1="579.066" y1="1673.867" x2="529.066" y2="1673.867"/>
      <line x1="579.066" y1="1674.867" x2="529.066" y2="1674.867"/>
      <line x1="579.066" y1="1675.867" x2="529.066" y2="1675.867"/>
      <line x1="579.066" y1="1676.867" x2="529.066" y2="1676.867"/>
      <line x1="579.066" y1="1677.867" x2="529.066" y2="1677.867"/>
      <line x1="579.066" y1="1678.867" x2="529.066" y2="1678.867"/>
      <line x1="597.000" y1="1629.867" x2="579.166" y2="1629.867"/>
      <line x1="597.000" y1="1630.867" x2="579.166" y2="1630.867"/>
      <line x1="597.000" y1="1631.867" x2="579.166" y2="1631.867"/>
      <line x1="597.000" y1="1632.867" x2="579.166" y2="1632.867"/>
      <line x1="597.000" y1="1633.867" x2="579.166" y2="1633.867"/>
      <line x1="597.000" y1="1634.867" x2="579.166" y2="1634.867"/>
      <line x1="597.000" y1="1635.867" x2="579.166" y2="1635.867"/>
      <line x1="597.000" y1="1636.867" x2="579.166" y2="1636.867"/>
      <line x1="597.000" y1="1637.867" x2="579.166" y2="1637.867"/>
      <line x1="597.000" y1="1638.867" x2="579.166" y2="1638.867"/>
      <line x1="597.000" y1="1639.867" x2="579.166" y2="1639.867"/>
      <line x1="597.000" y1="1640.867" x2="579.166" y2="1640.867"/>
      <line x1="597.000" y1="1641.867" x2="579.166" y2="1641.867"/>
      <line x1="597.000" y1="1642.867" x2="579.166" y2="1642.867"/>
      <line x1="597.000" y1="1643.867" x2="579.166" y2="1643.867"/>
      <line x1="597.000" y1="1644.867" x2="579.166" y2="1644.867"/>
      <line x1="597.000" y1="1645.867" x2="579.166" y2="1645.867"/>
      <line x1="597.000" y1="1646.867" x2="579.166" y2="1646.867"/>
      <line x1="597.000" y1="1647.867" x2="579.166" y2="1647.867"/>
      <line x1="597.000" y1="1648.867" x2="579.166" y2="1648.867"/>
      <line x1="597.000" y1="1649.867" x2="579.166" y2="1649.867"/>
      <line x1="597.000" y1="1650.867" x2="579.166" y2="1650.867"/>
      <line x1="597.000" y1="1651.867" x2="579.166" y2="1651.867"/>
      <line x1="597.000" y1="1652.867" x2="579.166" y2="1652.867"/>
      <line x1="597.000" y1="1653.867" x2="579.166" y2="1653.867"/>
      <line x1="597.000" y1="1654.867" x2="579.166" y2="1654.867"/>
      <line x1="597.000" y1="1655.867" x2="579.166" y2="1655.867"/>
      <line x1="597.000" y1="1656.867" x2="579.166" y2="1656.867"/>
      <line x1="597.000" y1="1657.867" x2="579.166" y2="1657.867"/>
      <line x1="597.000" y1="1658.867" x2="579.166" y2="1658.867"/>
      <line x1="597.000" y1="1659.867" x2="579.166" y2="1659.867"/>
      <line x1="597.000" y1="1660.867" x2="579.166" y2="1660.867"/>
      <line x1="597.000" y1="1661.867" x2="579.166" y2="1661.867"/>
      <line x1="597.000" y1="1662.867" x2="579.166" y2="1662.867"/>
      <line x1="597.000" y1="1663.867" x2="579.166" y2="1663.867"/>
      <line x1="597.000" y1="1664.867" x2="579.166" y2="1664.867"/>
      <line x1="597.000" y1="1665.867" x2="579.166" y2="1665.867"/>
      <line x1="597.000" y1="1666.867" x2="579.166" y2="1666.867"/>
      <line x1="597.000" y1="1667.867" x2="579.166" y2="1667.867"/>
      <line x1="597.000" y1="1668.867" x2="579.166" y2="1668.867"/>
      <line x1="597.000" y1="1669.867" x2="579.166" y2="1669.867"/>
      <line x1="597.000" y1="1670.867" x2="579.166" y2="1670.867"/>
      <line x1="597.000" y1="1671.867" x2="579.166" y2="1671.867"/>
      <line x1="597.000" y1="1672.867" x2="579.166" y2="1672.867"/>
      <line x1="597.000" y1="1673.867" x2="579.166" y2="1673.867"/>
      <line x1="597.000" y1="1674.867" x2="579.166" y2="1674.867"/>
      <line x1="597.000" y1="1675.867" x2="579.166" y2="1675.867"/>
      <line x1="597.000" y1="1676.867" x2="579.166" y2="1676.867"/>
      <line x1="597.000" y1="1677.867" x2="579.166" y2="1677.867"/>
      <line x1="597.000" y1="1678.867" x2="579.166" y2="1678.867"/>
      <line x1="579.066" y1="1579.867" x2="529.066" y2="1579.867"/>
      <line x1="579.066" y1="1580.867" x2="529.066" y2="1580.867"/>
      <line x1="579.066" y1="1581.867" x2="529.066" y2="1581.867"/>
      <line x1="579.066" y1="1582.867" x2="529.066" y2="1582.867"/>
      <line x1="579.066" y1="1583.867" x2="529.066" y2="1583.867"/>
      <line x1="579.066" y1="1584.867" x2="529.066" y2="1584.867"/>
      <line x1="579.066" y1="1585.867" x2="529.066" y2="1585.867"/>
      <line x1="579.066" y1="1586.867" x2="529.066" y2="1586.867"/>
      <line x1="579.066" y1="1587.867" x2="529.066" y2="1587.867"/>
      <line x1="579.066" y1="1588.867" x2="529.066" y2="1588.867"/>
      <line x1="579.066" y1="1589.867" x2="529.066" y2="1589.867"/>
      <line x1="579.066" y1="1590.867" x2="529.066" y2="1590.867"/>
      <line x1="579.066" y1="1591.867" x2="529.066" y2="1591.867"/>
      <line x1="579.066" y1="1592.867" x2="529.066" y2="1592.867"/>
      <line x1="579.066" y1="1593.867" x2="529.066" y2="1593.867"/>
      <line x1="579.066" y1="1594.867" x2="529.066" y2="1594.867"/>
      <line x1="579.066" y1="1595.867" x2="529.066" y2="1595.867"/>
      <line x1="579.066" y1="1596.867" x2="529.066" y2="1596.867"/>
      <line x1="579.066" y1="1597.867" x2="529.066" y2="1597.867"/>
      <line x1="579.066" y1="1598.867" x2="529.066" y2="1598.867"/>
      <line x1="579.066" y1="1599.867" x2="529.066" y2="1599.867"/>
      <line x1="579.066" y1="1600.867" x2="529.066" y2="1600.867"/>
      <line x1="579.066" y1="1601.867" x2="529.066" y2="1601.867"/>
      <line x1="579.066" y1="1602.867" x2="529.066" y2="1602.867"/>
      <line x1="579.066" y1="1603.867" x2="529.066" y2="1603.867"/>
      <line x1="579.066" y1="1604.867" x2="529.066" y2="1604.867"/>
      <line x1="579.066" y1="1605.867" x2="529.066" y2="1605.867"/>
      <line x1="579.066" y1="1606.867" x2="529.066" y2="1606.867"/>
      <line x1="579.066" y1="1607.867" x2="529.066" y2="1607.867"/>
      <line x1="579.066" y1="1608.867" x2="529.066" y2="1608.867"/>
      <line x1="579.066" y1="1609.867" x2="529.066" y2="1609.867"/>
      <line x1="579.066" y1="1610.867" x2="529.066" y2="1610.867"/>
      <line x1="579.066" y1="1611.867" x2="529.066" y2="1611.867"/>
      <line x1="579.066" y1="1612.867" x2="529.066" y2="1612.867"/>
      <line x1="579.066" y1="1613.867" x2="529.066" y2="1613.867"/>
      <line x1="579.066" y1="1614.867" x2="529.066" y2="1614.867"/>
      <line x1="579.066" y1="1615.867" x2="529.066" y2="1615.867"/>
      <line x1="579.066" y1="1616.867" x2="529.066" y2="1616.867"/>
      <line x1="579.066" y1="1617.867" x2="529.066" y2="1617.867"/>
      <line x1="579.066" y1="1618.867" x2="529.066" y2="1618.867"/>
      <line x1="579.066" y1="1619.867" x2="529.066" y2="1619.867"/>
      <line x1="579.066" y1="1620.867" x2="529.066" y2="1620.867"/>
      <line x1="579.066" y1="1621.867" x2="529.066" y2="1621.867"/>
      <line x1="579.066" y1="1622.867" x2="529.066" y2="1622.867"/>
      <line x1="579.066" y1="1623.867" x2="529.066" y2="1623.867"/>
      <line x1="579.066" y1="1624.867" x2="529.066" y2="1624.867"/>
      <line x1="579.066" y1="1625.867" x2="529.066" y2="1625.867"/>
      <line x1="579.066" y1="1626.867" x2="529.066" y2="1626.867"/>
      <line x1="579.066" y1="1627.867" x2="529.066" y2="1627.867"/>
      <line x1="579.066" y1="1628.867" x2="529.066" y2="1628.867"/>
      <line x1="597.000" y1="1579.867" x2="579.166" y2="1579.867"/>
      <line x1="597.000" y1="1580.867" x2="579.166" y2="1580.867"/>
      <line x1="597.000" y1="1581.867" x2="579.166" y2="1581.867"/>
      <line x1="597.000" y1="1582.867" x2="579.166" y2="1582.867"/>
      <line x1="597.000" y1="1583.867" x2="579.166" y2="1583.867"/>
      <line x1="597.000" y1="1584.867" x2="579.166" y2="1584.867"/>
      <line x1="597.000" y1="1585.867" x2="579.166" y2="1585.867"/>
      <line x1="597.000" y1="1586.867" x2="579.166" y2="1586.867"/>
      <line x1="597.000" y1="1587.867" x2="579.166" y2="1587.867"/>
      <line x1="597.000" y1="1588.867" x2="579.166" y2="1588.867"/>
      <line x1="597.000" y1="1589.867" x2="579.166" y2="1589.867"/>
      <line x1="597.000" y1="1590.867" x2="579.166" y2="1590.867"/>
      <line x1="597.000" y1="1591.867" x2="579.166" y2="1591.867"/>
      <line x1="597.000" y1="1592.867" x2="579.166" y2="1592.867"/>
      <line x1="597.000" y1="1593.867" x2="579.166" y2="1593.867"/>
      <line x1="597.000" y1="1594.867" x2="579.166" y2="1594.867"/>
      <line x1="597.000" y1="1595.867" x2="579.166" y2="1595.867"/>
      <line x1="597.000" y1="1596.867" x2="579.166" y2="1596.867"/>
      <line x1="597.000" y1="1597.867" x2="579.166" y2="1597.867"/>
      <line x1="597.000" y1="1598.867" x2="579.166" y2="1598.867"/>
      <line x1="597.000" y1="1599.867" x2="579.166" y2="1599.867"/>
      <line x1="597.000" y1="1600.867" x2="579.166" y2="1600.867"/>
      <line x1="597.000" y1="1601.867" x2="579.166" y2="1601.867"/>
      <line x1="597.000" y1="1602.867" x2="579.166" y2="1602.867"/>
      <line x1="597.000" y1="1603.867" x2="579.166" y2="1603.867"/>
      <line x1="597.000" y1="1604.867" x2="579.166" y2="1604.867"/>
      <line x1="597.000" y1="1605.867" x2="579.166" y2="1605.867"/>
      <line x1="597.000" y1="1606.867" x2="579.166" y2="1606.867"/>
      <line x1="597.000" y1="1607.867" x2="579.166" y2="1607.867"/>
      <line x1="597.000" y1="1608.867" x2="579.166" y2="1608.867"/>
      <line x1="597.000" y1="1609.867" x2="579.166" y2="1609.867"/>
      <line x1="597.000" y1="1610.867" x2="579.166" y2="1610.867"/>
      <line x1="597.000" y1="1611.867" x2="579.166" y2="1611.867"/>
      <line x1="597.000" y1="1612.867" x2="579.166" y2="1612.867"/>
      <line x1="597.000" y1="1613.867" x2="579.166" y2="1613.867"/>
      <line x1="597.000" y1="1614.867" x2="579.166" y2="1614.867"/>
      <line x1="597.000" y1="1615.867" x2="579.166" y2="1615.867"/>
      <line x1="597.000" y1="1616.867" x2="579.166" y2="1616.867"/>
      <line x1="597.000" y1="1617.867" x2="579.166" y2="1617.867"/>
      <line x1="597.000" y1="1618.867" x2="579.166" y2="1618.867"/>
      <line x1="597.000" y1="1619.867" x2="579.166" y2="1619.867"/>
      <line x1="597.000" y1="1620.867" x2="579.166" y2="1620.867"/>
      <line x1="597.000" y1="1621.867" x2="579.166" y2="1621.867"/>
      <line x1="597.000" y1="1622.867" x2="579.166" y2="1622.867"/>
      <line x1="597.000" y1="1623.867" x2="579.166" y2="1623.867"/>
      <line x1="597.000" y1="1624.867" x2="579.166" y2="1624.867"/>
      <line x1="597.000" y1="1625.867" x2="579.166" y2="1625.867"/>
      <line x1="597.000" y1="1626.867" x2="579.166" y2="1626.867"/>
      <line x1="597.000" y1="1627.867" x2="579.166" y2="1627.867"/>
      <line x1="597.000" y1="1628.867" x2="579.166" y2="1628.867"/>
      <line x1="579.066" y1="1529.867" x2="529.066" y2="1529.867"/>
      <line x1="579.066" y1="1530.867" x2="529.066" y2="1530.867"/>
      <line x1="579.066" y1="1531.867" x2="529.066" y2="1531.867"/>
      <line x1="579.066" y1="1532.867" x2="529.066" y2="1532.867"/>
      <line x1="579.066" y1="1533.867" x2="529.066" y2="1533.867"/>
      <line x1="579.066" y1="1534.867" x2="529.066" y2="1534.867"/>
      <line x1="579.066" y1="1535.867" x2="529.066" y2="1535.867"/>
      <line x1="579.066" y1="1536.867" x2="529.066" y2="1536.867"/>
      <line x1="579.066" y1="1537.867" x2="529.066" y2="1537.867"/>
      <line x1="579.066" y1="1538.867" x2="529.066" y2="1538.867"/>
      <line x1="579.066" y1="1539.867" x2="529.066" y2="1539.867"/>
      <line x1="579.066" y1="1540.867" x2="529.066" y2="1540.867"/>
      <line x1="579.066" y1="1541.867" x2="529.066" y2="1541.867"/>
      <line x1="579.066" y1="1542.867" x2="529.066" y2="1542.867"/>
      <line x1="579.066" y1="1543.867" x2="529.066" y2="1543.867"/>
      <line x1="579.066" y1="1544.867" x2="529.066" y2="1544.867"/>
      <line x1="579.066" y1="1545.867" x2="529.066" y2="1545.867"/>
      <line x1="579.066" y1="1546.867" x2="529.066" y2="1546.867"/>
      <line x1="579.066" y1="1547.867" x2="529.066" y2="1547.867"/>
      <line x1="579.066" y1="1548.867" x2="529.066" y2="1548.867"/>
      <line x1="579.066" y1="1549.867" x2="529.066" y2="1549.867"/>
      <line x1="579.066" y1="1550.867" x2="529.066" y2="1550.867"/>
      <line x1="579.066" y1="1551.867" x2="529.066" y2="1551.867"/>
      <line x1="579.066" y1="1552.867" x2="529.066" y2="1552.867"/>
      <line x1="579.066" y1="1553.867" x2="529.066" y2="1553.867"/>
      <line x1="579.066" y1="1554.867" x2="529.066" y2="1554.867"/>
      <line x1="579.066" y1="1555.867" x2="529.066" y2="1555.867"/>
      <line x1="579.066" y1="1556.867" x2="529.066" y2="1556.867"/>
      <line x1="579.066" y1="1557.867" x2="529.066" y2="1557.867"/>
      <line x1="579.066" y1="1558.867" x2="529.066" y2="1558.867"/>
      <line x1="579.066" y1="1559.867" x2="529.066" y2="1559.867"/>
      <line x1="579.066" y1="1560.867" x2="529.066" y2="1560.867"/>
      <line x1="579.066" y1="1561.867" x2="529.066" y2="1561.867"/>
      <line x1="579.066" y1="1562.867" x2="529.066" y2="1562.867"/>
      <line x1="579.066" y1="1563.867" x2="529.066" y2="1563.867"/>
      <line x1="579.066" y1="1564.867" x2="529.066" y2="1564.867"/>
      <line x1="579.066" y1="1565.867" x2="529.066" y2="1565.867"/>
      <line x1="579.066" y1="1566.867" x2="529.066" y2="1566.867"/>
      <line x1="579.066" y1="1567.867" x2="529.066" y2="1567.867"/>
      <line x1="579.066" y1="1568.867" x2="529.066" y2="1568.867"/>
      <line x1="579.066" y1="1569.867" x2="529.066" y2="1569.867"/>
      <line x1="579.066" y1="1570.867" x2="529.066" y2="1570.867"/>
      <line x1="579.066" y1="1571.867" x2="529.066" y2="1571.867"/>
      <line x1="579.066" y1="1572.867" x2="529.066" y2="1572.867"/>
      <line x1="579.066" y1="1573.867" x2="529.066" y2="1573.867"/>
      <line x1="579.066" y1="1574.867" x2="529.066" y2="1574.867"/>
      <line x1="579.066" y1="1575.867" x2="529.066" y2="1575.867"/>
      <line x1="579.066" y1="1576.867" x2="529.066" y2="1576.867"/>
      <line x1="579.066" y1="1577.867" x2="529.066" y2="1577.867"/>
      <line x1="579.066" y1="1578.867" x2="529.066" y2="1578.867"/>
      <line x1="597.000" y1="1529.867" x2="579.166" y2="1529.867"/>
      <line x1="597.000" y1="1530.867" x2="579.166" y2="1530.867"/>
      <line x1="597.000" y1="1531.867" x2="579.166" y2="1531.867"/>
      <line x1="597.000" y1="1532.867" x2="579.166" y2="1532.867"/>
      <line x1="597.000" y1="1533.867" x2="579.166" y2="1533.867"/>
      <line x1="597.000" y1="1534.867" x2="579.166" y2="1534.867"/>
      <line x1="597.000" y1="1535.867" x2="579.166" y2="1535.867"/>
      <line x1="597.000" y1="1536.867" x2="579.166" y2="1536.867"/>
      <line x1="597.000" y1="1537.867" x2="579.166" y2="1537.867"/>
      <line x1="597.000" y1="1538.867" x2="579.166" y2="1538.867"/>
      <line x1="597.000" y1="1539.867" x2="579.166" y2="1539.867"/>
      <line x1="597.000" y1="1540.867" x2="579.166" y2="1540.867"/>
      <line x1="597.000" y1="1541.867" x2="579.166" y2="1541.867"/>
      <line x1="597.000" y1="1542.867" x2="579.166" y2="1542.867"/>
      <line x1="597.000" y1="1543.867" x2="579.166" y2="1543.867"/>
      <line x1="597.000" y1="1544.867" x2="579.166" y2="1544.867"/>
      <line x1="597.000" y1="1545.867" x2="579.166" y2="1545.867"/>
      <line x1="597.000" y1="1546.867" x2="579.166" y2="1546.867"/>
      <line x1="597.000" y1="1547.867" x2="579.166" y2="1547.867"/>
      <line x1="597.000" y1="1548.867" x2="579.166" y2="1548.867"/>
      <line x1="597.000" y1="1549.867" x2="579.166" y2="1549.867"/>
      <line x1="597.000" y1="1550.867" x2="579.166" y2="1550.867"/>
      <line x1="597.000" y1="1551.867" x2="579.166" y2="1551.867"/>
      <line x1="597.000" y1="1552.867" x2="579.166" y2="1552.867"/>
      <line x1="597.000" y1="1553.867" x2="579.166" y2="1553.867"/>
      <line x1="597.000" y1="1554.867" x2="579.166" y2="1554.867"/>
      <line x1="597.000" y1="1555.867" x2="579.166" y2="1555.867"/>
      <line x1="597.000" y1="1556.867" x2="579.166" y2="1556.867"/>
      <line x1="597.000" y1="1557.867" x2="579.166" y2="1557.867"/>
      <line x1="597.000" y1="1558.867" x2="579.166" y2="1558.867"/>
      <line x1="597.000" y1="1559.867" x2="579.166" y2="1559.867"/>
      <line x1="597.000" y1="1560.867" x2="579.166" y2="1560.867"/>
      <line x1="597.000" y1="1561.867" x2="579.166" y2="1561.867"/>
      <line x1="597.000" y1="1562.867" x2="579.166" y2="1562.867"/>
      <line x1="597.000" y1="1563.867" x2="579.166" y2="1563.867"/>
      <line x1="597.000" y1="1564.867" x2="579.166" y2="1564.867"/>
      <line x1="597.000" y1="1565.867" x2="579.166" y2="1565.867"/>
      <line x1="597.000" y1="1566.867" x2="579.166" y2="1566.867"/>
      <line x1="597.000" y1="1567.867" x2="579.166" y2="1567.867"/>
      <line x1="597.000" y1="1568.867" x2="579.166" y2="1568.867"/>
      <line x1="597.000" y1="1569.867" x2="579.166" y2="1569.867"/>
      <line x1="597.000" y1="1570.867" x2="579.166" y2="1570.867"/>
      <line x1="597.000" y1="1571.867" x2="579.166" y2="1571.867"/>
      <line x1="597.000" y1="1572.867" x2="579.166" y2="1572.867"/>
      <line x1="597.000" y1="1573.867" x2="579.166" y2="1573.867"/>
      <line x1="597.000" y1="1574.867" x2="579.166" y2="1574.867"/>
      <line x1="597.000" y1="1575.867" x2="579.166" y2="1575.867"/>
      <line x1="597.000" y1="1576.867" x2="579.166" y2="1576.867"/>
      <line x1="597.000" y1="1577.867" x2="579.166" y2="1577.867"/>
      <line x1="597.000" y1="1578.867" x2="579.166" y2="1578.867"/>
      <line x1="579.066" y1="1525.867" x2="529.066" y2="1525.867"/>
      <line x1="579.066" y1="1526.867" x2="529.066" y2="1526.867"/>
      <line x1="579.066" y1="1527.867" x2="529.066" y2="1527.867"/>
      <line x1="579.066" y1="1528.867" x2="529.066" y2="1528.867"/>
      <line x1="597.000" y1="1525.867" x2="579.166" y2="1525.867"/>
      <line x1="597.000" y1="1526.867" x2="579.166" y2="1526.867"/>
      <line x1="597.000" y1="1527.867" x2="579.166" y2="1527.867"/>
      <line x1="597.000" y1="1528.867" x2="579.166" y2="1528.867"/>
      <line x1="53.000" y1="1629.867" x2="3.000" y2="1629.867"/>
      <line x1="53.000" y1="1630.867" x2="3.000" y2="1630.867"/>
      <line x1="53.000" y1="1631.867" x2="3.000" y2="1631.867"/>
      <line x1="53.000" y1="1632.867" x2="3.000" y2="1632.867"/>
      <line x1="53.000" y1="1633.867" x2="3.000" y2="1633.867"/>
      <line x1="53.000" y1="1634.867" x2="3.000" y2="1634.867"/>
      <line x1="53.000" y1="1635.867" x2="3.000" y2="1635.867"/>
      <line x1="53.000" y1="1636.867" x2="3.000" y2="1636.867"/>
      <line x1="53.000" y1="1637.867" x2="3.000" y2="1637.867"/>
      <line x1="53.000" y1="1638.867" x2="3.000" y2="1638.867"/>
      <line x1="53.000" y1="1639.867" x2="3.000" y2="1639.867"/>
      <line x1="53.000" y1="1640.867" x2="3.000" y2="1640.867"/>
      <line x1="53.000" y1="1641.867" x2="3.000" y2="1641.867"/>
      <line x1="53.000" y1="1642.867" x2="3.000" y2="1642.867"/>
      <line x1="53.000" y1="1643.867" x2="3.000" y2="1643.867"/>
      <line x1="53.000" y1="1644.867" x2="3.000" y2="1644.867"/>
      <line x1="53.000" y1="1645.867" x2="3.000" y2="1645.867"/>
      <line x1="53.000" y1="1646.867" x2="3.000" y2="1646.867"/>
      <line x1="53.000" y1="1647.867" x2="3.000" y2="1647.867"/>
      <line x1="53.000" y1="1648.867" x2="3.000" y2="1648.867"/>
      <line x1="53.000" y1="1649.867" x2="3.000" y2="1649.867"/>
      <line x1="53.000" y1="1650.867" x2="3.000" y2="1650.867"/>
      <line x1="53.000" y1="1651.867" x2="3.000" y2="1651.867"/>
      <line x1="53.000" y1="1652.867" x2="3.000" y2="1652.867"/>
      <line x1="53.000" y1="1653.867" x2="3.000" y2="1653.867"/>
      <line x1="53.000" y1="1654.867" x2="3.000" y2="1654.867"/>
      <line x1="53.000" y1="1655.867" x2="3.000" y2="1655.867"/>
      <line x1="53.000" y1="1656.867" x2="3.000" y2="1656.867"/>
      <line x1="53.000" y1="1657.867" x2="3.000" y2="1657.867"/>
      <line x1="53.000" y1="1658.867" x2="3.000" y2="1658.867"/>
      <line x1="53.000" y1="1659.867" x2="3.000" y2="1659.867"/>
      <line x1="53.000" y1="1660.867" x2="3.000" y2="1660.867"/>
      <line x1="53.000" y1="1661.867" x2="3.000" y2="1661.867"/>
      <line x1="53.000" y1="1662.867" x2="3.000" y2="1662.867"/>
      <line x1="53.000" y1="1663.867" x2="3.000" y2="1663.867"/>
      <line x1="53.000" y1="1664.867" x2="3.000" y2="1664.867"/>
      <line x1="53.000" y1="1665.867" x2="3.000" y2="1665.867"/>
      <line x1="53.000" y1="1666.867" x2="3.000" y2="1666.867"/>
      <line x1="53.000" y1="1667.867" x2="3.000" y2="1667.867"/>
      <line x1="53.000" y1="1668.867" x2="3.000" y2="1668.867"/>
      <line x1="53.000" y1="1669.867" x2="3.000" y2="1669.867"/>
      <line x1="53.000" y1="1670.867" x2="3.000" y2="1670.867"/>
      <line x1="53.000" y1="1671.867" x2="3.000" y2="1671.867"/>
      <line x1="53.000" y1="1672.867" x2="3.000" y2="1672.867"/>
      <line x1="53.000" y1="1673.867" x2="3.000" y2="1673.867"/>
      <line x1="53.000" y1="1674.867" x2="3.000" y2="1674.867"/>
      <line x1="53.000" y1="1675.867" x2="3.000" y2="1675.867"/>
      <line x1="53.000" y1="1676.867" x2="3.000" y2="1676.867"/>
      <line x1="53.000" y1="1677.867" x2="3.000" y2="1677.867"/>
      <line x1="53.000" y1="1678.867" x2="3.000" y2="1678.867"/>
      <line x1="70.934" y1="1629.867" x2="53.100" y2="1629.867"/>
      <line x1="70.934" y1="1630.867" x2="53.100" y2="1630.867"/>
      <line x1="70.934" y1="1631.867" x2="53.100" y2="1631.867"/>
      <line x1="70.934" y1="1632.867" x2="53.100" y2="1632.867"/>
      <line x1="70.934" y1="1633.867" x2="53.100" y2="1633.867"/>
      <line x1="70.934" y1="1634.867" x2="53.100" y2="1634.867"/>
      <line x1="70.934" y1="1635.867" x2="53.100" y2="1635.867"/>
      <line x1="70.934" y1="1636.867" x2="53.100" y2="1636.867"/>
      <line x1="70.934" y1="1637.867" x2="53.100" y2="1637.867"/>
      <line x1="70.934" y1="1638.867" x2="53.100" y2="1638.867"/>
      <line x1="70.934" y1="1639.867" x2="53.100" y2="1639.867"/>
      <line x1="70.934" y1="1640.867" x2="53.100" y2="1640.867"/>
      <line x1="70.934" y1="1641.867" x2="53.100" y2="1641.867"/>
      <line x1="70.934" y1="1642.867" x2="53.100" y2="1642.867"/>
      <line x1="70.934" y1="1643.867" x2="53.100" y2="1643.867"/>
      <line x1="70.934" y1="1644.867" x2="53.100" y2="1644.867"/>
      <line x1="70.934" y1="1645.867" x2="53.100" y2="1645.867"/>
      <line x1="70.934" y1="1646.867" x2="53.100" y2="1646.867"/>
      <line x1="70.934" y1="1647.867" x2="53.100" y2="1647.867"/>
      <line x1="70.934" y1="1648.867" x2="53.100" y2="1648.867"/>
      <line x1="70.934" y1="1649.867" x2="53.100" y2="1649.867"/>
      <line x1="70.934" y1="1650.867" x2="53.100" y2="1650.867"/>
      <line x1="70.934" y1="1651.867" x2="53.100" y2="1651.867"/>
      <line x1="70.934" y1="1652.867" x2="53.100" y2="1652.867"/>
      <line x1="70.934" y1="1653.867" x2="53.100" y2="1653.867"/>
      <line x1="70.934" y1="1654.867" x2="53.100" y2="1654.867"/>
      <line x1="70.934" y1="1655.867" x2="53.100" y2="1655.867"/>
      <line x1="70.934" y1="1656.867" x2="53.100" y2="1656.867"/>
      <line x1="70.934" y1="1657.867" x2="53.100" y2="1657.867"/>
      <line x1="70.934" y1="1658.867" x2="53.100" y2="1658.867"/>
      <line x1="70.934" y1="1659.867" x2="53.100" y2="1659.867"/>
      <line x1="70.934" y1="1660.867" x2="53.100" y2="1660.867"/>
      <line x1="70.934" y1="1661.867" x2="53.100" y2="1661.867"/>
      <line x1="70.934" y1="1662.867" x2="53.100" y2="1662.867"/>
      <line x1="70.934" y1="1663.867" x2="53.100" y2="1663.867"/>
      <line x1="70.934" y1="1664.867" x2="53.100" y2="1664.867"/>
      <line x1="70.934" y1="1665.867" x2="53.100" y2="1665.867"/>
      <line x1="70.934" y1="1666.867" x2="53.100" y2="1666.867"/>
      <line x1="70.934" y1="1667.867" x2="53.100" y2="1667.867"/>
      <line x1="70.934" y1="1668.867" x2="53.100" y2="1668.867"/>
      <line x1="70.934" y1="1669.867" x2="53.100" y2="1669.867"/>
      <line x1="70.934" y1="1670.867" x2="53.100" y2="1670.867"/>
      <line x1="70.934" y1="1671.867" x2="53.100" y2="1671.867"/>
      <line x1="70.934" y1="1672.867" x2="53.100" y2="1672.867"/>
      <line x1="70.934" y1="1673.867" x2="53.100" y2="1673.867"/>
      <line x1="70.934" y1="1674.867" x2="53.100" y2="1674.867"/>
      <line x1="70.934" y1="1675.867" x2="53.100" y2="1675.867"/>
      <line x1="70.934" y1="1676.867" x2="53.100" y2="1676.867"/>
      <line x1="70.934" y1="1677.867" x2="53.100" y2="1677.867"/>
      <line x1="70.934" y1="1678.867" x2="53.100" y2="1678.867"/>
      <line x1="53.000" y1="1579.867" x2="3.000" y2="1579.867"/>
      <line x1="53.000" y1="1580.867" x2="3.000" y2="1580.867"/>
      <line x1="53.000" y1="1581.867" x2="3.000" y2="1581.867"/>
      <line x1="53.000" y1="1582.867" x2="3.000" y2="1582.867"/>
      <line x1="53.000" y1="1583.867" x2="3.000" y2="1583.867"/>
      <line x1="53.000" y1="1584.867" x2="3.000" y2="1584.867"/>
      <line x1="53.000" y1="1585.867" x2="3.000" y2="1585.867"/>
      <line x1="53.000" y1="1586.867" x2="3.000" y2="1586.867"/>
      <line x1="53.000" y1="1587.867" x2="3.000" y2="1587.867"/>
      <line x1="53.000" y1="1588.867" x2="3.000" y2="1588.867"/>
      <line x1="53.000" y1="1589.867" x2="3.000" y2="1589.867"/>
      <line x1="53.000" y1="1590.867" x2="3.000" y2="1590.867"/>
      <line x1="53.000" y1="1591.867" x2="3.000" y2="1591.867"/>
      <line x1="53.000" y1="1592.867" x2="3.000" y2="1592.867"/>
      <line x1="53.000" y1="1593.867" x2="3.000" y2="1593.867"/>
      <line x1="53.000" y1="1594.867" x2="3.000" y2="1594.867"/>
      <line x1="53.000" y1="1595.867" x2="3.000" y2="1595.867"/>
      <line x1="53.000" y1="1596.867" x2="3.000" y2="1596.867"/>
      <line x1="53.000" y1="1597.867" x2="3.000" y2="1597.867"/>
      <line x1="53.000" y1="1598.867" x2="3.000" y2="1598.867"/>
      <line x1="53.000" y1="1599.867" x2="3.000" y2="1599.867"/>
      <line x1="53.000" y1="1600.867" x2="3.000" y2="1600.867"/>
      <line x1="53.000" y1="1601.867" x2="3.000" y2="1601.867"/>
      <line x1="53.000" y1="1602.867" x2="3.000" y2="1602.867"/>
      <line x1="53.000" y1="1603.867" x2="3.000" y2="1603.867"/>
      <line x1="53.000" y1="1604.867" x2="3.000" y2="1604.867"/>
      <line x1="53.000" y1="1605.867" x2="3.000" y2="1605.867"/>
      <line x1="53.000" y1="1606.867" x2="3.000" y2="1606.867"/>
      <line x1="53.000" y1="1607.867" x2="3.000" y2="1607.867"/>
      <line x1="53.000" y1="1608.867" x2="3.000" y2="1608.867"/>
      <line x1="53.000" y1="1609.867" x2="3.000" y2="1609.867"/>
      <line x1="53.000" y1="1610.867" x2="3.000" y2="1610.867"/>
      <line x1="53.000" y1="1611.867" x2="3.000" y2="1611.867"/>
      <line x1="53.000" y1="1612.867" x2="3.000" y2="1612.867"/>
      <line x1="53.000" y1="1613.867" x2="3.000" y2="1613.867"/>
      <line x1="53.000" y1="1614.867" x2="3.000" y2="1614.867"/>
      <line x1="53.000" y1="1615.867" x2="3.000" y2="1615.867"/>
      <line x1="53.000" y1="1616.867" x2="3.000" y2="1616.867"/>
      <line x1="53.000" y1="1617.867" x2="3.000" y2="1617.867"/>
      <line x1="53.000" y1="1618.867" x2="3.000" y2="1618.867"/>
      <line x1="53.000" y1="1619.867" x2="3.000" y2="1619.867"/>
      <line x1="53.000" y1="1620.867" x2="3.000" y2="1620.867"/>
      <line x1="53.000" y1="1621.867" x2="3.000" y2="1621.867"/>
      <line x1="53.000" y1="1622.867" x2="3.000" y2="1622.867"/>
      <line x1="53.000" y1="1623.867" x2="3.000" y2="1623.867"/>
      <line x1="53.000" y1="1624.867" x2="3.000" y2="1624.867"/>
      <line x1="53.000" y1="1625.867" x2="3.000" y2="1625.867"/>
      <line x1="53.000" y1="1626.867" x2="3.000" y2="1626.867"/>
      <line x1="53.000" y1="1627.867" x2="3.000" y2="1627.867"/>
      <line x1="53.000" y1="1628.867" x2="3.000" y2="1628.867"/>
      <line x1="70.934" y1="1579.867" x2="53.100" y2="1579.867"/>
      <line x1="70.934" y1="1580.867" x2="53.100" y2="1580.867"/>
      <line x1="70.934" y1="1581.867" x2="53.100" y2="1581.867"/>
      <line x1="70.934" y1="1582.867" x2="53.100" y2="1582.867"/>
      <line x1="70.934" y1="1583.867" x2="53.100" y2="1583.867"/>
      <line x1="70.934" y1="1584.867" x2="53.100" y2="1584.867"/>
      <line x1="70.934" y1="1585.867" x2="53.100" y2="1585.867"/>
      <line x1="70.934" y1="1586.867" x2="53.100" y2="1586.867"/>
      <line x1="70.934" y1="1587.867" x2="53.100" y2="1587.867"/>
      <line x1="70.934" y1="1588.867" x2="53.100" y2="1588.867"/>
      <line x1="70.934" y1="1589.867" x2="53.100" y2="1589.867"/>
      <line x1="70.934" y1="1590.867" x2="53.100" y2="1590.867"/>
      <line x1="70.934" y1="1591.867" x2="53.100" y2="1591.867"/>
      <line x1="70.934" y1="1592.867" x2="53.100" y2="1592.867"/>
      <line x1="70.934" y1="1593.867" x2="53.100" y2="1593.867"/>
      <line x1="70.934" y1="1594.867" x2="53.100" y2="1594.867"/>
      <line x1="70.934" y1="1595.867" x2="53.100" y2="1595.867"/>
      <line x1="70.934" y1="1596.867" x2="53.100" y2="1596.867"/>
      <line x1="70.934" y1="1597.867" x2="53.100" y2="1597.867"/>
      <line x1="70.934" y1="1598.867" x2="53.100" y2="1598.867"/>
      <line x1="70.934" y1="1599.867" x2="53.100" y2="1599.867"/>
      <line x1="70.934" y1="1600.867" x2="53.100" y2="1600.867"/>
      <line x1="70.934" y1="1601.867" x2="53.100" y2="1601.867"/>
      <line x1="70.934" y1="1602.867" x2="53.100" y2="1602.867"/>
      <line x1="70.934" y1="1603.867" x2="53.100" y2="1603.867"/>
      <line x1="70.934" y1="1604.867" x2="53.100" y2="1604.867"/>
      <line x1="70.934" y1="1605.867" x2="53.100" y2="1605.867"/>
      <line x1="70.934" y1="1606.867" x2="53.100" y2="1606.867"/>
      <line x1="70.934" y1="1607.867" x2="53.100" y2="1607.867"/>
      <line x1="70.934" y1="1608.867" x2="53.100" y2="1608.867"/>
      <line x1="70.934" y1="1609.867" x2="53.100" y2="1609.867"/>
      <line x1="70.934" y1="1610.867" x2="53.100" y2="1610.867"/>
      <line x1="70.934" y1="1611.867" x2="53.100" y2="1611.867"/>
      <line x1="70.934" y1="1612.867" x2="53.100" y2="1612.867"/>
      <line x1="70.934" y1="1613.867" x2="53.100" y2="1613.867"/>
      <line x1="70.934" y1="1614.867" x2="53.100" y2="1614.867"/>
      <line x1="70.934" y1="1615.867" x2="53.100" y2="1615.867"/>
      <line x1="70.934" y1="1616.867" x2="53.100" y2="1616.867"/>
      <line x1="70.934" y1="1617.867" x2="53.100" y2="1617.867"/>
      <line x1="70.934" y1="1618.867" x2="53.100" y2="1618.867"/>
      <line x1="70.934" y1="1619.867" x2="53.100" y2="1619.867"/>
      <line x1="70.934" y1="1620.867" x2="53.100" y2="1620.867"/>
      <line x1="70.934" y1="1621.867" x2="53.100" y2="1621.867"/>
      <line x1="70.934" y1="1622.867" x2="53.100" y2="1622.867"/>
      <line x1="70.934" y1="1623.867" x2="53.100" y2="1623.867"/>
      <line x1="70.934" y1="1624.867" x2="53.100" y2="1624.867"/>
      <line x1="70.934" y1="1625.867" x2="53.100" y2="1625.867"/>
      <line x1="70.934" y1="1626.867" x2="53.100" y2="1626.867"/>
      <line x1="70.934" y1="1627.867" x2="53.100" y2="1627.867"/>
      <line x1="70.934" y1="1628.867" x2="53.100" y2="1628.867"/>
      <line x1="53.000" y1="1529.867" x2="3.000" y2="1529.867"/>
      <line x1="53.000" y1="1530.867" x2="3.000" y2="1530.867"/>
      <line x1="53.000" y1="1531.867" x2="3.000" y2="1531.867"/>
      <line x1="53.000" y1="1532.867" x2="3.000" y2="1532.867"/>
      <line x1="53.000" y1="1533.867" x2="3.000" y2="1533.867"/>
      <line x1="53.000" y1="1534.867" x2="3.000" y2="1534.867"/>
      <line x1="53.000" y1="1535.867" x2="3.000" y2="1535.867"/>
      <line x1="53.000" y1="1536.867" x2="3.000" y2="1536.867"/>
      <line x1="53.000" y1="1537.867" x2="3.000" y2="1537.867"/>
      <line x1="53.000" y1="1538.867" x2="3.000" y2="1538.867"/>
      <line x1="53.000" y1="1539.867" x2="3.000" y2="1539.867"/>
      <line x1="53.000" y1="1540.867" x2="3.000" y2="1540.867"/>
      <line x1="53.000" y1="1541.867" x2="3.000" y2="1541.867"/>
      <line x1="53.000" y1="1542.867" x2="3.000" y2="1542.867"/>
      <line x1="53.000" y1="1543.867" x2="3.000" y2="1543.867"/>
      <line x1="53.000" y1="1544.867" x2="3.000" y2="1544.867"/>
      <line x1="53.000" y1="1545.867" x2="3.000" y2="1545.867"/>
      <line x1="53.000" y1="1546.867" x2="3.000" y2="1546.867"/>
      <line x1="53.000" y1="1547.867" x2="3.000" y2="1547.867"/>
      <line x1="53.000" y1="1548.867" x2="3.000" y2="1548.867"/>
      <line x1="53.000" y1="1549.867" x2="3.000" y2="1549.867"/>
      <line x1="53.000" y1="1550.867" x2="3.000" y2="1550.867"/>
      <line x1="53.000" y1="1551.867" x2="3.000" y2="1551.867"/>
      <line x1="53.000" y1="1552.867" x2="3.000" y2="1552.867"/>
      <line x1="53.000" y1="1553.867" x2="3.000" y2="1553.867"/>
      <line x1="53.000" y1="1554.867" x2="3.000" y2="1554.867"/>
      <line x1="53.000" y1="1555.867" x2="3.000" y2="1555.867"/>
      <line x1="53.000" y1="1556.867" x2="3.000" y2="1556.867"/>
      <line x1="53.000" y1="1557.867" x2="3.000" y2="1557.867"/>
      <line x1="53.000" y1="1558.867" x2="3.000" y2="1558.867"/>
      <line x1="53.000" y1="1559.867" x2="3.000" y2="1559.867"/>
      <line x1="53.000" y1="1560.867" x2="3.000" y2="1560.867"/>
      <line x1="53.000" y1="1561.867" x2="3.000" y2="1561.867"/>
      <line x1="53.000" y1="1562.867" x2="3.000" y2="1562.867"/>
      <line x1="53.000" y1="1563.867" x2="3.000" y2="1563.867"/>
      <line x1="53.000" y1="1564.867" x2="3.000" y2="1564.867"/>
      <line x1="53.000" y1="1565.867" x2="3.000" y2="1565.867"/>
      <line x1="53.000" y1="1566.867" x2="3.000" y2="1566.867"/>
      <line x1="53.000" y1="1567.867" x2="3.000" y2="1567.867"/>
      <line x1="53.000" y1="1568.867" x2="3.000" y2="1568.867"/>
      <line x1="53.000" y1="1569.867" x2="3.000" y2="1569.867"/>
      <line x1="53.000" y1="1570.867" x2="3.000" y2="1570.867"/>
      <line x1="53.000" y1="1571.867" x2="3.000" y2="1571.867"/>
      <line x1="53.000" y1="1572.867" x2="3.000" y2="1572.867"/>
      <line x1="53.000" y1="1573.867" x2="3.000" y2="1573.867"/>
      <line x1="53.000" y1="1574.867" x2="3.000" y2="1574.867"/>
      <line x1="53.000" y1="1575.867" x2="3.000" y2="1575.867"/>
      <line x1="53.000" y1="1576.867" x2="3.000" y2="1576.867"/>
      <line x1="53.000" y1="1577.867" x2="3.000" y2="1577.867"/>
      <line x1="53.000" y1="1578.867" x2="3.000" y2="1578.867"/>
      <line x1="70.934" y1="1529.867" x2="53.100" y2="1529.867"/>
      <line x1="70.934" y1="1530.867" x2="53.100" y2="1530.867"/>
      <line x1="70.934" y1="1531.867" x2="53.100" y2="1531.867"/>
      <line x1="70.934" y1="1532.867" x2="53.100" y2="1532.867"/>
      <line x1="70.934" y1="1533.867" x2="53.100" y2="1533.867"/>
      <line x1="70.934" y1="1534.867" x2="53.100" y2="1534.867"/>
      <line x1="70.934" y1="1535.867" x2="53.100" y2="1535.867"/>
      <line x1="70.934" y1="1536.867" x2="53.100" y2="1536.867"/>
      <line x1="70.934" y1="1537.867" x2="53.100" y2="1537.867"/>
      <line x1="70.934" y1="1538.867" x2="53.100" y2="1538.867"/>
      <line x1="70.934" y1="1539.867" x2="53.100" y2="1539.867"/>
      <line x1="70.934" y1="1540.867" x2="53.100" y2="1540.867"/>
      <line x1="70.934" y1="1541.867" x2="53.100" y2="1541.867"/>
      <line x1="70.934" y1="1542.867" x2="53.100" y2="1542.867"/>
      <line x1="70.934" y1="1543.867" x2="53.100" y2="1543.867"/>
      <line x1="70.934" y1="1544.867" x2="53.100" y2="1544.867"/>
      <line x1="70.934" y1="1545.867" x2="53.100" y2="1545.867"/>
      <line x1="70.934" y1="1546.867" x2="53.100" y2="1546.867"/>
      <line x1="70.934" y1="1547.867" x2="53.100" y2="1547.867"/>
      <line x1="70.934" y1="1548.867" x2="53.100" y2="1548.867"/>
      <line x1="70.934" y1="1549.867" x2="53.100" y2="1549.867"/>
      <line x1="70.934" y1="1550.867" x2="53.100" y2="1550.867"/>
      <line x1="70.934" y1="1551.867" x2="53.100" y2="1551.867"/>
      <line x1="70.934" y1="1552.867" x2="53.100" y2="1552.867"/>
      <line x1="70.934" y1="1553.867" x2="53.100" y2="1553.867"/>
      <line x1="70.934" y1="1554.867" x2="53.100" y2="1554.867"/>
      <line x1="70.934" y1="1555.867" x2="53.100" y2="1555.867"/>
      <line x1="70.934" y1="1556.867" x2="53.100" y2="1556.867"/>
      <line x1="70.934" y1="1557.867" x2="53.100" y2="1557.867"/>
      <line x1="70.934" y1="1558.867" x2="53.100" y2="1558.867"/>
      <line x1="70.934" y1="1559.867" x2="53.100" y2="1559.867"/>
      <line x1="70.934" y1="1560.867" x2="53.100" y2="1560.867"/>
      <line x1="70.934" y1="1561.867" x2="53.100" y2="1561.867"/>
      <line x1="70.934" y1="1562.867" x2="53.100" y2="1562.867"/>
      <line x1="70.934" y1="1563.867" x2="53.100" y2="1563.867"/>
      <line x1="70.934" y1="1564.867" x2="53.100" y2="1564.867"/>
      <line x1="70.934" y1="1565.867" x2="53.100" y2="1565.867"/>
      <line x1="70.934" y1="1566.867" x2="53.100" y2="1566.867"/>
      <line x1="70.934" y1="1567.867" x2="53.100" y2="1567.867"/>
      <line x1="70.934" y1="1568.867" x2="53.100" y2="1568.867"/>
      <line x1="70.934" y1="1569.867" x2="53.100" y2="1569.867"/>
      <line x1="70.934" y1="1570.867" x2="53.100" y2="1570.867"/>
      <line x1="70.934" y1="1571.867" x2="53.100" y2="1571.867"/>
      <line x1="70.934" y1="1572.867" x2="53.100" y2="1572.867"/>
      <line x1="70.934" y1="1573.867" x2="53.100" y2="1573.867"/>
      <line x1="70.934" y1="1574.867" x2="53.100" y2="1574.867"/>
      <line x1="70.934" y1="1575.867" x2="53.100" y2="1575.867"/>
      <line x1="70.934" y1="1576.867" x2="53.100" y2="1576.867"/>
      <line x1="70.934" y1="1577.867" x2="53.100" y2="1577.867"/>
      <line x1="70.934" y1="1578.867" x2="53.100" y2="1578.867"/>
      <line x1="53.000" y1="1525.867" x2="3.000" y2="1525.867"/>
      <line x1="53.000" y1="1526.867" x2="3.000" y2="1526.867"/>
      <line x1="53.000" y1="1527.867" x2="3.000" y2="1527.867"/>
      <line x1="53.000" y1="1528.867" x2="3.000" y2="1528.867"/>
      <line x1="70.934" y1="1525.867" x2="53.100" y2="1525.867"/>
      <line x1="70.934" y1="1526.867" x2="53.100" y2="1526.867"/>
      <line x1="70.934" y1="1527.867" x2="53.100" y2="1527.867"/>
      <line x1="70.934" y1="1528.867" x2="53.100" y2="1528.867"/>
    </g>
    <g stroke="#1976D2" stroke-width="0.4">
      <polyline points="527.423,1682.729 600.500,1682.729 600.500,1521.729 527.423,1521.729" fill="none"/>
      <polyline points="527.423,1521.729 525.566,1521.729 525.566,1682.729 527.423,1682.729" fill="none"/>
      <polyline points="527.423,1681.730 599.500,1681.730 599.500,1522.729 527.423,1522.729" fill="none"/>
      <polyline points="527.423,1522.729 526.566,1522.729 526.566,1681.730 527.423,1681.730" fill="none"/>
      <polyline points="598.500,1523.729 527.566,1523.729 527.566,1680.730 598.500,1680.730 598.500,1523.729" fill="none"/>
      <polyline points="597.500,1524.729 528.566,1524.729 528.566,1679.729 597.500,1679.729 597.500,1524.729" fill="none"/>
      <polyline points="72.577,1521.729 -0.500,1521.729 -0.500,1682.729 72.577,1682.729" fill="none"/>
      <polyline points="72.577,1682.729 74.434,1682.729 74.434,1521.729 72.577,1521.729" fill="none"/>
      <polyline points="72.577,1522.729 0.500,1522.729 0.500,1681.730 72.577,1681.730" fill="none"/>
      <polyline points="72.577,1681.730 73.434,1681.730 73.434,1522.729 72.577,1522.729" fill="none"/>
      <polyline points="72.434,1523.729 1.500,1523.729 1.500,1680.730 72.434,1680.730 72.434,1523.729" fill="none"/>
      <polyline points="71.434,1524.729 2.500,1524.729 2.500,1679.729 71.434,1679.729 71.434,1524.729" fill="none"/>
    </g>
    <g stroke="#C62828" stroke-width="0.4" fill="none">
      <polygon points="294.742,1536.033 296.444,1535.050 297.780,1533.610 298.633,1531.839 298.926,1529.896 298.633,1527.953 297.780,1526.182 296.444,1524.742 294.742,1523.759 292.826,1523.322 290.866,1523.469 289.037,1524.187 287.501,1525.412 286.394,1527.036 285.814,1528.914 285.814,1530.879 286.394,1532.757 287.501,1534.380 289.037,1535.606 290.866,1536.323 292.826,1536.470"/>
      <polygon points="314.717,1535.970 316.401,1534.997 317.724,1533.571 318.568,1531.819 318.858,1529.896 318.568,1527.973 317.724,1526.221 316.401,1524.795 314.717,1523.823 312.821,1523.390 310.882,1523.535 309.071,1524.246 307.551,1525.458 306.455,1527.065 305.882,1528.924 305.882,1530.869 306.455,1532.727 307.551,1534.334 309.071,1535.546 310.882,1536.257 312.821,1536.402"/>
      <polygon points="274.306,1535.967 276.085,1535.060 277.497,1533.648 278.404,1531.869 278.716,1529.896 278.404,1527.924 277.497,1526.144 276.085,1524.732 274.306,1523.825 272.333,1523.513 270.361,1523.825 268.581,1524.732 267.169,1526.144 266.263,1527.924 265.950,1529.896 266.263,1531.869 267.169,1533.648 268.581,1535.060 270.361,1535.967 272.333,1536.279"/>
      <polygon points="334.283,1535.897 336.042,1535.001 337.438,1533.605 338.335,1531.846 338.643,1529.896 338.335,1527.946 337.438,1526.187 336.042,1524.791 334.283,1523.895 332.333,1523.586 330.383,1523.895 328.624,1524.791 327.228,1526.187 326.332,1527.946 326.023,1529.896 326.332,1531.846 327.228,1533.605 328.624,1535.001 330.383,1535.897 332.333,1536.206"/>
      <polygon points="354.236,1535.753 355.953,1534.879 357.316,1533.516 358.191,1531.799 358.492,1529.896 358.191,1527.993 357.316,1526.276 355.953,1524.914 354.236,1524.039 352.333,1523.737 350.430,1524.039 348.713,1524.914 347.351,1526.276 346.476,1527.993 346.175,1529.896 346.476,1531.799 347.351,1533.516 348.713,1534.879 350.430,1535.753 352.333,1536.055"/>
      <polygon points="254.236,1535.753 255.953,1534.879 257.316,1533.516 258.191,1531.799 258.492,1529.896 258.191,1527.993 257.316,1526.276 255.953,1524.914 254.236,1524.039 252.333,1523.737 250.430,1524.039 248.713,1524.914 247.351,1526.276 246.476,1527.993 246.175,1529.896 246.476,1531.799 247.351,1533.516 248.713,1534.879 250.430,1535.753 252.333,1536.055"/>
      <polygon points="234.187,1535.602 235.860,1534.750 237.187,1533.423 238.040,1531.750 238.333,1529.896 238.040,1528.042 237.187,1526.369 235.860,1525.042 234.187,1524.190 232.333,1523.896 230.479,1524.190 228.807,1525.042 227.479,1526.369 226.627,1528.042 226.333,1529.896 226.627,1531.750 227.479,1533.423 228.807,1534.750 230.479,1535.602 232.333,1535.896"/>
      <polygon points="373.786,1535.633 375.570,1534.850 377.003,1533.531 377.930,1531.818 378.251,1529.896 377.930,1527.975 377.003,1526.261 375.570,1524.942 373.786,1524.160 371.845,1523.999 369.956,1524.477 368.325,1525.542 367.129,1527.080 366.496,1528.922 366.496,1530.870 367.129,1532.713 368.325,1534.250 369.956,1535.315 371.845,1535.794"/>
      <polygon points="213.744,1535.467 215.477,1534.707 216.868,1533.426 217.769,1531.762 218.080,1529.896 217.769,1528.030 216.868,1526.366 215.477,1525.085 213.744,1524.325 211.859,1524.169 210.025,1524.633 208.441,1525.668 207.279,1527.161 206.665,1528.950 206.665,1530.842 207.279,1532.631 208.441,1534.124 210.025,1535.159 211.859,1535.623"/>
      <polygon points="393.722,1535.381 395.428,1534.633 396.798,1533.371 397.685,1531.733 397.991,1529.896 397.685,1528.059 396.798,1526.421 395.428,1525.159 393.722,1524.411 391.866,1524.257 390.061,1524.715 388.501,1525.733 387.357,1527.203 386.752,1528.965 386.752,1530.827 387.357,1532.589 388.501,1534.059 390.061,1535.078 391.866,1535.535"/>
      <polygon points="415.070,1534.637 416.526,1533.415 417.477,1531.768 417.807,1529.896 417.477,1528.024 416.526,1526.378 415.070,1525.156 413.284,1524.506 411.383,1524.506 409.596,1525.156 408.140,1526.378 407.190,1528.024 406.860,1529.896 407.190,1531.768 408.140,1533.415 409.596,1534.637 411.383,1535.287 413.284,1535.287"/>
      <polygon points="195.070,1534.637 196.526,1533.415 197.477,1531.768 197.807,1529.896 197.477,1528.024 196.526,1526.378 195.070,1525.156 193.284,1524.506 191.383,1524.506 189.597,1525.156 188.140,1526.378 187.190,1528.024 186.860,1529.896 187.190,1531.768 188.140,1533.415 189.597,1534.637 191.383,1535.287 193.284,1535.287"/>
      <polygon points="174.973,1534.468 176.378,1533.290 177.294,1531.702 177.613,1529.896 177.294,1528.091 176.378,1526.503 174.973,1525.324 173.250,1524.697 171.417,1524.697 169.694,1525.324 168.289,1526.503 167.372,1528.091 167.054,1529.896 167.372,1531.702 168.289,1533.290 169.694,1534.468 171.417,1535.095 173.250,1535.095"/>
      <polygon points="434.922,1534.381 436.300,1533.225 437.199,1531.667 437.511,1529.896 437.199,1528.125 436.300,1526.568 434.922,1525.412 433.232,1524.797 431.434,1524.797 429.744,1525.412 428.367,1526.568 427.468,1528.125 427.155,1529.896 427.468,1531.667 428.367,1533.225 429.744,1534.381 431.434,1534.996 433.232,1534.996"/>
      <polygon points="154.448,1534.143 155.839,1533.092 156.757,1531.610 157.077,1529.896 156.757,1528.182 155.839,1526.700 154.448,1525.650 152.771,1525.172 151.035,1525.333 149.474,1526.110 148.300,1527.399 147.670,1529.024 147.670,1530.768 148.300,1532.394 149.474,1533.682 151.035,1534.459 152.771,1534.620"/>
      <polygon points="454.342,1533.931 455.664,1532.933 456.536,1531.524 456.841,1529.896 456.536,1528.268 455.664,1526.860 454.342,1525.861 452.749,1525.408 451.100,1525.561 449.617,1526.299 448.501,1527.523 447.903,1529.068 447.903,1530.724 448.501,1532.269 449.617,1533.493 451.100,1534.232 452.749,1534.384"/>
      <polygon points="133.523,1533.557 134.909,1532.757 135.850,1531.462 136.183,1529.896 135.850,1528.330 134.909,1527.035 133.523,1526.235 131.931,1526.068 130.409,1526.562 129.219,1527.634 128.568,1529.096 128.568,1530.697 129.219,1532.159 130.409,1533.230 131.931,1533.725"/>
      <polygon points="473.432,1533.278 474.712,1532.538 475.582,1531.342 475.889,1529.896 475.582,1528.450 474.712,1527.254 473.432,1526.515 471.962,1526.360 470.556,1526.817 469.457,1527.806 468.855,1529.157 468.855,1530.635 469.457,1531.986 470.556,1532.975 471.962,1533.432"/>
      <polygon points="113.883,1532.141 114.748,1531.164 115.061,1529.896 114.748,1528.629 113.883,1527.652 112.662,1527.189 111.366,1527.346 110.292,1528.088 109.685,1529.244 109.685,1530.549 110.292,1531.705 111.366,1532.446 112.662,1532.604"/>
      <polygon points="493.509,1531.933 494.370,1531.072 494.686,1529.896 494.370,1528.720 493.509,1527.859 492.333,1527.544 491.157,1527.859 490.296,1528.720 489.981,1529.896 490.296,1531.072 491.157,1531.933 492.333,1532.248"/>
      <polygon points="94.065,1530.896 94.333,1529.896 94.065,1528.896 93.934,1528.765 93.934,1531.028"/>
      <polygon points="294.742,1556.033 296.444,1555.050 297.780,1553.610 298.633,1551.839 298.926,1549.896 298.633,1547.953 297.780,1546.182 296.444,1544.742 294.742,1543.759 292.826,1543.322 290.866,1543.469 289.037,1544.187 287.501,1545.412 286.394,1547.036 285.814,1548.914 285.814,1550.879 286.394,1552.757 287.501,1554.380 289.037,1555.606 290.866,1556.323 292.826,1556.470"/>
      <polygon points="314.717,1555.970 316.401,1554.997 317.724,1553.571 318.568,1551.819 318.858,1549.896 318.568,1547.973 317.724,1546.221 316.401,1544.795 314.717,1543.823 312.821,1543.390 310.882,1543.535 309.071,1544.246 307.551,1545.458 306.455,1547.065 305.882,1548.924 305.882,1550.869 306.455,1552.727 307.551,1554.334 309.071,1555.546 310.882,1556.257 312.821,1556.402"/>
      <polygon points="274.306,1555.967 276.085,1555.060 277.497,1553.648 278.404,1551.869 278.716,1549.896 278.404,1547.924 277.497,1546.144 276.085,1544.732 274.306,1543.825 272.333,1543.513 270.361,1543.825 268.581,1544.732 267.169,1546.144 266.263,1547.924 265.950,1549.896 266.263,1551.869 267.169,1553.648 268.581,1555.060 270.361,1555.967 272.333,1556.279"/>
      <polygon points="334.283,1555.897 336.042,1555.001 337.438,1553.605 338.335,1551.846 338.643,1549.896 338.335,1547.946 337.438,1546.187 336.042,1544.791 334.283,1543.895 332.333,1543.586 330.383,1543.895 328.624,1544.791 327.228,1546.187 326.332,1547.946 326.023,1549.896 326.332,1551.846 327.228,1553.605 328.624,1555.001 330.383,1555.897 332.333,1556.206"/>
      <polygon points="254.236,1555.753 255.953,1554.879 257.316,1553.516 258.191,1551.799 258.492,1549.896 258.191,1547.993 257.316,1546.276 255.953,1544.914 254.236,1544.039 252.333,1543.737 250.430,1544.039 248.713,1544.914 247.351,1546.276 246.476,1547.993 246.175,1549.896 246.476,1551.799 247.351,1553.516 248.713,1554.879 250.430,1555.753 252.333,1556.055"/>
      <polygon points="354.236,1555.753 355.953,1554.879 357.316,1553.516 358.191,1551.799 358.492,1549.896 358.191,1547.993 357.316,1546.276 355.953,1544.914 354.236,1544.039 352.333,1543.737 350.430,1544.039 348.713,1544.914 347.351,1546.276 346.476,1547.993 346.175,1549.896 346.476,1551.799 347.351,1553.516 348.713,1554.879 350.430,1555.753 352.333,1556.055"/>
      <polygon points="234.187,1555.602 235.860,1554.750 237.187,1553.423 238.040,1551.750 238.333,1549.896 238.040,1548.042 237.187,1546.369 235.860,1545.042 234.187,1544.190 232.333,1543.896 230.479,1544.190 228.807,1545.042 227.479,1546.369 226.627,1548.042 226.333,1549.896 226.627,1551.750 227.479,1553.423 228.807,1554.750 230.479,1555.602 232.333,1555.896"/>
      <polygon points="373.786,1555.633 375.570,1554.850 377.003,1553.531 377.930,1551.818 378.251,1549.896 377.930,1547.975 377.003,1546.261 375.570,1544.942 373.786,1544.160 371.845,1543.999 369.956,1544.477 368.325,1545.542 367.129,1547.080 366.496,1548.922 366.496,1550.870 367.129,1552.713 368.325,1554.250 369.956,1555.315 371.845,1555.794"/>
      <polygon points="213.744,1555.467 215.477,1554.707 216.868,1553.426 217.769,1551.762 218.080,1549.896 217.769,1548.030 216.868,1546.366 215.477,1545.085 213.744,1544.325 211.859,1544.169 210.025,1544.633 208.441,1545.668 207.279,1547.161 206.665,1548.950 206.665,1550.842 207.279,1552.631 208.441,1554.124 210.025,1555.159 211.859,1555.623"/>
      <polygon points="393.722,1555.381 395.428,1554.633 396.798,1553.371 397.685,1551.733 397.991,1549.896 397.685,1548.059 396.798,1546.421 395.428,1545.159 393.722,1544.411 391.866,1544.257 390.061,1544.715 388.501,1545.733 387.357,1547.203 386.752,1548.965 386.752,1550.827 387.357,1552.589 388.501,1554.059 390.061,1555.078 391.866,1555.535"/>
      <polygon points="195.070,1554.637 196.526,1553.415 197.477,1551.768 197.807,1549.896 197.477,1548.024 196.526,1546.378 195.070,1545.156 193.284,1544.506 191.383,1544.506 189.597,1545.156 188.140,1546.378 187.190,1548.024 186.860,1549.896 187.190,1551.768 188.140,1553.415 189.597,1554.637 191.383,1555.287 193.284,1555.287"/>
      <polygon points="415.070,1554.637 416.526,1553.415 417.477,1551.768 417.807,1549.896 417.477,1548.024 416.526,1546.378 415.070,1545.156 413.284,1544.506 411.383,1544.506 409.596,1545.156 408.140,1546.378 407.190,1548.024 406.860,1549.896 407.190,1551.768 408.140,1553.415 409.596,1554.637 411.383,1555.287 413.284,1555.287"/>
      <polygon points="174.973,1554.468 176.378,1553.290 177.294,1551.702 177.613,1549.896 177.294,1548.091 176.378,1546.503 174.973,1545.324 173.250,1544.697 171.417,1544.697 169.694,1545.324 168.289,1546.503 167.372,1548.091 167.054,1549.896 167.372,1551.702 168.289,1553.290 169.694,1554.468 171.417,1555.095 173.250,1555.095"/>
      <polygon points="434.922,1554.381 436.300,1553.225 437.199,1551.667 437.511,1549.896 437.199,1548.125 436.300,1546.568 434.922,1545.412 433.232,1544.797 431.434,1544.797 429.744,1545.412 428.367,1546.568 427.468,1548.125 427.155,1549.896 427.468,1551.667 428.367,1553.225 429.744,1554.381 431.434,1554.996 433.232,1554.996"/>
      <polygon points="154.448,1554.143 155.839,1553.092 156.757,1551.610 157.077,1549.896 156.757,1548.182 155.839,1546.700 154.448,1545.650 152.771,1545.172 151.035,1545.333 149.474,1546.110 148.300,1547.399 147.670,1549.024 147.670,1550.768 148.300,1552.394 149.474,1553.682 151.035,1554.459 152.771,1554.620"/>
      <polygon points="454.342,1553.931 455.664,1552.933 456.536,1551.524 456.841,1549.896 456.536,1548.268 455.664,1546.860 454.342,1545.861 452.749,1545.408 451.100,1545.561 449.617,1546.299 448.501,1547.523 447.903,1549.068 447.903,1550.724 448.501,1552.269 449.617,1553.493 451.100,1554.232 452.749,1554.384"/>
      <polygon points="133.523,1553.557 134.909,1552.757 135.850,1551.462 136.183,1549.896 135.850,1548.330 134.909,1547.035 133.523,1546.235 131.931,1546.068 130.409,1546.562 129.219,1547.634 128.568,1549.096 128.568,1550.697 129.219,1552.159 130.409,1553.230 131.931,1553.725"/>
      <polygon points="473.432,1553.278 474.712,1552.538 475.582,1551.342 475.889,1549.896 475.582,1548.450 474.712,1547.254 473.432,1546.515 471.962,1546.360 470.556,1546.817 469.457,1547.806 468.855,1549.157 468.855,1550.635 469.457,1551.986 470.556,1552.975 471.962,1553.432"/>
      <polygon points="113.883,1552.141 114.748,1551.164 115.061,1549.896 114.748,1548.629 113.883,1547.652 112.662,1547.189 111.366,1547.346 110.292,1548.088 109.685,1549.244 109.685,1550.549 110.292,1551.705 111.366,1552.446 112.662,1552.604"/>
      <polygon points="493.509,1551.933 494.370,1551.072 494.686,1549.896 494.370,1548.720 493.509,1547.859 492.333,1547.544 491.157,1547.859 490.296,1548.720 489.981,1549.896 490.296,1551.072 491.157,1551.933 492.333,1552.248"/>
      <polygon points="94.065,1550.896 94.333,1549.896 94.065,1548.896 93.934,1548.765 93.934,1551.028"/>
      <polygon points="294.742,1576.033 296.444,1575.050 297.780,1573.610 298.633,1571.839 298.926,1569.896 298.633,1567.953 297.780,1566.182 296.444,1564.742 294.742,1563.759 292.826,1563.322 290.866,1563.469 289.037,1564.187 287.501,1565.412 286.394,1567.036 285.814,1568.914 285.814,1570.879 286.394,1572.757 287.501,1574.380 289.037,1575.606 290.866,1576.323 292.826,1576.470"/>
      <polygon points="314.717,1575.970 316.401,1574.997 317.724,1573.571 318.568,1571.819 318.858,1569.896 318.568,1567.973 317.724,1566.221 316.401,1564.795 314.717,1563.823 312.821,1563.390 310.882,1563.535 309.071,1564.246 307.551,1565.458 306.455,1567.065 305.882,1568.924 305.882,1570.869 306.455,1572.727 307.551,1574.334 309.071,1575.546 310.882,1576.257 312.821,1576.402"/>
      <polygon points="274.306,1575.967 276.085,1575.060 277.497,1573.648 278.404,1571.869 278.716,1569.896 278.404,1567.924 277.497,1566.144 276.085,1564.732 274.306,1563.825 272.333,1563.513 270.361,1563.825 268.581,1564.732 267.169,1566.144 266.263,1567.924 265.950,1569.896 266.263,1571.869 267.169,1573.648 268.581,1575.060 270.361,1575.967 272.333,1576.279"/>
      <polygon points="334.283,1575.897 336.042,1575.001 337.438,1573.605 338.335,1571.846 338.643,1569.896 338.335,1567.946 337.438,1566.187 336.042,1564.791 334.283,1563.895 332.333,1563.586 330.383,1563.895 328.624,1564.791 327.228,1566.187 326.332,1567.946 326.023,1569.896 326.332,1571.846 327.228,1573.605 328.624,1575.001 330.383,1575.897 332.333,1576.206"/>
      <polygon points="254.236,1575.753 255.953,1574.879 257.316,1573.516 258.191,1571.799 258.492,1569.896 258.191,1567.993 257.316,1566.276 255.953,1564.914 254.236,1564.039 252.333,1563.737 250.430,1564.039 248.713,1564.914 247.351,1566.276 246.476,1567.993 246.175,1569.896 246.476,1571.799 247.351,1573.516 248.713,1574.879 250.430,1575.753 252.333,1576.055"/>
      <polygon points="354.236,1575.753 355.953,1574.879 357.316,1573.516 358.191,1571.799 358.492,1569.896 358.191,1567.993 357.316,1566.276 355.953,1564.914 354.236,1564.039 352.333,1563.737 350.430,1564.039 348.713,1564.914 347.351,1566.276 346.476,1567.993 346.175,1569.896 346.476,1571.799 347.351,1573.516 348.713,1574.879 350.430,1575.753 352.333,1576.055"/>
      <polygon points="234.187,1575.602 235.860,1574.750 237.187,1573.423 238.040,1571.750 238.333,1569.896 238.040,1568.042 237.187,1566.369 235.860,1565.042 234.187,1564.190 232.333,1563.896 230.479,1564.190 228.807,1565.042 227.479,1566.369 226.627,1568.042 226.333,1569.896 226.627,1571.750 227.479,1573.423 228.807,1574.750 230.479,1575.602 232.333,1575.896"/>
      <polygon points="373.786,1575.633 375.570,1574.850 377.003,1573.531 377.930,1571.818 378.251,1569.896 377.930,1567.975 377.003,1566.261 375.570,1564.942 373.786,1564.160 371.845,1563.999 369.956,1564.477 368.325,1565.542 367.129,1567.080 366.496,1568.922 366.496,1570.870 367.129,1572.713 368.325,1574.250 369.956,1575.315 371.845,1575.794"/>
      <polygon points="213.744,1575.467 215.477,1574.707 216.868,1573.426 217.769,1571.762 218.080,1569.896 217.769,1568.030 216.868,1566.366 215.477,1565.085 213.744,1564.325 211.859,1564.169 210.025,1564.633 208.441,1565.668 207.279,1567.161 206.665,1568.950 206.665,1570.842 207.279,1572.631 208.441,1574.124 210.025,1575.159 211.859,1575.623"/>
      <polygon points="393.722,1575.381 395.428,1574.633 396.798,1573.371 397.685,1571.733 397.991,1569.896 397.685,1568.059 396.798,1566.421 395.428,1565.159 393.722,1564.411 391.866,1564.257 390.061,1564.715 388.501,1565.733 387.357,1567.203 386.752,1568.965 386.752,1570.827 387.357,1572.589 388.501,1574.059 390.061,1575.078 391.866,1575.535"/>
      <polygon points="195.070,1574.637 196.526,1573.415 197.477,1571.768 197.807,1569.896 197.477,1568.024 196.526,1566.378 195.070,1565.156 193.284,1564.506 191.383,1564.506 189.597,1565.156 188.140,1566.378 187.190,1568.024 186.860,1569.896 187.190,1571.768 188.140,1573.415 189.597,1574.637 191.383,1575.287 193.284,1575.287"/>
      <polygon points="415.070,1574.637 416.526,1573.415 417.477,1571.768 417.807,1569.896 417.477,1568.024 416.526,1566.378 415.070,1565.156 413.284,1564.506 411.383,1564.506 409.596,1565.156 408.140,1566.378 407.190,1568.024 406.860,1569.896 407.190,1571.768 408.140,1573.415 409.596,1574.637 411.383,1575.287 413.284,1575.287"/>
      <polygon points="174.973,1574.468 176.378,1573.290 177.294,1571.702 177.613,1569.896 177.294,1568.091 176.378,1566.503 174.973,1565.324 173.250,1564.697 171.417,1564.697 169.694,1565.324 168.289,1566.503 167.372,1568.091 167.054,1569.896 167.372,1571.702 168.289,1573.290 169.694,1574.468 171.417,1575.095 173.250,1575.095"/>
      <polygon points="434.922,1574.381 436.300,1573.225 437.199,1571.667 437.511,1569.896 437.199,1568.125 436.300,1566.568 434.922,1565.412 433.232,1564.797 431.434,1564.797 429.744,1565.412 428.367,1566.568 427.468,1568.125 427.155,1569.896 427.468,1571.667 428.367,1573.225 429.744,1574.381 431.434,1574.996 433.232,1574.996"/>
      <polygon points="154.448,1574.143 155.839,1573.092 156.757,1571.610 157.077,1569.896 156.757,1568.182 155.839,1566.700 154.448,1565.650 152.771,1565.172 151.035,1565.333 149.474,1566.110 148.300,1567.399 147.670,1569.024 147.670,1570.768 148.300,1572.394 149.474,1573.682 151.035,1574.459 152.771,1574.620"/>
      <polygon points="454.342,1573.931 455.664,1572.933 456.536,1571.524 456.841,1569.896 456.536,1568.268 455.664,1566.860 454.342,1565.861 452.749,1565.408 451.100,1565.561 449.617,1566.299 448.501,1567.523 447.903,1569.068 447.903,1570.724 448.501,1572.269 449.617,1573.493 451.100,1574.232 452.749,1574.384"/>
      <polygon points="133.523,1573.557 134.909,1572.757 135.850,1571.462 136.183,1569.896 135.850,1568.330 134.909,1567.035 133.523,1566.235 131.931,1566.068 130.409,1566.562 129.219,1567.634 128.568,1569.096 128.568,1570.697 129.219,1572.159 130.409,1573.230 131.931,1573.725"/>
      <polygon points="473.432,1573.278 474.712,1572.538 475.582,1571.342 475.889,1569.896 475.582,1568.450 474.712,1567.254 473.432,1566.515 471.962,1566.360 470.556,1566.817 469.457,1567.806 468.855,1569.157 468.855,1570.635 469.457,1571.986 470.556,1572.975 471.962,1573.432"/>
      <polygon points="113.883,1572.141 114.748,1571.164 115.061,1569.896 114.748,1568.629 113.883,1567.652 112.662,1567.189 111.366,1567.346 110.292,1568.088 109.685,1569.244 109.685,1570.549 110.292,1571.705 111.366,1572.446 112.662,1572.604"/>
      <polygon points="493.509,1571.933 494.370,1571.072 494.686,1569.896 494.370,1568.720 493.509,1567.859 492.333,1567.544 491.157,1567.859 490.296,1568.720 489.981,1569.896 490.296,1571.072 491.157,1571.933 492.333,1572.248"/>
      <polygon points="94.065,1570.896 94.333,1569.896 94.065,1568.896 93.934,1568.765 93.934,1571.028"/>
      <polygon points="294.742,1596.033 296.444,1595.050 297.780,1593.610 298.633,1591.839 298.926,1589.896 298.633,1587.953 297.780,1586.182 296.444,1584.742 294.742,1583.759 292.826,1583.322 290.866,1583.469 289.037,1584.187 287.501,1585.412 286.394,1587.036 285.814,1588.914 285.814,1590.879 286.394,1592.757 287.501,1594.380 289.037,1595.606 290.866,1596.323 292.826,1596.470"/>
      <polygon points="314.717,1595.970 316.401,1594.997 317.724,1593.571 318.568,1591.819 318.858,1589.896 318.568,1587.973 317.724,1586.221 316.401,1584.795 314.717,1583.823 312.821,1583.390 310.882,1583.535 309.071,1584.246 307.551,1585.458 306.455,1587.065 305.882,1588.924 305.882,1590.869 306.455,1592.727 307.551,1594.334 309.071,1595.546 310.882,1596.257 312.821,1596.402"/>
      <polygon points="274.306,1595.967 276.085,1595.060 277.497,1593.648 278.404,1591.869 278.716,1589.896 278.404,1587.924 277.497,1586.144 276.085,1584.732 274.306,1583.825 272.333,1583.513 270.361,1583.825 268.581,1584.732 267.169,1586.144 266.263,1587.924 265.950,1589.896 266.263,1591.869 267.169,1593.648 268.581,1595.060 270.361,1595.967 272.333,1596.279"/>
      <polygon points="334.283,1595.897 336.042,1595.001 337.438,1593.605 338.335,1591.846 338.643,1589.896 338.335,1587.946 337.438,1586.187 336.042,1584.791 334.283,1583.895 332.333,1583.586 330.383,1583.895 328.624,1584.791 327.228,1586.187 326.332,1587.946 326.023,1589.896 326.332,1591.846 327.228,1593.605 328.624,1595.001 330.383,1595.897 332.333,1596.206"/>
      <polygon points="254.236,1595.753 255.953,1594.879 257.316,1593.516 258.191,1591.799 258.492,1589.896 258.191,1587.993 257.316,1586.276 255.953,1584.914 254.236,1584.039 252.333,1583.737 250.430,1584.039 248.713,1584.914 247.351,1586.276 246.476,1587.993 246.175,1589.896 246.476,1591.799 247.351,1593.516 248.713,1594.879 250.430,1595.753 252.333,1596.055"/>
      <polygon points="354.236,1595.753 355.953,1594.879 357.316,1593.516 358.191,1591.799 358.492,1589.896 358.191,1587.993 357.316,1586.276 355.953,1584.914 354.236,1584.039 352.333,1583.737 350.430,1584.039 348.713,1584.914 347.351,1586.276 346.476,1587.993 346.175,1589.896 346.476,1591.799 347.351,1593.516 348.713,1594.879 350.430,1595.753 352.333,1596.055"/>
      <polygon points="234.187,1595.602 235.860,1594.750 237.187,1593.423 238.040,1591.750 238.333,1589.896 238.040,1588.042 237.187,1586.369 235.860,1585.042 234.187,1584.190 232.333,1583.896 230.479,1584.190 228.807,1585.042 227.479,1586.369 226.627,1588.042 226.333,1589.896 226.627,1591.750 227.479,1593.423 228.807,1594.750 230.479,1595.602 232.333,1595.896"/>
      <polygon points="373.786,1595.633 375.570,1594.850 377.003,1593.531 377.930,1591.818 378.251,1589.896 377.930,1587.975 377.003,1586.261 375.570,1584.942 373.786,1584.160 371.845,1583.999 369.956,1584.477 368.325,1585.542 367.129,1587.080 366.496,1588.922 366.496,1590.870 367.129,1592.713 368.325,1594.250 369.956,1595.315 371.845,1595.794"/>
      <polygon points="213.744,1595.467 215.477,1594.707 216.868,1593.426 217.769,1591.762 218.080,1589.896 217.769,1588.030 216.868,1586.366 215.477,1585.085 213.744,1584.325 211.859,1584.169 210.025,1584.633 208.441,1585.668 207.279,1587.161 206.665,1588.950 206.665,1590.842 207.279,1592.631 208.441,1594.124 210.025,1595.159 211.859,1595.623"/>
      <polygon points="393.722,1595.381 395.428,1594.633 396.798,1593.371 397.685,1591.733 397.991,1589.896 397.685,1588.059 396.798,1586.421 395.428,1585.159 393.722,1584.411 391.866,1584.257 390.061,1584.715 388.501,1585.733 387.357,1587.203 386.752,1588.965 386.752,1590.827 387.357,1592.589 388.501,1594.059 390.061,1595.078 391.866,1595.535"/>
      <polygon points="415.070,1594.637 416.526,1593.415 417.477,1591.768 417.807,1589.896 417.477,1588.024 416.526,1586.378 415.070,1585.156 413.284,1584.506 411.383,1584.506 409.596,1585.156 408.140,1586.378 407.190,1588.024 406.860,1589.896 407.190,1591.768 408.140,1593.415 409.596,1594.637 411.383,1595.287 413.284,1595.287"/>
      <polygon points="195.070,1594.637 196.526,1593.415 197.477,1591.768 197.807,1589.896 197.477,1588.024 196.526,1586.378 195.070,1585.156 193.284,1584.506 191.383,1584.506 189.597,1585.156 188.140,1586.378 187.190,1588.024 186.860,1589.896 187.190,1591.768 188.140,1593.415 189.597,1594.637 191.383,1595.287 193.284,1595.287"/>
      <polygon points="174.973,1594.468 176.378,1593.290 177.294,1591.702 177.613,1589.896 177.294,1588.091 176.378,1586.503 174.973,1585.324 173.250,1584.697 171.417,1584.697 169.694,1585.324 168.289,1586.503 167.372,1588.091 167.054,1589.896 167.372,1591.702 168.289,1593.290 169.694,1594.468 171.417,1595.095 173.250,1595.095"/>
      <polygon points="434.922,1594.381 436.300,1593.225 437.199,1591.667 437.511,1589.896 437.199,1588.125 436.300,1586.568 434.922,1585.412 433.232,1584.797 431.434,1584.797 429.744,1585.412 428.367,1586.568 427.468,1588.125 427.155,1589.896 427.468,1591.667 428.367,1593.225 429.744,1594.381 431.434,1594.996 433.232,1594.996"/>
      <polygon points="154.448,1594.143 155.839,1593.092 156.757,1591.610 157.077,1589.896 156.757,1588.182 155.839,1586.700 154.448,1585.650 152.771,1585.172 151.035,1585.333 149.474,1586.110 148.300,1587.399 147.670,1589.024 147.670,1590.768 148.300,1592.394 149.474,1593.682 151.035,1594.459 152.771,1594.620"/>
      <polygon points="454.342,1593.931 455.664,1592.933 456.536,1591.524 456.841,1589.896 456.536,1588.268 455.664,1586.860 454.342,1585.861 452.749,1585.408 451.100,1585.561 449.617,1586.299 448.501,1587.523 447.903,1589.068 447.903,1590.724 448.501,1592.269 449.617,1593.493 451.100,1594.232 452.749,1594.384"/>
      <polygon points="133.523,1593.557 134.909,1592.757 135.850,1591.462 136.183,1589.896 135.850,1588.330 134.909,1587.035 133.523,1586.235 131.931,1586.068 130.409,1586.562 129.219,1587.634 128.568,1589.096 128.568,1590.697 129.219,1592.159 130.409,1593.230 131.931,1593.725"/>
      <polygon points="473.432,1593.278 474.712,1592.538 475.582,1591.342 475.889,1589.896 475.582,1588.450 474.712,1587.254 473.432,1586.515 471.962,1586.360 470.556,1586.817 469.457,1587.806 468.855,1589.157 468.855,1590.635 469.457,1591.986 470.556,1592.975 471.962,1593.432"/>
      <polygon points="113.883,1592.141 114.748,1591.164 115.061,1589.896 114.748,1588.629 113.883,1587.652 112.662,1587.189 111.366,1587.346 110.292,1588.088 109.685,1589.244 109.685,1590.549 110.292,1591.705 111.366,1592.446 112.662,1592.604"/>
      <polygon points="493.509,1591.933 494.370,1591.072 494.686,1589.896 494.370,1588.720 493.509,1587.859 492.333,1587.544 491.157,1587.859 490.296,1588.720 489.981,1589.896 490.296,1591.072 491.157,1591.933 492.333,1592.248"/>
      <polygon points="94.065,1590.896 94.333,1589.896 94.065,1588.896 93.934,1588.765 93.934,1591.028"/>
      <polygon points="294.742,1616.033 296.444,1615.050 297.780,1613.610 298.633,1611.839 298.926,1609.896 298.633,1607.953 297.780,1606.182 296.444,1604.742 294.742,1603.759 292.826,1603.322 290.866,1603.469 289.037,1604.187 287.501,1605.412 286.394,1607.036 285.814,1608.914 285.814,1610.879 286.394,1612.757 287.501,1614.380 289.037,1615.606 290.866,1616.323 292.826,1616.470"/>
      <polygon points="314.717,1615.970 316.401,1614.997 317.724,1613.571 318.568,1611.819 318.858,1609.896 318.568,1607.973 317.724,1606.221 316.401,1604.795 314.717,1603.823 312.821,1603.390 310.882,1603.535 309.071,1604.246 307.551,1605.458 306.455,1607.065 305.882,1608.924 305.882,1610.869 306.455,1612.727 307.551,1614.334 309.071,1615.546 310.882,1616.257 312.821,1616.402"/>
      <polygon points="274.306,1615.967 276.085,1615.060 277.497,1613.648 278.404,1611.869 278.716,1609.896 278.404,1607.924 277.497,1606.144 276.085,1604.732 274.306,1603.825 272.333,1603.513 270.361,1603.825 268.581,1604.732 267.169,1606.144 266.263,1607.924 265.950,1609.896 266.263,1611.869 267.169,1613.648 268.581,1615.060 270.361,1615.967 272.333,1616.279"/>
      <polygon points="334.283,1615.897 336.042,1615.001 337.438,1613.605 338.335,1611.846 338.643,1609.896 338.335,1607.946 337.438,1606.187 336.042,1604.791 334.283,1603.895 332.333,1603.586 330.383,1603.895 328.624,1604.791 327.228,1606.187 326.332,1607.946 326.023,1609.896 326.332,1611.846 327.228,1613.605 328.624,1615.001 330.383,1615.897 332.333,1616.206"/>
      <polygon points="254.236,1615.753 255.953,1614.879 257.316,1613.516 258.191,1611.799 258.492,1609.896 258.191,1607.993 257.316,1606.276 255.953,1604.914 254.236,1604.039 252.333,1603.737 250.430,1604.039 248.713,1604.914 247.351,1606.276 246.476,1607.993 246.175,1609.896 246.476,1611.799 247.351,1613.516 248.713,1614.879 250.430,1615.753 252.333,1616.055"/>
      <polygon points="354.236,1615.753 355.953,1614.879 357.316,1613.516 358.191,1611.799 358.492,1609.896 358.191,1607.993 357.316,1606.276 355.953,1604.914 354.236,1604.039 352.333,1603.737 350.430,1604.039 348.713,1604.914 347.351,1606.276 346.476,1607.993 346.175,1609.896 346.476,1611.799 347.351,1613.516 348.713,1614.879 350.430,1615.753 352.333,1616.055"/>
      <polygon points="234.187,1615.602 235.860,1614.750 237.187,1613.423 238.040,1611.750 238.333,1609.896 238.040,1608.042 237.187,1606.369 235.860,1605.042 234.187,1604.190 232.333,1603.896 230.479,1604.190 228.807,1605.042 227.479,1606.369 226.627,1608.042 226.333,1609.896 226.627,1611.750 227.479,1613.423 228.807,1614.750 230.479,1615.602 232.333,1615.896"/>
      <polygon points="373.786,1615.633 375.570,1614.850 377.003,1613.531 377.930,1611.818 378.251,1609.896 377.930,1607.975 377.003,1606.261 375.570,1604.942 373.786,1604.160 371.845,1603.999 369.956,1604.477 368.325,1605.542 367.129,1607.080 366.496,1608.922 366.496,1610.870 367.129,1612.713 368.325,1614.250 369.956,1615.315 371.845,1615.794"/>
      <polygon points="213.744,1615.467 215.477,1614.707 216.868,1613.426 217.769,1611.762 218.080,1609.896 217.769,1608.030 216.868,1606.366 215.477,1605.085 213.744,1604.325 211.859,1604.169 210.025,1604.633 208.441,1605.668 207.279,1607.161 206.665,1608.950 206.665,1610.842 207.279,1612.631 208.441,1614.124 210.025,1615.159 211.859,1615.623"/>
      <polygon points="393.722,1615.381 395.428,1614.633 396.798,1613.371 397.685,1611.733 397.991,1609.896 397.685,1608.059 396.798,1606.421 395.428,1605.159 393.722,1604.411 391.866,1604.257 390.061,1604.715 388.501,1605.733 387.357,1607.203 386.752,1608.965 386.752,1610.827 387.357,1612.589 388.501,1614.059 390.061,1615.078 391.866,1615.535"/>
      <polygon points="195.070,1614.637 196.526,1613.415 197.477,1611.768 197.807,1609.896 197.477,1608.024 196.526,1606.378 195.070,1605.156 193.284,1604.506 191.383,1604.506 189.597,1605.156 188.140,1606.378 187.190,1608.024 186.860,1609.896 187.190,1611.768 188.140,1613.415 189.597,1614.637 191.383,1615.287 193.284,1615.287"/>
      <polygon points="415.070,1614.637 416.526,1613.415 417.477,1611.768 417.807,1609.896 417.477,1608.024 416.526,1606.378 415.070,1605.156 413.284,1604.506 411.383,1604.506 409.596,1605.156 408.140,1606.378 407.190,1608.024 406.860,1609.896 407.190,1611.768 408.140,1613.415 409.596,1614.637 411.383,1615.287 413.284,1615.287"/>
      <polygon points="174.973,1614.468 176.378,1613.290 177.294,1611.702 177.613,1609.896 177.294,1608.091 176.378,1606.503 174.973,1605.324 173.250,1604.697 171.417,1604.697 169.694,1605.324 168.289,1606.503 167.372,1608.091 167.054,1609.896 167.372,1611.702 168.289,1613.290 169.694,1614.468 171.417,1615.095 173.250,1615.095"/>
      <polygon points="434.922,1614.381 436.300,1613.225 437.199,1611.667 437.511,1609.896 437.199,1608.125 436.300,1606.568 434.922,1605.412 433.232,1604.797 431.434,1604.797 429.744,1605.412 428.367,1606.568 427.468,1608.125 427.155,1609.896 427.468,1611.667 428.367,1613.225 429.744,1614.381 431.434,1614.996 433.232,1614.996"/>
      <polygon points="154.448,1614.143 155.839,1613.092 156.757,1611.610 157.077,1609.896 156.757,1608.182 155.839,1606.700 154.448,1605.650 152.771,1605.172 151.035,1605.333 149.474,1606.110 148.300,1607.399 147.670,1609.024 147.670,1610.768 148.300,1612.394 149.474,1613.682 151.035,1614.459 152.771,1614.620"/>
      <polygon points="454.342,1613.931 455.664,1612.933 456.536,1611.524 456.841,1609.896 456.536,1608.268 455.664,1606.860 454.342,1605.861 452.749,1605.408 451.100,1605.561 449.617,1606.299 448.501,1607.523 447.903,1609.068 447.903,1610.724 448.501,1612.269 449.617,1613.493 451.100,1614.232 452.749,1614.384"/>
      <polygon points="133.523,1613.557 134.909,1612.757 135.850,1611.462 136.183,1609.896 135.850,1608.330 134.909,1607.035 133.523,1606.235 131.931,1606.068 130.409,1606.562 129.219,1607.634 128.568,1609.096 128.568,1610.697 129.219,1612.159 130.409,1613.230 131.931,1613.725"/>
      <polygon points="473.432,1613.278 474.712,1612.538 475.582,1611.342 475.889,1609.896 475.582,1608.450 474.712,1607.254 473.432,1606.515 471.962,1606.360 470.556,1606.817 469.457,1607.806 468.855,1609.157 468.855,1610.635 469.457,1611.986 470.556,1612.975 471.962,1613.432"/>
      <polygon points="113.883,1612.141 114.748,1611.164 115.061,1609.896 114.748,1608.629 113.883,1607.652 112.662,1607.189 111.366,1607.346 110.292,1608.088 109.685,1609.244 109.685,1610.549 110.292,1611.705 111.366,1612.446 112.662,1612.604"/>
      <polygon points="493.509,1611.933 494.370,1611.072 494.686,1609.896 494.370,1608.720 493.509,1607.859 492.333,1607.544 491.157,1607.859 490.296,1608.720 489.981,1609.896 490.296,1611.072 491.157,1611.933 492.333,1612.248"/>
      <polygon points="94.065,1610.896 94.333,1609.896 94.065,1608.896 93.934,1608.765 93.934,1611.028"/>
      <polygon points="294.742,1636.033 296.444,1635.050 297.780,1633.610 298.633,1631.839 298.926,1629.896 298.633,1627.953 297.780,1626.182 296.444,1624.742 294.742,1623.759 292.826,1623.322 290.866,1623.469 289.037,1624.187 287.501,1625.412 286.394,1627.036 285.814,1628.914 285.814,1630.879 286.394,1632.757 287.501,1634.380 289.037,1635.606 290.866,1636.323 292.826,1636.470"/>
      <polygon points="314.717,1635.970 316.401,1634.997 317.724,1633.571 318.568,1631.819 318.858,1629.896 318.568,1627.973 317.724,1626.221 316.401,1624.795 314.717,1623.823 312.821,1623.390 310.882,1623.535 309.071,1624.246 307.551,1625.458 306.455,1627.065 305.882,1628.924 305.882,1630.869 306.455,1632.727 307.551,1634.334 309.071,1635.546 310.882,1636.257 312.821,1636.402"/>
      <polygon points="274.306,1635.967 276.085,1635.060 277.497,1633.648 278.404,1631.869 278.716,1629.896 278.404,1627.924 277.497,1626.144 276.085,1624.732 274.306,1623.825 272.333,1623.513 270.361,1623.825 268.581,1624.732 267.169,1626.144 266.263,1627.924 265.950,1629.896 266.263,1631.869 267.169,1633.648 268.581,1635.060 270.361,1635.967 272.333,1636.279"/>
      <polygon points="334.283,1635.897 336.042,1635.001 337.438,1633.605 338.335,1631.846 338.643,1629.896 338.335,1627.946 337.438,1626.187 336.042,1624.791 334.283,1623.895 332.333,1623.586 330.383,1623.895 328.624,1624.791 327.228,1626.187 326.332,1627.946 326.023,1629.896 326.332,1631.846 327.228,1633.605 328.624,1635.001 330.383,1635.897 332.333,1636.206"/>
      <polygon points="354.236,1635.753 355.953,1634.879 357.316,1633.516 358.191,1631.799 358.492,1629.896 358.191,1627.993 357.316,1626.276 355.953,1624.914 354.236,1624.039 352.333,1623.737 350.430,1624.039 348.713,1624.914 347.351,1626.276 346.476,1627.993 346.175,1629.896 346.476,1631.799 347.351,1633.516 348.713,1634.879 350.430,1635.753 352.333,1636.055"/>
      <polygon points="254.236,1635.753 255.953,1634.879 257.316,1633.516 258.191,1631.799 258.492,1629.896 258.191,1627.993 257.316,1626.276 255.953,1624.914 254.236,1624.039 252.333,1623.737 250.430,1624.039 248.713,1624.914 247.351,1626.276 246.476,1627.993 246.175,1629.896 246.476,1631.799 247.351,1633.516 248.713,1634.879 250.430,1635.753 252.333,1636.055"/>
      <polygon points="234.187,1635.602 235.860,1634.750 237.187,1633.423 238.040,1631.750 238.333,1629.896 238.040,1628.042 237.187,1626.369 235.860,1625.042 234.187,1624.190 232.333,1623.896 230.479,1624.190 228.807,1625.042 227.479,1626.369 226.627,1628.042 226.333,1629.896 226.627,1631.750 227.479,1633.423 228.807,1634.750 230.479,1635.602 232.333,1635.896"/>
      <polygon points="373.786,1635.633 375.570,1634.850 377.003,1633.531 377.930,1631.818 378.251,1629.896 377.930,1627.975 377.003,1626.261 375.570,1624.942 373.786,1624.160 371.845,1623.999 369.956,1624.477 368.325,1625.542 367.129,1627.080 366.496,1628.922 366.496,1630.870 367.129,1632.713 368.325,1634.250 369.956,1635.315 371.845,1635.794"/>
      <polygon points="213.744,1635.467 215.477,1634.707 216.868,1633.426 217.769,1631.762 218.080,1629.896 217.769,1628.030 216.868,1626.366 215.477,1625.085 213.744,1624.325 211.859,1624.169 210.025,1624.633 208.441,1625.668 207.279,1627.161 206.665,1628.950 206.665,1630.842 207.279,1632.631 208.441,1634.124 210.025,1635.159 211.859,1635.623"/>
      <polygon points="393.722,1635.381 395.428,1634.633 396.798,1633.371 397.685,1631.733 397.991,1629.896 397.685,1628.059 396.798,1626.421 395.428,1625.159 393.722,1624.411 391.866,1624.257 390.061,1624.715 388.501,1625.733 387.357,1627.203 386.752,1628.965 386.752,1630.827 387.357,1632.589 388.501,1634.059 390.061,1635.078 391.866,1635.535"/>
      <polygon points="415.070,1634.637 416.526,1633.415 417.477,1631.768 417.807,1629.896 417.477,1628.024 416.526,1626.378 415.070,1625.156 413.284,1624.506 411.383,1624.506 409.596,1625.156 408.140,1626.378 407.190,1628.024 406.860,1629.896 407.190,1631.768 408.140,1633.415 409.596,1634.637 411.383,1635.287 413.284,1635.287"/>
      <polygon points="195.070,1634.637 196.526,1633.415 197.477,1631.768 197.807,1629.896 197.477,1628.024 196.526,1626.378 195.070,1625.156 193.284,1624.506 191.383,1624.506 189.597,1625.156 188.140,1626.378 187.190,1628.024 186.860,1629.896 187.190,1631.768 188.140,1633.415 189.597,1634.637 191.383,1635.287 193.284,1635.287"/>
      <polygon points="174.973,1634.468 176.378,1633.290 177.294,1631.702 177.613,1629.896 177.294,1628.091 176.378,1626.503 174.973,1625.324 173.250,1624.697 171.417,1624.697 169.694,1625.324 168.289,1626.503 167.372,1628.091 167.054,1629.896 167.372,1631.702 168.289,1633.290 169.694,1634.468 171.417,1635.095 173.250,1635.095"/>
      <polygon points="434.922,1634.381 436.300,1633.225 437.199,1631.667 437.511,1629.896 437.199,1628.125 436.300,1626.568 434.922,1625.412 433.232,1624.797 431.434,1624.797 429.744,1625.412 428.367,1626.568 427.468,1628.125 427.155,1629.896 427.468,1631.667 428.367,1633.225 429.744,1634.381 431.434,1634.996 433.232,1634.996"/>
      <polygon points="154.448,1634.143 155.839,1633.092 156.757,1631.610 157.077,1629.896 156.757,1628.182 155.839,1626.700 154.448,1625.650 152.771,1625.172 151.035,1625.333 149.474,1626.110 148.300,1627.399 147.670,1629.024 147.670,1630.768 148.300,1632.394 149.474,1633.682 151.035,1634.459 152.771,1634.620"/>
      <polygon points="454.342,1633.931 455.664,1632.933 456.536,1631.524 456.841,1629.896 456.536,1628.268 455.664,1626.860 454.342,1625.861 452.749,1625.408 451.100,1625.561 449.617,1626.299 448.501,1627.523 447.903,1629.068 447.903,1630.724 448.501,1632.269 449.617,1633.493 451.100,1634.232 452.749,1634.384"/>
      <polygon points="133.523,1633.557 134.909,1632.757 135.850,1631.462 136.183,1629.896 135.850,1628.330 134.909,1627.035 133.523,1626.235 131.931,1626.068 130.409,1626.562 129.219,1627.634 128.568,1629.096 128.568,1630.697 129.219,1632.159 130.409,1633.230 131.931,1633.725"/>
      <polygon points="473.432,1633.278 474.712,1632.538 475.582,1631.342 475.889,1629.896 475.582,1628.450 474.712,1627.254 473.432,1626.515 471.962,1626.360 470.556,1626.817 469.457,1627.806 468.855,1629.157 468.855,1630.635 469.457,1631.986 470.556,1632.975 471.962,1633.432"/>
      <polygon points="113.883,1632.141 114.748,1631.164 115.061,1629.896 114.748,1628.629 113.883,1627.652 112.662,1627.189 111.366,1627.346 110.292,1628.088 109.685,1629.244 109.685,1630.549 110.292,1631.705 111.366,1632.446 112.662,1632.604"/>
      <polygon points="493.509,1631.933 494.370,1631.072 494.686,1629.896 494.370,1628.720 493.509,1627.859 492.333,1627.544 491.157,1627.859 490.296,1628.720 489.981,1629.896 490.296,1631.072 491.157,1631.933 492.333,1632.248"/>
      <polygon points="94.065,1630.896 94.333,1629.896 94.065,1628.896 93.934,1628.765 93.934,1631.028"/>
      <polygon points="294.742,1656.033 296.444,1655.050 297.780,1653.610 298.633,1651.839 298.926,1649.896 298.633,1647.953 297.780,1646.182 296.444,1644.742 294.742,1643.759 292.826,1643.322 290.866,1643.469 289.037,1644.187 287.501,1645.412 286.394,1647.036 285.814,1648.914 285.814,1650.879 286.394,1652.757 287.501,1654.380 289.037,1655.606 290.866,1656.323 292.826,1656.470"/>
      <polygon points="314.717,1655.970 316.401,1654.997 317.724,1653.571 318.568,1651.819 318.858,1649.896 318.568,1647.973 317.724,1646.221 316.401,1644.795 314.717,1643.823 312.821,1643.390 310.882,1643.535 309.071,1644.246 307.551,1645.458 306.455,1647.065 305.882,1648.924 305.882,1650.869 306.455,1652.727 307.551,1654.334 309.071,1655.546 310.882,1656.257 312.821,1656.402"/>
      <polygon points="274.306,1655.967 276.085,1655.060 277.497,1653.648 278.404,1651.869 278.716,1649.896 278.404,1647.924 277.497,1646.144 276.085,1644.732 274.306,1643.825 272.333,1643.513 270.361,1643.825 268.581,1644.732 267.169,1646.144 266.263,1647.924 265.950,1649.896 266.263,1651.869 267.169,1653.648 268.581,1655.060 270.361,1655.967 272.333,1656.279"/>
      <polygon points="334.283,1655.897 336.042,1655.001 337.438,1653.605 338.335,1651.846 338.643,1649.896 338.335,1647.946 337.438,1646.187 336.042,1644.791 334.283,1643.895 332.333,1643.586 330.383,1643.895 328.624,1644.791 327.228,1646.187 326.332,1647.946 326.023,1649.896 326.332,1651.846 327.228,1653.605 328.624,1655.001 330.383,1655.897 332.333,1656.206"/>
      <polygon points="354.236,1655.753 355.953,1654.879 357.316,1653.516 358.191,1651.799 358.492,1649.896 358.191,1647.993 357.316,1646.276 355.953,1644.914 354.236,1644.039 352.333,1643.737 350.430,1644.039 348.713,1644.914 347.351,1646.276 346.476,1647.993 346.175,1649.896 346.476,1651.799 347.351,1653.516 348.713,1654.879 350.430,1655.753 352.333,1656.055"/>
      <polygon points="254.236,1655.753 255.953,1654.879 257.316,1653.516 258.191,1651.799 258.492,1649.896 258.191,1647.993 257.316,1646.276 255.953,1644.914 254.236,1644.039 252.333,1643.737 250.430,1644.039 248.713,1644.914 247.351,1646.276 246.476,1647.993 246.175,1649.896 246.476,1651.799 247.351,1653.516 248.713,1654.879 250.430,1655.753 252.333,1656.055"/>
      <polygon points="234.187,1655.602 235.860,1654.750 237.187,1653.423 238.040,1651.750 238.333,1649.896 238.040,1648.042 237.187,1646.369 235.860,1645.042 234.187,1644.190 232.333,1643.896 230.479,1644.190 228.807,1645.042 227.479,1646.369 226.627,1648.042 226.333,1649.896 226.627,1651.750 227.479,1653.423 228.807,1654.750 230.479,1655.602 232.333,1655.896"/>
      <polygon points="373.786,1655.633 375.570,1654.850 377.003,1653.531 377.930,1651.818 378.251,1649.896 377.930,1647.975 377.003,1646.261 375.570,1644.942 373.786,1644.160 371.845,1643.999 369.956,1644.477 368.325,1645.542 367.129,1647.080 366.496,1648.922 366.496,1650.870 367.129,1652.713 368.325,1654.250 369.956,1655.315 371.845,1655.794"/>
      <polygon points="213.744,1655.467 215.477,1654.707 216.868,1653.426 217.769,1651.762 218.080,1649.896 217.769,1648.030 216.868,1646.366 215.477,1645.085 213.744,1644.325 211.859,1644.169 210.025,1644.633 208.441,1645.668 207.279,1647.161 206.665,1648.950 206.665,1650.842 207.279,1652.631 208.441,1654.124 210.025,1655.159 211.859,1655.623"/>
      <polygon points="393.722,1655.381 395.428,1654.633 396.798,1653.371 397.685,1651.733 397.991,1649.896 397.685,1648.059 396.798,1646.421 395.428,1645.159 393.722,1644.411 391.866,1644.257 390.061,1644.715 388.501,1645.733 387.357,1647.203 386.752,1648.965 386.752,1650.827 387.357,1652.589 388.501,1654.059 390.061,1655.078 391.866,1655.535"/>
      <polygon points="415.070,1654.637 416.526,1653.415 417.477,1651.768 417.807,1649.896 417.477,1648.024 416.526,1646.378 415.070,1645.156 413.284,1644.506 411.383,1644.506 409.596,1645.156 408.140,1646.378 407.190,1648.024 406.860,1649.896 407.190,1651.768 408.140,1653.415 409.596,1654.637 411.383,1655.287 413.284,1655.287"/>
      <polygon points="195.070,1654.637 196.526,1653.415 197.477,1651.768 197.807,1649.896 197.477,1648.024 196.526,1646.378 195.070,1645.156 193.284,1644.506 191.383,1644.506 189.597,1645.156 188.140,1646.378 187.190,1648.024 186.860,1649.896 187.190,1651.768 188.140,1653.415 189.597,1654.637 191.383,1655.287 193.284,1655.287"/>
      <polygon points="174.973,1654.468 176.378,1653.290 177.294,1651.702 177.613,1649.896 177.294,1648.091 176.378,1646.503 174.973,1645.324 173.250,1644.697 171.417,1644.697 169.694,1645.324 168.289,1646.503 167.372,1648.091 167.054,1649.896 167.372,1651.702 168.289,1653.290 169.694,1654.468 171.417,1655.095 173.250,1655.095"/>
      <polygon points="434.922,1654.381 436.300,1653.225 437.199,1651.667 437.511,1649.896 437.199,1648.125 436.300,1646.568 434.922,1645.412 433.232,1644.797 431.434,1644.797 429.744,1645.412 428.367,1646.568 427.468,1648.125 427.155,1649.896 427.468,1651.667 428.367,1653.225 429.744,1654.381 431.434,1654.996 433.232,1654.996"/>
      <polygon points="154.448,1654.143 155.839,1653.092 156.757,1651.610 157.077,1649.896 156.757,1648.182 155.839,1646.700 154.448,1645.650 152.771,1645.172 151.035,1645.333 149.474,1646.110 148.300,1647.399 147.670,1649.024 147.670,1650.768 148.300,1652.394 149.474,1653.682 151.035,1654.459 152.771,1654.620"/>
      <polygon points="454.342,1653.931 455.664,1652.933 456.536,1651.524 456.841,1649.896 456.536,1648.268 455.664,1646.860 454.342,1645.861 452.749,1645.408 451.100,1645.561 449.617,1646.299 448.501,1647.523 447.903,1649.068 447.903,1650.724 448.501,1652.269 449.617,1653.493 451.100,1654.232 452.749,1654.384"/>
      <polygon points="133.523,1653.557 134.909,1652.757 135.850,1651.462 136.183,1649.896 135.850,1648.330 134.909,1647.035 133.523,1646.235 131.931,1646.068 130.409,1646.562 129.219,1647.634 128.568,1649.096 128.568,1650.697 129.219,1652.159 130.409,1653.230 131.931,1653.725"/>
      <polygon points="473.432,1653.278 474.712,1652.538 475.582,1651.342 475.889,1649.896 475.582,1648.450 474.712,1647.254 473.432,1646.515 471.962,1646.360 470.556,1646.817 469.457,1647.806 468.855,1649.157 468.855,1650.635 469.457,1651.986 470.556,1652.975 471.962,1653.432"/>
      <polygon points="113.883,1652.141 114.748,1651.164 115.061,1649.896 114.748,1648.629 113.883,1647.652 112.662,1647.189 111.366,1647.346 110.292,1648.088 109.685,1649.244 109.685,1650.549 110.292,1651.705 111.366,1652.446 112.662,1652.604"/>
      <polygon points="493.509,1651.933 494.370,1651.072 494.686,1649.896 494.370,1648.720 493.509,1647.859 492.333,1647.544 491.157,1647.859 490.296,1648.720 489.981,1649.896 490.296,1651.072 491.157,1651.933 492.333,1652.248"/>
      <polygon points="94.065,1650.896 94.333,1649.896 94.065,1648.896 93.934,1648.765 93.934,1651.028"/>
      <polygon points="294.742,1676.033 296.444,1675.050 297.780,1673.610 298.633,1671.839 298.926,1669.896 298.633,1667.953 297.780,1666.182 296.444,1664.742 294.742,1663.759 292.826,1663.322 290.866,1663.469 289.037,1664.187 287.501,1665.412 286.394,1667.036 285.814,1668.914 285.814,1670.879 286.394,1672.757 287.501,1674.380 289.037,1675.606 290.866,1676.323 292.826,1676.470"/>
      <polygon points="314.717,1675.970 316.401,1674.997 317.724,1673.571 318.568,1671.819 318.858,1669.896 318.568,1667.973 317.724,1666.221 316.401,1664.795 314.717,1663.823 312.821,1663.390 310.882,1663.535 309.071,1664.246 307.551,1665.458 306.455,1667.065 305.882,1668.924 305.882,1670.869 306.455,1672.727 307.551,1674.334 309.071,1675.546 310.882,1676.257 312.821,1676.402"/>
      <polygon points="274.306,1675.967 276.085,1675.060 277.497,1673.648 278.404,1671.869 278.716,1669.896 278.404,1667.924 277.497,1666.144 276.085,1664.732 274.306,1663.825 272.333,1663.513 270.361,1663.825 268.581,1664.732 267.169,1666.144 266.263,1667.924 265.950,1669.896 266.263,1671.869 267.169,1673.648 268.581,1675.060 270.361,1675.967 272.333,1676.279"/>
      <polygon points="334.283,1675.897 336.042,1675.001 337.438,1673.605 338.335,1671.846 338.643,1669.896 338.335,1667.946 337.438,1666.187 336.042,1664.791 334.283,1663.895 332.333,1663.586 330.383,1663.895 328.624,1664.791 327.228,1666.187 326.332,1667.946 326.023,1669.896 326.332,1671.846 327.228,1673.605 328.624,1675.001 330.383,1675.897 332.333,1676.206"/>
      <polygon points="254.236,1675.753 255.953,1674.879 257.316,1673.516 258.191,1671.799 258.492,1669.896 258.191,1667.993 257.316,1666.276 255.953,1664.914 254.236,1664.039 252.333,1663.737 250.430,1664.039 248.713,1664.914 247.351,1666.276 246.476,1667.993 246.175,1669.896 246.476,1671.799 247.351,1673.516 248.713,1674.879 250.430,1675.753 252.333,1676.055"/>
      <polygon points="354.236,1675.753 355.953,1674.879 357.316,1673.516 358.191,1671.799 358.492,1669.896 358.191,1667.993 357.316,1666.276 355.953,1664.914 354.236,1664.039 352.333,1663.737 350.430,1664.039 348.713,1664.914 347.351,1666.276 346.476,1667.993 346.175,1669.896 346.476,1671.799 347.351,1673.516 348.713,1674.879 350.430,1675.753 352.333,1676.055"/>
      <polygon points="234.187,1675.602 235.860,1674.750 237.187,1673.423 238.040,1671.750 238.333,1669.896 238.040,1668.042 237.187,1666.369 235.860,1665.042 234.187,1664.190 232.333,1663.896 230.479,1664.190 228.807,1665.042 227.479,1666.369 226.627,1668.042 226.333,1669.896 226.627,1671.750 227.479,1673.423 228.807,1674.750 230.479,1675.602 232.333,1675.896"/>
      <polygon points="373.786,1675.633 375.570,1674.850 377.003,1673.531 377.930,1671.818 378.251,1669.896 377.930,1667.975 377.003,1666.261 375.570,1664.942 373.786,1664.160 371.845,1663.999 369.956,1664.477 368.325,1665.542 367.129,1667.080 366.496,1668.922 366.496,1670.870 367.129,1672.713 368.325,1674.250 369.956,1675.315 371.845,1675.794"/>
      <polygon points="213.744,1675.467 215.477,1674.707 216.868,1673.426 217.769,1671.762 218.080,1669.896 217.769,1668.030 216.868,1666.366 215.477,1665.085 213.744,1664.325 211.859,1664.169 210.025,1664.633 208.441,1665.668 207.279,1667.161 206.665,1668.950 206.665,1670.842 207.279,1672.631 208.441,1674.124 210.025,1675.159 211.859,1675.623"/>
      <polygon points="393.722,1675.381 395.428,1674.633 396.798,1673.371 397.685,1671.733 397.991,1669.896 397.685,1668.059 396.798,1666.421 395.428,1665.159 393.722,1664.411 391.866,1664.257 390.061,1664.715 388.501,1665.733 387.357,1667.203 386.752,1668.965 386.752,1670.827 387.357,1672.589 388.501,1674.059 390.061,1675.078 391.866,1675.535"/>
      <polygon points="195.070,1674.637 196.526,1673.415 197.477,1671.768 197.807,1669.896 197.477,1668.024 196.526,1666.378 195.070,1665.156 193.284,1664.506 191.383,1664.506 189.597,1665.156 188.140,1666.378 187.190,1668.024 186.860,1669.896 187.190,1671.768 188.140,1673.415 189.597,1674.637 191.383,1675.287 193.284,1675.287"/>
      <polygon points="415.070,1674.637 416.526,1673.415 417.477,1671.768 417.807,1669.896 417.477,1668.024 416.526,1666.378 415.070,1665.156 413.284,1664.506 411.383,1664.506 409.596,1665.156 408.140,1666.378 407.190,1668.024 406.860,1669.896 407.190,1671.768 408.140,1673.415 409.596,1674.637 411.383,1675.287 413.284,1675.287"/>
      <polygon points="174.973,1674.468 176.378,1673.290 177.294,1671.702 177.613,1669.896 177.294,1668.091 176.378,1666.503 174.973,1665.324 173.250,1664.697 171.417,1664.697 169.694,1665.324 168.289,1666.503 167.372,1668.091 167.054,1669.896 167.372,1671.702 168.289,1673.290 169.694,1674.468 171.417,1675.095 173.250,1675.095"/>
      <polygon points="434.922,1674.381 436.300,1673.225 437.199,1671.667 437.511,1669.896 437.199,1668.125 436.300,1666.568 434.922,1665.412 433.232,1664.797 431.434,1664.797 429.744,1665.412 428.367,1666.568 427.468,1668.125 427.155,1669.896 427.468,1671.667 428.367,1673.225 429.744,1674.381 431.434,1674.996 433.232,1674.996"/>
      <polygon points="154.448,1674.143 155.839,1673.092 156.757,1671.610 157.077,1669.896 156.757,1668.182 155.839,1666.700 154.448,1665.650 152.771,1665.172 151.035,1665.333 149.474,1666.110 148.300,1667.399 147.670,1669.024 147.670,1670.768 148.300,1672.394 149.474,1673.682 151.035,1674.459 152.771,1674.620"/>
      <polygon points="454.342,1673.931 455.664,1672.933 456.536,1671.524 456.841,1669.896 456.536,1668.268 455.664,1666.860 454.342,1665.861 452.749,1665.408 451.100,1665.561 449.617,1666.299 448.501,1667.523 447.903,1669.068 447.903,1670.724 448.501,1672.269 449.617,1673.493 451.100,1674.232 452.749,1674.384"/>
      <polygon points="133.523,1673.557 134.909,1672.757 135.850,1671.462 136.183,1669.896 135.850,1668.330 134.909,1667.035 133.523,1666.235 131.931,1666.068 130.409,1666.562 129.219,1667.634 128.568,1669.096 128.568,1670.697 129.219,1672.159 130.409,1673.230 131.931,1673.725"/>
      <polygon points="473.432,1673.278 474.712,1672.538 475.582,1671.342 475.889,1669.896 475.582,1668.450 474.712,1667.254 473.432,1666.515 471.962,1666.360 470.556,1666.817 469.457,1667.806 468.855,1669.157 468.855,1670.635 469.457,1671.986 470.556,1672.975 471.962,1673.432"/>
      <polygon points="113.883,1672.141 114.748,1671.164 115.061,1669.896 114.748,1668.629 113.883,1667.652 112.662,1667.189 111.366,1667.346 110.292,1668.088 109.685,1669.244 109.685,1670.549 110.292,1671.705 111.366,1672.446 112.662,1672.604"/>
      <polygon points="493.509,1671.933 494.370,1671.072 494.686,1669.896 494.370,1668.720 493.509,1667.859 492.333,1667.544 491.157,1667.859 490.296,1668.720 489.981,1669.896 490.296,1671.072 491.157,1671.933 492.333,1672.248"/>
      <polygon points="94.065,1670.896 94.333,1669.896 94.065,1668.896 93.934,1668.765 93.934,1671.028"/>
    </g>
    <g stroke="#EF6C00" stroke-width="0.4" fill="none">
    </g>
  </g>
  <g stroke="#000000" stroke-width="0.4">
    <line x1="500.000" y1="1000.000" x2="1500.000" y2="1000.000"/>
  </g>
  <g stroke="#000000" stroke-width="0.4">
    <line x1="1000.000" y1="500.000" x2="1000.000" y2="1500.000"/>
  </g>
  <circle cx="1000.000" cy="1000.000" r="1000.000" stroke="red" stroke-width="1" fill="none"/>
  </g>
</svg>
