<?xml version="1.0" encoding="UTF-8"?>
<svg xmlns="http://www.w3.org/2000/svg" version="1.1" width="2000" height="2000">
  <g fill="none" stroke-linecap="round" stroke-linejoin="round">
  <text x="10" y="20" font-size="24" fill="#555">Layer 217 Z=55.400 mm</text>
  <g transform="translate(700.000,-602.229)">
    <g stroke="#2E7D32" stroke-width="0.4">
      <line x1="521.940" y1="1629.997" x2="471.940" y2="1629.997"/>
      <line x1="521.940" y1="1630.997" x2="471.940" y2="1630.997"/>
      <line x1="521.940" y1="1631.997" x2="471.940" y2="1631.997"/>
      <line x1="521.940" y1="1632.997" x2="471.940" y2="1632.997"/>
      <line x1="521.940" y1="1633.997" x2="471.940" y2="1633.997"/>
      <line x1="521.940" y1="1634.997" x2="471.940" y2="1634.997"/>
      <line x1="521.940" y1="1635.997" x2="471.940" y2="1635.997"/>
      <line x1="521.940" y1="1636.997" x2="471.940" y2="1636.997"/>
      <line x1="521.940" y1="1637.997" x2="471.940" y2="1637.997"/>
      <line x1="521.940" y1="1638.997" x2="471.940" y2="1638.997"/>
      <line x1="521.940" y1="1639.997" x2="471.940" y2="1639.997"/>
      <line x1="521.940" y1="1640.997" x2="471.940" y2="1640.997"/>
      <line x1="521.940" y1="1641.997" x2="471.940" y2="1641.997"/>
      <line x1="521.940" y1="1642.997" x2="471.940" y2="1642.997"/>
      <line x1="521.940" y1="1643.997" x2="471.940" y2="1643.997"/>
      <line x1="521.940" y1="1644.997" x2="471.940" y2="1644.997"/>
      <line x1="521.940" y1="1645.997" x2="471.940" y2="1645.997"/>
      <line x1="521.940" y1="1646.997" x2="471.940" y2="1646.997"/>
      <line x1="521.940" y1="1647.997" x2="471.940" y2="1647.997"/>
      <line x1="521.940" y1="1648.997" x2="471.940" y2="1648.997"/>
      <line x1="521.940" y1="1649.997" x2="471.940" y2="1649.997"/>
      <line x1="521.940" y1="1650.997" x2="471.940" y2="1650.997"/>
      <line x1="521.940" y1="1651.997" x2="471.940" y2="1651.997"/>
      <line x1="521.940" y1="1652.997" x2="471.940" y2="1652.997"/>
      <line x1="521.940" y1="1653.997" x2="471.940" y2="1653.997"/>
      <line x1="521.940" y1="1654.997" x2="471.940" y2="1654.997"/>
      <line x1="521.940" y1="1655.997" x2="471.940" y2="1655.997"/>
      <line x1="521.940" y1="1656.997" x2="471.940" y2="1656.997"/>
      <line x1="521.940" y1="1657.997" x2="471.940" y2="1657.997"/>
      <line x1="521.940" y1="1658.997" x2="471.940" y2="1658.997"/>
      <line x1="521.940" y1="1659.997" x2="471.940" y2="1659.997"/>
      <line x1="521.940" y1="1660.997" x2="471.940" y2="1660.997"/>
      <line x1="521.940" y1="1661.997" x2="471.940" y2="1661.997"/>
      <line x1="521.940" y1="1662.997" x2="471.940" y2="1662.997"/>
      <line x1="521.940" y1="1663.997" x2="471.940" y2="1663.997"/>
      <line x1="521.940" y1="1664.997" x2="471.940" y2="1664.997"/>
      <line x1="521.940" y1="1665.997" x2="471.940" y2="1665.997"/>
      <line x1="521.940" y1="1666.997" x2="471.940" y2="1666.997"/>
      <line x1="521.940" y1="1667.997" x2="471.940" y2="1667.997"/>
      <line x1="521.940" y1="1668.997" x2="471.940" y2="1668.997"/>
      <line x1="521.940" y1="1669.997" x2="471.940" y2="1669.997"/>
      <line x1="521.940" y1="1670.997" x2="471.940" y2="1670.997"/>
      <line x1="521.940" y1="1671.997" x2="471.940" y2="1671.997"/>
      <line x1="521.940" y1="1672.997" x2="471.940" y2="1672.997"/>
      <line x1="521.940" y1="1673.997" x2="471.940" y2="1673.997"/>
      <line x1="521.940" y1="1674.997" x2="471.940" y2="1674.997"/>
      <line x1="521.940" y1="1675.997" x2="471.940" y2="1675.997"/>
      <line x1="521.940" y1="1676.997" x2="471.940" y2="1676.997"/>
      <line x1="521.940" y1="1677.997" x2="471.940" y2="1677.997"/>
      <line x1="521.940" y1="1678.997" x2="471.940" y2="1678.997"/>
      <line x1="572.040" y1="1629.997" x2="522.040" y2="1629.997"/>
      <line x1="572.040" y1="1630.997" x2="522.040" y2="1630.997"/>
      <line x1="572.040" y1="1631.997" x2="522.040" y2="1631.997"/>
      <line x1="572.040" y1="1632.997" x2="522.040" y2="1632.997"/>
      <line x1="572.040" y1="1633.997" x2="522.040" y2="1633.997"/>
      <line x1="572.040" y1="1634.997" x2="522.040" y2="1634.997"/>
      <line x1="572.040" y1="1635.997" x2="522.040" y2="1635.997"/>
      <line x1="572.040" y1="1636.997" x2="522.040" y2="1636.997"/>
      <line x1="572.040" y1="1637.997" x2="522.040" y2="1637.997"/>
      <line x1="572.040" y1="1638.997" x2="522.040" y2="1638.997"/>
      <line x1="572.040" y1="1639.997" x2="522.040" y2="1639.997"/>
      <line x1="572.040" y1="1640.997" x2="522.040" y2="1640.997"/>
      <line x1="572.040" y1="1641.997" x2="522.040" y2="1641.997"/>
      <line x1="572.040" y1="1642.997" x2="522.040" y2="1642.997"/>
      <line x1="572.040" y1="1643.997" x2="522.040" y2="1643.997"/>
      <line x1="572.040" y1="1644.997" x2="522.040" y2="1644.997"/>
      <line x1="572.040" y1="1645.997" x2="522.040" y2="1645.997"/>
      <line x1="572.040" y1="1646.997" x2="522.040" y2="1646.997"/>
      <line x1="572.040" y1="1647.997" x2="522.040" y2="1647.997"/>
      <line x1="572.040" y1="1648.997" x2="522.040" y2="1648.997"/>
      <line x1="572.040" y1="1649.997" x2="522.040" y2="1649.997"/>
      <line x1="572.040" y1="1650.997" x2="522.040" y2="1650.997"/>
      <line x1="572.040" y1="1651.997" x2="522.040" y2="1651.997"/>
      <line x1="572.040" y1="1652.997" x2="522.040" y2="1652.997"/>
      <line x1="572.040" y1="1653.997" x2="522.040" y2="1653.997"/>
      <line x1="572.040" y1="1654.997" x2="522.040" y2="1654.997"/>
      <line x1="572.040" y1="1655.997" x2="522.040" y2="1655.997"/>
      <line x1="572.040" y1="1656.997" x2="522.040" y2="1656.997"/>
      <line x1="572.040" y1="1657.997" x2="522.040" y2="1657.997"/>
      <line x1="572.040" y1="1658.997" x2="522.040" y2="1658.997"/>
      <line x1="572.040" y1="1659.997" x2="522.040" y2="1659.997"/>
      <line x1="572.040" y1="1660.997" x2="522.040" y2="1660.997"/>
      <line x1="572.040" y1="1661.997" x2="522.040" y2="1661.997"/>
      <line x1="572.040" y1="1662.997" x2="522.040" y2="1662.997"/>
      <line x1="572.040" y1="1663.997" x2="522.040" y2="1663.997"/>
      <line x1="572.040" y1="1664.997" x2="522.040" y2="1664.997"/>
      <line x1="572.040" y1="1665.997" x2="522.040" y2="1665.997"/>
      <line x1="572.040" y1="1666.997" x2="522.040" y2="1666.997"/>
      <line x1="572.040" y1="1667.997" x2="522.040" y2="1667.997"/>
      <line x1="572.040" y1="1668.997" x2="522.040" y2="1668.997"/>
      <line x1="572.040" y1="1669.997" x2="522.040" y2="1669.997"/>
      <line x1="572.040" y1="1670.997" x2="522.040" y2="1670.997"/>
      <line x1="572.040" y1="1671.997" x2="522.040" y2="1671.997"/>
      <line x1="572.040" y1="1672.997" x2="522.040" y2="1672.997"/>
      <line x1="572.040" y1="1673.997" x2="522.040" y2="1673.997"/>
      <line x1="572.040" y1="1674.997" x2="522.040" y2="1674.997"/>
      <line x1="572.040" y1="1675.997" x2="522.040" y2="1675.997"/>
      <line x1="572.040" y1="1676.997" x2="522.040" y2="1676.997"/>
      <line x1="572.040" y1="1677.997" x2="522.040" y2="1677.997"/>
      <line x1="572.040" y1="1678.997" x2="522.040" y2="1678.997"/>
      <line x1="597.000" y1="1629.997" x2="572.140" y2="1629.997"/>
      <line x1="597.000" y1="1630.997" x2="572.140" y2="1630.997"/>
      <line x1="597.000" y1="1631.997" x2="572.140" y2="1631.997"/>
      <line x1="597.000" y1="1632.997" x2="572.140" y2="1632.997"/>
      <line x1="597.000" y1="1633.997" x2="572.140" y2="1633.997"/>
      <line x1="597.000" y1="1634.997" x2="572.140" y2="1634.997"/>
      <line x1="597.000" y1="1635.997" x2="572.140" y2="1635.997"/>
      <line x1="597.000" y1="1636.997" x2="572.140" y2="1636.997"/>
      <line x1="597.000" y1="1637.997" x2="572.140" y2="1637.997"/>
      <line x1="597.000" y1="1638.997" x2="572.140" y2="1638.997"/>
      <line x1="597.000" y1="1639.997" x2="572.140" y2="1639.997"/>
      <line x1="597.000" y1="1640.997" x2="572.140" y2="1640.997"/>
      <line x1="597.000" y1="1641.997" x2="572.140" y2="1641.997"/>
      <line x1="597.000" y1="1642.997" x2="572.140" y2="1642.997"/>
      <line x1="597.000" y1="1643.997" x2="572.140" y2="1643.997"/>
      <line x1="597.000" y1="1644.997" x2="572.140" y2="1644.997"/>
      <line x1="597.000" y1="1645.997" x2="572.140" y2="1645.997"/>
      <line x1="597.000" y1="1646.997" x2="572.140" y2="1646.997"/>
      <line x1="597.000" y1="1647.997" x2="572.140" y2="1647.997"/>
      <line x1="597.000" y1="1648.997" x2="572.140" y2="1648.997"/>
      <line x1="597.000" y1="1649.997" x2="572.140" y2="1649.997"/>
      <line x1="597.000" y1="1650.997" x2="572.140" y2="1650.997"/>
      <line x1="597.000" y1="1651.997" x2="572.140" y2="1651.997"/>
      <line x1="597.000" y1="1652.997" x2="572.140" y2="1652.997"/>
      <line x1="597.000" y1="1653.997" x2="572.140" y2="1653.997"/>
      <line x1="597.000" y1="1654.997" x2="572.140" y2="1654.997"/>
      <line x1="597.000" y1="1655.997" x2="572.140" y2="1655.997"/>
      <line x1="597.000" y1="1656.997" x2="572.140" y2="1656.997"/>
      <line x1="597.000" y1="1657.997" x2="572.140" y2="1657.997"/>
      <line x1="597.000" y1="1658.997" x2="572.140" y2="1658.997"/>
      <line x1="597.000" y1="1659.997" x2="572.140" y2="1659.997"/>
      <line x1="597.000" y1="1660.997" x2="572.140" y2="1660.997"/>
      <line x1="597.000" y1="1661.997" x2="572.140" y2="1661.997"/>
      <line x1="597.000" y1="1662.997" x2="572.140" y2="1662.997"/>
      <line x1="597.000" y1="1663.997" x2="572.140" y2="1663.997"/>
      <line x1="597.000" y1="1664.997" x2="572.140" y2="1664.997"/>
      <line x1="597.000" y1="1665.997" x2="572.140" y2="1665.997"/>
      <line x1="597.000" y1="1666.997" x2="572.140" y2="1666.997"/>
      <line x1="597.000" y1="1667.997" x2="572.140" y2="1667.997"/>
      <line x1="597.000" y1="1668.997" x2="572.140" y2="1668.997"/>
      <line x1="597.000" y1="1669.997" x2="572.140" y2="1669.997"/>
      <line x1="597.000" y1="1670.997" x2="572.140" y2="1670.997"/>
      <line x1="597.000" y1="1671.997" x2="572.140" y2="1671.997"/>
      <line x1="597.000" y1="1672.997" x2="572.140" y2="1672.997"/>
      <line x1="597.000" y1="1673.997" x2="572.140" y2="1673.997"/>
      <line x1="597.000" y1="1674.997" x2="572.140" y2="1674.997"/>
      <line x1="597.000" y1="1675.997" x2="572.140" y2="1675.997"/>
      <line x1="597.000" y1="1676.997" x2="572.140" y2="1676.997"/>
      <line x1="597.000" y1="1677.997" x2="572.140" y2="1677.997"/>
      <line x1="597.000" y1="1678.997" x2="572.140" y2="1678.997"/>
      <line x1="521.940" y1="1579.997" x2="471.940" y2="1579.997"/>
      <line x1="521.940" y1="1580.997" x2="471.940" y2="1580.997"/>
      <line x1="521.940" y1="1581.997" x2="471.940" y2="1581.997"/>
      <line x1="521.940" y1="1582.997" x2="471.940" y2="1582.997"/>
      <line x1="521.940" y1="1583.997" x2="471.940" y2="1583.997"/>
      <line x1="521.940" y1="1584.997" x2="471.940" y2="1584.997"/>
      <line x1="521.940" y1="1585.997" x2="471.940" y2="1585.997"/>
      <line x1="521.940" y1="1586.997" x2="471.940" y2="1586.997"/>
      <line x1="521.940" y1="1587.997" x2="471.940" y2="1587.997"/>
      <line x1="521.940" y1="1588.997" x2="471.940" y2="1588.997"/>
      <line x1="521.940" y1="1589.997" x2="471.940" y2="1589.997"/>
      <line x1="521.940" y1="1590.997" x2="471.940" y2="1590.997"/>
      <line x1="521.940" y1="1591.997" x2="471.940" y2="1591.997"/>
      <line x1="521.940" y1="1592.997" x2="471.940" y2="1592.997"/>
      <line x1="521.940" y1="1593.997" x2="471.940" y2="1593.997"/>
      <line x1="521.940" y1="1594.997" x2="471.940" y2="1594.997"/>
      <line x1="521.940" y1="1595.997" x2="471.940" y2="1595.997"/>
      <line x1="521.940" y1="1596.997" x2="471.940" y2="1596.997"/>
      <line x1="521.940" y1="1597.997" x2="471.940" y2="1597.997"/>
      <line x1="521.940" y1="1598.997" x2="471.940" y2="1598.997"/>
      <line x1="521.940" y1="1599.997" x2="471.940" y2="1599.997"/>
      <line x1="521.940" y1="1600.997" x2="471.940" y2="1600.997"/>
      <line x1="521.940" y1="1601.997" x2="471.940" y2="1601.997"/>
      <line x1="521.940" y1="1602.997" x2="471.940" y2="1602.997"/>
      <line x1="521.940" y1="1603.997" x2="471.940" y2="1603.997"/>
      <line x1="521.940" y1="1604.997" x2="471.940" y2="1604.997"/>
      <line x1="521.940" y1="1605.997" x2="471.940" y2="1605.997"/>
      <line x1="521.940" y1="1606.997" x2="471.940" y2="1606.997"/>
      <line x1="521.940" y1="1607.997" x2="471.940" y2="1607.997"/>
      <line x1="521.940" y1="1608.997" x2="471.940" y2="1608.997"/>
      <line x1="521.940" y1="1609.997" x2="471.940" y2="1609.997"/>
      <line x1="521.940" y1="1610.997" x2="471.940" y2="1610.997"/>
      <line x1="521.940" y1="1611.997" x2="471.940" y2="1611.997"/>
      <line x1="521.940" y1="1612.997" x2="471.940" y2="1612.997"/>
      <line x1="521.940" y1="1613.997" x2="471.940" y2="1613.997"/>
      <line x1="521.940" y1="1614.997" x2="471.940" y2="1614.997"/>
      <line x1="521.940" y1="1615.997" x2="471.940" y2="1615.997"/>
      <line x1="521.940" y1="1616.997" x2="471.940" y2="1616.997"/>
      <line x1="521.940" y1="1617.997" x2="471.940" y2="1617.997"/>
      <line x1="521.940" y1="1618.997" x2="471.940" y2="1618.997"/>
      <line x1="521.940" y1="1619.997" x2="471.940" y2="1619.997"/>
      <line x1="521.940" y1="1620.997" x2="471.940" y2="1620.997"/>
      <line x1="521.940" y1="1621.997" x2="471.940" y2="1621.997"/>
      <line x1="521.940" y1="1622.997" x2="471.940" y2="1622.997"/>
      <line x1="521.940" y1="1623.997" x2="471.940" y2="1623.997"/>
      <line x1="521.940" y1="1624.997" x2="471.940" y2="1624.997"/>
      <line x1="521.940" y1="1625.997" x2="471.940" y2="1625.997"/>
      <line x1="521.940" y1="1626.997" x2="471.940" y2="1626.997"/>
      <line x1="521.940" y1="1627.997" x2="471.940" y2="1627.997"/>
      <line x1="521.940" y1="1628.997" x2="471.940" y2="1628.997"/>
      <line x1="572.040" y1="1579.997" x2="522.040" y2="1579.997"/>
      <line x1="572.040" y1="1580.997" x2="522.040" y2="1580.997"/>
      <line x1="572.040" y1="1581.997" x2="522.040" y2="1581.997"/>
      <line x1="572.040" y1="1582.997" x2="522.040" y2="1582.997"/>
      <line x1="572.040" y1="1583.997" x2="522.040" y2="1583.997"/>
      <line x1="572.040" y1="1584.997" x2="522.040" y2="1584.997"/>
      <line x1="572.040" y1="1585.997" x2="522.040" y2="1585.997"/>
      <line x1="572.040" y1="1586.997" x2="522.040" y2="1586.997"/>
      <line x1="572.040" y1="1587.997" x2="522.040" y2="1587.997"/>
      <line x1="572.040" y1="1588.997" x2="522.040" y2="1588.997"/>
      <line x1="572.040" y1="1589.997" x2="522.040" y2="1589.997"/>
      <line x1="572.040" y1="1590.997" x2="522.040" y2="1590.997"/>
      <line x1="572.040" y1="1591.997" x2="522.040" y2="1591.997"/>
      <line x1="572.040" y1="1592.997" x2="522.040" y2="1592.997"/>
      <line x1="572.040" y1="1593.997" x2="522.040" y2="1593.997"/>
      <line x1="572.040" y1="1594.997" x2="522.040" y2="1594.997"/>
      <line x1="572.040" y1="1595.997" x2="522.040" y2="1595.997"/>
      <line x1="572.040" y1="1596.997" x2="522.040" y2="1596.997"/>
      <line x1="572.040" y1="1597.997" x2="522.040" y2="1597.997"/>
      <line x1="572.040" y1="1598.997" x2="522.040" y2="1598.997"/>
      <line x1="572.040" y1="1599.997" x2="522.040" y2="1599.997"/>
      <line x1="572.040" y1="1600.997" x2="522.040" y2="1600.997"/>
      <line x1="572.040" y1="1601.997" x2="522.040" y2="1601.997"/>
      <line x1="572.040" y1="1602.997" x2="522.040" y2="1602.997"/>
      <line x1="572.040" y1="1603.997" x2="522.040" y2="1603.997"/>
      <line x1="572.040" y1="1604.997" x2="522.040" y2="1604.997"/>
      <line x1="572.040" y1="1605.997" x2="522.040" y2="1605.997"/>
      <line x1="572.040" y1="1606.997" x2="522.040" y2="1606.997"/>
      <line x1="572.040" y1="1607.997" x2="522.040" y2="1607.997"/>
      <line x1="572.040" y1="1608.997" x2="522.040" y2="1608.997"/>
      <line x1="572.040" y1="1609.997" x2="522.040" y2="1609.997"/>
      <line x1="572.040" y1="1610.997" x2="522.040" y2="1610.997"/>
      <line x1="572.040" y1="1611.997" x2="522.040" y2="1611.997"/>
      <line x1="572.040" y1="1612.997" x2="522.040" y2="1612.997"/>
      <line x1="572.040" y1="1613.997" x2="522.040" y2="1613.997"/>
      <line x1="572.040" y1="1614.997" x2="522.040" y2="1614.997"/>
      <line x1="572.040" y1="1615.997" x2="522.040" y2="1615.997"/>
      <line x1="572.040" y1="1616.997" x2="522.040" y2="1616.997"/>
      <line x1="572.040" y1="1617.997" x2="522.040" y2="1617.997"/>
      <line x1="572.040" y1="1618.997" x2="522.040" y2="1618.997"/>
      <line x1="572.040" y1="1619.997" x2="522.040" y2="1619.997"/>
      <line x1="572.040" y1="1620.997" x2="522.040" y2="1620.997"/>
      <line x1="572.040" y1="1621.997" x2="522.040" y2="1621.997"/>
      <line x1="572.040" y1="1622.997" x2="522.040" y2="1622.997"/>
      <line x1="572.040" y1="1623.997" x2="522.040" y2="1623.997"/>
      <line x1="572.040" y1="1624.997" x2="522.040" y2="1624.997"/>
      <line x1="572.040" y1="1625.997" x2="522.040" y2="1625.997"/>
      <line x1="572.040" y1="1626.997" x2="522.040" y2="1626.997"/>
      <line x1="572.040" y1="1627.997" x2="522.040" y2="1627.997"/>
      <line x1="572.040" y1="1628.997" x2="522.040" y2="1628.997"/>
      <line x1="597.000" y1="1579.997" x2="572.140" y2="1579.997"/>
      <line x1="597.000" y1="1580.997" x2="572.140" y2="1580.997"/>
      <line x1="597.000" y1="1581.997" x2="572.140" y2="1581.997"/>
      <line x1="597.000" y1="1582.997" x2="572.140" y2="1582.997"/>
      <line x1="597.000" y1="1583.997" x2="572.140" y2="1583.997"/>
      <line x1="597.000" y1="1584.997" x2="572.140" y2="1584.997"/>
      <line x1="597.000" y1="1585.997" x2="572.140" y2="1585.997"/>
      <line x1="597.000" y1="1586.997" x2="572.140" y2="1586.997"/>
      <line x1="597.000" y1="1587.997" x2="572.140" y2="1587.997"/>
      <line x1="597.000" y1="1588.997" x2="572.140" y2="1588.997"/>
      <line x1="597.000" y1="1589.997" x2="572.140" y2="1589.997"/>
      <line x1="597.000" y1="1590.997" x2="572.140" y2="1590.997"/>
      <line x1="597.000" y1="1591.997" x2="572.140" y2="1591.997"/>
      <line x1="597.000" y1="1592.997" x2="572.140" y2="1592.997"/>
      <line x1="597.000" y1="1593.997" x2="572.140" y2="1593.997"/>
      <line x1="597.000" y1="1594.997" x2="572.140" y2="1594.997"/>
      <line x1="597.000" y1="1595.997" x2="572.140" y2="1595.997"/>
      <line x1="597.000" y1="1596.997" x2="572.140" y2="1596.997"/>
      <line x1="597.000" y1="1597.997" x2="572.140" y2="1597.997"/>
      <line x1="597.000" y1="1598.997" x2="572.140" y2="1598.997"/>
      <line x1="597.000" y1="1599.997" x2="572.140" y2="1599.997"/>
      <line x1="597.000" y1="1600.997" x2="572.140" y2="1600.997"/>
      <line x1="597.000" y1="1601.997" x2="572.140" y2="1601.997"/>
      <line x1="597.000" y1="1602.997" x2="572.140" y2="1602.997"/>
      <line x1="597.000" y1="1603.997" x2="572.140" y2="1603.997"/>
      <line x1="597.000" y1="1604.997" x2="572.140" y2="1604.997"/>
      <line x1="597.000" y1="1605.997" x2="572.140" y2="1605.997"/>
      <line x1="597.000" y1="1606.997" x2="572.140" y2="1606.997"/>
      <line x1="597.000" y1="1607.997" x2="572.140" y2="1607.997"/>
      <line x1="597.000" y1="1608.997" x2="572.140" y2="1608.997"/>
      <line x1="597.000" y1="1609.997" x2="572.140" y2="1609.997"/>
      <line x1="597.000" y1="1610.997" x2="572.140" y2="1610.997"/>
      <line x1="597.000" y1="1611.997" x2="572.140" y2="1611.997"/>
      <line x1="597.000" y1="1612.997" x2="572.140" y2="1612.997"/>
      <line x1="597.000" y1="1613.997" x2="572.140" y2="1613.997"/>
      <line x1="597.000" y1="1614.997" x2="572.140" y2="1614.997"/>
      <line x1="597.000" y1="1615.997" x2="572.140" y2="1615.997"/>
      <line x1="597.000" y1="1616.997" x2="572.140" y2="1616.997"/>
      <line x1="597.000" y1="1617.997" x2="572.140" y2="1617.997"/>
      <line x1="597.000" y1="1618.997" x2="572.140" y2="1618.997"/>
      <line x1="597.000" y1="1619.997" x2="572.140" y2="1619.997"/>
      <line x1="597.000" y1="1620.997" x2="572.140" y2="1620.997"/>
      <line x1="597.000" y1="1621.997" x2="572.140" y2="1621.997"/>
      <line x1="597.000" y1="1622.997" x2="572.140" y2="1622.997"/>
      <line x1="597.000" y1="1623.997" x2="572.140" y2="1623.997"/>
      <line x1="597.000" y1="1624.997" x2="572.140" y2="1624.997"/>
      <line x1="597.000" y1="1625.997" x2="572.140" y2="1625.997"/>
      <line x1="597.000" y1="1626.997" x2="572.140" y2="1626.997"/>
      <line x1="597.000" y1="1627.997" x2="572.140" y2="1627.997"/>
      <line x1="597.000" y1="1628.997" x2="572.140" y2="1628.997"/>
      <line x1="521.940" y1="1529.997" x2="471.940" y2="1529.997"/>
      <line x1="521.940" y1="1530.997" x2="471.940" y2="1530.997"/>
      <line x1="521.940" y1="1531.997" x2="471.940" y2="1531.997"/>
      <line x1="521.940" y1="1532.997" x2="471.940" y2="1532.997"/>
      <line x1="521.940" y1="1533.997" x2="471.940" y2="1533.997"/>
      <line x1="521.940" y1="1534.997" x2="471.940" y2="1534.997"/>
      <line x1="521.940" y1="1535.997" x2="471.940" y2="1535.997"/>
      <line x1="521.940" y1="1536.997" x2="471.940" y2="1536.997"/>
      <line x1="521.940" y1="1537.997" x2="471.940" y2="1537.997"/>
      <line x1="521.940" y1="1538.997" x2="471.940" y2="1538.997"/>
      <line x1="521.940" y1="1539.997" x2="471.940" y2="1539.997"/>
      <line x1="521.940" y1="1540.997" x2="471.940" y2="1540.997"/>
      <line x1="521.940" y1="1541.997" x2="471.940" y2="1541.997"/>
      <line x1="521.940" y1="1542.997" x2="471.940" y2="1542.997"/>
      <line x1="521.940" y1="1543.997" x2="471.940" y2="1543.997"/>
      <line x1="521.940" y1="1544.997" x2="471.940" y2="1544.997"/>
      <line x1="521.940" y1="1545.997" x2="471.940" y2="1545.997"/>
      <line x1="521.940" y1="1546.997" x2="471.940" y2="1546.997"/>
      <line x1="521.940" y1="1547.997" x2="471.940" y2="1547.997"/>
      <line x1="521.940" y1="1548.997" x2="471.940" y2="1548.997"/>
      <line x1="521.940" y1="1549.997" x2="471.940" y2="1549.997"/>
      <line x1="521.940" y1="1550.997" x2="471.940" y2="1550.997"/>
      <line x1="521.940" y1="1551.997" x2="471.940" y2="1551.997"/>
      <line x1="521.940" y1="1552.997" x2="471.940" y2="1552.997"/>
      <line x1="521.940" y1="1553.997" x2="471.940" y2="1553.997"/>
      <line x1="521.940" y1="1554.997" x2="471.940" y2="1554.997"/>
      <line x1="521.940" y1="1555.997" x2="471.940" y2="1555.997"/>
      <line x1="521.940" y1="1556.997" x2="471.940" y2="1556.997"/>
      <line x1="521.940" y1="1557.997" x2="471.940" y2="1557.997"/>
      <line x1="521.940" y1="1558.997" x2="471.940" y2="1558.997"/>
      <line x1="521.940" y1="1559.997" x2="471.940" y2="1559.997"/>
      <line x1="521.940" y1="1560.997" x2="471.940" y2="1560.997"/>
      <line x1="521.940" y1="1561.997" x2="471.940" y2="1561.997"/>
      <line x1="521.940" y1="1562.997" x2="471.940" y2="1562.997"/>
      <line x1="521.940" y1="1563.997" x2="471.940" y2="1563.997"/>
      <line x1="521.940" y1="1564.997" x2="471.940" y2="1564.997"/>
      <line x1="521.940" y1="1565.997" x2="471.940" y2="1565.997"/>
      <line x1="521.940" y1="1566.997" x2="471.940" y2="1566.997"/>
      <line x1="521.940" y1="1567.997" x2="471.940" y2="1567.997"/>
      <line x1="521.940" y1="1568.997" x2="471.940" y2="1568.997"/>
      <line x1="521.940" y1="1569.997" x2="471.940" y2="1569.997"/>
      <line x1="521.940" y1="1570.997" x2="471.940" y2="1570.997"/>
      <line x1="521.940" y1="1571.997" x2="471.940" y2="1571.997"/>
      <line x1="521.940" y1="1572.997" x2="471.940" y2="1572.997"/>
      <line x1="521.940" y1="1573.997" x2="471.940" y2="1573.997"/>
      <line x1="521.940" y1="1574.997" x2="471.940" y2="1574.997"/>
      <line x1="521.940" y1="1575.997" x2="471.940" y2="1575.997"/>
      <line x1="521.940" y1="1576.997" x2="471.940" y2="1576.997"/>
      <line x1="521.940" y1="1577.997" x2="471.940" y2="1577.997"/>
      <line x1="521.940" y1="1578.997" x2="471.940" y2="1578.997"/>
      <line x1="572.040" y1="1529.997" x2="522.040" y2="1529.997"/>
      <line x1="572.040" y1="1530.997" x2="522.040" y2="1530.997"/>
      <line x1="572.040" y1="1531.997" x2="522.040" y2="1531.997"/>
      <line x1="572.040" y1="1532.997" x2="522.040" y2="1532.997"/>
      <line x1="572.040" y1="1533.997" x2="522.040" y2="1533.997"/>
      <line x1="572.040" y1="1534.997" x2="522.040" y2="1534.997"/>
      <line x1="572.040" y1="1535.997" x2="522.040" y2="1535.997"/>
      <line x1="572.040" y1="1536.997" x2="522.040" y2="1536.997"/>
      <line x1="572.040" y1="1537.997" x2="522.040" y2="1537.997"/>
      <line x1="572.040" y1="1538.997" x2="522.040" y2="1538.997"/>
      <line x1="572.040" y1="1539.997" x2="522.040" y2="1539.997"/>
      <line x1="572.040" y1="1540.997" x2="522.040" y2="1540.997"/>
      <line x1="572.040" y1="1541.997" x2="522.040" y2="1541.997"/>
      <line x1="572.040" y1="1542.997" x2="522.040" y2="1542.997"/>
      <line x1="572.040" y1="1543.997" x2="522.040" y2="1543.997"/>
      <line x1="572.040" y1="1544.997" x2="522.040" y2="1544.997"/>
      <line x1="572.040" y1="1545.997" x2="522.040" y2="1545.997"/>
      <line x1="572.040" y1="1546.997" x2="522.040" y2="1546.997"/>
      <line x1="572.040" y1="1547.997" x2="522.040" y2="1547.997"/>
      <line x1="572.040" y1="1548.997" x2="522.040" y2="1548.997"/>
      <line x1="572.040" y1="1549.997" x2="522.040" y2="1549.997"/>
      <line x1="572.040" y1="1550.997" x2="522.040" y2="1550.997"/>
      <line x1="572.040" y1="1551.997" x2="522.040" y2="1551.997"/>
      <line x1="572.040" y1="1552.997" x2="522.040" y2="1552.997"/>
      <line x1="572.040" y1="1553.997" x2="522.040" y2="1553.997"/>
      <line x1="572.040" y1="1554.997" x2="522.040" y2="1554.997"/>
      <line x1="572.040" y1="1555.997" x2="522.040" y2="1555.997"/>
      <line x1="572.040" y1="1556.997" x2="522.040" y2="1556.997"/>
      <line x1="572.040" y1="1557.997" x2="522.040" y2="1557.997"/>
      <line x1="572.040" y1="1558.997" x2="522.040" y2="1558.997"/>
      <line x1="572.040" y1="1559.997" x2="522.040" y2="1559.997"/>
      <line x1="572.040" y1="1560.997" x2="522.040" y2="1560.997"/>
      <line x1="572.040" y1="1561.997" x2="522.040" y2="1561.997"/>
      <line x1="572.040" y1="1562.997" x2="522.040" y2="1562.997"/>
      <line x1="572.040" y1="1563.997" x2="522.040" y2="1563.997"/>
      <line x1="572.040" y1="1564.997" x2="522.040" y2="1564.997"/>
      <line x1="572.040" y1="1565.997" x2="522.040" y2="1565.997"/>
      <line x1="572.040" y1="1566.997" x2="522.040" y2="1566.997"/>
      <line x1="572.040" y1="1567.997" x2="522.040" y2="1567.997"/>
      <line x1="572.040" y1="1568.997" x2="522.040" y2="1568.997"/>
      <line x1="572.040" y1="1569.997" x2="522.040" y2="1569.997"/>
      <line x1="572.040" y1="1570.997" x2="522.040" y2="1570.997"/>
      <line x1="572.040" y1="1571.997" x2="522.040" y2="1571.997"/>
      <line x1="572.040" y1="1572.997" x2="522.040" y2="1572.997"/>
      <line x1="572.040" y1="1573.997" x2="522.040" y2="1573.997"/>
      <line x1="572.040" y1="1574.997" x2="522.040" y2="1574.997"/>
      <line x1="572.040" y1="1575.997" x2="522.040" y2="1575.997"/>
      <line x1="572.040" y1="1576.997" x2="522.040" y2="1576.997"/>
      <line x1="572.040" y1="1577.997" x2="522.040" y2="1577.997"/>
      <line x1="572.040" y1="1578.997" x2="522.040" y2="1578.997"/>
      <line x1="597.000" y1="1529.997" x2="572.140" y2="1529.997"/>
      <line x1="597.000" y1="1530.997" x2="572.140" y2="1530.997"/>
      <line x1="597.000" y1="1531.997" x2="572.140" y2="1531.997"/>
      <line x1="597.000" y1="1532.997" x2="572.140" y2="1532.997"/>
      <line x1="597.000" y1="1533.997" x2="572.140" y2="1533.997"/>
      <line x1="597.000" y1="1534.997" x2="572.140" y2="1534.997"/>
      <line x1="597.000" y1="1535.997" x2="572.140" y2="1535.997"/>
      <line x1="597.000" y1="1536.997" x2="572.140" y2="1536.997"/>
      <line x1="597.000" y1="1537.997" x2="572.140" y2="1537.997"/>
      <line x1="597.000" y1="1538.997" x2="572.140" y2="1538.997"/>
      <line x1="597.000" y1="1539.997" x2="572.140" y2="1539.997"/>
      <line x1="597.000" y1="1540.997" x2="572.140" y2="1540.997"/>
      <line x1="597.000" y1="1541.997" x2="572.140" y2="1541.997"/>
      <line x1="597.000" y1="1542.997" x2="572.140" y2="1542.997"/>
      <line x1="597.000" y1="1543.997" x2="572.140" y2="1543.997"/>
      <line x1="597.000" y1="1544.997" x2="572.140" y2="1544.997"/>
      <line x1="597.000" y1="1545.997" x2="572.140" y2="1545.997"/>
      <line x1="597.000" y1="1546.997" x2="572.140" y2="1546.997"/>
      <line x1="597.000" y1="1547.997" x2="572.140" y2="1547.997"/>
      <line x1="597.000" y1="1548.997" x2="572.140" y2="1548.997"/>
      <line x1="597.000" y1="1549.997" x2="572.140" y2="1549.997"/>
      <line x1="597.000" y1="1550.997" x2="572.140" y2="1550.997"/>
      <line x1="597.000" y1="1551.997" x2="572.140" y2="1551.997"/>
      <line x1="597.000" y1="1552.997" x2="572.140" y2="1552.997"/>
      <line x1="597.000" y1="1553.997" x2="572.140" y2="1553.997"/>
      <line x1="597.000" y1="1554.997" x2="572.140" y2="1554.997"/>
      <line x1="597.000" y1="1555.997" x2="572.140" y2="1555.997"/>
      <line x1="597.000" y1="1556.997" x2="572.140" y2="1556.997"/>
      <line x1="597.000" y1="1557.997" x2="572.140" y2="1557.997"/>
      <line x1="597.000" y1="1558.997" x2="572.140" y2="1558.997"/>
      <line x1="597.000" y1="1559.997" x2="572.140" y2="1559.997"/>
      <line x1="597.000" y1="1560.997" x2="572.140" y2="1560.997"/>
      <line x1="597.000" y1="1561.997" x2="572.140" y2="1561.997"/>
      <line x1="597.000" y1="1562.997" x2="572.140" y2="1562.997"/>
      <line x1="597.000" y1="1563.997" x2="572.140" y2="1563.997"/>
      <line x1="597.000" y1="1564.997" x2="572.140" y2="1564.997"/>
      <line x1="597.000" y1="1565.997" x2="572.140" y2="1565.997"/>
      <line x1="597.000" y1="1566.997" x2="572.140" y2="1566.997"/>
      <line x1="597.000" y1="1567.997" x2="572.140" y2="1567.997"/>
      <line x1="597.000" y1="1568.997" x2="572.140" y2="1568.997"/>
      <line x1="597.000" y1="1569.997" x2="572.140" y2="1569.997"/>
      <line x1="597.000" y1="1570.997" x2="572.140" y2="1570.997"/>
      <line x1="597.000" y1="1571.997" x2="572.140" y2="1571.997"/>
      <line x1="597.000" y1="1572.997" x2="572.140" y2="1572.997"/>
      <line x1="597.000" y1="1573.997" x2="572.140" y2="1573.997"/>
      <line x1="597.000" y1="1574.997" x2="572.140" y2="1574.997"/>
      <line x1="597.000" y1="1575.997" x2="572.140" y2="1575.997"/>
      <line x1="597.000" y1="1576.997" x2="572.140" y2="1576.997"/>
      <line x1="597.000" y1="1577.997" x2="572.140" y2="1577.997"/>
      <line x1="597.000" y1="1578.997" x2="572.140" y2="1578.997"/>
      <line x1="521.940" y1="1525.997" x2="471.940" y2="1525.997"/>
      <line x1="521.940" y1="1526.997" x2="471.940" y2="1526.997"/>
      <line x1="521.940" y1="1527.997" x2="471.940" y2="1527.997"/>
      <line x1="572.040" y1="1525.997" x2="522.040" y2="1525.997"/>
      <line x1="572.040" y1="1526.997" x2="522.040" y2="1526.997"/>
      <line x1="572.040" y1="1527.997" x2="522.040" y2="1527.997"/>
      <line x1="597.000" y1="1525.997" x2="572.140" y2="1525.997"/>
      <line x1="597.000" y1="1526.997" x2="572.140" y2="1526.997"/>
      <line x1="597.000" y1="1527.997" x2="572.140" y2="1527.997"/>
      <line x1="53.000" y1="1629.997" x2="3.000" y2="1629.997"/>
      <line x1="53.000" y1="1630.997" x2="3.000" y2="1630.997"/>
      <line x1="53.000" y1="1631.997" x2="3.000" y2="1631.997"/>
      <line x1="53.000" y1="1632.997" x2="3.000" y2="1632.997"/>
      <line x1="53.000" y1="1633.997" x2="3.000" y2="1633.997"/>
      <line x1="53.000" y1="1634.997" x2="3.000" y2="1634.997"/>
      <line x1="53.000" y1="1635.997" x2="3.000" y2="1635.997"/>
      <line x1="53.000" y1="1636.997" x2="3.000" y2="1636.997"/>
      <line x1="53.000" y1="1637.997" x2="3.000" y2="1637.997"/>
      <line x1="53.000" y1="1638.997" x2="3.000" y2="1638.997"/>
      <line x1="53.000" y1="1639.997" x2="3.000" y2="1639.997"/>
      <line x1="53.000" y1="1640.997" x2="3.000" y2="1640.997"/>
      <line x1="53.000" y1="1641.997" x2="3.000" y2="1641.997"/>
      <line x1="53.000" y1="1642.997" x2="3.000" y2="1642.997"/>
      <line x1="53.000" y1="1643.997" x2="3.000" y2="1643.997"/>
      <line x1="53.000" y1="1644.997" x2="3.000" y2="1644.997"/>
      <line x1="53.000" y1="1645.997" x2="3.000" y2="1645.997"/>
      <line x1="53.000" y1="1646.997" x2="3.000" y2="1646.997"/>
      <line x1="53.000" y1="1647.997" x2="3.000" y2="1647.997"/>
      <line x1="53.000" y1="1648.997" x2="3.000" y2="1648.997"/>
      <line x1="53.000" y1="1649.997" x2="3.000" y2="1649.997"/>
      <line x1="53.000" y1="1650.997" x2="3.000" y2="1650.997"/>
      <line x1="53.000" y1="1651.997" x2="3.000" y2="1651.997"/>
      <line x1="53.000" y1="1652.997" x2="3.000" y2="1652.997"/>
      <line x1="53.000" y1="1653.997" x2="3.000" y2="1653.997"/>
      <line x1="53.000" y1="1654.997" x2="3.000" y2="1654.997"/>
      <line x1="53.000" y1="1655.997" x2="3.000" y2="1655.997"/>
      <line x1="53.000" y1="1656.997" x2="3.000" y2="1656.997"/>
      <line x1="53.000" y1="1657.997" x2="3.000" y2="1657.997"/>
      <line x1="53.000" y1="1658.997" x2="3.000" y2="1658.997"/>
      <line x1="53.000" y1="1659.997" x2="3.000" y2="1659.997"/>
      <line x1="53.000" y1="1660.997" x2="3.000" y2="1660.997"/>
      <line x1="53.000" y1="1661.997" x2="3.000" y2="1661.997"/>
      <line x1="53.000" y1="1662.997" x2="3.000" y2="1662.997"/>
      <line x1="53.000" y1="1663.997" x2="3.000" y2="1663.997"/>
      <line x1="53.000" y1="1664.997" x2="3.000" y2="1664.997"/>
      <line x1="53.000" y1="1665.997" x2="3.000" y2="1665.997"/>
      <line x1="53.000" y1="1666.997" x2="3.000" y2="1666.997"/>
      <line x1="53.000" y1="1667.997" x2="3.000" y2="1667.997"/>
      <line x1="53.000" y1="1668.997" x2="3.000" y2="1668.997"/>
      <line x1="53.000" y1="1669.997" x2="3.000" y2="1669.997"/>
      <line x1="53.000" y1="1670.997" x2="3.000" y2="1670.997"/>
      <line x1="53.000" y1="1671.997" x2="3.000" y2="1671.997"/>
      <line x1="53.000" y1="1672.997" x2="3.000" y2="1672.997"/>
      <line x1="53.000" y1="1673.997" x2="3.000" y2="1673.997"/>
      <line x1="53.000" y1="1674.997" x2="3.000" y2="1674.997"/>
      <line x1="53.000" y1="1675.997" x2="3.000" y2="1675.997"/>
      <line x1="53.000" y1="1676.997" x2="3.000" y2="1676.997"/>
      <line x1="53.000" y1="1677.997" x2="3.000" y2="1677.997"/>
      <line x1="53.000" y1="1678.997" x2="3.000" y2="1678.997"/>
      <line x1="103.100" y1="1629.997" x2="53.100" y2="1629.997"/>
      <line x1="103.100" y1="1630.997" x2="53.100" y2="1630.997"/>
      <line x1="103.100" y1="1631.997" x2="53.100" y2="1631.997"/>
      <line x1="103.100" y1="1632.997" x2="53.100" y2="1632.997"/>
      <line x1="103.100" y1="1633.997" x2="53.100" y2="1633.997"/>
      <line x1="103.100" y1="1634.997" x2="53.100" y2="1634.997"/>
      <line x1="103.100" y1="1635.997" x2="53.100" y2="1635.997"/>
      <line x1="103.100" y1="1636.997" x2="53.100" y2="1636.997"/>
      <line x1="103.100" y1="1637.997" x2="53.100" y2="1637.997"/>
      <line x1="103.100" y1="1638.997" x2="53.100" y2="1638.997"/>
      <line x1="103.100" y1="1639.997" x2="53.100" y2="1639.997"/>
      <line x1="103.100" y1="1640.997" x2="53.100" y2="1640.997"/>
      <line x1="103.100" y1="1641.997" x2="53.100" y2="1641.997"/>
      <line x1="103.100" y1="1642.997" x2="53.100" y2="1642.997"/>
      <line x1="103.100" y1="1643.997" x2="53.100" y2="1643.997"/>
      <line x1="103.100" y1="1644.997" x2="53.100" y2="1644.997"/>
      <line x1="103.100" y1="1645.997" x2="53.100" y2="1645.997"/>
      <line x1="103.100" y1="1646.997" x2="53.100" y2="1646.997"/>
      <line x1="103.100" y1="1647.997" x2="53.100" y2="1647.997"/>
      <line x1="103.100" y1="1648.997" x2="53.100" y2="1648.997"/>
      <line x1="103.100" y1="1649.997" x2="53.100" y2="1649.997"/>
      <line x1="103.100" y1="1650.997" x2="53.100" y2="1650.997"/>
      <line x1="103.100" y1="1651.997" x2="53.100" y2="1651.997"/>
      <line x1="103.100" y1="1652.997" x2="53.100" y2="1652.997"/>
      <line x1="103.100" y1="1653.997" x2="53.100" y2="1653.997"/>
      <line x1="103.100" y1="1654.997" x2="53.100" y2="1654.997"/>
      <line x1="103.100" y1="1655.997" x2="53.100" y2="1655.997"/>
      <line x1="103.100" y1="1656.997" x2="53.100" y2="1656.997"/>
      <line x1="103.100" y1="1657.997" x2="53.100" y2="1657.997"/>
      <line x1="103.100" y1="1658.997" x2="53.100" y2="1658.997"/>
      <line x1="103.100" y1="1659.997" x2="53.100" y2="1659.997"/>
      <line x1="103.100" y1="1660.997" x2="53.100" y2="1660.997"/>
      <line x1="103.100" y1="1661.997" x2="53.100" y2="1661.997"/>
      <line x1="103.100" y1="1662.997" x2="53.100" y2="1662.997"/>
      <line x1="103.100" y1="1663.997" x2="53.100" y2="1663.997"/>
      <line x1="103.100" y1="1664.997" x2="53.100" y2="1664.997"/>
      <line x1="103.100" y1="1665.997" x2="53.100" y2="1665.997"/>
      <line x1="103.100" y1="1666.997" x2="53.100" y2="1666.997"/>
      <line x1="103.100" y1="1667.997" x2="53.100" y2="1667.997"/>
      <line x1="103.100" y1="1668.997" x2="53.100" y2="1668.997"/>
      <line x1="103.100" y1="1669.997" x2="53.100" y2="1669.997"/>
      <line x1="103.100" y1="1670.997" x2="53.100" y2="1670.997"/>
      <line x1="103.100" y1="1671.997" x2="53.100" y2="1671.997"/>
      <line x1="103.100" y1="1672.997" x2="53.100" y2="1672.997"/>
      <line x1="103.100" y1="1673.997" x2="53.100" y2="1673.997"/>
      <line x1="103.100" y1="1674.997" x2="53.100" y2="1674.997"/>
      <line x1="103.100" y1="1675.997" x2="53.100" y2="1675.997"/>
      <line x1="103.100" y1="1676.997" x2="53.100" y2="1676.997"/>
      <line x1="103.100" y1="1677.997" x2="53.100" y2="1677.997"/>
      <line x1="103.100" y1="1678.997" x2="53.100" y2="1678.997"/>
      <line x1="128.060" y1="1629.997" x2="103.200" y2="1629.997"/>
      <line x1="128.060" y1="1630.997" x2="103.200" y2="1630.997"/>
      <line x1="128.060" y1="1631.997" x2="103.200" y2="1631.997"/>
      <line x1="128.060" y1="1632.997" x2="103.200" y2="1632.997"/>
      <line x1="128.060" y1="1633.997" x2="103.200" y2="1633.997"/>
      <line x1="128.060" y1="1634.997" x2="103.200" y2="1634.997"/>
      <line x1="128.060" y1="1635.997" x2="103.200" y2="1635.997"/>
      <line x1="128.060" y1="1636.997" x2="103.200" y2="1636.997"/>
      <line x1="128.060" y1="1637.997" x2="103.200" y2="1637.997"/>
      <line x1="128.060" y1="1638.997" x2="103.200" y2="1638.997"/>
      <line x1="128.060" y1="1639.997" x2="103.200" y2="1639.997"/>
      <line x1="128.060" y1="1640.997" x2="103.200" y2="1640.997"/>
      <line x1="128.060" y1="1641.997" x2="103.200" y2="1641.997"/>
      <line x1="128.060" y1="1642.997" x2="103.200" y2="1642.997"/>
      <line x1="128.060" y1="1643.997" x2="103.200" y2="1643.997"/>
      <line x1="128.060" y1="1644.997" x2="103.200" y2="1644.997"/>
      <line x1="128.060" y1="1645.997" x2="103.200" y2="1645.997"/>
      <line x1="128.060" y1="1646.997" x2="103.200" y2="1646.997"/>
      <line x1="128.060" y1="1647.997" x2="103.200" y2="1647.997"/>
      <line x1="128.060" y1="1648.997" x2="103.200" y2="1648.997"/>
      <line x1="128.060" y1="1649.997" x2="103.200" y2="1649.997"/>
      <line x1="128.060" y1="1650.997" x2="103.200" y2="1650.997"/>
      <line x1="128.060" y1="1651.997" x2="103.200" y2="1651.997"/>
      <line x1="128.060" y1="1652.997" x2="103.200" y2="1652.997"/>
      <line x1="128.060" y1="1653.997" x2="103.200" y2="1653.997"/>
      <line x1="128.060" y1="1654.997" x2="103.200" y2="1654.997"/>
      <line x1="128.060" y1="1655.997" x2="103.200" y2="1655.997"/>
      <line x1="128.060" y1="1656.997" x2="103.200" y2="1656.997"/>
      <line x1="128.060" y1="1657.997" x2="103.200" y2="1657.997"/>
      <line x1="128.060" y1="1658.997" x2="103.200" y2="1658.997"/>
      <line x1="128.060" y1="1659.997" x2="103.200" y2="1659.997"/>
      <line x1="128.060" y1="1660.997" x2="103.200" y2="1660.997"/>
      <line x1="128.060" y1="1661.997" x2="103.200" y2="1661.997"/>
      <line x1="128.060" y1="1662.997" x2="103.200" y2="1662.997"/>
      <line x1="128.060" y1="1663.997" x2="103.200" y2="1663.997"/>
      <line x1="128.060" y1="1664.997" x2="103.200" y2="1664.997"/>
      <line x1="128.060" y1="1665.997" x2="103.200" y2="1665.997"/>
      <line x1="128.060" y1="1666.997" x2="103.200" y2="1666.997"/>
      <line x1="128.060" y1="1667.997" x2="103.200" y2="1667.997"/>
      <line x1="128.060" y1="1668.997" x2="103.200" y2="1668.997"/>
      <line x1="128.060" y1="1669.997" x2="103.200" y2="1669.997"/>
      <line x1="128.060" y1="1670.997" x2="103.200" y2="1670.997"/>
      <line x1="128.060" y1="1671.997" x2="103.200" y2="1671.997"/>
      <line x1="128.060" y1="1672.997" x2="103.200" y2="1672.997"/>
      <line x1="128.060" y1="1673.997" x2="103.200" y2="1673.997"/>
      <line x1="128.060" y1="1674.997" x2="103.200" y2="1674.997"/>
      <line x1="128.060" y1="1675.997" x2="103.200" y2="1675.997"/>
      <line x1="128.060" y1="1676.997" x2="103.200" y2="1676.997"/>
      <line x1="128.060" y1="1677.997" x2="103.200" y2="1677.997"/>
      <line x1="128.060" y1="1678.997" x2="103.200" y2="1678.997"/>
      <line x1="53.000" y1="1579.997" x2="3.000" y2="1579.997"/>
      <line x1="53.000" y1="1580.997" x2="3.000" y2="1580.997"/>
      <line x1="53.000" y1="1581.997" x2="3.000" y2="1581.997"/>
      <line x1="53.000" y1="1582.997" x2="3.000" y2="1582.997"/>
      <line x1="53.000" y1="1583.997" x2="3.000" y2="1583.997"/>
      <line x1="53.000" y1="1584.997" x2="3.000" y2="1584.997"/>
      <line x1="53.000" y1="1585.997" x2="3.000" y2="1585.997"/>
      <line x1="53.000" y1="1586.997" x2="3.000" y2="1586.997"/>
      <line x1="53.000" y1="1587.997" x2="3.000" y2="1587.997"/>
      <line x1="53.000" y1="1588.997" x2="3.000" y2="1588.997"/>
      <line x1="53.000" y1="1589.997" x2="3.000" y2="1589.997"/>
      <line x1="53.000" y1="1590.997" x2="3.000" y2="1590.997"/>
      <line x1="53.000" y1="1591.997" x2="3.000" y2="1591.997"/>
      <line x1="53.000" y1="1592.997" x2="3.000" y2="1592.997"/>
      <line x1="53.000" y1="1593.997" x2="3.000" y2="1593.997"/>
      <line x1="53.000" y1="1594.997" x2="3.000" y2="1594.997"/>
      <line x1="53.000" y1="1595.997" x2="3.000" y2="1595.997"/>
      <line x1="53.000" y1="1596.997" x2="3.000" y2="1596.997"/>
      <line x1="53.000" y1="1597.997" x2="3.000" y2="1597.997"/>
      <line x1="53.000" y1="1598.997" x2="3.000" y2="1598.997"/>
      <line x1="53.000" y1="1599.997" x2="3.000" y2="1599.997"/>
      <line x1="53.000" y1="1600.997" x2="3.000" y2="1600.997"/>
      <line x1="53.000" y1="1601.997" x2="3.000" y2="1601.997"/>
      <line x1="53.000" y1="1602.997" x2="3.000" y2="1602.997"/>
      <line x1="53.000" y1="1603.997" x2="3.000" y2="1603.997"/>
      <line x1="53.000" y1="1604.997" x2="3.000" y2="1604.997"/>
      <line x1="53.000" y1="1605.997" x2="3.000" y2="1605.997"/>
      <line x1="53.000" y1="1606.997" x2="3.000" y2="1606.997"/>
      <line x1="53.000" y1="1607.997" x2="3.000" y2="1607.997"/>
      <line x1="53.000" y1="1608.997" x2="3.000" y2="1608.997"/>
      <line x1="53.000" y1="1609.997" x2="3.000" y2="1609.997"/>
      <line x1="53.000" y1="1610.997" x2="3.000" y2="1610.997"/>
      <line x1="53.000" y1="1611.997" x2="3.000" y2="1611.997"/>
      <line x1="53.000" y1="1612.997" x2="3.000" y2="1612.997"/>
      <line x1="53.000" y1="1613.997" x2="3.000" y2="1613.997"/>
      <line x1="53.000" y1="1614.997" x2="3.000" y2="1614.997"/>
      <line x1="53.000" y1="1615.997" x2="3.000" y2="1615.997"/>
      <line x1="53.000" y1="1616.997" x2="3.000" y2="1616.997"/>
      <line x1="53.000" y1="1617.997" x2="3.000" y2="1617.997"/>
      <line x1="53.000" y1="1618.997" x2="3.000" y2="1618.997"/>
      <line x1="53.000" y1="1619.997" x2="3.000" y2="1619.997"/>
      <line x1="53.000" y1="1620.997" x2="3.000" y2="1620.997"/>
      <line x1="53.000" y1="1621.997" x2="3.000" y2="1621.997"/>
      <line x1="53.000" y1="1622.997" x2="3.000" y2="1622.997"/>
      <line x1="53.000" y1="1623.997" x2="3.000" y2="1623.997"/>
      <line x1="53.000" y1="1624.997" x2="3.000" y2="1624.997"/>
      <line x1="53.000" y1="1625.997" x2="3.000" y2="1625.997"/>
      <line x1="53.000" y1="1626.997" x2="3.000" y2="1626.997"/>
      <line x1="53.000" y1="1627.997" x2="3.000" y2="1627.997"/>
      <line x1="53.000" y1="1628.997" x2="3.000" y2="1628.997"/>
      <line x1="103.100" y1="1579.997" x2="53.100" y2="1579.997"/>
      <line x1="103.100" y1="1580.997" x2="53.100" y2="1580.997"/>
      <line x1="103.100" y1="1581.997" x2="53.100" y2="1581.997"/>
      <line x1="103.100" y1="1582.997" x2="53.100" y2="1582.997"/>
      <line x1="103.100" y1="1583.997" x2="53.100" y2="1583.997"/>
      <line x1="103.100" y1="1584.997" x2="53.100" y2="1584.997"/>
      <line x1="103.100" y1="1585.997" x2="53.100" y2="1585.997"/>
      <line x1="103.100" y1="1586.997" x2="53.100" y2="1586.997"/>
      <line x1="103.100" y1="1587.997" x2="53.100" y2="1587.997"/>
      <line x1="103.100" y1="1588.997" x2="53.100" y2="1588.997"/>
      <line x1="103.100" y1="1589.997" x2="53.100" y2="1589.997"/>
      <line x1="103.100" y1="1590.997" x2="53.100" y2="1590.997"/>
      <line x1="103.100" y1="1591.997" x2="53.100" y2="1591.997"/>
      <line x1="103.100" y1="1592.997" x2="53.100" y2="1592.997"/>
      <line x1="103.100" y1="1593.997" x2="53.100" y2="1593.997"/>
      <line x1="103.100" y1="1594.997" x2="53.100" y2="1594.997"/>
      <line x1="103.100" y1="1595.997" x2="53.100" y2="1595.997"/>
      <line x1="103.100" y1="1596.997" x2="53.100" y2="1596.997"/>
      <line x1="103.100" y1="1597.997" x2="53.100" y2="1597.997"/>
      <line x1="103.100" y1="1598.997" x2="53.100" y2="1598.997"/>
      <line x1="103.100" y1="1599.997" x2="53.100" y2="1599.997"/>
      <line x1="103.100" y1="1600.997" x2="53.100" y2="1600.997"/>
      <line x1="103.100" y1="1601.997" x2="53.100" y2="1601.997"/>
      <line x1="103.100" y1="1602.997" x2="53.100" y2="1602.997"/>
      <line x1="103.100" y1="1603.997" x2="53.100" y2="1603.997"/>
      <line x1="103.100" y1="1604.997" x2="53.100" y2="1604.997"/>
      <line x1="103.100" y1="1605.997" x2="53.100" y2="1605.997"/>
      <line x1="103.100" y1="1606.997" x2="53.100" y2="1606.997"/>
      <line x1="103.100" y1="1607.997" x2="53.100" y2="1607.997"/>
      <line x1="103.100" y1="1608.997" x2="53.100" y2="1608.997"/>
      <line x1="103.100" y1="1609.997" x2="53.100" y2="1609.997"/>
      <line x1="103.100" y1="1610.997" x2="53.100" y2="1610.997"/>
      <line x1="103.100" y1="1611.997" x2="53.100" y2="1611.997"/>
      <line x1="103.100" y1="1612.997" x2="53.100" y2="1612.997"/>
      <line x1="103.100" y1="1613.997" x2="53.100" y2="1613.997"/>
      <line x1="103.100" y1="1614.997" x2="53.100" y2="1614.997"/>
      <line x1="103.100" y1="1615.997" x2="53.100" y2="1615.997"/>
      <line x1="103.100" y1="1616.997" x2="53.100" y2="1616.997"/>
      <line x1="103.100" y1="1617.997" x2="53.100" y2="1617.997"/>
      <line x1="103.100" y1="1618.997" x2="53.100" y2="1618.997"/>
      <line x1="103.100" y1="1619.997" x2="53.100" y2="1619.997"/>
      <line x1="103.100" y1="1620.997" x2="53.100" y2="1620.997"/>
      <line x1="103.100" y1="1621.997" x2="53.100" y2="1621.997"/>
      <line x1="103.100" y1="1622.997" x2="53.100" y2="1622.997"/>
      <line x1="103.100" y1="1623.997" x2="53.100" y2="1623.997"/>
      <line x1="103.100" y1="1624.997" x2="53.100" y2="1624.997"/>
      <line x1="103.100" y1="1625.997" x2="53.100" y2="1625.997"/>
      <line x1="103.100" y1="1626.997" x2="53.100" y2="1626.997"/>
      <line x1="103.100" y1="1627.997" x2="53.100" y2="1627.997"/>
      <line x1="103.100" y1="1628.997" x2="53.100" y2="1628.997"/>
      <line x1="128.060" y1="1579.997" x2="103.200" y2="1579.997"/>
      <line x1="128.060" y1="1580.997" x2="103.200" y2="1580.997"/>
      <line x1="128.060" y1="1581.997" x2="103.200" y2="1581.997"/>
      <line x1="128.060" y1="1582.997" x2="103.200" y2="1582.997"/>
      <line x1="128.060" y1="1583.997" x2="103.200" y2="1583.997"/>
      <line x1="128.060" y1="1584.997" x2="103.200" y2="1584.997"/>
      <line x1="128.060" y1="1585.997" x2="103.200" y2="1585.997"/>
      <line x1="128.060" y1="1586.997" x2="103.200" y2="1586.997"/>
      <line x1="128.060" y1="1587.997" x2="103.200" y2="1587.997"/>
      <line x1="128.060" y1="1588.997" x2="103.200" y2="1588.997"/>
      <line x1="128.060" y1="1589.997" x2="103.200" y2="1589.997"/>
      <line x1="128.060" y1="1590.997" x2="103.200" y2="1590.997"/>
      <line x1="128.060" y1="1591.997" x2="103.200" y2="1591.997"/>
      <line x1="128.060" y1="1592.997" x2="103.200" y2="1592.997"/>
      <line x1="128.060" y1="1593.997" x2="103.200" y2="1593.997"/>
      <line x1="128.060" y1="1594.997" x2="103.200" y2="1594.997"/>
      <line x1="128.060" y1="1595.997" x2="103.200" y2="1595.997"/>
      <line x1="128.060" y1="1596.997" x2="103.200" y2="1596.997"/>
      <line x1="128.060" y1="1597.997" x2="103.200" y2="1597.997"/>
      <line x1="128.060" y1="1598.997" x2="103.200" y2="1598.997"/>
      <line x1="128.060" y1="1599.997" x2="103.200" y2="1599.997"/>
      <line x1="128.060" y1="1600.997" x2="103.200" y2="1600.997"/>
      <line x1="128.060" y1="1601.997" x2="103.200" y2="1601.997"/>
      <line x1="128.060" y1="1602.997" x2="103.200" y2="1602.997"/>
      <line x1="128.060" y1="1603.997" x2="103.200" y2="1603.997"/>
      <line x1="128.060" y1="1604.997" x2="103.200" y2="1604.997"/>
      <line x1="128.060" y1="1605.997" x2="103.200" y2="1605.997"/>
      <line x1="128.060" y1="1606.997" x2="103.200" y2="1606.997"/>
      <line x1="128.060" y1="1607.997" x2="103.200" y2="1607.997"/>
      <line x1="128.060" y1="1608.997" x2="103.200" y2="1608.997"/>
      <line x1="128.060" y1="1609.997" x2="103.200" y2="1609.997"/>
      <line x1="128.060" y1="1610.997" x2="103.200" y2="1610.997"/>
      <line x1="128.060" y1="1611.997" x2="103.200" y2="1611.997"/>
      <line x1="128.060" y1="1612.997" x2="103.200" y2="1612.997"/>
      <line x1="128.060" y1="1613.997" x2="103.200" y2="1613.997"/>
      <line x1="128.060" y1="1614.997" x2="103.200" y2="1614.997"/>
      <line x1="128.060" y1="1615.997" x2="103.200" y2="1615.997"/>
      <line x1="128.060" y1="1616.997" x2="103.200" y2="1616.997"/>
      <line x1="128.060" y1="1617.997" x2="103.200" y2="1617.997"/>
      <line x1="128.060" y1="1618.997" x2="103.200" y2="1618.997"/>
      <line x1="128.060" y1="1619.997" x2="103.200" y2="1619.997"/>
      <line x1="128.060" y1="1620.997" x2="103.200" y2="1620.997"/>
      <line x1="128.060" y1="1621.997" x2="103.200" y2="1621.997"/>
      <line x1="128.060" y1="1622.997" x2="103.200" y2="1622.997"/>
      <line x1="128.060" y1="1623.997" x2="103.200" y2="1623.997"/>
      <line x1="128.060" y1="1624.997" x2="103.200" y2="1624.997"/>
      <line x1="128.060" y1="1625.997" x2="103.200" y2="1625.997"/>
      <line x1="128.060" y1="1626.997" x2="103.200" y2="1626.997"/>
      <line x1="128.060" y1="1627.997" x2="103.200" y2="1627.997"/>
      <line x1="128.060" y1="1628.997" x2="103.200" y2="1628.997"/>
      <line x1="53.000" y1="1529.997" x2="3.000" y2="1529.997"/>
      <line x1="53.000" y1="1530.997" x2="3.000" y2="1530.997"/>
      <line x1="53.000" y1="1531.997" x2="3.000" y2="1531.997"/>
      <line x1="53.000" y1="1532.997" x2="3.000" y2="1532.997"/>
      <line x1="53.000" y1="1533.997" x2="3.000" y2="1533.997"/>
      <line x1="53.000" y1="1534.997" x2="3.000" y2="1534.997"/>
      <line x1="53.000" y1="1535.997" x2="3.000" y2="1535.997"/>
      <line x1="53.000" y1="1536.997" x2="3.000" y2="1536.997"/>
      <line x1="53.000" y1="1537.997" x2="3.000" y2="1537.997"/>
      <line x1="53.000" y1="1538.997" x2="3.000" y2="1538.997"/>
      <line x1="53.000" y1="1539.997" x2="3.000" y2="1539.997"/>
      <line x1="53.000" y1="1540.997" x2="3.000" y2="1540.997"/>
      <line x1="53.000" y1="1541.997" x2="3.000" y2="1541.997"/>
      <line x1="53.000" y1="1542.997" x2="3.000" y2="1542.997"/>
      <line x1="53.000" y1="1543.997" x2="3.000" y2="1543.997"/>
      <line x1="53.000" y1="1544.997" x2="3.000" y2="1544.997"/>
      <line x1="53.000" y1="1545.997" x2="3.000" y2="1545.997"/>
      <line x1="53.000" y1="1546.997" x2="3.000" y2="1546.997"/>
      <line x1="53.000" y1="1547.997" x2="3.000" y2="1547.997"/>
      <line x1="53.000" y1="1548.997" x2="3.000" y2="1548.997"/>
      <line x1="53.000" y1="1549.997" x2="3.000" y2="1549.997"/>
      <line x1="53.000" y1="1550.997" x2="3.000" y2="1550.997"/>
      <line x1="53.000" y1="1551.997" x2="3.000" y2="1551.997"/>
      <line x1="53.000" y1="1552.997" x2="3.000" y2="1552.997"/>
      <line x1="53.000" y1="1553.997" x2="3.000" y2="1553.997"/>
      <line x1="53.000" y1="1554.997" x2="3.000" y2="1554.997"/>
      <line x1="53.000" y1="1555.997" x2="3.000" y2="1555.997"/>
      <line x1="53.000" y1="1556.997" x2="3.000" y2="1556.997"/>
      <line x1="53.000" y1="1557.997" x2="3.000" y2="1557.997"/>
      <line x1="53.000" y1="1558.997" x2="3.000" y2="1558.997"/>
      <line x1="53.000" y1="1559.997" x2="3.000" y2="1559.997"/>
      <line x1="53.000" y1="1560.997" x2="3.000" y2="1560.997"/>
      <line x1="53.000" y1="1561.997" x2="3.000" y2="1561.997"/>
      <line x1="53.000" y1="1562.997" x2="3.000" y2="1562.997"/>
      <line x1="53.000" y1="1563.997" x2="3.000" y2="1563.997"/>
      <line x1="53.000" y1="1564.997" x2="3.000" y2="1564.997"/>
      <line x1="53.000" y1="1565.997" x2="3.000" y2="1565.997"/>
      <line x1="53.000" y1="1566.997" x2="3.000" y2="1566.997"/>
      <line x1="53.000" y1="1567.997" x2="3.000" y2="1567.997"/>
      <line x1="53.000" y1="1568.997" x2="3.000" y2="1568.997"/>
      <line x1="53.000" y1="1569.997" x2="3.000" y2="1569.997"/>
      <line x1="53.000" y1="1570.997" x2="3.000" y2="1570.997"/>
      <line x1="53.000" y1="1571.997" x2="3.000" y2="1571.997"/>
      <line x1="53.000" y1="1572.997" x2="3.000" y2="1572.997"/>
      <line x1="53.000" y1="1573.997" x2="3.000" y2="1573.997"/>
      <line x1="53.000" y1="1574.997" x2="3.000" y2="1574.997"/>
      <line x1="53.000" y1="1575.997" x2="3.000" y2="1575.997"/>
      <line x1="53.000" y1="1576.997" x2="3.000" y2="1576.997"/>
      <line x1="53.000" y1="1577.997" x2="3.000" y2="1577.997"/>
      <line x1="53.000" y1="1578.997" x2="3.000" y2="1578.997"/>
      <line x1="103.100" y1="1529.997" x2="53.100" y2="1529.997"/>
      <line x1="103.100" y1="1530.997" x2="53.100" y2="1530.997"/>
      <line x1="103.100" y1="1531.997" x2="53.100" y2="1531.997"/>
      <line x1="103.100" y1="1532.997" x2="53.100" y2="1532.997"/>
      <line x1="103.100" y1="1533.997" x2="53.100" y2="1533.997"/>
      <line x1="103.100" y1="1534.997" x2="53.100" y2="1534.997"/>
      <line x1="103.100" y1="1535.997" x2="53.100" y2="1535.997"/>
      <line x1="103.100" y1="1536.997" x2="53.100" y2="1536.997"/>
      <line x1="103.100" y1="1537.997" x2="53.100" y2="1537.997"/>
      <line x1="103.100" y1="1538.997" x2="53.100" y2="1538.997"/>
      <line x1="103.100" y1="1539.997" x2="53.100" y2="1539.997"/>
      <line x1="103.100" y1="1540.997" x2="53.100" y2="1540.997"/>
      <line x1="103.100" y1="1541.997" x2="53.100" y2="1541.997"/>
      <line x1="103.100" y1="1542.997" x2="53.100" y2="1542.997"/>
      <line x1="103.100" y1="1543.997" x2="53.100" y2="1543.997"/>
      <line x1="103.100" y1="1544.997" x2="53.100" y2="1544.997"/>
      <line x1="103.100" y1="1545.997" x2="53.100" y2="1545.997"/>
      <line x1="103.100" y1="1546.997" x2="53.100" y2="1546.997"/>
      <line x1="103.100" y1="1547.997" x2="53.100" y2="1547.997"/>
      <line x1="103.100" y1="1548.997" x2="53.100" y2="1548.997"/>
      <line x1="103.100" y1="1549.997" x2="53.100" y2="1549.997"/>
      <line x1="103.100" y1="1550.997" x2="53.100" y2="1550.997"/>
      <line x1="103.100" y1="1551.997" x2="53.100" y2="1551.997"/>
      <line x1="103.100" y1="1552.997" x2="53.100" y2="1552.997"/>
      <line x1="103.100" y1="1553.997" x2="53.100" y2="1553.997"/>
      <line x1="103.100" y1="1554.997" x2="53.100" y2="1554.997"/>
      <line x1="103.100" y1="1555.997" x2="53.100" y2="1555.997"/>
      <line x1="103.100" y1="1556.997" x2="53.100" y2="1556.997"/>
      <line x1="103.100" y1="1557.997" x2="53.100" y2="1557.997"/>
      <line x1="103.100" y1="1558.997" x2="53.100" y2="1558.997"/>
      <line x1="103.100" y1="1559.997" x2="53.100" y2="1559.997"/>
      <line x1="103.100" y1="1560.997" x2="53.100" y2="1560.997"/>
      <line x1="103.100" y1="1561.997" x2="53.100" y2="1561.997"/>
      <line x1="103.100" y1="1562.997" x2="53.100" y2="1562.997"/>
      <line x1="103.100" y1="1563.997" x2="53.100" y2="1563.997"/>
      <line x1="103.100" y1="1564.997" x2="53.100" y2="1564.997"/>
      <line x1="103.100" y1="1565.997" x2="53.100" y2="1565.997"/>
      <line x1="103.100" y1="1566.997" x2="53.100" y2="1566.997"/>
      <line x1="103.100" y1="1567.997" x2="53.100" y2="1567.997"/>
      <line x1="103.100" y1="1568.997" x2="53.100" y2="1568.997"/>
      <line x1="103.100" y1="1569.997" x2="53.100" y2="1569.997"/>
      <line x1="103.100" y1="1570.997" x2="53.100" y2="1570.997"/>
      <line x1="103.100" y1="1571.997" x2="53.100" y2="1571.997"/>
      <line x1="103.100" y1="1572.997" x2="53.100" y2="1572.997"/>
      <line x1="103.100" y1="1573.997" x2="53.100" y2="1573.997"/>
      <line x1="103.100" y1="1574.997" x2="53.100" y2="1574.997"/>
      <line x1="103.100" y1="1575.997" x2="53.100" y2="1575.997"/>
      <line x1="103.100" y1="1576.997" x2="53.100" y2="1576.997"/>
      <line x1="103.100" y1="1577.997" x2="53.100" y2="1577.997"/>
      <line x1="103.100" y1="1578.997" x2="53.100" y2="1578.997"/>
      <line x1="128.060" y1="1529.997" x2="103.200" y2="1529.997"/>
      <line x1="128.060" y1="1530.997" x2="103.200" y2="1530.997"/>
      <line x1="128.060" y1="1531.997" x2="103.200" y2="1531.997"/>
      <line x1="128.060" y1="1532.997" x2="103.200" y2="1532.997"/>
      <line x1="128.060" y1="1533.997" x2="103.200" y2="1533.997"/>
      <line x1="128.060" y1="1534.997" x2="103.200" y2="1534.997"/>
      <line x1="128.060" y1="1535.997" x2="103.200" y2="1535.997"/>
      <line x1="128.060" y1="1536.997" x2="103.200" y2="1536.997"/>
      <line x1="128.060" y1="1537.997" x2="103.200" y2="1537.997"/>
      <line x1="128.060" y1="1538.997" x2="103.200" y2="1538.997"/>
      <line x1="128.060" y1="1539.997" x2="103.200" y2="1539.997"/>
      <line x1="128.060" y1="1540.997" x2="103.200" y2="1540.997"/>
      <line x1="128.060" y1="1541.997" x2="103.200" y2="1541.997"/>
      <line x1="128.060" y1="1542.997" x2="103.200" y2="1542.997"/>
      <line x1="128.060" y1="1543.997" x2="103.200" y2="1543.997"/>
      <line x1="128.060" y1="1544.997" x2="103.200" y2="1544.997"/>
      <line x1="128.060" y1="1545.997" x2="103.200" y2="1545.997"/>
      <line x1="128.060" y1="1546.997" x2="103.200" y2="1546.997"/>
      <line x1="128.060" y1="1547.997" x2="103.200" y2="1547.997"/>
      <line x1="128.060" y1="1548.997" x2="103.200" y2="1548.997"/>
      <line x1="128.060" y1="1549.997" x2="103.200" y2="1549.997"/>
      <line x1="128.060" y1="1550.997" x2="103.200" y2="1550.997"/>
      <line x1="128.060" y1="1551.997" x2="103.200" y2="1551.997"/>
      <line x1="128.060" y1="1552.997" x2="103.200" y2="1552.997"/>
      <line x1="128.060" y1="1553.997" x2="103.200" y2="1553.997"/>
      <line x1="128.060" y1="1554.997" x2="103.200" y2="1554.997"/>
      <line x1="128.060" y1="1555.997" x2="103.200" y2="1555.997"/>
      <line x1="128.060" y1="1556.997" x2="103.200" y2="1556.997"/>
      <line x1="128.060" y1="1557.997" x2="103.200" y2="1557.997"/>
      <line x1="128.060" y1="1558.997" x2="103.200" y2="1558.997"/>
      <line x1="128.060" y1="1559.997" x2="103.200" y2="1559.997"/>
      <line x1="128.060" y1="1560.997" x2="103.200" y2="1560.997"/>
      <line x1="128.060" y1="1561.997" x2="103.200" y2="1561.997"/>
      <line x1="128.060" y1="1562.997" x2="103.200" y2="1562.997"/>
      <line x1="128.060" y1="1563.997" x2="103.200" y2="1563.997"/>
      <line x1="128.060" y1="1564.997" x2="103.200" y2="1564.997"/>
      <line x1="128.060" y1="1565.997" x2="103.200" y2="1565.997"/>
      <line x1="128.060" y1="1566.997" x2="103.200" y2="1566.997"/>
      <line x1="128.060" y1="1567.997" x2="103.200" y2="1567.997"/>
      <line x1="128.060" y1="1568.997" x2="103.200" y2="1568.997"/>
      <line x1="128.060" y1="1569.997" x2="103.200" y2="1569.997"/>
      <line x1="128.060" y1="1570.997" x2="103.200" y2="1570.997"/>
      <line x1="128.060" y1="1571.997" x2="103.200" y2="1571.997"/>
      <line x1="128.060" y1="1572.997" x2="103.200" y2="1572.997"/>
      <line x1="128.060" y1="1573.997" x2="103.200" y2="1573.997"/>
      <line x1="128.060" y1="1574.997" x2="103.200" y2="1574.997"/>
      <line x1="128.060" y1="1575.997" x2="103.200" y2="1575.997"/>
      <line x1="128.060" y1="1576.997" x2="103.200" y2="1576.997"/>
      <line x1="128.060" y1="1577.997" x2="103.200" y2="1577.997"/>
      <line x1="128.060" y1="1578.997" x2="103.200" y2="1578.997"/>
      <line x1="53.000" y1="1525.997" x2="3.000" y2="1525.997"/>
      <line x1="53.000" y1="1526.997" x2="3.000" y2="1526.997"/>
      <line x1="53.000" y1="1527.997" x2="3.000" y2="1527.997"/>
      <line x1="103.100" y1="1525.997" x2="53.100" y2="1525.997"/>
      <line x1="103.100" y1="1526.997" x2="53.100" y2="1526.997"/>
      <line x1="103.100" y1="1527.997" x2="53.100" y2="1527.997"/>
      <line x1="128.060" y1="1525.997" x2="103.200" y2="1525.997"/>
      <line x1="128.060" y1="1526.997" x2="103.200" y2="1526.997"/>
      <line x1="128.060" y1="1527.997" x2="103.200" y2="1527.997"/>
    </g>
    <g stroke="#1976D2" stroke-width="0.4">
      <polyline points="470.297,1682.729 600.500,1682.729 600.500,1521.729 470.297,1521.729" fill="none"/>
      <polyline points="470.297,1521.729 468.440,1521.729 468.440,1682.729 470.297,1682.729" fill="none"/>
      <polyline points="470.297,1681.730 599.500,1681.730 599.500,1522.729 470.297,1522.729" fill="none"/>
      <polyline points="470.297,1522.729 469.440,1522.729 469.440,1681.730 470.297,1681.730" fill="none"/>
      <polyline points="598.500,1523.729 470.440,1523.729 470.440,1680.730 598.500,1680.730 598.500,1523.729" fill="none"/>
      <polyline points="597.500,1524.729 471.440,1524.729 471.440,1679.729 597.500,1679.729 597.500,1524.729" fill="none"/>
      <polyline points="129.703,1521.729 -0.500,1521.729 -0.500,1682.729 129.703,1682.729" fill="none"/>
      <polyline points="129.703,1682.729 131.560,1682.729 131.560,1521.729 129.703,1521.729" fill="none"/>
      <polyline points="129.703,1522.729 0.500,1522.729 0.500,1681.730 129.703,1681.730" fill="none"/>
      <polyline points="129.703,1681.730 130.560,1681.730 130.560,1522.729 129.703,1522.729" fill="none"/>
      <polyline points="129.560,1523.729 1.500,1523.729 1.500,1680.730 129.560,1680.730 129.560,1523.729" fill="none"/>
      <polyline points="128.560,1524.729 2.500,1524.729 2.500,1679.729 128.560,1679.729 128.560,1524.729" fill="none"/>
    </g>
    <g stroke="#C62828" stroke-width="0.4" fill="none">
      <polygon points="293.455,1533.348 294.762,1532.593 295.649,1531.372 295.963,1529.896 295.649,1528.420 294.762,1527.199 293.455,1526.444 291.954,1526.286 290.519,1526.753 289.397,1527.763 288.783,1529.142 288.783,1530.651 289.397,1532.030 290.519,1533.040 291.954,1533.506"/>
      <polygon points="313.424,1533.252 314.694,1532.518 315.556,1531.331 315.861,1529.896 315.556,1528.461 314.694,1527.274 313.424,1526.541 311.965,1526.387 310.569,1526.841 309.479,1527.822 308.882,1529.163 308.882,1530.630 309.479,1531.970 310.569,1532.952 311.965,1533.405"/>
      <polygon points="274.402,1532.490 275.323,1531.336 275.651,1529.896 275.323,1528.457 274.402,1527.302 273.072,1526.661 271.595,1526.661 270.265,1527.302 269.344,1528.457 269.015,1529.896 269.344,1531.336 270.265,1532.490 271.595,1533.131 273.072,1533.131"/>
      <polygon points="334.334,1532.405 335.225,1531.289 335.543,1529.896 335.225,1528.504 334.334,1527.387 333.047,1526.767 331.619,1526.767 330.332,1527.387 329.442,1528.504 329.124,1529.896 329.442,1531.289 330.332,1532.405 331.619,1533.025 333.047,1533.025"/>
      <polygon points="354.029,1532.352 354.976,1531.283 355.317,1529.896 354.976,1528.509 354.029,1527.440 352.693,1526.934 351.275,1527.106 350.100,1527.917 349.436,1529.182 349.436,1530.610 350.100,1531.875 351.275,1532.686 352.693,1532.859"/>
      <polygon points="254.029,1532.352 254.976,1531.283 255.317,1529.896 254.976,1528.509 254.029,1527.440 252.693,1526.934 251.275,1527.106 250.100,1527.917 249.436,1529.182 249.436,1530.610 250.100,1531.875 251.275,1532.686 252.693,1532.859"/>
      <polygon points="233.894,1532.158 234.767,1531.173 235.081,1529.896 234.767,1528.619 233.894,1527.635 232.665,1527.168 231.359,1527.327 230.276,1528.074 229.665,1529.239 229.665,1530.554 230.276,1531.718 231.359,1532.466 232.665,1532.624"/>
      <polygon points="373.825,1532.057 374.658,1531.116 374.959,1529.896 374.658,1528.676 373.825,1527.735 372.650,1527.290 371.402,1527.441 370.368,1528.155 369.784,1529.268 369.784,1530.524 370.368,1531.637 371.402,1532.351 372.650,1532.503"/>
      <polygon points="213.519,1531.950 214.387,1531.082 214.705,1529.896 214.387,1528.711 213.519,1527.843 212.333,1527.525 211.148,1527.843 210.280,1528.711 209.962,1529.896 210.280,1531.082 211.148,1531.950 212.333,1532.267"/>
      <polygon points="393.453,1531.835 394.273,1531.016 394.573,1529.896 394.273,1528.777 393.453,1527.957 392.333,1527.657 391.214,1527.957 390.394,1528.777 390.094,1529.896 390.394,1531.016 391.214,1531.835 392.333,1532.135"/>
      <polygon points="173.333,1531.628 174.065,1530.896 174.333,1529.896 174.065,1528.896 173.333,1528.164 172.333,1527.896 171.333,1528.164 170.601,1528.896 170.333,1529.896 170.601,1530.896 171.333,1531.628 172.333,1531.896"/>
      <polygon points="153.333,1531.628 154.065,1530.896 154.333,1529.896 154.065,1528.896 153.333,1528.164 152.333,1527.896 151.333,1528.164 151.060,1528.438 151.060,1531.355 151.333,1531.628 152.333,1531.896"/>
      <polygon points="413.333,1531.628 414.065,1530.896 414.333,1529.896 414.065,1528.896 413.333,1528.164 412.333,1527.896 411.333,1528.164 410.601,1528.896 410.333,1529.896 410.601,1530.896 411.333,1531.628 412.333,1531.896"/>
      <polygon points="433.333,1531.628 434.065,1530.896 434.333,1529.896 434.065,1528.896 433.333,1528.164 432.333,1527.896 431.333,1528.164 430.601,1528.896 430.333,1529.896 430.601,1530.896 431.333,1531.628 432.333,1531.896"/>
      <polygon points="193.333,1531.628 194.065,1530.896 194.333,1529.896 194.065,1528.896 193.333,1528.164 192.333,1527.896 191.333,1528.164 190.601,1528.896 190.333,1529.896 190.601,1530.896 191.333,1531.628 192.333,1531.896"/>
      <polygon points="293.455,1553.348 294.762,1552.593 295.649,1551.372 295.963,1549.896 295.649,1548.420 294.762,1547.199 293.455,1546.444 291.954,1546.286 290.519,1546.753 289.397,1547.763 288.783,1549.142 288.783,1550.651 289.397,1552.030 290.519,1553.040 291.954,1553.506"/>
      <polygon points="313.424,1553.252 314.694,1552.518 315.556,1551.331 315.861,1549.896 315.556,1548.461 314.694,1547.274 313.424,1546.541 311.965,1546.387 310.569,1546.841 309.479,1547.822 308.882,1549.163 308.882,1550.630 309.479,1551.970 310.569,1552.952 311.965,1553.405"/>
      <polygon points="274.402,1552.490 275.323,1551.336 275.651,1549.896 275.323,1548.457 274.402,1547.302 273.072,1546.661 271.595,1546.661 270.265,1547.302 269.344,1548.457 269.015,1549.896 269.344,1551.336 270.265,1552.490 271.595,1553.131 273.072,1553.131"/>
      <polygon points="334.334,1552.405 335.225,1551.289 335.543,1549.896 335.225,1548.504 334.334,1547.387 333.047,1546.767 331.619,1546.767 330.332,1547.387 329.442,1548.504 329.124,1549.896 329.442,1551.289 330.332,1552.405 331.619,1553.025 333.047,1553.025"/>
      <polygon points="254.029,1552.352 254.976,1551.283 255.317,1549.896 254.976,1548.509 254.029,1547.440 252.693,1546.934 251.275,1547.106 250.100,1547.917 249.436,1549.182 249.436,1550.610 250.100,1551.875 251.275,1552.686 252.693,1552.859"/>
      <polygon points="354.029,1552.352 354.976,1551.283 355.317,1549.896 354.976,1548.509 354.029,1547.440 352.693,1546.934 351.275,1547.106 350.100,1547.917 349.436,1549.182 349.436,1550.610 350.100,1551.875 351.275,1552.686 352.693,1552.859"/>
      <polygon points="233.894,1552.158 234.767,1551.173 235.081,1549.896 234.767,1548.619 233.894,1547.635 232.665,1547.168 231.359,1547.327 230.276,1548.074 229.665,1549.239 229.665,1550.554 230.276,1551.718 231.359,1552.466 232.665,1552.624"/>
      <polygon points="373.825,1552.057 374.658,1551.116 374.959,1549.896 374.658,1548.676 373.825,1547.735 372.650,1547.290 371.402,1547.441 370.368,1548.155 369.784,1549.268 369.784,1550.524 370.368,1551.637 371.402,1552.351 372.650,1552.503"/>
      <polygon points="213.519,1551.950 214.387,1551.082 214.705,1549.896 214.387,1548.711 213.519,1547.843 212.333,1547.525 211.148,1547.843 210.280,1548.711 209.962,1549.896 210.280,1551.082 211.148,1551.950 212.333,1552.267"/>
      <polygon points="393.453,1551.835 394.273,1551.016 394.573,1549.896 394.273,1548.777 393.453,1547.957 392.333,1547.657 391.214,1547.957 390.394,1548.777 390.094,1549.896 390.394,1551.016 391.214,1551.835 392.333,1552.135"/>
      <polygon points="193.333,1551.628 194.065,1550.896 194.333,1549.896 194.065,1548.896 193.333,1548.164 192.333,1547.896 191.333,1548.164 190.601,1548.896 190.333,1549.896 190.601,1550.896 191.333,1551.628 192.333,1551.896"/>
      <polygon points="173.333,1551.628 174.065,1550.896 174.333,1549.896 174.065,1548.896 173.333,1548.164 172.333,1547.896 171.333,1548.164 170.601,1548.896 170.333,1549.896 170.601,1550.896 171.333,1551.628 172.333,1551.896"/>
      <polygon points="153.333,1551.628 154.065,1550.896 154.333,1549.896 154.065,1548.896 153.333,1548.164 152.333,1547.896 151.333,1548.164 151.060,1548.438 151.060,1551.355 151.333,1551.628 152.333,1551.896"/>
      <polygon points="433.333,1551.628 434.065,1550.896 434.333,1549.896 434.065,1548.896 433.333,1548.164 432.333,1547.896 431.333,1548.164 430.601,1548.896 430.333,1549.896 430.601,1550.896 431.333,1551.628 432.333,1551.896"/>
      <polygon points="413.333,1551.628 414.065,1550.896 414.333,1549.896 414.065,1548.896 413.333,1548.164 412.333,1547.896 411.333,1548.164 410.601,1548.896 410.333,1549.896 410.601,1550.896 411.333,1551.628 412.333,1551.896"/>
      <polygon points="293.455,1573.348 294.762,1572.593 295.649,1571.372 295.963,1569.896 295.649,1568.420 294.762,1567.199 293.455,1566.444 291.954,1566.286 290.519,1566.753 289.397,1567.763 288.783,1569.142 288.783,1570.651 289.397,1572.030 290.519,1573.040 291.954,1573.506"/>
      <polygon points="313.424,1573.252 314.694,1572.518 315.556,1571.331 315.861,1569.896 315.556,1568.461 314.694,1567.274 313.424,1566.541 311.965,1566.387 310.569,1566.841 309.479,1567.822 308.882,1569.163 308.882,1570.630 309.479,1571.970 310.569,1572.952 311.965,1573.405"/>
      <polygon points="274.402,1572.490 275.323,1571.336 275.651,1569.896 275.323,1568.457 274.402,1567.302 273.072,1566.661 271.595,1566.661 270.265,1567.302 269.344,1568.457 269.015,1569.896 269.344,1571.336 270.265,1572.490 271.595,1573.131 273.072,1573.131"/>
      <polygon points="334.334,1572.405 335.225,1571.289 335.543,1569.896 335.225,1568.504 334.334,1567.387 333.047,1566.767 331.619,1566.767 330.332,1567.387 329.442,1568.504 329.124,1569.896 329.442,1571.289 330.332,1572.405 331.619,1573.025 333.047,1573.025"/>
      <polygon points="254.029,1572.352 254.976,1571.283 255.317,1569.896 254.976,1568.509 254.029,1567.440 252.693,1566.934 251.275,1567.106 250.100,1567.917 249.436,1569.182 249.436,1570.610 250.100,1571.875 251.275,1572.686 252.693,1572.859"/>
      <polygon points="354.029,1572.352 354.976,1571.283 355.317,1569.896 354.976,1568.509 354.029,1567.440 352.693,1566.934 351.275,1567.106 350.100,1567.917 349.436,1569.182 349.436,1570.610 350.100,1571.875 351.275,1572.686 352.693,1572.859"/>
      <polygon points="233.894,1572.158 234.767,1571.173 235.081,1569.896 234.767,1568.619 233.894,1567.635 232.665,1567.168 231.359,1567.327 230.276,1568.074 229.665,1569.239 229.665,1570.554 230.276,1571.718 231.359,1572.466 232.665,1572.624"/>
      <polygon points="373.825,1572.057 374.658,1571.116 374.959,1569.896 374.658,1568.676 373.825,1567.735 372.650,1567.290 371.402,1567.441 370.368,1568.155 369.784,1569.268 369.784,1570.524 370.368,1571.637 371.402,1572.351 372.650,1572.503"/>
      <polygon points="213.519,1571.950 214.387,1571.082 214.705,1569.896 214.387,1568.711 213.519,1567.843 212.333,1567.525 211.148,1567.843 210.280,1568.711 209.962,1569.896 210.280,1571.082 211.148,1571.950 212.333,1572.267"/>
      <polygon points="393.453,1571.835 394.273,1571.016 394.573,1569.896 394.273,1568.777 393.453,1567.957 392.333,1567.657 391.214,1567.957 390.394,1568.777 390.094,1569.896 390.394,1571.016 391.214,1571.835 392.333,1572.135"/>
      <polygon points="173.333,1571.628 174.065,1570.896 174.333,1569.896 174.065,1568.896 173.333,1568.164 172.333,1567.896 171.333,1568.164 170.601,1568.896 170.333,1569.896 170.601,1570.896 171.333,1571.628 172.333,1571.896"/>
      <polygon points="193.333,1571.628 194.065,1570.896 194.333,1569.896 194.065,1568.896 193.333,1568.164 192.333,1567.896 191.333,1568.164 190.601,1568.896 190.333,1569.896 190.601,1570.896 191.333,1571.628 192.333,1571.896"/>
      <polygon points="153.333,1571.628 154.065,1570.896 154.333,1569.896 154.065,1568.896 153.333,1568.164 152.333,1567.896 151.333,1568.164 151.060,1568.438 151.060,1571.355 151.333,1571.628 152.333,1571.896"/>
      <polygon points="433.333,1571.628 434.065,1570.896 434.333,1569.896 434.065,1568.896 433.333,1568.164 432.333,1567.896 431.333,1568.164 430.601,1568.896 430.333,1569.896 430.601,1570.896 431.333,1571.628 432.333,1571.896"/>
      <polygon points="413.333,1571.628 414.065,1570.896 414.333,1569.896 414.065,1568.896 413.333,1568.164 412.333,1567.896 411.333,1568.164 410.601,1568.896 410.333,1569.896 410.601,1570.896 411.333,1571.628 412.333,1571.896"/>
      <polygon points="293.455,1593.348 294.762,1592.593 295.649,1591.372 295.963,1589.896 295.649,1588.420 294.762,1587.199 293.455,1586.444 291.954,1586.286 290.519,1586.753 289.397,1587.763 288.783,1589.142 288.783,1590.651 289.397,1592.030 290.519,1593.040 291.954,1593.506"/>
      <polygon points="313.424,1593.252 314.694,1592.518 315.556,1591.331 315.861,1589.896 315.556,1588.461 314.694,1587.274 313.424,1586.541 311.965,1586.387 310.569,1586.841 309.479,1587.822 308.882,1589.163 308.882,1590.630 309.479,1591.970 310.569,1592.952 311.965,1593.405"/>
      <polygon points="274.402,1592.490 275.323,1591.336 275.651,1589.896 275.323,1588.457 274.402,1587.302 273.072,1586.661 271.595,1586.661 270.265,1587.302 269.344,1588.457 269.015,1589.896 269.344,1591.336 270.265,1592.490 271.595,1593.131 273.072,1593.131"/>
      <polygon points="334.334,1592.405 335.225,1591.289 335.543,1589.896 335.225,1588.504 334.334,1587.387 333.047,1586.767 331.619,1586.767 330.332,1587.387 329.442,1588.504 329.124,1589.896 329.442,1591.289 330.332,1592.405 331.619,1593.025 333.047,1593.025"/>
      <polygon points="354.029,1592.352 354.976,1591.283 355.317,1589.896 354.976,1588.509 354.029,1587.440 352.693,1586.934 351.275,1587.106 350.100,1587.917 349.436,1589.182 349.436,1590.610 350.100,1591.875 351.275,1592.686 352.693,1592.859"/>
      <polygon points="254.029,1592.352 254.976,1591.283 255.317,1589.896 254.976,1588.509 254.029,1587.440 252.693,1586.934 251.275,1587.106 250.100,1587.917 249.436,1589.182 249.436,1590.610 250.100,1591.875 251.275,1592.686 252.693,1592.859"/>
      <polygon points="233.894,1592.158 234.767,1591.173 235.081,1589.896 234.767,1588.619 233.894,1587.635 232.665,1587.168 231.359,1587.327 230.276,1588.074 229.665,1589.239 229.665,1590.554 230.276,1591.718 231.359,1592.466 232.665,1592.624"/>
      <polygon points="373.825,1592.057 374.658,1591.116 374.959,1589.896 374.658,1588.676 373.825,1587.735 372.650,1587.290 371.402,1587.441 370.368,1588.155 369.784,1589.268 369.784,1590.524 370.368,1591.637 371.402,1592.351 372.650,1592.503"/>
      <polygon points="213.519,1591.950 214.387,1591.082 214.705,1589.896 214.387,1588.711 213.519,1587.843 212.333,1587.525 211.148,1587.843 210.280,1588.711 209.962,1589.896 210.280,1591.082 211.148,1591.950 212.333,1592.267"/>
      <polygon points="393.453,1591.835 394.273,1591.016 394.573,1589.896 394.273,1588.777 393.453,1587.957 392.333,1587.657 391.214,1587.957 390.394,1588.777 390.094,1589.896 390.394,1591.016 391.214,1591.835 392.333,1592.135"/>
      <polygon points="413.333,1591.628 414.065,1590.896 414.333,1589.896 414.065,1588.896 413.333,1588.164 412.333,1587.896 411.333,1588.164 410.601,1588.896 410.333,1589.896 410.601,1590.896 411.333,1591.628 412.333,1591.896"/>
      <polygon points="433.333,1591.628 434.065,1590.896 434.333,1589.896 434.065,1588.896 433.333,1588.164 432.333,1587.896 431.333,1588.164 430.601,1588.896 430.333,1589.896 430.601,1590.896 431.333,1591.628 432.333,1591.896"/>
      <polygon points="193.333,1591.628 194.065,1590.896 194.333,1589.896 194.065,1588.896 193.333,1588.164 192.333,1587.896 191.333,1588.164 190.601,1588.896 190.333,1589.896 190.601,1590.896 191.333,1591.628 192.333,1591.896"/>
      <polygon points="173.333,1591.628 174.065,1590.896 174.333,1589.896 174.065,1588.896 173.333,1588.164 172.333,1587.896 171.333,1588.164 170.601,1588.896 170.333,1589.896 170.601,1590.896 171.333,1591.628 172.333,1591.896"/>
      <polygon points="153.333,1591.628 154.065,1590.896 154.333,1589.896 154.065,1588.896 153.333,1588.164 152.333,1587.896 151.333,1588.164 151.060,1588.438 151.060,1591.355 151.333,1591.628 152.333,1591.896"/>
      <polygon points="293.455,1613.348 294.762,1612.593 295.649,1611.372 295.963,1609.896 295.649,1608.420 294.762,1607.199 293.455,1606.444 291.954,1606.286 290.519,1606.753 289.397,1607.763 288.783,1609.142 288.783,1610.651 289.397,1612.030 290.519,1613.040 291.954,1613.506"/>
      <polygon points="313.424,1613.252 314.694,1612.518 315.556,1611.331 315.861,1609.896 315.556,1608.461 314.694,1607.274 313.424,1606.541 311.965,1606.387 310.569,1606.841 309.479,1607.822 308.882,1609.163 308.882,1610.630 309.479,1611.970 310.569,1612.952 311.965,1613.405"/>
      <polygon points="274.402,1612.490 275.323,1611.336 275.651,1609.896 275.323,1608.457 274.402,1607.302 273.072,1606.661 271.595,1606.661 270.265,1607.302 269.344,1608.457 269.015,1609.896 269.344,1611.336 270.265,1612.490 271.595,1613.131 273.072,1613.131"/>
      <polygon points="334.334,1612.405 335.225,1611.289 335.543,1609.896 335.225,1608.504 334.334,1607.387 333.047,1606.767 331.619,1606.767 330.332,1607.387 329.442,1608.504 329.124,1609.896 329.442,1611.289 330.332,1612.405 331.619,1613.025 333.047,1613.025"/>
      <polygon points="354.029,1612.352 354.976,1611.283 355.317,1609.896 354.976,1608.509 354.029,1607.440 352.693,1606.934 351.275,1607.106 350.100,1607.917 349.436,1609.182 349.436,1610.610 350.100,1611.875 351.275,1612.686 352.693,1612.859"/>
      <polygon points="254.029,1612.352 254.976,1611.283 255.317,1609.896 254.976,1608.509 254.029,1607.440 252.693,1606.934 251.275,1607.106 250.100,1607.917 249.436,1609.182 249.436,1610.610 250.100,1611.875 251.275,1612.686 252.693,1612.859"/>
      <polygon points="233.894,1612.158 234.767,1611.173 235.081,1609.896 234.767,1608.619 233.894,1607.635 232.665,1607.168 231.359,1607.327 230.276,1608.074 229.665,1609.239 229.665,1610.554 230.276,1611.718 231.359,1612.466 232.665,1612.624"/>
      <polygon points="373.825,1612.057 374.658,1611.116 374.959,1609.896 374.658,1608.676 373.825,1607.735 372.650,1607.290 371.402,1607.441 370.368,1608.155 369.784,1609.268 369.784,1610.524 370.368,1611.637 371.402,1612.351 372.650,1612.503"/>
      <polygon points="213.519,1611.950 214.387,1611.082 214.705,1609.896 214.387,1608.711 213.519,1607.843 212.333,1607.525 211.148,1607.843 210.280,1608.711 209.962,1609.896 210.280,1611.082 211.148,1611.950 212.333,1612.267"/>
      <polygon points="393.453,1611.835 394.273,1611.016 394.573,1609.896 394.273,1608.777 393.453,1607.957 392.333,1607.657 391.214,1607.957 390.394,1608.777 390.094,1609.896 390.394,1611.016 391.214,1611.835 392.333,1612.135"/>
      <polygon points="413.333,1611.628 414.065,1610.896 414.333,1609.896 414.065,1608.896 413.333,1608.164 412.333,1607.896 411.333,1608.164 410.601,1608.896 410.333,1609.896 410.601,1610.896 411.333,1611.628 412.333,1611.896"/>
      <polygon points="153.333,1611.628 154.065,1610.896 154.333,1609.896 154.065,1608.896 153.333,1608.164 152.333,1607.896 151.333,1608.164 151.060,1608.438 151.060,1611.355 151.333,1611.628 152.333,1611.896"/>
      <polygon points="433.333,1611.628 434.065,1610.896 434.333,1609.896 434.065,1608.896 433.333,1608.164 432.333,1607.896 431.333,1608.164 430.601,1608.896 430.333,1609.896 430.601,1610.896 431.333,1611.628 432.333,1611.896"/>
      <polygon points="173.333,1611.628 174.065,1610.896 174.333,1609.896 174.065,1608.896 173.333,1608.164 172.333,1607.896 171.333,1608.164 170.601,1608.896 170.333,1609.896 170.601,1610.896 171.333,1611.628 172.333,1611.896"/>
      <polygon points="193.333,1611.628 194.065,1610.896 194.333,1609.896 194.065,1608.896 193.333,1608.164 192.333,1607.896 191.333,1608.164 190.601,1608.896 190.333,1609.896 190.601,1610.896 191.333,1611.628 192.333,1611.896"/>
      <polygon points="293.455,1633.348 294.762,1632.593 295.649,1631.372 295.963,1629.896 295.649,1628.420 294.762,1627.199 293.455,1626.444 291.954,1626.286 290.519,1626.753 289.397,1627.763 288.783,1629.142 288.783,1630.651 289.397,1632.030 290.519,1633.040 291.954,1633.506"/>
      <polygon points="313.424,1633.252 314.694,1632.518 315.556,1631.331 315.861,1629.896 315.556,1628.461 314.694,1627.274 313.424,1626.541 311.965,1626.387 310.569,1626.841 309.479,1627.822 308.882,1629.163 308.882,1630.630 309.479,1631.970 310.569,1632.952 311.965,1633.405"/>
      <polygon points="274.402,1632.490 275.323,1631.336 275.651,1629.896 275.323,1628.457 274.402,1627.302 273.072,1626.661 271.595,1626.661 270.265,1627.302 269.344,1628.457 269.015,1629.896 269.344,1631.336 270.265,1632.490 271.595,1633.131 273.072,1633.131"/>
      <polygon points="334.334,1632.405 335.225,1631.289 335.543,1629.896 335.225,1628.504 334.334,1627.387 333.047,1626.767 331.619,1626.767 330.332,1627.387 329.442,1628.504 329.124,1629.896 329.442,1631.289 330.332,1632.405 331.619,1633.025 333.047,1633.025"/>
      <polygon points="254.029,1632.352 254.976,1631.283 255.317,1629.896 254.976,1628.509 254.029,1627.440 252.693,1626.934 251.275,1627.106 250.100,1627.917 249.436,1629.182 249.436,1630.610 250.100,1631.875 251.275,1632.686 252.693,1632.859"/>
      <polygon points="354.029,1632.352 354.976,1631.283 355.317,1629.896 354.976,1628.509 354.029,1627.440 352.693,1626.934 351.275,1627.106 350.100,1627.917 349.436,1629.182 349.436,1630.610 350.100,1631.875 351.275,1632.686 352.693,1632.859"/>
      <polygon points="233.894,1632.158 234.767,1631.173 235.081,1629.896 234.767,1628.619 233.894,1627.635 232.665,1627.168 231.359,1627.327 230.276,1628.074 229.665,1629.239 229.665,1630.554 230.276,1631.718 231.359,1632.466 232.665,1632.624"/>
      <polygon points="373.825,1632.057 374.658,1631.116 374.959,1629.896 374.658,1628.676 373.825,1627.735 372.650,1627.290 371.402,1627.441 370.368,1628.155 369.784,1629.268 369.784,1630.524 370.368,1631.637 371.402,1632.351 372.650,1632.503"/>
      <polygon points="213.519,1631.950 214.387,1631.082 214.705,1629.896 214.387,1628.711 213.519,1627.843 212.333,1627.525 211.148,1627.843 210.280,1628.711 209.962,1629.896 210.280,1631.082 211.148,1631.950 212.333,1632.267"/>
      <polygon points="393.453,1631.835 394.273,1631.016 394.573,1629.896 394.273,1628.777 393.453,1627.957 392.333,1627.657 391.214,1627.957 390.394,1628.777 390.094,1629.896 390.394,1631.016 391.214,1631.835 392.333,1632.135"/>
      <polygon points="193.333,1631.628 194.065,1630.896 194.333,1629.896 194.065,1628.896 193.333,1628.164 192.333,1627.896 191.333,1628.164 190.601,1628.896 190.333,1629.896 190.601,1630.896 191.333,1631.628 192.333,1631.896"/>
      <polygon points="173.333,1631.628 174.065,1630.896 174.333,1629.896 174.065,1628.896 173.333,1628.164 172.333,1627.896 171.333,1628.164 170.601,1628.896 170.333,1629.896 170.601,1630.896 171.333,1631.628 172.333,1631.896"/>
      <polygon points="153.333,1631.628 154.065,1630.896 154.333,1629.896 154.065,1628.896 153.333,1628.164 152.333,1627.896 151.333,1628.164 151.060,1628.438 151.060,1631.355 151.333,1631.628 152.333,1631.896"/>
      <polygon points="433.333,1631.628 434.065,1630.896 434.333,1629.896 434.065,1628.896 433.333,1628.164 432.333,1627.896 431.333,1628.164 430.601,1628.896 430.333,1629.896 430.601,1630.896 431.333,1631.628 432.333,1631.896"/>
      <polygon points="413.333,1631.628 414.065,1630.896 414.333,1629.896 414.065,1628.896 413.333,1628.164 412.333,1627.896 411.333,1628.164 410.601,1628.896 410.333,1629.896 410.601,1630.896 411.333,1631.628 412.333,1631.896"/>
      <polygon points="293.455,1653.348 294.762,1652.593 295.649,1651.372 295.963,1649.896 295.649,1648.420 294.762,1647.199 293.455,1646.444 291.954,1646.286 290.519,1646.753 289.397,1647.763 288.783,1649.142 288.783,1650.651 289.397,1652.030 290.519,1653.040 291.954,1653.506"/>
      <polygon points="313.424,1653.252 314.694,1652.518 315.556,1651.331 315.861,1649.896 315.556,1648.461 314.694,1647.274 313.424,1646.541 311.965,1646.387 310.569,1646.841 309.479,1647.822 308.882,1649.163 308.882,1650.630 309.479,1651.970 310.569,1652.952 311.965,1653.405"/>
      <polygon points="274.402,1652.490 275.323,1651.336 275.651,1649.896 275.323,1648.457 274.402,1647.302 273.072,1646.661 271.595,1646.661 270.265,1647.302 269.344,1648.457 269.015,1649.896 269.344,1651.336 270.265,1652.490 271.595,1653.131 273.072,1653.131"/>
      <polygon points="334.334,1652.405 335.225,1651.289 335.543,1649.896 335.225,1648.504 334.334,1647.387 333.047,1646.767 331.619,1646.767 330.332,1647.387 329.442,1648.504 329.124,1649.896 329.442,1651.289 330.332,1652.405 331.619,1653.025 333.047,1653.025"/>
      <polygon points="254.029,1652.352 254.976,1651.283 255.317,1649.896 254.976,1648.509 254.029,1647.440 252.693,1646.934 251.275,1647.106 250.100,1647.917 249.436,1649.182 249.436,1650.610 250.100,1651.875 251.275,1652.686 252.693,1652.859"/>
      <polygon points="354.029,1652.352 354.976,1651.283 355.317,1649.896 354.976,1648.509 354.029,1647.440 352.693,1646.934 351.275,1647.106 350.100,1647.917 349.436,1649.182 349.436,1650.610 350.100,1651.875 351.275,1652.686 352.693,1652.859"/>
      <polygon points="233.894,1652.158 234.767,1651.173 235.081,1649.896 234.767,1648.619 233.894,1647.635 232.665,1647.168 231.359,1647.327 230.276,1648.074 229.665,1649.239 229.665,1650.554 230.276,1651.718 231.359,1652.466 232.665,1652.624"/>
      <polygon points="373.825,1652.057 374.658,1651.116 374.959,1649.896 374.658,1648.676 373.825,1647.735 372.650,1647.290 371.402,1647.441 370.368,1648.155 369.784,1649.268 369.784,1650.524 370.368,1651.637 371.402,1652.351 372.650,1652.503"/>
      <polygon points="213.519,1651.950 214.387,1651.082 214.705,1649.896 214.387,1648.711 213.519,1647.843 212.333,1647.525 211.148,1647.843 210.280,1648.711 209.962,1649.896 210.280,1651.082 211.148,1651.950 212.333,1652.267"/>
      <polygon points="393.453,1651.835 394.273,1651.016 394.573,1649.896 394.273,1648.777 393.453,1647.957 392.333,1647.657 391.214,1647.957 390.394,1648.777 390.094,1649.896 390.394,1651.016 391.214,1651.835 392.333,1652.135"/>
      <polygon points="173.333,1651.628 174.065,1650.896 174.333,1649.896 174.065,1648.896 173.333,1648.164 172.333,1647.896 171.333,1648.164 170.601,1648.896 170.333,1649.896 170.601,1650.896 171.333,1651.628 172.333,1651.896"/>
      <polygon points="193.333,1651.628 194.065,1650.896 194.333,1649.896 194.065,1648.896 193.333,1648.164 192.333,1647.896 191.333,1648.164 190.601,1648.896 190.333,1649.896 190.601,1650.896 191.333,1651.628 192.333,1651.896"/>
      <polygon points="153.333,1651.628 154.065,1650.896 154.333,1649.896 154.065,1648.896 153.333,1648.164 152.333,1647.896 151.333,1648.164 151.060,1648.438 151.060,1651.355 151.333,1651.628 152.333,1651.896"/>
      <polygon points="433.333,1651.628 434.065,1650.896 434.333,1649.896 434.065,1648.896 433.333,1648.164 432.333,1647.896 431.333,1648.164 430.601,1648.896 430.333,1649.896 430.601,1650.896 431.333,1651.628 432.333,1651.896"/>
      <polygon points="413.333,1651.628 414.065,1650.896 414.333,1649.896 414.065,1648.896 413.333,1648.164 412.333,1647.896 411.333,1648.164 410.601,1648.896 410.333,1649.896 410.601,1650.896 411.333,1651.628 412.333,1651.896"/>
      <polygon points="293.455,1673.348 294.762,1672.593 295.649,1671.372 295.963,1669.896 295.649,1668.420 294.762,1667.199 293.455,1666.444 291.954,1666.286 290.519,1666.753 289.397,1667.763 288.783,1669.142 288.783,1670.651 289.397,1672.030 290.519,1673.040 291.954,1673.506"/>
      <polygon points="313.424,1673.252 314.694,1672.518 315.556,1671.331 315.861,1669.896 315.556,1668.461 314.694,1667.274 313.424,1666.541 311.965,1666.387 310.569,1666.841 309.479,1667.822 308.882,1669.163 308.882,1670.630 309.479,1671.970 310.569,1672.952 311.965,1673.405"/>
      <polygon points="274.402,1672.490 275.323,1671.336 275.651,1669.896 275.323,1668.457 274.402,1667.302 273.072,1666.661 271.595,1666.661 270.265,1667.302 269.344,1668.457 269.015,1669.896 269.344,1671.336 270.265,1672.490 271.595,1673.131 273.072,1673.131"/>
      <polygon points="334.334,1672.405 335.225,1671.289 335.543,1669.896 335.225,1668.504 334.334,1667.387 333.047,1666.767 331.619,1666.767 330.332,1667.387 329.442,1668.504 329.124,1669.896 329.442,1671.289 330.332,1672.405 331.619,1673.025 333.047,1673.025"/>
      <polygon points="354.029,1672.352 354.976,1671.283 355.317,1669.896 354.976,1668.509 354.029,1667.440 352.693,1666.934 351.275,1667.106 350.100,1667.917 349.436,1669.182 349.436,1670.610 350.100,1671.875 351.275,1672.686 352.693,1672.859"/>
      <polygon points="254.029,1672.352 254.976,1671.283 255.317,1669.896 254.976,1668.509 254.029,1667.440 252.693,1666.934 251.275,1667.106 250.100,1667.917 249.436,1669.182 249.436,1670.610 250.100,1671.875 251.275,1672.686 252.693,1672.859"/>
      <polygon points="233.894,1672.158 234.767,1671.173 235.081,1669.896 234.767,1668.619 233.894,1667.635 232.665,1667.168 231.359,1667.327 230.276,1668.074 229.665,1669.239 229.665,1670.554 230.276,1671.718 231.359,1672.466 232.665,1672.624"/>
      <polygon points="373.825,1672.057 374.658,1671.116 374.959,1669.896 374.658,1668.676 373.825,1667.735 372.650,1667.290 371.402,1667.441 370.368,1668.155 369.784,1669.268 369.784,1670.524 370.368,1671.637 371.402,1672.351 372.650,1672.503"/>
      <polygon points="213.519,1671.950 214.387,1671.082 214.705,1669.896 214.387,1668.711 213.519,1667.843 212.333,1667.525 211.148,1667.843 210.280,1668.711 209.962,1669.896 210.280,1671.082 211.148,1671.950 212.333,1672.267"/>
      <polygon points="393.453,1671.835 394.273,1671.016 394.573,1669.896 394.273,1668.777 393.453,1667.957 392.333,1667.657 391.214,1667.957 390.394,1668.777 390.094,1669.896 390.394,1671.016 391.214,1671.835 392.333,1672.135"/>
      <polygon points="413.333,1671.628 414.065,1670.896 414.333,1669.896 414.065,1668.896 413.333,1668.164 412.333,1667.896 411.333,1668.164 410.601,1668.896 410.333,1669.896 410.601,1670.896 411.333,1671.628 412.333,1671.896"/>
      <polygon points="433.333,1671.628 434.065,1670.896 434.333,1669.896 434.065,1668.896 433.333,1668.164 432.333,1667.896 431.333,1668.164 430.601,1668.896 430.333,1669.896 430.601,1670.896 431.333,1671.628 432.333,1671.896"/>
      <polygon points="193.333,1671.628 194.065,1670.896 194.333,1669.896 194.065,1668.896 193.333,1668.164 192.333,1667.896 191.333,1668.164 190.601,1668.896 190.333,1669.896 190.601,1670.896 191.333,1671.628 192.333,1671.896"/>
      <polygon points="173.333,1671.628 174.065,1670.896 174.333,1669.896 174.065,1668.896 173.333,1668.164 172.333,1667.896 171.333,1668.164 170.601,1668.896 170.333,1669.896 170.601,1670.896 171.333,1671.628 172.333,1671.896"/>
      <polygon points="153.333,1671.628 154.065,1670.896 154.333,1669.896 154.065,1668.896 153.333,1668.164 152.333,1667.896 151.333,1668.164 151.060,1668.438 151.060,1671.355 151.333,1671.628 152.333,1671.896"/>
    </g>
    <g stroke="#EF6C00" stroke-width="0.4" fill="none">
    </g>
  </g>
  <g stroke="#000000" stroke-width="0.4">
    <line x1="500.000" y1="1000.000" x2="1500.000" y2="1000.000"/>
  </g>
  <g stroke="#000000" stroke-width="0.4">
    <line x1="1000.000" y1="500.000" x2="1000.000" y2="1500.000"/>
  </g>
  <circle cx="1000.000" cy="1000.000" r="1000.000" stroke="red" stroke-width="1" fill="none"/>
  </g>
</svg>
