<?xml version="1.0" encoding="UTF-8"?>
<svg xmlns="http://www.w3.org/2000/svg" version="1.1" width="2000" height="2000">
  <g fill="none" stroke-linecap="round" stroke-linejoin="round">
  <text x="10" y="20" font-size="24" fill="#555">Layer 278 Z=67.600 mm</text>
  <g transform="translate(700.000,-602.229)">
    <g stroke="#2E7D32" stroke-width="0.4">
      <line x1="228.046" y1="1679.230" x2="228.046" y2="1629.230"/>
      <line x1="229.046" y1="1679.230" x2="229.046" y2="1629.230"/>
      <line x1="230.046" y1="1679.230" x2="230.046" y2="1629.230"/>
      <line x1="231.046" y1="1679.230" x2="231.046" y2="1629.230"/>
      <line x1="232.046" y1="1679.230" x2="232.046" y2="1629.230"/>
      <line x1="233.046" y1="1679.230" x2="233.046" y2="1629.230"/>
      <line x1="234.046" y1="1679.230" x2="234.046" y2="1629.230"/>
      <line x1="235.046" y1="1679.230" x2="235.046" y2="1629.230"/>
      <line x1="236.046" y1="1679.230" x2="236.046" y2="1629.230"/>
      <line x1="237.046" y1="1679.230" x2="237.046" y2="1629.230"/>
      <line x1="238.046" y1="1679.230" x2="238.046" y2="1629.230"/>
      <line x1="239.046" y1="1679.230" x2="239.046" y2="1629.230"/>
      <line x1="240.046" y1="1679.230" x2="240.046" y2="1629.230"/>
      <line x1="241.046" y1="1679.230" x2="241.046" y2="1629.230"/>
      <line x1="242.046" y1="1679.230" x2="242.046" y2="1629.230"/>
      <line x1="243.046" y1="1679.230" x2="243.046" y2="1629.230"/>
      <line x1="244.046" y1="1679.230" x2="244.046" y2="1629.230"/>
      <line x1="245.046" y1="1679.230" x2="245.046" y2="1629.230"/>
      <line x1="246.046" y1="1679.230" x2="246.046" y2="1629.230"/>
      <line x1="247.046" y1="1679.230" x2="247.046" y2="1629.230"/>
      <line x1="248.046" y1="1679.230" x2="248.046" y2="1629.230"/>
      <line x1="249.046" y1="1679.230" x2="249.046" y2="1629.230"/>
      <line x1="250.046" y1="1679.230" x2="250.046" y2="1629.230"/>
      <line x1="251.046" y1="1679.230" x2="251.046" y2="1629.230"/>
      <line x1="252.046" y1="1679.230" x2="252.046" y2="1629.230"/>
      <line x1="253.046" y1="1679.230" x2="253.046" y2="1629.230"/>
      <line x1="254.046" y1="1679.230" x2="254.046" y2="1629.230"/>
      <line x1="255.046" y1="1679.230" x2="255.046" y2="1629.230"/>
      <line x1="256.046" y1="1679.230" x2="256.046" y2="1629.230"/>
      <line x1="257.046" y1="1679.230" x2="257.046" y2="1629.230"/>
      <line x1="258.046" y1="1679.230" x2="258.046" y2="1629.230"/>
      <line x1="259.046" y1="1679.230" x2="259.046" y2="1629.230"/>
      <line x1="260.046" y1="1679.230" x2="260.046" y2="1629.230"/>
      <line x1="261.046" y1="1679.230" x2="261.046" y2="1629.230"/>
      <line x1="262.046" y1="1679.230" x2="262.046" y2="1629.230"/>
      <line x1="263.046" y1="1679.230" x2="263.046" y2="1629.230"/>
      <line x1="264.046" y1="1679.230" x2="264.046" y2="1629.230"/>
      <line x1="265.046" y1="1679.230" x2="265.046" y2="1629.230"/>
      <line x1="266.046" y1="1679.230" x2="266.046" y2="1629.230"/>
      <line x1="267.046" y1="1679.230" x2="267.046" y2="1629.230"/>
      <line x1="268.046" y1="1679.230" x2="268.046" y2="1629.230"/>
      <line x1="269.046" y1="1679.230" x2="269.046" y2="1629.230"/>
      <line x1="270.046" y1="1679.230" x2="270.046" y2="1629.230"/>
      <line x1="271.046" y1="1679.230" x2="271.046" y2="1629.230"/>
      <line x1="272.046" y1="1679.230" x2="272.046" y2="1629.230"/>
      <line x1="273.046" y1="1679.230" x2="273.046" y2="1629.230"/>
      <line x1="274.046" y1="1679.230" x2="274.046" y2="1629.230"/>
      <line x1="275.046" y1="1679.230" x2="275.046" y2="1629.230"/>
      <line x1="276.046" y1="1679.230" x2="276.046" y2="1629.230"/>
      <line x1="277.046" y1="1679.230" x2="277.046" y2="1629.230"/>
      <line x1="278.046" y1="1679.230" x2="278.046" y2="1629.230"/>
      <line x1="279.046" y1="1679.230" x2="279.046" y2="1629.230"/>
      <line x1="280.046" y1="1679.230" x2="280.046" y2="1629.230"/>
      <line x1="281.046" y1="1679.230" x2="281.046" y2="1629.230"/>
      <line x1="282.046" y1="1679.230" x2="282.046" y2="1629.230"/>
      <line x1="283.046" y1="1679.230" x2="283.046" y2="1629.230"/>
      <line x1="284.046" y1="1679.230" x2="284.046" y2="1629.230"/>
      <line x1="285.046" y1="1679.230" x2="285.046" y2="1629.230"/>
      <line x1="286.046" y1="1679.230" x2="286.046" y2="1629.230"/>
      <line x1="287.046" y1="1679.230" x2="287.046" y2="1629.230"/>
      <line x1="288.046" y1="1679.230" x2="288.046" y2="1629.230"/>
      <line x1="289.046" y1="1679.230" x2="289.046" y2="1629.230"/>
      <line x1="290.046" y1="1679.230" x2="290.046" y2="1629.230"/>
      <line x1="291.046" y1="1679.230" x2="291.046" y2="1629.230"/>
      <line x1="292.046" y1="1679.230" x2="292.046" y2="1629.230"/>
      <line x1="293.046" y1="1679.230" x2="293.046" y2="1629.230"/>
      <line x1="294.046" y1="1679.230" x2="294.046" y2="1629.230"/>
      <line x1="295.046" y1="1679.230" x2="295.046" y2="1629.230"/>
      <line x1="296.046" y1="1679.230" x2="296.046" y2="1629.230"/>
      <line x1="297.046" y1="1679.230" x2="297.046" y2="1629.230"/>
      <line x1="298.046" y1="1679.230" x2="298.046" y2="1629.230"/>
      <line x1="299.046" y1="1679.230" x2="299.046" y2="1629.230"/>
      <line x1="300.046" y1="1679.230" x2="300.046" y2="1629.230"/>
      <line x1="301.046" y1="1679.230" x2="301.046" y2="1629.230"/>
      <line x1="302.046" y1="1679.230" x2="302.046" y2="1629.230"/>
      <line x1="303.046" y1="1679.230" x2="303.046" y2="1629.230"/>
      <line x1="304.046" y1="1679.230" x2="304.046" y2="1629.230"/>
      <line x1="305.046" y1="1679.230" x2="305.046" y2="1629.230"/>
      <line x1="306.046" y1="1679.230" x2="306.046" y2="1629.230"/>
      <line x1="307.046" y1="1679.230" x2="307.046" y2="1629.230"/>
      <line x1="308.046" y1="1679.230" x2="308.046" y2="1629.230"/>
      <line x1="309.046" y1="1679.230" x2="309.046" y2="1629.230"/>
      <line x1="310.046" y1="1679.230" x2="310.046" y2="1629.230"/>
      <line x1="311.046" y1="1679.230" x2="311.046" y2="1629.230"/>
      <line x1="312.046" y1="1679.230" x2="312.046" y2="1629.230"/>
      <line x1="313.046" y1="1679.230" x2="313.046" y2="1629.230"/>
      <line x1="314.046" y1="1679.230" x2="314.046" y2="1629.230"/>
      <line x1="315.046" y1="1679.230" x2="315.046" y2="1629.230"/>
      <line x1="316.046" y1="1679.230" x2="316.046" y2="1629.230"/>
      <line x1="317.046" y1="1679.230" x2="317.046" y2="1629.230"/>
      <line x1="318.046" y1="1679.230" x2="318.046" y2="1629.230"/>
      <line x1="319.046" y1="1679.230" x2="319.046" y2="1629.230"/>
      <line x1="320.046" y1="1679.230" x2="320.046" y2="1629.230"/>
      <line x1="321.046" y1="1679.230" x2="321.046" y2="1629.230"/>
      <line x1="322.046" y1="1679.230" x2="322.046" y2="1629.230"/>
      <line x1="323.046" y1="1679.230" x2="323.046" y2="1629.230"/>
      <line x1="324.046" y1="1679.230" x2="324.046" y2="1629.230"/>
      <line x1="325.046" y1="1679.230" x2="325.046" y2="1629.230"/>
      <line x1="326.046" y1="1679.230" x2="326.046" y2="1629.230"/>
      <line x1="327.046" y1="1679.230" x2="327.046" y2="1629.230"/>
      <line x1="328.046" y1="1679.230" x2="328.046" y2="1629.230"/>
      <line x1="329.046" y1="1679.230" x2="329.046" y2="1629.230"/>
      <line x1="330.046" y1="1679.230" x2="330.046" y2="1629.230"/>
      <line x1="331.046" y1="1679.230" x2="331.046" y2="1629.230"/>
      <line x1="332.046" y1="1679.230" x2="332.046" y2="1629.230"/>
      <line x1="333.046" y1="1679.230" x2="333.046" y2="1629.230"/>
      <line x1="334.046" y1="1679.230" x2="334.046" y2="1629.230"/>
      <line x1="335.046" y1="1679.230" x2="335.046" y2="1629.230"/>
      <line x1="336.046" y1="1679.230" x2="336.046" y2="1629.230"/>
      <line x1="337.046" y1="1679.230" x2="337.046" y2="1629.230"/>
      <line x1="338.046" y1="1679.230" x2="338.046" y2="1629.230"/>
      <line x1="339.046" y1="1679.230" x2="339.046" y2="1629.230"/>
      <line x1="340.046" y1="1679.230" x2="340.046" y2="1629.230"/>
      <line x1="341.046" y1="1679.230" x2="341.046" y2="1629.230"/>
      <line x1="342.046" y1="1679.230" x2="342.046" y2="1629.230"/>
      <line x1="343.046" y1="1679.230" x2="343.046" y2="1629.230"/>
      <line x1="344.046" y1="1679.230" x2="344.046" y2="1629.230"/>
      <line x1="345.046" y1="1679.230" x2="345.046" y2="1629.230"/>
      <line x1="346.046" y1="1679.230" x2="346.046" y2="1629.230"/>
      <line x1="347.046" y1="1679.230" x2="347.046" y2="1629.230"/>
      <line x1="348.046" y1="1679.230" x2="348.046" y2="1629.230"/>
      <line x1="349.046" y1="1679.230" x2="349.046" y2="1629.230"/>
      <line x1="350.046" y1="1679.230" x2="350.046" y2="1629.230"/>
      <line x1="351.046" y1="1679.230" x2="351.046" y2="1629.230"/>
      <line x1="352.046" y1="1679.230" x2="352.046" y2="1629.230"/>
      <line x1="353.046" y1="1679.230" x2="353.046" y2="1629.230"/>
      <line x1="354.046" y1="1679.230" x2="354.046" y2="1629.230"/>
      <line x1="355.046" y1="1679.230" x2="355.046" y2="1629.230"/>
      <line x1="356.046" y1="1679.230" x2="356.046" y2="1629.230"/>
      <line x1="357.046" y1="1679.230" x2="357.046" y2="1629.230"/>
      <line x1="358.046" y1="1679.230" x2="358.046" y2="1629.230"/>
      <line x1="359.046" y1="1679.230" x2="359.046" y2="1629.230"/>
      <line x1="360.046" y1="1679.230" x2="360.046" y2="1629.230"/>
      <line x1="361.046" y1="1679.230" x2="361.046" y2="1629.230"/>
      <line x1="362.046" y1="1679.230" x2="362.046" y2="1629.230"/>
      <line x1="363.046" y1="1679.230" x2="363.046" y2="1629.230"/>
      <line x1="364.046" y1="1679.230" x2="364.046" y2="1629.230"/>
      <line x1="365.046" y1="1679.230" x2="365.046" y2="1629.230"/>
      <line x1="366.046" y1="1679.230" x2="366.046" y2="1629.230"/>
      <line x1="367.046" y1="1679.230" x2="367.046" y2="1629.230"/>
      <line x1="368.046" y1="1679.230" x2="368.046" y2="1629.230"/>
      <line x1="369.046" y1="1679.230" x2="369.046" y2="1629.230"/>
      <line x1="370.046" y1="1679.230" x2="370.046" y2="1629.230"/>
      <line x1="371.046" y1="1679.230" x2="371.046" y2="1629.230"/>
      <line x1="372.046" y1="1679.230" x2="372.046" y2="1629.230"/>
      <line x1="228.046" y1="1629.130" x2="228.046" y2="1579.130"/>
      <line x1="229.046" y1="1629.130" x2="229.046" y2="1579.130"/>
      <line x1="230.046" y1="1629.130" x2="230.046" y2="1579.130"/>
      <line x1="231.046" y1="1629.130" x2="231.046" y2="1579.130"/>
      <line x1="232.046" y1="1629.130" x2="232.046" y2="1579.130"/>
      <line x1="233.046" y1="1629.130" x2="233.046" y2="1579.130"/>
      <line x1="234.046" y1="1629.130" x2="234.046" y2="1579.130"/>
      <line x1="235.046" y1="1629.130" x2="235.046" y2="1579.130"/>
      <line x1="236.046" y1="1629.130" x2="236.046" y2="1579.130"/>
      <line x1="237.046" y1="1629.130" x2="237.046" y2="1579.130"/>
      <line x1="238.046" y1="1629.130" x2="238.046" y2="1579.130"/>
      <line x1="239.046" y1="1629.130" x2="239.046" y2="1579.130"/>
      <line x1="240.046" y1="1629.130" x2="240.046" y2="1579.130"/>
      <line x1="241.046" y1="1629.130" x2="241.046" y2="1579.130"/>
      <line x1="242.046" y1="1629.130" x2="242.046" y2="1579.130"/>
      <line x1="243.046" y1="1629.130" x2="243.046" y2="1579.130"/>
      <line x1="244.046" y1="1629.130" x2="244.046" y2="1579.130"/>
      <line x1="245.046" y1="1629.130" x2="245.046" y2="1579.130"/>
      <line x1="246.046" y1="1629.130" x2="246.046" y2="1579.130"/>
      <line x1="247.046" y1="1629.130" x2="247.046" y2="1579.130"/>
      <line x1="248.046" y1="1629.130" x2="248.046" y2="1579.130"/>
      <line x1="249.046" y1="1629.130" x2="249.046" y2="1579.130"/>
      <line x1="250.046" y1="1629.130" x2="250.046" y2="1579.130"/>
      <line x1="251.046" y1="1629.130" x2="251.046" y2="1579.130"/>
      <line x1="252.046" y1="1629.130" x2="252.046" y2="1579.130"/>
      <line x1="253.046" y1="1629.130" x2="253.046" y2="1579.130"/>
      <line x1="254.046" y1="1629.130" x2="254.046" y2="1579.130"/>
      <line x1="255.046" y1="1629.130" x2="255.046" y2="1579.130"/>
      <line x1="256.046" y1="1629.130" x2="256.046" y2="1579.130"/>
      <line x1="257.046" y1="1629.130" x2="257.046" y2="1579.130"/>
      <line x1="258.046" y1="1629.130" x2="258.046" y2="1579.130"/>
      <line x1="259.046" y1="1629.130" x2="259.046" y2="1579.130"/>
      <line x1="260.046" y1="1629.130" x2="260.046" y2="1579.130"/>
      <line x1="261.046" y1="1629.130" x2="261.046" y2="1579.130"/>
      <line x1="262.046" y1="1629.130" x2="262.046" y2="1579.130"/>
      <line x1="263.046" y1="1629.130" x2="263.046" y2="1579.130"/>
      <line x1="264.046" y1="1629.130" x2="264.046" y2="1579.130"/>
      <line x1="265.046" y1="1629.130" x2="265.046" y2="1579.130"/>
      <line x1="266.046" y1="1629.130" x2="266.046" y2="1579.130"/>
      <line x1="267.046" y1="1629.130" x2="267.046" y2="1579.130"/>
      <line x1="268.046" y1="1629.130" x2="268.046" y2="1579.130"/>
      <line x1="269.046" y1="1629.130" x2="269.046" y2="1579.130"/>
      <line x1="270.046" y1="1629.130" x2="270.046" y2="1579.130"/>
      <line x1="271.046" y1="1629.130" x2="271.046" y2="1579.130"/>
      <line x1="272.046" y1="1629.130" x2="272.046" y2="1579.130"/>
      <line x1="273.046" y1="1629.130" x2="273.046" y2="1579.130"/>
      <line x1="274.046" y1="1629.130" x2="274.046" y2="1579.130"/>
      <line x1="275.046" y1="1629.130" x2="275.046" y2="1579.130"/>
      <line x1="276.046" y1="1629.130" x2="276.046" y2="1579.130"/>
      <line x1="277.046" y1="1629.130" x2="277.046" y2="1579.130"/>
      <line x1="278.046" y1="1629.130" x2="278.046" y2="1579.130"/>
      <line x1="279.046" y1="1629.130" x2="279.046" y2="1579.130"/>
      <line x1="280.046" y1="1629.130" x2="280.046" y2="1579.130"/>
      <line x1="281.046" y1="1629.130" x2="281.046" y2="1579.130"/>
      <line x1="282.046" y1="1629.130" x2="282.046" y2="1579.130"/>
      <line x1="283.046" y1="1629.130" x2="283.046" y2="1579.130"/>
      <line x1="284.046" y1="1629.130" x2="284.046" y2="1579.130"/>
      <line x1="285.046" y1="1629.130" x2="285.046" y2="1579.130"/>
      <line x1="286.046" y1="1629.130" x2="286.046" y2="1579.130"/>
      <line x1="287.046" y1="1629.130" x2="287.046" y2="1579.130"/>
      <line x1="288.046" y1="1629.130" x2="288.046" y2="1579.130"/>
      <line x1="289.046" y1="1629.130" x2="289.046" y2="1579.130"/>
      <line x1="290.046" y1="1629.130" x2="290.046" y2="1579.130"/>
      <line x1="291.046" y1="1629.130" x2="291.046" y2="1579.130"/>
      <line x1="292.046" y1="1629.130" x2="292.046" y2="1579.130"/>
      <line x1="293.046" y1="1629.130" x2="293.046" y2="1579.130"/>
      <line x1="294.046" y1="1629.130" x2="294.046" y2="1579.130"/>
      <line x1="295.046" y1="1629.130" x2="295.046" y2="1579.130"/>
      <line x1="296.046" y1="1629.130" x2="296.046" y2="1579.130"/>
      <line x1="297.046" y1="1629.130" x2="297.046" y2="1579.130"/>
      <line x1="298.046" y1="1629.130" x2="298.046" y2="1579.130"/>
      <line x1="299.046" y1="1629.130" x2="299.046" y2="1579.130"/>
      <line x1="300.046" y1="1629.130" x2="300.046" y2="1579.130"/>
      <line x1="301.046" y1="1629.130" x2="301.046" y2="1579.130"/>
      <line x1="302.046" y1="1629.130" x2="302.046" y2="1579.130"/>
      <line x1="303.046" y1="1629.130" x2="303.046" y2="1579.130"/>
      <line x1="304.046" y1="1629.130" x2="304.046" y2="1579.130"/>
      <line x1="305.046" y1="1629.130" x2="305.046" y2="1579.130"/>
      <line x1="306.046" y1="1629.130" x2="306.046" y2="1579.130"/>
      <line x1="307.046" y1="1629.130" x2="307.046" y2="1579.130"/>
      <line x1="308.046" y1="1629.130" x2="308.046" y2="1579.130"/>
      <line x1="309.046" y1="1629.130" x2="309.046" y2="1579.130"/>
      <line x1="310.046" y1="1629.130" x2="310.046" y2="1579.130"/>
      <line x1="311.046" y1="1629.130" x2="311.046" y2="1579.130"/>
      <line x1="312.046" y1="1629.130" x2="312.046" y2="1579.130"/>
      <line x1="313.046" y1="1629.130" x2="313.046" y2="1579.130"/>
      <line x1="314.046" y1="1629.130" x2="314.046" y2="1579.130"/>
      <line x1="315.046" y1="1629.130" x2="315.046" y2="1579.130"/>
      <line x1="316.046" y1="1629.130" x2="316.046" y2="1579.130"/>
      <line x1="317.046" y1="1629.130" x2="317.046" y2="1579.130"/>
      <line x1="318.046" y1="1629.130" x2="318.046" y2="1579.130"/>
      <line x1="319.046" y1="1629.130" x2="319.046" y2="1579.130"/>
      <line x1="320.046" y1="1629.130" x2="320.046" y2="1579.130"/>
      <line x1="321.046" y1="1629.130" x2="321.046" y2="1579.130"/>
      <line x1="322.046" y1="1629.130" x2="322.046" y2="1579.130"/>
      <line x1="323.046" y1="1629.130" x2="323.046" y2="1579.130"/>
      <line x1="324.046" y1="1629.130" x2="324.046" y2="1579.130"/>
      <line x1="325.046" y1="1629.130" x2="325.046" y2="1579.130"/>
      <line x1="326.046" y1="1629.130" x2="326.046" y2="1579.130"/>
      <line x1="327.046" y1="1629.130" x2="327.046" y2="1579.130"/>
      <line x1="328.046" y1="1629.130" x2="328.046" y2="1579.130"/>
      <line x1="329.046" y1="1629.130" x2="329.046" y2="1579.130"/>
      <line x1="330.046" y1="1629.130" x2="330.046" y2="1579.130"/>
      <line x1="331.046" y1="1629.130" x2="331.046" y2="1579.130"/>
      <line x1="332.046" y1="1629.130" x2="332.046" y2="1579.130"/>
      <line x1="333.046" y1="1629.130" x2="333.046" y2="1579.130"/>
      <line x1="334.046" y1="1629.130" x2="334.046" y2="1579.130"/>
      <line x1="335.046" y1="1629.130" x2="335.046" y2="1579.130"/>
      <line x1="336.046" y1="1629.130" x2="336.046" y2="1579.130"/>
      <line x1="337.046" y1="1629.130" x2="337.046" y2="1579.130"/>
      <line x1="338.046" y1="1629.130" x2="338.046" y2="1579.130"/>
      <line x1="339.046" y1="1629.130" x2="339.046" y2="1579.130"/>
      <line x1="340.046" y1="1629.130" x2="340.046" y2="1579.130"/>
      <line x1="341.046" y1="1629.130" x2="341.046" y2="1579.130"/>
      <line x1="342.046" y1="1629.130" x2="342.046" y2="1579.130"/>
      <line x1="343.046" y1="1629.130" x2="343.046" y2="1579.130"/>
      <line x1="344.046" y1="1629.130" x2="344.046" y2="1579.130"/>
      <line x1="345.046" y1="1629.130" x2="345.046" y2="1579.130"/>
      <line x1="346.046" y1="1629.130" x2="346.046" y2="1579.130"/>
      <line x1="347.046" y1="1629.130" x2="347.046" y2="1579.130"/>
      <line x1="348.046" y1="1629.130" x2="348.046" y2="1579.130"/>
      <line x1="349.046" y1="1629.130" x2="349.046" y2="1579.130"/>
      <line x1="350.046" y1="1629.130" x2="350.046" y2="1579.130"/>
      <line x1="351.046" y1="1629.130" x2="351.046" y2="1579.130"/>
      <line x1="352.046" y1="1629.130" x2="352.046" y2="1579.130"/>
      <line x1="353.046" y1="1629.130" x2="353.046" y2="1579.130"/>
      <line x1="354.046" y1="1629.130" x2="354.046" y2="1579.130"/>
      <line x1="355.046" y1="1629.130" x2="355.046" y2="1579.130"/>
      <line x1="356.046" y1="1629.130" x2="356.046" y2="1579.130"/>
      <line x1="357.046" y1="1629.130" x2="357.046" y2="1579.130"/>
      <line x1="358.046" y1="1629.130" x2="358.046" y2="1579.130"/>
      <line x1="359.046" y1="1629.130" x2="359.046" y2="1579.130"/>
      <line x1="360.046" y1="1629.130" x2="360.046" y2="1579.130"/>
      <line x1="361.046" y1="1629.130" x2="361.046" y2="1579.130"/>
      <line x1="362.046" y1="1629.130" x2="362.046" y2="1579.130"/>
      <line x1="363.046" y1="1629.130" x2="363.046" y2="1579.130"/>
      <line x1="364.046" y1="1629.130" x2="364.046" y2="1579.130"/>
      <line x1="365.046" y1="1629.130" x2="365.046" y2="1579.130"/>
      <line x1="366.046" y1="1629.130" x2="366.046" y2="1579.130"/>
      <line x1="367.046" y1="1629.130" x2="367.046" y2="1579.130"/>
      <line x1="368.046" y1="1629.130" x2="368.046" y2="1579.130"/>
      <line x1="369.046" y1="1629.130" x2="369.046" y2="1579.130"/>
      <line x1="370.046" y1="1629.130" x2="370.046" y2="1579.130"/>
      <line x1="371.046" y1="1629.130" x2="371.046" y2="1579.130"/>
      <line x1="372.046" y1="1629.130" x2="372.046" y2="1579.130"/>
      <line x1="228.046" y1="1579.030" x2="228.046" y2="1529.030"/>
      <line x1="229.046" y1="1579.030" x2="229.046" y2="1529.030"/>
      <line x1="230.046" y1="1579.030" x2="230.046" y2="1529.030"/>
      <line x1="231.046" y1="1579.030" x2="231.046" y2="1529.030"/>
      <line x1="232.046" y1="1579.030" x2="232.046" y2="1529.030"/>
      <line x1="233.046" y1="1579.030" x2="233.046" y2="1529.030"/>
      <line x1="234.046" y1="1579.030" x2="234.046" y2="1529.030"/>
      <line x1="235.046" y1="1579.030" x2="235.046" y2="1529.030"/>
      <line x1="236.046" y1="1579.030" x2="236.046" y2="1529.030"/>
      <line x1="237.046" y1="1579.030" x2="237.046" y2="1529.030"/>
      <line x1="238.046" y1="1579.030" x2="238.046" y2="1529.030"/>
      <line x1="239.046" y1="1579.030" x2="239.046" y2="1529.030"/>
      <line x1="240.046" y1="1579.030" x2="240.046" y2="1529.030"/>
      <line x1="241.046" y1="1579.030" x2="241.046" y2="1529.030"/>
      <line x1="242.046" y1="1579.030" x2="242.046" y2="1529.030"/>
      <line x1="243.046" y1="1579.030" x2="243.046" y2="1529.030"/>
      <line x1="244.046" y1="1579.030" x2="244.046" y2="1529.030"/>
      <line x1="245.046" y1="1579.030" x2="245.046" y2="1529.030"/>
      <line x1="246.046" y1="1579.030" x2="246.046" y2="1529.030"/>
      <line x1="247.046" y1="1579.030" x2="247.046" y2="1529.030"/>
      <line x1="248.046" y1="1579.030" x2="248.046" y2="1529.030"/>
      <line x1="249.046" y1="1579.030" x2="249.046" y2="1529.030"/>
      <line x1="250.046" y1="1579.030" x2="250.046" y2="1529.030"/>
      <line x1="251.046" y1="1579.030" x2="251.046" y2="1529.030"/>
      <line x1="252.046" y1="1579.030" x2="252.046" y2="1529.030"/>
      <line x1="253.046" y1="1579.030" x2="253.046" y2="1529.030"/>
      <line x1="254.046" y1="1579.030" x2="254.046" y2="1529.030"/>
      <line x1="255.046" y1="1579.030" x2="255.046" y2="1529.030"/>
      <line x1="256.046" y1="1579.030" x2="256.046" y2="1529.030"/>
      <line x1="257.046" y1="1579.030" x2="257.046" y2="1529.030"/>
      <line x1="258.046" y1="1579.030" x2="258.046" y2="1529.030"/>
      <line x1="259.046" y1="1579.030" x2="259.046" y2="1529.030"/>
      <line x1="260.046" y1="1579.030" x2="260.046" y2="1529.030"/>
      <line x1="261.046" y1="1579.030" x2="261.046" y2="1529.030"/>
      <line x1="262.046" y1="1579.030" x2="262.046" y2="1529.030"/>
      <line x1="263.046" y1="1579.030" x2="263.046" y2="1529.030"/>
      <line x1="264.046" y1="1579.030" x2="264.046" y2="1529.030"/>
      <line x1="265.046" y1="1579.030" x2="265.046" y2="1529.030"/>
      <line x1="266.046" y1="1579.030" x2="266.046" y2="1529.030"/>
      <line x1="267.046" y1="1579.030" x2="267.046" y2="1529.030"/>
      <line x1="268.046" y1="1579.030" x2="268.046" y2="1529.030"/>
      <line x1="269.046" y1="1579.030" x2="269.046" y2="1529.030"/>
      <line x1="270.046" y1="1579.030" x2="270.046" y2="1529.030"/>
      <line x1="271.046" y1="1579.030" x2="271.046" y2="1529.030"/>
      <line x1="272.046" y1="1579.030" x2="272.046" y2="1529.030"/>
      <line x1="273.046" y1="1579.030" x2="273.046" y2="1529.030"/>
      <line x1="274.046" y1="1579.030" x2="274.046" y2="1529.030"/>
      <line x1="275.046" y1="1579.030" x2="275.046" y2="1529.030"/>
      <line x1="276.046" y1="1579.030" x2="276.046" y2="1529.030"/>
      <line x1="277.046" y1="1579.030" x2="277.046" y2="1529.030"/>
      <line x1="278.046" y1="1579.030" x2="278.046" y2="1529.030"/>
      <line x1="279.046" y1="1579.030" x2="279.046" y2="1529.030"/>
      <line x1="280.046" y1="1579.030" x2="280.046" y2="1529.030"/>
      <line x1="281.046" y1="1579.030" x2="281.046" y2="1529.030"/>
      <line x1="282.046" y1="1579.030" x2="282.046" y2="1529.030"/>
      <line x1="283.046" y1="1579.030" x2="283.046" y2="1529.030"/>
      <line x1="284.046" y1="1579.030" x2="284.046" y2="1529.030"/>
      <line x1="285.046" y1="1579.030" x2="285.046" y2="1529.030"/>
      <line x1="286.046" y1="1579.030" x2="286.046" y2="1529.030"/>
      <line x1="287.046" y1="1579.030" x2="287.046" y2="1529.030"/>
      <line x1="288.046" y1="1579.030" x2="288.046" y2="1529.030"/>
      <line x1="289.046" y1="1579.030" x2="289.046" y2="1529.030"/>
      <line x1="290.046" y1="1579.030" x2="290.046" y2="1529.030"/>
      <line x1="291.046" y1="1579.030" x2="291.046" y2="1529.030"/>
      <line x1="292.046" y1="1579.030" x2="292.046" y2="1529.030"/>
      <line x1="293.046" y1="1579.030" x2="293.046" y2="1529.030"/>
      <line x1="294.046" y1="1579.030" x2="294.046" y2="1529.030"/>
      <line x1="295.046" y1="1579.030" x2="295.046" y2="1529.030"/>
      <line x1="296.046" y1="1579.030" x2="296.046" y2="1529.030"/>
      <line x1="297.046" y1="1579.030" x2="297.046" y2="1529.030"/>
      <line x1="298.046" y1="1579.030" x2="298.046" y2="1529.030"/>
      <line x1="299.046" y1="1579.030" x2="299.046" y2="1529.030"/>
      <line x1="300.046" y1="1579.030" x2="300.046" y2="1529.030"/>
      <line x1="301.046" y1="1579.030" x2="301.046" y2="1529.030"/>
      <line x1="302.046" y1="1579.030" x2="302.046" y2="1529.030"/>
      <line x1="303.046" y1="1579.030" x2="303.046" y2="1529.030"/>
      <line x1="304.046" y1="1579.030" x2="304.046" y2="1529.030"/>
      <line x1="305.046" y1="1579.030" x2="305.046" y2="1529.030"/>
      <line x1="306.046" y1="1579.030" x2="306.046" y2="1529.030"/>
      <line x1="307.046" y1="1579.030" x2="307.046" y2="1529.030"/>
      <line x1="308.046" y1="1579.030" x2="308.046" y2="1529.030"/>
      <line x1="309.046" y1="1579.030" x2="309.046" y2="1529.030"/>
      <line x1="310.046" y1="1579.030" x2="310.046" y2="1529.030"/>
      <line x1="311.046" y1="1579.030" x2="311.046" y2="1529.030"/>
      <line x1="312.046" y1="1579.030" x2="312.046" y2="1529.030"/>
      <line x1="313.046" y1="1579.030" x2="313.046" y2="1529.030"/>
      <line x1="314.046" y1="1579.030" x2="314.046" y2="1529.030"/>
      <line x1="315.046" y1="1579.030" x2="315.046" y2="1529.030"/>
      <line x1="316.046" y1="1579.030" x2="316.046" y2="1529.030"/>
      <line x1="317.046" y1="1579.030" x2="317.046" y2="1529.030"/>
      <line x1="318.046" y1="1579.030" x2="318.046" y2="1529.030"/>
      <line x1="319.046" y1="1579.030" x2="319.046" y2="1529.030"/>
      <line x1="320.046" y1="1579.030" x2="320.046" y2="1529.030"/>
      <line x1="321.046" y1="1579.030" x2="321.046" y2="1529.030"/>
      <line x1="322.046" y1="1579.030" x2="322.046" y2="1529.030"/>
      <line x1="323.046" y1="1579.030" x2="323.046" y2="1529.030"/>
      <line x1="324.046" y1="1579.030" x2="324.046" y2="1529.030"/>
      <line x1="325.046" y1="1579.030" x2="325.046" y2="1529.030"/>
      <line x1="326.046" y1="1579.030" x2="326.046" y2="1529.030"/>
      <line x1="327.046" y1="1579.030" x2="327.046" y2="1529.030"/>
      <line x1="328.046" y1="1579.030" x2="328.046" y2="1529.030"/>
      <line x1="329.046" y1="1579.030" x2="329.046" y2="1529.030"/>
      <line x1="330.046" y1="1579.030" x2="330.046" y2="1529.030"/>
      <line x1="331.046" y1="1579.030" x2="331.046" y2="1529.030"/>
      <line x1="332.046" y1="1579.030" x2="332.046" y2="1529.030"/>
      <line x1="333.046" y1="1579.030" x2="333.046" y2="1529.030"/>
      <line x1="334.046" y1="1579.030" x2="334.046" y2="1529.030"/>
      <line x1="335.046" y1="1579.030" x2="335.046" y2="1529.030"/>
      <line x1="336.046" y1="1579.030" x2="336.046" y2="1529.030"/>
      <line x1="337.046" y1="1579.030" x2="337.046" y2="1529.030"/>
      <line x1="338.046" y1="1579.030" x2="338.046" y2="1529.030"/>
      <line x1="339.046" y1="1579.030" x2="339.046" y2="1529.030"/>
      <line x1="340.046" y1="1579.030" x2="340.046" y2="1529.030"/>
      <line x1="341.046" y1="1579.030" x2="341.046" y2="1529.030"/>
      <line x1="342.046" y1="1579.030" x2="342.046" y2="1529.030"/>
      <line x1="343.046" y1="1579.030" x2="343.046" y2="1529.030"/>
      <line x1="344.046" y1="1579.030" x2="344.046" y2="1529.030"/>
      <line x1="345.046" y1="1579.030" x2="345.046" y2="1529.030"/>
      <line x1="346.046" y1="1579.030" x2="346.046" y2="1529.030"/>
      <line x1="347.046" y1="1579.030" x2="347.046" y2="1529.030"/>
      <line x1="348.046" y1="1579.030" x2="348.046" y2="1529.030"/>
      <line x1="349.046" y1="1579.030" x2="349.046" y2="1529.030"/>
      <line x1="350.046" y1="1579.030" x2="350.046" y2="1529.030"/>
      <line x1="351.046" y1="1579.030" x2="351.046" y2="1529.030"/>
      <line x1="352.046" y1="1579.030" x2="352.046" y2="1529.030"/>
      <line x1="353.046" y1="1579.030" x2="353.046" y2="1529.030"/>
      <line x1="354.046" y1="1579.030" x2="354.046" y2="1529.030"/>
      <line x1="355.046" y1="1579.030" x2="355.046" y2="1529.030"/>
      <line x1="356.046" y1="1579.030" x2="356.046" y2="1529.030"/>
      <line x1="357.046" y1="1579.030" x2="357.046" y2="1529.030"/>
      <line x1="358.046" y1="1579.030" x2="358.046" y2="1529.030"/>
      <line x1="359.046" y1="1579.030" x2="359.046" y2="1529.030"/>
      <line x1="360.046" y1="1579.030" x2="360.046" y2="1529.030"/>
      <line x1="361.046" y1="1579.030" x2="361.046" y2="1529.030"/>
      <line x1="362.046" y1="1579.030" x2="362.046" y2="1529.030"/>
      <line x1="363.046" y1="1579.030" x2="363.046" y2="1529.030"/>
      <line x1="364.046" y1="1579.030" x2="364.046" y2="1529.030"/>
      <line x1="365.046" y1="1579.030" x2="365.046" y2="1529.030"/>
      <line x1="366.046" y1="1579.030" x2="366.046" y2="1529.030"/>
      <line x1="367.046" y1="1579.030" x2="367.046" y2="1529.030"/>
      <line x1="368.046" y1="1579.030" x2="368.046" y2="1529.030"/>
      <line x1="369.046" y1="1579.030" x2="369.046" y2="1529.030"/>
      <line x1="370.046" y1="1579.030" x2="370.046" y2="1529.030"/>
      <line x1="371.046" y1="1579.030" x2="371.046" y2="1529.030"/>
      <line x1="372.046" y1="1579.030" x2="372.046" y2="1529.030"/>
      <line x1="241.046" y1="1528.930" x2="241.046" y2="1525.229"/>
      <line x1="256.046" y1="1528.930" x2="256.046" y2="1525.229"/>
      <line x1="270.046" y1="1528.930" x2="270.046" y2="1525.229"/>
      <line x1="269.046" y1="1528.930" x2="269.046" y2="1525.229"/>
      <line x1="268.046" y1="1528.930" x2="268.046" y2="1525.229"/>
      <line x1="267.046" y1="1528.930" x2="267.046" y2="1525.229"/>
      <line x1="266.046" y1="1528.930" x2="266.046" y2="1525.229"/>
      <line x1="265.046" y1="1528.930" x2="265.046" y2="1525.229"/>
      <line x1="264.046" y1="1528.930" x2="264.046" y2="1525.229"/>
      <line x1="263.046" y1="1528.930" x2="263.046" y2="1525.229"/>
      <line x1="262.046" y1="1528.930" x2="262.046" y2="1525.229"/>
      <line x1="261.046" y1="1528.930" x2="261.046" y2="1525.229"/>
      <line x1="260.046" y1="1528.930" x2="260.046" y2="1525.229"/>
      <line x1="259.046" y1="1528.930" x2="259.046" y2="1525.229"/>
      <line x1="257.046" y1="1528.930" x2="257.046" y2="1525.229"/>
      <line x1="258.046" y1="1528.930" x2="258.046" y2="1525.229"/>
      <line x1="255.046" y1="1528.930" x2="255.046" y2="1525.229"/>
      <line x1="254.046" y1="1528.930" x2="254.046" y2="1525.229"/>
      <line x1="253.046" y1="1528.930" x2="253.046" y2="1525.229"/>
      <line x1="252.046" y1="1528.930" x2="252.046" y2="1525.229"/>
      <line x1="251.046" y1="1528.930" x2="251.046" y2="1525.229"/>
      <line x1="250.046" y1="1528.930" x2="250.046" y2="1525.229"/>
      <line x1="249.046" y1="1528.930" x2="249.046" y2="1525.229"/>
      <line x1="248.046" y1="1528.930" x2="248.046" y2="1525.229"/>
      <line x1="247.046" y1="1528.930" x2="247.046" y2="1525.229"/>
      <line x1="246.046" y1="1528.930" x2="246.046" y2="1525.229"/>
      <line x1="245.046" y1="1528.930" x2="245.046" y2="1525.229"/>
      <line x1="244.046" y1="1528.930" x2="244.046" y2="1525.229"/>
      <line x1="243.046" y1="1528.930" x2="243.046" y2="1525.229"/>
      <line x1="242.046" y1="1528.930" x2="242.046" y2="1525.229"/>
      <line x1="271.046" y1="1528.930" x2="271.046" y2="1525.229"/>
      <line x1="272.046" y1="1528.930" x2="272.046" y2="1525.229"/>
      <line x1="273.046" y1="1528.930" x2="273.046" y2="1525.229"/>
      <line x1="274.046" y1="1528.930" x2="274.046" y2="1525.229"/>
      <line x1="275.046" y1="1528.930" x2="275.046" y2="1525.229"/>
      <line x1="276.046" y1="1528.930" x2="276.046" y2="1525.229"/>
      <line x1="277.046" y1="1528.930" x2="277.046" y2="1525.229"/>
      <line x1="240.046" y1="1528.930" x2="240.046" y2="1525.229"/>
      <line x1="228.046" y1="1528.930" x2="228.046" y2="1525.229"/>
      <line x1="229.046" y1="1528.930" x2="229.046" y2="1525.229"/>
      <line x1="230.046" y1="1528.930" x2="230.046" y2="1525.229"/>
      <line x1="231.046" y1="1528.930" x2="231.046" y2="1525.229"/>
      <line x1="232.046" y1="1528.930" x2="232.046" y2="1525.229"/>
      <line x1="233.046" y1="1528.930" x2="233.046" y2="1525.229"/>
      <line x1="234.046" y1="1528.930" x2="234.046" y2="1525.229"/>
      <line x1="235.046" y1="1528.930" x2="235.046" y2="1525.229"/>
      <line x1="236.046" y1="1528.930" x2="236.046" y2="1525.229"/>
      <line x1="237.046" y1="1528.930" x2="237.046" y2="1525.229"/>
      <line x1="238.046" y1="1528.930" x2="238.046" y2="1525.229"/>
      <line x1="239.046" y1="1528.930" x2="239.046" y2="1525.229"/>
      <line x1="302.046" y1="1528.930" x2="302.046" y2="1525.229"/>
      <line x1="327.046" y1="1528.930" x2="327.046" y2="1525.229"/>
      <line x1="326.046" y1="1528.930" x2="326.046" y2="1525.229"/>
      <line x1="325.046" y1="1528.930" x2="325.046" y2="1525.229"/>
      <line x1="324.046" y1="1528.930" x2="324.046" y2="1525.229"/>
      <line x1="323.046" y1="1528.930" x2="323.046" y2="1525.229"/>
      <line x1="322.046" y1="1528.930" x2="322.046" y2="1525.229"/>
      <line x1="321.046" y1="1528.930" x2="321.046" y2="1525.229"/>
      <line x1="320.046" y1="1528.930" x2="320.046" y2="1525.229"/>
      <line x1="319.046" y1="1528.930" x2="319.046" y2="1525.229"/>
      <line x1="318.046" y1="1528.930" x2="318.046" y2="1525.229"/>
      <line x1="317.046" y1="1528.930" x2="317.046" y2="1525.229"/>
      <line x1="316.046" y1="1528.930" x2="316.046" y2="1525.229"/>
      <line x1="315.046" y1="1528.930" x2="315.046" y2="1525.229"/>
      <line x1="313.046" y1="1528.930" x2="313.046" y2="1525.229"/>
      <line x1="312.046" y1="1528.930" x2="312.046" y2="1525.229"/>
      <line x1="311.046" y1="1528.930" x2="311.046" y2="1525.229"/>
      <line x1="310.046" y1="1528.930" x2="310.046" y2="1525.229"/>
      <line x1="309.046" y1="1528.930" x2="309.046" y2="1525.229"/>
      <line x1="308.046" y1="1528.930" x2="308.046" y2="1525.229"/>
      <line x1="307.046" y1="1528.930" x2="307.046" y2="1525.229"/>
      <line x1="306.046" y1="1528.930" x2="306.046" y2="1525.229"/>
      <line x1="305.046" y1="1528.930" x2="305.046" y2="1525.229"/>
      <line x1="304.046" y1="1528.930" x2="304.046" y2="1525.229"/>
      <line x1="303.046" y1="1528.930" x2="303.046" y2="1525.229"/>
      <line x1="314.046" y1="1528.930" x2="314.046" y2="1525.229"/>
      <line x1="301.046" y1="1528.930" x2="301.046" y2="1525.229"/>
      <line x1="299.046" y1="1528.930" x2="299.046" y2="1525.229"/>
      <line x1="300.046" y1="1528.930" x2="300.046" y2="1525.229"/>
      <line x1="298.046" y1="1528.930" x2="298.046" y2="1525.229"/>
      <line x1="297.046" y1="1528.930" x2="297.046" y2="1525.229"/>
      <line x1="296.046" y1="1528.930" x2="296.046" y2="1525.229"/>
      <line x1="295.046" y1="1528.930" x2="295.046" y2="1525.229"/>
      <line x1="294.046" y1="1528.930" x2="294.046" y2="1525.229"/>
      <line x1="293.046" y1="1528.930" x2="293.046" y2="1525.229"/>
      <line x1="292.046" y1="1528.930" x2="292.046" y2="1525.229"/>
      <line x1="291.046" y1="1528.930" x2="291.046" y2="1525.229"/>
      <line x1="290.046" y1="1528.930" x2="290.046" y2="1525.229"/>
      <line x1="289.046" y1="1528.930" x2="289.046" y2="1525.229"/>
      <line x1="288.046" y1="1528.930" x2="288.046" y2="1525.229"/>
      <line x1="287.046" y1="1528.930" x2="287.046" y2="1525.229"/>
      <line x1="285.046" y1="1528.930" x2="285.046" y2="1525.229"/>
      <line x1="278.046" y1="1528.930" x2="278.046" y2="1525.229"/>
      <line x1="280.046" y1="1528.930" x2="280.046" y2="1525.229"/>
      <line x1="286.046" y1="1528.930" x2="286.046" y2="1525.229"/>
      <line x1="284.046" y1="1528.930" x2="284.046" y2="1525.229"/>
      <line x1="283.046" y1="1528.930" x2="283.046" y2="1525.229"/>
      <line x1="281.046" y1="1528.930" x2="281.046" y2="1525.229"/>
      <line x1="279.046" y1="1528.930" x2="279.046" y2="1525.229"/>
      <line x1="282.046" y1="1528.930" x2="282.046" y2="1525.229"/>
      <line x1="330.046" y1="1528.930" x2="330.046" y2="1525.229"/>
      <line x1="329.046" y1="1528.930" x2="329.046" y2="1525.229"/>
      <line x1="328.046" y1="1528.930" x2="328.046" y2="1525.229"/>
      <line x1="345.046" y1="1528.930" x2="345.046" y2="1525.229"/>
      <line x1="359.046" y1="1528.930" x2="359.046" y2="1525.229"/>
      <line x1="358.046" y1="1528.930" x2="358.046" y2="1525.229"/>
      <line x1="357.046" y1="1528.930" x2="357.046" y2="1525.229"/>
      <line x1="356.046" y1="1528.930" x2="356.046" y2="1525.229"/>
      <line x1="355.046" y1="1528.930" x2="355.046" y2="1525.229"/>
      <line x1="354.046" y1="1528.930" x2="354.046" y2="1525.229"/>
      <line x1="353.046" y1="1528.930" x2="353.046" y2="1525.229"/>
      <line x1="352.046" y1="1528.930" x2="352.046" y2="1525.229"/>
      <line x1="351.046" y1="1528.930" x2="351.046" y2="1525.229"/>
      <line x1="350.046" y1="1528.930" x2="350.046" y2="1525.229"/>
      <line x1="349.046" y1="1528.930" x2="349.046" y2="1525.229"/>
      <line x1="348.046" y1="1528.930" x2="348.046" y2="1525.229"/>
      <line x1="347.046" y1="1528.930" x2="347.046" y2="1525.229"/>
      <line x1="346.046" y1="1528.930" x2="346.046" y2="1525.229"/>
      <line x1="331.046" y1="1528.930" x2="331.046" y2="1525.229"/>
      <line x1="344.046" y1="1528.930" x2="344.046" y2="1525.229"/>
      <line x1="343.046" y1="1528.930" x2="343.046" y2="1525.229"/>
      <line x1="342.046" y1="1528.930" x2="342.046" y2="1525.229"/>
      <line x1="341.046" y1="1528.930" x2="341.046" y2="1525.229"/>
      <line x1="340.046" y1="1528.930" x2="340.046" y2="1525.229"/>
      <line x1="339.046" y1="1528.930" x2="339.046" y2="1525.229"/>
      <line x1="338.046" y1="1528.930" x2="338.046" y2="1525.229"/>
      <line x1="337.046" y1="1528.930" x2="337.046" y2="1525.229"/>
      <line x1="336.046" y1="1528.930" x2="336.046" y2="1525.229"/>
      <line x1="335.046" y1="1528.930" x2="335.046" y2="1525.229"/>
      <line x1="334.046" y1="1528.930" x2="334.046" y2="1525.229"/>
      <line x1="333.046" y1="1528.930" x2="333.046" y2="1525.229"/>
      <line x1="332.046" y1="1528.930" x2="332.046" y2="1525.229"/>
      <line x1="360.046" y1="1528.930" x2="360.046" y2="1525.229"/>
      <line x1="372.046" y1="1528.930" x2="372.046" y2="1525.229"/>
      <line x1="371.046" y1="1528.930" x2="371.046" y2="1525.229"/>
      <line x1="370.046" y1="1528.930" x2="370.046" y2="1525.229"/>
      <line x1="369.046" y1="1528.930" x2="369.046" y2="1525.229"/>
      <line x1="368.046" y1="1528.930" x2="368.046" y2="1525.229"/>
      <line x1="367.046" y1="1528.930" x2="367.046" y2="1525.229"/>
      <line x1="366.046" y1="1528.930" x2="366.046" y2="1525.229"/>
      <line x1="365.046" y1="1528.930" x2="365.046" y2="1525.229"/>
      <line x1="364.046" y1="1528.930" x2="364.046" y2="1525.229"/>
      <line x1="363.046" y1="1528.930" x2="363.046" y2="1525.229"/>
      <line x1="362.046" y1="1528.930" x2="362.046" y2="1525.229"/>
      <line x1="361.046" y1="1528.930" x2="361.046" y2="1525.229"/>
    </g>
    <g stroke="#1976D2" stroke-width="0.4">
      <polyline points="376.366,1521.729 223.634,1521.729 223.634,1682.729 376.366,1682.729 376.366,1521.729" fill="none"/>
      <polyline points="375.366,1522.729 224.634,1522.729 224.634,1681.730 375.366,1681.730 375.366,1522.729" fill="none"/>
      <polyline points="374.366,1523.729 225.634,1523.729 225.634,1680.730 374.366,1680.730 374.366,1523.729" fill="none"/>
      <polyline points="373.366,1524.729 226.634,1524.729 226.634,1679.729 373.366,1679.729 373.366,1524.729" fill="none"/>
    </g>
    <g stroke="#C62828" stroke-width="0.4" fill="none">
    </g>
    <g stroke="#EF6C00" stroke-width="0.4" fill="none">
    </g>
  </g>
  <g stroke="#000000" stroke-width="0.4">
    <line x1="500.000" y1="1000.000" x2="1500.000" y2="1000.000"/>
  </g>
  <g stroke="#000000" stroke-width="0.4">
    <line x1="1000.000" y1="500.000" x2="1000.000" y2="1500.000"/>
  </g>
  <circle cx="1000.000" cy="1000.000" r="1000.000" stroke="red" stroke-width="1" fill="none"/>
  </g>
</svg>
