<?xml version="1.0" encoding="UTF-8"?>
<svg xmlns="http://www.w3.org/2000/svg" version="1.1" width="2000" height="2000">
  <g fill="none" stroke-linecap="round" stroke-linejoin="round">
  <text x="10" y="20" font-size="24" fill="#555">Layer 235 Z=59.000 mm</text>
  <g transform="translate(700.000,-602.229)">
    <g stroke="#2E7D32" stroke-width="0.4">
      <line x1="100.286" y1="1629.330" x2="50.286" y2="1629.330"/>
      <line x1="100.286" y1="1630.330" x2="50.286" y2="1630.330"/>
      <line x1="100.286" y1="1631.330" x2="50.286" y2="1631.330"/>
      <line x1="100.286" y1="1632.330" x2="50.286" y2="1632.330"/>
      <line x1="100.286" y1="1633.330" x2="50.286" y2="1633.330"/>
      <line x1="100.286" y1="1634.330" x2="50.286" y2="1634.330"/>
      <line x1="100.286" y1="1635.330" x2="50.286" y2="1635.330"/>
      <line x1="100.286" y1="1636.330" x2="50.286" y2="1636.330"/>
      <line x1="100.286" y1="1637.330" x2="50.286" y2="1637.330"/>
      <line x1="100.286" y1="1638.330" x2="50.286" y2="1638.330"/>
      <line x1="100.286" y1="1639.330" x2="50.286" y2="1639.330"/>
      <line x1="100.286" y1="1640.330" x2="50.286" y2="1640.330"/>
      <line x1="100.286" y1="1641.330" x2="50.286" y2="1641.330"/>
      <line x1="100.286" y1="1642.330" x2="50.286" y2="1642.330"/>
      <line x1="100.286" y1="1643.330" x2="50.286" y2="1643.330"/>
      <line x1="100.286" y1="1644.330" x2="50.286" y2="1644.330"/>
      <line x1="100.286" y1="1645.330" x2="50.286" y2="1645.330"/>
      <line x1="100.286" y1="1646.330" x2="50.286" y2="1646.330"/>
      <line x1="100.286" y1="1647.330" x2="50.286" y2="1647.330"/>
      <line x1="100.286" y1="1648.330" x2="50.286" y2="1648.330"/>
      <line x1="100.286" y1="1649.330" x2="50.286" y2="1649.330"/>
      <line x1="100.286" y1="1650.330" x2="50.286" y2="1650.330"/>
      <line x1="100.286" y1="1651.330" x2="50.286" y2="1651.330"/>
      <line x1="100.286" y1="1652.330" x2="50.286" y2="1652.330"/>
      <line x1="100.286" y1="1653.330" x2="50.286" y2="1653.330"/>
      <line x1="100.286" y1="1654.330" x2="50.286" y2="1654.330"/>
      <line x1="100.286" y1="1655.330" x2="50.286" y2="1655.330"/>
      <line x1="100.286" y1="1656.330" x2="50.286" y2="1656.330"/>
      <line x1="100.286" y1="1657.330" x2="50.286" y2="1657.330"/>
      <line x1="100.286" y1="1658.330" x2="50.286" y2="1658.330"/>
      <line x1="100.286" y1="1659.330" x2="50.286" y2="1659.330"/>
      <line x1="100.286" y1="1660.330" x2="50.286" y2="1660.330"/>
      <line x1="100.286" y1="1661.330" x2="50.286" y2="1661.330"/>
      <line x1="100.286" y1="1662.330" x2="50.286" y2="1662.330"/>
      <line x1="100.286" y1="1663.330" x2="50.286" y2="1663.330"/>
      <line x1="100.286" y1="1664.330" x2="50.286" y2="1664.330"/>
      <line x1="100.286" y1="1665.330" x2="50.286" y2="1665.330"/>
      <line x1="100.286" y1="1666.330" x2="50.286" y2="1666.330"/>
      <line x1="100.286" y1="1667.330" x2="50.286" y2="1667.330"/>
      <line x1="100.286" y1="1668.330" x2="50.286" y2="1668.330"/>
      <line x1="100.286" y1="1669.330" x2="50.286" y2="1669.330"/>
      <line x1="100.286" y1="1670.330" x2="50.286" y2="1670.330"/>
      <line x1="100.286" y1="1671.330" x2="50.286" y2="1671.330"/>
      <line x1="100.286" y1="1672.330" x2="50.286" y2="1672.330"/>
      <line x1="100.286" y1="1673.330" x2="50.286" y2="1673.330"/>
      <line x1="100.286" y1="1674.330" x2="50.286" y2="1674.330"/>
      <line x1="100.286" y1="1675.330" x2="50.286" y2="1675.330"/>
      <line x1="100.286" y1="1676.330" x2="50.286" y2="1676.330"/>
      <line x1="100.286" y1="1677.330" x2="50.286" y2="1677.330"/>
      <line x1="100.286" y1="1678.330" x2="50.286" y2="1678.330"/>
      <line x1="150.386" y1="1629.330" x2="100.386" y2="1629.330"/>
      <line x1="150.386" y1="1630.330" x2="100.386" y2="1630.330"/>
      <line x1="150.386" y1="1631.330" x2="100.386" y2="1631.330"/>
      <line x1="150.386" y1="1632.330" x2="100.386" y2="1632.330"/>
      <line x1="150.386" y1="1633.330" x2="100.386" y2="1633.330"/>
      <line x1="150.386" y1="1634.330" x2="100.386" y2="1634.330"/>
      <line x1="150.386" y1="1635.330" x2="100.386" y2="1635.330"/>
      <line x1="150.386" y1="1636.330" x2="100.386" y2="1636.330"/>
      <line x1="150.386" y1="1637.330" x2="100.386" y2="1637.330"/>
      <line x1="150.386" y1="1638.330" x2="100.386" y2="1638.330"/>
      <line x1="150.386" y1="1639.330" x2="100.386" y2="1639.330"/>
      <line x1="150.386" y1="1640.330" x2="100.386" y2="1640.330"/>
      <line x1="150.386" y1="1641.330" x2="100.386" y2="1641.330"/>
      <line x1="150.386" y1="1642.330" x2="100.386" y2="1642.330"/>
      <line x1="150.386" y1="1643.330" x2="100.386" y2="1643.330"/>
      <line x1="150.386" y1="1644.330" x2="100.386" y2="1644.330"/>
      <line x1="150.386" y1="1645.330" x2="100.386" y2="1645.330"/>
      <line x1="150.386" y1="1646.330" x2="100.386" y2="1646.330"/>
      <line x1="150.386" y1="1647.330" x2="100.386" y2="1647.330"/>
      <line x1="150.386" y1="1648.330" x2="100.386" y2="1648.330"/>
      <line x1="150.386" y1="1649.330" x2="100.386" y2="1649.330"/>
      <line x1="150.386" y1="1650.330" x2="100.386" y2="1650.330"/>
      <line x1="150.386" y1="1651.330" x2="100.386" y2="1651.330"/>
      <line x1="150.386" y1="1652.330" x2="100.386" y2="1652.330"/>
      <line x1="150.386" y1="1653.330" x2="100.386" y2="1653.330"/>
      <line x1="150.386" y1="1654.330" x2="100.386" y2="1654.330"/>
      <line x1="150.386" y1="1655.330" x2="100.386" y2="1655.330"/>
      <line x1="150.386" y1="1656.330" x2="100.386" y2="1656.330"/>
      <line x1="150.386" y1="1657.330" x2="100.386" y2="1657.330"/>
      <line x1="150.386" y1="1658.330" x2="100.386" y2="1658.330"/>
      <line x1="150.386" y1="1659.330" x2="100.386" y2="1659.330"/>
      <line x1="150.386" y1="1660.330" x2="100.386" y2="1660.330"/>
      <line x1="150.386" y1="1661.330" x2="100.386" y2="1661.330"/>
      <line x1="150.386" y1="1662.330" x2="100.386" y2="1662.330"/>
      <line x1="150.386" y1="1663.330" x2="100.386" y2="1663.330"/>
      <line x1="150.386" y1="1664.330" x2="100.386" y2="1664.330"/>
      <line x1="150.386" y1="1665.330" x2="100.386" y2="1665.330"/>
      <line x1="150.386" y1="1666.330" x2="100.386" y2="1666.330"/>
      <line x1="150.386" y1="1667.330" x2="100.386" y2="1667.330"/>
      <line x1="150.386" y1="1668.330" x2="100.386" y2="1668.330"/>
      <line x1="150.386" y1="1669.330" x2="100.386" y2="1669.330"/>
      <line x1="150.386" y1="1670.330" x2="100.386" y2="1670.330"/>
      <line x1="150.386" y1="1671.330" x2="100.386" y2="1671.330"/>
      <line x1="150.386" y1="1672.330" x2="100.386" y2="1672.330"/>
      <line x1="150.386" y1="1673.330" x2="100.386" y2="1673.330"/>
      <line x1="150.386" y1="1674.330" x2="100.386" y2="1674.330"/>
      <line x1="150.386" y1="1675.330" x2="100.386" y2="1675.330"/>
      <line x1="150.386" y1="1676.330" x2="100.386" y2="1676.330"/>
      <line x1="150.386" y1="1677.330" x2="100.386" y2="1677.330"/>
      <line x1="150.386" y1="1678.330" x2="100.386" y2="1678.330"/>
      <line x1="196.057" y1="1629.330" x2="150.486" y2="1629.330"/>
      <line x1="196.057" y1="1630.330" x2="150.486" y2="1630.330"/>
      <line x1="196.057" y1="1631.330" x2="150.486" y2="1631.330"/>
      <line x1="196.057" y1="1632.330" x2="150.486" y2="1632.330"/>
      <line x1="196.057" y1="1633.330" x2="150.486" y2="1633.330"/>
      <line x1="196.057" y1="1634.330" x2="150.486" y2="1634.330"/>
      <line x1="196.057" y1="1635.330" x2="150.486" y2="1635.330"/>
      <line x1="196.057" y1="1636.330" x2="150.486" y2="1636.330"/>
      <line x1="196.057" y1="1637.330" x2="150.486" y2="1637.330"/>
      <line x1="196.057" y1="1638.330" x2="150.486" y2="1638.330"/>
      <line x1="196.057" y1="1639.330" x2="150.486" y2="1639.330"/>
      <line x1="196.057" y1="1640.330" x2="150.486" y2="1640.330"/>
      <line x1="196.057" y1="1641.330" x2="150.486" y2="1641.330"/>
      <line x1="196.057" y1="1642.330" x2="150.486" y2="1642.330"/>
      <line x1="196.057" y1="1643.330" x2="150.486" y2="1643.330"/>
      <line x1="196.057" y1="1644.330" x2="150.486" y2="1644.330"/>
      <line x1="196.057" y1="1645.330" x2="150.486" y2="1645.330"/>
      <line x1="196.057" y1="1646.330" x2="150.486" y2="1646.330"/>
      <line x1="196.057" y1="1647.330" x2="150.486" y2="1647.330"/>
      <line x1="196.057" y1="1648.330" x2="150.486" y2="1648.330"/>
      <line x1="196.057" y1="1649.330" x2="150.486" y2="1649.330"/>
      <line x1="196.057" y1="1650.330" x2="150.486" y2="1650.330"/>
      <line x1="196.057" y1="1651.330" x2="150.486" y2="1651.330"/>
      <line x1="196.057" y1="1652.330" x2="150.486" y2="1652.330"/>
      <line x1="196.057" y1="1653.330" x2="150.486" y2="1653.330"/>
      <line x1="196.057" y1="1654.330" x2="150.486" y2="1654.330"/>
      <line x1="196.057" y1="1655.330" x2="150.486" y2="1655.330"/>
      <line x1="196.057" y1="1656.330" x2="150.486" y2="1656.330"/>
      <line x1="196.057" y1="1657.330" x2="150.486" y2="1657.330"/>
      <line x1="196.057" y1="1658.330" x2="150.486" y2="1658.330"/>
      <line x1="196.057" y1="1659.330" x2="150.486" y2="1659.330"/>
      <line x1="196.057" y1="1660.330" x2="150.486" y2="1660.330"/>
      <line x1="196.057" y1="1661.330" x2="150.486" y2="1661.330"/>
      <line x1="196.057" y1="1662.330" x2="150.486" y2="1662.330"/>
      <line x1="196.057" y1="1663.330" x2="150.486" y2="1663.330"/>
      <line x1="196.057" y1="1664.330" x2="150.486" y2="1664.330"/>
      <line x1="196.057" y1="1665.330" x2="150.486" y2="1665.330"/>
      <line x1="196.057" y1="1666.330" x2="150.486" y2="1666.330"/>
      <line x1="196.057" y1="1667.330" x2="150.486" y2="1667.330"/>
      <line x1="196.057" y1="1668.330" x2="150.486" y2="1668.330"/>
      <line x1="196.057" y1="1669.330" x2="150.486" y2="1669.330"/>
      <line x1="196.057" y1="1670.330" x2="150.486" y2="1670.330"/>
      <line x1="196.057" y1="1671.330" x2="150.486" y2="1671.330"/>
      <line x1="196.057" y1="1672.330" x2="150.486" y2="1672.330"/>
      <line x1="196.057" y1="1673.330" x2="150.486" y2="1673.330"/>
      <line x1="196.057" y1="1674.330" x2="150.486" y2="1674.330"/>
      <line x1="196.057" y1="1675.330" x2="150.486" y2="1675.330"/>
      <line x1="196.057" y1="1676.330" x2="150.486" y2="1676.330"/>
      <line x1="196.057" y1="1677.330" x2="150.486" y2="1677.330"/>
      <line x1="196.057" y1="1678.330" x2="150.486" y2="1678.330"/>
      <line x1="100.286" y1="1579.330" x2="50.286" y2="1579.330"/>
      <line x1="100.286" y1="1580.330" x2="50.286" y2="1580.330"/>
      <line x1="100.286" y1="1581.330" x2="50.286" y2="1581.330"/>
      <line x1="100.286" y1="1582.330" x2="50.286" y2="1582.330"/>
      <line x1="100.286" y1="1583.330" x2="50.286" y2="1583.330"/>
      <line x1="100.286" y1="1584.330" x2="50.286" y2="1584.330"/>
      <line x1="100.286" y1="1585.330" x2="50.286" y2="1585.330"/>
      <line x1="100.286" y1="1586.330" x2="50.286" y2="1586.330"/>
      <line x1="100.286" y1="1587.330" x2="50.286" y2="1587.330"/>
      <line x1="100.286" y1="1588.330" x2="50.286" y2="1588.330"/>
      <line x1="100.286" y1="1589.330" x2="50.286" y2="1589.330"/>
      <line x1="100.286" y1="1590.330" x2="50.286" y2="1590.330"/>
      <line x1="100.286" y1="1591.330" x2="50.286" y2="1591.330"/>
      <line x1="100.286" y1="1592.330" x2="50.286" y2="1592.330"/>
      <line x1="100.286" y1="1593.330" x2="50.286" y2="1593.330"/>
      <line x1="100.286" y1="1594.330" x2="50.286" y2="1594.330"/>
      <line x1="100.286" y1="1595.330" x2="50.286" y2="1595.330"/>
      <line x1="100.286" y1="1596.330" x2="50.286" y2="1596.330"/>
      <line x1="100.286" y1="1597.330" x2="50.286" y2="1597.330"/>
      <line x1="100.286" y1="1598.330" x2="50.286" y2="1598.330"/>
      <line x1="100.286" y1="1599.330" x2="50.286" y2="1599.330"/>
      <line x1="100.286" y1="1600.330" x2="50.286" y2="1600.330"/>
      <line x1="100.286" y1="1601.330" x2="50.286" y2="1601.330"/>
      <line x1="100.286" y1="1602.330" x2="50.286" y2="1602.330"/>
      <line x1="100.286" y1="1603.330" x2="50.286" y2="1603.330"/>
      <line x1="100.286" y1="1604.330" x2="50.286" y2="1604.330"/>
      <line x1="100.286" y1="1605.330" x2="50.286" y2="1605.330"/>
      <line x1="100.286" y1="1606.330" x2="50.286" y2="1606.330"/>
      <line x1="100.286" y1="1607.330" x2="50.286" y2="1607.330"/>
      <line x1="100.286" y1="1608.330" x2="50.286" y2="1608.330"/>
      <line x1="100.286" y1="1609.330" x2="50.286" y2="1609.330"/>
      <line x1="100.286" y1="1610.330" x2="50.286" y2="1610.330"/>
      <line x1="100.286" y1="1611.330" x2="50.286" y2="1611.330"/>
      <line x1="100.286" y1="1612.330" x2="50.286" y2="1612.330"/>
      <line x1="100.286" y1="1613.330" x2="50.286" y2="1613.330"/>
      <line x1="100.286" y1="1614.330" x2="50.286" y2="1614.330"/>
      <line x1="100.286" y1="1615.330" x2="50.286" y2="1615.330"/>
      <line x1="100.286" y1="1616.330" x2="50.286" y2="1616.330"/>
      <line x1="100.286" y1="1617.330" x2="50.286" y2="1617.330"/>
      <line x1="100.286" y1="1618.330" x2="50.286" y2="1618.330"/>
      <line x1="100.286" y1="1619.330" x2="50.286" y2="1619.330"/>
      <line x1="100.286" y1="1620.330" x2="50.286" y2="1620.330"/>
      <line x1="100.286" y1="1621.330" x2="50.286" y2="1621.330"/>
      <line x1="100.286" y1="1622.330" x2="50.286" y2="1622.330"/>
      <line x1="100.286" y1="1623.330" x2="50.286" y2="1623.330"/>
      <line x1="100.286" y1="1624.330" x2="50.286" y2="1624.330"/>
      <line x1="100.286" y1="1625.330" x2="50.286" y2="1625.330"/>
      <line x1="100.286" y1="1626.330" x2="50.286" y2="1626.330"/>
      <line x1="100.286" y1="1627.330" x2="50.286" y2="1627.330"/>
      <line x1="100.286" y1="1628.330" x2="50.286" y2="1628.330"/>
      <line x1="150.386" y1="1579.330" x2="100.386" y2="1579.330"/>
      <line x1="150.386" y1="1580.330" x2="100.386" y2="1580.330"/>
      <line x1="150.386" y1="1581.330" x2="100.386" y2="1581.330"/>
      <line x1="150.386" y1="1582.330" x2="100.386" y2="1582.330"/>
      <line x1="150.386" y1="1583.330" x2="100.386" y2="1583.330"/>
      <line x1="150.386" y1="1584.330" x2="100.386" y2="1584.330"/>
      <line x1="150.386" y1="1585.330" x2="100.386" y2="1585.330"/>
      <line x1="150.386" y1="1586.330" x2="100.386" y2="1586.330"/>
      <line x1="150.386" y1="1587.330" x2="100.386" y2="1587.330"/>
      <line x1="150.386" y1="1588.330" x2="100.386" y2="1588.330"/>
      <line x1="150.386" y1="1589.330" x2="100.386" y2="1589.330"/>
      <line x1="150.386" y1="1590.330" x2="100.386" y2="1590.330"/>
      <line x1="150.386" y1="1591.330" x2="100.386" y2="1591.330"/>
      <line x1="150.386" y1="1592.330" x2="100.386" y2="1592.330"/>
      <line x1="150.386" y1="1593.330" x2="100.386" y2="1593.330"/>
      <line x1="150.386" y1="1594.330" x2="100.386" y2="1594.330"/>
      <line x1="150.386" y1="1595.330" x2="100.386" y2="1595.330"/>
      <line x1="150.386" y1="1596.330" x2="100.386" y2="1596.330"/>
      <line x1="150.386" y1="1597.330" x2="100.386" y2="1597.330"/>
      <line x1="150.386" y1="1598.330" x2="100.386" y2="1598.330"/>
      <line x1="150.386" y1="1599.330" x2="100.386" y2="1599.330"/>
      <line x1="150.386" y1="1600.330" x2="100.386" y2="1600.330"/>
      <line x1="150.386" y1="1601.330" x2="100.386" y2="1601.330"/>
      <line x1="150.386" y1="1602.330" x2="100.386" y2="1602.330"/>
      <line x1="150.386" y1="1603.330" x2="100.386" y2="1603.330"/>
      <line x1="150.386" y1="1604.330" x2="100.386" y2="1604.330"/>
      <line x1="150.386" y1="1605.330" x2="100.386" y2="1605.330"/>
      <line x1="150.386" y1="1606.330" x2="100.386" y2="1606.330"/>
      <line x1="150.386" y1="1607.330" x2="100.386" y2="1607.330"/>
      <line x1="150.386" y1="1608.330" x2="100.386" y2="1608.330"/>
      <line x1="150.386" y1="1609.330" x2="100.386" y2="1609.330"/>
      <line x1="150.386" y1="1610.330" x2="100.386" y2="1610.330"/>
      <line x1="150.386" y1="1611.330" x2="100.386" y2="1611.330"/>
      <line x1="150.386" y1="1612.330" x2="100.386" y2="1612.330"/>
      <line x1="150.386" y1="1613.330" x2="100.386" y2="1613.330"/>
      <line x1="150.386" y1="1614.330" x2="100.386" y2="1614.330"/>
      <line x1="150.386" y1="1615.330" x2="100.386" y2="1615.330"/>
      <line x1="150.386" y1="1616.330" x2="100.386" y2="1616.330"/>
      <line x1="150.386" y1="1617.330" x2="100.386" y2="1617.330"/>
      <line x1="150.386" y1="1618.330" x2="100.386" y2="1618.330"/>
      <line x1="150.386" y1="1619.330" x2="100.386" y2="1619.330"/>
      <line x1="150.386" y1="1620.330" x2="100.386" y2="1620.330"/>
      <line x1="150.386" y1="1621.330" x2="100.386" y2="1621.330"/>
      <line x1="150.386" y1="1622.330" x2="100.386" y2="1622.330"/>
      <line x1="150.386" y1="1623.330" x2="100.386" y2="1623.330"/>
      <line x1="150.386" y1="1624.330" x2="100.386" y2="1624.330"/>
      <line x1="150.386" y1="1625.330" x2="100.386" y2="1625.330"/>
      <line x1="150.386" y1="1626.330" x2="100.386" y2="1626.330"/>
      <line x1="150.386" y1="1627.330" x2="100.386" y2="1627.330"/>
      <line x1="150.386" y1="1628.330" x2="100.386" y2="1628.330"/>
      <line x1="196.057" y1="1579.330" x2="150.486" y2="1579.330"/>
      <line x1="196.057" y1="1580.330" x2="150.486" y2="1580.330"/>
      <line x1="196.057" y1="1581.330" x2="150.486" y2="1581.330"/>
      <line x1="196.057" y1="1582.330" x2="150.486" y2="1582.330"/>
      <line x1="196.057" y1="1583.330" x2="150.486" y2="1583.330"/>
      <line x1="196.057" y1="1584.330" x2="150.486" y2="1584.330"/>
      <line x1="196.057" y1="1585.330" x2="150.486" y2="1585.330"/>
      <line x1="196.057" y1="1586.330" x2="150.486" y2="1586.330"/>
      <line x1="196.057" y1="1587.330" x2="150.486" y2="1587.330"/>
      <line x1="196.057" y1="1588.330" x2="150.486" y2="1588.330"/>
      <line x1="196.057" y1="1589.330" x2="150.486" y2="1589.330"/>
      <line x1="196.057" y1="1590.330" x2="150.486" y2="1590.330"/>
      <line x1="196.057" y1="1591.330" x2="150.486" y2="1591.330"/>
      <line x1="196.057" y1="1592.330" x2="150.486" y2="1592.330"/>
      <line x1="196.057" y1="1593.330" x2="150.486" y2="1593.330"/>
      <line x1="196.057" y1="1594.330" x2="150.486" y2="1594.330"/>
      <line x1="196.057" y1="1595.330" x2="150.486" y2="1595.330"/>
      <line x1="196.057" y1="1596.330" x2="150.486" y2="1596.330"/>
      <line x1="196.057" y1="1597.330" x2="150.486" y2="1597.330"/>
      <line x1="196.057" y1="1598.330" x2="150.486" y2="1598.330"/>
      <line x1="196.057" y1="1599.330" x2="150.486" y2="1599.330"/>
      <line x1="196.057" y1="1600.330" x2="150.486" y2="1600.330"/>
      <line x1="196.057" y1="1601.330" x2="150.486" y2="1601.330"/>
      <line x1="196.057" y1="1602.330" x2="150.486" y2="1602.330"/>
      <line x1="196.057" y1="1603.330" x2="150.486" y2="1603.330"/>
      <line x1="196.057" y1="1604.330" x2="150.486" y2="1604.330"/>
      <line x1="196.057" y1="1605.330" x2="150.486" y2="1605.330"/>
      <line x1="196.057" y1="1606.330" x2="150.486" y2="1606.330"/>
      <line x1="196.057" y1="1607.330" x2="150.486" y2="1607.330"/>
      <line x1="196.057" y1="1608.330" x2="150.486" y2="1608.330"/>
      <line x1="196.057" y1="1609.330" x2="150.486" y2="1609.330"/>
      <line x1="196.057" y1="1610.330" x2="150.486" y2="1610.330"/>
      <line x1="196.057" y1="1611.330" x2="150.486" y2="1611.330"/>
      <line x1="196.057" y1="1612.330" x2="150.486" y2="1612.330"/>
      <line x1="196.057" y1="1613.330" x2="150.486" y2="1613.330"/>
      <line x1="196.057" y1="1614.330" x2="150.486" y2="1614.330"/>
      <line x1="196.057" y1="1615.330" x2="150.486" y2="1615.330"/>
      <line x1="196.057" y1="1616.330" x2="150.486" y2="1616.330"/>
      <line x1="196.057" y1="1617.330" x2="150.486" y2="1617.330"/>
      <line x1="196.057" y1="1618.330" x2="150.486" y2="1618.330"/>
      <line x1="196.057" y1="1619.330" x2="150.486" y2="1619.330"/>
      <line x1="196.057" y1="1620.330" x2="150.486" y2="1620.330"/>
      <line x1="196.057" y1="1621.330" x2="150.486" y2="1621.330"/>
      <line x1="196.057" y1="1622.330" x2="150.486" y2="1622.330"/>
      <line x1="196.057" y1="1623.330" x2="150.486" y2="1623.330"/>
      <line x1="196.057" y1="1624.330" x2="150.486" y2="1624.330"/>
      <line x1="196.057" y1="1625.330" x2="150.486" y2="1625.330"/>
      <line x1="196.057" y1="1626.330" x2="150.486" y2="1626.330"/>
      <line x1="196.057" y1="1627.330" x2="150.486" y2="1627.330"/>
      <line x1="196.057" y1="1628.330" x2="150.486" y2="1628.330"/>
      <line x1="100.286" y1="1529.330" x2="50.286" y2="1529.330"/>
      <line x1="100.286" y1="1530.330" x2="50.286" y2="1530.330"/>
      <line x1="100.286" y1="1531.330" x2="50.286" y2="1531.330"/>
      <line x1="100.286" y1="1532.330" x2="50.286" y2="1532.330"/>
      <line x1="100.286" y1="1533.330" x2="50.286" y2="1533.330"/>
      <line x1="100.286" y1="1534.330" x2="50.286" y2="1534.330"/>
      <line x1="100.286" y1="1535.330" x2="50.286" y2="1535.330"/>
      <line x1="100.286" y1="1536.330" x2="50.286" y2="1536.330"/>
      <line x1="100.286" y1="1537.330" x2="50.286" y2="1537.330"/>
      <line x1="100.286" y1="1538.330" x2="50.286" y2="1538.330"/>
      <line x1="100.286" y1="1539.330" x2="50.286" y2="1539.330"/>
      <line x1="100.286" y1="1540.330" x2="50.286" y2="1540.330"/>
      <line x1="100.286" y1="1541.330" x2="50.286" y2="1541.330"/>
      <line x1="100.286" y1="1542.330" x2="50.286" y2="1542.330"/>
      <line x1="100.286" y1="1543.330" x2="50.286" y2="1543.330"/>
      <line x1="100.286" y1="1544.330" x2="50.286" y2="1544.330"/>
      <line x1="100.286" y1="1545.330" x2="50.286" y2="1545.330"/>
      <line x1="100.286" y1="1546.330" x2="50.286" y2="1546.330"/>
      <line x1="100.286" y1="1547.330" x2="50.286" y2="1547.330"/>
      <line x1="100.286" y1="1548.330" x2="50.286" y2="1548.330"/>
      <line x1="100.286" y1="1549.330" x2="50.286" y2="1549.330"/>
      <line x1="100.286" y1="1550.330" x2="50.286" y2="1550.330"/>
      <line x1="100.286" y1="1551.330" x2="50.286" y2="1551.330"/>
      <line x1="100.286" y1="1552.330" x2="50.286" y2="1552.330"/>
      <line x1="100.286" y1="1553.330" x2="50.286" y2="1553.330"/>
      <line x1="100.286" y1="1554.330" x2="50.286" y2="1554.330"/>
      <line x1="100.286" y1="1555.330" x2="50.286" y2="1555.330"/>
      <line x1="100.286" y1="1556.330" x2="50.286" y2="1556.330"/>
      <line x1="100.286" y1="1557.330" x2="50.286" y2="1557.330"/>
      <line x1="100.286" y1="1558.330" x2="50.286" y2="1558.330"/>
      <line x1="100.286" y1="1559.330" x2="50.286" y2="1559.330"/>
      <line x1="100.286" y1="1560.330" x2="50.286" y2="1560.330"/>
      <line x1="100.286" y1="1561.330" x2="50.286" y2="1561.330"/>
      <line x1="100.286" y1="1562.330" x2="50.286" y2="1562.330"/>
      <line x1="100.286" y1="1563.330" x2="50.286" y2="1563.330"/>
      <line x1="100.286" y1="1564.330" x2="50.286" y2="1564.330"/>
      <line x1="100.286" y1="1565.330" x2="50.286" y2="1565.330"/>
      <line x1="100.286" y1="1566.330" x2="50.286" y2="1566.330"/>
      <line x1="100.286" y1="1567.330" x2="50.286" y2="1567.330"/>
      <line x1="100.286" y1="1568.330" x2="50.286" y2="1568.330"/>
      <line x1="100.286" y1="1569.330" x2="50.286" y2="1569.330"/>
      <line x1="100.286" y1="1570.330" x2="50.286" y2="1570.330"/>
      <line x1="100.286" y1="1571.330" x2="50.286" y2="1571.330"/>
      <line x1="100.286" y1="1572.330" x2="50.286" y2="1572.330"/>
      <line x1="100.286" y1="1573.330" x2="50.286" y2="1573.330"/>
      <line x1="100.286" y1="1574.330" x2="50.286" y2="1574.330"/>
      <line x1="100.286" y1="1575.330" x2="50.286" y2="1575.330"/>
      <line x1="100.286" y1="1576.330" x2="50.286" y2="1576.330"/>
      <line x1="100.286" y1="1577.330" x2="50.286" y2="1577.330"/>
      <line x1="100.286" y1="1578.330" x2="50.286" y2="1578.330"/>
      <line x1="150.386" y1="1529.330" x2="100.386" y2="1529.330"/>
      <line x1="150.386" y1="1530.330" x2="100.386" y2="1530.330"/>
      <line x1="150.386" y1="1531.330" x2="100.386" y2="1531.330"/>
      <line x1="150.386" y1="1532.330" x2="100.386" y2="1532.330"/>
      <line x1="150.386" y1="1533.330" x2="100.386" y2="1533.330"/>
      <line x1="150.386" y1="1534.330" x2="100.386" y2="1534.330"/>
      <line x1="150.386" y1="1535.330" x2="100.386" y2="1535.330"/>
      <line x1="150.386" y1="1536.330" x2="100.386" y2="1536.330"/>
      <line x1="150.386" y1="1537.330" x2="100.386" y2="1537.330"/>
      <line x1="150.386" y1="1538.330" x2="100.386" y2="1538.330"/>
      <line x1="150.386" y1="1539.330" x2="100.386" y2="1539.330"/>
      <line x1="150.386" y1="1540.330" x2="100.386" y2="1540.330"/>
      <line x1="150.386" y1="1541.330" x2="100.386" y2="1541.330"/>
      <line x1="150.386" y1="1542.330" x2="100.386" y2="1542.330"/>
      <line x1="150.386" y1="1543.330" x2="100.386" y2="1543.330"/>
      <line x1="150.386" y1="1544.330" x2="100.386" y2="1544.330"/>
      <line x1="150.386" y1="1545.330" x2="100.386" y2="1545.330"/>
      <line x1="150.386" y1="1546.330" x2="100.386" y2="1546.330"/>
      <line x1="150.386" y1="1547.330" x2="100.386" y2="1547.330"/>
      <line x1="150.386" y1="1548.330" x2="100.386" y2="1548.330"/>
      <line x1="150.386" y1="1549.330" x2="100.386" y2="1549.330"/>
      <line x1="150.386" y1="1550.330" x2="100.386" y2="1550.330"/>
      <line x1="150.386" y1="1551.330" x2="100.386" y2="1551.330"/>
      <line x1="150.386" y1="1552.330" x2="100.386" y2="1552.330"/>
      <line x1="150.386" y1="1553.330" x2="100.386" y2="1553.330"/>
      <line x1="150.386" y1="1554.330" x2="100.386" y2="1554.330"/>
      <line x1="150.386" y1="1555.330" x2="100.386" y2="1555.330"/>
      <line x1="150.386" y1="1556.330" x2="100.386" y2="1556.330"/>
      <line x1="150.386" y1="1557.330" x2="100.386" y2="1557.330"/>
      <line x1="150.386" y1="1558.330" x2="100.386" y2="1558.330"/>
      <line x1="150.386" y1="1559.330" x2="100.386" y2="1559.330"/>
      <line x1="150.386" y1="1560.330" x2="100.386" y2="1560.330"/>
      <line x1="150.386" y1="1561.330" x2="100.386" y2="1561.330"/>
      <line x1="150.386" y1="1562.330" x2="100.386" y2="1562.330"/>
      <line x1="150.386" y1="1563.330" x2="100.386" y2="1563.330"/>
      <line x1="150.386" y1="1564.330" x2="100.386" y2="1564.330"/>
      <line x1="150.386" y1="1565.330" x2="100.386" y2="1565.330"/>
      <line x1="150.386" y1="1566.330" x2="100.386" y2="1566.330"/>
      <line x1="150.386" y1="1567.330" x2="100.386" y2="1567.330"/>
      <line x1="150.386" y1="1568.330" x2="100.386" y2="1568.330"/>
      <line x1="150.386" y1="1569.330" x2="100.386" y2="1569.330"/>
      <line x1="150.386" y1="1570.330" x2="100.386" y2="1570.330"/>
      <line x1="150.386" y1="1571.330" x2="100.386" y2="1571.330"/>
      <line x1="150.386" y1="1572.330" x2="100.386" y2="1572.330"/>
      <line x1="150.386" y1="1573.330" x2="100.386" y2="1573.330"/>
      <line x1="150.386" y1="1574.330" x2="100.386" y2="1574.330"/>
      <line x1="150.386" y1="1575.330" x2="100.386" y2="1575.330"/>
      <line x1="150.386" y1="1576.330" x2="100.386" y2="1576.330"/>
      <line x1="150.386" y1="1577.330" x2="100.386" y2="1577.330"/>
      <line x1="150.386" y1="1578.330" x2="100.386" y2="1578.330"/>
      <line x1="196.057" y1="1529.330" x2="150.486" y2="1529.330"/>
      <line x1="196.057" y1="1530.330" x2="150.486" y2="1530.330"/>
      <line x1="196.057" y1="1531.330" x2="150.486" y2="1531.330"/>
      <line x1="196.057" y1="1532.330" x2="150.486" y2="1532.330"/>
      <line x1="196.057" y1="1533.330" x2="150.486" y2="1533.330"/>
      <line x1="196.057" y1="1534.330" x2="150.486" y2="1534.330"/>
      <line x1="196.057" y1="1535.330" x2="150.486" y2="1535.330"/>
      <line x1="196.057" y1="1536.330" x2="150.486" y2="1536.330"/>
      <line x1="196.057" y1="1537.330" x2="150.486" y2="1537.330"/>
      <line x1="196.057" y1="1538.330" x2="150.486" y2="1538.330"/>
      <line x1="196.057" y1="1539.330" x2="150.486" y2="1539.330"/>
      <line x1="196.057" y1="1540.330" x2="150.486" y2="1540.330"/>
      <line x1="196.057" y1="1541.330" x2="150.486" y2="1541.330"/>
      <line x1="196.057" y1="1542.330" x2="150.486" y2="1542.330"/>
      <line x1="196.057" y1="1543.330" x2="150.486" y2="1543.330"/>
      <line x1="196.057" y1="1544.330" x2="150.486" y2="1544.330"/>
      <line x1="196.057" y1="1545.330" x2="150.486" y2="1545.330"/>
      <line x1="196.057" y1="1546.330" x2="150.486" y2="1546.330"/>
      <line x1="196.057" y1="1547.330" x2="150.486" y2="1547.330"/>
      <line x1="196.057" y1="1548.330" x2="150.486" y2="1548.330"/>
      <line x1="196.057" y1="1549.330" x2="150.486" y2="1549.330"/>
      <line x1="196.057" y1="1550.330" x2="150.486" y2="1550.330"/>
      <line x1="196.057" y1="1551.330" x2="150.486" y2="1551.330"/>
      <line x1="196.057" y1="1552.330" x2="150.486" y2="1552.330"/>
      <line x1="196.057" y1="1553.330" x2="150.486" y2="1553.330"/>
      <line x1="196.057" y1="1554.330" x2="150.486" y2="1554.330"/>
      <line x1="196.057" y1="1555.330" x2="150.486" y2="1555.330"/>
      <line x1="196.057" y1="1556.330" x2="150.486" y2="1556.330"/>
      <line x1="196.057" y1="1557.330" x2="150.486" y2="1557.330"/>
      <line x1="196.057" y1="1558.330" x2="150.486" y2="1558.330"/>
      <line x1="196.057" y1="1559.330" x2="150.486" y2="1559.330"/>
      <line x1="196.057" y1="1560.330" x2="150.486" y2="1560.330"/>
      <line x1="196.057" y1="1561.330" x2="150.486" y2="1561.330"/>
      <line x1="196.057" y1="1562.330" x2="150.486" y2="1562.330"/>
      <line x1="196.057" y1="1563.330" x2="150.486" y2="1563.330"/>
      <line x1="196.057" y1="1564.330" x2="150.486" y2="1564.330"/>
      <line x1="196.057" y1="1565.330" x2="150.486" y2="1565.330"/>
      <line x1="196.057" y1="1566.330" x2="150.486" y2="1566.330"/>
      <line x1="196.057" y1="1567.330" x2="150.486" y2="1567.330"/>
      <line x1="196.057" y1="1568.330" x2="150.486" y2="1568.330"/>
      <line x1="196.057" y1="1569.330" x2="150.486" y2="1569.330"/>
      <line x1="196.057" y1="1570.330" x2="150.486" y2="1570.330"/>
      <line x1="196.057" y1="1571.330" x2="150.486" y2="1571.330"/>
      <line x1="196.057" y1="1572.330" x2="150.486" y2="1572.330"/>
      <line x1="196.057" y1="1573.330" x2="150.486" y2="1573.330"/>
      <line x1="196.057" y1="1574.330" x2="150.486" y2="1574.330"/>
      <line x1="196.057" y1="1575.330" x2="150.486" y2="1575.330"/>
      <line x1="196.057" y1="1576.330" x2="150.486" y2="1576.330"/>
      <line x1="196.057" y1="1577.330" x2="150.486" y2="1577.330"/>
      <line x1="196.057" y1="1578.330" x2="150.486" y2="1578.330"/>
      <line x1="100.286" y1="1525.330" x2="50.286" y2="1525.330"/>
      <line x1="100.286" y1="1526.330" x2="50.286" y2="1526.330"/>
      <line x1="100.286" y1="1527.330" x2="50.286" y2="1527.330"/>
      <line x1="100.286" y1="1528.330" x2="50.286" y2="1528.330"/>
      <line x1="150.386" y1="1525.330" x2="100.386" y2="1525.330"/>
      <line x1="150.386" y1="1526.330" x2="100.386" y2="1526.330"/>
      <line x1="150.386" y1="1527.330" x2="100.386" y2="1527.330"/>
      <line x1="150.386" y1="1528.330" x2="100.386" y2="1528.330"/>
      <line x1="196.057" y1="1525.330" x2="150.486" y2="1525.330"/>
      <line x1="196.057" y1="1526.330" x2="150.486" y2="1526.330"/>
      <line x1="196.057" y1="1527.330" x2="150.486" y2="1527.330"/>
      <line x1="196.057" y1="1528.330" x2="150.486" y2="1528.330"/>
      <line x1="453.943" y1="1629.330" x2="403.943" y2="1629.330"/>
      <line x1="453.943" y1="1630.330" x2="403.943" y2="1630.330"/>
      <line x1="453.943" y1="1631.330" x2="403.943" y2="1631.330"/>
      <line x1="453.943" y1="1632.330" x2="403.943" y2="1632.330"/>
      <line x1="453.943" y1="1633.330" x2="403.943" y2="1633.330"/>
      <line x1="453.943" y1="1634.330" x2="403.943" y2="1634.330"/>
      <line x1="453.943" y1="1635.330" x2="403.943" y2="1635.330"/>
      <line x1="453.943" y1="1636.330" x2="403.943" y2="1636.330"/>
      <line x1="453.943" y1="1637.330" x2="403.943" y2="1637.330"/>
      <line x1="453.943" y1="1638.330" x2="403.943" y2="1638.330"/>
      <line x1="453.943" y1="1639.330" x2="403.943" y2="1639.330"/>
      <line x1="453.943" y1="1640.330" x2="403.943" y2="1640.330"/>
      <line x1="453.943" y1="1641.330" x2="403.943" y2="1641.330"/>
      <line x1="453.943" y1="1642.330" x2="403.943" y2="1642.330"/>
      <line x1="453.943" y1="1643.330" x2="403.943" y2="1643.330"/>
      <line x1="453.943" y1="1644.330" x2="403.943" y2="1644.330"/>
      <line x1="453.943" y1="1645.330" x2="403.943" y2="1645.330"/>
      <line x1="453.943" y1="1646.330" x2="403.943" y2="1646.330"/>
      <line x1="453.943" y1="1647.330" x2="403.943" y2="1647.330"/>
      <line x1="453.943" y1="1648.330" x2="403.943" y2="1648.330"/>
      <line x1="453.943" y1="1649.330" x2="403.943" y2="1649.330"/>
      <line x1="453.943" y1="1650.330" x2="403.943" y2="1650.330"/>
      <line x1="453.943" y1="1651.330" x2="403.943" y2="1651.330"/>
      <line x1="453.943" y1="1652.330" x2="403.943" y2="1652.330"/>
      <line x1="453.943" y1="1653.330" x2="403.943" y2="1653.330"/>
      <line x1="453.943" y1="1654.330" x2="403.943" y2="1654.330"/>
      <line x1="453.943" y1="1655.330" x2="403.943" y2="1655.330"/>
      <line x1="453.943" y1="1656.330" x2="403.943" y2="1656.330"/>
      <line x1="453.943" y1="1657.330" x2="403.943" y2="1657.330"/>
      <line x1="453.943" y1="1658.330" x2="403.943" y2="1658.330"/>
      <line x1="453.943" y1="1659.330" x2="403.943" y2="1659.330"/>
      <line x1="453.943" y1="1660.330" x2="403.943" y2="1660.330"/>
      <line x1="453.943" y1="1661.330" x2="403.943" y2="1661.330"/>
      <line x1="453.943" y1="1662.330" x2="403.943" y2="1662.330"/>
      <line x1="453.943" y1="1663.330" x2="403.943" y2="1663.330"/>
      <line x1="453.943" y1="1664.330" x2="403.943" y2="1664.330"/>
      <line x1="453.943" y1="1665.330" x2="403.943" y2="1665.330"/>
      <line x1="453.943" y1="1666.330" x2="403.943" y2="1666.330"/>
      <line x1="453.943" y1="1667.330" x2="403.943" y2="1667.330"/>
      <line x1="453.943" y1="1668.330" x2="403.943" y2="1668.330"/>
      <line x1="453.943" y1="1669.330" x2="403.943" y2="1669.330"/>
      <line x1="453.943" y1="1670.330" x2="403.943" y2="1670.330"/>
      <line x1="453.943" y1="1671.330" x2="403.943" y2="1671.330"/>
      <line x1="453.943" y1="1672.330" x2="403.943" y2="1672.330"/>
      <line x1="453.943" y1="1673.330" x2="403.943" y2="1673.330"/>
      <line x1="453.943" y1="1674.330" x2="403.943" y2="1674.330"/>
      <line x1="453.943" y1="1675.330" x2="403.943" y2="1675.330"/>
      <line x1="453.943" y1="1676.330" x2="403.943" y2="1676.330"/>
      <line x1="453.943" y1="1677.330" x2="403.943" y2="1677.330"/>
      <line x1="453.943" y1="1678.330" x2="403.943" y2="1678.330"/>
      <line x1="504.043" y1="1629.330" x2="454.043" y2="1629.330"/>
      <line x1="504.043" y1="1630.330" x2="454.043" y2="1630.330"/>
      <line x1="504.043" y1="1631.330" x2="454.043" y2="1631.330"/>
      <line x1="504.043" y1="1632.330" x2="454.043" y2="1632.330"/>
      <line x1="504.043" y1="1633.330" x2="454.043" y2="1633.330"/>
      <line x1="504.043" y1="1634.330" x2="454.043" y2="1634.330"/>
      <line x1="504.043" y1="1635.330" x2="454.043" y2="1635.330"/>
      <line x1="504.043" y1="1636.330" x2="454.043" y2="1636.330"/>
      <line x1="504.043" y1="1637.330" x2="454.043" y2="1637.330"/>
      <line x1="504.043" y1="1638.330" x2="454.043" y2="1638.330"/>
      <line x1="504.043" y1="1639.330" x2="454.043" y2="1639.330"/>
      <line x1="504.043" y1="1640.330" x2="454.043" y2="1640.330"/>
      <line x1="504.043" y1="1641.330" x2="454.043" y2="1641.330"/>
      <line x1="504.043" y1="1642.330" x2="454.043" y2="1642.330"/>
      <line x1="504.043" y1="1643.330" x2="454.043" y2="1643.330"/>
      <line x1="504.043" y1="1644.330" x2="454.043" y2="1644.330"/>
      <line x1="504.043" y1="1645.330" x2="454.043" y2="1645.330"/>
      <line x1="504.043" y1="1646.330" x2="454.043" y2="1646.330"/>
      <line x1="504.043" y1="1647.330" x2="454.043" y2="1647.330"/>
      <line x1="504.043" y1="1648.330" x2="454.043" y2="1648.330"/>
      <line x1="504.043" y1="1649.330" x2="454.043" y2="1649.330"/>
      <line x1="504.043" y1="1650.330" x2="454.043" y2="1650.330"/>
      <line x1="504.043" y1="1651.330" x2="454.043" y2="1651.330"/>
      <line x1="504.043" y1="1652.330" x2="454.043" y2="1652.330"/>
      <line x1="504.043" y1="1653.330" x2="454.043" y2="1653.330"/>
      <line x1="504.043" y1="1654.330" x2="454.043" y2="1654.330"/>
      <line x1="504.043" y1="1655.330" x2="454.043" y2="1655.330"/>
      <line x1="504.043" y1="1656.330" x2="454.043" y2="1656.330"/>
      <line x1="504.043" y1="1657.330" x2="454.043" y2="1657.330"/>
      <line x1="504.043" y1="1658.330" x2="454.043" y2="1658.330"/>
      <line x1="504.043" y1="1659.330" x2="454.043" y2="1659.330"/>
      <line x1="504.043" y1="1660.330" x2="454.043" y2="1660.330"/>
      <line x1="504.043" y1="1661.330" x2="454.043" y2="1661.330"/>
      <line x1="504.043" y1="1662.330" x2="454.043" y2="1662.330"/>
      <line x1="504.043" y1="1663.330" x2="454.043" y2="1663.330"/>
      <line x1="504.043" y1="1664.330" x2="454.043" y2="1664.330"/>
      <line x1="504.043" y1="1665.330" x2="454.043" y2="1665.330"/>
      <line x1="504.043" y1="1666.330" x2="454.043" y2="1666.330"/>
      <line x1="504.043" y1="1667.330" x2="454.043" y2="1667.330"/>
      <line x1="504.043" y1="1668.330" x2="454.043" y2="1668.330"/>
      <line x1="504.043" y1="1669.330" x2="454.043" y2="1669.330"/>
      <line x1="504.043" y1="1670.330" x2="454.043" y2="1670.330"/>
      <line x1="504.043" y1="1671.330" x2="454.043" y2="1671.330"/>
      <line x1="504.043" y1="1672.330" x2="454.043" y2="1672.330"/>
      <line x1="504.043" y1="1673.330" x2="454.043" y2="1673.330"/>
      <line x1="504.043" y1="1674.330" x2="454.043" y2="1674.330"/>
      <line x1="504.043" y1="1675.330" x2="454.043" y2="1675.330"/>
      <line x1="504.043" y1="1676.330" x2="454.043" y2="1676.330"/>
      <line x1="504.043" y1="1677.330" x2="454.043" y2="1677.330"/>
      <line x1="504.043" y1="1678.330" x2="454.043" y2="1678.330"/>
      <line x1="549.714" y1="1629.330" x2="504.143" y2="1629.330"/>
      <line x1="549.714" y1="1630.330" x2="504.143" y2="1630.330"/>
      <line x1="549.714" y1="1631.330" x2="504.143" y2="1631.330"/>
      <line x1="549.714" y1="1632.330" x2="504.143" y2="1632.330"/>
      <line x1="549.714" y1="1633.330" x2="504.143" y2="1633.330"/>
      <line x1="549.714" y1="1634.330" x2="504.143" y2="1634.330"/>
      <line x1="549.714" y1="1635.330" x2="504.143" y2="1635.330"/>
      <line x1="549.714" y1="1636.330" x2="504.143" y2="1636.330"/>
      <line x1="549.714" y1="1637.330" x2="504.143" y2="1637.330"/>
      <line x1="549.714" y1="1638.330" x2="504.143" y2="1638.330"/>
      <line x1="549.714" y1="1639.330" x2="504.143" y2="1639.330"/>
      <line x1="549.714" y1="1640.330" x2="504.143" y2="1640.330"/>
      <line x1="549.714" y1="1641.330" x2="504.143" y2="1641.330"/>
      <line x1="549.714" y1="1642.330" x2="504.143" y2="1642.330"/>
      <line x1="549.714" y1="1643.330" x2="504.143" y2="1643.330"/>
      <line x1="549.714" y1="1644.330" x2="504.143" y2="1644.330"/>
      <line x1="549.714" y1="1645.330" x2="504.143" y2="1645.330"/>
      <line x1="549.714" y1="1646.330" x2="504.143" y2="1646.330"/>
      <line x1="549.714" y1="1647.330" x2="504.143" y2="1647.330"/>
      <line x1="549.714" y1="1648.330" x2="504.143" y2="1648.330"/>
      <line x1="549.714" y1="1649.330" x2="504.143" y2="1649.330"/>
      <line x1="549.714" y1="1650.330" x2="504.143" y2="1650.330"/>
      <line x1="549.714" y1="1651.330" x2="504.143" y2="1651.330"/>
      <line x1="549.714" y1="1652.330" x2="504.143" y2="1652.330"/>
      <line x1="549.714" y1="1653.330" x2="504.143" y2="1653.330"/>
      <line x1="549.714" y1="1654.330" x2="504.143" y2="1654.330"/>
      <line x1="549.714" y1="1655.330" x2="504.143" y2="1655.330"/>
      <line x1="549.714" y1="1656.330" x2="504.143" y2="1656.330"/>
      <line x1="549.714" y1="1657.330" x2="504.143" y2="1657.330"/>
      <line x1="549.714" y1="1658.330" x2="504.143" y2="1658.330"/>
      <line x1="549.714" y1="1659.330" x2="504.143" y2="1659.330"/>
      <line x1="549.714" y1="1660.330" x2="504.143" y2="1660.330"/>
      <line x1="549.714" y1="1661.330" x2="504.143" y2="1661.330"/>
      <line x1="549.714" y1="1662.330" x2="504.143" y2="1662.330"/>
      <line x1="549.714" y1="1663.330" x2="504.143" y2="1663.330"/>
      <line x1="549.714" y1="1664.330" x2="504.143" y2="1664.330"/>
      <line x1="549.714" y1="1665.330" x2="504.143" y2="1665.330"/>
      <line x1="549.714" y1="1666.330" x2="504.143" y2="1666.330"/>
      <line x1="549.714" y1="1667.330" x2="504.143" y2="1667.330"/>
      <line x1="549.714" y1="1668.330" x2="504.143" y2="1668.330"/>
      <line x1="549.714" y1="1669.330" x2="504.143" y2="1669.330"/>
      <line x1="549.714" y1="1670.330" x2="504.143" y2="1670.330"/>
      <line x1="549.714" y1="1671.330" x2="504.143" y2="1671.330"/>
      <line x1="549.714" y1="1672.330" x2="504.143" y2="1672.330"/>
      <line x1="549.714" y1="1673.330" x2="504.143" y2="1673.330"/>
      <line x1="549.714" y1="1674.330" x2="504.143" y2="1674.330"/>
      <line x1="549.714" y1="1675.330" x2="504.143" y2="1675.330"/>
      <line x1="549.714" y1="1676.330" x2="504.143" y2="1676.330"/>
      <line x1="549.714" y1="1677.330" x2="504.143" y2="1677.330"/>
      <line x1="549.714" y1="1678.330" x2="504.143" y2="1678.330"/>
      <line x1="453.943" y1="1579.330" x2="403.943" y2="1579.330"/>
      <line x1="453.943" y1="1580.330" x2="403.943" y2="1580.330"/>
      <line x1="453.943" y1="1581.330" x2="403.943" y2="1581.330"/>
      <line x1="453.943" y1="1582.330" x2="403.943" y2="1582.330"/>
      <line x1="453.943" y1="1583.330" x2="403.943" y2="1583.330"/>
      <line x1="453.943" y1="1584.330" x2="403.943" y2="1584.330"/>
      <line x1="453.943" y1="1585.330" x2="403.943" y2="1585.330"/>
      <line x1="453.943" y1="1586.330" x2="403.943" y2="1586.330"/>
      <line x1="453.943" y1="1587.330" x2="403.943" y2="1587.330"/>
      <line x1="453.943" y1="1588.330" x2="403.943" y2="1588.330"/>
      <line x1="453.943" y1="1589.330" x2="403.943" y2="1589.330"/>
      <line x1="453.943" y1="1590.330" x2="403.943" y2="1590.330"/>
      <line x1="453.943" y1="1591.330" x2="403.943" y2="1591.330"/>
      <line x1="453.943" y1="1592.330" x2="403.943" y2="1592.330"/>
      <line x1="453.943" y1="1593.330" x2="403.943" y2="1593.330"/>
      <line x1="453.943" y1="1594.330" x2="403.943" y2="1594.330"/>
      <line x1="453.943" y1="1595.330" x2="403.943" y2="1595.330"/>
      <line x1="453.943" y1="1596.330" x2="403.943" y2="1596.330"/>
      <line x1="453.943" y1="1597.330" x2="403.943" y2="1597.330"/>
      <line x1="453.943" y1="1598.330" x2="403.943" y2="1598.330"/>
      <line x1="453.943" y1="1599.330" x2="403.943" y2="1599.330"/>
      <line x1="453.943" y1="1600.330" x2="403.943" y2="1600.330"/>
      <line x1="453.943" y1="1601.330" x2="403.943" y2="1601.330"/>
      <line x1="453.943" y1="1602.330" x2="403.943" y2="1602.330"/>
      <line x1="453.943" y1="1603.330" x2="403.943" y2="1603.330"/>
      <line x1="453.943" y1="1604.330" x2="403.943" y2="1604.330"/>
      <line x1="453.943" y1="1605.330" x2="403.943" y2="1605.330"/>
      <line x1="453.943" y1="1606.330" x2="403.943" y2="1606.330"/>
      <line x1="453.943" y1="1607.330" x2="403.943" y2="1607.330"/>
      <line x1="453.943" y1="1608.330" x2="403.943" y2="1608.330"/>
      <line x1="453.943" y1="1609.330" x2="403.943" y2="1609.330"/>
      <line x1="453.943" y1="1610.330" x2="403.943" y2="1610.330"/>
      <line x1="453.943" y1="1611.330" x2="403.943" y2="1611.330"/>
      <line x1="453.943" y1="1612.330" x2="403.943" y2="1612.330"/>
      <line x1="453.943" y1="1613.330" x2="403.943" y2="1613.330"/>
      <line x1="453.943" y1="1614.330" x2="403.943" y2="1614.330"/>
      <line x1="453.943" y1="1615.330" x2="403.943" y2="1615.330"/>
      <line x1="453.943" y1="1616.330" x2="403.943" y2="1616.330"/>
      <line x1="453.943" y1="1617.330" x2="403.943" y2="1617.330"/>
      <line x1="453.943" y1="1618.330" x2="403.943" y2="1618.330"/>
      <line x1="453.943" y1="1619.330" x2="403.943" y2="1619.330"/>
      <line x1="453.943" y1="1620.330" x2="403.943" y2="1620.330"/>
      <line x1="453.943" y1="1621.330" x2="403.943" y2="1621.330"/>
      <line x1="453.943" y1="1622.330" x2="403.943" y2="1622.330"/>
      <line x1="453.943" y1="1623.330" x2="403.943" y2="1623.330"/>
      <line x1="453.943" y1="1624.330" x2="403.943" y2="1624.330"/>
      <line x1="453.943" y1="1625.330" x2="403.943" y2="1625.330"/>
      <line x1="453.943" y1="1626.330" x2="403.943" y2="1626.330"/>
      <line x1="453.943" y1="1627.330" x2="403.943" y2="1627.330"/>
      <line x1="453.943" y1="1628.330" x2="403.943" y2="1628.330"/>
      <line x1="504.043" y1="1579.330" x2="454.043" y2="1579.330"/>
      <line x1="504.043" y1="1580.330" x2="454.043" y2="1580.330"/>
      <line x1="504.043" y1="1581.330" x2="454.043" y2="1581.330"/>
      <line x1="504.043" y1="1582.330" x2="454.043" y2="1582.330"/>
      <line x1="504.043" y1="1583.330" x2="454.043" y2="1583.330"/>
      <line x1="504.043" y1="1584.330" x2="454.043" y2="1584.330"/>
      <line x1="504.043" y1="1585.330" x2="454.043" y2="1585.330"/>
      <line x1="504.043" y1="1586.330" x2="454.043" y2="1586.330"/>
      <line x1="504.043" y1="1587.330" x2="454.043" y2="1587.330"/>
      <line x1="504.043" y1="1588.330" x2="454.043" y2="1588.330"/>
      <line x1="504.043" y1="1589.330" x2="454.043" y2="1589.330"/>
      <line x1="504.043" y1="1590.330" x2="454.043" y2="1590.330"/>
      <line x1="504.043" y1="1591.330" x2="454.043" y2="1591.330"/>
      <line x1="504.043" y1="1592.330" x2="454.043" y2="1592.330"/>
      <line x1="504.043" y1="1593.330" x2="454.043" y2="1593.330"/>
      <line x1="504.043" y1="1594.330" x2="454.043" y2="1594.330"/>
      <line x1="504.043" y1="1595.330" x2="454.043" y2="1595.330"/>
      <line x1="504.043" y1="1596.330" x2="454.043" y2="1596.330"/>
      <line x1="504.043" y1="1597.330" x2="454.043" y2="1597.330"/>
      <line x1="504.043" y1="1598.330" x2="454.043" y2="1598.330"/>
      <line x1="504.043" y1="1599.330" x2="454.043" y2="1599.330"/>
      <line x1="504.043" y1="1600.330" x2="454.043" y2="1600.330"/>
      <line x1="504.043" y1="1601.330" x2="454.043" y2="1601.330"/>
      <line x1="504.043" y1="1602.330" x2="454.043" y2="1602.330"/>
      <line x1="504.043" y1="1603.330" x2="454.043" y2="1603.330"/>
      <line x1="504.043" y1="1604.330" x2="454.043" y2="1604.330"/>
      <line x1="504.043" y1="1605.330" x2="454.043" y2="1605.330"/>
      <line x1="504.043" y1="1606.330" x2="454.043" y2="1606.330"/>
      <line x1="504.043" y1="1607.330" x2="454.043" y2="1607.330"/>
      <line x1="504.043" y1="1608.330" x2="454.043" y2="1608.330"/>
      <line x1="504.043" y1="1609.330" x2="454.043" y2="1609.330"/>
      <line x1="504.043" y1="1610.330" x2="454.043" y2="1610.330"/>
      <line x1="504.043" y1="1611.330" x2="454.043" y2="1611.330"/>
      <line x1="504.043" y1="1612.330" x2="454.043" y2="1612.330"/>
      <line x1="504.043" y1="1613.330" x2="454.043" y2="1613.330"/>
      <line x1="504.043" y1="1614.330" x2="454.043" y2="1614.330"/>
      <line x1="504.043" y1="1615.330" x2="454.043" y2="1615.330"/>
      <line x1="504.043" y1="1616.330" x2="454.043" y2="1616.330"/>
      <line x1="504.043" y1="1617.330" x2="454.043" y2="1617.330"/>
      <line x1="504.043" y1="1618.330" x2="454.043" y2="1618.330"/>
      <line x1="504.043" y1="1619.330" x2="454.043" y2="1619.330"/>
      <line x1="504.043" y1="1620.330" x2="454.043" y2="1620.330"/>
      <line x1="504.043" y1="1621.330" x2="454.043" y2="1621.330"/>
      <line x1="504.043" y1="1622.330" x2="454.043" y2="1622.330"/>
      <line x1="504.043" y1="1623.330" x2="454.043" y2="1623.330"/>
      <line x1="504.043" y1="1624.330" x2="454.043" y2="1624.330"/>
      <line x1="504.043" y1="1625.330" x2="454.043" y2="1625.330"/>
      <line x1="504.043" y1="1626.330" x2="454.043" y2="1626.330"/>
      <line x1="504.043" y1="1627.330" x2="454.043" y2="1627.330"/>
      <line x1="504.043" y1="1628.330" x2="454.043" y2="1628.330"/>
      <line x1="549.714" y1="1579.330" x2="504.143" y2="1579.330"/>
      <line x1="549.714" y1="1580.330" x2="504.143" y2="1580.330"/>
      <line x1="549.714" y1="1581.330" x2="504.143" y2="1581.330"/>
      <line x1="549.714" y1="1582.330" x2="504.143" y2="1582.330"/>
      <line x1="549.714" y1="1583.330" x2="504.143" y2="1583.330"/>
      <line x1="549.714" y1="1584.330" x2="504.143" y2="1584.330"/>
      <line x1="549.714" y1="1585.330" x2="504.143" y2="1585.330"/>
      <line x1="549.714" y1="1586.330" x2="504.143" y2="1586.330"/>
      <line x1="549.714" y1="1587.330" x2="504.143" y2="1587.330"/>
      <line x1="549.714" y1="1588.330" x2="504.143" y2="1588.330"/>
      <line x1="549.714" y1="1589.330" x2="504.143" y2="1589.330"/>
      <line x1="549.714" y1="1590.330" x2="504.143" y2="1590.330"/>
      <line x1="549.714" y1="1591.330" x2="504.143" y2="1591.330"/>
      <line x1="549.714" y1="1592.330" x2="504.143" y2="1592.330"/>
      <line x1="549.714" y1="1593.330" x2="504.143" y2="1593.330"/>
      <line x1="549.714" y1="1594.330" x2="504.143" y2="1594.330"/>
      <line x1="549.714" y1="1595.330" x2="504.143" y2="1595.330"/>
      <line x1="549.714" y1="1596.330" x2="504.143" y2="1596.330"/>
      <line x1="549.714" y1="1597.330" x2="504.143" y2="1597.330"/>
      <line x1="549.714" y1="1598.330" x2="504.143" y2="1598.330"/>
      <line x1="549.714" y1="1599.330" x2="504.143" y2="1599.330"/>
      <line x1="549.714" y1="1600.330" x2="504.143" y2="1600.330"/>
      <line x1="549.714" y1="1601.330" x2="504.143" y2="1601.330"/>
      <line x1="549.714" y1="1602.330" x2="504.143" y2="1602.330"/>
      <line x1="549.714" y1="1603.330" x2="504.143" y2="1603.330"/>
      <line x1="549.714" y1="1604.330" x2="504.143" y2="1604.330"/>
      <line x1="549.714" y1="1605.330" x2="504.143" y2="1605.330"/>
      <line x1="549.714" y1="1606.330" x2="504.143" y2="1606.330"/>
      <line x1="549.714" y1="1607.330" x2="504.143" y2="1607.330"/>
      <line x1="549.714" y1="1608.330" x2="504.143" y2="1608.330"/>
      <line x1="549.714" y1="1609.330" x2="504.143" y2="1609.330"/>
      <line x1="549.714" y1="1610.330" x2="504.143" y2="1610.330"/>
      <line x1="549.714" y1="1611.330" x2="504.143" y2="1611.330"/>
      <line x1="549.714" y1="1612.330" x2="504.143" y2="1612.330"/>
      <line x1="549.714" y1="1613.330" x2="504.143" y2="1613.330"/>
      <line x1="549.714" y1="1614.330" x2="504.143" y2="1614.330"/>
      <line x1="549.714" y1="1615.330" x2="504.143" y2="1615.330"/>
      <line x1="549.714" y1="1616.330" x2="504.143" y2="1616.330"/>
      <line x1="549.714" y1="1617.330" x2="504.143" y2="1617.330"/>
      <line x1="549.714" y1="1618.330" x2="504.143" y2="1618.330"/>
      <line x1="549.714" y1="1619.330" x2="504.143" y2="1619.330"/>
      <line x1="549.714" y1="1620.330" x2="504.143" y2="1620.330"/>
      <line x1="549.714" y1="1621.330" x2="504.143" y2="1621.330"/>
      <line x1="549.714" y1="1622.330" x2="504.143" y2="1622.330"/>
      <line x1="549.714" y1="1623.330" x2="504.143" y2="1623.330"/>
      <line x1="549.714" y1="1624.330" x2="504.143" y2="1624.330"/>
      <line x1="549.714" y1="1625.330" x2="504.143" y2="1625.330"/>
      <line x1="549.714" y1="1626.330" x2="504.143" y2="1626.330"/>
      <line x1="549.714" y1="1627.330" x2="504.143" y2="1627.330"/>
      <line x1="549.714" y1="1628.330" x2="504.143" y2="1628.330"/>
      <line x1="453.943" y1="1529.330" x2="403.943" y2="1529.330"/>
      <line x1="453.943" y1="1530.330" x2="403.943" y2="1530.330"/>
      <line x1="453.943" y1="1531.330" x2="403.943" y2="1531.330"/>
      <line x1="453.943" y1="1532.330" x2="403.943" y2="1532.330"/>
      <line x1="453.943" y1="1533.330" x2="403.943" y2="1533.330"/>
      <line x1="453.943" y1="1534.330" x2="403.943" y2="1534.330"/>
      <line x1="453.943" y1="1535.330" x2="403.943" y2="1535.330"/>
      <line x1="453.943" y1="1536.330" x2="403.943" y2="1536.330"/>
      <line x1="453.943" y1="1537.330" x2="403.943" y2="1537.330"/>
      <line x1="453.943" y1="1538.330" x2="403.943" y2="1538.330"/>
      <line x1="453.943" y1="1539.330" x2="403.943" y2="1539.330"/>
      <line x1="453.943" y1="1540.330" x2="403.943" y2="1540.330"/>
      <line x1="453.943" y1="1541.330" x2="403.943" y2="1541.330"/>
      <line x1="453.943" y1="1542.330" x2="403.943" y2="1542.330"/>
      <line x1="453.943" y1="1543.330" x2="403.943" y2="1543.330"/>
      <line x1="453.943" y1="1544.330" x2="403.943" y2="1544.330"/>
      <line x1="453.943" y1="1545.330" x2="403.943" y2="1545.330"/>
      <line x1="453.943" y1="1546.330" x2="403.943" y2="1546.330"/>
      <line x1="453.943" y1="1547.330" x2="403.943" y2="1547.330"/>
      <line x1="453.943" y1="1548.330" x2="403.943" y2="1548.330"/>
      <line x1="453.943" y1="1549.330" x2="403.943" y2="1549.330"/>
      <line x1="453.943" y1="1550.330" x2="403.943" y2="1550.330"/>
      <line x1="453.943" y1="1551.330" x2="403.943" y2="1551.330"/>
      <line x1="453.943" y1="1552.330" x2="403.943" y2="1552.330"/>
      <line x1="453.943" y1="1553.330" x2="403.943" y2="1553.330"/>
      <line x1="453.943" y1="1554.330" x2="403.943" y2="1554.330"/>
      <line x1="453.943" y1="1555.330" x2="403.943" y2="1555.330"/>
      <line x1="453.943" y1="1556.330" x2="403.943" y2="1556.330"/>
      <line x1="453.943" y1="1557.330" x2="403.943" y2="1557.330"/>
      <line x1="453.943" y1="1558.330" x2="403.943" y2="1558.330"/>
      <line x1="453.943" y1="1559.330" x2="403.943" y2="1559.330"/>
      <line x1="453.943" y1="1560.330" x2="403.943" y2="1560.330"/>
      <line x1="453.943" y1="1561.330" x2="403.943" y2="1561.330"/>
      <line x1="453.943" y1="1562.330" x2="403.943" y2="1562.330"/>
      <line x1="453.943" y1="1563.330" x2="403.943" y2="1563.330"/>
      <line x1="453.943" y1="1564.330" x2="403.943" y2="1564.330"/>
      <line x1="453.943" y1="1565.330" x2="403.943" y2="1565.330"/>
      <line x1="453.943" y1="1566.330" x2="403.943" y2="1566.330"/>
      <line x1="453.943" y1="1567.330" x2="403.943" y2="1567.330"/>
      <line x1="453.943" y1="1568.330" x2="403.943" y2="1568.330"/>
      <line x1="453.943" y1="1569.330" x2="403.943" y2="1569.330"/>
      <line x1="453.943" y1="1570.330" x2="403.943" y2="1570.330"/>
      <line x1="453.943" y1="1571.330" x2="403.943" y2="1571.330"/>
      <line x1="453.943" y1="1572.330" x2="403.943" y2="1572.330"/>
      <line x1="453.943" y1="1573.330" x2="403.943" y2="1573.330"/>
      <line x1="453.943" y1="1574.330" x2="403.943" y2="1574.330"/>
      <line x1="453.943" y1="1575.330" x2="403.943" y2="1575.330"/>
      <line x1="453.943" y1="1576.330" x2="403.943" y2="1576.330"/>
      <line x1="453.943" y1="1577.330" x2="403.943" y2="1577.330"/>
      <line x1="453.943" y1="1578.330" x2="403.943" y2="1578.330"/>
      <line x1="504.043" y1="1529.330" x2="454.043" y2="1529.330"/>
      <line x1="504.043" y1="1530.330" x2="454.043" y2="1530.330"/>
      <line x1="504.043" y1="1531.330" x2="454.043" y2="1531.330"/>
      <line x1="504.043" y1="1532.330" x2="454.043" y2="1532.330"/>
      <line x1="504.043" y1="1533.330" x2="454.043" y2="1533.330"/>
      <line x1="504.043" y1="1534.330" x2="454.043" y2="1534.330"/>
      <line x1="504.043" y1="1535.330" x2="454.043" y2="1535.330"/>
      <line x1="504.043" y1="1536.330" x2="454.043" y2="1536.330"/>
      <line x1="504.043" y1="1537.330" x2="454.043" y2="1537.330"/>
      <line x1="504.043" y1="1538.330" x2="454.043" y2="1538.330"/>
      <line x1="504.043" y1="1539.330" x2="454.043" y2="1539.330"/>
      <line x1="504.043" y1="1540.330" x2="454.043" y2="1540.330"/>
      <line x1="504.043" y1="1541.330" x2="454.043" y2="1541.330"/>
      <line x1="504.043" y1="1542.330" x2="454.043" y2="1542.330"/>
      <line x1="504.043" y1="1543.330" x2="454.043" y2="1543.330"/>
      <line x1="504.043" y1="1544.330" x2="454.043" y2="1544.330"/>
      <line x1="504.043" y1="1545.330" x2="454.043" y2="1545.330"/>
      <line x1="504.043" y1="1546.330" x2="454.043" y2="1546.330"/>
      <line x1="504.043" y1="1547.330" x2="454.043" y2="1547.330"/>
      <line x1="504.043" y1="1548.330" x2="454.043" y2="1548.330"/>
      <line x1="504.043" y1="1549.330" x2="454.043" y2="1549.330"/>
      <line x1="504.043" y1="1550.330" x2="454.043" y2="1550.330"/>
      <line x1="504.043" y1="1551.330" x2="454.043" y2="1551.330"/>
      <line x1="504.043" y1="1552.330" x2="454.043" y2="1552.330"/>
      <line x1="504.043" y1="1553.330" x2="454.043" y2="1553.330"/>
      <line x1="504.043" y1="1554.330" x2="454.043" y2="1554.330"/>
      <line x1="504.043" y1="1555.330" x2="454.043" y2="1555.330"/>
      <line x1="504.043" y1="1556.330" x2="454.043" y2="1556.330"/>
      <line x1="504.043" y1="1557.330" x2="454.043" y2="1557.330"/>
      <line x1="504.043" y1="1558.330" x2="454.043" y2="1558.330"/>
      <line x1="504.043" y1="1559.330" x2="454.043" y2="1559.330"/>
      <line x1="504.043" y1="1560.330" x2="454.043" y2="1560.330"/>
      <line x1="504.043" y1="1561.330" x2="454.043" y2="1561.330"/>
      <line x1="504.043" y1="1562.330" x2="454.043" y2="1562.330"/>
      <line x1="504.043" y1="1563.330" x2="454.043" y2="1563.330"/>
      <line x1="504.043" y1="1564.330" x2="454.043" y2="1564.330"/>
      <line x1="504.043" y1="1565.330" x2="454.043" y2="1565.330"/>
      <line x1="504.043" y1="1566.330" x2="454.043" y2="1566.330"/>
      <line x1="504.043" y1="1567.330" x2="454.043" y2="1567.330"/>
      <line x1="504.043" y1="1568.330" x2="454.043" y2="1568.330"/>
      <line x1="504.043" y1="1569.330" x2="454.043" y2="1569.330"/>
      <line x1="504.043" y1="1570.330" x2="454.043" y2="1570.330"/>
      <line x1="504.043" y1="1571.330" x2="454.043" y2="1571.330"/>
      <line x1="504.043" y1="1572.330" x2="454.043" y2="1572.330"/>
      <line x1="504.043" y1="1573.330" x2="454.043" y2="1573.330"/>
      <line x1="504.043" y1="1574.330" x2="454.043" y2="1574.330"/>
      <line x1="504.043" y1="1575.330" x2="454.043" y2="1575.330"/>
      <line x1="504.043" y1="1576.330" x2="454.043" y2="1576.330"/>
      <line x1="504.043" y1="1577.330" x2="454.043" y2="1577.330"/>
      <line x1="504.043" y1="1578.330" x2="454.043" y2="1578.330"/>
      <line x1="549.714" y1="1529.330" x2="504.143" y2="1529.330"/>
      <line x1="549.714" y1="1530.330" x2="504.143" y2="1530.330"/>
      <line x1="549.714" y1="1531.330" x2="504.143" y2="1531.330"/>
      <line x1="549.714" y1="1532.330" x2="504.143" y2="1532.330"/>
      <line x1="549.714" y1="1533.330" x2="504.143" y2="1533.330"/>
      <line x1="549.714" y1="1534.330" x2="504.143" y2="1534.330"/>
      <line x1="549.714" y1="1535.330" x2="504.143" y2="1535.330"/>
      <line x1="549.714" y1="1536.330" x2="504.143" y2="1536.330"/>
      <line x1="549.714" y1="1537.330" x2="504.143" y2="1537.330"/>
      <line x1="549.714" y1="1538.330" x2="504.143" y2="1538.330"/>
      <line x1="549.714" y1="1539.330" x2="504.143" y2="1539.330"/>
      <line x1="549.714" y1="1540.330" x2="504.143" y2="1540.330"/>
      <line x1="549.714" y1="1541.330" x2="504.143" y2="1541.330"/>
      <line x1="549.714" y1="1542.330" x2="504.143" y2="1542.330"/>
      <line x1="549.714" y1="1543.330" x2="504.143" y2="1543.330"/>
      <line x1="549.714" y1="1544.330" x2="504.143" y2="1544.330"/>
      <line x1="549.714" y1="1545.330" x2="504.143" y2="1545.330"/>
      <line x1="549.714" y1="1546.330" x2="504.143" y2="1546.330"/>
      <line x1="549.714" y1="1547.330" x2="504.143" y2="1547.330"/>
      <line x1="549.714" y1="1548.330" x2="504.143" y2="1548.330"/>
      <line x1="549.714" y1="1549.330" x2="504.143" y2="1549.330"/>
      <line x1="549.714" y1="1550.330" x2="504.143" y2="1550.330"/>
      <line x1="549.714" y1="1551.330" x2="504.143" y2="1551.330"/>
      <line x1="549.714" y1="1552.330" x2="504.143" y2="1552.330"/>
      <line x1="549.714" y1="1553.330" x2="504.143" y2="1553.330"/>
      <line x1="549.714" y1="1554.330" x2="504.143" y2="1554.330"/>
      <line x1="549.714" y1="1555.330" x2="504.143" y2="1555.330"/>
      <line x1="549.714" y1="1556.330" x2="504.143" y2="1556.330"/>
      <line x1="549.714" y1="1557.330" x2="504.143" y2="1557.330"/>
      <line x1="549.714" y1="1558.330" x2="504.143" y2="1558.330"/>
      <line x1="549.714" y1="1559.330" x2="504.143" y2="1559.330"/>
      <line x1="549.714" y1="1560.330" x2="504.143" y2="1560.330"/>
      <line x1="549.714" y1="1561.330" x2="504.143" y2="1561.330"/>
      <line x1="549.714" y1="1562.330" x2="504.143" y2="1562.330"/>
      <line x1="549.714" y1="1563.330" x2="504.143" y2="1563.330"/>
      <line x1="549.714" y1="1564.330" x2="504.143" y2="1564.330"/>
      <line x1="549.714" y1="1565.330" x2="504.143" y2="1565.330"/>
      <line x1="549.714" y1="1566.330" x2="504.143" y2="1566.330"/>
      <line x1="549.714" y1="1567.330" x2="504.143" y2="1567.330"/>
      <line x1="549.714" y1="1568.330" x2="504.143" y2="1568.330"/>
      <line x1="549.714" y1="1569.330" x2="504.143" y2="1569.330"/>
      <line x1="549.714" y1="1570.330" x2="504.143" y2="1570.330"/>
      <line x1="549.714" y1="1571.330" x2="504.143" y2="1571.330"/>
      <line x1="549.714" y1="1572.330" x2="504.143" y2="1572.330"/>
      <line x1="549.714" y1="1573.330" x2="504.143" y2="1573.330"/>
      <line x1="549.714" y1="1574.330" x2="504.143" y2="1574.330"/>
      <line x1="549.714" y1="1575.330" x2="504.143" y2="1575.330"/>
      <line x1="549.714" y1="1576.330" x2="504.143" y2="1576.330"/>
      <line x1="549.714" y1="1577.330" x2="504.143" y2="1577.330"/>
      <line x1="549.714" y1="1578.330" x2="504.143" y2="1578.330"/>
      <line x1="453.943" y1="1525.330" x2="403.943" y2="1525.330"/>
      <line x1="453.943" y1="1526.330" x2="403.943" y2="1526.330"/>
      <line x1="453.943" y1="1527.330" x2="403.943" y2="1527.330"/>
      <line x1="453.943" y1="1528.330" x2="403.943" y2="1528.330"/>
      <line x1="504.043" y1="1525.330" x2="454.043" y2="1525.330"/>
      <line x1="504.043" y1="1526.330" x2="454.043" y2="1526.330"/>
      <line x1="504.043" y1="1527.330" x2="454.043" y2="1527.330"/>
      <line x1="504.043" y1="1528.330" x2="454.043" y2="1528.330"/>
      <line x1="549.714" y1="1525.330" x2="504.143" y2="1525.330"/>
      <line x1="549.714" y1="1526.330" x2="504.143" y2="1526.330"/>
      <line x1="549.714" y1="1527.330" x2="504.143" y2="1527.330"/>
      <line x1="549.714" y1="1528.330" x2="504.143" y2="1528.330"/>
      <line x1="403.943" y1="1629.405" x2="390.479" y2="1629.405"/>
      <line x1="403.943" y1="1630.405" x2="390.479" y2="1630.405"/>
      <line x1="403.943" y1="1631.405" x2="390.479" y2="1631.405"/>
      <line x1="403.943" y1="1632.405" x2="390.479" y2="1632.405"/>
      <line x1="403.943" y1="1633.405" x2="390.479" y2="1633.405"/>
      <line x1="403.943" y1="1634.405" x2="390.479" y2="1634.405"/>
      <line x1="403.943" y1="1635.405" x2="390.479" y2="1635.405"/>
      <line x1="403.943" y1="1636.405" x2="390.479" y2="1636.405"/>
      <line x1="403.943" y1="1637.405" x2="390.479" y2="1637.405"/>
      <line x1="403.943" y1="1638.405" x2="390.479" y2="1638.405"/>
      <line x1="403.943" y1="1639.405" x2="390.479" y2="1639.405"/>
      <line x1="403.943" y1="1640.405" x2="390.479" y2="1640.405"/>
      <line x1="403.943" y1="1641.405" x2="390.479" y2="1641.405"/>
      <line x1="403.943" y1="1642.405" x2="390.479" y2="1642.405"/>
      <line x1="403.943" y1="1643.405" x2="390.479" y2="1643.405"/>
      <line x1="403.943" y1="1644.405" x2="390.479" y2="1644.405"/>
      <line x1="403.943" y1="1645.405" x2="390.479" y2="1645.405"/>
      <line x1="403.943" y1="1646.405" x2="390.479" y2="1646.405"/>
      <line x1="403.943" y1="1647.405" x2="390.479" y2="1647.405"/>
      <line x1="403.943" y1="1648.405" x2="390.479" y2="1648.405"/>
      <line x1="403.943" y1="1649.405" x2="390.479" y2="1649.405"/>
      <line x1="403.943" y1="1650.405" x2="390.479" y2="1650.405"/>
      <line x1="403.943" y1="1651.405" x2="390.479" y2="1651.405"/>
      <line x1="403.943" y1="1652.405" x2="390.479" y2="1652.405"/>
      <line x1="403.943" y1="1653.405" x2="390.479" y2="1653.405"/>
      <line x1="403.943" y1="1654.405" x2="390.479" y2="1654.405"/>
      <line x1="403.943" y1="1655.405" x2="390.479" y2="1655.405"/>
      <line x1="403.943" y1="1656.405" x2="390.479" y2="1656.405"/>
      <line x1="403.943" y1="1657.405" x2="390.479" y2="1657.405"/>
      <line x1="403.943" y1="1658.405" x2="390.479" y2="1658.405"/>
      <line x1="403.943" y1="1659.405" x2="390.479" y2="1659.405"/>
      <line x1="403.943" y1="1660.405" x2="390.479" y2="1660.405"/>
      <line x1="403.943" y1="1661.405" x2="390.479" y2="1661.405"/>
      <line x1="403.943" y1="1662.405" x2="390.479" y2="1662.405"/>
      <line x1="403.943" y1="1663.405" x2="390.479" y2="1663.405"/>
      <line x1="403.943" y1="1664.405" x2="390.479" y2="1664.405"/>
      <line x1="403.943" y1="1665.405" x2="390.479" y2="1665.405"/>
      <line x1="403.943" y1="1666.405" x2="390.479" y2="1666.405"/>
      <line x1="403.943" y1="1667.405" x2="390.479" y2="1667.405"/>
      <line x1="403.943" y1="1668.405" x2="390.479" y2="1668.405"/>
      <line x1="403.943" y1="1669.405" x2="390.479" y2="1669.405"/>
      <line x1="403.943" y1="1670.405" x2="390.479" y2="1670.405"/>
      <line x1="403.943" y1="1671.405" x2="390.479" y2="1671.405"/>
      <line x1="403.943" y1="1672.405" x2="390.479" y2="1672.405"/>
      <line x1="403.943" y1="1673.405" x2="390.479" y2="1673.405"/>
      <line x1="403.943" y1="1674.405" x2="390.479" y2="1674.405"/>
      <line x1="403.943" y1="1675.405" x2="390.479" y2="1675.405"/>
      <line x1="403.943" y1="1676.405" x2="390.479" y2="1676.405"/>
      <line x1="403.943" y1="1677.405" x2="390.479" y2="1677.405"/>
      <line x1="403.943" y1="1678.405" x2="390.479" y2="1678.405"/>
      <line x1="403.943" y1="1579.405" x2="390.479" y2="1579.405"/>
      <line x1="403.943" y1="1580.405" x2="390.479" y2="1580.405"/>
      <line x1="403.943" y1="1581.405" x2="390.479" y2="1581.405"/>
      <line x1="403.943" y1="1582.405" x2="390.479" y2="1582.405"/>
      <line x1="403.943" y1="1583.405" x2="390.479" y2="1583.405"/>
      <line x1="403.943" y1="1584.405" x2="390.479" y2="1584.405"/>
      <line x1="403.943" y1="1585.405" x2="390.479" y2="1585.405"/>
      <line x1="403.943" y1="1586.405" x2="390.479" y2="1586.405"/>
      <line x1="403.943" y1="1587.405" x2="390.479" y2="1587.405"/>
      <line x1="403.943" y1="1588.405" x2="390.479" y2="1588.405"/>
      <line x1="403.943" y1="1589.405" x2="390.479" y2="1589.405"/>
      <line x1="403.943" y1="1590.405" x2="390.479" y2="1590.405"/>
      <line x1="403.943" y1="1591.405" x2="390.479" y2="1591.405"/>
      <line x1="403.943" y1="1592.405" x2="390.479" y2="1592.405"/>
      <line x1="403.943" y1="1593.405" x2="390.479" y2="1593.405"/>
      <line x1="403.943" y1="1594.405" x2="390.479" y2="1594.405"/>
      <line x1="403.943" y1="1595.405" x2="390.479" y2="1595.405"/>
      <line x1="403.943" y1="1596.405" x2="390.479" y2="1596.405"/>
      <line x1="403.943" y1="1597.405" x2="390.479" y2="1597.405"/>
      <line x1="403.943" y1="1598.405" x2="390.479" y2="1598.405"/>
      <line x1="403.943" y1="1599.405" x2="390.479" y2="1599.405"/>
      <line x1="403.943" y1="1600.405" x2="390.479" y2="1600.405"/>
      <line x1="403.943" y1="1601.405" x2="390.479" y2="1601.405"/>
      <line x1="403.943" y1="1602.405" x2="390.479" y2="1602.405"/>
      <line x1="403.943" y1="1603.405" x2="390.479" y2="1603.405"/>
      <line x1="403.943" y1="1604.405" x2="390.479" y2="1604.405"/>
      <line x1="403.943" y1="1605.405" x2="390.479" y2="1605.405"/>
      <line x1="403.943" y1="1606.405" x2="390.479" y2="1606.405"/>
      <line x1="403.943" y1="1607.405" x2="390.479" y2="1607.405"/>
      <line x1="403.943" y1="1608.405" x2="390.479" y2="1608.405"/>
      <line x1="403.943" y1="1609.405" x2="390.479" y2="1609.405"/>
      <line x1="403.943" y1="1610.405" x2="390.479" y2="1610.405"/>
      <line x1="403.943" y1="1611.405" x2="390.479" y2="1611.405"/>
      <line x1="403.943" y1="1612.405" x2="390.479" y2="1612.405"/>
      <line x1="403.943" y1="1613.405" x2="390.479" y2="1613.405"/>
      <line x1="403.943" y1="1614.405" x2="390.479" y2="1614.405"/>
      <line x1="403.943" y1="1615.405" x2="390.479" y2="1615.405"/>
      <line x1="403.943" y1="1616.405" x2="390.479" y2="1616.405"/>
      <line x1="403.943" y1="1617.405" x2="390.479" y2="1617.405"/>
      <line x1="403.943" y1="1618.405" x2="390.479" y2="1618.405"/>
      <line x1="403.943" y1="1619.405" x2="390.479" y2="1619.405"/>
      <line x1="403.943" y1="1620.405" x2="390.479" y2="1620.405"/>
      <line x1="403.943" y1="1621.405" x2="390.479" y2="1621.405"/>
      <line x1="403.943" y1="1622.405" x2="390.479" y2="1622.405"/>
      <line x1="403.943" y1="1623.405" x2="390.479" y2="1623.405"/>
      <line x1="403.943" y1="1624.405" x2="390.479" y2="1624.405"/>
      <line x1="403.943" y1="1625.405" x2="390.479" y2="1625.405"/>
      <line x1="403.943" y1="1626.405" x2="390.479" y2="1626.405"/>
      <line x1="403.943" y1="1627.405" x2="390.479" y2="1627.405"/>
      <line x1="403.943" y1="1628.405" x2="390.479" y2="1628.405"/>
      <line x1="403.943" y1="1529.405" x2="390.479" y2="1529.405"/>
      <line x1="403.943" y1="1530.405" x2="390.479" y2="1530.405"/>
      <line x1="403.943" y1="1531.405" x2="390.479" y2="1531.405"/>
      <line x1="403.943" y1="1532.405" x2="390.479" y2="1532.405"/>
      <line x1="403.943" y1="1533.405" x2="390.479" y2="1533.405"/>
      <line x1="403.943" y1="1534.405" x2="390.479" y2="1534.405"/>
      <line x1="403.943" y1="1535.405" x2="390.479" y2="1535.405"/>
      <line x1="403.943" y1="1536.405" x2="390.479" y2="1536.405"/>
      <line x1="403.943" y1="1537.405" x2="390.479" y2="1537.405"/>
      <line x1="403.943" y1="1538.405" x2="390.479" y2="1538.405"/>
      <line x1="403.943" y1="1539.405" x2="390.479" y2="1539.405"/>
      <line x1="403.943" y1="1540.405" x2="390.479" y2="1540.405"/>
      <line x1="403.943" y1="1541.405" x2="390.479" y2="1541.405"/>
      <line x1="403.943" y1="1542.405" x2="390.479" y2="1542.405"/>
      <line x1="403.943" y1="1543.405" x2="390.479" y2="1543.405"/>
      <line x1="403.943" y1="1544.405" x2="390.479" y2="1544.405"/>
      <line x1="403.943" y1="1545.405" x2="390.479" y2="1545.405"/>
      <line x1="403.943" y1="1546.405" x2="390.479" y2="1546.405"/>
      <line x1="403.943" y1="1547.405" x2="390.479" y2="1547.405"/>
      <line x1="403.943" y1="1548.405" x2="390.479" y2="1548.405"/>
      <line x1="403.943" y1="1549.405" x2="390.479" y2="1549.405"/>
      <line x1="403.943" y1="1550.405" x2="390.479" y2="1550.405"/>
      <line x1="403.943" y1="1551.405" x2="390.479" y2="1551.405"/>
      <line x1="403.943" y1="1552.405" x2="390.479" y2="1552.405"/>
      <line x1="403.943" y1="1553.405" x2="390.479" y2="1553.405"/>
      <line x1="403.943" y1="1554.405" x2="390.479" y2="1554.405"/>
      <line x1="403.943" y1="1555.405" x2="390.479" y2="1555.405"/>
      <line x1="403.943" y1="1556.405" x2="390.479" y2="1556.405"/>
      <line x1="403.943" y1="1557.405" x2="390.479" y2="1557.405"/>
      <line x1="403.943" y1="1558.405" x2="390.479" y2="1558.405"/>
      <line x1="403.943" y1="1559.405" x2="390.479" y2="1559.405"/>
      <line x1="403.943" y1="1560.405" x2="390.479" y2="1560.405"/>
      <line x1="403.943" y1="1561.405" x2="390.479" y2="1561.405"/>
      <line x1="403.943" y1="1562.405" x2="390.479" y2="1562.405"/>
      <line x1="403.943" y1="1563.405" x2="390.479" y2="1563.405"/>
      <line x1="403.943" y1="1564.405" x2="390.479" y2="1564.405"/>
      <line x1="403.943" y1="1565.405" x2="390.479" y2="1565.405"/>
      <line x1="403.943" y1="1566.405" x2="390.479" y2="1566.405"/>
      <line x1="403.943" y1="1567.405" x2="390.479" y2="1567.405"/>
      <line x1="403.943" y1="1568.405" x2="390.479" y2="1568.405"/>
      <line x1="403.943" y1="1569.405" x2="390.479" y2="1569.405"/>
      <line x1="403.943" y1="1570.405" x2="390.479" y2="1570.405"/>
      <line x1="403.943" y1="1571.405" x2="390.479" y2="1571.405"/>
      <line x1="403.943" y1="1572.405" x2="390.479" y2="1572.405"/>
      <line x1="403.943" y1="1573.405" x2="390.479" y2="1573.405"/>
      <line x1="403.943" y1="1574.405" x2="390.479" y2="1574.405"/>
      <line x1="403.943" y1="1575.405" x2="390.479" y2="1575.405"/>
      <line x1="403.943" y1="1576.405" x2="390.479" y2="1576.405"/>
      <line x1="403.943" y1="1577.405" x2="390.479" y2="1577.405"/>
      <line x1="403.943" y1="1578.405" x2="390.479" y2="1578.405"/>
      <line x1="403.943" y1="1525.405" x2="390.479" y2="1525.405"/>
      <line x1="403.943" y1="1526.405" x2="390.479" y2="1526.405"/>
      <line x1="403.943" y1="1527.405" x2="390.479" y2="1527.405"/>
      <line x1="403.943" y1="1528.405" x2="390.479" y2="1528.405"/>
      <line x1="209.521" y1="1629.405" x2="196.057" y2="1629.405"/>
      <line x1="209.521" y1="1630.405" x2="196.057" y2="1630.405"/>
      <line x1="209.521" y1="1631.405" x2="196.057" y2="1631.405"/>
      <line x1="209.521" y1="1632.405" x2="196.057" y2="1632.405"/>
      <line x1="209.521" y1="1633.405" x2="196.057" y2="1633.405"/>
      <line x1="209.521" y1="1634.405" x2="196.057" y2="1634.405"/>
      <line x1="209.521" y1="1635.405" x2="196.057" y2="1635.405"/>
      <line x1="209.521" y1="1636.405" x2="196.057" y2="1636.405"/>
      <line x1="209.521" y1="1637.405" x2="196.057" y2="1637.405"/>
      <line x1="209.521" y1="1638.405" x2="196.057" y2="1638.405"/>
      <line x1="209.521" y1="1639.405" x2="196.057" y2="1639.405"/>
      <line x1="209.521" y1="1640.405" x2="196.057" y2="1640.405"/>
      <line x1="209.521" y1="1641.405" x2="196.057" y2="1641.405"/>
      <line x1="209.521" y1="1642.405" x2="196.057" y2="1642.405"/>
      <line x1="209.521" y1="1643.405" x2="196.057" y2="1643.405"/>
      <line x1="209.521" y1="1644.405" x2="196.057" y2="1644.405"/>
      <line x1="209.521" y1="1645.405" x2="196.057" y2="1645.405"/>
      <line x1="209.521" y1="1646.405" x2="196.057" y2="1646.405"/>
      <line x1="209.521" y1="1647.405" x2="196.057" y2="1647.405"/>
      <line x1="209.521" y1="1648.405" x2="196.057" y2="1648.405"/>
      <line x1="209.521" y1="1649.405" x2="196.057" y2="1649.405"/>
      <line x1="209.521" y1="1650.405" x2="196.057" y2="1650.405"/>
      <line x1="209.521" y1="1651.405" x2="196.057" y2="1651.405"/>
      <line x1="209.521" y1="1652.405" x2="196.057" y2="1652.405"/>
      <line x1="209.521" y1="1653.405" x2="196.057" y2="1653.405"/>
      <line x1="209.521" y1="1654.405" x2="196.057" y2="1654.405"/>
      <line x1="209.521" y1="1655.405" x2="196.057" y2="1655.405"/>
      <line x1="209.521" y1="1656.405" x2="196.057" y2="1656.405"/>
      <line x1="209.521" y1="1657.405" x2="196.057" y2="1657.405"/>
      <line x1="209.521" y1="1658.405" x2="196.057" y2="1658.405"/>
      <line x1="209.521" y1="1659.405" x2="196.057" y2="1659.405"/>
      <line x1="209.521" y1="1660.405" x2="196.057" y2="1660.405"/>
      <line x1="209.521" y1="1661.405" x2="196.057" y2="1661.405"/>
      <line x1="209.521" y1="1662.405" x2="196.057" y2="1662.405"/>
      <line x1="209.521" y1="1663.405" x2="196.057" y2="1663.405"/>
      <line x1="209.521" y1="1664.405" x2="196.057" y2="1664.405"/>
      <line x1="209.521" y1="1665.405" x2="196.057" y2="1665.405"/>
      <line x1="209.521" y1="1666.405" x2="196.057" y2="1666.405"/>
      <line x1="209.521" y1="1667.405" x2="196.057" y2="1667.405"/>
      <line x1="209.521" y1="1668.405" x2="196.057" y2="1668.405"/>
      <line x1="209.521" y1="1669.405" x2="196.057" y2="1669.405"/>
      <line x1="209.521" y1="1670.405" x2="196.057" y2="1670.405"/>
      <line x1="209.521" y1="1671.405" x2="196.057" y2="1671.405"/>
      <line x1="209.521" y1="1672.405" x2="196.057" y2="1672.405"/>
      <line x1="209.521" y1="1673.405" x2="196.057" y2="1673.405"/>
      <line x1="209.521" y1="1674.405" x2="196.057" y2="1674.405"/>
      <line x1="209.521" y1="1675.405" x2="196.057" y2="1675.405"/>
      <line x1="209.521" y1="1676.405" x2="196.057" y2="1676.405"/>
      <line x1="209.521" y1="1677.405" x2="196.057" y2="1677.405"/>
      <line x1="209.521" y1="1678.405" x2="196.057" y2="1678.405"/>
      <line x1="209.521" y1="1579.405" x2="196.057" y2="1579.405"/>
      <line x1="209.521" y1="1580.405" x2="196.057" y2="1580.405"/>
      <line x1="209.521" y1="1581.405" x2="196.057" y2="1581.405"/>
      <line x1="209.521" y1="1582.405" x2="196.057" y2="1582.405"/>
      <line x1="209.521" y1="1583.405" x2="196.057" y2="1583.405"/>
      <line x1="209.521" y1="1584.405" x2="196.057" y2="1584.405"/>
      <line x1="209.521" y1="1585.405" x2="196.057" y2="1585.405"/>
      <line x1="209.521" y1="1586.405" x2="196.057" y2="1586.405"/>
      <line x1="209.521" y1="1587.405" x2="196.057" y2="1587.405"/>
      <line x1="209.521" y1="1588.405" x2="196.057" y2="1588.405"/>
      <line x1="209.521" y1="1589.405" x2="196.057" y2="1589.405"/>
      <line x1="209.521" y1="1590.405" x2="196.057" y2="1590.405"/>
      <line x1="209.521" y1="1591.405" x2="196.057" y2="1591.405"/>
      <line x1="209.521" y1="1592.405" x2="196.057" y2="1592.405"/>
      <line x1="209.521" y1="1593.405" x2="196.057" y2="1593.405"/>
      <line x1="209.521" y1="1594.405" x2="196.057" y2="1594.405"/>
      <line x1="209.521" y1="1595.405" x2="196.057" y2="1595.405"/>
      <line x1="209.521" y1="1596.405" x2="196.057" y2="1596.405"/>
      <line x1="209.521" y1="1597.405" x2="196.057" y2="1597.405"/>
      <line x1="209.521" y1="1598.405" x2="196.057" y2="1598.405"/>
      <line x1="209.521" y1="1599.405" x2="196.057" y2="1599.405"/>
      <line x1="209.521" y1="1600.405" x2="196.057" y2="1600.405"/>
      <line x1="209.521" y1="1601.405" x2="196.057" y2="1601.405"/>
      <line x1="209.521" y1="1602.405" x2="196.057" y2="1602.405"/>
      <line x1="209.521" y1="1603.405" x2="196.057" y2="1603.405"/>
      <line x1="209.521" y1="1604.405" x2="196.057" y2="1604.405"/>
      <line x1="209.521" y1="1605.405" x2="196.057" y2="1605.405"/>
      <line x1="209.521" y1="1606.405" x2="196.057" y2="1606.405"/>
      <line x1="209.521" y1="1607.405" x2="196.057" y2="1607.405"/>
      <line x1="209.521" y1="1608.405" x2="196.057" y2="1608.405"/>
      <line x1="209.521" y1="1609.405" x2="196.057" y2="1609.405"/>
      <line x1="209.521" y1="1610.405" x2="196.057" y2="1610.405"/>
      <line x1="209.521" y1="1611.405" x2="196.057" y2="1611.405"/>
      <line x1="209.521" y1="1612.405" x2="196.057" y2="1612.405"/>
      <line x1="209.521" y1="1613.405" x2="196.057" y2="1613.405"/>
      <line x1="209.521" y1="1614.405" x2="196.057" y2="1614.405"/>
      <line x1="209.521" y1="1615.405" x2="196.057" y2="1615.405"/>
      <line x1="209.521" y1="1616.405" x2="196.057" y2="1616.405"/>
      <line x1="209.521" y1="1617.405" x2="196.057" y2="1617.405"/>
      <line x1="209.521" y1="1618.405" x2="196.057" y2="1618.405"/>
      <line x1="209.521" y1="1619.405" x2="196.057" y2="1619.405"/>
      <line x1="209.521" y1="1620.405" x2="196.057" y2="1620.405"/>
      <line x1="209.521" y1="1621.405" x2="196.057" y2="1621.405"/>
      <line x1="209.521" y1="1622.405" x2="196.057" y2="1622.405"/>
      <line x1="209.521" y1="1623.405" x2="196.057" y2="1623.405"/>
      <line x1="209.521" y1="1624.405" x2="196.057" y2="1624.405"/>
      <line x1="209.521" y1="1625.405" x2="196.057" y2="1625.405"/>
      <line x1="209.521" y1="1626.405" x2="196.057" y2="1626.405"/>
      <line x1="209.521" y1="1627.405" x2="196.057" y2="1627.405"/>
      <line x1="209.521" y1="1628.405" x2="196.057" y2="1628.405"/>
      <line x1="209.521" y1="1529.405" x2="196.057" y2="1529.405"/>
      <line x1="209.521" y1="1530.405" x2="196.057" y2="1530.405"/>
      <line x1="209.521" y1="1531.405" x2="196.057" y2="1531.405"/>
      <line x1="209.521" y1="1532.405" x2="196.057" y2="1532.405"/>
      <line x1="209.521" y1="1533.405" x2="196.057" y2="1533.405"/>
      <line x1="209.521" y1="1534.405" x2="196.057" y2="1534.405"/>
      <line x1="209.521" y1="1535.405" x2="196.057" y2="1535.405"/>
      <line x1="209.521" y1="1536.405" x2="196.057" y2="1536.405"/>
      <line x1="209.521" y1="1537.405" x2="196.057" y2="1537.405"/>
      <line x1="209.521" y1="1538.405" x2="196.057" y2="1538.405"/>
      <line x1="209.521" y1="1539.405" x2="196.057" y2="1539.405"/>
      <line x1="209.521" y1="1540.405" x2="196.057" y2="1540.405"/>
      <line x1="209.521" y1="1541.405" x2="196.057" y2="1541.405"/>
      <line x1="209.521" y1="1542.405" x2="196.057" y2="1542.405"/>
      <line x1="209.521" y1="1543.405" x2="196.057" y2="1543.405"/>
      <line x1="209.521" y1="1544.405" x2="196.057" y2="1544.405"/>
      <line x1="209.521" y1="1545.405" x2="196.057" y2="1545.405"/>
      <line x1="209.521" y1="1546.405" x2="196.057" y2="1546.405"/>
      <line x1="209.521" y1="1547.405" x2="196.057" y2="1547.405"/>
      <line x1="209.521" y1="1548.405" x2="196.057" y2="1548.405"/>
      <line x1="209.521" y1="1549.405" x2="196.057" y2="1549.405"/>
      <line x1="209.521" y1="1550.405" x2="196.057" y2="1550.405"/>
      <line x1="209.521" y1="1551.405" x2="196.057" y2="1551.405"/>
      <line x1="209.521" y1="1552.405" x2="196.057" y2="1552.405"/>
      <line x1="209.521" y1="1553.405" x2="196.057" y2="1553.405"/>
      <line x1="209.521" y1="1554.405" x2="196.057" y2="1554.405"/>
      <line x1="209.521" y1="1555.405" x2="196.057" y2="1555.405"/>
      <line x1="209.521" y1="1556.405" x2="196.057" y2="1556.405"/>
      <line x1="209.521" y1="1557.405" x2="196.057" y2="1557.405"/>
      <line x1="209.521" y1="1558.405" x2="196.057" y2="1558.405"/>
      <line x1="209.521" y1="1559.405" x2="196.057" y2="1559.405"/>
      <line x1="209.521" y1="1560.405" x2="196.057" y2="1560.405"/>
      <line x1="209.521" y1="1561.405" x2="196.057" y2="1561.405"/>
      <line x1="209.521" y1="1562.405" x2="196.057" y2="1562.405"/>
      <line x1="209.521" y1="1563.405" x2="196.057" y2="1563.405"/>
      <line x1="209.521" y1="1564.405" x2="196.057" y2="1564.405"/>
      <line x1="209.521" y1="1565.405" x2="196.057" y2="1565.405"/>
      <line x1="209.521" y1="1566.405" x2="196.057" y2="1566.405"/>
      <line x1="209.521" y1="1567.405" x2="196.057" y2="1567.405"/>
      <line x1="209.521" y1="1568.405" x2="196.057" y2="1568.405"/>
      <line x1="209.521" y1="1569.405" x2="196.057" y2="1569.405"/>
      <line x1="209.521" y1="1570.405" x2="196.057" y2="1570.405"/>
      <line x1="209.521" y1="1571.405" x2="196.057" y2="1571.405"/>
      <line x1="209.521" y1="1572.405" x2="196.057" y2="1572.405"/>
      <line x1="209.521" y1="1573.405" x2="196.057" y2="1573.405"/>
      <line x1="209.521" y1="1574.405" x2="196.057" y2="1574.405"/>
      <line x1="209.521" y1="1575.405" x2="196.057" y2="1575.405"/>
      <line x1="209.521" y1="1576.405" x2="196.057" y2="1576.405"/>
      <line x1="209.521" y1="1577.405" x2="196.057" y2="1577.405"/>
      <line x1="209.521" y1="1578.405" x2="196.057" y2="1578.405"/>
      <line x1="209.521" y1="1525.405" x2="196.057" y2="1525.405"/>
      <line x1="209.521" y1="1526.405" x2="196.057" y2="1526.405"/>
      <line x1="209.521" y1="1527.405" x2="196.057" y2="1527.405"/>
      <line x1="209.521" y1="1528.405" x2="196.057" y2="1528.405"/>
    </g>
    <g stroke="#1976D2" stroke-width="0.4">
      <polyline points="393.444,1682.729 553.214,1682.729 553.214,1521.729 393.444,1521.729" fill="none"/>
      <polyline points="393.444,1521.729 386.980,1521.729 386.980,1682.729 393.444,1682.729" fill="none"/>
      <polyline points="393.444,1681.730 552.214,1681.730 552.214,1522.729 393.444,1522.729" fill="none"/>
      <polyline points="393.444,1522.729 387.980,1522.729 387.980,1681.730 393.444,1681.730" fill="none"/>
      <polyline points="393.444,1680.730 551.214,1680.730 551.214,1523.729 393.444,1523.729" fill="none"/>
      <polyline points="393.444,1523.729 388.980,1523.729 388.980,1680.730 393.444,1680.730" fill="none"/>
      <polyline points="393.444,1679.729 550.214,1679.729 550.214,1524.729 393.444,1524.729" fill="none"/>
      <polyline points="393.444,1524.729 389.980,1524.729 389.980,1679.729 393.444,1679.729" fill="none"/>
      <polyline points="206.556,1521.729 46.786,1521.729 46.786,1682.729 206.556,1682.729" fill="none"/>
      <polyline points="206.556,1682.729 213.020,1682.729 213.020,1521.729 206.556,1521.729" fill="none"/>
      <polyline points="206.556,1522.729 47.786,1522.729 47.786,1681.730 206.556,1681.730" fill="none"/>
      <polyline points="206.556,1681.730 212.020,1681.730 212.020,1522.729 206.556,1522.729" fill="none"/>
      <polyline points="206.556,1523.729 48.786,1523.729 48.786,1680.730 206.556,1680.730" fill="none"/>
      <polyline points="206.556,1680.730 211.021,1680.730 211.021,1523.729 206.556,1523.729" fill="none"/>
      <polyline points="206.556,1524.729 49.786,1524.729 49.786,1679.729 206.556,1679.729" fill="none"/>
      <polyline points="206.556,1679.729 210.021,1679.729 210.021,1524.729 206.556,1524.729" fill="none"/>
    </g>
    <g stroke="#C62828" stroke-width="0.4" fill="none">
      <polygon points="253.333,1531.628 254.065,1530.896 254.333,1529.896 254.065,1528.896 253.333,1528.164 252.333,1527.896 251.333,1528.164 250.601,1528.896 250.333,1529.896 250.601,1530.896 251.333,1531.628 252.333,1531.896"/>
      <polygon points="353.333,1531.628 354.065,1530.896 354.333,1529.896 354.065,1528.896 353.333,1528.164 352.333,1527.896 351.333,1528.164 350.601,1528.896 350.333,1529.896 350.601,1530.896 351.333,1531.628 352.333,1531.896"/>
      <polygon points="313.333,1531.628 314.065,1530.896 314.333,1529.896 314.065,1528.896 313.333,1528.164 312.333,1527.896 311.333,1528.164 310.601,1528.896 310.333,1529.896 310.601,1530.896 311.333,1531.628 312.333,1531.896"/>
      <polygon points="293.333,1531.628 294.065,1530.896 294.333,1529.896 294.065,1528.896 293.333,1528.164 292.333,1527.896 291.333,1528.164 290.601,1528.896 290.333,1529.896 290.601,1530.896 291.333,1531.628 292.333,1531.896"/>
      <polygon points="273.333,1531.628 274.065,1530.896 274.333,1529.896 274.065,1528.896 273.333,1528.164 272.333,1527.896 271.333,1528.164 270.601,1528.896 270.333,1529.896 270.601,1530.896 271.333,1531.628 272.333,1531.896"/>
      <polygon points="333.333,1531.628 334.065,1530.896 334.333,1529.896 334.065,1528.896 333.333,1528.164 332.333,1527.896 331.333,1528.164 330.601,1528.896 330.333,1529.896 330.601,1530.896 331.333,1531.628 332.333,1531.896"/>
      <polygon points="233.333,1531.628 234.065,1530.896 234.333,1529.896 234.065,1528.896 233.333,1528.164 232.521,1527.946 232.521,1531.846"/>
      <polygon points="253.333,1551.628 254.065,1550.896 254.333,1549.896 254.065,1548.896 253.333,1548.164 252.333,1547.896 251.333,1548.164 250.601,1548.896 250.333,1549.896 250.601,1550.896 251.333,1551.628 252.333,1551.896"/>
      <polygon points="273.333,1551.628 274.065,1550.896 274.333,1549.896 274.065,1548.896 273.333,1548.164 272.333,1547.896 271.333,1548.164 270.601,1548.896 270.333,1549.896 270.601,1550.896 271.333,1551.628 272.333,1551.896"/>
      <polygon points="293.333,1551.628 294.065,1550.896 294.333,1549.896 294.065,1548.896 293.333,1548.164 292.333,1547.896 291.333,1548.164 290.601,1548.896 290.333,1549.896 290.601,1550.896 291.333,1551.628 292.333,1551.896"/>
      <polygon points="353.333,1551.628 354.065,1550.896 354.333,1549.896 354.065,1548.896 353.333,1548.164 352.333,1547.896 351.333,1548.164 350.601,1548.896 350.333,1549.896 350.601,1550.896 351.333,1551.628 352.333,1551.896"/>
      <polygon points="313.333,1551.628 314.065,1550.896 314.333,1549.896 314.065,1548.896 313.333,1548.164 312.333,1547.896 311.333,1548.164 310.601,1548.896 310.333,1549.896 310.601,1550.896 311.333,1551.628 312.333,1551.896"/>
      <polygon points="333.333,1551.628 334.065,1550.896 334.333,1549.896 334.065,1548.896 333.333,1548.164 332.333,1547.896 331.333,1548.164 330.601,1548.896 330.333,1549.896 330.601,1550.896 331.333,1551.628 332.333,1551.896"/>
      <polygon points="233.333,1551.628 234.065,1550.896 234.333,1549.896 234.065,1548.896 233.333,1548.164 232.521,1547.946 232.521,1551.846"/>
      <polygon points="273.333,1571.628 274.065,1570.896 274.333,1569.896 274.065,1568.896 273.333,1568.164 272.333,1567.896 271.333,1568.164 270.601,1568.896 270.333,1569.896 270.601,1570.896 271.333,1571.628 272.333,1571.896"/>
      <polygon points="253.333,1571.628 254.065,1570.896 254.333,1569.896 254.065,1568.896 253.333,1568.164 252.333,1567.896 251.333,1568.164 250.601,1568.896 250.333,1569.896 250.601,1570.896 251.333,1571.628 252.333,1571.896"/>
      <polygon points="313.333,1571.628 314.065,1570.896 314.333,1569.896 314.065,1568.896 313.333,1568.164 312.333,1567.896 311.333,1568.164 310.601,1568.896 310.333,1569.896 310.601,1570.896 311.333,1571.628 312.333,1571.896"/>
      <polygon points="333.333,1571.628 334.065,1570.896 334.333,1569.896 334.065,1568.896 333.333,1568.164 332.333,1567.896 331.333,1568.164 330.601,1568.896 330.333,1569.896 330.601,1570.896 331.333,1571.628 332.333,1571.896"/>
      <polygon points="353.333,1571.628 354.065,1570.896 354.333,1569.896 354.065,1568.896 353.333,1568.164 352.333,1567.896 351.333,1568.164 350.601,1568.896 350.333,1569.896 350.601,1570.896 351.333,1571.628 352.333,1571.896"/>
      <polygon points="293.333,1571.628 294.065,1570.896 294.333,1569.896 294.065,1568.896 293.333,1568.164 292.333,1567.896 291.333,1568.164 290.601,1568.896 290.333,1569.896 290.601,1570.896 291.333,1571.628 292.333,1571.896"/>
      <polygon points="233.333,1571.628 234.065,1570.896 234.333,1569.896 234.065,1568.896 233.333,1568.164 232.521,1567.946 232.521,1571.846"/>
      <polygon points="313.333,1591.628 314.065,1590.896 314.333,1589.896 314.065,1588.896 313.333,1588.164 312.333,1587.896 311.333,1588.164 310.601,1588.896 310.333,1589.896 310.601,1590.896 311.333,1591.628 312.333,1591.896"/>
      <polygon points="293.333,1591.628 294.065,1590.896 294.333,1589.896 294.065,1588.896 293.333,1588.164 292.333,1587.896 291.333,1588.164 290.601,1588.896 290.333,1589.896 290.601,1590.896 291.333,1591.628 292.333,1591.896"/>
      <polygon points="253.333,1591.628 254.065,1590.896 254.333,1589.896 254.065,1588.896 253.333,1588.164 252.333,1587.896 251.333,1588.164 250.601,1588.896 250.333,1589.896 250.601,1590.896 251.333,1591.628 252.333,1591.896"/>
      <polygon points="273.333,1591.628 274.065,1590.896 274.333,1589.896 274.065,1588.896 273.333,1588.164 272.333,1587.896 271.333,1588.164 270.601,1588.896 270.333,1589.896 270.601,1590.896 271.333,1591.628 272.333,1591.896"/>
      <polygon points="333.333,1591.628 334.065,1590.896 334.333,1589.896 334.065,1588.896 333.333,1588.164 332.333,1587.896 331.333,1588.164 330.601,1588.896 330.333,1589.896 330.601,1590.896 331.333,1591.628 332.333,1591.896"/>
      <polygon points="353.333,1591.628 354.065,1590.896 354.333,1589.896 354.065,1588.896 353.333,1588.164 352.333,1587.896 351.333,1588.164 350.601,1588.896 350.333,1589.896 350.601,1590.896 351.333,1591.628 352.333,1591.896"/>
      <polygon points="233.333,1591.628 234.065,1590.896 234.333,1589.896 234.065,1588.896 233.333,1588.164 232.521,1587.946 232.521,1591.846"/>
      <polygon points="293.333,1611.628 294.065,1610.896 294.333,1609.896 294.065,1608.896 293.333,1608.164 292.333,1607.896 291.333,1608.164 290.601,1608.896 290.333,1609.896 290.601,1610.896 291.333,1611.628 292.333,1611.896"/>
      <polygon points="333.333,1611.628 334.065,1610.896 334.333,1609.896 334.065,1608.896 333.333,1608.164 332.333,1607.896 331.333,1608.164 330.601,1608.896 330.333,1609.896 330.601,1610.896 331.333,1611.628 332.333,1611.896"/>
      <polygon points="273.333,1611.628 274.065,1610.896 274.333,1609.896 274.065,1608.896 273.333,1608.164 272.333,1607.896 271.333,1608.164 270.601,1608.896 270.333,1609.896 270.601,1610.896 271.333,1611.628 272.333,1611.896"/>
      <polygon points="313.333,1611.628 314.065,1610.896 314.333,1609.896 314.065,1608.896 313.333,1608.164 312.333,1607.896 311.333,1608.164 310.601,1608.896 310.333,1609.896 310.601,1610.896 311.333,1611.628 312.333,1611.896"/>
      <polygon points="353.333,1611.628 354.065,1610.896 354.333,1609.896 354.065,1608.896 353.333,1608.164 352.333,1607.896 351.333,1608.164 350.601,1608.896 350.333,1609.896 350.601,1610.896 351.333,1611.628 352.333,1611.896"/>
      <polygon points="253.333,1611.628 254.065,1610.896 254.333,1609.896 254.065,1608.896 253.333,1608.164 252.333,1607.896 251.333,1608.164 250.601,1608.896 250.333,1609.896 250.601,1610.896 251.333,1611.628 252.333,1611.896"/>
      <polygon points="233.333,1611.628 234.065,1610.896 234.333,1609.896 234.065,1608.896 233.333,1608.164 232.521,1607.946 232.521,1611.846"/>
      <polygon points="293.333,1631.628 294.065,1630.896 294.333,1629.896 294.065,1628.896 293.333,1628.164 292.333,1627.896 291.333,1628.164 290.601,1628.896 290.333,1629.896 290.601,1630.896 291.333,1631.628 292.333,1631.896"/>
      <polygon points="333.333,1631.628 334.065,1630.896 334.333,1629.896 334.065,1628.896 333.333,1628.164 332.333,1627.896 331.333,1628.164 330.601,1628.896 330.333,1629.896 330.601,1630.896 331.333,1631.628 332.333,1631.896"/>
      <polygon points="313.333,1631.628 314.065,1630.896 314.333,1629.896 314.065,1628.896 313.333,1628.164 312.333,1627.896 311.333,1628.164 310.601,1628.896 310.333,1629.896 310.601,1630.896 311.333,1631.628 312.333,1631.896"/>
      <polygon points="353.333,1631.628 354.065,1630.896 354.333,1629.896 354.065,1628.896 353.333,1628.164 352.333,1627.896 351.333,1628.164 350.601,1628.896 350.333,1629.896 350.601,1630.896 351.333,1631.628 352.333,1631.896"/>
      <polygon points="273.333,1631.628 274.065,1630.896 274.333,1629.896 274.065,1628.896 273.333,1628.164 272.333,1627.896 271.333,1628.164 270.601,1628.896 270.333,1629.896 270.601,1630.896 271.333,1631.628 272.333,1631.896"/>
      <polygon points="253.333,1631.628 254.065,1630.896 254.333,1629.896 254.065,1628.896 253.333,1628.164 252.333,1627.896 251.333,1628.164 250.601,1628.896 250.333,1629.896 250.601,1630.896 251.333,1631.628 252.333,1631.896"/>
      <polygon points="233.333,1631.628 234.065,1630.896 234.333,1629.896 234.065,1628.896 233.333,1628.164 232.521,1627.946 232.521,1631.846"/>
      <polygon points="293.333,1651.628 294.065,1650.896 294.333,1649.896 294.065,1648.896 293.333,1648.164 292.333,1647.896 291.333,1648.164 290.601,1648.896 290.333,1649.896 290.601,1650.896 291.333,1651.628 292.333,1651.896"/>
      <polygon points="273.333,1651.628 274.065,1650.896 274.333,1649.896 274.065,1648.896 273.333,1648.164 272.333,1647.896 271.333,1648.164 270.601,1648.896 270.333,1649.896 270.601,1650.896 271.333,1651.628 272.333,1651.896"/>
      <polygon points="313.333,1651.628 314.065,1650.896 314.333,1649.896 314.065,1648.896 313.333,1648.164 312.333,1647.896 311.333,1648.164 310.601,1648.896 310.333,1649.896 310.601,1650.896 311.333,1651.628 312.333,1651.896"/>
      <polygon points="333.333,1651.628 334.065,1650.896 334.333,1649.896 334.065,1648.896 333.333,1648.164 332.333,1647.896 331.333,1648.164 330.601,1648.896 330.333,1649.896 330.601,1650.896 331.333,1651.628 332.333,1651.896"/>
      <polygon points="353.333,1651.628 354.065,1650.896 354.333,1649.896 354.065,1648.896 353.333,1648.164 352.333,1647.896 351.333,1648.164 350.601,1648.896 350.333,1649.896 350.601,1650.896 351.333,1651.628 352.333,1651.896"/>
      <polygon points="253.333,1651.628 254.065,1650.896 254.333,1649.896 254.065,1648.896 253.333,1648.164 252.333,1647.896 251.333,1648.164 250.601,1648.896 250.333,1649.896 250.601,1650.896 251.333,1651.628 252.333,1651.896"/>
      <polygon points="233.333,1651.628 234.065,1650.896 234.333,1649.896 234.065,1648.896 233.333,1648.164 232.521,1647.946 232.521,1651.846"/>
      <polygon points="333.333,1671.628 334.065,1670.896 334.333,1669.896 334.065,1668.896 333.333,1668.164 332.333,1667.896 331.333,1668.164 330.601,1668.896 330.333,1669.896 330.601,1670.896 331.333,1671.628 332.333,1671.896"/>
      <polygon points="313.333,1671.628 314.065,1670.896 314.333,1669.896 314.065,1668.896 313.333,1668.164 312.333,1667.896 311.333,1668.164 310.601,1668.896 310.333,1669.896 310.601,1670.896 311.333,1671.628 312.333,1671.896"/>
      <polygon points="293.333,1671.628 294.065,1670.896 294.333,1669.896 294.065,1668.896 293.333,1668.164 292.333,1667.896 291.333,1668.164 290.601,1668.896 290.333,1669.896 290.601,1670.896 291.333,1671.628 292.333,1671.896"/>
      <polygon points="273.333,1671.628 274.065,1670.896 274.333,1669.896 274.065,1668.896 273.333,1668.164 272.333,1667.896 271.333,1668.164 270.601,1668.896 270.333,1669.896 270.601,1670.896 271.333,1671.628 272.333,1671.896"/>
      <polygon points="253.333,1671.628 254.065,1670.896 254.333,1669.896 254.065,1668.896 253.333,1668.164 252.333,1667.896 251.333,1668.164 250.601,1668.896 250.333,1669.896 250.601,1670.896 251.333,1671.628 252.333,1671.896"/>
      <polygon points="353.333,1671.628 354.065,1670.896 354.333,1669.896 354.065,1668.896 353.333,1668.164 352.333,1667.896 351.333,1668.164 350.601,1668.896 350.333,1669.896 350.601,1670.896 351.333,1671.628 352.333,1671.896"/>
      <polygon points="233.333,1671.628 234.065,1670.896 234.333,1669.896 234.065,1668.896 233.333,1668.164 232.521,1667.946 232.521,1671.846"/>
    </g>
    <g stroke="#EF6C00" stroke-width="0.4" fill="none">
    </g>
  </g>
  <g stroke="#000000" stroke-width="0.4">
    <line x1="500.000" y1="1000.000" x2="1500.000" y2="1000.000"/>
  </g>
  <g stroke="#000000" stroke-width="0.4">
    <line x1="1000.000" y1="500.000" x2="1000.000" y2="1500.000"/>
  </g>
  <circle cx="1000.000" cy="1000.000" r="1000.000" stroke="red" stroke-width="1" fill="none"/>
  </g>
</svg>
