<?xml version="1.0" encoding="UTF-8"?>
<svg xmlns="http://www.w3.org/2000/svg" version="1.1" width="2000" height="2000">
  <g fill="none" stroke-linecap="round" stroke-linejoin="round">
  <text x="10" y="20" font-size="24" fill="#555">Layer 220 Z=56.000 mm</text>
  <g transform="translate(700.000,-602.229)">
    <g stroke="#2E7D32" stroke-width="0.4">
      <line x1="463.987" y1="1679.230" x2="463.987" y2="1629.230"/>
      <line x1="464.987" y1="1679.230" x2="464.987" y2="1629.230"/>
      <line x1="465.987" y1="1679.230" x2="465.987" y2="1629.230"/>
      <line x1="466.987" y1="1679.230" x2="466.987" y2="1629.230"/>
      <line x1="467.987" y1="1679.230" x2="467.987" y2="1629.230"/>
      <line x1="468.987" y1="1679.230" x2="468.987" y2="1629.230"/>
      <line x1="469.987" y1="1679.230" x2="469.987" y2="1629.230"/>
      <line x1="470.987" y1="1679.230" x2="470.987" y2="1629.230"/>
      <line x1="471.987" y1="1679.230" x2="471.987" y2="1629.230"/>
      <line x1="472.987" y1="1679.230" x2="472.987" y2="1629.230"/>
      <line x1="473.987" y1="1679.230" x2="473.987" y2="1629.230"/>
      <line x1="474.987" y1="1679.230" x2="474.987" y2="1629.230"/>
      <line x1="475.987" y1="1679.230" x2="475.987" y2="1629.230"/>
      <line x1="476.987" y1="1679.230" x2="476.987" y2="1629.230"/>
      <line x1="477.987" y1="1679.230" x2="477.987" y2="1629.230"/>
      <line x1="478.987" y1="1679.230" x2="478.987" y2="1629.230"/>
      <line x1="479.987" y1="1679.230" x2="479.987" y2="1629.230"/>
      <line x1="480.987" y1="1679.230" x2="480.987" y2="1629.230"/>
      <line x1="481.987" y1="1679.230" x2="481.987" y2="1629.230"/>
      <line x1="482.987" y1="1679.230" x2="482.987" y2="1629.230"/>
      <line x1="483.987" y1="1679.230" x2="483.987" y2="1629.230"/>
      <line x1="484.987" y1="1679.230" x2="484.987" y2="1629.230"/>
      <line x1="485.987" y1="1679.230" x2="485.987" y2="1629.230"/>
      <line x1="486.987" y1="1679.230" x2="486.987" y2="1629.230"/>
      <line x1="487.987" y1="1679.230" x2="487.987" y2="1629.230"/>
      <line x1="488.987" y1="1679.230" x2="488.987" y2="1629.230"/>
      <line x1="489.987" y1="1679.230" x2="489.987" y2="1629.230"/>
      <line x1="490.987" y1="1679.230" x2="490.987" y2="1629.230"/>
      <line x1="491.987" y1="1679.230" x2="491.987" y2="1629.230"/>
      <line x1="492.987" y1="1679.230" x2="492.987" y2="1629.230"/>
      <line x1="493.987" y1="1679.230" x2="493.987" y2="1629.230"/>
      <line x1="494.987" y1="1679.230" x2="494.987" y2="1629.230"/>
      <line x1="495.987" y1="1679.230" x2="495.987" y2="1629.230"/>
      <line x1="496.987" y1="1679.230" x2="496.987" y2="1629.230"/>
      <line x1="497.987" y1="1679.230" x2="497.987" y2="1629.230"/>
      <line x1="498.987" y1="1679.230" x2="498.987" y2="1629.230"/>
      <line x1="499.987" y1="1679.230" x2="499.987" y2="1629.230"/>
      <line x1="500.987" y1="1679.230" x2="500.987" y2="1629.230"/>
      <line x1="501.987" y1="1679.230" x2="501.987" y2="1629.230"/>
      <line x1="502.987" y1="1679.230" x2="502.987" y2="1629.230"/>
      <line x1="503.987" y1="1679.230" x2="503.987" y2="1629.230"/>
      <line x1="504.987" y1="1679.230" x2="504.987" y2="1629.230"/>
      <line x1="505.987" y1="1679.230" x2="505.987" y2="1629.230"/>
      <line x1="506.987" y1="1679.230" x2="506.987" y2="1629.230"/>
      <line x1="507.987" y1="1679.230" x2="507.987" y2="1629.230"/>
      <line x1="508.987" y1="1679.230" x2="508.987" y2="1629.230"/>
      <line x1="509.987" y1="1679.230" x2="509.987" y2="1629.230"/>
      <line x1="510.987" y1="1679.230" x2="510.987" y2="1629.230"/>
      <line x1="511.987" y1="1679.230" x2="511.987" y2="1629.230"/>
      <line x1="512.987" y1="1679.230" x2="512.987" y2="1629.230"/>
      <line x1="513.987" y1="1679.230" x2="513.987" y2="1629.230"/>
      <line x1="514.987" y1="1679.230" x2="514.987" y2="1629.230"/>
      <line x1="515.987" y1="1679.230" x2="515.987" y2="1629.230"/>
      <line x1="516.987" y1="1679.230" x2="516.987" y2="1629.230"/>
      <line x1="517.987" y1="1679.230" x2="517.987" y2="1629.230"/>
      <line x1="518.987" y1="1679.230" x2="518.987" y2="1629.230"/>
      <line x1="519.987" y1="1679.230" x2="519.987" y2="1629.230"/>
      <line x1="520.987" y1="1679.230" x2="520.987" y2="1629.230"/>
      <line x1="521.987" y1="1679.230" x2="521.987" y2="1629.230"/>
      <line x1="522.987" y1="1679.230" x2="522.987" y2="1629.230"/>
      <line x1="523.987" y1="1679.230" x2="523.987" y2="1629.230"/>
      <line x1="524.987" y1="1679.230" x2="524.987" y2="1629.230"/>
      <line x1="525.987" y1="1679.230" x2="525.987" y2="1629.230"/>
      <line x1="526.987" y1="1679.230" x2="526.987" y2="1629.230"/>
      <line x1="527.987" y1="1679.230" x2="527.987" y2="1629.230"/>
      <line x1="528.987" y1="1679.230" x2="528.987" y2="1629.230"/>
      <line x1="529.987" y1="1679.230" x2="529.987" y2="1629.230"/>
      <line x1="530.987" y1="1679.230" x2="530.987" y2="1629.230"/>
      <line x1="531.987" y1="1679.230" x2="531.987" y2="1629.230"/>
      <line x1="532.987" y1="1679.230" x2="532.987" y2="1629.230"/>
      <line x1="533.987" y1="1679.230" x2="533.987" y2="1629.230"/>
      <line x1="534.987" y1="1679.230" x2="534.987" y2="1629.230"/>
      <line x1="535.987" y1="1679.230" x2="535.987" y2="1629.230"/>
      <line x1="536.987" y1="1679.230" x2="536.987" y2="1629.230"/>
      <line x1="537.987" y1="1679.230" x2="537.987" y2="1629.230"/>
      <line x1="538.987" y1="1679.230" x2="538.987" y2="1629.230"/>
      <line x1="539.987" y1="1679.230" x2="539.987" y2="1629.230"/>
      <line x1="540.987" y1="1679.230" x2="540.987" y2="1629.230"/>
      <line x1="541.987" y1="1679.230" x2="541.987" y2="1629.230"/>
      <line x1="542.987" y1="1679.230" x2="542.987" y2="1629.230"/>
      <line x1="543.987" y1="1679.230" x2="543.987" y2="1629.230"/>
      <line x1="544.987" y1="1679.230" x2="544.987" y2="1629.230"/>
      <line x1="545.987" y1="1679.230" x2="545.987" y2="1629.230"/>
      <line x1="546.987" y1="1679.230" x2="546.987" y2="1629.230"/>
      <line x1="547.987" y1="1679.230" x2="547.987" y2="1629.230"/>
      <line x1="548.987" y1="1679.230" x2="548.987" y2="1629.230"/>
      <line x1="549.987" y1="1679.230" x2="549.987" y2="1629.230"/>
      <line x1="550.987" y1="1679.230" x2="550.987" y2="1629.230"/>
      <line x1="551.987" y1="1679.230" x2="551.987" y2="1629.230"/>
      <line x1="552.987" y1="1679.230" x2="552.987" y2="1629.230"/>
      <line x1="553.987" y1="1679.230" x2="553.987" y2="1629.230"/>
      <line x1="554.987" y1="1679.230" x2="554.987" y2="1629.230"/>
      <line x1="555.987" y1="1679.230" x2="555.987" y2="1629.230"/>
      <line x1="556.987" y1="1679.230" x2="556.987" y2="1629.230"/>
      <line x1="557.987" y1="1679.230" x2="557.987" y2="1629.230"/>
      <line x1="558.987" y1="1679.230" x2="558.987" y2="1629.230"/>
      <line x1="559.987" y1="1679.230" x2="559.987" y2="1629.230"/>
      <line x1="560.987" y1="1679.230" x2="560.987" y2="1629.230"/>
      <line x1="561.987" y1="1679.230" x2="561.987" y2="1629.230"/>
      <line x1="562.987" y1="1679.230" x2="562.987" y2="1629.230"/>
      <line x1="563.987" y1="1679.230" x2="563.987" y2="1629.230"/>
      <line x1="564.987" y1="1679.230" x2="564.987" y2="1629.230"/>
      <line x1="565.987" y1="1679.230" x2="565.987" y2="1629.230"/>
      <line x1="566.987" y1="1679.230" x2="566.987" y2="1629.230"/>
      <line x1="567.987" y1="1679.230" x2="567.987" y2="1629.230"/>
      <line x1="568.987" y1="1679.230" x2="568.987" y2="1629.230"/>
      <line x1="569.987" y1="1679.230" x2="569.987" y2="1629.230"/>
      <line x1="570.987" y1="1679.230" x2="570.987" y2="1629.230"/>
      <line x1="571.987" y1="1679.230" x2="571.987" y2="1629.230"/>
      <line x1="572.987" y1="1679.230" x2="572.987" y2="1629.230"/>
      <line x1="573.987" y1="1679.230" x2="573.987" y2="1629.230"/>
      <line x1="574.987" y1="1679.230" x2="574.987" y2="1629.230"/>
      <line x1="575.987" y1="1679.230" x2="575.987" y2="1629.230"/>
      <line x1="576.987" y1="1679.230" x2="576.987" y2="1629.230"/>
      <line x1="577.987" y1="1679.230" x2="577.987" y2="1629.230"/>
      <line x1="578.987" y1="1679.230" x2="578.987" y2="1629.230"/>
      <line x1="579.987" y1="1679.230" x2="579.987" y2="1629.230"/>
      <line x1="580.987" y1="1679.230" x2="580.987" y2="1629.230"/>
      <line x1="581.987" y1="1679.230" x2="581.987" y2="1629.230"/>
      <line x1="582.987" y1="1679.230" x2="582.987" y2="1629.230"/>
      <line x1="583.987" y1="1679.230" x2="583.987" y2="1629.230"/>
      <line x1="584.987" y1="1679.230" x2="584.987" y2="1629.230"/>
      <line x1="585.987" y1="1679.230" x2="585.987" y2="1629.230"/>
      <line x1="586.987" y1="1679.230" x2="586.987" y2="1629.230"/>
      <line x1="587.987" y1="1679.230" x2="587.987" y2="1629.230"/>
      <line x1="588.987" y1="1679.230" x2="588.987" y2="1629.230"/>
      <line x1="589.987" y1="1679.230" x2="589.987" y2="1629.230"/>
      <line x1="590.987" y1="1679.230" x2="590.987" y2="1629.230"/>
      <line x1="591.987" y1="1679.230" x2="591.987" y2="1629.230"/>
      <line x1="463.987" y1="1629.130" x2="463.987" y2="1579.130"/>
      <line x1="464.987" y1="1629.130" x2="464.987" y2="1579.130"/>
      <line x1="465.987" y1="1629.130" x2="465.987" y2="1579.130"/>
      <line x1="466.987" y1="1629.130" x2="466.987" y2="1579.130"/>
      <line x1="467.987" y1="1629.130" x2="467.987" y2="1579.130"/>
      <line x1="468.987" y1="1629.130" x2="468.987" y2="1579.130"/>
      <line x1="469.987" y1="1629.130" x2="469.987" y2="1579.130"/>
      <line x1="470.987" y1="1629.130" x2="470.987" y2="1579.130"/>
      <line x1="471.987" y1="1629.130" x2="471.987" y2="1579.130"/>
      <line x1="472.987" y1="1629.130" x2="472.987" y2="1579.130"/>
      <line x1="473.987" y1="1629.130" x2="473.987" y2="1579.130"/>
      <line x1="474.987" y1="1629.130" x2="474.987" y2="1579.130"/>
      <line x1="475.987" y1="1629.130" x2="475.987" y2="1579.130"/>
      <line x1="476.987" y1="1629.130" x2="476.987" y2="1579.130"/>
      <line x1="477.987" y1="1629.130" x2="477.987" y2="1579.130"/>
      <line x1="478.987" y1="1629.130" x2="478.987" y2="1579.130"/>
      <line x1="479.987" y1="1629.130" x2="479.987" y2="1579.130"/>
      <line x1="480.987" y1="1629.130" x2="480.987" y2="1579.130"/>
      <line x1="481.987" y1="1629.130" x2="481.987" y2="1579.130"/>
      <line x1="482.987" y1="1629.130" x2="482.987" y2="1579.130"/>
      <line x1="483.987" y1="1629.130" x2="483.987" y2="1579.130"/>
      <line x1="484.987" y1="1629.130" x2="484.987" y2="1579.130"/>
      <line x1="485.987" y1="1629.130" x2="485.987" y2="1579.130"/>
      <line x1="486.987" y1="1629.130" x2="486.987" y2="1579.130"/>
      <line x1="487.987" y1="1629.130" x2="487.987" y2="1579.130"/>
      <line x1="488.987" y1="1629.130" x2="488.987" y2="1579.130"/>
      <line x1="489.987" y1="1629.130" x2="489.987" y2="1579.130"/>
      <line x1="490.987" y1="1629.130" x2="490.987" y2="1579.130"/>
      <line x1="491.987" y1="1629.130" x2="491.987" y2="1579.130"/>
      <line x1="492.987" y1="1629.130" x2="492.987" y2="1579.130"/>
      <line x1="493.987" y1="1629.130" x2="493.987" y2="1579.130"/>
      <line x1="494.987" y1="1629.130" x2="494.987" y2="1579.130"/>
      <line x1="495.987" y1="1629.130" x2="495.987" y2="1579.130"/>
      <line x1="496.987" y1="1629.130" x2="496.987" y2="1579.130"/>
      <line x1="497.987" y1="1629.130" x2="497.987" y2="1579.130"/>
      <line x1="498.987" y1="1629.130" x2="498.987" y2="1579.130"/>
      <line x1="499.987" y1="1629.130" x2="499.987" y2="1579.130"/>
      <line x1="500.987" y1="1629.130" x2="500.987" y2="1579.130"/>
      <line x1="501.987" y1="1629.130" x2="501.987" y2="1579.130"/>
      <line x1="502.987" y1="1629.130" x2="502.987" y2="1579.130"/>
      <line x1="503.987" y1="1629.130" x2="503.987" y2="1579.130"/>
      <line x1="504.987" y1="1629.130" x2="504.987" y2="1579.130"/>
      <line x1="505.987" y1="1629.130" x2="505.987" y2="1579.130"/>
      <line x1="506.987" y1="1629.130" x2="506.987" y2="1579.130"/>
      <line x1="507.987" y1="1629.130" x2="507.987" y2="1579.130"/>
      <line x1="508.987" y1="1629.130" x2="508.987" y2="1579.130"/>
      <line x1="509.987" y1="1629.130" x2="509.987" y2="1579.130"/>
      <line x1="510.987" y1="1629.130" x2="510.987" y2="1579.130"/>
      <line x1="511.987" y1="1629.130" x2="511.987" y2="1579.130"/>
      <line x1="512.987" y1="1629.130" x2="512.987" y2="1579.130"/>
      <line x1="513.987" y1="1629.130" x2="513.987" y2="1579.130"/>
      <line x1="514.987" y1="1629.130" x2="514.987" y2="1579.130"/>
      <line x1="515.987" y1="1629.130" x2="515.987" y2="1579.130"/>
      <line x1="516.987" y1="1629.130" x2="516.987" y2="1579.130"/>
      <line x1="517.987" y1="1629.130" x2="517.987" y2="1579.130"/>
      <line x1="518.987" y1="1629.130" x2="518.987" y2="1579.130"/>
      <line x1="519.987" y1="1629.130" x2="519.987" y2="1579.130"/>
      <line x1="520.987" y1="1629.130" x2="520.987" y2="1579.130"/>
      <line x1="521.987" y1="1629.130" x2="521.987" y2="1579.130"/>
      <line x1="522.987" y1="1629.130" x2="522.987" y2="1579.130"/>
      <line x1="523.987" y1="1629.130" x2="523.987" y2="1579.130"/>
      <line x1="524.987" y1="1629.130" x2="524.987" y2="1579.130"/>
      <line x1="525.987" y1="1629.130" x2="525.987" y2="1579.130"/>
      <line x1="526.987" y1="1629.130" x2="526.987" y2="1579.130"/>
      <line x1="527.987" y1="1629.130" x2="527.987" y2="1579.130"/>
      <line x1="528.987" y1="1629.130" x2="528.987" y2="1579.130"/>
      <line x1="529.987" y1="1629.130" x2="529.987" y2="1579.130"/>
      <line x1="530.987" y1="1629.130" x2="530.987" y2="1579.130"/>
      <line x1="531.987" y1="1629.130" x2="531.987" y2="1579.130"/>
      <line x1="532.987" y1="1629.130" x2="532.987" y2="1579.130"/>
      <line x1="533.987" y1="1629.130" x2="533.987" y2="1579.130"/>
      <line x1="534.987" y1="1629.130" x2="534.987" y2="1579.130"/>
      <line x1="535.987" y1="1629.130" x2="535.987" y2="1579.130"/>
      <line x1="536.987" y1="1629.130" x2="536.987" y2="1579.130"/>
      <line x1="537.987" y1="1629.130" x2="537.987" y2="1579.130"/>
      <line x1="538.987" y1="1629.130" x2="538.987" y2="1579.130"/>
      <line x1="539.987" y1="1629.130" x2="539.987" y2="1579.130"/>
      <line x1="540.987" y1="1629.130" x2="540.987" y2="1579.130"/>
      <line x1="541.987" y1="1629.130" x2="541.987" y2="1579.130"/>
      <line x1="542.987" y1="1629.130" x2="542.987" y2="1579.130"/>
      <line x1="543.987" y1="1629.130" x2="543.987" y2="1579.130"/>
      <line x1="544.987" y1="1629.130" x2="544.987" y2="1579.130"/>
      <line x1="545.987" y1="1629.130" x2="545.987" y2="1579.130"/>
      <line x1="546.987" y1="1629.130" x2="546.987" y2="1579.130"/>
      <line x1="547.987" y1="1629.130" x2="547.987" y2="1579.130"/>
      <line x1="548.987" y1="1629.130" x2="548.987" y2="1579.130"/>
      <line x1="549.987" y1="1629.130" x2="549.987" y2="1579.130"/>
      <line x1="550.987" y1="1629.130" x2="550.987" y2="1579.130"/>
      <line x1="551.987" y1="1629.130" x2="551.987" y2="1579.130"/>
      <line x1="552.987" y1="1629.130" x2="552.987" y2="1579.130"/>
      <line x1="553.987" y1="1629.130" x2="553.987" y2="1579.130"/>
      <line x1="554.987" y1="1629.130" x2="554.987" y2="1579.130"/>
      <line x1="555.987" y1="1629.130" x2="555.987" y2="1579.130"/>
      <line x1="556.987" y1="1629.130" x2="556.987" y2="1579.130"/>
      <line x1="557.987" y1="1629.130" x2="557.987" y2="1579.130"/>
      <line x1="558.987" y1="1629.130" x2="558.987" y2="1579.130"/>
      <line x1="559.987" y1="1629.130" x2="559.987" y2="1579.130"/>
      <line x1="560.987" y1="1629.130" x2="560.987" y2="1579.130"/>
      <line x1="561.987" y1="1629.130" x2="561.987" y2="1579.130"/>
      <line x1="562.987" y1="1629.130" x2="562.987" y2="1579.130"/>
      <line x1="563.987" y1="1629.130" x2="563.987" y2="1579.130"/>
      <line x1="564.987" y1="1629.130" x2="564.987" y2="1579.130"/>
      <line x1="565.987" y1="1629.130" x2="565.987" y2="1579.130"/>
      <line x1="566.987" y1="1629.130" x2="566.987" y2="1579.130"/>
      <line x1="567.987" y1="1629.130" x2="567.987" y2="1579.130"/>
      <line x1="568.987" y1="1629.130" x2="568.987" y2="1579.130"/>
      <line x1="569.987" y1="1629.130" x2="569.987" y2="1579.130"/>
      <line x1="570.987" y1="1629.130" x2="570.987" y2="1579.130"/>
      <line x1="571.987" y1="1629.130" x2="571.987" y2="1579.130"/>
      <line x1="572.987" y1="1629.130" x2="572.987" y2="1579.130"/>
      <line x1="573.987" y1="1629.130" x2="573.987" y2="1579.130"/>
      <line x1="574.987" y1="1629.130" x2="574.987" y2="1579.130"/>
      <line x1="575.987" y1="1629.130" x2="575.987" y2="1579.130"/>
      <line x1="576.987" y1="1629.130" x2="576.987" y2="1579.130"/>
      <line x1="577.987" y1="1629.130" x2="577.987" y2="1579.130"/>
      <line x1="578.987" y1="1629.130" x2="578.987" y2="1579.130"/>
      <line x1="579.987" y1="1629.130" x2="579.987" y2="1579.130"/>
      <line x1="580.987" y1="1629.130" x2="580.987" y2="1579.130"/>
      <line x1="581.987" y1="1629.130" x2="581.987" y2="1579.130"/>
      <line x1="582.987" y1="1629.130" x2="582.987" y2="1579.130"/>
      <line x1="583.987" y1="1629.130" x2="583.987" y2="1579.130"/>
      <line x1="584.987" y1="1629.130" x2="584.987" y2="1579.130"/>
      <line x1="585.987" y1="1629.130" x2="585.987" y2="1579.130"/>
      <line x1="586.987" y1="1629.130" x2="586.987" y2="1579.130"/>
      <line x1="587.987" y1="1629.130" x2="587.987" y2="1579.130"/>
      <line x1="588.987" y1="1629.130" x2="588.987" y2="1579.130"/>
      <line x1="589.987" y1="1629.130" x2="589.987" y2="1579.130"/>
      <line x1="590.987" y1="1629.130" x2="590.987" y2="1579.130"/>
      <line x1="591.987" y1="1629.130" x2="591.987" y2="1579.130"/>
      <line x1="463.987" y1="1579.030" x2="463.987" y2="1529.030"/>
      <line x1="464.987" y1="1579.030" x2="464.987" y2="1529.030"/>
      <line x1="465.987" y1="1579.030" x2="465.987" y2="1529.030"/>
      <line x1="466.987" y1="1579.030" x2="466.987" y2="1529.030"/>
      <line x1="467.987" y1="1579.030" x2="467.987" y2="1529.030"/>
      <line x1="468.987" y1="1579.030" x2="468.987" y2="1529.030"/>
      <line x1="469.987" y1="1579.030" x2="469.987" y2="1529.030"/>
      <line x1="470.987" y1="1579.030" x2="470.987" y2="1529.030"/>
      <line x1="471.987" y1="1579.030" x2="471.987" y2="1529.030"/>
      <line x1="472.987" y1="1579.030" x2="472.987" y2="1529.030"/>
      <line x1="473.987" y1="1579.030" x2="473.987" y2="1529.030"/>
      <line x1="474.987" y1="1579.030" x2="474.987" y2="1529.030"/>
      <line x1="475.987" y1="1579.030" x2="475.987" y2="1529.030"/>
      <line x1="476.987" y1="1579.030" x2="476.987" y2="1529.030"/>
      <line x1="477.987" y1="1579.030" x2="477.987" y2="1529.030"/>
      <line x1="478.987" y1="1579.030" x2="478.987" y2="1529.030"/>
      <line x1="479.987" y1="1579.030" x2="479.987" y2="1529.030"/>
      <line x1="480.987" y1="1579.030" x2="480.987" y2="1529.030"/>
      <line x1="481.987" y1="1579.030" x2="481.987" y2="1529.030"/>
      <line x1="482.987" y1="1579.030" x2="482.987" y2="1529.030"/>
      <line x1="483.987" y1="1579.030" x2="483.987" y2="1529.030"/>
      <line x1="484.987" y1="1579.030" x2="484.987" y2="1529.030"/>
      <line x1="485.987" y1="1579.030" x2="485.987" y2="1529.030"/>
      <line x1="486.987" y1="1579.030" x2="486.987" y2="1529.030"/>
      <line x1="487.987" y1="1579.030" x2="487.987" y2="1529.030"/>
      <line x1="488.987" y1="1579.030" x2="488.987" y2="1529.030"/>
      <line x1="489.987" y1="1579.030" x2="489.987" y2="1529.030"/>
      <line x1="490.987" y1="1579.030" x2="490.987" y2="1529.030"/>
      <line x1="491.987" y1="1579.030" x2="491.987" y2="1529.030"/>
      <line x1="492.987" y1="1579.030" x2="492.987" y2="1529.030"/>
      <line x1="493.987" y1="1579.030" x2="493.987" y2="1529.030"/>
      <line x1="494.987" y1="1579.030" x2="494.987" y2="1529.030"/>
      <line x1="495.987" y1="1579.030" x2="495.987" y2="1529.030"/>
      <line x1="496.987" y1="1579.030" x2="496.987" y2="1529.030"/>
      <line x1="497.987" y1="1579.030" x2="497.987" y2="1529.030"/>
      <line x1="498.987" y1="1579.030" x2="498.987" y2="1529.030"/>
      <line x1="499.987" y1="1579.030" x2="499.987" y2="1529.030"/>
      <line x1="500.987" y1="1579.030" x2="500.987" y2="1529.030"/>
      <line x1="501.987" y1="1579.030" x2="501.987" y2="1529.030"/>
      <line x1="502.987" y1="1579.030" x2="502.987" y2="1529.030"/>
      <line x1="503.987" y1="1579.030" x2="503.987" y2="1529.030"/>
      <line x1="504.987" y1="1579.030" x2="504.987" y2="1529.030"/>
      <line x1="505.987" y1="1579.030" x2="505.987" y2="1529.030"/>
      <line x1="506.987" y1="1579.030" x2="506.987" y2="1529.030"/>
      <line x1="507.987" y1="1579.030" x2="507.987" y2="1529.030"/>
      <line x1="508.987" y1="1579.030" x2="508.987" y2="1529.030"/>
      <line x1="509.987" y1="1579.030" x2="509.987" y2="1529.030"/>
      <line x1="510.987" y1="1579.030" x2="510.987" y2="1529.030"/>
      <line x1="511.987" y1="1579.030" x2="511.987" y2="1529.030"/>
      <line x1="512.987" y1="1579.030" x2="512.987" y2="1529.030"/>
      <line x1="513.987" y1="1579.030" x2="513.987" y2="1529.030"/>
      <line x1="514.987" y1="1579.030" x2="514.987" y2="1529.030"/>
      <line x1="515.987" y1="1579.030" x2="515.987" y2="1529.030"/>
      <line x1="516.987" y1="1579.030" x2="516.987" y2="1529.030"/>
      <line x1="517.987" y1="1579.030" x2="517.987" y2="1529.030"/>
      <line x1="518.987" y1="1579.030" x2="518.987" y2="1529.030"/>
      <line x1="519.987" y1="1579.030" x2="519.987" y2="1529.030"/>
      <line x1="520.987" y1="1579.030" x2="520.987" y2="1529.030"/>
      <line x1="521.987" y1="1579.030" x2="521.987" y2="1529.030"/>
      <line x1="522.987" y1="1579.030" x2="522.987" y2="1529.030"/>
      <line x1="523.987" y1="1579.030" x2="523.987" y2="1529.030"/>
      <line x1="524.987" y1="1579.030" x2="524.987" y2="1529.030"/>
      <line x1="525.987" y1="1579.030" x2="525.987" y2="1529.030"/>
      <line x1="526.987" y1="1579.030" x2="526.987" y2="1529.030"/>
      <line x1="527.987" y1="1579.030" x2="527.987" y2="1529.030"/>
      <line x1="528.987" y1="1579.030" x2="528.987" y2="1529.030"/>
      <line x1="529.987" y1="1579.030" x2="529.987" y2="1529.030"/>
      <line x1="530.987" y1="1579.030" x2="530.987" y2="1529.030"/>
      <line x1="531.987" y1="1579.030" x2="531.987" y2="1529.030"/>
      <line x1="532.987" y1="1579.030" x2="532.987" y2="1529.030"/>
      <line x1="533.987" y1="1579.030" x2="533.987" y2="1529.030"/>
      <line x1="534.987" y1="1579.030" x2="534.987" y2="1529.030"/>
      <line x1="535.987" y1="1579.030" x2="535.987" y2="1529.030"/>
      <line x1="536.987" y1="1579.030" x2="536.987" y2="1529.030"/>
      <line x1="537.987" y1="1579.030" x2="537.987" y2="1529.030"/>
      <line x1="538.987" y1="1579.030" x2="538.987" y2="1529.030"/>
      <line x1="539.987" y1="1579.030" x2="539.987" y2="1529.030"/>
      <line x1="540.987" y1="1579.030" x2="540.987" y2="1529.030"/>
      <line x1="541.987" y1="1579.030" x2="541.987" y2="1529.030"/>
      <line x1="542.987" y1="1579.030" x2="542.987" y2="1529.030"/>
      <line x1="543.987" y1="1579.030" x2="543.987" y2="1529.030"/>
      <line x1="544.987" y1="1579.030" x2="544.987" y2="1529.030"/>
      <line x1="545.987" y1="1579.030" x2="545.987" y2="1529.030"/>
      <line x1="546.987" y1="1579.030" x2="546.987" y2="1529.030"/>
      <line x1="547.987" y1="1579.030" x2="547.987" y2="1529.030"/>
      <line x1="548.987" y1="1579.030" x2="548.987" y2="1529.030"/>
      <line x1="549.987" y1="1579.030" x2="549.987" y2="1529.030"/>
      <line x1="550.987" y1="1579.030" x2="550.987" y2="1529.030"/>
      <line x1="551.987" y1="1579.030" x2="551.987" y2="1529.030"/>
      <line x1="552.987" y1="1579.030" x2="552.987" y2="1529.030"/>
      <line x1="553.987" y1="1579.030" x2="553.987" y2="1529.030"/>
      <line x1="554.987" y1="1579.030" x2="554.987" y2="1529.030"/>
      <line x1="555.987" y1="1579.030" x2="555.987" y2="1529.030"/>
      <line x1="556.987" y1="1579.030" x2="556.987" y2="1529.030"/>
      <line x1="557.987" y1="1579.030" x2="557.987" y2="1529.030"/>
      <line x1="558.987" y1="1579.030" x2="558.987" y2="1529.030"/>
      <line x1="559.987" y1="1579.030" x2="559.987" y2="1529.030"/>
      <line x1="560.987" y1="1579.030" x2="560.987" y2="1529.030"/>
      <line x1="561.987" y1="1579.030" x2="561.987" y2="1529.030"/>
      <line x1="562.987" y1="1579.030" x2="562.987" y2="1529.030"/>
      <line x1="563.987" y1="1579.030" x2="563.987" y2="1529.030"/>
      <line x1="564.987" y1="1579.030" x2="564.987" y2="1529.030"/>
      <line x1="565.987" y1="1579.030" x2="565.987" y2="1529.030"/>
      <line x1="566.987" y1="1579.030" x2="566.987" y2="1529.030"/>
      <line x1="567.987" y1="1579.030" x2="567.987" y2="1529.030"/>
      <line x1="568.987" y1="1579.030" x2="568.987" y2="1529.030"/>
      <line x1="569.987" y1="1579.030" x2="569.987" y2="1529.030"/>
      <line x1="570.987" y1="1579.030" x2="570.987" y2="1529.030"/>
      <line x1="571.987" y1="1579.030" x2="571.987" y2="1529.030"/>
      <line x1="572.987" y1="1579.030" x2="572.987" y2="1529.030"/>
      <line x1="573.987" y1="1579.030" x2="573.987" y2="1529.030"/>
      <line x1="574.987" y1="1579.030" x2="574.987" y2="1529.030"/>
      <line x1="575.987" y1="1579.030" x2="575.987" y2="1529.030"/>
      <line x1="576.987" y1="1579.030" x2="576.987" y2="1529.030"/>
      <line x1="577.987" y1="1579.030" x2="577.987" y2="1529.030"/>
      <line x1="578.987" y1="1579.030" x2="578.987" y2="1529.030"/>
      <line x1="579.987" y1="1579.030" x2="579.987" y2="1529.030"/>
      <line x1="580.987" y1="1579.030" x2="580.987" y2="1529.030"/>
      <line x1="581.987" y1="1579.030" x2="581.987" y2="1529.030"/>
      <line x1="582.987" y1="1579.030" x2="582.987" y2="1529.030"/>
      <line x1="583.987" y1="1579.030" x2="583.987" y2="1529.030"/>
      <line x1="584.987" y1="1579.030" x2="584.987" y2="1529.030"/>
      <line x1="585.987" y1="1579.030" x2="585.987" y2="1529.030"/>
      <line x1="586.987" y1="1579.030" x2="586.987" y2="1529.030"/>
      <line x1="587.987" y1="1579.030" x2="587.987" y2="1529.030"/>
      <line x1="588.987" y1="1579.030" x2="588.987" y2="1529.030"/>
      <line x1="589.987" y1="1579.030" x2="589.987" y2="1529.030"/>
      <line x1="590.987" y1="1579.030" x2="590.987" y2="1529.030"/>
      <line x1="591.987" y1="1579.030" x2="591.987" y2="1529.030"/>
      <line x1="491.987" y1="1528.930" x2="491.987" y2="1525.229"/>
      <line x1="492.987" y1="1528.930" x2="492.987" y2="1525.229"/>
      <line x1="486.987" y1="1528.930" x2="486.987" y2="1525.229"/>
      <line x1="463.987" y1="1528.930" x2="463.987" y2="1525.229"/>
      <line x1="464.987" y1="1528.930" x2="464.987" y2="1525.229"/>
      <line x1="466.987" y1="1528.930" x2="466.987" y2="1525.229"/>
      <line x1="469.987" y1="1528.930" x2="469.987" y2="1525.229"/>
      <line x1="471.987" y1="1528.930" x2="471.987" y2="1525.229"/>
      <line x1="472.987" y1="1528.930" x2="472.987" y2="1525.229"/>
      <line x1="474.987" y1="1528.930" x2="474.987" y2="1525.229"/>
      <line x1="477.987" y1="1528.930" x2="477.987" y2="1525.229"/>
      <line x1="489.987" y1="1528.930" x2="489.987" y2="1525.229"/>
      <line x1="484.987" y1="1528.930" x2="484.987" y2="1525.229"/>
      <line x1="483.987" y1="1528.930" x2="483.987" y2="1525.229"/>
      <line x1="480.987" y1="1528.930" x2="480.987" y2="1525.229"/>
      <line x1="475.987" y1="1528.930" x2="475.987" y2="1525.229"/>
      <line x1="481.987" y1="1528.930" x2="481.987" y2="1525.229"/>
      <line x1="478.987" y1="1528.930" x2="478.987" y2="1525.229"/>
      <line x1="468.987" y1="1528.930" x2="468.987" y2="1525.229"/>
      <line x1="467.987" y1="1528.930" x2="467.987" y2="1525.229"/>
      <line x1="470.987" y1="1528.930" x2="470.987" y2="1525.229"/>
      <line x1="473.987" y1="1528.930" x2="473.987" y2="1525.229"/>
      <line x1="476.987" y1="1528.930" x2="476.987" y2="1525.229"/>
      <line x1="479.987" y1="1528.930" x2="479.987" y2="1525.229"/>
      <line x1="482.987" y1="1528.930" x2="482.987" y2="1525.229"/>
      <line x1="485.987" y1="1528.930" x2="485.987" y2="1525.229"/>
      <line x1="488.987" y1="1528.930" x2="488.987" y2="1525.229"/>
      <line x1="487.987" y1="1528.930" x2="487.987" y2="1525.229"/>
      <line x1="490.987" y1="1528.930" x2="490.987" y2="1525.229"/>
      <line x1="465.987" y1="1528.930" x2="465.987" y2="1525.229"/>
      <line x1="495.987" y1="1528.930" x2="495.987" y2="1525.229"/>
      <line x1="506.987" y1="1528.930" x2="506.987" y2="1525.229"/>
      <line x1="505.987" y1="1528.930" x2="505.987" y2="1525.229"/>
      <line x1="504.987" y1="1528.930" x2="504.987" y2="1525.229"/>
      <line x1="503.987" y1="1528.930" x2="503.987" y2="1525.229"/>
      <line x1="502.987" y1="1528.930" x2="502.987" y2="1525.229"/>
      <line x1="501.987" y1="1528.930" x2="501.987" y2="1525.229"/>
      <line x1="500.987" y1="1528.930" x2="500.987" y2="1525.229"/>
      <line x1="499.987" y1="1528.930" x2="499.987" y2="1525.229"/>
      <line x1="498.987" y1="1528.930" x2="498.987" y2="1525.229"/>
      <line x1="497.987" y1="1528.930" x2="497.987" y2="1525.229"/>
      <line x1="496.987" y1="1528.930" x2="496.987" y2="1525.229"/>
      <line x1="507.987" y1="1528.930" x2="507.987" y2="1525.229"/>
      <line x1="494.987" y1="1528.930" x2="494.987" y2="1525.229"/>
      <line x1="493.987" y1="1528.930" x2="493.987" y2="1525.229"/>
      <line x1="512.987" y1="1528.930" x2="512.987" y2="1525.229"/>
      <line x1="511.987" y1="1528.930" x2="511.987" y2="1525.229"/>
      <line x1="510.987" y1="1528.930" x2="510.987" y2="1525.229"/>
      <line x1="509.987" y1="1528.930" x2="509.987" y2="1525.229"/>
      <line x1="508.987" y1="1528.930" x2="508.987" y2="1525.229"/>
      <line x1="543.987" y1="1528.930" x2="543.987" y2="1525.229"/>
      <line x1="554.987" y1="1528.930" x2="554.987" y2="1525.229"/>
      <line x1="553.987" y1="1528.930" x2="553.987" y2="1525.229"/>
      <line x1="552.987" y1="1528.930" x2="552.987" y2="1525.229"/>
      <line x1="551.987" y1="1528.930" x2="551.987" y2="1525.229"/>
      <line x1="550.987" y1="1528.930" x2="550.987" y2="1525.229"/>
      <line x1="549.987" y1="1528.930" x2="549.987" y2="1525.229"/>
      <line x1="548.987" y1="1528.930" x2="548.987" y2="1525.229"/>
      <line x1="547.987" y1="1528.930" x2="547.987" y2="1525.229"/>
      <line x1="546.987" y1="1528.930" x2="546.987" y2="1525.229"/>
      <line x1="545.987" y1="1528.930" x2="545.987" y2="1525.229"/>
      <line x1="544.987" y1="1528.930" x2="544.987" y2="1525.229"/>
      <line x1="555.987" y1="1528.930" x2="555.987" y2="1525.229"/>
      <line x1="542.987" y1="1528.930" x2="542.987" y2="1525.229"/>
      <line x1="541.987" y1="1528.930" x2="541.987" y2="1525.229"/>
      <line x1="540.987" y1="1528.930" x2="540.987" y2="1525.229"/>
      <line x1="539.987" y1="1528.930" x2="539.987" y2="1525.229"/>
      <line x1="538.987" y1="1528.930" x2="538.987" y2="1525.229"/>
      <line x1="537.987" y1="1528.930" x2="537.987" y2="1525.229"/>
      <line x1="536.987" y1="1528.930" x2="536.987" y2="1525.229"/>
      <line x1="535.987" y1="1528.930" x2="535.987" y2="1525.229"/>
      <line x1="534.987" y1="1528.930" x2="534.987" y2="1525.229"/>
      <line x1="533.987" y1="1528.930" x2="533.987" y2="1525.229"/>
      <line x1="532.987" y1="1528.930" x2="532.987" y2="1525.229"/>
      <line x1="562.987" y1="1528.930" x2="562.987" y2="1525.229"/>
      <line x1="561.987" y1="1528.930" x2="561.987" y2="1525.229"/>
      <line x1="560.987" y1="1528.930" x2="560.987" y2="1525.229"/>
      <line x1="559.987" y1="1528.930" x2="559.987" y2="1525.229"/>
      <line x1="558.987" y1="1528.930" x2="558.987" y2="1525.229"/>
      <line x1="557.987" y1="1528.930" x2="557.987" y2="1525.229"/>
      <line x1="556.987" y1="1528.930" x2="556.987" y2="1525.229"/>
      <line x1="519.987" y1="1528.930" x2="519.987" y2="1525.229"/>
      <line x1="530.987" y1="1528.930" x2="530.987" y2="1525.229"/>
      <line x1="529.987" y1="1528.930" x2="529.987" y2="1525.229"/>
      <line x1="528.987" y1="1528.930" x2="528.987" y2="1525.229"/>
      <line x1="527.987" y1="1528.930" x2="527.987" y2="1525.229"/>
      <line x1="526.987" y1="1528.930" x2="526.987" y2="1525.229"/>
      <line x1="525.987" y1="1528.930" x2="525.987" y2="1525.229"/>
      <line x1="524.987" y1="1528.930" x2="524.987" y2="1525.229"/>
      <line x1="523.987" y1="1528.930" x2="523.987" y2="1525.229"/>
      <line x1="522.987" y1="1528.930" x2="522.987" y2="1525.229"/>
      <line x1="521.987" y1="1528.930" x2="521.987" y2="1525.229"/>
      <line x1="520.987" y1="1528.930" x2="520.987" y2="1525.229"/>
      <line x1="531.987" y1="1528.930" x2="531.987" y2="1525.229"/>
      <line x1="518.987" y1="1528.930" x2="518.987" y2="1525.229"/>
      <line x1="517.987" y1="1528.930" x2="517.987" y2="1525.229"/>
      <line x1="516.987" y1="1528.930" x2="516.987" y2="1525.229"/>
      <line x1="515.987" y1="1528.930" x2="515.987" y2="1525.229"/>
      <line x1="514.987" y1="1528.930" x2="514.987" y2="1525.229"/>
      <line x1="513.987" y1="1528.930" x2="513.987" y2="1525.229"/>
      <line x1="591.987" y1="1528.930" x2="591.987" y2="1525.229"/>
      <line x1="568.987" y1="1528.930" x2="568.987" y2="1525.229"/>
      <line x1="570.987" y1="1528.930" x2="570.987" y2="1525.229"/>
      <line x1="571.987" y1="1528.930" x2="571.987" y2="1525.229"/>
      <line x1="573.987" y1="1528.930" x2="573.987" y2="1525.229"/>
      <line x1="574.987" y1="1528.930" x2="574.987" y2="1525.229"/>
      <line x1="576.987" y1="1528.930" x2="576.987" y2="1525.229"/>
      <line x1="577.987" y1="1528.930" x2="577.987" y2="1525.229"/>
      <line x1="579.987" y1="1528.930" x2="579.987" y2="1525.229"/>
      <line x1="580.987" y1="1528.930" x2="580.987" y2="1525.229"/>
      <line x1="582.987" y1="1528.930" x2="582.987" y2="1525.229"/>
      <line x1="583.987" y1="1528.930" x2="583.987" y2="1525.229"/>
      <line x1="585.987" y1="1528.930" x2="585.987" y2="1525.229"/>
      <line x1="588.987" y1="1528.930" x2="588.987" y2="1525.229"/>
      <line x1="590.987" y1="1528.930" x2="590.987" y2="1525.229"/>
      <line x1="567.987" y1="1528.930" x2="567.987" y2="1525.229"/>
      <line x1="566.987" y1="1528.930" x2="566.987" y2="1525.229"/>
      <line x1="565.987" y1="1528.930" x2="565.987" y2="1525.229"/>
      <line x1="564.987" y1="1528.930" x2="564.987" y2="1525.229"/>
      <line x1="563.987" y1="1528.930" x2="563.987" y2="1525.229"/>
      <line x1="569.987" y1="1528.930" x2="569.987" y2="1525.229"/>
      <line x1="572.987" y1="1528.930" x2="572.987" y2="1525.229"/>
      <line x1="575.987" y1="1528.930" x2="575.987" y2="1525.229"/>
      <line x1="578.987" y1="1528.930" x2="578.987" y2="1525.229"/>
      <line x1="581.987" y1="1528.930" x2="581.987" y2="1525.229"/>
      <line x1="584.987" y1="1528.930" x2="584.987" y2="1525.229"/>
      <line x1="587.987" y1="1528.930" x2="587.987" y2="1525.229"/>
      <line x1="586.987" y1="1528.930" x2="586.987" y2="1525.229"/>
      <line x1="589.987" y1="1528.930" x2="589.987" y2="1525.229"/>
      <line x1="8.057" y1="1679.230" x2="8.057" y2="1629.230"/>
      <line x1="9.057" y1="1679.230" x2="9.057" y2="1629.230"/>
      <line x1="10.057" y1="1679.230" x2="10.057" y2="1629.230"/>
      <line x1="11.057" y1="1679.230" x2="11.057" y2="1629.230"/>
      <line x1="12.057" y1="1679.230" x2="12.057" y2="1629.230"/>
      <line x1="13.057" y1="1679.230" x2="13.057" y2="1629.230"/>
      <line x1="14.057" y1="1679.230" x2="14.057" y2="1629.230"/>
      <line x1="15.057" y1="1679.230" x2="15.057" y2="1629.230"/>
      <line x1="16.057" y1="1679.230" x2="16.057" y2="1629.230"/>
      <line x1="17.057" y1="1679.230" x2="17.057" y2="1629.230"/>
      <line x1="18.057" y1="1679.230" x2="18.057" y2="1629.230"/>
      <line x1="19.057" y1="1679.230" x2="19.057" y2="1629.230"/>
      <line x1="20.057" y1="1679.230" x2="20.057" y2="1629.230"/>
      <line x1="21.057" y1="1679.230" x2="21.057" y2="1629.230"/>
      <line x1="22.057" y1="1679.230" x2="22.057" y2="1629.230"/>
      <line x1="23.057" y1="1679.230" x2="23.057" y2="1629.230"/>
      <line x1="24.057" y1="1679.230" x2="24.057" y2="1629.230"/>
      <line x1="25.057" y1="1679.230" x2="25.057" y2="1629.230"/>
      <line x1="26.057" y1="1679.230" x2="26.057" y2="1629.230"/>
      <line x1="27.057" y1="1679.230" x2="27.057" y2="1629.230"/>
      <line x1="28.057" y1="1679.230" x2="28.057" y2="1629.230"/>
      <line x1="29.057" y1="1679.230" x2="29.057" y2="1629.230"/>
      <line x1="30.057" y1="1679.230" x2="30.057" y2="1629.230"/>
      <line x1="31.057" y1="1679.230" x2="31.057" y2="1629.230"/>
      <line x1="32.057" y1="1679.230" x2="32.057" y2="1629.230"/>
      <line x1="33.057" y1="1679.230" x2="33.057" y2="1629.230"/>
      <line x1="34.057" y1="1679.230" x2="34.057" y2="1629.230"/>
      <line x1="35.057" y1="1679.230" x2="35.057" y2="1629.230"/>
      <line x1="36.057" y1="1679.230" x2="36.057" y2="1629.230"/>
      <line x1="37.057" y1="1679.230" x2="37.057" y2="1629.230"/>
      <line x1="38.057" y1="1679.230" x2="38.057" y2="1629.230"/>
      <line x1="39.057" y1="1679.230" x2="39.057" y2="1629.230"/>
      <line x1="40.057" y1="1679.230" x2="40.057" y2="1629.230"/>
      <line x1="41.057" y1="1679.230" x2="41.057" y2="1629.230"/>
      <line x1="42.057" y1="1679.230" x2="42.057" y2="1629.230"/>
      <line x1="43.057" y1="1679.230" x2="43.057" y2="1629.230"/>
      <line x1="44.057" y1="1679.230" x2="44.057" y2="1629.230"/>
      <line x1="45.057" y1="1679.230" x2="45.057" y2="1629.230"/>
      <line x1="46.057" y1="1679.230" x2="46.057" y2="1629.230"/>
      <line x1="47.057" y1="1679.230" x2="47.057" y2="1629.230"/>
      <line x1="48.057" y1="1679.230" x2="48.057" y2="1629.230"/>
      <line x1="49.057" y1="1679.230" x2="49.057" y2="1629.230"/>
      <line x1="50.057" y1="1679.230" x2="50.057" y2="1629.230"/>
      <line x1="51.057" y1="1679.230" x2="51.057" y2="1629.230"/>
      <line x1="52.057" y1="1679.230" x2="52.057" y2="1629.230"/>
      <line x1="53.057" y1="1679.230" x2="53.057" y2="1629.230"/>
      <line x1="54.057" y1="1679.230" x2="54.057" y2="1629.230"/>
      <line x1="55.057" y1="1679.230" x2="55.057" y2="1629.230"/>
      <line x1="56.057" y1="1679.230" x2="56.057" y2="1629.230"/>
      <line x1="57.057" y1="1679.230" x2="57.057" y2="1629.230"/>
      <line x1="58.057" y1="1679.230" x2="58.057" y2="1629.230"/>
      <line x1="59.057" y1="1679.230" x2="59.057" y2="1629.230"/>
      <line x1="60.057" y1="1679.230" x2="60.057" y2="1629.230"/>
      <line x1="61.057" y1="1679.230" x2="61.057" y2="1629.230"/>
      <line x1="62.057" y1="1679.230" x2="62.057" y2="1629.230"/>
      <line x1="63.057" y1="1679.230" x2="63.057" y2="1629.230"/>
      <line x1="64.057" y1="1679.230" x2="64.057" y2="1629.230"/>
      <line x1="65.057" y1="1679.230" x2="65.057" y2="1629.230"/>
      <line x1="66.057" y1="1679.230" x2="66.057" y2="1629.230"/>
      <line x1="67.057" y1="1679.230" x2="67.057" y2="1629.230"/>
      <line x1="68.057" y1="1679.230" x2="68.057" y2="1629.230"/>
      <line x1="69.057" y1="1679.230" x2="69.057" y2="1629.230"/>
      <line x1="70.057" y1="1679.230" x2="70.057" y2="1629.230"/>
      <line x1="71.057" y1="1679.230" x2="71.057" y2="1629.230"/>
      <line x1="72.057" y1="1679.230" x2="72.057" y2="1629.230"/>
      <line x1="73.057" y1="1679.230" x2="73.057" y2="1629.230"/>
      <line x1="74.057" y1="1679.230" x2="74.057" y2="1629.230"/>
      <line x1="75.057" y1="1679.230" x2="75.057" y2="1629.230"/>
      <line x1="76.057" y1="1679.230" x2="76.057" y2="1629.230"/>
      <line x1="77.057" y1="1679.230" x2="77.057" y2="1629.230"/>
      <line x1="78.057" y1="1679.230" x2="78.057" y2="1629.230"/>
      <line x1="79.057" y1="1679.230" x2="79.057" y2="1629.230"/>
      <line x1="80.057" y1="1679.230" x2="80.057" y2="1629.230"/>
      <line x1="81.057" y1="1679.230" x2="81.057" y2="1629.230"/>
      <line x1="82.057" y1="1679.230" x2="82.057" y2="1629.230"/>
      <line x1="83.057" y1="1679.230" x2="83.057" y2="1629.230"/>
      <line x1="84.057" y1="1679.230" x2="84.057" y2="1629.230"/>
      <line x1="85.057" y1="1679.230" x2="85.057" y2="1629.230"/>
      <line x1="86.057" y1="1679.230" x2="86.057" y2="1629.230"/>
      <line x1="87.057" y1="1679.230" x2="87.057" y2="1629.230"/>
      <line x1="88.057" y1="1679.230" x2="88.057" y2="1629.230"/>
      <line x1="89.057" y1="1679.230" x2="89.057" y2="1629.230"/>
      <line x1="90.057" y1="1679.230" x2="90.057" y2="1629.230"/>
      <line x1="91.057" y1="1679.230" x2="91.057" y2="1629.230"/>
      <line x1="92.057" y1="1679.230" x2="92.057" y2="1629.230"/>
      <line x1="93.057" y1="1679.230" x2="93.057" y2="1629.230"/>
      <line x1="94.057" y1="1679.230" x2="94.057" y2="1629.230"/>
      <line x1="95.057" y1="1679.230" x2="95.057" y2="1629.230"/>
      <line x1="96.057" y1="1679.230" x2="96.057" y2="1629.230"/>
      <line x1="97.057" y1="1679.230" x2="97.057" y2="1629.230"/>
      <line x1="98.057" y1="1679.230" x2="98.057" y2="1629.230"/>
      <line x1="99.057" y1="1679.230" x2="99.057" y2="1629.230"/>
      <line x1="100.057" y1="1679.230" x2="100.057" y2="1629.230"/>
      <line x1="101.057" y1="1679.230" x2="101.057" y2="1629.230"/>
      <line x1="102.057" y1="1679.230" x2="102.057" y2="1629.230"/>
      <line x1="103.057" y1="1679.230" x2="103.057" y2="1629.230"/>
      <line x1="104.057" y1="1679.230" x2="104.057" y2="1629.230"/>
      <line x1="105.057" y1="1679.230" x2="105.057" y2="1629.230"/>
      <line x1="106.057" y1="1679.230" x2="106.057" y2="1629.230"/>
      <line x1="107.057" y1="1679.230" x2="107.057" y2="1629.230"/>
      <line x1="108.057" y1="1679.230" x2="108.057" y2="1629.230"/>
      <line x1="109.057" y1="1679.230" x2="109.057" y2="1629.230"/>
      <line x1="110.057" y1="1679.230" x2="110.057" y2="1629.230"/>
      <line x1="111.057" y1="1679.230" x2="111.057" y2="1629.230"/>
      <line x1="112.057" y1="1679.230" x2="112.057" y2="1629.230"/>
      <line x1="113.057" y1="1679.230" x2="113.057" y2="1629.230"/>
      <line x1="114.057" y1="1679.230" x2="114.057" y2="1629.230"/>
      <line x1="115.057" y1="1679.230" x2="115.057" y2="1629.230"/>
      <line x1="116.057" y1="1679.230" x2="116.057" y2="1629.230"/>
      <line x1="117.057" y1="1679.230" x2="117.057" y2="1629.230"/>
      <line x1="118.057" y1="1679.230" x2="118.057" y2="1629.230"/>
      <line x1="119.057" y1="1679.230" x2="119.057" y2="1629.230"/>
      <line x1="120.057" y1="1679.230" x2="120.057" y2="1629.230"/>
      <line x1="121.057" y1="1679.230" x2="121.057" y2="1629.230"/>
      <line x1="122.057" y1="1679.230" x2="122.057" y2="1629.230"/>
      <line x1="123.057" y1="1679.230" x2="123.057" y2="1629.230"/>
      <line x1="124.057" y1="1679.230" x2="124.057" y2="1629.230"/>
      <line x1="125.057" y1="1679.230" x2="125.057" y2="1629.230"/>
      <line x1="126.057" y1="1679.230" x2="126.057" y2="1629.230"/>
      <line x1="127.057" y1="1679.230" x2="127.057" y2="1629.230"/>
      <line x1="128.057" y1="1679.230" x2="128.057" y2="1629.230"/>
      <line x1="129.057" y1="1679.230" x2="129.057" y2="1629.230"/>
      <line x1="130.057" y1="1679.230" x2="130.057" y2="1629.230"/>
      <line x1="131.057" y1="1679.230" x2="131.057" y2="1629.230"/>
      <line x1="132.057" y1="1679.230" x2="132.057" y2="1629.230"/>
      <line x1="133.057" y1="1679.230" x2="133.057" y2="1629.230"/>
      <line x1="134.057" y1="1679.230" x2="134.057" y2="1629.230"/>
      <line x1="135.057" y1="1679.230" x2="135.057" y2="1629.230"/>
      <line x1="136.057" y1="1679.230" x2="136.057" y2="1629.230"/>
      <line x1="8.057" y1="1629.130" x2="8.057" y2="1579.130"/>
      <line x1="9.057" y1="1629.130" x2="9.057" y2="1579.130"/>
      <line x1="10.057" y1="1629.130" x2="10.057" y2="1579.130"/>
      <line x1="11.057" y1="1629.130" x2="11.057" y2="1579.130"/>
      <line x1="12.057" y1="1629.130" x2="12.057" y2="1579.130"/>
      <line x1="13.057" y1="1629.130" x2="13.057" y2="1579.130"/>
      <line x1="14.057" y1="1629.130" x2="14.057" y2="1579.130"/>
      <line x1="15.057" y1="1629.130" x2="15.057" y2="1579.130"/>
      <line x1="16.057" y1="1629.130" x2="16.057" y2="1579.130"/>
      <line x1="17.057" y1="1629.130" x2="17.057" y2="1579.130"/>
      <line x1="18.057" y1="1629.130" x2="18.057" y2="1579.130"/>
      <line x1="19.057" y1="1629.130" x2="19.057" y2="1579.130"/>
      <line x1="20.057" y1="1629.130" x2="20.057" y2="1579.130"/>
      <line x1="21.057" y1="1629.130" x2="21.057" y2="1579.130"/>
      <line x1="22.057" y1="1629.130" x2="22.057" y2="1579.130"/>
      <line x1="23.057" y1="1629.130" x2="23.057" y2="1579.130"/>
      <line x1="24.057" y1="1629.130" x2="24.057" y2="1579.130"/>
      <line x1="25.057" y1="1629.130" x2="25.057" y2="1579.130"/>
      <line x1="26.057" y1="1629.130" x2="26.057" y2="1579.130"/>
      <line x1="27.057" y1="1629.130" x2="27.057" y2="1579.130"/>
      <line x1="28.057" y1="1629.130" x2="28.057" y2="1579.130"/>
      <line x1="29.057" y1="1629.130" x2="29.057" y2="1579.130"/>
      <line x1="30.057" y1="1629.130" x2="30.057" y2="1579.130"/>
      <line x1="31.057" y1="1629.130" x2="31.057" y2="1579.130"/>
      <line x1="32.057" y1="1629.130" x2="32.057" y2="1579.130"/>
      <line x1="33.057" y1="1629.130" x2="33.057" y2="1579.130"/>
      <line x1="34.057" y1="1629.130" x2="34.057" y2="1579.130"/>
      <line x1="35.057" y1="1629.130" x2="35.057" y2="1579.130"/>
      <line x1="36.057" y1="1629.130" x2="36.057" y2="1579.130"/>
      <line x1="37.057" y1="1629.130" x2="37.057" y2="1579.130"/>
      <line x1="38.057" y1="1629.130" x2="38.057" y2="1579.130"/>
      <line x1="39.057" y1="1629.130" x2="39.057" y2="1579.130"/>
      <line x1="40.057" y1="1629.130" x2="40.057" y2="1579.130"/>
      <line x1="41.057" y1="1629.130" x2="41.057" y2="1579.130"/>
      <line x1="42.057" y1="1629.130" x2="42.057" y2="1579.130"/>
      <line x1="43.057" y1="1629.130" x2="43.057" y2="1579.130"/>
      <line x1="44.057" y1="1629.130" x2="44.057" y2="1579.130"/>
      <line x1="45.057" y1="1629.130" x2="45.057" y2="1579.130"/>
      <line x1="46.057" y1="1629.130" x2="46.057" y2="1579.130"/>
      <line x1="47.057" y1="1629.130" x2="47.057" y2="1579.130"/>
      <line x1="48.057" y1="1629.130" x2="48.057" y2="1579.130"/>
      <line x1="49.057" y1="1629.130" x2="49.057" y2="1579.130"/>
      <line x1="50.057" y1="1629.130" x2="50.057" y2="1579.130"/>
      <line x1="51.057" y1="1629.130" x2="51.057" y2="1579.130"/>
      <line x1="52.057" y1="1629.130" x2="52.057" y2="1579.130"/>
      <line x1="53.057" y1="1629.130" x2="53.057" y2="1579.130"/>
      <line x1="54.057" y1="1629.130" x2="54.057" y2="1579.130"/>
      <line x1="55.057" y1="1629.130" x2="55.057" y2="1579.130"/>
      <line x1="56.057" y1="1629.130" x2="56.057" y2="1579.130"/>
      <line x1="57.057" y1="1629.130" x2="57.057" y2="1579.130"/>
      <line x1="58.057" y1="1629.130" x2="58.057" y2="1579.130"/>
      <line x1="59.057" y1="1629.130" x2="59.057" y2="1579.130"/>
      <line x1="60.057" y1="1629.130" x2="60.057" y2="1579.130"/>
      <line x1="61.057" y1="1629.130" x2="61.057" y2="1579.130"/>
      <line x1="62.057" y1="1629.130" x2="62.057" y2="1579.130"/>
      <line x1="63.057" y1="1629.130" x2="63.057" y2="1579.130"/>
      <line x1="64.057" y1="1629.130" x2="64.057" y2="1579.130"/>
      <line x1="65.057" y1="1629.130" x2="65.057" y2="1579.130"/>
      <line x1="66.057" y1="1629.130" x2="66.057" y2="1579.130"/>
      <line x1="67.057" y1="1629.130" x2="67.057" y2="1579.130"/>
      <line x1="68.057" y1="1629.130" x2="68.057" y2="1579.130"/>
      <line x1="69.057" y1="1629.130" x2="69.057" y2="1579.130"/>
      <line x1="70.057" y1="1629.130" x2="70.057" y2="1579.130"/>
      <line x1="71.057" y1="1629.130" x2="71.057" y2="1579.130"/>
      <line x1="72.057" y1="1629.130" x2="72.057" y2="1579.130"/>
      <line x1="73.057" y1="1629.130" x2="73.057" y2="1579.130"/>
      <line x1="74.057" y1="1629.130" x2="74.057" y2="1579.130"/>
      <line x1="75.057" y1="1629.130" x2="75.057" y2="1579.130"/>
      <line x1="76.057" y1="1629.130" x2="76.057" y2="1579.130"/>
      <line x1="77.057" y1="1629.130" x2="77.057" y2="1579.130"/>
      <line x1="78.057" y1="1629.130" x2="78.057" y2="1579.130"/>
      <line x1="79.057" y1="1629.130" x2="79.057" y2="1579.130"/>
      <line x1="80.057" y1="1629.130" x2="80.057" y2="1579.130"/>
      <line x1="81.057" y1="1629.130" x2="81.057" y2="1579.130"/>
      <line x1="82.057" y1="1629.130" x2="82.057" y2="1579.130"/>
      <line x1="83.057" y1="1629.130" x2="83.057" y2="1579.130"/>
      <line x1="84.057" y1="1629.130" x2="84.057" y2="1579.130"/>
      <line x1="85.057" y1="1629.130" x2="85.057" y2="1579.130"/>
      <line x1="86.057" y1="1629.130" x2="86.057" y2="1579.130"/>
      <line x1="87.057" y1="1629.130" x2="87.057" y2="1579.130"/>
      <line x1="88.057" y1="1629.130" x2="88.057" y2="1579.130"/>
      <line x1="89.057" y1="1629.130" x2="89.057" y2="1579.130"/>
      <line x1="90.057" y1="1629.130" x2="90.057" y2="1579.130"/>
      <line x1="91.057" y1="1629.130" x2="91.057" y2="1579.130"/>
      <line x1="92.057" y1="1629.130" x2="92.057" y2="1579.130"/>
      <line x1="93.057" y1="1629.130" x2="93.057" y2="1579.130"/>
      <line x1="94.057" y1="1629.130" x2="94.057" y2="1579.130"/>
      <line x1="95.057" y1="1629.130" x2="95.057" y2="1579.130"/>
      <line x1="96.057" y1="1629.130" x2="96.057" y2="1579.130"/>
      <line x1="97.057" y1="1629.130" x2="97.057" y2="1579.130"/>
      <line x1="98.057" y1="1629.130" x2="98.057" y2="1579.130"/>
      <line x1="99.057" y1="1629.130" x2="99.057" y2="1579.130"/>
      <line x1="100.057" y1="1629.130" x2="100.057" y2="1579.130"/>
      <line x1="101.057" y1="1629.130" x2="101.057" y2="1579.130"/>
      <line x1="102.057" y1="1629.130" x2="102.057" y2="1579.130"/>
      <line x1="103.057" y1="1629.130" x2="103.057" y2="1579.130"/>
      <line x1="104.057" y1="1629.130" x2="104.057" y2="1579.130"/>
      <line x1="105.057" y1="1629.130" x2="105.057" y2="1579.130"/>
      <line x1="106.057" y1="1629.130" x2="106.057" y2="1579.130"/>
      <line x1="107.057" y1="1629.130" x2="107.057" y2="1579.130"/>
      <line x1="108.057" y1="1629.130" x2="108.057" y2="1579.130"/>
      <line x1="109.057" y1="1629.130" x2="109.057" y2="1579.130"/>
      <line x1="110.057" y1="1629.130" x2="110.057" y2="1579.130"/>
      <line x1="111.057" y1="1629.130" x2="111.057" y2="1579.130"/>
      <line x1="112.057" y1="1629.130" x2="112.057" y2="1579.130"/>
      <line x1="113.057" y1="1629.130" x2="113.057" y2="1579.130"/>
      <line x1="114.057" y1="1629.130" x2="114.057" y2="1579.130"/>
      <line x1="115.057" y1="1629.130" x2="115.057" y2="1579.130"/>
      <line x1="116.057" y1="1629.130" x2="116.057" y2="1579.130"/>
      <line x1="117.057" y1="1629.130" x2="117.057" y2="1579.130"/>
      <line x1="118.057" y1="1629.130" x2="118.057" y2="1579.130"/>
      <line x1="119.057" y1="1629.130" x2="119.057" y2="1579.130"/>
      <line x1="120.057" y1="1629.130" x2="120.057" y2="1579.130"/>
      <line x1="121.057" y1="1629.130" x2="121.057" y2="1579.130"/>
      <line x1="122.057" y1="1629.130" x2="122.057" y2="1579.130"/>
      <line x1="123.057" y1="1629.130" x2="123.057" y2="1579.130"/>
      <line x1="124.057" y1="1629.130" x2="124.057" y2="1579.130"/>
      <line x1="125.057" y1="1629.130" x2="125.057" y2="1579.130"/>
      <line x1="126.057" y1="1629.130" x2="126.057" y2="1579.130"/>
      <line x1="127.057" y1="1629.130" x2="127.057" y2="1579.130"/>
      <line x1="128.057" y1="1629.130" x2="128.057" y2="1579.130"/>
      <line x1="129.057" y1="1629.130" x2="129.057" y2="1579.130"/>
      <line x1="130.057" y1="1629.130" x2="130.057" y2="1579.130"/>
      <line x1="131.057" y1="1629.130" x2="131.057" y2="1579.130"/>
      <line x1="132.057" y1="1629.130" x2="132.057" y2="1579.130"/>
      <line x1="133.057" y1="1629.130" x2="133.057" y2="1579.130"/>
      <line x1="134.057" y1="1629.130" x2="134.057" y2="1579.130"/>
      <line x1="135.057" y1="1629.130" x2="135.057" y2="1579.130"/>
      <line x1="136.057" y1="1629.130" x2="136.057" y2="1579.130"/>
      <line x1="8.057" y1="1579.030" x2="8.057" y2="1529.030"/>
      <line x1="9.057" y1="1579.030" x2="9.057" y2="1529.030"/>
      <line x1="10.057" y1="1579.030" x2="10.057" y2="1529.030"/>
      <line x1="11.057" y1="1579.030" x2="11.057" y2="1529.030"/>
      <line x1="12.057" y1="1579.030" x2="12.057" y2="1529.030"/>
      <line x1="13.057" y1="1579.030" x2="13.057" y2="1529.030"/>
      <line x1="14.057" y1="1579.030" x2="14.057" y2="1529.030"/>
      <line x1="15.057" y1="1579.030" x2="15.057" y2="1529.030"/>
      <line x1="16.057" y1="1579.030" x2="16.057" y2="1529.030"/>
      <line x1="17.057" y1="1579.030" x2="17.057" y2="1529.030"/>
      <line x1="18.057" y1="1579.030" x2="18.057" y2="1529.030"/>
      <line x1="19.057" y1="1579.030" x2="19.057" y2="1529.030"/>
      <line x1="20.057" y1="1579.030" x2="20.057" y2="1529.030"/>
      <line x1="21.057" y1="1579.030" x2="21.057" y2="1529.030"/>
      <line x1="22.057" y1="1579.030" x2="22.057" y2="1529.030"/>
      <line x1="23.057" y1="1579.030" x2="23.057" y2="1529.030"/>
      <line x1="24.057" y1="1579.030" x2="24.057" y2="1529.030"/>
      <line x1="25.057" y1="1579.030" x2="25.057" y2="1529.030"/>
      <line x1="26.057" y1="1579.030" x2="26.057" y2="1529.030"/>
      <line x1="27.057" y1="1579.030" x2="27.057" y2="1529.030"/>
      <line x1="28.057" y1="1579.030" x2="28.057" y2="1529.030"/>
      <line x1="29.057" y1="1579.030" x2="29.057" y2="1529.030"/>
      <line x1="30.057" y1="1579.030" x2="30.057" y2="1529.030"/>
      <line x1="31.057" y1="1579.030" x2="31.057" y2="1529.030"/>
      <line x1="32.057" y1="1579.030" x2="32.057" y2="1529.030"/>
      <line x1="33.057" y1="1579.030" x2="33.057" y2="1529.030"/>
      <line x1="34.057" y1="1579.030" x2="34.057" y2="1529.030"/>
      <line x1="35.057" y1="1579.030" x2="35.057" y2="1529.030"/>
      <line x1="36.057" y1="1579.030" x2="36.057" y2="1529.030"/>
      <line x1="37.057" y1="1579.030" x2="37.057" y2="1529.030"/>
      <line x1="38.057" y1="1579.030" x2="38.057" y2="1529.030"/>
      <line x1="39.057" y1="1579.030" x2="39.057" y2="1529.030"/>
      <line x1="40.057" y1="1579.030" x2="40.057" y2="1529.030"/>
      <line x1="41.057" y1="1579.030" x2="41.057" y2="1529.030"/>
      <line x1="42.057" y1="1579.030" x2="42.057" y2="1529.030"/>
      <line x1="43.057" y1="1579.030" x2="43.057" y2="1529.030"/>
      <line x1="44.057" y1="1579.030" x2="44.057" y2="1529.030"/>
      <line x1="45.057" y1="1579.030" x2="45.057" y2="1529.030"/>
      <line x1="46.057" y1="1579.030" x2="46.057" y2="1529.030"/>
      <line x1="47.057" y1="1579.030" x2="47.057" y2="1529.030"/>
      <line x1="48.057" y1="1579.030" x2="48.057" y2="1529.030"/>
      <line x1="49.057" y1="1579.030" x2="49.057" y2="1529.030"/>
      <line x1="50.057" y1="1579.030" x2="50.057" y2="1529.030"/>
      <line x1="51.057" y1="1579.030" x2="51.057" y2="1529.030"/>
      <line x1="52.057" y1="1579.030" x2="52.057" y2="1529.030"/>
      <line x1="53.057" y1="1579.030" x2="53.057" y2="1529.030"/>
      <line x1="54.057" y1="1579.030" x2="54.057" y2="1529.030"/>
      <line x1="55.057" y1="1579.030" x2="55.057" y2="1529.030"/>
      <line x1="56.057" y1="1579.030" x2="56.057" y2="1529.030"/>
      <line x1="57.057" y1="1579.030" x2="57.057" y2="1529.030"/>
      <line x1="58.057" y1="1579.030" x2="58.057" y2="1529.030"/>
      <line x1="59.057" y1="1579.030" x2="59.057" y2="1529.030"/>
      <line x1="60.057" y1="1579.030" x2="60.057" y2="1529.030"/>
      <line x1="61.057" y1="1579.030" x2="61.057" y2="1529.030"/>
      <line x1="62.057" y1="1579.030" x2="62.057" y2="1529.030"/>
      <line x1="63.057" y1="1579.030" x2="63.057" y2="1529.030"/>
      <line x1="64.057" y1="1579.030" x2="64.057" y2="1529.030"/>
      <line x1="65.057" y1="1579.030" x2="65.057" y2="1529.030"/>
      <line x1="66.057" y1="1579.030" x2="66.057" y2="1529.030"/>
      <line x1="67.057" y1="1579.030" x2="67.057" y2="1529.030"/>
      <line x1="68.057" y1="1579.030" x2="68.057" y2="1529.030"/>
      <line x1="69.057" y1="1579.030" x2="69.057" y2="1529.030"/>
      <line x1="70.057" y1="1579.030" x2="70.057" y2="1529.030"/>
      <line x1="71.057" y1="1579.030" x2="71.057" y2="1529.030"/>
      <line x1="72.057" y1="1579.030" x2="72.057" y2="1529.030"/>
      <line x1="73.057" y1="1579.030" x2="73.057" y2="1529.030"/>
      <line x1="74.057" y1="1579.030" x2="74.057" y2="1529.030"/>
      <line x1="75.057" y1="1579.030" x2="75.057" y2="1529.030"/>
      <line x1="76.057" y1="1579.030" x2="76.057" y2="1529.030"/>
      <line x1="77.057" y1="1579.030" x2="77.057" y2="1529.030"/>
      <line x1="78.057" y1="1579.030" x2="78.057" y2="1529.030"/>
      <line x1="79.057" y1="1579.030" x2="79.057" y2="1529.030"/>
      <line x1="80.057" y1="1579.030" x2="80.057" y2="1529.030"/>
      <line x1="81.057" y1="1579.030" x2="81.057" y2="1529.030"/>
      <line x1="82.057" y1="1579.030" x2="82.057" y2="1529.030"/>
      <line x1="83.057" y1="1579.030" x2="83.057" y2="1529.030"/>
      <line x1="84.057" y1="1579.030" x2="84.057" y2="1529.030"/>
      <line x1="85.057" y1="1579.030" x2="85.057" y2="1529.030"/>
      <line x1="86.057" y1="1579.030" x2="86.057" y2="1529.030"/>
      <line x1="87.057" y1="1579.030" x2="87.057" y2="1529.030"/>
      <line x1="88.057" y1="1579.030" x2="88.057" y2="1529.030"/>
      <line x1="89.057" y1="1579.030" x2="89.057" y2="1529.030"/>
      <line x1="90.057" y1="1579.030" x2="90.057" y2="1529.030"/>
      <line x1="91.057" y1="1579.030" x2="91.057" y2="1529.030"/>
      <line x1="92.057" y1="1579.030" x2="92.057" y2="1529.030"/>
      <line x1="93.057" y1="1579.030" x2="93.057" y2="1529.030"/>
      <line x1="94.057" y1="1579.030" x2="94.057" y2="1529.030"/>
      <line x1="95.057" y1="1579.030" x2="95.057" y2="1529.030"/>
      <line x1="96.057" y1="1579.030" x2="96.057" y2="1529.030"/>
      <line x1="97.057" y1="1579.030" x2="97.057" y2="1529.030"/>
      <line x1="98.057" y1="1579.030" x2="98.057" y2="1529.030"/>
      <line x1="99.057" y1="1579.030" x2="99.057" y2="1529.030"/>
      <line x1="100.057" y1="1579.030" x2="100.057" y2="1529.030"/>
      <line x1="101.057" y1="1579.030" x2="101.057" y2="1529.030"/>
      <line x1="102.057" y1="1579.030" x2="102.057" y2="1529.030"/>
      <line x1="103.057" y1="1579.030" x2="103.057" y2="1529.030"/>
      <line x1="104.057" y1="1579.030" x2="104.057" y2="1529.030"/>
      <line x1="105.057" y1="1579.030" x2="105.057" y2="1529.030"/>
      <line x1="106.057" y1="1579.030" x2="106.057" y2="1529.030"/>
      <line x1="107.057" y1="1579.030" x2="107.057" y2="1529.030"/>
      <line x1="108.057" y1="1579.030" x2="108.057" y2="1529.030"/>
      <line x1="109.057" y1="1579.030" x2="109.057" y2="1529.030"/>
      <line x1="110.057" y1="1579.030" x2="110.057" y2="1529.030"/>
      <line x1="111.057" y1="1579.030" x2="111.057" y2="1529.030"/>
      <line x1="112.057" y1="1579.030" x2="112.057" y2="1529.030"/>
      <line x1="113.057" y1="1579.030" x2="113.057" y2="1529.030"/>
      <line x1="114.057" y1="1579.030" x2="114.057" y2="1529.030"/>
      <line x1="115.057" y1="1579.030" x2="115.057" y2="1529.030"/>
      <line x1="116.057" y1="1579.030" x2="116.057" y2="1529.030"/>
      <line x1="117.057" y1="1579.030" x2="117.057" y2="1529.030"/>
      <line x1="118.057" y1="1579.030" x2="118.057" y2="1529.030"/>
      <line x1="119.057" y1="1579.030" x2="119.057" y2="1529.030"/>
      <line x1="120.057" y1="1579.030" x2="120.057" y2="1529.030"/>
      <line x1="121.057" y1="1579.030" x2="121.057" y2="1529.030"/>
      <line x1="122.057" y1="1579.030" x2="122.057" y2="1529.030"/>
      <line x1="123.057" y1="1579.030" x2="123.057" y2="1529.030"/>
      <line x1="124.057" y1="1579.030" x2="124.057" y2="1529.030"/>
      <line x1="125.057" y1="1579.030" x2="125.057" y2="1529.030"/>
      <line x1="126.057" y1="1579.030" x2="126.057" y2="1529.030"/>
      <line x1="127.057" y1="1579.030" x2="127.057" y2="1529.030"/>
      <line x1="128.057" y1="1579.030" x2="128.057" y2="1529.030"/>
      <line x1="129.057" y1="1579.030" x2="129.057" y2="1529.030"/>
      <line x1="130.057" y1="1579.030" x2="130.057" y2="1529.030"/>
      <line x1="131.057" y1="1579.030" x2="131.057" y2="1529.030"/>
      <line x1="132.057" y1="1579.030" x2="132.057" y2="1529.030"/>
      <line x1="133.057" y1="1579.030" x2="133.057" y2="1529.030"/>
      <line x1="134.057" y1="1579.030" x2="134.057" y2="1529.030"/>
      <line x1="135.057" y1="1579.030" x2="135.057" y2="1529.030"/>
      <line x1="136.057" y1="1579.030" x2="136.057" y2="1529.030"/>
      <line x1="31.057" y1="1528.930" x2="31.057" y2="1525.229"/>
      <line x1="8.057" y1="1528.930" x2="8.057" y2="1525.229"/>
      <line x1="9.057" y1="1528.930" x2="9.057" y2="1525.229"/>
      <line x1="11.057" y1="1528.930" x2="11.057" y2="1525.229"/>
      <line x1="14.057" y1="1528.930" x2="14.057" y2="1525.229"/>
      <line x1="16.057" y1="1528.930" x2="16.057" y2="1525.229"/>
      <line x1="17.057" y1="1528.930" x2="17.057" y2="1525.229"/>
      <line x1="19.057" y1="1528.930" x2="19.057" y2="1525.229"/>
      <line x1="22.057" y1="1528.930" x2="22.057" y2="1525.229"/>
      <line x1="29.057" y1="1528.930" x2="29.057" y2="1525.229"/>
      <line x1="28.057" y1="1528.930" x2="28.057" y2="1525.229"/>
      <line x1="25.057" y1="1528.930" x2="25.057" y2="1525.229"/>
      <line x1="20.057" y1="1528.930" x2="20.057" y2="1525.229"/>
      <line x1="26.057" y1="1528.930" x2="26.057" y2="1525.229"/>
      <line x1="23.057" y1="1528.930" x2="23.057" y2="1525.229"/>
      <line x1="13.057" y1="1528.930" x2="13.057" y2="1525.229"/>
      <line x1="12.057" y1="1528.930" x2="12.057" y2="1525.229"/>
      <line x1="15.057" y1="1528.930" x2="15.057" y2="1525.229"/>
      <line x1="18.057" y1="1528.930" x2="18.057" y2="1525.229"/>
      <line x1="21.057" y1="1528.930" x2="21.057" y2="1525.229"/>
      <line x1="24.057" y1="1528.930" x2="24.057" y2="1525.229"/>
      <line x1="27.057" y1="1528.930" x2="27.057" y2="1525.229"/>
      <line x1="30.057" y1="1528.930" x2="30.057" y2="1525.229"/>
      <line x1="10.057" y1="1528.930" x2="10.057" y2="1525.229"/>
      <line x1="42.057" y1="1528.930" x2="42.057" y2="1525.229"/>
      <line x1="41.057" y1="1528.930" x2="41.057" y2="1525.229"/>
      <line x1="40.057" y1="1528.930" x2="40.057" y2="1525.229"/>
      <line x1="39.057" y1="1528.930" x2="39.057" y2="1525.229"/>
      <line x1="38.057" y1="1528.930" x2="38.057" y2="1525.229"/>
      <line x1="37.057" y1="1528.930" x2="37.057" y2="1525.229"/>
      <line x1="36.057" y1="1528.930" x2="36.057" y2="1525.229"/>
      <line x1="35.057" y1="1528.930" x2="35.057" y2="1525.229"/>
      <line x1="34.057" y1="1528.930" x2="34.057" y2="1525.229"/>
      <line x1="33.057" y1="1528.930" x2="33.057" y2="1525.229"/>
      <line x1="32.057" y1="1528.930" x2="32.057" y2="1525.229"/>
      <line x1="43.057" y1="1528.930" x2="43.057" y2="1525.229"/>
      <line x1="55.057" y1="1528.930" x2="55.057" y2="1525.229"/>
      <line x1="57.057" y1="1528.930" x2="57.057" y2="1525.229"/>
      <line x1="56.057" y1="1528.930" x2="56.057" y2="1525.229"/>
      <line x1="54.057" y1="1528.930" x2="54.057" y2="1525.229"/>
      <line x1="53.057" y1="1528.930" x2="53.057" y2="1525.229"/>
      <line x1="52.057" y1="1528.930" x2="52.057" y2="1525.229"/>
      <line x1="51.057" y1="1528.930" x2="51.057" y2="1525.229"/>
      <line x1="50.057" y1="1528.930" x2="50.057" y2="1525.229"/>
      <line x1="49.057" y1="1528.930" x2="49.057" y2="1525.229"/>
      <line x1="48.057" y1="1528.930" x2="48.057" y2="1525.229"/>
      <line x1="47.057" y1="1528.930" x2="47.057" y2="1525.229"/>
      <line x1="46.057" y1="1528.930" x2="46.057" y2="1525.229"/>
      <line x1="45.057" y1="1528.930" x2="45.057" y2="1525.229"/>
      <line x1="44.057" y1="1528.930" x2="44.057" y2="1525.229"/>
      <line x1="107.057" y1="1528.930" x2="107.057" y2="1525.229"/>
      <line x1="79.057" y1="1528.930" x2="79.057" y2="1525.229"/>
      <line x1="90.057" y1="1528.930" x2="90.057" y2="1525.229"/>
      <line x1="89.057" y1="1528.930" x2="89.057" y2="1525.229"/>
      <line x1="88.057" y1="1528.930" x2="88.057" y2="1525.229"/>
      <line x1="87.057" y1="1528.930" x2="87.057" y2="1525.229"/>
      <line x1="86.057" y1="1528.930" x2="86.057" y2="1525.229"/>
      <line x1="85.057" y1="1528.930" x2="85.057" y2="1525.229"/>
      <line x1="84.057" y1="1528.930" x2="84.057" y2="1525.229"/>
      <line x1="83.057" y1="1528.930" x2="83.057" y2="1525.229"/>
      <line x1="82.057" y1="1528.930" x2="82.057" y2="1525.229"/>
      <line x1="81.057" y1="1528.930" x2="81.057" y2="1525.229"/>
      <line x1="80.057" y1="1528.930" x2="80.057" y2="1525.229"/>
      <line x1="91.057" y1="1528.930" x2="91.057" y2="1525.229"/>
      <line x1="78.057" y1="1528.930" x2="78.057" y2="1525.229"/>
      <line x1="77.057" y1="1528.930" x2="77.057" y2="1525.229"/>
      <line x1="76.057" y1="1528.930" x2="76.057" y2="1525.229"/>
      <line x1="75.057" y1="1528.930" x2="75.057" y2="1525.229"/>
      <line x1="74.057" y1="1528.930" x2="74.057" y2="1525.229"/>
      <line x1="73.057" y1="1528.930" x2="73.057" y2="1525.229"/>
      <line x1="72.057" y1="1528.930" x2="72.057" y2="1525.229"/>
      <line x1="71.057" y1="1528.930" x2="71.057" y2="1525.229"/>
      <line x1="70.057" y1="1528.930" x2="70.057" y2="1525.229"/>
      <line x1="69.057" y1="1528.930" x2="69.057" y2="1525.229"/>
      <line x1="68.057" y1="1528.930" x2="68.057" y2="1525.229"/>
      <line x1="103.057" y1="1528.930" x2="103.057" y2="1525.229"/>
      <line x1="106.057" y1="1528.930" x2="106.057" y2="1525.229"/>
      <line x1="105.057" y1="1528.930" x2="105.057" y2="1525.229"/>
      <line x1="104.057" y1="1528.930" x2="104.057" y2="1525.229"/>
      <line x1="102.057" y1="1528.930" x2="102.057" y2="1525.229"/>
      <line x1="101.057" y1="1528.930" x2="101.057" y2="1525.229"/>
      <line x1="100.057" y1="1528.930" x2="100.057" y2="1525.229"/>
      <line x1="99.057" y1="1528.930" x2="99.057" y2="1525.229"/>
      <line x1="98.057" y1="1528.930" x2="98.057" y2="1525.229"/>
      <line x1="97.057" y1="1528.930" x2="97.057" y2="1525.229"/>
      <line x1="96.057" y1="1528.930" x2="96.057" y2="1525.229"/>
      <line x1="95.057" y1="1528.930" x2="95.057" y2="1525.229"/>
      <line x1="94.057" y1="1528.930" x2="94.057" y2="1525.229"/>
      <line x1="93.057" y1="1528.930" x2="93.057" y2="1525.229"/>
      <line x1="92.057" y1="1528.930" x2="92.057" y2="1525.229"/>
      <line x1="66.057" y1="1528.930" x2="66.057" y2="1525.229"/>
      <line x1="65.057" y1="1528.930" x2="65.057" y2="1525.229"/>
      <line x1="64.057" y1="1528.930" x2="64.057" y2="1525.229"/>
      <line x1="63.057" y1="1528.930" x2="63.057" y2="1525.229"/>
      <line x1="62.057" y1="1528.930" x2="62.057" y2="1525.229"/>
      <line x1="61.057" y1="1528.930" x2="61.057" y2="1525.229"/>
      <line x1="60.057" y1="1528.930" x2="60.057" y2="1525.229"/>
      <line x1="59.057" y1="1528.930" x2="59.057" y2="1525.229"/>
      <line x1="58.057" y1="1528.930" x2="58.057" y2="1525.229"/>
      <line x1="67.057" y1="1528.930" x2="67.057" y2="1525.229"/>
      <line x1="108.057" y1="1528.930" x2="108.057" y2="1525.229"/>
      <line x1="136.057" y1="1528.930" x2="136.057" y2="1525.229"/>
      <line x1="110.057" y1="1528.930" x2="110.057" y2="1525.229"/>
      <line x1="113.057" y1="1528.930" x2="113.057" y2="1525.229"/>
      <line x1="115.057" y1="1528.930" x2="115.057" y2="1525.229"/>
      <line x1="116.057" y1="1528.930" x2="116.057" y2="1525.229"/>
      <line x1="118.057" y1="1528.930" x2="118.057" y2="1525.229"/>
      <line x1="119.057" y1="1528.930" x2="119.057" y2="1525.229"/>
      <line x1="121.057" y1="1528.930" x2="121.057" y2="1525.229"/>
      <line x1="122.057" y1="1528.930" x2="122.057" y2="1525.229"/>
      <line x1="124.057" y1="1528.930" x2="124.057" y2="1525.229"/>
      <line x1="125.057" y1="1528.930" x2="125.057" y2="1525.229"/>
      <line x1="127.057" y1="1528.930" x2="127.057" y2="1525.229"/>
      <line x1="128.057" y1="1528.930" x2="128.057" y2="1525.229"/>
      <line x1="130.057" y1="1528.930" x2="130.057" y2="1525.229"/>
      <line x1="133.057" y1="1528.930" x2="133.057" y2="1525.229"/>
      <line x1="135.057" y1="1528.930" x2="135.057" y2="1525.229"/>
      <line x1="109.057" y1="1528.930" x2="109.057" y2="1525.229"/>
      <line x1="112.057" y1="1528.930" x2="112.057" y2="1525.229"/>
      <line x1="111.057" y1="1528.930" x2="111.057" y2="1525.229"/>
      <line x1="114.057" y1="1528.930" x2="114.057" y2="1525.229"/>
      <line x1="117.057" y1="1528.930" x2="117.057" y2="1525.229"/>
      <line x1="120.057" y1="1528.930" x2="120.057" y2="1525.229"/>
      <line x1="123.057" y1="1528.930" x2="123.057" y2="1525.229"/>
      <line x1="126.057" y1="1528.930" x2="126.057" y2="1525.229"/>
      <line x1="129.057" y1="1528.930" x2="129.057" y2="1525.229"/>
      <line x1="132.057" y1="1528.930" x2="132.057" y2="1525.229"/>
      <line x1="131.057" y1="1528.930" x2="131.057" y2="1525.229"/>
      <line x1="134.057" y1="1528.930" x2="134.057" y2="1525.229"/>
    </g>
    <g stroke="#1976D2" stroke-width="0.4">
      <polyline points="461.728,1682.729 596.058,1682.729 596.058,1521.729 461.728,1521.729" fill="none"/>
      <polyline points="461.728,1521.729 459.872,1521.729 459.872,1682.729 461.728,1682.729" fill="none"/>
      <polyline points="461.728,1681.730 595.058,1681.730 595.058,1522.729 461.728,1522.729" fill="none"/>
      <polyline points="461.728,1522.729 460.872,1522.729 460.872,1681.730 461.728,1681.730" fill="none"/>
      <polyline points="594.058,1523.729 461.872,1523.729 461.872,1680.730 594.058,1680.730 594.058,1523.729" fill="none"/>
      <polyline points="593.058,1524.729 462.872,1524.729 462.872,1679.729 593.058,1679.729 593.058,1524.729" fill="none"/>
      <polyline points="138.272,1521.729 3.942,1521.729 3.942,1682.729 138.272,1682.729" fill="none"/>
      <polyline points="138.272,1682.729 140.128,1682.729 140.128,1521.729 138.272,1521.729" fill="none"/>
      <polyline points="138.272,1522.729 4.942,1522.729 4.942,1681.730 138.272,1681.730" fill="none"/>
      <polyline points="138.272,1681.730 139.128,1681.730 139.128,1522.729 138.272,1522.729" fill="none"/>
      <polyline points="138.128,1523.729 5.942,1523.729 5.942,1680.730 138.128,1680.730 138.128,1523.729" fill="none"/>
      <polyline points="137.128,1524.729 6.942,1524.729 6.942,1679.729 137.128,1679.729 137.128,1524.729" fill="none"/>
    </g>
    <g stroke="#C62828" stroke-width="0.4" fill="none">
      <polygon points="294.319,1532.386 295.203,1531.278 295.519,1529.896 295.203,1528.514 294.319,1527.406 293.042,1526.791 291.625,1526.791 290.347,1527.406 289.464,1528.514 289.148,1529.896 289.464,1531.278 290.347,1532.386 291.625,1533.001 293.042,1533.001"/>
      <polygon points="314.253,1532.303 315.107,1531.232 315.412,1529.896 315.107,1528.560 314.253,1527.489 313.018,1526.895 311.648,1526.895 310.414,1527.489 309.560,1528.560 309.255,1529.896 309.560,1531.232 310.414,1532.303 311.648,1532.898 313.018,1532.898"/>
      <polygon points="273.957,1532.248 274.864,1531.224 275.192,1529.896 274.864,1528.568 273.957,1527.544 272.678,1527.059 271.320,1527.224 270.194,1528.001 269.558,1529.212 269.558,1530.580 270.194,1531.792 271.320,1532.569 272.678,1532.734"/>
      <polygon points="333.892,1532.155 334.763,1531.171 335.078,1529.896 334.763,1528.621 333.892,1527.638 332.664,1527.172 331.360,1527.330 330.279,1528.076 329.669,1529.239 329.669,1530.553 330.279,1531.716 331.360,1532.462 332.664,1532.620"/>
      <polygon points="353.758,1531.960 354.554,1531.062 354.841,1529.896 354.554,1528.731 353.758,1527.832 352.636,1527.407 351.444,1527.551 350.456,1528.233 349.898,1529.296 349.898,1530.496 350.456,1531.559 351.444,1532.241 352.636,1532.386"/>
      <polygon points="253.758,1531.960 254.554,1531.062 254.841,1529.896 254.554,1528.731 253.758,1527.832 252.636,1527.407 251.444,1527.551 250.456,1528.233 249.898,1529.296 249.898,1530.496 250.456,1531.559 251.444,1532.241 252.636,1532.386"/>
      <polygon points="233.463,1531.854 234.291,1531.026 234.594,1529.896 234.291,1528.766 233.463,1527.939 232.333,1527.636 231.203,1527.939 230.376,1528.766 230.073,1529.896 230.376,1531.026 231.203,1531.854 232.333,1532.156"/>
      <polygon points="373.399,1531.742 374.179,1530.962 374.465,1529.896 374.179,1528.830 373.399,1528.050 372.333,1527.764 371.268,1528.050 370.487,1528.830 370.202,1529.896 370.487,1530.962 371.268,1531.742 372.333,1532.028"/>
      <polygon points="393.333,1531.628 394.065,1530.896 394.333,1529.896 394.065,1528.896 393.333,1528.164 392.333,1527.896 391.333,1528.164 390.601,1528.896 390.333,1529.896 390.601,1530.896 391.333,1531.628 392.333,1531.896"/>
      <polygon points="173.333,1531.628 174.065,1530.896 174.333,1529.896 174.065,1528.896 173.333,1528.164 172.333,1527.896 171.333,1528.164 170.601,1528.896 170.333,1529.896 170.601,1530.896 171.333,1531.628 172.333,1531.896"/>
      <polygon points="193.333,1531.628 194.065,1530.896 194.333,1529.896 194.065,1528.896 193.333,1528.164 192.333,1527.896 191.333,1528.164 190.601,1528.896 190.333,1529.896 190.601,1530.896 191.333,1531.628 192.333,1531.896"/>
      <polygon points="213.333,1531.628 214.065,1530.896 214.333,1529.896 214.065,1528.896 213.333,1528.164 212.333,1527.896 211.333,1528.164 210.601,1528.896 210.333,1529.896 210.601,1530.896 211.333,1531.628 212.333,1531.896"/>
      <polygon points="413.333,1531.628 414.065,1530.896 414.333,1529.896 414.065,1528.896 413.333,1528.164 412.333,1527.896 411.333,1528.164 410.601,1528.896 410.333,1529.896 410.601,1530.896 411.333,1531.628 412.333,1531.896"/>
      <polygon points="433.333,1531.628 434.065,1530.896 434.333,1529.896 434.065,1528.896 433.333,1528.164 432.333,1527.896 431.333,1528.164 430.601,1528.896 430.333,1529.896 430.601,1530.896 431.333,1531.628 432.333,1531.896"/>
      <polygon points="294.319,1552.386 295.203,1551.278 295.519,1549.896 295.203,1548.514 294.319,1547.406 293.042,1546.791 291.625,1546.791 290.347,1547.406 289.464,1548.514 289.148,1549.896 289.464,1551.278 290.347,1552.386 291.625,1553.001 293.042,1553.001"/>
      <polygon points="314.253,1552.303 315.107,1551.232 315.412,1549.896 315.107,1548.560 314.253,1547.489 313.018,1546.895 311.648,1546.895 310.414,1547.489 309.560,1548.560 309.255,1549.896 309.560,1551.232 310.414,1552.303 311.648,1552.898 313.018,1552.898"/>
      <polygon points="273.957,1552.248 274.864,1551.224 275.192,1549.896 274.864,1548.568 273.957,1547.544 272.678,1547.059 271.320,1547.224 270.194,1548.001 269.558,1549.212 269.558,1550.580 270.194,1551.792 271.320,1552.569 272.678,1552.734"/>
      <polygon points="333.892,1552.155 334.763,1551.171 335.078,1549.896 334.763,1548.621 333.892,1547.638 332.664,1547.172 331.360,1547.330 330.279,1548.076 329.669,1549.239 329.669,1550.553 330.279,1551.716 331.360,1552.462 332.664,1552.620"/>
      <polygon points="353.758,1551.960 354.554,1551.062 354.841,1549.896 354.554,1548.731 353.758,1547.832 352.636,1547.407 351.444,1547.551 350.456,1548.233 349.898,1549.296 349.898,1550.496 350.456,1551.559 351.444,1552.241 352.636,1552.386"/>
      <polygon points="253.758,1551.960 254.554,1551.062 254.841,1549.896 254.554,1548.731 253.758,1547.832 252.636,1547.407 251.444,1547.551 250.456,1548.233 249.898,1549.296 249.898,1550.496 250.456,1551.559 251.444,1552.241 252.636,1552.386"/>
      <polygon points="233.463,1551.854 234.291,1551.026 234.594,1549.896 234.291,1548.766 233.463,1547.939 232.333,1547.636 231.203,1547.939 230.376,1548.766 230.073,1549.896 230.376,1551.026 231.203,1551.854 232.333,1552.156"/>
      <polygon points="373.399,1551.742 374.179,1550.962 374.465,1549.896 374.179,1548.830 373.399,1548.050 372.333,1547.764 371.268,1548.050 370.487,1548.830 370.202,1549.896 370.487,1550.962 371.268,1551.742 372.333,1552.028"/>
      <polygon points="393.333,1551.628 394.065,1550.896 394.333,1549.896 394.065,1548.896 393.333,1548.164 392.333,1547.896 391.333,1548.164 390.601,1548.896 390.333,1549.896 390.601,1550.896 391.333,1551.628 392.333,1551.896"/>
      <polygon points="433.333,1551.628 434.065,1550.896 434.333,1549.896 434.065,1548.896 433.333,1548.164 432.333,1547.896 431.333,1548.164 430.601,1548.896 430.333,1549.896 430.601,1550.896 431.333,1551.628 432.333,1551.896"/>
      <polygon points="173.333,1551.628 174.065,1550.896 174.333,1549.896 174.065,1548.896 173.333,1548.164 172.333,1547.896 171.333,1548.164 170.601,1548.896 170.333,1549.896 170.601,1550.896 171.333,1551.628 172.333,1551.896"/>
      <polygon points="193.333,1551.628 194.065,1550.896 194.333,1549.896 194.065,1548.896 193.333,1548.164 192.333,1547.896 191.333,1548.164 190.601,1548.896 190.333,1549.896 190.601,1550.896 191.333,1551.628 192.333,1551.896"/>
      <polygon points="213.333,1551.628 214.065,1550.896 214.333,1549.896 214.065,1548.896 213.333,1548.164 212.333,1547.896 211.333,1548.164 210.601,1548.896 210.333,1549.896 210.601,1550.896 211.333,1551.628 212.333,1551.896"/>
      <polygon points="413.333,1551.628 414.065,1550.896 414.333,1549.896 414.065,1548.896 413.333,1548.164 412.333,1547.896 411.333,1548.164 410.601,1548.896 410.333,1549.896 410.601,1550.896 411.333,1551.628 412.333,1551.896"/>
      <polygon points="294.319,1572.386 295.203,1571.278 295.519,1569.896 295.203,1568.514 294.319,1567.406 293.042,1566.791 291.625,1566.791 290.347,1567.406 289.464,1568.514 289.148,1569.896 289.464,1571.278 290.347,1572.386 291.625,1573.001 293.042,1573.001"/>
      <polygon points="314.253,1572.303 315.107,1571.232 315.412,1569.896 315.107,1568.560 314.253,1567.489 313.018,1566.895 311.648,1566.895 310.414,1567.489 309.560,1568.560 309.255,1569.896 309.560,1571.232 310.414,1572.303 311.648,1572.898 313.018,1572.898"/>
      <polygon points="273.957,1572.248 274.864,1571.224 275.192,1569.896 274.864,1568.568 273.957,1567.544 272.678,1567.059 271.320,1567.224 270.194,1568.001 269.558,1569.212 269.558,1570.580 270.194,1571.792 271.320,1572.569 272.678,1572.734"/>
      <polygon points="333.892,1572.155 334.763,1571.171 335.078,1569.896 334.763,1568.621 333.892,1567.638 332.664,1567.172 331.360,1567.330 330.279,1568.076 329.669,1569.239 329.669,1570.553 330.279,1571.716 331.360,1572.462 332.664,1572.620"/>
      <polygon points="353.758,1571.960 354.554,1571.062 354.841,1569.896 354.554,1568.731 353.758,1567.832 352.636,1567.407 351.444,1567.551 350.456,1568.233 349.898,1569.296 349.898,1570.496 350.456,1571.559 351.444,1572.241 352.636,1572.386"/>
      <polygon points="253.758,1571.960 254.554,1571.062 254.841,1569.896 254.554,1568.731 253.758,1567.832 252.636,1567.407 251.444,1567.551 250.456,1568.233 249.898,1569.296 249.898,1570.496 250.456,1571.559 251.444,1572.241 252.636,1572.386"/>
      <polygon points="233.463,1571.854 234.291,1571.026 234.594,1569.896 234.291,1568.766 233.463,1567.939 232.333,1567.636 231.203,1567.939 230.376,1568.766 230.073,1569.896 230.376,1571.026 231.203,1571.854 232.333,1572.156"/>
      <polygon points="373.399,1571.742 374.179,1570.962 374.465,1569.896 374.179,1568.830 373.399,1568.050 372.333,1567.764 371.268,1568.050 370.487,1568.830 370.202,1569.896 370.487,1570.962 371.268,1571.742 372.333,1572.028"/>
      <polygon points="173.333,1571.628 174.065,1570.896 174.333,1569.896 174.065,1568.896 173.333,1568.164 172.333,1567.896 171.333,1568.164 170.601,1568.896 170.333,1569.896 170.601,1570.896 171.333,1571.628 172.333,1571.896"/>
      <polygon points="193.333,1571.628 194.065,1570.896 194.333,1569.896 194.065,1568.896 193.333,1568.164 192.333,1567.896 191.333,1568.164 190.601,1568.896 190.333,1569.896 190.601,1570.896 191.333,1571.628 192.333,1571.896"/>
      <polygon points="393.333,1571.628 394.065,1570.896 394.333,1569.896 394.065,1568.896 393.333,1568.164 392.333,1567.896 391.333,1568.164 390.601,1568.896 390.333,1569.896 390.601,1570.896 391.333,1571.628 392.333,1571.896"/>
      <polygon points="213.333,1571.628 214.065,1570.896 214.333,1569.896 214.065,1568.896 213.333,1568.164 212.333,1567.896 211.333,1568.164 210.601,1568.896 210.333,1569.896 210.601,1570.896 211.333,1571.628 212.333,1571.896"/>
      <polygon points="413.333,1571.628 414.065,1570.896 414.333,1569.896 414.065,1568.896 413.333,1568.164 412.333,1567.896 411.333,1568.164 410.601,1568.896 410.333,1569.896 410.601,1570.896 411.333,1571.628 412.333,1571.896"/>
      <polygon points="433.333,1571.628 434.065,1570.896 434.333,1569.896 434.065,1568.896 433.333,1568.164 432.333,1567.896 431.333,1568.164 430.601,1568.896 430.333,1569.896 430.601,1570.896 431.333,1571.628 432.333,1571.896"/>
      <polygon points="294.319,1592.386 295.203,1591.278 295.519,1589.896 295.203,1588.514 294.319,1587.406 293.042,1586.791 291.625,1586.791 290.347,1587.406 289.464,1588.514 289.148,1589.896 289.464,1591.278 290.347,1592.386 291.625,1593.001 293.042,1593.001"/>
      <polygon points="314.253,1592.303 315.107,1591.232 315.412,1589.896 315.107,1588.560 314.253,1587.489 313.018,1586.895 311.648,1586.895 310.414,1587.489 309.560,1588.560 309.255,1589.896 309.560,1591.232 310.414,1592.303 311.648,1592.898 313.018,1592.898"/>
      <polygon points="273.957,1592.248 274.864,1591.224 275.192,1589.896 274.864,1588.568 273.957,1587.544 272.678,1587.059 271.320,1587.224 270.194,1588.001 269.558,1589.212 269.558,1590.580 270.194,1591.792 271.320,1592.569 272.678,1592.734"/>
      <polygon points="333.892,1592.155 334.763,1591.171 335.078,1589.896 334.763,1588.621 333.892,1587.638 332.664,1587.172 331.360,1587.330 330.279,1588.076 329.669,1589.239 329.669,1590.553 330.279,1591.716 331.360,1592.462 332.664,1592.620"/>
      <polygon points="253.758,1591.960 254.554,1591.062 254.841,1589.896 254.554,1588.731 253.758,1587.832 252.636,1587.407 251.444,1587.551 250.456,1588.233 249.898,1589.296 249.898,1590.496 250.456,1591.559 251.444,1592.241 252.636,1592.386"/>
      <polygon points="353.758,1591.960 354.554,1591.062 354.841,1589.896 354.554,1588.731 353.758,1587.832 352.636,1587.407 351.444,1587.551 350.456,1588.233 349.898,1589.296 349.898,1590.496 350.456,1591.559 351.444,1592.241 352.636,1592.386"/>
      <polygon points="233.463,1591.854 234.291,1591.026 234.594,1589.896 234.291,1588.766 233.463,1587.939 232.333,1587.636 231.203,1587.939 230.376,1588.766 230.073,1589.896 230.376,1591.026 231.203,1591.854 232.333,1592.156"/>
      <polygon points="373.399,1591.742 374.179,1590.962 374.465,1589.896 374.179,1588.830 373.399,1588.050 372.333,1587.764 371.268,1588.050 370.487,1588.830 370.202,1589.896 370.487,1590.962 371.268,1591.742 372.333,1592.028"/>
      <polygon points="393.333,1591.628 394.065,1590.896 394.333,1589.896 394.065,1588.896 393.333,1588.164 392.333,1587.896 391.333,1588.164 390.601,1588.896 390.333,1589.896 390.601,1590.896 391.333,1591.628 392.333,1591.896"/>
      <polygon points="413.333,1591.628 414.065,1590.896 414.333,1589.896 414.065,1588.896 413.333,1588.164 412.333,1587.896 411.333,1588.164 410.601,1588.896 410.333,1589.896 410.601,1590.896 411.333,1591.628 412.333,1591.896"/>
      <polygon points="433.333,1591.628 434.065,1590.896 434.333,1589.896 434.065,1588.896 433.333,1588.164 432.333,1587.896 431.333,1588.164 430.601,1588.896 430.333,1589.896 430.601,1590.896 431.333,1591.628 432.333,1591.896"/>
      <polygon points="213.333,1591.628 214.065,1590.896 214.333,1589.896 214.065,1588.896 213.333,1588.164 212.333,1587.896 211.333,1588.164 210.601,1588.896 210.333,1589.896 210.601,1590.896 211.333,1591.628 212.333,1591.896"/>
      <polygon points="193.333,1591.628 194.065,1590.896 194.333,1589.896 194.065,1588.896 193.333,1588.164 192.333,1587.896 191.333,1588.164 190.601,1588.896 190.333,1589.896 190.601,1590.896 191.333,1591.628 192.333,1591.896"/>
      <polygon points="173.333,1591.628 174.065,1590.896 174.333,1589.896 174.065,1588.896 173.333,1588.164 172.333,1587.896 171.333,1588.164 170.601,1588.896 170.333,1589.896 170.601,1590.896 171.333,1591.628 172.333,1591.896"/>
      <polygon points="294.319,1612.386 295.203,1611.278 295.519,1609.896 295.203,1608.514 294.319,1607.406 293.042,1606.791 291.625,1606.791 290.347,1607.406 289.464,1608.514 289.148,1609.896 289.464,1611.278 290.347,1612.386 291.625,1613.001 293.042,1613.001"/>
      <polygon points="314.253,1612.303 315.107,1611.232 315.412,1609.896 315.107,1608.560 314.253,1607.489 313.018,1606.895 311.648,1606.895 310.414,1607.489 309.560,1608.560 309.255,1609.896 309.560,1611.232 310.414,1612.303 311.648,1612.898 313.018,1612.898"/>
      <polygon points="273.957,1612.248 274.864,1611.224 275.192,1609.896 274.864,1608.568 273.957,1607.544 272.678,1607.059 271.320,1607.224 270.194,1608.001 269.558,1609.212 269.558,1610.580 270.194,1611.792 271.320,1612.569 272.678,1612.734"/>
      <polygon points="333.892,1612.155 334.763,1611.171 335.078,1609.896 334.763,1608.621 333.892,1607.638 332.664,1607.172 331.360,1607.330 330.279,1608.076 329.669,1609.239 329.669,1610.553 330.279,1611.716 331.360,1612.462 332.664,1612.620"/>
      <polygon points="353.758,1611.960 354.554,1611.062 354.841,1609.896 354.554,1608.731 353.758,1607.832 352.636,1607.407 351.444,1607.551 350.456,1608.233 349.898,1609.296 349.898,1610.496 350.456,1611.559 351.444,1612.241 352.636,1612.386"/>
      <polygon points="253.758,1611.960 254.554,1611.062 254.841,1609.896 254.554,1608.731 253.758,1607.832 252.636,1607.407 251.444,1607.551 250.456,1608.233 249.898,1609.296 249.898,1610.496 250.456,1611.559 251.444,1612.241 252.636,1612.386"/>
      <polygon points="233.463,1611.854 234.291,1611.026 234.594,1609.896 234.291,1608.766 233.463,1607.939 232.333,1607.636 231.203,1607.939 230.376,1608.766 230.073,1609.896 230.376,1611.026 231.203,1611.854 232.333,1612.156"/>
      <polygon points="373.399,1611.742 374.179,1610.962 374.465,1609.896 374.179,1608.830 373.399,1608.050 372.333,1607.764 371.268,1608.050 370.487,1608.830 370.202,1609.896 370.487,1610.962 371.268,1611.742 372.333,1612.028"/>
      <polygon points="393.333,1611.628 394.065,1610.896 394.333,1609.896 394.065,1608.896 393.333,1608.164 392.333,1607.896 391.333,1608.164 390.601,1608.896 390.333,1609.896 390.601,1610.896 391.333,1611.628 392.333,1611.896"/>
      <polygon points="173.333,1611.628 174.065,1610.896 174.333,1609.896 174.065,1608.896 173.333,1608.164 172.333,1607.896 171.333,1608.164 170.601,1608.896 170.333,1609.896 170.601,1610.896 171.333,1611.628 172.333,1611.896"/>
      <polygon points="193.333,1611.628 194.065,1610.896 194.333,1609.896 194.065,1608.896 193.333,1608.164 192.333,1607.896 191.333,1608.164 190.601,1608.896 190.333,1609.896 190.601,1610.896 191.333,1611.628 192.333,1611.896"/>
      <polygon points="413.333,1611.628 414.065,1610.896 414.333,1609.896 414.065,1608.896 413.333,1608.164 412.333,1607.896 411.333,1608.164 410.601,1608.896 410.333,1609.896 410.601,1610.896 411.333,1611.628 412.333,1611.896"/>
      <polygon points="213.333,1611.628 214.065,1610.896 214.333,1609.896 214.065,1608.896 213.333,1608.164 212.333,1607.896 211.333,1608.164 210.601,1608.896 210.333,1609.896 210.601,1610.896 211.333,1611.628 212.333,1611.896"/>
      <polygon points="433.333,1611.628 434.065,1610.896 434.333,1609.896 434.065,1608.896 433.333,1608.164 432.333,1607.896 431.333,1608.164 430.601,1608.896 430.333,1609.896 430.601,1610.896 431.333,1611.628 432.333,1611.896"/>
      <polygon points="294.319,1632.386 295.203,1631.278 295.519,1629.896 295.203,1628.514 294.319,1627.406 293.042,1626.791 291.625,1626.791 290.347,1627.406 289.464,1628.514 289.148,1629.896 289.464,1631.278 290.347,1632.386 291.625,1633.001 293.042,1633.001"/>
      <polygon points="314.253,1632.303 315.107,1631.232 315.412,1629.896 315.107,1628.560 314.253,1627.489 313.018,1626.895 311.648,1626.895 310.414,1627.489 309.560,1628.560 309.255,1629.896 309.560,1631.232 310.414,1632.303 311.648,1632.898 313.018,1632.898"/>
      <polygon points="273.957,1632.248 274.864,1631.224 275.192,1629.896 274.864,1628.568 273.957,1627.544 272.678,1627.059 271.320,1627.224 270.194,1628.001 269.558,1629.212 269.558,1630.580 270.194,1631.792 271.320,1632.569 272.678,1632.734"/>
      <polygon points="333.892,1632.155 334.763,1631.171 335.078,1629.896 334.763,1628.621 333.892,1627.638 332.664,1627.172 331.360,1627.330 330.279,1628.076 329.669,1629.239 329.669,1630.553 330.279,1631.716 331.360,1632.462 332.664,1632.620"/>
      <polygon points="353.758,1631.960 354.554,1631.062 354.841,1629.896 354.554,1628.731 353.758,1627.832 352.636,1627.407 351.444,1627.551 350.456,1628.233 349.898,1629.296 349.898,1630.496 350.456,1631.559 351.444,1632.241 352.636,1632.386"/>
      <polygon points="253.758,1631.960 254.554,1631.062 254.841,1629.896 254.554,1628.731 253.758,1627.832 252.636,1627.407 251.444,1627.551 250.456,1628.233 249.898,1629.296 249.898,1630.496 250.456,1631.559 251.444,1632.241 252.636,1632.386"/>
      <polygon points="233.463,1631.854 234.291,1631.026 234.594,1629.896 234.291,1628.766 233.463,1627.939 232.333,1627.636 231.203,1627.939 230.376,1628.766 230.073,1629.896 230.376,1631.026 231.203,1631.854 232.333,1632.156"/>
      <polygon points="373.399,1631.742 374.179,1630.962 374.465,1629.896 374.179,1628.830 373.399,1628.050 372.333,1627.764 371.268,1628.050 370.487,1628.830 370.202,1629.896 370.487,1630.962 371.268,1631.742 372.333,1632.028"/>
      <polygon points="173.333,1631.628 174.065,1630.896 174.333,1629.896 174.065,1628.896 173.333,1628.164 172.333,1627.896 171.333,1628.164 170.601,1628.896 170.333,1629.896 170.601,1630.896 171.333,1631.628 172.333,1631.896"/>
      <polygon points="193.333,1631.628 194.065,1630.896 194.333,1629.896 194.065,1628.896 193.333,1628.164 192.333,1627.896 191.333,1628.164 190.601,1628.896 190.333,1629.896 190.601,1630.896 191.333,1631.628 192.333,1631.896"/>
      <polygon points="213.333,1631.628 214.065,1630.896 214.333,1629.896 214.065,1628.896 213.333,1628.164 212.333,1627.896 211.333,1628.164 210.601,1628.896 210.333,1629.896 210.601,1630.896 211.333,1631.628 212.333,1631.896"/>
      <polygon points="413.333,1631.628 414.065,1630.896 414.333,1629.896 414.065,1628.896 413.333,1628.164 412.333,1627.896 411.333,1628.164 410.601,1628.896 410.333,1629.896 410.601,1630.896 411.333,1631.628 412.333,1631.896"/>
      <polygon points="433.333,1631.628 434.065,1630.896 434.333,1629.896 434.065,1628.896 433.333,1628.164 432.333,1627.896 431.333,1628.164 430.601,1628.896 430.333,1629.896 430.601,1630.896 431.333,1631.628 432.333,1631.896"/>
      <polygon points="393.333,1631.628 394.065,1630.896 394.333,1629.896 394.065,1628.896 393.333,1628.164 392.333,1627.896 391.333,1628.164 390.601,1628.896 390.333,1629.896 390.601,1630.896 391.333,1631.628 392.333,1631.896"/>
      <polygon points="294.319,1652.386 295.203,1651.278 295.519,1649.896 295.203,1648.514 294.319,1647.406 293.042,1646.791 291.625,1646.791 290.347,1647.406 289.464,1648.514 289.148,1649.896 289.464,1651.278 290.347,1652.386 291.625,1653.001 293.042,1653.001"/>
      <polygon points="314.253,1652.303 315.107,1651.232 315.412,1649.896 315.107,1648.560 314.253,1647.489 313.018,1646.895 311.648,1646.895 310.414,1647.489 309.560,1648.560 309.255,1649.896 309.560,1651.232 310.414,1652.303 311.648,1652.898 313.018,1652.898"/>
      <polygon points="273.957,1652.248 274.864,1651.224 275.192,1649.896 274.864,1648.568 273.957,1647.544 272.678,1647.059 271.320,1647.224 270.194,1648.001 269.558,1649.212 269.558,1650.580 270.194,1651.792 271.320,1652.569 272.678,1652.734"/>
      <polygon points="333.892,1652.155 334.763,1651.171 335.078,1649.896 334.763,1648.621 333.892,1647.638 332.664,1647.172 331.360,1647.330 330.279,1648.076 329.669,1649.239 329.669,1650.553 330.279,1651.716 331.360,1652.462 332.664,1652.620"/>
      <polygon points="353.758,1651.960 354.554,1651.062 354.841,1649.896 354.554,1648.731 353.758,1647.832 352.636,1647.407 351.444,1647.551 350.456,1648.233 349.898,1649.296 349.898,1650.496 350.456,1651.559 351.444,1652.241 352.636,1652.386"/>
      <polygon points="253.758,1651.960 254.554,1651.062 254.841,1649.896 254.554,1648.731 253.758,1647.832 252.636,1647.407 251.444,1647.551 250.456,1648.233 249.898,1649.296 249.898,1650.496 250.456,1651.559 251.444,1652.241 252.636,1652.386"/>
      <polygon points="233.463,1651.854 234.291,1651.026 234.594,1649.896 234.291,1648.766 233.463,1647.939 232.333,1647.636 231.203,1647.939 230.376,1648.766 230.073,1649.896 230.376,1651.026 231.203,1651.854 232.333,1652.156"/>
      <polygon points="373.399,1651.742 374.179,1650.962 374.465,1649.896 374.179,1648.830 373.399,1648.050 372.333,1647.764 371.268,1648.050 370.487,1648.830 370.202,1649.896 370.487,1650.962 371.268,1651.742 372.333,1652.028"/>
      <polygon points="193.333,1651.628 194.065,1650.896 194.333,1649.896 194.065,1648.896 193.333,1648.164 192.333,1647.896 191.333,1648.164 190.601,1648.896 190.333,1649.896 190.601,1650.896 191.333,1651.628 192.333,1651.896"/>
      <polygon points="173.333,1651.628 174.065,1650.896 174.333,1649.896 174.065,1648.896 173.333,1648.164 172.333,1647.896 171.333,1648.164 170.601,1648.896 170.333,1649.896 170.601,1650.896 171.333,1651.628 172.333,1651.896"/>
      <polygon points="213.333,1651.628 214.065,1650.896 214.333,1649.896 214.065,1648.896 213.333,1648.164 212.333,1647.896 211.333,1648.164 210.601,1648.896 210.333,1649.896 210.601,1650.896 211.333,1651.628 212.333,1651.896"/>
      <polygon points="413.333,1651.628 414.065,1650.896 414.333,1649.896 414.065,1648.896 413.333,1648.164 412.333,1647.896 411.333,1648.164 410.601,1648.896 410.333,1649.896 410.601,1650.896 411.333,1651.628 412.333,1651.896"/>
      <polygon points="433.333,1651.628 434.065,1650.896 434.333,1649.896 434.065,1648.896 433.333,1648.164 432.333,1647.896 431.333,1648.164 430.601,1648.896 430.333,1649.896 430.601,1650.896 431.333,1651.628 432.333,1651.896"/>
      <polygon points="393.333,1651.628 394.065,1650.896 394.333,1649.896 394.065,1648.896 393.333,1648.164 392.333,1647.896 391.333,1648.164 390.601,1648.896 390.333,1649.896 390.601,1650.896 391.333,1651.628 392.333,1651.896"/>
      <polygon points="294.319,1672.386 295.203,1671.278 295.519,1669.896 295.203,1668.514 294.319,1667.406 293.042,1666.791 291.625,1666.791 290.347,1667.406 289.464,1668.514 289.148,1669.896 289.464,1671.278 290.347,1672.386 291.625,1673.001 293.042,1673.001"/>
      <polygon points="314.253,1672.303 315.107,1671.232 315.412,1669.896 315.107,1668.560 314.253,1667.489 313.018,1666.895 311.648,1666.895 310.414,1667.489 309.560,1668.560 309.255,1669.896 309.560,1671.232 310.414,1672.303 311.648,1672.898 313.018,1672.898"/>
      <polygon points="273.957,1672.248 274.864,1671.224 275.192,1669.896 274.864,1668.568 273.957,1667.544 272.678,1667.059 271.320,1667.224 270.194,1668.001 269.558,1669.212 269.558,1670.580 270.194,1671.792 271.320,1672.569 272.678,1672.734"/>
      <polygon points="333.892,1672.155 334.763,1671.171 335.078,1669.896 334.763,1668.621 333.892,1667.638 332.664,1667.172 331.360,1667.330 330.279,1668.076 329.669,1669.239 329.669,1670.553 330.279,1671.716 331.360,1672.462 332.664,1672.620"/>
      <polygon points="353.758,1671.960 354.554,1671.062 354.841,1669.896 354.554,1668.731 353.758,1667.832 352.636,1667.407 351.444,1667.551 350.456,1668.233 349.898,1669.296 349.898,1670.496 350.456,1671.559 351.444,1672.241 352.636,1672.386"/>
      <polygon points="253.758,1671.960 254.554,1671.062 254.841,1669.896 254.554,1668.731 253.758,1667.832 252.636,1667.407 251.444,1667.551 250.456,1668.233 249.898,1669.296 249.898,1670.496 250.456,1671.559 251.444,1672.241 252.636,1672.386"/>
      <polygon points="233.463,1671.854 234.291,1671.026 234.594,1669.896 234.291,1668.766 233.463,1667.939 232.333,1667.636 231.203,1667.939 230.376,1668.766 230.073,1669.896 230.376,1671.026 231.203,1671.854 232.333,1672.156"/>
      <polygon points="373.399,1671.742 374.179,1670.962 374.465,1669.896 374.179,1668.830 373.399,1668.050 372.333,1667.764 371.268,1668.050 370.487,1668.830 370.202,1669.896 370.487,1670.962 371.268,1671.742 372.333,1672.028"/>
      <polygon points="393.333,1671.628 394.065,1670.896 394.333,1669.896 394.065,1668.896 393.333,1668.164 392.333,1667.896 391.333,1668.164 390.601,1668.896 390.333,1669.896 390.601,1670.896 391.333,1671.628 392.333,1671.896"/>
      <polygon points="413.333,1671.628 414.065,1670.896 414.333,1669.896 414.065,1668.896 413.333,1668.164 412.333,1667.896 411.333,1668.164 410.601,1668.896 410.333,1669.896 410.601,1670.896 411.333,1671.628 412.333,1671.896"/>
      <polygon points="433.333,1671.628 434.065,1670.896 434.333,1669.896 434.065,1668.896 433.333,1668.164 432.333,1667.896 431.333,1668.164 430.601,1668.896 430.333,1669.896 430.601,1670.896 431.333,1671.628 432.333,1671.896"/>
      <polygon points="213.333,1671.628 214.065,1670.896 214.333,1669.896 214.065,1668.896 213.333,1668.164 212.333,1667.896 211.333,1668.164 210.601,1668.896 210.333,1669.896 210.601,1670.896 211.333,1671.628 212.333,1671.896"/>
      <polygon points="193.333,1671.628 194.065,1670.896 194.333,1669.896 194.065,1668.896 193.333,1668.164 192.333,1667.896 191.333,1668.164 190.601,1668.896 190.333,1669.896 190.601,1670.896 191.333,1671.628 192.333,1671.896"/>
      <polygon points="173.333,1671.628 174.065,1670.896 174.333,1669.896 174.065,1668.896 173.333,1668.164 172.333,1667.896 171.333,1668.164 170.601,1668.896 170.333,1669.896 170.601,1670.896 171.333,1671.628 172.333,1671.896"/>
    </g>
    <g stroke="#EF6C00" stroke-width="0.4" fill="none">
    </g>
  </g>
  <g stroke="#000000" stroke-width="0.4">
    <line x1="500.000" y1="1000.000" x2="1500.000" y2="1000.000"/>
  </g>
  <g stroke="#000000" stroke-width="0.4">
    <line x1="1000.000" y1="500.000" x2="1000.000" y2="1500.000"/>
  </g>
  <circle cx="1000.000" cy="1000.000" r="1000.000" stroke="red" stroke-width="1" fill="none"/>
  </g>
</svg>
