<?xml version="1.0" encoding="UTF-8"?>
<svg xmlns="http://www.w3.org/2000/svg" version="1.1" width="2000" height="2000">
  <g fill="none" stroke-linecap="round" stroke-linejoin="round">
  <text x="10" y="20" font-size="24" fill="#555">Layer 226 Z=57.200 mm</text>
  <g transform="translate(700.000,-602.229)">
    <g stroke="#2E7D32" stroke-width="0.4">
      <line x1="446.849" y1="1679.230" x2="446.849" y2="1629.230"/>
      <line x1="447.849" y1="1679.230" x2="447.849" y2="1629.230"/>
      <line x1="448.849" y1="1679.230" x2="448.849" y2="1629.230"/>
      <line x1="449.849" y1="1679.230" x2="449.849" y2="1629.230"/>
      <line x1="450.849" y1="1679.230" x2="450.849" y2="1629.230"/>
      <line x1="451.849" y1="1679.230" x2="451.849" y2="1629.230"/>
      <line x1="452.849" y1="1679.230" x2="452.849" y2="1629.230"/>
      <line x1="453.849" y1="1679.230" x2="453.849" y2="1629.230"/>
      <line x1="454.849" y1="1679.230" x2="454.849" y2="1629.230"/>
      <line x1="455.849" y1="1679.230" x2="455.849" y2="1629.230"/>
      <line x1="456.849" y1="1679.230" x2="456.849" y2="1629.230"/>
      <line x1="457.849" y1="1679.230" x2="457.849" y2="1629.230"/>
      <line x1="458.849" y1="1679.230" x2="458.849" y2="1629.230"/>
      <line x1="459.849" y1="1679.230" x2="459.849" y2="1629.230"/>
      <line x1="460.849" y1="1679.230" x2="460.849" y2="1629.230"/>
      <line x1="461.849" y1="1679.230" x2="461.849" y2="1629.230"/>
      <line x1="462.849" y1="1679.230" x2="462.849" y2="1629.230"/>
      <line x1="463.849" y1="1679.230" x2="463.849" y2="1629.230"/>
      <line x1="464.849" y1="1679.230" x2="464.849" y2="1629.230"/>
      <line x1="465.849" y1="1679.230" x2="465.849" y2="1629.230"/>
      <line x1="466.849" y1="1679.230" x2="466.849" y2="1629.230"/>
      <line x1="467.849" y1="1679.230" x2="467.849" y2="1629.230"/>
      <line x1="468.849" y1="1679.230" x2="468.849" y2="1629.230"/>
      <line x1="469.849" y1="1679.230" x2="469.849" y2="1629.230"/>
      <line x1="470.849" y1="1679.230" x2="470.849" y2="1629.230"/>
      <line x1="471.849" y1="1679.230" x2="471.849" y2="1629.230"/>
      <line x1="472.849" y1="1679.230" x2="472.849" y2="1629.230"/>
      <line x1="473.849" y1="1679.230" x2="473.849" y2="1629.230"/>
      <line x1="474.849" y1="1679.230" x2="474.849" y2="1629.230"/>
      <line x1="475.849" y1="1679.230" x2="475.849" y2="1629.230"/>
      <line x1="476.849" y1="1679.230" x2="476.849" y2="1629.230"/>
      <line x1="477.849" y1="1679.230" x2="477.849" y2="1629.230"/>
      <line x1="478.849" y1="1679.230" x2="478.849" y2="1629.230"/>
      <line x1="479.849" y1="1679.230" x2="479.849" y2="1629.230"/>
      <line x1="480.849" y1="1679.230" x2="480.849" y2="1629.230"/>
      <line x1="481.849" y1="1679.230" x2="481.849" y2="1629.230"/>
      <line x1="482.849" y1="1679.230" x2="482.849" y2="1629.230"/>
      <line x1="483.849" y1="1679.230" x2="483.849" y2="1629.230"/>
      <line x1="484.849" y1="1679.230" x2="484.849" y2="1629.230"/>
      <line x1="485.849" y1="1679.230" x2="485.849" y2="1629.230"/>
      <line x1="486.849" y1="1679.230" x2="486.849" y2="1629.230"/>
      <line x1="487.849" y1="1679.230" x2="487.849" y2="1629.230"/>
      <line x1="488.849" y1="1679.230" x2="488.849" y2="1629.230"/>
      <line x1="489.849" y1="1679.230" x2="489.849" y2="1629.230"/>
      <line x1="490.849" y1="1679.230" x2="490.849" y2="1629.230"/>
      <line x1="491.849" y1="1679.230" x2="491.849" y2="1629.230"/>
      <line x1="492.849" y1="1679.230" x2="492.849" y2="1629.230"/>
      <line x1="493.849" y1="1679.230" x2="493.849" y2="1629.230"/>
      <line x1="494.849" y1="1679.230" x2="494.849" y2="1629.230"/>
      <line x1="495.849" y1="1679.230" x2="495.849" y2="1629.230"/>
      <line x1="496.849" y1="1679.230" x2="496.849" y2="1629.230"/>
      <line x1="497.849" y1="1679.230" x2="497.849" y2="1629.230"/>
      <line x1="498.849" y1="1679.230" x2="498.849" y2="1629.230"/>
      <line x1="499.849" y1="1679.230" x2="499.849" y2="1629.230"/>
      <line x1="500.849" y1="1679.230" x2="500.849" y2="1629.230"/>
      <line x1="501.849" y1="1679.230" x2="501.849" y2="1629.230"/>
      <line x1="502.849" y1="1679.230" x2="502.849" y2="1629.230"/>
      <line x1="503.849" y1="1679.230" x2="503.849" y2="1629.230"/>
      <line x1="504.849" y1="1679.230" x2="504.849" y2="1629.230"/>
      <line x1="505.849" y1="1679.230" x2="505.849" y2="1629.230"/>
      <line x1="506.849" y1="1679.230" x2="506.849" y2="1629.230"/>
      <line x1="507.849" y1="1679.230" x2="507.849" y2="1629.230"/>
      <line x1="508.849" y1="1679.230" x2="508.849" y2="1629.230"/>
      <line x1="509.849" y1="1679.230" x2="509.849" y2="1629.230"/>
      <line x1="510.849" y1="1679.230" x2="510.849" y2="1629.230"/>
      <line x1="511.849" y1="1679.230" x2="511.849" y2="1629.230"/>
      <line x1="512.849" y1="1679.230" x2="512.849" y2="1629.230"/>
      <line x1="513.849" y1="1679.230" x2="513.849" y2="1629.230"/>
      <line x1="514.849" y1="1679.230" x2="514.849" y2="1629.230"/>
      <line x1="515.849" y1="1679.230" x2="515.849" y2="1629.230"/>
      <line x1="516.849" y1="1679.230" x2="516.849" y2="1629.230"/>
      <line x1="517.849" y1="1679.230" x2="517.849" y2="1629.230"/>
      <line x1="518.849" y1="1679.230" x2="518.849" y2="1629.230"/>
      <line x1="519.849" y1="1679.230" x2="519.849" y2="1629.230"/>
      <line x1="520.849" y1="1679.230" x2="520.849" y2="1629.230"/>
      <line x1="521.849" y1="1679.230" x2="521.849" y2="1629.230"/>
      <line x1="522.849" y1="1679.230" x2="522.849" y2="1629.230"/>
      <line x1="523.849" y1="1679.230" x2="523.849" y2="1629.230"/>
      <line x1="524.849" y1="1679.230" x2="524.849" y2="1629.230"/>
      <line x1="525.849" y1="1679.230" x2="525.849" y2="1629.230"/>
      <line x1="526.849" y1="1679.230" x2="526.849" y2="1629.230"/>
      <line x1="527.849" y1="1679.230" x2="527.849" y2="1629.230"/>
      <line x1="528.849" y1="1679.230" x2="528.849" y2="1629.230"/>
      <line x1="529.849" y1="1679.230" x2="529.849" y2="1629.230"/>
      <line x1="530.849" y1="1679.230" x2="530.849" y2="1629.230"/>
      <line x1="531.849" y1="1679.230" x2="531.849" y2="1629.230"/>
      <line x1="532.849" y1="1679.230" x2="532.849" y2="1629.230"/>
      <line x1="533.849" y1="1679.230" x2="533.849" y2="1629.230"/>
      <line x1="534.849" y1="1679.230" x2="534.849" y2="1629.230"/>
      <line x1="535.849" y1="1679.230" x2="535.849" y2="1629.230"/>
      <line x1="536.849" y1="1679.230" x2="536.849" y2="1629.230"/>
      <line x1="537.849" y1="1679.230" x2="537.849" y2="1629.230"/>
      <line x1="538.849" y1="1679.230" x2="538.849" y2="1629.230"/>
      <line x1="539.849" y1="1679.230" x2="539.849" y2="1629.230"/>
      <line x1="540.849" y1="1679.230" x2="540.849" y2="1629.230"/>
      <line x1="541.849" y1="1679.230" x2="541.849" y2="1629.230"/>
      <line x1="542.849" y1="1679.230" x2="542.849" y2="1629.230"/>
      <line x1="543.849" y1="1679.230" x2="543.849" y2="1629.230"/>
      <line x1="544.849" y1="1679.230" x2="544.849" y2="1629.230"/>
      <line x1="545.849" y1="1679.230" x2="545.849" y2="1629.230"/>
      <line x1="546.849" y1="1679.230" x2="546.849" y2="1629.230"/>
      <line x1="547.849" y1="1679.230" x2="547.849" y2="1629.230"/>
      <line x1="548.849" y1="1679.230" x2="548.849" y2="1629.230"/>
      <line x1="549.849" y1="1679.230" x2="549.849" y2="1629.230"/>
      <line x1="550.849" y1="1679.230" x2="550.849" y2="1629.230"/>
      <line x1="551.849" y1="1679.230" x2="551.849" y2="1629.230"/>
      <line x1="552.849" y1="1679.230" x2="552.849" y2="1629.230"/>
      <line x1="553.849" y1="1679.230" x2="553.849" y2="1629.230"/>
      <line x1="554.849" y1="1679.230" x2="554.849" y2="1629.230"/>
      <line x1="555.849" y1="1679.230" x2="555.849" y2="1629.230"/>
      <line x1="556.849" y1="1679.230" x2="556.849" y2="1629.230"/>
      <line x1="557.849" y1="1679.230" x2="557.849" y2="1629.230"/>
      <line x1="558.849" y1="1679.230" x2="558.849" y2="1629.230"/>
      <line x1="559.849" y1="1679.230" x2="559.849" y2="1629.230"/>
      <line x1="560.849" y1="1679.230" x2="560.849" y2="1629.230"/>
      <line x1="561.849" y1="1679.230" x2="561.849" y2="1629.230"/>
      <line x1="562.849" y1="1679.230" x2="562.849" y2="1629.230"/>
      <line x1="563.849" y1="1679.230" x2="563.849" y2="1629.230"/>
      <line x1="564.849" y1="1679.230" x2="564.849" y2="1629.230"/>
      <line x1="565.849" y1="1679.230" x2="565.849" y2="1629.230"/>
      <line x1="566.849" y1="1679.230" x2="566.849" y2="1629.230"/>
      <line x1="567.849" y1="1679.230" x2="567.849" y2="1629.230"/>
      <line x1="568.849" y1="1679.230" x2="568.849" y2="1629.230"/>
      <line x1="569.849" y1="1679.230" x2="569.849" y2="1629.230"/>
      <line x1="570.849" y1="1679.230" x2="570.849" y2="1629.230"/>
      <line x1="571.849" y1="1679.230" x2="571.849" y2="1629.230"/>
      <line x1="572.849" y1="1679.230" x2="572.849" y2="1629.230"/>
      <line x1="573.849" y1="1679.230" x2="573.849" y2="1629.230"/>
      <line x1="574.849" y1="1679.230" x2="574.849" y2="1629.230"/>
      <line x1="446.849" y1="1629.130" x2="446.849" y2="1579.130"/>
      <line x1="447.849" y1="1629.130" x2="447.849" y2="1579.130"/>
      <line x1="448.849" y1="1629.130" x2="448.849" y2="1579.130"/>
      <line x1="449.849" y1="1629.130" x2="449.849" y2="1579.130"/>
      <line x1="450.849" y1="1629.130" x2="450.849" y2="1579.130"/>
      <line x1="451.849" y1="1629.130" x2="451.849" y2="1579.130"/>
      <line x1="452.849" y1="1629.130" x2="452.849" y2="1579.130"/>
      <line x1="453.849" y1="1629.130" x2="453.849" y2="1579.130"/>
      <line x1="454.849" y1="1629.130" x2="454.849" y2="1579.130"/>
      <line x1="455.849" y1="1629.130" x2="455.849" y2="1579.130"/>
      <line x1="456.849" y1="1629.130" x2="456.849" y2="1579.130"/>
      <line x1="457.849" y1="1629.130" x2="457.849" y2="1579.130"/>
      <line x1="458.849" y1="1629.130" x2="458.849" y2="1579.130"/>
      <line x1="459.849" y1="1629.130" x2="459.849" y2="1579.130"/>
      <line x1="460.849" y1="1629.130" x2="460.849" y2="1579.130"/>
      <line x1="461.849" y1="1629.130" x2="461.849" y2="1579.130"/>
      <line x1="462.849" y1="1629.130" x2="462.849" y2="1579.130"/>
      <line x1="463.849" y1="1629.130" x2="463.849" y2="1579.130"/>
      <line x1="464.849" y1="1629.130" x2="464.849" y2="1579.130"/>
      <line x1="465.849" y1="1629.130" x2="465.849" y2="1579.130"/>
      <line x1="466.849" y1="1629.130" x2="466.849" y2="1579.130"/>
      <line x1="467.849" y1="1629.130" x2="467.849" y2="1579.130"/>
      <line x1="468.849" y1="1629.130" x2="468.849" y2="1579.130"/>
      <line x1="469.849" y1="1629.130" x2="469.849" y2="1579.130"/>
      <line x1="470.849" y1="1629.130" x2="470.849" y2="1579.130"/>
      <line x1="471.849" y1="1629.130" x2="471.849" y2="1579.130"/>
      <line x1="472.849" y1="1629.130" x2="472.849" y2="1579.130"/>
      <line x1="473.849" y1="1629.130" x2="473.849" y2="1579.130"/>
      <line x1="474.849" y1="1629.130" x2="474.849" y2="1579.130"/>
      <line x1="475.849" y1="1629.130" x2="475.849" y2="1579.130"/>
      <line x1="476.849" y1="1629.130" x2="476.849" y2="1579.130"/>
      <line x1="477.849" y1="1629.130" x2="477.849" y2="1579.130"/>
      <line x1="478.849" y1="1629.130" x2="478.849" y2="1579.130"/>
      <line x1="479.849" y1="1629.130" x2="479.849" y2="1579.130"/>
      <line x1="480.849" y1="1629.130" x2="480.849" y2="1579.130"/>
      <line x1="481.849" y1="1629.130" x2="481.849" y2="1579.130"/>
      <line x1="482.849" y1="1629.130" x2="482.849" y2="1579.130"/>
      <line x1="483.849" y1="1629.130" x2="483.849" y2="1579.130"/>
      <line x1="484.849" y1="1629.130" x2="484.849" y2="1579.130"/>
      <line x1="485.849" y1="1629.130" x2="485.849" y2="1579.130"/>
      <line x1="486.849" y1="1629.130" x2="486.849" y2="1579.130"/>
      <line x1="487.849" y1="1629.130" x2="487.849" y2="1579.130"/>
      <line x1="488.849" y1="1629.130" x2="488.849" y2="1579.130"/>
      <line x1="489.849" y1="1629.130" x2="489.849" y2="1579.130"/>
      <line x1="490.849" y1="1629.130" x2="490.849" y2="1579.130"/>
      <line x1="491.849" y1="1629.130" x2="491.849" y2="1579.130"/>
      <line x1="492.849" y1="1629.130" x2="492.849" y2="1579.130"/>
      <line x1="493.849" y1="1629.130" x2="493.849" y2="1579.130"/>
      <line x1="494.849" y1="1629.130" x2="494.849" y2="1579.130"/>
      <line x1="495.849" y1="1629.130" x2="495.849" y2="1579.130"/>
      <line x1="496.849" y1="1629.130" x2="496.849" y2="1579.130"/>
      <line x1="497.849" y1="1629.130" x2="497.849" y2="1579.130"/>
      <line x1="498.849" y1="1629.130" x2="498.849" y2="1579.130"/>
      <line x1="499.849" y1="1629.130" x2="499.849" y2="1579.130"/>
      <line x1="500.849" y1="1629.130" x2="500.849" y2="1579.130"/>
      <line x1="501.849" y1="1629.130" x2="501.849" y2="1579.130"/>
      <line x1="502.849" y1="1629.130" x2="502.849" y2="1579.130"/>
      <line x1="503.849" y1="1629.130" x2="503.849" y2="1579.130"/>
      <line x1="504.849" y1="1629.130" x2="504.849" y2="1579.130"/>
      <line x1="505.849" y1="1629.130" x2="505.849" y2="1579.130"/>
      <line x1="506.849" y1="1629.130" x2="506.849" y2="1579.130"/>
      <line x1="507.849" y1="1629.130" x2="507.849" y2="1579.130"/>
      <line x1="508.849" y1="1629.130" x2="508.849" y2="1579.130"/>
      <line x1="509.849" y1="1629.130" x2="509.849" y2="1579.130"/>
      <line x1="510.849" y1="1629.130" x2="510.849" y2="1579.130"/>
      <line x1="511.849" y1="1629.130" x2="511.849" y2="1579.130"/>
      <line x1="512.849" y1="1629.130" x2="512.849" y2="1579.130"/>
      <line x1="513.849" y1="1629.130" x2="513.849" y2="1579.130"/>
      <line x1="514.849" y1="1629.130" x2="514.849" y2="1579.130"/>
      <line x1="515.849" y1="1629.130" x2="515.849" y2="1579.130"/>
      <line x1="516.849" y1="1629.130" x2="516.849" y2="1579.130"/>
      <line x1="517.849" y1="1629.130" x2="517.849" y2="1579.130"/>
      <line x1="518.849" y1="1629.130" x2="518.849" y2="1579.130"/>
      <line x1="519.849" y1="1629.130" x2="519.849" y2="1579.130"/>
      <line x1="520.849" y1="1629.130" x2="520.849" y2="1579.130"/>
      <line x1="521.849" y1="1629.130" x2="521.849" y2="1579.130"/>
      <line x1="522.849" y1="1629.130" x2="522.849" y2="1579.130"/>
      <line x1="523.849" y1="1629.130" x2="523.849" y2="1579.130"/>
      <line x1="524.849" y1="1629.130" x2="524.849" y2="1579.130"/>
      <line x1="525.849" y1="1629.130" x2="525.849" y2="1579.130"/>
      <line x1="526.849" y1="1629.130" x2="526.849" y2="1579.130"/>
      <line x1="527.849" y1="1629.130" x2="527.849" y2="1579.130"/>
      <line x1="528.849" y1="1629.130" x2="528.849" y2="1579.130"/>
      <line x1="529.849" y1="1629.130" x2="529.849" y2="1579.130"/>
      <line x1="530.849" y1="1629.130" x2="530.849" y2="1579.130"/>
      <line x1="531.849" y1="1629.130" x2="531.849" y2="1579.130"/>
      <line x1="532.849" y1="1629.130" x2="532.849" y2="1579.130"/>
      <line x1="533.849" y1="1629.130" x2="533.849" y2="1579.130"/>
      <line x1="534.849" y1="1629.130" x2="534.849" y2="1579.130"/>
      <line x1="535.849" y1="1629.130" x2="535.849" y2="1579.130"/>
      <line x1="536.849" y1="1629.130" x2="536.849" y2="1579.130"/>
      <line x1="537.849" y1="1629.130" x2="537.849" y2="1579.130"/>
      <line x1="538.849" y1="1629.130" x2="538.849" y2="1579.130"/>
      <line x1="539.849" y1="1629.130" x2="539.849" y2="1579.130"/>
      <line x1="540.849" y1="1629.130" x2="540.849" y2="1579.130"/>
      <line x1="541.849" y1="1629.130" x2="541.849" y2="1579.130"/>
      <line x1="542.849" y1="1629.130" x2="542.849" y2="1579.130"/>
      <line x1="543.849" y1="1629.130" x2="543.849" y2="1579.130"/>
      <line x1="544.849" y1="1629.130" x2="544.849" y2="1579.130"/>
      <line x1="545.849" y1="1629.130" x2="545.849" y2="1579.130"/>
      <line x1="546.849" y1="1629.130" x2="546.849" y2="1579.130"/>
      <line x1="547.849" y1="1629.130" x2="547.849" y2="1579.130"/>
      <line x1="548.849" y1="1629.130" x2="548.849" y2="1579.130"/>
      <line x1="549.849" y1="1629.130" x2="549.849" y2="1579.130"/>
      <line x1="550.849" y1="1629.130" x2="550.849" y2="1579.130"/>
      <line x1="551.849" y1="1629.130" x2="551.849" y2="1579.130"/>
      <line x1="552.849" y1="1629.130" x2="552.849" y2="1579.130"/>
      <line x1="553.849" y1="1629.130" x2="553.849" y2="1579.130"/>
      <line x1="554.849" y1="1629.130" x2="554.849" y2="1579.130"/>
      <line x1="555.849" y1="1629.130" x2="555.849" y2="1579.130"/>
      <line x1="556.849" y1="1629.130" x2="556.849" y2="1579.130"/>
      <line x1="557.849" y1="1629.130" x2="557.849" y2="1579.130"/>
      <line x1="558.849" y1="1629.130" x2="558.849" y2="1579.130"/>
      <line x1="559.849" y1="1629.130" x2="559.849" y2="1579.130"/>
      <line x1="560.849" y1="1629.130" x2="560.849" y2="1579.130"/>
      <line x1="561.849" y1="1629.130" x2="561.849" y2="1579.130"/>
      <line x1="562.849" y1="1629.130" x2="562.849" y2="1579.130"/>
      <line x1="563.849" y1="1629.130" x2="563.849" y2="1579.130"/>
      <line x1="564.849" y1="1629.130" x2="564.849" y2="1579.130"/>
      <line x1="565.849" y1="1629.130" x2="565.849" y2="1579.130"/>
      <line x1="566.849" y1="1629.130" x2="566.849" y2="1579.130"/>
      <line x1="567.849" y1="1629.130" x2="567.849" y2="1579.130"/>
      <line x1="568.849" y1="1629.130" x2="568.849" y2="1579.130"/>
      <line x1="569.849" y1="1629.130" x2="569.849" y2="1579.130"/>
      <line x1="570.849" y1="1629.130" x2="570.849" y2="1579.130"/>
      <line x1="571.849" y1="1629.130" x2="571.849" y2="1579.130"/>
      <line x1="572.849" y1="1629.130" x2="572.849" y2="1579.130"/>
      <line x1="573.849" y1="1629.130" x2="573.849" y2="1579.130"/>
      <line x1="574.849" y1="1629.130" x2="574.849" y2="1579.130"/>
      <line x1="446.849" y1="1579.030" x2="446.849" y2="1529.030"/>
      <line x1="447.849" y1="1579.030" x2="447.849" y2="1529.030"/>
      <line x1="448.849" y1="1579.030" x2="448.849" y2="1529.030"/>
      <line x1="449.849" y1="1579.030" x2="449.849" y2="1529.030"/>
      <line x1="450.849" y1="1579.030" x2="450.849" y2="1529.030"/>
      <line x1="451.849" y1="1579.030" x2="451.849" y2="1529.030"/>
      <line x1="452.849" y1="1579.030" x2="452.849" y2="1529.030"/>
      <line x1="453.849" y1="1579.030" x2="453.849" y2="1529.030"/>
      <line x1="454.849" y1="1579.030" x2="454.849" y2="1529.030"/>
      <line x1="455.849" y1="1579.030" x2="455.849" y2="1529.030"/>
      <line x1="456.849" y1="1579.030" x2="456.849" y2="1529.030"/>
      <line x1="457.849" y1="1579.030" x2="457.849" y2="1529.030"/>
      <line x1="458.849" y1="1579.030" x2="458.849" y2="1529.030"/>
      <line x1="459.849" y1="1579.030" x2="459.849" y2="1529.030"/>
      <line x1="460.849" y1="1579.030" x2="460.849" y2="1529.030"/>
      <line x1="461.849" y1="1579.030" x2="461.849" y2="1529.030"/>
      <line x1="462.849" y1="1579.030" x2="462.849" y2="1529.030"/>
      <line x1="463.849" y1="1579.030" x2="463.849" y2="1529.030"/>
      <line x1="464.849" y1="1579.030" x2="464.849" y2="1529.030"/>
      <line x1="465.849" y1="1579.030" x2="465.849" y2="1529.030"/>
      <line x1="466.849" y1="1579.030" x2="466.849" y2="1529.030"/>
      <line x1="467.849" y1="1579.030" x2="467.849" y2="1529.030"/>
      <line x1="468.849" y1="1579.030" x2="468.849" y2="1529.030"/>
      <line x1="469.849" y1="1579.030" x2="469.849" y2="1529.030"/>
      <line x1="470.849" y1="1579.030" x2="470.849" y2="1529.030"/>
      <line x1="471.849" y1="1579.030" x2="471.849" y2="1529.030"/>
      <line x1="472.849" y1="1579.030" x2="472.849" y2="1529.030"/>
      <line x1="473.849" y1="1579.030" x2="473.849" y2="1529.030"/>
      <line x1="474.849" y1="1579.030" x2="474.849" y2="1529.030"/>
      <line x1="475.849" y1="1579.030" x2="475.849" y2="1529.030"/>
      <line x1="476.849" y1="1579.030" x2="476.849" y2="1529.030"/>
      <line x1="477.849" y1="1579.030" x2="477.849" y2="1529.030"/>
      <line x1="478.849" y1="1579.030" x2="478.849" y2="1529.030"/>
      <line x1="479.849" y1="1579.030" x2="479.849" y2="1529.030"/>
      <line x1="480.849" y1="1579.030" x2="480.849" y2="1529.030"/>
      <line x1="481.849" y1="1579.030" x2="481.849" y2="1529.030"/>
      <line x1="482.849" y1="1579.030" x2="482.849" y2="1529.030"/>
      <line x1="483.849" y1="1579.030" x2="483.849" y2="1529.030"/>
      <line x1="484.849" y1="1579.030" x2="484.849" y2="1529.030"/>
      <line x1="485.849" y1="1579.030" x2="485.849" y2="1529.030"/>
      <line x1="486.849" y1="1579.030" x2="486.849" y2="1529.030"/>
      <line x1="487.849" y1="1579.030" x2="487.849" y2="1529.030"/>
      <line x1="488.849" y1="1579.030" x2="488.849" y2="1529.030"/>
      <line x1="489.849" y1="1579.030" x2="489.849" y2="1529.030"/>
      <line x1="490.849" y1="1579.030" x2="490.849" y2="1529.030"/>
      <line x1="491.849" y1="1579.030" x2="491.849" y2="1529.030"/>
      <line x1="492.849" y1="1579.030" x2="492.849" y2="1529.030"/>
      <line x1="493.849" y1="1579.030" x2="493.849" y2="1529.030"/>
      <line x1="494.849" y1="1579.030" x2="494.849" y2="1529.030"/>
      <line x1="495.849" y1="1579.030" x2="495.849" y2="1529.030"/>
      <line x1="496.849" y1="1579.030" x2="496.849" y2="1529.030"/>
      <line x1="497.849" y1="1579.030" x2="497.849" y2="1529.030"/>
      <line x1="498.849" y1="1579.030" x2="498.849" y2="1529.030"/>
      <line x1="499.849" y1="1579.030" x2="499.849" y2="1529.030"/>
      <line x1="500.849" y1="1579.030" x2="500.849" y2="1529.030"/>
      <line x1="501.849" y1="1579.030" x2="501.849" y2="1529.030"/>
      <line x1="502.849" y1="1579.030" x2="502.849" y2="1529.030"/>
      <line x1="503.849" y1="1579.030" x2="503.849" y2="1529.030"/>
      <line x1="504.849" y1="1579.030" x2="504.849" y2="1529.030"/>
      <line x1="505.849" y1="1579.030" x2="505.849" y2="1529.030"/>
      <line x1="506.849" y1="1579.030" x2="506.849" y2="1529.030"/>
      <line x1="507.849" y1="1579.030" x2="507.849" y2="1529.030"/>
      <line x1="508.849" y1="1579.030" x2="508.849" y2="1529.030"/>
      <line x1="509.849" y1="1579.030" x2="509.849" y2="1529.030"/>
      <line x1="510.849" y1="1579.030" x2="510.849" y2="1529.030"/>
      <line x1="511.849" y1="1579.030" x2="511.849" y2="1529.030"/>
      <line x1="512.849" y1="1579.030" x2="512.849" y2="1529.030"/>
      <line x1="513.849" y1="1579.030" x2="513.849" y2="1529.030"/>
      <line x1="514.849" y1="1579.030" x2="514.849" y2="1529.030"/>
      <line x1="515.849" y1="1579.030" x2="515.849" y2="1529.030"/>
      <line x1="516.849" y1="1579.030" x2="516.849" y2="1529.030"/>
      <line x1="517.849" y1="1579.030" x2="517.849" y2="1529.030"/>
      <line x1="518.849" y1="1579.030" x2="518.849" y2="1529.030"/>
      <line x1="519.849" y1="1579.030" x2="519.849" y2="1529.030"/>
      <line x1="520.849" y1="1579.030" x2="520.849" y2="1529.030"/>
      <line x1="521.849" y1="1579.030" x2="521.849" y2="1529.030"/>
      <line x1="522.849" y1="1579.030" x2="522.849" y2="1529.030"/>
      <line x1="523.849" y1="1579.030" x2="523.849" y2="1529.030"/>
      <line x1="524.849" y1="1579.030" x2="524.849" y2="1529.030"/>
      <line x1="525.849" y1="1579.030" x2="525.849" y2="1529.030"/>
      <line x1="526.849" y1="1579.030" x2="526.849" y2="1529.030"/>
      <line x1="527.849" y1="1579.030" x2="527.849" y2="1529.030"/>
      <line x1="528.849" y1="1579.030" x2="528.849" y2="1529.030"/>
      <line x1="529.849" y1="1579.030" x2="529.849" y2="1529.030"/>
      <line x1="530.849" y1="1579.030" x2="530.849" y2="1529.030"/>
      <line x1="531.849" y1="1579.030" x2="531.849" y2="1529.030"/>
      <line x1="532.849" y1="1579.030" x2="532.849" y2="1529.030"/>
      <line x1="533.849" y1="1579.030" x2="533.849" y2="1529.030"/>
      <line x1="534.849" y1="1579.030" x2="534.849" y2="1529.030"/>
      <line x1="535.849" y1="1579.030" x2="535.849" y2="1529.030"/>
      <line x1="536.849" y1="1579.030" x2="536.849" y2="1529.030"/>
      <line x1="537.849" y1="1579.030" x2="537.849" y2="1529.030"/>
      <line x1="538.849" y1="1579.030" x2="538.849" y2="1529.030"/>
      <line x1="539.849" y1="1579.030" x2="539.849" y2="1529.030"/>
      <line x1="540.849" y1="1579.030" x2="540.849" y2="1529.030"/>
      <line x1="541.849" y1="1579.030" x2="541.849" y2="1529.030"/>
      <line x1="542.849" y1="1579.030" x2="542.849" y2="1529.030"/>
      <line x1="543.849" y1="1579.030" x2="543.849" y2="1529.030"/>
      <line x1="544.849" y1="1579.030" x2="544.849" y2="1529.030"/>
      <line x1="545.849" y1="1579.030" x2="545.849" y2="1529.030"/>
      <line x1="546.849" y1="1579.030" x2="546.849" y2="1529.030"/>
      <line x1="547.849" y1="1579.030" x2="547.849" y2="1529.030"/>
      <line x1="548.849" y1="1579.030" x2="548.849" y2="1529.030"/>
      <line x1="549.849" y1="1579.030" x2="549.849" y2="1529.030"/>
      <line x1="550.849" y1="1579.030" x2="550.849" y2="1529.030"/>
      <line x1="551.849" y1="1579.030" x2="551.849" y2="1529.030"/>
      <line x1="552.849" y1="1579.030" x2="552.849" y2="1529.030"/>
      <line x1="553.849" y1="1579.030" x2="553.849" y2="1529.030"/>
      <line x1="554.849" y1="1579.030" x2="554.849" y2="1529.030"/>
      <line x1="555.849" y1="1579.030" x2="555.849" y2="1529.030"/>
      <line x1="556.849" y1="1579.030" x2="556.849" y2="1529.030"/>
      <line x1="557.849" y1="1579.030" x2="557.849" y2="1529.030"/>
      <line x1="558.849" y1="1579.030" x2="558.849" y2="1529.030"/>
      <line x1="559.849" y1="1579.030" x2="559.849" y2="1529.030"/>
      <line x1="560.849" y1="1579.030" x2="560.849" y2="1529.030"/>
      <line x1="561.849" y1="1579.030" x2="561.849" y2="1529.030"/>
      <line x1="562.849" y1="1579.030" x2="562.849" y2="1529.030"/>
      <line x1="563.849" y1="1579.030" x2="563.849" y2="1529.030"/>
      <line x1="564.849" y1="1579.030" x2="564.849" y2="1529.030"/>
      <line x1="565.849" y1="1579.030" x2="565.849" y2="1529.030"/>
      <line x1="566.849" y1="1579.030" x2="566.849" y2="1529.030"/>
      <line x1="567.849" y1="1579.030" x2="567.849" y2="1529.030"/>
      <line x1="568.849" y1="1579.030" x2="568.849" y2="1529.030"/>
      <line x1="569.849" y1="1579.030" x2="569.849" y2="1529.030"/>
      <line x1="570.849" y1="1579.030" x2="570.849" y2="1529.030"/>
      <line x1="571.849" y1="1579.030" x2="571.849" y2="1529.030"/>
      <line x1="572.849" y1="1579.030" x2="572.849" y2="1529.030"/>
      <line x1="573.849" y1="1579.030" x2="573.849" y2="1529.030"/>
      <line x1="574.849" y1="1579.030" x2="574.849" y2="1529.030"/>
      <line x1="474.849" y1="1528.930" x2="474.849" y2="1525.229"/>
      <line x1="475.849" y1="1528.930" x2="475.849" y2="1525.229"/>
      <line x1="469.849" y1="1528.930" x2="469.849" y2="1525.229"/>
      <line x1="446.849" y1="1528.930" x2="446.849" y2="1525.229"/>
      <line x1="447.849" y1="1528.930" x2="447.849" y2="1525.229"/>
      <line x1="449.849" y1="1528.930" x2="449.849" y2="1525.229"/>
      <line x1="452.849" y1="1528.930" x2="452.849" y2="1525.229"/>
      <line x1="454.849" y1="1528.930" x2="454.849" y2="1525.229"/>
      <line x1="455.849" y1="1528.930" x2="455.849" y2="1525.229"/>
      <line x1="457.849" y1="1528.930" x2="457.849" y2="1525.229"/>
      <line x1="460.849" y1="1528.930" x2="460.849" y2="1525.229"/>
      <line x1="472.849" y1="1528.930" x2="472.849" y2="1525.229"/>
      <line x1="467.849" y1="1528.930" x2="467.849" y2="1525.229"/>
      <line x1="466.849" y1="1528.930" x2="466.849" y2="1525.229"/>
      <line x1="463.849" y1="1528.930" x2="463.849" y2="1525.229"/>
      <line x1="458.849" y1="1528.930" x2="458.849" y2="1525.229"/>
      <line x1="464.849" y1="1528.930" x2="464.849" y2="1525.229"/>
      <line x1="461.849" y1="1528.930" x2="461.849" y2="1525.229"/>
      <line x1="451.849" y1="1528.930" x2="451.849" y2="1525.229"/>
      <line x1="450.849" y1="1528.930" x2="450.849" y2="1525.229"/>
      <line x1="453.849" y1="1528.930" x2="453.849" y2="1525.229"/>
      <line x1="456.849" y1="1528.930" x2="456.849" y2="1525.229"/>
      <line x1="459.849" y1="1528.930" x2="459.849" y2="1525.229"/>
      <line x1="462.849" y1="1528.930" x2="462.849" y2="1525.229"/>
      <line x1="465.849" y1="1528.930" x2="465.849" y2="1525.229"/>
      <line x1="468.849" y1="1528.930" x2="468.849" y2="1525.229"/>
      <line x1="471.849" y1="1528.930" x2="471.849" y2="1525.229"/>
      <line x1="470.849" y1="1528.930" x2="470.849" y2="1525.229"/>
      <line x1="473.849" y1="1528.930" x2="473.849" y2="1525.229"/>
      <line x1="448.849" y1="1528.930" x2="448.849" y2="1525.229"/>
      <line x1="478.849" y1="1528.930" x2="478.849" y2="1525.229"/>
      <line x1="489.849" y1="1528.930" x2="489.849" y2="1525.229"/>
      <line x1="488.849" y1="1528.930" x2="488.849" y2="1525.229"/>
      <line x1="487.849" y1="1528.930" x2="487.849" y2="1525.229"/>
      <line x1="486.849" y1="1528.930" x2="486.849" y2="1525.229"/>
      <line x1="485.849" y1="1528.930" x2="485.849" y2="1525.229"/>
      <line x1="484.849" y1="1528.930" x2="484.849" y2="1525.229"/>
      <line x1="483.849" y1="1528.930" x2="483.849" y2="1525.229"/>
      <line x1="482.849" y1="1528.930" x2="482.849" y2="1525.229"/>
      <line x1="481.849" y1="1528.930" x2="481.849" y2="1525.229"/>
      <line x1="480.849" y1="1528.930" x2="480.849" y2="1525.229"/>
      <line x1="479.849" y1="1528.930" x2="479.849" y2="1525.229"/>
      <line x1="490.849" y1="1528.930" x2="490.849" y2="1525.229"/>
      <line x1="477.849" y1="1528.930" x2="477.849" y2="1525.229"/>
      <line x1="476.849" y1="1528.930" x2="476.849" y2="1525.229"/>
      <line x1="495.849" y1="1528.930" x2="495.849" y2="1525.229"/>
      <line x1="494.849" y1="1528.930" x2="494.849" y2="1525.229"/>
      <line x1="493.849" y1="1528.930" x2="493.849" y2="1525.229"/>
      <line x1="492.849" y1="1528.930" x2="492.849" y2="1525.229"/>
      <line x1="491.849" y1="1528.930" x2="491.849" y2="1525.229"/>
      <line x1="526.849" y1="1528.930" x2="526.849" y2="1525.229"/>
      <line x1="537.849" y1="1528.930" x2="537.849" y2="1525.229"/>
      <line x1="536.849" y1="1528.930" x2="536.849" y2="1525.229"/>
      <line x1="535.849" y1="1528.930" x2="535.849" y2="1525.229"/>
      <line x1="534.849" y1="1528.930" x2="534.849" y2="1525.229"/>
      <line x1="533.849" y1="1528.930" x2="533.849" y2="1525.229"/>
      <line x1="532.849" y1="1528.930" x2="532.849" y2="1525.229"/>
      <line x1="531.849" y1="1528.930" x2="531.849" y2="1525.229"/>
      <line x1="530.849" y1="1528.930" x2="530.849" y2="1525.229"/>
      <line x1="529.849" y1="1528.930" x2="529.849" y2="1525.229"/>
      <line x1="528.849" y1="1528.930" x2="528.849" y2="1525.229"/>
      <line x1="527.849" y1="1528.930" x2="527.849" y2="1525.229"/>
      <line x1="538.849" y1="1528.930" x2="538.849" y2="1525.229"/>
      <line x1="525.849" y1="1528.930" x2="525.849" y2="1525.229"/>
      <line x1="524.849" y1="1528.930" x2="524.849" y2="1525.229"/>
      <line x1="523.849" y1="1528.930" x2="523.849" y2="1525.229"/>
      <line x1="522.849" y1="1528.930" x2="522.849" y2="1525.229"/>
      <line x1="521.849" y1="1528.930" x2="521.849" y2="1525.229"/>
      <line x1="520.849" y1="1528.930" x2="520.849" y2="1525.229"/>
      <line x1="519.849" y1="1528.930" x2="519.849" y2="1525.229"/>
      <line x1="518.849" y1="1528.930" x2="518.849" y2="1525.229"/>
      <line x1="517.849" y1="1528.930" x2="517.849" y2="1525.229"/>
      <line x1="516.849" y1="1528.930" x2="516.849" y2="1525.229"/>
      <line x1="515.849" y1="1528.930" x2="515.849" y2="1525.229"/>
      <line x1="545.849" y1="1528.930" x2="545.849" y2="1525.229"/>
      <line x1="544.849" y1="1528.930" x2="544.849" y2="1525.229"/>
      <line x1="543.849" y1="1528.930" x2="543.849" y2="1525.229"/>
      <line x1="542.849" y1="1528.930" x2="542.849" y2="1525.229"/>
      <line x1="541.849" y1="1528.930" x2="541.849" y2="1525.229"/>
      <line x1="540.849" y1="1528.930" x2="540.849" y2="1525.229"/>
      <line x1="539.849" y1="1528.930" x2="539.849" y2="1525.229"/>
      <line x1="502.849" y1="1528.930" x2="502.849" y2="1525.229"/>
      <line x1="513.849" y1="1528.930" x2="513.849" y2="1525.229"/>
      <line x1="512.849" y1="1528.930" x2="512.849" y2="1525.229"/>
      <line x1="511.849" y1="1528.930" x2="511.849" y2="1525.229"/>
      <line x1="510.849" y1="1528.930" x2="510.849" y2="1525.229"/>
      <line x1="509.849" y1="1528.930" x2="509.849" y2="1525.229"/>
      <line x1="508.849" y1="1528.930" x2="508.849" y2="1525.229"/>
      <line x1="507.849" y1="1528.930" x2="507.849" y2="1525.229"/>
      <line x1="506.849" y1="1528.930" x2="506.849" y2="1525.229"/>
      <line x1="505.849" y1="1528.930" x2="505.849" y2="1525.229"/>
      <line x1="504.849" y1="1528.930" x2="504.849" y2="1525.229"/>
      <line x1="503.849" y1="1528.930" x2="503.849" y2="1525.229"/>
      <line x1="514.849" y1="1528.930" x2="514.849" y2="1525.229"/>
      <line x1="501.849" y1="1528.930" x2="501.849" y2="1525.229"/>
      <line x1="500.849" y1="1528.930" x2="500.849" y2="1525.229"/>
      <line x1="499.849" y1="1528.930" x2="499.849" y2="1525.229"/>
      <line x1="498.849" y1="1528.930" x2="498.849" y2="1525.229"/>
      <line x1="497.849" y1="1528.930" x2="497.849" y2="1525.229"/>
      <line x1="496.849" y1="1528.930" x2="496.849" y2="1525.229"/>
      <line x1="574.849" y1="1528.930" x2="574.849" y2="1525.229"/>
      <line x1="551.849" y1="1528.930" x2="551.849" y2="1525.229"/>
      <line x1="553.849" y1="1528.930" x2="553.849" y2="1525.229"/>
      <line x1="554.849" y1="1528.930" x2="554.849" y2="1525.229"/>
      <line x1="556.849" y1="1528.930" x2="556.849" y2="1525.229"/>
      <line x1="557.849" y1="1528.930" x2="557.849" y2="1525.229"/>
      <line x1="559.849" y1="1528.930" x2="559.849" y2="1525.229"/>
      <line x1="560.849" y1="1528.930" x2="560.849" y2="1525.229"/>
      <line x1="562.849" y1="1528.930" x2="562.849" y2="1525.229"/>
      <line x1="563.849" y1="1528.930" x2="563.849" y2="1525.229"/>
      <line x1="565.849" y1="1528.930" x2="565.849" y2="1525.229"/>
      <line x1="566.849" y1="1528.930" x2="566.849" y2="1525.229"/>
      <line x1="568.849" y1="1528.930" x2="568.849" y2="1525.229"/>
      <line x1="571.849" y1="1528.930" x2="571.849" y2="1525.229"/>
      <line x1="573.849" y1="1528.930" x2="573.849" y2="1525.229"/>
      <line x1="550.849" y1="1528.930" x2="550.849" y2="1525.229"/>
      <line x1="549.849" y1="1528.930" x2="549.849" y2="1525.229"/>
      <line x1="548.849" y1="1528.930" x2="548.849" y2="1525.229"/>
      <line x1="547.849" y1="1528.930" x2="547.849" y2="1525.229"/>
      <line x1="546.849" y1="1528.930" x2="546.849" y2="1525.229"/>
      <line x1="552.849" y1="1528.930" x2="552.849" y2="1525.229"/>
      <line x1="555.849" y1="1528.930" x2="555.849" y2="1525.229"/>
      <line x1="558.849" y1="1528.930" x2="558.849" y2="1525.229"/>
      <line x1="561.849" y1="1528.930" x2="561.849" y2="1525.229"/>
      <line x1="564.849" y1="1528.930" x2="564.849" y2="1525.229"/>
      <line x1="567.849" y1="1528.930" x2="567.849" y2="1525.229"/>
      <line x1="570.849" y1="1528.930" x2="570.849" y2="1525.229"/>
      <line x1="569.849" y1="1528.930" x2="569.849" y2="1525.229"/>
      <line x1="572.849" y1="1528.930" x2="572.849" y2="1525.229"/>
      <line x1="25.195" y1="1679.230" x2="25.195" y2="1629.230"/>
      <line x1="26.195" y1="1679.230" x2="26.195" y2="1629.230"/>
      <line x1="27.195" y1="1679.230" x2="27.195" y2="1629.230"/>
      <line x1="28.195" y1="1679.230" x2="28.195" y2="1629.230"/>
      <line x1="29.195" y1="1679.230" x2="29.195" y2="1629.230"/>
      <line x1="30.195" y1="1679.230" x2="30.195" y2="1629.230"/>
      <line x1="31.195" y1="1679.230" x2="31.195" y2="1629.230"/>
      <line x1="32.195" y1="1679.230" x2="32.195" y2="1629.230"/>
      <line x1="33.195" y1="1679.230" x2="33.195" y2="1629.230"/>
      <line x1="34.195" y1="1679.230" x2="34.195" y2="1629.230"/>
      <line x1="35.195" y1="1679.230" x2="35.195" y2="1629.230"/>
      <line x1="36.195" y1="1679.230" x2="36.195" y2="1629.230"/>
      <line x1="37.195" y1="1679.230" x2="37.195" y2="1629.230"/>
      <line x1="38.195" y1="1679.230" x2="38.195" y2="1629.230"/>
      <line x1="39.195" y1="1679.230" x2="39.195" y2="1629.230"/>
      <line x1="40.195" y1="1679.230" x2="40.195" y2="1629.230"/>
      <line x1="41.195" y1="1679.230" x2="41.195" y2="1629.230"/>
      <line x1="42.195" y1="1679.230" x2="42.195" y2="1629.230"/>
      <line x1="43.195" y1="1679.230" x2="43.195" y2="1629.230"/>
      <line x1="44.195" y1="1679.230" x2="44.195" y2="1629.230"/>
      <line x1="45.195" y1="1679.230" x2="45.195" y2="1629.230"/>
      <line x1="46.195" y1="1679.230" x2="46.195" y2="1629.230"/>
      <line x1="47.195" y1="1679.230" x2="47.195" y2="1629.230"/>
      <line x1="48.195" y1="1679.230" x2="48.195" y2="1629.230"/>
      <line x1="49.195" y1="1679.230" x2="49.195" y2="1629.230"/>
      <line x1="50.195" y1="1679.230" x2="50.195" y2="1629.230"/>
      <line x1="51.195" y1="1679.230" x2="51.195" y2="1629.230"/>
      <line x1="52.195" y1="1679.230" x2="52.195" y2="1629.230"/>
      <line x1="53.195" y1="1679.230" x2="53.195" y2="1629.230"/>
      <line x1="54.195" y1="1679.230" x2="54.195" y2="1629.230"/>
      <line x1="55.195" y1="1679.230" x2="55.195" y2="1629.230"/>
      <line x1="56.195" y1="1679.230" x2="56.195" y2="1629.230"/>
      <line x1="57.195" y1="1679.230" x2="57.195" y2="1629.230"/>
      <line x1="58.195" y1="1679.230" x2="58.195" y2="1629.230"/>
      <line x1="59.195" y1="1679.230" x2="59.195" y2="1629.230"/>
      <line x1="60.195" y1="1679.230" x2="60.195" y2="1629.230"/>
      <line x1="61.195" y1="1679.230" x2="61.195" y2="1629.230"/>
      <line x1="62.195" y1="1679.230" x2="62.195" y2="1629.230"/>
      <line x1="63.195" y1="1679.230" x2="63.195" y2="1629.230"/>
      <line x1="64.195" y1="1679.230" x2="64.195" y2="1629.230"/>
      <line x1="65.195" y1="1679.230" x2="65.195" y2="1629.230"/>
      <line x1="66.195" y1="1679.230" x2="66.195" y2="1629.230"/>
      <line x1="67.195" y1="1679.230" x2="67.195" y2="1629.230"/>
      <line x1="68.195" y1="1679.230" x2="68.195" y2="1629.230"/>
      <line x1="69.195" y1="1679.230" x2="69.195" y2="1629.230"/>
      <line x1="70.195" y1="1679.230" x2="70.195" y2="1629.230"/>
      <line x1="71.195" y1="1679.230" x2="71.195" y2="1629.230"/>
      <line x1="72.195" y1="1679.230" x2="72.195" y2="1629.230"/>
      <line x1="73.195" y1="1679.230" x2="73.195" y2="1629.230"/>
      <line x1="74.195" y1="1679.230" x2="74.195" y2="1629.230"/>
      <line x1="75.195" y1="1679.230" x2="75.195" y2="1629.230"/>
      <line x1="76.195" y1="1679.230" x2="76.195" y2="1629.230"/>
      <line x1="77.195" y1="1679.230" x2="77.195" y2="1629.230"/>
      <line x1="78.195" y1="1679.230" x2="78.195" y2="1629.230"/>
      <line x1="79.195" y1="1679.230" x2="79.195" y2="1629.230"/>
      <line x1="80.195" y1="1679.230" x2="80.195" y2="1629.230"/>
      <line x1="81.195" y1="1679.230" x2="81.195" y2="1629.230"/>
      <line x1="82.195" y1="1679.230" x2="82.195" y2="1629.230"/>
      <line x1="83.195" y1="1679.230" x2="83.195" y2="1629.230"/>
      <line x1="84.195" y1="1679.230" x2="84.195" y2="1629.230"/>
      <line x1="85.195" y1="1679.230" x2="85.195" y2="1629.230"/>
      <line x1="86.195" y1="1679.230" x2="86.195" y2="1629.230"/>
      <line x1="87.195" y1="1679.230" x2="87.195" y2="1629.230"/>
      <line x1="88.195" y1="1679.230" x2="88.195" y2="1629.230"/>
      <line x1="89.195" y1="1679.230" x2="89.195" y2="1629.230"/>
      <line x1="90.195" y1="1679.230" x2="90.195" y2="1629.230"/>
      <line x1="91.195" y1="1679.230" x2="91.195" y2="1629.230"/>
      <line x1="92.195" y1="1679.230" x2="92.195" y2="1629.230"/>
      <line x1="93.195" y1="1679.230" x2="93.195" y2="1629.230"/>
      <line x1="94.195" y1="1679.230" x2="94.195" y2="1629.230"/>
      <line x1="95.195" y1="1679.230" x2="95.195" y2="1629.230"/>
      <line x1="96.195" y1="1679.230" x2="96.195" y2="1629.230"/>
      <line x1="97.195" y1="1679.230" x2="97.195" y2="1629.230"/>
      <line x1="98.195" y1="1679.230" x2="98.195" y2="1629.230"/>
      <line x1="99.195" y1="1679.230" x2="99.195" y2="1629.230"/>
      <line x1="100.195" y1="1679.230" x2="100.195" y2="1629.230"/>
      <line x1="101.195" y1="1679.230" x2="101.195" y2="1629.230"/>
      <line x1="102.195" y1="1679.230" x2="102.195" y2="1629.230"/>
      <line x1="103.195" y1="1679.230" x2="103.195" y2="1629.230"/>
      <line x1="104.195" y1="1679.230" x2="104.195" y2="1629.230"/>
      <line x1="105.195" y1="1679.230" x2="105.195" y2="1629.230"/>
      <line x1="106.195" y1="1679.230" x2="106.195" y2="1629.230"/>
      <line x1="107.195" y1="1679.230" x2="107.195" y2="1629.230"/>
      <line x1="108.195" y1="1679.230" x2="108.195" y2="1629.230"/>
      <line x1="109.195" y1="1679.230" x2="109.195" y2="1629.230"/>
      <line x1="110.195" y1="1679.230" x2="110.195" y2="1629.230"/>
      <line x1="111.195" y1="1679.230" x2="111.195" y2="1629.230"/>
      <line x1="112.195" y1="1679.230" x2="112.195" y2="1629.230"/>
      <line x1="113.195" y1="1679.230" x2="113.195" y2="1629.230"/>
      <line x1="114.195" y1="1679.230" x2="114.195" y2="1629.230"/>
      <line x1="115.195" y1="1679.230" x2="115.195" y2="1629.230"/>
      <line x1="116.195" y1="1679.230" x2="116.195" y2="1629.230"/>
      <line x1="117.195" y1="1679.230" x2="117.195" y2="1629.230"/>
      <line x1="118.195" y1="1679.230" x2="118.195" y2="1629.230"/>
      <line x1="119.195" y1="1679.230" x2="119.195" y2="1629.230"/>
      <line x1="120.195" y1="1679.230" x2="120.195" y2="1629.230"/>
      <line x1="121.195" y1="1679.230" x2="121.195" y2="1629.230"/>
      <line x1="122.195" y1="1679.230" x2="122.195" y2="1629.230"/>
      <line x1="123.195" y1="1679.230" x2="123.195" y2="1629.230"/>
      <line x1="124.195" y1="1679.230" x2="124.195" y2="1629.230"/>
      <line x1="125.195" y1="1679.230" x2="125.195" y2="1629.230"/>
      <line x1="126.195" y1="1679.230" x2="126.195" y2="1629.230"/>
      <line x1="127.195" y1="1679.230" x2="127.195" y2="1629.230"/>
      <line x1="128.195" y1="1679.230" x2="128.195" y2="1629.230"/>
      <line x1="129.195" y1="1679.230" x2="129.195" y2="1629.230"/>
      <line x1="130.195" y1="1679.230" x2="130.195" y2="1629.230"/>
      <line x1="131.195" y1="1679.230" x2="131.195" y2="1629.230"/>
      <line x1="132.195" y1="1679.230" x2="132.195" y2="1629.230"/>
      <line x1="133.195" y1="1679.230" x2="133.195" y2="1629.230"/>
      <line x1="134.195" y1="1679.230" x2="134.195" y2="1629.230"/>
      <line x1="135.195" y1="1679.230" x2="135.195" y2="1629.230"/>
      <line x1="136.195" y1="1679.230" x2="136.195" y2="1629.230"/>
      <line x1="137.195" y1="1679.230" x2="137.195" y2="1629.230"/>
      <line x1="138.195" y1="1679.230" x2="138.195" y2="1629.230"/>
      <line x1="139.195" y1="1679.230" x2="139.195" y2="1629.230"/>
      <line x1="140.195" y1="1679.230" x2="140.195" y2="1629.230"/>
      <line x1="141.195" y1="1679.230" x2="141.195" y2="1629.230"/>
      <line x1="142.195" y1="1679.230" x2="142.195" y2="1629.230"/>
      <line x1="143.195" y1="1679.230" x2="143.195" y2="1629.230"/>
      <line x1="144.195" y1="1679.230" x2="144.195" y2="1629.230"/>
      <line x1="145.195" y1="1679.230" x2="145.195" y2="1629.230"/>
      <line x1="146.195" y1="1679.230" x2="146.195" y2="1629.230"/>
      <line x1="147.195" y1="1679.230" x2="147.195" y2="1629.230"/>
      <line x1="148.195" y1="1679.230" x2="148.195" y2="1629.230"/>
      <line x1="149.195" y1="1679.230" x2="149.195" y2="1629.230"/>
      <line x1="150.195" y1="1679.230" x2="150.195" y2="1629.230"/>
      <line x1="151.195" y1="1679.230" x2="151.195" y2="1629.230"/>
      <line x1="152.195" y1="1679.230" x2="152.195" y2="1629.230"/>
      <line x1="153.195" y1="1679.230" x2="153.195" y2="1629.230"/>
      <line x1="25.195" y1="1629.130" x2="25.195" y2="1579.130"/>
      <line x1="26.195" y1="1629.130" x2="26.195" y2="1579.130"/>
      <line x1="27.195" y1="1629.130" x2="27.195" y2="1579.130"/>
      <line x1="28.195" y1="1629.130" x2="28.195" y2="1579.130"/>
      <line x1="29.195" y1="1629.130" x2="29.195" y2="1579.130"/>
      <line x1="30.195" y1="1629.130" x2="30.195" y2="1579.130"/>
      <line x1="31.195" y1="1629.130" x2="31.195" y2="1579.130"/>
      <line x1="32.195" y1="1629.130" x2="32.195" y2="1579.130"/>
      <line x1="33.195" y1="1629.130" x2="33.195" y2="1579.130"/>
      <line x1="34.195" y1="1629.130" x2="34.195" y2="1579.130"/>
      <line x1="35.195" y1="1629.130" x2="35.195" y2="1579.130"/>
      <line x1="36.195" y1="1629.130" x2="36.195" y2="1579.130"/>
      <line x1="37.195" y1="1629.130" x2="37.195" y2="1579.130"/>
      <line x1="38.195" y1="1629.130" x2="38.195" y2="1579.130"/>
      <line x1="39.195" y1="1629.130" x2="39.195" y2="1579.130"/>
      <line x1="40.195" y1="1629.130" x2="40.195" y2="1579.130"/>
      <line x1="41.195" y1="1629.130" x2="41.195" y2="1579.130"/>
      <line x1="42.195" y1="1629.130" x2="42.195" y2="1579.130"/>
      <line x1="43.195" y1="1629.130" x2="43.195" y2="1579.130"/>
      <line x1="44.195" y1="1629.130" x2="44.195" y2="1579.130"/>
      <line x1="45.195" y1="1629.130" x2="45.195" y2="1579.130"/>
      <line x1="46.195" y1="1629.130" x2="46.195" y2="1579.130"/>
      <line x1="47.195" y1="1629.130" x2="47.195" y2="1579.130"/>
      <line x1="48.195" y1="1629.130" x2="48.195" y2="1579.130"/>
      <line x1="49.195" y1="1629.130" x2="49.195" y2="1579.130"/>
      <line x1="50.195" y1="1629.130" x2="50.195" y2="1579.130"/>
      <line x1="51.195" y1="1629.130" x2="51.195" y2="1579.130"/>
      <line x1="52.195" y1="1629.130" x2="52.195" y2="1579.130"/>
      <line x1="53.195" y1="1629.130" x2="53.195" y2="1579.130"/>
      <line x1="54.195" y1="1629.130" x2="54.195" y2="1579.130"/>
      <line x1="55.195" y1="1629.130" x2="55.195" y2="1579.130"/>
      <line x1="56.195" y1="1629.130" x2="56.195" y2="1579.130"/>
      <line x1="57.195" y1="1629.130" x2="57.195" y2="1579.130"/>
      <line x1="58.195" y1="1629.130" x2="58.195" y2="1579.130"/>
      <line x1="59.195" y1="1629.130" x2="59.195" y2="1579.130"/>
      <line x1="60.195" y1="1629.130" x2="60.195" y2="1579.130"/>
      <line x1="61.195" y1="1629.130" x2="61.195" y2="1579.130"/>
      <line x1="62.195" y1="1629.130" x2="62.195" y2="1579.130"/>
      <line x1="63.195" y1="1629.130" x2="63.195" y2="1579.130"/>
      <line x1="64.195" y1="1629.130" x2="64.195" y2="1579.130"/>
      <line x1="65.195" y1="1629.130" x2="65.195" y2="1579.130"/>
      <line x1="66.195" y1="1629.130" x2="66.195" y2="1579.130"/>
      <line x1="67.195" y1="1629.130" x2="67.195" y2="1579.130"/>
      <line x1="68.195" y1="1629.130" x2="68.195" y2="1579.130"/>
      <line x1="69.195" y1="1629.130" x2="69.195" y2="1579.130"/>
      <line x1="70.195" y1="1629.130" x2="70.195" y2="1579.130"/>
      <line x1="71.195" y1="1629.130" x2="71.195" y2="1579.130"/>
      <line x1="72.195" y1="1629.130" x2="72.195" y2="1579.130"/>
      <line x1="73.195" y1="1629.130" x2="73.195" y2="1579.130"/>
      <line x1="74.195" y1="1629.130" x2="74.195" y2="1579.130"/>
      <line x1="75.195" y1="1629.130" x2="75.195" y2="1579.130"/>
      <line x1="76.195" y1="1629.130" x2="76.195" y2="1579.130"/>
      <line x1="77.195" y1="1629.130" x2="77.195" y2="1579.130"/>
      <line x1="78.195" y1="1629.130" x2="78.195" y2="1579.130"/>
      <line x1="79.195" y1="1629.130" x2="79.195" y2="1579.130"/>
      <line x1="80.195" y1="1629.130" x2="80.195" y2="1579.130"/>
      <line x1="81.195" y1="1629.130" x2="81.195" y2="1579.130"/>
      <line x1="82.195" y1="1629.130" x2="82.195" y2="1579.130"/>
      <line x1="83.195" y1="1629.130" x2="83.195" y2="1579.130"/>
      <line x1="84.195" y1="1629.130" x2="84.195" y2="1579.130"/>
      <line x1="85.195" y1="1629.130" x2="85.195" y2="1579.130"/>
      <line x1="86.195" y1="1629.130" x2="86.195" y2="1579.130"/>
      <line x1="87.195" y1="1629.130" x2="87.195" y2="1579.130"/>
      <line x1="88.195" y1="1629.130" x2="88.195" y2="1579.130"/>
      <line x1="89.195" y1="1629.130" x2="89.195" y2="1579.130"/>
      <line x1="90.195" y1="1629.130" x2="90.195" y2="1579.130"/>
      <line x1="91.195" y1="1629.130" x2="91.195" y2="1579.130"/>
      <line x1="92.195" y1="1629.130" x2="92.195" y2="1579.130"/>
      <line x1="93.195" y1="1629.130" x2="93.195" y2="1579.130"/>
      <line x1="94.195" y1="1629.130" x2="94.195" y2="1579.130"/>
      <line x1="95.195" y1="1629.130" x2="95.195" y2="1579.130"/>
      <line x1="96.195" y1="1629.130" x2="96.195" y2="1579.130"/>
      <line x1="97.195" y1="1629.130" x2="97.195" y2="1579.130"/>
      <line x1="98.195" y1="1629.130" x2="98.195" y2="1579.130"/>
      <line x1="99.195" y1="1629.130" x2="99.195" y2="1579.130"/>
      <line x1="100.195" y1="1629.130" x2="100.195" y2="1579.130"/>
      <line x1="101.195" y1="1629.130" x2="101.195" y2="1579.130"/>
      <line x1="102.195" y1="1629.130" x2="102.195" y2="1579.130"/>
      <line x1="103.195" y1="1629.130" x2="103.195" y2="1579.130"/>
      <line x1="104.195" y1="1629.130" x2="104.195" y2="1579.130"/>
      <line x1="105.195" y1="1629.130" x2="105.195" y2="1579.130"/>
      <line x1="106.195" y1="1629.130" x2="106.195" y2="1579.130"/>
      <line x1="107.195" y1="1629.130" x2="107.195" y2="1579.130"/>
      <line x1="108.195" y1="1629.130" x2="108.195" y2="1579.130"/>
      <line x1="109.195" y1="1629.130" x2="109.195" y2="1579.130"/>
      <line x1="110.195" y1="1629.130" x2="110.195" y2="1579.130"/>
      <line x1="111.195" y1="1629.130" x2="111.195" y2="1579.130"/>
      <line x1="112.195" y1="1629.130" x2="112.195" y2="1579.130"/>
      <line x1="113.195" y1="1629.130" x2="113.195" y2="1579.130"/>
      <line x1="114.195" y1="1629.130" x2="114.195" y2="1579.130"/>
      <line x1="115.195" y1="1629.130" x2="115.195" y2="1579.130"/>
      <line x1="116.195" y1="1629.130" x2="116.195" y2="1579.130"/>
      <line x1="117.195" y1="1629.130" x2="117.195" y2="1579.130"/>
      <line x1="118.195" y1="1629.130" x2="118.195" y2="1579.130"/>
      <line x1="119.195" y1="1629.130" x2="119.195" y2="1579.130"/>
      <line x1="120.195" y1="1629.130" x2="120.195" y2="1579.130"/>
      <line x1="121.195" y1="1629.130" x2="121.195" y2="1579.130"/>
      <line x1="122.195" y1="1629.130" x2="122.195" y2="1579.130"/>
      <line x1="123.195" y1="1629.130" x2="123.195" y2="1579.130"/>
      <line x1="124.195" y1="1629.130" x2="124.195" y2="1579.130"/>
      <line x1="125.195" y1="1629.130" x2="125.195" y2="1579.130"/>
      <line x1="126.195" y1="1629.130" x2="126.195" y2="1579.130"/>
      <line x1="127.195" y1="1629.130" x2="127.195" y2="1579.130"/>
      <line x1="128.195" y1="1629.130" x2="128.195" y2="1579.130"/>
      <line x1="129.195" y1="1629.130" x2="129.195" y2="1579.130"/>
      <line x1="130.195" y1="1629.130" x2="130.195" y2="1579.130"/>
      <line x1="131.195" y1="1629.130" x2="131.195" y2="1579.130"/>
      <line x1="132.195" y1="1629.130" x2="132.195" y2="1579.130"/>
      <line x1="133.195" y1="1629.130" x2="133.195" y2="1579.130"/>
      <line x1="134.195" y1="1629.130" x2="134.195" y2="1579.130"/>
      <line x1="135.195" y1="1629.130" x2="135.195" y2="1579.130"/>
      <line x1="136.195" y1="1629.130" x2="136.195" y2="1579.130"/>
      <line x1="137.195" y1="1629.130" x2="137.195" y2="1579.130"/>
      <line x1="138.195" y1="1629.130" x2="138.195" y2="1579.130"/>
      <line x1="139.195" y1="1629.130" x2="139.195" y2="1579.130"/>
      <line x1="140.195" y1="1629.130" x2="140.195" y2="1579.130"/>
      <line x1="141.195" y1="1629.130" x2="141.195" y2="1579.130"/>
      <line x1="142.195" y1="1629.130" x2="142.195" y2="1579.130"/>
      <line x1="143.195" y1="1629.130" x2="143.195" y2="1579.130"/>
      <line x1="144.195" y1="1629.130" x2="144.195" y2="1579.130"/>
      <line x1="145.195" y1="1629.130" x2="145.195" y2="1579.130"/>
      <line x1="146.195" y1="1629.130" x2="146.195" y2="1579.130"/>
      <line x1="147.195" y1="1629.130" x2="147.195" y2="1579.130"/>
      <line x1="148.195" y1="1629.130" x2="148.195" y2="1579.130"/>
      <line x1="149.195" y1="1629.130" x2="149.195" y2="1579.130"/>
      <line x1="150.195" y1="1629.130" x2="150.195" y2="1579.130"/>
      <line x1="151.195" y1="1629.130" x2="151.195" y2="1579.130"/>
      <line x1="152.195" y1="1629.130" x2="152.195" y2="1579.130"/>
      <line x1="153.195" y1="1629.130" x2="153.195" y2="1579.130"/>
      <line x1="25.195" y1="1579.030" x2="25.195" y2="1529.030"/>
      <line x1="26.195" y1="1579.030" x2="26.195" y2="1529.030"/>
      <line x1="27.195" y1="1579.030" x2="27.195" y2="1529.030"/>
      <line x1="28.195" y1="1579.030" x2="28.195" y2="1529.030"/>
      <line x1="29.195" y1="1579.030" x2="29.195" y2="1529.030"/>
      <line x1="30.195" y1="1579.030" x2="30.195" y2="1529.030"/>
      <line x1="31.195" y1="1579.030" x2="31.195" y2="1529.030"/>
      <line x1="32.195" y1="1579.030" x2="32.195" y2="1529.030"/>
      <line x1="33.195" y1="1579.030" x2="33.195" y2="1529.030"/>
      <line x1="34.195" y1="1579.030" x2="34.195" y2="1529.030"/>
      <line x1="35.195" y1="1579.030" x2="35.195" y2="1529.030"/>
      <line x1="36.195" y1="1579.030" x2="36.195" y2="1529.030"/>
      <line x1="37.195" y1="1579.030" x2="37.195" y2="1529.030"/>
      <line x1="38.195" y1="1579.030" x2="38.195" y2="1529.030"/>
      <line x1="39.195" y1="1579.030" x2="39.195" y2="1529.030"/>
      <line x1="40.195" y1="1579.030" x2="40.195" y2="1529.030"/>
      <line x1="41.195" y1="1579.030" x2="41.195" y2="1529.030"/>
      <line x1="42.195" y1="1579.030" x2="42.195" y2="1529.030"/>
      <line x1="43.195" y1="1579.030" x2="43.195" y2="1529.030"/>
      <line x1="44.195" y1="1579.030" x2="44.195" y2="1529.030"/>
      <line x1="45.195" y1="1579.030" x2="45.195" y2="1529.030"/>
      <line x1="46.195" y1="1579.030" x2="46.195" y2="1529.030"/>
      <line x1="47.195" y1="1579.030" x2="47.195" y2="1529.030"/>
      <line x1="48.195" y1="1579.030" x2="48.195" y2="1529.030"/>
      <line x1="49.195" y1="1579.030" x2="49.195" y2="1529.030"/>
      <line x1="50.195" y1="1579.030" x2="50.195" y2="1529.030"/>
      <line x1="51.195" y1="1579.030" x2="51.195" y2="1529.030"/>
      <line x1="52.195" y1="1579.030" x2="52.195" y2="1529.030"/>
      <line x1="53.195" y1="1579.030" x2="53.195" y2="1529.030"/>
      <line x1="54.195" y1="1579.030" x2="54.195" y2="1529.030"/>
      <line x1="55.195" y1="1579.030" x2="55.195" y2="1529.030"/>
      <line x1="56.195" y1="1579.030" x2="56.195" y2="1529.030"/>
      <line x1="57.195" y1="1579.030" x2="57.195" y2="1529.030"/>
      <line x1="58.195" y1="1579.030" x2="58.195" y2="1529.030"/>
      <line x1="59.195" y1="1579.030" x2="59.195" y2="1529.030"/>
      <line x1="60.195" y1="1579.030" x2="60.195" y2="1529.030"/>
      <line x1="61.195" y1="1579.030" x2="61.195" y2="1529.030"/>
      <line x1="62.195" y1="1579.030" x2="62.195" y2="1529.030"/>
      <line x1="63.195" y1="1579.030" x2="63.195" y2="1529.030"/>
      <line x1="64.195" y1="1579.030" x2="64.195" y2="1529.030"/>
      <line x1="65.195" y1="1579.030" x2="65.195" y2="1529.030"/>
      <line x1="66.195" y1="1579.030" x2="66.195" y2="1529.030"/>
      <line x1="67.195" y1="1579.030" x2="67.195" y2="1529.030"/>
      <line x1="68.195" y1="1579.030" x2="68.195" y2="1529.030"/>
      <line x1="69.195" y1="1579.030" x2="69.195" y2="1529.030"/>
      <line x1="70.195" y1="1579.030" x2="70.195" y2="1529.030"/>
      <line x1="71.195" y1="1579.030" x2="71.195" y2="1529.030"/>
      <line x1="72.195" y1="1579.030" x2="72.195" y2="1529.030"/>
      <line x1="73.195" y1="1579.030" x2="73.195" y2="1529.030"/>
      <line x1="74.195" y1="1579.030" x2="74.195" y2="1529.030"/>
      <line x1="75.195" y1="1579.030" x2="75.195" y2="1529.030"/>
      <line x1="76.195" y1="1579.030" x2="76.195" y2="1529.030"/>
      <line x1="77.195" y1="1579.030" x2="77.195" y2="1529.030"/>
      <line x1="78.195" y1="1579.030" x2="78.195" y2="1529.030"/>
      <line x1="79.195" y1="1579.030" x2="79.195" y2="1529.030"/>
      <line x1="80.195" y1="1579.030" x2="80.195" y2="1529.030"/>
      <line x1="81.195" y1="1579.030" x2="81.195" y2="1529.030"/>
      <line x1="82.195" y1="1579.030" x2="82.195" y2="1529.030"/>
      <line x1="83.195" y1="1579.030" x2="83.195" y2="1529.030"/>
      <line x1="84.195" y1="1579.030" x2="84.195" y2="1529.030"/>
      <line x1="85.195" y1="1579.030" x2="85.195" y2="1529.030"/>
      <line x1="86.195" y1="1579.030" x2="86.195" y2="1529.030"/>
      <line x1="87.195" y1="1579.030" x2="87.195" y2="1529.030"/>
      <line x1="88.195" y1="1579.030" x2="88.195" y2="1529.030"/>
      <line x1="89.195" y1="1579.030" x2="89.195" y2="1529.030"/>
      <line x1="90.195" y1="1579.030" x2="90.195" y2="1529.030"/>
      <line x1="91.195" y1="1579.030" x2="91.195" y2="1529.030"/>
      <line x1="92.195" y1="1579.030" x2="92.195" y2="1529.030"/>
      <line x1="93.195" y1="1579.030" x2="93.195" y2="1529.030"/>
      <line x1="94.195" y1="1579.030" x2="94.195" y2="1529.030"/>
      <line x1="95.195" y1="1579.030" x2="95.195" y2="1529.030"/>
      <line x1="96.195" y1="1579.030" x2="96.195" y2="1529.030"/>
      <line x1="97.195" y1="1579.030" x2="97.195" y2="1529.030"/>
      <line x1="98.195" y1="1579.030" x2="98.195" y2="1529.030"/>
      <line x1="99.195" y1="1579.030" x2="99.195" y2="1529.030"/>
      <line x1="100.195" y1="1579.030" x2="100.195" y2="1529.030"/>
      <line x1="101.195" y1="1579.030" x2="101.195" y2="1529.030"/>
      <line x1="102.195" y1="1579.030" x2="102.195" y2="1529.030"/>
      <line x1="103.195" y1="1579.030" x2="103.195" y2="1529.030"/>
      <line x1="104.195" y1="1579.030" x2="104.195" y2="1529.030"/>
      <line x1="105.195" y1="1579.030" x2="105.195" y2="1529.030"/>
      <line x1="106.195" y1="1579.030" x2="106.195" y2="1529.030"/>
      <line x1="107.195" y1="1579.030" x2="107.195" y2="1529.030"/>
      <line x1="108.195" y1="1579.030" x2="108.195" y2="1529.030"/>
      <line x1="109.195" y1="1579.030" x2="109.195" y2="1529.030"/>
      <line x1="110.195" y1="1579.030" x2="110.195" y2="1529.030"/>
      <line x1="111.195" y1="1579.030" x2="111.195" y2="1529.030"/>
      <line x1="112.195" y1="1579.030" x2="112.195" y2="1529.030"/>
      <line x1="113.195" y1="1579.030" x2="113.195" y2="1529.030"/>
      <line x1="114.195" y1="1579.030" x2="114.195" y2="1529.030"/>
      <line x1="115.195" y1="1579.030" x2="115.195" y2="1529.030"/>
      <line x1="116.195" y1="1579.030" x2="116.195" y2="1529.030"/>
      <line x1="117.195" y1="1579.030" x2="117.195" y2="1529.030"/>
      <line x1="118.195" y1="1579.030" x2="118.195" y2="1529.030"/>
      <line x1="119.195" y1="1579.030" x2="119.195" y2="1529.030"/>
      <line x1="120.195" y1="1579.030" x2="120.195" y2="1529.030"/>
      <line x1="121.195" y1="1579.030" x2="121.195" y2="1529.030"/>
      <line x1="122.195" y1="1579.030" x2="122.195" y2="1529.030"/>
      <line x1="123.195" y1="1579.030" x2="123.195" y2="1529.030"/>
      <line x1="124.195" y1="1579.030" x2="124.195" y2="1529.030"/>
      <line x1="125.195" y1="1579.030" x2="125.195" y2="1529.030"/>
      <line x1="126.195" y1="1579.030" x2="126.195" y2="1529.030"/>
      <line x1="127.195" y1="1579.030" x2="127.195" y2="1529.030"/>
      <line x1="128.195" y1="1579.030" x2="128.195" y2="1529.030"/>
      <line x1="129.195" y1="1579.030" x2="129.195" y2="1529.030"/>
      <line x1="130.195" y1="1579.030" x2="130.195" y2="1529.030"/>
      <line x1="131.195" y1="1579.030" x2="131.195" y2="1529.030"/>
      <line x1="132.195" y1="1579.030" x2="132.195" y2="1529.030"/>
      <line x1="133.195" y1="1579.030" x2="133.195" y2="1529.030"/>
      <line x1="134.195" y1="1579.030" x2="134.195" y2="1529.030"/>
      <line x1="135.195" y1="1579.030" x2="135.195" y2="1529.030"/>
      <line x1="136.195" y1="1579.030" x2="136.195" y2="1529.030"/>
      <line x1="137.195" y1="1579.030" x2="137.195" y2="1529.030"/>
      <line x1="138.195" y1="1579.030" x2="138.195" y2="1529.030"/>
      <line x1="139.195" y1="1579.030" x2="139.195" y2="1529.030"/>
      <line x1="140.195" y1="1579.030" x2="140.195" y2="1529.030"/>
      <line x1="141.195" y1="1579.030" x2="141.195" y2="1529.030"/>
      <line x1="142.195" y1="1579.030" x2="142.195" y2="1529.030"/>
      <line x1="143.195" y1="1579.030" x2="143.195" y2="1529.030"/>
      <line x1="144.195" y1="1579.030" x2="144.195" y2="1529.030"/>
      <line x1="145.195" y1="1579.030" x2="145.195" y2="1529.030"/>
      <line x1="146.195" y1="1579.030" x2="146.195" y2="1529.030"/>
      <line x1="147.195" y1="1579.030" x2="147.195" y2="1529.030"/>
      <line x1="148.195" y1="1579.030" x2="148.195" y2="1529.030"/>
      <line x1="149.195" y1="1579.030" x2="149.195" y2="1529.030"/>
      <line x1="150.195" y1="1579.030" x2="150.195" y2="1529.030"/>
      <line x1="151.195" y1="1579.030" x2="151.195" y2="1529.030"/>
      <line x1="152.195" y1="1579.030" x2="152.195" y2="1529.030"/>
      <line x1="153.195" y1="1579.030" x2="153.195" y2="1529.030"/>
      <line x1="48.195" y1="1528.930" x2="48.195" y2="1525.229"/>
      <line x1="25.195" y1="1528.930" x2="25.195" y2="1525.229"/>
      <line x1="26.195" y1="1528.930" x2="26.195" y2="1525.229"/>
      <line x1="28.195" y1="1528.930" x2="28.195" y2="1525.229"/>
      <line x1="31.195" y1="1528.930" x2="31.195" y2="1525.229"/>
      <line x1="33.195" y1="1528.930" x2="33.195" y2="1525.229"/>
      <line x1="34.195" y1="1528.930" x2="34.195" y2="1525.229"/>
      <line x1="36.195" y1="1528.930" x2="36.195" y2="1525.229"/>
      <line x1="39.195" y1="1528.930" x2="39.195" y2="1525.229"/>
      <line x1="46.195" y1="1528.930" x2="46.195" y2="1525.229"/>
      <line x1="45.195" y1="1528.930" x2="45.195" y2="1525.229"/>
      <line x1="42.195" y1="1528.930" x2="42.195" y2="1525.229"/>
      <line x1="37.195" y1="1528.930" x2="37.195" y2="1525.229"/>
      <line x1="43.195" y1="1528.930" x2="43.195" y2="1525.229"/>
      <line x1="40.195" y1="1528.930" x2="40.195" y2="1525.229"/>
      <line x1="30.195" y1="1528.930" x2="30.195" y2="1525.229"/>
      <line x1="29.195" y1="1528.930" x2="29.195" y2="1525.229"/>
      <line x1="32.195" y1="1528.930" x2="32.195" y2="1525.229"/>
      <line x1="35.195" y1="1528.930" x2="35.195" y2="1525.229"/>
      <line x1="38.195" y1="1528.930" x2="38.195" y2="1525.229"/>
      <line x1="41.195" y1="1528.930" x2="41.195" y2="1525.229"/>
      <line x1="44.195" y1="1528.930" x2="44.195" y2="1525.229"/>
      <line x1="47.195" y1="1528.930" x2="47.195" y2="1525.229"/>
      <line x1="27.195" y1="1528.930" x2="27.195" y2="1525.229"/>
      <line x1="59.195" y1="1528.930" x2="59.195" y2="1525.229"/>
      <line x1="58.195" y1="1528.930" x2="58.195" y2="1525.229"/>
      <line x1="57.195" y1="1528.930" x2="57.195" y2="1525.229"/>
      <line x1="56.195" y1="1528.930" x2="56.195" y2="1525.229"/>
      <line x1="55.195" y1="1528.930" x2="55.195" y2="1525.229"/>
      <line x1="54.195" y1="1528.930" x2="54.195" y2="1525.229"/>
      <line x1="53.195" y1="1528.930" x2="53.195" y2="1525.229"/>
      <line x1="52.195" y1="1528.930" x2="52.195" y2="1525.229"/>
      <line x1="51.195" y1="1528.930" x2="51.195" y2="1525.229"/>
      <line x1="50.195" y1="1528.930" x2="50.195" y2="1525.229"/>
      <line x1="49.195" y1="1528.930" x2="49.195" y2="1525.229"/>
      <line x1="60.195" y1="1528.930" x2="60.195" y2="1525.229"/>
      <line x1="72.195" y1="1528.930" x2="72.195" y2="1525.229"/>
      <line x1="74.195" y1="1528.930" x2="74.195" y2="1525.229"/>
      <line x1="73.195" y1="1528.930" x2="73.195" y2="1525.229"/>
      <line x1="71.195" y1="1528.930" x2="71.195" y2="1525.229"/>
      <line x1="70.195" y1="1528.930" x2="70.195" y2="1525.229"/>
      <line x1="69.195" y1="1528.930" x2="69.195" y2="1525.229"/>
      <line x1="68.195" y1="1528.930" x2="68.195" y2="1525.229"/>
      <line x1="67.195" y1="1528.930" x2="67.195" y2="1525.229"/>
      <line x1="66.195" y1="1528.930" x2="66.195" y2="1525.229"/>
      <line x1="65.195" y1="1528.930" x2="65.195" y2="1525.229"/>
      <line x1="64.195" y1="1528.930" x2="64.195" y2="1525.229"/>
      <line x1="63.195" y1="1528.930" x2="63.195" y2="1525.229"/>
      <line x1="62.195" y1="1528.930" x2="62.195" y2="1525.229"/>
      <line x1="61.195" y1="1528.930" x2="61.195" y2="1525.229"/>
      <line x1="124.195" y1="1528.930" x2="124.195" y2="1525.229"/>
      <line x1="96.195" y1="1528.930" x2="96.195" y2="1525.229"/>
      <line x1="107.195" y1="1528.930" x2="107.195" y2="1525.229"/>
      <line x1="106.195" y1="1528.930" x2="106.195" y2="1525.229"/>
      <line x1="105.195" y1="1528.930" x2="105.195" y2="1525.229"/>
      <line x1="104.195" y1="1528.930" x2="104.195" y2="1525.229"/>
      <line x1="103.195" y1="1528.930" x2="103.195" y2="1525.229"/>
      <line x1="102.195" y1="1528.930" x2="102.195" y2="1525.229"/>
      <line x1="101.195" y1="1528.930" x2="101.195" y2="1525.229"/>
      <line x1="100.195" y1="1528.930" x2="100.195" y2="1525.229"/>
      <line x1="99.195" y1="1528.930" x2="99.195" y2="1525.229"/>
      <line x1="98.195" y1="1528.930" x2="98.195" y2="1525.229"/>
      <line x1="97.195" y1="1528.930" x2="97.195" y2="1525.229"/>
      <line x1="108.195" y1="1528.930" x2="108.195" y2="1525.229"/>
      <line x1="95.195" y1="1528.930" x2="95.195" y2="1525.229"/>
      <line x1="94.195" y1="1528.930" x2="94.195" y2="1525.229"/>
      <line x1="93.195" y1="1528.930" x2="93.195" y2="1525.229"/>
      <line x1="92.195" y1="1528.930" x2="92.195" y2="1525.229"/>
      <line x1="91.195" y1="1528.930" x2="91.195" y2="1525.229"/>
      <line x1="90.195" y1="1528.930" x2="90.195" y2="1525.229"/>
      <line x1="89.195" y1="1528.930" x2="89.195" y2="1525.229"/>
      <line x1="88.195" y1="1528.930" x2="88.195" y2="1525.229"/>
      <line x1="87.195" y1="1528.930" x2="87.195" y2="1525.229"/>
      <line x1="86.195" y1="1528.930" x2="86.195" y2="1525.229"/>
      <line x1="85.195" y1="1528.930" x2="85.195" y2="1525.229"/>
      <line x1="120.195" y1="1528.930" x2="120.195" y2="1525.229"/>
      <line x1="123.195" y1="1528.930" x2="123.195" y2="1525.229"/>
      <line x1="122.195" y1="1528.930" x2="122.195" y2="1525.229"/>
      <line x1="121.195" y1="1528.930" x2="121.195" y2="1525.229"/>
      <line x1="119.195" y1="1528.930" x2="119.195" y2="1525.229"/>
      <line x1="118.195" y1="1528.930" x2="118.195" y2="1525.229"/>
      <line x1="117.195" y1="1528.930" x2="117.195" y2="1525.229"/>
      <line x1="116.195" y1="1528.930" x2="116.195" y2="1525.229"/>
      <line x1="115.195" y1="1528.930" x2="115.195" y2="1525.229"/>
      <line x1="114.195" y1="1528.930" x2="114.195" y2="1525.229"/>
      <line x1="113.195" y1="1528.930" x2="113.195" y2="1525.229"/>
      <line x1="112.195" y1="1528.930" x2="112.195" y2="1525.229"/>
      <line x1="111.195" y1="1528.930" x2="111.195" y2="1525.229"/>
      <line x1="110.195" y1="1528.930" x2="110.195" y2="1525.229"/>
      <line x1="109.195" y1="1528.930" x2="109.195" y2="1525.229"/>
      <line x1="83.195" y1="1528.930" x2="83.195" y2="1525.229"/>
      <line x1="82.195" y1="1528.930" x2="82.195" y2="1525.229"/>
      <line x1="81.195" y1="1528.930" x2="81.195" y2="1525.229"/>
      <line x1="80.195" y1="1528.930" x2="80.195" y2="1525.229"/>
      <line x1="79.195" y1="1528.930" x2="79.195" y2="1525.229"/>
      <line x1="78.195" y1="1528.930" x2="78.195" y2="1525.229"/>
      <line x1="77.195" y1="1528.930" x2="77.195" y2="1525.229"/>
      <line x1="76.195" y1="1528.930" x2="76.195" y2="1525.229"/>
      <line x1="75.195" y1="1528.930" x2="75.195" y2="1525.229"/>
      <line x1="84.195" y1="1528.930" x2="84.195" y2="1525.229"/>
      <line x1="125.195" y1="1528.930" x2="125.195" y2="1525.229"/>
      <line x1="153.195" y1="1528.930" x2="153.195" y2="1525.229"/>
      <line x1="127.195" y1="1528.930" x2="127.195" y2="1525.229"/>
      <line x1="130.195" y1="1528.930" x2="130.195" y2="1525.229"/>
      <line x1="132.195" y1="1528.930" x2="132.195" y2="1525.229"/>
      <line x1="133.195" y1="1528.930" x2="133.195" y2="1525.229"/>
      <line x1="135.195" y1="1528.930" x2="135.195" y2="1525.229"/>
      <line x1="136.195" y1="1528.930" x2="136.195" y2="1525.229"/>
      <line x1="138.195" y1="1528.930" x2="138.195" y2="1525.229"/>
      <line x1="139.195" y1="1528.930" x2="139.195" y2="1525.229"/>
      <line x1="141.195" y1="1528.930" x2="141.195" y2="1525.229"/>
      <line x1="142.195" y1="1528.930" x2="142.195" y2="1525.229"/>
      <line x1="144.195" y1="1528.930" x2="144.195" y2="1525.229"/>
      <line x1="145.195" y1="1528.930" x2="145.195" y2="1525.229"/>
      <line x1="147.195" y1="1528.930" x2="147.195" y2="1525.229"/>
      <line x1="150.195" y1="1528.930" x2="150.195" y2="1525.229"/>
      <line x1="152.195" y1="1528.930" x2="152.195" y2="1525.229"/>
      <line x1="126.195" y1="1528.930" x2="126.195" y2="1525.229"/>
      <line x1="129.195" y1="1528.930" x2="129.195" y2="1525.229"/>
      <line x1="128.195" y1="1528.930" x2="128.195" y2="1525.229"/>
      <line x1="131.195" y1="1528.930" x2="131.195" y2="1525.229"/>
      <line x1="134.195" y1="1528.930" x2="134.195" y2="1525.229"/>
      <line x1="137.195" y1="1528.930" x2="137.195" y2="1525.229"/>
      <line x1="140.195" y1="1528.930" x2="140.195" y2="1525.229"/>
      <line x1="143.195" y1="1528.930" x2="143.195" y2="1525.229"/>
      <line x1="146.195" y1="1528.930" x2="146.195" y2="1525.229"/>
      <line x1="149.195" y1="1528.930" x2="149.195" y2="1525.229"/>
      <line x1="148.195" y1="1528.930" x2="148.195" y2="1525.229"/>
      <line x1="151.195" y1="1528.930" x2="151.195" y2="1525.229"/>
    </g>
    <g stroke="#1976D2" stroke-width="0.4">
      <polyline points="444.590,1682.729 578.920,1682.729 578.920,1521.729 444.590,1521.729" fill="none"/>
      <polyline points="444.590,1521.729 442.734,1521.729 442.734,1682.729 444.590,1682.729" fill="none"/>
      <polyline points="444.590,1681.730 577.920,1681.730 577.920,1522.729 444.590,1522.729" fill="none"/>
      <polyline points="444.590,1522.729 443.734,1522.729 443.734,1681.730 444.590,1681.730" fill="none"/>
      <polyline points="576.920,1523.729 444.734,1523.729 444.734,1680.730 576.920,1680.730 576.920,1523.729" fill="none"/>
      <polyline points="575.920,1524.729 445.734,1524.729 445.734,1679.729 575.920,1679.729 575.920,1524.729" fill="none"/>
      <polyline points="155.410,1521.729 21.080,1521.729 21.080,1682.729 155.410,1682.729" fill="none"/>
      <polyline points="155.410,1682.729 157.266,1682.729 157.266,1521.729 155.410,1521.729" fill="none"/>
      <polyline points="155.410,1522.729 22.080,1522.729 22.080,1681.730 155.410,1681.730" fill="none"/>
      <polyline points="155.410,1681.730 156.266,1681.730 156.266,1522.729 155.410,1522.729" fill="none"/>
      <polyline points="155.266,1523.729 23.080,1523.729 23.080,1680.730 155.266,1680.730 155.266,1523.729" fill="none"/>
      <polyline points="154.266,1524.729 24.080,1524.729 24.080,1679.729 154.266,1679.729 154.266,1524.729" fill="none"/>
    </g>
    <g stroke="#C62828" stroke-width="0.4" fill="none">
      <polygon points="293.481,1531.885 294.322,1531.044 294.630,1529.896 294.322,1528.748 293.481,1527.908 292.333,1527.600 291.185,1527.908 290.345,1528.748 290.037,1529.896 290.345,1531.044 291.185,1531.885 292.333,1532.192"/>
      <polygon points="313.423,1531.784 314.221,1530.986 314.513,1529.896 314.221,1528.806 313.423,1528.008 312.333,1527.716 311.243,1528.008 310.446,1528.806 310.154,1529.896 310.446,1530.986 311.243,1531.784 312.333,1532.076"/>
      <polygon points="413.333,1531.628 414.065,1530.896 414.333,1529.896 414.065,1528.896 413.333,1528.164 412.333,1527.896 411.333,1528.164 410.601,1528.896 410.333,1529.896 410.601,1530.896 411.333,1531.628 412.333,1531.896"/>
      <polygon points="353.333,1531.628 354.065,1530.896 354.333,1529.896 354.065,1528.896 353.333,1528.164 352.333,1527.896 351.333,1528.164 350.601,1528.896 350.333,1529.896 350.601,1530.896 351.333,1531.628 352.333,1531.896"/>
      <polygon points="193.333,1531.628 194.065,1530.896 194.333,1529.896 194.065,1528.896 193.333,1528.164 192.333,1527.896 191.333,1528.164 190.601,1528.896 190.333,1529.896 190.601,1530.896 191.333,1531.628 192.333,1531.896"/>
      <polygon points="233.333,1531.628 234.065,1530.896 234.333,1529.896 234.065,1528.896 233.333,1528.164 232.333,1527.896 231.333,1528.164 230.601,1528.896 230.333,1529.896 230.601,1530.896 231.333,1531.628 232.333,1531.896"/>
      <polygon points="253.333,1531.628 254.065,1530.896 254.333,1529.896 254.065,1528.896 253.333,1528.164 252.333,1527.896 251.333,1528.164 250.601,1528.896 250.333,1529.896 250.601,1530.896 251.333,1531.628 252.333,1531.896"/>
      <polygon points="333.333,1531.628 334.065,1530.896 334.333,1529.896 334.065,1528.896 333.333,1528.164 332.333,1527.896 331.333,1528.164 330.601,1528.896 330.333,1529.896 330.601,1530.896 331.333,1531.628 332.333,1531.896"/>
      <polygon points="213.333,1531.628 214.065,1530.896 214.333,1529.896 214.065,1528.896 213.333,1528.164 212.333,1527.896 211.333,1528.164 210.601,1528.896 210.333,1529.896 210.601,1530.896 211.333,1531.628 212.333,1531.896"/>
      <polygon points="273.333,1531.628 274.065,1530.896 274.333,1529.896 274.065,1528.896 273.333,1528.164 272.333,1527.896 271.333,1528.164 270.601,1528.896 270.333,1529.896 270.601,1530.896 271.333,1531.628 272.333,1531.896"/>
      <polygon points="393.333,1531.628 394.065,1530.896 394.333,1529.896 394.065,1528.896 393.333,1528.164 392.333,1527.896 391.333,1528.164 390.601,1528.896 390.333,1529.896 390.601,1530.896 391.333,1531.628 392.333,1531.896"/>
      <polygon points="373.333,1531.628 374.065,1530.896 374.333,1529.896 374.065,1528.896 373.333,1528.164 372.333,1527.896 371.333,1528.164 370.601,1528.896 370.333,1529.896 370.601,1530.896 371.333,1531.628 372.333,1531.896"/>
      <polygon points="293.481,1551.885 294.322,1551.044 294.630,1549.896 294.322,1548.748 293.481,1547.908 292.333,1547.600 291.185,1547.908 290.345,1548.748 290.037,1549.896 290.345,1551.044 291.185,1551.885 292.333,1552.192"/>
      <polygon points="313.423,1551.784 314.221,1550.986 314.513,1549.896 314.221,1548.806 313.423,1548.008 312.333,1547.716 311.243,1548.008 310.446,1548.806 310.154,1549.896 310.446,1550.986 311.243,1551.784 312.333,1552.076"/>
      <polygon points="273.333,1551.628 274.065,1550.896 274.333,1549.896 274.065,1548.896 273.333,1548.164 272.333,1547.896 271.333,1548.164 270.601,1548.896 270.333,1549.896 270.601,1550.896 271.333,1551.628 272.333,1551.896"/>
      <polygon points="353.333,1551.628 354.065,1550.896 354.333,1549.896 354.065,1548.896 353.333,1548.164 352.333,1547.896 351.333,1548.164 350.601,1548.896 350.333,1549.896 350.601,1550.896 351.333,1551.628 352.333,1551.896"/>
      <polygon points="253.333,1551.628 254.065,1550.896 254.333,1549.896 254.065,1548.896 253.333,1548.164 252.333,1547.896 251.333,1548.164 250.601,1548.896 250.333,1549.896 250.601,1550.896 251.333,1551.628 252.333,1551.896"/>
      <polygon points="373.333,1551.628 374.065,1550.896 374.333,1549.896 374.065,1548.896 373.333,1548.164 372.333,1547.896 371.333,1548.164 370.601,1548.896 370.333,1549.896 370.601,1550.896 371.333,1551.628 372.333,1551.896"/>
      <polygon points="393.333,1551.628 394.065,1550.896 394.333,1549.896 394.065,1548.896 393.333,1548.164 392.333,1547.896 391.333,1548.164 390.601,1548.896 390.333,1549.896 390.601,1550.896 391.333,1551.628 392.333,1551.896"/>
      <polygon points="413.333,1551.628 414.065,1550.896 414.333,1549.896 414.065,1548.896 413.333,1548.164 412.333,1547.896 411.333,1548.164 410.601,1548.896 410.333,1549.896 410.601,1550.896 411.333,1551.628 412.333,1551.896"/>
      <polygon points="333.333,1551.628 334.065,1550.896 334.333,1549.896 334.065,1548.896 333.333,1548.164 332.333,1547.896 331.333,1548.164 330.601,1548.896 330.333,1549.896 330.601,1550.896 331.333,1551.628 332.333,1551.896"/>
      <polygon points="213.333,1551.628 214.065,1550.896 214.333,1549.896 214.065,1548.896 213.333,1548.164 212.333,1547.896 211.333,1548.164 210.601,1548.896 210.333,1549.896 210.601,1550.896 211.333,1551.628 212.333,1551.896"/>
      <polygon points="193.333,1551.628 194.065,1550.896 194.333,1549.896 194.065,1548.896 193.333,1548.164 192.333,1547.896 191.333,1548.164 190.601,1548.896 190.333,1549.896 190.601,1550.896 191.333,1551.628 192.333,1551.896"/>
      <polygon points="233.333,1551.628 234.065,1550.896 234.333,1549.896 234.065,1548.896 233.333,1548.164 232.333,1547.896 231.333,1548.164 230.601,1548.896 230.333,1549.896 230.601,1550.896 231.333,1551.628 232.333,1551.896"/>
      <polygon points="293.481,1571.885 294.322,1571.044 294.630,1569.896 294.322,1568.748 293.481,1567.908 292.333,1567.600 291.185,1567.908 290.345,1568.748 290.037,1569.896 290.345,1571.044 291.185,1571.885 292.333,1572.192"/>
      <polygon points="313.423,1571.784 314.221,1570.986 314.513,1569.896 314.221,1568.806 313.423,1568.008 312.333,1567.716 311.243,1568.008 310.446,1568.806 310.154,1569.896 310.446,1570.986 311.243,1571.784 312.333,1572.076"/>
      <polygon points="233.333,1571.628 234.065,1570.896 234.333,1569.896 234.065,1568.896 233.333,1568.164 232.333,1567.896 231.333,1568.164 230.601,1568.896 230.333,1569.896 230.601,1570.896 231.333,1571.628 232.333,1571.896"/>
      <polygon points="333.333,1571.628 334.065,1570.896 334.333,1569.896 334.065,1568.896 333.333,1568.164 332.333,1567.896 331.333,1568.164 330.601,1568.896 330.333,1569.896 330.601,1570.896 331.333,1571.628 332.333,1571.896"/>
      <polygon points="393.333,1571.628 394.065,1570.896 394.333,1569.896 394.065,1568.896 393.333,1568.164 392.333,1567.896 391.333,1568.164 390.601,1568.896 390.333,1569.896 390.601,1570.896 391.333,1571.628 392.333,1571.896"/>
      <polygon points="213.333,1571.628 214.065,1570.896 214.333,1569.896 214.065,1568.896 213.333,1568.164 212.333,1567.896 211.333,1568.164 210.601,1568.896 210.333,1569.896 210.601,1570.896 211.333,1571.628 212.333,1571.896"/>
      <polygon points="253.333,1571.628 254.065,1570.896 254.333,1569.896 254.065,1568.896 253.333,1568.164 252.333,1567.896 251.333,1568.164 250.601,1568.896 250.333,1569.896 250.601,1570.896 251.333,1571.628 252.333,1571.896"/>
      <polygon points="273.333,1571.628 274.065,1570.896 274.333,1569.896 274.065,1568.896 273.333,1568.164 272.333,1567.896 271.333,1568.164 270.601,1568.896 270.333,1569.896 270.601,1570.896 271.333,1571.628 272.333,1571.896"/>
      <polygon points="413.333,1571.628 414.065,1570.896 414.333,1569.896 414.065,1568.896 413.333,1568.164 412.333,1567.896 411.333,1568.164 410.601,1568.896 410.333,1569.896 410.601,1570.896 411.333,1571.628 412.333,1571.896"/>
      <polygon points="373.333,1571.628 374.065,1570.896 374.333,1569.896 374.065,1568.896 373.333,1568.164 372.333,1567.896 371.333,1568.164 370.601,1568.896 370.333,1569.896 370.601,1570.896 371.333,1571.628 372.333,1571.896"/>
      <polygon points="353.333,1571.628 354.065,1570.896 354.333,1569.896 354.065,1568.896 353.333,1568.164 352.333,1567.896 351.333,1568.164 350.601,1568.896 350.333,1569.896 350.601,1570.896 351.333,1571.628 352.333,1571.896"/>
      <polygon points="193.333,1571.628 194.065,1570.896 194.333,1569.896 194.065,1568.896 193.333,1568.164 192.333,1567.896 191.333,1568.164 190.601,1568.896 190.333,1569.896 190.601,1570.896 191.333,1571.628 192.333,1571.896"/>
      <polygon points="293.481,1591.885 294.322,1591.044 294.630,1589.896 294.322,1588.748 293.481,1587.908 292.333,1587.600 291.185,1587.908 290.345,1588.748 290.037,1589.896 290.345,1591.044 291.185,1591.885 292.333,1592.192"/>
      <polygon points="313.423,1591.784 314.221,1590.986 314.513,1589.896 314.221,1588.806 313.423,1588.008 312.333,1587.716 311.243,1588.008 310.446,1588.806 310.154,1589.896 310.446,1590.986 311.243,1591.784 312.333,1592.076"/>
      <polygon points="193.333,1591.628 194.065,1590.896 194.333,1589.896 194.065,1588.896 193.333,1588.164 192.333,1587.896 191.333,1588.164 190.601,1588.896 190.333,1589.896 190.601,1590.896 191.333,1591.628 192.333,1591.896"/>
      <polygon points="413.333,1591.628 414.065,1590.896 414.333,1589.896 414.065,1588.896 413.333,1588.164 412.333,1587.896 411.333,1588.164 410.601,1588.896 410.333,1589.896 410.601,1590.896 411.333,1591.628 412.333,1591.896"/>
      <polygon points="373.333,1591.628 374.065,1590.896 374.333,1589.896 374.065,1588.896 373.333,1588.164 372.333,1587.896 371.333,1588.164 370.601,1588.896 370.333,1589.896 370.601,1590.896 371.333,1591.628 372.333,1591.896"/>
      <polygon points="213.333,1591.628 214.065,1590.896 214.333,1589.896 214.065,1588.896 213.333,1588.164 212.333,1587.896 211.333,1588.164 210.601,1588.896 210.333,1589.896 210.601,1590.896 211.333,1591.628 212.333,1591.896"/>
      <polygon points="233.333,1591.628 234.065,1590.896 234.333,1589.896 234.065,1588.896 233.333,1588.164 232.333,1587.896 231.333,1588.164 230.601,1588.896 230.333,1589.896 230.601,1590.896 231.333,1591.628 232.333,1591.896"/>
      <polygon points="253.333,1591.628 254.065,1590.896 254.333,1589.896 254.065,1588.896 253.333,1588.164 252.333,1587.896 251.333,1588.164 250.601,1588.896 250.333,1589.896 250.601,1590.896 251.333,1591.628 252.333,1591.896"/>
      <polygon points="273.333,1591.628 274.065,1590.896 274.333,1589.896 274.065,1588.896 273.333,1588.164 272.333,1587.896 271.333,1588.164 270.601,1588.896 270.333,1589.896 270.601,1590.896 271.333,1591.628 272.333,1591.896"/>
      <polygon points="393.333,1591.628 394.065,1590.896 394.333,1589.896 394.065,1588.896 393.333,1588.164 392.333,1587.896 391.333,1588.164 390.601,1588.896 390.333,1589.896 390.601,1590.896 391.333,1591.628 392.333,1591.896"/>
      <polygon points="353.333,1591.628 354.065,1590.896 354.333,1589.896 354.065,1588.896 353.333,1588.164 352.333,1587.896 351.333,1588.164 350.601,1588.896 350.333,1589.896 350.601,1590.896 351.333,1591.628 352.333,1591.896"/>
      <polygon points="333.333,1591.628 334.065,1590.896 334.333,1589.896 334.065,1588.896 333.333,1588.164 332.333,1587.896 331.333,1588.164 330.601,1588.896 330.333,1589.896 330.601,1590.896 331.333,1591.628 332.333,1591.896"/>
      <polygon points="293.481,1611.885 294.322,1611.044 294.630,1609.896 294.322,1608.748 293.481,1607.908 292.333,1607.600 291.185,1607.908 290.345,1608.748 290.037,1609.896 290.345,1611.044 291.185,1611.885 292.333,1612.192"/>
      <polygon points="313.423,1611.784 314.221,1610.986 314.513,1609.896 314.221,1608.806 313.423,1608.008 312.333,1607.716 311.243,1608.008 310.446,1608.806 310.154,1609.896 310.446,1610.986 311.243,1611.784 312.333,1612.076"/>
      <polygon points="273.333,1611.628 274.065,1610.896 274.333,1609.896 274.065,1608.896 273.333,1608.164 272.333,1607.896 271.333,1608.164 270.601,1608.896 270.333,1609.896 270.601,1610.896 271.333,1611.628 272.333,1611.896"/>
      <polygon points="333.333,1611.628 334.065,1610.896 334.333,1609.896 334.065,1608.896 333.333,1608.164 332.333,1607.896 331.333,1608.164 330.601,1608.896 330.333,1609.896 330.601,1610.896 331.333,1611.628 332.333,1611.896"/>
      <polygon points="253.333,1611.628 254.065,1610.896 254.333,1609.896 254.065,1608.896 253.333,1608.164 252.333,1607.896 251.333,1608.164 250.601,1608.896 250.333,1609.896 250.601,1610.896 251.333,1611.628 252.333,1611.896"/>
      <polygon points="213.333,1611.628 214.065,1610.896 214.333,1609.896 214.065,1608.896 213.333,1608.164 212.333,1607.896 211.333,1608.164 210.601,1608.896 210.333,1609.896 210.601,1610.896 211.333,1611.628 212.333,1611.896"/>
      <polygon points="353.333,1611.628 354.065,1610.896 354.333,1609.896 354.065,1608.896 353.333,1608.164 352.333,1607.896 351.333,1608.164 350.601,1608.896 350.333,1609.896 350.601,1610.896 351.333,1611.628 352.333,1611.896"/>
      <polygon points="393.333,1611.628 394.065,1610.896 394.333,1609.896 394.065,1608.896 393.333,1608.164 392.333,1607.896 391.333,1608.164 390.601,1608.896 390.333,1609.896 390.601,1610.896 391.333,1611.628 392.333,1611.896"/>
      <polygon points="413.333,1611.628 414.065,1610.896 414.333,1609.896 414.065,1608.896 413.333,1608.164 412.333,1607.896 411.333,1608.164 410.601,1608.896 410.333,1609.896 410.601,1610.896 411.333,1611.628 412.333,1611.896"/>
      <polygon points="233.333,1611.628 234.065,1610.896 234.333,1609.896 234.065,1608.896 233.333,1608.164 232.333,1607.896 231.333,1608.164 230.601,1608.896 230.333,1609.896 230.601,1610.896 231.333,1611.628 232.333,1611.896"/>
      <polygon points="193.333,1611.628 194.065,1610.896 194.333,1609.896 194.065,1608.896 193.333,1608.164 192.333,1607.896 191.333,1608.164 190.601,1608.896 190.333,1609.896 190.601,1610.896 191.333,1611.628 192.333,1611.896"/>
      <polygon points="373.333,1611.628 374.065,1610.896 374.333,1609.896 374.065,1608.896 373.333,1608.164 372.333,1607.896 371.333,1608.164 370.601,1608.896 370.333,1609.896 370.601,1610.896 371.333,1611.628 372.333,1611.896"/>
      <polygon points="293.481,1631.885 294.322,1631.044 294.630,1629.896 294.322,1628.748 293.481,1627.908 292.333,1627.600 291.185,1627.908 290.345,1628.748 290.037,1629.896 290.345,1631.044 291.185,1631.885 292.333,1632.192"/>
      <polygon points="313.423,1631.784 314.221,1630.986 314.513,1629.896 314.221,1628.806 313.423,1628.008 312.333,1627.716 311.243,1628.008 310.446,1628.806 310.154,1629.896 310.446,1630.986 311.243,1631.784 312.333,1632.076"/>
      <polygon points="233.333,1631.628 234.065,1630.896 234.333,1629.896 234.065,1628.896 233.333,1628.164 232.333,1627.896 231.333,1628.164 230.601,1628.896 230.333,1629.896 230.601,1630.896 231.333,1631.628 232.333,1631.896"/>
      <polygon points="253.333,1631.628 254.065,1630.896 254.333,1629.896 254.065,1628.896 253.333,1628.164 252.333,1627.896 251.333,1628.164 250.601,1628.896 250.333,1629.896 250.601,1630.896 251.333,1631.628 252.333,1631.896"/>
      <polygon points="333.333,1631.628 334.065,1630.896 334.333,1629.896 334.065,1628.896 333.333,1628.164 332.333,1627.896 331.333,1628.164 330.601,1628.896 330.333,1629.896 330.601,1630.896 331.333,1631.628 332.333,1631.896"/>
      <polygon points="273.333,1631.628 274.065,1630.896 274.333,1629.896 274.065,1628.896 273.333,1628.164 272.333,1627.896 271.333,1628.164 270.601,1628.896 270.333,1629.896 270.601,1630.896 271.333,1631.628 272.333,1631.896"/>
      <polygon points="373.333,1631.628 374.065,1630.896 374.333,1629.896 374.065,1628.896 373.333,1628.164 372.333,1627.896 371.333,1628.164 370.601,1628.896 370.333,1629.896 370.601,1630.896 371.333,1631.628 372.333,1631.896"/>
      <polygon points="393.333,1631.628 394.065,1630.896 394.333,1629.896 394.065,1628.896 393.333,1628.164 392.333,1627.896 391.333,1628.164 390.601,1628.896 390.333,1629.896 390.601,1630.896 391.333,1631.628 392.333,1631.896"/>
      <polygon points="413.333,1631.628 414.065,1630.896 414.333,1629.896 414.065,1628.896 413.333,1628.164 412.333,1627.896 411.333,1628.164 410.601,1628.896 410.333,1629.896 410.601,1630.896 411.333,1631.628 412.333,1631.896"/>
      <polygon points="353.333,1631.628 354.065,1630.896 354.333,1629.896 354.065,1628.896 353.333,1628.164 352.333,1627.896 351.333,1628.164 350.601,1628.896 350.333,1629.896 350.601,1630.896 351.333,1631.628 352.333,1631.896"/>
      <polygon points="193.333,1631.628 194.065,1630.896 194.333,1629.896 194.065,1628.896 193.333,1628.164 192.333,1627.896 191.333,1628.164 190.601,1628.896 190.333,1629.896 190.601,1630.896 191.333,1631.628 192.333,1631.896"/>
      <polygon points="213.333,1631.628 214.065,1630.896 214.333,1629.896 214.065,1628.896 213.333,1628.164 212.333,1627.896 211.333,1628.164 210.601,1628.896 210.333,1629.896 210.601,1630.896 211.333,1631.628 212.333,1631.896"/>
      <polygon points="293.481,1651.885 294.322,1651.044 294.630,1649.896 294.322,1648.748 293.481,1647.908 292.333,1647.600 291.185,1647.908 290.345,1648.748 290.037,1649.896 290.345,1651.044 291.185,1651.885 292.333,1652.192"/>
      <polygon points="313.423,1651.784 314.221,1650.986 314.513,1649.896 314.221,1648.806 313.423,1648.008 312.333,1647.716 311.243,1648.008 310.446,1648.806 310.154,1649.896 310.446,1650.986 311.243,1651.784 312.333,1652.076"/>
      <polygon points="413.333,1651.628 414.065,1650.896 414.333,1649.896 414.065,1648.896 413.333,1648.164 412.333,1647.896 411.333,1648.164 410.601,1648.896 410.333,1649.896 410.601,1650.896 411.333,1651.628 412.333,1651.896"/>
      <polygon points="333.333,1651.628 334.065,1650.896 334.333,1649.896 334.065,1648.896 333.333,1648.164 332.333,1647.896 331.333,1648.164 330.601,1648.896 330.333,1649.896 330.601,1650.896 331.333,1651.628 332.333,1651.896"/>
      <polygon points="193.333,1651.628 194.065,1650.896 194.333,1649.896 194.065,1648.896 193.333,1648.164 192.333,1647.896 191.333,1648.164 190.601,1648.896 190.333,1649.896 190.601,1650.896 191.333,1651.628 192.333,1651.896"/>
      <polygon points="213.333,1651.628 214.065,1650.896 214.333,1649.896 214.065,1648.896 213.333,1648.164 212.333,1647.896 211.333,1648.164 210.601,1648.896 210.333,1649.896 210.601,1650.896 211.333,1651.628 212.333,1651.896"/>
      <polygon points="253.333,1651.628 254.065,1650.896 254.333,1649.896 254.065,1648.896 253.333,1648.164 252.333,1647.896 251.333,1648.164 250.601,1648.896 250.333,1649.896 250.601,1650.896 251.333,1651.628 252.333,1651.896"/>
      <polygon points="273.333,1651.628 274.065,1650.896 274.333,1649.896 274.065,1648.896 273.333,1648.164 272.333,1647.896 271.333,1648.164 270.601,1648.896 270.333,1649.896 270.601,1650.896 271.333,1651.628 272.333,1651.896"/>
      <polygon points="353.333,1651.628 354.065,1650.896 354.333,1649.896 354.065,1648.896 353.333,1648.164 352.333,1647.896 351.333,1648.164 350.601,1648.896 350.333,1649.896 350.601,1650.896 351.333,1651.628 352.333,1651.896"/>
      <polygon points="373.333,1651.628 374.065,1650.896 374.333,1649.896 374.065,1648.896 373.333,1648.164 372.333,1647.896 371.333,1648.164 370.601,1648.896 370.333,1649.896 370.601,1650.896 371.333,1651.628 372.333,1651.896"/>
      <polygon points="233.333,1651.628 234.065,1650.896 234.333,1649.896 234.065,1648.896 233.333,1648.164 232.333,1647.896 231.333,1648.164 230.601,1648.896 230.333,1649.896 230.601,1650.896 231.333,1651.628 232.333,1651.896"/>
      <polygon points="393.333,1651.628 394.065,1650.896 394.333,1649.896 394.065,1648.896 393.333,1648.164 392.333,1647.896 391.333,1648.164 390.601,1648.896 390.333,1649.896 390.601,1650.896 391.333,1651.628 392.333,1651.896"/>
      <polygon points="293.481,1671.885 294.322,1671.044 294.630,1669.896 294.322,1668.748 293.481,1667.908 292.333,1667.600 291.185,1667.908 290.345,1668.748 290.037,1669.896 290.345,1671.044 291.185,1671.885 292.333,1672.192"/>
      <polygon points="313.423,1671.784 314.221,1670.986 314.513,1669.896 314.221,1668.806 313.423,1668.008 312.333,1667.716 311.243,1668.008 310.446,1668.806 310.154,1669.896 310.446,1670.986 311.243,1671.784 312.333,1672.076"/>
      <polygon points="193.333,1671.628 194.065,1670.896 194.333,1669.896 194.065,1668.896 193.333,1668.164 192.333,1667.896 191.333,1668.164 190.601,1668.896 190.333,1669.896 190.601,1670.896 191.333,1671.628 192.333,1671.896"/>
      <polygon points="213.333,1671.628 214.065,1670.896 214.333,1669.896 214.065,1668.896 213.333,1668.164 212.333,1667.896 211.333,1668.164 210.601,1668.896 210.333,1669.896 210.601,1670.896 211.333,1671.628 212.333,1671.896"/>
      <polygon points="233.333,1671.628 234.065,1670.896 234.333,1669.896 234.065,1668.896 233.333,1668.164 232.333,1667.896 231.333,1668.164 230.601,1668.896 230.333,1669.896 230.601,1670.896 231.333,1671.628 232.333,1671.896"/>
      <polygon points="253.333,1671.628 254.065,1670.896 254.333,1669.896 254.065,1668.896 253.333,1668.164 252.333,1667.896 251.333,1668.164 250.601,1668.896 250.333,1669.896 250.601,1670.896 251.333,1671.628 252.333,1671.896"/>
      <polygon points="273.333,1671.628 274.065,1670.896 274.333,1669.896 274.065,1668.896 273.333,1668.164 272.333,1667.896 271.333,1668.164 270.601,1668.896 270.333,1669.896 270.601,1670.896 271.333,1671.628 272.333,1671.896"/>
      <polygon points="333.333,1671.628 334.065,1670.896 334.333,1669.896 334.065,1668.896 333.333,1668.164 332.333,1667.896 331.333,1668.164 330.601,1668.896 330.333,1669.896 330.601,1670.896 331.333,1671.628 332.333,1671.896"/>
      <polygon points="353.333,1671.628 354.065,1670.896 354.333,1669.896 354.065,1668.896 353.333,1668.164 352.333,1667.896 351.333,1668.164 350.601,1668.896 350.333,1669.896 350.601,1670.896 351.333,1671.628 352.333,1671.896"/>
      <polygon points="373.333,1671.628 374.065,1670.896 374.333,1669.896 374.065,1668.896 373.333,1668.164 372.333,1667.896 371.333,1668.164 370.601,1668.896 370.333,1669.896 370.601,1670.896 371.333,1671.628 372.333,1671.896"/>
      <polygon points="393.333,1671.628 394.065,1670.896 394.333,1669.896 394.065,1668.896 393.333,1668.164 392.333,1667.896 391.333,1668.164 390.601,1668.896 390.333,1669.896 390.601,1670.896 391.333,1671.628 392.333,1671.896"/>
      <polygon points="413.333,1671.628 414.065,1670.896 414.333,1669.896 414.065,1668.896 413.333,1668.164 412.333,1667.896 411.333,1668.164 410.601,1668.896 410.333,1669.896 410.601,1670.896 411.333,1671.628 412.333,1671.896"/>
    </g>
    <g stroke="#EF6C00" stroke-width="0.4" fill="none">
    </g>
  </g>
  <g stroke="#000000" stroke-width="0.4">
    <line x1="500.000" y1="1000.000" x2="1500.000" y2="1000.000"/>
  </g>
  <g stroke="#000000" stroke-width="0.4">
    <line x1="1000.000" y1="500.000" x2="1000.000" y2="1500.000"/>
  </g>
  <circle cx="1000.000" cy="1000.000" r="1000.000" stroke="red" stroke-width="1" fill="none"/>
  </g>
</svg>
