<?xml version="1.0" encoding="UTF-8"?>
<svg xmlns="http://www.w3.org/2000/svg" version="1.1" width="2000" height="2000">
  <g fill="none" stroke-linecap="round" stroke-linejoin="round">
  <text x="10" y="20" font-size="24" fill="#555">Layer 198 Z=51.600 mm</text>
  <g transform="translate(700.000,-602.229)">
    <g stroke="#2E7D32" stroke-width="0.4">
      <line x1="526.588" y1="1679.230" x2="526.588" y2="1629.230"/>
      <line x1="527.588" y1="1679.230" x2="527.588" y2="1629.230"/>
      <line x1="528.588" y1="1679.230" x2="528.588" y2="1629.230"/>
      <line x1="529.588" y1="1679.230" x2="529.588" y2="1629.230"/>
      <line x1="530.588" y1="1679.230" x2="530.588" y2="1629.230"/>
      <line x1="531.588" y1="1679.230" x2="531.588" y2="1629.230"/>
      <line x1="532.588" y1="1679.230" x2="532.588" y2="1629.230"/>
      <line x1="533.588" y1="1679.230" x2="533.588" y2="1629.230"/>
      <line x1="534.588" y1="1679.230" x2="534.588" y2="1629.230"/>
      <line x1="535.588" y1="1679.230" x2="535.588" y2="1629.230"/>
      <line x1="536.588" y1="1679.230" x2="536.588" y2="1629.230"/>
      <line x1="537.588" y1="1679.230" x2="537.588" y2="1629.230"/>
      <line x1="538.588" y1="1679.230" x2="538.588" y2="1629.230"/>
      <line x1="539.588" y1="1679.230" x2="539.588" y2="1629.230"/>
      <line x1="540.588" y1="1679.230" x2="540.588" y2="1629.230"/>
      <line x1="541.588" y1="1679.230" x2="541.588" y2="1629.230"/>
      <line x1="542.588" y1="1679.230" x2="542.588" y2="1629.230"/>
      <line x1="543.588" y1="1679.230" x2="543.588" y2="1629.230"/>
      <line x1="544.588" y1="1679.230" x2="544.588" y2="1629.230"/>
      <line x1="545.588" y1="1679.230" x2="545.588" y2="1629.230"/>
      <line x1="546.588" y1="1679.230" x2="546.588" y2="1629.230"/>
      <line x1="547.588" y1="1679.230" x2="547.588" y2="1629.230"/>
      <line x1="548.588" y1="1679.230" x2="548.588" y2="1629.230"/>
      <line x1="549.588" y1="1679.230" x2="549.588" y2="1629.230"/>
      <line x1="550.588" y1="1679.230" x2="550.588" y2="1629.230"/>
      <line x1="551.588" y1="1679.230" x2="551.588" y2="1629.230"/>
      <line x1="552.588" y1="1679.230" x2="552.588" y2="1629.230"/>
      <line x1="553.588" y1="1679.230" x2="553.588" y2="1629.230"/>
      <line x1="554.588" y1="1679.230" x2="554.588" y2="1629.230"/>
      <line x1="555.588" y1="1679.230" x2="555.588" y2="1629.230"/>
      <line x1="556.588" y1="1679.230" x2="556.588" y2="1629.230"/>
      <line x1="557.588" y1="1679.230" x2="557.588" y2="1629.230"/>
      <line x1="558.588" y1="1679.230" x2="558.588" y2="1629.230"/>
      <line x1="559.588" y1="1679.230" x2="559.588" y2="1629.230"/>
      <line x1="560.588" y1="1679.230" x2="560.588" y2="1629.230"/>
      <line x1="561.588" y1="1679.230" x2="561.588" y2="1629.230"/>
      <line x1="562.588" y1="1679.230" x2="562.588" y2="1629.230"/>
      <line x1="563.588" y1="1679.230" x2="563.588" y2="1629.230"/>
      <line x1="564.588" y1="1679.230" x2="564.588" y2="1629.230"/>
      <line x1="565.588" y1="1679.230" x2="565.588" y2="1629.230"/>
      <line x1="566.588" y1="1679.230" x2="566.588" y2="1629.230"/>
      <line x1="567.588" y1="1679.230" x2="567.588" y2="1629.230"/>
      <line x1="568.588" y1="1679.230" x2="568.588" y2="1629.230"/>
      <line x1="569.588" y1="1679.230" x2="569.588" y2="1629.230"/>
      <line x1="570.588" y1="1679.230" x2="570.588" y2="1629.230"/>
      <line x1="571.588" y1="1679.230" x2="571.588" y2="1629.230"/>
      <line x1="572.588" y1="1679.230" x2="572.588" y2="1629.230"/>
      <line x1="573.588" y1="1679.230" x2="573.588" y2="1629.230"/>
      <line x1="574.588" y1="1679.230" x2="574.588" y2="1629.230"/>
      <line x1="575.588" y1="1679.230" x2="575.588" y2="1629.230"/>
      <line x1="576.588" y1="1679.230" x2="576.588" y2="1629.230"/>
      <line x1="577.588" y1="1679.230" x2="577.588" y2="1629.230"/>
      <line x1="578.588" y1="1679.230" x2="578.588" y2="1629.230"/>
      <line x1="579.588" y1="1679.230" x2="579.588" y2="1629.230"/>
      <line x1="580.588" y1="1679.230" x2="580.588" y2="1629.230"/>
      <line x1="581.588" y1="1679.230" x2="581.588" y2="1629.230"/>
      <line x1="582.588" y1="1679.230" x2="582.588" y2="1629.230"/>
      <line x1="583.588" y1="1679.230" x2="583.588" y2="1629.230"/>
      <line x1="584.588" y1="1679.230" x2="584.588" y2="1629.230"/>
      <line x1="585.588" y1="1679.230" x2="585.588" y2="1629.230"/>
      <line x1="586.588" y1="1679.230" x2="586.588" y2="1629.230"/>
      <line x1="587.588" y1="1679.230" x2="587.588" y2="1629.230"/>
      <line x1="588.588" y1="1679.230" x2="588.588" y2="1629.230"/>
      <line x1="589.588" y1="1679.230" x2="589.588" y2="1629.230"/>
      <line x1="590.588" y1="1679.230" x2="590.588" y2="1629.230"/>
      <line x1="591.588" y1="1679.230" x2="591.588" y2="1629.230"/>
      <line x1="592.588" y1="1679.230" x2="592.588" y2="1629.230"/>
      <line x1="593.588" y1="1679.230" x2="593.588" y2="1629.230"/>
      <line x1="594.588" y1="1679.230" x2="594.588" y2="1629.230"/>
      <line x1="595.588" y1="1679.230" x2="595.588" y2="1629.230"/>
      <line x1="596.588" y1="1679.230" x2="596.588" y2="1629.230"/>
      <line x1="526.588" y1="1629.130" x2="526.588" y2="1579.130"/>
      <line x1="527.588" y1="1629.130" x2="527.588" y2="1579.130"/>
      <line x1="528.588" y1="1629.130" x2="528.588" y2="1579.130"/>
      <line x1="529.588" y1="1629.130" x2="529.588" y2="1579.130"/>
      <line x1="530.588" y1="1629.130" x2="530.588" y2="1579.130"/>
      <line x1="531.588" y1="1629.130" x2="531.588" y2="1579.130"/>
      <line x1="532.588" y1="1629.130" x2="532.588" y2="1579.130"/>
      <line x1="533.588" y1="1629.130" x2="533.588" y2="1579.130"/>
      <line x1="534.588" y1="1629.130" x2="534.588" y2="1579.130"/>
      <line x1="535.588" y1="1629.130" x2="535.588" y2="1579.130"/>
      <line x1="536.588" y1="1629.130" x2="536.588" y2="1579.130"/>
      <line x1="537.588" y1="1629.130" x2="537.588" y2="1579.130"/>
      <line x1="538.588" y1="1629.130" x2="538.588" y2="1579.130"/>
      <line x1="539.588" y1="1629.130" x2="539.588" y2="1579.130"/>
      <line x1="540.588" y1="1629.130" x2="540.588" y2="1579.130"/>
      <line x1="541.588" y1="1629.130" x2="541.588" y2="1579.130"/>
      <line x1="542.588" y1="1629.130" x2="542.588" y2="1579.130"/>
      <line x1="543.588" y1="1629.130" x2="543.588" y2="1579.130"/>
      <line x1="544.588" y1="1629.130" x2="544.588" y2="1579.130"/>
      <line x1="545.588" y1="1629.130" x2="545.588" y2="1579.130"/>
      <line x1="546.588" y1="1629.130" x2="546.588" y2="1579.130"/>
      <line x1="547.588" y1="1629.130" x2="547.588" y2="1579.130"/>
      <line x1="548.588" y1="1629.130" x2="548.588" y2="1579.130"/>
      <line x1="549.588" y1="1629.130" x2="549.588" y2="1579.130"/>
      <line x1="550.588" y1="1629.130" x2="550.588" y2="1579.130"/>
      <line x1="551.588" y1="1629.130" x2="551.588" y2="1579.130"/>
      <line x1="552.588" y1="1629.130" x2="552.588" y2="1579.130"/>
      <line x1="553.588" y1="1629.130" x2="553.588" y2="1579.130"/>
      <line x1="554.588" y1="1629.130" x2="554.588" y2="1579.130"/>
      <line x1="555.588" y1="1629.130" x2="555.588" y2="1579.130"/>
      <line x1="556.588" y1="1629.130" x2="556.588" y2="1579.130"/>
      <line x1="557.588" y1="1629.130" x2="557.588" y2="1579.130"/>
      <line x1="558.588" y1="1629.130" x2="558.588" y2="1579.130"/>
      <line x1="559.588" y1="1629.130" x2="559.588" y2="1579.130"/>
      <line x1="560.588" y1="1629.130" x2="560.588" y2="1579.130"/>
      <line x1="561.588" y1="1629.130" x2="561.588" y2="1579.130"/>
      <line x1="562.588" y1="1629.130" x2="562.588" y2="1579.130"/>
      <line x1="563.588" y1="1629.130" x2="563.588" y2="1579.130"/>
      <line x1="564.588" y1="1629.130" x2="564.588" y2="1579.130"/>
      <line x1="565.588" y1="1629.130" x2="565.588" y2="1579.130"/>
      <line x1="566.588" y1="1629.130" x2="566.588" y2="1579.130"/>
      <line x1="567.588" y1="1629.130" x2="567.588" y2="1579.130"/>
      <line x1="568.588" y1="1629.130" x2="568.588" y2="1579.130"/>
      <line x1="569.588" y1="1629.130" x2="569.588" y2="1579.130"/>
      <line x1="570.588" y1="1629.130" x2="570.588" y2="1579.130"/>
      <line x1="571.588" y1="1629.130" x2="571.588" y2="1579.130"/>
      <line x1="572.588" y1="1629.130" x2="572.588" y2="1579.130"/>
      <line x1="573.588" y1="1629.130" x2="573.588" y2="1579.130"/>
      <line x1="574.588" y1="1629.130" x2="574.588" y2="1579.130"/>
      <line x1="575.588" y1="1629.130" x2="575.588" y2="1579.130"/>
      <line x1="576.588" y1="1629.130" x2="576.588" y2="1579.130"/>
      <line x1="577.588" y1="1629.130" x2="577.588" y2="1579.130"/>
      <line x1="578.588" y1="1629.130" x2="578.588" y2="1579.130"/>
      <line x1="579.588" y1="1629.130" x2="579.588" y2="1579.130"/>
      <line x1="580.588" y1="1629.130" x2="580.588" y2="1579.130"/>
      <line x1="581.588" y1="1629.130" x2="581.588" y2="1579.130"/>
      <line x1="582.588" y1="1629.130" x2="582.588" y2="1579.130"/>
      <line x1="583.588" y1="1629.130" x2="583.588" y2="1579.130"/>
      <line x1="584.588" y1="1629.130" x2="584.588" y2="1579.130"/>
      <line x1="585.588" y1="1629.130" x2="585.588" y2="1579.130"/>
      <line x1="586.588" y1="1629.130" x2="586.588" y2="1579.130"/>
      <line x1="587.588" y1="1629.130" x2="587.588" y2="1579.130"/>
      <line x1="588.588" y1="1629.130" x2="588.588" y2="1579.130"/>
      <line x1="589.588" y1="1629.130" x2="589.588" y2="1579.130"/>
      <line x1="590.588" y1="1629.130" x2="590.588" y2="1579.130"/>
      <line x1="591.588" y1="1629.130" x2="591.588" y2="1579.130"/>
      <line x1="592.588" y1="1629.130" x2="592.588" y2="1579.130"/>
      <line x1="593.588" y1="1629.130" x2="593.588" y2="1579.130"/>
      <line x1="594.588" y1="1629.130" x2="594.588" y2="1579.130"/>
      <line x1="595.588" y1="1629.130" x2="595.588" y2="1579.130"/>
      <line x1="596.588" y1="1629.130" x2="596.588" y2="1579.130"/>
      <line x1="526.588" y1="1579.030" x2="526.588" y2="1529.030"/>
      <line x1="527.588" y1="1579.030" x2="527.588" y2="1529.030"/>
      <line x1="528.588" y1="1579.030" x2="528.588" y2="1529.030"/>
      <line x1="529.588" y1="1579.030" x2="529.588" y2="1529.030"/>
      <line x1="530.588" y1="1579.030" x2="530.588" y2="1529.030"/>
      <line x1="531.588" y1="1579.030" x2="531.588" y2="1529.030"/>
      <line x1="532.588" y1="1579.030" x2="532.588" y2="1529.030"/>
      <line x1="533.588" y1="1579.030" x2="533.588" y2="1529.030"/>
      <line x1="534.588" y1="1579.030" x2="534.588" y2="1529.030"/>
      <line x1="535.588" y1="1579.030" x2="535.588" y2="1529.030"/>
      <line x1="536.588" y1="1579.030" x2="536.588" y2="1529.030"/>
      <line x1="537.588" y1="1579.030" x2="537.588" y2="1529.030"/>
      <line x1="538.588" y1="1579.030" x2="538.588" y2="1529.030"/>
      <line x1="539.588" y1="1579.030" x2="539.588" y2="1529.030"/>
      <line x1="540.588" y1="1579.030" x2="540.588" y2="1529.030"/>
      <line x1="541.588" y1="1579.030" x2="541.588" y2="1529.030"/>
      <line x1="542.588" y1="1579.030" x2="542.588" y2="1529.030"/>
      <line x1="543.588" y1="1579.030" x2="543.588" y2="1529.030"/>
      <line x1="544.588" y1="1579.030" x2="544.588" y2="1529.030"/>
      <line x1="545.588" y1="1579.030" x2="545.588" y2="1529.030"/>
      <line x1="546.588" y1="1579.030" x2="546.588" y2="1529.030"/>
      <line x1="547.588" y1="1579.030" x2="547.588" y2="1529.030"/>
      <line x1="548.588" y1="1579.030" x2="548.588" y2="1529.030"/>
      <line x1="549.588" y1="1579.030" x2="549.588" y2="1529.030"/>
      <line x1="550.588" y1="1579.030" x2="550.588" y2="1529.030"/>
      <line x1="551.588" y1="1579.030" x2="551.588" y2="1529.030"/>
      <line x1="552.588" y1="1579.030" x2="552.588" y2="1529.030"/>
      <line x1="553.588" y1="1579.030" x2="553.588" y2="1529.030"/>
      <line x1="554.588" y1="1579.030" x2="554.588" y2="1529.030"/>
      <line x1="555.588" y1="1579.030" x2="555.588" y2="1529.030"/>
      <line x1="556.588" y1="1579.030" x2="556.588" y2="1529.030"/>
      <line x1="557.588" y1="1579.030" x2="557.588" y2="1529.030"/>
      <line x1="558.588" y1="1579.030" x2="558.588" y2="1529.030"/>
      <line x1="559.588" y1="1579.030" x2="559.588" y2="1529.030"/>
      <line x1="560.588" y1="1579.030" x2="560.588" y2="1529.030"/>
      <line x1="561.588" y1="1579.030" x2="561.588" y2="1529.030"/>
      <line x1="562.588" y1="1579.030" x2="562.588" y2="1529.030"/>
      <line x1="563.588" y1="1579.030" x2="563.588" y2="1529.030"/>
      <line x1="564.588" y1="1579.030" x2="564.588" y2="1529.030"/>
      <line x1="565.588" y1="1579.030" x2="565.588" y2="1529.030"/>
      <line x1="566.588" y1="1579.030" x2="566.588" y2="1529.030"/>
      <line x1="567.588" y1="1579.030" x2="567.588" y2="1529.030"/>
      <line x1="568.588" y1="1579.030" x2="568.588" y2="1529.030"/>
      <line x1="569.588" y1="1579.030" x2="569.588" y2="1529.030"/>
      <line x1="570.588" y1="1579.030" x2="570.588" y2="1529.030"/>
      <line x1="571.588" y1="1579.030" x2="571.588" y2="1529.030"/>
      <line x1="572.588" y1="1579.030" x2="572.588" y2="1529.030"/>
      <line x1="573.588" y1="1579.030" x2="573.588" y2="1529.030"/>
      <line x1="574.588" y1="1579.030" x2="574.588" y2="1529.030"/>
      <line x1="575.588" y1="1579.030" x2="575.588" y2="1529.030"/>
      <line x1="576.588" y1="1579.030" x2="576.588" y2="1529.030"/>
      <line x1="577.588" y1="1579.030" x2="577.588" y2="1529.030"/>
      <line x1="578.588" y1="1579.030" x2="578.588" y2="1529.030"/>
      <line x1="579.588" y1="1579.030" x2="579.588" y2="1529.030"/>
      <line x1="580.588" y1="1579.030" x2="580.588" y2="1529.030"/>
      <line x1="581.588" y1="1579.030" x2="581.588" y2="1529.030"/>
      <line x1="582.588" y1="1579.030" x2="582.588" y2="1529.030"/>
      <line x1="583.588" y1="1579.030" x2="583.588" y2="1529.030"/>
      <line x1="584.588" y1="1579.030" x2="584.588" y2="1529.030"/>
      <line x1="585.588" y1="1579.030" x2="585.588" y2="1529.030"/>
      <line x1="586.588" y1="1579.030" x2="586.588" y2="1529.030"/>
      <line x1="587.588" y1="1579.030" x2="587.588" y2="1529.030"/>
      <line x1="588.588" y1="1579.030" x2="588.588" y2="1529.030"/>
      <line x1="589.588" y1="1579.030" x2="589.588" y2="1529.030"/>
      <line x1="590.588" y1="1579.030" x2="590.588" y2="1529.030"/>
      <line x1="591.588" y1="1579.030" x2="591.588" y2="1529.030"/>
      <line x1="592.588" y1="1579.030" x2="592.588" y2="1529.030"/>
      <line x1="593.588" y1="1579.030" x2="593.588" y2="1529.030"/>
      <line x1="594.588" y1="1579.030" x2="594.588" y2="1529.030"/>
      <line x1="595.588" y1="1579.030" x2="595.588" y2="1529.030"/>
      <line x1="596.588" y1="1579.030" x2="596.588" y2="1529.030"/>
      <line x1="547.588" y1="1528.930" x2="547.588" y2="1525.229"/>
      <line x1="527.588" y1="1528.930" x2="527.588" y2="1525.229"/>
      <line x1="526.588" y1="1528.930" x2="526.588" y2="1525.229"/>
      <line x1="530.588" y1="1528.930" x2="530.588" y2="1525.229"/>
      <line x1="529.588" y1="1528.930" x2="529.588" y2="1525.229"/>
      <line x1="533.588" y1="1528.930" x2="533.588" y2="1525.229"/>
      <line x1="532.588" y1="1528.930" x2="532.588" y2="1525.229"/>
      <line x1="538.588" y1="1528.930" x2="538.588" y2="1525.229"/>
      <line x1="546.588" y1="1528.930" x2="546.588" y2="1525.229"/>
      <line x1="548.588" y1="1528.930" x2="548.588" y2="1525.229"/>
      <line x1="543.588" y1="1528.930" x2="543.588" y2="1525.229"/>
      <line x1="540.588" y1="1528.930" x2="540.588" y2="1525.229"/>
      <line x1="535.588" y1="1528.930" x2="535.588" y2="1525.229"/>
      <line x1="544.588" y1="1528.930" x2="544.588" y2="1525.229"/>
      <line x1="541.588" y1="1528.930" x2="541.588" y2="1525.229"/>
      <line x1="528.588" y1="1528.930" x2="528.588" y2="1525.229"/>
      <line x1="545.588" y1="1528.930" x2="545.588" y2="1525.229"/>
      <line x1="542.588" y1="1528.930" x2="542.588" y2="1525.229"/>
      <line x1="539.588" y1="1528.930" x2="539.588" y2="1525.229"/>
      <line x1="536.588" y1="1528.930" x2="536.588" y2="1525.229"/>
      <line x1="537.588" y1="1528.930" x2="537.588" y2="1525.229"/>
      <line x1="534.588" y1="1528.930" x2="534.588" y2="1525.229"/>
      <line x1="531.588" y1="1528.930" x2="531.588" y2="1525.229"/>
      <line x1="562.588" y1="1528.930" x2="562.588" y2="1525.229"/>
      <line x1="549.588" y1="1528.930" x2="549.588" y2="1525.229"/>
      <line x1="550.588" y1="1528.930" x2="550.588" y2="1525.229"/>
      <line x1="551.588" y1="1528.930" x2="551.588" y2="1525.229"/>
      <line x1="552.588" y1="1528.930" x2="552.588" y2="1525.229"/>
      <line x1="553.588" y1="1528.930" x2="553.588" y2="1525.229"/>
      <line x1="554.588" y1="1528.930" x2="554.588" y2="1525.229"/>
      <line x1="555.588" y1="1528.930" x2="555.588" y2="1525.229"/>
      <line x1="556.588" y1="1528.930" x2="556.588" y2="1525.229"/>
      <line x1="557.588" y1="1528.930" x2="557.588" y2="1525.229"/>
      <line x1="558.588" y1="1528.930" x2="558.588" y2="1525.229"/>
      <line x1="559.588" y1="1528.930" x2="559.588" y2="1525.229"/>
      <line x1="560.588" y1="1528.930" x2="560.588" y2="1525.229"/>
      <line x1="561.588" y1="1528.930" x2="561.588" y2="1525.229"/>
      <line x1="563.588" y1="1528.930" x2="563.588" y2="1525.229"/>
      <line x1="564.588" y1="1528.930" x2="564.588" y2="1525.229"/>
      <line x1="565.588" y1="1528.930" x2="565.588" y2="1525.229"/>
      <line x1="566.588" y1="1528.930" x2="566.588" y2="1525.229"/>
      <line x1="567.588" y1="1528.930" x2="567.588" y2="1525.229"/>
      <line x1="568.588" y1="1528.930" x2="568.588" y2="1525.229"/>
      <line x1="569.588" y1="1528.930" x2="569.588" y2="1525.229"/>
      <line x1="570.588" y1="1528.930" x2="570.588" y2="1525.229"/>
      <line x1="571.588" y1="1528.930" x2="571.588" y2="1525.229"/>
      <line x1="572.588" y1="1528.930" x2="572.588" y2="1525.229"/>
      <line x1="573.588" y1="1528.930" x2="573.588" y2="1525.229"/>
      <line x1="574.588" y1="1528.930" x2="574.588" y2="1525.229"/>
      <line x1="575.588" y1="1528.930" x2="575.588" y2="1525.229"/>
      <line x1="590.588" y1="1528.930" x2="590.588" y2="1525.229"/>
      <line x1="577.588" y1="1528.930" x2="577.588" y2="1525.229"/>
      <line x1="578.588" y1="1528.930" x2="578.588" y2="1525.229"/>
      <line x1="579.588" y1="1528.930" x2="579.588" y2="1525.229"/>
      <line x1="580.588" y1="1528.930" x2="580.588" y2="1525.229"/>
      <line x1="581.588" y1="1528.930" x2="581.588" y2="1525.229"/>
      <line x1="582.588" y1="1528.930" x2="582.588" y2="1525.229"/>
      <line x1="583.588" y1="1528.930" x2="583.588" y2="1525.229"/>
      <line x1="584.588" y1="1528.930" x2="584.588" y2="1525.229"/>
      <line x1="585.588" y1="1528.930" x2="585.588" y2="1525.229"/>
      <line x1="586.588" y1="1528.930" x2="586.588" y2="1525.229"/>
      <line x1="587.588" y1="1528.930" x2="587.588" y2="1525.229"/>
      <line x1="588.588" y1="1528.930" x2="588.588" y2="1525.229"/>
      <line x1="589.588" y1="1528.930" x2="589.588" y2="1525.229"/>
      <line x1="591.588" y1="1528.930" x2="591.588" y2="1525.229"/>
      <line x1="592.588" y1="1528.930" x2="592.588" y2="1525.229"/>
      <line x1="593.588" y1="1528.930" x2="593.588" y2="1525.229"/>
      <line x1="594.588" y1="1528.930" x2="594.588" y2="1525.229"/>
      <line x1="595.588" y1="1528.930" x2="595.588" y2="1525.229"/>
      <line x1="596.588" y1="1528.930" x2="596.588" y2="1525.229"/>
      <line x1="576.588" y1="1528.930" x2="576.588" y2="1525.229"/>
      <line x1="3.378" y1="1679.230" x2="3.378" y2="1629.230"/>
      <line x1="4.378" y1="1679.230" x2="4.378" y2="1629.230"/>
      <line x1="5.378" y1="1679.230" x2="5.378" y2="1629.230"/>
      <line x1="6.378" y1="1679.230" x2="6.378" y2="1629.230"/>
      <line x1="7.378" y1="1679.230" x2="7.378" y2="1629.230"/>
      <line x1="8.378" y1="1679.230" x2="8.378" y2="1629.230"/>
      <line x1="9.378" y1="1679.230" x2="9.378" y2="1629.230"/>
      <line x1="10.378" y1="1679.230" x2="10.378" y2="1629.230"/>
      <line x1="11.378" y1="1679.230" x2="11.378" y2="1629.230"/>
      <line x1="12.378" y1="1679.230" x2="12.378" y2="1629.230"/>
      <line x1="13.378" y1="1679.230" x2="13.378" y2="1629.230"/>
      <line x1="14.378" y1="1679.230" x2="14.378" y2="1629.230"/>
      <line x1="15.378" y1="1679.230" x2="15.378" y2="1629.230"/>
      <line x1="16.378" y1="1679.230" x2="16.378" y2="1629.230"/>
      <line x1="17.378" y1="1679.230" x2="17.378" y2="1629.230"/>
      <line x1="18.378" y1="1679.230" x2="18.378" y2="1629.230"/>
      <line x1="19.378" y1="1679.230" x2="19.378" y2="1629.230"/>
      <line x1="20.378" y1="1679.230" x2="20.378" y2="1629.230"/>
      <line x1="21.378" y1="1679.230" x2="21.378" y2="1629.230"/>
      <line x1="22.378" y1="1679.230" x2="22.378" y2="1629.230"/>
      <line x1="23.378" y1="1679.230" x2="23.378" y2="1629.230"/>
      <line x1="24.378" y1="1679.230" x2="24.378" y2="1629.230"/>
      <line x1="25.378" y1="1679.230" x2="25.378" y2="1629.230"/>
      <line x1="26.378" y1="1679.230" x2="26.378" y2="1629.230"/>
      <line x1="27.378" y1="1679.230" x2="27.378" y2="1629.230"/>
      <line x1="28.378" y1="1679.230" x2="28.378" y2="1629.230"/>
      <line x1="29.378" y1="1679.230" x2="29.378" y2="1629.230"/>
      <line x1="30.378" y1="1679.230" x2="30.378" y2="1629.230"/>
      <line x1="31.378" y1="1679.230" x2="31.378" y2="1629.230"/>
      <line x1="32.378" y1="1679.230" x2="32.378" y2="1629.230"/>
      <line x1="33.378" y1="1679.230" x2="33.378" y2="1629.230"/>
      <line x1="34.378" y1="1679.230" x2="34.378" y2="1629.230"/>
      <line x1="35.378" y1="1679.230" x2="35.378" y2="1629.230"/>
      <line x1="36.378" y1="1679.230" x2="36.378" y2="1629.230"/>
      <line x1="37.378" y1="1679.230" x2="37.378" y2="1629.230"/>
      <line x1="38.378" y1="1679.230" x2="38.378" y2="1629.230"/>
      <line x1="39.378" y1="1679.230" x2="39.378" y2="1629.230"/>
      <line x1="40.378" y1="1679.230" x2="40.378" y2="1629.230"/>
      <line x1="41.378" y1="1679.230" x2="41.378" y2="1629.230"/>
      <line x1="42.378" y1="1679.230" x2="42.378" y2="1629.230"/>
      <line x1="43.378" y1="1679.230" x2="43.378" y2="1629.230"/>
      <line x1="44.378" y1="1679.230" x2="44.378" y2="1629.230"/>
      <line x1="45.378" y1="1679.230" x2="45.378" y2="1629.230"/>
      <line x1="46.378" y1="1679.230" x2="46.378" y2="1629.230"/>
      <line x1="47.378" y1="1679.230" x2="47.378" y2="1629.230"/>
      <line x1="48.378" y1="1679.230" x2="48.378" y2="1629.230"/>
      <line x1="49.378" y1="1679.230" x2="49.378" y2="1629.230"/>
      <line x1="50.378" y1="1679.230" x2="50.378" y2="1629.230"/>
      <line x1="51.378" y1="1679.230" x2="51.378" y2="1629.230"/>
      <line x1="52.378" y1="1679.230" x2="52.378" y2="1629.230"/>
      <line x1="53.378" y1="1679.230" x2="53.378" y2="1629.230"/>
      <line x1="54.378" y1="1679.230" x2="54.378" y2="1629.230"/>
      <line x1="55.378" y1="1679.230" x2="55.378" y2="1629.230"/>
      <line x1="56.378" y1="1679.230" x2="56.378" y2="1629.230"/>
      <line x1="57.378" y1="1679.230" x2="57.378" y2="1629.230"/>
      <line x1="58.378" y1="1679.230" x2="58.378" y2="1629.230"/>
      <line x1="59.378" y1="1679.230" x2="59.378" y2="1629.230"/>
      <line x1="60.378" y1="1679.230" x2="60.378" y2="1629.230"/>
      <line x1="61.378" y1="1679.230" x2="61.378" y2="1629.230"/>
      <line x1="62.378" y1="1679.230" x2="62.378" y2="1629.230"/>
      <line x1="63.378" y1="1679.230" x2="63.378" y2="1629.230"/>
      <line x1="64.378" y1="1679.230" x2="64.378" y2="1629.230"/>
      <line x1="65.378" y1="1679.230" x2="65.378" y2="1629.230"/>
      <line x1="66.378" y1="1679.230" x2="66.378" y2="1629.230"/>
      <line x1="67.378" y1="1679.230" x2="67.378" y2="1629.230"/>
      <line x1="68.378" y1="1679.230" x2="68.378" y2="1629.230"/>
      <line x1="69.378" y1="1679.230" x2="69.378" y2="1629.230"/>
      <line x1="70.378" y1="1679.230" x2="70.378" y2="1629.230"/>
      <line x1="71.378" y1="1679.230" x2="71.378" y2="1629.230"/>
      <line x1="72.378" y1="1679.230" x2="72.378" y2="1629.230"/>
      <line x1="73.378" y1="1679.230" x2="73.378" y2="1629.230"/>
      <line x1="3.378" y1="1629.130" x2="3.378" y2="1579.130"/>
      <line x1="4.378" y1="1629.130" x2="4.378" y2="1579.130"/>
      <line x1="5.378" y1="1629.130" x2="5.378" y2="1579.130"/>
      <line x1="6.378" y1="1629.130" x2="6.378" y2="1579.130"/>
      <line x1="7.378" y1="1629.130" x2="7.378" y2="1579.130"/>
      <line x1="8.378" y1="1629.130" x2="8.378" y2="1579.130"/>
      <line x1="9.378" y1="1629.130" x2="9.378" y2="1579.130"/>
      <line x1="10.378" y1="1629.130" x2="10.378" y2="1579.130"/>
      <line x1="11.378" y1="1629.130" x2="11.378" y2="1579.130"/>
      <line x1="12.378" y1="1629.130" x2="12.378" y2="1579.130"/>
      <line x1="13.378" y1="1629.130" x2="13.378" y2="1579.130"/>
      <line x1="14.378" y1="1629.130" x2="14.378" y2="1579.130"/>
      <line x1="15.378" y1="1629.130" x2="15.378" y2="1579.130"/>
      <line x1="16.378" y1="1629.130" x2="16.378" y2="1579.130"/>
      <line x1="17.378" y1="1629.130" x2="17.378" y2="1579.130"/>
      <line x1="18.378" y1="1629.130" x2="18.378" y2="1579.130"/>
      <line x1="19.378" y1="1629.130" x2="19.378" y2="1579.130"/>
      <line x1="20.378" y1="1629.130" x2="20.378" y2="1579.130"/>
      <line x1="21.378" y1="1629.130" x2="21.378" y2="1579.130"/>
      <line x1="22.378" y1="1629.130" x2="22.378" y2="1579.130"/>
      <line x1="23.378" y1="1629.130" x2="23.378" y2="1579.130"/>
      <line x1="24.378" y1="1629.130" x2="24.378" y2="1579.130"/>
      <line x1="25.378" y1="1629.130" x2="25.378" y2="1579.130"/>
      <line x1="26.378" y1="1629.130" x2="26.378" y2="1579.130"/>
      <line x1="27.378" y1="1629.130" x2="27.378" y2="1579.130"/>
      <line x1="28.378" y1="1629.130" x2="28.378" y2="1579.130"/>
      <line x1="29.378" y1="1629.130" x2="29.378" y2="1579.130"/>
      <line x1="30.378" y1="1629.130" x2="30.378" y2="1579.130"/>
      <line x1="31.378" y1="1629.130" x2="31.378" y2="1579.130"/>
      <line x1="32.378" y1="1629.130" x2="32.378" y2="1579.130"/>
      <line x1="33.378" y1="1629.130" x2="33.378" y2="1579.130"/>
      <line x1="34.378" y1="1629.130" x2="34.378" y2="1579.130"/>
      <line x1="35.378" y1="1629.130" x2="35.378" y2="1579.130"/>
      <line x1="36.378" y1="1629.130" x2="36.378" y2="1579.130"/>
      <line x1="37.378" y1="1629.130" x2="37.378" y2="1579.130"/>
      <line x1="38.378" y1="1629.130" x2="38.378" y2="1579.130"/>
      <line x1="39.378" y1="1629.130" x2="39.378" y2="1579.130"/>
      <line x1="40.378" y1="1629.130" x2="40.378" y2="1579.130"/>
      <line x1="41.378" y1="1629.130" x2="41.378" y2="1579.130"/>
      <line x1="42.378" y1="1629.130" x2="42.378" y2="1579.130"/>
      <line x1="43.378" y1="1629.130" x2="43.378" y2="1579.130"/>
      <line x1="44.378" y1="1629.130" x2="44.378" y2="1579.130"/>
      <line x1="45.378" y1="1629.130" x2="45.378" y2="1579.130"/>
      <line x1="46.378" y1="1629.130" x2="46.378" y2="1579.130"/>
      <line x1="47.378" y1="1629.130" x2="47.378" y2="1579.130"/>
      <line x1="48.378" y1="1629.130" x2="48.378" y2="1579.130"/>
      <line x1="49.378" y1="1629.130" x2="49.378" y2="1579.130"/>
      <line x1="50.378" y1="1629.130" x2="50.378" y2="1579.130"/>
      <line x1="51.378" y1="1629.130" x2="51.378" y2="1579.130"/>
      <line x1="52.378" y1="1629.130" x2="52.378" y2="1579.130"/>
      <line x1="53.378" y1="1629.130" x2="53.378" y2="1579.130"/>
      <line x1="54.378" y1="1629.130" x2="54.378" y2="1579.130"/>
      <line x1="55.378" y1="1629.130" x2="55.378" y2="1579.130"/>
      <line x1="56.378" y1="1629.130" x2="56.378" y2="1579.130"/>
      <line x1="57.378" y1="1629.130" x2="57.378" y2="1579.130"/>
      <line x1="58.378" y1="1629.130" x2="58.378" y2="1579.130"/>
      <line x1="59.378" y1="1629.130" x2="59.378" y2="1579.130"/>
      <line x1="60.378" y1="1629.130" x2="60.378" y2="1579.130"/>
      <line x1="61.378" y1="1629.130" x2="61.378" y2="1579.130"/>
      <line x1="62.378" y1="1629.130" x2="62.378" y2="1579.130"/>
      <line x1="63.378" y1="1629.130" x2="63.378" y2="1579.130"/>
      <line x1="64.378" y1="1629.130" x2="64.378" y2="1579.130"/>
      <line x1="65.378" y1="1629.130" x2="65.378" y2="1579.130"/>
      <line x1="66.378" y1="1629.130" x2="66.378" y2="1579.130"/>
      <line x1="67.378" y1="1629.130" x2="67.378" y2="1579.130"/>
      <line x1="68.378" y1="1629.130" x2="68.378" y2="1579.130"/>
      <line x1="69.378" y1="1629.130" x2="69.378" y2="1579.130"/>
      <line x1="70.378" y1="1629.130" x2="70.378" y2="1579.130"/>
      <line x1="71.378" y1="1629.130" x2="71.378" y2="1579.130"/>
      <line x1="72.378" y1="1629.130" x2="72.378" y2="1579.130"/>
      <line x1="73.378" y1="1629.130" x2="73.378" y2="1579.130"/>
      <line x1="3.378" y1="1579.030" x2="3.378" y2="1529.030"/>
      <line x1="4.378" y1="1579.030" x2="4.378" y2="1529.030"/>
      <line x1="5.378" y1="1579.030" x2="5.378" y2="1529.030"/>
      <line x1="6.378" y1="1579.030" x2="6.378" y2="1529.030"/>
      <line x1="7.378" y1="1579.030" x2="7.378" y2="1529.030"/>
      <line x1="8.378" y1="1579.030" x2="8.378" y2="1529.030"/>
      <line x1="9.378" y1="1579.030" x2="9.378" y2="1529.030"/>
      <line x1="10.378" y1="1579.030" x2="10.378" y2="1529.030"/>
      <line x1="11.378" y1="1579.030" x2="11.378" y2="1529.030"/>
      <line x1="12.378" y1="1579.030" x2="12.378" y2="1529.030"/>
      <line x1="13.378" y1="1579.030" x2="13.378" y2="1529.030"/>
      <line x1="14.378" y1="1579.030" x2="14.378" y2="1529.030"/>
      <line x1="15.378" y1="1579.030" x2="15.378" y2="1529.030"/>
      <line x1="16.378" y1="1579.030" x2="16.378" y2="1529.030"/>
      <line x1="17.378" y1="1579.030" x2="17.378" y2="1529.030"/>
      <line x1="18.378" y1="1579.030" x2="18.378" y2="1529.030"/>
      <line x1="19.378" y1="1579.030" x2="19.378" y2="1529.030"/>
      <line x1="20.378" y1="1579.030" x2="20.378" y2="1529.030"/>
      <line x1="21.378" y1="1579.030" x2="21.378" y2="1529.030"/>
      <line x1="22.378" y1="1579.030" x2="22.378" y2="1529.030"/>
      <line x1="23.378" y1="1579.030" x2="23.378" y2="1529.030"/>
      <line x1="24.378" y1="1579.030" x2="24.378" y2="1529.030"/>
      <line x1="25.378" y1="1579.030" x2="25.378" y2="1529.030"/>
      <line x1="26.378" y1="1579.030" x2="26.378" y2="1529.030"/>
      <line x1="27.378" y1="1579.030" x2="27.378" y2="1529.030"/>
      <line x1="28.378" y1="1579.030" x2="28.378" y2="1529.030"/>
      <line x1="29.378" y1="1579.030" x2="29.378" y2="1529.030"/>
      <line x1="30.378" y1="1579.030" x2="30.378" y2="1529.030"/>
      <line x1="31.378" y1="1579.030" x2="31.378" y2="1529.030"/>
      <line x1="32.378" y1="1579.030" x2="32.378" y2="1529.030"/>
      <line x1="33.378" y1="1579.030" x2="33.378" y2="1529.030"/>
      <line x1="34.378" y1="1579.030" x2="34.378" y2="1529.030"/>
      <line x1="35.378" y1="1579.030" x2="35.378" y2="1529.030"/>
      <line x1="36.378" y1="1579.030" x2="36.378" y2="1529.030"/>
      <line x1="37.378" y1="1579.030" x2="37.378" y2="1529.030"/>
      <line x1="38.378" y1="1579.030" x2="38.378" y2="1529.030"/>
      <line x1="39.378" y1="1579.030" x2="39.378" y2="1529.030"/>
      <line x1="40.378" y1="1579.030" x2="40.378" y2="1529.030"/>
      <line x1="41.378" y1="1579.030" x2="41.378" y2="1529.030"/>
      <line x1="42.378" y1="1579.030" x2="42.378" y2="1529.030"/>
      <line x1="43.378" y1="1579.030" x2="43.378" y2="1529.030"/>
      <line x1="44.378" y1="1579.030" x2="44.378" y2="1529.030"/>
      <line x1="45.378" y1="1579.030" x2="45.378" y2="1529.030"/>
      <line x1="46.378" y1="1579.030" x2="46.378" y2="1529.030"/>
      <line x1="47.378" y1="1579.030" x2="47.378" y2="1529.030"/>
      <line x1="48.378" y1="1579.030" x2="48.378" y2="1529.030"/>
      <line x1="49.378" y1="1579.030" x2="49.378" y2="1529.030"/>
      <line x1="50.378" y1="1579.030" x2="50.378" y2="1529.030"/>
      <line x1="51.378" y1="1579.030" x2="51.378" y2="1529.030"/>
      <line x1="52.378" y1="1579.030" x2="52.378" y2="1529.030"/>
      <line x1="53.378" y1="1579.030" x2="53.378" y2="1529.030"/>
      <line x1="54.378" y1="1579.030" x2="54.378" y2="1529.030"/>
      <line x1="55.378" y1="1579.030" x2="55.378" y2="1529.030"/>
      <line x1="56.378" y1="1579.030" x2="56.378" y2="1529.030"/>
      <line x1="57.378" y1="1579.030" x2="57.378" y2="1529.030"/>
      <line x1="58.378" y1="1579.030" x2="58.378" y2="1529.030"/>
      <line x1="59.378" y1="1579.030" x2="59.378" y2="1529.030"/>
      <line x1="60.378" y1="1579.030" x2="60.378" y2="1529.030"/>
      <line x1="61.378" y1="1579.030" x2="61.378" y2="1529.030"/>
      <line x1="62.378" y1="1579.030" x2="62.378" y2="1529.030"/>
      <line x1="63.378" y1="1579.030" x2="63.378" y2="1529.030"/>
      <line x1="64.378" y1="1579.030" x2="64.378" y2="1529.030"/>
      <line x1="65.378" y1="1579.030" x2="65.378" y2="1529.030"/>
      <line x1="66.378" y1="1579.030" x2="66.378" y2="1529.030"/>
      <line x1="67.378" y1="1579.030" x2="67.378" y2="1529.030"/>
      <line x1="68.378" y1="1579.030" x2="68.378" y2="1529.030"/>
      <line x1="69.378" y1="1579.030" x2="69.378" y2="1529.030"/>
      <line x1="70.378" y1="1579.030" x2="70.378" y2="1529.030"/>
      <line x1="71.378" y1="1579.030" x2="71.378" y2="1529.030"/>
      <line x1="72.378" y1="1579.030" x2="72.378" y2="1529.030"/>
      <line x1="73.378" y1="1579.030" x2="73.378" y2="1529.030"/>
      <line x1="52.378" y1="1528.930" x2="52.378" y2="1525.229"/>
      <line x1="51.378" y1="1528.930" x2="51.378" y2="1525.229"/>
      <line x1="17.378" y1="1528.930" x2="17.378" y2="1525.229"/>
      <line x1="30.378" y1="1528.930" x2="30.378" y2="1525.229"/>
      <line x1="29.378" y1="1528.930" x2="29.378" y2="1525.229"/>
      <line x1="28.378" y1="1528.930" x2="28.378" y2="1525.229"/>
      <line x1="27.378" y1="1528.930" x2="27.378" y2="1525.229"/>
      <line x1="26.378" y1="1528.930" x2="26.378" y2="1525.229"/>
      <line x1="25.378" y1="1528.930" x2="25.378" y2="1525.229"/>
      <line x1="24.378" y1="1528.930" x2="24.378" y2="1525.229"/>
      <line x1="23.378" y1="1528.930" x2="23.378" y2="1525.229"/>
      <line x1="22.378" y1="1528.930" x2="22.378" y2="1525.229"/>
      <line x1="21.378" y1="1528.930" x2="21.378" y2="1525.229"/>
      <line x1="20.378" y1="1528.930" x2="20.378" y2="1525.229"/>
      <line x1="19.378" y1="1528.930" x2="19.378" y2="1525.229"/>
      <line x1="18.378" y1="1528.930" x2="18.378" y2="1525.229"/>
      <line x1="3.378" y1="1528.930" x2="3.378" y2="1525.229"/>
      <line x1="16.378" y1="1528.930" x2="16.378" y2="1525.229"/>
      <line x1="15.378" y1="1528.930" x2="15.378" y2="1525.229"/>
      <line x1="14.378" y1="1528.930" x2="14.378" y2="1525.229"/>
      <line x1="13.378" y1="1528.930" x2="13.378" y2="1525.229"/>
      <line x1="12.378" y1="1528.930" x2="12.378" y2="1525.229"/>
      <line x1="11.378" y1="1528.930" x2="11.378" y2="1525.229"/>
      <line x1="10.378" y1="1528.930" x2="10.378" y2="1525.229"/>
      <line x1="9.378" y1="1528.930" x2="9.378" y2="1525.229"/>
      <line x1="8.378" y1="1528.930" x2="8.378" y2="1525.229"/>
      <line x1="7.378" y1="1528.930" x2="7.378" y2="1525.229"/>
      <line x1="6.378" y1="1528.930" x2="6.378" y2="1525.229"/>
      <line x1="5.378" y1="1528.930" x2="5.378" y2="1525.229"/>
      <line x1="4.378" y1="1528.930" x2="4.378" y2="1525.229"/>
      <line x1="45.378" y1="1528.930" x2="45.378" y2="1525.229"/>
      <line x1="50.378" y1="1528.930" x2="50.378" y2="1525.229"/>
      <line x1="49.378" y1="1528.930" x2="49.378" y2="1525.229"/>
      <line x1="48.378" y1="1528.930" x2="48.378" y2="1525.229"/>
      <line x1="47.378" y1="1528.930" x2="47.378" y2="1525.229"/>
      <line x1="46.378" y1="1528.930" x2="46.378" y2="1525.229"/>
      <line x1="31.378" y1="1528.930" x2="31.378" y2="1525.229"/>
      <line x1="44.378" y1="1528.930" x2="44.378" y2="1525.229"/>
      <line x1="43.378" y1="1528.930" x2="43.378" y2="1525.229"/>
      <line x1="42.378" y1="1528.930" x2="42.378" y2="1525.229"/>
      <line x1="41.378" y1="1528.930" x2="41.378" y2="1525.229"/>
      <line x1="40.378" y1="1528.930" x2="40.378" y2="1525.229"/>
      <line x1="39.378" y1="1528.930" x2="39.378" y2="1525.229"/>
      <line x1="38.378" y1="1528.930" x2="38.378" y2="1525.229"/>
      <line x1="37.378" y1="1528.930" x2="37.378" y2="1525.229"/>
      <line x1="36.378" y1="1528.930" x2="36.378" y2="1525.229"/>
      <line x1="35.378" y1="1528.930" x2="35.378" y2="1525.229"/>
      <line x1="34.378" y1="1528.930" x2="34.378" y2="1525.229"/>
      <line x1="33.378" y1="1528.930" x2="33.378" y2="1525.229"/>
      <line x1="32.378" y1="1528.930" x2="32.378" y2="1525.229"/>
      <line x1="73.378" y1="1528.930" x2="73.378" y2="1525.229"/>
      <line x1="53.378" y1="1528.930" x2="53.378" y2="1525.229"/>
      <line x1="56.378" y1="1528.930" x2="56.378" y2="1525.229"/>
      <line x1="55.378" y1="1528.930" x2="55.378" y2="1525.229"/>
      <line x1="59.378" y1="1528.930" x2="59.378" y2="1525.229"/>
      <line x1="61.378" y1="1528.930" x2="61.378" y2="1525.229"/>
      <line x1="72.378" y1="1528.930" x2="72.378" y2="1525.229"/>
      <line x1="69.378" y1="1528.930" x2="69.378" y2="1525.229"/>
      <line x1="70.378" y1="1528.930" x2="70.378" y2="1525.229"/>
      <line x1="67.378" y1="1528.930" x2="67.378" y2="1525.229"/>
      <line x1="58.378" y1="1528.930" x2="58.378" y2="1525.229"/>
      <line x1="66.378" y1="1528.930" x2="66.378" y2="1525.229"/>
      <line x1="64.378" y1="1528.930" x2="64.378" y2="1525.229"/>
      <line x1="71.378" y1="1528.930" x2="71.378" y2="1525.229"/>
      <line x1="68.378" y1="1528.930" x2="68.378" y2="1525.229"/>
      <line x1="65.378" y1="1528.930" x2="65.378" y2="1525.229"/>
      <line x1="62.378" y1="1528.930" x2="62.378" y2="1525.229"/>
      <line x1="63.378" y1="1528.930" x2="63.378" y2="1525.229"/>
      <line x1="60.378" y1="1528.930" x2="60.378" y2="1525.229"/>
      <line x1="57.378" y1="1528.930" x2="57.378" y2="1525.229"/>
      <line x1="54.378" y1="1528.930" x2="54.378" y2="1525.229"/>
    </g>
    <g stroke="#1976D2" stroke-width="0.4">
      <polyline points="524.566,1682.729 600.500,1682.729 600.500,1521.729 524.566,1521.729" fill="none"/>
      <polyline points="524.566,1521.729 522.710,1521.729 522.710,1682.729 524.566,1682.729" fill="none"/>
      <polyline points="524.566,1681.730 599.500,1681.730 599.500,1522.729 524.566,1522.729" fill="none"/>
      <polyline points="524.566,1522.729 523.710,1522.729 523.710,1681.730 524.566,1681.730" fill="none"/>
      <polyline points="598.500,1523.729 524.710,1523.729 524.710,1680.730 598.500,1680.730 598.500,1523.729" fill="none"/>
      <polyline points="597.500,1524.729 525.710,1524.729 525.710,1679.729 597.500,1679.729 597.500,1524.729" fill="none"/>
      <polyline points="75.434,1521.729 -0.500,1521.729 -0.500,1682.729 75.434,1682.729" fill="none"/>
      <polyline points="75.434,1682.729 77.290,1682.729 77.290,1521.729 75.434,1521.729" fill="none"/>
      <polyline points="75.434,1522.729 0.500,1522.729 0.500,1681.730 75.434,1681.730" fill="none"/>
      <polyline points="75.434,1681.730 76.290,1681.730 76.290,1522.729 75.434,1522.729" fill="none"/>
      <polyline points="75.290,1523.729 1.500,1523.729 1.500,1680.730 75.290,1680.730 75.290,1523.729" fill="none"/>
      <polyline points="74.290,1524.729 2.500,1524.729 2.500,1679.729 74.290,1679.729 74.290,1524.729" fill="none"/>
    </g>
    <g stroke="#C62828" stroke-width="0.4" fill="none">
      <polygon points="294.325,1536.025 296.121,1535.110 297.547,1533.684 298.462,1531.888 298.778,1529.896 298.462,1527.905 297.547,1526.108 296.121,1524.683 294.325,1523.767 292.333,1523.452 290.342,1523.767 288.545,1524.683 287.120,1526.108 286.204,1527.905 285.889,1529.896 286.204,1531.888 287.120,1533.684 288.545,1535.110 290.342,1536.025 292.333,1536.341"/>
      <polygon points="314.303,1535.959 316.080,1535.053 317.490,1533.643 318.396,1531.866 318.708,1529.896 318.396,1527.926 317.490,1526.149 316.080,1524.739 314.303,1523.834 312.333,1523.522 310.364,1523.834 308.586,1524.739 307.176,1526.149 306.271,1527.926 305.959,1529.896 306.271,1531.866 307.176,1533.643 308.586,1535.053 310.364,1535.959 312.333,1536.271"/>
      <polygon points="274.258,1535.821 275.995,1534.936 277.373,1533.558 278.258,1531.821 278.563,1529.896 278.258,1527.971 277.373,1526.234 275.995,1524.856 274.258,1523.971 272.333,1523.666 270.408,1523.971 268.672,1524.856 267.293,1526.234 266.408,1527.971 266.103,1529.896 266.408,1531.821 267.293,1533.558 268.672,1534.936 270.408,1535.821 272.333,1536.126"/>
      <polygon points="334.235,1535.750 335.951,1534.876 337.313,1533.514 338.187,1531.798 338.488,1529.896 338.187,1527.994 337.313,1526.278 335.951,1524.917 334.235,1524.042 332.333,1523.741 330.431,1524.042 328.716,1524.917 327.354,1526.278 326.480,1527.994 326.178,1529.896 326.480,1531.798 327.354,1533.514 328.716,1534.876 330.431,1535.750 332.333,1536.051"/>
      <polygon points="354.187,1535.602 355.860,1534.750 357.187,1533.423 358.040,1531.750 358.333,1529.896 358.040,1528.042 357.187,1526.369 355.860,1525.042 354.187,1524.190 352.333,1523.896 350.479,1524.190 348.807,1525.042 347.479,1526.369 346.627,1528.042 346.333,1529.896 346.627,1531.750 347.479,1533.423 348.807,1534.750 350.479,1535.602 352.333,1535.896"/>
      <polygon points="254.187,1535.602 255.860,1534.750 257.187,1533.423 258.040,1531.750 258.333,1529.896 258.040,1528.042 257.187,1526.369 255.860,1525.042 254.187,1524.190 252.333,1523.896 250.479,1524.190 248.807,1525.042 247.479,1526.369 246.627,1528.042 246.333,1529.896 246.627,1531.750 247.479,1533.423 248.807,1534.750 250.479,1535.602 252.333,1535.896"/>
      <polygon points="233.766,1535.555 235.526,1534.783 236.940,1533.482 237.854,1531.792 238.171,1529.896 237.854,1528.001 236.940,1526.311 235.526,1525.009 233.766,1524.237 231.851,1524.079 229.988,1524.550 228.380,1525.601 227.200,1527.118 226.576,1528.935 226.576,1530.857 227.200,1532.674 228.380,1534.191 229.988,1535.242 231.851,1535.714"/>
      <polygon points="373.746,1535.473 375.480,1534.712 376.873,1533.430 377.775,1531.764 378.086,1529.896 377.775,1528.028 376.873,1526.363 375.480,1525.080 373.746,1524.319 371.858,1524.163 370.022,1524.628 368.437,1525.663 367.274,1527.158 366.659,1528.949 366.659,1530.843 367.274,1532.634 368.437,1534.129 370.022,1535.165 371.858,1535.630"/>
      <polygon points="213.703,1535.304 215.384,1534.566 216.735,1533.322 217.609,1531.707 217.911,1529.896 217.609,1528.085 216.735,1526.470 215.384,1525.226 213.703,1524.489 211.873,1524.337 210.093,1524.788 208.555,1525.792 207.428,1527.241 206.831,1528.978 206.831,1530.814 207.428,1532.551 208.555,1534.000 210.093,1535.004 211.873,1535.455"/>
      <polygon points="395.077,1534.648 396.537,1533.423 397.490,1531.773 397.821,1529.896 397.490,1528.019 396.537,1526.369 395.077,1525.144 393.286,1524.492 391.381,1524.492 389.590,1525.144 388.130,1526.369 387.177,1528.019 386.846,1529.896 387.177,1531.773 388.130,1533.423 389.590,1534.648 391.381,1535.300 393.286,1535.300"/>
      <polygon points="414.982,1534.485 416.392,1533.302 417.312,1531.708 417.632,1529.896 417.312,1528.084 416.392,1526.491 414.982,1525.308 413.253,1524.678 411.413,1524.678 409.684,1525.308 408.275,1526.491 407.355,1528.084 407.035,1529.896 407.355,1531.708 408.275,1533.302 409.684,1534.485 411.413,1535.114 413.253,1535.114"/>
      <polygon points="194.982,1534.485 196.392,1533.302 197.312,1531.708 197.632,1529.896 197.312,1528.084 196.392,1526.491 194.982,1525.308 193.253,1524.678 191.413,1524.678 189.684,1525.308 188.275,1526.491 187.355,1528.084 187.035,1529.896 187.355,1531.708 188.275,1533.302 189.684,1534.485 191.413,1535.114 193.253,1535.114"/>
      <polygon points="174.883,1534.312 176.239,1533.174 177.125,1531.640 177.432,1529.896 177.125,1528.152 176.239,1526.619 174.883,1525.480 173.219,1524.875 171.448,1524.875 169.784,1525.480 168.427,1526.619 167.542,1528.152 167.234,1529.896 167.542,1531.640 168.427,1533.174 169.784,1534.312 171.448,1534.918 173.219,1534.918"/>
      <polygon points="434.560,1534.368 436.025,1533.262 436.991,1531.701 437.329,1529.896 436.991,1528.092 436.025,1526.531 434.560,1525.424 432.794,1524.922 430.966,1525.091 429.323,1525.910 428.086,1527.266 427.423,1528.978 427.423,1530.814 428.086,1532.526 429.323,1533.883 430.966,1534.701 432.794,1534.870"/>
      <polygon points="154.362,1533.970 155.696,1532.962 156.577,1531.540 156.884,1529.896 156.577,1528.252 155.696,1526.830 154.362,1525.823 152.753,1525.365 151.088,1525.519 149.591,1526.265 148.464,1527.501 147.860,1529.060 147.860,1530.732 148.464,1532.292 149.591,1533.528 151.088,1534.273 152.753,1534.427"/>
      <polygon points="453.982,1533.877 455.380,1532.943 456.314,1531.545 456.642,1529.896 456.314,1528.247 455.380,1526.850 453.982,1525.916 452.333,1525.588 450.685,1525.916 449.287,1526.850 448.353,1528.247 448.025,1529.896 448.353,1531.545 449.287,1532.943 450.685,1533.877 452.333,1534.205"/>
      <polygon points="133.456,1533.353 134.765,1532.597 135.654,1531.374 135.968,1529.896 135.654,1528.418 134.765,1527.195 133.456,1526.440 131.953,1526.282 130.516,1526.749 129.393,1527.760 128.778,1529.141 128.778,1530.652 129.393,1532.032 130.516,1533.044 131.953,1533.511"/>
      <polygon points="474.412,1532.502 475.337,1531.342 475.667,1529.896 475.337,1528.450 474.412,1527.290 473.075,1526.646 471.592,1526.646 470.255,1527.290 469.330,1528.450 469.000,1529.896 469.330,1531.342 470.255,1532.502 471.592,1533.146 473.075,1533.146"/>
      <polygon points="113.576,1532.048 114.485,1531.139 114.818,1529.896 114.485,1528.654 113.576,1527.744 112.333,1527.411 111.091,1527.744 110.181,1528.654 109.848,1529.896 110.181,1531.139 111.091,1532.048 112.333,1532.381"/>
      <polygon points="493.384,1531.715 494.153,1530.946 494.434,1529.896 494.153,1528.846 493.384,1528.077 492.333,1527.796 491.283,1528.077 490.514,1528.846 490.233,1529.896 490.514,1530.946 491.283,1531.715 492.333,1531.997"/>
      <polygon points="294.325,1556.025 296.121,1555.110 297.547,1553.684 298.462,1551.888 298.778,1549.896 298.462,1547.905 297.547,1546.108 296.121,1544.683 294.325,1543.767 292.333,1543.452 290.342,1543.767 288.545,1544.683 287.120,1546.108 286.204,1547.905 285.889,1549.896 286.204,1551.888 287.120,1553.684 288.545,1555.110 290.342,1556.025 292.333,1556.341"/>
      <polygon points="314.303,1555.959 316.080,1555.053 317.490,1553.643 318.396,1551.866 318.708,1549.896 318.396,1547.926 317.490,1546.149 316.080,1544.739 314.303,1543.834 312.333,1543.522 310.364,1543.834 308.586,1544.739 307.176,1546.149 306.271,1547.926 305.959,1549.896 306.271,1551.866 307.176,1553.643 308.586,1555.053 310.364,1555.959 312.333,1556.271"/>
      <polygon points="274.258,1555.821 275.995,1554.936 277.373,1553.558 278.258,1551.821 278.563,1549.896 278.258,1547.971 277.373,1546.234 275.995,1544.856 274.258,1543.971 272.333,1543.666 270.408,1543.971 268.672,1544.856 267.293,1546.234 266.408,1547.971 266.103,1549.896 266.408,1551.821 267.293,1553.558 268.672,1554.936 270.408,1555.821 272.333,1556.126"/>
      <polygon points="334.235,1555.750 335.951,1554.876 337.313,1553.514 338.187,1551.798 338.488,1549.896 338.187,1547.994 337.313,1546.278 335.951,1544.917 334.235,1544.042 332.333,1543.741 330.431,1544.042 328.716,1544.917 327.354,1546.278 326.480,1547.994 326.178,1549.896 326.480,1551.798 327.354,1553.514 328.716,1554.876 330.431,1555.750 332.333,1556.051"/>
      <polygon points="354.187,1555.602 355.860,1554.750 357.187,1553.423 358.040,1551.750 358.333,1549.896 358.040,1548.042 357.187,1546.369 355.860,1545.042 354.187,1544.190 352.333,1543.896 350.479,1544.190 348.807,1545.042 347.479,1546.369 346.627,1548.042 346.333,1549.896 346.627,1551.750 347.479,1553.423 348.807,1554.750 350.479,1555.602 352.333,1555.896"/>
      <polygon points="254.187,1555.602 255.860,1554.750 257.187,1553.423 258.040,1551.750 258.333,1549.896 258.040,1548.042 257.187,1546.369 255.860,1545.042 254.187,1544.190 252.333,1543.896 250.479,1544.190 248.807,1545.042 247.479,1546.369 246.627,1548.042 246.333,1549.896 246.627,1551.750 247.479,1553.423 248.807,1554.750 250.479,1555.602 252.333,1555.896"/>
      <polygon points="233.766,1555.555 235.526,1554.783 236.940,1553.482 237.854,1551.792 238.171,1549.896 237.854,1548.001 236.940,1546.311 235.526,1545.009 233.766,1544.237 231.851,1544.079 229.988,1544.550 228.380,1545.601 227.200,1547.118 226.576,1548.935 226.576,1550.857 227.200,1552.674 228.380,1554.191 229.988,1555.242 231.851,1555.714"/>
      <polygon points="373.746,1555.473 375.480,1554.712 376.873,1553.430 377.775,1551.764 378.086,1549.896 377.775,1548.028 376.873,1546.363 375.480,1545.080 373.746,1544.319 371.858,1544.163 370.022,1544.628 368.437,1545.663 367.274,1547.158 366.659,1548.949 366.659,1550.843 367.274,1552.634 368.437,1554.129 370.022,1555.165 371.858,1555.630"/>
      <polygon points="213.703,1555.304 215.384,1554.566 216.735,1553.322 217.609,1551.707 217.911,1549.896 217.609,1548.085 216.735,1546.470 215.384,1545.226 213.703,1544.489 211.873,1544.337 210.093,1544.788 208.555,1545.792 207.428,1547.241 206.831,1548.978 206.831,1550.814 207.428,1552.551 208.555,1554.000 210.093,1555.004 211.873,1555.455"/>
      <polygon points="395.077,1554.648 396.537,1553.423 397.490,1551.773 397.821,1549.896 397.490,1548.019 396.537,1546.369 395.077,1545.144 393.286,1544.492 391.381,1544.492 389.590,1545.144 388.130,1546.369 387.177,1548.019 386.846,1549.896 387.177,1551.773 388.130,1553.423 389.590,1554.648 391.381,1555.300 393.286,1555.300"/>
      <polygon points="414.982,1554.485 416.392,1553.302 417.312,1551.708 417.632,1549.896 417.312,1548.084 416.392,1546.491 414.982,1545.308 413.253,1544.678 411.413,1544.678 409.684,1545.308 408.275,1546.491 407.355,1548.084 407.035,1549.896 407.355,1551.708 408.275,1553.302 409.684,1554.485 411.413,1555.114 413.253,1555.114"/>
      <polygon points="194.982,1554.485 196.392,1553.302 197.312,1551.708 197.632,1549.896 197.312,1548.084 196.392,1546.491 194.982,1545.308 193.253,1544.678 191.413,1544.678 189.684,1545.308 188.275,1546.491 187.355,1548.084 187.035,1549.896 187.355,1551.708 188.275,1553.302 189.684,1554.485 191.413,1555.114 193.253,1555.114"/>
      <polygon points="174.883,1554.312 176.239,1553.174 177.125,1551.640 177.432,1549.896 177.125,1548.152 176.239,1546.619 174.883,1545.480 173.219,1544.875 171.448,1544.875 169.784,1545.480 168.427,1546.619 167.542,1548.152 167.234,1549.896 167.542,1551.640 168.427,1553.174 169.784,1554.312 171.448,1554.918 173.219,1554.918"/>
      <polygon points="434.560,1554.368 436.025,1553.262 436.991,1551.701 437.329,1549.896 436.991,1548.092 436.025,1546.531 434.560,1545.424 432.794,1544.922 430.966,1545.091 429.323,1545.910 428.086,1547.266 427.423,1548.978 427.423,1550.814 428.086,1552.526 429.323,1553.883 430.966,1554.701 432.794,1554.870"/>
      <polygon points="154.362,1553.970 155.696,1552.962 156.577,1551.540 156.884,1549.896 156.577,1548.252 155.696,1546.830 154.362,1545.823 152.753,1545.365 151.088,1545.519 149.591,1546.265 148.464,1547.501 147.860,1549.060 147.860,1550.732 148.464,1552.292 149.591,1553.528 151.088,1554.273 152.753,1554.427"/>
      <polygon points="453.982,1553.877 455.380,1552.943 456.314,1551.545 456.642,1549.896 456.314,1548.247 455.380,1546.850 453.982,1545.916 452.333,1545.588 450.685,1545.916 449.287,1546.850 448.353,1548.247 448.025,1549.896 448.353,1551.545 449.287,1552.943 450.685,1553.877 452.333,1554.205"/>
      <polygon points="133.456,1553.353 134.765,1552.597 135.654,1551.374 135.968,1549.896 135.654,1548.418 134.765,1547.195 133.456,1546.440 131.953,1546.282 130.516,1546.749 129.393,1547.760 128.778,1549.141 128.778,1550.652 129.393,1552.032 130.516,1553.044 131.953,1553.511"/>
      <polygon points="474.412,1552.502 475.337,1551.342 475.667,1549.896 475.337,1548.450 474.412,1547.290 473.075,1546.646 471.592,1546.646 470.255,1547.290 469.330,1548.450 469.000,1549.896 469.330,1551.342 470.255,1552.502 471.592,1553.146 473.075,1553.146"/>
      <polygon points="113.576,1552.048 114.485,1551.139 114.818,1549.896 114.485,1548.654 113.576,1547.744 112.333,1547.411 111.091,1547.744 110.181,1548.654 109.848,1549.896 110.181,1551.139 111.091,1552.048 112.333,1552.381"/>
      <polygon points="493.384,1551.715 494.153,1550.946 494.434,1549.896 494.153,1548.846 493.384,1548.077 492.333,1547.796 491.283,1548.077 490.514,1548.846 490.233,1549.896 490.514,1550.946 491.283,1551.715 492.333,1551.997"/>
      <polygon points="294.325,1576.025 296.121,1575.110 297.547,1573.684 298.462,1571.888 298.778,1569.896 298.462,1567.905 297.547,1566.108 296.121,1564.683 294.325,1563.767 292.333,1563.452 290.342,1563.767 288.545,1564.683 287.120,1566.108 286.204,1567.905 285.889,1569.896 286.204,1571.888 287.120,1573.684 288.545,1575.110 290.342,1576.025 292.333,1576.341"/>
      <polygon points="314.303,1575.959 316.080,1575.053 317.490,1573.643 318.396,1571.866 318.708,1569.896 318.396,1567.926 317.490,1566.149 316.080,1564.739 314.303,1563.834 312.333,1563.522 310.364,1563.834 308.586,1564.739 307.176,1566.149 306.271,1567.926 305.959,1569.896 306.271,1571.866 307.176,1573.643 308.586,1575.053 310.364,1575.959 312.333,1576.271"/>
      <polygon points="274.258,1575.821 275.995,1574.936 277.373,1573.558 278.258,1571.821 278.563,1569.896 278.258,1567.971 277.373,1566.234 275.995,1564.856 274.258,1563.971 272.333,1563.666 270.408,1563.971 268.672,1564.856 267.293,1566.234 266.408,1567.971 266.103,1569.896 266.408,1571.821 267.293,1573.558 268.672,1574.936 270.408,1575.821 272.333,1576.126"/>
      <polygon points="334.235,1575.750 335.951,1574.876 337.313,1573.514 338.187,1571.798 338.488,1569.896 338.187,1567.994 337.313,1566.278 335.951,1564.917 334.235,1564.042 332.333,1563.741 330.431,1564.042 328.716,1564.917 327.354,1566.278 326.480,1567.994 326.178,1569.896 326.480,1571.798 327.354,1573.514 328.716,1574.876 330.431,1575.750 332.333,1576.051"/>
      <polygon points="254.187,1575.602 255.860,1574.750 257.187,1573.423 258.040,1571.750 258.333,1569.896 258.040,1568.042 257.187,1566.369 255.860,1565.042 254.187,1564.190 252.333,1563.896 250.479,1564.190 248.807,1565.042 247.479,1566.369 246.627,1568.042 246.333,1569.896 246.627,1571.750 247.479,1573.423 248.807,1574.750 250.479,1575.602 252.333,1575.896"/>
      <polygon points="354.187,1575.602 355.860,1574.750 357.187,1573.423 358.040,1571.750 358.333,1569.896 358.040,1568.042 357.187,1566.369 355.860,1565.042 354.187,1564.190 352.333,1563.896 350.479,1564.190 348.807,1565.042 347.479,1566.369 346.627,1568.042 346.333,1569.896 346.627,1571.750 347.479,1573.423 348.807,1574.750 350.479,1575.602 352.333,1575.896"/>
      <polygon points="233.766,1575.555 235.526,1574.783 236.940,1573.482 237.854,1571.792 238.171,1569.896 237.854,1568.001 236.940,1566.311 235.526,1565.009 233.766,1564.237 231.851,1564.079 229.988,1564.550 228.380,1565.601 227.200,1567.118 226.576,1568.935 226.576,1570.857 227.200,1572.674 228.380,1574.191 229.988,1575.242 231.851,1575.714"/>
      <polygon points="373.746,1575.473 375.480,1574.712 376.873,1573.430 377.775,1571.764 378.086,1569.896 377.775,1568.028 376.873,1566.363 375.480,1565.080 373.746,1564.319 371.858,1564.163 370.022,1564.628 368.437,1565.663 367.274,1567.158 366.659,1568.949 366.659,1570.843 367.274,1572.634 368.437,1574.129 370.022,1575.165 371.858,1575.630"/>
      <polygon points="213.703,1575.304 215.384,1574.566 216.735,1573.322 217.609,1571.707 217.911,1569.896 217.609,1568.085 216.735,1566.470 215.384,1565.226 213.703,1564.489 211.873,1564.337 210.093,1564.788 208.555,1565.792 207.428,1567.241 206.831,1568.978 206.831,1570.814 207.428,1572.551 208.555,1574.000 210.093,1575.004 211.873,1575.455"/>
      <polygon points="395.077,1574.648 396.537,1573.423 397.490,1571.773 397.821,1569.896 397.490,1568.019 396.537,1566.369 395.077,1565.144 393.286,1564.492 391.381,1564.492 389.590,1565.144 388.130,1566.369 387.177,1568.019 386.846,1569.896 387.177,1571.773 388.130,1573.423 389.590,1574.648 391.381,1575.300 393.286,1575.300"/>
      <polygon points="194.982,1574.485 196.392,1573.302 197.312,1571.708 197.632,1569.896 197.312,1568.084 196.392,1566.491 194.982,1565.308 193.253,1564.678 191.413,1564.678 189.684,1565.308 188.275,1566.491 187.355,1568.084 187.035,1569.896 187.355,1571.708 188.275,1573.302 189.684,1574.485 191.413,1575.114 193.253,1575.114"/>
      <polygon points="414.982,1574.485 416.392,1573.302 417.312,1571.708 417.632,1569.896 417.312,1568.084 416.392,1566.491 414.982,1565.308 413.253,1564.678 411.413,1564.678 409.684,1565.308 408.275,1566.491 407.355,1568.084 407.035,1569.896 407.355,1571.708 408.275,1573.302 409.684,1574.485 411.413,1575.114 413.253,1575.114"/>
      <polygon points="174.883,1574.312 176.239,1573.174 177.125,1571.640 177.432,1569.896 177.125,1568.152 176.239,1566.619 174.883,1565.480 173.219,1564.875 171.448,1564.875 169.784,1565.480 168.427,1566.619 167.542,1568.152 167.234,1569.896 167.542,1571.640 168.427,1573.174 169.784,1574.312 171.448,1574.918 173.219,1574.918"/>
      <polygon points="434.560,1574.368 436.025,1573.262 436.991,1571.701 437.329,1569.896 436.991,1568.092 436.025,1566.531 434.560,1565.424 432.794,1564.922 430.966,1565.091 429.323,1565.910 428.086,1567.266 427.423,1568.978 427.423,1570.814 428.086,1572.526 429.323,1573.883 430.966,1574.701 432.794,1574.870"/>
      <polygon points="154.362,1573.970 155.696,1572.962 156.577,1571.540 156.884,1569.896 156.577,1568.252 155.696,1566.830 154.362,1565.823 152.753,1565.365 151.088,1565.519 149.591,1566.265 148.464,1567.501 147.860,1569.060 147.860,1570.732 148.464,1572.292 149.591,1573.528 151.088,1574.273 152.753,1574.427"/>
      <polygon points="453.982,1573.877 455.380,1572.943 456.314,1571.545 456.642,1569.896 456.314,1568.247 455.380,1566.850 453.982,1565.916 452.333,1565.588 450.685,1565.916 449.287,1566.850 448.353,1568.247 448.025,1569.896 448.353,1571.545 449.287,1572.943 450.685,1573.877 452.333,1574.205"/>
      <polygon points="133.456,1573.353 134.765,1572.597 135.654,1571.374 135.968,1569.896 135.654,1568.418 134.765,1567.195 133.456,1566.440 131.953,1566.282 130.516,1566.749 129.393,1567.760 128.778,1569.141 128.778,1570.652 129.393,1572.032 130.516,1573.044 131.953,1573.511"/>
      <polygon points="474.412,1572.502 475.337,1571.342 475.667,1569.896 475.337,1568.450 474.412,1567.290 473.075,1566.646 471.592,1566.646 470.255,1567.290 469.330,1568.450 469.000,1569.896 469.330,1571.342 470.255,1572.502 471.592,1573.146 473.075,1573.146"/>
      <polygon points="113.576,1572.048 114.485,1571.139 114.818,1569.896 114.485,1568.654 113.576,1567.744 112.333,1567.411 111.091,1567.744 110.181,1568.654 109.848,1569.896 110.181,1571.139 111.091,1572.048 112.333,1572.381"/>
      <polygon points="493.384,1571.715 494.153,1570.946 494.434,1569.896 494.153,1568.846 493.384,1568.077 492.333,1567.796 491.283,1568.077 490.514,1568.846 490.233,1569.896 490.514,1570.946 491.283,1571.715 492.333,1571.997"/>
      <polygon points="294.325,1596.025 296.121,1595.110 297.547,1593.684 298.462,1591.888 298.778,1589.896 298.462,1587.905 297.547,1586.108 296.121,1584.683 294.325,1583.767 292.333,1583.452 290.342,1583.767 288.545,1584.683 287.120,1586.108 286.204,1587.905 285.889,1589.896 286.204,1591.888 287.120,1593.684 288.545,1595.110 290.342,1596.025 292.333,1596.341"/>
      <polygon points="314.303,1595.959 316.080,1595.053 317.490,1593.643 318.396,1591.866 318.708,1589.896 318.396,1587.926 317.490,1586.149 316.080,1584.739 314.303,1583.834 312.333,1583.522 310.364,1583.834 308.586,1584.739 307.176,1586.149 306.271,1587.926 305.959,1589.896 306.271,1591.866 307.176,1593.643 308.586,1595.053 310.364,1595.959 312.333,1596.271"/>
      <polygon points="274.258,1595.821 275.995,1594.936 277.373,1593.558 278.258,1591.821 278.563,1589.896 278.258,1587.971 277.373,1586.234 275.995,1584.856 274.258,1583.971 272.333,1583.666 270.408,1583.971 268.672,1584.856 267.293,1586.234 266.408,1587.971 266.103,1589.896 266.408,1591.821 267.293,1593.558 268.672,1594.936 270.408,1595.821 272.333,1596.126"/>
      <polygon points="334.235,1595.750 335.951,1594.876 337.313,1593.514 338.187,1591.798 338.488,1589.896 338.187,1587.994 337.313,1586.278 335.951,1584.917 334.235,1584.042 332.333,1583.741 330.431,1584.042 328.716,1584.917 327.354,1586.278 326.480,1587.994 326.178,1589.896 326.480,1591.798 327.354,1593.514 328.716,1594.876 330.431,1595.750 332.333,1596.051"/>
      <polygon points="254.187,1595.602 255.860,1594.750 257.187,1593.423 258.040,1591.750 258.333,1589.896 258.040,1588.042 257.187,1586.369 255.860,1585.042 254.187,1584.190 252.333,1583.896 250.479,1584.190 248.807,1585.042 247.479,1586.369 246.627,1588.042 246.333,1589.896 246.627,1591.750 247.479,1593.423 248.807,1594.750 250.479,1595.602 252.333,1595.896"/>
      <polygon points="354.187,1595.602 355.860,1594.750 357.187,1593.423 358.040,1591.750 358.333,1589.896 358.040,1588.042 357.187,1586.369 355.860,1585.042 354.187,1584.190 352.333,1583.896 350.479,1584.190 348.807,1585.042 347.479,1586.369 346.627,1588.042 346.333,1589.896 346.627,1591.750 347.479,1593.423 348.807,1594.750 350.479,1595.602 352.333,1595.896"/>
      <polygon points="233.766,1595.555 235.526,1594.783 236.940,1593.482 237.854,1591.792 238.171,1589.896 237.854,1588.001 236.940,1586.311 235.526,1585.009 233.766,1584.237 231.851,1584.079 229.988,1584.550 228.380,1585.601 227.200,1587.118 226.576,1588.935 226.576,1590.857 227.200,1592.674 228.380,1594.191 229.988,1595.242 231.851,1595.714"/>
      <polygon points="373.746,1595.473 375.480,1594.712 376.873,1593.430 377.775,1591.764 378.086,1589.896 377.775,1588.028 376.873,1586.363 375.480,1585.080 373.746,1584.319 371.858,1584.163 370.022,1584.628 368.437,1585.663 367.274,1587.158 366.659,1588.949 366.659,1590.843 367.274,1592.634 368.437,1594.129 370.022,1595.165 371.858,1595.630"/>
      <polygon points="213.703,1595.304 215.384,1594.566 216.735,1593.322 217.609,1591.707 217.911,1589.896 217.609,1588.085 216.735,1586.470 215.384,1585.226 213.703,1584.489 211.873,1584.337 210.093,1584.788 208.555,1585.792 207.428,1587.241 206.831,1588.978 206.831,1590.814 207.428,1592.551 208.555,1594.000 210.093,1595.004 211.873,1595.455"/>
      <polygon points="395.077,1594.648 396.537,1593.423 397.490,1591.773 397.821,1589.896 397.490,1588.019 396.537,1586.369 395.077,1585.144 393.286,1584.492 391.381,1584.492 389.590,1585.144 388.130,1586.369 387.177,1588.019 386.846,1589.896 387.177,1591.773 388.130,1593.423 389.590,1594.648 391.381,1595.300 393.286,1595.300"/>
      <polygon points="194.982,1594.485 196.392,1593.302 197.312,1591.708 197.632,1589.896 197.312,1588.084 196.392,1586.491 194.982,1585.308 193.253,1584.678 191.413,1584.678 189.684,1585.308 188.275,1586.491 187.355,1588.084 187.035,1589.896 187.355,1591.708 188.275,1593.302 189.684,1594.485 191.413,1595.114 193.253,1595.114"/>
      <polygon points="414.982,1594.485 416.392,1593.302 417.312,1591.708 417.632,1589.896 417.312,1588.084 416.392,1586.491 414.982,1585.308 413.253,1584.678 411.413,1584.678 409.684,1585.308 408.275,1586.491 407.355,1588.084 407.035,1589.896 407.355,1591.708 408.275,1593.302 409.684,1594.485 411.413,1595.114 413.253,1595.114"/>
      <polygon points="174.883,1594.312 176.239,1593.174 177.125,1591.640 177.432,1589.896 177.125,1588.152 176.239,1586.619 174.883,1585.480 173.219,1584.875 171.448,1584.875 169.784,1585.480 168.427,1586.619 167.542,1588.152 167.234,1589.896 167.542,1591.640 168.427,1593.174 169.784,1594.312 171.448,1594.918 173.219,1594.918"/>
      <polygon points="434.560,1594.368 436.025,1593.262 436.991,1591.701 437.329,1589.896 436.991,1588.092 436.025,1586.531 434.560,1585.424 432.794,1584.922 430.966,1585.091 429.323,1585.910 428.086,1587.266 427.423,1588.978 427.423,1590.814 428.086,1592.526 429.323,1593.883 430.966,1594.701 432.794,1594.870"/>
      <polygon points="154.362,1593.970 155.696,1592.962 156.577,1591.540 156.884,1589.896 156.577,1588.252 155.696,1586.830 154.362,1585.823 152.753,1585.365 151.088,1585.519 149.591,1586.265 148.464,1587.501 147.860,1589.060 147.860,1590.732 148.464,1592.292 149.591,1593.528 151.088,1594.273 152.753,1594.427"/>
      <polygon points="453.982,1593.877 455.380,1592.943 456.314,1591.545 456.642,1589.896 456.314,1588.247 455.380,1586.850 453.982,1585.916 452.333,1585.588 450.685,1585.916 449.287,1586.850 448.353,1588.247 448.025,1589.896 448.353,1591.545 449.287,1592.943 450.685,1593.877 452.333,1594.205"/>
      <polygon points="133.456,1593.353 134.765,1592.597 135.654,1591.374 135.968,1589.896 135.654,1588.418 134.765,1587.195 133.456,1586.440 131.953,1586.282 130.516,1586.749 129.393,1587.760 128.778,1589.141 128.778,1590.652 129.393,1592.032 130.516,1593.044 131.953,1593.511"/>
      <polygon points="474.412,1592.502 475.337,1591.342 475.667,1589.896 475.337,1588.450 474.412,1587.290 473.075,1586.646 471.592,1586.646 470.255,1587.290 469.330,1588.450 469.000,1589.896 469.330,1591.342 470.255,1592.502 471.592,1593.146 473.075,1593.146"/>
      <polygon points="113.576,1592.048 114.485,1591.139 114.818,1589.896 114.485,1588.654 113.576,1587.744 112.333,1587.411 111.091,1587.744 110.181,1588.654 109.848,1589.896 110.181,1591.139 111.091,1592.048 112.333,1592.381"/>
      <polygon points="493.384,1591.715 494.153,1590.946 494.434,1589.896 494.153,1588.846 493.384,1588.077 492.333,1587.796 491.283,1588.077 490.514,1588.846 490.233,1589.896 490.514,1590.946 491.283,1591.715 492.333,1591.997"/>
      <polygon points="294.325,1616.025 296.121,1615.110 297.547,1613.684 298.462,1611.888 298.778,1609.896 298.462,1607.905 297.547,1606.108 296.121,1604.683 294.325,1603.767 292.333,1603.452 290.342,1603.767 288.545,1604.683 287.120,1606.108 286.204,1607.905 285.889,1609.896 286.204,1611.888 287.120,1613.684 288.545,1615.110 290.342,1616.025 292.333,1616.341"/>
      <polygon points="314.303,1615.959 316.080,1615.053 317.490,1613.643 318.396,1611.866 318.708,1609.896 318.396,1607.926 317.490,1606.149 316.080,1604.739 314.303,1603.834 312.333,1603.522 310.364,1603.834 308.586,1604.739 307.176,1606.149 306.271,1607.926 305.959,1609.896 306.271,1611.866 307.176,1613.643 308.586,1615.053 310.364,1615.959 312.333,1616.271"/>
      <polygon points="274.258,1615.821 275.995,1614.936 277.373,1613.558 278.258,1611.821 278.563,1609.896 278.258,1607.971 277.373,1606.234 275.995,1604.856 274.258,1603.971 272.333,1603.666 270.408,1603.971 268.672,1604.856 267.293,1606.234 266.408,1607.971 266.103,1609.896 266.408,1611.821 267.293,1613.558 268.672,1614.936 270.408,1615.821 272.333,1616.126"/>
      <polygon points="334.235,1615.750 335.951,1614.876 337.313,1613.514 338.187,1611.798 338.488,1609.896 338.187,1607.994 337.313,1606.278 335.951,1604.917 334.235,1604.042 332.333,1603.741 330.431,1604.042 328.716,1604.917 327.354,1606.278 326.480,1607.994 326.178,1609.896 326.480,1611.798 327.354,1613.514 328.716,1614.876 330.431,1615.750 332.333,1616.051"/>
      <polygon points="254.187,1615.602 255.860,1614.750 257.187,1613.423 258.040,1611.750 258.333,1609.896 258.040,1608.042 257.187,1606.369 255.860,1605.042 254.187,1604.190 252.333,1603.896 250.479,1604.190 248.807,1605.042 247.479,1606.369 246.627,1608.042 246.333,1609.896 246.627,1611.750 247.479,1613.423 248.807,1614.750 250.479,1615.602 252.333,1615.896"/>
      <polygon points="354.187,1615.602 355.860,1614.750 357.187,1613.423 358.040,1611.750 358.333,1609.896 358.040,1608.042 357.187,1606.369 355.860,1605.042 354.187,1604.190 352.333,1603.896 350.479,1604.190 348.807,1605.042 347.479,1606.369 346.627,1608.042 346.333,1609.896 346.627,1611.750 347.479,1613.423 348.807,1614.750 350.479,1615.602 352.333,1615.896"/>
      <polygon points="233.766,1615.555 235.526,1614.783 236.940,1613.482 237.854,1611.792 238.171,1609.896 237.854,1608.001 236.940,1606.311 235.526,1605.009 233.766,1604.237 231.851,1604.079 229.988,1604.550 228.380,1605.601 227.200,1607.118 226.576,1608.935 226.576,1610.857 227.200,1612.674 228.380,1614.191 229.988,1615.242 231.851,1615.714"/>
      <polygon points="373.746,1615.473 375.480,1614.712 376.873,1613.430 377.775,1611.764 378.086,1609.896 377.775,1608.028 376.873,1606.363 375.480,1605.080 373.746,1604.319 371.858,1604.163 370.022,1604.628 368.437,1605.663 367.274,1607.158 366.659,1608.949 366.659,1610.843 367.274,1612.634 368.437,1614.129 370.022,1615.165 371.858,1615.630"/>
      <polygon points="213.703,1615.304 215.384,1614.566 216.735,1613.322 217.609,1611.707 217.911,1609.896 217.609,1608.085 216.735,1606.470 215.384,1605.226 213.703,1604.489 211.873,1604.337 210.093,1604.788 208.555,1605.792 207.428,1607.241 206.831,1608.978 206.831,1610.814 207.428,1612.551 208.555,1614.000 210.093,1615.004 211.873,1615.455"/>
      <polygon points="395.077,1614.648 396.537,1613.423 397.490,1611.773 397.821,1609.896 397.490,1608.019 396.537,1606.369 395.077,1605.144 393.286,1604.492 391.381,1604.492 389.590,1605.144 388.130,1606.369 387.177,1608.019 386.846,1609.896 387.177,1611.773 388.130,1613.423 389.590,1614.648 391.381,1615.300 393.286,1615.300"/>
      <polygon points="194.982,1614.485 196.392,1613.302 197.312,1611.708 197.632,1609.896 197.312,1608.084 196.392,1606.491 194.982,1605.308 193.253,1604.678 191.413,1604.678 189.684,1605.308 188.275,1606.491 187.355,1608.084 187.035,1609.896 187.355,1611.708 188.275,1613.302 189.684,1614.485 191.413,1615.114 193.253,1615.114"/>
      <polygon points="414.982,1614.485 416.392,1613.302 417.312,1611.708 417.632,1609.896 417.312,1608.084 416.392,1606.491 414.982,1605.308 413.253,1604.678 411.413,1604.678 409.684,1605.308 408.275,1606.491 407.355,1608.084 407.035,1609.896 407.355,1611.708 408.275,1613.302 409.684,1614.485 411.413,1615.114 413.253,1615.114"/>
      <polygon points="174.883,1614.312 176.239,1613.174 177.125,1611.640 177.432,1609.896 177.125,1608.152 176.239,1606.619 174.883,1605.480 173.219,1604.875 171.448,1604.875 169.784,1605.480 168.427,1606.619 167.542,1608.152 167.234,1609.896 167.542,1611.640 168.427,1613.174 169.784,1614.312 171.448,1614.918 173.219,1614.918"/>
      <polygon points="434.560,1614.368 436.025,1613.262 436.991,1611.701 437.329,1609.896 436.991,1608.092 436.025,1606.531 434.560,1605.424 432.794,1604.922 430.966,1605.091 429.323,1605.910 428.086,1607.266 427.423,1608.978 427.423,1610.814 428.086,1612.526 429.323,1613.883 430.966,1614.701 432.794,1614.870"/>
      <polygon points="154.362,1613.970 155.696,1612.962 156.577,1611.540 156.884,1609.896 156.577,1608.252 155.696,1606.830 154.362,1605.823 152.753,1605.365 151.088,1605.519 149.591,1606.265 148.464,1607.501 147.860,1609.060 147.860,1610.732 148.464,1612.292 149.591,1613.528 151.088,1614.273 152.753,1614.427"/>
      <polygon points="453.982,1613.877 455.380,1612.943 456.314,1611.545 456.642,1609.896 456.314,1608.247 455.380,1606.850 453.982,1605.916 452.333,1605.588 450.685,1605.916 449.287,1606.850 448.353,1608.247 448.025,1609.896 448.353,1611.545 449.287,1612.943 450.685,1613.877 452.333,1614.205"/>
      <polygon points="133.456,1613.353 134.765,1612.597 135.654,1611.374 135.968,1609.896 135.654,1608.418 134.765,1607.195 133.456,1606.440 131.953,1606.282 130.516,1606.749 129.393,1607.760 128.778,1609.141 128.778,1610.652 129.393,1612.032 130.516,1613.044 131.953,1613.511"/>
      <polygon points="474.412,1612.502 475.337,1611.342 475.667,1609.896 475.337,1608.450 474.412,1607.290 473.075,1606.646 471.592,1606.646 470.255,1607.290 469.330,1608.450 469.000,1609.896 469.330,1611.342 470.255,1612.502 471.592,1613.146 473.075,1613.146"/>
      <polygon points="113.576,1612.048 114.485,1611.139 114.818,1609.896 114.485,1608.654 113.576,1607.744 112.333,1607.411 111.091,1607.744 110.181,1608.654 109.848,1609.896 110.181,1611.139 111.091,1612.048 112.333,1612.381"/>
      <polygon points="493.384,1611.715 494.153,1610.946 494.434,1609.896 494.153,1608.846 493.384,1608.077 492.333,1607.796 491.283,1608.077 490.514,1608.846 490.233,1609.896 490.514,1610.946 491.283,1611.715 492.333,1611.997"/>
      <polygon points="294.325,1636.025 296.121,1635.110 297.547,1633.684 298.462,1631.888 298.778,1629.896 298.462,1627.905 297.547,1626.108 296.121,1624.683 294.325,1623.767 292.333,1623.452 290.342,1623.767 288.545,1624.683 287.120,1626.108 286.204,1627.905 285.889,1629.896 286.204,1631.888 287.120,1633.684 288.545,1635.110 290.342,1636.025 292.333,1636.341"/>
      <polygon points="314.303,1635.959 316.080,1635.053 317.490,1633.643 318.396,1631.866 318.708,1629.896 318.396,1627.926 317.490,1626.149 316.080,1624.739 314.303,1623.834 312.333,1623.522 310.364,1623.834 308.586,1624.739 307.176,1626.149 306.271,1627.926 305.959,1629.896 306.271,1631.866 307.176,1633.643 308.586,1635.053 310.364,1635.959 312.333,1636.271"/>
      <polygon points="274.258,1635.821 275.995,1634.936 277.373,1633.558 278.258,1631.821 278.563,1629.896 278.258,1627.971 277.373,1626.234 275.995,1624.856 274.258,1623.971 272.333,1623.666 270.408,1623.971 268.672,1624.856 267.293,1626.234 266.408,1627.971 266.103,1629.896 266.408,1631.821 267.293,1633.558 268.672,1634.936 270.408,1635.821 272.333,1636.126"/>
      <polygon points="334.235,1635.750 335.951,1634.876 337.313,1633.514 338.187,1631.798 338.488,1629.896 338.187,1627.994 337.313,1626.278 335.951,1624.917 334.235,1624.042 332.333,1623.741 330.431,1624.042 328.716,1624.917 327.354,1626.278 326.480,1627.994 326.178,1629.896 326.480,1631.798 327.354,1633.514 328.716,1634.876 330.431,1635.750 332.333,1636.051"/>
      <polygon points="254.187,1635.602 255.860,1634.750 257.187,1633.423 258.040,1631.750 258.333,1629.896 258.040,1628.042 257.187,1626.369 255.860,1625.042 254.187,1624.190 252.333,1623.896 250.479,1624.190 248.807,1625.042 247.479,1626.369 246.627,1628.042 246.333,1629.896 246.627,1631.750 247.479,1633.423 248.807,1634.750 250.479,1635.602 252.333,1635.896"/>
      <polygon points="354.187,1635.602 355.860,1634.750 357.187,1633.423 358.040,1631.750 358.333,1629.896 358.040,1628.042 357.187,1626.369 355.860,1625.042 354.187,1624.190 352.333,1623.896 350.479,1624.190 348.807,1625.042 347.479,1626.369 346.627,1628.042 346.333,1629.896 346.627,1631.750 347.479,1633.423 348.807,1634.750 350.479,1635.602 352.333,1635.896"/>
      <polygon points="233.766,1635.555 235.526,1634.783 236.940,1633.482 237.854,1631.792 238.171,1629.896 237.854,1628.001 236.940,1626.311 235.526,1625.009 233.766,1624.237 231.851,1624.079 229.988,1624.550 228.380,1625.601 227.200,1627.118 226.576,1628.935 226.576,1630.857 227.200,1632.674 228.380,1634.191 229.988,1635.242 231.851,1635.714"/>
      <polygon points="373.746,1635.473 375.480,1634.712 376.873,1633.430 377.775,1631.764 378.086,1629.896 377.775,1628.028 376.873,1626.363 375.480,1625.080 373.746,1624.319 371.858,1624.163 370.022,1624.628 368.437,1625.663 367.274,1627.158 366.659,1628.949 366.659,1630.843 367.274,1632.634 368.437,1634.129 370.022,1635.165 371.858,1635.630"/>
      <polygon points="213.703,1635.304 215.384,1634.566 216.735,1633.322 217.609,1631.707 217.911,1629.896 217.609,1628.085 216.735,1626.470 215.384,1625.226 213.703,1624.489 211.873,1624.337 210.093,1624.788 208.555,1625.792 207.428,1627.241 206.831,1628.978 206.831,1630.814 207.428,1632.551 208.555,1634.000 210.093,1635.004 211.873,1635.455"/>
      <polygon points="395.077,1634.648 396.537,1633.423 397.490,1631.773 397.821,1629.896 397.490,1628.019 396.537,1626.369 395.077,1625.144 393.286,1624.492 391.381,1624.492 389.590,1625.144 388.130,1626.369 387.177,1628.019 386.846,1629.896 387.177,1631.773 388.130,1633.423 389.590,1634.648 391.381,1635.300 393.286,1635.300"/>
      <polygon points="414.982,1634.485 416.392,1633.302 417.312,1631.708 417.632,1629.896 417.312,1628.084 416.392,1626.491 414.982,1625.308 413.253,1624.678 411.413,1624.678 409.684,1625.308 408.275,1626.491 407.355,1628.084 407.035,1629.896 407.355,1631.708 408.275,1633.302 409.684,1634.485 411.413,1635.114 413.253,1635.114"/>
      <polygon points="194.982,1634.485 196.392,1633.302 197.312,1631.708 197.632,1629.896 197.312,1628.084 196.392,1626.491 194.982,1625.308 193.253,1624.678 191.413,1624.678 189.684,1625.308 188.275,1626.491 187.355,1628.084 187.035,1629.896 187.355,1631.708 188.275,1633.302 189.684,1634.485 191.413,1635.114 193.253,1635.114"/>
      <polygon points="174.883,1634.312 176.239,1633.174 177.125,1631.640 177.432,1629.896 177.125,1628.152 176.239,1626.619 174.883,1625.480 173.219,1624.875 171.448,1624.875 169.784,1625.480 168.427,1626.619 167.542,1628.152 167.234,1629.896 167.542,1631.640 168.427,1633.174 169.784,1634.312 171.448,1634.918 173.219,1634.918"/>
      <polygon points="434.560,1634.368 436.025,1633.262 436.991,1631.701 437.329,1629.896 436.991,1628.092 436.025,1626.531 434.560,1625.424 432.794,1624.922 430.966,1625.091 429.323,1625.910 428.086,1627.266 427.423,1628.978 427.423,1630.814 428.086,1632.526 429.323,1633.883 430.966,1634.701 432.794,1634.870"/>
      <polygon points="154.362,1633.970 155.696,1632.962 156.577,1631.540 156.884,1629.896 156.577,1628.252 155.696,1626.830 154.362,1625.823 152.753,1625.365 151.088,1625.519 149.591,1626.265 148.464,1627.501 147.860,1629.060 147.860,1630.732 148.464,1632.292 149.591,1633.528 151.088,1634.273 152.753,1634.427"/>
      <polygon points="453.982,1633.877 455.380,1632.943 456.314,1631.545 456.642,1629.896 456.314,1628.247 455.380,1626.850 453.982,1625.916 452.333,1625.588 450.685,1625.916 449.287,1626.850 448.353,1628.247 448.025,1629.896 448.353,1631.545 449.287,1632.943 450.685,1633.877 452.333,1634.205"/>
      <polygon points="133.456,1633.353 134.765,1632.597 135.654,1631.374 135.968,1629.896 135.654,1628.418 134.765,1627.195 133.456,1626.440 131.953,1626.282 130.516,1626.749 129.393,1627.760 128.778,1629.141 128.778,1630.652 129.393,1632.032 130.516,1633.044 131.953,1633.511"/>
      <polygon points="474.412,1632.502 475.337,1631.342 475.667,1629.896 475.337,1628.450 474.412,1627.290 473.075,1626.646 471.592,1626.646 470.255,1627.290 469.330,1628.450 469.000,1629.896 469.330,1631.342 470.255,1632.502 471.592,1633.146 473.075,1633.146"/>
      <polygon points="113.576,1632.048 114.485,1631.139 114.818,1629.896 114.485,1628.654 113.576,1627.744 112.333,1627.411 111.091,1627.744 110.181,1628.654 109.848,1629.896 110.181,1631.139 111.091,1632.048 112.333,1632.381"/>
      <polygon points="493.384,1631.715 494.153,1630.946 494.434,1629.896 494.153,1628.846 493.384,1628.077 492.333,1627.796 491.283,1628.077 490.514,1628.846 490.233,1629.896 490.514,1630.946 491.283,1631.715 492.333,1631.997"/>
      <polygon points="294.325,1656.025 296.121,1655.110 297.547,1653.684 298.462,1651.888 298.778,1649.896 298.462,1647.905 297.547,1646.108 296.121,1644.683 294.325,1643.767 292.333,1643.452 290.342,1643.767 288.545,1644.683 287.120,1646.108 286.204,1647.905 285.889,1649.896 286.204,1651.888 287.120,1653.684 288.545,1655.110 290.342,1656.025 292.333,1656.341"/>
      <polygon points="314.303,1655.959 316.080,1655.053 317.490,1653.643 318.396,1651.866 318.708,1649.896 318.396,1647.926 317.490,1646.149 316.080,1644.739 314.303,1643.834 312.333,1643.522 310.364,1643.834 308.586,1644.739 307.176,1646.149 306.271,1647.926 305.959,1649.896 306.271,1651.866 307.176,1653.643 308.586,1655.053 310.364,1655.959 312.333,1656.271"/>
      <polygon points="274.258,1655.821 275.995,1654.936 277.373,1653.558 278.258,1651.821 278.563,1649.896 278.258,1647.971 277.373,1646.234 275.995,1644.856 274.258,1643.971 272.333,1643.666 270.408,1643.971 268.672,1644.856 267.293,1646.234 266.408,1647.971 266.103,1649.896 266.408,1651.821 267.293,1653.558 268.672,1654.936 270.408,1655.821 272.333,1656.126"/>
      <polygon points="334.235,1655.750 335.951,1654.876 337.313,1653.514 338.187,1651.798 338.488,1649.896 338.187,1647.994 337.313,1646.278 335.951,1644.917 334.235,1644.042 332.333,1643.741 330.431,1644.042 328.716,1644.917 327.354,1646.278 326.480,1647.994 326.178,1649.896 326.480,1651.798 327.354,1653.514 328.716,1654.876 330.431,1655.750 332.333,1656.051"/>
      <polygon points="254.187,1655.602 255.860,1654.750 257.187,1653.423 258.040,1651.750 258.333,1649.896 258.040,1648.042 257.187,1646.369 255.860,1645.042 254.187,1644.190 252.333,1643.896 250.479,1644.190 248.807,1645.042 247.479,1646.369 246.627,1648.042 246.333,1649.896 246.627,1651.750 247.479,1653.423 248.807,1654.750 250.479,1655.602 252.333,1655.896"/>
      <polygon points="354.187,1655.602 355.860,1654.750 357.187,1653.423 358.040,1651.750 358.333,1649.896 358.040,1648.042 357.187,1646.369 355.860,1645.042 354.187,1644.190 352.333,1643.896 350.479,1644.190 348.807,1645.042 347.479,1646.369 346.627,1648.042 346.333,1649.896 346.627,1651.750 347.479,1653.423 348.807,1654.750 350.479,1655.602 352.333,1655.896"/>
      <polygon points="233.766,1655.555 235.526,1654.783 236.940,1653.482 237.854,1651.792 238.171,1649.896 237.854,1648.001 236.940,1646.311 235.526,1645.009 233.766,1644.237 231.851,1644.079 229.988,1644.550 228.380,1645.601 227.200,1647.118 226.576,1648.935 226.576,1650.857 227.200,1652.674 228.380,1654.191 229.988,1655.242 231.851,1655.714"/>
      <polygon points="373.746,1655.473 375.480,1654.712 376.873,1653.430 377.775,1651.764 378.086,1649.896 377.775,1648.028 376.873,1646.363 375.480,1645.080 373.746,1644.319 371.858,1644.163 370.022,1644.628 368.437,1645.663 367.274,1647.158 366.659,1648.949 366.659,1650.843 367.274,1652.634 368.437,1654.129 370.022,1655.165 371.858,1655.630"/>
      <polygon points="213.703,1655.304 215.384,1654.566 216.735,1653.322 217.609,1651.707 217.911,1649.896 217.609,1648.085 216.735,1646.470 215.384,1645.226 213.703,1644.489 211.873,1644.337 210.093,1644.788 208.555,1645.792 207.428,1647.241 206.831,1648.978 206.831,1650.814 207.428,1652.551 208.555,1654.000 210.093,1655.004 211.873,1655.455"/>
      <polygon points="395.077,1654.648 396.537,1653.423 397.490,1651.773 397.821,1649.896 397.490,1648.019 396.537,1646.369 395.077,1645.144 393.286,1644.492 391.381,1644.492 389.590,1645.144 388.130,1646.369 387.177,1648.019 386.846,1649.896 387.177,1651.773 388.130,1653.423 389.590,1654.648 391.381,1655.300 393.286,1655.300"/>
      <polygon points="414.982,1654.485 416.392,1653.302 417.312,1651.708 417.632,1649.896 417.312,1648.084 416.392,1646.491 414.982,1645.308 413.253,1644.678 411.413,1644.678 409.684,1645.308 408.275,1646.491 407.355,1648.084 407.035,1649.896 407.355,1651.708 408.275,1653.302 409.684,1654.485 411.413,1655.114 413.253,1655.114"/>
      <polygon points="194.982,1654.485 196.392,1653.302 197.312,1651.708 197.632,1649.896 197.312,1648.084 196.392,1646.491 194.982,1645.308 193.253,1644.678 191.413,1644.678 189.684,1645.308 188.275,1646.491 187.355,1648.084 187.035,1649.896 187.355,1651.708 188.275,1653.302 189.684,1654.485 191.413,1655.114 193.253,1655.114"/>
      <polygon points="174.883,1654.312 176.239,1653.174 177.125,1651.640 177.432,1649.896 177.125,1648.152 176.239,1646.619 174.883,1645.480 173.219,1644.875 171.448,1644.875 169.784,1645.480 168.427,1646.619 167.542,1648.152 167.234,1649.896 167.542,1651.640 168.427,1653.174 169.784,1654.312 171.448,1654.918 173.219,1654.918"/>
      <polygon points="434.560,1654.368 436.025,1653.262 436.991,1651.701 437.329,1649.896 436.991,1648.092 436.025,1646.531 434.560,1645.424 432.794,1644.922 430.966,1645.091 429.323,1645.910 428.086,1647.266 427.423,1648.978 427.423,1650.814 428.086,1652.526 429.323,1653.883 430.966,1654.701 432.794,1654.870"/>
      <polygon points="154.362,1653.970 155.696,1652.962 156.577,1651.540 156.884,1649.896 156.577,1648.252 155.696,1646.830 154.362,1645.823 152.753,1645.365 151.088,1645.519 149.591,1646.265 148.464,1647.501 147.860,1649.060 147.860,1650.732 148.464,1652.292 149.591,1653.528 151.088,1654.273 152.753,1654.427"/>
      <polygon points="453.982,1653.877 455.380,1652.943 456.314,1651.545 456.642,1649.896 456.314,1648.247 455.380,1646.850 453.982,1645.916 452.333,1645.588 450.685,1645.916 449.287,1646.850 448.353,1648.247 448.025,1649.896 448.353,1651.545 449.287,1652.943 450.685,1653.877 452.333,1654.205"/>
      <polygon points="133.456,1653.353 134.765,1652.597 135.654,1651.374 135.968,1649.896 135.654,1648.418 134.765,1647.195 133.456,1646.440 131.953,1646.282 130.516,1646.749 129.393,1647.760 128.778,1649.141 128.778,1650.652 129.393,1652.032 130.516,1653.044 131.953,1653.511"/>
      <polygon points="474.412,1652.502 475.337,1651.342 475.667,1649.896 475.337,1648.450 474.412,1647.290 473.075,1646.646 471.592,1646.646 470.255,1647.290 469.330,1648.450 469.000,1649.896 469.330,1651.342 470.255,1652.502 471.592,1653.146 473.075,1653.146"/>
      <polygon points="113.576,1652.048 114.485,1651.139 114.818,1649.896 114.485,1648.654 113.576,1647.744 112.333,1647.411 111.091,1647.744 110.181,1648.654 109.848,1649.896 110.181,1651.139 111.091,1652.048 112.333,1652.381"/>
      <polygon points="493.384,1651.715 494.153,1650.946 494.434,1649.896 494.153,1648.846 493.384,1648.077 492.333,1647.796 491.283,1648.077 490.514,1648.846 490.233,1649.896 490.514,1650.946 491.283,1651.715 492.333,1651.997"/>
      <polygon points="294.325,1676.025 296.121,1675.110 297.547,1673.684 298.462,1671.888 298.778,1669.896 298.462,1667.905 297.547,1666.108 296.121,1664.683 294.325,1663.767 292.333,1663.452 290.342,1663.767 288.545,1664.683 287.120,1666.108 286.204,1667.905 285.889,1669.896 286.204,1671.888 287.120,1673.684 288.545,1675.110 290.342,1676.025 292.333,1676.341"/>
      <polygon points="314.303,1675.959 316.080,1675.053 317.490,1673.643 318.396,1671.866 318.708,1669.896 318.396,1667.926 317.490,1666.149 316.080,1664.739 314.303,1663.834 312.333,1663.522 310.364,1663.834 308.586,1664.739 307.176,1666.149 306.271,1667.926 305.959,1669.896 306.271,1671.866 307.176,1673.643 308.586,1675.053 310.364,1675.959 312.333,1676.271"/>
      <polygon points="274.258,1675.821 275.995,1674.936 277.373,1673.558 278.258,1671.821 278.563,1669.896 278.258,1667.971 277.373,1666.234 275.995,1664.856 274.258,1663.971 272.333,1663.666 270.408,1663.971 268.672,1664.856 267.293,1666.234 266.408,1667.971 266.103,1669.896 266.408,1671.821 267.293,1673.558 268.672,1674.936 270.408,1675.821 272.333,1676.126"/>
      <polygon points="334.235,1675.750 335.951,1674.876 337.313,1673.514 338.187,1671.798 338.488,1669.896 338.187,1667.994 337.313,1666.278 335.951,1664.917 334.235,1664.042 332.333,1663.741 330.431,1664.042 328.716,1664.917 327.354,1666.278 326.480,1667.994 326.178,1669.896 326.480,1671.798 327.354,1673.514 328.716,1674.876 330.431,1675.750 332.333,1676.051"/>
      <polygon points="254.187,1675.602 255.860,1674.750 257.187,1673.423 258.040,1671.750 258.333,1669.896 258.040,1668.042 257.187,1666.369 255.860,1665.042 254.187,1664.190 252.333,1663.896 250.479,1664.190 248.807,1665.042 247.479,1666.369 246.627,1668.042 246.333,1669.896 246.627,1671.750 247.479,1673.423 248.807,1674.750 250.479,1675.602 252.333,1675.896"/>
      <polygon points="354.187,1675.602 355.860,1674.750 357.187,1673.423 358.040,1671.750 358.333,1669.896 358.040,1668.042 357.187,1666.369 355.860,1665.042 354.187,1664.190 352.333,1663.896 350.479,1664.190 348.807,1665.042 347.479,1666.369 346.627,1668.042 346.333,1669.896 346.627,1671.750 347.479,1673.423 348.807,1674.750 350.479,1675.602 352.333,1675.896"/>
      <polygon points="233.766,1675.555 235.526,1674.783 236.940,1673.482 237.854,1671.792 238.171,1669.896 237.854,1668.001 236.940,1666.311 235.526,1665.009 233.766,1664.237 231.851,1664.079 229.988,1664.550 228.380,1665.601 227.200,1667.118 226.576,1668.935 226.576,1670.857 227.200,1672.674 228.380,1674.191 229.988,1675.242 231.851,1675.714"/>
      <polygon points="373.746,1675.473 375.480,1674.712 376.873,1673.430 377.775,1671.764 378.086,1669.896 377.775,1668.028 376.873,1666.363 375.480,1665.080 373.746,1664.319 371.858,1664.163 370.022,1664.628 368.437,1665.663 367.274,1667.158 366.659,1668.949 366.659,1670.843 367.274,1672.634 368.437,1674.129 370.022,1675.165 371.858,1675.630"/>
      <polygon points="213.703,1675.304 215.384,1674.566 216.735,1673.322 217.609,1671.707 217.911,1669.896 217.609,1668.085 216.735,1666.470 215.384,1665.226 213.703,1664.489 211.873,1664.337 210.093,1664.788 208.555,1665.792 207.428,1667.241 206.831,1668.978 206.831,1670.814 207.428,1672.551 208.555,1674.000 210.093,1675.004 211.873,1675.455"/>
      <polygon points="395.077,1674.648 396.537,1673.423 397.490,1671.773 397.821,1669.896 397.490,1668.019 396.537,1666.369 395.077,1665.144 393.286,1664.492 391.381,1664.492 389.590,1665.144 388.130,1666.369 387.177,1668.019 386.846,1669.896 387.177,1671.773 388.130,1673.423 389.590,1674.648 391.381,1675.300 393.286,1675.300"/>
      <polygon points="194.982,1674.485 196.392,1673.302 197.312,1671.708 197.632,1669.896 197.312,1668.084 196.392,1666.491 194.982,1665.308 193.253,1664.678 191.413,1664.678 189.684,1665.308 188.275,1666.491 187.355,1668.084 187.035,1669.896 187.355,1671.708 188.275,1673.302 189.684,1674.485 191.413,1675.114 193.253,1675.114"/>
      <polygon points="414.982,1674.485 416.392,1673.302 417.312,1671.708 417.632,1669.896 417.312,1668.084 416.392,1666.491 414.982,1665.308 413.253,1664.678 411.413,1664.678 409.684,1665.308 408.275,1666.491 407.355,1668.084 407.035,1669.896 407.355,1671.708 408.275,1673.302 409.684,1674.485 411.413,1675.114 413.253,1675.114"/>
      <polygon points="174.883,1674.312 176.239,1673.174 177.125,1671.640 177.432,1669.896 177.125,1668.152 176.239,1666.619 174.883,1665.480 173.219,1664.875 171.448,1664.875 169.784,1665.480 168.427,1666.619 167.542,1668.152 167.234,1669.896 167.542,1671.640 168.427,1673.174 169.784,1674.312 171.448,1674.918 173.219,1674.918"/>
      <polygon points="434.560,1674.368 436.025,1673.262 436.991,1671.701 437.329,1669.896 436.991,1668.092 436.025,1666.531 434.560,1665.424 432.794,1664.922 430.966,1665.091 429.323,1665.910 428.086,1667.266 427.423,1668.978 427.423,1670.814 428.086,1672.526 429.323,1673.883 430.966,1674.701 432.794,1674.870"/>
      <polygon points="154.362,1673.970 155.696,1672.962 156.577,1671.540 156.884,1669.896 156.577,1668.252 155.696,1666.830 154.362,1665.823 152.753,1665.365 151.088,1665.519 149.591,1666.265 148.464,1667.501 147.860,1669.060 147.860,1670.732 148.464,1672.292 149.591,1673.528 151.088,1674.273 152.753,1674.427"/>
      <polygon points="453.982,1673.877 455.380,1672.943 456.314,1671.545 456.642,1669.896 456.314,1668.247 455.380,1666.850 453.982,1665.916 452.333,1665.588 450.685,1665.916 449.287,1666.850 448.353,1668.247 448.025,1669.896 448.353,1671.545 449.287,1672.943 450.685,1673.877 452.333,1674.205"/>
      <polygon points="133.456,1673.353 134.765,1672.597 135.654,1671.374 135.968,1669.896 135.654,1668.418 134.765,1667.195 133.456,1666.440 131.953,1666.282 130.516,1666.749 129.393,1667.760 128.778,1669.141 128.778,1670.652 129.393,1672.032 130.516,1673.044 131.953,1673.511"/>
      <polygon points="474.412,1672.502 475.337,1671.342 475.667,1669.896 475.337,1668.450 474.412,1667.290 473.075,1666.646 471.592,1666.646 470.255,1667.290 469.330,1668.450 469.000,1669.896 469.330,1671.342 470.255,1672.502 471.592,1673.146 473.075,1673.146"/>
      <polygon points="113.576,1672.048 114.485,1671.139 114.818,1669.896 114.485,1668.654 113.576,1667.744 112.333,1667.411 111.091,1667.744 110.181,1668.654 109.848,1669.896 110.181,1671.139 111.091,1672.048 112.333,1672.381"/>
      <polygon points="493.384,1671.715 494.153,1670.946 494.434,1669.896 494.153,1668.846 493.384,1668.077 492.333,1667.796 491.283,1668.077 490.514,1668.846 490.233,1669.896 490.514,1670.946 491.283,1671.715 492.333,1671.997"/>
    </g>
    <g stroke="#EF6C00" stroke-width="0.4" fill="none">
    </g>
  </g>
  <g stroke="#000000" stroke-width="0.4">
    <line x1="500.000" y1="1000.000" x2="1500.000" y2="1000.000"/>
  </g>
  <g stroke="#000000" stroke-width="0.4">
    <line x1="1000.000" y1="500.000" x2="1000.000" y2="1500.000"/>
  </g>
  <circle cx="1000.000" cy="1000.000" r="1000.000" stroke="red" stroke-width="1" fill="none"/>
  </g>
</svg>
