<?xml version="1.0" encoding="UTF-8"?>
<svg xmlns="http://www.w3.org/2000/svg" version="1.1" width="2000" height="2000">
  <g fill="none" stroke-linecap="round" stroke-linejoin="round">
  <text x="10" y="20" font-size="24" fill="#555">Layer 284 Z=68.800 mm</text>
  <g transform="translate(700.000,-602.229)">
    <g stroke="#2E7D32" stroke-width="0.4">
      <line x1="272.844" y1="1679.230" x2="272.844" y2="1629.230"/>
      <line x1="273.844" y1="1679.230" x2="273.844" y2="1629.230"/>
      <line x1="274.844" y1="1679.230" x2="274.844" y2="1629.230"/>
      <line x1="275.844" y1="1679.230" x2="275.844" y2="1629.230"/>
      <line x1="276.844" y1="1679.230" x2="276.844" y2="1629.230"/>
      <line x1="277.844" y1="1679.230" x2="277.844" y2="1629.230"/>
      <line x1="278.844" y1="1679.230" x2="278.844" y2="1629.230"/>
      <line x1="279.844" y1="1679.230" x2="279.844" y2="1629.230"/>
      <line x1="280.844" y1="1679.230" x2="280.844" y2="1629.230"/>
      <line x1="281.844" y1="1679.230" x2="281.844" y2="1629.230"/>
      <line x1="282.844" y1="1679.230" x2="282.844" y2="1629.230"/>
      <line x1="283.844" y1="1679.230" x2="283.844" y2="1629.230"/>
      <line x1="284.844" y1="1679.230" x2="284.844" y2="1629.230"/>
      <line x1="285.844" y1="1679.230" x2="285.844" y2="1629.230"/>
      <line x1="286.844" y1="1679.230" x2="286.844" y2="1629.230"/>
      <line x1="287.844" y1="1679.230" x2="287.844" y2="1629.230"/>
      <line x1="288.844" y1="1679.230" x2="288.844" y2="1629.230"/>
      <line x1="289.844" y1="1679.230" x2="289.844" y2="1629.230"/>
      <line x1="290.844" y1="1679.230" x2="290.844" y2="1629.230"/>
      <line x1="291.844" y1="1679.230" x2="291.844" y2="1629.230"/>
      <line x1="292.844" y1="1679.230" x2="292.844" y2="1629.230"/>
      <line x1="293.844" y1="1679.230" x2="293.844" y2="1629.230"/>
      <line x1="294.844" y1="1679.230" x2="294.844" y2="1629.230"/>
      <line x1="295.844" y1="1679.230" x2="295.844" y2="1629.230"/>
      <line x1="296.844" y1="1679.230" x2="296.844" y2="1629.230"/>
      <line x1="297.844" y1="1679.230" x2="297.844" y2="1629.230"/>
      <line x1="298.844" y1="1679.230" x2="298.844" y2="1629.230"/>
      <line x1="299.844" y1="1679.230" x2="299.844" y2="1629.230"/>
      <line x1="300.844" y1="1679.230" x2="300.844" y2="1629.230"/>
      <line x1="301.844" y1="1679.230" x2="301.844" y2="1629.230"/>
      <line x1="302.844" y1="1679.230" x2="302.844" y2="1629.230"/>
      <line x1="303.844" y1="1679.230" x2="303.844" y2="1629.230"/>
      <line x1="304.844" y1="1679.230" x2="304.844" y2="1629.230"/>
      <line x1="305.844" y1="1679.230" x2="305.844" y2="1629.230"/>
      <line x1="306.844" y1="1679.230" x2="306.844" y2="1629.230"/>
      <line x1="307.844" y1="1679.230" x2="307.844" y2="1629.230"/>
      <line x1="308.844" y1="1679.230" x2="308.844" y2="1629.230"/>
      <line x1="309.844" y1="1679.230" x2="309.844" y2="1629.230"/>
      <line x1="310.844" y1="1679.230" x2="310.844" y2="1629.230"/>
      <line x1="311.844" y1="1679.230" x2="311.844" y2="1629.230"/>
      <line x1="312.844" y1="1679.230" x2="312.844" y2="1629.230"/>
      <line x1="313.844" y1="1679.230" x2="313.844" y2="1629.230"/>
      <line x1="314.844" y1="1679.230" x2="314.844" y2="1629.230"/>
      <line x1="315.844" y1="1679.230" x2="315.844" y2="1629.230"/>
      <line x1="316.844" y1="1679.230" x2="316.844" y2="1629.230"/>
      <line x1="317.844" y1="1679.230" x2="317.844" y2="1629.230"/>
      <line x1="318.844" y1="1679.230" x2="318.844" y2="1629.230"/>
      <line x1="319.844" y1="1679.230" x2="319.844" y2="1629.230"/>
      <line x1="320.844" y1="1679.230" x2="320.844" y2="1629.230"/>
      <line x1="321.844" y1="1679.230" x2="321.844" y2="1629.230"/>
      <line x1="322.844" y1="1679.230" x2="322.844" y2="1629.230"/>
      <line x1="323.844" y1="1679.230" x2="323.844" y2="1629.230"/>
      <line x1="324.844" y1="1679.230" x2="324.844" y2="1629.230"/>
      <line x1="325.844" y1="1679.230" x2="325.844" y2="1629.230"/>
      <line x1="326.844" y1="1679.230" x2="326.844" y2="1629.230"/>
      <line x1="327.844" y1="1679.230" x2="327.844" y2="1629.230"/>
      <line x1="272.844" y1="1629.130" x2="272.844" y2="1579.130"/>
      <line x1="273.844" y1="1629.130" x2="273.844" y2="1579.130"/>
      <line x1="274.844" y1="1629.130" x2="274.844" y2="1579.130"/>
      <line x1="275.844" y1="1629.130" x2="275.844" y2="1579.130"/>
      <line x1="276.844" y1="1629.130" x2="276.844" y2="1579.130"/>
      <line x1="277.844" y1="1629.130" x2="277.844" y2="1579.130"/>
      <line x1="278.844" y1="1629.130" x2="278.844" y2="1579.130"/>
      <line x1="279.844" y1="1629.130" x2="279.844" y2="1579.130"/>
      <line x1="280.844" y1="1629.130" x2="280.844" y2="1579.130"/>
      <line x1="281.844" y1="1629.130" x2="281.844" y2="1579.130"/>
      <line x1="282.844" y1="1629.130" x2="282.844" y2="1579.130"/>
      <line x1="283.844" y1="1629.130" x2="283.844" y2="1579.130"/>
      <line x1="284.844" y1="1629.130" x2="284.844" y2="1579.130"/>
      <line x1="285.844" y1="1629.130" x2="285.844" y2="1579.130"/>
      <line x1="286.844" y1="1629.130" x2="286.844" y2="1579.130"/>
      <line x1="287.844" y1="1629.130" x2="287.844" y2="1579.130"/>
      <line x1="288.844" y1="1629.130" x2="288.844" y2="1579.130"/>
      <line x1="289.844" y1="1629.130" x2="289.844" y2="1579.130"/>
      <line x1="290.844" y1="1629.130" x2="290.844" y2="1579.130"/>
      <line x1="291.844" y1="1629.130" x2="291.844" y2="1579.130"/>
      <line x1="292.844" y1="1629.130" x2="292.844" y2="1579.130"/>
      <line x1="293.844" y1="1629.130" x2="293.844" y2="1579.130"/>
      <line x1="294.844" y1="1629.130" x2="294.844" y2="1579.130"/>
      <line x1="295.844" y1="1629.130" x2="295.844" y2="1579.130"/>
      <line x1="296.844" y1="1629.130" x2="296.844" y2="1579.130"/>
      <line x1="297.844" y1="1629.130" x2="297.844" y2="1579.130"/>
      <line x1="298.844" y1="1629.130" x2="298.844" y2="1579.130"/>
      <line x1="299.844" y1="1629.130" x2="299.844" y2="1579.130"/>
      <line x1="300.844" y1="1629.130" x2="300.844" y2="1579.130"/>
      <line x1="301.844" y1="1629.130" x2="301.844" y2="1579.130"/>
      <line x1="302.844" y1="1629.130" x2="302.844" y2="1579.130"/>
      <line x1="303.844" y1="1629.130" x2="303.844" y2="1579.130"/>
      <line x1="304.844" y1="1629.130" x2="304.844" y2="1579.130"/>
      <line x1="305.844" y1="1629.130" x2="305.844" y2="1579.130"/>
      <line x1="306.844" y1="1629.130" x2="306.844" y2="1579.130"/>
      <line x1="307.844" y1="1629.130" x2="307.844" y2="1579.130"/>
      <line x1="308.844" y1="1629.130" x2="308.844" y2="1579.130"/>
      <line x1="309.844" y1="1629.130" x2="309.844" y2="1579.130"/>
      <line x1="310.844" y1="1629.130" x2="310.844" y2="1579.130"/>
      <line x1="311.844" y1="1629.130" x2="311.844" y2="1579.130"/>
      <line x1="312.844" y1="1629.130" x2="312.844" y2="1579.130"/>
      <line x1="313.844" y1="1629.130" x2="313.844" y2="1579.130"/>
      <line x1="314.844" y1="1629.130" x2="314.844" y2="1579.130"/>
      <line x1="315.844" y1="1629.130" x2="315.844" y2="1579.130"/>
      <line x1="316.844" y1="1629.130" x2="316.844" y2="1579.130"/>
      <line x1="317.844" y1="1629.130" x2="317.844" y2="1579.130"/>
      <line x1="318.844" y1="1629.130" x2="318.844" y2="1579.130"/>
      <line x1="319.844" y1="1629.130" x2="319.844" y2="1579.130"/>
      <line x1="320.844" y1="1629.130" x2="320.844" y2="1579.130"/>
      <line x1="321.844" y1="1629.130" x2="321.844" y2="1579.130"/>
      <line x1="322.844" y1="1629.130" x2="322.844" y2="1579.130"/>
      <line x1="323.844" y1="1629.130" x2="323.844" y2="1579.130"/>
      <line x1="324.844" y1="1629.130" x2="324.844" y2="1579.130"/>
      <line x1="325.844" y1="1629.130" x2="325.844" y2="1579.130"/>
      <line x1="326.844" y1="1629.130" x2="326.844" y2="1579.130"/>
      <line x1="327.844" y1="1629.130" x2="327.844" y2="1579.130"/>
      <line x1="272.844" y1="1579.030" x2="272.844" y2="1529.030"/>
      <line x1="273.844" y1="1579.030" x2="273.844" y2="1529.030"/>
      <line x1="274.844" y1="1579.030" x2="274.844" y2="1529.030"/>
      <line x1="275.844" y1="1579.030" x2="275.844" y2="1529.030"/>
      <line x1="276.844" y1="1579.030" x2="276.844" y2="1529.030"/>
      <line x1="277.844" y1="1579.030" x2="277.844" y2="1529.030"/>
      <line x1="278.844" y1="1579.030" x2="278.844" y2="1529.030"/>
      <line x1="279.844" y1="1579.030" x2="279.844" y2="1529.030"/>
      <line x1="280.844" y1="1579.030" x2="280.844" y2="1529.030"/>
      <line x1="281.844" y1="1579.030" x2="281.844" y2="1529.030"/>
      <line x1="282.844" y1="1579.030" x2="282.844" y2="1529.030"/>
      <line x1="283.844" y1="1579.030" x2="283.844" y2="1529.030"/>
      <line x1="284.844" y1="1579.030" x2="284.844" y2="1529.030"/>
      <line x1="285.844" y1="1579.030" x2="285.844" y2="1529.030"/>
      <line x1="286.844" y1="1579.030" x2="286.844" y2="1529.030"/>
      <line x1="287.844" y1="1579.030" x2="287.844" y2="1529.030"/>
      <line x1="288.844" y1="1579.030" x2="288.844" y2="1529.030"/>
      <line x1="289.844" y1="1579.030" x2="289.844" y2="1529.030"/>
      <line x1="290.844" y1="1579.030" x2="290.844" y2="1529.030"/>
      <line x1="291.844" y1="1579.030" x2="291.844" y2="1529.030"/>
      <line x1="292.844" y1="1579.030" x2="292.844" y2="1529.030"/>
      <line x1="293.844" y1="1579.030" x2="293.844" y2="1529.030"/>
      <line x1="294.844" y1="1579.030" x2="294.844" y2="1529.030"/>
      <line x1="295.844" y1="1579.030" x2="295.844" y2="1529.030"/>
      <line x1="296.844" y1="1579.030" x2="296.844" y2="1529.030"/>
      <line x1="297.844" y1="1579.030" x2="297.844" y2="1529.030"/>
      <line x1="298.844" y1="1579.030" x2="298.844" y2="1529.030"/>
      <line x1="299.844" y1="1579.030" x2="299.844" y2="1529.030"/>
      <line x1="300.844" y1="1579.030" x2="300.844" y2="1529.030"/>
      <line x1="301.844" y1="1579.030" x2="301.844" y2="1529.030"/>
      <line x1="302.844" y1="1579.030" x2="302.844" y2="1529.030"/>
      <line x1="303.844" y1="1579.030" x2="303.844" y2="1529.030"/>
      <line x1="304.844" y1="1579.030" x2="304.844" y2="1529.030"/>
      <line x1="305.844" y1="1579.030" x2="305.844" y2="1529.030"/>
      <line x1="306.844" y1="1579.030" x2="306.844" y2="1529.030"/>
      <line x1="307.844" y1="1579.030" x2="307.844" y2="1529.030"/>
      <line x1="308.844" y1="1579.030" x2="308.844" y2="1529.030"/>
      <line x1="309.844" y1="1579.030" x2="309.844" y2="1529.030"/>
      <line x1="310.844" y1="1579.030" x2="310.844" y2="1529.030"/>
      <line x1="311.844" y1="1579.030" x2="311.844" y2="1529.030"/>
      <line x1="312.844" y1="1579.030" x2="312.844" y2="1529.030"/>
      <line x1="313.844" y1="1579.030" x2="313.844" y2="1529.030"/>
      <line x1="314.844" y1="1579.030" x2="314.844" y2="1529.030"/>
      <line x1="315.844" y1="1579.030" x2="315.844" y2="1529.030"/>
      <line x1="316.844" y1="1579.030" x2="316.844" y2="1529.030"/>
      <line x1="317.844" y1="1579.030" x2="317.844" y2="1529.030"/>
      <line x1="318.844" y1="1579.030" x2="318.844" y2="1529.030"/>
      <line x1="319.844" y1="1579.030" x2="319.844" y2="1529.030"/>
      <line x1="320.844" y1="1579.030" x2="320.844" y2="1529.030"/>
      <line x1="321.844" y1="1579.030" x2="321.844" y2="1529.030"/>
      <line x1="322.844" y1="1579.030" x2="322.844" y2="1529.030"/>
      <line x1="323.844" y1="1579.030" x2="323.844" y2="1529.030"/>
      <line x1="324.844" y1="1579.030" x2="324.844" y2="1529.030"/>
      <line x1="325.844" y1="1579.030" x2="325.844" y2="1529.030"/>
      <line x1="326.844" y1="1579.030" x2="326.844" y2="1529.030"/>
      <line x1="327.844" y1="1579.030" x2="327.844" y2="1529.030"/>
      <line x1="313.844" y1="1528.930" x2="313.844" y2="1525.229"/>
      <line x1="285.844" y1="1528.930" x2="285.844" y2="1525.229"/>
      <line x1="312.844" y1="1528.930" x2="312.844" y2="1525.229"/>
      <line x1="311.844" y1="1528.930" x2="311.844" y2="1525.229"/>
      <line x1="310.844" y1="1528.930" x2="310.844" y2="1525.229"/>
      <line x1="309.844" y1="1528.930" x2="309.844" y2="1525.229"/>
      <line x1="308.844" y1="1528.930" x2="308.844" y2="1525.229"/>
      <line x1="307.844" y1="1528.930" x2="307.844" y2="1525.229"/>
      <line x1="306.844" y1="1528.930" x2="306.844" y2="1525.229"/>
      <line x1="305.844" y1="1528.930" x2="305.844" y2="1525.229"/>
      <line x1="304.844" y1="1528.930" x2="304.844" y2="1525.229"/>
      <line x1="303.844" y1="1528.930" x2="303.844" y2="1525.229"/>
      <line x1="302.844" y1="1528.930" x2="302.844" y2="1525.229"/>
      <line x1="301.844" y1="1528.930" x2="301.844" y2="1525.229"/>
      <line x1="299.844" y1="1528.930" x2="299.844" y2="1525.229"/>
      <line x1="286.844" y1="1528.930" x2="286.844" y2="1525.229"/>
      <line x1="287.844" y1="1528.930" x2="287.844" y2="1525.229"/>
      <line x1="288.844" y1="1528.930" x2="288.844" y2="1525.229"/>
      <line x1="289.844" y1="1528.930" x2="289.844" y2="1525.229"/>
      <line x1="290.844" y1="1528.930" x2="290.844" y2="1525.229"/>
      <line x1="291.844" y1="1528.930" x2="291.844" y2="1525.229"/>
      <line x1="292.844" y1="1528.930" x2="292.844" y2="1525.229"/>
      <line x1="294.844" y1="1528.930" x2="294.844" y2="1525.229"/>
      <line x1="300.844" y1="1528.930" x2="300.844" y2="1525.229"/>
      <line x1="298.844" y1="1528.930" x2="298.844" y2="1525.229"/>
      <line x1="297.844" y1="1528.930" x2="297.844" y2="1525.229"/>
      <line x1="295.844" y1="1528.930" x2="295.844" y2="1525.229"/>
      <line x1="293.844" y1="1528.930" x2="293.844" y2="1525.229"/>
      <line x1="296.844" y1="1528.930" x2="296.844" y2="1525.229"/>
      <line x1="284.844" y1="1528.930" x2="284.844" y2="1525.229"/>
      <line x1="272.844" y1="1528.930" x2="272.844" y2="1525.229"/>
      <line x1="273.844" y1="1528.930" x2="273.844" y2="1525.229"/>
      <line x1="274.844" y1="1528.930" x2="274.844" y2="1525.229"/>
      <line x1="275.844" y1="1528.930" x2="275.844" y2="1525.229"/>
      <line x1="276.844" y1="1528.930" x2="276.844" y2="1525.229"/>
      <line x1="277.844" y1="1528.930" x2="277.844" y2="1525.229"/>
      <line x1="278.844" y1="1528.930" x2="278.844" y2="1525.229"/>
      <line x1="279.844" y1="1528.930" x2="279.844" y2="1525.229"/>
      <line x1="280.844" y1="1528.930" x2="280.844" y2="1525.229"/>
      <line x1="281.844" y1="1528.930" x2="281.844" y2="1525.229"/>
      <line x1="282.844" y1="1528.930" x2="282.844" y2="1525.229"/>
      <line x1="283.844" y1="1528.930" x2="283.844" y2="1525.229"/>
      <line x1="314.844" y1="1528.930" x2="314.844" y2="1525.229"/>
      <line x1="321.844" y1="1528.930" x2="321.844" y2="1525.229"/>
      <line x1="320.844" y1="1528.930" x2="320.844" y2="1525.229"/>
      <line x1="319.844" y1="1528.930" x2="319.844" y2="1525.229"/>
      <line x1="318.844" y1="1528.930" x2="318.844" y2="1525.229"/>
      <line x1="317.844" y1="1528.930" x2="317.844" y2="1525.229"/>
      <line x1="316.844" y1="1528.930" x2="316.844" y2="1525.229"/>
      <line x1="315.844" y1="1528.930" x2="315.844" y2="1525.229"/>
      <line x1="327.844" y1="1528.930" x2="327.844" y2="1525.229"/>
      <line x1="326.844" y1="1528.930" x2="326.844" y2="1525.229"/>
      <line x1="325.844" y1="1528.930" x2="325.844" y2="1525.229"/>
      <line x1="324.844" y1="1528.930" x2="324.844" y2="1525.229"/>
      <line x1="323.844" y1="1528.930" x2="323.844" y2="1525.229"/>
      <line x1="322.844" y1="1528.930" x2="322.844" y2="1525.229"/>
    </g>
    <g stroke="#1976D2" stroke-width="0.4">
      <polyline points="331.581,1521.729 268.419,1521.729 268.419,1682.729 331.581,1682.729 331.581,1521.729" fill="none"/>
      <polyline points="330.581,1522.729 269.419,1522.729 269.419,1681.730 330.581,1681.730 330.581,1522.729" fill="none"/>
      <polyline points="329.581,1523.729 270.419,1523.729 270.419,1680.730 329.581,1680.730 329.581,1523.729" fill="none"/>
      <polyline points="328.581,1524.729 271.419,1524.729 271.419,1679.729 328.581,1679.729 328.581,1524.729" fill="none"/>
    </g>
    <g stroke="#C62828" stroke-width="0.4" fill="none">
    </g>
    <g stroke="#EF6C00" stroke-width="0.4" fill="none">
    </g>
  </g>
  <g stroke="#000000" stroke-width="0.4">
    <line x1="500.000" y1="1000.000" x2="1500.000" y2="1000.000"/>
  </g>
  <g stroke="#000000" stroke-width="0.4">
    <line x1="1000.000" y1="500.000" x2="1000.000" y2="1500.000"/>
  </g>
  <circle cx="1000.000" cy="1000.000" r="1000.000" stroke="red" stroke-width="1" fill="none"/>
  </g>
</svg>
